<svg xmlns="http://www.w3.org/2000/svg" xmlns:xlink="http://www.w3.org/1999/xlink" viewBox="0 0 335.79 426.24"><defs><style>.cls-1{fill:none;}.cls-2{isolation:isolate;}.cls-3,.cls-30,.cls-31{fill:#553f32;}.cls-4{fill:#31231a;opacity:0.9;}.cls-5{fill:#805e4e;}.cls-31,.cls-5{opacity:0.6;}.cls-26,.cls-28,.cls-29,.cls-30,.cls-31,.cls-32,.cls-33,.cls-5{mix-blend-mode:screen;}.cls-6,.cls-8{fill:#525251;}.cls-7{fill:#cbcbcb;}.cls-14,.cls-29,.cls-33,.cls-8{opacity:0.5;}.cls-13,.cls-14,.cls-15,.cls-17,.cls-19,.cls-25,.cls-8{mix-blend-mode:multiply;}.cls-9{fill:#2b1d14;}.cls-12,.cls-15,.cls-9{opacity:0.7;}.cls-10,.cls-13,.cls-14,.cls-26,.cls-29{fill:#634a3c;}.cls-11{fill:#2a1b12;}.cls-12{fill:#33231b;}.cls-13,.cls-30{opacity:0.3;}.cls-15{fill:#47342b;}.cls-16{mask:url(#mask);}.cls-17{fill:url(#radial-gradient);}.cls-18{mask:url(#mask-2);}.cls-19{fill:url(#radial-gradient-2);}.cls-20,.cls-27,.cls-32{fill:#fff;}.cls-21{clip-path:url(#clip-path);}.cls-22{fill:#4d4329;}.cls-23{fill:#ab935f;}.cls-24{fill:#372017;}.cls-25{fill:#b9b9b9;}.cls-26,.cls-27,.cls-32{opacity:0.4;}.cls-28{fill:#856252;opacity:0.8;}.cls-33{fill:#856251;}.cls-34{fill:#c7c7c7;}.cls-35{filter:url(#luminosity-noclip-2);}.cls-36{filter:url(#luminosity-noclip);}</style><filter id="luminosity-noclip" x="-154.21" y="-364.5" width="36.73" height="31.66" filterUnits="userSpaceOnUse" color-interpolation-filters="sRGB"><feFlood flood-color="#fff" result="bg"/><feBlend in="SourceGraphic" in2="bg"/></filter><mask id="mask" x="0.5" y="104.29" width="36.73" height="31.66" maskUnits="userSpaceOnUse"><g class="cls-36"/></mask><radialGradient id="radial-gradient" cx="-147.21" cy="-332.32" r="29.59" gradientUnits="userSpaceOnUse"><stop offset="0"/><stop offset="0.21" stop-color="#030303"/><stop offset="0.35" stop-color="#0b0b0b"/><stop offset="0.46" stop-color="#1a1a1a"/><stop offset="0.56" stop-color="#2f2f2f"/><stop offset="0.66" stop-color="#4a4a4a"/><stop offset="0.75" stop-color="#6b6b6b"/><stop offset="0.83" stop-color="#939393"/><stop offset="0.91" stop-color="silver"/><stop offset="0.98" stop-color="#f3f3f3"/><stop offset="1" stop-color="#fff"/></radialGradient><filter id="luminosity-noclip-2" x="-145.51" y="-350.96" width="31.17" height="22.14" filterUnits="userSpaceOnUse" color-interpolation-filters="sRGB"><feFlood flood-color="#fff" result="bg"/><feBlend in="SourceGraphic" in2="bg"/></filter><mask id="mask-2" x="9.21" y="117.83" width="31.17" height="22.14" maskUnits="userSpaceOnUse"><g class="cls-35"/></mask><radialGradient id="radial-gradient-2" cx="-136.22" cy="-324.73" r="20.28" xlink:href="#radial-gradient"/><clipPath id="clip-path" transform="translate(154.72 468.79)"><path class="cls-1" d="M-95-391.7c-2.26,3.83-12.12,14-15.18,5-2.79-8.14,10.29-6.6,15.35-8.53A3.11,3.11,0,0,1-95-391.7C-96.58-389.06-94.76-392.66-95-391.7Z"/></clipPath></defs><title>anim_74</title><g class="cls-2"><g id="Layer_1" data-name="Layer 1"><path d="M176.72-211.75l-1.11-1.91q2.2,3.31,4.36,6.65c-2.77-3.74-4.88-8.85-8.59-12.69,4.49,2.66,5.34,7.59,8.92,10.56a35.45,35.45,0,0,0-1.93-4.92c-3.45-5.09-6.74-6.19-7.06-12.14-0.51-9.49,3.73-19.55,3.47-29.39a97.66,97.66,0,0,0-5.1-29.62c-6.08-17.58-16.8-33.83-33.23-43.13-3.07-1.74-40.71-13.87-36.89-5.4-2.17-4.68,7.11-1.51,8-1.13,7.09,2.91,14,10.47,18.92,16.11,8.67,9.84,20.64,13.3,28.87,25.16,10.76,15.51,13,34.5,12.95,52.91,0,7.85.08,15.1-1.82,21.9-1.05,3.77-5.49,13.6-2.76,17.39,0.44,0.6-.18-1-0.07-0.26-0.68-3.32.75-8,1.61-11.27-0.72,4.92-1.27,13.68,1.93,18.12-3.2-4.18-1.57-16.56-.08-20.9-1.64,6.45-2.79,15.17,1.44,20.9-3.51-4.79-2.48-14.32-.65-19.84-1.2,5.46-1.49,20.22,4.46,23.82-5.1-3-4.14-18.35-3.4-22.71-0.25,6.1.2,16.26,4.75,21-3.39-3.63-3.36-13.13-3.31-18.07,0.86,4.87,1.59,10.26,4,14.67-2.2-4.23-4.12-14.46-3.76-19.79,1.22,4.94,2.67,9.82,3.89,14.76-0.37-1.54-.65-4.95-1.09-6.77,0.71,2,2.59,5.37,2.51,7.66,0.27-4.15-2-9.16-3.08-13.32,2.76,5.59,4,11.85,7,17.32-2.39-4.36-3.14-12.87-5.92-18.23,3.21,4.09,4.5,9.06,7.17,13.45-1.74-2.86-2.75-7.6-4.36-10.94h0Z" transform="translate(154.72 468.79)"/><path class="cls-3" d="M169.34-247.9c-0.55-19.72-5-41.29-20.58-54.9-7.09-6.19-14.44-9.81-20.82-16.95-5.66-6.33-12.31-12.65-20-16.57,22.74,0.2,43.17,18.44,53.79,36.93a88.38,88.38,0,0,1,11.54,35.54c1.51,14.67-1.88,27.51-3.09,41.92-2-8.07-.65-17.28-0.88-26C169.07-257.41,169.56-239.54,169.34-247.9Z" transform="translate(154.72 468.79)"/><path class="cls-4" d="M169.51-222.62c1.29-27.64,2.54-49.54-8.52-75.76-8.27-19.61-30.61-37.76-53-38,9.57,4.91,15.72,13,23.14,20.37,7.91,7.83,18.2,12,25,21.4,16.41,22.93,9.26,46.43,13.42,71.94C169.81-229.06,168.16-230.86,169.51-222.62Z" transform="translate(154.72 468.79)"/><path class="cls-5" d="M168.61-220.07a29.63,29.63,0,0,0-2.76,17.33,33.76,33.76,0,0,1,2.76-17.33C165.94-214.57,168.64-220.13,168.61-220.07Z" transform="translate(154.72 468.79)"/><path class="cls-5" d="M168.88-217.35a19.84,19.84,0,0,0-1,7.4c0-.38.9-7.05,1-7.4C168.08-215,168.89-217.41,168.88-217.35Z" transform="translate(154.72 468.79)"/><path class="cls-5" d="M170.1-216c-1.24,5.59-.37,11,0.79,16.66-0.93-4.89-1.78-11.49-.79-16.66C170.12-216.11,169-210.39,170.1-216Z" transform="translate(154.72 468.79)"/><path class="cls-5" d="M170.64-218.34c0.5,1.3,1.24,4,1.62,5.4-0.41-1.54-1.08-3.72-1.62-5.4C170.61-218.42,171.21-216.57,170.64-218.34Z" transform="translate(154.72 468.79)"/><path class="cls-5" d="M172.56-216.73q-1,.59.77,1.76,1-.57-0.77-1.76h0Z" transform="translate(154.72 468.79)"/><path d="M167.13-159.86c0-13.51-6.64-24.86-7.46-38.28-0.9-14.7,3.29-29.07,5.46-43.37,4.39-28.91-.71-59.61-24.32-78.85a100.36,100.36,0,0,0-31.49-17.21c-11.6-3.71-23.8-.21-35.34,2.08-15.11,3-29.72,4.31-45.1,2.65C12.52-334.6,1.51-346.51-13.95-352c-23.7-8.41-41.08-27.24-53.86-48.93-5.6-9.5-6.91-31.06-21-18.75-11.12,9.75-17.36,28.92-16.22,43.3a65.3,65.3,0,0,0,4.28,18.06c1.75,4.39,2.32,2.72,4.44,7.4,5.74,12.65,10.17,26.44,15.61,39.29,12.23,28.91-1,62.54,18.8,88.49,10.54,13.79,15.36,25.79,18.22,42.76C-41-164.56-36.88-150-35.74-134c1.09,15.39,6.38,39.38-2.59,53C-43-73.87-63-51-39.84-53.7-44-43.21-36.74-43-28.21-43.27c9.47-.32,12.72-1.39,14.86-10.47,1.58-6.72,2.11-13.07,4.7-19.66,3.23-8.21,1.86-11.33.94-20.17-2-19.1,1.42-38.12,2.53-57.14,1.05-18-.91-35,2.85-53,26.7,12.7,51.62-2.25,75.75-13.56,4.12,14.61,11.23,28.41,22.31,38.94,12.45,11.83,16.89,14.95,18.16,32.56,1.23,17,4.2,33.7,6.1,50.61,1.55,13.76-6.17,20.57-10.57,32.13-2.47,6.49-2.88,10,3.42,11.91,3.42,1.06,11,.28,13.66-1.86,3.6-2.88,5.66-13,7.31-17.38a39.11,39.11,0,0,0,2.11-8.35c1.73-10.81-3.64-21.08-3.52-32.39,0.17-16.77,2.63-32.38,4.18-48.9,11.7,20.68,14.13,53.25,11.12,76.53-1.43,11-10.83,18.6-14.3,29.06-1.29,3.9-3.08,7.68-.26,10.21s11.39,1.72,14.55.37c7.16-3.05,6.63-12.11,10.18-18.57,3.18-5.78,4.18-9.16,4.47-15.57,1.21-27.64.79-54.43,4.78-81.9C167.12-162.33,166.47-155.31,167.13-159.86ZM-18.9-119c-0.71,10.7,1.37,29.24-3.37,38.75-0.73-2.53.6-5.67,0.82-8.26A207.94,207.94,0,0,0-21-113.78c-0.45-11.41-6.91-36.18-.48-46.1C-20.58-146-18-133.14-18.9-119-19.38-111.94-18.44-126-18.9-119Z" transform="translate(154.72 468.79)"/><path class="cls-6" d="M-48.91-56.75c-3.7-2.57,1.65-12.22,3.25-14.62-1.15,5.37,8.52,7.06,12.05,6.2-3.43,4.57-8.22,18.38-15.3,8.42C-50.61-57.93-47.43-54.67-48.91-56.75Z" transform="translate(154.72 468.79)"/><path class="cls-6" d="M-14.6-53.41c-0.64,7.6-15.65,13-22.4,8.33-5.74-4-.61-11.68,2.34-17.12,1.9,5.86,16.93,3.52,20.53,2q-0.3,3.41-.47,6.83h0Z" transform="translate(154.72 468.79)"/><path class="cls-6" d="M129-59.68C127.31-48.15,99.19-48,111.59-66c0.13,4.79,17.06,1.28,18.72-.4A29.59,29.59,0,0,0,129-59.68h0Z" transform="translate(154.72 468.79)"/><path class="cls-7" d="M135.87-159.68c-4.45,15.54-4.83,30.81-5,46.85a81.15,81.15,0,0,0,2.95,22.7c2,8-2,7.82-3,15.69,0.12-.94,2.9-4.8,3.61-5.68-0.57,5.68-.12,11-6.16,14.11-4.2,2.17-19.21.59-14.79-2.84a60.25,60.25,0,0,0,5.68-10.33c-3.21,7.57.8-2.42,1.58-5.57a26,26,0,0,0,1.09-6.69c0.21-14.49-4-30-5.41-44.49,0.31,1.27,3,12.79,4.25,12.79-4.7-13.33-1.36-31-9.41-42.79-8.59-12.56-21.88-19.52-29.32-33.52-1.87-3.53-4.74-8-5.28-12-1-7.45-2.52-6.5,5.63-9.51l4.53-1.78q6.06-3.86,6.75,3.26c3,3.1,4.71,9,7,12.64a186,186,0,0,0,17.62,23.06c3.67,4.23,19.26,18.62,17.71,24.13C135-156.78,136-160,135.87-159.68Z" transform="translate(154.72 468.79)"/><path class="cls-6" d="M149.7-46.14c-11.4,4.39-19.9,1.54-14.77-11.09-0.65,5.8,14.66,4.24,17.5,2.17-0.32,2.81.76,7.56-2.73,8.92C145.88-44.67,153.07-47.45,149.7-46.14Z" transform="translate(154.72 468.79)"/><path class="cls-8" d="M-37.48-65.13c-5-.65-6.62,12.89-12.6,6.73,1.31,5.59,9.33,4.06,11.33,2.31,2.18-1.91,3.22-6.51,5.14-9.08l-3.87,0h0Z" transform="translate(154.72 468.79)"/><path class="cls-8" d="M-25.31-58.75c2.68,7.33-8.75,15.19-14.71,10.56,0,5.14,14.46,4,17.77,3.11,8.45-2.23,7.19-7.45,8.12-15.16a24.2,24.2,0,0,1-11.18,1.49C-24.49-56.52-21.48-58.47-25.31-58.75Z" transform="translate(154.72 468.79)"/><path class="cls-8" d="M127-64.61c-8.2,1.35-3.26,2.84-8.38,7.69-1.9,1.8-7.59,2.61-10.09,1.45-0.72,5.59,11.31,3.57,14.08,2.49,7.37-2.87,5-6.88,7.68-13.45L127-64.61h0Z" transform="translate(154.72 468.79)"/><path class="cls-8" d="M144.5-53.23c-1,0-6,12.6-11.42,3.86-0.55,5.66,6.3,5.22,10.6,4.59,7.78-1.14,7.93-3.2,8.74-10.28-2.11,1.54-5.42,1.82-7.93,1.84h0Z" transform="translate(154.72 468.79)"/><path class="cls-3" d="M165.41-157c0.24-13.6-5.62-23.82-7.18-36.86s1.94-26.34,4-39.26c3.28-20.54,5.27-49.54-8.33-69.56C143.1-318.62,123.2-334.06,104.1-337c-12.94-2-26.29,2.65-39,4.67-15.12,2.41-30.85,2.93-45.9-.38,7.35,5.66,14.64,11.38,22.63,16.12C27.62-323.51,16.52-334.18,3-341.88c-12.18-6.91-30.52-8.53-40.9-17.6,0.44,0.39,5.77,1.58,6.32,1.78-16-10.56-32.66-29.94-40.76-47.34-1.85-4-1.8-15.7-6.73-17.71-8.22-3.36-16.47,13.61-19,18.86-9.52,20-4.87,36.22,4,54.15,4.79,9.62,6.33,20.59,11.35,30.28,4.41,8.51,10.41,20.8,15.88,27.5a171.57,171.57,0,0,1-10.58-14.42c5.93,17.93,3.56,35.61,5.76,54,1.94,16.17,10.75,25,18.28,38.51q-1.61-1.46-.54-2c7.24,16.17,10.2,30,13.74,47.35,0-1.34.86-6.22,0.62-7.44,4.55,26.22,8,53.23,6.52,80-0.36,6.45-.95,10.59-4.63,15.77-0.51.72-6.34,3.83-6.76,7.1C-45.09-67.78-38.15-64-32.95-66c4.75-1.89,9-11.11,9-15.18-0.69.92-4.25,5.67-3.87,6.42-1.35-2.6,4.45-11.53,5-15.07,1.19-7.19.52-15.37,0.23-22.62-0.63-15.48-2.25-30.08-.2-45.55-0.76,1.33-3.41,7-3.51,8.2,0.4-4.49,4.25-8,4.76-11.18,1.37-8.57-4.21-25.15-5.81-33.71C-28-198.16-28-204-30-207c-2.23-3.15-2-1.72-5.26-3.91-6.43-4.28-12.93-9.63-19.51-13.59,6.73,4.13,14.56,9.6,22.4,12.89-9.1-11.94-21.21-19.08-25.78-34.25-4-13.12-6.17-32.79-3.39-46.12-1.39,7.15,1.05,17.63,1.73,24.81,1,10.44,2.21,21,7.59,30.26,4.37,7.49,11.06,12.94,16.6,19.49,5.81,6.86,8.93,15.1,13.22,21.93-2.19-3.44-4.07-7.06-6.17-10.56,4.24,12.27,5.19,25.73,7.2,38.48,0.05-1.58.41-8.43-.46-10.17,2.64,5.37,1.29,9.85,1.9,15.55,0.21,1.94,4.12,12,3.14,12.93q-1.28.46-1.68-1.18c4.53,20.22,1,44.22-1.45,64.58q-1-4.41,1.67-4.77A39.09,39.09,0,0,1-22.45-77.5c-2,3.22-10.69,9.75-10.68,12.78,0,4.64,2.76,4.08,8.22,4.53,9.91,0.8,11.76-.43,13.25-10.17-1.14,1.62-4.81,6.75-5.07,8.18,1.68-9.87,9-12.82,8.66-23.26-0.37-12.95-1.8-25.42-1-38.43,0.58-9.19,2.1-18.36,2.51-27.54s-2-18-2.77-26.78A30.46,30.46,0,0,0-6.5-170c-1-18.12,3.51-34.83,5.88-52.63,1.23-9.27,2.77-18.61,3.46-27.94,0.49-6.71,2.43-16.81.9-23.21,3.7,15.44-.49,34.89-2.61,50.3,2.35-5.2,7.5-12.36,7-18.16,0.48,6-3.05,11.7-5.24,17.08-2.63,6.48-3.6,13.32-5.09,20.42,6.71,0.3,13,3.53,20,3.72a72.09,72.09,0,0,0,25.32-4.11C59.08-210,74-222.91,91-225.14c-5-11.7-8.8-24.48-9.39-37.22-0.45-9.71,4-22.29,2.16-31.24,2.73,12.51-1.69,27.09.42,40.21a121.12,121.12,0,0,0,11,33.32c10.64,21.89,30.16,36.92,42,57.44,7.28,12.57,9.69,27,10.85,41.3,1.06,13,3.86,30.8-.33,43.44-2.49,7.51-16.65,16.78-8.83,22.6,11.16,8.31,20.92-10.46,21.6-18.88A20,20,0,0,0,157-69.78q-0.14-.07-0.24.16c-1.16-2.27,4.39-7,4.69-9.79s-5.62-16.39-.74-5.13c-0.2-11.78-.55-23.82.06-35.59,0.64-12.41,4.45-24.43,4.66-36.88C165.51-162.59,165.26-147.76,165.41-157Z" transform="translate(154.72 468.79)"/><path class="cls-9" d="M-1.66-215.08c2.33-16,4.32-32,4.94-48.22,0.2-5.17.68-9.75-.48-14.74-0.59-2.52-7.57-16.15-7.35-16.36,0.49-.46,5.36,2.72,5.57,2.83-2.78-5-16.9-12.56-13.24-17.33-4.38-.61-5.9.05-5.16-4.64a81.27,81.27,0,0,0-9.42,6.32c-0.85-.31,1.55-6.6,1.55-6.58-1.75.95-17.68,12.36-17.39,12.53-0.6-.35,2.62-7,2.59-7a50.49,50.49,0,0,0-13.12,11.72c-1,1.22-6.45,11.6-7.28,11.63-1.64.05,3.44-14.95,3.89-15.95-0.47.38-3.63,4.44-4.44,4.51s0.55-9,.49-8.67c0,0-3.34,5.2-3.56,4.6-2-5.48-1.37-11.54-.11-17.11-1.41,2.73-2,14.28-4.21,15.68-0.88.57-4.84-7.9-4.74-7.7,1,5.38,3.28,13.85,6.31,17.56a171.57,171.57,0,0,1-10.58-14.42c5.93,17.93,3.56,35.61,5.76,54,1.94,16.17,10.75,25,18.28,38.51q-1.61-1.46-.54-2c7.24,16.17,10.2,30,13.74,47.35,0-1.34.86-6.22,0.62-7.44,4.55,26.22,8,53.23,6.52,80-0.36,6.45-.95,10.59-4.63,15.77-0.51.72-6.34,3.83-6.76,7.1C-45.09-67.78-38.15-64-32.95-66c4.75-1.89,9-11.11,9-15.18-0.69.92-4.25,5.67-3.87,6.42-1.35-2.6,4.45-11.53,5-15.07,1.19-7.19.52-15.37,0.23-22.62-0.63-15.48-2.25-30.08-.2-45.55-0.76,1.33-3.41,7-3.51,8.2,0.4-4.49,4.25-8,4.76-11.18,1.37-8.57-4.21-25.15-5.81-33.71C-28-198.16-28-204-30-207c-2.23-3.15-2-1.72-5.26-3.91-6.43-4.28-12.93-9.63-19.51-13.59,6.73,4.13,14.56,9.6,22.4,12.89-9.1-11.94-21.21-19.08-25.78-34.25-4-13.12-6.17-32.79-3.39-46.12-1.39,7.15,1.05,17.63,1.73,24.81,1,10.44,2.21,21,7.59,30.26,4.37,7.49,11.06,12.94,16.6,19.49,5.81,6.86,8.93,15.1,13.22,21.93-2.19-3.44-4.07-7.06-6.17-10.56,4.24,12.27,5.19,25.73,7.2,38.48,0.05-1.58.41-8.43-.46-10.17,2.64,5.37,1.29,9.85,1.9,15.55,0.21,1.94,4.12,12,3.14,12.93q-1.28.46-1.68-1.18c4.53,20.22,1,44.22-1.45,64.58q-1-4.41,1.67-4.77A39.09,39.09,0,0,1-22.45-77.5c-2,3.22-10.69,9.75-10.68,12.78,0,4.64,2.76,4.08,8.22,4.53,9.91,0.8,11.76-.43,13.25-10.17-1.14,1.62-4.81,6.75-5.07,8.18,1.68-9.87,9-12.82,8.66-23.26-0.37-12.95-1.8-25.42-1-38.43,0.58-9.19,2.1-18.36,2.51-27.54s-2-18-2.77-26.78A30.46,30.46,0,0,0-6.5-170c-0.9-15.71,2.62-29.73,4.84-45.1C-0.2-225.11-3-205.9-1.66-215.08Z" transform="translate(154.72 468.79)"/><path class="cls-9" d="M165.41-157c0.31-18.06-8.8-33.26-7.11-51.56,1.59-17.16,5.45-31.15,5.94-46.91,1-33.24-12.7-59.92-41.82-74.11,7,7-10.24,3.38-15.25,5.42-3.83,1.57-.39,3.42-2.09,4.44-4.7,2.82-11.22,3.73-16.24,6.64a15.4,15.4,0,0,1,8.46,1.72c-1.71-1.09-10.88,8.87-11.88,10.49,4.81-1.21-1.09,6.37-1.48,8.14-1.29,5.8-1,13.38-1.1,19.41a111.72,111.72,0,0,0,7,40.72,134.57,134.57,0,0,0,22.66,39.26c8.26,10,18.1,19.3,24.63,30.41,12.43,21.16,16,57.88,11.43,81.76-1.41,7.36-16,20.3-11,25.21,10.57,10.52,22.3-9.55,23-18.18A20,20,0,0,0,157-69.78q-0.14-.07-0.24.16c-1.16-2.27,4.39-7,4.69-9.79s-5.62-16.39-.74-5.13c-0.2-11.78-.55-23.82.06-35.59,0.64-12.41,4.45-24.43,4.66-36.88C165.51-162.59,165.26-147.76,165.41-157Z" transform="translate(154.72 468.79)"/><path class="cls-4" d="M165.41-157c0.28-16.43-8.08-30.28-7.48-46.65,0.52-14.24,5.12-30.08,5.82-42,0.91-15.55,1.87-33.12-4.46-47.78-4.82-11.17-18.16-31.49-32-28.16-0.15,0,9.83,3.31,9.23,4.61-0.15.32-13.65-.19-15.14,0a81.77,81.77,0,0,0-18.83,4.92c0.61,0,21.52,1.29,19.08,4.93-1.13,1.68-22.51,1.92-25.94,3.73,2.11,0.06,22.62,3,22,4.17-0.28.53-23.95,4.81-25.91,5.36,3.66,1.18,43.6,15.17,42.57,16.85,0.3-.49-34-1.85-38.19-1.1,3.94,1.66,51.45,15.95,49.8,18.51-1.41,2.19-27.75-3.43-30.35-3.79-10.63-1.45-17.23-.27-26.46,5.38,3.22,2.06,35.34,8.31,35.81,7.35-4.19,8.64-31.69-5.74-35.69,8.54-0.2.71,37.39,5.27,38.24,3-1.37,3.62-13.73,2.35-16.63,2.51-2.54.14-13.06,4.21-13,4.23,5,1.16,9.94,3.24,15,4.27s14.26-1.38,18.12,2.38c0.77,0.74-13.75,1.23-15,1.25-5.19.13-10.83-.07-15.33,3,3.54,1.84,38.71,11.82,38.71,11.81-1.07,2.46-13.68,2.65-16.08,3,2.4,1,11.66,3,12.08,6.39,0.24,1.93-8.08,6-9.43,7.37,5.24,2.45,8.29,3.81,12.8,8.26A10.78,10.78,0,0,1,142-174.07a14.07,14.07,0,0,1-4,5.46q-5,2.29-.91,5.59c0.49,3.4,4.55,9,5.82,12.73,3.43,10,4.68,20.7,5.45,31.21,0.85,11.57,2.65,26.29.37,37.74-1.36,6.85-5.15,10.47-9,16-5,7.18-4.57,10.71,5,10.76,9.72,0,15.23-10.68,16-19.61A20,20,0,0,0,157-69.78q-0.14-.07-0.24.16c-1.16-2.27,4.39-7,4.69-9.79s-5.62-16.39-.74-5.13c-0.2-11.78-.55-23.82.06-35.59,0.64-12.41,4.45-24.43,4.66-36.88C165.51-162.59,165.26-147.76,165.41-157Z" transform="translate(154.72 468.79)"/><path class="cls-7" d="M160.65-183.48c1.92-1.75-2.22-7.06-3.08-7.8-3-2.53-7.92-2-11.47-2.11a113.3,113.3,0,0,0-16.63.88c-1.21.16-13.24,3.52-12.85,3.84,22.58,18.81,30.51,46.84,32,75,0.54,10.1,2,22.61,0,32.51-1.62,7.9-8.54,11.82-11.05,18.94s3.38,10.25,11.32,7.42C155.72-57.26,160-67,160.56-74.15A20,20,0,0,0,157-69.78q-0.14-.07-0.24.16c-1.16-2.27,4.39-7,4.69-9.79s-5.62-16.39-.74-5.13c-0.28-16.4-.95-33.22,1.69-49.44,2.89-17.8,4.31-32.3-1.74-49.5C159.87-182.78,161.81-180.19,160.65-183.48Z" transform="translate(154.72 468.79)"/><path class="cls-7" d="M-25.28-75.26q3.19-2.53,1.32-5.94c-0.69.92-4.25,5.67-3.87,6.42-1.35-2.6,4.45-11.53,5-15.07,1.19-7.19.52-15.37,0.23-22.62-0.63-15.48-2.25-30.08-.2-45.55-0.76,1.33-3.41,7-3.51,8.2,0.38-4.31,3.92-7.54,4.56-10.81,0.35-1.77-.59,3.27-1-5.71-0.55-11.18-3.48-23-5.66-34-4.61,2.8-17.52-7-21.89-8.63,6.77,12.64,7.34,26.55,10.15,40.32,0-1.34.86-6.22,0.62-7.44,4.29,24.72,7.15,49.59,6.64,74.86-0.1,5,.39,11.08-1.5,15.79-2.61,6.5-4.23,4.74-7.1,8.89-3.11,4.49-4.49,5.82.06,9.21,7.1,5.3,12.49-2.92,16.15-8h0Z" transform="translate(154.72 468.79)"/><path class="cls-7" d="M-2.49-210.24C-7.58-207.65-18-207.84-22-205c-4.23,2.94-3,5.48-.38,9.61q-2-3.27-3.9-6.64c-3.21,3.3,4.09,29.19,4.93,34.56,0.05-1.58.41-8.43-.46-10.17,2.64,5.37,1.29,9.85,1.9,15.55,0.21,1.94,4.12,12,3.14,12.93q-1.28.46-1.68-1.18c4.53,20.22,1,44.22-1.45,64.58q-1-4.41,1.67-4.77A39.09,39.09,0,0,1-22.45-77.5c-2,3.22-10.69,9.75-10.68,12.78,0,4.64,2.76,4.08,8.22,4.53,9.91,0.8,11.76-.43,13.25-10.17-1.14,1.62-4.81,6.75-5.07,8.18,1.68-9.87,9-12.82,8.66-23.26-0.37-12.95-1.8-25.42-1-38.43,0.58-9.19,2.1-18.36,2.51-27.54s-2-18-2.77-26.78A30.46,30.46,0,0,0-6.5-170c-0.79-13.91,1.44-26.68,4-40.25C-7.22-207.83-3.91-202.76-2.49-210.24Z" transform="translate(154.72 468.79)"/><path class="cls-10" d="M-26.71-202.73L-28.6-206c1.14,3.29.25,5,1.9,3.27C-27.33-203.82-26.94-202.47-26.71-202.73Z" transform="translate(154.72 468.79)"/><path d="M151.69-177.32c0.34,1.37,7.49,17,9.32,15.4,0.52-.45-6.71-13.38-7-14.35-2-6.33-1-13.1-3.17-19.42,1.76,5-.52,12.72.86,18.37h0Z" transform="translate(154.72 468.79)"/><path class="cls-7" d="M152.69-226.6c-8.56.92-14.6-7.27-22.67-8.5-6.64-1-20.26.07-27,1.45,10.54,1.61,23.09,2,33.23,5.12,5.77,1.8,10.83,5.56,16.66,7.2,8.11,2.28,7.24.15,8.56-7.38-3,.1-5.73,1.78-8.73,2.11C147.51-226,155.14-226.87,152.69-226.6Z" transform="translate(154.72 468.79)"/><path class="cls-7" d="M146.66-241c-9.69-3-15.06-4.6-25.58-4.25-7.75.26-18.54-3.41-25.38,1.61,7.5,0,14.89,1.53,22.39,1.39,8.12-.15,13.85-1.16,21.71,1.53,5.56,1.9,12.62,7.25,18.81,5.32s4.73-3.4,5-8.63c-5.43,1.85-11.11,4.86-17,3h0Z" transform="translate(154.72 468.79)"/><path class="cls-7" d="M148-265.88c-13.84-6.13-26.46-12.93-42.24-10.28,20.82-1.08,37.6,17.12,58.61,17.32,0.07-4.26-12.56-5.36-16.36-7h0Z" transform="translate(154.72 468.79)"/><path class="cls-7" d="M135.48-286.72c-11.33-5.4-21.89-11.75-34.94-8.1,10.63,0.15,24.92,6.36,34.43,10.88,10.62,5,16.48,12.67,29.11,14.42-0.61-8.67-2-8.78-10.39-11.41-6-1.9-12.49-3.06-18.22-5.79h0Z" transform="translate(154.72 468.79)"/><path class="cls-7" d="M134.56-312.71c-7.8-3.09-17.35-.81-25.42-0.7,9.4,2.21,18.38,2.82,27,7.59,7.48,4.14,12.72,8.25,21.5,9.07-5.3-9.73-13.09-12-23.08-16h0Z" transform="translate(154.72 468.79)"/><path class="cls-7" d="M120.37-302.79c13.8,5.78,26.68,14.4,41.51,17.44-2-9-10.3-8.22-18.35-10.94-7.58-2.56-15.05-6-23.16-6.5C129.65-298.91,127.65-302.35,120.37-302.79Z" transform="translate(154.72 468.79)"/><path class="cls-7" d="M127.67-321.82c5.13,1.71,10.34,3.32,15.16,5.83-5.29-5-8-6.07-15.16-5.83C132.79-320.11,130.21-321.9,127.67-321.82Z" transform="translate(154.72 468.79)"/><path class="cls-7" d="M151-250.89c-6.65,2.28-21.8-4.48-28.46-5.65-8.48-1.48-18.13-6.35-26.41-1.34,11.37-.8,28.78,2.44,39.94,5.32,5.44,1.41,10.24,4.71,15.82,5.73,9.29,1.7,12,.37,12.37-8.41-4.62.9-8.83,2.84-13.26,4.35h0Z" transform="translate(154.72 468.79)"/><path class="cls-7" d="M151.27-214.1C137-218,119-224.29,103.8-220.23c9.8,1,20,3.32,29.71,4.59,8.75,1.14,16.05,7.25,24.7,8.09q0.28-3.18.76-6.34a21,21,0,0,1-7.7-.21h0Z" transform="translate(154.72 468.79)"/><path class="cls-7" d="M133.21-203c8.6,1.84,16.35,8.17,25,9.13-0.81-7.08-3.82-6.21-10.61-7.71-4.93-1.09-9.27-3-14.42-1.42C138.08-202,141.65-205.55,133.21-203Z" transform="translate(154.72 468.79)"/><path class="cls-11" d="M134.28-80l-2.07,3a3.41,3.41,0,0,1,2.26.4c0,0.05,0-3.62-.19-3.36C133.55-79,134.33-80,134.28-80Z" transform="translate(154.72 468.79)"/><path class="cls-11" d="M124.73-169.37c-4.79-.49-10.1-0.66-13.75,3.09,1.6,2.12.76,0.79,3.56,0.8s5.86-2,8.88-2c3.26,0,6.26,1.66,9.53,1.77-3.07-4.47-3.41-3.14-8.22-3.63h0Z" transform="translate(154.72 468.79)"/><path class="cls-11" d="M78.53-206.72c2.83,6.69,1,3.7,7.56,5.26,1.15,0.27,10.77-.29,9.85,1.56s-10,3.36-12,3.94c4,6.69,4.61,5,11.94,4.55,5.32-.29,10.61,1,15.92.13-3.78-4.6-7.32-11.95-12.35-14-5.26-2.12-15.35-2.07-20.87-1.47C79.37-204.74,86.17-207.54,78.53-206.72Z" transform="translate(154.72 468.79)"/><path class="cls-11" d="M118.15-182.28c-3,0-13.73,4.47-18.27,5.14,5.14,4.46,15.35-2.23,22-2.47-7.24-8.27-19.22-9.1-30.07-5.37,3.74,4.27,4.59,2.28,9.88,1.67,5.51-.63,11,0.94,16.51,1h0Z" transform="translate(154.72 468.79)"/><path class="cls-11" d="M126.91-173.63c-2.65-3.26-3.71-2.36-7.66-1.65q3.84,0.79,7.66,1.65C126.23-174.46,124.35-174.18,126.91-173.63Z" transform="translate(154.72 468.79)"/><path class="cls-11" d="M117.71-153.54c-0.19.07,9.53-3.56,9.46-3.19-0.91,4.45-11.18,8.23-10.8,11.33,3.08-1.53,22.08-10.51,19.79-15.36-1.33-2.83-8.38-1.58-10.9-1.11-7.05,1.32-10.21,2-9.55,9.09l2-.76h0Z" transform="translate(154.72 468.79)"/><path class="cls-11" d="M127.77-149.28c-3.13,2.08-6.87,6.53-11.09,6.14,0.2,1.26.51,2.5,0.77,3.75,7.59,0.2,9.05-12.14,16.22-11.24q0-.26.12-0.52a12,12,0,0,0-6,1.87h0Z" transform="translate(154.72 468.79)"/><path class="cls-11" d="M134.71-87.84l-0.78-2.09c-3.33,1.76-12.11,5-13.46,6.22-0.86.78-4.31,11.58-1.32,4.53-3.9,9.84,20.14,5,15.56-8.65C134.46-88.55,134.74-87.74,134.71-87.84Z" transform="translate(154.72 468.79)"/><path class="cls-11" d="M-24.14-74.72c-1.2,6,8.48,5.39,11.68,3.34,4-2.59,7.89-16,3.91-19.18-8.45-6.76-11.22,9.75-13.06,13-0.6,1.07-1.53-1.76-2.53,2.82C-25.34-68.71-24.12-74.81-24.14-74.72Z" transform="translate(154.72 468.79)"/><path class="cls-11" d="M-34-76.93c11.12,4.87,16.11-19.36.89-15.65C-33.45-87.77-39-79.1-34-76.93h0Z" transform="translate(154.72 468.79)"/><path class="cls-11" d="M-24.78-80.14a10.94,10.94,0,0,0-2.42,3.73c5.38-1.08,2.71-4.1,2.42-3.73h0Z" transform="translate(154.72 468.79)"/><path class="cls-11" d="M-17.07-124.55c-0.14,3.92,7.73,4.82,8,.26a11.31,11.31,0,0,1-8-.26C-17.08-124.13-15.06-123.29-17.07-124.55Z" transform="translate(154.72 468.79)"/><path class="cls-11" d="M-33.69-127.57c0.44,6.84,10.62,6,10.26,1a15.66,15.66,0,0,1-10.26-1C-33.61-126.26-30.62-126.1-33.69-127.57Z" transform="translate(154.72 468.79)"/><path class="cls-11" d="M-31-147.19a5.21,5.21,0,0,1-4.17-1.91c0.62,9,10.44,7.26,11.38-1.09a19.16,19.16,0,0,1-7.21,3h0Z" transform="translate(154.72 468.79)"/><path class="cls-11" d="M-22.48-165.1c-5.62,1.82-17-5.14-14.84,4.66,7-4,17.37,7.29,14.84-4.66C-24.56-164.42-22.19-163.72-22.48-165.1Z" transform="translate(154.72 468.79)"/><path class="cls-11" d="M-20-165.8a20.28,20.28,0,0,0,.32,6.16c4.77-.33,8.28-2.16,13.1-1.1,0.09-4.59-8.77-7.3-13.41-5.06C-20.06-165.2-15.67-167.89-20-165.8Z" transform="translate(154.72 468.79)"/><path class="cls-11" d="M-11.55-180.77c-11.64-4.94-10.94,6.37-9.85,13.26,0.08-2.28.52-8.21-.46-10.17,2.86,5.81,6.67,4.68,13.18,5.57a32.78,32.78,0,0,1-.64-6.1c0.14,1.31,1,6.09,2.74,6.41-0.26-5.69.45-6.67-5-9h0Z" transform="translate(154.72 468.79)"/><path class="cls-11" d="M-35.29-182.34c-6.27-1.8-9.47,7.74-4.82,9.85q-1.31-3.07.58-3.55-1.06,6.2,5.44,4.51,5.11-.65,10.17-1.6c2.86-5.78-7.82-8.19-11.37-9.21h0Z" transform="translate(154.72 468.79)"/><path class="cls-11" d="M-15.59-195.14c-6.26,4.39-9.14,5.18-8.08,12.56,7.53-4.57,8.74-5.49,17-1.41a92.79,92.79,0,0,1,1.56-13.44c-3.56-.17-7.49.19-10.51,2.3h0Z" transform="translate(154.72 468.79)"/><path class="cls-11" d="M-27.43-202q1.18,5,2.19,9.94c1.56-2.23,2.3-11.69-2.19-9.94C-26.67-198.72-27.08-202.16-27.43-202Z" transform="translate(154.72 468.79)"/><path class="cls-11" d="M-42.56-183.54c6.29-5.11,11.13-.88,17.35,1.5-1.26-8.65-11.25-15.33-20.35-15.92a141.32,141.32,0,0,1,3,14.42C-40.62-185.13-42.77-184.71-42.56-183.54Z" transform="translate(154.72 468.79)"/><path class="cls-11" d="M163.93-174.89c-5.21,2.4-10.79.58-16.22,0.89s-10.24,2-15.36,4.1c2.49,3.36,10.12-1.6,13.88-2,6.19-.74,12.38,2.26,18.47.86a8.42,8.42,0,0,0-.76-3.81C160.22-173.19,164.08-174.49,163.93-174.89Z" transform="translate(154.72 468.79)"/><path class="cls-11" d="M-28.7-201.72c-8.18,1.31-15.3-7.3-22.69-9.22q2.2,3.94,4.08,8a9,9,0,0,1,6.49.68C-36-200-31.06-197.82-27.2-194c-0.47-2.58-.93-5.2-1.49-7.77C-33.59-200.93-28.68-201.63-28.7-201.72Z" transform="translate(154.72 468.79)"/><path class="cls-11" d="M-15.63-206c-10.58,1.13-11.39-.1-6.57,9.94a19.16,19.16,0,0,1,11.12-6.85c7.33-1.45,7.06.84,8.62-7.45-4.28,1.62-8.54,3.87-13.17,4.36h0Z" transform="translate(154.72 468.79)"/><path class="cls-11" d="M159.47-187.3c-14.15,1.1-28.42-7.57-41.41.37,3.19,3.62,8.23.49,12.86,0.18,1.3-.09,11.82-0.29,11.5,1-0.18.7-17.74,2.58-19.84,4,4.22,4.83,10.2.1,16.33-1,1.26-.24,14.8-1.88,14.76-1.56-0.75,5.23-31,1.81-22.21,13.32,9.16-11.13,18.65-4.18,30.35-9.3a66.63,66.63,0,0,1-2.33-6.91C153-186.79,160.09-184.94,159.47-187.3Z" transform="translate(154.72 468.79)"/><path class="cls-11" d="M160.89-165.7c-10-3-14.35,1.69-24,2.44,1.87,3.25,17.35-1.18,17.5-1.91-0.5,2.52-11.46,9-13.86,9q1.14,2.59,2.07,5.26c3.14-.18,5.59-6,7.76-7.73,5-4,8.87-3.72,15-3.7q1-4.49-4.45-3.32h0Z" transform="translate(154.72 468.79)"/><path class="cls-11" d="M161.09-157.84c-5.3,1.38-16.63,12.61-15.72,16.74,3.87-2.65,5.52-7.48,8.89-10.59,2.41-2.22,11.15-4.92,11.15-7.17l-4.32,1h0Z" transform="translate(154.72 468.79)"/><path class="cls-11" d="M160.56-74.15a12.41,12.41,0,0,0-3,3.39c3.18-.25,2.56,1.8,3-3.39C160.3-73.93,160.46-73,160.56-74.15Z" transform="translate(154.72 468.79)"/><path class="cls-11" d="M161.44-79.42c0.15-3-5.58-16.31-.74-5.13-0.26-14.89-18.18,9.58-17.12,14.22,2.44,10.7,17.5-3.16,17.86-9.09C161.51-80.82,161.37-78.32,161.44-79.42Z" transform="translate(154.72 468.79)"/><path class="cls-11" d="M-11.49-146.78c-2.29-.38-5.75-1.78-7-3.6,1.18,5.28,10.53,14,11.57,3.45l-4.56.14C-13.71-147.14-10-146.54-11.49-146.78Z" transform="translate(154.72 468.79)"/><path class="cls-12" d="M96.8-184.71a44.85,44.85,0,0,0,18.78,13.6c5.81,2.31,13,2,17.89,6.08-6.37-9.45-14.55-17.42-21.71-26.23a153.62,153.62,0,0,1-11.22-15.61c-2.36-3.79-4.74-12-8-14.82-2.91-2.48-10.21-1.1-14.17,2.25-4.64,3.93-3.68,4.05-.2,9.62,5.22,8.36,12.46,17.29,18.63,25.12h0Z" transform="translate(154.72 468.79)"/><path class="cls-13" d="M142.75-64.52c5.22-9.2,8.69-12,8.49-23.2-0.2-11-1-22-1.06-33C150-144.57,144-159.55,131.4-179.38c-10.34-16.25-23.42-30.56-32-48.18-4.46-9.21-7.62-17.85-6.71-28.12,0.62-7-1.32-8.48,1.6-15q-2.43,2.37-4.38.86A24.75,24.75,0,0,1,94.11-279c0.15-.1-5.13,4.19-4.95,3.39,1.92-8.69,7.1-12.75,11.08-20-2.19.42-10.9,5-11.36,6.17a29.35,29.35,0,0,1,6.63-9.76q-2.75,3.2-4.12.92c2.88-5.2,8.18-8.3,13.46-10.61q-3.32,2.17-5.63.33c-0.15-1.48,7.6-4.9,7.95-5-22.93,2.68-24.68,26-24.3,44.6,0.61,29.56,13.54,57,32.64,79.19,17.86,20.72,29.3,35.89,32.2,64,1.46,14.19,4,32.32.48,46.28-1.47,5.77-17.55,21.47-9.62,24.12,0.39-3.28,2.26-6.51,4.18-9.11C143.76-66.3,140.64-61.67,142.75-64.52Z" transform="translate(154.72 468.79)"/><path class="cls-14" d="M165.41-157c0.24-13.6-5.62-23.82-7.18-36.86s1.94-26.34,4-39.26c3.28-20.54,5.27-49.54-8.33-69.56C143.1-318.62,123.2-334.06,104.1-337c-12.94-2-26.29,2.65-39,4.67-15.12,2.41-30.85,2.93-45.9-.38,7.35,5.66,14.64,11.38,22.63,16.12C27.62-323.51,16.52-334.18,3-341.88c-12.18-6.91-30.52-8.53-40.9-17.6,0.44,0.39,5.77,1.58,6.32,1.78-16-10.56-32.66-29.94-40.76-47.34-1.85-4-1.8-15.7-6.73-17.71-8.22-3.36-16.47,13.61-19,18.86-9.52,20-4.87,36.22,4,54.15,4.79,9.62,6.33,20.59,11.35,30.28,4.41,8.51,10.41,20.8,15.88,27.5a171.57,171.57,0,0,1-10.58-14.42c5.93,17.93,3.56,35.61,5.76,54,1.94,16.17,10.75,25,18.28,38.51q-1.61-1.46-.54-2c7.24,16.17,10.2,30,13.74,47.35,0-1.34.86-6.22,0.62-7.44,4.55,26.22,8,53.23,6.52,80-0.36,6.45-.95,10.59-4.63,15.77-0.51.72-6.34,3.83-6.76,7.1C-45.09-67.78-38.15-64-32.95-66c4.75-1.89,9-11.11,9-15.18-0.69.92-4.25,5.67-3.87,6.42-1.35-2.6,4.45-11.53,5-15.07,1.19-7.19.52-15.37,0.23-22.62-0.63-15.48-2.25-30.08-.2-45.55-0.76,1.33-3.41,7-3.51,8.2,0.4-4.49,4.25-8,4.76-11.18,1.37-8.57-4.21-25.15-5.81-33.71C-28-198.16-28-204-30-207c-2.23-3.15-2-1.72-5.26-3.91-6.43-4.28-12.93-9.63-19.51-13.59,6.73,4.13,14.56,9.6,22.4,12.89-9.1-11.94-21.21-19.08-25.78-34.25-4-13.12-6.17-32.79-3.39-46.12-1.39,7.15,1.05,17.63,1.73,24.81,1,10.44,2.21,21,7.59,30.26,4.37,7.49,11.06,12.94,16.6,19.49,5.81,6.86,8.93,15.1,13.22,21.93-2.19-3.44-4.07-7.06-6.17-10.56,4.24,12.27,5.19,25.73,7.2,38.48,0.05-1.58.41-8.43-.46-10.17,2.64,5.37,1.29,9.85,1.9,15.55,0.21,1.94,4.12,12,3.14,12.93q-1.28.46-1.68-1.18c4.53,20.22,1,44.22-1.45,64.58q-1-4.41,1.67-4.77A39.09,39.09,0,0,1-22.45-77.5c-2,3.22-10.69,9.75-10.68,12.78,0,4.64,2.76,4.08,8.22,4.53,9.91,0.8,11.76-.43,13.25-10.17-1.14,1.62-4.81,6.75-5.07,8.18,1.68-9.87,9-12.82,8.66-23.26-0.37-12.95-1.8-25.42-1-38.43,0.58-9.19,2.1-18.36,2.51-27.54s-2-18-2.77-26.78A30.46,30.46,0,0,0-6.5-170c-2.42-42.27,28.82-100.62-5.55-136.53C0.44-288.38,2.81-266.05-1-244.77-3-233.71-6.62-223-8.78-212c-1,5.14-3,23.63-10.5,17-2.06-1.83-2.55-9.58-3.84-12.6-2.48-5.81-6.08-10.43-10.09-15.24-7.27-8.7-13.09-16.68-16.53-27.73-7.18-23.08-5.3-44.72-3.94-68.35-1,6.42-5.64,24.59-11.95,11.63-4.5-9.25,4.31-19.3,5.66-28.29-1.78,6.87-9.43,23.06-13.29,7.57-2.24-9,6.4-18.71,7.66-27.8-1,3.79-6,20.77-12,20.27-7-.58-1.93-12.28-0.14-15.08-4,4.47-9.58,5.63-10.56-1.69-0.84-6.31,5.84-9.71,8.9-14,4.63-6.57,1.75-11.52,3.61-18.88,0.41-1.64,2.65-10.92,4.47-11.87,0.71-.37,6.09,17.7,6.44,19.21,0.09-.58-0.16-5.66.67-6.16s2.59,5.47,2.59,5.48q-0.74-2.44,1.21-2.65c4.21,5.26,5,14,8.38,19.92-0.09-.53-1.63-7.09-0.48-7.78-2.36,1.42,15.61,18.56,17.71,20,9,6,19.43,9.58,29.37,13.77A136.8,136.8,0,0,1,24.92-318c10.6,8.11,17,18.27,26.31,27.32-0.51-2-9.44-15.1-8.73-16s6.77,5.12,6.78,5.13c-1.28-4.15-3.65-6.75-6.83-9.33-1.58-1.29,10.55-.39,11.57,0-1-2-14.6-14.17-15.16-13,0.47-.94,20.28,1,22.57.71,8.81-1,17.28-4,26-5.45,14.54-2.4,26.87-.64,39,7.8,29.72,20.64,41.65,47.92,31.61,83.2-3.92,13.76-8.31,26.86-8.27,41.24,0,8.47-.19,17,3.29,24.93,2.84,6.44,8,11.27,8.31,18.64,0.3,8-3.09,16.59-3.37,24.75-0.33,9.87.77,19.7,0.68,29.55,0,5.6-.75,11.68-1.35,17.15-0.79,7.2-3.8,10.53-7.29,17.21a10.84,10.84,0,0,1,6.63-3.21c-1.73,0-5.51,10.13-6.12,12.09,5.51-1.93,9.53-13.39,10-18.89A20,20,0,0,0,157-69.78q-0.14-.07-0.24.16c-1.16-2.27,4.39-7,4.69-9.79s-5.62-16.39-.74-5.13c-0.2-11.78-.55-23.82.06-35.59,0.64-12.41,4.45-24.43,4.66-36.88C165.51-162.59,165.26-147.76,165.41-157Zm-214.5-57.2c11.86,8,12.88,17.82,16.49,29.93,1.89,6.36,5.95,9.24,5.39,16.61s-3.38,12.51-2,19.75,9.42,84.41-9.58,78.12c-5.37-1.78.17-7.59,2-10.42,4.32-6.67,6.23-10.25,6.12-18.65-0.19-14.83-.1-31-1.71-45.76C-33-151-35.78-157-36.65-163.34c-1.17-8.47.74-14.77-2.56-23-1.81-4.54-7.69-26.37-9.88-27.83C-43.47-210.43-49.5-214.5-49.09-214.22Zm30.36,29.8q-0.89-2.23.93-2.86c16.66,12.12,6.75,45.94,6,62.34-0.55,12.66,1.6,24.79,1.69,37.29,0,6.09-4.6,22.65-11.48,24.6-13.9,3.93,2.35-12.89,3.68-16,4.43-10.38,1.58-25.24,1.92-36.3,0.43-14.09,1.57-27.14-.82-40.94-0.69-4-4.59-25.39-2-28.1C-18.73-185.2-18.83-184.32-18.73-184.42Z" transform="translate(154.72 468.79)"/><path class="cls-14" d="M84-245.92a91.06,91.06,0,0,1-1.9-33.77c-1.41,5.74-2.82,11.48-4.29,17.2-0.85,3.32-1.21,11.66-4.47,4.87-2.7,3-4.05,7.26-7.87,9.15q-1.45-1.23.43-3c-6.6,3.94-12.2,10-20.14,11.2q-1.22-2.24,2.11-3.76c-5.57,2.77-10.78,6.35-16.8,8.11-0.65.19,3.15-5.33,3.07-5.16-5.48,2-10.59,4.85-15.74,7.57-0.07,0,3-9.74,3.06-9.81-0.35.56-7.87,11.23-8.51,9.31a10.74,10.74,0,0,1,1.29-7.33c0.28-.46-4.14,5.16-4,3.67,0.36-5,2.21-10.24.84-15.28-3.5,5.93-2.61,2.64-3.12-1.57,0-.13-3.13,7.56-3.16,6.5-0.14-5.25-.27-10.51-0.66-15.76a344.28,344.28,0,0,1-3,40.29c2.35-5.2,7.5-12.36,7-18.16,0.48,6-3.05,11.7-5.24,17.08-2.63,6.48-3.6,13.32-5.09,20.42,6.71,0.3,13,3.53,20,3.72a72.09,72.09,0,0,0,25.32-4.11C59.08-210,74-222.91,91-225.14a151.13,151.13,0,0,1-7-20.78C82-253.64,84.55-243.88,84-245.92Z" transform="translate(154.72 468.79)"/><path class="cls-7" d="M-32.41-211.57c-8.46-11.1-20.25-18.17-25.09-31.92-5.05-14.35-4.31-30.68-4.58-45.69-2.86,8.5-5.33,19.42-5.2,28.26a4.54,4.54,0,0,1,1.85-4.25c-0.17,0,0,14.31.15,15.66a3.53,3.53,0,0,1,1.13-3.68c-1.34.46,6.07,21.91,6.6,22.95,4.32,8.44,16.07,14.87,25.13,18.67C-34.75-214.64-35.86-213-32.41-211.57Z" transform="translate(154.72 468.79)"/><path class="cls-13" d="M147.37-300.66a107.44,107.44,0,0,0-25-21.71c9,6.65,16.7,14.74,25,21.71C143-306,144.95-302.7,147.37-300.66Z" transform="translate(154.72 468.79)"/><path class="cls-15" d="M-73.13-360.32c-5.92,13-15,24.49-23.2,6.48,2.58,6.06,3.9,14.79,12.82,10.85,6.74-3,8.31-12.72,10.38-17.33C-75.58-354.94-73-360.63-73.13-360.32Z" transform="translate(154.72 468.79)"/><path class="cls-15" d="M-63.57-369c-0.82,6.05-10.18,50-23.93,41.53,7.8,4.81,16.89-11.07,19.12-16.21,3.53-8.13,3.71-17.39,4.8-25.32C-64.68-360.79-63.55-369.14-63.57-369Z" transform="translate(154.72 468.79)"/><path class="cls-15" d="M-57.13-362.17c0,8.9-5.19,53.6-21.64,50.38,19.21,3.86,21.81-40.32,21.64-50.38C-57.13-362.32-56.92-349.89-57.13-362.17Z" transform="translate(154.72 468.79)"/><path class="cls-15" d="M-53.38-324.36C-55-317.2-56.09-309.68-59-302.89c-1.37,3.16-6.92,8-7.38,10.23-0.37,1.82,6-4.76,5.3-3.9,1.76-2.24,2.65-5.62,3.59-8.25,2.29-6.4,2.73-13.54,4.15-19.54C-54.78-318.07-53.35-324.47-53.38-324.36Z" transform="translate(154.72 468.79)"/><path d="M-50.47-443.89c-0.63-4.61-.19-10.55-1.13-14.89-1.53-7,2.27-4.17-3.92-3.89-7.77.35-16.68,10.06-19.71,16.22-2.41,4.91-2.13,19.7-8.23,21.91-2.82,1-14.63-.79-18.23-1.23,0.8-1.73,6.43-8.32,4.79-10.41-2.63-3.36-11,9.54-11.72,10s-12.45,2.08-13.17,1.49c0.24-1.11,4.14-11.53,2.6-11.53-4.29,0-8.25,10-9.67,13.21-3.15-2.35-2.81-17.67-3.61-21.7-1.22-6.18-5.6-21.09-11.41-24C-144-468.87-154-440.28-154.1-439c-0.3,8.15,2.49,14.5,8.86,19.59,4.37,3.48,9.55,3.82,10.35,9.84,0.67,5.11-5,12.36-6,17.18-0.28,1.3.33,2.94,0.13,4.25-2.68,17.94-20,29.86-11.73,49.51,1.62,3.85,3.67,7.68,8.34,9.24,9,3,12.9-1,19.91-7.32a124.25,124.25,0,0,1,22.52-15.93c7.28-4.11,18.07-8.61,21.73-16.79,1.93-4.31.75-7.35,0.68-11.61-0.08-4.91.44-5.07,1.83-9.46,1.18-3.71,2.64-6.71,2.93-10.64,0.17-2.32-1.5-7.81-.42-10,2.88-5.77,12.59-6.44,17.27-10.41,6.82-5.77,8.42-13.81,7.23-22.38C-50.94-447.32-49.72-438.51-50.47-443.89Z" transform="translate(154.72 468.79)"/><path class="cls-10" d="M-54.25-427.32c-3.19,5.5-8.18,7.29-13.25,10.41-2.71,1.67-7.35,5.93-7.72,3.27,1.21,9-2.55,19.54-5.47,28-1.19-3.6-2.59-7.38-2.78-11.21,0.33,6.62,4.32,16.42,2.93,23.42-1.8,9.07-10.46,13.38-17.94,17.61-7.8,4.42-15.6,8.58-22.51,14.39s-14.84,17.65-24.53,9.73c11.21,1,17.29-12.35,25.82-17.69,4.44-2.78,9.92-4.65,13.77-8.3,0.8-.76,7.72-7.4,7.68-6.83-0.08,1.09-5.25-1.34-5.44-1.13,0.08-.09,0,4.24-1.44,6.19-1.78,2.39-5.59,4-8.11,5.49-5,3-10.58,5.53-14.84,9.64-3.79,3.67-5.74,8.81-11,10.7-11.94,4.33-12.74-4.76-13.92-13.35-1.93-14.08,7.53-25.24,12.31-38,0.69,5.55,1.63-11.89,2.39-14.18,2.44-7.38,6.53-9.35,3.13-18.1q-1.75.82,0.12,3.47c-2.66-4.26-9.25-5.44-12.7-9.26-4.44-4.92-5.93-11.05-5.43-17.53s3.35-11.93,5.81-17.72c0.64-1.51,2.13-8.11,3.52-9,2.29-1.45,12,31.6,12.39,35.32,0.28,2.42,2.79,24.59-1.84,24.59,2.51,0,8.44-31.38,13.38-27.9,3.53,2.48-11.31,22.64-.58,25.81-0.53-.15-2.14-4.29-2.2-5,1.18,2.72,2.86,1.16,4,1.4-5.2-1.13-3.9-7.56-3.13-11.25,2.87,2.08,9.78-1.08,13-1.35-0.45.78-6.58,17.33-8.36,16.49,3.2,1.43,6.72-10.94,7.18-12,1-2.14,12.42-16,12.5-13.79,0.12,3.25-4.09,6.93-5.29,9.92a25.77,25.77,0,0,0-1.1,16.5c-1.12-4.29.08-12.12,1.92-16.4,3.56,1.66,8,.31,11.8.93,2.47,0.41,14.61,5.51,5.57.74,9.21-1.31,6.73-15.67,9.54-22.05,4-9.1,13-15.07,22.56-17-1.14.23,0.78,30.82-1.7,35.1h0Z" transform="translate(154.72 468.79)"/><path class="cls-7" d="M-151.88-360.63c3-4.28,7.33-8.43,10-12.75s2.67-7.68,7.76-10.13c-3-1.24-4.91-1.46-6-1.19-0.78.2,0,4.5-.6-0.35-3.14,8.4-7.77,16.17-11.24,24.41C-150.64-362.39-150.92-362.93-151.88-360.63Z" transform="translate(154.72 468.79)"/><path class="cls-7" d="M-76-412.08a20.8,20.8,0,0,0-10.72-.44,1.25,1.25,0,0,1,1.26,1.13c-0.57,1.49-4.6.49-5.51,2-0.64,1.08,4.12,4.52,1.25,5.71-5.65,2.35-12.47-7.74-13.44-12,0,1.08-.47,8.43.11,9.5,0.74,1.37,4.3,4.86,4.9,3.45-0.5,1.2-5.38,1.41-6.85,2.24-4.32,2.43-6.08,5-7.82,9.61-1.26,3.32,0,5.18-2.72,6.68-2.47,1.35-7-1.89-9.54.55,1.67,1.64,11,6.21,9.71,9.43-0.78,1.94-9.56,3.81-11.79,6s-8.72,10.91-6.42,13.73c3.64,4.46,12.38-2.86,6.72,9.09,5.3-4.39,11.58-7,17.23-10.81a27.23,27.23,0,0,0,6.27-5.08c1.67-2.05-.82-3.85-0.29-4.44,0.19-.21,5.36,2.22,5.44,1.13,0.13-1.72-6.52,5.91-6.58,6a75.59,75.59,0,0,1-9.22,6c-2.11,1.23-19.22,13.73-17.07,14.47a1.67,1.67,0,0,1,.54-2.19c-3.84,5.26-8,9.17-14.94,8.53,9.11,7.44,16.46-2.56,22.88-8.25,7.39-6.54,15.65-11,24.15-15.88,6.48-3.69,15.28-7.85,17.69-15.49,2.35-7.47-2.34-18.54-2.69-25.54,0.19,3.83,1.59,7.61,2.78,11.21,1-2.94,8.55-25.38,4.68-26.41C-79.4-413-75.86-412-76-412.08Z" transform="translate(154.72 468.79)"/><path d="M-58.17-455.87c-3.45,3.15-12.29,10.28-10.56,16.09,0.11,0.38,2.58-1.78,1.71-1.47A9.78,9.78,0,0,0-69-437q0.92,0.35,1.21-1.11a11.06,11.06,0,0,0-1.59,3.72q1.07,0.47,1.6-1a31.54,31.54,0,0,0-1.67,4.16q0.9,0.43,1.28-.82c-1.17,3.39.11,7.14-1.56,10.38-1.77,3.43-5.77,4.39-7.58,7.78,1.46-2.74,7.19-7.22,9.08-9.43,3.06-3.58,7.28-7.69,9.87-12.38-1.72,3.3-6,7.3-9.33,9.19a14.89,14.89,0,0,1,.56-6.67c0.23-.51-1.45.8-1.33,0.43,2.9-9-.2-2.38-0.2-2.36,1.56-8.66,2.65-2.16.22-2.5a8.58,8.58,0,0,1,2.22-4.36q-0.46-.88-1.5.5c1.15-5.17,6-11.21,9.54-14.43C-61.65-452.7-58-456.07-58.17-455.87Z" transform="translate(154.72 468.79)"/><g class="cls-16"><path class="cls-17" d="M-140.54-333.13c8.48-1.78,15.16-14,23.06-18.51-7.1-9.29-30.57-20.75-35.62-5.23-3.06,9.4-.08,26.45,12.57,23.74C-137.21-333.83-142.08-332.8-140.54-333.13Z" transform="translate(154.72 468.79)"/></g><g class="cls-18"><path class="cls-19" d="M-117-351c-9.62,5.23-16.71,20.31-28.52,19.23,6.86,5.6,12.48,1.18,18-3.61,2.21-1.92,4.18-4.12,6.42-6,4.64-3.92,8.42-3.54,4.12-9.6C-121-348.78-116-349.56-117-351Z" transform="translate(154.72 468.79)"/></g><path d="M-132.6-350.32c-6.14,3.07-9.27,5.14-10.32,12.2,0.63-3.84,3.58-2.45,5.76-4.76,1.29-1.36,7.38-8.09,7.4-9.73l-2.85,2.29h0Z" transform="translate(154.72 468.79)"/><path d="M-149.26-339c0.2-5.92-4.37-8.58-5.06-13.76C-153.82-348.52-149.25-338.94-149.26-339Z" transform="translate(154.72 468.79)"/><path class="cls-14" d="M-52.36-445.85c-0.25-1.57-1.76-16.25-.19-16.57-9.58,1.93-18.54,7.89-22.56,17-2.86,6.48-.3,20.74-9.54,22.05,8.44,4.46-2.55-.24-5.57-0.74-3.77-.62-8.25.72-11.8-0.93-1.87,4.36-3.07,12-1.92,16.4a25.77,25.77,0,0,1,1.1-16.5c1.2-3,5.41-6.68,5.29-9.92-0.11-3-12,12.68-12.5,13.79-0.7,1.52-4,13.36-7.18,12,1.78,0.85,7.91-15.71,8.36-16.49-3.19.27-10.1,3.44-13,1.35-0.78,3.73-2.08,10.11,3.13,11.25-1.1-.24-2.78,1.32-4-1.4,0.06,0.75,1.68,4.89,2.2,5-11-3.23,4.14-23.3.58-25.81-5.08-3.57-10.73,27.86-13.38,27.9,4.59,0,2.12-22.13,1.84-24.59-1.48-12.89-6.42-23.35-11.87-34.91,0,0.37,1.81,9,.93,9.63q-1.37,0-1.55-1.71,1.92,3.43.08,5.9-1.53-.06-1.84-2c-0.16,1.93,2.37,13.72,1.32,14.5q-2,0-2.07-2.87c0,0.46,1.32,5.48.41,6q-2-.14-2.25-2.91c-0.21,2.16,4.93,13.32,4.55,13.7q-2,.49-3.14-2.06c2.43,5.6,8,7.83,11.53,12.34q-0.42-.69.19-0.87c2.43,6.22,1.15,9.71-1.45,15.78a28.7,28.7,0,0,0-2.9,10.73c0,0.09-.37,12.18-1.16,5.77-4.39,11.74-13.79,23.13-12.69,36,0.77,9,1.71,19.92,14.3,15.35,4.68-1.7,6.39-5.87,9.66-9.27,4.5-4.67,10.12-7.47,15.61-10.77,2.48-1.5,5.58-2.82,7.62-4.91,1.07-1.09,2.61-3.28,3.66-4.26,1.3-1.22-2.24-1.65-1.19-2.82,0.19-.21,5.36,2.22,5.44,1.13s-6.11,5.54-6.58,6c-4.43,3.89-9.93,6.08-14.87,9.17-8.58,5.37-14.58,18.72-25.82,17.69,9.11,7.44,16.46-2.56,22.88-8.25,7.39-6.54,15.65-11,24.15-15.88,6.48-3.69,15.28-7.85,17.69-15.49,2.35-7.47-2.34-18.54-2.69-25.54,0.19,3.83,1.59,7.61,2.78,11.21,2.95-8.5,6.68-18.91,5.47-28,0.48,3.45,2.22-.8,4.78-2,3.52-1.59,7.35-3.06,10.42-5.47,8.14-6.4,9.22-15.1,7.66-24.79C-52.86-448.93-51.34-439.45-52.36-445.85Zm-44,77.84c-2.81,1.86-6.95,2-9.27-.77-0.18,8.45,2.18,6.87-7.37,12.69-2.16,1.32-21.46,11.12-20.93,13.42-1.1-4.9,4.3-6.94,4.3-11.36a145.45,145.45,0,0,0-13.79,10.44c-3.72,3.33-1.8,8.16-5.89,1.31-6-10.08,1.41-26.14,6.59-35,1.33-2.28,4.66-5.72,5.25-8.26,1.48-6.38-.54-9.39,3.2-15.86,2.7-4.67,3.23-5.48,4.57-10.29,0.44-1.59,2-15.76,5.14-15.45,0.25,0-4.45,20.2,6,20.2,5.59,0,12.5-21.68,14.24-20.71-0.56-.31-3.21,11.3-3.1,12.56,0.22,2.35,5.16,9.43,5.05,10.22-0.23,1.75-7.37,5.08-8.83,6.83-3.5,4.18-4.78,10-4.85,15.35,2.61-5.77,3.9,1.49,8.27,2.75,4.7,1.35,17.67-8.5,12.37-1.12q0.93-3.72,3.6-3.2c1.31,5.91,1,12.61-4.54,16.28h0Zm14.89-40.83c-0.65,6.46-.66,6.81-5.95,6.12-5.54-.72-13.3-4.46-14.45-10-3.55-17,21.67-8.53,20.4,3.85C-81.67-406.67-81-412.79-81.45-408.84Zm10.14-29.91c1.54-.85-2.13,7.24-1.76,6.67,2.5-1.31,4.29-2.38,1.12,3.17q1.32-2.15,2.66-1c0.18,3.28-4.4,11.75-9,9.8-2.59-1.1,1.17-12,1.9-16.06,1.19-6.51,3-12,7.86-16.81,1.4-1.39,13.08-9,13.33-7.91,0.42,1.93-8,8.4-9,9.5a55.68,55.68,0,0,0-9.08,14l2-1.37h0Zm16.34,8c-2.33,4-6.05,7.6-11,7.68,0.87,0,6.17-8.1,7-9.92,1.12-2.44,1.78-15.91,3.85-16.62,2.8-.95.91,17.47,0.09,18.86h0Z" transform="translate(154.72 468.79)"/><path class="cls-14" d="M-144.83-335.93a15.72,15.72,0,0,1-6.7-3c1.45,14.2,17.56,1.25,21.71-3.62-4.07,3.57-9.18,7.57-15,6.59h0Z" transform="translate(154.72 468.79)"/><path class="cls-14" d="M-137.55-454.42c1.16,3-3.76-3.35-2.07-1,0.09,0.47,2.24,6.16,1.49,6.81q-1.31.33-1.64-1.42a2,2,0,0,1,.19,2.33,1.74,1.74,0,0,1-2-1.11c0.76,1.29,4.58,12.09,2,8.35,0.15,0.42,2.6,5.59,1.9,6.32q-2.35.56-3.58-2.55c0.25,1.12,4.19,9.15,1.06,6.41,1.92,5.26,7.78,8.05,9.3,13.31,2.08-11-1.34-28.91-7.33-39.44l0.72,2h0Z" transform="translate(154.72 468.79)"/><path class="cls-14" d="M-121.84-424.44l-0.46,2.68c5-2.84,10.64.83,13.43-4-3.19.27-10.1,3.44-13,1.35C-122-423.55-120.51-423.48-121.84-424.44Z" transform="translate(154.72 468.79)"/><path class="cls-14" d="M-61.46-421.78c-5.86,3.35-8.66.36-4-5.1-3.87,1.35-12.45,10.86-13.72,15.66-0.58,2.21,1.11,25.1-5,12.32-0.81,11,3,21-4.81,30.21-2.92,3.43-5.64,3.82-8.23,5.26,1-.57-2.51-0.51-2.79-0.35-2.64,1.48-4.87,7.49-8.11,10.36-3.44,3-7.51,5.37-11,8.41-6.45,5.64-12.84,14.95-22.15,15.7,8.07,2.74,15.13-7.76,20.34-12.15,7.52-6.34,16.07-10.64,24.53-15.53,7-4,14.24-8.09,15.91-16.47,1.39-7-2.6-16.8-2.93-23.42,0.19,3.83,1.59,7.61,2.78,11.21,2.95-8.5,6.68-18.91,5.47-28,0.5,3.6,1.29.16,3.48-1.14,2.59-1.54,5.48-2.44,8.08-4,5.43-3.2,10.07-7.58,11.5-13.94-2,4.4-5,8.46-9.29,10.91h0Z" transform="translate(154.72 468.79)"/><path d="M-90.19-399.38c-2.94,2.58-6.07-1.38-9.14-1.72-8.85-1-14.13,6.32-14.31,14.87a10.1,10.1,0,0,1,1.78-3.7c0,2.2,3.13,7.44,0,5.45,10.74,13.67,17.67-11.58,21.66-14.9h0Z" transform="translate(154.72 468.79)"/><path class="cls-20" d="M-95-391.7c-2.26,3.83-12.12,14-15.18,5-2.79-8.14,10.29-6.6,15.35-8.53A3.11,3.11,0,0,1-95-391.7C-96.58-389.06-94.76-392.66-95-391.7Z" transform="translate(154.72 468.79)"/><path class="cls-10" d="M-92.69-397.44c-5.28,2.94-13.17.52-17.68,4.57,1.68-12.7,15.08-2.5,17.68-4.57C-93.65-396.9-92.67-397.45-92.69-397.44Z" transform="translate(154.72 468.79)"/><path class="cls-14" d="M-92.7-397.48c0.11-.49-3.32-1.13-3.08-1.07a13.91,13.91,0,0,0-13.2,4.7c2.81-1.57,13.65-3.63,16.27-3.63C-92.68-397.57-92.68-397.48-92.7-397.48Z" transform="translate(154.72 468.79)"/><path d="M-93.37-388.89c-4.23,6.5-12.15,10.86-19,5.34,8.64,7.53,14.62,1.31,19-5.34C-95.37-385.83-93.27-389-93.37-388.89Z" transform="translate(154.72 468.79)"/><g class="cls-21"><path class="cls-22" d="M-96.06-389.54c0,9.09-11.64,9.09-11.65,0C-107.71-398.43-96.06-399.14-96.06-389.54Z" transform="translate(154.72 468.79)"/><path class="cls-23" d="M-97.64-389.27c0,6.4-8,6.4-8,0S-97.64-395.67-97.64-389.27Z" transform="translate(154.72 468.79)"/><path class="cls-24" d="M-99.5-389.52c0,5.6-4,0-3.92,0C-103.53-389.52-99.5-395.12-99.5-389.52Z" transform="translate(154.72 468.79)"/><path class="cls-20" d="M-101.86-392.23c0,5-3.58,0-3.49,0C-105.44-392.23-101.86-397.21-101.86-392.23Z" transform="translate(154.72 468.79)"/><path class="cls-20" d="M-104-388.13q-0.74,1.88-1.49,0Q-104.7-390-104-388.13Z" transform="translate(154.72 468.79)"/></g><path class="cls-25" d="M-109.92-386.09c2.91-5.61,10.64-5.19,15.27-8.71-0.24-.48-19.84.11-15.27,8.71C-109.14-387.58-110-386.28-109.92-386.09Z" transform="translate(154.72 468.79)"/><path class="cls-26" d="M-107.36-423.5c-3.95,7.1-3.09,13.58-9.52,19.06,1.22-2.82-4.42,2.57-4.4,2.53,0.57-2.68.57-5.2-2.39,0.59,1-5.91-1.1-.66-1.94,1-0.12.64,0.57-8-.16-5.64-1.9-6.3-.2-12.89.43-19.22-0.3,3.29-3,9.41-3.44,13.29-0.79,6.36-3.19,6.5-1.09,10.55q-2.31-2.11-3.22-.32a12.56,12.56,0,0,1,2.65,3.22c-0.89-1.67-3.5.78-4.22,0.93a5,5,0,0,1,3.39.74c-0.4-.42-3.61.81-3.58,0.81a4.68,4.68,0,0,1,1.84.56,16.67,16.67,0,0,1-4.08,1.25q-0.91,2.27,3.59,2.46A9.82,9.82,0,0,0-136-392c1.31,0.15-.48,2.5-1.58,2.55,3-.1.91,2.7,0.57,2.52,3.34,1.66,4,1.16,3.35,4.73,0,0.15-4.2,3.56-4.38,3.77-1.18,1.39-.83,3.44-3.16,5.41q0,1.29,1.67.53c0.54,0.7-4.07,2-4.19,2.49a1.15,1.15,0,0,0,1.43.39c0.17,0.47-6.55,9.13-6.91,10.59-1,4.24-1.52,3.63,1.1,8.16a1.12,1.12,0,0,0,1-1.31c-0.08,5.49.91,6.08,2,2.54,0.08,2,4.08-3.35,4.76-4.31,0.56-.8,2.22-0.49,2.92-1.42,0.06-.08-1.63-2-0.75-3.21,1.22-1.73,11.21-17.06,9.49-16.37,0.87-.35,7-0.69,2.9-2.14,7.33-.17-1.78-4.4-2.88-5.28q0.45-2.3,3.35-2.78c0.93-.81-1.7-0.4-1.52-0.44,1.14-.25,9.33-4.67,9.63-4.24a4.25,4.25,0,0,0-3.34-1.5c-0.58.26,5.77-2.56,4.78-2.89-4.71-1.57,3.8-4.31-.62-3.55-1.67,1.51,9.22-7.69.66-2.33,1.15-.72,9-3,5.74-4.5a3.5,3.5,0,0,0,2.9.55c-0.94.94-1.18-17.79-.28-19.4h0Z" transform="translate(154.72 468.79)"/><path class="cls-27" d="M-93.74-379.39q-2.45-1.39-4.77,1.84c7.56-8.11-4.76.79-9,.45-4.53-.37-6.89-4.49-10.93-5.49-1.7,9.51,11.31,6.2-.88,11.9-3.64,1.7-12.57,7.8-11.72,13.36,0.32,2.12,3.85.94,5.51,1.38,4.37,1.17.53,2.45,6.49,0,6.71-2.79,14.76-6.51,11.51-15.19,6.3,4.18,14.15-.58,13.76-8.23h0Z" transform="translate(154.72 468.79)"/><path class="cls-28" d="M-148.83-428.86A25.38,25.38,0,0,1-151.46-439c0-.09,2.42,7.53,3.58,7.15-1.83-5.21-4.5-13-1.67-18.44a11.75,11.75,0,0,0,.7,5.89,80.13,80.13,0,0,1,1-11.48c-2.09,10.89-9.8,24.78,2.84,34a24.64,24.64,0,0,1-3.84-7C-149.24-429.66-148-426.32-148.83-428.86Z" transform="translate(154.72 468.79)"/><path class="cls-29" d="M-144.14-463.84c-0.84,4-4.93,7.82-3.12,12.23-1-2.44,3.92-9.07,3.12-12.23C-145-459.7-144-463.47-144.14-463.84Z" transform="translate(154.72 468.79)"/><path class="cls-28" d="M-57.14-459.36c-8.71,2.66-15.74,11.48-17.73,20.17-0.77,3.36.32,18-4,18.36,3.29-.33,5.94-4.62,7-7.3,0.28-.72-3.14,2.64-2.79,2.28A24.51,24.51,0,0,0-72.64-430c0.16-.69-1.81.88-1.66,0.74,1.31-1.15,1.72-5.27,2-6.83q-1.2-.54-1.68,1.15c2.16-8.81,6.61-21.77,16.86-24.4C-63.62-457.38-57-459.39-57.14-459.36Z" transform="translate(154.72 468.79)"/><path class="cls-29" d="M-54.2-438.41q-0.28-3.9-.35-7.81a65.77,65.77,0,0,1-2,11.17c-0.55,1.71-7.21,10-7.11,10.32,0.66,2.28,9.48-10.94,9.48-13.68S-54.2-438.39-54.2-438.41Z" transform="translate(154.72 468.79)"/><path class="cls-28" d="M-121.92-432.09a38.29,38.29,0,0,0-8.54,25.91c-0.19-7.15,3.85-20.19,8.54-25.91C-125-428.3-121.83-432.19-121.92-432.09Z" transform="translate(154.72 468.79)"/><path class="cls-28" d="M-99.65-433.79a32.64,32.64,0,0,0-12,25c0.11-7.62,6.09-20,12-25C-103.4-430.69-99.51-433.92-99.65-433.79Z" transform="translate(154.72 468.79)"/><path class="cls-28" d="M-133.85-401.84c-4,7.64-4.85,8.46-4.58,17.26-0.22-6.14,1.47-11.45,4.58-17.26h0Z" transform="translate(154.72 468.79)"/><path class="cls-28" d="M-139.9-383.08c-3.82,8.32-17.75,25-11.61,34.63-5-7.68,8.54-27.77,11.61-34.63C-142.71-377-139.85-383.2-139.9-383.08Z" transform="translate(154.72 468.79)"/><path class="cls-28" d="M-146.28-338.44c-2.58-1.52-3.15-6-3.88-8.65,1.12,4.31.73,6.81,3.88,8.65h0Z" transform="translate(154.72 468.79)"/><path class="cls-28" d="M-134.07-352c-4.09,2.39-7.65,3.74-9.51,8.46,0.95-2.32,8.35-7.79,9.51-8.46h0Z" transform="translate(154.72 468.79)"/><path class="cls-28" d="M-105.41-359.91c-8.47,6.13-18.35,9.74-25.94,17-3.73,3.55-12.35,13.65-18.48,7.75,8.16,8.09,17.08-6.35,22-10.38,6.63-5.38,15.5-9.52,22.37-14.32C-109.27-357.12-105.24-360-105.41-359.91Z" transform="translate(154.72 468.79)"/><path class="cls-13" d="M130.07-86.42a17.33,17.33,0,0,0-.44,4.44Z" transform="translate(154.72 468.79)"/><path class="cls-13" d="M82.46-209.8l0.63,3.35q-1.09-7.39-.63-3.35C82.62-208.68,82.41-210.19,82.46-209.8Z" transform="translate(154.72 468.79)"/><path class="cls-13" d="M131-129a102.91,102.91,0,0,1,1.75-17.54c0.66-3.62,3.71-10.16,3.22-13.69-1.26-9.16-15.22-20.37-21.09-27.29a155.31,155.31,0,0,1-19.2-27.71c-3.57-6.74-2.13-7.8-8.93-7.55q-4.22,1.64-8.43,3.32-6.5.58-2.48,5.89c0.82,20.88,25,32.65,35.28,47.52,8.07,11.69,4.82,29.62,9.49,42.89-1.28,0-3.94-11.52-4.25-12.79,1.41,14.42,5.62,30,5.41,44.49a30.82,30.82,0,0,1-.59,4.67c-0.45,2.73-5.6,15.88-2.08,7.59a60.25,60.25,0,0,1-5.68,10.33c1.36-1.05-1.63,1.9-.72,3,1.87,2.26,13.33,1,15.51-.16,6-3.09,5.59-8.45,6.16-14.11-0.71.88-3.48,4.75-3.61,5.68,0.73-5.9,4.12-6.95,3.87-13.08-0.1-2.4-2.81-7.11-3.3-9.54-2-10.14-.43-21.62-0.33-31.92C131.12-136.44,131-121.29,131-129Zm-4.4-23.46c2.82,13.68,1.24,29.17,1.45,43.64,0.14,9.83,7.78,34.11-1.73,41.1-6.64,4.88-9.7.32-7.16-5.77,2.74-6.56,5.63-9.18,5.4-17-0.54-17.84-2.89-35.58-5.27-53.22-1.23-9.12.31-17-5.7-24.61-5.07-6.41-12.4-11.14-18.47-16.5-3.91-3.45-22.15-29.12-10.62-31.83,7.4-1.74,18.89,27.68,23.43,32.5,5.31,5.64,12.14,9.58,17.58,15.05,2.15,2.16,5.16,4.75,5.34,8.09s-5,4.78-4.26,8.53h0Z" transform="translate(154.72 468.79)"/><path class="cls-30" d="M98-323.65l-4.38-.11a87.94,87.94,0,0,1,8.34-2.92c-18.16-.79-35.16,8.11-53.66,5.11,0.09-.2,11.93,10.72,12.66,12.14-0.9-.51-7.8-3-9.23-1.4-0.8.88,4.24,3.12,4.88,4.22,0.45,0.28-7.53-2.73-6.79-1.1,2.15,4.72,6.06,9.27,5.8,14.78A29.37,29.37,0,0,0,51-298.22c2.4,1.9,3.89,18.75,4.09,22.09-3.45-8.45-10-17.09-15.5-24.28q-1.85,1.71,2.56,4C30.61-312.69,13-324.57-5-332.56c-8.46-3.75-17.39-6.54-25.65-10.74-1.68-.86-22.62-15.17-18.42-17.32-0.84.43,0.06,5.74,0,5.39-6.88-13-5.5,2.72-6.25,7.73-0.45,3-6.48,31-7.21,31,5.87-.11,10.87-15.38,12.05-19.32,0.07-.42-1.28,7.6-0.43,7.36,1.16-.32,3.14-4.41,3.61-5.1-1,2.7-4.44,20.56-4.33,20.51,1.4-.68,3.95-9.92,4.89-11.88-0.27,2.13-4.63,22.65-4.38,22.55,1.61-.64,1.17-5.23,2.65-5.63-1.14.3-2.42,9.14-2.86,9.14q0.07,0,0,.13c-0.11,2.35,10-10.59,3.22-4.08-0.38.81-4.56,14.34-2.76,13.65A5,5,0,0,0-48.81-293c-0.46,1.8-1.88,17.25-.42,16.68a6.2,6.2,0,0,0,2.36-5.42c-0.25,1.29-2.76,20.75-.18,19.77a1.8,1.8,0,0,0,1-1.34,54.14,54.14,0,0,0,2,14.67c-0.24-.8,2,7,2.65,3C-39.6-235-34-227.92-27.67-219.53c3.46,4.61,6.47,17.43,12.75,11.82,4.47-4,6.78-23.77,8.44-29.89C-3.12-250-3.33-263-8.7-274.81c6.73,9-4.1-12.88-4.87-14.61q2.26,2.94,4.71,5.73c1,0.61-4-11.84-5-13.08,8.64,5.94-5.11-8.34-6.24-9.75,0.34,0,5.69,3.36,5.95,3.11,0.87-.84-8.67-10.46-9.64-11.34,6.28,2.57,12.86,4.74,18.18,9.16-0.14.12-4.11,0.22-3.76,0.34a26.93,26.93,0,0,1,11.09,7.38q-2-2.31-3-.6a20,20,0,0,1,5.36,5.71c-6-3.07,3.48,10.86,4.5,14.59C11-269.56,9.69-262.26,10-253.64q2.45,0.44,3.22-3.09c2.4,4.31,2.52,8.49-.11,13.24-0.24.43,6.77-9.21,6.34-9.27-0.43,1.11-4.05,12.4-3.86,12.3,4.61-2.39,7-7.41,9.47-11.7,0.08,2.6.35,13.15-1.74,14.43,6.26-3.88,11.28-9.59,15.61-15.47-0.23,1.28-2.58,8.72-3.2,8.94,4.12-1.52,7.05-4.68,9.78-7.95-0.82,1.72-4.68,8.8-6,9.29,6.61-2.62,9.29-11.39,14.81-13.77-0.44,1.44-3.12,8.93-4.29,9.21,8.85-2.06,10.23-10.58,15.83-16,0.11-.41-2.55,8-2.13,7.8,5.65-3.06,7.67-11.55,9-17.29,0.84,3.15.62,6.6,1.59,9.72,0.61,2,3.22-5.64,2.86-4.61,1.27-3.66.48-9.26,0.69-13.07,0.08-1.49,3.4-22.11,5.91-20.85-2.56-1.28-8.33,4.7-10.56,6,1.47-3.21,9-6.45,9.42-9.32,0.17-1.08-6.78,2.22-6.32,2,2-2.28,11.24-9.66,13.52-9.06-3.93-1.07-7.1,2.13-10.94,1.94,0.65-.78,6.6-4.4,6.48-4.39s-0.11,0-.11,0c-2.17.51-4.09,0.43-6.31,1.15,3.64-2.53,7.8-3.29,11.39-5.56,1.25-.79,8.26-3,1.51-2.3,0.23-.07,7.27-2.06,6-2.27h0Z" transform="translate(154.72 468.79)"/><path class="cls-14" d="M85.86-239.85c-3.64-10.63-4.59-21.44-4.25-32.62-1.25,3.8-.49,24.8-2.14,25.8-1,.61-2.88-5.18-2.88-5.18-0.1,1.74-.2,10.73-2.57,11.22q-2-1.13-1-4.23c-0.66,1.57-2.57,9-5,8.93-0.67,0,.22-2.49-0.33-2.85-0.24-.16-7.88,6.41-7,5.91q-1.19-.93.1-2.3c-5.71,3.1-10.5,9.35-17.58,9.06q-0.73-2,1.67-3.32c-5,1.82-11.95,6.4-17.45,6-1.23-.07,3.75-5,3.47-4.71-7.26,1.53-13.54,6.84-21.25,6.34,0.7,0,4.76-8.3,5.16-9.61a14.26,14.26,0,0,1-5.28,4.84c-0.89.4,1.74-6,1.65-5.7-0.08.12-3.73,6-4.52,5.7,1.71,0.54,3.64-20.21,3.45-21.75A28.17,28.17,0,0,1,6.56-241c-0.32.42,0.77-10.12,0.77-10.15-0.07.29-1.58,8.11-2.84,8.16,1.23-.05-0.14-17.43-0.38-18.89,0.51,12.95-1.22,25.63-3,38.43,2.35-5.2,7.5-12.36,7-18.16,0.48,6-3.05,11.7-5.24,17.08-2.63,6.48-3.6,13.32-5.09,20.42,6.71,0.3,13,3.53,20,3.72a72.09,72.09,0,0,0,25.32-4.11C59.08-210,74-222.91,91-225.14a116,116,0,0,1-5.14-14.71C85.18-241.86,87.24-234.85,85.86-239.85Z" transform="translate(154.72 468.79)"/><path class="cls-31" d="M153-281.12l-1.07-2.21q1.14,4.24,4,3.68c1.56-1.46-4.11-13-5.32-15.2a37,37,0,0,0-10.95-12.48c-7.66-5.58-25.15-12.51-32.89-3.2-0.13.16,7,.45,7,0.46-3,.82-15.52,4.46-16,8.5q0.91,0.91,2.24-.41a12,12,0,0,0-3.54,3.42c1-1.53,11.78-3.25,14.23-2.73-1.72.77-8.94,5.72-9.95,5.91q4.3-1.26,8.53-2.71c-6.68,3.94-15.09,8.46-16.7,16.85,0,0.11,7.67-5.11,7.5-5a30.4,30.4,0,0,0-3.88,5.1c1.28-1.91,8-5.38,10.76-6.28-1.15,1-10.93,11.93-10.56,11.9,4.22-.36,7.73-4,12-4.54-4.12,2.78-8.19,5.75-10.81,10.08-0.1.17,6.46-2.9,6.51-3.37-0.37,3.3-7.42,5.88-8.15,10.32,0.25-1.5,8.22-5,9.77-5.54-3.87,1.44-11.08,19-9.26,19.51,0.43,0.13,5.95-5.49,6.08-5.57-1.45,3.77-4.7,6.83-4.9,11.07,0,0.68,5.58-6.07,5.3-5.72a22.58,22.58,0,0,0-1.17,16.14c0.3,0.94,3-5.2,3.13-5.4a24.36,24.36,0,0,0-.64,9.64q2.79,0.1,2.32-4.27c-2.25,17.27,12.28,31.75,21.83,44.37,5.12,6.76,10.82,13.33,15,20.75,3.64,6.5,3.65,19.75,8.39,24.64,1.87,1.94,4.45-11.8,4.39-13.05-0.37-7.57-5.36-13.2-7.9-20-3.87-10.38-3.71-24.73-1.26-35.56q-1.29,3.76,1.18,4.61c2.79-1.32,1.39-15.27.87-17.63a33.51,33.51,0,0,1,2.37,6c-1-2.9,1-13.87.62-18.21,4,11.92,2.41-6.76,1.81-9.33,3.62,6.74.47-17.27,0.19-18.56,0.58,1.11,4,11.39,3.37,11.72,5.83-2.81-2.78-24.7-4.4-27.69C152.64-281.87,157.44-272.86,153-281.12Z" transform="translate(154.72 468.79)"/><path class="cls-30" d="M-61.33-377.67c1.89,3.81-1.59,25.23-3.28,30.72-0.77,2.5-16.44,28.72-12.19,30,6.81,2.06,15.13-19.35,16.48-23.41,4-12,4.71-25.75-1-37.32h0Z" transform="translate(154.72 468.79)"/><path class="cls-30" d="M-68.81-347.49a45.17,45.17,0,0,0,5.09-21.12c0-2.14-2.36-17.54-3.81-16.59-1.18.78-.94,19.94-1.86,22.91-2.48,8-8.6,14.2-11.47,22.15-6.81,18.82,9.44.15,12.05-7.35C-62.71-358.85-70.93-341.4-68.81-347.49Z" transform="translate(154.72 468.79)"/><path class="cls-30" d="M-71.7-391.51c0.33,3.37-3.23,19.2-5.22,23.42-0.81,1.71-15.36,18.39-9.77,20.2,4,1.31,12.44-11.68,13.73-14.23,4.49-8.89,2.19-20,1.27-29.39h0Z" transform="translate(154.72 468.79)"/><path class="cls-32" d="M-14.84-157.54c-2.25-8,.54-18-2.89-25.43,0.36,0.78,1.13,35.4,3.73,33.45,1.32-1-.63-7.3-0.84-8h0Z" transform="translate(154.72 468.79)"/><path class="cls-32" d="M-13.39-145.59c2.32,9.21-2.88,25.38-3.37,35.35-0.24,4.88,1.86,34-2.91,35.21,7.15-1.85,4.51-27.83,4.61-32.64,0.26-11.76,4.72-26.37,1.66-37.92h0Z" transform="translate(154.72 468.79)"/><path class="cls-32" d="M-21.92-73.77c0.86-.66-7.12,8.07-4.54,7.87,1.91-.14,3.41-7,4.54-7.87C-24.17-72-21.76-73.9-21.92-73.77Z" transform="translate(154.72 468.79)"/><path class="cls-32" d="M-34.84-162.6a26.11,26.11,0,0,1,.07-10c0-.55-2.56,21.5,1.77,18.31,1.59-1.17-1.55-7.5-1.84-8.31h0Z" transform="translate(154.72 468.79)"/><path class="cls-32" d="M-30-119.08c-0.46-9.88-1.59-19.71-2.41-29.56,0.42,4.63,3.28,57,2.78,57.26,3.11-1.37-.24-24.78-0.38-27.7C-30.5-129-29.62-110.08-30-119.08Z" transform="translate(154.72 468.79)"/><path class="cls-32" d="M-34.27-80.52c-0.64.38-6.87,7-5.27,7.47s4.07-6.75,5.27-7.47C-36.9-79-34-80.67-34.27-80.52Z" transform="translate(154.72 468.79)"/><path class="cls-32" d="M119-163.91c-1.36-6.58-14.45-13.51-18.8-18C94-188.22,86.76-196,84.6-204.94c2.41,10.38,8.21,18.76,16.24,26.53,2.1,2,23.42,19,17.94,22.23,1.4-.83.41-6.9,0.24-7.73C118.59-166,119.51-161.58,119-163.91Z" transform="translate(154.72 468.79)"/><path class="cls-32" d="M118.66-152.07c-0.19.87-.13,19.25,2.07,17.78,0.57-.38-2.51-15.71-2.07-17.78h0Z" transform="translate(154.72 468.79)"/><path class="cls-32" d="M125.84-89c-1.13-13.16-3-26.22-3.65-39.43,0.89,15.86,1.57,33.46.93,49.56,0-.19,2.91-8,2.72-10.14C125.49-93.17,126.14-85.57,125.84-89Z" transform="translate(154.72 468.79)"/><path class="cls-32" d="M120.07-71.61a25.77,25.77,0,0,0-2.32,4.51c-0.16,1.22,3.6-6.32,2.32-4.51h0Z" transform="translate(154.72 468.79)"/><path class="cls-32" d="M143-168.29c-4.42-7.45-13.58-14.5-15.46-23.25,1.13,5.51,28.54,46.54,22,49.51,5.61-2.53-5-23.79-6.49-26.26h0Z" transform="translate(154.72 468.79)"/><path class="cls-32" d="M152.72-91.55c-0.3-15.29-.87-30.89-2.27-46.12,0.39,4.58,1.87,57.53.58,58,2.52-.92,1.72-9.85,1.68-11.88C152.62-96.38,152.79-87.75,152.72-91.55Z" transform="translate(154.72 468.79)"/><path class="cls-32" d="M150.23-77.24c-1,4.77-14.7,16.57-10.7,21.69-1.31-1.68,9.94-18,10.7-21.69C150.29-77.53,149.48-73.54,150.23-77.24Z" transform="translate(154.72 468.79)"/><path class="cls-33" d="M-44.82-295.94c-1,1.55-5.48,18.6-3.89,17.89,1.84-.82,2.3-15.37,3.89-17.89C-48.21-290.65-44.76-296-44.82-295.94Z" transform="translate(154.72 468.79)"/><path class="cls-33" d="M-45.75-281.18c-0.93,3.59-2.77,7.79-1.59,11.58-0.36-1.17,1.22-10.06,1.59-11.58C-46.7-277.52-45.73-281.29-45.75-281.18Z" transform="translate(154.72 468.79)"/><path class="cls-33" d="M-40.44-273.43c-0.33,1.15-4.38,26.89-1.11,24.63,0.15-.11.51-22.59,1.11-24.63h0Z" transform="translate(154.72 468.79)"/><path class="cls-33" d="M-40.22-255.51c0.08,1.29-.85,3.94-0.62,5.63,0-.3.68-4.74,0.62-5.63C-40.23-255.69-40.11-253.72-40.22-255.51Z" transform="translate(154.72 468.79)"/><path class="cls-33" d="M-33.29-233.38c-1.93-7.65-4.54-15.37-3.11-23.36-0.9,4.73-2,8.89-1,14.23,0.45,2.46,4.18,9.35,4.13,9.13C-35.29-241.32-33.2-233-33.29-233.38Z" transform="translate(154.72 468.79)"/><path class="cls-33" d="M-58.55-366.81c0.34,2.71-2.25,32-4,32.63,5.52-2,4.66-27.92,4-32.63C-58.58-367-57.15-356.11-58.55-366.81Z" transform="translate(154.72 468.79)"/><path class="cls-33" d="M-64.55-371.43c0-.46-2,11.11-0.7,10.48,1.55-.75.72-9.91,0.7-10.48C-64.56-371.61-64.4-368.13-64.55-371.43Z" transform="translate(154.72 468.79)"/><path class="cls-33" d="M-71.31-372.54c-0.07-.68-2.11,9.37-1.6,9.18,1.78-.66,1.69-8.43,1.6-9.18h0Z" transform="translate(154.72 468.79)"/><path class="cls-33" d="M11.88-273.45c0.16,1.48.66,14.2-.13,14.52,2.74-1.13.37-12.5,0.13-14.52C11.87-273.58,12.18-271,11.88-273.45Z" transform="translate(154.72 468.79)"/><path class="cls-33" d="M16.27-263.94a37.47,37.47,0,0,1-1.15,6.63,19.49,19.49,0,0,0,1.15-6.63C16.26-264.11,16.35-261.72,16.27-263.94Z" transform="translate(154.72 468.79)"/><path class="cls-33" d="M18.19-256.78c-1,5.06-1.69,10.25-4.77,14.56,3.57-5,3.57-8.3,4.77-14.56C17.2-251.52,18.21-256.91,18.19-256.78Z" transform="translate(154.72 468.79)"/><path class="cls-33" d="M19.53-248.07a12.62,12.62,0,0,1-1.69,4.86,34.29,34.29,0,0,0,1.69-4.86C19.47-247.19,19.54-248.19,19.53-248.07Z" transform="translate(154.72 468.79)"/><path class="cls-33" d="M28.57-312a30.26,30.26,0,0,0-9.92-8.34A82.55,82.55,0,0,1,28.57-312C26.06-315.36,28.71-311.76,28.57-312Z" transform="translate(154.72 468.79)"/><path class="cls-33" d="M30.4-311.62c2.06,2.3,4.83,6.46,7,9.31-1.63-2.11-4.56-6.57-7-9.31h0Z" transform="translate(154.72 468.79)"/><path class="cls-33" d="M106.78-295.85c-2.17.75-11.5,9.55-11,9.57,2.26,0.08,7.84-8.7,11-9.57h0Z" transform="translate(154.72 468.79)"/><path class="cls-33" d="M102.54-288.57a20.46,20.46,0,0,0-3.73,3.67c-0.38.47,4.08-3.94,3.73-3.67C101.13-287.55,102.71-288.7,102.54-288.57Z" transform="translate(154.72 468.79)"/><path class="cls-33" d="M110.08-287.32c-5.23-.31-7.65,7.74-9.26,7.95,3-.38,5-8.28,9.26-7.95C107.93-287.44,110.23-287.3,110.08-287.32Z" transform="translate(154.72 468.79)"/><path class="cls-33" d="M105.37-277.08a23.31,23.31,0,0,0-3.61,3.66c-0.52,1,4.18-4.35,3.61-3.66C104.28-275.77,105.49-277.22,105.37-277.08Z" transform="translate(154.72 468.79)"/><path class="cls-33" d="M109.77-272.2c-2.83,2.81-5.7,4.56-7.83,8-0.58.94-3.21,8.69-2.75,8.57,0.68-.16,8.43-14.58,10.57-16.59C107.38-269.83,109.87-272.3,109.77-272.2Z" transform="translate(154.72 468.79)"/><path class="cls-33" d="M105-258.93l-2.37,3.36c-0.19.7,2.82-3.94,2.37-3.36h0Z" transform="translate(154.72 468.79)"/><path class="cls-33" d="M109-255.33c-1.52,1.78-6.48,17.12-5.37,16.62,1.87-.85,3.32-14.09,5.37-16.62C105.24-250.88,109.14-255.44,109-255.33Z" transform="translate(154.72 468.79)"/><path class="cls-33" d="M105.85-240.35l-0.37,2.64c0.19,0.77.68-3.77,0.37-2.64C105.65-239.54,105.89-240.52,105.85-240.35Z" transform="translate(154.72 468.79)"/><path class="cls-33" d="M112.1-214.62c-2.31-7.62-4.85-19-1-26.48-4.84,9.4-1.4,18.32,1,26.48C110.78-219,112.17-214.37,112.1-214.62Z" transform="translate(154.72 468.79)"/><path class="cls-33" d="M-51.21-213.68c-7.5-10.64-15.77-20.44-18.08-33.64-2.46-14.08,1.22-28.23-1.81-42.46,2.81,14.55-2.4,30.38.76,45.14,2.83,13.24,12.38,21,19.13,31C-55.12-219.23-51.1-213.53-51.21-213.68Z" transform="translate(154.72 468.79)"/><path class="cls-33" d="M-37-323.55c-1.56,1.37-9,12.29-9.29,12.36,2.44-.58,7.1-10.49,9.29-12.36C-40.79-320.24-36.86-323.67-37-323.55Z" transform="translate(154.72 468.79)"/><path class="cls-33" d="M-42.23-313.73c-1.63,2-4.73,4.55-4.49,7.51a84.94,84.94,0,0,1,4.49-7.51h0Z" transform="translate(154.72 468.79)"/><path class="cls-33" d="M-15.59-283.32s5.1,9.39,5.12,9.37c2.37-1.72-4.14-8.37-5.12-9.37h0Z" transform="translate(154.72 468.79)"/><path class="cls-33" d="M-12.31-274.35c0.51,0.59,2,5.14,2.4,6-0.68-1.43-.79-4.08-2.4-6h0Z" transform="translate(154.72 468.79)"/><path class="cls-34" d="M-46.26-69.92c-1.39,3.15-3,6.43-3.3,9.9-0.1,1,3.64-10.69,3.3-9.9C-47.67-66.73-46.22-70-46.26-69.92Z" transform="translate(154.72 468.79)"/><path class="cls-34" d="M-34.83-60.91c-1.69,3.51-4.47,8.27-4.36,12.31-0.07-2,3.37-10.16,4.36-12.31C-35.87-58.74-34.79-61-34.83-60.91Z" transform="translate(154.72 468.79)"/><path class="cls-34" d="M111.36-64.12a60.82,60.82,0,0,0-1.88,9.54c0-.09,1.83-9.16,1.88-9.54C111.18-62.55,111.37-64.19,111.36-64.12Z" transform="translate(154.72 468.79)"/><path class="cls-34" d="M135.43-55.38c-0.63,2.29-2.4,5.78-1.4,8.46-0.31-.83,1.21-7.76,1.4-8.46h0Z" transform="translate(154.72 468.79)"/><path class="cls-30" d="M-10.68-265c-1-3.42-2-7-3.76-10.14a85.1,85.1,0,0,1,5.37,9.38c4.39-3.45-8.38-27.79-10.48-30.12,0.07,0,5.74,5.55,5.76,4.92,0.09-2.41-4.26-8.41-5.46-10.07,3.69,3-1.48-4.38-4.45-5.06-5.66-1.29-8.48,3.53-11.48,7.86q4.23-3.35,1.68-4.83c-2.34,1.83-9.28,20.72-8.46,20.52,1-.26,2.76-4.57,3.37-5.22-1.78,4-2.15,6.22-3.06,10.33,0.07-.32,4.88-7.86,6.81-8.2-4,.7-6.48,19.22-6.31,22.18,0,0.45,4.78-7.41,4.64-7.17a55.47,55.47,0,0,0-2.16,9.06c0-.87,4-7.66,5.89-8.64-4.36,2.26-3,18.37-1.8,21.52,0.19,0.54,3.46-8.83,3.22-8.43-0.06.8-1.42,22,1.52,20.55q2-1.72,1.22-4.89c0.25,1.74,5,24.48,6.75,23.13,1.63-1.23-.81-8.62-0.55-10.64,0.64,1.65,3.72,17.85,3.41,18,3.33-1.18,1.68-21.88,1.74-24.87-0.06-.33,1.37,10,1.27,10.08,2.4-1.16,2.56-16.35,2.75-18.84,0-.18.35,8.88,0.79,8.66,3.11-1.52,2.3-17,2-19.83,2.62,10,.58-6.69-0.19-9.21h0Z" transform="translate(154.72 468.79)"/></g></g></svg>