<svg id="Layer_1" data-name="Layer 1" xmlns="http://www.w3.org/2000/svg" viewBox="0 0 218.64 196.67"><defs><style>.cls-1{fill:#1d2e2f;}.cls-1,.cls-2,.cls-3,.cls-4,.cls-5{fill-rule:evenodd;}.cls-2{fill:#4f443d;}.cls-3{fill:#625851;}.cls-4{fill:#facdad;}.cls-5{fill:#dca47b;}</style></defs><title>anim_36</title><g id="feet"><path class="cls-1" d="M530.77,2615.41c-4.54,2.23-.16,12.06,12.5,13.55s15.31-10.28,15.31-10.28-4.13-.7-14.43-1.91S535.31,2613.17,530.77,2615.41Zm90.08-1.11c-2.45-6.35-.56-1.5-10.7.71a87,87,0,0,0-16.66,5.26s3.78,11.46,16.24,8.74S622.67,2619,620.85,2614.3Z" transform="translate(-491.28 -2432.76)"/></g><g id="tail"><path class="cls-2" d="M674.15,2502.45c-26-15.93-50.24-22.2-76.9-3.2-24.69-9.55-58.25-9.65-84.1,16.2-32,32,58,52,58,52s14.5,15.5,21,34c8-8.25,7-15,7-15a32.08,32.08,0,0,1,5,3c4.5-6,1-27,1-27s3,1.37,18,14c3.86-3.27,1.72-12.55-.65-19.54,4.9,1.61,9.34,2.89,12.76,3.81l4.9,3.73s0-.9,0-2.48l2,0.48a53.84,53.84,0,0,1,21,27c9.5-7.5,8-25,8-25s4.06,0.66,10,16c7-10.5,4-25,4-25s8.5,6.75,10,16c6-2.75,4-17,4-17s5.63,7.43,6,20C715.87,2565.21,709.73,2524.26,674.15,2502.45Z" transform="translate(-491.28 -2432.76)"/></g><g id="body"><path class="cls-3" d="M610.5,2444.15c-10.38-7.15-22-11.38-34.35-11.38h0c-12.39,0-24,4.23-34.35,11.38-33.25,22.83-54.31,75.63-50,117.07a92.35,92.35,0,0,0,4.3,21.55c9.52,28.3,44.75,41.29,80,40.43,35.25,0.86,70.48-12.13,80-40.43a92.35,92.35,0,0,0,4.3-21.55C664.81,2519.77,643.74,2467,610.5,2444.15Z" transform="translate(-491.28 -2432.76)"/></g><g id="tongue"><path class="cls-4" d="M578.67,2592.65a1.77,1.77,0,0,0-3.43.9c1.39,5.26,2.75,12.81-1.46,17.65-3.69,4.25-10.7,5.54-16.3,3s-7.78-8.61-8.75-13.32c-3.08-15.06-8-31.38-28-34.35a1.78,1.78,0,0,0-2,1.48,1.76,1.76,0,0,0,1.48,2c17.66,2.63,22,17,25,31.58,1.13,5.51,3.91,12.73,10.74,15.82a18.59,18.59,0,0,0,11.67,1.18,16.31,16.31,0,0,0,8.79-5.09C581.77,2607.4,580.26,2598.68,578.67,2592.65Z" transform="translate(-491.28 -2432.76)"/></g><g id="head"><path class="cls-5" d="M628.73,2461.45c4.12-7.14,4.69-14.53,1.27-16.51s-9.53,2.22-13.66,9.36a29.11,29.11,0,0,0-2.54,5.69,54.82,54.82,0,0,0-75.32,0,29.1,29.1,0,0,0-2.54-5.69c-4.12-7.14-10.24-11.33-13.66-9.36s-2.85,9.36,1.27,16.51a25.64,25.64,0,0,0,6.67,7.79c-6.36,8.81-10.1,19.12-10.1,29.38,0,11.13,8.73,19.39,24.07,30.38,25.85,18.52,20.09,80,33.15,80s8.34-61,31.79-80.19c14.36-11.75,23-19.15,23-30.21,0-10.26-3.74-20.57-10.1-29.38A25.63,25.63,0,0,0,628.73,2461.45Z" transform="translate(-491.28 -2432.76)"/></g><g id="eye"><path class="cls-1" d="M608.22,2490.29c-3.73-1-7.69,1.65-8.83,5.92s1,8.54,4.69,9.54,7.69-1.65,8.83-5.92S612,2491.29,608.22,2490.29Zm-65.14,0c-3.73,1-5.83,5.27-4.69,9.54s5.1,6.92,8.83,5.92,5.83-5.27,4.69-9.54S546.81,2489.28,543.08,2490.29Z" transform="translate(-491.28 -2432.76)"/></g><g id="nose"><path class="cls-1" d="M577.15,2593.45c-3.87,0-7,.25-7,5.5s3.13,10.5,7,10.5,7-5.25,7-10.5S581,2593.45,577.15,2593.45Z" transform="translate(-491.28 -2432.76)"/></g></svg>