<svg id="Layer_1" data-name="Layer 1" xmlns="http://www.w3.org/2000/svg" viewBox="0 0 155.93 323.75"><defs><style>.cls-1{fill:#1d2e2f;}.cls-1,.cls-2,.cls-3,.cls-4,.cls-5{fill-rule:evenodd;}.cls-2{fill:#d2d2cd;}.cls-3{fill:#f4f4f4;}.cls-4{fill:#fff;}.cls-5{fill:#ff8e09;}</style></defs><title>anim_60</title><g id="shape"><path class="cls-1" d="M2094.89,2259c-10.52-26.43-6.93,29.09-6.93,29.09s0.05-10.89,7.75,5.28-9.54,55.82,7.14,46.58S2105.41,2285.4,2094.89,2259Z" transform="translate(-1964.96 -2048.58)"/></g><g id="shape-2" data-name="shape"><path class="cls-1" d="M2025,2362.45s-1.79-.3-5.83-0.84a91.72,91.72,0,0,0-9.26-2.53c-9.31-2-7.57-6.49-9.83-.65-0.11.28-.2,0.56-0.29,0.86l-0.33.16c-3.79,1.87-.79,9.48,8.53,11.88,0.72,0.22,1.48.43,2.32,0.62,11.44,2.5,14.92-8,14.92-8l-0.59-.26A10.55,10.55,0,0,0,2025,2362.45Zm57.83-3-0.33-.16c-0.09-.29-0.19-0.58-0.29-0.86-2.25-5.84-.52-1.38-9.83.65a91.7,91.7,0,0,0-9.26,2.53c-4,.53-5.83.84-5.83,0.84a10.55,10.55,0,0,0,.38,1.2l-0.59.26s3.47,10.53,14.92,8c0.83-.18,1.59-0.39,2.32-0.62C2083.57,2368.93,2086.57,2361.32,2082.78,2359.45Z" transform="translate(-1964.96 -2048.58)"/></g><g id="shape-3" data-name="shape"><path class="cls-2" d="M2107.08,2231.33c-8.21-19.11-22.46-47.57-34-41.35s12.12,45.24,10,61.68,25.58,54.11,32,31.67C2118,2273.18,2115.29,2250.44,2107.08,2231.33ZM2012.82,2190c-11.58-6.21-25.83,22.25-34,41.35s-11,41.84-8,52c6.45,22.44,34.1-15.22,32-31.67S2024.41,2196.19,2012.82,2190Z" transform="translate(-1964.96 -2048.58)"/></g><g id="shape-4" data-name="shape"><path class="cls-3" d="M2073.1,2201.2c-9.18-6-19.32-9.54-30.16-9.54h0c-10.83,0-21,3.54-30.16,9.54-31.39,20.47-51.41,70-47.26,108.66a84.73,84.73,0,0,0,3.93,19.6c8.74,26,41.11,37.93,73.49,37.14,32.38,0.79,64.75-11.14,73.49-37.14a84.71,84.71,0,0,0,3.93-19.6C2124.51,2271.19,2104.49,2221.68,2073.1,2201.2Z" transform="translate(-1964.96 -2048.58)"/></g><g id="shape-5" data-name="shape"><path class="cls-3" d="M2057.88,2052.67a30.17,30.17,0,0,0-14.94-4.09h0a30.17,30.17,0,0,0-14.94,4.09c-15.55,8.78-25.47,30-23.42,46.58a32.08,32.08,0,0,0,1.95,8.4c4.33,11.14,20.37,27.28,36.41,26.94,16,0.34,32.08-15.8,36.41-26.94a32.07,32.07,0,0,0,1.95-8.4C2083.35,2082.67,2073.43,2061.45,2057.88,2052.67Z" transform="translate(-1964.96 -2048.58)"/></g><g id="Elipsa_84" data-name="Elipsa 84"><path class="cls-3" d="M2061.57,2215c-10.5-56.07-12.13-88.47-3.15-94.75,5.13-3.59-7.64-11.08-15.49-11.08-7.6,0-20,8.86-15.07,12.5,9.18,6.81,9.6,37.69-3.22,93.33-1.91,8.3,7.42,15.43,18.47,15.43S2063.14,2223.42,2061.57,2215Z" transform="translate(-1964.96 -2048.58)"/></g><g id="Elipsa_76" data-name="Elipsa 76"><path class="cls-4" d="M2050.28,2063.28a12.84,12.84,0,0,1-16.54,0A22.69,22.69,0,1,0,2050.28,2063.28Z" transform="translate(-1964.96 -2048.58)"/></g><g id="shape-6" data-name="shape"><path class="cls-1" d="M2032,2070.63c-3.09,0-5.59,3.29-5.59,7.35s2.5,7.35,5.59,7.35,5.58-3.29,5.58-7.35S2035.06,2070.63,2032,2070.63Zm23.74,0c-3.08,0-5.59,3.29-5.59,7.35s2.5,7.35,5.59,7.35,5.59-3.29,5.59-7.35S2058.8,2070.63,2055.72,2070.63Z" transform="translate(-1964.96 -2048.58)"/></g><g id="shape-7" data-name="shape"><path class="cls-5" d="M2043.69,2089c-13.24,0-26.48,5.87-19.55,15s3.47,25.43,19.55,25.43,12.3-16.62,19.55-25.43S2056.93,2089,2043.69,2089Z" transform="translate(-1964.96 -2048.58)"/></g></svg>