<svg id="Layer_1" data-name="Layer 1" xmlns="http://www.w3.org/2000/svg" viewBox="0 0 514.66 677.65"><defs><style>.cls-1{fill:#fb7e7b;}.cls-2{fill:#e0528b;}.cls-3{fill:#fdcec9;}</style></defs><title>anim_13</title><path class="cls-1" d="M-4290.5,6223.93a30.83,30.83,0,0,1-30.8-30.79,30.58,30.58,0,0,1,9-21.77,30.57,30.57,0,0,1,21.77-9h0a50.61,50.61,0,0,0,50.56-50.56,50.61,50.61,0,0,0-50.56-50.56,30.83,30.83,0,0,1-30.8-30.79,30.83,30.83,0,0,1,30.8-30.79,50.61,50.61,0,0,0,50.56-50.56,50.61,50.61,0,0,0-50.56-50.56v19.76a30.83,30.83,0,0,1,30.79,30.79,30.83,30.83,0,0,1-30.79,30.79,50.62,50.62,0,0,0-50.56,50.56A50.62,50.62,0,0,0-4290.5,6081a30.83,30.83,0,0,1,30.79,30.8,30.83,30.83,0,0,1-30.79,30.79h0a50.23,50.23,0,0,0-35.75,14.81,50.23,50.23,0,0,0-14.81,35.75,50.62,50.62,0,0,0,50.56,50.56" transform="translate(4425.55 -5647.4)"/><path class="cls-1" d="M-4171.27,6162.35h0a50.61,50.61,0,0,0,50.56-50.56,50.61,50.61,0,0,0-50.56-50.56,30.83,30.83,0,0,1-30.8-30.79,30.83,30.83,0,0,1,30.8-30.79,50.61,50.61,0,0,0,50.56-50.56,50.61,50.61,0,0,0-50.56-50.56v19.76a30.83,30.83,0,0,1,30.79,30.79,30.83,30.83,0,0,1-30.79,30.79,50.62,50.62,0,0,0-50.56,50.56,50.62,50.62,0,0,0,50.56,50.56,30.83,30.83,0,0,1,30.79,30.8,30.83,30.83,0,0,1-30.79,30.79h0a50.23,50.23,0,0,0-35.75,14.81,50.23,50.23,0,0,0-14.81,35.75,50.62,50.62,0,0,0,50.56,50.56,30.83,30.83,0,0,1,30.79,30.79,30.83,30.83,0,0,1-30.79,30.79V6325a50.61,50.61,0,0,0,50.56-50.56,50.61,50.61,0,0,0-50.56-50.56,30.83,30.83,0,0,1-30.8-30.79,30.58,30.58,0,0,1,9-21.77A30.57,30.57,0,0,1-4171.27,6162.35Z" transform="translate(4425.55 -5647.4)"/><path class="cls-1" d="M-4050.77,6223.93a30.83,30.83,0,0,0,30.8-30.79,30.58,30.58,0,0,0-9-21.77,30.57,30.57,0,0,0-21.77-9h0a50.61,50.61,0,0,1-50.56-50.56,50.61,50.61,0,0,1,50.56-50.56,30.83,30.83,0,0,0,30.8-30.79,30.83,30.83,0,0,0-30.8-30.79,50.61,50.61,0,0,1-50.56-50.56,50.61,50.61,0,0,1,50.56-50.56v19.76a30.83,30.83,0,0,0-30.79,30.79,30.83,30.83,0,0,0,30.79,30.79,50.62,50.62,0,0,1,50.56,50.56,50.62,50.62,0,0,1-50.56,50.56,30.83,30.83,0,0,0-30.79,30.8,30.83,30.83,0,0,0,30.79,30.79h0a50.23,50.23,0,0,1,35.75,14.81,50.23,50.23,0,0,1,14.81,35.75,50.62,50.62,0,0,1-50.56,50.56" transform="translate(4425.55 -5647.4)"/><path class="cls-2" d="M-3920.77,5914.61a9.88,9.88,0,0,1-9.88-9.88c0-131-106.57-237.57-237.57-237.57s-237.56,106.57-237.56,237.57a9.88,9.88,0,0,1-9.88,9.88,9.88,9.88,0,0,1-9.88-9.88c0-141.89,115.44-257.33,257.33-257.33s257.33,115.44,257.33,257.33A9.88,9.88,0,0,1-3920.77,5914.61Z" transform="translate(4425.55 -5647.4)"/><path class="cls-3" d="M-4322.81,5892.51a46.74,46.74,0,0,1,33.26-13.78,46.73,46.73,0,0,1,26.21,8l7.07,5.81a36.79,36.79,0,0,0,52,0,46.75,46.75,0,0,1,33.26-13.78,46.78,46.78,0,0,1,33,13.49l3.61,3.55a36.8,36.8,0,0,0,48.21-3.26,46.73,46.73,0,0,1,33.26-13.78,46.74,46.74,0,0,1,24.67,7l8.61,6.8a36.76,36.76,0,0,0,51.56.34c-6.26-105.07-93.42-188.37-200.06-188.37-108.2,0-196.32,85.73-200.27,193A36.77,36.77,0,0,0-4322.81,5892.51Z" transform="translate(4425.55 -5647.4)"/><path class="cls-1" d="M-3993.73,5942.81a56.46,56.46,0,0,1-31.49-9.55l-8.48-7a27.12,27.12,0,0,0-19.3-8,27.11,27.11,0,0,0-19.29,8,56.58,56.58,0,0,1-79.91,0l-2.59-2.59a27.06,27.06,0,0,0-16.25-5.38,27.12,27.12,0,0,0-19.29,8,56.61,56.61,0,0,1-73,5.89l-7-5.9a27.12,27.12,0,0,0-19.3-8,27.12,27.12,0,0,0-19.29,8,56.58,56.58,0,0,1-79.91,0l14-14a36.79,36.79,0,0,0,52,0,46.74,46.74,0,0,1,33.26-13.78,46.73,46.73,0,0,1,26.21,8l7.07,5.81a36.79,36.79,0,0,0,52,0,46.75,46.75,0,0,1,33.26-13.78,46.78,46.78,0,0,1,33,13.5l3.61,3.55a36.8,36.8,0,0,0,48.21-3.26,46.73,46.73,0,0,1,33.26-13.78,46.74,46.74,0,0,1,24.67,7l8.61,6.8a36.79,36.79,0,0,0,52,0l14,14A56.33,56.33,0,0,1-3993.73,5942.81Z" transform="translate(4425.55 -5647.4)"/><circle class="cls-1" cx="43.87" cy="271.79" r="9.87"/><circle class="cls-1" cx="135.04" cy="586.43" r="9.87"/><circle class="cls-1" cx="254.28" cy="667.78" r="9.87"/><circle class="cls-1" cx="374.78" cy="586.43" r="9.87"/><circle class="cls-1" cx="464.83" cy="271.79" r="9.87"/></svg>