<svg id="Layer_1" data-name="Layer 1" xmlns="http://www.w3.org/2000/svg" viewBox="0 0 178.95 210.9"><defs><style>.cls-1{fill:#1d2e2f;}.cls-1,.cls-2,.cls-3,.cls-4{fill-rule:evenodd;}.cls-2{fill:#bf8136;}.cls-3{fill:#fff;}.cls-4{fill:#ff986a;}</style></defs><title>anim_51</title><g id="shape"><path class="cls-1" d="M1701.19,1677.45a52.2,52.2,0,0,0-5.38-.4c-7.62-1.93-7.85-3.86-10,1.59-1.68,4.34-1.23,11,10.22,13.51a13.06,13.06,0,0,0,5.86,0c8.06-.78,10.34-8.2,10.65-9.34,0.17-.33.25-0.53,0.25-0.53l-0.68-.3C1711.14,1680.77,1708.26,1678.28,1701.19,1677.45Zm68.62,1.18c-2.11-5.45-2.34-3.52-10-1.59a52.19,52.19,0,0,0-5.38.4c-7.07.83-9.95,3.32-11,4.53l-0.68.3s0.08,0.19.25,0.53c0.3,1.14,2.59,8.56,10.65,9.34a13.06,13.06,0,0,0,5.86,0C1771,1689.65,1771.49,1683,1769.81,1678.63Z" transform="translate(-1638.57 -1481.57)"/></g><g id="shape-2" data-name="shape"><path class="cls-1" d="M1673.71,1545.56c-6.77,6.91-13.7,7-25.21,6.1s-13.07,10.34-4.37,15.89,19,5,27.93-.76c4.13-2.68,6.87-8.57,7.66-14.32C1680.29,1548.32,1682.22,1536.86,1673.71,1545.56Zm134.08,5.42c-11.3.94-18.1,0.83-24.74-6.18-8.36-8.82-6.46,2.8-5.9,7,0.78,5.83,3.46,11.81,7.52,14.52,8.79,5.88,18.88,6.4,27.41.77S1819.08,1550,1807.78,1551Z" transform="translate(-1638.57 -1481.57)"/></g><g id="shape-3" data-name="shape"><path class="cls-2" d="M1757.53,1485.43c-2,7.1,32.64,7.64,24.33,37-4,14.15-17.26,15.38-21.9,17.28-11,4.49-1,29.32,19.46,24.68,9.64-2.18,28.63-19.39,29.19-39.49C1809.59,1490,1760.89,1473.51,1757.53,1485.43Zm-60,54.3c-4.63-1.89-17.89-3.13-21.9-17.28-8.32-29.37,26.33-29.92,24.33-37-3.36-11.92-52.06,4.53-51.09,39.49,0.56,20.1,19.56,37.3,29.19,39.49C1698.56,1569,1708.54,1544.21,1697.54,1539.72Z" transform="translate(-1638.57 -1481.57)"/></g><g id="shape-4" data-name="shape"><path class="cls-1" d="M1734.18,1510.33c2.65-4.75,6.89-8.43,5.85-9.79-1.59-2.07-9,1.28-9,1.28s4.89-7.93,2.58-8.93c-2.12-.92-14.3,8.06-17.44,18.75-46.75,12-76.93,88.46-60.88,136.19,17.45,51.9,129.07,47.77,147-1.84C1819.55,1598.06,1785,1515.86,1734.18,1510.33Z" transform="translate(-1638.57 -1481.57)"/></g><g id="Elipsa_69" data-name="Elipsa 69"><path class="cls-3" d="M1704.87,1543.32a16.54,16.54,0,1,0,16.54,16.54A16.54,16.54,0,0,0,1704.87,1543.32Zm49.61,0a16.54,16.54,0,1,0,16.54,16.54A16.54,16.54,0,0,0,1754.47,1543.32Z" transform="translate(-1638.57 -1481.57)"/></g><g id="Elipsa_70" data-name="Elipsa 70"><path class="cls-4" d="M1755.68,1569c-10.77,0-16.46,6-26.93,6s-16.15-6-26.93-6a35.83,35.83,0,0,0,0,71.66c10.77,0,14-6,26.93-6s16.15,6,26.93,6A35.83,35.83,0,0,0,1755.68,1569Z" transform="translate(-1638.57 -1481.57)"/></g><g id="shape-5" data-name="shape"><path class="cls-1" d="M1752.64,1554.35c-3,0-5.51,2.88-5.51,6.43s2.47,6.43,5.51,6.43,5.51-2.88,5.51-6.43S1755.68,1554.35,1752.64,1554.35Zm-45.93,0c-3,0-5.51,2.88-5.51,6.43s2.47,6.43,5.51,6.43,5.51-2.88,5.51-6.43S1709.75,1554.35,1706.7,1554.35Z" transform="translate(-1638.57 -1481.57)"/></g><g id="shape-6" data-name="shape"><path class="cls-1" d="M1763.66,1581.91c-5.07,0-9.19,4.94-9.19,11s4.11,11,9.19,11,9.19-4.94,9.19-11S1768.73,1581.91,1763.66,1581.91Zm-69.82,0c-5.07,0-9.19,4.94-9.19,11s4.11,11,9.19,11,9.19-4.94,9.19-11S1698.92,1581.91,1693.84,1581.91Z" transform="translate(-1638.57 -1481.57)"/></g></svg>