<svg id="Layer_1" data-name="Layer 1" xmlns="http://www.w3.org/2000/svg" viewBox="0 0 198.09 212.42"><defs><style>.cls-1,.cls-5{fill:#1d2e2f;}.cls-1,.cls-2,.cls-3{fill-rule:evenodd;}.cls-2{fill:#8d969d;}.cls-3{fill:#e8e9eb;}.cls-4{opacity:0.4;}</style></defs><title>anim_18</title><g id="feet"><path class="cls-1" d="M-171.23,1275.35c-4.54,2.23-.16,12.06,12.5,13.55s15.31-10.28,15.31-10.28-4.13-.7-14.43-1.91S-166.69,1273.11-171.23,1275.35Zm90.08-1.1c-2.45-6.35-.56-1.5-10.7.71a87,87,0,0,0-16.66,5.26s3.78,11.46,16.24,8.74S-79.33,1279-81.15,1274.24Z" transform="translate(224.9 -1076.95)"/></g><g id="ears"><path class="cls-2" d="M-68.6,1077a36.87,36.87,0,0,0-36.75,37,36.87,36.87,0,0,0,36.75,37,36.87,36.87,0,0,0,36.75-37A36.87,36.87,0,0,0-68.6,1077Zm-114.51,0a36.87,36.87,0,0,0-36.75,37,36.87,36.87,0,0,0,36.75,37,36.87,36.87,0,0,0,36.75-37A36.87,36.87,0,0,0-183.11,1077Z" transform="translate(224.9 -1076.95)"/></g><g id="ears-2" data-name="ears"><path class="cls-3" d="M-71.89,1093a22,22,0,0,0-22,22,22,22,0,0,0,22,22,22,22,0,0,0,22-22A22,22,0,0,0-71.89,1093Zm-107.93,0a22,22,0,0,0-22,22,22,22,0,0,0,22,22,22,22,0,0,0,22-22A22,22,0,0,0-179.82,1093Z" transform="translate(224.9 -1076.95)"/></g><g id="body"><path class="cls-2" d="M-44.17,1181.81c-6.9-31.53-24.53-62.53-48.23-78.32-10.15-6.78-21.41-10.79-33.45-10.79h0c-12,0-23.3,4-33.45,10.79-23.7,15.79-41.33,46.78-48.23,78.32-9.22,8.71-18.59,34.46-17.23,44.58,1.33,9.93,11.11,14.07,16.29,6.42a83.35,83.35,0,0,0,2.63,9.89c9.52,28.3,44.75,41.29,80,40.43,35.25,0.86,70.48-12.13,80-40.43a83.35,83.35,0,0,0,2.63-9.89c5.17,7.65,15,3.51,16.29-6.42C-25.58,1216.27-35,1190.51-44.17,1181.81Z" transform="translate(224.9 -1076.95)"/></g><g id="light" class="cls-4"><path class="cls-3" d="M-126.14,1113c-42.07,0-63.71,40.34-57.53,64.34s31.43,35.66,56.55,35.49c25.8-.18,53.74-10.63,58.5-36.34S-84.07,1113-126.14,1113Z" transform="translate(224.9 -1076.95)"/></g><g id="nose"><ellipse class="cls-5" cx="100.05" cy="83" rx="21" ry="31"/></g><g id="eye"><path class="cls-1" d="M-96.91,1137c-2.79,0-5.06,2.69-5.06,6s2.26,6,5.06,6,5.06-2.69,5.06-6S-94.12,1137-96.91,1137Zm-55.89,0c-2.79,0-5.06,2.69-5.06,6s2.26,6,5.06,6,5.06-2.69,5.06-6S-150,1137-152.8,1137Z" transform="translate(224.9 -1076.95)"/></g></svg>