<svg xmlns="http://www.w3.org/2000/svg" xmlns:xlink="http://www.w3.org/1999/xlink" viewBox="0 0 99.6 247.36"><defs><style>.cls-1{isolation:isolate;}.cls-2{fill:#f9a233;}.cls-3{fill:#c96830;}.cls-4{fill:#0e0c18;}.cls-12,.cls-31,.cls-33,.cls-34,.cls-5{fill:#fffbfc;}.cls-5{opacity:0.23;}.cls-16,.cls-31,.cls-33,.cls-34,.cls-5{mix-blend-mode:overlay;}.cls-11,.cls-32,.cls-6{opacity:0.37;}.cls-11,.cls-13,.cls-22,.cls-26,.cls-27,.cls-29,.cls-32,.cls-6{mix-blend-mode:multiply;}.cls-10,.cls-32,.cls-7{fill:#f8a133;}.cls-8{fill:#ed9224;}.cls-11,.cls-9{fill:#d89033;}.cls-10{opacity:0.42;}.cls-12,.cls-13,.cls-15{opacity:0.85;}.cls-13{fill:#dcdbdc;}.cls-14,.cls-17{fill:none;}.cls-14{stroke:#0e0c18;stroke-width:0.82px;}.cls-15,.cls-21{fill:#fff;}.cls-16,.cls-33{opacity:0.19;}.cls-18{fill:url(#radial-gradient);}.cls-19{fill:url(#radial-gradient-2);}.cls-20{fill:url(#radial-gradient-3);}.cls-22,.cls-26{opacity:0.49;}.cls-22{fill:url(#radial-gradient-4);}.cls-23{fill:url(#radial-gradient-5);}.cls-24{fill:url(#radial-gradient-6);}.cls-25{fill:url(#radial-gradient-7);}.cls-26{fill:url(#radial-gradient-8);}.cls-27,.cls-29,.cls-31{opacity:0.57;}.cls-28,.cls-29{fill:#c97f30;}.cls-30{fill:url(#radial-gradient-9);}.cls-34{opacity:0.27;}</style><radialGradient id="radial-gradient" cx="2300.46" cy="267.25" r="6.16" gradientTransform="translate(-19.71 13.39) scale(1.02 1.03)" gradientUnits="userSpaceOnUse"><stop offset="0" stop-color="#414347"/><stop offset="0.42" stop-color="#2b292c"/><stop offset="1" stop-color="#10090a"/></radialGradient><radialGradient id="radial-gradient-2" cx="2300.35" cy="267.16" r="6.96" gradientTransform="translate(-19.71 13.39) scale(1.02 1.03)" gradientUnits="userSpaceOnUse"><stop offset="0" stop-color="#bf6c27"/><stop offset="0.56" stop-color="#804438"/><stop offset="0.87" stop-color="#552922"/></radialGradient><radialGradient id="radial-gradient-3" cx="2300.94" cy="47.35" r="4.33" gradientTransform="translate(-19.71 239.24) scale(1.02 1.06)" xlink:href="#radial-gradient"/><radialGradient id="radial-gradient-4" cx="2300.58" cy="267.11" r="7.2" gradientTransform="translate(-19.71 13.39) scale(1.02 1.03)" gradientUnits="userSpaceOnUse"><stop offset="0" stop-color="#bf6c27"/><stop offset="1" stop-color="#804438"/></radialGradient><radialGradient id="radial-gradient-5" cx="-1677.23" cy="267.28" r="6.22" gradientTransform="matrix(-1.19, 0, 0, 1.03, 353.25, 13.39)" xlink:href="#radial-gradient"/><radialGradient id="radial-gradient-6" cx="-1677.37" cy="267.18" r="7.03" gradientTransform="matrix(-1.19, 0, 0, 1.03, 353.25, 13.39)" xlink:href="#radial-gradient-2"/><radialGradient id="radial-gradient-7" cx="-1694.05" cy="47.3" r="4.34" gradientTransform="matrix(-1.19, 0, 0, 1.06, 333.41, 239.24)" xlink:href="#radial-gradient"/><radialGradient id="radial-gradient-8" cx="2327.64" cy="267.03" r="7.75" xlink:href="#radial-gradient-4"/><radialGradient id="radial-gradient-9" cx="2312.86" cy="282.75" r="9.56" xlink:href="#radial-gradient"/></defs><title>anim_99</title><g class="cls-1"><g id="Layer_1" data-name="Layer 1"><path class="cls-2" d="M2366.17,263.44c7.88,2.69,17.33-10.14,17.55-16.45,0.48-13.46-14.36-15.34-24.78-17.55-9.44-2-31-4-33.16-16.29-1.34-7.66,17.23-26.59,20.6-17.51,2.51,6.77-25.25,9-10.43,21.14,11,9,31.81,4,44.74,11,9.85,5.36,14.21,14.83,9.88,25.58C2387.62,260.71,2367.9,278.18,2366.17,263.44Z" transform="translate(-2293.82 -192.76)"/><path class="cls-3" d="M2365.19,263.92c7.23,1.87,13.7-4.26,17.12-10,4.8-8,2.22-16.6-6.25-20.6-7.69-3.62-16.73-4.42-25-6-8-1.57-21.5-4-23.86-13.52-1-4,1.74-8.14,4.08-11.2s7.11-9,11.3-8.51c4.85,0.55,2.12,4.74-.31,6.32s-5.36,2.8-7.83,4.54c-5.93,4.16-4.12,9.12,1.37,13,8.67,6.16,20.8,5.22,30.84,6.6,7.11,1,14.16,3.07,19.24,8.44a18.83,18.83,0,0,1,3.52,20.61c-2.7,6.23-19.92,23.12-22,9.54-0.08-.53-2.49,0-2.38.64,1.22,7.82,8.14,6.41,13.44,3.24,7.3-4.36,14.16-11.54,14.93-20.34,1.17-13.42-11.31-20.9-22.92-22.82-11.42-1.88-27.43.1-35.73-9.72-6.33-7.49,5.86-10.85,10.46-14.32,4-3,2.28-7.83-2.9-6.93-7,1.21-13.44,8.83-16.34,14.84-4.05,8.39,3.37,14.33,10.62,17.17,10.67,4.18,22.43,4.35,33.31,7.79,5.79,1.83,11.43,5.11,12.5,11.6,1.17,7.07-6.63,20.9-15.2,18.68C2366.56,262.81,2364.46,263.73,2365.19,263.92Z" transform="translate(-2293.82 -192.76)"/><path class="cls-4" d="M2377.62,234.09c4.12-1.23,2,.64,4.24,1.14,1.6,0.36-6.25-.52-4.24-1.14h0Z" transform="translate(-2293.82 -192.76)"/><path class="cls-4" d="M2367.59,226.41s4.06,1.78,1.69,1.63A2,2,0,0,1,2367.59,226.41Z" transform="translate(-2293.82 -192.76)"/><path class="cls-4" d="M2364.3,227.86c-0.32,0,3.08,1.08,1.39,1.33-1.32.2-2.31-1.45-1.39-1.33h0Z" transform="translate(-2293.82 -192.76)"/><path class="cls-4" d="M2351.7,226.78c0.82-.16,1.82-2.8,3.06-0.06C2355.53,228.41,2350.53,227.57,2351.7,226.78Z" transform="translate(-2293.82 -192.76)"/><path class="cls-4" d="M2355.87,223.53c0.65-1.32,2.87-1.59,3,.71s-3.46.22-3-.71h0Z" transform="translate(-2293.82 -192.76)"/><path class="cls-4" d="M2345,220.64c0.46,0.85.37,4.37,2.93,1.5C2349,220.89,2345,220.12,2345,220.64Z" transform="translate(-2293.82 -192.76)"/><path class="cls-4" d="M2340.79,224.16c0.57-.09,2.75-2.56,2.39.73C2343.09,225.66,2340.72,224.17,2340.79,224.16Z" transform="translate(-2293.82 -192.76)"/><path class="cls-4" d="M2333.78,218.47c-0.5-.53,1.63,4.34,1.85,1Q2335.49,217.31,2333.78,218.47Z" transform="translate(-2293.82 -192.76)"/><path class="cls-4" d="M2330,215.76q-1.41.43-.54,1.63,2.7,0.43,2.75-2.26C2331.83,213.69,2330.3,215.63,2330,215.76Z" transform="translate(-2293.82 -192.76)"/><path class="cls-4" d="M2326.15,210c3.24,0,1.11,4,.27,3.52A3.89,3.89,0,0,1,2326.15,210Z" transform="translate(-2293.82 -192.76)"/><path class="cls-4" d="M2331.47,200.32c0.52-.49,2.76-2.46,3.39-2.42C2341.31,198.37,2326.31,202.7,2331.47,200.32Z" transform="translate(-2293.82 -192.76)"/><path class="cls-4" d="M2332.18,205.83c-0.53,1-3,1.81-1.26,3.71C2331.57,210.24,2332.21,205.69,2332.18,205.83Z" transform="translate(-2293.82 -192.76)"/><path class="cls-5" d="M2338,196.17c-5.22,2.61-12.5,9.45-10.89,16.21,2.46,10.29,22.23,10.62,30.23,12,8.23,1.38,16.9,2,23.59,7.59,4.65,3.88,7,8.34,6.94,14.44,0,1.25-3,10.07-3,9.92a3.22,3.22,0,0,0,.31-1.42c-1,.58-9.49,11-10.65,10.3,9.79,5.52,16.73-17.33,16.22-23.15-1-10.88-11-16-21-18.31-7.47-1.76-15.35-1.14-22.85-2.73-3.5-.74-9.72-1.72-12.57-4.06-6.91-5.68,1.94-11.35,0-14.12q-0.83.81-1.43,0.14c3.1-3,8.53-2.71,11.33-5.64,0.39-.41-3.63.06-3.71,0.06a3.15,3.15,0,0,0,1.49-1.59Q2340.15,194.37,2338,196.17Z" transform="translate(-2293.82 -192.76)"/><g class="cls-6"><path class="cls-7" d="M2384.36,252.33c9.41-14.89-12.15-22-22.55-24.39-11.43-2.68-29.08-1.37-35.64-13.16,6.49,19.74,43.85,8.58,55.13,23.29,3.53,4.6,3.23,11.91.16,16.68-2.36,3.67-15.5,8-14.89,10.43,8-2.28,13.35-5.81,17.79-12.84h0Z" transform="translate(-2293.82 -192.76)"/></g><path class="cls-8" d="M2322.42,354a40.71,40.71,0,0,1,1.26,12.18c0,1.52-2.81,8.35,3.65,7.25,4.85-.83,4.34-12.38,2.39-15.93-0.69-1.25-8.36-7.48-7.3-3.5h0Z" transform="translate(-2293.82 -192.76)"/><path class="cls-3" d="M2321.23,354.32a34.6,34.6,0,0,1,1.05,13.36c-0.26,1.7-1,4,.37,5.45,3.27,3.48,8.35-.76,9.2-4.08,1.21-4.73.82-10.78-3.09-14-1-.86-8.4-5.41-7.53-0.7l2.38-.64-0.46-1.71c-0.17-.62-2.55,0-2.38.64l0.46,1.71c0.17,0.62,2.55,0,2.38-.64l-0.46-1.71-2.38.64,0.46,1.71c0.16,0.61,2.51,0,2.38-.64q0.07-1.09-1.19-.42a5.31,5.31,0,0,1,1.31.61c0.54,0.4,1.14.73,1.69,1.14a12,12,0,0,1,3.1,2.81c1.82,2.9,1.75,8.1,1,11.23-0.48,2.13-3.18,6.29-5.1,2.46-0.63-1.25,0-2.93.18-4.22a35.45,35.45,0,0,0-1-13.61C2323.46,353.06,2321.07,353.68,2321.23,354.32Z" transform="translate(-2293.82 -192.76)"/><path class="cls-3" d="M2329.67,366.35c-2.08-3.76-6.14,3.49-4.11,6.54C2324.4,371.09,2327.86,363,2329.67,366.35Z" transform="translate(-2293.82 -192.76)"/><path class="cls-3" d="M2326.33,366.29c-2.89-.31-4,2.64-3.64,4.93C2322.52,370,2324.15,366.1,2326.33,366.29Z" transform="translate(-2293.82 -192.76)"/><path class="cls-4" d="M2327.57,363.48c0.1,0,.15,2.14,1.14.47C2329.47,362.67,2327.82,362.63,2327.57,363.48Z" transform="translate(-2293.82 -192.76)"/><path class="cls-7" d="M2327.51,366.52c-2.41,2.65.36,7.08,1.42,4.94C2329.36,370.58,2330.21,364.34,2327.51,366.52Z" transform="translate(-2293.82 -192.76)"/><path class="cls-7" d="M2324.07,367.32a2.44,2.44,0,0,0-.67,2.81C2324.08,371.9,2326.36,366.39,2324.07,367.32Z" transform="translate(-2293.82 -192.76)"/><g class="cls-6"><path class="cls-9" d="M2330,365.27c-8.22,1.19-1.88-8.1-.15-5.07-0.05-1.8-2.79-11.09-7.23-7.48-1.24,1,1.52,6.5,1.59,7.84,0.13,2.53-2.4,6.91-2.27,7.61,1.36,7.85,9.43,6,8.08-2.9C2329.32,365.37,2330.28,367.33,2330,365.27Z" transform="translate(-2293.82 -192.76)"/></g><path class="cls-8" d="M2348.51,351.74c-0.66.3-.41,6.5-0.58,7.28-1.06,4.83-2.68,4.35-4.33,7-3.06,5-.27,13,7,9.35s8.48-33.87,5.68-40c-2.63,5-1.77,13.6-7.72,16.34h0Z" transform="translate(-2293.82 -192.76)"/><path class="cls-3" d="M2347.51,351.4c-1.43,2.12-.39,5.32-0.79,7.72-0.73,4.36-5.21,6.28-5.54,10.89-0.47,6.54,6.32,9.3,11.14,5.23s5.45-13.3,6-19c0.64-6.45,1.62-15-.92-21.16-0.37-.91-2-0.58-2.33.19-2.34,5-1.72,12.77-7.1,15.78-1.43.8-.16,1.94,1,1.37l2.46-1.13-1-1.37-2.46,1.13c-1.48.68-.16,1.93,1,1.37l2.46-1.13c1.48-.69.16-1.93-1-1.37l-2.46,1.13,1,1.37c6.39-3.58,5.58-11,8.33-16.9l-2.33.19c1.8,4.4,1.46,9.94,1.3,14.58-0.22,6.22-.79,12.78-2.83,18.7-0.59,1.72-1.53,4.72-3.3,5.61-2.06,1-5,.58-6-1.47a5.8,5.8,0,0,1-.58-2.47,7.9,7.9,0,0,1,1.88-5.48c1.68-2.08,3.15-3.47,3.62-6.26,0.31-1.83-.7-5.27.37-6.85C2350.35,350.83,2348.12,350.51,2347.51,351.4Z" transform="translate(-2293.82 -192.76)"/><g class="cls-6"><path class="cls-9" d="M2356.23,335.4c-2,3.79-1.85,8.33-3.81,12.1-2.08,4-3.89,3.43-4.2,8.07,4.22-7.28,5.6,3.5,4.47,6.38-1.57,4-2.6,2.6-3.5,3.13-1.28.74-4.45-1-6.53,1.48-3.44,4.15-1.27,7.64,3.05,8.77,11.34,3,13.93-32.46,10.52-39.94C2353.48,340.63,2358.54,340.45,2356.23,335.4Z" transform="translate(-2293.82 -192.76)"/></g><path class="cls-3" d="M2345.94,365.44c2.44,2.9,3.44.7,6.15,1.46q-4.7,1.3-2.44.75C2349.1,366.1,2346.46,366.18,2345.94,365.44Z" transform="translate(-2293.82 -192.76)"/><path class="cls-3" d="M2346.46,366c-3.27,1.16-3.29,5.71-2.65,8.36C2343.45,372.93,2344.18,366.79,2346.46,366Z" transform="translate(-2293.82 -192.76)"/><path class="cls-3" d="M2349.19,367.69c-2,1.62-2.29,5-2.1,7.32C2347,374,2348.52,368.22,2349.19,367.69Z" transform="translate(-2293.82 -192.76)"/><path class="cls-10" d="M2342.18,367.36c2.36-.39,2.36,4.34.09,5.49S2342.32,367.18,2342.18,367.36Z" transform="translate(-2293.82 -192.76)"/><path class="cls-10" d="M2345,367.72a1.4,1.4,0,0,1,1.78-1c1.59,0.59-.44,6.48-1.21,6.78C2342.72,374.69,2344.87,367.87,2345,367.72Z" transform="translate(-2293.82 -192.76)"/><path class="cls-2" d="M2308.93,263.25c5.71-4.6,12-6.78,17.59-11.89,10.45-9.55,15.7-2.71,25.34,4.41,8.7,6.43,14.15,6.63,18.61,17.6,4.31,10.61,5,20.92,4.19,32.19-0.5,7.24-20.21,108.58-14.72,109.07,7.66,0.69,8.41,1,12.64,8,4.69,7.83,4.79,13.54-5.58,15.26-3,.49-7.23.23-10.69,0.64-4.93.6-8.13-1.25-12.71-.94-7.74.52-12.55,5.37-13.49-7.32-0.37-4.91.75-11.5,3.74-15.57,1.75-2.38,5.8-3.42,7-5,3.36-4.36,4.94-16.48,7-22.55,5.36-15.4,9.54-33.4,7.73-49.92-2,9.18-6.23,19.24-16.42,21.4a10.7,10.7,0,0,0,3.37-4.6c-3.65,5.56-11.9,6.67-15.89.45a10.43,10.43,0,0,0,2.66,3.52c-4.06,1.79-9.75-5.17-11.89-7.22,2.49,10.13,4,20.34,7.43,30.38,2.76,8.19,16.51,27.07,5.54,32.94-4.25,2.27-13.64-.07-17.58-0.55-4.12-.5-9.43.5-7.8-6.84,1.78-8,11.18-3.79,12.26-9.79,0.58-3.25-3.27-10.62-4.05-13.88-1.69-7.06-3.67-13.93-5.22-20.86-2.68-12-5.09-23.15-8.93-35C2291.41,303.49,2293.8,283.82,2308.93,263.25Z" transform="translate(-2293.82 -192.76)"/><path class="cls-3" d="M2309.86,263.34c3.66-2.81,7.7-5,11.58-7.42,5-3.14,10.63-10.27,17.08-8.1,3.87,1.3,7.14,4.51,10.31,6.94s6.32,4.38,9.61,6.43c14.53,9,16.63,29.52,15,45.2-1.78,16.84-5.75,33.63-8.53,50.32-1.86,11.17-3.67,22.35-5.18,33.57-0.94,7-2.31,14.42-1.9,21.51,0.07,1.26,0,2.51,1.06,3.32,1.62,1.28,5.48.31,7.56,1.57,2.88,1.74,4.78,5.65,6.22,8.57,1.16,2.35,2.57,5.66,1.34,8.27-2.49,5.29-12.21,4.26-17.19,4.49-4.31.2-8.42-1.17-12.71-.94-2.47.13-4.82,1-7.27,1.23-9.1.72-5.46-18.18-2.57-22.59,2.15-3.28,6.17-3.74,8.27-6.88s2.79-7.1,3.64-10.57c5-20.43,12.71-39.8,10.63-61.28-0.06-.6-2.26,0-2.37.51-2,8.74-5.75,18.34-15.35,20.77l1.21,0.38a13.55,13.55,0,0,0,3.47-4.74c0.27-.58-2-0.13-2.27.25-3.9,5.25-10.18,4.73-13.68,0-0.35-.47-2.56.29-2.31,0.74a15,15,0,0,0,2.74,3.63l1-.86c-3.86,1.1-8.29-4.85-10.66-7.21-0.37-.37-2.46.1-2.31,0.74,2.42,10.08,3.86,20.6,7.43,30.38,2,5.61,5.31,10.7,7.51,16.26,2.85,7.2,4.32,17.32-6.9,16.76-3.46-.18-6.83-1-10.26-1.42-2.71-.34-7,0.27-8-3-2.57-8.8,7.56-7,11.26-11s-1.39-11.42-2.65-15.49c-3-9.81-5.06-20.06-7.33-30.07-2.36-10.39-5.43-20.47-8.28-30.72-6-21.46-2-41.62,11-59.62,0.51-.7-1.81-0.4-2.18.11-12,16.57-16.86,35.19-12.39,55.32,2.59,11.65,6.62,23,9.29,34.62,2.49,10.89,4.36,22.49,8.25,33,1.13,3,3.42,6.92,3.17,10.25-0.33,4.42-5.78,3.9-8.74,5.67-3.8,2.27-6.08,9.49-.86,11.37,2.54,0.92,5.78.65,8.46,1.09,3.87,0.64,7.89,1.42,11.82,1,4.62-.55,8.45-3.23,8.92-8.13,0.73-7.65-4.61-15.52-7.78-22.11-5.19-10.81-6.56-23.24-9.34-34.8l-2.31.74c3.52,3.51,7.56,8.82,13.13,7.23,0.18-.05,1.41-0.46,1-0.86a10.09,10.09,0,0,1-2.59-3.42l-2.31.74c4.72,6.43,13.63,5.08,18.09-.93l-2.27.25a13.37,13.37,0,0,1-3.28,4.47c-0.62.56,1,.42,1.21,0.38,10.61-2.69,15.21-12,17.48-22l-2.37.51c2.12,21.88-5.66,42.28-11.12,63.07-1.23,4.67-2.2,8.38-6.45,11-2.85,1.78-4.53,3.13-5.92,6.33-2,4.61-4.56,17.38.89,20.82a6.16,6.16,0,0,0,3.9.54c4.2-.36,7.47-1.51,11.86-0.94,7.39,1,16.71,1.58,23.84-1.26,11.3-4.5,1.94-21.31-7.05-22.71-4.06-.63-4.15-0.54-4.18-4.54a100.14,100.14,0,0,1,.89-11.92c1.34-11.91,3.24-23.76,5.18-35.59,2-12.29,4.15-24.56,6.29-36.83,1.16-6.65,2.65-13.36,3.31-20.08,1.05-10.84,0-22.35-4.16-32.47-3.82-9.18-11.09-12.16-18.68-17.7-5.53-4-11.43-10.63-19-8.91-4.5,1-7.48,4.32-11,7-4.75,3.6-10.23,6.08-15,9.72C2307,263.93,2309.38,263.7,2309.86,263.34Z" transform="translate(-2293.82 -192.76)"/><path class="cls-11" d="M2369.63,273.46c-0.18,5.45-4.14,8.62-5.59,13.61-1.51,5.18.28,10.58-.6,15.74-1.58,9.28-10.65,13.6-15.35,21.42-5.85,9.72-12.49,12.52-24.77,10.44-6.12-1-7.6-2.77-9.8-8.27-2.58-6.45-3.55-8.54-7.79-13.93-11.85-15.08,12.83-21.63,24.22-26.82,7-3.17,14-6.15,21.15-8.78C2354.49,275.62,2369.63,267.84,2369.63,273.46Z" transform="translate(-2293.82 -192.76)"/><path class="cls-2" d="M2305.74,280.86c-10.17,3-10.1-19.48-5.12-23.27,5.77-4.39,15.38,6.28,13.81,13,7.36-6.54,25.88-4.11,33.19.46,1.63-5.75,10.46-11.75,16.36-10.89,6.62,1,6.52,8.73,4.15,14.76-1.46,3.71-5.63,4.86-6.93,7.41s-0.2,7.89-.09,10.57c0.51,12.26-2.85,14.19-10.43,23.36-5.86,7.1-4.26,14.46-14.28,16.19-7.34,1.27-18.13,1.9-22.38-5.2-2.28-3.8-.28-8.12-3.05-12-3-4.22-7.18-4.62-9-10.26C2299.49,297,2304.55,288.74,2305.74,280.86Z" transform="translate(-2293.82 -192.76)"/><path class="cls-3" d="M2305.56,280.2c-7.69,1.82-7.4-12.42-6.56-16.67,0.8-4,3-7.92,7.77-5.06,4,2.37,7.19,7.53,6.46,12.23-0.17,1.08,1.81.39,2.16,0.11,7.85-6.35,23.13-3.94,31.28.83a1.68,1.68,0,0,0,2.14-.74c1.64-4.6,6.18-8.32,10.82-9.66,6.06-1.75,9.11,2.53,8.71,7.89a13.13,13.13,0,0,1-5,9.85c-1.6,1.29-3.13,2.38-3.75,4.43-0.72,2.37-.14,5.29.09,7.68a31.09,31.09,0,0,1-.52,11.05c-1.68,6.15-7,10.15-10.51,15.16-4.8,6.74-4.63,13.4-14.45,14.76-7.31,1-18,.84-20.09-8.09-0.89-3.83-.19-7.06-2.95-10.26-1.82-2.12-4.45-3.37-6.2-5.57-6.21-7.82.41-19.07,1.92-27.41,0.18-1-2.23-.62-2.39.27-1.48,8.15-7,17.46-3.19,25.73,1.18,2.58,3.28,4.08,5.39,5.86a12.18,12.18,0,0,1,3.74,4.55c1.11,2.48.73,4.89,1.3,7.47,2.51,11.4,21.1,11.29,29.33,7,5.52-2.88,6.45-9.48,9.83-14.2,3.56-5,8.72-9,10.52-15a27.1,27.1,0,0,0,.89-8.2c-0.07-4.22-2-9.65,1.05-13.16,2-2.25,4.52-3.17,5.85-6.06a17.6,17.6,0,0,0,1.53-8c-0.82-15.17-21.33-4.3-24.35,4.22l2.14-.74c-9.47-5.54-26.06-7.39-35.1-.09l2.16,0.11c1.42-9.14-13.44-21.58-18.14-9.78-2.62,6.59-2.43,23.45,8.42,20.87C2307.37,281.18,2307,279.86,2305.56,280.2Z" transform="translate(-2293.82 -192.76)"/><path class="cls-12" d="M2349.28,310.63a11.4,11.4,0,0,0-4.1-8.66c16.3,16.28-41.21,14.81-28.26.82-3.32,2.58-3,6.85-8.22,6.64-4.65-.18-6.26-4.38-7.19-8.37,0.33,5.77,3.09,7.9,6.52,11.8,4.1,4.68,3,5.41,5.19,10.67,3.42,8.27,7,8.78,16,8.76,8,0,11.66.09,15.86-6.19,3-4.43,4.16-8.37,8-12.45,3.32-3.52,6.69-5.82,7.81-10.85-0.62,1.55-11.83,14.41-11.65,7.83C2349.37,307.41,2349.12,316.32,2349.28,310.63Z" transform="translate(-2293.82 -192.76)"/><path class="cls-13" d="M2316.47,319.33c-0.7,8.07,8.37,3.57,12.84,3.4,3.5-.14,18.24,5.32,15.55-3.31-0.83,5.14-8.23,5.87-11.89,1.93-5.87-6.33,3.71-4.34,3.82-10.05-2.81,1.22-10.87,3.26-12.69-.37,1.38-.47,6.59,7.07,1.85,10.35C2321.74,324.19,2316.3,321.58,2316.47,319.33Z" transform="translate(-2293.82 -192.76)"/><path class="cls-14" d="M2316.85,302.7l0.13-.11A0.23,0.23,0,0,0,2316.85,302.7Z" transform="translate(-2293.82 -192.76)"/><path class="cls-15" d="M2312.48,292c1.9,4.25,7,4,10.17,6C2328.14,290.27,2315.51,294.86,2312.48,292Z" transform="translate(-2293.82 -192.76)"/><path class="cls-15" d="M2353.18,291.63c-3.19,4.94-7.92,4.23-11.93,7.23C2335.32,291.37,2350.14,294.52,2353.18,291.63Z" transform="translate(-2293.82 -192.76)"/><path class="cls-4" d="M2339.52,289.57c-4.74,9.28,9.67,11.29,9.67,19.59C2349.18,300.89,2337.18,297.39,2339.52,289.57Z" transform="translate(-2293.82 -192.76)"/><path class="cls-4" d="M2323.75,289.71c4.75,9.28-9.67,11.29-9.67,19.59C2314.08,301,2326.1,297.53,2323.75,289.71Z" transform="translate(-2293.82 -192.76)"/><path class="cls-3" d="M2305.78,277.59l-0.23,3.73C2305.56,281.25,2305.84,277.07,2305.78,277.59Z" transform="translate(-2293.82 -192.76)"/><path class="cls-3" d="M2358.33,281.75a3.3,3.3,0,0,0,3.18.6C2361.67,282.32,2358.31,281.73,2358.33,281.75Z" transform="translate(-2293.82 -192.76)"/><path class="cls-3" d="M2298.74,299.6c-3,6.32-2.54,17.49-.8,23.86C2296.6,318.44,2296.64,304.2,2298.74,299.6Z" transform="translate(-2293.82 -192.76)"/><path class="cls-3" d="M2307.17,315.33c3.21,12.54-6.34,29,10.49,35.38C2301.46,345,2309.81,325.6,2307.17,315.33Z" transform="translate(-2293.82 -192.76)"/><path class="cls-3" d="M2318.26,344.28a8.7,8.7,0,0,0,.64,7.65C2318.66,351.5,2318.22,344.38,2318.26,344.28Z" transform="translate(-2293.82 -192.76)"/><path class="cls-3" d="M2310.82,337.36a10.6,10.6,0,0,0-.08,8.09C2310.52,345,2310.77,337.48,2310.82,337.36Z" transform="translate(-2293.82 -192.76)"/><path class="cls-3" d="M2309.13,329.14c-1.36,2.65-3,6.63-1.79,9.66C2306.8,337.41,2308.58,330.22,2309.13,329.14Z" transform="translate(-2293.82 -192.76)"/><path class="cls-3" d="M2308,322.7a16.78,16.78,0,0,0-1.87,7.35C2306.12,330.45,2308.48,321.63,2308,322.7Z" transform="translate(-2293.82 -192.76)"/><g class="cls-16"><path class="cls-17" d="M2350.82,344.24s-0.54,7.41-3.55,10.12Z" transform="translate(-2293.82 -192.76)"/></g><path class="cls-3" d="M2348.34,348.89c-1,3.13-2.89,6.62-5.71,8.51C2346.1,355,2347.43,351.54,2348.34,348.89Z" transform="translate(-2293.82 -192.76)"/><path class="cls-3" d="M2356.24,325.33c-1.82,2.55-1,9.24-.89,12C2355.23,335.77,2355.6,326.27,2356.24,325.33Z" transform="translate(-2293.82 -192.76)"/><path class="cls-3" d="M2353.13,328.49c-0.48,3.89,1.17,6.78,2.82,9.27C2354.46,335.69,2352.91,330,2353.13,328.49Z" transform="translate(-2293.82 -192.76)"/><path class="cls-3" d="M2310.38,369.36a3.16,3.16,0,0,0,3.21.58C2313.66,369.93,2310.39,369.38,2310.38,369.36Z" transform="translate(-2293.82 -192.76)"/><path class="cls-3" d="M2352.6,371.37a9.86,9.86,0,0,0,1.17,5.84C2354.16,377.82,2352.66,370.53,2352.6,371.37Z" transform="translate(-2293.82 -192.76)"/><path class="cls-3" d="M2324.5,414.3c-5.55-1.65-4.44-14.6.69-16.21,7-2.18,10.78,7.68,8.51,12.84,2.4-5.89-2.57-18.34-10.6-11.59C2319.16,402.64,2319.48,412.71,2324.5,414.3Z" transform="translate(-2293.82 -192.76)"/><path class="cls-3" d="M2322,401c-5.8-6.69-12.69,8.27-8,12.19C2310.27,410.18,2316.74,394.77,2322,401Z" transform="translate(-2293.82 -192.76)"/><path class="cls-3" d="M2309,402.56c-1.25,3.13-3.19,8-.8,11.13C2306.89,412.13,2308.34,404,2309,402.56Z" transform="translate(-2293.82 -192.76)"/><path class="cls-3" d="M2341.26,409.89a7.79,7.79,0,0,1,4.33,3.86,10.78,10.78,0,0,0,4.81-1.69c0.65,0.13,9.4,2.85,9.73,2.3,1.59-3-15.53-.6-14-0.75C2345.45,411,2342.9,410.69,2341.26,409.89Z" transform="translate(-2293.82 -192.76)"/><path class="cls-3" d="M2345.59,413.75c1.44,8.38-7.72,17.16.82,23.63C2338.85,431.69,2346.54,419.71,2345.59,413.75Z" transform="translate(-2293.82 -192.76)"/><path class="cls-3" d="M2359.49,414.9c4.23,3.14,1.86,20-1.82,22.8C2362.29,434.23,2364.28,418.59,2359.49,414.9Z" transform="translate(-2293.82 -192.76)"/><path class="cls-3" d="M2371.32,422.2c-1,5.37,0,11.73-5.85,14.88C2372.1,433.55,2370.3,427.47,2371.32,422.2Z" transform="translate(-2293.82 -192.76)"/><path class="cls-4" d="M2321.71,277c-2.19-1.91.25-4.41,3.1-3.46C2326.79,274.18,2324.35,277.63,2321.71,277Z" transform="translate(-2293.82 -192.76)"/><path class="cls-4" d="M2326.95,279.6c0.73-.05,2.34,1.9,3.07,0C2330.58,278.12,2325.85,278.59,2326.95,279.6Z" transform="translate(-2293.82 -192.76)"/><path class="cls-4" d="M2334.4,279c0.55,2.84,2.9-.36,2.57-0.3,0.82-.13-3.16-2.73-2.57.3h0Z" transform="translate(-2293.82 -192.76)"/><path class="cls-4" d="M2333.78,272.46c1,0.74,2.43,2.2,3.82,1.91C2343.52,273.14,2331.09,269,2333.78,272.46Z" transform="translate(-2293.82 -192.76)"/><path class="cls-4" d="M2342.65,270.93c0.29,0.1,3.35-1.08,2.22,2C2344.68,273.43,2341.8,272.29,2342.65,270.93Z" transform="translate(-2293.82 -192.76)"/><path class="cls-4" d="M2346.91,274c0,0.42-.77,4.21.73,3.73C2350,277,2348.34,271.49,2346.91,274Z" transform="translate(-2293.82 -192.76)"/><path class="cls-4" d="M2337.15,283.48c0.24,0,2.23-1.19,2.35-.63C2339.91,284.71,2336.89,283.8,2337.15,283.48Z" transform="translate(-2293.82 -192.76)"/><path class="cls-4" d="M2331.38,286.64c0.82,0.33,1.82-.86,2.52.62C2334.48,288.49,2330.36,287.67,2331.38,286.64Z" transform="translate(-2293.82 -192.76)"/><path class="cls-4" d="M2311,278.87a2.37,2.37,0,0,0,2.13-2.12c-0.7-.81-4.07,1.47-2.13,2.12h0Z" transform="translate(-2293.82 -192.76)"/><path class="cls-4" d="M2314.79,274.72c0,0.12,1.92-2,1.06-2C2314.71,272.56,2313.64,273.94,2314.79,274.72Z" transform="translate(-2293.82 -192.76)"/><path class="cls-4" d="M2318.34,270.66c0.56,0.54,3.23.15,3.63-.47,1.21-1.91-5.57-1.37-3.63.47h0Z" transform="translate(-2293.82 -192.76)"/><path class="cls-4" d="M2327.12,269.85c0.56,0.28,3.42.48,3.42-.76s-4.41.25-3.42,0.76h0Z" transform="translate(-2293.82 -192.76)"/><path class="cls-4" d="M2305.83,285.55c0.25,1.46,2,2.37-.7,4.66C2304.75,290.54,2304.28,285.08,2305.83,285.55Z" transform="translate(-2293.82 -192.76)"/><path class="cls-4" d="M2309.82,281.77s-0.54,1.36.35,1.36S2310.35,281.49,2309.82,281.77Z" transform="translate(-2293.82 -192.76)"/><path class="cls-4" d="M2303.08,299.19c5.17-7.6,0,6.73,0,0h0Z" transform="translate(-2293.82 -192.76)"/><path class="cls-4" d="M2310.09,300.28s-0.89,1.44-.27,1.89S2311.24,299.55,2310.09,300.28Z" transform="translate(-2293.82 -192.76)"/><path class="cls-4" d="M2308.4,292.33c-0.42.14-.26,1.62,0.53,1.72S2309.2,292.06,2308.4,292.33Z" transform="translate(-2293.82 -192.76)"/><path class="cls-4" d="M2360.67,291a1.73,1.73,0,0,0-1.69-1.8c-2.49.78,1.71,5.84,2.07,4.72A6.27,6.27,0,0,0,2360.67,291Z" transform="translate(-2293.82 -192.76)"/><path class="cls-4" d="M2355.26,299.28a1.42,1.42,0,0,1,1.51-1.36c2.55,2.6-2.22,3-1.51,1.36C2355.37,299,2354.9,300.09,2355.26,299.28Z" transform="translate(-2293.82 -192.76)"/><path class="cls-4" d="M2361.37,299.55h0Z" transform="translate(-2293.82 -192.76)"/><path class="cls-4" d="M2360.49,284.47a1.65,1.65,0,0,1-.7,1.86C2358.42,286.27,2359.94,283.91,2360.49,284.47Z" transform="translate(-2293.82 -192.76)"/><path class="cls-4" d="M2354.54,279.87a0.69,0.69,0,0,1-.62,1.08C2352.77,281.13,2353.57,279.69,2354.54,279.87Z" transform="translate(-2293.82 -192.76)"/><path class="cls-4" d="M2302.37,302.8c0-.46,1.87.18,1.33,0.9S2302.37,303.7,2302.37,302.8Z" transform="translate(-2293.82 -192.76)"/><path class="cls-3" d="M2309.05,311.12c2.48,1.68,3.15,5.75,3.5,8.42C2312.11,316.35,2312.07,313.17,2309.05,311.12Z" transform="translate(-2293.82 -192.76)"/><path class="cls-4" d="M2356.14,316.53c-0.25,1,1.45,2.29-.54,3C2354.09,320,2355.24,315.49,2356.14,316.53Z" transform="translate(-2293.82 -192.76)"/><path class="cls-4" d="M2365.46,305.42c0.93,0.93-.48,4.94-0.49,4.92-0.54-.68-0.5-5.93.49-4.92h0Z" transform="translate(-2293.82 -192.76)"/><path class="cls-3" d="M2368.84,295.11c2.22,5.11,5.33,11.5,5.23,17.21C2374.07,306.37,2371.13,300.48,2368.84,295.11Z" transform="translate(-2293.82 -192.76)"/><path class="cls-4" d="M2362.79,319.87c1.58,1.08,0,3.92.08,4-0.08-.11-0.83-4.48-0.08-4h0Z" transform="translate(-2293.82 -192.76)"/><path class="cls-4" d="M2366.43,318.42a4.17,4.17,0,0,0,.27,2.08C2367.15,321.76,2367.23,316.8,2366.43,318.42Z" transform="translate(-2293.82 -192.76)"/><path class="cls-4" d="M2372.29,322.48a2.19,2.19,0,0,0-1.15-2.52c-1.82.66-1.06,7.19-.47,7A5.83,5.83,0,0,0,2372.29,322.48Z" transform="translate(-2293.82 -192.76)"/><path class="cls-4" d="M2364.57,327.72a2.49,2.49,0,0,1,1.68-1.44c0.57,0.48,1.2,3.91-.48,3.42A1.77,1.77,0,0,1,2364.57,327.72Z" transform="translate(-2293.82 -192.76)"/><path class="cls-4" d="M2359.51,335.67c0-.09,1.39-5.22,2.29-3.21,0.76,1.7-2.42,5.38-2.29,3.21C2359.53,335.4,2359.42,337.11,2359.51,335.67Z" transform="translate(-2293.82 -192.76)"/><path class="cls-4" d="M2356.23,346.95a3.12,3.12,0,0,1,1.15-3.16c2.77-.19.82,5.31-0.52,5.27l-0.63-2.11C2356.24,346.67,2356.14,349.84,2356.23,346.95Z" transform="translate(-2293.82 -192.76)"/><path class="cls-4" d="M2349,327.09c-0.06.51-.55,3.15,0.8,2.89,3.15-.61-0.46-5.66-0.8-2.89C2348.92,327.36,2349.13,325.65,2349,327.09Z" transform="translate(-2293.82 -192.76)"/><path class="cls-4" d="M2366.52,290.43a2,2,0,0,0,1.24,2.35c3.39,0.61-1.76-5.53-1.24-2.35h0Z" transform="translate(-2293.82 -192.76)"/><path class="cls-4" d="M2368.83,280.68c0,2-1.49,4.37,1.2,6C2371.77,287.77,2368.83,279.75,2368.83,280.68Z" transform="translate(-2293.82 -192.76)"/><path class="cls-4" d="M2372.73,290.34s-0.71,1.54.09,1.81S2373.09,289.35,2372.73,290.34Z" transform="translate(-2293.82 -192.76)"/><path class="cls-4" d="M2373,297.57a3,3,0,0,1,1.24-1.81C2376.66,295.45,2371.88,301.25,2373,297.57Z" transform="translate(-2293.82 -192.76)"/><path class="cls-4" d="M2372.38,304.7c1-1.82-3.57,2.71-.09,2.35A2.24,2.24,0,0,0,2372.38,304.7Z" transform="translate(-2293.82 -192.76)"/><path class="cls-4" d="M2371.58,308.4c0.07-.37,1.15,0,1.24,1.26S2371.31,309.84,2371.58,308.4Z" transform="translate(-2293.82 -192.76)"/><path class="cls-4" d="M2299.08,310.84a2.21,2.21,0,0,1,.53-2.43c1.6-1.36,2.62,5.26.79,4.34l-1.32-1.91h0Z" transform="translate(-2293.82 -192.76)"/><path class="cls-4" d="M2298.11,317.16c-0.44-.73,3.66,1,1.06,2.71Q2297.22,319.27,2298.11,317.16Z" transform="translate(-2293.82 -192.76)"/><path class="cls-4" d="M2313.81,352.82c0.09,0.54-.35,4.29,1.59,3.87C2317.5,356.24,2313.81,351.27,2313.81,352.82Z" transform="translate(-2293.82 -192.76)"/><path class="cls-4" d="M2316.92,360.31c-0.19.21-.71,1.17,0.62,2.35S2317.8,359.32,2316.92,360.31Z" transform="translate(-2293.82 -192.76)"/><path class="cls-4" d="M2309,361.85a2.27,2.27,0,0,1,2.26,1.52C2310.84,367.36,2306.59,361.85,2309,361.85Z" transform="translate(-2293.82 -192.76)"/><path class="cls-4" d="M2314.35,372.05c0.14,1.29-1.31,2.82,1.35,3.61C2318.21,376.41,2316.09,369.47,2314.35,372.05Z" transform="translate(-2293.82 -192.76)"/><path class="cls-4" d="M2320.29,375.76a1.36,1.36,0,0,0,.62,1.54C2321.8,377.65,2321,374.4,2320.29,375.76Z" transform="translate(-2293.82 -192.76)"/><path class="cls-4" d="M2315.41,383.25c0.29,0.84.39,3.2,1.57,3.41C2320.24,387.21,2315.41,380.24,2315.41,383.25Z" transform="translate(-2293.82 -192.76)"/><path class="cls-4" d="M2325.35,388.94s-1.06,1-.18,1.53S2326.68,387.68,2325.35,388.94Z" transform="translate(-2293.82 -192.76)"/><path class="cls-4" d="M2347.44,389c0.74-2,2.7,3.46-.36,4a3.42,3.42,0,0,1,.36-4h0Z" transform="translate(-2293.82 -192.76)"/><path class="cls-4" d="M2353.65,388.58c0.15-.47.18-3.34,1.42-2.89C2359.25,387.22,2353.32,392.17,2353.65,388.58Z" transform="translate(-2293.82 -192.76)"/><path class="cls-4" d="M2350.28,399.87a4.86,4.86,0,0,0,.09,3.88C2353.92,406.76,2351.33,396,2350.28,399.87Z" transform="translate(-2293.82 -192.76)"/><path class="cls-4" d="M2355.26,402.48c-0.14,0,3.21-1.94,1.33,1.26Q2354.93,404.57,2355.26,402.48Z" transform="translate(-2293.82 -192.76)"/><path class="cls-4" d="M2352.95,394.54c-0.26.11-1.07,1.45-.36,2S2354,394.09,2352.95,394.54Z" transform="translate(-2293.82 -192.76)"/><path class="cls-4" d="M2359.78,381.35a1,1,0,0,0-1.15,1.27C2358.71,384.06,2360,383.16,2359.78,381.35Z" transform="translate(-2293.82 -192.76)"/><path class="cls-4" d="M2353.74,378.28c0.14,0.93-2,1.72,0,2.8C2355.91,382.28,2354.34,377.3,2353.74,378.28Z" transform="translate(-2293.82 -192.76)"/><path class="cls-4" d="M2355.52,360.59c0.7,1.29,3.88,2-.36,4C2353.92,365.14,2355.12,360.86,2355.52,360.59Z" transform="translate(-2293.82 -192.76)"/><path class="cls-4" d="M2364.39,349.94c1.2,0.1,3.42,1.21.58,3.78C2363.15,355.35,2364.48,349.81,2364.39,349.94Z" transform="translate(-2293.82 -192.76)"/><path class="cls-4" d="M2364.22,344.07c0-.18,2.19,4-0.27,3.07A2.26,2.26,0,0,1,2364.22,344.07Z" transform="translate(-2293.82 -192.76)"/><path class="cls-4" d="M2366.7,340.27c0.49-.81,2.22-0.88,1.35-3C2367.53,336,2364.48,340.46,2366.7,340.27Z" transform="translate(-2293.82 -192.76)"/><path class="cls-4" d="M2364.3,335.76c-0.37-.14,4.46-1.17.89,1.36Q2363.46,337.47,2364.3,335.76Z" transform="translate(-2293.82 -192.76)"/><path class="cls-4" d="M2357.12,327.09c1.81,0.21,1.21,3.12-.14,3.12,0,0-.68-3.21.14-3.12h0Z" transform="translate(-2293.82 -192.76)"/><path class="cls-4" d="M2295.45,293.5a2.35,2.35,0,0,1,.8-2c1.34-.31,1.68,3,1.06,3.58Q2295.55,295.81,2295.45,293.5Z" transform="translate(-2293.82 -192.76)"/><path class="cls-4" d="M2295.18,301.18c-0.71-1.49,2.92,4.33.27,2.53A1.6,1.6,0,0,1,2295.18,301.18Z" transform="translate(-2293.82 -192.76)"/><path class="cls-4" d="M2299,285.83s-1,.9,0,1.53S2299.88,285.1,2299,285.83Z" transform="translate(-2293.82 -192.76)"/><path class="cls-4" d="M2301.39,281.67a1.53,1.53,0,0,0,1,1.63C2304.37,282.4,2301.34,281.28,2301.39,281.67Z" transform="translate(-2293.82 -192.76)"/><path class="cls-4" d="M2315.5,263.7c0.12,0,.9-3.79,2.51-0.93C2318.77,264.12,2315.5,265.15,2315.5,263.7Z" transform="translate(-2293.82 -192.76)"/><path class="cls-4" d="M2326.32,261.36c-0.08,0,3.5-1.7,2.78.33C2328.22,264.13,2325.75,261.81,2326.32,261.36Z" transform="translate(-2293.82 -192.76)"/><path class="cls-4" d="M2322.42,257.48c2.65,1.62,2.61-2.19,2.84-2.35,0.08-.05-4.26,1.48-2.84,2.35h0Z" transform="translate(-2293.82 -192.76)"/><path class="cls-3" d="M2318.74,260.36c4.37-1,8.8-9.74,12.46-12.52C2329.13,249.39,2321.56,259.74,2318.74,260.36Z" transform="translate(-2293.82 -192.76)"/><path class="cls-3" d="M2344.37,249.45c3.54,2.86,5.68,7.49,9.13,9.61C2349.94,256.85,2347.46,251.8,2344.37,249.45Z" transform="translate(-2293.82 -192.76)"/><path class="cls-4" d="M2336.17,261.72c4.69,0.76,2.64-4.9,1.11-4.33-0.65.24-2.95,4-1.11,4.33h0Z" transform="translate(-2293.82 -192.76)"/><path class="cls-4" d="M2340.7,251.25c-0.34,1.16,0,4.26,2.76,3.14,1.28-.52-2.49-4.05-2.76-3.14h0Z" transform="translate(-2293.82 -192.76)"/><path class="cls-4" d="M2337.24,250c0.42,0.11.78-1.75,1.62,0C2339.38,251,2336.2,251.47,2337.24,250Z" transform="translate(-2293.82 -192.76)"/><path class="cls-4" d="M2333.33,254.13s3,0.09.27,1.45Q2332.58,255.13,2333.33,254.13Z" transform="translate(-2293.82 -192.76)"/><path class="cls-4" d="M2330.05,250.43c0.75,1.8-.61.93,0,0h0Z" transform="translate(-2293.82 -192.76)"/><path class="cls-4" d="M2341.5,263q1.11-1.52,1.51.63-1.13.73-1.51-.62C2341.53,262.7,2341.41,263.89,2341.5,263Z" transform="translate(-2293.82 -192.76)"/><path class="cls-4" d="M2344.34,258.92c-0.06,0,2.28-2.48,1.42.54A0.9,0.9,0,0,1,2344.34,258.92Z" transform="translate(-2293.82 -192.76)"/><path class="cls-4" d="M2352.5,260.37c-1.32-.68.79-2.62,1.42-0.72a0.88,0.88,0,0,1-1.42.72h0Z" transform="translate(-2293.82 -192.76)"/><path class="cls-4" d="M2305.2,313.64c-0.3.12-.71,1.63,0.27,1.9S2306.09,313.27,2305.2,313.64Z" transform="translate(-2293.82 -192.76)"/><path class="cls-4" d="M2303.87,321c-0.17-.13.15,2.46,1.08,1C2305.62,320.92,2304,320.12,2303.87,321Z" transform="translate(-2293.82 -192.76)"/><path class="cls-4" d="M2309.91,324.83s-0.54,1.36.27,1.53S2310.53,323.75,2309.91,324.83Z" transform="translate(-2293.82 -192.76)"/><path class="cls-4" d="M2315,332.78s-0.62,1.62.53,1.9S2315.59,331.43,2315,332.78Z" transform="translate(-2293.82 -192.76)"/><path class="cls-4" d="M2299.79,328.17c2-1.28,4.94,1.76,2.57,4.16A4.92,4.92,0,0,1,2299.79,328.17Z" transform="translate(-2293.82 -192.76)"/><path class="cls-4" d="M2304.23,340.54c3,1.49,1.14,2.09,1.69,4.21C2305.53,343.26,2304.67,342,2304.23,340.54Z" transform="translate(-2293.82 -192.76)"/><path class="cls-4" d="M2350.11,354.27c-0.09-.15-1,4,1.15,2.17C2352.92,355,2350.48,353.65,2350.11,354.27Z" transform="translate(-2293.82 -192.76)"/><path class="cls-4" d="M2348.78,361.22c-0.07-.06-0.13,3.18,1.39,1.64C2351.48,361.52,2349.11,360.61,2348.78,361.22Z" transform="translate(-2293.82 -192.76)"/><path class="cls-4" d="M2324.81,359.41c-0.07-.06-0.13,3.18,1.39,1.64C2327.52,359.71,2325.16,358.8,2324.81,359.41Z" transform="translate(-2293.82 -192.76)"/><path class="cls-4" d="M2352.41,350.11c0.11,0,.15,2.13,1.14.47C2354.32,349.31,2352.67,349.26,2352.41,350.11Z" transform="translate(-2293.82 -192.76)"/><path class="cls-4" d="M2369.9,264.16c0.16-.28,3.15-3.1,3.37-1.23,0.28,2.34-3.88,2.1-3.37,1.23h0Z" transform="translate(-2293.82 -192.76)"/><path class="cls-4" d="M2374.33,266.33c0.82-.57,1.87-2.68,3.35-2C2378.85,264.86,2373.94,266.73,2374.33,266.33Z" transform="translate(-2293.82 -192.76)"/><path class="cls-4" d="M2381.16,255.85c0.29-.49,1.81-3.22,2.79-2.19,1.58,1.67-3.57,3.55-2.79,2.19h0Z" transform="translate(-2293.82 -192.76)"/><path class="cls-4" d="M2389.59,245.65s-1.24,1.71-.27,2.17S2391.19,244,2389.59,245.65Z" transform="translate(-2293.82 -192.76)"/><path class="cls-4" d="M2386.49,236.35c-1.66-.72,5.95.48,2.13,1.9A2,2,0,0,1,2386.49,236.35Z" transform="translate(-2293.82 -192.76)"/><path class="cls-18" d="M2312.13,289.26c3-7.31,10.87-8.91,12.18.75,1.17,8.55-10.24,7.7-12,1.15,1.38,5.2,4.86-1.07,2.22-5.42a9.92,9.92,0,0,0-2.4,3.52h0Z" transform="translate(-2293.82 -192.76)"/><path class="cls-19" d="M2312.57,290c0.89-7.16,8-8.54,10.52-1.42C2326.54,298.12,2314.4,296.93,2312.57,290Z" transform="translate(-2293.82 -192.76)"/><path class="cls-20" d="M2322.24,289.53c0,7-7,7-7,0S2322.24,282.57,2322.24,289.53Z" transform="translate(-2293.82 -192.76)"/><path class="cls-21" d="M2321.54,288.52a2.19,2.19,0,0,1-1.16,2.41c-1.63,0-1.63-4.84,0-4.84A2.2,2.2,0,0,1,2321.54,288.52Z" transform="translate(-2293.82 -192.76)"/><path class="cls-22" d="M2317.89,283.39c-6.53.42-6.15,8.86-1.59,11.29,11.15,5.93,8.36-11.72,1.59-11.29h0Zm1.25,11.29c-4.82-.19-9.22-6.46-3.53-9.83,6.55-3.88,9.53,10.06,3.53,9.83h0Z" transform="translate(-2293.82 -192.76)"/><path class="cls-23" d="M2353.3,289.26c-3.4-7.1-12.61-9.33-14.24.75-1.46,9,12,7.62,14,1.15-1.65,5.25-6-.7-2.59-5.42a10.18,10.18,0,0,1,2.8,3.52h0Z" transform="translate(-2293.82 -192.76)"/><path class="cls-24" d="M2352.78,290c-1.46-7.21-9.43-8.8-12.3-1.42C2336.59,298.57,2350.66,296.88,2352.78,290Z" transform="translate(-2293.82 -192.76)"/><path class="cls-25" d="M2342.18,289.53c0,6.92,8.2,6.92,8.2,0C2350.38,282.8,2342.18,282.16,2342.18,289.53Z" transform="translate(-2293.82 -192.76)"/><path class="cls-21" d="M2347.36,288.33a2.14,2.14,0,0,0,1.35,2.41c1.87,0,1.87-4.83,0-4.83A2.14,2.14,0,0,0,2347.36,288.33Z" transform="translate(-2293.82 -192.76)"/><path class="cls-26" d="M2339.4,293.77c0.71,4.12,15.29,1.42,12.63-6-3.56-10-12.63-.71-12.63,6C2339.71,295.58,2339.4,290.34,2339.4,293.77Zm3.42-7.4c3.41-6.37,11.57.62,8.3,5.71-4.26,6.64-12.21,1.59-8.3-5.71h0Z" transform="translate(-2293.82 -192.76)"/><path class="cls-4" d="M2320.73,300.09a26.5,26.5,0,0,1,23.51.72C2341.76,299,2331.12,293.86,2320.73,300.09Z" transform="translate(-2293.82 -192.76)"/><path class="cls-4" d="M2316.66,320.11c0.53,6.81,9.06,1.45,12.58,1.35,2.95-.08,17.29,6.56,15.62-1.12,1.33,6.71-10.42,1.49-12.41,1.27C2328.38,321.16,2317.1,325.8,2316.66,320.11Z" transform="translate(-2293.82 -192.76)"/><path class="cls-4" d="M2329.74,314.82c0.21,1.67.5,6-1.54,6.68C2331.52,320.36,2329.88,315.87,2329.74,314.82Z" transform="translate(-2293.82 -192.76)"/><path class="cls-4" d="M2329.91,316.68c-0.11,2.16.19,4,1.8,4.72C2331,321,2329.92,316.52,2329.91,316.68Z" transform="translate(-2293.82 -192.76)"/><path class="cls-4" d="M2323.27,319.62c-8.83,1.28-18.68,2.36-26.9,5.92C2304.62,322,2314.44,320.81,2323.27,319.62Z" transform="translate(-2293.82 -192.76)"/><path class="cls-4" d="M2297.69,319.41c1.18,0,23.87-2.24,23.87-1.29,0-.42-22.06,1.29-23.87,1.29h0Z" transform="translate(-2293.82 -192.76)"/><path class="cls-4" d="M2297.45,317.13c0.86,0,24.82-2.53,24.34-.07C2322.17,315.28,2298.73,317.13,2297.45,317.13Z" transform="translate(-2293.82 -192.76)"/><path class="cls-4" d="M2339.22,316.89c1.45,0,21.58-3.15,21-.91C2360.62,314.37,2341.12,316.89,2339.22,316.89Z" transform="translate(-2293.82 -192.76)"/><path class="cls-4" d="M2360.64,319.29c-2-.37-21.41-1.21-21.39-0.93C2339.25,316.95,2359.48,319.29,2360.64,319.29Z" transform="translate(-2293.82 -192.76)"/><path class="cls-4" d="M2358.39,324c-1.5,0-18.59-4.8-18.67-3.83C2339.84,318.6,2357.49,324,2358.39,324Z" transform="translate(-2293.82 -192.76)"/><path class="cls-3" d="M2319.11,339.91s-1.06,2.53,1.53,5.17A11.79,11.79,0,0,1,2319.11,339.91Z" transform="translate(-2293.82 -192.76)"/><path class="cls-3" d="M2334.49,343s1.42,1.92-.12,5.06S2335.44,346.41,2334.49,343Z" transform="translate(-2293.82 -192.76)"/><path class="cls-3" d="M2336,340.87c-0.74-.81,1.66,4.09.83,6.5S2339,344.12,2336,340.87Z" transform="translate(-2293.82 -192.76)"/><path class="cls-3" d="M2347.15,340.15a8,8,0,0,1-.95,5.89C2344.43,348.58,2348.1,344.48,2347.15,340.15Z" transform="translate(-2293.82 -192.76)"/><g class="cls-27"><path class="cls-28" d="M2306.27,276.53c-9.59.4-.7-10.94-2.12-14.93,3.34,1.83,9.52,5.22,8,10-1.58,0-.53-2.41-2.31,1.21a4.46,4.46,0,0,0-.53-2.11,3.54,3.54,0,0,0-2,4,2.62,2.62,0,0,1-.36-3.19C2306.49,273,2304,274.28,2306.27,276.53Z" transform="translate(-2293.82 -192.76)"/></g><g class="cls-27"><path class="cls-28" d="M2354.19,275.93c-4.84-5.85,6.79-12.44,11.66-11.5-3.53,1.1,2,17.9-5.86,14.87,0.5-.51.6-1.54,0.93-1.93-2.55,3-5.55-1-3.53-3.73a3,3,0,0,0-1.54,3.25q-2-1.7-.65-4.46C2355.19,273.49,2352.95,273.39,2354.19,275.93Z" transform="translate(-2293.82 -192.76)"/></g><path class="cls-3" d="M2306.73,275.83c-8,.09-0.25-10.43-1.39-14.55l-2.14.91c3.5,1.93,8.92,4.75,7.8,9.55l1.92-.81c-0.92-.13-0.82-1-2-0.74s-1.62,1.55-2.13,2.57l2.31-.28a6,6,0,0,0-.53-2.11c-0.3-.68-1.48-0.33-1.94-0.05a4.54,4.54,0,0,0-2.46,4.72l2.3-.79a2.46,2.46,0,0,1-.27-2.86c0.3-.85-2-0.5-2.31.11-1.06,2.21-2.59,3.2-.7,5.5,0.53,0.65,2.83-.2,2.21-0.94-1.54-1.87-.09-2.81.72-4.49l-2.31.11a3.26,3.26,0,0,0,.45,3.52c0.46,0.66,2.36,0,2.3-.79a3.05,3.05,0,0,1,1.56-3.34l-1.94-.05a6,6,0,0,1,.53,2.11c0.07,0.84,2.07.18,2.31-.28s0.47-1,.72-1.43,0.24-.53-0.49,0l-1.27-.15a2.39,2.39,0,0,0,1.5,1c0.59,0.08,1.75-.08,1.92-0.81,1.22-5.23-4.45-8.32-8.29-10.43-0.5-.28-2.37.06-2.14,0.91,1.39,5-7.43,15.41,2.86,15.3C2306.73,277.21,2308.33,275.82,2306.73,275.83Z" transform="translate(-2293.82 -192.76)"/><path class="cls-3" d="M2355.38,275.61c-3.94-5.29,4.49-11.42,9.49-10.71l0.29-.64c-2.41,1-1.86,4.83-1.84,6.92a27.7,27.7,0,0,1-.23,5.72,3.94,3.94,0,0,1-.69,1.93c-1.27,1.12-.65-1-0.3-1.67,0.27-.55-2,0-2.26.29-1,.94-1.74-0.94-1.85-1.49a3.52,3.52,0,0,1,.58-2.52c0.3-.51-1.89,0-2.09.16a3.8,3.8,0,0,0-1.81,3.62l2.31-.73c-1.28-1.37-1.25-2.56-.6-4.25l-2.35.41c-0.41,1.74-1.89,1.37-1,3.61,0.23,0.59,2.57-.15,2.38-0.64-0.79-2,.63-1.87,1-3.38,0.14-.57-2.14-0.14-2.35.41-0.71,1.84-.68,3.19.71,4.66,0.36,0.39,2.33-.14,2.31-0.73a2.76,2.76,0,0,1,1.26-2.88l-2.09.16c-1,1.72-.88,4.42,1.41,5,1.6,0.43,3.3-.53,4.38-1.59l-2.26.29c-0.32.66-.54,1.3-0.93,1.93-0.09.15,0.1,0.23,0.2,0.27,3.21,1.12,6-.36,6.5-3.7a35.65,35.65,0,0,0,.18-6c0-1.06-.44-4.88.84-5.43,0.17-.07.85-0.56,0.29-0.64-5.48-.79-19.05,5.26-13.83,12.29C2353.43,276.84,2355.58,275.88,2355.38,275.61Z" transform="translate(-2293.82 -192.76)"/><path class="cls-5" d="M2317.21,303.55c9.21-5.15,20.89-5.82,30.05-.12-4.85-6-10.82-3.11-10-12,0.74-8,4.7-8.86,10.38-12.16-0.26.15-5.28-1.41-6.29-.57a8.15,8.15,0,0,1,5.13-1c-0.33-.11-5.19-0.95-5.25-0.89,1-1.08,7.94,0,7.67-.55-1.64-3.1-6.69-1.76-9.24-2.89-0.32-.14,3.49-1.68,4.51-1.34-0.7-.24-7.13-1.25-7-1.38,0.29-.41,2.92-1.29,3.52-0.82-4.41-3.41-20.71-2-24.07,2.88,0.39-.56,4.59-2.13,5.46-2.13-1.65,0-4.69,2.69-6.35,3.47,2-.95,7.29-2.9,9.09-0.67-0.8-1-9.64,2.9-9.43,3.06,1.61,1.22,5-1.66,6.69-.56a28,28,0,0,1-3.56,1,2,2,0,0,1,.85.6c-0.53.38-3.56,0.82-3.78,1.48a12.68,12.68,0,0,0,2.87.4c0-.2-3.27,1.31-2.92,1.36,6.14,0.88,11,4.53,10.12,11.44C2325,297.59,2320.13,299.68,2317.21,303.55Z" transform="translate(-2293.82 -192.76)"/><path class="cls-29" d="M2323.6,311.14c0.66-4.65,13.16-5.91,14-1.3C2338.75,315.55,2325.27,315.46,2323.6,311.14Z" transform="translate(-2293.82 -192.76)"/><path class="cls-30" d="M2323.75,310.66c2-2.83,12.61-5.69,13.23-.45C2337.73,316.57,2324.66,316.38,2323.75,310.66Z" transform="translate(-2293.82 -192.76)"/><path class="cls-31" d="M2326.24,309.3c1.13-.59,10.26-2.88,9.4,1C2334.9,313.62,2327.12,311.94,2326.24,309.3Z" transform="translate(-2293.82 -192.76)"/><path class="cls-5" d="M2343.24,298.5c2.17-.28,6-0.9,7.66-2.45-1,.93,2.92-4.7,2.87-4.53-0.12.36-1,3.83-1.42,3.87a5.5,5.5,0,0,0,1.42-1.46c-1.68,2.56-3,4.38-7,5.12a11.46,11.46,0,0,0,2.84-1.51C2348.44,298.54,2344.39,299,2343.24,298.5Z" transform="translate(-2293.82 -192.76)"/><path class="cls-5" d="M2311.89,292.24c0.66,1.69,6.29,6.89,8.87,5.23-1.41.91-5.49-1.54-6.08-1a4.44,4.44,0,0,0,1.71,1.52c-0.45-.26-5.15-3.31-5.14-3.31q1,0.82,2.07,1.62c-1.12-.57-1.5-2.27-2.09-3C2313.09,295.58,2312.13,293.95,2311.89,292.24Z" transform="translate(-2293.82 -192.76)"/><path class="cls-32" d="M2330.23,273.21c-0.18-.33.35,19.27,0.35,22.87C2331.06,295.49,2331.06,274.78,2330.23,273.21Z" transform="translate(-2293.82 -192.76)"/><g class="cls-6"><path class="cls-7" d="M2367.85,260.45a18.61,18.61,0,0,0-15.47,4.26c-3.67,3.15-3,6.85-7.63,4.78,1.3,1.17,2.49,1.61,3,3.34-2.43-8.54,15.38-9.64,15.18-9.25-2.14,4.26-10.83,2.25-10.46,9.85,0.15,3.16,5.58,6.1,4.88,7.29-0.3.51-4.72-.4-4.33,0.09,5,6.2,9.64,15.35,6.4,24.18-2,5.44-6.86,7.76-10.2,12.22-2.58,3.44-3.3,8.43-7.58,10.17s-8-1.54-12-1.72c-5.41-.24-9.31,3.79-13.94-1.16-2.81-3-1.39-7.47-3.49-10.54-2.55-3.71-7.6-4-9.88-8.17,2.18,6.12,8.09,9,10.74,14.86,3.09,6.79.72,10.36,9.94,12,4.17,0.76,13.61,1,17.53-1,5.6-2.84,5.47-9,9.08-13.9,4.35-5.88,10.61-8.65,12-16.55,1-5.56-2.87-12.8-.43-18,2.65-5.62,13.67-13.87,6.74-22.78C2355.7,258.2,2369.54,262.62,2367.85,260.45Z" transform="translate(-2293.82 -192.76)"/></g><path class="cls-5" d="M2303,257.32c1,0.28,7.7,4.22,7,4.7q-1-.53-2-1.09c1.28,0.37,2.09,2.84,3.45,3.31,1.2,0.41.38-1.35,0.61-1.05,1.37,1.76.74,4,1.6,5.47q-0.4-1.3-.92-2.55c2.1,1.41-2.31-1-4.12-3S2306,257.92,2303,257.32Z" transform="translate(-2293.82 -192.76)"/><path class="cls-32" d="M2301,280.2c6.14-.17.59-2.66,0.14-5.78-0.75-5.27,1.72-9,2.35-14.09,1.27,0.91,10.66,11.11,11.35,10.13C2312.45,273.89,2305.12,282.75,2301,280.2Z" transform="translate(-2293.82 -192.76)"/><path class="cls-3" d="M2328.16,326.17q2.57,1.48,3.91-.14Q2328.38,323.93,2328.16,326.17Z" transform="translate(-2293.82 -192.76)"/><path class="cls-33" d="M2317.63,262.8c7-3.65,9.19-15.11,17.68-16.19,5-.63,7.88,2.74,10.95,6.28,0.4,0.46,7.51,8.47,7.52,8.31-0.16,7.61-11.56,4.14-14.5,3.68-2.54-.39-19.92-0.24-20,2.43,0-.39,3.76-3.44,3.82-3.42-1.85-.63-4.2,1.9-5.72,1.22A1.42,1.42,0,0,1,2317.63,262.8Z" transform="translate(-2293.82 -192.76)"/><path class="cls-5" d="M2330.23,251.7c4.12-10.19,17.52.74,16.71,2,0.17-.27-8.42-4.3-9.23-4.7,0.21,0.1,1.51,1.88,1,1.83C2335.62,250.57,2332.75,247.54,2330.23,251.7Z" transform="translate(-2293.82 -192.76)"/><path class="cls-33" d="M2311.77,328a10.51,10.51,0,0,0-2.49,9.75c-0.41-.4,2.76-4,3.07-3.5,1.7,2.6-1.71,7.73.48,11.09-0.57-1.45.48-4.14,1.64-5.15-1.52,1.31-1.75,7.56,1.06,7.39,0.63,0,2.57-4.79,2.56-4.82,1.11,5.6.63,9.26,6.28,13-0.56.11-.17-7.57-0.1-7.41,0.37,0.94,1.93,6.06,1.93,6.13s-0.48-7.22,1-6.46c2.59,1.34.88,7.79,4.65,8.83,3.37,0.93,5.68-3.33,5.68-6.32,0,0.69.61,5.54-.49,5.7,5-.71,5.13-6.25,8-8.86-0.33.3-.34,7.61-1.61,7.79,4.87-.69,4.17-13.78,8.09-14.22,1-.11.44,3.94,0.24,4,4.71-1.14-.85-16.57-1.82-18.41-0.31.69-2.31,5.62-2.08,5.95q-0.35-1.46-.75-2.9c-0.35-.14-3,9.31-3.89,8.19,0.05,0.07.44-4.86,0.18-4.48s-4.91,7.7-4.42,2.54c-0.07.75-1.74,13.49-2.25,12.38a50.5,50.5,0,0,1-1.13-7.81c-0.22,1-1.8,8.95-1.76,9.21-0.06-.47,1.92-10.09.15-9.32-0.38.16-2,4.57-1.9,4.73-1.41-2,.74-5.14-0.43-6.87-0.54-.8-1.47,3.84-1.87,3.8-2-.21-3.21-3.75-3.21-5.32,0,0.67.93,7.46,0.25,7.63-1.62.39-3.91-6.11-3.08-6.79-0.6.49-1.15,5.72-.69,5.94-0.58-.28-1.69-3.14-1.53-3.72-0.3,1.08-.84,6.59-0.18,7.19-3.36-3-1.91-7.71-3.23-11.33-0.12-.32-1,2.6-1,2.62-0.89-.29-0.18-5.92-0.74-5.62a12,12,0,0,1-1.91,3.66c-3.16.38-1.06-6-1.4-6.67a5,5,0,0,1-2.11,2A4.26,4.26,0,0,1,2311.77,328Z" transform="translate(-2293.82 -192.76)"/><path class="cls-17" d="M2353.24,345.58l0.89-3.07a15,15,0,0,0-.89,3.07C2353.6,344.55,2353.49,344.79,2353.24,345.58Z" transform="translate(-2293.82 -192.76)"/><path class="cls-2" d="M2353.24,345.58c-0.23.7-.49,1.41-0.76,2.08A21.1,21.1,0,0,0,2353.24,345.58Z" transform="translate(-2293.82 -192.76)"/><path class="cls-3" d="M2352.06,345.74q-0.35,1-.76,2.08c-0.19.49,0.78,0.48,1,.45a1.7,1.7,0,0,0,1.36-.78c0.29-.68.54-1.37,0.76-2.08s-2.14-.44-2.38.33-0.47,1.4-.76,2.08l2.38-.33q0.4-1,.76-2.08c0.17-.5-0.76-0.48-1-0.45A1.68,1.68,0,0,0,2352.06,345.74Z" transform="translate(-2293.82 -192.76)"/><g class="cls-6"><path class="cls-9" d="M2331.47,397.34c-2.39-3.7-2.75-6-5.15-12.1s-6-18.69-5.59-20.49,0.53-3.7-1-7a41.29,41.29,0,0,1-2.31-6.86,3.27,3.27,0,0,1,.62.27,2.5,2.5,0,0,0-1.33-.72c-2-.54-2.13-0.72-5.15-4.34s-2-4-3.9-6.5-0.53-4.87-1.42-7.58,0.36-6.14,1.42-11.37-1.6-8.85-1.77-7.41,0.35,5.24-1.24,11.38,0.71,11.38,3,17a61,61,0,0,0,8.16,14.27c2.66,3.25,2.31,13,3,18.79s9,20.4,6.92,20.4-3.37.18-5.68,2.35a2.33,2.33,0,0,1-2.51.63c0.24,0.88.25,1.29-.06,1.26-1.42-.09-2.57.36-2.57,1.35-2.57-3-5.68,1-5.77,2-3.73-.81-4.88,2.8-3.73,7.4s1.69,3.7,2.93,3.61a5.5,5.5,0,0,0,5.86-.54c1.42,1.44,6.66,2.07,10,1.36,6.75,1.08,8.87-1.27,10.38-5.42S2333.87,401,2331.47,397.34Zm-19.52,11.74c-0.88,4.52-2.66,4-4.08,2.89s0-4.34.71-6.32a29.58,29.58,0,0,0,1.06-3.8,3.87,3.87,0,0,1,2.66-.9C2314.08,400.95,2312.83,404.55,2311.95,409.07Zm2.84,3.07c-2.13-1.44-1.06-5.05-.18-7.59,0,0-.36-2,2.13-2.34s2.66,2.71,3.19,7S2316.92,413.59,2314.79,412.14Zm17.39-2.89c-1.24,5.24-5.15,4.69-7.81,3.79s-3.9-4.7-2.48-9c0,0-1.42-3.44,3.2-4.34S2333.42,404,2332.18,409.25Z" transform="translate(-2293.82 -192.76)"/></g><g class="cls-6"><path class="cls-9" d="M2371.58,422.17c-0.44-8.84-9.23-8.84-10.56-8s-1.16.45-1.16,0.27a32.7,32.7,0,0,0,.39-4.22,4.16,4.16,0,0,1-5.72-.39c-3.73-3.61-3,1.08-7.63-2.17s0.36-16.43,3.55-21.85,2.84-11.37,3.37-8.85,3,6.5,2.13,2.17c-2.31-6.69,0-10.12,2.13-22.39s-0.36-15.35-1.24-23.12,3-13.9-.18-10.66-1.6,12.28-2.66,9.57-0.18-10.83-1.42-7,0.36,7.95,1.77,12.1a9.88,9.88,0,0,1-.23,4.95,33.85,33.85,0,0,0,1.47-5.22c0.45,4.06-.27,19.32-1.24,22.84a48,48,0,0,0-1.42,10.29c-0.09,2.53-.8,5.33-3.64,12.82-2.78,7.33-7.94,23.58-7.82,26.38,1.79,0.28,3.08,1.82,4,2.88,1.6,1.81-2,9.38-3.73,17.15s-9.23,8.3-11-1.08,6-17,6-17A8.63,8.63,0,0,1,2339,410c-3.76,1.41-8.56,7.44-9,18.28-0.53,13.46,7.19,12.46,10.29,11s3.73-2.53,5.5-1.81c7.1,5.05,10.74-.18,13,0.37s5.06,0.9,6.83-.72c2,1.89,8.7,1.63,10.56-5.24C2378.06,424.87,2372.47,422.52,2371.58,422.17Zm-10.65,1.17c-0.71,5.42-.71,15.71-10.12,13.18s-5.33-15-2.84-20.58,5.5-3.61,5.5-3.61C2360.4,413,2361.64,417.93,2360.93,423.34Zm1.24,7c2-7.4-.54-10.3,2.13-13.91s4.8,0.36,4.8.36c3.72,4.88,2.3,12.64-.36,16.07S2360.22,437.79,2362.17,430.38Zm9.76,6.32c-2.13.54-2.31-.72-0.18-4.7s0.53-8.31,2.13-7.76,2,3.07,2,3.07C2377.26,433.27,2374.06,436.16,2371.94,436.7Z" transform="translate(-2293.82 -192.76)"/></g><path class="cls-34" d="M2338.22,411.24c-3.45,2.4-11.82,14.95-4,16.69S2348.45,408.16,2338.22,411.24Z" transform="translate(-2293.82 -192.76)"/><path class="cls-34" d="M2352.77,413.22c-6.15,3.52-6.18,19.11,2.14,18.55,11.33-.77,5.29-22.74-2.14-18.55h0Z" transform="translate(-2293.82 -192.76)"/><path class="cls-34" d="M2365.54,417.38c5.12-2.79,7.06,7.31,4.24,10.67C2363.2,435.86,2363.74,421.34,2365.54,417.38Z" transform="translate(-2293.82 -192.76)"/><path class="cls-34" d="M2374.78,425.32c1.2,2,2.32,7.46-1,8.49C2371.9,434.4,2374.24,424.78,2374.78,425.32Z" transform="translate(-2293.82 -192.76)"/><path class="cls-34" d="M2322.42,402.93c1.37-4.24,7.87-1.47,8.7,2.35C2332.75,412.85,2321.56,413.46,2322.42,402.93Z" transform="translate(-2293.82 -192.76)"/><path class="cls-34" d="M2314.61,404.55c2.58-2.89,4.79,1.25,3.73,4.52C2316.61,414.36,2313.13,408,2314.61,404.55Z" transform="translate(-2293.82 -192.76)"/><path class="cls-34" d="M2309.82,403.11a2,2,0,0,1,1.42-1.27c4.14-.69-1.73,10.9-3.55,7.83C2306.88,408.3,2309.13,404.32,2309.82,403.11Z" transform="translate(-2293.82 -192.76)"/><path class="cls-33" d="M2370.16,299.82c7.7,20.39-5.91,44-7.45,62.84-0.08,1-2.76,15.41-4.67,16.33-1,.48,2.39-18.9,2.82-21.12,1.08-5.55,2.84-17.28.79-22.74a1.43,1.43,0,0,0-.93,1.3c-2.71-1.4-1.13-16.18.19-18.85,2.58-5.22,1.73-2.18,2.93-2.28,0,0,.4-9.28,2.39-9.2a10.72,10.72,0,0,1,.27,1.5c0.28-.58,1.09-9.62,2.29-9.31Z" transform="translate(-2293.82 -192.76)"/><path class="cls-33" d="M2357.2,382.89c-0.15.27-9,18.43-7.23,17.65,1.1-.49,1.94-2.68,2.55-3.62-2.59,3.92-2.61,7.1.24,9.8,3.69,3.5,4.56,2,5.92-2.16,0.82-2.51.84-9.52,1-12.28C2359.8,390.41,2358.11,380.12,2357.2,382.89Z" transform="translate(-2293.82 -192.76)"/><path class="cls-33" d="M2311.59,372.41c2,7.43,2.88,21.48,9.46,22.41,5.49,0.77-5.14-16.65-5.38-18.79,0.21,1.94.87,4.7,0.6,6.55C2316.52,380.9,2312.07,373.86,2311.59,372.41Z" transform="translate(-2293.82 -192.76)"/><path class="cls-33" d="M2299.53,306.69c-1.62,14.06,3.53,23.68,5.84,36.88-0.53-3-.59-6.2-0.87-9.25-0.25-2.65.9-12.46-.23-14.05-0.22-.31-2.74,5.07-2.11,5.28-1.36-.47.85-5-1.37-2.17,0.21-.27,1.65-9.92.93-10.76C2300.81,311.53,2299.53,310.83,2299.53,306.69Z" transform="translate(-2293.82 -192.76)"/><path class="cls-33" d="M2308.4,350.93c0.78,4.11-2.26,18.25,5.68,17.51q-1.37-1.5-2.66-3.07c-0.2-.49,2.79,1,2.79-0.32,0-1-4.6-20.67-6.35-18.91A8.5,8.5,0,0,0,2308.4,350.93Z" transform="translate(-2293.82 -192.76)"/><path class="cls-11" d="M2313.37,308.49c0.11-5.93,11.19-9.72,10.75-12.94,0-.07-12.68,14-10.38,14.87A4.52,4.52,0,0,1,2313.37,308.49Z" transform="translate(-2293.82 -192.76)"/><path class="cls-11" d="M2339.81,295.85c3.5,4.44,11.64,7,10.11,14.27C2351.76,304.52,2339.41,300.27,2339.81,295.85Z" transform="translate(-2293.82 -192.76)"/><path class="cls-33" d="M2370.16,294c0.12,0.31,3.22,6.41,3.87,5.38,1.24-1.95-.11-20-2.8-19.68-0.61.08-.44,3.61-0.17,3.79-1.32-.92-1.54,8.83-0.9,10.51h0Z" transform="translate(-2293.82 -192.76)"/><path class="cls-33" d="M2297.22,286.46c0.24-.35,4.31-4.92,4.71-3.43,0.13,0.49-1.74,6.39-1.74,6.39s1.57-1.84,1.61-1.75c0.58,1.35-4.83,14.19-5.84,15.76C2297.16,301.56,2295.45,290.3,2297.22,286.46Z" transform="translate(-2293.82 -192.76)"/><path class="cls-10" d="M2349.16,368.32c1.63,0.06,4.34,4.31.47,5.54C2346.32,374.91,2349,368.46,2349.16,368.32Z" transform="translate(-2293.82 -192.76)"/></g></g></svg>