<svg id="Layer_1" data-name="Layer 1" xmlns="http://www.w3.org/2000/svg" viewBox="0 0 192.52 196.08"><defs><style>.cls-1{fill:#b7600a;}.cls-1,.cls-2,.cls-3,.cls-4{fill-rule:evenodd;}.cls-2{fill:#1d2e2f;}.cls-3{fill:#fff;}.cls-4{fill:#cb7621;}</style></defs><title>anim_65</title><g id="shape"><path class="cls-1" d="M1218,2849.24c-8.12-5.1-18.11-4.56-24.3,1.32-2.62,2.49-10.35,12,.26,29.16,3,4.93,1.3,6.61.72,7.16-3.67,3.53-15.08,4.57-25.33-1.73a7.8,7.8,0,0,0-10.62,2.37,7.44,7.44,0,0,0,2.42,10.39,46.27,46.27,0,0,0,23.88,6.87c8.07,0,15.49-2.38,20.44-7.14,6.89-6.62,7.52-16.22,1.67-25.7-3.73-6-3.64-9.69-2.71-10.57,0.73-.69,2.95-0.88,5.23.55a7.81,7.81,0,0,0,10.64-2.26A7.43,7.43,0,0,0,1218,2849.24Z" transform="translate(-1028.98 -2732.95)"/></g><g id="shape-2" data-name="shape"><path class="cls-2" d="M1071.91,2915.79c-9.31-2-7.57-6.49-9.83-.65-1.68,4.34-1.23,11,10.22,13.51a13.47,13.47,0,0,0,7-.17c7.73-1.47,9.5-9.33,9.5-9.33s-2.65-.45-8.88-1.23C1077.71,2917.22,1075,2916.46,1071.91,2915.79Zm74.13-.65c-2.25-5.84-.52-1.38-9.83.65-3.08.67-5.79,1.43-8,2.14-6.24.78-8.88,1.23-8.88,1.23s1.77,7.86,9.5,9.33a13.47,13.47,0,0,0,7,.17C1147.27,2926.15,1147.72,2919.48,1146,2915.14Z" transform="translate(-1028.98 -2732.95)"/></g><g id="shape-3" data-name="shape"><path class="cls-1" d="M1147.35,2766a30.47,30.47,0,0,0,1-5.31c0.67-7.42.71-17.61-5.11-14.61a71.87,71.87,0,0,0-12.21,8.33,55.55,55.55,0,0,0-14-5c2.64-4.27,5.67-7.41,4.9-7.93-1.39-.94-8.81,2.36-9.74,1.42s4.64-9,2.78-9.91c-1.47-.75-11.85,6.5-16.88,16.13a55.3,55.3,0,0,0-16.68,5.87,73,73,0,0,0-12.91-8.92c-5.82-3-5.78,7.19-5.11,14.61a33,33,0,0,0,1.44,6.72c-28.87,28.29-43.89,82-31.54,118.75,17.45,51.9,129.07,47.77,147-1.84C1193.21,2848.62,1177.31,2793.89,1147.35,2766Z" transform="translate(-1028.98 -2732.95)"/></g><g id="Elipsa_9_kopiuj" data-name="Elipsa 9 kopiuj"><path class="cls-3" d="M1121.57,2768.81c-6.63,0-11.77,5.62-14.75,9.93-3-4.31-8.12-9.93-14.75-9.93-10.74,0-18.32,10.93-16.31,19.4s13.89,10,21.6,7.75c4.11-1.2,7.34-4.64,9.46-7.58,2.12,2.95,5.35,6.39,9.46,7.58,7.71,2.25,19.59.72,21.6-7.75S1132.31,2768.81,1121.57,2768.81Z" transform="translate(-1028.98 -2732.95)"/></g><g id="Elipsa_10" data-name="Elipsa 10"><path class="cls-4" d="M1149.4,2872c-7.63-13-26.91-18.64-42.57-18.64s-34.94,5.62-42.57,18.64c-10.71,18.26,11,38.32,42.57,38.32S1160.1,2890.23,1149.4,2872Z" transform="translate(-1028.98 -2732.95)"/></g><g id="Elipsa_10_kopiuj" data-name="Elipsa 10 kopiuj"><path class="cls-4" d="M1118.08,2798.2a13.49,13.49,0,0,0-10.33,4.57,13.49,13.49,0,0,0-10.33-4.57c-8.61,0-14.47,7.2-13.29,14.76,1,6.42,6.89,11,13.29,11a13.81,13.81,0,0,0,10.33-4.68,13.81,13.81,0,0,0,10.33,4.68c6.39,0,12.28-4.54,13.29-11C1132.54,2805.4,1126.69,2798.2,1118.08,2798.2Z" transform="translate(-1028.98 -2732.95)"/></g><g id="Elipsa_7_kopiuj" data-name="Elipsa 7 kopiuj"><path class="cls-2" d="M1107.74,2798.62c-6.6,0-11.94-.42-11.94,4s5.35,12.09,11.94,12.09,11.94-7.64,11.94-12.09S1114.34,2798.62,1107.74,2798.62Z" transform="translate(-1028.98 -2732.95)"/></g><g id="shape-4" data-name="shape"><path class="cls-2" d="M1170.91,2826.09c-0.11-.41-2.79-9.64-15.62-17.22q-1-.57-2-1.12a43.5,43.5,0,0,0-28.57-4.44h0l-0.1,0-0.11,0-0.06,0-0.08,0-0.11.07-0.06,0-0.07.06-0.09.09,0,0-0.06.07-0.08.1,0,0.06,0,0.08-0.06.12,0,0.08v0l0,0.06,0,0.12,0,0.09s0,0.07,0,.1,0,0,0,.07,0,0,0,0,0,0.06,0,.09,0,0.07,0,.1,0,0.08,0,.12,0,0,0,0v0l0,0.08s0,0.1,0,.14l0,0.06,0,0.06,0.07,0.14,0,0.05,0,0.06,0.09,0.11,0,0,0.07,0.06,0.11,0.08,0,0,0.08,0,0.11,0.06,0.06,0h0c0.12,0,11.83,4.41,19.89,17.79a41.31,41.31,0,0,1,5.88,16,1.42,1.42,0,0,0,1.63,1.25,1.55,1.55,0,0,0,1.25-1.73,44.3,44.3,0,0,0-6.28-17.14,48.73,48.73,0,0,0-12.73-14.08,41.77,41.77,0,0,1,15.28,9.21c11.16,10.59,11.45,20.33,11.45,20.43a1.43,1.43,0,0,0,1.48,1.44,1.54,1.54,0,0,0,1.43-1.58c0-.45-0.32-11.12-12.36-22.55a44.39,44.39,0,0,0-15-9.4,41.3,41.3,0,0,1,15.54,4.63c13.37,7.14,16.17,16.46,16.19,16.55a1.41,1.41,0,0,0,1.8,1A1.56,1.56,0,0,0,1170.91,2826.09Zm-79-20.41s0,0,0-.07,0-.07,0-0.1l0-.1,0-.11,0-.07v0l0-.08-0.06-.11,0-.08,0-.06-0.08-.1-0.06-.07,0,0-0.09-.08-0.07-.06-0.05,0-0.11-.07-0.09-.05-0.06,0-0.11,0-0.11,0h0a43.5,43.5,0,0,0-28.57,4.44q-1,.55-2,1.12c-12.83,7.58-15.5,16.81-15.62,17.22a1.56,1.56,0,0,0,1,1.89,1.4,1.4,0,0,0,1.79-1c0-.09,2.81-9.4,16.19-16.55a41.32,41.32,0,0,1,15.57-4.64,44.38,44.38,0,0,0-15.07,9.41c-12,11.43-12.35,22.1-12.36,22.55a1.54,1.54,0,0,0,1.43,1.58,1.43,1.43,0,0,0,1.48-1.44c0-.09.37-9.92,11.45-20.43a41.77,41.77,0,0,1,15.28-9.2,48.71,48.71,0,0,0-12.73,14.08,44.29,44.29,0,0,0-6.28,17.14,1.55,1.55,0,0,0,1.25,1.73,1.42,1.42,0,0,0,1.63-1.25,41.3,41.3,0,0,1,5.88-16c8.06-13.38,19.77-17.74,19.89-17.79h0l0.06,0,0.11-.06,0.08,0,0,0,0.1-.08,0.07-.06,0,0,0.08-.1,0.06-.07,0-.06,0.06-.11,0-.08,0-.06,0-.12,0-.1v0s0,0,0,0,0-.07,0-0.11,0-.07,0-0.11,0-.06,0-0.09S1091.9,2805.7,1091.9,2805.69Z" transform="translate(-1028.98 -2732.95)"/></g><g id="shape-5" data-name="shape"><path class="cls-2" d="M1120.6,2776.16c-2.54,0-4.59,2.47-4.59,5.51s2.06,5.51,4.59,5.51,4.59-2.47,4.59-5.51S1123.14,2776.16,1120.6,2776.16Zm-27.56,0c-2.54,0-4.59,2.47-4.59,5.51s2.06,5.51,4.59,5.51,4.59-2.47,4.59-5.51S1095.58,2776.16,1093,2776.16Z" transform="translate(-1028.98 -2732.95)"/></g></svg>