<svg id="Layer_1" data-name="Layer 1" xmlns="http://www.w3.org/2000/svg" viewBox="0 0 198.09 208.42"><defs><style>.cls-1,.cls-4{fill:#1d2e2f;}.cls-1,.cls-2,.cls-3{fill-rule:evenodd;}.cls-2{fill:#f4f4f4;}.cls-3{fill:#e3e3e3;}</style></defs><title>anim_33</title><g id="feet"><path class="cls-1" d="M-524.23,2615.35c-4.54,2.23-.16,12.06,12.5,13.55s15.31-10.28,15.31-10.28-4.13-.7-14.43-1.91S-519.69,2613.11-524.23,2615.35Zm90.08-1.11c-2.45-6.35-.56-1.5-10.7.71a87,87,0,0,0-16.66,5.26s3.78,11.46,16.24,8.74S-432.33,2619-434.15,2614.24Z" transform="translate(577.9 -2420.95)"/></g><g id="ears"><path class="cls-2" d="M-429.3,2421c-17.92,0-32.45,14.77-32.45,33s14.53,33,32.45,33,32.45-14.77,32.45-33S-411.38,2421-429.3,2421Zm-101.11,0c-17.92,0-32.45,14.77-32.45,33s14.53,33,32.45,33,32.45-14.77,32.45-33S-512.49,2421-530.41,2421Z" transform="translate(577.9 -2420.95)"/></g><g id="ears-2" data-name="ears"><path class="cls-3" d="M-432.2,2435.22a19.54,19.54,0,0,0-19.45,19.62,19.54,19.54,0,0,0,19.45,19.62,19.54,19.54,0,0,0,19.45-19.62A19.54,19.54,0,0,0-432.2,2435.22Zm-95.3,0A19.54,19.54,0,0,0-547,2454.84a19.54,19.54,0,0,0,19.45,19.62A19.54,19.54,0,0,0-508,2454.84,19.54,19.54,0,0,0-527.5,2435.22Z" transform="translate(577.9 -2420.95)"/></g><g id="body"><path class="cls-2" d="M-397.17,2521.81c-6.89-31.51-24.51-62.49-48.18-78.28-10.17-6.8-21.44-10.82-33.5-10.82h0c-12.06,0-23.34,4-33.5,10.82-23.67,15.8-41.29,46.77-48.18,78.28-9.22,8.71-18.59,34.46-17.23,44.58,1.33,9.93,11.11,14.07,16.29,6.42a83.34,83.34,0,0,0,2.63,9.89c9.52,28.3,44.75,41.29,80,40.43,35.25,0.86,70.48-12.13,80-40.43a83.35,83.35,0,0,0,2.63-9.89c5.17,7.65,15,3.51,16.29-6.42C-378.58,2556.27-388,2530.51-397.17,2521.81Z" transform="translate(577.9 -2420.95)"/></g><g id="nose"><path class="cls-3" d="M-479.41,2481c-26,0-39.44,25-35.61,39.89s19.46,22.11,35,22c16-.11,33.27-6.59,36.22-22.53S-453.37,2481-479.41,2481Z" transform="translate(577.9 -2420.95)"/></g><g id="nose-2" data-name="nose"><ellipse class="cls-4" cx="100.05" cy="80" rx="21" ry="18"/></g><g id="eye"><path class="cls-1" d="M-463.91,2469c-2.79,0-5.06,2.69-5.06,6s2.26,6,5.06,6,5.06-2.69,5.06-6S-461.12,2469-463.91,2469Zm-27.89,0c-2.79,0-5.06,2.69-5.06,6s2.26,6,5.06,6,5.06-2.69,5.06-6S-489,2469-491.8,2469Z" transform="translate(577.9 -2420.95)"/></g></svg>