<svg xmlns="http://www.w3.org/2000/svg" xmlns:xlink="http://www.w3.org/1999/xlink" viewBox="0 0 287.05 259.65"><defs><style>.cls-1{isolation:isolate;}.cls-2,.cls-44,.cls-50{stroke:#64493c;stroke-miterlimit:10;stroke-width:1.07px;}.cls-2{fill:url(#radial-gradient);}.cls-13,.cls-21,.cls-25,.cls-26,.cls-29,.cls-3,.cls-37,.cls-41,.cls-42,.cls-47,.cls-48,.cls-56,.cls-7{mix-blend-mode:multiply;}.cls-13,.cls-21,.cls-4{opacity:0.6;}.cls-4{fill:url(#radial-gradient-2);}.cls-5{fill:url(#radial-gradient-3);}.cls-6{fill:#190400;}.cls-25,.cls-38,.cls-7{opacity:0.5;}.cls-8{fill:url(#radial-gradient-4);}.cls-53,.cls-9{fill:#e8d998;}.cls-40,.cls-9{opacity:0.3;}.cls-19,.cls-20,.cls-27,.cls-32,.cls-38,.cls-40,.cls-43,.cls-53,.cls-9{mix-blend-mode:screen;}.cls-10{fill:url(#radial-gradient-5);}.cls-11{fill:url(#radial-gradient-6);}.cls-12{fill:#64493c;}.cls-14,.cls-21{fill:#c79b69;}.cls-15{fill:url(#radial-gradient-7);}.cls-16{fill:url(#radial-gradient-8);}.cls-17{fill:url(#radial-gradient-9);}.cls-18{fill:none;}.cls-19,.cls-20,.cls-43,.cls-53,.cls-56{opacity:0.2;}.cls-19{fill:url(#linear-gradient);}.cls-20{fill:url(#linear-gradient-2);}.cls-22{fill:url(#radial-gradient-10);}.cls-23{fill:url(#radial-gradient-11);}.cls-24{fill:url(#radial-gradient-12);}.cls-25{fill:url(#radial-gradient-13);}.cls-26{fill:url(#radial-gradient-14);}.cls-28{fill:#d6c4b0;}.cls-29{fill:url(#radial-gradient-15);}.cls-30{fill:url(#Steel_Radial);}.cls-31,.cls-42{fill:#322218;}.cls-32{opacity:0.4;}.cls-33{fill:url(#radial-gradient-16);}.cls-34{fill:#3e1f0c;}.cls-35{fill:url(#Steel_Radial-2);}.cls-36{fill:url(#radial-gradient-17);}.cls-37{fill:#23190a;opacity:0.9;}.cls-38,.cls-40,.cls-43{fill:#fff;}.cls-39{fill:url(#radial-gradient-18);}.cls-41,.cls-42{opacity:0.8;}.cls-41{fill:url(#radial-gradient-19);}.cls-44{fill:url(#radial-gradient-20);}.cls-45{fill:url(#radial-gradient-21);}.cls-46{fill:url(#radial-gradient-22);}.cls-47{fill:url(#radial-gradient-23);}.cls-48{opacity:0.7;}.cls-49{fill:url(#radial-gradient-24);}.cls-50{fill:url(#radial-gradient-25);}.cls-51{fill:url(#radial-gradient-26);}.cls-52{fill:url(#radial-gradient-27);}.cls-54{fill:url(#radial-gradient-28);}.cls-55{fill:url(#radial-gradient-29);}.cls-56{fill:url(#radial-gradient-30);}</style><radialGradient id="radial-gradient" cx="5427.46" cy="-260.5" fx="5411.370141879976" fy="-277.4990325008945" r="48.72" gradientTransform="matrix(-1.02, 0, 0, 1.03, 7366.54, 13.39)" gradientUnits="userSpaceOnUse"><stop offset="0" stop-color="#ebd7c2"/><stop offset="0.03" stop-color="#e9d3bc"/><stop offset="0.2" stop-color="#dabb98"/><stop offset="0.37" stop-color="#d0a97e"/><stop offset="0.52" stop-color="#c99f6f"/><stop offset="0.64" stop-color="#c79b69"/><stop offset="0.7" stop-color="#be9365"/><stop offset="0.8" stop-color="#a57e59"/><stop offset="0.93" stop-color="#7c5d47"/><stop offset="1" stop-color="#64493c"/></radialGradient><radialGradient id="radial-gradient-2" cx="5427.63" cy="-260.26" fx="5411.4743361629335" fy="-277.32593917280406" r="48.92" xlink:href="#radial-gradient"/><radialGradient id="radial-gradient-3" cx="5453.27" cy="-194.97" r="26.34" gradientTransform="matrix(-1.02, 0, 0, 1.03, 7366.54, 13.39)" gradientUnits="userSpaceOnUse"><stop offset="0" stop-color="#b98f68"/><stop offset="0.09" stop-color="#b3865f"/><stop offset="0.24" stop-color="#a16d46"/><stop offset="0.27" stop-color="#9e6841"/><stop offset="0.36" stop-color="#95603a"/><stop offset="0.51" stop-color="#7c4c28"/><stop offset="0.69" stop-color="#552d0d"/><stop offset="0.77" stop-color="#4c270b"/><stop offset="0.9" stop-color="#331606"/><stop offset="1" stop-color="#190400"/></radialGradient><radialGradient id="radial-gradient-4" cx="5452.4" cy="-195.77" r="24.23" xlink:href="#radial-gradient-3"/><radialGradient id="radial-gradient-5" cx="5315.77" cy="-144.95" r="69.03" gradientTransform="matrix(-1.02, 0, 0, 1.03, 7366.54, 13.39)" gradientUnits="userSpaceOnUse"><stop offset="0" stop-color="#dfc29d"/><stop offset="0.17" stop-color="#dec09a"/><stop offset="0.28" stop-color="#dab991"/><stop offset="0.38" stop-color="#d3ae82"/><stop offset="0.46" stop-color="#c99e6d"/><stop offset="0.48" stop-color="#c79b69"/><stop offset="0.57" stop-color="#be9365"/><stop offset="0.72" stop-color="#a57e59"/><stop offset="0.9" stop-color="#7c5d47"/><stop offset="1" stop-color="#64493c"/></radialGradient><radialGradient id="radial-gradient-6" cx="5339.56" cy="-188.62" r="30.27" gradientTransform="matrix(-1.02, 0, 0, 1.03, 7388.9, 13.39)" gradientUnits="userSpaceOnUse"><stop offset="0" stop-color="#c79b69"/><stop offset="0.17" stop-color="#be9365"/><stop offset="0.46" stop-color="#a57e59"/><stop offset="0.81" stop-color="#7c5d47"/><stop offset="1" stop-color="#64493c"/></radialGradient><radialGradient id="radial-gradient-7" cx="5325.21" cy="-184.82" fx="5325.210310997005" fy="-184.8182532828505" r="163.3" xlink:href="#radial-gradient"/><radialGradient id="radial-gradient-8" cx="5221.36" cy="-280.82" fx="5174.355899270638" r="104.93" xlink:href="#radial-gradient-3"/><radialGradient id="radial-gradient-9" cx="5221.2" cy="-281" fx="5174.394431130216" r="104.49" xlink:href="#radial-gradient-3"/><linearGradient id="linear-gradient" x1="5329.07" y1="-327.49" x2="5335.99" y2="-259.7" gradientTransform="matrix(-1, 0, 0, 1, 7268.41, 0)" xlink:href="#radial-gradient"/><linearGradient id="linear-gradient-2" x1="5328.63" y1="-327.34" x2="5331.34" y2="-300.75" gradientTransform="matrix(-1, 0, 0, 1, 7268.41, 0)" xlink:href="#radial-gradient"/><radialGradient id="radial-gradient-10" cx="5222.48" cy="-304.71" fx="5176.205972072506" r="103.31" xlink:href="#radial-gradient-3"/><radialGradient id="radial-gradient-11" cx="5214.59" cy="-290.94" r="58.04" gradientTransform="matrix(-1.02, 0, 0, 1.03, 7366.54, 13.39)" gradientUnits="userSpaceOnUse"><stop offset="0" stop-color="#ebd7c2"/><stop offset="0.09" stop-color="#e6ceb2"/><stop offset="0.22" stop-color="#e1c5a3"/><stop offset="0.32" stop-color="#dfc29d"/><stop offset="0.47" stop-color="#dec09a"/><stop offset="0.57" stop-color="#dab991"/><stop offset="0.65" stop-color="#d3ae82"/><stop offset="0.73" stop-color="#c99e6d"/><stop offset="0.74" stop-color="#c79b69"/><stop offset="0.79" stop-color="#be9365"/><stop offset="0.86" stop-color="#a57e59"/><stop offset="0.95" stop-color="#7c5d47"/><stop offset="1" stop-color="#64493c"/></radialGradient><radialGradient id="radial-gradient-12" cx="5241.77" cy="-300.65" r="37.15" gradientTransform="matrix(-1.02, 0, 0, 1.03, 7388.9, 13.39)" gradientUnits="userSpaceOnUse"><stop offset="0" stop-color="#ebd7c2"/><stop offset="0.09" stop-color="#e6ceb2"/><stop offset="0.22" stop-color="#e1c5a3"/><stop offset="0.32" stop-color="#dfc29d"/><stop offset="0.46" stop-color="#dec09a"/><stop offset="0.55" stop-color="#dab991"/><stop offset="0.63" stop-color="#d3ae82"/><stop offset="0.71" stop-color="#c99e6d"/><stop offset="0.72" stop-color="#c79b69"/><stop offset="0.76" stop-color="#be9364"/><stop offset="0.82" stop-color="#a47f57"/><stop offset="0.9" stop-color="#7b5e41"/><stop offset="0.99" stop-color="#433023"/><stop offset="1" stop-color="#3c2a1f"/></radialGradient><radialGradient id="radial-gradient-13" cx="5237.35" cy="-297.36" r="56.55" gradientTransform="matrix(-1.02, 0, 0, 1.03, 7388.9, 13.39)" xlink:href="#radial-gradient-11"/><radialGradient id="radial-gradient-14" cx="5211.9" cy="-299.06" fx="5219.200966908453" r="22.61" xlink:href="#radial-gradient-11"/><radialGradient id="radial-gradient-15" cx="5210.96" cy="-299.08" r="23.59" xlink:href="#radial-gradient-11"/><radialGradient id="Steel_Radial" cx="2050.22" cy="-313.67" r="17.97" gradientUnits="userSpaceOnUse"><stop offset="0" stop-color="#e5e2df"/><stop offset="0" stop-color="#f1efee"/><stop offset="0" stop-color="#fff"/><stop offset="0.13" stop-color="#f0f0f1"/><stop offset="0.37" stop-color="#c9cacb"/><stop offset="0.52" stop-color="#adaeb0"/><stop offset="0.6" stop-color="#a3a5a7"/><stop offset="0.74" stop-color="#898d90"/><stop offset="0.91" stop-color="#5f6769"/><stop offset="1" stop-color="#465053"/></radialGradient><radialGradient id="radial-gradient-16" cx="5211.02" cy="-299.71" fx="5196.598004383289" r="40.81" gradientTransform="matrix(-1.02, 0, 0, 1.03, 7366.54, 13.39)" gradientUnits="userSpaceOnUse"><stop offset="0" stop-color="#ebd7c2"/><stop offset="0.09" stop-color="#e6ceb2"/><stop offset="0.22" stop-color="#e1c5a3"/><stop offset="0.32" stop-color="#dfc29d"/><stop offset="0.46" stop-color="#dec09a"/><stop offset="0.55" stop-color="#dab991"/><stop offset="0.63" stop-color="#d3ae82"/><stop offset="0.71" stop-color="#c99e6d"/><stop offset="0.72" stop-color="#c79b69"/><stop offset="0.77" stop-color="#be9365"/><stop offset="0.85" stop-color="#a57e59"/><stop offset="0.95" stop-color="#7c5d47"/><stop offset="1" stop-color="#64493c"/></radialGradient><radialGradient id="Steel_Radial-2" cx="2073.97" cy="-311.21" r="19.03" xlink:href="#Steel_Radial"/><radialGradient id="radial-gradient-17" cx="5228.63" cy="-315.55" r="3.03" gradientTransform="matrix(-1.02, 0, 0, 1.03, 7366.54, 13.39)" gradientUnits="userSpaceOnUse"><stop offset="0.49" stop-color="#bc9747"/><stop offset="0.86" stop-color="#44332d"/><stop offset="0.91" stop-color="#41312b"/><stop offset="0.94" stop-color="#382a25"/><stop offset="0.96" stop-color="#291f1b"/><stop offset="0.98" stop-color="#140f0d"/><stop offset="1"/></radialGradient><radialGradient id="radial-gradient-18" cx="5993.86" cy="-315.38" r="2.95" gradientTransform="matrix(-0.88, 0, 0, 1.03, 7371.11, 13.39)" xlink:href="#radial-gradient-17"/><radialGradient id="radial-gradient-19" cx="5232.86" cy="-300.66" fx="5218.128433814054" r="41.68" gradientTransform="matrix(-1.02, 0, 0, 1.03, 7388.9, 13.39)" xlink:href="#radial-gradient-16"/><radialGradient id="radial-gradient-20" cx="5265.46" cy="-346.23" fx="5258.898970589694" fy="-346.23322501155053" r="17.48" xlink:href="#radial-gradient"/><radialGradient id="radial-gradient-21" cx="5273.56" cy="-349.03" fx="5273.560135566824" r="27.67" xlink:href="#radial-gradient-16"/><radialGradient id="radial-gradient-22" cx="5258.53" cy="-343.36" r="11.65" gradientTransform="matrix(-1.02, 0, 0, 1.03, 7366.54, 13.39)" xlink:href="#radial-gradient-12"/><radialGradient id="radial-gradient-23" cx="5266.34" cy="-349.88" r="21.87" xlink:href="#radial-gradient-3"/><radialGradient id="radial-gradient-24" cx="5265.28" cy="-346.19" fx="5258.689028508248" r="17.55" xlink:href="#radial-gradient-11"/><radialGradient id="radial-gradient-25" cx="5180.72" cy="-342.97" fx="5180.723733867135" fy="-342.96879525949225" r="18.38" xlink:href="#radial-gradient"/><radialGradient id="radial-gradient-26" cx="5178.79" cy="-345.82" r="18.8" xlink:href="#radial-gradient-3"/><radialGradient id="radial-gradient-27" cx="5180.96" cy="-342.92" fx="5180.960448176491" fy="-342.92411469772924" r="18.39" xlink:href="#radial-gradient"/><radialGradient id="radial-gradient-28" cx="5226.48" cy="-286.94" fx="5180.097759816591" r="103.54" xlink:href="#radial-gradient-3"/><radialGradient id="radial-gradient-29" cx="5226.24" cy="-287.07" fx="5180.055920507714" r="103.09" xlink:href="#radial-gradient-3"/><radialGradient id="radial-gradient-30" cx="5180.84" cy="-311.3" r="144.93" xlink:href="#radial-gradient-3"/></defs><title>anim_91</title><g class="cls-1"><g id="Layer_1" data-name="Layer 1"><path class="cls-2" d="M1890.08-317c-14,12.12-11,35.16-21,50.2-5.75,8.68-13.71,15.26-20.21,23.28a69.37,69.37,0,0,0-10.46,17.41c-0.86,2.12-2.47,13.73-3.28,14.19,1.22-.7,2.79-7.22,3.3-8.38a85,85,0,0,1,9.86-17.21c9.63-12.69,24.38-21.83,31-36.77C1885.11-287.33,1886.79-303.09,1890.08-317Z" transform="translate(-1824.84 371)"/><g class="cls-3"><path class="cls-4" d="M1835.18-212.2c0-25,27.87-38.07,38.71-57.59,8.12-14.63,2.07-34.71,16.18-47.17-3.39,14.31-5,31.17-11.64,44.4-11.07,22.05-38.12,35.57-43.25,60.36C1835.18-217.08,1834.53-209.06,1835.18-212.2Z" transform="translate(-1824.84 371)"/></g><path class="cls-5" d="M1835.67-176.84c1.28,0.68,15.36,1.44,13.34-.73-3.21-3.44-9.65-.63-8.38-8.89,0.73-4.8,5.16-6.09,4.79-12.53-0.27-4.66-3.45-12-8.17-13.82-4.27-1.64-12.53,3.36-9.2,8.68,0,0.05,2.2-2.89,2.38-3.16-1.49,2.13-5.92,18.9-2.24,20a18.71,18.71,0,0,0-1-1.68c-2.19,3.08,6.88,11.25,8.44,12.08h0Z" transform="translate(-1824.84 371)"/><path class="cls-6" d="M1834.12-176.43c3.78,1.4,11.43,1.67,15.2-.36,2.68-1.44-.29-2.37-2.4-3.12-4.25-1.5-6.09-3.74-4.32-8.61s5.2-7.23,4.06-13c-0.87-4.4-3.79-11-8.79-11.93-5.28-1-14.33,3.73-11.39,9.75a20.6,20.6,0,0,0,3.09-.83,39.33,39.33,0,0,0,2.38-3.16l-3.09.83c-1.88,3.14-6.61,17.84-2.24,20,0.37,0.19,3-1.07,3.09-.83a18.71,18.71,0,0,0-1-1.68,17.8,17.8,0,0,0-3.09.83c-2.44,5.05,7.7,11.71,11.38,13.64,0.71,0.37,2.42-1.19,3.09-.83l-5-2.66c-0.7-.37-2.42,1.19-3.09.83l2.08,1.1c0.7,0.37,2.42-1.19,3.09-.83l-2.08-1.1-3.09.83,5,2.66,3.09-.83c-3.68-1.93-13.82-8.59-11.38-13.64l-3.09.83a18.71,18.71,0,0,1,1,1.68l3.09-.83c-4.38-2.2.36-16.91,2.24-20-0.39.65-2.62,0.18-3.09,0.83a39.31,39.31,0,0,1-2.38,3.16l3.09-.83a5.67,5.67,0,0,1,3.15-7.87c3.38-1.25,6.45,2.2,8.06,4.75a18.36,18.36,0,0,1,3.05,10.59c-0.28,3.8-3.11,6-4.34,9.38-2.74,7.53,3.54,7.53,8,10.67a0.47,0.47,0,0,1,0,.49c-0.1-.1,1.8,0,0.22-0.11-1.34-.06-2.71.1-4.05,0.06-2.06-.05-4.53,0-6.49-0.68C1836.39-177.56,1834.93-176.13,1834.12-176.43Z" transform="translate(-1824.84 371)"/><g class="cls-7"><path class="cls-8" d="M1833.72-187.91a12.92,12.92,0,0,1,2.06,5.07c1.12-1.84,1-4.13.87-6.17a3.78,3.78,0,0,1,.76,3.08c2.45-4.8-5.28-17.18-.88-19.27-1.22.58,0.11,6.66,0.55,7.82,1-5.78,3.24-11.42-1.24-16.3,9.08,5.31,10.66,14.2,7.47,23.47-1.07,3.1-3.31,2.42-2.5,6.76,0.52,2.77,7.06,7.84,8.09,6.5,0.07,0.12-10.91,1.21-13.8-3-1.26-1.83-1.38-8-1.38-8h0Z" transform="translate(-1824.84 371)"/></g><path class="cls-9" d="M1834.11-205.13c-1.69,5.35,1.3,8.86,3.95,13.11-0.34-.4-4.26-3.39-3.95-2.64,0.15,0.35,1.86,6.62,1.81,6.57-0.59-.59-2.87-7.74-4.67-6.09-2.5,2.28,3,8.77,1.12,11-1.73,2-4.3-15.39-3.78-17.22C1829.52-203.6,1836.32-210.63,1834.11-205.13Z" transform="translate(-1824.84 371)"/><path class="cls-9" d="M1832.46-209.75c-0.28.09-2.81,1.51-2.88,1.22-0.7-2.87,5-3,4.55-2.12Z" transform="translate(-1824.84 371)"/><path class="cls-10" d="M1971.33-209.29c-6.37,7.41-8.33,13.34-7.58,23,0.37,4.85.62,11.25,2.93,15.65,3.42,6.52,5.7,3.55,11.91,5.83,5.53,2,4.59,2.45,4.78,7.55,0.06,1.58,0,10.07-1.17,11.52-3.5,4.23-21.5-.37-26.45-2.43-7.71-3.21-5.39-10.28-6-17.64-1-12-4.94-21.86-7.79-33.33-1.86-7.48-.58-19,7.67-20.22C1954.32-220,1969.32-213.87,1971.33-209.29Z" transform="translate(-1824.84 371)"/><path class="cls-11" d="M1969.73-145c-10.41-4.15-18.81-.35-19.82-13.37-0.79-10.26-1.42-20.31-4.55-30.2-1.74-5.49-5.51-12.15-5-18.11,0.23-2.6,3.71-11.83,6.15-12.92,4-1.77,20.08,4.12,22.53,7.62,4.26,6.09-3.34,7.93-5.1,15.57-1.91,8.31-.4,26.56,7.81,30.74,3.78,1.93,9.56-1.14,12.15,3.46,1.08,1.92-.43,11-1.11,13-2,5.6-5.53,7.19-13.06,4.19h0Zm10.14-.76c3,1.54,4.93-14.29,3.56-16.42-2.31-3.58-7.06-1.61-10.45-2.9-5.75-2.18-6.32-4.21-7.88-10.46-2.34-9.4-3.49-19.89,1.73-28.34,3.1-5,4.9-3.9,1.29-8.17-2.57-3-10.59-5-14.35-6-22.9-6.16-6,34.85-4.56,45.36,1.08,8.15-1.69,20.74,6.54,24.27C1960.52-146.34,1975.82-142.37,1979.87-145.71Z" transform="translate(-1824.84 371)"/><path class="cls-12" d="M1967.76-158.3c0,0.63,6.46.13,8.51,1.58,3.49,2.47,3.76,7.34,3.84,11.31,0-3.58-1.83-9.7-5.49-11.93C1972.42-158.67,1967.76-157.15,1967.76-158.3Z" transform="translate(-1824.84 371)"/><path class="cls-12" d="M1952.82-165.35c-3.29,5.71-1.37,10.52,2.71,15C1950.4-155.68,1949.46-159.62,1952.82-165.35Z" transform="translate(-1824.84 371)"/><path class="cls-12" d="M1973.37-159.8c5.25-.66,9.93.06,10,6.45,0-1.4-2-6-4.19-6.73C1980.87-159.63,1974-159.88,1973.37-159.8Z" transform="translate(-1824.84 371)"/><g class="cls-13"><path class="cls-14" d="M1941.34-210.5c2.84-4.65,3.67-8.14,8.28-8.83,3.6-.54,10.87,3.18,13.87,4.64,13.92,6.76.43,9.23,0,21.13-1.69-5.33,3.91-18.47-7.42-16.64-13.2,2.12-2.24,27-1.16,34.19,0.91,6-2.33,10.81-1.67,16.32,0.94,7.84,8.75,8,14.59,10.28,3.59,1.38,8.15,6.69,10.21.36,2.76-8.45-7.46-7.36-11.49-8.13a1.29,1.29,0,0,1,0-1.58c1.16-1,8-.11,9.47.59,2.84,1.4,3.43,5.65,4.72,6.31,1,0.5,1.49-6.07,1-6.73-2.28-3.37-7.64.85-9.93-1.72-1.27-1.42,7-2.07,7.62-1.87,5.27,1.86,4.91,8.43,3.09,13.28-1.43,3.8-1,4.59-6.41,4.85-4.37.21-16.13-2.32-20.39-4.09-8.54-3.55-5.64-16-6.72-24.32-1.21-9.27-12.5-30.12-7.68-38h0Z" transform="translate(-1824.84 371)"/></g><path class="cls-15" d="M1995.31-331c-22.62,20.61-54.39-11.08-80.73-4.1-37.49,9.94-33.17,47.67-30.94,77.71,1.06,14.26,2,27.11-1.39,40.89-3.7,15.13.77,34.41,0.45,50.14-0.24,11.65,1.11,31.38,16.28,33.14,3.73,0.43,9.54-2.32,13.28-2.81,7-.91,13.93.72,12.88-9.4-1.08-10.43-11.88-10.71-18.66-16.38s-7.23-12.82-7.33-21.5c-0.12-10.23.94-21,7-29.22,7-9.38,16.09-16.72,19.26-28.58,7.78,19,22.42,20.85,39,28.24,6.15,2.74,13.79,6.58,16.26,12.85,2.58,6.54,1.88,16.53,2.51,23.45,0.88,9.77-.3,18.93-1,28.65-0.34,4.9-2.63,10.9-2.67,15.31,0,4.15.78,15,4.19,18.42,5.23,5.21,10.38,1,15.37,1.08,9.43,0.17,22.5,5.33,23.94-9.34,0.51-5.15-2.62-12.09-7.44-14.34s-8.82,1.95-11.27-.93c-2.93-3.44.58-20.81,0.73-24.73,0.32-8-.7-20.54,3.85-27.76,3.2-5.07.12-3.07,7.24-3.22s14.87,1.24,21.6-2.51c0.72,18.25,2.7,37.93-.39,56.07-1.17,6.86-4.59,11.74-1.54,18.55,2.93,6.55,9.46,8.23,16.81,8.55,5.39,0.24,10.58-.46,15.7-0.06,6.77,0.53,12.33,1.35,12.16-8-0.13-7.27-5.58-9.17-10.62-11.77-3-1.55-8.4-2.78-10.67-5.31-4.51-5-1.92-18.64-1.28-24.37,1.21-10.82,4.49-20.89,7.51-31.28,2.47-8.48,7.29-18.09.05-24-4.41-3.6-11.75-5.36-16.79-8.05a107.64,107.64,0,0,1-22.9-16.1C2001.26-264.73,1993.66-298.37,1995.31-331Z" transform="translate(-1824.84 371)"/><path class="cls-12" d="M1993.76-330.6c-13.1,11.43-30.16,4.12-44.61-.65-12.43-4.1-24.23-6.94-37.06-3.2-13.07,3.82-23.18,12.28-27.76,25.27-4.68,13.28-4,28-3,41.81,0.64,9.41,1.62,18.81,1.73,28.25a99.49,99.49,0,0,1-1.05,16.5c-0.84,5.38-2.31,10.56-2.63,16-0.61,10.29.87,20.57,1.51,30.83,0.49,7.85-.18,15.76,1.08,23.55,1,6.14,3.12,13,8.43,16.75,4.55,3.24,9.35,2.79,14.41,1.42s9.94-1.5,14.89-2.64c4.33-1,7.17-2.59,7.11-7.67-0.11-9.74-9-11.74-15.93-15.9-8.75-5.29-10.07-14-10.15-23.48-0.1-11.55,1.51-22.4,8.92-31.62,6.68-8.32,14.3-15.65,17.39-26.18l-3.09.83c4.38,10.21,11.69,16.75,21.71,21.19,9.73,4.31,21.67,6.93,29.61,14.39,4,3.78,5.18,8.62,5.71,14,0.61,6.23.74,12.61,1,18.86,0.31,7.62-.46,15.25-1.09,22.84-0.51,6-2.8,11.94-2.81,18,0,8.77,1.5,22,13.24,19.89a40.25,40.25,0,0,1,12.29-.64c3.62,0.4,7.24.82,10.84,0.07,5.87-1.23,9.73-4.19,10.22-10.74a15.9,15.9,0,0,0-5.34-13c-2.29-1.86-4.61-2.17-7.45-1.82-2.29.28-4.67,1.43-6.22-.9-2-3-.78-9-0.43-12.33,0.42-4,1.21-8,1.47-12,0.39-6.22-.15-12.46.82-18.65a26.86,26.86,0,0,1,3-9.11c0.48-.86,1.21-3,2.15-3.46l-3.09.83c6.64-.8,13.55,1.08,20.27-0.08a35,35,0,0,0,9.52-3l-3.09.83c0.67,16.21,2.22,32.53.59,48.74a70.37,70.37,0,0,1-1.93,11.39c-0.93,3.43-2.14,6.85-1.71,10.45,0.77,6.41,5.56,10.48,11.61,11.83,7,1.55,14.11.29,21.16,0.65,3.32,0.17,6.46.56,9.72-.23,2.42-.59,4.6-1.2,5.7-3.7,2.28-5.16-.16-10.94-4.64-13.81-4.63-3-10.92-3.83-15.1-7.31-3.87-3.22-3.63-9.45-3.38-14,0.78-14.23,4.45-27.92,8.48-41.52,1.66-5.61,4.66-11.77,4.07-17.74-0.63-6.52-6.48-9.32-11.91-11.54-13.57-5.56-26-13.45-36-24.29-21.07-22.81-27.44-54.59-26.05-84.77,0,0.3-3.08.48-3.09,0.83-1.17,25.55,3,52.14,17.42,73.78a94.48,94.48,0,0,0,29.91,28.11,113.11,113.11,0,0,0,15.42,7.45c5.48,2.3,10.95,5.27,11.27,11.88,0.27,5.52-2.29,11-3.86,16.21a241,241,0,0,0-6.35,23.76,161.87,161.87,0,0,0-2.2,16.11c-0.42,4.62-1.11,11,1.74,15s9.26,5,13.41,7.14c4.65,2.39,8.25,5.06,8.45,10.68,0.17,4.53-1.14,7.62-5.81,7.41-6.79-.31-13.65.25-20.42-0.26-6.22-.47-12.58-2.34-15.35-8.47-3.2-7.08,1.14-15,2.1-22.2,2.33-17.38.56-35-.16-52.42,0,0.12-2.81.69-3.09,0.83-6.06,3-14.78,2-21.41,1.61-1.55-.09-3-0.28-4.52.45-2,1-2.88,3.37-3.84,5.39-2.59,5.47-2.72,11.93-2.81,17.88-0.14,9-2.05,17.91-2,26.88,0,3.62.3,7.4,4.83,6.93,3-.31,5.34-1.21,8.15.32a13.42,13.42,0,0,1,5.47,6.4c2,4.45,2.22,10.63-1,14.62-2.67,3.31-6.56,2.64-10.39,2.26-4.12-.41-7.92-1-12-0.16-6.63,1.37-11.65.61-13.82-6.47-3.56-11.56.36-22.17,1.29-33.74a158.26,158.26,0,0,0,.61-23.83c-0.43-6.22-.14-12.57-1.24-18.73-2.48-13.83-18.15-17.92-29.52-22.43-12.15-4.82-21.68-11-27-23.38a24,24,0,0,0-3.09.83c-2.63,9-8.52,15.71-14.47,22.69-6.33,7.42-10.28,14.71-11.38,24.54-0.88,7.88-1.65,18,1.74,25.47,3.31,7.24,10.23,9.35,16.6,13,5,2.88,10.55,10.76,6,16.49-2.32,3-9.06,2-12.65,3-6,1.59-11.35,3.08-16.73-1.06-5-3.86-7-10.43-8-16.44-1.13-7-.6-14-0.94-21-0.49-10-1.95-20-1.77-30,0.19-10.58,3.52-20.67,3.78-31.28,0.24-9.4-.67-18.8-1.37-28.17-1.95-26-3.19-59.23,26.06-70.3,28.21-10.68,59.74,25.34,86,2.4C1996.14-330.8,1994.49-331.23,1993.76-330.6Z" transform="translate(-1824.84 371)"/><path class="cls-12" d="M2018.54-207.32c-0.11,1.86-7.88,12.23-8.69,13C2011-197.74,2018.47-205.38,2018.54-207.32Z" transform="translate(-1824.84 371)"/><path class="cls-12" d="M2057.93-114.2c4.74-11.21.22-27-12.67-17C2059.68-142,2062.68-124.2,2057.93-114.2Z" transform="translate(-1824.84 371)"/><path class="cls-12" d="M2071-131.31c2.62,6.62-2.27,12.95-5.65,17.11C2068.75-118.61,2072.64-127.09,2071-131.31Z" transform="translate(-1824.84 371)"/><path class="cls-12" d="M2080-122.06c-0.83,5.71-6,8.14-10.63,9.52C2073.39-113.74,2079.52-118.53,2080-122.06Z" transform="translate(-1824.84 371)"/><path class="cls-12" d="M2046-118.31c0.8,2.43-.54,2.94-2,3.45C2045.07-115.24,2045.86-118.83,2046-118.31Z" transform="translate(-1824.84 371)"/><path class="cls-12" d="M2062.28-136.38c-0.85.09-5.2,1.24-5.86,1.79C2058.36-136.22,2060.1-136.15,2062.28-136.38Z" transform="translate(-1824.84 371)"/><path class="cls-12" d="M2040.51-136a73.86,73.86,0,0,0-3.91,7.42C2037.13-132.46,2038.78-134,2040.51-136Z" transform="translate(-1824.84 371)"/><path class="cls-12" d="M2019-132.41c1.38,7.42.36,14.64-3.81,20C2018.89-117.61,2019.85-127.76,2019-132.41Z" transform="translate(-1824.84 371)"/><path class="cls-12" d="M2005.87-135.82c7.22,7.58,5.07,14.57,3.45,22.18C2012.44-121.05,2009.92-131.42,2005.87-135.82Z" transform="translate(-1824.84 371)"/><path class="cls-12" d="M2004.23-137c-3-1.46-7.34,2.54-8.12,4.19C1998-136.87,2002.73-137.76,2004.23-137Z" transform="translate(-1824.84 371)"/><path class="cls-12" d="M1986.85-129.76c9.78-14,15.18,8.87,12.63,16.74C2003.24-119.57,1996.42-142.82,1986.85-129.76Z" transform="translate(-1824.84 371)"/><path class="cls-12" d="M1982.65-128.42l-0.89,4.79C1981.76-123.26,1982.65-129.44,1982.65-128.42Z" transform="translate(-1824.84 371)"/><path class="cls-12" d="M1986-173.12c-0.62,5.25-1.36,10.51-2.35,15.7C1982.76-161.29,1985.22-169.71,1986-173.12Z" transform="translate(-1824.84 371)"/><path class="cls-12" d="M2042.9-179.12a47,47,0,0,0-3.46,11.9A62.24,62.24,0,0,1,2042.9-179.12Z" transform="translate(-1824.84 371)"/><path class="cls-12" d="M1980.21-231.28a172.53,172.53,0,0,0,.65,29.41A166.65,166.65,0,0,1,1980.21-231.28Z" transform="translate(-1824.84 371)"/><path class="cls-12" d="M1979.54-214c-4.45-2.89-4.4-12.8-4.66-17.3C1975.08-227.88,1977.4-215.39,1979.54-214Z" transform="translate(-1824.84 371)"/><path class="cls-12" d="M1892.83-153.42c10.86,1.52,17.91,9.8,9.74,18.62C1911.07-143.93,1901.72-152,1892.83-153.42Z" transform="translate(-1824.84 371)"/><path class="cls-12" d="M1901.22-155.69c10.76,2.9,15.41,10.2,9.63,19.24C1916.49-146.13,1910.52-153.34,1901.22-155.69Z" transform="translate(-1824.84 371)"/><path class="cls-12" d="M1920.11-136.94c2.57-10.61.14-18.58-11.37-19.66C1917.67-155.8,1927.92-145,1920.11-136.94Z" transform="translate(-1824.84 371)"/><path class="cls-12" d="M1885.81-162.26a9.78,9.78,0,0,0-2.17,7.16C1883.47-158.19,1883.67-159.77,1885.81-162.26Z" transform="translate(-1824.84 371)"/><path class="cls-12" d="M1888.62-230.79c-1.31,2.91-5.38,11.78-5.38,13.7A61.21,61.21,0,0,1,1888.62-230.79Z" transform="translate(-1824.84 371)"/><path class="cls-12" d="M1903.89-209.8a48.32,48.32,0,0,0-5.7,5.76C1899.71-207.3,1901.48-208.32,1903.89-209.8Z" transform="translate(-1824.84 371)"/><path class="cls-12" d="M1925.14-241.21c-3.66-9-10.7-28.42-22.89-28.42C1915.75-269.35,1921.78-249.27,1925.14-241.21Z" transform="translate(-1824.84 371)"/><path class="cls-12" d="M1989.47-326.79c-12.75,8-29.57,8.46-44,7.59C1959.28-318.18,1977.48-319.4,1989.47-326.79Z" transform="translate(-1824.84 371)"/><path class="cls-16" d="M1985.45-306.12c0.19-.15.38-0.29,0.59-0.43A3.27,3.27,0,0,1,1985.45-306.12Z" transform="translate(-1824.84 371)"/><path class="cls-17" d="M2075.89-217.52L2076-218A1.3,1.3,0,0,1,2075.89-217.52Z" transform="translate(-1824.84 371)"/><path class="cls-18" d="M1886.66-219.64c0.67-2,5.65-13.37,3.83-15.59-0.41-.49-2.72,3.85-2.9,4,5.41-4.35-3.39-33.06-4.14-38.78-2.12-16.29-1.55-35.9,9.56-49a42.91,42.91,0,0,1,33.21-15.36c10.35,0.12,19.9,3.84,29.29,7.79,3.92,1.65,9.34,2.25,12.87,4.1-1-.54-22.28.42-24.32,1-7.27,2-2.43,3.83,3.46,4.86,6.12,1.07,12.58-.27,18.61-1.25,3.56-.58,12.18-3.74,15.53-2,4.18,2.23,1.35-.33,2.44,3.06,1.78,5.58-3.85,7-6,9.71,2-2.46,3.52,4.22,3.54,5.11,0.13,4.7-4.47,5.8-6.45,8.42-2.57,3.41-3-.13-1.46,5.68s3.46,11.43,4.87,17.32c0.94,3.91,2.88,7.09,4.62,10.66,0.73,1.5,0,3.91.85,5.21,0.53,0.84,2.48.7,3,1.48,3,4.68,18.31,22.28,13.56,28.11,0.95-1.16.93-4,1.06-5.44,1.53,8.46,11.12,17.35,5.87,26.92,0.16-.29-4.66-10.37-4.21-10.79-0.69.65,1.7,11.18,1.68,12.58-0.1,6.15-2.09,12.07-2.63,18.17-1.08,12.1,3.42,27.35-1.24,38.94-3,7.38-11.81,12.13-15.13,3.18-1.48-4,.68-38.9,1.81-39-1.11.1-.92,3.85-1.51,3.83-5.25-.17-8.89-58.85,2.87-62.37-3.33,1-4.22,5.36-7.14,6.74-1.35.64,1.39-9.55,1.64-9.67-4.92,2.3-4.67,9.83-5.64,14,0.11-.49-2-9.05-2.75-9.75-1.43-1.33-.91,10.79-2.37,12.42-2.21,2.47-7.82,1.32-10.48.87-13.5-2.27-25.62-12.56-31.47-24.67-0.35-2.3.74,6.26,0.52,6-5.61-7.1-7.17-16.15-14.06-22.85-2.33-2.27-24.08-13.62-22.69-3.2,0.28,2.11,9.15,4.16,10.81,5.16a28.5,28.5,0,0,1,8.71,8.35c1.39,2,5.65,14.56,5.4,14.48-3.09-.94-3.31-7.68-6.11-8.56,4.32,1.36-2.23,21.56-3.37,23.54-4,7-16.6,17.92-13.53,27.38a27.25,27.25,0,0,1,2.38-3.58c-2,1-1.94,20.07-1.91,21.75,0.06,3.47.81,7.15,0.58,10.6-0.18,2.72-2.16,1.76-3.26,4-0.3.61,17.21,3.09,7.33,8.65-2.07,1.17-8.36,1.67-10.45.33-1.84-1.18-5-10-3.87-10.19-0.45.06-1.49,2.46-1.89,2.16-3.6-2.73-.12-19.58-0.09-23.29,0.08-10.77-2.25-20.55,1.23-31.18C1891.54-234.51,1881.79-204.77,1886.66-219.64Z" transform="translate(-1824.84 371)"/><path class="cls-19" d="M1967.75-292.35c1.47,9.38,10.13,25.92,5.86,35.32-6.06,13.32-23.19-1.21-29.06-8-5-5.8-9.05-12.85-15.06-17.74-7.51-6.11-17.13-6-25.13-11.22-18.11-11.82-5.87-32.52,11.07-37.95,5.31-1.7,35.09.25,28.83,5.79-2.11,1.86-8.77-.51-10.45,2.36-2.67,4.59,6.59,7.3,10,8.14,8.18,2,31.4-4,34,2.84-0.34-.89-3.53,4.53-3.55,4.62-0.44,1.45,3.15,2.74,2.25,5-3.24,8-10.75-1.94-8.74,10.86C1970-278.33,1966-303.36,1967.75-292.35Z" transform="translate(-1824.84 371)"/><path class="cls-20" d="M1950.43-311.64c-5.3,0-17.37-2.33-20.34-7.36-3.43-5.81,3.17-8.34-4.91-11.07-6.67-2.25-16.07,3.07-16.31,10.27-0.21,6.15,5.42,10.4,10.12,13.22,10.37,6.24,29.93,12,41.84,6.51,17.45-8-2.52-11.53-10.38-11.58h0Z" transform="translate(-1824.84 371)"/><path class="cls-18" d="M1886.66-219.64c0.67-2,5.65-13.37,3.83-15.59-0.41-.49-2.72,3.85-2.9,4,5.41-4.35-3.39-33.06-4.14-38.78-2.12-16.29-1.55-35.9,9.56-49a42.91,42.91,0,0,1,33.21-15.36c10.35,0.12,19.9,3.84,29.29,7.79,3.92,1.65,9.34,2.25,12.87,4.1-1-.54-22.28.42-24.32,1-7.27,2-2.43,3.83,3.46,4.86,6.12,1.07,12.58-.27,18.61-1.25,3.56-.58,12.18-3.74,15.53-2,4.18,2.23,1.35-.33,2.44,3.06,1.78,5.58-3.85,7-6,9.71,2-2.46,3.52,4.22,3.54,5.11,0.13,4.7-4.47,5.8-6.45,8.42-2.57,3.41-3-.13-1.46,5.68s3.46,11.43,4.87,17.32c0.94,3.91,2.88,7.09,4.62,10.66,0.73,1.5,0,3.91.85,5.21,0.53,0.84,2.48.7,3,1.48,3,4.68,18.31,22.28,13.56,28.11,0.95-1.16.93-4,1.06-5.44,1.53,8.46,11.12,17.35,5.87,26.92,0.16-.29-4.66-10.37-4.21-10.79-0.69.65,1.7,11.18,1.68,12.58-0.1,6.15-2.09,12.07-2.63,18.17-1.08,12.1,3.42,27.35-1.24,38.94-3,7.38-11.81,12.13-15.13,3.18-1.48-4,.68-38.9,1.81-39-1.11.1-.92,3.85-1.51,3.83-5.25-.17-8.89-58.85,2.87-62.37-3.33,1-4.22,5.36-7.14,6.74-1.35.64,1.39-9.55,1.64-9.67-4.92,2.3-4.67,9.83-5.64,14,0.11-.49-2-9.05-2.75-9.75-1.43-1.33-.91,10.79-2.37,12.42-2.21,2.47-7.82,1.32-10.48.87-13.5-2.27-25.62-12.56-31.47-24.67-0.35-2.3.74,6.26,0.52,6-5.61-7.1-7.17-16.15-14.06-22.85-2.33-2.27-24.08-13.62-22.69-3.2,0.28,2.11,9.15,4.16,10.81,5.16a28.5,28.5,0,0,1,8.71,8.35c1.39,2,5.65,14.56,5.4,14.48-3.09-.94-3.31-7.68-6.11-8.56,4.32,1.36-2.23,21.56-3.37,23.54-4,7-16.6,17.92-13.53,27.38a27.25,27.25,0,0,1,2.38-3.58c-2,1-1.94,20.07-1.91,21.75,0.06,3.47.81,7.15,0.58,10.6-0.18,2.72-2.16,1.76-3.26,4-0.3.61,17.21,3.09,7.33,8.65-2.07,1.17-8.36,1.67-10.45.33-1.84-1.18-5-10-3.87-10.19-0.45.06-1.49,2.46-1.89,2.16-3.6-2.73-.12-19.58-0.09-23.29,0.08-10.77-2.25-20.55,1.23-31.18C1891.54-234.51,1881.79-204.77,1886.66-219.64Z" transform="translate(-1824.84 371)"/><path class="cls-18" d="M2056.2-133.22c2.74,4.51,4.17,22.91-4.69,18C2047.33-117.56,2050.12-136.56,2056.2-133.22Z" transform="translate(-1824.84 371)"/><path class="cls-18" d="M2010.25-121c0.16,2.48-2.13,8.6-5.93,6.72-2-1-1.83-11.73-2-14.12s-3.38-5.84.8-6.16c4.68-.35,7,10.77,7.14,13.55C2010.73-113.39,2009.76-128.59,2010.25-121Z" transform="translate(-1824.84 371)"/><path class="cls-18" d="M2073.09-128.43c-0.43-3.6,6.2,2.09,5.68,6.11-0.19,1.5-7.58,10.83-9,7.63-1-2.25,3.49-10.75,3.31-13.74C2072.6-132.56,2073.58-120.33,2073.09-128.43Z" transform="translate(-1824.84 371)"/><path class="cls-18" d="M1996.2-130.6c3,4,4.32,19.24-4.51,16.49-7.81-2.43-.33-23,4.51-16.49h0Z" transform="translate(-1824.84 371)"/><path class="cls-18" d="M2068.22-133.22c4.75,4.57-1.84,22-6.45,14.65-2.55-4.09-1.91-22.75,6.45-14.65C2071.31-130.25,2066.74-134.65,2068.22-133.22Z" transform="translate(-1824.84 371)"/><path class="cls-18" d="M2009.92-132.89c-3.66-4.73,4.69-4.86,7.24-.44,1.57,2.7.81,19.55-3.94,18.2-0.19-.05-1.94-16-3.3-17.76h0Z" transform="translate(-1824.84 371)"/><path class="cls-18" d="M1886.66-219.64c0.67-2,5.65-13.37,3.83-15.59-0.41-.49-2.72,3.85-2.9,4,5.41-4.35-3.39-33.06-4.14-38.78-2.12-16.29-1.55-35.9,9.56-49a42.91,42.91,0,0,1,33.21-15.36c10.35,0.12,19.9,3.84,29.29,7.79,3.92,1.65,9.34,2.25,12.87,4.1-1-.54-22.28.42-24.32,1-7.27,2-2.43,3.83,3.46,4.86,6.12,1.07,12.58-.27,18.61-1.25,3.56-.58,12.18-3.74,15.53-2,4.18,2.23,1.35-.33,2.44,3.06,1.78,5.58-3.85,7-6,9.71,2-2.46,3.52,4.22,3.54,5.11,0.13,4.7-4.47,5.8-6.45,8.42-2.57,3.41-3-.13-1.46,5.68s3.46,11.43,4.87,17.32c0.94,3.91,2.88,7.09,4.62,10.66,0.73,1.5,0,3.91.85,5.21,0.53,0.84,2.48.7,3,1.48,3,4.68,18.31,22.28,13.56,28.11,0.95-1.16.93-4,1.06-5.44,1.53,8.46,11.12,17.35,5.87,26.92,0.16-.29-4.66-10.37-4.21-10.79-0.69.65,1.7,11.18,1.68,12.58-0.1,6.15-2.09,12.07-2.63,18.17-1.08,12.1,3.42,27.35-1.24,38.94-3,7.38-11.81,12.13-15.13,3.18-1.48-4,.68-38.9,1.81-39-1.11.1-.92,3.85-1.51,3.83-5.25-.17-8.89-58.85,2.87-62.37-3.33,1-4.22,5.36-7.14,6.74-1.35.64,1.39-9.55,1.64-9.67-4.92,2.3-4.67,9.83-5.64,14,0.11-.49-2-9.05-2.75-9.75-1.43-1.33-.91,10.79-2.37,12.42-2.21,2.47-7.82,1.32-10.48.87-13.5-2.27-25.62-12.56-31.47-24.67-0.35-2.3.74,6.26,0.52,6-5.61-7.1-7.17-16.15-14.06-22.85-2.33-2.27-24.08-13.62-22.69-3.2,0.28,2.11,9.15,4.16,10.81,5.16a28.5,28.5,0,0,1,8.71,8.35c1.39,2,5.65,14.56,5.4,14.48-3.09-.94-3.31-7.68-6.11-8.56,4.32,1.36-2.23,21.56-3.37,23.54-4,7-16.6,17.92-13.53,27.38a27.25,27.25,0,0,1,2.38-3.58c-2,1-1.94,20.07-1.91,21.75,0.06,3.47.81,7.15,0.58,10.6-0.18,2.72-2.16,1.76-3.26,4-0.3.61,17.21,3.09,7.33,8.65-2.07,1.17-8.36,1.67-10.45.33-1.84-1.18-5-10-3.87-10.19-0.45.06-1.49,2.46-1.89,2.16-3.6-2.73-.12-19.58-0.09-23.29,0.08-10.77-2.25-20.55,1.23-31.18C1891.54-234.51,1881.79-204.77,1886.66-219.64Z" transform="translate(-1824.84 371)"/><path class="cls-21" d="M1881.62-201.3c2.79,18.25-4.92,43,5.57,58.55,6,9,9.29,9.81,19.4,8.09,4.51-.77,15.51,0,17.84-4.37-3.16,1.67-1.78-5.77-1.83-7.25-0.2-6.39-.12-5.7-4.88-9.37-9.19-7.06-16.84-7.53-18.18-20.52-1-10-1.28-24.78,4-33.73,6.66-11.27,18.27-17.58,21.92-31.23,7.73,18.85,22.49,20.88,39,28.24,6.24,2.78,13.77,6.52,16.26,12.85,2.18,5.55,1.49,13.72,2.11,19.67,1.09,10.42.45,20.11-.42,30.47-0.46,5.57-2.62,12.15-2.84,17.27-0.19,4.3,1,15.28,4.19,18.42,4.75,4.74,10.43,1.09,15.27,1.2,4.43,0.1,9.47,1.23,13.68.67,6.32-.84,6.21-0.08,7.5-7.21s1.67-16.55-7.34-18.59c-4.76-1.08-5.73,3.14-8.59-.21-3-3.56.62-19.31,0.81-24.12,0.32-8-.74-20.47,3.85-27.76,3.49-5.54-.21-2.7,7.24-3.22s14.69,1.34,21.6-2.51c0.71,18.08,2.91,38.11-.39,56.07-0.59,3.2-3,5.83-3.48,8.95-0.22,1.46,1.27,9.41,2,10.77,2.91,5.16,9.18,6.92,15.09,7.28,5.45,0.33,11-.95,15.94-0.35,5.7,0.69,11.77,3.42,13.66-4.78,1.8-7.78-5-10.87-10-13.38-0.83-.42-5.89-4.25-6.89-4.95-3.14-2.17-3.78,1.76-5.62-3.67-14.76,11.2-20.57-39-9.47-47.54,0.81-.63,1,10.55,1.93,10.55-2,0,3-18.68,4.15-17.49a19.07,19.07,0,0,1,.65,2.89c0.23,0.28,1.75-5.34,2.14-5.37a12.8,12.8,0,0,1,.6,3.11c-0.26-.44,6-11.28,7.34-11.6-0.64.15-5.93,28-5.78,31.81,2.56-12.08,17-35.65,4.95-44.35-7.82-5.65-18.19-8.35-26.35-13.84-33.24-22.35-45-60.47-43.05-99.18-13.42,12.15-31.14,4.85-45.62-.58-22-8.26-47.2-6-61.13,15.26-11.07,16.88-6.49,38.18-5.06,57,0.81,10.62,2.62,22.36,1.31,33-1.09,8.87-4.6,15.71-3.18,25.07C1883.42-189.57,1879.84-213,1881.62-201.3Zm191.47,72.87c-0.43-3.6,6.2,2.09,5.68,6.11-0.19,1.5-7.58,10.83-9,7.63-1-2.25,3.49-10.75,3.31-13.74C2072.6-132.56,2073.58-120.33,2073.09-128.43ZM2061-133.82c6.24-7.1,13.85,12.83,4.63,16.79-5.11,2.2-7.13-13.93-4.63-16.79C2062.6-135.66,2059.65-132.29,2061-133.82Zm-11.12,15.47c0-4.32-.06-18.54,6.88-14,2.51,1.66,2.52,11.3,1.56,13.31C2056.71-115.64,2049.87-111.51,2049.87-118.35Zm-37.19,1.49c0.72-4.64-6.6-22,.72-20.17,7.91,2,4.07,23.1-.18,21.89l-0.54-1.72h0Zm-12-16c3.59-6.43,15.49,13.7,6.77,18.19C2001.12-111.46,2002.67-128.52,2000.67-132.89Zm-11.86,16c0.31-7.35,5.43-24.06,9.32-8.35,0.74,3,1,8.6-2.06,10.49-1.92,1.18-7.4,1.28-7.26-2.14C1989-121.23,1988.67-113.47,1988.81-116.86Zm-76.66-36a1.68,1.68,0,0,1-1.4-2.06c6.29-5.11,12.5,11.66,8.84,16.05-6.3,7.56-3.55-11.77-7.45-14h0Zm-9.25.67-2.86-1.22c0.82,0.87,7.16.45,9.35,3.07s3.34,9.77.43,12.71c-4.47,4.52-2.8-2.33-3-4.32-0.42-3.81,1.35-8.87-3.9-10.24C1898-153.54,1907.94-150.9,1902.9-152.22Zm-7.14.82c6.52,0.25,12.42,11,5.79,15.48C1894.42-131.08,1894.43-151.45,1895.76-151.4Zm-9.1-68.25c0.67-2,5.65-13.37,3.83-15.59-0.41-.49-2.72,3.85-2.9,4,5.41-4.35-3.39-33.06-4.14-38.78-2.12-16.29-1.55-35.9,9.56-49a42.91,42.91,0,0,1,33.21-15.36c10.35,0.12,19.9,3.84,29.29,7.79,3.92,1.65,9.34,2.25,12.87,4.1-1-.54-22.28.42-24.32,1-7.27,2-2.43,3.83,3.46,4.86,6.12,1.07,12.58-.27,18.61-1.25,3.56-.58,12.18-3.74,15.53-2,4.18,2.23,1.35-.33,2.44,3.06,1.78,5.58-3.85,7-6,9.71,2-2.46,3.52,4.22,3.54,5.11,0.13,4.7-4.47,5.8-6.45,8.42-2.57,3.41-3-.13-1.46,5.68s3.46,11.43,4.87,17.32c0.94,3.91,2.88,7.09,4.62,10.66,0.73,1.5,0,3.91.85,5.21,0.53,0.84,2.48.7,3,1.48,3,4.68,18.31,22.28,13.56,28.11,0.95-1.16.93-4,1.06-5.44,1.53,8.46,11.12,17.35,5.87,26.92,0.16-.29-4.66-10.37-4.21-10.79-0.69.65,1.7,11.18,1.68,12.58-0.1,6.15-2.09,12.07-2.63,18.17-1.08,12.1,3.42,27.35-1.24,38.94-3,7.38-11.81,12.13-15.13,3.18-1.48-4,.68-38.9,1.81-39-1.11.1-.92,3.85-1.51,3.83-5.25-.17-8.89-58.85,2.87-62.37-3.33,1-4.22,5.36-7.14,6.74-1.35.64,1.39-9.55,1.64-9.67-4.92,2.3-4.67,9.83-5.64,14,0.11-.49-2-9.05-2.75-9.75-1.43-1.33-.91,10.79-2.37,12.42-2.21,2.47-7.82,1.32-10.48.87-13.5-2.27-25.62-12.56-31.47-24.67-0.35-2.3.74,6.26,0.52,6-5.61-7.1-7.17-16.15-14.06-22.85-2.33-2.27-24.08-13.62-22.69-3.2,0.28,2.11,9.15,4.16,10.81,5.16a28.5,28.5,0,0,1,8.71,8.35c1.39,2,5.65,14.56,5.4,14.48-3.09-.94-3.31-7.68-6.11-8.56,4.32,1.36-2.23,21.56-3.37,23.54-4,7-16.6,17.92-13.53,27.38a27.25,27.25,0,0,1,2.38-3.58c-2,1-1.94,20.07-1.91,21.75,0.06,3.47.81,7.15,0.58,10.6-0.18,2.72-2.16,1.76-3.26,4-0.3.61,17.21,3.09,7.33,8.65-2.07,1.17-8.36,1.67-10.45.33-1.84-1.18-5-10-3.87-10.19-0.45.06-1.49,2.46-1.89,2.16-3.6-2.73-.12-19.58-0.09-23.29,0.08-10.77-2.25-20.55,1.23-31.18C1891.54-234.51,1881.79-204.77,1886.66-219.64Z" transform="translate(-1824.84 371)"/><path class="cls-22" d="M2095.51-323.9c12.2,1,11.36-19.89,3.89-25,3.89-.62-1.71-3.75-2.11-4,5.21-2.12-5-5.71-5.68-6,6.74-.81-2.77-3.45-3.7-3.69-4.93-1.26-6.91-1.39-12.54,1.21-0.26-3.16,3.78-5.4,6.33-6.28-5.18-.4-9.55,3-12.34,7.11,0.06-.16,2.59-6,1.38-7-1.61-1.32-5.26,8.42-5.28,8.48-1.63-4.69-4.73-10.65-9.91-12.06a16.68,16.68,0,0,1,2.28,7.93,13.64,13.64,0,0,0-10.07-6.44c2,2.24,1.63,3.47,2.93,5.45a16.3,16.3,0,0,0-13.32-6.11c2.8,0.57,4.81,1.15,5.36,3.8-5-3.38-11.35-2.55-16.73-.33a15,15,0,0,1,6.66,1.82c-4.89-.82-11.18-0.58-15.1,2.81a48.79,48.79,0,0,1,7.8-.5,18.83,18.83,0,0,0-10.56,3.8c2-.29,4.32-0.4,6.34-0.82-7.37,2.88-17.88,17.06-25.17,14,1.23,2.23,3.26,3.07,5.85,3-10,1.31-6.21,19.55-15.27,20,1.39,1.56,4,1.35,5.85,1.32-6.15,3.62-3.6,11.63-8.78,15a1.72,1.72,0,0,0,2.44-.33c-4.89,3.27-.47,13.91-6.82,14.38a3.12,3.12,0,0,0,3.09.49c-3.53,10.52-1.19,21.82,3.5,30.26,2,3.67,13.63,19.7,13.54,20,0.7,4.64,4.73,8.42,5,12.72a9.11,9.11,0,0,0,.81-5.28c1,0.53,7.38,20.16,8.29,15.87,1.26,3.71,5.12,5.9,6.33,8.25,0.58,1.13-.36,6.5-0.66,6.33a4.3,4.3,0,0,0,2.12-.22,7.86,7.86,0,0,0-.6,3.5c-1.29-5.47,9.79.38,5.5,3q0.48-.95,1-1.87c0.3-.17,1.06,2.75.87,2.7,4.2,1.08-3.61,0,2-.21,4.41-.17,10.17-2.82,13-6.11a9.53,9.53,0,0,1-1.46,7.76c4.71-3,17-5.8,17-12.89,1.55,4.2,5.42-1.07,7.89-2.66,1.4-.9,9.37-5.82,9.48-7.42l-0.65,2.32c3.78-2.23,8.32-7.72,9.48-11s-0.19-6.08.35-8.8c0.71-3.57,4.78-6.82,4.78-11.75,0,6.92,2.85-3.2,2.76-4.79a6.69,6.69,0,0,0,2.77,3.3c-3.9-8.26,8.48-17.29,8-26.11,1.74,4.55,4.43-4.82,4.38-5.95,2.27,3.24,2.5-8.17,2.28-9.08,1.84,2.57,1.82-1.56,1.75-2.52-0.27-3.94-2.91-7.86-5.65-10.53,1.51,0.51,3.33,1,4.9,1.41-6.12-1.65-10.5-10.56-14.63-14.8a9.11,9.11,0,0,0,3.56.17c-1.6-.39-6.07-2.48-6.44-4.78C2093.65-320.69,2093.7-324.6,2095.51-323.9Z" transform="translate(-1824.84 371)"/><path class="cls-23" d="M2073.58-337.62c0.06,2.19-.42,5-1.79,6.78-0.14-1.83-.63-4-0.65-5.95a20.61,20.61,0,0,1-1.79,6.77,42,42,0,0,1-2.6-5.29c0.42,2.41-.38,7.88.46,9.59-2.85-5.78-2.64-10.36-8.91-14.54,1.15,2.33,1.23,4.15,2.12,6.28a23.72,23.72,0,0,0-7-6.61,28.66,28.66,0,0,1,2.43,9.41c-1.33-3-2.8-6.32-5-8.76a18.3,18.3,0,0,1-1.47,6.78,12.38,12.38,0,0,0-.8-5.62c-1.3,2.49-11.36,11-11.43,11.5,0.16-1.35,1.51-3.31,2.33-4.39-2,1.85-10.51,10.81-8.44,14a13.44,13.44,0,0,1-.65-2.57c-0.35,2.25-.72,5.45.16,7.6,0.79-1.42,2-3.58,3.41-4.46-1.48.94-1.51,8.29-2.69,9.43,0.85-.82,1.23-2.43,1.71-3.49-1.07,5.75-1.72,12.43.32,18,0.14-1.22.44-2.93,0.49-4.3,0,2.43,0,5.84,1.21,7.94,0.5,0.85,5.53,5.82,4.63,2.64,1,3.45,8.84,10.65,8.78,9.92,1,3.67,3.88,3.78,5.55,6.58,0.76,1.27,1.43,5.42,2.65,6.79,3.1,3.46,10.82,2.92,12.57,7.35a7.88,7.88,0,0,1-1.44-2.45c1.65-.83,2.76,3.62,2.75,3.93q0.38-1.76.76-3.53a3.44,3.44,0,0,1,.76,4,4.94,4.94,0,0,0,2.48-5.51,7.22,7.22,0,0,1,1.19,3.53c0.37-4,6.78-8.39,4-12.56,6.26,1.17,7.38-8.73,8.53-10.94,4.25-8.17,5.72-10.48,3-20.55-1.48-5.57-2.35-12-4.09-17.43C2085-324.51,2074.08-331.18,2073.58-337.62Z" transform="translate(-1824.84 371)"/><path class="cls-24" d="M2070.26-254.79a3.58,3.58,0,0,0-2.34-3.72c0.43,0.95,1.09,1.89,1.48,2.8-2.33-3-5.38-2.43-8-4.35-5-3.65-5.87-7.47-9.58-11.8-4.28-5-9.49-7.62-12-14.13-2,3.93-6-7.9-6.08-8.62l-0.28,2.43c-2-5.46-1.84-11.42-1-17.1a2.47,2.47,0,0,1-1.28,1.88c-1.25,0,2.62-8.57,2.82-9.46-1.51,1.12-2.53,3.09-3.45,4.7a23.15,23.15,0,0,1-.17-9.75,21.29,21.29,0,0,0,.74,3.72c0.48-6.09,5.34-11.16,9.73-15.06-1,1.25-4.07,4.84-3.43,6.12,2.67,0,10.12-9.63,11.2-12.17,0.32,1.79,1,3,1,5a22.58,22.58,0,0,0,1-6.2,36.93,36.93,0,0,1,4.88,8,31.13,31.13,0,0,0-2.59-8.65,25.61,25.61,0,0,1,7.19,6.4,23,23,0,0,0-2.39-6.17c5.53,3.4,8.18,8.46,9.56,14.55,0.52-3.34-.42-7.15-1-10.45l3.09,6.29a22.61,22.61,0,0,0,1.71-8,67,67,0,0,1,.91,7c1-1.54,1.49-5,1.84-6.14,0.55,7.15,12.09,13.79,14,21.6,1.81,7.31,5.63,17.08,5.64,24.37,0,5.22-2.58,7.27-4.44,11.53a96.32,96.32,0,0,1-5.8,10.6q-4.66-.25-2.54,3.44a7.08,7.08,0,0,1-2.2,4.62c-0.53,1.42-2.45,3.84-3.09,6a4.34,4.34,0,0,0-.44-2.81c-0.27,2.5-2.25,2.81-3.36,4.49a9.68,9.68,0,0,0-.29-4C2071.31-256.73,2069.54-252.55,2070.26-254.79Zm5.59-2.23a4.49,4.49,0,0,0,.16-4.44c3.62,0.08,5.23-4.54,3.18-7.75,5.32,0.35,8.73-5.51,7.07-10.25,12.7-4.25,3.85-21.15,2.08-29.41-0.88-4.1-.79-8.21-2.56-12.05-2.77-6-9.15-9.45-12-15.32-0.2,2.62-1.61,3.76-2.16,6,0-1.61-.27-3.27-0.46-4.87a49.54,49.54,0,0,1-1.79,5.62c-0.6-1.46-1.68-2.84-2.13-4.34,0.11,0.73,1.38,8.4.05,8.4,1.24,0-7.77-13.7-8.37-14.14,1,2.22,1,4.18,1.69,6.22A25.61,25.61,0,0,0,2054-340a26.85,26.85,0,0,1,2.2,10,39.74,39.74,0,0,0-5.11-9.37,16.71,16.71,0,0,1-1.94,7.14,14.61,14.61,0,0,0-.56-6c-0.8,1.5-10.49,13.14-11.58,11.36a5.38,5.38,0,0,1,1.15-3.08,34.43,34.43,0,0,0-6.16,9.69c-0.38.81-.73,4.76-1.49,1.63a21.35,21.35,0,0,0,.14,5.43c-0.11.18,3.15-5,3.77-4.06,1.06,1.66-3.12,7-3.12,9.24a24.29,24.29,0,0,0,1.51-3.22c0,4.92-1.15,11.57.43,17l0.37-3.25c0.3,1.66,3,14.7,5.94,10.26,0.6,1.39,1.58,4.17,2.65,5.43a10.12,10.12,0,0,0,0-1.17c3.63,6.8,9.54,7.08,13.72,13.23,2.51,3.69.32,6.23,5.53,9.21,2.91,1.67,8.44.48,9.22,4.69-0.33,1.27.06-2.82,0.49-2.82,1.32,0,1.38,3.31,1.27,3.78,1.88-1.42,1.93-3.48,2.3-5.09l1.15,2.95C2076.33-257.86,2075.74-257.61,2075.85-257Z" transform="translate(-1824.84 371)"/><path class="cls-25" d="M2031-308.21c-0.09,1.24,1.78-2.38,1.95-3-1.07,5.75-1.72,12.43.32,18,0.14-1.22.44-2.93,0.49-4.3,0,2.43,0,5.84,1.21,7.94,0.5,0.85,5.53,5.82,4.63,2.64,1,3.45,8.84,10.65,8.78,9.92,1,3.67,3.88,3.78,5.55,6.58,0.76,1.27,1.43,5.42,2.65,6.79,3.1,3.46,10.82,2.92,12.57,7.35a7.88,7.88,0,0,1-1.44-2.45c1.65-.83,2.76,3.62,2.75,3.93q0.38-1.76.76-3.53a3.44,3.44,0,0,1,.76,4,4.94,4.94,0,0,0,2.48-5.51,7.22,7.22,0,0,1,1.19,3.53c0.37-4,6.78-8.39,4-12.56,5.06,0.95,5.62-4.76,7.39-7.51q-2-3.36,1.58-3.75a13.13,13.13,0,0,0,3.79-6c-2.62,2.24-2.13,5.11-5.75,3.16-2.81-1.51-2.91-8.83-3.22-11.39s-2.27-11.26,1.78-11.9c2.65-.42,5.12,3.52,5.88,5.61-2.27-6.13-2.05-13-4.39-19s-12.69-11.76-13.18-18c0.06,2.19-.42,5-1.79,6.78-0.14-1.83-.63-4-0.65-5.95a20.61,20.61,0,0,1-1.79,6.77,42,42,0,0,1-2.6-5.29c0.42,2.41-.38,7.88.46,9.59-2.85-5.78-2.64-10.36-8.91-14.54,1.15,2.33,1.23,4.15,2.12,6.28a23.72,23.72,0,0,0-7-6.61,28.66,28.66,0,0,1,2.43,9.41c-1.33-3-2.8-6.32-5-8.76a18.3,18.3,0,0,1-1.47,6.78,12.38,12.38,0,0,0-.8-5.62c-1.3,2.49-11.36,11-11.43,11.5,0.16-1.35,1.51-3.31,2.33-4.39-2,1.85-10.51,10.81-8.44,14a13.44,13.44,0,0,1-.65-2.57c-0.35,2.25-.72,5.45.16,7.6,0.86-1.43,2-3.55,3.41-4.46-0.53.34-2.84,7.81-2.92,8.92C2030.87-305.9,2031.2-310.52,2031-308.21Zm26.31-9.75-1.9-1.38c1.83,3.71,16.85,5.13,9.43-2.77,2.71,2.89-6.79.24-4.88,1-5.14-2-4.24-6.73-10.44-3.09-3.26,1.91-8.1,16.6-10.49,6.22-0.6-2.64,2.8-10.59,5.41-11.87,4.34-2.12.88,1.58,4,2.36,2.37,0.6,2-5.45,3.65-5.08,2.06,0.47,2,5,4,5.08,2.79,0.09,1.39-4.47,2.59-4.49,1.84,0,3.33,5.75,3.46,5.72,1.35-.35,1.21-5.92.65-6.64,1,1.26,3,9.67,4.36,9.6,3-.15.63-5.94,2.24-6.34-1.31.33,9.54,8.53,6.09,0,8.92,6.86-8.64,7.74-5.36,14.41,1.06,2.15,3.91-.79,4.74.15,0.38,0.42-.31,7.7-0.13,8.58,0.79,3.83,4.21,6.94,4.69,10.85,0.7,5.78-2.82,9.81-9.41,7.9-12.4-3.6,0-22.8-12.72-30.16h0Zm-16.16,8.61c1.27-1.38,18.06,3.5,15.27,9.16-3.89,7.89-20.54-3.44-15.27-9.16h0Zm-3.48,7.91c1.45,6.4,8.82,5.78,13.8,6.95,5.3,1.24,7.39.79,5.05,6-0.47,1-8.15,7.55-9,7.57-4.66.13-3.94-6-6.5-8.89-1.25-1.42-2.6,1.7-3.45.33C2036-292.17,2036.71-302.91,2037.69-301.44Z" transform="translate(-1824.84 371)"/><path class="cls-26" d="M2060.64-291.9c0-3.62.24-10.53-2-13.61-3.17-4.37-9.59-1.34-11.7-5.74-3.59-7.46,7.86-5.95,11.18-2.82C2067-305.75,2057.58-300.27,2060.64-291.9Z" transform="translate(-1824.84 371)"/><g class="cls-27"><path class="cls-28" d="M2060.64-291.9a5.58,5.58,0,0,1,0-2C2060.65-292.67,2060.64-291.9,2060.64-291.9Z" transform="translate(-1824.84 371)"/><path class="cls-28" d="M2045.92-312.62c4.12-12.57,18.05,2.48,16.47,10.86-1.12-12.55-12.33-2.27-16.47-10.86C2047.87-318.56,2048.48-307.31,2045.92-312.62Z" transform="translate(-1824.84 371)"/></g><path class="cls-29" d="M2085.27-311c-2.26,3.9-4.75,1.09-6.09,5.12-1.2,3.61,2.65,10.75,2.57,14.76-1.18-5.6-7.21-12.4-6.85-18C2075.35-316.16,2085-321.37,2085.27-311Z" transform="translate(-1824.84 371)"/><g class="cls-27"><path class="cls-28" d="M2078.18-315.48c4.09-4,9.24,1.15,6.56,5.35-3.11,4.87-12.66-1.88-6.61,9-3-5.44-4.73-9.23.05-14.38C2081.54-318.79,2072.45-309.31,2078.18-315.48Z" transform="translate(-1824.84 371)"/></g><path class="cls-30" d="M2059.88-309.37c-3.2-1.14-16.07,1.29-13.65-4.22C2049.87-321.88,2058.3-314,2059.88-309.37Z" transform="translate(-1824.84 371)"/><path class="cls-31" d="M2076.69-311.89c-3.34,7,5,15.07,5.81,22C2081.94-297.88,2073.38-304.13,2076.69-311.89Z" transform="translate(-1824.84 371)"/><path class="cls-31" d="M2061.2-309.36c3.92,6.8-2.37,13.63.55,20.27C2058.7-295.17,2064.42-304,2061.2-309.36Z" transform="translate(-1824.84 371)"/><path class="cls-12" d="M2065.12-319.87c-0.91,4.79-8.52-1.39-10-2.71C2056.53-321.32,2064.5-316.74,2065.12-319.87Z" transform="translate(-1824.84 371)"/><path class="cls-12" d="M2063.92-318.1a3,3,0,0,0,2.33-1.52S2062.74-318.1,2063.92-318.1Z" transform="translate(-1824.84 371)"/><path class="cls-12" d="M2072.54-317.57a1.34,1.34,0,0,0,.65-2.23c1,1.88,5-1.1,6.23-1.18-3,.2-2.83,3.83-6.18,1.23C2075.36-319.63,2073.12-317.7,2072.54-317.57Z" transform="translate(-1824.84 371)"/><path class="cls-12" d="M2038.14-309.46c-0.5,4.67,1.17,10.85,6,12.35C2038.16-298.83,2037.68-305.37,2038.14-309.46Z" transform="translate(-1824.84 371)"/><g class="cls-32"><path class="cls-33" d="M2052-278.79c2.09-12.11,17.16-7.75,24.92-6.56,4.31,0.67,7.63.41,9.43,5.44,1.42,4-.87,12.11-6.64,11,2.78,4.17-3.63,8.59-4,12.56a7.22,7.22,0,0,0-1.19-3.53,4.94,4.94,0,0,1-2.48,5.51,3.44,3.44,0,0,0-.76-4q-0.39,1.76-.76,3.53c0-.31-1.09-4.76-2.75-3.93a7.88,7.88,0,0,0,1.44,2.45c-1.73-4.39-9.49-3.67-12.57-7.35-1.28-1.53-2-5.73-2.37-6.91-1-3.18-3-4.07-2.26-8.27C2053-284.42,2051-273.18,2052-278.79Z" transform="translate(-1824.84 371)"/></g><path d="M2079.7-268.88c-2.14-.58-6.7-2.67-6.93-5.29-3.38,4.56-11.94,5.78-17.05,4.63,4.88,1.86,8.23-.51,12.77-0.68C2072.18-270.36,2076.15-268.55,2079.7-268.88Z" transform="translate(-1824.84 371)"/><path d="M2074-281.54a27,27,0,0,1-1.3,8.26C2072.3-272.23,2074-282.84,2074-281.54Z" transform="translate(-1824.84 371)"/><path class="cls-34" d="M2065-276.26h0Z" transform="translate(-1824.84 371)"/><path class="cls-34" d="M2063.11-279.38h0Z" transform="translate(-1824.84 371)"/><path class="cls-34" d="M2061.4-276h0Z" transform="translate(-1824.84 371)"/><path class="cls-34" d="M2064.24-273.67h0Z" transform="translate(-1824.84 371)"/><path class="cls-34" d="M2057.42-273.26h0Z" transform="translate(-1824.84 371)"/><path class="cls-34" d="M2058.64-277.14h0Z" transform="translate(-1824.84 371)"/><path class="cls-34" d="M2060.1-281.44h0Z" transform="translate(-1824.84 371)"/><path class="cls-34" d="M2057.75-279.21h0Z" transform="translate(-1824.84 371)"/><path class="cls-34" d="M2076.74-275.52h0Z" transform="translate(-1824.84 371)"/><path class="cls-34" d="M2078.62-278.63h0Z" transform="translate(-1824.84 371)"/><path class="cls-34" d="M2080.32-275.24h0Z" transform="translate(-1824.84 371)"/><path class="cls-34" d="M2077.48-272.93h0Z" transform="translate(-1824.84 371)"/><path class="cls-34" d="M2084.3-272.52h0Z" transform="translate(-1824.84 371)"/><path class="cls-34" d="M2083.08-276.4h0Z" transform="translate(-1824.84 371)"/><path class="cls-34" d="M2081.62-280.7h0Z" transform="translate(-1824.84 371)"/><path class="cls-34" d="M2084-278.46h0Z" transform="translate(-1824.84 371)"/><path class="cls-35" d="M2075.91-311.45s3.11,4,9.37.44C2084.95-316.22,2080.7-320.88,2075.91-311.45Z" transform="translate(-1824.84 371)"/><path class="cls-36" d="M2049.1-313.53a3,3,0,1,0,5.93,0A3,3,0,1,0,2049.1-313.53Z" transform="translate(-1824.84 371)"/><path class="cls-37" d="M2050.37-313.53c0,4.32,3.45,0,3.39,0S2050.37-317.83,2050.37-313.53Z" transform="translate(-1824.84 371)"/><path class="cls-38" d="M2050-314.5q0.14,2.89,1.52.36-0.13-2.88-1.52-.36C2049.81-313.75,2050.15-315.24,2050-314.5Z" transform="translate(-1824.84 371)"/><path class="cls-39" d="M2078.61-313.27c0,7.18,5.07,0,4.94,0C2083.68-313.27,2078.61-320.45,2078.61-313.27Z" transform="translate(-1824.84 371)"/><path class="cls-37" d="M2079.67-313.27c0,4.1,2.89,0,2.82,0C2082.56-313.27,2079.67-317.36,2079.67-313.27Z" transform="translate(-1824.84 371)"/><path class="cls-38" d="M2079.34-314.21q0.09,2.77,1.27.35-0.08-2.75-1.27-.35C2079.2-313.49,2079.48-314.92,2079.34-314.21Z" transform="translate(-1824.84 371)"/><path class="cls-18" d="M2063.78-284.47c3.74,2.5,10.06,4,8.34,9.27-1.31,4-7.07,5.68-10.74,5.21-13.53-1.71-5.92-20,2.4-14.48h0Z" transform="translate(-1824.84 371)"/><path class="cls-18" d="M2063.78-284.47c3.74,2.5,10.06,4,8.34,9.27-1.31,4-7.07,5.68-10.74,5.21-13.53-1.71-5.92-20,2.4-14.48h0Z" transform="translate(-1824.84 371)"/><path class="cls-40" d="M2080.35-266.56c-3,.55-12.8-3.7-14.5.5C2064.41-262.51,2080.9-258.95,2080.35-266.56Z" transform="translate(-1824.84 371)"/><path class="cls-40" d="M2067.48-265.54c-0.14,1.34,4.27,1.81,4.41.48s-4.27-1.81-4.41-.48C2067.42-265,2067.53-266.06,2067.48-265.54Z" transform="translate(-1824.84 371)"/><path class="cls-40" d="M2073.09-309.53c0.65,4.81,5.38,10,5.21,14.5-0.27,6.84-5.37,2.95-7.69,5.49,3-3.33,4.38-2.56,4.27-7.44C2074.86-297.79,2071.13-312.06,2073.09-309.53Z" transform="translate(-1824.84 371)"/><path class="cls-12" d="M2067.41-325.88a15.3,15.3,0,0,1,.27,4.79C2067.47-318,2069.68-322.75,2067.41-325.88Z" transform="translate(-1824.84 371)"/><path class="cls-18" d="M2063.78-284.47c3.74,2.5,10.06,4,8.34,9.27-1.31,4-7.07,5.68-10.74,5.21-13.53-1.71-5.92-20,2.4-14.48h0Z" transform="translate(-1824.84 371)"/><path class="cls-41" d="M2055.72-269.54c-3.58,10.49,11.08,7.23,13.47,13.28a7.88,7.88,0,0,1-1.44-2.45c1.65-.83,2.76,3.62,2.75,3.93q0.38-1.76.76-3.53a3.44,3.44,0,0,1,.76,4c1.11-.64.54-5,1.18-4.85a2.42,2.42,0,0,1,1,2.43c1.58-3.15.62-3.51,1.47,0.43,0-.43-0.7-5.75,1.18-3,0.28-3.35.85-.52,2.8-4.1-3.06,4.37-21.55,1.82-19.36-3.13,2.5-5.65,16.12-.57,20.07-0.69q-2.1-2.81,2.1-2.16c-15.51,0-4-20.87,3.46-11.34-2.68-5-5.87-4.29-10.62-4.55-3.39-.18-10.88-2.79-13.49-2.58-7.41.6-15.2,14.38-6.11,18.3C2054.42-265.74,2053.93-270.31,2055.72-269.54Zm-2.27-7.43c-0.89-14.09,20.76-6.84,18.68,1.77-2,8.14-18.14,6.74-18.68-1.77C2053.1-282.42,2054-268,2053.44-277Z" transform="translate(-1824.84 371)"/><path class="cls-42" d="M2082.51-285.62c-6.2,7-15.39,4.4-20.35-2.65C2065.59-285.21,2082.32-285.3,2082.51-285.62Z" transform="translate(-1824.84 371)"/><path class="cls-43" d="M2080.45-285.18c-1.79.33-10.73-.35-10.51,2.15C2070.37-278.21,2081.63-284.92,2080.45-285.18Z" transform="translate(-1824.84 371)"/><path class="cls-43" d="M2074.72-283.86a3.18,3.18,0,0,0,3.57,0A3.14,3.14,0,0,0,2074.72-283.86Z" transform="translate(-1824.84 371)"/><path class="cls-28" d="M2060.45-277.66c-4.7-3.75-13.64-5.82-20.06-5.82C2046.79-282.55,2054.34-281.2,2060.45-277.66Z" transform="translate(-1824.84 371)"/><path class="cls-28" d="M2058.93-277c-5.33-2.27-13.92-3-20.17-2.53C2045-278.89,2052.3-278.56,2058.93-277Z" transform="translate(-1824.84 371)"/><path class="cls-28" d="M2044.78-274.24c4.58,0,10.48,0,14.32-1.19-7.82.73-16.07,0.48-23.4,0.43A43.44,43.44,0,0,0,2044.78-274.24Z" transform="translate(-1824.84 371)"/><path class="cls-28" d="M2081.58-277.53c6.45-2.06,14.22-1.21,20.34-1C2095.9-279.51,2086.78-280.07,2081.58-277.53Z" transform="translate(-1824.84 371)"/><path class="cls-28" d="M2106.82-271.81c-5.92-3.47-17.59-5.36-25-3.85C2089.94-274.55,2098.39-274.77,2106.82-271.81Z" transform="translate(-1824.84 371)"/><path class="cls-28" d="M2108.62-266.42c-5.89-5.4-18-7.12-26.32-7.58C2090.7-271.76,2100.45-271.52,2108.62-266.42Z" transform="translate(-1824.84 371)"/><path class="cls-44" d="M2030.44-350c-0.75-2.43-2.57-5.29-5.09-6.17a1.06,1.06,0,0,0-.11,1.55c-3-2.05-6-1.63-9,.55l1.74,0.44c-7.6,2.82-7.54,15.59-3.36,21.7,1.61,2.36,2.77,5,6.62,5.19,7.28,0.4,5.12-8,7.46-12.9a1.3,1.3,0,0,1-1.9-.07c-0.51-1.84,4.17-6.5,4.61-7,0.47-.82-6,2.47-5.41,2.09C2026.25-346.66,2028.71-348.89,2030.44-350Z" transform="translate(-1824.84 371)"/><path class="cls-31" d="M2019.17-346.86a6.72,6.72,0,0,1,7.49.73A8.17,8.17,0,0,0,2019.17-346.86Z" transform="translate(-1824.84 371)"/><path class="cls-31" d="M2019.62-334.22c2.62,2.85,6.63,1.43,8-1.1C2025.18-330.56,2020.73-333,2019.62-334.22Z" transform="translate(-1824.84 371)"/><path class="cls-18" d="M2027.62-345.51c-0.59.33-1.16,0.66-1.62,1C2026-344.56,2026.62-345,2027.62-345.51Z" transform="translate(-1824.84 371)"/><path class="cls-45" d="M2031.15-347.07a22.29,22.29,0,0,0-3.53,1.55A14.37,14.37,0,0,1,2031.15-347.07Z" transform="translate(-1824.84 371)"/><path class="cls-46" d="M2027.72-345.31q4.13,0.24,3.4-2C2029.44-347.1,2028.32-345.67,2027.72-345.31Z" transform="translate(-1824.84 371)"/><path class="cls-47" d="M2019.94-333.65c1,0.15,4.27-20.6,6.06-10.91a24.09,24.09,0,0,1,5.15-2.5c0.49-.06-4.79,5.75-4.34,7.39a1.3,1.3,0,0,0,1.9.07C2027-336,2025.47-329.06,2019.94-333.65Z" transform="translate(-1824.84 371)"/><g class="cls-48"><path class="cls-49" d="M2018.85-330.35c-4.93-1.35-2.8-6.85-4.61-8.25,0.87,0.67,1.31,5,3.64,3.55,2.52-1.62,3.16-4.42,2.88-7.39-0.42-4.48-4.66-.47-2.28-5.78,0.11-.25-3.62,1.41-3.31,1,1.47-2,15.27-4.94,4.94-8.61,2.62-.55,3.2.37,5.14,1.27a1.06,1.06,0,0,1,.11-1.55c10.09,3.54,1.16,7.23.65,11.57-0.58.38,5.88-2.91,5.41-2.09-0.44.47-5.11,5.14-4.61,7a1.3,1.3,0,0,0,1.9.07c-1.91,4-.76,13.88-6.95,13,4.84-.53-4.32-4.11-2.91-3.72h0Z" transform="translate(-1824.84 371)"/></g><path class="cls-50" d="M2088.57-334.54c1.46,0,2.22,0,3,.88a19.69,19.69,0,0,0-8.66-9.91,6.78,6.78,0,0,1,3.68.88c-3-3.7-2.26-8.11,2.79-10.33,4.41-1.94,12.63,3.74,10,4.16,6.24,4.23,8.22,17,2.44,22.51-7.74,7.42-7.69-4.37-13.27-8.19C2091.2-334.54,2093.88-330.9,2088.57-334.54Z" transform="translate(-1824.84 371)"/><g class="cls-3"><path class="cls-51" d="M2093.15-344c0,3.3,4.11,6.58,3.95,8.85-0.46,6.54-5.6,2.6-8.52.59,4.6,0,1.39.18,3,.88C2089.76-338.16,2084.54-342.69,2093.15-344Z" transform="translate(-1824.84 371)"/></g><path class="cls-31" d="M2097.84-336.32c0,3.56-2.39,5-5.37,5.39C2095-331.28,2097.84-335.13,2097.84-336.32Z" transform="translate(-1824.84 371)"/><path class="cls-31" d="M2098.09-342c-2.88-2.36-9.55-1.62-10.8,1.73,1.69-5,7.65-4.69,11.62-3.12-5.05-1.91-10,3.58-11.62,3.12C2090.42-345,2096.13-343.64,2098.09-342Z" transform="translate(-1824.84 371)"/><g class="cls-48"><path class="cls-52" d="M2082.94-343.57a6.78,6.78,0,0,1,3.68.88c-8.18-11.95,13.35-13.63,14.2-7.17,0.29,2.17-7.11-1.58-7-1.61-1.31.36-5.63,4.13-5,4.28,0,0,5-2.54,4.94-2.1a14.51,14.51,0,0,0-1.7,3.08c0.56-5.81,14.28,9,9.39,7.92-1.4-.31-2.37-2.46-3.87-2.46,5.13,0-.29,12-0.18,12.23,3.32,6.81,4.25-2.51,6.4-1.8-4.31,16.15-11.37-1.53-15.27-4.2,4.58,0,1.4.17,3,.88a19.69,19.69,0,0,0-8.66-9.91C2085.65-343.46,2089.59-339.86,2082.94-343.57Z" transform="translate(-1824.84 371)"/></g><path class="cls-53" d="M2045.06-356c-1.09-.63-12.82-1.79-12.3-0.72-0.29-.59,11,2.62,9.74,3.66s-11.93.69-11.82,4.54c0,0.69,6.69-2.94,7-1.8,1.26,4.26-9.34,9.24-8.66,14,0.07,0.48,4.54-4.15,5-4.79-0.31.39-4.82,11.66-2.24,11.51,2.34-.13,4.2-8.86,6.87-10.13,4.73-2.24,2-.21,3.88,3.47,0.11,0.22,4-6.51,7-4.69q0.37-1,.79-1.94a3.62,3.62,0,0,1,1.44,1.37c-1-2.38,4.42,1.81,5,2,0.44,0.15-2.23-4.89-1.15-4.78,3.73,0.38,6,6,9.1,7.69,0.29,0.15.92-4,1.39-4.27,1.29-.75,2.26,6.39,3.19,6.27,0.26,0,1.17-6.81,1.55-7.35,0.28-.39,1.41,5.13,1.49,5.19q0.34-1.73.73-3.45c-0.9,1.26,12.26,9.93,15,10.47a58.29,58.29,0,0,0-10-10.13c0.62,0,9.89,2.33,9.9,2.3,0.25-2.15-7.76-5.17-9.68-5.82,0.11,0,5-.57,4.12-1.32-1.44-1.22-4-.18-5.57-0.8,0.29,0.11,4.45-1.32,5.35-1.39-2.05-3.42-5.59-1.07-8.24-2.5-1-.53,4.77-3.12,5.21-3.23a21.88,21.88,0,0,0-7.15.44c0.4-.71,1.91-2.72,1.55-3.58-0.44-1.07-5.23,4.32-5.67,5.12-2.09-2.7-4.92-3.82-8.39-4.08,1,0.73,2.62,2.07,3.9,2.81-2.51-.76-14.49-0.61-14.9,1.91,0.52-3.22,5.81-2.88,6.35-4.51,0.39-1.19-9,.67-8.55,1.54a3.26,3.26,0,0,0-1.35-3C2039.09-359.45,2047.54-354.58,2045.06-356Z" transform="translate(-1824.84 371)"/><path class="cls-9" d="M2088.57-323.41c0.11,5,3.18,7.92,4.46,12.52a71.27,71.27,0,0,1,2,19.73c-0.31,3.73-8,23.51-10.8,23.26-0.13.76-1.55,5.48-1.51,5.57,1.85,4.7,7.45-7.37,6.9-6.79,0.33-.35-0.44,12-0.34,12.39-0.28-1.17,2.35-8.16,3-9.73-0.41,1.07.22,5.39,1.09,6.27s2.17-11.41,3.29-11.25c1.58,0.22.93,6.69,0.5,7.49,0.86-1.62,1.39-12,2.37-12.54,1.14-.6,2.7,6.73,2.21,6.94,4.22-1.81-1.07-11.67-.77-13.62,0-.11,4,6.91,3.33,7,3.41-.29-0.16-14.53-0.06-14.52,2.9,0.22,2.12,5.1,3.78,6,1.51,0.86.24-7.48-.05-8.24-1.67-4.28-5.79-7.16-7.87-11.27-1.77-3.48-2.39-7.11-4.7-10.48C2094.4-316.08,2089.8-322.61,2088.57-323.41Z" transform="translate(-1824.84 371)"/><path class="cls-9" d="M2028.6-318.34c-1.19,2.5-1.13,16.16.4,18.76,0.41,0.69,1.48-1.48,1.55-1.58,0.15,3.47-.3,9.12,1.28,12.33,1.22,2.47,5.66,3.92,7.5,6.09,3.28,3.86,8.89,9.08,11.71,13.14,2,2.95,1.72,9.12,6.79,10.31-4.38,1.2-7.84-1.42-9.09-5.73-2.17,1.42-2.15,4.7-1.3,6.83-1.54-2.89.15-9.89-1.31-11.65-1-1.18-3.63,7.24-3.55,7.23-3.46.64-4.6-9.67-4.66-11-2.15-1.35-2.21,3.32-2.38,4.19-0.29-1.39-2.44-9.93-1.2-11.09-1.71,1.59-1.06,11.32-1.43,11.36-4.37.47-6-17.26-6.22-17-1.2,1.07-1.39,8.86-1.71,8.85-4-.13-1.75-15.7-2.75-17.2-0.52-.78-3.61,5.81-3.06,7-0.71-1.55.92-15.36,0.48-15.27a6.21,6.21,0,0,1-1.81,1.89c-2.82-3.26,7.09-20,10.21-19.35Z" transform="translate(-1824.84 371)"/><path class="cls-9" d="M2082.51-258.2a13.64,13.64,0,0,1-3,10.79c0.4-2.45.4-4.46-1.08-6.39,0.59,4-.6,6.58-2.17,10.13-0.29.67-4.83,13.35-4.34,13-2.83,2-4.8-8.75-5.51-8.91-1-.22-3.21,19.54-7.56,17.35,0.58,0.29,2.43-13.66,1.1-12.75,0.07,0-6.49,13.76-6.63,12.67-0.64-5.06,6.27-11.37,2.42-16.65-0.2-.28-4.33,8.58-4.62,9.43,1.87-5.54,6.51-20.71,1.13-25.1,0.74,0.6,4.73,9.88,5.5,9.05,1.4-1.51-.35-9.21.32-9.57,2.82-1.54,3.12,6.06,4.23,6,4.34,0,1.52-7.07,2.53-8.08,2-2,4,11.45,3.07,10.66,1.17,1,6.67-5.11,6.05-6.33,0.23,0.46.48,6.09-.09,6.3,2.5-.89,1.42-6.16,2.62-7.47,3.52-3.83,2.81,1.14,4.69,0A6.21,6.21,0,0,0,2082.51-258.2Z" transform="translate(-1824.84 371)"/><path class="cls-9" d="M2047.11-253s1.3,10.9-2,16.19S2053.93-237.82,2047.11-253Z" transform="translate(-1824.84 371)"/><path class="cls-9" d="M2042.67-256.21s-2.82,5.28-.86,16.75S2034.88-252.9,2042.67-256.21Z" transform="translate(-1824.84 371)"/><path class="cls-9" d="M2037.47-259.73s-2.16,3.3.87,11.23S2030.54-253.13,2037.47-259.73Z" transform="translate(-1824.84 371)"/><path class="cls-9" d="M2031.84-264.14a22.53,22.53,0,0,0,3,18.73C2037.91-241,2019.72-249.38,2031.84-264.14Z" transform="translate(-1824.84 371)"/><path class="cls-9" d="M2028.38-264.58s-3.25,6.61-1.08,12.78S2021.45-255.11,2028.38-264.58Z" transform="translate(-1824.84 371)"/><path class="cls-9" d="M2021.45-276.7s2.16,5.29.22,14.54S2029.68-262.38,2021.45-276.7Z" transform="translate(-1824.84 371)"/><path class="cls-31" d="M2111.64-302.37c-0.24-.22-0.48-0.43-0.72-0.65l-3.09.83a3.77,3.77,0,0,1,.72.65,7.08,7.08,0,0,0,1.55-.4l1.09-.3a3.67,3.67,0,0,1,.45-0.13,3.77,3.77,0,0,0-.72-0.65,2.32,2.32,0,0,0-.46.11l-1.1.29-1.09.3a2.56,2.56,0,0,1-.45.13c0.24,0.21.49,0.43,0.72,0.65a2.77,2.77,0,0,0,.46-0.11l1.1-.29,1.09-.3A2.79,2.79,0,0,1,2111.64-302.37Z" transform="translate(-1824.84 371)"/><path class="cls-31" d="M2090.05-333.25h0a10.8,10.8,0,0,0,1.55-.4,15.43,15.43,0,0,1,1.54-.43h0a10.8,10.8,0,0,0-1.55.4,15.43,15.43,0,0,1-1.54.43h0a10.8,10.8,0,0,0,1.55-.4,15.43,15.43,0,0,1,1.54-.43h0a10.8,10.8,0,0,0-1.55.4A15.43,15.43,0,0,1,2090.05-333.25Z" transform="translate(-1824.84 371)"/><path class="cls-31" d="M2038.72-353.86c-2.26-1.76-6-1.1-8.49-.32,1.19-.37,5,0.6,5.11.55-1.8.69-3.46,1.2-5.22,2.06,9-4.35-3.07,4.69-3.76,6.26,0,0,4.65-2.43,5.55-2.18-1-.28-5.58,8.45-4.82,8.38a1.63,1.63,0,0,1,1.79-.46c-1.27,2.28-2.54,6.67-1.95,9.26-0.37-1.75-.26-8.07,1.76-9.15-5.14,2.85,1.94-6.74,3.1-8-0.28.3-5.69,2.72-6,2.86,0.66-4,5.09-5.74,8-7.38-0.88.51-3.56,0-4.47,0.78,0.47-.43,5.53-3.17,5.73-2.54-0.36-1.12-5.26-.53-6.06-0.21C2032.3-355.16,2036.74-355.45,2038.72-353.86Z" transform="translate(-1824.84 371)"/><path class="cls-31" d="M2069.19-354.19a9,9,0,0,1,6.35-3.23c1.53,0.41-1.53,4.62-2.47,4.57,3.53,0.18,7.48-2.2,10.26,1.56-0.84-1.31-5.44.35-6.35,0.11,3.36,0.89,9.59,4.26,9.82,8.53,0-.47-7.25-0.86-3.68-0.88,3.63,2.29,7.65,5.48,8.66,9.9-0.1-.44-2.62-1.22-2.89-1.08-0.09,0,8.12,7.77,6.14,9,1.57-.89-5.79-8.12-6.46-8.77-0.2-.19,2.61-0.48,2.82.46-1-4.23-4.8-7.21-8.34-9.3q1.58-1.19,3.57.53c-1.32-.67-6.11-11.71-9.78-8.46a5.81,5.81,0,0,1,5.66-.34c-1.9-.53-6.9-4.4-9.55-1.31a7.17,7.17,0,0,0,2.81-4.33C2075.59-358,2069.78-354.68,2069.19-354.19Z" transform="translate(-1824.84 371)"/><path class="cls-31" d="M2083-329.32c3.75,2.69,5.06,7.68,4.55,12.07C2087.87-321,2085.75-327.4,2083-329.32Z" transform="translate(-1824.84 371)"/><path class="cls-31" d="M2089.17-316.75a17.68,17.68,0,0,1,1.63,14C2091.06-306.9,2091.31-313.23,2089.17-316.75Z" transform="translate(-1824.84 371)"/><path class="cls-31" d="M2089.66-313a11.8,11.8,0,0,1,.16,8.43C2090.24-305.64,2089.89-312.21,2089.66-313Z" transform="translate(-1824.84 371)"/><path class="cls-31" d="M2093.07-318.07c3.33,2.46,7.06,5.95,8.28,10.08C2100.3-311.63,2095.2-316.33,2093.07-318.07Z" transform="translate(-1824.84 371)"/><path class="cls-31" d="M2089.82-327a9.09,9.09,0,0,0,3.25,5.45A8.28,8.28,0,0,1,2089.82-327Z" transform="translate(-1824.84 371)"/><path class="cls-31" d="M2091.13-329.64a9.64,9.64,0,0,0,1.78,6.61C2091.07-325.57,2091.13-327.27,2091.13-329.64Z" transform="translate(-1824.84 371)"/><path class="cls-31" d="M2107.69-296.1a5.53,5.53,0,0,1,2.44,5.12C2110.13-292.23,2108.11-295.86,2107.69-296.1Z" transform="translate(-1824.84 371)"/><path class="cls-31" d="M2099.57-295.28c1,3.09,1.38,6.23-.17,8.67C2100.74-289,2100-293.65,2099.57-295.28Z" transform="translate(-1824.84 371)"/><path class="cls-31" d="M2098.76-293.46c1.44,4.88,1.81,10.67-1.31,14.45C2100.35-282.87,2099.65-289.87,2098.76-293.46Z" transform="translate(-1824.84 371)"/><path class="cls-31" d="M2097.29-286.52c0.52,3.42.81,7.23-1.47,9.66C2097.73-279.18,2097.6-284.56,2097.29-286.52Z" transform="translate(-1824.84 371)"/><path class="cls-31" d="M2098.92-269c0.15,3.57,0,7-2,9.65C2098.58-261.76,2099-266.92,2098.92-269Z" transform="translate(-1824.84 371)"/><path class="cls-31" d="M2096-260.24a14,14,0,0,0-1.78,8.59C2093.56-255.55,2094.72-256.92,2096-260.24Z" transform="translate(-1824.84 371)"/><path class="cls-31" d="M2089.82-255c0.68,6.27-.05,13.36-5.52,16.93C2089.8-241.55,2089.82-249.94,2089.82-255Z" transform="translate(-1824.84 371)"/><path class="cls-31" d="M2085-248c1.49,6.85-.55,13.62-6.5,17.1C2084.2-234.19,2086.11-242.62,2085-248Z" transform="translate(-1824.84 371)"/><path class="cls-31" d="M2081.7-239.75c-0.53,3.79-1,7.5-3.74,10C2080.6-232.14,2080.87-237.26,2081.7-239.75Z" transform="translate(-1824.84 371)"/><path class="cls-31" d="M2079.6-235c-1.57,2.87-2.64,7.31-.49,10.25C2076.68-228.17,2077.7-232,2079.6-235Z" transform="translate(-1824.84 371)"/><path class="cls-31" d="M2075.86-234a8.65,8.65,0,0,0,2.27,7.11C2075.71-229,2075.55-231.61,2075.86-234Z" transform="translate(-1824.84 371)"/><path class="cls-31" d="M2075.53-231.5c0.25,6.06-4,9.91-9.59,10.66C2071.32-221.32,2075.78-226.67,2075.53-231.5Z" transform="translate(-1824.84 371)"/><path class="cls-31" d="M2092.91-258.09a9.45,9.45,0,0,0,1.63,7.6A7.85,7.85,0,0,1,2092.91-258.09Z" transform="translate(-1824.84 371)"/><path class="cls-31" d="M2103-281.39a9.59,9.59,0,0,1-.16,8.1C2103.33-274.52,2103.41-280.42,2103-281.39Z" transform="translate(-1824.84 371)"/><path class="cls-31" d="M2106.06-287.84c0.72,2.75,1.76,6.44.65,9.26A40,40,0,0,0,2106.06-287.84Z" transform="translate(-1824.84 371)"/><path class="cls-31" d="M2087.72-260.9c0.7,3.55-.24,6.5-3.26,8.17C2087.13-254.11,2088.3-259,2087.72-260.9Z" transform="translate(-1824.84 371)"/><path class="cls-31" d="M2085.12-258.59c1.66,3.75-.25,6.9-2.45,9.33C2084.92-251.69,2086.08-256.17,2085.12-258.59Z" transform="translate(-1824.84 371)"/><path class="cls-31" d="M2074.88-252c0.3,5-.25,10.07-3.9,13.29C2074.32-241.41,2075.19-248.64,2074.88-252Z" transform="translate(-1824.84 371)"/><path class="cls-31" d="M2068.7-235.21c3.51-2.81,4.1-7.92,3.58-12.06C2072.71-242.79,2072.65-238.36,2068.7-235.21Z" transform="translate(-1824.84 371)"/><path class="cls-31" d="M2068.87-241.07a18.85,18.85,0,0,0,1.46,8.25C2068.73-235.39,2068.87-238.77,2068.87-241.07Z" transform="translate(-1824.84 371)"/><path class="cls-31" d="M2066.44-240.75c-1.12,3.65,1.06,7.62,4.22,9.42C2067.06-233.31,2065-237.4,2066.44-240.75Z" transform="translate(-1824.84 371)"/><path class="cls-31" d="M2063.84-234.46c0,5.36-1.65,10.85-6,13.79C2061.81-223.42,2063.84-230.48,2063.84-234.46Z" transform="translate(-1824.84 371)"/><path class="cls-31" d="M2060.92-228.69a13.35,13.35,0,0,1-5.21,9.66C2058.25-220.93,2060.92-226.09,2060.92-228.69Z" transform="translate(-1824.84 371)"/><path class="cls-31" d="M2051-218.36c3-1.19,6.12-4.22,6.5-7C2057.34-221.48,2054-219.6,2051-218.36Z" transform="translate(-1824.84 371)"/><path class="cls-31" d="M2053.61-227c-0.32,3.46-3.21,5.24-5.7,6.69C2050-221.55,2053.61-224.87,2053.61-227Z" transform="translate(-1824.84 371)"/><path class="cls-31" d="M2047.76-227.69c1.72,3.64-1.82,6.26-3.9,8C2046.13-221.46,2048.8-225.32,2047.76-227.69Z" transform="translate(-1824.84 371)"/><path class="cls-31" d="M2052.47-250.33a16.11,16.11,0,0,1-.33,10.74C2052.81-241.84,2053.26-248.26,2052.47-250.33Z" transform="translate(-1824.84 371)"/><path class="cls-31" d="M2049.23-258.92c1.75,4.4,2.82,9.58,1.3,14.21C2052-247.63,2050.32-256.37,2049.23-258.92Z" transform="translate(-1824.84 371)"/><path class="cls-31" d="M2045.33-264.21c-1.69,3.21.81,6.77,3.41,8.42C2045.48-257.8,2043.6-261.13,2045.33-264.21Z" transform="translate(-1824.84 371)"/><path class="cls-31" d="M2036.88-271.65a11.41,11.41,0,0,0,2.76,9.59C2037.11-264.75,2035.82-268.57,2036.88-271.65Z" transform="translate(-1824.84 371)"/><path class="cls-31" d="M2034.12-276.93c-0.06,3.66.49,8.38,3.09,11.24C2034-269,2034.12-273.42,2034.12-276.93Z" transform="translate(-1824.84 371)"/><path class="cls-31" d="M2026.49-279.58a14.55,14.55,0,0,0,1.79,7.27A13.25,13.25,0,0,1,2026.49-279.58Z" transform="translate(-1824.84 371)"/><path class="cls-31" d="M2021.46-290c-3.21,3.89-.49,9.41,2.11,12.73C2020.35-281,2018.34-285.92,2021.46-290Z" transform="translate(-1824.84 371)"/><path class="cls-31" d="M2019.18-294.11c-1.76,2.89-.85,7,0.65,9.75C2018.18-287.71,2017.11-291,2019.18-294.11Z" transform="translate(-1824.84 371)"/><path class="cls-31" d="M2019.35-300.07a12.23,12.23,0,0,0-1.46,10.24C2016.25-293.59,2017.4-297,2019.35-300.07Z" transform="translate(-1824.84 371)"/><path class="cls-31" d="M2018.86-303.7a14.05,14.05,0,0,0-2.6,13.55C2015.09-294.85,2014.85-300.12,2018.86-303.7Z" transform="translate(-1824.84 371)"/><path class="cls-31" d="M2028.76-330c-3.12,1.57-5,5.46-5.36,8.76C2024.24-324.91,2024.9-327.95,2028.76-330Z" transform="translate(-1824.84 371)"/><path class="cls-31" d="M2026.32-323.2c-3.17-.71-4.08,6.42-4.21,7.77C2022.11-317.14,2022.35-324.29,2026.32-323.2Z" transform="translate(-1824.84 371)"/><path class="cls-31" d="M2024.05-317.25c-3.73,2.72-5.26,7.74-7.15,11.14C2018.33-310.65,2020.47-314.55,2024.05-317.25Z" transform="translate(-1824.84 371)"/><path class="cls-31" d="M2015.94-326.67c-1.06,4.49-3.29,8.18-7.48,9.83C2012.8-318.26,2014.39-323.5,2015.94-326.67Z" transform="translate(-1824.84 371)"/><path class="cls-31" d="M2014.47-322a10.18,10.18,0,0,1-7.32,7.68C2009.93-315.24,2014.47-319.36,2014.47-322Z" transform="translate(-1824.84 371)"/><path class="cls-31" d="M2015.77-317.91c-1.3,3.17-5.14,4.07-8,4.69C2010.84-314,2014.12-315.51,2015.77-317.91Z" transform="translate(-1824.84 371)"/><path class="cls-31" d="M2012.52-309.15a15.53,15.53,0,0,0-2.28,10.24A15.55,15.55,0,0,1,2012.52-309.15Z" transform="translate(-1824.84 371)"/><path class="cls-31" d="M2012.37-303.21c-2.6,2.82-2.79,7.47-1.62,10.91C2009.36-296.29,2009.49-300.12,2012.37-303.21Z" transform="translate(-1824.84 371)"/><path class="cls-31" d="M2012.37-296.92a17,17,0,0,0,.16,13.87C2010.8-286.72,2009.27-293.62,2012.37-296.92Z" transform="translate(-1824.84 371)"/><path class="cls-31" d="M2013.17-287.17c-2.32,3.82.92,8.29,3.9,10.4C2013.53-279.18,2010.74-283.54,2013.17-287.17Z" transform="translate(-1824.84 371)"/><path class="cls-31" d="M2015.29-283.21c0.35,3.77,1.86,8.23,4.87,10.74C2016.42-275.62,2016-279.59,2015.29-283.21Z" transform="translate(-1824.84 371)"/><path class="cls-31" d="M2013.66-352.12c-2.9,1-6.21,4-7.8,6.19A15.34,15.34,0,0,1,2013.66-352.12Z" transform="translate(-1824.84 371)"/><path class="cls-31" d="M2010.41-347.16c-0.77,2.56-3,3.6-5.2,4.2C2007.31-343.53,2009.4-345.69,2010.41-347.16Z" transform="translate(-1824.84 371)"/><path class="cls-31" d="M2003.11-323.86c-2.46,2.86-4.21,7.07-5.53,10C1998.69-318,2000.91-320.8,2003.11-323.86Z" transform="translate(-1824.84 371)"/><path class="cls-31" d="M1998.07-301.88a23.88,23.88,0,0,0-6.49,15.86A22.38,22.38,0,0,1,1998.07-301.88Z" transform="translate(-1824.84 371)"/><path class="cls-31" d="M1998.56-296.1c-6.48,4.25-7.19,12.36-3.41,18.67C1991-284,1991.79-291.91,1998.56-296.1Z" transform="translate(-1824.84 371)"/><path class="cls-31" d="M1995.63-284c-0.82,3.65.16,7.83,1.46,11.23C1996.11-275.64,1993.74-281.29,1995.63-284Z" transform="translate(-1824.84 371)"/><path class="cls-31" d="M1999.37-284.2c-2.29,5.89-2.49,14.38,3.89,17.85C1997.29-270,1995.9-278.73,1999.37-284.2Z" transform="translate(-1824.84 371)"/><path class="cls-31" d="M2003.26-276.27c-1.24,5.43.11,12.28,5.36,15.2C2003.53-264,2000.91-271.26,2003.26-276.27Z" transform="translate(-1824.84 371)"/><path class="cls-31" d="M2009.44-271.15c-1.5,4.25-2.07,9.62.65,13.55A13.56,13.56,0,0,1,2009.44-271.15Z" transform="translate(-1824.84 371)"/><path class="cls-31" d="M2014.63-270.82a18.25,18.25,0,0,0,1,14.88C2013.07-261.56,2013.3-265.36,2014.63-270.82Z" transform="translate(-1824.84 371)"/><path class="cls-31" d="M2009.93-267.18c0.56,4.52,1.89,10.8,6.33,13.21C2011.09-256.55,2010.57-263,2009.93-267.18Z" transform="translate(-1824.84 371)"/><path class="cls-31" d="M2020.32-262.56c-0.53,4.59-1,9.7,1,14C2018.93-253.25,2020.32-258.1,2020.32-262.56Z" transform="translate(-1824.84 371)"/><path class="cls-31" d="M2034.45-258.43a18,18,0,0,0,2.92,12.56C2035-249.64,2033.22-254.45,2034.45-258.43Z" transform="translate(-1824.84 371)"/><path class="cls-31" d="M2025.35-256.94c-0.46,8,4.14,13,11,15.86C2029.41-242.87,2023.94-250.33,2025.35-256.94Z" transform="translate(-1824.84 371)"/><path class="cls-31" d="M2083.17-232.16a6.24,6.24,0,0,1-.82,7C2083.46-226.67,2083.79-231.09,2083.17-232.16Z" transform="translate(-1824.84 371)"/><path class="cls-31" d="M2023.57-255.12c-2.83,6.68.06,14.45,5.52,18.84C2023.25-241.23,2020.46-248.28,2023.57-255.12Z" transform="translate(-1824.84 371)"/><path class="cls-31" d="M2026.17-247.68c0.59,7.23,5,14.4,11.69,17.51C2030.38-233.61,2027-240.74,2026.17-247.68Z" transform="translate(-1824.84 371)"/><path class="cls-31" d="M2041.27-224.39c1.55,6.1-1.34,13.07-5.86,16.76C2039.69-211.87,2042.37-219.09,2041.27-224.39Z" transform="translate(-1824.84 371)"/><path class="cls-31" d="M1989.3-293.62c-3,4.83-1.61,11.52.16,16.53C1987.25-282.53,1986.27-288.55,1989.3-293.62Z" transform="translate(-1824.84 371)"/><path class="cls-31" d="M1989.46-300.73c-4.85,3.75-4.73,11.46-3.57,16.85C1984.69-289.72,1984-296.61,1989.46-300.73Z" transform="translate(-1824.84 371)"/><path class="cls-31" d="M1992.06-309c-4.21,1.6-6.42,6.26-7.15,10.41C1987.28-302.19,1986.45-306.8,1992.06-309Z" transform="translate(-1824.84 371)"/><path class="cls-31" d="M1992.22-316.92c0.51,4.9-2.64,8.23-6.34,10.32C1989.32-308.38,1992.71-313.54,1992.22-316.92Z" transform="translate(-1824.84 371)"/><path class="cls-31" d="M1998.4-324.85c-5.28,1.72-8.1,6.65-9.76,11A13.78,13.78,0,0,1,1998.4-324.85Z" transform="translate(-1824.84 371)"/><path class="cls-31" d="M1999.21-335.43a16.27,16.27,0,0,1-6.83,10.65C1995.74-327.29,1998.3-332,1999.21-335.43Z" transform="translate(-1824.84 371)"/><path class="cls-31" d="M1997.1-334.11c-0.47.49-3.58,5.4-3.58,6A16.09,16.09,0,0,1,1997.1-334.11Z" transform="translate(-1824.84 371)"/><path class="cls-31" d="M2002.94-342c-2.68.5-6.37,3.57-7.64,5.53C1997.33-339.25,1999.6-341.37,2002.94-342Z" transform="translate(-1824.84 371)"/><path class="cls-31" d="M2006.35-309.81c-4.14,1.7-3.88,7.53-3.25,11.07C2002.5-302.66,2001.69-307.76,2006.35-309.81Z" transform="translate(-1824.84 371)"/><path class="cls-31" d="M2037.21-215a22.92,22.92,0,0,0-5.85,13.88C2032.35-206.14,2033.11-211,2037.21-215Z" transform="translate(-1824.84 371)"/><path class="cls-31" d="M2024.54-232.16c1.79,4.07,5.16,16,1,19.08C2027.87-218.93,2026.68-227.28,2024.54-232.16Z" transform="translate(-1824.84 371)"/><path class="cls-31" d="M2020-226.86c3.1,5.55,5.07,13,2.59,19.17C2023.43-213.82,2023.25-221.66,2020-226.86Z" transform="translate(-1824.84 371)"/><path class="cls-31" d="M2014.47-248.68c-3.28,5.72-.56,16,0.65,21.81C2014.39-232.93,2010.45-243.15,2014.47-248.68Z" transform="translate(-1824.84 371)"/><path class="cls-31" d="M2008-253.63a33.51,33.51,0,0,0,2.27,14.21C2008.79-244.08,2007.14-249.11,2008-253.63Z" transform="translate(-1824.84 371)"/><path class="cls-54" d="M1985.45-306.12c0.19-.15.38-0.29,0.59-0.43A3.27,3.27,0,0,1,1985.45-306.12Z" transform="translate(-1824.84 371)"/><path class="cls-55" d="M2075.89-217.52L2076-218A1.3,1.3,0,0,1,2075.89-217.52Z" transform="translate(-1824.84 371)"/><path class="cls-56" d="M1979.23-292.18c5.09-.37,3.31-11.15,6.82-14.38a2.19,2.19,0,0,1-2.44.33c5.21-3.27,2.65-11.38,8.78-15-1.82.07-4.49,0.2-5.85-1.32,4.39-.23,10.39-5.76,13-1.27-7.94-2.2-10,15-14.29,20.49a13.1,13.1,0,0,1,6.06-4c-5.28,4.59-6.33,12.59-5.63,19.17-0.08-2,4.57-13.57,5.06-12.08,1.16,3.54-3.11,9.86-3,13.9,0.1,5.48,2.84,9.51,4.47,14.49,0.68,2.06,4.25,16.88,3.14,17.89,3-2.71.12-8.65,1.33-11.91-1.25,3.37,9.31,16.76,8.22,21.56,0.29-1.29,1.22-10.68.6-11.78,3.22,5.73,2,15.27,4.25,21.66a39.3,39.3,0,0,0,5,10c-0.39-1.14-2.77-18.92-.94-18.22,1.42,0.55,5.12,21.59,7.44,25.71,1-3.89.25-7.92-1.09-11.68,0.36,0.48,6.43,18.11,4.86,17.8,3,0.59,6.74-9.4,9.79-8.45-0.47-.15-5.68,16.16-3,18.63-3.09-2.84,5.05-14.59,7.39-16.75a15.08,15.08,0,0,1-4.55,11.24c9.41-3.44,8.48-13.63,18.76-15.78,0.74-.15-3.3,4.78-4.69,5.31,5.38,1.67,14-1.89,18.66-4,1.32-.6,8.67-7.15,8.61-7.15-0.29,0,2.21,5.07,3.91,5.55-1.52-6.24,4.19-8.47,4.71-14.7,4.42,7.14-3.11,17.75-9.26,21.32A12.28,12.28,0,0,0,2076-218c-0.62,2.14-7.47,6.16-9.48,7.42-2.48,1.55-6.5,6.45-7.89,2.66,0,8.15-12.62,8.59-17,12.89a9.53,9.53,0,0,0,1.46-7.76,19.79,19.79,0,0,1-13,6.11c0.41,0-5.15-1.15-2.86-2.49q-0.53.92-1,1.87a49.51,49.51,0,0,0-.86-5c-0.86-.34-4.76,1.52-4.65,2a7.85,7.85,0,0,1,.6-3.5,4.3,4.3,0,0,1-2.12.22c0.3,0.16,1.24-5.2.66-6.33-1.21-2.35-5.08-4.55-6.33-8.25-0.94,4.49-7.51-15.54-8.29-15.87a9.11,9.11,0,0,1-.81,5.28c-0.32-4.34-4.34-8.05-5-12.72,0.07-.21-11.63-16.49-13.54-20-4.64-8.47-7.06-19.68-3.5-30.26a3.12,3.12,0,0,1-3.09-.49C1981.5-292.35,1979.39-291,1979.23-292.18Z" transform="translate(-1824.84 371)"/></g></g></svg>