<svg xmlns="http://www.w3.org/2000/svg" viewBox="0 0 427.43 258.4"><defs><style>.cls-1{isolation:isolate;}.cls-2{fill:#253239;}.cls-3{fill:#415661;}.cls-14,.cls-4{fill:#577382;}.cls-13,.cls-4{mix-blend-mode:screen;}.cls-5,.cls-6{fill:#b5b2b2;}.cls-15,.cls-18,.cls-6{opacity:0.5;}.cls-12,.cls-6,.cls-7{mix-blend-mode:multiply;}.cls-7{fill:#33454d;opacity:0.2;}.cls-8{fill:#a3a2a2;}.cls-17,.cls-18,.cls-9{fill:#fff;}.cls-10{fill:#1d1d1b;}.cls-11,.cls-12{fill:#8d8c8b;}.cls-16{fill:#97d3df;}.cls-17{opacity:0.3;}</style></defs><title>anim_101</title><g class="cls-1"><g id="Layer_1" data-name="Layer 1"><path class="cls-2" d="M3493.55,122.48c-20.84,6.51-40.79,16.61-59.93,27-18.86,10.19-37.16,21.38-55,33.24-9,6-65.49,40.43-61.7,48.92,21.61-17.85,44.33-34.48,67.56-50.14a636.86,636.86,0,0,1,61.31-37,356.53,356.53,0,0,1,32.62-15.16c3.79-1.51,19.56-4.22,21.67-8.45,0.13-.27-8.79,2.33-6.52,1.62h0Z" transform="translate(-3072.65 -120.61)"/><path class="cls-3" d="M3329.18,218c-1.35,1-.53.43,1.14,2.85,0.56-.44-0.85-2.39-1.14-2.85C3329,218.15,3329.44,218.41,3329.18,218Z" transform="translate(-3072.65 -120.61)"/><path class="cls-3" d="M3333.52,218.16l-1.55-2.27c-3.22,2.44-2.48.88-.9,4.38q3.92-1,2.45-2.11C3333,217.43,3333.56,218.22,3333.52,218.16Z" transform="translate(-3072.65 -120.61)"/><path class="cls-3" d="M3334.2,217.65c4.38,6-2-7.49.42-3.77q-3.77,1.3-.42,3.77h0Z" transform="translate(-3072.65 -120.61)"/><path class="cls-3" d="M3341.23,209.22c-2.92,1.65-3.16.94-1,4q4.27-1.34,1-4C3341.18,209.25,3341.77,209.89,3341.23,209.22Z" transform="translate(-3072.65 -120.61)"/><path class="cls-3" d="M3344.53,208.75l-1.34-1.23c-4.14,3.05,3.55,4.05,1.34,1.23C3344.11,208.31,3344.73,209,3344.53,208.75Z" transform="translate(-3072.65 -120.61)"/><path class="cls-3" d="M3347.82,204.54q-1.46-2.05-3.75,2.33c2.38,2.7,1,2.66,5.2-.45l-1.45-1.88h0Z" transform="translate(-3072.65 -120.61)"/><path class="cls-3" d="M3350.12,202.47q-3,1.05-.17,3.45,3.5-1.22.17-3.45C3349.64,202.82,3350.72,203.13,3350.12,202.47Z" transform="translate(-3072.65 -120.61)"/><path class="cls-3" d="M3353.49,200q-4.51,1.31-1.05,4,4.5-1.35,1.05-4C3352.64,200.65,3354,200.75,3353.49,200Z" transform="translate(-3072.65 -120.61)"/><path class="cls-3" d="M3362.33,193.79l-3.92,2.75c2.17,2,6.35,1,3.92-2.75C3361,194.7,3362.78,194.5,3362.33,193.79Z" transform="translate(-3072.65 -120.61)"/><path class="cls-3" d="M3366.14,191.15c-2.75,1.9-2.75,1.63-1.47,4.06q5-1.36,1.47-4.06C3365.28,191.75,3366.63,191.81,3366.14,191.15Z" transform="translate(-3072.65 -120.61)"/><path class="cls-3" d="M3376,184.46l-3.56,2.4q1.65,4.39,5-.56l-1.4-1.84C3374.81,185.25,3376.46,185.07,3376,184.46Z" transform="translate(-3072.65 -120.61)"/><path class="cls-3" d="M3381.56,183.29q-1.67-4-4.87.7c0.3,0.39,8.14,4.91,4.87-.7C3381.16,182.71,3381.58,183.33,3381.56,183.29Z" transform="translate(-3072.65 -120.61)"/><path class="cls-3" d="M3382.46,180.17q-2.46.77-.1,2.73,2.73-.86.1-2.73C3382.07,180.43,3382.89,180.77,3382.46,180.17Z" transform="translate(-3072.65 -120.61)"/><path class="cls-3" d="M3385.31,178.31l-2.11,1.37q1.11,3.56,3.53.27l-1.43-1.65C3384.61,178.77,3385.77,178.88,3385.31,178.31Z" transform="translate(-3072.65 -120.61)"/><path class="cls-3" d="M3389.24,176.35q1.14,2.85,3.31-.25c-0.85-.9-4.89-2.15-3.31.25C3389.56,176.79,3389.15,176.22,3389.24,176.35Z" transform="translate(-3072.65 -120.61)"/><path class="cls-3" d="M3388.75,177.11c-0.83-1.13-1.22-.25-2.49.58,1.45,2.23,3.76,1.33,2.49-.58C3388.66,177,3389,177.46,3388.75,177.11Z" transform="translate(-3072.65 -120.61)"/><path class="cls-3" d="M3395.42,172.11c1.45,1.37,1.13,1.37,3.4-.1-2-1.39-.94-2.42-3.4.1C3395.44,172.13,3395.52,172,3395.42,172.11Z" transform="translate(-3072.65 -120.61)"/><path class="cls-3" d="M3394.52,172.41L3392,174c1.54,2.27,1.21,1.66,4-.12l-1.41-1.48C3393.67,172.95,3395,172.9,3394.52,172.41Z" transform="translate(-3072.65 -120.61)"/><path class="cls-3" d="M3401.29,168.2l-2.57,1.59c1.83,2.33,3.68.9,2.57-1.59C3400.43,168.73,3401.55,168.78,3401.29,168.2Z" transform="translate(-3072.65 -120.61)"/><path class="cls-3" d="M3406.11,166.19c-1.29-1.56-4,1-3,3.07q5.25-.82,3-3.07C3405.94,166,3406.3,166.47,3406.11,166.19Z" transform="translate(-3072.65 -120.61)"/><path class="cls-3" d="M3410.43,164q-1.18-2.95-4,1.12c1.37,1.91,4.74.31,4-1.12C3410.25,163.65,3410.52,164.16,3410.43,164Z" transform="translate(-3072.65 -120.61)"/><path class="cls-3" d="M3414.5,160.26c-4.64,2.72-4.26,1.12-3.1,3.85q6.15-1,3.1-3.85C3413.23,161,3414.7,160.74,3414.5,160.26Z" transform="translate(-3072.65 -120.61)"/><path class="cls-3" d="M3418.31,159.4q-1-2.14-2.87.31,0.43,0.7.9,1.38,3.2-.41,2-1.69h0Z" transform="translate(-3072.65 -120.61)"/><path class="cls-3" d="M3424.4,155.26c-1-.86-5.31,2.33-6.11,2.8,0.36,0.41.69,0.82,1,1.26,1.31-.78,5.64-2.4,5.1-4.06C3424.25,155.12,3424.5,155.56,3424.4,155.26Z" transform="translate(-3072.65 -120.61)"/><path class="cls-3" d="M3429,152l-4.19,2.34c1.46,2.3,6.5.41,4.19-2.34C3427.64,152.76,3429.36,152.39,3429,152Z" transform="translate(-3072.65 -120.61)"/><path class="cls-3" d="M3439.62,146.29l-1.67.88a3.22,3.22,0,0,0,.69,1.12q2.81-.42,1-2C3439.06,146.59,3439.83,146.67,3439.62,146.29Z" transform="translate(-3072.65 -120.61)"/><path class="cls-3" d="M3451.1,140.5q0.49-2.23-3.87,1.86a5.07,5.07,0,0,1,.71,1Q3452.08,143.25,3451.1,140.5Z" transform="translate(-3072.65 -120.61)"/><path class="cls-3" d="M3451.85,140.35c0,1.52,2.05,0,2.93-.43C3454.12,139.19,3451.85,138.85,3451.85,140.35Z" transform="translate(-3072.65 -120.61)"/><path class="cls-3" d="M3462,135.2q-3.25,1.51-6.48,3.07c0.15,0.74-.13-0.53.5,1,1.56-.76,7.44-2.38,6-4.1C3459.92,136.17,3462.25,135.51,3462,135.2Z" transform="translate(-3072.65 -120.61)"/><path class="cls-3" d="M3490.47,124.08c-0.47-.93-6.59,1-6.17,3,0.86-.32,6.78-1.72,6.17-3h0Z" transform="translate(-3072.65 -120.61)"/><path class="cls-3" d="M3493.55,122.48l-2.17.7c0.84,1.19,7.71-.37,8.69-2.32,0.13-.27-8.79,2.33-6.52,1.62h0Z" transform="translate(-3072.65 -120.61)"/><path class="cls-3" d="M3482.93,126.26c-12.9,5-2.42.15-3.9,2.67,0.56-.95-9.46,2.46-7.94,2.57-0.56,0-5.79,2.19-7.59,3,0.15,0.46.37,0.61,0.5,1,2.7-1.24,19.67-7.29,18.93-9.27C3481.62,126.77,3483.08,126.65,3482.93,126.26Z" transform="translate(-3072.65 -120.61)"/><path class="cls-3" d="M3446.63,144.05c-1.45-1.68-4,.67-6,1.69,0.28,0.6.61,0.06,0.53,1.17q2.7-1.45,5.43-2.86C3446.35,143.73,3444.82,145,3446.63,144.05Z" transform="translate(-3072.65 -120.61)"/><path class="cls-3" d="M3433.2,149.72l-3.41,1.86a2,2,0,0,1,1.1,1q4.62-.57,2.31-2.87C3432.07,150.32,3433.43,150.12,3433.2,149.72Z" transform="translate(-3072.65 -120.61)"/><path class="cls-3" d="M3434.27,149.39q1,2.7,3.55-.65c-0.68-1.22-3.37-2-3.55.65C3434.49,149.71,3434.27,149.31,3434.27,149.39Z" transform="translate(-3072.65 -120.61)"/><path class="cls-3" d="M3371.51,187.91c-0.5-.7,4.73-3.66-2,0.9q1.06,3.48,3.16.73l-1.19-1.63h0Z" transform="translate(-3072.65 -120.61)"/><path class="cls-3" d="M3369.68,190.75c-1.93-3-2.66.21-1.38,1.88q2.63-.53,1.38-1.88h0Z" transform="translate(-3072.65 -120.61)"/><path class="cls-3" d="M3357.34,197.3c-3.76,2.66-2.36,4.9,1.76,1.91l-1.76-1.91C3356.47,197.92,3357.92,198,3357.34,197.3Z" transform="translate(-3072.65 -120.61)"/><path class="cls-3" d="M3338,211.35c-3.36,2.52-2.74,1.64-1.19,4.47q4.84-1.52,1.19-4.47C3337.13,212,3338.52,212.15,3338,211.35Z" transform="translate(-3072.65 -120.61)"/><path class="cls-3" d="M3328.67,219.61c-1.89-2.52-3.29,2.23-2.24,4.32q5.46-1.54,2.24-4.32h0Z" transform="translate(-3072.65 -120.61)"/><path class="cls-3" d="M3325.44,223.77c-2.53-3.64-10.57,3.49-8.52,7.83,1.44-1.19,9.31-6.7,8.52-7.83h0Z" transform="translate(-3072.65 -120.61)"/><path class="cls-4" d="M3327.41,221.13s63.41-49.65,105.53-70.07C3432.94,151.07,3367,189.11,3327.41,221.13Z" transform="translate(-3072.65 -120.61)"/><path class="cls-2" d="M3470.79,290.07c-13.81-15.25-38.24-14.92-57.14-15.68-20.19-.81-40.95-0.63-60.34-7.15-14.81-5-33.23-14.82-31.11-32.62,1.23-10.3,3.91-11.39-7.08-11.27-2.66,0-2.68,2.15-5.28,1.59-2.39-.52-0.94-4.47-5.18-4.31-3.85.15-4.56,4.64-7.23,6.24s-5.88,1.92-8.86,2.59a227.51,227.51,0,0,1-33.16,5.06c-23.38,1.68-44-5.27-66.11-11.65s-44.9-9.07-67.88-5.81a133.74,133.74,0,0,0-27.91,6.68c-3.92,1.46-20.21,7.21-20.87,11.93,9.54-6.53,23.76.83,30.7,7.51,9.11,8.78,14.3,20.32,17.29,32.44,3.11,12.63,3,28.52,9.37,40.14,4.23,7.66,10.58,21.67,8,31.42-1.69,6.38-12.81,17.52,3.4,10.61,10.36-4.41,19-17.1,12.78-27.92-2.51-4.37-8-5.8-4.63-11.32,4.05-6.54,10.35-1.73,14,2.19,6.19,6.65,15.08,22,26.64,18-5.48,11.62-28.91,16.79-27,32.36,1.36,11.18,8.52,9,12.59,2.57,4.47-7.1,6.51-11.37,14.08-15.53,3.64-2,5.37-1.83,8.35-5,2.25-2.41.28-5.29,3.8-7,2.5-1.21,6.06,2.05,8.53,1.67,4.22-.66,4.7-3.74,7.44-4.4,8.36-2,17.25,4.39,25.06,6.77a79.56,79.56,0,0,0,26.69,3.39c38.79-1.57,71.59-22.08,104.88-39.78,15.21-8.09,30.87-15.63,47.63-19.9a115.91,115.91,0,0,1,28.94-3.71c5,0,10.3,1.25,15.29.94,1.61-.1,6,1.7,4.34-1C3465.29,284,3471,290.47,3470.79,290.07Z" transform="translate(-3072.65 -120.61)"/><path class="cls-5" d="M3173.81,331.55c-5-4.41-7.4-12.52-13.29-15.79-5.66-3.14-14.25-.65-12.6,7.49-8.79-7.88-.79-16.49,8.14-18,8.35-1.39,18.27,1,25.21,5.68s10.67,11.5,10.45,19.92c-0.3,12-11.49,6.33-17.92.68h0Z" transform="translate(-3072.65 -120.61)"/><path class="cls-6" d="M3191.55,327.38c-1.43-13.13-13.18-20.11-25.31-21.93-9.65-1.44-32.14,5.4-18.31,17.8-1.16-5.72,3.76-9.72,9-9,6.41,0.83,9.5,8.8,13.16,13.17s7.76,8.09,13.27,9.69c8.09,2.35,9-2.31,8.18-9.7h0Zm-25.37-18.8c-1.61.71-4.59,2.34-5.69,2.7,0.71-.23-6.44,1.58-4.22.79-2.1.75-11.78,1.53-10.52,5.74-2-6.75,5.26-10.71,10.71-11.77,1.95-.38,12.79,1.19,9.72,2.55h0Z" transform="translate(-3072.65 -120.61)"/><path class="cls-6" d="M3191.55,327.38a21.62,21.62,0,0,0-7.62-14.62c0.67,2.65-2,2.54-2.09,4.44-0.06,2.63,1.46,2.89,2.3,5.05,1.53,3.93,7.81,5.83,1.07,10.19-11.3,7.31-16.72-17.13-27.08-18.16,7.79,2.64,10.81,13.47,17.08,18.35,2.78,2.17,8,5.75,11.77,5.26,5.71-.75,5.18-4.88,4.56-10.51h0Z" transform="translate(-3072.65 -120.61)"/><path class="cls-6" d="M3147.76,323.09q1.28,1.29.15-2.88l-0.15,2.88C3147.82,323.14,3147.49,322.21,3147.76,323.09Z" transform="translate(-3072.65 -120.61)"/><path class="cls-3" d="M3465.48,289.77c-0.74,1.06-20.75-.49-23.84-0.24a130.81,130.81,0,0,0-32.64,7.34c-23.14,8.11-44,21-65.68,32.24-20.5,10.59-42,20.15-65.2,22.36-11.16,1.06-21.73.71-32.56-2.36-7.6-2.15-19.41-10.46-27.34-6.33,0.74-1.91,2-7.54,1-9.47-0.78,4.57-.58,10.84-6.08,12.67-4.13,1.38-7.6-2.63-11.71-.47-3.55,1.87-3,5.82-5.6,8.32-3.31,3.13-8.34,3-12,5.57-5.75,4.08-6.12,14.92-11.11,18-7.27,4.43-8.27-9.39-6-13.93,8.25-16.48,37.09-22.69,23.13-46.32-7.91-13.39-38.78-21.64-47.38-4.47a20.11,20.11,0,0,1,4.26-3.86c-11.18,12.78,8.81,17.61,8.12,30.41-0.27,4.9-18.83,26.54-22.42,19.15-1-2,6-9.87,6.63-12.31,1.78-6.55-1.36-12.6-2.42-18.94-1.94-11.64,4.14-20.31,12.93-27.15-4.25,3.31-8.38,7-11.37,11.54,0.3-5.61-3.26-7.72,3.59-11.27-3.91,1.73-5.35,3-6.57,6.92a15.14,15.14,0,0,1,1.94,6.05,22,22,0,0,0-2.57,7.2c-6.11-2.74-7.47-18.68-8.58-24.27-2.3-11.56-3.43-23.46-8-34.45-7.94-19.14-23.14-33-44.49-26.59,31.75-22,76.31-21.16,112.05-11.42,18.44,5,36.5,12.09,55.8,12.92,10.25,0.44,20.09-.9,30.11-2.86,7.13-1.4,20.37-1.69,25.95-6.52-7,10.38-20.11,10.41-31.27,12.61a300.53,300.53,0,0,0-44.66,12,188.87,188.87,0,0,0-37.4,18.46c-7.5,4.82-18.31,17.82-26.69,19.91,5.45-1.34,11-7.65,15.41-10.8a222.2,222.2,0,0,1,22.08-14.08c14.69-8.05,30.42-13.83,46.53-18.31,15.19-4.23,33.7-5.18,47.92-11.88,5.65-2.66,7.63-8.72,12.61-11.26,7-3.58,4.43,4.24,12.1,3.21-5.35-2.37,5.87-5,8.56-1.67,1.61,2-1.68,8.17-2,10-0.68,4.43-.52,7,1.37,11.11,6.53,14.29,24.1,20.78,38.21,24.2,20,4.85,40.57,4.48,61,5.67,15.88,0.93,35.07,1.59,47.13,13.51l-2.82-.15S3466.42,289.82,3465.48,289.77Z" transform="translate(-3072.65 -120.61)"/><path class="cls-7" d="M3468.3,289.92c-12.06-11.92-31.25-12.58-47.13-13.51-20.4-1.18-41-.83-61-5.67-14.1-3.42-31.68-9.91-38.21-24.2-3.37-7.38,2.72-13.55.65-19.65-1.08-3.18-1.49-2.94-4.82-3.2-2.68-.2-9.06,1.07-3.79,3.41-6.12.82-5.68-5.62-11.16-4-4.16,1.2-7.56,8.95-11.59,11.29-13.68,8-34.59,8.42-49.87,12.67s-30.27,9.66-44.32,17.13a209,209,0,0,0-22.16,13.74c-4.82,3.4-11.74,10.89-17.54,12.32,7.74-1.93,17.91-14.14,24.66-18.6a188.43,188.43,0,0,1,39.43-19.77,304.46,304.46,0,0,1,42-11.49c11.72-2.45,26.51-2.21,33.9-13.16-5.05,4.37-15,4.24-21.32,5.51-9.1,1.82-17.87,3.65-27.2,3.89-17.79.46-34.54-4.34-51.4-9.45,21.21,12.87,5.46,26.91-10.12,34.47a147,147,0,0,0-20.94,12.67c-5.85,4.14-15.92,13.6-23.52,14-14.72.68-16.31-27.48-22.92-37.4-10.2-15.29-28.46-25.94-46.18-15.85,21.26-6.31,36.29,7.62,44.19,26.68,4.24,10.24,5.55,21.32,7.56,32.13,1.07,5.73,2.52,23.67,9,26.58a22,22,0,0,1,2.57-7.2,15.14,15.14,0,0,0-1.94-6.05c1.21-3.92,2.65-5.19,6.57-6.92-6.85,3.55-3.29,5.67-3.59,11.27,3-4.54,7.12-8.22,11.37-11.54-8.8,6.84-14.88,15.43-12.93,27.15,1,5.75,3.68,11.11,2.7,17-0.46,2.77-7.77,12.45-6.91,14.2,1,2.16,10.84-3,12.15-3.83,5.47-3.43,9.91-8.61,10.27-15.32,0.68-12.61-19.15-17.81-8.12-30.41a20.11,20.11,0,0,0-4.26,3.86c8.62-17.2,39.52-8.85,47.38,4.47,14.08,23.84-14.88,29.82-23.13,46.32-2.21,4.42-1.44,18.22,6,13.93,4.8-2.77,5.55-14,11.11-18,3.63-2.57,8.85-2.35,12-5.57,1.92-2,1.86-6,4.15-7.55,5-3.42,8.25,1.34,13.16-.3,5.5-1.84,5.3-8.1,6.08-12.67,1.09,1.93-.21,7.57-1,9.47,7.93-4.13,19.74,4.17,27.34,6.33,11.55,3.27,23,3.5,34.83,2.15,23.18-2.63,44.76-12.64,65.23-23.33,20.87-10.9,41.06-23.24,63.38-31.06,19.81-6.94,38.87-8.13,59.3-6.95C3457.67,279.42,3467.36,289.87,3468.3,289.92ZM3227,316.82c-11.84-.19-15.51-11.65-12.88-21.4,2.86-10.57,12.05-17.87,19.83-24.87-10.61,3.5-19.56,10.29-27.6,17.85-6.61,6.21-12.87,14.15-23.28,11.58-22.07-5.45,19.61-28.14,25.66-32.06-7.43,1.68-14.5,5.53-20.84,9.67-4.57,3-12.56,12.38-18.58,10.45-1.21-.37,20-17.34,22.58-18.87,9.74-5.76,20-9.83,30.69-13.36,13.29-4.38,26.61-8.87,40.3-11.88,10.74-2.36,24.85-3.22,33.95-9.82,2-1.44,6-8.31,8.92-6.71,3.58,1.93-1.84,9.6-3.13,11.37-7,9.49-17.88,16.09-26.54,23.88a119,119,0,0,0-24,29.77c-5.37,9.41-12.11,24.61-25.11,24.4h0Zm93.32-11.48c-13.21,12.91-40,27.36-59.47,22.9-20.37-4.66,2.1-38.11,8.85-46.68,6.35-8.07,32.4-43.92,41.22-27.68,2.25,4.14,2.38,9.77,4.44,14.2,1.6,3.44,3.71,6.62,5.39,10,4.42,9,7.79,19.21-.42,27.23h0Z" transform="translate(-3072.65 -120.61)"/><path class="cls-7" d="M3134.55,320.37c0.51-3.12,2.09-5.72,2.26-8.72,0.11-1.93-2.16-3.66-1.73-5.52,0.9-3.85,7.58-8.22,10.14-11.18-9.49.67-7.77,13.61-12.4,14.73-6.12,1.48-5.47-20.87-5.65-22.63-1.72-17.22-11.07-44.45-28.92-50.63,13.18,8.93,20.41,23.7,23.83,38.77,2.07,9.13,2.64,40.77,12.46,45.17C3135,317.81,3131.4,319,3134.55,320.37Z" transform="translate(-3072.65 -120.61)"/><path class="cls-7" d="M3230.34,246.16c-8.69,4.27-18.43,6.23-26.55,11.66a436.25,436.25,0,0,1,51.87-15.69c13.27-3.12,33.32-2.43,41.75-14.93-6.09,5.27-20.95,5.56-28.39,7a112.87,112.87,0,0,1-32,2.05c1.55,4.32-3.44,8.26-6.7,9.86h0Z" transform="translate(-3072.65 -120.61)"/><path class="cls-7" d="M3213.89,294.53a52.57,52.57,0,0,1,9.18-16c-11.07,8-20.6,19.38-9.59,31.53-2.07-5-1.35-10.64.41-15.57h0Z" transform="translate(-3072.65 -120.61)"/><path class="cls-7" d="M3225.38,276.94a53.33,53.33,0,0,0-7.3,10c3.54-5.3,8.37-9.68,13.09-13.9l-5.79,3.93C3222.6,279.93,3227.3,275.62,3225.38,276.94Z" transform="translate(-3072.65 -120.61)"/><path class="cls-7" d="M3184,280.25c-7,5.16-14.39,6.61-19.42,13.1,15.79-3,30.88-16.84,44.13-25.43-8.85,2-17.49,7-24.71,12.33h0Z" transform="translate(-3072.65 -120.61)"/><path class="cls-7" d="M3468.3,289.92c-12.06-11.92-31.25-12.58-47.13-13.51-20.4-1.18-41-.83-61-5.67-14.1-3.42-31.68-9.91-38.21-24.2-3.37-7.38,2.72-13.55.65-19.65-1.08-3.18-1.49-2.94-4.82-3.2-2.68-.2-9.06,1.07-3.79,3.41a5.66,5.66,0,0,1-5-1.3c1.91,4.51-.41,9.41-3.13,12.94,12-9.89,12.8,6.2,15.82,14.21,4.13,11,12.65,17.85,23.39,22,23.29,9.1,50,.28,72.54,10.14,0.5,0.22-9.85,3.64-11,3.94a117.24,117.24,0,0,0-17.69,6.27c-12.46,5.58-23.92,13.21-35.19,20.84-22.26,15.06-45.2,30.81-73,31.66-11.89.36-24-1.72-35.56-4.26-4.82-1.06-10.64-2-15-4.42-4.53-2.53-7-9.54-11.79-11.07-6.19-2-7.7,3.63-11.42,6.84-2.56,2.2-6,2.89-8.4,5-4.2,3.77-5.35,9.62-9.76,13.47-2.75,2.4-12.86,6.74-13.84,9,6.52-15,32.92-22.21,23.2-43-7.57-16.23-32.65-21.82-48.38-17.7q-1-1.74,1.59-3c-3.34-.38-13.17,7-11,2.21-5.4,3.15-2,6-2.28,10.55,3-4.54,7.12-8.22,11.37-11.54-8.8,6.84-14.88,15.43-12.93,27.15,1,5.75,3.68,11.11,2.7,17-0.46,2.77-7.77,12.45-6.91,14.2,1,2.16,10.84-3,12.15-3.83,5.47-3.43,9.91-8.61,10.27-15.32,0.68-12.61-19.15-17.81-8.12-30.41a20.11,20.11,0,0,0-4.26,3.86c8.62-17.2,39.52-8.85,47.38,4.47,14.08,23.84-14.88,29.82-23.13,46.32-2.21,4.42-1.44,18.22,6,13.93,4.8-2.77,5.55-14,11.11-18,3.63-2.57,8.85-2.35,12-5.57,1.92-2,1.86-6,4.15-7.55,5-3.42,8.25,1.34,13.16-.3,5.5-1.84,5.3-8.1,6.08-12.67,1.09,1.93-.21,7.57-1,9.47,7.93-4.13,19.74,4.17,27.34,6.33,11.55,3.27,23,3.5,34.83,2.15,23.18-2.63,44.76-12.64,65.23-23.33,20.87-10.9,41.06-23.24,63.38-31.06,19.81-6.94,38.87-8.13,59.3-6.95C3457.67,279.42,3467.36,289.87,3468.3,289.92Z" transform="translate(-3072.65 -120.61)"/><path class="cls-8" d="M3172.89,364.41c5.75-12.22,22.34-18.78,23.87-33s-12.33-24.44-24.83-26.57c15.86,4.43,28.64,22.62,16.9,37.83-5.38,7-14.42,10.57-19.83,17.62-1.91,2.5-7.52,21.33,2,18.43-3.18-3.59.16-10.68,1.85-14.27h0Z" transform="translate(-3072.65 -120.61)"/><path class="cls-8" d="M3142.83,316.38a14.14,14.14,0,0,1,3.85-7.6,20.11,20.11,0,0,0-4.26,3.86c1.52-3,4.5-5.12,7.43-6.69-25.84,8.41,12.6,46.94-17.32,52.57,6.29,4.95,20.28-11.22,21.56-15.63,3.89-13.3-12.48-16.06-11.27-26.51h0Z" transform="translate(-3072.65 -120.61)"/><path class="cls-8" d="M3246.84,346.22c-9.72-3.95-21.57-4.5-27.6-12.45a24.18,24.18,0,0,1-1,9c7.09-3.69,16.24,2.67,22.74,4.9a76.49,76.49,0,0,0,27.76,4.42,93.29,93.29,0,0,1-21.89-5.88h0Z" transform="translate(-3072.65 -120.61)"/><path class="cls-8" d="M3219,333.46c-4.94-5.11-7.56-.07-10.53,3.4q0,4.7-4.2,5a3.53,3.53,0,0,0-3.3.06c-3.11,3.29-3.62,7.74-6.94,10.88-3.08,2.9-7.51,3.53-10.43,6.71,3.7-2.77,8.83-2.53,12.21-5.72,3.12-2.95,2-7.73,7.05-9.09s8.17,3.61,13-.59c1.51-1.31,4.76-9,3.13-10.7h0Z" transform="translate(-3072.65 -120.61)"/><path class="cls-2" d="M3292.41,254c-13.85,12.55-26.11,24.95-35.84,41-4.86,8-13.44,33.31-25.35,33.17,15.05,0.2,23.89-29,30.42-39,7.93-12.08,22.46-27.65,30.77-35.2C3285.43,260.36,3293.17,253.35,3292.41,254Z" transform="translate(-3072.65 -120.61)"/><path class="cls-2" d="M3205.11,270.22c-12.41,5.13-36.83,31.45-51.29,23.55,16.94,9.09,37.26-17.75,51.29-23.55h0Z" transform="translate(-3072.65 -120.61)"/><path class="cls-2" d="M3233,270.19c-16.65,10.78-24.76,25.69-19.62,45,0.42-11-2.48-17.3,3.47-27.63,3.71-6.45,10.3-13.58,16.15-17.36h0Z" transform="translate(-3072.65 -120.61)"/><path class="cls-9" d="M3216.65,341.77c-2.38,5.86-9.55,2.94-7.17-2.91S3219,335.91,3216.65,341.77Z" transform="translate(-3072.65 -120.61)"/><path class="cls-10" d="M3216,341.87c-2.86,7-4.93-2-4.79-1.95-0.13-.05,7.65-5.08,4.79,1.95h0Z" transform="translate(-3072.65 -120.61)"/><path class="cls-9" d="M3213.51,339.25c-1.59,3.91-2.74-1.11-2.67-1.08s4.25-2.82,2.67,1.08h0Z" transform="translate(-3072.65 -120.61)"/><path class="cls-9" d="M3212.59,342.85q-1,1.08-1-.4,1-1.08,1,.4h0Z" transform="translate(-3072.65 -120.61)"/><path class="cls-9" d="M3136.21,303.86c-2.48,8.14,4.46,1,4.25.94,0.19,0-1.76-9.13-4.25-.94h0Z" transform="translate(-3072.65 -120.61)"/><path class="cls-10" d="M3136.43,304.16a2.09,2.09,0,0,0,.67,2.78c1.94,0.43,3.5-4.49,1.5-4.94a2.5,2.5,0,0,0-2.18,2.16h0Z" transform="translate(-3072.65 -120.61)"/><path class="cls-9" d="M3138.59,303.48c-1.18,3.9,3.44-.71,1.21-1.2l-1.21,1.2h0Z" transform="translate(-3072.65 -120.61)"/><path class="cls-9" d="M3137.49,306.11c-0.53,1.75.56-1.85,0,0h0Z" transform="translate(-3072.65 -120.61)"/><path class="cls-2" d="M3181.85,324.89c-3.92-3.38-17.63-22.35-17.23-9.45,0.14,4.5,8.33,14.46,12.22,16.24,6.12,2.81,11.35-1.31,5-6.79h0Z" transform="translate(-3072.65 -120.61)"/><path class="cls-11" d="M3182,332.46c-4.57.55-21.43-16.93-17.15-21.37,1-1.06,22.52,16.45,17.15,21.37C3181,332.59,3184.16,330.47,3182,332.46Z" transform="translate(-3072.65 -120.61)"/><path class="cls-12" d="M3164.75,312c2.13-1.24,17.71,17.18,18.13,19.52,3.48-4.37-15.47-21-18.13-19.52C3166.23,311.13,3164.69,312,3164.75,312Z" transform="translate(-3072.65 -120.61)"/><path class="cls-2" d="M3188,318.44c-3.08-2.71-24.38-20.33-14.93-5.86,2.28,3.5,8,10.31,11.86,11.7,5.52,2,8.31-1.22,3.08-5.84h0Z" transform="translate(-3072.65 -120.61)"/><path class="cls-11" d="M3186.94,324.41c-2.06-.93-18.35-14.65-15.44-17.63,5.07,1.87,10.52,7.35,14.31,11.11,1.65,1.63,7.77,9.55,1.13,6.52h0Z" transform="translate(-3072.65 -120.61)"/><path class="cls-12" d="M3172.89,308.5c2.9,0.89,16.79,12.7,17.37,15.92,2.12-5.18-19.05-17.91-19.28-16q0.45,1,1.91.13h0Z" transform="translate(-3072.65 -120.61)"/><path class="cls-2" d="M3192.49,331.87c-2-2.13-5.82.27-4.91,2.92,1.58,4.59,7.94.29,4.91-2.92h0Z" transform="translate(-3072.65 -120.61)"/><path class="cls-11" d="M3191.64,336.15c-2.74,3.09-3.71-5.07-3.05-4.08s6.74-.09,3.05,4.08h0Z" transform="translate(-3072.65 -120.61)"/><path class="cls-12" d="M3192.24,333.8c-0.26-2.78-5.46-2-4.4.25l4.4-.25C3192.2,333.35,3190.86,333.78,3192.24,333.8Z" transform="translate(-3072.65 -120.61)"/><path class="cls-9" d="M3148.81,328c-4.36-4.37-8.73-8.65-6.21-15.25-6,15.69,22.72,26.56,1.86,41.4,9-6.4,12.75-17.74,4.35-26.15h0Z" transform="translate(-3072.65 -120.61)"/><path class="cls-9" d="M3188.44,344.21c-8.28,8.22-25.29,16.19-20.93,30.51-3.74-12.38,14.17-23.78,20.93-30.51h0Z" transform="translate(-3072.65 -120.61)"/><path class="cls-9" d="M3205.85,343.68c-8.13,1.76-7.44,8.46-14.38,11.37,7-2.86,6.85-9.76,14.38-11.37h0Z" transform="translate(-3072.65 -120.61)"/><path class="cls-4" d="M3145.62,296.27c-1.9,2.47-5.44,1.95-7.47,4.26,1.38-1.57,5.9-2.26,7.47-4.26C3143.76,298.69,3145.69,296.18,3145.62,296.27Z" transform="translate(-3072.65 -120.61)"/><path class="cls-4" d="M3347.77,324.69c-32,20.48-74.56,33.32-111.26,20.15,38.53,13.63,78.09.91,111.26-20.15C3331.49,335.13,3347.87,324.63,3347.77,324.69Z" transform="translate(-3072.65 -120.61)"/><path class="cls-4" d="M3125.66,288c-3-21.39-11.82-48.34-33.94-55,34.16,10.05,28.1,55,38.76,80.67-3.34-7.86-3.65-17.15-4.82-25.62h0Z" transform="translate(-3072.65 -120.61)"/><path class="cls-4" d="M3199.94,263.92c-8.29,4.27-15.11,9.14-22.54,14.43,7.24-5,15-10.57,22.54-14.43h0Z" transform="translate(-3072.65 -120.61)"/><path class="cls-4" d="M3235.57,269.76c-9.83,7.08-20,16.92-21.31,29.63,1.18-11.16,12.77-23.52,21.31-29.63C3225.77,276.81,3235.85,269.55,3235.57,269.76Z" transform="translate(-3072.65 -120.61)"/><g class="cls-13"><path class="cls-3" d="M3383.52,286.77c-0.45-2.09-5.8,1.31-3.84,3.13,1.49,1.38,4.15-1.72,3.84-3.13h0Z" transform="translate(-3072.65 -120.61)"/><path class="cls-3" d="M3388.63,285.15c-0.87,0-1.91,1.78-.78,1.78C3388.72,286.93,3389.75,285.15,3388.63,285.15Z" transform="translate(-3072.65 -120.61)"/><path class="cls-3" d="M3385.73,293c-2.41-.08-7.73,5.54-4,5.84,2.88,0.23,6.4-5.77,4-5.84h0Z" transform="translate(-3072.65 -120.61)"/><path class="cls-3" d="M3397.6,287c-0.75,0-1.65,1.54-.67,1.54C3397.68,288.53,3398.57,287,3397.6,287Z" transform="translate(-3072.65 -120.61)"/><path class="cls-3" d="M3359.21,278c-2.79-1.44-7.94,4.44-4.68,5.37,2.46,0.7,7.4-4,4.68-5.37h0Z" transform="translate(-3072.65 -120.61)"/><path class="cls-3" d="M3364.4,283.51c-1,0-2.2,2.05-.9,2.05C3364.5,285.57,3365.7,283.51,3364.4,283.51Z" transform="translate(-3072.65 -120.61)"/><path class="cls-3" d="M3378.38,278.85c-0.64-3.3-5.91,1.49-3.55,2.74,1.29,0.68,3.8-1.42,3.55-2.74h0Z" transform="translate(-3072.65 -120.61)"/><path class="cls-3" d="M3421.93,283.52c-2.85-3-6.84,4-5.26,4.22,1.27,0.16,8-1.39,5.26-4.22h0Z" transform="translate(-3072.65 -120.61)"/><path class="cls-3" d="M3434.42,281.25c-0.9,0-2,1.85-.81,1.85C3434.51,283.1,3435.59,281.25,3434.42,281.25Z" transform="translate(-3072.65 -120.61)"/><path class="cls-3" d="M3406.2,289.68c-0.68-3-4.8.43-5.28,1.92-1.49,4.6,6,1.07,5.28-1.92h0Z" transform="translate(-3072.65 -120.61)"/><path class="cls-3" d="M3403.36,279.64c-0.74-.25-4,1.94-2,2.68,1.46,0.56,3.36-2.27,2-2.68h0Z" transform="translate(-3072.65 -120.61)"/><path class="cls-3" d="M3448.67,282.78q-1.85.45-.76,1.73Q3449.77,284.06,3448.67,282.78Z" transform="translate(-3072.65 -120.61)"/><path class="cls-3" d="M3111.24,223.47c-2.44-1.25-5.42,3.13-3.53,3.8,1.49,0.52,5.33-2.87,3.53-3.8h0Z" transform="translate(-3072.65 -120.61)"/><path class="cls-3" d="M3097.91,226.36c-0.57,0-1.25,1.17-.51,1.17C3098,227.52,3098.64,226.36,3097.91,226.36Z" transform="translate(-3072.65 -120.61)"/><path class="cls-3" d="M3104.54,225.93c-0.74-.1-3.11,1.33-1.69,2.22s2.84-2.07,1.69-2.22h0Z" transform="translate(-3072.65 -120.61)"/><path class="cls-3" d="M3127,230.71c-4.48-2.22-4.56,5.64-2.17,3.82,0.17-.13,4.45-2.7,2.17-3.82h0Z" transform="translate(-3072.65 -120.61)"/><path class="cls-3" d="M3140,221.2c-0.57,0-1.24,1.17-.51,1.17C3140.09,222.36,3140.77,221.2,3140,221.2Z" transform="translate(-3072.65 -120.61)"/><path class="cls-3" d="M3128.72,222.46c-0.24-2.89-4.82,1.16-3.77,2.32s3.87-1.05,3.77-2.32h0Z" transform="translate(-3072.65 -120.61)"/><path class="cls-3" d="M3156.35,222.21c-0.06-1.48-5.91,1.45-3.35,2.81,1.1,0.58,4.72-1.36,3.35-2.81C3156.35,222.12,3156.65,222.52,3156.35,222.21Z" transform="translate(-3072.65 -120.61)"/><path class="cls-3" d="M3145.38,229.26c0.44-2.5-4.31,3.67-1.21,1.54-0.75.7,1.14-1.13,1.21-1.54h0Z" transform="translate(-3072.65 -120.61)"/><path class="cls-3" d="M3143.69,231.06c0.35-.12.06,0,0,0h0Z" transform="translate(-3072.65 -120.61)"/><path class="cls-3" d="M3187.34,227.86c-2-1.15-8.45,2.41-6.93,5.22,1.69,3.11,9.67-3.63,6.93-5.22h0Z" transform="translate(-3072.65 -120.61)"/><path class="cls-3" d="M3174.2,227.64c-0.57,0-1.25,1.17-.51,1.17C3174.26,228.81,3174.94,227.64,3174.2,227.64Z" transform="translate(-3072.65 -120.61)"/><path class="cls-3" d="M3223.82,242.45c-5-2.47-3.33,3.8-2.41,3-0.16.15,4.69-1.83,2.41-3h0Z" transform="translate(-3072.65 -120.61)"/><path class="cls-3" d="M3217.91,236.06c-1-.45-4.49.8-3.88,2.36,1.26,3.27,5.94-1.46,3.88-2.36h0Z" transform="translate(-3072.65 -120.61)"/><path class="cls-3" d="M3243.87,239.26a1.36,1.36,0,0,0-1.31,1.65c0.7,1.56,2.84-1.55,1.31-1.65h0Z" transform="translate(-3072.65 -120.61)"/><path class="cls-3" d="M3283.5,245.92c-0.74-1-2.27.21-2.21,0.19-2.53.83,4.56,3.06,2.21-.19h0Z" transform="translate(-3072.65 -120.61)"/><path class="cls-3" d="M3281.37,246h0Z" transform="translate(-3072.65 -120.61)"/><path class="cls-3" d="M3294.14,239c-0.59,0-1.28,1.2-.52,1.2C3294.21,240.22,3294.9,239,3294.14,239Z" transform="translate(-3072.65 -120.61)"/><path class="cls-3" d="M3296.63,241.63c-3.06-1.28-1.77,3.13-1.67,3s4-2,1.67-3h0Z" transform="translate(-3072.65 -120.61)"/><path class="cls-3" d="M3312.42,234.11c-1.36-.57-2.43,1.12-3.11,1.84C3305.48,239.93,3317.8,236.37,3312.42,234.11Z" transform="translate(-3072.65 -120.61)"/><path class="cls-3" d="M3318.11,249.71c-0.86-1.23-2.76.83-2.68,1.77,0.12,1.44,3.94.11,2.68-1.77h0Z" transform="translate(-3072.65 -120.61)"/><path class="cls-3" d="M3316.83,263h0Z" transform="translate(-3072.65 -120.61)"/><path class="cls-3" d="M3317.61,261.18c-1.11-2.65-3.63,2.7-2.65,3s3.06-2,2.65-3h0Z" transform="translate(-3072.65 -120.61)"/></g><path class="cls-14" d="M3246.36,269.33c-8.63,3.17-15.47,6.23-21.1,13.9-1.65,2.25-12.46,23.58-4.07,22.31,1.71-.26,9-19.57,10.75-21.86,2.71-3.61,11-13.1,14.42-14.35h0Z" transform="translate(-3072.65 -120.61)"/><path class="cls-14" d="M3205.43,273.51a44.92,44.92,0,0,0-21,9.86c-1.35,1.12-11.62,11.43-5.7,12.69,2.94,0.63,9.29-10.57,11.32-12.37,3-2.67,13-9.8,15.43-10.19h0Z" transform="translate(-3072.65 -120.61)"/><path class="cls-14" d="M3176.53,279.93c-0.92.54-13.38,10.62-6.11,8,2.5-.91,6.56-8.24,6.11-8h0Z" transform="translate(-3072.65 -120.61)"/><path class="cls-14" d="M3324.59,330c-13,4.8-26.59,8.58-40.38,10-12.12,1.26-29.64,3-41.15-1.85,12.56,10,37.92,8,52.44,5.24a104.22,104.22,0,0,0,25.31-8.24c4.58-2.17,18-7.77,19.48-12.86a67.7,67.7,0,0,1-15.7,7.7h0Z" transform="translate(-3072.65 -120.61)"/><path class="cls-14" d="M3136.08,287.69c-5.25-22-8.12-52.29-36.48-56.79,13.76,5.38,21.06,18.44,25.19,31.82,1.38,4.49,5.44,33.68,12.58,33.43q-0.64-4.23-1.29-8.46C3135.85,286.73,3136.51,290.5,3136.08,287.69Z" transform="translate(-3072.65 -120.61)"/><g class="cls-15"><path class="cls-16" d="M3145.25,373.49c0,3.94-6.1,3.94-6.1,0S3145.25,369.54,3145.25,373.49Z" transform="translate(-3072.65 -120.61)"/><path class="cls-17" d="M3144.7,373.53c0,6.1-5.38,0-5.34,0S3144.7,367.44,3144.7,373.53Z" transform="translate(-3072.65 -120.61)"/><path class="cls-18" d="M3140.7,373.14l2.49-2a2.93,2.93,0,0,0-3.8,2.31c1.46,0.9.89,0.95,1.31-.31h0Z" transform="translate(-3072.65 -120.61)"/><path class="cls-18" d="M3140.24,375.1c1.57,1-.55-1.25-0.87-1.44a1.32,1.32,0,0,0,.87,1.44h0Z" transform="translate(-3072.65 -120.61)"/></g><g class="cls-15"><path class="cls-16" d="M3107.08,261.92c0,15.82-24.57,15.78-24.58,0S3107.08,246,3107.08,261.92Z" transform="translate(-3072.65 -120.61)"/><path class="cls-17" d="M3104.87,262.1c0,13.79-21.51,13.79-21.51,0S3104.87,248.18,3104.87,262.1Z" transform="translate(-3072.65 -120.61)"/><path class="cls-18" d="M3088.73,260.5a12.66,12.66,0,0,1,10-8.07c-7.78-3.14-22,7.65-10.71,12l0.68-3.94h0Z" transform="translate(-3072.65 -120.61)"/><path class="cls-18" d="M3086.89,268.43l2.06,1.21c-2.39-6.48.49-3.24-5.55-7,0,3.31.66,4.07,3.49,5.83h0Z" transform="translate(-3072.65 -120.61)"/></g><g class="cls-15"><path class="cls-16" d="M3122.58,333.2c0,7.45-11.72,7.45-11.72,0S3122.58,325.53,3122.58,333.2Z" transform="translate(-3072.65 -120.61)"/><path class="cls-17" d="M3121.52,333.29c0,6.52-10.26,6.52-10.26,0S3121.52,326.57,3121.52,333.29Z" transform="translate(-3072.65 -120.61)"/><path class="cls-18" d="M3113.83,332.53a6,6,0,0,1,4.78-3.85c-3.69-1.49-10.41,3.68-5.11,5.73l0.33-1.88C3114.52,330.45,3113.61,333.16,3113.83,332.53Z" transform="translate(-3072.65 -120.61)"/><path class="cls-18" d="M3112.95,336.31c3,1.87-1.08-2.41-1.67-2.78,0,1.59.29,1.92,1.67,2.78h0Z" transform="translate(-3072.65 -120.61)"/></g><g class="cls-15"><path class="cls-16" d="M3113.51,357.92c0,8.59-13.52,8.59-13.52,0S3113.51,349.07,3113.51,357.92Z" transform="translate(-3072.65 -120.61)"/><path class="cls-17" d="M3112.29,358c0,7.52-11.83,7.52-11.83,0S3112.29,350.27,3112.29,358Z" transform="translate(-3072.65 -120.61)"/><path class="cls-18" d="M3103.41,357.14a7,7,0,0,1,5.52-4.44c-4.26-1.7-12,4.24-5.89,6.6l0.37-2.17h0Z" transform="translate(-3072.65 -120.61)"/><path class="cls-18" d="M3102.4,361.5c3.48,2.15-1.24-2.78-1.92-3.2,0,1.81.39,2.25,1.92,3.2h0Z" transform="translate(-3072.65 -120.61)"/></g><g class="cls-15"><path class="cls-16" d="M3094.34,320.31c0,11.58-17.94,11.58-17.94,0S3094.34,308.74,3094.34,320.31Z" transform="translate(-3072.65 -120.61)"/><path class="cls-17" d="M3092.72,320.45c0,10.13-15.7,10.13-15.7,0S3092.72,310.33,3092.72,320.45Z" transform="translate(-3072.65 -120.61)"/><path class="cls-18" d="M3080.94,319.28a9.54,9.54,0,0,1,7.33-5.89c-5.66-2.27-16,5.64-7.82,8.76l0.49-2.87C3082,316.11,3080.62,320.25,3080.94,319.28Z" transform="translate(-3072.65 -120.61)"/><path class="cls-18" d="M3079.6,325.07l1.5,0.88c-1.75-4.74.36-2.35-4.05-5.14,0,2.41.49,3,2.55,4.25h0Z" transform="translate(-3072.65 -120.61)"/></g></g></g></svg>