<svg xmlns="http://www.w3.org/2000/svg" xmlns:xlink="http://www.w3.org/1999/xlink" viewBox="0 0 281.85 200.74"><defs><style>.cls-1{fill:none;}.cls-2{isolation:isolate;}.cls-3{fill:#181817;}.cls-4{fill:#65564d;}.cls-5,.cls-6,.cls-8{fill:#5f605f;}.cls-16,.cls-5,.cls-9{opacity:0.4;}.cls-12,.cls-16,.cls-23,.cls-24,.cls-37,.cls-5,.cls-6,.cls-9{mix-blend-mode:multiply;}.cls-17,.cls-23,.cls-34,.cls-6,.cls-8{opacity:0.5;}.cls-7{fill:#ac250e;}.cls-13,.cls-17,.cls-26,.cls-34,.cls-35,.cls-8{mix-blend-mode:screen;}.cls-9{fill:#612844;}.cls-10{fill:#533d30;}.cls-11,.cls-12,.cls-13{fill:#7e5a48;}.cls-12,.cls-25{opacity:0.3;}.cls-13,.cls-24{opacity:0.6;}.cls-14{fill:#3f250e;}.cls-15,.cls-17,.cls-25,.cls-26{fill:#a85825;}.cls-16,.cls-19,.cls-23,.cls-24{fill:#4e280d;}.cls-18{fill:#a0a199;}.cls-20{fill:#853f18;}.cls-21{fill:#d1d1d1;}.cls-22,.cls-35{fill:#fff;}.cls-26{opacity:0.8;}.cls-27{fill:#161615;}.cls-28{fill:#2d1803;}.cls-29{fill:#414143;}.cls-30{clip-path:url(#clip-path);}.cls-31{fill:#512409;}.cls-32,.cls-34{fill:#813819;}.cls-33{fill:#2f1601;}.cls-36,.cls-37{fill:#272825;}</style><clipPath id="clip-path" transform="translate(46.39 -458.73)"><path class="cls-1" d="M11.36,558.29c-4.1,7.52-22.68,16.91-20.38,2,2.08-13.42,26.07-14.76,20.38-2C11.1,558.75,12,556.91,11.36,558.29Z"/></clipPath></defs><title>anim_86</title><g class="cls-2"><g id="Layer_1" data-name="Layer 1"><path class="cls-3" d="M235.47,576.85c-0.92-.49-4.22,2.15-4.84,2.7,1.92-3.53,3-5.68,3.43-9.65-1.1-.15-2.8,3.51-2.92,3.69,1.13-2,4.91-8.85,2.9-11.28q-2.8-.07-2.68,4.23A36.14,36.14,0,0,0,233,547c-0.28-.1-1.92,5.87-2,5.94,0.59-5.54,2.39-10.27.46-15.7a1.8,1.8,0,0,0-.74,1.91c-0.2-12.17-7.7-21.18-9.56-32.68-1,.65-1.34,4.56-1.43,5.28,0-.58.1-11.46,0.28-11.54-1.53.64-2.4,4.1-2.54,5.23-0.62-5.86-2.59-10.75-6.85-14.66,0,1.84.23,3.62,0.17,5.48-0.76-4-1.07-8.1-2.26-11.9-1.15.58-1.57,5.28-1.61,5.83-0.56-2.47-1.06-4.9-1.66-7.37q1.6,2.37-.06,3.31a8.68,8.68,0,0,0-3.31-3c-2-.66-4.63-7.72-9-9.13,3.35-.84-5.57-3.29-5.11-3.24a3.73,3.73,0,0,0,1.94-1.68c-4.1.76-4.65-1.39-8.72-2.69,3.2-.39-5.39-2.54-4.95-2.5,0.58-.25-10.46-3.13-12.09-3.39a27.62,27.62,0,0,0-13.65.93c0.15-.05,4.38-2.18,3.75-2.42-2.25-.84-6.4,1.43-7.89,2.26,1-.93-5.22.73-5.78,2.38a7.86,7.86,0,0,0,.72-1.72,12.37,12.37,0,0,0-4.23,5.42q1.82-1.61.67-2.79c-3.69,3.21-5.14,9.47-5,14.19a12.36,12.36,0,0,1-1.25-4.3c-1.66,3.35-.35,7.55.29,11-0.08-.17-1.69-5.3-1.72-5.22-1.84,4.64,1.54,11.08,3.72,14.95a16.91,16.91,0,0,1-3.12-6.11c1.27,4.75,2.57,9.6,6.88,13.77-0.24-.16-4.73-4-4.71-4,1.79,5,7.34,8.14,11.26,11.07-0.35-.08-6.23-3.14-4.91-1.81q-1.56-4.1-3.31-2.74c2.33,5,12.07,9,16.64,11.28,0.11,0-6.17-2.42-5.83-2,3.3,3.58,7.67,4.32,11.8,6.44-10.44-1.5,4.92,2.35,6.7,3.64a12.66,12.66,0,0,0-4.41-.33c3,1.53,6.35,2.35,9.44,3.79,3.29-.07-6.81-0.45-4.71-0.23,3.69,4,8.66,6.13,13.92,8.33q-4-2.75-4.63-.13a25.29,25.29,0,0,1,8.34,3.88,26,26,0,0,1-3.27-1.39c3.09,1.37,4.89,3.76,6.64,6.45a10.63,10.63,0,0,0-4.68-1.82c1.78,2,3.91,2.94,5.65,5.13a6.84,6.84,0,0,0-5.05-1.07c0.13-.05,8.94,7.25,8.94,9.22-1.41-1.26-3-1.33-4.43-2.41,2.3,3.33,5.76,6.46,6.4,10.66a6,6,0,0,0-2.65-3c1,0.29,2.81,10.81,2.5,11.9-1.67-3.31-2.88-6.17-6.58-7.48,2.21,3,5,7.91,4.93,11.9a11.63,11.63,0,0,0-3.08-5.53c0.68,0.46,1.36,8.25,1.32,8.87a33.73,33.73,0,0,0-3.67-8c-0.4,4.74,2.06,10.73.27,16.44a14.63,14.63,0,0,0-.73-6.31c-0.56,2.77-.39,5.54-1.28,8.28,0.05-1.46.15-1.51-.48-2.66,0.08,2-1.84,5.7-2.84,7.39A16,16,0,0,0,182,592c-1.75,4.6-5.37,8.52-8,12.59a24.83,24.83,0,0,0,2.35-5.95s-4.14,5-4.26,5.22a30.2,30.2,0,0,0,1.61-4.44c-1.67,2.64-5.48,5.6-6.51,8.16q1.4-2.19,2.81-4.36c-1.11,2.22-7.72,4.16-9,7.59,2.72-7.28-3,.83-7.59,2.48a7.68,7.68,0,0,0,2.66-4.69,14.82,14.82,0,0,1-6.62,4.77,4.42,4.42,0,0,0,1.89-3.45c-2.1,3.07-6.08,4.47-9.44,5.49,2.39-.73,4-3.35,4.38-5.62-1.36,2.27-7.67,3.58-10.13,3.91a3.56,3.56,0,0,0,3.51-2c0.06,1.3-10,.58-10.79.51a2.7,2.7,0,0,0,2.78-1.47c-3.83.49-8.83-1.9-11.63-4.32,4.63,4-5.12-4.73-3.54-4.81-3.66.18-3.36,7-1.71,11.74,3.55,10.25,11.73,18.61,19.43,25.65q1.72-.9-0.34-2.81c2.06,3,7.71,7.52,11.5,6.89q0.89-2.49-3.4-2.9c1.56,0.9,12.87,5.4,13.74,3.33q-0.18-1.22-1.72-1.09a50,50,0,0,0,27.59-1.36q0.4-1.42-1.24-.9c8.12-1.56,15-6.24,21.58-10.77,4.31-2.95,10.62-11.09,13.66-12.7q-2.4,1.8-4.78,3.62c8-6.13,12.39-16.29,15.88-25.25a14.37,14.37,0,0,1-4,4.65c6.11-6.93,7.26-15.76,12.72-22.9C235.37,576.8,234.75,577.79,235.47,576.85Z" transform="translate(46.39 -458.73)"/><path class="cls-4" d="M229.58,583.41l-1.75,4.29c5-10.32-.91,5.15-1.36,6-1,1.8-4.6,7.32-5.37,7.79a18.39,18.39,0,0,0,4.6-3.85,48.93,48.93,0,0,1-5.45,9.15c-1.13,1.63-8.22,10.86-1.3,2.89-2,3.65-6,9.77-9.77,11.88a12.11,12.11,0,0,0,5.08-3.14c-6.7,7.77-15.69,10.46-24.69,14.33,4.17-.23,8.39-2,12.1-3.75-7.33,6.19-17.47,10.34-27,11.68a18,18,0,0,0,4.68.32c-8.78,2.52-20.27,2.85-29.06-.11q-0.47,1.17,1.25,1.54c-4.71-.93-9.32-2-12.64-5.53q-0.29.22,0.25,0.56-0.1-.51-0.3-0.3a19.61,19.61,0,0,0,3.52,4.42c-3.7-1.83-8.26-4.73-10.58-8.22a8,8,0,0,0,1.72,3.75c-2-2.39-4.8-6-5.4-9.23a17.35,17.35,0,0,0,2.48,6.58c-3-3.09-6.3-7.15-7.8-11.31,1.27,9.78-1.12,1.63-2.75-2a25.2,25.2,0,0,1-2.4-8q-0.88.14,0,1.68c-2.59-2.94-1.47-12.73-1.89-13.13,4.45,4.2,5.7,8.16,12.38,10.11q-1.43-.15-1.18.91c4.16,0,7.58.32,11.72-.27-0.87.13-5.31,1.93-5.38,1.93a23.81,23.81,0,0,0,12.18-3.19c0.18-.27-4.87,4.82-4.59,5,1.43,1,7.52-2.55,7.93-2.83-2.57,2.35,5.84-2.38,5.74-2.28q-3.12,1.47-1.77,3.1A21.88,21.88,0,0,0,161.5,609q-2,1.53-.68,2.32c3.06-2,5.37-5.3,8.32-7.44a17.22,17.22,0,0,0-2.77,4.85c0-.07,4.95-4.8,5.28-5.25-1.16,4.25,4.33-4.32,4.29-4.28-0.48.61-2,6-2.18,6.19,2.73-2.29,5.05-6.29,6.64-9.4q-1.21,1.35-.35,2.38c1.37,0.08,3.9-7.2,3.68-6.53q-0.89,1.82.44,1.64a17.84,17.84,0,0,0,1.53-5.67q0.06,1.59,0,3.18c-0.7-4.14,3.29-10,1-15.82a47.67,47.67,0,0,1,2.84,7.77c-0.58-2.09.91-5.82-.49-8.84A36.09,36.09,0,0,1,191.3,579c-0.4-.47-2.24-10.21-3.37-12,2.79,2.29,3.39,4.48,4.93,7.46-0.8-1.47-.16-8.5-1.73-11.59q1.07,1.61,2.29,3.11c-0.09-.07-3.07-8.73-5-10.52q2.19,3.73,3.78,2a28.65,28.65,0,0,0-9.06-9.78,8.35,8.35,0,0,1,5.43,2.29c-0.85-.78-3.8-4.88-5.72-6.07-0.36-.13,5.52,3.42,5.45,3.47,1-.85-4.64-6.43-5-6.74q1.32,1.84,2,.59c-1.43-2-6.09-4.14-8-4.83q3.18,2.3,3.7.09c-1.41-.75-13.6-4.73-6.52-3.43a19.36,19.36,0,0,1-4.76-2.15s-3.19-2.66-3-2.53q3.93,2.18,4.3-.32a51.34,51.34,0,0,0-7.65-3.07c0.24,0,3.22.48,2.71-.13-1.71-2-7.4-3-9.5-3.32q2.85,2,3.56-.13c-3.15-2.39-7.4-2.85-10.69-5.12,11.91,5.61-5.93-5-7.45-6.34q2.55,2.17,3.19.22c-3.12-2.8-6.56-4.06-9.14-7.51q2,3.34,3.41,1.52c-2.87-3.58-5.44-6.11-7.47-10.32,5.58,9-2.28-9.81-2-12a12.09,12.09,0,0,0,1.9,5c-0.7-1-.69-8-0.51-10,1.6,7.94,3.4-8.72,5.52-11.15a10,10,0,0,0-.74,5,15.36,15.36,0,0,1,4.12-7.78q-1.18,1.14-.23,1.69a12.15,12.15,0,0,1,4.5-3,2.12,2.12,0,0,0-1.34,1.45c3.34-.79,6.09-4,9.74-3.69q-4.35.17-3.52,2.44c3.58-.91,6-1.93,9.69-1.3q-1.78.15-1.3,1.19c2.27,0,10.13.81,11.81,0.23a15.39,15.39,0,0,0-4,.8c1.28,0.21,8.93,1.34,10.34.77-1.17.47-3,.06-4.27,0.37l8.73,1.71a7.66,7.66,0,0,0-4.27.2,29.62,29.62,0,0,1,9.31,3.43,21.5,21.5,0,0,1-3.89-.91c1.58,1.5,4.25,1.56,6.36,1.52-4.88,2.67,2.16,1.38,4.55,3.36a13.3,13.3,0,0,0-3.27-.26c2.21,0.71,7,3,8.55,4.67-1-.38-5-1.23-5.8-0.6,2.89,0.73,8.36,2.32,9.79,5.23q-3.66-3.15-4.63-.52c2.75,2.16,5.77,2.93,8.47,5.59,0.86,0.84.09,4.74,1.55,5.09,0.56,0.14,1.45-6.57,1.42-6.5,0.46,4.24.28,9,2.18,13,0.49,1,.8-6.57.8-6.58,1.1,2.19,3.22,9,2.47,11.15,0.82-2.46-.08-5.89-0.62-8.35,3.47,3.51,2.61,9.61,4.26,13.88,0.93-.65.8-6.15,2.14-7.75-0.61,4.6-.9,9.08.16,13.65,0.57-.44,1-5.27,1.13-5.62,0.29,4.66,1.61,9,2.19,13.64-0.33-2.7-.74-6.27-1-9.31a40.42,40.42,0,0,1,4.41,16.4q1.4-1.26.71-3.7c0.62,2.71,1.47,19.53,1.69,8.44a29.16,29.16,0,0,1,1.43,9.74,15.92,15.92,0,0,0,1.11-5.08c0.67,4.85-1.77,9.81-1.19,14.37,0.18,1.38,2.74-5.11,2.64-4.53,0.49,3.23-1,7.65-1.94,10.67a18.86,18.86,0,0,0,1.84-5.46c0.53,4.67-1.21,10-2.42,14.4a32.61,32.61,0,0,0,3.1-5.5c1.14,3.79-3.28,9.63-4.48,12.83-0.26.69,4-4.46,4.12-4.63-0.74,3.67-3.11,6.89-4.1,10.53,1.32-.65,2.4-2,3.67-2.85l-3.27,4.19C228.9,584.8,230.66,582,229.58,583.41Z" transform="translate(46.39 -458.73)"/><path class="cls-5" d="M233.28,571.54c-0.13.17-4.38,5.32-4.12,4.63,1.2-3.2,5.62-9,4.48-12.83a32.61,32.61,0,0,1-3.1,5.5c1.22-4.45,3-9.73,2.42-14.4a18.86,18.86,0,0,1-1.84,5.46c0.95-3,2.43-7.44,1.94-10.67,0.1-.58-2.46,5.9-2.64,4.53-0.58-4.56,1.85-9.52,1.19-14.37a15.92,15.92,0,0,1-1.11,5.08,29.16,29.16,0,0,0-1.43-9.74c-0.22,11.09-1.08-5.73-1.69-8.44q0.69,2.44-.71,3.7a40.2,40.2,0,0,0-4.41-16.4c0.25,3,.65,6.61,1,9.31-0.58-4.6-1.9-9-2.19-13.64-0.1.35-.56,5.19-1.13,5.62-1.05-4.57-.77-9.05-0.16-13.65-1.34,1.6-1.21,7.1-2.14,7.75-1.62-4.2-.81-10.4-4.26-13.88,0.55,2.47,1.44,5.9.62,8.35,0.76-2.11-1.37-9-2.47-11.15,0,0-.31,7.59-0.8,6.58-1.91-4-1.72-8.73-2.18-13,0-.07-0.86,6.64-1.42,6.5-1.46-.35-0.69-4.25-1.55-5.09-2.7-2.66-5.72-3.43-8.47-5.59q1-2.63,4.63.52c-1.41-2.88-6.83-4.48-9.79-5.23,0.77-.63,4.79.22,5.8,0.6-1.52-1.64-6.34-4-8.55-4.67a13.3,13.3,0,0,1,3.27.26c-2.39-2-9.43-.69-4.55-3.36-2.1,0-4.78,0-6.36-1.52a21.5,21.5,0,0,0,3.89.91,29.62,29.62,0,0,0-9.31-3.43,7.66,7.66,0,0,1,4.27-.2l-8.73-1.71c1.26-.31,3.1.1,4.27-0.37-1.31.53-8.66-.49-10.34-0.77a15.39,15.39,0,0,1,4-.8c-1.13.39-9.92-.21-11.81-0.23q-0.49-1,1.3-1.19c-3.69-.62-6.11.39-9.69,1.3q-0.83-2.27,3.52-2.44c-3.65-.27-6.4,2.9-9.74,3.69a2.12,2.12,0,0,1,1.34-1.45,12.15,12.15,0,0,0-4.5,3q-0.94-.54.23-1.69a15.36,15.36,0,0,0-4.12,7.78,10,10,0,0,1,.74-5c-2.44,2.81-4,18.65-5.52,11.15-0.18,2-.19,9,0.51,10a12.09,12.09,0,0,1-1.9-5c-0.33,3,7.34,20.5,2,12,2,4.21,4.6,6.75,7.47,10.32q-1.45,1.82-3.41-1.52c2.57,3.45,6,4.72,9.14,7.51q-0.65,2-3.19-.22c2.3,2,18.37,11.48,7.45,6.34,3.29,2.27,7.54,2.73,10.69,5.12q-0.71,2.1-3.56.13c2.1,0.33,7.79,1.28,9.5,3.32,0.52,0.61-2.47.15-2.71,0.13A51.34,51.34,0,0,1,171.1,528q-0.36,2.5-4.3.32c-0.18-.13,3,2.54,3,2.53a19.36,19.36,0,0,0,4.76,2.15c-7.09-1.29,5.11,2.68,6.52,3.43q-0.52,2.21-3.7-.09c1.91,0.69,6.57,2.8,8,4.83q-0.71,1.25-2-.59c0.32,0.32,6,5.9,5,6.74,0.07-.06-5.81-3.6-5.45-3.47,2.07,1.28,4.61,5,5.72,6.07a8.35,8.35,0,0,0-5.43-2.29,28.65,28.65,0,0,1,9.06,9.78q-1.59,1.76-3.78-2c1.9,1.79,4.88,10.45,5,10.52q-1.22-1.5-2.29-3.11c1.64,3.22.9,10.07,1.73,11.59-1.54-3-2.15-5.17-4.93-7.46,1.65,2.57,2.59,11.06,3.37,12a36.09,36.09,0,0,0-2.18-4.84c1.41,3-.08,6.75.49,8.84a47.67,47.67,0,0,0-2.84-7.77c2.16,5.59-1.66,12.1-1,15.82q0-1.59,0-3.18a17.84,17.84,0,0,1-1.53,5.67q-1.34.17-.44-1.64c0.23-.67-2.3,6.61-3.68,6.53q-0.86-1,.35-2.38c-1.58,3.11-3.91,7.11-6.64,9.4,0.2-.17,1.71-5.58,2.18-6.19,0,0-5.46,8.53-4.29,4.28-0.33.44-5.26,5.18-5.28,5.25a17.22,17.22,0,0,1,2.77-4.85c-3,2.14-5.26,5.47-8.32,7.44q-1.29-.79.68-2.32a21.88,21.88,0,0,1-8.67,5.13q-1.35-1.63,1.77-3.1c0.11-.1-8.31,4.63-5.74,2.28-0.41.28-6.5,3.81-7.93,2.83-0.28-.18,4.77-5.27,4.59-5a23.81,23.81,0,0,1-12.18,3.19c0.06,0,4.5-1.8,5.38-1.93-4.14.6-7.56,0.29-11.72,0.27q-0.25-1.05,1.18-.91c-6.43-1.88-8-6-12.38-10.11,0.39,0.37-.71,10.18,1.89,13.13q-0.91-1.54,0-1.68a25.2,25.2,0,0,0,2.4,8c1.63,3.65,4,11.79,2.75,2,1.49,4.17,4.76,8.22,7.8,11.31a17.35,17.35,0,0,1-2.48-6.58c0.6,3.2,3.4,6.84,5.4,9.23a8,8,0,0,1-1.72-3.75c2.33,3.49,6.89,6.39,10.58,8.22a19.61,19.61,0,0,1-3.52-4.42q0.2-.21.3,0.3-0.53-.34-0.25-0.56c3.32,3.5,7.92,4.6,12.64,5.53q-1.72-.36-1.25-1.54c8.79,3,20.28,2.63,29.06.11a18,18,0,0,1-4.68-.32c9.54-1.34,19.68-5.49,27-11.68-3.71,1.77-7.93,3.52-12.1,3.75,9-3.87,18-6.55,24.69-14.33a12.11,12.11,0,0,1-5.08,3.14c3.81-2.13,7.64-8.06,9.77-11.88-7.28,8.39,5.48-8.83,6.75-12a18.39,18.39,0,0,1-4.6,3.85c0.76-.46,4.93-7,5.37-7.79,1.16-2.08,6.22-16.08,1.36-6a18.06,18.06,0,0,1,5-8.48c-1.27.8-2.35,2.2-3.67,2.85,1-3.64,3.36-6.86,4.1-10.53C232.7,572.28,232.8,573.92,233.28,571.54Zm-19.46-8.29s-3,8.88-3.22,9.23q1.06-3.73,3-2.59a14.22,14.22,0,0,1-2.9,5.14q1.21-2.55,2.45-1.41a25.77,25.77,0,0,1-4.76,7.7c8.44-5.15,2.09,2.44-.25,4.65,7.58-1.9-.16,1.51-1.38,2.46a9.25,9.25,0,0,1,5.32.38c0.2,0.1-7,2.84-6.81,2.75,2.1,0.26,3.51,1.26,5.4,2,0.76,0.3-5.56,2.15-5.13,2.08,8.72,0.58,1.07,2-2.32,3.16,8.17-.19,4.07,1-0.11,2.53,6.76-1-4.88,4.26-6.14,4.71,9.57-1-6.56,7-8.94,7.72,6.09-.88-8,5.73-9.24,6.05,6.53-.5-8.11,5-9.21,5.29,8.94,0.86-3,3.18-5.86,2.86-0.16-.05,1.9.82,1.24,1a31.72,31.72,0,0,1-12.93.26c9.18,6.07-1.95,2-4.52.63,3.48,3.36-11.51-2.72-12.91-3.38,1.3,2.23,3.31,8.13-1.36,2.58q1.39,1.6.17,2.42c-2.67-1.85-11.33-12.36-3-8.13a12.2,12.2,0,0,1-4.29-7.22s5.28,1.88,5.46,1.9c-3.66-3.6,6.72-.94,8.32-1.07q0.42,1.5-2,1.73a36.15,36.15,0,0,0,9.24-1.44q0.51,1-1.1,1.47c1.88,0,9.31-3.07,7.1-.72,1.92-.63,7-4,3,0.37,1.28-.51,10.16-8.2,6.84-2.3,1.34-.87,8.41-8.05,3.35-1,1.62-.77,9.87-10.39,3.83-0.57,3.59-2.4,6.24-6.19,8.46-9.8q1.14,0,.4,1.6c0.36-.49,5.46-7.78,5.47-8.73a22.15,22.15,0,0,1-1.86,7.81,28.72,28.72,0,0,0,6.07-12.18q1.12-.56.91,1.38c-0.05.27,1.72-6.54,1.85-6.15a16.68,16.68,0,0,1,0,8.69c1.17-2.64,2.59-22.22,4.18-11,0.14-.62.41-8.9,0-9.61a17.22,17.22,0,0,1,1.91,4.75c0.35-2.66-.44-10.63-1.69-12.35a25.37,25.37,0,0,1,2.55,4.77c-0.06-2.6-1.71-11-3.64-12.2a10.69,10.69,0,0,1,3.69,3.6c-1-4.13-4-7.53-5-11.47-0.49-1.89-4.69-5.33.26-3.21-2.11-4-8.26-7.71.59-2.83-2.18-4.23-6.12-7.21-10.28-9.32-0.09,0,5.59,1.15,5.76,1.18-3.65-4.37-8.94-6.82-14.16-8.76-0.16-.06,5.45.31,5.65,0.32-2.94-2.85-7.15-4.35-11-5.39q0.42-2,3.42-.36a61.18,61.18,0,0,0-11.87-5.56q0.56-2.51,4.42-.35a27.89,27.89,0,0,0-9.21-3.3q0.55-2.42,4.24-.37c-4.14-1.87-8.43-3.45-12.46-5.56q0.8-2.32,4.26-.2c-5.24-4.8-12.23-7-15.3-14q1.74-1.89,3.84,2.12c-1-1.37-7.48-11.83-1.23-5.46-1.58-2.49-6.47-16.79-.73-7.43-2.81-6.74-2.1-4.93,2.18-1.74a17,17,0,0,0-3.19-4.61c-0.66-.76,9.16,3.09,8.66,2.8q-2.45-2.85-5.14-5.47c-0.63-.82,5.25,2.07,4.8,1.8a37.37,37.37,0,0,1-1.19-5.66,64.09,64.09,0,0,0,5.93,7.13q-3.43-2.46-1.46-3.93a42.23,42.23,0,0,1,6.76,6.28q-3.78-2.88-1.7-4.87a28.24,28.24,0,0,1,7.17,4.83q-1.52-1.29-.46-2.17a16.42,16.42,0,0,1,4.75,3.19q-1.28-1.63,0-2.28a44.34,44.34,0,0,0,4.44,6.25q-2.92-3.31-.64-4.7,2.62,2.8,5,5.8-1.52-1.79-.29-2.91a19.72,19.72,0,0,1,7.21,6.46q-1.86-1.6-.54-2.5a17.33,17.33,0,0,1,4.81,6.11q-0.73-1.26.25-1.75c3.24,1.62,4.61,6.61,5.6,9.73q-1.07-2.27.52-2.74c1.46,3.32,3.43,6.51,4.28,10.08q-1-2.32.62-2.8c1.64,3.16,2.15,6.87,2.51,10.35q-1.81-3.72.61-4.53a42.33,42.33,0,0,1,2.27,10.28q-1.35-3.85,1.1-4.37A25,25,0,0,1,205.7,528q-1-2.82.83-3.16c1.21,3.43,1.18,7.22,1.24,10.8q-1.14-3.57,1.15-4a24.89,24.89,0,0,1,.52,8.67c1.14-3.47.05,10.07,0.35,8.44q0-4.56,2.79-4.44a20.25,20.25,0,0,1-.7,8.64q0.19-3.34,2-2.61A66.57,66.57,0,0,1,211.51,561c5.77-8.87,1.12,2.74.15,4.52l2.15-2.27h0Z" transform="translate(46.39 -458.73)"/><path class="cls-6" d="M233.28,571.54c-0.13.17-4.38,5.32-4.12,4.63,1.2-3.2,5.62-9,4.48-12.83a32.61,32.61,0,0,1-3.1,5.5c1.22-4.45,3-9.73,2.42-14.4a18.86,18.86,0,0,1-1.84,5.46c0.95-3,2.43-7.44,1.94-10.67,0.1-.58-2.46,5.9-2.64,4.53-0.58-4.56,1.85-9.52,1.19-14.37a15.92,15.92,0,0,1-1.11,5.08,29.16,29.16,0,0,0-1.43-9.74c-0.22,11.09-1.08-5.73-1.69-8.44q0.69,2.44-.71,3.7a40.2,40.2,0,0,0-4.41-16.4c0.25,3,.65,6.61,1,9.31-0.58-4.6-1.9-9-2.19-13.64-0.1.35-.56,5.19-1.13,5.62-1.05-4.57-.77-9.05-0.16-13.65-1.34,1.6-1.21,7.1-2.14,7.75-1.62-4.2-.81-10.4-4.26-13.88,0.55,2.47,1.44,5.9.62,8.35,0.76-2.11-1.37-9-2.47-11.15,0,0-.31,7.59-0.8,6.58-1.91-4-1.72-8.73-2.18-13,0-.07-0.86,6.64-1.42,6.5-1.46-.35-0.69-4.25-1.55-5.09-2.7-2.66-5.72-3.43-8.47-5.59q1-2.63,4.63.52c-1.41-2.88-6.83-4.48-9.79-5.23,0.77-.63,4.79.22,5.8,0.6-1.52-1.64-6.34-4-8.55-4.67a13.3,13.3,0,0,1,3.27.26c-2.39-2-9.43-.69-4.55-3.36-2.1,0-4.78,0-6.36-1.52a21.5,21.5,0,0,0,3.89.91,29.62,29.62,0,0,0-9.31-3.43,7.66,7.66,0,0,1,4.27-.2l-8.73-1.71c1.26-.31,3.1.1,4.27-0.37-1.31.53-8.66-.49-10.34-0.77a15.39,15.39,0,0,1,4-.8c-1.13.39-9.92-.21-11.81-0.23q-0.49-1,1.3-1.19c-3.69-.62-6.11.39-9.69,1.3q-0.83-2.27,3.52-2.44c-3.65-.27-6.4,2.9-9.74,3.69a2.12,2.12,0,0,1,1.34-1.45,12.15,12.15,0,0,0-4.5,3q-0.94-.54.23-1.69a15.36,15.36,0,0,0-4.12,7.78,10,10,0,0,1,.74-5,14.34,14.34,0,0,0-2.82,13.41c0.37-5,.8-11,3.09-2.29,1.06-4.2,2.46-8.86,6.49-11.19-0.16.09-1.46,4.62-1.5,4.83,2.1-2.9,6-4.42,9.42-4.65q0.23,2.33-3,3.21a20,20,0,0,1,12.74-.24q-0.47,2.15-3.69,1.47c7.06,0.06,14.11,2,19.58,6.36q-0.51,1.37-2.23,0a25.44,25.44,0,0,1,9.63,5q-0.53,1.39-2.3.05a26.35,26.35,0,0,1,10.33,5.65q-0.88,2-3.65-.26c2.15,0.93,13.79,9.26,6.75,7.15,4.57,2.26,9.87,7.2,11.53,12q-0.69.93-1.64-.37a33.55,33.55,0,0,1,3.46,8q-2.58-3.69-.16-5.19a48.32,48.32,0,0,1,4.17,11.88q-2.52-4.36.27-5.76a34.73,34.73,0,0,1,2.67,8.39q-1.38-3.19.73-3.91c1.91,4.45,2.62,11.53,2.6,16.43q-1.47-4.23,1.2-4.81c1.27,3.47.78,7.42,0.2,11q-0.9-3.68,1.49-4.2a21.33,21.33,0,0,1-.08,7.48q-0.3-3.49,2-3.68c1.45,6.43-.88,14.89-2.91,21.13q0-3.27,2.07-3.12a29.72,29.72,0,0,1-1.86,10.51q1-4.82,3.33-3.48a24,24,0,0,1-4.62,10.84c0.47-.27,4.7-4,4.83-4.5a20,20,0,0,1-3.34,7.11c8.61-7-2.1,9.82-4,11.91q2.06-4.46,4.18-2.7a20.56,20.56,0,0,1-6.27,8.91q2.79-4,4.59-1.94a26.14,26.14,0,0,1-7.45,8c9.87-4,.22,2.8-2.23,4.41,11.24-3.4,1.68,1.74-1.72,3.65,13.14-3.14-5.14,6.38-7.48,7,4.77,0.07-5.6,3.88-5.71,3.92,7.19-1.22-7.55,5-8.89,5.24,5.87,0.44-8.74,3.88-10,4,9.8,2.24-2.43,2.79-5.76,2.67q2.93,0.56,5.85,1.16c-1.89-.47-7.87,1.36-10.92.77,9,4.69-8.43,1.27-10.49.54-1.07-1,1.66,1.55,1.66,2.18,0,0.09-13.66-5.9-14.64-6.63,0.73,0.86,2.82,5.11,3.08,5.28-2.93-1.83-6.13-3.88-8.13-6.78,2.54,7.77,5.5,9.1,14.18,10.81q-1.72-.36-1.25-1.54c8.79,3,20.28,2.63,29.06.11a18,18,0,0,1-4.68-.32c9.54-1.34,19.68-5.49,27-11.68-3.71,1.77-7.93,3.52-12.1,3.75,9-3.87,18-6.55,24.69-14.33a12.11,12.11,0,0,1-5.08,3.14c3.81-2.13,7.64-8.06,9.77-11.88-7.28,8.39,5.48-8.83,6.75-12a18.39,18.39,0,0,1-4.6,3.85c0.76-.46,4.93-7,5.37-7.79,1.16-2.08,6.22-16.08,1.36-6a18.06,18.06,0,0,1,5-8.48c-1.27.8-2.35,2.2-3.67,2.85,1-3.64,3.36-6.86,4.1-10.53C232.7,572.28,232.8,573.92,233.28,571.54Z" transform="translate(46.39 -458.73)"/><path class="cls-7" d="M154.07,621.51l0,0Z" transform="translate(46.39 -458.73)"/><path class="cls-8" d="M209.63,560.18c-2.41,1.71,1.72-11.66-1.37-5.84,0.06-1.66.73-11-1.1-7.45,0.16-2.57.66-6.91-.83-9.17q-1.15.21-.79,1.79c-0.49-2.91-1-7.14-2.33-9.85q-1.8.35-.64,3c0-.06-2.08-10.19-3-6.12-0.23-1-2.6-8.48-2.93-7.95a12.33,12.33,0,0,0,.11,3.93c-0.37-1.08-1.37-8.28-2.68-9.65q-1.52.52-.8,2.71c-0.36-1-3.36-8.9-3.42-5.67-1.18-3-2.41-6.62-4.86-8.88q-1.45.83,0.16,2.73c-1-1.77-3.14-5.47-5.11-6.48q-1,.79.28,2.19c-0.21-.29-4.46-6.37-5.92-6.34q-1.19,1.2,1,2.78c-0.84-1-7.67-9.6-5.86-3.66a39.57,39.57,0,0,0-5-5.78q-2.17,1.07.77,4c-1.12-1.16-7.76-11.29-5.54-4.11-3.45-3.07-8-7.19-5.88-.11a16.75,16.75,0,0,1-3.92-5.34q-2.49,1,.24,4.75a13.57,13.57,0,0,0-4.21-3.06c-1-.36,1.12,5.65,1,5.19-4.8-4.71-4.62-3.65-2.08,1.94a21.91,21.91,0,0,1-3.29-3.4,64.49,64.49,0,0,0,2.66,7.47c-5.37-4.62.85,4.17,2.6,5.66q-1.82-2-3.09-.79c0.11,2.49,5.35,5.65,7.22,6.37q-1.71-1.4-2.48,0c1.07,2.25,6.67,4.2,8.68,4.91q-2.2-1.26-3,.19c0.43,1.36,13,5.67,14.48,6.37-1.09-.49-5.69-0.17-5.4,0,1.41,0.69,8.38,4.27,9.7,4.14a35,35,0,0,1-4.59-.13c3.72,1.17,6.9,2.2,10.19,4.41-0.69,0,7.84,6.67,9,8.06a7.13,7.13,0,0,0-4.75-1.46c0.81-.15,11.16,6.31,11.14,8.54,0-.77-7.21-3.24-4.54-2.36,1.48,0.48,6.43,6.18,7.49,8.37q-2.67-4.53-4.27-2.14c3.65,2.73,5.19,5.91,6.63,10.15-7.39-8.63-1.34.49-.44,2.15-0.9-.49,2.32,8.49,2.59,10.11,0.25,0.58-2.4-4.54-2.63-3.21-0.47,2.45,2.29,7.37,2.69,10.26,0-.32-2.59-5-2.68-4.09-0.25,2.33,1.93,5.56,2,8.05-2.67-5-1.8,8.84-2,10.25,0.26-6.56-1.63,1.56-2,2.86-1.34-7.39-2.4,4.25-3.09,6.59,0-2.55-4.62,7-5.69,8.21a19.21,19.21,0,0,0,1.33-6.28c0,1.5-6.34,9.59-7.88,11.34,2.92-8.07-.85-3-3.18.51q0.86-1.41-.08-1.67-2.1,2.64-4,5.46a9.44,9.44,0,0,0,1.7-3.72c-0.14,1.79-7.84,6.16-9.66,7,1.17-.53,2.18-3.09,2.71-3.51-1.77,1.28-3.27,3.05-5.45,3.75q1.42-.94.68-1.81-2.28,1.44-4.59,2.84c4.94-5.39-2.31.41-3.82,1.07,1-1.73-3,.1-3.15.19q1.66-.42,1.1-1.53a40.48,40.48,0,0,0-6.51,2.72c1.09-.49,2.63-2.69,3.19-2.93a40.45,40.45,0,0,1-6,2.46c3.16-2-5.92-.4-7-0.35q2.67,0.64,2.42-1c1.12,0.24-7.29-1.43-8-1.15-3.24,1.39,19.18,11,16.09,8.09,1.71,0.32,10.51,1.07,12.37-.33q0.38-1.13-1.27-1.16c-1-.05,10.91-0.59,9.66-1.66-0.91-.83-3.31-0.87-4.47-0.93,2.42-.41,15.81-6.1,17.17-5.74q-1.52.19-3,.5c1-.37,5.11-1.5,5.62-2.79q-1.06-2-3.88.67c-0.69.3,9.47-3.71,8.44-4.26a15.81,15.81,0,0,0-2.51.47c3.08-.73,14.87-4.15,2.74-3,2.57-1,5.37-1.56,7.48-3.49q0.08-1.14-1.42-.35c0.32-.17,4.37-2.33,4.17-2.53-0.57-.57-2.06-0.33-2.75-0.1-0.71.45,5.62-3.8,5.67-3.76a4.85,4.85,0,0,0-2.53.07c1.32-1.23,3.79-2.58,4.77-4.1q-0.59-1.66-3-.07c-1.19,1.16,7-6.1.79-2.49,1.2-1.65,10.63-12.85,1.86-6.72,0.72-.91,3.55-6.75,3.57-6.77q-1.48,1.27-3,2.51a16.88,16.88,0,0,0,3.91-7.65c0.13-.8-1.39.75-1.4,0.77,0.83-1.54,2.28-4.16,1.85-6-0.17-.73-1.46,1.12-1.28.86-0.05.13,2.38-8.62,2.18-8.49h0Zm-29-33.69a2.77,2.77,0,0,1-1.65-1.22s3,1.9,1.65,1.22C180.26,526.34,180.72,526.55,180.59,526.49Zm18,30.19c1.18,1.52-.12-2,1.69,2.75l-1.69-2.75h0Z" transform="translate(46.39 -458.73)"/><path class="cls-8" d="M153.07,501.58c-1.19-.74-8-4.84-8.38-6.68,1.11,4.91,6.29,5.36,8.38,6.68h0Z" transform="translate(46.39 -458.73)"/><path class="cls-8" d="M154.3,504.7a40.28,40.28,0,0,1-5.91-3c2.07,1.78,4.09,2.22,5.91,3C152.26,503.8,154.48,504.78,154.3,504.7Z" transform="translate(46.39 -458.73)"/><path class="cls-8" d="M164.38,510.31c-2.9-1.09-8.14-1.55-10.37-3.25,3.38,2.5,7.86,2.29,10.37,3.25C161,509,164.72,510.45,164.38,510.31Z" transform="translate(46.39 -458.73)"/><path class="cls-8" d="M168.67,513.69a49.92,49.92,0,0,1-5.1-1.27c1.84,1.12,3.74.93,5.1,1.27C167,513.26,168.86,513.74,168.67,513.69Z" transform="translate(46.39 -458.73)"/><path class="cls-8" d="M167.14,509c-1.21-.42-5.35-1.36-6.37-2.1,2.34,1.69,4.66,1.49,6.37,2.1C165,508.27,167.38,509.09,167.14,509Z" transform="translate(46.39 -458.73)"/><path class="cls-8" d="M155.92,498.62c-1.13-1.09-5.27-3.09-6.13-4.41,1.62,2.5,4.93,3.21,6.13,4.41C154.09,496.85,156.07,498.77,155.92,498.62Z" transform="translate(46.39 -458.73)"/><path class="cls-8" d="M149,494.61c-0.66-.84-3.79-3.74-4-4.65,0.54,2.24,3.08,3.51,4,4.65C148.46,493.92,149.1,494.73,149,494.61Z" transform="translate(46.39 -458.73)"/><path class="cls-8" d="M177.35,520.12c-2.23-1.56-5.84-2-7.95-3.55,1.61,1.16,7.06,2.91,7.95,3.55C176.23,519.34,177.54,520.26,177.35,520.12Z" transform="translate(46.39 -458.73)"/><path class="cls-8" d="M181.2,523.42a48.66,48.66,0,0,1-6.05-1.88c1.76,1.15,4.61,1.51,6.05,1.88C180.2,523.15,181.38,523.46,181.2,523.42Z" transform="translate(46.39 -458.73)"/><path class="cls-8" d="M188.44,529.17c-1.16-1.24-4.27-2.29-5.16-3.09,0.69,0.66,4.9,2.81,5.16,3.09h0Z" transform="translate(46.39 -458.73)"/><path class="cls-8" d="M190.27,533.6c-1.49-2.61-4.18-4-6.69-5.37,0,0,6.75,5.47,6.69,5.37C188.69,530.84,190.36,533.76,190.27,533.6Z" transform="translate(46.39 -458.73)"/><path class="cls-8" d="M196.48,541.47c-1.36-2.88-4-5-6.28-7.14-0.41-.41,6.7,8.05,6.28,7.14C195.12,538.58,196.56,541.65,196.48,541.47Z" transform="translate(46.39 -458.73)"/><path class="cls-8" d="M197.48,544.9c-0.43-1.27-2.13-2-2.53-2.51q0.84,3.75,2.53,2.51C197.08,543.71,197.52,545.05,197.48,544.9Z" transform="translate(46.39 -458.73)"/><path class="cls-8" d="M191.69,528.79a12.37,12.37,0,0,0-6.58-5.72c0.32,0.08,6.76,6.33,6.58,5.72C191.27,527.35,191.77,529.08,191.69,528.79Z" transform="translate(46.39 -458.73)"/><path class="cls-8" d="M186,521.77q-1.19-3.59-2.69-2.37,1.48,4.1,2.69,2.37C185.2,520.89,186.1,521.89,186,521.77Z" transform="translate(46.39 -458.73)"/><path class="cls-8" d="M200.15,542.78L198,539.27c0.83,1.37,1.91,5.91,2.29,7.39q2.43-.48-0.11-3.88C199.65,541.41,200.61,544,200.15,542.78Z" transform="translate(46.39 -458.73)"/><path class="cls-8" d="M198.27,543.89a50.79,50.79,0,0,1,1.3,5.23c-0.4-1.51-.1-3.27-1.3-5.23h0Z" transform="translate(46.39 -458.73)"/><path class="cls-8" d="M198.53,549.83c0.73,1,1.59,5.23,1.83,6.36-0.43-2,0-3.9-1.83-6.36h0Z" transform="translate(46.39 -458.73)"/><path class="cls-8" d="M202.1,560.27q-0.54-4-2.33-3c0.07,1.28,3.15,6.67,3.14,6.24l-0.81-3.2h0Z" transform="translate(46.39 -458.73)"/><path class="cls-8" d="M202,567a37.22,37.22,0,0,1,.45,5.85A17.68,17.68,0,0,0,202,567C202,566.92,202.58,568.88,202,567Z" transform="translate(46.39 -458.73)"/><path class="cls-8" d="M200.94,567.3c-0.2-.54.95,3.39,0.88,2.56l-0.88-2.56C200.89,567.15,201.28,568.15,200.94,567.3Z" transform="translate(46.39 -458.73)"/><path class="cls-8" d="M201.92,575.62c-0.06-.16-0.21,6.64.23,6a7.16,7.16,0,0,0-.23-6h0Z" transform="translate(46.39 -458.73)"/><path class="cls-8" d="M200.67,578.45q-2.76.4,0,5.13a35.17,35.17,0,0,0,0-5.13C200.66,578.27,200.82,580.19,200.67,578.45Z" transform="translate(46.39 -458.73)"/><path class="cls-8" d="M198.36,589.17c0.06,1-1.71,6.68-2.69,7.08,2.43-1,2.8-5,2.69-7.08C198.36,589.07,198.47,591.34,198.36,589.17Z" transform="translate(46.39 -458.73)"/><path class="cls-8" d="M195.55,592.43a14.15,14.15,0,0,1-1.48,4.86,19,19,0,0,0,1.48-4.86C195.42,594.08,195.56,592.35,195.55,592.43Z" transform="translate(46.39 -458.73)"/><path class="cls-8" d="M192.15,600.43c-0.07.25-3.21,5.68-3.19,5.67,2.56-1.54,2.58-3.65,3.19-5.67C191.56,602.46,192.18,600.31,192.15,600.43Z" transform="translate(46.39 -458.73)"/><path class="cls-8" d="M187.81,603.08c-0.35.81-3.13,6.21-3.76,6.69,2.67-2,2.67-4.34,3.76-6.69C186.77,605.47,187.84,603,187.81,603.08Z" transform="translate(46.39 -458.73)"/><path class="cls-8" d="M138.65,622.89q-2-3.44-3.61-2a5,5,0,0,0,3.61,2C137.25,622.63,138.93,622.94,138.65,622.89Z" transform="translate(46.39 -458.73)"/><path class="cls-8" d="M164.11,504.47c-2.78-1.69-7.62-1.35-9.54-4.2,3,4.4,7.69,3.08,9.54,4.2h0Z" transform="translate(46.39 -458.73)"/><path class="cls-8" d="M160.13,499.76q-1.66-3.76-3.33-2.29,2,4.31,3.33,2.29C159.08,498.95,160.31,499.9,160.13,499.76Z" transform="translate(46.39 -458.73)"/><path class="cls-8" d="M165.16,477.92c-1.69-3.36-5.15-3.45-7.62-5.09,0.71,0.46,7.46,4.78,7.62,5.09C163.65,474.93,165.27,478.14,165.16,477.92Z" transform="translate(46.39 -458.73)"/><path class="cls-8" d="M169.69,477.81c-0.87-.73-3.4-2.36-4.12-3,0.89,0.84,3.64,2.63,4.12,3C169,477.23,169.84,477.93,169.69,477.81Z" transform="translate(46.39 -458.73)"/><path class="cls-8" d="M199.35,500.27c1.87,1.87,2.94,6.72,3.88,9.36-1-2.69-.93-6.24-3.88-9.36h0Z" transform="translate(46.39 -458.73)"/><path class="cls-8" d="M201.51,508.45c-0.41-1-2.11-3.65-2.32-4.41a45.73,45.73,0,0,0,2.32,4.41C201.24,507.75,201.56,508.57,201.51,508.45Z" transform="translate(46.39 -458.73)"/><path class="cls-8" d="M191,494.5a30.94,30.94,0,0,0-3.17-5.05c-0.16-.27,3.52,6,3.17,5.05C190.27,492.54,191,494.64,191,494.5Z" transform="translate(46.39 -458.73)"/><path class="cls-8" d="M189.07,498.88q-2.06,1.59,1.81,4.6a14.2,14.2,0,0,0-1.81-4.6h0Z" transform="translate(46.39 -458.73)"/><path class="cls-8" d="M184.31,496.47l-1.85-2.66c-0.3-.37,2.16,3.17,1.85,2.66C183.76,495.54,184.38,496.58,184.31,496.47Z" transform="translate(46.39 -458.73)"/><path class="cls-8" d="M181.26,484.89a31.44,31.44,0,0,0-3.73-4.05c-0.33-.32,4.2,4.66,3.73,4.05C180.17,483.4,181.37,485,181.26,484.89Z" transform="translate(46.39 -458.73)"/><path class="cls-8" d="M206.87,513.9c1.05,1.67,2.37,7.71,2.8,9.61-0.69-3.19-.64-6.21-2.8-9.61h0Z" transform="translate(46.39 -458.73)"/><path class="cls-8" d="M208,520.68l-0.91-2.25c0.43,0.64,1,4,1.19,4.78q1.47-.37-0.28-2.53C207.85,519.93,208.23,521.5,208,520.68Z" transform="translate(46.39 -458.73)"/><path class="cls-8" d="M212.46,525.79c0.59,2.34-.17,5.87.54,8.45-0.35-1.25,0-6.46-.54-8.45h0Z" transform="translate(46.39 -458.73)"/><path class="cls-8" d="M215.71,528.32L215,526.06c0.33,0.44.22,2.88,0.31,3.61q1,0.54.43-1.34C215.6,527.56,215.78,528.78,215.71,528.32Z" transform="translate(46.39 -458.73)"/><path class="cls-8" d="M213.93,524.63l-0.58-2.1c0-.19.72,2.6,0.58,2.1C213.72,523.93,214,524.77,213.93,524.63Z" transform="translate(46.39 -458.73)"/><path class="cls-8" d="M220.65,545.75a11.64,11.64,0,0,0-.77-4.89c0.17,0.39-.11,9.14.14,8.91a6.05,6.05,0,0,0,.64-4C220.65,544.17,220.66,546.92,220.65,545.75Z" transform="translate(46.39 -458.73)"/><path class="cls-8" d="M218.37,542c-0.12-.49-0.25,4.83.24,3.91a6,6,0,0,0-.24-3.91h0Z" transform="translate(46.39 -458.73)"/><path class="cls-8" d="M215.44,538q-1.58.26-.22,2.86,1.65,0,.22-2.86C215.43,537.9,215.47,539,215.44,538Z" transform="translate(46.39 -458.73)"/><path class="cls-8" d="M220.5,553.82c0.16,1.85-1.85,4.88-1.7,6.82,0,0.47,1.7-6.86,1.7-6.82C220.49,553.68,220.61,555.48,220.5,553.82Z" transform="translate(46.39 -458.73)"/><path class="cls-8" d="M218.49,555.06a28.61,28.61,0,0,1-.35,3.56c0.13-.68.88-2.38,0.35-3.56h0Z" transform="translate(46.39 -458.73)"/><path class="cls-8" d="M219.89,570.72c-0.05-.56-1.57,6.47-1.88,6.52,1.64-.28,1.68-8.26,1.88-6.52C219.88,570.66,220.06,572.28,219.89,570.72Z" transform="translate(46.39 -458.73)"/><path class="cls-8" d="M218.22,569.46c1-8.44-2.23,4.91-1.38,5.18,1.44,0.47,1.39-5.24,1.38-5.18C218,571,218.24,569.4,218.22,569.46Z" transform="translate(46.39 -458.73)"/><path class="cls-8" d="M216.94,565.24q-1.31,1.57-.25,1.87,1.38-1.87.25-1.87C216.78,565.84,217,565.14,216.94,565.24Z" transform="translate(46.39 -458.73)"/><path class="cls-8" d="M218.34,584.65c0.2,1-3.7,7.53-4.32,7.56,2.3-.13,4.67-5.78,4.32-7.56h0Z" transform="translate(46.39 -458.73)"/><path class="cls-8" d="M215.68,585.6q-3.26,1.86-1.69,3,3.38-2.1,1.69-3C215.07,586.55,215.75,585.5,215.68,585.6Z" transform="translate(46.39 -458.73)"/><path class="cls-8" d="M214.56,579.29l-1.21,3.11a26,26,0,0,0,1.21-3.11C214.08,580.3,214.6,579.19,214.56,579.29Z" transform="translate(46.39 -458.73)"/><path class="cls-8" d="M213.62,600.63c-0.39.23-6.1,5.44-6.38,5.44,2.89,0,4.47-4.32,6.38-5.44h0Z" transform="translate(46.39 -458.73)"/><path class="cls-8" d="M211.89,599s-1.88,2.11-1.72,2q3.11-1.34,1.72-2h0Z" transform="translate(46.39 -458.73)"/><path class="cls-8" d="M203.3,609.28c-0.24.64-5.08,4.22-5.36,4.33,1.48-.58,4.7-2.75,5.36-4.33C203,610.18,203.33,609.21,203.3,609.28Z" transform="translate(46.39 -458.73)"/><path class="cls-8" d="M201.77,608c0,0.07-1.84,1.56-1.78,1.54a3.76,3.76,0,0,0,1.78-1.54C201.57,608.34,201.8,608,201.77,608Z" transform="translate(46.39 -458.73)"/><path class="cls-8" d="M205.86,614.78s-5.65,3.84-5.52,3.84c1.47,0,4.8-2.54,5.52-3.84C205.36,615.66,205.89,614.73,205.86,614.78Z" transform="translate(46.39 -458.73)"/><path class="cls-8" d="M199.25,616.57a54.84,54.84,0,0,1-5.59,3.38c2.5-.5,4-2,5.59-3.38C197.69,617.87,199.32,616.5,199.25,616.57Z" transform="translate(46.39 -458.73)"/><path class="cls-8" d="M183.92,626c0.14-.06-7.66,2.7-7.71,2.67,2,1.11,6.85-2.36,7.71-2.67C182.68,626.53,184,626,183.92,626Z" transform="translate(46.39 -458.73)"/><path class="cls-8" d="M183.76,623.33c-0.27.21-4.37,2.2-4.46,2.21a13.34,13.34,0,0,0,4.46-2.21C183.14,623.8,183.85,623.26,183.76,623.33Z" transform="translate(46.39 -458.73)"/><path class="cls-8" d="M163.58,635.68c-1.06-.61-5.18-2.11-6-3.24,1.95,2.66,4.48,2.35,6,3.24h0Z" transform="translate(46.39 -458.73)"/><path class="cls-8" d="M167.4,634.21c-0.26-.08-3.36-1.19-3.52-1.64,0.62,1.59,2.86,1.43,3.52,1.64h0Z" transform="translate(46.39 -458.73)"/><path class="cls-8" d="M177.37,631.89c-1.87-.16-6.92.21-8.7-0.36,3.29,1.2,6.3.14,8.7,0.36C174.52,631.64,177.64,631.91,177.37,631.89Z" transform="translate(46.39 -458.73)"/><path class="cls-8" d="M147.27,634.36q-1.86-3.68-3.36-2.21a6.52,6.52,0,0,0,3.36,2.21C146,633.87,147.44,634.42,147.27,634.36Z" transform="translate(46.39 -458.73)"/><path class="cls-8" d="M157.09,626c-1-.15-4.39-1-5.13-1.92,1.47,2.19,3.76,1.71,5.13,1.92h0Z" transform="translate(46.39 -458.73)"/><path class="cls-8" d="M159.75,624.52q-2-2.07-3.18-.81,2.88,2.72,3.18.81C158.68,624.44,159.93,624.54,159.75,624.52Z" transform="translate(46.39 -458.73)"/><path class="cls-8" d="M174.51,618.83c-1.09.21-5,1.12-6.1,0.71,2.7,1,4.26-.37,6.1-0.71C172.52,619.22,174.76,618.79,174.51,618.83Z" transform="translate(46.39 -458.73)"/><path class="cls-8" d="M223.3,580c0.08-.2-2.79,4-2.12,3.78,1-.35,1.84-3.1,2.12-3.78h0Z" transform="translate(46.39 -458.73)"/><path class="cls-8" d="M222.86,561.41c-0.38.66-2.41,6.14-1.78,6.22,1.39,0.17,1.74-6.15,1.78-6.22h0Z" transform="translate(46.39 -458.73)"/><path class="cls-8" d="M222.68,548.09l-0.3,3.67c0,0.29.32-4.09,0.3-3.67C222.63,549.32,222.68,548,222.68,548.09Z" transform="translate(46.39 -458.73)"/><path class="cls-8" d="M229.53,546.64c0.09,1.26-1.47,5.64-1.86,6.77,0.77-2.17,2.05-3.52,1.86-6.77C229.52,546.46,229.67,549,229.53,546.64Z" transform="translate(46.39 -458.73)"/><path class="cls-8" d="M227,552.74l-0.89,3.76c0.07-.23.88-3.54,0.89-3.76C227,554,227,552.6,227,552.74Z" transform="translate(46.39 -458.73)"/><path class="cls-8" d="M222.35,523.8c0.39,1.59.47,4.93,0.91,6.78-0.23-1-.53-5.2-0.91-6.78h0Z" transform="translate(46.39 -458.73)"/><path class="cls-8" d="M199.2,487.3c-0.94-2.18-3-2.28-4.59-2.95,0.23,0.1,4.6,3,4.59,2.95C198.45,485.57,199.26,487.46,199.2,487.3Z" transform="translate(46.39 -458.73)"/><path class="cls-8" d="M199.7,491.27a9.41,9.41,0,0,0-2.72-3.71c-0.65-.61,3,4.76,2.72,3.71C199.54,490.63,199.74,491.4,199.7,491.27Z" transform="translate(46.39 -458.73)"/><path class="cls-8" d="M205.07,493.93l-2.42-3.19c-0.65-.65,2.71,3.84,2.42,3.19C204.55,492.73,205.13,494.08,205.07,493.93Z" transform="translate(46.39 -458.73)"/><path class="cls-8" d="M187.18,477.08a33.53,33.53,0,0,0-3.73-3.16c-0.3-.23,4.12,3.45,3.73,3.16C186.61,476.64,187.36,477.21,187.18,477.08Z" transform="translate(46.39 -458.73)"/><path class="cls-8" d="M187,474.41q-1.83-2.74-2.84-1.27,2.14,3.1,2.84,1.27h0Z" transform="translate(46.39 -458.73)"/><path class="cls-8" d="M167.21,494.39c0.78,0.46,4.56,6,4.56,5.2a8.84,8.84,0,0,0-4.56-5.2h0Z" transform="translate(46.39 -458.73)"/><path class="cls-8" d="M171.25,501.23a22.33,22.33,0,0,0-3.43-3.52,44.77,44.77,0,0,0,3.43,3.52C170.35,499.88,171.34,501.35,171.25,501.23Z" transform="translate(46.39 -458.73)"/><path class="cls-8" d="M180.32,502.31L177.39,499c0.2,0.18,4.79,6.88,4.76,6.76l-1.84-3.44h0Z" transform="translate(46.39 -458.73)"/><path class="cls-8" d="M182.22,509.13l-1.94-2.55c-0.49-.56,2.34,3.14,1.94,2.55C181.67,508.21,182.29,509.23,182.22,509.13Z" transform="translate(46.39 -458.73)"/><path class="cls-8" d="M187.09,511.26c0.94,0.94,2.43,5.46,3,6.57-0.83-1.76-.84-4.2-3-6.57h0Z" transform="translate(46.39 -458.73)"/><path class="cls-8" d="M190.86,523.07a26.72,26.72,0,0,0-2.56-5.1c-0.5-.81,2.94,6.2,2.56,5.1C190.22,521.27,190.91,523.23,190.86,523.07Z" transform="translate(46.39 -458.73)"/><path class="cls-8" d="M198.63,530.8a16.48,16.48,0,0,0-2.79-5.46c-0.42-.66,3.07,6.79,2.79,5.46C198.24,528.78,198.68,531,198.63,530.8Z" transform="translate(46.39 -458.73)"/><path class="cls-8" d="M201.41,536.31l-1-2.18q-2.24,1.47,1.33,4.51,1.49-.47-0.37-2.33C201.11,535.57,201.71,537,201.41,536.31Z" transform="translate(46.39 -458.73)"/><path class="cls-8" d="M205.73,551.85q-2.57.42-.29,4.84,2.76,0,.29-4.84C205.71,551.68,205.95,553.53,205.73,551.85Z" transform="translate(46.39 -458.73)"/><path class="cls-8" d="M206.23,558.5L205.63,563c0,0.07.6-4.54,0.59-4.48C206.19,560,206.23,558.39,206.23,558.5Z" transform="translate(46.39 -458.73)"/><path class="cls-8" d="M205.79,568.17c0,1.35-1.18,6-1.48,7.48,0.43-2.15,1.54-4.47,1.48-7.48C205.78,567.93,205.84,570.68,205.79,568.17Z" transform="translate(46.39 -458.73)"/><path class="cls-9" d="M211,503.54a25.07,25.07,0,0,0-3.64-5.46s4.09,6.21,3.64,5.46h0Z" transform="translate(46.39 -458.73)"/><path class="cls-6" d="M213.09,505.7c1.07,1.5,2.15,6.77,2.58,8.44-0.66-2.55-.22-5-2.58-8.44h0Z" transform="translate(46.39 -458.73)"/><path class="cls-6" d="M213.19,510.54q-0.88-2.15-2-4.2c-0.21-.57,2.19,5.19,2,4.2C212.83,509,213.24,510.75,213.19,510.54Z" transform="translate(46.39 -458.73)"/><path class="cls-6" d="M190.62,482.86c-0.73-1.72-4.54-3-5.11-4.52,0.57,1.13,5,4.15,5.11,4.52C190.21,481.88,190.7,483.05,190.62,482.86Z" transform="translate(46.39 -458.73)"/><path class="cls-6" d="M190.51,479c-0.63-.46,1.87,3.79,1.76,2.83L190.51,479h0Z" transform="translate(46.39 -458.73)"/><path class="cls-6" d="M155.28,473.92c-0.61-.68-4.89-2.79-5.3-3.56,1,1.84,4.62,2.83,5.3,3.56C153.88,472.37,155.41,474.06,155.28,473.92Z" transform="translate(46.39 -458.73)"/><path class="cls-6" d="M155,494.07c-1-.88-5.07-3.79-5.6-4.92,0.9,2,5.72,5,5.6,4.92C154.11,493.32,155.23,494.3,155,494.07Z" transform="translate(46.39 -458.73)"/><path class="cls-6" d="M156.75,493.14L154,490.86c-0.14-.13,3.1,2.56,2.78,2.28h0Z" transform="translate(46.39 -458.73)"/><path class="cls-6" d="M162.71,494.43a39.48,39.48,0,0,0-5.8-5.65c-0.85-.74,6.78,7,5.8,5.65h0Z" transform="translate(46.39 -458.73)"/><path class="cls-6" d="M167.93,502a27.12,27.12,0,0,0-4.05-3.55c-0.61-.43,4.75,4.28,4.05,3.55C166.67,500.73,168.05,502.17,167.93,502Z" transform="translate(46.39 -458.73)"/><path class="cls-6" d="M165.77,502.51l-3-2.54c-0.15-.14,3.13,2.71,3,2.54C164.8,501.65,165.86,502.59,165.77,502.51Z" transform="translate(46.39 -458.73)"/><path class="cls-6" d="M173,507.55c-0.06,0,3.93,4.7,3.89,4.47a8.52,8.52,0,0,0-3.89-4.47h0Z" transform="translate(46.39 -458.73)"/><path class="cls-6" d="M177.87,516.22c-1.58-2.67-4.53-4-6.14-5.95,1.44,1.89,5.14,4.33,6.14,5.95C177.16,515,178,516.38,177.87,516.22Z" transform="translate(46.39 -458.73)"/><path class="cls-6" d="M181,512.17q-1.17-4-2.78-2.5,1.48,4.36,2.78,2.5C180.19,511.26,181.15,512.31,181,512.17Z" transform="translate(46.39 -458.73)"/><path class="cls-6" d="M193.08,522.13c-0.42-.74,3.18,7.43,3,6.18a17.2,17.2,0,0,0-3-6.18h0Z" transform="translate(46.39 -458.73)"/><path class="cls-6" d="M197.33,534.41l-1.7-3.62c-0.26-.51,1.92,4.35,1.7,3.62h0Z" transform="translate(46.39 -458.73)"/><path class="cls-6" d="M202.43,532.49c-0.34-.86-2.58-4.15-2.66-4.48,0.34,1.32,2.44,4,2.66,4.48C202.15,531.8,202.5,532.68,202.43,532.49Z" transform="translate(46.39 -458.73)"/><path class="cls-6" d="M203.88,544.87a26,26,0,0,1-.47-2.86,7.27,7.27,0,0,0,.23,5.7q1.89-.32.24-2.84C203.72,544.13,204.08,545.75,203.88,544.87Z" transform="translate(46.39 -458.73)"/><path class="cls-6" d="M205.87,545.24l-0.31-1.75s0,3.38,0,3.71q1.41,0,.28-2C205.8,544.63,205.95,545.87,205.87,545.24Z" transform="translate(46.39 -458.73)"/><path class="cls-6" d="M203.43,553q-2.07.79,0.53,3.94,2.27-.55-0.53-3.94h0Z" transform="translate(46.39 -458.73)"/><path class="cls-6" d="M211.48,558.95q-2.5.35-.85,4.52,2.74,0.06.85-4.52C211.47,558.71,211.59,560.47,211.48,558.95Z" transform="translate(46.39 -458.73)"/><path class="cls-6" d="M203.2,585.51l-2.26,3.58c-0.4,1,2.76-4.12,2.26-3.58C202.26,586.56,203.33,585.37,203.2,585.51Z" transform="translate(46.39 -458.73)"/><path class="cls-6" d="M198.54,594.63a64.53,64.53,0,0,1-3.36,6.06c1.73-2,2.44-4.3,3.36-6.06C197.55,596.71,198.6,594.51,198.54,594.63Z" transform="translate(46.39 -458.73)"/><path class="cls-6" d="M195,602.84c0.31-.38-3.9,5.08-3.93,5.09,1.56-.36,3.22-4.26,3.93-5.09C194.25,603.72,195.08,602.72,195,602.84Z" transform="translate(46.39 -458.73)"/><path class="cls-6" d="M187.39,610.2c-0.31.26-5.16,3.4-5.43,3.44,1.75-.26,4.35-2.54,5.43-3.44C186.68,610.8,187.54,610.08,187.39,610.2Z" transform="translate(46.39 -458.73)"/><path class="cls-6" d="M192.47,610.25q-1.62,0-1.42.95,2.16-.23,1.42-0.95h0Z" transform="translate(46.39 -458.73)"/><path class="cls-6" d="M195.48,613.83c-1.79.49-5.93,4.08-6.54,4.26,2.81-.8,4.21-3.42,6.54-4.26C194.43,614.12,195.55,613.8,195.48,613.83Z" transform="translate(46.39 -458.73)"/><path class="cls-6" d="M188.69,620.8c-0.11.07-6.58,1.61-5.92,2.92,0.44,1,5.75-2.81,5.92-2.92C187.79,621.41,188.75,620.76,188.69,620.8Z" transform="translate(46.39 -458.73)"/><path class="cls-6" d="M189.53,624.6c-0.93.58-9.55,3.06-9.39,3.78,0.31,1.35,8.72-3.36,9.39-3.78C186.83,626.27,189.62,624.53,189.53,624.6Z" transform="translate(46.39 -458.73)"/><path class="cls-6" d="M174.33,628.14c-0.53.26-8,2.28-8.26,2.27,2.16,0.06,6.46-1.38,8.26-2.27C173.31,628.63,174.46,628.08,174.33,628.14Z" transform="translate(46.39 -458.73)"/><path class="cls-6" d="M167.39,634.18c-0.54.07-2.86-.5-3.06-1,0.79,2,2.36,1.11,3.06,1C166.35,634.32,167.65,634.15,167.39,634.18Z" transform="translate(46.39 -458.73)"/><path class="cls-6" d="M161.57,633.56q-1.41-2.79-2.68-1.67,2.16,3.71,2.68,1.67C160.55,633.23,161.78,633.62,161.57,633.56Z" transform="translate(46.39 -458.73)"/><path class="cls-6" d="M153.34,636.28a12.67,12.67,0,0,1-4.81-2.7c2,2.25,3,2.12,4.81,2.7h0Z" transform="translate(46.39 -458.73)"/><path class="cls-6" d="M138.54,632.33l-3.15-2.5a15,15,0,0,0,3.15,2.5C137.29,631.76,138.71,632.4,138.54,632.33Z" transform="translate(46.39 -458.73)"/><path class="cls-6" d="M130.09,627.45a5.63,5.63,0,0,1-2.95-3.29c1.12,1.83,1.23,2.5,2.95,3.29C129.36,627.13,130.26,627.53,130.09,627.45Z" transform="translate(46.39 -458.73)"/><path class="cls-6" d="M125.11,621.92a6.74,6.74,0,0,1-2.76-3.88c0.7,2.15,1.28,2.93,2.76,3.88C123.67,621,125.34,622.06,125.11,621.92Z" transform="translate(46.39 -458.73)"/><path class="cls-6" d="M125.07,617.74c-0.48-.34-2.6-2.75-2.6-3.19,0,2.52,1.73,2.56,2.6,3.19C124,617,125.24,617.86,125.07,617.74Z" transform="translate(46.39 -458.73)"/><path class="cls-6" d="M129.5,615.12c-1-.22-5.75-2-6.36-2.83,2.08,3,4.34,2.38,6.36,2.83h0Z" transform="translate(46.39 -458.73)"/><path class="cls-6" d="M227.9,560a40.71,40.71,0,0,0-1.55,4c1.15-.49,1.33-3.46,1.55-4C227.65,560.64,228,559.88,227.9,560Z" transform="translate(46.39 -458.73)"/><path class="cls-6" d="M228.08,565.27a16.34,16.34,0,0,0-1.94,3.79,32.2,32.2,0,0,0,1.94-3.79h0Z" transform="translate(46.39 -458.73)"/><path class="cls-6" d="M228.33,571.22c-0.11.46-2.43,5.59-2.53,5.67,1.7-1.27,2.2-4.26,2.53-5.67C228.11,572.09,228.35,571.12,228.33,571.22Z" transform="translate(46.39 -458.73)"/><path class="cls-6" d="M226.87,578.42a7.63,7.63,0,0,1-1.52,2.84,4.57,4.57,0,0,0,1.52-2.84C226.82,579,226.87,578.33,226.87,578.42Z" transform="translate(46.39 -458.73)"/><path class="cls-6" d="M225.79,583a30.91,30.91,0,0,1-2.84,4,27.76,27.76,0,0,0,2.84-4C225.68,583.87,225.81,582.94,225.79,583Z" transform="translate(46.39 -458.73)"/><path class="cls-6" d="M226.19,587s-3.21,5.59-3.42,5.71c1.93-1,2.81-4.36,3.42-5.71C225.7,588.08,226.27,586.84,226.19,587Z" transform="translate(46.39 -458.73)"/><path class="cls-6" d="M219.65,587.44a16.81,16.81,0,0,0-2.78,3.58c-0.27.44,3-3.9,2.78-3.58C219.24,588.11,219.74,587.31,219.65,587.44Z" transform="translate(46.39 -458.73)"/><path class="cls-6" d="M223,593.36a20.23,20.23,0,0,0-2.83,2.95c1.13-.13,2.66-2.55,2.83-2.95C222.73,594,223.1,593.18,223,593.36Z" transform="translate(46.39 -458.73)"/><path class="cls-6" d="M217.17,593.94q-5.55,1.24-3.88,3.6a27.78,27.78,0,0,0,3.88-3.6C215.9,595.14,217.28,593.83,217.17,593.94Z" transform="translate(46.39 -458.73)"/><path class="cls-6" d="M219.46,603.08q-3.42,1.68-1.93,3.12,3.92-2.48,1.93-3.12C218.94,604.18,219.53,603,219.46,603.08Z" transform="translate(46.39 -458.73)"/><path class="cls-6" d="M208.3,609.77a72,72,0,0,0-6.4,5.06c-1.35,1.55,7.71-6.18,6.4-5.06C206.29,611.57,208.42,609.66,208.3,609.77Z" transform="translate(46.39 -458.73)"/><path class="cls-6" d="M208.54,614.41l-2.44,1.75c-0.24.46,2.84-1.92,2.44-1.75C207.64,614.78,208.71,614.34,208.54,614.41Z" transform="translate(46.39 -458.73)"/><path class="cls-6" d="M209.71,617a29.62,29.62,0,0,1-3,2.73,7.8,7.8,0,0,0,3-2.73h0Z" transform="translate(46.39 -458.73)"/><path class="cls-6" d="M204.14,623.31c-1.22.38-10.4,3.87-9.71,5.34,0.62,1.3,9.34-5.23,9.71-5.34C203.3,623.57,204.24,623.28,204.14,623.31Z" transform="translate(46.39 -458.73)"/><path class="cls-6" d="M194.4,627.71a38.38,38.38,0,0,0-4.56,1.51c1,1.11,4.18-1.3,4.56-1.51h0Z" transform="translate(46.39 -458.73)"/><path class="cls-8" d="M170.69,469.49c-2-1.94-4.91-1.93-6.73-2.88,1,0.51,6.2,2.35,6.73,2.88C168.83,467.71,170.84,469.65,170.69,469.49Z" transform="translate(46.39 -458.73)"/><path class="cls-8" d="M173.85,468.93l-3.25-2.15c-0.71-.13,3.6,2.84,3.25,2.15C173.25,467.74,173.91,469.06,173.85,468.93Z" transform="translate(46.39 -458.73)"/><path class="cls-9" d="M160.13,464.86c-0.95-.77-4.35-1.45-5.06-2.08,1,0.91,4.48,1.6,5.06,2.08C158.71,463.7,160.29,465,160.13,464.86Z" transform="translate(46.39 -458.73)"/><path class="cls-10" d="M99.12,633.88c-0.52-2.32-10.44-6.31-9.56-8.56-1.94,5.24-16.73,2.37-21.49,2.19-8.62-.33-17-0.3-24.94,3.39-3.55,1.64-11.26,4.86-8.82,9.87,1.58,3.25,7.81,1,10.49-1-6.27,7.26,15.77-1.65,19-2.32,5.27-1.1,36.75,2.76,35.34-3.56h0Z" transform="translate(46.39 -458.73)"/><path class="cls-11" d="M96.07,637.21c-11.31,1.72-22-2.84-33.81-.2-2.64.59-17.89,6-17.89,5.07,0-6.73,20.53-8.5,24.23-9.23-6,0-12.48.69-18,2.94-1.78.72-13,7.52-12.82,5.37,0.6-7.69,17.58-9.86,22.84-11.06-4.15.57-8,1-12,2.4-1.56.55-11.75,7.82-11.42,7.86-9.74-1.31,14.08-11.62,17.93-12.13,9.67-1.29,19.69.22,29.38,0.18,4.49,0,3.49-1.21,7.35.48,1.83,0.8,10.31,7.39,4.25,8.32h0Z" transform="translate(46.39 -458.73)"/><path class="cls-12" d="M97.5,633.34c-6.14-5.66-6.17-5.28-13-4.93-7.37.38-14.62-.76-22-0.68-5.59.06-7.66,1.22-12.53,3.18-2.43,1-13.55,7.26-13.49,4.82,0,0-3.75,4.58-2,4.17,4.89-1.18,2-1.47,7.17-4.22,6.24-3.31,12.08-4.62,19-5.58q0,0.29-.5.13c7.51-.33-10,4.48-11,4.9-0.68.28-10,5.75-8.86,2.64-0.85.73-2.33,2.22-2.43,3.39-0.18,2.3,11.6-4.87,12.82-5.37,5.56-2.31,12-3,18-2.94q-2.49.32,1.81,0.63c-2.36-1-23.72,7.32-23,5.37-1.08.64-3.06,1.78-3.06,3.23,0,0.16,18-5.13,21.18-5.69a61.77,61.77,0,0,1,18.59-.21c1.58,0.18,18.68,2.08,13.36-2.83h0Z" transform="translate(46.39 -458.73)"/><path class="cls-13" d="M51.34,629.25c-5.29,1-13.23,3.8-16.18,8.77,2.45-4,12-8,16.18-8.77C47.8,629.93,51.5,629.22,51.34,629.25Z" transform="translate(46.39 -458.73)"/><path class="cls-13" d="M57.21,631.37c-6.19,1.11-15.52,3.24-18.76,9.34,2.23-4.77,14.17-8.52,18.76-9.34h0Z" transform="translate(46.39 -458.73)"/><path class="cls-13" d="M64.81,633.74c-6.86.66-14.88,2.43-19.72,7.75,3.53-3.93,14.71-7.38,19.72-7.75C58.11,634.38,64.89,633.73,64.81,633.74Z" transform="translate(46.39 -458.73)"/><path class="cls-10" d="M17.39,650.36c2-1.59-6.17-5.8-6.77-5.81-5.05-.14.64,1.63-3.11,3.23-3.36,1.42-6.6,1.1-10,2-2.67.72-7.47,1.56-8.76,4.69-0.7,1.7.56,2.86,2.13,1.66-4.12,6.2,9.3-1.7,9.67-1.82q-2.82,1.31-1.63,3.6c0.79,0.3,9.26-3.14,10.48-3.41,2.42-.54,9.11,1,8-4.14C17.46,650.3,17.79,652.18,17.39,650.36Z" transform="translate(46.39 -458.73)"/><path class="cls-11" d="M15.61,653.32c-0.28.17-15,4.14-16.11,3.7-2-.84,7.25-5.44,6.63-5.22-2.5.87-15.17,8.09-15.21,5.7-0.09-5.33,11.7-6.61,15.21-7.7C1.2,650.95-6.19,656.27-10.56,656c-2.84-.16,6.85-5.49,7.17-5.59,2.32-.69,5.15-0.06,7.35-1A47.37,47.37,0,0,0,8.82,646c1.25-.27,5.08-1.79,7.12,1.94,1,1.91,2.35,3.76-.32,5.36h0Z" transform="translate(46.39 -458.73)"/><path class="cls-12" d="M-6.23,653.59c2.44-2.53,8.66-3,11.82-3.67-1,.17-16.74,3.71-16.39,4.35C-13,658.19-6.25,653.61-6.23,653.59Z" transform="translate(46.39 -458.73)"/><path class="cls-12" d="M5.13,652.15c0.21-1.6-13.89,5-12,2.18-1.21,1-3.94,3.88-1.15,4.26,2.58,0.35,10.62-5.56,13.15-6.44C5.15,652,3.74,652.64,5.13,652.15Z" transform="translate(46.39 -458.73)"/><path class="cls-12" d="M17.18,650.37c-3.89-4.92-7.93-8.58-9.1-.55,1.24-.42,2-2.38,1.68.63,0.76-.78,1.39-2,1.48-0.23a1.47,1.47,0,0,1,1.21-1.54c2.47,5-6.17,4.27-8.66,5.32-0.1,0-6.3,2.18-4.29,3,2.26,0.91,18.1-4.16,17.68-6.65C17.17,650.36,17.36,651.42,17.18,650.37Z" transform="translate(46.39 -458.73)"/><path class="cls-13" d="M9.22,651.45c-3.42.17-7.57,1.86-9.55,4.81,1.29-2.1,7.23-4.7,9.55-4.81C5.69,651.63,9.35,651.44,9.22,651.45Z" transform="translate(46.39 -458.73)"/><path class="cls-13" d="M5.54,650.45c-5,.37-10.5,1.74-13.89,5.81,2.26-3,10.39-5.49,13.89-5.81C0.45,650.82,5.66,650.44,5.54,650.45Z" transform="translate(46.39 -458.73)"/><path class="cls-13" d="M1.57,649.87c-4.28-.12-9.47.75-12,4.67,1.84-3.11,8.8-4.67,12-4.67C-2.72,649.75,1.66,649.87,1.57,649.87Z" transform="translate(46.39 -458.73)"/><path class="cls-14" d="M18.89,607.45C24,599.49-3,565-4.41,598.51a55.45,55.45,0,0,0,2.28,19.2c1.21,3.9,1.8,6.57,2.83,10.83C1,629.84,3.8,638,4.5,635.68c0.93,4,3.05,8.51,4.57,12.36q2.1-.36.34-3.27c0.41,1.34.42,2.79,0.8,4.11q1.86,0.14,1.23-2.72c0.21,1.19,2.14,3.47,4.29,2.2,2.58-1.52-.46-7.85-0.48-13,0-9.82,4.28-18.35,3.63-27.93C18.92,607.41,18.94,608.16,18.89,607.45Z" transform="translate(46.39 -458.73)"/><path class="cls-15" d="M18.11,611.22a29.47,29.47,0,0,0-.45,3.76,3.91,3.91,0,0,0-1.1-3.7,50.42,50.42,0,0,1,0,9.57q1.7-4.48-.79-4.7c0.38,6.72-5.41,27,.76,31.76-1.23-.95-1.31-3.26-2.58-4,0,1.5.81,2.86,0.83,4.07-1.52-.5-3-2.63-3.57-3.75a4.79,4.79,0,0,0-.61,3.14c-0.31-1.81-1.42-2.85-2-4.52a1,1,0,0,0-.26,1.06c-1.29-3.81-3.93-7.94-4.08-12-0.45.12-.66,1.19-0.66,1.55a35.47,35.47,0,0,1-1.72-9.36C0,631.91.46,620.55-.07,616.94a2.08,2.08,0,0,0-.52,2.5,44.07,44.07,0,0,1-1.41-10c-1.26,7.7-1.28-4-.88-6.37-2.9,7.48-.66-7.24-0.65-7.27-3.05,3.12-.22-3.85,1-6.11,2.38-4.49,3.12-5.59,7.86-3.51,7.71,3.39,13.17,17.46,12.8,25C18,612.47,18.19,609.64,18.11,611.22Z" transform="translate(46.39 -458.73)"/><path class="cls-16" d="M18.15,606.3c-1.18-5.86-7.51-19.18-13.72-21-4.38-1.26-5,.65-7,4.36-1,1.77-4.52,9.74-1,6.11,0,0-2.24,14.75.65,7.27-0.4,2.38-.38,14,0.88,6.37a44.07,44.07,0,0,0,1.41,10,2.08,2.08,0,0,1,.52-2.5c0.53,3.63.06,15,1.94,7.12a35.47,35.47,0,0,0,1.72,9.36c0-.36.22-1.43,0.66-1.55,0.15,4.09,2.79,8.22,4.08,12a1,1,0,0,1,.26-1.06c0.64,1.69,1.72,2.66,2,4.52a4.79,4.79,0,0,1,.61-3.14c0.63,1.31,2,3.24,3.57,3.75,0-1.23-.84-2.52-0.83-4.07,1.27,0.78,1.35,3.09,2.58,4-6.1-4.69-.37-24.85-0.76-31.76q2.49,0.22.79,4.7a50.42,50.42,0,0,0,0-9.57,3.91,3.91,0,0,1,1.1,3.7c0-3,.64-5.56.49-8.68C17.86,604.85,18.23,608,18.15,606.3Zm-5,20.45-1-1.58c0.75,2.3,1.76,16.48-2,7.93q1.37,3-.64,3.67a19.15,19.15,0,0,1-2-5.51q1.15,2.58-.61,3.14a17.53,17.53,0,0,1-1.28-9.74q0,2-1.36,2a11.91,11.91,0,0,1-.3-5.77q0,1.83-1.28,1.87a19,19,0,0,1,.7-10.36c-1.23,1.19-4.39,8.86-2-1.61q0,1.8-1.32,1.84a10,10,0,0,1,.41-5.31q-0.08,2.22-1.59,2.09c0-.14.32-6.59,0.89-6.2a7.91,7.91,0,0,1,.8,1.12Q-1.06,602.79.16,602a22,22,0,0,1,9.63,9.21c1,1.79,6.09,12.53.93,6.12,0.83,1.58,1.8,8.5,2.41,9.45C12.79,626.21,13.26,627,13.12,626.74Z" transform="translate(46.39 -458.73)"/><path class="cls-16" d="M18.15,606.3c-1.18-5.86-7.51-19.18-13.72-21-4.38-1.26-5,.65-7,4.36-1,1.77-4.52,9.74-1,6.11a30.23,30.23,0,0,0-.17,9.62c1-4.36-.35.43,2.06-4.75q-0.46,1.53-1.32.91c1.36-7.75,6.89.87,8.88,3S17.41,618.93,13.09,615c0.5,1.14,4,12.14-.19,5.93A48.86,48.86,0,0,1,15,628.8c0.4-4.19,1.07-8.41.83-12.64q2.49,0.22.79,4.7a50.42,50.42,0,0,0,0-9.57,3.91,3.91,0,0,1,1.1,3.7c0-3,.64-5.56.49-8.68C17.86,604.85,18.23,608,18.15,606.3Z" transform="translate(46.39 -458.73)"/><path class="cls-17" d="M9.65,619.87l-1.32-3.51c-0.45-.47-6.83-20.65-7.35-5.72q1.44,0.5,1.64-1.92c-2.78,7.18.83,1.13,1.06,1.31q-0.12,1.21.72-.16c-2.09,3.19-.13,3,0.66,1.61a15.79,15.79,0,0,0-1.69,9.78c0.06,0.3,1.78-2.8,2-3.07-0.31,1.23-.63,5.68.46,3.3a8.83,8.83,0,0,0-.32,3.12c0.15,0.35,1.2-1.32,1.56-1.3a11.24,11.24,0,0,0,0,7.51c0.12,0.38.92-2.34,1-2.66a10.13,10.13,0,0,0,1.14,4.27s0.53-8,.38-8.92c1.41,2,.09-3.68.1-3.65h0Z" transform="translate(46.39 -458.73)"/><path class="cls-10" d="M129.4,645.61c-0.52-2.32-10.43-6.3-9.56-8.56-2,5.24-16.69,2.36-21.49,2.18-8.61-.33-17-0.3-24.95,3.39-3.55,1.64-11.26,4.87-8.82,9.88,1.58,3.24,7.81,1,10.48-1-6.27,7.26,15.77-1.65,19-2.32,5.27-1.1,36.75,2.76,35.34-3.56h0Z" transform="translate(46.39 -458.73)"/><path class="cls-11" d="M126.36,648.94c-11.31,1.72-22-2.84-33.81-.2-2.64.59-17.89,6-17.89,5.07,0-6.7,20.53-8.55,24.23-9.22-6,0-12.48.69-18,2.94-1.78.72-13,7.51-12.82,5.37,0.55-6.9,17.71-11.06,22.84-11.06-4.15.58-8,1-12,2.41-1.56.55-11.75,7.82-11.42,7.86C57.7,650.78,81.53,640.48,85.38,640c9.67-1.29,19.7.21,29.38,0.17,4.49,0,3.49-1.2,7.34.49,1.84,0.81,10.31,7.37,4.25,8.32h0Z" transform="translate(46.39 -458.73)"/><path class="cls-12" d="M127.78,645.07c-6.13-5.65-6.17-5.29-13-4.93-7.37.38-14.61-.76-22-0.68-5.59.06-7.66,1.23-12.53,3.18-2.43,1-13.55,7.26-13.49,4.82-0.06.05-3.72,4.57-2,4.17,4.89-1.17,2-1.47,7.17-4.22,6.25-3.31,12.08-4.61,19-5.58q0,0.3-.5.13c7.51-.33-10,4.48-11.05,4.9-0.68.28-10,5.75-8.86,2.64-0.85.74-2.33,2.22-2.43,3.39-0.18,2.3,11.6-4.87,12.82-5.37,5.56-2.31,12-3,18-2.94q-2.49.32,1.81,0.63c-2.38-1-23.7,7.41-23,5.36-1.08.66-3.06,1.78-3.06,3.23,0,0.17,18-5.13,21.18-5.69a61.87,61.87,0,0,1,18.59-.21c1.58,0.18,18.67,2.08,13.36-2.83h0Z" transform="translate(46.39 -458.73)"/><path class="cls-13" d="M81.63,641c-5.28,1-13.24,3.8-16.17,8.77,2.55-4,11.93-8,16.17-8.77C78.09,641.66,81.79,640.94,81.63,641Z" transform="translate(46.39 -458.73)"/><path class="cls-13" d="M87.49,643.1c-6.19,1.11-15.52,3.23-18.76,9.34,3.24-4.87,13.41-8.35,18.76-9.34C83.7,643.78,87.55,643.09,87.49,643.1Z" transform="translate(46.39 -458.73)"/><path class="cls-13" d="M95.09,645.46c-6.86.66-14.88,2.43-19.72,7.75,3.89-3.9,14.41-7.35,19.72-7.75C88.4,646.11,95.17,645.46,95.09,645.46Z" transform="translate(46.39 -458.73)"/><path class="cls-10" d="M36.67,648.07c-4.11-.76-15.18-1.45-18.88.25-1.46.67-8.25,8.18-4.43,9.14A7,7,0,0,0,16.64,654c-4.6,7.46,3.36,2.51,5.86.62-8.88,8.91,3.91,2.21,4.87,1.89,2.81-1,7.1.17,9-2.06,1.15-1.32,2.7-6,.26-6.4h0Z" transform="translate(46.39 -458.73)"/><path class="cls-11" d="M37.25,649.9c-2.08,5.84-3.08,2.85-8.44,5.1-2.13.89-4.67,4.83-7.16,4.45-5-.76,9.48-7.72,9.69-7.76-2.26-4.53-11.42,6.28-13,6-5.94-.9,3.15-7.44,6.21-8-6.13.14-6.68,5-10.8,7.08-2.85,1.44,2-6.87.5-5,2.5-3,4.09-2.92,7.83-3.48,2.38-.36,15.74-0.1,15.15,1.57h0Z" transform="translate(46.39 -458.73)"/><path class="cls-12" d="M19.2,651.25c1.88-1.22,3.14-.91,5-1.55-3.12-.3-10.32,4.65-10.32,2.68,0.65-1.13-2.51,5.65-.14,4.45,1.82-.91,3.59-4.39,5.42-5.58h0Z" transform="translate(46.39 -458.73)"/><path class="cls-12" d="M30.78,651.64c-0.31.06-13.25,2.81-13.1,2.52-6.07,7.41,11.19-2.61,13.1-2.52C31,651.6,29.15,651.56,30.78,651.64Z" transform="translate(46.39 -458.73)"/><path class="cls-12" d="M36.56,648.57c-3-.54-6-0.1-8.79.1,0.72,0.77,5.44,2.4,5.4,2.55-0.77,2.62-6.21,4.95-9,4.55a1.16,1.16,0,0,1,0-1.86c-0.36.25-5.25,5.12-2.49,5.54,2.33,0.36,5.55-3.83,7.57-4.62s5,0.84,6.78-1c0.82-.84,2.33-5,0.54-5.28h0Z" transform="translate(46.39 -458.73)"/><path class="cls-13" d="M24.33,648.88c-3.55-1.14-8.08-.55-9.63,3.37,1.13-2.71,7.16-4.1,9.63-3.37C20.73,647.73,24.41,648.91,24.33,648.88Z" transform="translate(46.39 -458.73)"/><path class="cls-13" d="M28.33,650c-3.87-1.16-8.42.5-10.08,4.34,1-2.57,7.62-5.05,10.08-4.34C24.44,648.82,28.47,650,28.33,650Z" transform="translate(46.39 -458.73)"/><path class="cls-13" d="M21.63,657.22c0.53-2.23,6.72-4.93,9-4.93-3.06.3-8.16,1.27-9,4.93h0Z" transform="translate(46.39 -458.73)"/><path class="cls-12" d="M127.78,645.07c-6.5-6-6.93-5.64-14.81-4.76-7.62.85-15.4-1.14-23.08-.78,5.52,3.91,12.9,4.65,19.32,4.74,2.53,0,8-1.66,9.95.29,2.23,2.18.39,3.74-2.66,3.69,1.17,0.19,16.29,1.44,11.29-3.19h0Z" transform="translate(46.39 -458.73)"/><path class="cls-14" d="M128.18,621.82c-8.24-5.23-2.85-26.67-3.78-35.47C123,573.47,125,547.06,111,538.08c3,1.32-.85-3-1.65-3.74-3.12-2.9-7.09-4.76-11-6.41a48.86,48.86,0,0,0-24.89-3.61c-9.22,1-17,4.3-24.8,9.26-6,3.82-16.16,13.95-24.41,12.32-4.08-.81-5.87-6-8.86-7.14-6.59-2.52-12.73,3.12-16.58,8.75-4.4,6.44-8,16.19-6.83,24.14,0.42,2.83,2.36,5,2.69,7.63,0.47,3.74-.79,5.48-1.48,9.27q2,1.4,3-2.88c-0.57,1.68-1.48,6.51.19,8.3,0.88,0.93,2-5.75,1.44-3.83C-2.94,595,4.54,605.2,8.65,607q1.27-.64.2-1.72c6.54,9.67,18.76,11.58,28.27,17.54,3.84,2.41,2.49-.68,3.36,3.74,0.53,2.64-2.2,7.75-3.22,10.15-0.47,1.11-6.1,13.69-9.47,12.27q5.15-1.39,3.36,2.17,1.49,0.73,2.67-1.43c-2.66,7.07,1.32,1.51,1.67,1a3.14,3.14,0,0,0,.74,3s10.82-10,11.95-11.48c2.72-3.58,6.42-10.06,7.63-14.1,1,2.94,14.68,8.94,13.46,5.2,0.55,0.4,8.85,4,8.72,2.55a22,22,0,0,1-1-2.15c7.35,9.29,52.29,18,48-2.09,0.26,0.45,1.25,3.38,2.09,2.57,2.83-2.75-1.57-11.67-3.23-14a11.82,11.82,0,0,0,4.33,1.63h0Z" transform="translate(46.39 -458.73)"/><path class="cls-18" d="M125.41,620.65c2,1.6-3.38-2.48-3.34-2.41a50.63,50.63,0,0,1,3.6,7.33c-4.12-4.1.52,4.48,0.78,6.35-0.29-.66-2.24-4.3-3.14-3.71,0.41-.27.28,7.44,0,8-1.33,2.56-4.17,3.53-6.62,4.52-3.11,1.26-6.4,1.19-9.64,1.57-1.14.14-10.26-4.54-4.06,0a37.86,37.86,0,0,1-5.52-1.13,7.72,7.72,0,0,1,1.85,1.3c-2.67-.15-8.8-3-9.21-6a18.16,18.16,0,0,0,3.11,4.84c-15.81-4.27-21.26-20.53-12-34.23a13.28,13.28,0,0,0-2,2.62c1.25-5.32,3.95-8.07,6.74-12.54,0.33-.54,6.43-5.44-1.41.28,4.52-6.94,12.5-13,21-11.63-20.43-3.13-38.16,31.69-27.24,47.91-0.89-.81-3-3.46-3-3.48,0.49,1.51.42,3,1.09,4.49-2.46-1.61-3.9-4.66-5.1-7.21,0.92,1.94,1,4.27,2.45,6.4-0.61-.17-6.88-3.48-6.71-3.63q-0.78,1.49.8,2.9c-0.48-.31-3.78-3.29-3.72-4.33a6.89,6.89,0,0,0,1.73,4.24,12.15,12.15,0,0,1-6.72-5.61q-2.19,1,.93,3.45c-8.63-2,6-28.91,2.76-36.05q-1.24.74,0.32,2.79c-0.1-.34-1.61-1.62-1.37-0.65-0.41-1.65,1.06,7.45.79,7.19-0.08-.08-0.47-2.22-1-2-0.83.32,0.05,12.08-1.25,6.29,0,1.38-.5,10.07-2.6,6.9a16.32,16.32,0,0,1-1,8.44c0.44-9.32-1.51,3.26-2.39,5.17-0.52-7.24-2,3.87-2.93,5.56,1.6-8.1-5.13,7.61-6.7,9.38-2.45,2.77-7.06,4.56-8.31,8.07-0.48-1.88.78-5.69-2.22-.4q1.83-2,.35-3.25-1.15.9-2.37,1.69c0.14,0,1.59-1.84,1.4-2.19a7.73,7.73,0,0,0-4.25.66c9-3.28,12.95-19.1,13.13-27.54,0.11-5-1.53-8.41-2-12.8-0.17-1.58-.2-9.89-1.33-7.26a15,15,0,0,1,1.17-6q-0.8-1-1.29.67,2.36-2.4.78-3.22c-5.14,7.52,1.91,20.91,1.21,30.63-9.22-2-20.48-8.31-26.84-15.5q0.9,1.68,2,3.27c-3.4-1.52-7.46-6.55-9.12-9.92A4.84,4.84,0,0,0,8,605.21c-1.93-2-4.07-6.54-5.1-9a25,25,0,0,0,.53,3.44,23.06,23.06,0,0,1-3-6.47c-0.92.46-.38,3.52,0,3.95-2.49-2.19-1.62-6.28-1.81-9-0.07-.88-2.06,3.77-2.16,4.66-0.63-1.5-.34-8.1.29-8.78q-1.39,1.73-2.7,3.51c1.81-5.45,1-7.26.12-12-1.93-10.39.23-21.28,7.4-29.69,14.21-16.65,24.12,10.84,40.8,3-1.76,2.66,6.64-3,7.75-5.8-2.62,1.58-3.69,5-6.75,6.06a2.1,2.1,0,0,0,1.17-2c-0.11-.19-8,2.82-9.35,2.53,0.46-.15,2.59-0.28,2.65-1.11,0-.5-7.34.18-7.34,0.18,4.18-1.68-6.09-2.53-4.3-2.14,14.49,0.77,27.89-17.15,42.48-20,12.31-2.37,34.11-.54,42.32,10.84q-2.15-2-2.71-.21a26.25,26.25,0,0,1,3.9,2.9c-2.47-1.17,4,5.93,4.46,6.85-4.62-5,7.52,12.61,1.81,9.38a47.31,47.31,0,0,1,2.76,8.08,3.09,3.09,0,0,0-2.22-2.61,32,32,0,0,1,3.24,14q-0.45-4-2.21-3a37.81,37.81,0,0,1,2,5.74c-2.34-2.12,1.28,5.88,1.37,6.24-3.72-4.94.85,3.37,1.23,5.27a5.87,5.87,0,0,0-1.74-2.6c0.55,0.46,1.42,9.34,1.31,10.05-1.32-8.43-1.56,1.39-1.51,2.36,0.2,3.88,1,7.66,1,11.58q1.36-3.95-.77-4c-1.31,4.09,1.09,12.19,2.48,13.3h0Z" transform="translate(46.39 -458.73)"/><path class="cls-15" d="M124,628.28a10.79,10.79,0,0,1,2.49,3.64c-0.3-2.14-4.55-10.1-.78-6.35a50.63,50.63,0,0,0-3.6-7.33c0.52,0.86,3.1,2.45,4.19,2.94-3.34-3.34-4.66-9.69-3.34-13.83q2.13,0.08.77,4c0.07-3.91-.78-7.7-1-11.58,0-.42,0-11.69,1.51-2.36,0.11-.71-0.76-9.59-1.31-10.05a5.87,5.87,0,0,1,1.74,2.6c-0.31-1.55-5.26-10.61-1.23-5.27-0.09-.36-3.71-8.36-1.37-6.24a37.81,37.81,0,0,0-2-5.74q1.76-.95,2.21,3a32.16,32.16,0,0,0-3.24-14,3.09,3.09,0,0,1,2.22,2.61,47.31,47.31,0,0,0-2.76-8.08c5.71,3.23-6.44-14.34-1.81-9.38-0.47-1-7.06-8.08-4.46-6.85a26.25,26.25,0,0,0-3.9-2.9q0.56-1.76,2.71.21c-8.19-11.34-30.15-13.18-42.32-10.84-14.69,2.82-27.91,20.73-42.48,20-1.78-.39,8.49.46,4.3,2.14,0,0,7.38-.68,7.34-0.18-0.06.83-2.19,1-2.65,1.11,1.37,0.29,9.24-2.72,9.35-2.53a2.1,2.1,0,0,1-1.17,2c3.05-1.11,4.13-4.48,6.75-6.06-1,2.55-9.67,8.71-7.75,5.8-16.63,7.82-26.6-19.64-40.8-3C-4.46,552.89-8.52,564.63-6.42,574c1.31,5.83,2.8,6.72.56,13.48q1.31-1.78,2.7-3.51c-0.63.68-.92,7.28-0.29,8.78,0.09-.9,2.09-5.54,2.16-4.66,0.19,2.75-.68,6.84,1.81,9-0.4-.43-1-3.49,0-3.95a23.06,23.06,0,0,0,3,6.47,25,25,0,0,1-.53-3.44c1,2.51,3.16,7.06,5.1,9a4.84,4.84,0,0,1-1.1-4.33c1.63,3.29,5.72,8.4,9.12,9.92q-1.05-1.59-2-3.27c6.3,7.12,17.63,13.53,26.84,15.5,0.7-9.73-6.36-23.11-1.21-30.63q1.58,0.82-.78,3.22,0.48-1.71,1.29-.67a15,15,0,0,0-1.17,6c1-2.25,1.15,5.59,1.33,7.26,0.48,4.45,2.06,7.29,2,12.8-0.08,8.44-4.22,24.28-13.13,27.54a7.73,7.73,0,0,1,4.25-.66c0.19,0.35-1.26,2.19-1.4,2.19q1.22-.79,2.37-1.69,1.47,1.24-.35,3.25c3-5.29,1.74-1.48,2.22.4,1.23-3.45,5.94-5.41,8.31-8.07s8.11-16.56,6.7-9.38c0.92-1.69,2.4-12.8,2.93-5.56,0.81-1.76,2.86-15.17,2.39-5.17a16.32,16.32,0,0,0,1-8.44c2.05,3.11,2.64-5.6,2.6-6.9,1.13,5,.33-5.94,1.25-6.29,0.5-.19.88,1.95,1,2,0.27,0.26-1.21-8.84-.79-7.19-0.25-1,1.27.32,1.37,0.65q-1.56-2.05-.32-2.79C66,602.17,51.48,629,60,631q-3.13-2.48-.93-3.45a12.15,12.15,0,0,0,6.72,5.61,6.89,6.89,0,0,1-1.73-4.24c-0.06,1,3.24,4,3.72,4.33q-1.58-1.41-.8-2.9c-0.17.15,6.1,3.47,6.71,3.63-1.47-2.14-1.53-4.46-2.45-6.4,1.2,2.55,2.64,5.61,5.1,7.21-0.67-1.48-.6-3-1.09-4.49,0.19,0.19,2.29,2.79,3,3.48-10.92-16.22,6.87-51,27.24-47.91-8.53-1.37-16.5,4.68-21,11.63,4.06-3,2.74-2.41,1.41-.28-2.74,4.4-5.49,7.2-6.74,12.54a13.28,13.28,0,0,1,2-2.62c-9.27,13.7-3.86,29.95,12,34.23a18.16,18.16,0,0,1-3.11-4.84c0.41,2.93,6.45,5.82,9.21,6a7.72,7.72,0,0,0-1.85-1.3,37.86,37.86,0,0,0,5.52,1.13c-6.2-4.58,2.92.1,4.06,0,3.74-.45,7.59-0.45,11.1-2.11,4.59-2.18,8.47-8.27,5.81-11.91h0Z" transform="translate(46.39 -458.73)"/><path class="cls-19" d="M57.93,580.32q0.24-2,3.32-1.08A5.22,5.22,0,0,0,57.56,577q0-1.5,2-1.87a4.73,4.73,0,0,0-4.56,1q-0.87-.63.44-1.58-1.32,4.46-3.61,3.14a15.64,15.64,0,0,1,3.79-8.17c-2.68,1-2.74.88,0.78-3.68,0.09,0-5,2.7-5,2.56A15.67,15.67,0,0,1,56,561.47c-2.87-.63-4.84,1.26-1.3-2.36a13.69,13.69,0,0,0-4.9,1c-0.25.07,6.44-5.83,6.19-5.61-3.41-1.24-6.24,3.06-3.24-2.56q-1.76,3.48-3.45,2a17.25,17.25,0,0,1,3.34-6,17.84,17.84,0,0,0-4.19,2.79q-1.09-.88.57-2.29c-4.2,4.07-.18-1.51.24-3.79-0.92,1.43-9,7.38-6.79,4a16.88,16.88,0,0,1-11.74.78c-0.79-.2-5-2.27-5.25-2.11-4,2.5-.82,11.89-5,15.8q-1.78-1.06,1.35-3.19c-3.63,2-6.89,11.18-5.19,3.09-2.94,3.38-2.53,6.41-2.53,1.06-0.8,1.52-2.13,5.29-2.21,1a28.36,28.36,0,0,0-.48,15.06c1.39-5.79,1.72-1,2.92,1.45q-0.53-2.36,1.1-2.66,1.39,3.37,2.87,6.71-0.45-1.56.72-1.85a24.79,24.79,0,0,1,1.16,5.7q-1.27-4,1.35-5.33,2.05,4.23,3.8,8.6-1.87-4.36.86-5,0.9,2.82,2,5.58-0.57-1.5.57-1.78a29.78,29.78,0,0,0,4,8.51,6.94,6.94,0,0,0-.65-4s0,0,0-.06c0.11,0.75,4.66,6.91,5.36,7.54-0.83-3.94-2.08-6.56.47-3,0.22-2.33.35-6,1.79-8.13q1.58,0.82-.78,3.22,0.48-1.71,1.29-.67a15,15,0,0,0-1.17,6c0.42-1,1.7,8,2.07,10.26,0.53,3.31,1.47,8.27,1.21,12.29-0.32,4.9-5.71,13.21-3.82,16.87q-0.63-2.63,1-2.47v1c0.68-1.47,1.53-7.87,3.42-4.54,1.08-1.76.59-12.71,3.56-11.93,0.15-3-1.59-5.29,1.29-3.1,0.19-3-1.65-4,1.93-2.12-0.72-2.6-3.77-4.63-.15-4.09-0.14-1.56,1.93-4,1.55-5.05a5.68,5.68,0,0,0,1.49,2.11c1.26-2.11-1.59-7.91,1.9-4.89,0.1-2.33-.64-3.3,1.32-0.68,0.24-2.82-2.41-7.52,1.84-4.3-0.06-3-2.64-6,.9-3.53,0.16-2.32-2.93-4.11,1.11-3.36-1.78-2.76-7-3.93.36-5.05-1.26-2.14-3.75-2.78,0-2.45-1.07-2.73-.56-1.89,1.18-0.8a7,7,0,0,0-3.26-4.8h0Z" transform="translate(46.39 -458.73)"/><path class="cls-20" d="M108.65,536.61l2.43,0.74c-0.38-.53-3.5-2.25-2.43-0.74C109.52,536.72,108.52,536.43,108.65,536.61Z" transform="translate(46.39 -458.73)"/><path class="cls-19" d="M124,628.28a10.79,10.79,0,0,1,2.49,3.64c-0.3-2.14-4.55-10.1-.78-6.35a50.63,50.63,0,0,0-3.6-7.33c0.52,0.86,3.1,2.45,4.19,2.94-3.34-3.34-4.66-9.69-3.34-13.83q2.13,0.08.77,4c0.07-3.91-.78-7.7-1-11.58,0-.42,0-11.69,1.51-2.36,0.11-.71-0.76-9.59-1.31-10.05a5.87,5.87,0,0,1,1.74,2.6c-0.31-1.55-5.26-10.61-1.23-5.27-0.09-.36-3.71-8.36-1.37-6.24a37.81,37.81,0,0,0-2-5.74q1.76-.95,2.21,3a32.16,32.16,0,0,0-3.24-14,3.09,3.09,0,0,1,2.22,2.61,47.31,47.31,0,0,0-2.76-8.08c5.71,3.23-6.44-14.34-1.81-9.38-0.47-1-7.06-8.08-4.46-6.85-3.75-3.87-1.32-1.52-4.1-.56,1.51,1.72-.77,4.16-2.66,5.85,4.37,1-.73,8.61-1.47,12-0.91,4.16-2.67,11.56-4,14.3-4.82,10-13.65,17.53-17.81,27.49,8.44-6,10.43-15.26,23.31-13.28-8.53-1.37-16.5,4.68-21,11.63,7.37-5.38-2.27,4.15-3.53,6.69,5.83-5.27-.34,4.38-0.77,6,3.45-3.32-1.26,6.28-1.39,8.38a23,23,0,0,1,6.8-9.31q2.15,1.35-1.48,4.22c3.67-5-1.3,9.89-.51,13.38a10.45,10.45,0,0,1,2.2-4.72c-0.19.21,0.57,7.29,0.59,7.41a12,12,0,0,1,3.42-6.78c0.15-.13.52,6.55,0.58,7.06,0-.2,2.08-4.87,2.08-4.63A10.89,10.89,0,0,0,94.65,633q-2-4.12.61-4.66a21.08,21.08,0,0,0,1.65,4.84c-0.21-.37,4.34-4.12,4.89-4.32,0,0-.06,6.14-0.07,6a15,15,0,0,1,6.57-7.22q1.45,1.25-.69,3.37c2.44-1.19,5.91,1.09,10.61-1.9q1.06,0.87-.1,2.43c2.75-.82,3.49,4.19,3.92,6.25,2.09-2.23,2.7-8.47,1.94-9.51h0Z" transform="translate(46.39 -458.73)"/><path class="cls-20" d="M80.27,608.21a12,12,0,0,0,2.58-4.92,6.71,6.71,0,0,0-3.65,6.46l1.07-1.54h0Z" transform="translate(46.39 -458.73)"/><path class="cls-21" d="M57.71,532.36a1.61,1.61,0,0,1-.9,1.88c8.33-.71,12.23,12.29,14.74,18.54,2,5.09,2.9,8.22,3,13.76,0.08,3.65,0,9.31-1.53,12.85-1.65,3.82-4.38,2.91-3.57,7.06,6.13-4.94,9.19-17.43,8.58-26.29-0.39-5.69-4.08-9.94-5.57-15.31-1.35-4.87-2.23-9.19-6.23-12.36-0.59-.47-5.85-4.14-6.08-3.54-2.27.93-6.12,2.25-7.4,4.6a19.23,19.23,0,0,1,5-1.21h0Z" transform="translate(46.39 -458.73)"/><path class="cls-21" d="M73.28,527.37a87,87,0,0,1,8,23.2,70.55,70.55,0,0,1,.88,24A57.18,57.18,0,0,1,79,585.84C77.94,588.7,74.43,590.4,75,594c9.61-12.94,10.62-22.75,10.06-38.42-0.29-8.07-.06-15.61-1-23.61-0.95-7.77-4.51-7-12.63-5.92a3.56,3.56,0,0,1,1.94,1.32h0Z" transform="translate(46.39 -458.73)"/><path class="cls-21" d="M116.78,599.22c-16.16,1.2-26.71,5.66-29.44,23.07,4.16-10.05,14.57-15.45,24.48-16.87,3.63-.52,7.72,2.81,11.3-1.66,0.59-.74,0-7.48-0.08-8-2.44,1.07-3.39,3.3-6.27,3.52h0Z" transform="translate(46.39 -458.73)"/><path class="cls-21" d="M119.91,610.13c-11.1,1.38-15.24,7.91-22.37,15.27C99,626,113.71,620,116,619.19c3.54-1.24,6.11-1.39,7-4.48,0.52-1.74.72-5.08-3.1-4.59C116.91,610.5,120.83,610,119.91,610.13Z" transform="translate(46.39 -458.73)"/><path class="cls-21" d="M124.35,588.75c-0.28-1.12-5.13-9.6-.93-4a25.31,25.31,0,0,0-2.33-6.35c-0.26-.47,1.11.7,0.81-0.47-3.5-.09-2.77,5.58-5.71,8.23-3.94,3.57-9.89,2.49-14.84,3.78-9.68,2.53-18.43,11.62-20.51,21.66,4.27-7.21,12.47-12,20.24-15.42,1.19-.52,25.86-5.37,21.82-8.76-2-1.68,1.73,2.56,1.44,1.37C123.81,586.57,124.37,588.82,124.35,588.75Z" transform="translate(46.39 -458.73)"/><path class="cls-21" d="M100.45,583.25c2.48-1.8,20.09-18.49,18.61-21.51,1.61-.66.35-3.5-0.53-5.47,5.71,3.23-6.44-14.34-1.81-9.38-0.91-2-3.13-5.42-5.38-6.33,0,6.89-1,15.17-3.52,21.72a99.47,99.47,0,0,1-5.46,12.09c-2.34,4.1-6.34,7.72-7.64,12.73a35.4,35.4,0,0,0,5.73-3.85h0Z" transform="translate(46.39 -458.73)"/><path class="cls-21" d="M92.23,529c-1.9,5,1.32,17,1.45,23.41,0.26,12.46-1.34,22.3-6.72,33.35,9-11.5,10.4-20.21,12.77-35,1.94-12.09,6.85-19.16-8.08-23.52a3.69,3.69,0,0,1,.58,1.79C92,529.6,92.43,528.44,92.23,529Z" transform="translate(46.39 -458.73)"/><path class="cls-22" d="M78,560.17C76.64,550.84,68,525.1,57.8,530c14.71,7.76,21.45,30.52,17.82,46.69,1.41-2.35,2.9-13.36,2.42-16.55h0Z" transform="translate(46.39 -458.73)"/><path class="cls-22" d="M85.75,560.38c-1.86-10-.05-20.28-2.93-29.89-0.43-1.44.8-8.77-4.1-4.95-3.18,2.48.26,2.16,0.4,4.46,0.34,5.33,3,10.84,3.88,17,1.37,9.73,1.51,20.35,1.71,30.08,1-4.4,1.87-12.26,1-16.75C85.15,557.12,86.1,562.25,85.75,560.38Z" transform="translate(46.39 -458.73)"/><path class="cls-22" d="M122.91,601.39c-8.91,0-32.14,3-34.11,17.87,3.7-6.66,12.78-12.68,20.34-13.86,4-.63,14.13,3.79,13.78-4C122.87,601.39,122.93,601.85,122.91,601.39Z" transform="translate(46.39 -458.73)"/><path class="cls-22" d="M120.54,612.8c-6.29.77-18.6,6.43-22.17,12.68,4.33-.51,10.55-4.09,15.16-5.32,2.7-.72,14.48-8.21,7-7.36h0Z" transform="translate(46.39 -458.73)"/><path class="cls-22" d="M124.35,588.75a5.28,5.28,0,0,0-3.1-4.86c0.9,8-9.41,6.1-14.89,7.77-7.48,2.29-22,8.64-23.34,18.19,1.47-.38,3.77-5.12,4.94-6.33,4-4.1,10-6.35,15.21-8.41,0.88-.35,24.32-3.9,19.74-7.74-2-1.68,1.73,2.56,1.44,1.37C124,587.34,124.37,588.82,124.35,588.75Z" transform="translate(46.39 -458.73)"/><path class="cls-22" d="M119.31,561.82c0.46,0.68-.42-4.75-0.78-5.55,3.45,2-.61-7.53-3.08-8.68,2.62,2.9-2,13.27-4.17,18-1.64,3.59-4.6,6.82-6.57,10.21-2.36,4-7.84,7.49-9.58,11.17,3.76-1.57,26.08-22.55,24.19-25.11h0Z" transform="translate(46.39 -458.73)"/><path class="cls-22" d="M101.66,536.87c1.92-6.07-1.34-6.62-6.62-8.55,4.21,4,1.9,19.66,1.66,26.44-0.35,10-2,17.5-4.83,26.58,8.8-13.66,5.43-30.72,9.79-44.47h0Z" transform="translate(46.39 -458.73)"/><path class="cls-23" d="M56.37,620l0.28,3.9a16.32,16.32,0,0,0,1-8.44c2.05,3.11,2.64-5.6,2.6-6.9,1.13,5,.33-5.94,1.25-6.29,0.5-.19.88,1.95,1,2-0.47-.46-0.48-7.86-0.25-7.61a6.34,6.34,0,0,0,.82,1.08c-0.22-3-1.66-7.67-3.74-10.2,1.64,2.5.53,5.26,1.17,6.74a14,14,0,0,0-3.44-5.35c1.61,2.19,4.29,14.22,1.32,7.85,0.91,3.49-1.11,6.53-.84,9a10.21,10.21,0,0,0-2-5.31c1.33,3.38,2.83,7.54-1.25,2.52,1,2.27,3.05,14.88-.68,7.51,0.1,1.59-1.08,7.93-.79,9.27a15.35,15.35,0,0,0-2.35-5.37c1.24,3.85,2.44,8.37,1.3,12.42q-1,.53-0.95-1.17c0-.15-0.65,9.92-1.72,6a15.14,15.14,0,0,1-4.51,9q-1-.29-0.12-1.53a12.79,12.79,0,0,1-5.31,6.42q-0.93-.68.54-1.69-2,4.86-4.17,3c1.74-3.57.66-3.69,5.74-7.9-2.45.5-1.63-.33,0.72-2.14-4.83,1.54,2.13-5.13,2.64-6.61q-0.76,1.74-1.8,1a47.76,47.76,0,0,0,2.65-8.41c-4.2,6.73.1-5.34,0-7.26q0.15,1.95-1.15,1.79a50.7,50.7,0,0,1,.88-9.21q0,2.86-1.87,2.73a12.93,12.93,0,0,1,1.4-6.89q-0.6,3.64-3.09,3.51a16,16,0,0,1,1.39-5.31c-2.73,2.28.78-4.6,0.85-4.71q-1.1,2.47-2.79,1.79a13.49,13.49,0,0,1,2.62-5.86Q42.8,596,41.4,595.11A12.85,12.85,0,0,1,43.94,591c-2.29,1.12-5.07,4.46-2.21-1.31a11,11,0,0,0-2.8,5.92q0.48-1.71,1.29-.67a15,15,0,0,0-1.17,6c1-2.25,1.15,5.59,1.33,7.26,0.48,4.45,2.06,7.29,2,12.8-0.08,8.44-4.22,24.28-13.13,27.54a7.73,7.73,0,0,1,4.25-.66c0.19,0.35-1.26,2.19-1.4,2.19q1.22-.79,2.37-1.69,1.47,1.24-.35,3.25c3-5.29,1.74-1.48,2.22.4,1.23-3.45,5.94-5.41,8.31-8.07s8.11-16.56,6.7-9.38c0.92-1.69,2.4-12.8,2.93-5.56,0.83-1.8,2.41-7.25,2.11-9.07h0Z" transform="translate(46.39 -458.73)"/><path class="cls-24" d="M41,619.72c-0.42-14.18-5.58-20.49,2.44-32.93-1.73,1.47-6.6,10.32-5.55,3.23-0.94,2.22-1.7,14.46-3,5.1-0.16.61-1.09,8.71-.53,9.45a12.12,12.12,0,0,1-2-4.51c-0.16,2.78,3.26,15.16-1.75,4.27,0.64,3.48,3.5,9.93-2,3.17q2.69,2.4.9,3.72a15.67,15.67,0,0,1-5-5q1.39,1.83,0,2.57a15.56,15.56,0,0,1-4-5.35q0.86,1.63-.33,2.11A16.91,16.91,0,0,1,17,601q1.52,1.94.07,2.71c-2-2.42-4-9-5.43-10.38l1.9,1.9c-0.4-1.31-4.43-11.77-.36-5.7-1-5.32-.68-7.52,1.33-3,0-.19.77-7.56,0.85-7.32a21.26,21.26,0,0,0,2.15,5.68c0.19-4.15-1.65-9,1.94-2,0-1.11-.42-14.19,1.46-6.14,0.42-2.21.33-9.46,1.87-3.08,0.54-2.21-.41-9.43,1.54-3.16,0.61-2.08-.42-11.09,1.79-3.59a16.13,16.13,0,0,0,0-5.72q0.81-.88,1.08.84c0-.14-1.25-9,0.36-5.68,0.21-8.16-1.59-8.08-7.66-12.09-2.16-1.43-3.74-4.86-6.42-5.37-8-1.53-15,10.78-17.33,16.52-4.89,12,1.74,20.95-2,32.09q1.31-1.78,2.7-3.51c-0.63.68-.92,7.28-0.29,8.78,0.09-.9,2.09-5.54,2.16-4.66,0.19,2.75-.68,6.84,1.81,9-0.4-.43-1-3.49,0-3.95a23.06,23.06,0,0,0,3,6.47,25,25,0,0,1-.53-3.44c1,2.51,3.16,7.06,5.1,9a4.84,4.84,0,0,1-1.1-4.33c1.63,3.29,5.72,8.4,9.12,9.92q-1.05-1.59-2-3.27c6.3,7.12,17.63,13.53,26.84,15.5L41,619.72C41,618.1,41,620.84,41,619.72Z" transform="translate(46.39 -458.73)"/><path class="cls-24" d="M124,628.28a10.79,10.79,0,0,1,2.49,3.64c-0.3-2.14-4.55-10.1-.78-6.35a50.63,50.63,0,0,0-3.6-7.33c0.52,0.86,3.1,2.45,4.19,2.94-3.34-3.34-4.66-9.69-3.34-13.83q2.13,0.08.77,4c0.07-3.91-.78-7.7-1-11.58,0-.42,0-11.69,1.51-2.36,0.11-.71-0.76-9.59-1.31-10.05a5.87,5.87,0,0,1,1.74,2.6c-0.31-1.55-5.26-10.61-1.23-5.27-0.09-.36-3.71-8.36-1.37-6.24a37.81,37.81,0,0,0-2-5.74q1.76-.95,2.21,3a32.16,32.16,0,0,0-3.24-14,3.09,3.09,0,0,1,2.22,2.61,47.31,47.31,0,0,0-2.76-8.08c5.71,3.23-6.44-14.34-1.81-9.38-0.47-1-7.06-8.08-4.46-6.85a26.25,26.25,0,0,0-3.9-2.9q0.56-1.76,2.71.21c-8.19-11.34-30.15-13.18-42.32-10.84-14.78,2.84-27.54,20.37-42.19,20-0.38-1.13,7.56.71,4,2.14,0,0,7.38-.68,7.34-0.18-0.06.83-2.19,1-2.65,1.11,1.37,0.29,9.24-2.72,9.35-2.53a2.1,2.1,0,0,1-1.17,2c7.31-2.64,4.95-11.09,6.32-.82a19.88,19.88,0,0,1,10.5-12.26q1.46,1.81-2.08,3.59a23.91,23.91,0,0,1,14-7.15q0.24,1.87-2.57,2.16c3.08-1.34,6.82-2.59,10.22-1.73q0,2-3,1.8c3.3-.89,7.23-1.49,10.47,0q-0.2,1.32-2,.85c2.27-.21,5.9-0.3,7.43,1.89q-0.65,1.53-2.84.53c3.39,0.51,7.06.87,10,2.81,0.33,0.21-5.33,1.77-3.14,1a25.68,25.68,0,0,1,8.59,1.54q-0.84,2.46-4.57.65a14.24,14.24,0,0,1,6.45,3q-1.33,2.24-4.64-.25c4.16,0.78,8.82,2.62,10.88,6.63q-1.62,2.14-4.69-1a8.06,8.06,0,0,1,5.14,5.71c0,0.1-5.65-2-5.76-2,3.46,3.51,4.56,6.87,6.47,10a7.09,7.09,0,0,0-3.47-2.78,14.76,14.76,0,0,1,4.58,7.14q-1.82,1.6-4.13-1.33c2,1.56,7.16,10.27,2.62,7.43,2.19,2.13,8.64,11.21,2,7.3,7,7,0,2.5-1.46,1.85,1.76,1.69,8.68,9.2,1.32,4.74a15.13,15.13,0,0,1,3.5,5.48q-1.66,1.83-3.79-1.88c1.63,3.64,8,12.64.84,6.84,0.51,0.69,6.11,10.6,1.34,6.67,0.73,1.72,3.81,8.3,0,4.93,3.45,6,1,4.13-.8,2.55-0.34-.47,4.6,11.68,2.42,8.89,1.79,3.76,1.87,6-1.32,3.31,1.62,3,3.85,10.13-1.63,3.6,0.69,3.2.53,4.21-1.68,2.07q3.47,2.13,1.69,3.76a33.64,33.64,0,0,1-4.74-3.45c1.23,3.44.86,3.45-1.73,1.16q3.82,1.78,2.35,3.87a9.65,9.65,0,0,1-5.63-2.08q2,1.95.65,3.19c-4.74-1.36-7.63-5.35-9.65-9.58,0,0,.49,6.65.41,6.56a14.26,14.26,0,0,1-3-4.95c0,0.05,1,6.53,1,6.54a14.66,14.66,0,0,1-4.33-7.72q1.9,3.18-.17,4.48a13.93,13.93,0,0,1-3.85-5.8c-0.09.39-.77,6.37-0.56,6.75a20.29,20.29,0,0,1-2.17-7.63q1.26,3.12-.81,3.78a15.46,15.46,0,0,1-1.2-6.33q0.58,3.09-1.48,3.51c-1.07-4,.21-8.34,1.73-12q-0.47,3.88-2.57,3a17.69,17.69,0,0,1,1.67-5.2q-0.75,2.62-2.37,2a21.55,21.55,0,0,1,7.36-12.34c-6.68,2.11-1.92-1.28.58-2.81-8.61,2.08.07-3.17,2.62-4.4-7,1.1,4.2-3.49,5-3.7-1.44-.24-7.18.7-1.26-1.9q-1.38,1.19-1.7,0a19.44,19.44,0,0,1,11.64-5.61C96,585.36,89,590.69,84.52,597.5c4.06-3,2.74-2.41,1.41-.28-2.74,4.4-5.49,7.2-6.74,12.54a13.28,13.28,0,0,1,2-2.62c-9.27,13.7-3.86,29.95,12,34.23a18.16,18.16,0,0,1-3.11-4.84c0.41,2.93,6.45,5.82,9.21,6a7.72,7.72,0,0,0-1.85-1.3,37.86,37.86,0,0,0,5.52,1.13c-6.2-4.58,2.92.1,4.06,0,3.74-.45,7.59-0.45,11.1-2.11,4.59-2.18,8.47-8.27,5.81-11.91h0Z" transform="translate(46.39 -458.73)"/><path class="cls-24" d="M77.12,614.67C75,609,82.17,598.49,85.86,594.1c-2.64,2-6.29,9.27-4.59,2-1.36,1.16-5.3,6.87-4.9,8.4a16.46,16.46,0,0,1,.17-5.86c-2.37,2-2.22,12.14-3.77,4.07,0.1-.64-0.1,10.76-2.05,2.23q1.43,3.3-.75,4a11.73,11.73,0,0,1-.89-5.29q0.66,2.18-.87,2.62-0.59-2.7-.93-5.44,0.64,2.11-.83,2.34a23.07,23.07,0,0,0-2.07-8.37q1.91,3.32-.26,3.73c-0.76-2.17-1-4.46-2-6.55,2.41,7.78.83,14.46-1.43,22.25-1.19,4.13-8.61,15-.68,16.84q-3.13-2.48-.93-3.45a12.15,12.15,0,0,0,6.72,5.61,6.89,6.89,0,0,1-1.73-4.24c-0.06,1,3.24,4,3.72,4.33q-1.58-1.41-.8-2.9c-0.17.15,6.1,3.47,6.71,3.63-1.47-2.14-1.53-4.46-2.45-6.4,1.2,2.55,2.64,5.61,5.1,7.21-0.67-1.48-.6-3-1.09-4.49,0.19,0.19,2.29,2.79,3,3.48-3.71-5.51-3.16-13-1.18-19.1C77.1,614.63,75.73,618.93,77.12,614.67Z" transform="translate(46.39 -458.73)"/><path class="cls-24" d="M26.46,560.87c1.83,2.39.38-3.37,0.23-4.48-0.71,5.17-1.93,6-.59,10.49,0-.14.42-5.93,0.36-6h0Z" transform="translate(46.39 -458.73)"/><path class="cls-16" d="M40.51,614.89c-0.21-3.63-1.6-8.93-2.45-12.34-1.35,4,2.38,11.8-2.9,4.39,0.66,2.89,4.59,9.91-.69,4.87,3.06,5.13,3.15,5.89-1.25,2.08q2.79,1.73,1.4,3.28a17.91,17.91,0,0,1-4.95-3.79q2.08,1.68.67,2.63a32.46,32.46,0,0,1-4.4-4.29q1.74,1.26.6,2.17A29,29,0,0,1,21,608.26q1.95,2,.45,3.11a27.28,27.28,0,0,1-3.9-4.59q1.14,1.23.06,1.73a26.15,26.15,0,0,1-4.19-6.45c0.35,3.81-1.15,1.24-2.49-2.12q1.27,1.81-.07,2.52a31.73,31.73,0,0,1-2.58-6.58q1.19,2.51-.54,3A33.68,33.68,0,0,1,6,593.62q0.85,1.94-.55,2.31c-0.63-2-3.4-15.84-.06-8.31q-2.23-3.43.06-4.18a24.46,24.46,0,0,0,3.06,6.48c-0.13-2.12-2.09-12.58,1-4.86,0-7.46.3-6.09,1.59-2,2.89-11.13,18.5-17.41,15.38-31.34-2-8.86-14-15.84-22.25-8.75-7.59,6.5-12.7,19.57-11,29.42,1.17,6.71,3.3,7.53.8,15.07q1.31-1.78,2.7-3.51c-0.63.68-.92,7.28-0.29,8.78,0.09-.9,2.09-5.54,2.16-4.66,0.19,2.75-.68,6.84,1.81,9-0.4-.43-1-3.49,0-3.95a23.06,23.06,0,0,0,3,6.47,25,25,0,0,1-.53-3.44c1,2.51,3.16,7.06,5.1,9a4.84,4.84,0,0,1-1.1-4.33c1.63,3.29,5.72,8.4,9.12,9.92q-1.05-1.59-2-3.27c6.3,7.12,17.63,13.53,26.84,15.5a32.45,32.45,0,0,0-.42-8.13C40.5,614.78,40.63,616.51,40.51,614.89Z" transform="translate(46.39 -458.73)"/><path class="cls-16" d="M77,615c-2.92,2-3,12.09-4.27,6.36,0-.29.05,6.48-0.21,6.15a23,23,0,0,1-3.23-7.83c-0.58,1.62,0,12.58-2.53,3.37,0,3.46.69,9-2.79,2.17q0.6,1.36-.45,1.73c-1.84-3-5.36-11,.83-4.5-0.23-.56-4.63-11.76-0.76-6.51a44.56,44.56,0,0,1-1.23-5.42q1-.86,1.23,1.19a25,25,0,0,0-.25-6.78C61.79,608.73,52.07,629.14,60,631q-3.13-2.48-.93-3.45a12.15,12.15,0,0,0,6.72,5.61,6.89,6.89,0,0,1-1.73-4.24c-0.06,1,3.24,4,3.72,4.33q-1.58-1.41-.8-2.9c-0.17.15,6.1,3.47,6.71,3.63-1.47-2.14-1.53-4.46-2.45-6.4,1.2,2.55,2.64,5.61,5.1,7.21-0.67-1.48-.6-3-1.09-4.49,0.19,0.19,2.29,2.79,3,3.48C74.66,628.36,75.13,621,77,615,77,615,75.71,619.16,77,615Z" transform="translate(46.39 -458.73)"/><path class="cls-25" d="M55.41,580.6c2.38-3.08-4.2-.71-5.16-0.07q2-.69,1.82-2.23c-8.76-.18.46-4-1.24-4.39a4,4,0,0,0-3.09,1.43c0.62-1.24,5-6.09-.18-2.7,0.48-.31,1.86-2.88,2-2.84a5.77,5.77,0,0,0-4.18,2.42c1.21-1.49,7.45-11.06,2-6.39,0.66-.65,3-3.84,3.33-3.91-1.48.36-4.25,1-5,2.49,1.14-2.19,3.08-12,.88-7.51,0.06-.12,1-2.47.73-2.34s-2.35,1.76-2.41,2.21c0,0,2-4.73,2.15-4.72,1.85,0.19-3.69.53-3.88,1.35q1.74-1.18.8-2a7.06,7.06,0,0,0-2.61,3c0.16-.2-0.12-2.82.08-2.88a4.14,4.14,0,0,0-2.56,2c0-.11.14-2.64-0.13-2.39-3.62,3.37,1.17,1-4.28.07q-0.75.72,0.31,1.47c-1.54-.83-3.11-0.25-4.39.8a20.34,20.34,0,0,1,2.27,0c-1,.35-3,0.88-3.29,2,0.13-.49,2.34,0,2.23.18a13.49,13.49,0,0,0-2.57,2.76c-0.07.29,3.05-.85,3.16-0.89a6.9,6.9,0,0,0-2.94,3.48q1.05,1,2.31-1.07c-2.07,1.67-2.75,4.68-2.72,7.21-1-2.72-1,2.19-.75,2.47-3.12-3.81-1.08,4.06-.64,5.34a4.4,4.4,0,0,0-1.67-2.66q-1.49,1.25.4,3.49c0.19,0.35-1.37-3.2-1.81-2.23-0.84,1.85-.44,6.07.51,7.75a7.19,7.19,0,0,0-1.46-2.46c-0.34-.07.26,6.76,1.71,7.56q1.73-1.2,1.1-3.84A7.6,7.6,0,0,0,27.48,587c0.26,0.32.83-4.38,0.88-4.67-0.28,1.6.41,7.2,2,8.07,0,0,.66-4.92.59-5.52,0.36,3,.29,5.2,1.87,8-0.51-.92,1.85-8.82,2.08-9.37a15.64,15.64,0,0,0-.76,6.76c-0.1-.79,3.47-6,4.11-6.55-3.14,10.6,1.68,1.47,3.71,0q-1.85,1.15-.89,2.26c1.77-.74,5.26-4.78,7.58-3.75-0.59-.26-3.2,3.08-2.71,3a3.55,3.55,0,0,1,3.78-.25,8,8,0,0,0-4,3.08q0.75,1.18,2.11-.4A8.14,8.14,0,0,0,45,591.43q1.24,1.24,2.78-1.22a11,11,0,0,0-2.64,8q1.92,0.31,2.4-2.58c1.16-2.27-3.09,7.13-2.17,6.84a7.71,7.71,0,0,0,2.3-1.75c-0.55,1.1-1.45,2.83-.81,4.07,0.55,1,4.16-8.47,4.08-8.19a24.35,24.35,0,0,0-.18,3.37c0.22,0.63,1.92-8.06,1.93-7.87a10.41,10.41,0,0,1,.65,2.14s-0.75-7.44-1-8.06Q53,588.5,54.52,588a5.67,5.67,0,0,0-1.15-4.68q1.7,1.38,2.3.11c-2.64-2.63-1.72-1-.26-2.81h0Z" transform="translate(46.39 -458.73)"/><path class="cls-17" d="M112.81,582.79c-0.51-2.07-2.64-4.34-4.29-5.6a21.05,21.05,0,0,1,3.27,2.31,14.68,14.68,0,0,0-4.31-6.17c0.13,0.08,4.6,3,4.56,2.88-1-3.17-3.24-7.6-6.27-9.44a8.21,8.21,0,0,1,2.07,1.78c-0.44-.23-1.35-4.95-3-6q1.22,2.89,2.92,1.87c0.42-1.93-4.3-9.33-6.51-9.36,0.51,0,3.82,1.57,3.46,1a6.38,6.38,0,0,0-4.34-2.42c-1.87-.4,5.65.3,5.65,0.34,0-2.2-4.45-3-6-3.27,0.92,0.17,6.3-1,6.49-.75-1.43-1.55-7.65-4.11-9.83-3.72,0.82-.14,5.12-1.06,5.14-1.05a6.09,6.09,0,0,0-4.06-1q2,0.34,2.25-1.12a43.44,43.44,0,0,0-8.33-1.39q2.7,0.49,2.95-1.29c-2.48-.82-4.54-1.43-7.2-0.92q1.8,0.13,1.73-1.15c-1.54-.58-5.75-0.3-7.08,1q3.58,0.11,3.33-2.14c-3-.35-7.19-0.35-10,0.85,0.25-.11,3.14-1.54,2.94-1.69-2.08-1.46-7.13.71-8.52,1.92q3.47-1,2.48-2.8c-3.2.5-5.34,2.14-7.67,4.11,6.61-5.57-7.91.82-9.8,5.31,0.24-.55,4.66-1.32,5.28-2.2-1.22,1.74-3.36,1.69-4.33,4q0.86,1.19,2.39-.6a11,11,0,0,0-4.78,4.26c0.4-1,7.26-1.95,7.86-2.23a13,13,0,0,0-5.28,3c0.46-.69,3.77.41,4.92,0.34-9.15.59,0.41,1.73,2.18,3.63-0.87-.94-15,5.16-1.79,2.23-0.37.08-4.21,1.56-3.45,1.86a50.21,50.21,0,0,0,5.57.86c-1.44-.07-4.8,2.13-5.24,2.11a15,15,0,0,1,4.14-.69c-1.68,0-5.34,2.35-6.21,3.31,0.88-.91,7.94-1.21,9-1-3.6.44-5.44,3.63-7.83,4.53,1.32-.49,2.61-1,3.93-1.48,0.29-.12-4.27,3.4-3.47,3.49a6.48,6.48,0,0,0,2.76-1.07c0.43-.32-4.81,3.92-4,4,2.48,0.35,5.87-2.64,8.68-2.72-1.18.53-2.91,1.28-3.54,2.47,0.38-.7,4.2,1.82,5.07,1.71-1.89.23-4-.37-5.62,1,0,0,5.34,3.13,5.35,3.13q-2.89-2.11-4.2-.2,1.76,1.53,3.37,3.22a4.8,4.8,0,0,0-3.84-.42c-0.39.23,3.27,6.89,3.42,9.14A2.48,2.48,0,0,1,63,589.3c-0.6-.29,5.52,7.94,4.65,8.77a26.58,26.58,0,0,0,.68-4c-0.26,1.58-.65,5.39.91,6.58,0.29,0.22,1.27-3.87,1.3-4,0.23,6.45,1.34,2.25,2.84-.47-0.78,5.81,3.28-2.05,4-2.8-4.5,8.3,3.87-2.16,4.06-2.32-1.57,5.85,5.69-4.05,6.7-4.91-3.52,4.65,2.26-.06,3.49-0.95-0.34,1.64,5.78-2.09,6.94-2.29A12.12,12.12,0,0,0,97,585c2.23-.86,11.86-0.71,12.49,1.93a7,7,0,0,0-1.4-3.32,43.11,43.11,0,0,1,4.2,3.13,12.2,12.2,0,0,0-3.59-6.48,30.5,30.5,0,0,1,4.13,2.51C112.44,581.29,112.85,582.94,112.81,582.79Z" transform="translate(46.39 -458.73)"/><path class="cls-15" d="M107.54,594.11l0.23-.07C107.32,594,107.1,593.95,107.54,594.11Z" transform="translate(46.39 -458.73)"/><path class="cls-17" d="M114.94,613.1q-1.41-3,.57,0c-1.72-3.12-2.83-6.36-5.45-9.61a13.34,13.34,0,0,1,4.38,3.91c-0.16-.18-1.48-5.61-2-6.9,1.26,1.13-1.19-4.91-3.69-5.94a31.17,31.17,0,0,0,3.57.59c-0.61-1.71-4.08-4-5.86-3.58,0.18,0,2.79-.17,2.43-0.46-1.77-1.4-8.52-2.35-10,.31q0.27,0.75,1.42.23c-1.3.36-5.66,2.64-2.29,2.22-1.43.48-9.26,5.36-4.09,3.91-1.09.56-4.86,2.57-5.16,4.5a15.59,15.59,0,0,0,3.64-1.45c-2,1.52-4.39,2.41-5.2,5.11a39.7,39.7,0,0,0,4.08-2.18c-1.66,1.62-4.36,3.42-4.21,6.18a46.27,46.27,0,0,0,4.14-3c-2.23,1.84-4.67,6.37-4.36,9.33q1.16,0.57,1.73-1.49c-4.93,9.58,2.85.82,4.77-.76a10.79,10.79,0,0,0-2.7,5.12s2.69-2.43,2.59-2.3c-0.68.91-1.64,3.86-.91,5-0.37-.62,3.05-3.95,3.38-4.55A11.87,11.87,0,0,0,95,626q1.91,0,1.91-2.86c-2,7.44,1.58-.15,3.25-1.88a7.07,7.07,0,0,0-.7,4.87q2.3,0,2.42-3.57c-1.37,1.61-.5,6.45,1.16,7.57,0.13,0.09.32-4.58,0.37-5.15,0,0.42,2.38,5.65,2.72,4.93a15.65,15.65,0,0,0,.27-5.23c0.68,1.31,1.45,3.72,2.83,4.42,0.89,0.44-.16-7.2-0.06-5.67-0.09-.15,2.24,5.19,2.76,4.6,1.16-1.27,1-4.88.91-6.49,3.13,8.39,2.19-1.22,1.69-3.93,2.76,6.89.84-3.25,0.42-4.55C114.78,612.6,115.57,615.06,114.94,613.1Z" transform="translate(46.39 -458.73)"/><path class="cls-17" d="M53.41,612.63c3.88-9.47-4.42-13.26-7.41.06q1.12,0.82,2-1.24a5.61,5.61,0,0,0-1.51,3.91q1.27,1,2.14-1.31a11.51,11.51,0,0,0-2.36,7.3q1.52,0.54,2-1.88c-0.15.36-4.18,9.83-3.13,9.67a2.9,2.9,0,0,0,1.61-1.57c0.07,1.12-3.74,9.1-4.57,9.31a6,6,0,0,0,2.71-1.78c-1.27,1.38-4,4-4.36,5.88,0.07-.4,7.12-7.91,7.79-9.69a21.5,21.5,0,0,0,1.68-8c2.29,4.84,1-7.85.74-8.8q1.13,1.76,2.13,3.6c1.07,1-1.35-8.54-.77-6.92q0.17,1.82,1.3,1.4C53.89,611.47,53.35,612.79,53.41,612.63Z" transform="translate(46.39 -458.73)"/><path class="cls-26" d="M91.75,547.11c-1-2.14-6.68-4.16-8.84-3.08q2.81,0.68,3.34-1.14c-0.84-1.85-5.22-1-6.35-1-0.08-.19,4-0.77,3.49-1a12.43,12.43,0,0,0-8.62,0q1.9,0.21,2.4-1.19c-1-1.75-7.41.22-7.46,0.23Q72,539.64,72,538c-2.5-1.15-16.16,5.37-6.88,4,0.42-.18-4.7,3-3.72,3.13a10,10,0,0,1,4-.15A6.48,6.48,0,0,0,61.25,547c-0.32.51,3.14,0.1,3.72,0a8.86,8.86,0,0,0-3.62,1.91c1-.92,5.27,2.48,6.25,2.86-1.18-.46-3.67.16-4.14,0,1,0.25,4.78,2.1,4.93,3.9-4.67-3.21-2.37,1.63-.88,3a6.67,6.67,0,0,0-4.32-1.16,44.93,44.93,0,0,1,4.2,3c0.17,0.19-6.14-2.1-.64,1.19-7.47.07,0.93,2.2,3.32,2.24-1.75,0-4.84.65-5.66,2.46-0.21.48,3.72-.67,4.62-0.63-0.82,0-3.25,2.29-3.4,2.26a8.69,8.69,0,0,1,6.88.53c-1.16-.68-5.31,2.29-5.76,3.32-0.28.62,4.9-.07,3.76,0.3-5,1.61.47,1.55,1.52,5.2a4.77,4.77,0,0,0-3.5-1.42c0.93-.07,2.84,5.93,2.82,7.23-4.4-4-1.63,4.2-.44,6,0.52,0.79,5-15.25,5-15.58,4.33,6.57,2.46-2.38,1.12-5.68,2.25,4.2,1.6.19,0.82-1.7,1.86,2.43,1.34-1,.69-2.35,2,2.55.16-5.87-1.5-6.8,0.66,0.37,2,1.55,2.9,1.39,1.94-.35-3.1-5-2.86-4.84,0.37,0,5,1,5,.68-0.11-1.23-2.53-2.87-3.78-2.71,1-.17,6.27-1.32,6.27-1.33-0.63-1.42-4.09-1.05-5.2-1.05,0.81,0,9.41-1.54,9.41-1.1,0-.64-1.39-1.36-1.93-1.44,0.58,0.09,5,.66,4.88.36C90.88,545.26,91.84,547.29,91.75,547.11ZM64.66,540.2a3.55,3.55,0,0,1-1,.79C63.95,540.71,64.3,540.45,64.66,540.2Z" transform="translate(46.39 -458.73)"/><path class="cls-25" d="M40.65,569.29a10,10,0,0,0-2.12-2.83q2.41,0.87,3-.75c-1.32-2.06-3.78-.35-5.09.29,0.36-.59,6.51-7.21,1.86-4.11,0.35-.7,2.88-4.84-1-1.19,0.17-.32,6.57-10-0.7-2.27q2.23-1.87.91-3.12c2.14-1-3,2.47-3,3q1.68-2.55,0-3C32,558,30,565,29.25,567.78q0.78,0.9,1.67-.67a9.9,9.9,0,0,0-2.51,6.51q0.95,0.41,1.35-.92c-0.41.9-3.09,8.2-2.93,8a14.69,14.69,0,0,1,1.56-2.92c-0.6,3.39-.42,5.22,1.1,2-0.93,9.3.78,3.93,2.19,1.21-0.94,9.93,2.44-.24,4.05-2.55-1.56,7,2.46-.47,2.87-1.9q-1.37,4.17,1.05,4.16c1.68-2.11.94-7.69,0.35-9.75q0.66,1.81,1.5.87l-0.85-2.59h0ZM30,583.66l-0.1-2.74c0.58,2.74.06,1.34,0.1,2.74C30,582.73,30,584.11,30,583.66Z" transform="translate(46.39 -458.73)"/><path class="cls-26" d="M108.12,611.59c-1-2.22-3.37,8.07-1.81,3.92-0.14-1.69.35-4.89-.43-6.52,1.34,1.25.41-2.26-1.52-2.93q1.68,2.52,3,1.19a7.35,7.35,0,0,0-4-4q2.15,3.14,3.85,1.58c-1-2.64-3.38-3.87-5.94-4.5q3,1.78,4.05-.22c-0.92-1.71-3.67-1.78-5.26-1.46,0,0,5.07-1.33,4.69-1.64-0.66-.52-4.4-1.06-5-0.57s2.63-2,1.64-1.87a15.61,15.61,0,0,0-9.16,6q0.85,1.31,2.42-.53a8.84,8.84,0,0,0-4.37,3.66q0.43,1,1.56-.19c-1.77,1.64-.18,1,0.62.64q-2.84.61-2.21,2.26a28.18,28.18,0,0,1,5.41-1.79c-5.28,2.43-6.18,7.52-6.41,10.29,0.12-1.68,5.29-3.79,6.76-4.6a7.82,7.82,0,0,0-2.87,3.17,14.82,14.82,0,0,0,3-1.33c-0.45.47-3.79,5.09-3.24,4.9,1.42-.47,4.42-3.31,5.91-4.08a8.13,8.13,0,0,0-3.61,3.72q1.28,1.26,2.7-1.44c-0.84,1-2.16,6.87-1.87,6.66a28.71,28.71,0,0,1,2.56-3.72,3.14,3.14,0,0,0-.33,3.14s4.18-4.91,4.12-4.88q-3.39,4-.75,4.83c0.85-.61.41-1.25,1.14-1.64-0.31,1.19-1,3.61-.08,4.66-0.19-.21,2.83-4.81,2.94-4.91a11.27,11.27,0,0,0-.46,4.56q2.39,0.06,1.91-3.78-0.33,1.75.82,1.24c0.8-2.17,1.19-7.61.14-9.8h0Z" transform="translate(46.39 -458.73)"/><path class="cls-24" d="M26.86,548.76a33.88,33.88,0,0,1-.06,6.71,0.78,0.78,0,0,1,.69.85,26.6,26.6,0,0,0-.63-7.56C27.06,551,27.51,551.19,26.86,548.76Z" transform="translate(46.39 -458.73)"/><path class="cls-14" d="M-5.65,535.38c-5.16-.59-9.32-24.15-11.37-28.68-2.2-4.87-5-10.32-9.48-13.5-7.88-5.57-6.09-1.68-5.28,4.43,1.68,12.63-2.5,29.13,6.93,39.72,5.49,6.17,14.81,6.69,17.65-2.75q1.4,2.12,1.55.77h0Z" transform="translate(46.39 -458.73)"/><path class="cls-15" d="M-17.17,541.37s-7.19-5.91-7.83-6.86c-2.29-3.39-3.34-7.42-4.14-11.37-1.78-8.74.06-17.67-1.79-26.38,2.83,7.41,3.46,15.24,5.26,22.91,1.13,4.84,2.2,10.09,4.66,14.45,1.17,2.09,7.28,6.88,3.86,7.25C-17.18,541.27-16.62,541.31-17.17,541.37Z" transform="translate(46.39 -458.73)"/><path class="cls-15" d="M-11.94,538.77C-23.36,549.28-25.23,492-32.3,491.46-24.52,492-19.46,505.27-17.16,511c3,7.62,12.26,21.26,5.22,27.76h0Z" transform="translate(46.39 -458.73)"/><path class="cls-19" d="M-8.21,532.95c-3.25-4.81-5-9.9-6.59-15.43,0,0.82.38,10.52-2.47,7.54-0.33,2,.69,5.55-2.14,3.68-0.5,1.56.34,4.39-2.43,0.58C-18.77,538.54-13,545.3-8.21,532.95Z" transform="translate(46.39 -458.73)"/><path class="cls-14" d="M28.43,538.75a5.86,5.86,0,0,0-4.09-3.38c0.63-.33,5.19-2.83-1-2q0.72-.71,1.47-1.37a32.67,32.67,0,0,1-3.48.23c2.28-8.35,4.57-15.61,3.87-24.37-0.32-4.08-1.68-19.71-6.73-21.26-4.71-1.44-10.31,10.7-11.54,14.13C3.6,510,5.81,519.25,8.51,528.41c-1.35-.2-5.91-5.19-4-0.82-9.61-5.24-28.93,8.83-33.73,17.22-5.1,8.9-2.09,19.24-5.78,28.37-2.22,5.49-12.69,11.66-11.14,17.41,2.59,9.61,13,3.32,17.5,1,10-5.1,21.64-5.21,32.08-9.66S37.24,554.18,25.4,541.7q0.76,2.12,2.38,1.87c1.3-1.15-1-4.52-2-5.09,0.09,0.05,3.07,1.37,2.68.26C27.79,537,28.48,538.89,28.43,538.75Z" transform="translate(46.39 -458.73)"/><path class="cls-18" d="M27,538.43L25,538c-0.39,0,2.74,4.14,2.62,4.93,0.05-.33-3.73-2.14-2.78-1.76,4.51,1.84.39,14.83-.59,17.65a33.91,33.91,0,0,0-2.1-8.32c1.75,17.37-8.16,26.27-23.76,32.28-5.44,2.1-10.57,3-16.2,4.24-5.81,1.29-12.83,7.18-18.15,7.75a8.37,8.37,0,0,1-6.1-1.75c-7.22-5.61,1.39-9.27,4.79-14.3,8.24-12.18,1.4-32.48,15.86-41l-1.3.3a25.62,25.62,0,0,1,12.38-6.9,1.88,1.88,0,0,0-1-.08c2-.88,9.94-2.88,9.69-3a9.62,9.62,0,0,1,4.62.52c-1.82-2.07,2.25-.19,2.65,0a2,2,0,0,0-.79-1.9c4.59,4.26,8.67,9.94,7.1,17.81,2.83-8.16-3.38-18.81-4.51-26.93-0.7-5,.27-30.05,8.89-30.19,6.32-.1,6.81,18.09,7.09,23,0.7,12.12-5.68,23-5.38,34.89,0.72-4.39,1.89-11.76,5.37-12.41-1.67,1.65.63,2,1.92,1.42-2.91,1.35-.26,3.58,1.7,4.21h0Z" transform="translate(46.39 -458.73)"/><path class="cls-18" d="M-33.4,572.83q2,0.8-1,3.58c1-1.06,2.91-2.55,1.21.55,2.39-1.9,3.72-3,1.3.44,0,0,6.42-4.79,3.06-.77,17.64-7.91,15.09-33.17,36.77-32.7,2.76,0.06,5.67,1.39,7.23.83,4.65-1.68-.76,5.65,3.22-4.55,1.88-4.81,2.86-10.92,3.87-16,1.27-6.47,1.85-48.39-9.85-31.74-6.14,8.73-6.26,19.28-4.18,29.35,1.43,6.95,6.14,15.64,3.69,22.69,1.57-7.87-2.51-13.56-7.1-17.81a2,2,0,0,1,.79,1.9c-0.41-.15-4.47-2-2.65,0a9.62,9.62,0,0,0-4.62-.52c0.28,0.08-8.33,2.36-9.69,3a1.88,1.88,0,0,1,1,.08A25,25,0,0,0-22.72,538l1.3-.3c-12.8,7.5-8.7,24.59-13.29,36.28l1.31-1.18h0Z" transform="translate(46.39 -458.73)"/><path class="cls-18" d="M13.91,544.75l-1.45-3.35a8.93,8.93,0,0,1-.57,3.09c1.49-7.45-2.63-13.66-7.1-17.81a2,2,0,0,1,.79,1.9c-0.41-.15-4.47-2-2.65,0a9.62,9.62,0,0,0-4.62-.52c0.28,0.08-8.33,2.36-9.69,3a1.88,1.88,0,0,1,1,.08A25,25,0,0,0-22.72,538l1.3-.3c-12.8,7.5-8.7,24.59-13.29,36.28,2.64-2.56,1.32-.25.29,2.4,1-1.06,2.91-2.55,1.21.55,2.39-1.9,3.72-3,1.3.44,0,0,6.42-4.79,3.06-.77,6.19-2.78,11.34-6.88,14.54-12.89,2.73-5.13,2.88-11.2,7.49-15.32a19.16,19.16,0,0,1,11.69-4.38c1,0,8.89.83,8.21-.36,0,0,1.87,3,.83,1.06h0Z" transform="translate(46.39 -458.73)"/><path class="cls-15" d="M23.72,514.53c-1-10.83-3.79-42.32-14.39-16.18-4.8,11.83-2,36,5.35,46.8,0.79-1.11,1,1,2.58.34,1.88-.81,1.38-6.33,1.77-8.27,1.44-7.15,5.38-15.31,4.69-22.7C23.2,508.9,23.94,516.94,23.72,514.53Z" transform="translate(46.39 -458.73)"/><path class="cls-19" d="M12.18,537.87a13.91,13.91,0,0,1,0,6q-0.09-1.5,1-1.49c0,0.5.71,1.5,2,3.15,0.32-3.55-.08-2.13,2.15,0,2-9.39,5.26-19,6.25-28.61-0.3,1.36-2.88,8.59-3,3.79-0.16,3.15-6.13,16-5.46,17.52a65,65,0,0,1-4.5-16.67q0.59,1.55-.57,1.68a26.18,26.18,0,0,1-1.42-7.59c0.07-.62-0.21,5.79-1.15,3.09,1.15,6.48,3.46,12.68,4.6,19.16h0Z" transform="translate(46.39 -458.73)"/><path class="cls-15" d="M27.18,541.68c-1-2.26-4.59-4.67-.2-3.25-2.13-.68-4.85-2.74-1.7-4.21-1.29.56-3.59,0.23-1.92-1.42Q19.12,531,20,537.2q-1,2.43,3.16.51Q23,539.18,21,538.95c9.27,2,.07,2.16.49,2.18,1.8,1.64,5.75,8.75.33,5.08,4.06,5.85-.82,1.48-1.43,1.12,0.63,2.1.88,15.23-1.46,9.37,0.12,2.4-.46,11.08-2.79,4.65-0.29,2.27-1.17,9.84-3.05,4.08a14.73,14.73,0,0,1-2.71,6.76q-1.17-.18-0.4-1.85c-1.09,2.6-3.61,10.1-4.5,3.82-1.11,1.77-4.51,8.62-3.54,2.59-1.43,1.66-7.11,6.14-6.15,5.08-2.53,1.1-6.43-.71-8-2.4-3.46,8.11,5.35,0-2.06,4.81-1.58,1-5.93.06-7.83,0.4-6.2,1.11-13.62,9.67-19.24,8.81,2.14,1.31,4,1.76,6.26,1,5.57-1.88,9.47-5.76,15.5-7.16,4.18-1,8.39-1.35,12.53-2.58,17.43-5.18,31.22-14.56,29.24-34.23a33.91,33.91,0,0,1,2.1,8.32c1.09-3.14,5.2-15.76.59-17.65,1.16,0.47,3.44,3.06,2.36.53h0Z" transform="translate(46.39 -458.73)"/><path class="cls-15" d="M-31.87,569.55l-0.64,2.94q0.55-4,2.75-3.15a34.53,34.53,0,0,1-1.71,5.33,32.21,32.21,0,0,1,3.28-4q2.46,1.58-1.9,4.88c2.75-1.83,4.78-4.58,7-7-0.4.44-2.1,4.62-2.8,5.49,9.66-6.65,9.47-12,14.73-21.07C-8.34,548,1.19,537.12,7,544.22c0.93-1.75,2.33-2.67,4-.85,3.15-6.48-2.15-12.94-6.18-16.69a2,2,0,0,1,.79,1.9c-0.41-.15-4.47-2-2.65,0a9.62,9.62,0,0,0-4.62-.52c0.28,0.08-8.33,2.36-9.69,3a1.88,1.88,0,0,1,1,.08A25,25,0,0,0-22.72,538l1.3-.3c-12.84,7.52-8.66,24.64-13.31,36.34a48.88,48.88,0,0,0,2.86-4.53C-32,570.55-31.82,569.2-31.87,569.55Z" transform="translate(46.39 -458.73)"/><path class="cls-14" d="M19.57,512.51c0,1.2-.9,24-4.5,24-3.47-13.89-3.41-28.81,1.26-42.36-4.79,13.84-9.69,31.41-.46,45.27,3.54-7,4.07-18.47,3.7-26.92C19.57,512.31,19.85,519,19.57,512.51Z" transform="translate(46.39 -458.73)"/><path class="cls-27" d="M-7.25,582.28a7,7,0,0,1-3.64-1c5.25,2-15.54,5.49-16,5.65-4.55,1.75-11.51,11.49-16.44,5.25,4.86,7.72,13.72-3.78,18.55-5.4,5.47-1.84,13.34-3.15,17.5-4.48h0Z" transform="translate(46.39 -458.73)"/><path class="cls-22" d="M-44.35,590.7c4.16,7.87,16.46-8.6,19.87-10.86q0.94,1-1.11,2c6.22-1.51,7-2.59,10.79-3.14,1.16-.17,1.75-2.39,3.07-2.34,0.93,0,3.81,2.7,4.2,2.62,3.92-.85,5.81-7.15,6.39-2.26,2.63-2.15,2.6-8.7,3.92-2,2.34-2.15.63-9,3.69-2.74,1.51-2.67.82-4.86,2-2.13,1.71-2.83,1.23-4.85,2.37-1.65,1.08-2.63.73-5.36,2-3,1.1-2.16.16-5.79,1.79-2.76,0.39-1.14.53-3.87,1.37-1.27a19.71,19.71,0,0,0,1.66-7.31q1-.7,1.43,1.15c0.82-3-.88-7,1.21-3,1.08-2.16,2.18-6.48-.1-8.42-1.31-1-4.77,5.08-7.26.78-1.3,2.3-5.34.14-8.05,0.23A17.5,17.5,0,0,0-8.7,551.15c-3.13,4.15-3.27,9.8-5.9,14.22-3.33,5.59-9.13,9.57-15,12.08q-0.51-1.08,1-1.77c-4.07,2.56-5.12,3.95-2.79.32-4.39,3.51-2.23,2-1.74-.26-2.58,2.15-2.55,3.16-.59-2.08-2.54,2.25-13.77,14.82-10.61,17C-44.08,591.22-44.94,590.28-44.35,590.7Z" transform="translate(46.39 -458.73)"/><path class="cls-24" d="M27.18,541.68c-1-2.26-4.59-4.67-.2-3.25-2.13-.68-4.85-2.74-1.7-4.21-1.29.56-3.59,0.23-1.92-1.42-3.32.62-4.66,8.1-5.37,12.41-0.3-11.93,6.08-22.77,5.38-34.89-0.28-4.87-.77-23.05-7.09-23-8.62.14-9.59,25.15-8.89,30.19,1.13,8.12,7.34,18.77,4.51,26.93,1.57-7.87-2.51-13.56-7.1-17.81a2,2,0,0,1,.79,1.9c-0.41-.15-4.47-2-2.65,0a9.62,9.62,0,0,0-4.62-.52c0.28,0.08-8.33,2.36-9.69,3a1.88,1.88,0,0,1,1,.08A25,25,0,0,0-22.72,538l1.3-.3c-14.42,8.45-7.66,28.79-15.86,41-3.64,5.4-14.26,16.65,1.31,16.05,4.9-.19,11-6.23,16.34-7.46,6.14-1.42,12-2.24,18-4.53,15.67-6,25.51-14.89,23.76-32.28a33.91,33.91,0,0,1,2.1,8.32c1.09-3.14,5.2-15.76.59-17.65,1.16,0.47,3.44,3.06,2.36.53h0Zm-62.74,42.19Q-37,582.68-34.31,581c-2.25,2-4.21,5-1.71-.16-3.58,3.28-4.37,3.89-2.6.87-6.54,5.22,6.22-10.31,7.29-11.51-2.43,1-1.77.61,0-1.52-2.79,1.68.93-4.26,1-4.63-3.08,2,.56-4.42.84-5-1.82,1.92-2.39,1.8-.49-2.32-2.27,2.6,1.19-3.53,1.33-3.72-1.62,1-2.92,1,.66-2.53-3.91,1.85,4.06-5.62,3.34-5.08-4.2.9,8.32-5.39,2.9-5.44,1,0,4.14-2.48,5.15-2.78-3.22-.9,1.81-2.41,3.48-3-2.08-.1,4.26-2.08,5.1-2.21C-9.24,531.52,4.4,532,6.4,532c-6.19,0,0,3.5,2.33,4.62-5-2.44,3.31,3.57-2.81,2.14,2.82,4.14-5.12,1.42-4.25.65-3,.84-5.45,3.67-4,0.12A11,11,0,0,0-5.75,543q-1.12,0-.54-1.57c-0.86,1.26-.81,4.28-1.94,2.21,0.4,3.06.55,1.72-2.38,1.48,2.47,2,.81,1.63-0.74,1.88,4,0.54-1.61,2.48-1.8,2.6,5.77-2.11-2.73,3.52-1.64,2.53,5.85-2.07.15,2.25-1.09,3.49,3.09-.95,3.41-1-0.26,2.55-0.71.27,1.76-.8,1.42-0.29A13.31,13.31,0,0,1-17,560.63c2.53-.87,3.6-1.27-1.38,3q1.14-1.25,1.8-.33c-1.29,2.73-1.37,3.92-3.85,6.08q1.24-1,1.34,0a135.93,135.93,0,0,1-16.47,14.47h0Zm51.76-14.3c-3.85,5.54-14.72,12.5-21.62,13.11,2.52-.22-7.19-3-6.39-2.36-0.94,5.13-1.3,3.9-8.15,4.47-1.36.11-15.08,1.9-13.9,4.37-4-8.49,41.16-19.71,44.74-23.15,1.85-1.78,4.12-8.8,6.49-9.8,6.68-2.83.79,11-1.17,13.37C15.55,570.49,19.14,566.06,16.19,569.57Zm8.63-29.35-3.24.16c4.22,4,2.3,7.83,2.38,12-0.07-3.59-2.63-5.61-3-8.54-0.7-6.28-.84-4.71,3.81-3.65C23.69,540,25,540.27,24.82,540.22Z" transform="translate(46.39 -458.73)"/><path class="cls-28" d="M17.56,545.67c-5,3.34-11.57-.92-17,0.28-6.86,1.51-9.28,6.47-11.71,12-3,6.84-6,11.12-11.8,16.89-1.58,1.57-14.07,11.25-13,12.79C-39,583.42-3,571.48.53,570.28,11,566.71,21,554,20.5,542.51q-1.4,1.65-2.94,3.16h0Z" transform="translate(46.39 -458.73)"/><path d="M14.25,552.45c-2.16-.09-2.5-2.72-4.08-3.55A13.39,13.39,0,0,0-4.36,550.3c-6.77,5.23-3.24,15.42-10.14,19.28,8.27-.24,15.93,1,22.49-5.27,1.52-1.45,7.85-11.82,6.26-11.85C13.65,552.43,14.56,552.46,14.25,552.45Z" transform="translate(46.39 -458.73)"/><path class="cls-29" d="M11.36,558.29c-4.1,7.52-22.68,16.91-20.38,2,2.08-13.42,26.07-14.76,20.38-2C11.1,558.75,12,556.91,11.36,558.29Z" transform="translate(46.39 -458.73)"/><path class="cls-22" d="M10.75,559.35c-3,5.44-16.34,15-18.78,4.84-3.45-14.3,24.47-17.64,18.78-4.84C10.52,559.77,11.3,558.11,10.75,559.35Z" transform="translate(46.39 -458.73)"/><g class="cls-30"><path class="cls-31" d="M10.73,560.82c-3,13.78-21.79,9.71-18.81-4.06s21.83-9.92,18.81,4.06h0Z" transform="translate(46.39 -458.73)"/><path class="cls-32" d="M8.24,560.28c-2.17,10.07-15.84,7.12-13.67-3s15.83-7.12,13.67,3C7.29,564.67,9.18,555.89,8.24,560.28Z" transform="translate(46.39 -458.73)"/><path class="cls-33" d="M4.87,559.83c-1.15,5.32-8.35,3.77-7.21-1.55s8.35-3.77,7.21,1.55C4.37,562.15,5.37,557.51,4.87,559.83Z" transform="translate(46.39 -458.73)"/><path class="cls-34" d="M8.35,550.63C9,557.36-1.62,565-7.79,563.22c5,15.56,26.89-.39,16.15-12.59C8.73,554.42,10.56,553.14,8.35,550.63Z" transform="translate(46.39 -458.73)"/><path class="cls-35" d="M-0.16,554.88c-0.11-3.91-4.89-1.14-5.24,1.73-0.67,5.52,6.15,2.78,5.24-1.73C-0.16,554.66.22,556.73-.16,554.88Z" transform="translate(46.39 -458.73)"/><path class="cls-35" d="M-2.35,562.61c-0.12-2.91-2.51.39-2.49,0.38-2,.7,4.21,3.73,2.49-0.38C-2.35,562.41-2.12,563.16-2.35,562.61Z" transform="translate(46.39 -458.73)"/></g><path class="cls-27" d="M1.7,545.57c-8.32,2.1-13.39,8.59-13.14,17.23,0-9,5.36-14.12,13.14-17.23C-2,546.52,1.72,545.57,1.7,545.57Z" transform="translate(46.39 -458.73)"/><path class="cls-27" d="M-35.85,586.22c-2.52-2.73-10.41-2-10.54,2.27-0.24,8.23,15.2,2.87,10.54-2.27h0Z" transform="translate(46.39 -458.73)"/><path class="cls-36" d="M-37.16,590.87c-2.25,1.87-8.59,1.25-8.93-2.16-0.54-5.36,15.19-3,8.93,2.16h0Z" transform="translate(46.39 -458.73)"/><path class="cls-37" d="M-35.9,587.4l-2.39-1.4c0.71,4.82-8.43,4.69-7.13.82-4.9,3.63,12.18,9.8,9.51.58C-36.39,586.7-35.57,588.54-35.9,587.4Z" transform="translate(46.39 -458.73)"/><path class="cls-17" d="M1.06,534.86a4.65,4.65,0,0,0-5.14-.43q1.84-.2,1.28-1.32a15.68,15.68,0,0,0-4.9,1.58q1.13-1.23.15-1.79c3.1-1.5-5,4-3.44,2.12-2.17,2.58.95,0.93-4.31,1.54q-0.44,1.24,1.71,1.38c-1.84,0-4.73,1.58-5.76,1.58a12.65,12.65,0,0,1,3.32.28c-1.61.39-7.66,4.56-5.68,3.71a4.49,4.49,0,0,0-2.53,2.64q0.84,0.6,1.81-.49a8.36,8.36,0,0,0-4.35,3.65q1.18,1.57,3.32-.94c-0.22.13-4.23,4.13-4.08,4.09a22,22,0,0,0,2.62-1.24c-2.64,1.31-3.73,5.15-4.08,7-0.07.35,1.88-1.46,2.26-1.73a29.42,29.42,0,0,0-2.57,4.8q1.71,1.16,2.76-2.37c-0.1.12-2.82,4.51-3,4.56a9.68,9.68,0,0,0,3.24-2.18c-0.22.35-3.39,6.43-3.14,6.28,1.24-.69,3.41-3.69,4-5-0.33.69-1.84,3.9-2,4a16.26,16.26,0,0,0,5.13-5.83q-1,1.46.05,1.72a15.28,15.28,0,0,0,3-6.81c-0.23,4.09,2.14-4.44,2-3.66,1.78,2.34,1.6-1.66,1-2.81-0.22-.42,2.49.65,2.25,0a3.43,3.43,0,0,0-2.44-1.86,5.25,5.25,0,0,0,3.09-.2A1.84,1.84,0,0,0-14.48,545c2,0.36,5.54,4.54,2.14-2.77a25.75,25.75,0,0,1,2.25,1.5q1.72-.83.56-3.36-0.54,1.87.73,2.21a3.5,3.5,0,0,0,.92-3.08c-0.62-1.84,4.11,10,1.13-1.29,0.51,0.55,2.63,5,1.89-.76A1.54,1.54,0,0,0-3.58,539a1.87,1.87,0,0,0,.3-2.32c0.33-.07,4.34.88,4,0.22a4,4,0,0,0-3.06-1.21q2.53,0.89,3.4-.82C0.08,533.45,1.18,535,1.06,534.86Z" transform="translate(46.39 -458.73)"/><path class="cls-17" d="M17.19,488.09C10.92,484.56,8.08,513,9,516.24c-1-3.66,8.66-27.9,8.21-28.15h0Z" transform="translate(46.39 -458.73)"/><path class="cls-17" d="M21,509.39A37.74,37.74,0,0,0,18.41,494c-3.09,12.93-6.08,22-3.78,35.59-1-6,3.61-17.12,3.65-24.1,0-.13,2.34,8.65,2.42,8.44L21,509.39h0Z" transform="translate(46.39 -458.73)"/><path class="cls-17" d="M-23.16,531.88c-5.14-8-1.73-18.63-5.77-26.53,0.64,1.24-.35,10.15-0.08,12.93,0.61,6.44,2.43,10.09,5.91,15.21q1.27-.29-0.06-1.6h0Z" transform="translate(46.39 -458.73)"/><path class="cls-26" d="M-19,513.43c-0.37-7.46-4.78-15.88-11.25-19.9,7.3,4.31,4.52,26.93,9.76,34.31q2.28-1.11-.58-4.31c2.23,5.15-.14-7.18-0.14-7.71q0.79,2.18,1.45,4.41c0.43,1,.74-7.32.76-6.79C-19.18,510.73-19,515.4-19,513.43Z" transform="translate(46.39 -458.73)"/><path class="cls-26" d="M15.18,490.76c-4.67,7.16-7.81,12.37-6.72,21.4-0.69-5.69,3.74-16.55,6.72-21.4C14.17,492.31,15.21,490.71,15.18,490.76Z" transform="translate(46.39 -458.73)"/><path class="cls-26" d="M17.93,498.06c-4.34,7.12-5.34,15.93-4,24-0.95-5.67.57-19.07,4-24C13.55,505.24,18,498,17.93,498.06Z" transform="translate(46.39 -458.73)"/><path class="cls-26" d="M-24.62,505.16c-0.69-3.43-2.59-9.22-5.56-11.43,5.72,3.74,5.69,19.26,7.08,25.08-1-4.08-.63-9.27-1.52-13.65C-25.07,502.91-23.71,509.63-24.62,505.16Z" transform="translate(46.39 -458.73)"/><path class="cls-26" d="M-26.44,527.25c-1.35-5.32-1.36-10.46-2.24-15.79,0.74,5.1,1.46,12.67,2.24,15.79C-27.21,524.23-26.36,527.6-26.44,527.25Z" transform="translate(46.39 -458.73)"/><path class="cls-26" d="M-10.14,539.62l-2.35-.62a11.37,11.37,0,0,0,1.13-1.3c-4,0-5.65.43-4,2.53-1.48,1.28-4.63.43-5.64,2.89-0.15.38,1.64-.15,1.46-0.13q-3.77.27-3.07,2.23a8.46,8.46,0,0,1,2.77-.43,10.74,10.74,0,0,0-4.26,2.83c-0.23.25,1.94-.07,2.13-0.07-3.3,1.87-4.26,3.56-1.72,2.86A13.4,13.4,0,0,0-26.54,554q0.81,0.6,1.6-.69a17.09,17.09,0,0,0-2.18,2.28,9.07,9.07,0,0,0,2.1-.61,17.73,17.73,0,0,0-1.6,2.94,13,13,0,0,1,2.1-1.66c-1,1.42-2.39,5.05.38,2.11a25.11,25.11,0,0,0-.55,2.81c-0.08-.84,4.47-6.13,5.08-8.34,0,1.5,1.41-4.91,1.41-4.8,0.26,0.88,1.95-2.93,3.47-2-6-3.67,2.39.1,1.8-2a3.11,3.11,0,0,0-3.32-1,10.39,10.39,0,0,1,3.8-1.76c0.43-.75-2.6,0-2.36-0.08a47.84,47.84,0,0,1,4.66-1.51h0Z" transform="translate(46.39 -458.73)"/></g></g></svg>