<svg id="Layer_1" data-name="Layer 1" xmlns="http://www.w3.org/2000/svg" viewBox="0 0 309.8 213.65"><defs><style>.cls-1{opacity:0.2;}.cls-2,.cls-3,.cls-4,.cls-5,.cls-6{fill-rule:evenodd;}.cls-3{fill:#1d2e2f;}.cls-4{fill:#556566;}.cls-5{fill:#c02a11;}.cls-6{fill:#fff;}</style></defs><title>anim_63</title><g id="shape" class="cls-1"><path class="cls-2" d="M1805,2502.38c22.28-11.78,61.77-37.69,62.82-73.72,1.46-50.27-80.81,54.23-82.88,54.68-1.46.32,1.68,13.14,3.66,20.71-2.26,6.16-5,16.32-5,16.32s52.11,47.27,96.5,23.39C1915.62,2524.61,1837.94,2508.73,1805,2502.38Zm-127.57-2.87a0.48,0.48,0,0,1-.16.09c1.63-6.74,3.07-13.84,2-14.08-2.07-.45-84.34-105-82.88-54.68,1,35.08,38.46,60.55,61,72.75-35.44,7-102.38,22.14-68.88,40.16,44.39,23.88,96.5-23.39,96.5-23.39S1678.84,2497.94,1677.41,2499.5Z" transform="translate(-1579.36 -2414.98)"/></g><g id="shape-2" data-name="shape"><path class="cls-3" d="M1698.44,2615.39c-9.31-2-7.57-6.49-9.83-.65-1.68,4.34-1.23,11,10.22,13.51a13.47,13.47,0,0,0,7-.17c7.73-1.47,9.5-9.33,9.5-9.33s-2.65-.45-8.88-1.23C1704.23,2616.82,1701.52,2616.06,1698.44,2615.39Zm74.13-.65c-2.25-5.84-.52-1.38-9.83.65-3.08.67-5.79,1.43-8,2.14-6.24.78-8.88,1.23-8.88,1.23s1.77,7.86,9.5,9.33a13.47,13.47,0,0,0,7,.17C1773.8,2625.75,1774.24,2619.08,1772.57,2614.74Z" transform="translate(-1579.36 -2414.98)"/></g><g id="shape-3" data-name="shape"><path class="cls-4" d="M1777,2468.71a17.29,17.29,0,0,0,.47-4c0-11.16-10.69-20.21-23.88-20.21a26.78,26.78,0,0,0-14,3.84,49.74,49.74,0,0,0-6.2-.39h0a50.07,50.07,0,0,0-11.49,1.35,25.52,25.52,0,0,0-15.14-4.79c-12.68,0-23,8.64-23,19.29a16.76,16.76,0,0,0,2.47,8.7c-21.31,24.38-33.63,62.52-30.29,93.65a84.72,84.72,0,0,0,3.93,19.6c8.74,26,41.11,37.93,73.49,37.14,32.38,0.79,64.75-11.14,73.49-37.14a84.73,84.73,0,0,0,3.93-19.6C1814.29,2533.37,1800.42,2492.78,1777,2468.71Z" transform="translate(-1579.36 -2414.98)"/></g><g id="shape-4" data-name="shape"><path class="cls-5" d="M1808.74,2531.5c-9.48,25.36-42.42,37-75.4,36.23-33,.78-65.92-10.87-75.4-36.23a113.75,113.75,0,0,0-2,34.67,84.71,84.71,0,0,0,3.93,19.6c7.43,22.08,31.89,34,58.94,36.62a220.93,220.93,0,0,0,29.07,0c27.06-2.6,51.54-14.53,59-36.62a84.72,84.72,0,0,0,3.93-19.6A113.76,113.76,0,0,0,1808.74,2531.5Z" transform="translate(-1579.36 -2414.98)"/></g><g id="shape-5" data-name="shape"><path class="cls-3" d="M1735.18,2479.46c0-4.08-2.14-7.38-4.78-7.38h-1.91c-2.64,0-4.78,3.31-4.78,7.38,0,0,.85,12.45.85,38.4s1.51,41.29,3.78,41.47,4.34-15,5.71-41.47C1735.77,2484.56,1735.18,2479.46,1735.18,2479.46Z" transform="translate(-1579.36 -2414.98)"/></g><g id="Elipsa_18" data-name="Elipsa 18"><path class="cls-6" d="M1753.55,2448.2c-10.15,0-18.37,7-18.37,15.62s8.23,15.62,18.37,15.62,18.37-7,18.37-15.62S1763.7,2448.2,1753.55,2448.2Zm-45.93,0c-10.15,0-18.37,7-18.37,15.62s8.23,15.62,18.37,15.62,18.37-7,18.37-15.62S1717.77,2448.2,1707.62,2448.2Z" transform="translate(-1579.36 -2414.98)"/></g><g id="shape-6" data-name="shape"><path class="cls-3" d="M1749,2455.55c-3.55,0-6.43,3.29-6.43,7.35s2.88,7.35,6.43,7.35,6.43-3.29,6.43-7.35S1752.51,2455.55,1749,2455.55Zm-36.75,0c-3.55,0-6.43,3.29-6.43,7.35s2.88,7.35,6.43,7.35,6.43-3.29,6.43-7.35S1715.77,2455.55,1712.21,2455.55Z" transform="translate(-1579.36 -2414.98)"/></g></svg>