<svg xmlns="http://www.w3.org/2000/svg" xmlns:xlink="http://www.w3.org/1999/xlink" viewBox="0 0 450.34 327.76"><defs><style>.cls-1{isolation:isolate;}.cls-2{fill:#ed9200;}.cls-3{fill:#cc6225;}.cls-12,.cls-13,.cls-17,.cls-20,.cls-31,.cls-39,.cls-4{fill:#fffdff;}.cls-4{opacity:0.27;}.cls-12,.cls-13,.cls-17,.cls-20,.cls-39,.cls-4{mix-blend-mode:overlay;}.cls-15,.cls-21,.cls-5{opacity:0.37;}.cls-15,.cls-16,.cls-18,.cls-19,.cls-21,.cls-27,.cls-28,.cls-29,.cls-34,.cls-36,.cls-37,.cls-40,.cls-5,.cls-9{mix-blend-mode:multiply;}.cls-18,.cls-21,.cls-6{fill:#dd9324;}.cls-7{fill:#f4f4f4;}.cls-8{fill:#dddede;}.cls-9{opacity:0.72;}.cls-10,.cls-30{fill:#fba51e;}.cls-11{fill:#1a171b;}.cls-12{opacity:0.19;}.cls-13{opacity:0.23;}.cls-14,.cls-15,.cls-29{fill:#fba41e;}.cls-16{opacity:0.7;}.cls-17{opacity:0.45;}.cls-18,.cls-27,.cls-34{opacity:0.49;}.cls-19,.cls-28,.cls-36{fill:#cf7f23;}.cls-19{opacity:0.46;}.cls-20{opacity:0.16;}.cls-22,.cls-26{fill:#feffff;}.cls-22,.cls-31{opacity:0.85;}.cls-23{fill:#130e0a;}.cls-24{fill:url(#radial-gradient);}.cls-25{fill:url(#radial-gradient-2);}.cls-27{fill:url(#radial-gradient-3);}.cls-28,.cls-39{opacity:0.57;}.cls-29{opacity:0.55;}.cls-30{stroke:#cc6225;stroke-linecap:round;stroke-linejoin:round;stroke-width:0.7px;}.cls-32{fill:url(#radial-gradient-4);}.cls-33{fill:url(#radial-gradient-5);}.cls-34{fill:url(#radial-gradient-6);}.cls-35{fill:none;}.cls-37{fill:#cac9cb;}.cls-37,.cls-40{opacity:0.9;}.cls-38{fill:url(#radial-gradient-7);}.cls-40{fill:#e5e4e5;}.cls-41{fill:url(#radial-gradient-8);}.cls-42{fill:url(#radial-gradient-9);}.cls-43{fill:url(#radial-gradient-10);}.cls-44{fill:url(#radial-gradient-11);}.cls-45{fill:url(#radial-gradient-12);}.cls-46{fill:url(#radial-gradient-13);}.cls-47{fill:url(#radial-gradient-14);}.cls-48{fill:url(#radial-gradient-15);}.cls-49{fill:url(#radial-gradient-16);}.cls-50{fill:url(#radial-gradient-17);}.cls-51{fill:url(#radial-gradient-18);}.cls-52{fill:url(#radial-gradient-19);}.cls-53{fill:url(#radial-gradient-20);}.cls-54{fill:url(#radial-gradient-21);}.cls-55{fill:url(#radial-gradient-22);}.cls-56{fill:url(#radial-gradient-23);}.cls-57{fill:url(#radial-gradient-24);}.cls-58{fill:url(#radial-gradient-25);}</style><radialGradient id="radial-gradient" cx="2354.71" cy="-86.98" r="7.05" gradientTransform="matrix(0.7, 0.13, -0.12, 0.66, -56.83, 48.79)" gradientUnits="userSpaceOnUse"><stop offset="0" stop-color="#c36800"/><stop offset="0.87" stop-color="#884434"/><stop offset="1" stop-color="#5d2e23"/></radialGradient><radialGradient id="radial-gradient-2" cx="2354.96" cy="-86.95" r="4.68" gradientTransform="matrix(0.7, 0.13, -0.12, 0.66, -56.83, 48.79)" gradientUnits="userSpaceOnUse"><stop offset="0" stop-color="#48484a"/><stop offset="0.38" stop-color="#363434"/><stop offset="1" stop-color="#1c1612"/></radialGradient><radialGradient id="radial-gradient-3" cx="1595.67" cy="279.19" r="4.59" gradientTransform="translate(-19.71 13.39) scale(1.02 1.03)" gradientUnits="userSpaceOnUse"><stop offset="0" stop-color="#c36800"/><stop offset="1" stop-color="#884434"/></radialGradient><radialGradient id="radial-gradient-4" cx="1390.66" cy="-760.06" r="8.38" gradientTransform="matrix(0.83, 0.52, -0.65, 0.67, -10.83, 87.36)" xlink:href="#radial-gradient"/><radialGradient id="radial-gradient-5" cx="1390.31" cy="-760.77" r="5.99" gradientTransform="matrix(0.83, 0.52, -0.65, 0.67, -10.83, 87.36)" gradientUnits="userSpaceOnUse"><stop offset="0" stop-color="#4e4e50"/><stop offset="0.43" stop-color="#373434"/><stop offset="1" stop-color="#1c1612"/></radialGradient><radialGradient id="radial-gradient-6" cx="1628.63" cy="280.82" r="7.74" xlink:href="#radial-gradient-3"/><radialGradient id="radial-gradient-7" cx="1510.77" cy="-357.86" r="10.64" gradientTransform="matrix(0.94, 0.39, -0.38, 0.96, 42.95, 91.67)" xlink:href="#radial-gradient-2"/><radialGradient id="radial-gradient-8" cx="1611.74" cy="319.29" r="0.1" gradientTransform="translate(-19.71 13.39) scale(1.02 1.03)" xlink:href="#radial-gradient-2"/><radialGradient id="radial-gradient-9" cx="1613.59" cy="318.67" r="0.1" gradientTransform="translate(-19.71 13.39) scale(1.02 1.03)" xlink:href="#radial-gradient-2"/><radialGradient id="radial-gradient-10" cx="1609.45" cy="320.29" r="0.1" gradientTransform="translate(-19.71 13.39) scale(1.02 1.03)" xlink:href="#radial-gradient-2"/><radialGradient id="radial-gradient-11" cx="1588.07" cy="320.89" r="0.1" gradientTransform="translate(-19.71 13.39) scale(1.02 1.03)" xlink:href="#radial-gradient-2"/><radialGradient id="radial-gradient-12" cx="1588.42" cy="318.47" r="0.1" gradientTransform="translate(-19.71 13.39) scale(1.02 1.03)" xlink:href="#radial-gradient-2"/><radialGradient id="radial-gradient-13" cx="1586.55" cy="316.83" r="0.1" gradientTransform="translate(-19.71 13.39) scale(1.02 1.03)" xlink:href="#radial-gradient-2"/><radialGradient id="radial-gradient-14" cx="1588.63" cy="317.52" r="0.1" gradientTransform="translate(-19.71 13.39) scale(1.02 1.03)" xlink:href="#radial-gradient-2"/><radialGradient id="radial-gradient-15" cx="1586.11" cy="319.37" r="0.1" gradientTransform="translate(-19.71 13.39) scale(1.02 1.03)" xlink:href="#radial-gradient-2"/><radialGradient id="radial-gradient-16" cx="1586.34" cy="320.84" r="0.1" gradientTransform="translate(-19.71 13.39) scale(1.02 1.03)" xlink:href="#radial-gradient-2"/><radialGradient id="radial-gradient-17" cx="1611.42" cy="322.37" r="0.1" gradientTransform="translate(-19.71 13.39) scale(1.02 1.03)" xlink:href="#radial-gradient-2"/><radialGradient id="radial-gradient-18" cx="1610.24" cy="322.25" r="0.1" gradientTransform="translate(-19.71 13.39) scale(1.02 1.03)" xlink:href="#radial-gradient-2"/><radialGradient id="radial-gradient-19" cx="1608.97" cy="319.37" r="0.1" gradientTransform="translate(-19.71 13.39) scale(1.02 1.03)" xlink:href="#radial-gradient-2"/><radialGradient id="radial-gradient-20" cx="1610.96" cy="320.41" r="0.1" gradientTransform="translate(-19.71 13.39) scale(1.02 1.03)" xlink:href="#radial-gradient-2"/><radialGradient id="radial-gradient-21" cx="1610.61" cy="319.02" r="0.1" gradientTransform="translate(-19.71 13.39) scale(1.02 1.03)" xlink:href="#radial-gradient-2"/><radialGradient id="radial-gradient-22" cx="1609" cy="321.33" r="0.13" gradientTransform="translate(-19.71 13.39) scale(1.02 1.03)" xlink:href="#radial-gradient-2"/><radialGradient id="radial-gradient-23" cx="1589.95" cy="321.04" r="0.13" gradientTransform="translate(-19.71 13.39) scale(1.02 1.03)" xlink:href="#radial-gradient-2"/><radialGradient id="radial-gradient-24" cx="1590.01" cy="318.79" r="0.13" gradientTransform="translate(-19.71 13.39) scale(1.02 1.03)" xlink:href="#radial-gradient-2"/><radialGradient id="radial-gradient-25" cx="1613.26" cy="322.37" r="0.1" gradientTransform="translate(-19.71 13.39) scale(1.02 1.03)" xlink:href="#radial-gradient-2"/></defs><title>anim_97</title><g class="cls-1"><g id="Layer_1" data-name="Layer 1"><path class="cls-2" d="M1624.33,361.37c-1.84,18.73,6.14,35.49,1.6,54.41-3.73,15.57-8.69,30.89-13,46.3-1.59,5.64-2.4,13.52-6,18.19-4.32,5.56-11.33,5.07-16.39,8.71-15.79,11.34,10.93,31.12,23.48,17.48,2.56-2.79,1.36-6.24,3.29-9s5.12-2.94,6.56-6.33c1.9-4.47.49-14.21,1.31-19.22,2.88-17.6,7.34-40.55,21.7-52.55,5.79-4.84,10.78-7.68,12.09-16,1.63-10.34-4-11.49-9.57-18-5.37-6.27-4.43-16.89-9.67-22.48C1635.68,358.63,1629.84,360.39,1624.33,361.37Z" transform="translate(-1561.83 -196.49)"/><path class="cls-3" d="M1623.51,361.59c-1.3,15.86,4.23,31.35,2.78,47.18-0.8,8.74-3.72,17.4-6.13,25.81s-4.91,16.61-7.29,24.94c-1.75,6.14-2.37,13.1-5.42,18.78-3.24,6-9.24,6.67-14.91,9.29-9.28,4.28-9.72,13.79-1.76,19.71a19.2,19.2,0,0,0,17,3.12c4.46-1.31,7.91-4,8.87-8.7,0.68-3.38,1.62-5,4.35-7.07s3.94-3.68,4.41-7c0.88-6.18-.09-12.41,1-18.6s2.28-12.59,4-18.76c3.39-12.45,8.72-24.2,18.9-32.49,5.51-4.49,10.09-8.77,10.7-16.29,0.56-6.89-3.52-9.92-7.92-14.38-5.49-5.57-5.79-12.57-8.56-19.48-3.48-8.7-10.38-8-18.32-6.51-0.56.1-1.09,0.34-1.64,0.44,6.21-1.16,13-2.75,16.9,3.56,3.21,5.13,3.27,11.6,5.92,17,2.34,4.76,7,7.25,10,11.45,3.23,4.53,2.39,11.2-.14,15.89-2.67,4.93-7.73,7.75-11.7,11.47a48,48,0,0,0-10,14.11c-5.45,11.13-8,23.62-9.91,35.78-0.92,5.74.08,11.55-.74,17.28-0.87,6.13-7.25,7-8.52,12.73s-4.49,9.69-10.7,10a19.29,19.29,0,0,1-11.76-3.71c-6.64-4.7-8.88-13.14-1.5-18.38,4.74-3.37,11.21-3.34,15.43-7.61s5-11.13,6.35-16.75c4.12-17.32,11.05-34,14.23-51.57,3.12-17.26-3.59-34.36-2.16-51.68C1625.13,361.33,1623.53,361.39,1623.51,361.59Z" transform="translate(-1561.83 -196.49)"/><path class="cls-3" d="M1595.71,509.59c-0.47-4-.86-6.82,1.72-9.92,0.79-.95,8.18-4.28,8.85-3.89-3.11-1.83-10.65,4.49-11.54,6.8S1595.67,509.31,1595.71,509.59Z" transform="translate(-1561.83 -196.49)"/><path class="cls-3" d="M1590.89,506.37c-0.52-5.69,1.49-13.22,9-12.54C1590,492.93,1590.5,501.82,1590.89,506.37Z" transform="translate(-1561.83 -196.49)"/><path class="cls-3" d="M1587.47,500.62c1.06-10.58,5.27-5.11,10.62-10.73-2,2.1-7.55.65-10,4.47C1586.76,496.38,1587.47,500.61,1587.47,500.62Z" transform="translate(-1561.83 -196.49)"/><path class="cls-3" d="M1614.15,502.76a8.8,8.8,0,0,1,4.56-6.58A8.15,8.15,0,0,0,1614.15,502.76Z" transform="translate(-1561.83 -196.49)"/><path class="cls-4" d="M1631.81,401.68c8.75-1.38-4.22,30.09-6,35.53-2.36,7.06-4.69,14.19-6.49,21.42-1.65,6.64-1.76,16.22-6.87,21.21-7.93,7.75-.75-7,0.26-10.09,2.4-7.42,4.38-15.07,6.39-22.61C1620,443.81,1630.06,401.46,1631.81,401.68Z" transform="translate(-1561.83 -196.49)"/><path class="cls-4" d="M1588.27,491.65c1.09-.59,9-2.69,9.1-3.92C1597.53,486.08,1588.86,490.8,1588.27,491.65Z" transform="translate(-1561.83 -196.49)"/><path class="cls-4" d="M1590.55,493.19c1.62,2,11,1.4,11.79-2.63C1603,487.12,1591.3,492.55,1590.55,493.19Z" transform="translate(-1561.83 -196.49)"/><path class="cls-4" d="M1593.78,496.48c0.4,5.47,9.83-2.85,10.45-2.64C1601.31,492.88,1596.1,494.78,1593.78,496.48Z" transform="translate(-1561.83 -196.49)"/><path class="cls-4" d="M1600.62,498.22a3.9,3.9,0,0,0-3,2.32c-0.55,5,12.7-2.43,13.88-4.84C1611.85,494.92,1601.37,497.74,1600.62,498.22Z" transform="translate(-1561.83 -196.49)"/><g class="cls-5"><path class="cls-6" d="M1644.86,378c-1.68-5-2.67-14.59-7.64-17.47-1.65-1-8-.52-9.59.32-4.18,2.21-3.5-.58-3.65,6.32,8.14-4.53,10.08,14.77,12.63,19.11,0.75,1.27,5.9,6.45,5.66,7.81-0.51,2.93-4.65,2-7.18,4,2.42-1.94,6.68,4.9,7,6.46,1.25,6.2-5.9,14.58-8.1,20.36-5.35,14-8.09,29.22-10.78,43.95-2.08,11.44-3.64,23.25-12.44,31.84-2.45,2.38-15.17,7.41-14.57.51,0.49-5.59,10.34-4.11,13.28-6.66-0.94.82-19.4,5.12-19.13,6-1.36-4.14,10.58-6.58,12.77-7.71-1.31.68-15.26,4.74-15.63,3.86-2.2-5.12,9.82-7.56,12.56-7.56-2.31,0-12.93,3.44-13,2.95-4.83,6.27,2.49,15.44,8.25,17.63,8.94,3.39,16.14-.91,21-7.48,0.35-.47,3.56-6.38,3.93-7.1,2-3.89,2.28-3.55,3.33-8.19,1.69-7.47,1.47-15.67,3.12-23.29,4-18.33,9.22-34,23.17-46.3,6-5.32,11.85-12.85,8.88-21.73-2.51-7.49-11.23-9.69-13.9-17.6h0Z" transform="translate(-1561.83 -196.49)"/></g><path class="cls-2" d="M1807.88,399c3.95,12.08,12.71,22.74,21.32,31.77,6.13,6.43,18.78,14.59,20.3,24.15,1.44,9-7.61,18.59-11.88,25.77-5,8.43-6.62,10-16.81,10.91-7.16.65-15.33,1.79-14,11.52,1,7.19,10.6,10.32,17,9.21,6.17-1.06,14.95-9.42,18.92-14.11,8.68-10.26,14-23.59,23-34,4.14-4.76,7.19-7.21,5.56-12.65-1.45-4.84-6.78-10-9.11-14.65a87.37,87.37,0,0,1-8.47-27.62c-1.43-10.66-2.34-9.83-12.69-11.06C1838.49,398,1806.71,396.17,1807.88,399Z" transform="translate(-1561.83 -196.49)"/><path class="cls-3" d="M1807.06,399.26c4.87,14.08,15,26.45,26,36.25,5.37,4.77,12.1,9.81,14.77,16.74,3.07,8-2.35,15.7-6.72,22-3.3,4.77-6.34,12.54-11.8,15.13-5.28,2.5-11.61,1.23-17.07,3.27-9.15,3.41-7.73,14.83.38,18.67,10,4.73,18.56-.83,25.8-7.65,11.5-10.83,17-25.9,26.94-37.95,3.33-4,8.26-7.83,6.94-13.64-0.7-3.07-2.66-5.73-4.46-8.24a60.33,60.33,0,0,1-6.74-11.23c-3.59-8.21-5.41-16.64-6.82-25.43-0.47-3-.87-6.37-3.79-7.88-5-2.62-44.08-3.56-43.46,0,0.12,0.7,1.77.29,1.64-.44s20.4-.64,22.07-0.57c3,0.12,6,.23,9,0.49s7.61,0,10.13,1.82c3.46,2.46,3.09,9.85,3.76,13.47a86.28,86.28,0,0,0,7,21.5c2.65,5.52,7.65,9.91,9.69,15.67,2.55,7.2-5.51,12.79-9.29,18-7.61,10.55-12.82,22.8-22,32.16-4.7,4.77-10.95,10.74-18.1,10.63-6.15-.1-13-3.59-13.31-10.34-0.56-12.36,16.63-7.62,23.77-12.12,3.25-2,5.11-5.58,7.06-8.75,3.22-5.22,7.25-10,9.87-15.54,5.84-12.39-2.92-21-11.79-28.8-11.66-10.3-22.63-22.74-27.79-37.65C1808.46,398.12,1806.82,398.58,1807.06,399.26Z" transform="translate(-1561.83 -196.49)"/><path class="cls-3" d="M1813.86,509.91c0.74-10.48,5.74-4.51,10.06-9.24-0.88,1-6.6-.23-8.66,1.89C1813.42,504.46,1813.84,510.17,1813.86,509.91Z" transform="translate(-1561.83 -196.49)"/><path class="cls-3" d="M1816.2,496.89c-6,1.36-7.44,3.74-7.46,10.09C1808.78,502.33,1811.62,497.93,1816.2,496.89Z" transform="translate(-1561.83 -196.49)"/><path class="cls-3" d="M1807.52,497.79c1.36-3.79,8.65-4.61,11.5-4.06C1812.31,492.41,1808.79,494.29,1807.52,497.79Z" transform="translate(-1561.83 -196.49)"/><g class="cls-5"><path class="cls-6" d="M1853,399.55c-11.11-3.65-26.28-4.45-37.84-3.42-2.81.25-6.27-.24-7.2,2.43-1.57,4.52,9.8,17.92,12.05,20.84-1.47-6.77,2.86-4.49,6.31-5.17,0.72-.14,1.88,2,2.73,2,1.4,0.06,2.24-2.86,3.41-2.86,7.64,0,13.38,3.47,16.61,9.86,4.11,8.15,5.44,15.4,12.4,22.09,1.52,1.46,6.75,4.19,6.6,6.58-0.12,2-8.31,5.46-7.4,6.92,0.59,0.95,4.84-.72,4.88-0.56,0.25,1-12.32,15.33-13.32,17.08-3.54,6.16-5.85,13.58-11,18.62-2.56,2.48-5.78,4-8.35,6.61-3.28,3.33-3,6.41-8.13,8.08-9,2.91-14.71-7.06-3.67-7.77,0.47-.48-12.85,5.17-9.88,5.84-4.43-1-.5-8.47,2-9.07a4.28,4.28,0,0,1-3.25.58c-2.15-1.74,2.74-4.41,3.24-4.57-6.84-1.18-8.79,10.53-2.47,15.38,7.59,5.83,17,1.59,22.93-3.61,10.21-9,14.71-19.53,22.69-30.9,3.64-5.19,15.18-13.45,15.72-19.45,0.32-3.56-.71-3.19-2.47-6.79-8.08-16.53-15.88-29.45-16.59-48.79C1845.14,397,1854.27,434.12,1853,399.55Z" transform="translate(-1561.83 -196.49)"/></g><path class="cls-7" d="M1744.5,410.39c12.4,6.92,26.06-9.08,39-3.61-1.4,0-4.85-3.65-7.78-3.09,2.23-.43,11.67,2.5,11.82,2.41,0.58-.34-2.81-3.45-3.58-3.35,1.09-.14,7.91,1.89,7.94,1.83a2.68,2.68,0,0,0-2.06-2.45c3.16,0.8,6.45,1.81,9.89,1.81-1.43,0-4.39-2.81-4.82-4.13,1,1,10.23,4.82,11.24,3.2,0.47-.75-4.31-3-4.9-3.2,3.76,1.36,11,3.94,14.94,2.47,0.45-.16-3.4-2.59-3.28-2.47,0.47,0.48,10.77,2.67,10.74,2.37-0.13-1.26-3-2.63-3.64-3.66,1.24,2.1,9.81,4.47,11.92,4.64-0.28.14-3.33-4.32-3.5-4.4,0.86,0.39,16.91,9.09,16.29,7.4-0.56-1.52-3.53-3.35-4.93-4,0.82,0.6,9.28,4.63,9.15,2.26-0.08-1.52-3.86-3.58-5.1-4.06,1.72,1,13.16,4.62,13.84,2,0.14-.53-6.33-2.09-7-2.54,2.73,1.85,14,.78,15.18-2.53,1.44-3.87-4.9-13.1-6.51-16.15-3.27-6.16-6.66-13-11-18.49-4-5.18-2-4.39-8.36-3.36-15.27,2.48-29.72,14.4-42.14,22.81C1781.83,393,1763.88,406.32,1744.5,410.39Z" transform="translate(-1561.83 -196.49)"/><path class="cls-8" d="M1743.86,410.85c13.39,6.7,25.77-8.51,39.2-3.54l1-1.08c-3-.77-4.83-3.22-8.18-3.13l-0.15,1.17c4-.31,7.75,1.87,11.61,2.41a1,1,0,0,0,1.12-.65c0.12-1.54-2.62-3.44-3.93-3.83l-0.76,1.12c2.71,0.08,5.3,1.31,7.94,1.83,0.4,0.08,1.26-.27,1.11-0.8a3.53,3.53,0,0,0-2.25-2.69l-1.11,1a48.36,48.36,0,0,0,10.08,1.85c0.53,0,1.76-.89.76-1.12a7.5,7.5,0,0,1-4.54-3.94l-1.39.82c2.12,1.67,8.82,5,11.51,3.59,3.33-1.73-2.41-3.89-4.06-4.59l-1,1.08c4.83,1.74,10.39,3.87,15.56,2.47a0.77,0.77,0,0,0,.67-0.77c-0.28-1.14-2.49-2.19-3.47-2.71-0.61-.33-2.06.5-1.27,0.93,2.39,1.31,8.82,3.13,11.52,2.45,0.26-.06.85-0.41,0.67-0.77-0.83-1.73-2.42-2.39-3.71-3.8-0.47-.52-2,0.07-1.5.71,2.59,3.15,8.51,4.38,12.38,4.87,0.43,0.05,1.68-.61.92-1-1.45-.85-2.28-3.05-3.39-4.29l-1.39.82c3.5,1.72,6.9,3.63,10.41,5.32,1.44,0.69,5.14,3.25,6.88,2.22a0.76,0.76,0,0,0,.47-0.53c-0.06-2-3.68-3.8-5.13-4.57-0.58-.3-2.07.43-1.27,0.93,1.95,1.22,7.37,4.38,9.67,2.93,3.16-2-3-5.06-4.5-5.74-0.55-.24-1.87.62-1.11,1,2.74,1.41,13.12,5.62,15.25,1.65a0.42,0.42,0,0,0,0-.44c-1.37-1.8-5.29-1.82-7.27-2.73-0.54-.25-1.87.6-1.11,1,3.94,2.09,15.63,1.78,16.82-3.8,0.85-4-3.11-9.45-5-12.67-3.25-5.55-6-11.39-9.43-16.82-1.54-2.41-4.31-8.29-7.47-9-1.25-.29-3.26.44-4.42,0.65a55,55,0,0,0-9.18,2.44c-13.73,5.08-25.43,14.8-37.4,23-15.41,10.53-31.13,21.67-49.65,25.81-1,.23-0.72,1.32.29,1.09,30.3-6.77,52.12-30.58,78.65-44.89a63,63,0,0,1,10.86-4.75c2.41-.76,7.14-2.67,9.74-2.14,2.28,0.46,4.5,4.73,5.71,6.48a105.06,105.06,0,0,1,6,10c2.85,5.3,6.51,10.62,8.69,16.23,1.44,3.71,1.14,6.5-3.37,7.63-2.84.71-6.85,1.22-9.52-.19l-1.11,1c1.21,0.56,2.54.79,3.8,1.24,2.28,0.81,2.54,1.26-.15,1a28.72,28.72,0,0,1-9.38-2.69l-1.11,1a11.38,11.38,0,0,1,3.29,1.9c3,3-.2,1.49-1.46,1.06a23,23,0,0,1-4.77-2.16l-1.27.93a16.86,16.86,0,0,1,4.35,3.14c0.31,0.32.58-.1-0.47-0.51-2-.76-3.83-1.74-5.7-2.67-2.77-1.38-5.49-2.89-8.27-4.26-0.42-.21-2,0.16-1.39.82,1.19,1.35,2,3.59,3.62,4.51l0.92-1c-3.38-.43-9.2-1.69-11.45-4.42l-1.5.71c0.59,0.65,4,3.56,4.24,2.73a22.68,22.68,0,0,1-2.83-.5c-2.15-.42-5.15-0.68-7.13-1.76l-1.27.93a8,8,0,0,1,2.14,1.39c1,1.23-1.39.5-2.74,0.35a44.36,44.36,0,0,1-9.95-2.74c-0.67-.24-1.92.67-1,1.08,2.85,1.21,5.26,3.09.7,1.65a18.75,18.75,0,0,1-5.93-2.66c-0.5-.39-1.74.12-1.39,0.82a8.36,8.36,0,0,0,5.09,4.31l0.76-1.12a47,47,0,0,1-9.7-1.77c-0.47-.12-1.95.59-1.11,1l1.88,2.2,1.11-.8c-2.63-.52-5.23-1.75-7.94-1.83-0.52,0-1.77.83-.76,1.12,0.85,0.25,3.31,1.76,3.22,2.88l1.12-.65c-4-.56-7.89-2.74-12-2.41-0.91.07-1.28,1.2-.15,1.17,3-.07,4.71,2.37,7.38,3,0.64,0.16,2-.71,1-1.08-13.42-5-26,10.11-38.88,3.69C1744.52,409.61,1743.07,410.46,1743.86,410.85Z" transform="translate(-1561.83 -196.49)"/><g class="cls-9"><path class="cls-7" d="M1844.89,357.77c-1,0-15.47,5.16-25.35,10.06s-50.45,37.4-75,42.56c0,0,4.06,3.35,14.7,0s17-6.71,24.34-3.61c2,0-4.56-3.35-7.35-3.1s7.1-1.29,10.14,1.55,0-2.06-2-2.32,3.29-.52,6.08,1.29c2.48,1.6,1.75-.87.13-1.8a37.48,37.48,0,0,0,9.25,1.54c-1.52,0-4.56-3.35-4.82-4.13-0.25-.26,4.56,2.84,9.63,3.35s-3.3-3.35-3.3-3.35a42,42,0,0,0,12.17,2.58c6.34,0.26.76-1.29-.51-2.58s5.07,2.06,9.63,2.58c3.3,0.52-1.78-2.58-2.54-3.87s5.58,4.13,11.92,4.64c0.51-.26-2.28-2.06-3.55-4.12s7.6,6.71,15.72,7.48c2.35,0.22-2.3-3-3.84-4.07,1.22,0.78,4.59,2.73,7.64,2.52s-1.69-3.25-3.45-4.29a20.93,20.93,0,0,0,11.82,2c4.82-.26-4.06-1.81-5.58-2.84s9.13,1.55,14.45-.77S1845.9,357.77,1844.89,357.77Zm5.2,33.47c-3-2.32-.57,1.55,1.33,2.71s1.52,0.77-1.71.77c-4,0-8.56-.39-6.08.58s8.56,1.55,4.56,2.51-10.65-1.55-8.56-.77,5.32,4.45,2.47,4.06a21.1,21.1,0,0,1-5.64-2.31c1.72,1.93,2.52,4.72-2,1.93-5.89-3.68-12.93-6.38-11.6-5.61s4,5,1,3.09-9.32-3.68-6.85-2.71,4.37,4.84.76,3.48a66.24,66.24,0,0,0-10.46-2.32s7,2.52,2.66,3.1c-3.44.46-9.23-1.72-11-2.48,1.26,0.86,3.19,3.56,0,2.87-3.61-.78-9.13-4.26-8-2.52s5.7,5,.76,3.29-7.8-1.36-5.13-.58-6.85,1-4.56,1,3.61,1-2.28,1.16a19.86,19.86,0,0,0-10.27,3.48s4.37-3.48,14.45-8.13a65,65,0,0,1,11.41-4.06c8.94-2.32,7-8.12,19.4-11.41s0-2.52,5.32-3.87,6.46-2.32,3.61-2.71,1.52-1.74,4.56-.77,0.38-2.32-.57-2.52,1.33-1.55,5.89,2.71-2.28-5.61,2.09-2.13,0-3.68,2.47-1.94,4.37-.78,8.37,7.16,5.32,11.61,7.79,14.51S1853.13,393.56,1850.09,391.23Z" transform="translate(-1561.83 -196.49)"/></g><path class="cls-3" d="M1638.51,399c1.43,0.14,15.25,2.56,15.62,2.3C1656.71,399.47,1638.26,398.94,1638.51,399Z" transform="translate(-1561.83 -196.49)"/><path class="cls-10" d="M1976.72,261.42c-8-8-17.94-20.23-15.62-32.54,1.71-9.09,17.86-16.73,16.57-25.46C1976.32,194.33,1961,197,1956,201c-7.43,6-8.79,17.65-8.47,26.56,0.85,24,16.17,37.84,32.45,53.2,17.32,16.34,26.91,36.1,12.27,58.18-11.44,17.25-34.72,22.31-51.18,8.78-17.12-14.09-20.18-38.09-34.78-54.15-37-40.68-89.87-3.36-133.37,1-12.6,1.26-25.17,1.63-37.45-1.95-14.08-4.1-26.13-12.85-40.28-16.85-21-5.95-38.79-1.23-57.84,8.34,9.81,0,19.19,18.22,19.22,26,0.05,12.94-2.2,26.65-9.53,37.45-9.17,13.5-17.47,22.64-7.16,39.48a6.73,6.73,0,0,1-.51-3.09,33.17,33.17,0,0,0,8.2,11.94,46.2,46.2,0,0,1-4.27-13.62c0.67,0.68,5.76,4.83,5.67,5.18,1.52-6.16-6.48-17.37,4.27-19.14,4.34-.71,10.88,3.27,14.52,5.13s11.75,9.3,15.59,9c0.76-.05-4.87-7-5.32-7.44,26.74,11.2,38.23,39.2,41.4,66a265.19,265.19,0,0,1,1,44.44c-0.31,5.95-1,9.08-6,13.39-6.17,5.35-20.53,4.74-22.61,13.8-2.56,11.15,18.4,10.53,25.65,10.65,5.63,0.1,11.23-.62,14.3-6.1,1.18-2.11.56-5.28,1.4-7.57,1.84-5,5.71-7.91,5.33-13.55-0.42-6.4-3.14-13-3.29-20-0.13-5.93.12-11.88,0.3-17.81,0.32-10.41-.76-22.33,1.22-32.58,1.54-8,3.12-10.48,9.67-13.07,7.51-3,15.13-5.45,22.51-8.83,18.19-8.33,33-19.87,49.43-31,4.71-3.18,11.41-8.8,17.37-9.28,8.66-.71,10.9,8.09,14.1,14.91,7.11,15.14,14.29,28.19,28.81,37.21,16.32,10.14,37.51,9.76,53.06,19.86,10.85,7,7.88,19.61,7.54,30.92-0.46,15.05-2.38,28.83-19.66,33-6.61,1.59-14.28.15-13.52,9.84,0.69,8.85,6,6.31,11.84,7.06,6.48,0.83,13.52,5.33,20.69,1.24,4.28-2.44,3.3-3.56,5-7.63,0.48-1.14-.08-3.14.5-4.17,0.88-1.55,2.41,0,3.48-1.61a70.14,70.14,0,0,0,6.24-11.17c2.23-5.63,1.11-4.63-.23-12-2.36-13,3.89-24.82,4.49-37.48,0.81-17.12-21.44-16.92-27.71-31.6-7.94-18.58-5.23-42.51-7.9-62.35,17.55,24,56.67,26.26,75.53,3.11,11.35-13.93,16.54-33.84,10.41-51-5.87-16.45-19.67-28.35-31.69-40.31h0Z" transform="translate(-1561.83 -196.49)"/><path class="cls-3" d="M1977.86,260.91c-8-8-19.09-20.76-15.28-33.12,2.64-8.55,13-12.28,15.87-20.71,2.27-6.64-3.34-10.39-9.29-10.57-6.41-.2-13.14,2.13-17.1,7.32-5.73,7.51-6.36,18.21-5.51,27.27,1,10.76,5.47,20.56,12,29.07,13.36,17.38,37.26,30.19,39.54,54.07,2.42,25.39-24.62,48.91-48.94,37.34-20.73-9.86-25-35.61-37.2-52.9C1900.32,282.14,1882,273.59,1862,274c-21,.41-41.15,8.14-61.12,13.86-12.86,3.68-25.71,6.28-39.12,6.75a81.64,81.64,0,0,1-25.53-2.72c-7.78-2.25-15-6-22.24-9.51-12-5.78-24.18-10.16-37.64-10-14,.15-27.13,5-39.5,11.14-0.75.37-1,1.35,0.06,1.42,8.75,0.5,14.76,12,17.18,19.23,3,9,.88,20.67-1.78,29.58-3.26,10.89-11.12,18.57-15.86,28.63-4.13,8.78-2.45,17.05,2.32,25.2,0.44,0.75,2.63.08,2.37-.84a6.73,6.73,0,0,1-.51-3.09l-2.46.66a36.78,36.78,0,0,0,8.29,12.12c0.53,0.53,2.81.1,2.37-.84a52,52,0,0,1-4.27-13.62l-2.37.84c1.72,1.61,4.5,3.12,5.67,5.18,0.44,0.77,2.24.1,2.37-.64,0.6-3.38-.57-6.66-1.11-10-0.3-1.85-.76-4.34.31-6.08,2.75-4.46,9.61-1.13,13,.52a74.21,74.21,0,0,1,10.53,6.5c2.91,2.08,6.25,4.83,10,5a1.82,1.82,0,0,0,1.61-.71c1-1.6-4.26-6.8-5.34-8l-2.1,1.17c30.77,13.35,40.48,47.44,42.2,78.22a264,264,0,0,1-.15,32.45c-0.59,8.67-5.45,13.19-13.41,15.88-5.79,2-21.46,8-13.67,16.8,5.48,6.21,18.25,5.14,25.66,5.12,5.27,0,11-.89,14.31-5.44,1.9-2.59,1.41-5,2.06-7.94,0.85-3.89,3.89-6.8,5.1-10.55,2.29-7.13-2.08-15.52-2.65-22.68-0.83-10.33.31-20.93,0.22-31.3-0.07-8.39-.42-17.65,2.45-25.67s14.46-9.76,21.61-12.53c17.15-6.62,32.27-16.66,47.28-27.11,7.12-5,14.37-11.18,22.23-14.91,10.56-5,14.18,3.79,17.74,11.71,6.08,13.54,13.53,27,25.68,36,13.4,9.93,30.09,11.43,45.37,16.92,8.33,3,16.92,7.14,18.89,16.56,1.52,7.24.21,15.28-.17,22.61-0.32,6.31-1,13-4.06,18.64-4.08,7.42-11.47,9.85-19.36,11.11-3.56.57-7.54,1.42-9.08,5.1-1.66,4-.66,10.56,3.93,12,2.07,0.63,4.38.28,6.51,0.41,4.27,0.26,8.19,2,12.38,2.73,4.89,0.8,11.59,0,14.61-4.57a16.86,16.86,0,0,0,2.23-6.33c0.36-2.39-.18-1.91,1.53-3.15a14.3,14.3,0,0,0,1.8-1c2.28-2.09,4-6,5.34-8.77,1.12-2.23,2.59-5.08,2.62-7.66s-1.09-5.08-1.51-7.53a43.76,43.76,0,0,1,.46-15.29c1.45-7.94,4.71-16.3,4-24.47-1-10.93-12.68-14.75-20.23-20.45-12.88-9.73-13-30-13.64-44.69-0.41-8.86-.59-17.73-1.71-26.53l-2.37.84c15,19.92,44.54,25.45,66,12.86,12.21-7.17,20.3-20.34,23.5-33.92,3.76-16-.63-31.3-10.36-44.24-8-10.61-18.13-19.5-27.51-28.82-0.7-.69-3,0.26-2.27,1l9.8,9.75c0.7,0.69,3-.26,2.27-1l-4.9-4.88c-0.7-.69-3,0.26-2.27,1l4.9,4.88,2.27-1L1973,256l-2.27,1c15.86,15.76,37,32.32,38.92,56.34a55.32,55.32,0,0,1-15.19,41.95c-9,9.22-22.09,13.47-34.85,12.72a48.37,48.37,0,0,1-36-18.94c-0.55-.73-2.49-0.11-2.37.84,2.17,17.12.67,34.68,4.5,51.6,1.37,6.08,3.22,12.48,7.66,17.06,3.6,3.7,8.2,6.17,12.52,8.9,4.63,2.93,9.32,6.38,10.6,12,1.76,7.79-1.84,16.87-3.37,24.45a54.36,54.36,0,0,0-1.3,12c0.09,3.77,1.17,7.21,1.77,10.89,0.52,3.2-.8,6-2.21,8.83-0.86,1.74-1.85,3.41-2.87,5.07a9.46,9.46,0,0,1-2,2.75c-0.86.67-1.13,0.39-1.91,0.85a3.61,3.61,0,0,0-2.06,2.46c-0.93,3.38-.39,7.05-3.56,9.52-5.55,4.32-12.3,1-18.14-.33-2.77-.61-5.44-0.39-8.22-0.68-4.61-.48-6-4.54-5.35-8.89,0.7-4.76,5.08-5,8.94-5.64,5.25-.82,10.45-2.46,14.62-5.88,9.29-7.62,9.11-20.39,9.71-31.33,0.34-6.23,1.29-12.86-.56-19-2-6.65-7.43-10.29-13.46-13.1-14.64-6.82-31.51-7.55-45.61-15.7-14.55-8.41-23.09-22.86-29.91-37.71-2.08-4.52-3.69-10.3-7.85-13.42s-9.52-2.06-13.88,0c-6.79,3.28-13,8.4-19.14,12.68-7.46,5.18-14.87,10.44-22.57,15.26a159.22,159.22,0,0,1-25.21,13.05c-6.86,2.75-15.71,4.38-21.61,9-4.08,3.18-5,8.74-5.69,13.55-1.25,8.58-.72,17.3-0.75,25.94,0,9-1.27,18.37.17,27.36,0.66,4.17,2,8.23,2.5,12.42,0.63,5.14-1.13,8.13-3.5,12.42-1.64,3-1.69,5.26-2.28,8.51-1.22,6.73-8.35,7.57-13.94,7.56a80.34,80.34,0,0,1-14.6-.94c-5.08-1-11.56-3.52-9.32-9.89,2.19-6.22,10.89-7.13,16.25-9.25,4.52-1.79,8.79-4.93,10.72-9.56,1.12-2.67,1.23-5.63,1.37-8.48q0.4-7.73.43-15.47c0.12-29.16-3.52-63-26.4-83.88A60.1,60.1,0,0,0,1679,374.39c-0.55-.24-2.92.23-2.1,1.17,0.65,0.74,5.63,6.3,5.29,6.84l1.61-.71c-5.49-.25-10.48-6.27-15.08-8.9-4.38-2.5-10.06-5.94-15.34-5.27-11.66,1.48-4.38,13-5.65,20.05l2.37-.64c-1.17-2.06-3.95-3.57-5.67-5.18-0.6-.56-2.55-0.21-2.37.84a52,52,0,0,0,4.27,13.62l2.37-.84a35.59,35.59,0,0,1-8.1-11.76c-0.41-1-2.51-.36-2.46.66a6.73,6.73,0,0,0,.51,3.09l2.37-.84c-3.25-5.57-5.55-11.63-4.26-18.15,1-5.26,4.06-9.92,7-14.3,6.85-10.14,11.75-19.52,13.32-31.85,1.17-9.23,1-17-3.41-25.27-3.22-6-8.4-13.22-15.89-13.65l0.06,1.42c12.37-6.14,25.54-11,39.54-10.78,14.31,0.23,26.72,5.9,39.34,12,11.24,5.45,22.42,9.49,35,10.16a130.54,130.54,0,0,0,33.2-2.7c39.2-8.12,88.59-36.07,121.16,1.73,13.82,16,17,39.29,33.82,53.07,13.47,11.05,32.81,10.21,46-.84a42,42,0,0,0,14.49-26.49c1.14-9.87-2.33-19.38-7.83-27.46-12.5-18.37-33.77-29.26-41.19-51.29-3.73-11.08-4.78-26.9,2.13-37.06,3.29-4.84,8.9-7.12,14.66-7,5.56,0.13,10,4,7.46,9.82-3.76,8.6-14.92,12.59-16.08,22.62-1.41,12.25,7.94,23.32,16,31.39C1976.28,262.63,1978.62,261.67,1977.86,260.91Z" transform="translate(-1561.83 -196.49)"/><path class="cls-3" d="M1726.11,366.89c-3.05,4.26,3.34,20.81,5,24.9,1.13,2.74,11.3,22.4,9.65,22.61,2.71-.35-9.37-24.14-10.22-26.66C1729.42,384.37,1725,368.37,1726.11,366.89Z" transform="translate(-1561.83 -196.49)"/><path class="cls-3" d="M1683.32,338.18c-0.87,15.94,1.49,31.49,10.15,44.39C1684.89,369.94,1682.57,352.43,1683.32,338.18Z" transform="translate(-1561.83 -196.49)"/><path class="cls-3" d="M1838.65,322.71c-1.31,4.81.77,48.85,7,47C1841.25,371,1837.82,325.73,1838.65,322.71Z" transform="translate(-1561.83 -196.49)"/><path class="cls-3" d="M1909.54,317.7c1.79,2.67,15.26,31.6,13,32.2C1927.55,348.59,1910.4,319,1909.54,317.7Z" transform="translate(-1561.83 -196.49)"/><path class="cls-3" d="M1719.27,286.2c14.85,12.5,34,24.74,53.5,25.46C1754.41,311,1732.51,297.48,1719.27,286.2Z" transform="translate(-1561.83 -196.49)"/><path class="cls-3" d="M1732.64,403.12c0.85,0.6,9.51,9.6,8.59,9.83C1745.65,411.83,1732.09,402.73,1732.64,403.12Z" transform="translate(-1561.83 -196.49)"/><path class="cls-7" d="M1678.08,375c0.44,0.46,6.08,7.39,5.32,7.44-9.43.62-19-16.51-30.11-14.17-10.76,2.26-2.68,12.68-4.27,19.14,0.09-.35-5-4.5-5.67-5.18,1,6.2,2.81,10.87,6.46,15.22a11.38,11.38,0,0,1-1.77-5.29c2.56,6,6,7.83,10.72,11.35,0.77,0.57,6.87,6.12,7.75,6-0.61.1-2.91-6.28-2.91-7.23,0,2.34,7.2,8.74,10,8.79-0.93,0-3.41-4.51-4-5.48,2.37,3.66,11.68,5.2,12.8,7.48-0.17-.33-4.81-2.46-4.44-3,4.65,3.11,12.68,2.17,16.61,5a2.56,2.56,0,0,1-1.52-1.8c4.58,3.76,14.52,3.66,20,2.35C1706.6,398.13,1695.59,382.39,1678.08,375Z" transform="translate(-1561.83 -196.49)"/><path class="cls-8" d="M1677.32,375.41a33.16,33.16,0,0,1,4.21,5.36c0.88,1.59.67,1.34-1.33,0.61a22.29,22.29,0,0,1-4.93-2.72c-5.36-3.71-10.21-9.22-16.77-10.78-3.71-.88-9.14-0.22-11.09,3.56-2.51,4.86,1.68,11,.76,16.07l1.58-.42c-1.18-2.06-4-3.59-5.67-5.18-0.45-.42-1.71-0.21-1.57.58a32.36,32.36,0,0,0,6.53,15.36c0.45,0.56,1.92,0,1.5-.72a13,13,0,0,1-1.7-5.15l-1.64.44c2.57,5.5,6.45,8,11,11.71,2.28,1.83,5,5.34,8,6,0.47,0.1,1.64-.62.92-1.06-1.5-.92-2.48-5.25-2.72-7l-1.64.44c0.7,3.92,6.77,8.6,10.56,9.16,0.63,0.09,1.65-.71.76-1.13-1.64-.79-2.84-3.81-3.76-5.29l-1.5.72c3.18,4,10,3.58,12.8,7.48l1.39-.83c-0.9-.72-3.91-1.59-4.25-2.72l-1.45.69c5.15,3,11.58,2,16.61,5,0.58,0.35,2-.37,1.27-0.94l-1.33-1.56-1.45.69c5.75,4.13,14.14,3.86,20.76,2.43a0.77,0.77,0,0,0,.67-0.77c-6.55-17.6-17.64-33.3-35.28-41-0.68-.3-1.9.68-1,1.09,11.13,4.85,20,13.12,26.39,23.34a81.17,81.17,0,0,1,4.2,7.58c0.65,1.34,4,6.7,3.48,8-0.82,2.22-6.93,1.44-8.69,1.3a17.84,17.84,0,0,1-9.31-3c-0.38-.27-1.77,0-1.45.69a3.29,3.29,0,0,0,1.71,2.05l1.27-.94c-5.07-3.09-11.45-2.07-16.61-5-0.43-.25-1.67,0-1.45.69,0.48,1.62,3.4,2.24,4.62,3.21,0.46,0.37,1.86-.17,1.39-0.83-2.89-4-9.62-3.44-12.8-7.48-0.44-.56-2,0-1.5.72,1.16,1.87,2.24,4.67,4.31,5.67l0.76-1.13c-3.3-.48-8.88-5-9.49-8.42-0.13-.75-1.75-0.33-1.64.44,0.27,1.92,1.28,6.36,3.09,7.48l0.92-1.06c-2.52-.56-5.16-4.06-7.13-5.65-4.36-3.5-8.34-6-10.8-11.32-0.32-.69-1.75-0.35-1.64.44a14.84,14.84,0,0,0,1.84,5.43l1.5-.72a31.83,31.83,0,0,1-6.4-15.08l-1.57.58c1.72,1.61,4.51,3.15,5.67,5.18,0.33,0.57,1.48.12,1.58-.42,1.07-6-5.3-15.66,2.92-18.24,7.77-2.44,15.1,6.07,20.78,10.12,1.32,0.94,8.88,6,10.53,3.46,1.07-1.66-4.18-6.82-5.25-8C1678.34,374.14,1676.78,374.79,1677.32,375.41Z" transform="translate(-1561.83 -196.49)"/><path class="cls-11" d="M1686.57,363.7c6.74-2.15.47,6.29,0,0h0Z" transform="translate(-1561.83 -196.49)"/><path class="cls-12" d="M1727.64,344.61c1.48,5.2-.17,10.69,2,16.26a36.4,36.4,0,0,0,14.55,17.44c13.91,8.5,29.59,2.52,42.32-5.35,12-7.42,25.31-16.08,33.6-27.75,6.8-9.58,8-22.9,16.45-31.07,15.86-15.27,8.38,4.45,8.1,12.41-0.34,9.37,3.46,20.18,6,29,4.18,14.34,9.79,29.7,20.4,40.63,8.35,8.6,7.38,2.89,4.87-4.79,0.89,2.73,11.11,16.69,13.75,15s-3.64-11.49-1.06-13.34c1.8-1.29,16.68,29.43,20.21,18.45,0.22-.7-14-31.53-10.21-30.71,0.57,0.12,2.6,3,3,2.77,1.43-.86-1.5-12.54-1.57-14.48-0.18-5.25.08-7.46,2.48-11.91,4.36-8.1,8.92-13.19,8.13-23.18-1.87-23.44-21.76-50.7-45.19-55.88-14.92-3.3-28.8,3.21-42.77,7.59-14.84,4.65-29.88,9-45.21,11.71-4.22.75-25.42,0.65-23.14,6.25,1.72,4.23,28.47,12.61,31.49,10-4.64,3.94-22.29,1.18-27.72-.7-14.73-5.1-29.37-14.3-42.14-23.07-10.9-7.48-20.7-13.15-32.56-3.24-10,8.37-8.84,20.57-8.24,32.31,0.89,17.21-9.58,20.28-20.74,31.08-2.94,2.85-16.38,22.24-7.91,19.85,2.21-.62,3.72-5.36,6.43-6.32,7-2.47,8.94,4.78,14.93,5.72,12.35,1.93-.18-18.85,3-18.62,2.22,0.16,1.95,5.92,3,6-1.23-.1,1.54-13.2,1.94-12.88,3.45,2.74,1.74,11,5.1,14.38-3.92-3.92,1.38-33.16,6.55-29.47,2.1,1.5,1.7,13.15,1.95,15.55,0.73,7.18,1.27,14.82,4.05,21.57,2,4.92,5.59,7.45,8.46,10.89,4.42,5.31,7.44,11.4,10.2,17.75a207.08,207.08,0,0,1,9.73,27.84c1.18,4.29,2.37,23.79,6,25.85,0.44,0.25,2.35-17.78,2.39-19,0.5-14.39-2.41-27.46-6.31-41.19a161.12,161.12,0,0,1-6.22-33.71c-0.14-2.23-5-19.75-5.64-19.14,2.83-2.79,7.56,5.31,8.76,6.08,1.66,1.07,6.26,1.74,6.72,3.35h0Z" transform="translate(-1561.83 -196.49)"/><g class="cls-5"><path class="cls-6" d="M1840.83,316.23c-3.66,12.89-4.57,28.5-13.06,39.23-11.59,14.63-33.8,26.27-50.14,34.14-32.27,15.54-50.79-8.71-53.67-39.06-2.17,11.3.6,23.61,2.91,34.66,0.84,4,1.81,8,2.59,12,0.75,3.85-1.18,1.92-1.21,2.06-0.25,1.15,5.33,6.26,6.16,8.3,1.41,3.48,1.4,5.93,1,9.71-1.33,12.49-4.71,23.32-2.83,35.9,0.71,4.73.58,50.93,0.25,50.82-1.37-.47-1-2.7-2-3.38,3.83,2.53-4.85,19.19-10.38,18.09-7-1.4,0-9.92,4-10.84-8.19.15-5.39,7.31-9.81,11.12-8.44,7.28-6.78-9.45.14-11.3-4,.59-8.92,12.17-12.19,11.08-6.08-2-.14-12.67,5.32-12.79-8.53-.14-5.37,4.31-9.37,8.11-0.82.78,0,2.87-1.61,3.33s-5.07-3.64-5-5.11c-3.22,11,15.14,10.47,21.86,11,3.65,0.28,7.35.71,10.9-.47,7.83-2.6,6.14-6.82,8.47-13.15,1.38-3.73,5.24-6.69,5.52-10.85,0.16-2.43-1.48-3.89-1.74-6.09-0.7-5.85-1.64-11.42-1.75-17.37-0.2-10.8.44-21.65,0.85-32.44,0.29-7.58-.46-15.72,2.46-22.78s5-6.46,12-8.81a194.88,194.88,0,0,0,20.19-8.32c14.88-6.95,27.59-15.81,40.85-25.38,8-5.75,26-22.1,33.58-8.66C1839.72,350.86,1836.14,335,1840.83,316.23Z" transform="translate(-1561.83 -196.49)"/></g><path class="cls-4" d="M1725.61,454c-0.31,6.93-.63,13.88-1.28,20.79-0.47,5-6.64,23-2.67,25.74,10.68,7.47,12.42-51.57,5-49.72A3.18,3.18,0,0,0,1725.61,454Z" transform="translate(-1561.83 -196.49)"/><path class="cls-4" d="M1626.87,381.37c-0.16-1.44-.93-7,0.64-7.84,1.07-.54,9.24,16.53,9.25,19,0,1.72-5.28,2.94-6.59,2.44C1627.32,393.9,1627.12,383.52,1626.87,381.37Z" transform="translate(-1561.83 -196.49)"/><path class="cls-13" d="M1761.48,299.73c12.48,0,23.13-3.26,35-6.49,6.62-1.8,13.42-2.88,20.06-4.64,1.53-.41,20.42-4.42,20.94-5.44-1.51,3-11.89,3.66-12.23,6.47-0.05.42,2.39,0.23,2.19,0.6-0.35.66-6.75,3.16-6.52,3.31,1.76,1.19,5.32-2,6.89-1-0.09-.05-21.66,13.26-24.75,10.19,0.59,0.59,6.4-.07,6.48.58,0.26,2.06-24.53,5.54-27.89,4.29,1.8,0.67,6.57-2.08,9-1.85-2.61-.25-16.2-0.09-17,0.69,2.42-2.41,7.29-1.34,10.05-2.45-2.94,1.18-9.31,2-12.37,1.51-3.8-.66-3.53-1.74-4.48-2.34-0.17-.11-9.94-2.1-8.27-3.18Z" transform="translate(-1561.83 -196.49)"/><g class="cls-5"><path class="cls-14" d="M1976.72,261.42c-8.77-8.73-19.45-22.37-14.81-35.62,2-5.74,21.56-19.36,14.12-25.71-5,11.27-19.08,17.43-18.83,31.28,0.22,12.54,10.82,25.11,18.57,34,16.15,18.5,37,34.46,30.85,61.88-5.94,26.64-35,46.68-61.43,34.1-11.11-5.29-19.6-15.22-25.07-26.05-3.27-6.49-5.7-13.24-9.77-19.35-0.56-.84-7.18-8.19-7.18-8.13,0,2.88,4.19,7.17,5.41,9.77,2.5,5.31,3.66,11.11,4.45,16.9,1.9,13.89.84,28,2.67,41.92,1.74,13.22,5.52,26.81,12.54,38.25,5.87,9.59,16.56,14.11,22.65,22.8,5.05,7.21.18,18.1-.75,26.18-1.17,10.08,2.76,22.66-2.51,31.43-2.47,4.11-6.85,9-11.68,10.15-4.21,1-7.64-1.52-11.48,1.06-2.37,1.59-2.64,8.22-6.48,6.46s2.81-10.7,7.28-9.46c-7.3-2.79-9.93,11.19-13.38,9.54-2.8-1.34.44-7.86,1.65-9.14,2.28-2.41,5.35-2.31,8.43-2.73-3.82-.19-16,7.36-16,7.39-0.16,9.7,7.21,7.76,13.58,8.76,6.2,1,17.77,5.21,23.07-2.33,1.74-2.48,1.35-8,2.3-9.84,0,0,2.93-.93,3.44-1.64,1.67-2.29,1.93-5.14,3.35-7.58,3.89-6.7,4.59-3.62,2.38-12.42-1.73-6.88-.94-14,0.21-20.92,1.47-8.81,7.53-21.56,1.08-29.45-5.7-7-16.26-7.32-21.89-15.06-12.67-17.39-8.31-47.76-11.07-68.21,17.55,24,56.67,26.26,75.53,3.11,11.35-13.93,16.54-33.84,10.41-51-5.87-16.45-19.67-28.35-31.69-40.31h0Z" transform="translate(-1561.83 -196.49)"/></g><path class="cls-15" d="M1919.17,499.9c0.75,3.4,4,3.23,7.56,4,2.32,0.5,4.29,1.42,6.81,1.3,2.86-.13,6-3,8.29-2.81-4-.28-5.95,2.06-10.55-0.13,0.7,0.33-8.37-5.49-5.06-5.37C1923.75,496.8,1921.54,499.9,1919.17,499.9Z" transform="translate(-1561.83 -196.49)"/><path class="cls-4" d="M1941,442.37c0.38,6.52,4.06,50.52-6.09,49.72,4.91,0.38,8.16,2.64,11.37-2.57,2-3.28,1.19-10.37,1.21-14,0-3.3-.61-36.57-5.84-35.89A2.86,2.86,0,0,0,1941,442.37Z" transform="translate(-1561.83 -196.49)"/><path class="cls-13" d="M1967.6,203.77c-2.81,2.94-5.35,11.23-8.1,13,0.59-.38.25-5.52,1.38-6.38-3.13,2.38-1.71,7.81-4.06,10.07-0.52.5-1.54-3.31-1.25-3.55-6,4.75-2.88,18.36-.94,24,4.25,12.3,12.56,21.91,21.9,30.62,16.52,15.4,32.54,31.31,27.82,55.85-4.26,22.14-26.37,39.78-49.43,36.89-11.16-1.4-19.48-10.51-25.64-19.23-3.73-5.28-12.52-17.1-11.5-24.23-0.11.79,5.52,12.91,6.16,12.91-0.36,0-.42-4.56-0.62-4.79,6.32,7,8.5,15.5,16.67,21.64,9.73,7.31,23.1,9.16,34.83,6.33a6.74,6.74,0,0,0-2.37,1c-0.32.46,6.61-.32,6.91-0.41,3.37-1,4.6-2.46,7-4.78,0.93-.91,10.12-13.24,9.28-13.77a4.12,4.12,0,0,0-1.25.83c4.13-.71,6.69-13.47,7.13-16.12a42,42,0,0,0-1.64-20.88c-5.42-15.53-18.64-22.29-29.93-32.82-9.31-8.69-19.86-22.56-20.75-35.76-0.21-3.14.46-6.88,0.65-10,0.3-4.74,0-8.69,2.3-13,0.71-1.34,4.78-4.91,4.83-6,0,0.71-2.33,4.58-2.71,5C1955.81,208.42,1969.58,195.64,1967.6,203.77Z" transform="translate(-1561.83 -196.49)"/><path class="cls-13" d="M1872.27,278.57c15.48,3.5,35.38,11.67,39.69,29.29-0.88-3.61-6.07-6.34-7.05-9.53,0.14,0.46,6.41,9.29,5.16,9.67-0.52.16-13.94-15-16.2-16.31-3.46-2-12.39-3.43-14.63-6.73,0.1,0.14,5.21-.11,4.25.21,0.67-.22-16.34-6.46-16-6.83a7,7,0,0,1,4.81.24h0Z" transform="translate(-1561.83 -196.49)"/><path class="cls-3" d="M1676.35,349.28c-1.81,14,10.73,26.37,18.79,36.08,7.5,9,15.76,19.79,19,30.65-4.12-13.93-13.39-24.84-22.62-35.66C1684.64,372.26,1675,360,1676.35,349.28Z" transform="translate(-1561.83 -196.49)"/><g class="cls-16"><path class="cls-7" d="M1713,415.7c-3.2-12.32-15.22-27-15.22-27-5.7-8.13-19.71-13.67-19.71-13.67s11.41,12.13,1.52,5.42-28.14-16.51-30.93-10.06-0.25,15.48-.25,15.48,1.52,2.84-.25,1-4.82-4.64-4.82-4.64a46,46,0,0,0,4.27,13.62c1.73,1.66,2.82,2.34,2.2,1.6-1.52-1.8-1.65-4.9-1.77-5.29,4.82,11.22,12.93,12.51,12.55,11.09,2.92,5.29,7.48,7.74,5.58,5.29s-3.3-7.87-2.15-6.19c3.42,7.1,11.15,9.68,9.51,8.38s-4.69-6.32-3.93-5.16c3.67,5.68,12.93,7.74,12.8,7.48s-4.82-2.45-4.44-3c4.44,3,17.49,5.67,16.61,5s-1.77-1.42-1.52-1.8C1697.36,416.9,1709.2,416.62,1713,415.7Zm-32.71-9.76c1.33,1.35,8.36,4.84,0,2.32s-16.92-12.19-16.16-9.87,4.18,5.42.19,2.52-8-10.64-7-7.16,5.52,9.29,1,6.19a24.89,24.89,0,0,1-7.23-8.51s-1.9-4.06-.19-1.74,4.37,2.32,2.66-.39-2.28-4.84-.95-3.1,7,2.32,4.94,0S1651,378.08,1652,379s8.94,3.68,4-1.55-5.89-7.35-1.71-3.87,14.45,8.9,12.17,7-6.84-5.8-4-4.45,9.32,4.45,6.65,2.13-10.84-5.8-1.9-3.29,22.44,12.38,20.91,9.67-2.66-3.68-1.9-3.29c7.41,2.9,16.92,19.15,15.21,18.38s-6.46-.78-2.66,1.35,9.32,10.06,5.51,9.09c-2.51-.64-6.85-1.78-9.06-2.43,2.45,1.27,6.49,4.56-.44,3.59C1686.38,410.2,1679,404.58,1680.29,405.94Z" transform="translate(-1561.83 -196.49)"/></g><path class="cls-17" d="M1662.1,389.49c0.58,0.77,5.79,6.93,6.44,6.08,0.23-.3-0.64-2.81-0.83-3.12,0.41,0.69,5.94,6.66,6.09,5.26a10,10,0,0,0-2.06-3.57c1.28,1.63,6.9,3.93,7.52,5.61a14.88,14.88,0,0,0-3-4.32c0.95,1,5.68,4.16,6.85,3.72,0.2-.08-1.91-2.06-2-2.18,2.18,1.88,7.8,5.6,8.63,2,0.63-2.71-5.92-7.2-7.71-8.59,0.39,0.3,7.7,4.65,7.71,4.14,0.05-1.54-9.3-9-10.53-7.78-0.2.21,1.11,2.29,1.15,2.31s-5.3-3.31-5.39-3c-0.23.87,2.58,4,3.3,4.43-3.33-1.79-6-5.28-9.79-6.31,1,0.28,2.66,3.84,3.47,4.16-1.69-.66-4.61-4-6.46-3.92,0,0,3.24,5.13,3,5.33-1.29,1.19-4-3.39-4.48-3.45,1,0.12,4.12,3.8,2.48,4.76C1665.52,391.71,1662.33,390.87,1662.1,389.49Z" transform="translate(-1561.83 -196.49)"/><path class="cls-17" d="M1804.07,392.07c2.11,1.8,5.42,3,8.25,2.29a39.29,39.29,0,0,0-3.3-2.2c0.69,0.09,9.74,2.49,8.64.73a7,7,0,0,0-2.7-1.65c2.26,0.93,8.22,2.79,10.32.73,0.27-.26-4.1-2.68-4.43-2.56,1.94-.76,12.35,4.67,13.31,2.47s-3.07-2.64-4.07-3c0.8,0.25,10.13,2.76,10.57,2.22,1.28-1.56-4.38-4.77-5.4-3.88,1.14-1,10.8,1.65,10.55.39-0.74-3.7-6.82-2.69-8.85-4.7-1.7-1.68,5.31-2.33,5.41-1.86-0.65-3-11.18-3.8-13.54-2.84-0.4.16,2.33,1.72,2.28,1.59,0.13,0.35-8.42,1.49-7.77,1.83,1.45,0.78,2.4.33,3.74,0.71-1.15-.33-10.41.86-10.77,2.2-0.08.29,4.44,0.81,4.69,0.68-2.22,1.09-9.09.68-10.29,2.84-0.08.15,5.06,0.47,4.85,0.61C1812.95,390.53,1807.3,392.35,1804.07,392.07Z" transform="translate(-1561.83 -196.49)"/><path class="cls-11" d="M1850,410.13s-1.77,3.35-.51,3.09S1852.75,411.68,1850,410.13Z" transform="translate(-1561.83 -196.49)"/><path class="cls-11" d="M1835.26,431.28c10.37-10.76.74,9.09,0,0h0Z" transform="translate(-1561.83 -196.49)"/><path class="cls-11" d="M1840.07,413.48c0.88,5.52,3.37,2.6,4.56-1C1844.66,412.39,1840.07,411.42,1840.07,413.48Z" transform="translate(-1561.83 -196.49)"/><path class="cls-11" d="M1848.69,422c3.59-.45,2.23.79,4.23,2.41C1855.8,426.75,1842.65,424.3,1848.69,422Z" transform="translate(-1561.83 -196.49)"/><path class="cls-11" d="M1828.16,424.32c4.44-3.54,3,2.68,3.55,3.09,0.24,0.17-6.89-.45-3.55-3.09h0Z" transform="translate(-1561.83 -196.49)"/><path class="cls-11" d="M1820.55,411.42c2.79,0.39,7.32,5.5,2.06,5.75C1820.08,417.3,1817.94,411.75,1820.55,411.42Z" transform="translate(-1561.83 -196.49)"/><path class="cls-11" d="M1832,409.36c7.72,6.44-7.55,1,0,0h0Z" transform="translate(-1561.83 -196.49)"/><path class="cls-11" d="M1815.23,403.17c3.67,2.74.46,1.59,0.76,4.55C1816,408,1810.35,403.17,1815.23,403.17Z" transform="translate(-1561.83 -196.49)"/><path class="cls-11" d="M1825.37,405.49c4.52-3.46,2.19,2.11,2.49,2.3,0.58,0.38-4.75-.58-2.49-2.3h0Z" transform="translate(-1561.83 -196.49)"/><path class="cls-11" d="M1834,404.71s-0.25,2.32,1,2.58S1836.27,404.71,1834,404.71Z" transform="translate(-1561.83 -196.49)"/><path class="cls-18" d="M1734.86,293.54c11.48,9.52,26.46,17.51,41.58,18.05-6.84.78-14.35-1.76-20.64-4.07a117.5,117.5,0,0,1-17.27-8.17c-5-2.83-11.58-9.85-16.54-11.36A75.26,75.26,0,0,1,1734.86,293.54Z" transform="translate(-1561.83 -196.49)"/><path class="cls-19" d="M1726.75,371.44c3.9,23.24,18.36,44,43.86,31.21-6,4.22-14.53,6.45-21.43,8.72-3.68,1.21-5.81,2.26-8.34,1-1.15-.59-8-10.36-7.84-10.43a3.77,3.77,0,0,1,2.14.35C1727,399.25,1726.75,377.2,1726.75,371.44Z" transform="translate(-1561.83 -196.49)"/><path class="cls-19" d="M1838.55,363.18c-5.16-4.6-3.12-31.52,0-38.18-2.9,14.17,1.8,30.81,6.61,44A8.1,8.1,0,0,0,1838.55,363.18Z" transform="translate(-1561.83 -196.49)"/><path class="cls-4" d="M1816.24,498.09c0,1.91-5.41,5.75-5.41,4.47C1810.83,499.77,1813.76,498.09,1816.24,498.09Z" transform="translate(-1561.83 -196.49)"/><path class="cls-4" d="M1817.26,494.74c0.91,0-1.27,1.29-4.06,1.29S1812.69,494.74,1817.26,494.74Z" transform="translate(-1561.83 -196.49)"/><path class="cls-4" d="M1818.78,491.39c-1.21-.34-4.92-0.78-5.58.77-1.3,3.09,8.45,1.06,7.42-.2A3.72,3.72,0,0,0,1818.78,491.39Z" transform="translate(-1561.83 -196.49)"/><path class="cls-20" d="M1830.95,492.42q-1.67,1.39-1,3c6.7-1.21,13.34-11.3,16.64-16.33,2.57-3.91,16-21.13,12.91-25.87-3.52-5.4-5.47.66-6.8,3-2.61,4.53-3.6,10.37-6.56,15.13-4.39,7-9.36,15.19-15.21,21.13C1827,499.38,1832.21,491.13,1830.95,492.42Z" transform="translate(-1561.83 -196.49)"/><path class="cls-20" d="M1825.37,420.45c3.19,3.88,26.2,32,29.74,28.39,2.47-2.5-6.69-13.68-7.8-15.8-3.68-7-6.75-16.08-16.62-16.07-0.08,0,2.5,4.39.7,4.07C1831.78,421.1,1822,416.6,1825.37,420.45Z" transform="translate(-1561.83 -196.49)"/><path class="cls-11" d="M1692.27,356.6c9.74-4.4-1.88,5.75,0,0h0Z" transform="translate(-1561.83 -196.49)"/><path class="cls-11" d="M1684.67,343.84c2.45-3.54,1.53.09,4,.94C1691.34,345.74,1682.93,348.24,1684.67,343.84Z" transform="translate(-1561.83 -196.49)"/><path class="cls-11" d="M1697.6,380.85c-0.35-.93-1.53-5.48-0.25-6.06C1702.67,372.38,1698.76,384,1697.6,380.85Z" transform="translate(-1561.83 -196.49)"/><path class="cls-11" d="M1710.78,389.37c-0.68-2.77-2.06-7.33,1-7.18C1719.26,382.56,1711.53,391.82,1710.78,389.37Z" transform="translate(-1561.83 -196.49)"/><path class="cls-11" d="M1704.82,396.59c-0.43-3.88,5.54,3.34,3.6,2.19-0.23-.13-3.18,1.58-3.6-2.19h0Z" transform="translate(-1561.83 -196.49)"/><path class="cls-11" d="M1715.72,397c-4,5.09,2.92,4.42,2.92,4.39C1718.64,401.13,1716.91,395.77,1715.72,397Z" transform="translate(-1561.83 -196.49)"/><path class="cls-11" d="M1729,417c-0.08-.92.1-5.17,1.52-5.29C1736.91,411.15,1730.52,421.5,1729,417Z" transform="translate(-1561.83 -196.49)"/><path class="cls-11" d="M1716.1,377.24c4.54,1.31,7.09-3.95,2.79-5.93C1717.25,370.55,1714,376.59,1716.1,377.24Z" transform="translate(-1561.83 -196.49)"/><path class="cls-11" d="M1708.24,374c3.41-1.23,3.34-6.71-.89-6.71C1705.86,367.31,1705.79,374.15,1708.24,374Z" transform="translate(-1561.83 -196.49)"/><path class="cls-11" d="M1730.3,366.1c-6.94-7.29,8.37-2.72,4.69-.46A12.86,12.86,0,0,1,1730.3,366.1Z" transform="translate(-1561.83 -196.49)"/><path class="cls-11" d="M1712.68,361.25c0.15-.23.77-3.34,1.65-2.71C1717.5,360.84,1713,363.52,1712.68,361.25Z" transform="translate(-1561.83 -196.49)"/><path class="cls-11" d="M1742.34,394.78c-0.29-.55-1.82-4.28-0.64-4.64C1750.32,387.5,1743.16,397.28,1742.34,394.78Z" transform="translate(-1561.83 -196.49)"/><path class="cls-11" d="M1745.64,406c0.29-.92.92-3.74,2.28-3.74C1751.44,402.26,1748.37,408.78,1745.64,406Z" transform="translate(-1561.83 -196.49)"/><path class="cls-11" d="M1763.51,393.88c-1.41-5.21,2.27-3.4,2.72-4.24C1766.45,389.24,1766.45,395.88,1763.51,393.88Z" transform="translate(-1561.83 -196.49)"/><path class="cls-11" d="M1746.3,366.67c4.71,0.13,5.08-.61,2.89-3.89C1746.75,359.1,1742.57,366.12,1746.3,366.67Z" transform="translate(-1561.83 -196.49)"/><path class="cls-11" d="M1765.28,370c1.87,1.25,5.59-2.11,3.07-4.41-3.34-3-5.58,2.7-3.07,4.41h0Z" transform="translate(-1561.83 -196.49)"/><path class="cls-11" d="M1778.85,381c-1.25-4,0-7.74,4.31-3.74C1782.51,378.09,1780.05,381.13,1778.85,381Z" transform="translate(-1561.83 -196.49)"/><path class="cls-11" d="M1793.42,337.41c2.9,5.49,5.43-.79,5.11-0.77,1.72-.1-7-2.73-5.11.77h0Z" transform="translate(-1561.83 -196.49)"/><path class="cls-11" d="M1780,351.45c-0.54-5,2.19-2.69,3.42-3.85C1785,346,1783.5,356,1780,351.45Z" transform="translate(-1561.83 -196.49)"/><path class="cls-11" d="M1766.81,347.58c-1.54-5.87,4.57-4.82,4.39-2.67C1771.08,346.25,1768.11,351.56,1766.81,347.58Z" transform="translate(-1561.83 -196.49)"/><path class="cls-11" d="M1732.84,340.85c2.85,3.51,5.37.28,5.66,0.32C1739.2,341.26,1732.12,340.26,1732.84,340.85Z" transform="translate(-1561.83 -196.49)"/><path class="cls-11" d="M1746.53,340c0-.86.55-5.55,1.9-5.42C1756.8,335.41,1747.81,345.19,1746.53,340Z" transform="translate(-1561.83 -196.49)"/><path class="cls-11" d="M1711.54,342.93c6.77,0.52,1-3.55,1.78-4.64,0,0-4.26,4.45-1.78,4.64h0Z" transform="translate(-1561.83 -196.49)"/><path class="cls-11" d="M1706.47,355.44c2.55-.32,4.56-2.27,1.52-4.13C1707.25,350.86,1704.48,355.32,1706.47,355.44Z" transform="translate(-1561.83 -196.49)"/><path class="cls-11" d="M1696.58,321.13c4.81,0.82,5.17-3.2,1.52-5.67-1-.7-3.35,5.36-1.52,5.67h0Z" transform="translate(-1561.83 -196.49)"/><path class="cls-11" d="M1704.95,332.74c0.27-1.05.62-3.61,1.9-4C1709.87,327.83,1709.5,336.87,1704.95,332.74Z" transform="translate(-1561.83 -196.49)"/><path class="cls-11" d="M1692.15,334.81a4.9,4.9,0,0,1,1.14-3.48c2.27-1.15,1.77,6.43-1.14,3.48h0Z" transform="translate(-1561.83 -196.49)"/><path class="cls-11" d="M1684.79,326.42c4.48-1.23,4.56-4.37.13-6.19-2.13-.87.16,7,0,6.16,0.48,2.11.82-.2-0.1,0h0Z" transform="translate(-1561.83 -196.49)"/><path class="cls-11" d="M1717.37,319.2c1.36-.94,4.27-3,3.93.77C1721.16,321.59,1717.61,319.57,1717.37,319.2Z" transform="translate(-1561.83 -196.49)"/><path class="cls-11" d="M1720.54,306.95c4.91,1.31,1.1-4.89,1.14-5s-5,4-1.14,5h0Z" transform="translate(-1561.83 -196.49)"/><path class="cls-11" d="M1702.28,303.21a7.64,7.64,0,0,0,3.68-.39C1708.79,298,1699.25,302,1702.28,303.21Z" transform="translate(-1561.83 -196.49)"/><path class="cls-11" d="M1688.22,309a6.88,6.88,0,0,0,3.42-.26,4.26,4.26,0,0,0-1.52-3.1c-1-.52-2.44,3.28-1.9,3.36h0Z" transform="translate(-1561.83 -196.49)"/><path class="cls-11" d="M1680.36,311.85c1.17,2.2,1.93-3.7,1.5-2.73-0.3.69-3.74-1.44-1.5,2.73h0Z" transform="translate(-1561.83 -196.49)"/><path class="cls-11" d="M1690.5,299.6a15,15,0,0,0,3.42.51c0.93-.13-0.81-3.79-1-4C1692.51,295.71,1689.92,299.36,1690.5,299.6Z" transform="translate(-1561.83 -196.49)"/><path class="cls-11" d="M1680.61,299.34c0.69,0,3.77-.44,4.06-1.16s-2.07-4.13-2.79-4.13C1680.94,294,1679,299.22,1680.61,299.34Z" transform="translate(-1561.83 -196.49)"/><path class="cls-11" d="M1695.95,287.34c6.89-7.62.47,4.79,0,0h0Z" transform="translate(-1561.83 -196.49)"/><path class="cls-11" d="M1727.38,399.81a2.56,2.56,0,0,0,.51,2.71C1731.52,403.76,1727.61,397.78,1727.38,399.81Z" transform="translate(-1561.83 -196.49)"/><path class="cls-11" d="M1725.36,386.91a2.66,2.66,0,0,0,.38,3.1C1730.17,392.47,1726,383.52,1725.36,386.91Z" transform="translate(-1561.83 -196.49)"/><path class="cls-11" d="M1783.28,361.76c2.75,6.69,1.16-1.47,0,0h0Z" transform="translate(-1561.83 -196.49)"/><path class="cls-11" d="M1794.06,370.66c-0.39.66-.56,3.83,1.63,2.43s-0.75-3.92-1.63-2.43h0Z" transform="translate(-1561.83 -196.49)"/><path class="cls-11" d="M1800,352.35c-0.12.52-.91,5.73,1.09,4.89C1805.28,355.48,1800.84,351,1800,352.35Z" transform="translate(-1561.83 -196.49)"/><path class="cls-11" d="M1813.07,359.05c-1.41,2.56-.75,6.63,3.17,4.9,4.21-1.86-.5-9.73-3.17-4.9h0Z" transform="translate(-1561.83 -196.49)"/><path class="cls-11" d="M1756.54,380.59c0.31,4,1.25,1.4,2.09,2.5C1759.86,384.7,1757.2,376.53,1756.54,380.59Z" transform="translate(-1561.83 -196.49)"/><path class="cls-11" d="M1739.3,376.85c0,1.8-.6,4.84,2.92,2.45C1742.82,378.89,1739.6,375.21,1739.3,376.85Z" transform="translate(-1561.83 -196.49)"/><path class="cls-11" d="M1761,333.9c-1,4.56-.33,4.45,3.67,3.1,0.43-.14-3.31-4.82-3.67-3.1h0Z" transform="translate(-1561.83 -196.49)"/><path class="cls-11" d="M1749.31,348.61c-1.78,4.21,2.68,4.95,3.17,3C1752.7,350.7,1749.54,347.46,1749.31,348.61Z" transform="translate(-1561.83 -196.49)"/><path class="cls-11" d="M1775.55,326c0.27,1,1.32,5.93,3.67,2.32C1779.66,327.71,1776,324.1,1775.55,326Z" transform="translate(-1561.83 -196.49)"/><path class="cls-11" d="M1787.34,322c-1.27,4.2,1.17,2,1.71,3.67C1789.19,326.14,1788.07,319.62,1787.34,322Z" transform="translate(-1561.83 -196.49)"/><path class="cls-11" d="M1800,321.13c-1.51,9.59,3.54-2.1,0,0h0Z" transform="translate(-1561.83 -196.49)"/><path class="cls-11" d="M1822.2,325.13c-2.63,3.41-.09,2.93-0.08,4.72C1822.13,331.85,1825.91,322.73,1822.2,325.13Z" transform="translate(-1561.83 -196.49)"/><path class="cls-11" d="M1811.43,343.32c-3.45,4.56,1.1,2.16,2.08,4.08C1814.72,349.81,1814.22,338.85,1811.43,343.32Z" transform="translate(-1561.83 -196.49)"/><path class="cls-11" d="M1829,337.77c-2.94,4.72.32,2,.68,4.58,0.51,3.67,1.89-8.68-.68-4.58h0Z" transform="translate(-1561.83 -196.49)"/><path class="cls-11" d="M1826.26,353.12c-0.78-.39,2.79,3.9,2.79.52A1.9,1.9,0,0,0,1826.26,353.12Z" transform="translate(-1561.83 -196.49)"/><path class="cls-11" d="M1805,311.85c4.24,1.69,2.38-.37,4.85-1.79C1812.11,308.74,1801.79,306,1805,311.85Z" transform="translate(-1561.83 -196.49)"/><path class="cls-11" d="M1828.28,311.07c-1.46-.63-4.48-1.57-1.65-3.74C1827.13,307,1829.9,310.06,1828.28,311.07Z" transform="translate(-1561.83 -196.49)"/><path class="cls-11" d="M1812.19,334.29c-0.86,3.08-3.62.07-3.17-2.32,1,0,3.58.87,3.17,2.32h0Z" transform="translate(-1561.83 -196.49)"/><path class="cls-11" d="M1790.38,311.33c-1.63-.06-5,0-2.66-2.84C1788.46,307.59,1790.77,310.55,1790.38,311.33Z" transform="translate(-1561.83 -196.49)"/><path class="cls-11" d="M1775.55,314.56c6.11,0,.91-3.25,1.27-3.87C1777.06,310.28,1772.3,314.56,1775.55,314.56Z" transform="translate(-1561.83 -196.49)"/><path class="cls-11" d="M1768.71,320.75c3.2-1.09-.09-2.58-0.11-3.16s-3.12,4.26.11,3.16h0Z" transform="translate(-1561.83 -196.49)"/><path class="cls-11" d="M1754.51,328.1c4.5-.39.77-2.22,1.27-3.61,0.18-.5-5.87,4-1.27,3.61h0Z" transform="translate(-1561.83 -196.49)"/><path class="cls-11" d="M1733.85,331.58c1.1-.38,5.22-1.59,1.77-3.35C1734.76,327.79,1732.45,331.11,1733.85,331.58Z" transform="translate(-1561.83 -196.49)"/><path class="cls-11" d="M1722.82,337.39c7.81-5.63-5.87-.6,0,0h0Z" transform="translate(-1561.83 -196.49)"/><path class="cls-11" d="M1725.48,350c4.19-1.42.2-2.17,0.63-3.61,0.07-.23-3.61,4.62-0.63,3.61h0Z" transform="translate(-1561.83 -196.49)"/><path class="cls-11" d="M1718.89,353.38c-1.64-.39-3.14,1.1-2.28-2.58C1717.5,350.95,1719.8,352,1718.89,353.38Z" transform="translate(-1561.83 -196.49)"/><path class="cls-11" d="M1791.91,300.63c-7.5-2.81,1.76-1.47,0,0h0Z" transform="translate(-1561.83 -196.49)"/><path class="cls-11" d="M1802.55,299.6c2.58,0.63,5.53-.35,4.31-3.61C1805.19,291.52,1799.87,299.2,1802.55,299.6Z" transform="translate(-1561.83 -196.49)"/><path class="cls-11" d="M1823.85,302.82c-5.33,2.7-2.42-1.64-3.42-2.19C1819,299.83,1827.59,300,1823.85,302.82Z" transform="translate(-1561.83 -196.49)"/><path class="cls-11" d="M1822.58,292.25c-5.05-1.74-.58-1.89-1.52-3.74C1820.55,287.5,1826.13,292.25,1822.58,292.25Z" transform="translate(-1561.83 -196.49)"/><path class="cls-11" d="M1830.44,300.5a4.57,4.57,0,0,0,3.42.78,2.79,2.79,0,0,0-.38-3.1C1832.83,297.35,1830.35,299.9,1830.44,300.5Z" transform="translate(-1561.83 -196.49)"/><path class="cls-11" d="M1840.2,308.11c2.7,0.22,6.65.28,4.15-3.8-2.07-3.38-5.71,3.67-4.15,3.8h0Z" transform="translate(-1561.83 -196.49)"/><path class="cls-11" d="M1839.31,320c-4-5.16,4.39-4.46,0,0h0Z" transform="translate(-1561.83 -196.49)"/><path class="cls-11" d="M1852.37,316a6.67,6.67,0,0,1,1.14-3.1,5.51,5.51,0,0,1,2.36,2.07C1856.17,316,1852.37,316.94,1852.37,316Z" transform="translate(-1561.83 -196.49)"/><path class="cls-11" d="M1850.59,328.36c1-3.89,2.34-1.65,2.92-1.94C1856.9,324.71,1850.13,334.58,1850.59,328.36Z" transform="translate(-1561.83 -196.49)"/><path class="cls-11" d="M1847.3,337.64c1.81-4.56,1.87-1.05,3.3-1.42C1854.4,335.25,1846.55,344.53,1847.3,337.64Z" transform="translate(-1561.83 -196.49)"/><path class="cls-11" d="M1854.14,352.09c-3.82.57-.66-5.15,0.08-5.76,1-.81,4.46,5.11-0.08,5.76h0Z" transform="translate(-1561.83 -196.49)"/><path class="cls-11" d="M1866.31,339.71c-0.2,1.93,1.42,7.13,3.76,3.38C1872.22,339.63,1866.31,339.3,1866.31,339.71Z" transform="translate(-1561.83 -196.49)"/><path class="cls-11" d="M1881.27,331.45c-2.36,1.26-7.48,0-3.85-3.16C1879.33,326.61,1882.77,329.54,1881.27,331.45Z" transform="translate(-1561.83 -196.49)"/><path class="cls-11" d="M1864.66,314.81c3.12,2.12,5.69.23,4.49-3.79-0.85-2.87-6.72,2.28-4.49,3.79h0Z" transform="translate(-1561.83 -196.49)"/><path class="cls-11" d="M1858.45,307.46c3.91,1.16,1.08-.41,3.55-1.93C1864,304.27,1854.25,305.32,1858.45,307.46Z" transform="translate(-1561.83 -196.49)"/><path class="cls-11" d="M1856.93,290.82c5.46,1,2-2.32,3.67-4.51C1861.36,285.31,1851.52,288.07,1856.93,290.82Z" transform="translate(-1561.83 -196.49)"/><path class="cls-11" d="M1872.78,296.5c4.63,1.16,1.24-1.22,2.41-2.19C1876.65,293.1,1868.37,295.5,1872.78,296.5Z" transform="translate(-1561.83 -196.49)"/><path class="cls-11" d="M1885.83,305.14c-0.16,1.31-.92,5.22,2.15,2.71C1888.91,307.1,1886.15,304.33,1885.83,305.14Z" transform="translate(-1561.83 -196.49)"/><path class="cls-11" d="M1893.19,317.78c3.71,1.65,9-1.57,3.93-4.38C1893.06,311.15,1892,317.68,1893.19,317.78Z" transform="translate(-1561.83 -196.49)"/><path class="cls-11" d="M1887.86,326.29c0.35,0.14,2.92,3.26,2.92,0C1890.78,325.78,1887.75,325.11,1887.86,326.29Z" transform="translate(-1561.83 -196.49)"/><path class="cls-11" d="M1908.78,331.58c0,0.32.52,5.73,2.2,3.64C1913.1,332.59,1909.21,329.81,1908.78,331.58Z" transform="translate(-1561.83 -196.49)"/><path class="cls-11" d="M1899.27,347.7c-3.54,3-8.2-.71-5.32-2.45C1895.81,344.12,1901.29,346,1899.27,347.7Z" transform="translate(-1561.83 -196.49)"/><path class="cls-11" d="M1884.19,347.7c1,5.37-2.27,2-3.29,3C1879.55,352,1883.47,343.24,1884.19,347.7Z" transform="translate(-1561.83 -196.49)"/><path class="cls-11" d="M1863.78,355.44c-3.41,3.14,3.16,4.32,2.85,3.87,0.67,1-.17-6.33-2.85-3.87h0Z" transform="translate(-1561.83 -196.49)"/><path class="cls-11" d="M1866.44,370.66c-1.09,2.63-1,7.42,2.91,6.58C1876.42,375.74,1866.55,369.86,1866.44,370.66Z" transform="translate(-1561.83 -196.49)"/><path class="cls-11" d="M1891,289c-3.42.44-4.9-2-3.31-4.8s5.82,4.48,3.31,4.8h0Z" transform="translate(-1561.83 -196.49)"/><path class="cls-11" d="M1896.74,295.21c-0.1.84,0.95,5.81,2.28,2.45C1899.25,297.06,1897.3,294.18,1896.74,295.21Z" transform="translate(-1561.83 -196.49)"/><path class="cls-11" d="M1906.88,300.89c-0.19,3.94,4.22,4.23,3.93,3.35C1910.66,303.79,1907.09,299.39,1906.88,300.89Z" transform="translate(-1561.83 -196.49)"/><path class="cls-11" d="M1915.88,313.78c0.08,0.53-.41,5.28,1.9,3.77C1920.25,315.94,1915.88,313.77,1915.88,313.78Z" transform="translate(-1561.83 -196.49)"/><path class="cls-11" d="M1918.16,327.71c4.05-8.9,3.69,7.59,0,0h0Z" transform="translate(-1561.83 -196.49)"/><path class="cls-11" d="M1927.41,343.06c4.2-3.68,3.17.71,4.31,0.9C1934,344.35,1924.65,346.79,1927.41,343.06Z" transform="translate(-1561.83 -196.49)"/><path class="cls-11" d="M1913.34,348.74c5-7.81,5.93,9,0,0h0Z" transform="translate(-1561.83 -196.49)"/><path class="cls-11" d="M1904,363.44c0.95,1.65,1.69,9.89-2.41,5.8S1904.25,364.1,1904,363.44Z" transform="translate(-1561.83 -196.49)"/><path class="cls-11" d="M1889.38,366.28c4.62-1.34,1.34.93,2.92,1.68C1894.2,368.85,1885.36,367.64,1889.38,366.28Z" transform="translate(-1561.83 -196.49)"/><path class="cls-11" d="M1877.09,363.7c5.19-.36,2.18,5.14,0,0h0Z" transform="translate(-1561.83 -196.49)"/><path class="cls-11" d="M1884.19,384.2c0.32,0.68,1,5,2.66,1.55C1887.23,385,1884.56,383.44,1884.19,384.2Z" transform="translate(-1561.83 -196.49)"/><path class="cls-11" d="M1896.86,388.59c3-3.74,4.89,2.83,0,0h0Z" transform="translate(-1561.83 -196.49)"/><path class="cls-11" d="M1905.1,398.26c2.35,3.63,3,1.25,4.71-1.1C1911.35,395,1903.19,394.37,1905.1,398.26Z" transform="translate(-1561.83 -196.49)"/><path class="cls-11" d="M1888.62,401a5.69,5.69,0,0,1,1.27-3.61C1896.62,395.64,1889.28,409,1888.62,401Z" transform="translate(-1561.83 -196.49)"/><path class="cls-11" d="M1876.71,391.69c0.36,4.8,1.85,1.38,3.49,2.23C1883.4,395.58,1875.26,386.54,1876.71,391.69Z" transform="translate(-1561.83 -196.49)"/><path class="cls-11" d="M1861,393.75c5.13-11.66,1.75,8.86,0,0h0Z" transform="translate(-1561.83 -196.49)"/><path class="cls-11" d="M1869,405.62c-0.5-4.56,1.2-3.22,3.53-2.66,4.05,1-3.12,6.44-3.53,2.66h0Z" transform="translate(-1561.83 -196.49)"/><path class="cls-11" d="M1899.27,377.89c1.72,4.51,1.55.22,3.68,0.9C1904.45,379.27,1898.16,374.5,1899.27,377.89Z" transform="translate(-1561.83 -196.49)"/><path class="cls-11" d="M1915.37,374.92c-1.88-5.33,2.74-2.65,3.2-3.17C1919.56,370.62,1915.82,378.67,1915.37,374.92Z" transform="translate(-1561.83 -196.49)"/><path class="cls-11" d="M1914.61,389.49c2.23-2.25,3.25-2.18,3.66,1.2,0.15,1.22-5.25.42-3.66-1.2h0Z" transform="translate(-1561.83 -196.49)"/><path class="cls-11" d="M1922.34,384.46c-3.24,1.55-1.27,1.69-2,3.87C1919.21,391.49,1927.34,383.45,1922.34,384.46Z" transform="translate(-1561.83 -196.49)"/><path class="cls-11" d="M1848.95,365.12c-0.26-5.74,3.07-2.73,3.68-3.35C1854.44,359.91,1848.27,368.6,1848.95,365.12Z" transform="translate(-1561.83 -196.49)"/><path class="cls-11" d="M1852,376.85c3.82,0.14,1.21.68,2.92,1.94S1848.38,379.14,1852,376.85Z" transform="translate(-1561.83 -196.49)"/><path class="cls-11" d="M1862.64,383.95a2.37,2.37,0,0,1,2.92.85c0.76,3.46-6.08.17-2.92-.85h0Z" transform="translate(-1561.83 -196.49)"/><path class="cls-11" d="M1934.38,356.48c-1.12-1.92,3.62-1.44,3.31-1.36s-0.75,5.7-3.31,1.36h0Z" transform="translate(-1561.83 -196.49)"/><path class="cls-11" d="M1944,359.05c2.06-4.73,2.37-.56,3.29-1C1948.48,357.43,1943.35,362.39,1944,359.05Z" transform="translate(-1561.83 -196.49)"/><path class="cls-11" d="M1941.48,349.12a6.5,6.5,0,0,0-1,3.35C1942.54,357.38,1943.49,346.38,1941.48,349.12Z" transform="translate(-1561.83 -196.49)"/><path class="cls-11" d="M1959.1,357.25c1.6,5.69,2.21.72,3.93,1.68s-4.88-5-3.93-1.68h0Z" transform="translate(-1561.83 -196.49)"/><path class="cls-11" d="M1963.41,367.57c0.28-.66,1.47-3.19,2.6-2.81q0.68,1.2,1.38,2.39C1967.76,367.76,1963.25,368.06,1963.41,367.57Z" transform="translate(-1561.83 -196.49)"/><path class="cls-11" d="M1975.07,364.34c-1.82-6.52,3.46-3.79,3.55-4C1978.38,360.95,1975.17,365.13,1975.07,364.34Z" transform="translate(-1561.83 -196.49)"/><path class="cls-11" d="M1984.58,358.8c-0.6,4.17,3.66,1.89,3,0a2.64,2.64,0,0,0-3,0C1984.51,359.26,1984.7,357.9,1984.58,358.8Z" transform="translate(-1561.83 -196.49)"/><path class="cls-11" d="M1984.07,349.38c-0.08,0,6.31-1.76,2.16-2A3.65,3.65,0,0,0,1984.07,349.38Z" transform="translate(-1561.83 -196.49)"/><path class="cls-11" d="M1993.33,355.19c0.56-1.51,0-3.51,2.44-2.64S1993.63,356,1993.33,355.19Z" transform="translate(-1561.83 -196.49)"/><path class="cls-11" d="M1995.73,335.58c-3.17,9.66,9.47.18,0,0h0Z" transform="translate(-1561.83 -196.49)"/><path class="cls-11" d="M2006.26,335.71c-1.81-1.28-3.1-4.34.25-4.85C2007.88,330.65,2006.92,335.82,2006.26,335.71Z" transform="translate(-1561.83 -196.49)"/><path class="cls-11" d="M2001.31,319.07c0.29,1.76.36,8.06,3.91,2.85,3.1-4.57-4.07-3.84-3.91-2.85h0Z" transform="translate(-1561.83 -196.49)"/><path class="cls-11" d="M2008.92,310.17c-6.53,5-1.58-7.53,0,0h0Z" transform="translate(-1561.83 -196.49)"/><path class="cls-11" d="M1997.76,300.76c4.62-.32,2.28,2.15,3.26,2.94C2002.14,304.62,1997.13,300.5,1997.76,300.76Z" transform="translate(-1561.83 -196.49)"/><path class="cls-11" d="M1995.73,294.7c1-.27,6.67-3,6.72-3C1996.61,289.75,1994.9,295.17,1995.73,294.7Z" transform="translate(-1561.83 -196.49)"/><path class="cls-11" d="M1992.56,279.09c-0.52.49-7.78,5.23-7.83,4.17C1984.6,280.28,1992.64,274.09,1992.56,279.09Z" transform="translate(-1561.83 -196.49)"/><path class="cls-11" d="M1982.3,268.25c-0.15.15-8.54,7.7-8.68,5.92C1973.31,270.23,1980,266,1982.3,268.25Z" transform="translate(-1561.83 -196.49)"/><path class="cls-11" d="M1967,267.48c1.68-2.73,4.09-6.13,4.72-9.35,0-.16-7.26,2.12-7.76,3.68C1963.29,263.72,1966.46,268.33,1967,267.48Z" transform="translate(-1561.83 -196.49)"/><path class="cls-11" d="M1966.2,249.81c-0.82.36-7.25,5-8.27,4.31-2.22-1.44,5.16-7,6.37-8.05C1964.58,246.29,1967.25,249.55,1966.2,249.81Z" transform="translate(-1561.83 -196.49)"/><path class="cls-11" d="M1949.34,239.11c0.42-.17,10.22-1.94,9.67-3.39-1.29-3.37-8.08-4.23-10.8-3.45Z" transform="translate(-1561.83 -196.49)"/><path class="cls-11" d="M1962.78,223c-0.47-.35-9.54-5.54-9.61-5.37,2-4.94,13.33-2.26,16.55-1.71C1968.6,215.71,1962.87,221.88,1962.78,223Z" transform="translate(-1561.83 -196.49)"/><path class="cls-11" d="M1957.58,200.41c5.56,1.17,15.79,11.87,15.42,3.31C1972.65,195.35,1962.39,196.07,1957.58,200.41Z" transform="translate(-1561.83 -196.49)"/><path class="cls-11" d="M1882.66,411c0.42,0.63,3.31,6.16-.66,4.14C1880.69,414.51,1882.26,410.73,1882.66,411Z" transform="translate(-1561.83 -196.49)"/><path class="cls-11" d="M1897.24,416.32c-0.6,2.63,2.65,7.61,5,3.76C1904.63,416,1897.49,414.79,1897.24,416.32Z" transform="translate(-1561.83 -196.49)"/><path class="cls-11" d="M1912.33,427.93c0.69-5.2,6.64-2,5.9-.33S1912.17,428.73,1912.33,427.93Z" transform="translate(-1561.83 -196.49)"/><path class="cls-11" d="M1926.52,405.36c0.5,1,1.59,4.69,1.22,5.71-0.51,1.4-4.52-.94-4.14-2.61C1923.74,407.86,1925.84,403.6,1926.52,405.36Z" transform="translate(-1561.83 -196.49)"/><path class="cls-11" d="M1934.26,429.86c0.51,0.29,6.79,1.93,6.46.78C1939.09,424.84,1931.69,426,1934.26,429.86Z" transform="translate(-1561.83 -196.49)"/><path class="cls-11" d="M1935.65,436.57c0.72-.19,4.46-0.84,5-0.09A15.58,15.58,0,0,1,1939,440C1938.38,440.95,1935.31,436.57,1935.65,436.57Z" transform="translate(-1561.83 -196.49)"/><path class="cls-11" d="M1951.12,431c-0.64,2.92.24,5.12,3.58,2.64,0.84-.62-3.35-3.69-3.58-2.64h0Z" transform="translate(-1561.83 -196.49)"/><path class="cls-11" d="M1924.37,429c8.14-3.36-3.89-3.59,0,0h0Z" transform="translate(-1561.83 -196.49)"/><path class="cls-11" d="M1913.85,411.55c5.8,0-.39-3,0.38-3.87C1914,408,1911.85,411.55,1913.85,411.55Z" transform="translate(-1561.83 -196.49)"/><path class="cls-11" d="M1841.47,282.05c2.18,5.25-2,3.39-2.15,3.87C1838.73,287.31,1840.88,279.1,1841.47,282.05Z" transform="translate(-1561.83 -196.49)"/><path class="cls-11" d="M1831.07,280.76c-3.37,3.2-.44.29,0.52,3.24s3.87-7.41-.52-3.24h0Z" transform="translate(-1561.83 -196.49)"/><path class="cls-11" d="M1851.61,278.05c-2,2.53,6.31,4.16,5.2.78-0.32-1-4.6-1.5-5.2-.78h0Z" transform="translate(-1561.83 -196.49)"/><path class="cls-11" d="M1868.09,276.51c0.31,0.49,3.51,1.92,1.24,3.34C1867.67,280.88,1867.4,276.16,1868.09,276.51Z" transform="translate(-1561.83 -196.49)"/><path class="cls-11" d="M1873.41,284.5a2,2,0,0,0,1,2.32c4.66,2.15-1.64-7.05-1-2.32h0Z" transform="translate(-1561.83 -196.49)"/><path class="cls-11" d="M1791.4,358.54c2.82-.57,1.33,2.75-0.38,3.09a2.08,2.08,0,0,1,.38-3.09h0Z" transform="translate(-1561.83 -196.49)"/><path class="cls-11" d="M1744.12,309.66c-1.43,2.45-.63,4.65,2.66,3C1747.79,312.11,1744.86,308.52,1744.12,309.66Z" transform="translate(-1561.83 -196.49)"/><path class="cls-11" d="M1737.14,315.33c0.33,0,4.84-1.09,3.84,1.72C1740.18,319.3,1737.34,315.52,1737.14,315.33Z" transform="translate(-1561.83 -196.49)"/><path class="cls-11" d="M1708.12,314.3a2.86,2.86,0,0,1,2,.9,2.32,2.32,0,0,1-1.77,2.06Q1706.45,315.87,1708.12,314.3Z" transform="translate(-1561.83 -196.49)"/><path class="cls-11" d="M1699.24,347.45c9.36-1.65-3.81-3,0,0h0Z" transform="translate(-1561.83 -196.49)"/><path class="cls-11" d="M1667.68,338.8c0.12-.21,3.13-4.08,3.91-2.84,3.27,5.18-5.08,4.82-3.91,2.84h0Z" transform="translate(-1561.83 -196.49)"/><path class="cls-11" d="M1675.41,328a10.52,10.52,0,0,0-.63,4c3.76,7.65,1.93-9.92.63-4h0Z" transform="translate(-1561.83 -196.49)"/><path class="cls-11" d="M1676.3,315.59c0,0.6-.38,4.71,1.66,3.4C1681.39,316.79,1676.3,315.48,1676.3,315.59Z" transform="translate(-1561.83 -196.49)"/><path class="cls-11" d="M1711.54,287.73a4.24,4.24,0,0,0,.76,2.71,2.11,2.11,0,0,0,2-1.42C1714.84,288.15,1711.51,287.6,1711.54,287.73Z" transform="translate(-1561.83 -196.49)"/><path class="cls-11" d="M1728.91,300.63a5.33,5.33,0,0,1,1.77-2.06C1733.25,299.21,1732,302.13,1728.91,300.63Z" transform="translate(-1561.83 -196.49)"/><path class="cls-11" d="M1745.13,295.86c4.6,0.17,2.12,2.45,2.88,3.45C1749.65,301.44,1740.41,295.51,1745.13,295.86Z" transform="translate(-1561.83 -196.49)"/><path class="cls-11" d="M1762.88,298.44c-0.26.14-3,1.21-2.28,1.93a5.62,5.62,0,0,0,3.68.78C1764.95,301,1763.58,297.72,1762.88,298.44Z" transform="translate(-1561.83 -196.49)"/><path class="cls-11" d="M1770.86,299.6a5.13,5.13,0,0,0,0,3.09c0.83,0.84,4.68-1.42,5-2.44C1776.31,298.94,1770.86,297.71,1770.86,299.6Z" transform="translate(-1561.83 -196.49)"/><path class="cls-11" d="M1798,292.12c0.57,0,3.57,2.61,3-.64A2.47,2.47,0,0,0,1798,292.12Z" transform="translate(-1561.83 -196.49)"/><path class="cls-11" d="M1682.38,278.18c0.76,1.29,3.17,4.41,3.17.13C1685.55,277.67,1682.27,277.28,1682.38,278.18Z" transform="translate(-1561.83 -196.49)"/><path class="cls-11" d="M1689.86,281.8a4.6,4.6,0,0,1,2.28-2.58c4.61,3.13-3.24,3.55-2.28,2.58h0Z" transform="translate(-1561.83 -196.49)"/><path class="cls-11" d="M1679,284.89c0.2,0.92,2,4.62,3,.52,0.3-1.21-3.24-1.44-3-.52h0Z" transform="translate(-1561.83 -196.49)"/><path class="cls-11" d="M1671.23,305.27c2.13-2.51,2.38,2.63,1.93,2.12,0.37,0.41-3.89.21-1.93-2.12h0Z" transform="translate(-1561.83 -196.49)"/><path class="cls-11" d="M1654.24,353c2.8,3.74-.43,2.72-0.63,4.77C1653.49,359,1651.28,351,1654.24,353Z" transform="translate(-1561.83 -196.49)"/><path class="cls-11" d="M1647.53,362.79a2.39,2.39,0,0,0,1.52,2.45,4.62,4.62,0,0,0,2-2.58C1650.88,362.58,1647.05,361.83,1647.53,362.79Z" transform="translate(-1561.83 -196.49)"/><path class="cls-11" d="M1663.37,352.93c3.45-.92,3.94-6.45.08-6C1662.1,347.14,1661.45,352.77,1663.37,352.93Z" transform="translate(-1561.83 -196.49)"/><path class="cls-11" d="M1668.44,371.05c0,2.51,4.87,6.75,5,1.88C1673.62,369.5,1668.44,369.17,1668.44,371.05Z" transform="translate(-1561.83 -196.49)"/><path class="cls-11" d="M1680.1,375a3.28,3.28,0,0,1-.12-3.1C1685.08,370,1680.92,376.72,1680.1,375Z" transform="translate(-1561.83 -196.49)"/><path class="cls-11" d="M1669.71,354.54c0,0.35-.88,3.22.71,2.84C1673.27,356.69,1669.71,354.66,1669.71,354.54Z" transform="translate(-1561.83 -196.49)"/><path class="cls-11" d="M1661.47,364.34c-0.07,0,4.93-2.19,2.66,1A2.06,2.06,0,0,1,1661.47,364.34Z" transform="translate(-1561.83 -196.49)"/><path class="cls-11" d="M1640.81,368.21c0-3.33,3.85-1,3.85.22C1644.65,369.27,1640.81,370.13,1640.81,368.21Z" transform="translate(-1561.83 -196.49)"/><path class="cls-11" d="M1643.6,378.27c7.77-3.19-1.55,3.15,0,0h0Z" transform="translate(-1561.83 -196.49)"/><path class="cls-11" d="M1627,370.28c2.61-1.33,2.36,3.73,1.14,3.35A2.51,2.51,0,0,1,1627,370.28Z" transform="translate(-1561.83 -196.49)"/><path class="cls-11" d="M1628.26,379.3c0.23-.4,2.28-1.29,2.15.39S1627.75,380.21,1628.26,379.3Z" transform="translate(-1561.83 -196.49)"/><path class="cls-11" d="M1630.41,386.91c0.92-.31,5.6-1.43,3,2C1632.87,389.73,1629.14,388,1630.41,386.91Z" transform="translate(-1561.83 -196.49)"/><path class="cls-11" d="M1630.67,400.84c4,1.39.94,2.27,1.65,3.74,0.84,1.75-5-4.87-1.65-3.74h0Z" transform="translate(-1561.83 -196.49)"/><path class="cls-11" d="M1636,419.16c0.18-.48,1.5-3.75,2.28-3.48C1643.19,417.36,1635.34,425.1,1636,419.16Z" transform="translate(-1561.83 -196.49)"/><path class="cls-11" d="M1628.26,414.9a3.52,3.52,0,0,1,2.41.9,3.73,3.73,0,0,1-2.44,3C1627.69,418.87,1626.7,414.9,1628.26,414.9Z" transform="translate(-1561.83 -196.49)"/><path class="cls-11" d="M1634.47,408.58a2.62,2.62,0,0,0,1,2.06C1640.19,412,1633.92,405.22,1634.47,408.58Z" transform="translate(-1561.83 -196.49)"/><path class="cls-11" d="M1643.09,409.36c0.16-.19,1.44-5.1,2.66-0.78C1646.43,411,1643,409.36,1643.09,409.36Z" transform="translate(-1561.83 -196.49)"/><path class="cls-11" d="M1648.79,403.94c-0.3-.36.79,4.29,1.78,1.8C1650.8,405.17,1649.24,402.8,1648.79,403.94Z" transform="translate(-1561.83 -196.49)"/><path class="cls-11" d="M1626.36,430.64a3,3,0,0,0,1.52,2.45C1634.51,433.09,1625,425.81,1626.36,430.64Z" transform="translate(-1561.83 -196.49)"/><path class="cls-11" d="M1620.4,439.54c1.11,1.31,3.14,2.56.25,3.74Q1618.59,441.84,1620.4,439.54Z" transform="translate(-1561.83 -196.49)"/><path class="cls-11" d="M1632.06,438.25c-0.58.5-4.32-.06-2.28,2.71Q1632.12,441.13,1632.06,438.25Z" transform="translate(-1561.83 -196.49)"/><path class="cls-11" d="M1720.28,419.93a2.34,2.34,0,0,0-.12,2.84,4.48,4.48,0,0,0,2.66-.64c-0.18-.29-2.07-2.67-2.54-2.19h0Z" transform="translate(-1561.83 -196.49)"/><path class="cls-11" d="M1720.54,436.44c4.78-.22,3.08,5.3.86,5.13C1720.52,441.5,1719.4,436.73,1720.54,436.44Z" transform="translate(-1561.83 -196.49)"/><path class="cls-11" d="M1731.31,428.83c-0.06.57-.94,5.55-2.47,4.5C1723.42,429.59,1731.75,427.07,1731.31,428.83Z" transform="translate(-1561.83 -196.49)"/><path class="cls-11" d="M1736.26,423.16c-2.27,1.54-2.7,1.4-.76,3.87,0.49,0.62.88-3.95,0.76-3.87h0Z" transform="translate(-1561.83 -196.49)"/><path class="cls-11" d="M1716.74,412.84c2,1.65-.26,2.31.25,3A2.6,2.6,0,0,1,1716.74,412.84Z" transform="translate(-1561.83 -196.49)"/><path class="cls-11" d="M1722.82,448.44c3.06-1.57,1.14,2.55,1.22,2.72,0.19,0.42-4.67-1-1.22-2.72h0Z" transform="translate(-1561.83 -196.49)"/><path class="cls-11" d="M1732.33,382.79a1.64,1.64,0,0,0-.13,2.45c3.66,3.35,1-5.52.13-2.45h0Z" transform="translate(-1561.83 -196.49)"/><path class="cls-19" d="M1685.93,377.89c-5.76-7.23-9.88-16.68-9.38-26.05,0.94,3.42,2.83,17.22,8.25,17.31-4.17-.07-1.67-26.61-1.4-28.14a117.61,117.61,0,0,0,2.65,22.35c2,8.64,7,14.36,10,22C1695.22,383.17,1687.81,379.35,1685.93,377.89Z" transform="translate(-1561.83 -196.49)"/><path class="cls-13" d="M1672.75,273.67c8.12-.62,15.62,3.51,23.15,3.51a22.48,22.48,0,0,1-2.74-.42c2.54,0.32,22.52,6.42,21.16,9.16C1715,284.55,1677.5,273.13,1672.75,273.67Z" transform="translate(-1561.83 -196.49)"/><path class="cls-21" d="M1627.24,374.61c1-4.33,5.31-5.57,8.32-8.31,5.42-4.94,9.12-11.74,13.58-17.48,5.78-7.43,14.6-9.87,20.45-17,5.42-6.59,5.51-15,4.7-23-0.62-6.12-2.6-12.6-2.83-18.69,0,0.11.3-8.5,1-7.51-6.14-9-25.89,27.33-27.88,31.09C1634.09,333.5,1621.86,351.36,1627.24,374.61Z" transform="translate(-1561.83 -196.49)"/><path class="cls-10" d="M1603.93,279.9c-5.8,6.47-7.65,11.63-8,20.33-0.22,5.19.17,7.66-2.41,12.28-2.06,3.68-5.38,5.78-6.32,10.21,0.82-1.27,2.68-4.11,4.23-4.46-5.24,1.18-2.77,22.21-2,24.75,1.51,5.06,4.5,15.57,8.43,18.86a14.83,14.83,0,0,1,0-3.82c-0.41,2.51,3.39,5.59,4.85,6.52-0.2-.1-2.3-3-0.2-1.85,2.41,1.28,3.34,2.92,6.3,4.08-0.28.42-1.39-1.94-1.4-2a7.9,7.9,0,0,0,3.9,2.6,1.05,1.05,0,0,0-.16-1.59c0.89,2.76,8,1.94,9.07.13a10.76,10.76,0,0,1-2.34,2.1c2.1-1.07,6.61-.47,9.21-1.34,6.08-2,10.13-5.8,14.1-10.74,5.8-7.21,18.6-19,20.17-27.87,0,0-.52,6.07-1,5.88,3.5,1.54,5.53-11.64,5.49-12.41,0.82,0,.31,5.07.31,5.25a29.94,29.94,0,0,0,2.66-3.35c2.44-4,2.6-9.6,2.22-14.12-0.79-9.28-7.27-16.9-1.44-24.71,5.49-7.36,14-15,2.49-23.27-8.57-6.21-18.51-1.48-19.85,8.79a23.23,23.23,0,0,0-5.95-4.78,7.81,7.81,0,0,1,.63,2.39c-0.15-1.34-10.59-3.38-11.72-3.45-5.15-.34-17.12,2.1-21.13,5.84-5.77-5.9-7.57-20-19.22-11.37C1578.59,270.85,1602.11,283.29,1603.93,279.9Z" transform="translate(-1561.83 -196.49)"/><path class="cls-3" d="M1603,279.93a31.06,31.06,0,0,0-8,19.78c-0.28,5.09-.16,9.58-3.1,14-2.08,3.15-4.61,5.43-5.67,9.16-0.19.65,1.72,0.15,1.93-.18,0.94-1.44,2-3.36,3.67-4.11,1.31-.6.09-0.94-0.75-0.64-5.88,2.08-4,14.45-3.55,19,0.76,8.27,3.25,19.43,9.39,25.3,0.38,0.36,2,0,2-.64v-3.7l-2,.42c0.09,2.93,2.66,5.06,4.91,6.62,0.42,0.29,2.36-.23,1.89-0.74-0.22-.24-1.26-1.41-0.95-1.77l-1.75.47c2.56,0.91,4.54,3.18,7,4.34l1.64-.88a6.65,6.65,0,0,1-1.21-1.79l-2,.64a10.21,10.21,0,0,0,4,2.67,1.74,1.74,0,0,0,1.82-.59c0.4-1.07.43-.66-0.15-1.71l-2,.54c1.88,3.37,8.73,2.36,11-.17,0.51-.56-1.48-0.33-1.86.06l-2.2,2c-0.85.66,0.87,0.52,1.17,0.41,2.66-.94,5.61-0.45,8.33-1.11a23,23,0,0,0,6.58-2.93c4.36-2.72,7.43-6.67,10.74-10.51,6.58-7.64,16.19-15.6,18.47-25.88l-2,.31c-0.16,1.11.11,4.86-.74,5.63-0.16.14-.38,0.45,0,0.53,5.72,1.42,7.17-9.51,7.33-13.12l-2,.64c1,0.85.33,4,.25,5-0.05.74,1.54,0.11,1.8-.06,6.61-4.28,5.83-16.24,4.25-22.61-1.52-6.12-4.78-12.3-1.42-18.39,2.28-4.13,6.09-7.29,8-11.67,3.52-8-4.57-15.65-12.4-16.13-7.52-.46-12.94,5.07-14.16,12.18l2-.52a28.56,28.56,0,0,0-5.95-4.78c-0.34-.19-2.19,0-2,0.64a7.81,7.81,0,0,1,.63,2.39l2-.54c-1-1.83-4.93-2.2-6.72-2.62a28.85,28.85,0,0,0-7.43-1.07c-6.71.2-15.21,1.85-20.51,6.25l1.74-.27c-3.65-4-5.73-12.59-11.63-14-5.56-1.35-12.57,4.17-14.57,9-2.45,5.91,2.44,11.33,7.25,14.11,2,1.18,6.75,3.54,8.77,1,0.47-.61-1.51-0.39-1.86.06-1.16,1.48-8-3.77-8.81-4.54-3-2.84-5.05-6.78-3.34-10.9a12.35,12.35,0,0,1,9.42-7.25c3.43-.39,4.69,1,6.53,3.62,2.23,3.18,3.72,6.79,6.36,9.69,0.35,0.38,1.43,0,1.74-.27,4.7-3.9,13-5.71,19.06-5.48,2.49,0.1,10.67.87,12,3.27,0.29,0.52,2.14.07,2-.54a7.81,7.81,0,0,0-.63-2.39l-2,.64a28.6,28.6,0,0,1,5.95,4.78c0.35,0.35,1.86,0,2-.52,0.91-5.29,3.95-10.67,10.15-10.93,4.87-.2,10.73,3.66,12.68,8.13,3.24,7.4-5.16,13.18-8.31,18.84-3.73,6.7.41,13.62,1.77,20.37,1.16,5.73,1.68,16.53-4.17,20.31l1.8-.06c0.11-1.46.82-4.42-.37-5.47-0.42-.37-1.93,0-2,0.64a29.33,29.33,0,0,1-2.5,9.93c-0.7,1.6-.92,3-0.59.88,0.24-1.56.35-3.14,0.57-4.7,0.09-.65-1.89-0.26-2,0.31-2,9.17-10.23,16.56-16.27,23.32-3.24,3.62-6.11,7.75-10,10.76s-8,4.1-12.85,4.59a15.65,15.65,0,0,0-3.78.81l1.17,0.41a13.81,13.81,0,0,0,2.48-2.22l-1.86.06c-1.43,1.59-6,1.67-7.13-.43-0.33-.58-2.26.11-2,0.54l0.16,1.47,1.82-.59a8.71,8.71,0,0,1-3.78-2.53c-0.33-.35-2.2.15-2,0.64,0.38,0.76.76,1.81,1.59,2.13,0.48,0.18,2.39-.53,1.64-0.88-2.52-1.17-4.42-3.41-7-4.34a1.89,1.89,0,0,0-1.75.47c-0.68.75,0.36,1.85,0.91,2.45l1.89-.74c-2.2-1.52-4.69-3.57-4.78-6.43,0-.5-2-0.1-2,0.42a16.75,16.75,0,0,0,0,3.94l2-.64c-6.14-5.87-8.59-17.27-9.3-25.57-0.38-4.42-.74-9.25.27-13.61,0.26-1.13,2.11-3.95.27-3.91-1.35,0-3.21,3.5-3.76,4.34l1.93-.18c1.15-4,4.21-6.57,6.25-10.09a18.51,18.51,0,0,0,2.38-8.73c0.45-9.48,1.65-16.52,8-23.88C1605.35,279.3,1603.37,279.5,1603,279.93Z" transform="translate(-1561.83 -196.49)"/><path class="cls-22" d="M1597.33,302.65c0.21,14.53,22-1.94,0,0h0Z" transform="translate(-1561.83 -196.49)"/><path class="cls-23" d="M1597.68,298c3.34-2.83,6.38-.25,8,3.27,4.4,9.5-8.9,6.62-8.87.27a7.91,7.91,0,0,0,1.15,3.3c0.14,0.15.44-5.62,0.75-5.92a1.79,1.79,0,0,0-1.54,1.25A1.62,1.62,0,0,1,1597.68,298Z" transform="translate(-1561.83 -196.49)"/><path class="cls-24" d="M1597.27,300.52c0.77-7.89,11.29,2,9.53,4.94-3,5.05-9.94-.66-9.53-4.94h0Z" transform="translate(-1561.83 -196.49)"/><path class="cls-25" d="M1604.91,302.59c0.25,5-5,4.91-5.22.09-0.2-5,5-4.9,5.22-.09C1605,304.79,1604.8,300.38,1604.91,302.59Z" transform="translate(-1561.83 -196.49)"/><path class="cls-26" d="M1604.7,301.73l-0.94,1.58q-2.12-1.48-.16-3.13l1.1,1.55C1604.74,302.59,1604.66,300.86,1604.7,301.73Z" transform="translate(-1561.83 -196.49)"/><path class="cls-27" d="M1606.8,305.46c-0.69-3.73-8-12.49-9.53-4.94s9.76,6.2,9.53,4.94C1606.06,301.49,1606.94,306.25,1606.8,305.46Zm-4.3,1.16c-4.1.12-7.58-6.81-3.29-8.52,3.56-1.41,8.54,8.36,3.29,8.52h0Z" transform="translate(-1561.83 -196.49)"/><path class="cls-28" d="M1594.37,261.47c8.72-10.52,18.78,6.64,12.89,13.55-7.18,8.42-20.91-3.87-12.89-13.55h0Z" transform="translate(-1561.83 -196.49)"/><path class="cls-13" d="M1596.76,304.41c1.61,3.91,5.66,4.67,9.63,4-1.53.67-4.78,1.24-6.44,0.55a11.86,11.86,0,0,0,3.1.8c-1.43,0-6.83-.49-6.33-3.44a11.42,11.42,0,0,1,1.58,1A27.9,27.9,0,0,1,1596.76,304.41Z" transform="translate(-1561.83 -196.49)"/><path class="cls-29" d="M1622.62,278.71c-5.55,8.18-8.73,14.58-8.45,24.83-0.85-7.8,4.25-18.66,8.45-24.83h0Z" transform="translate(-1561.83 -196.49)"/><path class="cls-30" d="M1608.78,366.81l-0.49-.2C1608.48,366.89,1608.64,367,1608.78,366.81Z" transform="translate(-1561.83 -196.49)"/><path class="cls-31" d="M1667.23,317.29c0.41-5-5.06,7.74-5.08,7.66a14.19,14.19,0,0,1,.18-4.17c-3.07,8.76-13.39,15.1-22.23,16-9.86,1-13.34-4.8-16.42-13.59,1.47,11.83-6.26,15-16.45,14.09-4.26-.39-19.76-3.41-12.67-10.57-10.64,8.63,1.24-12.13,1.86-14.16,0,0.15-5.6,6.52-5,3a18.93,18.93,0,0,0-4.3,7.45c0.82-1.26,2.66-4,4.19-4.38-5.19,1.16-2.75,21.82-2,24.34,1.5,5,4.49,15.33,8.36,18.54a14.4,14.4,0,0,1,0-3.76c-0.42,2.47,3.39,5.51,4.81,6.42-0.14-.07-2.25-3-0.24-1.87,2.2,1.19,3.15,2.76,5.82,3.86a1.74,1.74,0,0,1-.91-1.72A7.83,7.83,0,0,0,1611,367a1,1,0,0,0-.15-1.56c0.89,2.72,7.92,1.91,9,.13a10.64,10.64,0,0,1-2.32,2.06c2.1-1.06,6.56-.46,9.14-1.32,6-2,10-5.69,14-10.56,5.73-7.07,18.46-18.71,20-27.4-0.05.05-.75,5.87-0.95,5.78,3.47,1.51,5.49-11.42,5.45-12.2,0.81,0,.31,5,0.31,5.17,0-3.52,5.24-9.81,5-15.32,0,1.3-3.61,8.87-3.33,5.53h0Z" transform="translate(-1561.83 -196.49)"/><path class="cls-11" d="M1607.13,305.09c1.77,16-23.34,23.44-16.66,41.42-6.65,0,4.81-21.78,5.3-22.45C1597.78,321.31,1609.54,305.3,1607.13,305.09Z" transform="translate(-1561.83 -196.49)"/><path class="cls-11" d="M1603.46,349.46c-3.62,3.42-8.69,5.73-11.11.28,3.38,7,8.26-1.06,11.52-1.12,0.64,0,4.12,3.52,5,3.92,4,1.81,8.49,1.43,12.56.18-6.07,2.64-13.63,2.31-18-3.26C1594.7,357.74,1610.18,358.06,1603.46,349.46Z" transform="translate(-1561.83 -196.49)"/><path class="cls-11" d="M1603.33,348.37c-0.91-2.5-.42-5.74-0.13-8.32C1603.25,341.9,1603.28,346.36,1603.33,348.37Z" transform="translate(-1561.83 -196.49)"/><path class="cls-22" d="M1623.24,309.16c6.83-1.86,13.81,6,20.63-2C1638.82,307.8,1624.28,299.57,1623.24,309.16Z" transform="translate(-1561.83 -196.49)"/><path class="cls-23" d="M1624.09,306c4.1-7.33,22.52-14.92,23.17-1.44,1.05-1.7-4.73-5.3-7.07-.63-2,4,3.54,5.74,4.36,2.16C1642.8,313.78,1627.65,308.51,1624.09,306Z" transform="translate(-1561.83 -196.49)"/><path class="cls-32" d="M1645,302.92c-1.22-9.18-20.49-3.94-19.85,2.88,0.4,4.23,21.13,6.61,19.85-2.88C1644.58,299.71,1645.14,303.93,1645,302.92Z" transform="translate(-1561.83 -196.49)"/><path class="cls-33" d="M1641.18,305.18c-3.06,6.13-13.4,4-10.52-3.37,2.47-6.36,14.16-3.94,10.52,3.37C1639.72,308.1,1642.63,302.25,1641.18,305.18Z" transform="translate(-1561.83 -196.49)"/><path class="cls-26" d="M1640.68,303.3c-2.18,4.38-3.12-1-3.06-1-0.16,0,5.22-3.36,3.06,1h0Z" transform="translate(-1561.83 -196.49)"/><path class="cls-34" d="M1644.31,306c5.73-9.84-18.07-10.3-18.56-.94-0.27,5.18,15.7,5.83,18.56.94h0Zm-7.25,3c-12.39-1-7.93-11.8,1.81-9.89,8.33,1.63,6.19,10.53-1.81,9.89h0Z" transform="translate(-1561.83 -196.49)"/><path class="cls-15" d="M1626.85,307.12c-8.44,12.77,10.88,27.41,1.64,39.16,3.49-7.13-1.37-14.4-3.67-20.91C1623.5,321.62,1619.44,303.88,1626.85,307.12Z" transform="translate(-1561.83 -196.49)"/><path class="cls-11" d="M1621,353c22.25-12.3-11.22-34.44,4.58-48.35-7.76,17.36,15.83,36.48-4.58,48.35C1633.65,346,1635.76,344.36,1621,353Z" transform="translate(-1561.83 -196.49)"/><path class="cls-35" d="M1597.83,358.06c0,0.06-.62,3.79,0,0C1597.75,358.34,1597.78,358.37,1597.83,358.06Z" transform="translate(-1561.83 -196.49)"/><path class="cls-10" d="M1608.78,366.81l-0.49-.2C1608.48,366.89,1608.64,367,1608.78,366.81Z" transform="translate(-1561.83 -196.49)"/><path class="cls-3" d="M1609.36,366.11l-0.49-.2c-0.59-.25-2.09.36-1.5,1.16a1.41,1.41,0,0,0,2.26.07,0.63,0.63,0,0,0-.27-1,1.36,1.36,0,0,0-1.43.38l-0.07.07,0.66-.4-0.07,0,0.77,0q0.19,0.17,0-.05l-1.5,1.16,0.49,0.2a1.33,1.33,0,0,0,1.43-.38A0.62,0.62,0,0,0,1609.36,366.11Z" transform="translate(-1561.83 -196.49)"/><g class="cls-5"><path class="cls-14" d="M1659.22,318.45c-0.07,0,.38-4.08-0.25-3.41-3.28,3.49-5.47,10.48-7.47,14.63-3,6.25-6.58,11.29-10.38,17.14-3.3,5.09-5.16,11.34-9.93,15.38-4,3.4-9.2,3.74-13.33,5.89,2.1-1.07,6.61-.47,9.21-1.34,6.08-2,10.13-5.8,14.1-10.74,5.8-7.21,18.6-19,20.17-27.87,0,0-.52,6.07-1,5.88,3.5,1.54,5.53-11.64,5.49-12.41,0.82,0,.31,5.07.31,5.25a51.66,51.66,0,0,0,3.14-4.49c1.92-3.94,2.1-8.71,1.74-13-0.93-10.95-7.5-16.85-.33-25.42,6.25-7.47,12-17.36-.57-22.88-4.06-1.78-7.84-2.22-11.49.53-0.87.66-5.52,10.2-6,9.75,6.32,7.46,9.39,17.46,10.17,27.07a38,38,0,0,1-1.38,15.27c-0.1.28-4.37,8.87-2.26,4.75C1658.05,318.34,1658,320.84,1659.22,318.45Z" transform="translate(-1561.83 -196.49)"/></g><g class="cls-5"><path class="cls-14" d="M1596.11,357.26c1.37,2.09-6.16-2,1.72,4.62,0.3-2.2-.56-2.83-1.72-4.62h0Z" transform="translate(-1561.83 -196.49)"/></g><g class="cls-5"><path class="cls-14" d="M1615.35,365.14c-2.13.12-3.49-.29-4-2.15,0.06-.11-2.5,2.62-2.49,2.63,0.21,0.11-10.17-8.13-9.47-8.4-1.24.49,1.38,4.9-1.32,2.33a10.82,10.82,0,0,0,4.61,5c-0.13-.06-2.28-3-0.24-1.9,2.22,1.21,3.17,2.8,5.86,3.93a1.83,1.83,0,0,1-.92-1.76,7.9,7.9,0,0,0,3.9,2.6,1.05,1.05,0,0,0-.16-1.59c2.05,6.36,8.91-1.82,9.93-2.11a19.78,19.78,0,0,1-5.7,1.4h0Z" transform="translate(-1561.83 -196.49)"/></g><path class="cls-28" d="M1668.38,261.59c-12.53-6.65-16.7,18.53-4.93,20.26C1675,283.54,1680.35,265.36,1668.38,261.59Z" transform="translate(-1561.83 -196.49)"/><path class="cls-36" d="M1622.74,293.82c0,0.78.75,4.67,0.72,4.82a11.83,11.83,0,0,0-.07-2.19c1.5,3.22.47,1.81,1,.75a2,2,0,0,0,1,1.25c-0.07,0,1.15-8.08.58-8.41a15.55,15.55,0,0,0-.73,2.62s-0.58-2.3-.84-1.86C1623.4,292.44,1622.85,291.31,1622.74,293.82Z" transform="translate(-1561.83 -196.49)"/><path class="cls-36" d="M1609.87,292.79c-0.52,1.23-2,2.62-1.82,4.14a13.61,13.61,0,0,1,.18-2.84,5.83,5.83,0,0,0-.87,1.87c0.14-.71.52-6.41,2.64-5.79C1609.29,290,1609.88,292.74,1609.87,292.79Z" transform="translate(-1561.83 -196.49)"/><path class="cls-37" d="M1598.3,338.31a5.64,5.64,0,0,0,9.39.16C1608.41,337.48,1598.31,338.32,1598.3,338.31Z" transform="translate(-1561.83 -196.49)"/><path class="cls-38" d="M1597.07,334.91c1.24,4.44,10,7.78,11.7,1.82C1610.42,331.09,1596.36,330.9,1597.07,334.91Z" transform="translate(-1561.83 -196.49)"/><path class="cls-11" d="M1596.05,335.18c1.14,3.44,5.23,5.57,8.73,5.2,2.67-.28,6.51-3.06,4.76-6.13-1.42-2.48-5.51-2.73-8-2.52-1.85.15-5.76,0.87-5.49,3.45,0.05,0.51,2.09.1,2-.54-0.37-3.55,8.12-1.85,9.38.09a2.76,2.76,0,0,1,.13,2.66c-0.7,1.78-2.23,2.32-4,1.89a7.61,7.61,0,0,1-5.47-4.64C1597.89,334.06,1595.87,334.64,1596.05,335.18Z" transform="translate(-1561.83 -196.49)"/><path class="cls-39" d="M1600.48,333.36c1.82,0.06,5.7-.28,7.19,1,3,2.59-10.69,3-9.05-.53l1.86-.48h0Z" transform="translate(-1561.83 -196.49)"/><path class="cls-40" d="M1598.3,352.8c4.67-.48,9.3.71,13.77,2.07-1.13-.38-8.61-4.84-8-6.17C1603.33,350.29,1600,352.38,1598.3,352.8Z" transform="translate(-1561.83 -196.49)"/><path class="cls-13" d="M1646.81,307c-2.34,4.32-6.08,3.49-9.94,5.26,0.1,0,3.23.86,3.65,0.53-2.17,1.73-12.71-1.5-11.37-.73,0,0-2.8-1.07-2.78-1,0.37,0.94-1.4,6.09.57,11.39,0.87,2.35,4.92,6.38,5.23,8.12-0.78-4.48-6.9-13.59,1.28-9.76-11.14-5.21,2.4-5,2.87-5.24a6.45,6.45,0,0,0-1.2-.71c1.48,0.31,10-.6,10.1-2.65a6.88,6.88,0,0,1-2-.16C1645,310.81,1647,309.44,1646.81,307Z" transform="translate(-1561.83 -196.49)"/><path class="cls-19" d="M1607.84,274c0.88-5.45-.95-15.07-7.89-9.86C1591.47,270.51,1601.33,276.21,1607.84,274Z" transform="translate(-1561.83 -196.49)"/><path class="cls-19" d="M1661,281c-4.53-4.45-6.17-15.62,2.64-12.77C1673.36,271.37,1668.67,279.38,1661,281Z" transform="translate(-1561.83 -196.49)"/><path class="cls-13" d="M1608.54,264.62c0.42,1.68,0,5.29,1.05,6.69-1.43-2,2.7-2.86,2.7-1.92,0-2.37-4.15-5.37-4.21-6.45Z" transform="translate(-1561.83 -196.49)"/><path class="cls-11" d="M1561.83,359.13c9-5.43,23.26-15.23,34-15C1584.64,343.83,1570.31,353.95,1561.83,359.13Z" transform="translate(-1561.83 -196.49)"/><path class="cls-11" d="M1594.41,343.3c-9.11-.37-22.7,3.26-30.45,8C1571.11,346.89,1586,342.92,1594.41,343.3Z" transform="translate(-1561.83 -196.49)"/><path class="cls-11" d="M1593.88,341.79c-10.46.7-22.68,0-31.48,6.72C1570.64,342.26,1584.12,342.36,1593.88,341.79Z" transform="translate(-1561.83 -196.49)"/><path class="cls-11" d="M1648.07,358.8c-8.47-4.84-21.59-13.38-31.55-13.16C1627,345.37,1639.93,354.27,1648.07,358.8Z" transform="translate(-1561.83 -196.49)"/><path class="cls-11" d="M1617.45,344.74c9.07-.8,22.83,2.18,30.79,6.57C1640.83,347.22,1625.91,344,1617.45,344.74Z" transform="translate(-1561.83 -196.49)"/><path class="cls-11" d="M1618.69,344c10.47-.29,22.57-2.16,32,3.73C1641.81,342.28,1628.51,343.69,1618.69,344Z" transform="translate(-1561.83 -196.49)"/><path class="cls-41" d="M1618.31,343.57h0Z" transform="translate(-1561.83 -196.49)"/><path class="cls-42" d="M1620.18,342.93h0Z" transform="translate(-1561.83 -196.49)"/><path class="cls-43" d="M1616,344.61h0Z" transform="translate(-1561.83 -196.49)"/><path class="cls-44" d="M1594.25,345.23h0Z" transform="translate(-1561.83 -196.49)"/><path class="cls-45" d="M1594.61,342.72h0Z" transform="translate(-1561.83 -196.49)"/><path class="cls-46" d="M1592.7,341h0Z" transform="translate(-1561.83 -196.49)"/><path class="cls-47" d="M1594.82,341.74h0Z" transform="translate(-1561.83 -196.49)"/><path class="cls-48" d="M1592.26,343.65h0Z" transform="translate(-1561.83 -196.49)"/><path class="cls-49" d="M1592.49,345.18h0Z" transform="translate(-1561.83 -196.49)"/><path class="cls-50" d="M1618,346.75h0Z" transform="translate(-1561.83 -196.49)"/><path class="cls-51" d="M1616.78,346.63h0Z" transform="translate(-1561.83 -196.49)"/><path class="cls-52" d="M1615.49,343.65h0Z" transform="translate(-1561.83 -196.49)"/><path class="cls-53" d="M1617.51,344.72h0Z" transform="translate(-1561.83 -196.49)"/><path class="cls-54" d="M1617.16,343.29h0Z" transform="translate(-1561.83 -196.49)"/><path class="cls-55" d="M1615.53,345.68h0Z" transform="translate(-1561.83 -196.49)"/><path class="cls-56" d="M1596.16,345.38h0Z" transform="translate(-1561.83 -196.49)"/><path class="cls-57" d="M1596.22,343.05h0Z" transform="translate(-1561.83 -196.49)"/><path class="cls-58" d="M1619.85,346.75h0Z" transform="translate(-1561.83 -196.49)"/><path class="cls-11" d="M1664.16,299.32c-0.8,3,.57,1.93,1.09,3C1666.55,305,1666.17,294.79,1664.16,299.32Z" transform="translate(-1561.83 -196.49)"/><path class="cls-11" d="M1656.49,309.66c-2.5,4.66.77,2.52,1.24,4.49,0.4,1.69,1-8.64-1.24-4.49h0Z" transform="translate(-1561.83 -196.49)"/><path class="cls-11" d="M1663.84,311.41c-2.2,5.65,2.2,2.43,2.19,2.39-0.38-1.36-2.33-2-2.19-2.39h0Z" transform="translate(-1561.83 -196.49)"/><path class="cls-11" d="M1662,319.37c0.06-.46.35,5.38-1.19,3.09S1662,320.21,1662,319.37Z" transform="translate(-1561.83 -196.49)"/><path class="cls-11" d="M1656.49,323.35c0-.67-2,5.89,1.09,2.71C1658.24,325.39,1657.2,322.4,1656.49,323.35Z" transform="translate(-1561.83 -196.49)"/><path class="cls-11" d="M1652.74,330.84s0.41-3.81,1.29-2.81C1655.82,330.09,1653,333.76,1652.74,330.84Z" transform="translate(-1561.83 -196.49)"/><path class="cls-13" d="M1622.86,303.3a20.8,20.8,0,0,1,12.59-7.43c6.22-1.09,9.16,3,13.42,3.11-2.24,0-7-7.47-11.17-6,1.38-.5,9.06,0,9.87,1.32-1.08-1.73-10.94-3.44-11.76-2.76,3-2.46,7.91-.34,10.67-1.87,0.87-.49-18-1.82-17.13-0.29-1.7-3,11.13-5.39,11.94-5.74-0.72.31-6.77-2.22-8.8-1.63,0.93-.27,12.55-1.75,12.53-1.78-2-3.47-13.2-.82-14.08-2.67s8.95-2.81,9.39-3.21c-0.28.26-8.21-3.09-8.74-2.61,0.76-.68,5.85-3.33,6.42-2.93-3.89-2.72-25,1.51-24,3.63,0.14,0.3,8.35-.77,8.75-0.94-1.13.47-12.6,3.88-12.52,4-0.35-.32,8.26.44,7.54,0.75s-4.12,2.29-2.33,1.56c-0.36.15-6.58,0.81-6.33,1.32,0,0,4.68,1.24,3.94,1.82-1,.79-5.07,1-6.26.57,1,0.37,5.24,1.22,4.48,3.25-0.48,1.29-7.56,2.16-9.09,3.41,0.82-.67,8,0.32,8.07,2.16,0,0.39-7.48-.06-7.1,1.67,0.07,0.32,7.22,2.6,5.41,3.76a5.75,5.75,0,0,1-3.25.16c4.59,1.56,4.83,12.93,3.45,16.46-2.41,6.16-15.41,11.57-9.71,18.6,3.13,3.86,15,3.32,18.33.19C1623.42,325.37,1618.53,311.12,1622.86,303.3Z" transform="translate(-1561.83 -196.49)"/><path class="cls-11" d="M1624,271.54a1.35,1.35,0,0,0-1.49,1.51C1624.53,277.09,1625.68,269.86,1624,271.54Z" transform="translate(-1561.83 -196.49)"/><path class="cls-11" d="M1613.47,273.21c-0.24.86-2,3.34,0.78,3.34s-0.58-4.06-.78-3.34h0Z" transform="translate(-1561.83 -196.49)"/><path class="cls-11" d="M1628,276.08a2,2,0,0,0-1.8,1.59C1627.14,281,1630.19,276.08,1628,276.08Z" transform="translate(-1561.83 -196.49)"/><path class="cls-11" d="M1635.06,271.06a1.25,1.25,0,0,0-1,1.91c1.72,1.17,3.54-1.46,1-1.91h0Z" transform="translate(-1561.83 -196.49)"/><path class="cls-11" d="M1641.63,278.79c-3.89-2.72.78-5.37,0,0h0Z" transform="translate(-1561.83 -196.49)"/><path class="cls-11" d="M1643.51,271.3c0,2.72,1.37,2.6,3.11,1.1C1647.26,271.84,1643.51,269.72,1643.51,271.3Z" transform="translate(-1561.83 -196.49)"/><path class="cls-11" d="M1645.7,282.29c0.15,1.36,0,4.57,2.66,1.91C1649,283.52,1645.82,280.8,1645.7,282.29Z" transform="translate(-1561.83 -196.49)"/><path class="cls-11" d="M1605.61,282.68c0.22,0.32-.19,2.87,1.53,1.1A1.12,1.12,0,0,0,1605.61,282.68Z" transform="translate(-1561.83 -196.49)"/><path class="cls-40" d="M1597.07,334.91c-1.32,4.56,4.26,6.08,4.18,10.51-0.13,6.87-4,4.23-7.79,7,2.54-1.89,15.13,3.28,18.43,3.41,10.2,0.4,11.37-4.68,17.07-11-4.9,5.41-24.79,15.4-24.16.22,0.13-3.12,6.09-7.41,4.24-10C1608.25,333.95,1598.38,334.92,1597.07,334.91Z" transform="translate(-1561.83 -196.49)"/></g></g></svg>