<svg id="Layer_1" data-name="Layer 1" xmlns="http://www.w3.org/2000/svg" viewBox="0 0 274.23 200.37"><defs><style>.cls-1{fill:#616875;}.cls-1,.cls-2,.cls-3,.cls-4{fill-rule:evenodd;}.cls-2{fill:#79808f;}.cls-3{fill:#949aa6;}.cls-4{fill:#1d2e2f;}</style></defs><title>anim_29</title><g id="tail"><path class="cls-1" d="M-303.67,2154.63c-9.08-10.31-15.36,1.66-38-7.28a38.85,38.85,0,0,0-12.65-3,39,39,0,0,0-5.13-7.6c-14.15-16.81-5.63-25.6-17.1-30.43s-2.37,28.08-8,59.09c-10.4,11.05-32.11,19.25-47.14,27-21,10.87,36.34,70.38,42.11,41.69,3.73-18.56,10.27-36.83,19.91-48a20.46,20.46,0,0,0,5.71-2.2C-333.08,2166.92-294.6,2164.94-303.67,2154.63Z" transform="translate(576.55 -2089.76)"/></g><g id="body"><path class="cls-2" d="M-368.2,2248.27c-8.78-1.61-15.95-3.16-21.94-5.64q0.92-2.42,1.79-4.86c19.5-54-21.5-148-80-148s-99,93.5-80,150q1.08,3.22,2.29,6.31a141.2,141.2,0,0,1-16.79,3.82c-19.5,3.53-17,23.23,0,28.76a40.76,40.76,0,0,0,35.62-4.69c12.21,10.06,30.75,16.17,60.92,16.17,31.51,0,49.13-8,60.22-19.69,11.23,7.91,24.69,10.43,38.19,6.25C-350.76,2271.37-348.35,2251.91-368.2,2248.27Z" transform="translate(576.55 -2089.76)"/></g><g id="belly"><path class="cls-3" d="M-467.35,2202c-35.41,0-59.56,21.17-56.33,41.95s29.44,34.05,56.33,34.05,53.11-13.37,56.33-34.05S-431.94,2202-467.35,2202Z" transform="translate(576.55 -2089.76)"/></g><g id="eye"><path class="cls-4" d="M-457.41,2126c-2.79,0-5.06,2.69-5.06,6s2.26,6,5.06,6,5.06-2.69,5.06-6S-454.62,2126-457.41,2126Zm-17.89,0c-2.79,0-5.06,2.69-5.06,6s2.26,6,5.06,6,5.06-2.69,5.06-6S-472.5,2126-475.3,2126Z" transform="translate(576.55 -2089.76)"/></g><g id="moustache"><path class="cls-4" d="M-466.35,2144c-7.73,0-14,6.08-14,14.84,0,6.31,6.27,9.16,14,9.16s14-4.08,14-9.16C-452.35,2150.09-458.62,2144-466.35,2144Zm-20.25,7c-15.89-3-32.75,9.21-35.41,21.25a2.79,2.79,0,0,0,2.17,3.32,2.88,2.88,0,0,0,.61.06,2.83,2.83,0,0,0,2.78-2.2c1.35-6.1,8.83-13.51,17.86-16.23-9.1,7.41-14,19.75-11.84,28.68a2.84,2.84,0,0,0,2.76,2.15,2.92,2.92,0,0,0,.66-0.08,2.79,2.79,0,0,0,2.11-3.36c-2-8.43,5.43-24.12,18.49-27.53a2.79,2.79,0,0,0,2.09-3A2.79,2.79,0,0,0-486.61,2151Zm75.92,21.25c-2.67-12-19.52-24.22-35.41-21.25a2.79,2.79,0,0,0-2.28,3.11,2.79,2.79,0,0,0,2.09,3c13.06,3.41,20.53,19.1,18.49,27.53a2.79,2.79,0,0,0,2.11,3.36,2.91,2.91,0,0,0,.66.08,2.84,2.84,0,0,0,2.76-2.15c2.16-8.93-2.75-21.27-11.84-28.68,9,2.73,16.51,10.13,17.86,16.23a2.83,2.83,0,0,0,2.78,2.2,2.88,2.88,0,0,0,.61-0.06A2.79,2.79,0,0,0-410.69,2172.23Z" transform="translate(576.55 -2089.76)"/></g></svg>