<svg xmlns="http://www.w3.org/2000/svg" xmlns:xlink="http://www.w3.org/1999/xlink" viewBox="0 0 485.77 328.18"><defs><style>.cls-1{isolation:isolate;}.cls-2{fill:url(#linear-gradient);}.cls-3{fill:url(#linear-gradient-2);}.cls-4{fill:url(#linear-gradient-3);}.cls-5{fill:url(#linear-gradient-4);}.cls-6{fill:url(#linear-gradient-5);}.cls-7{fill:url(#linear-gradient-6);}.cls-8{fill:url(#linear-gradient-7);}.cls-9{fill:url(#linear-gradient-8);}.cls-10{fill:url(#linear-gradient-9);}.cls-11{fill:url(#linear-gradient-10);}.cls-12{fill:url(#linear-gradient-11);}.cls-13{fill:url(#linear-gradient-12);}.cls-14{fill:url(#linear-gradient-13);}.cls-15{fill:url(#linear-gradient-14);}.cls-16{fill:url(#linear-gradient-15);}.cls-17{fill:url(#linear-gradient-16);}.cls-18{fill:url(#linear-gradient-17);}.cls-19{fill:url(#linear-gradient-18);}.cls-20{fill:url(#linear-gradient-19);}.cls-21{fill:url(#linear-gradient-20);}.cls-22{fill:url(#linear-gradient-21);}.cls-23{fill:url(#linear-gradient-22);}.cls-24{fill:url(#linear-gradient-23);}.cls-25{fill:url(#linear-gradient-24);}.cls-26,.cls-33,.cls-38,.cls-45,.cls-56{stroke:#63493b;}.cls-26,.cls-33,.cls-38,.cls-44,.cls-45,.cls-56,.cls-60{stroke-linecap:round;stroke-linejoin:round;stroke-width:0.7px;}.cls-26{fill:url(#linear-gradient-25);}.cls-27{fill:url(#radial-gradient);}.cls-28{fill:url(#linear-gradient-26);}.cls-29{fill:url(#linear-gradient-27);}.cls-30{fill:url(#radial-gradient-2);}.cls-31{fill:url(#linear-gradient-28);}.cls-32{fill:url(#linear-gradient-29);}.cls-33{fill:url(#radial-gradient-3);}.cls-34{fill:#63493b;}.cls-35,.cls-37,.cls-38,.cls-43,.cls-57{fill:#ad8165;}.cls-35,.cls-46,.cls-61{opacity:0.5;}.cls-35,.cls-37,.cls-38,.cls-39,.cls-40,.cls-41,.cls-42,.cls-43,.cls-46,.cls-47,.cls-57,.cls-58,.cls-59,.cls-61{mix-blend-mode:multiply;}.cls-36{fill:#fff;}.cls-36,.cls-39,.cls-40,.cls-41,.cls-42{opacity:0.1;}.cls-37{opacity:0.8;}.cls-38,.cls-58{opacity:0.7;}.cls-39{fill:url(#linear-gradient-30);}.cls-40{fill:url(#linear-gradient-31);}.cls-41{fill:url(#linear-gradient-32);}.cls-42{fill:url(#linear-gradient-33);}.cls-43,.cls-59{opacity:0.3;}.cls-44{fill:#ffe6d0;}.cls-44,.cls-60{stroke:#c3a891;}.cls-45{fill:url(#linear-gradient-34);}.cls-46,.cls-47,.cls-58,.cls-59{fill:#8c6f4e;}.cls-48{fill:url(#radial-gradient-4);}.cls-49{fill:#482616;}.cls-50{fill:url(#radial-gradient-5);}.cls-51{fill:url(#radial-gradient-6);}.cls-52{fill:#37180a;}.cls-53{fill:#3a1b0c;}.cls-54{fill:#dde0e1;}.cls-55{fill:#502e1e;}.cls-56{fill:url(#linear-gradient-35);}.cls-60{fill:url(#linear-gradient-36);}.cls-61{fill:#b29f8c;}.cls-62{fill:#fbf6e3;opacity:0.4;}</style><linearGradient id="linear-gradient" x1="1868.77" y1="-62.81" x2="1873.53" y2="-62.81" gradientTransform="matrix(0.93, -0.03, 0.04, 1, 56.11, -98.05)" gradientUnits="userSpaceOnUse"><stop offset="0.57" stop-color="#472c1b"/><stop offset="0.71" stop-color="#4a3120"/><stop offset="0.87" stop-color="#523e2d"/><stop offset="1" stop-color="#5c503f"/></linearGradient><linearGradient id="linear-gradient-2" x1="1871.06" y1="-60.78" x2="1878.68" y2="-60.78" xlink:href="#linear-gradient"/><linearGradient id="linear-gradient-3" x1="1870.02" y1="-60.74" x2="1876.79" y2="-60.74" xlink:href="#linear-gradient"/><linearGradient id="linear-gradient-4" x1="1870.46" y1="-61.24" x2="1878.17" y2="-61.24" xlink:href="#linear-gradient"/><linearGradient id="linear-gradient-5" x1="1870.22" y1="-62.76" x2="1879.44" y2="-62.76" xlink:href="#linear-gradient"/><linearGradient id="linear-gradient-6" x1="1870.87" y1="-60.7" x2="1876.53" y2="-60.7" xlink:href="#linear-gradient"/><linearGradient id="linear-gradient-7" x1="1871.17" y1="-61.72" x2="1877.51" y2="-61.72" xlink:href="#linear-gradient"/><linearGradient id="linear-gradient-8" x1="1870.81" y1="-62.02" x2="1875.87" y2="-62.02" xlink:href="#linear-gradient"/><linearGradient id="linear-gradient-9" x1="1706.79" y1="-82.12" x2="1711.56" y2="-82.12" gradientTransform="matrix(1.07, -0.02, 0.02, 1, -32.3, -105.5)" gradientUnits="userSpaceOnUse"><stop offset="0" stop-color="#491c18"/><stop offset="1" stop-color="#372f20"/></linearGradient><linearGradient id="linear-gradient-10" x1="1709.08" y1="-80.09" x2="1716.71" y2="-80.09" xlink:href="#linear-gradient-9"/><linearGradient id="linear-gradient-11" x1="1708.04" y1="-80.06" x2="1714.82" y2="-80.06" xlink:href="#linear-gradient-9"/><linearGradient id="linear-gradient-12" x1="1708.48" y1="-80.55" x2="1716.2" y2="-80.55" xlink:href="#linear-gradient-9"/><linearGradient id="linear-gradient-13" x1="1708.25" y1="-82.08" x2="1717.47" y2="-82.08" xlink:href="#linear-gradient-9"/><linearGradient id="linear-gradient-14" x1="1708.9" y1="-80.01" x2="1714.55" y2="-80.01" xlink:href="#linear-gradient-9"/><linearGradient id="linear-gradient-15" x1="1709.19" y1="-81.04" x2="1715.53" y2="-81.04" xlink:href="#linear-gradient-9"/><linearGradient id="linear-gradient-16" x1="1708.83" y1="-81.33" x2="1713.9" y2="-81.33" xlink:href="#linear-gradient-9"/><linearGradient id="linear-gradient-17" x1="1765.72" y1="-4.33" x2="1771.09" y2="-4.33" gradientTransform="matrix(1, -0.08, 0.08, 1, 33.91, -69.72)" gradientUnits="userSpaceOnUse"><stop offset="0.57" stop-color="#724d39"/><stop offset="0.72" stop-color="#74523d"/><stop offset="0.88" stop-color="#795f4a"/><stop offset="1" stop-color="#7f6e57"/></linearGradient><linearGradient id="linear-gradient-18" x1="1767.64" y1="-2.26" x2="1774.51" y2="-2.26" xlink:href="#linear-gradient-17"/><linearGradient id="linear-gradient-19" x1="1768.45" y1="-2.75" x2="1776.01" y2="-2.75" xlink:href="#linear-gradient-17"/><linearGradient id="linear-gradient-20" x1="1768.35" y1="-1.2" x2="1777.89" y2="-1.2" xlink:href="#linear-gradient-17"/><linearGradient id="linear-gradient-21" x1="1769.29" y1="1.32" x2="1774.15" y2="1.32" xlink:href="#linear-gradient-17"/><linearGradient id="linear-gradient-22" x1="1769.86" y1="0.07" x2="1776.14" y2="0.07" xlink:href="#linear-gradient-17"/><linearGradient id="linear-gradient-23" x1="1769.3" y1="-3.54" x2="1773.82" y2="-3.54" xlink:href="#linear-gradient-17"/><linearGradient id="linear-gradient-24" x1="1769.76" y1="1.22" x2="1777.69" y2="1.22" xlink:href="#linear-gradient-17"/><linearGradient id="linear-gradient-25" x1="1744.67" y1="-87.99" x2="1777.25" y2="-87.99" xlink:href="#linear-gradient-17"/><radialGradient id="radial-gradient" cx="1733.48" cy="-194.95" r="149.27" gradientTransform="translate(-97.79 1.84) scale(0.95 1.01)" xlink:href="#linear-gradient-17"/><linearGradient id="linear-gradient-26" x1="1440.8" y1="-128.34" x2="1443.57" y2="-82.43" gradientUnits="userSpaceOnUse"><stop offset="0" stop-color="#5b3827"/><stop offset="0.98" stop-color="#452e15"/></linearGradient><linearGradient id="linear-gradient-27" x1="1684.85" y1="-142.49" x2="1687.54" y2="-97.79" xlink:href="#linear-gradient-26"/><radialGradient id="radial-gradient-2" cx="1893.31" cy="-321.23" r="221.74" gradientTransform="translate(-97.79 1.84) scale(0.95 1.01)" xlink:href="#linear-gradient-17"/><linearGradient id="linear-gradient-28" x1="1529.56" y1="-131.8" x2="1532.08" y2="-89.95" xlink:href="#linear-gradient-26"/><linearGradient id="linear-gradient-29" x1="1760.71" y1="-148.41" x2="1763.53" y2="-101.69" xlink:href="#linear-gradient-26"/><radialGradient id="radial-gradient-3" cx="1801.02" cy="-495.65" r="391.55" gradientTransform="translate(-97.79 1.83) scale(0.95 1.01)" gradientUnits="userSpaceOnUse"><stop offset="0" stop-color="#9c8071"/><stop offset="0.2" stop-color="#ad8165"/><stop offset="0.28" stop-color="#a0775e"/><stop offset="0.46" stop-color="#876550"/><stop offset="0.57" stop-color="#7e5e4b"/><stop offset="0.92" stop-color="#7d5948"/><stop offset="1" stop-color="#7c5746"/></radialGradient><linearGradient id="linear-gradient-30" x1="1441.3" y1="-128.33" x2="1444.06" y2="-82.57" gradientUnits="userSpaceOnUse"><stop offset="0" stop-color="#433927"/><stop offset="0.98" stop-color="#452e15"/></linearGradient><linearGradient id="linear-gradient-31" x1="1529.73" y1="-133.87" x2="1532.51" y2="-87.72" xlink:href="#linear-gradient-30"/><linearGradient id="linear-gradient-32" x1="1684.9" y1="-142.54" x2="1687.6" y2="-97.75" xlink:href="#linear-gradient-30"/><linearGradient id="linear-gradient-33" x1="1760.8" y1="-146.53" x2="1763.44" y2="-102.61" xlink:href="#linear-gradient-30"/><linearGradient id="linear-gradient-34" x1="1353.67" y1="-359.66" x2="1594.87" y2="-359.66" gradientUnits="userSpaceOnUse"><stop offset="0.05" stop-color="#9c8071"/><stop offset="0.21" stop-color="#ad8165"/><stop offset="0.68" stop-color="#876a50"/></linearGradient><radialGradient id="radial-gradient-4" cx="1442.81" cy="-354.58" r="22.62" gradientTransform="translate(-19.71 13.39) scale(1.02 1.03)" gradientUnits="userSpaceOnUse"><stop offset="0.8" stop-color="#fff"/><stop offset="0.88" stop-color="#fffdfd"/><stop offset="0.92" stop-color="#fef8f5"/><stop offset="0.95" stop-color="#fcefe7"/><stop offset="0.98" stop-color="#f9e2d3"/><stop offset="1" stop-color="#f6d5c0"/></radialGradient><radialGradient id="radial-gradient-5" cx="1423.64" cy="-368.41" r="9.57" gradientTransform="translate(-19.71 13.39) scale(1.02 1.03)" gradientUnits="userSpaceOnUse"><stop offset="0.22" stop-color="#f7efb0"/><stop offset="0.23" stop-color="#f2e8ab"/><stop offset="0.4" stop-color="#bba37a"/><stop offset="0.55" stop-color="#8d6952"/><stop offset="0.7" stop-color="#6a3b32"/><stop offset="0.82" stop-color="#501b1b"/><stop offset="0.93" stop-color="#41070d"/><stop offset="1" stop-color="#3b0008"/></radialGradient><radialGradient id="radial-gradient-6" cx="1429.54" cy="-366.17" r="11.82" gradientTransform="translate(-19.71 13.39) scale(1.02 1.03)" gradientUnits="userSpaceOnUse"><stop offset="0" stop-color="#53575a"/><stop offset="0.03" stop-color="#4d5053"/><stop offset="0.18" stop-color="#36373b"/><stop offset="0.33" stop-color="#26252a"/><stop offset="0.48" stop-color="#1c1a1f"/><stop offset="0.67" stop-color="#19171c"/></radialGradient><linearGradient id="linear-gradient-35" x1="1321.79" y1="-202.02" x2="1441.12" y2="-202.02" gradientUnits="userSpaceOnUse"><stop offset="0.17" stop-color="#9c8071"/><stop offset="0.48" stop-color="#ad8165"/><stop offset="0.54" stop-color="#a27d62"/><stop offset="0.72" stop-color="#89725a"/><stop offset="0.83" stop-color="#7f6e57"/></linearGradient><linearGradient id="linear-gradient-36" x1="1379.91" y1="-294.15" x2="1399.36" y2="-267.4" gradientUnits="userSpaceOnUse"><stop offset="0" stop-color="#ffe6d0"/><stop offset="1" stop-color="#9c8071"/></linearGradient></defs><title>anim_90</title><g class="cls-1"><g id="Layer_1" data-name="Layer 1"><path class="cls-2" d="M1795.45-237.36a34.51,34.51,0,0,0,3.71,27.65S1791.88-223,1795.45-237.36Z" transform="translate(-1320.98 439.57)"/><path class="cls-3" d="M1795.9-236.38s10,14.49,7.6,29.58C1803.49-206.8,1805.79-218,1795.9-236.38Z" transform="translate(-1320.98 439.57)"/><path class="cls-4" d="M1795.62-235.17s-2.86,16.94,6.65,27.29C1802.27-207.88,1794.17-217.59,1795.62-235.17Z" transform="translate(-1320.98 439.57)"/><path class="cls-5" d="M1803.56-207.94s-9.38-13.71-7.92-28.22A59.51,59.51,0,0,0,1803.56-207.94Z" transform="translate(-1320.98 439.57)"/><path class="cls-6" d="M1795.45-237.36c-1.24,7.65,8,19,9.22,27.54-0.74-6.06-1.89-11.18-4.69-16.66C1798.58-229.22,1793.9-233.83,1795.45-237.36Z" transform="translate(-1320.98 439.57)"/><path class="cls-7" d="M1802-207.39s-6.33-21.12-6.27-28.19Z" transform="translate(-1320.98 439.57)"/><path class="cls-8" d="M1796-235.3s8.17,16.51,6.49,25.56C1802.53-209.74,1802.29-219.81,1796-235.3Z" transform="translate(-1320.98 439.57)"/><path class="cls-9" d="M1801.34-209.79s0.18-6-5.65-26C1795.69-235.79,1801.31-211.72,1801.34-209.79Z" transform="translate(-1320.98 439.57)"/><path class="cls-10" d="M1795.45-236.85s-5.85,13.15,3.66,27.71C1799.11-209.15,1791-222.56,1795.45-236.85Z" transform="translate(-1320.98 439.57)"/><path class="cls-11" d="M1795.93-235.87s11.23,14.63,8.09,29.69C1804-206.18,1806.91-217.3,1795.93-235.87Z" transform="translate(-1320.98 439.57)"/><path class="cls-12" d="M1795.59-234.67s-3.65,16.9,7.05,27.38C1802.64-207.28,1793.55-217.1,1795.59-234.67Z" transform="translate(-1320.98 439.57)"/><path class="cls-13" d="M1804.12-207.31s-10.48-13.85-8.5-28.34C1795.62-235.64,1794.87-222.14,1804.12-207.31Z" transform="translate(-1320.98 439.57)"/><path class="cls-14" d="M1795.45-236.85c-1,5.38,3.24,8.66,5.54,13.1a45.86,45.86,0,0,1,4.45,14.57c-0.73-6.2-1.94-11.22-5-16.72C1799-228.47,1793.6-233.37,1795.45-236.85Z" transform="translate(-1320.98 439.57)"/><path class="cls-15" d="M1802.36-206.78s-6.81-21.21-6.59-28.28Z" transform="translate(-1320.98 439.57)"/><path class="cls-16" d="M1796.08-234.78s9,16.62,6.91,25.65C1803-209.13,1802.92-219.21,1796.08-234.78Z" transform="translate(-1320.98 439.57)"/><path class="cls-17" d="M1801.61-209.21s0.33-6-5.92-26.07C1795.69-235.27,1801.62-211.13,1801.61-209.21Z" transform="translate(-1320.98 439.57)"/><path class="cls-18" d="M1795.27-236.48s-7.64,13.75,4.34,27.52C1799.61-209,1789.63-221.72,1795.27-236.48Z" transform="translate(-1320.98 439.57)"/><path class="cls-19" d="M1795.45-234.29s-4.2,17.25,7.72,27C1803.18-207.31,1793.22-216.51,1795.45-234.29Z" transform="translate(-1320.98 439.57)"/><path class="cls-20" d="M1804.68-207.44s-11.61-13.12-9.15-27.84C1795.53-235.28,1794.58-221.65,1804.68-207.44Z" transform="translate(-1320.98 439.57)"/><path class="cls-21" d="M1795.27-236.48c-2.25,6.45,4.87,10.73,7.49,15.86s3.65,11.51,3.94,17.33c-0.23-7.41-.56-13.8-4.59-20.25C1800.35-226.36,1792.6-232.44,1795.27-236.48Z" transform="translate(-1320.98 439.57)"/><path class="cls-22" d="M1803.43-200.14s-7.9-25.5-7.65-34.18Z" transform="translate(-1320.98 439.57)"/><path class="cls-23" d="M1796.26-234s11,19.65,7.88,30.95C1804.15-203.07,1804.75-215.48,1796.26-234Z" transform="translate(-1320.98 439.57)"/><path class="cls-24" d="M1802.21-209.18s0.71-6.07-6.59-25.74C1795.62-234.92,1802.31-211.13,1802.21-209.18Z" transform="translate(-1320.98 439.57)"/><path class="cls-25" d="M1796.05-235.33s14.17,17,9,35.83C1805.06-199.5,1809.25-213.43,1796.05-235.33Z" transform="translate(-1320.98 439.57)"/><path class="cls-26" d="M1759.09-375.15c1.62-11.77,16.56,9.49,18.2,12.28,8.36,14.22,14.33,31.35,18,47.37a139.54,139.54,0,0,1,2.15,52.55c-1.61,10.45-3.19,20.87-.69,31.33-4.62-10.54-1.31-22.51-.22-33.37,1.64-16.34-1.94-33.48-7.37-48.84C1781.71-335,1768.34-354.57,1759.09-375.15Z" transform="translate(-1320.98 439.57)"/><path class="cls-27" d="M1493.72-253a49.23,49.23,0,0,1-11.8-8.63c4.1,24.21-23.24,46.95-31.9,67.18-4.7,11-4,24.11-5.8,35.77-0.87,5.54-1.64,11.54-3.88,16.73-2.44,5.66-7,9.88-9.28,15.67,5.37-7.62,9,5.35,8.85,9.09,0.63-2.46,2.05-6.27,4.49-7.5,6.27-3.16,6.85,2.37,9,6.74,2.44,4.86-.77,3.38,5.22,5,3.24,0.85,8,.65,11.42.64,4,0,10.48.83,13-3.15s-1.84-13.21-2.16-17.91c-0.66-9.68-.18-19.49-0.67-29.2-0.55-10.83,2-17.44,10.72-24.34,7-5.53,18.87-10.73,22.58-19.34,2.85-6.6-5.16-21-6.74-29.12-0.56-2.9-.34-8.22-2.18-10.62C1502.6-248.72,1496.4-250.33,1493.72-253Z" transform="translate(-1320.98 439.57)"/><path class="cls-28" d="M1448.16-125.88c-4.64-.55-7.31,5-8.25,8.66,0.17-4.84-3.14-15.64-8.85-9.09-9.87,11.34,18.74,12.39,22.8,12.82-0.07-3.6-.66-11.8-5.7-12.4h0Z" transform="translate(-1320.98 439.57)"/><path class="cls-29" d="M1692.6-127.78c-3.33-1-6.22,1.74-7.35,4.62-0.12-10.79-11.49-5.27-9.59,2.18,1.79,7,15.85,5.32,21.39,5.1-0.14-3.17-.44-10.67-4.45-11.9h0Z" transform="translate(-1320.98 439.57)"/><path class="cls-30" d="M1702.07-228.21c-6.27,5.95-16.17,8.53-24.4,10.37,7.57,12.05,11.13,28.27,12.06,42.24,1.27,19-6.83,32.77-13.17,49.72,3-6.64,8.62-3.31,8.69,2.73,0.73-1.94,2.48-4.33,4.66-4.73,5.89-1.09,4.87,4.94,6.77,8.17q-1.34,6.31,5.08,3.56,4.06-.31,8.1-0.83c3.78-.89,4.34,0,6.87-2.57,9-9,5.5-34.21,5.24-45.37a77.41,77.41,0,0,1,3.16-23.58c0.71-2.53,5.56-12.2,4.67-14.22-0.75-1.71-11.67-5.71-13.88-7.38a44.15,44.15,0,0,1-8.48-8.38A35.94,35.94,0,0,1,1702.07-228.21Z" transform="translate(-1320.98 439.57)"/><path class="cls-31" d="M1536.39-123.16c-4.55-.49-7.55,5.85-8.69,9.37,1.77-15.83-11.35-8.6-7.69-1.79,2.77,5.17,16.89,3,21.69,3.08,0.07-3.17-1-10.2-5.3-10.66h0Z" transform="translate(-1320.98 439.57)"/><path class="cls-32" d="M1768.36-131c-5-.09-8.54,4.7-10.14,8.89,0.8-10.43-9.26-6.41-6.49,0,2.5,5.76,17,4.46,21.62,4.26,0-3,0-13-5-13.13h0Z" transform="translate(-1320.98 439.57)"/><path class="cls-33" d="M1800.34-155.05c-9.48-13.27-12.38-29.38-15.23-45-2.58-14.18-6.31-28.73-7.41-43.11-1.35-17.57,5.75-35.78,8.4-53a122.34,122.34,0,0,0-4.78-58.18,239.92,239.92,0,0,0-16.12-35.72c-7.83-14.41-20.39-18.69-35.9-21.64-38.24-7.27-75-6-113.19-.67-17.2,2.42-28.42.59-44.18-5.38a60,60,0,0,0-46.27,1.69c-11.78,5.51-17.82,18.92-25.1,29.17L1461-331.25c-2.12,3-5.68,6.49-6,9.9-0.29,3,2.48,11.5,4.16,14.11,2.67,4.16,5.74,2.78,8.76,7.63,5.18,8.33,2.72,20.72,7.65,29.64,4.34,7.85,11.06,12,18.12,16.93,5,3.51,9.53,5.42,11.8,10.49,3.33,7.44,2.71,16.9,5.93,24.66,6.7,16.13,15.16,29.47,18.61,47.27,3.73,19.26,1.64,31.46-8.52,47.55,5.73-5.7,6.47,6.54,6.16,9.27,1.13-3.53,4.07-9.84,8.69-9.37,5.9,0.59,2.94,8.42,5.3,10.66,1.75,1.66,12.67.06,14.77,0,17.84-.47,18-4.77,14.25-19.39-4.32-17-2.29-36-2.35-53.38,0-6.87-1.54-14.3-1-21.08,0.52-6.09,2.81-12,3-18.32,28.91,10.1,60.85,15.89,91.4,10.84,12.31-2,31.47-6,40.3-14.38a37.9,37.9,0,0,0,9,13.88c8.88,9,22.53,10.28,30.48,19.88,13,15.69,18,47.89,10.8,66.78,3.94-4.88,6.07,2.75,5.85,5.58,1.13-3,3.89-7.73,7.4-8.44,7.33-1.47,7.75,7.19,7.73,12.67,7.65-.32,27.56-2.73,31.91-10.71,3.29-6-1.19-21.27-4.92-26.49h0Z" transform="translate(-1320.98 439.57)"/><path class="cls-34" d="M1469.81-171c0.61,1,10.07,9.86,10.49,8.38C1479.25-158.84,1469.81-171,1469.81-171Z" transform="translate(-1320.98 439.57)"/><path class="cls-34" d="M1481.53-183.92c-0.27,1.13-2.66,12.77-1.72,13C1477.16-170.91,1481.53-183,1481.53-183.92Z" transform="translate(-1320.98 439.57)"/><path class="cls-34" d="M1505-212.21c0.07,0.74,2.82,12.27,3.76,11.64C1505.67-199.05,1505.23-211.73,1505-212.21Z" transform="translate(-1320.98 439.57)"/><path class="cls-34" d="M1497.55-209c0.17,1.11,3.69,14.66,4.38,14.23C1498.79-193.57,1497.91-208.3,1497.55-209Z" transform="translate(-1320.98 439.57)"/><path class="cls-34" d="M1493.7-253c-1.85-.93-12.09-13.81-10.26-14.25C1485.51-267.36,1489.82-253.93,1493.7-253Z" transform="translate(-1320.98 439.57)"/><path class="cls-34" d="M1500.34-272.45c0.5,2.57,4.3,26.44,4.31,26.44C1501.63-246,1500.76-271.24,1500.34-272.45Z" transform="translate(-1320.98 439.57)"/><path class="cls-34" d="M1536.13-200.13c-4.57,2.17-19.73-5.12-18.12-6.31C1519.15-207.15,1530.58-196.79,1536.13-200.13Z" transform="translate(-1320.98 439.57)"/><path class="cls-34" d="M1531.88-196.75c-2.38.33-11-3.28-10.72-3.38S1530.1-196.15,1531.88-196.75Z" transform="translate(-1320.98 439.57)"/><path class="cls-34" d="M1567.41-206.74c-0.35,1.28-7.22,10.36-7.54,9C1559.72-199.8,1567.41-203.66,1567.41-206.74Z" transform="translate(-1320.98 439.57)"/><path class="cls-34" d="M1532.17-152.71c0.89,0.56,10.7,3.41,10.83,2.05C1543-147.75,1533.13-152,1532.17-152.71Z" transform="translate(-1320.98 439.57)"/><path class="cls-34" d="M1532.17-150.3c0.66,0.58,8.15,3.5,8.15,2.49C1539.84-144.52,1532.48-150.18,1532.17-150.3Z" transform="translate(-1320.98 439.57)"/><path class="cls-34" d="M1501.75-260.14c1,1,15,10.55,15.52,8.39C1516.48-247.75,1502.36-259.49,1501.75-260.14Z" transform="translate(-1320.98 439.57)"/><path class="cls-34" d="M1502.5-253.86c1.33,1.14,10.86,5.11,11.42,3.67C1513.92-247.17,1503-253.53,1502.5-253.86Z" transform="translate(-1320.98 439.57)"/><path class="cls-34" d="M1570.33-224.67c0.08-2.46,2.75-32.16,2.38-32.16C1575-256.84,1570.33-227.66,1570.33-224.67Z" transform="translate(-1320.98 439.57)"/><path class="cls-34" d="M1581.73-264.72c0.17,2.68-7.75,27.37-9.7,25.18C1573.68-238.1,1581.73-263.22,1581.73-264.72Z" transform="translate(-1320.98 439.57)"/><path class="cls-34" d="M1725.51-270.67c-1,15.83-12.53,31.65-23.14,42.76-0.6.6,19.72-12.09,17.1-13.85,2.52,1-17.1,18.24-17.82,13.61-0.2-1.07,13-16,14-17.61,3.95-6.62,9.83-17.45,9.83-24.92C1725.44-269.63,1725.51-270.69,1725.51-270.67Z" transform="translate(-1320.98 439.57)"/><path class="cls-34" d="M1683.32-205.69c1.41,2.63,13.92,26,16.12,22.9-0.47,1.92-8.5-7-8-6.37C1687.64-194.1,1685.5-200.21,1683.32-205.69Z" transform="translate(-1320.98 439.57)"/><path class="cls-34" d="M1687.21-191.74c0.66,1,7.86,12.13,8.53,11.64C1693.7-178.38,1687.68-191,1687.21-191.74Z" transform="translate(-1320.98 439.57)"/><path class="cls-34" d="M1692.51-173.18c-0.58-1.08-4.75-11.64-4-11.64C1689.75-184.82,1691.76-174.2,1692.51-173.18Z" transform="translate(-1320.98 439.57)"/><path class="cls-34" d="M1728.08-197.73a41.81,41.81,0,0,1-6.22,14.85c-0.06.08-5,6.16-5.28,5.25C1716.22-178.26,1728.08-194.88,1728.08-197.73Z" transform="translate(-1320.98 439.57)"/><path class="cls-34" d="M1734.14-200.89c1.58,0.7,21,10.4,21.28,9.17C1754.88-188.53,1735.19-200.58,1734.14-200.89Z" transform="translate(-1320.98 439.57)"/><path class="cls-34" d="M1751.41-187.65c-0.94-.12-9.48-4.43-8.36-4.88C1744.39-193.14,1749.37-186.93,1751.41-187.65Z" transform="translate(-1320.98 439.57)"/><path class="cls-34" d="M1783.94-206.76c0.72,2.75.1,29.74-.83,29.15C1785.19-177.37,1784.37-204.53,1783.94-206.76Z" transform="translate(-1320.98 439.57)"/><path class="cls-34" d="M1787.85-185.41c0.41,1.48,4.29,20.16,4.47,20.08C1789.84-164.68,1788.27-183.81,1787.85-185.41Z" transform="translate(-1320.98 439.57)"/><path class="cls-34" d="M1778.33-255.55c0.08,2.5-8.17,29.61-9.78,27.37C1769.21-227.53,1778.71-252,1778.33-255.55Z" transform="translate(-1320.98 439.57)"/><path class="cls-34" d="M1631.22-407.83c-4.37,1.09-48.24-1-46.8-4.69C1583.88-411.25,1625.94-406.85,1631.22-407.83Z" transform="translate(-1320.98 439.57)"/><path class="cls-34" d="M1582.19-350.48c3.92,12.39,6.82,26.57,6.46,39.6C1587.76-324.11,1585-337.52,1582.19-350.48Z" transform="translate(-1320.98 439.57)"/><path class="cls-34" d="M1578.4-337.67c5.34,13.31,7.62,22.64,7.13,37C1584.63-314.47,1582.25-324.41,1578.4-337.67Z" transform="translate(-1320.98 439.57)"/><path class="cls-34" d="M1533.27-285c3.51,8.62,3.51,17.63,3,26.8C1535.58-267.33,1535.6-276.12,1533.27-285Z" transform="translate(-1320.98 439.57)"/><path class="cls-34" d="M1539.51-284a139.54,139.54,0,0,1-.22,25A236.13,236.13,0,0,1,1539.51-284Z" transform="translate(-1320.98 439.57)"/><path class="cls-34" d="M1542.52-285.61a37,37,0,0,1,.89,24.78A62,62,0,0,0,1542.52-285.61Z" transform="translate(-1320.98 439.57)"/><path class="cls-34" d="M1523.25-280c10-.8,21.67-0.47,30.2,5.58C1544.27-279.43,1533.4-279.6,1523.25-280Z" transform="translate(-1320.98 439.57)"/><path class="cls-34" d="M1526.92-271.38c9.66-.28,21.25-0.83,28.86,6.28C1547.42-271.15,1536.71-270.45,1526.92-271.38Z" transform="translate(-1320.98 439.57)"/><path class="cls-34" d="M1527.48-277.07c9.66-.41,21.1,1.07,29.08,7C1547.89-275,1537.24-276.24,1527.48-277.07Z" transform="translate(-1320.98 439.57)"/><path class="cls-34" d="M1630.43-323.08c4.36,13.55,1,23.69-4.46,36.05C1630.2-299.86,1633.37-309.36,1630.43-323.08Z" transform="translate(-1320.98 439.57)"/><path class="cls-34" d="M1635.11-317.75c0.9,11.1,1.51,21.6-3.12,32C1635.28-296.5,1634.74-306.64,1635.11-317.75Z" transform="translate(-1320.98 439.57)"/><path class="cls-34" d="M1640.12-317.51c1.53,13.42,2,27.18-3.12,40C1640.92-290.73,1640.38-304,1640.12-317.51Z" transform="translate(-1320.98 439.57)"/><path class="cls-34" d="M1626.42-313.36a65.42,65.42,0,0,1,20.72,31A100.12,100.12,0,0,0,1626.42-313.36Z" transform="translate(-1320.98 439.57)"/><path class="cls-34" d="M1626.64-302.69c8.34,7.23,17.62,15.59,19.39,27.15C1643.07-286.81,1634.19-294.49,1626.64-302.69Z" transform="translate(-1320.98 439.57)"/><path class="cls-34" d="M1730.26-327.47c9-2.79,17.15-5.46,25.41-10C1748-331.81,1739.64-329,1730.26-327.47Z" transform="translate(-1320.98 439.57)"/><path class="cls-34" d="M1733-320.59c8.71-3.69,17.55-7.62,23.73-15.06C1751.46-327.42,1742.19-323.15,1733-320.59Z" transform="translate(-1320.98 439.57)"/><path class="cls-34" d="M1749.53-341.82c2.66,7.05,1.12,14.38-1.26,21.26C1749.5-327.7,1751-334.58,1749.53-341.82Z" transform="translate(-1320.98 439.57)"/><path class="cls-34" d="M1745.36-342.89c1.4,10,1.42,19.61-2.26,29.17C1745.49-323.62,1745.55-332.76,1745.36-342.89Z" transform="translate(-1320.98 439.57)"/><path class="cls-34" d="M1740.43-341.73a62,62,0,0,1-3.34,33.26A104.5,104.5,0,0,0,1740.43-341.73Z" transform="translate(-1320.98 439.57)"/><path class="cls-35" d="M1767.08-134.23c-11.86.27-8.89-34.87-10.95-42.08-0.47-1.64-3-5.29-2.78-6.9,0.29-2.39,2.25-2.6,2.73-4.4,0.36-1.37,2.43-1.52,2.3-3.48-0.18-3-7.6-6-9.39-6.91-15.5-8-31-18.21-32.34-37.43-0.74-10.57,4.57-21.88,8.19-31.77-17.13,28.4-53.9,41.13-85.27,42.65-23.85,1.16-57.81-6.54-58.28-36.27-0.63,3.44-5.09,16.36-8.5,7,0.07,5.72-4.77,23.25-2.23,27.85,3.1,5.6,21.78,8.09,28.94,9.6,16.78,3.56,34.08,5.27,51.22,3.93,14.59-1.14,40.52-5.44,51.33-15.7a37.89,37.89,0,0,0,9,13.88c8.88,9,22.53,10.28,30.48,19.88,13,15.69,18,47.89,10.8,66.78,3.94-4.89,6.07,2.75,5.85,5.57,1.13-3,3.89-7.73,7.4-8.44,7.33-1.47,7.75,7.2,7.73,12.67,9.46-.38,1.66-16.62-6.28-16.44h0Z" transform="translate(-1320.98 439.57)"/><path class="cls-35" d="M1510.86-280.13c16.27-8.09,35.06-10.37,49.84-21.57,8.55-6.48,13.54-15.7,19.72-24.26,5.78-8,13-16.32,14.8-26.31,3.69-19.88-14.7-35.35-27.62-47.48-5.89-5.53-16.56-19-24.29-21.34-5.54-1.65-19.51,4.74-24,8.54-12.83,10.93-22.32,30.66-32,44.34L1465-336.77c-2.47,3.48-9.48,10.08-10.23,14.4-0.5,2.89,3.19,14.65,5,16.9,1.61,2,3.67.12,5.38,2,3.34,3.69,3.88,7.33,4.88,12.24,2.68,13.09,4.46,23.65,15.37,32.64,5.5,4.53,12.68,9.93,19.3,12.53-3.45-10.57-5.92-28,6.22-34.08h0Z" transform="translate(-1320.98 439.57)"/><path class="cls-35" d="M1646-416.5c-12.19,15.53-41.2,10.17-57.38,5.29C1606.29-407.23,1628.32-414.08,1646-416.5Z" transform="translate(-1320.98 439.57)"/><path class="cls-36" d="M1669.73-411.68c25.71,0.58,70.89-1.49,86.44,23.94,13.81,22.6-6.36,44.09-25.63,54.28-27.83,14.72-77,28.83-103.72,4.47-8.24-7.51-12.48-17.5-15.43-28-2-7.1-4-13.59-7.57-20.1-3.37-6.06-9.35-12.14-11.52-18.74-5.11-15.47,26.91-6,35.44-6.74,14.67-1.27,26.89-9.44,42-9.1h0Z" transform="translate(-1320.98 439.57)"/><path class="cls-37" d="M1608-214.75c-17.21-2.88-41.55-13.84-29.63-35.06-2,3.78-5.66,4.66-5.58-1-0.45,6.85-4.58,23-.75,26.69,2.59,2.51,12.92,3.59,16.42,4.53C1595-217.86,1601.45-216,1608-214.75Z" transform="translate(-1320.98 439.57)"/><path class="cls-37" d="M1692.79-222.55c12.86-11.29,25.93-25.71,31.43-42.17A75.57,75.57,0,0,1,1713-241.27c-3.4,4.89-9.55,14,1.58,6.46-5.17,12.6,1.27,25,12.8,31.21-10.92-4.39-20.53-13-25.31-23.84A37,37,0,0,1,1692.79-222.55Z" transform="translate(-1320.98 439.57)"/><path class="cls-37" d="M1480.5-263.13c-7-18.67,17.79-16.94,29.56-22.14,5.61-2.48,25.92-6.73,28.36-12.31s-4.12-13.22-7.17-17.15c-6.82-8.81-11.43-10.32-22.73-11.47-8.44-.86-17.27-0.52-25.26,2.53-10.89,4.16-14.3,13-22.82,19.76C1468-306,1469-296,1470-291.09,1472.07-280.75,1473-271.31,1480.5-263.13Z" transform="translate(-1320.98 439.57)"/><path class="cls-38" d="M1493.72-253a49.23,49.23,0,0,1-11.8-8.63c4.1,24.21-23.24,46.95-31.9,67.18-4.7,11-4,24.11-5.8,35.77-0.87,5.54-1.64,11.54-3.88,16.73-2.44,5.66-7,9.88-9.28,15.67,5.37-7.62,9,5.35,8.85,9.09,0.63-2.46,2.05-6.27,4.49-7.5,6.27-3.16,6.85,2.37,9,6.74,2.44,4.86-.77,3.38,5.22,5,3.24,0.85,8,.65,11.42.64,4,0,10.48.83,13-3.15s-1.84-13.21-2.16-17.91c-0.66-9.68-.18-19.49-0.67-29.2-0.55-10.83,2-17.44,10.72-24.34,7-5.53,18.87-10.73,22.58-19.34,2.85-6.6-5.16-21-6.74-29.12-0.56-2.9-.34-8.22-2.18-10.62C1502.6-248.72,1496.4-250.33,1493.72-253Z" transform="translate(-1320.98 439.57)"/><path class="cls-38" d="M1702.07-228.21c-6.27,5.95-16.17,8.53-24.4,10.37,7.57,12.05,11.13,28.27,12.06,42.24,1.27,19-6.83,32.77-13.17,49.72,3-6.64,8.62-3.31,8.69,2.73,0.73-1.94,2.48-4.33,4.66-4.73,5.89-1.09,4.87,4.94,6.77,8.17q-1.34,6.31,5.08,3.56,4.06-.31,8.1-0.83c3.78-.89,4.34,0,6.87-2.57,9-9,5.5-34.21,5.24-45.37a77.41,77.41,0,0,1,3.16-23.58c0.71-2.53,5.56-12.2,4.67-14.22-0.75-1.71-11.67-5.71-13.88-7.38a44.15,44.15,0,0,1-8.48-8.38A35.94,35.94,0,0,1,1702.07-228.21Z" transform="translate(-1320.98 439.57)"/><path class="cls-35" d="M1504.61-246.14c-7.62-3-16.95-9.89-22.72-15.61,0.48,2.92-1.32,7.3-.67,9.74,0.34,1.27,5.25,5.74,6.11,7.06a38.06,38.06,0,0,1,5.83,22c-0.83,20.49-17.11,26-27.48,40.62-9.16,12.93-.43,26,3.89,39.06,4.21,12.76,4.95,31.11-13.43,29.9,6.08,0.59,22.66,4.42,26.91-2.27,2.46-3.88-1.24-9.49-1.88-13.47-1.08-6.69-.29-14-0.37-20.73-0.09-7.1-2.4-16.5-.57-23.34,4.25-15.93,24.84-18.61,32.45-31.95,4.29-7.52-1.94-13.45-4.06-21.75C1507-233.09,1506.95-240.13,1504.61-246.14Z" transform="translate(-1320.98 439.57)"/><path class="cls-35" d="M1694.13-175.06c-0.86-4.5,7.73-1.36,8.89-3.4,1.68-2.93-4.6-8.71-6.32-11.39s-8.3-11.76-6-15.25c2.14-3.28,17.13,4.2,20.07,5.61,10.39,5,13.58,9.48,6.3,18.92-11,14.31,4,4.09,5,18.49a81.91,81.91,0,0,1,3.07-26.1c1.64-5.82,5-11.23,2.65-15-1.36-2.21-9.38-4.7-11.86-6.58a44.16,44.16,0,0,1-8.48-8.38,36,36,0,0,1-5.39-9.72c-6.27,5.95-16.17,8.53-24.4,10.37,4.09,6.45,6.46,14,8.36,21.34,2.21,8.53,3.92,17.44,3.88,26.29,0,1.36-2.36,13.34-.67,14.29,1.38,0.78,5.27-17.53,4.9-19.46h0Z" transform="translate(-1320.98 439.57)"/><path class="cls-39" d="M1448-125.88c-4.64-.55-7.31,5-8.25,8.66,0.23-6.46-7-17.15-9.66-6.57,5.56-9.78,7,11.34,12,8.81,2.72-1.38.63-10.91,7-7.5,4.51,2.43-1.87,8.27,4.66,9-0.07-3.6-.66-11.8-5.71-12.4h0Z" transform="translate(-1320.98 439.57)"/><path class="cls-40" d="M1536.39-123.16c-4.55-.49-7.55,5.85-8.69,9.37,0.64-5.67-4.39-17.36-7.84-5.68,3.69-8.17,4.88,5.37,4.86,6.57,7.18,0,3.2-4.73,8.8-6.48s2,6.78,8.17,6.89c0.07-3.17-1-10.2-5.3-10.66h0Z" transform="translate(-1320.98 439.57)"/><path class="cls-41" d="M1692.54-127.77c-3.33-1-6.22,1.74-7.35,4.62-0.11-9.45-8.45-6.81-9.59.54,5.65-8.65,8.37.49,8.43,6.32,2.89,0.35,1.85-8.74,5.78-9.4,6.47-1.08,1.75,10,7.18,9.82-0.13-3.17-.44-10.68-4.45-11.9h0Z" transform="translate(-1320.98 439.57)"/><path class="cls-42" d="M1773.35-117.85c0-12.93-10-17.83-15.13-4.24,1-12.49-10.12-4.54-6.08.82-0.39-4.28,1.55-6.06,4.26-3.79,1.06,0.89-1,5.33-.27,6,3.33,2.71,2.91-2.13,4.27-3.44,13.23-12.79,4,5.06,13,4.69C1773.38-124.35,1772.52-117.81,1773.35-117.85Z" transform="translate(-1320.98 439.57)"/><path class="cls-43" d="M1800.34-155c-10.51-14.72-13-32.83-16.16-50.13-2.64-14.63-7.44-30.49-6.46-45.43,1.3-19.93,8.79-39,9.91-59.06,0.92-16.48-1-41.59-11.14-55.73,4.91,19.77,11,44.94-13,52.23-8,2.43-16.09,3.77-23.21,8.49-10.38,6.88-13.31,18.09-20.92,27.21-17.77,21.32-50.18,23.21-75.72,20.51a176,176,0,0,1-39.85-8.91c-8.83-3.11-23.21-7.48-28.14-16.25-8.25-14.66,16.85-37.12,21.72-50.23,11-29.61-9.52-61.39-33.18-78.3-13-9.31-21.92-12.74-37.43-5.87-5.53,2.45-7.87,4.38-11.32,8.75-12.81,16.27-24.14,34-36.13,50.87l-20.12,28.33c-4.89,6.89-4.29,6.67-1.69,15.48,0.58,2,.95,6.06,2.25,7.64,1.65,2,3.5.11,5.38,2,6.15,6.22,5.18,17,7.32,25.07,2.92,10.94,9.86,17.54,18.81,24,3.66,2.62,13,6,13.94,10.18,5.59-15.22,42.56-18.94,52.63-8.3,9.1,9.61,5.75,28.15,1.83,39.35-3.8,10.85-3.89,11.86,0,22,4.34,11.38,1.12,26.13,1,38,0,6.35-.43,13.71,1.88,19.8,1.68,4.43,8.7,9.52,6.06,14.32-6.89,12.51-24.15-3.83-30-6.8-6.12-3.1-7.23.35-6.64-9.61,0.56-9.35,3.74-17.85-.54-27.06,2.17,16.46-1.39,26.18-9.86,39.5,5.73-5.69,6.47,6.54,6.16,9.27,1.13-3.53,4.07-9.83,8.69-9.36,5.9,0.6,2.94,8.41,5.3,10.65,1.75,1.66,12.67.06,14.77,0,17.84-.47,18-4.77,14.25-19.39-4.32-17-2.29-36-2.35-53.39,0-6.87-1.54-14.3-1-21.08,0.52-6.09,2.81-12,3-18.33,28.9,10.1,60.85,15.89,91.4,10.85,12.31-2,31.47-6,40.3-14.38a37.9,37.9,0,0,0,9,13.88c8.88,9,22.53,10.28,30.48,19.89,13,15.69,18,47.89,10.8,66.78,3.95-4.88,6.07,2.75,5.85,5.58,1.13-3,3.89-7.73,7.4-8.43,7.33-1.47,7.75,7.19,7.73,12.67,7.65-.32,27.57-2.73,31.91-10.71,3.28-6-1.19-21.27-4.92-26.49h0Z" transform="translate(-1320.98 439.57)"/><path class="cls-44" d="M1409-321.14c-9.13-5.52-6.49-6.8-12.69-1.28-6,5.38-11.57,9.79-19.46,12.41-11.67,3.87-26.58,4.6-37.83-.92-3.57-1.75-8.51-8.38-9.41-3.11-1.5,8.8,15.61,15.91,21.3,17.61a63.28,63.28,0,0,0,30.28,1.11c5.13-1,46.1-14.77,27.81-25.82h0Z" transform="translate(-1320.98 439.57)"/><path class="cls-45" d="M1594.87-363.36c-4.5-19.82-17-36.56-31.62-50.24-10.82-10.15-25-24.44-40.35-25.54-11.54-.82-21,4.77-31.82,7.45-8.84,2.19-17,.6-25.67-1.35-22.23-5-31.07-.66-41.89,18.76-4.14,7.43-8.29,14.89-13.52,21.62-6.71,8.63-15.12,12.87-23.09,19.81-13.3,11.57-22.26,31-28.2,47.25-2.7,7.41-7.33,21.91-3.72,29.63,2,4.31.66,3.61,7.44,4.06a78.08,78.08,0,0,0,18.06-.7,58.68,58.68,0,0,0,19.5-6.71c3.33-1.9,7.72-7.6,11.06-8.7,3.9-1.29,10.85,4.1,13.34,8.29,4.3,7.23-.14,13.45,10.58,7,4.34-2.61,4.19-3.26,9-5,2-.74,3.69-1.42,5.77-2.07,8.27-2.6,14-5.63,18.77-13.46-0.48,6.5,2,28.46,7.42,32.09,6.36,4.23,12.61-4.86,9.35-10.42,2.05,3.5-.47,6.26,3.39,8.38,0.94,0.52,7.54.17,8.2-.42,2-1.8.44-9.79-.41-11.69,0.77,1.73.81,8.93,2.05,9.74,2,1.26,8.36-1.8,10.53-2.22,5.57-1.08,18.06-2.91,9.38-11.31,1.35,1.31,2.09,5.39,3.67,6.16,1.24,0.61,9-1.64,10.54-2,3-.79,4.86-1.22,7.5-2.87,1.81-1.13-1.71-4-.74-4.7-0.15.12,4.22,3.83,4.93,3.91,7.37,0.88,5.18-5,8.53-7.14,6.67-4.3,12.82-5.81,11-16.38,2.16,4.76,7.77-.28,10.16-3.45,3-4,3-8.68,3.24-13.66-0.1,1.39,0,3.91.69,5.11,2.11,3.64,9.64-16.15,10-17C1589.85-355.35,1595-357.38,1594.87-363.36Z" transform="translate(-1320.98 439.57)"/><path class="cls-34" d="M1508.52-406.86c-8.57-.84-13.89,5-19.78,10.24-3.67,3.28-7,6.28-11.7,7.87-0.34.11-5.71,0-5.18-.79,0-.05,3.21,1,3.76.59,5.35-3.58,10.64-6.41,15.75-10.75C1496.74-404.24,1501.2-408.45,1508.52-406.86Z" transform="translate(-1320.98 439.57)"/><path class="cls-34" d="M1480.47-418.33c0.39-1.67,10-15.31,10.79-13.41C1491.5-431,1480.76-420.87,1480.47-418.33Z" transform="translate(-1320.98 439.57)"/><path class="cls-34" d="M1484.71-422.23c0.67-2,12-12.94,12.2-11.37C1497-433.37,1485.19-424.49,1484.71-422.23Z" transform="translate(-1320.98 439.57)"/><path class="cls-34" d="M1492.23-427.1c0.83-1.34,14.13-12.63,15.07-10.12C1507.31-436.35,1493.42-429,1492.23-427.1Z" transform="translate(-1320.98 439.57)"/><path class="cls-34" d="M1447.27-391.36c3.43-1.21,4.67-4.17,4.64-7.59,0-.62-7.17-16.75-6.06-16.75,0,0,6.33,14.85,6.4,16.71C1452.44-393.3,1450.49-393.68,1447.27-391.36Z" transform="translate(-1320.98 439.57)"/><path class="cls-34" d="M1427.22-405.22c-1.51,6.62-7.69,11-8.87,17.46-0.13.7,0.09,7.46,0.64,7-2,1.45-.25-10.28-0.05-10.69C1421-395.78,1426.69-400.22,1427.22-405.22Z" transform="translate(-1320.98 439.57)"/><path class="cls-34" d="M1468.51-387.45c1.34,1.94,6.29,23.32,3.91,22.41C1473.45-364.71,1469.72-385.3,1468.51-387.45Z" transform="translate(-1320.98 439.57)"/><path class="cls-34" d="M1473.84-380.76c1,2.55,1.21,26.65-.73,25.22C1472.94-355.73,1474.74-377.67,1473.84-380.76Z" transform="translate(-1320.98 439.57)"/><path class="cls-34" d="M1474.44-353.67c0.05,4-6.07,41.09-5.93,41.11C1467.41-312.55,1474.44-349.77,1474.44-353.67Z" transform="translate(-1320.98 439.57)"/><path class="cls-34" d="M1485-393.76c2.91,11.47.68,23.41-2.85,34.46-1.05,3.3-11.28,29.67-11.39,29.64-1.11-.3,11.42-30.71,12.44-34.22C1485.8-372.62,1487.31-385,1485-393.76Z" transform="translate(-1320.98 439.57)"/><path class="cls-34" d="M1490.25-356.18c-0.05,4.35-4.77,55.46-5,55.46C1484.74-300.64,1490.25-351.12,1490.25-356.18Z" transform="translate(-1320.98 439.57)"/><path class="cls-34" d="M1483.07-299.35c-1.42-3.17.12-58.47-1.93-57.83,3.17-1.26,2.57,30.18,2.36,31.65C1482.62-319.45,1479.06-305.1,1483.07-299.35Z" transform="translate(-1320.98 439.57)"/><path class="cls-34" d="M1497-329.7c0.8,2.83,3,24.87,1.6,24.81C1497.46-305.16,1497.52-326.91,1497-329.7Z" transform="translate(-1320.98 439.57)"/><path class="cls-34" d="M1499.41-329.7c0.63,1.95,3.66,25,2.55,24.81S1500.24-327,1499.41-329.7Z" transform="translate(-1320.98 439.57)"/><path class="cls-34" d="M1485.16-296c0.07,0.32.83,5.7,0.24,5.31C1485.12-292,1485.61-295.15,1485.16-296Z" transform="translate(-1320.98 439.57)"/><path class="cls-34" d="M1534.4-378.07c3.7,3,15.27,30.74,13.66,31C1547.25-346.87,1538.86-375.71,1534.4-378.07Z" transform="translate(-1320.98 439.57)"/><path class="cls-34" d="M1542.48-371.6c1.18,2,13.53,26.58,13.24,26.78C1552.48-344,1544.33-368.59,1542.48-371.6Z" transform="translate(-1320.98 439.57)"/><path class="cls-34" d="M1457.17-322.48c1.91,3.9,1.52,8.58.2,12.62-0.24.73-6.75,11.51-7.62,10.05C1448.5-301.78,1463.94-315.31,1457.17-322.48Z" transform="translate(-1320.98 439.57)"/><path class="cls-34" d="M1445.89-326c3.32,7,1.77,13.45-1.18,19.91,0.26-.57-4.68,9.68-5.31,8.85,0.23,0.19,4.73-9.28,4.91-9.66,2.65-5.6,4.65-13,1.58-19.11C1446.26-325.17,1445.88-326,1445.89-326Z" transform="translate(-1320.98 439.57)"/><path class="cls-34" d="M1435.64-314c2.23,1.17,7.82,13.56,6,13.29C1440.07-301.13,1439.93-312.67,1435.64-314Z" transform="translate(-1320.98 439.57)"/><path class="cls-34" d="M1439.55-314.7c2.18,1.58,4.09,13.18,3.06,12.94C1440.73-302.33,1443.4-313.71,1439.55-314.7Z" transform="translate(-1320.98 439.57)"/><path class="cls-34" d="M1442.65-317.34c0.54,0.82,2.86,11.64,1.74,11C1444.4-306.29,1443-316.35,1442.65-317.34Z" transform="translate(-1320.98 439.57)"/><path class="cls-34" d="M1459.9-311.13c-0.07.8-3.62,9-4.17,7.88C1455.29-305.22,1460.7-308.86,1459.9-311.13Z" transform="translate(-1320.98 439.57)"/><path class="cls-34" d="M1412-309.17c-13.57-3.44,14.8-19.61,9.7-21.4,5.34,1.31-12.16,15.35-11.4,14.11C1408.79-314,1407.68-310.23,1412-309.17Z" transform="translate(-1320.98 439.57)"/><path class="cls-34" d="M1431.91-323c-1.29-1.11-12.86-4.27-12.28-1.57C1419-330.13,1431.71-323.08,1431.91-323Z" transform="translate(-1320.98 439.57)"/><path class="cls-34" d="M1422.33-327.36c2.56-2.34,12.2-.93,12.16-0.87C1433.25-326.68,1424.6-330.92,1422.33-327.36Z" transform="translate(-1320.98 439.57)"/><path class="cls-34" d="M1425.78-319.83c-0.82-.37-8.45-2.06-8.69-1.21C1418.07-323.89,1424.89-320,1425.78-319.83Z" transform="translate(-1320.98 439.57)"/><path class="cls-34" d="M1424.49-318.66c-1.07-.36-9.32-1.42-9.45-0.61C1415-322,1424.1-318.66,1424.49-318.66Z" transform="translate(-1320.98 439.57)"/><path class="cls-34" d="M1426.36-298.66c-0.7-1.4-10-10.61-10.7-8.94C1417-311.33,1426.33-298.7,1426.36-298.66Z" transform="translate(-1320.98 439.57)"/><path class="cls-34" d="M1470.85-351.52c-0.05.41-3.19,9.67-3.77,8.91C1466.17-343.75,1471.19-349.88,1470.85-351.52Z" transform="translate(-1320.98 439.57)"/><path class="cls-34" d="M1417.56-362.59c2.11,1.88,7.39,20.39,5.66,20C1423.81-342.54,1420-360.88,1417.56-362.59Z" transform="translate(-1320.98 439.57)"/><path class="cls-34" d="M1416.41-358.35c1.25,1.1,6.28,16,4.63,15.75C1420.33-342.67,1418.58-356.66,1416.41-358.35Z" transform="translate(-1320.98 439.57)"/><path class="cls-34" d="M1416.41-348.23c1.36,1.6,5.2,15.42,3.36,15.13C1418.21-333.48,1419.36-346.4,1416.41-348.23Z" transform="translate(-1320.98 439.57)"/><path class="cls-34" d="M1384-370c2.77-1.22,15.55,2.63,14.24,3.66C1396.71-365.35,1388.14-372.87,1384-370Z" transform="translate(-1320.98 439.57)"/><path class="cls-34" d="M1379.86-365.1c2.52-1.32,11.29,2.13,10.7,2.57C1388.27-361.5,1383.11-368.35,1379.86-365.1Z" transform="translate(-1320.98 439.57)"/><path class="cls-34" d="M1373.1-355.13c1.88-1,14,.55,13.24,1.47C1385.48-352.48,1375.4-357.67,1373.1-355.13Z" transform="translate(-1320.98 439.57)"/><path class="cls-34" d="M1364.77-339.64c1.71-.57,20.06.94,18.69,3.43C1382.83-335.53,1367.82-340.82,1364.77-339.64Z" transform="translate(-1320.98 439.57)"/><path class="cls-34" d="M1361.44-332.31c1.48-.1,12.87.81,12.7,1.1C1373.3-329.48,1363-333.18,1361.44-332.31Z" transform="translate(-1320.98 439.57)"/><path class="cls-34" d="M1358.94-326.2c1.23,0,12.87.74,12.63,1.63C1371.24-323.37,1360.58-326.51,1358.94-326.2Z" transform="translate(-1320.98 439.57)"/><path class="cls-34" d="M1356.64-319.26c1.28,1,13.57,5.35,13.7,3.77C1368.9-311.86,1357.81-318.33,1356.64-319.26Z" transform="translate(-1320.98 439.57)"/><path class="cls-34" d="M1355.3-312.61c1.09,1,10.68,4.73,10.94,3.41C1366.24-305.94,1355.48-312.5,1355.3-312.61Z" transform="translate(-1320.98 439.57)"/><path class="cls-35" d="M1570.74-378.17c-8.57-25.34-26.36-55.88-55.95-59-7.79-.83-13.49,2.26-20.78,4.51-6.1,1.89-12.72,1.61-18.34,4.87-7,4.07-13.44,21.75-20.55,16.92-4.87-3.31-3.88-13.36-11-15-10.54-2.36-22.6,21.92-27.57,28.46-7.51,9.89-14.09,20.11-15.21,32.73-0.76,8.55-.25,17.18-1,25.73-2.42,27.15-16.83,43.59-45.7,37.13,0.17,8.15-.89,7.32,5.55,9.62,4.51,1.61,12,.48,16.7-0.05a61.24,61.24,0,0,0,20.93-6c4.19-2.13,8.15-7.15,12.23-8.78s1.16-3,7.14.54a23.16,23.16,0,0,1,8.4,9.44c0.13,0.25.44,5.35,0.82,5.68,5.7,5.08,8.18-3.46,13-5.95,11.11-5.71,21-2.79,29.12-16.07-0.48,6.5,2,28.47,7.42,32.09,6.36,4.23,12.61-4.86,9.35-10.42,2.05,3.5-.47,6.26,3.39,8.38,0.94,0.51,7.55.17,8.2-.42,2-1.8.43-9.8-.41-11.69,0.77,1.73.8,8.93,2.05,9.74,2,1.27,8.36-1.8,10.53-2.23,5.58-1.08,18.06-2.9,9.38-11.3,1.35,1.31,2.1,5.38,3.67,6.16,1.24,0.61,9-1.63,10.54-2,2.42-.64,6-0.29,7.5-2.87,1-1.64-1.23-2.82-.64-4.14,2-4.4,5-7.34,9.09-11.25,18.09-17.32,30.77-39.19,22.13-64.79h0Z" transform="translate(-1320.98 439.57)"/><path class="cls-35" d="M1491-368.09c0.66-16.92,11.12-25.67,25.52-31.84,1.78-.76,7.11-1.67,7.39-4.12,0.57-4.87-14.91-7.22-18-7-7.59.44-13.15,4.87-18.61,9.69-2.34,2.07-4.72,5.31-7.56,6.76s-5.69.42-8.56,1.58c-14.63,5.91,9,34.17-6.66,45.48-7,5.09-4.19-9.54-4.73-13.8-1.29-10.18-6.2-11.62-13.75-17.49-13-10.11,2.42-6.36,6.51-13.87,3.23-5.95-5.29-25.75-11.37-26.63-9.75-1.41-13.78,16.4-17.14,22.27s-9,10.28-12.08,16.33c-9.87,19.24,14.06,37.45,4.53,56.21-2.33,4.59-7,7.18-9.47,11.55-3.71,6.55-2.75,10.15-11,14.05-12,5.67-27.25,6.24-40.35,6.1,15.75,2.27,32.82.81,46.54-7.88,8.94-5.66,9.4-12.66,19-2.53,3.16,3.33,3.52,11,6.21,13,4,3,10.68-5.76,14-7.33,10.89-5.18,19.77-3.55,27.34-16-0.74,10,2.78,22.12,6.2,31.56-3.94-30.44,14.91-56.37,16.07-86.12C1492.41-405.48,1489.72-336.43,1491-368.09Z" transform="translate(-1320.98 439.57)"/><path class="cls-35" d="M1486-374.25c0.84-14,8.71-27.68,22.48-32.28-8.42-2-14.91,5.25-20.77,10.15-4,3.38-6.87,6-12.11,7.19-1.19.26-5.58-1.5-6.42-.45-2.18,2.69.87,9.6,1.41,12.59,1.45,7.91,2.7,17.4-1,24.91-4.79,9.8-21,13.63-23.75,23.57-1.75,6.33,2,13.17-.36,20.27a37.86,37.86,0,0,1-6,10.79c16.25,0.29,27.26-10.44,31.24-25.2,2.18-8.08,5.81-14.62,9.43-22,4.53-9.19,5.21-19.48,5.81-29.58h0Z" transform="translate(-1320.98 439.57)"/><path class="cls-35" d="M1419.24-360.16c5.77,10.4-1.88,28,14.31,23.32,8.83-2.55,21.86-10.42,23.14-20.55,3.77-29.92-50.94-27.06-37.45-2.77h0Z" transform="translate(-1320.98 439.57)"/><path class="cls-46" d="M1436.26-374.55c12,6.27,8,23.94-6.25,17.35-9.8-4.54-5.06-23.24,6.25-17.35h0Z" transform="translate(-1320.98 439.57)"/><path class="cls-46" d="M1436.41-374.6c3.4,2.07,5.83,5.87,7.86,9.19,0.43,0.71,1.24-.18,1.32-0.09,1.26,1.34-.05,3.81,1.18,5.21,2,2.25,2.93-9.5,2.4-9.07,1-.81.54,9.24-0.48,10.91-2.4,3.9-7.67,7.15-12.43,6.91-3.12-.15-8.77-2.21-9.92-5.79a3.71,3.71,0,0,1,2-1c0.25-.82-4.71-5.63-3-6.49-0.61.31,3.54,3,3.47,2.33-0.22-2.36-1-5.6,1.19-7.44a5.71,5.71,0,0,1-3.59.49c0.48,0.29.2-2.05-.47-1.94,0.81-.14,2-1.85.5-2,0.36,0,8.41.57,6.59-1.53a23.15,23.15,0,0,0-4.45-1.6A12.82,12.82,0,0,1,1436.41-374.6Z" transform="translate(-1320.98 439.57)"/><path class="cls-47" d="M1444.16-363.66c-2-5.79-10.07-12.83-15-5.79C1422.34-359.84,1438.48-355,1444.16-363.66Z" transform="translate(-1320.98 439.57)"/><path class="cls-48" d="M1442.77-363.36c-3.52,4.91-15.3,4.67-14.19-3.16C1430-376.23,1440.24-367.72,1442.77-363.36Z" transform="translate(-1320.98 439.57)"/><path class="cls-49" d="M1442.77-363.36c-6,8.85-19.91-1.83-12.25-7.07C1435.27-373.69,1441-367.12,1442.77-363.36Zm0,0c-2.12-4-12.37-12.3-14.07-3.56C1427.09-358.61,1439.55-358.93,1442.77-363.36Z" transform="translate(-1320.98 439.57)"/><path class="cls-50" d="M1442.62-363.35c-2.42-4.19-12.15-12.68-12.36-2.91C1430.1-359.14,1439.15-358.75,1442.62-363.35Z" transform="translate(-1320.98 439.57)"/><path class="cls-51" d="M1442.62-363.62c-1.81-3.13-10.43-10.74-9.67-1.82C1433.43-359.86,1439.76-359.1,1442.62-363.62Z" transform="translate(-1320.98 439.57)"/><path class="cls-52" d="M1429.51-370.14c5.93-5.38,19,5.16,9.45,10.17-3.46,1.82-7.66.59-10.48-1.82a10,10,0,0,0,14.1-1.53c-1.17-5.07-7.83-11.13-13.06-6.82C1430.06-370.63,1430.08-370.61,1429.51-370.14Z" transform="translate(-1320.98 439.57)"/><path class="cls-53" d="M1429.12-372.06c5-1.85,15.1,1.72,14,8.7-0.54,3.54-5.94,5.57-9,5.57-2.45,0-10.38-6.37-8.54-6.69-1.1.22,6.33,5.78,8.48,5.8,2.74,0,8.28-1.7,8.81-4.63,1.15-6.39-9.44-9.75-13.74-8.74C1429.48-372.19,1429.1-372.05,1429.12-372.06Z" transform="translate(-1320.98 439.57)"/><path class="cls-54" d="M1433.66-366.33c0,4-3.49,0-3.45,0S1433.66-370.37,1433.66-366.33Z" transform="translate(-1320.98 439.57)"/><path class="cls-55" d="M1427.18-376.44c6.82-1.62,13.18,3.37,17.4,8.06-3.43-3.06-5.67-8.87-12.2-9.66,3,0,15.16,9.13,12,10.32-0.78.29-13-9.25-17.24-8.72C1428-376.63,1427.59-376.49,1427.18-376.44Z" transform="translate(-1320.98 439.57)"/><path class="cls-53" d="M1445.85-365.28c0.4,8.17-12.63,9.74-12.58,8.92,0,0.13,9.71-3.66,10.65-7.07a15.29,15.29,0,0,0-10.72-9.21c4,0.39,11.41,4.43,11.41,9.17,0,5-8.17,8.26-10.91,6.76,6,0.9,11.94-1.79,12.14-8.57C1445.88-364.54,1445.83-364.54,1445.85-365.28Z" transform="translate(-1320.98 439.57)"/><path class="cls-55" d="M1449.92-367.27c3.29,11.78-9.64,14.59-18,14.69,4.5-.53,9.78-2.11,12.46-6.55-1.18,10.68-17.29,1.39-17.51,1.72-2.78,3.61,22.31,1.9,18.17-1.85,2.48,2.24-13.26,9.66-13.26,6.53,0.08-1.58,24.83-1.84,18.13-14.55C1450.23-366.16,1449.91-367.29,1449.92-367.27Z" transform="translate(-1320.98 439.57)"/><path d="M1442.77-363.36c-4.5-7.75-9.55-4.27-15.58-6a2.35,2.35,0,0,0,2-.74,5.42,5.42,0,0,1-3.89-1.36c2.22,0.6,3.45,1.29,6,.59a6.31,6.31,0,0,1-3.62-.94,22.76,22.76,0,0,0,4.92.35l-1.43-.9C1436.6-371.29,1440.6-368.44,1442.77-363.36Z" transform="translate(-1320.98 439.57)"/><path class="cls-56" d="M1400.39-285c-5.3,34.63,10.14,68.38,9.48,103.09-0.65,34.09-21.7,77.8-63.55,66.79a29.32,29.32,0,0,1-15.61-9.89c-2-2.42-8.73-10.12-8.87-11.7-0.68-7.29,5.56-5.21,11.6-7.35,4-1.41,8.94-8.35,12.74-4.81,4.78,4.47-5.81,13,3.67,16.65,4.2,1.64,11.92-2,15.43-3.8,15.91-8.06,20-23.76,19.19-40.53-0.86-17.89-5.65-36.64-12.45-53.22-8-19.52-19.09-38.85-16.77-60.8Z" transform="translate(-1320.98 439.57)"/><path class="cls-34" d="M1355.75-275.46c1,1.23,11.15,8.6,12.05,6.71C1367.07-265.15,1356.1-275,1355.75-275.46Z" transform="translate(-1320.98 439.57)"/><path class="cls-34" d="M1356.52-271.06c0.8,0.91,8.48,5.24,8.75,4.27C1363.38-263.71,1357.1-270.83,1356.52-271.06Z" transform="translate(-1320.98 439.57)"/><path class="cls-34" d="M1357.87-265.35c1.56,1,22.08,9.92,22.45,7C1380.33-254.26,1359.51-264.25,1357.87-265.35Z" transform="translate(-1320.98 439.57)"/><path class="cls-34" d="M1361.76-258.92c1.34,0.47,18.56,5,18.56,3.24C1380.33-252,1362.32-258.71,1361.76-258.92Z" transform="translate(-1320.98 439.57)"/><path class="cls-34" d="M1367.35-240.21c1.33,0.8,13.93,5.22,14.21,3.59C1381.55-233.21,1367.82-240,1367.35-240.21Z" transform="translate(-1320.98 439.57)"/><path class="cls-34" d="M1369.09-235.41c1.17,0.57,9.26,2.56,9.45,1.85C1378.15-230.86,1369.3-235.41,1369.09-235.41Z" transform="translate(-1320.98 439.57)"/><path class="cls-34" d="M1382.64-242.64c1.25,0.5,14.92,2.78,14.92,1C1397.55-237.86,1383.6-242.38,1382.64-242.64Z" transform="translate(-1320.98 439.57)"/><path class="cls-34" d="M1387.55-246.13c1.12,0.27,9.88.84,10,0C1397.14-243.27,1388.38-246.13,1387.55-246.13Z" transform="translate(-1320.98 439.57)"/><path class="cls-34" d="M1394.65-251.83c0.34-.11,5.82-1,5.81-1.2C1399.79-252.49,1394.42-251.4,1394.65-251.83Z" transform="translate(-1320.98 439.57)"/><path class="cls-34" d="M1377.8-212.59c1,0.13,10.35.94,10.58,0C1388.38-209.85,1378.9-212.59,1377.8-212.59Z" transform="translate(-1320.98 439.57)"/><path class="cls-34" d="M1378.79-209.11c1.07,0.27,8,.58,8.09,0C1386.88-206.59,1379.13-209.11,1378.79-209.11Z" transform="translate(-1320.98 439.57)"/><path class="cls-34" d="M1382.84-191.19c0.94,0.52,12,3,11.84,1.73C1394.68-185.75,1382.88-191.19,1382.84-191.19Z" transform="translate(-1320.98 439.57)"/><path class="cls-34" d="M1383.55-186.57c0.8,0.28,8.95,1.45,9,.73C1391.69-183.27,1384.55-186.06,1383.55-186.57Z" transform="translate(-1320.98 439.57)"/><path class="cls-34" d="M1384.09-182.15c1,0.52,10.37,2.24,10.58.76C1394.48-177.85,1384.76-181.92,1384.09-182.15Z" transform="translate(-1320.98 439.57)"/><path class="cls-34" d="M1384.41-166c1-.37,11.77-0.13,10.94,1C1394.88-164,1385.6-167.91,1384.41-166Z" transform="translate(-1320.98 439.57)"/><path class="cls-34" d="M1384.06-161.27c0.74-.13,11.54.14,10.61,1.46C1394-159,1385.59-162.1,1384.06-161.27Z" transform="translate(-1320.98 439.57)"/><path class="cls-34" d="M1381.17-152.05c0.78,0.12,9.28,2.68,8.72,3.23C1388.82-147.62,1382.28-152.71,1381.17-152.05Z" transform="translate(-1320.98 439.57)"/><path class="cls-34" d="M1376.62-144.84c1.51,0.39,7.05,5.21,6.91,5.21C1382.35-141,1378.53-144.84,1376.62-144.84Z" transform="translate(-1320.98 439.57)"/><path class="cls-34" d="M1374.2-142.26c1.67,1.15,4.76,7.2,5.12,7.36C1378.39-134.9,1375.58-141.7,1374.2-142.26Z" transform="translate(-1320.98 439.57)"/><path class="cls-34" d="M1364.34-135.61c1.19,0.83,5.41,7.76,5,7.66C1368.49-129.84,1366.2-135,1364.34-135.61Z" transform="translate(-1320.98 439.57)"/><path class="cls-34" d="M1360.27-134c2,1.18,3.26,8.18,3.05,8.09C1362.73-126.08,1361.61-132.63,1360.27-134Z" transform="translate(-1320.98 439.57)"/><path class="cls-57" d="M1325.46-139.66c5.83,4.16,17.12,1.58,18-6.26C1339.2-140.65,1332.37-136.33,1325.46-139.66Z" transform="translate(-1320.98 439.57)"/><path class="cls-57" d="M1335.58-141.33c1.21-.15,7.22-2.76,7.5-3.8-1.33,4.91-12.23,10.13-16.56,5.93a29,29,0,0,1,9.06-2.13h0Z" transform="translate(-1320.98 439.57)"/><path class="cls-35" d="M1403.94-233.56c-4-16.54-6.15-34.52-3.55-51.47l-45.12-5.57c-0.7,6.63-1.39,11.66,3.92,15,4.83,3.06,12.38,2.24,17.66,5,9.68,5.06,13.18,14.8,15.87,24.8,6.69,24.85,15.92,52.58,10.8,78.55-3.73,18.89-17.63,41.05-37.53,45.83-7.58,1.82-20.13.52-24.31-7.34-3.18-6,2.16-10.67,1.41-16.37-2.72,1.76-11.9,5.53-15.49,4-2.7-1.19,6.11-2.74,3.92-2.48-3.24.51-8.52,0-10.13,3.83s1.9,2.42,3.13,4.81c2.16,4.2,4.85,8.85,8.2,12.23,12.16,12.27,32.72,10.48,46.91,3,39.29-20.67,33.06-77.95,24.33-113.81h0Z" transform="translate(-1320.98 439.57)"/><path class="cls-35" d="M1403.94-233.56c-4-16.54-6.15-34.52-3.55-51.47l-45.12-5.57c-1.13,10.72,1.16,21.6,4.53,31.72,10.93-11.7,23.85,20.38,25.39,25.26,8.27,26.15,19.16,76.07-8.34,95.45a36.19,36.19,0,0,1-19.71,6.19,19.25,19.25,0,0,1-3.75-.16c-14.58-2.37-1.21-10.66-7.2-16.77-3.6-3.67-10.21,4.06-14.27,5.2-3.34.94-8.81-.18-10.53,3.89-1.44,3.39,2,2.63,3.13,4.81,7.08,13.65,17.52,21.61,33.72,21,59.55-2.21,55.58-79,45.71-119.57h0Z" transform="translate(-1320.98 439.57)"/><path class="cls-35" d="M1408.45-313.49c1.1-3.17,28.13,9.91,20,24.1-2.79-1.64-3.67-9.6-6.44-12.83-1.85-2.16-14.59-8.18-13.52-11.28h0Z" transform="translate(-1320.98 439.57)"/><path class="cls-58" d="M1485.3-389.79c6.89,28.29-18.43,54.5-16.6,83.24-1.68-26.37,12.71-54.49.25-79.88,3.72,3.23,11.88,33.45,7,34.25C1484.75-353.62,1485.94-384.29,1485.3-389.79Z" transform="translate(-1320.98 439.57)"/><path class="cls-58" d="M1446.26-324.59c2.49,4.4-.2,19.66,1.63,20.53,6.94,3.32,9.67-14.31,9.59-17.28,1.76,5.57.18,11.53-2.84,16.4,3.28-1.41,4.55-4,5.21-7.66,0.71,6.68,5.64,3,8.62-.58-6.13,8.82-18,16.33-28.91,15.71C1445.61-305.3,1449.57-314.45,1446.26-324.59Z" transform="translate(-1320.98 439.57)"/><path class="cls-58" d="M1432.78-336.61c-10.22,3.3-8.72-3.07-9.65-10.66-1.26-10.34-12.67-24.16,1.35-30.77-7.62,4.48-6.54,10.71-3.91,18C1422.85-353.8,1423.91-337.08,1432.78-336.61Z" transform="translate(-1320.98 439.57)"/><path class="cls-59" d="M1431.94-409.27c-3,4.59-3.82,10.13-6.52,14.8-1.2,2.08-5.86,5.62-5.56,8.13,0.86,7.28,19.27-4.91,22.8-6.29,9.37-3.66,6.79-7.29,2.87-16.42-3.8-8.87-7.8-9.18-13.59-.22h0Z" transform="translate(-1320.98 439.57)"/><path class="cls-60" d="M1422.4-301.91c-8.48-5.83-7.06-8.32-14.33-3.14-7.65,5.45-14.79,9.72-24.17,11.8-13.68,3-30.49,2.6-43.16-3.82-3.06-1.55-11-10.31-12.68-6.36-3.93,9.51,16.67,19.84,22.28,22.07a79.57,79.57,0,0,0,33.81,5c5.32-.34,59-11.29,38.25-25.56h0Z" transform="translate(-1320.98 439.57)"/><path class="cls-61" d="M1406-280.73c4.15-1.39,18.5-5.64,20.4-10.54,2.15-5.52-7.92-17.32-13-17.44-3.08-.07-5.85,4.25-8.74,6.37-8.21,6-18.29,9.25-28.34,10.29,9-.58,18.29-2,26.57-5.7,4-1.8,10.63-8,15.4-5.67,12.79,6.26-6.68,20.58-12.29,22.7C1419.37-285.21,1429.86-289.76,1406-280.73Z" transform="translate(-1320.98 439.57)"/><path class="cls-62" d="M1382.61-281c5.52-.71,22.31-2.45,25.35-8.65s-6.45-4.05-10.37-3.41c-15,2.45-27.44,2.83-42.15.45-9.41-1.52-14.77-6.22-22.84-9.89-4.14-1.88-7.35-3.19-3,4.69,8.16,14.87,38.83,18.64,53,16.82h0Z" transform="translate(-1320.98 439.57)"/><path class="cls-35" d="M1680.53-212.21c8.24-6.37,14.9-9,23.17-2.6a129,129,0,0,0,24.94,15.34c3.19-4.67-4.83-5.7-8.13-7.63-8-4.65-15.57-11.28-18.78-20.2-7.23,4.38-15.57,8.49-24.05,9.52C1678.54-216.08,1679.27-213.64,1680.53-212.21Z" transform="translate(-1320.98 439.57)"/><path class="cls-35" d="M1482.11-256.8c10.57,6.22,20,16.17,22.45,28.46,0.83,4.11,1,25.74,8.34,22.82,6.26-2.49-3.52-19.19-4.49-22.73-1.14-4.21-1.26-14.62-3.77-17.76-0.89-1.11-3.25-1.23-4.37-2.19-5.72-4.94-12.77-8.07-18.35-13.41A13,13,0,0,1,1482.11-256.8Z" transform="translate(-1320.98 439.57)"/></g></g></svg>