<svg id="Layer_1" data-name="Layer 1" xmlns="http://www.w3.org/2000/svg" viewBox="0 0 612.81 570.03"><defs><style>.cls-1{fill:#b73d0d;}.cls-2{fill:#e36b07;}.cls-3{fill:#ecde4c;}.cls-4{fill:#fff;}.cls-5{fill:#541d00;}</style></defs><title>anim_14</title><rect class="cls-1" x="314.12" y="269.78" width="280.17" height="28.93"/><path class="cls-1" d="M-2948.43,6072.58a123.22,123.22,0,0,0,0-174.27l-87.13,87.13Z" transform="translate(3525.15 -5701.21)"/><path class="cls-2" d="M-3079.3,6103.52l81.68-10.82-70.1-91.13c0.47-5.51.76-11.06,0.76-16.69,0-4.46-.2-8.87-0.5-13.26l68.95-90.06-81.33-10.61,21.67-80.88-82.6,22.13-12-90.48-67.27,51.74-41.72-72.25-44.74,77.49-68.92-52.76-11.15,85.4-79.38-21.27,20.73,77.38-74.14,9.82,64.3,83.59a196.43,196.43,0,0,0-1.53,24c0,4.52.21,9,.51,13.42l-69.08,90.24,81.49,10.63-22.29,83.19,83.35-22.33,11.73,88.35,66-50.77,42.51,73.62,45.82-79.36,68.31,52.29,10.84-83,79.22,21.23Z" transform="translate(3525.15 -5701.21)"/><path class="cls-1" d="M-3220.06,5773.46l-41.72-72.25-44.74,77.49-68.92-52.76-11.15,85.4-79.38-21.27,20.73,77.38-74.14,9.82,64.3,83.59a196.43,196.43,0,0,0-1.53,24c0,4.52.21,9,.51,13.42l-69.08,90.24,81.49,10.63-22.29,83.19,83.35-22.33,11.73,88.35,66-50.77,42.51,73.62,45.82-79.36Z" transform="translate(3525.15 -5701.21)"/><path class="cls-3" d="M-3203.78,6087.38a144.15,144.15,0,0,0,0-203.86l-101.93,101.93Z" transform="translate(3525.15 -5701.21)"/><circle class="cls-4" cx="160.06" cy="216.61" r="56.69"/><path class="cls-2" d="M-3495.55,6055.5a20.48,20.48,0,0,1-14.53-6,20.55,20.55,0,0,1,0-29.06l52.47-52.47a20.55,20.55,0,0,1,29.06,0,20.55,20.55,0,0,1,0,29.06l-52.47,52.47A20.49,20.49,0,0,1-3495.55,6055.5Z" transform="translate(3525.15 -5701.21)"/><path class="cls-2" d="M-3443.08,6003a20.49,20.49,0,0,1-14.53-6l-52.47-52.47a20.55,20.55,0,0,1,0-29.06,20.55,20.55,0,0,1,29.06,0l52.47,52.47a20.55,20.55,0,0,1,0,29.06A20.48,20.48,0,0,1-3443.08,6003Z" transform="translate(3525.15 -5701.21)"/><circle class="cls-5" cx="160.06" cy="213.41" r="36.91"/><circle class="cls-4" cx="136.72" cy="192.4" r="13.57"/></svg>