<svg id="Layer_1" data-name="Layer 1" xmlns="http://www.w3.org/2000/svg" viewBox="0 0 415.31 267.9"><defs><style>.cls-1{fill:#e75577;}.cls-1,.cls-2{fill-rule:evenodd;}.cls-2{fill:#fff;}.cls-3{fill:#f79100;}.cls-4{fill:#1d2e2f;}</style></defs><title>anim_42</title><g id="legs"><path class="cls-1" d="M-52.36,3229.26l1.84,2.41c0.82,0.92,1.71,2,2.89,3.13a32,32,0,0,0,10.22,6.86,29.48,29.48,0,0,0,7.72,2,29.34,29.34,0,0,0,8.62-.25,33.5,33.5,0,0,0,8.36-2.67,40.42,40.42,0,0,0,7.42-4.63,46.94,46.94,0,0,0,11.36-13.34,50,50,0,0,0,3.78-8.13c0.54-1.41,1-2.87,1.38-4.32l1-3.69c1.28-4.88,2.62-9.79,4.08-14.61,2.93-9.6,6.3-19.06,10.81-26.43,2.25-3.63,4.74-6.81,7.43-8.76a14.07,14.07,0,0,1,8.22-3.1,22.11,22.11,0,0,1,8.23,1.45,45.87,45.87,0,0,1,6.54,3.22l2.39,1.46,1.72,1.21,1.44,1c2.77,2.33,6.86-.53,6.86-0.53a8,8,0,0,0,.8-2.5,4.73,4.73,0,0,0-1.57-4.5l-1.54-1.27-1.85-1.52-2.66-1.94a56.26,56.26,0,0,0-7.88-4.64A33.48,33.48,0,0,0,42.77,3142a25,25,0,0,0-3.86.13,31.9,31.9,0,0,0-4,.76,27.9,27.9,0,0,0-3.9,1.44c-0.63.3-1.28,0.59-1.9,0.91l-1.79,1.08c-4.8,3-8.49,7.17-11.72,11.54a93,93,0,0,0-8.22,14C5,3176.75,2.93,3181.72,1,3186.7s-3.73,10-5.43,14.86l-1.25,3.61c-0.37.95-.71,1.89-1.15,2.79A31.88,31.88,0,0,1-9.73,3213a27.91,27.91,0,0,1-7.34,7.39,20.34,20.34,0,0,1-3.79,1.94,12.7,12.7,0,0,1-3.3.73,8,8,0,0,1-4.53-1,10.71,10.71,0,0,1-3.08-2.64c-0.43-.48-0.78-1-1.11-1.44l-0.78-1.24-0.61-1.13a3.54,3.54,0,0,0-1.74-1.31,11.57,11.57,0,0,0-3-.56,19.78,19.78,0,0,0-8.13,1.38,12.74,12.74,0,0,0-6.49,5.13,6.83,6.83,0,0,0-1,3.45,6,6,0,0,0,.89,3.45S-53.28,3227.94-52.36,3229.26Zm154.95-20.67a36.43,36.43,0,0,0-10.89-14,29,29,0,0,0-9.29-4.9,24,24,0,0,0-2.91-.64l-1.53-.2-1.39,0a32.86,32.86,0,0,0-5.44.27A57.94,57.94,0,0,0,52,3195.79a90,90,0,0,0-16.38,11.53A107.33,107.33,0,0,0,22,3221.79c-2.06,2.56-3.88,5.26-5.68,7.93a48.86,48.86,0,0,1-4.49,5.75A41.39,41.39,0,0,1-9.94,3248a29.66,29.66,0,0,1-16.23-.86,21.51,21.51,0,0,1-3.79-1.8,9,9,0,0,1-.92-0.57l-0.3-.21c-1.27-.75-3-0.6-5.28.18a19.84,19.84,0,0,0-7.11,4.22,10.57,10.57,0,0,0-3.63,7.6,8.5,8.5,0,0,0,4.1,7.17l0.66,0.38c0.43,0.27,1.09.6,2,1a44,44,0,0,0,7.75,3,51.36,51.36,0,0,0,27.86-.2,61,61,0,0,0,30.82-20.44,67.19,67.19,0,0,0,5.74-8.46c1.37-2.32,2.74-4.7,4.33-7a90.6,90.6,0,0,1,10.64-12.92,74.57,74.57,0,0,1,12.89-10.43,44.29,44.29,0,0,1,13.82-6l1.61-.26a11.89,11.89,0,0,1,1.5-.11l0.73-.05,0.57,0a10.6,10.6,0,0,1,1.2.16,16,16,0,0,1,5.19,2.35,24.33,24.33,0,0,1,7.82,8.79,18.63,18.63,0,0,1,2.31,9.26,14.33,14.33,0,0,1-1.93,6.81,19.48,19.48,0,0,1-3,3.89L88,3234.76a4.69,4.69,0,0,0-1.54,2.05,7.1,7.1,0,0,0-.53,2.27,10.18,10.18,0,0,0,.18,2.72,6.8,6.8,0,0,0,2.31,1.45,5.82,5.82,0,0,0,2.57.38,6.14,6.14,0,0,0,3.07-1.29s0.71-.54,2-1.62a29.42,29.42,0,0,0,5-5.65,27.59,27.59,0,0,0,2.57-4.94,26,26,0,0,0,1.52-6.44A29.78,29.78,0,0,0,102.58,3208.59Zm-16.37,64.14A33.44,33.44,0,0,0,73.37,3261a38.8,38.8,0,0,0-18.87-4,64.92,64.92,0,0,0-19,3.81c-1.54.5-3,1.1-4.5,1.71l-4.22,1.74c-2.68,1.08-5.34,2.3-8,3.26-10.74,4.16-21.64,7.4-31.51,8.46a48.21,48.21,0,0,1-25-3.4,56.4,56.4,0,0,1-14.81-10c-3.21-3.25-5-5.15-5-5.15-1.32-1.49-3.45-2-5.91-1.64a15.61,15.61,0,0,0-7.61,3.48,12.54,12.54,0,0,0-4.48,7,7.68,7.68,0,0,0,1.66,6.8s2.44,2.29,6.87,6.14l4,3c0.72,0.54,1.46,1.11,2.26,1.67l2.63,1.61a50.68,50.68,0,0,0,5.92,3.32l3.37,1.57c0.58,0.26,1.14.55,1.76,0.78l1.88,0.64a68.25,68.25,0,0,0,35.14,2.58c12.28-2.2,24.11-6.77,35.26-11.95,2.84-1.24,5.51-2.69,8.25-4l3.88-1.91c1.21-.6,2.42-1.19,3.64-1.68a50.91,50.91,0,0,1,14.42-4,25.57,25.57,0,0,1,12.52,1.67,21.15,21.15,0,0,1,8.69,7,28.93,28.93,0,0,1,4.51,9.12,37.71,37.71,0,0,1,1.49,13.39c0,0.62-.1,1.08-0.13,1.4l-0.05.48a5.55,5.55,0,0,0,1.49,4.52,10.37,10.37,0,0,0,2,1.81,6.93,6.93,0,0,0,2.66-.5,5.35,5.35,0,0,0,3.42-4.28l0.11-.6c0.07-.4.2-1,0.28-1.75a46.61,46.61,0,0,0,.45-6.71,47.56,47.56,0,0,0-1.18-10.47A40.15,40.15,0,0,0,86.21,3272.73Zm-40.83,47.67A42.91,42.91,0,0,0,27,3305.09a49.84,49.84,0,0,0-22.3-4.19C3,3301,1.14,3301-.56,3301.32l-5.07.89c-1.69.31-3.21,0.86-4.82,1.29A35.72,35.72,0,0,0-15.1,3305l-4.47,1.78-1.06.42-0.82.29-1.61.6a24.24,24.24,0,0,1-6.8,1,34,34,0,0,1-14.3-3.47,67.32,67.32,0,0,1-13.52-8.42A103.69,103.69,0,0,1-68.83,3287a99.27,99.27,0,0,1-13.51-17.53c-0.63-1.07-1.17-2-1.56-2.82s-0.72-1.47-1-2a13.3,13.3,0,0,1-.63-1.52A3.91,3.91,0,0,0-87,3261.4a12,12,0,0,0-2.62-1c-0.53-.16-1.14-0.41-1.77-0.63a15.23,15.23,0,0,1-1.93-.72c-1.37-.6-2.86-1.43-4.43-2.07a8.73,8.73,0,0,0-4.56-.79,5.3,5.3,0,0,0-1.28.36,5.58,5.58,0,0,0-1.3-.36,8.45,8.45,0,0,0-4.5.79c-1.52.64-3,1.47-4.29,2.07a14.25,14.25,0,0,1-1.88.72c-0.61.22-1.21,0.47-1.72,0.63a11.18,11.18,0,0,0-2.55,1,3.56,3.56,0,0,0-1.45,1.77,12.5,12.5,0,0,1-.52,1.52c-0.2.52-.43,1.17-0.82,2s-0.81,1.75-1.37,2.82A90.31,90.31,0,0,1-136.37,3287a93.88,93.88,0,0,1-10.48,10.17,61.5,61.5,0,0,1-13,8.42,32.52,32.52,0,0,1-14.07,3.47,24.91,24.91,0,0,1-6.86-1l-1.65-.6-0.84-.29-1.09-.42-4.59-1.78a37.89,37.89,0,0,0-4.76-1.54c-1.64-.43-3.2-1-4.91-1.29l-5.12-.89c-1.71-.27-3.56-0.29-5.31-0.42a48.1,48.1,0,0,0-22,4.19,39,39,0,0,0-17.33,15.32,24.26,24.26,0,0,0-3.41,11,17.92,17.92,0,0,0,2.45,9.51,19.57,19.57,0,0,0,5.59,5.92,30.56,30.56,0,0,0,6,3.23A51.49,51.49,0,0,0-227.6,3353c2.85,0.53,5.11.79,6.65,1l2.36,0.21a6.83,6.83,0,0,0,5.5-2,9.73,9.73,0,0,0,1.34-1.6l0.46-.73a3,3,0,0,0-.11-0.78,7.5,7.5,0,0,0-.63-1.72,4.87,4.87,0,0,0-4-2.78l-2.09-.33c-1.35-.23-3.33-0.59-5.73-1.22a41.16,41.16,0,0,1-8.06-2.92c-2.79-1.39-5.58-3.42-6.78-6a7.73,7.73,0,0,1-.72-4.14,11.7,11.7,0,0,1,1.84-4.4,22.43,22.43,0,0,1,10.48-8.06,31.63,31.63,0,0,1,14.76-1.73c1.29,0.21,2.6.26,3.89,0.57l3.88,1c1.29,0.32,2.55.89,3.82,1.31a27.17,27.17,0,0,1,3.77,1.52l3.7,1.75,2.23,1,2.51,1.11a39.81,39.81,0,0,0,11.13,2.39,45.13,45.13,0,0,0,11.68-.71,53.9,53.9,0,0,0,5.64-1.4c0.92-.29,1.85-0.54,2.74-0.87l2.65-1a83.92,83.92,0,0,0,18.52-10.53,119.2,119.2,0,0,0,14.06-12.21,117.92,117.92,0,0,0,17.24-21.89c0.69-1.15,1.3-2.24,1.84-3.25,0.61,1,1.29,2.1,2.06,3.25a130,130,0,0,0,18.7,21.89,131.58,131.58,0,0,0,14.88,12.21,91.36,91.36,0,0,0,19.22,10.53l2.72,1c0.91,0.32,1.86.58,2.8,0.87a56.48,56.48,0,0,0,5.74,1.4,45.67,45.67,0,0,0,11.73.71,38.2,38.2,0,0,0,11-2.39l2.44-1.11,2.16-1,3.58-1.75a25.34,25.34,0,0,1,3.67-1.52c1.25-.42,2.46-1,3.74-1.31l3.81-1c1.27-.31,2.57-0.36,3.85-0.57a32.36,32.36,0,0,1,14.87,1.73,24.63,24.63,0,0,1,11,8.06,12.6,12.6,0,0,1,2.14,4.4,7.52,7.52,0,0,1-.44,4.14c-1,2.54-3.69,4.57-6.38,6a38.59,38.59,0,0,1-7.87,2.92c-2.37.62-4.32,1-5.65,1.22l-2.06.33a4.47,4.47,0,0,0-3.81,2.78,7.09,7.09,0,0,0-.51,1.72,2.92,2.92,0,0,0-.06.78l0.5,0.73a10.74,10.74,0,0,0,1.44,1.6,7.26,7.26,0,0,0,5.63,2l2.35-.21c1.53-.16,3.77-0.42,6.58-1a48.84,48.84,0,0,0,10-2.92,28.1,28.1,0,0,0,5.75-3.23,17.74,17.74,0,0,0,5.19-5.92,17.18,17.18,0,0,0,1.81-9.51A25.77,25.77,0,0,0,45.38,3320.41Zm-320-158.87s4.09,2.86,6.86.53l1.44-1,1.72-1.21,2.39-1.46a45.88,45.88,0,0,1,6.54-3.22,22.11,22.11,0,0,1,8.23-1.45,14.07,14.07,0,0,1,8.22,3.1c2.69,2,5.18,5.13,7.43,8.76,4.51,7.36,7.88,16.83,10.81,26.43,1.46,4.82,2.8,9.73,4.08,14.61l1,3.69c0.42,1.46.84,2.91,1.38,4.32a50,50,0,0,0,3.78,8.13,46.94,46.94,0,0,0,11.36,13.34,40.42,40.42,0,0,0,7.42,4.63,33.49,33.49,0,0,0,8.36,2.67,29.34,29.34,0,0,0,8.62.25,29.48,29.48,0,0,0,7.72-2,32,32,0,0,0,10.22-6.86c1.19-1.13,2.07-2.2,2.89-3.13l1.84-2.41c0.92-1.32,1.36-2,1.36-2a6,6,0,0,0,.89-3.45,6.84,6.84,0,0,0-1-3.45,12.74,12.74,0,0,0-6.49-5.13,19.78,19.78,0,0,0-8.13-1.38,11.57,11.57,0,0,0-3,.56,3.54,3.54,0,0,0-1.74,1.31l-0.61,1.13-0.78,1.24c-0.33.41-.68,1-1.11,1.44a10.71,10.71,0,0,1-3.08,2.64,8,8,0,0,1-4.53,1,12.7,12.7,0,0,1-3.3-.73,20.35,20.35,0,0,1-3.79-1.94A27.91,27.91,0,0,1-195,3213a31.88,31.88,0,0,1-2.88-5.08c-0.44-.9-0.78-1.84-1.15-2.79l-1.25-3.61c-1.7-4.89-3.49-9.88-5.43-14.86s-4-10-6.42-14.81a93,93,0,0,0-8.22-14c-3.23-4.37-6.92-8.54-11.72-11.54l-1.79-1.08c-0.62-.33-1.27-0.62-1.9-0.91a27.88,27.88,0,0,0-3.9-1.44,31.88,31.88,0,0,0-4-.76,25,25,0,0,0-3.86-.13,33.48,33.48,0,0,0-12.46,3.15,56.26,56.26,0,0,0-7.88,4.64l-2.66,1.94-1.85,1.52-1.54,1.27a4.73,4.73,0,0,0-1.57,4.5A8,8,0,0,0-274.64,3161.54Zm-18.49,81.7a6.8,6.8,0,0,0,2.31-1.45,10.18,10.18,0,0,0,.18-2.72,7.11,7.11,0,0,0-.53-2.27,4.69,4.69,0,0,0-1.54-2.05l-1.35-1.24a19.49,19.49,0,0,1-3-3.89,14.32,14.32,0,0,1-1.93-6.81,18.63,18.63,0,0,1,2.31-9.26,24.33,24.33,0,0,1,7.82-8.79,16,16,0,0,1,5.19-2.35,10.61,10.61,0,0,1,1.2-.16l0.57,0,0.73,0.05a11.9,11.9,0,0,1,1.5.11l1.61,0.26a44.28,44.28,0,0,1,13.82,6,74.54,74.54,0,0,1,12.89,10.43A90.56,90.56,0,0,1-240.71,3232c1.59,2.26,3,4.64,4.33,7a67.2,67.2,0,0,0,5.74,8.46,61,61,0,0,0,30.82,20.44,51.36,51.36,0,0,0,27.86.2,44,44,0,0,0,7.75-3c0.87-.43,1.53-0.77,2-1l0.66-.38a8.5,8.5,0,0,0,4.1-7.17,10.57,10.57,0,0,0-3.63-7.6,19.84,19.84,0,0,0-7.11-4.22c-2.25-.78-4-0.93-5.28-0.18l-0.3.21a9,9,0,0,1-.92.57,21.51,21.51,0,0,1-3.79,1.8,29.66,29.66,0,0,1-16.23.86,41.39,41.39,0,0,1-21.72-12.49,48.86,48.86,0,0,1-4.49-5.75c-1.81-2.67-3.63-5.37-5.68-7.93a107.35,107.35,0,0,0-13.62-14.46,90,90,0,0,0-16.38-11.53,58,58,0,0,0-19.17-6.73,32.86,32.86,0,0,0-5.44-.27l-1.39,0-1.53.2a24,24,0,0,0-2.91.64,29,29,0,0,0-9.29,4.9,36.43,36.43,0,0,0-10.89,14,29.78,29.78,0,0,0-2.57,15.09,26,26,0,0,0,1.52,6.44,27.6,27.6,0,0,0,2.57,4.94,29.43,29.43,0,0,0,5,5.65c1.3,1.08,2,1.62,2,1.62a6.14,6.14,0,0,0,3.07,1.29A5.82,5.82,0,0,0-293.13,3243.24Zm51.17,33.14,3.88,1.91c2.74,1.33,5.41,2.77,8.25,4,11.14,5.18,23,9.75,35.26,11.95a68.25,68.25,0,0,0,35.14-2.58l1.88-.64c0.61-.22,1.18-0.52,1.76-0.78l3.37-1.57a50.69,50.69,0,0,0,5.92-3.32l2.63-1.61c0.8-.56,1.53-1.13,2.26-1.67l4-3c4.43-3.85,6.87-6.14,6.87-6.14a7.68,7.68,0,0,0,1.66-6.8,12.54,12.54,0,0,0-4.48-7,15.61,15.61,0,0,0-7.61-3.48c-2.45-.33-4.59.15-5.91,1.64,0,0-1.81,1.89-5,5.15a56.41,56.41,0,0,1-14.81,10,48.21,48.21,0,0,1-25,3.4c-9.87-1.07-20.77-4.31-31.51-8.46-2.7-1-5.36-2.18-8-3.26l-4.22-1.74c-1.48-.61-3-1.21-4.5-1.71a64.92,64.92,0,0,0-19-3.81,38.81,38.81,0,0,0-18.87,4,33.44,33.44,0,0,0-12.85,11.76,40.15,40.15,0,0,0-5.39,13,47.56,47.56,0,0,0-1.18,10.47,46.66,46.66,0,0,0,.45,6.71c0.08,0.77.21,1.36,0.28,1.75l0.11,0.6a5.35,5.35,0,0,0,3.42,4.28,6.93,6.93,0,0,0,2.66.5,10.36,10.36,0,0,0,2-1.81,5.55,5.55,0,0,0,1.49-4.52l-0.05-.48c0-.32-0.11-0.78-0.13-1.4a36.75,36.75,0,0,1,0-5.33,37.11,37.11,0,0,1,1.48-8.06,28.94,28.94,0,0,1,4.52-9.12,21.15,21.15,0,0,1,8.69-7,25.57,25.57,0,0,1,12.52-1.67,50.91,50.91,0,0,1,14.42,4C-244.38,3275.19-243.17,3275.78-242,3276.38Z" transform="translate(310.01 -3086.3)"/></g><g id="body"><path class="cls-1" d="M-103.35,3086.3c-58.5,0-99,93.5-80,150s140.5,52,160-2S-44.85,3086.3-103.35,3086.3Z" transform="translate(310.01 -3086.3)"/></g><g id="eye"><path class="cls-2" d="M-77.35,3170.55c-11,0-20,11.64-20,26s9,26,20,26,20-11.64,20-26S-66.31,3170.55-77.35,3170.55Zm-52,0c-11,0-20,11.64-20,26s9,26,20,26,20-11.64,20-26S-118.31,3170.55-129.35,3170.55Z" transform="translate(310.01 -3086.3)"/></g><g id="beak"><ellipse class="cls-3" cx="206.66" cy="149.25" rx="10" ry="15"/></g><g id="eye-2" data-name="eye"><path class="cls-4" d="M-82.35,3190.55c-3.87,0-7,3.58-7,8s3.13,8,7,8,7-3.58,7-8S-78.49,3190.55-82.35,3190.55Zm-40,0c-3.87,0-7,3.58-7,8s3.13,8,7,8,7-3.58,7-8S-118.49,3190.55-122.35,3190.55Z" transform="translate(310.01 -3086.3)"/></g></svg>