<svg id="Layer_1" data-name="Layer 1" xmlns="http://www.w3.org/2000/svg" viewBox="0 0 588.33 890.1"><defs><style>.cls-1,.cls-4{fill:#24a3c0;}.cls-1{opacity:0.5;}.cls-2{fill:#fff;}.cls-3{fill:#40cbe2;}.cls-5{fill:#2280ba;}</style></defs><title>anim_12</title><circle class="cls-1" cx="122.66" cy="240.22" r="122.66"/><circle class="cls-2" cx="122.66" cy="240.22" r="88.35"/><circle class="cls-3" cx="445.94" cy="472.93" r="142.4"/><circle class="cls-2" cx="445.94" cy="472.93" r="44.92"/><circle class="cls-4" cx="311.26" cy="735.34" r="58.23"/><circle class="cls-4" cx="398.63" cy="197.38" r="23.02"/><circle class="cls-3" cx="291.26" cy="52.47" r="52.47"/><circle class="cls-3" cx="328.98" cy="876.27" r="13.83"/><circle class="cls-5" cx="229.76" cy="443.55" r="38.48"/><path class="cls-4" d="M-1296.38,5013.92a102.26,102.26,0,0,0-102.26,102.26,102.26,102.26,0,0,0,102.26,102.26,102.26,102.26,0,0,0,102.26-102.26A102.26,102.26,0,0,0-1296.38,5013.92Zm0,153.28a51,51,0,0,1-51-51,51,51,0,0,1,51-51,51,51,0,0,1,51,51A51,51,0,0,1-1296.38,5167.2Z" transform="translate(1436.64 -4500.85)"/></svg>