<svg id="Layer_1" data-name="Layer 1" xmlns="http://www.w3.org/2000/svg" viewBox="0 0 772.8 548.03"><defs><style>.cls-1{fill:#efe2a3;}.cls-2{fill:#bcab6c;}.cls-3{fill:#d6c48b;}.cls-4{fill:#393528;}</style></defs><title>anim_06</title><path class="cls-1" d="M-2854.05,4220.46a75.2,75.2,0,0,0-75.2-75.21,75.21,75.21,0,0,0-75.21,75.21h150.41Z" transform="translate(3551.72 -3672.43)"/><path class="cls-1" d="M-2929.33,4145.25a75.2,75.2,0,0,0,75.2,75.2,75.21,75.21,0,0,0,75.2-75.21h-150.41Z" transform="translate(3551.72 -3672.43)"/><path class="cls-1" d="M-2854,4070a75.21,75.21,0,0,0-75.2,75.21,75.2,75.2,0,0,0,75.2,75.2V4070Z" transform="translate(3551.72 -3672.43)"/><path class="cls-2" d="M-3341,4220.45c0-117.66,95.38-213,213-213s213,95.38,213,213H-3341" transform="translate(3551.72 -3672.43)"/><path class="cls-2" d="M-3490.94,4220.45c0-117.66,95.38-213,213-213s213,95.38,213,213h-426.09" transform="translate(3551.72 -3672.43)"/><circle class="cls-1" cx="273.83" cy="213.05" r="213.05"/><path class="cls-3" d="M-3277.89,3672.43c-117.66,0-213,95.38-213,213s95.38,213,213,213" transform="translate(3551.72 -3672.43)"/><path class="cls-1" d="M-3181.61,4220.45a70.05,70.05,0,0,0-70.05-70.05,70.05,70.05,0,0,0-70.05,70.05h140.11Z" transform="translate(3551.72 -3672.43)"/><path class="cls-1" d="M-3411.61,4220.45a70.05,70.05,0,0,0-70.05-70.05,70.05,70.05,0,0,0-70.05,70.05h140.11Z" transform="translate(3551.72 -3672.43)"/><circle class="cls-4" cx="380.94" cy="187.4" r="37.48"/><circle class="cls-4" cx="166.71" cy="187.4" r="37.48"/><circle class="cls-2" cx="356.62" cy="304.59" r="11.03"/><circle class="cls-2" cx="191.41" cy="305.96" r="11.03"/><circle class="cls-2" cx="273.83" cy="260.31" r="74.69"/><path class="cls-4" d="M-3236.22,3967.08a8.88,8.88,0,0,0,8.88-8.88,8.88,8.88,0,0,0-8.88-8.88,33.18,33.18,0,0,1-33.15-33.14,8.88,8.88,0,0,0-8.88-8.88,8.88,8.88,0,0,0-8.88,8.88A51,51,0,0,0-3236.22,3967.08Z" transform="translate(3551.72 -3672.43)"/><path class="cls-4" d="M-3320.27,3967.08a51,51,0,0,0,50.9-50.9,8.88,8.88,0,0,0-8.88-8.88,8.88,8.88,0,0,0-8.88,8.88,33.18,33.18,0,0,1-33.14,33.14,8.88,8.88,0,0,0-8.88,8.88A8.88,8.88,0,0,0-3320.27,3967.08Z" transform="translate(3551.72 -3672.43)"/><polygon class="cls-4" points="273.48 258.84 309.73 213.81 237.23 213.81 273.48 258.84"/></svg>