<svg id="Layer_1" data-name="Layer 1" xmlns="http://www.w3.org/2000/svg" viewBox="0 0 187.19 198.93"><defs><style>.cls-1{fill:#1d2e2f;}.cls-1,.cls-2{fill-rule:evenodd;}.cls-2{fill:#fff;}</style></defs><title>anim_25</title><g id="ears"><path class="cls-1" d="M-393.79,1768.41c-9.32-20.52-39.91-12.72-46.58,4.18-6.06,15.37,21.62,33.31,25.29,33C-406.92,1804.78-383.62,1790.78-393.79,1768.41Zm-166.13,0c-10.16,22.36,13.14,36.37,21.29,37.15,3.66,0.35,31.35-17.59,25.29-33C-520,1755.69-550.6,1747.9-559.92,1768.41Z" transform="translate(569.45 -1756.12)"/></g><g id="body"><path class="cls-1" d="M-395.78,1840.85c-7.87-29.45-24.91-57.51-47.24-72.08-10-6.53-21-10.38-32.83-10.39h0c-11.79,0-22.84,3.85-32.83,10.39-22.33,14.57-39.37,42.63-47.24,72.08-10.67,29-21.49,69.88-5.15,78.93,6,3.3,7.93.84,8.2-4.55,6.3,11.84,17.57,20.47,31.34,26-4,2.55.47,11.9,12.81,13.35,8,0.94,12-3.36,13.83-6.68a130.67,130.67,0,0,0,19,.92,130.88,130.88,0,0,0,18.31-.83c1.78,3.17,6.25,8.62,15.26,6.65,11.19-2.44,12.71-8.55,11.59-13.19,14-5.54,25.49-14.23,31.86-26.22,0.27,5.39,2.23,7.86,8.2,4.55C-374.28,1910.73-385.1,1869.9-395.78,1840.85Z" transform="translate(569.45 -1756.12)"/></g><g id="head"><path class="cls-2" d="M-408.93,1830.23c-11.73-31.57-30.65-53.59-65.88-53.59s-54.52,22-66.24,53.59c-15.39,41.43,15.34,78.41,66.32,78.41S-393.55,1871.64-408.93,1830.23Z" transform="translate(569.45 -1756.12)"/></g><g id="eye"><path class="cls-1" d="M-459.61,1803.43c-17,1.23-4.48,22.92,0,31.31s11.2,17.89,25.48,11.74S-421,1800.64-459.61,1803.43Zm-32.48,0c-38.64-2.8-39.76,36.9-25.48,43.05s21-3.35,25.48-11.74S-475.13,1804.66-492.09,1803.43Z" transform="translate(569.45 -1756.12)"/></g><g id="eye-2" data-name="eye"><path class="cls-2" d="M-454.33,1810.63c-10.37.74-2.74,13.89,0,19s6.84,10.84,15.57,7.12S-430.72,1808.94-454.33,1810.63Zm-43,0c-23.61-1.69-24.3,22.37-15.57,26.09s12.83-2,15.57-7.12S-487,1811.38-497.37,1810.63Z" transform="translate(569.45 -1756.12)"/></g><g id="eye-3" data-name="eye"><path class="cls-1" d="M-450.85,1816.64c-3.87,0-7,3.58-7,8s3.13,8,7,8,7-3.58,7-8S-447,1816.64-450.85,1816.64Zm-50,0c-3.87,0-7,3.58-7,8s3.13,8,7,8,7-3.58,7-8S-497,1816.64-500.85,1816.64Z" transform="translate(569.45 -1756.12)"/></g><g id="nose"><path class="cls-1" d="M-475.85,1836.64c-7.73,0-14-.42-14,4s6.27,12,14,12,14-7.58,14-12S-468.12,1836.64-475.85,1836.64Z" transform="translate(569.45 -1756.12)"/></g></svg>