<svg xmlns="http://www.w3.org/2000/svg" xmlns:xlink="http://www.w3.org/1999/xlink" viewBox="0 0 172.33 220.99"><defs><style>.cls-1{isolation:isolate;}.cls-2{fill:#fff7ea;}.cls-3{fill:#ff9235;}.cls-10,.cls-18,.cls-20,.cls-21,.cls-22,.cls-4,.cls-6,.cls-8{mix-blend-mode:multiply;}.cls-21,.cls-5{fill:#a88075;}.cls-26,.cls-6{opacity:0.5;}.cls-7{fill:#e56c4b;}.cls-8{fill:#debf97;}.cls-10,.cls-20,.cls-8{opacity:0.7;}.cls-9{fill:url(#linear-gradient);}.cls-10{fill:#831200;}.cls-11,.cls-14{fill:#f7324d;}.cls-11,.cls-14,.cls-18{opacity:0.6;}.cls-11{mix-blend-mode:screen;}.cls-12{fill:#fff;}.cls-13{fill:#801700;}.cls-14{mix-blend-mode:color-dodge;}.cls-15{fill:url(#linear-gradient-2);}.cls-16{fill:#d31d00;}.cls-17{fill:#f54b00;}.cls-19{fill:#d33d00;}.cls-22{opacity:0.4;}.cls-23{fill:#b74c33;}.cls-24{fill:#b21e00;}.cls-25{fill:#871b00;}</style><linearGradient id="linear-gradient" x1="3030.08" y1="-620.4" x2="3031.93" y2="-610.03" gradientTransform="translate(27.47 20.28) rotate(20.58)" gradientUnits="userSpaceOnUse"><stop offset="0.02" stop-color="#831200"/><stop offset="0.78" stop-color="#c85a00"/></linearGradient><linearGradient id="linear-gradient-2" x1="2991.1" y1="-601.13" x2="2992.95" y2="-590.76" xlink:href="#linear-gradient"/></defs><title>anim_103</title><g class="cls-1"><g id="Layer_1" data-name="Layer 1"><path class="cls-2" d="M3157.88,484c-2-14.57-7-27.1-14.39-39.82-5.37-9.28-18.74-30.68-32.2-27.74,4.31-.93,11.47,19.41,12.62,21.78,0.24,0.5,3.19,3.8,3.54,4.3-5-7,4.33,9.6,2.58,5.1,1.61,4.12,3.18,7.84,5.2,11.86,0-.09,3.6,4.38,3.2,3.47,0.64,1.44-1,3.32-.31,4.67,1.45,3,4.56,7.14,4.4,11.17-0.22,5.58-4.91,8.48,2.92,9.15,1.76,0.15,12.58-2.94,12.44-3.93C3157.29,479.76,3157.9,484.08,3157.88,484Z" transform="translate(-2995 -416.08)"/><path class="cls-3" d="M3155.75,471.45c-2.44-9.76-7.55-19.1-12.53-27.77a1.09,1.09,0,0,1-.46,1.73c-0.52-.16-3.73-3-5-2.79,2.23-.41,12.77,17,12.68,19.77,0,1.48-3.75-4.86-4-5,2.89,1.29,4.25,15.85,4.58,16.21-0.4-.43-5.51-10.08-5.89-9.37-1.65,3.07,3.69,7.12,1.74,10-1.32,2-7.76-18.79-6.39-19.56-2.52,1.41,2.54,6.77-2.2,5.24-3-1-1-6.37-5.87-7.52-0.8,4.09,5,8.15,6.17,10.88,0.58,1.37-.43,3.79,0,5.3,0.23,0.74,2.11,2.7,2.68,4.14,0.05,0.14,1.05,5.49,1.06,5.3-0.14,5.81-4.93,9.69,3.91,9.67,13,0,12.08-5.89,9.49-16.25h0Z" transform="translate(-2995 -416.08)"/><g class="cls-4"><path class="cls-5" d="M3157.88,484c-2-14.57-7-27.1-14.39-39.82-5.37-9.28-18.74-30.68-32.2-27.74,4.31-.93,11.47,19.41,12.62,21.78,0.24,0.5,3.19,3.8,3.54,4.3-5-7,4.33,9.6,2.58,5.1,1.61,4.12,3.18,7.84,5.2,11.86,0-.09,3.6,4.38,3.2,3.47,0.64,1.44-1,3.32-.31,4.67,1.45,3,4.56,7.14,4.4,11.17-0.22,5.58-4.91,8.48,2.92,9.15,1.76,0.15,12.58-2.94,12.44-3.93C3157.29,479.76,3157.9,484.08,3157.88,484Zm-2.38.77c-5.88,1-11.77,6.11-14.18,0-0.78-2,.48-7,0.48-8.16,0-7.15-3.4-12.15-6.12-17.6a104.29,104.29,0,0,1-5.27-11.72l-2.72-.79q1.91-4.6-1.36-7.71c-0.29-.77-2.51-0.88-3-1.77-1.36-2.42-2-5.92-3.21-8.14a108.2,108.2,0,0,0-8.3-12.18c12.27-3.34,26.69,19.91,31.11,27.53,2.39,4.13,20.5,39.25,12.59,40.55h0Z" transform="translate(-2995 -416.08)"/></g><g class="cls-6"><path class="cls-7" d="M3155.75,471.45c-3.77-15.09-23.6-59.6-44.47-55.05,4.46-1,11.52,19.62,12.62,21.78a5.85,5.85,0,0,1,3.43,2.22,26.88,26.88,0,0,1-.15,6.25c0.57,1.14,4.11.86,5,2.52a11,11,0,0,1,0,5.4,2.51,2.51,0,0,0,2.13,1.08c0.6,2,.87,4.48,1.49,6.33a36,36,0,0,1,2.67,2.63c-1.44-2.55,1.68,6.6,1.35,4.58,0.25,1.48,2.41,6.54,2.39,8.12,0,2.18-2.1,3.14-1.54,5.72,1.54,7,3.89,5.41,10.89,3.22,8.92-2.78,6.6-5.23,4.21-14.81h0Zm-5-1.05c-1.11,4.61-6.11-1.8-7-3.27-1.3-2.22-1-4.17-2-6.51-0.56-1.36-1.87-.19-2.39-1.17-2.29-4.32-2.08-7.93-4.71-11.74-1.16-1.68-3.92-2.69-5.21-4.57-0.49-.72,1.06-2.54.72-3.19-1.08-2-2.89-2.67-4.54-4.53-0.21-.24.49-2-0.09-2.81-1-1.4-3.05-.57-3.93-2.08-0.51-.89.67-2.92,0-3.78-1.83-2.46-5.31-5.77-6.57-8.48-0.21-.46,1.31-0.14,1.29-0.14,3.76-1.27,14.24,11.07,16.31,13.6,6.14,7.51,20.54,28.34,18,38.66h0Z" transform="translate(-2995 -416.08)"/></g><g class="cls-4"><path class="cls-7" d="M3155.75,471.45a63.53,63.53,0,0,0-3.18-9.3c0.85,5,3.71,16.12-4.42,15-4.54-.63-5.22-6.36-6.76-9.69-2.42-5.26-5.89-18.7-12.38-20.22,2.92,0.83,6.25,12,7.2,15.07-1.22-4,2.8,2.62,2.38,1.85,0.45,0.82-.89,2.9-0.52,3.88s2.73,1,2.92,1.76a33.2,33.2,0,0,1,.38,6.65c0.1,5.52-3.35,11,4.48,11.37,13.61,0.57,12.47-6.08,9.9-16.35h0Z" transform="translate(-2995 -416.08)"/></g><path class="cls-2" d="M3167,525.13c-0.78-3.48-3.39-8.16-3.54-10.87-0.21-3.81,1.16-8.92.71-13.35-0.52-5.1-1-14.93-5.13-18.86s-5.55-2-10.62-.73c-8.31,2.15-9.83,2.29-16.34-.17-3.27-1.23-5.39.18-8.42-3.27-1.65-1.88-1.66-3.85-3.23-6.09-0.68-1-3.75-3.23-4.46-4-1.23-1.38-2.81-4.4-3.77-5.63,0,0-.77-3.61-0.87-3.84a23.18,23.18,0,0,0-3.58-1.67l0.68-3.57c-0.18-.32-1.48-4-1.59-4.36-0.22-.8-2.29-1.16-2.51-1.85-1.26-4.12-.42-8.44-1.64-12.37-0.48-1.54-1-14.74-1.44-15-1.73-.87-7.82,7.15-8.83,8.72a35.42,35.42,0,0,0-5.17,18.91c0,14.34,6.9,29.46,13.93,41.69,9.27,16.14,24.08,36,45.11,34-5.75,3.94-1.92,8.22-5.72,12.35-1.05,1.14-6.65,2.41-8.66,3.88-2.39,1.75-6.34,8-9.3,8.63-4.48,1-17.48-4.17-22.64-4.6-10.87-.9-17.88-1.94-15.53-16,1-6.19,8.24-16.68.72-23.27-6.83-6-10.39,1.65-10.68,8.78-0.34,8.2,5.52,11.21,5.81,19.13,0.17,4.43.92,6.22-2.58,7.32-3.91,1.23-10.08-5.56-11.52-8.41,0.2,0.39-3.39,13.59-1.43,5.37a38.75,38.75,0,0,1-1.93-4.43c0.43,1.21-2.3,5.39-2.85,6.37q-0.68-2.36-1.4-4.71c0.87,2-3.4,6-4.63,7.3a14.16,14.16,0,0,0,1-5.88c0.36,2.52-9,10.42-9.39,9.47-1.07-2.74-2.85-8.54-2.69-11.76,0.14-2.87,1.36-3.35,1.86-6.15a26.77,26.77,0,0,0-.24-11.8c-3.75-14.13-15.77-10.36-14.12,3.48,1.48,12.39,19,24,1.48,32-6.12,2.8-31.87,10.27-21.27,18-7-2-5.4,2.67-5.72-4.19-0.13-2.69.56-10.73,1.92-13,1.55-2.53,6.25-3.91,8.52-5.38,1.79-1.16,7.76-9,9.74-9.62-1.38.42-10.29,3.52-11.1,2.77-2.84-2.69,10.63-7.09,11.14-8.83,1-3.31-6.57-5-10-4.13-8.22,2.12-14.71,15.29-16.86,21.5-3,8.57-6.34,28.83,2.35,34.63,5.91,3.95,19.22-6.3,22.71-.64-23.62-5.55-25.88,38.88-15,39.77-2.31-.18,1.73-21.76,2.38-22.78-2,9.28.15,28.22,10.22,33.21,0.21,0.11-2.21-7.92-2.09-7.47,1.82,1.85,9.53,14.78,13,13.15-3.14-.44-10.62-27-11.55-30,6.13-1,9.93-10.07,16.14-10.35,0.92,0,7.77,4.93,8.59,5.26,4.7,1.91,10,2.58,15.05,2.93,10.13,0.71,22.08-.72,30.71-6.59,5.23-3.55,4.3-5.12,9.4-4.43,4.26,0.58,6.14,6.65,11.71,5-1.56,5-2,10.84-3.8,15.3-0.46,1.12-7.27,14.28-5.4,13.62,8.11-2.89,17.63-23.66,12.82-31.88a1.08,1.08,0,0,0,1.06.21c0.21,2.38-.48,27-3,27.54,2.88-.59,5.18-5.33,6.08-7.65-0.09.44-1.3,3.51,0.08,3.41,6.76-.49,7.43-23.68,7.59-27.87,0.55-14.63-3.9-18.93-19.48-15.85,4.74-5.15,13.59-4.34,20.16-5.15,8.37-1,18.36-4.26,25.19-9.29,7.37-5.43,9.68-12.07,11.19-20.32,1-5.23,3.88-9.88,2.6-15.63h0Z" transform="translate(-2995 -416.08)"/><path class="cls-8" d="M3086.49,507.11c0.9,17.26-17.25,6.6-7.64-5-4.09,2.66-5.51,11.45-1.24,14.46,6.06,4.28,10.95-4.08,8.88-9.51C3086.58,508.77,3086.71,507.68,3086.49,507.11Z" transform="translate(-2995 -416.08)"/><path class="cls-8" d="M3043.6,512.79c1.45,4.73-3.38,11.08-8.37,7.86-4.26-2.75-4.21-14,.74-16.17-6.91.6-7.09,13.61-2.15,16.67,5.74,3.56,11.72-2.15,9.79-8.35h0Z" transform="translate(-2995 -416.08)"/><path class="cls-3" d="M3030.36,632.35c-5.08-8.08-7.17-16-10.1-25.45,3.82-.62,6.75-4.21,9.63-6.43-1.2-2.36-11.73,3.08-11.37,1.51,0.91-4,6-4.2,7.19-7.81-0.6.15-10.39,4.2-9.77,1.92,0.09-.32,5.34-6.19,5.27-6.23-1.93-.95-6.26,1.68-8.12,1.35s5.68-6.52,5.42-6c-1.7-.19-9.9,1.75-5.76-2.34-8.79,2.87-9.53,12.69-10.1,21-0.23,3.39.12,16.59,5.65,17-2.31-.18,1.73-21.76,2.38-22.78-2,9.28.15,28.22,10.22,33.21,0.21,0.11-2.21-7.92-2.09-7.47,1.82,1.85,9.53,14.78,13,13.15,2.44,0.35-3.3-7.53-1.45-4.58h0Z" transform="translate(-2995 -416.08)"/><path class="cls-3" d="M3126.92,581.89c-1-6.92-8.59-6.91-14.45-3.73,2.94,1.49,7.07,1.44,8.92,4.68,0.87,1.53-10.61.13-10.24,0.09,0.17,0.18,8.85,5.07,6.34,6.79-3,2.06-6.95-4.19-10-2.46-1.09.62,6.5,6.34,4.81,6.88-3.82,1.25-7.87-1.77-11.64-2,0.6,4.32,7.24,7.71,11.17,6.52-1.56,5-2,10.84-3.8,15.3-0.46,1.12-7.27,14.28-5.4,13.62,8.11-2.89,17.63-23.66,12.82-31.88a1.08,1.08,0,0,0,1.06.21c0.21,2.38-.48,27-3,27.54,2.88-.59,5.18-5.33,6.08-7.65-0.09.44-1.3,3.51,0.08,3.41,8.68-.63,7.71-33.93,7.21-37.34h0Z" transform="translate(-2995 -416.08)"/><path class="cls-3" d="M3167,525.13c-0.78-3.48-3.39-8.16-3.54-10.87-0.21-3.81,1.16-8.92.71-13.35-0.52-5.1-1-14.93-5.13-18.86s-5.55-2-10.62-.73c-8.31,2.15-9.83,2.29-16.34-.17-3.27-1.23-5.39.18-8.42-3.27-1.65-1.88-1.66-3.85-3.23-6.09-0.68-1-3.75-3.23-4.46-4-1.23-1.38-2.81-4.4-3.77-5.63,0,0-.77-3.61-0.87-3.84a23.18,23.18,0,0,0-3.58-1.67l0.68-3.57c-0.18-.32-1.48-4-1.59-4.36-0.22-.8-2.29-1.16-2.51-1.85-1.26-4.12-.42-8.44-1.64-12.37-0.48-1.54-1-14.74-1.44-15-1.73-.87-7.82,7.15-8.83,8.72a35.42,35.42,0,0,0-5.17,18.91c0,14.34,6.9,29.46,13.93,41.69,9.27,16.14,24.08,36,45.11,34-5.76,3.94-2.88,8.94-7.95,12.5-3.82,2.69-8.43,7-12.39,9.24-5.57,3.16-6.13,1.79-12.48.33-7-1.6-21.06.64-26.44-4-8.7-7.55,2.8-22.3.75-31.54-2.09,10.94-10.46,10.82-13.13.42-1.8,9.93,5.31,13,5.64,22,0.17,4.43.92,6.22-2.58,7.32-3.91,1.23-10.08-5.56-11.52-8.41,0.2,0.39-3.39,13.59-1.43,5.37a38.75,38.75,0,0,1-1.93-4.43c0.43,1.21-2.3,5.39-2.85,6.37q-0.68-2.36-1.4-4.71c0.87,2-3.4,6-4.63,7.3a14.16,14.16,0,0,0,1-5.88c0.36,2.52-9,10.42-9.39,9.47-1.67-4.29-3.05-10.61-2.47-14.75,0.74-5.25,2.89-8.23,1.6-14.07-2.44,9.51-11.19,9.1-14.6.83,0.85,12.94,19.67,25.76,1.76,33.78-6.23,2.79-31.8,10.31-21.27,18-7-2-5.4,2.67-5.72-4.19-0.13-2.69.56-10.73,1.92-13,1.55-2.53,6.25-3.91,8.52-5.38,1.79-1.16,7.76-9,9.74-9.62-1.38.42-10.29,3.52-11.1,2.77-4.15-3.93,24.53-9.77,5.76-12.74-10.75-1.7-16.85,11.88-20,19.24-5.23,12.34-9.76,39.87,10.58,36.95,11.73-1.69,10.63-1.85,21.26,3.4a54.29,54.29,0,0,0,23.94,5.41c12.88,0.18,24.41-1.78,35.95-7.4,3.68-1.79,19.2-10.18,17.61-15.3,0.6,0.58.44,4.86,1.74,4.88,3.45,0.05,4.52-1.72,7.17-2.12,10.08-1.54,19-1.74,28.78-6.42,8.79-4.21,16.22-11.84,18.07-21.73,0.9-4.81,3.32-12.4,2.17-17.55h0Z" transform="translate(-2995 -416.08)"/><path class="cls-9" d="M3086.19,510.77c-1.21,7.61-11.11,4.22-9.63-2.59,1.61-7.39,10.78-4.62,9.63,2.59h0Z" transform="translate(-2995 -416.08)"/><path class="cls-10" d="M3084.77,509.74c-0.83-5.18-8.84-4.57-7.59,1.12,1,4.66,8.5,4.59,7.59-1.12h0Z" transform="translate(-2995 -416.08)"/><path class="cls-4" d="M3084.19,509.83c-0.8-4.93-8.37-3.63-6.68,1.47,1.28,3.87,7.4,3,6.68-1.47C3084,508.81,3084.45,511.5,3084.19,509.83Z" transform="translate(-2995 -416.08)"/><path class="cls-11" d="M3085.55,507.41c-2.54-7.6-4.62,2.82-2.63,2.13,0.79-.27,4.11,2.28,2.63-2.13h0Z" transform="translate(-2995 -416.08)"/><path class="cls-12" d="M3085.22,507.16l-1.42-1.55c-2.52-.67-0.59,5.06,1.06,3.78l0.36-2.23h0Z" transform="translate(-2995 -416.08)"/><g class="cls-4"><path class="cls-13" d="M3086.22,510.77c-1.42,8.4-11.79,4-9.65-3.09,2.25-7.49,10.74-4.09,9.65,3.09C3085.85,512.94,3086.6,508.29,3086.22,510.77Zm-0.06,0c0.9-6.53-7.72-9.65-9.42-2.56-1.57,6.58,8.13,10,9.42,2.56C3086.47,508.47,3085.79,512.87,3086.16,510.77Z" transform="translate(-2995 -416.08)"/></g><path class="cls-14" d="M3082,504.66c-2.94-.8-3.76,1.53-4.81,3.38,0.55-.95,5.4-3.22,4.81-3.38h0Z" transform="translate(-2995 -416.08)"/><path class="cls-14" d="M3085.57,511.08c0,0.33-2.88,3.51-4.46,3.55,1.89,0,4.66-.81,4.46-3.55C3085.53,510.57,3085.65,512.2,3085.57,511.08Z" transform="translate(-2995 -416.08)"/><path class="cls-15" d="M3042.92,515.11c-1.21,7.61-11.11,4.22-9.62-2.59,1.61-7.39,10.78-4.62,9.62,2.59C3042.41,518.34,3043.44,511.88,3042.92,515.11Z" transform="translate(-2995 -416.08)"/><path class="cls-10" d="M3041.5,514.08c-0.83-5.19-8.84-4.57-7.59,1.12,1,4.66,8.51,4.59,7.59-1.12h0Z" transform="translate(-2995 -416.08)"/><path class="cls-4" d="M3040.92,514.17c-0.81-4.93-8.37-3.62-6.68,1.47,1.28,3.87,7.4,3,6.68-1.47C3040.75,513.15,3041.19,515.84,3040.92,514.17Z" transform="translate(-2995 -416.08)"/><path class="cls-11" d="M3042.29,511.75c-2.55-7.6-4.61,2.82-2.63,2.14,0.79-.27,4.11,2.28,2.63-2.14h0Z" transform="translate(-2995 -416.08)"/><path class="cls-12" d="M3041.95,511.5l-1.42-1.55c-2.52-.67-0.59,5.05,1.06,3.77l0.36-2.23h0Z" transform="translate(-2995 -416.08)"/><g class="cls-4"><path class="cls-13" d="M3043,515.11c-1.43,8.4-11.79,4-9.65-3.09,2.25-7.49,10.74-4.09,9.65,3.09C3042.59,517.28,3043.33,512.63,3043,515.11Zm-0.07,0c0.89-6.53-7.72-9.65-9.42-2.56-1.57,6.58,8.13,10,9.42,2.56C3043.2,512.81,3042.53,517.2,3042.89,515.11Z" transform="translate(-2995 -416.08)"/></g><path class="cls-14" d="M3038.73,509c-2.94-.8-3.77,1.53-4.81,3.38,0.55-.95,5.4-3.22,4.81-3.38h0Z" transform="translate(-2995 -416.08)"/><path class="cls-14" d="M3042.3,515.42c0,0.34-2.88,3.52-4.46,3.55,1.9,0,4.66-.81,4.46-3.55C3042.27,514.91,3042.38,516.54,3042.3,515.42Z" transform="translate(-2995 -416.08)"/><path class="cls-16" d="M3008.69,605.33l0.76-4.3c-1.06,1-2.86,10-3.73,8.87-3.64-4.68.17-18.6,1.09-23.81-2.08,3.6-9.41,33.85,1.49,34.74-1.26-.1.33-14.86,0.39-15.5C3008.81,603.87,3008.57,606.85,3008.69,605.33Z" transform="translate(-2995 -416.08)"/><path class="cls-16" d="M3032.29,635.68c-1.46-4.11-5.21-7.49-6.79-11.52-1.12-2.84-1.47-7.11-3-10.62,0.2,1.69.4,5-1.65,3.11q2.45,3.7-.17,4.79c-5.75-2.29-4.35-10.15-6.75-14.58,0.06-.57.6,11.14-0.2,9.92a25.92,25.92,0,0,1-3.44-9.92c0,7.28,3.07,20.65,10.6,24.38,0.21,0.11-2.21-7.92-2.09-7.47,1.64,1.67,14.44,14.63,13.47,11.9h0Z" transform="translate(-2995 -416.08)"/><path class="cls-16" d="M3113.55,615.15a67.63,67.63,0,0,0,2.43-17.27c-1.11,4.43-1.25,9.47-4.37,13.12-1.2,1.39-.89-8.35-0.9-7.66a61.08,61.08,0,0,1-3.67,11.78c-0.7,1.64-6,13-4.37,12.47,0.83-.3,11.54-12.11,10.89-12.44C3113.64,614.85,3113.67,615.21,3113.55,615.15Z" transform="translate(-2995 -416.08)"/><path class="cls-16" d="M3125.74,592.9c-0.56,1.65-3.36-7-3.21-6.45-0.34,2.69-.82,17.23-0.93,16.95-1.41-3.45.16-7.25-1.36-10.67-2.27,4.45.36,9.6-1.73,14.1-0.47,1-1.49-9.35-1.91-10.16,0.09,2.4-.57,26.27-3,26.79,2.88-.59,5.18-5.33,6.08-7.65-0.09.44-1.3,3.51,0.08,3.41,7.28-.53,7.66-26.09,7.65-30.45l-1.62,4.12h0Z" transform="translate(-2995 -416.08)"/><path class="cls-16" d="M2996,572.88c2.19-2.94,1.29-5.22,2.34-8.16,0.71-2,4-6.78,4.32-8.69,0.46-2.94-3-6.25-1.33-9,1.93-3.21,5.51.53,6.83-1.53,1.51-2.36-2.42-3-2-4,1.33-2.88,2.49-2.76,4.85-5.58,0.93-1.1.64-3.66,1.28-4.19,3.67-3,7.05-4.5,12.64-3.82-21.9-14.58-31,31.95-29,44.92C2997.09,571.4,2996,572.64,2996,572.88Z" transform="translate(-2995 -416.08)"/><path class="cls-16" d="M3138.3,535.33c-6.47,2.13-12.54,8.84-17.07,13.73-0.77.83-12,17.43-6.72,16,2.36-.65,2.55-6,4.15-7.24,4.82-3.7,2.87,1.06,7.28.06,3.84-.87,3.51,1.56,5.29-2.75,1.48-3.57-1.65-7,.58-11.07,1-1.82,2.85.56,3,.35,0.58-.76,2.2-6.06,3.08-6.66,5-3.42,2.81,8,5.15,9.44,4.82,2.92,3-1.68,4.71-3.2-0.34.31,6-5.6,5.67-4.92,0.95-2,2.74-.15,1.44-3.67-1.56-4.24-8.94.38-10.54-1.44-1.81-2.06,11.91-4.69,12.48-5.1-1.74-1.18-6.61.11-7.69-1.56s10.47-7.46,10.9-9.56c0.48-2.35-13.83,5-14.17,5.1-4.18.28-2.47,10.78-7.55,12.48h0Z" transform="translate(-2995 -416.08)"/><path class="cls-16" d="M3116.79,546.2l-3.41-.8c-1.76,2.73,2.75,4.39,1.47,6.18-0.55.77-1.71,0.58-2.23,1.64-2.72,5.59-6.87,2.29-10.73,6.51-1.17,1.27-.93,7.73-2.57,10.16-0.59.88-3.18,0.55-4.13,1.61-1.64,1.84-1.38,3.83-3.91,5.17a10.31,10.31,0,0,1-6.17-1.08,5,5,0,0,0-5.84,2.64c-3.81,1.59-4.32,2.64-9.2,2.72-5.06.08-11.44,1.28-16.26-.37-5.13-1.76-1.75-5.11-8.67-3.42-2.5.61-3.28,4.62-6.65,4.55-0.88,0-9-6-9.31-6.25a2.51,2.51,0,0,1-3.16-.72,10.92,10.92,0,0,1-1.06-4.27,24.23,24.23,0,0,0-5.37-3.75c-1.48-.84-11.56-4.55-11.87-4-1.68,2.92,20.5,18.62,24.8,20.27,16,6.16,37.93,3.65,53.7-2.06,17-6.17,23.48-21.33,36-32.91a21.26,21.26,0,0,0-5.4-1.83h0Zm-95,22.9c0.29-.21-5.15,2.24-4.36.38,1.26-3,4.64-.58,4.36-0.38C3020.65,570,3022.17,568.85,3021.83,569.09Zm2.52,5.81q-1.12,1.21-1.18-.46,1-1.59,1.18.46h0Zm6.74,4.3c-1.77,1.74-1.84-2.36,0-1.66a1.16,1.16,0,0,1,0,1.66C3030.31,580,3031.23,579.06,3031.09,579.2Zm13.65,3.63c-2.69-1.71,2.09-3.56,2.22-3.78s1,5.84-2.22,3.78h0Zm12.76,1.08c-1.59,1.09,2-1.35,0,0h0Zm5.57-1q-1.32.68-1.25-.76c0.36-1.31,1.48.11,1.25,0.76h0Zm23.4-3.59q-2.6.34-2.73-1.92c0.09-1.41,4.19,1.34,2.73,1.92h0Zm11.32-6.5a0.93,0.93,0,0,1-1-1.23c0.52-1.19,2.13.77,1,1.23h0Zm7.46-8.95c-1.22,0-1.3-.31-1-0.59C3105.57,562.19,3106.24,563.92,3105.25,563.92Zm3.41-3.6q-3.16,2.38-3.72-.08c1.2-1.84,3.71.09,3.72,0.08h0Z" transform="translate(-2995 -416.08)"/><path class="cls-16" d="M3102.49,483.07c-0.47,0,1,3.1,2,3.21,0.69,0.09-1.49-3.19-2-3.21h0Z" transform="translate(-2995 -416.08)"/><path class="cls-16" d="M3106.64,468.91c-2.72-2.41-1.55,2.43,1.29,3,0.38-2.55-1.14-2.86-1.29-3h0Z" transform="translate(-2995 -416.08)"/><path class="cls-16" d="M3093.77,453.56a4.4,4.4,0,0,0,2,3.73c0.62-3-2-5.22-2-3.73,0-.4,0-2.14,0,0C3093.75,455,3093.79,451.39,3093.77,453.56Z" transform="translate(-2995 -416.08)"/><path class="cls-16" d="M3151.33,487.4c-0.05.29,1.06,5.12,1.52,4.14,1-2.19-1.38-4.14-1.52-4.14C3151.22,488,3152.81,487.38,3151.33,487.4Z" transform="translate(-2995 -416.08)"/><path class="cls-16" d="M3142.31,493.24c-3.77-1.92-.2,2.33,1.56,2.95,0.3-1.5-1.19-2.76-1.56-2.95h0Z" transform="translate(-2995 -416.08)"/><path class="cls-16" d="M3111.39,487.3c-2.52,2.12,1,8.93,3.93,6.79,1.82-1.35-2.36-6.6-3.93-6.79-1.83,1.54.56,0.07,0,0C3109.21,489.13,3112.21,487.39,3111.39,487.3Z" transform="translate(-2995 -416.08)"/><path class="cls-16" d="M3164,505.59c-0.36-6.92-1.25-14.21-4-20.64-1.61,2.84,1,5.53.91,8.38,0,0.68-1.67-1.78-1.5-1.71,1.27,0.58,1.4,9.89.66,10.49-1.17.95-2.46-9.91-3-10.17,2.85,1.37-3.84,9.43-4.1,10.3-0.41,1.38-3.4-3.13-4.13-2.9-2,.62,3.72,8.84,1,8.77-3.64-.09-4.12-5.62-7.07-6.71-2.28-.84-3.23,2.66-4.22,2.19-2.84-1.32-13.32-16.09-14.62-14.19-0.94,1.38,7.53,13.16,6.57,13-2-.46-2.79-3.09-4.67-3.68,0.69,0.22,9.38,13.65,9.14,13.63-2.08-.22-3-3.22-4.74-3.66,0.13,0-3.9.28-3.14,0.77-2.4-1.54-3.92-5.69-6.93-6-1.06-.12,3.26,6.9,3,7.85-0.08.34-13.66-12.29-15.31-12.66,8.23,11.4,18.76,23.07,33.84,23.77,10.2,0.47,22.85-6.1,22.3-16.77C3163.89,502.51,3164.12,507,3164,505.59ZM3132.83,516a2.83,2.83,0,0,1-3.27-1.68c-0.6-2.34,4.92,1.49,3.27,1.68C3131.91,516.13,3132.95,516,3132.83,516Zm11.77-6.75c-0.86,1.47-4.33-1.71-4-2.84,0.64-2.34,5.19.81,4,2.84C3143.9,510.45,3144.8,508.91,3144.6,509.25Zm11.93,1.43c-0.8.64-2.41-1.89-2.29-2.3,0.44-1.51,3.76,1.17,2.29,2.3h0Z" transform="translate(-2995 -416.08)"/><path class="cls-16" d="M3015.71,559.56c-1.38-.62-4.42,2-3.55,2.3,2.17,0.75,3.54-2.3,3.55-2.3h0Z" transform="translate(-2995 -416.08)"/><path class="cls-16" d="M3017.52,563.32a1.24,1.24,0,0,0-1.7,1c0.55,1,2.34-.79,1.7-1h0Z" transform="translate(-2995 -416.08)"/><path class="cls-16" d="M3022.94,558.82a1.85,1.85,0,0,0-2.79.89c0.52,1.08,3.14-.4,2.79-0.89C3022.41,558.09,3023,558.93,3022.94,558.82Z" transform="translate(-2995 -416.08)"/><path class="cls-16" d="M3031.78,569.53c-4.44-1.19-4.1,5.44-.86,2.46,1.69-1.55,0-2.68.86-2.46C3030.22,569.12,3032.1,569.62,3031.78,569.53Z" transform="translate(-2995 -416.08)"/><path class="cls-16" d="M3034.38,573.18q-1.13,1.28.1,1.61c-0.24.33,0.7-2.32-.1-1.61h0Z" transform="translate(-2995 -416.08)"/><path class="cls-16" d="M3044.92,574.33q-1.3-.77-1.74,1.16c-0.2.87,1.75-.84,1.74-1.16S3044.94,575,3044.92,574.33Z" transform="translate(-2995 -416.08)"/><path class="cls-16" d="M3041.23,577.15c-0.8-.47-1.43,1.52-0.74,1.37q1.28-.28.74-1.37h0Z" transform="translate(-2995 -416.08)"/><path class="cls-16" d="M3073.68,578.68c-0.21-1-1.55-1.48-1.11-.09-0.1,2,1.17.35,1.11,0.09h0Z" transform="translate(-2995 -416.08)"/><path class="cls-16" d="M3061.65,577.21q-1.47,1.26-.12,2.39,1.54-1.3.12-2.39h0Z" transform="translate(-2995 -416.08)"/><path class="cls-16" d="M3070.15,569.17c-2.26-2,1.61,2.6,0,0C3070,569,3070.31,569.41,3070.15,569.17Z" transform="translate(-2995 -416.08)"/><path class="cls-16" d="M3056.86,578.86c0-1.3-1.91.07-1.72,1C3055.06,581.52,3056.86,579.79,3056.86,578.86Z" transform="translate(-2995 -416.08)"/><path class="cls-16" d="M3084.7,572c-0.95.82,3,3.19,3.86,2.57,1.36-1-2.31-3.91-3.86-2.57h0Z" transform="translate(-2995 -416.08)"/><path class="cls-16" d="M3078.37,574.18c-0.78-1.11-1,2.15-.86,2.43,0.48,0.85,1.32-1.78.86-2.43h0Z" transform="translate(-2995 -416.08)"/><path class="cls-16" d="M3097.06,568.28h0Z" transform="translate(-2995 -416.08)"/><path class="cls-16" d="M3101.16,563.72a5.34,5.34,0,0,0-3.1-1.91c-2.46-.08,4.26,4.16,3.1,1.91h0Z" transform="translate(-2995 -416.08)"/><path class="cls-16" d="M3106.62,555.57a2.36,2.36,0,0,0-1.89.62c-0.45,1.17,2.82-.5,1.89-0.62h0Z" transform="translate(-2995 -416.08)"/><path class="cls-16" d="M3111.62,549.92a6.49,6.49,0,0,0-4.53.77c-1.9,1.46,6.82.26,4.53-.77h0Z" transform="translate(-2995 -416.08)"/><path class="cls-16" d="M3109.47,546.54c-0.06,0-3.85.54-2.28,1.05a2.09,2.09,0,0,0,2.28-1.05h0Z" transform="translate(-2995 -416.08)"/><path class="cls-16" d="M3103.21,544.91a0.82,0.82,0,0,0-1.43.37q1.19,1,1.43-.37C3102.91,544.51,3103.32,545,3103.21,544.91Z" transform="translate(-2995 -416.08)"/><g class="cls-4"><path class="cls-17" d="M3126.57,598.65c0.79-3.68-2-9.52-2-13.88,0-3.13,2.62-4.47,1.18-7.36-1.5,3.62-17.06,3.16-18.27.72-0.84-1.69,2.44-3,.33-2.62q2-3.79,5.39-2.32c-3.5-.61-4-3.82-3.63-6.94-14.73,25.81-64.58,33.58-86.86,13.53,2.38,6.17-15.5,8.32-14.46,4.83-1,.75-5.36,16.51-5.37,16.5-0.37,3.71-1,19.17,5.41,19.69-2.31-.18,1.73-21.76,2.38-22.78-2,9.28.15,28.22,10.22,33.21,0.21,0.11-2.21-7.92-2.09-7.47,1.82,1.85,9.53,14.78,13,13.15-3.14-.44-10.62-27-11.55-30,6.13-1,9.93-10.07,16.14-10.35,0.92,0,7.77,4.93,8.59,5.26,4.7,1.91,10,2.58,15.05,2.93,10.13,0.71,22.08-.72,30.71-6.59,5.23-3.55,4.3-5.12,9.4-4.43,4.26,0.58,6.14,6.65,11.71,5-1.56,5-2,10.84-3.8,15.3-0.46,1.12-7.27,14.28-5.4,13.62,8.11-2.89,17.63-23.66,12.82-31.88a1.08,1.08,0,0,0,1.06.21c0.21,2.38-.48,27-3,27.54,2.88-.59,5.18-5.33,6.08-7.65-0.09.44-1.3,3.51,0.08,3.41,3.87-.28,8.45-17.28,6.87-20.58C3126.67,598.2,3126.84,599.22,3126.57,598.65ZM3009,597.91c-0.54,1-4.68,11.39-4.46,11.64-2.74-3.18,1.34-14.84,3.78-17.56,0.71-.79,1.08,5.2.69,5.92h0Zm0.53-6.75c0.09,0,15.14-10.73,16.35-5.92,0.66,2.64-6.42,5.07-8.35,5.61-5.32,1.5-3.42,1.16-8,.31h0Zm3.39,26.41c-1.82-1.74-3.83-15.67-1.7-17.71,1.2-1.14,1.25,17.28,1.7,17.71h0Zm1.13-19.84c-0.17-.48-1.73-0.75-1.65-1,0.68-1.94,15.41-9.46,16.35-6.84s-14,9.82-14.69,7.82h0Zm6.7,15.58c10.05,21.08-11.55-6.58-6.07-7.8,2.88-.7,5.34,6.28,6.07,7.8h0Zm9.4-15.55c-1.4.91-13.35,8.4-14.74,4.63-2.68-7.24,26.21-12.11,14.74-4.63h0Zm79.17-2c-2.79-.82-9.62-3.81-8.45-7.85,0.53-1.84,12.75,7,12.47,7.35a3.85,3.85,0,0,1-4,.5h0Zm6.18,1.23c1,2.06-.3,13.92-3.32,15.09s2.45-16.79,3.32-15.09h0Zm-0.52-4.39c-1.18-.34-13.84-7.39-10.95-8.83,5.16-2.56,17.92,10.85,10.95,8.83h0Zm5.3,3.89c-0.08,3.26,1,10.63-1.32,13.14-1.28,1.38.81-18,1.37-17a8.53,8.53,0,0,1-.06,3.82C3120.22,598.59,3120.3,595.33,3120.27,596.46Zm-1-9.57c-1.57-.29-14.39-3.58-14.56-5.16-0.32-3,11.19-1.21,12.27-.7,1.69,0.79,7.87,6.9,2.29,5.86h0Zm4.58,18.28c0.38-1.25-2.61-10.43-2.3-13.16,0-.43,1.27-5.73,1.45-5.35,2,4.32,2.23,14,.85,18.51h0Z" transform="translate(-2995 -416.08)"/></g><g class="cls-18"><path class="cls-19" d="M3109.77,570.89l-0.3-3.78c-0.85,2.16-1.43,8.6-5.58,7,0.9,5.8-2.73,10-8.09,7.17,2.43,2.09,4.56,7.85-.44,8.83-3.17.62-5.4-4.31-8.37-4.88,2.78,2.69,9.45,10.14,1,10.09-3.65,0-5.94-8.07-8.91-7.42,1.15,2.16,8.57,13.19-.76,11.16-3.73-.81-3.54-5.4-6.16-8.08,1.26,3.48,2.92,11.64-3.73,10.51-4.45-.75-4.75-7.68-5.25-11.08-0.24,3,.81,13-4.9,10.8-3.61-1.41-1.51-7.85-.72-10.44-1.35,2-3.13,11.5-7.49,9.42-3.76-1.8-.8-6.52,1-9.33-1,1-7.4,10.81-10,6.92-2-3,2.42-6.17,4.4-7.94-4.2,2.08-15.21,7-7.34-1.23-4,.17-3.73,2.47-6.53.84-4.2-2.45,7.08-1.72,7.07-1.71-5.52-1.58-11.62-4.08-15.95-8,9.64,19.29,28.55,27.49,49.58,24.62,12.37-1.69,20.92-6.43,27.64-16.76,2.86-4.4,6.34-13.58,11.9-14.84l-2.06-1.92h0Z" transform="translate(-2995 -416.08)"/></g><g class="cls-20"><path class="cls-17" d="M3033.47,556.56c-2,.77,8.08,2,6.43.9,1.56,1,1.59,4.46,3.54,5.88,5.47,4,14.8-1.24,20.62-2,7.51-.93,13-0.69,20.16-3.2,1-.34,7.22-3.41,7.55-3.89-4.79,2.19-8.26-1-9.76-5.47-0.28,1.62.24,5.55,1.87,6.15,0.65,0.32-8.87,4.56-10.61,4.53-4.57-.08-9-2.76-13.08-4.37-5-2-7.68-2.91-13-1.76-3.29.71-7.08,3.54-10.63,2.3,0.63,0.23-.65-15.7,1.55-3.67-1.22,3.22-6.43,4.24-9.32,3.21a4.1,4.1,0,0,0,4.67,1.37h0Z" transform="translate(-2995 -416.08)"/></g><path class="cls-2" d="M3066.75,559.63c-2.76,0-31.62,8.63-25.07-3.48,1.84-3.41,11.52-2.11,14.06-1.36a56.87,56.87,0,0,1,6.29,2.84c0.61,0.26,8.55,2,4.72,2C3065.13,559.63,3067.25,559.62,3066.75,559.63Z" transform="translate(-2995 -416.08)"/><path class="cls-8" d="M3065.29,558.83c-3.91-1.19-26.64-10.41-23.43.58,2.72,9.31,20.56.12,26.4,0.22l-3-.8h0Zm-4.8,0c-0.74,3.07-5.13,1.67-5.57-.55-1.45,5.63-6.06,4.72-7.61-.38a22.14,22.14,0,0,0,.63,3.87c-0.28,1.38-4.56-1.22-4.63-2.35-0.11-1.71,2.19-6.15,4-2.42-0.6-3.81,7.13-3.08,7.62.1,0.59-2.79,6-.1,5.61,1.73h0Zm4,0.35q-3.1,2-3.57-.86c0.38-1.32,3.7.81,3.57,0.86C3063.65,559.48,3064.58,559.14,3064.48,559.18Z" transform="translate(-2995 -416.08)"/><path class="cls-21" d="M3089.82,555.08c-3.35.77-7.19-1.88-7.89-5.13,0.94,5.11,4.65,4.63-1.49,8.69-4.67,3.09-12,.74-16.85-0.91-4.11-1.41-7.86-4.24-12.3-4.47-5.83-.3-10.9,4.71-16.77,2.52a5.73,5.73,0,0,0,3.75-2.9c-0.93,2.15-6.67,3.45-8.77,2.56,1.9,0.67,9.74.2,11.22,1,1.19,0.67.52,4.85,2.62,5.73,8,3.34,12.43-1,20.69-1.85,7.05-.74,11.79.15,18.45-2.42,1.22-.47,1.69-2.91,2.41-3.15,0.52-.17,4.51.41,4.94,0.31C3088,555.49,3089.94,555,3089.82,555.08Zm-23.07,4.55c-2.76,0-31.62,8.63-25.07-3.48,1.84-3.41,11.52-2.11,14.06-1.36a56.87,56.87,0,0,1,6.29,2.84c0.61,0.26,8.55,2,4.72,2C3065.13,559.63,3067.25,559.62,3066.75,559.63Z" transform="translate(-2995 -416.08)"/><path class="cls-21" d="M3072,564.56c-7.84-3.22-15.73,6.06-22.61,2.93,6.36,3.56,15.51-5.53,22.61-2.93C3071.14,564.22,3072.08,564.6,3072,564.56Z" transform="translate(-2995 -416.08)"/><g class="cls-4"><path class="cls-5" d="M3167,525.13c-0.78-3.48-3.39-8.16-3.54-10.87-0.21-3.81,1.16-8.92.71-13.35-0.52-5.1-1-14.93-5.13-18.86s-5.55-2-10.62-.73c-8.31,2.15-9.83,2.29-16.34-.17-3.27-1.23-5.39.18-8.42-3.27-1.65-1.88-1.66-3.85-3.23-6.09-0.68-1-3.75-3.23-4.46-4-1.23-1.38-2.81-4.4-3.77-5.63,0,0-.77-3.61-0.87-3.84a23.18,23.18,0,0,0-3.58-1.67l0.68-3.57c-0.18-.32-1.48-4-1.59-4.36-0.22-.8-2.29-1.16-2.51-1.85-1.26-4.12-.42-8.44-1.64-12.37-0.48-1.54-1-14.74-1.44-15-1.73-.87-7.82,7.15-8.83,8.72a35.42,35.42,0,0,0-5.17,18.91c0,14.34,6.9,29.46,13.93,41.69,9.27,16.14,24.08,36,45.11,34-5.75,3.94-1.92,8.22-5.72,12.35-1.05,1.14-6.65,2.41-8.66,3.88-2.39,1.75-6.34,8-9.3,8.63-4.48,1-17.48-4.17-22.64-4.6-10.87-.9-17.88-1.94-15.53-16,1-6.19,8.24-16.68.72-23.27-6.83-6-10.39,1.65-10.68,8.78-0.34,8.2,5.52,11.21,5.81,19.13,0.17,4.43.92,6.22-2.58,7.32-3.91,1.23-10.08-5.56-11.52-8.41,0.2,0.39-3.39,13.59-1.43,5.37a38.75,38.75,0,0,1-1.93-4.43c0.43,1.21-2.3,5.39-2.85,6.37q-0.68-2.36-1.4-4.71c0.87,2-3.4,6-4.63,7.3a14.16,14.16,0,0,0,1-5.88c0.36,2.52-9,10.42-9.39,9.47-1.07-2.74-2.85-8.54-2.69-11.76,0.14-2.87,1.36-3.35,1.86-6.15a26.77,26.77,0,0,0-.24-11.8c-3.75-14.13-15.77-10.36-14.12,3.48,1.48,12.39,19,24,1.48,32-6.12,2.8-31.87,10.27-21.27,18-7-2-5.4,2.67-5.72-4.19-0.13-2.69.56-10.73,1.92-13,1.55-2.53,6.25-3.91,8.52-5.38,1.79-1.16,7.76-9,9.74-9.62-1.38.42-10.29,3.52-11.1,2.77-2.84-2.69,10.63-7.09,11.14-8.83,1-3.31-6.57-5-10-4.13-8.22,2.12-14.71,15.29-16.86,21.5-3,8.57-6.34,28.83,2.35,34.63,5.91,3.95,19.22-6.3,22.71-.64-23.62-5.55-25.88,38.88-15,39.77-2.31-.18,1.73-21.76,2.38-22.78-2,9.28.15,28.22,10.22,33.21,0.21,0.11-2.21-7.92-2.09-7.47,1.82,1.85,9.53,14.78,13,13.15-3.14-.44-10.62-27-11.55-30,6.13-1,9.93-10.07,16.14-10.35,0.92,0,7.77,4.93,8.59,5.26,4.7,1.91,10,2.58,15.05,2.93,10.13,0.71,22.08-.72,30.71-6.59,5.23-3.55,4.3-5.12,9.4-4.43,4.26,0.58,6.14,6.65,11.71,5-1.56,5-2,10.84-3.8,15.3-0.46,1.12-7.27,14.28-5.4,13.62,8.11-2.89,17.63-23.66,12.82-31.88a1.08,1.08,0,0,0,1.06.21c0.21,2.38-.48,27-3,27.54,2.88-.59,5.18-5.33,6.08-7.65-0.09.44-1.3,3.51,0.08,3.41,6.76-.49,7.43-23.68,7.59-27.87,0.55-14.63-3.9-18.93-19.48-15.85,4.74-5.15,13.59-4.34,20.16-5.15,8.37-1,18.36-4.26,25.19-9.29,7.37-5.43,9.68-12.07,11.19-20.32,1-5.23,3.88-9.88,2.6-15.63h0Zm-25.21-2.77c-20.62-1.81-34-21.44-42.68-38.42-5.49-10.68-11-23.15-11.38-35.32a37.34,37.34,0,0,1,3.31-17.09c0.8-1.65,10.2-13.75,10.59-10.61,0.95,4-1.4,11.46-.08,15.75,0.56,1.82,2.73,2.8,3,4.32,0.43,2.07-.55,4.57-0.09,6.4,0.23,0.94,3.16,2.78,3.79,4s-1.52,4.1-1,5.44c0.36,1,3.92,2.14,4.69,3.2,0.48,0.66-.76,2.83-0.35,3.62,0.64,1.23,3.06.89,4,2.39,0.8,1.29-.64,3.16.53,4.62,0.8,1,3.3.44,4,1.52,1.78,2.71,1.49,4.1,3.7,6.33,3.69,3.71,4.69,2,8.64,3.32,4.51,1.52,3.45,2.3,9.24,1.75,3.74-.35,10.37-4.9,13.87-3.68,7.79,2.71,10.44,23.32,8.58,29.89-2.08,7.35-14.38,13.33-22.37,12.62h0ZM3079.22,502c8.24-3.59,11.6,17.16.91,15.79-6.87-.88-6.6-13.32-0.91-15.79h0Zm-1.29,21.27c-3-2.73-3.63-8-3.16-11.81,0.44,9.67,11.92,8.35,12.63-.66,0.55,4-1.53,19.69-9.48,12.47h0ZM3030.61,517c-1.45-12.83,12.45-16.46,13.28-3.11,0.51,8.28-12.07,12.58-13.28,3.11C3030.3,514.27,3030.61,517,3030.61,517Zm3,9.53a20.74,20.74,0,0,1-2.83-8.3c3.09,7.18,12.2,5.62,13.69-1.9,1.28,7.06-3.59,21.44-10.86,10.2h0ZM3006.82,564c-1.44-5.76,28.86-13.36,32.56-17.14,0,0-1,2.84-.84,2.67,3.86-4.45.57-14-.83-18.83,1.56,1,3.16.12,4.54-.5,0.4,2.83,1,17.36,6,17.5-0.8,0-2.26-2.32-2.49-2.88,3.87-1.08,6.92-5.08,8.83-8.38a26.12,26.12,0,0,1-1.84,6c1.27-3,5.07-4.23,5.78-8.14-0.14-1.09,1.78,3.7,1,4.58a15.2,15.2,0,0,0,3.2-6.17c-2.41-10.74,1.76,4.46,2,4.09a22.55,22.55,0,0,0,1.4-5.47c1.53,5.25,15.55,8.42,11.12,11.48,5.6-3.53,3.49-12.87,2.39-17.85a4.94,4.94,0,0,0,4.21-.33c0,5-.86,16.74,4.1,19.5a9.25,9.25,0,0,1-2-3.27c6.14,7.26,27.15,2.31,36.23,7.25-9,8.31-14.62,20-24.7,27.37-9.38,6.85-22.69,9.46-34,10.31-10.85.81-25,1.12-34.82-4.36-3.78-2.11-21-13.67-21.82-17.38C3006.76,563.73,3006.83,564,3006.82,564Zm7.22-25c1.47,0.4,8.65-1.73,10.14-2.5-2.33,2.34-6.14,10.72-10.35,8.14-1.51-.93-1.81-6.2.2-5.64h0Zm-10.64-1.89c5.13-8.06,13.07-15.23,22.16-8.11-3.89,1.89-10.46,4.63-12.23,8.85-1.55,3.71.76,6.12-1.45,8.67-0.78.9-3.58,3.08-4.9,3.08,0.22,0-3.24-3.41-3.41-3.6-2.82-3.13-3.47-3.7-.17-8.89h0Zm-2.63,8.1c1.78,0.26,7.39,3.36,5.45,6-0.55-2.47-3.86-4.94-6.38-5,0.12,0,1.84-2.87-1.29.36a2,2,0,0,1,2.22-1.33h0Zm-4.48,26.41c-0.39-4.55,2.07-37,9.41-20.63,4.47,10-6.14,16.64-8.14,24.19a4.06,4.06,0,0,1-1.27-3.56h0Zm4.48,9.66c-7.44-2,.89-15,3.54-13.73,0,0-3.41,11.28-.63,14l-2.91-.29h0Zm16.65-2c-3,.34-8.64,4.2-11.54,2.8-3.89-1.88-4.66-7.59-2.13-11,6.43-8.72,13.45,4.12,18.45,8.42l-4.78-.19h0Zm4.6-.57c-4-3.73-12.35-9.62-14.94-14.1,15.42,14.89,30,22.48,51.56,23.36a129.76,129.76,0,0,1-19.65-2.83c17.2,3.2,36.86,1.52,52.79-6-10.11,5.25-21.25,7.3-32.4,8.51,22-2.38,37.08-8.35,51.5-25.59-4.66,7.66-5.95,12.73-13.87,18-9.69,6.39-21,9.29-32.48,10.15-14.8,1.12-31.2-.85-42.51-11.47h0Zm1.07,1.5a42.86,42.86,0,0,0,8.29,5.52c-5.05,1.65-5-.63-8.29-5.52C3025,581.79,3024.74,582.65,3023.09,580.2Zm-9,19.71c-1-1-1.74-1-3-1,0.09-3.65,6-5.57,8.57-6.76,5.51-2.54,7.74-4.75,12-.24-5.28,1-13.33,5.61-16.86,9.64l-0.69-1.66h0Zm-2.89-6.27c-3-4,.09-4.14,3.56-6,5.88-3.12,9.58-4.47,13.45.32-5,3.13-11.4,3.79-16,7.78l-1-2.13h0Zm-1.48-9.21c4.48-1.69,12.09-5.39,15.19-.86-4,1.6-13.34,2.67-15.68,6.7-1.3-1.59-1.7-5,.49-5.84h0Zm-6.63,21.35c-1-5,1.06-16.63,4.69-20.37-0.39,1.78,1.21,3.59,1.15,5.22s0.65-8-2.08,3.53c-0.36,1.5-3.83,11.27-3.76,11.62h0Zm5,14.6c-2.31-.6-4.18-7.1-4.59-8.19a3.22,3.22,0,0,0,3.9,0c0.26,0.3.69,9.13,0.7,8.19C3007.43,620.2,3008.11,618.94,3008.1,620.37Zm2.6-23.07c-2,2.11-1.78,17.19-5.86,15-4.41-2.41,1.77-18,4.16-21.08,0.13,3.22,4.28,3.36,1.7,6.13h0Zm1.73,21c-2.74-5.91-1.44-12.86-1.36-19.1,5.9,3.34,2.67,14.12,5.67,21.15-2.4,1.71-3.47-.25-4.31-2.05h0Zm7.09,9.22,1.19,3.14c-2.72-1.71-5.92-6.33-6.79-9.42,1.86,1.21,2-1.31,3.75.81,0.92,1.12,1.56,4.74,1.85,5.46h0Zm7.07-.92c0.76,1.54,4.69,9.73,5.15,9.88-4.19-1.37-10.07-8-11.66-11.74,5.17,2.6,2.9-5.43,6.51,1.86h0Zm-5.47-15.29c1.11,3.11,7.76,16-1.75,12.37-4.16-1.61-5.86-15.74-5.14-19.44,3.62,5.59,4.35-.06,6.89,7.07h0Zm10.34-12.6c-1.4,1-16.81,14-17,4.92-0.08-3.06,5.37-5.44,7.66-6.78,6.71-3.94,8.35-5.64,14-.63a27.22,27.22,0,0,0-4.57,2.49h0Zm75.16-1.24c-3.27-1.41-5.67-4.64-9.13-5.58,2.64-3.25,1.93-3.74,5-4,1.63-.14,7.92,4,8.67,4.91,1.25,1.44,4.55,1.35,2.92,3.93-1.52,2.4-5.53,1.6-7.49.75h0Zm0.87,24.57c1.49-1.55-4.88,5.92-5.22,5-1.18-3.08,5.23-11.91,6.91-14,0.4,1,2.36,2.93,3.67,2.73a42.88,42.88,0,0,1-5.36,6.22h0Zm8-24.94c0.58,4.83-.86,13.55-2.49,18.18-9.58,1.07,2.07-21.72,2.49-18.18C3115.62,597.94,3115.46,596.66,3115.52,597.09Zm0.5-1.55c-4.73-.83-9.82-7.42-15.22-8.67,2.68-4.8,4.47-3.54,9.33-1.59,1.79,0.72,7.55,2.89,8.39,4.78,0.54,1.21,1.22,6.09-2.5,5.48h0Zm6.3-10c-2.49,8.88-12.42-1.3-19.43-2.51,2.49-4.64,17.39-3.19,19.43,2.51C3122.29,585.59,3122.3,585.49,3122.31,585.52ZM3116,608.84c0.1-2.3-.18-10.82.71-13,0.59-1.44,3-2.31,3.34-4.33,1.65,2.14,1,14.49.17,16.93s-4.5,6.87-4.22.38C3116.12,607.26,3116,610.05,3116,608.84Zm1.86,9.66a10,10,0,0,1-4.21,4.53c0.2-2.77,1.17-8.58,2.43-11.13,0.91,1.73,3.14.48,4-.73a16.66,16.66,0,0,1-2.26,7.34h0Zm3.51-1.34q-0.49,2-2,1.49c-1.78-5.62,2.71-8.19,4.9-11.43,0.17,3.45-1.4,7-2.93,9.94h0ZM3124,607c-5.13,7.42-3.35-10.84-3.11-12.79,0.53-4.28.12-3.26,1.85-8.16,1.48,2.57,3.56,17.62,1.25,20.94h0Zm2.54-6.39c0,1.32-.3,6.37-1.63,7.55,0.08-2.15,1.72-10.75,1.63-7.55C3126.46,601.66,3126.5,600.14,3126.49,600.57Zm-0.78-21.36c2.56,2.66,2.11,20.1-1.15,21.63-0.12-4.57,1-14.6-3.42-17.84,1.9,0.64,4-2.42,4.56-3.8C3126,579.46,3125.36,580.1,3125.71,579.21Zm-8.92-3.93c3.11,0.13,13.35,2.72,6,6.89-3,1.68-14.14-2.57-18.31-2.09,3.09-5.18,6.29-5.07,12.28-4.8h0Zm-7.78-1.6c-10.16,8.76-10.84,21.91-25.54,27.54-19.86,7.62-41.86,2.79-55.07-13.71,4.07-2.49,5.34-.51,9.47.74a17,17,0,0,0-4.68,3.84c3.73-4.56,6.61-3.09,11.61-2.22a27.91,27.91,0,0,0-5.66,6.17c3.39-5.73,6.41-5.81,12.08-5.37-2.1,2.33-4.18,5.78-4.42,9,0.42-6.49,5-8.78,10.24-8.69-1.86,2.95-2.43,8.87-1.14,12.08-0.81-2.18-.66-10.58,1.51-12.07,6.7-4.63,6.34,8.47,7.56,12-2-5.69-3.77-11.75,2.51-12.47,5.49-.63,7.68,5.52,7.57,11,0.09-3.76-1.46-8.26-3.11-11.59,6.77-1.06,11.58-.09,13.59,7.92-1-3.59-3.52-6.91-6.15-9.46,5.45-1.42,12.41-4.49,14.58,3.59a12.51,12.51,0,0,0-5.93-6.51c4.08-1.75,8.45-6.11,12-1.38a9.44,9.44,0,0,0-3.95-2.85c2.21-1.38,7.26-7.53,9-5.1-1.65-2.33,2.61-5.45,3.71-7.89a4.27,4.27,0,0,0,1.68,4.34l-1.51,1.1h0Zm7.16-2c-9.08,4.69-7-7.8-3.09-11.83-1.81,5-.86,9.19,4.86,10.49l-1.77,1.34h0Zm31-8c-7.08,3.65-42.08,14.84-33-5.26,2.23-5,7.28-9,11.11-12.59,3-2.81,6.22-6.82,10-8.59,0.45-.21,7.21-3.7,4.33-0.42q0.47-.51.1-0.62c-6.3,9.31.74,31.06,14.53,22.8-1.21,2.66-4.75,3.48-7.06,4.68C3143.28,565.66,3149.57,562.41,3147.16,563.65Zm16.6-17.45c-4.15,13.41-22.59,20.2-25.55,2.85-4.09-24,29.55-15.79,25.55-2.85h0Zm0.4-5.86c-3.4-6.49-17.86-11-23.33-5-2.35-7.46,32.26-9,23.33,5C3163.83,539.7,3165.67,538,3164.17,540.34ZM3167,529.7a6,6,0,0,1-1.82,4.72c-4-9.82-29.31,1.89-20-9.92,1.72-2.19,13.13-9,16.09-8.81,3.9,0.25,5.94,9.49,5.77,14h0Z" transform="translate(-2995 -416.08)"/></g><g class="cls-4"><path class="cls-17" d="M3003,546.5c-0.82-.56-4-1.73-4.55-0.35a5.54,5.54,0,0,1,4.55.35C3002.54,546.17,3001.54,545.79,3003,546.5Z" transform="translate(-2995 -416.08)"/></g><g class="cls-22"><path class="cls-17" d="M3070.73,563.25c-9.32-1.56-18,7.91-27.23,2.71,10.73,9.06,33.07,6.82,43.8-1.87-5.74,1.46-11,.09-16.57-0.83h0Z" transform="translate(-2995 -416.08)"/></g><g class="cls-20"><path class="cls-17" d="M3167,525.13c-0.78-3.48-3.39-8.16-3.54-10.87-0.21-3.81,1.16-8.92.71-13.35-0.52-5.1-1-14.93-5.13-18.86s-5.55-2-10.62-.73c-8.31,2.15-9.83,2.29-16.34-.17-3.27-1.23-5.39.18-8.42-3.27-1.65-1.88-1.66-3.85-3.23-6.09-0.68-1-3.75-3.23-4.46-4-1.23-1.38-2.81-4.4-3.77-5.63,0,0-.77-3.61-0.87-3.84a23.18,23.18,0,0,0-3.58-1.67l0.68-3.57c-0.18-.32-1.48-4-1.59-4.36-0.22-.8-2.29-1.16-2.51-1.85-1.26-4.12-.42-8.44-1.64-12.37-0.48-1.54-1-14.74-1.44-15-1.73-.87-7.82,7.15-8.83,8.72a35.42,35.42,0,0,0-5.17,18.91c0,14.34,6.9,29.46,13.93,41.69,9.27,16.14,24.08,36,45.11,34-5.76,3.94-2.88,8.94-7.95,12.5-3.82,2.69-8.43,7-12.39,9.24-5.57,3.16-6.13,1.79-12.48.33-7-1.6-21.06.64-26.44-4-8.7-7.55,2.8-22.3.75-31.54-2.09,10.94-10.46,10.82-13.13.42-1.8,9.93,5.31,13,5.64,22,0.17,4.43.92,6.22-2.58,7.32-3.91,1.23-10.08-5.56-11.52-8.41,0.2,0.39-3.39,13.59-1.43,5.37a38.75,38.75,0,0,1-1.93-4.43c0.43,1.21-2.3,5.39-2.85,6.37q-0.68-2.36-1.4-4.71c0.87,2-3.4,6-4.63,7.3a14.16,14.16,0,0,0,1-5.88c0.36,2.52-9,10.42-9.39,9.47-1.67-4.29-3.05-10.61-2.47-14.75,0.74-5.25,2.89-8.23,1.6-14.07-2.44,9.51-11.19,9.1-14.6.83,0.85,12.94,19.67,25.76,1.76,33.78-6.23,2.79-31.8,10.31-21.27,18-4.49-1.28,4.36,4.51,2.68,7.67,0.36-.67-9.82,2-8.92,2.61-2.9-1.86-.34-9.15,2-10.47q-1.73,1.92-1.48-.19c-2,1.88-3.06,10.91-4.49,11.09-4.4.55,2.47-10.58,4.14-11.43-1-.51,1.92-15.59,3.14-17.38,1.86-2.73,7-3,9-4.42,2.68-1.85,5.84-8.83,8.44-9.63-1.38.42-10.29,3.52-11.1,2.77-4.87-4.62,22.61-7.1,6.78-12.62,4.87,3.49-4.06,6.32-5.69,8.24-2,2.37-2.36,8.51-4.21,9.75-2.47,1.66-9.34-.14-9.24-4.27-1.29,3.08-.6,3.81-2.53,5.7a6.37,6.37,0,0,1,5.87,2.43c-1.68-1.65-5.83-2.73-7-.09,11-6.85,1.59,37.28-2.4,16.76-0.11,12.92,3.47,19.1,16.23,17.13,4.76-.74,7.51-2.39,12-0.85,6.08,2.06,10.83,6.43,17.35,8.2,12.77,3.48,28.83,2.79,41.38-1.47,3.87-1.31,28.84-12,26.57-19.34,0.59,0.57.45,4.87,1.74,4.88,3.41,0,4.55-1.72,7.17-2.12,10.08-1.54,19-1.74,28.78-6.42,8.79-4.21,16.22-11.84,18.07-21.73,0.9-4.81,3.32-12.4,2.17-17.55h0ZM3014.4,539c0.25-.14,6.35-1.15,7.4-1.4-0.78.19-2.32,5-4.15,4.93-0.57,0-8.11-1-3.25-3.53h0Zm127.32-29.39c-22.17,8.94-39.32-24.4-45.62-40.62-3.82-9.82-6.32-20.83-4.56-31.39-0.14.85,5.49-17,7.64-14.49,2.59,3.19-2.34,7.94-2.35,11.18,8.18-.76,3,0.55,2,8.79,7.64-2.3,4,3,3,8.64,6.6-2.38,3.9,6.24,3.66,9.57,5.43-2.41,4.33,2.93,4.57,6.29,5.35-1.94,2.05,2.54,4.14,4.41,1,0.89,3.9.54,4.28,1.23,0,0,1.56,3,1.49,3,0.49,0.57-.43,3.12.2,4.16,1.11,1.83,2.63.5,4.08,1.86,0.73,0.68,2.94,3.86,3.75,4.21a3.57,3.57,0,0,0,2.7-.79c3.93,1.69,6.79,2.48,11.26,1.23,3.85-1.07,8.27-5.6,12.52-2.94,11,6.88-6.83,23.32-12.76,25.71h0Zm-64.63,11.53q-2-1.69-.92-3.4s9.6,1.44,8.87.49c2.69,3.51-4.74,7.41-8,2.92h0Zm-39.83,7.33c-3.41-1-5.46-4.09-3.61-6.23-0.34.39,4.09,0.66,3.53,0.86,12.26-4.3,4.06,6.59.08,5.37h0Zm77,22.9c-2.35,4.23-10.48,7.94-14.1,11.08-5.9,5.12-11.45,11.09-18.58,14.67-18,9-32.94,3.71-49.24-4.72-5.06-2.62-17.12-3.41-14.3-11,1.46-3.92,8.61-5.67,12.11-7.44,2.17-1.1,8.42-2.75,9.06-3.52,2.68-3.21-.83-17.23.23-17.82,2.52-1.46,7.76,22.83,11.75,15-6.73-2.09,1.33-3.15,1.3-6.5a8,8,0,0,1-1.91,4c0.91,0,7-6.63,6.93-6.78,1.69,2.52-1.29,5.4-1.17,7.91,2.1-1.29,4.88-10.09,6.44-10.22,1-.08,5.8,8.27,8.53,8.84,0.24-1-3.17-8.29-2.14-7.84,3.34,1.35,7.64,3.7,5.17,6.48,10.43,3.08,4.73-15.35,7-17,2-1.51,1,26.82,11.61,19.8,0.53,0.27-4.1-2.28-3.3-2.43,3-.54,27.76,1.8,24.65,7.41h0Zm24-14c-1.86,4.74-1.29,14.07-3.57,17.5-1.85,2.79-14.17,7.06-17,5.22-8.93-5.75,20.31-22,20.59-22.72C3138,537.86,3138.36,537,3138.26,537.32Zm18.27,7.55c-7.2,8.48-21.78,11.42-17.33-4.5,3.39-12.13,26.34-6.08,17.33,4.5h0Zm4.46-9.43c0.93-4.19-18.62-2.7-18.92-2.44,0.76-.51,1.49-1.06,2.42-1.59q0.44,0.49-.5.6c3-1.1,18.5-3.47,17,3.43h0Zm2.5-8.16c-1.23,1.39-16.64-2.09-16.53-2.37,0.78-2.05,9.21-6.35,11.45-6.57,3.93-.39,9.35,4.15,5.09,8.94h0Z" transform="translate(-2995 -416.08)"/></g><g class="cls-4"><path class="cls-19" d="M3167.33,531c-1.53,1.55-13.37-2.91-15.86-3.23-3.33-.43-6.79,2.47-6.33-1.68,0.39-3.52,15.57-11.42,18.89-10.16-2.29-3.92,3.76-38.76-9.83-36.54,7.08,1.68,6.7,12.73,6.62,18.23-0.12,8.76-2.16,13.67-11,17.45-20.81,8.87-33.07-8-45.65-21.48,9.41,14.49,22.77,31.07,42.11,29.2-2.12,1.45-6,5.56-3.34,8.26,0.22,0.22,7.69-1.17,8.16-1.19s20.16,2,12.28,7.09c-1.53,1-10.6-4.79-13.56-4.76-3.93,0-8,1.38-9.93,3.7-4.87,5.9-2.21,14.42-.39,20.48s5.53,4.24-4.93,7.3c-4.83,1.41-18.52,6.74-21.75.36s8.29-12.15,10-16.61q-1.09,1.21-2.71-.87c0.81,0.72-14.27,20.06-16.05,22.1-10.11,11.6-23.69,15.42-38.41,18.28a63.08,63.08,0,0,0,17.93-3.69c4.45-1.53,11-6.61,15.33-7-1.78.14-9.47,7.14-12.92,8.4a76,76,0,0,1-20.32,4.21c-7.55.57-29.67,2.54-34-4.85,1.4,2.43,17.76,2.32,20.8,2.25-9.41-1.35-19.38-2.22-27.27-8-2.23-1.62-18.47-14-17.68-15.86-3.37,1.43,11.45,10.8,9.72,14.55-0.33.73-8.38,2.72-9.21,2.64-5-.49-6.93-4.1-4.51-9.5-0.35.49-3.34,10-1.73,10-7.21-.15-1-8.56-0.28-11.24,0,0-5,4.9-4.42,5.5a10.58,10.58,0,0,1-1.28-3.45c1.27,12.9,8.83,11.22,18.67,9.48,10.6-1.87,16.61,5.73,26.79,8.41,13.28,3.49,29.92,2.85,42.81-2.07,3.68-1.4,27.15-11.78,25-18.74,5.16,5-.3,4.63,8.38,3.14,8.88-1.52,17.86-1.71,26.78-5.57,15.19-6.58,21-19.83,23.14-34.61C3166.66,531.71,3167.13,532.44,3167.33,531Zm-55,30.31c-1.38,3,.87,5.77-0.29,8.47-1,2.24-3.19-4.08-1.7-6.5-8.19,13.21,3-4.11,2-2C3111.76,562.67,3112.44,561.19,3112.37,561.35ZM3160.61,547c-2.85,4.32-12.49,11.69-18,9.31s-5.8-13.44-3.36-17.89c5.91-10.76,29.46-3.64,21.4,8.58h0Z" transform="translate(-2995 -416.08)"/></g><g class="cls-4"><path class="cls-19" d="M3006.47,551.52c3.31-4,8.94-4.29,12.22-7.5-5,1.24-5.6-.77-5.63-5.14-2,6.42-2.58,10.05-10,6.71a7.29,7.29,0,0,1,3,3.59q-1.64,1.41-3.65-1.71c4.74,3.52,2.89,15.39.43,19.9,5-3.52.52-12,3.64-15.85h0Z" transform="translate(-2995 -416.08)"/></g><path class="cls-12" d="M3065.88,561.84c-4.91,1-11.36,4.17-16.15,4,6,0.15,10.67-3,16.15-4C3063.28,562.39,3065.93,561.83,3065.88,561.84Z" transform="translate(-2995 -416.08)"/><path class="cls-12" d="M3088.68,551.48c-1.31-2.95-2.93-.14-3.55-0.06-2,.25,6.08,5.74,3.55.06h0Z" transform="translate(-2995 -416.08)"/><path class="cls-12" d="M3090.91,552.35c0-1.1-2.12-.34-1.32.81q1.22,0.67,1.32-.81h0Z" transform="translate(-2995 -416.08)"/><path class="cls-12" d="M3035.75,552.09c-1-.36-3,0.71-3,1.82-0.05,2.28,4.55-1.24,3-1.82h0Z" transform="translate(-2995 -416.08)"/><path class="cls-12" d="M3018.74,526.39c-6-1.68-14.95,9.46-15.68,14,0.55-3.4,12.38-14.93,15.68-14C3017.08,525.93,3019,526.46,3018.74,526.39Z" transform="translate(-2995 -416.08)"/><path class="cls-12" d="M2998.68,548.59a50.36,50.36,0,0,0-1.48,17.84,72,72,0,0,1,1.48-17.84C2997.18,554.35,2998.71,548.47,2998.68,548.59Z" transform="translate(-2995 -416.08)"/><path class="cls-12" d="M3061.34,540c-1.38,2.34-2.67,7.35-5.79,8,4.87-1,4.22-5.37,5.79-8h0Z" transform="translate(-2995 -416.08)"/><path class="cls-12" d="M3055,543.29q-2.84,1-2,2.34,3.45-1.36,2-2.34h0Z" transform="translate(-2995 -416.08)"/><path class="cls-12" d="M3068.95,544.88a24.28,24.28,0,0,1-5.4-7c1.52,2.85,3.72,5,5.4,7C3068,543.78,3069.11,545.07,3068.95,544.88Z" transform="translate(-2995 -416.08)"/><path class="cls-12" d="M3073.47,540.41q-2.47-3.24-3.38-1.3,2.7,3.52,3.38,1.3C3072.38,539.9,3073.71,540.52,3073.47,540.41Z" transform="translate(-2995 -416.08)"/><path class="cls-12" d="M3043.94,545.4c-0.94-3.83-1.72-7.59-2.53-11.45,0.72,3.45,1.79,8.39,2.53,11.45C3043.47,543.49,3044,545.55,3043.94,545.4Z" transform="translate(-2995 -416.08)"/><path class="cls-12" d="M3083.25,533.77c-0.11-1.3-.73-4.87-0.58-6.14-0.49,3.77,1.25,8.77.76,11.91a24.73,24.73,0,0,0-.18-5.77C3083.08,531.72,3083.41,535.67,3083.25,533.77Z" transform="translate(-2995 -416.08)"/><path class="cls-12" d="M3040.17,523.07c-0.65.11-3.9,1.2-4.69,0.76,3,1.66,3-.49,4.69-0.76C3038.54,523.34,3040.31,523,3040.17,523.07Z" transform="translate(-2995 -416.08)"/><path class="cls-12" d="M3083.92,518.43c-0.81.22-5.16,1.83-6.23,0.4,2,2.71,5.16-.1,6.23-0.4C3082,518.94,3084.18,518.35,3083.92,518.43Z" transform="translate(-2995 -416.08)"/><path class="cls-12" d="M3009.34,569.49c-1.67-3.29-4.89,1.45-4.77,3.3,0-.47,3.83-5.15,4.77-3.3h0Z" transform="translate(-2995 -416.08)"/><path class="cls-12" d="M3136.27,538.05c-7.91,2.95-10.95,10.29-16.29,15.48,4.65-4.61,10.44-13.36,16.29-15.48C3129,540.78,3136.5,538,3136.27,538.05Z" transform="translate(-2995 -416.08)"/><path class="cls-12" d="M3148.13,534.58c-3.22-1.07-6.33,1.44-8.14,3.76,0.93-1.16,6.76-4.22,8.14-3.76h0Z" transform="translate(-2995 -416.08)"/><path class="cls-12" d="M3158,520c-3.84.09-7.26,2.87-10,5.23,1.56-1.33,8-5.19,10-5.23h0Z" transform="translate(-2995 -416.08)"/><path class="cls-12" d="M3099.61,433.75a2,2,0,0,0-2.2-.11c0.29-.08,1.87-8.15,1.8-8.91,0.24,2.83-2.43,6.8-2.17,10.1,0-.37,2.59-0.4,2.73.56,0.33,2.27-1.21,4.53-1.51,6.72,0.27-1.92,4.66-6.39,1.34-8.37h0Z" transform="translate(-2995 -416.08)"/><path class="cls-12" d="M3106.57,461.48c-1-.59-2-8.93-2.15-9.81,0-.19-1.33-8.58-1.38-8.64,0.33,0.47-1.07,3.88-1,4.17,0.61,3.54,2.13,3.49,2.67,5.86,0.8,3.52-.9,6.8,1.89,8.42C3104.94,460.55,3106.7,461.56,3106.57,461.48Z" transform="translate(-2995 -416.08)"/><path class="cls-12" d="M3116.9,472.34c-3-.61-5.41-6.74-7.21-9.3,2.57,3.61,2.56,8.39,7.21,9.3h0Z" transform="translate(-2995 -416.08)"/><path class="cls-12" d="M3145.53,485.7c-5.26,2.92-6.45,1.09-11,1.32-0.17,0-5.94.68-5.71,0.81-2.24-1.21-8.77-7.44-9.24-10.09,1.94,11.35,16.31,13,25.92,8C3142.89,487.17,3145.63,485.65,3145.53,485.7Z" transform="translate(-2995 -416.08)"/><path class="cls-12" d="M3127.58,506.88c-20.4-9.72-36.4-42.85-35.17-64.47-1.45,24.34,13.71,54,35.17,64.47C3122.08,504.26,3127.78,507,3127.58,506.88Z" transform="translate(-2995 -416.08)"/><path class="cls-12" d="M3155.75,484.22a4.57,4.57,0,0,0-5.09-1.56c2.78-.64,7.36,5.65,7.26,7.68a10.26,10.26,0,0,0-2.17-6.12h0Z" transform="translate(-2995 -416.08)"/><g class="cls-4"><path class="cls-23" d="M3050.28,563.81c-1.66-2.74-3.72-6.67-3.59-9.71-0.14,4.1,1.87,6.87,3.59,9.71h0Z" transform="translate(-2995 -416.08)"/><path class="cls-23" d="M3055.72,562.27c-0.33-.86-1.2-6.73-0.81-7.91-1,2,.27,6.53.81,7.91C3055.22,561,3055.76,562.37,3055.72,562.27Z" transform="translate(-2995 -416.08)"/><path class="cls-23" d="M3060.82,556.94l-0.41,3.7c0,0.72.64-4.27,0.41-3.7C3060.35,558.06,3060.84,556.88,3060.82,556.94Z" transform="translate(-2995 -416.08)"/></g><path class="cls-12" d="M3145.62,457.39c-3-11.51-16.09-34-28.27-38,4.45,1.5,11.49,13.09,14.59,17,4.79,6,11.91,14,13.68,21.07C3144.53,453.16,3145.66,457.54,3145.62,457.39Z" transform="translate(-2995 -416.08)"/><path class="cls-24" d="M3084.84,498.69c-7.1-.14-8.13,7.61-11.2,11.72,2.26-3.06,9-11.77,11.2-11.72h0Z" transform="translate(-2995 -416.08)"/><path class="cls-25" d="M3084.84,498.48c-2.92,0-13.7,7.65-11.41,12.06-0.93-1.8,12.21-12,11.41-12.06-2.26-.22-10.46,8.6-11,11.77,0.84-4.83,6.11-11.69,11-11.77C3081.68,498.52,3085.11,498.48,3084.84,498.48Z" transform="translate(-2995 -416.08)"/><path class="cls-24" d="M3043,507.24c-2.86-4.16-7.34-6.26-12.26-4.63,2.2-.74,13.76,4.8,14.16,8.58l-1.9-4h0Z" transform="translate(-2995 -416.08)"/><path class="cls-25" d="M3043.17,507.14c-3.85-5.46-11.77-2.93-12.71-3.86,0.16,0.15,17.39,4.8,14.57,8.07,1.17-1.39-2.07-3.78-2.23-4,0.76,1.11,1.37,2.7,2.15,3.62A18.88,18.88,0,0,0,3031.3,503c-0.76-2.92,11.4,3.46,11.87,4.11C3041.27,504.45,3043.32,507.35,3043.17,507.14Z" transform="translate(-2995 -416.08)"/><path class="cls-3" d="M3081.41,500.14c-3.5,1.55-3.22,3.82-5.38,5.67,1.09-1,4.18-5.15,5.38-5.67C3079.14,501.14,3081.61,500.05,3081.41,500.14Z" transform="translate(-2995 -416.08)"/><path class="cls-3" d="M3038.44,504.05a5.72,5.72,0,0,0-5-1.44c-0.71.13,5.52,2,5,1.44h0Z" transform="translate(-2995 -416.08)"/><path class="cls-3" d="M3040.3,505.64l-1.53-1c-0.42-.1,1.76,1.2,1.53,1h0Z" transform="translate(-2995 -416.08)"/><g class="cls-26"><path class="cls-12" d="M3059.08,592.89c0.08,0.35-.9,5.3-0.76,6.25,0,0,1.07-4.82.76-6.25h0Z" transform="translate(-2995 -416.08)"/><path class="cls-12" d="M3057.52,593.5q-1.57,2.47.19,2.69,1.62-2.91-.19-2.69C3057.48,594.36,3057.54,593.22,3057.52,593.5Z" transform="translate(-2995 -416.08)"/><path class="cls-12" d="M3061,592.75c-0.1-.29-0.68,5.53-0.66,5.73,0-.43,1.44-3.56.66-5.73h0Z" transform="translate(-2995 -416.08)"/><path class="cls-12" d="M3066,595.29q0.49-2.82-1.17-2.33a7.76,7.76,0,0,0,.9,4.6q1.79-.3.27-2.26h0Z" transform="translate(-2995 -416.08)"/><path class="cls-12" d="M3069.13,595.95l-1-3.32c0.12,0.21-.64,4.79.62,6.3q2.15-.17.37-3h0Z" transform="translate(-2995 -416.08)"/><path class="cls-12" d="M3071,593.23c-0.47-.91.93,3.64,0.84,2.62l-0.84-2.62h0Z" transform="translate(-2995 -416.08)"/><path class="cls-12" d="M3078.58,596.39c-0.17-1.12-3.3-5.17-3.32-5.29,0.13,0.88,3.66,7.57,3.32,5.29h0Z" transform="translate(-2995 -416.08)"/><path class="cls-12" d="M3075.64,594.39q-0.25-2.16-1.44-1.37c2.16,5.26,1.06.94,1.44,1.37h0Z" transform="translate(-2995 -416.08)"/><path class="cls-12" d="M3081.28,595.31c0-.08-2.48-5.37-3.51-4.62-1.68,1.21,3.94,5.94,3.51,4.62C3081,594.43,3081.44,595.81,3081.28,595.31Z" transform="translate(-2995 -416.08)"/><path class="cls-12" d="M3081.52,592.37q-0.7-1.95-1.61-1,0.92,2.23,1.61,1h0Z" transform="translate(-2995 -416.08)"/><path class="cls-12" d="M3087.07,592.69a12.23,12.23,0,0,0-4.18-4.27c-1.64-.9,5.06,6.5,4.18,4.27h0Z" transform="translate(-2995 -416.08)"/><path class="cls-12" d="M3087.95,590.92q-1.23-3.67-2.82-2.11c6.67,10.94,2,1.32,2.82,2.11h0Z" transform="translate(-2995 -416.08)"/><path class="cls-12" d="M3089.19,588.95l-1.67-1.13c-1.29-.49,2.42,2.36,1.67,1.13h0Z" transform="translate(-2995 -416.08)"/><path class="cls-12" d="M3054.63,592.44q-2.94,3-1,5.11c1.72,0.46,1.28-6,1-5.11h0Z" transform="translate(-2995 -416.08)"/><path class="cls-12" d="M3053,593.26q-2.57,1.79-.79,2.47,2.49-2,.79-2.47h0Z" transform="translate(-2995 -416.08)"/><path class="cls-12" d="M3051.91,592.09c0.07-.09-3.95,4.62-2.44,5,1.24,0.34,2.52-5.12,2.44-5C3050.79,593.43,3052.1,591.87,3051.91,592.09Z" transform="translate(-2995 -416.08)"/><path class="cls-12" d="M3048.16,591.93q-3.49,1.89-1.53,3,3.44-1.89,1.53-3h0Z" transform="translate(-2995 -416.08)"/><path class="cls-12" d="M3046.7,591.06c-0.26.16-4.75,5.18-3.34,4.53,1.25-.58,3.11-4.4,3.34-4.53h0Z" transform="translate(-2995 -416.08)"/><path class="cls-12" d="M3044,591.8h0Z" transform="translate(-2995 -416.08)"/><path class="cls-12" d="M3041.58,590.22q-3.73.23-3.84,2.82c0.81,1.35,4.4-3.15,3.84-2.82h0Z" transform="translate(-2995 -416.08)"/><path class="cls-12" d="M3038.55,589.82q-1.92.51-.76,1.27,1.58-.4.76-1.27h0Z" transform="translate(-2995 -416.08)"/><path class="cls-12" d="M3093.29,586.13l-1.92-1.3c-1.66-.31,2.79,2.73,1.92,1.3h0Z" transform="translate(-2995 -416.08)"/><path class="cls-12" d="M3094,584.07h0Z" transform="translate(-2995 -416.08)"/><path class="cls-12" d="M3098.48,580.64a0.3,0.3,0,0,0,0,.6A0.3,0.3,0,0,0,3098.48,580.64Z" transform="translate(-2995 -416.08)"/></g></g></g></svg>