<svg id="Layer_1" data-name="Layer 1" xmlns="http://www.w3.org/2000/svg" viewBox="0 0 213.43 200.36"><defs><style>.cls-1{fill:#1d2e2f;}.cls-1,.cls-2,.cls-3,.cls-4{fill-rule:evenodd;}.cls-2{fill:#634835;}.cls-3{fill:#907765;}.cls-4{fill:#c8c391;}</style></defs><title>anim_26</title><g id="feet"><path class="cls-1" d="M-171.73,1941.41c-4.54,2.23-.16,12.06,12.5,13.55s15.31-10.28,15.31-10.28-4.13-.7-14.43-1.91S-167.19,1939.17-171.73,1941.41Zm90.08-1.11c-2.45-6.35-.56-1.5-10.7.71a87,87,0,0,0-16.66,5.26s3.78,11.46,16.24,8.74S-79.83,1945-81.65,1940.3Z" transform="translate(232.07 -1758.76)"/></g><g id="hands"><path class="cls-2" d="M-161.52,1787.26a2,2,0,0,0-.95.71C-161.58,1787.51-161.22,1787.3-161.52,1787.26Zm-31.4,26.05c-16.85,21.25-24.11,32.33-33.51,66-9.92,35.43-4.5,60-.59,67.66s13.82,14.09,20.13,11.7,4-20.37,2.54-33.61c-1.71-15.71,7.23-26.75,12-44,7.84-28.37-3.41-34.13,4.47-38.55s3.78-18.12,4.9-23c1-4.36,16.34-27.22,20.51-31.54C-166.19,1789.88-179.31,1796.15-192.92,1813.31ZM-88.24,1788a2,2,0,0,0-.95-0.71C-89.49,1787.3-89.13,1787.51-88.24,1788Zm64,91.3c-9.41-33.62-16.66-44.71-33.51-66-13.61-17.16-26.73-23.43-30.46-25.34,4.18,4.32,19.5,27.18,20.51,31.54,1.12,4.84-3,18.53,4.9,23s-3.36,10.18,4.47,38.55c4.77,17.25,13.71,28.29,12,44-1.44,13.23-3.78,31.21,2.54,33.61s16.22-4.08,20.13-11.7S-14.35,1914.69-24.27,1879.26Z" transform="translate(232.07 -1758.76)"/></g><g id="body"><path class="cls-3" d="M-92.09,1770.09c-10.36-7.12-21.9-11.32-34.26-11.32h0c-12.36,0-23.9,4.21-34.26,11.32-33.3,22.8-54.41,75.66-50,117.15a92.34,92.34,0,0,0,4.3,21.53c9.52,28.3,44.75,41.29,80,40.43,35.25,0.86,70.48-12.13,80-40.43a92.33,92.33,0,0,0,4.3-21.53C-37.68,1845.75-58.79,1792.89-92.09,1770.09Z" transform="translate(232.07 -1758.76)"/></g><g id="head"><path class="cls-2" d="M-92.09,1770.09c-10.36-7.12-21.9-11.32-34.26-11.32h0c-12.36,0-23.9,4.21-34.26,11.32-19.67,13.47-35.08,37.42-43.5,63.32,1.22,13.23,4.34,24.08,8.66,32.72,9,18,32.24,38.89,69.24,38.89s58.31-22.62,69.31-38.62c5.77-8.39,7.57-17.56,9.56-29C-55.44,1810-71.41,1784.25-92.09,1770.09Z" transform="translate(232.07 -1758.76)"/></g><g id="head-2" data-name="head"><path class="cls-4" d="M-126.35,1771c-29.82,0-58,18.67-58,50,0,25.84,28.18,34,58,34s56-8.17,56-34C-70.35,1791.51-96.53,1771-126.35,1771Z" transform="translate(232.07 -1758.76)"/></g><g id="eye"><path class="cls-2" d="M-153,1799c-21.48,0-37.33,23.83-37.33,29.91s20.21-7.87,37.33-7.87c5.15,0,9.33-4.93,9.33-11S-147.86,1799-153,1799Zm51.33,0c-5.15,0-9.33,4.93-9.33,11s4.18,11,9.33,11c17.13,0,37.33,14,37.33,7.87S-80.2,1799-101.69,1799Z" transform="translate(232.07 -1758.76)"/></g><g id="nose"><path class="cls-1" d="M-127.35,1809c-7.18,0-13,.48-13,6s5.82,14,13,14,13-8.48,13-14S-120.17,1809-127.35,1809Z" transform="translate(232.07 -1758.76)"/></g><g id="eye-2" data-name="eye"><path class="cls-1" d="M-156.24,1805c-4.48,0-8.11,2.69-8.11,6s3.63,6,8.11,6,8.11-2.69,8.11-6S-151.77,1805-156.24,1805Zm57.78,0c-4.48,0-8.11,2.69-8.11,6s3.63,6,8.11,6,8.11-2.69,8.11-6S-94,1805-98.46,1805Z" transform="translate(232.07 -1758.76)"/></g></svg>