<svg id="Layer_1" data-name="Layer 1" xmlns="http://www.w3.org/2000/svg" viewBox="0 0 198.09 196.67"><defs><style>.cls-1{fill:#1d2e2f;}.cls-1,.cls-2,.cls-3,.cls-4,.cls-5{fill-rule:evenodd;}.cls-2{fill:#f36611;}.cls-3{fill:#f4f4f4;}.cls-4{fill:#fff;}.cls-5{fill:#465657;}</style></defs><title>anim_20</title><g id="feet"><path class="cls-1" d="M542.15,1275.2c-10.14-2.21-8.25-7.06-10.7-.71a12.16,12.16,0,0,0-.51,1.7c-1.53,1.52-1.12,4.45,1.18,7.16,1.63,2.44,4.8,4.62,10.45,5.85,5.17,1.13,8.84-.19,11.37-2.11a14.94,14.94,0,0,0,5.64-8.22s-2.38-.41-8-1.13C549,1276.91,545.8,1276,542.15,1275.2Zm80.21,1a12.15,12.15,0,0,0-.51-1.7c-2.45-6.35-.56-1.5-10.7.71-3.66.8-6.83,1.7-9.41,2.54-5.64.72-8,1.13-8,1.13a14.94,14.94,0,0,0,5.64,8.22c2.53,1.92,6.2,3.24,11.37,2.11,5.65-1.23,8.82-3.41,10.45-5.85C623.47,1280.64,623.89,1277.71,622.36,1276.19Z" transform="translate(-478.1 -1092.95)"/></g><g id="ears"><path class="cls-1" d="M638,1094c-8-1.76-35,16.94-34.84,19.48,0.24,3.72-17.93,9,26.74,26.16S647.1,1096,638,1094Zm-121.64,0c-9.13,2-36.58,62.75,8.1,45.63s26.5-22.44,26.74-26.16C551.33,1110.9,524.33,1092.19,516.33,1094Z" transform="translate(-478.1 -1092.95)"/></g><g id="ears-2" data-name="ears"><path class="cls-2" d="M634,1100.57c-6.82-1.36-29.83,19.13-29.69,21.09,0.21,2.88-15.28,1,22.79,14.27S641.76,1102.12,634,1100.57Zm-84,21.09c0.14-2-22.87-22.46-29.69-21.09-7.78,1.56-31.17,48.64,6.9,35.37S549.8,1124.55,550,1121.66Z" transform="translate(-478.1 -1092.95)"/></g><g id="body"><path class="cls-1" d="M658.83,1182.06c-6.9-31.57-24.57-62.6-48.31-78.37-10.13-6.75-21.36-10.73-33.37-10.73h0c-12,0-23.23,4-33.37,10.73-23.74,15.77-41.41,46.8-48.31,78.37-9.22,8.71-18.59,34.46-17.23,44.58,1.33,9.93,11.11,14.07,16.29,6.42a83.38,83.38,0,0,0,2.63,9.9c9.52,28.3,44.75,41.29,80,40.43,35.25,0.86,70.48-12.13,80-40.43a83.37,83.37,0,0,0,2.63-9.89c5.17,7.65,15,3.51,16.29-6.42C677.42,1216.52,668,1190.77,658.83,1182.06Z" transform="translate(-478.1 -1092.95)"/></g><g id="stripe"><path class="cls-3" d="M659.22,1182.52c-16.06,15.92-46.78,26.69-82.08,26.69s-66-10.77-82.08-26.69a43.43,43.43,0,0,0-6.81,9.6c12.69,20.41,47.68,35.09,88.89,35.09s76.2-14.67,88.89-35.09A43.42,43.42,0,0,0,659.22,1182.52Z" transform="translate(-478.1 -1092.95)"/></g><g id="eye"><path class="cls-4" d="M604.15,1133.2c-7.18,0-13,4.92-13,11s5.82,11,13,11,13-4.92,13-11S611.33,1133.2,604.15,1133.2Zm-54,0c-7.18,0-13,4.92-13,11s5.82,11,13,11,13-4.92,13-11S557.33,1133.2,550.15,1133.2Z" transform="translate(-478.1 -1092.95)"/></g><g id="nose"><path class="cls-5" d="M583,1159.31a12.17,12.17,0,0,0-13.67,0c-10.48.37-18.16,2-18.16,8.9,0,5.38,4.72,12.62,11.8,17,2.54,5.93,7.5,10,13.2,10s10.66-4,13.2-10c7.09-4.42,11.8-11.66,11.8-17C601.15,1161.34,593.46,1159.68,583,1159.31Z" transform="translate(-478.1 -1092.95)"/></g><g id="eye-2" data-name="eye"><path class="cls-1" d="M552.15,1131.2c-5,0-9,4.48-9,10s4,10,9,10,9-4.48,9-10S557.12,1131.2,552.15,1131.2Zm50,0c-5,0-9,4.48-9,10s4,10,9,10,9-4.48,9-10S607.12,1131.2,602.15,1131.2Z" transform="translate(-478.1 -1092.95)"/></g><g id="nose-2" data-name="nose"><path class="cls-1" d="M593,1160.9c-2.72-4.45-9.78-4.36-17.35-4.36s-14.91-.34-17.35,4.36c-3.2,6.15,4,19.3,17.35,19.3S597.15,1167.62,593,1160.9Z" transform="translate(-478.1 -1092.95)"/></g></svg>