<svg xmlns="http://www.w3.org/2000/svg" xmlns:xlink="http://www.w3.org/1999/xlink" viewBox="0 0 271.05 248.29"><defs><style>.cls-1{fill:none;}.cls-2{isolation:isolate;}.cls-18,.cls-3{fill:#454544;}.cls-4,.cls-6{fill:#2f2c2f;}.cls-5{opacity:0.8;}.cls-10,.cls-11,.cls-12,.cls-25,.cls-28,.cls-29,.cls-34,.cls-35,.cls-36,.cls-6{opacity:0.5;}.cls-10,.cls-11,.cls-12,.cls-25,.cls-30,.cls-32,.cls-36,.cls-6{mix-blend-mode:multiply;}.cls-36,.cls-37,.cls-7{fill:#a1878b;}.cls-8{fill:#fff;}.cls-12,.cls-9{fill:#3f3c3f;}.cls-10,.cls-14,.cls-33,.cls-35{fill:#545054;}.cls-13,.cls-33{opacity:0.3;}.cls-13,.cls-18,.cls-19,.cls-26,.cls-28,.cls-29,.cls-31,.cls-33,.cls-34,.cls-35,.cls-37{mix-blend-mode:screen;}.cls-15{fill:#94888c;}.cls-16,.cls-31{fill:#b1525a;}.cls-17,.cls-29{fill:#c69794;}.cls-18,.cls-19,.cls-37{opacity:0.6;}.cls-19{fill:#707070;}.cls-20{fill:#4b4226;}.cls-21{fill:#71633d;}.cls-22{fill:#2f2a14;}.cls-23{clip-path:url(#clip-path);}.cls-24,.cls-25{fill:#36353b;}.cls-27,.cls-28{fill:#cbbdbd;}.cls-32{opacity:0.7;}</style><clipPath id="clip-path" transform="translate(701.83 -405.92)"><path class="cls-1" d="M-680.9,480.56c-1.83,5.3-11.89-11.25-8.34-17,7.28-11.89,7.8,16.39,8.34,17C-681.35,481.87-680.91,480.54-680.9,480.56Z"/></clipPath></defs><title>anim_83</title><g class="cls-2"><g id="Layer_1" data-name="Layer 1"><path class="cls-3" d="M-430.9,626.4c-2.81.49-5.35-.25-8.21,0.58,4.09-2.79-7.16-3.54-10-6.64-6-6.53-9.41-15.44-15.81-22-12-12.33-26.72-20.29-36.71-34.78a130.42,130.42,0,0,1-11.35-21c-2.8-6.26-5.07-18.85-9.85-23.6-11.49-11.43-19.77,13-14.12,22.13q-0.52-1.45-1.08-.76c10.89,11.84,21.63,24.8,21.92,41.78,0-.63,1.25-5.05,1.39-5.92,0.79,4.16.63,9,3.19,12.62q1.59-.76.41-2.9c2,14.72,13.58,30.78,25,40.57,9.07,7.76,29.66,16.1,41.4,9.56q0.34-.94-1.26-0.68c3-.22,16.27-5.46,8.83-4.82,0.66-.24,6.07-4.13,6.23-4.15h0Z" transform="translate(701.83 -405.92)"/><path class="cls-4" d="M-441.46,633.62c-1.72.62-6.5,1.83-8.14,1.51s4.52,0.48,4.16.92c-1.86,2.22-20.49-3.09-9.43.87-12.88.21-24.45-5.18-33.49-14.15-2.54-2.52-21.32-26.06-17.27-28.21q-2,2.37.31,5.9c-3.81-5.21-4.87-12-5.63-18.25q-3,.62-0.69,5.2c-2.15-3.81-1.89-8.46-2.9-12.59q-2.53.89-1.18,4.8c-0.59-10.12-5.3-20.07-11.47-28-3.35-4.28-8.15-8-10.1-13.19-2.29-6.12-1.58-17.26,5.41-20.2,8.14-3.43,10.26,5.36,12.62,11.23,7.47,18.56,15.36,37,30.74,50.44s29.67,23.34,39.75,42a13.37,13.37,0,0,1-3.45-3.87c2.76,4.81,7.58,9.69,14.21,7.26-0.28,1.44-2.44,2-3.54,2.41a3,3,0,0,1,0,.47,62.82,62.82,0,0,1,9.43-1c-2.39,1.67-12,4.07-3.6,3.9a27.65,27.65,0,0,1-5.72,2.48h0Z" transform="translate(701.83 -405.92)"/><g class="cls-5"><path class="cls-6" d="M-453.37,623.91c-1,5.65-6.41-4.86-6.66-5.41q0.73,3-1.4,3.82a11.59,11.59,0,0,1-4.37-6.25q0.1,2.73-1.94,3.09a7.1,7.1,0,0,1-1.63-4.38c-0.36,1.13-.88,2.29-1.67.74a1.09,1.09,0,0,1-1.06,1.13,11.8,11.8,0,0,1-2.69-5.64c-1.7,7-3.83-1.79-4-3.36-2.65,4.14-2.89,1-3.23-2.4-2.85,5.7-1.87-3.29-1.85-4.27-3,3.38-4.24-.46-4.44-3.26a1.61,1.61,0,0,1-1.58,1.48c-2.62-2.12-6.69-6.91-6.52-12.05-3.37,6-3.55-3.15-3.45-4.62-2,2.19-1.49-2-1.17-3.18q-0.63,1.35-1.7.83a6.88,6.88,0,0,1,1.71-4.33c-3.08.22-4.47-6.37,0.69-5.67-3-3.58-3.47-8-5.91-12.19a165.32,165.32,0,0,1-9.38-19.38c-2.92-7-7.88-29.27-18.92-18.23-7.49,7.48-3.28,18.48,2.19,25.35,8.12,10.19,15.82,20.1,16.62,33.88q-1.35-3.9,1.18-4.8c1,4.12.75,8.78,2.9,12.59q-2.3-4.59.69-5.2c0.76,6.24,1.82,13,5.63,18.25q-2.36-3.53-.31-5.9c-4.17,2.22,15,26,17.27,28.21,9,9,20.63,14.35,33.49,14.15-11.06-4,7.57,1.35,9.43-.87,0.36-.43-5.83-1.31-4.16-0.92,3.59,0.7,10.6-1.86,13.86-4-7.88.16-.13-1.47,2.25-3-6.5,1.26-15.45,1.8-19.88-4.24C-453.51,624.64-450.16,628.29-453.37,623.91Z" transform="translate(701.83 -405.92)"/></g><path class="cls-3" d="M-561.11,586.71c-0.75-10.53-2.64-23.93-8.81-32.84q-1.12.73,0.6,2.17c-8.72-11.43-19.22-3.36-23.6,7.25-3.88,9.39.37,14.36,1.33,21.52,5.52,9.85,12.71,21.46,12.2,33.29-0.21,4.81-1.62,6.49-4.43,10.48-0.5.71-7.84,11.43-.21,6-0.87,3,1.36,3.79,3.48,2-0.52,3.36,2.37,2.2,3.69.66-1,5.92,8-4.71,7.43-4.13,2.9,12.45,5-12.66,5.56-15,2.32-10.53,3.52-20.54,2.75-31.37C-561.52,580.91-560.31,598-561.11,586.71Z" transform="translate(701.83 -405.92)"/><path class="cls-7" d="M-584.94,634.39c-4.71,2.09-.21-7.95,4.66-5.22-1.78,1.43-2.61,4.32-4.66,5.22h0Z" transform="translate(701.83 -405.92)"/><path class="cls-7" d="M-580.4,635.81l-1.81.94c0.06,0-1.28-9.25,4.36-6a13.07,13.07,0,0,0-2.56,5.1C-581.48,636.6-580.21,635-580.4,635.81Z" transform="translate(701.83 -405.92)"/><path class="cls-7" d="M-576.42,635.69c-1.12,2.7-3.53,2.85-2.75-.67,0.95-4.28,6.31-7.67,2.75.67h0Z" transform="translate(701.83 -405.92)"/><path class="cls-7" d="M-571,634.11a14.82,14.82,0,0,1-4.44,3.95c-0.07,0,.3-6.06,2.22-6.37,1.53-.25,3.55,1,2.22,2.42C-572,635.16-570.77,633.87-571,634.11Z" transform="translate(701.83 -405.92)"/><path class="cls-7" d="M-566.66,635.55c-1.68,3-2-4-2.72-3.26a2.94,2.94,0,0,1,3.51-.9l-0.79,4.16h0Z" transform="translate(701.83 -405.92)"/><path class="cls-4" d="M-566.14,624.55c-1.58,6.65,2.29,4.69-2.85,7-2.21,1-5,.66-3.25-1.84-2.11,3-2.17-.67-5,0.82q-0.53-.56.83-1.22c-1.63,2-1.82-.95-4,0.32-0.51.62,1.1-1,1.17-.94-1,0-1.42-1-2.78-.81,9.79-7.3-.23-27.93-4.79-35.81-6.74-11.66-13-30.11,2.64-39.17,15.25-8.84,19.85,17.56,21.16,26.87,2.17,15.29.4,30-3.11,44.82C-566.55,626.28-565.9,623.54-566.14,624.55Z" transform="translate(701.83 -405.92)"/><path class="cls-6" d="M-569.38,623.81c-4.37,3.88-1.15-4.61-.7-5.39a1.44,1.44,0,0,1-1.6.57c-1-.92,1.39-11.41,2.07-13-2.48,3.49,1.18-7.45.94-7-3.84,1.71-.43-5.74-0.23-6.33a1.41,1.41,0,0,1-1.61.5,7.08,7.08,0,0,1,2.08-4.25c-1.17.74-1.62-9.18,0.47-6.79-0.06-3.78,1.17-7.11,4.77-3.74C-564.5,570-567,550.5-579.31,551c-9.5.41-15.17,14.93-15.08,22.65,0.16,13.58,28.46,42.14,12.36,54.15,1.37-.22,1.79.8,2.78,0.81-0.07-.09-1.69,1.56-1.17.94,2.22-1.27,2.41,1.72,4-.32q-1.36.66-.83,1.22c2.56-1.36,3.12,1.82,5-.82-1.77,2.5,1,2.81,3.25,1.84,5.14-2.26,1.27-.3,2.85-7-1,2.71-3.39,3.06-3.24-.74C-571.49,625.68-569.61,629.66-569.38,623.81Z" transform="translate(701.83 -405.92)"/><path class="cls-3" d="M-508.16,532.33c1.74-1-1.72-6.91-2.06-7.36a1.36,1.36,0,0,0,1.69.19c-0.66.86-4.85-10-5.18-11-2.77-8.38-5.09-16.72-8.82-24.77-6.65-14.37-15.91-27.82-29.51-36.21,2.71,0.9-4.73-5.38-1.45-3.09a30.54,30.54,0,0,0-11.71-4.52c1.55-.61,5.93-1-1-2.11-0.2,0,3.47.48,2.57-.52-11.7-13-40.34-13-53.66-5,0.38-.23-1.14,2.53-3,3.62-3.25,1.93-7.42,2.79-10.84,4.5-8.57,4.27-15.28,10.86-23.35,15.79,0.35-.76,6.27-5.29,6.23-6.09s-14.12,7.59-14.54,7.9c-5.36,4-9.37,8.58-14,13.34q0.93-2.31,1.74-4.67c-0.28,1.29-8.08,8.51-9.28,10.57s-4.05,11.63-8,10.34a24.15,24.15,0,0,0,3-.18c0.06,0.08-3.37,4.74-3.4,4.82-0.14.36,2.34-1.08,2.48-1.26a11.12,11.12,0,0,0-2.5,3.71c-0.2.5,1.77-.65,1.76-0.69,0.1,0.26-2.42,4.64-.87,3.19,0.33-.72-3.85,8.24-2.7,8a2.45,2.45,0,0,0,1.28-1.6c-6.71,26.68,1.61,57.89,9.32,83.44,3.67,12.16,11.09,26.54,11.58,39.3,0.22,5.76-2.16,4.73-3.55,8,0.16-.39-5.6,6.74-0.63,4.84-2.07,3,3.65,1.33,4.6.68a2,2,0,0,0-.08,2.29c1,0.83,4.27-2.25,4.77-2.59a3.27,3.27,0,0,0,0,2.21c2.53,3.45,7.74-6.7,8.08-8.43,1.38-7.12-2.88-17.56-3.12-25.14a108.75,108.75,0,0,1,2.41-28.72c0.61-2.56,2.83-12.32,2.55-12.11,0-.07,6.48-8.72,2.78-6.8,1.11-1.5,3-4.55,5-4.68a1,1,0,0,0-.64,1.39,14.12,14.12,0,0,0,7.71-1.64c-2.11,2.56,2.56-.2,3.19-0.49-1.19,1.89-.8,2.09.95,0.67-0.77,2.51.39,1.06,2.47,0a8.64,8.64,0,0,0,.68,5.55q2.07,0.15,2.39-2.68c10.41,17.65,19.49,34.18,24.18,54.39,1.53,6.6,5.74,17.08,1,21.75,0.6-.6-16.13,8.07-7.58,5.73a5.24,5.24,0,0,0-2.23,3.66c0,0.81,10.14-2.92,8.73-2.38a5.34,5.34,0,0,0-1.09,5.85c1.26,1.2,5.73-3.79,6.09-4.15a4.5,4.5,0,0,0-.18,4.67c2.21,1.78,6.6-4.73,7.45-5.93-2.79,9.82,5.09,1.5,6.26-3.58,1.64-7.11,1.66-14.15,3.76-21.42,5.21-18.05,12.37-35.47,17.4-53.59a9.34,9.34,0,0,0,3.52,4.24q1.57-.84-0.07-2.65s5.94,7.47,4.6,3.57c0,0,4.15,4.26,3,.81,12.94,12.88,20.42,29.72,20.14,48-0.07,4.49.57,10.05-2.46,13.49-0.51.58-13.39,5.12-10.21,7.86a4,4,0,0,0,3.49-.83,3.3,3.3,0,0,0-1,4c1.89,1.33,6.21-2.59,7.3-3.32-3.87,5.22-.32,6.69,3.39,2a2.87,2.87,0,0,0,.43,3.15,5.24,5.24,0,0,0,4.68-3.88c0,7.48,4.19-.88,4.8-3.23,1.59-6.11.18-13.7,1.92-20.4,4.43-17,12.7-32.67,12.57-50.57,1.69,3,1.73-5.8,1.6-6.55s1.94-9.6,1.65-12.38c0.86,1.47,1.37-10.17,1.08-11.49,0.9,2,.54-4.8.5-4.93,2.78,2.88-.66-4.63-0.21-3.95C-508,532.22-507.38,533.52-508.16,532.33Z" transform="translate(701.83 -405.92)"/><path class="cls-7" d="M-677.28,641a22.9,22.9,0,0,1,3.23-1.31c1,0.61-5.06,4.49-3.55,3-0.88,0,.55-1.91.33-1.65h0Z" transform="translate(701.83 -405.92)"/><path class="cls-7" d="M-677.59,644.33c-2.48-.77,7.62-4.15,4.42-3.43,2.06,0.51-3.28,3.77-4.42,3.43C-678.52,644-677,644.5-677.59,644.33Z" transform="translate(701.83 -405.92)"/><path class="cls-7" d="M-671.74,645.07c0.57-.24-4,1.74-4.47.83-0.89-1.68,5.13-5.38,6.58-3.41l-2.1,2.58C-672.63,645.44-671.24,644.08-671.74,645.07Z" transform="translate(701.83 -405.92)"/><path class="cls-7" d="M-669.22,646.06q-1.19,1.64-2.09.2c0.68-3,2.58-4.79,5-2.91a4.17,4.17,0,0,1-2.88,2.7h0Z" transform="translate(701.83 -405.92)"/><path class="cls-7" d="M-662.84,644.34c1.73-1.31-3.36,3.29-3.62,2.07-1.28-5.9,5.74-3.67,3.62-2.07h0Z" transform="translate(701.83 -405.92)"/><path class="cls-8" d="M-606.07,640.45l-1.45,1.26-0.32-.49,1.77-.77C-606.45,640.93-606.59,640.79-606.07,640.45Z" transform="translate(701.83 -405.92)"/><path class="cls-7" d="M-615,643.64c1.9-1.4,4.44-1.75,6.68-2.28L-608,642c-0.19.1-8.48,4.41-8.2,3l1.17-1.38h0Z" transform="translate(701.83 -405.92)"/><path class="cls-7" d="M-615.22,649c-1.38.5,3.46-6.41,7.12-6.12,6.12,0.48-7.5,6.26-7.12,6.12h0Z" transform="translate(701.83 -405.92)"/><path class="cls-7" d="M-606.82,651.35a2.13,2.13,0,0,1-2,.94c-4.55-7.22,16.67-12,2-.94h0Z" transform="translate(701.83 -405.92)"/><path class="cls-7" d="M-596,646.71c-0.83,1.13-4.44,6.4-6.54,6.33-1.59-.06.68-6.24,1.21-6.69,1.05-.89,6.47-1.12,5.33.36C-597.44,648.73-595.94,646.68-596,646.71Z" transform="translate(701.83 -405.92)"/><path class="cls-7" d="M-592.67,649.72q-0.59,3.37-3,2.6c-1.34-3.33.19-9,4.28-6.49l-1.32,3.89h0Z" transform="translate(701.83 -405.92)"/><path class="cls-7" d="M-547.62,643.79q-1.43,1.19-2.16-.18c0.93-1.93,3.84-3.75,5.73-4.54a1.68,1.68,0,0,1,1,1.16,8.76,8.76,0,0,1-4.59,3.56h0Z" transform="translate(701.83 -405.92)"/><path class="cls-7" d="M-543.56,646.14q-1.89,1.83-3.59.49c0.22-7.27,12.61-5.94,3.59-.49h0Z" transform="translate(701.83 -405.92)"/><path class="cls-7" d="M-536.45,644.07c-0.65,1.09-3.07,5.69-4.63,4.77-4.11-2.41,5.82-8,4.63-4.77C-536.48,644.13-536.4,643.94-536.45,644.07Z" transform="translate(701.83 -405.92)"/><path class="cls-7" d="M-532,644.57c0.22-.29-3.6,5.51-4.16,3.87-1.59-4.7,4.51-6.52,4.16-3.87C-533,646-532,644.41-532,644.57Z" transform="translate(701.83 -405.92)"/><path class="cls-7" d="M-530.19,647.76c-2-1.72-1.13-6.28,2.1-5,0-.18-1,5.93-2.1,5h0Z" transform="translate(701.83 -405.92)"/><path class="cls-9" d="M-509.77,534.58a8.6,8.6,0,0,1,1.62,5.78c-2.8-5.74-.78,9.08-1,10.82q0.08-3-1.92-2.95c0.23-.17.51,11.51,0.25,12.73-3.07-9.62-.76,4.8-0.71,6.22-2.43-3.57-.61.8-0.67,3.67q0-1.29-1-1.23c-1.18.9-1.61,14.89-2.23,17.57a204.91,204.91,0,0,1-6.64,21.3c-2.37,6.77-4.91,13.62-6.06,20.73-0.27,1.69-.27,10.64-0.13,9,0.8,7.64-.31.74-2.85,5,0.11-1.21-2.13-2-4.28-.31,1.14-3.14-4.65,1.92-1.91-1.67-2.88,3.75-1.74-1.63-4.9-.87q1.78,0.08,1.82-1c-4.43.55-.82,0.69-3.14-0.41,10.22-3.62,7.45-19.93,5.52-29.48-2.83-14-10.27-26.27-20.83-35.89q-1.39.73,0.28,2.2c-4-3.21-4.16-4.66-2.81-.86q-2.27-2.54-4.64-5-1.35.82,0.22,2.58c-6.64-4.81,3-29,4.17-36.27,2.07-12.36,5.23-25.81.64-37.94,1.07,1,.07-8-1.82-10.21,5.19,2.43-1.87-5-2.45-5.74,0.81,1,2.55,4.08,3.35,5.37q-1.75-2-2.66-.37a16.87,16.87,0,0,1,3.44,4.87q-1-1.32-2.08-.69-0.47,2.08,2.18,3.31-1-1.57-2.21-.87c-0.28.31,3.43,21.44,3,25.15a319.62,319.62,0,0,1-8.63,45.6c-7,27.23-17.06,52.9-22.39,80.44-0.18-.32-13.22-1.46-13.71-1.31,1.05-1.05-1-.62-2.55-1.15,8.69-4.65-2.45-33.84-4.78-40.62a138.45,138.45,0,0,0-10.94-24.41c-2.68-4.62-7.28-17.25-11.35-11.6-1.3-3,1.54-7.38-3.13-4.18,0.69-2-.27-1.34-1.25-0.55q1-.66.33-1.3a41.43,41.43,0,0,0-3.89,1.88q1.51-.41,1-1.49a18.85,18.85,0,0,1-8,2,1.18,1.18,0,0,0,.79-1.48c-1.78.07-4,.61-5.89,0.41a8.67,8.67,0,0,0,4.37-3.1c-1.14,1.88-11.17,4.65-.72,3.55a49.73,49.73,0,0,0-5,5.47q0.6,1,1.49-.3-2.12,3.9-4.54,7.62,0.74,0.84,1.32-.43c4.6-8.92-3.78,8.05-1.18,4.11A103.47,103.47,0,0,0-662.7,621c0.64,6,5.3,17.38,1.19,22.06-0.62-2.38-3-.4-3-1.94-0.2,3.49-8.25-.91-9.12-0.64,7.18-14.87-8.12-43.42-12.36-59a232.08,232.08,0,0,1-7.59-42.28c-0.3-3.66-2.45-31.77,1.46-32.62a3.51,3.51,0,0,0-1.72,2.33c0.17-.72,3.63-13.61,1.83-9.06q3.76-1.82,2.24-3.74a5.6,5.6,0,0,0-2.3,1.38c3.64-2.87,5.62-4.57,1-4.54,3.28-1.33,4.44-6.09,4.81-1.7-0.39-5.87,5.91-13.16,10-17.38-3.92,10,3.74-.77,6.43-3.36a68.34,68.34,0,0,1,18.39-12.89,10.55,10.55,0,0,0-4.23,5.27c1-3.27,20.09-13.58,24-15.54s9.2-3,12.82-5.29,2-3.43,4.43-5c12.89-8.29,37.8-3.55,49.48,6-4.34.18-.82,1.17,1,1.95q-2.08-.34-2,1c4.2,0.84,11.07,2.36,13.62,6.39a2,2,0,0,1-1.91-.54s0,0-.07,0c10.36,2.41,22.2,21.47,27.33,30.91a131.12,131.12,0,0,1,8.92,20.59c2,6,2.64,16.05,7.34,20.72-2.21-.81,2,6.83,2.05,7.57-5.11-7.19.1,1.63,0.67,3.13,1.24,1.11-3.62-2.42-1.79-.15C-508.57,536-510,534.27-509.77,534.58Z" transform="translate(701.83 -405.92)"/><path class="cls-3" d="M-559.4,504.29c-2.85,4.06-31,7.28-37.81,9.64,1.74-2.12-13.34,3.85-15.21,4.55q1.8-.81,1-2c-4.59,1.06-10,4.34-13.67,7.35,0.75-1.07-7.88,4.06-9,5.07-0.83,1.23-8.06,5.1-10.22,8.2,0.08-1.88.53-.78,0.7-2.84-0.32,4.55-4.85,1.32-5.68.9s0,1.65,0,1.65c-0.6-.61-4-4.69-3-1.83-0.86-.9-8-6.56-5.18-1.88-0.77-1.27-6.55-5.85-4.57-2.49,0.14,0.08-6.89-3.4-5.93-1.14-1-.53-9.55-4.91-9-3.92,1.57,1-5.89-5.72-3.85-1.78,0,0-5.55-4.79-3.6-1.91-3.57-2.36-6.83-3.31-9.84-6.33,0.73,0.76-.93,11.94-0.93,13.38,0,5.66.17,8.23,3.37,11.76q1-.54,0-1.72a21.05,21.05,0,0,0,3.82,4.79q1.38-.72-0.07-2.28c3,3.31,2.48,1.74,1.78-1,1.33,1.22,11.85,9.6,8.43,4.89,0.86,0.62,8.66,6.87,4.53,2.05,1.05,0.58,13.4,8,7.31,2,0.87,0.27,9.88,5.54,10.53,4.83q0.32-1.15-1.33-1.46c4.85,2.22,9,6.51,13.92,5.8,1.25-.18,10-6.59,10.25-5.78-5.44,8.2,13.72-6.56,13.27-5.16q-0.59,1-1.27,2c0.84-1.81,11.67-5.38,14.51-6.74-0.26.14-1.1,2.38-.66,2.15,3.58-1.84,7-4.19,10.76-5.67q-2.37,1.07-1.22,2.31c-2,.63,7.78-3.17,7.72-3.08q-1.21.64-.6,1.5c3.14-.46,5.86-2.6,8.57-4.06q-1.89.69-1.34,2.05a20.3,20.3,0,0,0,5.69-2.79c-0.18.11-1.09,1.84-.7,1.66a24.05,24.05,0,0,0,5.89-3.4c0,0.12-.63,1.38-0.64,1.38a18.66,18.66,0,0,0,6.64-3.85c-1.25,3.41,3.73-2.42,3.57-2.26a24.72,24.72,0,0,0,.38,3.48c-0.45-1.73,2.68-9.36,3-12.06a67.06,67.06,0,0,0-.4-16.08C-559.31,504.16-558.88,508.85-559.4,504.29Z" transform="translate(701.83 -405.92)"/><path class="cls-8" d="M-559.21,517.37a61.75,61.75,0,0,1-2.52,13.89c-0.52-4.55.7-3.76-3.73,0.07,1-2.94-5.55,2.53-6.34,2.89q1.44-1.4.19-1.48a18.21,18.21,0,0,1-5.37,3.37c3.46-4.14-3.9.85-4.77,1.15,4.29-4.48-6.17,1.77-7.5,2.09q2-1,1.08-2.09-4.15,1.63-8.17,3.54,2.2-1,1.15-2.21c-3.71,1.23-7.06,3.43-10.48,5.27q1.58-.91.74-1.82c-4.8,1.2-10.19,4.22-14.38,6.77q2.37-1.13,1.3-2.36c-5.16,1-11,5.43-15.28,8.2a9.45,9.45,0,0,0,1.76-3c0.09-.6-11.45,7-12.81,7.19-2.3.28-15.4-7.71-14.52-6.82a23.31,23.31,0,0,0-7.94-3.39q-1.05.93,0.7,1.66c0.12,0.06-11-6.43-8.29-3.14-0.63-.47-7-5.56-3.49-0.85a38.19,38.19,0,0,1-8.55-6.64q-1.41.71,0.09,2.6c-2-1.79-3.4-3.64-2.1.08a32.71,32.71,0,0,1-3.66-4.92q-1.24.55,0,2.06c4.38,5.45-2-4.8-2.24-2.8-0.64-4.63-1.9-16,.3-20.35,3,3.14,7.15,4.09,10.47,6.73q1.12-.58-0.42-1.57c0.59,0.28,5.42,5.47,3.6,1.91,0.42,0.37,5.89,5.34,4,2a90.38,90.38,0,0,1,15,6.06q0.92-.58-0.32-1.43c4.09,2.08,4.83,3.1,7.18,4.66q0.93-.86-0.95-1.84c0.93,0.63,4.69,5,3.54,1.7,1.69,1.21,3.35,4.46,3,1.76-0.44-.48,2,2.77,1.46,2.77-1.73,0,11.52-10.61,3.37-4.17a17.46,17.46,0,0,1-.65,3c0,0.23,4-4.08,3.93-4-1.14,3.65,5.06-3.87,5.57-4.25q-1.29,1.18,0,1.4a29.39,29.39,0,0,1,9.17-6.92q-1.88,1.15-1.12,2.49c2,0.14,11.75-8.22,14.79-9.15q-2.09.81-1.21,2.16c5.26-1.76,10.11-4.62,15.55-5.86-2.57,3.19,12.87-2.6,14.36-3,6-1.54,19.65-1.21,24.06-6.19,0,4.24.65,8.46,0.49,12.71C-559.39,522.08-559,513.12-559.21,517.37Z" transform="translate(701.83 -405.92)"/><path class="cls-10" d="M-511.2,559.87c0.77,2.1.85-.15,0,0C-511.06,560.23-511,559.84-511.2,559.87Z" transform="translate(701.83 -405.92)"/><g class="cls-11"><path class="cls-9" d="M-511.8,562.14c0.09,0.11-4.15-4.66-4.05-7.63-4.17,1.79-1.44-12.94-.83-14.2-4.81,3.6-4.19-1.76-5.16-5.28-1.64,3.69-2.83-1.87-2.82-2.72-4.09,3.79-5.24.42-4.2-4-4,1.64-1.47-5-1.17-5.76-3.55,1.81-3.59-1.11-2.22-3.72-1,.7-5.11,1.84-6.15.24q0.54-2.7,3.84-2.88c-1.68-.24-6-1.46-6.82-3.4q0.68-2.51,3.85-1.55c-0.55-.1-6.3-1.1-6.18-2.92a5.41,5.41,0,0,1,4.86-2c-4.28-.71-9.36-2.73-5.28-7.26a10.77,10.77,0,0,1-5.29-1c-0.66-.75,2.67-1.55,3-1.66-0.56-.39-4.57-2.23-4.44-3.51a6.17,6.17,0,0,1,4.77-2.42c-1.3-.22-4.14-1-4.92-2.23q0.34-2.27,3.27-1.73c-2.24-.4-10.69-2.58-4-5-5.26-1.75-1.22-1.19-1.32-2.64-1.89-.38-9-3.56-3-4.62,0.26,0-3.91.37-3.85,0a11.5,11.5,0,0,1,3.85-2.64c-4.41,1-11.22,2.72-7.26-4.62-1.81,2.17-2.83-.42-4.29-0.65-0.93,6-3.37,2.8-4.29-1.65,0,0.13-2.3,5.58-2.41,5.3-0.74-1.91,0-6.76.1-8.27-2.08,6.24-4.48-.8-3.3-4.62-1.15,0-2.21,1.87-3.35,1.71a5.86,5.86,0,0,1,2.36-3.69c-0.1,0-4.71,2.68-5.37,2.07a5.5,5.5,0,0,1,2.07-3.72q-2.77,1.7-4-.54a9.27,9.27,0,0,1,5.36-3.75c-3.78-.47-1.53-2.45.66-3.63-0.38,0-3.72-.76-3.07-2.07a4.17,4.17,0,0,1,4.05-.24c-2.4-1.44-3.79-3,.33-1.65-1.64-1.53-3.63-4.32-.44-5.43a53.39,53.39,0,0,0-27.24-1.9c-1.62.32-5.24,1-6.69,1.91-6,3.73.1,2-3.87,4.79-5.53,3.91-13.42,5.28-19.38,8.8-3.19,1.89-18.82,10.44-19.63,13.07a10.55,10.55,0,0,1,4.23-5.27,68.37,68.37,0,0,0-18.39,12.89c-2.33,2.23-10.58,13.95-6.43,3.36-4.11,4.24-10.38,11.53-10,17.38-0.37-4.39-1.53.37-4.81,1.7,4.65,0,2.67,1.66-1,4.54a5.6,5.6,0,0,1,2.3-1.38q1.52,1.92-2.24,3.74c1.91-4.83-1.78,8.86-1.83,9.06a3.51,3.51,0,0,1,1.72-2.33c-5.12,1.12-1.1,37.2-.57,41.61-0.13-2,1.21-25.76,3.38-23.59a4.54,4.54,0,0,1,0,2.86c0.1-.42,3.75-9.57,4.62-7.71,0.46,1-.25,2.87-0.55,3.86,2.21-3.37,11.59-7.8,14.25-2.39,0.1,0.21-3.94.6-4,.65,5,1.94,10.09,6.53,11.33,12-2.26-2-4.56-4-7-5.88,4.87,6.25,10.38,15.9,8.55,24.2,0.27-1.24-2.88-5.8-2.62-6.54-1.87,5.31,5.56,15.46-.09,20.29-0.6.51-1.06-5-1-4.84,0.35,2.77-5.21,24.31-3.47,25.39a4.76,4.76,0,0,0-1.08-1.42c-0.68,1.07,2.4,19.78,1.93,19.56s-2.3-4.25-2.3-4.23c-2.74,8.13,4.14,19.69,5.67,27.51,0.36,1.84,2,8.31.23,10.25s-6.46,3.59-6.51-1c-0.41,1.44-1.61,2.12-2.2,3.34,1-.3,8.91,4.27,9.12.64-0.06,1.54,2.36-.43,3,1.94,4.17-4.74-.55-16.15-1.19-22.06a103.63,103.63,0,0,1,3.93-42.85c-2.6,3.94,5.78-13,1.18-4.11q-0.58,1.27-1.32.43,2.43-3.72,4.54-7.62-0.88,1.28-1.49.3a49.73,49.73,0,0,1,5-5.47c-10.46,1.11-.42-1.67.72-3.55a8.67,8.67,0,0,1-4.37,3.1c1.89,0.2,4.11-.34,5.89-0.41a1.18,1.18,0,0,1-.79,1.48,18.85,18.85,0,0,0,8-2q0.48,1.08-1,1.49a41.43,41.43,0,0,1,3.89-1.88q0.67,0.64-.33,1.3c1-.79,1.95-1.45,1.25.55,4.67-3.2,1.83,1.16,3.13,4.18,3.44-4.79,2.77-1.34,5.67,2.65a103.5,103.5,0,0,1,7.75,12.65c-1.41-3.78-2.74-7.59-4.06-11.4-0.66-1.92-4.15-18.14-5.69-19,1.87,1,2.43,6.74,4.22,7.11-4.89-1-.13-20.94-0.3-23.11,0.15,1.87-1.47,4.84-.43,6.57-2.82-4.71,10.82-23.3,10.4-24,0.69,1.08-2.06,4.53-2.06,5.88,0-2.62,11.84-16.72,15.21-15.7,0.72,0.22-2.42,4.71-2.42,5.41,0-6.57,13.82-6.07,15.42-7.66-1,1-3.67,1.39-4.3,2.67,0.25-.49,9-0.86,9.52-0.82,2.7,0.2,10.55,5.37,10.51,5.37-1.89.3-4.08-1.88-5.85-2.33,3.27,0.81,11.17,16.24,7.07,17.67-0.78.27-2.2-6.62-2.34-7.39,0.19,3.43-3.35,26.93-3.55,26.76-1.05-.94-1.18-4.57-1.17-5.91,0.16,3.69-2.5,18.88-1.55,20.36-0.86-1.35-.88-3.79-0.95-5.35,0.13,3,2.2,23.47-.91,24.33-0.82.23-1.26-4.06-1.32-4.59-0.49,3.73-.94,7.55-1.77,11.22-0.2.89-2.1,10-3.23,6,0,0.46-2.74,13-3.33,10,1.82,8.38-.15,19.51-1.94,27.79-1.23,5.68-5.43,14.18-8.86,3.94,0.34,3.4.53,5.3-2.63,7.4,1.66,0.57,3.23.47,2.55,1.15,0.47-.14,13.56,1,13.71,1.31,5.33-27.53,15.37-53.21,22.39-80.44a341.25,341.25,0,0,0,8.36-43.26c0.71-5.78,1.23-11.63.07-17.39-0.21-1-3.28-9.59-2.83-10.09q1.24-.7,2.21.87-2.65-1.22-2.18-3.31,1.12-.63,2.08.69a16.87,16.87,0,0,0-3.44-4.87q0.91-1.65,2.66.37c-0.8-1.28-2.55-4.32-3.35-5.37,0.58,0.76,7.64,8.18,2.45,5.74,1.89,2.18,2.88,11.19,1.82,10.21,4.58,12.12,1.42,25.6-.64,37.94-1.27,7.61-10.86,31.43-4.17,36.27q-1.57-1.75-.22-2.58,2.37,2.46,4.64,5c-1.34-3.8-1.17-2.35,2.81.86q-1.67-1.46-.28-2.2c10.55,9.62,18,21.85,20.83,35.89,1.94,9.63,4.66,25.87-5.52,29.48,2.32,1.1-1.29,1,3.14.41q0,1.12-1.82,1c3.17-.76,2,4.62,4.9.87-2.54,3.33,2.89-1,1.91,1.67,2.24-1.76,4.43-1.37,4.28.31,2.54-4.22,3.66,2.68,2.85-5a144.3,144.3,0,0,1,6.2-29.72c2.2-6.29,4.48-12.55,6.1-19,0.94-3.74.82-18.37,2.77-19.85q1-.06,1,1.23c0.05-2.87-1.77-7.24.67-3.67q-2.65-3.46-.27-5h0Z" transform="translate(701.83 -405.92)"/></g><path class="cls-12" d="M-687.3,499.89l0.08,1.76q1.6-.24,3.18-0.56c-3.28,4.17-.92,2,0.68,1a4.58,4.58,0,0,0-.6,4.08,1.16,1.16,0,0,0,1.46-.81c0-1.13.82,5.78,1.72,2.23,0.53,4.13,3.5,3.37,6,5.35,3.06,2.45,2.22-.53,4.69,3.32a1,1,0,0,0,1.35-.78c1.63,7.16,18.87,2.53,22.32-.17,0,4.13,2.81-.35,3.6-1.37,0.18,3.59,2.67-.27,3.26-1,0.46,4.15,2.58-2.25,2.58-2.23,0.27,2.74,2.1-.9,2.23-1.54-1,4.11,6.24-1.17,7-1.89-0.44,2.64,5.83-.76,4.6-0.13q1-1,2.1-1.93c-0.4,3.3,12-3.5,13.73-7.21q-1.84,2.1-.35,3.1a10.25,10.25,0,0,0,2.24-4.48c0.19,5.91,6.83-4.33,7-6.18,0.81,4.61,1.75-3.25,1.72-2.57,1.75,4.68,3.07-5.91,3.26-7,2.34,3.71,3.07-6.8,3.09-7.38,2.59,3.88,1.27-2.76.69-3.78,2.42,2.07.7-4.18,0.52-4.81,2.92,3.61.27-4.83-.17-5.67,3.65,2.78.9-3.36,1-4.41C-588,451.62-587,451-586.7,447c0.45,1,3.53-8,3.18-9.32-1.82-6.9-21.12-5.18-27.56-1.85-5.8,3-10.52,6.71-18.53,10.48a95.36,95.36,0,0,0-14.84,9c-1.26.9-11.17,7.27-11.25,7.56a10.55,10.55,0,0,1,4.23-5.27,68.37,68.37,0,0,0-18.39,12.89c-2.33,2.23-10.58,13.95-6.43,3.36-4.11,4.24-10.38,11.53-10,17.38-0.37-4.39-1.53.37-4.81,1.7,4.65,0,2.67,1.66-1,4.54a5.6,5.6,0,0,1,2.3-1.38q1.26,1.53-1.81,2.89c4.43-.47,1.65,2.81,4.26.95C-688.51,503.32-688.51,500.75-687.3,499.89Z" transform="translate(701.83 -405.92)"/><path class="cls-3" d="M-584.54,430.84c1.43-8.9,3.45-19.95-7.31-20-9.39,0-21.94,5-29.19,10.84,1.22,0-4.93-1.82-2.27-1.58q1.44,0.46,1.79-.75a15.5,15.5,0,0,0-8.78-1.07q2.49,0.45,3.06-1.28a5.79,5.79,0,0,0-5-.33s1.92-1.33,1.61-1.37a21.49,21.49,0,0,0-5.81.58,14.37,14.37,0,0,0,2.53-2.06c-3.14-.26-5.54,1.41-8.45,1.75,0.25,0,3.23-2.83,2.87-2.83a17,17,0,0,0-8.54,2.2c2.86-2.89-2.27-.45-3.78.34q1.72-.92,1-2.09a9,9,0,0,0-6,3.78c1.57-7-2.64-2.38-4.19.59-0.1-5.59-2.63-1.09-2.68,1.7-10.54-13.85,1.46,1.81-2.56-.23-0.12-.06-2-0.17-1.64.39-7.74-9.55-32.33-23.39-33.9-2.83-0.65,8.49,1.77,17.19,5.37,24.78-0.3-.64,4.82,9.42,4.87,8.5-0.17,3-7.83,9-2.09,6.39a11.32,11.32,0,0,0-2.15,4.48c-0.21.85,2.42-1.33,2.16-1.13-2,1.57-4.35,9.29-3.42,12.13a1.54,1.54,0,0,0,1.69-1.16c-1.28,4.1.39,3.56,1,5.21a1.18,1.18,0,0,0,1.33-1.09c-1.45,4.12-2.31,9-.53,13.14q1.49-.2,1.33-2.12c-0.08.7,1,8.05,2.09,4.19,1.73,5.66,6.54,7.74,9.3,11.49,4.67,6.34,6,9.7,14,13,14,5.78,30.89-5.49,42.78-12.81a6.93,6.93,0,0,0-1.95,2.55c0,0.58,4-1.4,4.44-1.74a0.94,0.94,0,0,0-.78,1.2c6.28,0.27,14.27-6.75,17.69-11.87q-1.07,1.28-.25,2.24c2.48,0,5-6.43,5.57-8.19,0,1.1,5.58-10.21,6.2-11.84,1.51-4,3.5-8.88,1.49-12.49a1.08,1.08,0,0,0,1.46.76c-0.38.36-2-6.86-2-7.61,0.18-6.47,6.44-16.7,7.57-23.74h0Z" transform="translate(701.83 -405.92)"/><path class="cls-9" d="M-597.62,446.36q1.23,1.32,1.84.12a18.16,18.16,0,0,0-3.9-2.69q1.21,0.75,1.52-.31c-1.86-1.22-10.33-6.19-1.25-.18q-1.16-.83-1.57.22c1.75,1.71,6.12,4.06,7.07,8.54-3.49-3.74,1,2.44,1.31,3.17-1.38-1.66,2,8.55.13,2.74q-1.24-2.49-2.22-1.29a20.18,20.18,0,0,1,3.26,3.7q-1.13-1.06-1.55.1a8.2,8.2,0,0,1,1.93,4.15c-3-2.53-.71.23-0.51,2.24-2.08-3.18-1,5-1.24,5.56q0.15-2.09-1.25-2c-0.32.24,0.16,5.91,0.1,6.2-0.75-2.91-1,.5-1.27,1.37-0.72-2.32-3,7-3.26,7.35a1.74,1.74,0,0,0-.19-2.18c-1.8,3.15-2.56,6.52-5.22,9.23q1-1.49.15-2.48c-1.67,1.73-2.77,3.89-4.52,5.56-3.15,3-3.22,5.45-3.15,1-1.13,1.64-5.92,4.22-6.3,5.26,0.23-.61.58-1.38,0.74-2-0.14.06-4.38,3.68-4.46,3.16a9.87,9.87,0,0,0,.86-1.7,7.17,7.17,0,0,1-3.91,2.29,5.45,5.45,0,0,0,1.82-4.74c0.87,2.84-11.78,6.52-13.29,7.31-10.55,5.53-19.87,13.34-32.1,6.83,20.37,4.31,30-14.56,43.93-25-14.36,6.24-19.3,23.91-37.05,24.34-22.05.54-18.85-18.45-18.39-34.26-0.26,6.64-2.44,13.65-1.73,20.67-2.37-.24-10.35-9.77-8.83-10.74a2,2,0,0,0-.64,1.89,8.83,8.83,0,0,1-.4-5.91q-2-.43-2,2.74c-1.38-3.93-.47-8.64.81-12.45q-0.79-.73-1.41.81c-0.15-1.61.67-3.77-1.08-1.25A7.86,7.86,0,0,1-694,469q-1.6-1-2.35,1.75c-0.71-2.6,5.52-14.23,2-11.22,0.24-.2,4.51-6.37-0.17-3.63,0.49-.66,5.89-5,2.06-2.56,0.15-.47,4.5-7.18,2.49-5.57a15,15,0,0,0,3-4q-0.81-.86-2,0.37c0.58-1,2.76-3.62,4.09-4-0.87.21-7.67,6-3.83,4.6-6.8,7.55-.81,2.28-2.58,4.67-4.37-8-17.37-35.13-6.07-42.24,8-5,25.22,8.23,29.87,13.32q-0.79-.21-0.88.4c2.65-.05,2.38.06,0.94-1.64,2.29-.18,2.65,2.1,1.34-2.75,2.69,2.62,2.39,2.1,2.39,3.75a17.25,17.25,0,0,1,1.88-4.75c0.87,6.88,1.26.24,5-1.69,0.34-.17-0.54,4.05-0.52,3.87,0.13-.95,5.28-3.75,5.89-3.85-3,4.29.13,1.19,3.49,0.3-4.44,5.53,3.31-.8,7.39-1,0.51,0-3.77,3.24-2.72,3a35.66,35.66,0,0,1,8.46-1.91q-3.25.33-2.61,2.18a33.89,33.89,0,0,1,5.73-.72q-2.15.15-1.85,1.55a9,9,0,0,1,5.64-.15q-3.65-.61-3.59,1.64a27.82,27.82,0,0,1,8.58.67q-2.2-.16-1.86,1.26c6.13-1.44,2.23,1.57,1.76,3,2.28-7.15,27.08-13.24,32.63-12,12.82,2.91,1.69,34.11-2,42.34-1.77-2.88-2.49-5.3-5.23-7.71C-597.14,446.53-595.65,448.09-597.62,446.36Z" transform="translate(701.83 -405.92)"/><g class="cls-11"><path class="cls-9" d="M-603.25,442.46a27,27,0,0,1,3,2.47,7.09,7.09,0,0,0-2.44-.35c1.12,1.69,6.43,3,6.63,5.37,0-.27-4.17-1.27-4.12-1.15,0.7,1.66,6.33,4,5.35,6.52a5.7,5.7,0,0,1-3.68-.55c-0.53.11,3.44,4.89,3.54,5.29s-1.91-.31-2-0.24,2.76,4.2,2.7,5a6,6,0,0,1-1.64-1.83c-0.06,0,1.2,6.42.8,7.11a6.1,6.1,0,0,1-1.69-1.58c-0.7-.22.07,4.46,0,4.61a4.51,4.51,0,0,1-1.27-2.2c0.65,1,.82,7.69-0.55,9.11-0.66.69-1.3-3.86-1.57-4.13,1,1-2.23,12.62-2.81,12.22s-0.16-3.81-.36-4.56c0.77,2.84-6.69,9.24-7.18,11.34,0,0.17.52-4.35,0.3-4.2-2.41,1.69-2,6.94-5.4,8.31a24,24,0,0,0,.87-5.07c0.24,0.43-3.19,4.73-3.71,4.92a2.18,2.18,0,0,1-.45-2.43c0.32,0.36-2.69,4.27-3.11,4.5,0.32-.17.79-4.33,0.73-4.57,0.21,0.77-7.18,4.8-8.44,4.61-5.47-.84,6.1-12.78,6.56-13.33-3.52,4.29-14.5,4.68-16.15-2.67-0.06-.28,6-1.33,6.24-1.3,1.29,0.19-.89,5.78.83,6.45,0,0,1.16-5.14,1.3-5.38s0.68,2.37.74,2.3a88.32,88.32,0,0,0,4.65-8.08,1.75,1.75,0,0,0,.29,1.44c-0.32,0,14.19-12.47,16.21-9.18-2.33-2.68-6.72-1.67-9.43-.34,6.79-12.72-7.85-22-19-16.09-2.41,1.28-15.72,19.45-12.25,21.14-4.22-2-4.85-9.11-10.24-10.45-5.75-1.43-9.49,2.26-13,6.52-6.48,7.87-10.86,21.62-6,31.47,4.74,9.66,18.06,10.41,27.09,6.89,11.47-4.46,16.66-17.66,27.73-22.47-14,10.49-23.49,29.33-43.93,25,12.31,6.55,21.51-1.28,32.1-6.83,1.94-1,14.17-4.44,13.29-7.31a5.45,5.45,0,0,1-1.82,4.74,7.17,7.17,0,0,0,3.91-2.29,9.87,9.87,0,0,1-.86,1.7c0.07,0.52,4.32-3.1,4.46-3.16-0.16.6-.5,1.37-0.74,2,0.4-1.08,5.06-3.46,6.3-5.26-0.07,4.41-.27,2.32,3.15-1,1.73-1.68,2.85-3.82,4.52-5.56q0.86,1-.15,2.48c2.66-2.71,3.42-6.08,5.22-9.23a1.74,1.74,0,0,1,.19,2.18c0.81-1.25,2.43-10,3.26-7.35,0.25-.87.52-4.28,1.27-1.37,0.06-.29-0.42-6-0.1-6.2q1.41-.05,1.25,2c0.45-1.2-.92-8.85,1.24-5.56-0.2-2-2.48-4.78.51-2.24a8.2,8.2,0,0,0-1.93-4.15q0.42-1.16,1.55-.1a20.18,20.18,0,0,0-3.26-3.7q1-1.2,2.22,1.29c1.84,5.8-1.52-4.4-.13-2.74-0.3-.73-4.81-6.91-1.31-3.17-0.94-4.45-5.26-6.77-7.07-8.54q0.41-1,1.57-.22c-0.58-.38-4.67-1.44-3.84-0.85h0Z" transform="translate(701.83 -405.92)"/></g><g class="cls-11"><path class="cls-9" d="M-685.75,493.3c-2-2.51-2.37-5.64-3.08-8.63q-1-.15-1.36,1.2c-1-.37.32-4.83-0.06-4.88a3.42,3.42,0,0,1-2.45,1.3c-2-4.4,8.85,2.22,10.31,6.08a10.68,10.68,0,0,0-.11-4.38c2.76,2.77,3.73-14.81,2.65-1.15,2-4.83,1.25-14.54-1.31-18.84-7.94-13.33-8.37,5.42-14.08,4-0.5-.12,3.38-10,4.72-10.89q-1.17,1.34-2,.23c1.14-2,4.57-2.83.94-2.61a4.64,4.64,0,0,1,1.64-2.92c-0.42.81-1.8-.68-2.51,1.55,4.07-2.55-1.66,2-2.06,2.56,4.2-2.47.65,3.22,0.17,3.63,3.12-2.69-2.69,8.85-2,11.22Q-695.61,468-694,469a7.86,7.86,0,0,0-.79,4.65c1.75-2.52.93-.37,1.08,1.25q0.62-1.54,1.41-.81c-1.28,3.8-2.19,8.52-.81,12.45q-0.06-3.17,2-2.74a8.83,8.83,0,0,0,.4,5.91,2,2,0,0,1,.64-1.89c-1.89,1.2,6.49,10.5,8.83,10.74a49,49,0,0,1,.2-10.07c-0.74,3.41-.46,10-4.66,4.75h0Z" transform="translate(701.83 -405.92)"/></g><g class="cls-13"><path class="cls-14" d="M-630.69,444.87l2.08,0.65c-0.05.8-7.32,2.32-7.08,2.76,0.06,0.12,8.52.55,7.75,1.87s-8.62.8-10.56,1.17c-0.43,0,6.8-.05,6.57.75,0,0.12-11.25,5-12.33,6.08s-6.87,9-6.36,9.93a27.68,27.68,0,0,1-.95-5.86c-0.12,3.11-2.1,4.37-3,.67-0.84,2.31-2.8,3.19-2.55-.46,0,1.47-2.78,2-2.5-1.23q-2.39,3.67-3.06-.18c0,1.71-2.81,2.9-2.33-.66,0,2.24-3.55,4.56-3.71.67-0.07,1.09-1.49,4.92-3.2,2.36-0.19,2.45-2.57,8.92-4.6,9.56a6,6,0,0,1-.27-4.47c0.1,1.72-1.24-3-1.37-3.45,0.27,0.19-9.71-10.94-10.38-7.76,0.34-1.62,5.14.7,5.38-.13,0.71-2.36-4.65-4.38-5.32-6.16-0.47-1.22,3.94.11,3.88,0.26a29.23,29.23,0,0,1-3.21-2.37c1,2.75,4.73-3.67,4.11-2.78-0.8,1.14-.63-8.65,2.38-6.48a33.43,33.43,0,0,1-3.55.11c0.22-1.7,4.75-1.38,5.39-2.72,0.36-.77-3.57-0.45-3.2-1.17,0.1-.2,8.41-3.29,8-3.69a7.2,7.2,0,0,1-3.7-1.38c1.86-1.74,6.25-.63,8.43-1.91,0.57-.33-4.52-1-4.43-0.79-0.11-.27,8.2-1.71,8.44-1.87-0.1.07-4.39-1.3-4.66-.88,0.8-1.27,5.06-.91,6.24-1.34,0.28-.1-2.77-1.12-2.78-1.14,1.54,2,4.64-2.69,4.68-2.77a1.17,1.17,0,0,1,1.27,1.25c0.28-1.13,3.43-4.48,2.36-.47a8.75,8.75,0,0,1,3.83-3.73q1.24,0.87-.13,2.24c1.53-1.16,4.79-3,2.52.55,1.14-1,11.42-6.45,5.12-.55,0.4-.31,9.25-3.49,6.31-1.34,2-.6,4.28-0.81,2.13,1.34-0.08,0,8.67-1.42,3.63.71,1.72-.17,7.09-1.1,9.09-0.08q0.17,1.6-2.07,1.57a6.06,6.06,0,0,1,4.3.42,4.67,4.67,0,0,1-3.27,2.85c3.05-.52,2.68.72,0.76,2.86,1.81-.53,6.47-2.69,2.86,1-0.11.05,7.27-3.13,3.2,0.42,1.9-.64,11.23.81,5.39,2.27,2.41-.38,2.1,1.2.34,1.6q2.69-.86,3.64,1.08a7.61,7.61,0,0,1-2.55,1.28c1.52,0.1,11.06,4.25,5.95,3.06,0.09,0,2.59,1,2.27,1.23-0.48.33-4.63,0.25-5.15,0a8,8,0,0,1,2.73,1.83,4.29,4.29,0,0,1-3.89-.67c3.64,3.2-.55,2.18-2.36,1.57,2.33,2.44-3.09.5-3.37,0.45,4.67,2.57-5.17,2.19-4.41,2.18C-625.85,445-626.18,444.32-630.69,444.87Z" transform="translate(701.83 -405.92)"/></g><path class="cls-15" d="M-638.61,501.52c-8.38,8.46-16.8,12.92-28.94,11.41,8.53,11.24,40.2-6.07,35.71-18.47-2.36,2.25-4.61,4.62-6.77,7.06C-647.34,510.34-636,498.61-638.61,501.52Z" transform="translate(701.83 -405.92)"/><path class="cls-15" d="M-676.15,508c12.88,8.92,26.59,3.12,36.53-6.65,6.3-6.19,9.06-8.14,1.24-14-4.77-3.56-7.8-4.57-11.48-9.71-5.53-7.73-11.16-16.08-20.16-7.48-7.93,7.58-16.72,28.92-6.15,37.82C-669.83,512.38-680,504.75-676.15,508Z" transform="translate(701.83 -405.92)"/><g class="cls-11"><path class="cls-15" d="M-656.34,507.89c7.53-7.53.42-14.13-8.09-15.68-3.91-.71-15.67,3.6-16.2-0.32,0.09,13,5.77,20.68,19.49,20.36,12.51-.29,19.08-8.88,27.52-17-5.53,3.31-9.08,9.52-14.85,12.57-0.92.49-11.39,3.6-7.86,0.07h0Z" transform="translate(701.83 -405.92)"/></g><path class="cls-16" d="M-586.12,433.95c1-5.21,3-13.85.38-18.73-3-5.44-7.83-3.48-14-2.08-3.78.86-23.25,5.07-22.27,11.62,0.15,1,5.67-1.07,6.47-.7-0.26-.12-2.74,1.68-3.13,1.88,1.41,0,3.65-.18,4.94.41-0.32-.14-2.66,1.44-3,1.31,3.1,1,8.62-.11,6.33,2.69,0-.06,2.5,1.06,2.73,1.18a17.6,17.6,0,0,0-2.71.92,22.55,22.55,0,0,1,4.28,1.3,18.62,18.62,0,0,0-3.25.72c1.36,0.42,4.11.84,4.84,2.05,2.39,3.91,2.16-.07,1.53,3.57-0.13.78,4.54,3.13,4.92,3.38q-0.3,1.06-1.52.31a18.16,18.16,0,0,1,3.9,2.69q-0.61,1.2-1.84-.12c2.74,2.41,3.46,4.79,5.23,7.71a90.15,90.15,0,0,0,6.27-20.12C-585.4,430.13-587.45,440.93-586.12,433.95Z" transform="translate(701.83 -405.92)"/><path class="cls-16" d="M-691,448.73l2.35-3.89c-3.5,1.31,2.5-7.63,2.66-7.78a8,8,0,0,0-3.1,1.33,14.05,14.05,0,0,1,5.2-4.63,11.55,11.55,0,0,1-3.7-.5c1.74,0,6,0,7.21-1.39a11.21,11.21,0,0,1-2.55.1c1.83-.91,3.49-2.2,5.33-3.1l-2.66.53A20.22,20.22,0,0,1-669,423.48c-2.47-1.37.27-2.77,1.6-2.89-5.13-5.6-24.27-20-31.72-11.63-4.17,4.66-1.15,17.27.26,22.43,0.88,3.23,7.66,17.88,7.89,17.34C-690.39,447.32-691.07,448.9-691,448.73Z" transform="translate(701.83 -405.92)"/><path class="cls-3" d="M-601.67,438.16a11.82,11.82,0,0,0-6.71-3.73q2.17,0.7,2.63-.82a9.09,9.09,0,0,0-4.73-1.14c0.26-.37,7-1.31.73-2q3.34,1.06,3.66-.9c-3.73.45-6.27-1.81-10.15-2.09,1.8-.52,8.16-3.25-2.12-1.73q3,0,3-2c-3.61-.25-6.26,1.75-9.2,3.14,1.68-.71,6.07-3.73,8.13-2.79a11.12,11.12,0,0,1-3,1.85q0,2.77,4.71.55-2.81-.4-2.71,1.4a19.92,19.92,0,0,1,8.32,1.9c5.27-.6-4.44.45-2.48,1.05a14.44,14.44,0,0,1,3.44.67q-2.78-.78-3.22,1a27.2,27.2,0,0,1,4.73,1.17q-2.91-.89-3.3,1.06c2.4,0.06,7,2.07,8.31,3.39C-603.58,436.19-601.54,438.3-601.67,438.16Z" transform="translate(701.83 -405.92)"/><path class="cls-3" d="M-669.13,423.32a13.8,13.8,0,0,0-6.6,2q-0.44,1.25,1.06.75a12.62,12.62,0,0,0-5.61,3q0,1.1,1.64,0c-1.31.61-7.56,5.5-1.74,2.7-3.38,1.6-6.81,3.09-8.71,6.52q1.47,1.2,3.1-1.33a9.09,9.09,0,0,0-3.25,4.65,40.57,40.57,0,0,1,4.32-5.5,6,6,0,0,0-3.15,1.58c1.87-1.49,10.9-6.6,6.11-6,0.51-.38,5-3.36,5.61-3.42a7,7,0,0,1-3.26.47c0.86-1.3,11.09-3.67,5.31-3.57,0.85-.47,4.11-2,5.18-2C-671.45,423.33-669,423.32-669.13,423.32Z" transform="translate(701.83 -405.92)"/><path class="cls-3" d="M-655,497.91c-6.55-9.06-31.55-6.06-22.61,8.28,6.25,10,29.78,1.61,22.61-8.28h0Z" transform="translate(701.83 -405.92)"/><path class="cls-3" d="M-683.9,460.42c-4.15-3.66-7.33,3.45-7.32,6.74q1.82-.44,1.13-3.35c-1.24,5.07.11,11.56,2.78,16.05-2.21-1.44-4-.92-5.66-1.38,4.39,1.26,9.09,4.49,9.92,8.74-1.13-6.8,9.61-17.59-.86-26.8h0Z" transform="translate(701.83 -405.92)"/><path class="cls-17" d="M-680.9,480.56c-1.83,5.3-11.89-11.25-8.34-17,7.28-11.89,7.8,16.39,8.34,17C-681.35,481.87-680.91,480.54-680.9,480.56Z" transform="translate(701.83 -405.92)"/><path class="cls-3" d="M-610.51,470.76c-4.1-.36-10.73,5.44-12.91,5,3.57-3.44,7.08-8.73,5.35-13.89-8.83-15.37-33.93-3.46-29.6,15.15-0.7-3,1.82-8.76,3.19-11.59-6.32,14.75,3,22.78,16.17,14.16-2,2.8-4.31,4.42-4.33,8.79,0-1.49,1.49-4.89,2.4-6.31a3.28,3.28,0,0,1-.33,2.14c0.34-1.43,4.89-6.33,6-7.06q-1.36,1.44-.09,1.31c2.14-4.11,9.81-8.09,14.13-7.66C-615,470.37-610.27,470.79-610.51,470.76Z" transform="translate(701.83 -405.92)"/><path class="cls-17" d="M-643.41,481.43c-10.41-5,5.39-27.48,15.21-26.52,21.08,2.06,1.15,34.39-15.21,26.52h0Z" transform="translate(701.83 -405.92)"/><path class="cls-3" d="M-689.38,443.45c-7.18-2-9.09-17.59-9.4-23.17,0.47,8.19,1.05,20.55,9.4,23.17C-691.38,442.89-689.23,443.49-689.38,443.45Z" transform="translate(701.83 -405.92)"/><path class="cls-3" d="M-683.14,411.81c4,3.08,7.91,8.52,9.09,13.69-1.4-6.2-3.47-9-9.09-13.69h0Z" transform="translate(701.83 -405.92)"/><path class="cls-3" d="M-683.09,432.63c-2.08.78-6.08,0.26-7.79-1.25,3,2.72,5,2.36,7.79,1.25C-685.85,433.66-682.85,432.54-683.09,432.63Z" transform="translate(701.83 -405.92)"/><path class="cls-3" d="M-590.14,413.18c-6.16.59-23.92,4.7-24.6,13,0.59-7.1,19.52-12.29,24.6-13C-596.07,413.76-590.06,413.17-590.14,413.18Z" transform="translate(701.83 -405.92)"/><path class="cls-3" d="M-587.94,420.63c-0.37,6-.91,19.42-6.64,23.23,7.2-4.73,6.41-16.43,6.64-23.23C-588.21,424.94-587.94,420.54-587.94,420.63Z" transform="translate(701.83 -405.92)"/><path class="cls-3" d="M-596.65,437.55c-0.12.16-5.49,2.46-5.71,2.18,1.6,2,5.57-2,5.71-2.18C-597.32,438.42-596.55,437.42-596.65,437.55Z" transform="translate(701.83 -405.92)"/><path class="cls-18" d="M-682.63,448.51c0.9,0.62,2.81,6.06,3.19,7-1-2.45.17-4.58-3.19-7h0Z" transform="translate(701.83 -405.92)"/><path class="cls-18" d="M-681.62,455c0.65,0.45,1.64,4.1,1.77,4.86-0.26-1.52.39-3.34-1.77-4.86h0Z" transform="translate(701.83 -405.92)"/><path class="cls-18" d="M-681.41,459.94q-1,.69.81,1.84,1.06-.7-0.81-1.84h0Z" transform="translate(701.83 -405.92)"/><path class="cls-18" d="M-643.83,457A13.41,13.41,0,0,0-649,463.3c0.12-.31,5.13-6.25,5.18-6.28h0Z" transform="translate(701.83 -405.92)"/><path class="cls-18" d="M-641.53,454.17q-3.24,0-3,1.89,3.64,0,3-1.89h0Z" transform="translate(701.83 -405.92)"/><path class="cls-18" d="M-652.22,454.44c-1.06.88-5.93,6.35-5.07,8.15-0.32-1,4.45-7.63,5.07-8.15h0Z" transform="translate(701.83 -405.92)"/><path class="cls-18" d="M-648.54,452.4a16.47,16.47,0,0,0-4.51,5.18c-0.08.18,4.81-5.45,4.51-5.18C-650.26,453.87-648.36,452.25-648.54,452.4Z" transform="translate(701.83 -405.92)"/><path class="cls-18" d="M-640.46,448.65c-2.53.77-4,2.46-5.92,3.71,0.89-.57,4.9-3.39,5.92-3.71C-642.64,449.31-640.25,448.58-640.46,448.65Z" transform="translate(701.83 -405.92)"/><path class="cls-18" d="M-633.94,449.71q-1.51-.77-2.12.2,2.16,1.09,2.12-.2h0Z" transform="translate(701.83 -405.92)"/><path class="cls-18" d="M-680.21,441.8a22.18,22.18,0,0,1,2.24,4.45,10.33,10.33,0,0,0-2.24-4.45h0Z" transform="translate(701.83 -405.92)"/><path class="cls-18" d="M-676.94,450c0.53,0.77,1.07,4.32,1.22,5.24-0.27-1.67.15-3.33-1.22-5.24h0Z" transform="translate(701.83 -405.92)"/><path class="cls-18" d="M-673,444.46q-1.42.84,0.37,3,1.68-.55-0.37-3h0Z" transform="translate(701.83 -405.92)"/><path class="cls-18" d="M-672.63,452.82q-1.29.74,0.39,2.6,1.37-.64-0.39-2.6h0Z" transform="translate(701.83 -405.92)"/><path class="cls-18" d="M-670,439.52q-1.86,1.36,1,4.1,2.18-1-1-4.1h0Z" transform="translate(701.83 -405.92)"/><path class="cls-18" d="M-666.93,455.49q-0.85.49,0,1.73,1-.31,0-1.73C-667,455.38-666.75,456-666.93,455.49Z" transform="translate(701.83 -405.92)"/><path class="cls-18" d="M-658.15,431a21.67,21.67,0,0,1,0,5.6,11.19,11.19,0,0,0,0-5.6h0Z" transform="translate(701.83 -405.92)"/><path class="cls-18" d="M-660.8,439q-1,.58-0.17,2.12,1.18-.16.17-2.12h0Z" transform="translate(701.83 -405.92)"/><path class="cls-18" d="M-674.56,461.75q-1.13.66,0.49,2.28Q-672.78,463.57-674.56,461.75Z" transform="translate(701.83 -405.92)"/><path class="cls-19" d="M-685.05,447.32c-2-2.36.16,0.2,0,0h0Z" transform="translate(701.83 -405.92)"/><path class="cls-18" d="M-662.75,445.91l-1,3.28c-0.05.23,1.1-3.6,1-3.28C-663.09,447-662.73,445.84-662.75,445.91Z" transform="translate(701.83 -405.92)"/><path class="cls-18" d="M-658.66,448.33l-1.24,3.43c-0.11.4,1.5-4,1.24-3.43h0Z" transform="translate(701.83 -405.92)"/><path class="cls-18" d="M-662.39,459.3a6.93,6.93,0,0,0-.86,3.53,15.47,15.47,0,0,0,.86-3.53C-662.63,459.66-662.3,459.17-662.39,459.3Z" transform="translate(701.83 -405.92)"/><path class="cls-18" d="M-658.19,455l-1.56,4.09c-0.19.41,2-5,1.56-4.09C-658.86,456.3-658.11,454.84-658.19,455Z" transform="translate(701.83 -405.92)"/><path class="cls-18" d="M-650.71,446.27a6.87,6.87,0,0,0-3.19,3.16,22.71,22.71,0,0,0,3.19-3.16h0Z" transform="translate(701.83 -405.92)"/><path class="cls-18" d="M-645.26,445.75q-2.9-.07-2.7,1.58,3,0.16,2.7-1.58h0Z" transform="translate(701.83 -405.92)"/><path class="cls-18" d="M-639.88,442.88c-1.68-.13-0.1,0,0,0h0Z" transform="translate(701.83 -405.92)"/><path class="cls-20" d="M-622.63,467.18c1.94,14.92-18.44,17.56-20.38,2.64s18.41-17.78,20.38-2.64C-621.78,473.72-623.48,460.63-622.63,467.18Z" transform="translate(701.83 -405.92)"/><path class="cls-21" d="M-624.24,467c1.47,11.27-13.84,13.26-15.3,2s13.84-13.26,15.3-2C-623.6,471.93-624.88,462.1-624.24,467Z" transform="translate(701.83 -405.92)"/><path class="cls-22" d="M-627.58,467.45c0.83,6.36-7.8,7.49-8.62,1.12s7.8-7.48,8.62-1.12h0Z" transform="translate(701.83 -405.92)"/><path class="cls-8" d="M-633.22,465.8a3,3,0,1,1-6,.77,3,3,0,1,1,6-.77C-633,467.72-633.47,463.87-633.22,465.8Z" transform="translate(701.83 -405.92)"/><path class="cls-8" d="M-634.49,473.1l-1,1.58q-2.64-1.11-.37-2.85l1.41,1.27C-634.39,473.89-634.6,472.31-634.49,473.1Z" transform="translate(701.83 -405.92)"/><g class="cls-23"><path class="cls-20" d="M-678.76,468.89c1.67,11.53-11.75,13.48-13.43,1.94s11.76-13.48,13.43-1.94C-678,474-679.5,463.76-678.76,468.89Z" transform="translate(701.83 -405.92)"/><path class="cls-21" d="M-679.83,468.75c1.23,8.48-8.85,9.95-10.08,1.46-1.2-8.26,8.77-10.5,10.08-1.46h0Z" transform="translate(701.83 -405.92)"/><path class="cls-22" d="M-682,469.07c0.71,4.89-5,5.72-5.68.83s5-5.72,5.68-.83h0Z" transform="translate(701.83 -405.92)"/><path class="cls-8" d="M-685.81,467.74c0.89,6.1-4.07.59-3.94,0.57-0.12,0,3.06-6.68,3.94-.57C-685.59,469.24-686,466.23-685.81,467.74Z" transform="translate(701.83 -405.92)"/><path class="cls-8" d="M-686.45,473.45q-0.49,2.36-1.62.23,0.48-2.36,1.62-.23C-686.37,474.07-686.54,472.83-686.45,473.45Z" transform="translate(701.83 -405.92)"/></g><path class="cls-24" d="M-657.41,506.57c-0.15.06-5.92,0.41-4.89,1.19,0.47,0.36,3.36.32,3,.33-2.2,1.51-15.55,4.26-13.5-.47-1.28,2.9-5.85-5.25-5.06-8.18,1.39-5.18,5.67-5.87,10.68-5.62s12,4,12.34,6.74a7.18,7.18,0,0,1-2.62,6C-658.87,507.13-655.72,504.88-657.41,506.57Z" transform="translate(701.83 -405.92)"/><path class="cls-1" d="M-654.74,501.24h0Z" transform="translate(701.83 -405.92)"/><path class="cls-24" d="M-654.8,500.56c0.17,1.38,0,0,0,0S-654.77,500.72-654.8,500.56Z" transform="translate(701.83 -405.92)"/><path class="cls-25" d="M-654.75,501.07c0.05,1-2,2.76-2.81,3.38-1.59,1.2-3.07.43-4.49,1.17,1-.51-3.7,2.68-1.83,2.24-4,.92-4.8-0.3-7.08-1.08,0.47,0.16-6.27-3.17-7.13-4.37,0.26,1.49,4.09,8,5.33,5.21-2,4.74,11.3,2,13.5.47,0.31,0-2.57,0-3-.33,2.76,2.09,6.95-5,7.55-6.69C-654.75,501.13-654.75,501.05-654.75,501.07Z" transform="translate(701.83 -405.92)"/><g class="cls-26"><path class="cls-24" d="M-657.54,498.24c-4-3.07-11.1-5.1-15.8-2.26,2.51-1.52,13.31.33,15.8,2.26C-661.54,495.21-657.4,498.36-657.54,498.24Z" transform="translate(701.83 -405.92)"/><path class="cls-24" d="M-674.18,496.85h0Z" transform="translate(701.83 -405.92)"/></g><path class="cls-1" d="M-687.22,443.61l-1.7.6c0.58-1,2.76-3.62,4.09-4a9.54,9.54,0,0,0-5.07,4.44c1,0.06,3.14-1.18,2.68-1.06h0Z" transform="translate(701.83 -405.92)"/><path class="cls-1" d="M-687.17,444.27l-2.72.4c1.07-1.6,1.5,5.33-1,4.38A20.35,20.35,0,0,1-687.17,444.27Z" transform="translate(701.83 -405.92)"/><path class="cls-8" d="M-663.38,420a0.21,0.21,0,0,1,0,.07A0.08,0.08,0,0,0-663.38,420Z" transform="translate(701.83 -405.92)"/><path class="cls-8" d="M-687.17,444.27a8,8,0,0,0-2.1,2.33A14.67,14.67,0,0,1-687.17,444.27Z" transform="translate(701.83 -405.92)"/><path class="cls-1" d="M-597.62,446.36q1.23,1.32,1.84.12a18.16,18.16,0,0,0-3.9-2.69c2.55,0.44,1.14-.61-0.43-1.45,3.72,2.27-.23.33-0.12,1.3,0.05,0.49,3.41,2.4,3.9,2.71a3.53,3.53,0,0,0-1.81-.25c0,1.64,4.56,4.34,4.83,6.63a9.5,9.5,0,0,0-4.31-6.36C-597.14,446.53-595.65,448.09-597.62,446.36Z" transform="translate(701.83 -405.92)"/><path class="cls-8" d="M-663.38,420a0.21,0.21,0,0,1,0,.07A0.08,0.08,0,0,0-663.38,420Z" transform="translate(701.83 -405.92)"/><path class="cls-8" d="M-593.33,452.77c0.36,0.41,0-.07,0,0S-593.33,452.76-593.33,452.77Z" transform="translate(701.83 -405.92)"/><path class="cls-27" d="M-663.41,467.71c-4.31,1.15-6.81,4.43-8.58,8.27-1.1,2.37-.46,6-1.77,8.23-0.53.9-2.76,1.52-2.75,1.5-0.23.58-3,3.06-2.16,5.12,1.78,4.28,1.6.16,4.15,0.64,4.8,0.9,9.58-1,14.73,1.27,4.17,1.8,6.87,6,11.94,4.91,6.05-1.28,6.1-5.64,3.76-10.19-1.71-3.32-6.34-7.93-8.61-11.45S-658.22,466.77-663.41,467.71Z" transform="translate(701.83 -405.92)"/><path class="cls-28" d="M-663.84,469.73c-1.84,3.28-4.92,9.64-3.7,13.6,0.6,1.93,5.58,7.47,6.4,7.2-0.68.22-14.27-.34-15-1C-676,489.65-663.91,469.94-663.84,469.73Z" transform="translate(701.83 -405.92)"/><path class="cls-27" d="M-663.63,514.18c6.81,0.87,11.54-4.52,17.38-4.51-0.14,0-6.27,5-7.56,5.41C-657.24,516-663.13,514.22-663.63,514.18Z" transform="translate(701.83 -405.92)"/><path class="cls-29" d="M-643.55,470.49c0.16,2.24,4.72,13.06,8.18,10.38C-644.26,487.75-643.32,471.6-643.55,470.49Z" transform="translate(701.83 -405.92)"/><path class="cls-29" d="M-628.15,456.92c2,1,10.29,12.44,6.63,13,4.52-.69.77-9.7-0.9-11.25C-623.47,457.7-629.84,455.67-628.15,456.92Z" transform="translate(701.83 -405.92)"/><path class="cls-29" d="M-685.27,479.89c0.27-.1,4.09-0.89,4.09-0.91C-680.35,483.13-684.88,479.95-685.27,479.89Z" transform="translate(701.83 -405.92)"/><path class="cls-1" d="M-679.79,478q-0.31,3-.72,6c1.43-1.57.61-4.7,0.72-6C-680,480-679.78,477.92-679.79,478Z" transform="translate(701.83 -405.92)"/><path class="cls-1" d="M-680.52,484l-0.57,4.57c0.18-.81,2.77-7,0.57-4.57C-680.72,485.5-680.28,483.71-680.52,484Z" transform="translate(701.83 -405.92)"/><path class="cls-1" d="M-593.35,452.22v0Z" transform="translate(701.83 -405.92)"/><path class="cls-1" d="M-593.38,452.06a6.5,6.5,0,0,0-1.72-3.31A9,9,0,0,1-593.38,452.06Z" transform="translate(701.83 -405.92)"/><path class="cls-1" d="M-595.78,446.48a18.07,18.07,0,0,0-3.88-2.68c0.59,1.63,4,2.82,3.88,2.68h0Z" transform="translate(701.83 -405.92)"/><path class="cls-1" d="M-598.16,443.48c-1.37-.9-4.06-1.85-5.25-2.7,5.39,3.77,3.38,1.89,3.75,3q1.2,0.74,1.5-.31C-599.8,442.4-597.93,443.64-598.16,443.48Z" transform="translate(701.83 -405.92)"/><path class="cls-14" d="M-593.35,452.2l0-.14S-593.36,452.16-593.35,452.2Z" transform="translate(701.83 -405.92)"/><path class="cls-14" d="M-593.33,452.77c0.25,0.31,0-.1,0,0S-593.33,452.76-593.33,452.77Z" transform="translate(701.83 -405.92)"/><path class="cls-14" d="M-593.31,452.73a2.84,2.84,0,0,0,0-.5A4.52,4.52,0,0,1-593.31,452.73Z" transform="translate(701.83 -405.92)"/><path class="cls-14" d="M-682.49,484a10.68,10.68,0,0,1,.11,4.38c-1.46-3.86-12.27-10.48-10.31-6.08a3.42,3.42,0,0,0,2.45-1.3c0.38,0-.91,4.5.06,4.88q0.36-1.35,1.36-1.2c0.53,2.26,2.13,11.18,5.58,10.69,2.3-.32,2.5-9.66,2.73-11.38h-2C-681.93,486.46-681.92,484.55-682.49,484Z" transform="translate(701.83 -405.92)"/><path class="cls-14" d="M-599.68,443.79s0,0,0,0h0Z" transform="translate(701.83 -405.92)"/><path class="cls-14" d="M-597.62,446.36l2.52,2.38a3.54,3.54,0,0,0-2.52-2.38C-596.77,447.11-597.29,446.48-597.62,446.36Z" transform="translate(701.83 -405.92)"/><path class="cls-14" d="M-663.38,420a0.21,0.21,0,0,1,0,.07A0.08,0.08,0,0,0-663.38,420Z" transform="translate(701.83 -405.92)"/><g class="cls-13"><path class="cls-9" d="M-628.56,486.25c0.7-4.25,14-16.37,19-12.82a1.74,1.74,0,0,1-1.35,1.18c2.83-1.41,6,2.14,6.26,4.56,0.55,5.27-2.83,2.81-3.59,3.33,0.15-.1-3.91,9.1-4.32,8.13-0.05-.12.26-4.45,0.24-4.42-0.35.38-4.42,5.24-4.3,4.48,0.26-1.79,1.91-3.11,2.34-4.82-0.23.93-4.05,6.15-5.29,6.07s0.33-5.21.39-5.49-2.11,1.35-2.15,1.34a23.05,23.05,0,0,0-.24-2.72C-622.49,484.92-629.1,490.23-628.56,486.25Z" transform="translate(701.83 -405.92)"/></g><g class="cls-13"><path class="cls-9" d="M-688.55,482.19c0.79,0.18-3.22,2.19-.91-0.72,2.82-3.55,8.23,11,5.1,10C-686.9,490.66-688,484.42-688.55,482.19Z" transform="translate(701.83 -405.92)"/></g><g class="cls-30"><path class="cls-1" d="M-687.6,433.26l0.19,0.06Z" transform="translate(701.83 -405.92)"/><path class="cls-1" d="M-687.4,433.32a3.48,3.48,0,0,0,3.27-.41,21.19,21.19,0,0,0-3.27.41h0Z" transform="translate(701.83 -405.92)"/><path class="cls-16" d="M-687.36,433.33l0,0Z" transform="translate(701.83 -405.92)"/></g><g class="cls-11"><path class="cls-16" d="M-684,409.39c-3.16-1.36-7-3-10.52-2.8,3,1.51,11.44,6,11.65,9.92,0.17,3.21-1.89,2.38-3.14,4.58-1.36,2.39-4.21,3.16-5.5,6.2-0.16.37-1,9.62-1.4,9.63-2.74.08-6.35-8.65-7.06-10.26,1.5,8,4.86,15.71,8.76,22.86,1.77-2.39-4.21,2.88,2.58-4.67-3.5,1.31,2.5-7.63,2.66-7.78a8,8,0,0,0-3.1,1.33,14.05,14.05,0,0,1,5.2-4.63,11.55,11.55,0,0,1-3.7-.5c1.74,0,6,0,7.21-1.39a11.21,11.21,0,0,1-2.55.1c1.83-.91,3.49-2.2,5.33-3.1l-2.66.53A20.22,20.22,0,0,1-669,423.48c-2.47-1.37.27-2.77,1.6-2.89-4.56-5-10.45-8.54-16.6-11.2h0Z" transform="translate(701.83 -405.92)"/></g><g class="cls-11"><path class="cls-16" d="M-592.7,438.08c2.2-9-7.93-10-10-16.18s10.62-8.66,16.21-9.39c-3.08-4.25-36.71,4.31-35.52,12.25,0.15,1,5.67-1.07,6.47-.7-0.26-.12-2.74,1.68-3.13,1.88,1.41,0,3.65-.18,4.94.41-0.32-.14-2.66,1.44-3,1.31,3.1,1,8.62-.11,6.33,2.69,0-.06,2.5,1.06,2.73,1.18a17.6,17.6,0,0,0-2.71.92,22.55,22.55,0,0,1,4.28,1.3,18.62,18.62,0,0,0-3.25.72c1.36,0.42,4.11.84,4.84,2.05,2.39,3.91,2.16-.07,1.53,3.57-0.13.78,4.54,3.13,4.92,3.38q-0.3,1.06-1.52.31a18.16,18.16,0,0,1,3.9,2.69q-0.61,1.2-1.84-.12c2.74,2.41,3.46,4.79,5.23,7.71A92.83,92.83,0,0,0-586,433c-0.64,1.53-3.77,9.21-6.51,8.73a3,3,0,0,1-.24-3.68C-590.23,428-594.5,445.43-592.7,438.08Z" transform="translate(701.83 -405.92)"/></g><path class="cls-31" d="M-695.95,409.49c-1.3,2.8-5,16.76-2.66,18.44-1.76-1.25-1.6-9.44-1.46-10.87,0.07-.72,3.59-11,4.43-9.25Z" transform="translate(701.83 -405.92)"/><path class="cls-31" d="M-588.09,415.56c0.73,5.9-2.86,15-1.27,20,0,0,3.51-10.65,3.46-12.29C-585.94,422-587.87,413.65-588.09,415.56Z" transform="translate(701.83 -405.92)"/><g class="cls-32"><path class="cls-16" d="M-684,409.39l-2.88-1.18c4.65,3.54,11.12,8.57,9.3,14.49-1.92,6.27-9.15,5.79-12.63,8.36,1.73-1.27.58,6.12,0.61,5.94-0.39,2.56-1.79,9.12-5.18,5.4q1.66,3.62,3.57,7.11c1.77-2.39-4.21,2.88,2.58-4.67-3.5,1.31,2.5-7.63,2.66-7.78a8,8,0,0,0-3.1,1.33,14.05,14.05,0,0,1,5.2-4.63,11.55,11.55,0,0,1-3.7-.5c1.74,0,6,0,7.21-1.39a11.21,11.21,0,0,1-2.55.1c1.83-.91,3.49-2.2,5.33-3.1l-2.66.53A20.22,20.22,0,0,1-669,423.48c-2.47-1.37.27-2.77,1.6-2.89-4.56-5-10.45-8.54-16.6-11.2h0Z" transform="translate(701.83 -405.92)"/></g><g class="cls-32"><path class="cls-16" d="M-594.53,445.25c-0.76-1.8-3.28-3-3.78-4.39-0.43-1.22,4.16-2.64,2.77-4.3s-8.48-1.36-11-4.92a4.44,4.44,0,0,1,2.78-2.4c0.11-1.16-6.66-1.71-6.1-6.49,0.52-4.43,9-8.41,12.32-10.11-4,.79-25.62,5.07-24.57,12.12,0.15,1,5.67-1.07,6.47-.7-0.26-.12-2.74,1.68-3.13,1.88,1.41,0,3.65-.18,4.94.41-0.32-.14-2.66,1.44-3,1.31,3.1,1,8.62-.11,6.33,2.69,0-.06,2.5,1.06,2.73,1.18a17.6,17.6,0,0,0-2.71.92,22.55,22.55,0,0,1,4.28,1.3,18.62,18.62,0,0,0-3.25.72c1.36,0.42,4.11.84,4.84,2.05,2.39,3.91,2.16-.07,1.53,3.57-0.13.78,4.54,3.13,4.92,3.38q-0.3,1.06-1.52.31a18.16,18.16,0,0,1,3.9,2.69q-0.61,1.2-1.84-.12c2.74,2.41,3.46,4.79,5.23,7.71q1.48-3.29,2.67-6.69-3.38,1.44-4.8-2.13h0Z" transform="translate(701.83 -405.92)"/></g><path class="cls-10" d="M-689.32,527.4l-0.07.29Z" transform="translate(701.83 -405.92)"/><path class="cls-1" d="M-560.95,498.2c1.07,1,.07-8-1.82-10.21,5.19,2.43-1.87-5-2.45-5.74,0.81,1,2.55,4.08,3.35,5.37q-1.75-2-2.66-.37a16.87,16.87,0,0,1,3.44,4.87q-1-1.32-2.08-.69-0.47,2.08,2.18,3.31-1-1.57-2.21-.87c-0.34.38,3.62,24.21,3.76,28.05,1.11-8.13,1.46-15.89-1.5-23.71C-560.83,498.3-559.41,502.25-560.95,498.2Z" transform="translate(701.83 -405.92)"/><g class="cls-11"><path class="cls-9" d="M-563.13,522.74c-0.31,2.44.72,7.12-.82,9.27q-1.47.32-1.65-1.67c0.38,4.56-3.31,28.26-5.86,25.71,0,1.21.38,10.71-2.16,6.48,0,3.2-3.07,24.53-8.33,17-0.51,3.08-4.7,26.71-6.48,23.75,0.47,0.93,3.09,9.27,0,5.25,0.76,4.61-2.56,9.62-3.65,15.78-0.73,4.15-.2,7.88-0.67,12-0.23,2-2.85,8.82-2.64,9.24,0.47-1.06,3.53-1.65,4.2-.45,8.54-44.09,30.81-87.34,31.55-133,0,1.33.06,11.85-2.32,12l-1.17-1.29C-563.44,525.21-561,527.37-563.13,522.74Z" transform="translate(701.83 -405.92)"/></g><g class="cls-11"><path class="cls-9" d="M-532.6,629.16c-1.32,1.84,1.51-10.38,1.54-10.49-1.38,1.73,1.22-9.8,1.24-9.87a4.58,4.58,0,0,1-2.55,2q-1.24-2,.69-4.2c-0.35.88-.72-9.27-0.31-11.1-0.5.75-.79,2-1.5,2.58s1.24-9.17.58-6c-3,5.95-2-6.24-1.85-6.79-0.11.26-1.47,2.49-2.18,1.64a7,7,0,0,1,.33-4.73c-2.38,2.38,0-6.31.31-7.09-0.24.24-2,2.25-2.69,1.62a6,6,0,0,1,.53-4.4,6,6,0,0,1-2.35,1.12,4.16,4.16,0,0,1-.73-4.2c-0.29.73-.64,2.4-1.35,2.89-1.11.77-1.19-8-1.12-5.67-0.16,1.14-1.1,3.78-2.15,4.49q-1.39-1.2,0-3.25c-4.13,2.07-3.13-7.41-3.09-8.94,0-.07-1.4,3.46-2,3a8.5,8.5,0,0,1-.76-4.58c-2.64,4.4-5.35,2.38-3.39-2.78-0.43.43-2.74,2.28-3.55,1.69a4.59,4.59,0,0,1,1.7-4.16c-3.36,2.61,2.5-13.33,2.47-13.26-3.86,3.69-2.33-5.74-2.16-7.71-0.1.3-.51,2-1.07,1.84-1.64-.52-1.4-10.57-1.41-11-1.25,9.26-2.74,18.48-4.65,27.63-1.31,6.29-7.92,18.34-1.66,22.87q-1.57-1.75-.22-2.58,2.37,2.46,4.64,5c-1.34-3.8-1.17-2.35,2.81.86q-1.67-1.46-.28-2.2c10.55,9.62,18,21.85,20.83,35.89,1.94,9.63,4.66,25.87-5.52,29.48,2.32,1.1-1.29,1,3.14.41q0,1.12-1.82,1c1.72-.41,3.07,1.46,3.94,1.55,0.32,0,2.48-2.71-.06.67,4.77-2.34,5-8.21,5.71-13.37C-534.14,631.32-533.17,633.17-532.6,629.16Z" transform="translate(701.83 -405.92)"/></g><path class="cls-33" d="M-610.83,444.58s3.51,0.77,4.59,2.45S-614.34,443.67-610.83,444.58Z" transform="translate(701.83 -405.92)"/><path class="cls-33" d="M-607,443.71s3.51,0.77,4.58,2.45S-610.52,442.79-607,443.71Z" transform="translate(701.83 -405.92)"/><path class="cls-33" d="M-614.5,446.66s3.29,1.45,4,3.31S-617.76,445.06-614.5,446.66Z" transform="translate(701.83 -405.92)"/><path class="cls-33" d="M-623.41,446.84s2.87,0.31,3.87,1.57S-626.29,446.4-623.41,446.84Z" transform="translate(701.83 -405.92)"/><path class="cls-33" d="M-602.42,449s3.19,1.67,3.78,3.57S-605.57,447.14-602.42,449Z" transform="translate(701.83 -405.92)"/><path class="cls-33" d="M-603.72,460.65s2.3,2.76,2.11,4.75S-605.93,457.76-603.72,460.65Z" transform="translate(701.83 -405.92)"/><g class="cls-34"><path class="cls-9" d="M-674.93,601.49c1.14,1.87.35-9.08,0.41-9.12A11.48,11.48,0,0,0-674,594c-0.2-.26-0.15-13-0.35-14,0.47,1.18,1,3.93,2.08,4.7,0.58,0.4-.1-9.22,0-8.6,0.09,0.24.6,1.49,1.13,1.36,2.13-.54-1.1-13.81-1.13-14,0.78,0.94.68,2.38,1.28,3.41-0.51-.88-0.47-7.82-0.53-8.43,1.82,4.24.3-10.28,0.18-10.77,2.83,6.8,1.28-5.17.93-6.31,0.12,0.2,1.61,1.72,1.81.51,0.33-2-3.33-6.14-4-7,0.21,0.29,2.37,1.41,2.44.21a6.57,6.57,0,0,0-3.18-3.56c2.56,0.81-2.82-3.16-5.39-3a8.5,8.5,0,0,0,2.21-1.11c1-3.49-9.23,2.08-10.38,4.07,1.91-4.56-2.24.82-3,2.57s-3.51,11.81-1.24,13a2.15,2.15,0,0,0,1.11-2c0.08-.73-0.84,8.2,0,7.79a5.89,5.89,0,0,0,1.16-1.66c-0.27,2.23.37,10.9,0.55,10,0.06,1.38,1.82,11.18,1.57,11.47a5.39,5.39,0,0,0,.47-2.19c0.55,5.38.71,11.7,2.6,16.82,0.18,0.49,2.52,8.67,2.78,4,0-.57-0.07,8.22,1.37,7.47a4.61,4.61,0,0,0,1.23-1.72c0,1.17-.64,8.3.76,9.5,0.35,0.3,1-1.65.91-1.52,0.3,5.75.91,17.42,4.25,21.53a1.66,1.66,0,0,0,.58-2c0-.44.08,6.95,1.62,7.06,1.31,0.09.77-4.79,0.79-4.65,3,5.83,0-6.51-.44-8.54-1.23-5.32-2.38-11.58-4.94-16.9C-672.89,604.84-672.51,606.51-674.93,601.49Z" transform="translate(701.83 -405.92)"/></g><path class="cls-35" d="M-585.27,535.65c2,6.61,1.7,13.59.38,20.26-0.2,1-1.16,11.88-2.64,12.93a2.18,2.18,0,0,1-2-2c0.26,2.34,2,12.51-.83,14.26a1.29,1.29,0,0,1-.74-1.69c0,1-.2,15.86-4.26,10.1,0.1,1.67.76,15.55-2.69,9.88,0.48,1.76,2.49,14.64.22,10.32,1.74,4.17,1.25,14.33-.53,17.32-3.46,5.81-4.14,2.58-3.73-4.75-1,4.83-2.92-9.18-2.92-9.2s-0.86,1.7-1,1.49c-1.14-1.39.06-7.91,0.14-9.12,0,0.36-.28,2.27-1,2-2.45-.77-1.65-12.82-1.65-13.71,0,0.27-.61,4.21-1.28,3.88-1.61-.82-1.37-9-1.42-9.93q0.05,2.4-1.71,2.12c-1.11-1.19-1.34-3.93-1.43-5.49-0.09.51-.58,2.19-1.37,2.16-1.65-.07-2.27-7.54-2.22-7.1-0.65,6.07-7-8-3.59-7-0.48-.58-5-6.8-3.88-8.56,0.19-.3,2.64,3,2.84,2,0.1-.48-3.4-19.72-3.07-19.32,0.2,0.24,1.32,4.49,1.44,4.24,2-4.05-.52-10.49,1.55-15.14,0.36-.82,4.34-6.62,4.63-5.82s-1.39,4.9-1.78,5.3c3.19-3.26,6.83-16.94,12.79-16.38,0.94,0.09-.6,5.61-0.6,5.62,1.91-3.75,3.25-5.52,6.62-7.21,1.13-.57,1.51,2.85,1.23,3.39,2.78-3.63,6-4.3,10-2.73,0.62,0.24,5.39,4.3,4.17,4.58-1,.23-3.61-1.59-4.48-0.73,1.66,0.87,5.58,3.52,5.9,5.82q-1.12,2-3.43,0c1.67,1.35,8.86,8.08,2.47,8.08C-582.58,544.41-577.86,535.65-585.27,535.65Z" transform="translate(701.83 -405.92)"/><g class="cls-34"><path class="cls-14" d="M-684.08,557.16l-2.51,3.47c-0.36.84,2.89-4,2.51-3.47C-684.93,558.32-684,557-684.08,557.16Z" transform="translate(701.83 -405.92)"/><path class="cls-14" d="M-683.08,559.09c-1.56,1.15-5,4.47-4.17,7.12a66.4,66.4,0,0,1,4.17-7.12C-684.24,559.95-682.88,559-683.08,559.09Z" transform="translate(701.83 -405.92)"/><path class="cls-14" d="M-685,564.08a5.82,5.82,0,0,0-1.55,2.82c0,0.7,1.78-3.2,1.55-2.82C-685.47,564.94-684.86,563.92-685,564.08Z" transform="translate(701.83 -405.92)"/><path class="cls-14" d="M-682.17,563.77a9,9,0,0,0-2.88,6.76c0,0.08,2.77-6.59,2.88-6.76h0Z" transform="translate(701.83 -405.92)"/><path class="cls-14" d="M-683.37,569.62a6.85,6.85,0,0,0-1.32,4,22.65,22.65,0,0,0,1.32-4h0Z" transform="translate(701.83 -405.92)"/><path class="cls-14" d="M-678.09,566.63a5.8,5.8,0,0,0-2,4.38c0.15,0.58,2.21-4.51,2-4.38C-678.76,567.11-677.93,566.52-678.09,566.63Z" transform="translate(701.83 -405.92)"/><path class="cls-14" d="M-680.14,567.48l-1.13,3.45c0,0.3,1.19-3.62,1.13-3.45C-680.52,568.62-680.11,567.36-680.14,567.48Z" transform="translate(701.83 -405.92)"/><path class="cls-14" d="M-680.06,573.55c-0.41.24-2.62,3.83-1.33,4.74,0.3,0.21,1-4.57,1.33-4.74h0Z" transform="translate(701.83 -405.92)"/><path class="cls-14" d="M-678.8,574.8q-1.32,1.31-.29,1.58,1.25-1.3.29-1.58C-679,575.25-678.71,574.62-678.8,574.8Z" transform="translate(701.83 -405.92)"/><path class="cls-14" d="M-676.48,596.61c-0.83,2.3-1.09,6.48,1.18,8.2-0.63-.48-1.54-7.22-1.18-8.2C-677.35,599-676.42,596.45-676.48,596.61Z" transform="translate(701.83 -405.92)"/><path class="cls-14" d="M-676.8,604.32a6.64,6.64,0,0,0,3,5c-0.23-.12-3-5-3-5C-676.63,606.11-676.81,604.18-676.8,604.32Z" transform="translate(701.83 -405.92)"/><path class="cls-14" d="M-677,578a4.74,4.74,0,0,0-.32,3.08c0.22,0.47.44-3.56,0.32-3.08h0Z" transform="translate(701.83 -405.92)"/><path class="cls-14" d="M-685.63,537.28a6.47,6.47,0,0,0-4.37,4.39s4.18-4.29,4.37-4.39h0Z" transform="translate(701.83 -405.92)"/><path class="cls-14" d="M-688.22,541.06q-1.82.84-.92,1.53,1.48-.66.92-1.53h0Z" transform="translate(701.83 -405.92)"/><path class="cls-14" d="M-688.62,544.28a4.78,4.78,0,0,0-.76,1.64c0,0.54,1-2,.76-1.64h0Z" transform="translate(701.83 -405.92)"/><path class="cls-14" d="M-687.11,547c-1.43,1.84-.44.55,0,0h0Z" transform="translate(701.83 -405.92)"/><path class="cls-14" d="M-676.55,584.9c0,0.78-1.54,4,.46,4.55,0,0-.47-4.34-0.46-4.55S-676.59,585.59-676.55,584.9Z" transform="translate(701.83 -405.92)"/><path class="cls-14" d="M-674.85,588.52q-1.16.59,0.38,2.07c0.34,0.33-.45-2.32-0.38-2.07h0Z" transform="translate(701.83 -405.92)"/></g><g class="cls-34"><path class="cls-14" d="M-616.63,570.7l-2,3.77c-0.25.88,2.34-4.31,2-3.77h0Z" transform="translate(701.83 -405.92)"/><path class="cls-14" d="M-615.38,572.48c-1.4,1.33-4.42,5.09-3.21,7.6a66.72,66.72,0,0,1,3.21-7.6h0Z" transform="translate(701.83 -405.92)"/><path class="cls-14" d="M-616.61,577.67a5.83,5.83,0,0,0-1.17,3c0.11,0.68,1.35-3.41,1.17-3C-617,578.58-616.53,577.5-616.61,577.67Z" transform="translate(701.83 -405.92)"/><path class="cls-14" d="M-613.88,577a9,9,0,0,0-2,7.08c0,0.07,1.89-6.88,2-7.08C-614.41,578.16-613.8,576.82-613.88,577Z" transform="translate(701.83 -405.92)"/><path class="cls-14" d="M-614.31,583a6.84,6.84,0,0,0-.79,4.15,23.67,23.67,0,0,0,.79-4.15h0Z" transform="translate(701.83 -405.92)"/><path class="cls-14" d="M-609.47,579.31a5.82,5.82,0,0,0-1.43,4.6c0.22,0.56,1.6-4.76,1.43-4.6C-610.07,579.87-609.33,579.18-609.47,579.31Z" transform="translate(701.83 -405.92)"/><path class="cls-14" d="M-611.39,580.42l-0.68,3.56c0,0.34.72-3.8,0.68-3.56C-611.62,581.6-611.37,580.29-611.39,580.42Z" transform="translate(701.83 -405.92)"/><path class="cls-14" d="M-610.52,586.43c-0.37.29-2.11,4.13-.71,4.87,0.31,0.16.43-4.65,0.71-4.87C-611.19,586.95-610.36,586.3-610.52,586.43Z" transform="translate(701.83 -405.92)"/><path class="cls-14" d="M-609.11,587.5q-1.15,1.47-.08,1.6,1.07-1.45.08-1.6C-609.26,588-609.05,587.31-609.11,587.5Z" transform="translate(701.83 -405.92)"/><path class="cls-14" d="M-604,608.83c-0.53,2.39-.25,6.56,2.23,8-0.7-.41-2.46-6.95-2.23-8C-604.55,611.3-604,608.67-604,608.83Z" transform="translate(701.83 -405.92)"/><path class="cls-14" d="M-603.31,616.52a6.65,6.65,0,0,0,3.59,4.59c-0.24-.08-3.59-4.62-3.59-4.59C-602.91,618.28-603.34,616.38-603.31,616.52Z" transform="translate(701.83 -405.92)"/><path class="cls-14" d="M-606.91,590.42a4.75,4.75,0,0,0,.08,3.1c0.29,0.45,0-3.58-.08-3.1C-607,591.37-606.89,590.28-606.91,590.42Z" transform="translate(701.83 -405.92)"/><path class="cls-14" d="M-620.74,551.19a6.48,6.48,0,0,0-3.77,4.92s3.6-4.8,3.77-4.92h0Z" transform="translate(701.83 -405.92)"/><path class="cls-14" d="M-622.82,555.26q-1.69,1.07-.71,1.64,1.37-.84.71-1.64C-623.2,555.7-622.68,555.11-622.82,555.26Z" transform="translate(701.83 -405.92)"/><path class="cls-14" d="M-622.79,558.51a4.92,4.92,0,0,0-.54,1.73c0.09,0.52.69-2.09,0.54-1.73h0Z" transform="translate(701.83 -405.92)"/><path class="cls-14" d="M-620.94,561c-1.17,2-.37.63,0,0h0Z" transform="translate(701.83 -405.92)"/><path class="cls-14" d="M-605.58,597.23c0.06,0.79-1,4.16,1,4.45,0,0-1-4.24-1-4.45h0Z" transform="translate(701.83 -405.92)"/><path class="cls-14" d="M-603.42,600.61q-1.08.72,0.65,2c0.37,0.28-.75-2.23-0.65-2h0Z" transform="translate(701.83 -405.92)"/></g><g class="cls-13"><path class="cls-9" d="M-508.49,544.88c-0.78-12.33-4.81-20.57-7.6-32.13-1.77-7.34-4.07-17.58-9.85-24.24,4.55,0.73-3.07-6.66-3.46-7.05,6.8,2.67-7.05-11.74-8.32-13.45-4.68-6.31-8.58-9.39-14.84-14.2-4.55-3.49-9.72-5-14.14-8.57-1.24-1-.1-3.18-1.16-4-1.88-1.41-12.35-4.7-7.82.08-2.93.64-4,2.8,0,3-2.24,1.34-2.28,2,.23,2.57-1.32.88-5.5,4.23,0.05,3.62-4.11,3.78-1.29,3.62,1.6,3a5.09,5.09,0,0,0-1.55,4.41q2.22,0.47,3.11-2.55c0,3.68,0,4.11,2,2-0.56,3.31-.21,12.13,3.07,4.33,0.74,2,5.92,4.45,8.42,3.41q-3.49,1.9-2.27,4.2a13.15,13.15,0,0,0,6.56-.82c-2.08,3.19,1.63,3.76,4,3.69-1.51,2.33-1.54,2.8,2.54,3-2.21,1.32-3.08,2.53-.4,2.89-2,2-1.86,2.3,2.63,3.77a1.93,1.93,0,0,0-1.95.49c0.58-1,3.93,4.73,5.94,4.77-2.09,1.32-4.89,3.82-1.11,4.28-3.32,2.25-.21,2.14,2.28,2.17-1.76,1.79-2.13,3.29,1.38,2.38-2.47,5.35-3.93,5.7,3.43,5.73-1.43,2-1.86,2.56.86,2.53-3.7,3.59-1.79,3.58,1.57,4-2.77,1.89-5.33,3.16.26,3.42-2.55,1.62-.72,2.33,2.93,2.41-4.1,4.4-.12,2.1,2.61,1-0.27.63-2.15,7.32,0.52,4.7-2.61,5.59-.82,4.31,1.06,2.58,0.82,4,1.51,3.1,2.26,7.48q1.18,0.54,1.82-1c0,4.88,1,7,3.43,2.32,0.59,2.8.68,6.1,3.48,1.33,0.6,7.19.32,18,3.67,25.57,0.54,1.24,2.84-11.9,2.75-13.21C-508.8,539.93-508.22,549-508.49,544.88Z" transform="translate(701.83 -405.92)"/></g><g class="cls-13"><path class="cls-14" d="M-543.13,467.17l4.19,0.87c0.82,0.36-4.79-1-4.19-.87C-541.72,467.44-543.3,467.14-543.13,467.17Z" transform="translate(701.83 -405.92)"/><path class="cls-14" d="M-542.57,469.27c1.92-.21,6.74-0.1,7.88,2.44a66.69,66.69,0,0,0-7.88-2.44C-541.13,469.12-542.8,469.3-542.57,469.27Z" transform="translate(701.83 -405.92)"/><path class="cls-14" d="M-537.81,471.69a5.84,5.84,0,0,1,3,1c0.45,0.53-3.44-1.16-3-1C-536.85,472-538,471.63-537.81,471.69Z" transform="translate(701.83 -405.92)"/><path class="cls-14" d="M-540.08,473.33a9.07,9.07,0,0,1,6.7,3c0,0.07-6.51-3-6.7-3h0Z" transform="translate(701.83 -405.92)"/><path class="cls-14" d="M-535.25,476.84a6.88,6.88,0,0,1,3.68,2.07,21.88,21.88,0,0,1-3.68-2.07C-534.52,477-535.43,476.8-535.25,476.84Z" transform="translate(701.83 -405.92)"/><path class="cls-14" d="M-541.16,478.2a5.82,5.82,0,0,1,4.45,1.87c0.28,0.52-4.67-1.84-4.45-1.87h0Z" transform="translate(701.83 -405.92)"/><path class="cls-14" d="M-539.07,477.43l3.16,1.78c0.24,0.21-3.35-1.88-3.16-1.78C-538,478-539.18,477.38-539.07,477.43Z" transform="translate(701.83 -405.92)"/><path class="cls-14" d="M-535,482c0.47-.1,4.51,1.05,4.18,2.6-0.08.35-3.83-2.67-4.18-2.6h0Z" transform="translate(701.83 -405.92)"/><path class="cls-14" d="M-535.12,483.75q1.86,0.06,1.28,1-1.8-.12-1.28-1h0Z" transform="translate(701.83 -405.92)"/><path class="cls-14" d="M-522.11,501.4c2.17,1.14,5.18,4,4.66,6.85,0.14-.78-3.74-6.36-4.66-6.85C-519.87,502.58-522.26,501.32-522.11,501.4Z" transform="translate(701.83 -405.92)"/><path class="cls-14" d="M-516.68,506.88a6.64,6.64,0,0,1,1.2,5.7c0.09-.23-1.21-5.72-1.2-5.7C-515.59,508.32-516.76,506.77-516.68,506.88Z" transform="translate(701.83 -405.92)"/><path class="cls-14" d="M-534.31,487.31a4.73,4.73,0,0,1,2.31,2.06c0.16,0.51-2.75-2.33-2.31-2.06C-533.5,487.82-534.43,487.24-534.31,487.31Z" transform="translate(701.83 -405.92)"/><path class="cls-14" d="M-563.48,450.23a6.47,6.47,0,0,1,6.17-.53s-6,.45-6.17.53C-561.89,449.6-563.67,450.3-563.48,450.23Z" transform="translate(701.83 -405.92)"/><path class="cls-14" d="M-558.93,450.67q1.81-.86,1.77.28-1.45.7-1.77-.28C-558.35,450.58-559.13,450.7-558.93,450.67Z" transform="translate(701.83 -405.92)"/><path class="cls-14" d="M-556.2,452.44a4.79,4.79,0,0,1,1.75.47c0.4,0.36-2.12-.54-1.75-0.47h0Z" transform="translate(701.83 -405.92)"/><path class="cls-14" d="M-555.07,455.36h0Z" transform="translate(701.83 -405.92)"/><path class="cls-14" d="M-530,492.72c0.57,0.54,3.81,1.93,2.73,3.67,0,0-2.59-3.52-2.73-3.67h0Z" transform="translate(701.83 -405.92)"/><path class="cls-14" d="M-528.77,496.55q1.25-.34,1.11,1.79c0,0.46-1.23-2-1.11-1.79h0Z" transform="translate(701.83 -405.92)"/></g><g class="cls-13"><path class="cls-4" d="M-452.68,616.5c-6.81-12.9-17.15-22.36-28.84-30.62-4.88-3.45-8.37-8.15-13-11.77-2.16-1.7-8.63-3.27-4.66-1.35a3.13,3.13,0,0,0-1.7,1.44q0.72,1.41,2.8.58c-0.68,1-1,4-1,5.35s1.85-1.76,1.37-1q-1.54,2.4.07,3.29a2.57,2.57,0,0,0,1.3-1.49c0,3.79,2,6.86,4.29,10.2,0.81,1.2,1.08-3.41,1-2,0.54,1,5.42,8.57,5.71,5.73-1.08-2.34,1.88,5.83,2.42,2.76,0.25,0.67,2.69,9.39,3.75,7.26,0.16,0.55,3.33,4.85,1.71,3a1.33,1.33,0,0,0,1.26-1.53c0.57,2,1.46,2.38,1.65.41,1,2.94,3.1,4.49,3.19,1.43q0.46,3.29,2.67,3a2.73,2.73,0,0,0,.22-3.25q1.61,2.86,3.3,5.66a16.65,16.65,0,0,0,1.8-2.26c-0.93-1.22,3.24,4.71,3.56,2.06,0.27,0.74,3.17,6.55,3.35,3.85a11.85,11.85,0,0,0,4.22,3.88c1.83,0.92-.69-5.19-0.44-4.7h0Z" transform="translate(701.83 -405.92)"/></g><g class="cls-13"><path class="cls-14" d="M-480.21,594l-0.38,4.26c0.13,1,.46-4.94.38-4.26C-480.35,595.41-480.19,593.81-480.21,594Z" transform="translate(701.83 -405.92)"/><path class="cls-14" d="M-478.36,595.13c-0.75,1.78-2.05,6.42.05,8.25a64.2,64.2,0,0,1-.05-8.25C-478.92,596.46-478.27,594.91-478.36,595.13Z" transform="translate(701.83 -405.92)"/><path class="cls-14" d="M-477.43,600.38a5.82,5.82,0,0,0,.11,3.21c0.38,0.58-.11-3.64-0.11-3.21C-477.44,601.37-477.43,600.19-477.43,600.38Z" transform="translate(701.83 -405.92)"/><path class="cls-14" d="M-475.2,598.69a9,9,0,0,0,1,7.29s-1-7.07-1-7.29C-475.22,600-475.19,598.49-475.2,598.69Z" transform="translate(701.83 -405.92)"/><path class="cls-14" d="M-473.23,604.33a6.88,6.88,0,0,0,.91,4.12,22.4,22.4,0,0,0-.91-4.12C-473.26,605.08-473.23,604.14-473.23,604.33Z" transform="translate(701.83 -405.92)"/><path class="cls-14" d="M-470.23,599.06a5.81,5.81,0,0,0,.5,4.8c0.42,0.42-.41-5-0.5-4.8C-470.56,599.82-470.15,598.88-470.23,599.06Z" transform="translate(701.83 -405.92)"/><path class="cls-14" d="M-471.56,600.83l0.79,3.54c0.12,0.27-.83-3.73-0.79-3.54C-471.3,602-471.59,600.71-471.56,600.83Z" transform="translate(701.83 -405.92)"/><path class="cls-14" d="M-468.38,606c-0.23.41-.3,4.63,1.28,4.75,0.35,0-1.44-4.44-1.28-4.75C-468.79,606.76-468.28,605.84-468.38,606Z" transform="translate(701.83 -405.92)"/><path class="cls-14" d="M-466.66,606.45q-0.47,1.8.56,1.5,0.41-1.74-.56-1.5C-466.61,606.95-466.68,606.24-466.66,606.45Z" transform="translate(701.83 -405.92)"/><path class="cls-14" d="M-463.49,608.26a4.77,4.77,0,0,0,1.3,2.81c0.43,0.3-1.43-3.29-1.3-2.81C-463.23,609.18-463.53,608.11-463.49,608.26Z" transform="translate(701.83 -405.92)"/><path class="cls-14" d="M-493.74,582c-0.19,1.64-.81,5,1,6.1,0,0-1.07-5.89-1-6.1C-493.94,583.67-493.71,581.77-493.74,582Z" transform="translate(701.83 -405.92)"/><path class="cls-14" d="M-492.16,586.27q-0.37,1.95.71,1.64,0.32-1.59-.71-1.64C-492.1,586.84-492.18,586.05-492.16,586.27Z" transform="translate(701.83 -405.92)"/><path class="cls-14" d="M-489.77,588.45a4.81,4.81,0,0,0,.9,1.57c0.45,0.29-1.06-1.92-.9-1.57S-489.86,588.24-489.77,588.45Z" transform="translate(701.83 -405.92)"/><path class="cls-14" d="M-486.65,588.82h0Z" transform="translate(701.83 -405.92)"/><path class="cls-14" d="M-459.57,614c0.38,0.7.71,4.22,2.72,3.68,0,0-2.62-3.49-2.72-3.68h0Z" transform="translate(701.83 -405.92)"/><path class="cls-14" d="M-456.25,616.23q-0.71,1.09,1.39,1.58c0.45,0.1-1.57-1.76-1.39-1.58h0Z" transform="translate(701.83 -405.92)"/></g><path class="cls-36" d="M-675,640.67l-2.77,2c0.81,0.3,2.6-1.52,3.55-1.94q0.9-1.79-.79,0C-676.08,641.17-674.61,640.47-675,640.67Z" transform="translate(701.83 -405.92)"/><path class="cls-36" d="M-674.75,642.66l-2.3,1.72c1.18-.08,4.72-2,4.29-3.12l-2,1.4h0Z" transform="translate(701.83 -405.92)"/><path class="cls-36" d="M-669.86,642.24a11.31,11.31,0,0,0-3.5,3.38c0.68-.19,4.52-2.45,3.5-3.38C-670.31,642.77-669.79,642.31-669.86,642.24Z" transform="translate(701.83 -405.92)"/><path class="cls-36" d="M-667,642.73a6,6,0,0,1-2.24,3.33c1.36-.45,3.66-1.94,2.24-3.33C-667,643-666.78,642.94-667,642.73Z" transform="translate(701.83 -405.92)"/><path class="cls-36" d="M-662.62,642.61c0,0.63-1.78,2.56-2,3.1,1.09-.85,3.54-1.84,2-3.1h0Z" transform="translate(701.83 -405.92)"/><path class="cls-37" d="M-675.08,640.12c-0.44.25-2.73,1.43-2.78,1.86C-677.67,640.42-675.84,640.71-675.08,640.12Z" transform="translate(701.83 -405.92)"/><path class="cls-37" d="M-674,641.4c-0.5.32-3.25,1.63-3.31,2.15C-677.12,641.73-674.91,642.08-674,641.4Z" transform="translate(701.83 -405.92)"/><path class="cls-37" d="M-668.33,642.83c-0.37.54-2.67,2.91-2.53,3.48C-671.34,644.38-669,643.87-668.33,642.83Z" transform="translate(701.83 -405.92)"/><path class="cls-37" d="M-664.07,642.43c-0.29.59-2.21,3.27-2,3.82C-666.82,644.4-664.56,643.55-664.07,642.43Z" transform="translate(701.83 -405.92)"/><path class="cls-37" d="M-671.38,642.52c-0.64.49-4.28,2.09-4.37,2.83C-675.45,642.9-672.41,643.3-671.38,642.52Z" transform="translate(701.83 -405.92)"/><path class="cls-36" d="M-608,642c-0.62-1.38-6.6,3.11-7.35,3.49,2.72-.22,4.87-3.49,7.35-3.49C-608.11,641.8-608,642-608,642Z" transform="translate(701.83 -405.92)"/><path class="cls-36" d="M-606.8,644.19c-0.25-.63-7.77,4.67-9.58,5,1.24,0.42,10.72-2.08,9.58-5h0Z" transform="translate(701.83 -405.92)"/><path class="cls-36" d="M-602.94,644.38c0.46,1.71-1.91,4.66-2.68,6,1.6-1.28,5.93-4.26,2.68-6C-602.6,645.64-602.39,644.68-602.94,644.38Z" transform="translate(701.83 -405.92)"/><path class="cls-36" d="M-597.25,645.09c0.4,1.77-1.29,4.21-2.11,5.7,1.38-1.39,5.64-4.44,2.11-5.7C-596.93,646.51-596.66,645.3-597.25,645.09Z" transform="translate(701.83 -405.92)"/><path class="cls-36" d="M-591.35,645.83c-1.63-1.12-1.57,3.91-2.57,5.91C-592.49,650-592.09,647.88-591.35,645.83Z" transform="translate(701.83 -405.92)"/><path class="cls-37" d="M-610.54,642.26c-0.81.47-4.86,1.59-5.12,2.42C-614.84,642-611.79,643-610.54,642.26Z" transform="translate(701.83 -405.92)"/><path class="cls-37" d="M-608.61,643.54c-0.46.23-7.75,4.42-7.46,5C-617.11,646.48-609.54,644-608.61,643.54Z" transform="translate(701.83 -405.92)"/><path class="cls-37" d="M-604.92,644.83c-0.68,1-4.19,5.95-3.73,6.79C-609.81,649.49-605.52,646-604.92,644.83Z" transform="translate(701.83 -405.92)"/><path class="cls-37" d="M-599.6,645.24c-0.59,1-3.62,6.3-3.09,7.1C-604,650.31-600.08,646.4-599.6,645.24Z" transform="translate(701.83 -405.92)"/><path class="cls-37" d="M-593.68,645.58c-0.33,1.53-1.85,4.48-1.67,5.95C-595.68,648.8-594.19,647.73-593.68,645.58Z" transform="translate(701.83 -405.92)"/><path class="cls-36" d="M-580.33,629.14c-1.54-1.64-4.82,4.42-6.4,5.69,1.48,0,7.15-4.78,6.4-5.69C-580.54,628.92-580.32,629.16-580.33,629.14Z" transform="translate(701.83 -405.92)"/><path class="cls-36" d="M-578.58,630.11c-0.68-.51-3.07,6.34-3.19,6.51,1.61-.64,4.53-5.51,3.19-6.51h0Z" transform="translate(701.83 -405.92)"/><path class="cls-36" d="M-575.3,630.73c-0.14,1.91-1.88,6.15-3.51,7.23,1.93-1,6.38-5.92,3.51-7.23C-575.35,631.41-574.86,630.93-575.3,630.73Z" transform="translate(701.83 -405.92)"/><path class="cls-36" d="M-570.34,633.23c-0.18-2.68-4.09,3.81-5.36,4.82,0.71,0.45,5.4-3.94,5.36-4.82C-570.37,632.67-570.33,633.29-570.34,633.23Z" transform="translate(701.83 -405.92)"/><path class="cls-36" d="M-567.84,634.24c0-.9-0.17-4.18-1.55-1.94,0.5-.53,1.6,4,1.62,4l-0.07-2h0Z" transform="translate(701.83 -405.92)"/><path class="cls-37" d="M-582.5,628.8c-1.06.86-4.86,4-4.71,5.32C-587.52,631.43-583.88,629.89-582.5,628.8Z" transform="translate(701.83 -405.92)"/><path class="cls-37" d="M-580.13,630.43c-0.39,1-3.09,4.79-2.61,5.86C-583.74,634.05-581,631.75-580.13,630.43Z" transform="translate(701.83 -405.92)"/><path class="cls-37" d="M-577,631.16c-0.29,1-2.6,5.06-2,6.09C-580.24,635.11-577.77,632.57-577,631.16Z" transform="translate(701.83 -405.92)"/><path class="cls-37" d="M-572.42,632c-0.45.89-3.34,4.23-3,5.28C-576.14,635.09-573.38,633.17-572.42,632Z" transform="translate(701.83 -405.92)"/><path class="cls-37" d="M-566.3,631.59c-0.24.91-.36,3.82-0.83,4.37C-565.75,634.33-566.4,633.2-566.3,631.59Z" transform="translate(701.83 -405.92)"/><path class="cls-36" d="M-543.4,639.52c-0.37-.41-3.48,3.51-4.46,4.36,1.68-.61,6.25-2.34,4.46-4.36h0Z" transform="translate(701.83 -405.92)"/><path class="cls-36" d="M-540.36,641.77c-0.28,1.54-1.7,3-2.76,4.11,1.84-1.15,4.59-1.64,2.76-4.11C-540.57,642.95-540,642.25-540.36,641.77Z" transform="translate(701.83 -405.92)"/><path class="cls-36" d="M-537.25,642.77a6.7,6.7,0,0,1-2.88,5.89c-0.3.6,5.91-4.89,2.88-5.89C-536.87,643.6-536.81,642.92-537.25,642.77Z" transform="translate(701.83 -405.92)"/><path class="cls-36" d="M-532.55,643.22c0.34,1.07-1.14,3.63-1.63,4.42,1.74-1.95,3.09-2.73,1.63-4.42C-532.5,643.37-532.32,643.49-532.55,643.22Z" transform="translate(701.83 -405.92)"/><path class="cls-36" d="M-530.36,645.5a4.14,4.14,0,0,1,.27-2.78c-1.45.85-1.59,4.4,0,5.12l-0.28-2.33C-530.37,644.76-530.34,646.28-530.36,645.5Z" transform="translate(701.83 -405.92)"/><path class="cls-37" d="M-544.37,639.69c-0.78.7-4.75,3-4.89,3.92C-548.88,641.13-545.57,641-544.37,639.69Z" transform="translate(701.83 -405.92)"/><path class="cls-37" d="M-542.52,641.31c-0.63.84-4.08,3.86-4,4.8C-546.66,643.6-543.45,642.86-542.52,641.31Z" transform="translate(701.83 -405.92)"/><path class="cls-37" d="M-538,643c-0.48.93-3.36,4.5-3.17,5.41C-541.7,646-538.65,644.7-538,643Z" transform="translate(701.83 -405.92)"/><path class="cls-37" d="M-534.75,643.2c-0.14,1-1.52,4.67-1.1,5.43C-537,646.66-534.81,644.83-534.75,643.2Z" transform="translate(701.83 -405.92)"/><path class="cls-37" d="M-528.51,642.88c-0.19.71-.51,3.81-1,4.19C-528.12,646.06-529,644-528.51,642.88Z" transform="translate(701.83 -405.92)"/></g></g></svg>