<svg xmlns="http://www.w3.org/2000/svg" xmlns:xlink="http://www.w3.org/1999/xlink" viewBox="0 0 169.79 278.5"><defs><style>.cls-1{isolation:isolate;}.cls-2{fill:#784b49;}.cls-3,.cls-4,.cls-45{fill:#b0646a;}.cls-31,.cls-36,.cls-37,.cls-38,.cls-4{opacity:0.4;}.cls-11,.cls-14,.cls-19,.cls-20,.cls-25,.cls-26,.cls-36,.cls-4,.cls-7,.cls-8{mix-blend-mode:multiply;}.cls-5{fill:#3a3313;}.cls-44,.cls-6{fill:#575148;}.cls-7,.cls-8{fill:#635d69;}.cls-40,.cls-7{opacity:0.3;}.cls-8{opacity:0.7;}.cls-9{fill:#6a6a6a;}.cls-10,.cls-23,.cls-38,.cls-43{fill:#fff;}.cls-11{fill:#e3e3e3;}.cls-12{fill:#784341;}.cls-13,.cls-14,.cls-15,.cls-40{fill:#c75c5e;}.cls-14,.cls-22,.cls-41,.cls-42{opacity:0.5;}.cls-15,.cls-22,.cls-23,.cls-37,.cls-40,.cls-41,.cls-45{mix-blend-mode:screen;}.cls-16{fill:#4e342d;}.cls-17{fill:#ddd;}.cls-18{fill:url(#linear-gradient);}.cls-19{fill:url(#linear-gradient-2);}.cls-20{fill:url(#linear-gradient-3);}.cls-21{fill:#423f34;}.cls-22{fill:#91bcff;}.cls-23,.cls-32{opacity:0.9;}.cls-24{fill:url(#linear-gradient-4);}.cls-25{fill:url(#linear-gradient-5);}.cls-26{fill:url(#linear-gradient-6);}.cls-27{fill:#1d1d1d;}.cls-28{fill:#514d54;}.cls-29,.cls-41{fill:#5e5864;}.cls-30{fill:#4e4850;}.cls-31,.cls-32,.cls-33{fill:#3d383c;}.cls-33{opacity:0.8;}.cls-34{fill:#40403e;}.cls-35,.cls-37{fill:#665c47;}.cls-36{fill:#59513e;}.cls-39{fill:#e98874;}.cls-43{opacity:0.2;}.cls-44{mix-blend-mode:color-dodge;}</style><linearGradient id="linear-gradient" x1="1573.95" y1="681" x2="1578.33" y2="698.26" gradientTransform="matrix(-0.71, 0.09, 0.05, 0.85, 915.97, -319.35)" gradientUnits="userSpaceOnUse"><stop offset="0" stop-color="#424137"/><stop offset="0.52" stop-color="#52dcd2"/><stop offset="1" stop-color="#5ec080"/></linearGradient><linearGradient id="linear-gradient-2" x1="1573.99" y1="681.39" x2="1578.35" y2="698.56" xlink:href="#linear-gradient"/><linearGradient id="linear-gradient-3" x1="494.29" y1="459.37" x2="491.92" y2="473.41" gradientTransform="matrix(-0.98, -0.2, -0.2, 0.98, 404.18, 52.91)" gradientUnits="userSpaceOnUse"><stop offset="0" stop-color="#424137"/><stop offset="0.52" stop-color="#5cafff"/><stop offset="0.98" stop-color="#ffe961"/></linearGradient><linearGradient id="linear-gradient-4" x1="1613.17" y1="676.31" x2="1616.48" y2="689.36" xlink:href="#linear-gradient"/><linearGradient id="linear-gradient-5" x1="1613.2" y1="676.59" x2="1616.57" y2="689.84" xlink:href="#linear-gradient"/><linearGradient id="linear-gradient-6" x1="521.74" y1="464.4" x2="519.91" y2="475.26" xlink:href="#linear-gradient-3"/></defs><title>anim_85</title><g class="cls-1"><g id="Layer_1" data-name="Layer 1"><path class="cls-2" d="M-134.81,632.38c-1.65-4.2-6.73-6.09-8.12-8.91-2.2-4.46,1.69-24.68-2.3-26.84-7.46-4-5.53,24.05-6.28,28.72-2.92-1.46-10.36-1.44-13.34-.42-7.21,2.46-10.65,24.33-7.11,23.44,3.74-.94,2.55-11,7.7-13-0.39,1-2.09,14,.7,13.36,3.75-.8,1.19-11.31,7.78-12.33,0.29,0,5.89,2.07,5.84,2,1.57,2-1.41,7.36.56,9.85,3.74,4.74,5-7.76,5.38-9.82,4.83,1.13,11.76.42,9.2-6C-135.46,630.73-134.29,633.69-134.81,632.38Z" transform="translate(243.14 -381.47)"/><path class="cls-3" d="M-170.47,643.47l-1.36,4.09c0.33-.46-2.34-5.4-1.11-6.85,1.85-2.18,2.94,1.16,2.47,2.76h0Z" transform="translate(243.14 -381.47)"/><path class="cls-3" d="M-163.94,634.49c-3.11.67-4.8,3.67-5.74,6.4-1-.92-1.93-2-3.19-0.86-0.2,2.11,1.61-8.77,3.43-4.53a2.27,2.27,0,0,0-2.27-.85c0.63-1.9,1.19-3.29,2.56-2.52a4.93,4.93,0,0,1-1.28-.61c3-5.92,7.19-6.35,13.19-5.71a25.9,25.9,0,0,0-6.71,8.67C-167.18,635.19-162.6,631.44-163.94,634.49Z" transform="translate(243.14 -381.47)"/><path class="cls-3" d="M-162.43,644.2a11.71,11.71,0,0,1-.93,3.81c0-.06-5.25-7.31-0.69-6.58,2.13,0.34,2,.19,1.62,2.77h0Z" transform="translate(243.14 -381.47)"/><path class="cls-3" d="M-152,637l-2.91-.9a31.56,31.56,0,0,1,5.19-.78q0.84,3.6-2.29,1.68C-153.08,636.91-151.28,637.13-152,637Z" transform="translate(243.14 -381.47)"/><path class="cls-3" d="M-149.66,634.61c-7.1,0-10.22,4.73-14.74,6.24,0.07-2.36.44-7.28,2.86-4.57-2.1-2.33-.29-5.36,1.28-3.39-4.82-5.78,11.81-8.18,11.48-5,0.61,2.16-.64,4.39-0.88,6.67C-153.81,634.6-149.46,632.62-149.66,634.61Z" transform="translate(243.14 -381.47)"/><path class="cls-3" d="M-149.17,627c-3-3.5-3-28.48,2.88-30.86,2.13,4.37,3.15,18.64,2.39,23.81-0.73,5-1.75,3.75-5.27,7C-149.62,626.45-148.78,626.61-149.17,627Z" transform="translate(243.14 -381.47)"/><path class="cls-3" d="M-148,627c0.55-1.21-.54,2,0,0h0Z" transform="translate(243.14 -381.47)"/><path class="cls-3" d="M-146.83,647.56q-0.17,1.6-1.39,1.16c-4.07-6.77,4.86-8.72,1.39-1.16C-147,648-146.22,646.25-146.83,647.56Z" transform="translate(243.14 -381.47)"/><path class="cls-3" d="M-138.67,638.07c-9.82,2.66-2.48-.47-5.25-0.11,1.31-6,3.82-2.61,6.93-.54l-1.67.65h0Z" transform="translate(243.14 -381.47)"/><path class="cls-3" d="M-135.13,636.86c0.13-.32-6.09-3.56-6.85-3.27-3.07,1.17-3,6.4-3.46,9a2.6,2.6,0,0,0-3.63-.33c0-1.6-.18-8.59,2.63-7.05-2.86-1.47-1.87,3.56-1.91-2.81,0,0.16,2.37-.64,2-0.72-5.06-1.31,1.72-6.67,3.89-2.69a3.61,3.61,0,0,0-4.25-2.07c2.1-3.16,6.49.52,6.27,0,2.27,1.55,6.55,6.74,5.27,9.9C-135.37,637.43-134.61,635.57-135.13,636.86Z" transform="translate(243.14 -381.47)"/><path class="cls-4" d="M-164.92,637.61a31.73,31.73,0,0,1,6.12-9.94c-4.57,3.62-7.56,4.56-10.49,9.77-0.54,1-2.81,11.53-4.64,5.4,0,0.52-.08,6,2,5.53,3.74-.94,2.55-11,7.7-13l-0.65,2.29C-163.52,634-164.76,636.83-164.92,637.61Z" transform="translate(243.14 -381.47)"/><path class="cls-4" d="M-134.81,632.38c-1.64-4.19-6.73-6.09-8.12-8.91-2.61-5.3,2.28-23.23-2.5-26.55-6.43-4.47-5.58,19.91-5.77,25.08,0-.32,3-2.74,1.87.06q0.9-2.37,2.61-1.9c1,4-4.41,7.35-4.56,3.17-0.37,4.39-1.15-.18-4.23,1.28,2.17,0,5.49,1.68,4.89,4.36-0.53,2.39-4,1.11-5.23,2.43-2.77,2.9-9.84,9-8.77,13.55a17.46,17.46,0,0,1,.47-8c-0.53,1.3-2.09,12.31.6,11.73,3.75-.8,1.19-11.31,7.78-12.33,0.29,0,5.89,2.07,5.84,2,1.57,2-1.41,7.36.56,9.85,3.74,4.74,5-7.76,5.38-9.82,4.83,1.13,11.76.42,9.2-6C-135.46,630.73-134.29,633.69-134.81,632.38Zm-9.5-.37c-3.55,3.5-.62,12.66-4.61,15,1-.58-2.27-17.41,2.16-20.39,4.86-3.27,6.28,1.58,2.44,5.37h0Z" transform="translate(243.14 -381.47)"/><path class="cls-2" d="M-105.73,635.41c-1.65-4.19-6.73-6.1-8.12-8.91-2.2-4.46,1.68-24.7-2.31-26.85-7.46-4-5.53,24.06-6.29,28.73-1.81-1.81-11.42-1.08-13.33-.43-7.23,2.47-10.62,24.33-7.11,23.44,3.72-.94,2.58-11,7.7-13.05-0.39,1.05-2.11,13.94.7,13.37,3.76-.8,1.19-11.32,7.78-12.33,0.3,0,5.88,2.07,5.83,2,1.57,2-1.41,7.36.55,9.85,3.74,4.73,5-7.76,5.38-9.82,4.84,1.1,11.74.43,9.2-6h0Z" transform="translate(243.14 -381.47)"/><path class="cls-3" d="M-141.39,646.49l-1.36,4.09c0.34-.48-2.35-5.39-1.1-6.85,1.85-2.16,2.93,1.16,2.46,2.76h0Z" transform="translate(243.14 -381.47)"/><path class="cls-3" d="M-134.85,637.52c-3.12.66-4.8,3.67-5.74,6.4-1-.93-1.92-2-3.2-0.86-0.23,2.24,1.63-8.81,3.44-4.53a2.28,2.28,0,0,0-2.28-.85c0.67-2,1.18-3.24,2.56-2.51-5.32-2.94,9.62-6.56,11.92-6.32a25.93,25.93,0,0,0-6.7,8.67C-138.1,638.21-133.52,634.47-134.85,637.52Z" transform="translate(243.14 -381.47)"/><path class="cls-3" d="M-133.35,647.23a12.23,12.23,0,0,1-.93,3.81c0-.07-5.19-7.33-0.68-6.58,2.12,0.35,2,.18,1.61,2.77C-133.47,648-133.24,646.51-133.35,647.23Z" transform="translate(243.14 -381.47)"/><path class="cls-3" d="M-122.95,640.06l-2.9-.9a31.24,31.24,0,0,1,5.2-.78q0.83,3.59-2.29,1.68h0Z" transform="translate(243.14 -381.47)"/><path class="cls-3" d="M-120.58,637.63c-7.11,0-10.2,4.75-14.74,6.25,0-2.35.51-7.31,2.86-4.58-2.1-2.33-.28-5.35,1.28-3.39-4.81-5.78,11.81-8.17,11.48-4.95,0.63,2.15-.64,4.4-0.88,6.67C-124.73,637.63-120.37,635.65-120.58,637.63Z" transform="translate(243.14 -381.47)"/><path class="cls-3" d="M-120.08,630c-3-3.49-3-28.47,2.88-30.86,2.13,4.38,3.15,18.63,2.39,23.81-0.73,5-1.73,3.75-5.27,7C-120.54,629.47-119.7,629.64-120.08,630Z" transform="translate(243.14 -381.47)"/><path class="cls-3" d="M-118.93,630.08c0.62-1.24-.52,2.08,0,0C-118.92,630.06-119,630.3-118.93,630.08Z" transform="translate(243.14 -381.47)"/><path class="cls-3" d="M-117.74,650.59q-0.17,1.59-1.39,1.16c-4.08-6.76,4.87-8.74,1.39-1.16h0Z" transform="translate(243.14 -381.47)"/><path class="cls-3" d="M-109.6,641.09c-9.77,2.66-2.46-.37-5.25-0.11,1.29-6,3.85-2.58,6.93-.53l-1.68.65h0Z" transform="translate(243.14 -381.47)"/><path class="cls-3" d="M-106.05,639.89c0.13-.33-6.1-3.56-6.85-3.27-3.08,1.17-3,6.4-3.47,9a2.6,2.6,0,0,0-3.62-.34c0-1.59-.16-8.6,2.62-7.05-2.87-1.43-1.87,3.52-1.91-2.81,0,0.15,2.38-.63,2-0.72-5-1.26,1.66-6.7,3.89-2.69a3.6,3.6,0,0,0-4.25-2.07c2.09-3.16,6.49.5,6.27,0,2.28,1.56,6.55,6.73,5.27,9.9h0Z" transform="translate(243.14 -381.47)"/><path class="cls-4" d="M-135.16,637.34c1.43-2.84,3.86-5,5.67-7.54-4.89,1.15-8.39,4.76-10.69,9-0.84,1.56-2.49,11.89-4.68,7.6q-0.95,3.81,2,5s7.41-13.42,7.72-14.05C-133.71,634.46-135.35,637.74-135.16,637.34Z" transform="translate(243.14 -381.47)"/><path class="cls-4" d="M-105.73,635.41c-1.65-4.18-6.74-6.11-8.12-8.91-2.61-5.3,2.27-23.25-2.51-26.55-6.09-4.22-5.77,18.14-5.74,23.56,3.09-1.25,4.15-3.45,3.25.41q0.48-2.37,2-1.94c0.57,3-1.57,9.91-5.41,4.77-0.12,1.36.24,1.91-.71,1.51,3.79,4.09-2.29,4.52-4.13,6.22-0.8.74-6.6,7.18-7.12,7.09-2.1-.36,1.13-7.14.47-5.84-1.27,1.9-4.06,16.67-.76,16,3.76-.8,1.19-11.32,7.78-12.33,0.3,0,5.88,2.07,5.83,2,1.57,2-1.41,7.36.55,9.85,3.74,4.73,5-7.76,5.38-9.82,4.84,1.1,11.74.43,9.2-6h0Zm-4-1.1c-1.94,2.31-4-.09-6.49,3.66-1.33,2,.12,8.73-2.75,9.79-2.11.77-.76-14.64,0-15.82,3.36-5,12.27-1.31,9.2,2.37h0Z" transform="translate(243.14 -381.47)"/><path class="cls-5" d="M-105,574.07c-3.56-16.17-11.74-31.25-18.29-46.37s-11.85-30.65-17.13-46.41c-4.11-12.24-10.89-25.83-26.25-25-16.15.92-25.83,18.79-27.94,32.9-0.25-.17-1-1.66-0.89-1.28,0.47,2.67-1.25,6.28-2,8.87-2.56,9.19-3.66,16.11-2.56,25.59,1.35,11.66,1.23,23.48,3,35.21,2.08,13.86,8.66,28.06,19.07,37.67,4.92,4.55,11.23,7.36,16.08,11.93,4.1,3.86,5,8.73,7.55,12.9q2-.21,1.46-3.1c0.29,2.59-.2,5.35,2.93,2.51-1.83,3.39,8.37-3.58,7.71-3.07q-2.53,1-1.73,2.57a8.78,8.78,0,0,0,5.91-3.47c-0.24-1.19-.13,2.54-0.18,2.55a11.3,11.3,0,0,0,5.46-4.15c1.06,2.85.47,6.18,1.49,8.91,0.49,1.43,3.13-5.85,3-5.19,0,0.15-.73,4.69-0.66,4.68a5.33,5.33,0,0,0,2.81-2.83c-1,6.42,1.46,4.64,4.64.8q-1.52,1-.62,1.88a17,17,0,0,0,4.86-3.22q-2.27,1.16-1.47,2.8C-102.14,616-102,587.52-105,574.07-106.75,566-103.21,582.07-105,574.07Z" transform="translate(243.14 -381.47)"/><path class="cls-6" d="M-105.7,600.07c-1.44,7.22-4.9,16.71-11.79,20.51,5.73-7.54-3.19.46-4.13,0.91,0.3-.69,2.49-5.82,2.39-5.82-0.5,0-5,6.52-6.57,7.24a62.56,62.56,0,0,0,.66-9c0,2-1.23,6.1-3.31,7.6a5.71,5.71,0,0,0,.31-4.85,45.3,45.3,0,0,1-2.54,5.35c-0.93-6.34-2-11.58-5.32-17.32-3.93-6.76-10.56-10.42-15.13-15.89,4.68,5.88,25.52,21.62,14.08,28.24,0.38-.29-0.31,0-0.46.15,1-5.85-3.2.57-5.55,1.06,6.75-6.94-5.35.33-6.33,1.42a12,12,0,0,1,2.49-4.63c-0.41.8-3.77,4.52-4.87,4.86,0,0.27-.67-7.27-1.29-7s-0.71,5.47-.88,6c-1-4.63-.72-9.18-2.88-13.62,1.2,2.27,1.57,7.09,1.91,10-3-7.67-10.24-11.56-16.44-16.15a59.5,59.5,0,0,1-17-19.22,68.08,68.08,0,0,1-8.45-28.69c-0.46-6.08,2.92-17.85.71-23.22,0.35,0.9-1.48,9.42-1.55,10.26-1.21-10.22,1.28-18.95,1-28.92,0.11,3.68-2.09,9.47-2.53,13.61-2.51-12.54,3.31-21.67,4-33.64,0,0,.54.69,0.3,0.44,0,0.56-.13,1.82-0.2,2.62a23.48,23.48,0,0,1,1-2.92c4-11.06,6.44-23.92,19.22-30,19.66-9.42,29.52,10.55,34.51,25.61A574.2,574.2,0,0,0-119.49,539c8.75,19.58,18.21,39.07,13.79,61.11C-106.38,603.47-104.3,593.09-105.7,600.07Z" transform="translate(243.14 -381.47)"/><path class="cls-7" d="M-172.49,591.92l-1.29-1.44c2.52,6.06,1.86,2.07,1.29,1.44h0Z" transform="translate(243.14 -381.47)"/><path class="cls-7" d="M-105.09,578.9c-2.9-19-13-36.71-20.61-54.1-7-16-11.26-32.84-17.59-49.1-5.6-14.41-20.17-24.11-34.7-14.37-10,6.68-13.52,18.39-15.83,28.18-0.23.84-1.06,2-1.15,2.92a15.19,15.19,0,0,1,.2-2.62c0.13-.08.52,0.44-0.3-0.44-0.74,12-6.56,21.1-4,33.64,0.45-4.2,2.64-9.83,2.53-13.61,0.27,10-2.22,18.7-1,28.92,0.07-.84,1.9-9.36,1.55-10.26,2.29,5.54-1.19,16.92-.71,23.22A68.87,68.87,0,0,0-188.3,580a58.32,58.32,0,0,0,17,19.22c6.21,4.61,13.46,8.45,16.44,16.15-0.34-2.91-.72-7.73-1.91-10,2.16,4.44,1.86,9,2.88,13.62,0.17-.5.16-5.61,0.88-6s1.33,7.23,1.29,7c1.11-.34,4.47-4.06,4.87-4.86a12,12,0,0,0-2.49,4.63c1.26-1.41,12.61-7.88,6.33-1.42,2.34-.49,6.54-6.91,5.55-1.06,0.15-.11.83-0.44,0.46-0.15,11.6-6.71-9.35-22.31-14.08-28.24,9.61,11.5,18.08,17.1,20.45,33.21a45.3,45.3,0,0,0,2.54-5.35,5.71,5.71,0,0,1-.31,4.85c2.08-1.5,3.27-5.57,3.31-7.6a62.13,62.13,0,0,1-.66,9c1.56-.71,6.07-7.25,6.57-7.24,0.1,0-2.09,5.14-2.39,5.82,0.94-.45,9.86-8.45,4.13-0.91,12.92-7.12,14.28-29.29,12.39-41.67C-107.63,562.3-104,585.95-105.09,578.9Zm-19,22.87c-0.07.18-2.62-5.86-2.74-6s0.29,11.12.28,11.1c-1.82-3.08-2.74-6.65-3.73-10.06,0.24,2.82-1.58,5.92-1.62,7.78a20.82,20.82,0,0,0-2.58-9.72c2.57,10.93-7.62-5.86-8.83-7,0.31,0.58,2.22,6.28,2.33,6.42-5.47-7-13.5-11.61-18.55-19,0.25,2.43,6.17,14,0,6.51C-155.1,590-154,599-152.08,607.3a26.88,26.88,0,0,0-7.66-13.86c0.25,0.55,2.61,7.67,2.77,7.89-2.22-3-3.89-6.56-6.8-9,1.27,2.8,2,8.56,2.9,10.4-1.71-3.44-4.3-6.33-6-9.77q3,3.37.64,4.8A27.34,27.34,0,0,1-172,588.1c0-.3.59,6.33,0.07,5.92-3-2.42-6.76-9.28-8.07-12.77q1.77,2.55,0,3.39a16.55,16.55,0,0,1-2.89-4.57q1.22,1.93-.26,2.35a24.19,24.19,0,0,1-3.71-14.26c-0.8,2.68-2,7.32-1.67-1.46q1.54,3.69-.87,4.26c-1.37-5.43-2.63-11.21-.83-16.72q-0.18,3.06-2.17,2.81a33.44,33.44,0,0,1,.94-7,62.41,62.41,0,0,0-2.21,6.73c-0.64-5.86-1.11-11.91.41-17.69q0.23,2.44-1.41,2.37A41.87,41.87,0,0,1-190,521a31.71,31.71,0,0,0-4.1,3.63,18.31,18.31,0,0,1,1.89-5.87c-0.37.37-3.33,4.88-3.32,5.41-0.1-3.84,3.39-10.05,3.24-12.32q-0.24,2.64-.44,5.28a11.42,11.42,0,0,1,6-3.73q1.21,1.56-1.29,3.39c-17.25,6.7,5.93-2.81,4.53-.68a21,21,0,0,1-3,4.14c3.8-.82,12.9-6.07,13.9-10a28.32,28.32,0,0,1-2.91,6.53q1.43-3.13,3.79-2.55a17.41,17.41,0,0,1-3.14,6.07c4.71-1.85,11.5-8.69,14.13-12.21a16,16,0,0,0-2.62,5,49.74,49.74,0,0,1,7.72-5.29c-6.81,3.3-7.23,18.35-4.95,24.52q-1.39-4.41,1.38-4.78c0.81,5.53,2.08,11.5,5.94,15.8q-1.4-2.83.55-3.49a90.71,90.71,0,0,1,4.41,10.5c0.17-.46,1.14-7.68.91-8.09a72.37,72.37,0,0,1,4.2,8.62c-0.09.88,8,16.05,8.9,19.13,0-.06-0.4-7.77-0.36-7.69,5.84,9.76,15.53,27.74,10.55,39.49C-124.19,601.9-122.11,597-124.14,601.77Z" transform="translate(243.14 -381.47)"/><path class="cls-8" d="M-156.1,608.67l-1.58-3.52c1.14,3.72,1.4,6.61,2.77,10.2a52.57,52.57,0,0,0-1.19-6.68C-156.57,607.47-155.71,610.26-156.1,608.67Z" transform="translate(243.14 -381.47)"/><path class="cls-8" d="M-147.73,592.49c1.49,2.39,6.62,17,1.19,9.28-0.06-.59-0.36,8.07-0.86,7.19-1.8-3.16-1.87-6.9-3.25-10.22,1.07,4.74,3.09,10.94-.59,15.17q-2.66,0-2.18-4.38c0.15,2.83-.11,4.92-1.39,2.18,0.43,2.36.39,4.95,0.9,7.25,0.17-.5.16-5.61,0.88-6s1.33,7.23,1.29,7c1.11-.34,4.47-4.06,4.87-4.86a12,12,0,0,0-2.49,4.63c1.26-1.41,12.61-7.88,6.33-1.42,2.34-.49,6.54-6.91,5.55-1.06,0.15-.11.83-0.44,0.46-0.15,10.18-5.89-5.46-19.57-10.69-24.59C-147,593.72-144.92,595.2-147.73,592.49Z" transform="translate(243.14 -381.47)"/><path class="cls-8" d="M-105.09,578.9c-2.9-19-13-36.71-20.61-54.1-7-16-11.26-32.84-17.59-49.1-5.6-14.41-20.17-24.11-34.7-14.37-10,6.68-13.52,18.39-15.83,28.18-0.23.84-1.06,2-1.15,2.92a15.19,15.19,0,0,1,.2-2.62c0.15-.07.46,0.39-0.3-0.44-0.43,7.05-4.22,13.65-4.83,20.75,2-2.91,2.24-3.07,1.69.24,3.89-6,2.15-.12,2.18,2.79,0.24-.29,4.94-4.64,5-4.78,0.82-1.67-2,5.87-.71,5.22,2.56-1.31,4.85-3.34,3.07-.45,2.48-.83,13-6.67,6.67.42,1.17-.18,10.6-5.31,10.17-6.15a10.23,10.23,0,0,1,.08,7c3.1-.9,11.48-13,8.42-5.1,1.91-1.28,7.22-9.23,5-2.15,2.75-1.47,7.71-8.95,5.15.59,3-7.52,4,11,4.44,12.79,1.54,6.82,3.52,15.28,6.34,21.6-0.12.51,1.71-5.94,2-5.16,1.67,4.19,1.46,8.81,2.4,13.16q-0.67-2.31.92-2.66c5.68,7.32,4,18.1,10.5,25.41,0,0.09.9-8.51,0.94-8.35,2,7.88,4.91,15.47,7.18,23.27-0.05.54,0.6-6.53,1-5.79,1.71,3.29,3.64,7.3,4.1,11,0.19,1.57-.95,7.78-0.94,7.81a30.46,30.46,0,0,0-2-8.33c-0.51,1.75-4.82,17.09-4.88,16.89q-0.62-4.28-.86-8.6c-1.52,5.3-1.56,17.11-5,7.66q1.21,3.55-1.12,4.1a38.73,38.73,0,0,0-2.09-6.31c1.81,8.18-4.87-3.79-5.88-5.09-3.73-4.75-8.17-9.11-13.68-11.74,4.14,5.58,10.15,9,13.78,15.23,3.4,5.83,4.38,10.91,5.32,17.32a45.3,45.3,0,0,0,2.54-5.35,5.71,5.71,0,0,1-.31,4.85c2.08-1.5,3.27-5.57,3.31-7.6a62.13,62.13,0,0,1-.66,9c1.56-.71,6.07-7.25,6.57-7.24,0.1,0-2.09,5.14-2.39,5.82,0.94-.45,9.86-8.45,4.13-0.91,12.92-7.12,14.28-29.29,12.39-41.67C-107.63,562.3-104,585.95-105.09,578.9Z" transform="translate(243.14 -381.47)"/><path class="cls-9" d="M-135.16,466.52c-2-3.76-1-8.63-4.52-11.72,0.53,0.14,4.6,2.63,4.48,1.64a10.72,10.72,0,0,0-8.57-9.17c1.35-.37,12.64.7,2.93-2.16,0.5-.05,5.84.06,5.69-0.28-1.51-3.36-9.63-3.54-12.58-3,0.31-.2,4.71-2.88,5-2.88a19.46,19.46,0,0,0-6.79,1c1.83-1.52,4.27-4.63,4.41-7.17-0.19,3.84-9.68,3.61-12,3.8q4,0.07,4-2.66a14.56,14.56,0,0,0-9.8,2.36q2.27-.6,1.75-2.18c-3.87-.25-8.42,2.82-11.08,5.4,0.1-.27,2-4.1,1.39-4-6.18,1.2-7.34,8.51-10.51,12.17-1.08,1.25-5.43-1.35-5.41-.87q4.32,4.4-2.41,3.74-4.2.65-3.24,2.86c1.6,0,3.35-1.69,5-1.21,0.32-.08-5.33,2.91-4.39,3a15.25,15.25,0,0,1,3.6-.6,16.93,16.93,0,0,0-9.19,10.14q2.16,1.13,3.93-2.15c-0.25.27-5,4.32-5.42,4.31a52.28,52.28,0,0,0,5.57-.13c-4,1.82-6.78,2.93-8.24,7.56a21,21,0,0,1,4.32-2.05c0.47,0.78-3.58,2.6-2.54,4.6q1.16,0.47,2-1c-1.66,2.08-4.09,8.21-4.47,10.8-0.11.74,4.52-3.49,4.3-3.4-2.06,1.76-4.08,4.69-4.23,7.53q2.07,0.43,3-2.47a14.5,14.5,0,0,0-3.11,10.08q2.78,0.57,3.47-3.78a10.51,10.51,0,0,0,.11,7c0.16,0.49,3.31-4.29,2.71-3.64,0,0.15-2,5.59-2.23,5.62a9.22,9.22,0,0,0,4.8-3.54c-0.41.61-5.73,6.06-6.31,5.83,3.25,1.3,8.08-.93,10.42-3.11-0.32,1.24-1.14,4.36-.54,5.56,0.19,0.39,3.6-5.11,3.6-5.11-2.87,7.4.11,3.31,3.68,0.72-0.41.63-4.6,6.73-5.22,6.55,4.07,1.27,8.81-4.34,11-6.89,0-.08-3.7,5.3-3.51,5.44,2.41,1.76,6.15-3.65,6.86-5.09q0.47,2.54,2.33,2.47a1.78,1.78,0,0,0-.14-2.1q1.5,1.32,2.21.18c0.39,1.05-.31,5.82-0.09,5.89,3,1.06,6.68-10.22,7.14-11.76,0.08,0.24-.12,5.22-0.43,5.32,6.22-2.16,14.52-6.09,15.82-13.59-0.41,9.39,4.38-.37,4.81-3.55,0-.38,2.46-8.47.15-13.09,0.89,0.82,1.72,3.41,2.39,3.85-0.18-1.15,1.54-4,.81-6.43,3.28,4.81,1.18-4.89-.43-6.62-7.59-2.87,4.77,4.18,3.61,2h0Z" transform="translate(243.14 -381.47)"/><path class="cls-10" d="M-140.3,463.48c0.1,0,4.09,5.93,3.23,8.8-1.15-1.45-1.85-3.17-3.24-4.47,0.9,0.82,1.69,6.58,1.36,8.58-0.78-1.86-2.88-3.75-4.43-5,2.6,2.2,2.77,10.22,2.39,13.8-1-5-1.1-1.27-2-4,1.33,3.82-.51,9.13-3.37,12.09a7.28,7.28,0,0,0,.14-5.14c2.2,4.67-7.08,10.24-9.79,12.17,1.92-2.51,2.16-5.23,2.17-8.25,0,2.55-2,9.07-5.54,10,1.33-1.43,3.79-4.74,2.71-6.9,0.88,1.76-3.3,7.07-5.12,8.09a7.5,7.5,0,0,0,.22-5.39c0.7,1.89-4.68,9.33-6.35,10.9,0.3-1.74-.12-5.52-2-6.54q-1.14.75,0.27,2c-1.27-.11-2.77-2.5-2.24.6-4.34-4.88-2.36,5.58-7.59,3.83a13.33,13.33,0,0,0,3.69-6.19c-0.05,1.48-8.66,7.89-11,7.6,2.8-2.32,3.63-4.21,5.69-7-0.21.28-4.52,2.37-5.55,3.19,3.44-8.75-1-2.55-2.32.16,0.71-3.3,2.49-5.68,3.16-8.62-0.91,4.2-8.49,8.36-12.68,7.78,1.5-.76,5.95-4.52,6.37-6.78,0,0.16-5,4.07-5.21,4.13a12.38,12.38,0,0,0,2.25-5.74c0.1-.68-3,3.56-3,3.66-0.28-.9-0.54-6.93.22-7.61a32.15,32.15,0,0,0-3.62,4.3c-0.09-3.45,7.29-15.33.08-7.44,0.08-.63,3.14-7.33,4.46-7.39a6.65,6.65,0,0,0-4.14,3.06,15.32,15.32,0,0,1,6.53-9,14.63,14.63,0,0,0-4.35,3c0.47-1.38,2.43-5.13,3.7-5.41-10,2.61.46-1.7-.86-2.32a4.43,4.43,0,0,0-4.48,1.47c2.38-6,14.58-7,3.24-7.15-0.2.1,5.4-4.44,4.76-4.38a7.44,7.44,0,0,0-3.91,2.11c0.51-1.35,7.16-11.19,9.07-9.67a4.17,4.17,0,0,0-3.42.25s4.43-2.59,4.46-2.55a6,6,0,0,0-5.24.74c6.13-5.64,7.9,1.74,5.59-5.56a4.36,4.36,0,0,0,4.74.7c0.36-3.81-.36,2.8.32,1.43,1.51-4.87,3.75-11,9.79-13.2a27.53,27.53,0,0,0-2.21,4.69c1-2,8.46-5.92,11.36-6.13-0.25.2-3.74,4.09-3.77,4.2,0.63-2.58,9.11-4.58,11.33-4.44q-4.58.07-3.87,2.71a13.62,13.62,0,0,1,5.62.1q-2.62-.53-2.89,1.16c3.85,0.06,7-2.92,9.78-5-0.38,2.11-4,7-5.62,7.77a19.19,19.19,0,0,1,6.64-1.66q-4.59.17-4.3,3.1c4.22-.45,8.56-0.47,12.46,1.64-6.11-.14-6.76-0.81-2,2.38-2-.41-5.1,1.08-6.19.95,4.65,0.64,7.39,3.88,8.75,8.14-0.79-.6-5.36-3.14-6.17-2.22,1.84-2.07,5.13,8.9,5.16,9.51a7.18,7.18,0,0,0-4.71-2c1,0,4.42,2.45,5,3.68l-3.45-1.23h0Z" transform="translate(243.14 -381.47)"/><path class="cls-11" d="M-137.62,467.49a34.45,34.45,0,0,0-3.08-4.1c1,0,6.05,2.68,3.86,1.32-0.61-1.23-4-3.72-5-3.68a7.18,7.18,0,0,1,4.71,2c-0.06-1-3.82-11-5.16-9.51,0.81-.91,5.38,1.62,6.17,2.22-1.36-4.27-4.09-7.51-8.75-8.14,1.08,0.13,4.19-1.36,6.19-.95-4.79-3.19-4.14-2.51,2-2.38-3.89-2.11-8.24-2.1-12.46-1.64q-0.29-2.92,4.3-3.1a19.19,19.19,0,0,0-6.64,1.66c1.65-.72,5.24-5.66,5.62-7.77-2.75,2.12-5.93,5.1-9.78,5q0.27-1.7,2.89-1.16a13.62,13.62,0,0,0-5.62-.1q-0.71-2.65,3.87-2.71c-2.2-.13-10.7,1.83-11.33,4.44,0-.12,3.52-4,3.77-4.2-2.81.2-10.26,4-11.36,6.13a27.53,27.53,0,0,1,2.21-4.69c-6,2.19-8.28,8.33-9.79,13.2-0.68,1.36,0-5.24-.32-1.43a4.36,4.36,0,0,1-4.74-.7c2.31,7.3.54-.08-5.59,5.56a6,6,0,0,1,5.24-.74s-4.45,2.54-4.46,2.55a4.17,4.17,0,0,1,3.42-.25c-2.11-1.69-8.53,8.24-9.07,9.67a7.44,7.44,0,0,1,3.91-2.11c0.64-.07-5,4.47-4.76,4.38,11.56,0.19-.83,1.05-3.24,7.15a4.43,4.43,0,0,1,4.48-1.47c3.38,1.59-13.05,5.93.86,2.32-1.27.27-3.24,4-3.7,5.41a14.63,14.63,0,0,1,4.35-3,15.32,15.32,0,0,0-6.53,9,6.65,6.65,0,0,1,4.14-3.06c-1.32.07-4.37,6.76-4.46,7.39,6.62-7.26-.17,3.71-0.08,7.44a32.15,32.15,0,0,1,3.62-4.3c-0.75.68-.49,6.71-0.22,7.61,0.05-.1,3.15-4.34,3-3.66a12.38,12.38,0,0,1-2.25,5.74c0.17-.06,5.18-4,5.21-4.13-0.42,2.25-4.88,6-6.37,6.78,4.2,0.58,11.77-3.58,12.68-7.78-0.67,2.95-2.45,5.33-3.16,8.62,1.3-2.71,5.76-8.91,2.32-.16,1-.82,5.34-2.92,5.55-3.19-2.05,2.77-2.88,4.67-5.69,7,2.13,0.26,11-6,11-7.6a13.33,13.33,0,0,1-3.69,6.19c4.92,1.65,3.47-8.46,7.59-3.83-0.54-3.1,1-.71,2.24-0.6q-1.42-1.29-.27-2c1.88,1,2.31,4.8,2,6.54,1.36-1.28,7-9.07,6.35-10.9a7.5,7.5,0,0,1-.22,5.39c1.82-1,6-6.33,5.12-8.09,1.08,2.16-1.38,5.47-2.71,6.9,3.49-.86,5.54-7.26,5.54-10,0,3-.25,5.75-2.17,8.25,2.72-1.93,12-7.5,9.79-12.17a7.28,7.28,0,0,1-.14,5.14c2.81-2.91,4.66-8.38,3.37-12.09,0.58,1.76,1.42,1.17,2,4,0.42-3.87.31-11.52-2.39-13.8,1.55,1.26,3.64,3.16,4.43,5,0.33-2-.46-7.75-1.36-8.58,1.39,1.3,2.09,3,3.24,4.47a8,8,0,0,0-.55-4.79C-138.07,466.55-137.08,468.61-137.62,467.49Zm-34.09,30.66a7.66,7.66,0,0,0-3.92-4.35,6.4,6.4,0,0,1,.76,5.68q-2.33.73-3.1-3.09a7.27,7.27,0,0,1-1.65,4.33,17.09,17.09,0,0,0-1.54-4q-0.23,3.54-2.27,3a47.27,47.27,0,0,0-1-8c-1,3.66-3.5,7.39-7.06,8.94,0.33-.13,1.65-8.57,1.65-8.64q0,2.87-2,3.1a8,8,0,0,1-.06-5.86c-0.09.06-3.86,3.21-3.87,3.25a9,9,0,0,1,2.09-5q-2,4-3.86,2.29a23.46,23.46,0,0,1,3.31-4.44c-6.86,2-1.24-3.5,1.17-5.51q-2.11,3-3.77,1.46a21.1,21.1,0,0,1,4.88-5.71c-5.2,1.13.66-2.48,2.07-3.36-1.62.06-8.82,3-2.24-1.88-7.43-.54,2.46-3.47,4.69-5.41-9,0-2.16-2,1-3.63-3.83.21-6.85,1.36-.6-2.71a14.55,14.55,0,0,0-5.59,1.93c2.72-1.66,6.14-9,9.07-6.18q-1.74-.94-0.75-1.89a5,5,0,0,1,4.09,3.32q-2-4.23.69-4.9c0.11,4.26,2.9,3.61,5.3,6.4,5.79,6.76,5.14,8.64,2,17.34-1.18,3.27-2.9,13.06-7.53,10.28-0.47,4.5,7,9.41,8.05,13.25C-172.25,496.14-171.63,498.45-171.71,498.15Zm22.93-17.89q-2.57.74-1.65-4.17c0.53,4.87-1.44,9.75-1.65,13.71a16.22,16.22,0,0,0-1.07-6c-0.08,1.33-2.8,14.57-2.94,5.83-0.61,2.09-5,12.69-4.27,4.11-0.26.46-7.81,10.42-5.13,4.39q-2.25,3.9-3.91,2c1.76-2,3.45-12.19,5.24-5.56,0.36-1.21.26-10.41,2-5.08a43.82,43.82,0,0,0-.28-6.6c0.07,0.19,6.73,10.4,2.63,2.53,0-.72-2.7-12.66,1.77-3.9-0.14-1.32-4.4-11.78,1.2-3.72-0.3-1.7-5.95-9.43-2.5-8.55-1.09-1.66-4.34-6.09,0-4.78,0.26,0.27-7.36-6.39-.19-3.25-1.9-2.69-1.26-8.17-2.08-9.53q1.5,3,3.18,5.88a7.67,7.67,0,0,1,3.33-6.8,54.68,54.68,0,0,0,0,6.4c0.09-.21,3.31-5.1,3.29-5-0.64,3.38.68,6.82,2.06,9.82,0.2-1.08,2-4.78,2.1-5.31-1.15,8.64,2.7,15-1.2,23.61h0Z" transform="translate(243.14 -381.47)"/><path class="cls-11" d="M-137.62,467.49a34.45,34.45,0,0,0-3.08-4.1c1,0,6.05,2.68,3.86,1.32-0.61-1.23-4-3.72-5-3.68a7.18,7.18,0,0,1,4.71,2c-0.06-1-3.82-11-5.16-9.51,0.81-.91,5.38,1.62,6.17,2.22-1.36-4.27-4.09-7.51-8.75-8.14,1.08,0.13,4.19-1.36,6.19-.95-4.79-3.19-4.14-2.51,2-2.38-3.89-2.11-8.24-2.1-12.46-1.64q-0.29-2.92,4.3-3.1a19.19,19.19,0,0,0-6.64,1.66c1.65-.72,5.24-5.66,5.62-7.77-2.75,2.12-5.93,5.1-9.78,5q0.27-1.7,2.89-1.16a13.62,13.62,0,0,0-5.62-.1q-0.71-2.65,3.87-2.71c-2.2-.13-10.7,1.83-11.33,4.44,0-.12,3.52-4,3.77-4.2-2.81.2-10.26,4-11.36,6.13a27.53,27.53,0,0,1,2.21-4.69c-6,2.19-8.28,8.33-9.79,13.2,0.6-1.2-2.76-1.07-3.15-1.21,0.65,1.3,3.57,2.86,3.87,3.67,0.49,1.35-.6,2.56.11,4q-2-4.23.69-4.9c0.11,4.16,2.93,3.65,5.3,6.4,5,5.83,5.63,8.07,2.69,16-0.76,2.07-3.76,12.4-6.08,12.4,1.36,4.12,6.78,5.17,8.49,10,0.62-1.18,2.93-9.55,2.74-3.07,1.75-2.69-.06-20.17,4.11-10.79,0.61-3.44-2.78-9.4,2.16-6a10.16,10.16,0,0,0-2.64-5.72q0.59-1.06,1.71.16a17.13,17.13,0,0,0-2.46-7.51q0.65-.91,1.72,0c-0.46-2.33-4.73-4.79-.38-5.07-2.37-2.79-2.42-2.41-3.59-6.19-0.24-.76.47-10.67,1.9-0.75,1.93-4.07,5.78-11.21,4.35-2.15a15.94,15.94,0,0,1,7-2q0.37,1.4-1.86,1.39a12.67,12.67,0,0,1,8.49,2.49q-0.77,1.46-2.83.47c3.06,2.18,4.85,13,3.71,12.15,1.12,3.31-.47,13.63-0.7,13-0.25,2.34-2.92,13.21-3.14,11.46a27.09,27.09,0,0,1-3.49,10.84c1.7-1.5,7.18-8.07,6.11-10.33a7.28,7.28,0,0,1-.14,5.14c2.81-2.91,4.66-8.38,3.37-12.09,0.58,1.76,1.42,1.17,2,4,0.42-3.87.31-11.52-2.39-13.8,1.55,1.26,3.64,3.16,4.43,5,0.33-2-.46-7.75-1.36-8.58,1.39,1.3,2.09,3,3.24,4.47a8,8,0,0,0-.55-4.79C-138.07,466.55-137.08,468.61-137.62,467.49Z" transform="translate(243.14 -381.47)"/><path class="cls-12" d="M-163.23,436.57c8-12.49,14.24-29.55,8.46-44.26-4.79-12.2-16.28-10.7-27.49-7.09-4.17,1.34-8.72,4.65-12.93,5.42-3,.54-5.33-2.25-8.24-0.19-3.13,2.21-1.81,11.29-3.23,15.12-3.56,9.6-10.09,19.68-4.26,30.32,6.49,11.85,19,1.37,25.83,9.87,7.14,8.85-3.63,22.13-4.31,32.23-0.35,5.14.1,9.71,4,13.31,1.76,1.62,7.21,3.69,2.87-.48a26.46,26.46,0,0,1,4.79,2.68,6.76,6.76,0,0,0-2.88-5.34c0.47,0.07,8.21,3.8,7.72,2.94a26.25,26.25,0,0,0-3.77-3.78c0.12,0,7.22,3.63,7.2,3.77a7.79,7.79,0,0,0-1.87-4.8,36.15,36.15,0,0,1,3,7.17c2.47-2,1.34-6.52,1-9,0.54,0.6,1.21,6.15,1.4,6.08,3.27-1.19.16-13.4-.56-14.78,0.41,0.31,4.15,3.85,4.24,3.14a7.35,7.35,0,0,0-2.05-5.65q2.33,1.52,3.17-.18c-2.8-2.85-5.47-5.77-8.23-8.76,3.5,1.53,4.47,3.17,6.64,6-1.47-1.89.09-6.15-3.41-8.76q1.87,3.32,3.81,1.81a6.87,6.87,0,0,0-5-4.57,3.16,3.16,0,0,0,2.67-1.38c0,0.33-5.37-4.67-5.34-7.44,0-4.56,4.46-9.78,6.76-13.36h0Z" transform="translate(243.14 -381.47)"/><path class="cls-13" d="M-165.42,438.57c7.63-12.28,18.67-36.91,6.86-50.78-11.22-13.17-25.4,3.89-37.61,3.64,0,0,3.15,2.79,1.89,2.47-7.76-2.09-8.46-5.66-10,4,1.76-2,7.08-1.94,2.87-5.25,0.12,0.09,5.62,7.51,5.62,7.51s0.13,3.7-1.7,2.8c1,12.27-10,20.24-9.22,4-5.22,8.79-9.91,27.31,1.52,33.72,7.15,4,24.73-5.86,28.52,1.64-1.86-3.46-9.29-1.63-12.4-.77,22.3,5.09-15.32,44.55,7.82,51-4.52-5,1.39-2,2.78-.44a10.66,10.66,0,0,0-2.87-4.17c-0.34-.68,7.11,2.85,7.57,2.94a45.25,45.25,0,0,1-4.11-4.17c-0.26-.41,7.46,3,7.81,3.37,0,0.25-2.51-5.24-1.74-4.92,2.37,1,3.47,5.63,3.58,7.42,1.08-1.51.87-9,.61-9,2.09,0.18,2,4.74,2,5.92a20.33,20.33,0,0,0,.73-3.27c0.41-1.16-1.56-10.23-3.33-11.86,0.6,0.61,4.19,2.55,5.43,3.8,0,0.18-2.95-6.79-3.54-6.13a4.14,4.14,0,0,1,4.07.87c-3.36-2.44-5.57-6.13-8.38-9.18,1.76,1.89,5.56,2.18,7.93,5.8a9.81,9.81,0,0,0-5.19-8.45q1.23-2.3,4.27,1.06c-1.94-3.1-8.33-2.06-2.94-4.38-9.55-2.34-.9-15.85,1.17-19.21C-163.69,435.78-167.12,441.32-165.42,438.57Z" transform="translate(243.14 -381.47)"/><path class="cls-14" d="M-202.8,395.32c-3.58,1.42-1.17.4-1.52,2.57,2.12-2.37,6.18-1,2.68-5a1.66,1.66,0,0,1-1.15,2.4h0Z" transform="translate(243.14 -381.47)"/><path class="cls-14" d="M-207.5,429c8.3,2.54,13.83,5.27,15.22-5.71,0.5-3.93-7.5-18.59,1.48-14.05-3.19-3.2-7.14-.1-4.22-6.27a1.79,1.79,0,0,1-2.52,0c1,12.27-10,20.24-9.22,4-3.88,6.54-9.5,19.34-.74,22h0Z" transform="translate(243.14 -381.47)"/><path class="cls-14" d="M-196,401c-3.43-.61-1.67-7.77-5.77-8.38,0.48,1,6.92,14.94,7.7,7.19L-196,401h0Z" transform="translate(243.14 -381.47)"/><path class="cls-15" d="M-200.5,392.21c0.19,0.12,3.76,6.16,4.66,5,3.26-4.27-6.52-10.52-8.5-4a2.63,2.63,0,0,1,3.84-1h0Z" transform="translate(243.14 -381.47)"/><path class="cls-14" d="M-165.42,438.57c7.37-11.86,24.18-56.19-3.57-55.3,3.52,1.6-12,7.94-13.47,10.54,2.32-1.87,9.93-7.2,13.37-4.09,3.85,3.48-3.42,2.94-5.09,3.75-2.84,1.38-8.6,7.47-11.44,7.39s-4.94-2.81-2.86-5.63c-7.31,11.68,4.48,14,5.3,9.66-1.4,7.53-1.38,16.72,5,22.15-2.35-2-6.06.76-6.31-5.44-7.47,19.83-6.65-13.74-10.26-11.94a4.84,4.84,0,0,1,6.15,2.46c-2.54-7-8.06-1.25-8.85-8.58,0.76,12.22-10,19.27-9.26,3.48-5.22,8.79-9.91,27.31,1.52,33.72,7.15,4,24.73-5.86,28.52,1.64-1.86-3.46-9.29-1.63-12.4-.77,22.3,5.09-15.32,44.55,7.82,51-4.52-5,1.39-2,2.78-.44a10.66,10.66,0,0,0-2.87-4.17c-0.34-.68,7.11,2.85,7.57,2.94a45.25,45.25,0,0,1-4.11-4.17c-0.26-.41,7.46,3,7.81,3.37,0,0.25-2.51-5.24-1.74-4.92,2.37,1,3.47,5.63,3.58,7.42,1.08-1.51.87-9,.61-9,2.09,0.18,2,4.74,2,5.92a20.33,20.33,0,0,0,.73-3.27c0.41-1.16-1.56-10.23-3.33-11.86,0.6,0.61,4.19,2.55,5.43,3.8,0,0.18-2.95-6.79-3.54-6.13a4.14,4.14,0,0,1,4.07.87c-3.36-2.44-5.57-6.13-8.38-9.18,1.76,1.89,5.56,2.18,7.93,5.8a9.81,9.81,0,0,0-5.19-8.45q1.23-2.3,4.27,1.06c-1.94-3.1-8.33-2.06-2.94-4.38-9.55-2.34-.9-15.85,1.17-19.21C-163.69,435.78-167.12,441.32-165.42,438.57Zm-10.2,4.61c4-4.65-23.71-3-16.7-11.82,0.45-.57,8.1-1.34,9.09-1.21,6.12,0.8,13.43,6.51,7.61,13h0Zm3.54-14.28c0.35,1.26,6-3.26,6.65-4,2.71-3.24,3.19-10.25,2.42-14.13-0.26,3.28-2.06,11.81-6.27,12.69,8.06-1.78-.58-24.47,2.05-26.46,3.34-2.56,7,11.27,6.94,11.33,1.54-1.69.21-8.61,2.75-9.26,3.46-.89-1.47,21.79-2.06,23.28-0.88,2.24-9.7,15.55-12.48,6.58C-172.13,428.75-171.29,431.48-172.09,428.9Z" transform="translate(243.14 -381.47)"/><path class="cls-14" d="M-183.26,439.62c-4.21-.39-13.63-0.81-9.37-7.91,2-3.39,11-2.25,14.48-2.4a8.28,8.28,0,0,1-6.29-4.56c-0.3,6.06-7,4.71-8.3.79-1.08-3.14,1.36-8.26-.51-12.33-0.59-1.29-3.94-3.06-2.69-4.72-3.85,1.13-1.6,8-6.36,8.69s-4.63-6.8-4.47-10.18c-4.71,7.93-8.81,21.94-2.31,30.1,7,8.75,16.65,3.36,25.8,2.51C-185.26,439.44-184.76,439.76-183.26,439.62Z" transform="translate(243.14 -381.47)"/><path class="cls-14" d="M-184.32,423.55l-0.22-2c-1.26,3.35-2.5,9.47-6.89,3.67-1.7-2.25.77-9.44-1.74-13.13,2.27,4-.91,14,1.26,15.85,2.87,2.44,10.25-2.82,7.59-4.43C-184.44,422.91-184.44,423.48-184.32,423.55Z" transform="translate(243.14 -381.47)"/><path class="cls-14" d="M-197.63,408.73l3.86-1.06c-3.39.12-.72,2.87,0.15,3.84q-1.69-.68-1.17-1.85a4.84,4.84,0,0,1,6.15,2.46c-2.54-7-8.06-1.25-8.85-8.58a24.88,24.88,0,0,1-.14,5.19C-196.48,408.1-197.54,408-197.63,408.73Z" transform="translate(243.14 -381.47)"/><path class="cls-14" d="M-180.91,440.43c-1.85-1.22-6.37.66-8.2,1.16,12.16,2.78,4.92,19.76,2.91,25.75,2.77-5.12,6.82-10,6.25-16.24-0.38-4.15-7.73-9.76-1-10.67C-180.93,440.42-182.17,440.6-180.91,440.43Z" transform="translate(243.14 -381.47)"/><path class="cls-14" d="M-176.34,425.38c4.73,4.2,9.82-10.4,9.86-12.35-2.87,8.16-12.78,14.44-15.82,1.93,0.19,6.85,8.2,18.18,15.35,9.68-2.64,2.5-6.43,3.39-9.38.74h0Z" transform="translate(243.14 -381.47)"/><path class="cls-14" d="M-164.34,391.6c2.82,3.35,2.87,6.63,3.51,10.74,5.91-6.26-3.69-19.92-11.39-14.52,3-.32,6,1.59,7.88,3.78C-163.13,393-166.35,389.23-164.34,391.6Z" transform="translate(243.14 -381.47)"/><path class="cls-14" d="M-164.91,395.46c-6.05-9.68-19.5,12.22-24.21,6.08,0.34,7.14,4.15.48,5.93,2.55,2.09,2.43,2,4.1,2.57,7.61,0.92-5.08,2.23-4,1.43-2.65-0.68.11,10.94-7.33,10.42-6.49,0.89-1.44-1.8-8.91,3.87-7.11C-168.26,390.1-166.25,395-164.91,395.46Z" transform="translate(243.14 -381.47)"/><path class="cls-14" d="M-167.8,474a25.86,25.86,0,0,1,5,4.16c0,0.18-2.95-6.79-3.54-6.13a4.14,4.14,0,0,1,4.07.87c-3.36-2.44-5.57-6.13-8.38-9.18,1.76,1.89,5.56,2.18,7.93,5.8a9.81,9.81,0,0,0-5.19-8.45q1.23-2.3,4.27,1.06c-1.94-3.1-8.33-2.06-2.94-4.38-12.87-3.16,6.39-27.27,8.31-31.71a159.3,159.3,0,0,1-10.63,14.55q-1.27.19-.4-1.65c-1.81,3-2.21,13.82-4.69,5.62-0.21,3.28,5.51,17,.23,9.42,0-.13,2,7.54,1.76,7.29a12.59,12.59,0,0,1-3.21-4c0.66,4,2.26,6.87,3.65,10.57,0.48,1.27,3.74,6.19.12,1.67,1.08,2,4.17,14.92.79,9,1.52,9.57-.52,4.52-3.54,1.84,3.39,12-6.65.68-7.72-2.31,0,0.18.85,7.88,0.92,7.93a10.38,10.38,0,0,1-4-6.3c0,0.05-.14,8.07-0.11,8.1a13,13,0,0,1-2.93-6c-0.19,5.06,1.27,9.29,6.7,10.81-4.52-5,1.39-2,2.78-.44a10.66,10.66,0,0,0-2.87-4.17c-0.34-.68,7.11,2.85,7.57,2.94a45.25,45.25,0,0,1-4.11-4.17c-0.26-.41,7.46,3,7.81,3.37,0,0.25-2.51-5.24-1.74-4.92,2.37,1,3.47,5.63,3.58,7.42,1.08-1.51.87-9,.61-9,2.09,0.18,2,4.74,2,5.92a20.33,20.33,0,0,0,.73-3.27c0.35-1-1.9-11.37-2.88-12.22C-166.85,475-168,473.84-167.8,474Z" transform="translate(243.14 -381.47)"/><path class="cls-16" d="M-166.77,409.54c0-4-.78-12.24-5.42-14.11,1.27-.51,5.17-0.83,6.33,0-5.65-3.71-10.7,2.08-14.78,4.79-4.55,3-12.6,5.91-7.41-3.9-3.85,7.38.26,10.93,6.47,5.77-2.87,5.9-2.5,20.51,5.82,22s9-8.71,9-14.54C-166.79,406.17-166.75,414-166.77,409.54Z" transform="translate(243.14 -381.47)"/><path class="cls-10" d="M-170.75,422.29c-7.71,8.55-14.33-15.62-8.08-22.62,10.88-12.17,14.17,15.84,8.08,22.62h0Z" transform="translate(243.14 -381.47)"/><path class="cls-16" d="M-164.64,419c-4.1,11.08-16.59,8.56-17.95-2.56,1.43,14,14.38,12.37,17.95,2.56C-165.44,421.23-164.54,418.79-164.64,419Z" transform="translate(243.14 -381.47)"/><path class="cls-16" d="M-166.52,388.65c-7.75-3.61-10.8,4.12-16.5,5.29,6.35-1.38,9.08-8.28,16.71-4,4.5,2.54,5.47,8,5.66,12.76-0.2-5,.7-11-5.87-14.09h0Z" transform="translate(243.14 -381.47)"/><path class="cls-10" d="M-206.16,405.56c1.82-17.22,12.75-2.37,7,7.28-8.26,13.73-5.45-6.9-7-7.28C-206.09,405-206.13,405.57-206.16,405.56Z" transform="translate(243.14 -381.47)"/><path class="cls-17" d="M-179.63,402.27c-1.48-.31,4,34,11.78,12.79,1.38-3.8.55-14.86-2.62-17.3-4-3.07-10.09,1-11.07,6.08a2.58,2.58,0,0,1,1.91-1.57h0Z" transform="translate(243.14 -381.47)"/><path class="cls-17" d="M-198.26,406.76c0.08-3.08-1.72-15.84-6.22-7.23,1.5-1.16-1.13,10-.8,11.49,2.3,10.57,6.86,2.78,7-4.26C-198.21,404.51-198.31,408.82-198.26,406.76Z" transform="translate(243.14 -381.47)"/><path class="cls-18" d="M-179.43,409.4c-1.08,11.48,10.51,12.65,11.6,1.13s-10.51-12.64-11.6-1.13C-179.92,414.6-178.94,404.21-179.43,409.4Z" transform="translate(243.14 -381.47)"/><path class="cls-19" d="M-177.32,407.63l-2.18,2.78c0.41-14.73,15.74-9.32,10.84,3.8-1.27-3.14-4.38-8.4-8.66-6.58h0Z" transform="translate(243.14 -381.47)"/><path class="cls-20" d="M-179.43,409.4c-1.08,11.48,10.51,12.65,11.6,1.13s-10.51-12.64-11.6-1.13C-179.92,414.6-178.94,404.21-179.43,409.4Zm7.77-5.64c0.2-2,2.81,2.8,2.86,2.92,1.5,3.38-.14,8.45-2.36,10.91-3.94,4.36-1.71-1.78-1.71-2.07,0-1.28,1.93-3.64,2.14-5.27,0.3-2.27-1.17-4.31-.94-6.49C-171.59,403.08-171.75,404.57-171.66,403.76Z" transform="translate(243.14 -381.47)"/><path class="cls-21" d="M-178,409.54c-0.67,7.07,6.64,7.79,7.31.71,0.65-6.82-6.59-8.37-7.31-.71C-178.27,412.81-177.66,406.27-178,409.54Z" transform="translate(243.14 -381.47)"/><path class="cls-22" d="M-171,402.66c2.73,2.49.2,9.38-2.51,6.48-1.9-2-.83-9.56,2.51-6.48C-169.23,404.28-174.09,399.82-171,402.66Z" transform="translate(243.14 -381.47)"/><path class="cls-23" d="M-170.59,403.68c5.32,4.88-3.33,5.49-2.61,3.63,0.33-.84-0.17-6.21,2.61-3.63C-169.26,404.9-171,403.34-170.59,403.68Z" transform="translate(243.14 -381.47)"/><path class="cls-24" d="M-205.46,407.06c-0.82,8.6,7,9.32,8,.77,1-8.21-7-10.16-8-.77C-205.84,411.08-205.07,403-205.46,407.06Z" transform="translate(243.14 -381.47)"/><path class="cls-25" d="M-204,405.67l-1.52,2.17c0.41-11.6,10.71-7,7.42,2.84-0.67-1.91-2.91-6.47-5.9-5h0Z" transform="translate(243.14 -381.47)"/><path class="cls-26" d="M-205.46,407.06c-0.82,8.6,7,9.32,8,.77,1-8.21-7-10.16-8-.77C-205.84,411.08-205.07,403-205.46,407.06Zm5.4-4.42c0.26-2.53,4.28,15.6-1.73,11.35,0.85,0.61,1.63-10.42,1.73-11.35h0Z" transform="translate(243.14 -381.47)"/><path class="cls-21" d="M-204.45,407.15c-0.53,5.54,4.48,6,5,.49s-4.49-6-5-.49C-204.69,409.69-204.21,404.62-204.45,407.15Z" transform="translate(243.14 -381.47)"/><path class="cls-22" d="M-199.6,401.78c3,3.07-.92,4.22-1.17,5.16-0.34,1.29-2.55-9,1.17-5.16h0Z" transform="translate(243.14 -381.47)"/><path class="cls-23" d="M-199.33,402.56c3.57,3.68-2.32,4.28-1.82,2.83,0.18-.53-0.09-4.75,1.82-2.83C-198.42,403.49-199.58,402.3-199.33,402.56Z" transform="translate(243.14 -381.47)"/><path class="cls-27" d="M-81.31,621.39c0-7.91,4.7-18,5.92-26a168.74,168.74,0,0,0,2-26.56c-0.12-19.58-4.32-38.54-10.26-57.11-5.47-17.1-10.45-34.72-18.93-50.63-5.33-10-12.54-32.2-25.38-34.54-8.83-1.61-12.5,7.07-13.88,14.79S-142.31,457.12-143,465s-3,15.51-4.07,23.36c-2.16,15.93-.18,27.73,7.25,41.58A102.46,102.46,0,0,1-133,546.68c1.34,4.32.72,14,4.26,17.45,0.43,0.44,2.27-16.64,2.32-18.21,0.46,9.6,1.14,20.29,5.44,29.12-0.15-.32,1.7-11.39,1.8-13.27,0.52,8.64,1.21,17.49,5.31,25.31,0.43,0.81,1.18-8.2,1.16-7.77,0.5,4,10.56,40.66,6.21,41.2,2.58-.32,5.46-22.48,5.67-23.89-0.65,9.22-1.68,18.45-3.09,27.58-0.4,2.62-1.67,18.88-3.58,19.76,5-2.38,7.83-17,9-21.45-0.7,7.51-3.08,14.94-5.1,22.18-1.17,4.2-5,11-4.42,15.28-0.18-1.61,7.38-7.89,9-9.49,4.57-4.65,8.22-8.62,10.38-15.2q0.31,4,.29,8c0-3,4.19-11.63,4.44-16.28-0.08-.45,2.39,8.09,3.91,6.7,0.91-.83-1.19-10.7-1.25-12.32h0Z" transform="translate(243.14 -381.47)"/><path class="cls-28" d="M-81.26,607.75c0.07-.59,1.42-6.88,1.26-7.75,0.92,5.74-1.33,12.72-1.37,18.62,15.63-57.45-.58-115-27.15-166.55-3.81-7.4-9.1-21.61-18.06-24.48-11.06-3.53-14,10.2-14.74,18.18-1.29,14.66-3,28.72-4.88,43.31-1.86,14.27-1.25,29.18,7.62,41.12-1.79-11.1-.24-22.85-1-33.52,1.43,16.47-.08,31.92,6.42,47.55-0.94-8.69,2.36-20.08.69-27.91,3,14.88-3.34,31.62,3.9,46.4,2.65-14.05,3.56-32.59,1.68-46.36,2.55,19.41.11,37.95,6.17,57,2-12.4,2.27-26.33,2.93-38.48-1,16.24-2.6,35.34,4.05,50.63,0.86-9.14-2-23,2.21-31.58-4.7,9.4-.51,33,3.61,42.82-0.1-6.47.27-13.33,0.58-19.24-1,13.18,1.64,26.29,1.49,39.7a173.08,173.08,0,0,0,5.39-38.42c-0.09,21.05.45,43.71-6.36,64.08,6.89-8.44,8.6-23.37,9.06-33.36-0.26,8.17.09,15.34-1.82,23.5-2,8.49-6.22,17.34-7.54,25.9,5.63-6.41,9.76-20.62,11-28.26a91.31,91.31,0,0,1-7,22.8c7.08-4.13,9.9-15.39,12-22.64C-92.38,636.43-93.7,642-96.67,647c6-3.54,8-14.35,10-20-2,5.6-.86,8.64-0.87,14.44a71.77,71.77,0,0,0,2.67-29.18c0.8,6.07-.16,14.47,3.82,19.66-1.51-8.18-1.21-16-.23-24.19h0Z" transform="translate(243.14 -381.47)"/><path class="cls-29" d="M-80.61,607.58c-0.32,3.67-.74,7.34-0.77,11q1.76-6.46,3.12-13c-1.64,1.47-2-.24-1.84-3.39q-0.37,2.68-.52,5.38C-80.84,610.27-80.48,606.24-80.61,607.58Z" transform="translate(243.14 -381.47)"/><path class="cls-30" d="M-134,436c-1.13.42-2.3,7.22-2.31,7.84,2.36-4.89,9-6.9,13.41-3.52-7.08-5.59-8,20.08-7.71,21.73,1.88,12.66,1.27,25.64,4.18,38.18-0.23-2.77.78-6.64,0.84-8.65-0.45,11.17,2.64,31.54,10.43,40.33q-1.39-3.24.79-4c1.57,5.37.52,11.63,4.06,16.36,3.2-2.82,2.63-11.77,4.5-3.87q0.21-1.63,1.45-1.57c1.53,6.1-1.32,14.88,3.93,17.93-0.33-.19,5.87-0.23,5.94-0.52-0.92,3.66-1.68,7.73-.12,11.21,0.87,1.93,5.08-.54,5.18-1-0.89,4.38-2.3,9.22-2,13.73,0.11,1.43,2.49,5.44,3.46,2.19-1,3.5-3,6.41-1.73,10,1,2.72,4.27-1.48,4.39-1.82-0.2.55-2.34,6-.45,6.18,1.7,0.16,5-4.84,5-5.58a20.44,20.44,0,0,0,.06,8q0.22-1.68,1.49-1.62c0-3.21-.83,9.19.47,8,4.11-3.57,3.66-20.08,4-25.15a157.33,157.33,0,0,0-1-30.57c-2.82-21.94-10.38-43-17.59-63.86-5.85-16.88-13.81-37-25.22-51-9.63-11.81-23.74-7.4-21.74,9.13,1.06-3.15,2.83-6.73,6.18-8h0Z" transform="translate(243.14 -381.47)"/><path class="cls-31" d="M-131.57,515.24c0.3-5.29,1.12-10.61.91-15.9C-132.55,504.46-131.83,509.86-131.57,515.24Z" transform="translate(243.14 -381.47)"/><path class="cls-31" d="M-112.93,563.45a1,1,0,0,1-.73,1.4c-3.49-4.62-4.23-10.38-4.12-16-1.88,11.51-.7,25.81,4,36.63,0.69-7.32.07-14.73,0.83-22C-113,563.84-113.17,565.81-112.93,563.45Z" transform="translate(243.14 -381.47)"/><path class="cls-31" d="M-119.4,553.75c-1.93,3.67-4.23-9.67-4.29-10.12-1-7.45-1.49-14.83-2.72-22.28,1.38,17.8.12,34.55,5.67,52a153.46,153.46,0,0,0,1.35-19.57C-119.52,554-119.47,556.26-119.4,553.75Z" transform="translate(243.14 -381.47)"/><path class="cls-31" d="M-118,538.5c-0.16,3.64-.26,7.29-0.33,10.94,0.71-3.57.37-7.33,0.33-10.94C-118.15,541.83-118,542.2-118,538.5Z" transform="translate(243.14 -381.47)"/><path class="cls-31" d="M-117.16,532.93a53,53,0,0,0-.3,9.78A81.62,81.62,0,0,0-117.16,532.93Z" transform="translate(243.14 -381.47)"/><path class="cls-32" d="M-81.61,587.87q0.88-3.87,2.15-7.64a14.1,14.1,0,0,1-5.41,6.7c3.44-2,6.07-15.49,6.29-19.35-0.37,1.41-2.74,4.39-2.93,5.1a43.25,43.25,0,0,0,1.29-11.57c0.09-.67-3.7,16.18-5.52,12.28-2.46-5.25,1.53-18.28,1.77-24.3-0.71,3.17-3.77,13.65-8.44,11.33-1.57-.78,3.69-15.38,3.71-15.49-3.42,7.7-5.46,2.76-4.19-2.42-5.18,9.79-3.23-7.1-3.13-9.18,0.34-.84-3.83,7.54-4.29,6.33-2.53-6.91-1.55-15.27-1.45-24.06,0.14-.88-2.92,7.81-3.39,6.49a21.11,21.11,0,0,1-.6-8.67c-0.5,6.51-1.82,14.44-6.94,7.34-3.44-4.77-2.14-16.07-2.34-21.55-0.27,1.86-1.65,15.74-1.08,16.4-2.78-3.18-3.88-7.74-4-11.85,0,0.17-.11,8.16-0.07,8.22-4.7-9.22-4.78-26.21-2.12-36.07a45.49,45.49,0,0,0-2.84,8.72c0.66-7-1.73-13.95.06-20.85-0.69.51-2.46,4.29-2.48,4.9,0.17-5.9-2.17-15.45,3.13-19.9-0.25.14-3.82,3.64-3.86,3.75,1.23-4.07,4-11.29,9.74-10-18.47-10.63-11.55,43-10.46,49.42,2.39,14.14,7,29,14.81,41.1q-1.77-3.35.47-3.84c0.67,2.86.74,15,4.66,12.39,1.44-1,3-9.08,3-9.92,0.49,2.82-.82,4.77.66,7.7-3.91,5.09,1.52-3.78,1.59-2.65,0.16,2.34-1.1,18.67,1.62,19.94,1.76,0.82,5.56-4.22,5.74-5a7.5,7.5,0,0,0-.66,4.89c0.27,0.66,2.8-1.93,2.72-1.52-1.14,6.29-1.08,9,.7,14.2,0.42,1.24,3.26-.82,3.3-1-0.48,2.12-4.14,14.54-.35,15.91,0.29,0.11,1.87-2.07,1.86-1.84-0.18,2.48-3.85,8.24-.12,9.54,1.81,0.63,4.9-2.19,5.4-3.37q-2.43,2.64-.54,4.65c3.5-.72,5-6.54,6-9.48,0.06-.11-3.52,4.57-3.43,4.15C-81.16,585.25-81.66,588.12-81.61,587.87Z" transform="translate(243.14 -381.47)"/><path class="cls-31" d="M-74.63,560.46c-1.58-25-9.74-48.62-17.79-72.15-6.12-17.89-14.73-43-28.61-56.39-18.82-18.23-20,18.37-20.76,29.57-1.6,23.23-12.43,47.68,3.2,68.71-0.65-4-.17-8.52-1.05-12.47-1-4.51-2.77-6.29-4.33-10.62-3.26-9.08,1.35-21.43,3.25-30.23,3.14-14.55-.15-31,6.26-43.3a14.18,14.18,0,0,0-1.57,5.17c2-4.9,8.12-7.85,13-5.17q-0.86,2-3.76,1.15c9.55-.16,13.59,16.25,15.72,23.1q-2.09-3.67.36-4.53c3,5.65,3.65,12,5.26,18.12,0,0.09.16-6.14,0.32-5.85,8.09,14.57,9.83,27,12.48,42.91-0.08.48,0.68-7,1.31-6.46,4.74,4.32,3.32,12.63,4.61,18.2q-1.47-3.44.81-4.29c4.9,5.35,3.17,12.39,4.66,18.64,1.68,7,3.64,11.62,3.5,19.52q-0.46-1.45.67-1.58c3.26,11.48,2.81,28.65-.1,40.3,4.22-9.16,3.21-22.49,2.57-32.36C-75.2,551.49-74,569.76-74.63,560.46Z" transform="translate(243.14 -381.47)"/><path class="cls-31" d="M-114.23,510A32.91,32.91,0,0,0-113,518.7a63.5,63.5,0,0,1-1.24-8.69C-114.13,513-114.17,510.64-114.23,510Z" transform="translate(243.14 -381.47)"/><path class="cls-33" d="M-81.26,607.75c0.07-.59,1.42-6.88,1.26-7.75,0.92,5.74-1.33,12.72-1.37,18.62a207.59,207.59,0,0,0,5.69-28.3c-1,2.69-4.47,12.73-3.87,3.26-1.45,5.85-5.33,15.94-4.52,21.37q-0.67-3.86-1-7.76c-0.36,3.21-4.89,20.74-4.82,8.68-1.11,4.82-4.75,10.47-5.6,14.33,0.92-4.07,1.81-8.16,2.51-12.27,0,0.06-1.92,5.44-2.75,4.44-2.83-3.52-.26-12.91-0.39-17.11q-0.38,1.53-1.34,1c1.09-14.33-1.16-28.62-3.39-42.73-0.51,6.08-4.14,19.09-3.18,23.94-1.1-5.52-1.35-11.23-1.87-16.82-3,15.11.2,30.39,0,46.53a173.08,173.08,0,0,0,5.39-38.42c-0.09,21.05.45,43.71-6.36,64.08,6.89-8.44,8.6-23.37,9.06-33.36-0.26,8.17.09,15.34-1.82,23.5-2,8.49-6.22,17.34-7.54,25.9,5.63-6.41,9.76-20.62,11-28.26a91.31,91.31,0,0,1-7,22.8c7.08-4.13,9.9-15.39,12-22.64C-92.38,636.43-93.7,642-96.67,647c6-3.54,8-14.35,10-20-2,5.6-.86,8.64-0.87,14.44a71.77,71.77,0,0,0,2.67-29.18c0.8,6.07-.16,14.47,3.82,19.66-1.51-8.18-1.21-16-.23-24.19h0Z" transform="translate(243.14 -381.47)"/><path class="cls-31" d="M-107.93,593.6c0-5.43-.5-10.65.17-16.09-0.58,1.82-2.95-9.64-3-11.07-0.26-7.2,1.43-14.33,1.25-21.54-3.37,16.43-5.12,35.83,1.57,51.8a20.42,20.42,0,0,1,0-3.11S-108,594.23-107.93,593.6Z" transform="translate(243.14 -381.47)"/><path class="cls-31" d="M-133.85,529.25c0.27-6.13-4.35-13.78-4.49-21.44-0.19-10.26,1.2-20.39,1.85-30.6-5.27,20.17-4.72,47.75,3.3,67a102.19,102.19,0,0,1-.67-15C-133.79,528-134,533.54-133.85,529.25Z" transform="translate(243.14 -381.47)"/><path class="cls-27" d="M-78.64,583.43c-1,3.55-4.18,10.41-7.34,12.65-1.18-2.85,2.76-8.49,3.2-10.83-0.11.56-3.55,6.58-5.67,7.33-2.38.84,1.64-10.42,1.89-10.82,1.43-2.29,5.68-4.52,6.66-8.93-0.66,1-6,9.74-6.52,7.89A50.75,50.75,0,0,0-80.25,562c-2.41,1.59-4.25,22.1-10,20.89-4.68-1,5.2-25.71,5.77-29.4-1,3.79-5.32,18.9-10.13,12.88-4-5.05,2.31-11.86,3-16.28-0.22.31-4.39,7.19-5.52,6.57-3.73-2.16,4.89-10.27,3.41-13.61-1.82,7.19-7.19,20.2-9.56,6.4-2-11.37,1.32-22.25.74-33.65-0.4,6.55.16,16.9-3,22.82-3.5-4,.28-18.74,0-23.43,0.27,3.51-1.18,10.66-1.66,14.87-0.08.74-2.77,14.23-3.29,13.37-4.7-7.77-3.88-23.3-4.76-32.52-0.45,6.07,2.67,14.4.2,19.94-4.08-5.06-1.83-14.93-4.26-20.45,1.35,3.13.78,11.25,1.9,15.32-6.06-11.32-6.63-22.24-8.09-34.7-0.85,4.42,0,9.92.39,14.34-4.61-14.08-.45-29.63-4.69-43.16,2.47,14.36.18,28.54,3.8,43,1.71,6.85,4.76,22,10.68,26.67q1.51-.14,1.37-2.11c0.17,1.07,1.27,15.4,4,14.63,2.39-.67,2.84-7.63,3.06-9.47,0.08,1.39-.27,3.62,1.08,4.59a1.43,1.43,0,0,0,1.33-1.66c-0.26,2.57-.16,25.47,6,17.39,0.17,2.49,2.28,2.41,3.46.8,0.13,1.72-1.66,20.41,5.45,11-0.52,1.78-4.92,19.83,1,16.1-1.3,2.87-2.75,15.1,2.78,8.23a6.4,6.4,0,0,0-.66,5.47c0.77,1.31,7.65-12.21,7.87-13.44C-79.37,586.08-78.8,584.35-78.64,583.43Z" transform="translate(243.14 -381.47)"/><path class="cls-34" d="M-174.23,431.44c-2.63-7.06-9.62.86-10.1-10.22,0.12,2.15-2.16,4.49.13,6.93-2.89,1.58-6.11-.48-9.24,1.34,2.46-4,1.38-17.69-4.28-19.17,3.6-3.34,8.91-1,10.1,3.22-2.67-9.17-7.19-3.8-11-3.1-7.88,1.44-15.91-2.65-23.94-1.62a21.73,21.73,0,0,0-18,13.68c-1.67,3.91-4.78,17.44.21,20.16,0.59,0.32,3.39-6,3.83-6.59,4-4.95,9-5.83,14.9-4,5.65,1.79,23.12,14.31,28.64,6.83,1-1.4-2.64-6.48.81-9.32,2.33-1.92,17.28-.21,18,1.81C-175,429.25-174.11,431.76-174.23,431.44Z" transform="translate(243.14 -381.47)"/><path class="cls-35" d="M-194.18,438.59c-14.09,3.1-34.16-18.11-43.94-1.15,3.5-8,9.75-13,18.78-11.44s15.41,10.19,24.84,4.87c-0.59,2.23-1.72,5.76.31,7.72C-194.42,438.65-195.5,437.32-194.18,438.59Z" transform="translate(243.14 -381.47)"/><path class="cls-35" d="M-194.21,429.8c-10.42,5.28-15.87-3.77-26-4.89-12.33-1.36-15.2,7.67-19.86,16.56-0.46.88-1.69-5.55-1.78-6.35a24.91,24.91,0,0,1,1.69-11.85,20.82,20.82,0,0,1,18-13.59c4.48-.46,8.82.63,13.24,1,2,0.18,10-.62,11.21.06,5.87,3.33,4.88,13.76,3.51,19C-194.46,429.93-193.73,427.93-194.21,429.8Z" transform="translate(243.14 -381.47)"/><path class="cls-36" d="M-195.15,433.51l0.66-2.63c-15.33,8.65-32.7-18.32-43.62,6.57,9.78-17,29.85,4.25,43.94,1.15a5.32,5.32,0,0,1-1-5.08C-195,432.63-195.55,435.28-195.15,433.51Zm-4.17,4.47c-7.78,1.76-16-6.66-22.29-9.72,0.45,0.21,7,.34,8.87,1,2.9,1,5.1,3.78,8.15,4.56-0.27-.07,8.5,1.34,7.84-0.16,0.77,1.75,0,3.73-2.57,4.33h0Z" transform="translate(243.14 -381.47)"/><path class="cls-36" d="M-193.23,424.1c0.13-3.86-.29-9.16-3.09-12.21,1,2.54-1.62,8.14-1.7,8.87-0.29,2.46,7-.1-1.38,3.77,4.86,3.24-5.07,2.1-6.92,1.59-6-1.65-9.73-5.38-16.55-4.9a20.26,20.26,0,0,0-14.21,7.24c-1.73,2.06-3.93,5-4.28,7.83-0.15,1.15.91,5.95,1.31,5.18,5.52-10.51,9.5-19.64,23.73-15.57,7.34,2.1,22.61,13,23.09-1.81h0Z" transform="translate(243.14 -381.47)"/><path class="cls-37" d="M-211.86,420a31.93,31.93,0,0,0,10,3.65,10.09,10.09,0,0,0-4.24-3.31q1.33-2.36,4.39,1.24a12.36,12.36,0,0,0-4.91-3.34q0.31-1.33,2.08-.49c-6.54-1.34,1.67-1.27,3.4-1.57-5.86-.81-4-0.88-1.13-1.6q-1.53.54-1.28-.54a13.26,13.26,0,0,0,4.4-2.07c-7.68,1.85-16.34-2.61-24.36-1.28-10.91,1.8-14.65,8.76-17,19,3.91-9.48,20.52-14.08,28.75-9.66h0Z" transform="translate(243.14 -381.47)"/><path class="cls-37" d="M-212.5,412c-3.88-.43-8.15-1-12.1-0.18-4.12.81-8.75,2.76-11.06,6.49-0.37.6-4.06,6.56-.91,5.31q-2.77,2.47-1,4.51c1.14,0.18,8.68-6.57,10.85-7.28s10.54-.07,11.62-1.46c1.9-2.47-7.47-2.56-8-2.55,4.58-.57,4.3-2.73-0.17-2.73C-221.61,413.67-212,412.18-212.5,412Z" transform="translate(243.14 -381.47)"/><path class="cls-37" d="M-200.87,435c-10.31-1.1-20.14-15-30.67-5.52,4.12-3.69,13-.61,17.54,1.67,3,1.51,5.94,4.69,9.5,4.86,0.53,0,5-.87,3.63-1h0Z" transform="translate(243.14 -381.47)"/><path class="cls-38" d="M-221.35,412.39c-5.89.38-12.44,2.69-14.88,8.58,1.13-2.64,12.51-8.43,14.88-8.58C-227.45,412.79-220.87,412.36-221.35,412.39Z" transform="translate(243.14 -381.47)"/><path class="cls-37" d="M-202,431.76c-14.59-3.07-21.51-13.15-34.47,2,11.69-13,22-4.46,34.47-2C-204.18,431.29-201.53,431.85-202,431.76Z" transform="translate(243.14 -381.47)"/><path class="cls-13" d="M-164.43,393.37c-0.42-.47-1.79-2-2.56-1.31-1.78,1.69,3.69,2.57,2.56,1.31h0Z" transform="translate(243.14 -381.47)"/><path class="cls-39" d="M-193.28,409.55c1.19,0.34,4.22,15.4,3.57,15.55,4.29-1-.31-14.6-3.57-15.55h0Z" transform="translate(243.14 -381.47)"/><path class="cls-39" d="M-188.11,414c0.55,0.78-.19,8.91-0.16,9.65-0.12-2.4,2.81-5.77.16-9.65h0Z" transform="translate(243.14 -381.47)"/><path class="cls-39" d="M-186,414.67c-0.31-.65-0.09,3.8-0.09,3.81q2.6-.24.09-3.81h0Z" transform="translate(243.14 -381.47)"/><path class="cls-39" d="M-189.38,407.55c2.14,1.73,4.61,8.61,4.85,12.15-0.33-4.93-.05-8.41-4.85-12.15h0Z" transform="translate(243.14 -381.47)"/><path class="cls-15" d="M-171.47,384.14c-8.94.11-15.15,6.33-22.11,8.06,6.42-1.63,17.16-8,22.11-8.06C-175.68,384.2-170.77,384.14-171.47,384.14Z" transform="translate(243.14 -381.47)"/><path class="cls-40" d="M-174.18,472.25a32.81,32.81,0,0,0-1.21-7.27,0.83,0.83,0,0,0,1,.74c-0.93-3.7-2.11-7.12-2.07-11q0.62,2.25,2.38,2.48c-1-4.94-2.5-11.35-6.75-14.66,3.21-.43.56,15.71-0.45,18-3,6.88-6.88,11.18-4.69,18.89a36.89,36.89,0,0,0,.91-4.92c0,0.3-.17,4.66,1,4.94,0.76-2.82,1.38-5.8,2.82-8.37,0,1.12,1.63,8.7,3.85,7.92q0-3.91,0-7.82,0.24,4.1,3,4.35l0.26-3.3C-174.33,469.72-174.24,473.35-174.18,472.25Z" transform="translate(243.14 -381.47)"/><path class="cls-41" d="M-128.27,552.21c0-5.7-1.85-51.06,0-51.68-3.1,1.07-3,26.8-3.19,29.57-0.31,5.1-.88,10.22-0.27,15.32,0.22,1.86,3.51,10.66,3.51,6.79C-128.3,548.12-128.27,553.06-128.27,552.21Z" transform="translate(243.14 -381.47)"/><path class="cls-41" d="M-132.64,520.19a181.68,181.68,0,0,1,0-32.61c0.13-1.48,1.62-28.68-.82-27.66-0.34.14-2.37,30.18-2.76,33.34-0.76,6.15-1.47,12.39-.66,18.58,0.15,1.15,4.63,12.68,4.27,8.36C-133.06,515.28-132.56,521.16-132.64,520.19Z" transform="translate(243.14 -381.47)"/><path class="cls-41" d="M-138.35,479.51c0.43-2.35,3.38-25.93,2.64-25.67-1.8.65-5,25.33-5.7,28.69-0.53,2.59-3.1,26.34-.12,24.46,2.45-1.56,2.56-24.08,3.18-27.48C-136.83,471.25-140,488.33-138.35,479.51Z" transform="translate(243.14 -381.47)"/><path class="cls-41" d="M-120.67,563.2c-0.51-3.63-1.92-40.61-1.83-40.64-1.33.41-1.47,20.14-1.54,23.14-0.13,5.91,2.94,14.36,3.37,17.5C-122.54,549.78-120.62,563.6-120.67,563.2Z" transform="translate(243.14 -381.47)"/><path class="cls-41" d="M-114.16,555.15c0.09-1.31.77-19.55-.48-19.13-5.12,1.71.44,38.5,0.27,38.57,0.6-.25.09-17.73,0.2-19.44C-113.75,548.94-114.58,561.53-114.16,555.15Z" transform="translate(243.14 -381.47)"/><path class="cls-41" d="M-107.89,561.37c0.08-1.59.85-13.09,0.78-13.08-5.29,1.15-1.92,26.06-1.89,26.05,1.87-.65,1-11.22,1.11-13C-107.77,558.85-108.09,565.5-107.89,561.37Z" transform="translate(243.14 -381.47)"/><path class="cls-41" d="M-103.63,571.31c0-1,.95-13-0.4-12.51-3.83,1.25.27,25.73,0.28,25.73,1.19-.36.07-11.7,0.12-13.22C-103.51,567.31-103.76,575.51-103.63,571.31Z" transform="translate(243.14 -381.47)"/><path class="cls-41" d="M-96.37,567.08c0-.09-0.67,30.86.64,30.58,4.55-1,0-28-.64-30.58h0Z" transform="translate(243.14 -381.47)"/><path class="cls-41" d="M-91.66,604.69c0.08-1.08.32-15.49-1.37-14.75-2.41,1.06-.49,29.31-1.82,29.65,2.47-.64,3-12.76,3.19-14.9C-91.31,600-91.84,607.14-91.66,604.69Z" transform="translate(243.14 -381.47)"/><path class="cls-41" d="M-88.26,598.44c0-1.25-3.57,9.79-1.88,9.71,2.92-.14,1.84-8.08,1.88-9.71C-88.26,597.82-88.33,601.3-88.26,598.44Z" transform="translate(243.14 -381.47)"/><g class="cls-42"><path class="cls-41" d="M-101.23,506.83c0.08-1.46-.23-23.69-2.8-19.84-0.11-9.51-6.88-4.87-8.08,1.54,0.16-3.77,3.94-16.86,1-20-1.64-1.75-5.84,7.43-5.82,7.39,0.08-2,.51-18.09,3-17.92-3.13-.2-5.09,2.71-6.48,5-0.12-1.1.86-12,2.45-11.61-9-2.43-4.75,24-4.33,26.56,1.06,6.58.66,13.62,2.45,20.28,0.46,1.71,3.67,12.6,4.88,4,0.25,2.91.53,12.86,4.08,13.5,4.11,0.74,5.15-7.24,5.58-9.76,0,0-.26,8.67,2.23,7.17a7.32,7.32,0,0,0,1.84-6.36C-101.15,505.44-101.35,509-101.23,506.83Z" transform="translate(243.14 -381.47)"/><path class="cls-41" d="M-95.89,510.51c0-1.1-.95-16.66-2.33-15.76-0.81.53-.38,15.21-0.44,16.44-0.12,2.59-1.45,18.88-.6,18.65,3.76-1,3.24-16.32,3.36-19.33h0Z" transform="translate(243.14 -381.47)"/><path class="cls-41" d="M-89.79,527.42c0.4-4,.77-8.83-1.38-12.42,0.87,1.41-3.56,25.44-3,25.54,3.52,0.62,4.2-11.26,4.39-13.12C-89.42,523.72-90.2,531.58-89.79,527.42Z" transform="translate(243.14 -381.47)"/><path class="cls-41" d="M-92.74,525.24c0,0.22,0-7-1.42-6.43-1.17.51-1.39,12.57-.36,12.31,1.77-.45,1.7-4.77,1.78-5.88C-92.58,523.1-92.87,527-92.74,525.24Z" transform="translate(243.14 -381.47)"/><path class="cls-41" d="M-86.45,532c0.12,0.49-5.56,11.85-3.08,13,3.58,1.74,3.37-11.73,3.08-13C-86.57,531.49-85.61,535.71-86.45,532Z" transform="translate(243.14 -381.47)"/><path class="cls-41" d="M-84.11,524.38c0.3,1.39-4.35,31.65-5.21,31.79,7.75-1.18,6.27-26.81,5.21-31.79h0Z" transform="translate(243.14 -381.47)"/></g><path class="cls-41" d="M-81,544.48c0.15,0.4-4.22,17-2.09,17.05,4.2,0.09,2.84-15,2.09-17.05h0Z" transform="translate(243.14 -381.47)"/><g class="cls-42"><path class="cls-41" d="M-115.8,500.87c-0.65-4.4-1.12-10.35-2.71-14.47,0.38,1-1.56,7.25-.63,10,0.4,1.18,3.79,7.5,3.34,4.46C-116.16,498.48-115.71,501.51-115.8,500.87Z" transform="translate(243.14 -381.47)"/><path class="cls-41" d="M-112.85,502.17c0,0.16-.21-7.48-0.76-7.33-3.73,1-1,16.52,1.36,15.32,1.55-.78-0.5-7.22-0.61-8C-113.19,499.82-112.52,504.52-112.85,502.17Z" transform="translate(243.14 -381.47)"/><path class="cls-41" d="M-102.59,504.45c-0.39-1.43-3,6.07-.49,5.49,1.85-.44.73-4.61,0.49-5.49h0Z" transform="translate(243.14 -381.47)"/><path class="cls-41" d="M-97.06,516.21c-0.29-1-1.92,6-1.2,7.2,1.41,2.37,1-7.71,1.2-7.2h0Z" transform="translate(243.14 -381.47)"/><path class="cls-41" d="M-122.06,463.27q2.26-3.06.53-5.21c-3.45.05-2.39,10.7-1.16,10.07q1.95-1.89.63-4.86C-122.05,461.63-122.05,464.59-122.06,463.27Z" transform="translate(243.14 -381.47)"/><path class="cls-41" d="M-118.74,464.74c-0.7.83-5.55,14.36-1.86,12.89,2.65-1.05.75-11.52,1.86-12.89C-121.7,468.24-118.55,464.51-118.74,464.74Z" transform="translate(243.14 -381.47)"/><path class="cls-41" d="M-87.56,536.89s-3,4.46-2.58,6.12c0.52,2,2.62-5.9,2.58-6.12h0Z" transform="translate(243.14 -381.47)"/></g><path class="cls-43" d="M-134.52,494c0,0.06,1.07-6,.35-5.94-2.4.33-3.4,12.13-1.58,11.77q2.74-1.91,1.22-5.82C-134.44,492.09-134.59,495.63-134.52,494Z" transform="translate(243.14 -381.47)"/><path class="cls-43" d="M-140.9,487.28q1.1-2.11-.38-2.88c-0.81.21-2.44,6-.72,5.53a2,2,0,0,0,1.1-2.65C-140.85,486.41-140.94,488-140.9,487.28Z" transform="translate(243.14 -381.47)"/><path class="cls-43" d="M-129.26,534.58q2-4.11-.68-4.81c-1.1.5-1.67,10.46,0.12,9.9q2.2-1.79.55-5.09h0Z" transform="translate(243.14 -381.47)"/><path class="cls-44" d="M-166.83,577.13l-0.48-2.08c3.18,7.42,1.34-6.44.78-8.68,1.34,2.22-1.25-12.18-1.55-13.49,0,1,3,2.93,3.49,3,1.25,0.23-2.81-6.48-2.58-6.05q0.87,1.85,1.67.68c-1.57-6.26-1.51-10.48-1.64-16.78,0,0.06-2.54,6-2.6,6.2-1.31-4.13,1.28-8.31,1.93-12.15q-2.11-1.15-2.93,3.07c0.47-4,3.42-6.7,4.41-10.33-0.11.43-7.43,5.19-8.5,7.35q2.57-2.26.94-3.48c-3.76,2-4.32,6.59-6.71,9.69-0.11-2.28,2.09-11.6,3.83-12.42a10.88,10.88,0,0,0-3.74,2.77,60.6,60.6,0,0,0,3-5.31c-3.75-.13-6.93,4.66-8.55,7.32a55.2,55.2,0,0,0,1-5.46c-2.17,1.26-2.59,4.87-3.93,6.76a10.51,10.51,0,0,0-.29-4.5c0.54,1.18-6.23,17.73-.36,9.06-3.83,8.36,1.17,1.25,2.78.44-3.69,4.71-4.54,9.23-5,15.09,0,0.07,2.32-5.65,3.48-6.34a9.36,9.36,0,0,0-1.45,4.7c0,0.57,4.07-5.65,3.67-5.19-1.32,3.43-5.93,12-2.9,15.62q2.53-.69,1.53-4.48c-0.29,1.23-1.75,6.37-.83,8.2q2.76-.14,1.9-4.55-0.75,3.63-1.61,7.23,2.28,1.23,2.91-3.44a11.84,11.84,0,0,0-.58,7.54q1.22,0.08.91-1.54a16.19,16.19,0,0,0,2.37,9.37c0.21,0.28.35-7,.43-7.6,0,3.76,1.68,10.06,5.3,12.11q2.43-1.51-1-4.79c1.41,2.64,2.21,7.82,4.11,9.89,0.68,0.71.1-6.38,0.16-5.89a42,42,0,0,0,2.87,5.28c-0.05-.09-1.07-7.36-1.12-7.68,1.54,4.33,2.82,9.23,4.71,13.41-0.44-1,.66-10,0.15-12.56h0Zm-17.75-13.34a4.57,4.57,0,0,1,.59-1.55C-184.13,562.78-184.39,563.27-184.58,563.78Z" transform="translate(243.14 -381.47)"/><path class="cls-12" d="M-166.21,382.53l-1.18,2.14c-0.27.46,1.64-2.68,1.18-2.14h0Z" transform="translate(243.14 -381.47)"/><path class="cls-12" d="M-163,383.31a3.55,3.55,0,0,0-2.17,1.75c-0.29.32,2.66-1.76,2.17-1.75C-164,383.36-162.76,383.31-163,383.31Z" transform="translate(243.14 -381.47)"/><path class="cls-12" d="M-160.51,384.86q-1.76-.37-1.61.71,1.38,0.3,1.61-.71C-161.09,384.78-160.29,384.9-160.51,384.86Z" transform="translate(243.14 -381.47)"/><path class="cls-12" d="M-158.75,385.8l-2,.58c-0.57.34,2.56-.49,2-0.58C-159.5,385.68-158.55,385.83-158.75,385.8Z" transform="translate(243.14 -381.47)"/><path class="cls-12" d="M-155.13,387.26c-1.93-1.08-3.12.84-4.11,1.37,0.3-.15,3.77-1.57,4.11-1.37C-156.6,386.44-154.93,387.38-155.13,387.26Z" transform="translate(243.14 -381.47)"/><path class="cls-12" d="M-155.44,390q-2.06-.65-2.06.68c-0.1,0,2.41-.49,2.06-0.68C-156,389.74-155.28,390.13-155.44,390Z" transform="translate(243.14 -381.47)"/><path class="cls-12" d="M-154.71,392.19a3,3,0,0,0-1.72-.29q1.07,1.16,1.72.29h0Z" transform="translate(243.14 -381.47)"/><path class="cls-12" d="M-151.82,394.66l-4.17-.58c-1,.15,5,1.13,4.17.58h0Z" transform="translate(243.14 -381.47)"/><path class="cls-12" d="M-153.05,396.58c-2.11-.09-0.18,0,0,0h0Z" transform="translate(243.14 -381.47)"/><path class="cls-12" d="M-158.88,390.45c-1.83,1.22-.1.07,0,0h0Z" transform="translate(243.14 -381.47)"/><path class="cls-12" d="M-161.65,387.91c-0.64,2,.22-0.64,0,0h0Z" transform="translate(243.14 -381.47)"/><path class="cls-12" d="M-156.08,395.76q-1.52.22-1,1.11,1.85-.35,1-1.11C-156.45,396-155.85,395.6-156.08,395.76Z" transform="translate(243.14 -381.47)"/><path class="cls-12" d="M-152.77,400q-2.14-1.81-2.54-.33,1.85,1.71,2.54.33C-153.5,399.45-152.6,400.08-152.77,400Z" transform="translate(243.14 -381.47)"/><path class="cls-12" d="M-152.22,401.49q-1.44-.91-1.65.2,1.43,0.87,1.65-.2h0Z" transform="translate(243.14 -381.47)"/><path class="cls-12" d="M-170.22,382.6c-0.4-.61.28,3.47,0.51,2.57l-0.51-2.57h0Z" transform="translate(243.14 -381.47)"/><path class="cls-12" d="M-171.86,384.1c-1.42-2,.16.22,0,0h0Z" transform="translate(243.14 -381.47)"/><path class="cls-12" d="M-173.59,383.12q-1-1.56-1.73-.59,1.91,2,1.73.59C-174.16,383.21-173.31,383.09-173.59,383.12Z" transform="translate(243.14 -381.47)"/><path class="cls-12" d="M-168.56,381.53h0C-168.59,381.27-168.52,381.91-168.56,381.53Z" transform="translate(243.14 -381.47)"/><path class="cls-12" d="M-167.91,382q-1.34,0-.59,2.11,1.38-.14.59-2.11C-167.93,381.78-167.83,382.64-167.91,382Z" transform="translate(243.14 -381.47)"/><path class="cls-40" d="M-158.27,410.56c0.19,2.11-7.16,21-11.62,18.9,8.23,3.73,12-14.76,11.62-18.9C-158.31,410.09-157.85,415.32-158.27,410.56Z" transform="translate(243.14 -381.47)"/><path class="cls-40" d="M-164.74,401.36c-0.25-.56-1.91,10.85,0,10.44,2.65-.57.63-9,0-10.44h0Z" transform="translate(243.14 -381.47)"/><path class="cls-40" d="M-182.1,469.61c-0.09-1.37-2.8-.18-2.2,1.22s3-.17,2.2-1.22C-182.11,469.51-181.91,469.88-182.1,469.61Z" transform="translate(243.14 -381.47)"/><path class="cls-40" d="M-183,473.45c-0.87-.09-1.48,1.4-0.39,1.51C-182.56,475.05-182,473.56-183,473.45Z" transform="translate(243.14 -381.47)"/><path class="cls-40" d="M-184.23,478.92c-0.42,0-.72.68-0.18,0.74S-183.69,479-184.23,478.92Z" transform="translate(243.14 -381.47)"/><path class="cls-40" d="M-184.8,481.8a1,1,0,0,0-1.53.91c0.18,1.32,2.15-.12,1.53-0.91h0Z" transform="translate(243.14 -381.47)"/><path class="cls-40" d="M-183.69,487.48c-0.22-1.25-1.89-.14-1.38.82q1.16,0.54,1.38-.82h0Z" transform="translate(243.14 -381.47)"/><path class="cls-40" d="M-181.31,481.32c-0.63-.81-2.34.45-1.67,1.3s2.24-.57,1.67-1.3h0Z" transform="translate(243.14 -381.47)"/><path class="cls-40" d="M-179.42,486.05c-1-.1-1.68,1.59-0.44,1.72C-178.87,487.88-178.18,486.18-179.42,486.05Z" transform="translate(243.14 -381.47)"/><path class="cls-40" d="M-176.68,477.48c-0.94-.1-1.6,1.51-0.41,1.64C-176.16,479.21-175.51,477.6-176.68,477.48Z" transform="translate(243.14 -381.47)"/><path class="cls-40" d="M-175.31,481.8c-0.73-.07-1.24,1.18-0.32,1.27C-174.9,483.14-174.39,481.89-175.31,481.8Z" transform="translate(243.14 -381.47)"/><path class="cls-40" d="M-179.75,477.22c-0.67-.07-1.13,1.07-0.3,1.16C-179.38,478.44-178.92,477.3-179.75,477.22Z" transform="translate(243.14 -381.47)"/><path class="cls-40" d="M-178.42,465c-1.1-.11-1.86,1.75-0.48,1.9C-177.82,467-177.05,465.16-178.42,465Z" transform="translate(243.14 -381.47)"/><path class="cls-40" d="M-175.19,471.48c-0.47,0-.79.75-0.2,0.81S-174.61,471.54-175.19,471.48Z" transform="translate(243.14 -381.47)"/><path class="cls-40" d="M-170.06,473.73c-1-.11-1.76,1.66-0.46,1.8C-169.49,475.63-168.77,473.86-170.06,473.73Z" transform="translate(243.14 -381.47)"/><path class="cls-40" d="M-167.86,478.39c0.54,2-1.51-1.23,0,0C-167.95,478.06-167.6,478.6-167.86,478.39Z" transform="translate(243.14 -381.47)"/><path class="cls-40" d="M-185.46,475.43c-1-.1-1.64,1.55-0.43,1.68C-184.92,477.21-184.25,475.56-185.46,475.43Z" transform="translate(243.14 -381.47)"/><path class="cls-44" d="M-158.25,553.26a51,51,0,0,1-2.7-6.5c-0.25-.46,3.27,8.1,2.7,6.5C-158.74,551.95-158.09,553.69-158.25,553.26Z" transform="translate(243.14 -381.47)"/><path class="cls-44" d="M-157.38,556.34c-0.12-.09-3.64-3.27-3.55-3a4.38,4.38,0,0,0,3.55,3h0Z" transform="translate(243.14 -381.47)"/><path class="cls-44" d="M-159.31,568.38a41,41,0,0,1-2.69-4.3c-0.61-1,3.47,6.23,2.69,4.3C-159.63,567.64-159.19,568.69-159.31,568.38Z" transform="translate(243.14 -381.47)"/><path class="cls-44" d="M-158.8,571.56a28.49,28.49,0,0,1-2.69-3c-0.51-.58,3.29,3.71,2.69,3h0Z" transform="translate(243.14 -381.47)"/><path class="cls-44" d="M-148.79,579.5q-1.47-2.29-2.77-4.68s3.12,5.73,2.77,4.68C-149.37,577.74-148.69,579.82-148.79,579.5Z" transform="translate(243.14 -381.47)"/><path class="cls-44" d="M-147.66,582.21c-0.17-.15-4.9-3.86-4.79-3.64,0.91,1.73,5.39,4.17,4.79,3.64h0Z" transform="translate(243.14 -381.47)"/><path class="cls-44" d="M-148.81,564.62c-1.37-1.48-2.28-2-3-4.22a12.37,12.37,0,0,0,3,4.22h0Z" transform="translate(243.14 -381.47)"/><path class="cls-44" d="M-148.42,552.54c-0.62-.58,1.56,5.48,2,4a4.59,4.59,0,0,0-2-4C-148.55,552.42-147.42,553.57-148.42,552.54Z" transform="translate(243.14 -381.47)"/><path class="cls-44" d="M-143.61,557.12c0.38,1.19.83,6,1.31,7.68-0.31-1-.67-5.78-1.31-7.68C-143.7,556.83-142.85,559.36-143.61,557.12Z" transform="translate(243.14 -381.47)"/><path class="cls-44" d="M-136.19,581l-0.91-2.82c-0.19-.54,1.24,4.34.91,2.82C-136.38,580.06-136.11,581.35-136.19,581Z" transform="translate(243.14 -381.47)"/><path class="cls-44" d="M-135.06,573.72c-0.21-.72.63,6.87,1.88,6.34,1.67-.71-1.8-6.08-1.88-6.34h0Z" transform="translate(243.14 -381.47)"/><path class="cls-44" d="M-131.21,585.89q0-1.89-.87-0.91c0.12,0.17,1.09,4.46.87,0.91C-131.24,585.43-131.19,586.27-131.21,585.89Z" transform="translate(243.14 -381.47)"/><path class="cls-44" d="M-130.67,590.32q-1.84.32-.1,2.57,1.78-.32.1-2.57C-130.74,590-130.5,591.09-130.67,590.32Z" transform="translate(243.14 -381.47)"/><path class="cls-44" d="M-134.07,591.51q-0.06-1.8-1.35-1.55c-1,.76,1.45,2.42,1.35,1.55C-134.14,590.91-134,591.8-134.07,591.51Z" transform="translate(243.14 -381.47)"/><g class="cls-42"><path class="cls-45" d="M-160.24,625.82c-9-2.09-12.44,11.43-12.62,17.26,0.09-3.71,6.68-18.72,12.62-17.26C-163.62,625-159.88,625.91-160.24,625.82Z" transform="translate(243.14 -381.47)"/><path class="cls-45" d="M-153.06,625.63c-9.51-.62-7.9,15.77-10.36,16.34,3.43-.8,3.15-16.73,10.36-16.34C-156.1,625.44-152.73,625.65-153.06,625.63Z" transform="translate(243.14 -381.47)"/><path class="cls-45" d="M-143.36,625.87c-6.39-.15-5.17,14.55-4.85,17.62,0-.26,1.63-17.7,4.85-17.62h0Z" transform="translate(243.14 -381.47)"/><path class="cls-45" d="M-149.14,621.55c0-.72-1.37,1.94-1.16,2.82,0.75,3.12,1.08-8.56,1.16-2.82C-149.15,621.08-149.13,622.41-149.14,621.55Z" transform="translate(243.14 -381.47)"/><path class="cls-45" d="M-131.67,628.56a12.8,12.8,0,0,0-10.57,8.17c-0.3.69-2.13,10.71-.69,10.17,4.79-1.79.87-17.11,11.26-18.33C-135.59,629-131.36,628.52-131.67,628.56Z" transform="translate(243.14 -381.47)"/><path class="cls-45" d="M-124.15,628.81c-8.4,1.15-11.36,11.71-10.51,18.89-0.54-4.35,4.87-18.15,10.51-18.89C-132.5,630-123.87,628.78-124.15,628.81Z" transform="translate(243.14 -381.47)"/><path class="cls-45" d="M-116.35,630.24c-0.45.73-5.58,18.4-3.14,17.16,1.49-.76,1.51-14.62,3.14-17.16h0Z" transform="translate(243.14 -381.47)"/><path class="cls-45" d="M-119.95,623.48c-0.1-1.14-3.25,4-1,3.72,1-.14,1-3.25,1-3.72h0Z" transform="translate(243.14 -381.47)"/></g></g></g></svg>