<svg id="Layer_1" data-name="Layer 1" xmlns="http://www.w3.org/2000/svg" viewBox="0 0 177.42 210.42"><defs><style>.cls-1{fill:#1d2e2f;}.cls-1,.cls-2,.cls-3,.cls-4{fill-rule:evenodd;}.cls-2{fill:#f79100;}.cls-3{fill:#f9ad40;}.cls-4{fill:#d43326;}</style></defs><title>anim_47</title><g id="shape"><path class="cls-1" d="M1695.68,1366.94c-9.31-2-7.57-6.49-9.83-.65-1.68,4.34-1.23,11,10.22,13.51a13.47,13.47,0,0,0,7-.17c7.73-1.47,9.5-9.33,9.5-9.33s-2.65-.45-8.88-1.23C1701.47,1368.37,1698.76,1367.61,1695.68,1366.94Zm74.13-.65c-2.25-5.84-.52-1.38-9.83.65-3.08.67-5.79,1.43-8,2.14-6.23.78-8.88,1.23-8.88,1.23s1.77,7.85,9.5,9.33a13.47,13.47,0,0,0,7,.17C1771,1377.3,1771.49,1370.63,1769.81,1366.29Z" transform="translate(-1641.88 -1169.76)"/></g><g id="shape-2" data-name="shape"><path class="cls-2" d="M1818.78,1313.66c-1.33-5.75-5.72-13-10.91-18.9-5.05-45.62-36.55-95.24-77.29-95.24-40.46,0-71.55,48.69-77,94.91-5.31,5.94-9.85,13.38-11.2,19.23-2.27,9.85,3.67,12.86,3.67,12.86s-1.22,7,3.67,11c1.88,1.53,4.21.57,6.78-2,0.19,0.6.37,1.2,0.57,1.8,17.45,51.9,129.07,47.77,147-1.84l0.14-.4c2.74,2.93,5.23,4.08,7.21,2.47,4.9-4,3.67-11,3.67-11S1821.05,1323.51,1818.78,1313.66Z" transform="translate(-1641.88 -1169.76)"/></g><g id="shape-3" data-name="shape"><path class="cls-3" d="M1778.32,1322c-6.95-7.77-15.74-15.71-46.82-15.71-36.66,0-47.59,4.73-53.79,15.71-3.74,6.61-5.91,37.57,51.93,37.57S1782.42,1326.62,1778.32,1322Z" transform="translate(-1641.88 -1169.76)"/></g><g id="shape-4" data-name="shape"><path class="cls-4" d="M1743.33,1175.21c-5.63-8.54-17.05-7-16.12,4.29,0,0.55.09,1.09,0.13,1.62-5.7-3.78-12.48-.22-9.6,7.34,2.73,7.16,4.1,11.9,1.81,17.31-1.36,1.54-1.84,2.62-1.72,3.38-2.91,6.15,4.27,2.71,7,1.5l0.28-.13c1.11-.12,2.15-0.27,2.93-0.38,5.83-.78,11.81-3.47,14.52-7.52C1748.44,1193.84,1749,1183.75,1743.33,1175.21Z" transform="translate(-1641.88 -1169.76)"/></g><g id="Elipsa_8" data-name="Elipsa 8"><path class="cls-4" d="M1745,1269a17.83,17.83,0,0,0-30.57,0c-7.91,1.86-13.19,5.1-13.19,8.81s5.28,7,13.19,8.81a17.83,17.83,0,0,0,30.57,0c7.91-1.86,13.19-5.1,13.19-8.81S1752.87,1270.88,1745,1269Z" transform="translate(-1641.88 -1169.76)"/></g><g id="shape-5" data-name="shape"><path class="cls-1" d="M1746.2,1251.19c-3.55,0-6.43,3.29-6.43,7.35s2.88,7.35,6.43,7.35,6.43-3.29,6.43-7.35S1749.76,1251.19,1746.2,1251.19Zm-33.07,0c-3.55,0-6.43,3.29-6.43,7.35s2.88,7.35,6.43,7.35,6.43-3.29,6.43-7.35S1716.68,1251.19,1713.13,1251.19Z" transform="translate(-1641.88 -1169.76)"/></g></svg>