<svg id="Layer_1" data-name="Layer 1" xmlns="http://www.w3.org/2000/svg" viewBox="0 0 155.85 202.58"><defs><style>.cls-1{fill:#1d2e2f;}.cls-1,.cls-2,.cls-3{fill-rule:evenodd;}.cls-2{fill:#68bc31;}.cls-3{fill:#71cc36;}.cls-4{fill:#fff;}.cls-5{fill:#ffbc09;}</style></defs><title>anim_62</title><g id="shape"><path class="cls-1" d="M1435.7,2436.25c-2.26-3-12.86,1.84-12.86,1.84s7-11.42,3.67-12.86-23.64,14.06-25.72,31.23,25.69,17.6,23.89,5.51S1438,2439.23,1435.7,2436.25Zm-53.28,178.22c-9.31-2-7.57-6.49-9.83-.65-1.68,4.34-1.23,11,10.22,13.51a13.38,13.38,0,0,0,7.22-.23c7.56-1.57,9.32-9.27,9.32-9.27s-2.61-.44-8.89-1.23C1388.21,2615.9,1385.5,2615.14,1382.42,2614.47Zm74.13-.65c-2.25-5.84-.52-1.38-9.83.65-3.08.67-5.79,1.43-8,2.14-6.27.78-8.89,1.23-8.89,1.23s1.76,7.7,9.32,9.27a13.38,13.38,0,0,0,7.22.23C1457.78,2624.84,1458.23,2618.16,1456.55,2613.82Z" transform="translate(-1339.48 -2425.14)"/></g><g id="shape-2" data-name="shape"><path class="cls-2" d="M1417.33,2447c-53.74,0-90.95,85.89-73.49,137.8s129.07,47.77,147-1.84S1471.07,2447,1417.33,2447Z" transform="translate(-1339.48 -2425.14)"/></g><g id="shape-3" data-name="shape"><path class="cls-3" d="M1346.05,2515.94c-7.5,23.41-9,48.72-2.22,68.91,0.31,0.91.71,1.77,1.07,2.65,0.45,0.71.71,1.08,0.71,1.08s14.23,3.6,18.43-16.36c6.66-31.68-16.89-57.47-16.89-57.47C1346.77,2515.14,1346.43,2515.54,1346.05,2515.94Zm143.07,0.76c-0.53-.65-1-1.31-1.62-2,0,0-23.55,25.79-16.89,57.47,3.59,17.06,14.47,16.91,17.57,16.51a40.93,40.93,0,0,0,2.64-5.71C1497.69,2564,1496.36,2539.58,1489.12,2516.7Z" transform="translate(-1339.48 -2425.14)"/></g><g id="Elipsa_11" data-name="Elipsa 11"><ellipse class="cls-4" cx="46.61" cy="75.42" rx="20.21" ry="23.89"/></g><g id="Elipsa_11_kopiuj" data-name="Elipsa 11 kopiuj"><ellipse class="cls-4" cx="109.99" cy="75.42" rx="19.29" ry="23.89"/></g><g id="Elipsa_12" data-name="Elipsa 12"><ellipse class="cls-5" cx="77.84" cy="82.77" rx="18.37" ry="27.56"/></g><g id="shape-4" data-name="shape"><path class="cls-1" d="M1446.76,2495c-3,0-5.48,2.88-5.48,6.43s2.45,6.43,5.48,6.43,5.48-2.88,5.48-6.43S1449.78,2495,1446.76,2495Zm-57,0c-3,0-5.48,2.88-5.48,6.43s2.45,6.43,5.48,6.43,5.48-2.88,5.48-6.43S1392.76,2495,1389.73,2495Z" transform="translate(-1339.48 -2425.14)"/></g></svg>