<svg id="Layer_1" data-name="Layer 1" xmlns="http://www.w3.org/2000/svg" viewBox="0 0 512.1 768.95"><defs><style>.cls-1{fill:#42b3e0;}.cls-2{fill:#3d90c4;}.cls-3{fill:#eafefb;}.cls-4{fill:#79d8ff;}.cls-5{fill:#a9ebff;}.cls-6{fill:#0c165a;}</style></defs><title>anim_03</title><path class="cls-1" d="M-1939.25,2850.07c135.19-102.42,135.19-268.49,0-370.91C-2074.45,2581.58-2074.45,2747.65-1939.25,2850.07Z" transform="translate(2349.96 -2479.16)"/><path class="cls-2" d="M-2248.57,2850.07c135.19-102.42,135.19-268.49,0-370.91C-2383.76,2581.58-2383.76,2747.65-2248.57,2850.07Z" transform="translate(2349.96 -2479.16)"/><path class="cls-3" d="M-2248.57,2798.92c97.9-74.17,97.9-194.43,0-268.6C-2346.47,2604.49-2346.47,2724.74-2248.57,2798.92Z" transform="translate(2349.96 -2479.16)"/><path class="cls-3" d="M-1939.25,2798.92c97.9-74.17,97.9-194.43,0-268.6C-2037.15,2604.49-2037.15,2724.74-1939.25,2798.92Z" transform="translate(2349.96 -2479.16)"/><circle class="cls-2" cx="256.05" cy="628.34" r="140.11"/><path class="cls-4" d="M-2330.63,3073.51c0-130.73,106-236.72,236.72-236.72s236.72,106,236.72,236.72h-473.43Z" transform="translate(2349.96 -2479.16)"/><circle class="cls-1" cx="256.05" cy="468.56" r="213.05"/><path class="cls-2" d="M-2093.91,3160.76c-117.66,0-213-95.38-213-213s95.38-213,213-213" transform="translate(2349.96 -2479.16)"/><path class="cls-4" d="M-1903.66,3043.58a236.35,236.35,0,0,0-190.24-95.86,236.36,236.36,0,0,0-190.25,95.86,213,213,0,0,0,190.24,117.18A213,213,0,0,0-1903.66,3043.58Z" transform="translate(2349.96 -2479.16)"/><path class="cls-1" d="M-2236.24,3248.11a70.05,70.05,0,0,1,70.05-70.05,70.05,70.05,0,0,1,70.05,70.05h-140.11Z" transform="translate(2349.96 -2479.16)"/><path class="cls-5" d="M-2225,3248.11a24.63,24.63,0,0,1,24.63-24.63,24.63,24.63,0,0,1,24.63,24.63" transform="translate(2349.96 -2479.16)"/><path class="cls-5" d="M-2161.22,3248.11a24.63,24.63,0,0,1,24.63-24.63,24.63,24.63,0,0,1,24.63,24.63" transform="translate(2349.96 -2479.16)"/><path class="cls-1" d="M-2091.68,3248.11a70.05,70.05,0,0,1,70.05-70.05,70.05,70.05,0,0,1,70.05,70.05h-140.11Z" transform="translate(2349.96 -2479.16)"/><path class="cls-5" d="M-2080.42,3248.11a24.63,24.63,0,0,1,24.63-24.63,24.63,24.63,0,0,1,24.63,24.63" transform="translate(2349.96 -2479.16)"/><path class="cls-5" d="M-2016.67,3248.11a24.63,24.63,0,0,1,24.63-24.63,24.63,24.63,0,0,1,24.63,24.63" transform="translate(2349.96 -2479.16)"/><circle class="cls-5" cx="256.05" cy="499.9" r="82.39"/><path class="cls-6" d="M-2135.93,3016.22a8.88,8.88,0,0,1-8.88-8.88,8.88,8.88,0,0,1,8.88-8.88,33.18,33.18,0,0,0,33.15-33.14,8.88,8.88,0,0,1,8.88-8.88,8.88,8.88,0,0,1,8.88,8.88A51,51,0,0,1-2135.93,3016.22Z" transform="translate(2349.96 -2479.16)"/><path class="cls-6" d="M-2051.88,3016.22a51,51,0,0,1-50.9-50.9,8.88,8.88,0,0,1,8.88-8.88,8.88,8.88,0,0,1,8.88,8.88,33.18,33.18,0,0,0,33.14,33.14,8.88,8.88,0,0,1,8.88,8.88A8.88,8.88,0,0,1-2051.88,3016.22Z" transform="translate(2349.96 -2479.16)"/><polygon class="cls-6" points="256.05 501.26 219.8 456.23 292.3 456.23 256.05 501.26"/><circle class="cls-6" cx="148.94" cy="448.83" r="21.74"/><circle class="cls-6" cx="363.16" cy="448.83" r="21.74"/></svg>