<svg id="Layer_1" data-name="Layer 1" xmlns="http://www.w3.org/2000/svg" viewBox="0 0 155.85 180.67"><defs><style>.cls-1{fill:#1d2e2f;}.cls-1,.cls-2,.cls-3,.cls-4{fill-rule:evenodd;}.cls-2{fill:#febc1e;}.cls-3{fill:#f8d173;}.cls-4{fill:#f79100;}</style></defs><title>anim_61</title><g id="shape"><path class="cls-1" d="M1071.91,2614.47c-9.31-2-7.57-6.49-9.83-.65-1.68,4.34-1.23,11,10.22,13.51a13.47,13.47,0,0,0,7-.17c7.73-1.47,9.5-9.33,9.5-9.33s-2.65-.45-8.88-1.23C1077.71,2615.9,1075,2615.14,1071.91,2614.47Zm74.13-.65c-2.25-5.84-.52-1.38-9.83.65-3.08.67-5.79,1.43-8,2.14-6.23.78-8.88,1.23-8.88,1.23s1.77,7.86,9.5,9.33a13.47,13.47,0,0,0,7,.17C1147.27,2624.84,1147.72,2618.16,1146,2613.82Z" transform="translate(-1028.98 -2447.05)"/></g><g id="shape-2" data-name="shape"><path class="cls-2" d="M1106.82,2447c-53.74,0-90.95,85.89-73.49,137.8s129.07,47.77,147-1.84S1160.56,2447,1106.82,2447Z" transform="translate(-1028.98 -2447.05)"/></g><g id="shape-3" data-name="shape"><path class="cls-3" d="M1035.43,2516.29c-7.4,23.31-8.86,48.47-2.1,68.55,0.39,1.15.87,2.24,1.35,3.33l0.43,0.41s14.23,3.6,18.43-16.37c6.66-31.68-16.89-57.47-16.89-57.47C1036.22,2515.26,1035.85,2515.78,1035.43,2516.29Zm143.15,0.32c-0.53-.62-1-1.25-1.6-1.87,0,0-23.55,25.79-16.89,57.47,3.59,17.06,14.46,16.91,17.57,16.51a40.91,40.91,0,0,0,2.64-5.72C1187.19,2564,1185.85,2539.52,1178.59,2516.62Z" transform="translate(-1028.98 -2447.05)"/></g><g id="Elipsa_49" data-name="Elipsa 49"><path class="cls-4" d="M1108.66,2504.23c-7.84,0-11,5-11,9.67s9.45,14.21,11,14.21,11-9.54,11-14.21S1116.5,2504.23,1108.66,2504.23Z" transform="translate(-1028.98 -2447.05)"/></g><g id="shape-4" data-name="shape"><path class="cls-1" d="M1128,2485.86c-3.55,0-6.43,3.29-6.43,7.35s2.88,7.35,6.43,7.35,6.43-3.29,6.43-7.35S1131.5,2485.86,1128,2485.86Zm-38.58,0c-3.55,0-6.43,3.29-6.43,7.35s2.88,7.35,6.43,7.35,6.43-3.29,6.43-7.35S1092.92,2485.86,1089.37,2485.86Z" transform="translate(-1028.98 -2447.05)"/></g></svg>