<svg id="Layer_1" data-name="Layer 1" xmlns="http://www.w3.org/2000/svg" viewBox="0 0 155.85 239.13"><defs><style>.cls-1{fill:#1d2e2f;}.cls-1,.cls-2,.cls-3,.cls-4{fill-rule:evenodd;}.cls-2{fill:#3f3326;}.cls-3{fill:#8e7f6d;}.cls-4{fill:#b0a291;}</style></defs><title>anim_56</title><g id="shape"><path class="cls-1" d="M2006.18,1989.79c-9.31-2-7.57-6.49-9.83-.65-1.68,4.34-1.23,11,10.22,13.51a13.47,13.47,0,0,0,7-.17c7.73-1.47,9.5-9.33,9.5-9.33s-2.65-.45-8.88-1.23C2012,1991.22,2009.27,1990.46,2006.18,1989.79Zm79.64-.65c-2.25-5.84-.52-1.38-9.83.65-3.08.67-5.79,1.43-8,2.14-6.24.78-8.88,1.23-8.88,1.23s1.77,7.86,9.5,9.33a13.47,13.47,0,0,0,7,.17C2087.06,2000.15,2087.5,1993.47,2085.83,1989.14Z" transform="translate(-1963.25 -1763.9)"/></g><g id="shape-2" data-name="shape"><path class="cls-2" d="M2035.26,1799.14c-2.91.8,1.53,11.14,1.53,11.14s-8.27-5.28-10.51-3.07,9.07,12.88,6.13,22.72,20.27,12.81,20.58-1.73S2038.18,1798.34,2035.26,1799.14Z" transform="translate(-1963.25 -1763.9)"/></g><g id="shape-3" data-name="shape"><path class="cls-3" d="M2086.22,1844.63c8.24-8.36,17-18.83,21.65-29.24,10.24-23,6.65-48.81.35-51.24s-23.43,13.34-33.67,36.38c-3.8,8.54-5.81,19.18-6.84,29.18a53.67,53.67,0,0,0-26.62-7.34,53.06,53.06,0,0,0-24.88,6.39c-1.06-9.72-3.06-20-6.74-28.23-10.24-23-27.36-38.81-33.67-36.38s-9.89,28.21.35,51.24c4.46,10,12.77,20.11,20.74,28.31-27.39,28.82-41.31,80.71-29.29,116.47,17.45,51.9,129.07,47.77,147-1.84C2126.8,1924.5,2113.17,1873.59,2086.22,1844.63Z" transform="translate(-1963.25 -1763.9)"/></g><g id="Elipsa_44" data-name="Elipsa 44"><path class="cls-4" d="M2092.54,1950.29c0-7.81-7.36-14.78-18.86-19.32a45.49,45.49,0,0,0-63.32,0c-11.5,4.55-18.86,11.51-18.86,19.32,0,4.1,2,8,5.62,11.37,1.23,18.38,13.6,37.32,44.9,37.32s43.67-18.94,44.9-37.32C2090.5,1958.25,2092.54,1954.38,2092.54,1950.29Z" transform="translate(-1963.25 -1763.9)"/></g><g id="shape-4" data-name="shape"><path class="cls-1" d="M2073.25,1864.85c-3.55,0-6.43,3.29-6.43,7.35s2.88,7.35,6.43,7.35,6.43-3.29,6.43-7.35S2076.8,1864.85,2073.25,1864.85Zm-68,0c-3.55,0-6.43,3.29-6.43,7.35s2.88,7.35,6.43,7.35,6.43-3.29,6.43-7.35S2008.82,1864.85,2005.27,1864.85Z" transform="translate(-1963.25 -1763.9)"/></g><g id="shape-5" data-name="shape"><path class="cls-1" d="M2009.19,1940.17c-4.37,1.83-4.84,7.15-1.06,11.89s10.39,7.11,14.76,5.28,4.84-7.15,1.06-11.89S2013.56,1938.34,2009.19,1940.17Zm65.64,1.22c-4.37-1.82-11,.54-14.76,5.28s-3.31,10.07,1.06,11.89,11-.54,14.76-5.28S2079.2,1943.22,2074.83,1941.39Z" transform="translate(-1963.25 -1763.9)"/></g></svg>