<svg xmlns="http://www.w3.org/2000/svg" viewBox="0 0 197.63 191.14"><defs><style>.cls-1{isolation:isolate;}.cls-2{fill:#523203;}.cls-3{fill:#fff;}.cls-4{fill:#443e3d;}.cls-30,.cls-5{fill:#85624f;}.cls-29,.cls-30,.cls-6,.cls-8{opacity:0.5;}.cls-10,.cls-12,.cls-16,.cls-24,.cls-6,.cls-8{mix-blend-mode:multiply;}.cls-11,.cls-12,.cls-26,.cls-7,.cls-8{fill:#ad8d7b;}.cls-20,.cls-24,.cls-25,.cls-29,.cls-9{fill:#e3a893;}.cls-10,.cls-23,.cls-25{opacity:0.7;}.cls-11,.cls-20{opacity:0.3;}.cls-11,.cls-19,.cls-20,.cls-21,.cls-25,.cls-26,.cls-27,.cls-29,.cls-30{mix-blend-mode:screen;}.cls-12{opacity:0.6;}.cls-13{fill:#584f4b;}.cls-14{fill:#ff697e;}.cls-15,.cls-21{fill:#bd1e00;}.cls-17{fill:#dcd9d9;}.cls-18{fill:#806151;}.cls-21,.cls-26,.cls-27{opacity:0.4;}.cls-22{fill:#535b5a;}.cls-28{fill:none;}</style></defs><title>anim_88</title><g class="cls-1"><g id="Layer_1" data-name="Layer 1"><path class="cls-2" d="M605.3,629.14c0-5.51-15.85,3.44-16.57,3.64-0.88.23-17.71,4-10.17,3.21-0.39.2-4.06,2.63-3,3.7a8.31,8.31,0,0,0,3.52-.26c0.25-.19-4.31,4-1.79,4.21a41.2,41.2,0,0,0,6.69-2.57,3.4,3.4,0,0,0-1.37,3.38c0.38,0.65,9.44-2.69,9.24-2.67a7.28,7.28,0,0,0-2,4.68c0.33-7.41,23.7-1.78,15.5-17.3C605.3,629.13,607.2,632.73,605.3,629.14Z" transform="translate(-472.55 -468.81)"/><path class="cls-3" d="M577.09,635.52c1.82,0.11,4.26-3.14,6.66-1-2.4.37-4.17,1.16-6.66,1h0Z" transform="translate(-472.55 -468.81)"/><path class="cls-4" d="M576.33,639.29c0.88-.06,8.65-8.83,10.81-3.31-4,.15-6.77,3-10.81,3.31h0Z" transform="translate(-472.55 -468.81)"/><path class="cls-4" d="M579.56,642.32q-1.27,1.26-2.28-.07c0.27-3.55,11.54-8.16,12.58-4.44a72,72,0,0,0-10.3,4.51h0Z" transform="translate(-472.55 -468.81)"/><path class="cls-4" d="M587.13,642.49c0.38-.16-4.34,2.63-4.06,1.15,0.6-3.25,10.25-8.8,11.89-4.24-2.91,1.47-4.85,1.79-7.83,3.09h0Z" transform="translate(-472.55 -468.81)"/><path class="cls-4" d="M596,642.88q-2.72,1.39-5.39,2.88c2.19-8.46,15.49-6.77,5.39-2.88h0Z" transform="translate(-472.55 -468.81)"/><path class="cls-5" d="M601.87,640.7c-0.23.12-6.69-3.17-8.46-3.44q1.19,0.23,1.18-.51c-4.1.75-5.05,0.38-7.63-1.88q0.41,0.24.5-.1-2.71.79-4.09-1.18c6.17,0,6.47-2,11.36-3.58,2.93-1,7.44-3.24,10.24-.67,3.58,3.29.1,9.63-3.08,11.36h0Z" transform="translate(-472.55 -468.81)"/><g class="cls-6"><path class="cls-5" d="M599.81,628.46c-6.52,1.73-9.45,5.14-16.46,5.14q1.38,2,4.09,1.18-0.09.34-.5,0.1c2.77,2.43,2.77,2.77,7.63,1.88q0,0.74-1.18.51c1.55,1.4,8.5,1.64,7.67,3.83a12.34,12.34,0,0,0,1.32-.69,6,6,0,0,1-.35-3.29c-0.91-.78-8.57-0.06-9-1.59-0.23-.78,5.79-2.28,6.43-2.1,0.37,0.1,5.09-.39,6.68.35-0.44-4.05-2.08-6.42-6.31-5.31h0Z" transform="translate(-472.55 -468.81)"/></g><path class="cls-2" d="M629.25,599.12c0.26-.22-12.71-3.31-15-3.43-10.2-.54-22.24,3.75-26.48,13.6,2.87-8.82-2.22,7.87-.55,6.18,0,0.1-2,8.21.06,4.91-0.7,2.88-.55,9,1.36,10.84q1.09,0,1.32-1.47c1.33,6.57,1.25,3.56,5.21.58-0.91,2-4.14,5.78,1.54,1.54-1.67,1.75,3.25-.66,2.77-0.37-1.19,1.38.74,0.86,2.16,0.4-0.14.14-1.28,1.39-1.07,1.41,4.23,0.29,10-2.85,12.6-6.36-0.61,3.34,4.44-5.08,4.19-4.62-0.23,1,4.55-8.45,4.55-11.37a14.09,14.09,0,0,0,.28,3.49c0.29,1.31,3.86-8.55,3.31-6.79,0.19,0.27,1.08,1.44,1.09,1.43,2.3-1.35,3.34-6.66,2.64-10C629.33,599.05,629.8,601.73,629.25,599.12Z" transform="translate(-472.55 -468.81)"/><path class="cls-7" d="M628.3,606.54l-0.82-2.15c-0.43-.87.63,4.39-1,3.64-0.76-3.94-2.92,4.56-4,5.85-2.22-7.78-2.2,4.65-4.65,8.26q1-1.52-.11-1.25c0.09-.18-4.73,6.41-3.85,5-0.83,1.5-3.79,3.74-5.17,4.74,3-2.85-3.09,1.57-3.94,1.43a4.57,4.57,0,0,0,1.32-2.74c0,1.22-4.15,4.53-4.66,3.46,0-.19,1.1-2,1.66-1.77q-1.68.46-3.39,0.83a9.28,9.28,0,0,1,1.1-1.32q-1.55-1.74-3.82,1.55c4.25-5.69-1,1-3,.83,3-7.3.68-.3-3.24,0.66,0.08,0-.89-6.38-0.46-4.51-0.06-.26-1.41,1.58-1.45,1.55-1.23-.77.4-5.72,0.23-5.21q-1.73-.33-1.48,2.51c-0.38-1.81,1.54-7.89,1.78-8.5q-2.6-.18-1.74,4.72a11.3,11.3,0,0,1,.64-5.78q-1.43-.26-1.44,2a16.89,16.89,0,0,1,2.09-7.51c0.08-.18-1.68,2-1.64,1.94-1.62.68,2.42-8.3,2.29-8.1,3.88-6.09,11-8.61,17.81-9.65,6.58-1,27.4-1.8,20.91,9.56C628,605.83,629.52,604.4,628.3,606.54Z" transform="translate(-472.55 -468.81)"/><path class="cls-8" d="M628.3,606.54l-0.82-2.15c-0.43-.87.63,4.39-1,3.64-0.76-3.94-2.92,4.56-4,5.85-2.22-7.78-2.2,4.65-4.65,8.26q1-1.52-.11-1.25c0.09-.18-4.73,6.41-3.85,5-0.83,1.5-3.79,3.74-5.17,4.74,3-2.85-3.09,1.57-3.94,1.43a4.57,4.57,0,0,0,1.32-2.74c0,1.22-4.15,4.53-4.66,3.46,0-.19,1.1-2,1.66-1.77q-1.68.46-3.39,0.83a9.28,9.28,0,0,1,1.1-1.32q-1.55-1.74-3.82,1.55c4.25-5.69-1,1-3,.83,3-7.3.68-.3-3.24,0.66,0.08,0-.89-6.38-0.46-4.51-0.06-.26-1.41,1.58-1.45,1.55-1.23-.77.4-5.72,0.23-5.21q-1.73-.33-1.48,2.51c-0.38-1.81,1.54-7.89,1.78-8.5q-2.6-.18-1.74,4.72a11.3,11.3,0,0,1,.64-5.78q-1.43-.26-1.44,2a16.89,16.89,0,0,1,2.09-7.51c0.08-.18-1.68,2-1.64,1.94-1.62.68,2.42-8.3,2.29-8.1,3.88-6.09,11-8.61,17.81-9.65,6.58-1,27.4-1.8,20.91,9.56C628,605.83,629.52,604.4,628.3,606.54Z" transform="translate(-472.55 -468.81)"/><path class="cls-2" d="M602.51,631.58l0,0S602.54,631.58,602.51,631.58Z" transform="translate(-472.55 -468.81)"/><path class="cls-8" d="M629.07,599.18c-7.35-1.89-17.45-3.68-25.89-1.34-5.39,1.49-10.49,3.92-13.6,8.79,0.12-.2-3.91,8.78-2.29,8.1a22,22,0,0,1,1.64-1.94,16.89,16.89,0,0,0-2.09,7.51q0-2.26,1.44-2a11.3,11.3,0,0,0-.64,5.78q-0.86-4.9,1.74-4.72c-0.65,1.67-2.23,6.31-1.78,8.5q-0.25-2.84,1.48-2.51c0.17-.5-1.46,4.44-0.23,5.21,0,0,1.39-1.8,1.45-1.55-0.44-1.87.53,4.49,0.46,4.51,3.92-1,6.22-8,3.24-.66,2.08,0.13,7.28-6.52,3-.83q2.27-3.3,3.82-1.55a9.28,9.28,0,0,0-1.1,1.32q1.7-.37,3.39-0.83c-0.61-.23-1.63,1.61-1.66,1.77,0.51,1.06,4.66-2.24,4.66-3.46a4.57,4.57,0,0,1-1.32,2.74c0.85,0.14,6.89-4.28,3.94-1.43,1.66-1.19,4.31-3.17,5.17-4.74,0,0.07-.07,1.23.31,0.61,1.8-1.91.09-.58,0.84-3.66-0.8,1.07-6.63,7.64-3.72,1.81-1.72,2.14-10.63,5.48-7.95,1.41-2,1.87-3.24.42-2.11-1.92-3,2.72-.86-1-0.4-2,0.2-.19-2.54,2-2.33.61a12,12,0,0,1,3.14-4.23,3,3,0,0,1-2.06,1c-1.43-1.27,8.28-8.94,6.47-4.92,1.85-1.85,9.6-5.88,10.37-2,0.31-1.11,2.12-4,1.81-.31,1.67-3.35,2.55,1,2.75,2.18,1.33-4.92.1-5.37,1.48-.52,1-1.28,3.2-9.78,4-5.85,2.28,1-.92-8,1.8-1.49a11.2,11.2,0,0,0,.77-7.36S629.5,601.6,629.07,599.18Z" transform="translate(-472.55 -468.81)"/><path class="cls-2" d="M654.12,628c-5-4.71-11,2.27-14.54,4.52-1.9,1.22-18.05,7.07-17.51,9.24a4.47,4.47,0,0,0,4.66-.52c1.12-.7-5.26,3.57-3,4.23a9.55,9.55,0,0,0,5.26-1.17c-0.38.47-1.64,2.61-.32,3,3.83,1.06,7.51-1.11,11.72-2.93q-2,1.33-.58,3.11c7.75,2.15,20.33-13.77,14.27-19.46h0Z" transform="translate(-472.55 -468.81)"/><path class="cls-4" d="M624.43,641.56q-1.64.82-1.46-.65c1.14-1.1,10.46-5.64,10.24-2.32-3,.88-5.79,2.08-8.77,3h0Z" transform="translate(-472.55 -468.81)"/><path class="cls-4" d="M625.73,645c-1.36.37,5.07-8.78,10.08-5.37-4.08,1.57-5.78,4.41-10.08,5.37C625.36,645.06,626.92,644.69,625.73,645Z" transform="translate(-472.55 -468.81)"/><path class="cls-4" d="M631.38,646.17a1.91,1.91,0,0,1-2.63,0c0.22-3.54,10-9.66,12.45-6.28-2.84.69-8.83,2.88-9.82,6.24C630.86,646.36,631.78,644.82,631.38,646.17Z" transform="translate(-472.55 -468.81)"/><path class="cls-4" d="M637.65,645.38c0.54-.26-6.58,3-5.57.85,0.94-2,12.3-9.54,13.22-5.18-2.7,1.19-5,3-7.66,4.32h0Z" transform="translate(-472.55 -468.81)"/><path class="cls-4" d="M642.84,646a7.25,7.25,0,0,1-3,.77c-0.79-.24,5.69-6.29,7.77-6.17,6.74,0.4-4,5.09-4.8,5.39h0Z" transform="translate(-472.55 -468.81)"/><path class="cls-5" d="M653.51,638.51a8.52,8.52,0,0,1-3.36,4.2c0.15-1.62-9.39-4.44-11.91-3.74q0.52,0,.49-0.34c-4.34,1.25-1.56-.47-4.2-0.16q1.56,0.23,1.49-.68c-4.69,1.39-1.38-1.23-5.09-.59,5.65-1.77,16.15-13.81,22.45-8.69,0.93,0.76.74,8.29,0.13,10h0Z" transform="translate(-472.55 -468.81)"/><g class="cls-6"><path class="cls-5" d="M650,639c-0.91.54-10.32-.05-10.6-1.55,0.34,1.85,13.88-2.21,14.72-1.13,3-17.43-15.57-1.54-23.14.84,3.71-.64.4,2,5.09,0.59q0.07,0.91-1.49.68c2.64-.31-0.14,1.41,4.2.16q0,0.39-.49.34c2.57-.71,12.06,2.18,11.91,3.74q3.54-1.57-.19-3.68C648.55,639.87,650.45,640.44,650,639Z" transform="translate(-472.55 -468.81)"/></g><path class="cls-2" d="M533.4,643.06c0-4.8-13.77,3-14.4,3.17-0.8.21-15.4,3.44-8.86,2.79-0.34.17-3.54,2.29-2.62,3.22a7.34,7.34,0,0,0,3.06-.23c0.23-.18-3.76,3.47-1.56,3.66a34.36,34.36,0,0,0,5.82-2.24,3,3,0,0,0-1.19,2.94c0.33,0.57,8.23-2.34,8-2.32-6.51,7.22,4.51,1.43,6.59.21,4.78-2.8,8.52-4.76,5.11-11.19C533.4,643,535.05,646.18,533.4,643.06Z" transform="translate(-472.55 -468.81)"/><path class="cls-4" d="M508.85,648.6c1.54,0.1,3.78-2.82,5.8-.87-2.09.33-3.62,1-5.8,0.87h0Z" transform="translate(-472.55 -468.81)"/><path class="cls-4" d="M508.2,651.89c0.77-.05,7.47-7.67,9.41-2.89-3.56.14-5.89,2.64-9.41,2.89h0Z" transform="translate(-472.55 -468.81)"/><path class="cls-4" d="M511,654.53a1.16,1.16,0,0,1-2-.07c0.28-3.09,10-7.11,10.95-3.85a62.88,62.88,0,0,0-9,3.92h0Z" transform="translate(-472.55 -468.81)"/><path class="cls-4" d="M517.59,654.66q-1.5.82-3.06,1.5c-0.53.15,7.69-10.21,9.87-4.19a9.54,9.54,0,0,1-6.81,2.69h0Z" transform="translate(-472.55 -468.81)"/><path class="cls-4" d="M525.32,655q-2.37,1.21-4.68,2.5c0.58-2.29,9.56-9.58,8.86-4L525.32,655h0Z" transform="translate(-472.55 -468.81)"/><path class="cls-5" d="M530.42,653.12c-0.21.11-5.83-2.77-7.37-3q1.08,0.2,1-.44c-3.58.64-4.37,0.31-6.64-1.64q0.35,0.21.43-.08a2.93,2.93,0,0,1-3.55-1c3,0.39,4.94-.73,7.37-1.49s6.27-4.36,9.29-3.17c5.19,2,3.63,8.55-.55,10.84h0Z" transform="translate(-472.55 -468.81)"/><g class="cls-6"><path class="cls-5" d="M530.4,651.73c0.19-3-10.8-.75-10.18-2.93a5.36,5.36,0,0,1,3.48-1.57c-3.35.75,14.66,0.73,9.41-4-4.2-3.79-13.18,4.34-18.8,3.7a2.93,2.93,0,0,0,3.55,1q-0.08.29-.43,0.08c2.44,2.1,2.36,2.41,6.64,1.64q0.06,0.64-1,.44c1.34,1.21,7.4,1.42,6.67,3.32a9.89,9.89,0,0,0,2.78-1.82q-1.23,1.21-2.11.1C530.47,650.57,530.35,652.47,530.4,651.73Z" transform="translate(-472.55 -468.81)"/></g><path class="cls-2" d="M572.63,643.86c1.36-9-32.46,2-28.58,12.71,0.14,0.39,7.34-4.61,7-4.44-1.49,1.32-4.57,5.24-3.66,7.61,0.55,1.43,6.57-4.84,7.66-5.43-0.5.76-2.67,4.53-1.37,5.3,1,0.63,5.89-4.55,6.84-5a11.21,11.21,0,0,0-1.79,4.48c0.12,1.07,6.56-4.6,7-5-0.7,1.13-2.29,3.84-1.93,5.29,0.56,2.24,7.77-7,7.94-7.44,1-2.52.89-5.33,0.89-8C572.82,642.59,572.63,643.88,572.63,643.86Z" transform="translate(-472.55 -468.81)"/><path class="cls-4" d="M547.14,654q-0.85,2.66-2.84,2c-0.19-3.36,7.18-9.37,7.65-4.7-1.85,1-3.13,1.12-4.81,2.66h0Z" transform="translate(-472.55 -468.81)"/><path class="cls-4" d="M553.94,654.48c-0.71.4-5.55,6.16-6.28,5-4.84-7.7,16.39-11,6.28-5C552.1,655.53,554.27,654.29,553.94,654.48Z" transform="translate(-472.55 -468.81)"/><path class="cls-4" d="M560.24,654.25c-0.49.28-6.5,5.32-6.57,4.39-0.11-1.72,1.64-4.69,3.05-5.7,2.42-1.73,7.4-.81,3.51,1.31C558.54,655.21,560.51,654.1,560.24,654.25Z" transform="translate(-472.55 -468.81)"/><path class="cls-4" d="M562.11,656.39c1.19-1.3-2.35,3.36-2.84,2.6-1.27-1.94,4.15-8.6,6.7-7.41,2,0.94-3.85,4.8-3.86,4.81h0Z" transform="translate(-472.55 -468.81)"/><path class="cls-4" d="M571.3,651.44c-0.23.63-6.29,8.94-6.94,7.68-2.36-4.54,6.94-7.71,6.94-7.68C570.36,654,571.34,651.34,571.3,651.44Z" transform="translate(-472.55 -468.81)"/><path class="cls-5" d="M571.57,650.58c-1.32-.64-3.89,1.09-4.74,2,0.81-2.75-3.44-.93-4.21-0.29-1-1.09-8-2.77-10.35-1.17,0.38-2.62-3.06-2-4.3-1.16,2.42-2.42,8.81-6.11,9.63-6.18,8.22-3.42,17.58-6.48,14,6.8C570.66,650.14,572.28,648,571.57,650.58Z" transform="translate(-472.55 -468.81)"/><g class="cls-6"><path class="cls-5" d="M568.18,649.82c-1.29.44-14.61,0.56-14.27-1.52,0.29-1.79,16.72-2.64,18.17-1.53,0.55-10.52-8.5-5.48-14.49-3-0.82.06-7.21,3.75-9.63,6.18,1.24-.82,4.68-1.46,4.3,1.16,2.67-1.83,10,1.68,10.35,1.17,0.65-.26,5.11-2.75,4.21.29,1-1.06,4.71-1.82,4.86-2.49a4.26,4.26,0,0,0-3.51-.26C565.31,650.8,569.84,649.26,568.18,649.82Z" transform="translate(-472.55 -468.81)"/></g><path class="cls-2" d="M488.61,495.09c1.35,7.72,4.06,15.67,9.14,21.79,1.28,1.54,15.87-11,17.93-13.93q-1.2,2.09.28,2.41c0.18-4.18,3.17-6.56,3.6-10.66q-0.24,2.8,1.37,2.74c-2-6.51-7.48-11-14.9-12.46-2-.39-9.82.54-10.67-0.1-7.8-.79-8,3.26-6.75,10.2C489.91,502.53,488.15,492.49,488.61,495.09Z" transform="translate(-472.55 -468.81)"/><path class="cls-9" d="M489.58,496.93c-1.34-7.44-2.61-13.43,7.27-11.46a0.56,0.56,0,0,0-.6-0.65s4.56,0.51,4.22.51a0.48,0.48,0,0,0-.35-0.66c0.76-1.2,11.16,2.73,11.94,3.15,6.42,3.43,8.22,6.64,4,13-1.89-9.18-9.07-14.08-18.19-14.48,10.18,0.74,22,9.94,14.08,19.62-2,2.48-11.68,10.8-14.84,9.85-4.33-1.3-6.86-15.09-7.54-18.84h0Z" transform="translate(-472.55 -468.81)"/><path class="cls-2" d="M491.24,487.42c-3.11,7.73,5,21.67,13,23-9.29-1.52-15.89-14.32-13-23C491.26,487.36,489.7,492.1,491.24,487.42Z" transform="translate(-472.55 -468.81)"/><g class="cls-10"><path class="cls-9" d="M497.88,486.3c9.12,0.39,16.3,5.3,18.19,14.48,4.24-6.36,2.52-9.46-4-13-1.4-.75-11.16-4.37-11.94-3.15a0.48,0.48,0,0,1,.35.66c0.34,0-4.21-.5-4.22-0.51a0.56,0.56,0,0,1,.6.65,20.68,20.68,0,0,0-7,.22c16.69-1.65,7.81,29.76,1,7.09,0,3.71,4.57,10,3.79,13.12-0.45,1.81-4.72-7.31-4.77-7.49,1,5,3.66,16.56,8.57,16.74,3.76,0.13,13.18-7.61,14.84-10.63,5.26-9.53-6-17.54-15.41-18.23C503,486.52,497.79,486.29,497.88,486.3Z" transform="translate(-472.55 -468.81)"/></g><path class="cls-2" d="M670.06,540.87c0.63-13.39-.76-50.08-15.57-57.07q0.66,0.28.82-.48c-2.47-1.58-8.32-7.32-11.23-7.33q0.95,0.56,1.22-.25c-5.12-3.5-4.15-2.29-3.45-1.87-2.43-1.45-8.24-2.44-11.15-2.17-0.11,0,2.32,0,2-.47-2.65-3.72-13.16-1.19-16.25-.37-3.32,3.33-18-1.09-23.09-1.61a66.45,66.45,0,0,0-32.6,4.6s-10.42,4-13.61,5.64c1-1.47-2.07-.36-3,0,0,0,1-.85.67-0.86-1.76-.13-6.6-2.05-9.29.92a1.13,1.13,0,0,0,.84-1.27,4.21,4.21,0,0,0-3.84,1.48c-0.33.29,0.6-3-.14-2.7l-2.05,2.88q-0.95-2.53-1.93-1.48c-1.76.37,7.36-1.41-4.12,0.76q-0.52.93,1.28,0.83c-2.16-.57-8.3,2.25-7.83,2.29-3.27.61-7.1,3.36-9.53,5.22,0.44-.34-9.13,7-4.38,5-0.18.15-4.66,5.25-1.82,3.76-0.31.3-3.34,4.28-.6,2.42a21.63,21.63,0,0,0-2.55,4.83q0.65,0.26.77-.55c-0.87,1.61-7,8.47-2.87,6.48a22.94,22.94,0,0,1-4.87,3.52q0.18,0.65.65,0c-1.61-1-10.67,12.51-13,13.23a2,2,0,0,1,1.94.7,6.41,6.41,0,0,0-4.06,3.08q1,0.58,2-.61c-2.68,1.87-5.74,6.73-6.55,10q1.57,0.2,1.86-2c-1.62,2.23-1.38,8.42-1.33,8.31,0.08-.8,2.05,10.62,2.45,7.17,0.95,4.45,1.29,3.24,1.09,6.67-0.29,5-.27-3.91-1.26,4.6,0,0.29,1-.72,1-0.73a11.31,11.31,0,0,0-1.88,6.26c0,0.3,1.6-1.65,1.62-2-0.25,4.07-2.52,6.85-1.54,11.32,0.39,1.76,2.38-5.8,1.16-2.25-0.38,5.69.85,10.16,0.49,15.66a9.22,9.22,0,0,0,1.44-2,9.22,9.22,0,0,0,.35,5q1.17-.35.65-1.9a16.67,16.67,0,0,0,1.38,6.48q2.15-.75.48-3.83c0.51,1.67,4.47,13.44,4.09,10,2.23,8.16,8,13.16,11.75,20.08q1.36-.32.53-1.9c1.12,5.88,6.25,12.25,10.32,16.32q1.19-.46.36-1.68c0.66,1.23,11.38,9.29,10.14,9.31,0.58,0,2.18-2.2,2.4-2.67a12.4,12.4,0,0,0-1,1.74,12.68,12.68,0,0,0,6.48-2.09q-2.53,1.64-1.34,3.22c3.18-1.12,5.67-1.82,6.22-5.64q-0.83,2.94.89,3.07a3.71,3.71,0,0,0,.65-4.17c3.31,3.12,1.2-7.12.85-8.73q0,2,1.09,1c0-3.54.12-8.93-.72-12.33-0.47-.53,1.61-8.31-0.29-10.79,4.63,2.31,8.23,2.19,9.49,7.11,1.74,6.76-1.36,12.4,1.25,19.51,0.23,0.64.92-1.93,0.92-2.32-0.2,3.7,0,10.58,3.54,7.13-1.9,3.11,3.14.45,4.26,0-5.76,5,0,3.25,1.39,2.19a21.66,21.66,0,0,0-2.25,1.66,39.93,39.93,0,0,0,17.43-2.43,1,1,0,0,0-1.08.91c3.3,0.39,7-1.38,9.54-3.33q-2.15.57-1.9,2.21c4.37-.28,9.43-7.69,10.55-11.66-0.08,2-.2,5.34,1.5-2.27q-0.47,1.66.62,1.27c1.32-2.14,2.26-6.09,2.92-8.57,0.26,2.42,1.44-2.17,1.69-2.7,1.9-4.07,2.63-5.43,5.68-7.38,5.14-3.27,13.09-1.92,18.5-4.81,0.3-.27,5.36-2,6.76-3.57-0.46,4.36,2,10.39,3.44,14.38,1.69,4.65,8,12.84,6.4,17.13-0.15.4,2.27-1.17,2.59-2-0.05.13-1.54,2.54-1.47,2.56,1.75,0.48,6.37-.94,7.66-1.73-1.87,3.46,1.41.9,2.61,0.44-1.87,2.84,1.23,1.39,2.32.8-0.13.12,5.31,0.22,6.28-3.7q-0.79,1.85.6,1.75c7.1-8.12,13.12-32.5,10.88-42.59,2.45,4,1.5-6.05,1.5-5.72,0-5.17,1-10.73,0-15.93-1.7-3.55,3-22.49,3.31-28.55C670.31,535.52,669.75,547.77,670.06,540.87Z" transform="translate(-472.55 -468.81)"/><path class="cls-7" d="M667.71,523.06c1.17,2.21,0-3.45,0-3.91,0.53,2.34-1.81-5.35.1-2-0.16-1.39-.71-7.1-1.54-8.34,0.21,0.34.42,0.63,0.65,1-0.07-.62-3.13-6.44-1.32-4.77a5.44,5.44,0,0,0-2.11-2.91q0.35-.61,1,0.37a19.46,19.46,0,0,0-3.79-8q0.66-.82,1.27.74c-0.41-1.81-2.64-5.57-3.73-6.35,0.07,0,6.28,5.66.88,0.72-1.67-3.75-1.9-2.63-3.55-3.58a1.22,1.22,0,0,1,1.06.21c-0.51-1.14-4.63-2.56-2.39-2.77-0.14-.08-4.82-1.32-1.38-0.94,0.21,0.19-7.85-5-4.72-3.94-0.39-.42-7.08-2.78-3.72-2.78,0.72,0.36-6.8-.85-3.64-1.73a10.87,10.87,0,0,0-4-.26q0.12-.63,1.06-0.34A22.8,22.8,0,0,0,630,471.9q0.35-1.18,2.14-.58a16.26,16.26,0,0,0-6.18-.89q0.12-.77,1.07-0.53c-3.85-1.08-8.13.83-11.81,1.63a0.67,0.67,0,0,1,.58-0.78c-2.36-.59-6.19,1.34-7.48,1.68a68.8,68.8,0,0,1,8.79,3.55c-12.57-6.25-40.4-10.56-51.71-3.53-0.45.13-8,3.93-4.71,1,0.1,0-7.7,4-6.61,2.53,1.63-.8-3.57,2.66-2.11.92q-3.09.55-3.63,3c0.77-.55,3.33.24,5.2,0.79q0.4,1-1.37.69c2.25-.35,8,3.07,7.55,3.06,3.19,0.94,6.74,4.06,9,6.16-0.4-.37,8.37,7.85,3.85,5.44-0.4-.43,4.2,5.75,1.43,3.92-0.2-.23,3,4.83.36,2.47a22,22,0,0,1,2,5.07q-0.69.21-.71-0.63c0.7,1.76,6.17,9.11,2.2,6.73a23.37,23.37,0,0,0,4.49,4q-0.24.64-.65-0.05c2.72-1.64,8.19,16.19,12.14,14.3a2.94,2.94,0,0,0-2.5.67A6.34,6.34,0,0,1,595,536q-1,.47-1.9-0.8c2.5,2.14,5,7.26,5.52,10.62q-1.59.05-1.66-2.12c1.35,2.27.59,8.68,0.48,8.4,0-.76-3.16,10.32-3.16,6.89-0.63,2-3.08,5-4.31,6.64q-1.42.11-.38-1.73a10.44,10.44,0,0,1-4.39,4.26c1-.59,4.85-7.23,4.85-3.59,0.47-.81,1.39-3.38,1.09-3.93,2,4,3-1.68,3.35-4.28,0,0,.24,2,0.25,2.18,2-3.43.22-5.55,0.55-9-0.18,1.33,1.06,4.11,1,5.67,0.39-.74,1.13-5.28.8-5.82,0-.12,5.92,19.28.64,1.7,0.22-1.41-3.74-11.84-.14-4.47,0-.14-2.3-5.78.08-2.35-0.62-1.81-9.95-13-1.78-4,0-.89-2.37-5.37-3.46-5.61q1.19,0.45,2.33,1c0.86-.38-6-3.28-3.39-3.83a13.15,13.15,0,0,1-4-3.75q1.42-1.34,2.77,2.41c-1-2.25-7.86-8.86-3.79-7a34,34,0,0,0-5.7-4.83q1.84,3.44,4.09,2.48c0.91,1.24-4.51-4.23-3.87-4.23,0,0-6-5.3-2.71-3.73-1.32-1.52-4.53-7.7-1.31-2.53l-2-5.11q0.4-.2.48,0.31c-3-7.61-2.71-4.16-.43-3.8a13,13,0,0,0-2.18-2.92q0.34-1.18,1.49.47c-0.88-2.33-6.58-6.39-1-3.82-0.67-1.6-9.2-5.45-2.48-2.68-0.88-1-5-2.67-5.28-3.6-0.13-.43,1.85.24,1.94,0.27-0.73-.55-4.78-3.53-5.89-2.44a2.7,2.7,0,0,1,2.84.17c-0.86-.8-7.75-3.52-4.56-3.47-0.53-.41-6.57-1.82-5.33-2.29,1,0.14-6.75-.08-1.39-1-0.91.15-3.91-.67-4.54,0.23a0.74,0.74,0,0,1,.42-0.91c-1.35.71,0,.74-0.68,1.54a2.13,2.13,0,0,1-.17-2s-0.28,0,0-.2c-1.22.28-1.28,0.71-1.72,1.72a1.88,1.88,0,0,1,.35-1.76c-6.83.35-3.28,1.83-3-.43q-1.43.35-2.82,0.82c-0.63.19,1-1.47,0.61-1.4s-3.47,1.17-3.47,2.18c0-2-.11-2.36-3-0.22-0.34.27,1.17-2,.17-1.87-3.39.5-2.7,4-3.21-.47q0.21,2.73-1.68,3.54a2.76,2.76,0,0,0-1.49-2.47c0.89,1.7-3,.65-4.17.26,5.95,1.65-3.61.93-1.48,0.83,1.55,0.77-4.83,1.29-5.53,1.73q1.85-.4,1.22.62a11.88,11.88,0,0,0-6.12,2.39,2.71,2.71,0,0,1,2.86.11c-0.72-1.26-5.53,1.48-6.11,1.83,0.1,0,2.13-.48,2-0.07-1,2.33-9.83,1.71-2.68,2.77-1.23-.26-4.87,1.22-5.68,2.69,5.78-2-.3,1.47-1.42,3.7q1.31-1.54,1.54-.32a12.42,12.42,0,0,0-2.47,2.69c2.29-.07,3-3.67-0.82,3.75q0.14-.5.52-0.26l-2.5,4.89c3.76-4.8-.08,1-1.57,2.38,3.48-1.21-3.07,3.44-3.06,3.43,0.68,0-5.38,5.05-4.27,3.82q2.11,1.24,4.32-2.06a33.06,33.06,0,0,0-6.16,4.23c3.84-1.39-3.33,4.53-4.49,6.54q1.77-3.63,3-2.12a13.12,13.12,0,0,1-4.41,3.32c2.58,0.75-4.54,3-3.75,3.47q1.2-.42,2.42-0.76c-1.12.14-3.93,4.34-4,5.23,8-7.19-1,1.36-2.17,3.84,2.71-3.06-.13,2-0.16,2.35,4.36-6.92-.67,3-0.59,4.42-1.53,3.63.56-1.26,0.8-1.63-0.38.54-.1,5.07,0.22,5.87,0.07-1.71,1.52-4.07,1.52-5.55,0,3.44-2,5.36-.35,9,0-.21.47-2.07,0.47-2.14,0.07,2.46,2.27,9.61,5.16,5.7-2.36,2.62-2.26.7-4.07,4.3q1.12-1.42,1.34-.34a8,8,0,0,0-2.25,3.37,11.93,11.93,0,0,1,1.37-.61,14.38,14.38,0,0,0-2.05,6q0.25-1.74,1.36-1.47c-0.52,3.62-1.72,6.1-1.36,10q0-1.71,1.12-1.41a26.94,26.94,0,0,0,.56,9.74c0.51-1.56.28,5.5,0,6.16,2-3.81.5-.88,1.39,2.55q-0.37-2,1-2a19.85,19.85,0,0,0,1,6.18q-1-2.63.66-2.89c1.19,3.63,1.11,7.59,3.37,10.86q-1.45-2.51.19-3.13c1.4,7.22,5.93,13.35,10.4,19q-1.39-1.54-.38-2.24a20.43,20.43,0,0,0,2.06,4.78q-0.24-1.4.74-1.39a14.63,14.63,0,0,0,2.93,7.55,33,33,0,0,1-.64-4.22,13.93,13.93,0,0,0,1.78,5.24c-0.27-3.44,2.82,3.26,3.36,3.82q-1-1.82.12-2c-0.16,2,1.26,4.16,2.42,5.59q-0.92-1.41.14-1.87c0.1,0.19,3.77,4.24,3.82,4.34q-1.31-.81-0.41-1.34a27,27,0,0,0,7.19,4.78c-0.42-2.39.83,0.51,0.67,1.73q0.48-2,1.87-1.92a3.4,3.4,0,0,1-.8,2c1.76,0.63,6.88-1.22,6.59-3.51a5.34,5.34,0,0,1-1.08,4.32c1.62-.37,6.34-3.95,5.51-5.59a13.38,13.38,0,0,1,.79,3.08,3.28,3.28,0,0,0,.16-4q0.7-.79,1.27.62c-0.69-4.3-1.14-14.84.2-12,0.16-2.88,0-6.85,0-9.25a5.93,5.93,0,0,0-.52-3.11q0.82-.82,1.24,1.1c0-1-4.26-8.52-.44-3.12,4.1-10.22-26.43-17.33-28.11-28.2-0.27,1.93-1.47-3.65-1-5a6.51,6.51,0,0,0,.62,4.75c0.61-3.92.66,1,2,2.6q-0.33-.56.25-0.71c0.88,2.35,1.36,4.41,3.35,6.27a7.7,7.7,0,0,1-.11-1.32c1.1,2.76,4.28,4.24,6.78,5.35-3-4.34,1.4.72,2.64,1.49-0.53-2.42,0,0,3.28.78-0.73-3.09,1.27,1.24,1.87,2-0.36-1.86,2.14,2.37,1.57,1.67-2.07-6.21,3.22,3.47,1.76,1.81-1-2.5,2.81,1.89,2.92,1.93-3.36-5.82,1.79.74,2.76,1.31-1.37-3.06,1.59.92,1.55,0.9-0.77-2.39,3,1.93,3.72,2.26-2.78-3.69,1.35.42,2.27,0.8q-1.9-1.8-.64-2.33a4.74,4.74,0,0,0,1.75,2.65c0.17-3.76.68-8.06,2.46-11.44,0.2-.37-1.13,1.44-1.1.84a20.34,20.34,0,0,1,3.23-6.7q-0.51,1.28-1.45.74c0.65-3.16,3.46-5.41,5.69-7.45-7.61,3.68,8.5-11.91-1.52,0,6.35-1.85-2,3.07-3.24,6.49,3.47-2.89-1.94,5.78-2,6,2.69-2.69-.37,2.67-0.52,4.17a90.82,90.82,0,0,0-.53,11.48q-0.12-4.42,2.32-4.09a20.9,20.9,0,0,0-2.44,8.26c0.88-1.41-.2,8.7.06,11q-0.76-3.21,1.08-3.45a12.55,12.55,0,0,0-.43,5.43c1.54-5.43,1.43,3.07,2.23,4.7q-0.76-1.59.29-2c0.5,2-.41,7.29,2.83,2.32a2.33,2.33,0,0,0-1,2.35c1.67,0.15,5.26-1.18,6.27-2.77a35.42,35.42,0,0,0-3.47,4.23,4.18,4.18,0,0,1,3.3-.61,24.4,24.4,0,0,1-2.19,1.57c0.62-.77,5.3-0.07,6.63-1.83a6.52,6.52,0,0,1-2.09,1.79c3.17,0.34,6.68-1.75,8.57-4a26.14,26.14,0,0,1-3.83,3.55c3.23,0,6-1.89,9.07-2.51q0,1.38-1.88,1.54c2.53,0,9.17-1.66,9.65-4.42-0.8,4.52,1.24,1,3.33-1.54,1.12-1.37,5.34-10.35,4.61-5.41,1.54-3.31,1.12-6.65,1.78-2.94,0.52-1.67,3.37-7.67,3.27-9.33q-0.59,1.62.44,1.31c0.48-1,.78-5.94,1.13-3.16,0.57-.81,1.74-9.56,1.74-4.05a29.68,29.68,0,0,0,1.5-8.39q1-.55.68,1.32c-1.15,3.91.37-8.87,1.27-4.1,0.6-2.09.72-12.09,1.27-3.76,0-1.46.77-12.66,1.36-5.88,0.64-2.05,1.48-6.32.92-2.63a10.73,10.73,0,0,0,.26-4.4q1-.72.73,1.28c0.21-.86-0.29-11.22.8-3.9,0.63-2.94,1-6.82.16-8.8-0.23-.6,1.18,1.55,1.09,1.43a7.85,7.85,0,0,0-1.39-5.22q0.79-1,1.48.88-3.09-3.87-.72-5.19c1.69,4.35.47,8.32,0.2,11.74-0.32,4.19-4.16,13.07-3.88,15.39-0.4,3.44-.93,7.9-2.63,10.63q0-.73,0-1.46c0-1.9-.47,7.26-1.36,3.73-0.4,8.58.11,3.13,5.17,2.89q0.61,1.08-1.33,1.4c2.78-.85,5.36-4.23,7.74-4.87a16.71,16.71,0,0,0-1.81,2.38c0.61,0,5-1.28,5.34-1.76q-0.61.62-1.27,1.19c1.33-.47,7.4-4,2.13-0.66,1.12,0,10.22-4.84,5.65-1.23,1.08-.54,8-6.32,4-1.88,2.55-2,5.41-5.24,6.12-7.49-1.75,4.51-5.36,5.21-3.48,10.44q-0.34-1.19.6-1.22a10.68,10.68,0,0,0,.78,5.8q-0.89-2.13.54-2.5a23.92,23.92,0,0,0,2.71,11.35q-1.58-4,.67-4.22a16.08,16.08,0,0,0,.67,8q-0.78-1.72.61-1.92a14.8,14.8,0,0,0,3,7.8q-0.95-1.38-.06-1.79a8.12,8.12,0,0,1,.19,5.68q0.58-2,2.07-1.91c0-.45-0.92,2.78-1.22,2.77a12.57,12.57,0,0,0,8.39-3q-0.48,1.39-1.06,2.74c2-.15,2.84-1.49,4.33-2.51,0.65-.64-2.5,3.05-1.3,2.81,3.92-.79,1.42.8,3.64-0.17s4.64-5.88,5-3.09c0,0,.92-6.21,1.28-3.07,0.6-1.56,2.9-6.69,3-7.06,0.4-1,1.46-10.43.89-2.71,0.88-2.42,2.46-12.67,2.83-9.1A39,39,0,0,0,665.34,596c0-3.12-3-8.77.86-4.67a19,19,0,0,0-1.07-7.49q0.83-1,1.24.68a30.51,30.51,0,0,0-1.06-7.84q1-.9,1.08,1a27.51,27.51,0,0,0-.38-9.57q0.75-.84,1,0.85c0-.78-1.59-6.5.34-3.67a17,17,0,0,0-.6-5.8q0.82-.64.73,1.43c1.39-11.17,5.13-27.17.24-37.85C667.65,522.95,670.23,528.57,667.71,523.06Z" transform="translate(-472.55 -468.81)"/><path class="cls-11" d="M662.09,581.11c0.14,0.14,1.92,2,2.42,1.07,0.87-1.65-1-7-1.31-8,3.51,3.33.38-5.8,0.42-5.67,3.88,3.11,1.08-4.88.47-6,6,3.7-5.65-16.41-3.94-8.5-8-7-4.69,8.37-2.29,6.29,0.35-.56-3.79,9-0.6,6.39-0.6,1.24-4.75,8.51-3.34,10.37a1.27,1.27,0,0,0,1.37-1.12c0.06-.12-3.48,13.48-0.25,9.08-0.94,2-5.68,9.6-4,12.05,0.52,0.77,2.26-1.5,2.23-1.45s-4.06,13.88-.18,7.74c-1,2-3,13,1.39,6,0.12-.31-2.68,6.26-1.35,7,2.26,1.31,4.34-8.46,4.38-9,3.23,6.19,3-7.77,2.91-8.4,2.69,2.4,2.68-14.37,1.7-17.82C664.18,583.1,664.55,589.8,662.09,581.11Z" transform="translate(-472.55 -468.81)"/><path class="cls-11" d="M657.29,499.68c0.53,0.53,2.56,1.4,3.18.56,1.19-1.61-6.11-6.22-6.36-6.39,6.74,3.68-.82-4.25-3.45-5.56,0.21,0,3.27.23,3-1-0.31-1.6-6.33-1.94-6.49-2a3.57,3.57,0,0,0,3-1.63c0.66-3.1-9.87-2.59-11-1.29,2.21-3.65-4.89-3.39-6.63-1.33,0-3.27-2.63-5.58-4-.79-0.11-.2-2.56-4.64-3.05-3.79a10.49,10.49,0,0,0,.4,4.84c-0.34-.55-2.35-3.58-3.32-2.88-1.18.85,1.59,7.46,1.47,7.12-1.71-1.63-9.45-8.31-12.25-7.51-0.83.24,0,1.56,0.05,1.95-3.25-2.17-18.85-6-16.43-2.65-1.6-.77-13.78,1.2-13.78,3.45,0,2.6,7,2.27,8.75,2.12,0.37,1.93-1.91,3.26,2.92,2.11-2.72,3.54,2.73,1.77,4,1.06-0.74,1.08-4.39,10.31,0,5.3,0.11-.19-3.45,5.18-2.89,6.23,0.33,0.62,2.4-1.5,2.62-1.72s-4.29,8-3.15,8.18,2.89-2.51,3.41-3.15c-2.92,5.47,1.94,7.13,2.92,3.71-0.48,1.49-2.27,17.85,1.85,10.6,0-.28-1.43,8.57.15,8.26s2.41-4.17,2.5-5.35c0,1.23-.76,8.41.64,9.66,0.31,0.27,1.49-6.29,1.49-6.74,2.34,6.17,3-3.8,2.11-5.83,2.31,1.88,10.2,4.81,7.43-1.32,0.35,1.46,3,6.7,4.5,3.18,0,1.55-.14,12.28,3.44,6.89-0.48,2.3-1.19,12.23,3.18,6.09,0,0.06-5.3,12.43-3.89,12.37,1.08,0,2.45-2.1,3.1-2.83-0.34.73-2.86,5.32-2.51,6.88,0.18,0.79,2.42-2,2.51-2.11-0.46,1.32-4.2,19.24-.26,11.39-1.47,4.33-1.58,16.64,1.85,7.16-1.74,12.55,4.92,1,4.78-6.1a2.08,2.08,0,0,0,1.18,2.42c1.6-.57.7-6.68,0.67-6.93,1.79,4.34,3.74.94,4-1.59,1.5,9.15,6,10.74,5,.8-0.33-1.38,1.49,7.11,3.06,5.82,2.75-2.24.19-11.37-.68-13.78q0.25,1.93,1.65,1.7c0.63-1.72-.72-6.84-1.91-8.33a5.84,5.84,0,0,0,3.17,3.45c1.54-.73-1.51-8.13-1.84-9,3.81,4,6.1,1.69,6.1-2.92-0.11-.48,1.26,6.73,2.58,6.82,1.15,0.08,1.31-5.27,1.39-6,0,1.16-.52,8.63,1.26,9.63,0.83,0.47,1.74-2.55,1.92-3-0.18,1-2.39,11.24-.47,11.59,1.37,0.25,2.23-4.89,2.32-5.5a5.48,5.48,0,0,0,1.43,4.69c5.53,1.55,1.81-22.28.43-24.57q1,1.4,1.79.3c0.13-1.31-1.43-5.37-1.63-5.85-1.42-3.42-2.67-6.27-6-8.49,9.73,3.78,1.61-5.91-1.32-8.48C658.61,501,668.15,509.22,657.29,499.68Z" transform="translate(-472.55 -468.81)"/><path class="cls-8" d="M591.06,529.09c-0.19-1.91-4.16-12.45-7.25-10.7,0.48-.27,3.81,1.82,4.13,1.17,0.51-1-5.22-4.44-5.42-6.29-0.25-2.34,3.35-6.1,4.37-8.11,3-5.82,7.62-14.05-.24-16.18-0.25-.07,2.72-1.09,2.07-1.46-1-.59-27.69-0.58-21.91-4.71q-2.92.22-2.57-1.91c-0.4.19,5.14-1.94,2.58-3.3,5.93,3.13-1.09-.37,4.18-2.13a6.32,6.32,0,0,1,.36,3.77c-0.22-.46,5.67-4.84,6.4-5.15a1.43,1.43,0,0,1-.76,1.83c1.18-4.58,16.9-3.81,20.1-3.38,8.11,1.08,15.12,5.94,22.61,7.36a38.87,38.87,0,0,0-2.23-4.89c-0.15-.25,3.44-4.39,1.94-0.64,2.65-4.7,11.6-3.59,10.48-.28,0.75-.4,5.18-1.18,2.92,1.19,3-.89,6.82-0.53,10.43,0,0.1,0-5.25-.52-2.51-1.28a10.87,10.87,0,0,0-4-.26q0.12-.63,1.06-0.34A22.8,22.8,0,0,0,630,471.9q0.35-1.18,2.14-.58a16.26,16.26,0,0,0-6.18-.89q0.12-.77,1.07-0.53c-3.85-1.08-8.13.83-11.81,1.63a0.67,0.67,0,0,1,.58-0.78c-2.36-.59-6.19,1.34-7.48,1.68a68.8,68.8,0,0,1,8.79,3.55c-12.57-6.25-40.4-10.56-51.71-3.53-0.45.13-8,3.93-4.71,1,0.1,0-7.7,4-6.61,2.53,1.63-.8-3.57,2.66-2.11.92q-3.09.55-3.63,3c0.77-.55,3.33.24,5.2,0.79q0.4,1-1.37.69c2.25-.35,8,3.07,7.55,3.06,3.19,0.94,6.74,4.06,9,6.16-0.4-.37,8.37,7.85,3.85,5.44-0.4-.43,4.2,5.75,1.43,3.92-0.2-.23,3,4.83.36,2.47a22,22,0,0,1,2,5.07q-0.57.21-.62-0.43c0.68,1.61,6.12,8.92,2.11,6.53a23.37,23.37,0,0,0,4.49,4q-0.24.64-.65-0.05c2.06-1.24,9.85,17,12.21,14.25,2.3-1.89-1.59-2.61-2.81-2.71C590.82,526.64,596.38,529.53,591.06,529.09Z" transform="translate(-472.55 -468.81)"/><path class="cls-12" d="M513.89,520.19c-2.56,3-3.73,7.19-6.48,7.85s-5.66-6.86-10.26-1.84c0.47-.51,8.55,2.13,8.74,3.18a2.08,2.08,0,0,1-.59-1.69c0.76,0.5,1.92,4.22,2.29,4.31a3.36,3.36,0,0,0,.82-1.51,27.19,27.19,0,0,0,.43,13.52c-12.75-5.43-14.91,14.4-7,21,4.77,4,10.27,3.73,15.55,5.86,4.34,1.75,7.65,6.27,12.83,5.72,4.42-.47,5.77-4.1,9.33-5.5,4.79-1.89,10.17-.87,15-3.69,13.56-8,6.59-27.25-9-22a26.48,26.48,0,0,0,1.07-14.49c0.56,0.76,6.72-2.28,7.71-2.56,1.57-.45,11.06,0,11.27-0.53,1.4-3.56-12.63-1.54-13.16-1.43-3.94.81-2.8,2.83-6.27,1.78-1.39-.42-4.58-7.82-6.31-9.37,2.14,2.66,4.21,11.18,4,10.83,0.94,2.42,2.42,12.5-1.13,14-0.34.14-7.52-5.51-8.16-5.67-5.38-1.38-5.32,0-10.63-.12-0.94,0-10.89,1.69-10.67-.08C509.12,541.07,512.06,523.18,513.89,520.19Z" transform="translate(-472.55 -468.81)"/><path class="cls-2" d="M576.9,566.69a10.39,10.39,0,0,1-3.78,5c1.49-5.77-3.39,3.18-3.8,2.26a1.53,1.53,0,0,1,.53-1.09,16.07,16.07,0,0,1-5.49,3.78c1.34-1.82-9.2,7-4.63-.79-1.18,2.14-5.86,4.95-8.67,4.3,2.65-1.94-4.57.68-5.88,0.65a2.57,2.57,0,0,0,1-1.28c-2.11,1.05-1,2.38-5.33,1.85a1.37,1.37,0,0,0,1.14-1,19.94,19.94,0,0,1-5.92,1.45,13.41,13.41,0,0,0,1.33-1.54c-2.5,1.48-12.59,2.39-13.54,1.49-0.94-.25-4.71-2.69-2.14-0.52-2.95-.51-13.22-4.65-9.36-1.57-5.7-1.6-13.85-7.22-15.65-11q-1.1.62,0.77,2.2a13.28,13.28,0,0,1-5.86-5.45q-1,.39.14,1.54a5.77,5.77,0,0,1-2.88-4.56q-1.23.26-.46,2a5.93,5.93,0,0,1-1.22-4.6c-0.22.83,1.53,7.19,1.67,4.36,2.29,6.59,18.66,14.58,24.61,16.28,6.29,1.8,15.27,3.17,22.25,1.14-2.19,1.94,5.54,0,6.55-.11,4.34-.52,8.5-0.92,12.93-1.8,5.26-1.05,14.76-3,17.53-8.8q-1,1.31,0,1.62a10,10,0,0,0,4.11-5.7C576.2,568.53,576.92,566.62,576.9,566.69Z" transform="translate(-472.55 -468.81)"/><path class="cls-2" d="M616.25,536.13c1.27-.51-0.55-5.55-0.64-5.72,1.95,2.44-1.11-4.82-1.55-5.64,0.12,0.2,1.64,4.22,1.8,4.94-13.77-16.33-.79-0.9-1.72-1.78,0.76,0.55,2.09,7,2,7.92-2.9-7.5.37,5.22,0,5.76a6.23,6.23,0,0,0,.1-5.47C616.31,536.1,616.92,538,616.25,536.13Z" transform="translate(-472.55 -468.81)"/><path class="cls-2" d="M614.93,539.58a26.91,26.91,0,0,1,.23,7.65c0.32-2.64.87-4.52-.23-7.65C614.9,539.49,615.77,542,614.93,539.58Z" transform="translate(-472.55 -468.81)"/><path class="cls-2" d="M614.64,554.55a9.68,9.68,0,0,0-.55-6.63,18.9,18.9,0,0,1,.28,6.58c-0.92-6.66-.22,3.06-0.23,3.77,0-.17.37-3.43,0.5-3.73C615.61,552.56,614.6,554.63,614.64,554.55Z" transform="translate(-472.55 -468.81)"/><path class="cls-2" d="M651.21,537.4c0.65,0.39,1.1,4.06,1.09,4.54q-0.49-1.91-1.37-1a12,12,0,0,1,.53,6.78c-1-4.75-1.07,4.3-1.82,6.87a15.51,15.51,0,0,0,1-5.21c1.09,2.5,1.52-6,1.37-6.68,1,1.7,1-4.29-.77-5.32h0Z" transform="translate(-472.55 -468.81)"/><path class="cls-2" d="M649,566.32c0,1.07-.7,3.92-1.51,4.68-1.65-4.67-2.27,3.3-3.61,5.26,2.68-10.79-4.05,6.26-1.21,1.54q0.36-1.64-.62-1a6.75,6.75,0,0,1-2.11,4.9c3-7-1,1-2.26,2.63,1.24-3.92-4.27,6.42-6.88,7.2,5.42-1.52,15.18-15.26,15.91-20.77,1,3.7,2.31-4,2.3-4.42C649,566.23,649,568.12,649,566.32Z" transform="translate(-472.55 -468.81)"/><path class="cls-2" d="M632.38,593.91l-1.45,2.73c-0.1-2.8-2.89,3.61-3.67,4.08a8.47,8.47,0,0,0,3.09-3.74c0,1.53,2.08-3.19,2-3.06C632.09,594.74,632.4,593.83,632.38,593.91Z" transform="translate(-472.55 -468.81)"/><path class="cls-9" d="M553.23,526c-2.39,4.43-9.24.76-6.87-3.67S555.61,521.54,553.23,526Z" transform="translate(-472.55 -468.81)"/><path class="cls-13" d="M552,526.32c-2,3.7-7.71.63-5.71-3.07s7.71-.62,5.71,3.07C551.16,527.9,552.86,524.74,552,526.32Z" transform="translate(-472.55 -468.81)"/><path d="M551.08,526c-2.48,4.55-4-2.15-4-2.14s6.43-2.43,4,2.14C550.48,527.09,551.67,524.88,551.08,526Z" transform="translate(-472.55 -468.81)"/><path class="cls-3" d="M549.25,523.76q-1.82,1.29-1.75-.94,1.81-1.27,1.75.94C549,524.24,549.52,523.27,549.25,523.76Z" transform="translate(-472.55 -468.81)"/><path class="cls-3" d="M547.37,524.94c-0.91,1.71.91-1.68,0,0h0Z" transform="translate(-472.55 -468.81)"/><path class="cls-9" d="M510.52,525.22c-2.47,4.59-9.57.79-7.11-3.8s9.55-.79,7.11,3.8C509.46,527.18,511.56,523.26,510.52,525.22Z" transform="translate(-472.55 -468.81)"/><path class="cls-13" d="M510.22,525.5c-2,3.69-7.7.64-5.73-3.06s7.69-.64,5.73,3.06C509.37,527.08,511.06,523.92,510.22,525.5Z" transform="translate(-472.55 -468.81)"/><path d="M509.28,525.17c-2.44,4.58-4-2.17-4-2.14s6.43-2.42,4,2.14h0Z" transform="translate(-472.55 -468.81)"/><path class="cls-3" d="M507.47,522.94q-1.83,1.29-1.76-.94,1.82-1.28,1.76.94C507.2,523.43,507.72,522.46,507.47,522.94Z" transform="translate(-472.55 -468.81)"/><path class="cls-3" d="M505.57,524.12c-0.9,1.69.91-1.67,0,0h0Z" transform="translate(-472.55 -468.81)"/><path class="cls-2" d="M563.24,527.1c-1.29-.36-6.61-1.23-8.37-0.66,0,0-5.07.88-5.87,3.92,0.61-2,3.74-3.59,5.75-4.06q-1.36.05-1.08,0.92a5.8,5.8,0,0,1,4-.67c2.53-1-.68.21-0.65,0.2a47.69,47.69,0,0,1,6.18.35C561.62,526.64,563.42,527.15,563.24,527.1Z" transform="translate(-472.55 -468.81)"/><path class="cls-2" d="M506.84,527.08c-0.75-1.19-6.75-1.33-8.69-1,0.76-.13,7.63.23,5.81,0.24,1.5,0,3.68,2.41,3.3,3.17l-0.42-2.4h0Z" transform="translate(-472.55 -468.81)"/><path class="cls-2" d="M584.57,536.92a7.11,7.11,0,0,0-3.91-2.78q0.5,0.19.6-.44c-0.36-.19-3.93-0.47-4-0.69,0.65,1.57,6.32,2.19,7.33,3.91C583.64,535.5,584.63,537,584.57,536.92Z" transform="translate(-472.55 -468.81)"/><path class="cls-2" d="M482.77,533.52a5.67,5.67,0,0,0-3.66,3.9c0-1.06,2.88-3.5,3.66-3.9C481.42,534.28,482.85,533.47,482.77,533.52Z" transform="translate(-472.55 -468.81)"/><path class="cls-2" d="M479.73,538l-1.56,2.91a14.34,14.34,0,0,0,1.56-2.91C479.08,538.82,479.8,537.9,479.73,538Z" transform="translate(-472.55 -468.81)"/><path class="cls-2" d="M478.71,543q-2.3.25-.56,4.33,2.21-.7.56-4.33C478.73,542.89,478.37,544.43,478.71,543Z" transform="translate(-472.55 -468.81)"/><path class="cls-2" d="M500,587.38a9.75,9.75,0,0,1-2.35-6q-0.76.11-.26,1.28a12.7,12.7,0,0,1-1.64-6.13c0,5,2.17,7.4,4.26,10.86C498.81,585.58,500.06,587.52,500,587.38Z" transform="translate(-472.55 -468.81)"/><path class="cls-2" d="M504.58,591.39a6.8,6.8,0,0,1-2.57-5.82c0,3.71.67,4,2.57,5.82h0Z" transform="translate(-472.55 -468.81)"/><path class="cls-2" d="M564.31,586.53a7.56,7.56,0,0,0-4,5.14c0.16-.61,3.06-4.77,4-5.14C562.27,587.33,564.43,586.48,564.31,586.53Z" transform="translate(-472.55 -468.81)"/><path class="cls-2" d="M558.2,593.66l-1,3.08a21.69,21.69,0,0,0,1-3.08C557.66,594.59,558.24,593.57,558.2,593.66Z" transform="translate(-472.55 -468.81)"/><path class="cls-2" d="M556.28,596.31c-0.21.64-.72,1.94,0,0C556.32,596.16,556.14,596.66,556.28,596.31Z" transform="translate(-472.55 -468.81)"/><path class="cls-2" d="M533.14,620.77h0Z" transform="translate(-472.55 -468.81)"/><path class="cls-2" d="M587.53,491c-0.52-1.82-6-1.81-6.69-1.81-2,1.05-10.23-1.34-14.06-.38,1.3,1,7.45,7.81,5.09,6.72,3.47,3.63,1.14,2.68,3.28,6.75q-0.66,1-1.31-.41c0.19,0.29,2.28,6.43,1.51,5.26,0.37,1.1,5.87,8.65,2.48,6.61,3.12,4.1,11.36-17,9.69-22.73C587.2,489.85,588.31,493.69,587.53,491Z" transform="translate(-472.55 -468.81)"/><path class="cls-9" d="M586.35,490.62a20,20,0,0,0-7-1,0.56,0.56,0,0,1,.66-0.58s-4.6,0-4.25.08a0.5,0.5,0,0,1,.43-0.62c-0.36-.73-8,0.74-8.68.88,4.94,4.71.32,0.1,1,1.79,0.94,0.68,8.81-.88,9.74-0.83a26.43,26.43,0,0,0-8.85,1.42c0.85,0.58,5.65,5.22,2.52,3.77,3.47,3.63,1.14,2.68,3.28,6.75q-0.66,1-1.31-.41c1.37,2.13,5.34,12.68,4,11.87,3.65,4.72,12.36-21.49,8.5-23.14h0Z" transform="translate(-472.55 -468.81)"/><path class="cls-2" d="M584.69,492.15c0.81,4-7.8,18.5-7.74,18.59,5-4,9.16-12.14,7.74-18.59h0Z" transform="translate(-472.55 -468.81)"/><path class="cls-2" d="M484.1,589.27c-0.25,1.07-1.2,2.07-.41,3.47q1.6-1,.41-3.47h0Z" transform="translate(-472.55 -468.81)"/><path class="cls-2" d="M484.71,592q-2.38.71,0,4.75,2.36-1.12,0-4.75C484.71,591.91,484.85,593.54,484.71,592Z" transform="translate(-472.55 -468.81)"/><path class="cls-2" d="M486.62,602.16c-0.19-3.87-.3,1,0.07,1.58q0.86-.35-0.07-1.58C486.59,601.67,486.64,602.68,486.62,602.16Z" transform="translate(-472.55 -468.81)"/><path class="cls-2" d="M487.6,601.93a7.59,7.59,0,0,0,.48,5.31,20.07,20.07,0,0,1-.48-5.31h0Z" transform="translate(-472.55 -468.81)"/><path class="cls-2" d="M481,564.73a5,5,0,0,0-2.29,3.9,15.44,15.44,0,0,1,2.29-3.9C480.33,565.15,481.13,564.67,481,564.73Z" transform="translate(-472.55 -468.81)"/><path class="cls-2" d="M480,568.12l-1.51,3.12a18.67,18.67,0,0,0,1.51-3.12h0Z" transform="translate(-472.55 -468.81)"/><path class="cls-2" d="M500.55,624.7a10.25,10.25,0,0,1-1.76-5.5c-0.39,3,1.15,3.92,1.76,5.5C499.81,622.82,500.62,624.86,500.55,624.7Z" transform="translate(-472.55 -468.81)"/><path class="cls-2" d="M500.75,623.24q-1.54.79,0.62,3.13,1.46-1-.62-3.13h0Z" transform="translate(-472.55 -468.81)"/><path class="cls-2" d="M527.2,619.8l-0.91-1.46c0.24,0.59.69,2.76,1,3.42q1.1-.44-0.1-2h0Z" transform="translate(-472.55 -468.81)"/><path class="cls-2" d="M526.47,621.6c-0.18-.33.84,2.38,0.84,1.87l-0.84-1.87C526.43,621.53,526.86,622.12,526.47,621.6Z" transform="translate(-472.55 -468.81)"/><path class="cls-2" d="M551,606a5.46,5.46,0,0,0-2.52,4.72c-0.1-.62,1.78-4.2,2.52-4.72C549.57,606.95,551.09,605.93,551,606Z" transform="translate(-472.55 -468.81)"/><path class="cls-2" d="M550,609.66a4.68,4.68,0,0,0-1.52,3.59c0-.12,1.48-3.54,1.52-3.59C549.15,610.58,550,609.59,550,609.66Z" transform="translate(-472.55 -468.81)"/><path class="cls-2" d="M515.94,593.27a11.36,11.36,0,0,1-2.76-4.42c0.44,2.4,2,3.16,2.76,4.42C515.54,592.62,516,593.39,515.94,593.27Z" transform="translate(-472.55 -468.81)"/><path class="cls-2" d="M518.44,595.52q-0.57-3.69-2.3-2.84c0.09,2,1.45,2.19,2.3,2.84C517.47,594.76,518.54,595.59,518.44,595.52Z" transform="translate(-472.55 -468.81)"/><path class="cls-2" d="M520.24,594.23h0Z" transform="translate(-472.55 -468.81)"/><path class="cls-2" d="M529.39,602.44l-2.29-3.6a8,8,0,0,0,2.29,3.6C528.36,601.36,529.51,602.56,529.39,602.44Z" transform="translate(-472.55 -468.81)"/><path class="cls-2" d="M580.6,545.67c-0.08-.07.78,2.33,0.95,2.12a1.8,1.8,0,0,0-.95-2.12h0Z" transform="translate(-472.55 -468.81)"/><path class="cls-2" d="M580.66,547.4q-1.61.94,0.59,3.46,1.9-.52-0.59-3.46h0Z" transform="translate(-472.55 -468.81)"/><path class="cls-2" d="M587.47,551.53c-0.07-.22-0.59,2.55-0.34,2.35l0.34-2.35h0Z" transform="translate(-472.55 -468.81)"/><path class="cls-2" d="M586.71,553.23c0-.32-1.51,4.19-1.14,3.78l1.14-3.78h0Z" transform="translate(-472.55 -468.81)"/><path class="cls-2" d="M583.72,558.43c-0.15,3.05-.09.6,0,0C583.69,558.93,583.73,558.35,583.72,558.43Z" transform="translate(-472.55 -468.81)"/><path class="cls-2" d="M582.08,561c-0.77.9,0,0,0,0h0Z" transform="translate(-472.55 -468.81)"/><path class="cls-2" d="M638.37,498.73c1.45,0.43,3.33,3.38,4.14,4.48-1.08-1.48-1.17-3.86-4.14-4.48h0Z" transform="translate(-472.55 -468.81)"/><path class="cls-2" d="M641.06,503.23c-0.49-.49,2.38,3.46,2.08,2.65l-2.08-2.65h0Z" transform="translate(-472.55 -468.81)"/><path class="cls-2" d="M642.9,508.32c0.12,0,1.67,2.75,1.67,2.7l-1.67-2.7h0Z" transform="translate(-472.55 -468.81)"/><path class="cls-2" d="M655.37,584.52c0.89,1.22,1.57,4.92,1.45,6.42,0.18-2.33.36-4.06-1.45-6.42h0Z" transform="translate(-472.55 -468.81)"/><path class="cls-2" d="M655.37,580.73c-0.32-.35,1.18,3,1.08,2.16l-1.08-2.16h0Z" transform="translate(-472.55 -468.81)"/><path class="cls-2" d="M657,566.14q-1.68,1.49,1.44,4c-0.22-1.46.33-2.5-1.44-4h0Z" transform="translate(-472.55 -468.81)"/><path class="cls-2" d="M657.73,568.9c-0.18-.38.41,4,0.72,3.44a3.43,3.43,0,0,0-.72-3.44C657.68,568.8,658.36,569.94,657.73,568.9Z" transform="translate(-472.55 -468.81)"/><path class="cls-2" d="M661.7,563.06c-0.15-.22.55,4.15,0.91,3.82a3.72,3.72,0,0,0-.91-3.82h0Z" transform="translate(-472.55 -468.81)"/><path class="cls-2" d="M660.37,551.14q-1.34.79,0.92,2.69,1.53-.71-0.92-2.69h0Z" transform="translate(-472.55 -468.81)"/><path class="cls-2" d="M657.89,601.51c0.27,0.3.18,3.66,0.19,4-0.06-1.22,1.37-2.28-.19-4h0Z" transform="translate(-472.55 -468.81)"/><path class="cls-2" d="M657.58,604.62c-0.08-.38-0.49,3.46-0.16,3l0.16-3h0Z" transform="translate(-472.55 -468.81)"/><path class="cls-2" d="M660.65,597.24c-0.15-.45.11,3.45,0.34,2.68l-0.34-2.68C660.61,597.13,661,598.15,660.65,597.24Z" transform="translate(-472.55 -468.81)"/><path class="cls-2" d="M636.58,560.95c0.58,0.94.42,4.28,0.23,5.29,0.33-1.93,1.2-2.81-.23-5.29h0Z" transform="translate(-472.55 -468.81)"/><path class="cls-2" d="M636,565.55q-2,.85-0.64,4.18a6.13,6.13,0,0,0,.64-4.18C636,565.43,636.21,567,636,565.55Z" transform="translate(-472.55 -468.81)"/><path class="cls-2" d="M640.1,566.7c-0.1,2.49,0-.46,0,0C640.09,567,640.1,566.62,640.1,566.7Z" transform="translate(-472.55 -468.81)"/><path class="cls-2" d="M626.15,587q-1.44.92-.62,3.26,1.84,0.21.62-3.26C626.11,586.92,626.64,588.13,626.15,587Z" transform="translate(-472.55 -468.81)"/><path class="cls-2" d="M624.95,590.37q-1.9.74-1.4,3.71,2.05,0.56,1.4-3.71C624.94,590.26,625.08,591.77,624.95,590.37Z" transform="translate(-472.55 -468.81)"/><path class="cls-2" d="M491.23,528.52a5.82,5.82,0,0,0-4,2.41,15.92,15.92,0,0,1,4-2.41C489.68,528.58,491.34,528.51,491.23,528.52Z" transform="translate(-472.55 -468.81)"/><path class="cls-2" d="M489,530.68l-2.15,1.81a19.17,19.17,0,0,0,2.15-1.81C488.3,531.2,489.1,530.63,489,530.68Z" transform="translate(-472.55 -468.81)"/><path class="cls-2" d="M497,517.89q-4-.54-3.45,1.36,3.29,0.55,3.45-1.36C495.8,518.1,497.12,517.88,497,517.89Z" transform="translate(-472.55 -468.81)"/><path class="cls-2" d="M495,519.48l-3.6,2.3a19.62,19.62,0,0,0,3.6-2.3C493.5,519.72,495.08,519.47,495,519.48Z" transform="translate(-472.55 -468.81)"/><path class="cls-2" d="M542.24,566c-0.5.33-10.67-4.15-13.26-4.1-5.37.11-10.12,5-14.55,4.49,6.31,1,8.64,9.5,15.51,9.11,5.54-.31,8.52-6.66,12.3-9.5C542.1,566.1,542.32,566,542.24,566Z" transform="translate(-472.55 -468.81)"/><path class="cls-14" d="M521.51,570a8,8,0,0,0-4.8-3.28c5.71-4.66,17.72-7.08,23.64-1.16-6.19-2.45-14.25,1.66-16,8l-2.8-3.57h0Z" transform="translate(-472.55 -468.81)"/><path class="cls-15" d="M539,568.66c-3.14,3.14-17.33,12.32-12.9,1.69,1.79-4.3,12-7.33,15.54-3.91L539,568.66C537.85,569.8,539.82,567.85,539,568.66Z" transform="translate(-472.55 -468.81)"/><g class="cls-6"><path class="cls-15" d="M541.07,566c-2.59-1-21.23,3.46-16.24,8,1.39-3.2,13.23-2.24,7.81.62C534.49,573.87,541.75,566.43,541.07,566Z" transform="translate(-472.55 -468.81)"/></g><g class="cls-6"><path class="cls-14" d="M540.26,565.48c-7.46-4.46-16.66-4.41-23.55,1.22,5.28,1.27,5.44,4.57,7.6,6.85,1.46-5.18,10.83-12,16-8.07C539.77,565.18,540.29,565.49,540.26,565.48Z" transform="translate(-472.55 -468.81)"/></g><path class="cls-2" d="M541.14,574.64c-6,5.12-14.84,7.31-20.49,0,6.05,9.17,14.54,4.93,20.49,0C538,577.32,541.43,574.4,541.14,574.64Z" transform="translate(-472.55 -468.81)"/><path class="cls-2" d="M533,562.91c-0.37-2.63-16.59-2.55-9.37,6.66,5.39,6.88,10.34-.65,9.37-6.66C533,562.49,533.09,563.29,533,562.91Z" transform="translate(-472.55 -468.81)"/><path class="cls-3" d="M532.29,564.34c0,0.47.14,7.19-3.13,7.56-0.5.46-2-10.61-2-8.91,0,2.05-.56,7,1.74,8.93-3.43.25-8-5.14-6.43-8.46,1.08-2.32,11-3.29,9.79.89C532.29,564.25,532.54,563.46,532.29,564.34Z" transform="translate(-472.55 -468.81)"/><g class="cls-16"><path class="cls-17" d="M531.72,562.13c-6.92-3.42-12,2.15-7,8,3.9-2.17,1.45,2,4.2,1.76-2.3-1.91-1.74-6.88-1.74-8.93,0-1.7,1.47,9.37,2,8.91-0.33,0-.61-6.91,2.34-2,0.26-1.78.79-7,.79-5.56a1.57,1.57,0,0,0-.58-2.21h0Z" transform="translate(-472.55 -468.81)"/></g><path class="cls-2" d="M561.17,555.69c-0.47-7.73-11.45-12-17.63-8.53,4.81-8.38,2.24-24-5.14-29.71,3.76,1.18-3.73-3.51-3.78-3.55a49.66,49.66,0,0,1,4,3.19c-3.56-1.22,2.45,3.4,2.86,4.32q-0.93-1.52-1.22-.36c3.17,2.61,4.45,6.94,4.74,10.86q-0.07-4.15-2-3.41c2.06,4,2.18,5.52,1.79,10.33q0.21-1.79-.71-1.55c2,4.46-.18,9.07-3.29,11.94-3.64-14-23.42-16.31-29.33-3.17-2.54-2.18-2.68-7.35-1-10.47q-0.89-.34-0.85,1.47c0.07-4.86.39-6.29,2.81-10.09q-1.78-1.07-2.34,3.19c0.68-3.88,2.4-8,5.81-10.33q-0.17-1.19-1.25.23c0.48-.83,6.93-4.92,3.28-4,1.24-1,3.07-1.93,4.33-2.77-0.06,0-8,3.93-4.13,3.15-7.9,4.88-12,20.06-8.16,28.9-13.26-3.92-14.66,12.73-6.37,19,4.73,3.56,23.64,10.84,24.28-.14,4.26,12.78,34,4.15,33.26-8.46C561,552.75,561.34,558.56,561.17,555.69Z" transform="translate(-472.55 -468.81)"/><path class="cls-18" d="M516.14,540c8.28-2.21,19.28-2.82,22.61,5.84,2.28,5.93.6,9-5.24,12.47-6.37,3.74-15.32,1.42-19.69-4.75-3.67-5.18-1.48-8.39,2.32-13.56C518.84,539.28,515.57,540.77,516.14,540Z" transform="translate(-472.55 -468.81)"/><path class="cls-9" d="M527.42,565c-1.56,9.43-20.53,1.1-24.62-2.55-5.3-4.73-6.34-18.4,4.37-17.15,6,0.7,3.6,7.4,9.45,11.81,4.28,3.22,11.9,1.58,10.8,7.89C527.11,566.92,527.56,564.2,527.42,565Z" transform="translate(-472.55 -468.81)"/><path class="cls-9" d="M555.62,564.45c-5.3,3.82-20.24,8.33-25.45,2.08s5.81-8.9,10.38-14.21c2.19-2.54,2.45-5.65,7.95-5.73,10.4-.16,16,11.51,7.13,17.87h0Z" transform="translate(-472.55 -468.81)"/><g class="cls-19"><path class="cls-18" d="M535.07,543c-4.89-3-13.08-4.52-18.08-.8,2.73-2,15-1,18.08.8C530.23,540,535.26,543.11,535.07,543Z" transform="translate(-472.55 -468.81)"/><path class="cls-18" d="M516.14,543.26c-1-.69.2,0.12,0,0S516.27,543.34,516.14,543.26Z" transform="translate(-472.55 -468.81)"/></g><g class="cls-6"><path class="cls-18" d="M540,550.15c-2.25-1.73-.76-9-4.38-9.92,13.46,17-25.7,22.27-22.17,3.85-10.36,19.06,30,19.36,26.55,6.07C540,550.14,540.13,550.62,540,550.15Z" transform="translate(-472.55 -468.81)"/></g><g class="cls-6"><path class="cls-9" d="M527.47,562.61c-0.75-3.16-13.48-6.5-16.55-11.61-2.26-3.76,2.67-4.13-2.7-5.57-4.08-1.09-9.06,3.14-9.85,6.89,2.4-4.36,5.86-4.6,9.51-2.73,1.94,1,12.2,10.39,13.2,12.21,6,10.94-16.77,2.84-20.63-1.73,4.07,5.38,28.21,15.84,27,2.53C527.38,562.25,527.54,563.41,527.47,562.61Z" transform="translate(-472.55 -468.81)"/></g><g class="cls-6"><path class="cls-9" d="M533.47,564c-1.63-7.55,15.9-16.72,21.58-15.43-6.12-3.67-10.38-.72-13.9,2.43-2.82,2.52-9.12,7-11.23,9.6-7.4,9,26.34,13,30.45-2.07-2.6,3.44-25,14-26.9,5.48C532.66,560.24,534.26,567.62,533.47,564Z" transform="translate(-472.55 -468.81)"/></g><path class="cls-20" d="M498.24,553.84c0.62,5.32,15.71,18.08,17.72,11.07C516.48,563.07,499,544,498.24,553.84Z" transform="translate(-472.55 -468.81)"/><path class="cls-20" d="M559.61,553.14c-5.57-8.87-23.46,5.06-19.22,10.78S563.85,562,559.61,553.14Z" transform="translate(-472.55 -468.81)"/><path class="cls-21" d="M526.57,573.9c0.39,0,5,.36,5.05.3C531.55,577.65,524.18,573.41,526.57,573.9Z" transform="translate(-472.55 -468.81)"/><path class="cls-22" d="M515,655.09c1.52-1.6,5.91-4.6,8.17-4.31C519.36,650.29,516.43,654,515,655.09Z" transform="translate(-472.55 -468.81)"/><path class="cls-22" d="M521.61,656.55c1.07-1.67,3.94-4.64,5.83-4.78C524.4,652,523,655.05,521.61,656.55Z" transform="translate(-472.55 -468.81)"/><path class="cls-22" d="M544.82,655.29c0.83-1.8,3.28-5.14,5.12-5.53C547,650.4,546,653.6,544.82,655.29Z" transform="translate(-472.55 -468.81)"/><path class="cls-22" d="M548.34,658.52c0.64-2.05,3.69-7.33,5.94-7.75C550.16,651.53,549.3,656.77,548.34,658.52Z" transform="translate(-472.55 -468.81)"/><path class="cls-22" d="M554.21,658.07c0.71-1.95,3.35-6.16,5.33-6.45C556,652.13,555.08,656.61,554.21,658.07Z" transform="translate(-472.55 -468.81)"/><path class="cls-22" d="M559.88,658.13c0.71-1.95,3.35-6.16,5.33-6.45C561.66,652.2,560.75,656.66,559.88,658.13Z" transform="translate(-472.55 -468.81)"/><path class="cls-22" d="M565.39,658.27c0.49-2,2.66-6.48,4.61-7C566.52,652.18,566.1,656.71,565.39,658.27Z" transform="translate(-472.55 -468.81)"/><path class="cls-22" d="M591.7,645.07c0.92-1.86,4-5.74,6-5.8C594.13,639.38,592.74,643.72,591.7,645.07Z" transform="translate(-472.55 -468.81)"/><path class="cls-22" d="M623.91,641.46c1.34-1.3,5.56-4.25,7.5-3.7C628,636.79,625.31,640.45,623.91,641.46Z" transform="translate(-472.55 -468.81)"/><path class="cls-22" d="M625.54,644.27c1.18-1.45,5-4.86,7-4.53C629,639.16,626.82,643.13,625.54,644.27Z" transform="translate(-472.55 -468.81)"/><path class="cls-22" d="M630.32,645c1.21-1.64,5.65-5.46,7.8-5.11C634.16,639.25,631.74,643.74,630.32,645Z" transform="translate(-472.55 -468.81)"/><path class="cls-22" d="M633.76,645.84c1.21-1.64,5.65-5.46,7.81-5.1C637.6,640.07,635.18,644.56,633.76,645.84Z" transform="translate(-472.55 -468.81)"/><path class="cls-22" d="M640.66,646.18c1.21-1.64,5.66-5.46,7.81-5.1C644.51,640.42,642.08,644.9,640.66,646.18Z" transform="translate(-472.55 -468.81)"/><path class="cls-22" d="M584.21,642.89c1.16-1.47,5-4.94,7-4.65C587.6,637.73,585.47,641.75,584.21,642.89Z" transform="translate(-472.55 -468.81)"/><path class="cls-22" d="M581.21,641.16c1.19-1.44,5.07-4.82,7.06-4.48C584.72,636.07,582.49,640,581.21,641.16Z" transform="translate(-472.55 -468.81)"/><path class="cls-22" d="M510.25,654c1.52-1.61,5.91-4.6,8.17-4.31C514.64,649.17,511.71,652.92,510.25,654Z" transform="translate(-472.55 -468.81)"/><path class="cls-22" d="M508.57,651.54c1.69-1.34,6-3.82,8.18-3.31C513.21,647.4,510.06,650.67,508.57,651.54Z" transform="translate(-472.55 -468.81)"/><path class="cls-22" d="M509.32,648.63a6.46,6.46,0,0,1,4.14-1.3C511.29,647.36,510.9,647.83,509.32,648.63Z" transform="translate(-472.55 -468.81)"/><g class="cls-23"><path class="cls-24" d="M580.68,507.86c0.67-1.39,2.91-5.07,2.93-6.86,0,0.82-3.28,5.34-4,5.07-2.43-.94-1.29-1.75-2.57-4.1-0.75-1.37-1.18-7.69-.64-6.7q-1.45-1.08-2.93-2.11c-0.86-1.69,12.65-1.45,13.57-1.28-0.28-2.48-6.92-2.32-7.75-2.24a0.56,0.56,0,0,1,.66-0.58s-4.6,0-4.25.08a0.5,0.5,0,0,1,.43-0.62c-0.36-.73-8,0.74-8.68.88,4.94,4.71.32,0.1,1,1.79,0.94,0.68,8.81-.88,9.74-0.83a26.43,26.43,0,0,0-8.85,1.42c0.85,0.58,5.65,5.22,2.52,3.77,3.47,3.63,1.14,2.68,3.28,6.75q-0.66,1-1.31-.41c1.37,2.13,5.34,12.68,4,11.87,3,3.89,5-4.58,6-7.35a4.72,4.72,0,0,1-3.48,3.2l0.29-1.75C582.41,504.24,579.26,510.8,580.68,507.86Z" transform="translate(-472.55 -468.81)"/></g><path class="cls-25" d="M490,488.41c0,2.07,3,14,2.59,14.45,0.76-.91-7-12.59-3.21-15.91A1,1,0,0,1,490,488.41Z" transform="translate(-472.55 -468.81)"/><path class="cls-25" d="M585.7,493.7c-0.12,1.27-3.32,13.68-3.69,13.49C585,508.68,586.23,491.91,585.7,493.7Z" transform="translate(-472.55 -468.81)"/><path class="cls-26" d="M524.73,513.54c-1,.35-6.33,4.11-6.45,5.11,1.62,0.23-7.57,7.27-4.38,7.65a5.81,5.81,0,0,0,2.53-1c-0.62.58-5.06,5.28-4.26,6.18a2.17,2.17,0,0,0,2.16-.81c0.06-.08-3.21,8.33.7,3.85q-1.95,1.8-.83,3.65c1.63,0.21,13.77-2.11,15.43-3.53-1.77,3.23,2.3.34,1.87-1.63,0.43,0.79,4.6,7,4.2,1.87,0.76,1.2,2.72,5,3,1.87,3,8.41,3.86,1.12,3.76-1.46-0.12-3.19-2-8.84-2.95-9.75,5,2.9-2.22-4.87-3.16-5.37,5.82,2.32-2-2.92-1.51-2.68,2.63,0.44-.3-2.09-1-2.45-3-1.52-5.63-2.73-9.16-1.5h0Z" transform="translate(-472.55 -468.81)"/><g class="cls-27"><path class="cls-7" d="M517.71,518.16a9.3,9.3,0,0,0-3.84,4.31c-0.09.44,4.27-4.58,3.84-4.31C516.86,518.75,517.92,518,517.71,518.16Z" transform="translate(-472.55 -468.81)"/><path class="cls-7" d="M526,517.29c0.31-.06-6.75,4.6-4.65,4.81,1.09,0.11,3.8-4.64,4.65-4.81h0Z" transform="translate(-472.55 -468.81)"/><path class="cls-7" d="M522.93,517.23a23.2,23.2,0,0,0-3.3,3.7c-0.18.31,3.42-3.84,3.3-3.7C521.83,518.46,523,517.1,522.93,517.23Z" transform="translate(-472.55 -468.81)"/><path class="cls-7" d="M519.72,524.9c-0.65.07-5.38,3.37-4.26,5.22,0.26,0.42,3.76-5.15,4.26-5.22C518.57,525,520,524.87,519.72,524.9Z" transform="translate(-472.55 -468.81)"/><path class="cls-7" d="M520.61,527.15q-2.37.91-1.21,1.82,2.3-1,1.21-1.82C520.1,527.61,520.83,527,520.61,527.15Z" transform="translate(-472.55 -468.81)"/><path class="cls-7" d="M521.15,532.13a6.47,6.47,0,0,0-2.09,3.69c0,0.75,2.47-4.2,2.09-3.69C520.32,533.15,521.27,532,521.15,532.13Z" transform="translate(-472.55 -468.81)"/></g><g class="cls-27"><path class="cls-7" d="M657,502.09a9.45,9.45,0,0,1,3.85,4.3c0.08,0.48-4.27-4.58-3.85-4.3h0Z" transform="translate(-472.55 -468.81)"/><path class="cls-7" d="M648.76,501.21s6.21,4.64,4.64,4.81c-1.06.11-3.82-4.62-4.64-4.81C649.87,501.44,648.5,501.15,648.76,501.21Z" transform="translate(-472.55 -468.81)"/><path class="cls-7" d="M651.8,501.15a24.73,24.73,0,0,1,3.3,3.7,49.55,49.55,0,0,1-3.3-3.7C652.89,502.38,651.68,501,651.8,501.15Z" transform="translate(-472.55 -468.81)"/><path class="cls-7" d="M655,508.82c0.64,0.08,5.37,3.37,4.25,5.22-0.25.42-3.77-5.15-4.25-5.22C656.16,509,654.73,508.78,655,508.82Z" transform="translate(-472.55 -468.81)"/><path class="cls-7" d="M654.11,511.07q2.38,0.92,1.21,1.82-2.25-.94-1.21-1.82h0Z" transform="translate(-472.55 -468.81)"/><path class="cls-7" d="M653.58,516a6.55,6.55,0,0,1,2.08,3.69c0,0.71-2.53-4.23-2.08-3.69C654.4,517.07,653.45,515.89,653.58,516Z" transform="translate(-472.55 -468.81)"/></g><path class="cls-28" d="M552.64,589.6c-1.43.57,0,0,0,0h0Z" transform="translate(-472.55 -468.81)"/><path class="cls-28" d="M553.47,586.86c-0.21.23-4.83,3.88-4.56,4.56,2-.64,2.12-1.66,4.56-4.56h0Z" transform="translate(-472.55 -468.81)"/><path class="cls-28" d="M507.48,590.53c-0.22-1.84-.73-1.62-0.6-0.68-1.31-1.59-1.36-6.52-2-2.6a6.51,6.51,0,0,1-.62-4.75c-0.22.68,0.71,7.34,1,5,0.32,2.09,3.52,7.48,5.07,8.72-0.52-1-2.9-4.32-2.9-5.65C507.42,590,507.48,590.53,507.48,590.53Z" transform="translate(-472.55 -468.81)"/><path class="cls-28" d="M593.87,531.79l-0.07.05A0.12,0.12,0,0,0,593.87,531.79Z" transform="translate(-472.55 -468.81)"/><path class="cls-28" d="M604.17,567.66c0.22,0.62-.11-0.33,0,0h0Z" transform="translate(-472.55 -468.81)"/><path class="cls-28" d="M477.33,562.61c-0.18.73,0,.05,0,0S477.35,562.64,477.33,562.61Z" transform="translate(-472.55 -468.81)"/><path class="cls-8" d="M533.24,583.23a2.56,2.56,0,0,0,.36-0.09Z" transform="translate(-472.55 -468.81)"/><path class="cls-8" d="M598.9,552.46c0-.14,0-0.29,0-0.44C598.88,552.16,598.89,552.31,598.9,552.46Z" transform="translate(-472.55 -468.81)"/><path class="cls-8" d="M597.92,540.18c-0.08-.12-0.17-0.24-0.26-0.36A3.56,3.56,0,0,0,597.92,540.18Z" transform="translate(-472.55 -468.81)"/><path class="cls-8" d="M575.71,507.08a1.32,1.32,0,0,1-.08-0.2A1.32,1.32,0,0,0,575.71,507.08Z" transform="translate(-472.55 -468.81)"/><path class="cls-8" d="M476.32,562.49c-1.1,2.52,1.83-2.35,1.88-2.49l-1.88,2.49C476.21,562.73,476.7,561.53,476.32,562.49Z" transform="translate(-472.55 -468.81)"/><path class="cls-8" d="M532.56,583.39l0.68-.16A5.64,5.64,0,0,0,532.56,583.39Z" transform="translate(-472.55 -468.81)"/><path class="cls-8" d="M550.48,590.57a3,3,0,0,0,2.68-2l-2.68,2C551.16,590.32,551.35,590,550.48,590.57Z" transform="translate(-472.55 -468.81)"/><path class="cls-8" d="M602.78,568.38c0.21,1.41,1.05,7.23-.7,8.77q-1.62.33-1.73-1.69c-0.61,2.12-2,7.19-2.2.73-0.18,1.05-3.51,8.06-3.9,4.88,0,1.1-2.84,7.77-3.18,2.2-0.07.37-3.56,9-4.87,3.42-0.25,1.13-.65,4.38-1.72,5.17q-1.93-1.39-1.21-4.19c-1,3.57-2.89,4.62-5.19,7l-1.4-.9a5.8,5.8,0,0,1-1.8,4.51q-1.87-.56-1.62-2.81c0,1.15-2.93,5.84-2.93,1.46-0.24.39-2.47,5.62-2.68,2.93-0.14,1.59-3.12,6.68-3.66,1.46-0.31.91-1.79,3.31-2.88,3.48q-1.53-1.64,0-4c0.35-.4-4,4.61-4.71,3a9.34,9.34,0,0,1,1.29-5.39c-3.41,4.54-2.63-1.77-1.7-3.9a2.85,2.85,0,0,1-2.47,1.29c-1.49-.83,3-6.76,2.62-6.25-3.3,2.95-7.35,2-9.41,7.72,3.47-2.89-1.94,5.78-2,6,2.69-2.69-.37,2.67-0.52,4.17a90.82,90.82,0,0,0-.53,11.48q-0.12-4.42,2.32-4.09a20.9,20.9,0,0,0-2.44,8.26c0.88-1.41-.2,8.7.06,11q-0.76-3.21,1.08-3.45a12.55,12.55,0,0,0-.43,5.43c1.54-5.43,1.43,3.07,2.23,4.7q-0.76-1.59.29-2c0.5,2-.41,7.29,2.83,2.32a2.33,2.33,0,0,0-1,2.35c1.67,0.15,5.26-1.18,6.27-2.77a35.42,35.42,0,0,0-3.47,4.23,4.18,4.18,0,0,1,3.3-.61,24.4,24.4,0,0,1-2.19,1.57c0.62-.77,5.3-0.07,6.63-1.83a6.52,6.52,0,0,1-2.09,1.79c3.17,0.34,6.68-1.75,8.57-4a26.14,26.14,0,0,1-3.83,3.55c3.23,0,6-1.89,9.07-2.51q0,1.38-1.88,1.54c2.53,0,9.17-1.66,9.65-4.42-0.8,4.52,1.24,1,3.33-1.54,1.12-1.37,5.34-10.35,4.61-5.41,1.54-3.31,1.12-6.65,1.78-2.94,0.52-1.67,3.37-7.67,3.27-9.33q-0.59,1.62.44,1.31c0.48-1,.78-5.94,1.13-3.16,0.57-.81,1.74-9.56,1.74-4.05a29.68,29.68,0,0,0,1.5-8.39q1-.55.68,1.32c-1.15,3.91.37-8.87,1.27-4.1,0.6-2.09.72-12.09,1.27-3.76,0-1.46.77-12.66,1.36-5.88,0.64-2.05,1.48-6.32.92-2.63a10.73,10.73,0,0,0,.26-4.4q1-.72.73,1.28c0.21-.86-0.29-11.22.8-3.9,0.63-2.94,1-6.82.16-8.8-0.23-.6,1.18,1.55,1.09,1.43a7.85,7.85,0,0,0-1.39-5.22c1.33,1.74,2.25,1,.68-4,0,2.72-.39,2.86-1.45.52C604,576.67,603.85,570.72,602.78,568.38Z" transform="translate(-472.55 -468.81)"/><path class="cls-8" d="M662.81,601.56c0,0.84-.92,8.73-2.2,4.4,0.32,1.83-.56,10.34-2.44,5.12-0.21,1.51-.43,11.1-1.46,7.32,0,2.06-.27,6.6-1.88,8.14q-1.59-.79-0.81-3c-3.35,6.32-3.4-1.83-3.17-4.88-2.38,3.31-2-4.91-2-4.88a1.78,1.78,0,0,1-.95,1.36c-1.32-1.31,1.3-12.3,1.44-13.33a1.46,1.46,0,0,1-1.43,1,6,6,0,0,1-1.25-4.45c-0.6,1.51,1.21-8.86,2-10.49-3.16,4.76-.41-8.25-0.49-8.05,0,0-2,2.85-2.27,2.65,0.32,0.25,4.28-15.22,4-17.78a15.93,15.93,0,0,1-2.38,4q-2.16-.07-1.28-3c-0.56,1.55-2.17,4.92-3.88,5.67q-2.19-.72-0.75-3.48c-0.53,2.83-8.7,21.67-9.28,9.52-0.52,1.58-3.17,6.9-3.17,1.71-0.2,1.32-2.47,4.61-4.11,4.25a3.44,3.44,0,0,1-.78-4c-2.36,2.55-7.06,8.57-6.83,1-0.44,1-1.6,3.74-2.81,4.16q-1.68-1.12-.61-3.43c-2.07,3.34-3.57,0-3.17-2.44a2.26,2.26,0,0,1-.83,1.51c-1.47.43-1.12-9.46-1.13-9.07-0.17.5-.52,2.5-1.15,2.84-1.26.67-3.54-7.91-3.48-7.72,0,4.88,1.15,8.79.72,12.87-0.39,3.67-4.62,13.32-4.33,15.66-0.4,3.44-.93,7.9-2.63,10.63q0-.73,0-1.46c0-1.9-.47,7.26-1.36,3.73-0.4,8.58.11,3.13,5.17,2.89q0.61,1.08-1.33,1.4c2.78-.85,5.36-4.23,7.74-4.87a16.71,16.71,0,0,0-1.81,2.38c0.61,0,5-1.28,5.34-1.76q-0.61.62-1.27,1.19c1.33-.47,7.4-4,2.13-0.66,1.12,0,10.22-4.84,5.65-1.23,1.08-.54,8-6.32,4-1.88,2.55-2,5.41-5.24,6.12-7.49-1.75,4.51-5.36,5.21-3.48,10.44q-0.34-1.19.6-1.22a10.68,10.68,0,0,0,.78,5.8q-0.89-2.13.54-2.5a23.92,23.92,0,0,0,2.71,11.35q-1.58-4,.67-4.22a16.08,16.08,0,0,0,.67,8q-0.78-1.72.61-1.92a14.8,14.8,0,0,0,3,7.8q-0.95-1.38-.06-1.79a8.12,8.12,0,0,1,.19,5.68q0.58-2,2.07-1.91c0-.45-0.92,2.78-1.22,2.77a12.57,12.57,0,0,0,8.39-3q-0.48,1.39-1.06,2.74c2-.15,2.84-1.49,4.33-2.51,0.65-.64-2.5,3.05-1.3,2.81,3.92-.79,1.42.8,3.64-0.17s4.64-5.88,5-3.09c0,0,.92-6.21,1.28-3.07,0.6-1.56,2.9-6.69,3-7.06,0.4-1,1.46-10.43.89-2.71,0.88-2.42,2.46-12.67,2.83-9.1,2-4.86,2-5.16.32-9.14C662.81,604.25,663.35,602.85,662.81,601.56Z" transform="translate(-472.55 -468.81)"/><path class="cls-8" d="M610.47,582.7c0-.22.1-0.44,0.12-0.65C610.55,582.28,610.5,582.49,610.47,582.7Z" transform="translate(-472.55 -468.81)"/><path class="cls-8" d="M548.61,589.2c-0.88,1-4.87,6.42-5.53,2.28-0.83,2.5-6,6.92-6.51,3.9q0.29,2.45-1.79,2.94c-0.51-.3-3.37-2.27-3.42-3.27-0.3,1-1.53,3.89-2.11.82a1.55,1.55,0,0,1-.71,1.59,3.53,3.53,0,0,1-2.54-3.05,3.45,3.45,0,0,1-.9,2.11q-2.29-.08-2.85-2.76a3.18,3.18,0,0,1-.47,2.5q-2.22.2-2.79-2.5c0,3.08-6.87-2.53-7.32-3.42,0.55,3.71-2.73,1.71-4.19.19a11.32,11.32,0,0,0,3,4.87,7.7,7.7,0,0,1-.11-1.32c1.1,2.76,4.28,4.24,6.78,5.35-3-4.34,1.4.72,2.64,1.49-0.53-2.42,0,0,3.28.78-0.73-3.09,1.27,1.24,1.87,2-0.36-1.86,2.14,2.37,1.57,1.67-2.07-6.21,3.22,3.47,1.76,1.81-1-2.5,2.81,1.89,2.92,1.93-3.36-5.82,1.79.74,2.76,1.31-1.37-3.06,1.59.92,1.55,0.9-0.77-2.39,3,1.93,3.72,2.26-2.78-3.69,1.35.42,2.27,0.8q-1.9-1.8-.64-2.33a4.74,4.74,0,0,0,1.75,2.65c0.17-3.76.68-8.06,2.46-11.44,0.2-.37-1.13,1.44-1.1.84a20.34,20.34,0,0,1,3.23-6.7q-0.51,1.28-1.45.74c0.65-3.16,3.46-5.41,5.69-7.45,1.07-.52-3.08,1.56-3.34.44l0.51-2C547.3,590.67,547.72,591.19,548.61,589.2Z" transform="translate(-472.55 -468.81)"/><path class="cls-8" d="M509.88,597.33c0.47,0.57,7.91,8,3.9,6.34,0,0,4.34,4.36,1,2.77,1.76,2,3.34,13.09,1.3,10.08,0.46,2.24-1,4.85-3.08,2,0.07,1.63-1.65,9.67-4.24,4.88,0.59,1.37-2.3,2.86-3.25,0a5.88,5.88,0,0,1-.06,2.48q-2,0-2.38-2.64a3.17,3.17,0,0,1-.47,3.12c-1.8,1.28-4.78-10.84-4.9-12.23-1,4.13-4.33-4.7-4.24-4.39,0,3.45-3.47-5.09-2.93-2.77-0.52,6.54-2.95-5.28-2.92-5s-0.44,2.26-.82,2.12a9,9,0,0,1-.81-4.44c-0.37,4-2.53-2.88-2.44-2.11-0.23,2-.71,2.89-2.1.29,0.56,2.89,1.1,6.19,2.83,8.69q-1.45-2.51.19-3.13c1.4,7.22,5.93,13.35,10.4,19q-1.39-1.54-.38-2.24a20.43,20.43,0,0,0,2.06,4.78q-0.24-1.4.74-1.39a14.63,14.63,0,0,0,2.93,7.55,33,33,0,0,1-.64-4.22,13.93,13.93,0,0,0,1.78,5.24c-0.27-3.44,2.82,3.26,3.36,3.82q-1-1.82.12-2c-0.16,2,1.26,4.16,2.42,5.59q-0.92-1.41.14-1.87c0.1,0.19,3.77,4.24,3.82,4.34q-1.31-.81-0.41-1.34a27,27,0,0,0,7.19,4.78c-0.42-2.39.83,0.51,0.67,1.73q0.48-2,1.87-1.92a3.4,3.4,0,0,1-.8,2c1.76,0.63,6.88-1.22,6.59-3.51a5.34,5.34,0,0,1-1.08,4.32c1.62-.37,6.34-3.95,5.51-5.59a13.38,13.38,0,0,1,.79,3.08,3.28,3.28,0,0,0,.16-4q0.7-.79,1.27.62c-0.69-4.3-1.14-14.84.2-12,0.16-2.88,0-6.85,0-9.25a5.93,5.93,0,0,0-.52-3.11q0.82-.82,1.24,1.1c0-1-4.26-8.52-.44-3.12,3.48-8.67-19.28-16.36-23-19.48q1.62,2.31-.5,1.16C512.65,600.75,511.39,598.34,509.88,597.33Z" transform="translate(-472.55 -468.81)"/><path class="cls-8" d="M507.48,590.56l1.54,3.13q-1.54-4.94-1.54-3.13C507.82,591.66,507.48,590.55,507.48,590.56Z" transform="translate(-472.55 -468.81)"/><path class="cls-28" d="M532.56,583.39l0.68-.16A5.64,5.64,0,0,0,532.56,583.39Z" transform="translate(-472.55 -468.81)"/><path class="cls-28" d="M533.24,583.23a2.56,2.56,0,0,0,.36-0.09Z" transform="translate(-472.55 -468.81)"/><path class="cls-28" d="M597.92,540.18c-0.08-.12-0.17-0.24-0.26-0.36A3.56,3.56,0,0,0,597.92,540.18Z" transform="translate(-472.55 -468.81)"/><path class="cls-28" d="M598.9,552.46c0-.14,0-0.29,0-0.44C598.88,552.16,598.89,552.31,598.9,552.46Z" transform="translate(-472.55 -468.81)"/><path class="cls-8" d="M484.65,549.77a2.39,2.39,0,0,0,0-.42Z" transform="translate(-472.55 -468.81)"/><path class="cls-8" d="M597.92,540.18a3.56,3.56,0,0,1-.26-0.36c0.14,0.18,2.08,2,1.94,1.39a18.06,18.06,0,0,0-2.67-4.32,1.08,1.08,0,1,0,1.57-1.5c-2-2.44-6.54-2.31-7.19-2.88A6.34,6.34,0,0,1,595,536q-1,.47-1.9-0.8c2.5,2.14,5,7.26,5.52,10.62q-1.59.05-1.66-2.12c1.35,2.27.59,8.68,0.48,8.4,0-.76-3.16,10.32-3.16,6.89-0.63,2-3.08,5-4.31,6.64q-1.42.11-.38-1.73a10.44,10.44,0,0,1-4.39,4.26c1-.59,4.85-7.23,4.85-3.59,0.47-.81,1.39-3.38,1.09-3.93,2,4,3-1.68,3.35-4.28,0,0,.24,2,0.25,2.18,2-3.43.22-5.55,0.55-9-0.18,1.33,1.06,4.11,1,5.67,0.39-.74,1.13-5.28.8-5.82,0-.12,5.92,19.28.64,1.7,0.22-1.41-3.74-11.84-.14-4.47,0-.14-2.3-5.78.08-2.35-0.62-1.81-9.95-13-1.78-4,0-.89-2.37-5.37-3.46-5.61q1.19,0.45,2.33,1c0.86-.38-6-3.28-3.39-3.83a13.15,13.15,0,0,1-4-3.75q1.42-1.34,2.77,2.41c-1-2.25-7.86-8.86-3.79-7a34,34,0,0,0-5.7-4.83q1.84,3.44,4.09,2.48c0.91,1.24-4.51-4.23-3.87-4.23,0,0-6-5.3-2.71-3.73-1.32-1.52-4.53-7.7-1.31-2.53l-2-5.11q0.4-.2.48,0.31c-3-7.61-2.71-4.16-.43-3.8a13,13,0,0,0-2.18-2.92q0.34-1.18,1.49.47c-0.88-2.33-6.58-6.39-1-3.82-0.67-1.6-9.2-5.45-2.48-2.68-0.88-1-5-2.67-5.28-3.6-0.13-.43,1.85.24,1.94,0.27-3.84-2.9-.71-0.91-4.15-0.14,1.67,0.53,7.66,4.17,3.7,4.93,1.78,0.34,5.91,4,5.81,6.17a4.88,4.88,0,0,1-2.12-1.5c0.93,0.58,4.07,6.88,3.89,8.19,0-.08-1.79-1.47-1.75-1.59-0.07.25,4.76,9.11,4.42,9.18-0.15,0-2.1-1.79-2.29-1.32-0.64,1.65,9.33,7.31,4.62,6.72-1.25-1,7.4,4.93,3.55,4,1.29,1,4.77,3.31.9,3.31,0.68,0.51,8.78,7.52,2.28,5.21,0.67,0.67,7.21,5.11,2.74,4.14,0.7,0.19,5.78,3.26,1,2.37a28.74,28.74,0,0,1,4.19,3.92q-1.1,1.85-3.38-.83c1.34,1.12,5.6,6.59.17,2.61,0.25,0.39,3.43,5.93,2.22,7.16a3.88,3.88,0,0,1-2.22-3.42c0.43,2.08.53,11-2.77,4.23,0,0.68-.6,9.76-1.94,5.37-0.49,2.15-2.42,4.81-3.59,1.14-0.4,2-4.07,8.27-6.18,3.58,0.09-1-2.45,6.71-2.59,5.37a6.51,6.51,0,0,0-.43-2.74c2.34,0.4-15,14.34-13.25,7.29-0.49.82-7.21,8.05-6.18,2.11-0.61.82-6.09,6-4.23,1.3-0.44.58-4.2,3.29-3.25,0.16,0,0-5,5-6.35,3.25-0.21-.29,2.13-2.93,2.2-2.9-2.19-.78-11.51,4-15.7,3.42a60.24,60.24,0,0,1-10.75-2.21c-4.38-1.45-7.91-1.49-11.54-5.49,0,0,.65,1.69.09,1.67-1.21,0-4.16-5.08-4.14-5.05,0,5.88-3.83-5.81-3.66-5.13,0,0-.13,2.47-0.92,2.07-1.51-.76-3.17-5.94-3.47-6.71a2,2,0,0,1-1.35,2.5,6.42,6.42,0,0,1-1.9-4.78c0,0.09-.2,2.14-0.73,2-1-.21-1.69-6.77-1.6-6.17q-0.3,1.78-1.71,1.49a9.87,9.87,0,0,1-.31-4.88c-0.68,4.25-2-4-2-4.23-2.16,4.33-.09-5.7-0.32-5-1.29,1.27-1.35,3.56-2.75,4.78-0.77.66-.74-4.19-0.78-3.78,0.29-3.07,3-5.84,5-7.79a3,3,0,0,1-1.85.77,3.34,3.34,0,0,1,1.51-3.58c-3.51,1.41,5.44-6.87,5-6.46a3.06,3.06,0,0,1-2.1.74c-1.22-.38,6.05-5.67,5.41-5.22a4.92,4.92,0,0,1-2.8.5q0.51-2.19,3.3-2.48a5.23,5.23,0,0,1-2.3.47c-0.48-.14,7.56-4.77,6.94-4.45-3.37.57,2-2.7,1.16-2.32a2.22,2.22,0,0,1-1.81.11c-0.3-.84,6.13-4.05,5.27-3.59a7.22,7.22,0,0,1-2.27.56,10.87,10.87,0,0,1,2.44-4c-2.78,2.78,3.38-5.55,3-5.14-3.66,2.6,1.91-3.43.83-2.48-3.38,1.53,0-2.29.32-3-2.4,1.61-.37-2.17-0.28-2.3a8.84,8.84,0,0,0-3.89,4.07q1.31-1.54,1.54-.32a12.42,12.42,0,0,0-2.47,2.69c2.29-.07,3-3.67-0.82,3.75q0.14-.5.52-0.26l-2.5,4.89c3.76-4.8-.08,1-1.57,2.38,3.48-1.21-3.07,3.44-3.06,3.43,0.68,0-5.38,5.05-4.27,3.82q2.11,1.24,4.32-2.06a33.06,33.06,0,0,0-6.16,4.23c3.84-1.39-3.33,4.53-4.49,6.54q1.77-3.63,3-2.12a13.12,13.12,0,0,1-4.41,3.32c2.58,0.75-4.54,3-3.75,3.47q1.2-.42,2.42-0.76c-1.12.14-3.93,4.34-4,5.23,8-7.19-1,1.36-2.17,3.84,2.71-3.06-.13,2-0.16,2.35,4.36-6.92-.67,3-0.59,4.42-1.53,3.63.56-1.26,0.8-1.63-0.38.54-.1,5.07,0.22,5.87,0.07-1.71,1.52-4.07,1.52-5.55,0,3.44-2,5.36-.35,9,0-.21.47-2.07,0.47-2.14,0.07,2.46,2.27,9.61,5.16,5.7-2.36,2.62-2.26.7-4.07,4.3,4.28-2.87-1.36,4.75.53,4.49a10,10,0,0,0,3.37-3.53,11,11,0,0,0-.24,3.17q1.84,1.25,2.69-2a7.53,7.53,0,0,0,1.18,4.42q2.2-.58,1.73-3.44c2.11,5.69,3,5.19,6.47,7.44,1.15,0.75,6.38,7.83,4,1.83,3.08,3.59,7.29,5.13,10,6.68,2.32,1.35,12.16,4.81,10.54,2.83a28.89,28.89,0,0,0,16.48.86c-3.86,1.9,7.36,1.08,8.54,1,5-.28,18-1.45,23.92-6.26-1.22,2.73,6.83-3.85,5.85-3.05-0.57,1.94,6.48-3.84,8.17-5-1.79,6.27,5.61-.2,6.59-1.22a3.07,3.07,0,0,0-.19,2.44c1.06,1.26,5.52-5.35,4.84-4.4a2.85,2.85,0,0,0-.07,1.84c0.73,0.81,4.33-6.72,3.48-5a2.45,2.45,0,0,0,.16,1.76c0.85,0.3,3.26-8.24,2.77-6.64,0-.05.57,2,1.05,1.13,1.08-2,.17-5.75.17-7.72,0,0.24.44,2.76,1.1,2.13,1.09-1,.39-6.87.36-7.26,0.09,0.27,1.56,2.51,2,1.6,0.93-1.78-3.84-7.45-4.46-8.32C597.81,540.06,605.85,551.24,597.92,540.18Z" transform="translate(-472.55 -468.81)"/><path class="cls-8" d="M588.93,537l-0.3-.07Z" transform="translate(-472.55 -468.81)"/><path class="cls-11" d="M566.52,505.86c0.07,0.06,3.22,2.88,3.22,2.07,0-1.68-3.28-4-4.51-4.9,0.89,0.58,2.74,2.22,3.87,2.07s-5.19-5.18-6.19-5.55c3.09,0.38,3-.57,0-2.2a3.28,3.28,0,0,0,2.28.19,4.11,4.11,0,0,0-3.32-2.13,5.29,5.29,0,0,0,2.61-.85c1.29-1.35-7.2-2.73-5.32-2.37-0.43-1.12,4.4-.88-1.68-2.07a4,4,0,0,0,2.49-.73q-1-1.78-3.52-1.21a3.6,3.6,0,0,0,1.89-.82,4.58,4.58,0,0,0-4.21-1.12,3.64,3.64,0,0,0,1.36-1.87q-1.81-.92-3.56.84c0.13-2.17-2.62-4.27-3-.13-0.44-1.62-2-4.27-2.32-.38-0.29-1.57-1.29-3.51-2.06-.65,0.09-2.73-4.37-1-5.29,0,0.35-2.75-1.77-1.79-3.23-.38,0.74-2.22.41-3.89-1.93-1,2.08-4.56-3-.36-3.48.51-1.95-3.88-5.23-1-4.65-.51a5,5,0,0,0-4.42-.78c0.17-.36-0.7,2.27-0.23,2.58-2.1-.23-6.26-1.26-2.2.77-1.87.06-6.41-.32-1.68,1.16-0.78,0-6.43,1.55-2.07,1.55a9.18,9.18,0,0,0-3.8,1,2.35,2.35,0,0,0,1.61.37c-6.84,2.05-1.94,1.27-4.28,4.37a26.13,26.13,0,0,0,2.74-.76,4.41,4.41,0,0,0-3.22,3.06,3.14,3.14,0,0,0,3.36.16,3.6,3.6,0,0,0-3.06,2.34,6,6,0,0,0,2.16-.66,14.57,14.57,0,0,0-4.05,4c-0.2.91,4.39-1.33,3.79-1a8,8,0,0,0-3.15,2.26c0.27,0.33,1.8-.56,2.12-0.59-0.9,1.26-5.53,3.93-.12,3.23q-2.36-.19-2.49,1.48a10.23,10.23,0,0,0,2.36.32c-0.9.06-6.44,0.26-7.41,1.77-0.85,1.33,5.29,1.17,4.31,1.19-1.28.19-6.58,1.16-1.43,1.16-4.43,1.43.85,1.29,2.06,0.64-3.25,4.4,3.19,0,3.36-.13q-1.55,2.41.42,3.18c1.69-.53,3.54-3.11,4.61-4.34-4.39,5.73,4-.52,3.88-0.38-1.41,3,5.83-.38,6.45-0.65-2.92,3.38,5.68-.26,6.59-1.42,0.2,2.76,3.25,3.06,3,.38,0.48,0.85,6.25,7.48,4.26,1.68q0.1,3,2,2.76Q541.2,512.2,541,511a4.17,4.17,0,0,0,3.47,3.07,1.3,1.3,0,0,0,.28-2.16c1,1.19,7.09,4.21,3.73-.13,1.59,2.68,2.25-.92,1.81-1.81-0.15-.21,5.9,3.77,4.51.39a3.72,3.72,0,0,0,2.65,3.28c0.76-.64.2-3.4-0.19-4q0.27,2.22,2,2.45c0.3-.92-0.32-2.18-0.44-3.1,2.08,3.6,4.13,2.28,3.48-1q0.77,2.36,2.74,2.3c0.27-.87-0.51-2.4-0.81-3.21q1.21,3.36,3.39,2.09A5,5,0,0,0,566.52,505.86Z" transform="translate(-472.55 -468.81)"/><g class="cls-27"><path class="cls-7" d="M518.26,488.58c-2.09.85-6.52,2.33-6.63,5.28,0,0,6.34-5.17,6.63-5.28h0Z" transform="translate(-472.55 -468.81)"/><path class="cls-7" d="M514.14,493.31q-2.61.87-1.49,1.94,2.14-.68,1.49-1.94C513.5,493.76,514.38,493.15,514.14,493.31Z" transform="translate(-472.55 -468.81)"/><path class="cls-7" d="M513.11,497.63a6.81,6.81,0,0,0-1.28,2.12c0,0.74,1.61-2.54,1.28-2.12h0Z" transform="translate(-472.55 -468.81)"/><path class="cls-7" d="M514.73,501.6l-1.2,1.48c0,1,1.74-2,1.2-1.48S515,501.33,514.73,501.6Z" transform="translate(-472.55 -468.81)"/></g><g class="cls-27"><path class="cls-7" d="M484.12,577.89c-0.32.52-3.42,9.59-1.71,8.35,0.16-.12,1.54-8.06,1.71-8.35C482.9,579.89,484.27,577.65,484.12,577.89Z" transform="translate(-472.55 -468.81)"/><path class="cls-7" d="M483.63,584.14q-1.57,2.26,0,2.44,1.29-1.8,0-2.44C483.38,584.89,483.73,583.87,483.63,584.14Z" transform="translate(-472.55 -468.81)"/><path class="cls-7" d="M485.37,588.22a6,6,0,0,0,.23,2.47c0.36,0.6-.23-3-0.23-2.47S485.37,587.9,485.37,588.22Z" transform="translate(-472.55 -468.81)"/><path class="cls-7" d="M489,590.44l-0.08,1.91c0.51,0.81.21-2.67,0.08-1.91C488.95,591,489.09,590.08,489,590.44Z" transform="translate(-472.55 -468.81)"/></g><path class="cls-11" d="M504.2,541.82c1.63,0.33,2-4.91.65-7,0.84,0.93,2.12-.32-0.89-2.29,3.1,1-1.81-3.29-4.33-3.18,3,0-1.31-1.66-2.05-1.73-3.43-.36-7.4.11-10.25,2.25-1.33,1-3.69,5.55-2.21,5,1.47-1.87-4,6.27-.77,3.31-0.23.4-1.25,4.59,0.9,2.17-0.18.62-.94,6.86,0.57,6.67a3,3,0,0,0,1.72-1.83,3.76,3.76,0,0,0,.57,4.22c0.89,0.06,2.13-1.88,2.36-2.56,0-.06,3.21,4.4,1.75,3.52q2.53-.35,2.53-3.21c0.26,2.91,2.52-2.42,2.41-2.11,0,0.69,6.09-4.55,7-3.21C505.7,542.12,505.2,543.23,504.2,541.82Z" transform="translate(-472.55 -468.81)"/><path class="cls-12" d="M520.65,574.67c5.9,5.62,14.26,4.51,20.49,0C533.44,581,528.08,580.55,520.65,574.67Z" transform="translate(-472.55 -468.81)"/><path class="cls-11" d="M549,532.79c1.3-.7,8.62-4.41,7.66-2.07,2.33-2.22,5.6-2.08,8.82-1.75-1-.1,8.15,1.3,5.18,2.2,1.91,0.06,7.7,2.63,7.34,5a1.12,1.12,0,0,1-1.73.61,3.09,3.09,0,0,1,2.41,3,2.52,2.52,0,0,1-2.56-.33c0.09,0.87,2.44,5.45-.74,3.24q2,1.67,1.24,3.67a3.37,3.37,0,0,1-2-1.31c-0.4.76,0.23,4.65-2.21,2.21q2.09,2.44,0,3.52a4.56,4.56,0,0,1-2.53-2.34q1.78,2,.11,3.23a4.06,4.06,0,0,1-2.32-1.75c0.48,4-2.85-1-3-1.62-0.64,3.2-2,.77-2.35-0.74-0.93,4-2.8-2.59-2.81-2.65-0.48,3.52-2.59-1-2.65-1.63-0.4,3.13-2.57-1.19-2.65-1.47-0.29.93-3.42,0.47-3.77,0.32a5.05,5.05,0,0,1,.37-3.12C548.11,541.65,547.73,534.76,549,532.79Z" transform="translate(-472.55 -468.81)"/><path class="cls-8" d="M610.2,522.88c0.74,0.62,4.79,3.93,1.19,2.38a8.06,8.06,0,0,1,2.27,5.15q-1.81.94-3.26-1c0.34,0.44,6.27,11.44,1.6,7.75,0.32,0.6,4.17,11.27-.6,7.35,0.31,0.67,1.83,7.08-.4,5.17,0.44,1,3.37,9.32-1.19,6.36,0.13,0.19,3.43,5.9,5,5.62,1.3-.23,1.13-5.21,1.14-5.42,1.36-.07,2.08-10.28,1.39-13.71,4.18,5.72.68-4.62,0.4-5.76,3.11,3.1,0-5.23.2-4.57,1.69,2.14,0-3.18-.35-3.72C616.14,525.92,613.76,522.23,610.2,522.88Z" transform="translate(-472.55 -468.81)"/><path class="cls-8" d="M636.29,498.87c3.92,2.12,3,2.47,5,6,0.64,1.15.55,3.42-.2,2-0.11-.2,4.35,5.79,4.31,6C645.88,510.66,643.74,494.16,636.29,498.87Z" transform="translate(-472.55 -468.81)"/><path class="cls-28" d="M524.86,603.33h0S524.84,603.25,524.86,603.33Z" transform="translate(-472.55 -468.81)"/><path class="cls-28" d="M501.32,631.12c1.84,2,.07-0.79,0,0C501.58,631.39,501.34,631,501.32,631.12Z" transform="translate(-472.55 -468.81)"/><path class="cls-28" d="M526.34,603.34c0.35,0.84.09,0,0,0S526.39,603.32,526.34,603.34Z" transform="translate(-472.55 -468.81)"/><path class="cls-28" d="M602.65,582c0.15,0.37-.09-0.23,0,0h0Z" transform="translate(-472.55 -468.81)"/><path class="cls-28" d="M544,605.94c0.16-.57,0-0.08,0,0C544,605.85,544,605.93,544,605.94Z" transform="translate(-472.55 -468.81)"/><path class="cls-28" d="M524.54,604.54c-0.38-.64-0.85-1.44-1.34-2.4A5.07,5.07,0,0,0,524.54,604.54Z" transform="translate(-472.55 -468.81)"/><path class="cls-28" d="M605.23,577.71v-1.85c0.18-3.58-1,2.89,0,1.85C605.22,577.14,605.14,577.8,605.23,577.71Z" transform="translate(-472.55 -468.81)"/><path class="cls-8" d="M601.48,579.76c0,1-1.46,11-1.46,4.39-0.14,1.65-1.84,8.76-2.45,3.09-0.25,1.61-2.76,10.5-2.76,4.39,0,1.75-2.37,10.51-2.6,7.48,0.17,1.89-1.94,7.93-1.94,2,0,2.37-2.95,10.86-3.59,3.91-0.34,2-6.58,13.79-6.75,7.16a10.1,10.1,0,0,1-1.7,4.17q-1.86.13-1.07-2.54c-0.17,1.33-.85,4.38-2.06,5.28q-2-.48-1.2-3.17c-0.49,1.54-2.16,7.21-2.44,1.79-0.53,1.62-2.07,6-3.8,6.83q-1.31-.69-0.49-2.43c-1.14,8.53-4.29,5.24-3.6-2.28-0.7,2.68-8.45,10.52-7,3.91-0.61.76-2.37,3.53-3.64,3a4.54,4.54,0,0,1-.11-4.5c-3.38,4.13-2.43-3.59-2.11-4.56a3.5,3.5,0,0,1-2.75,2.45,17.85,17.85,0,0,1,1-4.94,1.56,1.56,0,0,1-2,.82,5,5,0,0,1,1-4.81,4.48,4.48,0,0,1-1.72.88q-1.18-1.85.93-3.73c-1.29,1.75-3,3.4-3.1-.26-0.84,3.54-.47,7.25-0.37,10.84q-0.12-4.42,2.32-4.09a20.9,20.9,0,0,0-2.44,8.26c0.88-1.41-.2,8.7.06,11q-0.76-3.21,1.08-3.45a12.55,12.55,0,0,0-.43,5.43c1.54-5.43,1.43,3.07,2.23,4.7q-0.76-1.59.29-2c0.5,2-.41,7.29,2.83,2.32a2.33,2.33,0,0,0-1,2.35c1.67,0.15,5.26-1.18,6.27-2.77a35.42,35.42,0,0,0-3.47,4.23,4.18,4.18,0,0,1,3.3-.61,24.4,24.4,0,0,1-2.19,1.57c0.62-.77,5.3-0.07,6.63-1.83a6.52,6.52,0,0,1-2.09,1.79c3.17,0.34,6.68-1.75,8.57-4a26.14,26.14,0,0,1-3.83,3.55c3.23,0,6-1.89,9.07-2.51q0,1.38-1.88,1.54c2.53,0,9.17-1.66,9.65-4.42-0.8,4.52,1.24,1,3.33-1.54,1.12-1.37,5.34-10.35,4.61-5.41,1.54-3.31,1.12-6.65,1.78-2.94,0.52-1.67,3.37-7.67,3.27-9.33q-0.59,1.62.44,1.31c0.48-1,.78-5.94,1.13-3.16,0.57-.81,1.74-9.56,1.74-4.05a29.68,29.68,0,0,0,1.5-8.39q1-.55.68,1.32c-1.15,3.91.37-8.87,1.27-4.1,0.6-2.09.72-12.09,1.27-3.76,0-1.46.77-12.66,1.36-5.88,0.64-2.05,1.48-6.32.92-2.63a10.73,10.73,0,0,0,.26-4.4q1-.72.73,1.28c0.95-3.89-1.14-5.43-1.4-8.59C601.48,584,601.63,581.45,601.48,579.76Z" transform="translate(-472.55 -468.81)"/><path class="cls-8" d="M602.89,582l0.8,2.47a20.74,20.74,0,0,0,.1-6.94,6.87,6.87,0,0,1-.9,4.47C603.31,582.77,603.38,581.55,602.89,582Z" transform="translate(-472.55 -468.81)"/><path class="cls-8" d="M567.18,622.06c0-.17,0-0.34.06-0.49C567.21,621.74,567.2,621.91,567.18,622.06Z" transform="translate(-472.55 -468.81)"/><path class="cls-8" d="M646.05,573.06q-0.68,1.4-1.22,2.55C645,575.74,645.37,574.52,646.05,573.06Z" transform="translate(-472.55 -468.81)"/><path class="cls-8" d="M608.46,594.91a4.18,4.18,0,0,0,.18-0.42Z" transform="translate(-472.55 -468.81)"/><path class="cls-8" d="M646.69,629.86l-1,1.38c-2.1,1.14-.66-6.73-0.91-5.49a1.19,1.19,0,0,1-1.43,1.17,6.57,6.57,0,0,1-.28-4.66,1.26,1.26,0,0,1-1,1.62c-1.33-1.09-.47-7.15-0.41-7.75-2.07,8.29-2.7-5.77-2.52-7.26-0.41.6-1.2,2.71-2.07,2.8a4.43,4.43,0,0,1-.13-4.37,2.64,2.64,0,0,1-1.81,2.35c-3-.41,2.15-8.94,2.28-9.13a1.44,1.44,0,0,1-1.48,1c-1.47-2,5.43-11.59,6.05-12.54q-0.85,1.53-1.93.66c-0.55-2.11,2.68-7.22,3.35-8.39-1.38,1.84,1.22-6.35,1.1-7.74-0.24.85-3.48,7.69-3.16,3.47-1.77,4.3-3.62,6.1-6.91,9.76,0.78-.86-6.26,6.56-5.56,3.33-0.7,1.71-7.86,8.28-8.37,3.47-0.35,1.16-1.56,3.65-2.8,4.19q-1.85-.66-0.75-3c-0.44,1.35-2.69,4.64-4.24,4.79q-1.67-1.44-.39-3.81c-1.78,5.72-7,7-3.84-.8a1.91,1.91,0,0,1-1.15,1.28c-1.73,0,1.15-9,1.09-8.78-0.24.35-2,3.07-2.63,2.28-1-1.23,1.11-7.67,1.17-7.9s-1.13,2.65-1.36,2.46c-0.7-.6-0.34-6.88-0.34-6.54a0.24,0.24,0,0,1-.29.06c-0.66,3.91-4.6,14.51-4.31,16.94-0.4,3.44-.93,7.9-2.63,10.63q0-.73,0-1.46c0-1.9-.47,7.26-1.36,3.73-0.4,8.58.11,3.13,5.17,2.89q0.61,1.08-1.33,1.4c2.78-.85,5.36-4.23,7.74-4.87a16.71,16.71,0,0,0-1.81,2.38c0.61,0,5-1.28,5.34-1.76q-0.61.62-1.27,1.19c1.33-.47,7.4-4,2.13-0.66,1.12,0,10.22-4.84,5.65-1.23,1.08-.54,8-6.32,4-1.88,2.55-2,5.41-5.24,6.12-7.49-1.75,4.51-5.36,5.21-3.48,10.44q-0.34-1.19.6-1.22a10.68,10.68,0,0,0,.78,5.8q-0.89-2.13.54-2.5a23.92,23.92,0,0,0,2.71,11.35q-1.58-4,.67-4.22a16.08,16.08,0,0,0,.67,8q-0.78-1.72.61-1.92a14.8,14.8,0,0,0,3,7.8q-0.95-1.38-.06-1.79a8.12,8.12,0,0,1,.19,5.68q0.58-2,2.07-1.91c0-.45-0.92,2.78-1.22,2.77a12.57,12.57,0,0,0,8.39-3q-0.48,1.39-1.06,2.74c2-.15,2.84-1.49,4.33-2.51,0.65-.64-2.5,3.05-1.3,2.81,3.91-.79,5.69,1,5.14-5.41-1.07,3.19-3.84,2.88-4.26-.63C645.43,632.87,647.31,635.07,646.69,629.86Z" transform="translate(-472.55 -468.81)"/><path class="cls-8" d="M643.08,622.27c0-.28.1-0.58,0.13-0.93C643.16,621.67,643.11,622,643.08,622.27Z" transform="translate(-472.55 -468.81)"/><path class="cls-8" d="M604.83,577.63c0.15,0.72.11,0.13,0,0C604.86,577.74,604.87,577.67,604.83,577.63Z" transform="translate(-472.55 -468.81)"/><path class="cls-8" d="M524.95,603.7c-0.08-.32-0.61-0.78,0,0C524.92,603.6,524.84,603.56,524.95,603.7Z" transform="translate(-472.55 -468.81)"/><path class="cls-8" d="M543.11,606.4a5.85,5.85,0,0,1-2.06,2.75,5.25,5.25,0,0,1-1.13-4c0,2.12-.75,6.08-3,2.05,0.34,4.58-4.61-3.71-4.21-3,0.87,3.9-3-1.32-2.84-1,0.14,3.54-1.18,2-2.05-.34,0,3.2-4.67-1.52.44,4.32-1-2.5,2.81,1.89,2.92,1.93-3.36-5.82,1.79.74,2.76,1.31-1.37-3.06,1.59.92,1.55,0.9-0.77-2.39,3,1.93,3.72,2.26-2.78-3.69,1.35.42,2.27,0.8q-1.9-1.8-.64-2.33a4.74,4.74,0,0,0,1.75,2.65c0.18-4.19.76-4.68,1.38-8.78a7,7,0,0,1-1.2,2.54l0.31-2.08C541.18,609.71,542.14,610.6,543.11,606.4Z" transform="translate(-472.55 -468.81)"/><path class="cls-8" d="M525.19,603.38l1.33,2c0.8,2.4-2.09-10.51-1.07-5.24a4.43,4.43,0,0,1-.26,3.24C525.63,604.09,525.85,603.11,525.19,603.38Z" transform="translate(-472.55 -468.81)"/><path class="cls-8" d="M501.35,632.06c-0.17-2.23-.14-0.25,0,0C501.32,631.76,501.31,632,501.35,632.06Z" transform="translate(-472.55 -468.81)"/><path class="cls-8" d="M525.44,625.77c-0.1-.23-0.22-0.46-0.34-0.68C525.22,625.36,525.34,625.59,525.44,625.77Z" transform="translate(-472.55 -468.81)"/><path class="cls-8" d="M524,606.29c0.7,0.53,5.64,4.41,5.25,6.26a3.41,3.41,0,0,1-3.65-1.82c1.43,2.73.14,5,.23,6.46,0-.15,1.53,4.63,1.27,5.63q-1.48.51-2.29-1.27c1.26,2.32,1.08,14-1.37,8.43-0.16,5.31-3.71,1.26-4.79-.8-0.1,3.39-.81,5.11-3.88,2.05,0.53,1.69-.82,7.07-2.27,2q1,2.4-1,3.47c-0.87-.43-3.66-1.88-3.95-3.81,0,5.74-3.25-3.21-3.3-3.76q0.59,3.69-2.25,2.6a11.66,11.66,0,0,0,2.7,4.09q-1-1.82.12-2c-0.16,2,1.26,4.16,2.42,5.59q-0.92-1.41.14-1.87c0.1,0.19,3.77,4.24,3.82,4.34q-1.31-.81-0.41-1.34a27,27,0,0,0,7.19,4.78c-0.42-2.39.83,0.51,0.67,1.73q0.48-2,1.87-1.92a3.4,3.4,0,0,1-.8,2c1.76,0.63,6.88-1.22,6.59-3.51a5.34,5.34,0,0,1-1.08,4.32c1.62-.37,6.34-3.95,5.51-5.59a13.38,13.38,0,0,1,.79,3.08,3.28,3.28,0,0,0,.16-4q0.7-.79,1.27.62c-0.69-4.3-1.14-14.84.2-12,0.16-2.88,0-6.85,0-9.25a5.93,5.93,0,0,0-.52-3.11q0.82-.82,1.24,1.1c0-1-4.26-8.52-.44-3.12,2-5.06-6.28-8.73-8.89-11.12q2.34,2.59-.58,1.75C529.54,610.5,526.1,607,524,606.29Z" transform="translate(-472.55 -468.81)"/><path class="cls-11" d="M478.26,568.08c-0.93,1.93-2,11.61.08,8.69-0.11.57,1.07,6.66,2.28,3.39,0,0.17.12,11.14,2,5.35,0.08-.56-1.31,7-0.24,7.67a1.83,1.83,0,0,0,1.25-1.37c-0.22,1.8,1.76,12.15,3.18,6.55,0.21,3.53,2.44,1.58,3-.31,0,0.61,2.22,10.72,2.57,6.73a10,10,0,0,0,.67,4.87c0.68,0.9,1.51-1,1.59-1.28q-0.55,2.61,1.6,2.79a3.86,3.86,0,0,0,1.77-3.09c-0.15,1.94,2.42,10.74,3.19,5.38,0.37,0.29,2.07,4.44,2.53,1.25,0-.57.3,6.16,1.85,5.93a1.74,1.74,0,0,0,.8-1.75q-0.89,3,1.47,3.13a4.44,4.44,0,0,0,.93-4.23c2.59,4.82,1.86-4.33.95-5.85,4.36,2-.57-3.29-1.27-4,3.94,1.87-1.06-3.66-2.45-4.18,0.43-.07,1.68.45,1.84-0.37a6.06,6.06,0,0,0-2.72-3.57c3.27,0.91-3.89-5.58-3.84-5.52-2.93-3.71-3.59-7-4.69-11.5-0.66,4.93-2.65-4.37-2.7-5-1.92,2-6.84-4.41-7.5-6.87-0.7,4.75-2.23-.39-2.51-1.83-1,4.31-2.49,1.46-2.16-.65q-1.07,2.7-3.26,1.9Z" transform="translate(-472.55 -468.81)"/><path class="cls-11" d="M552.4,585.83c-0.55.61-6.43,6.61-4.5,1.71-0.64,1.05-5.19,6.3-4.8,1,0,0-3.65,6.56-3.3,2.09-0.74,2.09-3.59,6.09-3.45.76-0.4,1.26-1.41,3.8-2.67,4.49q-2.09-.29-1.38-3c-1.48,4.55-3.88,3.31-4.5-1.14-0.28,1.49-1.61,4.53-2.24.95,0,6.11-3.37,2.78-4.36-1.33,0,3.13-1.33,5-3,.38a1.91,1.91,0,0,1-.58,1.83c-1.52.67-3.64-5.73-3.47-5.26,0.4,2.92-1.7,2.69-2.84.19,1.1,5.33-3.41,1.82-3.76-1.72-0.5,5.11-5.89-6.47-3-7.57A5.86,5.86,0,0,1,506,582.6c1.39-.53.6-3.37,2.7,0.95,0.51-2,10.32,2.74,12.75,3.23a1.76,1.76,0,0,1-1.26-2c2.69-1.75,14.27,1.59,13.87,1.86,0.41-.16,7.71-3.16,5.1.57,1.3-.7,13-4.12,13.73-3.22a2.17,2.17,0,0,1-.53,1.89C549.85,588.69,553.6,583.74,552.4,585.83Z" transform="translate(-472.55 -468.81)"/><path class="cls-11" d="M561.09,589.34c0.61-1,5.61-8.12,6-5-0.11.16,4.6-7.82,5.07-3.85,0.1-.82,2.64-6.73,3.19-2.48,1.42-2.47,5-6.64,5-.8-0.16.26,3.16-5.88,4.5-5.67,0.93,0.15.14,3.09,0,3.58-0.17.21,4-5.2,5.29-4.61,0.72,0.32.13,2.34,0,2.72,0.35-.79,4.27-6.21,4.53-3a3,3,0,0,1,1.7-2.73c2.56,1.78-1.92,10.15-2.06,9.94a5.73,5.73,0,0,1-.46-2.18c-0.18,1-2.26,7.72-2.39,3.55-0.53,1.52-6.29,9.36-4.15,2.51-0.36.73-3.77,6.29-3.6,1.41-1.27,2.92-7.71,14.29-6,4.3,0.6-2.39-1.41,6.35-2.3,5.29-0.56-.67-0.5-2.46-0.52-3.25-0.15.46-1.88,6.74-3.61,7.17-1.07.27-.89-2.51-0.87-2.69a10.57,10.57,0,0,1-3.28,4.22c-0.71,0,.24-4,0.22-3.9,0.89-1.65-3.25,6.3-4,4.94a7.54,7.54,0,0,1,.42-4C557.39,603,558.37,594,561.09,589.34Z" transform="translate(-472.55 -468.81)"/><g class="cls-6"><path class="cls-7" d="M587.71,614.17c0,1.4-2.83,13.86-3.87,11.54-0.64-1.44,3.92-9.55,3.87-11.54C587.79,617.52,587.7,613.77,587.71,614.17Z" transform="translate(-472.55 -468.81)"/><path class="cls-7" d="M583.85,622.24q0.35,3.88-1.7,3-0.32-3.17,1.7-3C583.62,623.35,583.92,621.83,583.85,622.24Z" transform="translate(-472.55 -468.81)"/><path class="cls-7" d="M578.78,626a9.47,9.47,0,0,1-2.05,2.89c-0.91.47,2.42-3.52,2.05-2.89S579,625.65,578.78,626Z" transform="translate(-472.55 -468.81)"/><path class="cls-7" d="M572.65,626.17a4,4,0,0,1-1.25,2.42c-1.23.62,1.65-3.4,1.25-2.42h0Z" transform="translate(-472.55 -468.81)"/></g><g class="cls-6"><path class="cls-7" d="M529.23,625.39c0.38,1.15,1.16,13.92-.36,12.16-1-1.17.94-10.3,0.36-12.16C530.28,628.57,529.11,625,529.23,625.39Z" transform="translate(-472.55 -468.81)"/><path class="cls-7" d="M527.88,634.23q1.46,3.62-.74,3.41-1.24-3,.74-3.41C528,635.36,527.83,633.82,527.88,634.23Z" transform="translate(-472.55 -468.81)"/><path class="cls-7" d="M524.12,639.34a9.59,9.59,0,0,1-1.12,3.36c-0.75.73,1.29-4.06,1.12-3.36S524.23,638.9,524.12,639.34Z" transform="translate(-472.55 -468.81)"/><path class="cls-7" d="M518.3,641.23a4,4,0,0,1-.5,2.68c-1,1,.6-3.73.5-2.68C518.21,642.09,518.34,640.71,518.3,641.23Z" transform="translate(-472.55 -468.81)"/></g><g class="cls-27"><path class="cls-7" d="M492,530.83c-2.09.85-6.52,2.33-6.63,5.28,0,0,6.34-5.16,6.63-5.28C489.82,531.72,492.25,530.73,492,530.83Z" transform="translate(-472.55 -468.81)"/><path class="cls-7" d="M487.88,535.56q-2.6.86-1.49,1.94,2.14-.68,1.49-1.94C487.23,536,488.12,535.4,487.88,535.56Z" transform="translate(-472.55 -468.81)"/><path class="cls-7" d="M486.85,539.87a6.81,6.81,0,0,0-1.28,2.12c0,0.75,1.6-2.53,1.28-2.12h0Z" transform="translate(-472.55 -468.81)"/><path class="cls-7" d="M488.47,543.85l-1.2,1.48c-0.09,1,1.75-2,1.2-1.48S488.73,543.59,488.47,543.85Z" transform="translate(-472.55 -468.81)"/></g><g class="cls-27"><path class="cls-7" d="M568.32,531.1c2.09,0.85,6.52,2.33,6.63,5.29,0,0-6.36-5.17-6.63-5.29C570.49,532,568.06,531,568.32,531.1Z" transform="translate(-472.55 -468.81)"/><path class="cls-7" d="M572.43,535.83q2.58,0.86,1.48,1.94-2.12-.69-1.48-1.94C573.08,536.28,572.18,535.67,572.43,535.83Z" transform="translate(-472.55 -468.81)"/><path class="cls-7" d="M573.47,540.14a6.8,6.8,0,0,1,1.28,2.12c0,0.74-1.61-2.54-1.28-2.12h0Z" transform="translate(-472.55 -468.81)"/><path class="cls-7" d="M571.83,544.12L573,545.6c0,1-1.71-2-1.21-1.48S571.58,543.85,571.83,544.12Z" transform="translate(-472.55 -468.81)"/></g><path class="cls-29" d="M500.24,554.93c0.37,1.2,4.49,7.86,5,7.37C502.63,564.85,499.58,553.08,500.24,554.93Z" transform="translate(-472.55 -468.81)"/><path class="cls-29" d="M559.16,556.55c-0.66,1.07-6.33,6.47-6.7,5.87C554.33,565.55,560.25,554.95,559.16,556.55Z" transform="translate(-472.55 -468.81)"/><path class="cls-30" d="M565.31,647.17s4.17-1.47,5.51.12S560.78,648.89,565.31,647.17Z" transform="translate(-472.55 -468.81)"/><path class="cls-30" d="M529.58,648.5a19.2,19.2,0,0,1,3.58-1,2.66,2.66,0,0,1-1.21,3.17C532.09,650.66,528.49,649.12,529.58,648.5Z" transform="translate(-472.55 -468.81)"/><path class="cls-30" d="M601.83,635.39a6.77,6.77,0,0,1,3.53-.83c1.31,0.52-.75,4-1.85,3.84C603,638.34,601.22,635.63,601.83,635.39Z" transform="translate(-472.55 -468.81)"/><path class="cls-11" d="M523.75,575.34c1.87,1.35,9.21.95,9.47,1.39C536.14,581.65,520.91,573.64,523.75,575.34Z" transform="translate(-472.55 -468.81)"/></g></g></svg>