<svg id="Layer_1" data-name="Layer 1" xmlns="http://www.w3.org/2000/svg" viewBox="0 0 607.21 691.96"><defs><style>.cls-1{fill:#393528;}.cls-2{fill:#747c81;}.cls-3{fill:#a8adb2;}.cls-4{fill:#c4cad0;}.cls-5{fill:#939ca6;}.cls-6{fill:#ebefeb;}</style></defs><title>anim_05</title><path class="cls-1" d="M-4491.63,4105.26a14.79,14.79,0,0,1-14.79-14.79,81.63,81.63,0,0,1,81.53-81.53,14.79,14.79,0,0,1,14.79,14.79,14.79,14.79,0,0,1-14.79,14.79,52,52,0,0,0-51.94,51.94A14.79,14.79,0,0,1-4491.63,4105.26Z" transform="translate(4506.43 -3528.5)"/><path class="cls-2" d="M-4003.87,3758.67c103.66-37.44,135.73-140.49,71.63-230.17C-4035.9,3565.93-4068,3669-4003.87,3758.67Z" transform="translate(4506.43 -3528.5)"/><path class="cls-3" d="M-4262.62,3758.67c-103.66-37.44-135.73-140.49-71.63-230.17C-4230.59,3565.93-4198.52,3669-4262.62,3758.67Z" transform="translate(4506.43 -3528.5)"/><rect class="cls-2" x="50.47" y="542.12" width="61.61" height="149.85"/><circle class="cls-2" cx="165.67" cy="541.74" r="115.2"/><path class="cls-4" d="M-4301.79,4156.35a115.28,115.28,0,0,0,2.07,21.45,115.13,115.13,0,0,0,74.36-107.61,115.58,115.58,0,0,0-2.07-21.45A115.13,115.13,0,0,0-4301.79,4156.35Z" transform="translate(4506.43 -3528.5)"/><path class="cls-4" d="M-4369.26,4140.6a115.2,115.2,0,0,1,115.2-115.2,114.51,114.51,0,0,1,50.91,12,115,115,0,0,0-94.3-49.16,115.2,115.2,0,0,0-115.2,115.2,115.09,115.09,0,0,0,64.29,103.22A114.57,114.57,0,0,1-4369.26,4140.6Z" transform="translate(4506.43 -3528.5)"/><circle class="cls-5" cx="368.12" cy="516.83" r="140.11"/><path class="cls-6" d="M-4175.72,4140.6a115.2,115.2,0,0,1,115.2-115.2,114.51,114.51,0,0,1,50.91,12,115,115,0,0,0-94.3-49.16,115.2,115.2,0,0,0-115.2,115.2,115.09,115.09,0,0,0,64.29,103.22A114.57,114.57,0,0,1-4175.72,4140.6Z" transform="translate(4506.43 -3528.5)"/><path class="cls-6" d="M-4106.24,4140.6a115.2,115.2,0,0,0-115.2-115.2,114.51,114.51,0,0,0-50.91,12,115,115,0,0,1,94.3-49.16,115.2,115.2,0,0,1,115.2,115.2,115.09,115.09,0,0,1-64.29,103.22A114.57,114.57,0,0,0-4106.24,4140.6Z" transform="translate(4506.43 -3528.5)"/><circle class="cls-3" cx="368.12" cy="357.05" r="213.05"/><path class="cls-2" d="M-4138.31,4098.59c-117.66,0-213-95.38-213-213s95.38-213,213-213" transform="translate(4506.43 -3528.5)"/><path class="cls-6" d="M-4339.92,3955.1a213.52,213.52,0,0,0,133.11,133.11A224.1,224.1,0,0,0-4339.92,3955.1Z" transform="translate(4506.43 -3528.5)"/><path class="cls-6" d="M-3928.14,3850a203.06,203.06,0,0,0-23.67-1.38c-85.92,1-146.6,40-186.57,100.53a223.2,223.2,0,0,0-186.57-100.53,225.09,225.09,0,0,0-23.34,1.35,214.27,214.27,0,0,0-3,35.36c0,5.14.25,10.22,0.6,15.28a213.09,213.09,0,0,1,179.86,126.93,224.4,224.4,0,0,0-4.45,44.52,224.78,224.78,0,0,0,1.34,23.28q10.06,1.7,20.41,2.43c5.05,0.36,10.13.6,15.28,0.6s10-.24,15-0.58q10.35-.72,20.41-2.4a225.09,225.09,0,0,0,1.35-23.34,224.4,224.4,0,0,0-4.45-44.52,213.09,213.09,0,0,1,180.19-127c0.36-5,.6-10.12.6-15.25A214.15,214.15,0,0,0-3928.14,3850Z" transform="translate(4506.43 -3528.5)"/><path class="cls-6" d="M-3951.12,3783.74a213.69,213.69,0,0,0-39.68-51.84,223.45,223.45,0,0,0-149.89,97.42,223.54,223.54,0,0,0-145.81-96.76,213.74,213.74,0,0,0-39.41,52,213.27,213.27,0,0,1,152.8,123.19,224.4,224.4,0,0,0-4.45,44.52,224.78,224.78,0,0,0,1.34,23.28q10.06,1.7,20.41,2.43c5.05,0.36,10.13.6,15.28,0.6s10-.24,15-0.58q10.35-.72,20.41-2.4a225.09,225.09,0,0,0,1.35-23.34,188.8,188.8,0,0,0-4.11-40.83C-4079.9,3847.5-4021.71,3796.46-3951.12,3783.74Z" transform="translate(4506.43 -3528.5)"/><path class="cls-4" d="M-4339.92,3955.1a213.52,213.52,0,0,0,133.11,133.11A224.1,224.1,0,0,0-4339.92,3955.1Z" transform="translate(4506.43 -3528.5)"/><path class="cls-4" d="M-4138.35,3949.15l0,0A223.2,223.2,0,0,0-4325,3848.66a224.66,224.66,0,0,0-23.34,1.35,214.4,214.4,0,0,0-3,35.36c0,5.14.25,10.23,0.6,15.28a213.09,213.09,0,0,1,179.86,126.94,224.46,224.46,0,0,0-4.45,44.52,225.17,225.17,0,0,0,1.34,23.28q10.06,1.7,20.41,2.43c5,0.36,10,.59,15.14.6V3949.15Z" transform="translate(4506.43 -3528.5)"/><path class="cls-4" d="M-4138.35,3826.14c-0.74,1.09-1.61,2.08-2.34,3.18a223.54,223.54,0,0,0-145.81-96.76,213.81,213.81,0,0,0-39.41,52,213.28,213.28,0,0,1,152.8,123.19,224.49,224.49,0,0,0-4.45,44.52,224.81,224.81,0,0,0,1.34,23.28q10.06,1.7,20.41,2.43c5.05,0.36,10.13.61,15.28,0.61,0.73,0,1.45-.08,2.18-0.08V3826.14Z" transform="translate(4506.43 -3528.5)"/><path class="cls-6" d="M-4073,4088.21a213.51,213.51,0,0,0,137.58-137.42A224,224,0,0,0-4073,4088.21Z" transform="translate(4506.43 -3528.5)"/><path class="cls-1" d="M-4140.53,4220.46a70.05,70.05,0,0,0-70.05-70.05,70.05,70.05,0,0,0-70.05,70.05h140.11Z" transform="translate(4506.43 -3528.5)"/><path class="cls-4" d="M-4269.37,4220.46a24.63,24.63,0,0,1,24.63-24.63,24.63,24.63,0,0,1,24.63,24.63h-49.26Z" transform="translate(4506.43 -3528.5)"/><path class="cls-4" d="M-4205.62,4220.46a24.63,24.63,0,0,1,24.63-24.63,24.63,24.63,0,0,1,24.63,24.63h-49.26Z" transform="translate(4506.43 -3528.5)"/><path class="cls-1" d="M-4454.87,4220.46a70.05,70.05,0,0,1,70.05-70.05,70.05,70.05,0,0,1,70.05,70.05h-140.11Z" transform="translate(4506.43 -3528.5)"/><path class="cls-4" d="M-4443.6,4220.46a24.63,24.63,0,0,1,24.63-24.63,24.63,24.63,0,0,1,24.63,24.63h-49.26Z" transform="translate(4506.43 -3528.5)"/><path class="cls-4" d="M-4379.85,4220.46a24.63,24.63,0,0,1,24.63-24.63,24.63,24.63,0,0,1,24.63,24.63h-49.26Z" transform="translate(4506.43 -3528.5)"/><path class="cls-1" d="M-4136.08,4220.46a70.05,70.05,0,0,1,70.05-70.05,70.05,70.05,0,0,1,70.05,70.05h-140.11Z" transform="translate(4506.43 -3528.5)"/><path class="cls-4" d="M-4075.56,4220.46a24.63,24.63,0,0,0-24.63-24.63,24.63,24.63,0,0,0-24.63,24.63h49.26Z" transform="translate(4506.43 -3528.5)"/><path class="cls-4" d="M-4011.81,4220.46a24.63,24.63,0,0,0-24.63-24.63,24.63,24.63,0,0,0-24.63,24.63h49.26Z" transform="translate(4506.43 -3528.5)"/><circle class="cls-1" cx="261.01" cy="337.32" r="21.74"/><circle class="cls-1" cx="475.23" cy="337.32" r="21.74"/><circle class="cls-1" cx="368.12" cy="499.66" r="107.11"/><path class="cls-4" d="M-4114.37,4008.63a30.09,30.09,0,0,1,30.09-30.09,30.09,30.09,0,0,1,30.09,30.09" transform="translate(4506.43 -3528.5)"/><path class="cls-4" d="M-4223.68,4008.63a30.09,30.09,0,0,1,30.09-30.09,30.09,30.09,0,0,1,30.09,30.09" transform="translate(4506.43 -3528.5)"/><path class="cls-1" d="M-4139.42,3758c63-46.42,64-123,2.23-171.07C-4200.16,3633.38-4201.15,3710-4139.42,3758Z" transform="translate(4506.43 -3528.5)"/></svg>