<svg id="Layer_1" data-name="Layer 1" xmlns="http://www.w3.org/2000/svg" viewBox="0 0 242.77 198.76"><defs><style>.cls-1{fill:#1d2e2f;}.cls-1,.cls-2,.cls-3,.cls-4{fill-rule:evenodd;}.cls-2{fill:#728788;}.cls-3{fill:#a0b3b4;}.cls-4{fill:#fff;}</style></defs><title>anim_67</title><g id="shape"><path class="cls-1" d="M1694.76,2917.63c-9.31-2-7.57-6.49-9.83-.65-1.68,4.34-1.23,11,10.22,13.51a13.48,13.48,0,0,0,7-.17c7.73-1.47,9.5-9.33,9.5-9.33s-2.65-.45-8.88-1.23C1700.55,2919.06,1697.84,2918.3,1694.76,2917.63Zm74.13-.65c-2.25-5.84-.52-1.38-9.83.65-3.08.67-5.79,1.43-8.05,2.14-6.23.78-8.88,1.23-8.88,1.23s1.77,7.85,9.5,9.33a13.48,13.48,0,0,0,7,.17C1770.12,2928,1770.57,2921.31,1768.89,2917Z" transform="translate(-1634.96 -2732.11)"/></g><g id="Elipsa_25" data-name="Elipsa 25"><path class="cls-2" d="M1802.9,2733.94c-17.45-7.39-40.88,8.58-49.67,29.36s0.41,38.48,17.86,45.88,36.55,1.68,45.33-19.1S1820.35,2741.34,1802.9,2733.94Z" transform="translate(-1634.96 -2732.11)"/></g><g id="Elipsa_25_kopiuj" data-name="Elipsa 25 kopiuj"><path class="cls-3" d="M1802.31,2743.93c-12.82-5.49-30,6.37-36.5,21.8s0.3,28.57,13.12,34.07,26.86,1.25,33.31-14.18S1815.13,2749.42,1802.31,2743.93Z" transform="translate(-1634.96 -2732.11)"/></g><g id="Elipsa_25_kopiuj_2" data-name="Elipsa 25 kopiuj 2"><path class="cls-2" d="M1702.43,2763.3c-8.78-20.78-32.22-36.75-49.67-29.36s-22.31,35.36-13.52,56.14,27.88,26.49,45.33,19.1S1711.21,2784.08,1702.43,2763.3Z" transform="translate(-1634.96 -2732.11)"/></g><g id="Elipsa_25_kopiuj_3" data-name="Elipsa 25 kopiuj 3"><path class="cls-3" d="M1689.85,2765.73c-6.45-15.43-23.67-27.29-36.5-21.8s-16.39,26.26-9.94,41.68,20.49,19.67,33.31,14.18S1696.31,2781.16,1689.85,2765.73Z" transform="translate(-1634.96 -2732.11)"/></g><g id="shape-2" data-name="shape"><path class="cls-3" d="M1876.05,2792.64l-0.86-1a28.08,28.08,0,0,0-2.72-2.79,34.89,34.89,0,0,0-12.69-7.32,31.1,31.1,0,0,0-10.56-1.59,23.82,23.82,0,0,0-12.47,3.77,23.49,23.49,0,0,0-9,11.83,31.35,31.35,0,0,0-1.75,7.64,36.68,36.68,0,0,0,.12,8.11c1.36,10.65,5.31,20.91,8.37,31.68a83.31,83.31,0,0,1,3.31,16.29,29.78,29.78,0,0,1-.37,7.79,17.08,17.08,0,0,1-2.82,6.52,18.32,18.32,0,0,1-5.57,4.76,26.73,26.73,0,0,1-3.66,1.71c-0.65.24-1.29,0.52-1.95,0.75l-2.08.59a75.58,75.58,0,0,1-17.93,2.34c-12.34.28-24.85-2.41-36.84-6.79-1.29-.47-2.57-1-3.85-1.47v12.2l0.15,0.05c13.11,4.25,27.12,6.76,40.92,5.94a84.75,84.75,0,0,0,20.26-3.45l2.47-.81,2.43-1a36.11,36.11,0,0,0,4.73-2.45,27.11,27.11,0,0,0,8-7.46,25.49,25.49,0,0,0,3.88-10,37.43,37.43,0,0,0,.12-10,90.55,90.55,0,0,0-4.25-17.67c-3.59-11-7.77-20.93-9.29-30.38-1.57-9.17,1.42-18.41,7.52-22.63a19.05,19.05,0,0,1,9.84-3.28,26.65,26.65,0,0,1,9.1,1.07,30.92,30.92,0,0,1,11.44,6.1,24.09,24.09,0,0,1,2.49,2.38l0.79,0.88c1.26,1.59,2.09,3,3.65,2.15S1877.5,2794.44,1876.05,2792.64Z" transform="translate(-1634.96 -2732.11)"/></g><g id="shape-3" data-name="shape"><path class="cls-2" d="M1729.67,2750.2c-53.74,0-90.95,85.89-73.49,137.8s129.07,47.77,147-1.84S1783.41,2750.2,1729.67,2750.2Z" transform="translate(-1634.96 -2732.11)"/></g><g id="Elipsa_24_kopiuj_2" data-name="Elipsa 24 kopiuj 2"><path class="cls-4" d="M1744.42,2767c-6.63,0-11.77,5.62-14.75,9.93-3-4.31-8.12-9.93-14.75-9.93-10.74,0-18.32,10.93-16.31,19.4s13.89,10,21.6,7.75c4.11-1.2,7.34-4.64,9.46-7.58,2.12,2.95,5.35,6.39,9.46,7.58,7.71,2.25,19.59.72,21.6-7.75S1755.16,2767,1744.42,2767Z" transform="translate(-1634.96 -2732.11)"/></g><g id="Elipsa_24" data-name="Elipsa 24"><path class="cls-3" d="M1730.92,2785.34c-19.45,0-26.73,12.41-24.54,25.46,1.86,11.07,10.5,22.31,24.54,22.31s22.68-11.25,24.54-22.31C1757.65,2797.75,1750.37,2785.34,1730.92,2785.34Z" transform="translate(-1634.96 -2732.11)"/></g><g id="Elipsa_7_kopiuj_2" data-name="Elipsa 7 kopiuj 2"><path class="cls-1" d="M1730.74,2814.43c-5.5,0-10,3.4-10,8.05s4.46,8.79,10,8.79,10-4.14,10-8.79S1736.24,2814.43,1730.74,2814.43Z" transform="translate(-1634.96 -2732.11)"/></g><g id="shape-4" data-name="shape"><path class="cls-1" d="M1771.89,2824.42a1.3,1.3,0,0,0-1.21-1.37l-25.95-1.51h-0.18l-0.19,0-0.2.06-0.09,0-0.15.1a1.25,1.25,0,0,0-.16.12l-0.08.09,0,0s0,0.07-.05.11a1.27,1.27,0,0,0-.1.18l0,0.06s0,0,0,.06a1.27,1.27,0,0,0,0,.19s0,0.08,0,.12,0,0,0,.07,0,0.08,0,.12a1.29,1.29,0,0,0,0,.15,1.26,1.26,0,0,0,.06.21l0,0.12,0.06,0.1a1.29,1.29,0,0,0,.13.17l0.11,0.12,0,0,20.75,16.24a1.27,1.27,0,0,0,1.8-.24,1.31,1.31,0,0,0-.23-1.82L1752,2827l17.4,6.47,0.11,0a1.27,1.27,0,0,0,1.53-.81,1.31,1.31,0,0,0-.76-1.67l-17.09-6.36,17.32,1A1.28,1.28,0,0,0,1771.89,2824.42Z" transform="translate(-1634.96 -2732.11)"/></g><g id="shape-5" data-name="shape"><path class="cls-1" d="M1717.7,2823.14a1.26,1.26,0,0,0,.06-0.21,1.24,1.24,0,0,0,0-.15s0-.08,0-0.12,0,0,0-.07,0-.08,0-0.12a1.28,1.28,0,0,0,0-.2s0,0,0-.06l0-.06a2.73,2.73,0,0,1-.15-0.29l0,0-0.08-.09a1.26,1.26,0,0,0-.16-0.12l-0.15-.1-0.09,0-0.2-.06-0.19,0h-0.18l-25.95,1.51a1.3,1.3,0,0,0,.14,2.6l17.32-1-17.09,6.36a1.31,1.31,0,0,0-.76,1.67,1.27,1.27,0,0,0,1.53.81l0.11,0,17.4-6.47L1695,2837.88a1.31,1.31,0,0,0-.23,1.82,1.27,1.27,0,0,0,1.8.24l20.75-16.24,0,0,0.11-.12a1.26,1.26,0,0,0,.14-0.17l0.06-.1Z" transform="translate(-1634.96 -2732.11)"/></g><g id="shape-6" data-name="shape"><path class="cls-1" d="M1739,2774.32c-3,0-5.42,2.88-5.42,6.43s2.42,6.43,5.42,6.43,5.42-2.88,5.42-6.43S1741.94,2774.32,1739,2774.32Zm-18.57,0c-3,0-5.42,2.88-5.42,6.43s2.42,6.43,5.42,6.43,5.42-2.88,5.42-6.43S1723.38,2774.32,1720.39,2774.32Z" transform="translate(-1634.96 -2732.11)"/></g></svg>