<svg id="Layer_1" data-name="Layer 1" xmlns="http://www.w3.org/2000/svg" viewBox="0 0 251.93 251.68"><defs><style>.cls-1,.cls-2{fill:#e8462f;}.cls-2,.cls-3,.cls-4,.cls-5{fill-rule:evenodd;}.cls-3{fill:#bb321e;}.cls-4{fill:#f8724b;}.cls-5{fill:#fff;}.cls-6{fill:#1d2e2f;}</style></defs><title>anim_22</title><g id="fin"><ellipse class="cls-1" cx="126.97" cy="69.5" rx="9.5" ry="69.5"/></g><g id="fin-2" data-name="fin"><path class="cls-2" d="M-198.1,1571.11c-21.71,1.8-32.1-4.92-47.53-11.67-4.54-2-29.22,30.65-5.61,50.46,15,12.55,44.94,2.45,61.36-8.24S-176.39,1569.31-198.1,1571.11Zm173-11.67c-15.43,6.76-25.82,13.47-47.53,11.67s-24.64,19.85-8.22,30.55,46.41,20.79,61.36,8.24C4.15,1590.09-20.53,1557.45-25.07,1559.44Z" transform="translate(261.32 -1374.45)"/></g><g id="tail"><path class="cls-3" d="M-20.45,1481.82c0-14-7.48-57.37-24-26.66-16.16,30-27.46,27.92-36.92,4.91s4,112.38,4,112.38,16-40.88,37.09-42.39C-16.85,1528.39-20.45,1495.82-20.45,1481.82Z" transform="translate(261.32 -1374.45)"/></g><g id="body"><path class="cls-2" d="M-134.35,1425.76c-53.17,0-91.46,77.23-83.74,133.72,11.26,16.18,85.75,36.65,85.75,36.65s50.89-12.93,82.7-46.17C-46.27,1496-83.77,1425.76-134.35,1425.76Z" transform="translate(261.32 -1374.45)"/></g><g id="body-2" data-name="body"><path class="cls-4" d="M-73.85,1558.45c-17,6.5-25-19-59-19s-48.5,12.5-65,20c-11.43,5.2-18.06-3-21.05-8.6a94.5,94.5,0,0,0,4.55,24.91c9.7,28.84,25.34,50.37,82,50.37s68.45-25.93,78-52.37a90.63,90.63,0,0,0,4.91-30.67C-51.54,1545.31-59.45,1552.95-73.85,1558.45Z" transform="translate(261.32 -1374.45)"/></g><g id="eye"><path class="cls-5" d="M-167.74,1503.6c-5.88-10-17.65-14.15-26.27-9.26s-10.85,17-5,27,17.65,14.15,26.27,9.26S-161.85,1513.61-167.74,1503.6Z" transform="translate(261.32 -1374.45)"/></g><g id="eye-2" data-name="eye"><path class="cls-5" d="M-72.7,1494.34c-8.62-4.89-20.39-.74-26.27,9.26s-3.66,22.07,5,27,20.39,0.74,26.27-9.26S-64.07,1499.22-72.7,1494.34Z" transform="translate(261.32 -1374.45)"/></g><g id="eye-3" data-name="eye"><ellipse class="cls-6" cx="80.47" cy="140" rx="6" ry="7"/></g><g id="eye-4" data-name="eye"><ellipse class="cls-6" cx="174.47" cy="140" rx="6" ry="7"/></g><g id="nose"><path class="cls-3" d="M-134.73,1524.45c-11.21,0-21.2,4.18-27.75,10.73a87.27,87.27,0,0,1,28.63-4.59,89.06,89.06,0,0,1,25.94,3.7C-114.46,1528.26-124,1524.45-134.73,1524.45Z" transform="translate(261.32 -1374.45)"/></g></svg>