<svg id="Layer_1" data-name="Layer 1" xmlns="http://www.w3.org/2000/svg" viewBox="0 0 240.11 220.86"><defs><style>.cls-1{fill:#1d2e2f;}.cls-1,.cls-2,.cls-3,.cls-4{fill-rule:evenodd;}.cls-2{fill:#68bc31;}.cls-3{fill:#71cc36;}.cls-4{fill:#fff;}</style></defs><title>anim_72</title><g id="shape"><path class="cls-1" d="M2010.78,3228.13c-9.31-2-7.57-6.49-9.83-.65-1.68,4.34-1.23,11,10.22,13.51a13.47,13.47,0,0,0,7-.17c7.73-1.47,9.5-9.33,9.5-9.33s-2.65-.45-8.88-1.23C2016.57,3229.56,2013.86,3228.81,2010.78,3228.13Zm74.13-.65c-2.25-5.84-.52-1.38-9.83.65-3.08.67-5.79,1.43-8,2.14-6.23.78-8.88,1.23-8.88,1.23s1.77,7.85,9.5,9.33a13.47,13.47,0,0,0,7,.17C2086.14,3238.5,2086.59,3231.82,2084.91,3227.48Z" transform="translate(-1935.6 -3020.52)"/></g><g id="shape-2" data-name="shape"><path class="cls-2" d="M2175,3190.54a28.7,28.7,0,0,0-2.7-7,25.53,25.53,0,0,0-4.61-6,26,26,0,0,0-6.1-4.48,24.8,24.8,0,0,0-15-2.91,21.88,21.88,0,0,0-13.78,7.5,26.47,26.47,0,0,0-4.11,6.51,22.28,22.28,0,0,0-1.89,7.65,19,19,0,0,0,5.45,14.65,21.18,21.18,0,0,0,13.55,6.46,18.56,18.56,0,0,0,7.6-1,17.23,17.23,0,0,0,6.46-4.1,16.91,16.91,0,0,0,4.9-13.7,16.54,16.54,0,0,0-7.1-11.91,14.33,14.33,0,0,0-13.23-1.43,14,14,0,0,0-5.35,3.7,15.72,15.72,0,0,0-1.87,2.66,9.54,9.54,0,0,0-.65,1.49,7.62,7.62,0,0,0-.49,1.53,12.48,12.48,0,0,0,2.91,11.29A10.92,10.92,0,0,0,2149,3205l1.28-.29a12.15,12.15,0,0,0,1.19-.48,9.35,9.35,0,0,0,2.16-1.27,10.18,10.18,0,0,0,3.08-3.72,8.77,8.77,0,0,0,.66-2.33c0-.39.1-0.78,0.11-1.16l-0.08-1.12a10,10,0,0,0-.47-2.06,14,14,0,0,0-.85-1.78l-0.59-.86-0.3-.41c-0.09-.11-0.16-0.17-0.24-0.26l-0.46-.48-0.11-.12-0.06-.06a0.6,0.6,0,0,0-.19-0.18l-0.06,0-0.44-.33a7,7,0,0,0-3.41-1.23,8,8,0,0,0-2.95.28,7.36,7.36,0,0,0-1.3.52,11.34,11.34,0,0,0-1.25.84c-0.23.21-.36,0.36-0.53,0.53l-0.23.23-0.22.25,0,0,0,0.06-0.07.11-0.13.22a5,5,0,0,0-.7,1.54c-0.11.46-.17,0.81-0.21,1a1.6,1.6,0,0,0,0,.35,4.74,4.74,0,0,0,.38,2,4.22,4.22,0,0,0,1,1.5,4,4,0,0,0,1.21.92,3.64,3.64,0,0,0,1.27.45,1.93,1.93,0,0,0,1.64-.23,1.18,1.18,0,0,0,.45-1.81,3.41,3.41,0,0,1-.7-1.06c-0.06-.16-0.11-0.26-0.18-0.47a1.61,1.61,0,0,1-.17-0.48,0.94,0.94,0,0,1-.07-0.41,1.58,1.58,0,0,1,0-.31,0.25,0.25,0,0,1,0-.17,0.44,0.44,0,0,1,.12-0.22v0l0.06-.05c0.15-.15.35-0.35,0.5-0.48a0.12,0.12,0,0,0,.13,0s0.25-.06.37-0.12a3.11,3.11,0,0,1,1.09-.07,2,2,0,0,1,1,.36l0.07,0,0,0.05,0.44,0.49c0.07,0.08.17,0.18,0.21,0.24l0.08,0.16a2.73,2.73,0,0,0,.19.31,4,4,0,0,1,.25,3.61,6.15,6.15,0,0,1-.6.84,5.48,5.48,0,0,1-.91.81,4.15,4.15,0,0,1-1.1.6c-0.2.07-.39,0.18-0.6,0.24l-0.65.12a1.66,1.66,0,0,1-.66.06h-0.68l-0.67-.14a1.71,1.71,0,0,1-.66-0.19l-0.65-.26c-0.2-.12-0.38-0.27-0.58-0.4a5.94,5.94,0,0,1-1.12-1,6.72,6.72,0,0,1-1.41-6.12,3,3,0,0,1,.29-0.8,4.09,4.09,0,0,1,.35-0.78,10.06,10.06,0,0,1,1.06-1.42,7.92,7.92,0,0,1,3.14-2.05,8.11,8.11,0,0,1,7.47,1,10,10,0,0,1,.94,15.37,10.68,10.68,0,0,1-8.58,2.81,13.83,13.83,0,0,1-8.69-4.45,11.33,11.33,0,0,1-3.08-8.88,16.32,16.32,0,0,1,4.29-9.28,13.45,13.45,0,0,1,8.65-4.43,16.18,16.18,0,0,1,9.74,2.2,20.87,20.87,0,0,1,2.15,1.42,19.28,19.28,0,0,1,1.89,1.72,16.5,16.5,0,0,1,2.9,4,19.46,19.46,0,0,1,1.68,4.68,18.59,18.59,0,0,1,.35,4.87,16.43,16.43,0,0,1-3,8.69,15.93,15.93,0,0,1-1.41,1.75c-0.5.55-1.1,1-1.62,1.54l-2,1.54c-0.67.47-1.34,0.87-2,1.31-5.28,3.2-11.15,3.56-17,2.83C2112.26,3211,2121,3184,2121,3184s-35.17,14.86-35.9,16.29-12.81,16.55-12.81,16.55,38,7.65,65.7,8.81a44,44,0,0,0,11.49-.24,31.87,31.87,0,0,0,12-4.53c0.88-.61,1.8-1.2,2.66-1.84l2.48-2c0.84-.82,1.73-1.6,2.51-2.5a25.72,25.72,0,0,0,2.19-2.85,26.14,26.14,0,0,0,4.39-13.82A28,28,0,0,0,2175,3190.54Z" transform="translate(-1935.6 -3020.52)"/></g><g id="shape-3" data-name="shape"><path class="cls-2" d="M2151.27,3143.65a4.17,4.17,0,0,0-2.08.75,8.81,8.81,0,0,0-1.09-2.09,4.16,4.16,0,1,0-6.17-3.75,9.07,9.07,0,0,0-1.85-.06c-0.22,0-.44,0-0.65.08a4.18,4.18,0,0,0-8.26,1.16,4.13,4.13,0,0,0,1.83,3.12,8.79,8.79,0,0,0-1.21,3.8c-5,1-9.49-3.24-11.76-7.17a138.39,138.39,0,0,0-15.76-38.49,24.4,24.4,0,0,0,2-9.75,25,25,0,0,0-25.18-24.8,25.45,25.45,0,0,0-8.86,1.58,51.93,51.93,0,0,0-52.51-.4,25.5,25.5,0,0,0-7.7-1.19,25,25,0,0,0-25.18,24.8,24.42,24.42,0,0,0,1.37,8.06,137.86,137.86,0,0,0-15.22,34.75,1.82,1.82,0,0,0-.17.6q-0.54,1.91-1,3.84c-2,4.15-6.9,9.25-12.29,8.16a8.79,8.79,0,0,0-1.21-3.8,4.12,4.12,0,0,0,1.83-3.12,4.18,4.18,0,0,0-8.26-1.16c-0.22,0-.43-0.06-0.65-0.08a9.07,9.07,0,0,0-1.85.06,4.18,4.18,0,1,0-6.17,3.75,8.81,8.81,0,0,0-1.09,2.09,4.15,4.15,0,1,0,.25,6.62,8.9,8.9,0,0,0,.94,1.6,4.1,4.1,0,0,0-1.11,2.5,4.18,4.18,0,0,0,8.26,1.16,9,9,0,0,0,2.49-.32,21.44,21.44,0,0,0,15.52,1.18c-1.55,14.64-.5,29,3.67,41.36,17.45,51.9,129.07,47.77,147-1.84,4.21-11.65,5.35-25.32,3.94-39.43a21.49,21.49,0,0,0,15.25-1.27,9,9,0,0,0,2.49.32,4.18,4.18,0,0,0,8.26-1.16,4.1,4.1,0,0,0-1.11-2.5,8.92,8.92,0,0,0,.94-1.6A4.17,4.17,0,1,0,2151.27,3143.65Z" transform="translate(-1935.6 -3020.52)"/></g><g id="shape-4" data-name="shape"><path class="cls-3" d="M2106.32,3091.25a25,25,0,0,0-25.18-24.8,25.41,25.41,0,0,0-8.87,1.62,51.62,51.62,0,0,0-52.43-.4,25.49,25.49,0,0,0-7.76-1.21,25,25,0,0,0-25.18,24.8,24.39,24.39,0,0,0,1.39,8.06c-0.23.38-.45,0.78-0.68,1.16,21.67,46.32,39.94,78.06,59,78.06,18.6,0,34.1-33.31,58-77l-0.3-.53A24.4,24.4,0,0,0,2106.32,3091.25Z" transform="translate(-1935.6 -3020.52)"/></g><g id="shape-5" data-name="shape"><path class="cls-3" d="M2056.34,3065l-3.29-41.1c-0.15-1.93-2.78-3.43-5.88-3.43H2046c-3.1,0-5.73,1.5-5.88,3.43l-3.29,41.1c-0.37,4.68,3.55,8.75,8.78,8.75h1.9C2052.79,3073.8,2056.71,3069.73,2056.34,3065Z" transform="translate(-1935.6 -3020.52)"/></g><g id="Elipsa_11_kopiuj_2" data-name="Elipsa 11 kopiuj 2"><path class="cls-4" d="M2097.48,3080.7c-5.17-7.77-14.69-10.58-21.26-6.27s-7.72,14.1-2.55,21.86,14.69,10.58,21.26,6.27S2102.64,3088.47,2097.48,3080.7Z" transform="translate(-1935.6 -3020.52)"/></g><g id="Elipsa_11_kopiuj_3" data-name="Elipsa 11 kopiuj 3"><path class="cls-4" d="M2018.83,3074.43c-6.58-4.31-16.1-1.5-21.26,6.27s-4,17.56,2.55,21.86,16.1,1.5,21.26-6.27S2025.41,3078.74,2018.83,3074.43Z" transform="translate(-1935.6 -3020.52)"/></g><g id="shape-6" data-name="shape"><path class="cls-1" d="M2091.62,3081.15a5.51,5.51,0,1,0,5.51,5.51A5.51,5.51,0,0,0,2091.62,3081.15Zm-88.19,0a5.51,5.51,0,1,0,5.51,5.51A5.51,5.51,0,0,0,2003.43,3081.15Z" transform="translate(-1935.6 -3020.52)"/></g><g id="shape-7" data-name="shape"><path class="cls-1" d="M2054.8,3158.31c-2.07,0-3.75,2.06-3.75,4.59s1.68,4.59,3.75,4.59,3.75-2.06,3.75-4.59S2056.87,3158.31,2054.8,3158.31Zm-18.22,0c-2.07,0-3.75,2.06-3.75,4.59s1.68,4.59,3.75,4.59,3.75-2.06,3.75-4.59S2038.65,3158.31,2036.58,3158.31Z" transform="translate(-1935.6 -3020.52)"/></g></svg>