<svg id="Layer_1" data-name="Layer 1" xmlns="http://www.w3.org/2000/svg" viewBox="0 0 229.98 181.55"><defs><style>.cls-1{fill:#bf7100;}.cls-1,.cls-2,.cls-3{fill-rule:evenodd;}.cls-2{fill:#1d2e2f;}.cls-3{fill:#fff;}</style></defs><title>anim_71</title><g id="shape"><path class="cls-1" d="M1842.52,3157.14c-10.11.22-12.62,15.65-21.81,25.73s-16.89,24.66-45.68,24.78c-6.63,0-20.54,23.53-11.48,21.89,23.08-4.17,55.37-16.61,74.33-37.36S1852.63,3156.92,1842.52,3157.14Z" transform="translate(-1621.12 -3061.66)"/></g><g id="shape-2" data-name="shape"><path class="cls-2" d="M1692.92,3230c-9.31-2-7.57-6.49-9.83-.65-1.68,4.34-1.23,11,10.22,13.51a13.47,13.47,0,0,0,7-.17c7.73-1.47,9.5-9.33,9.5-9.33s-2.65-.45-8.88-1.23C1698.72,3231.4,1696,3230.64,1692.92,3230Zm74.13-.65c-2.25-5.83-.52-1.38-9.83.65-3.08.67-5.79,1.43-8,2.14-6.23.78-8.88,1.23-8.88,1.23s1.77,7.85,9.5,9.33a13.47,13.47,0,0,0,7,.17C1768.28,3240.33,1768.73,3233.66,1767.06,3229.32Z" transform="translate(-1621.12 -3061.66)"/></g><g id="Elipsa_25" data-name="Elipsa 25"><path class="cls-1" d="M1781.25,3061.81c-12.58-1.79-25,12.67-27,27.71s7,25,19.55,26.75,23.94-5.24,26-20.28S1793.83,3063.6,1781.25,3061.81Z" transform="translate(-1621.12 -3061.66)"/></g><g id="Elipsa_25_kopiuj_4" data-name="Elipsa 25 kopiuj 4"><path class="cls-1" d="M1702.55,3083.85c-5.88-14-21.58-24.75-33.27-19.77s-14.94,23.82-9.06,37.81,18.67,17.84,30.36,12.86S1708.43,3097.85,1702.55,3083.85Z" transform="translate(-1621.12 -3061.66)"/></g><g id="shape-3" data-name="shape"><path class="cls-1" d="M1825.24,3140.24c-11.3.94-18.1,0.83-24.74-6.18l-0.39-.4c-11.39-37.4-38.69-71.12-72.27-71.12-34.15,0-61.61,34.68-72.63,73.28-6.45,5.9-13.24,6-24.16,5.09-11.51-.92-13.07,10.34-4.37,15.89,7.48,4.77,16.12,5.05,24.09,1.35-1.67,14.92-.67,29.55,3.58,42.18,17.45,51.9,129.07,47.77,147-1.84,4.38-12.13,5.43-26.46,3.74-41.19,8,4.18,16.87,4.05,24.47-1C1838.07,3150.73,1836.54,3139.31,1825.24,3140.24Z" transform="translate(-1621.12 -3061.66)"/></g><g id="shape-4" data-name="shape"><path class="cls-2" d="M1704,3091.52c-3.52,1.18-5.59,5.31-4.61,9.23s4.62,6.13,8.14,4.95,5.59-5.31,4.61-9.23S1707.54,3090.33,1704,3091.52Zm52.23,4.95c-1-3.91-4.62-6.13-8.14-4.95s-5.59,5.31-4.61,9.23,4.62,6.13,8.14,4.95S1757.23,3100.38,1756.25,3096.46Z" transform="translate(-1621.12 -3061.66)"/></g><g id="Elipsa_47_kopiuj" data-name="Elipsa 47 kopiuj"><path class="cls-3" d="M1757.32,3125.15c-8.91-3.58-6.11,7.22-30.41,7.07s-21.51-10.66-30.42-7.07c-17.54,7.06-29.29,34.74-29.29,64.28,0,22.38,26.73,40.53,59.71,40.53s59.71-18.15,59.71-40.53C1786.63,3157.6,1774.87,3132.21,1757.32,3125.15Z" transform="translate(-1621.12 -3061.66)"/></g><g id="Elipsa_7_kopiuj_2" data-name="Elipsa 7 kopiuj 2"><path class="cls-2" d="M1739.28,3110.52c-1.41-2.61-5.49-3.65-10.71-3.65s-9.65,1-10.71,3.65,2.49,11,10.71,11S1740.69,3113.13,1739.28,3110.52Z" transform="translate(-1621.12 -3061.66)"/></g></svg>