<svg xmlns="http://www.w3.org/2000/svg" xmlns:xlink="http://www.w3.org/1999/xlink" viewBox="0 0 286.95 405.84"><defs><style>.cls-1{fill:none;}.cls-2{isolation:isolate;}.cls-3{fill:#62361c;}.cls-15,.cls-4,.cls-6{fill:#bd531d;}.cls-14,.cls-17,.cls-30,.cls-5{fill:#fff9b4;}.cls-18,.cls-5,.cls-8{opacity:0.4;}.cls-14,.cls-17,.cls-18,.cls-29,.cls-30,.cls-31,.cls-5{mix-blend-mode:screen;}.cls-27,.cls-6{opacity:0.3;}.cls-15,.cls-27,.cls-37,.cls-6,.cls-8{mix-blend-mode:multiply;}.cls-7,.cls-8{fill:#62340e;}.cls-9{fill:#3f2007;}.cls-10{fill:#361f0d;}.cls-11{fill:#b0511f;}.cls-12,.cls-29{fill:#534540;}.cls-13{fill:#362d29;}.cls-14,.cls-31{opacity:0.2;}.cls-15{opacity:0.5;}.cls-16{fill:#cb5a19;}.cls-17{opacity:0.25;}.cls-18{fill:#fbfdff;}.cls-19{fill:#b3b3b3;}.cls-20{fill:#a0542d;}.cls-21{fill:#2f2723;}.cls-22{fill:#2b1808;}.cls-23{fill:#3b210f;}.cls-24{fill:#1a1b1a;}.cls-25{fill:#68310f;}.cls-26{fill:#251f1b;}.cls-27{fill:#63502c;}.cls-28{fill:#322a26;}.cls-30{opacity:0.6;}.cls-31{fill:#fff8d8;}.cls-32{fill:#fff;}.cls-33{clip-path:url(#clip-path);}.cls-34{fill:#0072b7;}.cls-35{fill:#0b4c78;}.cls-36{fill:#001624;}.cls-37{fill:#b1b1b0;}</style><clipPath id="clip-path" transform="translate(224.03 35.28)"><path class="cls-1" d="M-136.65,77.93c-2.35,4.79-5.77,7-10.92,8-1.47.28-10.78-.86-11.06-0.51q-1.14.27-2.26,0.58c4.54-3.4,4.05-9.57,11.19-11.82,2.94-.93,15.29-0.68,13.06,3.79C-137.14,78.92-136.57,77.77-136.65,77.93Z"/></clipPath></defs><title>anim_79</title><g class="cls-2"><g id="Layer_1" data-name="Layer 1"><path class="cls-3" d="M-166.09,66.43c2.52,3.08,12.41,18.23.07,13.61-3.91-1.46-5-6.37-8.15-7.52-8.73-3.19-14,.53-21-8.11-4.62-5.76-7.67-14.23-8.91-21.48-0.67-3.92-1.85-11.49.42-15.22,3.68-6.05,7.54-2.18,13.86,1.2s11.88,7.55,15.24,13.77c4,7.38,3,17.15,8.41,23.76C-163.93,69.06-167.49,64.72-166.09,66.43Z" transform="translate(224.03 35.28)"/><path class="cls-4" d="M-168.87,62.9c2.33,4,11.06,9.65,9.27,15-2.85,8.56-13.2-3.28-12.15-5.09a12,12,0,0,1,4,4.16c-1.09-1.13-2.64-4.32-3.77-4.95-4.36-2.42-10.54-.22-15.42-2.49-11.25-5.22-17.19-22.62-16.72-34.24,0.08-1.91.38-10.22,1.54-10.91,1.92-1.13,12.25,5.84,14.39,7.19,5.55,3.49,10.61,7.41,13.47,13.49C-171.57,50.77-171.79,57.3-168.87,62.9Z" transform="translate(224.03 35.28)"/><path class="cls-5" d="M-168.87,62.9c2.33,4,11.06,9.65,9.27,15-2.85,8.56-13.2-3.28-12.15-5.09a12,12,0,0,1,4,4.16c-1.09-1.13-2.64-4.32-3.77-4.95-4.36-2.42-10.54-.22-15.42-2.49-11.25-5.22-17.19-22.62-16.72-34.24,0.08-1.91.38-10.22,1.54-10.91,1.92-1.13,12.25,5.84,14.39,7.19,5.55,3.49,10.61,7.41,13.47,13.49C-171.57,50.77-171.79,57.3-168.87,62.9Z" transform="translate(224.03 35.28)"/><path class="cls-6" d="M-159.87,74.84c-2-5.48-7.56-8.88-10-14.16-3.84-8.32-2.7-17.29-10.5-23.79,0.74,1.05,5.78,10.85,1.51,6.61,0.25,1.5,3.28,7,1.47,9.09,1.09-1.2-5.73-12.26-8.28-12.6,0.23,3.17,4.41,9,2.2,12-2.65,3.67-3.1,0-6.2-1.77-0.61,2.26,3.45,9.73,1.3,11-3.17,1.88-8.35-7.38-9.61-9.08,0.59,2.29,8.75,14.95,2.92,10.39,6.48,9.46,12.41,5.74,21,8.66,4.18,1.43,2.87,2.2,6.33,5.78a12,12,0,0,0-4-4.16c-2.49,4.29,16.18,14.08,11.88,2h0Z" transform="translate(224.03 35.28)"/><path class="cls-7" d="M-194.8,30.12L-199,27.79c-2.32,10.68,1.61,40.49,18.46,36.63A14.9,14.9,0,0,1-185.46,59q1.39-1.58,3.34,1.52c-5.16-6.35-.73-2.51,1.85-2.26a7.08,7.08,0,0,1-2.09-5.08q1.36-.81,2.45,1.38c-0.4-1-3.1-8.24.24-3.21-0.69-8.6-7.44-17.4-15.12-21.2h0Z" transform="translate(224.03 35.28)"/><path class="cls-8" d="M-182.06,53l2.15,1.52c-0.4-1-3.1-8.24.24-3.21-0.51-6.35-4.13-12-8.57-16.35,2.12,2.53,6,7.37,3.47,10.85-0.06.08-4.83-4.21-4.67-4.12a17.42,17.42,0,0,1,3.36,8.62q-0.94.89-2.24-.45,2,2.93.07,3.92a8.33,8.33,0,0,1-4.17-4.69c0.67,2.62,4.7,6.65,3.92,9.69q-1.54,1.29-2.57-1.31,1.25,1.39.21,2.12c-3.94-2.88-5.85-8-7.32-12.4,2,7.73,7.78,19.46,17.65,17.2A14.9,14.9,0,0,1-185.46,59q1.39-1.58,3.34,1.52c-5.16-6.35-.73-2.51,1.85-2.26,0.25,0.36-2.48-5.81-1.79-5.22h0Z" transform="translate(224.03 35.28)"/><path class="cls-9" d="M-201.58,38.05c3.4-3.1,7.76-6.87,12.46-7.31-3.4-2.07-10.63-7.49-13.06-5.42s-1.48,13.7-1.19,16.48l1.79-3.75h0Z" transform="translate(224.03 35.28)"/><path class="cls-10" d="M-198.56,27.73c5.52,4.82,12.07,6.68,15.84,13.39,0.71,1.26,3.06,11.26,2.73,11.1a7.26,7.26,0,0,1-1.52-2c0,1.64.89,3.22,1.24,4.75,0.26,1.14-2.35-1.27-2.07-1.1,0,0.14,2,4,1.72,4.15-0.84.57-2.36-.5-3.16-0.67-0.25-.05,1.7,2.84,1.38,2.74-0.52-.15-16.87-8.42-2.63-1.36,1.08,0.54,5.58,5.1,6.23,6,0.24,0.31-2.2.61-2.32,1,3.62,1.59,5.63.33,1.77,2,1.79-.46,10,1.52,9.61,4q-0.11-.19.08,0.33c-0.34-3-13.41-4.5-8.93-5.14-0.42-.12-3.14-0.54-3.07-1.1,0.12-1.22.9-1.15,1.67-1.38-0.66-.36-7.18-5.66-5.59-6.36a4,4,0,0,1,1.9.79,3,3,0,0,1-.94-2c0.39-.6,3.39.68,3.36,0.68-0.52-.93-3.15-6.76.05-3.4a7.85,7.85,0,0,1-.92-4.4q1.65-.82,1.82,1.27C-183.36,39.25-190,35-198.56,27.73-196.39,29.62-198.71,27.61-198.56,27.73Z" transform="translate(224.03 35.28)"/><path class="cls-10" d="M-200.58,38.06c0.4,3.62,13.27,35.32,19.46,26.41-3.95,5.21-13.68-6.9-15.12-9.68-2.78-5.39-3.59-10.9-4.34-16.72C-200.51,38.75-200.58,38-200.58,38.06Z" transform="translate(224.03 35.28)"/><path class="cls-3" d="M22.53,245.06c-1.57-3.28-7-5.37-9.3-8.4a40.89,40.89,0,0,1-4.6-8.54c-3.61-8-3.51-14.07-4.68-22.55-2.8-20.2-22.41-23.19-38.49-15.32-16.37,8-8.91,25.93,2.45,35.48,10.71,9,34.72,11.6,37.41,27.35,2.8,16.35-6.88,39.68-12.39,54.77-1.87,5.13-2.88,8.41-6.72,11.84-4.54,4.05-15.19,9.74-11.94,18.37,1.83,4.87,10.86,5.39,15.42,2.73,5.37-3.13,3.16-7.87,5.09-12.39C-2.49,322,1.23,316.13,3.22,310,3,299.21,9.29,287,12.65,276.8c1.94-5.88,3.08-12.45,5.46-18.14,1.73-4.11,6.66-8.9,4.41-13.61h0Z" transform="translate(224.03 35.28)"/><path class="cls-11" d="M-34.84,222c2.55,2.74.32,0.37,0,0C-34.47,222.37-34.59,222.25-34.84,222Z" transform="translate(224.03 35.28)"/><path class="cls-12" d="M-6.31,332.17c-1.21,6.27-8,10.88-14.55,8C-26,338-24.53,335.62-22.8,330c2.3,5.68,13.71,1.36,16.77-.53l-0.27,2.69h0Z" transform="translate(224.03 35.28)"/><path class="cls-13" d="M-7.32,330.19c-3.12,1.9-13.48,4.75-15.48-.19-2.13,6.92-3.13,10.41,5.65,10.42,3.87,0,6.91-.6,9.21-3.67,0.92-1.23,3.73-8.51.62-6.56C-8.19,330.72-6.91,329.93-7.32,330.19Zm-6.82,6.45c-4.34,7-13.29-.07-7.94-3.88,2-1.4,10.11.38,7.94,3.88h0Z" transform="translate(224.03 35.28)"/><path class="cls-11" d="M21.55,249.37c-4.9,17.7-16.39,35.54-19,54.49A15.91,15.91,0,0,1,2.64,299c-0.34,3.3-.3,9.45-1.3,12.44-0.56,1.68-7.93,8.21-5.46,10.28-0.24-.19,1.81-3.34,2.09-3.57-0.07.13-1.54,6.55-.29,5.07-5.61,2.79-5.69,11.25-15.49,7.46-10.17-3.93,2.9-7.8,7.06-12.19C-3.69,311.06-1.54,295.8,1,286.15c2.7-10.25,8.79-25.33,5.22-35.88-7.52-22.25-50.77-17-49-47.3,0.66-11.46,17.64-16.45,27.74-15.3,16.27,1.85,16.31,16.07,17.95,28.69-2-7.82-.76-1.29.25,2A70.77,70.77,0,0,0,8,230.24c2.32,4.5,14.57,15.33,13.52,19.13h0Z" transform="translate(224.03 35.28)"/><path class="cls-14" d="M21.55,249.37c-4.9,17.7-16.39,35.54-19,54.49A15.91,15.91,0,0,1,2.64,299c-0.34,3.3-.3,9.45-1.3,12.44-0.56,1.68-7.93,8.21-5.46,10.28-0.24-.19,1.81-3.34,2.09-3.57-0.07.13-1.54,6.55-.29,5.07-5.61,2.79-5.69,11.25-15.49,7.46-10.17-3.93,2.9-7.8,7.06-12.19C-3.69,311.06-1.54,295.8,1,286.15c2.7-10.25,8.79-25.33,5.22-35.88-7.52-22.25-50.77-17-49-47.3,0.66-11.46,17.64-16.45,27.74-15.3,16.27,1.85,16.31,16.07,17.95,28.69-2-7.82-.76-1.29.25,2A70.77,70.77,0,0,0,8,230.24c2.32,4.5,14.57,15.33,13.52,19.13h0Z" transform="translate(224.03 35.28)"/><path class="cls-6" d="M21.55,249.37C22.6,245.56,10.28,234.63,8,230.24A67.86,67.86,0,0,1,3.34,219c-0.6-1.95-3-12.39-.45-2.61-1.31-10.11,0-20.44-10.39-26.4-8.43-4.85-21.84-1.84-29.57,3.39-9.5,6.43-5.51,17.92.47,25.83s14.37,10.64,23,15.09c7.66,3.94,17,7.61,19.74,16.33,3.28,10.34-2,23.56-4.67,33.57-2.49,9.48-4.44,20.7-9,29.42-3.14,6-8.35,7.07-13,12,4.41,4.7,14.5-13,15.3-14.82,4.37-10.16,7-21.36,9.72-32.05,2.2-8.53,5.79-18.23,3.92-27-0.38-1.8-3.49-6.37-2.24-7.54,0.5-.46,9.47,2.79,9.83,3.42,2.27,4-.48,5.25-2.12,8.91-4.67,10.47-6.72,22.08-10,33.05C1.86,296.21-6.51,339-21,326.07c-4.64,5.86,8.33,5.69,11.31,4.32,1.78-.82,7.94-5.77,7.33-7.11,0-1.47-1-2.51.29-5.07-0.27.23-2.32,3.38-2.09,3.57-2.49-2.09,5-9,5.46-10.28,1.07-3.2,1-9.09,1.3-12.44a15.91,15.91,0,0,0-.08,4.82c2.59-18.95,14.09-36.8,19-54.49h0Z" transform="translate(224.03 35.28)"/><path class="cls-15" d="M-36.6,219.18c6.07,6.77,13.15,12.74,22.47,12.12,3.38-.22,5.46-2.2,9-1.89,6.06,0.52,12.81,5.33,17.68,8.73a64.29,64.29,0,0,1-7.89-15c-0.91-2.44-4.42-17-1.79-6.76-2.17-16.8-5.28-31.87-26.8-27.93-16.55,3-25.8,16.2-12.69,30.75h0Z" transform="translate(224.03 35.28)"/><path class="cls-9" d="M-1.85,309.45c-1.37,2.28-4.51,5.1-3.9,8.16,9.76-3.94,5.17-8.2,7.53-16.17a63.6,63.6,0,0,0-3.63,8h0Z" transform="translate(224.03 35.28)"/><path class="cls-3" d="M61.75,231.36c-3.46-4.24-8.54-9.89-12.77-14.86-5.28-6.21-8.36-9.28-8.94-17.3-1.05-14.59,8-28.52,6-44q0.33,1,.65,2C42.85,137.45,18.39,130.07.65,126.84c-19.2-3.5-34.24,4.15-52.36,9.74-10.94,3.37-21.93,6-33.45,4.8-8-.84-19.48-0.93-26.81-3.69-14.2-5.35-9-27.43-9-40A1.29,1.29,0,0,0-120,99c2.91-1.24-1.15-17.21-3.1-20,4.86-.48,9.67,3.1,15,2.5,6.66-.75,11.2-4.1,15.72-8.79,7-7.28,13.17-17.2,14.6-27.37,2-14.11-13.36-7.74-22-4.49-13.34,5-15.64,15-23.43,25.51-1-4.49-2.13-9.77-6.37-12.41-6-3.72-9.05,1.51-14.47,1.15s-8.21-4.81-14.46-2.81c-4.32,1.38-7.37,6-11,8.35-3.2,2.09-8.1,3.45-10.4,6.42-1,1.31-.72,3.49-1.71,4.92-5.6,8.1-16.12,12.9-24.47,18.27-8.14,5.24-22.31,11.44-16.54,23.77,2.65,5.66,8.56,5.07,14,7.4,10.08,4.32,13,2.34,23.19-1.63,4.9-1.92,9.52-1.57,14.68-1.58,1.37,0,4.39-.36,5.61.13q3.48-1.67,3.28,1.72a7.24,7.24,0,0,0,2.78,5c0.8,0.46.71-1.05,0.69-1.27,5.39,6.05,2.26,24.63,2.68,32.34,0.89,16.45,8.23,27.54,18.74,39.67,4.53,5.23,8.29,9,10.73,15.36,2.88,7.54,3.27,15.75,6.43,23.23,5.69,13.45,14.41,25.31,18.21,39.62,3.14,11.83,7.07,23.39,8.92,35.82,0.8,5.4,1.07,10.88,1.71,16.31,1.22,10.36-.85,11-6.93,18.72-6.38,8.12-10.48,22.93,5.92,17.62,8.6-2.78,9.26-14.52,10.37-22.5,0.16-1.18,1.86-2.32,1.92-3.7,0.12-2.48-1.63,3.15-2.08-2.94-0.47-6.35-1.35-12.71-1.58-19.14-0.23-6.28.33-13.3-1-19.48-1.67-8-6.1-14.74-7.34-22.87-0.11-.7-0.2-1.81-0.27-2.52-0.91-9.16-1.26-18.36-2.43-27.5-0.66-5.19-7.11-20.22,1.44-18.17,10.26,2.46,18.07,24.62,20.21,32.55a259.38,259.38,0,0,1,6.76,35c1.72,13.89,3.9,28.43,2.84,42.69-0.3,4.08-.19,6.55-1.86,10.46-2.24,5.22-12.86,15.07-10.39,21.56,2,5.25,10.65,5.58,15.14,3.34,8.24-4.11,4-14.19,6.12-22.16,0.08-.3,3-6.44,3-7.26,0.21-5.74-2.75-11.55-2.43-18.56,0.69-15.42.48-27.8-2.66-42.71-3.78-17.94.52-38.35,0.44-56.57,14.8,2.56,32.36,5.33,46.55-.54,2.73-1.13,5.6-4.37,8.86-4,2.89,0.34,8.37,5.9,11.43,7.59,8.17,4.51,18.9,7.34,26.12,13.3,10.75,8.88,6.69,26.53,4.85,39C40,290.46,39.61,305.9,33.68,318c-3,6-27.53,27-9.43,28.78a15,15,0,0,0,14.81-8.19c1.76-3.33,1.47-8,2.67-11.56,1.11-3.31,3.64-5.66,4.71-8.22,2.38-5.7,2.12-14.8,3.49-21.5q2.51-12.24,4.55-24.57C55.7,265.36,57,258,58.67,250.69c1-4.53,6.65-15,3.09-19.32h0ZM37.46,171.67A34,34,0,0,0,32,180c1.3-6,2.28-13.82,5.14-19.23a29.39,29.39,0,0,1,.37,10.87C36.89,172.3,37.73,169.74,37.46,171.67Z" transform="translate(224.03 35.28)"/><path class="cls-12" d="M-86.06,355.74c-0.5,5.08-9.69,7.93-14.17,5.9s-2.38-5.78-.7-10.41c0,5.79,13,2.61,15.07.73-0.06.28-1,4-.2,3.79C-86.13,356.52-86.25,355.78-86.06,355.74Z" transform="translate(224.03 35.28)"/><path class="cls-13" d="M-86.45,355.45q0.24-1.76.6-3.5c-2.1,1.88-15.07,5.06-15.07-.73-1.75,4.82,7,3.66,6.94,4.9-0.1,3.86-7.64,5.44-8.62,1.27-1.53,7.75,16,5,16.15-1.94C-86.43,354.72-86.46,355.68-86.45,355.45Z" transform="translate(224.03 35.28)"/><path class="cls-11" d="M-96.71,235.93c1.32,10.29,2,20.63,2.93,31,0.1,1.06,3.05,19.81,3.46,19.46q-0.83-4-1.26-8.06c1.18,5.46,4.54,10.29,5.84,15.71,1.52,6.34.89,13.61,1.13,20.11,0.16,4.49-.12,17.5,1.05,19.11,1.47,3.81,1.67,1.83,1.4,5.83-0.08,1.19-3.63,12.26-3.56,12.18-2.64,2.85-14.2,3.25-14.42-1.69-0.14-3.17,8.92-10.14,10.24-13.82,2.61-7.24-1.06-25-3.25-34.39-2.1-9-7.07-17.32-7.07-26.21-3.17-11.3-7.83-21.37-13.22-31.75-5.85-11.27-8.12-22.88-12.74-34.6,8.08,12.18,15,13.15,28.87,14.22-1.58,3.41.15,9.48,0.59,12.93C-96,241.37-97,233.34-96.71,235.93Z" transform="translate(224.03 35.28)"/><path class="cls-14" d="M-96.71,235.93c1.32,10.29,2,20.63,2.93,31,0.1,1.06,3.05,19.81,3.46,19.46q-0.83-4-1.26-8.06c1.18,5.46,4.54,10.29,5.84,15.71,1.52,6.34.89,13.61,1.13,20.11,0.16,4.49-.12,17.5,1.05,19.11,1.47,3.81,1.67,1.83,1.4,5.83-0.08,1.19-3.63,12.26-3.56,12.18-2.64,2.85-14.2,3.25-14.42-1.69-0.14-3.17,8.92-10.14,10.24-13.82,2.61-7.24-1.06-25-3.25-34.39-2.1-9-7.07-17.32-7.07-26.21-3.17-11.3-7.83-21.37-13.22-31.75-5.85-11.27-8.12-22.88-12.74-34.6,8.08,12.18,15,13.15,28.87,14.22-1.58,3.41.15,9.48,0.59,12.93C-96,241.37-97,233.34-96.71,235.93Z" transform="translate(224.03 35.28)"/><path class="cls-6" d="M-116.46,230.14l1,2.35q-1.21-3.12-2.19-6.31l1.18,4C-116.15,230.93-116.94,228.91-116.46,230.14Z" transform="translate(224.03 35.28)"/><path class="cls-6" d="M-81.35,336.11a10,10,0,0,1-2.21-2.9c-1.13-1.55-.89-14.64-1.05-19.11-0.21-5.89.24-12.12-.88-17.92-1.21-6.24-4.75-11.7-6.09-17.89q0.44,4.06,1.26,8.06c0.09-.08-4-27-4.28-29.88-0.71-8.33-6.26-25.81-2.7-33.47-13.89-1.07-20.88-2.17-28.87-14.22,4.62,11.73,6.88,23.31,12.74,34.6,5.38,10.37,10,20.45,13.22,31.75,0,7.39,4.09,15.11,6.06,22.13,2.82,10.09,7.49,28.75,4.64,38.48-1.45,5-16.48,13.8-6.33,17.17,9.9,3.29,10-4.36,12-10.8,0.37-1.21,3.8-4.7,2.51-6h0ZM-97,278.28c1.53-6.81-8.15-23.55-11.32-30.12-2.89-6-11-17.61-9.63-24.77,0,0,8.39,5.61,9.25,6.43,4,3.85,6,8,7.73,13.25,3.51,10.83,6.59,23.93,4,35.21h0Zm12,57.45c-0.23,1.77-6.69,19.52-12,13.71-1.92-2.1,5.24-8.66,6.14-9.94,2.52-3.59,3.33-4.32,3.4-9.25,0.09-6.38-1.27-14.42-2.33-20.93-0.23-1.38-3.48-21.06-3.61-21.17,7.27,6.8,8,17.63,7.61,27-0.26,6.81,1.65,14,.8,20.61C-85.25,337.19-84.82,333.88-85.06,335.73Z" transform="translate(224.03 35.28)"/><path class="cls-15" d="M-122.28,221c7.92,5.43,18.33,6.72,25.44,13.94-0.46-3.48-2-8.57-.46-11.94-13.89-1.07-20.88-2.17-28.87-14.22A92.26,92.26,0,0,1-122.28,221C-121.87,221.28-123,218.06-122.28,221Z" transform="translate(224.03 35.28)"/><path class="cls-12" d="M-56,357.36c-0.24,7.13-1.7,10.82-9.17,11.18-9.62.46-10.39-5.77-5.44-13.29-0.19,6.58,14.7-1.09,14.61,2.11C-56.06,358.69-56,356.92-56,357.36Z" transform="translate(224.03 35.28)"/><path class="cls-13" d="M-56.5,356.1c-1.61,1.27-14.26,3.84-14.12-.85-16.1,24.48,25.49,9.13,14.12.85C-56.62,356.19-56.35,356.22-56.5,356.1Zm-5.82,6.18c-1.55,8.93-13.93,3.78-9-2.37,2-2.46,9.69-1.82,9,2.37C-62.5,363.34-62.13,361.17-62.32,362.28Z" transform="translate(224.03 35.28)"/><path class="cls-12" d="M38.88,336.36c-1.41,9.94-28.54,15.78-17.05-3.67-0.27,4.93,15.86,1.47,17.52,0l-0.47,3.64h0Z" transform="translate(224.03 35.28)"/><path class="cls-13" d="M36.24,334.12c-2.22.39-14.65,3-14.41-1.43-10.88,18.42,15.36,14.5,17.52,0l-3.11,1.39h0ZM30.8,338.2c-1.09,4.52-10.11,8.91-9.66,1.64,0.4-6.51,10.27-4.13,9.66-1.64C30.5,339.47,31.12,336.93,30.8,338.2Z" transform="translate(224.03 35.28)"/><path class="cls-16" d="M60.87,238c-5.61,10.46-6.46,24.61-8.33,36.27-2.06,12.8-4.83,25.46-7.49,38.14,2.17-2.06-2.87,12.08-4.34,14.42-4.74,7.56.89,3-2.4,5.42-1.67,1.22-12.2,2.81-13.59,1.56-3.58-3.22-1.38-2.7,2.62-6.7,4.76-4.76,7.78-7.88,9.66-14.65-0.38,2.41-1.06,4.77-1.36,7.19,3.54-14.32,6.08-28.7,8.24-43.29,1.43-9.63,5.13-26-.79-34.7,0.83,0.29-.89.87,1.69-1.09-12.25-6.42-25.54-12.22-37.27-19.5-14.45-9-19.05-22.74-30.2-34.34,8.24,8.58,11.71,21.45,21.33,29.91-5.13-.13-9,4.18-13.85,5.34-4.3,1-8.88.38-13.26,0.41-8,0-19.73-2.84-27.37-.94a87.92,87.92,0,0,0-3.63-25c-1-3.21-7.16-15.12-5.53-17.53-1.88,3,2.42,12.32,3.34,15.67a97.7,97.7,0,0,1,3.82,21.89c0.7,13.92-.29,28.13-0.5,42.08-0.19,12.67,2.61,21.83,3.87,33.57,1.38,12.88-3.33,27-.79,39.61,1,4.74,1.93,5.33,1.39,9.69-0.22,1.75-1.55,9.8-2.54,11.66-1.7,3.22-12.41,7.12-13.83,1.59-0.49-1.9,6.53-8.79,7.53-11.57,3.79-10.53,1.36-26.73.38-37.54-0.37-4-6.7-30.38-2.8-33-1.39.91-1.45,3.64-1.5,5.07-1.79-8.29-2.72-16.91-5-25.07-1.21-4.26-3.26-8.06-5.27-12-0.43-.83-5-9.7-3.59-6.39C-85,227.37-90.88,223.36-96.6,217.7c-6.32-6.24-9.83-14.64-16.25-20.71,7,7.75,9.84,17.69,17.88,25-7.07-1.63-15.64.31-22.38-4.75-8.45-6.34-15.53-19-22.38-27.23s-12.6-17-14.25-28c-1.84-12.2-.43-24.34-3-36.56,1,0.82,2.78,1.72,2-.41,3.21,2.33,6.66,1.27,9.26,1.92-0.67-.17-11.28-3.24-10.62-3.83a1.54,1.54,0,0,0,.56,2.06c-1.17-.5-3-2.19-3.25-3.58a12.69,12.69,0,0,0-.23,1.91,15.22,15.22,0,0,1-2.8-5.52c9.62-.06,9.56-4,17-7.42-7.72,3.3-9.8,6.16-19,6.08-6.86-.06-13.84-0.87-20.23,2.06,1.5-1,5.4-4.31,6.75-4.65-8.13,2.12-15,10.75-24.24,8.93-3.63-.72-5.93-3.87-9.38-5,8-.73,12.21.72,19.69-3.92,2.86-1.77,9.92-8.59,12.86-7.9-3.36-.76-3.64-1.33-6,1.6a12.94,12.94,0,0,1,2.38-1.15c-3.67,8.25-21.33,9-28.39,10-4.49.64-7.43,2.29-10.55-1.75-2.53-3.27-1.86-10.6.35-13.88,5.39-8,22.68-14,30.74-19.55S-179.65,68-171.19,62.7c-1.92,2,8.67-6.09,10.43-7.07,6.39-3.56,9.21-1,15.76,0-2.36,1.35-6.61,4.46-8.32,4.46,7.65,0.78,13.07-8.73,21.43-5,2.94,1.31,7.88,7.08,7.42,10.74,0,0.23-3.39,7.2-5.43,5.4,3.3,2.81,9.94-8.52,10.8-10,3.84-6.51,6.7-12.14,13.35-16.19,6-3.66,13.34-4.88,20.07-6.47,7.64-1.8,7.53-2.31,6.78,5.33-1.18,12-8.26,24-17.83,31.44-7.12,5.52-12.85,4.31-21,3.66-6.87-.55-5.32.32-11,3.26A12.79,12.79,0,0,1-123.49,79a84.5,84.5,0,0,1,2.32,13.43,10.59,10.59,0,0,0-1.55-1.26,9.22,9.22,0,0,1,2.21,5.61q-0.44-1.61-1.5-.7a21.33,21.33,0,0,1,0,5.85c-2.34-6.64-.89,1.18-0.86,4.08,0.06,5.58-.66,11.44,0,17,1.33,10.53,7.59,19.3,16.18,25.32a53.18,53.18,0,0,1-9.07-10.58c8.21,3.84,17.78,2,26.18,5.8,5.28,2.41,14.91,6.82,17.76,10.65-4.39-5.79-10.85-9.24-17.2-12.42,31.34,9.45,59.83-20.43,91.62-12.7,25.41,6.18,47.49,14.76,42.17,44.11q0-2.65,0-5.29c0.28,5.42-1.93,13.07-3.69,18.18a24.83,24.83,0,0,0,.48-7.77c0.88,4-2.18,12.37-2.58,16.31-2.71-10.25,1,7.44.17,10-3.07-4-7-9.89-7.39-15.18s3.31-8,4.63-12.52c-0.51,2-3.92,5.18-4.72,7.17,0.41-2.4,8.08-13.53,2.35-7.26,1.71-2.7,6.9-5.65,5.59-9.66q-1.5.46-1,2.9c0.9-3.87-2.8-9.41.34-12-5.66,2.26-7.05,14.92-8.06,19.77,0-3.7,1.57-8.16.47-11.82,1.06,3.59-1.54,9.76-1.79,13.61a35,35,0,0,0,2.86,17.41C37.66,208.3,48.27,219,56.62,227.9c-0.09-.06-4.44-2.6-4.67-2.44-0.4.3,11.26,8.22,8.92,12.56h0Z" transform="translate(224.03 35.28)"/><path class="cls-4" d="M-114.37,181.89c0.35,0,.28-1.9,0,0C-114.32,181.89-114.32,181.61-114.37,181.89Z" transform="translate(224.03 35.28)"/><path class="cls-17" d="M-55.07,333.57c-4.26-15.9,2.35-34.46-1.09-51.11-3.12-15.12-2.29-33.5-1.8-50.3,0.28-9.8.72-19.94-1.22-29.62-1.41-7-3.5-20.08-8.77-24.71-9.56-8.39-16.4,4.76-24.48,8.31-9.23,4.05-13.73-2.65-21.22-6.45-1.21,3.51,1.87,5.43-2.11,5.54s-9.69-9-12.2-11.37c0,0,.09,7,0.13,7-3.41-2.36-9-19.58-12.62-18.21-3.87,1.44,2.82,19.68-3.72,7.84-4.86,13.94,13.65,30.67,21.07,40.14,8.56,10.94,16.58,8.72,28.14,11.39-8-7.33-10.93-17.28-17.88-25,6.42,6.08,9.93,14.47,16.25,20.71,5.76,5.69,11.54,9.59,16.06,16.49-1.46-3.5,2.54,4.32,2.84,4.9,2.27,4.39,4.66,8.71,6,13.48,2.33,8.16,3.25,16.78,5,25.07,0-1.43.11-4.16,1.5-5.07-3.69,2.49,1.94,25.22,2.33,29.28,1.15,11.84,4,28.21.57,39.9-1.07,3.67-6.66,8.22-7,11.56-0.4,4.47,9,5.65,12.33,2,1.84-2,.92-9.1,1.71-11.93,1.91-6.9,2.08-2.44.08-9.86h0Z" transform="translate(224.03 35.28)"/><path class="cls-4" d="M-114.45,182.61a7.93,7.93,0,0,0,0,1.46A5.63,5.63,0,0,0-114.45,182.61Z" transform="translate(224.03 35.28)"/><path class="cls-17" d="M60.25,232.55c-0.36-.43-9.63-6.05-8.3-7.08,0.23-.16,4.57,2.38,4.67,2.44-8.37-8.89-19-19.59-24.14-30.79a34,34,0,0,1-3-15.53c0.13-4.61,3.14-11.25,1.9-15.48,1.1,3.66-.45,8.12-0.47,11.82C32,172.81,33.37,160.4,39,158.15c-2.88,2.37.48,8.44-.34,12q-0.49-2.44,1-2.9c1.3,4-3.88,7-5.59,9.66,5.31-5.8-1.92,4.75-2.35,7.26,0.8-2,4.21-5.17,4.72-7.17-1.33,4.57-5,7.21-4.63,12.52s4.32,11.15,7.39,15.18c0.8-2.61-2.87-20.29-.17-10,0.4-3.93,3.46-12.33,2.58-16.31a24.83,24.83,0,0,1-.48,7.77c1.85-5.36,4-12.59,3.69-18.18q0,2.65,0,5.29c1.48-8.13,2.48-20.54-4.12-26.77-2.13,7.35-12.3,20-18.82,24.39-4.77,3.22-10.11,1.09-15.11,3.46-5.8,2.76-5.31,7.43-13.36,6.25-6.48-.95-7.17-4.15-14.06-1.52-5,1.9-9.36,4.26-14.62,5.62-10.12,2.62-21.78,3.88-29.94-4,0.74,6.5,5.38,13.09,7,19.53a93.63,93.63,0,0,1,2.34,21.33c7.63-1.9,19.37,1,27.37.94,4.38,0,9,.63,13.26-0.41,4.8-1.16,8.72-5.48,13.85-5.34-9.64-8.48-13.07-21.32-21.33-29.91,11.13,11.58,15.8,25.37,30.2,34.34,11.7,7.29,25,13.08,37.27,19.5-2.58,2-.87,1.37-1.69,1.09,5.9,8.69,2.2,25.19.79,34.7-2.16,14.59-4.7,29-8.24,43.29,0.3-2.42,1-4.78,1.36-7.19-1.68,6-4.65,9.8-8.86,14-3.65,3.67-7.29,3.9-3.43,7.33,4.88,4.35,13-2,15.43-4.68,1.06-1.17,4.21-8.46,4.73-10,0.25-.76,3.33-9.7.18-6.71,3-14.07,5.75-28.11,8.12-42.29,1.13-6.8,2.47-13.58,3.86-20.33,0.75-3.65,5.88-14.16,3.23-17.28h0Z" transform="translate(224.03 35.28)"/><path class="cls-9" d="M46.13,311.42c-2.48,2.3-.11-3.64.15-4.85-4.29,6.71-6.33,9.87-5.41,18.17,3.43-4.73,4.82-7.19,5.26-13.32C45.77,311.76,46.06,312.48,46.13,311.42Z" transform="translate(224.03 35.28)"/><path class="cls-5" d="M-159.55,116.73c6.91,0.74,8.82-3.65,14.46-6.06-7.41,3.39-7.35,7.37-17,7.42a15.22,15.22,0,0,0,2.8,5.52,12.69,12.69,0,0,1,.23-1.91c0.24,1.35,2.17,3.11,3.25,3.58a1.54,1.54,0,0,1-.56-2.06c1.18-1,2.73,2.83,4.25,2.26a11.86,11.86,0,0,0,6-4c0.66-.91,1.4-5.77,2.13-7.38,1.62-3.55,4.69-5,3.79-9.54-5.42.51-38.28,8.17-38.5,2.06-2.86,2.54-9.05,5.18-12.84,7.52-7.21,4.46-11.89,3.2-19.69,3.92,3.46,1.16,5.74,4.31,9.38,5,9.09,1.79,16.15-6.82,24.24-8.93-1.35.34-5.25,3.64-6.75,4.65,7-3.19,17.17-2.88,24.73-2.08h0Z" transform="translate(224.03 35.28)"/><path class="cls-5" d="M-209.23,116.54c7-1.68,23.3-1.57,27-9.84a12.94,12.94,0,0,0-2.38,1.15,0.14,0.14,0,0,0,.1-0.13c1.06-3.39,3.68-2,5.88-1.48-0.7-4.73-18.78,2.63-21.51,2.43q-0.71-1.93,1.58-3.27c-8.3-3.18-18.5,8.68-20.58-5.4-4.26,1.93-4.61,10.55-2.41,14.08,3.29,5.3,7,2.91,12.34,2.45C-208.46,116.35-209.7,116.58-209.23,116.54Z" transform="translate(224.03 35.28)"/><path class="cls-4" d="M-151.25,126.94q1.12-1.79-3.73-1.82c0.82,2.13-1,1.23-2,.41,1.53,7.39,0,47.84,7.68,50.08,4.64-15.7-9.94-33.46-2-48.67h0Z" transform="translate(224.03 35.28)"/><path class="cls-18" d="M41.14,186.12a56.88,56.88,0,0,0,2.2-28.63c-1.72,1.28-1.21-.33-0.88-1.83-7.67,5.79-1.86,6.15-3.8,14.49q-0.49-2.44,1-2.9c1.3,4-3.88,7-5.59,9.66,5.31-5.8-1.92,4.75-2.35,7.26,0.8-2,4.21-5.17,4.72-7.17-1.33,4.57-5,7.21-4.63,12.52s4.32,11.15,7.39,15.18c0.8-2.61-2.87-20.29-.17-10,0.4-3.93,3.46-12.33,2.58-16.31a24.83,24.83,0,0,1-.48,7.77C42,183.71,41.28,185,41.14,186.12Z" transform="translate(224.03 35.28)"/><path class="cls-5" d="M-96.08,220.92c-4.45-4.84-8.05-10.65-12.47-15.14-5.6-5.69-12.17-9.69-17.38-16.1,0.07,0.37,2.31,7.53,1.53,8.21-1.82,1.59-7.77-11.71-8.18-12.74,0,2.76,7.56,18.08,6.48,18.91s-5.06-4.47-5.19-4.61c1.92,7.11,13.32,18.89,20.41,21,3.46,1,10.63,2.06,14.16,1.2,0.65-.16,2.76,1.54.63-0.77h0Z" transform="translate(224.03 35.28)"/><path class="cls-5" d="M-12,204.69c-0.52-.74-23.58,2.3-26.13,2.37,5,4.15-13,1.1-14.07,1,6.1,5.23-.34,3.93-4.5,2.89,0.36,3.55.84,7,.87,10.55,7.63-1.9,19.37,1,27.37.94,4.38,0,9,.63,13.26-0.41,4.8-1.16,8.72-5.48,13.85-5.34a68.36,68.36,0,0,1-10.65-12h0Z" transform="translate(224.03 35.28)"/><path class="cls-5" d="M32.79,183.48c-2.24,5.75.34,11.7,3.32,16.7-2.44-6.81-1.6-12.38.7-18.88,0.49-1.4,2.73-9.4,4-6.45,0.32-5.94,1.6-10.6-2.2-15.86-1.23,3.93,1,7,0,11.16q-0.49-2.44,1-2.9c1.3,4-3.88,7-5.59,9.66,5.31-5.8-1.92,4.75-2.35,7.26,0.8-2,4.21-5.17,4.72-7.17a45.47,45.47,0,0,0-3.66,6.49h0Z" transform="translate(224.03 35.28)"/><path class="cls-4" d="M-127.88,70.36c0.56-.29,4.1-2.64,3.83-3.37-0.23.24-4.84,3.93-3.83,3.37C-127.31,70.06-128.05,70.46-127.88,70.36Z" transform="translate(224.03 35.28)"/><path class="cls-4" d="M-123.66,67.95c-2.17,2.12-5,2.84-7.3,4.59,1.15-.25,6.12-0.65,6.12-0.61-0.11,1-3.62,3.71-4.1,4.46,5.82-3.05.17,2.74-.26,5.53,8.59-8,19.1,1.34,29.37-4.4,10.11-5.65,18.34-18.88,20.43-30,0.39-2,2.18-9.12.9-10.36-1.71-1.65-16,3.34-18.56,4.19-6.09,2-11.68,4.67-15.92,9.62-4.06,4.74-5.55,13.36-10.67,17C-124.29,68.56-123.5,67.83-123.66,67.95Z" transform="translate(224.03 35.28)"/><path class="cls-5" d="M-123.66,67.95c-2.17,2.12-5,2.84-7.3,4.59,1.15-.25,6.12-0.65,6.12-0.61-0.11,1-3.62,3.71-4.1,4.46,5.82-3.05.17,2.74-.26,5.53,8.59-8,19.1,1.34,29.37-4.4,10.11-5.65,18.34-18.88,20.43-30,0.39-2,2.18-9.12.9-10.36-1.71-1.65-16,3.34-18.56,4.19-6.09,2-11.68,4.67-15.92,9.62-4.06,4.74-5.55,13.36-10.67,17C-124.29,68.56-123.5,67.83-123.66,67.95Z" transform="translate(224.03 35.28)"/><path class="cls-7" d="M-112.94,72.89c10.62,2.46,17.44-2.07,23.62-10.47,5.51-7.48,4.15-14.65,7.63-22.62-11.66,5.58-22.51,6.34-27.89,19.87A3.56,3.56,0,0,1-107,57.31c1,0.28-3.16,6.71-3,6.47q1.22-2.31,3.27-2.1c0.58,0.83-3.58,4.33-3.75,4.47q3.1-1.53,5.22.17a3,3,0,0,1-2.63,2c6.92-1-4,4.2-5,4.59C-111.16,73.3-110.25,71.87-112.94,72.89Z" transform="translate(224.03 35.28)"/><path class="cls-9" d="M-100.75,42.73l-2.17.88c0.07,1,8.77-.94,10.1-0.54,5.44,1.63.88,3,3.41,5,3.65,2.79,6.8-3,4.89,5.27,4.1-2.29,8.93-8.34,6-14.16C-80.64,35-95.3,40.5-100.75,42.73h0Z" transform="translate(224.03 35.28)"/><path class="cls-19" d="M-204.65,117.06c1-.2,13.55-2.69,13.76-3.83-4.83,3.57-7.34,5.13-13.76,3.83C-204.36,117-202.93,117.41-204.65,117.06Z" transform="translate(224.03 35.28)"/><path class="cls-20" d="M31.37,185.13c-0.24.65-.16,0,0,0C31.33,185.23,31.32,185.13,31.37,185.13Z" transform="translate(224.03 35.28)"/><path class="cls-21" d="M22.54,334.4c-1,2.36-2.1,7.55-1.83,10.35,0,0.36,1.74-10.17,1.83-10.35C21.94,335.89,22.56,334.37,22.54,334.4Z" transform="translate(224.03 35.28)"/><path class="cls-21" d="M-70.18,357.26c-0.48,2.54-3.31,6.62-1.92,9.27-0.64-1.22,1.71-7.29,1.92-9.27C-70.28,357.75-70.18,357.24-70.18,357.26Z" transform="translate(224.03 35.28)"/><path class="cls-10" d="M-82.91,39.75c-7.1,3.43-14.42,3.49-20.24,9.38-1.09,1.1-6.38,10.81-6,10.73A7.72,7.72,0,0,0-107,58.21c-0.14.56-2.86,5.13-2.32,5.05a10,10,0,0,0,2.15-1c0,0.13-3.19,3.55-3,3.82,0.71,0.83,2.59.15,3.46,0.2,0.4,0-2.81,2.44-2.13,2.44a7.41,7.41,0,0,0,3-.65c-1.25.25-7.27,3.73-8.16,4.42-0.34.26,2.11,1.24,2.12,1.7-4.21.61-5.93-1.27-2.4,1.58-1.62-.94-11.11-1.16-11.11,1.41q0.18-.16-0.18.32c1.22-3.17,15.5-.68,10.73-2.79,0.48,0,3.39.34,3.5-.26,0.27-1.56-.64-1.32-1.34-1.91,0.8-.18,9-3.85,7.61-5a4.22,4.22,0,0,0-2.19.27,3.31,3.31,0,0,0,1.55-1.84c-0.24-.74-3.69-0.25-3.68-0.25,0.78-.81,5.21-6.12.91-3.54a8.46,8.46,0,0,0,2.21-4.3q-1.47-1.32-2.25.8c6.36-11.38,14.72-13.75,25.55-18.91C-85.7,41.09-82.72,39.66-82.91,39.75Z" transform="translate(224.03 35.28)"/><path class="cls-22" d="M-199.89,103.91c0.2,3.36-4.35,2.76-6.69,3.65-2.93,1.11-9.69,5.66-12.1,4-2.82-1.91.17-6.72-3.69-8.66,1.07,0.58,4.06,14.82,4.69,14.45s-3.09-2.83-.07-4.06c0.31-.13,3.8-1.8,3.09-1.25,0.7-.54,18.38-3.62,14.78-8.16C-199.88,104.11-199.45,104.47-199.89,103.91Z" transform="translate(224.03 35.28)"/><path class="cls-3" d="M-18.68,133.23c-3.05,8.18-7,15.93-9.09,24.48-0.34,1.38-2.32,16.62-.05,15.68,0.16-.07,2.62-19.05,3-20.71,1.67-6.59,4.08-13.14,6.1-19.45C-19.86,136.37-18.67,133.18-18.68,133.23Z" transform="translate(224.03 35.28)"/><path class="cls-5" d="M-173.27,63c-4-.71-5.76,6.73-6.86,8.77-0.75,1.38-6.73,8.2-6.69,8.8,0.17,2.47,11.72-5,12.48-6.64s0.33-11,1.07-10.92C-174,62.86-173,63-173.27,63Z" transform="translate(224.03 35.28)"/><path class="cls-23" d="M-178.31,65.73c-2,.72-6.48,11.09-9,13.2-2,1.71-5.64,2.34-7.78,5,3.29-4.13,13.1-3.39,15.69-7.87,1.1-1.9-.79-9.69,1.06-10.32C-178.91,65.95-178.27,65.72-178.31,65.73Z" transform="translate(224.03 35.28)"/><path class="cls-19" d="M-180,70.27c-0.38,4-1.58,8.7-7,8.93,1.48-2.3,4.07-3.94,5.68-6.16,0.75-1,1.61-6,1.29-2.76C-180.08,71.52-179.91,69.79-180,70.27Z" transform="translate(224.03 35.28)"/><path class="cls-24" d="M-178.83,64.91c-6,1.34-.26,8.59-2.18,11.14,1-1.11,1.93-11.08,2.18-11.14h0Z" transform="translate(224.03 35.28)"/><path class="cls-25" d="M-169.66,72.91c-1-.71-1.49.18-2,0.1a4.71,4.71,0,0,1,.87.17c-0.24,0-5.82,5.23-6,5.33-4.84,3-19.61,13.23-24.79,13.23-4,1.83-8.9,3.79-10.93,6-1.44,1.58-7,3.65-.32,6,0.71,0.24,22.36-.46,12.38-4.3,2.34-.2,5.55-0.45,3.19-2.93,7.56-3.1,16-11.12,22.29-16.37,1-.85,2.6-1,3.43-2.81-0.62,1.33,1-5,1.88-4.4h0Z" transform="translate(224.03 35.28)"/><path class="cls-25" d="M-169.5,71c-0.24,0-.51.48-0.21,0.48S-169.2,71-169.5,71Z" transform="translate(224.03 35.28)"/><path class="cls-25" d="M-157.75,63.08c-1.6-.64-13.52,0-9.15,1-2.62.55-2,2.78-2.12,4.09,0-.38,9.68-4,8.56-4.25-2.43,1.22,3.84-.37,2.71-0.83C-159.31,62.45-157.62,63.13-157.75,63.08Z" transform="translate(224.03 35.28)"/><path class="cls-15" d="M-166.47,61c4.2,2.68,18.2-3.51,21.47-5.38-5.41-.81-8.1-3.39-13.84-1.36-1,.36-9.41,5.59-7.63,6.75C-165.44,61.64-166.74,60.8-166.47,61Z" transform="translate(224.03 35.28)"/><path class="cls-15" d="M-126.06,61.51c-7.16-16.43-17,.79-26.26-1.23,1.24,1.36,4.16-1.15,5.39-.75,4.17,1.36,5.73,4,9.95,6,2.47,1.17,10.8.72,7.76,5.52,5.49-2.18,5.3-4.57,3.16-9.49h0Z" transform="translate(224.03 35.28)"/><path class="cls-15" d="M-159.55,116.73c9,1,14.71-6.73,20.17-12.69-4.4,1.17-6.76,6-11.66,7.34-1.56.42-11.65,0.93-10,0-0.49,0-10.88,2.25-7-.27-3.64-.2-7.29,2.55-1.1-1.81-1.91.74-14.08,7.56-15.33,4.38-1.64-4.16,8.22-5.86,9.75-6.33-5.57-1.94-7.38-5.12-12.43.63q1.58-1.11,1.67,0c-2.57,2.62-21.62,9.32-22.32,4.85-0.48-3.06,11.05-3.35,8.24-9.55-0.81,1.86-14.38,7.33-15.78,7-4.91-1.19-2.47-6.6-6.37-8.22-1.56,2.74-1.62,10.14.42,12.85,3.07,4.08,6.11,2.38,10.55,1.75,7.14-1,24.71-1.68,28.39-10a12.94,12.94,0,0,0-2.38,1.15,0.14,0.14,0,0,0,.1-0.13c1.07-3.41,3.72-2,5.93-1.46-3-.7-10,6.11-12.86,7.9-7.21,4.46-11.89,3.2-19.69,3.92,3.46,1.16,5.74,4.31,9.38,5,9.09,1.79,16.15-6.82,24.24-8.93-1.35.34-5.25,3.64-6.75,4.65,7-3.19,17.17-2.88,24.73-2.08h0Z" transform="translate(224.03 35.28)"/><path class="cls-15" d="M-155.86,125.25s-0.94-1.62-.48-2c0,0,8.11,3.33,9.48,3.55,4.16,0.66,7.12.69,11.21-1.72-3.24.57-7.29,1.24-10.35-.49l6.29-1.72c-3.63,0-8,.25-10.68-2.77q0.43-1.74,2.83-1.9c-6.7.28,0.15-2.3,2.4-4.68-3.93,1.1-2.1-.07-0.16-2.45-5.29,6.08-9,7-16.73,7.06a15.22,15.22,0,0,0,2.8,5.52,12.69,12.69,0,0,1,.23-1.91c0.2,1.12,2.21,3.4,3.17,3.55h0Z" transform="translate(224.03 35.28)"/><path class="cls-6" d="M60.25,232.55c-0.36-.43-9.63-6.05-8.3-7.08,0.23-.16,4.57,2.38,4.67,2.44-8.37-8.89-19-19.59-24.14-30.79a34,34,0,0,1-3-15.53c0.13-4.61,3.14-11.25,1.9-15.48,1.1,3.66-.45,8.12-0.47,11.82C32,172.81,33.37,160.4,39,158.15c-2.88,2.37.48,8.44-.34,12q-0.49-2.44,1-2.9c1.3,4-3.88,7-5.59,9.66,5.31-5.8-1.92,4.75-2.35,7.26,0.8-2,4.21-5.17,4.72-7.17-1.33,4.57-5,7.21-4.63,12.52s4.32,11.15,7.39,15.18c0.8-2.61-2.87-20.29-.17-10,0.4-3.93,3.46-12.33,2.58-16.31a24.83,24.83,0,0,1-.48,7.77c1.85-5.36,4-12.59,3.69-18.18q0,2.65,0,5.29c5.32-29.29-16.74-37.93-42.17-44.11-31.8-7.73-60.25,22.16-91.62,12.7,6.37,3.18,12.8,6.61,17.2,12.42-2.72-3.65-12.76-8.37-17.76-10.65-8.39-3.82-18-2-26.18-5.8a53.18,53.18,0,0,0,9.07,10.58c-8.59-6-14.85-14.78-16.18-25.32-0.64-5.08.09-10.27,0.12-15.36,0-2.39-2-13.26.71-5.71a21.33,21.33,0,0,0,0-5.85q1.06-.91,1.5.7a9.18,9.18,0,0,0-2.21-5.61,10.26,10.26,0,0,1,1.55,1.26A84.5,84.5,0,0,0-123.49,79a12.79,12.79,0,0,0-5.32,3.18c1.65-.85,3.07-3.4,5.31-4.06,4.55-1.34,10,2.31,14.89,1.91,10.47-.86,18.08-9.76,23.37-18.19,2.31-3.69,10-18.5,6.83-23.44-2.15-3.37-19.72,3-24,5-14.3,6.63-17.41,32.55-35,27.59-7.35-2.08-12.87-4.15-19.94,2-4.3,3.73-5.56,9-8,13.86-2.82,5.74-7,9.25-10.64,14.42-0.61.13,10.81-3.68,8.25-1.55,3.67-1.14,6.82-3.49,10.18-5.28q-1.93.83-2-.44c4.77-4.14,12.31,2.63,18.35-.18,2.54-1.19,10.89-8.88,10.24-11.27,0.86,3,.53,7.92-1.3,10.61,3-2,4.07-5.12,2,1.16q0.79-3.45,3.11-3.14A116,116,0,0,1-129,112.4q0.16-3.29,2.16-3c-1.23,17.6,3.89,36.29,22.7,42.55q-3.77-1.29-2.66-3.21a0.52,0.52,0,0,1,.4-0.36A129.36,129.36,0,0,1-89.9,162.13q-2.09-1.58-.8-2.53c15.14,13.7,20.63,35.37,24.54,54.63,2.32,11.47-.27,21.6.82,32.91,0.33,3.42,6.85,22.26.18,22.94-3,.26-5.56-22.93-6.1-25.12-3.11-12.55-11.57-22.9-21-31.51-8.59-7.84-14-18.11-22.7-25.57-8.31-7.1-13.58-14.66-15.74-25.81-2.3,4.57,3.82,16.07,5.75,20,3.29,6.71,9.78,13.15,11.19,20.63-0.17-.9-13.25-3.49-14.83-4.65-4.29-3.14-5-8.2-7.7-12.41-3.13-4.89-8.22-8.11-11.25-13.08-3.27-5.36-5.14-12.15-6.8-18.18-0.11,20.66,12.85,32.6,24.84,47.47,5.64,7,9.38,15.83,18.65,18.63,5.17,1.56,11.15.44,15.9,1.53-8-7.33-10.93-17.28-17.88-25,6.42,6.08,9.93,14.47,16.25,20.71,5.76,5.69,11.54,9.59,16.06,16.49-1.46-3.5,2.54,4.32,2.84,4.9,2.27,4.39,4.66,8.71,6,13.48,2.33,8.16,3.25,16.78,5,25.07,0-1.43.11-4.16,1.5-5.07-3.37,2.28,1.64,23.68,2.06,27.07,0.13-2.8-2.23-12.69,2.16-13.13,4.2-.41,3.62,18.88,3.58,20.21-0.27,8.21-2.45,17.49-1.43,25.68,0.75,6,2.4,9.48-1.13,15.38-1.68,2.81-10.35,6.93-10.36,6.91,0.37,3.59,11.79,2.68,13.62.51,1.45-1.73,1.4-10.41,1.9-13,0.53-2.71,2.15-1.66,2.24-5,0-1-2.49-4-2.77-5.54-2.22-12.34,1.94-25.88.82-38.42-1.09-12.23-4.09-21.72-3.9-34.76,0.2-13.25,1.24-26.83.67-40.06A100.22,100.22,0,0,0-61,196.63c-0.93-3.53-6-14.52-4-17.7-1.44,2.12,4.82,15.2,5.53,17.53a87.87,87.87,0,0,1,3.63,25c7.63-1.9,19.37,1,27.37.94,4.38,0,9,.63,13.26-0.41,4.8-1.16,8.72-5.48,13.85-5.34-9.64-8.48-13.07-21.32-21.33-29.91,11.13,11.58,15.8,25.37,30.2,34.34,11.7,7.29,25,13.08,37.27,19.5-2.58,2-.87,1.37-1.69,1.09,5.9,8.69,2.2,25.19.79,34.7-2.16,14.59-4.7,29-8.24,43.29,0.3-2.42,1-4.78,1.36-7.19-1.68,6-4.65,9.8-8.86,14-3.65,3.67-7.29,3.9-3.43,7.33,4.88,4.35,13-2,15.43-4.68,1.06-1.17,4.21-8.46,4.73-10,0.25-.76,3.33-9.7.18-6.71,3-14.07,5.75-28.11,8.12-42.29,1.13-6.8,2.47-13.58,3.86-20.33,0.75-3.65,5.88-14.16,3.23-17.28h0ZM-93,69c-3,3.39-3.71,6.68-9.1,8.79-4.7,1.84-11.28-1.75-14.18-.73a14.91,14.91,0,0,1,6.9.14c0.85,0.73-3.57-1.55-2.62-1.75,8.14-1.77,12.52,1.08,19-6.45h0Zm-30.92,4.7c4.82-6.43,12.33-34.11,25.41-29.73-3.46-1-14.57,15.8-16.3,18.8,8.77-4.35,2.8,1,0,3.31,9.06-4.75,1.74,1.6-.52,3,12-2.89-.73,2.05-3,2.66a3,3,0,0,1,3.09,1.35s-8.48.39-8.64,0.59C-122.14,71.29-124,73.75-123.92,73.67Zm92.59,71.25c-3.75,8.83-14.8,22.6-25.72,20.57-4.08-.76-19.59-12.62-15.78-17.6,1.58-2.06,6.73.87,7.78,0.88,5.17,0,9.59-1.26,14.4-3,2.85-1,23.39-10.51,19.31-.85h0Zm73.82,90.29c-16.54-9.12-36.9-14.64-48.14-30.87q1.64,1.91.27,2.73c-14.39-11.75-23.8-34.45-20.29-52.52,1.4-7.2,4.77-19.07,14.45-18.18,7.59,0.7,18.44,11.57,23.9,16.59,6.9,6.35,11.08,12.16,10.47,21.73-0.7,11.2-2.51,18.35,4.93,28.24,6,7.92,16.91,13.64,20.67,22.93,2.49,6.15,1.72,13.74-6.26,9.33h0ZM56.62,243c-4.16,8.84-4.23,19.41-6.12,29-2.3,11.63-5.86,23.25-7.13,35-0.79,7.37-1.9,16.53-7.31,22.19-1.35,1.41-3.74,3-5.87,2.71-5.94-.77-1.5-2.37-0.25-5.13,1.33-3,5.75-5.6,7.36-9.17,1.93-4.28,2.45-9.46,3.39-14,2-9.62,4.4-19.26,5.64-29a125.11,125.11,0,0,0,1.28-19.41c-0.1-3.18-1.6-7-.64-10.09,1.62-5.27,14.28-11.94,9.66-2.1h0Z" transform="translate(224.03 35.28)"/><path class="cls-15" d="M-73.14,192c0.18,0.67.33,1.35,0.46,2A10.25,10.25,0,0,0-73.14,192Z" transform="translate(224.03 35.28)"/><path class="cls-10" d="M-83.75,51A49.64,49.64,0,0,1-95.51,68c-1.58,1.47-13.73,10.21-15.95,4.9,2.27,5.65,14.61-1.89,16.75-3.77,5.29-4.66,8.58-11.77,11-18.09C-84,51.72-83.75,51-83.75,51Z" transform="translate(224.03 35.28)"/><path class="cls-8" d="M-90.16,61.22c-3.17,3.43-8.79,8.91-14.1,7.68-0.15,0,6.07-6.81,6.52-7.38a18.27,18.27,0,0,1-7.16,2.24q-0.49-1.67,2.1-2.42-1.68,1.4-2.74.38a31.5,31.5,0,0,1,3.32-7.28c-5.81,2.48,1.16-6.3,2.25-7.38a28.77,28.77,0,0,0-9.61,12.6A3.56,3.56,0,0,1-107,57.31c1,0.28-3.16,6.71-3,6.47q1.22-2.31,3.27-2.1c0.58,0.83-3.58,4.33-3.75,4.47q3.1-1.53,5.22.17a3,3,0,0,1-2.63,2c6.92-1-4,4.2-5,4.59,14.23,3.3,27.78-9.58,29.56-23.59a31.82,31.82,0,0,1-6.78,11.93h0Z" transform="translate(224.03 35.28)"/><path class="cls-10" d="M42.09,162.67c0.35,3.74,1.84,9.68-.37,13-0.06-.37-1-2.22-1.56-1.79s-3.77,10.58-3.91,11c-1.05,3.47-2.82,12.21.29,15.27-3.59-3.46,2.7-18.93,4.73-22.39q-0.41-.33-0.57.28c0.32-1.57,1.07-.18,1.62-1.9,1.59-4.9,1-8.13-.22-13.55C42.27,164.58,42.82,166,42.09,162.67Zm-3.65,18.71c0.43-1,.38-0.63,0,0C38.53,181.17,38.55,181.2,38.44,181.38Z" transform="translate(224.03 35.28)"/><path class="cls-10" d="M40.73,208.58c-4.79-7.13-12.27-24.07-10.79-28.17,0.07-.46,1.59-7.81.29-5.22,0.24-.93,5.39-13,5.22-13.11-0.56-.33-1.39,1.06-1.69,1.35,6.12-9-1.38,2.45-1.45,2.63a41.62,41.62,0,0,0-3.41,13.78c-0.51,11,6.38,20.72,11.84,28.74C38.63,205.45,40.94,208.88,40.73,208.58Z" transform="translate(224.03 35.28)"/><path class="cls-12" d="M-40.38-16.61a4.49,4.49,0,0,0-2,4.41c-0.35-.91,1.82-4.19,2-4.41C-41.52-15.53-40.19-16.8-40.38-16.61Z" transform="translate(224.03 35.28)"/><path class="cls-26" d="M-37.9-30.76c1-3.9-.75,1.2-0.9,1.65-1,3.2-1.29,6.88-1.88,10.17C-42.18-10.41-43,.19-47.93,7.53-55.09,18.2-71.16,15-82.29,15.11c-13.67.11-26.81,2.24-37.88,10.95-7.66,6-23.29,23.16-19.66,34.14-1.31-1-1.65-2.28-2.45-3.63,4,4.78,6.4,14,15.46,7.93,0.22,0.24-9.67.2-4.84,0.91,8.49-1.64,15.89-23.15,21.74-29.12,9.5-9.69,20.7-10,33.34-11.24,10.28-1,24-1.11,31.18-9.67C-36,4.26-37.54-17.35-37.9-30.76-37.89-30.8-37.76-25.55-37.9-30.76Z" transform="translate(224.03 35.28)"/><path class="cls-12" d="M-40.15-1.75c-2.49,15-8.7,21.54-23.5,24.41-12.16,2.36-29.81-1.4-39.81,6.93a22.83,22.83,0,0,1,4.19-1.7c-9.46,4.12-14.58,11.67-20,20-2.59,4-8.4,17.39-14.68,16.45-18.7-2.81,13.69-36.74,19.42-40.18,18.41-11.06,37.49-2.82,56.86-8,16.76-4.51,16.37-28.81,19.07-42.93a135.16,135.16,0,0,1-1.54,25h0Z" transform="translate(224.03 35.28)"/><path class="cls-27" d="M-38.61-26.78c-1.55,8.27-2.72,14.31-4.14,21.71a0.8,0.8,0,0,1,1-.54C-40.87-3.8-43.64.63-43.83,0A23.5,23.5,0,0,1-44.9,4q0.49-1.22,1.49-.69c0.84,3-5,7.52-6.82,9.24,3.55-1.54-.06,2.64-1.36,3.33-1.86,1-4.12.07-6.09,0.26-8.66.84-17.23,0.61-25.91,0.7C-99.2,17-113.17,20.62-124.44,32a66.74,66.74,0,0,0-12.23,17.74c-2.48,5-3.83,18.09,6.23,13.95,5.45-2.24,10-14.16,13.3-19.12,4.77-7.14,9.77-13.09,17.87-16.62a22.83,22.83,0,0,0-4.19,1.7c11.58-9.66,33.13-4,47.2-8.7,18.87-6.27,18-31.09,17.64-47.67C-38.68-26.4-38.55-23.79-38.61-26.78ZM-130,58.58c-3.35,2-10.74.74-6-3,2.85-2.29,11.52-.28,6,3h0Zm0.47-7.38c-7.32,2-5.68-6.13-.64-7.84,7.46-2.53,7,6.13.64,7.84h0Zm16.38-17.9c-2.8,4.25-17,9.38-11.87,1,1.84-3,15.21-6,11.87-1h0Zm9.39-7.23c-6.59,2.74-12.28-.32-4.18-3.92,5.77-2.57,12,.61,4.18,3.92h0Zm24.36-6.37c-4.66,4.4-22.9.74-9.61-2.08-1.16.25,11.75,0.06,9.61,2.08h0Zm19.58-1.26c-2.63,2.8-10.1,3.69-12.74.39-1.07-1.33,14.45-2.23,12.74-.39C-61.36,20.09-59.64,18.27-59.81,18.45Z" transform="translate(224.03 35.28)"/><path class="cls-27" d="M-41.63-6.77C-38.86-6.37-42.8,9.32-47.44,11c5.12,3-19.12,11.08-23.08,10.76-6.39-.52-4.21-1.27-11,0.24a30.46,30.46,0,0,1-16.18-.91c5.21,7.1-13.14,6.57-15.69,7.36,9.54,6.58-7.95,10.12-11.38,12.9,10.84,2.79-1.47,9.84-6.4,11.75,11.2,3.36-2,9.68-7.84,6.41,5.95,13.3,15.31-4.92,18.55-9.89,5.78-8.88,11-17.35,21.15-21.75a22.83,22.83,0,0,0-4.19,1.7c11.33-9.45,32-4.09,45.72-8.23C-40,16-39.2-2.14-38.63-18.32c-0.62,3.86-.59,8.23-3,11.55C-40-6.53-39.15-10.18-41.63-6.77Z" transform="translate(224.03 35.28)"/><path class="cls-28" d="M-120.67,51.28c-4.33,2.39-8.22-.11-12.76.58-1,.16-10.82,4.63-6.5,5.82-2.62-.71,9.52-3.66,9.75-3.67a21.81,21.81,0,0,0,9.51-2.73C-121.41,51.69-120.32,51.09-120.67,51.28Z" transform="translate(224.03 35.28)"/><path class="cls-28" d="M-126.3,58.81c-0.62.51-12.43,4.14-12.22,2.06-0.62,6.45,12.25-2.09,12.22-2.06h0Z" transform="translate(224.03 35.28)"/><path class="cls-28" d="M-112,38.21c-4,4.48-12.85.77-17.84,2.27-1.67.5-8.39,7.19-6.31,7.06,0.67,0,1.34-3.46,2.4-3.77,8.15-2.41,16.7,0,21.75-5.56C-114.09,40.6-111.72,37.95-112,38.21Z" transform="translate(224.03 35.28)"/><path class="cls-28" d="M-99.66,28.63c-5.2.25-27.09-6.26-27.09,4.64a12,12,0,0,1,6.15-4c4.57-1.53,8.6.3,13.15,0.5,1.61,0.07,7.52-1.13,7.78-1.14h0Z" transform="translate(224.03 35.28)"/><path class="cls-28" d="M-83.75,25.28c-7-.05-8.53-3.32-14.65-5.91-5.75-2.44-6.37-.18-10.84,1.4,5.83-2,8.19.28,13.66,2.72,4.83,2.15,7.55,1.73,11.83,1.8C-86.24,25.26-83.37,25.28-83.75,25.28Z" transform="translate(224.03 35.28)"/><path class="cls-28" d="M-60.34,22.3c-7,2.74-10.92-2.5-16.51-5.32s-8.21-1.86-13.55-1.44c11.95-1,18.66,11.19,30.07,6.76C-62.83,23.27-59.89,22.12-60.34,22.3Z" transform="translate(224.03 35.28)"/><path class="cls-28" d="M-46.68,16.07c-7.27,3.7-15.11-1.83-22.56-.32,5.44-1.06,9.4,3.12,14.51,3.41,4.57,0.26,5.21-1.66,8-3.09h0Z" transform="translate(224.03 35.28)"/><path class="cls-28" d="M-40.61,5.66c0.73,4.19-11.61,4.36-13.27,7.83,1.92-4.06,14.61.32,13.27-7.83C-40.66,5.35-40.15,8.45-40.61,5.66Z" transform="translate(224.03 35.28)"/><path class="cls-28" d="M-38.72-6.33C-36.47-1-49,1.55-47,6.25c2-4,10.72-6.53,8.27-12.57C-38.81-6.56-37.66-3.72-38.72-6.33Z" transform="translate(224.03 35.28)"/><path class="cls-28" d="M-37.5-13.36c0,0.19-8,11.42-6,10.71,1-.31,6.18-9.45,6-10.71C-37.57-13.74-37.12-11.11-37.5-13.36Z" transform="translate(224.03 35.28)"/><path class="cls-28" d="M-37.39-21q-0.34-1.82-1.31-1c0.07,2.81-5.73,8.33-3.62,10.8-1.2-1.45,5.52-7.32,4.92-9.79h0Z" transform="translate(224.03 35.28)"/><path class="cls-12" d="M-132.08,52c-2.87-.77-7.28.78-8.3,3.83,0.73-2.13,6.51-4.37,8.3-3.83C-135.08,51.22-131.95,52.06-132.08,52Z" transform="translate(224.03 35.28)"/><path class="cls-12" d="M-118,40.78c-4,.21-15.44-2-17.44,3.33C-133.85,40-120.55,41-118,40.78-121.58,41-117.86,40.77-118,40.78Z" transform="translate(224.03 35.28)"/><path class="cls-12" d="M-114.64,27.36c-3.71-.29-8,0.75-10.77,3.36,2.08-1.87,8-3.63,10.77-3.36C-118.5,27.06-114.45,27.38-114.64,27.36Z" transform="translate(224.03 35.28)"/><path class="cls-12" d="M-97.89,20.43c-2.9-2.55-5.74-2.5-8.91-1.19,2.6-1.12,7-.48,8.91,1.19C-100.41,18.22-97.79,20.52-97.89,20.43Z" transform="translate(224.03 35.28)"/><path class="cls-12" d="M-74.06,19.51c-3.54-2.88-9.44-6.77-14.15-4.12,3.75-1.94,11.36,1.92,14.15,4.12C-75.21,18.57-74,19.59-74.06,19.51Z" transform="translate(224.03 35.28)"/><path class="cls-12" d="M-54,17.9c-2.28-.87-5.32-1.67-7.49-2.46,1.57,0.49,6.24,2,7.49,2.46C-55.33,17.4-53.83,18-54,17.9Z" transform="translate(224.03 35.28)"/><path class="cls-12" d="M-47.83,10.48a18.82,18.82,0,0,0-3.29.87c0.61-.13,2.83-0.84,3.29-0.87h0Z" transform="translate(224.03 35.28)"/><path class="cls-12" d="M-42.8.81a6.14,6.14,0,0,0-3.86,4.47C-46.73,4.14-43.12,1-42.8.81h0Z" transform="translate(224.03 35.28)"/><path class="cls-12" d="M-41.44-7.82a3.86,3.86,0,0,0-2.35,3.9c-0.47-.76,2.31-3.87,2.35-3.9C-42.39-7-41.33-7.91-41.44-7.82Z" transform="translate(224.03 35.28)"/><path class="cls-29" d="M-137.1,56.36a1.75,1.75,0,0,0-.81,2c0.07,0.15,1.3-2,.81-2h0Z" transform="translate(224.03 35.28)"/><path class="cls-29" d="M-130.14,43.67a12.45,12.45,0,0,0-3.72,5.52c0,0.1,3.63-5.45,3.72-5.52C-131,44.36-130,43.58-130.14,43.67Z" transform="translate(224.03 35.28)"/><path class="cls-29" d="M-120.09,31.06c-1.86-.19-4.91,4.13-5.64,5.42-0.5.89,4.91-5.48,5.64-5.42h0Z" transform="translate(224.03 35.28)"/><path class="cls-29" d="M-106.47,21.53a11.23,11.23,0,0,0-6.13,3.42s6.33-3.47,6.13-3.42h0Z" transform="translate(224.03 35.28)"/><path class="cls-29" d="M-89.87,17.78q-3.24-.77-3.77,1.28,3.54,1,3.77-1.28C-91.14,17.95-89.52,17.74-89.87,17.78Z" transform="translate(224.03 35.28)"/><path class="cls-29" d="M-42.48-3.92c0,0.39.23,3,0,0C-42.49-4.11-42.44-3.46-42.48-3.92Z" transform="translate(224.03 35.28)"/><path class="cls-29" d="M-44.92,5.1q-1.64,1.21-.72,2,2.11-2.39.72-2C-45.08,5.74-44.9,5-44.92,5.1Z" transform="translate(224.03 35.28)"/><path class="cls-29" d="M-51.58,14.24c-0.21.1-2.41,1.46-2.79,1.34,1.73,0.59,2.15-1,2.79-1.34h0Z" transform="translate(224.03 35.28)"/><path class="cls-29" d="M-66.06,18.16q-1.87-.69-2.42.56,2.5,1,2.42-.56h0Z" transform="translate(224.03 35.28)"/><path class="cls-26" d="M-120-27.87c-0.09-2.45-.11-4.92-0.14-7.36l-0.8,0c-2.27,2.62-2.46,10.16-3.5,13.28A32.65,32.65,0,0,1-134.4-6.8c-6.4,5.64-14,7.81-21.6,11.51-12.68,6.18-26.75,16.68-20.44,32.88,2.08,5.34,7.88,8.68,10.15,13.65,0.52,1.14,1.48,8.05,1.83,8.32-1.61-.16-2.64-0.79-1.89-2.35-4.4,6,13,1.88,15.49-1.34a0.3,0.3,0,0,0,.07.46c4.19-.19-8.8-18.34-9.47-19.41-6.94-11.12-6.29-16.78,5.51-23C-137.38,4.7-118.82-4.58-120-27.87-120-28-119.9-25.59-120-27.87Z" transform="translate(224.03 35.28)"/><path class="cls-12" d="M-123.5-15.35c-2.91,10.58-10.56,17.81-20,22.61-7.18,3.64-17.12,6.09-21.83,13.13,2-9.67-1.37.8-1.63,2.47-0.79,5.17,1.71,9.06,4.24,13.29,3.57,6,14.65,14.74,9.42,20.67-9.49,10.77-12.81-7.73-16.4-12.34-15.43-19.84.92-32,18.7-40.26,8-3.72,16.09-7.59,21.86-14.64,5.59-6.83,5.41-14.49,8.13-22.29a61.1,61.1,0,0,1-2.45,17.35h0Z" transform="translate(224.03 35.28)"/><path class="cls-27" d="M-121-32.7c-4.58,13.08-5.38,23.31-18.61,31.14,4.47-.51.32,4.9-2.61,4.21-1.67-.38,1.86-3.43,2.32-4-11.64,7.16-31,10.23-35.55,24.94-2.63,8.55.77,14.52,5.75,20.92,2.37,3,4.1,9.17,5.6,11.06,0.64,0.81-.23,2.69,2.12,3.88,1,0.49,8-1.88,8.68-2.6,3.38-3.81,2.21-2.26.75-6.54-2-5.94-9.21-11.35-12.07-17.21-2.23-4.57-2.25-7-1.84-11.82,0.15-1.73,3-9.86,1.12-.86,6.44-9.62,20.83-10.68,29.63-17.41C-124.69-5.48-121-19.52-121-32.7-121.11-32.5-121-30.16-121-32.7Zm-50.4,51.17a1.08,1.08,0,0,1,1.17-1c1.92,0.87.77,9.3,0.14,9-2.3-1.18-3.89-6.23-1.3-7.93C-171.24,17.9-172.68,19.28-171.44,18.47ZM-158.7,53.7c3.48,3.76-3.56,3.45-3.67,3.54,0.17-.14-0.62-8.17,3.67-3.54h0Zm-4.16-8.93c6.18,5-5,6.4-5.77-.58-0.36-3.5,4.09-.8,5.77.58h0Zm-3.84-6.89c0.22,5.92-14.24-7.92-8-9.51,2.36-.6,7.92,6.44,8,9.51C-166.67,38.61-166.73,37-166.7,37.88Zm7.48-26.19c-3.69,5.89-10.17,2.62-3.78-.79,1.15-.61,6.15-3,3.78.79h0Zm10.57-5A8.92,8.92,0,0,1-153.43,9c-3-.66,5.47-7.22,6-4.23Zm18.79-14.3Q-131-4.7-132.22-6.14c0.06-1.1,3.15-2.43,2.37-1.43C-130.38-6.91-129.71-7.75-129.85-7.57Zm4.81-6.52c-0.21.2-1.86,1.66-1.43,0.5,0.58-1.58,1.61-.68,1.43-0.5h0Z" transform="translate(224.03 35.28)"/><path class="cls-27" d="M-156.17,45.76c-7.42-9.05-13.82-18.3-8-29.68-5.51,2.49-2.52,12.18-7.24,11.48,1.28,2.57,11.68,11.58,5.94,13.64,3,2.55,14.36,7.62,4.95,10.56,2.5,1.53,6.93.15,3.9,5-1.57,2.54-5.84,3.19-7.8.91,1,3.59,9.82.45,11.11-.87,4.19-4.32.58-6.9-2.83-11.06h0Z" transform="translate(224.03 35.28)"/><path class="cls-27" d="M-121-32.7c-2.75,5.51-1.58,14.12-4.55,20.36-1.32,2.77-10.22,13.48-9.52,10.73-1.43,2.69-6.17,8-9.86,6.89a1.34,1.34,0,0,1,.7-1.72c-1.56,1-13.75,9.8-12.75,7.15-3.66,3.85-7.27,4.47-8.36,9.68,6.44-9.62,20.83-10.68,29.63-17.41C-124.69-5.48-121-19.52-121-32.7-121-32.69-121-30.16-121-32.7Z" transform="translate(224.03 35.28)"/><path class="cls-28" d="M-158.79,51.67c-5.34-.07-9.37-2.83-12-7.39,2.73,4.87,3.67,7,10.29,8.56,1.94,0.46,10.44-.26,10,2.7,0.57-4.29-5.75-3.84-8.35-3.87h0Z" transform="translate(224.03 35.28)"/><path class="cls-28" d="M-153.68,46.54c-1.06-7.62-20-4.65-22.79-15.45,1.05,4.2.32,6.4,5.21,9.5,2.86,1.81,17.13,2.83,17.58,6C-154,44.29-153.65,46.75-153.68,46.54Z" transform="translate(224.03 35.28)"/><path class="cls-28" d="M-161.59,34.79c-2.74-7.7-13-6.41-12.22-17.2-0.35,4.78-2.84,5.21,1.39,10.59,1.82,2.31,10.54,5.78,10.83,6.61C-162.12,33.3-161.5,35-161.59,34.79Z" transform="translate(224.03 35.28)"/><path class="cls-28" d="M-162.24,8c-4.32,2.08-8.95,16.23-3.74,14.49-2.32.72,0.47-12.94,3.74-14.49C-165.63,9.66-161.81,7.82-162.24,8Z" transform="translate(224.03 35.28)"/><path class="cls-28" d="M-148.22,2c-3.16,1.77-13.87,8.36-10.62,13.88-1-1.78,8.76-12.84,10.62-13.88h0Z" transform="translate(224.03 35.28)"/><path class="cls-28" d="M-142.13-1.15c0.3,2.56-8.23,7.73-4.92,11-0.38-.37,5.09-9.5,4.92-11h0Z" transform="translate(224.03 35.28)"/><path class="cls-28" d="M-132.73-7.87c-0.09-.15-5.51,11-4.95,13.28-0.85-3.31,7.25-9.27,4.95-13.28h0Z" transform="translate(224.03 35.28)"/><path class="cls-28" d="M-128.63-12.68c1.24,0.85-1.26,7.6-1,9.34-0.34-1.91,5.37-6.27,1-9.34h0Z" transform="translate(224.03 35.28)"/><path class="cls-28" d="M-124.1-17.65a1.5,1.5,0,0,0-1.51-1.09c1.09-.34-0.51,11.26-0.22,9.84,0.45-2.17,3.27-4.94,1.73-8.74h0Z" transform="translate(224.03 35.28)"/><path class="cls-28" d="M-121.32-20.32A10.43,10.43,0,0,0-122.68-25s-0.8,6,.91,6.58q1.29-.48.45-1.92C-121.44-20.93-121.21-19.8-121.32-20.32Z" transform="translate(224.03 35.28)"/><path class="cls-12" d="M-163.75,51.16c-1.39-.77-5.85-3.13-6.3-4.86,0.94,3.59,4.07,3.69,6.3,4.86C-164.95,50.5-163.59,51.25-163.75,51.16Z" transform="translate(224.03 35.28)"/><path class="cls-12" d="M-161.84,59.9c-0.76.2-5,.79-4.83-0.77-0.21,2.57,4.37.89,4.83,0.77h0Z" transform="translate(224.03 35.28)"/><path class="cls-12" d="M-171.37,38.93c-2.63-1.52-5.18-4.11-5.7-7.24,0.73,4.09,2.77,5.59,5.7,7.24C-174.12,37.35-171.18,39-171.37,38.93Z" transform="translate(224.03 35.28)"/><path class="cls-12" d="M-171.63,27.29c-0.54-.82-4-5.64-3.32-7.08-1.51,3.44,2.37,5.67,3.32,7.08C-173,25.29-171.52,27.45-171.63,27.29Z" transform="translate(224.03 35.28)"/><path class="cls-12" d="M-167,11.77a6.47,6.47,0,0,0-1,4.23c0,0.61,1.42-4.73,1-4.23C-168,12.92-166.94,11.66-167,11.77Z" transform="translate(224.03 35.28)"/><path class="cls-12" d="M-151.2,3.59c-2.56,2.12-5.44,4.58-6.55,7.86,0.78-2.2,4.84-6.48,6.55-7.86C-153.84,5.78-151,3.44-151.2,3.59Z" transform="translate(224.03 35.28)"/><path class="cls-12" d="M-143,1q-2.08,1.31-1,1.93Q-141.44,1-143,1C-143.44,1.61-143,.88-143,1Z" transform="translate(224.03 35.28)"/><path class="cls-12" d="M-133.24-6.89q-1.27.27-.65,2.23,1.44,0.27.65-2.23C-133.25-7-133.17-6.14-133.24-6.89Z" transform="translate(224.03 35.28)"/><path class="cls-12" d="M-128.2-11.57h0Z" transform="translate(224.03 35.28)"/><path class="cls-12" d="M-124.15-16.85q0-2-.87-1.22-0.11,2.17.87,1.22C-124.26-17.34-124.1-16.66-124.15-16.85Z" transform="translate(224.03 35.28)"/><path class="cls-12" d="M-121.76-23.54c-1.08-3.62.26,0.87,0,0h0Z" transform="translate(224.03 35.28)"/><path class="cls-29" d="M-164.79,47.83a30,30,0,0,0-4-4.77c-0.91-.94,4.78,6.44,4,4.77h0Z" transform="translate(224.03 35.28)"/><path class="cls-29" d="M-162,54.13a16.44,16.44,0,0,0-.52,2.33c0-.24,1-1.23.52-2.33h0Z" transform="translate(224.03 35.28)"/><path class="cls-29" d="M-173.05,34.82a16.3,16.3,0,0,1-1.48-6.93c0.34,2.17.85,5.64,1.48,6.93C-173.58,33.72-173,35-173.05,34.82Z" transform="translate(224.03 35.28)"/><path class="cls-29" d="M-170.46,16.85a5.39,5.39,0,0,0-2.35,4.8,38,38,0,0,1,2.35-4.8C-171.86,17.92-170.23,16.68-170.46,16.85Z" transform="translate(224.03 35.28)"/><path class="cls-29" d="M-161.12,9.55a15.71,15.71,0,0,0-4.52,3.3c-0.23.25,4.93-3.51,4.52-3.3C-162.8,10.39-160.84,9.41-161.12,9.55Z" transform="translate(224.03 35.28)"/><path class="cls-29" d="M-148.41,3.94C-148.59,4-152.57,7-152.82,7c1.55-.06,3.68-2.68,4.41-3.07h0Z" transform="translate(224.03 35.28)"/><path class="cls-29" d="M-138.51-1.62q-4.13.44-3.17,2.38,4.65-.49,3.17-2.38C-139.6-.93-138.24-1.78-138.51-1.62Z" transform="translate(224.03 35.28)"/><path class="cls-29" d="M-130.22-8.24c-0.29-.12-1.44,1.42-1.43,1.53s2-1.29,1.43-1.53h0Z" transform="translate(224.03 35.28)"/><path class="cls-29" d="M-125.6-15.22q-2.48,1.46-1.46,2.8,3.41-2.5,1.46-2.8C-126.16-14.36-125.5-15.37-125.6-15.22Z" transform="translate(224.03 35.28)"/><path class="cls-29" d="M-123.2-21.7l-0.72,1.8c0,0.44,1.11-2.49.72-1.8S-123.12-21.83-123.2-21.7Z" transform="translate(224.03 35.28)"/><path class="cls-29" d="M-121.22-28.53q-0.95.16-.48,1.55,1.07,0,.48-1.55C-121.22-28.68-121.19-28-121.22-28.53Z" transform="translate(224.03 35.28)"/><path class="cls-30" d="M-220.28,115.54c-1.15-2.84-2.62-7-1.86-10.07-1.22,4.51.66,7.18,1.86,10.07C-220.58,114.79-220.19,115.75-220.28,115.54Z" transform="translate(224.03 35.28)"/><path class="cls-30" d="M-219,103.27c-0.21-.67-1-2.51-0.08-3-3.16,1.6-.47,3.65,0,5.63q1.5-.48.06-2.67h0Z" transform="translate(224.03 35.28)"/><path class="cls-30" d="M-216.59,109.35q-0.86-1.58-1.9-1c-0.24,2.55,1.83,1,1.9,1C-217.21,109.06-216.24,109.52-216.59,109.35Z" transform="translate(224.03 35.28)"/><path class="cls-30" d="M-189.11,118.45c-5.73,2.65-14,3.81-19.49.19,8.52,5.74,11.65,3.47,19.49-.19C-192.18,119.86-188.89,118.34-189.11,118.45Z" transform="translate(224.03 35.28)"/><path class="cls-30" d="M-174.08,63.8c-1.84,2.47-4.38,1.34-3.79,6,0,0.07,3.57-5.65,3.79-6h0Z" transform="translate(224.03 35.28)"/><path class="cls-30" d="M-187.82,81.22c-7.41,3.44-15,9.11-21.55,13,7-4,14.8-10,21.55-13h0Z" transform="translate(224.03 35.28)"/><path class="cls-30" d="M-191.78,63.34c-5.47-7-7.86-14.4-10.08-22.78,2.4,9.25,4.63,15.74,10.08,22.78C-194.37,60-191.59,63.58-191.78,63.34Z" transform="translate(224.03 35.28)"/><path class="cls-30" d="M-178,42.19c-1.74-6.43-8.67-6.43-11.41-10.4,2.23,3.13,10.63,7.59,11.41,10.4C-178.71,39.63-178,42.4-178,42.19Z" transform="translate(224.03 35.28)"/><path class="cls-30" d="M-173.69,49.32l-1.55-3.68c-0.39-.74,1.78,5.12,1.55,3.68S-173.66,49.49-173.69,49.32Z" transform="translate(224.03 35.28)"/><path class="cls-30" d="M-102.77,45.32c-8.73,3.72-12.72,10.61-14.86,19.32,1.7-6.36,9.75-17.13,14.86-19.32h0Z" transform="translate(224.03 35.28)"/><path class="cls-30" d="M-100.13,75.33c-2.08,1.59-7.93,3.14-10.3,2.13,3.86,1.71,8-.32,10.3-2.13C-101.48,76.37-99.84,75.11-100.13,75.33Z" transform="translate(224.03 35.28)"/><path class="cls-31" d="M-99,268.61c-2-14-11.27-30-17.43-42.72,3.19,6.66,4.94,15.5,8.09,22.72,2.59,5.92,8.59,14.75,9.34,20C-100.06,261.26-99,268.85-99,268.61Z" transform="translate(224.03 35.28)"/><path class="cls-30" d="M-94.69,285.17c-0.28-1.07-1.24-4.91-1.92-5.7-1.2-1.39,2.77,8.8,1.92,5.7C-94.85,284.58-94.59,285.54-94.69,285.17Z" transform="translate(224.03 35.28)"/><path class="cls-30" d="M-90.06,304.64a111.7,111.7,0,0,0-3.35-11.69c2.43,7.23,3.14,16.64,4.09,24.41-0.42-3.41.12-8.58-.74-12.72h0Z" transform="translate(224.03 35.28)"/><path class="cls-30" d="M-90,339.33c0.67-.6-6.33,7.54-4.75,7.68,1,0.09,4.4-7.35,4.75-7.68C-92.2,341.29-89.9,339.24-90,339.33Z" transform="translate(224.03 35.28)"/><path class="cls-29" d="M-100.16,354.8c-0.25.38-1.92,3.75-.67,4.56,0.9,0.58.88-4.86,0.67-4.56C-100.65,355.54-100.1,354.72-100.16,354.8Z" transform="translate(224.03 35.28)"/><path class="cls-29" d="M-70,358.33c-1.75.79-1.95,5.54-1.88,6.46s2.49-6.72,1.88-6.46C-71,358.76-69.87,358.27-70,358.33Z" transform="translate(224.03 35.28)"/><path class="cls-30" d="M-60.24,334.15c2,4.1-4.21,12.51-5.45,16.22,1.64-5.13,8.78-9.49,5.45-16.22h0Z" transform="translate(224.03 35.28)"/><path class="cls-30" d="M-62.28,291.59c0.2,2.67-.09,6,0.49,9.09-0.3-1.57-.37-7.23-0.49-9.09C-62.29,291.38-62.08,294.56-62.28,291.59Z" transform="translate(224.03 35.28)"/><path class="cls-30" d="M-64.3,272.78c1.17-2.16-3.29,10.71-.23,8.62,0.84-.57-0.37-7.52.23-8.62h0Z" transform="translate(224.03 35.28)"/><path class="cls-30" d="M10.3,252.23a14.63,14.63,0,0,0-1.85-5.32c0.39,0.77.72,11.54,0.9,11.46,1.1-.51,1-5.53.95-6.14C10.16,250.32,10.45,254.16,10.3,252.23Z" transform="translate(224.03 35.28)"/><path class="cls-30" d="M-15.4,323.12c2.89-1.53-4.32,3.31-2.79,3.37,0.62,0,3.27-3.63,2.79-3.37h0Z" transform="translate(224.03 35.28)"/><path class="cls-29" d="M-21.78,334a3.4,3.4,0,0,0-.78,3c0.15,0.79,1.27-3.42.78-3C-22.55,334.6-21.71,333.91-21.78,334Z" transform="translate(224.03 35.28)"/><path class="cls-29" d="M22.71,336.18c-0.1.2-2.06,7.27-1.26,7.08C22.95,342.91,22.81,336.64,22.71,336.18Z" transform="translate(224.03 35.28)"/><path class="cls-30" d="M32.49,324.58c-1.4,1.23-5.83,4-6.22,6.22,0,0,7.16-7,6.22-6.22h0Z" transform="translate(224.03 35.28)"/><path class="cls-30" d="M48.66,243.71c-0.34,3.25-1.77,6-.65,9.87,0.44,1.48.69-10.17,0.65-9.87C48.68,243.48,48.27,246.89,48.66,243.71Z" transform="translate(224.03 35.28)"/><path class="cls-30" d="M48,257.68c-2.42,17.1-5.21,34.13-7.71,51.21,2.34-16.31,5.93-34.76,7.71-51.21C46.83,266.19,48.05,257.57,48,257.68Z" transform="translate(224.03 35.28)"/><path class="cls-31" d="M-74.33,234.41c-4.57-12.43-13-18.21-21.24-27.66-1.68-1.93-14.48-21.59-14.7-21.38-1.88,1.84,12.33,23.47,14.55,25.81,6.36,6.71,18.9,16.49,21.38,23.23C-76,229.89-74.16,234.87-74.33,234.41Z" transform="translate(224.03 35.28)"/><path class="cls-31" d="M-110.32,216.94c-4.81-3.92-9.19-6.65-13-11.77,2.06,2.85,2.73,9,7.11,11.38,0.55,0.3,8.15,2.27,5.85.39h0Z" transform="translate(224.03 35.28)"/><path class="cls-31" d="M-146.74,176.47a87.12,87.12,0,0,1-4-21c-0.2-2.8-1.59-20.78-1.07-21-3.43,1.5-1.57,23.61-.95,27.75,0.74,4.89,5.55,12.79,6,14.27C-147.85,173-146.63,176.83-146.74,176.47Z" transform="translate(224.03 35.28)"/><path class="cls-31" d="M-136.26,188.46c-0.62-1-5.26-10.62-5.08-10.74-1.3.86,1.55,7.86,1.81,8.25,0.47,0.7,4.42,4.33,3.27,2.48C-138.3,185.13-135.95,189-136.26,188.46Z" transform="translate(224.03 35.28)"/><path class="cls-31" d="M-2.11,200.35c-2.5-10-10.57-17.71-13.1-27.8-0.85-3.39-2.33-30,1.56-30.85-6.94,1.58-7.46,29.73-6.17,34.9,1.51,6.08,5.15,10.45,9,15.17,1.22,1.49,9.09,10.13,8.69,8.58C-2.65,198.22-2,200.79-2.11,200.35Z" transform="translate(224.03 35.28)"/><path class="cls-31" d="M13.7,213.72c-0.84-.92-9.34-7.26-10.28-6.35-3,2.94,12.12,8.38,10.28,6.35C12.49,212.4,14.26,214.34,13.7,213.72Z" transform="translate(224.03 35.28)"/><path class="cls-31" d="M-118.86,180.2c-2.43-4.81-5.22-8.36-6.44-13.77-0.33-1.46-2-14.12-1.79-14.22-2.52,1.42-.53,16.73.18,19.18s2.1,6.1,3.88,7.68c0,0,6,4.79,4.18,1.13h0Z" transform="translate(224.03 35.28)"/><path class="cls-31" d="M-38.42,179.3c-4.82.38-18.51-1.07-22-3.55,8.73,6.21,13.41,4.2,22,3.55h0Z" transform="translate(224.03 35.28)"/><path class="cls-3" d="M-161.66,86.39c0.31-.55.17-0.09,0,0C-161.61,86.3-161.61,86.37-161.66,86.39Z" transform="translate(224.03 35.28)"/><path class="cls-25" d="M-153.34,88.39c-9-9.79-15.4,10.48-18,10.11a10.25,10.25,0,0,0,5.38-2c0.1-.11-2.72.58-3.06,0.61,3.19,0,5.83-2.84,7.91-4.23-4.93,3.07.33-.44-2.62,0.19,1.74-.92,10.26-4.72,10.33-4.64h0Z" transform="translate(224.03 35.28)"/><path class="cls-5" d="M-131.38,67.86c-9.21.84-20.17-9.53-28.48-1.33-2.53,2.5-6.57,15.17-5.7,18.49,1.89,7.18,9.65-8.7,12.36-11.07,4.91-4.29,7.72-2.76,13.43-3.1,2.62-.16,7.74-2.93,8.39-3h0Z" transform="translate(224.03 35.28)"/><path class="cls-5" d="M-135,76.77c2.34,5.49-12,10.78-15.36,10.84-3.82.07-12-3.68-13.62,2.3,4.25-3.09,5.33.11,9.51,0.38,5.79,0.39,24.72-1.39,19.48-13.52h0Z" transform="translate(224.03 35.28)"/><path class="cls-23" d="M-135.8,75.33c-12.1-13.73-31.33,14.77-31,15-2.67-2.67,15.63-2.63,16-2.64,3.61-.11,20.51-6.28,15-12.39h0Z" transform="translate(224.03 35.28)"/><path class="cls-32" d="M-136.65,77.93c-2.35,4.79-5.77,7-10.92,8-1.47.28-10.78-.86-11.06-0.51q-1.14.27-2.26,0.58c4.54-3.4,4.05-9.57,11.19-11.82,2.94-.93,15.29-0.68,13.06,3.79C-137.14,78.92-136.57,77.77-136.65,77.93Z" transform="translate(224.03 35.28)"/><path class="cls-3" d="M-136.37,71.14c-3.41,1.23-9-2.85-13.28-1.75-5.2,1.34-6.72,6.13-9.53,8.89,4-3.84,6.08-7.31,12.07-8.09,3.48-.45,7.53,1.77,10.74.95C-137.52,71.56-136.35,71.14-136.37,71.14Z" transform="translate(224.03 35.28)"/><path class="cls-24" d="M-131.53,73.65c-6.17,1.59-11.53-4.55-18.36-2.58-8.08,2.34-9.92,10.14-13.68,16.57,3.17-5.29,8.85-12.75,15.88-13.28,4-.3,7.38,2.95,11,2.41,1.88-.28,5.93-3.32,5.19-3.12h0Z" transform="translate(224.03 35.28)"/><g class="cls-33"><path class="cls-28" d="M-138.85,82.39c-2.76,9.27-17.13,5-14.37-4.28s17.13-5,14.37,4.28h0Z" transform="translate(224.03 35.28)"/><path class="cls-34" d="M-139.77,82c-2.29,7.71-14.42,4.1-12.13-3.61S-137.41,74-139.77,82h0Z" transform="translate(224.03 35.28)"/><path class="cls-35" d="M-141.22,81.67c-1.8,6-11.26,3.2-9.46-2.82s11.3-3.37,9.46,2.82C-142,84.28-140.44,79.05-141.22,81.67Z" transform="translate(224.03 35.28)"/><path class="cls-36" d="M-142.37,81.16c-1.26,4.26-7.85,2.3-6.58-2s7.85-2.29,6.58,2h0Z" transform="translate(224.03 35.28)"/><path class="cls-32" d="M-146.72,79.57c1.12-4.28-3.76,0-3.76,0,0.35,0,2.47,4.9,3.76,0C-146.47,78.63-146.85,80.06-146.72,79.57Z" transform="translate(224.03 35.28)"/><path class="cls-32" d="M-146,82.7c-0.12-1-2.44.14-2.35,1,0.12,1.06,2.42.09,2.35-1C-146,82.51-146,82.83-146,82.7Z" transform="translate(224.03 35.28)"/></g><path class="cls-37" d="M-157.54,81.53c6.48-3.91,14.72-1.74,21.41-5.07,0.5-2.4-11-2.92-12.38-2.62-5.19,1.14-8.63,4.91-11.13,9.31l2.1-1.63h0Z" transform="translate(224.03 35.28)"/><path class="cls-15" d="M-129.76,71.16s1.37-1.65,0,0C-129.75,71.16-129.6,71-129.76,71.16Z" transform="translate(224.03 35.28)"/><path class="cls-30" d="M-146.35,67.8c-5.91-.63-15.59,3.79-15.51,11.13,0-5,11.13-11.61,15.51-11.13h0Z" transform="translate(224.03 35.28)"/><path class="cls-30" d="M-142.74,86.27c-1.63.75-6.14,2.43-8.1,2.23,3.91,0.32,5.44-1,8.1-2.23h0Z" transform="translate(224.03 35.28)"/><path class="cls-14" d="M-167.94,80.47q-1.13-2.65-2.94-1.84A27.45,27.45,0,0,1-172.82,84c-1.13,1.87-1.84,2-3.29,3.6-2.06,2.32-17,13.61-16.29,14.94,2.45,4.58,14.77-6.85,15.58-7.9,0.52-.69,8.71-14.43,8.88-14.18h0Z" transform="translate(224.03 35.28)"/></g></g></svg>