<svg id="Layer_1" data-name="Layer 1" xmlns="http://www.w3.org/2000/svg" viewBox="0 0 169.74 224.94"><defs><style>.cls-1{fill:#1d2e2f;}.cls-1,.cls-2,.cls-3{fill-rule:evenodd;}.cls-2{fill:#bf7100;}.cls-3{fill:#ff986a;}</style></defs><title>anim_34</title><g id="feet"><path class="cls-1" d="M-91.15,2614.47c-2.45-6.35-.56-1.5-10.7.71-3.36.73-6.3,1.55-8.76,2.33-6.79.85-9.67,1.34-9.67,1.34s1.93,8.55,10.34,10.15a14.66,14.66,0,0,0,7.67.18C-89.82,2626.46-89.33,2619.19-91.15,2614.47Zm-80.7.71c-10.14-2.21-8.25-7.06-10.7-.71-1.82,4.72-1.34,12,11.12,14.71a14.67,14.67,0,0,0,7.67-.18c8.41-1.6,10.34-10.15,10.34-10.15s-2.88-.49-9.67-1.34C-165.55,2616.73-168.5,2615.91-171.85,2615.18Z" transform="translate(220.72 -2404.65)"/></g><g id="body"><path class="cls-2" d="M-74.24,2471.36c3.66-5.94,8-15.15,8-25.5,0-17.92-4.89-40.83-11.21-41.21-4.82-.29-17.4,11.55-24.41,37.44l-0.44-.31a64.4,64.4,0,0,0-20.65-9.3c3.29-4.46,6.25-7.79,5.1-9.31-2.46-3.24-14,2-14,2s7.58-12.43,4-14c-2.8-1.22-16.94,8.81-24.06,22.18a65.86,65.86,0,0,0-17.48,8.43l-0.44.31c-7-25.89-19.59-37.73-24.41-37.44-6.31.38-11.21,23.29-11.21,41.21,0,10.35,4.33,19.56,8,25.5-16.72,25.82-25.72,59.68-22.68,88.16a92.26,92.26,0,0,0,4.29,21.4c9.52,28.3,44.75,41.29,80,40.43,35.25,0.86,70.48-12.13,80-40.43a92.26,92.26,0,0,0,4.29-21.4C-48.53,2531-57.53,2497.18-74.24,2471.36Z" transform="translate(220.72 -2404.65)"/></g><g id="forelock"><path class="cls-3" d="M-104,2455a37,37,0,0,1-3.83-1.85c-11.19-6.14-15.07,13.62-20,14-3-5.3-12-14-12-14s0.55,16.86-4,18c-3.79-5.68-12.17-24.45-24-14a24.13,24.13,0,0,1-2.74,2.18c-15.3,14.8-25.26,37.15-25.26,55.82,0,30.93,27.31,40,61,40s61-9.07,61-40C-73.85,2494.58-86,2469.49-104,2455Z" transform="translate(220.72 -2404.65)"/></g><g id="nose"><path class="cls-1" d="M-117.85,2505.18c-9.43-8.76-8.06-16-18-16s-9.71,8.1-18,16c-3.18,3-2.55,6.81,0,10.27a8,8,0,0,1,2-.27,8,8,0,0,1,8,8h0a20.1,20.1,0,0,0,8,2,20.07,20.07,0,0,0,8-2,8,8,0,0,1,8-8,8,8,0,0,1,2,.27C-115.26,2512-114.62,2508.18-117.85,2505.18Z" transform="translate(220.72 -2404.65)"/></g><g id="eye"><path class="cls-1" d="M-114.85,2475.18c-3.87,0-7,3.58-7,8s3.13,8,7,8,7-3.58,7-8S-111,2475.18-114.85,2475.18Zm-42,0c-3.87,0-7,3.58-7,8s3.13,8,7,8,7-3.58,7-8S-153,2475.18-156.85,2475.18Z" transform="translate(220.72 -2404.65)"/></g></svg>