<svg xmlns="http://www.w3.org/2000/svg" xmlns:xlink="http://www.w3.org/1999/xlink" viewBox="0 0 303.38 288.3"><defs><style>.cls-1{fill:none;}.cls-2{isolation:isolate;}.cls-3{fill:#191918;}.cls-13,.cls-14,.cls-4{fill:#665c4e;}.cls-11,.cls-12,.cls-5{fill:#515151;}.cls-6{fill:#fff;}.cls-7{clip-path:url(#clip-path);}.cls-8{fill:#4b4226;}.cls-9{fill:#71633d;}.cls-10{fill:#2f2a14;}.cls-11,.cls-13{opacity:0.5;mix-blend-mode:multiply;}.cls-12{opacity:0.6;}.cls-12,.cls-14{mix-blend-mode:screen;}.cls-14{opacity:0.7;}</style><clipPath id="clip-path" transform="translate(-200.42 332.77)"><path class="cls-1" d="M271.9-223c12.5-12.5,16.59,6.5,8.3,15.23-12.51,13.17-17.13-6.72-8.3-15.23h0Z"/></clipPath></defs><title>anim_75</title><g class="cls-2"><g id="Layer_1" data-name="Layer 1"><path class="cls-3" d="M494.61-88.29c7.41-22.06,11.86-45.32,7.42-68.44-3.39-17.64-9.3-36.44-4.58-53.77,10.48-38.52,8-88.82-31.82-110.29-37.33-20.14-88.75-12-126.46,3.27-19.52,7.91-39.36,12.58-59,19.68-10.95,4-19.36,9.81-28.9,16.25-7.13,4.82-15.42,8.11-21.37,14.61,2.65-6.78-2.11-11.39-6.41-15.73-1.24-1.25-8.95-11.22-8.16-11.36-7.21,1.34-4.58,28.68-4,32.94,1.79,12.76.43,23.58-3.8,35.77-4,11.39-7.82,22.12-7,34.38,1.06,15.18,4.14,29.82,4.48,45.12,0.31,13.93,1.33,27.91,5.06,41.39,1.76,6.33,3.7,13.19,7.52,18.65,1.49,2.13,4.14,3.87,5.46,5.92,0.6,0.93,1.27,5.35,1.86,5.79,4.79,3.59,6.39.6,11.75-.53,5-1.05,10.55.51,14.2-4,4.56-5.59.64-8.06-1.6-13-3-6.69-4.15-14.23-4.82-21.56,2.84,4.44,4.23-4.07,4.48-4.64,2.54-5.89.9-15.12,2.38-21.53,3.26-14.12,11.72-25.42,23.76-33.43-2.43,10.83.36,23.78,3.58,34.12,3.86,12.4,6.53,25.33,11.64,37.32,4,9.31,10.67,17.67,13.9,27.19,2.23,6.55,1.35,9.26-4,12.75-2.2,1.44-4.76.69-6.8,3-0.26.29-3.86,5.83-.08,4.53-2.83,5.53,1.39,6.62,5.47,3.94,0,8.18,4.39,2.37,8,1,8-3.18.89-3.83,9.09-1.42,3.38,1,2.82,4.47,7,2.71,8.79-3.75,1.29-39,.1-45.18-2.9-15-11.78-37.23-3.31-52.1,3.77-6.61-2.65-3.09,5-1.75,3.61,0.63,7.19,3.26,10.75,4.23a57.67,57.67,0,0,0,25,.72c2.46,20.4-2.44,48.49-10.89,67.42C346-66.64,334.84-63.13,333-54.91c-2.47,11.22,7.45,3.23,13.14,1.52-5.43,12,8.68,11.55,12.11.63,1.25,6.56,7.73,11.32,8.74,1.93,10.25,4.63,7.2-2.94,4.86-8.23q-4.57-1.56-3-6.58A35.12,35.12,0,0,1,372.45-75c1.91-4.06,4.43-7.93,6.72-11.77,5.61-9.39,10.53-18.46,14.08-28.84a118.3,118.3,0,0,0,4.39-15.3c0.62-3.16.25-16.15,2.65-18,4.54-3.5,8.22,5.28,12.3,9.84,6.65,7.45,10.48,15.9,13.68,25.34,1.39,4.1,7.49,17,5.7,21.67-1.63,4.21-3.94,3.61-7.21,5.62-0.84.51-9.56,9.33-4.62,7.38-2.88,5.62,1.84,6.48,5.63,3.7,0,5.14,1.7,4,4.9,3.38,2.31-.47,4-4.7,6.35-5.38,4.68-1.32,3.28,1.78,7.44,2.12,3.26,0.27,1.69,3.12,5.39,1.09,1.9-1,2.43-6,2.71-7.81,1-6.76-1.17-14.34-1.57-21.07a205,205,0,0,0-5.16-35.41c-1.63-6.89-8.19-23.87,1.56-26.63,7.18-2,17.44,6.74,20.65,12.08,6.33,10.53,6.61,26.88,6.78,38.73,0.18,13-1,25.32-11.42,33.24-1.33,1-10.47,6.79-8.59,10.16,1.77,3.19,10.72-.8,13-3.39-8.05,10.51,6.28,13.82,10.29,2.45,0,8.06,13.2,11.06,9.6-1.67,5.88,3.92,10,1.89,9.44-4-0.38-4.3-4.24-4.66-2.49-10.79C501-107.16,494.59-88.2,494.61-88.29Z" transform="translate(-200.42 332.77)"/><path class="cls-4" d="M296.46-59.71a22.66,22.66,0,0,1,5.38-1.22c0,0.25-9.26,5.68-9.31,5.41-0.26-1.36,3-3.76,3.92-4.19h0Z" transform="translate(-200.42 332.77)"/><path class="cls-4" d="M298.91-50.93c-12,4.11.62-11.55,5-7.54a11.23,11.23,0,0,0-5,7.54C298-50.62,299.39-53.84,298.91-50.93Z" transform="translate(-200.42 332.77)"/><path class="cls-4" d="M312.26-54.39c-3.68,2.19-13.35,12.75-12.07,2.94,0.81-6.2,11.87-10.26,12.07-2.94C312-54.26,312.24-55,312.26-54.39Z" transform="translate(-200.42 332.77)"/><path class="cls-4" d="M324-54.14c1.28,11.84-8.35-.41-10.8-0.41,1.27-6.2,12-9.19,10.8.41C324.26-52.14,324.25-55.84,324-54.14Z" transform="translate(-200.42 332.77)"/><path class="cls-4" d="M346-54.75c-0.66,1-10,5-11,4.36-3.08-2,1.33-8.84,3.45-10,6.49-3.7,6.91,5.59,7.54,5.68C345.84-54.56,346.15-54.72,346-54.75Z" transform="translate(-200.42 332.77)"/><path class="cls-4" d="M358.15-54.92c-1.35,8.93-15.28,15.47-11.25,2,1.43-4.78,11.25-10.54,11.25-2C357.76-52.31,358.15-54.93,358.15-54.92Z" transform="translate(-200.42 332.77)"/><path class="cls-4" d="M364.35-45.26c-2.76,1-6.73-9.59-5.44-11.16,4.82-5.89,11.6,9,5.44,11.16h0Z" transform="translate(-200.42 332.77)"/><path class="cls-4" d="M369.17-60.5c1.61,2.63,7.51,6.88,3.63,9.43-0.86.56-6.52-2.08-5.68-1.16-2.81-3.05,2-5.29,2.05-8.27C369.45-60.05,369.14-58.45,369.17-60.5Z" transform="translate(-200.42 332.77)"/><path class="cls-4" d="M423-84.92a23.08,23.08,0,0,1,5.33-1.46c0,0.26-9,6.08-9.07,5.82-0.32-1.35,2.85-3.88,3.74-4.36h0Z" transform="translate(-200.42 332.77)"/><path class="cls-4" d="M423.13-75.25c-5.86,1.87,2-13.3,7.33-8.76-4.16,2.6-2.85,7.25-7.33,8.76h0Z" transform="translate(-200.42 332.77)"/><path class="cls-4" d="M439-80.29c-3.56,2.41-12.77,13.27-11.92,3.46C427.61-83,438.59-87.63,439-80.29,438.8-80.16,439-80.94,439-80.29Z" transform="translate(-200.42 332.77)"/><path class="cls-4" d="M450.81-85.64c0.17,3,1.58,8.88-1.89,10.33-3.67,1.53-6.17-5.18-8.94-5.18,0.64-3.74,7.17-8.47,10.83-5.14C450.85-85,448.17-88,450.81-85.64Z" transform="translate(-200.42 332.77)"/><path class="cls-4" d="M462.77-73.41c-0.74.34-5.49,3.68-7.14,3s6.51-10.61,8.53-10.41c7,0.67,4,6.68-1.39,7.36C461.51-72.83,464.75-73.66,462.77-73.41Z" transform="translate(-200.42 332.77)"/><path class="cls-4" d="M474.47-67.65c-6.66,6.48-10.08-2.89-5.37-7.15,5.94-5.37,11.36,1.31,5.37,7.15h0Z" transform="translate(-200.42 332.77)"/><path class="cls-4" d="M487-66.22c-1,6.22-7.79-3.27-7.72-5.55,0.26-9.32,8.81-1.44,7.72,5.55C486.32-61.51,487.22-67.38,487-66.22Z" transform="translate(-200.42 332.77)"/><path class="cls-4" d="M496.2-78.12c4.28,4.72-2.28,7-5.86,4.56-5.33-3.71,1.6-9.25,5.86-4.56h0Z" transform="translate(-200.42 332.77)"/><path class="cls-5" d="M494.08-89.56c-1,2.53-2.23,6.46-.83,9.1-3-1.25-6.59,1.29-6.89,4.43-2.07-2.4-7-1.75-7.85,1.46-2-5-7.71-3.31-10.48,0,1.79-2.69.33-6.72-3.3-6.61,14.29-9.9,13.14-35.72,10.69-51.12-2.65-16.67-8.15-31.29-26.73-33.61,7-2.68,19-7.41,20.11-16.45,0,5.81-10.64,10.57-14.72,12.55C469.7-183.06,470.54-206.17,486-220c-9,7.15-14.47,13.75-19.1,24.28-4.81,10.93-9.65,21.18-19.84,28.08-11.07,7.49-32.57,16.92-46.62,16.92,0.58-8.31,3.88-24.9-1-32.33,2.09,2.9.76,9.17,0.32,12.48-0.8-5.7-3.78-10.89-5.75-16.23,8.66,21.39,4.78,47.56-2.48,69.09-4.19,12.43-10.09,24-16.14,35.56-2.85,5.46-5.69,10.49-6.9,16.58-0.56,2.8.92,7.5-2.36,9.15-2.42-4.11-4.15-.82-6.77-1.37-4.43-.94-7.34-4.4-11.79,1.85-0.36-2.86-2.73-7.27-6.17-6.85,4.94-3.73,7.69-7.31,9.21-13.35q-0.51,2.88-.76,5.79c1-14.74,9.19-29.94,11.68-44.84,1.13-6.77-1.08-18.37,1.2-24.24,1.21-3.13,10.82-4.54,15.52-6.41a54.75,54.75,0,0,1-14,2.45c5.94-2,13.6-5.41,18.19-9.77-11.36,7.72-24.45,11.58-38.13,10.44-14.54-1.21-23.87-12.41-37.16-15.19,4.36,2,8.17,5.18,12.16,7.76-1.4,3.4-18.54.23-21.35-1.86,4.75,3.77,14.74,5.32,20.57,3.9a64.72,64.72,0,0,0-.11,43.69c5.16,14.78,5.34,28.43,5.9,44-3.82-2.85-9.7,0-11.48,3.79-1.83-6.08-8.52.66-9.7-3.91,0.18,0.68,3.5-7.17,3.58-8.31,0.36-5.67-3.88-10.53-6.29-15.28a239.73,239.73,0,0,1-12.19-28.95c-3-8.39-5.64-16.5-7.88-25.14-2.09-8-7.31-22.34-4.78-30.59,0.75-2.44-.71-3.49,1.51-5.17s13.48,4.23,16.08,5.25c10.45,4.08,19.16,7,30.57,5.26-16.32,1.1-29-9.85-44.64-11.58,6.48-3.67,12.89-8.51,19.48-11.86,5.2-2.64,10.5-3.41,15.23-7.59,3.87-3.42,6.45-8.18,9.44-12-6,7.42-12.16,11.15-20.18,16a43.22,43.22,0,0,0,14.57-31.43c0,31.44-41.52,41.78-61.34,56.52-12.84,9.55-14,29.05-13.54,43.73,0.24,8.3.55,17,2.92,25,1.26,4.25,6.22,11,4.49,15.41s-14,7-18.49,6.95c-5.91,0-3.9-1.84-5.87-5.11-8.8-14.55-14.62-28-16.84-45.48-2.49-19.61-1.51-39.39-4.18-59-1.63-12-3.9-32.93,10.31-39.24a35.87,35.87,0,0,0-8,5.41c4.07-11.55,9.11-22.14,8.58-34.68-0.48-11.36-4.33-21.33-2-32.74-0.76,9.85,9.44,24.3,4,33.32,7.93-13-6.55-25.5-2.78-38,1.85,7.41,10.11,9.74,12.9,16.24,3.06,7.12-2.13,11.16-4.63,17.5,2.77-8,12.85-15.13,20.12-18.8q-0.52.08-.32,0.43c15.65-7.24,36-7.46,50.81,2.34-13.28-8.24-29.42-11.46-44.53-6.67,14.74-11.5,33.06-18.3,51.2-22.1a105.5,105.5,0,0,1,27.29-2.14c2.36,0.12,24.41,3.94,25.07,2.36,1.47-3.53-38.83-5.1-42.25-4.7,47.32-15.82,103-37.49,151.54-14.13,22.74,10.93,34.63,34.91,38.58,59,1.57,9.6,1.27,20.52,0,30.16-1.61,12.7-8.24,23.21-10.89,35.43a74,74,0,0,0,4.26-7.47c-1.48,18.3,5.57,36.27,7,54.43,1.56,19.75-2.55,39.34-6.91,58.49C493.64-88.4,498.9-110.71,494.08-89.56Z" transform="translate(-200.42 332.77)"/><path class="cls-3" d="M347.84-276.12c-6.9,5.92-19.9,5.74-27.91,10.77a30.28,30.28,0,0,0-10.46,10.22c-0.4.69-5.15,12.74-3,12.45,0,0,4.29-10.27,5-11.25a35.86,35.86,0,0,1,11.95-10.42c7.84-4.49,17.31-6.52,24.47-11.78C345.83-274.39,347.89-276.16,347.84-276.12Z" transform="translate(-200.42 332.77)"/><path class="cls-5" d="M265.17-167.11c-8.63,7-14.17,18.15-16.2,28.91-0.69,3.67-.8,34.42-5,18.37-6.58-25.06,8.76-43.36,29.47-53a54.88,54.88,0,0,0-8.26,5.68h0Z" transform="translate(-200.42 332.77)"/><path class="cls-5" d="M441.29-156c-0.74,15,6.59,30.76,8.32,45.67,0.91,7.86.49,15.63,1.12,23.49-3.94-2.69-9.69.47-11.31,4.28-2-5.69-8.18.47-9.84-2.49-1.06-1.89,2.49-3.57,2.65-4.85s0.28-2.66.37-4c0.58-8.11-3.76-18.24-6.64-25.58-5.38-13.7-14.61-18.95-21.94-30.7,13.7-1,26.72-7.72,39.18-13.16a13.69,13.69,0,0,0-1.91,7.35C441-149.7,441.41-158.46,441.29-156Z" transform="translate(-200.42 332.77)"/><path class="cls-3" d="M289.65-213.93c-1,6.39-7.88,15-14.11,16.7,8.12-2,14.11-8.25,14.11-16.7C288.55-206.76,289.65-214,289.65-213.93Z" transform="translate(-200.42 332.77)"/><path class="cls-3" d="M283.89-226q1.78,2.22,2.67.86c-13-11.94-21.95,10.51-20.18,20.39a26.44,26.44,0,0,1,.17-7.42c0,26.11,29.57-6.21,17.35-13.83C284.75-225.79,290.07-222.2,283.89-226Z" transform="translate(-200.42 332.77)"/><path class="cls-6" d="M271.9-223c12.5-12.5,16.59,6.5,8.3,15.23-12.51,13.17-17.13-6.72-8.3-15.23h0Z" transform="translate(-200.42 332.77)"/><path class="cls-3" d="M267-226.4a15.08,15.08,0,0,0-3.8,14.78c-2.93-11,9.69-19.17,19.19-19.17-5.34-.79-11.43.52-15.38,4.39h0Z" transform="translate(-200.42 332.77)"/><g class="cls-7"><path class="cls-8" d="M285.2-214.32c-4.89,16.57-22.54,11.76-17.58-5.19,4.81-16.43,22.65-12,17.58,5.19C283-206.76,287.44-221.9,285.2-214.32Z" transform="translate(-200.42 332.77)"/><path class="cls-9" d="M284-215.14c-3.72,12.62-16.93,8.73-13.2-3.89s16.93-8.73,13.2,3.89h0Z" transform="translate(-200.42 332.77)"/><path class="cls-10" d="M281.1-216c-2,7-9.5,4.76-7.44-2.2,2-6.72,9.66-5.29,7.44,2.2C280.16-212.79,282-219.2,281.1-216Z" transform="translate(-200.42 332.77)"/><path class="cls-6" d="M277.3-220.06c-1.47,4.94-6.62,3.42-5.17-1.52s6.61-3.42,5.17,1.52C276.64-217.84,277.95-222.29,277.3-220.06Z" transform="translate(-200.42 332.77)"/><path class="cls-6" d="M273-212.5l-1.54,1.34q-1.63-2.27,1-3.3l0.57,2C272.75-211.6,273.29-213.42,273-212.5Z" transform="translate(-200.42 332.77)"/></g><path class="cls-6" d="M497.52-273.51c-26.4-84.56-126-52.35-187.06-31.95,3.52-.41,43.75,1.1,42.25,4.7-0.52,1.24-31.51-2.63-35.11-2.48-12.78.52-25.4,3.73-37.44,7.9,28.57-3.47,69.82-2.76,83.55,27.7,7.56,16.76,12.54,35,18.72,52.34,5.18,14.5,15.15,29.4,17.3,44.71,0.44-3.31,1.77-9.59-.32-12.48,4.89,7.43,1.59,24,1,32.33,24.7,0,53.76-17.53,63.88-39.16,6.49-13.87,15-24.08,23.07-37s14.75-31.7,10.14-46.62C496-278.32,498.24-271.18,497.52-273.51Z" transform="translate(-200.42 332.77)"/><path class="cls-3" d="M355-279.52c-8.66-4-21.8-1.66-30.31,1.58-8.73,3.32-22.24,10.89-26.6,19.54,1.76-3.8,7.24-7.57,11-9.36-3.43,3.71-5.42,8.36-7.85,12.71a45.56,45.56,0,0,1,21.13-19c3.06-1.34,31.21-4.66,31.27-4.77-1,2-4.47,3.84-6,5.51-4.43,4.77-7.6,10.66-11.95,15.52-5.82,6.5-16.3,15.08-25.58,14.13,4.61,0.47,10.2-1.32,14.31-3.43,0,3.23,1.18,17.18-2,19.61,3-2.27,2.31-10.13,2.83-13.33,1.6-9.95,1.19-5.41,9.71-12.81,2.56-2.22,19.06-26.37,20.12-25.91C350.44-281.63,355.18-279.42,355-279.52Z" transform="translate(-200.42 332.77)"/><path d="M352.08-277.58l0.1-.07Z" transform="translate(-200.42 332.77)"/><path class="cls-11" d="M494.76-185.63a61.74,61.74,0,0,1-.77-16.85,74,74,0,0,1-4.26,7.47c2.84-13,9.82-24.12,11.1-37.77,1.14-12.11,1-24.42-2.12-36.23-8.08-30.93-26.55-50.28-57.83-58.17,53.91,17,64.9,74.81,49.38,123.25-0.62,1.95-6.62,14.41-4.08,16.6,1.66,1.43,2.52-3.61,5.82-1,3.62,2.87,3.63,18,4,22.11a276.31,276.31,0,0,1,1.58,39.78c-0.53,11.9-.52,38.1-11.81,44.93-2,1.19-5,2.75-8.35,2.55-0.17,0-9.13-2.84-9-3.19,1.9-3.82,4.05-4.81,5.46-9.7,2.27-7.87,4.73-15.87,5.4-24.06,1.29-15.59-2.4-30.42-8.94-44.37-3.48-7.42-3-8.9,1-16,0.83-1.45,5.07-6.57,4.85-8.8-0.13-1.3-2.24-.74-2.25-0.9-0.12-1.41-1.42-3.33-1.09-6.54,0.37-3.54,2.47-7.51,4-10.62,1.92-4,12.1-14.36,11.48-17.75-1.63-9-19,4.4-21.7,6.66-14.54,12-24.73,27.17-41.3,37-4.21,2.51-10.67,6.91-15.87,7.12-5.68.23-3.51,0.33-5.49-3.85-1.07-2.26.32-14.57-5-15-2.64-.23-2.26,4.81-1.38,5.73-2.5-2.62-7.65-16.67-12.12-16.14,1.07-.13,5.88,24.63,6.14,26.39a127.06,127.06,0,0,1-2.67,51.13c-3.65,13.5-9.79,26.07-16.28,38.39-2,3.84-5.14,8.11-6.27,12.34-0.76,2.86.53,9.37-.86,10.91-0.91,1-16.52-1.29-17.36-2-4.53-3.68.35-4.64,2.7-8.29,2.79-4.32,2.56-9.6,3.93-14.45,4.12-14.55,9-26.92,10.3-42.3,0.29-3.5-.28-8.57,1.94-11.57,2.59-3.51,14.25-3.94,14.93-8.35,0.18-1.15-4,.17-4-0.69,0.09-3.22,8.34-6,7.44-10.56,0.17,0.85-15.77,6.46-17.21,6.83a70.24,70.24,0,0,1-29.7,1.41c-3.06-.55-16-2.77-16.13-8.1-0.07-3.67,9.4-5.33,8.74-6.13-3.53-4.27-55.84-4.87-27.64-19.59,7.88-4.12,14.21-8.72,18.87-16.52,0.47-.79,6.12-11.17,3.79-11.77-0.9-.23-9.21,10.45-9.71,9.52s6.59-27.35-.3-26.57c0.14,0-4.3,14.33-4.93,15.51a54.21,54.21,0,0,1-14.54,17.07c-13.7,10.62-32.39,10.78-45.55,22.47-14.81,13.15-14,34.65-13.67,52.86,0.12,7.69.38,15.7,3.22,22.95,1.41,3.59,4.07,6.51,5.14,10.28,0.13,0.45-.77,5-1.76,4.19,7.69,6.42-2.93,4.91-9.07,6.19-1.78.37-4.75,3.81-6.44,2.51-3.53-2.72,2.73-3.82,2.35-5.31,0.27,1.07-6.43-3.39-6.66-3.62-3.89-3.87-6-11-7.72-16-6.09-17.36-7.5-34.48-7.82-52.72-0.3-16.8-6.21-35.19-3.63-51.74,0.21-1.37,10.72-22.28,12.2-19.74-0.71-1.22-7.94,3.91-8.24,3.22-1.11-2.51,3.42-10.86,4.19-13.77-1.82,5.83-4.3,11.41-6.33,17.16a35.87,35.87,0,0,1,8-5.41c-13.39,5.94-12.14,25.37-10.63,36.91,2.68,20.43,2,41,4.5,61.36,2.08,16.84,8,29.83,15.59,44.39,1.92,3.67,2.09,6.18,7.12,6.2,4.35,0,16.9-2.92,18.49-6.95,1.72-4.37-3.26-11.24-4.49-15.41-2.17-7.34-2.51-15.13-2.82-22.73-0.62-15.29-.06-35.93,13.43-46,19.82-14.74,61.34-25.08,61.34-56.52A43.22,43.22,0,0,1,303-190.48c8-4.89,14.18-8.61,20.18-16-2.65,3.4-4.84,7.45-8.11,10.64-5.31,5.2-10.4,5.82-16.55,9-6.62,3.37-13,8.18-19.48,11.86,15.62,1.74,28.28,12.69,44.64,11.58-10.42,1.57-19-.54-28.54-4.41-7.24-2.93-16-9.3-19.75-2.42-3.37,6.12,2.7,23.26,4.3,29.79a285.5,285.5,0,0,0,8.49,27.43,239.58,239.58,0,0,0,12.14,28.76c2.21,4.35,5.88,8.65,6.11,13.72,0-.49-2.44,12.09-3.31,10,1.73,4.22,7.9-1.89,9.67,4,1.78-3.75,7.66-6.64,11.48-3.79-0.56-15.6-.74-29.17-5.9-44a64.8,64.8,0,0,1,.11-43.69c-5.78,1.41-15.72-.06-20.57-3.9,2.81,2.09,19.95,5.26,21.35,1.86-4-2.58-7.8-5.8-12.16-7.76,13.35,2.79,22.54,14,37.16,15.19,13.66,1.14,26.8-2.74,38.13-10.44-4.56,4.34-12.32,7.82-18.19,9.77a54.75,54.75,0,0,0,14-2.45c-2.09.83-14.77,2.76-15.74,4.08-0.64.87,0.58,12.55,0.51,14a105.12,105.12,0,0,1-1.5,12.58c-2.5,14.93-10.72,30.09-11.68,44.84q0.24-2.91.76-5.79c-1.52,6-4.27,9.62-9.21,13.35,3.44-.42,5.81,4,6.17,6.85,4.31-6.05,7.22-2.83,11.79-1.85,2.56,0.55,4.22-3,6.77,1.37,3.28-1.65,1.81-6.35,2.36-9.15,1.21-6.09,4-11.12,6.9-16.58,6.06-11.59,12-23.14,16.14-35.56,7.25-21.53,11.14-47.7,2.48-69.09,2,5.34,4.95,10.52,5.75,16.23,0.44-3.31,1.77-9.59-.32-12.48,4.89,7.43,1.59,24,1,32.33,14.05,0,35.56-9.43,46.62-16.92,10.19-6.89,15-17.15,19.84-28.08C471.52-206.28,477-212.88,486-220c-15.44,13.86-16.29,37-31.89,50.22,4.07-2,14.72-6.74,14.72-12.55-1.1,9-13.1,13.77-20.11,16.45,18.56,2.31,24.07,16.9,26.73,33.61,2.46,15.49,3.6,41.21-10.69,51.12,3.63-.11,5.09,3.92,3.3,6.61,2.78-3.32,8.47-5,10.48,0,0.9-3.24,5.79-3.86,7.85-1.46,0.3-3.14,3.84-5.68,6.89-4.43-2-3.82,1.23-10.89,2-14.39a261.83,261.83,0,0,0,5.15-29.09c2.29-21.06-1.66-41.1-5.67-61.7C493.68-191.13,496.85-174.9,494.76-185.63ZM306-160.08q-2.36-.73-3.48,1c1.55,4.75,14.28,6.69,2.62,7.3-1.23.06-14.67-5-9.43,0.26,3.56,3.57,15.86,2,17.55,5.4,1.37,2.73-1.57,5.5-2.53,8.14-6.29,17.32,3.85,35.24,7.79,52.09,1.43,6.11,4.16,17.15-1.78,22-1.5,1.23-11.16,2.61-11,1.49,0.63-3.7,2.68-4.61,2.23-8.84-0.5-4.75-4.66-9.69-6.87-13.92a192.72,192.72,0,0,1-11.54-26.81c-4.54-13.21-8.89-27.65-10.1-41.62-0.25-2.86-1.5-9.31,1.7-11.27,2.36-1.44,9.7,2.78,10.6.82,0.48-1-3.38-3-3.8-3.69,0.54,0.84,22.46,7,22.37,7.17a10.94,10.94,0,0,1-4.37.45h0Z" transform="translate(-200.42 332.77)"/><path class="cls-11" d="M214.86-286.72c-0.12.05,10.35,12.37,10.58,13,1.58,4.58-5.63,18-3.81,20.39-3.44-4.57,22.14-20.41,24.26-21.3a50.41,50.41,0,0,1,29.19-2.74c1.75,0.33,19.7,4.89,19.85,5.71-0.82-4.68-11-7.5-14.73-8.66-2.59-.82-17.59-1.49-18.67-2.82-2.63-3.27,10-7.46,12.46-8.41a150.32,150.32,0,0,1,42-9.22c4.77-.39,45.37.17,45.5,2-0.42-6-18.64-4-20.45-8.34-1.64-3.9,8.71-7.52,11.08-8.55,23.57-10.22,51.69-14.4,77.21-13.53-41.58-3.06-80.14,10.79-118.82,23.71,3.52-.41,43.75,1.1,42.25,4.7C352-299,331-302.93,327.64-303.12A104.15,104.15,0,0,0,300.35-301c-18.14,3.8-36.46,10.6-51.2,22.1,15.12-4.79,31.25-1.56,44.53,6.67-14.8-9.79-35.19-9.57-50.81-2.34q-0.2-.36.32-0.43c-7.26,3.67-17.35,10.76-20.12,18.8,2.56-6.5,7.6-10.12,4.63-17.5-2.65-6.59-11-8.76-12.9-16.24-0.87,2.89-1.1,3.67-.61,6.73a6.44,6.44,0,0,1,.66-3.52h0Z" transform="translate(-200.42 332.77)"/><path class="cls-11" d="M304.67-257.45c5.42-9.17,15.07-14.67,25-17.75,5.6-1.74,17.87-.61,22.18-3.15-9,5.35-21.59,5.11-31.12,10.27-8.75,4.74-19.86,17.94-14.92,29-1-2.16,5.26-12.16,6.67-14,4-5.32,20.14-19.33,27.19-17.19,4.21,1.27-2.53,8.45-4.47,10.64a53.52,53.52,0,0,1-12.23,10.19c-2.53,1.52-12.72,3.77-13.56,5.6,0.39-.84,10.13,1.17,12,3.68,1.34,1.78,1,14,.62,14.07,4.53-.66,3.55-12.07,4.27-14.78,1.7-6.43,3.35-7.15,8.87-11.6,5.67-4.57,9.27-10,13.06-16.1,1.48-2.39,8.33-9.57,7.59-11.55-3.24-8.67-35,2.06-39.22,4.59-2.93,1.75-5.8,4-8.57,5.94-2.3,1.61-4.8,2.5-6.76,4.69-1.54,1.71-2.75,6.94-3.75,7.78,2.79-2.37,4.53-5.76,7.69-7.93-1.8,1.24-6.57,15.42-5.13,15.42,0.73,0,5-8.41,4.59-7.77C313.91-273.1,300-249.63,304.67-257.45Z" transform="translate(-200.42 332.77)"/><path class="cls-11" d="M450-94.13a111.65,111.65,0,0,0-2-26.07c-1.94-10.44-12.14-33.5-4.88-43.17-12.45,5.44-25.5,12.18-39.18,13.16,6.82,10.93,16,16.11,21.16,28.69,3.08,7.43,8.42,19.36,7.42,27.6-0.16,1.29-.2,2.68-0.35,3.93s-3.44,2.86-2.68,4.84c1.17,3,7.86-3.11,9.85,2.57,1.61-3.82,7.37-7,11.31-4.28q-0.34-3.63-.68-7.26C450.15-96.53,450.24-91.69,450-94.13Zm-3.64,4.66c-1.19.35-15.79,4.16-15,2.12,4.49-10.9-.64-29.2-6-40.26-2.59-5.33-17.25-17.12-12.72-19.43,2.48-1.26,18.16,1.31,20.79,2.22,7.05,2.42,7.08,5.71,8.92,12.74,1.27,4.85,10,40.84,4,42.62h0Z" transform="translate(-200.42 332.77)"/><path class="cls-11" d="M275.54-197.24c-7.14-.2,13.9,1.34,14.18-16.7S304.58-196.39,275.54-197.24Z" transform="translate(-200.42 332.77)"/><path class="cls-12" d="M222.83-251.78c5.16-10.13,15-18.16,25.6-22,11.35-4.17,37.92-5.78,46.68,4.29-3.31-3.8-24-1.93-28.25-1.59a68.49,68.49,0,0,0-24.43,6.27,55.28,55.28,0,0,0-11.75,7.62c-2.52,2.14-7.2,9.81-10.16,10.52-0.15,0,2.71-5.86,2.3-5.06h0Z" transform="translate(-200.42 332.77)"/><path class="cls-12" d="M220.1-223.66c-21.6,11.41-11.13,38.36-9.85,57.4,1,14.46.06,29,2,43.38,1.74,13.21,8.08,23.34,11.66,35.64-6.93-23.83-7.65-45-8.67-69.75-0.89-21.41-14.2-49.86,4.9-66.67C209.15-217.88,199.12-205.19,220.1-223.66Z" transform="translate(-200.42 332.77)"/><path class="cls-11" d="M264-209.92c-2.72-14.08,6.58-21.85,20.46-20.46C270.5-236.32,255.2-224.68,264-209.92Z" transform="translate(-200.42 332.77)"/><path class="cls-11" d="M245.56-129.8c0.25-13.49,4.35-28.91,16.17-36.9C252.1-161,247-153.12,244.83-142a68.82,68.82,0,0,0-1,19.64c0.07,0.69,2.42,12.17,3.81,7-2.16,1.19-2-14.32-2-14.43C246-153.33,245.35-117.75,245.56-129.8Z" transform="translate(-200.42 332.77)"/><path class="cls-12" d="M286.72-125.46c-0.46-1.51-7.31-31.35-3.28-30.92,2.83,0.3,12.2,46.07,14.51,52,3.1,8,19.12,30.05,12.28,38.59,4-5-7.21-18.75-9.24-22.46-6.41-11.68-10.39-24.53-14.27-37.22C279-150.67,292.22-107.53,286.72-125.46Z" transform="translate(-200.42 332.77)"/><path class="cls-12" d="M365-109.93c1.21-8.57,0-23.72,7.19-30,0.9-.78,8-4.84,9.34-3.12s-3.68,6-4.65,7.68c-5.2,8.9-6,21.11-8.47,30.94-1,3.92-14.42,35.37-13.77,36.34-0.75-1.12,3.52-11.19,3.82-12.22A207.38,207.38,0,0,0,365-109.93h0Z" transform="translate(-200.42 332.77)"/><path class="cls-12" d="M276.42-289.76c14.72-6.39,32.06-8.31,47.92-9,3-.14,37.47-0.48,37.37,3.48,0-1-49.88,2.37-53.22,2.89a168.22,168.22,0,0,0-19.68,4.35C285-287,276.7-282.63,272.76-284c-5.41-1.9-1.31-3.59,3.66-5.75h0Z" transform="translate(-200.42 332.77)"/><path class="cls-12" d="M311.38-249.58c4.16-7.19,18.72-19.57,27.71-19.11-4.41-.23-30.35,22.2-29.75,23.65a11.1,11.1,0,0,1,2-4.54h0Z" transform="translate(-200.42 332.77)"/><path class="cls-12" d="M219.75-258.84c1.36-8.88-3.81-15.1-3.65-23.39-0.08,4.59,5.37,9.69,6.25,14.21,0.72,3.69-4.65,15.18-3.64,16.75-0.6-.94,1-7.16,1-7.58h0Z" transform="translate(-200.42 332.77)"/><path class="cls-12" d="M475.26-158.33c8,15.93,8.46,39.06,4.7,56.08-0.31,1.41-7,16.39-5.62,17.42,2.55,1.86,7-5.55,7.8-6.86,10.51-16.82,9.36-42,2.62-59.84-1.14-3-5.69-15.68-10-15.85-4.63-.18-1,6.24.46,9C481.13-146.58,464.63-179.6,475.26-158.33Z" transform="translate(-200.42 332.77)"/><path class="cls-12" d="M432.95-109.72c-1.6-6.7-2.82-13.82-6.52-19.75-0.77-1.24-7.56-11-8.93-11,9.8,0.41,16.9,10.28,18.17,18.74,0.47,3.11.76,26.59,2.1,27.38-2.93-1.7-4.27-13-4.82-15.35h0Z" transform="translate(-200.42 332.77)"/><path class="cls-12" d="M334-158.45c5.07,1.23,51.79-1.47,50.57-5.85,1.78,6.4-25.08,11.22-27.54,11.51-8.34,1-17.72,1.39-25.53-2.26-8.14-3.8-5.62-5.38,2.5-3.41C350.29-154.51,316-162.83,334-158.45Z" transform="translate(-200.42 332.77)"/><path class="cls-12" d="M304-177.71c1.64,0.73,25.16,9.34,26.32,6.63-1.94,4.58-18.81,2.62-22.11,1.56-5.17-1.66-13.56-12.35-4.2-8.19h0Z" transform="translate(-200.42 332.77)"/><path class="cls-13" d="M312.53-56.37c0-8.16-21.18,6.15-11.42,9.55,1.57,0.55,12.11-7.45,11.42-9.55C312.53-56.39,312.54-56.32,312.53-56.37Zm-5.73,2.68c-1,.76-4.15,5.74-5.74,6-4.2.75,5.36-16.56,8.41-9.8a4.17,4.17,0,0,1-2.67,3.78h0Z" transform="translate(-200.42 332.77)"/><path class="cls-13" d="M324.28-59.22c-3.3-3.27-10.56.72-11,4.68,0.47,0,4.85,4.29,5.46,4.47,6,1.75,5.67-2.83,5.58-9.15C321.74-61.73,324.31-57.54,324.28-59.22Zm-1.92,10c-1.43,1.21-12.51-8-3.76-10.19,5.46-1.37,7.58,7,3.76,10.19h0Z" transform="translate(-200.42 332.77)"/><path class="cls-13" d="M301.72-59c-2.87.16-10.75,6.5-7.16,9.26,3.18,2.44,7.48-7.66,9.33-8.71a7.89,7.89,0,0,0-2.17-.55h0Zm-2.87,4.66c0.13-.51-4.05,5.71-4.58,2.87-0.89-4.84,6.35-5.57,7-6.57a11,11,0,0,0-2.42,3.7C298.14-51.67,299.55-57,298.85-54.35Z" transform="translate(-200.42 332.77)"/><path class="cls-13" d="M301.85-60.93c-1.77.33-10,1.78-9.31,5.41,0,0,9.16-4.65,9.31-5.41C300-60.58,301.78-60.59,301.85-60.93Zm-7.36,4.09q-1.08,2-1.2.49c1.14-3.53,5-3.19,7.66-4.2-2.26.86-5,1.61-6.46,3.71h0Z" transform="translate(-200.42 332.77)"/><path class="cls-13" d="M345.23-59.23c-3.66-6.12-11.57.56-11.3,6,0.39,7.77,8.48-2.7,12.68-1.35a8.59,8.59,0,0,0-1.38-4.62C344.06-61.18,345.79-58.3,345.23-59.23Zm-7.33,5.71-2.73,2.19c-0.85.21,1.1-10.66,6.12-10.28,6.57,0.49-2.4,6.87-3.38,8.09h0Z" transform="translate(-200.42 332.77)"/><path class="cls-13" d="M357.89-55.18c0-8.84-13-1-11.42,6.41,2.53,11.5,12.91-3.46,11.42-6.41C357.88-57.33,358-55.06,357.89-55.18Zm-5.44,7.63c-6,8.27-6.94-7.8-1.28-10.4,8.43-3.87,3.75,7,1.28,10.4h0Z" transform="translate(-200.42 332.77)"/><path class="cls-13" d="M366.32-52.15c-0.52-5.51-6.57-7.24-7.42-1.8-0.95,6,8.52,13.06,7.42,1.8C366.13-54.19,366.52-50.05,366.32-52.15ZM364.16-46c-2.74.5-5.59-10.54-1.53-10.67,3.6-.11,5.3,10,1.53,10.67h0Z" transform="translate(-200.42 332.77)"/><path class="cls-13" d="M374.13-52.27c-0.4-4-3.08-5.18-5-8.23-0.07,3.91-6.06,6.17-.19,8.72,0.85,0.37,5.37,1.86,5.14-.48h0Zm-1.61.48c-1.46-.47-4.91-7.17-2-6.57,2,0.41,4,7.19,2,6.57h0Z" transform="translate(-200.42 332.77)"/><path class="cls-14" d="M300.26-49.64c0.34-3.3,2.89-7.3,6-8S302.74-56.35,300.26-49.64Z" transform="translate(-200.42 332.77)"/><path class="cls-14" d="M294.75-52.28a8,8,0,0,1,4.93-5.82C301.49-58.71,296.16-56.13,294.75-52.28Z" transform="translate(-200.42 332.77)"/><path class="cls-14" d="M293.63-56.7a7,7,0,0,1,4.84-3.39A11.19,11.19,0,0,0,293.63-56.7Z" transform="translate(-200.42 332.77)"/><path class="cls-14" d="M322.45-50.63c0.95-2.65,1.24-6.81-.47-7.93C319.64-60.09,323.21-55.34,322.45-50.63Z" transform="translate(-200.42 332.77)"/><path class="cls-14" d="M334.46-53.06s1.61-5.67,5-7.38S337.89-59.71,334.46-53.06Z" transform="translate(-200.42 332.77)"/><path class="cls-14" d="M347.78-46.56c-0.9-4.17,1.22-10.81,5.32-11.65S348.17-54.74,347.78-46.56Z" transform="translate(-200.42 332.77)"/><path class="cls-14" d="M364.4-46.56c1.61-2.41,1.84-6.55-.46-9C362.08-57.6,365.58-52.15,364.4-46.56Z" transform="translate(-200.42 332.77)"/><path class="cls-14" d="M371-57.6s2.33,1.21,2.2,5.35A11.29,11.29,0,0,0,371-57.6Z" transform="translate(-200.42 332.77)"/><path class="cls-14" d="M427.55-75.4c0.34-3.29,2.88-7.3,6-8S430-82.11,427.55-75.4Z" transform="translate(-200.42 332.77)"/><path class="cls-14" d="M422.24-77.59a8,8,0,0,1,4.93-5.82C429-84,423.66-81.45,422.24-77.59Z" transform="translate(-200.42 332.77)"/><path class="cls-14" d="M420.55-82a7,7,0,0,1,4.85-3.4A11.27,11.27,0,0,0,420.55-82Z" transform="translate(-200.42 332.77)"/><path class="cls-14" d="M449.3-76.44c0.94-2.65,1.24-6.81-.48-7.93C446.49-85.9,450.06-81.15,449.3-76.44Z" transform="translate(-200.42 332.77)"/><path class="cls-13" d="M428.28-84.46c-2.85.29-10.46,7-6.75,9.56,3.29,2.3,7.14-8,8.93-9.1a7.79,7.79,0,0,0-2.18-.46h0Zm-0.91,2.83c-1.05,1.56-3.77,5.46-6,6.06S426.9-88,428-83.41l-0.6,1.77C425.27-78.53,429.48-84.72,427.37-81.63Z" transform="translate(-200.42 332.77)"/><path class="cls-13" d="M439.24-82.13C438-88,422.41-80.51,427.08-73.78c2.21,3.18,11.07-5.08,12.16-8.35C439.23-82.18,439.07-81.62,439.24-82.13Zm-7.91,5.56a7.26,7.26,0,0,1-3.78,3.41c-1.51-.1,1.36-11.66,6.89-10.57,5.07,1-1.43,5.22-3.1,7.17h0Z" transform="translate(-200.42 332.77)"/><path class="cls-13" d="M450.88-83.68c-0.11-6-10.9-1.48-10.9,3.18,4.73,0,13.48,11.73,10.9-3.18C450.87-84.33,451.45-80.42,450.88-83.68Zm-2.2,7.93c-3.6,1.17-8-7.1-3.18-9.23,6.51-2.88,7.12,8,3.18,9.23h0Z" transform="translate(-200.42 332.77)"/><path class="cls-13" d="M428.33-86.38c-1.77.42-9.92,2.21-9.07,5.82,0,0,8.93-5,9.07-5.82C426.49-85.95,428.27-86,428.33-86.38Zm-6.63,4.12-1.61,1.4a45.23,45.23,0,0,1,7.29-5c-2.14.73-4.36,1.67-5.68,3.65h0Z" transform="translate(-200.42 332.77)"/><path class="cls-14" d="M456.6-72.05s2.21-5.46,5.77-6.79S460.73-78.28,456.6-72.05Z" transform="translate(-200.42 332.77)"/><path class="cls-14" d="M468-66.39c-0.76-3.48,1-9,4.45-9.74S468.33-73.24,468-66.39Z" transform="translate(-200.42 332.77)"/><path class="cls-14" d="M485.74-65.2c1.37-2.55,1.21-6.69-1.3-8.94C482.41-76,486.4-70.88,485.74-65.2Z" transform="translate(-200.42 332.77)"/><path class="cls-14" d="M493.16-79.13s3.24,0.39,3.55,4.57A11.27,11.27,0,0,0,493.16-79.13Z" transform="translate(-200.42 332.77)"/><path class="cls-13" d="M464.16-80.77c-0.54.26-11.23,9.39-8.53,10.41,6.1,2.34,18.7-10.85,8.53-10.41h0Zm1.07,4.91c-0.71.46-9.13,5.38-9.55,4.91-6.15-6.72,18-10.32,9.55-4.91h0Z" transform="translate(-200.42 332.77)"/><path class="cls-13" d="M476.94-75.18c-4.68-6.13-13.31,5.3-9.34,9.41,3.67,3.8,12.3-5.59,9.34-9.41C474.65-78.19,477.44-74.55,476.94-75.18Zm-7,9.29c-3.39,2.24-2.69-13.94,4.63-10.07,4.85,2.57-1.79,8.19-4.63,10.07h0Z" transform="translate(-200.42 332.77)"/><path class="cls-13" d="M487.28-69.71c-0.81-7.43-9.11-8.64-7.33-.58,1.23,5.59,8.25,9.45,7.33.58C487-72,487.4-68.55,487.28-69.71Zm-1.7,5.1c-2.76,1-8.08-11.86-1.68-10.68,2.94,0.54,4.53,9.66,1.68,10.68h0Z" transform="translate(-200.42 332.77)"/><path class="cls-13" d="M496.2-78.12c-4-4.44-11.57.59-5.86,4.56,3.43,2.38,10.4.45,5.86-4.56h0Zm-1.1,4c-16.58-2.18,5.54-9.43,2.2-.75Z" transform="translate(-200.42 332.77)"/></g></g></svg>