<svg id="Layer_1" data-name="Layer 1" xmlns="http://www.w3.org/2000/svg" viewBox="0 0 684.1 589.65"><defs><style>.cls-1{fill:#875224;}.cls-2{fill:#c79c4b;}.cls-3{fill:#efe2a3;}.cls-4{fill:#fff;}.cls-5{fill:#09ac6a;}</style></defs><title>anim_01</title><path class="cls-1" d="M-4182.36,3248.11H-4473a108.85,108.85,0,0,1-108.73-108.73A108.86,108.86,0,0,1-4473,3030.64a29.59,29.59,0,0,1,29.59,29.59,29.59,29.59,0,0,1-29.59,29.59,49.61,49.61,0,0,0-49.55,49.56,49.61,49.61,0,0,0,49.55,49.55h290.66a29.59,29.59,0,0,1,29.59,29.59A29.59,29.59,0,0,1-4182.36,3248.11Z" transform="translate(4581.75 -2658.46)"/><path class="cls-2" d="M-4399.34,3248.11A140.11,140.11,0,0,1-4259.24,3108a140.11,140.11,0,0,1,140.11,140.11h-280.21Z" transform="translate(4581.75 -2658.46)"/><path class="cls-1" d="M-4158.09,2853.31c0-107.59-87.24-194.83-194.83-194.86l0,246.55Z" transform="translate(4581.75 -2658.46)"/><path class="cls-1" d="M-4121.63,2853.31c0-107.59,87.24-194.83,194.83-194.86l0,166.71v84.33Z" transform="translate(4581.75 -2658.46)"/><circle class="cls-1" cx="441.88" cy="414.52" r="175.13"/><path class="cls-1" d="M-4139.87,3248.11A175.13,175.13,0,0,1-4315,3073a175.13,175.13,0,0,1,175.13-175.13" transform="translate(4581.75 -2658.46)"/><circle class="cls-3" cx="441.88" cy="254.74" r="213.05"/><circle class="cls-1" cx="548.99" cy="229.09" r="71.49"/><path class="cls-2" d="M-4139.87,3126.24c-117.66,0-213-95.38-213-213s95.38-213,213-213" transform="translate(4581.75 -2658.46)"/><path class="cls-3" d="M-4055.32,3248.11a70.05,70.05,0,0,1,70.05-70.05,70.05,70.05,0,0,1,70.05,70.05h-140.11Z" transform="translate(4581.75 -2658.46)"/><path class="cls-1" d="M-4181.9,2994.84a8.88,8.88,0,0,1-8.88-8.88,8.88,8.88,0,0,1,8.88-8.88,33.18,33.18,0,0,0,33.15-33.14,8.88,8.88,0,0,1,8.88-8.88,8.88,8.88,0,0,1,8.88,8.88A51,51,0,0,1-4181.9,2994.84Z" transform="translate(4581.75 -2658.46)"/><path class="cls-1" d="M-4097.85,2994.84a51,51,0,0,1-50.9-50.9,8.88,8.88,0,0,1,8.88-8.88,8.88,8.88,0,0,1,8.88,8.88,33.18,33.18,0,0,0,33.14,33.14A8.88,8.88,0,0,1-4089,2986,8.88,8.88,0,0,1-4097.85,2994.84Z" transform="translate(4581.75 -2658.46)"/><polygon class="cls-1" points="441.88 300.58 405.63 255.55 478.12 255.55 441.88 300.58"/><circle class="cls-4" cx="548.99" cy="229.09" r="37.48"/><path class="cls-3" d="M-4108.58,3248.11h-140.11a70.05,70.05,0,0,1,70.05-70.05,70.05,70.05,0,0,1,70.05,70.05" transform="translate(4581.75 -2658.46)"/><path class="cls-1" d="M-4025.29,3248.11a28.89,28.89,0,0,1,28.89-28.89,28.89,28.89,0,0,1,28.89,28.89" transform="translate(4581.75 -2658.46)"/><path class="cls-1" d="M-3955.43,3248.11a28.89,28.89,0,0,1,28.89-28.89,28.89,28.89,0,0,1,28.89,28.89h-57.78Z" transform="translate(4581.75 -2658.46)"/><path class="cls-1" d="M-4268.11,3248.11a28.89,28.89,0,0,1,28.89-28.89,28.89,28.89,0,0,1,28.89,28.89" transform="translate(4581.75 -2658.46)"/><path class="cls-1" d="M-4189,3248.11a28.89,28.89,0,0,1,28.89-28.89,28.89,28.89,0,0,1,28.89,28.89" transform="translate(4581.75 -2658.46)"/><circle class="cls-5" cx="548.99" cy="229.09" r="24.06"/><path class="cls-4" d="M-4247,2925a37.48,37.48,0,0,0,37.48-37.48h-75A37.48,37.48,0,0,0-4247,2925Z" transform="translate(4581.75 -2658.46)"/><rect class="cls-1" x="507.25" y="180.76" width="89.23" height="48.33"/><path class="cls-5" d="M-4223.1,2887.55a24.06,24.06,0,0,1-24.06,24.06,24.06,24.06,0,0,1-24.06-24.06" transform="translate(4581.75 -2658.46)"/></svg>