<svg id="Layer_1" data-name="Layer 1" xmlns="http://www.w3.org/2000/svg" viewBox="0 0 241.58 200.37"><defs><style>.cls-1{fill:#7a5223;}.cls-1,.cls-2,.cls-3,.cls-4,.cls-5{fill-rule:evenodd;}.cls-2{fill:#9a6b33;}.cls-3{fill:#fff;}.cls-4{fill:#bf8136;}.cls-5{fill:#1d2e2f;}</style></defs><title>anim_30</title><g id="tail"><path class="cls-1" d="M12,2159.05c-0.3-5.77-.64-21.78-9.77-7.9-5.74,8.73-12.71,11.71-23.07,13.35-2.19-10.26-1.92-17.83,4.16-26.33,9.67-13.52-5.4-8.08-10.88-6.28-7.6,2.49-14.92,7.61-17.52,13.79-3.4,8.08-4,16.32-1.9,23.82-3.8,17.59-35.79,29.76-56.16,40.92-22.5,12.31,41.17,75.31,46.68,44.08,5.16-29.23,16.7-58,36.11-63.71,9.3,0.43,18.34-3.24,25.8-10.43C10.25,2175.72,12.39,2167,12,2159.05Z" transform="translate(229.55 -2089.76)"/></g><g id="body"><path class="cls-2" d="M-21.2,2248.27c-8.44-1.55-15.39-3-21.24-5.37q0.56-1.55,1.09-3.14c19-56.5-21.5-150-80-150s-99.5,94-80,148c1,2.7,2,5.4,3,8.06a134.44,134.44,0,0,1-17.55,4.07c-19.5,3.53-17,23.23,0,28.76a40.78,40.78,0,0,0,35.83-4.82c11.22,9.8,28.34,16.3,56.7,16.3,33.34,0,52.47-7.46,64.55-19.47a42.84,42.84,0,0,0,37.87,6C-3.76,2271.37-1.35,2251.91-21.2,2248.27Z" transform="translate(229.55 -2089.76)"/></g><g id="canines"><path class="cls-3" d="M-141.35,2190c5.25-32.25-7.75-2.25-12-2s-4.75,26-2,40,12.75,23.5,16,22S-146.6,2222.26-141.35,2190Zm56-2c-4.25-.25-17.25-30.25-12,2s-5.25,58.5-2,60,13.25-8,16-22S-81.1,2188.26-85.35,2188Z" transform="translate(229.55 -2089.76)"/></g><g id="nose"><path class="cls-4" d="M-120.63,2142c-42.74,0-67,36.24-42.44,53.18s43.45-8.62,43.45-25.29c0,17.33,24.24,42.91,45.43,24.74C-50.2,2174.08-77.89,2142-120.63,2142Z" transform="translate(229.55 -2089.76)"/></g><g id="nose-2" data-name="nose"><path class="cls-5" d="M-84.41,2134c-2.79,0-5.06,2.69-5.06,6s2.26,6,5.06,6,5.06-2.69,5.06-6S-81.62,2134-84.41,2134Zm-71.89,0c-2.79,0-5.06,2.69-5.06,6s2.26,6,5.06,6,5.06-2.69,5.06-6S-153.5,2134-156.3,2134Zm36.94,4c-5.52,0-10,4.56-10,11.13,0,4.73,4.48,6.87,10,6.87s10-3.06,10-6.87C-109.35,2142.57-113.83,2138-119.35,2138Z" transform="translate(229.55 -2089.76)"/></g></svg>