<svg xmlns="http://www.w3.org/2000/svg" xmlns:xlink="http://www.w3.org/1999/xlink" viewBox="0 0 126.89 172.57"><defs><style>.cls-1,.cls-2{fill:none;}.cls-2{stroke:#6d3c19;}.cls-2,.cls-59,.cls-65{stroke-width:0.42px;}.cls-3{isolation:isolate;}.cls-4{fill:#6d3c19;}.cls-5{fill:url(#radial-gradient);}.cls-6{fill:url(#radial-gradient-2);}.cls-28,.cls-44,.cls-45,.cls-46,.cls-7{opacity:0.6;}.cls-28,.cls-44,.cls-45,.cls-46,.cls-47,.cls-48,.cls-49,.cls-50,.cls-53,.cls-69,.cls-7,.cls-9{mix-blend-mode:multiply;}.cls-17,.cls-23,.cls-24,.cls-29,.cls-30,.cls-32,.cls-42,.cls-43,.cls-8{opacity:0.5;}.cls-11,.cls-12,.cls-13,.cls-17,.cls-19,.cls-20,.cls-23,.cls-24,.cls-29,.cls-30,.cls-32,.cls-34,.cls-35,.cls-36,.cls-37,.cls-39,.cls-40,.cls-42,.cls-43,.cls-8{mix-blend-mode:screen;}.cls-8{fill:url(#radial-gradient-4);}.cls-10{fill:url(#radial-gradient-5);}.cls-11,.cls-12,.cls-13,.cls-19,.cls-20,.cls-34,.cls-35,.cls-36,.cls-37,.cls-39,.cls-40,.cls-47,.cls-48,.cls-49,.cls-50{opacity:0.4;}.cls-11{fill:url(#radial-gradient-6);}.cls-12{fill:url(#radial-gradient-7);}.cls-13{fill:url(#radial-gradient-8);}.cls-14{fill:url(#radial-gradient-9);}.cls-15{fill:url(#radial-gradient-10);}.cls-16{fill:url(#radial-gradient-11);}.cls-17{fill:url(#radial-gradient-12);}.cls-18{fill:url(#radial-gradient-13);}.cls-19{fill:url(#radial-gradient-14);}.cls-20{fill:url(#radial-gradient-15);}.cls-21{fill:url(#radial-gradient-16);}.cls-22{fill:url(#radial-gradient-17);}.cls-23{fill:url(#radial-gradient-18);}.cls-24{fill:url(#radial-gradient-19);}.cls-25{fill:url(#radial-gradient-20);}.cls-26{fill:url(#radial-gradient-21);}.cls-27{fill:url(#radial-gradient-22);}.cls-28{fill:url(#radial-gradient-23);}.cls-29{fill:url(#radial-gradient-24);}.cls-30{fill:url(#radial-gradient-25);}.cls-31{fill:url(#radial-gradient-26);}.cls-32{fill:url(#radial-gradient-27);}.cls-33{fill:url(#radial-gradient-28);}.cls-34{fill:url(#radial-gradient-29);}.cls-35{fill:url(#radial-gradient-30);}.cls-36{fill:url(#radial-gradient-31);}.cls-37{fill:url(#radial-gradient-32);}.cls-38{fill:url(#radial-gradient-33);}.cls-39{fill:url(#radial-gradient-34);}.cls-40{fill:url(#radial-gradient-35);}.cls-41{fill:url(#radial-gradient-36);}.cls-42{fill:url(#radial-gradient-37);}.cls-43{fill:url(#radial-gradient-38);}.cls-44{fill:url(#radial-gradient-39);}.cls-45{fill:url(#radial-gradient-40);}.cls-46{fill:url(#radial-gradient-41);}.cls-47{fill:url(#radial-gradient-42);}.cls-48{fill:url(#radial-gradient-43);}.cls-49{fill:url(#radial-gradient-44);}.cls-50{fill:url(#radial-gradient-45);}.cls-51{fill:url(#radial-gradient-46);}.cls-52{fill:url(#radial-gradient-47);}.cls-53{opacity:0.7;}.cls-54{fill:url(#radial-gradient-48);}.cls-55{fill:url(#radial-gradient-49);}.cls-56{fill:url(#radial-gradient-50);}.cls-57{fill:url(#radial-gradient-51);}.cls-58{clip-path:url(#clip-path);}.cls-59,.cls-65{stroke:#4e2913;}.cls-59{fill:url(#radial-gradient-52);}.cls-60{fill:url(#radial-gradient-53);}.cls-61{fill:#fbfbfb;}.cls-62{clip-path:url(#clip-path-2);}.cls-63{fill:url(#radial-gradient-54);}.cls-64{clip-path:url(#clip-path-3);}.cls-65{fill:url(#radial-gradient-55);}.cls-66{fill:url(#radial-gradient-56);}.cls-67{fill:url(#radial-gradient-57);}.cls-68{fill:url(#radial-gradient-58);}.cls-69{opacity:0.8;}.cls-70{fill:url(#radial-gradient-59);}</style><radialGradient id="radial-gradient" cx="2112.55" cy="71.9" r="11.01" gradientTransform="translate(-19.71 13.39) scale(1.02 1.03)" gradientUnits="userSpaceOnUse"><stop offset="0" stop-color="#e99723"/><stop offset="0.31" stop-color="#e69523"/><stop offset="0.52" stop-color="#dd8e21"/><stop offset="0.69" stop-color="#ce831e"/><stop offset="0.85" stop-color="#b9721b"/><stop offset="1" stop-color="#9e5e16"/></radialGradient><radialGradient id="radial-gradient-2" cx="2114.29" cy="83.9" r="9.25" gradientTransform="translate(-19.71 13.39) scale(1.02 1.03)" gradientUnits="userSpaceOnUse"><stop offset="0" stop-color="#fdc785"/><stop offset="0.39" stop-color="#fdc582"/><stop offset="0.66" stop-color="#fcc079"/><stop offset="0.88" stop-color="#fcb66a"/><stop offset="1" stop-color="#fbaf5f"/></radialGradient><radialGradient id="radial-gradient-4" cx="2111.76" cy="73.46" r="4.48" gradientTransform="translate(-19.71 13.39) scale(1.02 1.03)" gradientUnits="userSpaceOnUse"><stop offset="0" stop-color="#e57326"/><stop offset="0.4" stop-color="#e27225"/><stop offset="0.68" stop-color="#d96e23"/><stop offset="0.91" stop-color="#ca671f"/><stop offset="1" stop-color="#c2631d"/></radialGradient><radialGradient id="radial-gradient-5" cx="2114.02" cy="83.66" r="9.02" xlink:href="#radial-gradient-2"/><radialGradient id="radial-gradient-6" cx="2120.82" cy="83.38" r="2.76" xlink:href="#radial-gradient-2"/><radialGradient id="radial-gradient-7" cx="2114.33" cy="83.21" r="1.89" xlink:href="#radial-gradient-2"/><radialGradient id="radial-gradient-8" cx="2108.67" cy="85.07" r="1.74" xlink:href="#radial-gradient-2"/><radialGradient id="radial-gradient-9" cx="2148.05" cy="71.05" r="6.27" xlink:href="#radial-gradient"/><radialGradient id="radial-gradient-10" cx="2146.94" cy="78.55" r="5.26" xlink:href="#radial-gradient-2"/><radialGradient id="radial-gradient-11" cx="2147.73" cy="71.05" r="6.4" xlink:href="#radial-gradient"/><radialGradient id="radial-gradient-12" cx="2146.98" cy="71.96" r="2.2" xlink:href="#radial-gradient-4"/><radialGradient id="radial-gradient-13" cx="2147.09" cy="78.62" r="5.21" xlink:href="#radial-gradient-2"/><radialGradient id="radial-gradient-14" cx="-1756.71" cy="78.44" r="1.61" gradientTransform="matrix(-1.02, 0, 0, 1.03, 372.69, 13.39)" xlink:href="#radial-gradient-2"/><radialGradient id="radial-gradient-15" cx="-2288.86" cy="-243.83" r="1.14" gradientTransform="matrix(-0.72, 0.3, -0.36, -0.97, 426.49, 537.72)" xlink:href="#radial-gradient-2"/><radialGradient id="radial-gradient-16" cx="2093.61" cy="-21.63" r="38.82" xlink:href="#radial-gradient"/><radialGradient id="radial-gradient-17" cx="2090.01" cy="-19.08" r="36.44" xlink:href="#radial-gradient"/><radialGradient id="radial-gradient-18" cx="2076.97" cy="-41.55" r="4.6" xlink:href="#radial-gradient-4"/><radialGradient id="radial-gradient-19" cx="2082.4" cy="-22.72" r="20.36" xlink:href="#radial-gradient-4"/><radialGradient id="radial-gradient-20" cx="2091.15" cy="95.55" r="31.94" xlink:href="#radial-gradient-2"/><radialGradient id="radial-gradient-21" cx="2159.98" cy="99.4" r="12.2" xlink:href="#radial-gradient-2"/><radialGradient id="radial-gradient-22" cx="2124.91" cy="57.45" r="48.65" xlink:href="#radial-gradient"/><radialGradient id="radial-gradient-23" cx="2139.18" cy="58.19" r="9.1" xlink:href="#radial-gradient"/><radialGradient id="radial-gradient-24" cx="2093.41" cy="49.3" r="36.38" xlink:href="#radial-gradient-4"/><radialGradient id="radial-gradient-25" cx="2158.56" cy="59.84" r="29.16" xlink:href="#radial-gradient-4"/><radialGradient id="radial-gradient-26" cx="2115.69" cy="38.28" r="76.45" xlink:href="#radial-gradient"/><radialGradient id="radial-gradient-27" cx="2128.24" cy="58.44" r="11.93" xlink:href="#radial-gradient-4"/><radialGradient id="radial-gradient-28" cx="2091.11" cy="95.54" r="32.06" xlink:href="#radial-gradient-2"/><radialGradient id="radial-gradient-29" cx="2108.74" cy="105.02" r="6.98" xlink:href="#radial-gradient-2"/><radialGradient id="radial-gradient-30" cx="2095.32" cy="109.14" r="5.25" xlink:href="#radial-gradient-2"/><radialGradient id="radial-gradient-31" cx="2083.58" cy="112.79" r="4.4" xlink:href="#radial-gradient-2"/><radialGradient id="radial-gradient-32" cx="2074.16" cy="110.24" r="3.71" xlink:href="#radial-gradient-2"/><radialGradient id="radial-gradient-33" cx="2159.96" cy="99.71" r="12.33" xlink:href="#radial-gradient-2"/><radialGradient id="radial-gradient-34" cx="2150.3" cy="99.32" r="3.81" xlink:href="#radial-gradient-2"/><radialGradient id="radial-gradient-35" cx="2160.76" cy="99.42" r="2.44" xlink:href="#radial-gradient-2"/><radialGradient id="radial-gradient-36" cx="2136.92" cy="6.08" r="46.82" xlink:href="#radial-gradient"/><radialGradient id="radial-gradient-37" cx="2126.65" cy="21.05" r="19.03" xlink:href="#radial-gradient-4"/><radialGradient id="radial-gradient-38" cx="2152.02" cy="4.77" r="16.24" xlink:href="#radial-gradient-4"/><radialGradient id="radial-gradient-39" cx="2132.06" cy="11.49" r="10.45" xlink:href="#radial-gradient"/><radialGradient id="radial-gradient-40" cx="2141.67" cy="15.96" r="19.44" xlink:href="#radial-gradient"/><radialGradient id="radial-gradient-41" cx="2136.61" cy="6.23" r="46.92" xlink:href="#radial-gradient"/><radialGradient id="radial-gradient-42" cx="2021.13" cy="-23.59" r="10.53" gradientTransform="translate(-38.44 16.98) scale(1.1 1.06)" xlink:href="#radial-gradient"/><radialGradient id="radial-gradient-43" cx="1827.13" cy="247.98" r="7.92" gradientTransform="matrix(1.21, -0.14, 0.1, 0.89, -57.53, 23.73)" xlink:href="#radial-gradient"/><radialGradient id="radial-gradient-44" cx="2110.75" cy="-30.16" r="11.97" xlink:href="#radial-gradient"/><radialGradient id="radial-gradient-45" cx="2113.21" cy="-56.61" r="8.74" gradientTransform="translate(-19.71 58) scale(1.02 1.31)" xlink:href="#radial-gradient"/><radialGradient id="radial-gradient-46" cx="2151.08" cy="24.07" r="6.87" gradientTransform="translate(-19.71 13.39) scale(1.02 1.03)" gradientUnits="userSpaceOnUse"><stop offset="0.03" stop-color="#ab711b"/><stop offset="1" stop-color="#6d4019"/></radialGradient><radialGradient id="radial-gradient-47" cx="-1567.18" cy="-986.62" r="6.19" gradientTransform="matrix(-0.93, -0.53, -0.46, 0.94, 244.88, 106.49)" xlink:href="#radial-gradient-46"/><radialGradient id="radial-gradient-48" cx="-1567.9" cy="-986.57" r="6.7" gradientTransform="matrix(-0.93, -0.53, -0.46, 0.94, 244.88, 106.49)" xlink:href="#radial-gradient-46"/><radialGradient id="radial-gradient-49" cx="1954.3" cy="663.04" r="3.01" gradientTransform="matrix(1, -0.37, 0.3, 1, 23.6, 77.64)" xlink:href="#radial-gradient-46"/><radialGradient id="radial-gradient-50" cx="1953.96" cy="662.97" r="3.29" gradientTransform="matrix(1, -0.37, 0.3, 1, 23.6, 77.64)" xlink:href="#radial-gradient-46"/><radialGradient id="radial-gradient-51" cx="-2071.03" cy="-345.13" r="6.66" gradientTransform="matrix(-1.01, -0.15, -0.16, 1.06, 11.99, 74.26)" gradientUnits="userSpaceOnUse"><stop offset="0" stop-color="#fff"/><stop offset="0.5" stop-color="#fefefd"/><stop offset="0.68" stop-color="#f9f8f6"/><stop offset="0.81" stop-color="#f0efeb"/><stop offset="0.91" stop-color="#e3e3da"/><stop offset="1" stop-color="#d3d2c4"/></radialGradient><clipPath id="clip-path" transform="translate(-2074.61 32.86)"><path class="cls-1" d="M2156.11,27.25c-4.93,6.88-14.84,1.49-13.24-4.77C2146.12,9.76,2155.82,19.16,2156.11,27.25Z"/></clipPath><radialGradient id="radial-gradient-52" cx="1809.56" cy="-648.23" r="5.79" gradientTransform="matrix(1.02, 0.26, -0.18, 0.87, 190.25, 122.91)" gradientUnits="userSpaceOnUse"><stop offset="0.03" stop-color="#8b5c23"/><stop offset="1" stop-color="#4e2a04"/></radialGradient><radialGradient id="radial-gradient-53" cx="1810.1" cy="-646.43" r="4.41" gradientTransform="matrix(1.02, 0.26, -0.18, 0.87, 190.25, 122.91)" gradientUnits="userSpaceOnUse"><stop offset="0.03" stop-color="#533010"/><stop offset="1" stop-color="#080000"/></radialGradient><clipPath id="clip-path-2" transform="translate(-2074.61 32.86)"><path class="cls-1" d="M2172.93,24.83c-1.77,9,4.28,9.72,10.5,7.72-3.91-2-6.68-6.16-4.46-10.43C2176,21,2173.33,21.66,2172.93,24.83Z"/></clipPath><radialGradient id="radial-gradient-54" cx="-2334.04" cy="147.79" r="5.04" gradientTransform="matrix(-1.01, 0.09, 0.09, 1.03, -199.91, 85.68)" xlink:href="#radial-gradient-51"/><clipPath id="clip-path-3" transform="translate(-2074.61 32.86)"><path class="cls-2" d="M2181.62,29.15c-2.33,4.8-10.12,5.12-10.72.07C2169.82,20,2179.57,21.94,2181.62,29.15Z"/></clipPath><radialGradient id="radial-gradient-55" cx="2069.31" cy="-636.56" r="4.25" gradientTransform="matrix(1.02, 0.24, -0.16, 0.88, -45.78, 99.26)" xlink:href="#radial-gradient-52"/><radialGradient id="radial-gradient-56" cx="2069.46" cy="-635.41" r="3.34" gradientTransform="matrix(1.02, 0.24, -0.16, 0.88, -45.78, 99.26)" xlink:href="#radial-gradient-53"/><radialGradient id="radial-gradient-57" cx="2140.51" cy="34.67" r="12.85" gradientTransform="translate(-19.71 13.39) scale(1.02 1.03)" gradientUnits="userSpaceOnUse"><stop offset="0.07" stop-color="#902621"/><stop offset="0.27" stop-color="#8c2621"/><stop offset="0.45" stop-color="#822420"/><stop offset="0.62" stop-color="#6f211f"/><stop offset="0.78" stop-color="#561e1e"/><stop offset="0.85" stop-color="#481c1d"/></radialGradient><radialGradient id="radial-gradient-58" cx="2129.84" cy="22.03" r="9.56" xlink:href="#radial-gradient-57"/><radialGradient id="radial-gradient-59" cx="2151.86" cy="23.27" r="9.46" xlink:href="#radial-gradient-46"/></defs><title>anim_95</title><g class="cls-3"><g id="Layer_1" data-name="Layer 1"><path class="cls-4" d="M2120.07,94.16a7.16,7.16,0,0,1,3.74-3.59C2121.68,91.26,2120.21,93.89,2120.07,94.16Z" transform="translate(-2074.61 32.86)"/><path class="cls-4" d="M2132.18,90.29c1.08,2.29,2.67,2.13,4,2.35A25,25,0,0,1,2132.18,90.29Z" transform="translate(-2074.61 32.86)"/><path class="cls-5" d="M2121,100.43c1.54-2.27,2.67-3.58,5-1.36,1.34-3.78,4.38-5,6.67-1.93A5.61,5.61,0,0,1,2137,93.7c-3.17-2.39-.87-7.73-3.16-10.77-2.45-3.25-8.87-5.69-12.27-7.87a191.58,191.58,0,0,1-4.06,24.16A5.56,5.56,0,0,1,2121,100.43Z" transform="translate(-2074.61 32.86)"/><path class="cls-4" d="M2121.52,100.42q1-2.45,3.86-1.12a1,1,0,0,0,1.17-.31q3.38-4.82,5.5-1.62a1,1,0,0,0,1.13-.23A5.35,5.35,0,0,1,2137.1,94c0.12,0,.72-0.27.49-0.49-3.22-3.23-.8-8.27-3.92-11.64s-7.87-4.81-11.59-7.05a1,1,0,0,0-1.09.36,215.79,215.79,0,0,1-4.06,24.16,0.21,0.21,0,0,0,.23.22l3.24,1.13c0.34,0.21,1.41-.28,1.13-0.45,0.34,0.21-2.73-1.58-2.37-1.13-1.41-1.76.05-4.92,0.44-6.84,0.9-4.51,1.67-9,2.21-13.6,0.36-3,.08-2.79,2.62-1.44,1.27,0.68,2.57,1.31,3.81,2,4.31,2.51,5.84,4.64,6.27,9.49,0.13,1.48,1.41,4.16,1,5.13,0.18-.41-2.34,1.39-2,1.26-3.16,1.3,1,.28-2.12.28s-4.53.43-6,3.77l1.17-.31c-2.75-2-4.2-1-6.11,1.59C2120.11,100.84,2121.31,100.71,2121.52,100.42Z" transform="translate(-2074.61 32.86)"/><path class="cls-6" d="M2137,93.7a5.61,5.61,0,0,0-4.41,3.44c-2.25-3.47-5.42-1.39-6.67,1.93-2.68-1-.71-1.73-4.25,0-2.53,1.22-.06-0.14-4.17.18-3,13.81,34.89,6.1,19.49-5.52C2135.49,93.85,2138.28,94.64,2137,93.7Z" transform="translate(-2074.61 32.86)"/><path class="cls-4" d="M2137,93.5a6.9,6.9,0,0,0-5,3.75l1.17-.31c-2.8-3.53-6.31-1.14-7.84,2.24l1.17-.31c-1.43-.62-1.62-1.06-3-0.89-1,.13-2,1-3,1.12-0.69.1-1.94-.16-2.65-0.13a1.17,1.17,0,0,0-.86.36c-1.65,8.93,11.37,8.06,16.66,6.43,2.71-.83,6.44-2.37,7.47-5.3,0.85-2.41-1.65-7.6-4.54-6.83-0.11,0-.6.17-0.55,0.36,0.2,0.74,1.54.41,1.93,0a0.11,0.11,0,0,0,0-.17l-0.33-.34c-0.22-.23-1.34.21-1.14,0.42,2.47,2.55,5.41,5.28,2.15,8.64-3,3.13-8.59,4-12.74,3.77-2.76-.17-7.93-1.37-7.85-5.08,0-1.86,1.11-1.18,2.39-1.46a7.72,7.72,0,0,0,1.31-.48c2.18-.89,1.67-0.88,3.66,0a1.15,1.15,0,0,0,1.17-.31c1-2.31,3.35-4.33,5.5-1.62a1.16,1.16,0,0,0,1.17-.31,5.37,5.37,0,0,1,3.86-3.14C2137.79,93.72,2137.69,93.33,2137,93.5Z" transform="translate(-2074.61 32.86)"/><path class="cls-4" d="M2132.25,96.82a11.56,11.56,0,0,0-.42,5.33C2132,103.19,2132.71,95.26,2132.25,96.82Z" transform="translate(-2074.61 32.86)"/><path class="cls-4" d="M2125.81,98.69a7.45,7.45,0,0,0,.05,4.6C2126.08,104.24,2126.33,97.58,2125.81,98.69Z" transform="translate(-2074.61 32.86)"/><path class="cls-4" d="M2132.27,105.15q0.54-1.59-.71-1.48Q2131,106.12,2132.27,105.15Z" transform="translate(-2074.61 32.86)"/><path class="cls-4" d="M2126.68,105.13q0.33-1.69-.82-1.05Q2125.53,105.77,2126.68,105.13Z" transform="translate(-2074.61 32.86)"/><g class="cls-7"><path class="cls-5" d="M2135.36,90.35c0.28-4.14.28-6.29,0.28-6.29l-14-9s-1,10-.84,14.86c0.09,3.29-2.48,5.91-3.22,9.3a5.54,5.54,0,0,1,3.43,1.21s1.05-2.79,2.74-2.71a2.54,2.54,0,0,1,2.25,1.36S2127.78,95,2130,95a2.6,2.6,0,0,1,2.6,2.14c1.26-2.41,2.87-3.29,4.41-3.44A3.4,3.4,0,0,1,2135.36,90.35Zm-2.43,3.72c-0.94.76-1.06-2-4.49-.38a5.59,5.59,0,0,0-2.62,2.76,3.77,3.77,0,0,0-3.75-1.24c-2.34.57-.93-2.38-0.28-5.43,1-4.84-.28-8.48,1.59-6.76s1.12,0.38.94,0,1.59,1,5.34,2.38,3.65,1.62,3.65,4S2133.87,93.31,2132.93,94.07Z" transform="translate(-2074.61 32.86)"/></g><path class="cls-8" d="M2121.78,92.93c-0.13.17,1-7.62,1.44-7.62,1.6,0,8.06.93,8.29,3.64,0.48,5.51-8.25,2-9.73,4h0Z" transform="translate(-2074.61 32.86)"/><g class="cls-9"><path class="cls-10" d="M2140.14,98.5c-0.32-3-1.86-3.86-3.11-4.8-1.54.15-3.14,1-4.41,3.44A2.6,2.6,0,0,0,2130,95c-2.25,0-4.07,4.07-4.07,4.07a2.54,2.54,0,0,0-2.25-1.36c-1.69-.07-2.74,2.71-2.74,2.71a5.54,5.54,0,0,0-3.43-1.21,8.47,8.47,0,0,0,.69,5.57c1,2.14,3,.71,3,0.71s3.61,1.29,5.15-.29c0,0,3.65.86,5.48-.29,0,0,.28,1.43,3.23,1.14S2140.7,103.79,2140.14,98.5Zm-18.43,4.25c0-2.22.26-4.17,1.92-4s1.19,1.74,1.3,3.8S2121.71,106.33,2121.71,102.75Zm9.38-1.85c-0.21,1.79-3.73,4.27-4.2.21-0.25-2.15,1.4-4.49,3-4.75S2131.3,99.11,2131.09,100.9Zm7.57,0.11c-0.78,3.59-6.53,6.22-5.81-2,0.17-1.87,2.13-3.9,3.37-4S2139.44,97.42,2138.66,101Z" transform="translate(-2074.61 32.86)"/></g><path class="cls-11" d="M2133.48,100.32c-0.57-7.93,5.34-1.76,4.34-1.32-0.74.33-3.88,7.72-4.34,1.32h0Z" transform="translate(-2074.61 32.86)"/><path class="cls-12" d="M2127.72,99.48c0.28-1.82,2.49-3.75,2.8-1S2127,103.8,2127.72,99.48Z" transform="translate(-2074.61 32.86)"/><path class="cls-13" d="M2122,102q-0.37-2.25,1.61-2.74C2127,99.45,2122,106.4,2122,102Z" transform="translate(-2074.61 32.86)"/><path class="cls-4" d="M2167.53,90.38q-1.21-2.65-3-1.84C2163.95,89.07,2167.83,90.84,2167.53,90.38Z" transform="translate(-2074.61 32.86)"/><path class="cls-4" d="M2159.4,89q-2.07.55-1.58,1.84Q2161.67,88.49,2159.4,89Z" transform="translate(-2074.61 32.86)"/><path class="cls-14" d="M2166.89,94.16c-2.94-1-4-2-6.9-1.24-4.44-6.8-1.35-8.24,5.16-13.36a118.72,118.72,0,0,0,3.65,13.7A3.25,3.25,0,0,0,2166.89,94.16Z" transform="translate(-2074.61 32.86)"/><path class="cls-4" d="M2167.38,93.89c-2.7-1-4.6-1.86-7.46-1.22l0.67,0.09c-1.29-2.06-2.8-4.56-1.64-7s4.51-4.42,6.67-6.12l-1.08.1a133.5,133.5,0,0,0,3.65,13.7l0.54-.41a5.36,5.36,0,0,0-2.32,1.08c-0.52.4,0.69,0.32,1,.12l1.5-.7c0.13,0,.61-0.2.54-0.41a133.5,133.5,0,0,1-3.65-13.7c-0.07-.35-0.93,0-1.08.1-2.21,1.73-5.21,3.48-6.68,6s-0.06,5.3,1.39,7.6a0.64,0.64,0,0,0,.67.09c2.25-.5,4.31.53,6.34,1.26C2166.72,94.54,2167.82,94.05,2167.38,93.89Z" transform="translate(-2074.61 32.86)"/><path class="cls-15" d="M2157.27,91.18l2.73,1.74c2.86-.76,5.34.43,8.81,0.35,2.47,7.77-19.66,5.37-11.54-2.09C2158.16,91.18,2156.6,91.8,2157.27,91.18Z" transform="translate(-2074.61 32.86)"/><path class="cls-4" d="M2156.69,91.39a14.58,14.58,0,0,0,2.8,1.76c0.87,0.27,1.94-.26,2.89-0.22,1.2,0.05,2.39.32,3.59,0.45,1,0.11,2.15-.16,2.41.91,0.64,2.63-3.14,3.46-4.91,3.52-4,.12-10.21-2.33-5.66-6.68l-1,.28,1.1-.34a1.61,1.61,0,0,0-1.19.22l-0.17.21a0.07,0.07,0,0,0,0,.1,1.35,1.35,0,0,0,1.61-.54A0.12,0.12,0,0,0,2158,91c-1.78-.29-3.44,2.26-3.13,3.89,0.41,2.1,3.25,2.91,5,3.21,3.17,0.55,10.91.05,9.48-5a0.24,0.24,0,0,0-.21-0.08c-2.15,0-4.24-.52-6.38-0.59-0.62,0-1.33.16-1.94,0.11a7.61,7.61,0,0,1-3.05-1.57A1.25,1.25,0,0,0,2156.69,91.39Z" transform="translate(-2074.61 32.86)"/><path class="cls-4" d="M2159.71,92.79q-0.92,3.53,1.13,2.9Q2161.77,91.92,2159.71,92.79Z" transform="translate(-2074.61 32.86)"/><path class="cls-4" d="M2163.57,93.59l0.18,2.5A4.36,4.36,0,0,0,2163.57,93.59Z" transform="translate(-2074.61 32.86)"/><path class="cls-4" d="M2161.09,97.62c1.34-2.46-.55,1,0,0h0Z" transform="translate(-2074.61 32.86)"/><path class="cls-4" d="M2164.34,97.2c0.31-2.06-.11.8,0,0h0Z" transform="translate(-2074.61 32.86)"/><g class="cls-7"><path class="cls-16" d="M2166.45,88.09c-0.18-2.81-1.29-8.53-1.29-8.53l-7.61,6s0.12,1.24.5,3.61a2,2,0,0,1-.78,2,3.23,3.23,0,0,1,2.73,1.74,1.51,1.51,0,0,1,1.38-1.38c1.3-.13,2.57,2.12,2.57,2.12a1.48,1.48,0,0,1,1.22-.91c1-.13,1.72,1.41,1.72,1.41a3.24,3.24,0,0,1,1.91-.89C2168.2,91.36,2166.57,90,2166.45,88.09Zm-2.43,3c-0.94-.57-2.43-1.53-3.37-1s-1.78.11-1.78-1.52c0-1,1.87-1.24,3.28-2.29a17.12,17.12,0,0,1,2.9-1.72s0.47,3.24.66,5.05S2165,91.69,2164,91.12Z" transform="translate(-2074.61 32.86)"/></g><path class="cls-17" d="M2160.27,88.07c0.69-.58,3.13-2.1,4-2.1a9.88,9.88,0,0,1,.56,3.62C2164.89,89.94,2157.59,88.65,2160.27,88.07Z" transform="translate(-2074.61 32.86)"/><g class="cls-9"><path class="cls-18" d="M2168.81,93.27a3.24,3.24,0,0,0-1.91.89s-0.76-1.55-1.72-1.41a1.48,1.48,0,0,0-1.22.91s-1.27-2.25-2.57-2.12a1.51,1.51,0,0,0-1.38,1.38,3.23,3.23,0,0,0-2.73-1.74,3.51,3.51,0,0,0-1.53,2.94c0,3.08,1.61,4.09,3.33,4.08s1.8-.84,1.8-0.84c1.12,0.56,3.18-.14,3.18-0.14,1,0.82,3-.12,3-0.12a1.11,1.11,0,0,0,1.69-.58A4.92,4.92,0,0,0,2168.81,93.27Zm-9,2.73c-0.16,2.21-2.8,1.95-3.37-1.16-0.29-1.57.31-3.11,1.25-3S2159.92,93.78,2159.77,96Zm1.56-1.22c0-1.42-.88-2.48-0.05-2.53s2.33,1.11,2.28,3.27S2161.27,97.21,2161.32,94.78Z" transform="translate(-2074.61 32.86)"/></g><path class="cls-19" d="M2159.3,95a2,2,0,0,0-1.54-2.44c-2.91.09,1.23,6.73,1.54,2.44C2159.39,93.71,2159.24,95.82,2159.3,95Z" transform="translate(-2074.61 32.86)"/><path class="cls-20" d="M2162.66,93.64l-0.17,1.94c-1.53.55-1-4.65,0.17-1.94h0Z" transform="translate(-2074.61 32.86)"/><path class="cls-21" d="M2115.42,31.76c0.06-15.65-27-9.93-24-29.08,1.36-8.62,10.3-15.12,6.91-24.39-2.05-5.62-10.39-12-16.73-10.6-2.25.5-8.62,3.94-5.68,7.35,3.11,3.61,8.42-2.74,12.64-.66,8.55,4.22,3.8,14,.72,19.8-4.6,8.67-6.49,15.56.42,24,6,7.27,17.74,7.17,20.26,17.06C2111.64,34.14,2114.09,33.18,2115.42,31.76Z" transform="translate(-2074.61 32.86)"/><path class="cls-4" d="M2116,31.6c-0.35-11.13-13.4-11.56-20.16-17.38-13.13-11.33,9.68-25.44,2.05-38.21-2.87-4.81-9.14-9.34-15-8.82-2.92.26-9,2.91-8.25,6.63a3.53,3.53,0,0,0,3.5,2.7c4.07,0.22,6.7-3.65,11-1.16,8.27,4.82.74,16-1.94,21.85-3.83,8.33-3.33,16.91,4,23.21,6.17,5.29,15.5,6.22,18.17,14.94,0.11,0.35.79,0.13,1,0a33.32,33.32,0,0,0,5.54-3.51c0.52-.46-0.68-0.45-1-0.19-1.14,1-3.45,3-4.7,2.18-0.57-.37-1.13-2.39-1.64-3.08a18.34,18.34,0,0,0-6-4.84c-6.84-3.88-13.83-6.69-16.27-15.06-2.33-8,3.08-14.73,5.94-21.72,1.91-4.66,3-10.44-1.47-14a6.6,6.6,0,0,0-4.17-1.57c-3.09,0-9.86,4.61-10.23-.49-0.3-4.09,5.29-5.4,8.54-5.15,2.48,0.19,5.31,2,7.21,3.44,3.09,2.41,5.71,5.75,6.23,9.73,1.42,10.84-14.52,21.92-4.8,32.47,6.41,7,20.83,6.61,21.19,18.3C2114.82,32.29,2116,32.06,2116,31.6Z" transform="translate(-2074.61 32.86)"/><g class="cls-7"><g class="cls-9"><path class="cls-22" d="M2097.06,21.09c-17-11.25-3.48-21.55-1.77-36.09,0.62-5.29-.55-12-6.77-13.41-2.59-.6-11.18,4.86-13,1.39-0.77,3.91,14.45-1.27,17.43,6.58,2.83,7.46-4.44,13.54-6.67,19.85-2.65,7.49-.88,14.15,4.64,20,6.08,6.4,16.65,6.34,19.07,15.83,4.36-7-8.64-11.26-12.92-14.1h0Z" transform="translate(-2074.61 32.86)"/></g></g><path class="cls-23" d="M2082.08-31.6c0.53,0-8,2.72-4.78,4.48,3.78,2,13.88-7.62,17.09,1.68-1.47-4.27-8.59-6.34-12.31-6.15h0Z" transform="translate(-2074.61 32.86)"/><path class="cls-24" d="M2096.88-20.93c0.91,5.9-2.07,10.52-4.32,15.69C2091-1.6,2088.78,1.94,2089,6.09c0.06,1.35,2.64,7.17,2.61,7.23,0.61-1.56-1.36-5.18-1.35-6.68,0-3.1,1.07-5.54,2.2-8.37,2.39-6,9-14.32,4.31-20.85A9.31,9.31,0,0,0,2096.88-20.93Z" transform="translate(-2074.61 32.86)"/><path class="cls-25" d="M2121.88,110.5c-3.08,1.33-6.21,3.9-7,7.36-2.85-7-10.48.28-11.38,4.93-1.59-3.47-6-2.92-8.64-.57-3.76-7.1-10.53,1.11-11.59,5.89-1.71,7.71,2.35,7.7,7.28,9.36,4.46,1.5,23,3.83,26.14-1.48,5.83,3.81,14.7-.3,16.12-6.75,1.11-5-3.6-21.91-11-18.74h0Z" transform="translate(-2074.61 32.86)"/><path class="cls-4" d="M2121.62,110.21c-3.48,1.67-6.15,3.95-7.31,7.72l1.22-.23c-3.66-7.16-11.19,0-12.59,5.16l1.17-.31a4.84,4.84,0,0,0-4.8-2.58c-1.8.09-3,1.38-4.58,0.85s-1.76-1.89-3.82-1.72a6.88,6.88,0,0,0-3.73,1.85c-3.14,2.65-6.6,9-4.3,13.11,1.67,3,6.86,3.8,9.92,4.43a56,56,0,0,0,15.25,1.1,19.84,19.84,0,0,0,6-1.16c1-.41,2.34-1.62,3.06-1.7,1.28-.15,3.58,1.18,5.21,1.1a12.92,12.92,0,0,0,6.59-2.31,10.38,10.38,0,0,0,4.59-10.08c-0.45-4.7-2.22-11.32-6.18-14.36a5.52,5.52,0,0,0-4.23-1.27c-0.5.06-2.23,0.4-2.48,0.84-1.26,2.22,3-1.28,1-.43-0.77.33-.08,0.84,0.5,0.59l0.17-.07c0.77-.33.08-0.84-0.5-0.59l-1.55.67c-0.77.33-.08,0.84,0.5,0.59,7-3,10,6.32,11.09,11.54a15.77,15.77,0,0,1,.4,6.37c-1.41,6.51-9.47,9.47-15,6.37a0.88,0.88,0,0,0-1,.28c-4,5.53-18.11,3-23.74,1.56-3-.74-7.45-1.45-8.66-4.62-0.86-2.26.2-5.61,1.28-7.66a10.36,10.36,0,0,1,1.93-2.81c1.66-1.46,6.11-2,7.4.06a0.8,0.8,0,0,0,.95,0c2-1.49,6.25-1.72,7.69.6,0.24,0.38,1.07,0,1.17-.31,0.8-2.94,6.58-11.69,10.16-4.7,0.23,0.45,1.09.19,1.22-.23,1.05-3.44,3.43-5.48,6.59-7C2122.88,110.44,2122.2,109.93,2121.62,110.21Z" transform="translate(-2074.61 32.86)"/><path class="cls-4" d="M2094.66,121.82a16.66,16.66,0,0,0-4.08,15.39C2089.61,133.5,2092.21,124.46,2094.66,121.82Z" transform="translate(-2074.61 32.86)"/><path class="cls-4" d="M2103.22,121.92a19.7,19.7,0,0,0,.66,7.38C2104.29,130.51,2103.3,120.51,2103.22,121.92Z" transform="translate(-2074.61 32.86)"/><path class="cls-4" d="M2106.17,137.81l-1-4.28A19.17,19.17,0,0,0,2106.17,137.81Z" transform="translate(-2074.61 32.86)"/><path class="cls-4" d="M2114.92,117.16a23,23,0,0,0-.28,9.48C2114.79,127.46,2115.24,115.91,2114.92,117.16Z" transform="translate(-2074.61 32.86)"/><path class="cls-4" d="M2115.21,130c0.18,3.18.77,4.85,2.18,6.48C2116.92,135.92,2115.2,129.89,2115.21,130Z" transform="translate(-2074.61 32.86)"/><path class="cls-26" d="M2189.58,112.36a3.36,3.36,0,0,0-3.84,2.29c-1.84-2.33-4.31-2.38-5.71.09-1.65-3.8-6.19-4.13-8.24-.57-3-4.05-12.49-5.31-13,1.18-0.7,9.08,9.66,5.58,13.55,5.4,4.59-.21,8.1-0.11,12.54-1.34,1.42-.39,4.44,1.21,5.81-0.19,2-2,2.37-6-1.12-6.86C2186.39,111.88,2193.32,113.31,2189.58,112.36Z" transform="translate(-2074.61 32.86)"/><path class="cls-4" d="M2189.62,111.89a4.48,4.48,0,0,0-4.47,2.68l1.14-.19c-1.05-1.06-2.08-2-3.69-1.92-0.46,0-1.35.63-1.74,0.66-1.69.09,0.61,0.38-1.75-.65-1.37-.6-2.06-1.35-3.71-1.2-1.26.11-2.9,2-3.62,2s-3.16-2.12-4.25-2.44a9.81,9.81,0,0,0-5.11-.25c-3.12.79-4.66,3.51-4.2,6.69,0.48,3.33,2.89,4.57,6,4.76a39.35,39.35,0,0,0,6.79-.67c3-.34,6.08-0.2,9.1-0.56s5.87-.26,8.72-0.51a3.57,3.57,0,0,0,3.09-1.81c1.84-2.8.54-6.5-3-6.67-0.48,0-1.24.54-.55,0.89a7,7,0,0,0,2.1.47,0.72,0.72,0,0,0,.82-0.5v0a0.38,0.38,0,0,0-.27-0.39q-0.55-.18-1.11-0.31c-0.56-.15-1.43.66-0.69,0.86s1.82-.58,1-0.67a3.73,3.73,0,0,1-1.16-.29l-0.55.89c6,0.28,2.82,4.54,1.13,5.56-2.12,1.28-1.67.65-3.72,0.61a23.7,23.7,0,0,0-4.24.71c-4,.66-8.08.47-12.1,1-3.15.43-8.34,1.52-9.86-2.28-3-7.63,7.62-8.38,11.5-3.91a0.73,0.73,0,0,0,1.07-.08q5.55-3.38,7.17.65a0.72,0.72,0,0,0,1.07-.08l4.65,0a0.73,0.73,0,0,0,1.14-.19l3.21-1.9C2190.24,112.82,2190.44,111.88,2189.62,111.89Z" transform="translate(-2074.61 32.86)"/><path class="cls-4" d="M2171,113.82a11,11,0,0,1,1,7C2172.37,118.2,2172.39,116,2171,113.82Z" transform="translate(-2074.61 32.86)"/><path class="cls-4" d="M2179.53,114.35a10.14,10.14,0,0,1-.36,6.56A9.5,9.5,0,0,0,2179.53,114.35Z" transform="translate(-2074.61 32.86)"/><path class="cls-4" d="M2185.43,114.73a5.18,5.18,0,0,1-.82,4.69C2186.06,117.36,2186,116.4,2185.43,114.73Z" transform="translate(-2074.61 32.86)"/><path class="cls-27" d="M2165,110.74c2.74,0.15,4.88,1,6.27,3.34,2.45-3.44,6.8-3.13,8.71.66,1.61-2.33,3.84-2.51,5.71-.09,1.91-.94.1-2.85,3.84-2.29-5.16-4.28-.77-11.94-0.61-18.08,0.27-10-2.65-18-7-26.79-4.49-9-1.86-15.2-10.8-19.19l-57-25.5c-1.7,7.41-6.45,13.61-8.45,21-1.8,6.65-1.82,12.32-3.91,18.79-3,9.36-1.67,19-4.73,28.46-1.86,5.74-4,11.26-5,17.22-0.47,2.61.06,9.2-1.87,10.77,3.56,0.36,3,1.42,4.82,3.2,2.6-2.65,7.09-2.71,8.64.57,0.9-4.77,8.43-11.69,11.38-4.93,0.92-4.32,5.92-8.46,10.47-7.65-5.78-3-5.45-12.19-6.46-18.06-1.24-7.2,2.76-11.45,2.28-18.29,0.11,2,.64,6,2.44,7.24l-0.37-2.86c1.34,3,17.57,9.54,16.14,12.41a6.67,6.67,0,0,0,.52-3.26c0.54,0.84,5.16,3.55,4.75,4.83a9.94,9.94,0,0,0-.25-2.54c4.78,1.92,21.43-1.29,21-8.57,5.95,12.77-6.06,20.67-6.72,32.63a8,8,0,0,1,6.35-3h0Z" transform="translate(-2074.61 32.86)"/><path class="cls-28" d="M2151.28,79.3c2-1.12,6.79-7.47,4.74-9.67,0.26,0.28,1.1,4.91.67,5.07,0.19-.07,1.61-3.08,1.7-2.8,0.18,0.5.65,3.83,0.3,4.46q0.05-1.67,1.32-1.49c1.72,2.37-3.55,9.62-6.2,7.37,0.28,0.24,2.77-3.72,2-3.35C2154.51,79.48,2147.7,81.13,2151.28,79.3Z" transform="translate(-2074.61 32.86)"/><path class="cls-29" d="M2098.75,100.74c0.46-1.22,6.55-13.31,6-14.13-2.17-3.5-2.1,1.9-2-3.35,0-1.43.89-10.36,1.58-11.31a2.79,2.79,0,0,1,1.79,1c0.72,0.24,0-4.53,0-4.57a1.38,1.38,0,0,1,1.69,1c-1.52-1.56,8.15-23.63,9-22.8,0.07,0.07,5.63,7.91,5,3.49,0.93,6.09.91,2.81-2.73,9.31-0.37.67-4.12,12.1-2.3,12.1a2.05,2.05,0,0,0-1.47-1.41c-9,8,5.4,24.29.68,31.33-1.92,2.87-20.6,8.39-17.23-.62h0Z" transform="translate(-2074.61 32.86)"/><path class="cls-30" d="M2166.26,63.48c-2.44-1.49,2,7.75,2.45,8.84a52.06,52.06,0,0,1,4.16,13.12c0.56,3.93,1,8.9-1.14,12.49-0.27.44-4.73,6.1-5.13,3.81,0.33,1.94,4.16,4.56,1.34,6.2,4-2.36,12.29,2.15,15.15-1.12,2-2.32-.41-5.05.2-7.62,0.51-2.14,2.21.53,2.54-1.15a35.67,35.67,0,0,0-2.52-21.82c-1.2-2.47-6.6-13.71-8.31-15-1.21-.92-5.78,4.08-8.74,2.27h0Z" transform="translate(-2074.61 32.86)"/><path class="cls-4" d="M2164.54,111c2.77,0.29,4.51,1,6.17,3.27a1.2,1.2,0,0,0,1.2-.28c3.27-3.75,5.86-1.65,7.5.94a1.22,1.22,0,0,0,1.15-.22q2.95-2.46,4.59.16a1.35,1.35,0,0,0,1.12-.26c1.11-.81,1.11-2.14,2.9-2,0.13,0,1.18-.23,1-0.43-4.15-4.15-1.9-9.59-1-14.63A38.23,38.23,0,0,0,2188,81c-1.43-5.3-4-10-6.1-15-1.6-3.73-2-7.84-3.62-11.53-1.5-3.44-4.13-5.22-7.48-6.76-6.2-2.86-12.47-5.58-18.71-8.37L2114.68,22.6a1.29,1.29,0,0,0-1.17.31c-2.23,8.55-7.48,15.81-9.28,24.53-0.81,3.91-1.2,7.9-2.13,11.79-1,4.15-2.26,8.1-2.79,12.35-0.67,5.33-.75,10.75-1.94,16-0.93,4.12-2.52,8.06-3.77,12.08a49.68,49.68,0,0,0-2.42,10.5c-0.24,2.85.3,6.64-1.68,9-0.06.06,0.06,0.11,0.1,0.11,2.36,0.38,3.29,1.55,4.74,3.18a1.35,1.35,0,0,0,1.12-.26q5.2-3.4,7.48.79a1.19,1.19,0,0,0,1.2-.28c1.11-4.18,7-10.48,10.17-4.65a1.2,1.2,0,0,0,1.2-.28c1.23-4,4.12-7.69,9.48-7.31,0.13,0,1.18-.3,1-0.43-5.48-3.41-5.47-10.68-6.19-16.39-0.89-7.06,2.21-13,2-19.92l-1.21.32c0.2,2.61.53,5.37,2.47,7.28a1.21,1.21,0,0,0,1.18-.36l-0.37-2.86-1.21.32c2.06,3.43,17.24,8.23,16.15,12.36a1.13,1.13,0,0,0,1.19-.23,6.9,6.9,0,0,0,.53-3.31l-1.18.36c1.3,1.39,4.56,2.73,4.71,4.79a1.18,1.18,0,0,0,1.21-.32,9.94,9.94,0,0,0-.25-2.54l-1.18.36c6,2,22-.66,22.15-8.94l-1.21.32c5.11,12.16-5.66,21-6.72,32.63,0,0.22,1.06-.12,1.15-0.22,2-2.05,4.94-1.22,7-2.63,1.15-.78,1.26-0.36.36-0.49-0.64-.09-3,0.35-2,0.4,0.24,0,1.37-.43.79-0.46l-0.62,0c-0.24,0-1.37.43-.79,0.46l2.46,0.13c0.24,0,1.37-.43.79-0.46-3.72-.2-6.46.46-9.13,3.19l1.15-.22c1.06-11.74,11.86-20.4,6.72-32.63a1.12,1.12,0,0,0-1.21.32c-0.16,7.59-14.06,10.13-19.79,8.21-0.18-.06-1.23.05-1.18,0.36a9.94,9.94,0,0,1,.25,2.54l1.21-.32c-0.16-2.16-3.45-3.44-4.78-4.87a1.19,1.19,0,0,0-1.18.36c-0.15,4.27,1.57,2.46-.16,1a35.67,35.67,0,0,0-4.88-3.44c-3.11-1.89-8.46-3.77-10.41-7a1.12,1.12,0,0,0-1.21.32l0.37,2.86,1.18-.36c-1.91-1.87-2.21-4.67-2.4-7.2a1.18,1.18,0,0,0-1.21.32c0.13,5.73-2.85,10.95-2.48,16.67,0.3,4.66.75,10.23,2.49,14.58,0.56,1.41,2.93,3.35,3.24,4.53,0.11,0.43,2.42-.7-0.95.24-0.58.16-.94,0.21-1.66,0.47a11.27,11.27,0,0,0-6.93,7.45l1.2-.28c-3.73-6.85-11.27.27-12.58,5.2l1.2-.28a5,5,0,0,0-4.81-2.56c-1.18.05-1.56,0.53-2.67,0.67-3,.36.55,1.05-2.42-0.21,0.1,0-2.47-1.89-2.19-1.48-0.93-1.34-.5-0.55-0.27-2.4,0.59-4.65.73-9.19,2-13.76,1.42-5.22,3.59-10.24,4.79-15.51s1.27-10.75,2-16.11,2.5-10.38,3.47-15.67c1.13-6.17,1.95-12.21,4.51-18,0.87-2,1.87-3.89,2.79-5.85,0.52-1.1,2.15-6.92,3-7.48,1.73-1.13,4.63,1.15,6.37,1.93l9.8,4.38,33.86,15.14c4.14,1.85,9.32,3.3,11.88,7.36,1.79,2.83,2.16,6.35,3.13,9.5,3,9.79,8.48,17.82,9,28.41,0.26,5.45-2.07,10.53-1.86,15.89,0.07,1.7,1.51,3.35,1.57,4.73,0.1,2,1.17-1.32-.57.64,0,0-1.11.66-1,.6-0.24.09-.22,0.91-0.42,1-0.41.09-1.68-1-2.2-1.05-1.88-.29-3.2.73-4.41,2.06l1.15-.22c-2.61-4.12-6.93-3.81-9.91-.39l1.2-.28c-1.67-2.29-3.6-3.11-6.38-3.4C2165.27,110.49,2164.26,110.94,2164.54,111Z" transform="translate(-2074.61 32.86)"/><path class="cls-4" d="M2091.32,118.36c2.55-3.12,7.74-6.79,11.48-7.21C2097.51,111.75,2093.62,115.53,2091.32,118.36Z" transform="translate(-2074.61 32.86)"/><path class="cls-4" d="M2123.88,109.29a19.73,19.73,0,0,0-13-.72C2113.58,107.79,2121.51,108.25,2123.88,109.29Z" transform="translate(-2074.61 32.86)"/><path class="cls-4" d="M2164.56,98.7c-0.92,3.9.27,6.18,1.72,8.44C2165.43,105.81,2164.41,99.34,2164.56,98.7Z" transform="translate(-2074.61 32.86)"/><path class="cls-4" d="M2186.88,108.7a10.49,10.49,0,0,0-.65-6.28C2185.62,101.47,2186.77,109.89,2186.88,108.7Z" transform="translate(-2074.61 32.86)"/><path class="cls-4" d="M2094.94,97.85c1.07-3.28,2.64-7.34,5.51-9.52C2097,90.94,2095.87,95,2094.94,97.85Z" transform="translate(-2074.61 32.86)"/><path class="cls-4" d="M2110.63,53.58c-1.51,3-2.88,7.49-1.3,10.58-0.26-.51-0.54-2.86-1-3.19s-3.37,5.71-.94,6.51c-0.32-.44-1.41-3.61-1.87-3.39-1.57.75-.54,5.3-0.14,6.33,0.1,0.25.31-5.23,0.36-5.52-0.05-.07,1.37,3.22,1.21,3,0,0.06.88-5.63,1-5.94a8.71,8.71,0,0,0,.84,2.37C2108.49,63.89,2110.43,54,2110.63,53.58Z" transform="translate(-2074.61 32.86)"/><path class="cls-4" d="M2128,56.47a16.34,16.34,0,0,0-8.08,13c0,0.21,2.36-3.86,2.53-3.85-1-.08-1.53,10.36-1.55,10.14-0.22-2.12,1.33-7.95,2.43-10.57-0.38.91-2.68,2.2-3.24,3.68C2121.9,64,2124.22,58.65,2128,56.47Z" transform="translate(-2074.61 32.86)"/><path class="cls-4" d="M2132.16,59.69A9.25,9.25,0,0,0,2129.3,67c0,0.62,1.73-2.8,1.85-3.12-2,5.11.85,9.69,3.78,12.49a12.59,12.59,0,0,1-3.06-12.76c-0.08.28-1.86,1.93-2.16,3C2130.31,64.53,2131.4,60.43,2132.16,59.69Z" transform="translate(-2074.61 32.86)"/><path class="cls-4" d="M2124.8,72c-0.43,2.08,3.9,7,6,5.45C2129.17,78.63,2124.69,72.5,2124.8,72Z" transform="translate(-2074.61 32.86)"/><path class="cls-4" d="M2155.7,71.94c0,1-1.66,7.75-2.87,8.19a8.18,8.18,0,0,0,5-5.52c-1.31.1-1.22,7.07-2.64,7.38a6.7,6.7,0,0,0,4.31-5c-0.06.21-3.95,5.07-4.11,4.91a10.28,10.28,0,0,0,2.44-7.26c0,0.45-4.79,5.58-4.88,5.45C2155.83,77.45,2155.8,74.24,2155.7,71.94Z" transform="translate(-2074.61 32.86)"/><path class="cls-4" d="M2160.2,64.08c0.41,6.69,5.49,13.16,6.09,18.33C2165.58,76.13,2160.57,69.78,2160.2,64.08Z" transform="translate(-2074.61 32.86)"/><path class="cls-4" d="M2176.63,66.14a12.54,12.54,0,0,1,1.26,7.15q2.29-.26,1.87-3.59c-0.59.16,0.39,5.06,0.24,6,0.3-1.81,1.45-3.42-.24-6q-2.25.34-1.87,3.57C2181,72.57,2176.64,66.15,2176.63,66.14Z" transform="translate(-2074.61 32.86)"/><path class="cls-4" d="M2179,88.72a8.47,8.47,0,0,1-3,8.38c2.27-1.63,4.89-1.25,5.7-5.35-0.78.14-1.33,5.05-1.71,5.87,1.23-2.62,4.66-1.82,4.95-6.59-1.53.29,0.44,4.85,0.78,4.7,1.83-.82,1.87-6.29,1.75-7.61a44.3,44.3,0,0,1-1.78,7A7.4,7.4,0,0,0,2185,91c0.33,0.83-4.33,6.18-4.85,6.55,1.49,0.41,1.68-5.34,1.62-5.83,0.19,1.48-3.7,4.92-5.52,5.33C2180.51,96.06,2179.33,90.2,2179,88.72Z" transform="translate(-2074.61 32.86)"/><path class="cls-4" d="M2166.8,85.57c0.58,3.86,2.08,8,1.13,12C2168.94,93.31,2167.32,89,2166.8,85.57Z" transform="translate(-2074.61 32.86)"/><path class="cls-4" d="M2104.32,56.78c4-7.12,13.48-13.49,15.33-21.48C2118.08,41.9,2107.34,51.42,2104.32,56.78Z" transform="translate(-2074.61 32.86)"/><path class="cls-4" d="M2118.11,86.55a30.58,30.58,0,0,1-.84-10.39A44.07,44.07,0,0,0,2118.11,86.55Z" transform="translate(-2074.61 32.86)"/><path class="cls-4" d="M2099.85,81.74a58.17,58.17,0,0,0,2.25-10C2102.24,70.61,2099.28,83.51,2099.85,81.74Z" transform="translate(-2074.61 32.86)"/><g class="cls-7"><path class="cls-31" d="M2186.58,108.74a47.48,47.48,0,0,0,2.25-11.24c0.37-5.91.37-15.24-3.18-22.48s-8.24-16.58-8.24-16.58l0.19-7.24L2114.11,22.8a33.33,33.33,0,0,1-3.93,9.72c-2.81,4.38-7.3,17.72-5.81,23.82,0,0-5.51,8.7-4.49,23.25,0.19,2.67-2.43,10.48-5.24,18.29s-4.12,18.48-3.56,20.39c0,0-.38.27-1,0.75,4.12,0.41,4.82,3.2,4.82,3.2s1.12-1.93,5.05-1.93,3.58,2.5,3.58,2.5,1-6.22,5.83-7.43,5.55,2.5,5.55,2.5c0.7-3.29,3.3-5.79,7-7.36a6.14,6.14,0,0,1,3.52-.29,3,3,0,0,0-1-.33,6,6,0,0,1-3.19-4.38c-0.37-3-3-17.53-3.56-19.82,0,0,3.75-9.15,3.56-11.81,0,0,.75,6.1,2.44,7.24l-0.37-2.86s0.93,3.62,6.18,5.34,9.36,4.38,9.55,6.67,1.31-2.29.93-2.86,2.44,1.14,3.94,4,0.56-1.72.56-1.72a7.2,7.2,0,0,0,6.18.38s4.87,0.57,6.74-1.53,8.24-4.38,8.05-7.43c0,0,3,5.72,1.31,10.86a45.44,45.44,0,0,0-1.87,6.67,17,17,0,0,0-4.87,8,41.78,41.78,0,0,0-1.29,7.1,8,8,0,0,1,6.35-3c5.34,0.29,6.27,3.34,6.27,3.34a5.12,5.12,0,0,1,4.49-2.57c3.09,0.1,4.21,3.24,4.21,3.24s0-2,3.18-2c1.5,0,2.53,1.91,2.53,1.91a3.22,3.22,0,0,1,3.84-2.29S2188.45,109.12,2186.58,108.74ZM2112.19,31.9a6.44,6.44,0,0,0,2.39,3.72c2.11,1.71,2,1.86-.14,4.43s-5.2,2.71-8.15,8.15C2104.17,52.09,2108,38.19,2112.19,31.9Zm8.15,30.73c-2.95,5.29-.56,8.15-0.56,10s-1.4,5.57-1.4,3.43-1.83-6.72-3.09.86,2.81,23.3,3.37,26.87-4.07,2.29-12.36,3.43-12.5,7-12.08,3.29c0.8-7.1,4.54-17.76,6.74-21,2.81-4.14-2.57-.79-1-3.29s3.51-9.29,2.95-15c-1-10.1,3.93-15,7.3-20.72s8.43-8.72,8.85-6.57,2.53,7.14,2.11,4.71,0.56-6.29.56-4.14c0,0-.84,1.71,3.23,6.14s7,3.86,4.36,4.43S2123.28,57.34,2120.33,62.63Zm34.27,25.15c-3.93,1.43-11.94-3.43-11.37-1.43s-1.69-.43-2.81-2.71-2.39,1.72-2,2.71-2.67-3.29-6.88-4-6.88-3.43-7.3-6.29,1.43,2,7.72,2.57c1.69,0.14.28-1.86-1.4-3.14s-1.36-3,2.95,1.86c2.81,3.14,5.86.16,3.09-1.71-4.21-2.86-3.79-9.15-3.09-11.72s-0.14-1.71-.56-1.43-1.12-2.57,2.67-4.43,5.9-.43,8.57,2.43,9.7,5.55,13.63,2.29c1.54-1.29.76,1.59,1.83,7,1.12,5.71,2.53,7.72,3.65,9.29S2157.28,86.81,2154.6,87.78Zm30.76,17.15c1,6-2.11,5.43-2.11,5.43-3.93-2.14-2.53.86-5.48-.86s-7.3.57-8.43,0.29c-5-1.28-9.69,2.29-8.43-2s1.55-3.86,3.09-1.28,4.35,2.86,2.25-2.14,1.54-9.72.76-7.26,0.92,5.12,3,.54,0-16.58-3.65-23-4.21-6.79-3.09-12c1-4.57,5.2,0,7.73-3s5.06-4.57,5.06-.71,5.9,10.72,9,17.72c4.12,9.35,2.81,26.72,1.82,24.58S2184.38,98.93,2185.37,104.93Z" transform="translate(-2074.61 32.86)"/></g><path class="cls-32" d="M2139.95,74.44c-3.25-1-5.5-11.12-1.78-13,1.3-.64,6.51,4.56,7.12,4.79,0.34,0.13,8.83.56,8,0,5,3.34-.42,6-2.81,10.86-1.24,2.54-2,2.71-2.3,5.07-0.12,1,5.71.6,4.38,2.6-3.11,4.67-10.87-3.5-10.35-3.89a3.89,3.89,0,0,0-.35,2.31c0,0.29-11.8-1.41-10.58-2.93-0.42.52,17.58-3,8.71-5.84h0Z" transform="translate(-2074.61 32.86)"/><g class="cls-9"><path class="cls-33" d="M2125.4,110.21a6.14,6.14,0,0,0-3.52.29c-3.65,1.57-6.25,4.07-7,7.36,0,0-.7-3.71-5.55-2.5s-5.83,7.43-5.83,7.43,0.35-2.5-3.58-2.5-5.05,1.93-5.05,1.93-0.7-2.79-4.82-3.2c-2.21,1.81-7.41,6.69-7.26,12.39,0.19,7.24,8.05,7.43,8.05,5.72,0,0,1.12,2.09,6.55,2.29s8.24-.57,8.43-1.52a12.69,12.69,0,0,0,6.93.76c4.31-.57,3.93-2.67,3.93-2.67s1.12,2.1,7.3,1,9-3.81,9-9.15C2133,122.87,2129.35,112.26,2125.4,110.21Zm-36,23.3c0.94,6-7.4,1.81-3.74-6.38,1.7-3.82,3.56-6.86,6-6.29S2088.45,127.51,2089.38,133.51Zm11,4.19c-3.93.1-9.83,1.72-6.09-10.67,1.06-3.52,3.46-5.05,5.71-5.15s1.13,3.43,2.53,8.77S2104.28,137.61,2100.34,137.7Zm9.27-.48c-4.21-.29-4.3-6.57-3.56-11.72,0.68-4.63,2.62-9.53,5.43-9.24s2.06,4.38,2.25,8.38-0.09,5.43.56,8.1S2113.83,137.52,2109.61,137.23Zm13.79-2.48c-5.81,1.09-6.3-5.24-6.3-11.46,0-4.79,1-10.57,5.71-12.15s6.39,7.51,7.57,12.85S2129.2,133.66,2123.4,134.75Z" transform="translate(-2074.61 32.86)"/></g><path class="cls-34" d="M2118.13,121.79c3.22-17.08,15-2.26,10.27,5.2-4.17,6.6-11.56,1.61-10.27-5.2h0Z" transform="translate(-2074.61 32.86)"/><path class="cls-35" d="M2107.37,124.27c3.44-12.86,8,4.17,5.12,7.1-5,5.1-6.17-3.16-5.12-7.1h0Z" transform="translate(-2074.61 32.86)"/><path class="cls-36" d="M2094.63,130.08c3.5-11.28,8.67-.82,6.73,2.88-2,3.88-8.28,2.09-6.73-2.88h0Z" transform="translate(-2074.61 32.86)"/><path class="cls-37" d="M2086.58,126.94c0.26-.66,1.64-5,3.56-4,4.5,2.28-8.52,16.44-3.56,4h0Z" transform="translate(-2074.61 32.86)"/><g class="cls-9"><path class="cls-38" d="M2189.58,112.36a3.22,3.22,0,0,0-3.84,2.29s-1-1.91-2.53-1.91c-3.19,0-3.18,2-3.18,2s-1.12-3.14-4.21-3.24a4.13,4.13,0,0,0-4,2.67s-1.41-3.14-6.74-3.43a8,8,0,0,0-6.35,3c-0.19,3.36.62,6.48,4.29,7.57,6.37,1.91,9.37.57,9.37-.57,0,0,3.56,2.48,7.11.19,0,0,4.12,1.34,5.43-1.52,0,0,3.93,1,5.81-.19S2193.32,113.31,2189.58,112.36Zm-18.73,7.15c-0.66,1.62-12.45,1-10.58-4.57,0.74-2.18,3.46-4.57,7.68-2.19S2171.51,117.89,2170.85,119.51Zm7.87,0.29c-0.47,1.71-5,.28-4.68-1a7.17,7.17,0,0,0-.37-4c-0.56-1.81,2.53-3,4.21-1S2179.18,118.08,2178.71,119.79Zm6.18-2.57c-0.28,2.48-4.21,3.15-3.28,1.62s0.34-2.5.09-3.62C2181.06,112.27,2185.18,114.74,2184.9,117.22Zm5.9,0.1c-0.47,2.19-5.15,1.9-3.93.66s-0.13-2.21.66-3.62C2188.64,112.36,2191.26,115.12,2190.79,117.32Z" transform="translate(-2074.61 32.86)"/></g><path class="cls-39" d="M2161.39,115.12c2.74-3.17,11.09-.63,8.78,2.67-1.37,2-10.71-.44-8.78-2.67h0Z" transform="translate(-2074.61 32.86)"/><path class="cls-40" d="M2174.6,114.27c-0.55,4.1,2.08,3.24,3.15,4.79,1.35,2-2.52-9.49-3.15-4.79h0Z" transform="translate(-2074.61 32.86)"/><path class="cls-41" d="M2144.58-6.53c0.52-.31.5-3.27,0.76-3.48q-0.47.74-1,1.46c1.16-.79-0.27-5.25-0.06-5.52a7.46,7.46,0,0,0-.65,1.95c0.29-1.25-.57-6.38-0.47-6.55a6.36,6.36,0,0,0-.37,1.69,14.72,14.72,0,0,0-17.33-7.9,18.25,18.25,0,0,0-10.6,7.79c-1.48,2.29-1.8,11-2.71,11.91,1-1,1.42-3.58,1.71-4.93-0.24.86-2.62,11.58-.38,11.58a3,3,0,0,0,.94-1.71c-1.08,2.84-.88,6.53,1.61,8.64a1.4,1.4,0,0,0-.28-1.71,7.78,7.78,0,0,0,2.67,3.15q1.23-.42.28-1.43c1.41,1.24,1.53,3.72,4.07,3.72-4.85,3.61-11.75,5-10.18,12.86a5.84,5.84,0,0,1,2-4.43c-1.81,4.82-1.84,11,1.76,15.08a4.6,4.6,0,0,1,.7-4.07c0.12,4.11,1.5,9.44,5.69,11.22a9.61,9.61,0,0,1,.56-2.71c-0.38,4.2,1.21,8.8,5.48,10.43a11.67,11.67,0,0,1-.84-2.86c2.22,5.12,12.86,7.57,17.34,10.61,3.44,2.33,6.3,4.18,10.52,3.83,7-.59,22.77-8.69,26.15-15a9.13,9.13,0,0,1-.49,2.64c1.11-2.43,3.91-3.42,3.58-6.93a3.17,3.17,0,0,1,.63,2.07c0.53-2.33,1.9-2.73.56-5.86a2.63,2.63,0,0,1,1.41,2.07c0.37-5.24-2.42-6.13-5.3-9.63-6.19-7.55-.32-7.43-1.17-16.67,2.36,1.95,5.13,1.3,7.3-1.14a4.51,4.51,0,0,1-1.33,2.14c2.2-1.3,3.81,0,6-2.71a3.66,3.66,0,0,1-1,1.86c3.35-1.9,5.69-4,5.69-8.43,0.09,0.38.76,2.26,0.72,2.34a10.78,10.78,0,0,0,.89-4.63l0.7,1.29a12,12,0,0,0-2.46-11.08,10.13,10.13,0,0,1,3.09,3.29c-1.57-7.44-7.74-12.12-15.45-10.22a4.43,4.43,0,0,1,3.37-1.64,10.76,10.76,0,0,0-10.25,2.43,2.39,2.39,0,0,1,.7-1.43c-2,2.29-5,2.61-6,6.36a6.48,6.48,0,0,1,.21-3.57c-1.31,2.14-2.84,2-2.46,5.79-2.16-.55-3.26-1.9-5.83-0.86a10,10,0,0,1,4.14-1.36c-2.22-1-5.19-1.2-7.23.43,0-.29-0.12-2.48-0.07-2.5a3.31,3.31,0,0,0-1.62,3.08c-1-2-2-3.88-4.21-4.86a4.5,4.5,0,0,1,.84,3.72,6.47,6.47,0,0,0-7.16-3,5.91,5.91,0,0,1,3.51,2.72c-3-1.51-5.88-1-8.83.73h0Z" transform="translate(-2074.61 32.86)"/><path class="cls-4" d="M2145.16-6.48c0.61-1.12.42-2.39,0.79-3.58,0.18-.58-1-0.25-1.19,0l-1,1.46c-0.35.52,0.88,0.47,1.15,0.1,1.2-1.69-.1-3.78,0-5.63,0-.57-1-0.36-1.19,0a9.48,9.48,0,0,0-.68,2.05l1.22-.12c0.21-2.21-.44-4.36-0.47-6.55,0-.6-1.12-0.35-1.22.12l-0.37,1.69,1.17-.31c-4.22-8-13.59-10.7-21.62-6.62-3.28,1.66-6.72,4.52-8,8.06-1.17,3.2-.35,7.68-2.14,10.57-0.35.56,0.89,0.45,1.15,0.1a12.18,12.18,0,0,0,1.75-5c0.11-.56-1.1-0.35-1.22.12-0.53,2.09-3.16,11-.12,11.9a0.89,0.89,0,0,0,.86-0.23,3.91,3.91,0,0,0,1-1.92l-1.22.12c-1,3.32-.74,6.27,1.67,8.84a0.77,0.77,0,0,0,1.17-.31c0.22-1.19.24-.81-0.33-1.91l-1.12.51a10.78,10.78,0,0,0,2.75,3.22,0.84,0.84,0,0,0,.87-0.09l0.68-.57a0.41,0.41,0,0,0,.21-0.4l-0.4-.86-1.16.42a47.69,47.69,0,0,1,3.19,3.65c0.06,0.79-3.88,2.6-4.71,3.15-3.65,2.42-5.26,5.22-4.63,9.69,0.07,0.49,1.17.2,1.22-.22a5.55,5.55,0,0,1,1.93-4.22L2114,20.6c-1.76,5.3-1.7,10.74,1.81,15.28,0.28,0.36,1.24.07,1.16-.42l0.67-3.86-1.18.11c0.26,4.58,1.53,9.11,5.82,11.38a0.8,0.8,0,0,0,1.08-.39A9.61,9.61,0,0,1,2124,40l-1.22.12c-0.2,4.63,1.29,8.63,5.61,10.7,0.27,0.13,1.26,0,1.08-.49a11.67,11.67,0,0,1-.84-2.86l-1.16.42c2.81,5.22,9.79,6.76,14.74,9.2s8.59,6.06,14.43,5.29c8.85-1.16,21.3-7.48,26-15.27h-1.19a9.13,9.13,0,0,1-.49,2.64c-0.15.57,1,.29,1.19,0,1.57-2.68,3.53-3.77,3.62-7l-1.22.22a3.17,3.17,0,0,1,.63,2.07c0.07,0.55,1.11.13,1.22-.22,0.82-2.62,1.47-3.27.56-6l-1.16.42,1.36,2c0.16,0.44,1.21.24,1.22-.22,0-6.23-5.27-7.82-7.49-13.1-1.68-4,1.26-9,1-13.3l-1.08.49c3.15,2,5.69,1.12,8.28-1.32l-1.07-.2-1.26,2c-0.43.51,0.43,0.61,0.76,0.46,2.74-1.2,4.13-.76,6.28-2.88l-1.07-.2a3.66,3.66,0,0,1-1,1.86c-0.39.53,0.77,0.41,1,.29,3.55-2.13,5.65-4.48,5.91-8.73l-1.22.22c0.24,0.78.51,1.55,0.72,2.34,0.14,0.55,1.09.14,1.22-.22a14.7,14.7,0,0,0,.89-4.63l-1.17.31,0.7,1.29c0.22,0.4,1.09,0,1.17-.31a13.08,13.08,0,0,0-2.51-11.27l-1,.58a10,10,0,0,1,3,3.22c0.25,0.36,1.29.06,1.16-.42-1-3.88-2.95-7.38-6.55-9.37a12.1,12.1,0,0,0-4.14-1.38c-1.14-.16-7,0.31-2.06-0.54,0.28,0,1.12-.64.42-0.78a12.51,12.51,0,0,0-11,2.57l1,0.18,0.67-1.32c0.38-.53-0.83-0.43-1.07-0.2-2.38,2.3-4.87,3.21-6,6.46l1.18-.11,0.22-3.47c0.12-.62-1-0.24-1.19,0a19,19,0,0,0-2.06,2.61c-0.17.37-.4,2-0.57,2.17-0.38.29-1.65-.27-2.32-0.52-1.14-.42-4.33.74,1.32-0.24,0.34-.06,1.07-0.54.42-0.78a8.38,8.38,0,0,0-8,.57l1,0.18c0-.83-0.09-1.67-0.07-2.5,0-.58-0.87-0.3-1.11-0.09a4.33,4.33,0,0,0-1.73,3.28l1.17-.31a11,11,0,0,0-4.3-4.93c-0.34-.19-1.33.07-1,0.58l0.79,3.52,1.17-.31c-2.07-2.62-4.34-3.66-7.65-3.15-0.35.05-1.06,0.53-.42,0.78A5.75,5.75,0,0,1,2152.85-7l0.92-.63a10.13,10.13,0,0,0-9.62.9c-0.7.42,0.32,0.75,0.78,0.48l2.39-1.42c0.7-.42-0.32-0.75-0.78-0.48l-2.34,1.39c-0.7.42,0.32,0.75,0.78,0.48-0.3.18,2.29-1.31,2.28-1.35-0.37-1.14-1.26-.07-1.66,0a3.69,3.69,0,0,0-1.26.75l2-.13a7.54,7.54,0,0,1,6.74.1c0.3,0.12,1.24-.19.92-0.63-0.54-.73-1.62-1.38-2.06-2.08-1.53-2.42,3.68,1.71,4.6,2.88a0.77,0.77,0,0,0,1.17-.31,6,6,0,0,0-.89-3.91l-1,.58c2.15,1.24,3,2.7,4.13,4.79,0.21,0.39,1.12.06,1.17-.31l1.51-2.87-1.11-.09c0,0.83,0,1.67.07,2.5,0,0.5.72,0.35,1,.18a6.86,6.86,0,0,0,5.38-.78q0.18-.09-0.1,0A26.21,26.21,0,0,1,2165-5.79c-0.63.32-.24,0.85,0.36,0.69,2.2-.58,3.51.23,5.37,0.86,0.26,0.09,1-.05,1-0.44-0.1-2.59,1-3.74,2.42-5.68h-1.19a6.94,6.94,0,0,0-.21,3.68c0,0.47,1.07.2,1.18-.11,1.11-3,3.74-4.17,5.9-6.26l-1.07-.2a2.83,2.83,0,0,0-.74,1.53c-0.14.49,0.82,0.33,1,.18,1.68-1.32,10.57-5.1,8.29-2.76,0,0-2.26,1.54-2.3,1.58-0.44.41,0.31,0.58,0.6,0.52,7.5-1.49,13,2.95,14.75,10l1.16-.42a14.38,14.38,0,0,0-3.18-3.36c-0.31-.24-1.37.13-1,0.58a12.71,12.71,0,0,1,2.41,10.88l1.17-.31-0.7-1.29a0.77,0.77,0,0,0-1.17.31,14.7,14.7,0,0,1-.89,4.63l1.22-.22c-0.21-.79-0.48-1.56-0.72-2.34-0.15-.47-1.19-0.22-1.22.22a8.35,8.35,0,0,1-2.62,6.09,8.2,8.2,0,0,1-1.78,1.4q1,0.39.87-.92c0.23-.64-0.82-0.45-1.07-0.2,4-3.93-4.62,3.28-4.66,2.05,0,1.31,1.67-2.74,1-1.29,0.28-.63-0.83-0.42-1.07-0.2l-6.33,1a0.74,0.74,0,0,0-1.08.49c0.21,4-2.39,8.23-1.55,12,1.32,5.9,8,7.64,8,14.21l1.22-.22c-0.6-1.62-.18-1-1.45-2.16-0.28-.24-1.35-0.12-1.16.42,0.71,2.1.05,3.78-.57,5.75l1.22-.22a3.17,3.17,0,0,0-.63-2.07c-0.2-.4-1.2-0.28-1.22.22-0.08,2.83-2.2,4.54-3.54,6.83h1.19a9.13,9.13,0,0,0,.49-2.64c0.07-.61-1-0.29-1.19,0-2.62,4.38-7.58,7.34-12,9.7-3.94,2.13-9,4.85-13.54,5-5.72.13-10.09-4-15.07-6.27-4.27-1.9-9.93-3.63-12.29-8-0.21-.4-1.27,0-1.16.42a11.67,11.67,0,0,0,.84,2.86l1.08-.49c-4.15-2-5.53-5.77-5.34-10.16,0-.61-1.1-0.33-1.22.12a9.61,9.61,0,0,0-.56,2.71l1.08-.39c-4.14-2.2-5.31-6.69-5.55-11.05,0-.5-1-0.15-1.18.11a6.07,6.07,0,0,0-.74,4.28l1.16-.42c-3.42-4.42-3.4-9.77-1.7-14.88,0.18-.53-0.94-0.28-1.11-0.09A7.13,7.13,0,0,0,2112,25l1.22-.22c-1-7.15,5.13-9.07,10-12.46,0.36-.25.22-0.58-0.17-0.64-2.09-.36-2.57-2.22-3.74-3.57-0.26-.3-1.38,0-1.16.42a4.18,4.18,0,0,1-1.79-2.13c-0.24-.42-1.39,0-1.12.51l0.23,1.52,1.17-.31c-2.31-2.47-2.49-5.38-1.56-8.45,0.16-.53-1.07-0.34-1.22.12-0.65,1.88-.64-1.9-0.61-2.42,0.06-1,.21-2,0.35-2.92,0.24-1.55.52-3.11,0.91-4.64l-1.22.12a11.81,11.81,0,0,1-1.67,4.83l1.15,0.1c2.41-3.87.68-9.15,3.58-13,7-9.29,20.51-8.82,25.93,1.45,0.22,0.41,1.09,0,1.17-.31l0.37-1.69-1.22.12c0,2.2.68,4.34,0.47,6.55-0.06.6,1.11,0.34,1.22-.12l0.61-1.84h-1.19c-0.07,1.76,1.24,3.8.1,5.41l1.15,0.1,1-1.46h-1.19c-0.34,1.1-.15,2.33-0.72,3.37C2143.7-6,2144.93-6.06,2145.16-6.48Z" transform="translate(-2074.61 32.86)"/><path class="cls-4" d="M2122.71,12.53c2.68-1.66,5.92-3.85,7.32-6.82C2129.38,7.12,2123.63,12,2122.71,12.53Z" transform="translate(-2074.61 32.86)"/><path class="cls-4" d="M2144.06-6.57a14.8,14.8,0,0,1-4.4,4.62C2141.19-2.87,2143.73-6.06,2144.06-6.57Z" transform="translate(-2074.61 32.86)"/><path class="cls-4" d="M2170.48-4.7q0.54,4.34,3,3.37Q2172.86-6.12,2170.48-4.7Z" transform="translate(-2074.61 32.86)"/><path class="cls-4" d="M2181.67,15.3c0-1.36-3.2-14-6.11-12.12C2177.38,2,2181.69,14.77,2181.67,15.3Z" transform="translate(-2074.61 32.86)"/><path class="cls-4" d="M2114.3,21.69l2.44-3.23A15.82,15.82,0,0,0,2114.3,21.69Z" transform="translate(-2074.61 32.86)"/><path class="cls-4" d="M2185.48,43.63a5.05,5.05,0,0,0-1.19-4C2183.53,39.09,2185.49,44.53,2185.48,43.63Z" transform="translate(-2074.61 32.86)"/><path class="cls-4" d="M2186.79,39.39c-0.62-2.8-2.08-3.41-3.35-4.41C2183.8,35.26,2186.81,39.47,2186.79,39.39Z" transform="translate(-2074.61 32.86)"/><path class="cls-4" d="M2149.69,59.84a11.54,11.54,0,0,1-1.47-6A11.38,11.38,0,0,0,2149.69,59.84Z" transform="translate(-2074.61 32.86)"/><path class="cls-4" d="M2159.75,60l3.6-2.92C2163.52,56.87,2158.43,60.8,2159.75,60Z" transform="translate(-2074.61 32.86)"/><path class="cls-4" d="M2131.29,17.34c-5-7.5-8.06,2.89-2.78,0-2.76-1.34-6.7-1.25-8.39,1.79a2.39,2.39,0,0,0,2.58-.32c-2.32.05-4.11,2.29-4.56,4.37,0.17-.75,3.46-4.74,5.05-4.21a3.81,3.81,0,0,0-2.76,0c1.87-.78,6.09-3.76,8.12-1.56a5.64,5.64,0,0,0-3.07-1.75C2126.93,15.64,2130.76,16.56,2131.29,17.34Z" transform="translate(-2074.61 32.86)"/><path class="cls-4" d="M2152.18,0.37c2.37,0.91,3.24,2.76,5.14,4.18-0.87-.65-3.14-0.92-3.37-1.07a27.64,27.64,0,0,1,5.17,5.5q-1.42-2-2.43-.71c2,1.31,4.51,6.72,4.82,8a16.51,16.51,0,0,0-4.2-8.18c-0.2-.19,2.37,1.92,2,1.18a15.45,15.45,0,0,0-4.67-5.93c0.19,0.14,3.36,2.11,3.1,1.59C2156.47,2.33,2153.56.91,2152.18,0.37Z" transform="translate(-2074.61 32.86)"/><path class="cls-4" d="M2133.5,0.84A10.59,10.59,0,0,0,2137.45-6c0.06-.39-2.08,1.59-2.21,1.8,1.57-2.45,1.39-5.8.53-8.43-0.2-.59-1.61,3.94-1.63,4,0.45-1.46-.66-10.67-3.93-8.51,2.43-1.6,3.64,7.59,3.28,8.65,0.3-.88,2.09-1.84,2.28-3.94a14.9,14.9,0,0,1-1.12,8.17c-0.15.21,3-.26,2.4-1.38C2137.56-4.61,2133.32,1,2133.5.84Z" transform="translate(-2074.61 32.86)"/><path class="cls-4" d="M2120.85-7.2a7.77,7.77,0,0,0-2.18,4.83A1.8,1.8,0,0,0,2120.42-4c-2,3,.07,10.59,4.82,7.78-4.28,2.55-6-5.33-4.21-7.88q-1.54-.31-2.33,1.65C2119.2-2.52,2121.43-7.79,2120.85-7.2Z" transform="translate(-2074.61 32.86)"/><path class="cls-4" d="M2176.3,1.76a12.53,12.53,0,0,1,.51-5.37c-0.1,5.31,2.56-1.39,4.18-2.32a3.18,3.18,0,0,1-.06,2.23c0-6.59,13.31-1.4,14.37,1.27C2193.53-6.88,2183-9.62,2181-4.07q0.53-1.13,1.11-2.25c-0.53,1.32-3.82,2.55-4.67,4.59a3.25,3.25,0,0,0,0-2.33C2177.42-3.57,2176.26,1.4,2176.3,1.76Z" transform="translate(-2074.61 32.86)"/><path class="cls-4" d="M2198.31,7.15l-0.66-4.63C2197,1,2198.31,8.71,2198.31,7.15Z" transform="translate(-2074.61 32.86)"/><path class="cls-4" d="M2193.13,13.56l1.43-3C2194.66,9.54,2191.9,15,2193.13,13.56Z" transform="translate(-2074.61 32.86)"/><path class="cls-42" d="M2147.86,36c-1.62-6.31-4.78-7.71-9.38-11.42-2-1.57-6.66-7.31-9.63-6.22q0.62,0.72,1.18,1.49c0.09,0.27-5.22-.59-5-0.37a6.06,6.06,0,0,1,1.75,1.23c0,0.37-7.63.86-6.88,2.93a18.7,18.7,0,0,0,2.38-.5s-2.09,8.58.19,8.43a12.46,12.46,0,0,0,1.35-2.57s2.7,6.83,3.6,7.33c0.37,0.21.16-3.07,0.23-3.12-0.63.48,3.13,9.83,3.48,10.3,1,1.29,11.67,7.68,11.36,3-0.06-1-4-1.68-3.78-2,0.88-1.37,2.91-1.71,3.93-3.47,0.58-1-3.63-1.55-1.2-3.64,1.28-1.1,9.48,8.46,11.4,7-3.52,2.63,2.3-.43.59,1.88,0.69-.93-4.3,3-1.38,2.06a4.25,4.25,0,0,0-2.89.87c-1,2.77,10.85,3.45,12.64,2,4-3.32-1.11-5.1-2.51-9.43s1.75-9.45-2.61-10.07c-1.37-.19-8.54,5.44-8.84,4.25h0Z" transform="translate(-2074.61 32.86)"/><path class="cls-43" d="M2163,36.33c0.16-4.88.81-30.31-3.06-31.75a1.09,1.09,0,0,0,1.08.77c1-2.34-6.08-5.88-4.9-7.75-0.76,1.21,9.82.73,9.4,0.62,5.11,1.32,14.78,11.67,13.1,16.39-0.89,2.5-6.36,2.59-7.37,7.35-0.68,3.19.85,6.08,1.56,9.11s2.61,6.18.58,7.86c-0.72.59-10.44-1.22-10.4-2.6h0Z" transform="translate(-2074.61 32.86)"/><path class="cls-44" d="M2138.31,23.75c6.25,4.07,5.39-10,13.32-6.89,10.06,3.9,3.11,14.11-5,13.89,0.07,0.31,1.66,4.06,1.68,4,0.24-.12,4.34-3.29,4.81-3.69,4.37-3.75,7-4.54,2.53-11.7-4.39-7-6.83-4.14-12.45-.3C2141.53,20.23,2137.72,23.62,2138.31,23.75Z" transform="translate(-2074.61 32.86)"/><path class="cls-45" d="M2145.94,11.94c0.42-.26-5.77,3.18-4.4,4.19,2.26,1.67,7.87-3,11.3-1.32,3.93,1.92,6.86,7.6,7.7,11.22,1.12,4.79-1.94,10.6-.56,15.34,1.49,5.11,9.44,10.79,14.29,5.25,5.39-6.16-4.17-5.27-8.21-6.94-3.7-1.53-2.35,2.81-4.21-1.47-1.1-2.53,1.11-8.26.78-11.12-0.88-7.49-6.88-21.14-16.7-15.17h0Z" transform="translate(-2074.61 32.86)"/><path class="cls-46" d="M2200.88-2.33c-1.57-7.44-7.74-12.12-15.45-10.22a4.43,4.43,0,0,1,3.37-1.64,10.76,10.76,0,0,0-10.25,2.43,2.39,2.39,0,0,1,.7-1.43c-2,2.29-5,2.61-6,6.36a6.48,6.48,0,0,1,.21-3.57c-1.31,2.14-2.84,2-2.46,5.79-2.16-.55-3.26-1.9-5.83-0.86a10,10,0,0,1,4.14-1.36c-2.22-1-5.19-1.2-7.23.43,0-.29-0.12-2.48-0.07-2.5a3.31,3.31,0,0,0-1.62,3.08c-1-2-2-3.88-4.21-4.86a4.5,4.5,0,0,1,.84,3.72,6.47,6.47,0,0,0-7.16-3,5.91,5.91,0,0,1,3.51,2.72c-3-1.51-5.88-1-8.83.73,0.52-.31.5-3.27,0.76-3.48q-0.47.74-1,1.46c1.16-.79-0.27-5.25-0.06-5.52a7.46,7.46,0,0,0-.65,1.95c0.29-1.25-.57-6.38-0.47-6.55a6.36,6.36,0,0,0-.37,1.69c-7.72-16.44-34.28-5.44-30.92,11.55,0.17,0.89,1.85-4.15,1.66-3.48-0.42,1.67-.49,12.48.67,9.35-0.72,2.66-.42,6,1.84,7.94a1.4,1.4,0,0,0-.28-1.71c0.47,0.47,4.55,5,3.08,2a5.92,5.92,0,0,0,3.94,3.46c-4.85,3.61-11.75,5-10.18,12.86a5.84,5.84,0,0,1,2-4.43c-1.81,4.82-1.84,11,1.76,15.08a4.6,4.6,0,0,1,.7-4.07c0.12,4.11,1.5,9.44,5.69,11.22a9.61,9.61,0,0,1,.56-2.71c-0.38,4.2,1.21,8.8,5.48,10.43a11.67,11.67,0,0,1-.84-2.86c2.22,5.12,12.86,7.57,17.34,10.61,3.44,2.33,6.3,4.18,10.52,3.83,7-.59,22.77-8.69,26.15-15a9.13,9.13,0,0,1-.49,2.64c1.11-2.43,3.91-3.42,3.58-6.93a3.17,3.17,0,0,1,.63,2.07c0.53-2.33,1.9-2.73.56-5.86a2.63,2.63,0,0,1,1.41,2.07c0.37-5.24-2.42-6.13-5.3-9.63-6.19-7.55-.32-7.43-1.17-16.67,2.36,1.95,5.13,1.3,7.3-1.14a4.51,4.51,0,0,1-1.33,2.14c2.2-1.3,3.81,0,6-2.71a3.66,3.66,0,0,1-1,1.86c3.35-1.9,5.69-4,5.69-8.43,0.09,0.38.76,2.26,0.72,2.34a10.78,10.78,0,0,0,.89-4.63l0.7,1.29a12,12,0,0,0-2.46-11.08A10.13,10.13,0,0,1,2200.88-2.33Zm-81.25,8.07c0,2.18-2.82-1.21-3.16-2.16a1.06,1.06,0,0,1-.47.94c-2.5.06,0.89-9.63,0.7-9.65s-0.69,1.85-1.22,1.43c-4.48-3.54,4.84-13.4,7.72-15.09a2.77,2.77,0,0,1-1.57-.62c0.7,1,11.74-4,13.59,5.7a6.26,6.26,0,0,1,0-2.56c0.66-1.18,2.55,6.81,2.29,8.14a3.93,3.93,0,0,1,1.25-1.69c3.37-.28-5.86,12.63-6.24,12.91C2131.58,3.74,2119.63,9,2119.63,5.75ZM2178.76,20c-1.48,2.67-11.06,5.78-3.61,12.8,2.49,2.35,3.23-.71,6.5.91,4,2,3,3.72.65,4.56-1.48.52,2.76,5.5,0.7,7.44a5.87,5.87,0,0,1-1.38-2.62c6,2-17.25,14.41-17,14.2a2.55,2.55,0,0,0,.94-2.22c-2.56-1.11-7.92,6.34-12.59,4.4-2.94-1.22-2.32-5-4.47-6.43s-1.79,2.11-3,1.68c-7.87-2.84-13.51-5.9-17-13.88-0.1-.23-0.16,4-0.81,3.73-3.14-1.42-2.33-10.74-4-11.07a15.53,15.53,0,0,0-.68,2.4c-1.42,1.34-5-7.17-4.46-8.33a8.38,8.38,0,0,1-.74,2.27c-2.43.71,1.17-10.13,1.37-10.46,3-5.06,8-6.41,12.57-9.61s7.9-7.15,11.6-11c1.77-1.86,3-4.41,5.41-5.63,1.08-.55,5.26,1.51,5.47,1A6.69,6.69,0,0,0,2154.1-8c0.4-.44,3.76,3.79,4,3.36q0.24-1.2.39-2.42c0.08-.16,1.83,3.74,1.94,3.78,0.5,0.22,3.17-2.93,4.33-2.87,0.16,0-1.67,1.2-1.41,1.68,0.85,1.55,7.42,4.51,9.34,6.57,4.56,4.88,10.1,10.67,6.06,18h0Zm17.55-12.58c-0.94,3.15-1.55,0-2-1,0.4,0.94-2.6,7.11-4.11,6.44-0.79-.35.18-3.06,0.18-3.58,0,1.46-4.67,5.39-6.25,4.93-1.27-.37-4.39-8.34-5.33-9.88-2.28-3.73-5.68-5.75-2-10.4-0.49.61,6.13-2.7,6.76-2.29a1.34,1.34,0,0,1,.06,1.64c1.53-2.34,7.49-1.5,9.23-.53,4.88,2.72,4.81,10,3.41,14.67h0Z" transform="translate(-2074.61 32.86)"/><path class="cls-47" d="M2176.47,0.7c0.57-2.07,3.13-6.75,6.09-7.49-0.76.19-1.87,2.64-1.32,3,1.84,1.24,7.5-6.21,12.12-.41,2.57,3.22,0,10.08-.6,7.46,0.53,2.42-3.37,6.69-3.37,1.91C2189.39,17.72,2178.43,1.68,2176.47.7Z" transform="translate(-2074.61 32.86)"/><path class="cls-48" d="M2176.83-.68c0.54-1.54,2.5-4.56,4.48-5.19-0.47.15-1.36,1.8-.88,2,2.78,1.05,5.82-5.34,10.35-.85,1.82,1.81.29,6-.46,4.14a5.72,5.72,0,0,1-1.1,2.74A1.2,1.2,0,0,1,2187.69.9C2188.52,9.17,2177.78-.43,2176.83-0.68Z" transform="translate(-2074.61 32.86)"/><path class="cls-49" d="M2121.32-7.31a8.18,8.18,0,0,0-2,4.1l1.78-.86c-6.69,9,12.28,9.11,16.2-1.52a5.44,5.44,0,0,1-2.43,1.43,8.36,8.36,0,0,0,.75-6.76,13.33,13.33,0,0,1-1.87,2.48C2135.55-20.19,2121.07-18,2121.32-7.31Z" transform="translate(-2074.61 32.86)"/><path class="cls-50" d="M2124.91-6.73a8.45,8.45,0,0,0-1.44,3.81l1.3-.8c-5,9.63,9.43,7.46,11.9-1.42a4,4,0,0,1-1.79,1.33c0.71-2.12,1.21-4,.55-6.3a12.68,12.68,0,0,1-1.37,2.31C2135.25-18.33,2124.73-16.33,2124.91-6.73Z" transform="translate(-2074.61 32.86)"/><path class="cls-4" d="M2158.56,17.83c4,7,2.58,15.38,2.06,23C2161.21,32.5,2162.86,25.5,2158.56,17.83Z" transform="translate(-2074.61 32.86)"/><path class="cls-4" d="M2173.2,20.81c-1.57,6.54,6.81,18.6,3.07,23.58C2180.26,39.11,2171.83,26.69,2173.2,20.81Z" transform="translate(-2074.61 32.86)"/><path class="cls-51" d="M2165.14,46.81c-9.33-7.36,2.8-10,8.18-5.79,7,5.58-3.87,9.18-8.18,5.79h0Z" transform="translate(-2074.61 32.86)"/><path class="cls-4" d="M2165.7,46.56c-1.8-1.46-5.44-5.12-1.73-6.7,2.62-1.11,6.24-.37,8.5,1.21,1.18,0.82,2.8,2.3,2.52,3.93-0.23,1.34-1.64,2.06-2.82,2.41a7.78,7.78,0,0,1-7.31-1.51l-1,.64,1.92,1.52,1-.64-1.17-.92c-0.36-.28-1.46.24-1,0.64l1.17,0.92c0.36,0.28,1.45-.24,1-0.64l-1.92-1.52c-0.36-.28-1.46.24-1,0.64A8.83,8.83,0,0,0,2171,48.4c2-.3,5.15-1.4,5.25-3.87,0.12-2.94-3.74-5-6.15-5.55s-5.49-.65-7.6.81c-3.2,2.22.05,5.62,2.09,7.27C2164.95,47.36,2166.08,46.87,2165.7,46.56Z" transform="translate(-2074.61 32.86)"/><path class="cls-52" d="M2157,19.37c0.8,1.88,2.51-5.94-2.41-8.46-3.5-1.8-10.61-.22-12.42,4.15-0.18.43,7-2.26,7.55-2.21,4.15,0.38,5.72,2.86,7.28,6.52h0Z" transform="translate(-2074.61 32.86)"/><path class="cls-4" d="M2156.44,19.53a1,1,0,0,0,1.57.08c1-.91.63-3.48,0.37-4.58-1.18-5-6.32-5.88-10.66-4.63a9.94,9.94,0,0,0-5.45,3.54c-0.81,1.16-.88,1.45.38,1.39,2.09-.09,4.14-1.56,6.18-2,4-.79,6.35,3.19,7.68,6.34l1.21-.32c-0.2-.36-0.33-0.77-0.49-1.15l-1.21.32,0.41,1c0.17,0.39,1.36,0,1.21-.32l-0.41-1c-0.17-.39-1.36,0-1.21.32s0.3,0.79.49,1.15,1.36,0,1.21-.32c-1.28-3-2.91-5.87-6.35-6.65-2.35-.53-4.6.73-6.81,1.44a10.62,10.62,0,0,1-1.76.54c-0.3-.44,2.58-2.66,2.83-2.81a9.66,9.66,0,0,1,8-.95,6.11,6.11,0,0,1,3.56,4.66,8,8,0,0,1,.13,2.43,3.85,3.85,0,0,0-.12.77c0.15,1-.11-0.57.43,0.38C2157.44,18.82,2156.27,19.23,2156.44,19.53Z" transform="translate(-2074.61 32.86)"/><g class="cls-53"><path class="cls-54" d="M2142.21,15.05c-0.63,1.51,4.78-1.67,7.55-2.21,4-.77,6.16,3.89,7.28,6.52,0.46,1.07,3.1.73,2.38-1.55s-4.18-7.43-6.92-8.18S2142.84,13.54,2142.21,15.05Zm6.11-4c3.68-2.09,5.28-1.12,7.86,1.83a10.89,10.89,0,0,1,2.43,3.73c0.72,2-.5,2.64-1.8.13s-2.7-6-5.48-5.25S2144.64,13.17,2148.32,11.08Z" transform="translate(-2074.61 32.86)"/></g><path class="cls-55" d="M2174,21.37c-0.52.82-.89-2.8,1.81-3.66,1.92-.61,5.08.13,5.71,2.79-0.77-3.3-6.61-.56-7.52.87h0Z" transform="translate(-2074.61 32.86)"/><path class="cls-4" d="M2173.53,21.23q1,0.33.78-.16a1.53,1.53,0,0,1,0-.41c0.05-.21,0-0.45.09-0.67a2.57,2.57,0,0,1,1.86-2,4,4,0,0,1,4.73,2.67l1.21-.32c-1.07-3.64-7.35-1.13-8.75,1.08l1.14,0.08,0.33-.52-1.14-.08-0.27.43c-0.33.52,0.9,0.47,1.14,0.08l0.27-.43c0.33-.52-0.9-0.47-1.14-0.08l-0.33.52c-0.33.52,0.9,0.47,1.14,0.08,1.05-1.65,5.62-3.48,6.4-.83,0.14,0.49,1.35.16,1.21-.32-0.89-3-5.16-4.26-7.67-2.35a3.6,3.6,0,0,0-1.42,3.18,0.79,0.79,0,0,0,1.46.35C2175,20.93,2173.84,20.86,2173.53,21.23Z" transform="translate(-2074.61 32.86)"/><g class="cls-53"><path class="cls-56" d="M2177,17c-1.39.14-3.47,2.35-4,3.39a0.7,0.7,0,0,0,1,.95c0.75-1.18,2.19-3.26,4-2.56,1.3,0.49,3.66,2.47,3.48,1.69S2178.39,16.89,2177,17Zm0.41,1c-1.29-.59-2.24,1-3.07,2.09s-1.37.72-.86-0.21a5.31,5.31,0,0,1,1.47-1.61c1.48-1.21,2.33-1.55,3.95-.24S2178.71,18.63,2177.42,18Z" transform="translate(-2074.61 32.86)"/></g><path class="cls-57" d="M2156.11,27.25c-5.14,7.17-16.54,1.67-12.45-6.12C2149.15,10.68,2155.83,19.49,2156.11,27.25Z" transform="translate(-2074.61 32.86)"/><path class="cls-4" d="M2155.61,27.11c-2.27,2.95-6,4-9.22,1.88a5.94,5.94,0,0,1-2.33-7.37c0.67-1.66,2.1-4.07,3.89-4.72s3.33,0.51,4.42,1.8a14.92,14.92,0,0,1,3.14,8.71c0,0.47,1.24.21,1.21-.32-0.22-3.77-1.82-9.19-5.68-10.82s-7.22,2.56-8.32,5.81a6.6,6.6,0,0,0,4.12,8.27,8.37,8.37,0,0,0,9.77-3C2157.06,26.8,2155.91,26.72,2155.61,27.11Z" transform="translate(-2074.61 32.86)"/><g class="cls-58"><path class="cls-59" d="M2155,25.67c-0.93,8.39-10.19,6.09-9.08-1.67C2147.05,15.89,2155.9,17.31,2155,25.67Z" transform="translate(-2074.61 32.86)"/><path class="cls-60" d="M2154.06,26.54c-0.63,5.78-6.79,4.16-6.08-1.12,0.77-5.77,6.66-4.17,6.08,1.12C2153.79,29,2154.34,24.07,2154.06,26.54Z" transform="translate(-2074.61 32.86)"/><path class="cls-61" d="M2154.21,23.41a1.44,1.44,0,0,1-.75,2c-1.51.1-2.42-3.65-.8-3.75a2,2,0,0,1,1.55,1.8C2154.43,24.45,2154,22.37,2154.21,23.41Z" transform="translate(-2074.61 32.86)"/></g><path class="cls-4" d="M2138.92,24.37c3.68,0.73,8.23,6.21,9.11,8.93C2146.47,28.62,2143.39,25.26,2138.92,24.37Z" transform="translate(-2074.61 32.86)"/><g class="cls-62"><path class="cls-63" d="M2181.62,29.15c-2.33,4.8-10.12,5.12-10.72.07C2169.82,20,2179.57,21.94,2181.62,29.15Z" transform="translate(-2074.61 32.86)"/><path class="cls-4" d="M2181,29.24c-1.36,2.55-4.67,4.28-7.46,2.84-2.28-1.17-2.58-4.31-1.82-6.52,0.85-2.46,3.12-2.63,5.18-1.51a8.83,8.83,0,0,1,4.09,5.27c0.12,0.38,1.33,0,1.21-.32-0.93-3-3.33-5.84-6.6-6.24a4.57,4.57,0,0,0-5.2,3.37c-0.86,3.34.5,6.72,4.18,7.05a7.92,7.92,0,0,0,7.62-4.1C2182.38,28.78,2181.21,28.88,2181,29.24Z" transform="translate(-2074.61 32.86)"/><g class="cls-64"><path class="cls-65" d="M2179.43,28.41c-0.56,6.31-7.27,4.7-6.63-1.07,0.7-6.3,7.14-4.7,6.63,1.07h0Z" transform="translate(-2074.61 32.86)"/><path class="cls-66" d="M2178.54,29c-0.63,7.29-4.63-.75-4.43-0.72-0.14,0,5.08-6.61,4.43.72C2178.38,30.78,2178.7,27.16,2178.54,29Z" transform="translate(-2074.61 32.86)"/><path class="cls-61" d="M2178.19,26.09c0.58,3.91-3.39-1.37-1-1.38l1,1.38h0Z" transform="translate(-2074.61 32.86)"/></g><path class="cls-2" d="M2181.62,29.15c-2.33,4.8-10.12,5.12-10.72.07C2169.82,20,2179.57,21.94,2181.62,29.15Z" transform="translate(-2074.61 32.86)"/></g><path class="cls-67" d="M2150.44,52.15c-1.21,10.29,12.78,3.69,16.57.38C2165,49.88,2155.22,54.07,2150.44,52.15Z" transform="translate(-2074.61 32.86)"/><path class="cls-4" d="M2166.42,47.59c-1.18,11.89-27.65,4.75-22.06-6.46C2138.4,53,2165.21,59.69,2166.42,47.59Z" transform="translate(-2074.61 32.86)"/><path class="cls-4" d="M2165.4,50.42c1.85,7.34,13.67,1,13.72-4.58C2179.09,50.45,2167,57.08,2165.4,50.42Z" transform="translate(-2074.61 32.86)"/><path class="cls-68" d="M2151.28,44.53s-6.65-3.34-9.46-6Z" transform="translate(-2074.61 32.86)"/><path class="cls-4" d="M2151.56,44.42c-2.93-1.48-7.95-3.87-10-5.8C2144.56,41.4,2148.27,42.78,2151.56,44.42Z" transform="translate(-2074.61 32.86)"/><path class="cls-4" d="M2152,45.93c-4.24-1-8.25-1.73-12-1.09C2143.44,44.26,2149.29,45.31,2152,45.93Z" transform="translate(-2074.61 32.86)"/><path class="cls-4" d="M2150.92,47.18c-3.42-.16-8,0.2-10.66,2.8C2142,48.23,2148.53,47.07,2150.92,47.18Z" transform="translate(-2074.61 32.86)"/><path class="cls-4" d="M2175.22,47.93a20.74,20.74,0,0,0,8.45-1.7C2182.5,46.88,2176.48,47.85,2175.22,47.93Z" transform="translate(-2074.61 32.86)"/><path class="cls-4" d="M2174.85,49.3c1.56-.18,7.35-0.38,8.82.18C2180.37,48.23,2177.51,49,2174.85,49.3Z" transform="translate(-2074.61 32.86)"/><path class="cls-4" d="M2174.06,50.17a33.45,33.45,0,0,1,5.5,1.78A13.08,13.08,0,0,0,2174.06,50.17Z" transform="translate(-2074.61 32.86)"/><path class="cls-4" d="M2167.78,8.83a7.65,7.65,0,0,1-.76,5c0.85-1.7,3.42-2,4-5.08-1.62.31-.44,3.67-0.19,3.64a4.34,4.34,0,0,0,1.88-4.07c-0.89.17,0.41,4.49,0.23,5.49,0.27-1.6,2-2.45,1.38-5.4A45.23,45.23,0,0,1,2173,13.8c1.59,0,0-4.89-.25-5.49s-1.33,3-1.53,3.35c3.57-5.53-3.11,1.34-4.09,2.12C2169.94,14.55,2167.6,8,2167.78,8.83Z" transform="translate(-2074.61 32.86)"/><g class="cls-69"><path class="cls-70" d="M2176.56,44.24c-1.12-3.8-10-6.1-14-4.57s-0.37,4.86,2.53,7.15C2168.86,49.74,2177.12,46.14,2176.56,44.24Zm-8.24,2c-2.06.19-4.59-1.81-5.43-3.24-1.32-2.24.65-2.76,3.46-3s6.18,1.43,6.84,2.76S2170.38,46.05,2168.32,46.24Z" transform="translate(-2074.61 32.86)"/></g></g></g></svg>