<svg id="Layer_1" data-name="Layer 1" xmlns="http://www.w3.org/2000/svg" viewBox="0 0 276.49 196.67"><defs><style>.cls-1{fill:#1d2e2f;}.cls-1,.cls-2{fill-rule:evenodd;}.cls-2{fill:#ff560b;}.cls-3{fill:#fff;}</style></defs><title>anim_37</title><g id="feet"><path class="cls-1" d="M-509.73,2938.41c-4.54,2.23-.16,12.06,12.5,13.55s15.31-10.28,15.31-10.28-4.13-.7-14.43-1.91S-505.19,2936.17-509.73,2938.41Zm90.08-1.11c-2.45-6.35-.56-1.5-10.7.71a87,87,0,0,0-16.66,5.26s3.78,11.46,16.24,8.74S-417.83,2942-419.65,2937.3Z" transform="translate(602.1 -2755.76)"/></g><g id="body"><path class="cls-1" d="M-325.63,2851.34a6.82,6.82,0,0,0-7.32-6.27,6.81,6.81,0,0,0-3.39,1.21,14.58,14.58,0,0,0-1.78-3.41,6.76,6.76,0,0,0,3.55-6.44,6.82,6.82,0,0,0-7.32-6.27,6.78,6.78,0,0,0-6.31,6.59,14.81,14.81,0,0,0-3-.09c-0.36,0-.7.12-1.06,0.17a6.81,6.81,0,0,0-7.17-5.41,6.8,6.8,0,0,0-6.33,7.26,6.74,6.74,0,0,0,3,5.13,14.34,14.34,0,0,0-2,6.17c-8.64,1.74-16.46-6.24-19.88-12.94-0.56-2-1.17-4-1.82-6,0,0,0-.05,0-0.08a2.93,2.93,0,0,0-.71-2.11q-1.28-3.79-2.75-7.51a33.36,33.36,0,0,0,9.52-23.3c0-18.78-15.67-34-35-34a35.72,35.72,0,0,0-14.69,3.14l-0.59-.42c-10.22-6.9-21.58-11-33.73-11h0c-12.08,0-23.37,4-33.55,10.86a35.78,35.78,0,0,0-13.45-2.61c-19.33,0-35,15.22-35,34a33.28,33.28,0,0,0,8.14,21.79,153.4,153.4,0,0,0-6.69,20.28c-4,5.83-10.72,11.39-18.08,9.91a14.34,14.34,0,0,0-2-6.17,6.74,6.74,0,0,0,3-5.13,6.8,6.8,0,0,0-6.32-7.26,6.81,6.81,0,0,0-7.17,5.41c-0.35-.05-0.69-0.15-1.06-0.17a14.81,14.81,0,0,0-3,.09,6.79,6.79,0,0,0-6.31-6.59,6.82,6.82,0,0,0-7.32,6.27,6.76,6.76,0,0,0,3.55,6.44,14.58,14.58,0,0,0-1.78,3.41,6.8,6.8,0,0,0-3.39-1.21,6.82,6.82,0,0,0-7.32,6.27,6.8,6.8,0,0,0,6.32,7.26,6.83,6.83,0,0,0,4.79-1.51,14.5,14.5,0,0,0,1.55,2.6,6.69,6.69,0,0,0-1.83,4.1,6.8,6.8,0,0,0,6.32,7.26,6.81,6.81,0,0,0,7.16-5.39,14.89,14.89,0,0,0,4.06-.48,35.16,35.16,0,0,0,24.62,2.16,110.45,110.45,0,0,0,.42,17,92.28,92.28,0,0,0,4.29,21.43c9.52,28.3,44.75,41.29,80,40.43,35.25,0.86,70.48-12.13,80-40.43a92.29,92.29,0,0,0,4.29-21.43,110.72,110.72,0,0,0,.41-17.32,35,35,0,0,0,25.64-1.83,14.89,14.89,0,0,0,4.06.48,6.81,6.81,0,0,0,7.16,5.39,6.8,6.8,0,0,0,6.32-7.26,6.7,6.7,0,0,0-1.83-4.1,14.52,14.52,0,0,0,1.55-2.6,6.83,6.83,0,0,0,4.8,1.51A6.8,6.8,0,0,0-325.63,2851.34Z" transform="translate(602.1 -2755.76)"/></g><g id="tummy"><path class="cls-2" d="M-465.55,2830c-46.56,0-78.8,40.15-63.68,74.07,7.56,17,35.52,32.77,63.53,32.28s56.07-17.27,63.83-33.48C-386.35,2870.46-419,2830-465.55,2830Z" transform="translate(602.1 -2755.76)"/></g><g id="eye"><ellipse class="cls-3" cx="-407.35" cy="2795.01" rx="21" ry="25" transform="translate(-1004.69 -2517.98) rotate(-33.42)"/></g><g id="eye-2" data-name="eye"><ellipse class="cls-3" cx="-519.35" cy="2795.01" rx="25" ry="21" transform="translate(-1964.07 -1933.67) rotate(-56.58)"/></g><g id="eye-3" data-name="eye"><path class="cls-1" d="M-415.35,2788c-3.87,0-7,3.58-7,8s3.13,8,7,8,7-3.58,7-8S-411.49,2788-415.35,2788Zm-96,0c-3.87,0-7,3.58-7,8s3.13,8,7,8,7-3.58,7-8S-507.49,2788-511.35,2788Z" transform="translate(602.1 -2755.76)"/></g></svg>