<svg id="Layer_1" data-name="Layer 1" xmlns="http://www.w3.org/2000/svg" viewBox="0 0 169.74 196.67"><defs><style>.cls-1,.cls-5{fill:#1d2e2f;}.cls-2{fill:#a5724d;}.cls-2,.cls-3,.cls-4,.cls-5,.cls-6{fill-rule:evenodd;}.cls-3{fill:#c89169;}.cls-4{fill:#fff;}.cls-6{fill:#eed4c1;}</style></defs><title>anim_44</title><g id="feet"><path class="cls-1" d="M529.77,3297.41c-4.54,2.23-.16,12.06,12.5,13.55s15.31-10.28,15.31-10.28-4.13-.7-14.43-1.91S534.31,3295.17,529.77,3297.41Zm90.08-1.11c-2.45-6.35-.56-1.5-10.7.71a87,87,0,0,0-16.66,5.26s3.78,11.46,16.24,8.74S621.67,3301,619.85,3296.3Z" transform="translate(-490.28 -3114.76)"/></g><g id="body"><path class="cls-2" d="M609.5,3126.15c-10.38-7.15-22-11.38-34.35-11.38h0c-12.39,0-24,4.23-34.35,11.38-33.25,22.83-54.31,75.63-50,117.07a92.35,92.35,0,0,0,4.3,21.55c9.52,28.3,44.75,41.29,80,40.43,35.25,0.86,70.48-12.13,80-40.43a92.35,92.35,0,0,0,4.3-21.55C663.81,3201.77,642.74,3149,609.5,3126.15Z" transform="translate(-490.28 -3114.76)"/></g><g id="head"><path class="cls-3" d="M575.15,3127c-30.93,0-56,27-56,53.6s32.34,50.4,57.22,50.4,54.78-23.79,54.78-50.4S606.08,3127,575.15,3127Z" transform="translate(-490.28 -3114.76)"/></g><g id="eye"><path class="cls-4" d="M600.55,3161c-7,0-12.6,6.72-12.6,15s5.64,15,12.6,15,12.6-6.72,12.6-15S607.51,3161,600.55,3161Zm-52.8,0c-7,0-12.6,6.72-12.6,15s5.64,15,12.6,15,12.6-6.72,12.6-15S554.7,3161,547.75,3161Z" transform="translate(-490.28 -3114.76)"/></g><g id="eye-2" data-name="eye"><path class="cls-5" d="M606.91,3173.2c-1.14-4.27-5.1-6.92-8.83-5.92s-5.83,5.27-4.69,9.54,5.1,6.92,8.83,5.92S608.05,3177.47,606.91,3173.2Zm-56.69-5.92c-3.73-1-7.69,1.65-8.83,5.92s1,8.54,4.69,9.54,7.69-1.65,8.83-5.92S554,3168.29,550.22,3167.29Z" transform="translate(-490.28 -3114.76)"/></g><g id="beak"><path class="cls-6" d="M573.54,3203.52c-6.64,0-15.15,5.84-13.87,10.55,0,2.32,3.31,6,3,5.58l-0.3-.35,0.3,0.35c2.12,2.51,4.77,5.2,5.91,8.08h0c2.39,8.39-2.15,65.1,3.57,65.1h2c5.71,0,3.18-56.71,5.57-65.1h0c1.15-2.87,3.8-5.56,5.91-8.08l0.3-.35-0.3.35c-0.32.42,3-3.25,3-5.58C589.9,3209.35,580.18,3203.52,573.54,3203.52Z" transform="translate(-490.28 -3114.76)"/></g></svg>