<svg id="Layer_1" data-name="Layer 1" xmlns="http://www.w3.org/2000/svg" viewBox="0 0 277.6 220.37"><defs><style>.cls-1{fill:#c21508;}.cls-1,.cls-2,.cls-3{fill-rule:evenodd;}.cls-2{fill:#e0392c;}.cls-3{fill:#fff;}.cls-4{fill:#1d2e2f;}</style></defs><title>anim_31</title><g id="body"><path class="cls-1" d="M321.16,2070.45c2.44,33.11-7.12,52-7.12,52S302.66,2115,299,2101c-12.77,18.6,14.84,44.67,14.84,44.67a178.85,178.85,0,0,1-15.45,13.79c-6.76-19.43-17.43-37.57-30.86-50.74a24.61,24.61,0,0,0,.58-5.3,25.25,25.25,0,0,0-25.5-25,25.64,25.64,0,0,0-19.87,9.34l-1.13,0h0c-1.67,0-3.32.08-5,.24a25.63,25.63,0,0,0-20-9.55,25.25,25.25,0,0,0-25.5,25,24.51,24.51,0,0,0,1.5,8.47c-11.84,12.69-21.32,29.27-27.56,47a178.44,178.44,0,0,1-14.67-13.17S158,2119.64,145.27,2101c-3.63,14-15,21.42-15,21.42s-9.56-18.9-7.12-52c-74,36.48-26.28,84.79-4,85.3,1.57,2.84,10.46,11.16,21.42,18.41-3.41,14.32-4.64,28.83-3.22,42.17a92.28,92.28,0,0,0,4.29,21.43,45.33,45.33,0,0,0,4.76,9.93c-3.15,1.24-6.47,2.91-8.37,4.94-4.38,4.67-7.08,19.75-4.7,19.86s5.73-13.72,10.3-15.25c1.86-.62,5-1.64,8.13-2.62,0.59,0.63,1.18,1.26,1.8,1.86-3.15,2-6.64,4.84-7.92,8.36-2.55,7-1.73,20.91.6,20.4s2-14.74,6-17.4c1.89-1.26,5.34-3.46,8.45-5.44,0.89,0.63,1.81,1.24,2.74,1.83a20.54,20.54,0,0,0-6,7.73c-2.55,6.36.7,16.74,2.5,16.1s0.11-11.88,3-14.38c1.54-1.32,4.5-3.79,7-5.82,14.77,7.39,33.26,10.77,51.76,10.32,16.37,0.4,32.72-2.2,46.51-7.93,2.52,2.08,5.72,4.75,7.34,6.14,2.91,2.5,1.23,13.74,3,14.38s4.19-8.89,2.5-16.1a14.28,14.28,0,0,0-5.52-7.9c0.87-.47,1.73-0.95,2.58-1.45,3,1.93,6.29,4,8.11,5.23,4,2.66,3.67,16.89,6,17.4s2.93-13.82.6-20.4c-1.07-3-4-5.63-6.94-7.61,0.84-.68,1.65-1.39,2.44-2.11,2.55,0.81,5,1.59,6.52,2.11,4.57,1.53,7.92,15.36,10.3,15.25s-1.52-15.19-4.7-19.86c-1.11-1.63-3.44-3-6-4.16a45.83,45.83,0,0,0,7.24-13.43,92.27,92.27,0,0,0,4.29-21.43c1.4-13.16.22-27.47-3.09-41.6,11.35-7.38,20.68-16.07,22.29-19C347.45,2155.24,395.15,2106.94,321.16,2070.45Z" transform="translate(-83.35 -2070.45)"/></g><g id="belly"><path class="cls-2" d="M221.65,2162.45c-29,0-76.66-12.9-69.82,51.19a76,76,0,0,0,3.55,17.7c7.88,23.37,36.27,34.39,66.27,34.39s58.39-11,66.27-34.39a76,76,0,0,0,3.55-17.7C298,2152.05,250.65,2162.45,221.65,2162.45Z" transform="translate(-83.35 -2070.45)"/></g><g id="eye"><path class="cls-3" d="M261.39,2102.11c-0.75-9.41-9.76-16.66-20.11-16.2s-18.14,8.46-17.38,17.87,9.76,16.66,20.11,16.2S262.15,2111.52,261.39,2102.11Z" transform="translate(-83.35 -2070.45)"/></g><g id="eye-2" data-name="eye"><path class="cls-3" d="M216.39,2102.11c-0.75-9.41-9.76-16.66-20.11-16.2s-18.14,8.46-17.38,17.87,9.76,16.66,20.11,16.2S217.15,2111.52,216.39,2102.11Z" transform="translate(-83.35 -2070.45)"/></g><g id="eye-3" data-name="eye"><ellipse class="cls-4" cx="159.3" cy="31.56" rx="7" ry="8"/></g><g id="eye-4" data-name="eye"><ellipse class="cls-4" cx="115.3" cy="31.56" rx="7" ry="8"/></g></svg>