<svg id="Layer_1" data-name="Layer 1" xmlns="http://www.w3.org/2000/svg" viewBox="0 0 182.41 191.46"><defs><style>.cls-1{fill:#1d2e2f;}.cls-1,.cls-2,.cls-3,.cls-4,.cls-6{fill-rule:evenodd;}.cls-2{fill:#438e11;}.cls-3,.cls-5{fill:#bbab4b;}.cls-4{fill:#d8c869;}.cls-6{fill:#fff;}</style></defs><title>anim_69</title><g id="shape"><path class="cls-1" d="M1073.75,3230.89c-9.31-2-7.57-6.49-9.83-.65-1.67,4.34-1.23,11,10.22,13.51a13.47,13.47,0,0,0,7-.17c7.73-1.47,9.5-9.33,9.5-9.33s-2.65-.45-8.88-1.23C1079.54,3232.32,1076.83,3231.56,1073.75,3230.89Zm74.13-.65c-2.25-5.84-.52-1.38-9.83.65-3.08.67-5.79,1.43-8,2.14-6.24.78-8.88,1.23-8.88,1.23s1.77,7.86,9.5,9.33a13.47,13.47,0,0,0,7,.17C1149.11,3241.25,1149.56,3234.57,1147.88,3230.24Z" transform="translate(-1019.3 -3052.67)"/></g><g id="shape-2" data-name="shape"><path class="cls-1" d="M1117.77,3113.3c-2.07,0-3.75,2.06-3.75,4.59s1.68,4.59,3.75,4.59,3.75-2.06,3.75-4.59S1119.84,3113.3,1117.77,3113.3Zm-16.38,0c-2.07,0-3.75,2.06-3.75,4.59s1.68,4.59,3.75,4.59,3.75-2.06,3.75-4.59S1103.46,3113.3,1101.39,3113.3Z" transform="translate(-1019.3 -3052.67)"/></g><g id="shape-3" data-name="shape"><path class="cls-2" d="M1180.65,3129.57c-5.91-5.08-16.63,7.15-6.73,22.07s0.84,87.45,20.74,58.05S1186.56,3134.65,1180.65,3129.57Zm-140.33,0c-5.91,5.09-33.88,50.75-14,80.13s10.82-43.14,20.71-58.06S1046.22,3124.48,1040.32,3129.56Z" transform="translate(-1019.3 -3052.67)"/></g><g id="shape-4" data-name="shape"><path class="cls-3" d="M1110.5,3063.46c-53.74,0-90.95,85.89-73.49,137.8s129.07,47.77,147-1.84S1164.24,3063.46,1110.5,3063.46Z" transform="translate(-1019.3 -3052.67)"/></g><g id="shape-5" data-name="shape"><path class="cls-4" d="M1172.89,3120.7c-9,19.24-33.1,33-61.47,33-29.53,0-54.46-14.93-62.5-35.4-10.84,24.65-14.28,53.62-6.76,75.84,16.18,47.76,119.64,44,136.25-1.69C1185.87,3171.95,1182.92,3144.6,1172.89,3120.7Z" transform="translate(-1019.3 -3052.67)"/></g><g id="Elipsa_40" data-name="Elipsa 40"><ellipse class="cls-5" cx="90.28" cy="98.3" rx="2.76" ry="85.43"/></g><g id="Elipsa_40_kopiuj" data-name="Elipsa 40 kopiuj"><path class="cls-3" d="M1165.59,3100.85c-0.62,11-26.27,19.8-57.85,19.8-26.91,0-49.53-6.42-56-15.1,0,0.14,0,.27,0,0.41,0,11.16,25.91,20.21,57.88,20.21s57.88-9,57.88-20.21A8.5,8.5,0,0,0,1165.59,3100.85Z" transform="translate(-1019.3 -3052.67)"/></g><g id="Elipsa_41" data-name="Elipsa 41"><path class="cls-2" d="M1152.52,3091.23a47.84,47.84,0,0,0,.63-7.58c0-24.19-19.51-31-43.57-31s-43.57,6.79-43.57,31a47.84,47.84,0,0,0,.63,7.58c-7.05,5.59-11.26,12.59-11.26,20.19,0,18.29,24.27,33.11,54.2,33.11s54.2-14.83,54.2-33.11C1163.78,3103.82,1159.57,3096.82,1152.52,3091.23Z" transform="translate(-1019.3 -3052.67)"/></g><g id="Elipsa_41_kopiuj" data-name="Elipsa 41 kopiuj"><path class="cls-6" d="M1144.05,3074.2c-7-10.59-19.86-14.41-28.75-8.54a16.51,16.51,0,0,0-4.81,4.92,16.51,16.51,0,0,0-4.81-4.92c-8.89-5.87-21.76-2-28.75,8.54s-5.44,23.93,3.45,29.79,21.77,2,28.75-8.54c0.5-.75.94-1.53,1.35-2.31,0.41,0.78.85,1.55,1.35,2.31,7,10.59,19.86,14.41,28.75,8.54S1151,3084.78,1144.05,3074.2Z" transform="translate(-1019.3 -3052.67)"/></g><g id="Elipsa_40_kopiuj_2" data-name="Elipsa 40 kopiuj 2"><path class="cls-3" d="M1183.62,3168.42c-3.68,12.67-35,22.56-73.12,22.56s-69.44-9.89-73.12-22.56a8.93,8.93,0,0,0-.37,2.5c0,13.84,32.9,25.06,73.49,25.06s73.49-11.22,73.49-25.06A8.94,8.94,0,0,0,1183.62,3168.42Z" transform="translate(-1019.3 -3052.67)"/></g><g id="shape-6" data-name="shape"><path class="cls-1" d="M1128,3078.39c-3.55,0-6.43,3.29-6.43,7.35s2.88,7.35,6.43,7.35,6.43-3.29,6.43-7.35S1131.5,3078.39,1128,3078.39Zm-34.91,0c-3.55,0-6.43,3.29-6.43,7.35s2.88,7.35,6.43,7.35,6.43-3.29,6.43-7.35S1096.59,3078.39,1093,3078.39Z" transform="translate(-1019.3 -3052.67)"/></g><g id="shape-7" data-name="shape"><path class="cls-1" d="M1117.77,3113.3a3.68,3.68,0,1,0,3.75,3.67A3.71,3.71,0,0,0,1117.77,3113.3Zm-14.55,0A3.68,3.68,0,1,0,1107,3117,3.71,3.71,0,0,0,1103.22,3113.3Z" transform="translate(-1019.3 -3052.67)"/></g></svg>