<svg xmlns="http://www.w3.org/2000/svg" xmlns:xlink="http://www.w3.org/1999/xlink" viewBox="0 0 293.28 194.17"><defs><style>.cls-1{isolation:isolate;}.cls-2{fill:#ab1612;}.cls-3{fill:url(#radial-gradient);}.cls-17,.cls-30,.cls-4{fill:#fff;}.cls-4,.cls-43{opacity:0.4;}.cls-4{mix-blend-mode:screen;}.cls-5{fill:url(#radial-gradient-2);}.cls-10,.cls-11,.cls-13,.cls-15,.cls-19,.cls-25,.cls-26,.cls-27,.cls-28,.cls-29,.cls-42,.cls-6,.cls-70,.cls-72,.cls-73,.cls-75,.cls-77,.cls-78,.cls-80,.cls-81{opacity:0.5;}.cls-10,.cls-11,.cls-13,.cls-15,.cls-16,.cls-19,.cls-25,.cls-26,.cls-27,.cls-28,.cls-29,.cls-31,.cls-32,.cls-33,.cls-34,.cls-35,.cls-39,.cls-43,.cls-6,.cls-65,.cls-70,.cls-72,.cls-73,.cls-75,.cls-77,.cls-78,.cls-80,.cls-81,.cls-87,.cls-88{mix-blend-mode:multiply;}.cls-6{fill:url(#radial-gradient-3);}.cls-7{fill:url(#radial-gradient-4);}.cls-8{fill:url(#radial-gradient-5);}.cls-9{fill:url(#radial-gradient-6);}.cls-10{fill:url(#radial-gradient-7);}.cls-11{fill:url(#radial-gradient-8);}.cls-12{fill:url(#radial-gradient-9);}.cls-13{fill:url(#radial-gradient-10);}.cls-14{fill:url(#radial-gradient-11);}.cls-15{fill:url(#radial-gradient-12);}.cls-16,.cls-44{fill:#a8172f;}.cls-16,.cls-39,.cls-88{opacity:0.3;}.cls-18{fill:url(#linear-gradient);}.cls-19,.cls-39{fill:#b01a09;}.cls-20{fill:url(#linear-gradient-3);}.cls-21{fill:url(#linear-gradient-4);}.cls-22{fill:url(#linear-gradient-5);}.cls-23{fill:url(#linear-gradient-6);}.cls-24{fill:url(#linear-gradient-7);}.cls-25{fill:url(#linear-gradient-8);}.cls-26{fill:url(#linear-gradient-9);}.cls-27{fill:url(#linear-gradient-10);}.cls-28{fill:url(#linear-gradient-11);}.cls-29{fill:url(#linear-gradient-12);}.cls-30{opacity:0.7;mix-blend-mode:overlay;}.cls-31{fill:url(#linear-gradient-13);}.cls-32{fill:url(#linear-gradient-14);}.cls-33{fill:url(#linear-gradient-15);}.cls-34{fill:url(#linear-gradient-16);}.cls-35{fill:url(#linear-gradient-17);}.cls-36{fill:url(#linear-gradient-18);}.cls-37{fill:url(#linear-gradient-20);}.cls-38{fill:url(#linear-gradient-22);}.cls-40{fill:url(#linear-gradient-24);}.cls-41{fill:url(#linear-gradient-26);}.cls-42{fill:#fac46d;}.cls-45{fill:url(#radial-gradient-13);}.cls-46{fill:url(#radial-gradient-14);}.cls-47{fill:url(#radial-gradient-15);}.cls-48{fill:url(#radial-gradient-16);}.cls-49{fill:url(#radial-gradient-17);}.cls-50{fill:url(#radial-gradient-18);}.cls-51{fill:url(#radial-gradient-19);}.cls-52{fill:url(#radial-gradient-20);}.cls-53{fill:url(#radial-gradient-21);}.cls-54{fill:url(#radial-gradient-22);}.cls-55{fill:url(#radial-gradient-23);}.cls-56{fill:url(#radial-gradient-24);}.cls-57{fill:url(#radial-gradient-25);}.cls-58{fill:url(#radial-gradient-26);}.cls-59{fill:url(#radial-gradient-27);}.cls-60{fill:url(#radial-gradient-28);}.cls-61{fill:url(#radial-gradient-29);}.cls-62{fill:url(#radial-gradient-30);}.cls-63{fill:url(#linear-gradient-27);}.cls-64{fill:url(#radial-gradient-31);}.cls-65{fill:url(#radial-gradient-32);}.cls-66{fill:#d33521;}.cls-67{fill:url(#linear-gradient-28);}.cls-68{fill:url(#linear-gradient-29);}.cls-69{fill:url(#radial-gradient-33);}.cls-70{fill:url(#radial-gradient-34);}.cls-71{fill:url(#radial-gradient-35);}.cls-72{fill:url(#radial-gradient-36);}.cls-73{fill:url(#radial-gradient-37);}.cls-74{fill:url(#radial-gradient-38);}.cls-75{fill:url(#radial-gradient-39);}.cls-76{fill:url(#radial-gradient-40);}.cls-77{fill:url(#radial-gradient-41);}.cls-78{fill:url(#radial-gradient-42);}.cls-79{fill:url(#radial-gradient-43);}.cls-80{fill:url(#radial-gradient-44);}.cls-81{fill:url(#radial-gradient-45);}.cls-82{fill:url(#radial-gradient-46);}.cls-83{fill:#4293d0;}.cls-84{fill:#005a92;}.cls-85{fill:#1d1d1b;}.cls-86{fill:url(#radial-gradient-47);}.cls-87{fill:#c7c7c7;}</style><radialGradient id="radial-gradient" cx="2717.65" cy="398.91" r="75.22" gradientUnits="userSpaceOnUse"><stop offset="0" stop-color="#ff8000"/><stop offset="0.45" stop-color="#ff6a0b"/><stop offset="1" stop-color="#b4180b"/></radialGradient><radialGradient id="radial-gradient-2" cx="2717.45" cy="398.83" r="75.58" xlink:href="#radial-gradient"/><radialGradient id="radial-gradient-3" cx="2717.2" cy="398.78" r="75.6" xlink:href="#radial-gradient"/><radialGradient id="radial-gradient-4" cx="2694.51" cy="485.49" r="39.09" xlink:href="#radial-gradient"/><radialGradient id="radial-gradient-5" cx="2619.94" cy="501.74" r="94.33" xlink:href="#radial-gradient"/><radialGradient id="radial-gradient-6" cx="2620.1" cy="501.83" r="94.6" xlink:href="#radial-gradient"/><radialGradient id="radial-gradient-7" cx="2619.68" cy="501.96" r="94.46" xlink:href="#radial-gradient"/><radialGradient id="radial-gradient-8" cx="2620.04" cy="501.4" r="94.27" xlink:href="#radial-gradient"/><radialGradient id="radial-gradient-9" cx="2779.36" cy="424.46" r="34.72" xlink:href="#radial-gradient"/><radialGradient id="radial-gradient-10" cx="2778.71" cy="426.42" r="33.88" xlink:href="#radial-gradient"/><radialGradient id="radial-gradient-11" cx="2669.45" cy="579.48" r="86.66" xlink:href="#radial-gradient"/><radialGradient id="radial-gradient-12" cx="2666.44" cy="588.73" r="69.25" xlink:href="#radial-gradient"/><linearGradient id="linear-gradient" x1="2794.87" y1="1136.76" x2="2782.65" y2="1129.37" gradientTransform="translate(-51.68 82.57) rotate(-13.5)" xlink:href="#radial-gradient"/><linearGradient id="linear-gradient-3" x1="2759.11" y1="1163.48" x2="2762.51" y2="1138.9" gradientTransform="translate(-51.68 82.57) rotate(-13.5)" xlink:href="#radial-gradient"/><linearGradient id="linear-gradient-4" x1="2760.58" y1="1165.78" x2="2764.17" y2="1139.87" gradientTransform="translate(-51.68 82.57) rotate(-13.5)" xlink:href="#radial-gradient"/><linearGradient id="linear-gradient-5" x1="2765.06" y1="1167.8" x2="2768.93" y2="1139.87" gradientTransform="translate(-51.68 82.57) rotate(-13.5)" xlink:href="#radial-gradient"/><linearGradient id="linear-gradient-6" x1="2776.74" y1="1168.99" x2="2780.55" y2="1141.43" gradientTransform="translate(-51.68 82.57) rotate(-13.5)" xlink:href="#radial-gradient"/><linearGradient id="linear-gradient-7" x1="2790.59" y1="1171.32" x2="2794.44" y2="1143.45" gradientTransform="translate(-51.68 82.57) rotate(-13.5)" xlink:href="#radial-gradient"/><linearGradient id="linear-gradient-8" x1="2767.69" y1="1165.09" x2="2771.16" y2="1139.99" gradientTransform="translate(-51.68 82.57) rotate(-13.5)" xlink:href="#radial-gradient"/><linearGradient id="linear-gradient-9" x1="2770.23" y1="1164.23" x2="2773.5" y2="1140.55" gradientTransform="translate(-51.68 82.57) rotate(-13.5)" xlink:href="#radial-gradient"/><linearGradient id="linear-gradient-10" x1="2774.94" y1="1165.03" x2="2778.32" y2="1140.63" gradientTransform="translate(-51.68 82.57) rotate(-13.5)" xlink:href="#radial-gradient"/><linearGradient id="linear-gradient-11" x1="2780.42" y1="1168.5" x2="2784.12" y2="1141.75" gradientTransform="translate(-51.68 82.57) rotate(-13.5)" xlink:href="#radial-gradient"/><linearGradient id="linear-gradient-12" x1="2784.35" y1="1169.84" x2="2788.14" y2="1142.45" gradientTransform="translate(-51.68 82.57) rotate(-13.5)" xlink:href="#radial-gradient"/><linearGradient id="linear-gradient-13" x1="2765.24" y1="1109.85" x2="2745.03" y2="1159.43" gradientTransform="translate(-51.68 82.57) rotate(-13.5)" xlink:href="#radial-gradient"/><linearGradient id="linear-gradient-14" x1="2769.59" y1="1112.91" x2="2750.09" y2="1160.74" gradientTransform="translate(-51.68 82.57) rotate(-13.5)" xlink:href="#radial-gradient"/><linearGradient id="linear-gradient-15" x1="2780.06" y1="1115.55" x2="2759.67" y2="1165.57" gradientTransform="translate(-51.68 82.57) rotate(-13.5)" xlink:href="#radial-gradient"/><linearGradient id="linear-gradient-16" x1="2793.25" y1="1123.34" x2="2774.04" y2="1170.49" gradientTransform="translate(-51.68 82.57) rotate(-13.5)" xlink:href="#radial-gradient"/><linearGradient id="linear-gradient-17" x1="2805.33" y1="1128.94" x2="2786.77" y2="1174.47" gradientTransform="translate(-51.68 82.57) rotate(-13.5)" xlink:href="#radial-gradient"/><linearGradient id="linear-gradient-18" x1="2799.07" y1="1114.08" x2="2782.42" y2="1120.69" gradientTransform="translate(-51.68 82.57) rotate(-13.5)" xlink:href="#radial-gradient"/><linearGradient id="linear-gradient-20" x1="2801.48" y1="1103.71" x2="2776.85" y2="1111.06" gradientTransform="translate(-51.68 82.57) rotate(-13.5)" xlink:href="#radial-gradient"/><linearGradient id="linear-gradient-22" x1="2805.51" y1="1084.57" x2="2767.56" y2="1099.4" gradientTransform="translate(-51.68 82.57) rotate(-13.5)" xlink:href="#radial-gradient"/><linearGradient id="linear-gradient-24" x1="2797.11" y1="1066.79" x2="2761.71" y2="1085.98" gradientTransform="translate(-51.68 82.57) rotate(-13.5)" xlink:href="#radial-gradient"/><linearGradient id="linear-gradient-26" x1="2769.41" y1="1048.38" x2="2750.71" y2="1073.3" gradientTransform="translate(-51.68 82.57) rotate(-13.5)" xlink:href="#radial-gradient"/><radialGradient id="radial-gradient-13" cx="-2236.24" cy="40.59" r="33.53" gradientTransform="matrix(-0.98, -0.18, -0.18, 0.98, 626.12, 57.01)" xlink:href="#radial-gradient"/><radialGradient id="radial-gradient-14" cx="-2238.81" cy="42.34" r="39.34" gradientTransform="matrix(-0.98, -0.18, -0.18, 0.98, 626.12, 57.01)" xlink:href="#radial-gradient"/><radialGradient id="radial-gradient-15" cx="-2235.83" cy="41.29" r="34.16" gradientTransform="matrix(-0.98, -0.18, -0.18, 0.98, 626.12, 57.01)" xlink:href="#radial-gradient"/><radialGradient id="radial-gradient-16" cx="-2258.04" cy="240.18" r="38.53" gradientTransform="matrix(-1, -0.1, -0.1, 1, 604.39, 28.76)" xlink:href="#radial-gradient"/><radialGradient id="radial-gradient-17" cx="-2259.81" cy="240.44" r="41.38" gradientTransform="matrix(-1, -0.1, -0.1, 1, 604.39, 28.76)" xlink:href="#radial-gradient"/><radialGradient id="radial-gradient-18" cx="-2264.06" cy="240.36" r="45.98" gradientTransform="matrix(-1, -0.1, -0.1, 1, 604.39, 28.76)" xlink:href="#radial-gradient"/><radialGradient id="radial-gradient-19" cx="-2259.79" cy="258.45" r="38.62" gradientTransform="matrix(-1, -0.1, -0.1, 1, 604.39, 28.76)" xlink:href="#radial-gradient"/><radialGradient id="radial-gradient-20" cx="-2262.14" cy="260.31" r="44.36" gradientTransform="matrix(-1, -0.1, -0.1, 1, 604.39, 28.76)" xlink:href="#radial-gradient"/><radialGradient id="radial-gradient-21" cx="-2259.3" cy="259.28" r="39.53" gradientTransform="matrix(-1, -0.1, -0.1, 1, 604.39, 28.76)" xlink:href="#radial-gradient"/><radialGradient id="radial-gradient-22" cx="2817.71" cy="756.64" r="34.91" gradientTransform="translate(-25.05 26.52) rotate(-5.07)" xlink:href="#radial-gradient"/><radialGradient id="radial-gradient-23" cx="2835.4" cy="544.38" r="41.64" xlink:href="#radial-gradient"/><radialGradient id="radial-gradient-24" cx="2848.38" cy="546.42" r="24.84" xlink:href="#radial-gradient"/><radialGradient id="radial-gradient-25" cx="2831.62" cy="526.83" r="34.7" xlink:href="#radial-gradient"/><radialGradient id="radial-gradient-26" cx="2833.1" cy="514.86" r="41.35" xlink:href="#radial-gradient"/><radialGradient id="radial-gradient-27" cx="2822.46" cy="523.67" r="38.96" xlink:href="#radial-gradient"/><radialGradient id="radial-gradient-28" cx="2826.07" cy="540.06" r="39.65" xlink:href="#radial-gradient"/><radialGradient id="radial-gradient-29" cx="2814.23" cy="551.38" r="43.26" xlink:href="#radial-gradient"/><radialGradient id="radial-gradient-30" cx="2817.42" cy="558.38" r="32.4" xlink:href="#radial-gradient"/><linearGradient id="linear-gradient-27" x1="2703.7" y1="471.7" x2="2718.72" y2="510.15" gradientUnits="userSpaceOnUse"><stop offset="0" stop-color="#ff8000"/><stop offset="0.78" stop-color="#ff3a39"/></linearGradient><radialGradient id="radial-gradient-31" cx="2777.87" cy="410.28" r="142.23" xlink:href="#radial-gradient"/><radialGradient id="radial-gradient-32" cx="2777.79" cy="410.57" r="143.13" xlink:href="#radial-gradient"/><linearGradient id="linear-gradient-28" x1="2726.29" y1="474.53" x2="2757.8" y2="520.05" xlink:href="#linear-gradient-27"/><linearGradient id="linear-gradient-29" x1="2715.16" y1="509.82" x2="2747.13" y2="544.9" xlink:href="#linear-gradient-27"/><radialGradient id="radial-gradient-33" cx="2783.31" cy="520.92" r="57.78" xlink:href="#radial-gradient"/><radialGradient id="radial-gradient-34" cx="2798.65" cy="523.89" r="41.92" xlink:href="#radial-gradient"/><radialGradient id="radial-gradient-35" cx="2795.81" cy="530.34" r="62.02" xlink:href="#radial-gradient"/><radialGradient id="radial-gradient-36" cx="2769.24" cy="542.47" r="70.11" xlink:href="#radial-gradient"/><radialGradient id="radial-gradient-37" cx="2770.47" cy="542.43" r="69.08" xlink:href="#radial-gradient"/><radialGradient id="radial-gradient-38" cx="2789.79" cy="548.86" r="58.9" xlink:href="#radial-gradient"/><radialGradient id="radial-gradient-39" cx="2788.21" cy="548.61" r="60.88" xlink:href="#radial-gradient"/><radialGradient id="radial-gradient-40" cx="2718.02" cy="598.68" r="85.39" xlink:href="#radial-gradient"/><radialGradient id="radial-gradient-41" cx="2702.35" cy="531.59" r="69.55" xlink:href="#radial-gradient"/><radialGradient id="radial-gradient-42" cx="2702.12" cy="531.64" r="69.37" xlink:href="#radial-gradient"/><radialGradient id="radial-gradient-43" cx="2719.58" cy="496.59" r="159.68" xlink:href="#radial-gradient"/><radialGradient id="radial-gradient-44" cx="2720.76" cy="493.67" r="150.32" xlink:href="#radial-gradient"/><radialGradient id="radial-gradient-45" cx="2720.77" cy="492.61" r="150.89" xlink:href="#radial-gradient"/><radialGradient id="radial-gradient-46" cx="2783.74" cy="417.84" r="8.12" gradientTransform="translate(5.04 -4.38) rotate(1.2)" xlink:href="#radial-gradient"/><radialGradient id="radial-gradient-47" cx="2772.98" cy="462.1" r="12.17" xlink:href="#radial-gradient"/></defs><title>anim_102</title><g class="cls-1"><g id="Layer_1" data-name="Layer 1"><path class="cls-2" d="M2768.2,449.63c-7.84-9.48-28.23-6.37-39-4.9s-47.59,10.42-44.36,27.41c4.43,23.3,92.82-1.33,83.38-22.51C2768.19,449.62,2768.59,450.52,2768.2,449.63Z" transform="translate(-2649.07 -436.81)"/><path class="cls-3" d="M2763.5,460.65c-12,11.41-34.79,17.37-50.84,18.4-11.15.72-37.12-.89-21.65-16.9,12.77-13.23,33.14-16.86,50.72-17.31,9.75-.25,37.7.76,21.77,15.81h0Z" transform="translate(-2649.07 -436.81)"/><path class="cls-4" d="M2757,445.37c-15.48-1.28-33.46-1.45-47.34,6.41a58.68,58.68,0,0,0-15.5,13c-1.33,1.56-11.7,14.92-2.38,12.73,2.43-.57,9.56-13.77,12.17-16.23a55.74,55.74,0,0,1,15.09-10.19c13.65-6.21,28.7-6.71,43.32-4.81a25.64,25.64,0,0,0-5.36-.95C2752,444.95,2758.78,445.52,2757,445.37Z" transform="translate(-2649.07 -436.81)"/><path class="cls-5" d="M2708.36,451.76l4.6-2.44c-6,1.92-34,14.72-26.32,24.88,5.47-9,12.6-17.07,21.72-22.44h0Z" transform="translate(-2649.07 -436.81)"/><path class="cls-6" d="M2767.55,449.87c1.39-4-5.44.74-6.13,0.78-2.92.2-5.71,0-8.71,0-8.65,0-16.67,3.34-25.21,3.75s-17.86-3.33-26.35.06c-4.72,1.88-15.07,10-15.3,15.52-0.68,16.44,39.11,7.7,47.3,5.08s17.17-5.43,24.51-10c2.77-1.71,6.19-4,8.09-6.72,2.7-3.91.81-5.69,1.8-8.48h0Z" transform="translate(-2649.07 -436.81)"/><path class="cls-2" d="M2732.23,491.09c-1.55-7.4-3.47-15.13-7.45-21.64-2.72-4.44-3-9.32-6.53-12.87-9-9.15-22.52,1.39-29.65,6.85-25.21,19.3-39.12,42.28-31.9,75a59.89,59.89,0,0,0,23.34,35.8c5.58,4.09,8.59,6.74,10.7-.62,1.74-6.06-.15-15.2,1.14-21.84,2.52-12.9,8-34.31,21.54-39.85,5.19-2.12,11.88.5,16.48-3.2,5.5-4.42,3.6-11.62,2.33-17.67h0Z" transform="translate(-2649.07 -436.81)"/><path class="cls-7" d="M2708.65,454.64a14.59,14.59,0,0,1,9.8,3.67c1.73,1.51,5.62,8.35-.49,2.88,5.88,4.9-5.18-4-8.07-4.57-6.44-1.19-13.3,1.94-18.69,5.13,4.83-4.24,10.93-7.14,17.44-7.11h0Z" transform="translate(-2649.07 -436.81)"/><path class="cls-8" d="M2719.84,509.73c-13.6.25-20.53,14.5-24.54,25.64a96.32,96.32,0,0,0-4.69,19.72c-0.43,3.18.84,20-.69,21.46-5,4.64-19.85-13-22.93-17.58-7.24-10.75-10.66-24.21-11-37.08-0.81-26.64,18.45-56.31,45.21-63.42,15.88-4.22,23.12,10.18,27.34,23.28,4,12.47,8.56,27.64-8.64,28h0Z" transform="translate(-2649.07 -436.81)"/><path class="cls-4" d="M2687.75,465.1c-14.14,12.66-25.39,25.4-26.91,45.19-1.35,17.7,5,35.74,16,49.51-10.2-16.21-14-36.53-11-55.39,3.18-20.28,16-31.42,30.7-44.36a53.32,53.32,0,0,0-8.8,5C2680.75,471.37,2690.52,463.19,2687.75,465.1Z" transform="translate(-2649.07 -436.81)"/><path class="cls-9" d="M2682.11,566.92c-27.94-27.6-29.66-70.2-.6-97.09-22.73,18.49-30.94,45.43-21.94,73.57a57.82,57.82,0,0,0,17.07,26.26c0.88,0.78,10,9.65,12.23,8.36,4.3-2.44-5.29-9.36-6.77-11.1C2681.49,566.31,2684.51,569.74,2682.11,566.92Z" transform="translate(-2649.07 -436.81)"/><path class="cls-10" d="M2729.66,486c-5.17-20.6-17.21-36.17-38.71-23,8.86,1.69,6.21,23.37,5.57,29.72-1.47,14.57-10.49,20.65-17.59,32.41-4.32,7.14-8.25,21.37-16.73,7.82-6.82-10.89-5.12-27.09-1.09-38.55-7.89,17.52-6.61,39.71,1.58,56.93a56.83,56.83,0,0,0,15.66,19.82c7,5.79,11.48,10.58,11.47-1.35,0-17.43,3.14-39,15.28-52.55,7-7.82,12-5.1,20.43-7.79,10.67-3.4,6.32-14.76,4.14-23.42h0Z" transform="translate(-2649.07 -436.81)"/><path class="cls-11" d="M2729.66,486c-2.5-10-8.33-27.74-20.66-28.59,10.68,2.08,14.52,21.45,16.27,30.1,3.35,16.6-5.08,16.84-17.59,21.73-10.64,4.16-15.83,13.93-18.47,24.6-1.73,7,.76,38-5.58,41.35,10.13,7,5.87-8.92,6.47-15.7,1.05-11.84,4-23.94,9.73-34.41,6.14-11.12,11.3-12.8,22.75-15.43,13.05-3,10-12.1,7.09-23.65h0Z" transform="translate(-2649.07 -436.81)"/><path class="cls-2" d="M2801.2,450.38c-9.92-5.82-48.95-9.18-34.19,11.76,5.24,7.43,12.34,7,20.11,3.89,3.63-1.43,22.46-10.77,14.08-15.65h0Z" transform="translate(-2649.07 -436.81)"/><path class="cls-12" d="M2802.75,454.24c-0.39,5-13.57,10.65-17.84,12-8.23,2.65-15.94.79-18.72-8.3-6.08-19.92,37-8.78,36.56-3.73h0Z" transform="translate(-2649.07 -436.81)"/><path class="cls-4" d="M2768.33,448.9c11-1.33,24,1.82,33.69,7,6.86-8.81-33.66-7-33.69-7C2772.95,448.34,2768,448.94,2768.33,448.9Z" transform="translate(-2649.07 -436.81)"/><path class="cls-13" d="M2791.23,453.77c-3.1-.21-23,0.36-23.55-4.86-8.59,3.78,2.84,17.27,8,18.46,7.38,1.71,22.45-5.44,26.61-11.83-3.68-.53-7.3-1.52-11-1.77h0Z" transform="translate(-2649.07 -436.81)"/><path class="cls-2" d="M2728.79,508.11c-5.37,0-14.75,1-18.52,5.2,0.71-1.68-3.45,4.76-3.09,3.67-1.11,3.35.9,4,.69,6.49-0.54,6.39-.83,9.34.51,15.68,0.88,4.16,1.63,8.15,2.29,12.66,1.05,7.25-4.31,16.81-2.36,23.21,0.29,0.95,10.74-10.73,11.92-12.61a82.4,82.4,0,0,0,9.12-21.14c1.3-4.54,9.48-33.12-.55-33.17h0Z" transform="translate(-2649.07 -436.81)"/><path class="cls-14" d="M2731.8,523.32c-2,18.26-7.34,38.44-22.48,50.37-1.14-8,3.6-17.26,2.22-25.31-1.21-7-3.66-13.51-3.86-20.64-0.25-8.55.91-14.37,11.56-17,12.23-3,13.8,1.33,12.57,12.57h0Z" transform="translate(-2649.07 -436.81)"/><path class="cls-15" d="M2729.54,509.54c-2.49-.62-5.32.33-7.77,0.76,11.73,12.26,1.42,43.62-5,55.86,4.54-5.79,25.94-53.3,12.78-56.61h0Z" transform="translate(-2649.07 -436.81)"/><path class="cls-4" d="M2712.46,569.61l-0.95,2.21c6.57-6,7.74-22.94,6.54-30.87-0.79-5.19-2.71-7.69-2.5-12.82,0.23-5.62,1.29-12.21,3.79-17.4-7.1,1.29-4.6,8.14-5.62,13.6-0.47,2.5-2.25,4.59-2.23,7.09s2.41,3.55,2.88,5.9c1.93,9.73,1.7,22.45-1.91,32.27h0Z" transform="translate(-2649.07 -436.81)"/><path class="cls-16" d="M2693,508.67c-0.48-1.91-3.74.27-4,.45-2.83,1.83,5.84,6.82,4-.45h0Z" transform="translate(-2649.07 -436.81)"/><path class="cls-16" d="M2696.14,504.5c-0.85,0-1.87,1.74-.76,1.74C2696.23,506.24,2697.24,504.5,2696.14,504.5Z" transform="translate(-2649.07 -436.81)"/><path class="cls-16" d="M2693.92,499.81c-1.83.89,1.16-1,0,0C2693.66,499.93,2694.27,499.51,2693.92,499.81Z" transform="translate(-2649.07 -436.81)"/><path class="cls-16" d="M2701.34,505.71c-0.74,0-1.62,1.51-.66,1.51C2701.41,507.21,2702.29,505.71,2701.34,505.71Z" transform="translate(-2649.07 -436.81)"/><path class="cls-16" d="M2702.24,498.85c0-.11-0.23,1.23,0,0C2702.44,498.39,2702.19,499.16,2702.24,498.85Z" transform="translate(-2649.07 -436.81)"/><path class="cls-16" d="M2710.9,501.8c-0.48-1.81-2.33-.45-2.94-0.21-3.23,1.24,5.35,5.81,2.94.21h0Z" transform="translate(-2649.07 -436.81)"/><path class="cls-16" d="M2710.23,492.54c-0.57,0-1.24,1.16-.51,1.16C2710.29,493.7,2711,492.54,2710.23,492.54Z" transform="translate(-2649.07 -436.81)"/><path class="cls-16" d="M2707.73,484.41c-0.52.1-1.85,1.36-.87,1.76,1.49,0.61,1.74-1.94.87-1.76h0Z" transform="translate(-2649.07 -436.81)"/><path class="cls-16" d="M2709.47,469c-1.57-1.05-3.31,1.67-3.72,2.64-2.08,4.85,9.14-.55,3.72-2.64h0Z" transform="translate(-2649.07 -436.81)"/><path class="cls-16" d="M2711.72,465.39c-0.47-1.13-3.34,1.15-1.83,1.6a1.54,1.54,0,0,0,1.83-1.6h0Z" transform="translate(-2649.07 -436.81)"/><path class="cls-16" d="M2702.51,471.9c-0.42,0-.93.87-0.38,0.87S2703.06,471.9,2702.51,471.9Z" transform="translate(-2649.07 -436.81)"/><path class="cls-16" d="M2718.77,471.9c-0.58-1.38-3.4.7-2.37,2s2.72-1.11,2.37-2h0Z" transform="translate(-2649.07 -436.81)"/><path class="cls-16" d="M2717.78,503.72c-1,.32-1.43,2.25-0.21,1.67q1.68-1.13.21-1.67h0Z" transform="translate(-2649.07 -436.81)"/><path class="cls-16" d="M2685.52,521.73c-3.65-3-3,4.38-2.59,3.83,0.26-.37,5.82-1.19,2.59-3.83h0Z" transform="translate(-2649.07 -436.81)"/><path class="cls-16" d="M2688.3,525.84q-2.05.5-.84,1.92Q2689.51,527.27,2688.3,525.84Z" transform="translate(-2649.07 -436.81)"/><path class="cls-16" d="M2690.6,519.51c-0.71,0-1.55,1.45-.64,1.45C2690.68,521,2691.52,519.51,2690.6,519.51Z" transform="translate(-2649.07 -436.81)"/><path class="cls-16" d="M2682.44,536.31c-1.06-5.06-5,3-4.15,2.48,0.46-.26,5.21,2.56,4.15-2.48h0Z" transform="translate(-2649.07 -436.81)"/><path class="cls-16" d="M2686.07,529.67q-1.31.77-.7,1.8c1.56,1.29,2.4-2.54.7-1.8h0Z" transform="translate(-2649.07 -436.81)"/><path class="cls-16" d="M2725.23,496c-1.24-1.24-3.86,1.46-2.66,2.66s3.89-1.44,2.66-2.66h0Z" transform="translate(-2649.07 -436.81)"/><path class="cls-16" d="M2678.4,533.88h0Z" transform="translate(-2649.07 -436.81)"/><path class="cls-16" d="M2681.27,546.26c-0.21.36-1.32,0.45-1.27,1.27C2680.08,549.33,2683.06,546.35,2681.27,546.26Z" transform="translate(-2649.07 -436.81)"/><path class="cls-16" d="M2675.39,545.68c-0.8-3.09-3.5,3.36-3.31,3.15-0.77.9,4.61,1.89,3.31-3.15h0Z" transform="translate(-2649.07 -436.81)"/><path class="cls-16" d="M2721.16,522.2c-0.87,0-1.9,1.77-.77,1.77C2721.25,524,2722.27,522.2,2721.16,522.2Z" transform="translate(-2649.07 -436.81)"/><path class="cls-16" d="M2723.17,515.84c-0.81,0-1.77,1.66-.72,1.66C2723.26,517.5,2724.22,515.84,2723.17,515.84Z" transform="translate(-2649.07 -436.81)"/><path class="cls-16" d="M2723.65,511.14c-3.11,1.77,1.06-.57,0,0h0Z" transform="translate(-2649.07 -436.81)"/><path class="cls-16" d="M2744.77,451c-0.63-3.87-3.74-.19-4.92,0-1.72.21,5.71,5.16,4.92,0C2744.71,450.56,2744.89,451.76,2744.77,451Z" transform="translate(-2649.07 -436.81)"/><path class="cls-16" d="M2749.85,450.56a1.66,1.66,0,0,0-1.25,1.7c0.57,2.56,3.55-2.15,1.25-1.7h0Z" transform="translate(-2649.07 -436.81)"/><path class="cls-16" d="M2724.72,452.92c-1.76-1.66-2.82,1.42-3.38,2.18-2,2.63,7.74,1.93,3.38-2.18h0Z" transform="translate(-2649.07 -436.81)"/><path class="cls-17" d="M2661.3,518.65a64.69,64.69,0,0,1,9.56-36.89c-14.56,24.16-12.69,49.46,1.59,73.57-6-10.28-10.7-24.31-11.15-36.67h0Z" transform="translate(-2649.07 -436.81)"/><path class="cls-17" d="M2708.87,530.71c-0.64-3,2.26-5,3.06-7.63-0.63,2.1-3,3.54-3.36,5.86-0.64,3.7,2.16,4.87,2.51,8.33-0.28-2.9-1.65-3.9-2.21-6.55h0Z" transform="translate(-2649.07 -436.81)"/><path class="cls-17" d="M2712.19,545.14a6.61,6.61,0,0,1-1-6c-1.32,3.83-.42,3.7,1,6C2711,543.21,2712.26,545.27,2712.19,545.14Z" transform="translate(-2649.07 -436.81)"/><path class="cls-17" d="M2725.21,447c-6.23.91-11.09,4.28-16.78,5.79,5.66-1.32,11.16-5,16.78-5.79C2722.25,447.46,2725.43,447,2725.21,447Z" transform="translate(-2649.07 -436.81)"/><path class="cls-17" d="M2786.86,449.57c-5.38-1.17-10.77-.31-15.9-0.66,4.6,0.32,12-.17,15.9.66C2781.77,448.46,2787.17,449.63,2786.86,449.57Z" transform="translate(-2649.07 -436.81)"/><path class="cls-2" d="M2925,524.23c-7.09-4.6-21.09,6.21-13.23,13.88,8.22,8,20-9.52,13.23-13.88h0Z" transform="translate(-2649.07 -436.81)"/><path class="cls-18" d="M2914.63,538.48c-10.23-4.85-.44-17.41,7.73-14.08,7.7,3.14-.44,17.55-7.73,14.08h0Z" transform="translate(-2649.07 -436.81)"/><path class="cls-18" d="M2914.63,538.48c-10.23-4.85-.44-17.41,7.73-14.08,7.7,3.14-.44,17.55-7.73,14.08h0Z" transform="translate(-2649.07 -436.81)"/><path class="cls-4" d="M2921.55,524.44c-1.88.12-1.45,11.1-.92,13.47,3.6-2.54.9-9.56,0.92-13.47C2921.06,524.48,2921.55,524.75,2921.55,524.44Z" transform="translate(-2649.07 -436.81)"/><path class="cls-19" d="M2916,533.36c1.21-3.63.18-4.29-.19-7.77-7.34,2.82-7.1,14.23,1.82,13.46a6.52,6.52,0,0,1-1.63-5.69h0Z" transform="translate(-2649.07 -436.81)"/><path class="cls-19" d="M2914.95,526c-5.62,2.62-6.67,8.07-1,12.07-1.55-3.58-.91-8.77,1-12.07C2913.58,526.62,2912.91,529.48,2914.95,526Z" transform="translate(-2649.07 -436.81)"/><path class="cls-2" d="M2940.56,555.05c-4.4-3.84-16.93-15.18-15.5-21.67-1,4.31-11.78,8.06-13.24,3.3,1,3.11-14.59,4.28-16.68,4.78-3.22.76-6,0-7.52,3.36-0.85,1.88-.6,6.53,2.34,6.62-3.87,1.88-1.26,8,1.76,9.06,4.36,1.53,10.62-4.48,13.41-7.08-4.11,4.74-15.64,13-6.3,18.71,7.34,4.47,13-3.9,15.57-9.67-1.67,5.67-2.31,12.18,6.38,10,6.8-1.69,7.45-9.37,7.18-15.22,4.16,12.17,19.56,3.83,12.61-2.2C2938.27,553.05,2941.79,556.12,2940.56,555.05Z" transform="translate(-2649.07 -436.81)"/><path class="cls-20" d="M2890.73,542.71c3.69-.74,20.54-5.1,21.93-4-4.18,3.57-14.33,11.77-20.12,11.66-3.95-.08-7.94-6.39-1.81-7.61h0Z" transform="translate(-2649.07 -436.81)"/><path class="cls-21" d="M2895.91,558.88c-6.77,3.12-7.86-4-4.82-7.68,2.67-3.21,21.31-11.93,24.3-11.64-5,8.08-10.66,15.23-19.48,19.31h0Z" transform="translate(-2649.07 -436.81)"/><path class="cls-22" d="M2899.41,571.19c-10.27-4.59,4.17-14.81,7.48-18.65,4.7-5.44,6.41-11.3,12.73-13.36-0.13,8.16-6.55,38.12-20.21,32h0Z" transform="translate(-2649.07 -436.81)"/><path class="cls-23" d="M2925.92,566.85c-1.16,3.34-6,6.21-9.52,4.63-4.95-2.21-2.58-2.94-2.33-7.25s3.4-9,4.52-13.13c1.42-5.24.53-10.37,4.15-13.87,4.33,7.83,6.18,20.94,3.17,29.61h0Z" transform="translate(-2649.07 -436.81)"/><path class="cls-24" d="M2941.48,560.7c-4.13,8.29-12-1.4-13.66-5.94-1-2.8-4.47-17.81-3.49-19.55,2.42,4.76,19.09,21.59,17.15,25.49h0Z" transform="translate(-2649.07 -436.81)"/><path class="cls-25" d="M2906.31,540.5a3.08,3.08,0,0,0-1.45,3c1.09,1.08,7.57-4.68,7.79-4.86-1.42-1.08-4.9.34-6.34,1.83h0Z" transform="translate(-2649.07 -436.81)"/><path class="cls-26" d="M2907.33,543.79c-1.29,7.42,7.6-3.48,8.06-4.23-3.89-.38-5.55,1.12-8.06,4.23C2907,545.91,2907.47,543.62,2907.33,543.79Z" transform="translate(-2649.07 -436.81)"/><path class="cls-27" d="M2912.86,544.65c-1,5.07,6.65.9,6.75-5.46-2.94,1-6.21,1.21-6.75,5.46C2912.31,547.6,2912.87,544.64,2912.86,544.65Z" transform="translate(-2649.07 -436.81)"/><path class="cls-28" d="M2920.23,543.25c2.27,5.26,5-1.47,2.51-6-2.87,2.78-2.51,2-2.51,6C2920.44,543.72,2920.23,543.24,2920.23,543.25Z" transform="translate(-2649.07 -436.81)"/><path class="cls-29" d="M2927.06,542.92c2.92,0.36-2.48-7.21-2.73-7.7-1,1.73-.55,7.32,2.73,7.7h0Z" transform="translate(-2649.07 -436.81)"/><path class="cls-30" d="M2901.7,541.27c-5.13,1-6,1-4.08,6.8,5-2.47,4.19-1.14,4.08-6.8C2900.58,541.48,2901.73,542.75,2901.7,541.27Z" transform="translate(-2649.07 -436.81)"/><path class="cls-30" d="M2902.7,545.88q-2.46,1.29-5,2.43c2.39,6.91,4.3,7.41,9.2,2.95a13.53,13.53,0,0,1-4.21-5.38C2901.06,546.74,2903.59,548,2902.7,545.88Z" transform="translate(-2649.07 -436.81)"/><path class="cls-30" d="M2915,554.24c-7.26-.38-6-3.57-11.48,2,2.06,1.56,8,4.73,10.7,3.41,1.29-.62,3.81-5.28.78-5.43h0Z" transform="translate(-2649.07 -436.81)"/><path class="cls-30" d="M2917.67,554.13q-0.91,2.77-2,5.47c7.11-.58,11.67-1.83,11-9a20.37,20.37,0,0,1-9,3.51C2917.06,556,2920.86,553.76,2917.67,554.13Z" transform="translate(-2649.07 -436.81)"/><path class="cls-30" d="M2927.43,550.08a47,47,0,0,0,.54,5.35c5.17-3.21,6.93-4,3.31-8.82a26.06,26.06,0,0,1-3.85,3.47C2927.6,551.39,2928.83,549,2927.43,550.08Z" transform="translate(-2649.07 -436.81)"/><path class="cls-31" d="M2895,549.27c-5.66,1.26-5.12-4-2.41-6.87-9.05,1.27-2.79,13.45,2.41,6.87C2892.59,549.8,2895,549.27,2895,549.27Z" transform="translate(-2649.07 -436.81)"/><path class="cls-32" d="M2895.26,555.77q-3.4-2.77-.62-6.11c-2.28,1-5.57,1.72-5.85,4.56-0.92,9.29,10.67,3,13.81.62a7.6,7.6,0,0,1-7.34.93h0Z" transform="translate(-2649.07 -436.81)"/><path class="cls-33" d="M2904.62,566.26c-3.58-1.41-4.39-5.45-2.66-8.46-4.27,4.2-10.63,14,.88,14.23,5.6,0.12,8.92-6.17,10.85-10.53-1.84,2.44-5.47,6.18-9.07,4.76h0Z" transform="translate(-2649.07 -436.81)"/><path class="cls-34" d="M2920.87,565.24c-3.6.37-6.08-.83-5.57-4.84-6,15,11.27,13.76,11.79-.54-1,2.7-3.18,5.07-6.22,5.38h0Z" transform="translate(-2649.07 -436.81)"/><path class="cls-35" d="M2938.06,554c-1.85,4.42-7.24,5.93-9.89,1.54-1.69,10.73,22,8.84,9.89-1.54C2937.56,555.24,2940.2,555.88,2938.06,554Z" transform="translate(-2649.07 -436.81)"/><path class="cls-2" d="M2924.07,508.93c-1.67-.78-13.5,8.33-14.42,9.4-3.17,3.69-4.54,3.81-1.75,8.64,9.4,16.31,25.57-13.61,16.17-18h0Z" transform="translate(-2649.07 -436.81)"/><path class="cls-36" d="M2925,516.25c-0.17,5.65-2.1,11.86-8.28,13.12-4.36.88-9.32-1.57-9.38-6.44-0.05-4.22,7.9-7.62,11.18-9.61,4.51-2.73,6.74-5.2,6.49,2.93h0Z" transform="translate(-2649.07 -436.81)"/><path class="cls-36" d="M2925,516.25c-0.17,5.65-2.1,11.86-8.28,13.12-4.36.88-9.32-1.57-9.38-6.44-0.05-4.22,7.9-7.62,11.18-9.61,4.51-2.73,6.74-5.2,6.49,2.93h0Z" transform="translate(-2649.07 -436.81)"/><path class="cls-4" d="M2918.55,513.32c-1,.8,1.83,13,1.95,14.51,2.85-2.1,1.17-14.17.94-17.34q-1.48,1.38-2.89,2.83h0Z" transform="translate(-2649.07 -436.81)"/><path class="cls-19" d="M2915.51,518.87l0.51,2.43a25.5,25.5,0,0,0-.91-5.51q-1.45.83,0.4,3.08h0Z" transform="translate(-2649.07 -436.81)"/><path class="cls-19" d="M2915.51,522.58q-0.74-3.1-1.25-6.24c-3.52,2.29-7.54,3.34-6.71,8,0.73,4.1,5.75,6.23,9.47,5.18-0.46-2.86-2.28-3.54-1.51-6.94C2915.29,521.73,2915,524.88,2915.51,522.58Z" transform="translate(-2649.07 -436.81)"/><path class="cls-19" d="M2911.46,518.1c-5.16,3.11-5.62,10.57,2,11.69-2.7-3-3-8-2-11.69C2911.26,518.21,2910.39,521.88,2911.46,518.1Z" transform="translate(-2649.07 -436.81)"/><path class="cls-2" d="M2924.46,496.21c-2.11-7.34-9.35,5.88-11.41,7.71-3.59,3.2-9.77,7.08-14.63,5.37,0.62,0.29,3.73,9.66,5.8,11.27,3.79,2.94,6.74,3.09,11,1.26,8.88-3.85,11.71-17.22,9.29-25.62h0Z" transform="translate(-2649.07 -436.81)"/><path class="cls-37" d="M2924.17,503.72c0,6.35-2.89,15.59-9.72,17.8-8.18,2.65-12.39-5.34-15.49-11.27,8.62,2.67,14.1-6.59,19-11.15,5.15-4.82,6.29-5,6.23,4.62C2924.13,510.84,2924.18,501.68,2924.17,503.72Z" transform="translate(-2649.07 -436.81)"/><path class="cls-37" d="M2924.17,503.72c0,6.35-2.89,15.59-9.72,17.8-8.18,2.65-12.39-5.34-15.49-11.27,8.62,2.67,14.1-6.59,19-11.15,5.15-4.82,6.29-5,6.23,4.62C2924.13,510.84,2924.18,501.68,2924.17,503.72Z" transform="translate(-2649.07 -436.81)"/><path class="cls-4" d="M2917.86,499.22c-2.75,4.55.25,13,1.32,18.77,4.46-4.91,2.11-13.73-1.32-18.77C2917.22,500.29,2919.62,501.81,2917.86,499.22Z" transform="translate(-2649.07 -436.81)"/><path class="cls-19" d="M2912.47,509.32q-0.47-1.48-1-2.94c-2.81,2-9,5-12.52,3.87,2.87,5.48,8.19,15.24,16.15,10.92a12.37,12.37,0,0,1-2.64-11.85C2912.28,508.71,2911.21,513.27,2912.47,509.32Z" transform="translate(-2649.07 -436.81)"/><path class="cls-19" d="M2909.53,507.6c-2.44,1.38-7.82,3.5-10.57,2.65,2.59,5,5.42,11.11,11.78,11.86-3.84-3.45-5.42-10.66-1.21-14.5C2906.42,509.37,2905.33,511.44,2909.53,507.6Z" transform="translate(-2649.07 -436.81)"/><path class="cls-2" d="M2920.76,482.42c-4.34-13.07-8.83,1.37-13.2,6.66-3.36,4.06-11.2,11.77-16.49,12.55,0.69-.16.13,3,0.75,4.18,2.37,4.59,10.17,5.81,14.56,5.32,14.46-1.6,18.42-16.54,14.38-28.72h0Z" transform="translate(-2649.07 -436.81)"/><path class="cls-38" d="M2921.57,492.56c0.68,9.88-6.85,17.33-16.4,17.5-3.34.06-9.47-.7-11.46-3.94-2.93-4.76-.88-3.21,2.95-6.76,2.94-2.72,6.72-4.51,9.53-7.49s4.45-8.95,7.3-11.23c1.74-1.39,1.24-4,4.14-2.79s3.77,12.19,3.95,14.72C2921.88,497.12,2921.39,490,2921.57,492.56Z" transform="translate(-2649.07 -436.81)"/><path class="cls-38" d="M2921.57,492.56c0.68,9.88-6.85,17.33-16.4,17.5-3.34.06-9.47-.7-11.46-3.94-2.93-4.76-.88-3.21,2.95-6.76,2.94-2.72,6.72-4.51,9.53-7.49s4.45-8.95,7.3-11.23c1.74-1.39,1.24-4,4.14-2.79s3.77,12.19,3.95,14.72C2921.88,497.12,2921.39,490,2921.57,492.56Z" transform="translate(-2649.07 -436.81)"/><path class="cls-4" d="M2915.19,493a17.19,17.19,0,0,0-4.07-7.59c-3.17,5.72,3.62,13,6.3,19.54,3.64-4.11-1-7.29-2.23-11.95h0Z" transform="translate(-2649.07 -436.81)"/><path class="cls-19" d="M2907.84,496.48l-1.94-4.36c-3.46,3.43-15,7.93-13.54,12.79,1.86,6.25,14.81,5.56,19.21,3.94-3.67-2-6.4-8.61-3.73-12.37C2907.24,495,2905.34,500,2907.84,496.48Z" transform="translate(-2649.07 -436.81)"/><path class="cls-39" d="M2902,504.71a11.21,11.21,0,0,1-1.45-8c-3,2.31-9.57,3.63-8.23,8.22s11.46,5.55,14.93,5.05c-1.44-2.18-4-2.76-5.25-5.25h0Z" transform="translate(-2649.07 -436.81)"/><path class="cls-2" d="M2914,470.22c-4.23-8.24-9.2-14.91-15.19-5.4-3.3,5.25-5.47,11-9,16.19-2.78,4-8.38,9.18-8,14.54,1.13,15,45.23.06,32.2-25.32h0Z" transform="translate(-2649.07 -436.81)"/><path class="cls-40" d="M2915.43,483.4c-3.67,18.5-41.68,24.65-29.78,4.21,2.63-4.51,6.42-8.3,9.11-12.81,1.84-3.08,3.32-10.06,5.89-12,8.54-6.41,16.3,12.87,14.77,20.58h0Z" transform="translate(-2649.07 -436.81)"/><path class="cls-40" d="M2915.43,483.4c-3.67,18.5-41.68,24.65-29.78,4.21,2.63-4.51,6.42-8.3,9.11-12.81,1.84-3.08,3.32-10.06,5.89-12,8.54-6.41,16.3,12.87,14.77,20.58h0Z" transform="translate(-2649.07 -436.81)"/><path class="cls-4" d="M2911.57,491.7c4-5.09-8.75-19.36-13.47-23.37-3.16,6.63,8.82,17.1,13.47,23.37C2912.3,490.79,2910.8,490.65,2911.57,491.7Z" transform="translate(-2649.07 -436.81)"/><path class="cls-19" d="M2898.34,481.09c-1.46-1.62-3-3.19-4.45-4.86-3.12,4.94-15,16-10.1,22.44,4.74,6.3,18.4.69,23.11-2.6-6.06-1.44-9.49-9.29-8.56-15C2896.91,479.51,2897.39,486.95,2898.34,481.09Z" transform="translate(-2649.07 -436.81)"/><path class="cls-39" d="M2891.15,494.51c-2.54-2.86-3.08-7.18-2.63-10.82-9.32,12.26-4.32,21.33,11.56,15.81a17,17,0,0,1-8.93-5h0Z" transform="translate(-2649.07 -436.81)"/><path class="cls-2" d="M2902.18,455.47c-3.1-7.47-10.57-11.59-17.89-13.94-1-.32-19.74-3.23-17.86.11,3.37,6.2,4.11,15.91,4.26,23.27,0.12,6.24-.17,12.79-1.92,18.82-1.13,3.9-6.48,10.63-3.71,14.67,5.82,8.47,22-2.78,26.31-7.2,8.47-8.68,15.85-23.57,10.8-35.73h0Z" transform="translate(-2649.07 -436.81)"/><path class="cls-41" d="M2902.46,462.88c0.91,13.49-9.78,29.76-22.22,34.7-3.94,1.56-14.52,3.94-15.37-2.78-0.51-4,5.86-13.84,6.44-18.83a72.12,72.12,0,0,0-.88-23.25c-1.35-6.12-5.27-9.58,1.31-11.91,12.15-4.29,29.94,10.52,30.72,22.07C2902.86,468.75,2901.72,451.86,2902.46,462.88Z" transform="translate(-2649.07 -436.81)"/><path class="cls-4" d="M2900.47,464.08c-5.27-13.12-18.72-13.46-30.85-14.57,2.23,7.74,13.79,3.36,20.88,8,4.82,3.15,9.78,9.53,10.54,15.45a7.84,7.84,0,0,0-.57-8.87C2898.76,459.83,2901.06,465.56,2900.47,464.08Z" transform="translate(-2649.07 -436.81)"/><path class="cls-19" d="M2891.55,478.44c-3.51-3-4.53-7.52-7.83-10.34-3.15-2.68-8.58-4.09-12.18-6.54,0.38,6.87.45,14.29-1.38,21-1.42,5.21-7.86,11.95-2.47,15.78,10.48,7.45,26.1-10.34,30.07-17.76a8.23,8.23,0,0,1-6.2-2.13h0Z" transform="translate(-2649.07 -436.81)"/><path class="cls-39" d="M2881.79,483.84c-1.37-4.64,2.5-12.89,1.07-16.15-0.58-1.32-9.77-5.06-11.32-6.12,0.34,6.15.43,12.77-.85,18.83-0.8,3.82-6.13,10.91-5.82,14.41,1,11.1,20.46.42,24.08-2.89-3.64-1-6.16-4.67-7.16-8.07h0Z" transform="translate(-2649.07 -436.81)"/><path class="cls-42" d="M2897.36,551.48c-3.21,1-.63,1.35-1,2.71s5-4,1-2.71h0Z" transform="translate(-2649.07 -436.81)"/><path class="cls-42" d="M2894.3,551.91c-0.79-.31-1.86,1.2-0.87,1.58,0.81,0.3,1.52-1.33.87-1.58h0Z" transform="translate(-2649.07 -436.81)"/><path class="cls-42" d="M2893.91,554.88c-0.71,0-1.55,1.45-.64,1.45C2894,556.34,2894.82,554.88,2893.91,554.88Z" transform="translate(-2649.07 -436.81)"/><path class="cls-42" d="M2896.87,555.26c-0.48,0-1.06,1-.43,1S2897.49,555.26,2896.87,555.26Z" transform="translate(-2649.07 -436.81)"/><path class="cls-42" d="M2892.35,553.5c-0.5,0-1.09,1-.44,1S2893,553.5,2892.35,553.5Z" transform="translate(-2649.07 -436.81)"/><path class="cls-42" d="M2894.26,545.06c-1.32-.77-1.84,1.29-2.22,1.78-1.43,1.82,5.38-.26,2.22-1.78h0Z" transform="translate(-2649.07 -436.81)"/><path class="cls-42" d="M2891.12,544.86c-0.67,0-1.46,1.37-.6,1.37C2891.19,546.23,2892,544.86,2891.12,544.86Z" transform="translate(-2649.07 -436.81)"/><path class="cls-42" d="M2891.08,547c-2.54-.88,1.91.91,0,0h0Z" transform="translate(-2649.07 -436.81)"/><path class="cls-42" d="M2892.34,543.28c-1.86-.43,1.16.28,0,0h0Z" transform="translate(-2649.07 -436.81)"/><path class="cls-42" d="M2904.58,561.39c-1.44-3.63-3.67,2.51-3.54,2.42-0.28.2,5.19,1.72,3.54-2.42h0Z" transform="translate(-2649.07 -436.81)"/><path class="cls-42" d="M2901.61,565.39c-0.4-.41-1.83.64-1.24,1.23S2902,565.78,2901.61,565.39Z" transform="translate(-2649.07 -436.81)"/><path class="cls-42" d="M2898.64,564.68c-0.54,0-1.18,1.1-.48,1.1C2898.7,565.79,2899.34,564.68,2898.64,564.68Z" transform="translate(-2649.07 -436.81)"/><path class="cls-42" d="M2903.62,568.14c-0.58,0-1.27,1.2-.52,1.2C2903.68,569.33,2904.37,568.14,2903.62,568.14Z" transform="translate(-2649.07 -436.81)"/><path class="cls-42" d="M2909.85,561.9c-3.39-1.87-2.93,3.84-2.76,3.62-0.42.55,6.57-1.55,2.76-3.62h0Z" transform="translate(-2649.07 -436.81)"/><path class="cls-42" d="M2918.66,566.33q-2,.48-0.81,1.85Q2919.84,567.71,2918.66,566.33Z" transform="translate(-2649.07 -436.81)"/><path class="cls-42" d="M2915.9,565.89c-0.64,0-1.4,1.31-.57,1.31C2916,567.2,2916.72,565.89,2915.9,565.89Z" transform="translate(-2649.07 -436.81)"/><path class="cls-42" d="M2918.11,561.4c-1.69-1.71-2.46,1.84-2.73,2.07-0.48.41,5.06,0.24,2.73-2.07h0Z" transform="translate(-2649.07 -436.81)"/><path class="cls-42" d="M2922.56,563.88c-0.9-.06-2.74,1.46-1.72,2.47,1.19,1.17,3.39-2.36,1.72-2.47h0Z" transform="translate(-2649.07 -436.81)"/><path class="cls-42" d="M2922.83,561.09a1.23,1.23,0,0,0-1.8,1.1c0.08,1.21,2.88-.32,1.8-1.1h0Z" transform="translate(-2649.07 -436.81)"/><path class="cls-42" d="M2920.65,568.61q-1.84.45-.75,1.71Q2921.74,569.88,2920.65,568.61Z" transform="translate(-2649.07 -436.81)"/><path class="cls-42" d="M2936.41,557.48c-1.17-4-4.14,2.92-3.23,2.3,0.41-.28,4.24,1.29,3.23-2.3h0Z" transform="translate(-2649.07 -436.81)"/><path class="cls-42" d="M2939.07,557.94c-2.18-.92-2,2.47-1,2.27,0.29-.06,2.5-1.65,1-2.27h0Z" transform="translate(-2649.07 -436.81)"/><path class="cls-42" d="M2937.63,555.39c-0.64,0-1.4,1.31-.57,1.31C2937.69,556.7,2938.45,555.39,2937.63,555.39Z" transform="translate(-2649.07 -436.81)"/><path class="cls-42" d="M2932.45,555.41c-0.48,0-1.06,1-.43,1S2933.08,555.41,2932.45,555.41Z" transform="translate(-2649.07 -436.81)"/><path class="cls-42" d="M2933.69,560.65c-0.64,0-1.4,1.3-.57,1.3C2933.76,562,2934.52,560.65,2933.69,560.65Z" transform="translate(-2649.07 -436.81)"/><path class="cls-42" d="M2934.4,553.25c-0.6,0-1.31,1.22-.53,1.22C2934.46,554.47,2935.17,553.25,2934.4,553.25Z" transform="translate(-2649.07 -436.81)"/><g class="cls-43"><path class="cls-44" d="M2895,474.43c-0.47-2.12-4.13.4-2.86,1.66,1,1,3.14-.4,2.86-1.66h0Z" transform="translate(-2649.07 -436.81)"/><path class="cls-44" d="M2894.58,470c0.83,1.56-.87-1.69,0,0h0Z" transform="translate(-2649.07 -436.81)"/><path class="cls-44" d="M2894.26,478.46c-0.85,0-1.86,1.74-.76,1.74C2894.35,480.2,2895.36,478.46,2894.26,478.46Z" transform="translate(-2649.07 -436.81)"/><path class="cls-44" d="M2888.11,477.28a1.06,1.06,0,0,0-1.41-.42c-5.14,2.37,2.94,4,1.41.42h0Z" transform="translate(-2649.07 -436.81)"/><path class="cls-44" d="M2889.49,472c-0.62,0-1.37,1.28-.56,1.28C2889.56,473.27,2890.3,472,2889.49,472Z" transform="translate(-2649.07 -436.81)"/><path class="cls-44" d="M2890.32,479.35c-0.84,0-1.83,1.71-.75,1.71C2890.4,481.07,2891.4,479.35,2890.32,479.35Z" transform="translate(-2649.07 -436.81)"/><path class="cls-44" d="M2897,476.58c-0.55,0-1.21,1.13-.5,1.13C2897.1,477.71,2897.76,476.58,2897,476.58Z" transform="translate(-2649.07 -436.81)"/><path class="cls-44" d="M2891.33,483.53c-1.21.15-1.5,1-1.86,2-1.42,3.83,6.57-2.61,1.86-2h0Z" transform="translate(-2649.07 -436.81)"/><path class="cls-44" d="M2902.68,487.21c-1.11-3.93-3.94,3.16-3.08,2.57s3.87,0.28,3.08-2.57h0Z" transform="translate(-2649.07 -436.81)"/><path class="cls-44" d="M2898.17,490.19c-0.8,0-1.74,1.63-.71,1.63C2898.26,491.81,2899.2,490.19,2898.17,490.19Z" transform="translate(-2649.07 -436.81)"/><path class="cls-44" d="M2898.62,487.58c-0.5,0-1.09,1-.44,1S2899.27,487.58,2898.62,487.58Z" transform="translate(-2649.07 -436.81)"/><path class="cls-44" d="M2900.91,484.16c-0.14-1.08-2.27.85-.88,1.18q1.27-.07.88-1.18C2900.89,484,2901.19,484.29,2900.91,484.16Z" transform="translate(-2649.07 -436.81)"/><path class="cls-44" d="M2902.38,493c-5,2.25.4,2.77,0.53,3.48,0.09,0.48,4.2-5.62-.53-3.48h0Z" transform="translate(-2649.07 -436.81)"/><path class="cls-44" d="M2906.88,491.24c-0.64,1.32,1.32,1,1.48-.1q-0.67-1.24-1.48.1h0Z" transform="translate(-2649.07 -436.81)"/><path class="cls-44" d="M2907.3,500.31c-0.93-.27-4.22,1.93-2.73,3.35,2.06,2,4.7-2.77,2.73-3.35h0Z" transform="translate(-2649.07 -436.81)"/><path class="cls-44" d="M2909.07,498c-0.71,0-1.55,1.45-.63,1.45C2909.15,499.46,2910,498,2909.07,498Z" transform="translate(-2649.07 -436.81)"/><path class="cls-44" d="M2906.08,499.7c-0.15,1.17-.79-0.27,0,0h0Z" transform="translate(-2649.07 -436.81)"/><path class="cls-44" d="M2912.09,498c-0.61,0-1.34,1.25-.55,1.25C2912.16,499.21,2912.88,498,2912.09,498Z" transform="translate(-2649.07 -436.81)"/><path class="cls-44" d="M2914,503.49c-0.76-3.29-3.87,1.79-3.57,1.63-0.39.2,4.58,2.67,3.57-1.63C2913.88,503,2914.14,504.12,2914,503.49Z" transform="translate(-2649.07 -436.81)"/><path class="cls-44" d="M2909.21,506.05c-0.68,0-1.49,1.4-.61,1.4C2909.28,507.45,2910.09,506.05,2909.21,506.05Z" transform="translate(-2649.07 -436.81)"/><path class="cls-44" d="M2916.24,509.56c-2.1-1.46-2,1.93-2.42,2.36-0.58.63,5.23-.38,2.42-2.36h0Z" transform="translate(-2649.07 -436.81)"/><path class="cls-44" d="M2911.2,513.76c-2.58.91,1.15-.42,0,0h0Z" transform="translate(-2649.07 -436.81)"/><path class="cls-44" d="M2912,511.93c-0.5,0-1.09,1-.44,1S2912.68,511.93,2912,511.93Z" transform="translate(-2649.07 -436.81)"/><path class="cls-44" d="M2908.28,514.44a1.57,1.57,0,0,0-1.07,2q2,1,2.67-1.51a0.93,0.93,0,0,0-1.6-.45C2908,514.42,2908.89,514.11,2908.28,514.44Z" transform="translate(-2649.07 -436.81)"/><path class="cls-44" d="M2912.16,516.76c-0.77,0-1.68,1.57-.69,1.57C2912.24,518.33,2913.15,516.76,2912.16,516.76Z" transform="translate(-2649.07 -436.81)"/><path class="cls-44" d="M2916.52,516.2c-1.49-1.25-2.52,1.78-2.88,2.17-1.31,1.38,5.9.35,2.88-2.17h0Z" transform="translate(-2649.07 -436.81)"/><path class="cls-44" d="M2914.28,524.47c0-.09-2,1.7-0.36,1.47C2914.79,525.81,2914.93,524.28,2914.28,524.47Z" transform="translate(-2649.07 -436.81)"/><path class="cls-44" d="M2916.58,522.47c-2.11,1.51,1.46-1,0,0h0Z" transform="translate(-2649.07 -436.81)"/><path class="cls-44" d="M2917.19,525.87c-2.51-1.4-2.1,2.71-2.27,3s5.09-1.38,2.27-3h0Z" transform="translate(-2649.07 -436.81)"/><path class="cls-44" d="M2919.93,524.66c-0.35-.83-1.87.49-1.61,1.11,0.38,0.91,1.87-.48,1.61-1.11h0Z" transform="translate(-2649.07 -436.81)"/><path class="cls-44" d="M2920,531.89c-1.34-2.14-4.08,2.2-2.33,2.41,1.19,0.16,3.18-1.06,2.33-2.41h0Z" transform="translate(-2649.07 -436.81)"/><path class="cls-44" d="M2917.65,534.3h0Z" transform="translate(-2649.07 -436.81)"/><path class="cls-44" d="M2916.1,533.82c-0.77,0-1.68,1.57-.69,1.57C2916.18,535.39,2917.09,533.82,2916.1,533.82Z" transform="translate(-2649.07 -436.81)"/><path class="cls-44" d="M2916.59,532h0Z" transform="translate(-2649.07 -436.81)"/><path class="cls-44" d="M2919,536.24c-0.53-1.13-1.77.49-1.83,1-0.16,1.42,2.89,0,1.83-1C2919,536.14,2919.21,536.42,2919,536.24Z" transform="translate(-2649.07 -436.81)"/><path class="cls-44" d="M2882.78,483.32c-1.9-.21-2,1-2.93,2.08-2.77,3.19,8.52-1.72,2.93-2.08h0Z" transform="translate(-2649.07 -436.81)"/><path class="cls-44" d="M2883.53,479.91c-1-1-2.4,1.78-1.28,1.74,0.47,0,2-1,1.28-1.74h0Z" transform="translate(-2649.07 -436.81)"/><path class="cls-44" d="M2893.39,494.66c-1.54-.63-1.39.82-2.07,1.57-1.4,1.56,5.4-.25,2.07-1.57h0Z" transform="translate(-2649.07 -436.81)"/><path class="cls-44" d="M2894.69,491.77c-0.67,0-1.46,1.37-.6,1.37C2894.76,493.14,2895.55,491.77,2894.69,491.77Z" transform="translate(-2649.07 -436.81)"/><path class="cls-44" d="M2902.75,502.47c-0.91-1.87-4.71.42-3,2.21,1.08,1.15,3.67-.88,3-2.21h0Z" transform="translate(-2649.07 -436.81)"/><path class="cls-44" d="M2902.85,507.5c-0.5.1-1.23,1-.69,1.47,1.15,1,1.63-1.66.69-1.47h0Z" transform="translate(-2649.07 -436.81)"/><path class="cls-44" d="M2907.22,512.21c-0.79,0-1.74,1.63-.71,1.63C2907.3,513.84,2908.25,512.21,2907.22,512.21Z" transform="translate(-2649.07 -436.81)"/></g><path class="cls-17" d="M2886.15,453.24c-0.33-1.21-4.56-8.82-2.7-9.72-2.56,1.28,2.78,14.07,3,17.05a35.29,35.29,0,0,1-6.46,22.11c5.79-8.67,9.16-18.65,6.19-29.44h0Z" transform="translate(-2649.07 -436.81)"/><path class="cls-17" d="M2906.4,462.76c-3,2.35-2.47,11.48-3.63,14.65a39.89,39.89,0,0,1-10.5,15.11c4.58-4.15,8.85-8.74,11.14-14.86,1.2-3.2.53-13,3-14.9C2905.22,463.69,2906.47,462.71,2906.4,462.76Z" transform="translate(-2649.07 -436.81)"/><path class="cls-17" d="M2889.68,494.21c-2.95,1.5-.2.1,0,0h0Z" transform="translate(-2649.07 -436.81)"/><path class="cls-17" d="M2917.86,481.5c0.51,7.84-9.49,17.9-16.35,20.21,8-2.71,17.13-11,16.35-20.21C2917.85,481.41,2918.62,490.59,2917.86,481.5Z" transform="translate(-2649.07 -436.81)"/><path class="cls-17" d="M2897.67,502.19c-2.24,1-.17.08,0,0h0Z" transform="translate(-2649.07 -436.81)"/><path class="cls-17" d="M2922.87,498.6c-1.18,7.28-9.16,13.4-16.26,13.4,8.52-.35,14.76-4.77,16.26-13.4C2922.37,501.66,2922.88,498.53,2922.87,498.6Z" transform="translate(-2649.07 -436.81)"/><path class="cls-17" d="M2904.55,512.47c-0.53.74-.18,0.29,0,0C2904.45,512.61,2904.56,512.45,2904.55,512.47Z" transform="translate(-2649.07 -436.81)"/><path class="cls-17" d="M2924.4,513.13c-1.48,3.86-6.11,9.16-10.09,10.4,5.63-1.82,8.18-5.48,10.09-10.4C2922.47,518.14,2924.42,513.07,2924.4,513.13Z" transform="translate(-2649.07 -436.81)"/><path class="cls-17" d="M2924.17,526.69c-1,2.73-6.05,6.56-8.84,6.17,4.46,0.66,7.64-2.92,8.84-6.17C2922.93,530.12,2924.2,526.61,2924.17,526.69Z" transform="translate(-2649.07 -436.81)"/><path class="cls-17" d="M2908,539.81c-5.46,1.42-19.53-.35-20,7.3,0.44-6.31,15.14-6.11,20-7.3C2902.72,541.17,2908,539.79,2908,539.81Z" transform="translate(-2649.07 -436.81)"/><path class="cls-17" d="M2910.34,541.71c-3.53,2.32-22.54,9.18-20.87,14.66-1.44-4.74,17.83-12.65,20.87-14.66h0Z" transform="translate(-2649.07 -436.81)"/><path class="cls-17" d="M2913.69,544.08c-3,4.8-21.28,19.94-16.32,25.4-4.14-4.69,13.75-21.38,16.32-25.4C2912.11,546.63,2913.71,544,2913.69,544.08Z" transform="translate(-2649.07 -436.81)"/><path class="cls-17" d="M2914.23,567c0.79-5.12,3.32-10.62,5-15.49-1.64,4.66-9.35,17.36-2.2,19.85a3.63,3.63,0,0,1-2.8-4.37h0Z" transform="translate(-2649.07 -436.81)"/><path class="cls-17" d="M2935.72,562c-4.48-.71-6.32-6.12-7.29-9.83,1.34,4.65,2.34,9.1,7.29,9.83C2931.43,561.37,2935.9,562.07,2935.72,562Z" transform="translate(-2649.07 -436.81)"/><path class="cls-2" d="M2790.52,509c-0.71,1.73,9.06,11.26,10.12,11.18,2.58-.2-7.49-13.1-7.42-12.48-0.4-3.89,7.19-15.6,8.69-19.57,2.78-7.37,5.43-9.81,11.55-14.4,2.44-1.83,6.6-3.38,7.16-6.91,1.76-11.09-13.89,5.79-15.7,8.12-5.9,7.58-16.32,23.6-14.4,34.07C2789.8,510.77,2790.11,506.82,2790.52,509Z" transform="translate(-2649.07 -436.81)"/><path class="cls-45" d="M2804.82,479.42c-5.37,1.16,15.95-22.82,15.6-13.53-0.25,6.69-14.17,8.69-15.6,13.53C2803.85,479.63,2804.85,479.32,2804.82,479.42Z" transform="translate(-2649.07 -436.81)"/><path class="cls-46" d="M2792.7,507.42c0.32,0.11-7,4.83-1.64,1.8,0-10.14,6.22-21.68,11.63-30a1.66,1.66,0,0,0,1.9.89c-3.27,9-7,19-11.88,27.3C2792.69,507.41,2793.36,506.31,2792.7,507.42Z" transform="translate(-2649.07 -436.81)"/><path class="cls-47" d="M2791.22,509.86l1.84-1.85c1.22,1.13,7.12,11.39,6.68,11.27-1.54-.39-8-8.1-8.52-9.43C2792,509.47,2791.78,511.33,2791.22,509.86Z" transform="translate(-2649.07 -436.81)"/><path class="cls-2" d="M2807,483.58c0.34,7.32-1.55,15,1.73,21.64,0.79,1.61,8.07,13,10.94,12.8,3.65-.28-7.91-19.5-8.24-21.38-1.18-6.72-.26-19.63,2.75-24.72,1.14-1.94,17.39-17.54,5-12.53-9.45,3.82-12.6,15.7-12.19,24.19C2807.21,487.14,2806.89,480.37,2807,483.58Z" transform="translate(-2649.07 -436.81)"/><path class="cls-48" d="M2811.8,473.37s-5.47,2.17-2.8,1.59c-2.81-2.07,8.72-14.27,10.76-14.94,9.4-3.08-4.92,10.82-8,13.35C2811.7,473.23,2812.33,472.93,2811.8,473.37Z" transform="translate(-2649.07 -436.81)"/><path class="cls-49" d="M2808.63,504.14c2.45,0.58,2.5-4,2.64-5.38,1.3,1.75,11.47,16,8.14,18.52-0.59.45-10-11.6-10.77-13.14C2808.74,504.17,2810.28,507.3,2808.63,504.14Z" transform="translate(-2649.07 -436.81)"/><path class="cls-50" d="M2807.87,475.31a4.37,4.37,0,0,0,3.7-1.27c0.23,4,2.73,25.91-2.1,29.27-3.19-.18-1.64-26-1.6-28C2808.59,475.81,2807.76,480.4,2807.87,475.31Z" transform="translate(-2649.07 -436.81)"/><path class="cls-2" d="M2798.73,507.68c-0.51,1.64,11.1,12.13,12.8,11.85s-9.32-15.28-9.28-15c-0.62-4.6,6-16.92,7.47-22.08,1.94-7,3.44-10.51,8.82-15.26,3.15-2.78,8.89-5.48,10-9.81,3.95-15.06-15.15,7-17.57,10.78-5.94,9.26-15.41,28.12-12.27,39.51C2798.08,509.75,2798,505.17,2798.73,507.68Z" transform="translate(-2649.07 -436.81)"/><path class="cls-51" d="M2812.18,472.08c-5,1.56,14.95-28,16.59-17.14,1.09,7.2-15.42,11.9-16.59,17.14C2811.09,472.43,2812.2,472,2812.18,472.08Z" transform="translate(-2649.07 -436.81)"/><path class="cls-52" d="M2801.08,505.59c0.28,0.16-6.8,5.76-1.71,2.24-2.08-10.8,5.34-26.39,10.34-35.74a1.92,1.92,0,0,0,2.28.82c-2.86,10.81-6.08,22.53-10.9,32.68C2801.06,505.58,2801.72,504.24,2801.08,505.59Z" transform="translate(-2649.07 -436.81)"/><path class="cls-53" d="M2799.61,508.56l1.94-2.32c1.53,1.18,9.36,12.4,8.85,12.31-1.82-.29-10.06-8.52-10.79-10C2800.52,508,2800.42,510.19,2799.61,508.56Z" transform="translate(-2649.07 -436.81)"/><path class="cls-17" d="M2793.17,508.29c2.19,2,4.47,6.17,6.05,8.92-1.68-2.9-2.89-6.29-6.05-8.92h0Z" transform="translate(-2649.07 -436.81)"/><path class="cls-17" d="M2806.1,510.56a11.76,11.76,0,0,0-4.35-3.72c2.74,1.06,5.91,6.34,7.56,8.79a47,47,0,0,0-3.21-5.07h0Z" transform="translate(-2649.07 -436.81)"/><path class="cls-2" d="M2874.75,529.22c-2.84-11.93-5.74-21.91-12.83-31.9-2.73-3.84-17.56-16.58-11.7-3.67,1.16,2.56,6,5.3,8,7.1,5.47,4.78,6.17,8.7,8.17,15.75,1.05,3.72,6.8,14.58,6.15,17.79,0,0.18-11.64,11.23-8.58,11.72,6.81,1.18,11.85-12.22,10.76-16.8h0Z" transform="translate(-2649.07 -436.81)"/><path class="cls-54" d="M2863.66,504.72c-0.74-3.75-17-9.93-14-15.59,2.32-4.39,8.91,5,10.53,7.08,1.08,1.38,5.67,6.55,5.16,7.76-0.18.43-1.27,2.72-1.67,0.75h0Z" transform="translate(-2649.07 -436.81)"/><path class="cls-55" d="M2871.83,530.52a222.75,222.75,0,0,1-7.94-24.8,1.65,1.65,0,0,0,2-.7c4.06,7.76,11,22,8.71,31-1.51-1.06-2.22-4.11-2.74-5.46h0Z" transform="translate(-2649.07 -436.81)"/><path class="cls-56" d="M2870.52,539.86c-1.54,1.22-3.45,5-5.54,5.32-1.14.18,7-10,7.72-10.59,1.64,3.56,1.2,2.59-2.18,5.27h0Z" transform="translate(-2649.07 -436.81)"/><path class="cls-2" d="M2857.68,507.45c-0.19-3.39-9.3-17.12-12.74-17.27-8.78-.37,6.44,14,7.12,15.83,1.52,4,.44,18.74-0.9,23.58-0.43,1.54-13.71,19.89-10.24,20.49s12.71-11.84,13.74-14.19c3.17-7.19,3.41-20.81,3-28.45C2857.67,507.21,2857.85,510.67,2857.68,507.45Z" transform="translate(-2649.07 -436.81)"/><path class="cls-57" d="M2851.7,504.95c-2.91-3.11-14.39-19-4.29-11.5,1.58,1.17,11.35,13,8.29,14.81-1.32-.42-3-2.29-4-3.31h0Z" transform="translate(-2649.07 -436.81)"/><path class="cls-58" d="M2845.89,545.25a6.57,6.57,0,0,1-4.59,4.13c-3.08-2.85,8.41-16,9.87-17.66,0,1.31-.37,6,2.11,5.6-2,3.07-5.17,5-7.39,7.92h0Z" transform="translate(-2649.07 -436.81)"/><path class="cls-59" d="M2855.28,523.87c-0.16,2.13.91,12.7-2.76,12.57-4.58-3.89-.11-24.95.71-29.34,2.85,2.4,2.6.3,3.32,4.15,0.65,3.44-1,9.27-1.27,12.63h0Z" transform="translate(-2649.07 -436.81)"/><path class="cls-2" d="M2856.25,540.8c-1.9-13-3.9-23.9-10.13-35.42-2-3.77-5.62-13-10.19-14.32-5.11-1.43-6.39.67-4.3,6.25,1.37,3.66,7.33,7.5,9.8,10.54,4.46,5.5,5,9.11,6.37,16.47,0.91,4.83,6,16.58,5,20.72,0.2-.85-12.43,13.59-10.67,14,2.62,0.7,8.14-5,9.44-6.38,4.07-4.18,5.7-4.8,4.67-11.87h0Z" transform="translate(-2649.07 -436.81)"/><path class="cls-60" d="M2846,511.43c-0.51-5.2-16.59-11.26-14.83-18.31,2.56-10.23,18.47,18.32,16.42,18.89q-1.61.51-1.6-.58C2845.95,511.24,2846,511.54,2846,511.43Z" transform="translate(-2649.07 -436.81)"/><path class="cls-61" d="M2852.75,542a257.76,257.76,0,0,1-6.62-29.39,1.92,1.92,0,0,0,2.34-.6c4,9.63,10.07,26.17,6.88,36.56-1.64-1.37-2.14-5-2.6-6.57h0Z" transform="translate(-2649.07 -436.81)"/><path class="cls-62" d="M2850.28,552.62c-1.9,1.25-4.49,5.41-6.93,5.57-1.34.09,9.07-10.83,10-11.41,1.53,4.28,1.11,3.11-3.05,5.84h0Z" transform="translate(-2649.07 -436.81)"/><path class="cls-17" d="M2845.34,509.2a50.18,50.18,0,0,0-4.63-5.14c-0.75-.67,5.63,6.36,4.63,5.14C2843.89,507.44,2845.49,509.37,2845.34,509.2Z" transform="translate(-2649.07 -436.81)"/><path class="cls-17" d="M2853.74,505.47c-0.44-.6-3-2.93-3.27-3.47,0.69,1.56,2.72,2.72,3.27,3.47C2852.81,504.18,2853.83,505.59,2853.74,505.47Z" transform="translate(-2649.07 -436.81)"/><path class="cls-17" d="M2862.36,502.69l-3-3.45c-0.24-.26,3.41,4,3,3.45C2861.41,501.51,2862.46,502.81,2862.36,502.69Z" transform="translate(-2649.07 -436.81)"/><path class="cls-17" d="M2868.67,519.84c-1.58-4.27-1.94-8.85-3.44-13.14,2.78,7.62,5.13,17.61,7.38,25.67-1.09-4-2.39-8.33-3.94-12.52h0Z" transform="translate(-2649.07 -436.81)"/><path class="cls-17" d="M2871.56,536.72a12.38,12.38,0,0,0-5.11,5.75,57.57,57.57,0,0,1,5.11-5.75C2869.39,537.82,2871.66,536.68,2871.56,536.72Z" transform="translate(-2649.07 -436.81)"/><path class="cls-17" d="M2850.83,530a98.74,98.74,0,0,1-2.81-12.37,117.35,117.35,0,0,0,5.92,25.35c-1.35-3.59-2-8.92-3.1-13h0Z" transform="translate(-2649.07 -436.81)"/><path class="cls-17" d="M2854.42,509.08l-1.09,4.56a42.61,42.61,0,0,0,1.09-4.56C2853.81,510.54,2854.46,509,2854.42,509.08Z" transform="translate(-2649.07 -436.81)"/><path class="cls-2" d="M2755.94,469.32c-0.95-2.15-43.25,7.92-48.54,8.2a173.87,173.87,0,0,1-32.06-1.08c-6.6-.88-21.71-2.53-26.27-7,13.57,13.53,41.62,14,59.28,13.44,9.18-.3,47.22-1,47.59-13.52C2755.81,469,2755.92,470.06,2755.94,469.32Z" transform="translate(-2649.07 -436.81)"/><path class="cls-63" d="M2755.38,471.17c-1.55,5.26-15.87,7-20,8-10.36,2.45-21.06,3.08-31.69,3.16-16.33.12-39.77-1.07-53-12.08,18.44,8.76,41.13,9.14,61.09,7.6,9.64-.75,19.69-2,29-4.89,1.06-.33,16.18-7.12,14.59-1.75h0Z" transform="translate(-2649.07 -436.81)"/><path class="cls-19" d="M2754,468.86c-3.59-1.51-12.48,3.78-16.26,4.89-8.32,2.46-16.71,4.93-25.33,6.11a117.48,117.48,0,0,1-49.7-3.66c16.79,6.12,35.34,6.63,53,5.56,3.81-.23,45.13-6.64,38.31-12.9C2753.3,468.57,2754.65,469.47,2754,468.86Z" transform="translate(-2649.07 -436.81)"/><path class="cls-2" d="M2881.47,447.61c-9.6-17.06-38.79-9.58-53.83-6.5-17.1,3.5-34.91,7.72-50.94,14.55-15.5,6.6-29.34,16.16-44.63,23-4.39,2-32.42,15.07-35.76,13,6.15,3.87,20.09-2.74,26.36-4.31a320.2,320.2,0,0,0,31.17-9.66c-1.34,2.32,7,3.25,8.79,5.32-14.46,7.18,21.72,12.21,26.15,13.94,16.25,6.36,28.77,10.25,46.61,7.56,24.58-3.71,63.4-26.13,46.08-56.89h0Z" transform="translate(-2649.07 -436.81)"/><path class="cls-64" d="M2867.39,491.92c-20.11,15.21-51.28,15.1-73.34,5.85a76.38,76.38,0,0,0-17.52-5.26c-3.9-.64-12.43-0.42-15.26-3.84-3.39-4.09.66-4.43,5.4-6.54,5-2.22,10.8-5,16-6.24a127.17,127.17,0,0,0-12.3,3.85,42.39,42.39,0,0,0-4.8,2q-2.81,2.64-3.73-1.07c-1.5-.25-8.18-4-7-4.12-8.92.93-18.88,6.48-27.58,8.8-7,1.86-21.81,8.58-28.64,6.17,21.08-4.88,39.46-15.07,58.28-25.26,17.57-9.52,36.13-15.58,55.5-20.34,16.89-4.15,47.59-14.67,63.24-2.45,16.65,13,5.32,38.24-8.25,48.49h0Z" transform="translate(-2649.07 -436.81)"/><path class="cls-19" d="M2882.95,467c-5.3-4.27-14.87,7.84-19.08,10.79-7,4.92-15.28,9.86-24,10.45-5.38.36-10.65-2.13-16-1.44-4.82.62-7.09,3.53-11.12,5.67-10.64,5.63-16.78-.67-27.41-3.32-3.7-.92-18.63,0-14.78-6.38,2.59-4.27,19.93-2.7,16.49-11.61-3.2-8.27-11.46,4.09-15.18,5.31-5.15,1.68-10.74-1.49-16.67.23,0.08,0.16,1-.35,1,0.26a1,1,0,0,1-1.2.58c-0.44.84,7.27,4.15,7.56,4.19,4.7,0.69,14.33-4.25,20.14-5.79-7.2,1.73-32.83,8.93-16.7,14.83,6.81,2.49,14.56,2,21.55,4.38,8.81,2.94,16.39,7.6,25.79,8.73,14.34,1.73,31.81-.71,45-6.69A44.62,44.62,0,0,0,2875,484.46c1.26-1.56,10.71-15.33,7.94-17.49C2881.84,466.07,2883,467,2882.95,467Z" transform="translate(-2649.07 -436.81)"/><path class="cls-19" d="M2876.14,475.58c-8.3,8.1-26.08,18.59-38,17-12.52-1.69-24.71-6.59-28.46,10.8,14.72,2.67,32.86.28,46.74-5.36a46.1,46.1,0,0,0,17.28-11.86c1.75-2,12.43-16.87,9.39-19.11a60.14,60.14,0,0,1-6.9,8.55h0Z" transform="translate(-2649.07 -436.81)"/><path class="cls-19" d="M2751.18,476.07c-3.35-2.42-17.23,6.2-21.37,7.38-9.87,2.83-19.8,5.85-29.77,8.3,9.34,0.64,23.47-5.26,32.44-7.9,3.3-1,21.31-5.91,18.7-7.79h0Z" transform="translate(-2649.07 -436.81)"/><path class="cls-4" d="M2859.73,447.3c-12.83.51-25.57,3.35-38,6.41-6.31,1.55-12.45,3.47-18.65,5.38-6.47,2-8.25.34-14.06,0.2s-8.23,4.22-14,6.07c-2.66.85-4.88-.11-7.92,0.92-4.32,1.46-10.07,6.94-12.76,10.33,6.56-1.25,13-3.74,18.69-4.46,4.94-.62,7.88.71,13.35-1.57,6.92-2.88,13.54-6,20.7-8.36a211.21,211.21,0,0,1,39-8.68c10.3-1.28,27-4.5,36.7,1-2.29-8.23-16-7.49-23-7.21h0Z" transform="translate(-2649.07 -436.81)"/><path class="cls-65" d="M2763.16,482.74a87.91,87.91,0,0,1,11-4.37c-3.67.09-5.06-5.19-8.95-6.57-5.51-1.95-10.39,1.77-15,3.59-11.86,4.67-24.17,9.73-36.66,13.28,13.2-3.3,27.94-10.77,41.3-12.17-0.89.09,8,5.21,8.32,6.23C2766.69,481,2762.54,481,2763.16,482.74Z" transform="translate(-2649.07 -436.81)"/><path class="cls-66" d="M2791.25,455.33c-7.49,1.26-14.46,6.19-20.17,8.9-0.81.39-13.16,6.62-12.49,6.78-0.54-.13,5.88-2.11,6.14-2.24,1.52-.73,2.18-2.89,3.76-3.49s3.72,0.71,5.44-.09c5.66-2.6,10.51-8.78,17.32-9.87C2788.09,455.86,2791.61,455.27,2791.25,455.33Z" transform="translate(-2649.07 -436.81)"/><path class="cls-2" d="M2769.11,477.8c-3.4-3.42-3.09-5.62-9.47-5.52q0.11,1.93,3.53.79c-8.93-1.28-15.12,5.16-22.44,9.43-6.26,3.65-13.09,6.46-19.72,9.37-3.77,1.66-15.56,8.28-19.32,7.87,13.16,1.31,30-7.9,42-12.7C2745.69,486.24,2772.49,481,2769.11,477.8Z" transform="translate(-2649.07 -436.81)"/><path class="cls-67" d="M2766.91,480.74c-4.66,3.29-9.11,1.09-14.12,1.9-4.71.76-9.59,4-14,5.6-10.52,3.88-24.34,11.45-35.7,11,14.49-5.28,28.35-11,41.67-18.69,2.74-1.59,8-5.55,10.45-6.28,2.77-.81,19.21,1.2,11.75,6.47h0Z" transform="translate(-2649.07 -436.81)"/><path class="cls-19" d="M2762.66,473.77a67.31,67.31,0,0,0-6.94.48c13.77,2.35-10.11,8.82-13,10-12,4.8-23.85,12.45-36.63,14.91,14.8-1.53,28.75-11.23,42.95-15.12,4.57-1.25,10.66.21,14.83-1.81,5-2.41,5.77-8.13-1.19-8.45h0Z" transform="translate(-2649.07 -436.81)"/><path class="cls-2" d="M2764.53,484.38c-13.71-3.76-36.77,16-46.31,23.55-13.27,10.56-33.23,28.29-35,46.49,0.66-6.71,10.91-16.93,15.75-22.17a172.34,172.34,0,0,1,24.64-21.75c8.91-6.53,18.49-12.54,28.74-16.72,5.39-2.2,14.53-2.32,12.16-9.4C2764.26,484.31,2764.77,485.08,2764.53,484.38Z" transform="translate(-2649.07 -436.81)"/><path class="cls-68" d="M2764.41,487.94c-2.13,4.11-17.48,7.4-21.79,9.74a172.38,172.38,0,0,0-24.16,16c-13.42,10.55-27.14,23.32-34.46,39,3.4-18.28,23-35.39,36.89-46,3.7-2.83,44.85-28.41,43.52-18.77C2764.06,488.61,2764.53,487.06,2764.41,487.94Z" transform="translate(-2649.07 -436.81)"/><path class="cls-19" d="M2764,485.27c-1.66-1.12-8.14,3.84-11.27,5.11a126.63,126.63,0,0,0-27,15.2c-15.14,11.06-33,26-40.1,44,8.72-16.28,23.91-29.55,38.66-40.23a149.8,149.8,0,0,1,25.1-15.06c0.43-.2,19.3-5.87,14.64-9h0Z" transform="translate(-2649.07 -436.81)"/><path class="cls-2" d="M2841.9,509.06c-4.8-8.26-14.7-25-26-17.51-5.71,3.76-5.57,9.42-3.4,15,1.56,4,3,4.24,3.56,9.69a89.34,89.34,0,0,1,.74,9.65c0,5.06-2.32,10.82,3.46,13.46,5.21,2.39,11.91-4.3,17.48-4.53,6.56-.27,10.63,3.74,12.54-3.7,1.66-6.49-5.4-17-8.35-22.09h0Z" transform="translate(-2649.07 -436.81)"/><path class="cls-69" d="M2813.27,505.68c-9-11.15,11.49-19.68,19.76-8-9.39-9-18.79-2.82-18.06,9.51l-1.7-1.48h0Z" transform="translate(-2649.07 -436.81)"/><path class="cls-4" d="M2811.69,499.71c-0.19,2.76.4,3.76,3.22,5.41,0-4.49,1.17-1-3.22-5.41C2811.67,500.11,2812.7,500.72,2811.69,499.71Z" transform="translate(-2649.07 -436.81)"/><path class="cls-70" d="M2817.08,491.9a10.36,10.36,0,0,0-4.39,4.32,6.35,6.35,0,0,1,4.54.64,9.37,9.37,0,0,1,4.2-4c4.77-.79,8.23,1.63,11.59,4.84-3.58-5-9.83-8.93-15.95-5.75h0Z" transform="translate(-2649.07 -436.81)"/><path class="cls-71" d="M2849.53,531.75c-0.79,5.66-4.62,2.31-8.66,2.32-5.64,0-9,3.06-13.9,4-14.15,2.7-9.84-18.62-10.31-28.19-0.69-13.93,6.31-20.48,17.51-9.36,7,6.95,16.64,21,15.36,31.23C2849.4,532.7,2849.54,531.67,2849.53,531.75Z" transform="translate(-2649.07 -436.81)"/><path class="cls-72" d="M2841.56,510.26c-3.86-6.51-15.31-22.41-23.1-13.06-4,4.77-3.52,34.49.27,39.25,3.65,4.59,6.43,1.61,10.6.25,5.13-1.67,11.12-.62,15.57-1.92,3.35-1,3.44,1.28,4.79-3.27,1.76-6-5.32-16.51-8.13-21.25h0Z" transform="translate(-2649.07 -436.81)"/><path class="cls-4" d="M2820.51,520.6c0.43,3.37,2.56,20.52,7.75,17.65-6.5-11.64-4.71-24.72-11.72-36.14-0.76,5.25,3.24,12.67,4,18.49h0Z" transform="translate(-2649.07 -436.81)"/><path class="cls-73" d="M2841.56,510.26c-3.58-6-8.83-13-15.54-15.8,10.86,7.86,15.14,26.94,13.49,39.53,5.52,0.06,7.75,3.32,10.1-2.35,2.26-5.46-5.53-17.12-8.05-21.37h0Z" transform="translate(-2649.07 -436.81)"/><path class="cls-2" d="M2850.31,534.17c-8.86-11.71-39.39-.26-29.75,10.59,3.35,3.78,15.4,10,20.47,9.83,9-.33,14.78-13.17,9.28-20.42h0Z" transform="translate(-2649.07 -436.81)"/><path class="cls-74" d="M2851.12,543.2c-1.3,8.6-6.41,11.44-14.3,8.92-3.25-1-17.24-8.2-17.62-11.62-1.37-12.19,34.76-16.16,31.92,2.7h0Z" transform="translate(-2649.07 -436.81)"/><path class="cls-4" d="M2826.61,532.36c-5.58,3-6,10-1,12.92-0.39-4.21-.51-8.9,1-12.92C2825.7,532.85,2825,536.38,2826.61,532.36Z" transform="translate(-2649.07 -436.81)"/><path class="cls-75" d="M2847.55,533.74a18.05,18.05,0,0,0-9.25-3.37c2.13,6.48.06,15.18-3.88,20.6,12.13,7,23.92-9.16,13.13-17.23h0Z" transform="translate(-2649.07 -436.81)"/><path class="cls-2" d="M2759.71,564.87c1.1-19.87-37.48-4.45-47-.89-9.32,3.49-18.44,8.19-25.9,14.87-3,2.69-9.37,8-10.14,12.28-1.14,6.35-.76,2.9,3.94,2.18,3.9-.59,8.63-4.47,12.58-5.73,4.86-1.56,11.37-3.61,16.46-3.75,6.83-.19,8.73,2.29,15.25-0.59,3.31-1.46,6-3.79,9.84-4.37,4.21-.64,7.38.61,11.53-0.42,0.17,0,9.4-4.41,8.67-4,4.22-2.47,4.47-4.14,4.78-9.6h0Z" transform="translate(-2649.07 -436.81)"/><path class="cls-76" d="M2757.26,572c-0.68,2.34-17.27,5.35-19.35,5.83a45.33,45.33,0,0,0-11,3.85c-0.08,0-9.76,3.11-9,3.44,2.61-4.71-14.77-1.37-14.77-1.37-9.93,2.13-17,7.28-26.26,10.3-1.55.5,6.38-10.31,4.81-8.43a58.17,58.17,0,0,1,10.88-9.79c9.52-6.8,20.61-11,31.81-14.1,7.33-2,20.75-7.61,28.41-5.36,7.07,2.08,6.63,8.11,4.45,15.62h0Z" transform="translate(-2649.07 -436.81)"/><path class="cls-77" d="M2757.67,559.88c-3.16-4.46-7.66-3.95-14.68-2.64a190.66,190.66,0,0,0-27.39,7.18c-8.89,3.09-17.35,7.06-24.86,12.8-3.88,3-7.87,6.28-10.63,10.38,0,0.07-4,6.65-3.2,6.41,9.25-3,16.31-8.17,26.26-10.3-0.34.07,17.51-3.56,14.77,1.37,0.27,0.12,10.32-4.76,11.15-5,5.11-1.66,10.12-.76,15.18-2.26,1.79-.53,2.8-3.09,4.37-3.62,0.76-.26,5.16-0.63,5.81-1.09,2.89-2.06,6.4-8.7,3.23-13.2h0Z" transform="translate(-2649.07 -436.81)"/><path class="cls-78" d="M2757.67,559.88c-5.65-8-25.84-.41-35.4,2.4-15.91,4.67-31.16,11.93-41.9,24.94,9.79-10.08,73.17-44.18,77.46-17.92,0.3-1.9,1.22-7.45-.16-9.41h0Z" transform="translate(-2649.07 -436.81)"/><path class="cls-4" d="M2747.8,568.28c-11,5.91-26.69,6.59-38.64,8-4.8.57-35.49,9.76-32.41,17.66,6.49-4.44,11.93-8.17,19.4-11,8.84-3.33,14.75-2.74,23.64-4,7.1-1,16-4.22,23.1-6,3.45-.88,15.09-4,15.26-6.36a16.38,16.38,0,0,0-10.34,1.67h0Z" transform="translate(-2649.07 -436.81)"/><path class="cls-2" d="M2853.3,567c-0.12-21.05-17.23-33.05-37-29-11,2.23-22.06,6.06-32.88,9.05-7.49,2.07-22.83,3.46-26.12,12.21s4.85,18.28-1,27.26c-4.65,7.16-16.91,11.55-24.16,15.06-10.33,5-20.93,8.77-32.54,8.81-5.6,0-28-5.26-31.36-.18-3.43,5.26,43.89,19.46,48.82,20,19.57,2.28,39.63-1,58.73-5.17,29.2-6.45,77.66-20.44,77.45-58C2853.23,555,2853.36,579,2853.3,567Z" transform="translate(-2649.07 -436.81)"/><path class="cls-79" d="M2848.72,581.6c-11.61,29.45-54.52,38.39-81.73,43.63-34,6.54-67.72,5.63-96.91-14.7,13-2,25.83,3.07,38.81.9,10.76-1.79,21-7,30.6-12,7.64-4,17.89-8.28,20.61-17.28,3.43-11.38-7.08-22,6.2-28.59,10.49-5.17,23.71-6.37,34.89-9.67,8.81-2.6,18-6.31,27.4-5.1,20.08,2.59,26.76,26,20.14,42.81h0Z" transform="translate(-2649.07 -436.81)"/><path class="cls-4" d="M2760.58,575c7.93-10.72,20.65-11.6,32.6-15.53,14-4.62,20.9-12.93,32.5-20.87-6.23-.09-12.14,7.73-17.9,10.43-7.12,3.34-15.14,5.39-22.66,7.54-11.64,3.33-25.5,4.2-24.54,18.43C2763,571.76,2760.44,573,2760.58,575Z" transform="translate(-2649.07 -436.81)"/><path class="cls-80" d="M2839.68,543c-1.41-1-.93,7.67-1.65,10.5a47.75,47.75,0,0,1-8,16c-6.58,9-15.71,14.67-25.53,19.51-20.24,10-50.82,25.62-74,20.22,4.38,1,27.57-15.17,31.46-19.15,11.35-11.59-6.54-25.74,2.78-36-11.52,4.56-1.93,19.11-4.62,28s-12.93,13.26-20.61,17.28c-9.49,5-19.9,10.29-30.6,12-13,2.07-25.85-2.88-38.81-.9,37.95,26.43,85.84,20.4,127.77,7.11,16.95-5.37,36.89-13.55,47.15-29,9.08-13.67,9-35.38-5.32-45.67h0Z" transform="translate(-2649.07 -436.81)"/><path class="cls-81" d="M2842,544.85c18.26,36.88-25,58.91-52.38,68.09-17.21,5.78-34.59,9.39-52.81,9.48-5.87,0-49.07-2.62-30.59-10.62-12.09,1.28-24.06-3.12-36.13-1.28,36.78,25.61,81.86,20.41,122.86,8.58,17.55-5.07,37.8-12.6,49.71-27.3,10.56-13,12.62-34.79-.65-47C2843.44,547.77,2851.83,553.87,2842,544.85Z" transform="translate(-2649.07 -436.81)"/><path class="cls-2" d="M2785,469.53c1.54-11.1-18.77-7.83-15.72,2.9,2.63,9.25,20.56,5.36,15.72-2.9C2785.25,467.53,2786.65,472.4,2785,469.53Z" transform="translate(-2649.07 -436.81)"/><path class="cls-17" d="M2780.94,463.49c-4.46,1.63-15.32,7.82-7,11.93,6.94,3.44,14.9-8.77,7-11.93C2778.87,464.25,2785.45,465.3,2780.94,463.49Z" transform="translate(-2649.07 -436.81)"/><path class="cls-82" d="M2778.78,477c2,0,4.9-3.6,5.73-5.51a5.67,5.67,0,0,1-5.73,5.51h0Z" transform="translate(-2649.07 -436.81)"/><path class="cls-83" d="M2783.33,470.07c0,5.46-8.45,5.47-8.46,0S2783.33,464.6,2783.33,470.07Z" transform="translate(-2649.07 -436.81)"/><path class="cls-84" d="M2782.46,469.86c0,4-6.12,4-6.13,0S2782.46,465.89,2782.46,469.86Z" transform="translate(-2649.07 -436.81)"/><path class="cls-85" d="M2781.2,470c0,3.58-3.17,0-3.14,0S2781.2,466.4,2781.2,470Z" transform="translate(-2649.07 -436.81)"/><path class="cls-17" d="M2779,468.47q-1.46,2.91-2.91,0Q2777.5,465.56,2779,468.47Z" transform="translate(-2649.07 -436.81)"/><path class="cls-17" d="M2777.28,471h0Z" transform="translate(-2649.07 -436.81)"/><path class="cls-86" d="M2780.28,463.2c-4.91,0-9.87,1.45-10.29,7.63,0.18-2.46,8.47-7.13,10.29-7.63h0Z" transform="translate(-2649.07 -436.81)"/><path class="cls-87" d="M2778.71,472c-2.16,1-6.51,1.83-8.28-.54-1.51,2.46,15.07,8.88,13.66-3.9a14,14,0,0,1-5.39,4.44h0Z" transform="translate(-2649.07 -436.81)"/><path class="cls-17" d="M2772,466c0.2-.43-3.63,3.56-2.11,6.87-0.72-1.59.75-5.53,2.11-6.87C2772.13,465.73,2771.66,466.34,2772,466Z" transform="translate(-2649.07 -436.81)"/><path class="cls-17" d="M2771,474.39h0Z" transform="translate(-2649.07 -436.81)"/><path class="cls-17" d="M2754.45,488c-19.73,9.73-42,20.34-55.23,39,12.3-17.3,36.52-30.13,55.23-39C2749.49,490.47,2754.54,488,2754.45,488Z" transform="translate(-2649.07 -436.81)"/><path class="cls-17" d="M2741.76,482.95c-9.47,6-23.39,12.63-34.2,15.25,11.45-2.88,24.53-9.17,34.2-15.25h0Z" transform="translate(-2649.07 -436.81)"/><path class="cls-17" d="M2751.56,477.8c-3.91.49-4,1.82-6.91,3.25,1.74-.9,5-3,6.91-3.25C2750.25,478,2751.72,477.78,2751.56,477.8Z" transform="translate(-2649.07 -436.81)"/><path class="cls-17" d="M2755.46,475a2,2,0,0,0-1.09,1.43q2.46-1.44,1.09-1.43h0Z" transform="translate(-2649.07 -436.81)"/><path class="cls-17" d="M2742.43,474.77c-10.69,6.43-30.41,15.74-43,16.44,13.55-.59,31.72-9.81,43-16.44C2736.06,478.6,2742.57,474.69,2742.43,474.77Z" transform="translate(-2649.07 -436.81)"/><path class="cls-17" d="M2761.7,468.54l-1.3,1.71c-0.15.38,1.78-2,1.3-1.71h0Z" transform="translate(-2649.07 -436.81)"/><path class="cls-17" d="M2768.87,465.31l-1.6,1.65c-0.16.3,2.24-1.75,1.6-1.65S2769.12,465.27,2768.87,465.31Z" transform="translate(-2649.07 -436.81)"/><path class="cls-17" d="M2778.62,460.73c-1.7,1,.23-0.14,0,0h0Z" transform="translate(-2649.07 -436.81)"/><path class="cls-17" d="M2780.3,456.13c-9.55,3.75-18.26,8.81-27.44,13,8.88-4.56,18.32-9.52,27.44-13C2770.8,459.86,2780.49,456.06,2780.3,456.13Z" transform="translate(-2649.07 -436.81)"/><path class="cls-16" d="M2680.1,553.42c-0.71,0-1.55,1.45-.64,1.45C2680.18,554.88,2681,553.42,2680.1,553.42Z" transform="translate(-2649.07 -436.81)"/><path class="cls-16" d="M2682.29,562.15q-1.23-.21-1.06,1.07c0.28,0.17-.11.34,0.41,0.46a0.91,0.91,0,0,0,.66-1.52h0Z" transform="translate(-2649.07 -436.81)"/><path class="cls-16" d="M2686.15,568.79c-0.61-.61-2.43.88-1.66,1.66s2.26-1,1.66-1.66h0Z" transform="translate(-2649.07 -436.81)"/><path class="cls-16" d="M2767.12,597.19c-3.43.92-3.31,6.68-1.26,5.49,1.14-.66,5.54-6.63,1.26-5.49h0Z" transform="translate(-2649.07 -436.81)"/><path class="cls-16" d="M2775,594.38c-0.92-.53-2.49,1-1.89,2,0.9,1.39,3.26-1.36,1.89-2h0Z" transform="translate(-2649.07 -436.81)"/><path class="cls-16" d="M2787.11,595c-1.19-2.32-4.34,0-4.87,1.76-1.1,3.62,7.18,2.5,4.87-1.76h0Z" transform="translate(-2649.07 -436.81)"/><path class="cls-16" d="M2788.45,586.84c-0.93-1.62-3.05.52-2.17,1.4,0.51,0.51,2.7-.45,2.17-1.4h0Z" transform="translate(-2649.07 -436.81)"/><path class="cls-16" d="M2784.15,601.46c0.05,0.69,1.13,1.42,1.27-.4q-0.83-1.05-1.27.4h0Z" transform="translate(-2649.07 -436.81)"/><g class="cls-88"><path class="cls-44" d="M2771.12,604.68h0C2771.33,604.53,2771.43,604.44,2771.12,604.68Z" transform="translate(-2649.07 -436.81)"/><path class="cls-44" d="M2771.12,604.68a3,3,0,0,0-1.31,2.76c-0.25,5.4,6.63-6.72,1.31-2.76h0Z" transform="translate(-2649.07 -436.81)"/></g><path class="cls-16" d="M2753.72,605.1c-0.75-1.8-3.09,1-2.8,2.33-0.22.28,3.85,0.17,2.8-2.33h0Z" transform="translate(-2649.07 -436.81)"/><path class="cls-16" d="M2745.59,611.48c-0.36.2-1,1.13-.67,1.41,1.1,1.06,2.08-2.1.67-1.41h0Z" transform="translate(-2649.07 -436.81)"/><path class="cls-16" d="M2736.6,607c-0.14-6.07-6.35,3-3.66,2.44,0.78-.15,4.81.72,3.66-2.44C2736.58,606.3,2736.68,607.22,2736.6,607Z" transform="translate(-2649.07 -436.81)"/><path class="cls-16" d="M2719.9,614.75c0.94-1.57-2.51-.74-1.56.75,0.78,0.89,1.28-.75,1.56-0.75C2720,614.52,2719.9,614.75,2719.9,614.75Z" transform="translate(-2649.07 -436.81)"/><path class="cls-16" d="M2728.49,615c-0.24-3.2-5.51-1-5.42,1.58,0.13,3.83,6.2,1.3,5.42-1.58C2728.47,614.83,2728.66,615.67,2728.49,615Z" transform="translate(-2649.07 -436.81)"/><path class="cls-16" d="M2736.66,615.38c-0.82-.39-2.22,1.11-1.61,1.93,0.84,1.13,2.75-1.37,1.61-1.93h0Z" transform="translate(-2649.07 -436.81)"/><path class="cls-16" d="M2794.75,577.49c-1.6-4.7-9.9,1.2-8.66,4.6,2,5.52,10.06-.58,8.66-4.6h0Z" transform="translate(-2649.07 -436.81)"/><path class="cls-16" d="M2798.06,589.15c-3-.44-1.47,2.21-1.94,2.95s5.32-2.45,1.94-2.95h0Z" transform="translate(-2649.07 -436.81)"/><path class="cls-16" d="M2801.88,603.94c-1.73-4.74-5.24,2.86-5.15,2.81,0.54-.32,7.27,3,5.15-2.81h0Z" transform="translate(-2649.07 -436.81)"/><path class="cls-16" d="M2796.32,599c-0.24-.95-1.64.91-1.49,0.58q1,1.71,1.49-.58h0Z" transform="translate(-2649.07 -436.81)"/><path class="cls-16" d="M2817.82,589.22c-3.63.24-10.74,7.62-4.54,8.68,5.13,0.87,9.22-9,4.54-8.68h0Z" transform="translate(-2649.07 -436.81)"/><path class="cls-16" d="M2816.59,579.71c-0.5-1.17-2.53.46-1.74,1.37s2.56-.94,1.74-1.37C2816.56,579.63,2817.21,580,2816.59,579.71Z" transform="translate(-2649.07 -436.81)"/><path class="cls-16" d="M2803.24,581.26c-0.65,0-1.43,1.34-.58,1.34C2803.31,582.6,2804.08,581.26,2803.24,581.26Z" transform="translate(-2649.07 -436.81)"/><path class="cls-16" d="M2822.89,553.33c-2.38-3.95-8,2.62-5,4.34,2.37,1.35,6.85-1.2,5-4.34h0Z" transform="translate(-2649.07 -436.81)"/><path class="cls-16" d="M2812.75,560.69c-0.88,0-1.93,1.8-.79,1.8C2812.84,562.49,2813.89,560.69,2812.75,560.69Z" transform="translate(-2649.07 -436.81)"/><path class="cls-16" d="M2824.5,562.35c-0.71-.86-2.22.87-1.53,1.52s2.12-.78,1.53-1.52h0Z" transform="translate(-2649.07 -436.81)"/><path class="cls-16" d="M2829.58,542.68c-2-3-5.57,1.32-4.2,3.9,1.19,2.24,5.81-1.48,4.2-3.9h0Z" transform="translate(-2649.07 -436.81)"/><path class="cls-16" d="M2837.92,555.87c-2-4.83-5.34,3.67-5.2,3.57,0.31-.22,7.2,1.22,5.2-3.57h0Z" transform="translate(-2649.07 -436.81)"/><path class="cls-16" d="M2833.89,550.72c0.22-1-2.21-.17-1.64,1,0.43,0.92,1.54-.63,1.64-1S2833.85,550.93,2833.89,550.72Z" transform="translate(-2649.07 -436.81)"/><path class="cls-16" d="M2815.87,576c-0.75-4.65-4.81,1.22-5.41,2.17-0.77,1.23,6.19,2.7,5.41-2.17h0Z" transform="translate(-2649.07 -436.81)"/><path class="cls-16" d="M2802.09,571.17c-0.53-1.4-2.59.16-2,1.1,0.77,1.21,2.06-.78,2-1.1h0Z" transform="translate(-2649.07 -436.81)"/><path class="cls-16" d="M2836.63,574.29c-4.19-1.19-8.43,5.74-4.79,8.35,4.79,3.45,10.17-6.8,4.79-8.35h0Z" transform="translate(-2649.07 -436.81)"/><path class="cls-16" d="M2838.07,568.91a1.38,1.38,0,0,0-1.78,1.14c-0.17,1.27,3,.06,1.78-1.14h0Z" transform="translate(-2649.07 -436.81)"/><path class="cls-16" d="M2822,582.22c-0.07-1-2.2-.12-1.7.95,0.59,1.23,2.24-.36,1.7-0.95C2821.94,581.89,2822.31,582.59,2822,582.22Z" transform="translate(-2649.07 -436.81)"/><path class="cls-16" d="M2843.93,566.77c-0.43-.83-1.21-0.09-1.43.45-0.43,1.17,2,.73,1.43-0.45h0Z" transform="translate(-2649.07 -436.81)"/><path class="cls-16" d="M2747.2,562.87c-1.32-1.32-3.54,2.4-1.83,2.46C2746,565.35,2748.24,563.92,2747.2,562.87Z" transform="translate(-2649.07 -436.81)"/><path class="cls-16" d="M2749.18,559.2c-0.91,0-2,1.86-.81,1.86C2749.27,561.06,2750.35,559.2,2749.18,559.2Z" transform="translate(-2649.07 -436.81)"/><path class="cls-16" d="M2755.46,563c-0.23-1.2-1.58-.2-1.7.53C2753.55,564.76,2755.66,564,2755.46,563Z" transform="translate(-2649.07 -436.81)"/><path class="cls-16" d="M2836.1,520.28c-1.62-2.41-5,1.74-5,3.26-0.09,6,8.45,2,5-3.26h0Z" transform="translate(-2649.07 -436.81)"/><path class="cls-16" d="M2836.07,535c-0.85,0-1.86,1.74-.76,1.74C2836.16,536.79,2837.17,535,2836.07,535Z" transform="translate(-2649.07 -436.81)"/><path class="cls-16" d="M2840.3,533.69a1.33,1.33,0,0,0-.75,1.58c0.88,1.81,2.79-2.48.75-1.58h0Z" transform="translate(-2649.07 -436.81)"/><path class="cls-16" d="M2828.49,511.92c-2.56-.24-2.29,2.38-3,3.46-1.44,2.21,8.06-3,3-3.46h0Z" transform="translate(-2649.07 -436.81)"/><path class="cls-16" d="M2853.52,479c-1.22-.78-3,1.47-1.7,2,0.9,0.37,2.77-1.52,1.7-2h0Z" transform="translate(-2649.07 -436.81)"/><path class="cls-16" d="M2856.92,476.58c-0.84,0-1.83,1.71-.75,1.71C2857,478.3,2858,476.58,2856.92,476.58Z" transform="translate(-2649.07 -436.81)"/><path class="cls-16" d="M2856.66,479.9c-0.76-.72-1.94,1.41-0.86,1.47-0.23,0,2.21-.78.86-1.47C2856.27,479.53,2857,480,2856.66,479.9Z" transform="translate(-2649.07 -436.81)"/><path class="cls-16" d="M2864.19,472.14h0Z" transform="translate(-2649.07 -436.81)"/><path class="cls-16" d="M2869.39,465.43c-0.67-1.48-2,.46-2.38.64-1.39.65,3.82,2.54,2.38-.64h0Z" transform="translate(-2649.07 -436.81)"/><path class="cls-16" d="M2869.13,470.7c-0.74,0-1.62,1.51-.66,1.51C2869.2,472.21,2870.08,470.7,2869.13,470.7Z" transform="translate(-2649.07 -436.81)"/><path class="cls-16" d="M2865.92,475.1c-0.42,0-.93.87-0.38,0.87S2866.48,475.1,2865.92,475.1Z" transform="translate(-2649.07 -436.81)"/><path class="cls-16" d="M2869.82,476.33c-0.65,0-1.43,1.34-.58,1.34C2869.89,477.67,2870.66,476.33,2869.82,476.33Z" transform="translate(-2649.07 -436.81)"/><path class="cls-16" d="M2875.3,470.73c-0.85,0-1.86,1.74-.76,1.74C2875.39,472.47,2876.4,470.73,2875.3,470.73Z" transform="translate(-2649.07 -436.81)"/><path class="cls-16" d="M2878.94,462c-0.51,0-1.12,1-.46,1S2879.6,462,2878.94,462Z" transform="translate(-2649.07 -436.81)"/><path class="cls-16" d="M2878.83,456c-0.6,0-1.31,1.22-.53,1.22C2878.9,457.2,2879.61,456,2878.83,456Z" transform="translate(-2649.07 -436.81)"/><path class="cls-16" d="M2875.28,460c-1.18-1.66-2.55,1.62-2.48,1.87,0.35,1.23,3.45-.5,2.48-1.87h0Z" transform="translate(-2649.07 -436.81)"/><path class="cls-16" d="M2881.8,459.94c-1.07.29-1.66,2.14-.33,1.71-0.85.46,2.51-2.27,0.33-1.71h0Z" transform="translate(-2649.07 -436.81)"/><path class="cls-16" d="M2839.41,480.94c-0.35-.74-2.79.65-1.75,2.09,0.9,1.22,3.06-1.62,1.75-2.09C2839.25,480.6,2840,481.13,2839.41,480.94Z" transform="translate(-2649.07 -436.81)"/><path class="cls-16" d="M2842.69,482.14c-1,0-2.11,2-.87,2C2842.79,484.11,2843.93,482.14,2842.69,482.14Z" transform="translate(-2649.07 -436.81)"/><path class="cls-16" d="M2842.81,486.36c-0.49-.49-1.65.68-1.17,1.17s1.67-.66,1.17-1.17h0Z" transform="translate(-2649.07 -436.81)"/><path class="cls-16" d="M2826.2,473.66c-1.42-1.44-2.6,1.69-2.75,1.87-1.67,1.8,6.18,1.63,2.75-1.87h0Z" transform="translate(-2649.07 -436.81)"/><path class="cls-16" d="M2825.27,479.07c-0.82,0-1.8,1.69-.74,1.69C2825.35,480.76,2826.33,479.07,2825.27,479.07Z" transform="translate(-2649.07 -436.81)"/><path class="cls-16" d="M2816.68,484.18c-0.54,0-1.18,1.1-.48,1.1C2816.74,485.28,2817.38,484.18,2816.68,484.18Z" transform="translate(-2649.07 -436.81)"/><path class="cls-16" d="M2817.59,480.3c-0.62,0-1.37,1.28-.56,1.28C2817.66,481.58,2818.4,480.3,2817.59,480.3Z" transform="translate(-2649.07 -436.81)"/><path class="cls-16" d="M2820.55,483c-0.72,0-1.58,1.48-.65,1.48C2820.63,484.45,2821.49,483,2820.55,483Z" transform="translate(-2649.07 -436.81)"/><path class="cls-16" d="M2830.53,487c-0.52,0-1.15,1.07-.47,1.07C2830.58,488,2831.21,487,2830.53,487Z" transform="translate(-2649.07 -436.81)"/><path class="cls-16" d="M2807.1,494.94c-0.89-.06-2.68,1.65-2.08,2.75,1,1.89,4.48-2.6,2.08-2.75h0Z" transform="translate(-2649.07 -436.81)"/><path class="cls-16" d="M2808,491.35c-0.65.12-1.35,1.79-.21,1.43q1.41-.77.21-1.43h0Z" transform="translate(-2649.07 -436.81)"/><path class="cls-16" d="M2797.85,496.17h0Z" transform="translate(-2649.07 -436.81)"/><path class="cls-16" d="M2799,493.8c-0.68,0-1.49,1.4-.61,1.4C2799,495.2,2799.83,493.8,2799,493.8Z" transform="translate(-2649.07 -436.81)"/><path class="cls-16" d="M2801.33,496.71c-0.61.2-3,2.17-1.32,2.9,2.36,1,3.23-3.45,1.32-2.9h0Z" transform="translate(-2649.07 -436.81)"/><path class="cls-16" d="M2811.2,484c-0.68,0-1.49,1.4-.61,1.4C2811.27,485.43,2812.08,484,2811.2,484Z" transform="translate(-2649.07 -436.81)"/><path class="cls-16" d="M2812.83,488.19c-1.74-.18-1.68,1.51-1.63,2.41,0.11,2.05,4.13-2.15,1.63-2.41h0Z" transform="translate(-2649.07 -436.81)"/><path class="cls-16" d="M2870,442.59c-1.14-3.68-3.93,3.25-3.68,3-0.08.08,5.21,1.9,3.68-3h0Z" transform="translate(-2649.07 -436.81)"/><path class="cls-16" d="M2872.63,446.64c-0.74,0-1.62,1.51-.66,1.51C2872.7,448.15,2873.58,446.64,2872.63,446.64Z" transform="translate(-2649.07 -436.81)"/><path class="cls-16" d="M2877.86,450.76c-0.69,0-1.52,1.43-.62,1.43C2877.93,452.19,2878.76,450.76,2877.86,450.76Z" transform="translate(-2649.07 -436.81)"/><path class="cls-16" d="M2868.65,453.8c-4.2-.45-1.69,3.89-1.81,4.23-0.42,1.2,7.08-3.68,1.81-4.23h0Z" transform="translate(-2649.07 -436.81)"/><path class="cls-16" d="M2872.25,454.19c-0.38.2-1.48,2-.18,1.4,0.57-.24,1.29-2,0.18-1.4h0Z" transform="translate(-2649.07 -436.81)"/><path class="cls-16" d="M2876.44,455.73c0.26,1.24-.6-0.39,0,0C2876.33,455.21,2876.77,455.95,2876.44,455.73Z" transform="translate(-2649.07 -436.81)"/><path class="cls-16" d="M2841.57,492.3c-2.55-1-2.27,2.7-2.75,3.59-0.92,1.72,8.28-2.48,2.75-3.59C2840.76,492,2842.2,492.43,2841.57,492.3Z" transform="translate(-2649.07 -436.81)"/><path class="cls-16" d="M2846,488.34c0-1.15-2.54.64-1.32,1.4C2845.6,490.34,2845.79,488.48,2846,488.34Z" transform="translate(-2649.07 -436.81)"/><path class="cls-16" d="M2835.56,488.15c-1-4.13-4.89,3.86-3.27,2.65,0.94-.7,4.4,2,3.27-2.65C2835.3,487.1,2835.77,489,2835.56,488.15Z" transform="translate(-2649.07 -436.81)"/><path class="cls-16" d="M2823,487.1c-0.75,0-1.65,1.54-.67,1.54C2823.05,488.64,2823.95,487.1,2823,487.1Z" transform="translate(-2649.07 -436.81)"/><path class="cls-16" d="M2829.84,482.49c-2.55-3.7-3.86,3.21-3.38,2.83,0.33-.26,5.53.28,3.38-2.83h0Z" transform="translate(-2649.07 -436.81)"/><path class="cls-16" d="M2855.13,487.75c-0.75,0-1.65,1.54-.67,1.54C2855.21,489.29,2856.11,487.75,2855.13,487.75Z" transform="translate(-2649.07 -436.81)"/><path class="cls-16" d="M2852.45,493c-1.92-2.75-3.57,2.85-3.73,3,0.07-.08,7.13,1.86,3.73-3h0Z" transform="translate(-2649.07 -436.81)"/><path class="cls-16" d="M2864.61,488.25c-0.06-.86-2,0.53-1.08,1.17a0.93,0.93,0,0,0,1.08-1.17C2864.58,487.9,2864.63,488.6,2864.61,488.25Z" transform="translate(-2649.07 -436.81)"/><path class="cls-16" d="M2864,490.83c-0.52,0-1.15,1.08-.47,1.08C2864.05,491.9,2864.68,490.83,2864,490.83Z" transform="translate(-2649.07 -436.81)"/><path class="cls-16" d="M2861.12,484.47c-1.54-2-3.32,1.56-3.8,1.92-1.16.85,6.49,1.65,3.8-1.92h0Z" transform="translate(-2649.07 -436.81)"/><path class="cls-16" d="M2869.7,483.17c-4.36-1.23-1.7,4.28-1.5,3.84,0.09-.21,5-2.86,1.5-3.84h0Z" transform="translate(-2649.07 -436.81)"/><path class="cls-16" d="M2825.77,503.46c-0.65,0-1.43,1.34-.58,1.34C2825.84,504.8,2826.62,503.46,2825.77,503.46Z" transform="translate(-2649.07 -436.81)"/><path class="cls-16" d="M2821.65,502.09c-0.57,0-1.24,1.16-.51,1.16C2821.71,503.25,2822.39,502.09,2821.65,502.09Z" transform="translate(-2649.07 -436.81)"/><path class="cls-17" d="M2720.35,477.19c-16.89,1.66-41.31,5.55-57.37-1.6,17.53,7.5,39.48,3.15,57.37,1.6C2710.48,478.16,2720.5,477.18,2720.35,477.19Z" transform="translate(-2649.07 -436.81)"/><path class="cls-17" d="M2749.75,470.33a5.75,5.75,0,0,0-4.3,3.46c0.29-.55,3.76-3.44,4.3-3.46h0Z" transform="translate(-2649.07 -436.81)"/><path class="cls-17" d="M2720.9,581.52c-2.76,1-8.74-.26-12,0.09a56.48,56.48,0,0,0-12.93,3.21c8.07-2.91,18.38-.85,24.92-3.3h0Z" transform="translate(-2649.07 -436.81)"/><path class="cls-17" d="M2728.34,579.05c-0.53.23-3.67,2-4.41,1.89,2.69,0.47,3-1.3,4.41-1.89C2726.84,579.71,2728.57,579,2728.34,579.05Z" transform="translate(-2649.07 -436.81)"/><path class="cls-17" d="M2746.79,574.94c-2.63,1.53-7,2.62-9.87,1.43,4.2,1.83,7.06.23,9.87-1.43C2743.89,576.62,2747.09,574.76,2746.79,574.94Z" transform="translate(-2649.07 -436.81)"/><path class="cls-17" d="M2766.12,573c8.08,18.33-29.27,35.28-42.74,37.22,14.4-2.23,51.41-17.36,42.74-37.22h0Z" transform="translate(-2649.07 -436.81)"/><path class="cls-17" d="M2770.95,553.22c-5.18,1.62-8.39,6.48-6.91,11.86-1.16-4.19,2.44-10.59,6.91-11.86C2765.51,554.92,2771,553.19,2770.95,553.22Z" transform="translate(-2649.07 -436.81)"/><path class="cls-17" d="M2713,550.2a34.67,34.67,0,0,0-.86,9.14,61.91,61.91,0,0,1,.86-9.14h0Z" transform="translate(-2649.07 -436.81)"/><path class="cls-17" d="M2820.09,534.61c-3.14-4.32-1.44-19.25-2.56-24.53,1.38,6.93-1.1,19.51,2.56,24.53h0Z" transform="translate(-2649.07 -436.81)"/><path class="cls-17" d="M2814.39,504.22a12.71,12.71,0,0,1-1.82-1.2c0.84,1.77,1.26.9,1.82,1.2h0Z" transform="translate(-2649.07 -436.81)"/><path class="cls-17" d="M2823.92,535.57c-0.25,0,.22-2.06,0-1.55-1,2.75-.44,1.59,0,1.55h0Z" transform="translate(-2649.07 -436.81)"/><path class="cls-17" d="M2870.57,442.61c-21.36-10.31-54.66,4.63-75.84,9.88a417.9,417.9,0,0,1,41.68-9.21c10.06-1.71,24.84-5.07,34.16-.67C2865.09,440,2870.79,442.71,2870.57,442.61Z" transform="translate(-2649.07 -436.81)"/><path class="cls-17" d="M2807.14,495.88c-6.83-.3-11.78-4.71-18.09-6.6-5.06-1.51-10.4-.82-15.36-1.73,6.93,1.37,12.92,1.76,19.57,4.42,5.21,2.08,8.32,3.67,13.89,3.91h0Z" transform="translate(-2649.07 -436.81)"/></g></g></svg>