<svg id="Layer_1" data-name="Layer 1" xmlns="http://www.w3.org/2000/svg" viewBox="0 0 530.35 746.29"><defs><style>.cls-1{fill:#ff49c3;}.cls-2{fill:#c40a86;}.cls-3{fill:#fff;}.cls-4{fill:#004d9b;}</style></defs><title>anim_10</title><path class="cls-1" d="M-3290.24,5020.58v202.14a125.84,125.84,0,0,1-125.69,125.69,27.93,27.93,0,0,0-27.93,27.93,27.93,27.93,0,0,0,27.93,27.93c100.11,0,181.56-81.45,181.56-181.56V5020.58h-55.86Z" transform="translate(3498.81 -4657.99)"/><path class="cls-1" d="M-3345.18,4933v202.14a125.84,125.84,0,0,1-125.69,125.69,27.93,27.93,0,0,0-27.93,27.93,27.93,27.93,0,0,0,27.93,27.93c100.11,0,181.56-81.45,181.56-181.56V4933h-55.86Z" transform="translate(3498.81 -4657.99)"/><path class="cls-1" d="M-3122.08,4933v202.14a125.84,125.84,0,0,0,125.69,125.69,27.93,27.93,0,0,1,27.93,27.93,27.93,27.93,0,0,1-27.93,27.93c-100.11,0-181.56-81.45-181.56-181.56V4933h55.86Z" transform="translate(3498.81 -4657.99)"/><path class="cls-1" d="M-3052.82,5348.41a125.84,125.84,0,0,1-125.69-125.69V5020.58h-55.86v202.14c0,100.11,81.44,181.56,181.56,181.56a27.93,27.93,0,0,0,27.93-27.93A27.93,27.93,0,0,0-3052.82,5348.41Z" transform="translate(3498.81 -4657.99)"/><rect class="cls-2" x="208.57" y="362.59" width="55.86" height="165.55"/><path class="cls-2" d="M-3296.65,5186.13a180.92,180.92,0,0,0,7.33-51V4933h-55.86v202.14a124.82,124.82,0,0,1-10.89,51h59.43Z" transform="translate(3498.81 -4657.99)"/><path class="cls-2" d="M-3111.19,5186.13a124.82,124.82,0,0,1-10.89-51V4933h-55.86v202.14a180.92,180.92,0,0,0,7.33,51h59.43Z" transform="translate(3498.81 -4657.99)"/><rect class="cls-2" x="264.43" y="362.59" width="55.86" height="165.55"/><path class="cls-1" d="M-3000.88,4890.74c0-130.59-107.55-236.06-238.9-232.68-127,3.27-226.61,110.87-226.61,237.92V5014.9a110,110,0,0,0,110,110h245.54a110,110,0,0,0,110-110V4890.74Z" transform="translate(3498.81 -4657.99)"/><path class="cls-2" d="M-3235.35,4658.07c-1.48,0-2.94,0-4.43,0-127,3.27-226.61,110.87-226.61,237.92V5014.9a110,110,0,0,0,110,110h121.05V4658.07Z" transform="translate(3498.81 -4657.99)"/><circle class="cls-3" cx="148.82" cy="346.17" r="57.94"/><circle class="cls-4" cx="148.82" cy="346.17" r="36.91"/><circle class="cls-3" cx="125.48" cy="325.17" r="13.57"/><circle class="cls-3" cx="383.17" cy="346.17" r="57.94"/><circle class="cls-4" cx="383.17" cy="346.17" r="36.91"/><circle class="cls-3" cx="359.83" cy="325.17" r="13.57"/></svg>