<svg id="Layer_1" data-name="Layer 1" xmlns="http://www.w3.org/2000/svg" viewBox="0 0 155.85 200.45"><defs><style>.cls-1{fill:#1d2e2f;}.cls-1,.cls-2,.cls-3,.cls-4{fill-rule:evenodd;}.cls-2{fill:#febc1e;}.cls-3{fill:#ffd570;}.cls-4{fill:#f36611;}</style></defs><title>anim_58</title><g id="shape"><path class="cls-1" d="M1381.5,2304c-9.31-2-7.57-6.49-9.83-.65-1.68,4.34-1.23,11,10.22,13.51a13.47,13.47,0,0,0,7-.17c7.73-1.47,9.5-9.32,9.5-9.32s-2.65-.45-8.88-1.23C1387.29,2305.4,1384.58,2304.64,1381.5,2304Zm74.13-.65c-2.25-5.84-.52-1.38-9.83.65-3.08.67-5.79,1.43-8,2.14-6.23.78-8.88,1.23-8.88,1.23s1.77,7.85,9.5,9.32a13.47,13.47,0,0,0,7,.17C1456.86,2314.33,1457.31,2307.65,1455.63,2303.32Z" transform="translate(-1338.57 -2116.76)"/></g><g id="shape-2" data-name="shape"><path class="cls-2" d="M1426.84,2137.65c0.43-1.3.13-2.94-1.29-4.67-3.45-4.21-5.44-7.09-5.16-11.25,0.55-1.34.62-2.18,0.37-2.66,0.52-4.79-3.45-.87-5,0.56l-0.14.14c-0.71.33-1.37,0.67-1.87,0.92-3.68,1.84-7,5-7.91,8.33a19.56,19.56,0,0,0-.36,8.72c-47.72,10.53-78.84,88.28-62.59,136.59,17.45,51.9,129.07,47.77,147-1.84C1506.63,2226.18,1474.88,2147.81,1426.84,2137.65Z" transform="translate(-1338.57 -2116.76)"/></g><g id="shape-3" data-name="shape"><path class="cls-3" d="M1342.92,2274.34c0.13,0.38.31,0.74,0.45,1.11,2.69,3.4,5.93,5.16,8.72,5.26,8.05,0.3,5.81-23.52,5.81-23.52s1.23,8,7.68,4.82c2.43-2,2.46-5.21,3.19-10.18,4.52-30.46-17.92-53.94-20.12-56.17C1338.2,2221.61,1335.17,2251.31,1342.92,2274.34Zm141.42-78.84c-0.39.38-25,24.57-20.29,56.34,0.74,5,.76,8.23,3.19,10.18,6.46,3.15,7.68-4.82,7.68-4.82s-2.25,23.82,5.81,23.52a11.24,11.24,0,0,0,7.08-3.45,40.74,40.74,0,0,0,2.09-4.76C1497.85,2250.48,1494.83,2221.23,1484.34,2195.5Z" transform="translate(-1338.57 -2116.76)"/></g><g id="Elipsa_42" data-name="Elipsa 42"><path class="cls-4" d="M1415.3,2202.92c-16,0-32,6.93-23.59,17.72s4.19,30,23.59,30,14.84-19.65,23.59-30S1431.28,2202.92,1415.3,2202.92Z" transform="translate(-1338.57 -2116.76)"/></g><g id="shape-4" data-name="shape"><path class="cls-1" d="M1426.51,2184.54c-3.55,0-6.43,3.29-6.43,7.35s2.88,7.35,6.43,7.35,6.43-3.29,6.43-7.35S1430.06,2184.54,1426.51,2184.54Zm-22,0c-3.55,0-6.43,3.29-6.43,7.35s2.88,7.35,6.43,7.35,6.43-3.29,6.43-7.35S1408,2184.54,1404.47,2184.54Z" transform="translate(-1338.57 -2116.76)"/></g></svg>