<svg id="Layer_1" data-name="Layer 1" xmlns="http://www.w3.org/2000/svg" viewBox="0 0 172.12 174.98"><defs><style>.cls-1{fill:#ff986a;}.cls-1,.cls-2{fill-rule:evenodd;}.cls-2{fill:#f7f8f9;}</style></defs><title>anim_53</title><g id="shape"><path class="cls-1" d="M1181.7,1863.24c-12.93-.34-20.63-1.29-27.35-9.79s-7.7-7.45-7.7-7.45l17.09,35.37s10.6,5.24,20.95.09S1194.63,1863.58,1181.7,1863.24Zm-124.24-9.79c-6.72,8.5-14.42,9.45-27.35,9.79s-13.33,13.07-3,18.22,20.95-.09,20.95-0.09l17.08-35.37S1064.18,1844.95,1057.46,1853.45Z" transform="translate(-1019.84 -1825.12)"/></g><g id="shape-2" data-name="shape"><path class="cls-2" d="M1105.9,1825.12c-53.74,0-90.95,85.89-73.49,137.8s129.07,47.77,147-1.84S1159.64,1825.12,1105.9,1825.12Z" transform="translate(-1019.84 -1825.12)"/></g><g id="shape-3" data-name="shape"><path class="cls-1" d="M1161,1896.09c-12.86-18.83-23.43-28-29.4-18.37s-4.78-11-27.56-11-20.67,18.37-25.72,9.19-20.21,1.84-31.23,20.21-22,79,58.79,79S1173.88,1914.92,1161,1896.09Z" transform="translate(-1019.84 -1825.12)"/></g></svg>