<svg id="Layer_1" data-name="Layer 1" xmlns="http://www.w3.org/2000/svg" viewBox="0 0 882.96 590.23"><defs><style>.cls-1{fill:#004d9b;}.cls-2{fill:#00a1e0;}.cls-3{fill:#2280ba;}.cls-4{fill:#fff;}</style></defs><title>anim_09</title><path class="cls-1" d="M-4542,4769.08c0,211.53,171.48,383,383,383s383-171.48,383-383h-766Z" transform="translate(4542.02 -4652.14)"/><path class="cls-2" d="M-3659.06,4652.14A116.94,116.94,0,0,0-3776,4769.08,116.94,116.94,0,0,0-3659.06,4886V4652.14Z" transform="translate(4542.02 -4652.14)"/><path class="cls-3" d="M-4061.27,4841.29a23.55,23.55,0,0,0,23.55-23.55,23.55,23.55,0,0,0-23.55-23.55v47.11Z" transform="translate(4542.02 -4652.14)"/><path class="cls-3" d="M-4025.46,4874.71a23.55,23.55,0,0,0,23.55-23.55,23.55,23.55,0,0,0-23.55-23.55v47.11Z" transform="translate(4542.02 -4652.14)"/><path class="cls-3" d="M-4004,5014.36a23.55,23.55,0,0,0,23.55-23.55,23.55,23.55,0,0,0-23.55-23.55v47.11Z" transform="translate(4542.02 -4652.14)"/><path class="cls-3" d="M-3963.4,4982.13a23.55,23.55,0,0,0,23.55-23.55A23.55,23.55,0,0,0-3963.4,4935v47.11Z" transform="translate(4542.02 -4652.14)"/><path class="cls-3" d="M-3925.2,5022.72a23.55,23.55,0,0,0,23.55-23.55,23.55,23.55,0,0,0-23.55-23.55v47.11Z" transform="translate(4542.02 -4652.14)"/><path class="cls-2" d="M-4088,4980.33a131,131,0,0,0-131,131,131,131,0,0,0,131,131v-262Z" transform="translate(4542.02 -4652.14)"/><path class="cls-3" d="M-4542,4769.19c0,124.95,101.28,226.24,226.22,226.24s226.22-101.29,226.22-226.24H-4542Z" transform="translate(4542.02 -4652.14)"/><circle class="cls-4" cx="172.39" cy="222.14" r="59.26"/><circle class="cls-1" cx="172.39" cy="222.14" r="37.76"/><circle class="cls-4" cx="148.52" cy="200.66" r="13.88"/></svg>