<svg xmlns="http://www.w3.org/2000/svg" xmlns:xlink="http://www.w3.org/1999/xlink" viewBox="0 0 303.89 591.41"><defs><style>.cls-1{isolation:isolate;}.cls-19,.cls-2,.cls-24,.cls-26,.cls-29{fill:#d19f56;}.cls-16,.cls-18,.cls-2{stroke:#a16b40;}.cls-16,.cls-2,.cls-4,.cls-6,.cls-8{stroke-miterlimit:10;}.cls-16,.cls-18,.cls-2,.cls-4,.cls-6,.cls-8{stroke-width:0.93px;}.cls-3{fill:#b77848;}.cls-12,.cls-24,.cls-27,.cls-3,.cls-5,.cls-7{opacity:0.5;}.cls-12,.cls-15,.cls-19,.cls-24,.cls-26,.cls-29,.cls-3,.cls-5,.cls-7,.cls-9{mix-blend-mode:multiply;}.cls-4,.cls-5{fill:#682f17;}.cls-4{stroke:#4d1d0b;}.cls-14,.cls-6,.cls-7{fill:#a16b40;}.cls-6{stroke:#8c5d36;}.cls-17,.cls-8{fill:#b3712e;}.cls-8{stroke:#94532b;}.cls-10,.cls-9{fill:#94532b;}.cls-9{opacity:0.3;}.cls-11,.cls-12{fill:#704826;}.cls-13{fill:url(#linear-gradient);}.cls-15{fill:url(#linear-gradient-2);}.cls-16{fill:url(#linear-gradient-3);}.cls-18{fill:#dcb385;stroke-linecap:round;stroke-linejoin:round;}.cls-19{opacity:0.7;}.cls-20{fill:url(#radial-gradient);}.cls-21{fill:url(#radial-gradient-2);}.cls-22{fill:#19171c;}.cls-23{fill:#ced1d3;}.cls-25,.cls-27{fill:#fff;}.cls-25{opacity:0.2;}.cls-28,.cls-29{opacity:0.4;}</style><linearGradient id="linear-gradient" x1="-1884.42" y1="-320.55" x2="-1867.44" y2="-312.84" gradientTransform="matrix(-1.06, 0, 0, 1, 276.54, 0)" gradientUnits="userSpaceOnUse"><stop offset="0.02" stop-color="#fbb254"/><stop offset="0.53" stop-color="#a16b40"/><stop offset="0.82" stop-color="#66411f"/></linearGradient><linearGradient id="linear-gradient-2" x1="-1884.68" y1="-320.8" x2="-1867.08" y2="-312.79" xlink:href="#linear-gradient"/><linearGradient id="linear-gradient-3" x1="-2034.06" y1="-150.5" x2="-1767.13" y2="-150.5" gradientTransform="matrix(-1.06, 0, 0, 1, 276.54, 0)" gradientUnits="userSpaceOnUse"><stop offset="0" stop-color="#d19f56"/><stop offset="0.51" stop-color="#fdcf98"/><stop offset="1" stop-color="#d19f56"/></linearGradient><radialGradient id="radial-gradient" cx="-1801.35" cy="2738.67" r="9" gradientTransform="matrix(-1.07, 0, 0, 0.74, 261.02, -2407.01)" gradientUnits="userSpaceOnUse"><stop offset="0.34" stop-color="#e0d0bd"/><stop offset="0.95" stop-color="#f8a989"/></radialGradient><radialGradient id="radial-gradient-2" cx="-1802.04" cy="-393.52" r="3.74" gradientTransform="matrix(-1.07, 0, 0, 1.03, 261.02, 13.39)" gradientUnits="userSpaceOnUse"><stop offset="0.25" stop-color="#a16b40"/><stop offset="1" stop-color="#1f0000"/></radialGradient></defs><title>anim_92</title><g class="cls-1"><g id="Layer_1" data-name="Layer 1"><path class="cls-2" d="M2350.74,124.06c-10.77-3.22,1-10.56,3.39-16.49,1.71-4.26,1.67-8.61,2-13.09,0.84-10.81,1.77-21.62,2.62-32.43,0.89-11.22.2-23.53,2.28-34.57s2.67-15.33-3.16-26.55c-5.13-9.86-10.19-19.63-14.6-29.84-3.48-8.06-11.31-21.47-10.35-30.67,1.42-13.69,29.67-13.21,40.32-13.7,0.42,18.2-.58,36.22-1.13,54.4-0.52,17.49,9.32,33.43,2.58,49.6-7,16.71-6.36,36.94-9.53,54.79-1.92,10.8,4.34,44.19-14.43,38.56h0Z" transform="translate(-2142.7 441.96)"/><path class="cls-3" d="M2355.8,100c0.41-18.76,3.18-37.53,4.3-56.27,0.5-8.31,2.61-16.48,3.35-24.43,0.93-10-5.92-18.91-10.31-27.43a326.5,326.5,0,0,1-13.71-30.36c-2.26-5.76-8.73-17.8-6.37-24.25,4-10.84,30.82-10.39,40.2-10.82,0.38,16.44-.1,32.77-0.9,49.19,0.41-7.53-8.4-20.84-17.39-13.87-5.81,4.51-1.75,17.38-.18,23,3.23,11.46,11.29,20.41,15,31.27,2.42,7.16-2,9.08-3.9,16-4.39,15.78-2.45,34.45-4,50.7-0.74,8-1.22,16.81-3.88,24.51-1.94,5.61-8.62,17,4.06,13.53,0.52,4.9-15.85,5-16.7-.89-0.54-3.71,10.3-13.46,10.44-19.8S2355.66,106.42,2355.8,100Z" transform="translate(-2142.7 441.96)"/><path class="cls-4" d="M2349.1,123.43c4.31,2.06,9.22,1.11,13.06-1.46,0.73,7,.16,9.65-7.24,11.16-8.46,1.72-10.8-3-5.83-9.7C2349.6,123.67,2347.29,125.86,2349.1,123.43Z" transform="translate(-2142.7 441.96)"/><path class="cls-4" d="M2345.36,120.07c1.4,2.44,2.6,2.57,2.92,4.69,0.29,1.91-2.32,5.4-2,8-6-1.74-3.39-9.11-.92-12.67C2346.1,121.35,2342.49,124.2,2345.36,120.07Z" transform="translate(-2142.7 441.96)"/><path class="cls-5" d="M2360.33,131.18c5.13-11.1-15-3.44-12.89,1.84-7-.35-5-9.19-2.08-12.95,3.14,6.18,11.79,4.94,16.81,1.89C2362.56,125.47,2364.1,129.34,2360.33,131.18Z" transform="translate(-2142.7 441.96)"/><path class="cls-6" d="M2417.13-111.46c5.73,1.81,7.69,7.35,8.23,12.83,1.32,13.21-1.42,25.86,1.36,39.31,2.31,11.2,8.09,21.12,10.25,32.3,1.2,6.21,4.33,29.7-4.07,31.64,9-19.43-4.17-40.9-11.68-58.33C2413.22-72.32,2419.32-91.76,2417.13-111.46Z" transform="translate(-2142.7 441.96)"/><path class="cls-7" d="M2417.17-78.94a146.49,146.49,0,0,0,0-32.13c15.38,5,7.13,37.28,5.33,47.77-1.87,10.89,7.24,21.66,10.57,31.59a78.48,78.48,0,0,1,3.7,14.82c0.22,1.68,1,11.31,1.31,9-0.44,4.68-.8,10.89-5.13,12.92,13.22-29-19-54.86-15.78-83.95C2419.06-95.83,2415.28-62.05,2417.17-78.94Z" transform="translate(-2142.7 441.96)"/><path class="cls-8" d="M2436.17,52.07c3.7-12.06-11.41-19.39-8.73-32.37-1,4-1.47,8.79-.32,12.81-3.37-5.79-5.28-12.64-3.36-19.2,2-6.87,11.13-10.89,12.28-17.36,7.13,9.08-8.42,28.66,9.14,29.7-2.23,1.49-5.43,2-7.65,0,8.06,5,9.69,13.84,3.4,21.3,1.08-4.17,1.12-9.62-1.38-13.31C2442.15,39.9,2440.31,46.85,2436.17,52.07Z" transform="translate(-2142.7 441.96)"/><path class="cls-9" d="M2436.35-3.63c2.8,8.63-11.79,33.27,8.82,29.27C2428.4,23.69,2443,6,2436.35-3.63Z" transform="translate(-2142.7 441.96)"/><path class="cls-9" d="M2427.45,20.12c0.75,11.4,17,20.66,8.73,31.95C2439.44,41.43,2427.14,31.92,2427.45,20.12Z" transform="translate(-2142.7 441.96)"/><path class="cls-10" d="M2439.54,33.63s7.44,3.79,1.38,13.31A16.3,16.3,0,0,0,2439.54,33.63Z" transform="translate(-2142.7 441.96)"/><path class="cls-10" d="M2435.4,1.18a17.3,17.3,0,0,0-6.17,16.63S2429.76,5.57,2435.4,1.18Z" transform="translate(-2142.7 441.96)"/><path class="cls-10" d="M2431.67,13.33s-6.49,14.47,4.25,19.28C2435.93,32.61,2428,27.32,2431.67,13.33Z" transform="translate(-2142.7 441.96)"/><path class="cls-10" d="M2443.3,35s-1.54-4.21-8.65-7A9.31,9.31,0,0,1,2443.3,35Z" transform="translate(-2142.7 441.96)"/><path class="cls-2" d="M2163.66-428.44c1.82,8.27,1.53,25.68,13,16.11,4.49-3.75,4.86-2,3.45-6.37C2178.26-424.3,2168.6-428.15,2163.66-428.44Z" transform="translate(-2142.7 441.96)"/><path class="cls-3" d="M2168.15-422.2c0.73,1.65.68,21.94,8.38,14.72C2182.21-412.79,2172.37-420.83,2168.15-422.2Z" transform="translate(-2142.7 441.96)"/><path class="cls-11" d="M2178.45-411.73c-0.93-5.48-4.32-10.52-10.3-10.47,2.89,2.83,1.6,6.73,3.6,9.36,0.83,1.09,7.51,5.83,6.7,1.11C2176.53-423.06,2178.94-408.9,2178.45-411.73Z" transform="translate(-2142.7 441.96)"/><path class="cls-12" d="M2178.45-411.73c0.51,3-6.45,2.47-6.68-.9,7.46,0.18-.39-8.66-3.62-9.58,6,0,9.37,5,10.3,10.47C2178.93-409,2176.53-423.06,2178.45-411.73Z" transform="translate(-2142.7 441.96)"/><path class="cls-3" d="M2180-410.42a24.4,24.4,0,0,0-16.37-18C2170.68-428.49,2188.59-417.25,2180-410.42Z" transform="translate(-2142.7 441.96)"/><path class="cls-13" d="M2310.73-236.65c1.28,0-5.81-4.57-5.75-4.78a3.13,3.13,0,0,1,1.56-.65c-0.49-1-5.88-1.21-5.88-2,0-.58,1.13,0,1.07-1-0.1-1.21-3.84-1.07-3.84-2a2.51,2.51,0,0,1,1.42-1c-0.1-.72-3.18-1.54-3-2.08s1.86,0.06,1.84-.63c0-.9-4.28-2.26-4-2.82s2.16,0.76,2.16.09c0-1-4.61-3.65-4.32-4.32,0.35-.87,2.74,1,2.92-0.49,0.13-1.2-4.81-2.07-4.53-2.91,0.21-.61,3.36.72,4,0.1-0.09-1-5.19-2.57-4.94-3.15s1.53,0,2,.05c-0.76-1.47-7.32-3.14-7.22-5.38a2.88,2.88,0,0,1,1.77-1.09c-0.09-.71-3.12-1.89-2.89-2.44s1.74,0.06,1.65.06c-0.29-.19-4.95-2.09-4.84-2.39s2.89,0.07,3.17.1c-0.1-.77-4.71-3.67-4.42-4.08s2.33,1,2.82,1.06c-0.16-.25-5.1-4.7-5-4.92,0.25-.46,1.8.68,2.22,0.23,0.61-.61-4.38-5.59-3.86-6,0.2-.17,2.37,1.88,2.43,1.45,0.26-1.68-6.31-7.18-5.71-7.85,0.41-.43,1.77,1,2.38,1-0.24-1.19-6.05-6.34-5.67-6.75,0.06-.07,3,1.41,3.24,1.57,0-1.42-6.21-7-5.76-7.45s3.46,2.93,4.36,3.31c-0.31-.88-4.61-5.52-4.36-5.77,0.08-.07,3.4,1.71,3.71,1.92,0-1.56-6.63-6.92-6.15-7.49,0.22-.27,3.31,1.72,3.36,1.06,0.06-1.28-7.81-8.9-7.43-9.28,0.49-.53,2.79,2.06,3.69,2.06-0.09-1.46-6-6.06-5.45-6.75,0.15-.21,3.11.59,3.34,0.67-0.19-1.44-6.56-7.45-6-8,0.39-.39,3.39,1.77,1.83,1,0,0.05-3.39-3.66-3.24-3.84,0.3-.4,1.32.26,1.63,0.32,0.71-.92-5.26-4.85-4.78-5.5,0.32-.39,2.49,1.2,3,1.2,0.12-1.53-6.37-5.69-5.73-6.45,0.63-.61,3.15,2.46,4.23,2.46-0.1-1.46-6.36-6.12-5.85-6.75,0.4-.47,2.19,1.12,2.86,1.12-0.36-1-5.6-6.18-5.29-6.49,0.63-.53,8.13,4.77,2.85,2-0.41-.85-5-6-4.73-6.26,0.45-.53,2.79,2,3.67,2-0.34-1.23-7-6.61-6.67-7s2.78,1.63,3.59,1.63c0.22-1.19-5.6-4.54-5.13-5.22,0.38-.5,2.36,1.14,3,1.14-0.1-.59-3.87-3.12-3.64-3.5s3.1,1.15,3.1.1c0-1.55-6.78-3.66-6.43-4.36s4.67,1.34,2.26.7c-0.11-.13-5.11-4.82-4.91-5.05,0.5-.55,3,2,4,2-0.14-1.2-6-5.27-5.6-5.72s5.88,3,2.4,1.25a41.72,41.72,0,0,1-3.92-3.66c0.28-.44,1.16.52,1.47,0.19,0-.79-4.59-5.46-4.25-5.78s2.88,2,3.12,2.21a26.42,26.42,0,0,0-10.2-10.5c0,15.07,10.57,28.09,16.47,41.92q9.58,22.45,19.16,44.91c6.65,15.62,11.93,33.28,21.26,47.45C2283.16-254.46,2293.62-236.65,2310.73-236.65Z" transform="translate(-2142.7 441.96)"/><path class="cls-14" d="M2217.77-401.63c0,15.22,11.38,29.59,17.39,43.7q9.73,22.81,19.46,45.62c6.8,16,11.94,33.94,22.52,47.79,8.55,11.18,17.43,29.34,33.74,27.66-2.43-2.59-7.77-2.74-4.61-5.17-3.51-2.32-4.6-.61-4.74-3-0.43-1-3.85-1-3.85-2a2,2,0,0,1,1.4-1c-0.34-.45-3.14-1.5-3-2.16,0.14-.5,1.59-0.45,1.83-0.55-0.31-.79-4.37-2.13-4-2.93s2,0.15,2.13.14c-0.31-.79-4.62-3.64-4.29-4.36s2.31,0,2.89-.43c-0.43-.81-4.78-2.11-4.51-3s3.29,0.16,3.87.06c-0.39-.42-5.09-2.51-4.85-3.11s1.31-.07,1.46,0c-1.21-.5-6.72-4-6.66-5.21a2.36,2.36,0,0,1,1.75-1.07c-0.15-.22-4.35-3.14-2.07-2.71q-3.13.1-4-2.14c0.23-.68,2.62.12,3.07,0-0.32-.43-4.67-3.53-4.3-4.07s2.9,1,2.41.76c-0.27-.29-4.9-4.06-4.54-4.62s2.11,0.21,2.19.2c-0.22-.64-4.35-5.54-3.78-6s3,1.8,2.34,1.49c-0.35-1.5-6.25-7.2-5.64-7.87s2.32,0.9,2.12.82c-0.31-.45-5.86-6.08-5.4-6.56,0.63-.66,5.1,2.18,3.13,1.54-0.51-1.22-6.16-6.94-5.64-7.42,1-.92,7.9,5.81,3.9,2.84-0.19-.28-4.38-4.82-3.92-5.29,0.7-.71,2.77,1.62,3.6,1.88-0.55-1.29-6.54-6.87-6.05-7.44s2.46,1.14,3.3,1.14c-0.44-1.74-8-8.66-7.36-9.37s6,3.12,3.42,1.85c-0.32-.51-5.58-5.95-5.2-6.51s2.62,0.57,3.19.62c-0.47-.81-8.1-9.89-4.72-7.63-1.55-1.78-4.06-3.4-1-2.93-0.31-.63-5.15-4.87-4.71-5.43s4.2,1.46,2.89,1.06c-0.33-.47-6-5.85-5.57-6.32,0.82-.87,7.66,4.12,3.92,2.22-0.29-.43-5.94-6-5.55-6.5,0.51-.65,3.43,1.24,2.58.92-0.28-.4-5.49-5.83-5-6.3,0.66-.6,2.79,1.82,2.29,1.42-0.19-.27-4.65-5.17-4.17-5.67,0.74-.73,5.34,2.85,3.27,1.76-0.73-.94-6.7-6.15-6.28-6.67,0.64-.78,5.79,2.29,3.44,1.48-0.31-.42-5.35-4.55-5-5.06,0.52-.69,3.56,1.24,2.67.91q-3-.84-3.3-3.25c0.44-.79,2.76,1,3.08.21-0.22-1.27-6.89-3.5-6.41-4.45,0.33-.62,1.63.27,1.71,0.31-0.13-.13-4.8-4.15-4.33-4.7,0.73-.83,6.63,3.1,3.67,1.79-0.1-.13-7.71-7.5-4-5.12-1.31-1.16-4.39-3-1.4-2.64-0.28-.54-4.64-5.27-4.15-5.74s2.15,1.23,2.54,1.52A26.25,26.25,0,0,0,2217.77-401.63Zm-0.43-.69a27.19,27.19,0,0,1,11.06,11.62c-1.16-1-2.48-1.82-3.61-2.85,1.12,1.18,4.22,3.88,4.32,5.56q-0.58.77-1.51,0c0.72,0.53,3.74,3.87,4.07,3.87a13,13,0,0,1-2.56-1.45c1.36,1,5.48,3.79,5.64,5.6,0.05,0.61-4-1.89-4-1.89,1.33,1.19,4.62,3.35,5.11,5.08,0.06,0.23-2.43-.76-2.44-0.77,1.26,0.5,6.45,2.65,6.45,4.27,0,1.12-2.78.07-3.14,0,0.86,0.61,3.49,2.31,3.66,3.41,0.09,0.53-3-1-3.05-1,1,0.73,5.43,3.75,5.21,5.13-0.13.66-3.58-1.47-3.69-1.54,1.12,1,6.14,7,6.5,7a14.93,14.93,0,0,1-3.52-2.11c0.47,0.52,4.55,6.39,4.76,6.39a13.9,13.9,0,0,1-2.88-2.14c0.51,0.52,5.19,6.54,5.14,6.54a10.54,10.54,0,0,1-2.69-1.2c1,0.93,5.55,6.83,5.68,6.83-1.19,0-3.17-1.82-4.07-2.53,1.08,1,5.87,4.61,5.84,6.32,0,0.66-3.05-1-3.14-1.08,1.38,1.17,4.39,3.35,4.82,5.17,0.21,0.92-1.55,0-1.68,0,0.54,0.51,3.18,4,3.32,4a8.25,8.25,0,0,1-1.92-1.15c1.35,1.59,6.11,5.77,6.05,7.89,0,0.62-3.19-.52-3.37-0.59,0.87,0.9,5.24,6.84,5.28,6.84a14.35,14.35,0,0,1-3.54-2.13c1.66,1.76,7.61,6.63,7.48,9.15-0.06,1-3.19-.83-3.4-0.94,1.31,1.29,6.22,5.24,6.2,7.36,0,0.9-3.71-1.73-3.77-1.78,0.46,0.46,4.32,5.86,4.33,5.86-1.14,0-3.55-2.61-4.33-3.4,1.26,1.32,5.85,5.24,5.82,7.3,0,0.88-3.22-1.39-3.29-1.44,0.9,0.91,5.42,6.82,5.51,6.82a7.74,7.74,0,0,1-2.22-1.08c0.85,0.94,6,8,5.46,8a6.21,6.21,0,0,1-2.21-1.62c1.21,1.42,3.65,3.81,3.95,5.7,0.14,0.84-2.1,0-2.27,0,0.6,0.48,4.75,5,4.87,5a11.85,11.85,0,0,1-2.74-1.16c1,0.54,4.29,2.82,4.46,3.93,0.1,0.68-3,0-3.18,0,0.9,0.32,4.59,1.45,5,2.35a1.68,1.68,0,0,1-1.78,0,11.13,11.13,0,0,1,2.91,2.35,3,3,0,0,1-1.77,1.11c3.18,1.55,2.84,1.32,3,3.78,0.47,0.14,4.24.93,4.17,1.61a1.88,1.88,0,0,1-2.05,0c0.89,0.3,4.86,2,5,3,0.07,0.76-3.67.06-4,0,0.71,0.23,4.66,1.92,4.55,2.87s-2.53.54-2.93,0.55c0.93,0.56,4.3,3.09,4.34,4.23,0,0.85-1.93,0-2.18,0,0.73,0.28,4,1.8,4,2.73s-1.45.52-1.85,0.68a8.89,8.89,0,0,1,3,2,2.25,2.25,0,0,1-1.42,1c3.85,1.42,2.31,1.93,2.77,3,0.72,0.07,6,1.21,5.88,2a1.73,1.73,0,0,1-1.57.68c0.75,0.46,6.4,3.48,6.25,4.64-0.72,5.44-17.94-6-18.75-6.75-6.5-6.4-11.89-15.19-17.25-22.58-10.15-14-15.3-32.23-22-48.08q-9.76-22.92-19.55-45.82C2227.85-374,2217.35-387,2217.35-402.32Z" transform="translate(-2142.7 441.96)"/><path class="cls-15" d="M2226.6-393.77c-6-2.35.29,7.81,1.08,9.24,4.48,8.11,9.64,15.83,14.06,24,6.3,11.62,11.12,23.84,15.92,36.12,6.54,16.73,13.46,33.7,22.31,49.34,3.78,6.67,19.09,23.82,18.14,28,3.62,1.8,2.34,1.63,2.77,3,4.22,1,6.77,4.55,10.55,7.37-8.51,0-12.46-.59-18.92-7-6.77-6.69-13-16-18.27-23.91-9.42-14-14.63-31.89-21.26-47.45q-9.56-22.46-19.16-44.9c-6-14-16.49-27.05-16.49-42.35a26.23,26.23,0,0,1,9.26,8.55C2216.44-397.74,2222.42-400,2226.6-393.77Z" transform="translate(-2142.7 441.96)"/><path class="cls-16" d="M2145.27-352.15c-0.41-1,.43-9.84.82-11.46,0.53-2.17,2.54-1.75,3-3,1-2.78,1.31-5.56,2.54-8.4,3.08-7.13,8.73-11.83,12.86-18.07,3.3-5,3.42-10.87,7.27-15.59,4.09-5,11.53-6.54,14.5-12.23,2.74-5.25-1.34-13.38,2.49-17.93,4.93-5.85,9.21-1,9.29,3.75,0-.57-5.15,12.83-1.52,12.76,6.92-1.18,6-7.3,8.58-12.07,3.05-5.71,15-8.8,11.16,1-1.84,4.78-10.08,4.05-8,11.35,1.26,4.45,6.26,6.32,6.8,12.37,6.14-8.6,15-19.92,26.93-17.61-9.23,11-2.48,26.85-21,29.36,2.08,10.73,10.39,20.41,15.49,29.79,8.18,15,15,30.88,21.53,46.66,10.52,25.29,20.27,53.73,38.55,74.79,5.43,6.26,13.19,9.73,18.88,15.89,11.29,12.22,12.37,29.53,26.06,40,23.86,18.19,59.53,16.56,74.22,47,6.19,12.82,8.64,28.43,9.3,42.51,0.94,20.08-6.61,32.78-13.88,50.82-6.31,15.64-10.8,34.7-6.25,51.5,1.39,5.12,5.27,8.88,6.75,13.75,2.45,8.05-2,16.88-3.55,24.71-4.45,22.4-2.89,45.77-4.34,68.44-0.11,1.77.57,4.16-.07,5.73-1.29,3.16-3.82,2.87-4.87,4.68-3,5.09-1.56-1.1-.75,6.35,0.72,6.64,5.29,5.88-2.83,8.07-3.38.91-12.14,0.31-14-3.63-3-6.25,7.23-12.23,9.75-17.45,7.6-15.78,4-40.49,3.89-57.45,0-8.43.07-16.92-.29-25.34-0.49-11.62-8.23-19.25-10-31.16-1.2-7.89-1.75-15.85-2.78-23.76-0.73-5.57-1-19.54-4.9-24-4.15-4.69-33.67-13.87-40.79-9.15-6.88,4.57-5.66,19.54-5.93,27.3-0.41,11.58.74,22.22,1.93,33.59,0.82,7.83-1.47,14.83-2.08,22.56-0.62,8,.37,16,0.93,24,1,14.67,1.51,29.38,2.56,44.06,0.64,8.94,3.39,19.33,2.43,27.39-0.37,3.1-.13,16.09-2.13,18.4-2.93,3.39-18.88,3.56-21.07-1.73-1.49-3.58,5.23-9.52,6.66-13.19,1.72-4.43,1.57-4,1.91-8.87,0.57-8,0-16-.48-24-1.11-20.31-.23-42.6-4.42-62.55-1.15-5.48-4.67-9.87-5.67-15.32-0.74-4,.18-8.75.05-12.85-0.5-16.54-2.56-34.36-7.67-50.08-1.33-4.09-3.33-13.15-6.85-16.11-1.37-1.15-10.09-4.36-12.15-3.9-8.76,2-10,29.11-11.5,37.21-1.73,9.52-3.05,18.59-3,28.26,0,8.81-2.53,13.83-5.2,22-3.12,9.56-3.75,20.3-4.91,30.22-2.72,23.19-2.8,45.87-3.72,68.31-5.87.35-18.62-1.58-20.41-8.93-1.51-6.21,6.78-8.58,9.15-13.7,4.88-10.52,3.64-26.59,4.33-37.91,0.8-13.09,2.75-27,2-40.14-0.88-15.9,4-29.76,3-45.8-1.11-18.58,4.84-39.87.93-58-1.86-8.58-7.88-15.7-10.2-24.24-3-11-1.78-22.65,1.33-33.53s8.73-20.36,9.3-31.85c0.59-12-2.82-23.88-4.93-35.61-3.83-21.37-7.86-42-15.31-62.5-6.93-19.05-16-37.4-23.68-56.19-2.83-7-5.34-14.45-9.16-20.95-1.92-3.27-4.44-4.49-4.64-7.82-14.1-2.71-24.13,15-36.69,17.52C2156.36-343.26,2136.8-341.44,2145.27-352.15Z" transform="translate(-2142.7 441.96)"/><path class="cls-11" d="M2235.38-422.26c-5.35,6.27-17.54,9.08-16.87,18.8a17.32,17.32,0,0,0,13.17-5.92c1.93-2.22,5.14-14.56,3.7-12.88h0Z" transform="translate(-2142.7 441.96)"/><path class="cls-11" d="M2159.34-344.95c4.3-2.25,6.35-7.92,11.34-8.73C2165.26-353.71,2161.19-349.91,2159.34-344.95Z" transform="translate(-2142.7 441.96)"/><path class="cls-11" d="M2152.71-357.17c0.52-3.78,6.12-9.39,9.85-6C2165.68-360.32,2153.31-357.45,2152.71-357.17Z" transform="translate(-2142.7 441.96)"/><path class="cls-11" d="M2149.63-358.7a9.19,9.19,0,0,0-3.47-5.11S2144.31-358.6,2149.63-358.7Z" transform="translate(-2142.7 441.96)"/><path class="cls-4" d="M2400,132.15c-0.05,5.78-.36,5.89-5,8.23-1.71.85-12.32,2.78-13.61,0.32a33.49,33.49,0,0,1,1.72-6.56q0.21-4.05,3.11-1.91c2.72-1.12,10.47.48,13.81-.07C2400,134,2392,133.48,2400,132.15Z" transform="translate(-2142.7 441.96)"/><path class="cls-4" d="M2380.3,126.06c-0.23,3.49,3.51,3.06,3.93,5.45,0.35,2-2.52,7.07-2.86,9.18-7.92-2.53-4.47-9.14-1.07-14.63C2380.2,127.52,2378.73,128.59,2380.3,126.06Z" transform="translate(-2142.7 441.96)"/><path class="cls-4" d="M2333.76,138.06c-0.88,5.74-2.21,8.25-8.06,10-2.21.67-10.23,1.83-11.53-.34-5.89-9.82,15.94-8.34,19.59-9.67C2333.51,139.69,2326,140.88,2333.76,138.06Z" transform="translate(-2142.7 441.96)"/><path class="cls-4" d="M2316.7,139.07a32.56,32.56,0,0,0-2.53,8.66c-7.47-2.35-6-7-2.2-12.61a8,8,0,0,0,4.74,4C2315.56,141.78,2314,138,2316.7,139.07Z" transform="translate(-2142.7 441.96)"/><path class="cls-4" d="M2230.78,110.65a24.86,24.86,0,0,1,4.34-7.49c-1.34,1.89.83,5.1,0.57,6.89-0.43,2.89-3.33,6.2-3.87,9.43-4.24-1.88-2.1-5.51-1-8.83h0Z" transform="translate(-2142.7 441.96)"/><path class="cls-4" d="M2255.72,115.45c-0.35,7.45-35.7,12.05-19.05-6.75,4.48,5.4,12.39,7.14,19.05,6.75C2255.68,116.45,2246.14,116,2255.72,115.45Z" transform="translate(-2142.7 441.96)"/><path class="cls-14" d="M2207.25-404.82c-0.33,0-.66-7.61-0.72-7.63C2205.31-412.81,2205.1-404.82,2207.25-404.82Z" transform="translate(-2142.7 441.96)"/><path class="cls-14" d="M2186-393.93c-1.47,0,2.64-13.4,3.36-13.31C2187.13-407.58,2183.32-393.93,2186-393.93Z" transform="translate(-2142.7 441.96)"/><path class="cls-14" d="M2202.25-400.18c-0.36,0-2.26-11.26-1.6-10.91C2198.59-412.14,2200-400.18,2202.25-400.18Z" transform="translate(-2142.7 441.96)"/><path class="cls-14" d="M2175.14-366.18c1.26,0,10.17-11.16,9.14-11.72C2183.6-378.29,2175.39-366.18,2175.14-366.18Z" transform="translate(-2142.7 441.96)"/><path class="cls-14" d="M2197.46-361.26c3.75,0,9.84-3.38,12-6.25,1.84-2.47,5-20.33,3.14-20.87,0.92,0.25-2.93,19.3-4.9,21.4C2206.14-365.34,2198-361.26,2197.46-361.26Z" transform="translate(-2142.7 441.96)"/><path class="cls-14" d="M2198.63-358.8c1.5-.1,17.53-5.92,15.33-7.3C2214.72-365.6,2198.12-358.8,2198.63-358.8Z" transform="translate(-2142.7 441.96)"/><path class="cls-14" d="M2200.34-355.73c4-.1,8.15-0.95,11.42-3.4,1.14-.85,7-8.24,5.25-8.57-0.32-.05-3.67,6.14-4.19,6.65C2210.14-358.41,2202.3-355.73,2200.34-355.73Z" transform="translate(-2142.7 441.96)"/><path class="cls-14" d="M2223.09-384.41c-1.16,0-1.12-13.12-1.71-13.55-6.19-4.45-6,4-5.84,4,2.74-1.41-2.67-4,5-3.5C2220.35-395.93,2220.75-384.41,2223.09-384.41Z" transform="translate(-2142.7 441.96)"/><path class="cls-14" d="M2231.7-299.2c-2.41,0-11.15-57.75-13.3-57.34C2218.78-356.62,2228.11-299.2,2231.7-299.2Z" transform="translate(-2142.7 441.96)"/><path class="cls-14" d="M2275.93-158.08c-8.33,0-23-50.5-24.53-50.14C2251.12-208.15,2266.36-158.08,2275.93-158.08Z" transform="translate(-2142.7 441.96)"/><path class="cls-14" d="M2295.7-67.14c-0.48,0-18.48-23.08-19.46-24.24-6.29-7.46-10.92-15.46-12.24-25.24-0.12-.87,0-12.73-0.19-12.78-1.48-.33-0.89,10.75-0.82,11.42a47.1,47.1,0,0,0,9.55,23.57C2273.95-92.54,2292.8-67.14,2295.7-67.14Z" transform="translate(-2142.7 441.96)"/><path class="cls-14" d="M2333.69-57.71c7.8,0,0-55.3-4.4-52.79,2.77-1.58,6.5,32,6.32,35.17C2335.55-74.13,2333.61-57.71,2333.69-57.71Z" transform="translate(-2142.7 441.96)"/><path class="cls-14" d="M2376.21-51.71c-2.82,0-5.38-19.13-5.46-22.14,0-1,1.27-14.3.95-14.37C2371.09-88.38,2366.88-51.71,2376.21-51.71Z" transform="translate(-2142.7 441.96)"/><path class="cls-14" d="M2150.16-362.08c0.63,0-.67-4.9-1-4.92C2148-367,2149-362.08,2150.16-362.08Z" transform="translate(-2142.7 441.96)"/><path class="cls-14" d="M2148.45-356.75c0.65,0-2.68-5.39-2.5-5.38C2144.63-362.17,2146.72-356.75,2148.45-356.75Z" transform="translate(-2142.7 441.96)"/><path class="cls-14" d="M2161-357.78c3.25,0,6.14-4,5-6.93-1.75-4.36-10.3-.2-9.88.39,1.29,1.86,8.65-5.94,9.15,1.35C2165.36-361.06,2161-357.78,2161-357.78Z" transform="translate(-2142.7 441.96)"/><path class="cls-14" d="M2197.47-420.11c2.1,0,6.59-7.3,5.4-7.63C2203-427.7,2197.41-420.11,2197.47-420.11Z" transform="translate(-2142.7 441.96)"/><path class="cls-17" d="M2315.85-215.56c1.36,0-.59-18.19-10.31-15.4C2294.87-227.9,2308.77-215.56,2315.85-215.56Z" transform="translate(-2142.7 441.96)"/><path class="cls-10" d="M2304.31-230.78c-4.51,0,.13,9.85,1.69,11.33,0.66,0.63,9.25,5,10.55,3.4,1.15-1.44-2-9.92-2.92-11C2311.55-229.43,2307.72-230.78,2304.31-230.78Zm0-.82c5.1,0,8,1.7,10.45,5.34,1.25,1.87,4,9.47,1.74,10.95-2.55,1.68-10.87-2.68-12.4-4.43C2302.41-221.67,2299.83-231.6,2304.31-231.6Z" transform="translate(-2142.7 441.96)"/><path class="cls-17" d="M2285.89-236.34c12.71,0,5.05-14.14-2.24-16.38C2270.42-256.8,2276.18-236.34,2285.89-236.34Z" transform="translate(-2142.7 441.96)"/><path class="cls-10" d="M2280.8-253.5c-10,0-1.8,20,7.81,15.73C2298-242,2287.55-253.5,2280.8-253.5Zm0-.82c8.45,0,19.63,16.22,6.25,18.24C2277.92-234.7,2269.31-254.32,2280.8-254.32Z" transform="translate(-2142.7 441.96)"/><path class="cls-17" d="M2219.26-375.11c6.84-.21,5.58-6.28.9-9.39C2212.42-389.64,2213.19-375.37,2219.26-375.11Z" transform="translate(-2142.7 441.96)"/><path class="cls-10" d="M2217.15-386.52c-5.57,8.85,5.23,14.7,7,9C2224.6-379,2218.61-386.39,2217.15-386.52Zm-0.08-.82c4.1,0,10.41,9.79,5.24,12.19C2212.93-370.79,2212.48-387.34,2217.07-387.34Z" transform="translate(-2142.7 441.96)"/><path class="cls-17" d="M2233.94-355.42c6.19,0-2.46-20.59-6.17-19.66C2220.62-373.29,2227.58-355.42,2233.94-355.42Z" transform="translate(-2142.7 441.96)"/><path class="cls-10" d="M2228.66-374.88c-6.66,0-1.68,19,4.77,19C2240.82-355.86,2229.71-374.88,2228.66-374.88Zm0-.82c2.43,0,13.44,20.36,4.92,20.65C2225.91-354.79,2220.34-375.7,2228.66-375.7Z" transform="translate(-2142.7 441.96)"/><path class="cls-17" d="M2224.13-347.83c4.06,0,5.7-8.72,1.16-9.83C2218.23-359.4,2221.2-347.83,2224.13-347.83Z" transform="translate(-2142.7 441.96)"/><path class="cls-10" d="M2224-357.29c-6.09,0,0,14.78,3,5.61,0.92-2.76.64-5.61-3-5.61h0Zm0-.82c4.77,0,6.06,4.76,2.92,8.15C2220.59-343.12,2218.2-358.11,2224-358.11Z" transform="translate(-2142.7 441.96)"/><path class="cls-17" d="M2213.06-336.23c1.93,0,3.79-15-7.95-13.93C2205.25-347.37,2209.32-336.23,2213.06-336.23Z" transform="translate(-2142.7 441.96)"/><path class="cls-10" d="M2206-349.8c-0.71,0,3.93,12.65,6.89,13.15C2214.71-344,2216-349.8,2206-349.8Zm0-.82c5.68,0,15,6.18,8,13.1C2208.72-332.27,2204.08-350.63,2206-350.63Z" transform="translate(-2142.7 441.96)"/><path class="cls-17" d="M2240.19-341.35l3-.46C2237.79-354,2235.07-341.35,2240.19-341.35Z" transform="translate(-2142.7 441.96)"/><path class="cls-10" d="M2238.82-347.12c-3.23,0-1.64,6.43,3.81,5C2243.56-340.23,2239.64-347.12,2238.82-347.12Zm0-.81c8.7,0,2,12.56-1.36,6.42C2236.52-343.21,2235.28-347.93,2238.82-347.93Z" transform="translate(-2142.7 441.96)"/><path class="cls-17" d="M2223-318c5.44,0-.39-16-0.82-18.66C2215.16-337.46,2217.8-318,2223-318Z" transform="translate(-2142.7 441.96)"/><path class="cls-10" d="M2221.79-336.19c-5.43.06-4,15.81,0.83,17C2227.91-317.86,2222-333.79,2221.79-336.19Zm0.32-.84c1.43,0,6,17.65,1.92,19.19C2218.9-315.89,2213.05-337,2222.11-337Z" transform="translate(-2142.7 441.96)"/><path class="cls-17" d="M2236.94-315.36c8.46,0,6-19.21-1.68-23C2220.22-345.66,2226.69-315.36,2236.94-315.36Z" transform="translate(-2142.7 441.96)"/><path class="cls-10" d="M2231.8-339.65c-11.16,0-1.87,27.77,6.82,23.59C2244.22-318.74,2241.66-339.65,2231.8-339.65Zm0-.82c2.69,0,7.93,3.93,8.84,5.65,1.1,2.07,2.32,16.06,1.07,17.67C2232.22-305,2216.81-340.47,2231.8-340.47Z" transform="translate(-2142.7 441.96)"/><path class="cls-17" d="M2257.36-311.38c8.11,0-4.91-15.31-7.86-14.68C2242.16-324.51,2253.56-311.38,2257.36-311.38Z" transform="translate(-2142.7 441.96)"/><path class="cls-10" d="M2250.17-325.79c-6.89,0,2.07,11.43,4.31,12.38C2266.46-308.34,2253.68-325.79,2250.17-325.79Zm0-.82c3.57,0,17.11,17.42,5.56,15.06C2251.89-312.35,2241.3-326.61,2250.17-326.61Z" transform="translate(-2142.7 441.96)"/><path class="cls-17" d="M2249.69-293c1.58,0,5.29-4.6,5.81-5.8,2.09-4.84-2.13-14.92-8.89-15.3C2235.07-314.77,2244.55-293,2249.69-293Z" transform="translate(-2142.7 441.96)"/><path class="cls-10" d="M2246.06-313.84c-10.21,1.79-.43,20.57,4.77,19.54C2261.35-296.36,2254.19-313.84,2246.06-313.84Zm0-.82c3.29,0,8.22,5.38,9.6,8,1.84,3.5.62,13.76-5.6,14C2244.52-292.45,2234.41-314.66,2246.06-314.66Z" transform="translate(-2142.7 441.96)"/><path class="cls-17" d="M2235-285.33c9.23,0,8.39-14,2.91-17.7C2224.69-312,2230.1-285.33,2235-285.33Z" transform="translate(-2142.7 441.96)"/><path class="cls-10" d="M2234.24-304.89c-8.41,0-2.65,28.48,5.77,14,2.36-4.06,2.51-2.46,1.19-6.64C2240.64-299.29,2236.68-304.89,2234.24-304.89Zm0-.82c7.88,0,10.92,13.07,4.8,17.59-5,3.69-4.53,4.52-7.75-3.09C2229.8-294.72,2226.06-305.71,2234.24-305.71Z" transform="translate(-2142.7 441.96)"/><path class="cls-17" d="M2266.76-283.61c4.62,0,.68-10.83-1.46-11.82C2256.72-299.42,2261.13-283.61,2266.76-283.61Z" transform="translate(-2142.7 441.96)"/><path class="cls-10" d="M2262.61-295.17c-5.84,0,1.83,14.58,5.86,10.92C2271.35-286.87,2267-295.17,2262.61-295.17Zm0-.82c5.54,0,9.4,11,5,12.7C2261.86-281.05,2256.55-296,2262.61-296Z" transform="translate(-2142.7 441.96)"/><path class="cls-17" d="M2267.87-260.88c2.3,0-.68-22.64-9.55-20.58-5.82,1.35-6.55,14.42-3.68,17.85C2256.82-261,2265.35-260.8,2267.87-260.88Z" transform="translate(-2142.7 441.96)"/><path class="cls-10" d="M2259.33-281.52c-5.17,0-7.6,13.2-5.77,16.34s13.25,5.65,15.91,3.68C2271-264.9,2264.28-281.52,2259.33-281.52Zm0-.82c7.5,0,13.26,19.55,8.42,21.87-2,1-12.14-.94-14-3.18C2250.63-267.43,2252.38-282.34,2259.33-282.34Z" transform="translate(-2142.7 441.96)"/><path class="cls-17" d="M2242.71-264.62c8.91-.54,5.94-10.12,4.15-16-12.64.48-7.72,7.73-4.15,16C2242.78-264.62,2241.68-267,2242.71-264.62Z" transform="translate(-2142.7 441.96)"/><path class="cls-10" d="M2246.56-280.15c-7.42,1.9-8.63,1.1-6.24,8.54,1.11,3.46,4.93,10.3,8.22,3.88C2249.23-269.07,2246.93-278.83,2246.56-280.15Zm0.32-.89c1.85,0,6,21.31-4.52,16.69-1.6-.7-5.35-12.18-4.72-13.48C2238.47-279.56,2244.89-281,2246.88-281Z" transform="translate(-2142.7 441.96)"/><path class="cls-17" d="M2271.54-271.11c4.2,0,.54-4.23.47-3.81S2267.91-271.11,2271.54-271.11Z" transform="translate(-2142.7 441.96)"/><path class="cls-10" d="M2272.44-274.58c-0.75,0-2,1.65-1.8,2.06C2272.28-269.33,2274.28-274.58,2272.44-274.58Zm0-.82c4.39,0-.95,5-0.9,4.7S2268.6-275.4,2272.44-275.4Z" transform="translate(-2142.7 441.96)"/><path class="cls-17" d="M2276.05-256.63c8.49,0,4.17-12.18-1.39-12.54C2267.06-269.67,2271.82-256.63,2276.05-256.63Z" transform="translate(-2142.7 441.96)"/><path class="cls-10" d="M2274.29-268.77c-6.46,0-1.75,14.11,4.38,10.87C2282.83-260.1,2278.56-268.77,2274.29-268.77Zm0-.82c5,0,9.65,9.57,5,12.33C2272-252.94,2266.35-269.6,2274.29-269.6Z" transform="translate(-2142.7 441.96)"/><path class="cls-17" d="M2268-235.88c9.57,0,5.22-20.64-2.07-21C2253.48-257.38,2256.35-235.88,2268-235.88Z" transform="translate(-2142.7 441.96)"/><path class="cls-10" d="M2265.28-256.45c-11.88,0-7.42,22.05,2.77,20.16C2277.91-238.12,2272.15-256.45,2265.28-256.45Zm0-.82c7.29,0,13.71,18.33,3.88,21.55C2257.64-231.94,2251.23-257.26,2265.28-257.26Z" transform="translate(-2142.7 441.96)"/><path class="cls-17" d="M2248.06-247.51c5.77,0,5.63-8.81,1.15-9.25C2243.73-257.31,2245.55-247.51,2248.06-247.51Z" transform="translate(-2142.7 441.96)"/><path class="cls-10" d="M2249.82-256.51c-3.31,0-4.78,3.08-3.14,6.08,4.34,7.95,7.27-6.08,3.14-6.08h0Zm0-.82c4.64,0,4.35,12.45-2,10.22C2243.14-248.76,2244.49-257.33,2249.82-257.33Z" transform="translate(-2142.7 441.96)"/><path class="cls-17" d="M2252.8-231.48c1.27,0,5.1-3,6.09-3.64-1.59-3.69-3.12-12.64-8.92-10.06C2245.32-243.11,2250.13-234,2252.8-231.48Z" transform="translate(-2142.7 441.96)"/><path class="cls-10" d="M2252.44-245.12c-5.52,0-4.21,3.58-2.68,7.54,2.75,7.14,2.77,5.26,8.59,2.28C2257.12-237.79,2255.24-245.12,2252.44-245.12Zm0-.82c4.33,0,10.48,14.62,1.43,14.45C2249.17-231.58,2243.17-245.94,2252.44-245.94Z" transform="translate(-2142.7 441.96)"/><path class="cls-17" d="M2264.81-215.25c2.47,0,9.45-8.84,8.66-11.5-0.67-2.27-9.9-6.45-11.05-6.27C2250.52-231.21,2257.63-215.25,2264.81-215.25Z" transform="translate(-2142.7 441.96)"/><path class="cls-10" d="M2262.89-232.66c-11.41,0-5.75,14.13.67,16.17C2270.88-214.15,2278.79-232.66,2262.89-232.66Zm0-.82c14.42,0,11.83,18.93,1.13,18.44C2256.21-215.4,2250.52-233.47,2262.89-233.47Z" transform="translate(-2142.7 441.96)"/><path class="cls-17" d="M2279.47-224.26c5.78,0,1.74-11-1.28-12C2267.85-239.63,2275-224.26,2279.47-224.26Z" transform="translate(-2142.7 441.96)"/><path class="cls-10" d="M2278.19-235.8c-8.62-.56-4.67,8.77.06,10C2284.86-224,2280.51-232.28,2278.19-235.8Zm0.16-.83c3.63,0,8,14.55-.59,11.55C2271.12-227.4,2270-236.63,2278.35-236.63Z" transform="translate(-2142.7 441.96)"/><path class="cls-17" d="M2298.25-228.24c3.93,0,1.13-7.5-1.61-8C2290.56-237.45,2293.6-228.24,2298.25-228.24Z" transform="translate(-2142.7 441.96)"/><path class="cls-10" d="M2297-235.92c-6.17,0-2.91,7.56,1,7.22C2301.49-229,2299.49-235.92,2297-235.92Zm0-.82c3.66,0,5.49,8.28,1,8.86C2293.59-227.32,2289.12-236.74,2297-236.74Z" transform="translate(-2142.7 441.96)"/><path class="cls-17" d="M2296.22-203.07c1.42,0,11.35-2.41,11.09-3.89-0.36-2.16-11-16.09-11.82-16.44-1.08-.46-6.68.82-7.7,1.28C2278.12-217.74,2285.58-203.07,2296.22-203.07Z" transform="translate(-2142.7 441.96)"/><path class="cls-10" d="M2295.18-223c-6,1.76-15.27.63-11.8,10.78,0.89,2.59,8.55,7.79,10.81,8.29,1.26,0.28,13.05-1,12.71-2.94C2306.24-210.76,2297.44-219.86,2295.18-223Zm0-.82c0.67,0,9.56,12,10.14,13.81,0.63,1.94,2.85,1.69,2.16,4.12-0.26.94-9.42,3.49-11.27,3.25-7-.93-12.69-5.92-13.39-12C2281.88-222.69,2288.42-223.83,2295.19-223.83Z" transform="translate(-2142.7 441.96)"/><path class="cls-17" d="M2276.35-207.94c4,0-1.85-4-2.06-4.29C2274.61-211.72,2268.1-207.94,2276.35-207.94Z" transform="translate(-2142.7 441.96)"/><path class="cls-10" d="M2274.81-211.9c-4.86,0-1.46,3.81,2,3.53C2278.73-201.92,2275.59-211.9,2274.81-211.9Zm0-.81c1.46,0,2.86,3.92,3,4.81C2278.32-205.08,2264.32-212.71,2274.81-212.71Z" transform="translate(-2142.7 441.96)"/><path class="cls-17" d="M2313-201.81c5.17,0,4.81-6.64.77-7.18C2308.72-209.69,2309.75-203.86,2313-201.81Z" transform="translate(-2142.7 441.96)"/><path class="cls-10" d="M2312.62-208.63c-4.65,0-.21,10.1,3.37,5.24C2317.5-205.44,2315.29-208.63,2312.62-208.63Zm0-.82c4.18,0,7.61,7.14,1.67,7.72C2309.67-201.29,2307.75-209.45,2312.62-209.45Z" transform="translate(-2142.7 441.96)"/><path class="cls-17" d="M2288.35-196.22c5.27,0,.19-5.72-2.3-6.37C2277.45-204.81,2281.95-196.22,2288.35-196.22Z" transform="translate(-2142.7 441.96)"/><path class="cls-10" d="M2287-202.3c-1.4,0-5.51.42-6.24,1.49s6.8,4.9,8,4c2.2-1.66,1.71-5.48-1.78-5.48h0Zm0-.82c5.11,0,5.61,10.13-3.19,5.82C2276.85-200.72,2282.16-203.12,2287-203.12Z" transform="translate(-2142.7 441.96)"/><path class="cls-17" d="M2265.06-188.22c1.1,0,12.81-8.88,12.75-10.64-0.07-2.09-6.16-6.82-8.32-7.29s-11.14.73-12.55,3C2254.8-199.78,2261-188.22,2265.06-188.22Z" transform="translate(-2142.7 441.96)"/><path class="cls-10" d="M2269.63-205.75c-1.72,0-7.82.18-9.56,1.57-4,3.24-2.83,12.12,3.46,14.52,3,1.13,10.57-4.14,11.72-7.47,1.53-4.4,3.06.21-.7-4.87-0.26-.36-4.5-3.47-4.92-3.76h0Zm0-.82c4,0,8.48,6.29,7.41,9.25s-11.32,9.41-13.68,8.68c-4.87-1.51-8.53-12-5.67-15.39C2259.54-206.2,2266.66-206.56,2269.63-206.56Z" transform="translate(-2142.7 441.96)"/><path class="cls-17" d="M2255.28-208.89c12.13,0-6.77-8.84,0,0h0Z" transform="translate(-2142.7 441.96)"/><path class="cls-10" d="M2257.23-212.71c-8.29,0,1.9,6.27,1.9,1.5a2.79,2.79,0,0,0-1.9-1.5h0Zm0-.82a2.45,2.45,0,0,1,2.36,3.11C2258.63-204.53,2247.36-213.53,2257.23-213.53Z" transform="translate(-2142.7 441.96)"/><path class="cls-17" d="M2281.86-170.92c1.57,0,14.1-8.3,14.21-10.83,0.11-2.31-9.34-7.62-11.31-7.88-9-1.19-15.89,4.33-14.25,13.11C2271.85-169.35,2274.84-170.92,2281.86-170.92Z" transform="translate(-2142.7 441.96)"/><path class="cls-10" d="M2285-189.25c-9,1.32-15.54,2-14,12.15,0.91,6,2.14,7,9.41,5.71,2.09-.36,14.58-6.42,15-9.81C2295.61-183.77,2287.3-188.26,2285-189.25Zm0.06-.83c2.09,0,11.37,6.1,11.44,8.14,0.16,4.36-12.62,10.81-16,11.36-7.93,1.32-10.42-.52-10.41-8.06C2270.1-187.41,2275.89-190.08,2285-190.08Z" transform="translate(-2142.7 441.96)"/><path class="cls-17" d="M2304.93-182c7.29,0,14.29-8.44,5.55-12.58-4.74-2.24-10,2.19-15.21,1.84C2297.81-190.69,2300.85-182,2304.93-182Z" transform="translate(-2142.7 441.96)"/><path class="cls-10" d="M2308.25-195.18c-4,0-7.81,2.81-11.84,3,5.16,6.36,5.85,11.78,14.06,6.79,4-2.42,4.51-.61,3-4.92C2312.89-192.1,2310.27-195.18,2308.25-195.18Zm0-.82c2.2,0,6,3.82,6.48,5.93,0.91,4.1-1,5.82-6.75,7-5.33,1.13-11.69-3.46-13.52-9.73C2296.81-191,2305.45-196,2308.25-196Z" transform="translate(-2142.7 441.96)"/><path class="cls-17" d="M2324.71-184.88c4.63,0,8.47-1.1,8.78-5.1,0.12-1.61-8.45-13.48-9.62-13.62C2313.7-204.84,2320.49-184.88,2324.71-184.88Z" transform="translate(-2142.7 441.96)"/><path class="cls-10" d="M2323.67-203.22c-9.45,0-2.61,16.81,1.74,17.86C2341.27-181.54,2327.48-203.22,2323.67-203.22Zm0-.82c6.67,0,17.26,23.94,1,19.57C2319.1-186,2313.64-204,2323.67-204Z" transform="translate(-2142.7 441.96)"/><path class="cls-17" d="M2322.23-165c8.71,0,8.37-8.92,1.08-11.33C2314.29-179.34,2318.65-165,2322.23-165Z" transform="translate(-2142.7 441.96)"/><path class="cls-10" d="M2322.28-176c-8.2,0-1,16.39,7,8.43C2329.11-169.68,2324.57-176,2322.28-176Zm1.28-.83c3.37,0,10.48,12.32.61,11.85C2317.47-165.26,2314-176.79,2323.56-176.79Z" transform="translate(-2142.7 441.96)"/><path class="cls-17" d="M2301.6-158.44c1.63,0,15.84-6.16,16.3-7.62,0.41-1.28-7.69-12.54-8.44-12.77-1.13-.34-13.68,5.68-13.88,5.95C2293.31-169.84,2295-158.44,2301.6-158.44Z" transform="translate(-2142.7 441.96)"/><path class="cls-10" d="M2308.75-178.63c-2.2.29-8.9,4.43-10.38,5.48-4.53,3.21-5.6,3.56-1.9,9.29,4.14,6.41,5.87,4.68,12.08,1.79,1.9-.89,7.67-2.28,9-4.12C2317.92-167.41,2309.1-178.63,2308.75-178.63Zm0-.82c1.63,0,7.12,8.18,7.64,10,1.17,4.16,2.27,1.68-.5,4.87-1.38,1.59-6.67,3.22-8.72,4-2.87,1.11-4.68,3.22-7.83,1.78s-7.67-9.67-6-12.89C2294.17-173.36,2307.06-179.45,2308.74-179.45Z" transform="translate(-2142.7 441.96)"/><path class="cls-17" d="M2283.95-154.47c8.13,0,8.54-13.65-.48-11.67C2277.61-164.86,2279.82-154.47,2283.95-154.47Z" transform="translate(-2142.7 441.96)"/><path class="cls-10" d="M2286-166.21c-8,0-6.5,10.78-2.14,11.34C2290.06-154.08,2292.61-166.21,2286-166.21Zm0-.82c8,0,4.79,14.06-2.12,13C2277.41-155.07,2278-167,2286-167Z" transform="translate(-2142.7 441.96)"/><path class="cls-17" d="M2337.2-165c8.93,0,12.25-17.32,2.56-20.17-3.27-1-11.84,3.71-12.17,6.71C2327.35-176.27,2334.86-165,2337.2-165Z" transform="translate(-2142.7 441.96)"/><path class="cls-10" d="M2339.77-184.74c-3.38,0-11.31,2.55-11.71,6.38-0.15,1.38,6.54,12.8,9.15,13C2344.69-164.91,2350.26-184.74,2339.77-184.74Zm0-.82c11.19,0,6.34,21.58-2.56,21-2.57-.17-10.43-11.59-10.11-13.82C2327.7-182.6,2336.12-185.56,2339.77-185.56Z" transform="translate(-2142.7 441.96)"/><path class="cls-17" d="M2253.7-151.47c6.2-.45,20-12.27,6.37-13.7C2254.14-165.8,2248.53-155.43,2253.7-151.47Z" transform="translate(-2142.7 441.96)"/><path class="cls-10" d="M2259.79-164.82c-3.42.82-12.74,9.62-6.16,12.94,1.25,0.63,11.57-6.33,12.54-7A38.58,38.58,0,0,0,2259.79-164.82Zm0.45-.9c1.1,0,6.56,5.46,6.52,6.43-0.07,1.64-9.79,8-11.78,7.73C2247-152.72,2253-165.72,2260.24-165.72Z" transform="translate(-2142.7 441.96)"/><path class="cls-17" d="M2243.94-131.59c7.4,0,18.13-17.42,5-15.66C2244.95-146.73,2243-131.59,2243.94-131.59Z" transform="translate(-2142.7 441.96)"/><path class="cls-10" d="M2248.74-146.89c-2,.27-6.49,12.93-5.08,14.8C2242.55-133.46,2266.14-140,2248.74-146.89Zm0.05-.82c16,0,.73,18.59-4.5,16.48C2241-132.55,2245-147.71,2248.79-147.71Z" transform="translate(-2142.7 441.96)"/><path class="cls-17" d="M2273.74-147.24c7.38,0,2.15-8-.68-8C2269-155.17,2270.74-147.24,2273.74-147.24Z" transform="translate(-2142.7 441.96)"/><path class="cls-10" d="M2273.31-154.82c-3.75,0-2.08,6,.18,7.15C2279.16-144.66,2276.88-154.82,2273.31-154.82Zm0-.82c5.28,0,7,11.46-.19,8.77C2269.73-148.13,2268.5-155.64,2273.31-155.64Z" transform="translate(-2142.7 441.96)"/><path class="cls-17" d="M2263.53-132c12.72,0,12.4-17.11,4-20.53-1.69-.69-9.66,1.91-10.49,3.42C2255.55-146.38,2260.45-132,2263.53-132Z" transform="translate(-2142.7 441.96)"/><path class="cls-10" d="M2268.15-152.43c-1.88.64-4.52,0.55-6.26,1.43-5.86,2.94-6.71,11.84-.24,16.57,2.68,2,11.35.57,12.49-4.74C2274.71-141.87,2269.29-149.73,2268.15-152.43Zm0.26-.87c1.08,0,7.17,12.58,6.48,14.49-1,2.78-9.31,8.43-12.79,6.76-2.54-1.22-6.26-12.83-5.62-15.29C2257.55-151.52,2264.1-153.3,2268.4-153.3Z" transform="translate(-2142.7 441.96)"/><path class="cls-17" d="M2293.53-135.72c14.86,0,13.3-22.11.75-20.3-1,.14-8.56,5.57-9.1,6.56C2283.16-145.81,2287.91-135.72,2293.53-135.72Z" transform="translate(-2142.7 441.96)"/><path class="cls-10" d="M2295.43-156.41c-1.25,0-8.1,5.5-8.82,6.58-1.75,2.65-2.34,1.63-1.87,4.89,0.29,2,6.23,8.55,8.78,8.81C2306.17-134.86,2307.81-156.41,2295.43-156.41Zm0-.82c13.34,0,11.72,23.61-1.9,21.91-3.4-.42-11-8.39-10.43-12.07C2283.34-149,2293.71-157.22,2295.43-157.22Z" transform="translate(-2142.7 441.96)"/><path class="cls-17" d="M2324.57-137.11c4.93,0,14.29-3.17,14.68-8.37,0.15-2-7.69-9.75-10-10.63-4-1.53-14.68-.64-16.27,3.45C2311.12-147.82,2320.24-137.11,2324.57-137.11Z" transform="translate(-2142.7 441.96)"/><path class="cls-10" d="M2319.6-155.8c-8.73-1.39-5.41,7.9-2.74,12.12,3.73,5.9,14.7,9.48,19.76,1.85C2343.43-152.1,2326.8-155.8,2319.6-155.8Zm0-.82c6.08,0,8.55-.32,12.76,2.64,6.41,4.49,9.76,9.47,2.95,13.88s-14.08,4.53-18.76-2.36C2312.68-148.15,2310-156.61,2319.6-156.61Z" transform="translate(-2142.7 441.96)"/><path class="cls-17" d="M2351.56-146.66c8.88,0,7.06-15.32-.15-16.77C2339-165.92,2338.71-146.66,2351.56-146.66Z" transform="translate(-2142.7 441.96)"/><path class="cls-10" d="M2349-163.57c-11.82,0-6.67,20.1,4.18,16C2360.8-150.38,2357.22-163.57,2349-163.57Zm0-.82c9.37,0,13.32,15.83,3.6,17.85C2340.67-144.06,2336.57-164.39,2349-164.39Z" transform="translate(-2142.7 441.96)"/><path class="cls-17" d="M2361.93-166.49c5.28,0-5.19-20.58-12.26-13.6-0.71.7-1.05,9.25-.17,10.3S2360.86-166.49,2361.93-166.49Z" transform="translate(-2142.7 441.96)"/><path class="cls-10" d="M2351.26-180.91c-2.6,0-3.86,15.23,8.11,13,2.16-.4,2.33,2.29,3.78-0.47,1.53-2.92-.66-5.14-2.26-7.13C2359.08-177.76,2354-180.91,2351.26-180.91Zm0-.82c3.92,0,11.84,5.42,12.81,9.22,2.06,8.09-2.39,4.72-6,4.76-1.42,0-7.88-.57-8.84-1.62C2347.46-171.37,2348.06-181.74,2351.26-181.74Z" transform="translate(-2142.7 441.96)"/><path class="cls-17" d="M2372-166c4.76,0,.62-6.92-1.17-7.84C2363.45-177.66,2367.91-166,2372-166Z" transform="translate(-2142.7 441.96)"/><path class="cls-10" d="M2368.06-173.8c-2.77,0,1.73,8.37,4.77,7.06C2376.66-168.39,2371.25-173.8,2368.06-173.8Zm0-.82c5,0,9.75,9.16,4,9C2368.84-165.72,2363-174.62,2368.06-174.62Z" transform="translate(-2142.7 441.96)"/><path class="cls-17" d="M2369.95-154.46c6.77,0,3.36-8.8-1-9.29C2361-164.64,2360.83-154.46,2369.95-154.46Z" transform="translate(-2142.7 441.96)"/><path class="cls-10" d="M2370.69-163.5c-3.41.07-8-.26-7.14,4.92C2365.53-146.5,2379.82-162,2370.69-163.5Zm-0.3-.84c6.88,0,3.38,15.77-5.49,9.35C2358.56-159.58,2364.58-164.34,2370.4-164.34Z" transform="translate(-2142.7 441.96)"/><path class="cls-17" d="M2389.83-157.85c7.14,0-7.73-17.56-12.3-12.74C2376.26-160.15,2378.08-157.85,2389.83-157.85Z" transform="translate(-2142.7 441.96)"/><path class="cls-10" d="M2377.93-170.26c-0.36,2.52-1.72,7.79-.36,9.54,0.32,0.42,11.36,3,12.26,2.46C2396.95-162.64,2381.44-169.34,2377.93-170.26Zm0.31-.91c5.16,0,19.77,9.11,11.93,13.7-1.81,1.06-13-1.88-13.87-3.66C2376-161.61,2375.6-171.16,2378.24-171.16Z" transform="translate(-2142.7 441.96)"/><path class="cls-17" d="M2390.15-131.39c5,0,8.81-8.52,7.89-12-1.38-5.27-9.63-8.61-14.25-8.29s-7.09.46-8.58,6C2373.55-139.63,2382.71-131.39,2390.15-131.39Z" transform="translate(-2142.7 441.96)"/><path class="cls-10" d="M2381.89-151.4c-2.66,0-8.06,5.16-7.89,8.29,0.22,3.91,13.36,11.6,16.67,11.16,5-.67,7.44-8.7,6.4-11.78C2395-149.83,2387.29-151.4,2381.89-151.4Zm0-.82c5.75,0,14.54,1.69,16.47,8.54,1.7,6-4.12,12.18-9.84,11.94-3.18-.13-14.59-6.7-15.13-10.31C2372.79-146.15,2377.92-152.22,2381.89-152.22Z" transform="translate(-2142.7 441.96)"/><path class="cls-17" d="M2400.29-145.26c8,0,8.33-6.18,3.68-10.57C2391.75-167.37,2389.18-145.26,2400.29-145.26Z" transform="translate(-2142.7 441.96)"/><path class="cls-10" d="M2398.42-159.23c-9.5.82-5.28,13,2.06,13.53C2412.68-144.84,2404-156.44,2398.42-159.23Zm0.06-.82c9,0,14.32,16.39,1.81,15.2C2391.9-145.66,2387.75-160.05,2398.48-160.05Z" transform="translate(-2142.7 441.96)"/><path class="cls-17" d="M2365.55-132.09c4.54,0,8.82-18.68-.92-18.86-3.1-.06-8.86,4.75-9.49,8.29S2360.65-132.09,2365.55-132.09Z" transform="translate(-2142.7 441.96)"/><path class="cls-10" d="M2363.16-150.77c-1.54,0-8.54,8-8.57,9.53-0.07,3.1,9.27,9.26,11.72,8.61,4.92-1.31,6.67-18.13-3.15-18.13h0Zm0-.82c11.37,0,9,19.64,2,19.87-2.93.1-11.33-6.72-11.39-9.5C2353.7-143.51,2361.18-151.59,2363.16-151.59Z" transform="translate(-2142.7 441.96)"/><path class="cls-17" d="M2415.17-127.91c0.92,0-.29-22.89-9.35-15.61C2398.81-137.89,2407.14-127.91,2415.17-127.91Z" transform="translate(-2142.7 441.96)"/><path class="cls-10" d="M2410.72-144.54c-7.42,0-8.93,8.7-4.26,13.39,0.94,0.95,8.65,3.69,9.65,2.56,0.71-.8-5-16-5.4-16h0Zm0-.82c0.73,0,14.47,24.3-1.79,16.23C2401.62-132.75,2400.06-145.36,2410.72-145.36Z" transform="translate(-2142.7 441.96)"/><path class="cls-17" d="M2417.35-103.84c8.88,0,4.06-16.18-.14-20-5.49-5-8.47-1.61-9,4C2407.83-115.7,2412.15-103.84,2417.35-103.84Z" transform="translate(-2142.7 441.96)"/><path class="cls-10" d="M2410.91-125.9c-6,0-.06,22.1,7.87,21.46,7.71-.62.23-21.46-7.87-21.46h0Zm0-.82c8.79,0,16.47,18.75,10.74,22.46C2410-96.72,2403.54-126.72,2410.91-126.72Z" transform="translate(-2142.7 441.96)"/><path class="cls-17" d="M2418.68-85.21c5.75,0,3.9-18.58-3.15-17.82C2405.44-101.94,2416.37-88.4,2418.68-85.21Z" transform="translate(-2142.7 441.96)"/><path class="cls-10" d="M2415.29-102.65c-7.65,0-.13,17.54,3.9,16.88C2424.54-86.65,2421.34-102.65,2415.29-102.65Zm0-.82c7.21,0,10.34,17.68,3.91,18.51C2414.18-84.31,2406.23-103.46,2415.29-103.46Z" transform="translate(-2142.7 441.96)"/><path class="cls-17" d="M2411.93-65.57c8.22,0,8.42-16.51-.22-16.59C2399.54-82.27,2405.51-69.36,2411.93-65.57Z" transform="translate(-2142.7 441.96)"/><path class="cls-10" d="M2413.57-82.06c-12,0-10,16.13-1.68,16.07C2418.95-66,2419.71-82.06,2413.57-82.06Zm0-.82c7.54,0,6.4,17.67-1.7,17.71C2402.5-65.12,2400.23-82.88,2413.57-82.88Z" transform="translate(-2142.7 441.96)"/><path class="cls-17" d="M2401.84-50.68c9,0,11.57-15.8,2.82-17.61C2392.91-70.72,2393.1-50.68,2401.84-50.68Z" transform="translate(-2142.7 441.96)"/><path class="cls-10" d="M2404.89-67.93c-2.86.86-5,.82-7.26,3.69-2.46,3.17-2.18,11,3.19,12.88,2.26,0.79,6.65-1.86,7.81-3.72C2411.88-60.32,2408-64.18,2404.89-67.93Zm0.17-.85c8.55,0,6.36,22.23-4.66,18.13C2390.29-54.42,2395.35-68.78,2405.06-68.78Z" transform="translate(-2142.7 441.96)"/><path class="cls-17" d="M2401.83-44.36c2.73,0,2-3.87,1.08-4.59C2399.58-51.41,2394.85-44.36,2401.83-44.36Z" transform="translate(-2142.7 441.96)"/><path class="cls-10" d="M2400.39-48.62c-5.92,0,3.92,7.8,3.49.28C2403-48.85,2401.24-48.62,2400.39-48.62Zm0-.82c2.46,0,6.42.5,3.11,4C2399.32-41.12,2395-49.44,2400.39-49.44Z" transform="translate(-2142.7 441.96)"/><path class="cls-17" d="M2390.65-35.14c8.25,0,11.47-11.83,2-12.84S2387.52-35.14,2390.65-35.14Z" transform="translate(-2142.7 441.96)"/><path class="cls-10" d="M2393-47.62c-5.79,0-8.57,9.88-2.34,12.07,6.73,2.36,11.78-12.07,2.34-12.07h0Zm0-.83c0.73,0,6.8,5.21,6.77,6.48,0,1.56-6.28,7.66-8.65,7.12C2384.73-36.3,2384.33-48.45,2393-48.45Z" transform="translate(-2142.7 441.96)"/><path class="cls-17" d="M2396.85-23.55c2.83,0,3.63-2.31,2.06-4C2397.07-29.46,2391.85-23.55,2396.85-23.55Z" transform="translate(-2142.7 441.96)"/><path class="cls-10" d="M2398.47-27.15c-7.16,2.06,2.4,5.53,0,0h0Zm0-.81c3.6,0,1.35,4.29-1.21,4.81C2393.55-22.39,2393.49-28,2398.48-28Z" transform="translate(-2142.7 441.96)"/><path class="cls-17" d="M2389.42-22.23c2.2,0,6.85-2.25,2.34-3.68C2388-27.08,2385.94-22.23,2389.42-22.23Z" transform="translate(-2142.7 441.96)"/><path class="cls-10" d="M2390.33-25.54c-5.88,0,.19,3.45.22,2.87C2390.51-22.06,2394.93-25.54,2390.33-25.54Zm0-.82c2.64,0,5.29,3.69,1.55,4.3C2387.25-21.3,2385.28-26.37,2390.33-26.37Z" transform="translate(-2142.7 441.96)"/><path class="cls-17" d="M2388.94-12c4.49,0,4.08-6.21,1-6.28C2386.21-18.36,2385.2-12,2388.94-12Z" transform="translate(-2142.7 441.96)"/><path class="cls-10" d="M2390-17.86c-3.43,0-4,3.78-1.26,5.44C2392.88-9.89,2392.89-17.86,2390-17.86Zm0-.82c2.6,0,4.73,6.58-.13,7C2385.15-11.32,2384.81-18.69,2390-18.69Z" transform="translate(-2142.7 441.96)"/><path class="cls-17" d="M2393.81-1.7c5.37,0,4.06-8.89,4.32-12.18-2.62.91-6.27,1.83-7.24,4.67C2390.6-8.37,2393-1.7,2393.81-1.7Z" transform="translate(-2142.7 441.96)"/><path class="cls-10" d="M2397.66-13.39c-3.76,2.61-8.8,3-4.84,8.94C2397.13,2,2397.38-9.75,2397.66-13.39Zm0.46-.9s2.09,14.58-4.32,13C2387.76-2.79,2391.22-14.29,2398.13-14.29Z" transform="translate(-2142.7 441.96)"/><path class="cls-17" d="M2389,6.76c8.4,0,.68-3.9,1.06-4.26C2389.52,3,2384.7,6.76,2389,6.76Z" transform="translate(-2142.7 441.96)"/><path class="cls-10" d="M2389.69,2.87c-3.91,0-.51,6.61,2.87,2.62C2392.53,4.7,2390.85,2.87,2389.69,2.87Zm0-.82c4.23,0,4.33,6.61.19,5.05C2387.53,6.23,2385.08,2.06,2389.69,2.06Z" transform="translate(-2142.7 441.96)"/><path class="cls-17" d="M2398.21,14.47c2.84,0,2.91-9.08,2.13-10-1.61.41-5.08,0.75-5.85,1.74-2.11,2.71-2.51-2-.49,3.68C2394.41,11,2397,14.47,2398.21,14.47Z" transform="translate(-2142.7 441.96)"/><path class="cls-10" d="M2400.13,4.85c-1.38.07-6.28,1.24-7.21,2.53C2393.12,17.44,2405.92,12.67,2400.13,4.85Zm0-.82c2.6,0,1.43,10.81-2.63,10.57C2390.52,14.19,2391.43,4,2400.15,4Z" transform="translate(-2142.7 441.96)"/><path class="cls-17" d="M2408.11,21.87c4,0,2.93-7.72.3-7.71C2402.72,14.18,2405.15,21.87,2408.11,21.87Z" transform="translate(-2142.7 441.96)"/><path class="cls-10" d="M2409.23,14.34c-15.13,2.69,10.81,11.58,0,0h0Zm-0.16-1c2.92,0,3.22,10.57-2.19,8C2401.93,19,2405.43,13.33,2409.06,13.33Z" transform="translate(-2142.7 441.96)"/><path class="cls-17" d="M2379-58.5c3.62,0,13.72-6.66,13.8-11,0-1.66-6.78-8.82-7.51-9.17C2368.9-86.61,2373-58.5,2379-58.5Z" transform="translate(-2142.7 441.96)"/><path class="cls-10" d="M2380.34-79.39c-7.84,0-7.27,10.3-4.56,15.32,3.52,6.54,3.73,5.26,9.9,1.18,2-1.32,5.94-1.9,6.53-4.66,1-4.57-1.91-3.22-4-5.74C2385.16-76.9,2386-79.39,2380.34-79.39Zm0-.82c4.11,0,9.09,4.13,10.62,7.45,2.89,6.27,1.19,6.55-5,10.64s-7.64,6-11-1.71C2372.46-69.49,2371.55-80.21,2380.34-80.21Z" transform="translate(-2142.7 441.96)"/><path class="cls-17" d="M2398.44-74.52c3.87,0,11.25-13.92,8.62-17.39s-4.87.45-7.67,0.65c-0.91.06-3.81-2.21-4.09-2.09C2386.05-89.45,2387.33-74.52,2398.44-74.52Z" transform="translate(-2142.7 441.96)"/><path class="cls-10" d="M2395.09-93c-2.57,0-6.3,6.39-6.29,8,0,6.45,7.59,12.12,12.67,8.29,2.09-1.57,7.07-13.33,4.69-15.58-2.08-2-3.76,1.37-5.86,1.11-1.46-.18-4.05-1.83-5.22-1.83h0Zm0-.82c1.33,0,2.75,1.85,4.3,2.11,1.75,0.3,3.61-2.73,5.33-2,6.26,2.53,0,17.89-4.93,19.21-5.09,1.37-13.28-6.24-12.25-11.81C2387.79-87.69,2393.59-93.78,2395.09-93.78Z" transform="translate(-2142.7 441.96)"/><path class="cls-17" d="M2398.81-96.81c6.13,0,8.89-8.57,8.37-12.56-0.8-6.09-3.31-8.54-9.8-8.22C2383.86-116.93,2389.91-100.92,2398.81-96.81Z" transform="translate(-2142.7 441.96)"/><path class="cls-10" d="M2395.38-117.52c-6,0-5.87,5.29-4.93,8.94,1.71,6.65,5.62,11,10.64,9.49,4.74-1.38,6-5.3,6-8.93C2407.29-115.55,2401.7-117.52,2395.38-117.52Zm0-.82c11.34,0,19.86,15.25,6.33,19.8-6.37,2.14-6.82.16-10.84-7.48C2388.45-110.63,2386.13-118.34,2395.38-118.34Z" transform="translate(-2142.7 441.96)"/><path class="cls-17" d="M2399.48-121.87c-1.08,0,7.68-19.61-2.54-11C2393.55-130,2392.43-121.87,2399.48-121.87Z" transform="translate(-2142.7 441.96)"/><path class="cls-10" d="M2400.8-135.05c-5.73.23-7.73,6.95-4.51,10.53C2402.77-117.32,2400.7-131.57,2400.8-135.05Zm0.11-.82c1.6,0,1.56,14.1-1.56,14.4C2390.72-120.65,2392.46-135.87,2400.91-135.87Z" transform="translate(-2142.7 441.96)"/><path class="cls-17" d="M2382.12-115.23c17.27,0,4.48-20.64-4.78-13C2379.93-124.27,2380.6-119.59,2382.12-115.23Z" transform="translate(-2142.7 441.96)"/><path class="cls-10" d="M2382.06-128.65a12.59,12.59,0,0,0-4.11.55c2.72,3.66,2.69,8.34,4.43,12.4,1.2-.42,8.53-3.37,9-5.1C2392.55-125.18,2384.81-128.65,2382.06-128.65Zm0-.82c9.06,0,14.85,12.5,2.52,13.56-4.63.4-1.63,1-4.39-4.05-0.23-.41-3.09-8.67-3.41-8.27C2377.82-129.51,2380.57-129.46,2382.06-129.46Z" transform="translate(-2142.7 441.96)"/><path class="cls-17" d="M2371.63-106.29c4.73,0,9.72-5,4.08-8.7C2367.66-120.32,2366.87-106.29,2371.63-106.29Z" transform="translate(-2142.7 441.96)"/><path class="cls-10" d="M2372.08-115c-5.11,0-3,7.52.27,8.21C2379.48-105.27,2378.43-115,2372.08-115Zm0-.82c6.2,0,9.33,9.14,1.45,9.7C2367.53-105.68,2365.61-115.81,2372.08-115.81Z" transform="translate(-2142.7 441.96)"/><path class="cls-17" d="M2372.13-120.82c3.27,0,.19-3.93-0.55-4.55C2368.56-127.87,2362.8-120.82,2372.13-120.82Z" transform="translate(-2142.7 441.96)"/><path class="cls-10" d="M2372-125c-5.91,0-5.52,4.33.69,3.75,0,3-.17-3.75-0.69-3.75h0Zm0-.82c2.78,0,2.66,5.19-1.47,5.07C2363.49-121,2366.86-125.82,2372-125.82Z" transform="translate(-2142.7 441.96)"/><path class="cls-17" d="M2356.13-111.69c8.11,0,9-8.56,1.28-10.85C2347.94-125.36,2353-111.69,2356.13-111.69Z" transform="translate(-2142.7 441.96)"/><path class="cls-10" d="M2357-122.33c-8.43-1.22-3.53,9.45.8,9.83C2367.78-111.61,2359.78-119.91,2357-122.33Zm0-.82c5.19,0,10.88,12.93.19,11.62C2351.78-112.2,2348-124.68,2357-123.15Z" transform="translate(-2142.7 441.96)"/><path class="cls-17" d="M2377.48-87c10.16,0,9.07-13.83.23-13.71S2373.08-87,2377.48-87Z" transform="translate(-2142.7 441.96)"/><path class="cls-10" d="M2379-100.37c-7.22,0-8.65,8.9-2.63,12.44C2384.61-83.07,2387.73-100.37,2379-100.37Zm0-.82c8.88,0,7.92,17.19-1.81,14.56C2369.78-88.63,2369.92-101.18,2379-101.18Z" transform="translate(-2142.7 441.96)"/><path class="cls-17" d="M2363.51-75.91c4.25,0,4.07-6.83.63-6.65C2360.27-82.34,2357.53-76.26,2363.51-75.91Z" transform="translate(-2142.7 441.96)"/><path class="cls-10" d="M2364.88-82.35c-16.18,1.43,9.73,11.94,0,0h0Zm0.07-.82c3.14,0,3,8.29-2.56,7.49C2356.39-76.53,2361.39-83.17,2364.95-83.17Z" transform="translate(-2142.7 441.96)"/><path class="cls-17" d="M2354.14-83.87c8.62,0,16.49-13.75,7.91-19.6-4.69-3.19-14.79-.81-15.73,5.07C2345.89-95.74,2351.31-83.87,2354.14-83.87Z" transform="translate(-2142.7 441.96)"/><path class="cls-10" d="M2357.81-104.59c-7.8,0-11,2.59-9.89,9.6,0.73,4.46,3.89,10,7.68,9.95C2365.11-85.24,2371-104.59,2357.81-104.59Zm0-.82c13.73,0,8.89,17.12-.41,20.23C2347.4-81.84,2339.38-105.41,2357.81-105.41Z" transform="translate(-2142.7 441.96)"/><path class="cls-17" d="M2340.78-89.43c4.94,0,3.66-8.09-3.57-5.79C2337-93,2338-89.43,2340.78-89.43Z" transform="translate(-2142.7 441.96)"/><path class="cls-10" d="M2342.26-95.52a19.58,19.58,0,0,0-4.59.61C2338.92-88.79,2345.69-88.06,2342.26-95.52Zm-0.28-.93c4.13,0,2.95,11.27-3.72,6.37C2333.5-93.58,2338.47-96.46,2342-96.46Z" transform="translate(-2142.7 441.96)"/><path class="cls-17" d="M2338.8-111.88c0.81,0,7.39-7,8-8.28,2.27-5.32-.8-12.25-6.15-13.89C2323-139.46,2321.79-111.88,2338.8-111.88Z" transform="translate(-2142.7 441.96)"/><path class="cls-10" d="M2337.14-134c-9.41,0-12.92,7.13-8.26,14.29,5.58,8.57,8.2,7.7,13.48,3C2348.84-122.53,2347.87-134,2337.14-134Zm0-.82c5.84,0,10,3.25,10.52,9.35,0.36,4-3.88,12.5-7.75,13.36C2327.16-109.23,2318.14-134.79,2337.14-134.79Z" transform="translate(-2142.7 441.96)"/><path class="cls-17" d="M2353.71-125.76c2.27,0,7-2.55,9.33-3.56-1.51-2.9-12.51-10.78-14.65-9.34C2345.94-137,2350-125.76,2353.71-125.76Z" transform="translate(-2142.7 441.96)"/><path class="cls-10" d="M2349.4-138.87c-4,0-.2,8.43,1.57,10,4.3,3.73,5.56,1.66,11.47-.62C2360.89-131.95,2352.7-138.87,2349.4-138.87Zm0-.82c3,0,12.82,7.59,14.12,10.39,0.15,0.3-9.26,4.36-11.9,2.87C2349.27-127.76,2343.39-139.69,2349.4-139.69Z" transform="translate(-2142.7 441.96)"/><path class="cls-17" d="M2306.95-127.43c5.76,0,10.1-5.12,5.55-9.9C2307-143.11,2301.19-131.62,2306.95-127.43Z" transform="translate(-2142.7 441.96)"/><path class="cls-10" d="M2310.5-139.42c-9.24,0-5.45,18,2.1,9.76C2313.23-130.35,2313.63-139.42,2310.5-139.42Zm0-.82c4.57,0,6.2,11.88-1,12.76C2300.47-126.37,2303.63-140.24,2310.5-140.24Z" transform="translate(-2142.7 441.96)"/><path class="cls-17" d="M2312.25-119.4c7.47,0-1.72-6.4-2.54-2C2309.49-120.27,2311.35-119.4,2312.25-119.4Z" transform="translate(-2142.7 441.96)"/><path class="cls-10" d="M2312.9-122.29a5.52,5.52,0,0,0-2.76.93C2309.36-117.12,2318.12-122.29,2312.9-122.29Zm0-.82c5.21,0,.27,3.35-0.76,4.11S2307.11-123.1,2312.9-123.1Z" transform="translate(-2142.7 441.96)"/><path class="cls-17" d="M2318-91.07c10.09,0,9.22-21,2.79-24.43-3.53-1.91-12.75,3.07-13.36,7.49C2307.21-106.34,2317.16-91.07,2318-91.07Z" transform="translate(-2142.7 441.96)"/><path class="cls-10" d="M2318.92-116.33c-2.63,0-8.46,4.43-9.46,6.82-1.57,3.75-.88.11,0,4.77,0.8,4.11,7.28,12.73,10.14,12.15C2328.72-94.42,2325-116.33,2318.92-116.33Zm0-.82c8.26,0,11,29.22-1.74,26.21-0.33-.08-10.19-14.64-10.21-15.87C2306.88-110.67,2315.79-117.15,2318.92-117.15Z" transform="translate(-2142.7 441.96)"/><path class="cls-17" d="M2330.85-85.89c1.38,0,.89-8.38.83-9.82C2323.67-97.63,2322.35-85.89,2330.85-85.89Z" transform="translate(-2142.7 441.96)"/><path class="cls-10" d="M2329.78-95.31c-7.34,0-4.6,9.73,1.25,9C2331.44-88.73,2333.36-95.31,2329.78-95.31Zm1.65-.83c-0.07,0,3.65,17.2-4.81,8.46C2322.32-92.1,2325.06-96.14,2331.43-96.14Z" transform="translate(-2142.7 441.96)"/><path class="cls-17" d="M2320.81-61.63c13.51,0,12.41-24.77,2-22.06-1.8.47-7,7.73-7.81,9.16-1.95,3.46-2.57,1.69-1.8,5.4C2313.6-67.29,2318.93-61.63,2320.81-61.63Z" transform="translate(-2142.7 441.96)"/><path class="cls-10" d="M2323-83.3c-1.28,0-6.58,7.66-7.1,8.56-1.14,2-3.28,1.59-3.21,4.25,0,1.56,5.86,7.44,7.08,7.82,11.82,3.69,16-20.62,3.23-20.62h0Zm0-.82c14.4,0,9.37,27.94-4.92,21.31-10.09-4.68-4.65-10.13-.32-15.18C2319.28-79.73,2320.44-84.12,2323-84.12Z" transform="translate(-2142.7 441.96)"/><path class="cls-17" d="M2308.54-77.64c5,0,3.77-5.62.26-7C2302.13-87.31,2301.78-77.64,2308.54-77.64Z" transform="translate(-2142.7 441.96)"/><path class="cls-10" d="M2306.38-84.68c-5.26,0-1.52,6.74,2.53,6.61C2313.77-78.24,2311-84.68,2306.38-84.68Zm0-.82c3.44,0,10.42,4.35,4,7.6C2304.27-74.77,2299.38-85.5,2306.38-85.5Z" transform="translate(-2142.7 441.96)"/><path class="cls-17" d="M2307.07-64.93c3.91,0-.17-10.36-1.37-10.73C2299.17-77.68,2297.65-64.93,2307.07-64.93Z" transform="translate(-2142.7 441.96)"/><path class="cls-10" d="M2305.46-75.26c-15.07,1.36,11.71,19.07,0,0h0Zm0.09-.83c1,0,7,10.76,1.52,11.56C2300.21-63.51,2295.17-76.08,2305.55-76.08Z" transform="translate(-2142.7 441.96)"/><path class="cls-17" d="M2311-45.52c4.22,0,4-12.28-1.88-13.22C2300.58-60.11,2306.81-45.52,2311-45.52Z" transform="translate(-2142.7 441.96)"/><path class="cls-10" d="M2307-58.84c-3.57,0-.09,12.74,4,12.91C2314.7-45.78,2314.76-58.84,2307-58.84Zm0-.82c7.22,0,10.68,11.9,5.15,14.26C2305.81-42.69,2301.42-59.66,2307-59.66Z" transform="translate(-2142.7 441.96)"/><path class="cls-17" d="M2324.49-51.75c4.48,0,1.89-1.08,2.42-2.36C2328.82-58.72,2316.7-51.75,2324.49-51.75Z" transform="translate(-2142.7 441.96)"/><path class="cls-10" d="M2324.89-55.3c-4.09,0-1,2.79,2.13,2.38,0-1.1-1.54-2-2.13-2.38h0Zm0-.82c3.59,0,2.59,3.2,1.29,4.35C2323.4-49.31,2319.25-56.12,2324.89-56.12Z" transform="translate(-2142.7 441.96)"/><path class="cls-17" d="M2342.14-42c5,0,1.87-1.18,2.14-2.92C2344.89-48.9,2335.17-42,2342.14-42Z" transform="translate(-2142.7 441.96)"/><path class="cls-10" d="M2342.54-45.52c-4.11,0-.94,5,2.14,2.37a4.47,4.47,0,0,0-2.14-2.37h0Zm0-.82c3.57,0,2.63,3.19,1.3,4.35C2341-39.55,2336.93-46.34,2342.54-46.34Z" transform="translate(-2142.7 441.96)"/><path class="cls-17" d="M2319.09-42.62c5.66,0,3.27-7.3.11-7.55C2314.1-50.56,2317.31-42.62,2319.09-42.62Z" transform="translate(-2142.7 441.96)"/><path class="cls-10" d="M2319.2-49.75c-4.63,0-1.26,8.57,1.94,6.19C2322.53-44.59,2321.57-49.75,2319.2-49.75Zm0-.82c3.22,0,6.08,7.3,1.08,8.06C2316.11-41.87,2313.57-50.57,2319.2-50.57Z" transform="translate(-2142.7 441.96)"/><path class="cls-17" d="M2327.29-22.29c3.44,0,3.88-11.88-.62-12.63C2321.18-35.84,2318.45-22.29,2327.29-22.29Z" transform="translate(-2142.7 441.96)"/><path class="cls-10" d="M2324.76-34.79c-5,0-2.48,17.86,3.58,11.91C2331.77-26.24,2330.1-34.79,2324.76-34.79Zm0-.82c6.9,0,7.45,11.71,2.52,13.72C2318.45-18.29,2320.3-35.61,2324.76-35.61Z" transform="translate(-2142.7 441.96)"/><path class="cls-17" d="M2312-19.88c4.76,0,3.74-12.83-2.2-9.3C2307.61-27.9,2308.92-19.88,2312-19.88Z" transform="translate(-2142.7 441.96)"/><path class="cls-10" d="M2311.65-29.84c-3.64,0-3.09,6.26-1.4,7.9C2316-16.46,2315.35-29.84,2311.65-29.84Zm0-.82c4.5,0,5.27,11.69.3,11.18C2307.91-19.89,2306-30.66,2311.65-30.66Z" transform="translate(-2142.7 441.96)"/><path class="cls-17" d="M2315-5.79c4.78,0,8.93-11.34,2.79-10.31C2314.74-15.59,2311.13-5.79,2315-5.79Z" transform="translate(-2142.7 441.96)"/><path class="cls-10" d="M2318-15.71c-2.39,0-5.11,7.94-4.23,8.83C2317.44-3.12,2324.43-15.71,2318-15.71Zm0-.82c7.37,0,1.51,12.87-3.67,11C2310.69-6.9,2314.62-16.53,2318-16.53Z" transform="translate(-2142.7 441.96)"/><path class="cls-17" d="M2328.15-1c3.8,0,2-6.8.5-7C2325.17-8.34,2326.42-1,2328.15-1Z" transform="translate(-2142.7 441.96)"/><path class="cls-10" d="M2328.55-7.56c-2.63,0-1.74,5.08-.5,6.14,2.47,2.12,2-6.14.5-6.14h0Zm0-.82c2.55,0,3.86,9.06-.4,7.79C2325.43-1.4,2324.85-8.38,2328.55-8.38Z" transform="translate(-2142.7 441.96)"/><path class="cls-17" d="M2346.19-29.62c3.79,0,2-6.78.5-7C2343.2-37,2344.47-29.62,2346.19-29.62Z" transform="translate(-2142.7 441.96)"/><path class="cls-10" d="M2346.58-36.17c-2.79,0-1.54,5-.4,6.15C2348.24-28,2347.25-35.14,2346.58-36.17Zm0-.83c2.55,0,3.87,9.06-.4,7.79C2343.47-30,2342.89-37,2346.58-37Z" transform="translate(-2142.7 441.96)"/><path class="cls-17" d="M2295.26-77.29c7.15,0,2-8-1.87-9C2283.62-88.9,2288.9-77.29,2295.26-77.29Z" transform="translate(-2142.7 441.96)"/><path class="cls-10" d="M2293.39-85.91c-1.22,0-5.24.06-5.78,0.94-0.64,3.22,9.18,11,11.18,6.06C2299.51-80.69,2295.57-85.91,2293.39-85.91Zm0-.82c5.06,0,10,10.75.58,9.59C2287.54-77.93,2283.4-86.72,2293.39-86.72Z" transform="translate(-2142.7 441.96)"/><path class="cls-17" d="M2360.69-31.67c13.51,0,12.41-24.77,2-22.06-1.8.47-7,7.73-7.81,9.16-1.95,3.46-2.56,1.68-1.8,5.4C2353.47-37.33,2358.81-31.67,2360.69-31.67Z" transform="translate(-2142.7 441.96)"/><path class="cls-10" d="M2362.9-53.34c-1.28,0-6.58,7.66-7.1,8.56-1.14,2-3.29,1.59-3.21,4.25,0,1.57,5.86,7.43,7.08,7.81,11.82,3.68,15.94-20.62,3.23-20.62h0Zm0-.82c14.4,0,9.37,27.93-4.92,21.31-10.1-4.68-4.66-10.13-.32-15.18C2359.16-49.77,2360.32-54.15,2362.9-54.15Z" transform="translate(-2142.7 441.96)"/><path class="cls-17" d="M2355.69-11.34c4.23,0,4-12.27-1.88-13.22C2345.27-25.94,2351.48-11.34,2355.69-11.34Z" transform="translate(-2142.7 441.96)"/><path class="cls-10" d="M2351.71-24.66c-3.57,0-.09,12.75,4,12.92C2359.39-11.59,2359.44-24.66,2351.71-24.66Zm0-.82c7.22,0,10.67,11.91,5.15,14.26C2350.5-8.51,2346.1-25.48,2351.71-25.48Z" transform="translate(-2142.7 441.96)"/><path class="cls-17" d="M2367.6,0.76c3.44,0,3.88-11.87-.62-12.63C2361.49-12.79,2358.76.76,2367.6,0.76Z" transform="translate(-2142.7 441.96)"/><path class="cls-10" d="M2365.07-11.73c-5,0-2.48,17.86,3.58,11.91C2372.1-3.21,2370.41-11.73,2365.07-11.73Zm0-.82c6.9,0,7.47,11.71,2.53,13.73C2358.77,4.78,2360.61-12.55,2365.07-12.55Z" transform="translate(-2142.7 441.96)"/><path class="cls-17" d="M2366-17.72c4.75,0,3.75-12.83-2.2-9.29C2361.62-25.74,2362.93-17.72,2366-17.72Z" transform="translate(-2142.7 441.96)"/><path class="cls-10" d="M2365.66-27.67c-3.64,0-3.09,6.26-1.39,7.89C2370-14.3,2369.36-27.67,2365.66-27.67Zm0-.82c4.51,0,5.26,11.69.31,11.18C2361.92-17.72,2360-28.49,2365.66-28.49Z" transform="translate(-2142.7 441.96)"/><path class="cls-17" d="M2351.08-48.28c7.15,0,2-8-1.87-9C2339.45-59.9,2344.72-48.28,2351.08-48.28Z" transform="translate(-2142.7 441.96)"/><path class="cls-10" d="M2349.21-56.9c-1.09,0-5.46.11-5.78,0.94-0.72,3.24,9.2,11,11.18,6.06C2355.33-51.68,2351.38-56.9,2349.21-56.9Zm0-.82c5.07,0,10,10.75.58,9.58C2343.35-48.92,2339.23-57.71,2349.21-57.71Z" transform="translate(-2142.7 441.96)"/><path class="cls-17" d="M2298.62-86.94c6.49,0,11.73-10.39,9.32-15.24-3.23-6.5-5.36-3.58-10.53-2-5.62,1.75-13.08.93-8.36,8.44C2289-95.81,2298.37-86.94,2298.62-86.94Z" transform="translate(-2142.7 441.96)"/><path class="cls-10" d="M2303.71-106.55c-0.53,0-2.63,1.46-3.17,1.67-2.61,1-6.14-.21-8.34,1-8.91,4.81-2.52,8.7,3.11,12.41,5,3.29,1,5.73,7.72,1.29C2306.69-92.65,2312.68-106.55,2303.71-106.55Zm0-.82c11.05,0,3.75,15-.1,17.76-6.95,5-6.5.78-12.12-4.5-3.25-3.06-8.41-4.68-1.72-9.47C2291.82-105,2301.62-107.37,2303.71-107.37Z" transform="translate(-2142.7 441.96)"/><path class="cls-17" d="M2282.52-99.28c4.75,0,4.53-8.8-3.61-6C2278.82-102.42,2280-100.2,2282.52-99.28Z" transform="translate(-2142.7 441.96)"/><path class="cls-10" d="M2284.33-105.55c-5.45,0-3.84-.14-4.07,4.21C2279.95-95.13,2292.14-105.55,2284.33-105.55Zm0-.82c3.18,0,3.18,8.2-2,7.49C2276.23-99.7,2277.29-106.37,2284.33-106.37Z" transform="translate(-2142.7 441.96)"/><path class="cls-17" d="M2293.44-107.14c9.62,0,15.56-13.89,3.81-17.15-1.22-.34-13.8,2.89-14.12,5.9C2282.83-115.64,2291.62-107.14,2293.44-107.14Z" transform="translate(-2142.7 441.96)"/><path class="cls-10" d="M2296.91-124c-5.42.78-12.68,2.58-12.22,7.07,0.41,4,6.86,9.1,10,8.75,4.71-.53,9.16-5.84,8.58-9.33C2303.12-118.53,2298.42-123.85,2296.91-124Zm0-.83c2.21,0,8.07,6.71,8.12,9,0.06,2.89-8.92,9.39-11.58,9-2.94-.39-11.06-8.64-10.7-11.5C2283.2-121.79,2294.41-124.79,2296.89-124.79Z" transform="translate(-2142.7 441.96)"/><path class="cls-17" d="M2279.83-126.84c5.66-.11,8.08-7.5,1.78-8.58C2273.57-136.81,2275.91-129.67,2279.83-126.84Z" transform="translate(-2142.7 441.96)"/><path class="cls-10" d="M2282-135c-4.79,0-9,4.65-3,7C2284.16-125.91,2287.88-135,2282-135Zm0-.82c7.63,0,3.23,11-2.92,9.09C2272.21-128.91,2275.4-135.86,2282-135.86Z" transform="translate(-2142.7 441.96)"/><path class="cls-17" d="M2270.72-107c0.53,0,6-5.84,6.36-7.28,1.22-4.4-.61-6.56-6-8.25-1.11-.35-3.25-2.94-4.52-2.22C2263.91-123.26,2267.3-107,2270.72-107Z" transform="translate(-2142.7 441.96)"/><path class="cls-10" d="M2267-124.46c-0.26,0,.35,29,8.69,11,2.57-5.54,1.08-5.2-4.63-8.7C2270-122.83,2267.7-124.46,2267-124.46Zm0-.82c2,0,4.94,2.51,6.52,3.63,5.69,4,5.65,3.33,2.5,9C2266-94.54,2265.36-125.28,2267-125.28Z" transform="translate(-2142.7 441.96)"/><path class="cls-17" d="M2293.36-125.28l3.82-.64C2294.59-132.22,2290-125.28,2293.36-125.28Z" transform="translate(-2142.7 441.96)"/><path class="cls-10" d="M2295.52-128.22c-4.59,0-4.48,3.81,1.08,2.07A23.11,23.11,0,0,1,2295.52-128.22Zm0-.82c8.07,0-5.7,9.26-4.33,2.21C2291.56-128.68,2293.4-129,2295.54-129Z" transform="translate(-2142.7 441.96)"/><path class="cls-17" d="M2252.51-112.21c6.29,0,7.41-.64,7.8-5.82,0.24-3.24-3.15-10.8-6.14-11.77C2243.36-133.3,2239.24-112.21,2252.51-112.21Z" transform="translate(-2142.7 441.96)"/><path class="cls-10" d="M2253.41-129.46c-10.37,0-12.46,14.11-2.74,16.6C2266.2-108.89,2259-129.46,2253.41-129.46Zm0-.82c6.59,0,14,22.37-2.86,18.22C2240.21-114.61,2242-130.28,2253.41-130.28Z" transform="translate(-2142.7 441.96)"/><path class="cls-17" d="M2256.53-93.88c5.47,0,7.5-13.18.39-13.71C2248.3-108.23,2252-93.88,2256.53-93.88Z" transform="translate(-2142.7 441.96)"/><path class="cls-10" d="M2256.92-107.18c-8.46,0-3.86,13.2-.05,12.78C2261.55-94.91,2263.34-107.18,2256.92-107.18Zm0-.82c8.13,0,5.26,14.86-.39,14.53S2248.21-108,2256.92-108Z" transform="translate(-2142.7 441.96)"/><path class="cls-17" d="M2270.12-86.5c-4.09,0,1.63-13-5.46-11-3.29.92-4.93,5.23-3.55,8.42C2262.38-86.11,2266.69-86.76,2270.12-86.5Z" transform="translate(-2142.7 441.96)"/><path class="cls-10" d="M2266.71-98.12c-3.8.88-6.05,3.47-5.15,7.44,1,4.45,2.8,3.56,8.36,3.75C2269.91-88,2265.64-98.12,2266.71-98.12Zm0-.82c1.67,0,2.32,6.38,2.4,7.67,0.27,4.82,3.25,3.47-1,5C2257.79-82.55,2258.25-98.94,2266.71-98.94Z" transform="translate(-2142.7 441.96)"/><path class="cls-17" d="M2256.2-57.6c2.71,0,9-6.29,8.71-8.76-0.35-3-5.93-6.24-8.56-7.4C2256.25-72.7,2254.78-57.6,2256.2-57.6Z" transform="translate(-2142.7 441.96)"/><path class="cls-10" d="M2256.74-73.29c-0.09,4.25-2.14,11-.84,15.24C2264.79-56.13,2266.4-70.8,2256.74-73.29Zm-0.39-.89c13.15,0,7.74,19.27.34,16.89C2253.47-58.32,2255.62-74.18,2256.36-74.18Z" transform="translate(-2142.7 441.96)"/><path class="cls-17" d="M2255.69-41.45c2-.23,14-5.23,14.07-7.75s-6.63-6.69-8.5-6.5C2254.22-55,2255.41-46.16,2255.69-41.45Z" transform="translate(-2142.7 441.96)"/><path class="cls-10" d="M2262.71-56.11c-6.74,1.85-6.93,7.72-6.64,14.19,4.22-.71,10.05-4.25,13.21-7.28A42,42,0,0,1,2262.71-56.11Zm0.13-.84c0.79,0,7.2,7.85,7.13,8.22-0.23,1.36-12.55,8.47-14.22,7.68C2250.55-43.5,2257-56.95,2262.84-56.95Z" transform="translate(-2142.7 441.96)"/><path class="cls-17" d="M2262.09-29.62c5.58,0,10.41-8.18,4.2-10.79C2256.91-44.35,2259.09-29.62,2262.09-29.62Z" transform="translate(-2142.7 441.96)"/><path class="cls-10" d="M2264.39-40c-6.29,0-6,10.7.51,8.54C2270-33.18,2269.92-40,2264.39-40Zm0-.82c6.85,0,7,10.23-.32,10.79C2258.08-29.61,2256.44-40.86,2264.39-40.86Z" transform="translate(-2142.7 441.96)"/><path class="cls-17" d="M2257.79-10.29c3.56,0,4.7-11.58-.55-11.26C2254.06-21.35,2256.15-12,2257.79-10.29Z" transform="translate(-2142.7 441.96)"/><path class="cls-10" d="M2256.22-21.36c0.73,0-1.39,14.54,3.23,9.5C2262.25-14.92,2260.29-21.36,2256.22-21.36Zm0-.82c5.25,0,7.69,10.23,3.36,12C2253.41-7.75,2255.25-22.19,2256.22-22.19Z" transform="translate(-2142.7 441.96)"/><path class="cls-17" d="M2256.32-27.54c3.78,0,.68-4.69-1.88-3.12Q2254.1-28.08,2256.32-27.54Z" transform="translate(-2142.7 441.96)"/><path class="cls-10" d="M2255.44-30.46c-1.72,0,.72,2.26.89,2.5s2.62-2.5-.89-2.5h0Zm0-.81c2.65,0,4.15,1.76,2,3.91C2255.64-25.54,2251.71-31.27,2255.44-31.27Z" transform="translate(-2142.7 441.96)"/><path class="cls-17" d="M2266.37-23.76c3.16,0,6.33-3.95,2.65-5.08C2263.84-30.45,2264.15-23.76,2266.37-23.76Z" transform="translate(-2142.7 441.96)"/><path class="cls-10" d="M2267-28.55c-5.53,0,.75,4.12.86,4.2C2268.5-24,2272.17-28.55,2267-28.55Zm0-.82c5.21,0,5,6.64,0,6C2263.84-23.85,2262.93-29.37,2267-29.37Z" transform="translate(-2142.7 441.96)"/><path class="cls-17" d="M2271.32-53c3.31,0,6.74-3.48,3-4.86C2270.17-59.33,2267.1-53,2271.32-53Z" transform="translate(-2142.7 441.96)"/><path class="cls-10" d="M2274.7-57.49c-1.28,0-4.73.41-5.17,1.09C2265.15-49.65,2281.39-57.49,2274.7-57.49Zm0-.82c4,0-1.51,10.15-5.21,4.26C2267-58,2271.89-58.31,2274.7-58.31Z" transform="translate(-2142.7 441.96)"/><path class="cls-17" d="M2271.5-60.91c0.28,0,3.23-.9,1.88-2.15-0.46-.41-2.46-0.33-2.75.19a3.31,3.31,0,0,0,.87,2C2272.1-61,2271.48-60.92,2271.5-60.91Z" transform="translate(-2142.7 441.96)"/><path class="cls-10" d="M2272.62-62.86c-1.49,0-1.79.32-1,1.52C2272-61.41,2274.19-62.86,2272.62-62.86Zm0-.82c4,0-1.31,3.71-1.11,3.19C2272-61.64,2267.76-63.69,2272.62-63.69Z" transform="translate(-2142.7 441.96)"/><path class="cls-17" d="M2271.88-66.93c0.36-2.21,2.89-12.65-1.28-12.73C2265.39-79.76,2269.63-68.66,2271.88-66.93Z" transform="translate(-2142.7 441.96)"/><path class="cls-10" d="M2270.75-79.24c-3.34,4.88-3.08,7.79,1,11.75C2272.62-70.08,2273.59-77.47,2270.75-79.24Zm0-.84c3.9,0,3.47,13.49.25,13C2265.45-68,2267.39-80.08,2270.72-80.08Z" transform="translate(-2142.7 441.96)"/><path class="cls-17" d="M2195.11-411.64c4.2,0,5.07-3.6,1.46-4.84S2191.77-411.64,2195.11-411.64Z" transform="translate(-2142.7 441.96)"/><path class="cls-10" d="M2197.17-416.22c-10.15.67,5.41,8.35,0,0h0Zm0.07-.82c3.8,0,1.75,8.11-2.71,5.78S2193.89-417,2197.24-417Z" transform="translate(-2142.7 441.96)"/><path class="cls-17" d="M2202.62-413.23c3.68,0,1.31-4.56-1.76-1.8C2201.23-414.12,2201.36-413.23,2202.62-413.23Z" transform="translate(-2142.7 441.96)"/><path class="cls-10" d="M2203.12-415.17l-1.72.34c0.21,0.72,2,2.14,2.77.74C2204.62-414.89,2203.55-415.17,2203.12-415.17Zm0-.82c2.06,0,1.75.91,1.79,2.31C2205-411,2195.45-416,2203.12-416Z" transform="translate(-2142.7 441.96)"/><path class="cls-17" d="M2208.35-399.69c4.21,0,6.06-5.22,2.38-5.13C2209.23-404.78,2203.83-399.69,2208.35-399.69Z" transform="translate(-2142.7 441.96)"/><path class="cls-10" d="M2211.31-404.39c-1.09.31-5.77,2.18-4.16,3.9C2209.92-397.61,2212.29-401.85,2211.31-404.39Zm0.06-1c3.55,0,1.27,8.25-3,6.09C2204.4-401.26,2207.86-405.36,2211.37-405.36Z" transform="translate(-2142.7 441.96)"/><path class="cls-17" d="M2210.7-389.92a4.92,4.92,0,0,0,2.92-.4C2212.39-400.79,2203.79-389.92,2210.7-389.92Z" transform="translate(-2142.7 441.96)"/><path class="cls-10" d="M2210.69-394.66c-5.81,2.55-1.93,5.36,2.46,4.12A6.35,6.35,0,0,0,2210.69-394.66Zm0.34-.91c2.15,0,5.37,7-.33,6.07C2205.87-390.28,2206.08-395.57,2211-395.57Z" transform="translate(-2142.7 441.96)"/><path class="cls-17" d="M2205.33-382.37c4.18,0,1-2.43,1.16-3.35C2206.86-387.92,2199.45-382.37,2205.33-382.37Z" transform="translate(-2142.7 441.96)"/><path class="cls-10" d="M2205.36-385.89c-4.15,3.91,2.2,2.15,2.2,1.88A5.45,5.45,0,0,0,2205.36-385.89Zm0-.82c2.86,0,4.24,5.36,0,4.76C2202.44-382.37,2202-386.72,2205.36-386.72Z" transform="translate(-2142.7 441.96)"/><path class="cls-17" d="M2199.13-375.85c3.42,0,4.51-5.19.63-5.55S2194.29-375.85,2199.13-375.85Z" transform="translate(-2142.7 441.96)"/><path class="cls-10" d="M2199.28-381c-1,0-2.48,1.66-3.27,2.53C2200.62-372.51,2203.86-381,2199.28-381Zm0-.82c5.6,0,2.74,4.81.12,6.41C2197.08-374,2192-381.86,2199.28-381.86Z" transform="translate(-2142.7 441.96)"/><path class="cls-17" d="M2206.26-371.31c2.94,0,2.21-7.45-3-3.52C2203.79-373.94,2205.05-371.31,2206.26-371.31Z" transform="translate(-2142.7 441.96)"/><path class="cls-10" d="M2206.35-376a25.71,25.71,0,0,0-2.56,1.24C2206.79-370,2208.49-371.89,2206.35-376Zm0.09-.83c2.71,0,3.45,3.81,1.52,5.19C2204.53-369.13,2199.47-376.78,2206.44-376.78Z" transform="translate(-2142.7 441.96)"/><path class="cls-17" d="M2201.32-364.35c4.17,0,4.9-5.12.56-6.27C2198.81-371.43,2193.87-364.35,2201.32-364.35Z" transform="translate(-2142.7 441.96)"/><path class="cls-10" d="M2201.7-370.22s-4.14,2.26-4.26,3.5c3.14,6.53,11.21-3.5,4.26-3.5h0Zm0-.82c5.12,0,4.19,6.29-.38,7.1C2195.19-362.85,2196-371,2201.7-371Z" transform="translate(-2142.7 441.96)"/><path class="cls-17" d="M2193.15-366.68a1.45,1.45,0,0,0,1.47-.78c-0.2-2.46-3.66-1.16-4.44-.39Z" transform="translate(-2142.7 441.96)"/><path class="cls-10" d="M2192-368.5c-2.29,0,1,2.24,2.22,1A2.84,2.84,0,0,0,2192-368.5Zm0-.82c9.39,0-5,5.1-2.27,1.42A3.19,3.19,0,0,1,2192-369.32Z" transform="translate(-2142.7 441.96)"/><path class="cls-18" d="M2284.07-70.55c-14.3-6.37-18.75-25-19.18-39.6,2.4,8.41,7.83,15.27,13.48,21.75,4.7,5.39,14.81,13.23,16.94,20.35C2295.5-67.43,2284.84-70.21,2284.07-70.55Z" transform="translate(-2142.7 441.96)"/><path class="cls-18" d="M2336.24-72.67c13.62,2.58,36.42,6.49,40.49,22.1-3.79-4.12-41.79-15.19-43.86-5.55C2334.16-61.59,2335.36-67.11,2336.24-72.67Z" transform="translate(-2142.7 441.96)"/><path class="cls-19" d="M2186.84-390.14c1.51-4.95,15.48-12.67,17.14-5C2205.42-388.52,2189.46-389.36,2186.84-390.14Z" transform="translate(-2142.7 441.96)"/><path class="cls-20" d="M2200.11-393.21c-3.71,5.7-8.42.63-13.27,3.07,2-3.9,12.65-11.48,15.87-4.5a4.38,4.38,0,0,0-2.6,1.43h0Z" transform="translate(-2142.7 441.96)"/><path class="cls-21" d="M2191.21-393.55c0,4.77,8.61,4.77,8.61,0S2191.21-398.32,2191.21-393.55Z" transform="translate(-2142.7 441.96)"/><path class="cls-22" d="M2192.28-393.11c0,5.5,5,0,5,0S2192.28-398.61,2192.28-393.11Z" transform="translate(-2142.7 441.96)"/><path class="cls-23" d="M2196.08-395.29q1.38,2.65,2.76,0Q2197.47-398,2196.08-395.29Z" transform="translate(-2142.7 441.96)"/><path class="cls-11" d="M2204.2-394.93c-6.53-4.52-13.76-2.27-17.36,4.79C2190.87-397.28,2197.86-395.49,2204.2-394.93Z" transform="translate(-2142.7 441.96)"/><path class="cls-12" d="M2224.58-413.87c4.76-2.26,7.17-6.22,11.27-8.87-3,3.22-7.61,7.55-10.1,10.88-1.82,2.44-5.82,10.11,1.63,6a19,19,0,0,1-8.86,2.3,10.63,10.63,0,0,1,6.06-10.34h0Z" transform="translate(-2142.7 441.96)"/><path class="cls-3" d="M2195.37-430.91c-2.16,6.62,1.73,17.22,6.38,6C2196.06-418.26,2195.29-425.79,2195.37-430.91Z" transform="translate(-2142.7 441.96)"/><path class="cls-3" d="M2216.68-436.08c-0.11,4.7-6.8,3.95-9.42,7-7.23,8.48,6.94,11.33,7.78,19.46-0.48-5.84-7.13-9.93-7-14.55,0.17-7.18,8.49-4.65,8.66-11.92h0Z" transform="translate(-2142.7 441.96)"/><path class="cls-3" d="M2215-409.6c6.76-7.79,16.23-15.81,26.73-17.35C2230.42-430.28,2220.58-417.83,2215-409.6Z" transform="translate(-2142.7 441.96)"/><path class="cls-12" d="M2163.07-362.36c-0.26,3-6.19,3.65-7.84,4.18,1.44-2.32,4.87-5.31,7.84-4.18C2163-361.16,2159.28-363.8,2163.07-362.36Z" transform="translate(-2142.7 441.96)"/><path class="cls-24" d="M2176.14-360.34c-0.4-4.14,14.68-6.39,17.5-7.77,7.66-3.74,12.35-10.06,15.27-18,2.73-7.4,1.44-10.39,8.91-13.15,6.48-2.39,13.65-1.72,17.68-8.74-2.36,6.48-7.77,9.27-14.35,10.16,0.93,4.76,1.33,8.44.28,12.44-1.49,5.7-3.23,9.53-2.87,16.1,1.47,26.75,10.09,55.4,16.19,81.45,5.32,22.7,14.55,43.68,20.83,66,5.42,19.3,8.73,44.27,23.49,59.06,6.47,6.48,9.26,9.28,8.21,19.1s-4.68,18.94-4.06,28.88c0.82,13.1,8.27,19.5,16.38,28.7,7.69,8.73,12.89,19.52,16.55,30.48,4.82,14.39,10.08,34.46,6.51,49.75-2.88,12.33-6,15.8-.53,28.17a59.52,59.52,0,0,1,4.44,16.83c2.64,20,2.78,40.67,1.78,60.77a85.3,85.3,0,0,1-2.95,20c-2.81,9.73-6.32,19.91,8.52,18.17-4.22,1.53-20.25,5-21.79-2.94-0.61-3.13,8.37-13.07,9.22-16.23,2.34-8.73,0-22.05-.55-31.29-0.85-15.14-1.78-30.28-3-45.4-0.37-4.75-.37-9.82-1.32-14.5-1.5-7.39-5.44-12.51-5.72-20.29-0.61-16.74-1.32-33.64-5.31-50-1.53-6.29-3.71-18-8.49-22.92-2.12-2.17-9.39-5.75-12.75-5-9.46,2.11-11.15,35.27-12.72,44.33-1.91,11.06.15,23.11-3,33.7-1.76,5.89-4.47,10.66-5.67,16.72-6,30.33-5.71,61.48-6.95,91.25-5.87.35-18.61-1.58-20.4-8.92-1.52-6.21,6.77-8.59,9.15-13.7,4.89-10.52,3.64-26.6,4.33-37.91,0.8-13.09,2.74-27,2-40.15-0.88-15.9,4-29.76,3-45.79-1.11-18.58,4.84-39.86.93-58-1.86-8.58-7.88-15.7-10.19-24.24-3-11-1.78-22.65,1.33-33.53s8.73-20.36,9.3-31.85c0.59-12-2.82-23.88-4.93-35.61-3.83-21.37-7.86-42-15.31-62.5-6.93-19.05-16-37.4-23.68-56.19-2.83-7-5.34-14.45-9.16-20.95-1.92-3.27-4.44-4.49-4.64-7.82-14.69-2.82-25.83,22.71-38.13,16.73,4.45-2.6,17.24-9.19,16.66-15.46C2176-361.52,2176.66-354.67,2176.14-360.34Z" transform="translate(-2142.7 441.96)"/><path class="cls-3" d="M2330.53-108c13.54,19.63,49.24,1.68,50,30.76,0.46,17.25.84,34,3.71,51.14,1.57,9.36,2.71,23.57,9,31.28,2.16,2.62,5.5,3.57,7.32,6.59,3,4.9,1.75,12.77,1.57,18.18-0.47,13.7-.91,27.41-1.72,41.09-0.79,13.31-1.1,27.91-5.48,40.65-2.23,6.49-10.11,22.62,4.82,20.46-9.94,1.65-24.61.82-16-11.33,6.46-9.14,8.84-12.59,9.83-23.51,1.86-20.73,1-41.75.8-62.54-0.1-8.78-1.14-13.5-5.5-21.07-6.57-11.38-5.69-27-7.37-39.73-0.8-6.13-1.08-17.5-4.57-22.79-2.9-4.39-4.78-3.24-10.7-5-4.67-1.42-29.4-11.92-32.81-4.22C2337.29-73.38,2339-94,2330.53-108Z" transform="translate(-2142.7 441.96)"/><path class="cls-25" d="M2398.71-160c11,10.81,24.49,33.9,11.46,48.11-16.4,17.89-56.7,2.56-75.13-4.52-21.73-8.36-40.32-22.75-44.72-46.75-1.89-10.33-.86-21-3.88-31.16-2.07-7-6-12.94-9.4-19.29-15.29-28.39-22.07-61.32-32.43-91.7-4.8-14.08-9.81-28.1-14.36-42.26-1.22-3.79-9.27-22-6.2-26.31s5.94,2.53,8.25,6.16c8.75,13.74,15,29.41,21.34,44.35,7,16.59,13.4,33.44,20.66,49.93,5,11.33,10.12,24.27,19,33.16,7.12,7.11,17.83,9.78,23.94,17.95,7.79,10.41,5.81,23.11,16.51,31.83,18.53,15.12,48.05,13.86,64.93,30.51C2422.25-136.8,2384.6-173.93,2398.71-160Z" transform="translate(-2142.7 441.96)"/><path class="cls-5" d="M2400,133.41c-6.36,1.92-19-2.31-15,8.22-11.22-1.62-8.63-7.73-4.91-15.56C2380.48,136.54,2396.51,130.13,2400,133.41Z" transform="translate(-2142.7 441.96)"/><path class="cls-5" d="M2333.35,140.69c-5.17,1.37-17.5,0-16.65,7.68-8.55-1.23-9.68-6.5-4.91-13,4.6,6.67,15.51,5,21.95,2.8Z" transform="translate(-2142.7 441.96)"/><path class="cls-5" d="M2251,120.2c-0.7-5.87-17.26-10.2-17.25,0-8.56-1.53-2.82-12.25.66-16.14,1.56,6.94,8.56,9.53,14.77,11,0.77,0.19,6.56.16,6.67,0.4C2257.11,118.37,2252.8,119.95,2251,120.2Z" transform="translate(-2142.7 441.96)"/><path class="cls-26" d="M2373.26-41.87a50.33,50.33,0,0,0-23.64-6.75c-5-.06-11.38,3-14.08.32-1.83-1.79-2.75-8.88-1-10.73,5.18-5.62,23.29,2.14,29,4.07C2373.87-51.41,2373.44-52.78,2373.26-41.87Z" transform="translate(-2142.7 441.96)"/><path class="cls-26" d="M2371.33-86.53c-7.62,29.31-32.83-2.17-38.46-16.57,2.49,7,1.49,28,4.85,30.75s12.85,3,17.18,4.44a70.06,70.06,0,0,1,17.77,9.16C2369.83-67.51,2368.93-77.56,2371.33-86.53Z" transform="translate(-2142.7 441.96)"/><path class="cls-26" d="M2273.53-38.38C2265.15-46.23,2262.82-58,2263-69c0.34-18.07-4-39.77.12-57.39-0.61,17.77,2.73,46.66,20,55.6C2275.48-68.81,2274.87-45.18,2273.53-38.38Z" transform="translate(-2142.7 441.96)"/><path class="cls-26" d="M2255.35-179.45c4.1,7.78,10.54,17.18,19.39,19.8-10.86-12.83-18.67-29.52-22.76-45.77C2254.05-197.19,2256.32-188,2255.35-179.45Z" transform="translate(-2142.7 441.96)"/><path class="cls-26" d="M2230.73-287.57c-9.46-22.92-26.09-54.26-14.06-78.86-0.73,1.32-8.65,10.75-10.26,8-0.49-.82,6-5.55,6-5.55a19.47,19.47,0,0,1-9.71,1.32c10.73-3.84,8-15.16,9.43-24.1-1.29,7.18-4.45,15.48-10.8,19.62-5.24,3.42-11.87,2.33-17.22,5.52-4.34,2.59-6.37,6.33-9,10.44,4.41-4.7,9.38-8.35,15.8-9.77,7-1.55,4.82-.69,7.59,2.38,4.44,4.93,7.07,12.44,10,19C2216.2-322.28,2222.56-304.6,2230.73-287.57Z" transform="translate(-2142.7 441.96)"/><path class="cls-25" d="M2186.93-407.89c-5.16,7.85-3.81,12-3.71,20.51,0.08,6.77-2.13,11.14-8.05,14.54-4.5,2.59-9.94,3.26-14.93,4.33-5.66,1.21-8.51,3.47-8.91-2.53-0.36-5.56,7.9-13.29,11.4-16.76,6.42-6.36,6.51-9.73,10.23-17.43,4-8.36,23.42-17,14-2.66C2184.46-404.14,2187.37-408.56,2186.93-407.89Z" transform="translate(-2142.7 441.96)"/><path class="cls-27" d="M2209.17-437.66c0,5.25,5.76,0,5.83,0C2214.92-437.66,2209.17-442.91,2209.17-437.66Z" transform="translate(-2142.7 441.96)"/><path class="cls-27" d="M2191.08-438.17c0,5.25,5.75,0,5.83,0C2196.83-438.17,2191.08-443.42,2191.08-438.17Z" transform="translate(-2142.7 441.96)"/><g class="cls-28"><path class="cls-29" d="M2149.13-367.28a3,3,0,0,1,.07-0.51A2.84,2.84,0,0,1,2149.13-367.28Z" transform="translate(-2142.7 441.96)"/><path class="cls-29" d="M2144.74-351.28c1.4-1.53,1.33-5,1.71-6.91,0.42-2.18-1.21-4.07,0-6.34,0.57-1.13,2.45-1.48,2.73-2.75-0.44,8.88,10.88,1.39,15.7.48,9.24-1.74,16.74-4.27,19.28-14.31,1.16-4.57-.72-8.16-0.46-12.47,0.45-7.6,7.32-17.27,15-19.24,10.38-2.67,11.88,9.69,9.24,17.29-2.43,7-8.94,11.53-14.38,16-6.08,5-14.39,17.27-22.81,18.19-2.18.24-3.51,1.39-5.31,0.46,2.55,1.32-2-9-3.05-4.73-0.9,3.5,4.67,1.4.76,6.62-1.09,1.46-4.78,1.91-6.28,2.23-1.81.38-6.21-.15-6.5,0.19-4.08,4.64,3.45,4,2.14,8-1.73,5.34-10.52.39-7.69-2.71h0Z" transform="translate(-2142.7 441.96)"/></g><path class="cls-25" d="M2184.65-414.14c-5.86.89-13.77,15.73-6.6,14.66,3.81-.57,12.46-15.55,6.6-14.66h0Z" transform="translate(-2142.7 441.96)"/><path class="cls-25" d="M2169.71-391.16c-6,3.4-23.1,23.56-6.1,20.26,2.36-.46,8.37-1.6,9.1-4.57s-2.62-3.35-2.9-6c-0.14-1.32,2.72-11,2.92-11a6.59,6.59,0,0,0-3,1.23h0Z" transform="translate(-2142.7 441.96)"/><path class="cls-25" d="M2231.7-357.17c7.45,16.86,12.49,35.06,18.67,52.41,4.21,11.81,8.45,23.62,13.08,35.28,2,5,4.9,17.76,9.61,20.89,5,3.36,2.78-2.87,2-7.17-2.3-12.12-6.63-24.1-10.63-35.74-3-8.75-28.59-78.45-36.16-75.73-1,.37,3.53,10.19,3.47,10.06C2236.51-346.27,2220.77-381.88,2231.7-357.17Z" transform="translate(-2142.7 441.96)"/><path class="cls-25" d="M2321.76-201.4c12.55,24.84,50.68,26,68.28,46.54,4.88,5.69,13,21.33-.1,21.65-9,.22-21.81-9.83-29.6-13.37-14.2-6.46-30.11-6.42-44-12.7-13.55-6.12-18.23-20.66-21.13-34.21-1.4-6.52-8.56-27.76,2-30.5,10.34-2.69,21.26,16,24.61,22.6h0Z" transform="translate(-2142.7 441.96)"/></g></g></svg>