<svg xmlns="http://www.w3.org/2000/svg" xmlns:xlink="http://www.w3.org/1999/xlink" viewBox="0 0 340.02 217.97"><defs><style>.cls-1{isolation:isolate;}.cls-2,.cls-7,.cls-8{fill:#c1975c;}.cls-3{fill:#7e5c3e;}.cls-4{fill:#826141;}.cls-5{opacity:0.29;}.cls-12,.cls-15,.cls-16,.cls-18,.cls-19,.cls-35,.cls-37,.cls-41,.cls-42,.cls-5,.cls-7,.cls-8,.cls-9{mix-blend-mode:multiply;}.cls-24,.cls-29,.cls-33,.cls-34,.cls-40,.cls-6{fill:#fff;}.cls-6{opacity:0.14;}.cls-29,.cls-33,.cls-34,.cls-39,.cls-40,.cls-6{mix-blend-mode:overlay;}.cls-7{opacity:0.4;}.cls-8{opacity:0.32;}.cls-9{opacity:0.48;}.cls-10,.cls-12,.cls-18,.cls-36{fill:#dbb169;}.cls-11{fill:#9c7347;}.cls-12,.cls-16{opacity:0.44;}.cls-13,.cls-20,.cls-24{opacity:0.85;}.cls-14,.cls-20,.cls-39{fill:#fffbfc;}.cls-15{fill:#c5c6c9;}.cls-16,.cls-17,.cls-35,.cls-41{fill:#bd9b5f;}.cls-18,.cls-35{opacity:0.63;}.cls-19{fill:#efedee;}.cls-21{fill:#382517;}.cls-22{fill:#26191f;}.cls-23{fill:#02020e;}.cls-25{fill:#000002;}.cls-26{fill:url(#radial-gradient);}.cls-27{fill:url(#radial-gradient-2);}.cls-28{fill:url(#radial-gradient-3);}.cls-29{opacity:0.19;}.cls-30{fill:url(#radial-gradient-4);}.cls-31{fill:url(#radial-gradient-5);}.cls-32{fill:url(#radial-gradient-6);}.cls-33,.cls-39{opacity:0.21;}.cls-34{opacity:0.53;}.cls-36{stroke:#9c7347;stroke-width:1.01px;}.cls-37{fill:#d4d6d7;opacity:0.9;}.cls-38{fill:url(#Earthtone_19_Radial);}.cls-40{opacity:0.26;}.cls-41,.cls-42{opacity:0.34;}.cls-43{fill:url(#radial-gradient-7);}.cls-44{fill:url(#radial-gradient-8);}.cls-45{fill:url(#radial-gradient-9);}.cls-46{fill:url(#radial-gradient-10);}.cls-47{fill:url(#radial-gradient-11);}.cls-48{fill:url(#radial-gradient-12);}.cls-49{fill:url(#radial-gradient-13);}.cls-50{fill:url(#radial-gradient-14);}.cls-51{fill:url(#radial-gradient-15);}.cls-52{fill:url(#radial-gradient-16);}.cls-53{fill:url(#radial-gradient-17);}.cls-54{fill:url(#radial-gradient-18);}.cls-55{fill:url(#radial-gradient-19);}.cls-56{fill:url(#radial-gradient-20);}.cls-57{fill:url(#radial-gradient-21);}.cls-58{fill:url(#radial-gradient-22);}.cls-59{fill:url(#radial-gradient-23);}.cls-60{fill:url(#radial-gradient-24);}</style><radialGradient id="radial-gradient" cx="1389.01" cy="-44.7" r="6.31" gradientTransform="translate(-19.71 13.39) scale(1.02 1.03)" gradientUnits="userSpaceOnUse"><stop offset="0" stop-color="#414347"/><stop offset="0.33" stop-color="#3f4044"/><stop offset="0.55" stop-color="#37373b"/><stop offset="0.74" stop-color="#29292d"/><stop offset="0.9" stop-color="#161418"/><stop offset="1" stop-color="#070307"/></radialGradient><radialGradient id="radial-gradient-2" cx="1390.69" cy="-41.5" r="3.1" gradientTransform="translate(-19.71 13.39) scale(1.02 1.03)" gradientUnits="userSpaceOnUse"><stop offset="0" stop-color="#898160"/><stop offset="0.51" stop-color="#887f5f"/><stop offset="0.78" stop-color="#85775c"/><stop offset="1" stop-color="#806956"/><stop offset="1" stop-color="#806956"/></radialGradient><radialGradient id="radial-gradient-3" cx="1910.95" cy="7.53" r="0.83" gradientTransform="matrix(0.74, -0.05, 0.23, 3.55, -31.31, 37.74)" gradientUnits="userSpaceOnUse"><stop offset="0" stop-color="#303337"/><stop offset="0.28" stop-color="#242529"/><stop offset="1" stop-color="#070307"/></radialGradient><radialGradient id="radial-gradient-4" cx="-1582.54" cy="164.29" r="6.31" gradientTransform="matrix(-0.98, 0.14, 0.14, 0.97, -213.09, 25.23)" xlink:href="#radial-gradient"/><radialGradient id="radial-gradient-5" cx="-1580.85" cy="167.48" r="3.11" gradientTransform="matrix(-0.98, 0.14, 0.14, 0.97, -213.09, 25.23)" xlink:href="#radial-gradient-2"/><radialGradient id="radial-gradient-6" cx="-2139.87" cy="-51.48" r="0.83" gradientTransform="matrix(-0.73, -0.05, -0.24, 3.36, -204.3, 36.37)" xlink:href="#radial-gradient-3"/><radialGradient id="Earthtone_19_Radial" cx="1378.99" cy="-8.87" r="6.02" gradientUnits="userSpaceOnUse"><stop offset="0" stop-color="#b27968"/><stop offset="0.5" stop-color="#8f4231"/><stop offset="1" stop-color="#7a2017"/></radialGradient><radialGradient id="radial-gradient-7" cx="1366.53" cy="-12.9" r="0.1" gradientTransform="translate(-19.71 13.39) scale(1.02 1.03)" gradientUnits="userSpaceOnUse"><stop offset="0" stop-color="#69413d"/><stop offset="0.56" stop-color="#382522"/><stop offset="1" stop-color="#161110"/></radialGradient><radialGradient id="radial-gradient-8" cx="1366.08" cy="-13.95" r="0.1" xlink:href="#radial-gradient-7"/><radialGradient id="radial-gradient-9" cx="1367.52" cy="-13.23" r="0.1" xlink:href="#radial-gradient-7"/><radialGradient id="radial-gradient-10" cx="1368.59" cy="-13.57" r="0.1" xlink:href="#radial-gradient-7"/><radialGradient id="radial-gradient-11" cx="1369.27" cy="-12.83" r="0.1" xlink:href="#radial-gradient-7"/><radialGradient id="radial-gradient-12" cx="1370.34" cy="-13.8" r="0.1" xlink:href="#radial-gradient-7"/><radialGradient id="radial-gradient-13" cx="1369.27" cy="-15.01" r="0.1" xlink:href="#radial-gradient-7"/><radialGradient id="radial-gradient-14" cx="1387.64" cy="-12.06" r="0.09" xlink:href="#radial-gradient-7"/><radialGradient id="radial-gradient-15" cx="1387.93" cy="-13.36" r="0.1" xlink:href="#radial-gradient-7"/><radialGradient id="radial-gradient-16" cx="1381.81" cy="162.04" r="0.09" gradientTransform="matrix(1.01, -0.12, 0.12, 1.03, -24.49, 5.88)" xlink:href="#radial-gradient-7"/><radialGradient id="radial-gradient-17" cx="1387.93" cy="-14.19" r="0.1" xlink:href="#radial-gradient-7"/><radialGradient id="radial-gradient-18" cx="1386.82" cy="-14.23" r="0.1" xlink:href="#radial-gradient-7"/><radialGradient id="radial-gradient-19" cx="1385.78" cy="-13.7" r="0.1" xlink:href="#radial-gradient-7"/><radialGradient id="radial-gradient-20" cx="1385.4" cy="-14.53" r="0.1" xlink:href="#radial-gradient-7"/><radialGradient id="radial-gradient-21" cx="1386.12" cy="-15.45" r="0.1" xlink:href="#radial-gradient-7"/><radialGradient id="radial-gradient-22" cx="1388.07" cy="-15.21" r="0.1" xlink:href="#radial-gradient-7"/><radialGradient id="radial-gradient-23" cx="1389.43" cy="-14.04" r="0.1" xlink:href="#radial-gradient-7"/><radialGradient id="radial-gradient-24" cx="1368.3" cy="-14.76" r="0.1" xlink:href="#radial-gradient-7"/></defs><title>anim_93</title><g class="cls-1"><g id="Layer_1" data-name="Layer 1"><path class="cls-2" d="M1524.2,70.09c2.2,8.32,8.26,12.83,15.3,17.06s17.41,11.23,10.58,21.69c-5.07,7.76-15.67,1.05-22.05,4.74-11.51,6.66,3.64,17.11,11.18,16.63,5-.31,11.08-2.79,15.72-4.58,6-2.32,6-2.45,7.06-8.52,1.72-10.05,4.79-23.52.6-32.75-2.67-5.88-6.26-10.83-8-17.19-1-3.5-.17-8.92-3.72-10.32C1544.79,54.47,1529.2,67,1524.2,70.09Z" transform="translate(-1333.94 69.86)"/><path class="cls-3" d="M1522.74,70.48c2.71,9,9.69,13.53,17.27,18.35,3.53,2.24,7.34,4.9,9.42,8.64,3.32,6,.25,13.6-6.85,14.64-6.52,1-13-2.32-18.33,3.39-4.7,5.08,1,10.59,5.59,13.06,6.29,3.39,12.16,2.29,18.71.08,5.87-2,13.14-3.15,14.56-9.9,1.92-9.11,4.07-19.31,2.67-28.63-0.77-5.08-3.32-9.32-5.68-13.8a50.36,50.36,0,0,1-3.53-7.83c-0.83-2.55-.84-5.06-1.4-7.65-3.07-14.14-26.82,5.81-32.1,9.13-1.27.8,1.65,0.63,2.28,0.24,4.81-3,9.26-6.55,14.19-9.4,2.63-1.52,7.86-5.06,10.9-2.89,2.61,1.87,2,6.89,2.69,9.65,2.1,8.53,8.71,15.2,9.83,24.05s-1,17.8-2.53,26.37c-0.65,3.55-1.16,5.17-4.75,6.7-4.88,2.07-10.65,4.75-16,4.75-5.07,0-14.72-4.45-14.31-10.7,0.57-8.64,13.27-4.47,18.85-5.55a11.54,11.54,0,0,0,9.45-10.33c0.67-6.73-5.42-11.51-10.45-14.77-7.6-4.92-14.8-9.17-17.57-18.39C1525.43,68.89,1522.51,69.7,1522.74,70.48Z" transform="translate(-1333.94 69.86)"/><path class="cls-4" d="M1540.64,118c-6.54-1.07-13.89,2.44-9.25,11-3.94-7.27,3.31-12,9.25-11h0Z" transform="translate(-1333.94 69.86)"/><path class="cls-4" d="M1535.59,115.88c-5.57.63-12.84,4-7.49,11.09-4.88-6.66,2.91-10.42,7.49-11.09C1532.85,116.19,1535.74,115.86,1535.59,115.88Z" transform="translate(-1333.94 69.86)"/><path class="cls-4" d="M1535.23,114.83a7.83,7.83,0,0,0-5.68-1.78c-0.17.06,6.06,2,5.68,1.78h0Z" transform="translate(-1333.94 69.86)"/><path class="cls-4" d="M1549.25,72.28c-0.66-.88-3.29-5.93-2.48-7.63-0.74,3.47,1,5.73,2.48,7.63C1547.55,70,1549.35,72.41,1549.25,72.28Z" transform="translate(-1333.94 69.86)"/><path class="cls-4" d="M1551.63,71.59c-0.72-1-2.83-4.27-2.56-5.73-0.47,2.91,1.5,4.35,2.56,5.73C1550.43,69.9,1551.71,71.7,1551.63,71.59Z" transform="translate(-1333.94 69.86)"/><path class="cls-4" d="M1550.33,64.39c0.78,1.08,1.78,4.89,1.95,6.26-0.23-2.11-.3-4-1.95-6.26h0Z" transform="translate(-1333.94 69.86)"/><path class="cls-4" d="M1553.86,77a21.88,21.88,0,0,1-3.23-4.12c0.77,2.18,2,2.86,3.23,4.12C1552.62,75.71,1553.93,77,1553.86,77Z" transform="translate(-1333.94 69.86)"/><path class="cls-4" d="M1556.92,78.63q-0.89-3.77-2.8-2.88,1.84,5,2.8,2.88C1555.9,77.8,1557,78.71,1556.92,78.63Z" transform="translate(-1333.94 69.86)"/><path class="cls-4" d="M1557.5,81.29a50.3,50.3,0,0,1-3.72-3.39c1,1.81,2.61,2.3,3.72,3.39C1556.31,80.12,1557.55,81.34,1557.5,81.29Z" transform="translate(-1333.94 69.86)"/><path class="cls-4" d="M1553.36,78.84a21.87,21.87,0,0,1-3.25-4.19,33,33,0,0,0,3.25,4.19C1552.12,77.55,1553.45,78.95,1553.36,78.84Z" transform="translate(-1333.94 69.86)"/><path class="cls-4" d="M1558.85,83.62a34.38,34.38,0,0,0,2.09,3.55l-2.09-3.55h0Z" transform="translate(-1333.94 69.86)"/><path class="cls-4" d="M1561.18,84.59l-2.4-3.57c-0.53-.47,2.73,4.3,2.4,3.57C1560.6,83.24,1561.24,84.72,1561.18,84.59Z" transform="translate(-1333.94 69.86)"/><g class="cls-5"><path class="cls-2" d="M1561.4,82.3a59.46,59.46,0,0,1-7.34-16.87c-1.76-6.8.27-8.55-7.43-7.64-5.18.61-11.37,5.68-15.73,8.27-5.7,3.39-8.22,3-4.38,9.7,0-4.42,8.31-5.32,11.55-4.77,6.76,1.15,7.19,6.89,13.23,9.72a29.46,29.46,0,0,1-2.86-3.48c2.74,4.66,9.86,5.49,12.13,11.93,2.43,6.86-.2,17.47-1.3,24.59-1.69,10.88-6.71,10.34-16.74,11.87-2.37.36-17.35,3.09-10.61-5.6-0.23.29-1.43,5.18-2.33,4.45-1.44-1.17-2.2-5.07-2.49-5.25-1.34-.82-1.66,3.52-2.82-0.47-2.11,16.48,27,11,33.9,6,5.66-4.08,3.42-11,4.29-17.69,1.26-9.69,4.78-15.6-1.1-24.78C1557.54,76.27,1565.25,88.33,1561.4,82.3Z" transform="translate(-1333.94 69.86)"/></g><path class="cls-6" d="M1529.29,76.42c1.26,4.33,5,6.89,8.7,9.05,6.91,4,8.94,5,13.69,10.61,0.37,0.44-1.56-5.52,1.15-2.46,0.06,0.06-.14-3.55-1-3.85a5.37,5.37,0,0,1,2,1.43c-1.74-2.86-11.83-21.88-18.13-17.49-0.62.43,0.78,2.14,1.21,2.25a13.31,13.31,0,0,0-3.78-.87c-0.36.15,1.19,1.53,0.76,1.35a5.61,5.61,0,0,0-2.52-.93c0.08-.09,2.3,4.24,1.61,3.83C1533.22,79.44,1529.14,75.86,1529.29,76.42Z" transform="translate(-1333.94 69.86)"/><path class="cls-7" d="M1531.36,113.31c2.8,1.59,17.2,10.62,18.4,2.39C1550.44,111,1531.52,112.79,1531.36,113.31Z" transform="translate(-1333.94 69.86)"/><path class="cls-6" d="M1529.09,113.71a2.52,2.52,0,0,1,2.17.7c0.29,0.44-5,4.58-5.71,4.57C1523.07,119,1528.2,113.92,1529.09,113.71Z" transform="translate(-1333.94 69.86)"/><path class="cls-6" d="M1531.76,116.72c-2.1.35-6.21,3.22-4,5.86C1528.78,123.84,1534.41,115.71,1531.76,116.72Z" transform="translate(-1333.94 69.86)"/><path class="cls-6" d="M1538.47,117.84c-6.72-2.11-9.3,8.7-1.37,7.79C1544.11,124.83,1542.14,117.84,1538.47,117.84Z" transform="translate(-1333.94 69.86)"/><path class="cls-8" d="M1561.4,82.3a59.46,59.46,0,0,1-7.34-16.87c-1.76-6.8.27-8.55-7.43-7.64-5.27.62-23.76,9.76-21.44,15.27,3.1-2.41,12.18-6.56,16.44-5.89,6.1,1,5.64,6.51,10.66,10.68a18.66,18.66,0,0,1-3.05-5.57c1.6,6.94,11.91,9.64,14.13,16.9,2.86,9.34-2.91,19.89-1.27,29.59-0.41-12.54,6.45-25.29-.71-36.47C1557.54,76.27,1565.25,88.33,1561.4,82.3Z" transform="translate(-1333.94 69.86)"/><path class="cls-2" d="M1379.58,41.59c0.8,23.7,9.39,47,8.16,70.78-0.31,6-.35,9.6-6.18,12.27-3.53,1.62-9-.67-11.54,2.61-6.86,8.74,9.1,15.38,15.62,15,2.24-.13,11.72-2.22,13.65-4.15,5-5,.1-9.51-0.59-15.11-1.37-11.19,2.77-24.88,3.42-36.33,0.41-7.19,2.94-21.76-1.2-27C1395.09,52.17,1383.35,52.25,1379.58,41.59Z" transform="translate(-1333.94 69.86)"/><path class="cls-3" d="M1378.12,42c1,24.23,9.58,47.73,8.09,72.13a17.36,17.36,0,0,1-.94,5.91c-1.56,3.57-5.34,4.22-8.88,4.73-2.29.33-4.64,0.24-6.63,1.65-5.07,3.63-2.47,9.37,1.67,12.26a22.14,22.14,0,0,0,14.82,4c4.44-.57,11.07-1.65,14.47-4.83,3.1-2.89,2.24-6.42,1-9.94a34.91,34.91,0,0,1-1.64-14.91c0.76-10,2.85-19.87,3.74-29.87,0.66-7.42,3.27-18.73-2.29-24.87-6.35-7-16.64-7.38-20.5-17-0.26-.66-3.13.28-2.92,0.78,2.65,6.62,8.22,9.27,14.14,12.51,3,1.63,6.27,3.58,7.93,6.67s1.64,6.93,1.61,10.29a180.15,180.15,0,0,1-1.9,22.85c-1.3,9.39-4.16,19.54-2.66,29.06,0.54,3.42,2.89,6.73,2.8,10.22-0.14,5.78-7.44,7.13-12,7.85-5.64.89-14-1.91-17.14-7-1.84-2.93-1.12-7.42,2.67-8.53,2.77-.81,5.68.11,8.52-1,5.34-2.09,6.76-6.26,7.07-11.62,1.45-24.4-7.07-47.89-8.09-72.13C1381,40.74,1378.09,41.2,1378.12,42Z" transform="translate(-1333.94 69.86)"/><path class="cls-3" d="M1388.48,132.45c-5-1-16.24-.71-9.83,8.45-6.32-8.61,5.66-9,9.83-8.45C1385.3,131.8,1388.54,132.45,1388.48,132.45Z" transform="translate(-1333.94 69.86)"/><path class="cls-3" d="M1381.22,129.2c-6.91-1.58-9.49,4.8-6.92,10.42-2.24-5,.6-12.43,6.92-10.42C1378.76,128.64,1381.3,129.23,1381.22,129.2Z" transform="translate(-1333.94 69.86)"/><path class="cls-3" d="M1379.87,127.74c-6.11-.61-9.16-0.85-10.22,6,0.81-5.93,5.24-6.41,10.22-6C1377.29,127.48,1380,127.75,1379.87,127.74Z" transform="translate(-1333.94 69.86)"/><path class="cls-3" d="M1401.2,80.74a35.21,35.21,0,0,0-1.67-6.42,81,81,0,0,1,2.09,15c-0.1-2.36-.2-6-0.42-8.59C1401,78.46,1401.43,83.51,1401.2,80.74Z" transform="translate(-1333.94 69.86)"/><g class="cls-9"><path class="cls-2" d="M1401.81,89.08c1-7.16,3.46-23.41-.2-29.09-1.46-2.27-7.76-4.17-10-5.68-4.78-3.17-10-7.09-12-12.72,0.18,5.09.7,10.17,1.35,15.22,2.29-3.47,10.36,6.31,11.78,8.92,6,11.14,5.41,25.67,4.83,38-0.24,5-1.05,9.84-1.6,14.78-0.68,6.11,2.09,6.79,2.39,11.85,0.76,12.86-28,11.7-17.26.67-1.14,1.17-6,6.33-6.35,6.13-3.2-1.64-.05-6.11,1.75-7.34-0.7.47-4.74,5.61-5.18,5.57-3.27-.36-0.21-9.07,3.39-8.38-1.72-.33-5.66,3.31-5.87,2.28-3.65,14,22.53,15.07,29.5,9.25,6.37-5.32.24-12.67,0.59-20.05,0.47-9.89,3.85-19.3,2.91-29.37C1402.25,85.92,1402.1,92.25,1401.81,89.08Z" transform="translate(-1333.94 69.86)"/></g><path class="cls-10" d="M1586.44-18.72c0.05,0.2,7.92,2.13,8.8,2.65C1603-11.5,1604.66-2.68,1607,5.3c3.81,13.23,9.39,28,23.23,33.5s33.92,0.87,40.07-13.7c6.09-14.42-1.22-29.32-9-41.26-3.78-5.81-8.76-13.21-8.73-20.47,0.05-11.26,8.23-7,13.81-13,5-5.4.73-8.73-5.11-9-7.83-.34-14.79,5.5-17.23,12.64-7.12,20.79,15.32,35.17,19.78,53.31,3.86,15.73-8.32,28.63-24.58,25.49-21.54-4.17-23-30.08-29.8-46.23-6.23-14.78-23.74-27.6-40.31-21.79,5,2.77,15.79,10.53,17.34,16.43C1586.58-18.19,1585.84-21,1586.44-18.72Z" transform="translate(-1333.94 69.86)"/><path class="cls-11" d="M1585.3-17.92c1.75,0.91,3.92,1.19,5.8,1.73a14.92,14.92,0,0,1,8.77,6.54c4.78,7.3,5.73,17,8.79,25.06,5.34,14.1,15.08,25.53,31,26.53,13.21,0.83,27.93-5.17,32.65-18.38,3.17-8.88,1.46-18.35-2.19-26.79-4-9.15-10.92-16.76-14.5-26-1.5-3.89-3.08-10.56.41-13.87,2.13-2,5.9-2.2,8.44-3.66,4-2.28,8.36-8.07,3-11.32s-13.13-1-17.76,2.48c-5.86,4.42-8.75,11.71-8.49,18.93,0.55,15.45,14.07,26.27,19.62,39.83,3.3,8.06,3.23,17.7-3.37,24.13-7,6.84-18.5,6.35-26.28,1.07-13.51-9.17-14.33-28.27-20.26-42.06-6.85-15.93-24.57-27.86-42-22.31-0.57.18-1.93,1.12-.89,1.71,6.22,3.55,14.63,8.89,17,16l2.92-.78c-0.09-.26-0.15-0.56-0.22-0.83l-2.92.78a5.45,5.45,0,0,1,.22.83c0.33,1.24,3.25.46,2.92-.78a5.45,5.45,0,0,0-.22-0.83c-0.42-1.21-3.25-.47-2.92.78,0.07,0.27.13,0.56,0.22,0.83,0.43,1.22,3.33.42,2.92-.78-2.49-7.45-11.17-13.13-17.66-16.84l-0.89,1.71c18.08-5.76,34.46,9.15,40.11,25.24,4,11.39,6,24.46,14,34,7.5,8.93,21.11,12.25,31.58,6.59,11.82-6.4,13-20.32,7.7-31.5-6-12.63-19.14-23.95-18.57-38.93a22.16,22.16,0,0,1,3.1-10.79c3.14-5,11.89-11.11,17.92-6.87,5.52,3.88-2.32,8.58-6,9.82a14.87,14.87,0,0,0-5.36,2.56c-4.68,4.19-2.66,12.28-.52,17.18,3.66,8.36,9.76,15.39,13.51,23.74,4.14,9.22,6.1,19.87,1.54,29.33-3.55,7.38-11.14,11.77-18.95,13.28-8.73,1.69-18.19.1-25.24-5.54s-11.13-14.59-14-23.12c-2.5-7.51-3.55-16.28-8.42-22.74a15.92,15.92,0,0,0-6.53-5.31c-2.41-1-5.37-1-7.67-2.2C1586.55-20.06,1583.94-18.63,1585.3-17.92Z" transform="translate(-1333.94 69.86)"/><path class="cls-12" d="M1661.42-47.67c2.51-.46,6.35-1.65,7.14-4.58-6.16,4.7-15.54,1.42-19.37,10-4.7,10.54,6.74,21.66,12,29.23,11.46,16.36,14.45,42.75-8.78,50.12-22.81,7.24-36.54-10.75-42.76-30.09-3.13-9.74-5.16-19.73-13.29-26.72-2.34-2-5.2-3-7.33-5.31-0.93-1-7-10.84-.76-7.21-1.26-1-6.21-2.55-3.09-3a27.27,27.27,0,0,0-16.12.13c7,3.89,11.25,12.93,17.61,16.53s11.66,2.86,16.07,10.82c9.89,17.87,7.72,43.87,33.46,48.23,23.47,4,40.22-13.4,34.94-36.19-2.53-10.9-33.18-47.43-9.76-51.91C1665.49-48.41,1646.45-44.81,1661.42-47.67Z" transform="translate(-1333.94 69.86)"/><path class="cls-10" d="M1377.26,7.21c1.2,2.8,1.64,6.53.3,9.35q1.78,0.12,2.08-2.11c-1.9,0-4,11.08-4,12.67,0.57-1.46.94-3.53,2.08-4.67-1.82,1.86-2.22,8.12-1.78,10.4a15.8,15.8,0,0,1,1.33-3.62c-2.6,8.09,2.2,18.39,8.15,23.83a2.37,2.37,0,0,1-.3-2.41c2,5.13,5.38,7.6,10.81,9.5a2.62,2.62,0,0,0-.74-2.26c2.55,6.08,10.22,4.07,14.84,6.46,6.54,3.39,13.34,14.86,15.13,21.9,2.69,10.58,7.15,36.09-1.52,43.86-4.13,3.7-12.75,6.93-5.61,13.75,2.73,2.61,15.2,3.76,18.83,3.32,10.1-1.22,7.45-8.11,6-15.39-1.68-8.67-2-17.89-2-26.7,0-8.15,3-17.2,2.2-25.21-0.78-7.53-4.76-6.69,1.65-7.53,5.81-.76,13.77,2,19.61,2.52a186.68,186.68,0,0,0,32.44.35,122.56,122.56,0,0,0,42.54-10.87c6.75-3,9.51-4.6,16-.91,9.15,5.21,16.95,12.68,26.48,17.61,8.25,4.27,14.74,5.94,18.87,14.57,2.57,5.37,8.79,18.1,5.77,24.08-4.53,9-30.8,1.58-16.37,20.24a15.08,15.08,0,0,0,10,5.6c9.12,1.5,13.94-2,17.94-8.58,4.66-7.67,5-9.51,2.84-18-2.08-8-.83-17-0.75-25.13,0.07-6.78,1.24-15.4-2.85-21.31-3-4.38-8.13-7.23-11.28-11.8-11.59-16.81-8.89-36.24-11.34-55.43-2.36-18.43-8-42.38-29.94-45.23-10.29-1.34-22.21,2.23-32,4.72-21.43,5.44-43.09,15.38-65.66,14.19-8.43-.45-13.27-3.11-20.29-7.64-7.77-5-16.22-3.45-23.29-7.68-3-1.8-5.35-7.15-9.46-6.28-3.14.67-4.92,6.57-5.94,9-2.2,5.14-3.93,10.45-6.47,15.48-2.7,5.36-6.57,9.87-9.71,14.11-0.37.5,1.14,2,.89,2.3-1.6,1.74-2.09,1.65-4.45,3.21C1386.84,2.46,1376.42,4.37,1377.26,7.21Z" transform="translate(-1333.94 69.86)"/><path class="cls-11" d="M1375.79,7.6a12.84,12.84,0,0,1,.31,9.18c-0.21.57,1,.5,1.22,0.46,2.08-.37,3.13-0.86,3.77-3,0.25-.84-1.73-0.33-2-0.25-4,1.31-4.73,10.05-4.92,13.53,0,0.77,2.69,0,2.91-.61a16.21,16.21,0,0,1,2-4.49c0.67-.94-2.2-0.58-2.69.08-2.13,2.89-2.36,7.3-1.9,10.76,0.11,0.86,2.74,0,2.91-.61a22.86,22.86,0,0,1,1.33-3.62l-2.9.44c-2.37,8.84,1.9,18,8.24,24.14,0.48,0.47,3.16-.14,2.83-0.93l-0.31-2.24-2.91.61c2.24,5.12,5.93,7.83,11.09,9.74,0.61,0.23,2.71-.1,2.64-1a2.62,2.62,0,0,0-.74-2.26c-0.49-.8-3.27.11-2.92,0.78,3.3,6.37,10.54,4,15.87,7.14,6.45,3.82,11.1,12.2,13.46,19.1,2,5.76,2.88,12.1,3.58,18.13,0.81,7,1.35,14.57-.76,21.35a14.22,14.22,0,0,1-5.43,7.59c-2,1.56-4.75,3-6,5.43-2.47,4.84,2.92,8.39,7,9.43,6.52,1.68,23.62,4.56,24.3-6,0.18-2.84-.71-5.73-1.26-8.49a110,110,0,0,1-1.84-15.67,108.35,108.35,0,0,1,0-15.58c0.48-5.13,1.64-10.17,2-15.31a24.6,24.6,0,0,0-.92-9.94c-0.11-.3-1.15-2.08-1-2.42,0-.07,5.53,0,6.27,0,4.19,0.41,8.26,1.59,12.42,2.2a133.53,133.53,0,0,0,14.83,1.06c18.58,0.65,37.31-1.43,54.81-7.9,4.45-1.65,8.81-4.28,13.35-5.58,6.81-2,12,2.31,17.33,6.07,7.29,5.16,14.25,10.48,22.32,14.39s12.93,7.55,16.71,15.75c2.49,5.4,7.17,14.36,4.51,20.41-3.29,7.47-16,2.92-20.15,9.64-2.25,3.66,1.43,8.61,3.69,11.34,4.29,5.19,11.64,7,18.15,5.82,5.63-1,9.52-4.63,12.5-9.37,4.13-6.57,4.66-10.85,3-18.31-2.18-9.56-.92-19.67-0.62-29.38,0.27-8.56-.55-15.45-7-21.53-3.48-3.28-6.71-6.12-9.15-10.32a52.48,52.48,0,0,1-5.52-14c-2.24-9.23-2.38-18.79-3-28.22-0.92-14.16-2.76-30-10.63-42.2-8-12.41-21.15-15.16-35.05-13-19.66,3-38.17,10.92-57.45,15.52-10.76,2.57-23.68,5-34.46,1.38-4.11-1.37-7.67-3.73-11.35-6a35.27,35.27,0,0,0-11.56-4.14c-4.61-.94-9.68-1.56-13.32-4.82-2-1.78-3.48-4.39-6.24-5.08-4.51-1.13-7.32,2.56-8.95,6.21-4,9-6.65,18.29-12.49,26.35-1.64,2.26-4.59,4.83-5.12,7.52-0.26,1.31.94,0.5,0.2,2-0.45.91-1.72,1.42-2.58,1.88a23.34,23.34,0,0,1-3.93,1.51c-2.28.73-8.59,2-8.36,5.34,0.05,0.74,3,.18,2.92-0.78-0.17-2.38,10.65-5,12.9-6.52,1.66-1.12,2.22-1.56,2.35-3.18,0.07-.8-0.41-0.75-0.17-1.76s1.3-1.88,1.91-2.69c1.57-2,3.14-4.1,4.55-6.26,4.6-7,7.06-15.14,10.29-22.83,0.55-1.31,1.15-3.37,2.22-4.25,2.17-1.78,4-.3,5.42,1.16,2.54,2.51,4.29,4.28,7.75,5.52,3.8,1.37,7.84,1.72,11.73,2.73,4.89,1.26,8.75,4,13.09,6.45,6.12,3.4,12.4,4.63,19.35,4.64,18.68,0,36.4-6.78,54.06-12,16-4.72,38.39-13.34,53-1.33,10.21,8.39,13.58,22.73,15.48,35.2,2.54,16.63.53,34.47,7,50.32a42,42,0,0,0,5.91,10.48c2.51,3.12,5.86,5.39,8.54,8.34,5.92,6.51,4.79,15.3,4.59,23.43-0.22,9.42-.77,18.2,1.32,27.46,1.7,7.55-1.47,14.78-7,20.1-8.26,7.89-20.82,1.39-24.78-7.63-2.07-4.72.43-6.74,4.86-7.87,6.38-1.63,15.56-2.41,15.71-10.86,0.11-6.4-3.1-12.95-5.8-18.6a25.42,25.42,0,0,0-11.71-12.39c-8-4.22-15.46-8.31-22.77-13.65-5.3-3.87-12.09-10.2-19.08-10.23-6.46,0-12.83,4.43-18.69,6.64a119.75,119.75,0,0,1-28.3,6.78,175,175,0,0,1-33.28.48c-7.89-.58-15.82-3.55-23.75-2.84-1.7.15-5.47,0.11-5.57,2.37-0.08,1.68,1.65,4.43,1.86,6.26,0.58,5.27-.52,10.62-1.29,15.81a110.13,110.13,0,0,0-.37,25.5,110.16,110.16,0,0,0,1.9,12.89c0.52,2.53,1.7,6.27.52,8.78-2.67,5.67-16.84,3.3-21.39,1.06-3.26-1.6-5.57-5.27-3.07-8.52,1.85-2.39,4.86-3.63,7-5.71,7.84-7.56,5.45-23,4-32.51-1.8-11.79-5.48-25.18-15.71-32.58-5.09-3.68-13.44-1.37-16.61-7.5l-2.92.78a2.62,2.62,0,0,1,.74,2.26l2.64-1c-4.95-1.83-8.38-4.32-10.53-9.25-0.34-.77-2.81-0.14-2.91.61-0.23,1.66-.35,1.09.29,2.58l2.83-.93c-6.15-6-10.37-14.9-8.07-23.51,0.25-.92-2.58-0.26-2.9.44a22.86,22.86,0,0,0-1.33,3.62l2.91-.61c-0.42-3.17-.32-7.36,1.66-10.05l-2.69.08a17.77,17.77,0,0,0-2.19,4.85l2.91-.61c0.12-2.09,1.37-11.24,3.08-11.81l-2-.25-0.39,1.21,1.22,0.46a13.16,13.16,0,0,0-.29-9.52C1378.41,6,1375.51,6.83,1375.79,7.6Z" transform="translate(-1333.94 69.86)"/><g class="cls-13"><path class="cls-14" d="M1404,33.6a11.56,11.56,0,0,0,.82-3.1c0-.32-1.92,2-2.17,1.65,0.17,0.25,5.23-25.85,1.49-24.53-0.14.05-1.59,4.9-1.63,5.18,1-7.74-2-15.36-5.47-22.12-1.36,2-3.93,5.33-4.93,6.62a3,3,0,0,1,.61,3,13.12,13.12,0,0,1-4.31,1.76c-2.78,2-8.31,1.5-10.53,4.68-1.71,2.45,1.37,7-.26,10.43q1.78,0.12,2.07-2.11c-1.89,0-4,11.08-4,12.67,0.57-1.46.95-3.52,2.08-4.67-1.82,1.86-2.22,8.12-1.78,10.41a15.79,15.79,0,0,1,1.34-3.62c-2.59,7.87,2.1,18.2,7.84,23.54q0-1.06,0-2.13c2,5.14,5.4,7.61,10.82,9.5a2.65,2.65,0,0,0-.74-2.27c3,7.13,12.59,3.64,17.39,8-5.91-14.17-14.15-16.55-8.65-32.84h0Z" transform="translate(-1333.94 69.86)"/></g><path class="cls-11" d="M1548.32,51.75c-1.93-2.3-3.57-5.13-3.55-8.23,0,3.77,1.35,5.74,3.55,8.23C1546.31,49.34,1548.44,51.87,1548.32,51.75Z" transform="translate(-1333.94 69.86)"/><path class="cls-11" d="M1554.65,58.82c-3.31-2.73-8.15-4-9.74-8.41,1.68,4.84,6.37,5.57,9.74,8.41C1551.3,56.06,1554.75,58.91,1554.65,58.82Z" transform="translate(-1333.94 69.86)"/><path class="cls-11" d="M1561.78,64.27c-1.3-1.26-4.67-2.94-5.68-3.86,1.27,1.15,4.68,2.89,5.68,3.86h0Z" transform="translate(-1333.94 69.86)"/><path class="cls-11" d="M1563.85,67.89a15,15,0,0,0-6-3.64c0.23,0.07,5.82,3.5,6,3.64h0Z" transform="translate(-1333.94 69.86)"/><path class="cls-11" d="M1598.11,55.72c-1.43-1.49-3.69-4.81-4-6.94,0.4,3.57,2.15,4.92,4,6.94C1596.24,53.77,1598.19,55.81,1598.11,55.72Z" transform="translate(-1333.94 69.86)"/><path class="cls-11" d="M1597.14,57.22c-2-1.72-5.13-4.81-4.61-7.65-0.7,4,2.64,5.81,4.61,7.65C1595,55.4,1597.24,57.3,1597.14,57.22Z" transform="translate(-1333.94 69.86)"/><path class="cls-11" d="M1603.84,60.06a9.89,9.89,0,0,1-3.18-4,7.28,7.28,0,0,0,3.18,4C1602.44,58.93,1603.91,60.12,1603.84,60.06Z" transform="translate(-1333.94 69.86)"/><path class="cls-11" d="M1604.53,64.87c-0.74-.62-3.31-2.41-3.71-3.29,0.87,2.12,2.5,2.31,3.71,3.29C1603.27,63.81,1604.62,64.95,1604.53,64.87Z" transform="translate(-1333.94 69.86)"/><path class="cls-11" d="M1605.12,66.12c-0.94-.39-4-2.12-4.5-2.89,1.39,2.25,2.95,2.31,4.5,2.89C1603.4,65.41,1605.26,66.18,1605.12,66.12Z" transform="translate(-1333.94 69.86)"/><path class="cls-11" d="M1610.35,71.22A17.8,17.8,0,0,1,1614,77.5a11.43,11.43,0,0,0-3.68-6.28h0Z" transform="translate(-1333.94 69.86)"/><path class="cls-11" d="M1615.93,78.32a20.56,20.56,0,0,1,.51,5.67,7.13,7.13,0,0,0-.51-5.67h0Z" transform="translate(-1333.94 69.86)"/><path class="cls-11" d="M1615.72,73.91a36.54,36.54,0,0,1,2.5,5.21,8.21,8.21,0,0,0-2.5-5.21h0Z" transform="translate(-1333.94 69.86)"/><path class="cls-3" d="M1433.67,47.91a24.81,24.81,0,0,0,.65,8.16,39,39,0,0,1-.65-8.16C1433.67,47.77,1433.47,50.66,1433.67,47.91Z" transform="translate(-1333.94 69.86)"/><path class="cls-3" d="M1434.7,66a36.81,36.81,0,0,1-1.31-9.1,39.22,39.22,0,0,0,1.31,9.1C1433.87,63,1434.75,66.16,1434.7,66Z" transform="translate(-1333.94 69.86)"/><path class="cls-3" d="M1435.56,68.36a14.2,14.2,0,0,0,1.75,5.23,34.58,34.58,0,0,1-1.75-5.23C1435.55,68.18,1435.76,70.25,1435.56,68.36Z" transform="translate(-1333.94 69.86)"/><path class="cls-3" d="M1437.34,68.92c0.09,0.3,1.32,8.84,1.3,9.13a24.32,24.32,0,0,0-1.3-9.13h0Z" transform="translate(-1333.94 69.86)"/><path class="cls-3" d="M1439.64,78.38c0.16,1.56-1.34,8-2.3,9.25,1.93-2.4,2.66-6.26,2.3-9.25C1439.62,78.21,1440,81.41,1439.64,78.38Z" transform="translate(-1333.94 69.86)"/><path class="cls-3" d="M1440.2,75.26c0.79,2,.07,8.52-0.76,10.47,1.34-3.2,2.14-7.12.76-10.47C1440.13,75.08,1441.63,78.73,1440.2,75.26Z" transform="translate(-1333.94 69.86)"/><path class="cls-3" d="M1435.84,55.21a27.88,27.88,0,0,0,.89,7.37,39.34,39.34,0,0,1-.89-7.37C1435.83,55.06,1435.9,57.7,1435.84,55.21Z" transform="translate(-1333.94 69.86)"/><path class="cls-15" d="M1384.28,36c-0.6-1.2-2.43-4.78-2.39-6.16-0.07,2.91,1.53,4.39,2.39,6.16C1383.3,34,1384.34,36.16,1384.28,36Z" transform="translate(-1333.94 69.86)"/><path class="cls-15" d="M1385.9,41.92a22.28,22.28,0,0,1-2.57-4.86,8.22,8.22,0,0,0,2.57,4.86C1384.61,40.53,1386,42.07,1385.9,41.92Z" transform="translate(-1333.94 69.86)"/><path class="cls-15" d="M1387.29,42.61l-1.77-3.92c0.06,0.16,1.73,3.84,1.77,3.92C1386.61,41.34,1387.33,42.67,1387.29,42.61Z" transform="translate(-1333.94 69.86)"/><path class="cls-15" d="M1394.19,22.53c0.37,1.61-.7,7.78-1.22,9a16,16,0,0,0,1.22-9h0Z" transform="translate(-1333.94 69.86)"/><path class="cls-15" d="M1396.56,20.91a60.56,60.56,0,0,1-1.6,7.92,15.45,15.45,0,0,0,1.6-7.92C1396.55,20.72,1396.72,23.69,1396.56,20.91Z" transform="translate(-1333.94 69.86)"/><path class="cls-15" d="M1399.48,19.39a20.41,20.41,0,0,1-1,5.24,11.62,11.62,0,0,0,1-5.24C1399.47,19.27,1399.66,21.23,1399.48,19.39Z" transform="translate(-1333.94 69.86)"/><path class="cls-15" d="M1395.7,29.58a47.26,47.26,0,0,1-2.55,7.31,34.07,34.07,0,0,0,2.55-7.31C1395.15,32.14,1395.74,29.41,1395.7,29.58Z" transform="translate(-1333.94 69.86)"/><path class="cls-15" d="M1397.13,30c-0.22,3.09-2.51,5.44-3.61,8.2,1.14-2.76,3.43-5.47,3.61-8.2C1396.9,33.14,1397.14,29.78,1397.13,30Z" transform="translate(-1333.94 69.86)"/><path class="cls-15" d="M1393.12,38.14a10,10,0,0,0-.61,5.56,24.31,24.31,0,0,1,.61-5.56h0Z" transform="translate(-1333.94 69.86)"/><path class="cls-15" d="M1391.9,33.62a20.4,20.4,0,0,0-.89,6.95,46.51,46.51,0,0,1,.89-6.95h0Z" transform="translate(-1333.94 69.86)"/><path class="cls-3" d="M1411.86-.56c0.6,1.07,1,7.1.74,8.27a11,11,0,0,0-.74-8.27h0Z" transform="translate(-1333.94 69.86)"/><path class="cls-3" d="M1414.09-6.43a36.62,36.62,0,0,1-.11,10,24.17,24.17,0,0,0,.11-10C1414.06-6.61,1414.74-3.08,1414.09-6.43Z" transform="translate(-1333.94 69.86)"/><path class="cls-3" d="M1414.94-13.79c0.11,0.59,1.86,7.54,1.66,8.26a16.58,16.58,0,0,0-1.66-8.26C1414.91-13.94,1415.59-10.91,1414.94-13.79Z" transform="translate(-1333.94 69.86)"/><path class="cls-3" d="M1415.57-16.83c1.06,1.63,1.6,7.08,1.65,9-0.12-3,.37-5.76-1.65-9h0Z" transform="translate(-1333.94 69.86)"/><path class="cls-11" d="M1426.42-34.36c-2.66,0-6.43.63-8.39-1.31,2.64,2.65,5.59,1.31,8.39,1.31C1423.49-34.38,1426.54-34.36,1426.42-34.36Z" transform="translate(-1333.94 69.86)"/><path class="cls-11" d="M1478.87-16.5c-7.3-.6-20.94.1-25.29-7.27,5.51,8.42,17.54,6.83,25.29,7.27C1474.53-16.85,1479.08-16.48,1478.87-16.5Z" transform="translate(-1333.94 69.86)"/><path class="cls-11" d="M1431.86,135.29c-2.37,2.49-2.65,7.65-.42,10.31-1.25-1.57-1.56-8.44.42-10.31C1429.58,137.68,1431.9,135.26,1431.86,135.29Z" transform="translate(-1333.94 69.86)"/><path class="cls-11" d="M1427.87,134.13c-3.31.24-8.2,8.15-4.53,10.62-3.2-2,1.93-10.53,4.53-10.62C1424.54,134.37,1428,134.12,1427.87,134.13Z" transform="translate(-1333.94 69.86)"/><path class="cls-11" d="M1423.3,133.4c-2.44.65-8.87,2.94-7.38,6.82-1.14-2.71,5.73-6.38,7.38-6.82h0Z" transform="translate(-1333.94 69.86)"/><path class="cls-11" d="M1605.27,130.57c-7.06,1.77-13.72,2.07-11.8,12-1.86-8.86,5.72-10.46,11.8-12C1601.94,131.4,1605.41,130.53,1605.27,130.57Z" transform="translate(-1333.94 69.86)"/><path class="cls-11" d="M1600.79,128.52c-7.37,2.27-11.29,1-10.94,11-0.29-8.9,4.32-8.7,10.94-11C1597.41,129.56,1600.89,128.48,1600.79,128.52Z" transform="translate(-1333.94 69.86)"/><path class="cls-11" d="M1598.63,125.34c-8.43,2.37-9.12,1.75-11.44,11,2-7.82,3.84-9,11.44-11C1596.76,125.87,1598.8,125.3,1598.63,125.34Z" transform="translate(-1333.94 69.86)"/><path class="cls-11" d="M1413.69,67.53c-3.22-6.63-12.62-14.23-12.62-21.7,0,9,9.43,15.15,12.62,21.7h0Z" transform="translate(-1333.94 69.86)"/><path class="cls-16" d="M1416.33-42.09c3.85,7.11-5,24-7.46,30.14-3.36,8.57-8.16,20.44-17.36,24.56-0.52.23,0.86-2.28,0.61-2.32-1.64-.24-10.09,3.83-7.83,4.2-5.21-.85-7.29-2-4.73-5.79,1.35-2,7.35-3.73,9.42-5.34,3.46-2.68,5.44-5.64,7.79-9.24,4.55-7,9.34-15.11,12.05-23,0.48-1.39,4.29-19.14,7.5-13.22h0Z" transform="translate(-1333.94 69.86)"/><path class="cls-6" d="M1432.48-31.54c4.27,0,8.25,2.22,11.89,4.25,10.8,6,18,12.43,31.18,12.14,27.51-.61,49.76-20.79,76.81-23.23,19.88-1.79,33.71,7.49,38,26.87a112.56,112.56,0,0,1,2.12,29.65c-0.19,4-5.45,21.78-3.75,24.38-1.18-1.8,2.2-12,1.13-15.11,0.43,1.26-3.18,11.6-4.1,13.28,0.28-.5.27-9-0.33-9.9,0.66,1-1.91,13.18-1.85,15.29,0.08,2.83,1.15,17,3.94,18-4.14-1.46-8.64-11.52-8.45-15.5-0.29,6,2.11,10.56,3.5,16-0.31-1.2-4.15-4.24-4.92-5.36-1.32-1.91-2.42-7.26-3.64-8.46,0.69,0.69,2.13,10.24,3.25,12.26-0.68-1.23-11.84-11.49-13.44-11.43-2,.08,5.66,12,7.49,12.94-4.42-2.34-15.19-12.14-15.54-17.07,0.43,6.19,8.42,15.18,12.74,19a67.07,67.07,0,0,0-14.07-9.74c-2.85-1.44-6.09-1.69-8.85-3.38-3.27-2-5.65-7.89-8.59-9.19-7.26-3.22-20.83,4.31-28.62,5.24-30.48,3.61-78.88-8.74-76.12-47.69-2.32-2.36-4.24,23.51-4.14,24.75,0.73,9.52,1.25,19,1.89,28.48,0.75,11.11,3.89,21.76,4.24,33,0.15,4.82.15,9.63,0.05,14.44-0.06,3.18,1.53,18.41-1.24,21.14-0.78.77-1.72-16.2-1.85-17.87a159.09,159.09,0,0,0-3.08-20.59c-1.47-6.57-4.89-11.23-8.13-17.07-1.82-3.28-5.58-18-9.39-19,0,0,1.58,5.21,1.28,5.89,1.09-2.52-6.5-19.09-2.75-22.43-0.33.3-1.93,5.09-1.71,5.38-3.24-4.31,2.09-19.42,2.83-23.77,0.25-1.48,3-16.13,1.91-16.86,2.41,1.62,1.88,7.18,1.9,9.74,0-3.73-1.58-12.73.44-15.87,1.4-2.19,3.09,5.94,3,5.89,0.2,0.11-.41-17.28-0.26-18C1418.6-27.63,1425.4-33.87,1432.48-31.54Z" transform="translate(-1333.94 69.86)"/><path class="cls-6" d="M1598.64,82.55c3.35,7.25,6.64,14.85,8.58,22.61,1,4,2.71,9.81,1.75,13.95-0.36,1.57-3.11,4.8-3.16,5.79-0.05,1.14,6.63-7.83,7.35-9.83,2.2-6.12,1.85-11.63.89-18s-2-14.59-6.91-19.22c-2-1.9-6.19-2.55-7.71-4.87,0.69,1,4.39,7.39,4.27,7.33a41.43,41.43,0,0,1-4.4-3c0.7,0.56,5.49,6.56,4.12,7.49-0.74.5-5.17-4.61-5.34-4.22Z" transform="translate(-1333.94 69.86)"/><path class="cls-17" d="M1385.41,53.05l-0.3-.29A0.49,0.49,0,0,0,1385.41,53.05Z" transform="translate(-1333.94 69.86)"/><path class="cls-8" d="M1442.16,127.23c-1.33-14.9.08-28.7,0.7-43.46,0.29-6.9-3.2-11.32-4.29-17.66-0.63-3.67,0-8,0-11.7-0.07-11.88-5-18.74-7.85-29.75,2.94,11.55.58,22.51,1.62,34.24,0.6,6.83,10.5,24.78,4.59,30.19a20.24,20.24,0,0,0,2.11-3.73,19.76,19.76,0,0,0-1,3.68,6.43,6.43,0,0,0,1.48-.87c-2.38-.7-0.56,34.21-0.1,36.67,0.95,5.07,5.36,13.66,1.21,18.22-5.11,5.63-14.68-1.38-8.92-6.61-2.44,1.77-3,7.91-6.14,7.64-5.12-.44-0.82-8.31,1.4-9.69-3.22,1.3-5.86,9.85-9.49,8.05-5.87-2.9,5.62-8.76,7.34-9.26-1.4.08-8.38,4-8.76,1.63-6.58,10.08,12,11.18,16.08,11.29,15.81,0.43,11.25-5.75,10.07-18.9C1441.42,118.94,1442.9,135.52,1442.16,127.23Z" transform="translate(-1333.94 69.86)"/><g class="cls-13"><path class="cls-14" d="M1491.16,61c-20.18,1.09-40.09-3.1-53.32-19,5.28,6.34-2.4,19.94,1.51,27.11,4,7.4,23,6.3,31.08,6.81,15.58,1,32,.5,47.34-2.76,10.08-2.14,21.84-12.5,31.69-11.89-16.89-7.07-41-1.21-58.28-.27C1446.71,63.45,1535.62,58.62,1491.16,61Z" transform="translate(-1333.94 69.86)"/></g><path class="cls-6" d="M1432.87,135.62c-2.73,3.89-.6,9.73,4.84,7.2C1444.83,139.52,1435.15,130.67,1432.87,135.62Z" transform="translate(-1333.94 69.86)"/><path class="cls-6" d="M1428,135.07c-1.73.84-7.87,7.51-3.08,7.39,3.39-.09,4.4-8,3.08-7.39h0Z" transform="translate(-1333.94 69.86)"/><path class="cls-6" d="M1422.55,134.46c-1.94.49-8.38,3.87-5.5,6.84S1423.45,134.38,1422.55,134.46Z" transform="translate(-1333.94 69.86)"/><path class="cls-6" d="M1422.85,131.45c-1.36.16-4.56,1.61-5.33,2.72,0.55-.78,5.65-0.41,6.71-1.9q-0.09-1.12-1.37-.81h0Z" transform="translate(-1333.94 69.86)"/><path class="cls-18" d="M1540.95-9.92S1528.5,9,1540,29.88C1539,28.47,1533.44,8.16,1540.95-9.92Z" transform="translate(-1333.94 69.86)"/><path class="cls-11" d="M1538.66-4.68c-4.42,9.22-4,19.8-1.49,29.48-2.22-8.33-2.4-21.47,1.49-29.48C1534.19,4.63,1538.75-4.86,1538.66-4.68Z" transform="translate(-1333.94 69.86)"/><path class="cls-19" d="M1546.88,60.44c-36.14-10-80.64,15.74-109-18.4,5.28,6.34-2.4,19.94,1.51,27.11,4,7.4,23,6.3,31.08,6.81,15.58,1,32,.5,47.34-2.76,10.08-2.14,21.84-12.5,31.69-11.89l-2.56-.87h0Zm-19.76,5.63c-14.4,3-25.59,7.84-40.83,8-2.41,0-47-3.74-44.39-7.41,0.45-.63,5.29-0.4,5.57,0-3.44-4.36-10.64-10-7.32-17.11C1438,54.15,1479.5,63,1482.48,63.11c5.9,0.14,51.18-6.6,54-.36,0.67,1.45-9.38,3.31-9.41,3.32h0Z" transform="translate(-1333.94 69.86)"/><path class="cls-19" d="M1405.51,55.76c-3.16-4.47-4.84-8.36-4.11-13.83,0.48-3.53,3.94-7.92,3.45-11.43,0-.32-1.92,2-2.17,1.65,0.17,0.25,5.23-25.85,1.49-24.53-0.14.05-1.59,4.9-1.63,5.18,1-7.74-2-15.36-5.47-22.12-1.36,2-3.93,5.33-4.93,6.62a3,3,0,0,1,.61,3,13.12,13.12,0,0,1-4.31,1.76c-2.78,2-8.31,1.5-10.53,4.68-1.71,2.45,1.37,7-.26,10.43q1.78,0.12,2.07-2.11c-1.89,0-4,11.08-4,12.67,0.57-1.46.95-3.52,2.08-4.67-1.82,1.86-2.22,8.12-1.78,10.41a15.79,15.79,0,0,1,1.34-3.62c-2.59,7.87,2.1,18.2,7.84,23.54q0-1.06,0-2.13c2,5.14,5.4,7.61,10.82,9.5a2.65,2.65,0,0,0-.74-2.27c3,7.13,12.59,3.64,17.39,8-1.63-3.91-4.76-7.27-7.17-10.68C1398.7,46.12,1409.23,61,1405.51,55.76ZM1403,61.49c-4.21-1.46-7.15-4.57-9.93-7.86,0.32,0.37,1.37,3.13.64,3.58-3,1.8-8.44-8.17-8.87-10.55a3.62,3.62,0,0,1-.59,2c-1.11,1-7.38-17.71-4.06-21.67a19.05,19.05,0,0,1-1.82,2.63c-0.68.14,2-7.91,2.46-8.7-0.15.28-2.38,2.81-2.52,1.21-0.17-2,2.29-4.82,2.32-6.6,1.1-.56,6.06,1.76,5.48,2.33q0.68-2.07,1.54-4.07a6.48,6.48,0,0,1,.85,2.33c0.1,0.12,1-2.35,1.48-1.74a11.5,11.5,0,0,0,.89,3.4c2-.58,2.3-5.09,4.35-6a4.93,4.93,0,0,1,.67,1.81c0.44,0,2.9-3,2.93-2.9,0.94,3,1.1,12-1.58,14.69,0.74-.74,0-5.89-0.44-6.65a48.54,48.54,0,0,1-1.48,6.6c0.24-.67-0.9-5.75-1.22-5.41-2.82,3-1.65,12.93-4.62,16.85-0.51.67-2.4-4.55-2.52-4.74a3.29,3.29,0,0,1-.85,2.13c-2.8-.69-2.66-5-4.42-6.53,1.42,1.27-2.1,17.55,6.37,16.84,0.74-.06-0.55-3.59-0.52-3.93-0.05.47,2.79,3.86,3.07,4.08a2.91,2.91,0,0,0,.63-2.8c0.09-.14,2.27,4.53,2.3,4.55-1.16-1.41,4.85-15.15,6.42-14.36-0.82-.41-2.39,9.39-1.2,9.27-0.76.08,2.54-7,2.68-6.39,1.17,5.05-2.1,10.75-.19,16.42,0.87,2.57,6.08,7.86,5.76,10.1q-1.6,1.79-4,.16h0Z" transform="translate(-1333.94 69.86)"/><path class="cls-10" d="M1351-40c-1.53-.66-3.27-0.25-4.5-1.8l1.54,2c-0.66-.84-3.81-0.68-4.4-2.75,0,0.14,1.44,2.62,1.35,2.61-2.14-.24-4-3.33-4.5-5q-1.28.88,0.3,2.56c-1.88-3.45-4.2-5.86-3.56-10.55a11.24,11.24,0,0,0-.59,3.46c-0.56-2.26-2-6.81-.11-8.84a15.22,15.22,0,0,0-1.08,2.06c0.78-1.59.69-6.75,3.6-7.28a15.75,15.75,0,0,0-2.26,1.09,14,14,0,0,1,11.85-3.92,0.75,0.75,0,0,0-.74-0.75c1.93,0.66,3.13.27,5.34,1.51a6.71,6.71,0,0,0-1-1.06,11.24,11.24,0,0,1,6.37,4.22q-0.2-1-.45-2a23,23,0,0,1,3.86,6.48,2,2,0,0,0,.15-2.11c0.86,2.65,2.27,2.54,1.34,6.34,6.82-6.93,27.86-9.57,34.08-.45-1.75-4.16,3.32-5.13,4-7.58a8.12,8.12,0,0,1-.75,1.25,13.59,13.59,0,0,1,8.45-6c-0.42-1.64,3.61-2.08,7.26-1.21a4.51,4.51,0,0,0-1.19-1.06c5.14,1.73,11.43,4.6,10.23,11.91q-0.33-1.22-.74-2.41c1.67,1.7-.57,7.3-1.33,8.6a2.37,2.37,0,0,1-.3-1.81c2.94,4.41-7.27,11.16-10.08,11.46,4.07,13.74-7,26.37-12.74,37.79-3.92,7.76-4.34,10.73-13.19,12.66,0.55-.12-5.64,4.4-5.9.28a8.59,8.59,0,0,0,1,1.88,7.31,7.31,0,0,1-3-1.66,1.82,1.82,0,0,0,.45,2.11c-6.5-6.6-14.34-3.71-19-14.78C1356.3-13.41,1348.11-28.29,1351-40Z" transform="translate(-1333.94 69.86)"/><path class="cls-11" d="M1351.82-41c-1.33-.39-3.21-0.81-4.22-1.65s-3.38.35-2.46,1.52l1.54,2,2.46-1.52c-1.38-.95-3.25-0.88-4.19-2.54-0.67-1.19-3.37-.09-2.67,1.31,0.39,0.78.9,1.53,1.22,2.35l2.3-1.4c-2.11-.68-3.16-2.47-3.87-4.37-0.4-1.08-2.09-.82-2.69-0.07-1.12,1.41-.88,2.17.19,3.68,0.79,1.11,3.46.06,2.67-1.31-1.91-3.33-3.67-6-3.41-10,0.11-1.64-2.65-1-3,.2a11.24,11.24,0,0,0-.59,3.46l2.95-.49c-0.68-2.66-1.75-5.74-.17-8.26l-2.81-.37a15.22,15.22,0,0,0-1.08,2.06l2.81,0.37c0.73-2.06.51-5.65,2.85-6.56l-1.31-1.8a15.75,15.75,0,0,0-2.26,1.09l1.64,1.6a13,13,0,0,1,10.38-3.52c0.66,0,2.78-.78,1.83-1.75l-0.74-.76L1347-66.11a31.49,31.49,0,0,1,5.34,1.51c0.78,0.35,3.17-.65,2.17-1.67l-1-1.06-2.17,1.67a11.65,11.65,0,0,1,5.87,3.86c0.78,0.86,3.1.35,2.8-1q-0.2-1-.45-2l-2.8,1a26.37,26.37,0,0,1,3.73,6.22c0.45,1.1,2.48.87,2.87-.21a3.35,3.35,0,0,0,.2-2.69l-2.92.78c0.89,2.22,1.8,3.46,1.32,6-0.23,1.24,1.89,1.14,2.46.6,7.26-6.85,25.09-9.33,31.77-.5,0.71,0.94,3.18.28,2.8-1-1-3.46,2.74-4.42,3.95-7,0.75-1.6-2.17-1.45-2.81-.37l-0.75,1.25c-0.81,1.37,2,1.55,2.63.64a13.1,13.1,0,0,1,7.49-5.45,1.56,1.56,0,0,0,1.21-1.14c0.12-1,4.81-.1,5.28,0,1,0.19,2.73-1,1.62-2l-1.19-1.06-2,1.87c5.36,1.86,10.24,4.5,9.58,11l2.95-.49q-0.33-1.22-.74-2.41l-2.8,1c1.35,2.15-.34,5.74-1.4,7.76l2.87-.21-0.27-1.52-2.82.76c2,4-5.76,9.12-9,9.77a1.37,1.37,0,0,0-1.18,1.43c2.85,11.09-3.23,20.89-8.67,30.08-2.25,3.81-4.21,7.71-6.24,11.64-2.27,4.39-5,6.16-9.84,7.3a1.4,1.4,0,0,0-1.18,1.43q0.69-1.33-.17-0.52a2,2,0,0,1-2.81,0l-2.92.78a15.88,15.88,0,0,0,1.14,2.15l2.17-1.67a6.43,6.43,0,0,1-2.68-1.51,1.77,1.77,0,0,0-2.61,1c-0.18,1.47-.14,1.36.59,2.66l2.46-1.52c-3-2.78-6.35-4-10-5.65C1365.09,3,1363-1.43,1360.55-7c-4.51-10.21-10.47-21.62-8.09-33.1,0.31-1.48-2.69-1.14-3,.2-2.53,12.18,4,24.18,8.71,35,1.88,4.31,3.7,8.32,7.86,10.88s8.86,3.45,12.53,6.91c0.88,0.82,3.16-.27,2.46-1.52l-0.3-1.56-2.61,1a11.24,11.24,0,0,0,3.25,1.81c0.91,0.33,2.92-.45,2.17-1.67l-0.88-1.62c-0.58-1.27-3.23-.68-2.92.78,0.89,4.21,9.11,2.07,8.82-1.06l-1.18,1.43c3.83-.91,7.46-2.19,9.94-5.4,2.88-3.74,4.49-8.54,6.84-12.61,6-10.43,13.58-21.25,10.33-33.87L1413.35-40c4.87-1,14-7.38,11.14-13.16-0.51-1-2.78-.3-2.82.76a3.45,3.45,0,0,0,.32,2.1c0.46,1.22,2.37.73,2.87-.21,1.39-2.63,3-6.66,1.26-9.44-0.64-1-3.22-.22-2.8,1q0.42,1.19.74,2.41c0.37,1.3,2.82.7,2.95-.49,0.74-7.29-4.69-10.67-10.87-12.82-1-.36-3.22.75-2,1.87l1.19,1.06,1.62-2c-2.46-.46-8.77-1.45-9.24,2.41l1.21-1.14a16.56,16.56,0,0,0-9.4,6.61l2.63,0.64,0.75-1.25-2.81-.37c-1.58,3.39-5.34,3.7-4.07,8.16l2.8-1c-7.68-10.16-28-7.5-36.39.41l2.46,0.6c0.55-2.94-.31-4-1.36-6.63-0.53-1.33-3.22-.66-2.92.78l-0.09,1.53,2.87-.21a28.77,28.77,0,0,0-4-6.74c-0.73-.94-3.12-0.29-2.8,1q0.25,1,.45,2l2.8-1a14.07,14.07,0,0,0-6.87-4.58c-0.71-.2-3.25.57-2.17,1.67l1,1.06,2.17-1.67a30.5,30.5,0,0,0-5.34-1.51c-0.69-.17-3.26.56-2.17,1.67l0.74,0.75,1.83-1.75c-5.07-.35-9.55.81-13.33,4.31-1.29,1.2.4,2.26,1.64,1.6a15.75,15.75,0,0,1,2.26-1.09c1.86-.81.2-2.39-1.31-1.8-3.48,1.36-3.26,4.94-4.34,8-0.59,1.65,2.24,1.55,2.81.37a15.22,15.22,0,0,1,1.08-2.06c0.85-1.48-2.13-1.45-2.81-.37-1.8,2.86-.73,6.37,0,9.42,0.34,1.32,2.84.69,2.95-.49a11.24,11.24,0,0,1,.59-3.46l-3,.2c-0.29,4.44,1.56,7.36,3.7,11.1l2.67-1.31-0.4-1.45-2.69-.07c1,2.56,2.46,4.75,5.12,5.61,0.73,0.23,2.75-.25,2.3-1.4-0.39-1-1-1.92-1.47-2.87l-2.67,1.31c1.16,2.08,2.8,1.72,4.62,3,0.86,0.59,3.42-.29,2.46-1.52l-1.54-2-2.46,1.52c1.55,1.31,2.84,1.39,4.79,2C1351.45-38.59,1353.59-40.48,1351.82-41Z" transform="translate(-1333.94 69.86)"/><path class="cls-20" d="M1399-8.8a9.81,9.81,0,0,0-1.91-4c2.9,1.85-2.25,6.43-3.53,7-6.45,2.71-4.06-2.5-7.45-3.68,0.67,0.23-5.65,3.68-7.33,3.71a8.55,8.55,0,0,1-7.23-2.79c-0.25-.24-1.67,3.25-0.6,3.8-2.74-.9-6.73-3.2-5-6.73-2.24,3.19-5.38,4.71-7.59.78,2.89,7.87,3.94,14.23,11.66,18.64,3,1.73,7.22,1.33,9.75,3.91a1.8,1.8,0,0,1-.44-2.09,7.24,7.24,0,0,0,2.94,1.64,8.53,8.53,0,0,1-1-1.87c0.18,2.74,7.9-.2,8.64-0.52,8.76-3.86,9.64-11.8,14.36-19.61-0.41.52-4.38,5.19-5.25,1.82C1398.25-11.64,1399.56-6.59,1399-8.8Z" transform="translate(-1333.94 69.86)"/><path class="cls-10" d="M1337.2-52.94c0,0.06,0,.13,0,0.2C1337.21-52.87,1337.23-52.94,1337.2-52.94Z" transform="translate(-1333.94 69.86)"/><path class="cls-21" d="M1349.7-44.3c0.63-.5,3.52-4.33,4.27-3.76-3.84-2.91-3.85,1.17-7.22-3.45-0.46-.63.44-8.94-2.93-6.65,1.73-1.17,6.17.17,7.55,1.48a16.9,16.9,0,0,0-2.86,0c0.79-.5,6.09,3.27,5.7,3.43a6.22,6.22,0,0,1-2.54-.62c1.23,0.54,4.61,4.75,4.91,4.77a4.41,4.41,0,0,0-2.05-1C1359.48-50.89,1349.08-42.83,1349.7-44.3Z" transform="translate(-1333.94 69.86)"/><path class="cls-11" d="M1387.51-29.12a36.85,36.85,0,0,0-1.85,6.86A10.48,10.48,0,0,1,1387.51-29.12Z" transform="translate(-1333.94 69.86)"/><path class="cls-11" d="M1386.76-23.7c0.08-.29-0.81,4.37,1.19,8.14A10.43,10.43,0,0,1,1386.76-23.7Z" transform="translate(-1333.94 69.86)"/><path class="cls-3" d="M1384.87-3.19a4.73,4.73,0,0,0,1-6.63c3.23,9-13.84,10.22-14.72.91-2.33,7.29,10.22,8.47,13.73,5.73h0Z" transform="translate(-1333.94 69.86)"/><path class="cls-3" d="M1372-25.35c1,4.18-.77,8.73-2.14,12.71C1371.16-15.46,1374.54-22.53,1372-25.35Z" transform="translate(-1333.94 69.86)"/><path class="cls-3" d="M1366.09-12.94c-1.69,4.69-7.64,12-2.08,16.58C1359.93-2.35,1364.85-7,1366.09-12.94Z" transform="translate(-1333.94 69.86)"/><path class="cls-3" d="M1396.42-13.74c1.28,5.12,4.5,8.41,2.87,14.06C1399.29-5.35,1399-8.29,1396.42-13.74Z" transform="translate(-1333.94 69.86)"/><path class="cls-22" d="M1379,2.58q1.73-3.25-.16-3.46c-0.5,4.38-1.81,6.65-6.71,6.8,5,0.6,9.22-.08,14.45.53A10.67,10.67,0,0,1,1379,2.58C1379,1.44,1379.8,3.61,1379,2.58Z" transform="translate(-1333.94 69.86)"/><path class="cls-23" d="M1399.68-5.42c-3.74-.57-8.15,1.28-10.82,3.83,2.44-2.19,7.31-4.15,10.82-3.83C1395.88-6,1399.74-5.42,1399.68-5.42Z" transform="translate(-1333.94 69.86)"/><path class="cls-23" d="M1400.85-3.29a13.83,13.83,0,0,0-10.2,1.83c1.82-1.18,7.75-2.64,10.2-1.83C1397.65-4.16,1400.87-3.28,1400.85-3.29Z" transform="translate(-1333.94 69.86)"/><path class="cls-23" d="M1401.32-.31c-3.55-1.21-7-.52-10.18.74,3-1.07,7.23-1.76,10.18-.74C1398-1.43,1401.39-.29,1401.32-0.31Z" transform="translate(-1333.94 69.86)"/><path class="cls-23" d="M1373.16-1c-4.93-1.81-9.95-3.89-15.13-2.09,4.94-1.74,10.78.5,15.13,2.09C1368.49-2.73,1373.25-1,1373.16-1Z" transform="translate(-1333.94 69.86)"/><path class="cls-23" d="M1370.51-1.21c-3.31-1.34-9.17-1.43-12.5-.06,2.35-1.08,9.81-1,12.5.06C1368.46-2,1370.59-1.18,1370.51-1.21Z" transform="translate(-1333.94 69.86)"/><path class="cls-23" d="M1369.07-.08a35.18,35.18,0,0,0-10.81,1.79,38.47,38.47,0,0,1,10.81-1.79C1365.38-.17,1369.13-0.08,1369.07-0.08Z" transform="translate(-1333.94 69.86)"/><path class="cls-22" d="M1392.8,0.89c0.51,4.29-4.94,6.58-9.15,5.12,4.48,1.42,9.77-.42,9.15-5.12C1392.78,0.74,1392.89,1.6,1392.8.89Z" transform="translate(-1333.94 69.86)"/><path class="cls-22" d="M1375.76,5.2c-2.38.67-10.22,1.54-9.56-3.1-0.81,5.34,7.25,3.57,9.56,3.1C1373.8,5.75,1375.82,5.19,1375.76,5.2Z" transform="translate(-1333.94 69.86)"/><path class="cls-11" d="M1353.73-44.34c-2.79,1.79-2.12,4.29-3,5.87,0.47-.93,2-5.21,3-5.87h0Z" transform="translate(-1333.94 69.86)"/><path class="cls-11" d="M1410-44.53c0.37,0.12,3.59,4.34,3.33,5a5.18,5.18,0,0,0-3.33-5h0Z" transform="translate(-1333.94 69.86)"/><path class="cls-16" d="M1391.88-33.75c-9.11,5-4.25,12.38-3.19,19.62-1.57-10.69,1.25-17.7,12.08-17.51A7.34,7.34,0,0,0,1391.88-33.75Z" transform="translate(-1333.94 69.86)"/><path class="cls-24" d="M1388.42-26.21a8,8,0,0,0,.59,4.63c0.08,0.08,6.87-2.1,5.15-2.49,2.42,0.55,6.5-5.27,6.61-7.56C1398-30.91,1388.9-29.91,1388.42-26.21Z" transform="translate(-1333.94 69.86)"/><path class="cls-25" d="M1388.32-24.4c-1.57-9.95,6.8-8.06,12.45-7.74-1.27,1.66-2.86,4.13-4.57,5.28C1394.91-26,1388.23-24.21,1388.32-24.4Z" transform="translate(-1333.94 69.86)"/><path class="cls-26" d="M1392-32.37c-3.48,2.92-3.86,10.14,3.09,6.06C1400-29.23,1397.39-35.46,1392-32.37Z" transform="translate(-1333.94 69.86)"/><path class="cls-27" d="M1390.5-29.52c0-4.27,6.33-4.27,6.32,0S1390.5-25.27,1390.5-29.52Z" transform="translate(-1333.94 69.86)"/><path class="cls-28" d="M1392.72-30.06a4,4,0,0,1,.39-2.89c0.88-.05,1.23,5.64.37,5.7a4,4,0,0,1-.76-2.81C1392.61-31.64,1392.81-28.49,1392.72-30.06Z" transform="translate(-1333.94 69.86)"/><path class="cls-29" d="M1392-27.24c0.37-.13,4.38-0.74,4.36-1.43C1396.36-27.18,1392.49-25.32,1392-27.24Z" transform="translate(-1333.94 69.86)"/><path class="cls-16" d="M1371.83-29.62c-1.83-4.48-12.9-5.92-12.67-.52,0.14,3.27,7.91,4.18,9.48,5.85,2.92,3.12,2.48,5.06,1.68,9.82,2.56-4.7,3.44-10,1.52-15.15C1369.65-35,1373.7-24.6,1371.83-29.62Z" transform="translate(-1333.94 69.86)"/><path class="cls-24" d="M1371.64-27a7.28,7.28,0,0,1,.05,4.42c-0.09.12-6.93-1-5.32-1.64-2.22.82-7-4-7.42-6.2C1361.67-30.14,1370.67-30.46,1371.64-27Z" transform="translate(-1333.94 69.86)"/><path class="cls-25" d="M1372-25.35c0.13-8.81-7.79-7.75-13.1-5.57,1.46,1.39,3.33,3.47,5.14,4.34C1365.38-25.93,1372.09-25.18,1372-25.35Z" transform="translate(-1333.94 69.86)"/><path class="cls-30" d="M1367.4-32.32c3.86,2.31,5,9-2.17,6.09C1360-28.36,1361.76-34.46,1367.4-32.32Z" transform="translate(-1333.94 69.86)"/><path class="cls-31" d="M1369.19-29.85c-0.57-4-6.69-3.16-6.12.86s6.71,3.16,6.12-.86C1368.94-31.57,1369.44-28.14,1369.19-29.85Z" transform="translate(-1333.94 69.86)"/><path class="cls-32" d="M1367-30a3.69,3.69,0,0,0-.38-2.73c-0.85-.06-1.22,5.34-0.39,5.39A3.72,3.72,0,0,0,1367-30C1367.07-31.47,1366.86-28.49,1367-30Z" transform="translate(-1333.94 69.86)"/><path class="cls-29" d="M1368.08-27.51c-0.38-.08-4.34-0.1-4.42-0.75C1363.83-26.83,1367.83-25.66,1368.08-27.51Z" transform="translate(-1333.94 69.86)"/><path class="cls-21" d="M1406.94-47.47c0.32-.09,2.92-1.37,3.09-1.2-1-1-7.06-1.86-2.2-4.95a8.41,8.41,0,0,0-1.58,1.52c-0.08.12,2.95-7.61,4.31-5.82a6.17,6.17,0,0,0-1.74.39c0.3-.09,3-3.65,4.31-2.58-0.73-.58-1.57-1.54,1.52-1.54q0.46-.63-0.89-0.4c2.17,0,1.59-2,4.74-.1-0.17,0-2.66.3-2.52,0.47,4.24,5.18-3.16,15.57-4.5,12.6C1412.8-46.14,1408.09-48.11,1406.94-47.47Z" transform="translate(-1333.94 69.86)"/><path class="cls-33" d="M1592.52-30.78c6.21,4,12.29,9.6,15.27,16.49,0.82,1.89,8.66,23.33,7.48,24.68a3.56,3.56,0,0,1-1.11-2.26c0.46,4.15,6.29,12.3,9,15.66a31.19,31.19,0,0,0,9.43,7.89c1.12,0.58,9.77,2.49,10,3,0.11,0.32-2.22.56-2.27,0.51,4.78,5.41,16.62-6.08,18.86-5.25a3.41,3.41,0,0,0-1.94.22c12.54-8.07,9.84-22,3.1-33.47-4.38-7.47-9.71-13.81-12.71-22.08-1.28-3.52-6.84-20.12-1.68-22.45-0.45.2,0,2.56-.28,2.88,2.64-3.51,6.58-11.9,12.53-10.7-1.54-.31-4.15.54-5.62,1,4.24-1.47,18.42-5.34,9.11,2.12-7.36,5.89-15.86,4.41-14.44,17.18,2.2,19.88,31,36,20.15,58.13-10.2,20.88-36.71,16.56-48.39.32-6.63-9.22-7.68-19.34-11.88-29.46a47.3,47.3,0,0,0-8.71-13.79c-0.88-.95-7.06-5.12-7.25-6-0.14-.68,4.11.79,4.06,0.76-0.53-.36-8.27-5.89-5.47-6.33Z" transform="translate(-1333.94 69.86)"/><path class="cls-11" d="M1550.62,60.58c-8.75-.08-17-1.84-25.68-1.41,8.66-.27,17.57,1.41,25.68,1.41C1546.3,60.54,1550.81,60.58,1550.62,60.58Z" transform="translate(-1333.94 69.86)"/><path class="cls-33" d="M1382.84,61.64c1.77,8.67,3.52,17.39,4.68,26.17a170.77,170.77,0,0,1,1.45,18c0.08,3.21-2.33,13-1,15.39,0.19,0.34,2.22-3,2.13-3.6,0.56,3.41,3.14-6.15,3.46-7.9,1-5.28,1.74-13.57.65-18.86,0,0.19-.63,2.31-0.71,2.91,0.68-4.87-3.55-14.06-1.29-18.45,1-2-3.62-10.86-6.13-12.79,1.24,1,1.47,4.74,1.9,5.19-0.9-.94-2.12-4.23-3.05-4.86a16.5,16.5,0,0,1-.1,1.78C1384.45,64.4,1382.68,60.05,1382.84,61.64Z" transform="translate(-1333.94 69.86)"/><path class="cls-33" d="M1386.7,132.81c-2.21-1.84-8.13-1.51-7.6,2.87C1379.6,139.87,1394.55,135.75,1386.7,132.81Z" transform="translate(-1333.94 69.86)"/><path class="cls-33" d="M1377.95,129.79c-1.93.44-5.38,6-3.29,6.22C1375.37,136.1,1381.51,129.4,1377.95,129.79Z" transform="translate(-1333.94 69.86)"/><path class="cls-33" d="M1375.88,127.83c-2-.33-7.89,2.36-4.9,5C1370.1,132,1377.44,127.83,1375.88,127.83Z" transform="translate(-1333.94 69.86)"/><path class="cls-33" d="M1373.5,126c-0.7.21-2.51,1.56-3.06,1.71,1.06-.29,5.66-0.24,6.27-0.72A17.29,17.29,0,0,0,1373.5,126Z" transform="translate(-1333.94 69.86)"/><path class="cls-34" d="M1446.71,55.31c4,1.87,8.05,3.59,12.19,5.08,2.3,0.82,17.29,2.94,18.22,4.59-0.15-.27-5.22.73-5.47,0.65,8.68,2.76,18.57-.22,27.22-1.46,5.55-.79,18.68-4.11,23.5-0.84-1.48-1-6.49,1.27-7.23,1.09,0.72,0.17,7.24.5,7.78-.28-3.68,5.32-26.75,8.12-32.31,8.35-8.56.36-35.59,2.25-41.57-6.91-0.28-.43,6.39,1,7,1-1.33,0-11.95-6-10.22-7.95,0,0,5.06,3.11,4.91,2.47-0.2-.84-2.44-3.19,1.3-1.91C1451,58.87,1445.94,55.4,1446.71,55.31Z" transform="translate(-1333.94 69.86)"/><path class="cls-35" d="M1421.81-37.71c0.23,0.58,1.28,1.43.84,2.18s-5.07-.66-5.08-0.86c0.23,3.2,7.22,1.24,8.14,2.12A30.94,30.94,0,0,0,1421.81-37.71Z" transform="translate(-1333.94 69.86)"/><path class="cls-35" d="M1451.75-24.9c6.92,8.45,20.45,9.22,30.37,8.6-1.74,0-18-1.57-16.8-3.58s20.36-2.52,22.44-2.91C1477.06-20.64,1461.58-18.77,1451.75-24.9Z" transform="translate(-1333.94 69.86)"/><path class="cls-6" d="M1444.63-21.89c27.44,14.45,52.83,8.62,79.37-4,24.46-11.59,53.21-15,61.72,16.42-0.23-.84-4.17-5.74-4.06-6.08-0.91,2.81,5.58,15.08,2,17.07,0.75-.41-5.3-13.55-5.07-14.44-1,3.95,2.82,9.67,2.79,13.74-0.05,8.9-.85,4.48-5.44,1.67-1.67-1-1.24,4.4-1.57,4.11-1.25-1.15-1.67-3.32-2.58-4.71,0.16,0.24-.66,4.28-0.59,5.13-4.08-1.71-9.23-5.65-9.29-10.49a44.62,44.62,0,0,0,1.29,9.59c-0.36-1.47-3.73-13.65-4.11-13.13s-1,6.34-1.16,6.27c-0.48-.19-3.78-5.39-3.75-5.42-2.83,2.3,2.35,5.26-1.58,6.27S1546.91-6.1,1545-6.4c-2.6-.41-6.07,7.29-6.42,9.24,1.09-6,2-11.18,5.55-16.49-5.27-.26-10.28,7.13-14.13,9.71-5.3,3.55-11.58,5.57-17.79,6.77-6.53,1.26-29,4.87-34.4-.09C1479.47,4.27,1490-.18,1491.3,1c-2-1.71-21.37-1-20.86-3.71,0.17-.86,2.62-0.22,3.15-0.46-1.34.62-11.77-5-13-5.61C1455.07-11.45,1446.38-15.3,1444.63-21.89Z" transform="translate(-1333.94 69.86)"/><path class="cls-36" d="M1385.41,53.05l-0.3-.29A0.49,0.49,0,0,0,1385.41,53.05Z" transform="translate(-1333.94 69.86)"/><path class="cls-8" d="M1622.05,121.65c-6.91-10.54-.32-29-2-40.94-1.4-9.68-9.69-13.37-14.77-21.18-17.72-27.25,1-72.44-27-94.06,11.67,11.12,14.36,33.55,15.56,48.84,1,13-5.4,30.16,2.2,41.35-2-3-3.47-4.51-3.47-8.32-1,4.66,4.78,14.09,8.81,16.71a31.62,31.62,0,0,1-2.72-2.52c1.28,1.17,13.71,11,13.73,11,0.47-.86-5.71-2.88-5.72-2.88,6.48,7.83,7.71,10.69,8.9,20.71,1.06,8.86,1.19,17.81,2.16,26.6,0.84,7.56,2.9,15.75-3.9,21.81-5.78,5.15-24.78,5.37-17.5-6-1.14.5-4,6.08-5.14,5.22-0.88-.67-0.83-4.35-0.3-5.32-3.36,4.43-3.15-4.65,1.94-6.75,0.46-.13-5.4,3.41-5.49,3.13-0.7-2.27.26-1.39,0.7-2.53-9.6,7.65,8.1,18.88,14.22,19,6.43,0.09,11.28-.92,14.93-5.77,3-3.93,7.9-13.46,4.93-18h0Z" transform="translate(-1333.94 69.86)"/><path class="cls-6" d="M1603.19,131.91c-4-.79-11.6,3.42-6.93,7.28C1601.73,143.71,1610.27,131.72,1603.19,131.91Z" transform="translate(-1333.94 69.86)"/><path class="cls-6" d="M1596.07,129.5c-3.32.29-5.67,6.83-4.3,6.63C1592.53,136,1597.72,129.34,1596.07,129.5Z" transform="translate(-1333.94 69.86)"/><path class="cls-6" d="M1595.92,126.33c-6.28-1.34-4.67,4.44-7.07,6.43C1591.48,130.59,1596.25,126.72,1595.92,126.33Z" transform="translate(-1333.94 69.86)"/><path class="cls-6" d="M1591,125.35s-3.84,2.8-2.86,2.54C1588.72,127.73,1592.78,125,1591,125.35Z" transform="translate(-1333.94 69.86)"/><path class="cls-11" d="M1441.23,73.22c-4.05-13.05-.07-27.79-6.67-40,5.88,11.12,3.11,28.28,6.67,40C1440.06,69.46,1441.28,73.41,1441.23,73.22Z" transform="translate(-1333.94 69.86)"/><path class="cls-37" d="M1366.39,2.54c1.47,3.41,10.19,5.19,11.47,1.19s-6.54-6.25-6.63-10.64c2.44,5.43,14,7.69,15.41.11,0,5.55-8.07,5.9-4.68,11.08,1.87,2.87,11.13,2.54,10.94-1.68C1393.73,8.58,1368,10,1366.39,2.54Z" transform="translate(-1333.94 69.86)"/><path class="cls-38" d="M1373-3.94c-0.65-2.2,11.29-2.41,12.55-1.77,1.11,0.56-9.78,10.3-12.55,1.77C1372.8-4.67,1373.07-3.78,1373-3.94Z" transform="translate(-1333.94 69.86)"/><path class="cls-39" d="M1377.85-3.2c1.12,0.08,6.3-.76,7-0.14C1388.37-.17,1372.29-3.06,1377.85-3.2Z" transform="translate(-1333.94 69.86)"/><path class="cls-40" d="M1366.09-53.25c4.61-5.31,9.37-3.19,15-4.91a28.86,28.86,0,0,1-6,1.18c3.08,0.09,21.12-1.89,21.66,4.5,0,0.38-3.27-1.06-3.34-1.07,0.73,0.13,5.09,4,4.49,4.69-1.3,1.45-5.08-.58-6.76,0,0.25-.09,8.86,3.52,8.33,4.41-0.71,1.2-16.5,1-14.66,4.65,0.55,1.1,5.32-1.61,6.33-1.42l-3.56,2a2.23,2.23,0,0,0,2,1c0.11,0.22-4.2,1.54-2.78,2.67a8.69,8.69,0,0,0,3,.74c-9.65-2.22,1.26,27.14-11.21,27-8.35-.09-5.87-5.39-5.14-11.1,1.26-9.82-1.32-9.53-5.87-16.57,0.44,0.68,4.84.87,5.92,1.86-1-.92-4.39-4.67-6.24-3.47,0.45-.29,5.65-1.76,6.16-1.16-1.25-1.46-7.61-3.13-8.8-1,0.28-.51,5-3.57,5.37-3-0.42-.63-5.27.67-5.18,0.12,0.44-2.57,4.62-1.66,5.76-3.41,1.89-2.92-8,1.06-7.8,1.08-1-.12,4.62-5.33,4.8-5a2.47,2.47,0,0,0-2.57-.17,35.1,35.1,0,0,0,3.05-2.38s-3.36.45-3.29,0.24Z" transform="translate(-1333.94 69.86)"/><path class="cls-16" d="M1379.58-53.25s-0.74,7.09-.74,19S1379.87-46.16,1379.58-53.25Z" transform="translate(-1333.94 69.86)"/><path class="cls-41" d="M1406.4-46.71c5.24,6.78,4.52,15.19.72,22.5-0.32.61-9.88,13.61-10.82,10.71,1.72,5.37,4,11,.82,16.55-0.73,1.27-10.11,8.73-11,6.61,0.09,0.22,6.09-1.17,6.69-1.51C1398,5.2,1398.89,0,1401.34-5c4.32-8.76,10.9-17.09,12.31-27,0.41-2.91-.65-7.22.54-9.24,0.71-1.21,5.5-3.67,6.93-5.44,2.88-3.58,3.92-9.25,4.25-12.67-1.28-4.57-4.33-8.77-9.29-9.65,0.75,3.4-2.63,2.48-2.63,3.36,0,0.14,3.47,1.7,3.1,2-2.52,2-10.07.62-10.42,5.9a9.48,9.48,0,0,1,1.36-3.71c-0.31.35-3.26,5.57-3.34,5.6a2,2,0,0,0-1.7-.47c-1.22.74,0.89,5,0,5.46,0,0-2-1.17-2-1.14C1402.62-50.65,1405.06-49,1406.4-46.71Z" transform="translate(-1333.94 69.86)"/><path class="cls-40" d="M1398.1-55.16a6.2,6.2,0,0,1,2-4.42,1.08,1.08,0,0,1,.1,1.31c0-6.47,11.47-7.59,13.68-8.55q-1.51.38-3,.81c-0.81.37,0.74,0.93,0.8,0.93-5.7,0-12,7.54-10.39,12.64C1400.86-53.64,1398.1-52.32,1398.1-55.16Z" transform="translate(-1333.94 69.86)"/><path class="cls-10" d="M1401.26-61.24a7.52,7.52,0,0,0-.49.76S1401-60.87,1401.26-61.24Z" transform="translate(-1333.94 69.86)"/><path class="cls-11" d="M1399.82-61a7.77,7.77,0,0,0-.49.76c-0.23.43,1,.23,1.15,0.21a2.87,2.87,0,0,0,1.73-.75q0.25-.37.49-0.76c0.25-.41-1-0.23-1.15-0.21a2.8,2.8,0,0,0-1.73.75q-0.23.38-.49,0.76l2.88-.55a7.78,7.78,0,0,1,.49-0.76c0.28-.4-1.06-0.22-1.15-0.21A2.89,2.89,0,0,0,1399.82-61Z" transform="translate(-1333.94 69.86)"/><path class="cls-10" d="M1337.2-52.94c0,0.06,0,.13,0,0.2C1337.21-52.87,1337.23-52.94,1337.2-52.94Z" transform="translate(-1333.94 69.86)"/><path class="cls-11" d="M1335.73-52.8l0,0.2c-0.08.68,0.79,0.86,1.31,0.8a1.82,1.82,0,0,0,1.64-1.09,0.77,0.77,0,0,0-.1-0.67c-0.36-.57-1.47-0.35-2-0.13a1,1,0,0,0-.73,1.34v0l-0.12-.46a0.69,0.69,0,0,1,0,.18l2.94-.29,0-.2C1338.83-54.43,1335.87-54,1335.73-52.8Z" transform="translate(-1333.94 69.86)"/><g class="cls-42"><path class="cls-17" d="M1359.18-47.82c-0.91.88,5-5.53,3.46-6.12a48.22,48.22,0,0,1-3.39,4.25c-0.09.06,0.1-3.29,0.07-3.42,0.33,2.08-5.29-3.15-6.67-3.15,2,0-1.76-2.93-3.45-2a1.22,1.22,0,0,0,.75.75c-1.13-.09-5.1-1.68-6.08-0.76-1.59,1.49,2.21,1.79,2.26,1.83-0.42-.37,0,6.83,0,7-0.29.88-6.85-5.41-5-7.72,0.05-.07-1.54,3-1.82,2.56-2.07-3.24,1.34-8.16,3.89-9.61-1.12.64-3.29,0.18-1.71-1.36a12.46,12.46,0,0,0-4.71,3.14,15.75,15.75,0,0,1,2.26-1.09c-3.25.59-2.7,5.44-3.6,7.28a15.22,15.22,0,0,1,1.08-2.06c-1.85,2-.45,6.58.11,8.84-0.3-1.22.42-2.32,0.59-3.46-2,0,3.1,9.72,3.56,10.55q-1.58-1.69-.3-2.56c0.47,1.66,2.36,4.75,4.5,5,0.09,0-1.3-2.47-1.35-2.61,0.59,2.07,3.74,1.91,4.4,2.75l-1.59-2c0.91,0.24,3.64,1.46,4.56,1.87a24.14,24.14,0,0,0,.48,13.36c-0.63-10.25.31-14,7.72-21.2h0Z" transform="translate(-1333.94 69.86)"/></g><path class="cls-40" d="M1349.6-65.71c0.89,0.43,7.35,2.35,5.93,1.11,1.54,1.35,2,5.12,3.67,5.94,0.55,0.27.66-1.81,1-.75s1.29,6.45-.08,6c0.3,0.11-2.2-2.93-2-2.73-1.84-1.49-3.26-6.37-2.85-5.81-0.64-.88-6.8.29-7-0.55a2,2,0,0,1,1.46-1c-0.1,0-4.71-1.18-4.77-.86A4,4,0,0,1,1349.6-65.71Z" transform="translate(-1333.94 69.86)"/><path class="cls-43" d="M1369.1,0h0Z" transform="translate(-1333.94 69.86)"/><path class="cls-44" d="M1368.64-1h0Z" transform="translate(-1333.94 69.86)"/><path class="cls-45" d="M1370.11-.29h0Z" transform="translate(-1333.94 69.86)"/><path class="cls-46" d="M1371.2-.64h0Z" transform="translate(-1333.94 69.86)"/><path class="cls-47" d="M1371.89,0.13h0Z" transform="translate(-1333.94 69.86)"/><path class="cls-48" d="M1373-.88h0Z" transform="translate(-1333.94 69.86)"/><path class="cls-49" d="M1371.89-2.13h0Z" transform="translate(-1333.94 69.86)"/><path class="cls-50" d="M1390.56,0.91h0Z" transform="translate(-1333.94 69.86)"/><path class="cls-51" d="M1390.85-.43h0Z" transform="translate(-1333.94 69.86)"/><path class="cls-52" d="M1389.47,0c-0.06-.47,0,0.46,0,0C1389.46,0,1389.48.12,1389.47,0Z" transform="translate(-1333.94 69.86)"/><path class="cls-53" d="M1390.85-1.28h0Z" transform="translate(-1333.94 69.86)"/><path class="cls-54" d="M1389.72-1.32h0Z" transform="translate(-1333.94 69.86)"/><path class="cls-55" d="M1388.67-.78h0Z" transform="translate(-1333.94 69.86)"/><path class="cls-56" d="M1388.27-1.63h0Z" transform="translate(-1333.94 69.86)"/><path class="cls-57" d="M1389-2.59h0Z" transform="translate(-1333.94 69.86)"/><path class="cls-58" d="M1391-2.34h0Z" transform="translate(-1333.94 69.86)"/><path class="cls-59" d="M1392.37-1.13h0Z" transform="translate(-1333.94 69.86)"/><path class="cls-60" d="M1370.9-1.87h0Z" transform="translate(-1333.94 69.86)"/><path class="cls-8" d="M1571,74l-0.11-.05C1571.58,74.31,1571.71,74.37,1571,74Z" transform="translate(-1333.94 69.86)"/><path class="cls-8" d="M1570,73.43l0.94,0.52Z" transform="translate(-1333.94 69.86)"/><path class="cls-8" d="M1564.66,68a73.62,73.62,0,0,0-6.27-6c1.42,1.14,3.32,2.93,5.07,3.43,1.13,0.32-6.31-6.36-6.61-6.57-3.73-2.71-7.52-4.45-10.4-8.22,0.41,0.46,4.37,3,4.61,3.53-1.65-3.95-8.07-8.1-6.41-13.5C1544,43,1543.57,55.85,1548.34,56c-40.63-1-92.73,14.58-116.75-30.51,4.38,31.24,37.86,36.48,63.31,35.14,15.18-.8,30.1-2.08,45.31-0.75,12.64,1.1,19.06,7.59,29.77,13.59-2.13-1.24-3.68-3.72-5.33-5.46h0Zm-18.79-18.15c-0.15-.23-0.15-0.25,0,0h0Z" transform="translate(-1333.94 69.86)"/><path class="cls-41" d="M1351.28-28.62c0.69,4.19,6,10.33,7.48,14.72,1.41,4.2,1.45,8.76,2.4,12.62-2.73-9-8.36-18-9.88-27.34C1351.09-29.74,1351.87-25,1351.28-28.62Z" transform="translate(-1333.94 69.86)"/></g></g></svg>