<svg id="Layer_1" data-name="Layer 1" xmlns="http://www.w3.org/2000/svg" viewBox="0 0 245.52 251.68"><defs><style>.cls-1{fill:#4f7380;}.cls-1,.cls-2,.cls-3,.cls-5{fill-rule:evenodd;}.cls-2{fill:#6d929f;}.cls-3{fill:#a2c0ca;}.cls-4{fill:#1d2e2f;}.cls-5{fill:#eefeff;}</style></defs><title>anim_21</title><g id="fin"><path class="cls-1" d="M-468.35,1374.45c-2,0-5,30.12-9.5,69.5,0,38.38,4.25,69.5,9.5,69.5s9.5-31.12,9.5-69.5C-462.85,1404.57-466.35,1374.45-468.35,1374.45Z" transform="translate(592.57 -1374.45)"/></g><g id="fin-2" data-name="fin"><path class="cls-2" d="M-532.9,1576.48c-22.51,1.87-55.78-25.09-59.27-22.09s16.29,75.24,67.79,53.74S-510.39,1574.62-532.9,1576.48Zm184.37-22.09c-3.5-3-36.77,24-59.27,22.09s-60,10.15-8.52,31.65S-345,1557.39-348.53,1554.39Z" transform="translate(592.57 -1374.45)"/></g><g id="tail"><path class="cls-1" d="M-355.57,1439.7s-18.22,6.28-22.33,39.4c-12.85,16.43-39.18,8.73-62.65-5.69-24.3-14.93,16.37,183.7,28.37,132.2,14.33-42.67,39.88-79.23,42.91-83.49A76.37,76.37,0,0,0-347,1545.41S-377.8,1495.78-355.57,1439.7Z" transform="translate(592.57 -1374.45)"/></g><g id="body"><path class="cls-2" d="M-468.35,1425.76c-58.5,0-99,93.5-80,150,9.7,28.84,82,43.37,82,43.37s68.45-18.93,78-45.37C-368.85,1519.76-409.85,1425.76-468.35,1425.76Z" transform="translate(592.57 -1374.45)"/></g><g id="jaws"><path class="cls-3" d="M-407.85,1562.45s-25-23-59-23-65,22-65,22L-553,1547.63a96.6,96.6,0,0,0,4.69,28.13c9.7,28.84,25.34,50.37,82,50.37s68.45-25.93,78-52.37a86.06,86.06,0,0,0,4.69-23.83Z" transform="translate(592.57 -1374.45)"/></g><g id="eye"><ellipse class="cls-4" cx="78.71" cy="150" rx="6" ry="7"/></g><g id="jaws-2" data-name="jaws"><polygon class="cls-5" points="172.71 184 178.03 190.39 128.33 199.74 72.45 187.91 75.71 184 40.71 174 45.71 189 51.71 186 55.71 200 63.13 197.03 69.71 215 79.71 209 87.71 226 99.71 219 111.71 236 124.23 223.09 137.71 237 149.71 220 160.71 227 168.71 211 180.71 214 186.98 197.71 192.71 200 196.71 186 202.71 189 207.71 174 172.71 184"/></g><g id="eye-2" data-name="eye"><ellipse class="cls-4" cx="170.71" cy="150" rx="6" ry="7"/></g><g id="nose"><path class="cls-2" d="M-384.85,1543.51s-40.07.93-40.19,0.82l0.19-.08c-2-2.3-12-12.79-42.46-12.79h-1.09c-30.51,0-40.47,10.49-42.46,12.79l0.19,0.08c-0.12.11-41.19-4.82-41.19-4.82l-0.4,9.41s73.41,46.45,84.41,46.45,83.41-46.45,83.41-46.45Z" transform="translate(592.57 -1374.45)"/></g><g id="nose-2" data-name="nose"><path class="cls-1" d="M-468.73,1522.45c-15.73,0-29.07,8.24-33.84,19.68,7.26-8.14,20.09-13.55,34.72-13.55,12.56,0,23.79,4,31.31,10.26C-442.3,1529.15-454.55,1522.45-468.73,1522.45Z" transform="translate(592.57 -1374.45)"/></g></svg>