<svg id="Layer_1" data-name="Layer 1" xmlns="http://www.w3.org/2000/svg" viewBox="0 0 320.11 204.18"><defs><style>.cls-1{fill:#dcad68;}.cls-1,.cls-2,.cls-3,.cls-4,.cls-5,.cls-6{fill-rule:evenodd;}.cls-2{fill:#1d2e2f;}.cls-3{fill:#6b471c;}.cls-4{fill:#9a6b33;}.cls-5{fill:#f36611;}.cls-6{fill:#febc1e;}</style></defs><title>anim_48</title><g id="shape"><path class="cls-1" d="M2200.41,1307.21l-0.29-1.07c-2.46-9.17-9.49-14.13-21.33-13.38,12.27-8.65,14.82-18.27,9.46-27.56l-0.55-1c-5-8.58-13.54-11.45-25.57-6.86,12.14-12.75,12.78-23.74,4.58-31.94l-0.78-.78c-8.1-8.11-18.93-7.57-31.49,4.16,7.47-14.65,5.08-24.92-4.64-30.53l-1-.55c-10.11-5.84-20.63-2.28-29.85,13,3.56-16.29-1.4-25.69-12.31-28.62l-1.07-.29c-12.05-3.23-21.78,4-26.43,24,0.61-20.33-6.9-29.78-19.33-29.78h-1.11c-11.14,0-18.33,7.59-19.27,23.78-5.1-15.38-14-20.84-24.76-18l-1.07.29c-10.91,2.92-15.87,12.33-12.31,28.62-9.22-15.27-19.74-18.83-29.85-13l-1,.55c-9.1,5.26-11.77,14.6-5.93,27.81-11.23-9-20.94-8.86-28.36-1.44l-0.78.78c-8.2,8.2-7.56,19.19,4.58,31.94-12-4.59-20.61-1.72-25.57,6.86l-0.55,1c-5.36,9.28-2.81,18.91,9.46,27.56-11.84-.76-18.88,4.21-21.33,13.38l-0.29,1.07c-3.54,13.2,5.5,23.62,30,27.62l112.8,20.2c5.51,0.9,10.53-2.17,11.77-6.77l0.1-.38a9.5,9.5,0,0,0-2.58-9,10.23,10.23,0,0,0-.5-2.1,8.46,8.46,0,0,0,2-.28l0.38-.1a3.71,3.71,0,0,1,3.33-.46h0.39a4.62,4.62,0,0,1,5.07.46l0.38,0.1a8.65,8.65,0,0,0,3.92.11,10.24,10.24,0,0,0-.57,2.27,9.5,9.5,0,0,0-2.58,9l0.1,0.38c1.23,4.6,6.26,7.67,11.77,6.77l112.8-20.2C2194.91,1330.83,2203.95,1320.42,2200.41,1307.21Z" transform="translate(-1881.04 -1176.01)"/></g><g id="shape-2" data-name="shape"><path class="cls-2" d="M2189.38,1310.89l-0.29-1.07c-2.14-8-7.78-12.8-17-13.39,10.13-8.16,12-17.08,7-25.71l-0.55-1c-4.62-8-12.4-11-23.18-7.69,9.79-11.62,9.82-21.66,2.19-29.28l-0.78-.78c-6.64-6.64-15.1-7.48-24.84-1.14,3.46-10.9.44-18.75-7.62-23.4l-1-.55c-8.8-5.08-17.91-3-26.21,7.64,1.65-13.36-3.39-21.22-13.24-23.85l-1.08-.29c-10.19-2.72-18.72,2-24,15.36-1.65-14-8.6-20.61-19-20.61h-1.11c-9.45,0-16,5.46-18.41,17-5.26-10.15-13-13.57-21.94-11.17l-1.07.29c-9.33,2.5-14.3,9.74-13.33,22-8-9.54-16.72-11.2-25.15-6.34l-1,.55c-8.05,4.65-11.07,12.5-7.62,23.4-9.74-6.34-18.2-5.5-24.84,1.14l-0.78.78c-7.63,7.63-7.6,17.66,2.19,29.28-10.78-3.35-18.56-.31-23.18,7.69l-0.55,1c-5,8.63-3.12,17.55,7,25.71-9.27.59-14.9,5.39-17,13.39l-0.29,1.07c-3.54,13.2,5.5,23.62,30,27.62l112.8,20.2a35.62,35.62,0,0,1,10.93,0l112.8-20.2C2183.89,1334.51,2192.92,1324.09,2189.38,1310.89Z" transform="translate(-1881.04 -1176.01)"/></g><g id="shape-3" data-name="shape"><path class="cls-2" d="M2006.18,1366.94c-9.31-2-7.57-6.49-9.83-.65-1.68,4.34-1.23,11,10.22,13.51a13.47,13.47,0,0,0,7-.17c7.73-1.47,9.5-9.33,9.5-9.33s-2.65-.45-8.88-1.23C2012,1368.37,2009.27,1367.61,2006.18,1366.94Zm74.13-.65c-2.25-5.84-.52-1.38-9.83.65-3.08.67-5.79,1.43-8,2.14-6.24.78-8.88,1.23-8.88,1.23s1.77,7.86,9.5,9.33a13.47,13.47,0,0,0,7,.17C2081.54,1377.3,2082,1370.63,2080.32,1366.29Z" transform="translate(-1881.04 -1176.01)"/></g><g id="shape-4" data-name="shape"><path class="cls-3" d="M2041.09,1199.52c-53.74,0-90.95,85.89-73.49,137.8s129.07,47.77,147-1.84S2094.83,1199.52,2041.09,1199.52Z" transform="translate(-1881.04 -1176.01)"/></g><g id="shape-5" data-name="shape"><path class="cls-4" d="M1967.6,1337.31a41.49,41.49,0,0,0,1.67,4.13c3.92,0.27,13.81-.73,17.23-16.92,6-28.25-11.71-51.91-16.26-57.42C1962.37,1290.88,1960.69,1316.76,1967.6,1337.31Zm144.54-70.44c-4.2,5-22.51,29-16.45,57.65,3.13,14.8,11.66,16.9,16.1,16.94a41,41,0,0,0,2.8-6C2121.68,1315.82,2120,1290.41,2112.14,1266.88Z" transform="translate(-1881.04 -1176.01)"/></g><g id="shape-6" data-name="shape"><path class="cls-5" d="M2092.54,1283.34a6.4,6.4,0,0,0-1.47-4.09c2.34-9.74,1.54-20.83-3.46-32.47-9.23-21.49-27.51-36-46.51-36s-37.28,14.52-46.51,36c-4.64,10.81-5.67,21.15-3.91,30.37a6.42,6.42,0,0,0,2.73,12.53,9.18,9.18,0,0,0,12.22,13.33,11,11,0,0,0,19.51,10.26l1.27,0.35v0a12.85,12.85,0,0,0,25.68.81c0.6-.11,1.2-0.24,1.79-0.37a11,11,0,0,0,19.86-9q0.69-.51,1.36-1a9.18,9.18,0,0,0,11.06-12.66c0.33-.56.64-1.13,1-1.7A6.43,6.43,0,0,0,2092.54,1283.34Z" transform="translate(-1881.04 -1176.01)"/></g><g id="Elipsa_49_kopiuj" data-name="Elipsa 49 kopiuj"><path class="cls-6" d="M2057.29,1267.18a17.83,17.83,0,0,0-30.57,0c-7.91,1.86-13.19,5.1-13.19,8.81s5.28,7,13.19,8.81c3.1,5.15,15.28,16,15.28,16s12.19-10.84,15.28-16c7.91-1.86,13.19-5.1,13.19-8.81S2065.21,1269,2057.29,1267.18Z" transform="translate(-1881.04 -1176.01)"/></g><g id="shape-7" data-name="shape"><path class="cls-2" d="M2062.22,1238.33c-3.55,0-6.43,3.29-6.43,7.35s2.88,7.35,6.43,7.35,6.43-3.29,6.43-7.35S2065.77,1238.33,2062.22,1238.33Zm-38.58,0c-3.55,0-6.43,3.29-6.43,7.35s2.88,7.35,6.43,7.35,6.43-3.29,6.43-7.35S2027.19,1238.33,2023.64,1238.33Z" transform="translate(-1881.04 -1176.01)"/></g></svg>