<svg id="Layer_1" data-name="Layer 1" xmlns="http://www.w3.org/2000/svg" viewBox="0 0 206.12 192.47"><defs><style>.cls-1,.cls-5{fill:#1d2e2f;}.cls-1,.cls-2,.cls-3,.cls-4{fill-rule:evenodd;}.cls-2{fill:#93765c;}.cls-3{fill:#ab9581;}.cls-4{fill:#c9bbaf;}</style></defs><title>anim_54</title><g id="shape"><path class="cls-1" d="M1377.83,1991.63c-9.31-2-7.57-6.49-9.83-.65-1.68,4.34-1.23,11,10.22,13.51a13.47,13.47,0,0,0,7-.17c7.73-1.47,9.5-9.33,9.5-9.33s-2.65-.45-8.88-1.23C1383.62,1993.05,1380.91,1992.3,1377.83,1991.63ZM1452,1991c-2.25-5.84-.52-1.38-9.83.65-3.08.67-5.79,1.43-8,2.14-6.23.78-8.88,1.23-8.88,1.23s1.77,7.86,9.5,9.33a13.47,13.47,0,0,0,7,.17C1453.19,2002,1453.63,1995.31,1452,1991Z" transform="translate(-1313.12 -1812.39)"/></g><g id="shape-2" data-name="shape"><path class="cls-2" d="M1516.61,1940.14c-3.71,10.06-7.25,20.29-15.41,21.36s-30.8-7.18-15.67-32.13c2.33-4.11-.87-9.44-5.23-11a8.12,8.12,0,0,0-10.57,5.22c-3,9.29-4,11-4,11s-7.07,9.64-.18,23.84,31.52,22.57,42.43,12.76S1522.11,1935.86,1516.61,1940.14Z" transform="translate(-1313.12 -1812.39)"/></g><g id="shape-3" data-name="shape"><path class="cls-2" d="M1313.52,1852c-4.14,24.3,24.5-4.9,47.77-12.86s19,4.9,33.07,3.67S1327.61,1769.31,1313.52,1852Zm196.59,0c-14.09-82.68-94.93-10.41-80.84-9.19s9.8-11.64,33.07-3.67S1514.25,1876.29,1510.11,1852Z" transform="translate(-1313.12 -1812.39)"/></g><g id="shape-4" data-name="shape"><path class="cls-3" d="M1412.73,1824.2c-53.74,0-90.95,85.89-73.49,137.8s129.07,47.77,147-1.84S1466.47,1824.2,1412.73,1824.2Z" transform="translate(-1313.12 -1812.39)"/></g><g id="shape-5" data-name="shape"><path class="cls-4" d="M1412.59,1837.29c-38.29,0-62.87,45.61-45.9,70.42,13.42,19.61,78.4,18.15,92-.75C1475.83,1883.16,1450.87,1837.29,1412.59,1837.29Z" transform="translate(-1313.12 -1812.39)"/></g><g id="shape-6" data-name="shape"><path class="cls-1" d="M1422.84,1870.36c-3.55,0-6.43,3.29-6.43,7.35s2.88,7.35,6.43,7.35,6.43-3.29,6.43-7.35S1426.39,1870.36,1422.84,1870.36Zm-22,0c-3.55,0-6.43,3.29-6.43,7.35s2.88,7.35,6.43,7.35,6.43-3.29,6.43-7.35S1404.34,1870.36,1400.79,1870.36Z" transform="translate(-1313.12 -1812.39)"/></g><g id="Elipsa_30" data-name="Elipsa 30"><ellipse class="cls-5" cx="98.7" cy="100.23" rx="24.8" ry="18.37"/></g></svg>