<svg id="Layer_1" data-name="Layer 1" xmlns="http://www.w3.org/2000/svg" viewBox="0 0 278.88 251.68"><defs><style>.cls-1,.cls-3{fill:#4f7380;}.cls-2{fill:#6d929f;}.cls-2,.cls-3,.cls-4{fill-rule:evenodd;}.cls-4{fill:#85a7b3;}.cls-5{fill:#1d2e2f;}</style></defs><title>anim_28</title><g id="fin"><ellipse class="cls-1" cx="126.74" cy="69.5" rx="9.5" ry="69.5"/></g><g id="fin-2" data-name="fin"><path class="cls-2" d="M675.47,1897.39c-13.22,13.75-26.77,14-49.27,12.09s-25.54,20.57-8.52,31.65,37.11,10.07,54.61-1.46c8.08-5.32,13.42-17.06,15-28.51C688.35,1902.9,692.1,1880.09,675.47,1897.39ZM497.1,1909.48c-22.51,1.87-36.05,1.66-49.27-12.09-16.63-17.3-12.88,5.51-11.77,13.77,1.54,11.45,6.88,23.19,15,28.51,17.5,11.54,37.59,12.54,54.61,1.46S519.61,1907.62,497.1,1909.48Z" transform="translate(-434.91 -1707.45)"/></g><g id="tail"><path class="cls-3" d="M713,1786.68c-6.72-10.75-14.18-.75-33.4-12.25-6.71-4-12.09-5.36-16.67-5-1.94-4.16-5.78-8.15-12.6-11.95-19.57-10.89-14.64-22.35-27.31-22.8-9.73-.34.37,16.43,8.16,38.68v0c5,23.33-35.5,42-60,58s53.5,82,57,46c3.41-35.09,14.75-70.17,38.17-76.55C693.11,1794.33,718.78,1796,713,1786.68Z" transform="translate(-434.91 -1707.45)"/></g><g id="body"><path class="cls-2" d="M561.65,1758.76c-58.5,0-99,93.5-80,150,9.7,28.84,82-9.63,82-9.63s68.45,34.07,78,7.63C661.15,1852.76,620.15,1758.76,561.65,1758.76Z" transform="translate(-434.91 -1707.45)"/></g><g id="body-2" data-name="body"><path class="cls-4" d="M622.15,1891.45c-17,6.5-25-19-59-19s-48.5,12.5-65,20c-11.43,5.2-18.06-3-21.05-8.6a94.5,94.5,0,0,0,4.55,24.91c9.7,28.84,25.34,50.37,82,50.37s68.45-25.93,78-52.37a90.63,90.63,0,0,0,4.91-30.67C644.46,1878.31,636.55,1885.95,622.15,1891.45Z" transform="translate(-434.91 -1707.45)"/></g><g id="eye"><ellipse class="cls-5" cx="81.24" cy="150" rx="6" ry="7"/></g><g id="eye-2" data-name="eye"><ellipse class="cls-5" cx="173.24" cy="150" rx="6" ry="7"/></g><g id="exhaust"><path class="cls-3" d="M561.65,1773.45c-4.55,0-7.5,1.89-7.5,4.42s3.36,4.58,7.5,4.58,7.5-2.05,7.5-4.58S566.2,1773.45,561.65,1773.45Z" transform="translate(-434.91 -1707.45)"/></g><g id="nose"><path class="cls-2" d="M605.15,1877.24c-2-2.3-12-12.79-42.46-12.79H561.6c-30.51,0-40.47,10.49-42.46,12.79l0.19,0.08-0.19.18s15.93,1.74,19.59,21.41,0.07,49.45,23.4,49.45,19.41-29.11,23.41-49.45,19.59-21.41,19.59-21.41l-0.19-.18Z" transform="translate(-434.91 -1707.45)"/></g><g id="nose-2" data-name="nose"><path class="cls-3" d="M561.27,1855.45c-15.73,0-29.07,8.24-33.84,19.68,7.26-8.14,20.09-13.55,34.72-13.55,12.56,0,23.79,4,31.31,10.26C587.7,1862.15,575.45,1855.45,561.27,1855.45Z" transform="translate(-434.91 -1707.45)"/></g></svg>