<svg id="Layer_1" data-name="Layer 1" xmlns="http://www.w3.org/2000/svg" viewBox="0 0 220.78 180.67"><defs><style>.cls-1{opacity:0.2;}.cls-2,.cls-3,.cls-4,.cls-5{fill-rule:evenodd;}.cls-3{fill:#1d2e2f;}.cls-4{fill:#556566;}.cls-5{fill:#fff;}</style></defs><title>anim_64</title><g id="shape" class="cls-1"><path class="cls-2" d="M2104.62,2452.27c-2.08-1.32-11.06,91.08-11.06,91.08s29,39.88,66.35,19.74S2106.71,2453.59,2104.62,2452.27Zm-92.15,0c-2.08,1.32-92.64,90.68-55.29,110.82s66.35-19.74,66.35-19.74S2014.55,2451,2012.47,2452.27Z" transform="translate(-1948.16 -2425)"/></g><g id="shape-2" data-name="shape"><path class="cls-3" d="M2087.79,2434.54c-9.18-6-19.32-9.54-30.16-9.54h0c-10.83,0-21,3.54-30.16,9.54-31.39,20.47-51.41,70-47.26,108.66a84.73,84.73,0,0,0,3.93,19.6c4.77,14.17,16.57,24.13,31.55,30.16-3.71,2.31.38,10.94,11.74,12.28,7.31,0.86,11-3.09,12.71-6.15a181.29,181.29,0,0,0,34.32.07c1.63,2.9,5.72,7.94,14,6.13,10.29-2.25,11.68-7.87,10.64-12.13,15.2-6,27.19-16,32-30.35a84.72,84.72,0,0,0,3.93-19.6C2139.21,2504.53,2119.19,2455,2087.79,2434.54Z" transform="translate(-1948.16 -2425)"/></g><g id="shape-3" data-name="shape"><path class="cls-4" d="M2063.37,2537.8l-2.68-35.37c0-4.07-.35-7.38-4.36-7.38h-2.91c-4,0-4.36,3.3-4.36,7.38l-2.68,35.37c-5.34,2-9,5.67-9,10,0,6.3,7.81,11.6,17.45,11.6s17.45-5.3,17.45-11.6C2072.33,2543.47,2068.71,2539.75,2063.37,2537.8Z" transform="translate(-1948.16 -2425)"/></g><g id="Elipsa_18" data-name="Elipsa 18"><path class="cls-5" d="M2072.33,2465.65c-7.29,0-13.57,4.68-16.54,11.45-3-6.77-9.25-11.45-16.54-11.45-10.15,0-18.37,9-18.37,20.21s8.23,20.21,18.37,20.21c7.29,0,13.57-4.68,16.54-11.45,3,6.77,9.25,11.45,16.54,11.45,10.15,0,18.37-9,18.37-20.21S2082.47,2465.65,2072.33,2465.65Z" transform="translate(-1948.16 -2425)"/></g><g id="shape-4" data-name="shape"><path class="cls-3" d="M2069.57,2478.51c-3.55,0-6.43,3.29-6.43,7.35s2.88,7.35,6.43,7.35,6.43-3.29,6.43-7.35S2073.12,2478.51,2069.57,2478.51Zm-27.56,0c-3.55,0-6.43,3.29-6.43,7.35s2.88,7.35,6.43,7.35,6.43-3.29,6.43-7.35S2045.56,2478.51,2042,2478.51Z" transform="translate(-1948.16 -2425)"/></g></svg>