<svg id="Layer_1" data-name="Layer 1" xmlns="http://www.w3.org/2000/svg" viewBox="0 0 657.03 542.89"><defs><style>.cls-1{fill:#e36b07;}.cls-2{fill:#c7490c;}.cls-3{fill:#b73d0d;}.cls-4{fill:#e1ab00;}.cls-5{fill:#e48a00;}.cls-6{fill:#ecde4c;}.cls-7{fill:#541d00;}.cls-8{fill:#fff;}</style></defs><title>anim_07</title><path class="cls-1" d="M-1880.94,3890.63v329.83H-2307V3890.63c0-117.66,95.38-213,213-213s213,95.38,213,213" transform="translate(2422.42 -3677.57)"/><path class="cls-1" d="M-2388.43,4069.16a115.4,115.4,0,0,1,0-163.2l81.6,81.6Z" transform="translate(2422.42 -3677.57)"/><path class="cls-2" d="M-2422.42,3987.56A115.4,115.4,0,0,0-2307,4103v-115.4h-115.4Z" transform="translate(2422.42 -3677.57)"/><path class="cls-1" d="M-1799.19,4069.16a115.4,115.4,0,0,0,0-163.2l-81.6,81.6Z" transform="translate(2422.42 -3677.57)"/><path class="cls-2" d="M-1880.79,4103a115.4,115.4,0,0,0,115.4-115.4h-115.4V4103Z" transform="translate(2422.42 -3677.57)"/><circle class="cls-2" cx="328.44" cy="213.05" r="213.05"/><path class="cls-3" d="M-2094,4103.66c-117.66,0-213-95.38-213-213s95.38-213,213-213" transform="translate(2422.42 -3677.57)"/><path class="cls-4" d="M-2094,3963.51l-28.32-35.19c-19.15-23.79-2.22-59.16,28.32-59.16h0c30.54,0,47.47,35.37,28.32,59.16Z" transform="translate(2422.42 -3677.57)"/><path class="cls-5" d="M-2094,3963.51l-28.32-35.19c-19.15-23.79-2.22-59.16,28.32-59.16h0" transform="translate(2422.42 -3677.57)"/><circle class="cls-6" cx="435.56" cy="182.26" r="53.92"/><circle class="cls-7" cx="435.56" cy="182.26" r="34.74"/><circle class="cls-8" cx="414.49" cy="161.2" r="15.22"/><circle class="cls-6" cx="220.82" cy="182.26" r="53.92"/><circle class="cls-7" cx="220.82" cy="182.26" r="34.74"/><circle class="cls-8" cx="199.76" cy="161.2" r="15.22"/><path class="cls-6" d="M-2250.34,4220.45a24.85,24.85,0,0,1,24.85-24.85,24.85,24.85,0,0,1,24.85,24.85" transform="translate(2422.42 -3677.57)"/><path class="cls-6" d="M-2188.69,4220.45a24.85,24.85,0,0,1,24.85-24.85,24.85,24.85,0,0,1,24.85,24.85" transform="translate(2422.42 -3677.57)"/><path class="cls-6" d="M-2049,4220.45a24.85,24.85,0,0,1,24.85-24.85,24.85,24.85,0,0,1,24.85,24.85" transform="translate(2422.42 -3677.57)"/><path class="cls-6" d="M-1987.32,4220.45a24.85,24.85,0,0,1,24.85-24.85,24.85,24.85,0,0,1,24.85,24.85" transform="translate(2422.42 -3677.57)"/><path class="cls-2" d="M-1906.54,4102.54a25.32,25.32,0,0,1-25.32,25.32,25.32,25.32,0,0,1-25.32-25.32" transform="translate(2422.42 -3677.57)"/><path class="cls-2" d="M-1945.69,4141.69A25.32,25.32,0,0,1-1971,4167a25.32,25.32,0,0,1-25.32-25.32" transform="translate(2422.42 -3677.57)"/><path class="cls-2" d="M-1985.31,4102.54a25.32,25.32,0,0,1-25.32,25.32,25.32,25.32,0,0,1-25.32-25.32" transform="translate(2422.42 -3677.57)"/><path class="cls-2" d="M-2024.46,4141.69a25.32,25.32,0,0,1-25.32,25.32,25.32,25.32,0,0,1-25.32-25.32" transform="translate(2422.42 -3677.57)"/><path class="cls-2" d="M-2285.72,4102.54a25.32,25.32,0,0,0,25.32,25.32,25.32,25.32,0,0,0,25.32-25.32" transform="translate(2422.42 -3677.57)"/><path class="cls-2" d="M-2246.57,4141.69a25.32,25.32,0,0,0,25.32,25.32,25.32,25.32,0,0,0,25.32-25.32" transform="translate(2422.42 -3677.57)"/><path class="cls-2" d="M-2206.95,4102.54a25.32,25.32,0,0,0,25.32,25.32,25.32,25.32,0,0,0,25.32-25.32" transform="translate(2422.42 -3677.57)"/><path class="cls-2" d="M-2167.8,4141.69a25.32,25.32,0,0,0,25.32,25.32,25.32,25.32,0,0,0,25.32-25.32" transform="translate(2422.42 -3677.57)"/><path class="cls-1" d="M-2029.28,3780a25.32,25.32,0,0,1-25.32,25.32,25.32,25.32,0,0,1-25.32-25.32" transform="translate(2422.42 -3677.57)"/><path class="cls-2" d="M-2108,3780a25.32,25.32,0,0,1-25.32,25.32,25.32,25.32,0,0,1-25.32-25.32" transform="translate(2422.42 -3677.57)"/><path class="cls-2" d="M-2068.43,3819.15a25.32,25.32,0,0,1-25.32,25.32,25.32,25.32,0,0,1-25.32-25.32" transform="translate(2422.42 -3677.57)"/><path class="cls-2" d="M-2158.6,3737a25.32,25.32,0,0,1-25.32,25.32,25.32,25.32,0,0,1-25.32-25.32" transform="translate(2422.42 -3677.57)"/><path class="cls-1" d="M-1977.44,3737a25.32,25.32,0,0,1-25.32,25.32,25.32,25.32,0,0,1-25.32-25.32" transform="translate(2422.42 -3677.57)"/><path class="cls-2" d="M-2068.43,3745.18a25.32,25.32,0,0,1-25.32,25.32,25.32,25.32,0,0,1-25.32-25.32" transform="translate(2422.42 -3677.57)"/></svg>