<svg id="Layer_1" data-name="Layer 1" xmlns="http://www.w3.org/2000/svg" viewBox="0 0 190.78 188.67"><defs><style>.cls-1{fill:#1d2e2f;}.cls-1,.cls-2,.cls-3,.cls-4,.cls-5,.cls-6{fill-rule:evenodd;}.cls-2{fill:#d18517;}.cls-3{fill:#e2b854;}.cls-4{fill:#fedc89;}.cls-5{fill:#fff;}.cls-6{fill:#fea36c;}</style></defs><title>anim_70</title><g id="shape"><path class="cls-1" d="M1382.42,3230c-9.31-2-7.57-6.49-9.83-.65-1.67,4.34-1.23,11,10.22,13.51a13.47,13.47,0,0,0,7-.17c7.73-1.47,9.5-9.33,9.5-9.33s-2.65-.45-8.88-1.23C1388.21,3231.4,1385.5,3230.64,1382.42,3230Zm74.13-.65c-2.25-5.83-.52-1.38-9.83.65-3.08.67-5.79,1.43-8,2.14-6.23.78-8.88,1.23-8.88,1.23s1.77,7.85,9.5,9.33a13.47,13.47,0,0,0,7,.17C1457.78,3240.33,1458.23,3233.66,1456.55,3229.32Z" transform="translate(-1323.78 -3054.54)"/></g><g id="Elipsa_25" data-name="Elipsa 25"><path class="cls-2" d="M1472,3054.79c-12.58-1.79-38.35,6.2-40.41,21.24s7,25,19.55,26.75,16.25-3.12,23.62-16.39C1481,3075.23,1484.58,3056.57,1472,3054.79Zm-111.18,0c-12.58,1.79-9,20.44-2.76,31.6,7.37,13.27,11,18.18,23.62,16.39s21.61-11.71,19.55-26.75S1373.4,3053,1360.82,3054.79Z" transform="translate(-1323.78 -3054.54)"/></g><g id="shape-2" data-name="shape"><path class="cls-3" d="M1417.33,3062.55c-53.74,0-90.95,85.89-73.49,137.8s129.07,47.77,147-1.84S1471.07,3062.55,1417.33,3062.55Z" transform="translate(-1323.78 -3054.54)"/></g><g id="shape-3" data-name="shape"><path class="cls-4" d="M1452.7,3195c-5.18-7.24-11.74-14.63-34.93-14.63-27.35,0-35.5,4.4-40.13,14.63-2.79,6.16-4.41,35,38.74,35S1455.76,3199.27,1452.7,3195Z" transform="translate(-1323.78 -3054.54)"/></g><g id="Elipsa_24" data-name="Elipsa 24"><path class="cls-5" d="M1439.55,3108.71a29.31,29.31,0,0,0-7.42.95c-2.48-10.77-7.35-21.16-13-21.16s-10.37,10.14-12.87,20.76a29.5,29.5,0,0,0-5.67-.55c-14.11,0-25.55,9.87-25.55,22s11.44,22,25.55,22a27.29,27.29,0,0,0,19.47-7.78,27.29,27.29,0,0,0,19.47,7.78c14.11,0,25.55-9.87,25.55-22S1453.66,3108.71,1439.55,3108.71Z" transform="translate(-1323.78 -3054.54)"/></g><g id="shape-4" data-name="shape"><path class="cls-1" d="M1447.47,3093.38c-1.09-4.1-5-6.72-8.74-5.87s-5.89,4.86-4.8,9,5,6.72,8.74,5.87S1448.56,3097.48,1447.47,3093.38Zm-49.72-5.87c-3.74-.85-7.65,1.78-8.74,5.87s1.06,8.11,4.8,9,7.65-1.78,8.74-5.87S1401.5,3088.36,1397.76,3087.51Z" transform="translate(-1323.78 -3054.54)"/></g><g id="Elipsa_7_kopiuj_2" data-name="Elipsa 7 kopiuj 2"><path class="cls-6" d="M1420.37,3114.22c-3.55,0-6.71.7-6.71,5.26s3.16,11.27,6.71,11.27,6.15-6.71,6.15-11.27S1423.92,3114.22,1420.37,3114.22Z" transform="translate(-1323.78 -3054.54)"/></g><g id="shape-5" data-name="shape"><path class="cls-5" d="M1511.87,3121.23a1.54,1.54,0,0,0,2.27,0,1.77,1.77,0,0,0-.12-2.4c-0.34-.34-8.11-7.91-24.63-8.26q-1.23,0-2.53,0a46.8,46.8,0,0,0-29.76,11.39v0l-0.08.09-0.08.1,0,0.05-0.05.1-0.06.12,0,0.07,0,0.1,0,0.13,0,0.07s0,0.07,0,.1,0,0.1,0,.14,0,0.05,0,.08,0,0.07,0,.1,0,0.1,0,.15v0.11l0,0.07,0,0.13,0,0.1,0,0.1,0,0.08,0,0,0,0.09,0.06,0.09,0.08,0.12,0,0,0,0,0.06,0.06,0.12,0.12,0.06,0,0.06,0,0.15,0.09,0.06,0,0.08,0,0.16,0.06,0.06,0,0.1,0,0.15,0h0.41c0.14,0,13.78-2.2,29,6.46a47.49,47.49,0,0,1,14.63,12.39,1.57,1.57,0,0,0,2.26.33,1.75,1.75,0,0,0,.21-2.38,50.93,50.93,0,0,0-15.68-13.32,54.57,54.57,0,0,0-20.11-6.77,45.78,45.78,0,0,1,19.78.6c16.63,4.22,22.41,13.6,22.47,13.7a1.59,1.59,0,0,0,2.22.6,1.72,1.72,0,0,0,.47-2.33c-0.26-.44-6.59-10.71-24.54-15.27a48.7,48.7,0,0,0-19.66-.92,44.62,44.62,0,0,1,17.44-4C1503.86,3113.57,1511.8,3121.16,1511.87,3121.23Zm-130.18,1.66s0-.07,0-0.1l0-.07,0-.13,0-.1,0-.07-0.06-.12-0.05-.1,0-.06-0.08-.1-0.08-.09,0,0a46.8,46.8,0,0,0-29.76-11.39q-1.3,0-2.53,0c-16.52.35-24.29,7.92-24.63,8.26a1.77,1.77,0,0,0-.12,2.4,1.54,1.54,0,0,0,2.27,0c0.08-.08,8-7.66,24.8-7.29a44.62,44.62,0,0,1,17.44,4,48.7,48.7,0,0,0-19.66.92c-17.94,4.56-24.28,14.83-24.54,15.27a1.72,1.72,0,0,0,.47,2.33,1.59,1.59,0,0,0,2.22-.6c0.06-.1,5.84-9.47,22.47-13.7a45.78,45.78,0,0,1,19.78-.6,54.57,54.57,0,0,0-20.11,6.77,50.93,50.93,0,0,0-15.68,13.32,1.75,1.75,0,0,0,.21,2.38,1.57,1.57,0,0,0,2.26-.33,47.48,47.48,0,0,1,14.63-12.39c15.25-8.66,28.89-6.48,29-6.46h0.41l0.15,0,0.1,0,0.06,0,0.16-.06,0.08,0,0.06,0,0.15-.09,0.06,0,0.06,0,0.12-.12,0.06-.06,0,0,0,0,0.08-.12,0.06-.09,0-.09,0,0,0-.08,0-.1,0-.1s0-.09,0-0.13l0-.07v-0.11s0-.1,0-0.15,0-.07,0-0.1,0-.05,0-0.08S1381.7,3122.95,1381.7,3122.9Z" transform="translate(-1323.78 -3054.54)"/></g></svg>