<svg id="Layer_1" data-name="Layer 1" xmlns="http://www.w3.org/2000/svg" viewBox="0 0 169.65 196.66"><defs><style>.cls-1{fill:#1d2e2f;}.cls-1,.cls-2,.cls-4{fill-rule:evenodd;}.cls-2{fill:#32494a;}.cls-3{fill:#fff;}.cls-4{fill:#f79100;}</style></defs><title>anim_39</title><g id="feet"><path class="cls-1" d="M176,2938c-10.14-2.21-8.25-7.06-10.7-.71-1.82,4.72-1.34,12,11.12,14.71a14.67,14.67,0,0,0,7.67-.18c8.41-1.6,10.34-10.15,10.34-10.15s-2.88-.49-9.67-1.34C182.33,2939.57,179.38,2938.75,176,2938Zm80.7-.71c-2.45-6.35-.56-1.5-10.7.71-3.36.73-6.3,1.55-8.76,2.33-6.79.85-9.67,1.34-9.67,1.34s1.93,8.55,10.34,10.15a14.67,14.67,0,0,0,7.67.18C258.06,2949.29,258.54,2942,256.72,2937.3Z" transform="translate(-129.29 -2755.76)"/></g><g id="body"><path class="cls-1" d="M214,2755.76c-58.5,0-99,93.5-80,150s140.5,52,160-2S272.52,2755.76,214,2755.76Z" transform="translate(-129.29 -2755.76)"/></g><g id="wings"><path class="cls-2" d="M136.46,2830.7c-8.18,25.5-9.83,53.08-2.43,75.07,0.38,1.12.86,2.18,1.32,3.25,0.39,0.51.62,0.81,0.62,0.81s15.49,3.92,20.06-17.81c7.25-34.49-18.38-62.56-18.38-62.56C137.22,2829.86,136.86,2830.28,136.46,2830.7Zm155.44,0.05c-0.5-.43-1-0.87-1.49-1.3,0,0-25.63,28.08-18.38,62.56,3.9,18.57,15.75,18.41,19.12,18a44.51,44.51,0,0,0,2.88-6.22C301.58,2882.83,300,2855.9,291.9,2830.75Z" transform="translate(-129.29 -2755.76)"/></g><g id="eye"><ellipse class="cls-3" cx="47.32" cy="47.25" rx="18.58" ry="17"/></g><g id="eye-2" data-name="eye"><ellipse class="cls-3" cx="122.15" cy="47.25" rx="18.58" ry="17"/></g><g id="eye-3" data-name="eye"><path class="cls-1" d="M255,2794c-3.87,0-7,3.58-7,8s3.13,8,7,8,7-3.58,7-8S258.89,2794,255,2794Zm-82,0c-3.87,0-7,3.58-7,8s3.13,8,7,8,7-3.58,7-8S176.89,2794,173,2794Z" transform="translate(-129.29 -2755.76)"/></g><g id="beak"><path class="cls-4" d="M214,2782c-29.87,0-42,20.41-42,39.49S208,2902,214,2902s42-61.43,42-80.51S243.9,2782,214,2782Z" transform="translate(-129.29 -2755.76)"/></g></svg>