<svg id="Layer_1" data-name="Layer 1" xmlns="http://www.w3.org/2000/svg" viewBox="0 0 155.85 208.31"><defs><style>.cls-1{fill:#1d2e2f;}.cls-1,.cls-2,.cls-3,.cls-4{fill-rule:evenodd;}.cls-2{fill:#bf8136;}.cls-3{fill:#9a6b33;}.cls-4{fill:#6b471c;}</style></defs><title>anim_49</title><g id="shape"><path class="cls-1" d="M1067.32,1679.28c-9.31-2-7.57-6.49-9.83-.65-1.68,4.34-1.23,11,10.22,13.51a13.47,13.47,0,0,0,7-.17c7.73-1.47,9.5-9.33,9.5-9.33s-2.65-.45-8.88-1.23C1073.11,1680.71,1070.4,1680,1067.32,1679.28Zm77.81-.65c-2.25-5.84-.52-1.38-9.83.65-3.08.67-5.79,1.43-8,2.14-6.24.78-8.88,1.23-8.88,1.23s1.77,7.86,9.5,9.33a13.47,13.47,0,0,0,7,.17C1146.36,1689.65,1146.8,1683,1145.13,1678.63Z" transform="translate(-1024.39 -1484.22)"/></g><g id="shape-2" data-name="shape"><path class="cls-2" d="M1148.08,1534.9c4.28-4.44,9.08-10.86,11.21-18.8,4.26-15.9-3.82-31.88-3.82-31.88s-15,9.8-19.25,25.7a39.59,39.59,0,0,0-1.1,13.3c-9.89-7.12-21-11.36-32.89-11.36-13.56,0-26.07,5.47-36.91,14.49a41.23,41.23,0,0,0-.76-16.43c-4.26-15.9-19.25-25.7-19.25-25.7s-8.08,16-3.82,31.88c2.47,9.22,8.54,16.38,13.21,20.78-25.18,29.4-37.5,78.5-26,112.78,17.45,51.9,129.07,47.77,147-1.84C1187.83,1614.29,1174.55,1564,1148.08,1534.9Z" transform="translate(-1024.39 -1484.22)"/></g><g id="Elipsa_44" data-name="Elipsa 44"><path class="cls-3" d="M1153.67,1639.78c0-8.64-9-16.25-22.67-20.69a45.12,45.12,0,0,0-55.71,0c-13.66,4.44-22.67,12-22.67,20.69,0,4.06,2,7.9,5.53,11.28,0.48,19,12.59,39.24,45,39.24s44.51-20.29,45-39.24C1151.67,1647.68,1153.67,1643.85,1153.67,1639.78Z" transform="translate(-1024.39 -1484.22)"/></g><g id="shape-3" data-name="shape"><path class="cls-1" d="M1143.57,1554.35c-3.55,0-6.43,3.29-6.43,7.35s2.88,7.35,6.43,7.35,6.43-3.29,6.43-7.35S1147.12,1554.35,1143.57,1554.35Zm-80.84,0c-3.55,0-6.43,3.29-6.43,7.35s2.88,7.35,6.43,7.35,6.43-3.29,6.43-7.35S1066.28,1554.35,1062.73,1554.35Z" transform="translate(-1024.39 -1484.22)"/></g><g id="shape-4" data-name="shape"><path class="cls-1" d="M1070.33,1629.66c-4.37,1.83-4.84,7.15-1.06,11.89s10.39,7.11,14.76,5.28,4.84-7.15,1.06-11.89S1074.69,1627.84,1070.33,1629.66Zm65.64,1.22c-4.37-1.82-11,.54-14.76,5.28s-3.31,10.07,1.06,11.89,11-.54,14.76-5.28S1140.34,1632.71,1136,1630.89Z" transform="translate(-1024.39 -1484.22)"/></g><g id="shape-5" data-name="shape"><path class="cls-4" d="M1127,1516.11s-0.06-7.78-18.57-9.66c-37.22-3.77-33.65,28.32-33,23.67-1.51,10.73,7.91,59.31,16.76,56.41s7.32-12.19,7.32-12.19,0.91,6.06,8,2.54,6.76-12.47,6.76-12.47,0.81,3.95,4.59,1.68,6-10,8.34-21S1127,1516.11,1127,1516.11Z" transform="translate(-1024.39 -1484.22)"/></g></svg>