<svg id="Layer_1" data-name="Layer 1" xmlns="http://www.w3.org/2000/svg" viewBox="0 0 831.42 502.89"><defs><style>.cls-1{fill:#00a1e0;}.cls-2{fill:#004d9b;}.cls-3{fill:#5fbfe5;}.cls-4{fill:#fff;}</style></defs><title>anim_11</title><path class="cls-1" d="M-1779.06,5062.35a161,161,0,0,1-227.73,0,161,161,0,0,1,0-227.73Z" transform="translate(2610.48 -4674.42)"/><path class="cls-2" d="M-2006.79,5062.47a161,161,0,0,1,0-227.73,161,161,0,0,1,227.74,0Z" transform="translate(2610.48 -4674.42)"/><path class="cls-1" d="M-2241.8,4674.42A143.23,143.23,0,0,0-2385,4817.66h143.23V4674.42Z" transform="translate(2610.48 -4674.42)"/><path class="cls-2" d="M-2385,5034.08a143.23,143.23,0,0,0,143.23,143.23V5034.08H-2385Z" transform="translate(2610.48 -4674.42)"/><path class="cls-3" d="M-2610.48,4949.77c164.06,216.55,430.05,216.55,594.11,0C-2180.42,4733.22-2446.42,4733.22-2610.48,4949.77Z" transform="translate(2610.48 -4674.42)"/><path class="cls-1" d="M-2130.17,5015.77a38.55,38.55,0,0,0,38.55-38.55,38.55,38.55,0,0,0-38.55-38.55" transform="translate(2610.48 -4674.42)"/><path class="cls-1" d="M-2610.48,4949.77c164.06,216.55,430.05,216.55,594.11,0" transform="translate(2610.48 -4674.42)"/><path class="cls-3" d="M-2159.3,4938.67a38.55,38.55,0,0,1,38.55,38.55,38.55,38.55,0,0,1-38.55,38.55" transform="translate(2610.48 -4674.42)"/><path class="cls-3" d="M-2224.67,4911.22a38.55,38.55,0,0,1,38.55,38.55,38.55,38.55,0,0,1-38.55,38.55" transform="translate(2610.48 -4674.42)"/><path class="cls-3" d="M-2358.45,4997.88a38.55,38.55,0,0,1,38.55,38.55,38.55,38.55,0,0,1-38.55,38.55" transform="translate(2610.48 -4674.42)"/><path class="cls-1" d="M-2185.83,4962.33a38.55,38.55,0,0,0,38.55-38.55,38.55,38.55,0,0,0-38.55-38.55" transform="translate(2610.48 -4674.42)"/><path class="cls-1" d="M-2251.21,4912.12a38.55,38.55,0,0,0,38.55-38.55,38.55,38.55,0,0,0-38.55-38.55" transform="translate(2610.48 -4674.42)"/><path class="cls-1" d="M-2251.21,5004.16a38.55,38.55,0,0,0,38.55-38.55,38.55,38.55,0,0,0-38.55-38.55" transform="translate(2610.48 -4674.42)"/><path class="cls-1" d="M-2330.46,4958.14a38.55,38.55,0,0,0,38.55-38.55,38.55,38.55,0,0,0-38.55-38.55" transform="translate(2610.48 -4674.42)"/><path class="cls-1" d="M-2374.13,4912.12a38.55,38.55,0,0,0,38.55-38.55,38.55,38.55,0,0,0-38.55-38.55" transform="translate(2610.48 -4674.42)"/><path class="cls-1" d="M-2433.18,4958.14a38.55,38.55,0,0,0,38.55-38.55,38.55,38.55,0,0,0-38.55-38.55" transform="translate(2610.48 -4674.42)"/><circle class="cls-4" cx="137.79" cy="250.6" r="48.9"/><circle class="cls-2" cx="137.79" cy="250.6" r="29.42"/><circle class="cls-4" cx="120.97" cy="233.08" r="16.28"/><path class="cls-3" d="M-2287.65,4919.59a38.55,38.55,0,0,1,38.55,38.55,38.55,38.55,0,0,1-38.55,38.55" transform="translate(2610.48 -4674.42)"/><path class="cls-3" d="M-2235.52,4997.88a38.55,38.55,0,0,1,38.55,38.55,38.55,38.55,0,0,1-38.55,38.55" transform="translate(2610.48 -4674.42)"/></svg>