<svg id="Layer_1" data-name="Layer 1" xmlns="http://www.w3.org/2000/svg" viewBox="0 0 278.88 251.68"><defs><style>.cls-1,.cls-3{fill:#0f1b1c;}.cls-2,.cls-6{fill:#1d2e2f;}.cls-2,.cls-3,.cls-4,.cls-5{fill-rule:evenodd;}.cls-4{fill:#f4f4f4;}.cls-5{fill:#fff;}</style></defs><title>anim_23</title><g id="fin"><ellipse class="cls-1" cx="126.74" cy="69.5" rx="9.5" ry="69.5"/></g><g id="fin-2" data-name="fin"><path class="cls-2" d="M327.47,1564.39c-13.22,13.75-26.77,14-49.27,12.09s-25.54,20.57-8.52,31.65,37.11,10.07,54.61-1.46c8.08-5.32,13.42-17.06,15-28.51C340.35,1569.9,344.1,1547.09,327.47,1564.39ZM149.1,1576.48c-22.51,1.87-36.05,1.66-49.27-12.09-16.63-17.3-12.88,5.51-11.77,13.77,1.54,11.45,6.88,23.19,15,28.51,17.5,11.54,37.59,12.54,54.61,1.46S171.61,1574.62,149.1,1576.48Z" transform="translate(-86.91 -1374.45)"/></g><g id="tail"><path class="cls-3" d="M365,1453.68c-6.72-10.75-14.18-.75-33.4-12.25-6.71-4-12.09-5.36-16.67-5-1.94-4.16-5.78-8.15-12.6-11.95-19.57-10.89-14.64-22.35-27.31-22.8-9.73-.34.37,16.43,8.16,38.68v0c5,23.33-35.5,42-60,58s53.5,82,57,46c3.41-35.09,14.75-70.18,38.17-76.55C345.11,1461.33,370.78,1463,365,1453.68Z" transform="translate(-86.91 -1374.45)"/></g><g id="body"><path class="cls-2" d="M213.65,1425.76c-52.21,0-90.08,74.47-84.12,130.65,23.61,25.65,86.12,49.72,86.12,49.72s57.68-28.43,82.82-58.67C300.57,1493.89,263.45,1425.76,213.65,1425.76Z" transform="translate(-86.91 -1374.45)"/></g><g id="body-2" data-name="body"><path class="cls-4" d="M274.15,1558.45c-17,6.5-25-19-59-19s-48.5,12.5-65,20c-11.43,5.2-18.06-3-21.05-8.6a94.51,94.51,0,0,0,4.55,24.91c9.7,28.84,25.34,50.37,82,50.37s68.45-25.93,78-52.37a90.63,90.63,0,0,0,4.91-30.67C296.46,1545.31,288.55,1552.95,274.15,1558.45Z" transform="translate(-86.91 -1374.45)"/></g><g id="eye"><path class="cls-5" d="M170.55,1531.06a46.91,46.91,0,0,1,7.71-1.29,16,16,0,0,0-1.49-13.86c-4.38-7.39-13.13-10.46-19.55-6.85s-8.07,12.53-3.69,19.93a17.51,17.51,0,0,0,7.19,6.76A24.38,24.38,0,0,1,170.55,1531.06Z" transform="translate(-86.91 -1374.45)"/></g><g id="eye-2" data-name="eye"><ellipse class="cls-6" cx="80.24" cy="153" rx="6" ry="7"/></g><g id="eye-3" data-name="eye"><path class="cls-5" d="M269.08,1509.06c-6.42-3.61-15.17-.55-19.55,6.85a16,16,0,0,0-1.49,13.86,46.91,46.91,0,0,1,7.71,1.29,24.38,24.38,0,0,1,9.83,4.69,17.51,17.51,0,0,0,7.19-6.76C277.15,1521.6,275.49,1512.68,269.08,1509.06Z" transform="translate(-86.91 -1374.45)"/></g><g id="eye-4" data-name="eye"><ellipse class="cls-6" cx="172.24" cy="153" rx="6" ry="7"/></g><g id="exhaust"><path class="cls-3" d="M213.65,1440.45c-4.55,0-7.5,1.89-7.5,4.42s3.36,4.58,7.5,4.58,7.5-2.05,7.5-4.58S218.2,1440.45,213.65,1440.45Z" transform="translate(-86.91 -1374.45)"/></g><g id="nose"><path class="cls-2" d="M257.15,1548.24c-2-2.3-12-12.79-42.46-12.79H213.6c-30.51,0-40.47,10.49-42.46,12.79l0.16,0.07c0.65-.68,3.41-2.19,9.44,11.6,7.42,16.95,20.28,26.45,33.4,26.45s22.59-10.47,31.41-26.45c8-14.5,11.6-11.41,11.6-11.41l-0.19-.18Zm-85.81.08,0,0a1.19,1.19,0,0,0-.16.2Z" transform="translate(-86.91 -1374.45)"/></g><g id="nose-2" data-name="nose"><path class="cls-3" d="M213.27,1520.45c-15.73,0-29.07,8.24-33.84,19.68,7.26-8.14,20.09-13.55,34.72-13.55,12.56,0,23.79,4,31.31,10.26C239.7,1527.15,227.45,1520.45,213.27,1520.45Z" transform="translate(-86.91 -1374.45)"/></g></svg>