<svg id="Layer_1" data-name="Layer 1" xmlns="http://www.w3.org/2000/svg" viewBox="0 0 229.57 196.66"><defs><style>.cls-1{fill:#fff;}.cls-1,.cls-3{fill-rule:evenodd;}.cls-2{fill:#f79100;}.cls-3{fill:#1d2e2f;}</style></defs><title>anim_19</title><g id="body"><path class="cls-1" d="M214.15,1099c-58.5,0-93,87.5-74,144,14.91,44.34,131.1,39.27,146-2C305.65,1187,272.65,1099,214.15,1099Z" transform="translate(-99.36 -1092.95)"/></g><g id="beak"><ellipse class="cls-2" cx="113.78" cy="71" rx="19" ry="13"/></g><g id="body-2" data-name="body"><path class="cls-3" d="M169.15,1155c-3.87,0-7,3.58-7,8s3.13,8,7,8,7-3.58,7-8S173,1155,169.15,1155Zm151,42c-12-3.55-19.46-6.51-24.26-14.68-6.14-28.29-20.94-56.16-41-73.06l-0.56-.47q-1.11-.92-2.24-1.8l-1.15-.87c-0.6-.44-1.2-0.89-1.8-1.31s-1.09-.75-1.63-1.11-1-.64-1.45-1c-0.67-.42-1.34-0.82-2-1.22l-1.2-.7c-0.76-.43-1.53-0.83-2.3-1.22l-1-.52c-0.83-.41-1.66-0.78-2.5-1.15l-0.92-.41c-0.87-.36-1.74-0.7-2.62-1l-0.88-.33c-0.89-.31-1.78-0.58-2.68-0.85L229,1095c-0.89-.25-1.79-0.46-2.7-0.67l-0.95-.23c-0.89-.19-1.8-0.33-2.7-0.48-0.33-.05-0.67-0.12-1-0.17-0.92-.13-1.86-0.21-2.79-0.3-0.32,0-.64-0.07-1-0.1q-1.88-.13-3.78-0.13h0q-1.91,0-3.78.13c-0.32,0-.64.07-1,0.1-0.93.08-1.87,0.17-2.79,0.3-0.34,0-.67.12-1,0.17-0.9.14-1.81,0.29-2.7,0.48l-1,.23c-0.9.2-1.8,0.42-2.7,0.67l-0.9.27c-0.9.27-1.79,0.54-2.68,0.85l-0.88.33c-0.88.32-1.76,0.65-2.62,1l-0.92.41c-0.84.37-1.67,0.74-2.5,1.15l-1,.52c-0.77.39-1.54,0.8-2.3,1.22l-1.2.7c-0.67.4-1.35,0.8-2,1.22-0.49.31-1,.63-1.45,1s-1.09.73-1.63,1.11-1.2.87-1.8,1.31l-1.15.87q-1.13.88-2.24,1.8l-0.56.47c-20,16.89-34.84,44.77-41,73.06-4.8,8.18-12.29,11.13-24.26,14.68-13.5,4-10.33,17.5,2,20a23.12,23.12,0,0,0,5.88.42,27.06,27.06,0,0,0,13.3-3.24c0.1,3,.37,5.89.71,8.76a91,91,0,0,0,4.11,20.07c5,15,17.35,25.71,33,32.32-1.46,4.71-.4,11.35,11.39,13.92a15.08,15.08,0,0,0,6.84,0,12.8,12.8,0,0,0,11.58-6.59,132.52,132.52,0,0,0,17.16.69,132.51,132.51,0,0,0,17.16-.69,12.8,12.8,0,0,0,11.58,6.59,15.08,15.08,0,0,0,6.84,0c11.79-2.57,12.85-9.22,11.39-13.92,15.69-6.61,28-17.31,33-32.32a91,91,0,0,0,4.11-20.07c0.34-2.87.61-5.79,0.71-8.76a27.06,27.06,0,0,0,13.3,3.24,23.12,23.12,0,0,0,5.88-.42C330.48,1214.45,333.65,1201,320.15,1197Zm-112-36a6.53,6.53,0,0,1,12,0c3.61,0.85,6,2.34,6,4s-2.41,3.19-6,4a6.53,6.53,0,0,1-12,0c-3.61-.85-6-2.34-6-4S204.56,1161.76,208.17,1160.91Zm65.33,71.74c-10.67,14.13-29.08,24.27-59.26,24.29h-0.18c-30.18,0-48.59-10.17-59.26-24.29-20.14-26.91-11.82-68.27-2.65-81.7,5.07-7.42,9.8-11.09,14.09-12.28,6.13-.61,11.84,2.58,15.53,6.88a36.47,36.47,0,0,1,2.36,3.38v0c5.5,10,2,34,30,34h0c28,0,24.5-24,30-34v0a36.48,36.48,0,0,1,2.36-3.38c3.69-4.3,9.4-7.49,15.53-6.88,4.29,1.19,9,4.86,14.09,12.28C285.32,1164.39,293.64,1205.75,273.5,1232.65ZM259.15,1155a5.54,5.54,0,0,1-2,0c-3.87,0-7,3.58-7,8s3.13,8,7,8a5.55,5.55,0,0,1,2,0c3.87,0,7-3.58,7-8S263,1155,259.15,1155Z" transform="translate(-99.36 -1092.95)"/></g></svg>