<svg id="Layer_1" data-name="Layer 1" xmlns="http://www.w3.org/2000/svg" viewBox="0 0 751.75 547.96"><defs><style>.cls-1{fill:#c0396b;}.cls-2{fill:#fbafa5;}.cls-3{fill:#e0528b;}.cls-4{fill:#fb7e7b;}.cls-5{fill:#875224;}.cls-6{fill:#fdcec9;}.cls-7{fill:#fff;}.cls-8{fill:#ea6565;}</style></defs><title>anim_08</title><path class="cls-1" d="M-1344.41,3871.55a115.4,115.4,0,0,1-115.4-115.4h115.4v115.4Z" transform="translate(1459.81 -3672.5)"/><path class="cls-2" d="M-821.55,4077.32a119.13,119.13,0,0,0,84.49-34.95,99.26,99.26,0,0,0,0-140.22,83,83,0,0,0-117.19,0,69.92,69.92,0,0,0,0,98.78,59.49,59.49,0,0,0,84,0,17.75,17.75,0,0,0,0-25.11,17.75,17.75,0,0,0-25.11,0,23.78,23.78,0,0,1-16.92,7,23.78,23.78,0,0,1-16.92-7,34.38,34.38,0,0,1,0-48.57,47.43,47.43,0,0,1,67,0,63.72,63.72,0,0,1,0,90,84.09,84.09,0,0,1-118.78,0,17.75,17.75,0,0,0-25.11,0,17.75,17.75,0,0,0,0,25.11A119.13,119.13,0,0,0-821.55,4077.32Z" transform="translate(1459.81 -3672.5)"/><path class="cls-3" d="M-1006.9,3870.79a115.4,115.4,0,0,0,115.4-115.4h-115.4v115.4Z" transform="translate(1459.81 -3672.5)"/><circle class="cls-4" cx="344.11" cy="372.83" r="140.11"/><circle class="cls-4" cx="451.23" cy="372.83" r="140.11"/><path class="cls-5" d="M-962.79,4220.46a70.05,70.05,0,0,0-70.05-70.05,70.05,70.05,0,0,0-70.05,70.05h140.11" transform="translate(1459.81 -3672.5)"/><path class="cls-2" d="M-1001.17,4220.46a24.63,24.63,0,0,1,24.63-24.63,24.63,24.63,0,0,1,24.63,24.63h-49.26Z" transform="translate(1459.81 -3672.5)"/><path class="cls-2" d="M-1065.4,4220.46a24.63,24.63,0,0,1,24.63-24.63,24.63,24.63,0,0,1,24.63,24.63h-49.26Z" transform="translate(1459.81 -3672.5)"/><circle class="cls-6" cx="284.94" cy="213.05" r="213.05"/><path class="cls-2" d="M-1174.88,3672.5c-117.66,0-213,95.38-213,213s95.38,213,213,213" transform="translate(1459.81 -3672.5)"/><circle class="cls-4" cx="392.05" cy="165.28" r="79.11"/><circle class="cls-4" cx="177.82" cy="165.28" r="79.11"/><path class="cls-7" d="M-1030.29,3859.9a37.48,37.48,0,0,0-37.48-37.48,37.48,37.48,0,0,0-37.48,37.48" transform="translate(1459.81 -3672.5)"/><path class="cls-7" d="M-1244.51,3859.9a37.48,37.48,0,0,0-37.48-37.48,37.48,37.48,0,0,0-37.48,37.48" transform="translate(1459.81 -3672.5)"/><path class="cls-5" d="M-1259.87,3859.9a22.12,22.12,0,0,0-22.12-22.12,22.12,22.12,0,0,0-22.12,22.12" transform="translate(1459.81 -3672.5)"/><path class="cls-5" d="M-1045.65,3859.9a22.12,22.12,0,0,0-22.12-22.12,22.12,22.12,0,0,0-22.12,22.12" transform="translate(1459.81 -3672.5)"/><circle class="cls-8" cx="284.94" cy="244.39" r="84.07"/><circle class="cls-5" cx="319.98" cy="243.79" r="18.53"/><circle class="cls-5" cx="255.53" cy="243.79" r="18.53"/><path class="cls-5" d="M-1274.52,4220.46a70.05,70.05,0,0,1,70.05-70.05,70.05,70.05,0,0,1,70.05,70.05h-140.11Z" transform="translate(1459.81 -3672.5)"/><path class="cls-2" d="M-1229.1,4220.46a24.63,24.63,0,0,1,24.63-24.63,24.63,24.63,0,0,1,24.63,24.63h-49.26Z" transform="translate(1459.81 -3672.5)"/><path class="cls-2" d="M-1286.42,4220.46a24.63,24.63,0,0,1,24.63-24.63,24.63,24.63,0,0,1,24.63,24.63h-49.26Z" transform="translate(1459.81 -3672.5)"/></svg>