<svg xmlns="http://www.w3.org/2000/svg" xmlns:xlink="http://www.w3.org/1999/xlink" viewBox="0 0 168.86 358.92"><defs><style>.cls-1{fill:none;}.cls-2{isolation:isolate;}.cls-3{fill:url(#radial-gradient);}.cls-4{fill:#372519;}.cls-5,.cls-70{opacity:0.9;}.cls-41,.cls-5,.cls-64,.cls-70,.cls-76,.cls-9{mix-blend-mode:multiply;}.cls-6{fill:url(#radial-gradient-2);}.cls-7{fill:url(#radial-gradient-3);}.cls-11,.cls-75,.cls-77,.cls-8{stroke:#372519;stroke-linecap:round;stroke-linejoin:round;stroke-width:0.44px;}.cls-8{fill:url(#radial-gradient-4);}.cls-21,.cls-78,.cls-9{opacity:0.8;}.cls-10{fill:url(#radial-gradient-5);}.cls-11{fill:url(#radial-gradient-6);}.cls-12{opacity:0.7;}.cls-13{fill:url(#radial-gradient-7);}.cls-14{fill:url(#radial-gradient-8);}.cls-15{fill:#26171a;}.cls-16{fill:url(#radial-gradient-9);}.cls-17{fill:url(#radial-gradient-10);}.cls-18{fill:url(#radial-gradient-11);}.cls-19{fill:#fffeed;}.cls-19,.cls-41,.cls-43,.cls-60,.cls-71,.cls-82,.cls-83,.cls-84{opacity:0.5;}.cls-20{fill:url(#radial-gradient-12);}.cls-21{fill:#aea19f;}.cls-22{fill:url(#radial-gradient-13);}.cls-23{fill:url(#radial-gradient-14);}.cls-24{fill:url(#radial-gradient-15);}.cls-25{fill:#2f1c1e;}.cls-26{fill:url(#radial-gradient-16);}.cls-27{fill:url(#radial-gradient-17);}.cls-28{fill:url(#radial-gradient-18);}.cls-29{fill:url(#radial-gradient-19);}.cls-30{fill:url(#radial-gradient-20);}.cls-31{fill:url(#radial-gradient-21);}.cls-32{fill:url(#radial-gradient-22);}.cls-33{fill:url(#radial-gradient-23);}.cls-34{fill:url(#radial-gradient-24);}.cls-35{fill:url(#radial-gradient-25);}.cls-36{fill:url(#radial-gradient-26);}.cls-37{fill:url(#radial-gradient-27);}.cls-38{fill:url(#radial-gradient-28);}.cls-39{fill:url(#radial-gradient-29);}.cls-40{fill:url(#radial-gradient-30);}.cls-42{fill:url(#radial-gradient-31);}.cls-43,.cls-60,.cls-66,.cls-71,.cls-79,.cls-80,.cls-81,.cls-82,.cls-83,.cls-84{mix-blend-mode:screen;}.cls-43{fill:url(#radial-gradient-32);}.cls-44{fill:url(#radial-gradient-33);}.cls-45{fill:url(#radial-gradient-34);}.cls-46{fill:url(#radial-gradient-35);}.cls-47{fill:url(#radial-gradient-36);}.cls-48{fill:url(#radial-gradient-37);}.cls-49{fill:url(#radial-gradient-38);}.cls-50{fill:url(#radial-gradient-39);}.cls-51{fill:url(#radial-gradient-40);}.cls-52{fill:url(#radial-gradient-41);}.cls-53{fill:url(#radial-gradient-42);}.cls-54{fill:url(#radial-gradient-43);}.cls-55{fill:url(#radial-gradient-44);}.cls-56{fill:url(#radial-gradient-45);}.cls-57{fill:url(#radial-gradient-46);}.cls-58{fill:url(#radial-gradient-47);}.cls-59{fill:url(#radial-gradient-48);}.cls-60{fill:url(#radial-gradient-49);}.cls-61{fill:#47332a;}.cls-62{fill:#070000;}.cls-63{fill:url(#radial-gradient-50);}.cls-65{fill:url(#radial-gradient-51);}.cls-66,.cls-71{fill:#fff;}.cls-66{opacity:0.2;}.cls-67{fill:url(#radial-gradient-52);}.cls-68{clip-path:url(#clip-path);}.cls-69{fill:url(#radial-gradient-53);}.cls-70{fill:#171001;}.cls-72{fill:url(#radial-gradient-54);}.cls-73{clip-path:url(#clip-path-2);}.cls-74{fill:url(#radial-gradient-56);}.cls-75{fill:url(#radial-gradient-57);}.cls-76{opacity:0.6;fill:url(#radial-gradient-58);}.cls-77{fill:url(#radial-gradient-59);}.cls-78{fill:url(#radial-gradient-60);}.cls-79{opacity:0.3;fill:url(#radial-gradient-61);}.cls-80{fill:url(#radial-gradient-62);}.cls-81{fill:url(#radial-gradient-63);}.cls-82{fill:url(#radial-gradient-64);}.cls-83{fill:url(#radial-gradient-65);}.cls-84{fill:url(#radial-gradient-66);}.cls-85{fill:url(#radial-gradient-67);}.cls-86{fill:url(#radial-gradient-68);}.cls-87{fill:url(#radial-gradient-69);}.cls-88{fill:url(#radial-gradient-70);}</style><radialGradient id="radial-gradient" cx="1534.46" cy="259.89" r="43.29" gradientTransform="translate(-19.71 13.39) scale(1.02 1.03)" gradientUnits="userSpaceOnUse"><stop offset="0.28" stop-color="#d0a368"/><stop offset="0.36" stop-color="#cf9b5f"/><stop offset="0.5" stop-color="#cd8746"/><stop offset="0.63" stop-color="#cb7029"/><stop offset="0.82" stop-color="#a35e27"/><stop offset="1" stop-color="#6e4f3d"/></radialGradient><radialGradient id="radial-gradient-2" cx="1534.49" cy="259.89" r="43.29" xlink:href="#radial-gradient"/><radialGradient id="radial-gradient-3" cx="1297.64" cy="243.76" r="342.18" xlink:href="#radial-gradient"/><radialGradient id="radial-gradient-4" cx="1523.89" cy="420.42" r="59.93" xlink:href="#radial-gradient"/><radialGradient id="radial-gradient-5" cx="1380.92" cy="257.11" r="339.66" xlink:href="#radial-gradient"/><radialGradient id="radial-gradient-6" cx="1546.08" cy="426.17" r="77.24" xlink:href="#radial-gradient"/><radialGradient id="radial-gradient-7" cx="1416.6" cy="346.12" r="39.24" gradientTransform="translate(-19.71 13.39) scale(1.02 1.03)" gradientUnits="userSpaceOnUse"><stop offset="0" stop-color="#ecdfd7"/><stop offset="0.4" stop-color="#e9dcd5"/><stop offset="0.7" stop-color="#e2d3cd"/><stop offset="0.97" stop-color="#d4c3c0"/><stop offset="1" stop-color="#d2c0be"/></radialGradient><radialGradient id="radial-gradient-8" cx="1527.08" cy="435.48" r="8.84" gradientTransform="translate(-19.71 13.39) scale(1.02 1.03)" gradientUnits="userSpaceOnUse"><stop offset="0" stop-color="#60505a"/><stop offset="1" stop-color="#2f1c1e"/></radialGradient><radialGradient id="radial-gradient-9" cx="1475.6" cy="429.65" r="10.72" xlink:href="#radial-gradient-8"/><radialGradient id="radial-gradient-10" cx="1480.6" cy="358.56" r="21.85" xlink:href="#radial-gradient-7"/><radialGradient id="radial-gradient-11" cx="1399.2" cy="247.51" r="23.3" xlink:href="#radial-gradient-7"/><radialGradient id="radial-gradient-12" cx="1387.2" cy="235.62" r="14.04" xlink:href="#radial-gradient-7"/><radialGradient id="radial-gradient-13" cx="1366.41" cy="189.78" r="31.38" xlink:href="#radial-gradient"/><radialGradient id="radial-gradient-14" cx="1455.47" cy="206.14" r="31.2" xlink:href="#radial-gradient"/><radialGradient id="radial-gradient-15" cx="1392.84" cy="209.02" r="0.2" gradientTransform="translate(-19.71 13.39) scale(1.02 1.03)" gradientUnits="userSpaceOnUse"><stop offset="0.03" stop-color="#ccc7ce"/><stop offset="0.58" stop-color="#60505a"/><stop offset="1" stop-color="#2f1c1e"/></radialGradient><radialGradient id="radial-gradient-16" cx="1392.76" cy="208.66" r="0.1" xlink:href="#radial-gradient-15"/><radialGradient id="radial-gradient-17" cx="1395.78" cy="161.5" r="61.64" xlink:href="#radial-gradient-15"/><radialGradient id="radial-gradient-18" cx="1395.78" cy="160.65" r="63.38" xlink:href="#radial-gradient-15"/><radialGradient id="radial-gradient-19" cx="1395.78" cy="161.09" r="62.54" xlink:href="#radial-gradient-15"/><radialGradient id="radial-gradient-20" cx="1395.85" cy="161" r="62.45" xlink:href="#radial-gradient-15"/><radialGradient id="radial-gradient-21" cx="1396.17" cy="161.05" r="59.8" xlink:href="#radial-gradient-15"/><radialGradient id="radial-gradient-22" cx="1395.78" cy="159.2" r="65.69" xlink:href="#radial-gradient-15"/><radialGradient id="radial-gradient-23" cx="1395.78" cy="160.2" r="65.02" xlink:href="#radial-gradient-15"/><radialGradient id="radial-gradient-24" cx="1395.71" cy="159.52" r="66.27" xlink:href="#radial-gradient-15"/><radialGradient id="radial-gradient-25" cx="1395.55" cy="160.65" r="64.18" xlink:href="#radial-gradient-15"/><radialGradient id="radial-gradient-26" cx="1395.78" cy="160.88" r="63.14" xlink:href="#radial-gradient-15"/><radialGradient id="radial-gradient-27" cx="1395.78" cy="161.78" r="61.68" xlink:href="#radial-gradient-15"/><radialGradient id="radial-gradient-28" cx="1395.78" cy="162.32" r="61.02" xlink:href="#radial-gradient-15"/><radialGradient id="radial-gradient-29" cx="1392.85" cy="203.48" r="7.48" xlink:href="#radial-gradient-15"/><radialGradient id="radial-gradient-30" cx="1392.76" cy="205.93" r="3.68" xlink:href="#radial-gradient-15"/><radialGradient id="radial-gradient-31" cx="1400.97" cy="-378.16" r="754.56" xlink:href="#radial-gradient-15"/><radialGradient id="radial-gradient-32" cx="1396.01" cy="-34.5" r="427.87" xlink:href="#radial-gradient-15"/><radialGradient id="radial-gradient-33" cx="1394.13" cy="228.3" r="24.89" xlink:href="#radial-gradient"/><radialGradient id="radial-gradient-34" cx="1385.08" cy="270.99" r="7.34" gradientTransform="translate(-19.71 13.39) scale(1.02 1.03)" gradientUnits="userSpaceOnUse"><stop offset="0" stop-color="#cbacb4"/><stop offset="0.09" stop-color="#c3a3ab"/><stop offset="0.23" stop-color="#ad8c92"/><stop offset="0.42" stop-color="#8a6769"/><stop offset="0.57" stop-color="#6a4443"/><stop offset="0.65" stop-color="#613d3c"/><stop offset="0.79" stop-color="#482a28"/><stop offset="0.96" stop-color="#1f0a08"/><stop offset="1" stop-color="#150300"/></radialGradient><radialGradient id="radial-gradient-35" cx="1412.14" cy="487.64" r="10.53" xlink:href="#radial-gradient-8"/><radialGradient id="radial-gradient-36" cx="1452.62" cy="490.98" r="10.02" xlink:href="#radial-gradient-8"/><radialGradient id="radial-gradient-37" cx="1424.16" cy="160.69" r="69.95" xlink:href="#radial-gradient-15"/><radialGradient id="radial-gradient-38" cx="1424.04" cy="159.71" r="72.53" xlink:href="#radial-gradient-15"/><radialGradient id="radial-gradient-39" cx="1423.62" cy="157.22" r="75.08" xlink:href="#radial-gradient-15"/><radialGradient id="radial-gradient-40" cx="1423.58" cy="160.65" r="70.76" xlink:href="#radial-gradient-15"/><radialGradient id="radial-gradient-41" cx="1428.01" cy="155.48" r="72.22" xlink:href="#radial-gradient-15"/><radialGradient id="radial-gradient-42" cx="1423.99" cy="155.5" r="77.98" xlink:href="#radial-gradient-15"/><radialGradient id="radial-gradient-43" cx="1424.31" cy="162.77" r="64.81" xlink:href="#radial-gradient-15"/><radialGradient id="radial-gradient-44" cx="1424.04" cy="161.85" r="68.01" xlink:href="#radial-gradient-15"/><radialGradient id="radial-gradient-45" cx="1424.27" cy="164.73" r="60.12" xlink:href="#radial-gradient-15"/><radialGradient id="radial-gradient-46" cx="1424.04" cy="162.01" r="64.74" xlink:href="#radial-gradient-15"/><radialGradient id="radial-gradient-47" cx="1423.97" cy="154.98" r="78.74" xlink:href="#radial-gradient-15"/><radialGradient id="radial-gradient-48" cx="1418.64" cy="-137.56" r="630.8" xlink:href="#radial-gradient-15"/><radialGradient id="radial-gradient-49" cx="1421.24" cy="17.98" r="336.49" xlink:href="#radial-gradient-15"/><radialGradient id="radial-gradient-50" cx="1385.51" cy="266.61" fx="1378.8308999809017" fy="273.8720300516764" r="9.87" xlink:href="#radial-gradient-34"/><radialGradient id="radial-gradient-51" cx="1384.81" cy="265.82" fx="1377.5279670876962" fy="273.73804976379915" r="10.76" xlink:href="#radial-gradient-34"/><radialGradient id="radial-gradient-52" cx="1411.01" cy="231.74" r="3.45" gradientTransform="translate(-19.71 13.39) scale(1.02 1.03)" gradientUnits="userSpaceOnUse"><stop offset="0.48" stop-color="#d9d9d9"/><stop offset="1" stop-color="gray"/></radialGradient><clipPath id="clip-path" transform="translate(-1375.44 -171.31)"><path class="cls-1" d="M1410.34,258.22c3.65-2,6.75-4.59,7.19-8.94C1412.21,248,1410.6,254,1410.34,258.22Z"/></clipPath><radialGradient id="radial-gradient-53" cx="1579.18" cy="-22.18" r="2.94" gradientTransform="matrix(0.91, 0.17, -0.15, 1.02, -22.91, 4.21)" gradientUnits="userSpaceOnUse"><stop offset="0.49" stop-color="#7a5523"/><stop offset="0.86" stop-color="#2d1f17"/><stop offset="0.91" stop-color="#2a1d16"/><stop offset="0.95" stop-color="#211711"/><stop offset="0.98" stop-color="#120d09"/><stop offset="1"/></radialGradient><radialGradient id="radial-gradient-54" cx="1387.13" cy="228.93" r="2.4" xlink:href="#radial-gradient-52"/><clipPath id="clip-path-2" transform="translate(-1375.44 -171.31)"><path class="cls-1" d="M1391.39,253.2s-4.13-.54-2.75-5.87C1389.62,246.2,1392.7,248.73,1391.39,253.2Z"/></clipPath><radialGradient id="radial-gradient-56" cx="2102.13" cy="229.52" r="2.38" gradientTransform="translate(-14.09 13.39) scale(0.67 1.03)" xlink:href="#radial-gradient-53"/><radialGradient id="radial-gradient-57" cx="1529.56" cy="420.33" r="67.46" xlink:href="#radial-gradient"/><radialGradient id="radial-gradient-58" cx="1527.54" cy="420.11" r="64.72" xlink:href="#radial-gradient"/><radialGradient id="radial-gradient-59" cx="1529.79" cy="420.31" r="67.77" xlink:href="#radial-gradient"/><radialGradient id="radial-gradient-60" cx="1393" cy="197.2" r="34.25" xlink:href="#radial-gradient"/><radialGradient id="radial-gradient-61" cx="1406.73" cy="131.3" r="27.76" gradientTransform="matrix(1.02, 0.05, -0.05, 1.03, -23.55, 11.34)" xlink:href="#radial-gradient"/><radialGradient id="radial-gradient-62" cx="1379.2" cy="198.19" r="11.06" xlink:href="#radial-gradient"/><radialGradient id="radial-gradient-63" cx="1437.57" cy="203.4" r="6.93" xlink:href="#radial-gradient"/><radialGradient id="radial-gradient-64" cx="1381.82" cy="236.09" r="20.85" xlink:href="#radial-gradient"/><radialGradient id="radial-gradient-65" cx="1523.22" cy="257.63" r="60.22" xlink:href="#radial-gradient"/><radialGradient id="radial-gradient-66" cx="1325.68" cy="230.44" r="16.64" gradientTransform="translate(-51.59 13.77) scale(1.18 1.18)" xlink:href="#radial-gradient"/><radialGradient id="radial-gradient-67" cx="1412.72" cy="487.39" r="10.11" xlink:href="#radial-gradient-8"/><radialGradient id="radial-gradient-68" cx="1452.73" cy="491" r="9.98" xlink:href="#radial-gradient-8"/><radialGradient id="radial-gradient-69" cx="1475.62" cy="429.67" r="10.6" xlink:href="#radial-gradient-8"/><radialGradient id="radial-gradient-70" cx="1527.42" cy="435.49" r="8.79" xlink:href="#radial-gradient-8"/></defs><title>anim_96</title><g class="cls-2"><g id="Layer_1" data-name="Layer 1"><path class="cls-3" d="M1506,286.25a25.45,25.45,0,0,1,15.25,6.43c4.39,3.86,7.17,9,9,14.48,1,3,1.7,22.42,1.86,22.54-1.22-.86-3-11.68-3.23-11.67-3.9.1-.72,0.11-2.95-3.35s-3.86-7.75-6.38-11.37A204.5,204.5,0,0,0,1506,286.25Z" transform="translate(-1375.44 -171.31)"/><path class="cls-4" d="M1505.36,286.42c12,1.06,22.73,10.77,24.58,22.89,1,6.67-.08,14,1.48,20.55l1.27-.34c-1.74-2-2-6.06-2.51-8.55-0.1-.47-0.24-2.75-0.72-3.12s-1.46.34-1.92,0,0.07-.68-0.15-1c-1.22-1.71-2.21-4.55-3.24-6.52a72.83,72.83,0,0,0-4.53-7.89,197.72,197.72,0,0,0-13-16.31c-0.13-.15-1.15.48-1.27,0.34,4.34,5,8.63,10.14,12.47,15.57a74.34,74.34,0,0,1,5,8.63c1,1.95,2,4.82,3.24,6.52,0.16,0.22-.19.75,0,0.94,0.5,0.45,1.6-.25,2.06.1s0.54,2.26.63,2.7c0.57,2.64.75,6.87,2.6,9a13.11,13.11,0,0,0,1.27-.34c-1.56-6.52-.46-13.88-1.48-20.55-1.86-12.13-12.54-21.83-24.58-22.89C1506.22,286,1505.77,286.45,1505.36,286.42Z" transform="translate(-1375.44 -171.31)"/><g class="cls-5"><path class="cls-6" d="M1530.68,309.8a9.65,9.65,0,0,1,.32,5.57c-0.36.56-14-24.28-14.22-24.26,1.1-.07,4,1.3,4.52,1.59a25.8,25.8,0,0,0-15.3-6.45,205.85,205.85,0,0,1,13.51,17.05,106,106,0,0,1,6.09,10.55c2.29,4.24-1,4.28,3.23,4.17,0.21,0,2,10.81,3.23,11.67,0.22,0.15-1-19.79-1.56-21.64l0.18,1.76C1532.83,319.48,1530.54,309.15,1530.68,309.8Z" transform="translate(-1375.44 -171.31)"/></g><path class="cls-7" d="M1543.26,444.91c-4.45-14.07-4.22-29-4.78-43.64-0.17-4.33-.31-8.65-0.27-13,0.08-9.48-.12-8.51-5.46-14.75-21.17-24.78,7.36-79.54-34.14-90.22-17.17-4.42-30,5.74-43,15.17-4.89,3.55-10.35,8.13-16.38,9.49-10.8,2.43-10.29-4.55-11.83-13.44-1.6-9.26-1.54-17.77-1.16-27.15,0.2-5-2.21-16.65.65-21,2.75-4.13,8.94-2.81,13.36-7.29,5.05-5.12,4-12.44,7.76-18.25-9.66-.5-19.25,4.16-23.3,13.26-1.6-9.74-29.09-8.64-28.88-4.32q0.15-.69-0.1-0.52c-0.79-4.89-3.63-8.81-7.45-11.83-4.6-3.63-7-5.3-9.85-1.48-5,6.75-1.44,26,9.48,23.61-3.15,6.35-1.25,13.06-2.66,19.67-1.29,6-3.55,12-4.37,18.12s-1.09,9.62,3,14.49c4.67,5.58,10.1,7.35,16.16,1.12,3.39,11.5,1.84,24.3,1.42,36.1-0.21,6.06.29,12.29,0,18.3-0.45,9.23-4.14,18.24-3.74,27.62,0.5,11.55,8.32,20.84,10.25,32.39,2.67,16,6.74,31.39,10.54,47.09a106,106,0,0,1,2.36,30.37,45.83,45.83,0,0,1-2.35,13.69c-0.59,1.69-5.05,9.1-4.48,11.08,1.62,5.65,12.88,4.77,15.25,1.67,3-3.86,1.66-13.9,1.25-18-0.69-7-1.36-13.93-1.66-21-0.39-9.26-1.7-17.09-2.66-26.2-1.29-12.19-1.56-26.51.35-38.63,5.52,2.34,12.64.22,17.51,2.89,5.16,2.83,6.36,9.55,7.66,14.68,3.38,13.35,1.8,26.38,4.28,39.2,1.59,8.23,2.73,16,2.45,24.8a78,78,0,0,1-1.62,14.85c-0.62,2.71-4.07,8.57-3.2,10.83,1.62,4.26,6.27,3.59,9.61,2.2,6.46-2.68,3.21-2,4.76-7.27,1.71-5.85,1-8.9,0-15-4.43-25.27-5.17-52.5-4.44-78.19,0.1-3.34-.6-8.83,1.2-11.77,3.08-5,13.55-9,18.35-12.66,9.11-7,18.77-12.85,22.13-24.79,1.54,5.64,4.39,12.95,9.5,16.38,3.13,2.1,7.2,1.82,10.14,4.17,8.46,6.76,7.77,23.73,8.31,33.51a129.53,129.53,0,0,1-2,32.82c-0.73,3.77-2.81,4.17.24,6.61,1.76,1.41,6.57.79,8.31-.4,2.9-2,4.77-11.52,3.55-15.4C1541.88,440.54,1544.64,449.28,1543.26,444.91Z" transform="translate(-1375.44 -171.31)"/><path class="cls-4" d="M1543.89,444.74c-5.42-18-5.1-38-5.06-56.63,0-5.52-.17-8.61-3.78-12.82a37.56,37.56,0,0,1-7.67-12.94c-6.55-19.87.64-42.06-7.17-61.61-4-10.11-12.93-16.27-23.51-18.15s-20.52,1.89-29.27,7.36c-6.77,4.23-12.87,9.4-19.51,13.8-4.94,3.27-14.79,8.1-18,.38-2.59-6.3-2.84-14.87-3.15-21.54-0.37-7.84.2-15.61-.4-23.44-0.26-3.46-.72-7.33.24-10.73,1.15-4.08,4.51-4.8,8.16-6.08,8.79-3.07,9.18-10,12-17.74a17.14,17.14,0,0,0,1.13-2.64c0.19-1.65,1.05-1.35-1.43-1.28a27.54,27.54,0,0,0-5,.6c-0.79.17-1.6,0.38-2.38,0.61a23.34,23.34,0,0,0-15,12.41l1.27-.34c-1.77-7.69-14.64-7.87-20.7-7.39-1.78.14-9.19,0.7-9.45,3.41l1.27-.34a19.33,19.33,0,0,0-4.41-9.39c-2.07-2.37-5.92-6.29-9.24-6.6a6,6,0,0,0-5,2.49c-4.73,6.3-2.38,22.57,6.76,23.76a7.72,7.72,0,0,0,1.77,0q2-.73.26,1.44c-0.16,2.13-1.07,4.29-1.22,6.5-0.33,4.54-.12,8.91-1.16,13.39-1.76,7.62-5.58,16-4.31,24,0.92,5.79,6.94,12.67,13.27,11.7a14.09,14.09,0,0,0,7.49-4.14l-1.27.34c3.56,13.1,1.39,26.41,1.37,39.75,0,6.63.49,13.23-.5,19.82-0.94,6.33-2.84,12.53-3.16,18.95-0.63,12.54,7.33,22.44,9.91,34.26,2.94,13.44,5.5,26.9,8.79,40.27,3.33,13.55,5.33,26.63,4.32,40.63a38.07,38.07,0,0,1-3.63,14.74c-1.38,2.75-4.5,6.84-2.29,9.79,2.6,3.48,8.58,2.89,12.24,1.69,7.49-2.46,5.42-13,4.81-19.13-1.43-14.23-2.1-28.48-3.8-42.68-1.74-14.6-2.43-29.36-.26-44l-1.27.34c5.08,1.79,10.51.53,15.58,2.11s7.15,6.33,8.49,11.07c3.45,12.25,3.1,24.63,4.45,37.15,1.42,13.14,4.29,25.34,2.94,38.69a52.88,52.88,0,0,1-3.54,13.53c-1.45,3.95-.72,8,4.43,7.94,2.65,0,8.31-1.47,9.6-3.51,0.47-.75.19-1.49,0.3-2.32,0.29-2.05.91-4,1.24-6,0.92-5.75-.83-11.6-1.69-17.26-3.91-25.51-3.42-50.93-3.59-76.63,0-5.93,1.39-9.25,6.3-12.6,4.28-2.91,9.1-4.92,13.29-8,9.2-6.64,18.63-13.48,22.13-24.79l-1.27.34c1.76,6.2,4.51,14,10.71,17.07,2.9,1.45,6.28,1.47,8.93,3.48a16.13,16.13,0,0,1,4.67,6.43c2.43,5.51,2.94,11.76,3.25,17.71,0.38,7.11.76,14.29,0.59,21.41a124.73,124.73,0,0,1-1,13.49c-0.47,3.55-1.65,6.95-2.24,10.39-0.8,4.6,4.66,4.66,8,3.83,6.88-1.72,7.85-12,6-17.72,0,0-1.27.35-1.27,0.34l0.8,2.52s1.27-.35,1.27-0.34l-0.4-1.26s-1.27.35-1.27,0.34l0.4,1.26,1.27-.34-0.8-2.52-1.27.34a19.73,19.73,0,0,1-.67,12.64c-1,2.78-2.09,4.5-5.36,4.86-1.84.2-4.86-.23-5.59-2.31-0.56-1.58.8-3.55,1.19-5.08a78.69,78.69,0,0,0,1.71-11.78,157.64,157.64,0,0,0,.27-22.07c-0.43-9.68.38-22-5.92-30.07-3.57-4.6-9.29-4-13.55-7.37-4.66-3.73-6.86-10.05-8.44-15.59,0,0-1.24.24-1.27,0.34-2.93,9.47-9.86,15.59-17.56,21.36a89.43,89.43,0,0,1-9.6,6.57c-3.93,2.22-8.42,4.22-11.63,7.48s-3,7.1-2.9,11.32c0.07,5.77-.21,11.55-0.23,17.32,0,12.53.34,25.08,1.4,37.57,0.47,5.58,1.08,11.15,1.85,16.69,0.8,5.72,2.47,11.62,2.5,17.41a29.79,29.79,0,0,1-1,6.73c-0.26,1.18-.1,2.88-0.48,4-1,2.85-5.58,4.36-8.46,4-4.52-.64-4.61-4.43-3.33-7.9a52.65,52.65,0,0,0,3.54-13.53c1.2-12-.67-23.21-2.47-35-2-13.22-1.11-26.51-4.58-39.55-1.23-4.61-2.84-9.71-7.52-11.87-5.22-2.4-11.45-.69-16.88-2.6a5.65,5.65,0,0,0-1.27.34c-3.58,24.06,1,48.45,2.77,72.47,0.65,8.74,3.68,20,1.2,28.62-1.14,4-4.43,5.1-8.41,4.83-3.13-.22-7-1.64-6.76-5.35,0.23-2.95,2.75-6,3.91-8.68,2.31-5.25,2.73-11.08,3-16.74,0.51-13.08-1.64-25.22-4.74-37.86-3.21-13.06-5.64-26.22-8.56-39.33-2.35-10.56-9.44-19.75-9.94-30.76-0.29-6.45,1.41-12.73,2.59-19,1.35-7.17,1.18-14.16,1.11-21.42-0.14-13.93,2.34-27.91-1.38-41.59,0,0-1.19.26-1.27,0.34-4.46,4.21-8.87,4.51-13.36.18a14.88,14.88,0,0,1-5-12c0.3-5.78,2-11.31,3.47-16.86,1.63-6.05,1.62-11.65,2.17-17.82,0.14-1.6,1.69-7,1.37-7.19-0.55-.41-3.26-0.07-4.23-0.49-2.89-1.25-4.65-4.19-5.68-7-1.85-5.12-2.8-15.86,3.69-18.28l-1.27.34c3.64-.11,7.41,3.57,9.72,6a19.37,19.37,0,0,1,4.9,9.91c0-.06,1.26-0.24,1.27-0.34,0.38-4,11.83-2.89,14.41-2.62,4.7,0.49,11.94,1.81,13.2,7.28,0-.05,1.22-0.23,1.27-0.34A22.44,22.44,0,0,1,1445.24,221c3-.08,1.72.51,0.81,2.59a32.63,32.63,0,0,0-1.52,4.75c-0.91,3.41-1.67,7-3.9,9.8-3.78,4.83-12.57,3.83-15,9.65-2.19,5.35-.25,12.25-0.07,17.82,0.27,8.2-.47,16.28.52,24.48,0.55,4.58.55,12.83,3.79,16.54,5.06,5.81,17.16-1.71,21.28-4.63,13.61-9.66,27.83-22.9,45.92-18.76,9.74,2.23,17.77,8,21.65,17.38,7.6,18.33,1.74,39.34,6.3,58.33a35.81,35.81,0,0,0,6.15,13.61c3.57,4.64,6.26,6.8,6.35,12.9,0.28,19.69-.7,40.53,5.05,59.57C1542.63,445.1,1543.89,444.73,1543.89,444.74Z" transform="translate(-1375.44 -171.31)"/><path class="cls-8" d="M1485.76,402.79c0.33,9.77.9,19.58,0.68,29.36-0.12,5-.44,8.92-2.36,13.64s-7,9.73.65,11.19c13.66,2.59,8.17-29.83,8.25-36.49a136.28,136.28,0,0,1,1.1-19c1.2-7.84.12-7.4-3.1-15.21l-9.81,7.18c2.23,2.51,4.48,5.88,4.6,9.36C1485.91,407.31,1485.61,398.26,1485.76,402.79Z" transform="translate(-1375.44 -171.31)"/><path class="cls-1" d="M1534.67,377.41c-2-.73-12.06-8.39-6.54-6-13.22-17.93-3.38-39.22-7.44-59.23-4.71-23.23-27.42-35.81-48.63-23.83-8.81,5-14.12,14.31-22.76,19.29-7.55,4.35-12.3-.64-12.36,7.45,0,3.66,10.31,53,1.9,52.21,1,0.09-5.06-21.59-5.27-24.25-0.81-10.2-1.22-19.33-4.45-29.65-1.89-6-4.33-12-5.4-18.24-0.76-4.46,1.45-14.31-1.08-17.8-5.29-7.29-9.84,4.08-13,10.3-4.46,8.73-3.81,16.23-4.26,26-0.53,11.4-2.93,23.34-1.22,34.72,0.59,3.91,11.38,27.45,11.2,27.59-5.91,4.55-13.37-15.18-13.44-15.16-4.48,1.45-1.11,18.4-.27,21.13,3,9.79,7.9,12.51,15.51,16.77,4,2.22,12.45,11.63,17.69,7.26,3.73-3.11-5.16-22.77,3.24-22.77,0.22,0,.62,10.23.77,11,1.79,8.53,8.53,13.16,12.58,20.38,1.44,2.56,7.71,34.15,7.62,34.17,4-.79,3-43.18,3.3-46.56,0.72-8.89,1.95-17.92,1.08-26.85-0.55-5.67-6.76-17.71-4.72-22.76,0.44-1.09,8.4,17,8.9,19,1.61,6.66.33,12,8.19,11.27,6.83-.66,14.84-8.07,18.75-13.14a35.89,35.89,0,0,0,6.3-13.11c0.79-3,0-9.91,2.3-12.27-0.41.42,3.17,14.23,3.62,16,1.58,6.2,3.59,14.77,9.22,18.56,6.63,4.46,11.91,1.4,15.43,10.14,1.81,4.49-.48,16.93,3.32,20.11,0.33,0.27,1.43-14.45,1.49-15.29,0.26-3.71,3.72-14.48-1.56-16.41h0Z" transform="translate(-1375.44 -171.31)"/><path class="cls-1" d="M1408.51,278.47c1.91-2.59,18.23-16,13.06-21.08-1.65-1.64-14.7,10.79-15.55,12.65-1.23,2.7-2.71,15.46,2.49,8.43h0Z" transform="translate(-1375.44 -171.31)"/><path class="cls-1" d="M1397.45,255c-1.44,4.93-14,24.48-3.53,21,5-1.65,11.12-23,5.73-23.8A3,3,0,0,0,1397.45,255Z" transform="translate(-1375.44 -171.31)"/><g class="cls-9"><path class="cls-10" d="M1543.26,444.91c-1.38-4.37-3.07-8.27-3.53-17.32s-1.84-35.26-1.53-39.31,1.69-9.67-1.23-11.7-6.9-3.28-10.58-14.82-3.07-18.57-2.76-27.15,1.69-22.78-6.29-37-24.07-18.41-39.56-13.26-35.11,30.27-48,22.93c-2.91-16.85-5.21-22.62-3.53-39.94,0.46-8.58-.46-23.09,1.84-23.71a10.61,10.61,0,0,0,5.95-.65c-1.9-.64-1.64-2.75,1-4,4.75-2.34,7.82-1.87,7.05-6.55s0-6.55,1.53-10.3c-7.67.78-14.57,9.36-14.41,7,0.07-1,1.72-2.8,3.52-4.42a21.12,21.12,0,0,0-8,9.41,3.53,3.53,0,0,0-1.58-2.55c-3.17-4.47-6.34-4.47-6.34-4.47-2.76-.62-9.1.21-9.1,0.21s-0.51-1.14-3.07-1.14a28.33,28.33,0,0,0-8.8,3.07c0,0.19,0,.38,0,0.57,0-.18-0.05-0.36-0.08-0.54h0V229a16.71,16.71,0,0,0-3-7c0.82,1.89,1.75,4.76.36,5.87-2.15,1.72,0-2-6.44-8.27s-6.29-4.53-6.29-4.53-5.06,11.86.92,19.35c2.11,1.81,4.22,4.36,2.65,5.26a9.64,9.64,0,0,0,3.94-.12,21.17,21.17,0,0,0-2,12.48c0.92,5.77-.21,5.67-2.2,13.32-0.18.71-.42,2.12-0.6,2.76,0.44-1.13,1.08-7.66,3.11-8.69,2.25-1.14,2.66,2.29,1.43,8.74s-4.4,7.7-5.52,8.84-1.33,7.16-1.12,1.54l-0.05,0c-0.36,2.39-2.14,3.16-.14,8.11,0,0,.19,2.77,1.83,3,1.84,2.5,2.76,6.55,7.77,6.66s9.71-3.64,9.71-3.64,1.64,4.89,1.84,16.12-1.63,34.74-.41,39.31c-1,8.95-5.11,21.22-3.47,31.41s7.77,13.73,8.38,18.3c0.33,2.46,1.78,12.06,4,23.61-0.21-3.92,0-10.48,3.63-11.13,5.21-.94,8.89,15.29,9.81,33.7,0.9,17.95,0,24.62-3.7,19.45A129.72,129.72,0,0,1,1421,480c0.09-.33.18-0.68,0.25-1.09,1.53-8.43,3.68-8.73,4.91-.94s-2.45,12.8,1.53,15.29,1.53,6.55-.92,6.24,0,5.3-2.15,9.36c-1.57,3-7.39,2.93-10.17-.47-0.14.42-.26,0.83-0.36,1.24,1.91,2.77,6.35,6.51,15.21,2.22,0-.38.07-0.75,0.08-1.11,0.16-5,.16-8.27,1.84-10.3s1.38-3-.15-5.77-2-19-2.45-30.58c2.15-5.77-2.15-11.08-2.3-16.54s-1.07-31.36.31-40.1c5.52,2.34,16.41,2,16.41,2a23,23,0,0,1,6,6.39c2,3.59,8.43,31.83,6.9,37.6-0.21.81-.38,1.58-0.51,2.32,1.5-2,3.34-3.18,4.91-.19,3.27,6.24,1.64,17.68-3.48,10l0,0.1a16.6,16.6,0,0,0,1,1.51c0.3,3.43.59,7.67,0.74,12.21l0.38-.3s-0.61-6.45,1.23-6.24,1.43,10.19,4.09,18.93,2.45,10.4.41,12.06,0.2,7.7-1.23,10.4c-1.2,2.28-5.89,3.52-9.29-.87-0.12.44-.25,0.88-0.36,1.3a5.28,5.28,0,0,0,4,3.3c3.31,0.66,8.09-2.08,10.63-3.77,0-.18,0-0.36-0.05-0.55-0.61-5.15,0-6.55.77-8.42s0.77-2-.61-8.42-3.83-24.34-3.37-28.55,0.46-7.33-.46-10.3c-0.77-8.42-2.15-49.77.15-53.35,4.91-4.53,10.43-5.46,16.41-11.23l9.81-7.18s10.89-7,14.26-19c3.07,11.23,8.74,17.63,14.11,18.41s9.66,3.43,12,17,2.91,37,1.53,46a14.46,14.46,0,0,1-.72,3.14c0.87-1.17,1.6-3.08,1.95-6.16,1.23-10.82-.41-33.49,1-34.32s2.25,10.19,3.68,21.84,4.7,13.73,2.86,17.06,0,8.32-6.13,9.15c-3,.41-4.81-0.45-5.84-1.42-0.14.49-.26,1-0.37,1.58,2.33,1.67,6.64,3.4,12.46-.08,0-.11,0-0.23,0-0.34C1541.42,453.33,1544.64,449.28,1543.26,444.91ZM1400.66,263.16c-2.15,9.83-4.29,12.79-7.51,13.11s-6.75,0-3.37-3.9c4.91-7.33,7.67-17.32,7.67-17.32C1399.44,249,1402.81,253.33,1400.66,263.16Zm3.34,12.46a8.48,8.48,0,0,1,.13-0.86,23.17,23.17,0,0,1,2.65-6.21,14.2,14.2,0,0,1,4.61-5.44c4.6-2.81,8-2.91,9.61-5.41s1.13,8.32-5.72,13.83a35.64,35.64,0,0,0-6.78,6.94c-1,1.41-2.61,3.65-3.88,1.13A8,8,0,0,1,1404,275.61ZM1533.14,400c-0.61-11.23-3.07-19-12.27-19.34s-12.88-15.29-14.72-22.78-2.45-23.4-4.6-5.3-16.86,27.46-25.76,30.27-5.21-4.68-10.43-19-9.81-16.54-4.29,0,0.61,32.76.31,55.23-1.54,36.2-3.68,26.52,0.31-26.21-11.35-37.75-6.75-24.65-8.28-24.65-6.44,6.55-2.45,16.54-9,7.8-14.72,1.56-5.83,1.87-15.33-10.92c-9.5-13.42-4.29-35.57-2.76-28.08,3.68,15.6,17.48,16.22,12,10.61s-8.28-14.66-10.43-23.4,1.53-31.2,1.23-44.3,1.54-11.23,4.6-18.72a33.51,33.51,0,0,1,8.89-12.17c3.68-1.87,4,2.5,4,14s6.13,21.84,9.81,38.69-0.92,14.35,1.23,19,4.91,10.61,4,18.1,6.13,0.63,4.29-9.36-1.23-9-1.84-20.9c-0.61-17.79-8.59-24.65-1.23-23.4,12,0,16.56-9.67,27.29-18.41s29.44-13.62,42.73-.94,13.08,29.13,11.86,43.06c-1.7,19.31.2,28.08,7,37.24-6.34-2.71,1.43,4.16,6.54,6s1.64,8.11,1.43,18.51C1536.31,414.64,1533.75,411.21,1533.14,400Z" transform="translate(-1375.44 -171.31)"/></g><path class="cls-1" d="M1408.51,278.47c1.91-2.59,18.23-16,13.06-21.08-1.65-1.64-14.7,10.79-15.55,12.65-1.23,2.7-2.71,15.46,2.49,8.43h0Z" transform="translate(-1375.44 -171.31)"/><path class="cls-1" d="M1397.45,255c-1.44,4.93-14,24.48-3.53,21,5-1.65,11.12-23,5.73-23.8A3,3,0,0,0,1397.45,255Z" transform="translate(-1375.44 -171.31)"/><path class="cls-1" d="M1534.67,377.41c-2-.73-12.06-8.39-6.54-6-13.22-17.93-3.38-39.22-7.44-59.23-4.71-23.23-27.42-35.81-48.63-23.83-8.81,5-14.12,14.31-22.76,19.29-7.55,4.35-12.3-.64-12.36,7.45,0,3.66,10.31,53,1.9,52.21,1,0.09-5.06-21.59-5.27-24.25-0.81-10.2-1.22-19.33-4.45-29.65-1.89-6-4.33-12-5.4-18.24-0.76-4.46,1.45-14.31-1.08-17.8-5.29-7.29-9.84,4.08-13,10.3-4.46,8.73-3.81,16.23-4.26,26-0.53,11.4-2.93,23.34-1.22,34.72,0.59,3.91,11.38,27.45,11.2,27.59-5.91,4.55-13.37-15.18-13.44-15.16-4.48,1.45-1.11,18.4-.27,21.13,3,9.79,7.9,12.51,15.51,16.77,4,2.22,12.45,11.63,17.69,7.26,3.73-3.11-5.16-22.77,3.24-22.77,0.22,0,.62,10.23.77,11,1.79,8.53,8.53,13.16,12.58,20.38,1.44,2.56,7.71,34.15,7.62,34.17,4-.79,3-43.18,3.3-46.56,0.72-8.89,1.95-17.92,1.08-26.85-0.55-5.67-6.76-17.71-4.72-22.76,0.44-1.09,8.4,17,8.9,19,1.61,6.66.33,12,8.19,11.27,6.83-.66,14.84-8.07,18.75-13.14a35.89,35.89,0,0,0,6.3-13.11c0.79-3,0-9.91,2.3-12.27-0.41.42,3.17,14.23,3.62,16,1.58,6.2,3.59,14.77,9.22,18.56,6.63,4.46,11.91,1.4,15.43,10.14,1.81,4.49-.48,16.93,3.32,20.11,0.33,0.27,1.43-14.45,1.49-15.29,0.26-3.71,3.72-14.48-1.56-16.41h0Z" transform="translate(-1375.44 -171.31)"/><path class="cls-1" d="M1534.67,377.41c-2-.73-12.06-8.39-6.54-6-13.22-17.93-3.38-39.22-7.44-59.23-4.71-23.23-27.42-35.81-48.63-23.83-8.81,5-14.12,14.31-22.76,19.29-7.55,4.35-12.3-.64-12.36,7.45,0,3.66,10.31,53,1.9,52.21,1,0.09-5.06-21.59-5.27-24.25-0.81-10.2-1.22-19.33-4.45-29.65-1.89-6-4.33-12-5.4-18.24-0.76-4.46,1.45-14.31-1.08-17.8-5.29-7.29-9.84,4.08-13,10.3-4.46,8.73-3.81,16.23-4.26,26-0.53,11.4-2.93,23.34-1.22,34.72,0.59,3.91,11.38,27.45,11.2,27.59-5.91,4.55-13.37-15.18-13.44-15.16-4.48,1.45-1.11,18.4-.27,21.13,3,9.79,7.9,12.51,15.51,16.77,4,2.22,12.45,11.63,17.69,7.26,3.73-3.11-5.16-22.77,3.24-22.77,0.22,0,.62,10.23.77,11,1.79,8.53,8.53,13.16,12.58,20.38,1.44,2.56,7.71,34.15,7.62,34.17,4-.79,3-43.18,3.3-46.56,0.72-8.89,1.95-17.92,1.08-26.85-0.55-5.67-6.76-17.71-4.72-22.76,0.44-1.09,8.4,17,8.9,19,1.61,6.66.33,12,8.19,11.27,6.83-.66,14.84-8.07,18.75-13.14a35.89,35.89,0,0,0,6.3-13.11c0.79-3,0-9.91,2.3-12.27-0.41.42,3.17,14.23,3.62,16,1.58,6.2,3.59,14.77,9.22,18.56,6.63,4.46,11.91,1.4,15.43,10.14,1.81,4.49-.48,16.93,3.32,20.11,0.33,0.27,1.43-14.45,1.49-15.29,0.26-3.71,3.72-14.48-1.56-16.41h0Z" transform="translate(-1375.44 -171.31)"/><path class="cls-1" d="M1408.51,278.47c1.91-2.59,18.23-16,13.06-21.08-1.65-1.64-14.7,10.79-15.55,12.65-1.23,2.7-2.71,15.46,2.49,8.43h0Z" transform="translate(-1375.44 -171.31)"/><path class="cls-1" d="M1397.45,255c-1.44,4.93-14,24.48-3.53,21,5-1.65,11.12-23,5.73-23.8A3,3,0,0,0,1397.45,255Z" transform="translate(-1375.44 -171.31)"/><path class="cls-1" d="M1397.91,253.64a85.09,85.09,0,0,1-4.37,11.8c-1.58,3.36-9.14,12.5-.38,10.82,6.26-1.2,12.41-22.31,6.83-25Q1398.08,251.42,1397.91,253.64Z" transform="translate(-1375.44 -171.31)"/><path class="cls-1" d="M1534.67,377.41c-2-.73-12.06-8.39-6.54-6-13.22-17.93-3.38-39.22-7.44-59.23-4.71-23.23-27.42-35.81-48.63-23.83-8.81,5-14.12,14.31-22.76,19.29-7.55,4.35-12.3-.64-12.36,7.45,0,3.66,10.31,53,1.9,52.21,1,0.09-5.06-21.59-5.27-24.25-0.81-10.2-1.22-19.33-4.45-29.65-1.89-6-4.33-12-5.4-18.24-0.76-4.46,1.45-14.31-1.08-17.8-5.29-7.29-9.84,4.08-13,10.3-4.46,8.73-3.81,16.23-4.26,26-0.53,11.4-2.93,23.34-1.22,34.72,0.59,3.91,11.38,27.45,11.2,27.59-5.91,4.55-13.37-15.18-13.44-15.16-4.48,1.45-1.11,18.4-.27,21.13,3,9.79,7.9,12.51,15.51,16.77,4,2.22,12.45,11.63,17.69,7.26,3.73-3.11-5.16-22.77,3.24-22.77,0.22,0,.62,10.23.77,11,1.79,8.53,8.53,13.16,12.58,20.38,1.44,2.56,7.71,34.15,7.62,34.17,4-.79,3-43.18,3.3-46.56,0.72-8.89,1.95-17.92,1.08-26.85-0.55-5.67-6.76-17.71-4.72-22.76,0.44-1.09,8.4,17,8.9,19,1.61,6.66.33,12,8.19,11.27,6.83-.66,14.84-8.07,18.75-13.14a35.89,35.89,0,0,0,6.3-13.11c0.79-3,0-9.91,2.3-12.27-0.41.42,3.17,14.23,3.62,16,1.58,6.2,3.59,14.77,9.22,18.56,6.63,4.46,11.91,1.4,15.43,10.14,1.81,4.49-.48,16.93,3.32,20.11,0.33,0.27,1.43-14.45,1.49-15.29,0.26-3.71,3.72-14.48-1.56-16.41h0Z" transform="translate(-1375.44 -171.31)"/><path class="cls-1" d="M1534.67,377.41c-2-.73-12.06-8.39-6.54-6-13.22-17.93-3.38-39.22-7.44-59.23-4.71-23.23-27.42-35.81-48.63-23.83-8.81,5-14.12,14.31-22.76,19.29-7.55,4.35-12.3-.64-12.36,7.45,0,3.66,10.31,53,1.9,52.21,1,0.09-5.06-21.59-5.27-24.25-0.81-10.2-1.22-19.33-4.45-29.65-1.89-6-4.33-12-5.4-18.24-0.76-4.46,1.45-14.31-1.08-17.8-5.29-7.29-9.84,4.08-13,10.3-4.46,8.73-3.81,16.23-4.26,26-0.53,11.4-2.93,23.34-1.22,34.72,0.59,3.91,11.38,27.45,11.2,27.59-5.91,4.55-13.37-15.18-13.44-15.16-4.48,1.45-1.11,18.4-.27,21.13,3,9.79,7.9,12.51,15.51,16.77,4,2.22,12.45,11.63,17.69,7.26,3.73-3.11-5.16-22.77,3.24-22.77,0.22,0,.62,10.23.77,11,1.79,8.53,8.53,13.16,12.58,20.38,1.44,2.56,7.71,34.15,7.62,34.17,4-.79,3-43.18,3.3-46.56,0.72-8.89,1.95-17.92,1.08-26.85-0.55-5.67-6.76-17.71-4.72-22.76,0.44-1.09,8.4,17,8.9,19,1.61,6.66.33,12,8.19,11.27,6.83-.66,14.84-8.07,18.75-13.14a35.89,35.89,0,0,0,6.3-13.11c0.79-3,0-9.91,2.3-12.27-0.41.42,3.17,14.23,3.62,16,1.58,6.2,3.59,14.77,9.22,18.56,6.63,4.46,11.91,1.4,15.43,10.14,1.81,4.49-.48,16.93,3.32,20.11,0.33,0.27,1.43-14.45,1.49-15.29,0.26-3.71,3.72-14.48-1.56-16.41h0Z" transform="translate(-1375.44 -171.31)"/><path class="cls-1" d="M1397.91,253.64a85.09,85.09,0,0,1-4.37,11.8c-1.58,3.36-9.14,12.5-.38,10.82,6.26-1.2,12.41-22.31,6.83-25Q1398.08,251.42,1397.91,253.64Z" transform="translate(-1375.44 -171.31)"/><path class="cls-1" d="M1534.67,377.41c-2-.73-12.06-8.39-6.54-6-13.22-17.93-3.38-39.22-7.44-59.23-4.71-23.23-27.42-35.81-48.63-23.83-8.81,5-14.12,14.31-22.76,19.29-7.55,4.35-12.3-.64-12.36,7.45,0,3.66,10.31,53,1.9,52.21,1,0.09-5.06-21.59-5.27-24.25-0.81-10.2-1.22-19.33-4.45-29.65-1.89-6-4.33-12-5.4-18.24-0.76-4.46,1.45-14.31-1.08-17.8-5.29-7.29-9.84,4.08-13,10.3-4.46,8.73-3.81,16.23-4.26,26-0.53,11.4-2.93,23.34-1.22,34.72,0.59,3.91,11.38,27.45,11.2,27.59-5.91,4.55-13.37-15.18-13.44-15.16-4.48,1.45-1.11,18.4-.27,21.13,3,9.79,7.9,12.51,15.51,16.77,4,2.22,12.45,11.63,17.69,7.26,3.73-3.11-5.16-22.77,3.24-22.77,0.22,0,.62,10.23.77,11,1.79,8.53,8.53,13.16,12.58,20.38,1.44,2.56,7.71,34.15,7.62,34.17,4-.79,3-43.18,3.3-46.56,0.72-8.89,1.95-17.92,1.08-26.85-0.55-5.67-6.76-17.71-4.72-22.76,0.44-1.09,8.4,17,8.9,19,1.61,6.66.33,12,8.19,11.27,6.83-.66,14.84-8.07,18.75-13.14a35.89,35.89,0,0,0,6.3-13.11c0.79-3,0-9.91,2.3-12.27-0.41.42,3.17,14.23,3.62,16,1.58,6.2,3.59,14.77,9.22,18.56,6.63,4.46,11.91,1.4,15.43,10.14,1.81,4.49-.48,16.93,3.32,20.11,0.33,0.27,1.43-14.45,1.49-15.29,0.26-3.71,3.72-14.48-1.56-16.41h0Z" transform="translate(-1375.44 -171.31)"/><path class="cls-1" d="M1534.67,377.41c-2-.73-12.06-8.39-6.54-6-13.22-17.93-3.38-39.22-7.44-59.23-4.71-23.23-27.42-35.81-48.63-23.83-8.81,5-14.12,14.31-22.76,19.29-7.55,4.35-12.3-.64-12.36,7.45,0,3.66,10.31,53,1.9,52.21,1,0.09-5.06-21.59-5.27-24.25-0.81-10.2-1.22-19.33-4.45-29.65-1.89-6-4.33-12-5.4-18.24-0.76-4.46,1.45-14.31-1.08-17.8-5.29-7.29-9.84,4.08-13,10.3-4.46,8.73-3.81,16.23-4.26,26-0.53,11.4-2.93,23.34-1.22,34.72,0.59,3.91,11.38,27.45,11.2,27.59-5.91,4.55-13.37-15.18-13.44-15.16-4.48,1.45-1.11,18.4-.27,21.13,3,9.79,7.9,12.51,15.51,16.77,4,2.22,12.45,11.63,17.69,7.26,3.73-3.11-5.16-22.77,3.24-22.77,0.22,0,.62,10.23.77,11,1.79,8.53,8.53,13.16,12.58,20.38,1.44,2.56,7.71,34.15,7.62,34.17,4-.79,3-43.18,3.3-46.56,0.72-8.89,1.95-17.92,1.08-26.85-0.55-5.67-6.76-17.71-4.72-22.76,0.44-1.09,8.4,17,8.9,19,1.61,6.66.33,12,8.19,11.27,6.83-.66,14.84-8.07,18.75-13.14a35.89,35.89,0,0,0,6.3-13.11c0.79-3,0-9.91,2.3-12.27-0.41.42,3.17,14.23,3.62,16,1.58,6.2,3.59,14.77,9.22,18.56,6.63,4.46,11.91,1.4,15.43,10.14,1.81,4.49-.48,16.93,3.32,20.11,0.33,0.27,1.43-14.45,1.49-15.29,0.26-3.71,3.72-14.48-1.56-16.41h0Z" transform="translate(-1375.44 -171.31)"/><path class="cls-11" d="M1485.76,402.79c0.33,9.77.9,19.58,0.68,29.36-0.12,5-.44,8.92-2.36,13.64s-7,9.73.65,11.19c13.66,2.59,8.17-29.83,8.25-36.49a136.28,136.28,0,0,1,1.1-19c1.2-7.84.12-7.4-3.1-15.21l-9.81,7.18c2.23,2.51,4.48,5.88,4.6,9.36C1485.91,407.31,1485.61,398.26,1485.76,402.79Z" transform="translate(-1375.44 -171.31)"/><g class="cls-12"><path class="cls-13" d="M1416.3,326.24c-4.57-12.4-9.75-8.6-12.63,1.93-3.27,12-3.53,25.23-5.2,37.49-1.77,13,1.49,24.4,10.51,34,3.41,3.62,9.11,4.95,12.18,8.56,3.73,4.41,2.86,10.67,4.67,16,0-5.52-.11-11.22.75-16.7,4.66,2,10.38,2.06,15.38,2-8.24-15-4.4-31.57-8.31-47.34-3.17-12.78-12.78-23.53-17.35-35.93h0Z" transform="translate(-1375.44 -171.31)"/></g><path class="cls-4" d="M1429.48,307.39c3.63,12.75,8.47,24.49,9,37.91C1438.27,334.29,1435.88,316.74,1429.48,307.39Z" transform="translate(-1375.44 -171.31)"/><path class="cls-4" d="M1437.15,345.3c3.15,5,3.26,11.71,3.22,17.47C1440.37,356.33,1440.64,351,1437.15,345.3Z" transform="translate(-1375.44 -171.31)"/><path class="cls-4" d="M1401.27,348.16c1.61,9.61,4.88,18.42,11.82,24.58C1406.91,367.22,1402.11,355.17,1401.27,348.16Z" transform="translate(-1375.44 -171.31)"/><path class="cls-4" d="M1461.27,451.86c0.59,1,3.4,5.52,3.64,6.07C1464.1,455.88,1461.94,453,1461.27,451.86Z" transform="translate(-1375.44 -171.31)"/><path class="cls-4" d="M1428.25,463.82c-0.65,1.41-1.79,3.1-3.47,3.33C1427.51,466.77,1428.2,463.93,1428.25,463.82Z" transform="translate(-1375.44 -171.31)"/><path class="cls-14" d="M1529.28,459.53c-1,5.66-1.12,11.53,5.61,12.07,8.48,0.68,7.23-6.39,6.85-12.15-3.93,2.35-8.63,2.82-12.46.08C1529.14,460.29,1531.61,461.2,1529.28,459.53Z" transform="translate(-1375.44 -171.31)"/><path class="cls-15" d="M1528.65,459.7c-0.54,3.11-1.25,7.28.94,10,1.9,2.33,5.5,2.49,8.2,1.84,5.9-1.41,4.92-7.38,4.59-12.22,0,0-1.16.28-1.27,0.34a10.18,10.18,0,0,1-11.19-.26,10.32,10.32,0,0,0-1.27.34c0.21,1.3,1.44.82,2.25,0.58h0a3.45,3.45,0,0,0-1-.91c-0.22-.17-1.06.5-1.27,0.34s1.2,0.85.94,0.93l1.25-.33a1.24,1.24,0,0,1-.91-0.94l-1.27.34c4.31,2.84,9.46,2,13.73-.42l-1.27.34c0.26,3.83,1.54,11.57-4.19,11.85-2.73.13-5.66-.78-6.84-3.44s-0.64-5.92-.17-8.68C1529.89,459.53,1528.68,459.51,1528.65,459.7Z" transform="translate(-1375.44 -171.31)"/><path class="cls-16" d="M1479.91,453.78c-3,5.94-4.16,15.12,5.63,12.24,6.78-2,4.68-5.73,6.25-11.42-3.73,2.27-9.41,3.94-11.88-.82C1479.6,454.4,1481.15,456.17,1479.91,453.78Z" transform="translate(-1375.44 -171.31)"/><path class="cls-15" d="M1479.28,453.95c-2.38,4.83-4.12,14.23,4.33,12.57,2.1-.41,4.61-1,6.19-2.49,2.44-2.28,1.86-6.6,2.63-9.59a7.87,7.87,0,0,1-1.27.34c-3.64,2.14-8.17,3-10.61-1.16a8.66,8.66,0,0,0-1.27.34,1.15,1.15,0,0,0,.48,1.2,9.56,9.56,0,0,0,1.27-.34,3.92,3.92,0,0,0-.48-1.2c0-.08-1.24.41-1.27,0.34a3.92,3.92,0,0,1,.48,1.2l1.27-.34a1.17,1.17,0,0,1-.48-1.2l-1.27.34c2.86,4.92,9.21,2.79,13.15.48l-1.27.34c-0.66,2.58-.37,5.64-1.52,8.06-1.32,2.8-5.46,4.22-8.33,3.36-5.16-1.55-2.32-9.41-.76-12.58C1480.42,453.86,1479.41,453.68,1479.28,453.95Z" transform="translate(-1375.44 -171.31)"/><path class="cls-4" d="M1481.52,466.45a31.07,31.07,0,0,1,.92-8.94A51.46,51.46,0,0,0,1481.52,466.45Z" transform="translate(-1375.44 -171.31)"/><path class="cls-4" d="M1532.62,462.36c-0.93,3.94-.59,6.78,1.45,9.29C1532.4,469.61,1532.42,463.18,1532.62,462.36Z" transform="translate(-1375.44 -171.31)"/><path class="cls-4" d="M1457.39,467.3q1.14,3.74,3.54,2.79Q1459.79,466.35,1457.39,467.3Z" transform="translate(-1375.44 -171.31)"/><path class="cls-4" d="M1460,356.38c7.58,18.35,3.92,32.43,3.68,51.33,0.15-8,3.26-18.2,3.2-27S1463.17,363.39,1460,356.38Z" transform="translate(-1375.44 -171.31)"/><path class="cls-4" d="M1436.23,389.45c-0.59,8,2.57,14.55,7.07,20C1439,404.35,1435.86,394.84,1436.23,389.45Z" transform="translate(-1375.44 -171.31)"/><path class="cls-4" d="M1529,372.92c2.38,2,4.42,2.34,7.07,2.95C1534.74,375.56,1530,373.76,1529,372.92Z" transform="translate(-1375.44 -171.31)"/><path class="cls-4" d="M1503.23,356.85c0.1,3.77,1.51,7.83,2.32,10.28A62.12,62.12,0,0,1,1503.23,356.85Z" transform="translate(-1375.44 -171.31)"/><path class="cls-4" d="M1404.64,394.29a22.2,22.2,0,0,0,7.53,7.79A34.34,34.34,0,0,1,1404.64,394.29Z" transform="translate(-1375.44 -171.31)"/><path class="cls-4" d="M1418,401.31c2.56,3.16,5.54,4.61,8.91,6.07C1424.19,406.21,1419.53,403.17,1418,401.31Z" transform="translate(-1375.44 -171.31)"/><g class="cls-12"><path class="cls-17" d="M1499.41,368.78c-4.08,10.1-14.36,14.67-23.41,19.3-10.17,5.19-12.39,7.84-12,19.81,0.84-7.37,20.59-16.56,27.13-21.77,4.11-3.27,21.22-20.53,12.46-25.61-1.08-.62-4.3,8.5-4.22,8.27C1492.35,386.25,1504.62,355.36,1499.41,368.78Z" transform="translate(-1375.44 -171.31)"/></g><g class="cls-12"><path class="cls-18" d="M1412.83,268.2c7.52-3.82,11.25-7.45,10-16.2-1-7.3-5.69-12.46-12.85-7.26-7,5.08-4.6,15.46-7.32,22.69-0.44,1.17-3.12,9.18-4.28,10-2.81,2-3.35-.29-6.56-0.45-7.41-.39-8.44-0.81-9.81,6.06-0.88,4.43-1.36,8.51,4.32,11.64,7.15,3.93,14.22-1.32,18.08-7.49s1.38-15.45,8.37-19h0Z" transform="translate(-1375.44 -171.31)"/></g><path class="cls-19" d="M1397.75,279.38c2.08,2.75-.74,9.65-0.48,9.95,1.68,1.9,5.42-4.83,5.39-5.89C1402.55,280.19,1397.5,278.12,1397.75,279.38Z" transform="translate(-1375.44 -171.31)"/><g class="cls-12"><path class="cls-20" d="M1387.68,265.5c-0.22,2.13-3.77,9.92-3.54,11.15,0,0.18,6.64-8.53,6.81-8.86a47.17,47.17,0,0,0,3.78-11c1.07-4.5,3.06-13.85-1.62-18-9.47-8.42-7.15,24.91-8.31,24.69,1.81,0.34,3.31-2.07,2.88,2h0Z" transform="translate(-1375.44 -171.31)"/></g><path class="cls-1" d="M1387.64,239.65l-1,3.21c-0.09.32,1.55-3.31,1-3.21C1387.17,240.67,1387.74,239.63,1387.64,239.65Z" transform="translate(-1375.44 -171.31)"/><path class="cls-21" d="M1383.19,279.54c2,5.91.31,15.06,11.53,9.49C1409.35,281.76,1382.66,277.93,1383.19,279.54Z" transform="translate(-1375.44 -171.31)"/><path class="cls-22" d="M1381.55,216.82s11.45,12.27,9.3,17.68C1388.5,238.56,1375.21,233.15,1381.55,216.82Z" transform="translate(-1375.44 -171.31)"/><path class="cls-23" d="M1443.08,222.65c-4.17,1.24-17.76,8.11-15.5,14,1.34,3.51,4.22,2.19,7.08,1.23C1444.1,234.77,1439,229.27,1443.08,222.65Z" transform="translate(-1375.44 -171.31)"/><path class="cls-24" d="M1395.86,229.82c0-1-.06-0.53,0,0C1395.85,229.63,1395.84,229.64,1395.86,229.82Z" transform="translate(-1375.44 -171.31)"/><path class="cls-25" d="M1396.5,229.65l0-.55c0,0.09-1.27.22-1.27,0.34a2.3,2.3,0,0,0,0,.55c0-.07,1.28-0.25,1.27-0.34a2.3,2.3,0,0,1,0-.55l-1.27.34,0,0.55C1395.22,229.92,1396.5,229.75,1396.5,229.65Z" transform="translate(-1375.44 -171.31)"/><path class="cls-26" d="M1395.76,229.3h0Z" transform="translate(-1375.44 -171.31)"/><path class="cls-25" d="M1396.39,229.13v-0.25c0,0.1-1.27.22-1.27,0.34v0.25c0-.1,1.27-0.22,1.27-0.34v-0.25c0,0.1-1.27.22-1.27,0.34v0.25C1395.12,229.37,1396.4,229.25,1396.39,229.13Z" transform="translate(-1375.44 -171.31)"/><path class="cls-27" d="M1404.45,198.41l2.58,0.32c-0.93-4.77-5-5.78-5.13.29q0.83-1.56,2.55-.61h0Z" transform="translate(-1375.44 -171.31)"/><path class="cls-25" d="M1403.81,198.58l2.58,0.32c0.12,0,1.27-.35,1.27-0.34-0.34-1.61-1.37-4.29-3.47-3.85a3.69,3.69,0,0,0-1.87.75c-0.92.92-1,2.51-1.06,3.73,0-.13,1.18-0.19,1.27-0.34a1.82,1.82,0,0,1,1-.92l-1.25.33a3,3,0,0,1,1.74.43c0.32,0.14,1-.48,1.27-0.34a6.19,6.19,0,0,0-.8-0.36c-0.34-.1-1,0.48-1.27.34l0.56,0.26c0.31,0.14,1-.48,1.27-0.34l-0.56-.26-1.27.34a6.2,6.2,0,0,1,.8.36l1.27-.34a3,3,0,0,0-2.05-.35,2.67,2.67,0,0,0-2,1.19l1.27-.34a6.83,6.83,0,0,1,.67-3.2,5.08,5.08,0,0,1,.61-0.72l0.23-.14-0.78.2a2.81,2.81,0,0,0,.45,0c1.65,0.32,2.39,2.49,2.68,3.89l1.27-.34-2.58-.32C1404.68,198.19,1404.21,198.63,1403.81,198.58Z" transform="translate(-1375.44 -171.31)"/><path class="cls-28" d="M1405.77,184.48c0.86,0.39,3.87-10.89,4.81-13a28.4,28.4,0,0,0-6.91,13h2.11Z" transform="translate(-1375.44 -171.31)"/><path class="cls-25" d="M1405.14,184.65c1.74,0.1,2.15-1.59,2.64-2.92,1.26-3.43,2-7.05,3.44-10.42-0.1.23-1.08,0.14-1.27,0.34a26.11,26.11,0,0,0-5,7.54,34.29,34.29,0,0,0-1.44,3.88q-0.18.59-.34,1.19-0.41.74,0.59,0.39a11.29,11.29,0,0,1,1.42,0c0.32,0.13,1-.48,1.27-0.34l-0.42-.19c-0.32-.13-1,0.48-1.27.34l0.4,0.19c0.31,0.14,1-.48,1.27-0.34l-0.4-.19-1.27.34,0.42,0.19,1.27-.34c-1.32-.56-2.42,1-1.78-1.19a35.44,35.44,0,0,1,1.56-4.28,26,26,0,0,1,5-7.54l-1.27.34c-1,2.31-1.58,4.79-2.34,7.17-0.43,1.34-1,5.06-2.38,5.83l1.27-.34h-0.08C1406,184.28,1405.55,184.67,1405.14,184.65Z" transform="translate(-1375.44 -171.31)"/><path class="cls-29" d="M1404.14,195l2.31,0.37c-0.53-4.31-4-6.06-4.39-.38h2.08Z" transform="translate(-1375.44 -171.31)"/><path class="cls-25" d="M1403.51,195.15l2.31,0.37a10.56,10.56,0,0,0,1.27-.34,6,6,0,0,0-1.36-3.34,1.74,1.74,0,0,0-2-.47,2.25,2.25,0,0,0-1.86,1.4,4.44,4.44,0,0,0-.46,2.24c0.1,0.24.39,0.15,0.68,0.15H1403a1.66,1.66,0,0,1,.76.11l1.27-.34-0.58-.27-1.27.34,0.34,0.16c0.31,0.14,1-.48,1.27-0.34l-0.34-.16c-0.31-.14-1,0.48-1.27.34l0.58,0.27c0.31,0.14,1-.48,1.27-0.34a4.05,4.05,0,0,0-1.63-.12,2.63,2.63,0,0,1-.69,0,1.75,1.75,0,0,1,0-.56,8.71,8.71,0,0,1,.16-1,4.17,4.17,0,0,1,.52-1.35,3.73,3.73,0,0,1,.34-0.4c0.45-.52.17,0.29-0.55,0a3.15,3.15,0,0,1,.81.25,2.88,2.88,0,0,1,.77.78,6.62,6.62,0,0,1,1,2.94l1.27-.34-2.31-.37C1404.38,194.75,1403.9,195.21,1403.51,195.15Z" transform="translate(-1375.44 -171.31)"/><path class="cls-30" d="M1404.14,191.65l2.06,0.39c-0.13-4.67-3.06-7-3.82-.61l1.76,0.22h0Z" transform="translate(-1375.44 -171.31)"/><path class="cls-25" d="M1403.51,191.82l2.06,0.39a7.92,7.92,0,0,0,1.27-.34c-0.05-1.4-.42-5-2.55-4.4a2.25,2.25,0,0,0-1.92,1.41,9,9,0,0,0-.56,2.18q0,0.2-.05.4t0.28,0.17a5.33,5.33,0,0,0,.88.11,2.66,2.66,0,0,1,.81.17c0.31,0.14,1-.48,1.27-0.34l-0.47-.21c-0.31-.14-1,0.48-1.27.34l0.25,0.11c0.31,0.14,1-.48,1.27-0.34l-0.25-.11-1.27.34,0.47,0.21,1.27-.34a14.65,14.65,0,0,0-1.69-.28c-0.37-.12-0.29-0.06-0.24-0.44,0-.21.06-0.41,0.1-0.62s0.13-.63.22-0.95a2.66,2.66,0,0,1,1.22-1.9l-0.63.18,0.07,0-0.64.16a1.58,1.58,0,0,1,1.43,1.12,8.18,8.18,0,0,1,.73,3.37l1.27-.34-2.06-.39C1404.38,191.41,1403.89,191.9,1403.51,191.82Z" transform="translate(-1375.44 -171.31)"/><path class="cls-31" d="M1404.65,187.8l1.64,0.4c0.32-4.51-2.34-5.7-3.31-.67l1.67,0.26h0Z" transform="translate(-1375.44 -171.31)"/><path class="cls-25" d="M1404,188l1.64,0.4a6.43,6.43,0,0,0,1.27-.34,5.81,5.81,0,0,0-.52-3.32,1.17,1.17,0,0,0-1.59-.46,2.3,2.3,0,0,0-1.78,1.29,5,5,0,0,0-.63,1.94c0,0.29,0,.23.31,0.28l0.6,0.09a3.25,3.25,0,0,1,.87.19l1.27-.34-0.4-.18-1.27.34L1404,188a1.92,1.92,0,0,0,.64-0.16,1.91,1.91,0,0,1,.63-0.18l-0.24-.11a1.92,1.92,0,0,0-.64.16,1.91,1.91,0,0,1-.63.18l0.4,0.18a1.91,1.91,0,0,0,.64-0.16,1.91,1.91,0,0,1,.63-0.18c-0.49-.23-1.1-0.1-1.59-0.3-0.27-.11-0.19,0-0.19-0.27a2.15,2.15,0,0,1,.12-0.53,8.59,8.59,0,0,1,.25-0.82,2.62,2.62,0,0,1,1.25-1.66l-0.18.05,0.07,0-1.09.29c1.66-.31,1.62,3,1.56,3.92l1.27-.34-1.64-.4C1404.91,187.54,1404.38,188.07,1404,188Z" transform="translate(-1375.44 -171.31)"/><path class="cls-32" d="M1401.12,225.09c-3-1.35-5.3,2.38-5.28,4.16,2.5-1.45,8.34-1.76,9.21-4.19a4.93,4.93,0,0,1-3.93,0h0Z" transform="translate(-1375.44 -171.31)"/><path class="cls-25" d="M1401.76,224.92c-2.91-1.1-6.4,1.47-6.55,4.5,0-.07,1.14-0.27,1.27-0.34,2.39-1.28,7.93-1.32,9.21-4.19a5.21,5.21,0,0,1-1.27.34l-0.65.23,1.25-.34a6.28,6.28,0,0,1-4.31-.69l-1.27.34,1.42,0.65,1.27-.34-0.37-.17c-0.31-.14-1,0.48-1.27.34l0.37,0.17c0.33,0.13,1-.48,1.27-0.34l-1.42-.65c-0.31-.14-1,0.48-1.27.34a7.48,7.48,0,0,0,6.25.11l-1.27.34c-0.83,1.85-3.51,2.34-5.22,2.81a19.18,19.18,0,0,0-4,1.38l1.27-.34a5.08,5.08,0,0,1,3.2-4.33l-1.25.34a3.23,3.23,0,0,1,2.05.17C1400.83,225.39,1401.43,224.8,1401.76,224.92Z" transform="translate(-1375.44 -171.31)"/><path class="cls-33" d="M1405.16,203.2l2.63,0.31c-1.11-9.72-5.74-5.07-6,1.09,2.12-.09.18-2.88,3.41-1.4h0Z" transform="translate(-1375.44 -171.31)"/><path class="cls-25" d="M1404.53,203.37l2.63,0.31a10.24,10.24,0,0,0,1.27-.34c-0.17-1.4-.51-5.57-2.66-5.6a3.79,3.79,0,0,0-3,1.58,8.68,8.68,0,0,0-1.2,2.71,12.54,12.54,0,0,0-.33,1.65,3.57,3.57,0,0,0-.1,1.08,1.74,1.74,0,0,0,.43-0.07,3.33,3.33,0,0,0,1.66-.56c0.46-.41.3-1.31,0.94-1.52l-1.25.33a3.48,3.48,0,0,1,1.82.5c0.31,0.14,1-.48,1.27-0.34-0.39-.19-0.79-0.36-1.18-0.54s-1,.48-1.27.34l1,0.45c0.31,0.14,1-.48,1.27-0.34l-1-.45-1.27.34c0.39,0.18.79,0.35,1.18,0.54l1.27-.34a3.37,3.37,0,0,0-3-.18c-0.83.36-.55,1.45-1.46,1.78l1.25-.34c-0.6.13-.36-0.44-0.3-0.89s0.11-.78.2-1.17a10.87,10.87,0,0,1,.7-2.17,4.08,4.08,0,0,1,2-2.34l-1.08.29c2.19-.57,2.71,4.51,2.84,5.58l1.27-.34-2.63-.31C1405.39,203,1404.93,203.42,1404.53,203.37Z" transform="translate(-1375.44 -171.31)"/><path class="cls-34" d="M1405.26,207.46c-3.52-1.61-4.3,3.78-4.78,5.45,1.79,1.06,13.39-1.5,4.78-5.45h0Z" transform="translate(-1375.44 -171.31)"/><path class="cls-25" d="M1405.9,207.29a3.88,3.88,0,0,0-4.55,1.4,10.44,10.44,0,0,0-1.15,3,4.77,4.77,0,0,0-.28,1.12c0,0.36.11,0.35,0.51,0.42a11,11,0,0,0,4.66-.57c1.24-.33,3.33-0.78,3.87-2.13,0.77-1.94-3-3.25-4.17-3.78-0.31-.14-1,0.48-1.27.34l1.32,0.6c0.31,0.14,1-.48,1.27-0.34l-0.2-.09c-0.31-.14-1,0.48-1.27.34l0.2,0.09,1.27-.34-1.32-.6-1.27.34c1.26,0.57,4.18,1.51,4.26,3.26a1.87,1.87,0,0,1-1,1.52,6,6,0,0,1-1,.51c-0.26.11-.53,0.19-0.79,0.29-0.43.18,0.6-.1-0.17,0a11.82,11.82,0,0,1-2.57.25,2,2,0,0,1-.9-0.13c-0.31-.22-0.15-0.38-0.05-0.78,0.42-1.72.9-4.31,2.8-5l-1.18.32a2.66,2.66,0,0,1,1.71.23C1405,207.77,1405.59,207.16,1405.9,207.29Z" transform="translate(-1375.44 -171.31)"/><path class="cls-35" d="M1405.16,203.2c-3.66-1.68-3.56,4-3.79,5.55-0.63-.28,7-1.08,6.71-1q1.73-5.3-2.92-4.54h0Z" transform="translate(-1375.44 -171.31)"/><path class="cls-25" d="M1405.8,203a3.63,3.63,0,0,0-3.87.74c-1.11,1.37-1,3.5-1.19,5.15l1.27-.34a2.66,2.66,0,0,0-.85.14,9.28,9.28,0,0,0,1-.18c0.76-.12,1.51-0.21,2.27-0.31a12.91,12.91,0,0,0,3-.32l1.27-.34c0.38-1.23,1-3.26-.27-4.21a2.84,2.84,0,0,0-1.84-.41,3.29,3.29,0,0,1-1.79-.37l-1.27.34,1.18,0.54,1.27-.34-0.19-.09c-0.31-.14-1,0.48-1.27.34l0.19,0.09c0.31,0.14,1-.48,1.27-0.34l-1.18-.54c-0.31-.14-1,0.48-1.27.34a2.92,2.92,0,0,0,1.64.37,3,3,0,0,1,2,.41c1.26,0.95.65,3,.27,4.21a6.49,6.49,0,0,1,1.27-.34,7.4,7.4,0,0,1-1.68.16c-1.09.12-2.17,0.25-3.25,0.41-0.37.05-3,.8-3,0.78a6.2,6.2,0,0,0,1.27-.34,26.14,26.14,0,0,1,.5-3.65,3.81,3.81,0,0,1,.81-1.65,1.82,1.82,0,0,0,.29-0.25c0.2-.41-0.1.25-0.35,0a10.9,10.9,0,0,0,1.26.31C1404.85,203.5,1405.48,202.9,1405.8,203Z" transform="translate(-1375.44 -171.31)"/><path class="cls-36" d="M1404.5,211.67c-3.73-1.71-5,4.23-5.74,6.26,4.56,0.65,8.87-1.17,9.23-6.17a4.42,4.42,0,0,1-3.49-.09h0Z" transform="translate(-1375.44 -171.31)"/><path class="cls-25" d="M1405.13,211.5a4.49,4.49,0,0,0-3.83.43,6,6,0,0,0-2,2.81c-0.22.52-1.36,2.73-1.15,3.25s3.26,0.15,4,0,1.18-.28,1.75-0.46a6.53,6.53,0,0,0,4.74-5.93,10.06,10.06,0,0,1-1.25.33l-0.58.18,1.25-.33a6.32,6.32,0,0,1-4-.77l-1.27.34,1.39,0.64,1.27-.34-0.3-.14c-0.31-.14-1,0.48-1.27.34l0.3,0.14c0.31,0.14,1-.48,1.27-0.34l-1.39-.64c-0.31-.14-1,0.48-1.27.34a7.22,7.22,0,0,0,5.82.26l-1.25.33a6.61,6.61,0,0,1-2.35,4.73,5.51,5.51,0,0,1-2.52,1.14c-0.46.08-2.48,0.34-2.84,0s-0.13-.06-0.08-0.5a5,5,0,0,1,.29-0.87c0.23-.68.46-1.36,0.74-2a5.3,5.3,0,0,1,2.53-3.08l-0.46.13,0.3-.08-0.81.21a3.24,3.24,0,0,1,1.72.26C1404.19,212,1404.81,211.38,1405.13,211.5Z" transform="translate(-1375.44 -171.31)"/><path class="cls-37" d="M1403.37,216.87c-3.46-1.59-5.63,3.56-6.37,5.73,4.93-.56,9.18.22,10.33-5.77a5,5,0,0,1-4,0h0Z" transform="translate(-1375.44 -171.31)"/><path class="cls-25" d="M1404,216.7a5,5,0,0,0-4.07.49,7.61,7.61,0,0,0-2.6,3.25,7.21,7.21,0,0,0-.74,1.71c-0.09.49-.29,0.37,0,0.6a5.51,5.51,0,0,0,1.25-.11,28,28,0,0,0,5.52-.81c2.68-.76,4-2.45,4.57-5.17a7.52,7.52,0,0,1-1.27.34l-0.65.24,1.25-.34a6.37,6.37,0,0,1-4.33-.68l-1.27.34,1.43,0.66,1.27-.34-0.38-.17c-0.31-.14-1,0.48-1.27.34l0.38,0.17c0.31,0.14,1-.48,1.27-0.34l-1.43-.66c-0.31-.14-1,0.48-1.27.34a7.55,7.55,0,0,0,6.27.1l-1.27.34a6.48,6.48,0,0,1-2.51,4.34c-1.38.91-3.2,0.81-4.8,0.94a6,6,0,0,1-1.24.1c-0.63-.12-0.36.23-0.34-0.41a6.38,6.38,0,0,1,.9-2.07,6.54,6.54,0,0,1,3.23-3.38l-1.25.34a3.18,3.18,0,0,1,2.05.18C1403.07,217.17,1403.68,216.58,1404,216.7Z" transform="translate(-1375.44 -171.31)"/><path class="cls-38" d="M1402.35,221.55c-2.88-1.32-6,2.75-6.28,4.57,3.88-.08,8.89-0.35,10.11-4.57a4.78,4.78,0,0,1-3.83,0h0Z" transform="translate(-1375.44 -171.31)"/><path class="cls-25" d="M1403,221.38a5.13,5.13,0,0,0-3.54.28,6.8,6.8,0,0,0-3.12,2.67,3.75,3.75,0,0,0-.77,1.49c0,0.49-.21.21,0.11,0.47a4.7,4.7,0,0,0,1.2,0c3.67-.17,8.6-0.88,9.95-4.87a6,6,0,0,1-1.27.34l-0.63.22,1.25-.34a6.33,6.33,0,0,1-4.24-.71c-0.31-.14-1,0.48-1.27.34l1.42,0.65c0.31,0.14,1-.48,1.27-0.34l-0.36-.17c-0.31-.14-1,0.48-1.27.34l0.36,0.17,1.27-.34-1.42-.65-1.27.34a7.45,7.45,0,0,0,6.17.14l-1.27.34c-1.1,3.25-4,4-7.16,4.18-0.45,0-1.52.19-1.65-.1s0.54-1.31.73-1.61a6.59,6.59,0,0,1,3.61-3l-1.18.31a3.47,3.47,0,0,1,1.82.19C1402.06,221.85,1402.65,221.26,1403,221.38Z" transform="translate(-1375.44 -171.31)"/><path class="cls-39" d="M1395.86,229.82c0-1-.06-0.53,0,0C1395.85,229.63,1395.84,229.64,1395.86,229.82Z" transform="translate(-1375.44 -171.31)"/><path class="cls-25" d="M1396.5,229.65l0-.55c0,0.09-1.27.22-1.27,0.34a2.3,2.3,0,0,0,0,.55c0-.07,1.28-0.25,1.27-0.34a2.3,2.3,0,0,1,0-.55l-1.27.34,0,0.55C1395.22,229.92,1396.5,229.75,1396.5,229.65Z" transform="translate(-1375.44 -171.31)"/><path class="cls-40" d="M1395.76,229.3h0Z" transform="translate(-1375.44 -171.31)"/><path class="cls-25" d="M1396.39,229.13v-0.25c0,0.1-1.27.22-1.27,0.34v0.25c0-.1,1.27-0.22,1.27-0.34v-0.25c0,0.1-1.27.22-1.27,0.34v0.25C1395.12,229.37,1396.4,229.25,1396.39,229.13Z" transform="translate(-1375.44 -171.31)"/><g class="cls-41"><path class="cls-42" d="M1407.79,203.51c-1.32-11.48-2.11-21,2.79-32-7.69,7.71-5.26,20-4.87,30.25,0.24,6.17,1.25,25.86-8.09,25.48q-2.19-1.47-.74-4.23a17.9,17.9,0,0,0-1,6.27c4.28-2.47,7.15-2.05,9.77-5.95,3.17-4.7,2.78-14.46,2.17-19.79h0Z" transform="translate(-1375.44 -171.31)"/></g><path class="cls-43" d="M1403.35,187.65c-0.48,3.63-4.12,36.15-4.9,35.79C1405.32,226.64,1403.32,187.82,1403.35,187.65Z" transform="translate(-1375.44 -171.31)"/><g class="cls-9"><path class="cls-44" d="M1395,240.54c1.64,3.89,3.45,7.73,4.39,11.86,5.24-6.14,27.1-12.9,23.71-20.8-2.54-5.94-27.53-6.65-27.29-1.77,0.1,0.83-.08-0.59-0.1-0.58a12.17,12.17,0,0,0-.71,11.29C1398.72,249.27,1392.87,235.39,1395,240.54Z" transform="translate(-1375.44 -171.31)"/></g><path class="cls-4" d="M1387.62,239.69c1.12,0.06,7.16-9.41,8.45-10.47C1394.09,230.85,1387.68,239.69,1387.62,239.69Z" transform="translate(-1375.44 -171.31)"/><path class="cls-4" d="M1412.63,230.46a5.52,5.52,0,0,1,9-1.46C1417.54,224.92,1413.63,228.57,1412.63,230.46Z" transform="translate(-1375.44 -171.31)"/><path class="cls-4" d="M1441.85,222.94c-6.94,2.5-14.42,8-15.33,15.91C1427.45,231.44,1437.18,224.64,1441.85,222.94Z" transform="translate(-1375.44 -171.31)"/><path class="cls-4" d="M1427,236c1.27,6.62,10.87.22,13.41-1.73C1437.57,236.53,1428.43,241.73,1427,236Z" transform="translate(-1375.44 -171.31)"/><path class="cls-4" d="M1382,217.74c2.07,2.1,13.51,15.64,6.75,17.59,0.81-.22-4.71-0.76-5.53-1.68,3.64,4.05,7,1.48,7.94-1.74C1392.54,226.81,1384.45,220.27,1382,217.74Z" transform="translate(-1375.44 -171.31)"/><path class="cls-4" d="M1380.74,287.1a2.64,2.64,0,0,1,1.64-2.6C1380.16,285.33,1380.73,286.76,1380.74,287.1Z" transform="translate(-1375.44 -171.31)"/><path class="cls-45" d="M1385.84,289.42c0.52,0.56,9-.16,10.53.31-3.15,2.24-7.67,2.8-10.53-.31h0Z" transform="translate(-1375.44 -171.31)"/><path class="cls-4" d="M1396.06,289.82c1.86,0.12,5.19-.54,5.44-3C1401.28,288.57,1397.78,289.93,1396.06,289.82Z" transform="translate(-1375.44 -171.31)"/><path class="cls-4" d="M1385.54,289.5c0.42-.13-2.53.28-3.18,0.21Q1388.3,288.82,1385.54,289.5Z" transform="translate(-1375.44 -171.31)"/><path class="cls-4" d="M1400.47,292.56c5.41-4,7.72-11.47,12-16.57,5.34-6.3,12.41-11.43,10.45-20.87,2.65,7.7-6.54,15.67-11.08,21C1407.87,280.91,1403.76,290.16,1400.47,292.56Z" transform="translate(-1375.44 -171.31)"/><path class="cls-46" d="M1414,509.63c-1.36,6-4.12,13.06,2,15.37,8.11,3.06,12.61-7.05,13.22-13.15-5.15,2.49-11.61,3-15.21-2.22C1414,509.69,1416,512.4,1414,509.63Z" transform="translate(-1375.44 -171.31)"/><path class="cls-15" d="M1413.41,509.8c-0.87,3.73-2.92,8.63-1.29,12.4,1.37,3.17,5.28,4,8.33,3.21,6-1.47,8.77-8.09,9.43-13.72a10.52,10.52,0,0,1-1.27.34c-5,2.29-10.49,2-13.94-2.56-0.09-.12-1.21.44-1.27,0.34a11.23,11.23,0,0,0,.85,1.24c0.1,0.13,1.2-.45,1.27-0.34-0.27-.42-0.56-0.83-0.85-1.24-0.09-.13-1.19.45-1.27,0.34,0.28,0.41.58,0.82,0.85,1.24l1.27-.34a11.23,11.23,0,0,1-.85-1.24l-1.27.34c4.11,5.44,11,4.4,16.48,1.88l-1.27.34c-0.56,4.76-3.56,13.93-9.76,13.33-8.71-.83-5.47-10.4-4.18-15.9C1414.64,509.66,1413.46,509.59,1413.41,509.8Z" transform="translate(-1375.44 -171.31)"/><path class="cls-47" d="M1457.7,518a5.28,5.28,0,0,1-4-3.3c-1.56,5.83-5,14.37,3.19,15.32,8.07,0.93,12.11-9.46,11.47-15.78-2.7,1.79-7.18,4.45-10.63,3.77h0Z" transform="translate(-1375.44 -171.31)"/><path class="cls-15" d="M1458.34,517.85a5.71,5.71,0,0,1-4-3.3,9.08,9.08,0,0,0-1.27.34c-1,3.52-2.85,7.83-1.87,11.52s5,4.27,8.15,3.58c7-1.52,10.16-9.34,9.66-15.91,0,0.05-1.16.27-1.27,0.34-3,2-6.16,3.91-9.92,3.31-0.39-.06-0.89.42-1.27,0.34l1.63,0.32c0.39,0.07.89-.42,1.27-0.34l-1.06-.21c-0.39-.08-0.89.42-1.27,0.34l1.06,0.21,1.27-.34-1.63-.32-1.27.34c4.5,0.71,8.8-1.6,12.46-4l-1.27.34c0.45,5.85-2.2,13.82-8.45,15.57l1.09-.29c-3.55.67-7.51-.49-8-4.48-0.47-3.56,1.09-7.31,2-10.68l-1.27.34a5.71,5.71,0,0,0,4,3.3C1457.44,518.29,1458,517.75,1458.34,517.85Z" transform="translate(-1375.44 -171.31)"/><path class="cls-4" d="M1416,524.91a26.83,26.83,0,0,1,1.33-9.25C1416.1,517.95,1416.2,523.83,1416,524.91Z" transform="translate(-1375.44 -171.31)"/><path class="cls-4" d="M1455.15,529.9a15.35,15.35,0,0,1,2.35-7.9A15.72,15.72,0,0,0,1455.15,529.9Z" transform="translate(-1375.44 -171.31)"/><path class="cls-4" d="M1409.7,258.6c-1.87,3.93-6.54,9.63-7.15,13.86-0.58,4,2.46,8.08,1.32,12,1.26-4.11-2.28-7.41-1.47-11.7S1408.21,261.68,1409.7,258.6Z" transform="translate(-1375.44 -171.31)"/><path class="cls-4" d="M1391.23,253.24c0.6,8.07-1,17.57-7,23.53C1390.78,270.34,1391.57,261.23,1391.23,253.24Z" transform="translate(-1375.44 -171.31)"/><path class="cls-48" d="M1428.26,221.71c-1.12-2-8.28-3.29-8.2.59,0,0.4,5.93,3.62,6.51,4q4.06-2.34,1.69-4.54C1426.58,218.75,1428.49,222.12,1428.26,221.71Z" transform="translate(-1375.44 -171.31)"/><path class="cls-25" d="M1428.9,221.54c-1.52-2.34-6.13-2.42-8.38-1.07-0.53.32-1.41,1.31-1.08,2a4.39,4.39,0,0,0,1.6,1.13c1.61,1,3.26,1.87,4.9,2.79a3.6,3.6,0,0,0,1.27-.34c1.08-.66,2.8-1.7,2.52-3.21-0.16-.9-1.07-1.77-1.53-2.56-0.06-.11-1.22.43-1.27,0.34l0.71,1.26c0.06,0.1,1.22-.43,1.27-0.34l0,0c-0.06-.1-1.22.42-1.27,0.34l0,0,1.27-.34-0.71-1.26-1.27.34c0.46,0.79,1.37,1.66,1.53,2.56,0.27,1.51-1.45,2.55-2.52,3.21l1.27-.34c-1.26-.71-2.52-1.4-3.77-2.12-0.86-.5-2.9-1.2-2.7-2.4a2.17,2.17,0,0,1,1.15-1.49c0.22-.13.28-0.1,0,0a2.81,2.81,0,0,1,.58,0,9.81,9.81,0,0,1,1.21.06c1.35,0.16,3.15.63,3.94,1.85C1427.71,222,1428.83,221.43,1428.9,221.54Z" transform="translate(-1375.44 -171.31)"/><path class="cls-49" d="M1456.9,200.21c-2.27-3.4-6.64-1.43-8.66.09,1.86,1.46,3.59,1.93,5.81,3.49l2.85-3.58C1456.82,200.1,1456.07,201.59,1456.9,200.21Z" transform="translate(-1375.44 -171.31)"/><path class="cls-25" d="M1457.53,200c-1.67-2.24-4-2-6.42-1.31-0.61.18-3.42,1-3.51,1.74s5.28,3.13,5.81,3.49a4.15,4.15,0,0,0,1.27-.34l2.85-3.58a4.92,4.92,0,0,1-1.27.34,1.2,1.2,0,0,0-.38.58,5.52,5.52,0,0,1,1.27-.34,2.52,2.52,0,0,0,.38-0.58c-0.16.27-1.1,0.06-1.27,0.34a2.52,2.52,0,0,1-.38.58l1.27-.34a1.18,1.18,0,0,1,.38-0.58l-1.27.34-2.85,3.58,1.27-.34c-1.28-.86-2.64-1.53-4-2.28-0.26-.15-1.84-0.92-1.84-1.21a4.93,4.93,0,0,1,1.35-.86c2.18-1.17,4.5-1,6,1.11C1456.36,200.51,1457.44,199.91,1457.53,200Z" transform="translate(-1375.44 -171.31)"/><path class="cls-50" d="M1427.69,216.08c-1.35-2.64-4.17,2-5,3a16,16,0,0,1,6.35,3.63c5.19-7.43.65-2.79-1.31-6.61h0Z" transform="translate(-1375.44 -171.31)"/><path class="cls-25" d="M1428.32,215.91c-1.06-1.83-3.6,0-4.53,1.05-0.43.49-.83,1-1.22,1.54a2.54,2.54,0,0,0-.47.62,1.31,1.31,0,0,0,.92.49,15.43,15.43,0,0,1,5.35,3.25,5,5,0,0,0,1.27-.34c0.44-.64,3.37-4,2-4.67-0.47-.23-1.1-0.17-1.6-0.37a3.26,3.26,0,0,1-1.72-1.64l-1.27.34c0.15,0.25.27,0.52,0.4,0.78l1.27-.34-0.37-.72c0-.09-1.23.41-1.27,0.34l0.37,0.72c0,0.09,1.23-.41,1.27-0.34-0.13-.26-0.25-0.53-0.4-0.78s-1.23.42-1.27,0.34a3.27,3.27,0,0,0,1.65,1.61c0.53,0.22,1.17.16,1.67,0.39,1.4,0.66-1.56,4.06-2,4.67l1.27-.34a13,13,0,0,0-3.29-2.35c-0.61-.3-1.23-0.57-1.86-0.82a3.18,3.18,0,0,1-1-.38c-0.28-.34-0.14.08,0-0.32a7.24,7.24,0,0,1,1.41-1.82,5.44,5.44,0,0,1,2-1.65l-0.46.13,0.18-.05-0.81.21a1.23,1.23,0,0,1,1.28.78C1427.11,216.36,1428.27,215.82,1428.32,215.91Z" transform="translate(-1375.44 -171.31)"/><path class="cls-51" d="M1422.65,227.3c-1.4-2.48-5.06-1.48-5.83-.19a10.16,10.16,0,0,1,6.34,4.47c2.35-2.18.67-2.21-.51-4.29h0Z" transform="translate(-1375.44 -171.31)"/><path class="cls-25" d="M1423.28,227.13c-1.28-2-3.75-1.63-5.67-.88a2.43,2.43,0,0,0-1.33.89c-0.05.29,0.61,0.31,1,.43a9.2,9.2,0,0,1,1.15.47,11.45,11.45,0,0,1,4.12,3.71,6,6,0,0,0,1.27-.34c1.08-1,1.53-1.7.53-2.9a16.46,16.46,0,0,1-1.67-2.5c-0.06-.1-1.22.43-1.27,0.34l0.73,1.29c0.06,0.1,1.22-.43,1.27-0.34l-0.1-.18c-0.06-.1-1.22.43-1.27,0.34l0.1,0.18,1.27-.34-0.73-1.29-1.27.34a16.44,16.44,0,0,0,1.67,2.5c1,1.19.54,1.86-.53,2.9l1.27-.34a12.72,12.72,0,0,0-2.78-2.9,37.47,37.47,0,0,0-3.51-1.64c0-.68,1.51-0.94,1.89-0.92a3.13,3.13,0,0,1,2.62,1.52C1422.09,227.59,1423.22,227,1423.28,227.13Z" transform="translate(-1375.44 -171.31)"/><path class="cls-52" d="M1452.73,198.51c0.64,1.25,2.86-.25,4.17,1.7,3.68-6.17,4.41-14.37,3.26-21.35-0.56,5.3-8.68,17.21-7.42,19.65h0Z" transform="translate(-1375.44 -171.31)"/><path class="cls-25" d="M1452.09,198.68c1.19,1.14,2.84.38,4.17,1.7a5.26,5.26,0,0,0,1.27-.34c3.65-6.56,4.34-14,3.26-21.35,0,0.08-1.25.23-1.27,0.34-0.61,4-2.86,7.75-4.61,11.35-1.18,2.41-3.86,6.25-2.47,9l1.27-.34-0.35-.68-1.27.34h0c0,0.09,1.23-.42,1.27-0.34h0c0-.09-1.23.41-1.27,0.34l0.35,0.68c0,0.09,1.23-.41,1.27-0.34-1.39-2.71,1.3-6.58,2.47-9,1.75-3.6,4-7.33,4.61-11.35l-1.27.34c1.08,7.34.39,14.79-3.26,21.35l1.27-.34c-1.3-1.3-3-.57-4.17-1.7C1453.2,198.17,1452.25,198.83,1452.09,198.68Z" transform="translate(-1375.44 -171.31)"/><path class="cls-53" d="M1425,224.62c-0.68-1.2-3.59-1.54-4.93-2.32-2.9,3.88.44,5,4.61,6.86q3.73-2.62.31-4.54C1423.31,221.66,1425.46,225.46,1425,224.62Z" transform="translate(-1375.44 -171.31)"/><path class="cls-25" d="M1425.63,224.45c-1-1.48-3.44-1.52-4.93-2.32a4,4,0,0,0-1.27.34c-0.94,1.31-1.64,2.86-.35,4.19s3.32,1.95,5,2.67a3.42,3.42,0,0,0,1.27-.34c1-.73,2.52-2,1.7-3.35-0.39-.67-1.16-0.93-1.58-1.53-0.18-.25-0.31-0.55-0.46-0.82l-1.27.34a8.34,8.34,0,0,1,.72,1.27l1.27-.34-0.07-.12c-0.06-.1-1.22.43-1.27,0.34l0.07,0.12c0,0.07,1.25-.39,1.27-0.34a8.34,8.34,0,0,0-.72-1.27c-0.06-.1-1.22.43-1.27,0.34,0.15,0.27.29,0.56,0.46,0.82,0.42,0.61,1.19.86,1.58,1.53,0.82,1.39-.71,2.62-1.7,3.35l1.27-.34c-1.64-.72-3.68-1.36-5-2.67s-0.59-2.88.35-4.19l-1.27.34c1.49,0.8,3.9.85,4.93,2.32C1424.45,224.92,1425.55,224.34,1425.63,224.45Z" transform="translate(-1375.44 -171.31)"/><path class="cls-54" d="M1449.73,205.28c-2.07-3.65-7.79-1.61-10.43-.08,1.5,0.63,13.57,5.64,10.43.08C1448.05,202.31,1450,205.71,1449.73,205.28Z" transform="translate(-1375.44 -171.31)"/><path class="cls-25" d="M1450.36,205.11c-1.79-2.78-5.12-2.12-7.83-1.34-0.68.19-3.89,1.21-3.77,1.65s2.86,1.11,3.26,1.25c2.21,0.77,4.74,1.73,7.09,1.19s1.62-2.1.55-4c-0.06-.1-1.22.43-1.27,0.34l0.71,1.26c0.06,0.1,1.22-.43,1.27-0.34l0,0c-0.06-.1-1.22.43-1.27,0.34l0,0,1.27-.34-0.71-1.26-1.27.34c0.54,0.95,2.15,3.1.4,3.71l1.25-.34c-2.77.65-6.36-1.07-8.87-2.06a5.25,5.25,0,0,1-1.2-.48c0-.25,1.88-1,2.29-1.13,2.43-.87,5.3-0.83,6.82,1.52C1449.17,205.57,1450.29,205,1450.36,205.11Z" transform="translate(-1375.44 -171.31)"/><path class="cls-55" d="M1452.79,202.37c-1.83-3.24-6.85-.46-8.57.3,4.06,1.6,6,4.71,9.82,1.11l-1.26-1.42h0Z" transform="translate(-1375.44 -171.31)"/><path class="cls-25" d="M1453.43,202.2c-1.28-1.94-3.4-1.61-5.35-1.09a20,20,0,0,0-2.38.78,7.28,7.28,0,0,0-1.58.71c-0.39.3-.53,0-0.24,0.36a6.42,6.42,0,0,0,1.34.64c2.11,1.1,3.83,2.4,6.27,1.76a7,7,0,0,0,2.15-.89c0.52-.34,1-0.57.85-1.09a6.55,6.55,0,0,0-1-1.18,12.93,12.93,0,0,1-.67-1.18l-1.27.34c0.24,0.42.48,0.83,0.71,1.26l1.27-.34,0-.08c-0.06-.1-1.22.43-1.27,0.34l0,0.08c0.06,0.1,1.22-.42,1.27-0.34-0.23-.42-0.47-0.84-0.71-1.26-0.06-.1-1.22.43-1.27,0.34a10.86,10.86,0,0,0,1.08,1.65l0.42,0.47q0.77,0.4.15,0.71a3,3,0,0,1-1.28.92c-1.73.64-3.71-.95-5.14-1.72a12.91,12.91,0,0,1-1.3-.65c-0.83-.59-0.52,0,0-0.48a6.89,6.89,0,0,1,2-.87c1.79-.64,3.67-0.55,4.79,1.15C1452.24,202.66,1453.36,202.09,1453.43,202.2Z" transform="translate(-1375.44 -171.31)"/><path class="cls-56" d="M1444.72,207.77c-2-3.61-8-1.09-10.21.5,1.85,1.11,13,4.45,10.21-.5C1443,204.81,1445,208.21,1444.72,207.77Z" transform="translate(-1375.44 -171.31)"/><path class="cls-25" d="M1445.35,207.6c-1.65-2.54-4.67-1.89-7.15-1.17-0.82.24-4,1.05-4.2,1.92-0.12.42,2.34,1.09,2.88,1.26,2.3,0.69,4.77,1.31,7.14.69s1.71-2,.63-3.91c-0.06-.1-1.22.43-1.27,0.34l0.71,1.26c0.06,0.1,1.22-.43,1.27-0.34l0,0c-0.06-.1-1.22.43-1.27,0.34l0,0,1.27-.34-0.71-1.26-1.27.34c0.64,1.11,2,3,.17,3.69l0.8-.22-0.23.06,0.47-.12c-2.74.51-6.15-.56-8.65-1.64-0.78-.34-0.92-0.24-0.23-0.77a9.35,9.35,0,0,1,2.75-1.3c2.06-.66,4.36-0.4,5.61,1.52C1444.16,208.06,1445.29,207.5,1445.35,207.6Z" transform="translate(-1375.44 -171.31)"/><path class="cls-57" d="M1435.45,209.22c-1.12-2.16-4.58,1.81-5.52,2.61,5.61,2.27,4.26,2.82,10.11-.36-1.11-1.21-4.27-1.63-4.59-2.25h0Z" transform="translate(-1375.44 -171.31)"/><path class="cls-25" d="M1436.09,209c-0.79-1.19-2.79-.31-3.76.3-0.58.37-2.77,1.8-2.87,2.51-0.06.37,3.16,1.66,4,1.87a6.15,6.15,0,0,0,3.69-.59,24.35,24.35,0,0,0,2.26-1.14c0.4-.21,1.24-0.5,1.13-0.82a2,2,0,0,0-.89-0.59c-0.84-.44-3.11-0.67-3.58-1.57,0-.09-1.23.41-1.27,0.34l0.41,0.79c0,0.09,1.23-.41,1.27-0.34l-0.38-.74c0-.09-1.23.41-1.27,0.34l0.38,0.74,1.27-.34-0.41-.79-1.27.34c0.65,1.24,3.25.84,4.15,1.91a2.19,2.19,0,0,1,.47.38l-1.27.69c-0.49.27-1,.54-1.49,0.78a2,2,0,0,1-1.51.37c-0.92-.13-4.47-1.6-4.41-2a6.18,6.18,0,0,1,1.55-1.46,8,8,0,0,1,2.31-1.54l-1.18.32a1.15,1.15,0,0,1,1.42.56C1434.9,209.51,1436,208.94,1436.09,209Z" transform="translate(-1375.44 -171.31)"/><path class="cls-58" d="M1431.47,213.07q-2.63-3.37-5,1.92c2.25,1.11,4,1.36,5.76,3.29,5.5-7.09,1.22-1.34-.76-5.21h0Z" transform="translate(-1375.44 -171.31)"/><path class="cls-25" d="M1432.1,212.9a2.5,2.5,0,0,0-2.56-1.22,4.2,4.2,0,0,0-2,.86,6.64,6.64,0,0,0-1.3,1.86q-0.19.38-.37,0.76l0.66,0.31,0.95,0.4a11,11,0,0,1,4.16,2.58,5.18,5.18,0,0,0,1.27-.34,30.6,30.6,0,0,0,2.5-3.29c0.24-.42.29-0.46-0.14-0.52a10,10,0,0,1-1.54,0,2.7,2.7,0,0,1-1.63-1.51l-1.27.34,0.41,0.8,1.27-.34-0.36-.71c0-.09-1.23.41-1.27,0.34l0.36,0.71c0,0.09,1.23-.41,1.27-0.34l-0.41-.8c0-.09-1.23.41-1.27,0.34a2.73,2.73,0,0,0,1.57,1.49,8.59,8.59,0,0,0,1.6,0c0.4,0.05.38,0.06,0.17,0.47a23.86,23.86,0,0,1-2.53,3.33l1.27-.34a12.37,12.37,0,0,0-4.62-2.78l-0.64-.28c-0.36-.17-0.4-0.11-0.41-0.43a3.92,3.92,0,0,1,.74-1.37,3.51,3.51,0,0,1,1.78-1.61l-1.25.33a2.56,2.56,0,0,1,2.37,1.27C1431,213.38,1432,212.76,1432.1,212.9Z" transform="translate(-1375.44 -171.31)"/><g class="cls-41"><path class="cls-59" d="M1460.15,178.86c-1.64,15.52-7.83,20.63-19.83,29a86.5,86.5,0,0,0-11,9.5c-0.51.51-13.21,13.72-10.19,6.22q-1.21,1.7-2.29,3.5a10.16,10.16,0,0,1,6.34,4.47c5.42-8.82,10.4-16.51,19.59-21.49,13-7,20.14-14.76,17.41-31.25C1459.84,181.86,1461.41,186.47,1460.15,178.86Z" transform="translate(-1375.44 -171.31)"/></g><path class="cls-60" d="M1421.72,221.3a61.32,61.32,0,0,1,13.92-13c1.48-1,17.82-13.37,18.54-13.23,1.18,0.22-13.77,11.5-14.77,12.15-3.31,2.16-18.51,13-18.72,15.8Z" transform="translate(-1375.44 -171.31)"/><path class="cls-4" d="M1407.4,227.41l-1.23,3.43C1406.2,231.72,1409.07,225.73,1407.4,227.41Z" transform="translate(-1375.44 -171.31)"/><g class="cls-12"><path class="cls-61" d="M1386.76,285.83h0Z" transform="translate(-1375.44 -171.31)"/><path class="cls-61" d="M1386.15,288h0Z" transform="translate(-1375.44 -171.31)"/><path class="cls-61" d="M1383.75,286.4h0Z" transform="translate(-1375.44 -171.31)"/><path class="cls-61" d="M1397.8,288.59h0Z" transform="translate(-1375.44 -171.31)"/><path class="cls-61" d="M1394.28,283.91h0Z" transform="translate(-1375.44 -171.31)"/><path class="cls-61" d="M1386.61,283.91h0Z" transform="translate(-1375.44 -171.31)"/><path class="cls-61" d="M1391.67,288h0Z" transform="translate(-1375.44 -171.31)"/><path class="cls-61" d="M1393.91,287.89h0Z" transform="translate(-1375.44 -171.31)"/><path class="cls-61" d="M1393.66,286h0Z" transform="translate(-1375.44 -171.31)"/><path class="cls-61" d="M1400.41,284.58h0Z" transform="translate(-1375.44 -171.31)"/><path class="cls-61" d="M1391.52,285.78h0Z" transform="translate(-1375.44 -171.31)"/><path class="cls-61" d="M1388.4,287h0Z" transform="translate(-1375.44 -171.31)"/><path class="cls-61" d="M1396.93,286.25h0Z" transform="translate(-1375.44 -171.31)"/><path class="cls-61" d="M1398.11,283.49h0Z" transform="translate(-1375.44 -171.31)"/><path class="cls-61" d="M1399.34,287.39h0Z" transform="translate(-1375.44 -171.31)"/><path class="cls-61" d="M1382.78,288.33h0Z" transform="translate(-1375.44 -171.31)"/><path class="cls-61" d="M1384.16,283h0Z" transform="translate(-1375.44 -171.31)"/></g><path class="cls-62" d="M1389.93,283.49s-0.31,4.58.61,6A4.53,4.53,0,0,1,1389.93,283.49Z" transform="translate(-1375.44 -171.31)"/><path class="cls-63" d="M1384,281.1c2.81-1.06,2.25,2.67,5.16,3.29a56.08,56.08,0,0,0,7.43-2.6c1.09-3.72-4.57-5.5-7.61-5.57C1381.83,276.07,1384,281.09,1384,281.1Z" transform="translate(-1375.44 -171.31)"/><g class="cls-64"><path class="cls-65" d="M1395.25,278.19c-2.34-1.75-11.89-4-12.81.7,2.69-3.2,14.1-.46,12.62,1.66-3.17,4.55-9-.19-9.32.09,4.3,4,2.38,3.65,6.7,2.18,2.47-.84,7.33-1.23,2.8-4.62h0Z" transform="translate(-1375.44 -171.31)"/></g><path class="cls-66" d="M1389.74,278.17c0,1.08-4.76,1.08-4.76,0S1389.74,277.1,1389.74,278.17Z" transform="translate(-1375.44 -171.31)"/><path class="cls-19" d="M1388.19,244.54c0.25,0.29,4.65,3.69,4.86,3.53,2.27-1.74.58-9.31-2.78-8.82C1388.49,239.51,1385.88,243.25,1388.19,244.54Z" transform="translate(-1375.44 -171.31)"/><path class="cls-19" d="M1392.23,253.8c0,1.18-1.18,8.53-.57,8.78C1395.55,264.16,1392.51,250.41,1392.23,253.8Z" transform="translate(-1375.44 -171.31)"/><path class="cls-19" d="M1405.72,259.26c-0.51,3.45-3.56,7-3.56,10.27,0-.79,6.08-4.74,5.89-7.73C1408,260.83,1408,255.85,1405.72,259.26Z" transform="translate(-1375.44 -171.31)"/><path class="cls-19" d="M1410.43,258.75c1.35-.32,11.87-7.14,9.2-8.37,4.84,2.23,0,10.1-3.25,11.22C1414.86,262.14,1407.27,261.57,1410.43,258.75Z" transform="translate(-1375.44 -171.31)"/><path class="cls-62" d="M1409.56,259.41c0.11-1.45,14-7.64,7.71-11.11-5.45-3-7.51,8.64-7.71,11.11h0Z" transform="translate(-1375.44 -171.31)"/><path class="cls-67" d="M1411.09,256.86a8.18,8.18,0,0,0,6.44-7.58C1412.79,248.57,1410.9,252.47,1411.09,256.86Z" transform="translate(-1375.44 -171.31)"/><g class="cls-68"><path class="cls-69" d="M1416.89,252.72c-1.06,7.08-5.21-1-5.07-1-0.1,0,6.12-6.13,5.07,1h0Z" transform="translate(-1375.44 -171.31)"/><path class="cls-70" d="M1416,252.84c-0.7,4.67-3.44-.65-3.34-0.63-0.07,0,4-4,3.34.63C1415.81,254,1416.16,251.69,1416,252.84Z" transform="translate(-1375.44 -171.31)"/><path class="cls-71" d="M1416.28,251.73q-0.74,2.64-1.35,0,0.74-2.64,1.35,0C1416.26,252.46,1416.3,251,1416.28,251.73Z" transform="translate(-1375.44 -171.31)"/></g><path class="cls-62" d="M1410.09,256.29s-0.15-10.61,8.82-8.89C1418.91,247.4,1411.47,246.7,1410.09,256.29Z" transform="translate(-1375.44 -171.31)"/><path class="cls-71" d="M1411.7,253.59a2.57,2.57,0,0,0,1.43,1.87,0.94,0.94,0,0,1-1.17.84C1410.38,256.56,1411.82,253.88,1411.7,253.59Z" transform="translate(-1375.44 -171.31)"/><path class="cls-71" d="M1415.9,249.43a2,2,0,0,1,.92,1.15C1417.08,251.58,1418,248.7,1415.9,249.43Z" transform="translate(-1375.44 -171.31)"/><path class="cls-19" d="M1386.87,250.83a5.86,5.86,0,0,0,4.75,2.73C1391,257.85,1384.72,256.92,1386.87,250.83Z" transform="translate(-1375.44 -171.31)"/><path class="cls-62" d="M1391.62,253.72s-5.67-.18-3.42-7.15C1389.83,245,1393.15,248.49,1391.62,253.72Z" transform="translate(-1375.44 -171.31)"/><path class="cls-72" d="M1391.39,253.2s-4.13-.54-2.75-5.87C1389.62,246.2,1392.7,248.73,1391.39,253.2Z" transform="translate(-1375.44 -171.31)"/><path class="cls-72" d="M1391.39,253.2s-4.13-.54-2.75-5.87C1389.62,246.2,1392.7,248.73,1391.39,253.2Z" transform="translate(-1375.44 -171.31)"/><path class="cls-62" d="M1391.85,250s-0.61-4.84-4.29-4C1387.55,246,1390.47,243,1391.85,250Z" transform="translate(-1375.44 -171.31)"/><g class="cls-73"><path class="cls-74" d="M1391.75,250.26a2.25,2.25,0,0,1-1.49,2.55c-2.06,0-2.06-5.09,0-5.09A2.25,2.25,0,0,1,1391.75,250.26Z" transform="translate(-1375.44 -171.31)"/><path class="cls-70" d="M1391.25,250.48l-1,1.68q-2-1.68,0-3.36Z" transform="translate(-1375.44 -171.31)"/><path class="cls-71" d="M1391.31,249.52q0,2.19-.76.27,0-2.19.76-.27h0Z" transform="translate(-1375.44 -171.31)"/></g><path class="cls-62" d="M1391.62,253.56s-2.07,1.25-4.45-1.33C1387.17,252.24,1388.78,255.59,1391.62,253.56Z" transform="translate(-1375.44 -171.31)"/><path class="cls-71" d="M1389.47,247.56a2.18,2.18,0,0,0-.87,1.87C1388.55,250.83,1388,246.46,1389.47,247.56Z" transform="translate(-1375.44 -171.31)"/><path class="cls-19" d="M1409.4,256c0.26-5.8,9.94-10.26,9.12-11.48-2.67-3.95-9.11,1.09-10.5,3.84C1406.82,250.74,1408.51,258.48,1409.4,256Z" transform="translate(-1375.44 -171.31)"/><path class="cls-19" d="M1385.64,290.62c1.33,0.86,11.91,1.63,11.31.36,1.69,3.58-5.86,5-7.48,4.56C1386.61,294.73,1385.76,290.68,1385.64,290.62Z" transform="translate(-1375.44 -171.31)"/><path class="cls-19" d="M1386.66,292c0.32,0,5,1.31,5,1.3C1391.48,298.07,1385.11,291.71,1386.66,292Z" transform="translate(-1375.44 -171.31)"/><path class="cls-1" d="M1485.67,441.57l0-.13Z" transform="translate(-1375.44 -171.31)"/><path class="cls-75" d="M1485.52,442.08l0.14-.51Z" transform="translate(-1375.44 -171.31)"/><path class="cls-76" d="M1494.65,399.36c2.19-5.36-1.53-8.31-3.68-13.11l-9.81,7.18c8.38,9.69,7.28,35.21,4.75,47.11a120.46,120.46,0,0,0,1.64-35.9c-0.21-1.89-3.09-9-2.77-10.22,1.49-5.79,6.53-4.76,8.58-.69,1.81,3.58-.54,8.77-1,12.78-0.91,8.52-.78,17.46-0.86,26,0,5,2.71,13.89-.11,18.29-3.72,5.8-6.49,3-10.78,1.54-2.17,4,4.39,4.88,7.15,4.12,7.62-2.11,5.79-10.56,5.32-16.54-0.89-11.38-2.92-29.73,1.53-40.6C1496.18,395.61,1493.12,403.1,1494.65,399.36Z" transform="translate(-1375.44 -171.31)"/><path class="cls-77" d="M1485.7,441.44c0.07-.29.15-0.59,0.21-0.9C1485.85,440.85,1485.78,441.14,1485.7,441.44Z" transform="translate(-1375.44 -171.31)"/><path class="cls-1" d="M1534.67,377.41c-2-.73-12.06-8.39-6.54-6-13.22-17.93-3.38-39.22-7.44-59.23-4.71-23.23-27.42-35.81-48.63-23.83-8.81,5-14.12,14.31-22.76,19.29-7.55,4.35-12.3-.64-12.36,7.45,0,3.66,10.31,53,1.9,52.21,1,0.09-5.06-21.59-5.27-24.25-0.81-10.2-1.22-19.33-4.45-29.65-1.89-6-4.33-12-5.4-18.24-0.76-4.46,1.45-14.31-1.08-17.8-5.29-7.29-9.84,4.08-13,10.3-4.46,8.73-3.81,16.23-4.26,26-0.53,11.4-2.93,23.34-1.22,34.72,0.59,3.91,11.38,27.45,11.2,27.59-5.91,4.55-13.37-15.18-13.44-15.16-4.48,1.45-1.11,18.4-.27,21.13,3,9.79,7.9,12.51,15.51,16.77,4,2.22,12.45,11.63,17.69,7.26,3.73-3.11-5.16-22.77,3.24-22.77,0.22,0,.62,10.23.77,11,1.79,8.53,8.53,13.16,12.58,20.38,1.44,2.56,7.71,34.15,7.62,34.17,4-.79,3-43.18,3.3-46.56,0.72-8.89,1.95-17.92,1.08-26.85-0.55-5.67-6.76-17.71-4.72-22.76,0.44-1.09,8.4,17,8.9,19,1.61,6.66.33,12,8.19,11.27,6.83-.66,14.84-8.07,18.75-13.14a35.89,35.89,0,0,0,6.3-13.11c0.79-3,0-9.91,2.3-12.27-0.41.42,3.17,14.23,3.62,16,1.58,6.2,3.59,14.77,9.22,18.56,6.63,4.46,11.91,1.4,15.43,10.14,1.81,4.49-.48,16.93,3.32,20.11,0.33,0.27,1.43-14.45,1.49-15.29,0.26-3.71,3.72-14.48-1.56-16.41h0Z" transform="translate(-1375.44 -171.31)"/><path class="cls-78" d="M1405.57,227.43c-0.08.38-.35,6.53,0.76,5.77,2-1.38,1.59-3.61,4.28-4.55,1.66-.58,0,3.51,1.25,3.06,3-1.09,6.25-5.33,8.94-.33,1.68,3.12-.74,4.89-2.83,6.75-5.37,4.77-13,3.7-17.15,10.68,0,0-4.78-9.27-4.93-10.5C1395,231.28,1398.08,227.31,1405.57,227.43Z" transform="translate(-1375.44 -171.31)"/><path class="cls-79" d="M1404,228.05c-2,8.55,3.68,1.88,5.62,1.7a15.34,15.34,0,0,1,.64,3.29c0.79,1,5.29-3.93,7-3.12,3.15,1.5-8,6.69-7.67,6.51-4.36,2.2-9.19,2.61-9.5,8.76C1396.39,239.41,1393.75,228.15,1404,228.05Z" transform="translate(-1375.44 -171.31)"/><path class="cls-80" d="M1385,217.13s4.14,3.43,5.67,6.4S1392.85,218.85,1385,217.13Z" transform="translate(-1375.44 -171.31)"/><path class="cls-81" d="M1444.52,222.59a7.94,7.94,0,0,0-2,6.4C1443,233,1446.2,221.19,1444.52,222.59Z" transform="translate(-1375.44 -171.31)"/><path class="cls-82" d="M1398.06,254.11s-2.61,11.54-8.89,19.5C1387,276.42,1397.29,270.33,1398.06,254.11Z" transform="translate(-1375.44 -171.31)"/><path class="cls-83" d="M1445.33,313.34c12.48-6,19.15-19.28,31.61-25.06,8.41-3.9,18.33-4.41,26,1.34,6.28,4.69,7.56,9.7,1.51,15.13-6.2,5.58-15.42,6.64-22.05,11.87-5.22,4.11-9,10.11-14.76,13.48-5.48,3.18-12.43,1.23-17.41,4.89-3.41,2.51-2.74,5.81-4.92,8.72C1447.64,340.65,1434.51,308.84,1445.33,313.34Z" transform="translate(-1375.44 -171.31)"/><path class="cls-84" d="M1467.34,298A30.67,30.67,0,0,1,1488,287.58c6.88-.4,20.36,3.2,10.43,10.15-5.42,3.79-16.84,4.78-23.22,5.76C1470,304.29,1459.48,305.23,1467.34,298Z" transform="translate(-1375.44 -171.31)"/><g class="cls-41"><path class="cls-85" d="M1429.26,511.86c-5.15,2.49-11.61,3-15.21-2.22-0.69,3.05.4,4.61,0.59,8.21,0.25,4.74-5.7,7.44,3.44,7.2-0.23-9.2,8.16-12.74,6.7-1.89,2.59-2.68,4.12-7.74,4.47-11.3C1420.4,516.15,1428.83,516.1,1429.26,511.86Z" transform="translate(-1375.44 -171.31)"/></g><g class="cls-41"><path class="cls-86" d="M1468.33,514.26c-3.77,2.5-12,6.77-14.67.46-1.21,4.5,3.69,9.42-1.92,13.12a5.06,5.06,0,0,0,4.51,2.31c0.78-8.41,9.46-13.11,6.37-1.84,4.38-3.17,6.23-8.82,5.7-14.06C1465.8,515.94,1469,520.57,1468.33,514.26Z" transform="translate(-1375.44 -171.31)"/></g><g class="cls-41"><path class="cls-87" d="M1491.59,455.36c-0.38,1.42-9.48,2.66-11.67-1.58-1.55,3.07,2.89,8.9-2.07,10.9a5.68,5.68,0,0,0,4.93,1.91c0.26-5.91,4.83-13,6.61-2.19,2.51-1.91,1.51-6.37,2.2-9h0Z" transform="translate(-1375.44 -171.31)"/></g><g class="cls-41"><path class="cls-88" d="M1541.74,459.45c-3.93,2.35-8.63,2.82-12.46.08-0.67,3.74,1.47,12.27,5.78,12.15-1.32-7.6,3.59-12,6.07-2.12,2-2.52.79-7.35,0.61-10.12C1535.92,462.93,1542,463.33,1541.74,459.45Z" transform="translate(-1375.44 -171.31)"/></g></g></g></svg>