<svg id="Layer_1" data-name="Layer 1" xmlns="http://www.w3.org/2000/svg" viewBox="0 0 223.45 218.42"><defs><style>.cls-1{fill:#a66100;}.cls-1,.cls-2,.cls-3,.cls-4,.cls-5,.cls-6{fill-rule:evenodd;}.cls-2{fill:#1d2e2f;}.cls-3{fill:#febc1e;}.cls-4{fill:#f8d173;}.cls-5{fill:#bf7100;}.cls-6{fill:#ec2915;}</style></defs><title>anim_46</title><g id="shape"><path class="cls-1" d="M1526.65,1201.58c-42.63-11.13-108.41,35-68,44.1,19,4.29,27.56,73.49,27.56,73.49s6.74,6.74,5.51,11c5.51-1.84,3.67-9.19,3.67-9.19s7.35,3.67,7.35,7.35c3.67-3.67,1.84-11,1.84-11s6.74,3.67,7.35,7.35c4.29-3.06,1.84-11,1.84-11s4.9,4.29,5.51,7.35c4.29-3.06,3.67-11,3.67-11s3.57-.9,9.19,7.35c4.9-13.47-11-34.91-11-34.91s9.19,1.84,23.89,14.7c2.45-13.47-23.89-31.23-23.89-31.23s17.15,1.12,29.4,11c-0.08-12.4-25.72-31.23-25.72-31.23s19.86,1.59,27.56,14.7c3.67-12.25-25.72-34.91-25.72-34.91s26,3.66,38.58,31.23C1566.46,1251.19,1568.29,1212.45,1526.65,1201.58Z" transform="translate(-1342.24 -1161.76)"/></g><g id="shape-2" data-name="shape"><path class="cls-2" d="M1385.18,1366.94c-9.31-2-7.57-6.49-9.83-.65-1.68,4.34-1.23,11,10.22,13.51a13.47,13.47,0,0,0,7-.17c7.73-1.47,9.5-9.33,9.5-9.33s-2.65-.45-8.88-1.23C1391,1368.37,1388.26,1367.61,1385.18,1366.94Zm74.13-.65c-2.25-5.84-.52-1.38-9.83.65-3.08.67-5.79,1.43-8,2.14-6.23.78-8.88,1.23-8.88,1.23s1.77,7.85,9.5,9.33a13.47,13.47,0,0,0,7,.17C1460.54,1377.3,1461,1370.63,1459.31,1366.29Z" transform="translate(-1342.24 -1161.76)"/></g><g id="shape-3" data-name="shape"><path class="cls-3" d="M1420.08,1199.52c-53.74,0-90.95,85.89-73.49,137.8s129.07,47.77,147-1.84S1473.82,1199.52,1420.08,1199.52Z" transform="translate(-1342.24 -1161.76)"/></g><g id="shape-4" data-name="shape"><path class="cls-4" d="M1346.59,1337.32a41.58,41.58,0,0,0,2.39,5.57c3.14,0.45,14,.56,17.63-18.41,5.72-30.23-10.75-55.63-15.62-62.34C1341.64,1287.21,1339.19,1315.31,1346.59,1337.32Zm142.76-75.42c-4.66,6.34-21.58,32-15.79,62.57,3.2,16.89,12.18,18.65,16.33,18.52a41.28,41.28,0,0,0,3.68-7.51C1501.18,1314.43,1498.74,1286.77,1489.35,1261.9Z" transform="translate(-1342.24 -1161.76)"/></g><g id="Elipsa_50" data-name="Elipsa 50"><path class="cls-5" d="M1484.7,1257.51l3,0.21c-13.23-31.9-38-58.21-67.62-58.21s-54.1,26-67.31,58l2-.17,4.81,1.35,0.55,0.87c-1.24,1.4-4.11,5.11-2,7.42s6.09,1.08,8,.41l0.59,0.64c-0.9,2.17-2.58,7.11-.17,9,2.2,1.69,6.75.1,9.27-1,0.44,0.32.89,0.62,1.34,0.92-0.58,2.81-1.26,8.27,1.52,10.88,3.84,3.6,13.2-2.14,13.2-2.14s-3.76,12.37,3.2,15.25c6.23,2.58,12.09-6.46,13.27-8.41l0.19,1.79L1420,1310l11.34-15.64,0.2-1.84c1.26,1.82,7.86,10.84,13.27,8.46,6-2.64,3.2-15.25,3.2-15.25s8.15,5.5,13.2,2.14c3.64-2.43,2.6-7.93,1.73-10.8l1.08-.76c1.94,1.06,5.13,2.32,7.48.76,2.61-1.74,2.07-6.19,1.58-8.53l1-1c2.12,0.62,6.17,1.47,7.73-.44s-0.64-5.52-1.85-7.14c0.27-.41.51-0.83,0.77-1.25Z" transform="translate(-1342.24 -1161.76)"/></g><g id="shape-5" data-name="shape"><path class="cls-6" d="M1441.6,1169.31c-7.88-11.83-23.87-9.7-22.56,5.95,0.06,0.77.12,1.51,0.18,2.24-8-5.23-17.48-.31-13.44,10.16,3.83,9.92,5.74,16.48,2.53,24-1.9,2.13-2.58,3.64-2.41,4.68-4.07,8.51,6,3.76,9.8,2.08l0.39-.18c1.56-.17,3-0.38,4.1-0.52,8.16-1.08,16.53-4.8,20.33-10.42C1448.75,1195.11,1449.48,1181.14,1441.6,1169.31Zm-12.31,110.35c1.36-1.55,1.84-2.65,1.72-3.42,2.91-6.21-4.27-2.74-7-1.52l-0.28.13c-1.11.12-2.15,0.27-2.93,0.38-5.83.79-11.81,3.5-14.52,7.6-5.88,8.88-6.4,19.08-.77,27.71s17.05,7.08,16.12-4.34c0-.56-0.09-1.1-0.13-1.64,5.7,3.82,12.48.22,9.6-7.41C1428.36,1289.91,1427,1285.12,1429.28,1279.66Z" transform="translate(-1342.24 -1161.76)"/></g><g id="shape-6" data-name="shape"><path class="cls-2" d="M1435.7,1229.14c-3.55,0-6.43,3.29-6.43,7.35s2.88,7.35,6.43,7.35,6.43-3.29,6.43-7.35S1439.25,1229.14,1435.7,1229.14Zm-33.07,0c-3.55,0-6.43,3.29-6.43,7.35s2.88,7.35,6.43,7.35,6.43-3.29,6.43-7.35S1406.18,1229.14,1402.63,1229.14Z" transform="translate(-1342.24 -1161.76)"/></g><g id="Elipsa_8" data-name="Elipsa 8"><path class="cls-3" d="M1432.61,1254.32a17.83,17.83,0,0,0-30.57,0c-7.91,1.86-13.19,5.1-13.19,8.81s5.28,7,13.19,8.81c3.1,5.15,15.28,14.16,15.28,14.16s12.19-9,15.28-14.16c7.91-1.86,13.19-5.1,13.19-8.81S1440.52,1256.18,1432.61,1254.32Z" transform="translate(-1342.24 -1161.76)"/></g></svg>