<svg id="Layer_1" data-name="Layer 1" xmlns="http://www.w3.org/2000/svg" viewBox="0 0 198.09 196.67"><defs><style>.cls-1{fill:#1d2e2f;}.cls-1,.cls-2,.cls-3,.cls-5{fill-rule:evenodd;}.cls-2{fill:#646464;}.cls-3{fill:#898787;}.cls-4{opacity:0.4;}.cls-5{fill:#fff;}</style></defs><title>anim_27</title><g id="feet"><path class="cls-1" d="M165.77,1941.41c-4.54,2.23-.16,12.06,12.5,13.55s15.31-10.28,15.31-10.28-4.13-.7-14.43-1.92S170.31,1939.17,165.77,1941.41Zm90.08-1.1c-2.45-6.35-.56-1.5-10.7.71a87,87,0,0,0-16.66,5.26s3.78,11.46,16.24,8.74S257.67,1945,255.85,1940.3Z" transform="translate(-112.1 -1758.76)"/></g><g id="body"><path class="cls-2" d="M292.84,1847.88c-4.3-19.65-12.78-39.09-24.29-54.78,3.56-9.44,8.28-25.83,1.42-27.34-4.41-1-13.39,3.07-20.53,7.31-1.44-1.13-2.9-2.21-4.39-3.22-10.27-7-21.69-11.09-33.91-11.09h0c-12.22,0-23.64,4.12-33.91,11.09-1.2.81-2.37,1.67-3.54,2.55-6.93-4-15.2-7.56-19.38-6.64-6.45,1.42-2.67,16,.76,25.54-12.2,16-21.16,36.16-25.62,56.57-9.22,8.71-18.59,34.46-17.23,44.57,1.33,9.93,11.11,14.07,16.29,6.42a83.45,83.45,0,0,0,2.63,9.89c9.52,28.3,44.75,41.29,80,40.43,35.25,0.86,70.48-12.13,80-40.43a83.45,83.45,0,0,0,2.63-9.89c5.17,7.65,15,3.51,16.29-6.42C311.42,1882.34,302.06,1856.6,292.84,1847.88Z" transform="translate(-112.1 -1758.76)"/></g><g id="head"><path class="cls-3" d="M263.67,1801.49a66.84,66.84,0,0,0-11.18-11.95,49.9,49.9,0,0,0-16.57-10,62.7,62.7,0,0,0-23.78-4.53l-1,0-1,0a62.69,62.69,0,0,0-23.78,4.53,49.9,49.9,0,0,0-16.57,10,66.82,66.82,0,0,0-11.18,12c-6.61,9.13-25.47,36.74-3.67,50.13s35.38-5.39,55.21-5.39l1,0,1,0c19.82,0,33.4,18.78,55.21,5.39S270.28,1810.62,263.67,1801.49Z" transform="translate(-112.1 -1758.76)"/></g><g id="belly" class="cls-4"><path class="cls-3" d="M210.15,1884.48c-27.06,0-49-3.47-49,17.17s21.94,35.36,49,35.36,49-14.71,49-35.36S237.21,1884.48,210.15,1884.48Z" transform="translate(-112.1 -1758.76)"/></g><g id="eye"><path class="cls-5" d="M178.15,1799.45a13,13,0,0,0-8.32,23c6-1.19,12.39-2.13,19.15-2.81A13,13,0,0,0,178.15,1799.45Zm66,0a13,13,0,0,0-11.06,19.8c7.06,0.57,13.79,1.44,20.07,2.56A13,13,0,0,0,244.15,1799.45Z" transform="translate(-112.1 -1758.76)"/></g><g id="eye-2" data-name="eye"><path class="cls-1" d="M178.15,1805.45a6,6,0,1,0,6,6A6,6,0,0,0,178.15,1805.45Zm66,0a6,6,0,1,0,6,6A6,6,0,0,0,244.15,1805.45Z" transform="translate(-112.1 -1758.76)"/></g><g id="nose"><path class="cls-1" d="M211.71,1811c-16.57,0-26.57,17-21.48,26.1,2.13,3.81,6.41,5.16,11.64,5.64a10,10,0,0,0,18.48.17c5.88-.3,10.77-1.47,12.83-5.8C237.15,1828.79,228.28,1811,211.71,1811Z" transform="translate(-112.1 -1758.76)"/></g></svg>