<svg id="Layer_1" data-name="Layer 1" xmlns="http://www.w3.org/2000/svg" viewBox="0 0 243.95 196.66"><defs><style>.cls-1{fill:#1d2e2f;}.cls-1,.cls-2,.cls-3{fill-rule:evenodd;}.cls-2{fill:#8b5c17;}.cls-3{fill:#aa7425;}</style></defs><title>anim_17</title><g id="feet"><path class="cls-1" d="M-506.95,1275.48c-10.14-2.21-8.25-7.06-10.7-.71-1.82,4.72-1.34,12,11.12,14.71a14.66,14.66,0,0,0,7.67-.18c8.41-1.6,10.34-10.15,10.34-10.15s-2.88-.49-9.67-1.34C-500.65,1277-503.59,1276.21-506.95,1275.48Zm80.7-.71c-2.45-6.35-.56-1.5-10.7.71-3.36.73-6.3,1.55-8.76,2.33-6.79.85-9.67,1.34-9.67,1.34s1.93,8.55,10.34,10.15a14.66,14.66,0,0,0,7.67.18C-424.92,1286.76-424.43,1279.49-426.25,1274.76Z" transform="translate(555.82 -1093.22)"/></g><g id="tail"><path class="cls-2" d="M-336.89,1110.93c-71-27.56-55.51,144.81-83.22,112-4.65-5.5-30.94-6.42-36.51-2.05s-0.33,12.37,4.32,17.87c9.61,11.38-57.25,27.17,17,22S-265.91,1138.49-336.89,1110.93Z" transform="translate(555.82 -1093.22)"/></g><g id="body"><path class="cls-3" d="M-436.46,1104.7c-10.42-7.21-22-11.48-34.49-11.48h0c-12.45,0-24.07,4.26-34.49,11.48-33.16,22.88-54.16,75.58-49.81,117a92.36,92.36,0,0,0,4.3,21.56c9.52,28.3,44.75,41.29,80,40.43,35.25,0.86,70.48-12.13,80-40.43a92.36,92.36,0,0,0,4.3-21.56C-382.3,1180.28-403.3,1127.58-436.46,1104.7Z" transform="translate(555.82 -1093.22)"/></g><g id="eye"><path class="cls-1" d="M-460,1123.48c-3.87,0-7,3.58-7,8s3.13,8,7,8,7-3.58,7-8S-456.09,1123.48-460,1123.48Zm-24,0c-3.87,0-7,3.58-7,8s3.13,8,7,8,7-3.58,7-8S-480.08,1123.48-484,1123.48Z" transform="translate(555.82 -1093.22)"/></g><g id="beak"><path class="cls-1" d="M-471.32,1143.48c-30.82,0-61.63,9.87-45.49,25.23s8.07,42.77,45.49,42.77,28.61-28,45.49-42.77S-440.5,1143.48-471.32,1143.48Z" transform="translate(555.82 -1093.22)"/></g></svg>