<svg id="Layer_1" data-name="Layer 1" xmlns="http://www.w3.org/2000/svg" viewBox="0 0 256.62 196.67"><defs><style>.cls-1{fill:#1d2e2f;}.cls-1,.cls-2,.cls-3,.cls-4{fill-rule:evenodd;}.cls-2{fill:#71cc36;}.cls-3{fill:#68bc31;}.cls-4{fill:#fff;}</style></defs><title>anim_38</title><g id="feet"><path class="cls-1" d="M-177.1,2938.41c-4.54,2.23-.16,12.06,12.5,13.55s15.31-10.28,15.31-10.28-4.13-.7-14.43-1.91S-172.56,2936.17-177.1,2938.41ZM-87,2937.3c-2.45-6.35-.56-1.5-10.7.71a87,87,0,0,0-16.66,5.26s3.78,11.46,16.24,8.74S-85.2,2942-87,2937.3Z" transform="translate(251.55 -2755.76)"/></g><g id="tail"><path class="cls-2" d="M-16,2871.62c-6.87,5.61,21.51,32.6-7.92,35.86s-40-9.87-82.4-28.86c-45.85-20.52-32.34,45.24,4.75,44.86,42.17-.42,76.15,10.63,97.15-1.71C19.75,2907.58-9.1,2866-16,2871.62Z" transform="translate(251.55 -2755.76)"/></g><g id="body"><path class="cls-3" d="M-16.78,2846.05a4.54,4.54,0,0,0-2.27.82,10,10,0,0,0-1.2-2.26,4.51,4.51,0,0,0,2.39-4.31,4.55,4.55,0,0,0-4.88-4.18,4.52,4.52,0,0,0-4.2,4.4,9.87,9.87,0,0,0-2-.06c-0.24,0-.47.08-0.7,0.12a4.54,4.54,0,0,0-4.78-3.61,4.54,4.54,0,0,0-4.22,4.84,4.49,4.49,0,0,0,2,3.43,9.61,9.61,0,0,0-1.34,4.09c-5.47,1.12-10.44-3.6-12.89-7.91a150.49,150.49,0,0,0-17.11-41.75A26.55,26.55,0,0,0-65.72,2789a27.21,27.21,0,0,0-27.41-27,27.65,27.65,0,0,0-9.66,1.76,58.18,58.18,0,0,0-28.93-8h0a57.93,57.93,0,0,0-28.15,7.57,27.74,27.74,0,0,0-8.44-1.32,27.21,27.21,0,0,0-27.41,27,26.55,26.55,0,0,0,1.46,8.65,149.89,149.89,0,0,0-18.31,43.67c-2.43,4.33-7.43,9.11-12.93,8a9.6,9.6,0,0,0-1.34-4.09,4.49,4.49,0,0,0,2-3.43A4.54,4.54,0,0,0-229,2837a4.54,4.54,0,0,0-4.78,3.61c-0.24,0-.46-0.1-0.7-0.12a9.87,9.87,0,0,0-2,.06,4.52,4.52,0,0,0-4.2-4.4,4.55,4.55,0,0,0-4.88,4.18,4.51,4.51,0,0,0,2.39,4.31,10,10,0,0,0-1.2,2.26,4.54,4.54,0,0,0-2.27-.82,4.55,4.55,0,0,0-4.88,4.18,4.53,4.53,0,0,0,4.22,4.84,4.56,4.56,0,0,0,3.23-1,9.89,9.89,0,0,0,1,1.73,4.46,4.46,0,0,0-1.25,2.76,4.54,4.54,0,0,0,4.22,4.84,4.54,4.54,0,0,0,4.78-3.6,10.14,10.14,0,0,0,2.68-.34,23.39,23.39,0,0,0,16.7,1.39,115,115,0,0,0-.07,23.51,92.28,92.28,0,0,0,4.29,21.43c9.52,28.3,44.75,41.29,80,40.43,35.25,0.86,70.48-12.13,80-40.43a92.28,92.28,0,0,0,4.29-21.43,115,115,0,0,0-.07-23.51,23.39,23.39,0,0,0,16.7-1.39,10.13,10.13,0,0,0,2.68.34,4.54,4.54,0,0,0,4.78,3.6,4.54,4.54,0,0,0,4.22-4.84,4.46,4.46,0,0,0-1.25-2.76,9.87,9.87,0,0,0,1-1.73,4.56,4.56,0,0,0,3.23,1,4.53,4.53,0,0,0,4.22-4.84A4.55,4.55,0,0,0-16.78,2846.05Z" transform="translate(251.55 -2755.76)"/></g><g id="head"><path class="cls-2" d="M-65.72,2789a27.21,27.21,0,0,0-27.41-27,27.66,27.66,0,0,0-9.68,1.76,58.18,58.18,0,0,0-28.91-8h0a57.91,57.91,0,0,0-28.11,7.58,27.73,27.73,0,0,0-8.48-1.33,27.21,27.21,0,0,0-27.41,27,26.55,26.55,0,0,0,1.46,8.65c-0.26.41-.5,0.84-0.75,1.25,23.54,50.18,39.24,65.89,64.24,65.1,24.42-.78,37.36-17.49,63.15-63.8l-0.32-.55A26.55,26.55,0,0,0-65.72,2789Z" transform="translate(251.55 -2755.76)"/></g><g id="eye"><path class="cls-4" d="M-75.34,2777.53c-5.62-8.46-16-11.51-23.15-6.82s-8.4,15.34-2.78,23.8,16,11.51,23.15,6.82S-69.72,2786-75.34,2777.53Z" transform="translate(251.55 -2755.76)"/></g><g id="eye-2" data-name="eye"><path class="cls-4" d="M-160.95,2770.7c-7.16-4.69-17.52-1.63-23.15,6.82s-4.38,19.11,2.78,23.8,17.52,1.63,23.15-6.82S-153.79,2775.39-160.95,2770.7Z" transform="translate(251.55 -2755.76)"/></g><g id="eye-3" data-name="eye"><path class="cls-1" d="M-88.72,2774c-3.87,0-7,5.82-7,13s3.13,13,7,13,7-5.82,7-13S-84.85,2774-88.72,2774Zm-82,0c-3.87,0-7,5.82-7,13s3.13,13,7,13,7-5.82,7-13S-166.85,2774-170.72,2774Z" transform="translate(251.55 -2755.76)"/></g><g id="nose"><path class="cls-1" d="M-121.8,2844c-2.26,0-4.08,2.24-4.08,5s1.83,5,4.08,5,4.08-2.24,4.08-5S-119.55,2844-121.8,2844Zm-19.83,0c-2.25,0-4.08,2.24-4.08,5s1.83,5,4.08,5,4.08-2.24,4.08-5S-139.38,2844-141.64,2844Z" transform="translate(251.55 -2755.76)"/></g></svg>