<svg id="Layer_1" data-name="Layer 1" xmlns="http://www.w3.org/2000/svg" viewBox="0 0 756.2 613.06"><defs><style>.cls-1{fill:#e7ca00;}.cls-2{fill:#e48a00;}.cls-3{fill:#e1ab00;}.cls-4{fill:#e36b07;}.cls-5{fill:#875224;}</style></defs><title>anim_04</title><path class="cls-1" d="M-770.31,3247.62H-1061a41.1,41.1,0,0,1-41.1-41.1,41.1,41.1,0,0,1,41.1-41.1h290.66a41.1,41.1,0,0,1,41.1,41.1A41.1,41.1,0,0,1-770.31,3247.62Z" transform="translate(1485.42 -2635.05)"/><circle class="cls-2" cx="458.24" cy="98.04" r="98.04"/><circle class="cls-3" cx="458.24" cy="98.04" r="66.78"/><circle class="cls-2" cx="120.92" cy="98.04" r="98.04"/><circle class="cls-3" cx="120.92" cy="98.04" r="66.78"/><path class="cls-4" d="M-1257.73,3247.62h349.29A174.64,174.64,0,0,0-1083.09,3073a174.64,174.64,0,0,0-174.64,174.64" transform="translate(1485.42 -2635.05)"/><circle class="cls-2" cx="278.14" cy="432.01" r="145.55"/><path class="cls-1" d="M-1485.42,2847.93c0,153.61,124.53,278.14,278.14,278.14s278.14-124.53,278.14-278.14h-556.28Z" transform="translate(1485.42 -2635.05)"/><path class="cls-3" d="M-1485.42,2847.93c0,153.61,124.53,278.14,278.14,278.14v-278Z" transform="translate(1485.42 -2635.05)"/><circle class="cls-1" cx="278.14" cy="278.14" r="213.05"/><path class="cls-3" d="M-1207.28,3126.24c-117.66,0-213-95.38-213-213s95.38-213,213-213" transform="translate(1485.42 -2635.05)"/><circle class="cls-2" cx="274.18" cy="357.4" r="95.89"/><path class="cls-5" d="M-1276.91,2899.88a12.33,12.33,0,0,1-12.33-12.33,25.18,25.18,0,0,0-25.15-25.15,25.18,25.18,0,0,0-25.15,25.15,12.33,12.33,0,0,1-12.33,12.33,12.33,12.33,0,0,1-12.33-12.33,49.87,49.87,0,0,1,49.81-49.81,49.87,49.87,0,0,1,49.81,49.81A12.33,12.33,0,0,1-1276.91,2899.88Z" transform="translate(1485.42 -2635.05)"/><path class="cls-5" d="M-1062.69,2899.88a12.33,12.33,0,0,1-12.33-12.33,25.18,25.18,0,0,0-25.15-25.15,25.18,25.18,0,0,0-25.15,25.15,12.33,12.33,0,0,1-12.33,12.33,12.33,12.33,0,0,1-12.33-12.33,49.87,49.87,0,0,1,49.81-49.81,49.87,49.87,0,0,1,49.81,49.81A12.33,12.33,0,0,1-1062.69,2899.88Z" transform="translate(1485.42 -2635.05)"/><path class="cls-5" d="M-1253.06,2992.1a8.88,8.88,0,0,1-8.88-8.88,8.88,8.88,0,0,1,8.88-8.88,33.18,33.18,0,0,0,33.15-33.14,8.88,8.88,0,0,1,8.88-8.88,8.88,8.88,0,0,1,8.88,8.88A51,51,0,0,1-1253.06,2992.1Z" transform="translate(1485.42 -2635.05)"/><path class="cls-5" d="M-1169,2992.1a51,51,0,0,1-50.9-50.9,8.88,8.88,0,0,1,8.88-8.88,8.88,8.88,0,0,1,8.88,8.88,33.18,33.18,0,0,0,33.14,33.14,8.88,8.88,0,0,1,8.88,8.88A8.88,8.88,0,0,1-1169,2992.1Z" transform="translate(1485.42 -2635.05)"/><polygon class="cls-5" points="274.38 321.24 238.13 276.21 310.63 276.21 274.38 321.24"/><path class="cls-1" d="M-1061,3248.11a70.05,70.05,0,0,0-70.05-70.05,70.05,70.05,0,0,0-70.05,70.05H-1061Z" transform="translate(1485.42 -2635.05)"/><path class="cls-1" d="M-1238.51,3248.11a70.05,70.05,0,0,0-70.05-70.05,70.05,70.05,0,0,0-70.05,70.05h140.11Z" transform="translate(1485.42 -2635.05)"/><path class="cls-2" d="M-1373.5,3247.43a24.63,24.63,0,0,1,24.63-24.63,24.63,24.63,0,0,1,24.63,24.63" transform="translate(1485.42 -2635.05)"/><path class="cls-2" d="M-1309.8,3247.43a24.63,24.63,0,0,1,24.63-24.63,24.63,24.63,0,0,1,24.63,24.63" transform="translate(1485.42 -2635.05)"/><path class="cls-2" d="M-1194,3247.43a24.63,24.63,0,0,1,24.63-24.63,24.63,24.63,0,0,1,24.63,24.63" transform="translate(1485.42 -2635.05)"/><path class="cls-2" d="M-1135.14,3247.43a24.63,24.63,0,0,1,24.63-24.63,24.63,24.63,0,0,1,24.63,24.63" transform="translate(1485.42 -2635.05)"/></svg>