<svg xmlns="http://www.w3.org/2000/svg" viewBox="0 0 379.32 294.6"><defs><style>.cls-1{isolation:isolate;}.cls-2{fill:#4a555c;}.cls-3{fill:#898c8d;}.cls-10,.cls-4,.cls-5,.cls-7{fill:#96999b;}.cls-23,.cls-4{opacity:0.3;}.cls-10,.cls-11,.cls-4,.cls-5,.cls-8,.cls-9{mix-blend-mode:multiply;}.cls-21,.cls-24,.cls-5{opacity:0.5;}.cls-6{fill:#1d1d1b;}.cls-20,.cls-8{opacity:0.4;}.cls-9{fill:#080a08;}.cls-12{fill:#452d09;}.cls-13{fill:#7e5730;}.cls-14,.cls-20,.cls-23,.cls-24{fill:#fff;}.cls-15{fill:#2d3438;}.cls-16{fill:#202529;}.cls-17{fill:#414b51;}.cls-18{fill:#374045;}.cls-19{mix-blend-mode:screen;}.cls-20{mix-blend-mode:overlay;}.cls-22{fill:#97d3df;}</style></defs><title>anim_100</title><g class="cls-1"><g id="Layer_1" data-name="Layer 1"><path class="cls-2" d="M2821.79,301.47c-4.17-12.45-6.41-23.78-2.06-36.45,3.29-9.59,9.36-17.76,12.05-27.15,7.2-25.09-24.61-37.28-40.55-19-9.88,24.41-16.17,48.93-4.23,76.63,5.08,11.78,15.69,35.1,28.84,39.93,19.4,7.12,8.28-27,6-34h0Z" transform="translate(-2675.78 -122.42)"/><path class="cls-3" d="M2822,334.74c-13.25,6.27-32.67-38.51-35.5-46.58-7-20-6.7-42.71,2.07-62.26,7.12-15.88,35.15-20.08,42.21-1.18,7.17,19.22-19.55,39.21-31.39,19.51a18.61,18.61,0,0,0,26.44,5.5c-4.66,9-19.47,35.76-31.28,16.84a14,14,0,0,0,22.67,1.43c-3.81,11.53-1.27,22.33,2.44,33.51,2.24,6.74,12.53,28.41,2.34,33.22h0Z" transform="translate(-2675.78 -122.42)"/><path class="cls-4" d="M2822.74,310.32c-4.69-14-10.42-27.53-5.53-42.32a14,14,0,0,1-22.67-1.43c11.88,19,26.66-7.91,31.28-16.84a18.54,18.54,0,0,1-26.44-5.5c12.68,21.1,42.06-3.35,29.65-22.95-5.91-9.34-19.23-11.09-28.87-7.09-10.69,4.43-13.19,14.65-15.8,25-6.19,24.58-.84,48.17,11.83,69.81,4.62,7.89,11,19.77,19.43,24,14.57,7.27,9.49-15.65,7.13-22.68C2819.35,300.22,2824.42,315.32,2822.74,310.32Zm-12.09,5.13c-0.23,1.76-12.9-13.79-14.27-16.66-1.57-3.29-11.87-24.22-5.73-27.4,8.67-4.49,10.27,14.75,11.12,18.65,1.6,7.39,9.83,18.38,8.88,25.41h0Z" transform="translate(-2675.78 -122.42)"/><path class="cls-5" d="M2822.74,310.32c-4.69-14-10.42-27.53-5.53-42.32a14.4,14.4,0,0,1-16.26,4.13c6.44,7.16,5.73,14.58,8.08,23.44,1.41,5.31,9.16,16.34,8.17,21.76-2.87,15.65-26.57-23.87-28.78-30.39-2.52-7.44-9.06-31.36,1-36.22,10.45-5.07,34.23,16.94,16.1,21.23,12,0.3,15.88-13.61,20.34-22.22a18.54,18.54,0,0,1-26.44-5.5c12.68,21.1,42.06-3.35,29.65-22.95-5.91-9.34-19.23-11.09-28.87-7.09-10.69,4.43-13.19,14.65-15.8,25-6.19,24.58-.84,48.17,11.83,69.81,4.62,7.89,11,19.77,19.43,24,14.57,7.27,9.49-15.65,7.13-22.68C2819.35,300.22,2824.42,315.32,2822.74,310.32Z" transform="translate(-2675.78 -122.42)"/><path class="cls-6" d="M2859.56,148.31c20,18.15,16.09,57,2.6,78,14.54-22.7,20.11-57.15-2.6-78h0Z" transform="translate(-2675.78 -122.42)"/><path class="cls-6" d="M2886.92,173.87c2.4,10.69-.32,24.3-5.09,34.38-1.45,3.06-21.7,28.42-22,27.73,1.42,2.86,21.11-22.61,22.41-25.27a56.63,56.63,0,0,0,4.72-36.84h0Z" transform="translate(-2675.78 -122.42)"/><path class="cls-2" d="M3054.34,369.94c-3.17-11.54-19-13.4-28.42-17.22-15.12-6.13-24.24-16.6-26.68-32.71-5.42-35.79-8.18-70.07-23.35-103.63-26.29-58.16-90.38-103.43-156.11-90.16-16,3.23-30.87,10-42.41,21.68-12.58,12.75-26.14,26.34-37.93,39.74-10.39,11.81-8.35,31.11-.09,43.9,4.1,6.34,10,9.21,15.77,12.72,7.28,4.42,12,7.38,21.26,7.25,6.12-.08,21.49-8.1,26.21-6,0.75,0.33,3.91,5.5,4.3,5.89,2.73,2.69,6.09,3.34,9,5.52,4.31,3.29,3.32,3.23,5.52,9a59.4,59.4,0,0,0,3.82,7.38c5.54,10,11.89,20.28,19.52,28.81,4.65,5.2,10.15,10.63,16.29,14l3.68,1.84q5.66-.35,3.52,4.23c1.83,2.05.77,3.27,3.68,4.87,3.39,1.86,6.61-1.58,9.59-.88,2.74,0.64,7.87,5.53,10.57,7a158.79,158.79,0,0,0,27.08,11.71,213.73,213.73,0,0,0,31.76,7.5c10,1.68,19.12,2,20.43,14.17,1.47,13.63-15.36,31.29-2.65,42.83,12.17,11,39.79,8.23,53.58,3,15.25-5.82,37.26-23.67,32.11-42.44h0Z" transform="translate(-2675.78 -122.42)"/><path class="cls-7" d="M3051.47,372.84c-3-11.39-16.95-13.3-26.17-17.08-14.13-5.78-23.43-15.3-26.83-30.39q0.5,5.11,1.2,10.19c-4.77-17.25-3.27-35.78-6.72-53.33-3.72-18.91-8.49-37.56-15.81-55.43-13.8-33.69-34.7-60-65.22-79.94,22.68,18.47,38.36,44.9,46.33,72.85-22.43-65-92.26-120.26-161.8-83.8-14.42,7.56-23.14,20.39-34,31.94-8.68,9.21-25.3,17.8-27.95,31.05-2.5,12.55,2.26,32.77,14.48,39.14,13.25,6.9,14.31-9.42,11-17.6,4.56,11.21,14.84,22.1,28.09,19.87,15.42-2.59,13.62-17.52,23.5-25.27q-1.66,0-3.33,0c1.29,0.15,8.78-4.3,7,.37,0.44-1.16-5.74,3.6-6.64,4.81-2.34,3.16-3.12,7.38-5.22,10.71-9.35,14.79-31.22,16.49-40.47-.14,0.16,5-2.63,10.36-8,11.07,6.6,5.3,15,7.54,23.45,7.4,1.59,0,24.92-5,23.55-7.84,0.43,0.91-4.16,3.69-4.35,3.81,11.6-2.47,22.59-8.56,28.21-19.26,1.26-.63-3.53,7.23-3.19,6.79a32.72,32.72,0,0,1-8.25,7.33c10.13-2,19.76-5.26,27-13.07-8.67,13.56-24.43,13.61-38,18.22,12.45,17.9,39.81,13.29,55.57,2.62-7.85,10.08-27,12.75-38.71,10.25,2.63,12.58,13.33,26,20.9,36.18,7.25,9.73,16.16,19.6,28,23.63,5.59-17.18,16.43-31.33,16.87-50.24,0.17-7.57-4-8.55-6.26-16-2.38-7.71-1.46-18.35,3.06-25.2-2.77,1-3.35,14.11-3.18,16.24,0.52,6.54,3.36,11.92,6.38,17.63-1-21.75.31-37.89,21.29-49.16-20.05,10.74-18.86,28.44-19.34,48.79a98.34,98.34,0,0,1-6.68,32.64c-2.77,7.38-12.2,19.11-11.73,27,1.14,19.29,36.78-16.44,40.58-21.36,13.86-18,20.15-33.9,21.33-56.43a44.47,44.47,0,0,1-.77,21.93c2.54-4.26,3.27-15.55,6.07-18.35,0.78,15-10.91,31.78-18.8,44-8.67,13.47-19.66,29.18-34.78,36,14.62,9.2,32.35,15.5,48.83,20.3,11.33,3.3,30.94,2,39.24,11.32-5.7-2.16,0,1.69.33,4.53,0.42,3.45,1.28,6.44.88,10-0.87,7.81-5.81,14.47-7,22.14-2.55,16.13,15.2,18.47,27.57,19.4,13.64,1,27.94-1.43,39.51-9,9.17-6,22.35-19.12,19.1-31.41h0Z" transform="translate(-2675.78 -122.42)"/><g class="cls-8"><path class="cls-7" d="M2750.5,208.18a5,5,0,0,0-5.39,1c2.4,0.5,5.36,8.06,8.65,5.75,3.13-2.2-1.17-6-3.25-6.71h0Z" transform="translate(-2675.78 -122.42)"/><path class="cls-7" d="M2761.28,210c1.3,7.29,7.73-6.88,13.24-5.37-3.77-6.25-11.24,1.83-13.24,5.37C2761.63,211.9,2764.19,204.85,2761.28,210Z" transform="translate(-2675.78 -122.42)"/><path class="cls-7" d="M2760.64,236.36c2.18-5.59.49-8.39-.79-13.64-4.29,11.2-17.93,7-23.05-.94,1.76,5,18.39,28.57,23.84,14.58h0Z" transform="translate(-2675.78 -122.42)"/><path class="cls-9" d="M2761.16,227.09c-1.37,7.77-10.63,10.93-17,7.09,7.4,8,21.91,6.48,17-7.09C2760.35,231.68,2761.38,227.7,2761.16,227.09Z" transform="translate(-2675.78 -122.42)"/><path class="cls-7" d="M3051.47,372.84c-3-11.39-16.95-13.3-26.17-17.08-14.13-5.78-23.43-15.3-26.83-30.39q0.5,5.11,1.2,10.19c-4.77-17.25-3.27-35.78-6.72-53.33-3.72-18.91-8.49-37.56-15.81-55.43-13.8-33.69-34.7-60-65.22-79.94,22.68,18.47,38.36,44.9,46.33,72.85-11.78-34.12-35.2-68-68.49-83.94-32-15.36-76.67-15.9-105,7.92,34.67-16,86.37,0,83.49,45-0.92,14.32-11,31.59-27.72,30.38-12.31-.9-5.52-6.39-1-10.7,5.57-5.28,12.75-16,9.94-24.05-1.88,6.47-7.1,13.53-13.42,16.25-1.75.75-18.62,0.42-15.55-3.58,0.05-.07,6.73,1.18,7,1.14,4-.71,5.31-2.12,7.13-5.44,1.93-3.54,2.77-19.12-3.8-20,3.78,15.81-6.58.26-13.85,4.92-6.57,4.21-1.32,13.23-4.47,18.27-4.87,7.77-12.29-1.05-16.4-5.06-6.41-6.26-16.58-15.51-26.3-14.77,3.7,1,9.37,3.32,5.78,7.63-2.91,3.5-9.88,0-13.55-.07-10.59-.28-22.4,6.43-24.23,17.59,8.5-19.07,33.8-14.79,43.54.49,10.18,16-5.48,37.14-20.79,20.19,4.64,10.69,14.93,20.6,27.51,18.49,15.42-2.59,13.62-17.52,23.5-25.27q-1.66,0-3.33,0c0.68,0.08,7-3.86,7.74-.93,0.1,0.38-5.56,3.76-6.43,4.73-7,7.8-6.59,17.95-17.75,22.61,5.64-.08-7.06,7-9,7.52,2-.27,19.76-6.06,19.05-7.56,0.43,0.91-4.16,3.69-4.35,3.81,11.6-2.47,22.59-8.56,28.21-19.26,1.26-.63-3.53,7.23-3.19,6.79a32.72,32.72,0,0,1-8.25,7.33c10.13-2,19.76-5.26,27-13.07-8.68,13.58-24.14,13.41-37.63,18.1,14.66,11.11,37.37-2.7,49.77-9.83,0.31-.18,3.69-4.18,4.62-3.3,2,1.9-.74,7.8-1.81,9.78-4.18,7.75-13.79,12.83-21.85,15.11a55.71,55.71,0,0,0,24.5-9c-7.85,10.08-27,12.75-38.71,10.25,2.7,12.91,12.08,24.22,19.74,34.57s16.58,21,29.12,25.24c3.77-11.58,10.74-21.74,14-33.64,1.51-5.42,4-13.36,2.93-19-1-5-2.51-4.69-5-9.85-7.78-15.92,2.93-44.53,23.46-43.69q0.55,1.86-2.2,2.45,2.42-1.57,5-2.93c-0.88.47-4.33,3.19-5.37,4,18.35-6.89,22.3,19.59,21.74,31.22-0.81,16.92-8.85,33.34-18.55,47-3.91,5.49-17,23.21-21.61,9.57-4.72-13.86,13.79-28,18.76-38.33-7.49,2.62-11.82,15-12.65,1.5-0.67-10.94-2.83-24.86,0-35.56-3.43,9.36-1.49,19.76-1.71,29.47a94,94,0,0,1-5.14,28.34c-2.58,7.65-22.3,37.22-6.66,36.81s31.72-23.13,39.41-34.37c10.79-15.77,14.88-30,15.87-48.92a44.47,44.47,0,0,1-.77,21.93c2.54-4.26,3.27-15.55,6.07-18.35,0.78,15-10.91,31.78-18.8,44-8.67,13.47-19.66,29.18-34.78,36,14.62,9.2,32.35,15.5,48.83,20.3,11.33,3.3,30.94,2,39.24,11.32-5.7-2.16,0,1.69.33,4.53,0.42,3.45,1.28,6.44.88,10-0.87,7.81-5.81,14.47-7,22.14-2.55,16.13,15.2,18.47,27.57,19.4,13.64,1,27.94-1.43,39.51-9,9.17-6,22.35-19.12,19.1-31.41h0ZM2877.24,269.71c1.49,12.34-2.06,33.87-19.14,31.59-12.57-1.68-23.54-17.34-29.55-27.12-10.28-16.74,5.57-12.08,17.43-14.9,14.31-3.39,28.65-11.18,31.25,10.43C2878.09,276.77,2876.63,264.67,2877.24,269.71Zm6-67.92c-1.19,2.21-8.68,12.89-12.2,8.41-0.56-.72,5.75-20.79,5.94-22.57,0.88-8.37.86-16.47-2.8-24.13-0.89-1.87-13.3-17.84-13.05-18.19,2.33-3.42,18.57,19.73,19.35,21.34,4.89,10.21,8.46,24.54,2.77,35.14h0Z" transform="translate(-2675.78 -122.42)"/><path class="cls-10" d="M2931,245.23a6.52,6.52,0,0,0,0-3.07q-0.52,7.89,0,3.07h0Z" transform="translate(-2675.78 -122.42)"/><path class="cls-10" d="M2930.68,248.15c-1.92,21.18-16.57,43.73-32.31,57.29-4.89,4.21-17,16.73-21.25,6.87-2.77-6.43,7-24.68,7.92-31.78-3.34,12.68-11.3,23.55-14.74,35.9-4.32,15.53,13.44,6.26,20,1.47,20.57-14.92,41.37-43.23,40.34-69.74C2930.61,249,2930.95,255,2930.68,248.15Z" transform="translate(-2675.78 -122.42)"/><path class="cls-10" d="M3051.47,372.84c-3-11.39-16.95-13.3-26.17-17.08-14.13-5.78-23.43-15.3-26.83-30.39q0.5,5.11,1.2,10.19c-4.77-17.25-3.27-35.78-6.72-53.33-3.72-18.91-8.49-37.56-15.81-55.43-13.8-33.69-34.7-60-65.22-79.94,22.68,18.47,38.36,44.9,46.33,72.85-14.47-41.91-46.26-82-91.4-91.85,25.35,9.2,45,27.89,58.71,50.74,6.29,10.45,13.85,24.89,11.33,37.54-3.61,18.12-15.69-.3-25.39-2.11,19.87,4.36,23.77,31.25,20.29,47.57,1.88-3.6,2.36-13.65,4.82-16.1,0.79,15.32-9.9,29.91-17.5,42-8.85,14.11-20.3,30.89-36.07,38,8.43,5.31,28.63-12.52,37.31-14.75,15.32-4,22.73,9.1,33.24,17.65,5,4.1,10.86,6.25,16.17,9.69,3.75,2.43,6.34,1.88,3.23,5.67-5.69,6.94-30.86,3.51-38.35,2.83,10.71,2.92,28.57,1.72,36.47,10.54-5.7-2.16,0,1.69.33,4.53,0.42,3.45,1.28,6.44.88,10-0.87,7.81-5.81,14.47-7,22.14-2.55,16.13,15.2,18.47,27.57,19.4,13.64,1,27.94-1.43,39.51-9,9.17-6,22.35-19.12,19.1-31.41h0Zm-34.28,29.56a2.05,2.05,0,0,1-1.93-1.8c-1.18,7.65-16.5,9.83-22.41,7.91a9.28,9.28,0,0,1-4.6-2.76q-1.47-4.19-4.75-.66c-4.14-1.26-6.67.29-10.16-3.61-6.85-7.66-.34-18.52,2.55-26.45,4.57-12.52,5.1-8.46,7,2.51,2.68-4.09,9.15-10.18,14-5.27,3,3-1.05,10.78,4.35,2.77,0.59-.88.62-6.12,2.15-6.62,2.61-.86,6.91,7,8.1,8.94,2.82,4.6,11.81,20.34,5.7,25.05h0Z" transform="translate(-2675.78 -122.42)"/><path class="cls-10" d="M2929.33,267.93c-2.36,2.61-3.77,8.51-5.54,11.71a55.33,55.33,0,0,0,5.54-11.71C2929.26,268,2927.94,272.07,2929.33,267.93Z" transform="translate(-2675.78 -122.42)"/><path class="cls-9" d="M2797.47,245.28c9.77-2.08,20.95-7.1,26.48-15.91-4.71,5-15.08,9.81-15.19-.77-0.09-9.36,9.17-11.79,16.09-12.22-4.46-8.74-17.05-4.41-23.21-.18,9.44-.38-5.68,12.24-8.09,13.6-9.1,5.17-20.24,5.47-29.07-.63,6.17,8.83,17.7,14.24,28,9.72,11.37-5,10.5-17.16,19-23.84q-1.66,0-3.33,0c0.68,0.08,7-3.86,7.74-.93,0.1,0.38-5.56,3.76-6.43,4.73-7,7.8-6.59,17.95-17.75,22.61,5.64-.08-7.06,7-9,7.52,2-.27,19.76-6.06,19.05-7.56,0.43,0.91-4.16,3.69-4.35,3.81C2806.16,243.42,2799,244.32,2797.47,245.28Z" transform="translate(-2675.78 -122.42)"/><path class="cls-9" d="M2828.72,221.59a36.63,36.63,0,0,1-14.49,18.55c9.59-1.94,18.52-4.79,25.75-11.8-9,6.71-12.4,1.84-11.26-6.75C2828.09,223.44,2828.6,222.45,2828.72,221.59Z" transform="translate(-2675.78 -122.42)"/><path class="cls-9" d="M2812.61,246.1c10.61-2.41,26.17-8.55,30-19.93-6.78,6.12-10,11.64-19.63,14.09-7,1.8-12.34,2.47-19.35,4.91,2.92,2.21,5.6,1.7,9,.93h0Z" transform="translate(-2675.78 -122.42)"/><path class="cls-9" d="M2761.57,186.42c12.87,0.71,24.52,9.34,29.54,21.12,1.75-10.74-14.21-20.83-22.6-22.83-11.09-2.65-24.08.58-29.32,11.78,4.78-7.15,14-10.53,22.38-10.07h0Z" transform="translate(-2675.78 -122.42)"/><path class="cls-9" d="M2822.44,204.44c6.93,3.3,17.16,1.48,20.31-6.39-6,6.52-22.48,9.78-24.62-2.26,0.16,0.89,8.42,2.41,9.3,2.28,6.6-1,8.63-7.27,8.49-13.28-0.93,5.77-7.74,15.08-14.27,9.28,4.4,3.91,18.47-17.91-.09-17.61-15,.25-8.53,23.49.88,28h0Z" transform="translate(-2675.78 -122.42)"/><path class="cls-9" d="M2879.19,154.42c-6.95-6.83-14.08-10.62-23-13.57,10.32,7.95,19.82,15.27,25.21,27.69,7.68,17.7,5.17,34,.78,52,21.1-15.32,12.77-50.69-3-66.16h0Z" transform="translate(-2675.78 -122.42)"/><path class="cls-11" d="M3051.47,372.84c-3-11.39-16.95-13.3-26.17-17.08-14.13-5.78-23.43-15.3-26.83-30.39q0.5,5.11,1.2,10.19c-4.77-17.25-3.27-35.78-6.72-53.33-3.72-18.91-8.49-37.56-15.81-55.43-13.8-33.69-34.7-60-65.22-79.94,22.68,18.47,38.36,44.9,46.33,72.85-12.12-35.1-36.56-69.81-71.34-85.27,49.08,28.19,73.58,86.11,80.86,139.93a112.66,112.66,0,0,0-.55-25.81c-0.2-1.7-2.42-10.74-1.07-12,6-5.69,15.14,25.45,16.25,30,2.89,11.9,23.91,96.43-.74,94.75,3.89,2.48,24.38-2.88,23.13-7.05,1,3.31-2.2,6.44-3.75,8.89,7.7-4,7.89-7.79,16.37-1.75,5,3.55,10.74,7.9,15,12.34,11.12,11.68,4.13,24.62-6.25,34,11.31-5.3,29.19-20.44,25.36-34.93h0Z" transform="translate(-2675.78 -122.42)"/><path class="cls-9" d="M2876,167.46a60.51,60.51,0,0,0-29.81-31.31c24.9,17.21,34.8,54.91,18.31,80.95,1.3-1.47,10-16.73,9.68-16.75q1.06,1.38-.61,3.1c4.32-10.61,5.34-24.94,2.43-36C2873.54,161.53,2876.27,168.34,2876,167.46Z" transform="translate(-2675.78 -122.42)"/><path class="cls-7" d="M2899.49,216.06c-7.66,5-9.06,8.76-13.33,16.23-3,5.27-7.16,8.05-5.24-1.24-3.86,10.76-.07,19.94,4.93,29.38-0.81-17.25-1.68-33,13.64-44.37C2896,218.34,2894.53,219.74,2899.49,216.06Z" transform="translate(-2675.78 -122.42)"/><path class="cls-7" d="M2762.94,237.31c4.49-.77,11.46,4.28,16,5.18-6.29-1.61-12.89-5.92-16.09-11.66a11,11,0,0,1-2.56,8.09l2.65-1.61h0Z" transform="translate(-2675.78 -122.42)"/></g><path class="cls-12" d="M2826.66,181.81c4,7.63-6.53,13.18-10.55,5.55s6.34-13.53,10.55-5.55h0Z" transform="translate(-2675.78 -122.42)"/><path class="cls-13" d="M2825.64,182.4c3,5.71-5,10-8,4.19-2.89-5.66,4.92-10,8-4.19h0Z" transform="translate(-2675.78 -122.42)"/><path class="cls-12" d="M2823.77,182.8c3.3,6.27-4.87,2.56-4.77,2.51-0.1.05,1.47-8.79,4.77-2.51h0Z" transform="translate(-2675.78 -122.42)"/><path class="cls-14" d="M2821.1,181.44c2.1,4-3.1,1.63-3,1.6s0.94-5.6,3-1.6h0Z" transform="translate(-2675.78 -122.42)"/><path class="cls-14" d="M2820.59,185.91q0.2,2.54-1.78.93-0.2-2.53,1.78-.93h0Z" transform="translate(-2675.78 -122.42)"/><path class="cls-15" d="M2827.17,180.25c-3.33-3.9-7.9-4.18-11.16-.38-1.09,1.28-2,9-1,8.31,2.29-1.54-.91-7,3.92-9.1,1.44-.61,8.36,1.31,8.24,1.16h0Z" transform="translate(-2675.78 -122.42)"/><path class="cls-2" d="M2836,184.85c3,8.65-12.17,18.07-18.91,9.79,7.39,9,22.93,1.8,18.91-9.79h0Z" transform="translate(-2675.78 -122.42)"/><path class="cls-15" d="M2829.73,181.06c0.56,2.6-6,12.48-9.46,10,4.83,3.47,10.16-6.67,9.46-10h0Z" transform="translate(-2675.78 -122.42)"/><path class="cls-2" d="M2789.27,201.1c-13.52-21-47.09-27.26-54.27,2.55,6.89-28.8,42.38-21,54.27-2.55C2782,189.88,2789.45,201.38,2789.27,201.1Z" transform="translate(-2675.78 -122.42)"/><path class="cls-2" d="M2787.3,183c-10.24-10.81-25.61-8.5-36.94-2.68,9.7-5,29.25-5.52,36.94,2.68C2778.06,173.21,2787.49,183.16,2787.3,183Z" transform="translate(-2675.78 -122.42)"/><path class="cls-2" d="M2899.63,265.9c-8,4.69-13.8,12.31-17.22,20.81,2.61-6.48,11.26-17.24,17.22-20.81C2891.61,270.63,2900,265.66,2899.63,265.9Z" transform="translate(-2675.78 -122.42)"/><path class="cls-16" d="M2752.84,210.58c-1.33-1.9-7-5.25-8.17-1.34,0.1-.36,9.21,2.83,8.17,1.34h0Z" transform="translate(-2675.78 -122.42)"/><path class="cls-16" d="M2770.14,203.83c-2.57-.83-10.57,4.34-8.65,5.49,0.59,1.11,7-6,8.65-5.49h0Z" transform="translate(-2675.78 -122.42)"/><path class="cls-17" d="M2740.54,226.12c-0.57,0-1.32,1.09-.58,1.14C2740.53,227.3,2741.28,226.17,2740.54,226.12Z" transform="translate(-2675.78 -122.42)"/><path class="cls-17" d="M2742.2,228.73c-0.29,0-.67.56-0.3,0.58S2742.58,228.76,2742.2,228.73Z" transform="translate(-2675.78 -122.42)"/><path class="cls-17" d="M2750.34,227.08c-0.52,0-1.2,1-.53,1C2750.33,228.14,2751,227.12,2750.34,227.08Z" transform="translate(-2675.78 -122.42)"/><path class="cls-17" d="M2744.13,230.82c-0.54,0-1.24,1-.55,1.07C2744.12,231.92,2744.83,230.86,2744.13,230.82Z" transform="translate(-2675.78 -122.42)"/><path class="cls-17" d="M2752,234.53c0.17,1.16-.21-1.41,0,0h0Z" transform="translate(-2675.78 -122.42)"/><path class="cls-17" d="M2749.23,234.22c-1.76-.94,1,0.66,0,0h0Z" transform="translate(-2675.78 -122.42)"/><path class="cls-17" d="M2758.54,234.94c-0.73-1.4.55,1.11,0,0h0Z" transform="translate(-2675.78 -122.42)"/><path class="cls-17" d="M2755.12,237.71c-0.29,0-.67.56-0.3,0.58S2755.5,237.73,2755.12,237.71Z" transform="translate(-2675.78 -122.42)"/><path class="cls-17" d="M2757.8,230.31c-0.4-.05-1.56,1.12-0.66,1.3,4.89,1-1.67-1.6.66-1.3h0Z" transform="translate(-2675.78 -122.42)"/><path class="cls-17" d="M2755.73,226.74c-0.46,0-1.07.89-.47,0.92S2756.33,226.78,2755.73,226.74Z" transform="translate(-2675.78 -122.42)"/><path class="cls-17" d="M2759.29,227h0Z" transform="translate(-2675.78 -122.42)"/><path class="cls-17" d="M2754.32,229.83c-0.22,0-.5.41-0.22,0.43S2754.6,229.84,2754.32,229.83Z" transform="translate(-2675.78 -122.42)"/><path class="cls-17" d="M2774.78,227.24c-0.3,0-.7.58-0.31,0.6S2775.17,227.26,2774.78,227.24Z" transform="translate(-2675.78 -122.42)"/><path class="cls-17" d="M2768.64,225.73c-0.32,0-.75.62-0.33,0.64S2769.05,225.76,2768.64,225.73Z" transform="translate(-2675.78 -122.42)"/><path class="cls-17" d="M2755.68,221.28c-0.24,0-.55.45-0.24,0.47S2756,221.3,2755.68,221.28Z" transform="translate(-2675.78 -122.42)"/><path class="cls-17" d="M2756.58,223c-0.52-1.1.47,1,0,0h0Z" transform="translate(-2675.78 -122.42)"/><path class="cls-17" d="M2748.74,223.39c-0.2,0-.47.39-0.21,0.41S2749,223.41,2748.74,223.39Z" transform="translate(-2675.78 -122.42)"/><path class="cls-17" d="M2771.69,219.08c-0.35,0-.82.68-0.36,0.71S2772.15,219.11,2771.69,219.08Z" transform="translate(-2675.78 -122.42)"/><path class="cls-17" d="M2776.84,234.2c-0.27,0-.62.52-0.28,0.54S2777.19,234.22,2776.84,234.2Z" transform="translate(-2675.78 -122.42)"/><path class="cls-17" d="M2785.37,234.54c-0.44,0-1,.84-0.45.88S2785.94,234.58,2785.37,234.54Z" transform="translate(-2675.78 -122.42)"/><path class="cls-17" d="M2774,232.06c-0.43,0-1,.82-0.44.86S2774.55,232.09,2774,232.06Z" transform="translate(-2675.78 -122.42)"/><path class="cls-17" d="M2782.72,225c-0.36,0-.82.68-0.36,0.71S2783.17,225.06,2782.72,225Z" transform="translate(-2675.78 -122.42)"/><path class="cls-17" d="M2782.5,229.35c-0.46,0-1.07.88-.47,0.92S2783.1,229.38,2782.5,229.35Z" transform="translate(-2675.78 -122.42)"/><path class="cls-17" d="M2781.73,237.26c-1.34-1.56,1.13,1.38,0,0h0Z" transform="translate(-2675.78 -122.42)"/><path class="cls-17" d="M2793,235c-1.91.7,1.18-.42,0,0h0Z" transform="translate(-2675.78 -122.42)"/><path class="cls-17" d="M2787.83,236.46c-0.49,0-1.15.95-.51,1S2788.47,236.5,2787.83,236.46Z" transform="translate(-2675.78 -122.42)"/><path class="cls-17" d="M2800.36,226.59c-0.29,0-.67.56-0.3,0.58S2800.74,226.61,2800.36,226.59Z" transform="translate(-2675.78 -122.42)"/><path class="cls-17" d="M2798.09,230.68h0Z" transform="translate(-2675.78 -122.42)"/><path class="cls-17" d="M2792.08,219.6c-0.39,0-.9.74-0.4,0.77S2792.59,219.63,2792.08,219.6Z" transform="translate(-2675.78 -122.42)"/><path class="cls-17" d="M2777.34,223.45c-2.06.26,0.79-.11,0,0h0Z" transform="translate(-2675.78 -122.42)"/><path class="cls-17" d="M2794.48,224.52c-1.13-1,.91.85,0,0h0Z" transform="translate(-2675.78 -122.42)"/><path class="cls-17" d="M2790.12,229.52c1.58-.48-0.06-0.29,0,0h0Z" transform="translate(-2675.78 -122.42)"/><path class="cls-2" d="M2858.16,143.48c13.18,5.67,22.82,21.06,26.24,35.13a73,73,0,0,1,1.56,24.63c-0.25,2.45-3,20.4-4.87,20.4,3.17,0,5.86-16.42,6.26-19.49a68.16,68.16,0,0,0-1.25-24.18c-3.62-15.44-13-30-27.93-36.49h0Z" transform="translate(-2675.78 -122.42)"/><path class="cls-2" d="M2874.6,165.61c9.88,15.2-2.2,41.9-12.56,53.68,10.73-12.19,23.89-36.43,12.56-53.68h0Z" transform="translate(-2675.78 -122.42)"/><path class="cls-2" d="M2945.79,347.27c5.3,0.34,11-.78,16.19-1.57-14.14,1.79-37.68,1-50.49-5.45,9.7,4.74,23.66,6.36,34.3,7h0Z" transform="translate(-2675.78 -122.42)"/><path class="cls-18" d="M2743.75,231.39c-5.34,5-7.6,12.59-8.4,19.62,0.78-6.23,3.87-15.4,8.4-19.62h0Z" transform="translate(-2675.78 -122.42)"/><path class="cls-18" d="M2742.47,228.77c-6.35,2.92-11.76,10.65-12.8,17.42,0.91-6,7.22-14.89,12.8-17.42C2739.26,230.25,2742.64,228.69,2742.47,228.77Z" transform="translate(-2675.78 -122.42)"/><path class="cls-18" d="M2747.6,244.4a23.17,23.17,0,0,1,2.09-10.46c-2.92,6.71-2.37,11.48-.7,18.88a62.61,62.61,0,0,1-1.39-8.43C2747.38,240.6,2747.75,247.31,2747.6,244.4Z" transform="translate(-2675.78 -122.42)"/><path class="cls-18" d="M2750.48,227.26c-4.25,5.18-6.49,9.27-7.85,16a37.32,37.32,0,0,1,7.85-16C2748.63,229.51,2750.59,227.12,2750.48,227.26Z" transform="translate(-2675.78 -122.42)"/><path class="cls-18" d="M2740.07,226.73a25.82,25.82,0,0,1-17.46,1.72c6.27,1.92,12,1,17.46-1.72C2734.77,229.34,2740.24,226.65,2740.07,226.73Z" transform="translate(-2675.78 -122.42)"/><path class="cls-18" d="M2784.8,234.86c5.11,3.5,7.55,12.83,8.25,18.84-0.82-6.9-1.66-14.28-8.25-18.84h0Z" transform="translate(-2675.78 -122.42)"/><path class="cls-18" d="M2812.83,240.3c-4.47-6.94-14.59-13.1-22.79-10.65,7.47-2.17,19.11,4.93,22.79,10.65h0Z" transform="translate(-2675.78 -122.42)"/><path class="cls-18" d="M2818.54,221.52c-3.24,1.68-22.34,7.59-24.5,3.08,2.66,5.46,21.33-1.46,24.5-3.08C2814,223.85,2818.71,221.44,2818.54,221.52Z" transform="translate(-2675.78 -122.42)"/><path class="cls-18" d="M2803.13,218.48c-6.33-.41-15.88,2.45-20.51,6.86,4.06-3.93,15-7.28,20.51-6.86C2799.35,218.23,2803.27,218.49,2803.13,218.48Z" transform="translate(-2675.78 -122.42)"/><path class="cls-18" d="M2781,237.54c3.6,1.78,3.53,9,3,12.38,0.6-3.83,1.66-10.1-3-12.38h0Z" transform="translate(-2675.78 -122.42)"/><path class="cls-18" d="M2784.59,218.28c-1.51,2.1-4.93,4.94-7.24,5.65a14,14,0,0,0,7.24-5.65C2782.7,220.9,2784.63,218.22,2784.59,218.28Z" transform="translate(-2675.78 -122.42)"/><g class="cls-19"><path class="cls-18" d="M2743.75,231.53c-5.34,5-7.6,12.59-8.4,19.62,0.78-6.19,3.86-15.46,8.4-19.62C2738.39,236.51,2743.9,231.39,2743.75,231.53Z" transform="translate(-2675.78 -122.42)"/><path class="cls-18" d="M2742.47,228.91c-6.35,2.92-11.76,10.65-12.8,17.42,0.91-6,7.22-14.89,12.8-17.42C2739.26,230.39,2742.64,228.83,2742.47,228.91Z" transform="translate(-2675.78 -122.42)"/><path class="cls-18" d="M2747.6,244.54a23.17,23.17,0,0,1,2.09-10.46c-2.92,6.72-2.37,11.48-.7,18.88a62.61,62.61,0,0,1-1.39-8.43C2747.38,240.74,2747.75,247.45,2747.6,244.54Z" transform="translate(-2675.78 -122.42)"/><path class="cls-18" d="M2750.48,227.39c-4.25,5.19-6.49,9.27-7.85,16a37,37,0,0,1,7.85-16C2748.63,229.64,2750.59,227.26,2750.48,227.39Z" transform="translate(-2675.78 -122.42)"/><path class="cls-18" d="M2740.07,226.87a25.82,25.82,0,0,1-17.46,1.72c6.27,1.92,12,1,17.46-1.72C2734.77,229.48,2740.24,226.79,2740.07,226.87Z" transform="translate(-2675.78 -122.42)"/><path class="cls-18" d="M2784.8,235c5.09,3.63,7.54,12.73,8.25,18.84-0.83-6.91-1.65-14.28-8.25-18.84h0Z" transform="translate(-2675.78 -122.42)"/><path class="cls-18" d="M2812.83,240.44c-4.47-6.94-14.59-13.1-22.79-10.65,7.47-2.17,19.11,4.93,22.79,10.65h0Z" transform="translate(-2675.78 -122.42)"/><path class="cls-18" d="M2818.54,221.66c-3.25,1.68-22.34,7.59-24.5,3.08,2.66,5.46,21.33-1.46,24.5-3.08C2814,224,2818.71,221.57,2818.54,221.66Z" transform="translate(-2675.78 -122.42)"/><path class="cls-18" d="M2803.13,218.62c-6.33-.41-15.88,2.45-20.51,6.86,4.13-3.91,15-7.28,20.51-6.86C2799.35,218.37,2803.27,218.63,2803.13,218.62Z" transform="translate(-2675.78 -122.42)"/><path class="cls-18" d="M2781,237.68c3.6,1.78,3.53,9,3,12.38,0.6-3.83,1.66-10.1-3-12.38h0Z" transform="translate(-2675.78 -122.42)"/><path class="cls-18" d="M2784.59,218.42c-1.51,2.1-4.93,4.94-7.24,5.65a14,14,0,0,0,7.24-5.65C2782.7,221,2784.63,218.36,2784.59,218.42Z" transform="translate(-2675.78 -122.42)"/></g><path class="cls-2" d="M2835.49,202.47c-8.12,5-21.79-.7-22.67-10.67,0.91,11.62,14.32,15.78,22.67,10.67h0Z" transform="translate(-2675.78 -122.42)"/><path class="cls-2" d="M2839.66,140.34a67.11,67.11,0,0,0-31.63-4.41c-8.08.92-14.3,4.76-21.7,6.72,18-4.91,35.11-9.47,53.33-2.31C2831.2,137,2839.91,140.44,2839.66,140.34Z" transform="translate(-2675.78 -122.42)"/><path class="cls-2" d="M2998.54,357.83c-5.07,4.64-19.39,8.28-24.48,1.71,6,7.42,19.25,3,24.48-1.71C2995.31,360.8,2998.7,357.69,2998.54,357.83Z" transform="translate(-2675.78 -122.42)"/><path class="cls-2" d="M2997.43,354.25c-0.83,1.46-4.49,3.66-6.31,3.34,2.48,0.45,5.27-1.49,6.31-3.34C2996.25,356.31,2997.46,354.2,2997.43,354.25Z" transform="translate(-2675.78 -122.42)"/><path class="cls-20" d="M2761.46,189c-8.89-.66-18.82,4-22.94,12.23-1.94,3.86.26,24.06,2.61,22.13,1.06-.87-1.45-7.91-1.54-9.93-0.25-5.57.8-10.4,4.26-14.87,3.28-4.23,12.22-10,17.6-9.56C2753.47,188.42,2761.78,189,2761.46,189Z" transform="translate(-2675.78 -122.42)"/><path class="cls-20" d="M2756.55,178.16a26.55,26.55,0,0,0-14.26,8.24,113.85,113.85,0,0,0-6.82,11.39c1.22,0,9-11.47,10.45-12.56,1.74-1.32,10.65-7.08,10.62-7.07C2745.93,180.29,2757.67,177.94,2756.55,178.16Z" transform="translate(-2675.78 -122.42)"/><path class="cls-20" d="M2823.12,171.89c-8.68-1.4-14.08,6.74-12.55,14.65-0.92-4.74,6.17-15.72,12.55-14.65C2814.28,170.47,2823.53,172,2823.12,171.89Z" transform="translate(-2675.78 -122.42)"/><path class="cls-20" d="M2837.54,191.57c-2.26,4.27-11.09,11.68-16,7.39,3.59,3.12,9.41,2.31,12.95-.47,2.29-1.8,3.55-7.88,3-6.92h0Z" transform="translate(-2675.78 -122.42)"/><path class="cls-20" d="M2773.38,246.31c-3.55-.62-13.92-0.46-15.13-4.16,2.66,8.18,12.36,3.67,15.13,4.16h0Z" transform="translate(-2675.78 -122.42)"/><path class="cls-20" d="M2849.52,245.79c-9.56,5.48-31.91,12.44-40.84,3,13.17,13.79,30.57,2.84,40.84-3C2837.74,252.54,2850.24,245.38,2849.52,245.79Z" transform="translate(-2675.78 -122.42)"/><path class="cls-20" d="M2899.31,219.18c-9.54,9.27-10.81,23.51-8,35.87-2.08-9.11.91-29,8-35.87C2889.64,228.56,2899.51,219,2899.31,219.18Z" transform="translate(-2675.78 -122.42)"/><path class="cls-20" d="M2894.35,273.89c-7.19,6.39-9.86,15.87-13.41,24.43-2.36,5.7-12,18.65-10,24.74-1.24-3.77,8.46-17.78,10.22-22.14,3.48-8.61,6.18-20.82,13.15-27C2887.93,279.6,2894.53,273.73,2894.35,273.89Z" transform="translate(-2675.78 -122.42)"/><path class="cls-20" d="M2810.29,323.69c-6.62-11.57-13.85-22.87-18.54-35.41-1.19-3.19-9.5-30.74-5.73-32-6.53,2.22,4.27,34.11,5.9,38.06a132.48,132.48,0,0,0,9.43,18.71c1.66,2.71,8.9,10.57,8.95,10.66C2804.38,313.37,2810.53,324.11,2810.29,323.69Z" transform="translate(-2675.78 -122.42)"/><path class="cls-20" d="M2965.46,341.06c-14.05,2.76-28.61,1.54-42.46-1.74-2.53-.6-30.46-10.83-30.64-10.61-1.09,1.3,34.11,13.62,37,14.18a90.46,90.46,0,0,0,21.67,2c4.36-.21,13.07-3.52,14.45-3.79h0Z" transform="translate(-2675.78 -122.42)"/><path class="cls-20" d="M2978.75,368.52c0.26,4.1-5.38,13-6.87,17.45-0.51,1.54-3.11,19.39-.49,17.82,0.48-.29,3-15.71,3.45-17.15,2-5.87,4.33-11.78,3.9-18.12C2978.73,368.11,2979.12,374.06,2978.75,368.52Z" transform="translate(-2675.78 -122.42)"/><path class="cls-20" d="M2984.46,397.79q1.26-2.35-.36-2.89c-1.27.62-.91,5.31-0.42,6,1.57,2.15.6-6.38,0.78-3.09h0Z" transform="translate(-2675.78 -122.42)"/><path class="cls-20" d="M2985.77,361.63c-3.33-.5-11.87-2.28-13.34-5,3.81,7.18,9.65,4.48,13.34,5h0Z" transform="translate(-2675.78 -122.42)"/><path class="cls-20" d="M2881.25,173.88c0.89,1.71,2.34,22.86,1.15,23.4,6.39-2.9.77-19.7-1.15-23.4h0Z" transform="translate(-2675.78 -122.42)"/><path class="cls-20" d="M2806.55,138.82c-10.54-3.48-18.61,6.5-26.25,9.6,4.8-1.92,8.24-4.57,13.54-5.86,1.58-.39,13.3-3.54,12.71-3.74h0Z" transform="translate(-2675.78 -122.42)"/><path class="cls-4" d="M3032.42,382.73c-0.44.16-1.25-1.18-1.81,0.66Q3031.86,385.07,3032.42,382.73Z" transform="translate(-2675.78 -122.42)"/><path class="cls-4" d="M3035,387.12c-0.77,0-1.79,1.48-.79,1.54C3035,388.72,3036,387.19,3035,387.12Z" transform="translate(-2675.78 -122.42)"/><path class="cls-4" d="M3033.69,373.76c-1.65-1.31-2.55,2.09-1.35,1.93a1.73,1.73,0,0,0,1.35-1.93h0Z" transform="translate(-2675.78 -122.42)"/><path class="cls-4" d="M3040.35,374.7c-1-.57-2.3,1.29-1.27,1.58,0.52,0.15,2.24-1,1.27-1.58h0Z" transform="translate(-2675.78 -122.42)"/><path class="cls-4" d="M3011.84,373.18c-0.55,0-1.27,1.05-.56,1.09C3011.83,374.3,3012.55,373.22,3011.84,373.18Z" transform="translate(-2675.78 -122.42)"/><path class="cls-4" d="M3013.5,383.6c-0.83-1.56-3.3,1.2-2.06,1.82a1.69,1.69,0,0,0,2.06-1.82h0Z" transform="translate(-2675.78 -122.42)"/><path class="cls-4" d="M3020.48,377.18c-2.1.77,0.71-.26,0,0h0Z" transform="translate(-2675.78 -122.42)"/><path class="cls-4" d="M3003.88,396.55c-0.84-.05-1.94,1.61-0.86,1.67C3003.87,398.27,3005,396.61,3003.88,396.55Z" transform="translate(-2675.78 -122.42)"/><path class="cls-4" d="M3010.49,403.94c-0.19-.47-1.44-1-1.37.15,0.09,1.36,1.61.46,1.37-.15h0Z" transform="translate(-2675.78 -122.42)"/><path class="cls-4" d="M3023.12,398.95c-0.73,0-1.68,1.39-.74,1.45C3023.1,400.44,3024.06,399,3023.12,398.95Z" transform="translate(-2675.78 -122.42)"/><path class="cls-4" d="M2991.23,341.52c-0.27-.38.81-1.53-1.11-1.57Q2988.82,341.59,2991.23,341.52Z" transform="translate(-2675.78 -122.42)"/><path class="cls-4" d="M2987.65,345.13c-0.16-.76-1.9-1.34-1.7-0.36C2986.11,345.53,2987.85,346.11,2987.65,345.13Z" transform="translate(-2675.78 -122.42)"/><path class="cls-4" d="M3000.22,340.4c0.83-1.94-2.69-1.92-2.22-.8a1.73,1.73,0,0,0,2.22.8h0Z" transform="translate(-2675.78 -122.42)"/><path class="cls-4" d="M3001,347.07c0.3-1.07-1.84-1.89-1.86-.82,0,0.54,1.55,1.9,1.86.82h0Z" transform="translate(-2675.78 -122.42)"/><path class="cls-4" d="M2995.06,319.16c-0.11-.54-1.35-1-1.2-0.25C2994,319.44,2995.2,319.85,2995.06,319.16Z" transform="translate(-2675.78 -122.42)"/><path class="cls-4" d="M2985.43,323.49c1.28-1.21-2-2.87-2.29-1.51a1.69,1.69,0,0,0,2.29,1.51h0Z" transform="translate(-2675.78 -122.42)"/><path class="cls-4" d="M2993.46,328.54c-1.25-1.79.38,0.54,0,0h0Z" transform="translate(-2675.78 -122.42)"/><path class="cls-4" d="M2970.42,317.59c-0.17-.82-2.06-1.45-1.84-0.39C2968.75,318,2970.64,318.66,2970.42,317.59Z" transform="translate(-2675.78 -122.42)"/><path class="cls-4" d="M2965,325.91c0.4-.31.62-1.67-0.5-1.28-1.3.44,0,1.67,0.5,1.28h0Z" transform="translate(-2675.78 -122.42)"/><path class="cls-4" d="M2973.14,336.79c-0.15-.71-1.78-1.26-1.59-0.33C2971.69,337.16,2973.33,337.71,2973.14,336.79Z" transform="translate(-2675.78 -122.42)"/><path class="cls-4" d="M2973.62,288.81c-0.27-.38.81-1.53-1.11-1.57Q2971.21,288.87,2973.62,288.81Z" transform="translate(-2675.78 -122.42)"/><path class="cls-4" d="M2954.32,307c-0.16-.76-1.9-1.34-1.7-0.36C2952.78,307.45,2954.52,308,2954.32,307Z" transform="translate(-2675.78 -122.42)"/><path class="cls-4" d="M2983.19,267.26c0.82-1.94-2.69-1.92-2.22-.8a1.73,1.73,0,0,0,2.22.8h0Z" transform="translate(-2675.78 -122.42)"/><path class="cls-4" d="M2992.53,285.87c0.3-1.07-1.84-1.88-1.86-.82,0,0.54,1.55,1.91,1.86.82h0Z" transform="translate(-2675.78 -122.42)"/><path class="cls-4" d="M2978,239.52c-0.11-.54-1.35-1-1.2-0.25C2976.87,239.8,2978.1,240.22,2978,239.52Z" transform="translate(-2675.78 -122.42)"/><path class="cls-4" d="M2966.87,223.75c1.28-1.2-2-2.87-2.29-1.51a1.69,1.69,0,0,0,2.29,1.51h0Z" transform="translate(-2675.78 -122.42)"/><path class="cls-4" d="M2976.43,255.4c-1.24-1.77.36,0.5,0,0h0Z" transform="translate(-2675.78 -122.42)"/><path class="cls-4" d="M2957.34,205.22c-0.17-.82-2.06-1.45-1.84-0.39C2955.67,205.66,2957.56,206.29,2957.34,205.22Z" transform="translate(-2675.78 -122.42)"/><path class="cls-4" d="M2941.72,269.29c0.41-.31.61-1.66-0.5-1.28-1.29.43,0,1.67,0.5,1.28h0Z" transform="translate(-2675.78 -122.42)"/><path class="cls-4" d="M2956.11,263.64c-0.15-.71-1.78-1.26-1.59-0.34C2954.67,264,2956.31,264.56,2956.11,263.64Z" transform="translate(-2675.78 -122.42)"/><path class="cls-4" d="M2828.77,130.47c-0.27-.37.81-1.53-1.11-1.57Q2826.35,130.54,2828.77,130.47Z" transform="translate(-2675.78 -122.42)"/><path class="cls-4" d="M2915.51,185.31c-0.16-.76-1.9-1.34-1.7-0.36C2914,185.71,2915.72,186.3,2915.51,185.31Z" transform="translate(-2675.78 -122.42)"/><path class="cls-4" d="M2938,182.8c0.83-1.94-2.69-1.91-2.22-.8a1.73,1.73,0,0,0,2.22.8h0Z" transform="translate(-2675.78 -122.42)"/><path class="cls-4" d="M2928.91,187.26c0.31-1.07-1.84-1.88-1.86-.82,0,0.54,1.55,1.91,1.86.82h0Z" transform="translate(-2675.78 -122.42)"/><path class="cls-4" d="M2938.12,168.79c-0.11-.54-1.35-1-1.2-0.25C2937,169.08,2938.27,169.49,2938.12,168.79Z" transform="translate(-2675.78 -122.42)"/><path class="cls-4" d="M2913.3,163.67c1.28-1.21-2-2.87-2.29-1.51a1.69,1.69,0,0,0,2.29,1.51h0Z" transform="translate(-2675.78 -122.42)"/><path class="cls-4" d="M2921.32,168.73c-1.24-1.79.38,0.54,0,0h0Z" transform="translate(-2675.78 -122.42)"/><path class="cls-4" d="M2894.34,145.58c-0.17-.82-2.06-1.45-1.84-0.39C2892.67,146,2894.56,146.64,2894.34,145.58Z" transform="translate(-2675.78 -122.42)"/><path class="cls-4" d="M2892.88,166.09c0.43-.3.59-1.66-0.5-1.28-1.29.44,0,1.67,0.5,1.28h0Z" transform="translate(-2675.78 -122.42)"/><path class="cls-4" d="M2863.55,135.1c-0.15-.71-1.78-1.26-1.59-0.34C2862.1,135.47,2863.74,136,2863.55,135.1Z" transform="translate(-2675.78 -122.42)"/><path class="cls-4" d="M2818.35,314.29c-0.27-.37.81-1.53-1.11-1.57Q2815.93,314.36,2818.35,314.29Z" transform="translate(-2675.78 -122.42)"/><path class="cls-4" d="M2814.77,317.9c-0.16-.76-1.9-1.34-1.7-0.36C2813.23,318.3,2815,318.88,2814.77,317.9Z" transform="translate(-2675.78 -122.42)"/><path class="cls-4" d="M2825.29,321.66c0.83-1.94-2.69-1.92-2.22-.8a1.73,1.73,0,0,0,2.22.8h0Z" transform="translate(-2675.78 -122.42)"/><path class="cls-4" d="M2823.38,330.67c0.31-1.07-1.84-1.88-1.86-.82,0,0.54,1.55,1.9,1.86.82h0Z" transform="translate(-2675.78 -122.42)"/><path class="cls-4" d="M2807.9,282.87c-0.11-.54-1.35-0.95-1.2-0.25C2806.81,283.16,2808,283.57,2807.9,282.87Z" transform="translate(-2675.78 -122.42)"/><path class="cls-4" d="M2816.79,328.71c1.28-1.22-2-2.86-2.29-1.51a1.69,1.69,0,0,0,2.29,1.51h0Z" transform="translate(-2675.78 -122.42)"/><path class="cls-4" d="M2819.23,303.93c-1.24-1.77.36,0.5,0,0h0Z" transform="translate(-2675.78 -122.42)"/><path class="cls-4" d="M2797.54,290.37c-0.17-.83-2.06-1.46-1.84-0.39C2795.87,290.8,2797.76,291.43,2797.54,290.37Z" transform="translate(-2675.78 -122.42)"/><path class="cls-4" d="M2795.58,296.28c0.4-.31.63-1.67-0.5-1.28-1.3.44,0,1.67,0.5,1.28h0Z" transform="translate(-2675.78 -122.42)"/><path class="cls-4" d="M2800.26,309.56c-0.15-.71-1.78-1.26-1.59-0.34C2798.81,309.94,2800.45,310.48,2800.26,309.56Z" transform="translate(-2675.78 -122.42)"/><path class="cls-4" d="M2884.84,307.46c0.4-.24,1.46.93,1.66-1Q2885,305.05,2884.84,307.46Z" transform="translate(-2675.78 -122.42)"/><path class="cls-4" d="M2881.53,303.61c0.77-.1,1.49-1.79.49-1.67C2881.26,302,2880.54,303.73,2881.53,303.61Z" transform="translate(-2675.78 -122.42)"/><path class="cls-4" d="M2885.24,316.51c1.87,1,2.13-2.53,1-2.15a1.73,1.73,0,0,0-1,2.15h0Z" transform="translate(-2675.78 -122.42)"/><path class="cls-4" d="M2873.17,322.27c1,0.39,2-1.69,1-1.79-0.53,0-2,1.4-1,1.79h0Z" transform="translate(-2675.78 -122.42)"/><path class="cls-4" d="M2926.7,255.92c0.55-.07,1.06-1.26.35-1.18C2926.51,254.81,2926,256,2926.7,255.92Z" transform="translate(-2675.78 -122.42)"/><path class="cls-4" d="M2903.29,303.13c1.1,1.37,3-1.79,1.69-2.16a1.69,1.69,0,0,0-1.69,2.16h0Z" transform="translate(-2675.78 -122.42)"/><path class="cls-4" d="M2897.6,310.73h0Z" transform="translate(-2675.78 -122.42)"/><path class="cls-4" d="M2918.19,270.19c0.83-.1,1.61-1.94.53-1.8C2917.89,268.5,2917.11,270.33,2918.19,270.19Z" transform="translate(-2675.78 -122.42)"/><path class="cls-4" d="M2902.5,282.58c0.27,0.44,1.61.74,1.31-.4-0.34-1.32-1.67-.16-1.31.4h0Z" transform="translate(-2675.78 -122.42)"/><path class="cls-4" d="M2891,289.81c0.72-.09,1.4-1.68.46-1.56C2890.75,288.34,2890.07,289.93,2891,289.81Z" transform="translate(-2675.78 -122.42)"/><path class="cls-4" d="M2880,212.31c-0.28-.39.81-1.49-1.11-1.57Q2877.59,212.37,2880,212.31Z" transform="translate(-2675.78 -122.42)"/><path class="cls-4" d="M2863.3,310c-0.16-.76-1.9-1.34-1.7-0.36C2861.76,310.39,2863.5,311,2863.3,310Z" transform="translate(-2675.78 -122.42)"/><path class="cls-4" d="M2885.71,264.26c0.82-1.94-2.69-1.92-2.22-.8a1.73,1.73,0,0,0,2.22.8h0Z" transform="translate(-2675.78 -122.42)"/><path class="cls-4" d="M2875.21,304.54c0.3-1.07-1.84-1.89-1.86-.82,0,0.54,1.55,1.91,1.86.82h0Z" transform="translate(-2675.78 -122.42)"/><path class="cls-4" d="M2876.76,238.94c-0.11-.54-1.34-0.95-1.2-0.25C2875.67,239.23,2876.9,239.64,2876.76,238.94Z" transform="translate(-2675.78 -122.42)"/><path class="cls-4" d="M2875.87,224.29c1.28-1.21-2-2.87-2.29-1.51a1.69,1.69,0,0,0,2.29,1.51h0Z" transform="translate(-2675.78 -122.42)"/><path class="cls-4" d="M2880.4,263c-1.2-1.75.33,0.45,0,0h0Z" transform="translate(-2675.78 -122.42)"/><path class="cls-4" d="M2870.89,240.07c-0.17-.82-2.06-1.45-1.84-0.39C2869.22,240.51,2871.11,241.14,2870.89,240.07Z" transform="translate(-2675.78 -122.42)"/><path class="cls-4" d="M2808.75,262.1c0.42-.3.6-1.66-0.5-1.28-1.29.44,0,1.67,0.5,1.28h0Z" transform="translate(-2675.78 -122.42)"/><path class="cls-4" d="M2849.16,220.84c-0.15-.71-1.78-1.26-1.59-0.34C2847.72,221.22,2849.35,221.76,2849.16,220.84Z" transform="translate(-2675.78 -122.42)"/><path class="cls-4" d="M2792.63,171.15c0.66,0.91-1.4-4.44-2.31-1.66Q2790.24,171.4,2792.63,171.15Z" transform="translate(-2675.78 -122.42)"/><path class="cls-4" d="M2799.43,184.34c-0.22-1-2.61-1.84-2.33-.49C2797.31,184.89,2799.71,185.69,2799.43,184.34Z" transform="translate(-2675.78 -122.42)"/><path class="cls-4" d="M2865.41,176.1c1.13-2.67-3.69-2.63-3-1.1a2.39,2.39,0,0,0,3,1.1h0Z" transform="translate(-2675.78 -122.42)"/><path class="cls-4" d="M2853.54,164.15c0.4-1.46-2.53-2.59-2.56-1.12,0,0.74,2.13,2.62,2.56,1.12C2853.62,163.85,2853.25,165.18,2853.54,164.15Z" transform="translate(-2675.78 -122.42)"/><path class="cls-4" d="M2809.6,148.65c-0.15-.74-1.85-1.31-1.65-0.35C2808.11,149,2809.8,149.61,2809.6,148.65Z" transform="translate(-2675.78 -122.42)"/><path class="cls-4" d="M2826.33,161.67c1.76-1.66-2.78-3.94-3.15-2.07-0.19,1,2,3.14,3.15,2.07h0Z" transform="translate(-2675.78 -122.42)"/><path class="cls-4" d="M2840.09,154.41c0.06,0.09-2.25-1.16-1.88-.06q1.87,1.86,1.88.06h0Z" transform="translate(-2675.78 -122.42)"/><path class="cls-4" d="M2814.46,142.06c-0.23-1.13-2.83-2-2.53-.53C2812.17,142.66,2814.76,143.53,2814.46,142.06Z" transform="translate(-2675.78 -122.42)"/><path class="cls-4" d="M2782.13,150.56c1.33-1-.37-2.59-1.5-0.95-0.52.75,1.14,1.22,1.5,0.95h0Z" transform="translate(-2675.78 -122.42)"/><path class="cls-4" d="M2770.85,166.51c-0.2-1-2.45-1.73-2.19-.46C2768.86,167,2771.11,167.78,2770.85,166.51Z" transform="translate(-2675.78 -122.42)"/><g class="cls-21"><path class="cls-22" d="M2768.92,127c0,6.09-9.42,6.09-9.42,0S2768.92,120.9,2768.92,127Z" transform="translate(-2675.78 -122.42)"/><path class="cls-23" d="M2768.07,127.06c0,5.33-8.25,5.33-8.24,0S2768.07,121.73,2768.07,127.06Z" transform="translate(-2675.78 -122.42)"/><path class="cls-24" d="M2761.88,126.45a4.84,4.84,0,0,1,3.85-3.09c-6-2.39-5.33,7.5-3.85,3.09C2762.44,124.78,2761.71,127,2761.88,126.45Z" transform="translate(-2675.78 -122.42)"/><path class="cls-24" d="M2761.18,129.48c2.44,1.51-.87-1.94-1.34-2.23,0,1.26.28,1.58,1.34,2.23h0Z" transform="translate(-2675.78 -122.42)"/></g><g class="cls-21"><path class="cls-22" d="M2757.28,140.29c0,17.84-27.71,17.8-27.71,0S2757.28,122.34,2757.28,140.29Z" transform="translate(-2675.78 -122.42)"/><path class="cls-23" d="M2754.78,140.5c0,15.61-24.25,15.57-24.25,0S2754.78,124.79,2754.78,140.5Z" transform="translate(-2675.78 -122.42)"/><path class="cls-24" d="M2736.59,138.7c1.64-4.91,6.32-8.27,11.31-9.1-9-3.64-24.36,8.86-12.08,13.54l0.77-4.44h0Z" transform="translate(-2675.78 -122.42)"/><path class="cls-24" d="M2734.51,147.63l2.32,1.37c-2.69-7.3.55-3.66-6.26-7.94-0.08,3.72.77,4.61,3.94,6.57h0Z" transform="translate(-2675.78 -122.42)"/></g><g class="cls-21"><path class="cls-22" d="M2743.13,171c0,12.44-19.28,12.43-19.4,0S2743.13,158.49,2743.13,171Z" transform="translate(-2675.78 -122.42)"/><path class="cls-23" d="M2741.38,171.19c0,10.95-17,10.95-17,0S2741.38,160.24,2741.38,171.19Z" transform="translate(-2675.78 -122.42)"/><path class="cls-24" d="M2728.64,169.93a10.31,10.31,0,0,1,7.92-6.37c-6.12-2.45-17.29,6.09-8.46,9.48l0.54-3.11h0Z" transform="translate(-2675.78 -122.42)"/><path class="cls-24" d="M2727.19,176.18l1.63,1c-1.88-5.11.39-2.56-4.38-5.55-0.09,2.59.58,3.25,2.76,4.6h0Z" transform="translate(-2675.78 -122.42)"/></g><g class="cls-21"><path class="cls-22" d="M2717.63,230c0,9.83-15.25,9.83-15.24,0S2717.63,220.17,2717.63,230Z" transform="translate(-2675.78 -122.42)"/><path class="cls-23" d="M2716.26,230.11c0,8.48-13.34,8.48-13.34,0S2716.26,221.38,2716.26,230.11Z" transform="translate(-2675.78 -122.42)"/><path class="cls-24" d="M2706.25,229.12a8.1,8.1,0,0,1,6.22-5c-4.8-1.94-13.51,4.72-6.64,7.45l0.42-2.44h0Z" transform="translate(-2675.78 -122.42)"/><path class="cls-24" d="M2705.11,234c3.95,2.42-1.41-3.14-2.17-3.61,0,2.07.38,2.51,2.17,3.61h0Z" transform="translate(-2675.78 -122.42)"/></g><g class="cls-21"><path class="cls-22" d="M2696,187.6c0,13-20.11,13-20.23,0S2696,174.5,2696,187.6Z" transform="translate(-2675.78 -122.42)"/><path class="cls-23" d="M2694.19,187.75c0,11.42-17.7,11.42-17.7,0S2694.19,176.34,2694.19,187.75Z" transform="translate(-2675.78 -122.42)"/><path class="cls-24" d="M2680.91,186.44c1.16-3.46,4.75-6.06,8.26-6.64-6.39-2.57-18,6.41-8.82,9.88l0.56-3.24h0Z" transform="translate(-2675.78 -122.42)"/><path class="cls-24" d="M2679.39,193l1.7,1c-2-5.35.41-2.65-4.57-5.79,0,2.72.55,3.36,2.87,4.79h0Z" transform="translate(-2675.78 -122.42)"/></g></g></g></svg>