<svg id="Layer_1" data-name="Layer 1" xmlns="http://www.w3.org/2000/svg" viewBox="0 0 169.82 195.07"><defs><style>.cls-1{fill:#1d2e2f;}.cls-1,.cls-2,.cls-3,.cls-4{fill-rule:evenodd;}.cls-2{fill:#bf7100;}.cls-3{fill:#8e580a;}.cls-4{fill:#d18517;}</style></defs><title>anim_68</title><g id="shape"><path class="cls-1" d="M2007.1,2917.63c-9.31-2-7.57-6.49-9.83-.65-1.67,4.34-1.23,11,10.22,13.51a13.47,13.47,0,0,0,7-.17c7.73-1.47,9.5-9.33,9.5-9.33s-2.65-.45-8.88-1.23C2012.89,2919.06,2010.19,2918.3,2007.1,2917.63Zm74.13-.65c-2.25-5.84-.52-1.38-9.83.65-3.08.67-5.79,1.43-8,2.14-6.23.78-8.88,1.23-8.88,1.23s1.77,7.85,9.5,9.33a13.47,13.47,0,0,0,7,.17C2082.46,2928,2082.91,2921.31,2081.24,2917Z" transform="translate(-1964.17 -2735.8)"/></g><g id="Elipsa_25" data-name="Elipsa 25"><path class="cls-2" d="M2091.38,2737c-11.69-5-27.38,5.78-33.27,19.77s0.28,25.92,12,30.9,24.48,1.13,30.36-12.86S2103.06,2742,2091.38,2737Z" transform="translate(-1964.17 -2735.8)"/></g><g id="Elipsa_25_kopiuj" data-name="Elipsa 25 kopiuj"><path class="cls-3" d="M2091,2743.77c-8.59-3.7-20.12,4.29-24.45,14.68s0.2,19.24,8.79,22.94,18,0.84,22.31-9.55S2099.57,2747.47,2091,2743.77Z" transform="translate(-1964.17 -2735.8)"/></g><g id="Elipsa_25_kopiuj_2" data-name="Elipsa 25 kopiuj 2"><path class="cls-2" d="M2024.07,2756.81c-5.88-14-21.58-24.75-33.27-19.77s-14.94,23.82-9.06,37.81,18.67,17.84,30.36,12.86S2030,2770.81,2024.07,2756.81Z" transform="translate(-1964.17 -2735.8)"/></g><g id="Elipsa_25_kopiuj_3" data-name="Elipsa 25 kopiuj 3"><path class="cls-3" d="M2015.65,2758.45c-4.32-10.39-15.86-18.38-24.45-14.68s-11,17.68-6.66,28.07,13.72,13.25,22.31,9.55S2020,2768.84,2015.65,2758.45Z" transform="translate(-1964.17 -2735.8)"/></g><g id="shape-2" data-name="shape"><path class="cls-3" d="M2132,2886.39c-1.74.3-18.49,5.6-22,0s-19.26,8.74-11,12.86,21,4.7,29.4-3.67S2133.78,2886.09,2132,2886.39Z" transform="translate(-1964.17 -2735.8)"/></g><g id="shape-3" data-name="shape"><path class="cls-2" d="M2042,2750.2c-53.74,0-90.95,85.89-73.49,137.8s129.07,47.77,147-1.84S2095.75,2750.2,2042,2750.2Z" transform="translate(-1964.17 -2735.8)"/></g><g id="shape-4" data-name="shape"><path class="cls-4" d="M2077.39,2882.65c-5.18-7.24-11.74-14.63-34.93-14.63-27.35,0-35.5,4.41-40.13,14.63-2.79,6.16-4.41,35,38.74,35S2080.45,2886.93,2077.39,2882.65Z" transform="translate(-1964.17 -2735.8)"/></g><g id="Elipsa_24" data-name="Elipsa 24"><path class="cls-4" d="M2059.47,2801.88a20.67,20.67,0,0,0-14.7,5.84,20.67,20.67,0,0,0-14.7-5.84c-10.65,0-19.29,7.4-19.29,16.54s8.64,16.54,19.29,16.54a20.67,20.67,0,0,0,14.7-5.84,20.67,20.67,0,0,0,14.7,5.84c10.65,0,19.29-7.4,19.29-16.54S2070.12,2801.88,2059.47,2801.88Z" transform="translate(-1964.17 -2735.8)"/></g><g id="shape-5" data-name="shape"><path class="cls-1" d="M2072.16,2781c-1.09-4.1-5-6.72-8.74-5.87s-5.89,4.86-4.8,9,5,6.72,8.74,5.87S2073.25,2785.14,2072.16,2781Zm-49.72-5.87c-3.74-.85-7.65,1.78-8.74,5.87s1.06,8.11,4.8,9,7.65-1.78,8.74-5.87S2026.18,2776,2022.44,2775.17Z" transform="translate(-1964.17 -2735.8)"/></g><g id="Elipsa_7_kopiuj_2" data-name="Elipsa 7 kopiuj 2"><path class="cls-1" d="M2044.77,2809.65c-5.58,0-10.1,3.25-10.1,7.7s4.52,8.41,10.1,8.41,10.1-4,10.1-8.41S2050.35,2809.65,2044.77,2809.65Z" transform="translate(-1964.17 -2735.8)"/></g><g id="shape-6" data-name="shape"><path class="cls-3" d="M2113.43,2838.68c-0.12-.46-3.07-10.9-17.2-19.47q-1.05-.64-2.19-1.26a46.8,46.8,0,0,0-31.46-5h0l-0.12,0-0.12,0-0.06,0-0.1.06-0.11.07-0.06,0-0.08.07-0.1.09-0.05.05-0.06.08-0.08.12,0,0.07,0,0.09-0.06.13,0,0.09v0s0,0,0,.07l0,0.13,0,0.1s0,0.08,0,.12,0,0.05,0,.08,0,0,0,0,0,0.07,0,.1,0,0.07,0,.11,0,0.09,0,.14,0,0,0,0v0l0,0.09c0,0.05,0,.11,0,0.16l0,0.07,0,0.07,0.08,0.15,0,0.06,0.05,0.07,0.1,0.13,0,0,0.08,0.07L2062,2816l0,0,0.09,0.05,0.13,0.07,0.07,0h0c0.13,0.05,13,5,21.91,20.11a47.49,47.49,0,0,1,6.47,18,1.57,1.57,0,0,0,1.8,1.41,1.75,1.75,0,0,0,1.38-2,50.93,50.93,0,0,0-6.92-19.37,54.57,54.57,0,0,0-14-15.92,45.78,45.78,0,0,1,16.83,10.41c12.29,12,12.61,23,12.61,23.09a1.59,1.59,0,0,0,1.63,1.63,1.72,1.72,0,0,0,1.57-1.78c0-.51-0.35-12.57-13.62-25.49a48.71,48.71,0,0,0-16.57-10.63,44.63,44.63,0,0,1,17.11,5.23c14.72,8.07,17.81,18.61,17.84,18.71a1.54,1.54,0,0,0,2,1.11A1.77,1.77,0,0,0,2113.43,2838.68Zm-87-23.07s0,0,0-.07,0-.08,0-0.12l0-.11,0-.13s0-.05,0-0.07v0l0-.09-0.06-.13,0-.09,0-.07-0.08-.11-0.06-.08-0.05-.05-0.1-.09-0.08-.07-0.06,0-0.12-.07-0.1-.06-0.06,0-0.12,0-0.12,0h0a46.8,46.8,0,0,0-31.46,5q-1.14.62-2.19,1.26c-14.13,8.57-17.08,19-17.2,19.47a1.77,1.77,0,0,0,1.1,2.14,1.54,1.54,0,0,0,2-1.12c0-.1,3.1-10.63,17.83-18.71a44.64,44.64,0,0,1,17.15-5.25,48.68,48.68,0,0,0-16.6,10.64c-13.26,12.92-13.61,25-13.62,25.49a1.72,1.72,0,0,0,1.57,1.78,1.59,1.59,0,0,0,1.63-1.63c0-.1.41-11.21,12.61-23.09a45.78,45.78,0,0,1,16.83-10.41,54.56,54.56,0,0,0-14,15.91,50.9,50.9,0,0,0-6.92,19.38,1.75,1.75,0,0,0,1.38,2,1.57,1.57,0,0,0,1.8-1.41,47.47,47.47,0,0,1,6.47-18c8.87-15.12,21.78-20.06,21.91-20.11h0l0.07,0,0.13-.07,0.09,0,0.05,0,0.11-.09,0.08-.07,0,0,0.09-.11,0.07-.08,0-.06,0.07-.13,0-.09,0-.07,0-.13,0-.11v0s0,0,0-.05,0-.08,0-0.12,0-.08,0-0.12,0-.07,0-0.1S2026.4,2815.62,2026.4,2815.61Z" transform="translate(-1964.17 -2735.8)"/></g></svg>