<svg id="Layer_1" data-name="Layer 1" xmlns="http://www.w3.org/2000/svg" viewBox="0 0 243.45 196.66"><defs><style>.cls-1{fill:#1d2e2f;}.cls-1,.cls-2,.cls-3,.cls-4,.cls-5{fill-rule:evenodd;}.cls-2{fill:#583725;}.cls-3{fill:#7c543e;}.cls-4{fill:#986e57;}.cls-5{fill:#e1c080;}</style></defs><title>anim_32</title><g id="feet"><path class="cls-1" d="M522.05,2271.48c-10.14-2.21-8.25-7.06-10.7-.71-1.82,4.72-1.34,12,11.12,14.71a14.66,14.66,0,0,0,7.67-.18c8.41-1.6,10.34-10.15,10.34-10.15s-2.88-.49-9.67-1.34C528.35,2273,525.41,2272.21,522.05,2271.48Zm80.7-.71c-2.45-6.35-.56-1.5-10.7.71-3.36.73-6.3,1.55-8.76,2.33-6.79.85-9.67,1.34-9.67,1.34s1.93,8.55,10.34,10.15a14.66,14.66,0,0,0,7.67.18C604.08,2282.76,604.57,2275.49,602.75,2270.76Z" transform="translate(-473.18 -2089.22)"/></g><g id="tail"><path class="cls-2" d="M659.26,2142.31c-34.71,18.88-.11,74.14-59.11,61.14s-139-5.81-44,38c128,59,103.09-47.17,120.84-72.43s34.59,2.55,39.13-7.58S694,2123.43,659.26,2142.31Z" transform="translate(-473.18 -2089.22)"/></g><g id="body"><path class="cls-3" d="M621.4,2132.41a14,14,0,1,0-17.11-21.9,87,87,0,0,0-11.75-9.81c-10.42-7.21-22-11.48-34.49-11.48h0c-12.45,0-24.07,4.26-34.49,11.48a87.4,87.4,0,0,0-12.18,10.24A14,14,0,1,0,494.3,2133c-15.31,25.3-23.41,57.41-20.56,84.62a92.36,92.36,0,0,0,4.3,21.56c9.52,28.3,44.75,41.29,80,40.43,35.25,0.86,70.48-12.13,80-40.43a92.36,92.36,0,0,0,4.3-21.56C645.24,2190.22,637,2157.81,621.4,2132.41Z" transform="translate(-473.18 -2089.22)"/></g><g id="fur"><path class="cls-4" d="M588.78,2184.36c-3.82-2.12-14.06-4.79-30.63-4.79s-24,3.8-29.52,4.65-4.29,7.17-3.87,10.72c3,25.73,12.66,59,34.39,59s31.06-33.33,34.39-59C594,2191,592.6,2186.48,588.78,2184.36Z" transform="translate(-473.18 -2089.22)"/></g><g id="eye"><path class="cls-1" d="M593.86,2120.71c-4.27-1.14-8.54,1-9.54,4.69s1.65,7.69,5.92,8.83,8.54-1,9.54-4.69S598.13,2121.86,593.86,2120.71Zm-72.31.7c-3.83,2.21-5.36,6.71-3.43,10.06s6.6,4.27,10.43,2.06,5.36-6.71,3.43-10.06S525.38,2119.2,521.55,2121.41Z" transform="translate(-473.18 -2089.22)"/></g><g id="mouth"><path class="cls-5" d="M578.15,2138.45a25.56,25.56,0,0,0-9.83,1.92,11,11,0,0,0-18.78.73,25.16,25.16,0,0,0-11.39-2.65c-11.6,0-21,7.39-21,16.5s9.4,16.5,21,16.5c9.37,0,17.29-4.82,20-11.47,2.71,6.65,10.63,11.47,20,11.47,11.6,0,21-7.39,21-16.5S589.75,2138.45,578.15,2138.45Z" transform="translate(-473.18 -2089.22)"/></g><g id="nose"><path class="cls-1" d="M557.65,2125.45c-11.33,0-17.5,6.6-17.5,13.5s7.83,8.5,17.5,8.5,17.5-1.6,17.5-8.5S569,2125.45,557.65,2125.45Z" transform="translate(-473.18 -2089.22)"/></g><g id="mustache"><path class="cls-2" d="M636.91,2174.81c-0.12-.45-3-10.5-17-18.75q-1-.62-2.17-1.22a47.35,47.35,0,0,0-31.1-4.83h0l-0.11,0-0.12,0-0.06,0-0.09.05-0.12.07-0.06,0-0.08.07-0.1.09-0.05.05-0.06.08-0.09.11,0,0.06,0,0.08-0.06.13,0,0.08v0l0,0.07,0,0.13,0,0.1s0,0.07,0,.11,0,0,0,.08,0,0,0,0,0,0.06,0,.1,0,0.07,0,.11,0,0.09,0,.13,0,0,0,0v0l0,0.08c0,0.05,0,.1,0,0.15l0,0.07,0,0.07,0.08,0.15,0,0.06,0.05,0.06,0.1,0.12,0,0,0.07,0.06,0.12,0.09,0,0,0.09,0,0.13,0.06,0.06,0h0c0.13,0,12.88,4.8,21.65,19.36a45,45,0,0,1,6.4,17.38,1.54,1.54,0,0,0,1.78,1.36,1.69,1.69,0,0,0,1.36-1.88,48.23,48.23,0,0,0-6.84-18.66,53,53,0,0,0-13.86-15.33,45.47,45.47,0,0,1,16.64,10C625.68,2177,626,2187.56,626,2187.67a1.56,1.56,0,0,0,1.61,1.57,1.67,1.67,0,0,0,1.55-1.72c0-.49-0.35-12.11-13.46-24.55a48.33,48.33,0,0,0-16.37-10.24,45,45,0,0,1,16.91,5c14.55,7.77,17.6,17.92,17.63,18a1.53,1.53,0,0,0,2,1.06A1.7,1.7,0,0,0,636.91,2174.81Zm-106-22.21s0,0,0-.07,0-.08,0-0.11l0-.11,0-.12s0,0,0-.07v0l0-.09-0.06-.12,0-.09,0-.07-0.08-.11-0.06-.08-0.05-.05-0.1-.09-0.08-.07-0.06,0-0.12-.07-0.09-.06-0.06,0-0.12,0-0.12,0h0a47.35,47.35,0,0,0-31.1,4.83q-1.12.6-2.17,1.22c-14,8.25-16.88,18.3-17,18.75a1.7,1.7,0,0,0,1.09,2.06,1.53,1.53,0,0,0,2-1.08c0-.09,3.06-10.23,17.63-18a45,45,0,0,1,16.95-5.05A48.3,48.3,0,0,0,500.6,2164c-13.11,12.44-13.45,24.06-13.46,24.55a1.67,1.67,0,0,0,1.55,1.72,1.56,1.56,0,0,0,1.61-1.57c0-.1.4-10.79,12.46-22.24a45.47,45.47,0,0,1,16.63-10,53,53,0,0,0-13.86,15.32,48.21,48.21,0,0,0-6.84,18.66,1.69,1.69,0,0,0,1.36,1.88,1.54,1.54,0,0,0,1.78-1.36,45,45,0,0,1,6.4-17.38c8.77-14.56,21.52-19.32,21.65-19.36h0l0.07,0,0.12-.06,0.09,0,0.05,0,0.11-.09,0.08-.07,0,0,0.09-.11,0.06-.08,0-.06,0.07-.12,0-.09,0-.07,0-.13,0-.11v0s0,0,0-.05,0-.08,0-0.12,0-.08,0-0.12,0-.07,0-0.1S530.91,2152.61,530.9,2152.6Z" transform="translate(-473.18 -2089.22)"/></g></svg>