<svg id="Layer_1" data-name="Layer 1" xmlns="http://www.w3.org/2000/svg" viewBox="0 0 169.74 376.78"><defs><style>.cls-1{fill:#1d2e2f;}.cls-1,.cls-2,.cls-3,.cls-4{fill-rule:evenodd;}.cls-2{fill:#d2d2cd;}.cls-3{fill:#f4f4f4;}.cls-4{fill:#ffae00;}</style></defs><title>anim_41</title><g id="feet"><path class="cls-1" d="M-478.42,3391.11s-1.95-.33-6.35-0.91a99.87,99.87,0,0,0-10.08-2.76c-10.14-2.21-8.25-7.06-10.7-.71-0.12.3-.22,0.61-0.32,0.94l-0.36.17c-4.13,2-.86,10.32,9.28,12.93,0.79,0.24,1.61.47,2.52,0.67,12.46,2.72,16.24-8.74,16.24-8.74l-0.64-.28A11.47,11.47,0,0,0-478.42,3391.11Zm63-3.27-0.36-.17c-0.1-.32-0.2-0.63-0.32-0.94-2.45-6.35-.56-1.5-10.7.71a99.87,99.87,0,0,0-10.08,2.76c-4.4.58-6.35,0.91-6.35,0.91a11.45,11.45,0,0,0,.41,1.31l-0.64.28s3.78,11.46,16.24,8.74c0.91-.2,1.74-0.43,2.52-0.67C-414.61,3398.17-411.34,3389.88-415.47,3387.84Z" transform="translate(543.72 -3025.08)"/></g><g id="wings"><path class="cls-2" d="M-389,3248.39c-8.94-20.8-24.45-51.78-37.06-45s13.2,49.24,10.94,67.14,27.84,58.9,34.87,34.47C-377.1,3293.93-380.08,3269.18-389,3248.39Zm-102.61-45c-12.61-6.76-28.12,24.22-37.06,45s-11.92,45.55-8.74,56.6c7,24.42,37.12-16.57,34.87-34.47S-479,3210.13-491.63,3203.37Z" transform="translate(543.72 -3025.08)"/></g><g id="body"><path class="cls-3" d="M-426,3215.59c-10-6.53-21-10.38-32.83-10.39h0c-11.79,0-22.84,3.85-32.83,10.39-34.17,22.29-56,76.18-51.44,118.28a92.21,92.21,0,0,0,4.28,21.33c9.52,28.3,44.75,41.29,80,40.43,35.25,0.86,70.48-12.13,80-40.43a92.2,92.2,0,0,0,4.28-21.33C-370.05,3291.77-391.84,3237.87-426,3215.59Z" transform="translate(543.72 -3025.08)"/></g><g id="shape"><path class="cls-3" d="M-442.58,3053.9a36,36,0,0,0-5.61-2.57,10.58,10.58,0,0,0,.11-1.31c0.27-12.46-12.7-25.6-15.19-24.91s1.31,9.55,1.31,9.55-7.08-4.52-9-2.63,6.77,10.09,5.55,18.13a34.47,34.47,0,0,0-9.7,3.74c-16.93,9.55-27.73,32.66-25.49,50.7a34.92,34.92,0,0,0,2.12,9.14c4.72,12.13,22.17,29.7,39.64,29.33,17.47,0.37,34.92-17.2,39.64-29.33a34.91,34.91,0,0,0,2.12-9.14C-414.85,3086.56-425.65,3063.46-442.58,3053.9Z" transform="translate(543.72 -3025.08)"/></g><g id="neck"><path class="cls-3" d="M-438.56,3230.65c-11.43-61-13.2-96.31-3.43-103.14,5.58-3.9-8.32-12.07-16.87-12.07-8.27,0-21.74,9.65-16.41,13.61,10,7.41,10.46,41-3.51,101.6-2.08,9,8.08,16.8,20.1,16.8S-436.85,3239.77-438.56,3230.65Z" transform="translate(543.72 -3025.08)"/></g><g id="eye"><path class="cls-1" d="M-482.78,3090c-2.32,1.54-3.07,5.23-1.67,8.25s4.41,4.22,6.73,2.68,3.07-5.23,1.67-8.25S-480.46,3088.45-482.78,3090Zm47.86,0c-2.32-1.54-5.33-.34-6.73,2.68s-0.65,6.71,1.67,8.25,5.33,0.34,6.73-2.68S-432.6,3091.53-434.92,3090Z" transform="translate(543.72 -3025.08)"/></g><g id="beak"><path class="cls-4" d="M-448.39,3135.21c-0.21-7.7,7.9-15,7.9-19,0-8.15-7.81-14.76-17.44-14.76s-17.44,6.61-17.44,14.76c0,4,8.1,11.3,7.9,19-0.21,7.86-15.37,20.68-15.37,36.27s11,28,24.5,28,24.5-12.39,24.5-28S-448.18,3143.06-448.39,3135.21Z" transform="translate(543.72 -3025.08)"/></g></svg>