<svg id="Layer_1" data-name="Layer 1" xmlns="http://www.w3.org/2000/svg" viewBox="0 0 1011.86 564.4"><defs><style>.cls-1{fill:#fdcec9;}.cls-2{fill:#e0528b;}.cls-3{fill:#fb7e7b;}.cls-4{fill:#fbafa5;}.cls-5{fill:#c0396b;}.cls-6{fill:#a072dd;}</style></defs><title>anim_02</title><path class="cls-1" d="M-3275.3,3248.11H-3566a29.59,29.59,0,0,1-29.59-29.59,29.59,29.59,0,0,1,29.59-29.59h290.66a29.59,29.59,0,0,1,29.59,29.59A29.59,29.59,0,0,1-3275.3,3248.11Z" transform="translate(3595.54 -2683.71)"/><circle class="cls-1" cx="831.76" cy="213.05" r="180.1"/><circle class="cls-2" cx="831.76" cy="213.05" r="132.22"/><path class="cls-3" d="M-3497.83,3247.62c0-186.91,151.52-338.42,338.42-338.42S-2821,3060.71-2821,3247.62h-676.85Z" transform="translate(3595.54 -2683.71)"/><circle class="cls-4" cx="401.19" cy="213.05" r="180.1"/><circle class="cls-5" cx="401.19" cy="213.05" r="132.54"/><circle class="cls-1" cx="603.36" cy="213.05" r="213.05"/><path class="cls-4" d="M-2992.18,3109.8c-117.66,0-213-95.38-213-213s95.38-213,213-213" transform="translate(3595.54 -2683.71)"/><path class="cls-6" d="M-2794.55,3004.13c0-.66.1-1.31,0.1-2a37.16,37.16,0,0,0-37.16-37.16,37.13,37.13,0,0,0-37.07,35.35l-0.34,1.26-0.58,2.39c-0.37.91-.76,1.94-1.15,3.08a46.85,46.85,0,0,1-4,7.53,41,41,0,0,1-7.25,7.74c-5.95,4.74-14.13,8.11-22.16,7.52a29.79,29.79,0,0,1-11.48-3,25.09,25.09,0,0,1-8.37-6.78c-5.26-5.59-5.6-22.93-4-42.35,3.09-37.36-26-69.52-63.5-69.52h0a63.78,63.78,0,0,0-63.41,70.56c2,19,3.74,34.73,4,36.36,0.84,4.29,1.75,8.61,2.79,12.89a138.43,138.43,0,0,0,23.71,48.18,135.57,135.57,0,0,0,40.65,35.4,131.8,131.8,0,0,0,50.17,16.35,129.83,129.83,0,0,0,49.53-4,123.22,123.22,0,0,0,40.86-20.16,125.57,125.57,0,0,0,27.62-28.66,124.09,124.09,0,0,0,14.91-29.52,125.47,125.47,0,0,0,5.47-24.56l0.73-9.19c0.05-2.67,0-4.93-.05-6.76Z" transform="translate(3595.54 -2683.71)"/><path class="cls-5" d="M-3358.79,3248.11a85.57,85.57,0,0,1,85.57-85.57,85.57,85.57,0,0,1,85.57,85.57h-171.13Z" transform="translate(3595.54 -2683.71)"/><path class="cls-1" d="M-3230.93,3248a28.89,28.89,0,0,1,28.89-28.89,28.89,28.89,0,0,1,28.89,28.89h-57.78Z" transform="translate(3595.54 -2683.71)"/><path class="cls-1" d="M-3306.85,3248a28.89,28.89,0,0,1,28.89-28.89,28.89,28.89,0,0,1,28.89,28.89h-57.78Z" transform="translate(3595.54 -2683.71)"/><path class="cls-5" d="M-2951.27,3248.11a85.57,85.57,0,0,0-85.57-85.57,85.57,85.57,0,0,0-85.57,85.57h171.13Z" transform="translate(3595.54 -2683.71)"/><path class="cls-1" d="M-2993.43,3248a28.89,28.89,0,0,1,28.89-28.89,28.89,28.89,0,0,1,28.89,28.89h-57.78Z" transform="translate(3595.54 -2683.71)"/><path class="cls-1" d="M-3069.35,3248a28.89,28.89,0,0,1,28.89-28.89,28.89,28.89,0,0,1,28.89,28.89h-57.78Z" transform="translate(3595.54 -2683.71)"/><path class="cls-5" d="M-2738.67,3248.11a85.57,85.57,0,0,0-85.57-85.57,85.57,85.57,0,0,0-85.57,85.57h171.13Z" transform="translate(3595.54 -2683.71)"/><path class="cls-1" d="M-2718.5,3248a28.89,28.89,0,0,0-28.89-28.89,28.89,28.89,0,0,0-28.89,28.89h57.78Z" transform="translate(3595.54 -2683.71)"/><path class="cls-1" d="M-2794.42,3248a28.89,28.89,0,0,0-28.89-28.89,28.89,28.89,0,0,0-28.89,28.89h57.78Z" transform="translate(3595.54 -2683.71)"/><path class="cls-2" d="M-3070.69,2930.91a8.88,8.88,0,0,1-8.88-8.88,28.63,28.63,0,0,0-28.6-28.6,28.64,28.64,0,0,0-28.61,28.6,8.88,8.88,0,0,1-8.88,8.88,8.88,8.88,0,0,1-8.88-8.88,46.41,46.41,0,0,1,46.36-46.36,46.41,46.41,0,0,1,46.36,46.36A8.88,8.88,0,0,1-3070.69,2930.91Z" transform="translate(3595.54 -2683.71)"/><path class="cls-2" d="M-2838.71,2930.91a8.88,8.88,0,0,1-8.88-8.88,28.64,28.64,0,0,0-28.61-28.6,28.63,28.63,0,0,0-28.6,28.6,8.88,8.88,0,0,1-8.88,8.88,8.88,8.88,0,0,1-8.88-8.88,46.41,46.41,0,0,1,46.36-46.36,46.41,46.41,0,0,1,46.36,46.36A8.88,8.88,0,0,1-2838.71,2930.91Z" transform="translate(3595.54 -2683.71)"/></svg>