<svg id="Layer_1" data-name="Layer 1" xmlns="http://www.w3.org/2000/svg" viewBox="0 0 667.2 289.7"><defs><style>.cls-1{fill:#1570b4;}.cls-2{fill:#79d8ff;}.cls-3{fill:#0084dd;}</style></defs><title>anim_15</title><path class="cls-1" d="M-2016.93,6140.29a116.06,116.06,0,0,1-82.32-34,57.21,57.21,0,0,0-40.73-16.85,57.22,57.22,0,0,0-40.71,16.87,116.55,116.55,0,0,1-164.61-.07c-11.16-11-25-16.82-39.77-16.82a57.22,57.22,0,0,0-40.71,16.87,116.56,116.56,0,0,1-164.6,0,19.59,19.59,0,0,1,0-27.71,19.59,19.59,0,0,1,27.71,0,77.32,77.32,0,0,0,109.19,0,96.14,96.14,0,0,1,68.41-28.34c24.94,0,48.87,10,67.36,28.18a77.35,77.35,0,0,0,109.32.18,96.14,96.14,0,0,1,68.41-28.34,96.14,96.14,0,0,1,68.44,28.32,77.32,77.32,0,0,0,109.17,0,19.6,19.6,0,0,1,27.71,0,19.59,19.59,0,0,1,0,27.71A116,116,0,0,1-2016.93,6140.29Z" transform="translate(2596.13 -5850.59)"/><path class="cls-2" d="M-2016.93,6039.47a116.06,116.06,0,0,1-82.32-34,57.21,57.21,0,0,0-40.73-16.85,57.22,57.22,0,0,0-40.71,16.87,116.55,116.55,0,0,1-164.61-.07c-11.16-11-25-16.82-39.77-16.82a57.22,57.22,0,0,0-40.71,16.87,116.56,116.56,0,0,1-164.6,0,19.59,19.59,0,0,1,0-27.71,19.59,19.59,0,0,1,27.71,0,77.32,77.32,0,0,0,109.19,0,96.14,96.14,0,0,1,68.41-28.34c24.94,0,48.87,10,67.36,28.18a77.35,77.35,0,0,0,109.32.18A96.14,96.14,0,0,1-2140,5949.4a96.14,96.14,0,0,1,68.44,28.32,77.32,77.32,0,0,0,109.17,0,19.6,19.6,0,0,1,27.71,0,19.59,19.59,0,0,1,0,27.71A116,116,0,0,1-2016.93,6039.47Z" transform="translate(2596.13 -5850.59)"/><path class="cls-3" d="M-2016.93,5940.67a116.06,116.06,0,0,1-82.32-34,57.21,57.21,0,0,0-40.73-16.85,57.22,57.22,0,0,0-40.71,16.87,116.55,116.55,0,0,1-164.61-.07c-11.16-11-25-16.82-39.77-16.82a57.22,57.22,0,0,0-40.71,16.87,116.56,116.56,0,0,1-164.6,0,19.59,19.59,0,0,1,0-27.71,19.59,19.59,0,0,1,27.71,0,77.32,77.32,0,0,0,109.19,0,96.14,96.14,0,0,1,68.41-28.34c24.94,0,48.87,10,67.36,28.18a77.35,77.35,0,0,0,109.32.18A96.14,96.14,0,0,1-2140,5850.6a96.14,96.14,0,0,1,68.44,28.32,77.32,77.32,0,0,0,109.17,0,19.6,19.6,0,0,1,27.71,0,19.59,19.59,0,0,1,0,27.71A116,116,0,0,1-2016.93,5940.67Z" transform="translate(2596.13 -5850.59)"/></svg>