<svg id="Layer_1" data-name="Layer 1" xmlns="http://www.w3.org/2000/svg" viewBox="0 0 822.9 443.38"><defs><style>.cls-1{fill:#ff452e;}.cls-2{fill:#7eb000;}.cls-3{fill:#b2da2a;}.cls-4{fill:#fb7e7b;}.cls-5{fill:#fdcec9;}.cls-6{fill:#40cbe2;}.cls-7{fill:#e36b07;}</style></defs><title>anim_16</title><path class="cls-1" d="M-1195.69,6077.2V5967.43l-55.35,45.4c-51.32-57.64-128.42-54.51-176.9,9.48,48.48,64,125.57,67.12,176.9,9.48Z" transform="translate(1586.74 -5820.93)"/><path class="cls-2" d="M-970.76,6264.3V6154.54l-55.35,45.4c-51.32-57.64-128.42-54.51-176.9,9.48,48.48,64,125.57,67.12,176.9,9.48Z" transform="translate(1586.74 -5820.93)"/><path class="cls-3" d="M-970.76,6210.36v-55.82l-55.35,45.4c-51.32-57.64-128.42-54.51-176.9,9.48,0.24,0.32.5,0.62,0.74,0.94h231.51Z" transform="translate(1586.74 -5820.93)"/><path class="cls-4" d="M-763.84,6133v-75.61L-802,6088.71c-35.35-39.71-88.46-37.55-121.85,6.53,33.4,44.08,86.5,46.24,121.85,6.53Z" transform="translate(1586.74 -5820.93)"/><path class="cls-5" d="M-763.84,6095.89v-38.45L-802,6088.71c-35.35-39.71-88.46-37.55-121.85,6.53,0.17,0.22.34,0.43,0.51,0.64h159.47Z" transform="translate(1586.74 -5820.93)"/><path class="cls-6" d="M-884.93,5930.69V5820.93l-55.35,45.4c-51.32-57.64-128.42-54.51-176.9,9.48,48.48,64,125.57,67.12,176.9,9.48Z" transform="translate(1586.74 -5820.93)"/><path class="cls-7" d="M-1426.56,5933.48v-75.7l-38.18,31.31c-35.4-39.75-88.57-37.6-122,6.54,33.44,44.14,86.61,46.29,122,6.54Z" transform="translate(1586.74 -5820.93)"/></svg>