<svg id="Layer_1" data-name="Layer 1" xmlns="http://www.w3.org/2000/svg" viewBox="0 0 237.21 214.44"><defs><style>.cls-1{fill:#bf7100;}.cls-1,.cls-2,.cls-3{fill-rule:evenodd;}.cls-2{fill:#1d2e2f;}.cls-3{fill:#edad51;}</style></defs><title>anim_40</title><g id="body"><path class="cls-1" d="M709.6,2825.31c-6.1-1.24-2.15,18.63-9.75,34.63-5.27,11.1-14.38,18.94-26.8,21.25,6.07-19.34-3.06-29.73-13.44-33.57-5.55-28-19.7-56-39.16-73.6a45.24,45.24,0,0,0,15.65-9.88c12.67-12.67,13.75-32.14,13.75-32.14s-19.46,1.08-32.13,13.75A46.79,46.79,0,0,0,606.87,2764a58.4,58.4,0,0,0-29.52-8.34h0a57.34,57.34,0,0,0-26.18,6.51A45.69,45.69,0,0,0,541,2745.74c-12.67-12.67-32.14-13.75-32.14-13.75s1.08,19.46,13.75,32.14a43.68,43.68,0,0,0,13,8.75c-20.13,17.5-34.8,46.08-40.48,74.74-11.2,4.15-21,15.9-11.73,38.32,15,36.33,24.67,35.67,22,38s-28,16.67-8,22c9.25,2.47,17.21-4.62,23.1-13,15.49,9.35,36.19,13.64,56.9,13.13,20.71,0.51,41.41-3.78,56.9-13.14,5.89,8.33,13.85,15.42,23.1,13,20-5.33-5.33-19.67-8-22-1.45-1.27.74-1.66,5.44-7.55l0.27,0.07c24.8,5.2,48.09-17.8,57.29-37.4S714.71,2826.35,709.6,2825.31Z" transform="translate(-479.66 -2731.99)"/></g><g id="eye"><path class="cls-2" d="M588.35,2785.94c-3.87,0-7,3.58-7,8s3.13,8,7,8,7-3.58,7-8S592.21,2785.94,588.35,2785.94Zm-24,0c-3.87,0-7,3.58-7,8s3.13,8,7,8,7-3.58,7-8S568.21,2785.94,564.35,2785.94Z" transform="translate(-479.66 -2731.99)"/></g><g id="nose"><path class="cls-3" d="M588.12,2815.94a16.19,16.19,0,0,0-10.77,4.18,16.19,16.19,0,0,0-10.77-4.18c-9.52,0-17.23,8.51-17.23,19s7.71,19,17.23,19a16.19,16.19,0,0,0,10.77-4.18,16.19,16.19,0,0,0,10.77,4.18c9.52,0,17.23-8.51,17.23-19S597.63,2815.94,588.12,2815.94Z" transform="translate(-479.66 -2731.99)"/></g><g id="nose-2" data-name="nose"><path class="cls-2" d="M576.35,2813.94c-8.28,0-15,.53-15,6.6s6.72,15.4,15,15.4,15-9.32,15-15.4S584.63,2813.94,576.35,2813.94Z" transform="translate(-479.66 -2731.99)"/></g><g id="bag"><path class="cls-3" d="M576.35,2881.41c-27.06,0-49-3.47-49,17.17s21.94,35.36,49,35.36,49-14.71,49-35.36S603.41,2881.41,576.35,2881.41Z" transform="translate(-479.66 -2731.99)"/></g></svg>