<svg xmlns="http://www.w3.org/2000/svg" xmlns:xlink="http://www.w3.org/1999/xlink" viewBox="0 0 337.79 343.56"><defs><style>.cls-1{isolation:isolate;}.cls-2{fill:url(#radial-gradient);}.cls-16,.cls-18,.cls-22,.cls-3,.cls-30,.cls-34,.cls-35,.cls-38,.cls-39,.cls-43{mix-blend-mode:multiply;}.cls-4{fill:url(#radial-gradient-2);}.cls-5{fill:url(#radial-gradient-3);}.cls-6{fill:url(#radial-gradient-4);}.cls-7{fill:url(#radial-gradient-5);}.cls-8{fill:url(#radial-gradient-6);}.cls-9{fill:url(#radial-gradient-7);}.cls-10{fill:url(#radial-gradient-8);}.cls-11{fill:url(#radial-gradient-9);}.cls-12{fill:url(#radial-gradient-10);}.cls-13{fill:url(#radial-gradient-11);}.cls-14{fill:url(#radial-gradient-12);}.cls-15,.cls-16,.cls-26{fill:#aa6d3a;}.cls-15{stroke:#955f31;}.cls-15,.cls-17,.cls-20,.cls-21,.cls-23,.cls-25,.cls-28,.cls-29,.cls-36,.cls-40{stroke-miterlimit:10;}.cls-15,.cls-17,.cls-20,.cls-21,.cls-23,.cls-24,.cls-25,.cls-28,.cls-29,.cls-36,.cls-40{stroke-width:1.33px;}.cls-16,.cls-30,.cls-35,.cls-38,.cls-41{opacity:0.5;}.cls-17,.cls-27{fill:#b97124;}.cls-17{stroke:#9b5124;}.cls-18,.cls-19{fill:#9b5124;}.cls-18,.cls-31,.cls-34{opacity:0.3;}.cls-20,.cls-21,.cls-23,.cls-24,.cls-25,.cls-29,.cls-32,.cls-36,.cls-40{stroke:#aa6d3a;}.cls-20{fill:url(#linear-gradient);}.cls-21{fill:url(#linear-gradient-2);}.cls-22,.cls-30,.cls-39,.cls-43{fill:#d8a44f;}.cls-23{fill:url(#linear-gradient-3);}.cls-24{fill:#e3bc8b;}.cls-24,.cls-32{stroke-linecap:round;stroke-linejoin:round;}.cls-25{fill:url(#linear-gradient-4);}.cls-28,.cls-35{fill:#6f3014;}.cls-28{stroke:#552002;}.cls-29{fill:url(#linear-gradient-5);}.cls-31,.cls-41,.cls-42{fill:#fff;}.cls-32{stroke-width:0.66px;fill:url(#linear-gradient-6);}.cls-33{fill:#805527;}.cls-34{fill:url(#linear-gradient-7);}.cls-36{fill:url(#linear-gradient-8);}.cls-37,.cls-38{fill:#794c24;}.cls-39{opacity:0.4;}.cls-40{fill:url(#linear-gradient-9);}.cls-42{opacity:0.2;}.cls-43{opacity:0.7;}.cls-44{fill:url(#radial-gradient-13);}.cls-45{fill:url(#radial-gradient-14);}.cls-46{fill:#231f20;}.cls-47{fill:#d8d9da;}</style><radialGradient id="radial-gradient" cx="2236.2" cy="32413.1" r="111.4" gradientTransform="translate(-19.71 -6588.89) scale(1.02 0.22)" gradientUnits="userSpaceOnUse"><stop offset="0" stop-color="#bbe4eb"/><stop offset="0.31" stop-color="#caeaf0"/><stop offset="0.91" stop-color="#f1f9fc"/><stop offset="1" stop-color="#f7fcfe"/></radialGradient><radialGradient id="radial-gradient-2" cx="2234.39" cy="454.48" r="78.01" gradientTransform="translate(-19.71 13.39) scale(1.02 1.03)" gradientUnits="userSpaceOnUse"><stop offset="0" stop-color="#bbe4eb"/><stop offset="0.35" stop-color="#c0e6eb"/><stop offset="0.75" stop-color="#cdebec"/><stop offset="0.87" stop-color="#d3edec"/></radialGradient><radialGradient id="radial-gradient-3" cx="2208.11" cy="484.07" r="60.34" xlink:href="#radial-gradient-2"/><radialGradient id="radial-gradient-4" cx="2335.91" cy="479.28" r="19.5" xlink:href="#radial-gradient-2"/><radialGradient id="radial-gradient-5" cx="2192.37" cy="465.05" r="35.59" xlink:href="#radial-gradient-2"/><radialGradient id="radial-gradient-6" cx="2307.31" cy="465.45" r="24.3" xlink:href="#radial-gradient-2"/><radialGradient id="radial-gradient-7" cx="2278.98" cy="465.13" r="20.15" xlink:href="#radial-gradient-2"/><radialGradient id="radial-gradient-8" cx="2218.47" cy="464.3" r="37.86" xlink:href="#radial-gradient-2"/><radialGradient id="radial-gradient-9" cx="2234.4" cy="463.94" r="19.2" xlink:href="#radial-gradient-2"/><radialGradient id="radial-gradient-10" cx="2264.41" cy="463.26" r="9.98" xlink:href="#radial-gradient-2"/><radialGradient id="radial-gradient-11" cx="2239.78" cy="463.43" r="9.31" xlink:href="#radial-gradient-2"/><radialGradient id="radial-gradient-12" cx="2251.39" cy="461.31" r="5.81" xlink:href="#radial-gradient-2"/><linearGradient id="linear-gradient" x1="2147.09" y1="228.91" x2="2159.49" y2="374.2" gradientUnits="userSpaceOnUse"><stop offset="0" stop-color="#d8a44f"/><stop offset="0.51" stop-color="#fed59e"/><stop offset="1" stop-color="#d8a44f"/></linearGradient><linearGradient id="linear-gradient-2" x1="2119.8" y1="318.64" x2="2181.33" y2="318.64" xlink:href="#linear-gradient"/><linearGradient id="linear-gradient-3" x1="2192.15" y1="118.05" x2="2161.38" y2="338.14" xlink:href="#linear-gradient"/><linearGradient id="linear-gradient-4" x1="2226.67" y1="114.21" x2="2153.36" y2="339.02" xlink:href="#linear-gradient"/><linearGradient id="linear-gradient-5" x1="2317.39" y1="357.49" x2="2277.66" y2="455.84" xlink:href="#linear-gradient"/><linearGradient id="linear-gradient-6" x1="2247.24" y1="303.95" x2="2232.75" y2="308.3" gradientUnits="userSpaceOnUse"><stop offset="0.02" stop-color="#fcb64b"/><stop offset="0.53" stop-color="#aa6d3a"/><stop offset="0.82" stop-color="#6f451e"/></linearGradient><linearGradient id="linear-gradient-7" x1="2246.99" y1="303.74" x2="2232.62" y2="308.05" xlink:href="#linear-gradient-6"/><linearGradient id="linear-gradient-8" x1="2302.79" y1="371.34" x2="2272.61" y2="406.11" xlink:href="#linear-gradient"/><linearGradient id="linear-gradient-9" x1="2294.1" y1="343.3" x2="2238.77" y2="441.56" gradientUnits="userSpaceOnUse"><stop offset="0.01" stop-color="#d8a44f"/><stop offset="0.28" stop-color="#fed59e"/><stop offset="0.71" stop-color="#d8a44f"/><stop offset="1" stop-color="#d08533"/></linearGradient><radialGradient id="radial-gradient-13" cx="787.13" cy="18.71" r="7.37" gradientTransform="matrix(0.54, 0.88, -0.61, 0.39, 1843.86, -265.91)" gradientUnits="userSpaceOnUse"><stop offset="0.34" stop-color="#e6d7c5"/><stop offset="0.95" stop-color="#f8af8f"/></radialGradient><radialGradient id="radial-gradient-14" cx="786.38" cy="-2325.63" r="3.05" gradientTransform="matrix(0.54, 0.88, -0.86, 0.55, -174.5, 1011.9)" gradientUnits="userSpaceOnUse"><stop offset="0.25" stop-color="#aa6d3a"/><stop offset="1" stop-color="#2a0c00"/></radialGradient></defs><title>anim_98</title><g class="cls-1"><g id="Layer_1" data-name="Layer 1"><path class="cls-2" d="M2366.29,493.34c0,19.11-64.18,21.34-75.19,22.16-41,3.06-85,3-125.16-7-6.41-1.6-23.67-4.86-26-12.91-2.44-8.3,10-12.34,15.85-14.38,36.57-12.81,79.89-12.44,118.05-11,21.5,0.84,43.38,2.6,64.36,7.62C2344.91,479.44,2366.29,483.34,2366.29,493.34Z" transform="translate(-2042.31 -178.76)"/><g class="cls-3"><path class="cls-4" d="M2151.73,491.3c-2.77-.64-12.16-2.35-12.32-6-0.39-9,54.49-9.45,59-9.68,40.75-2.12,82.09-3.62,122.8,0,5.23,0.46,51.32,3.81,39.72,17.83,7-27-187.09-20.12-210-10.45C2143.83,485.9,2145.2,488.25,2151.73,491.3Z" transform="translate(-2042.31 -178.76)"/><path class="cls-5" d="M2138.07,505.6c31.79,10.79,66.66,14.69,100.05,13.57,19-.64,38.27-3,57.29-2.2,3.43,0.14,13.54-.13,8.16,5.37,2.76-.94,8.07-2.57,7-5.76-1.73-5.3-43.13-.35-48.08-0.21C2221.56,517.45,2177.61,517.75,2138.07,505.6Z" transform="translate(-2042.31 -178.76)"/><path class="cls-6" d="M2367.15,498.93c2.35-.35,11.89-2.26,12.85.48,1.35,3.87-11.6,8.08-13.86,9-12.24,4.76-25,8.34-37.69,11.73,10.78-3.3,21.55-6.78,32.05-10.89C2367.38,506.5,2385.54,498.47,2367.15,498.93Z" transform="translate(-2042.31 -178.76)"/><path class="cls-7" d="M2220.81,480.18c-14.74.08-29.93,0.72-44.37,3.83-11.18,2.41-27.24,10.91-9,17,27.57,9.23,61.43,7.23,90.23,7.21q-18.57-.42-37.11-1.81c-15.93-1.19-38.13-.69-52.59-8.59-14.8-8.08,5.8-12.76,13.37-14.1C2194.29,481.44,2207.63,480.61,2220.81,480.18Z" transform="translate(-2042.31 -178.76)"/><path class="cls-8" d="M2300.28,478.92c8.4,0.32,63.95,3.79,55.31,20-4.27,8-25.13,8.66-32.61,9.54-9.64,1.14-19.35,1.79-29.06,2.06,10.72-.37,56.22-0.67,57.69-15.73C2352.88,481.72,2309.16,479.69,2300.28,478.92Z" transform="translate(-2042.31 -178.76)"/><path class="cls-9" d="M2269.62,483.41c7.75-.41,55.49-1.2,53.55,12-1.38,9.34-36.42,9.64-43.7,10.12,7-.53,42.26-2.13,39-12.8C2315.06,481.79,2278.6,483.45,2269.62,483.41Z" transform="translate(-2042.31 -178.76)"/><path class="cls-10" d="M2234,483.54a270.52,270.52,0,0,0-33.49,1c-5.61.58-26.12,2.25-16.57,10.41,9.22,7.88,32.46,6.82,43.68,7.59,20.13,1.39,40.78,1.76,60.82-.89-29.47,1.37-61.64,3.28-90.54-3.53-12.61-3-19.21-8.65-2.85-11.63C2207.77,484.17,2221,483.83,2234,483.54Z" transform="translate(-2042.31 -178.76)"/><path class="cls-11" d="M2242.53,487c-3.73,0-14.93-.63-17.3,2.61-4.14,5.67,5.11,7.13,9.65,8,14,2.58,29,1.75,43.16,1.06-12.77.39-26.07,0.47-38.64-2C2223.69,493.59,2228.7,487.81,2242.53,487Z" transform="translate(-2042.31 -178.76)"/><path class="cls-12" d="M2268.07,487.69c3.45-.07,27-0.61,27.08,3.51s-13.65,5.51-17.1,6.07c2.76-.58,11.07-1.47,12.51-4C2293.87,487.37,2271,487.81,2268.07,487.69Z" transform="translate(-2042.31 -178.76)"/><path class="cls-13" d="M2251.11,489.13c-4.62.14-11.09,1.27-4.92,5.23,5.34,3.43,17.42,1.05,23.32.08-5.59.55-14.08,2.06-19.36-.19C2244.44,491.82,2244.19,488.75,2251.11,489.13Z" transform="translate(-2042.31 -178.76)"/><path class="cls-14" d="M2260.12,489.22s11.75-.76,16.51,2.51C2276.63,491.73,2266.52,489,2260.12,489.22Z" transform="translate(-2042.31 -178.76)"/></g><path class="cls-15" d="M2068.72,219.41c-4.31,1.31-5.52,5.24-6.25,9.23-1.85,10.1-.07,19.85-3,30.13-2.74,9.59-17.8,36.32-6.38,44.22-5.12-14.86,4.66-29,10.49-42C2069.56,247.68,2066.44,233.64,2068.72,219.41Z" transform="translate(-2042.31 -178.76)"/><path class="cls-16" d="M2067.35,243a111.62,111.62,0,0,1,1.33-23.31c-11.17,3.89-5.54,25.9-5.78,33.95-0.41,13.34-13.59,28.48-12.84,40,0.12,3.79.38,7.28,3,9.59-7.67-21.65,15.33-39,14.31-60.27C2066.75,230.67,2067.94,255.33,2067.35,243Z" transform="translate(-2042.31 -178.76)"/><path class="cls-17" d="M2048.87,337.29c-2.18-8.85,7.48-12.3,6.19-21.68,0.51,2.92,1.77,5,.84,7.85a19,19,0,0,0,3.14-13.35c-0.93-5.26-7.22-8.7-7.75-13.53-5.26,6.11,4.59,21.13-7.51,21.18,2.11,0.36,1.18,3.47,3.74,1.37-5.92,3.29-5.61,8.74-1.7,14.25-0.64-3.08-.4-7,1.5-9.6C2045.32,328.15,2046.26,333.35,2048.87,337.29Z" transform="translate(-2042.31 -178.76)"/><path class="cls-18" d="M2051.06,296.87c-1.92,5.66,6.47,24.54-7.27,20.88C2055.34,316.94,2046.19,303.42,2051.06,296.87Z" transform="translate(-2042.31 -178.76)"/><path class="cls-18" d="M2056.19,314.46c-0.86,8.2-12.56,14.29-7.32,22.83C2047.13,329.44,2055.92,323,2056.19,314.46Z" transform="translate(-2042.31 -178.76)"/><path class="cls-19" d="M2047.32,323.78s-5.27,2.45-1.5,9.6A12.46,12.46,0,0,1,2047.32,323.78Z" transform="translate(-2042.31 -178.76)"/><path class="cls-19" d="M2051.51,300.39a12.9,12.9,0,0,1,3.55,12.32S2055.2,303.81,2051.51,300.39Z" transform="translate(-2042.31 -178.76)"/><path class="cls-19" d="M2053.57,309.36s3.86,10.76-3.72,13.82C2049.85,323.18,2055.54,319.67,2053.57,309.36Z" transform="translate(-2042.31 -178.76)"/><path class="cls-19" d="M2044.69,324.59s1.23-3,6.23-4.7A6.42,6.42,0,0,0,2044.69,324.59Z" transform="translate(-2042.31 -178.76)"/><path class="cls-20" d="M2142.36,356.79c0.23,7,3.19,7.76,6.54,12.76,3.56,5.32,5.15,12.36,7.88,18.17,3,6.36,1.45,12.23,6.67,16.51s8.51,2.61,14.69-1.63c-6.74-8.2-12.53-14.33-17-24.36a257.42,257.42,0,0,1-13.75-37.72c-1.72,2.54-5,5.63-5.77,8.48-1,3.42.62,3.92,0.74,7.79C2142.52,361.8,2142.3,355.05,2142.36,356.79Z" transform="translate(-2042.31 -178.76)"/><path class="cls-21" d="M2122.48,313l5.07,11.38,3.3-10.44a45.91,45.91,0,0,1-8.37-.94C2123.9,316.15,2125.13,313.5,2122.48,313Z" transform="translate(-2042.31 -178.76)"/><path class="cls-22" d="M2142.36,356.79c0.23,7,3.19,7.76,6.54,12.76,3.56,5.32,5.15,12.36,7.88,18.17,3,6.36,1.45,12.23,6.67,16.51s8.51,2.61,14.69-1.63c-6.74-8.2-12.53-14.33-17-24.36a257.42,257.42,0,0,1-13.75-37.72c-1.72,2.54-5,5.63-5.77,8.48-1,3.42.62,3.92,0.74,7.79C2142.52,361.8,2142.3,355.05,2142.36,356.79Z" transform="translate(-2042.31 -178.76)"/><path class="cls-22" d="M2122.48,313l5.07,11.38,3.3-10.44a45.91,45.91,0,0,1-8.37-.94C2123.9,316.15,2125.13,313.5,2122.48,313Z" transform="translate(-2042.31 -178.76)"/><path class="cls-23" d="M2263,405.74c-9.63-8.29-7-18.52-9-29.69-2.3-12.91-7.68-25.84-10.58-38.8-5.36-23.94-12.53-47.93-19.46-71.4-4.78-16.19-8.19-59.83-34.12-54.42-12.13,2.53-18,2.21-26.51-10-4.82-6.94-7.75-11.92-15.84-15.77-25.74-12.25-60.79-6.64-76.49,18.66-15,24.21-8.67,50.67-7.35,77.05,0.75,14.9,4.8,29.54,4.75,44.45,0,5.39-1.06,9.78-1.94,14.9s-0.5,10.07-.65,15.53a337.31,337.31,0,0,1-3.51,39.88c-0.19,1.24-.59,2.72-0.67,3.94-0.05.75,0.85,5,.94,4.4-0.8,5.27-8,12.13,1.43,13.28,9.69,1.17,5.87-4,6.66-7.71,0.92-4.32,1.73-5.6,1.89-9.95,0.16-4.19-1.81-9.34-1.75-13.85a193.8,193.8,0,0,1,2.45-26.4c1.44-9.32,7-13.41,8.06-23.08,1.32-12.48,1.11-32.38,10.86-41.83,9.53,11,23.94,18.68,38.59,19-5.46,17.31-10.82,34.67-16.63,51.86-2.76,8.17-5.51,14.9-10,22-4.4,6.92-3.27,14.6-6.31,22.14-4.38,10.88-12.07,20.57-17.81,30.76-1.76,3.12-1.91,6.9-3.19,9.52-1,2.1-8.8,6.7-8.55,9,0.4,3.64,4.15,3.17,7.38,3.15,2,0,8.16-.63,9.67-2.44s0.17-3.85,1.14-5.78a111.24,111.24,0,0,0,6.34-14.8c3.07-9.21,8.21-17.85,12.58-26.48,3.54-7,9.45-12.34,11-19.66,4.6-21.1,21.66-38.94,33.73-56.86,4.63-6.87,9.87-19,17.21-23.51,6.53-4,16.43-2.9,23.83-5.21,10.73-3.35,9.26-3.71,15.68,6.1a177.55,177.55,0,0,1,13.73,25.43c8.54,19.19,13.89,37.15,16.55,57.9,2.12,16.5,15.72,12.69,28.72,11.62A11.62,11.62,0,0,1,2263,405.74Z" transform="translate(-2042.31 -178.76)"/><path class="cls-24" d="M2200.36,304c-2.87,1.33-5.8,2.52-8.77,3.57,16.72,16.28,32.22,33.82,39.36,57.23C2224.48,343,2213.2,322.53,2200.36,304Z" transform="translate(-2042.31 -178.76)"/><path class="cls-25" d="M2194.88,210.68c0.2,0,.41,0,0.66,0Z" transform="translate(-2042.31 -178.76)"/><path class="cls-26" d="M2159.91,224c0.18,0-7.24-.36-6.67-1.62-0.58,1.27,14.28-.49,15-0.73,1.48-.51,17.75-9.46,17.88-9C2187,215.53,2162.53,224,2159.91,224Z" transform="translate(-2042.31 -178.76)"/><path class="cls-26" d="M2174,215.39c-0.44,0-16.78-19-17.25-18.4C2158.15,195.29,2174.93,215.39,2174,215.39Z" transform="translate(-2042.31 -178.76)"/><path class="cls-26" d="M2092.26,295.26c-9.31,0-18.52-29.34-19.68-35.12-1.89-9.43-2-19.75,1.64-28.81,0.2-.51,4.64-9.63,5.56-8.64,0.12,0.13-4.72,8.26-5,8.93-4.07,10.23-3.38,22.17-.59,32.6C2075.54,269.25,2085.86,295.26,2092.26,295.26Z" transform="translate(-2042.31 -178.76)"/><path class="cls-26" d="M2073.7,264.1c-3.43,0-4.47-28.34-4.06-32,0.07-.6,1.72-10.2,2.84-9.46,0.08,0.05-2.18,10-2.24,10.69C2069.91,237.12,2071.71,264.1,2073.7,264.1Z" transform="translate(-2042.31 -178.76)"/><path class="cls-26" d="M2130.85,314.22c-2.82,0,9.34-21.64,10.27-20.58C2141.12,293.63,2129.29,314.22,2130.85,314.22Z" transform="translate(-2042.31 -178.76)"/><path class="cls-26" d="M2129.81,317.5c-0.2,0,5.94-11.52,6.75-12.64,0.11-.15,12.27-11.31,12.2-8.14,0-1.41-10,6.05-10.42,6.54C2136.68,305.24,2131.95,317.5,2129.81,317.5Z" transform="translate(-2042.31 -178.76)"/><path class="cls-26" d="M2200.36,304.29c-2.93,0-10.82-21.76-11.61-25.15-0.38-1.59-2.18-20.69-.64-20.56-0.45,0,1.4,21.29,1.94,23C2190.83,284.17,2199.54,304.29,2200.36,304.29Z" transform="translate(-2042.31 -178.76)"/><path class="cls-26" d="M2192.63,288.78c-4.66,0-12.18-25.27-11.5-25.35S2189,288.78,2192.63,288.78Z" transform="translate(-2042.31 -178.76)"/><path class="cls-26" d="M2167.91,311.32q-3.42,1.49-4.66-.73c0-.15,11.08-0.3,11.12,0C2174.47,311.5,2166.17,311.32,2167.91,311.32Z" transform="translate(-2042.31 -178.76)"/><path class="cls-26" d="M2075.37,299.28c-5.17,0-11.66-28.74-12-28.66C2064.18,270.41,2072,299.28,2075.37,299.28Z" transform="translate(-2042.31 -178.76)"/><path class="cls-27" d="M2101.6,211.79c-12.85,0-10.23-10.45-6.26-18.72,4.19-8.73,9.47-7.41,15.88-.9C2120.2,201.29,2115.14,211.79,2101.6,211.79Z" transform="translate(-2042.31 -178.76)"/><path class="cls-19" d="M2101.62,186.63c8.78,0,19.12,12.93,12.41,21.43-3.71,4.7-18.84,5.31-22-.56C2090.05,203.73,2096.33,186.63,2101.62,186.63Zm0-.67c-5.55,0-10.83,14.06-10.22,18.61,1,7.54,13.55,10.87,20.13,6.53C2122.56,203.84,2113.48,186,2101.62,186Z" transform="translate(-2042.31 -178.76)"/><path class="cls-27" d="M2119.9,215.35c-5.21,0-1.82-8.67-1.21-11.5,1.48-6.92,2.5-8.63,10.67-8.19,7.88,0.42,10.11,3,6.24,11.87C2133,213.47,2127.35,215.35,2119.9,215.35Z" transform="translate(-2042.31 -178.76)"/><path class="cls-19" d="M2125.65,195.82c2.68,0,9.58-.64,10.95,2,3.38,6.62-3,13.76-8.06,15.38-8.44,2.67-10.28,3.25-10.51-5.41C2117.89,202.9,2119.95,195.82,2125.65,195.82Zm0-.67c-7,0-8,7-8.29,12.63-0.36,8.33,1.66,8.54,9.8,6.49,2.41-.61,6.57-1.07,8.22-3.24,1.12-1.47,2.37-12.46,1.88-13.18C2135,194.63,2129.29,195.15,2125.65,195.15Z" transform="translate(-2042.31 -178.76)"/><path class="cls-27" d="M2138,193.12c-3.3-.23-8.49-7.17-3.42-7C2137.37,186.16,2142,191.16,2138,193.12Z" transform="translate(-2042.31 -178.76)"/><path class="cls-19" d="M2134.33,186.39c1.47,0,7.46,4.56,4.22,6.16S2130.23,186.39,2134.33,186.39Zm0-.67c-5.62,0,0,8,3.69,7.74C2144.37,192.95,2136.32,185.72,2134.33,185.72Z" transform="translate(-2042.31 -178.76)"/><path class="cls-27" d="M2119.36,192.45c-1.52,0-11.09-8.36-10.75-8.87,1.82-2.81,18.54-4,21.18-.82C2135.15,189.16,2123.66,192.45,2119.36,192.45Z" transform="translate(-2042.31 -178.76)"/><path class="cls-19" d="M2122.74,181.59c6.66,0,10.47,4.17,5,8.85-6.49,5.51-14.74-2.13-18.85-6.63C2111.18,180.3,2118.93,181.59,2122.74,181.59Zm0-.67c-3.71,0-12.1-1.08-14.41,2.47s15.45,12.86,20.61,7.45S2129.12,180.92,2122.74,180.92Z" transform="translate(-2042.31 -178.76)"/><path class="cls-27" d="M2084.66,202.8c-12.58,0,4.25-15.55,6.23-11.42C2092.44,194.62,2086.87,201.17,2084.66,202.8Z" transform="translate(-2042.31 -178.76)"/><path class="cls-19" d="M2088.8,190.79c4.61,0-1.56,11.26-4.07,11.67C2075.56,204,2084.48,190.79,2088.8,190.79Zm0-.67c-5.18,0-14,14.69-4.09,13C2087.83,202.6,2094.95,190.12,2088.8,190.12Z" transform="translate(-2042.31 -178.76)"/><path class="cls-27" d="M2077.45,219.75c-3.8,0-5.6-17.42,2-15.08C2086,206.72,2084.51,219.75,2077.45,219.75Z" transform="translate(-2042.31 -178.76)"/><path class="cls-19" d="M2078.31,204.13c5.57,0,7.32,13.67.68,14.7C2072.53,219.83,2073.54,204.13,2078.31,204.13Zm0-.67c-6.18,0-6.23,16.79.12,16.26C2086.24,219.07,2085.45,203.46,2078.31,203.46Z" transform="translate(-2042.31 -178.76)"/><path class="cls-27" d="M2081.91,241.27c-8.26,0-5.33-14.57.34-15.69C2091.19,223.82,2091.91,239,2081.91,241.27Z" transform="translate(-2042.31 -178.76)"/><path class="cls-19" d="M2083.53,225.53c11.56,0,2.57,24.77-5.2,11.9C2076.46,234.35,2078.43,225.53,2083.53,225.53Zm0-.67c-6.93,0-10.13,13.63-2.71,16.26C2091.47,244.9,2093.06,224.86,2083.53,224.86Z" transform="translate(-2042.31 -178.76)"/><path class="cls-27" d="M2074.94,246.16c-3.58,0-.8-6.47,1.16-5.09S2079.5,246.16,2074.94,246.16Z" transform="translate(-2042.31 -178.76)"/><path class="cls-19" d="M2075.45,241.25c7.88,0-7.62,9.38,0,0h0Zm0-.67c-3.72,0-2.41,4.63-.41,5.91C2075.91,247,2082.11,240.58,2075.45,240.58Z" transform="translate(-2042.31 -178.76)"/><path class="cls-27" d="M2082.18,258.53c-1.54,0-7.64-1.69-7.74-2.62,0,0,4.75-6.46,6.42-6C2082.34,250.34,2084.29,258.53,2082.18,258.53Z" transform="translate(-2042.31 -178.76)"/><path class="cls-19" d="M2080.86,250.25c0.61,0,2.82,6.85,1.9,7.77-1.13,1.14-8.05-2.8-8-2.15C2074.74,255.59,2079.27,250.25,2080.86,250.25Zm0-.67c-4.36,0-8.16,5.54-3.55,8C2088.2,263.35,2081.42,249.59,2080.86,249.59Z" transform="translate(-2042.31 -178.76)"/><path class="cls-27" d="M2095.81,253.38c-5.24,0-13-2.74-10.31-8.69C2092.13,229.77,2100.66,253.38,2095.81,253.38Z" transform="translate(-2042.31 -178.76)"/><path class="cls-19" d="M2093.5,241.08c5.3,0,5.06,20.66-6,9.24C2083.62,246.37,2085.58,241.08,2093.5,241.08Zm0-.67c-11.6,0-11.13,14-.06,12.87C2099.89,252.6,2098.31,240.41,2093.5,240.41Z" transform="translate(-2042.31 -178.76)"/><path class="cls-27" d="M2103.27,257.89c-4.44,0-4.84-14.52-4.42-16.6,0.88-4.36-1.11-3,2.4-4.78,1.43-.74,10.4.58,11.47,1.29,1.77,1.17,6.59,10.57,5.88,14.11C2117.52,257.25,2108.88,257.36,2103.27,257.89Z" transform="translate(-2042.31 -178.76)"/><path class="cls-19" d="M2101.85,236.82c2.41,0,9.06.05,10.87,1.32,3,2.08,1,1.23,2.64,5.17,2.46,5.87,4.39,9.1-.34,12-8.24,5-13.82,2.86-15.25-5.61C2099.2,246.33,2097.55,236.82,2101.85,236.82Zm0-.67c-5.34,0-3.59,5.25-3.21,9.07,1,9.76.66,13,9.87,12.16s10.57-1.4,9-9.4C2115.47,237.45,2113.53,236.15,2101.85,236.15Z" transform="translate(-2042.31 -178.76)"/><path class="cls-27" d="M2109.22,230.55c-6,0-29.71-5-20.35-13.28,3.87-3.4,9.69-.92,14.49.07,3.65,0.76,6.82.51,8.45,4.13C2112.45,222.89,2111.76,230.55,2109.22,230.55Z" transform="translate(-2042.31 -178.76)"/><path class="cls-19" d="M2091.78,215.69c3.42,0,16.37,1,18.73,3.6,1.69,1.83,1.58,6.86.48,8.47-2.3,3.37-1.4,1.63-6,1.5-5.65-.15-18.53-2.88-17.3-8.88C2088,218.57,2089.51,215.69,2091.78,215.69Zm0-.67c-2.58,0-5.56,4.44-5.48,6.77,0.14,3.92,16.25,9.56,20.53,8.7,4-.81,9.38-5.67,4.5-11.45C2108.85,216.09,2095.42,215,2091.78,215Z" transform="translate(-2042.31 -178.76)"/><path class="cls-27" d="M2067,232.19c-3.74,0-1.4-2.49-1.19-3.67C2066.22,226.28,2073.78,232.19,2067,232.19Z" transform="translate(-2042.31 -178.76)"/><path class="cls-19" d="M2068,228.5c7.37,0-7.13,6.23-2.69,1.38C2066.57,228.53,2064.5,228.5,2068,228.5Zm0-.67c-3.36,0-2.69.74-3.52,3.32C2062.82,236.41,2077,227.84,2068,227.84Z" transform="translate(-2042.31 -178.76)"/><path class="cls-27" d="M2065.77,244.74c-4.11,0-5.28-6.23-2-5.73C2066,239.35,2069.85,244.74,2065.77,244.74Z" transform="translate(-2042.31 -178.76)"/><path class="cls-19" d="M2063.35,239.23c11.31,0.92-5.91,10.59,0,0h0Zm-0.05-.67c-3.51,0-.66,9.51,3.2,5.94C2069.17,242,2066.72,238.55,2063.29,238.55Z" transform="translate(-2042.31 -178.76)"/><path class="cls-27" d="M2067.62,261c-4.46,0-6-8.88-2.22-8.27C2068.9,253.28,2070.16,261,2067.62,261Z" transform="translate(-2042.31 -178.76)"/><path class="cls-19" d="M2064.25,252.58c3.55,0.87,3.88,2.85,4,6.08C2068.66,265.57,2060,252.58,2064.25,252.58Zm0-.67c-5.35,0,1.77,13.57,4.46,8.69C2070.59,257.17,2068.44,251.91,2064.25,251.91Z" transform="translate(-2042.31 -178.76)"/><path class="cls-27" d="M2071.54,272.89c-3.6,0-6.54-10-1.69-8.73C2071.58,264.63,2075.61,272.89,2071.54,272.89Z" transform="translate(-2042.31 -178.76)"/><path class="cls-19" d="M2070,264.48c0.5,0,5.85,8.5,1.1,8C2069,272.23,2064.59,264.48,2070,264.48Zm0-.67c-7.14,0-1.29,9.4,2.26,9.12S2072,263.82,2070,263.82Z" transform="translate(-2042.31 -178.76)"/><path class="cls-27" d="M2074.6,289.41c-1.14-.2-7.21-6.1-5.06-7.87,4.45-3.67,5.52,5.45,5.06,7.87C2074.4,289.38,2074.68,289,2074.6,289.41Z" transform="translate(-2042.31 -178.76)"/><path class="cls-19" d="M2069.92,281.37c5.34,0,4.93,4.16,4.42,7.6C2075,289.29,2066.89,281.37,2069.92,281.37Zm0-.67c-3.64,0,2.42,9.47,4.75,9.05C2078.91,289,2073.69,280.7,2069.92,280.7Z" transform="translate(-2042.31 -178.76)"/><path class="cls-27" d="M2083,299.73c-4.17,0-5.39-8.59-1.19-9.69C2087.58,288.52,2091.58,299.73,2083,299.73Z" transform="translate(-2042.31 -178.76)"/><path class="cls-19" d="M2081.58,290.32c2.65,0.57,7,2.21,6.25,5.8C2086.62,302.29,2074.94,296.68,2081.58,290.32Zm-0.09-.68c-5,0-2.84,13.34,4.43,9.27C2091.41,295.83,2086.66,289.64,2081.5,289.64Z" transform="translate(-2042.31 -178.76)"/><path class="cls-27" d="M2080.76,314.57c-3.17,0-4-4.41-2.81-6.62,1.95-3.74,2.08-1.44,5.83-.83C2083.53,308.08,2082.5,314.57,2080.76,314.57Z" transform="translate(-2042.31 -178.76)"/><path class="cls-19" d="M2079.32,305.78c6.09,0,3.59,8.51.69,8.17C2076.83,313.58,2077.84,305.78,2079.32,305.78Zm0-.67c-2.88,0-3.46,11.11,1.8,9.69C2085.91,313.51,2085.29,305.11,2079.32,305.11Z" transform="translate(-2042.31 -178.76)"/><path class="cls-27" d="M2071.88,314.3c-1.93,0-4.1-10.44-4.3-11.75C2074.19,302.55,2075.11,314.3,2071.88,314.3Z" transform="translate(-2042.31 -178.76)"/><path class="cls-19" d="M2068,303c4.28,0.93,8.24,7.29,3.91,11A32.54,32.54,0,0,1,2068,303Zm-0.37-.8c0.4,0,.89,12.36,4.64,12.32C2075.55,314.5,2074.69,302.21,2067.61,302.21Z" transform="translate(-2042.31 -178.76)"/><path class="cls-27" d="M2074.18,322.55c-4.06,0-2.63-5.49-.68-5C2076.38,318.18,2078.6,322.55,2074.18,322.55Z" transform="translate(-2042.31 -178.76)"/><path class="cls-19" d="M2073.46,317.84c9.18,2.5-7.35,7.32,0,0h0Zm0-.67c-3.05,0-3.3,6.81,1.11,5.68C2078.47,321.85,2077.22,317.17,2073.45,317.17Z" transform="translate(-2042.31 -178.76)"/><path class="cls-27" d="M2072,333.54c-2.94,0-2.18-8.11-.86-8.23C2073.67,325.95,2075.41,333.54,2072,333.54Z" transform="translate(-2042.31 -178.76)"/><path class="cls-19" d="M2071,325.75c6,1.76-1.61,14.28,0,0h0Zm0.31-.78c-2.38,0-2.31,9.77.88,8.9S2075.05,325,2071.26,325Z" transform="translate(-2042.31 -178.76)"/><path class="cls-27" d="M2080.37,327.68c-3.34,0-4.07-8.44-1.38-7.25C2080.66,321.18,2081.87,327.68,2080.37,327.68Z" transform="translate(-2042.31 -178.76)"/><path class="cls-19" d="M2079.12,320.75c1,0.11,2.11,5.63,1.29,6.59C2077.21,327.34,2076.78,322.22,2079.12,320.75Zm-0.09-.67c-5.78,0-.27,8.65,1.33,7.93C2082.31,327.13,2081.45,320.08,2079,320.08Z" transform="translate(-2042.31 -178.76)"/><path class="cls-27" d="M2090.63,283.32c-10.69,0-9.43-17.69,1.46-13.82C2097.73,271.5,2098.61,283.32,2090.63,283.32Z" transform="translate(-2042.31 -178.76)"/><path class="cls-19" d="M2091.32,269.75c3.39,0.47,7,8.5,4.19,12C2090.82,287.41,2073.49,273.72,2091.32,269.75Zm0-.68c-11.6,0-10.79,13.93-.68,14.58C2099.21,284.21,2098.44,269.07,2091.31,269.07Z" transform="translate(-2042.31 -178.76)"/><path class="cls-27" d="M2098.49,266.74c-3.69,0-14.32-.06-11.34-5.81C2092.68,250.24,2103.17,266.74,2098.49,266.74Z" transform="translate(-2042.31 -178.76)"/><path class="cls-19" d="M2095.84,258.77c1.28,0,4.43,5.64,4.1,7.23-0.06.24-15.18,1.84-12.64-4.49C2088.27,259.1,2093.36,258.77,2095.84,258.77Zm0-.67c-3,0-12.6,1.37-8.86,6.8,0.94,1.37,12,3.12,13.23,1.75C2101.59,265.09,2098,258.1,2095.84,258.1Z" transform="translate(-2042.31 -178.76)"/><path class="cls-27" d="M2081,266.86c-4,0-3.43-3.38-1.86-4.85C2081,260.3,2085.24,266.86,2081,266.86Z" transform="translate(-2042.31 -178.76)"/><path class="cls-19" d="M2078.78,262.27c9.55,3.18-3.77,6,0,0h0Zm-0.09-.68c-5.48,0,1.82,5.29,2.55,5.58C2082.37,267.62,2085.08,261.6,2078.69,261.6Z" transform="translate(-2042.31 -178.76)"/><path class="cls-27" d="M2115.12,278.48c-7.26,0-18.92-7.81-10.1-14.87,1.26-1,8.38-.79,9.41-0.29C2117.76,264.94,2120.64,278.48,2115.12,278.48Z" transform="translate(-2042.31 -178.76)"/><path class="cls-19" d="M2113.19,263.57c6,0,6.41,11.89,2.54,14.35-0.65.42-12.3-2.52-13.23-4.43C2098.31,264.88,2108.55,263.57,2113.19,263.57Zm0-.67c-3.06,0-7.34-.63-9.4,1.64-1.61,1.77-1.52,8.95-.6,10.15,1.44,1.89,11.42,5.4,13.75,3.32C2121.05,274.32,2119.77,262.9,2113.19,262.9Z" transform="translate(-2042.31 -178.76)"/><path class="cls-27" d="M2095.81,294c-3.5,0-5.75-3.3-5.77-6.43C2096.68,286.38,2097.18,294,2095.81,294Z" transform="translate(-2042.31 -178.76)"/><path class="cls-19" d="M2090.37,287.91c4.6,0.67,6.9.79,5.64,5.74C2093,294.51,2090.4,290.14,2090.37,287.91Zm-0.14-.68c-2.06,0,2.36,9.38,6,7.06C2103.12,289.86,2091.4,287.23,2090.23,287.23Z" transform="translate(-2042.31 -178.76)"/><path class="cls-27" d="M2107.65,299.08c-5.79,0-13.07-15.87-5.7-17.65C2115.35,278.2,2117.2,299.08,2107.65,299.08Z" transform="translate(-2042.31 -178.76)"/><path class="cls-19" d="M2101.51,281.74c1.52,0,9.3,1.8,10.07,2.53,1.54,1.44,2.75,11,0,13.49C2103.49,304.9,2094.73,281.74,2101.51,281.74Zm0-.67c-7.22,0-.21,20.83,8.27,17.79,3.52-1.26,5.94-10.53,3.79-14C2112.64,283.42,2103.4,281.07,2101.51,281.07Z" transform="translate(-2042.31 -178.76)"/><path class="cls-27" d="M2123.13,310.36c-7.58,0-11.66-10.8-6.47-16C2124.32,286.74,2135.05,310.36,2123.13,310.36Z" transform="translate(-2042.31 -178.76)"/><path class="cls-19" d="M2118.67,292.38c5.85,0,11.72,9.74,8.32,14.19s-5.26,3.42-9.12.23C2112.95,302.73,2115,297,2118.67,292.38Zm0-.67c-5.95,3.92-6.9,15.25,1.48,17.49C2133.95,312.89,2129.43,291.71,2118.67,291.71Z" transform="translate(-2042.31 -178.76)"/><path class="cls-27" d="M2131.71,294.93c-2.91,0-15.63-7-16.36-10.37-0.39-1.81,6.84-14.38,8.13-15.18C2134.59,262.54,2144.27,294.93,2131.71,294.93Z" transform="translate(-2042.31 -178.76)"/><path class="cls-19" d="M2125.87,268c10.11,0,17.83,27.33,3.87,26.2-1.7-.14-13.39-7.32-14.06-9.67S2123.76,268,2125.87,268Zm0-.67c-2.47,0-11.23,14.27-10.94,17,0.34,3.18,13.06,10.88,15.66,10.77C2144.64,294.43,2136.35,267.29,2125.87,267.29Z" transform="translate(-2042.31 -178.76)"/><path class="cls-27" d="M2146.07,292.34c-8.62,0-6.12-15.54-.07-18C2154.89,270.75,2164.34,292.34,2146.07,292.34Z" transform="translate(-2042.31 -178.76)"/><path class="cls-19" d="M2147.54,273.47c2.33,1.4,7,4.59,8.13,7.19,2,4.47,1.82,4.29-2.83,7.92-1.92,1.5-5.14,3.78-7.53,3.35C2137.54,290.52,2141.46,273.47,2147.54,273.47Zm0-.67c-7,0-12.56,20.88-.07,19.48,3.88-.44,11-5.73,10.82-9.79-0.07-2-8.37-9.7-10.76-9.7h0Z" transform="translate(-2042.31 -178.76)"/><path class="cls-27" d="M2140.36,273.61c-3.77,0-7.28-15.27-6.41-18.14,2.24-7.43,2-2.1,5.44-2.09,6.84,0,13-2.77,14.1,6.15C2154.5,267.55,2147.73,271.14,2140.36,273.61Z" transform="translate(-2042.31 -178.76)"/><path class="cls-19" d="M2137.26,251.12c0.85,0,2.14,2.66,3.3,3.14,2.81,1.16,7.61-2.64,10.61-.57,7,4.83.13,13.49-4.13,16.16C2131.44,279.62,2133,251.12,2137.26,251.12Zm0-.67c-3.68,0-7.22,32.7,11.62,19,4.9-3.56,8.73-11.95,2-16.73-2.59-1.83-7.85,1.84-10.28.84C2139.47,253.13,2138.41,250.45,2137.26,250.45Z" transform="translate(-2042.31 -178.76)"/><path class="cls-27" d="M2166.15,281.21c-5.62,0-14.19-4.58-11.34-9.66,3.32-5.91,10.59-5.72,13.53-1.69C2170.19,272.41,2171.47,281.21,2166.15,281.21Z" transform="translate(-2042.31 -178.76)"/><path class="cls-19" d="M2165.28,266.53c3.11,0,9.68,21.05-6.4,11.85C2150.43,273.54,2155.73,266.53,2165.28,266.53Zm0-.67c-13,0-16.48,15.33-1.38,15.12C2173,280.84,2171,265.86,2165.28,265.86Z" transform="translate(-2042.31 -178.76)"/><path class="cls-27" d="M2177.24,277.84c-4.64,0-10.83-11.71-4.45-12.29C2180.23,264.87,2180.5,277.84,2177.24,277.84Z" transform="translate(-2042.31 -178.76)"/><path class="cls-19" d="M2171.39,265.47c2.06,0.48,6.36,1.58,7.51,3.72-0.21-.4,0,7.26-1.21,7.81C2173.58,278.9,2168.29,265.59,2171.39,265.47Zm0-.67c-4.75,0,1.32,14.73,6.12,13.3C2184.63,276,2177.31,264.8,2171.41,264.8Z" transform="translate(-2042.31 -178.76)"/><path class="cls-27" d="M2160.16,264.75c-4,0-5.63-11.18-5.6-14,0.07-6.62-2.72-2.91,2.12-4.79C2171.07,240.36,2181,264.75,2160.16,264.75Z" transform="translate(-2042.31 -178.76)"/><path class="cls-19" d="M2155.21,246.16c10.15,0,24.21,6.69,12.61,15.3-5.55,4.12-8.32,3.6-11-1.06C2155.82,258.62,2154.49,246.16,2155.21,246.16Zm0-.67c-1,0-3.93,24.05,10.93,17.86,5.24-2.18,9.73-6.57,5.88-12.45C2169.31,246.76,2160.11,245.49,2155.21,245.49Z" transform="translate(-2042.31 -178.76)"/><path class="cls-27" d="M2129.61,255c-7.1,0-13.86-19.44-5.25-22.12C2139.32,228.26,2136.49,255,2129.61,255Z" transform="translate(-2042.31 -178.76)"/><path class="cls-19" d="M2126.24,232.57c6.61,0,9.48,7.24,8.62,11.88-0.36,1.94-3.33,9.67-5.25,10.26C2123.85,256.46,2114.33,232.57,2126.24,232.57Zm0-.67c-11.83,0-4.38,22.85,2.12,23.19C2136.9,255.52,2140.39,231.9,2126.24,231.9Z" transform="translate(-2042.31 -178.76)"/><path class="cls-27" d="M2145.55,249.53c-6.27,0-9.1-10.89-2.6-12.49,0.9-.22,8.31,2.56,8.68,4.17C2152.32,244.2,2148,248,2145.55,249.53Z" transform="translate(-2042.31 -178.76)"/><path class="cls-19" d="M2142.54,237.33c10.4,0,9.82,12.26,2.28,11.55C2139.61,248.39,2137.42,237.33,2142.54,237.33Zm0-.67c-6.59,0-3.55,13.63,3,13.2C2155.11,249.24,2152,236.66,2142.54,236.66Z" transform="translate(-2042.31 -178.76)"/><path class="cls-27" d="M2137.77,233.11c-3.15,0-12.75-7.67-13-11.19-0.31-5.54,5-5.71,7.48-6.54,4.37-1.47,9.3-.41,11.54,4.06C2145.57,222.89,2143.72,233.11,2137.77,233.11Z" transform="translate(-2042.31 -178.76)"/><path class="cls-19" d="M2139.19,214.75c7.53,0,5.88,10.88,2.32,14.06-5.26,4.71-5.33,4.53-11.57-1.3C2120.11,218.34,2131.12,214.75,2139.19,214.75Zm0-.67c0.45,0-10,.91-8.85.39-9.51,4.27-4.23,15.14,3.89,17.19,5.06,1.28,4.68,2.18,8.8-3.33C2145.26,225.36,2147.65,214.08,2139.19,214.08Z" transform="translate(-2042.31 -178.76)"/><path class="cls-27" d="M2149,235.07c-1.24,0-5.39-2.25-6.76-3.24C2149.28,217.58,2155.38,235.07,2149,235.07Z" transform="translate(-2042.31 -178.76)"/><path class="cls-19" d="M2148.17,226.16c5.33,0,5.16,11.28-5.43,5.52C2143.22,230.89,2147,226.16,2148.17,226.16Zm0-.67c-1.51,0-5.72,5.13-6.24,6.31s7.36,4.58,9.71,1.83S2152.22,225.49,2148.17,225.49Z" transform="translate(-2042.31 -178.76)"/><path class="cls-27" d="M2165.44,244.59c-11.19,0-15.69-10.69-5.17-17.31C2174.67,218.2,2173.43,244.59,2165.44,244.59Z" transform="translate(-2042.31 -178.76)"/><path class="cls-19" d="M2162.31,226c14.68,0,9.62,20-1.83,16.87-5.66-1.55-5.94-2.31-5.46-6.73C2155.17,234.79,2160,226,2162.31,226Zm0-.67c-2.6,0-7.91,9-8.13,10.9-0.56,4.69.94,6.63,7.27,7.65C2172.19,245.58,2178,225.3,2162.31,225.3Z" transform="translate(-2042.31 -178.76)"/><path class="cls-27" d="M2150.81,217.94c-4.3,0-10.46-14.67-10.12-17.85,0.43-4.11,4.54-9.11,9-8.37C2159.66,193.39,2163.56,217.94,2150.81,217.94Z" transform="translate(-2042.31 -178.76)"/><path class="cls-19" d="M2149.45,192c9.14,0,13.84,27.92,1.78,25.44C2142.23,215.61,2134.88,192,2149.45,192Zm0-.67c-16.19,0-7,25.77,2.54,26.54C2164.06,218.86,2158.92,191.35,2149.45,191.35Z" transform="translate(-2042.31 -178.76)"/><path class="cls-27" d="M2163.07,219c-2.83,0-3-9.15.42-10C2169.1,207.73,2172.16,219,2163.07,219Z" transform="translate(-2042.31 -178.76)"/><path class="cls-19" d="M2164.81,209.35c8.51,2.82,1.73,13.4-3.08,8.58C2159.71,215.92,2161.11,209.35,2164.81,209.35Zm0-.67c-3.79,0-6,4.14-3.77,8.2C2166.81,227.28,2174.27,208.68,2164.81,208.68Z" transform="translate(-2042.31 -178.76)"/><path class="cls-27" d="M2179.65,238.33c-4.67,0-9.86-3.94-4-6.3C2181.13,229.84,2181.32,238.33,2179.65,238.33Z" transform="translate(-2042.31 -178.76)"/><path class="cls-19" d="M2178.57,231.42c0.2,0.28,3,5.24,1.93,6.41C2176.81,242,2170.08,231.4,2178.57,231.42Zm0,0c-4.65,0-9.37,4.46-2.6,6.88,7.73,2.77,5.07-6.88,2.6-6.88h0Z" transform="translate(-2042.31 -178.76)"/><path class="cls-27" d="M2183,224.3c-3.33,0-1.71-8.23,3.67-6.09C2193.1,220.77,2187.3,224.3,2183,224.3Z" transform="translate(-2042.31 -178.76)"/><path class="cls-19" d="M2185.44,218.44c1.17,0,4.74,2.82,3.86,4.8C2186.53,228.5,2175.62,218.44,2185.44,218.44Zm0-.67c-6,0-6.1,7,.26,6.61C2191.29,224,2190.52,217.78,2185.44,217.78Z" transform="translate(-2042.31 -178.76)"/><path class="cls-27" d="M2191,242.57c-6.95,0-11.23-10.76-3.38-11.79C2196.47,229.62,2196.16,242.57,2191,242.57Z" transform="translate(-2042.31 -178.76)"/><path class="cls-19" d="M2185.08,230.58c1.36,0.25,7.91.85,9,2.41,0.93,1.29-.36,8.63-2.89,9.21C2185.9,243.42,2181,230.58,2185.08,230.58Zm0-.67c-5.46,0,.15,14.16,6.11,13,2.53-.51,5.07-7.83,4-9.81C2194.06,230.84,2187.13,229.91,2185.08,229.91Z" transform="translate(-2042.31 -178.76)"/><path class="cls-27" d="M2207.1,227.93c-2,0-10.25.34-11.66-1.18s-0.15-9.08,1.06-10C2206,209.5,2209.73,227.93,2207.1,227.93Z" transform="translate(-2042.31 -178.76)"/><path class="cls-19" d="M2196.94,216.75c6.41-.1,15.82,6.64,8.83,10.73-3.39,2-10.08-1.35-10.68-3.62C2194.71,222.42,2197.32,216.75,2196.94,216.75Zm0-.67c-2.92,0-5.59,14.28,6.77,11.9,4.46-.86,5,0.83,4.41-5C2207.53,216.8,2202.41,216.08,2196.94,216.08Z" transform="translate(-2042.31 -178.76)"/><path class="cls-27" d="M2179.55,259.92c-3.92,0-8.08-11-6.68-13.74,1-2,1.28-1.07,3.71-2.08C2188.32,239.26,2194.17,259.92,2179.55,259.92Z" transform="translate(-2042.31 -178.76)"/><path class="cls-19" d="M2181.5,243.73c3.84,0,7.77,7.64,6.58,10.67-2.91,7.39-10.59,4.82-13.15-.33C2170.66,245.48,2173,243.73,2181.5,243.73Zm0-.67c-8.66,0-14.59,7.21-5,14.81C2187.67,266.78,2194.36,243.06,2181.5,243.06Z" transform="translate(-2042.31 -178.76)"/><path class="cls-27" d="M2200.66,262.5c-4.74,0-8.52-.41-9.1-4.28-0.24-1.6,1.5-4.84,2.45-5.32C2202.63,248.56,2201.33,262.5,2200.66,262.5Z" transform="translate(-2042.31 -178.76)"/><path class="cls-19" d="M2194.08,253.24c5.69,0,9.16,2.27,6.47,8.91C2193.49,261.15,2188.81,259.48,2194.08,253.24Zm0-.67c-3.43,0-5.91,12.76,4.32,9.78C2204.9,260.46,2201.91,252.57,2194.08,252.57Z" transform="translate(-2042.31 -178.76)"/><path class="cls-27" d="M2207.41,251c-6,0-12.55-8.4-7-13.49C2209.75,229,2223.6,251,2207.41,251Z" transform="translate(-2042.31 -178.76)"/><path class="cls-19" d="M2203.29,236.92c5.56,0,10.82,2.32,10.94,7.24,0.1,4.3-2.47,6.92-7.13,6.54C2199.88,250.11,2195.13,236.92,2203.29,236.92Zm0-.67c-8.89,0-4.61,14.54,3.44,15.1,4.22,0.29,6.51-1.25,7.83-4.83C2217.08,239.68,2209.45,236.25,2203.29,236.25Z" transform="translate(-2042.31 -178.76)"/><path class="cls-27" d="M2217.45,280c-5.06,0-13.14-5.4-14.09-9.39-0.61-2.57,1.41-8.82,3.79-9.86,3.89-1.69,9.83,2.63,10.94,5.39C2218.43,267,2218,280,2217.45,280Z" transform="translate(-2042.31 -178.76)"/><path class="cls-19" d="M2207,261.08c4.89,0,8.85,1.24,10.8,4.84,0.12,0.22.83,13.07-.11,13.71-1.48,1-11.24-4.14-12.08-5.22S2202.28,261.08,2207,261.08Zm0-.67c-2.35,0-4.91,10-4,12.14s12.84,9.34,14.91,7.57c1.34-1.15,1.08-13.72.57-14.71C2216.6,261.85,2211.29,260.41,2207,260.41Z" transform="translate(-2042.31 -178.76)"/><path class="cls-27" d="M2170.46,294.64c-3.12,0-9.88-7.24-6.38-10.27C2168.93,280.19,2181.29,294.64,2170.46,294.64Z" transform="translate(-2042.31 -178.76)"/><path class="cls-19" d="M2164.7,284.25c1.25,0,8.33,2.28,9,3.41,1.83,3.11-1.4,6.4-4.36,6.06C2167,293.46,2160.59,284.25,2164.7,284.25Zm0-.67c-5.43,0,1.83,11.89,5.77,11.39C2180.58,293.7,2171.13,283.58,2164.7,283.58Z" transform="translate(-2042.31 -178.76)"/><path class="cls-27" d="M2190.48,294.52c-2,0-18.24-3.51-10.1-8.19C2184.78,283.81,2191.78,294.52,2190.48,294.52Z" transform="translate(-2042.31 -178.76)"/><path class="cls-19" d="M2180.84,286.52c2.91,0,10.6,4.28,9.5,7.65-2-.32-9.27-0.78-10.41-2.74C2179.42,290.56,2178.79,286.52,2180.84,286.52Zm0-.67c-6.33,0,3.12,13.82,9.55,9C2194.85,291.51,2183.28,285.85,2180.84,285.85Z" transform="translate(-2042.31 -178.76)"/><path class="cls-27" d="M2181.68,308.29c-5.24,0-14.87-4.25-7.11-11C2179.3,293.15,2200.25,308.29,2181.68,308.29Z" transform="translate(-2042.31 -178.76)"/><path class="cls-19" d="M2175.19,297.39c2.9,0,13.19,3.3,13.66,5.81,1,5.37-7.34,5.46-10.7,4.64-5.62-1.37-6.23-1.48-3.89-8.17C2174.27,299.65,2174.43,297.39,2175.19,297.39Zm0-.67c-1.23,0-.6.4-1,0.94-4.75,6.06-1.08,9.59,3.95,10.85,3.44,0.86,10.73.67,11.07-3.77C2189.57,299.87,2179.54,296.72,2175.19,296.72Z" transform="translate(-2042.31 -178.76)"/><path class="cls-27" d="M2155.31,308.87c-3.66,0-4.75-13.83-.48-15.62,1.88-.79,13.24,4.16,13.61,7.38C2169.13,306.73,2159.49,308.87,2155.31,308.87Z" transform="translate(-2042.31 -178.76)"/><path class="cls-19" d="M2155.38,293.53c2.7,0,13.13,4.65,12.9,8.13-0.25,3.84-9.76,8.58-13,6.88C2153.24,307.45,2149.52,293.53,2155.38,293.53Zm0-.67c-6.49,0-3.55,14-.82,15.85,3.5,2.35,11.69-1.33,13.1-5.18C2169.56,298.33,2160.92,292.86,2155.38,292.86Z" transform="translate(-2042.31 -178.76)"/><path class="cls-27" d="M2192.44,304.58c-1.41,0-2.34-10.35,2.12-7.76C2197.63,298.61,2196.36,304.58,2192.44,304.58Z" transform="translate(-2042.31 -178.76)"/><path class="cls-19" d="M2193.85,296.64c2.42,0,1.8,6.13.09,7.11C2190.59,305.67,2190.56,296.64,2193.85,296.64Zm0-.67c-4,0-4.34,8.64-.86,8.84C2198.43,305.11,2196.44,296,2193.85,296Z" transform="translate(-2042.31 -178.76)"/><path class="cls-27" d="M2147.63,330.73c-7.36,0-2.12-12.83,1.2-14.15C2161.53,311.56,2155.49,330.73,2147.63,330.73Z" transform="translate(-2042.31 -178.76)"/><path class="cls-19" d="M2148.49,316.85c7.57,0,10,2.6,4.8,9.17C2142.29,340,2143.2,316.85,2148.49,316.85Zm0-.67c-4.11,0-9.11,16.69,1.28,13.69,2.68-.77,8.09-7.86,7.3-10.63C2156.39,316.81,2151,316.18,2148.49,316.18Z" transform="translate(-2042.31 -178.76)"/><path class="cls-27" d="M2134.83,328.54c-3.93,0-5.09-6-3-8.83C2136.88,313,2139.07,325.5,2134.83,328.54Z" transform="translate(-2042.31 -178.76)"/><path class="cls-19" d="M2133.82,318.07c6.23,0,3.47,12.26-1.32,9.8C2131.45,327.33,2131,318.07,2133.82,318.07Zm0-.67c-3.1,0-3.4,8.59-2.65,9.71C2136,334.28,2142.5,317.4,2133.82,317.4Z" transform="translate(-2042.31 -178.76)"/><path class="cls-27" d="M2140.23,315.61c-2.71,0-6.9-2.54-2.76-5.24C2141.76,307.57,2145.33,315.61,2140.23,315.61Z" transform="translate(-2042.31 -178.76)"/><path class="cls-19" d="M2140.63,310.58c4.07,0,.45,6.46-3.18,4.61S2138.3,310.58,2140.63,310.58Zm0-.67c-2.89,0-7.35,2.18-3.85,5.9C2139.92,319.14,2147.38,309.91,2140.63,309.91Z" transform="translate(-2042.31 -178.76)"/><path class="cls-27" d="M2148.74,308.55c-3.35,0-2.7-1.59-3.26-3.09C2144.63,303.2,2154.59,308.55,2148.74,308.55Z" transform="translate(-2042.31 -178.76)"/><path class="cls-19" d="M2146.23,305.16c8.34,3.08-1.37,2.8-1.2,1.94C2145.08,306.78,2145.89,305.16,2146.23,305.16Zm0-.67c-3.6,0-.71,4.18,2.1,4.33C2152.12,309,2149.28,304.49,2146.23,304.49Z" transform="translate(-2042.31 -178.76)"/><path class="cls-27" d="M2143.63,339.22c-2.24,0-4.59-4.75-2.46-6.29C2145.93,329.52,2148.53,339.22,2143.63,339.22Z" transform="translate(-2042.31 -178.76)"/><path class="cls-19" d="M2143.75,333.13c4,0,2.39,6.54-1.06,5.52C2140,337.84,2140.6,333.13,2143.75,333.13Zm0-.67a3.5,3.5,0,0,0-1.22,6.82C2146.86,340.55,2148.55,332.46,2143.75,332.46Z" transform="translate(-2042.31 -178.76)"/><path class="cls-27" d="M2130.94,347c-3.66,0-4.39-12.07-2.79-13.11C2136.15,328.66,2138.56,347,2130.94,347Z" transform="translate(-2042.31 -178.76)"/><path class="cls-19" d="M2127.93,334.19c5.43,0,9.64,2.6,6.54,8.63C2127.87,355.67,2128.25,334.19,2127.93,334.19Zm0-.67c0.21,0-3.16,16.33,4.63,12.93C2141,342.78,2134.82,333.52,2127.93,333.52Z" transform="translate(-2042.31 -178.76)"/><path class="cls-27" d="M2135,355.07c-3.87,0-2-7.4,1.54-6.19C2139.87,350,2138.22,355.07,2135,355.07Z" transform="translate(-2042.31 -178.76)"/><path class="cls-19" d="M2136.34,349.17c3.73,0,.36,6.28-1.55,5.42C2131.65,353.19,2133.48,349.17,2136.34,349.17Zm0-.67c-8.22,0-1,11.58,1.49,4.24C2138.23,351.59,2140.61,348.5,2136.34,348.5Z" transform="translate(-2042.31 -178.76)"/><path class="cls-27" d="M2125.15,351.36c-4.08,0-2.75-5.26-.65-4.92C2127,346.83,2127.91,351.36,2125.15,351.36Z" transform="translate(-2042.31 -178.76)"/><path class="cls-19" d="M2124,346.68c3.37,0,1.75,1.83,2,3.45C2126.43,354,2119.59,346.68,2124,346.68Zm0-.67c-3.46,0-1.91,5.18,1.18,5.68C2127.19,352,2129,346,2124,346Z" transform="translate(-2042.31 -178.76)"/><path class="cls-27" d="M2127.57,359c-2.65,0-4.59-.81-3.57-4C2125.21,351.18,2133.3,359,2127.57,359Z" transform="translate(-2042.31 -178.76)"/><path class="cls-19" d="M2126,355c5.09,0,1.11,5.72-.94,3.33C2124,357,2123.43,355,2126,355Zm0-.67c-3.86,0-3.09,5.5.48,4.83S2130.58,354.29,2126,354.29Z" transform="translate(-2042.31 -178.76)"/><path class="cls-27" d="M2119.8,367c-9.5,0,2.28-10.25,3.14-4.54C2123.1,363.5,2120.76,367,2119.8,367Z" transform="translate(-2042.31 -178.76)"/><path class="cls-19" d="M2118.17,361.55c1.11,0.34,3.69.16,4.46,1C2123,366.56,2116,369.17,2118.17,361.55Zm-0.22-.71c-1.81,0-2.37,8,2.52,6.15C2125.55,365,2122.38,360.84,2118,360.84Z" transform="translate(-2042.31 -178.76)"/><path class="cls-27" d="M2197.63,286.52c-1.8,0-6-4.09-5.62-5.89,0.68-3,8.32-3.61,9.65-1.07C2202,280.26,2198.48,286.52,2197.63,286.52Z" transform="translate(-2042.31 -178.76)"/><path class="cls-19" d="M2196.2,278.26c4.18,0,7.47,3.46,2.64,6.52-1.7,1.07-7.67-.64-6.77-3.8C2192.91,280.12,2194.83,278.26,2196.2,278.26Zm0-.67c-6.17,0-4.85,4.66-1.93,7.06C2200.45,289.7,2205.72,277.59,2196.2,277.59Z" transform="translate(-2042.31 -178.76)"/><path class="cls-27" d="M2208.12,302.3c-3.26,0-7.15-12.52-2.11-14C2212.81,286.22,2218.5,302.3,2208.12,302.3Z" transform="translate(-2042.31 -178.76)"/><path class="cls-19" d="M2206.28,288.57c8.42,0,8.72,15.13,1.71,13.37C2205.07,301.21,2201.36,288.57,2206.28,288.57Zm0-.67c-6.08,0-1.88,14,1.56,14.67C2216.23,304.26,2216.09,287.9,2206.28,287.9Z" transform="translate(-2042.31 -178.76)"/><path class="cls-27" d="M2232.26,303.51c-6.5,0-16.26-10.76-7.63-14.86C2235,283.71,2237.58,303.51,2232.26,303.51Z" transform="translate(-2042.31 -178.76)"/><path class="cls-19" d="M2225.53,288.18c8.7,0,13.27,14.75,4.86,14.54C2222.58,302.52,2219.07,288.18,2225.53,288.18Zm0-.67c-7.72,0-3.52,17.36,5.67,16.08C2240,302.36,2234.22,287.51,2225.53,287.51Z" transform="translate(-2042.31 -178.76)"/><path class="cls-27" d="M2217.21,305.94c-4.12,0-1.9-4.92-.13-5.45C2219.14,299.88,2222.14,305.94,2217.21,305.94Z" transform="translate(-2042.31 -178.76)"/><path class="cls-19" d="M2215.71,300.49c2.55,0,5.72,4.18,2.87,4.88C2214.63,306.33,2215.62,300.49,2215.71,300.49Zm0-.67c-1.33,0-2,7.13,3.11,6.1C2222.73,305.12,2218.89,299.82,2215.71,299.82Z" transform="translate(-2042.31 -178.76)"/><path class="cls-27" d="M2216,323.09c-2.27,0-10.8-13-9.84-15.24C2210.34,298.23,2223.91,323.09,2216,323.09Z" transform="translate(-2042.31 -178.76)"/><path class="cls-19" d="M2208,305.95c6.63,0,12.75,16.81,8,16.81C2213.14,322.76,2203.3,305.95,2208,305.95Zm0-.67c-7.18,0,4.6,16.1,5.75,16.49C2222.9,324.86,2216.55,305.28,2208,305.28Z" transform="translate(-2042.31 -178.76)"/><path class="cls-27" d="M2230.64,329.42c-9.35,0-8.9-14.15-1.2-13.11C2234.8,317,2234.06,329.42,2230.64,329.42Z" transform="translate(-2042.31 -178.76)"/><path class="cls-19" d="M2227.72,316.45c5.79,0,7.86,10.45,3.31,12.56C2223.12,332.69,2221.61,316.45,2227.72,316.45Zm0-.67c-7.37,0-5.26,18,3.45,13.87C2236.39,327.2,2234.32,315.79,2227.72,315.79Z" transform="translate(-2042.31 -178.76)"/><path class="cls-27" d="M2238.31,350.82c-8.24,0-10.52-14.15-.84-11.78C2241.79,340.1,2244.73,350.07,2238.31,350.82Z" transform="translate(-2042.31 -178.76)"/><path class="cls-19" d="M2239.07,339.32c4,0,3.35,17.34-5.54,10.17C2226.06,343.46,2233.56,339.32,2239.07,339.32Zm0-.67c-6.81,0-7-1.22-7.84,4.37-0.69,4.32,3.75,10.94,8.67,8C2242.62,349.36,2243.65,338.65,2239.07,338.65Z" transform="translate(-2042.31 -178.76)"/><path class="cls-27" d="M2247.5,368.15c-4.94-.25-10.62-6.13-5.69-10.34C2248,352.48,2248.92,365.09,2247.5,368.15Z" transform="translate(-2042.31 -178.76)"/><path class="cls-19" d="M2244.14,356.41c4.45,0,3.61,8.73,3.62,11.39C2240.29,368.93,2238,356.41,2244.14,356.41Zm0-.67c-8.16,0-3.54,15.83,3.41,12.74C2250.51,367.17,2248.42,355.74,2244.14,355.74Z" transform="translate(-2042.31 -178.76)"/><path class="cls-27" d="M2236.36,373.41c0.54,0-6.58-12.85-1.6-13.53C2238.88,359.32,2242.63,373.41,2236.36,373.41Z" transform="translate(-2042.31 -178.76)"/><path class="cls-19" d="M2234.49,360.17c5.41,0,6.14,14.22,2.15,12.88C2236.65,373.05,2231.18,360.17,2234.49,360.17Zm0-.67c-4.72,0,1.26,14,2.07,14.23C2242,375.46,2240.49,359.5,2234.49,359.5Z" transform="translate(-2042.31 -178.76)"/><path class="cls-27" d="M2243.57,384c-2.77,0-7-8.54-3.07-10.49C2245.11,371.23,2251.12,384,2243.57,384Z" transform="translate(-2042.31 -178.76)"/><path class="cls-19" d="M2240.91,373.73c5,0,8.85,10,2.46,9.88C2240.71,383.54,2237.29,373.73,2240.91,373.73Zm0-.67c-5.09,0-.48,10.53,2,11.14C2248.84,385.62,2248.57,373.05,2240.91,373.05Z" transform="translate(-2042.31 -178.76)"/><path class="cls-27" d="M2238.05,332.53c-4.05,0-5.9-5.36-2.19-5.72S2240.79,332.53,2238.05,332.53Z" transform="translate(-2042.31 -178.76)"/><path class="cls-19" d="M2235.51,327c2.34,0,4,1.2,3.63,3.5C2238,337.36,2230.55,327,2235.51,327Zm0-.67c-5.39,0-.31,10.09,3.84,6.06C2242.19,329.63,2238,326.34,2235.51,326.34Z" transform="translate(-2042.31 -178.76)"/><path class="cls-27" d="M2226.87,341.71c-3.42,0-7-5.12-4.18-7.67C2227.68,329.49,2229.3,341.71,2226.87,341.71Z" transform="translate(-2042.31 -178.76)"/><path class="cls-19" d="M2225.38,333.71c2.18,0,2.38,6.17,2.41,7.52C2222.76,342.94,2219.67,333.71,2225.38,333.71Zm0-.67c-5.83,0-3.78,7.45-.3,8.84C2231,344.22,2228.71,333,2225.38,333Z" transform="translate(-2042.31 -178.76)"/><path class="cls-27" d="M2249.91,375.37c-12.2,0,12-6.27,0,0h0Z" transform="translate(-2042.31 -178.76)"/><path class="cls-19" d="M2249.59,372.29c6.72,0-2.45,5.55-2,1.14C2247.68,372.77,2249.22,372.63,2249.59,372.29Zm0-.67c-2.94,0-3.27,2.75-.7,3.82C2252.24,376.83,2254.33,371.62,2249.59,371.62Z" transform="translate(-2042.31 -178.76)"/><path class="cls-27" d="M2248.91,390.77c-13.55,0,8.66-8.26,0,0h0Z" transform="translate(-2042.31 -178.76)"/><path class="cls-19" d="M2246.68,387h0a14.87,14.87,0,0,1,3.28,1C2254,393.21,2240,387,2246.68,387Zm0-.67c-3.92,0-.1,7.1,3.14,4.15C2252.24,388.31,2249.08,386.36,2246.68,386.36Z" transform="translate(-2042.31 -178.76)"/><path class="cls-28" d="M2068.32,459.22c-1.85,2.45-6.88,8.7-3.56,11.57,3.11,2.7,5.44-6.47,6.85-8.57q-3.65.2-3.29-3C2065.66,462.75,2067.78,460.87,2068.32,459.22Z" transform="translate(-2042.31 -178.76)"/><path class="cls-28" d="M2071.61,462.21a32.18,32.18,0,0,0-4.37,9.13c8.92,0.81,19-2,19.46-12a26,26,0,0,1-15.08,2.89C2070,464.64,2072.69,462.35,2071.61,462.21Z" transform="translate(-2042.31 -178.76)"/><path class="cls-28" d="M2064.15,417.74a5.37,5.37,0,0,1-5.42-2.93c-1.28,4.57-.79,10.15,5.46,10.12a34.24,34.24,0,0,0,0-7.19S2064.37,420,2064.15,417.74Z" transform="translate(-2042.31 -178.76)"/><path class="cls-28" d="M2072.3,419.31c0-2,.06-4.09.11-6.14-0.06,2.89-2.86,2.5-4.48,3.89l-3.78.67a34.24,34.24,0,0,1,0,7.19C2066.94,424.91,2072.3,423,2072.3,419.31Z" transform="translate(-2042.31 -178.76)"/><path class="cls-28" d="M2179.36,404.28q-1.58-3.91-4.74.54a20.32,20.32,0,0,1,4.1,7.47c4-1.45,2.31-5.44.64-8h0Z" transform="translate(-2042.31 -178.76)"/><path class="cls-28" d="M2165.7,406.61c0.05,7.31,7.09,7.85,13,5.67C2175,400,2170.3,411.7,2165.7,406.61Z" transform="translate(-2042.31 -178.76)"/><path class="cls-29" d="M2294.71,451.85c-5.92-7.18-8.43-14.48-13.27-22.12-1.17-1.84-.82-3.94-2.44-4.5-2.74-.95-6.72,3.89-7.1,5.69-0.49,2.34,7.16,20.71,7.79,21.25,1.66,1.42,17.16,2.52,15-.31C2293.57,450.47,2295.5,452.89,2294.71,451.85Z" transform="translate(-2042.31 -178.76)"/><path class="cls-22" d="M2294.71,451.85c-5.92-7.18-8.43-14.48-13.27-22.12-1.17-1.84-.82-3.94-2.44-4.5-2.74-.95-6.72,3.89-7.1,5.69-0.49,2.34,7.16,20.71,7.79,21.25,1.66,1.42,17.16,2.52,15-.31C2293.57,450.47,2295.5,452.89,2294.71,451.85Z" transform="translate(-2042.31 -178.76)"/><path class="cls-28" d="M2280,452.64c0.45,3.79-2.49,9.41.69,12.57,2.11,2.1,13.81,2.31,15.85.47,1.85-1.67.86-9.67-2.3-12-0.91-.67-12.56-0.54-14.24-1C2280.22,454.75,2288.44,455.18,2280,452.64Z" transform="translate(-2042.31 -178.76)"/><path class="cls-28" d="M2294.71,451.85c1.09,1.45,3.07,11.5,3.2,13.52,6.32-1.91-1-10.87-3.2-13.52C2295,452.21,2298.3,456.21,2294.71,451.85Z" transform="translate(-2042.31 -178.76)"/><path class="cls-30" d="M2263,405.74c-6.87-5.91-7.7-12.57-8.38-21.19-0.65-8.25-2.66-15.31-5.18-23.27-5.47-17.26-8.34-35.11-13.48-52.46-5.32-17.94-11-36-14.49-54.4-2.25-11.86-9.12-44-26-43.73,15.36,5.8,21.1,32.45,23.23,46.13a370.45,370.45,0,0,0,15.52,62.69c1.51,4.42,14.46,30.89,8.07,35.14-7.13,4.74-26.42-33.63-28.66-37.66-8.76-15.71-18.32-32.93-21.55-50.85-0.58-3.22.24-13.69-3.44-14.93-6.06-2-8.42,9.76-8.6,13.53-0.35,7.47,4.19,15.17.34,22.42-3.48,6.56-10.71,7.9-17.54,7.55-8-.41-15.19-4.88-23.26-4.48-6.36.32-11.86,3.43-17.86,5.11-32.27,9-62.32-49-41.29-73.59-3.23,3-8,5.62-6.56-1.68-16.26,13.28-2.83,49.47,3.85,64.31,4.78,10.63,4.89,17.94,2.45,29.28-0.67,3.12-4.72,28.18-8.76,28.44-0.39,0-4.85-49.51,2.63-45-10.09-26-17.89-60.57-6.1-87.1-15.27,32.28-3.23,72.58,0,106.43,0.82,8.57-.08,16.06-1.49,24.29-1.06,6.17-.43,12.31-0.88,18.79-1,14.41-3.24,29-4.84,43.17-0.15,1.37,1.42,2.54,1,5-0.94,5.13-6.32,9.05,2.28,10.09,11.38,1.38,5.54-5.54,5.93-10.18,0.2-2.4,3.6-2.3,3.66-4,0.08-2.18-1.57-4.32-2-6.42-1.75-8.26-.42-16.92.39-25.2,0.66-6.68.48-14.6,3.35-20.77,1.89-4.06,4.6-4.47,5.63-10,2.63-14-.09-35.26,11.23-46.24,9.53,11,23.94,18.67,38.59,19-5.46,17.31-10.82,34.67-16.63,51.86-2.76,8.17-5.52,14.9-10,22-4.4,6.92-3.27,14.59-6.31,22.14-4.38,10.88-12.07,20.57-17.81,30.76-1.76,3.12-1.91,6.9-3.19,9.52-1,2.1-8.8,6.7-8.55,9,0.4,3.64,4.15,3.17,7.38,3.15,2,0,8.16-.63,9.67-2.44s0.17-3.85,1.14-5.78a111.26,111.26,0,0,0,6.34-14.8c3.07-9.21,8.21-17.85,12.58-26.48,3.54-7,9.45-12.34,11-19.65,4.6-21.1,21.65-38.94,33.73-56.87,4.62-6.87,9.87-19,17.21-23.51,6.53-4,16.43-2.9,23.83-5.21,10.73-3.35,9.26-3.72,15.68,6.09a177.55,177.55,0,0,1,13.73,25.43c8.54,19.19,13.89,37.15,16.55,57.9,2.11,16.5,15.72,12.69,28.72,11.62A11.62,11.62,0,0,1,2263,405.74Z" transform="translate(-2042.31 -178.76)"/><path class="cls-30" d="M2150.85,187.3c-4.46-2.23-2,4.54-1.47,6.13,1.64,4.62,6.23,7.73,8.94,11.69,3.34,4.88,9.7,18.26-1.26,18.33,11.51,1.12,17.61-6.65,27.39-10.24-15.41,6.2-23.29-20.75-33.6-25.91h0Z" transform="translate(-2042.31 -178.76)"/><path class="cls-31" d="M2068.68,215.68c3.37-23.63,41-43.52,61.21-29.24,14.55,10.26,4.17,28.28,15.07,38.88,10.48,10.19,24.76,2.08,35.15-2.95,5.82-2.82,13.25-6.13,18.63-.79,4.84,4.8,4.28,10.34-.93,12.83-5,2.38-10.81.29-16,3.54s-6.15,8.91-10.24,12.85c-15.41,14.86-50.2,11.72-67.75,3.38-5.5-2.61-10.85-6.26-14.15-11.5-4-6.32-3.12-14.35-7-20.67-3.54-5.83-4.54-4-9.76-5C2070.87,216.63,2067.81,220.79,2068.68,215.68Z" transform="translate(-2042.31 -178.76)"/><path class="cls-31" d="M2214.82,253.2c1.68,14.21,5.81,28.06,7.9,42.22,1.19,8,2.23,22.51-6.81,9.14-9.14-13.52-13.35-32.82-15.16-48.8-0.47-4.19-2.58-16.85,2.65-19.21,7.61-3.44,10.9,12.24,11.42,16.65C2216.71,269.19,2212.79,236,2214.82,253.2Z" transform="translate(-2042.31 -178.76)"/><path class="cls-31" d="M2077.17,200.75c8-8.85,21.63-15.66,33.51-16.35,12.42-.73,27,6.4,21.87,20.71-4.69,13.16-19,17.74-31.55,16.25-8.76-1-36.67-6.41-23.82-20.6h0Z" transform="translate(-2042.31 -178.76)"/><path class="cls-22" d="M2187.82,264.8c0,2.78-1.33,11.5-5.14,6.06,6.28,13.24,8.6,27.78-7.87,32.13-26.08,6.9-29.9,40.74-43.36,61.11,8.12-11.92,16.35-23.78,24.23-35.86,4-6.07,7.27-14.11,14.49-16.76,9.63-3.54,21-1.82,30.2-7.52C2194.65,292.68,2184.86,278.24,2187.82,264.8Z" transform="translate(-2042.31 -178.76)"/><path class="cls-22" d="M2147.33,296.87c-9.84,1.12-10.72,15.26-17.88,17.41-11.54,3.47-31.41-11.27-37.2-19.36a34,34,0,0,0-6.92,15.08c3.6-19.46-12.68-34.43-13.1-53.68,3,15.77,13.26,30.14,26.1,39.44,7.09,5.14,21.06,14.67,30.55,11.14,5.82-2.16,6.39-8.31,10.65-12.06C2139.88,299,2143.27,298,2147.33,296.87Z" transform="translate(-2042.31 -178.76)"/><path class="cls-22" d="M2223.65,346c4,8.66,11,31.11,20.3,35,10.44,4.35,5.59-11.67,4.26-17-2.41-9.65-4.44-19.39-6.73-29.08-8.67-36.64-19.08-73.37-29.52-109.43,6.12,4.56,7.74,14.69,9.41,21.59,5.17,21.43,10.64,42.58,16.74,63.78,8,27.75,14.12,56.51,25.25,83.24,2.38,5.73,9.71,12.87,5.55,16.81-3.42,3.24-16.11,2.89-20.65,1.82-13.08-3.1-10.44-13.27-11.66-23.54C2234.9,374.66,2230.85,358.81,2223.65,346Z" transform="translate(-2042.31 -178.76)"/><path class="cls-32" d="M2259.12,373.46c-9.64-27.54-16.26-57.23-21.58-85.9-3.07-16.55-6.42-33.19-12-49.1-2.63-7.49-5.59-15.26-10.88-21.31-0.46-.53-11.92-10.53-12.13-9.89s0.38,1.08.14,1.73q-1.85.55-2.75-1.84c0,0.07,1,2.48.37,2.38a18.2,18.2,0,0,1-2.47-2.14c1.93,0.7-1,3.39-2.28,3.31,18.37-.34,24.09,35.63,26.73,47.92,4.18,19.43,10.38,38.38,15.81,57.53,5.3,18.69,10.35,37.82,14.85,56.73,1.86,7.83,2,40.68,17.87,35.39-3.8-11.63-7.63-23.26-11.67-34.81C2254.52,360.3,2263.73,386.62,2259.12,373.46Z" transform="translate(-2042.31 -178.76)"/><path class="cls-33" d="M2203.49,209.82c0.63,1.12,3.46,6,3.74,6.84C2206.45,214.36,2204.24,211.18,2203.49,209.82Z" transform="translate(-2042.31 -178.76)"/><path class="cls-33" d="M2209.54,213.95c1.27,3.16,3.53,8.72,3.61,11.48C2213,221.08,2210.81,217.13,2209.54,213.95Z" transform="translate(-2042.31 -178.76)"/><path class="cls-33" d="M2216.61,224.25c0.48,4.83,1.78,11.65,1.81,15.73C2218.36,234.8,2217.09,228.65,2216.61,224.25Z" transform="translate(-2042.31 -178.76)"/><path class="cls-33" d="M2223.85,237c0.9,7-1.29,12.79-1.64,19.58C2222.6,250,2224.72,243.79,2223.85,237Z" transform="translate(-2042.31 -178.76)"/><path class="cls-33" d="M2226.31,251.36c0.58,7.24,0,14.5,0,21.75C2226.39,266.82,2226.86,257.78,2226.31,251.36Z" transform="translate(-2042.31 -178.76)"/><path class="cls-33" d="M2231.25,264.25c0.58,8.88-.46,17.75-1,26.61C2230.75,282.63,2231.79,272.49,2231.25,264.25Z" transform="translate(-2042.31 -178.76)"/><path class="cls-33" d="M2233.55,279a199.13,199.13,0,0,1,.16,21.59A202.88,202.88,0,0,0,2233.55,279Z" transform="translate(-2042.31 -178.76)"/><path class="cls-33" d="M2237.17,295.54c0.51,5.2-.56,10.38-0.66,15.56C2236.59,306.78,2237.59,299.91,2237.17,295.54Z" transform="translate(-2042.31 -178.76)"/><path class="cls-33" d="M2240.13,309.43c0.48,6.31,1.61,14.2,1.64,19.75C2241.73,322.63,2240.58,315.16,2240.13,309.43Z" transform="translate(-2042.31 -178.76)"/><path class="cls-33" d="M2245.72,328c0.43,4.84.19,9.71,0.16,14.56C2245.88,338.7,2246.05,331.92,2245.72,328Z" transform="translate(-2042.31 -178.76)"/><path class="cls-33" d="M2248.68,341.89c0.54,5.45-.11,11-0.33,16.4C2248.52,353.59,2249.13,346.61,2248.68,341.89Z" transform="translate(-2042.31 -178.76)"/><path class="cls-33" d="M2251.64,354.44c0,6.14,1.25,13.58,1.31,18.91C2252.9,367.21,2251.67,359.76,2251.64,354.44Z" transform="translate(-2042.31 -178.76)"/><path class="cls-33" d="M2256.41,369.5c-0.34,3.82.87,10.08,0,13.12C2257.59,378.4,2256.1,372.83,2256.41,369.5Z" transform="translate(-2042.31 -178.76)"/><path class="cls-33" d="M2259.7,381.65c-1.05,7.51-1.23,16.09-2.48,22.89C2258.66,396.87,2258.73,388.61,2259.7,381.65Z" transform="translate(-2042.31 -178.76)"/><path class="cls-33" d="M2264.47,392.36c-1.73,5.71-2.73,12.93-3.63,18C2261.85,404.85,2263.05,397,2264.47,392.36Z" transform="translate(-2042.31 -178.76)"/><path class="cls-34" d="M2259.86,395c0.18-16.5-6-30.78-10.11-46.54s-7.36-31.75-12.54-47.36c-5.4-16.26-10.39-33.36-13.65-50.23-2.83-14.67-8.22-34-21-43.23,0.69,2.85-1.79.56-2.67-.47,0,0.07,1,2.48.37,2.38a18.2,18.2,0,0,1-2.47-2.14c1.93,0.7-1,3.39-2.28,3.31,17.61-.33,23.89,33.54,26.36,45.82,4,19.67,10.39,38.7,15.81,58,5.31,18.92,9.72,38.07,14.94,57.07,2.22,8.08,1.44,38.84,15.57,36.87-3.89-3.13-8.4-8.21-8.34-13.5C2259.94,388.11,2259.79,401.56,2259.86,395Z" transform="translate(-2042.31 -178.76)"/><path class="cls-35" d="M2169.2,413.15c-3.65-6.48,9.24-7.35,8.45-.54,4.38-1.34,4.87-8.88.22-9.82-3.34-.68-7.53,7.51-11.92,4.07C2165.58,409.38,2166.19,412.7,2169.2,413.15Z" transform="translate(-2042.31 -178.76)"/><path class="cls-35" d="M2059.12,422.63c-1.67-7.76,6.67-1.71,3.54,2.15a6.76,6.76,0,0,0,2.72.06c-1.05-4.67,3.48-8.95,6-3.2a16.7,16.7,0,0,0,1-8.06c-2,4.27-11.26,6.73-13.64,1.22C2057.67,417.15,2057.28,420.58,2059.12,422.63Z" transform="translate(-2042.31 -178.76)"/><path class="cls-35" d="M2081.6,468.66c3.22-1.09-.54-4.63-1.4-5-2.92-1.11-13.41,3.48-10,7.71-10.06,1.41-4.87-7.37-1.9-12.2,1.3,6.33,14.18,2.89,18.37.11,0.16,3.57-1.37,8.09-5.09,9.34h0Z" transform="translate(-2042.31 -178.76)"/><path class="cls-35" d="M2283.62,466.52c-10.84-13.09,16.38-14.19,12.2-.65,9.24,0.11,1.75-10.06-1-13.52-3.39,4.2-10.42,1.39-14.86.29C2280,457.12,2276.31,465.69,2283.62,466.52Z" transform="translate(-2042.31 -178.76)"/><path class="cls-36" d="M2276.33,409.16c6.9,0.2,11.12-5.1,13.19-11,1.06-3,3.72-15,1.52-16.88C2281.83,373.39,2266.48,399.14,2276.33,409.16Z" transform="translate(-2042.31 -178.76)"/><path class="cls-37" d="M2287.57,384.64c-2.87,2.08-18,17.6-7.45,16,8.79-1.33,5.13-14.34,7.45-16h0Z" transform="translate(-2042.31 -178.76)"/><path class="cls-38" d="M2287.57,384.64c-3.39,2.46-10.62,7.83-10.67,12.39,0,3,.49,5.52,4.49,3.12-7.45-1.86,4.09-13.3,6.18-15.51C2284.7,386.72,2284.32,388.08,2287.57,384.64Z" transform="translate(-2042.31 -178.76)"/><path class="cls-39" d="M2277.81,386.78c-0.38.82-1.76,3.24-1,4.11,2.17,2.56,7.75-11.27,11.42-4.56,2,3.64-4.4,13-1.45,16.1a2.56,2.56,0,0,0,2.06-2.16c-2.34,5.65-13.27,14.2-18.48,7.56C2266.25,402.65,2272.77,389.61,2277.81,386.78Z" transform="translate(-2042.31 -178.76)"/><path class="cls-39" d="M2286.66,404.11c-6.08,4.1-5-1-4.37-3.72,1.46-6,6.34-7.75,4.91-15.36-2.19,1.35-13.36,13.45-12.3,7.4C2269.31,400,2277.25,415.6,2286.66,404.11Z" transform="translate(-2042.31 -178.76)"/><path class="cls-40" d="M2237.08,410.94c-0.73,4.55-3.88,8.69-3.6,13.29,0.34,5.6,6,12,7.74,17.43,3,9.38,2.28,25.44,8.24,32.87,1.67,2.08,9.66,7.3,12.68,5.68,1.72-.93,3.8-8.67,4.86-10.91,3-6.36,3.69-9.84,4.6-16.81,1.22-9.38,6.13-15,8.85-23.23,4.06-12.26-5.28-26.66-5-38.84,0.06-2.6-1.14-15.09-6.68-6.77-2.17,3.26,2.82,8.1-.25,11.79-2.5,3-7.68,3.07-9.57-.83-1.74-3.59,6.55-9.78-1.27-11.89-8.1-2.18-2.9,6.86-3.48,9.57-0.23,1.08-6.35,10.38-6.48,10.29-3.21-3.62-12.89-27.07-20.84-20.47-1.92,1.59-1.23,11.37-1,13.56C2226.7,402.62,2229.75,409.09,2237.08,410.94Z" transform="translate(-2042.31 -178.76)"/><path class="cls-37" d="M2260.83,460c2.09,0.26,3.1,6.51,1,7.34-2.84,1.15-2.05-7.47-1-7.34h0Z" transform="translate(-2042.31 -178.76)"/><path class="cls-37" d="M2268.88,463.8a8.68,8.68,0,0,0-3.29,4.09c0.33,3.05,6.72-6.71,3.29-4.09h0Z" transform="translate(-2042.31 -178.76)"/><path class="cls-38" d="M2261.39,466.55c0.67-1.6-.21-4.78-1.25-6-0.44,1.39.45,8,1.25,6C2261.89,465.36,2261.28,466.83,2261.39,466.55Z" transform="translate(-2042.31 -178.76)"/><path class="cls-38" d="M2269.48,465.65c1.93-1.84-2.91.83-3.71,2.49a8.31,8.31,0,0,0,3.71-2.49h0Z" transform="translate(-2042.31 -178.76)"/><path class="cls-37" d="M2229.35,384.89c0.16,2.88,17.43,12.7,11.63,19.65-6.91,8.29-11.47-16.71-11.63-19.65C2229.24,382.88,2229.54,388.38,2229.35,384.89Z" transform="translate(-2042.31 -178.76)"/><path class="cls-26" d="M2257.7,479.21c-6.75,0-5.11-13.95-4.73-13.82C2252.48,465.25,2253.38,479.21,2257.7,479.21Z" transform="translate(-2042.31 -178.76)"/><path class="cls-26" d="M2252.29,468.56c-0.33,0-2-3.49-1.85-3.61C2251.18,464.35,2253.41,468.56,2252.29,468.56Z" transform="translate(-2042.31 -178.76)"/><path class="cls-26" d="M2271,462.76a24.56,24.56,0,0,0-3.23-.15C2265.82,459.56,2272.71,462.76,2271,462.76Z" transform="translate(-2042.31 -178.76)"/><path class="cls-26" d="M2257.69,463.79c-1.33,0,.75-5.37,1.2-5.66,2.43-1.52,5.9,3.1,5.22,3.45-1.11.56-2.05-4.93-4.94-2.76C2258.36,459.43,2258.07,463.79,2257.69,463.79Z" transform="translate(-2042.31 -178.76)"/><path class="cls-26" d="M2274.47,441c-1,0,2.06-17.64,2.57-17.94C2278.23,422.39,2274.24,441,2274.47,441Z" transform="translate(-2042.31 -178.76)"/><path class="cls-26" d="M2263,447.23c1.87,0-.94-28.75.21-29.33C2263.4,417.81,2265.83,447.23,2263,447.23Z" transform="translate(-2042.31 -178.76)"/><path class="cls-26" d="M2249,424.39c-4.59,0,5.59-14.4,5.59-12.89C2254.6,411.78,2246,424.39,2249,424.39Z" transform="translate(-2042.31 -178.76)"/><path class="cls-26" d="M2242,411.84c2.48,0-5.64.19-5.2-1C2237.07,410,2245.26,411.84,2242,411.84Z" transform="translate(-2042.31 -178.76)"/><path class="cls-26" d="M2270.8,400.62c-0.79,0-7.93-2.85-8.18-3-1.14-.77-2.91-2.34-3.85-3-0.73-.5.31-3.95,0.88-3.64,1.25,0.67-1.13,3.85.82,5.06,2.16,1.34,4.73.43,6.9,1.59C2267.49,397.69,2272.14,400.62,2270.8,400.62Z" transform="translate(-2042.31 -178.76)"/><path class="cls-26" d="M2240.89,408.6c0.35,0-.57-8.54-0.06-8.64C2241.67,399.79,2242,408.6,2240.89,408.6Z" transform="translate(-2042.31 -178.76)"/><path class="cls-38" d="M2229.35,384.89c2.18,2.14,14.16,17,6.35,18.72,8,6.58,4.71-5.54,2.64-9.29C2237.69,393.14,2229.35,384.87,2229.35,384.89Z" transform="translate(-2042.31 -178.76)"/><path class="cls-22" d="M2252.21,467.14c-5.52-5.05-5.27-14.1-6.3-20.86-1.2-7.94-4.86-16.13-3.72-24.2,0.44-3.11,4.09-8.37,2.3-11.07-0.48-.72-6.62-0.86-8.22-1.54a19.33,19.33,0,0,1-10-10.08c1.19,5.48,4.42,6.56,7.16,10.6q4.39-.29,3.31,2.39a42.84,42.84,0,0,1-1.45,5.23c-0.47,4.12-2.36,5.28-1.22,10,0.77,3.15,3.92,6.53,5.24,9.6,3.69,8.53,5.19,44.16,17.88,42.19C2253.14,476.65,2250.73,472,2252.21,467.14Z" transform="translate(-2042.31 -178.76)"/><path class="cls-30" d="M2273.36,444.84c0.33-.78,3-10.15.73-9.88-5.84.69-9.34,20.28-10.15,3-0.33-7,2.11-16.83-.82-23.27-6.57-14.4-17.27,2.32-17,11.59,0.43,12.92,12.65,23.32,11.54,36.13,1.59-10.24,5.66.74,8.69,1.12,7.17,0.9,5.22-14.53,7-18.66h0Z" transform="translate(-2042.31 -178.76)"/><path class="cls-41" d="M2259.18,385c0,4.08-5.19,0-5.34,0C2254,385,2259.18,380.94,2259.18,385Z" transform="translate(-2042.31 -178.76)"/><path class="cls-41" d="M2274.54,384.31c0,4.08-5.19,0-5.34,0C2269.36,384.31,2274.54,380.23,2274.54,384.31Z" transform="translate(-2042.31 -178.76)"/><path class="cls-42" d="M2276.21,404.81c2.08,4.08,4,11.29,2.34,15.73,0.15-.4-3.4,2.63-4.14,4.17-0.86,1.78-1,12.35-5.73,10.09-3.67-1.76-1.24-15-1.93-17.81-1.5-6.19-2.64-5.95-7.57-9-4.2-2.59-9.53-4-5-7.77,2.67-2.19,9.29.56,11.74,0.91,3.13,0.45,8.71.6,10.28,3.67C2278.69,409.66,2272.81,398.16,2276.21,404.81Z" transform="translate(-2042.31 -178.76)"/><path class="cls-42" d="M2271.88,408.27c1.51,2,1.4,7.92,3.66,9.15,0.67,0.36,2.89-17.18-5-13.13q-1,2.26,1.3,4h0Z" transform="translate(-2042.31 -178.76)"/><path class="cls-39" d="M2263.79,419.17c-2,5.28-3.85,21.08-.5,26.71C2259.37,439.31,2267.77,426.19,2263.79,419.17Z" transform="translate(-2042.31 -178.76)"/><path class="cls-43" d="M2255.64,439.35c2.32-2.63,3.28-14.54-3.11-13.49C2246.92,426.77,2253.7,437.64,2255.64,439.35Z" transform="translate(-2042.31 -178.76)"/><path class="cls-44" d="M2252.31,429.15c-2.4,5,3,5.85,3.33,10.2,1.82-2.74,2.79-13.42-3.41-12.55a3.46,3.46,0,0,1,.09,2.36h0Z" transform="translate(-2042.31 -178.76)"/><path class="cls-45" d="M2256.17,435c-3.27,2.06-6.75-3.75-3.52-5.75s6.73,3.72,3.52,5.75h0Z" transform="translate(-2042.31 -178.76)"/><path class="cls-46" d="M2255.44,434.43c-3.75,2.37-2.06-3.36-2-3.33s5.78,1,2,3.33h0Z" transform="translate(-2042.31 -178.76)"/><path class="cls-47" d="M2255.37,430.94q-2.38.21-1.13-1.84,2.39-.21,1.13,1.84h0Z" transform="translate(-2042.31 -178.76)"/><path class="cls-37" d="M2251.81,425.68c5.95,2.38,7,8.4,3.83,13.67C2258.82,433.68,2255.09,429.47,2251.81,425.68Z" transform="translate(-2042.31 -178.76)"/><path class="cls-27" d="M2273.24,407.48c-6.24,0-1.16-4.83-1.29-5C2272.67,403.2,2278,407.48,2273.24,407.48Z" transform="translate(-2042.31 -178.76)"/><path class="cls-19" d="M2272,402.91c8.83,3-6.94,6.24,0,0h0Zm-0.1-.7c-3.22,0-3,6,1.16,5.58C2276.64,407.4,2275.4,402.22,2271.93,402.22Z" transform="translate(-2042.31 -178.76)"/><path class="cls-27" d="M2267.47,404.3c-2.66,0-1.94-4.93,1.36-1.21C2268.47,403.52,2268.13,404.3,2267.47,404.3Z" transform="translate(-2042.31 -178.76)"/><path class="cls-19" d="M2266.55,402.3l1.83,0.83C2267,405.06,2265.29,402.3,2266.55,402.3Zm0-.67a1.35,1.35,0,0,0-1.31,1.62C2266.41,407,2272.62,401.63,2266.55,401.63Z" transform="translate(-2042.31 -178.76)"/><path class="cls-27" d="M2258.93,408.19c-5.18,0-2-5-.3-7.49C2260.5,403.06,2265.22,408.18,2258.93,408.19Z" transform="translate(-2042.31 -178.76)"/><path class="cls-19" d="M2259,401.23c11.47,4.92-10.23,11.72,0,0h0Zm-0.34-.81c-2.65,0-4.67,7.52.31,8.11C2264.63,409.2,2263.09,400.41,2258.63,400.41Z" transform="translate(-2042.31 -178.76)"/><path class="cls-27" d="M2240.6,433.21c-3.26,0,0-3.37-.06-3.17C2240.55,430,2245.42,433.21,2240.6,433.21Z" transform="translate(-2042.31 -178.76)"/><path class="cls-19" d="M2240.9,430.26c0.58,0.07,1.13,1.3,1.37,1.88-1.24.87-2.83,0.8-3.11-1A6.7,6.7,0,0,1,2240.9,430.26Zm-0.08-.68c-4.36,0-.45,3.29-0.51,3.91C2240.24,434.26,2245.55,429.58,2240.83,429.58Z" transform="translate(-2042.31 -178.76)"/><path class="cls-27" d="M2237.91,426.68c-1.75,0-.26-4.7,2.07-1.52C2239.5,425.58,2238.57,426.68,2237.91,426.68Z" transform="translate(-2042.31 -178.76)"/><path class="cls-19" d="M2238.52,424.16c3.21,1.93-2.5,2.25-1.44,1C2225,439,2238.58,423.93,2238.52,424.16Zm0-.71c-2.59,0-1.06,2.57-1.1,3.21C2237.29,428.39,2243.46,423.45,2238.49,423.45Z" transform="translate(-2042.31 -178.76)"/><path class="cls-27" d="M2239.75,421.73c-3.09,0-4-5.49-.48-5.09S2244.44,421.73,2239.75,421.73Z" transform="translate(-2042.31 -178.76)"/><path class="cls-19" d="M2239.45,416.93s3.21,1.88,3.29,2.86C2240.34,425.11,2234,416.93,2239.45,416.93Zm0-.67c-4.63,0-1.92,4.48.3,5.8C2242.24,423.56,2245.59,416.27,2239.45,416.27Z" transform="translate(-2042.31 -178.76)"/><path class="cls-27" d="M2245.67,416.71c-3,0-.58-4.6-0.56-4.48C2245,411.2,2252.22,416.71,2245.67,416.71Z" transform="translate(-2042.31 -178.76)"/><path class="cls-19" d="M2245.73,412.55c2,0,.85,3.06-0.07,3.82C2244.12,415.79,2243.56,412.55,2245.73,412.55Zm0-.67c-3.62,0-.89,3-1,4.46C2244.52,418.5,2250.46,411.88,2245.73,411.88Z" transform="translate(-2042.31 -178.76)"/><path class="cls-27" d="M2252.47,406.34c-3.25,0-.79-2-0.9-2.74C2251.3,401.82,2257,406.34,2252.47,406.34Z" transform="translate(-2042.31 -178.76)"/><path class="cls-19" d="M2252.45,403.46c0.94,3.23-1.7,1.68-1.7,1.53A4.4,4.4,0,0,1,2252.45,403.46Zm0-.67c-4.31,0,0,4.29,0,3.89S2256.79,402.79,2252.45,402.79Z" transform="translate(-2042.31 -178.76)"/><path class="cls-39" d="M2229.48,384.23c-1.61,6.16-.39,24.08,9.15,24.15C2249.64,408.47,2232.83,386.34,2229.48,384.23Z" transform="translate(-2042.31 -178.76)"/></g></g></svg>