<svg id="Layer_1" data-name="Layer 1" xmlns="http://www.w3.org/2000/svg" viewBox="0 0 169.74 408.41"><defs><style>.cls-1{fill:#1d2e2f;}.cls-1,.cls-2,.cls-3,.cls-4,.cls-5,.cls-6{fill-rule:evenodd;}.cls-2{fill:#f4f4f4;}.cls-3{fill:#3f74cc;}.cls-4{fill:#e74c33;}.cls-5{fill:#fff;}.cls-6{fill:#dd910e;}</style></defs><title>anim_43</title><g id="feet"><path class="cls-1" d="M210.77,3403.35c-4.54,2.23-.16,12.06,12.5,13.55s15.31-10.28,15.31-10.28-4.13-.7-14.43-1.91S215.31,3401.11,210.77,3403.35Zm90.08-1.1c-2.45-6.35-.56-1.5-10.7.71a87,87,0,0,0-16.66,5.26s3.78,11.46,16.24,8.74S302.67,3407,300.85,3402.24Z" transform="translate(-171.28 -3008.95)"/></g><g id="wings"><path class="cls-2" d="M326,3263.89c-8.94-20.8-24.45-51.78-37.06-45s13.2,49.24,10.94,67.14,27.84,58.9,34.87,34.47C337.9,3309.43,334.92,3284.68,326,3263.89Zm-102.61-45c-12.61-6.76-28.12,24.22-37.06,45s-11.92,45.55-8.74,56.6c7,24.42,37.12-16.57,34.87-34.47S236,3225.63,223.37,3218.87Z" transform="translate(-171.28 -3008.95)"/></g><g id="body"><path class="cls-1" d="M289,3231.09c-10-6.53-21-10.38-32.83-10.39h0c-11.79,0-22.84,3.85-32.83,10.39-34.17,22.29-56,76.18-51.44,118.28a92.23,92.23,0,0,0,4.28,21.33c9.52,28.3,44.75,41.29,80,40.43,35.25,0.86,70.48-12.13,80-40.43a92.21,92.21,0,0,0,4.28-21.33C344.95,3307.27,323.16,3253.38,289,3231.09Z" transform="translate(-171.28 -3008.95)"/></g><g id="head"><path class="cls-3" d="M272.42,3049.4a32.84,32.84,0,0,0-16.27-4.45h0a32.84,32.84,0,0,0-16.27,4.45c-16.93,9.55-27.73,32.66-25.49,50.7a34.91,34.91,0,0,0,2.12,9.14c4.72,12.13,22.17,17.7,39.64,17.33,17.47,0.37,34.92-5.2,39.64-17.33a34.9,34.9,0,0,0,2.12-9.14C300.15,3082.06,289.35,3059,272.42,3049.4Z" transform="translate(-171.28 -3008.95)"/></g><g id="neck"><path class="cls-3" d="M280.44,3246.15c-11.43-61-13.2-118.31-3.43-125.14,5.58-3.9-12.32-10.07-20.87-10.07-8.27,0-25.74,7.65-20.41,11.61,10,7.41,10.46,63-3.51,123.6-2.08,9,12.08,16.8,24.1,16.8S282.15,3255.27,280.44,3246.15Z" transform="translate(-171.28 -3008.95)"/></g><g id="folds"><path class="cls-4" d="M256.15,3249s-20.38,24.92-20,50c0.33,21.95,13.38,19.66,16,2,3.06-20.62,4-34,4-34s2.69,21.78,4,34,15.74,21.58,16,0S261.88,3250.51,256.15,3249Z" transform="translate(-171.28 -3008.95)"/></g><g id="eye"><path class="cls-5" d="M278.15,3067a14,14,0,1,0,14,14A14,14,0,0,0,278.15,3067Zm-44,2a14,14,0,1,0,14,14A14,14,0,0,0,234.15,3069Z" transform="translate(-171.28 -3008.95)"/></g><g id="eye-2" data-name="eye"><path class="cls-1" d="M236.15,3077c-3.31,0-6,2.24-6,5s2.69,5,6,5,6-2.24,6-5S239.46,3077,236.15,3077Zm40,0c-3.31,0-6,2.24-6,5s2.69,5,6,5,6-2.24,6-5S279.46,3077,276.15,3077Z" transform="translate(-171.28 -3008.95)"/></g><g id="beal"><path class="cls-1" d="M282.15,3101c0-4.57-4.06-8.62-10.34-11.18-2.65-5-7.68-8.82-15.66-8.82s-13,3.78-15.66,8.82c-6.28,2.56-10.34,6.61-10.34,11.18,0,5.2,5.27,9.73,13.09,12.15,4.74,8.07,11.32,15.85,12.91,15.85s8.17-7.78,12.91-15.85C276.88,3110.68,282.15,3106.15,282.15,3101Z" transform="translate(-171.28 -3008.95)"/></g><g id="ridge"><path class="cls-6" d="M255.36,3009c-4.8,0-13.21,46.9-9.61,50.45s4.18,4,9.61,4,5.69-1.95,8.24-4S260.15,3009,255.36,3009Z" transform="translate(-171.28 -3008.95)"/></g></svg>