<svg id="Layer_1" data-name="Layer 1" xmlns="http://www.w3.org/2000/svg" viewBox="0 0 222.41 202.48"><defs><style>.cls-1{fill:#1d2e2f;}.cls-1,.cls-2,.cls-3{fill-rule:evenodd;}.cls-2{fill:#f4f4f4;}.cls-3{fill:#febc1e;}</style></defs><title>anim_59</title><g id="shape"><path class="cls-1" d="M1776.12,2124.45a12.83,12.83,0,0,0-3.3-5.8,13.12,13.12,0,0,0-2.74-2.12,13.27,13.27,0,0,0-3.26-1.35,13.6,13.6,0,0,0-3.58-.45,13.89,13.89,0,0,0-3.65.52q-0.63.18-1.23,0.41a14.19,14.19,0,0,0-2.23,1.09,14.63,14.63,0,0,0-3,2.41,15,15,0,0,0-2.34,3.18,15.48,15.48,0,0,0-1.47,3.76c0,0.09-6.13,23.23-6.14,23.32a1.73,1.73,0,0,0,3.32.86c0-.09,6.16-23.23,6.19-23.33a11.94,11.94,0,0,1,1.13-2.9,11.59,11.59,0,0,1,1.79-2.44,11.14,11.14,0,0,1,2.3-1.83,10.8,10.8,0,0,1,2.62-1.13,10.41,10.41,0,0,1,2.74-.39,10.12,10.12,0,0,1,2.67.34,9.9,9.9,0,0,1,2.42,1,9.67,9.67,0,0,1,2,1.56,9.44,9.44,0,0,1,1.49,2,9.18,9.18,0,0,1,.9,2.23,9,9,0,0,1,.28,2.32,8.65,8.65,0,0,1-.32,2.23,8.36,8.36,0,0,1-.85,2,8.15,8.15,0,0,1-1.29,1.65,7.65,7.65,0,0,1-1.61,1.2,7.4,7.4,0,0,1-1.79.7,6.92,6.92,0,0,1-1.83.19,6.6,6.6,0,0,1-1.74-.29,6.44,6.44,0,0,1-1.53-.71,6.17,6.17,0,0,1-1.23-1,5.89,5.89,0,0,1-.87-1.27,5.66,5.66,0,0,1-.48-1.39,5.32,5.32,0,0,1-.09-1.39,5,5,0,0,1,.26-1.29,4.75,4.75,0,0,1,.56-1.11,4.39,4.39,0,0,1,.77-0.86,4.06,4.06,0,0,1,.91-0.58,3.59,3.59,0,0,1,1-.29,3.42,3.42,0,0,1,.91,0,3.16,3.16,0,0,1,.81.22,2.86,2.86,0,0,1,.65.39,2.62,2.62,0,0,1,.47.5,2.29,2.29,0,0,1,.27.54,2,2,0,0,1,.1.51,1.73,1.73,0,0,1,0,.41,1.66,1.66,0,0,0-.13-0.23,1.72,1.72,0,0,0-2.41-.45,2.64,2.64,0,0,0-.62.53,2.51,2.51,0,0,0-.45,2.16,3.18,3.18,0,0,0,.48,1,3.29,3.29,0,0,0,.82.74,3.54,3.54,0,0,0,1,.41,3.76,3.76,0,0,0,1.15,0,4,4,0,0,0,1.14-.34,4.28,4.28,0,0,0,1-.71,4.66,4.66,0,0,0,.81-1,5,5,0,0,0,.51-1.29,5.3,5.3,0,0,0,.13-1.44,5.55,5.55,0,0,0-.3-1.49,5.86,5.86,0,0,0-.72-1.4,6.11,6.11,0,0,0-1.13-1.2,6.21,6.21,0,0,0-1.48-.88,6.55,6.55,0,0,0-1.73-.46,6.84,6.84,0,0,0-1.86,0,7.17,7.17,0,0,0-1.86.56,7.6,7.6,0,0,0-1.7,1.08,7.89,7.89,0,0,0-1.4,1.56,8.28,8.28,0,0,0-1,1.95,8.58,8.58,0,0,0-.44,2.21,8.9,8.9,0,0,0,.16,2.33,9.19,9.19,0,0,0,.79,2.27,9.45,9.45,0,0,0,1.4,2,9.67,9.67,0,0,0,1.94,1.64,9.81,9.81,0,0,0,2.37,1.1,10,10,0,0,0,2.65.44,10.26,10.26,0,0,0,2.75-.29,10.7,10.7,0,0,0,2.65-1,11,11,0,0,0,2.35-1.75,11.53,11.53,0,0,0,1.86-2.37,11.88,11.88,0,0,0,1.21-2.85,12.18,12.18,0,0,0,.44-3.15A12.54,12.54,0,0,0,1776.12,2124.45Z" transform="translate(-1620.3 -2114.74)"/></g><g id="shape-2" data-name="shape"><path class="cls-1" d="M1713.71,2126.09a15.48,15.48,0,0,0-1.47-3.76,15.06,15.06,0,0,0-2.34-3.18,14.65,14.65,0,0,0-3-2.41,14.21,14.21,0,0,0-2.23-1.09q-0.6-.23-1.23-0.41a13.89,13.89,0,0,0-3.65-.52,13.6,13.6,0,0,0-3.58.45,13.28,13.28,0,0,0-3.27,1.35,13.11,13.11,0,0,0-2.74,2.12,12.91,12.91,0,0,0-2,2.71,12.75,12.75,0,0,0-1.25,3.09,12.52,12.52,0,0,0-.4,3.24,12.18,12.18,0,0,0,.44,3.15,11.88,11.88,0,0,0,1.21,2.85,11.53,11.53,0,0,0,1.86,2.37,11,11,0,0,0,2.35,1.75,10.7,10.7,0,0,0,2.65,1,10.26,10.26,0,0,0,2.75.29,10,10,0,0,0,2.65-.44,9.8,9.8,0,0,0,2.37-1.1,9.68,9.68,0,0,0,1.94-1.64,9.47,9.47,0,0,0,1.4-2,9.18,9.18,0,0,0,.79-2.27,8.89,8.89,0,0,0,.16-2.33,8.58,8.58,0,0,0-.44-2.21,8.27,8.27,0,0,0-1-1.95,7.88,7.88,0,0,0-1.4-1.56,7.58,7.58,0,0,0-1.7-1.08,7.17,7.17,0,0,0-1.86-.56,6.84,6.84,0,0,0-1.86,0,6.55,6.55,0,0,0-1.73.46,6.22,6.22,0,0,0-1.48.88,6.11,6.11,0,0,0-1.13,1.2,5.86,5.86,0,0,0-.72,1.4,5.56,5.56,0,0,0-.3,1.49,5.33,5.33,0,0,0,.13,1.44,5,5,0,0,0,.51,1.29,4.64,4.64,0,0,0,.81,1,4.28,4.28,0,0,0,1,.71,4,4,0,0,0,1.14.34,3.76,3.76,0,0,0,1.15,0,3.54,3.54,0,0,0,1-.41,3.28,3.28,0,0,0,.82-0.74,3.19,3.19,0,0,0,.49-1,2.51,2.51,0,0,0-.45-2.16,2.65,2.65,0,0,0-.62-0.53,1.72,1.72,0,0,0-2.41.45,1.69,1.69,0,0,0-.13.23,1.72,1.72,0,0,1,0-.41,2,2,0,0,1,.1-0.51,2.29,2.29,0,0,1,.27-0.54,2.61,2.61,0,0,1,.47-0.5,2.86,2.86,0,0,1,.65-0.39,3.16,3.16,0,0,1,.81-0.22,3.41,3.41,0,0,1,.91,0,3.6,3.6,0,0,1,1,.29,4.06,4.06,0,0,1,.9.58,4.39,4.39,0,0,1,.77.86,4.73,4.73,0,0,1,.56,1.11,5,5,0,0,1,.26,1.29,5.34,5.34,0,0,1-.09,1.39,5.64,5.64,0,0,1-.48,1.39,5.86,5.86,0,0,1-.87,1.27,6.16,6.16,0,0,1-1.24,1,6.44,6.44,0,0,1-1.53.71,6.6,6.6,0,0,1-1.74.29,6.93,6.93,0,0,1-1.84-.19,7.4,7.4,0,0,1-1.79-.7,7.64,7.64,0,0,1-1.61-1.2,8.15,8.15,0,0,1-1.29-1.65,8.36,8.36,0,0,1-.85-2,8.66,8.66,0,0,1-.32-2.23,9,9,0,0,1,.28-2.32,9.17,9.17,0,0,1,.9-2.23,9.41,9.41,0,0,1,1.49-2,9.66,9.66,0,0,1,2-1.56,9.91,9.91,0,0,1,2.42-1,10.12,10.12,0,0,1,2.67-.34,10.41,10.41,0,0,1,2.74.39,10.8,10.8,0,0,1,2.62,1.13,11.15,11.15,0,0,1,2.3,1.83,11.56,11.56,0,0,1,1.79,2.44,11.94,11.94,0,0,1,1.13,2.9c0,0.1,6.15,23.24,6.19,23.33a1.73,1.73,0,0,0,2,1,1.75,1.75,0,0,0,1.31-1.86C1719.83,2149.32,1713.73,2126.18,1713.71,2126.09Z" transform="translate(-1620.3 -2114.74)"/></g><g id="shape-3" data-name="shape"><path class="cls-2" d="M1813.27,2208.43s47.24-25.47,22-51.44-59.06.53-75.33,29.4,31.23,45.93,31.23,45.93,41,21.33,45.93,0S1813.27,2208.43,1813.27,2208.43Z" transform="translate(-1620.3 -2114.74)"/></g><g id="shape-4" data-name="shape"><path class="cls-2" d="M1703,2186.38c-16.26-28.86-50.14-55.38-75.33-29.4s22,51.44,22,51.44-28.81,2.55-23.88,23.88,45.93,0,45.93,0S1719.29,2215.25,1703,2186.38Z" transform="translate(-1620.3 -2114.74)"/></g><g id="shape-5" data-name="shape"><path class="cls-1" d="M1760.75,2146.09c-9.18-6-19.32-9.54-30.16-9.54h0c-10.83,0-21,3.54-30.16,9.54-31.39,20.47-51.41,70-47.26,108.66a84.72,84.72,0,0,0,3.93,19.6c4.76,14.17,16.55,24.15,31.52,30.18-3.66,2.34.43,10.93,11.77,12.26,7.31,0.86,11-3.09,12.7-6.14a184,184,0,0,0,34.32.08c1.64,2.91,5.74,7.92,14,6.11,10.28-2.24,11.68-7.86,10.65-12.12,15.2-6,27.18-16.05,32-30.37a84.69,84.69,0,0,0,3.93-19.6C1812.16,2216.07,1792.15,2166.56,1760.75,2146.09Z" transform="translate(-1620.3 -2114.74)"/></g><g id="Elipsa_6" data-name="Elipsa 6"><path class="cls-3" d="M1795.72,2227.78c-5.86-33.94-24.23-69-64.93-69s-59.48,35-65.34,69c-6.52,37.74,26.09,61.49,65.34,61.49S1802.24,2265.53,1795.72,2227.78Z" transform="translate(-1620.3 -2114.74)"/></g><g id="shape-6" data-name="shape"><path class="cls-1" d="M1730.79,2243.34c-45.2,0-73.69-23.89-73.69-23.89V2247s30.36,23.89,73.43,23.89,73.56-23.89,73.56-23.89v-27.56S1776,2243.34,1730.79,2243.34Z" transform="translate(-1620.3 -2114.74)"/></g><g id="shape-7" data-name="shape"><path class="cls-1" d="M1789.38,2190.05s-20.9,13.34-60.46,13.34-60.81-13.34-60.81-13.34l-7.35,17.08S1691,2225,1728.69,2225s68-17.83,68-17.83Z" transform="translate(-1620.3 -2114.74)"/></g><g id="shape-8" data-name="shape"><path class="cls-1" d="M1738.86,2166.17c-3.55,0-6.43,3.29-6.43,7.35s2.88,7.35,6.43,7.35,6.43-3.29,6.43-7.35S1742.41,2166.17,1738.86,2166.17Zm-20.21,0c-3.55,0-6.43,3.29-6.43,7.35s2.88,7.35,6.43,7.35,6.43-3.29,6.43-7.35S1722.2,2166.17,1718.64,2166.17Z" transform="translate(-1620.3 -2114.74)"/></g></svg>