<svg id="Layer_1" data-name="Layer 1" xmlns="http://www.w3.org/2000/svg" viewBox="0 0 225.9 183.7"><defs><style>.cls-1{fill:#1d2e2f;}.cls-1,.cls-2,.cls-3{fill-rule:evenodd;}.cls-2{fill:#ff986a;}.cls-3{fill:#f4f4f4;}</style></defs><title>anim_66</title><g id="shape"><path class="cls-1" d="M1384.26,2917.63c-9.31-2-7.57-6.49-9.83-.65-1.68,4.34-1.23,11,10.22,13.51a13.48,13.48,0,0,0,7-.17c7.73-1.47,9.5-9.33,9.5-9.33s-2.65-.45-8.88-1.23C1390,2919.06,1387.34,2918.3,1384.26,2917.63Zm74.13-.65c-2.25-5.84-.52-1.38-9.83.65-3.08.67-5.79,1.43-8,2.14-6.23.78-8.88,1.23-8.88,1.23s1.77,7.86,9.5,9.33a13.48,13.48,0,0,0,7,.17C1459.62,2928,1460.06,2921.31,1458.39,2917Z" transform="translate(-1341.32 -2747.17)"/></g><g id="Elipsa_25" data-name="Elipsa 25"><path class="cls-2" d="M1474.62,2748.52c-12.68-5.43-29.7,6.31-36.08,21.57s0.3,28.27,13,33.71,26.55,1.23,32.93-14S1487.29,2754,1474.62,2748.52Z" transform="translate(-1341.32 -2747.17)"/></g><g id="Elipsa_25_kopiuj" data-name="Elipsa 25 kopiuj"><path class="cls-2" d="M1474.18,2755.86c-9.31-4-21.82,4.68-26.51,16s0.22,21,9.53,25,19.51,0.92,24.2-10.42S1483.5,2759.89,1474.18,2755.86Z" transform="translate(-1341.32 -2747.17)"/></g><g id="Elipsa_25_kopiuj_2" data-name="Elipsa 25 kopiuj 2"><path class="cls-2" d="M1401.63,2770.09c-6.38-15.26-23.4-27-36.08-21.57s-16.2,26-9.82,41.24,20.25,19.47,32.93,14S1408,2785.35,1401.63,2770.09Z" transform="translate(-1341.32 -2747.17)"/></g><g id="Elipsa_25_kopiuj_3" data-name="Elipsa 25 kopiuj 3"><path class="cls-2" d="M1392.49,2771.87c-4.69-11.33-17.2-20-26.51-16s-11.91,19.29-7.22,30.62,14.88,14.45,24.2,10.42S1397.18,2783.21,1392.49,2771.87Z" transform="translate(-1341.32 -2747.17)"/></g><g id="shape-2" data-name="shape"><path class="cls-2" d="M1565.55,2792.64l-0.86-1a28.08,28.08,0,0,0-2.72-2.79,34.89,34.89,0,0,0-12.69-7.32,31.09,31.09,0,0,0-10.56-1.58,23.82,23.82,0,0,0-12.47,3.77,23.49,23.49,0,0,0-9,11.83,31.35,31.35,0,0,0-1.75,7.64,36.71,36.71,0,0,0,.12,8.11c1.36,10.65,5.31,20.91,8.37,31.68a83.3,83.3,0,0,1,3.31,16.29,29.78,29.78,0,0,1-.37,7.79,17.08,17.08,0,0,1-2.82,6.52,18.32,18.32,0,0,1-5.57,4.76,26.76,26.76,0,0,1-3.66,1.71c-0.65.24-1.29,0.52-1.95,0.75l-2.08.59a75.6,75.6,0,0,1-17.93,2.34c-12.34.28-24.85-2.41-36.84-6.79-1.29-.47-2.57-1-3.85-1.47v12.2l0.15,0.05c13.11,4.25,27.12,6.76,40.92,5.94a84.77,84.77,0,0,0,20.26-3.45l2.47-.81,2.43-1a36.12,36.12,0,0,0,4.73-2.45,27.12,27.12,0,0,0,8-7.46,25.49,25.49,0,0,0,3.88-10,37.41,37.41,0,0,0,.12-10,90.54,90.54,0,0,0-4.25-17.67c-3.59-11-7.77-20.93-9.29-30.38-1.57-9.17,1.42-18.41,7.52-22.63a19.05,19.05,0,0,1,9.84-3.28,26.67,26.67,0,0,1,9.1,1.07,30.92,30.92,0,0,1,11.44,6.1,24.07,24.07,0,0,1,2.49,2.38l0.79,0.88c1.26,1.59,2.09,3,3.65,2.15S1567,2794.44,1565.55,2792.64Z" transform="translate(-1341.32 -2747.17)"/></g><g id="shape-3" data-name="shape"><path class="cls-3" d="M1419.16,2750.2c-53.74,0-90.95,85.89-73.49,137.8s129.07,47.77,147-1.84S1472.91,2750.2,1419.16,2750.2Z" transform="translate(-1341.32 -2747.17)"/></g><g id="Elipsa_24" data-name="Elipsa 24"><path class="cls-2" d="M1420.41,2800c-19.45,0-26.73,12.41-24.54,25.46,1.86,11.07,10.5,40.69,24.54,40.69s22.68-29.62,24.54-40.69C1447.14,2812.45,1439.86,2800,1420.41,2800Z" transform="translate(-1341.32 -2747.17)"/></g><g id="Elipsa_7_kopiuj_2" data-name="Elipsa 7 kopiuj 2"><path class="cls-1" d="M1420.24,2847.5c-5.5,0-10,3.4-10,8.05s4.46,8.79,10,8.79,10-4.14,10-8.79S1425.73,2847.5,1420.24,2847.5Z" transform="translate(-1341.32 -2747.17)"/></g><g id="shape-4" data-name="shape"><path class="cls-1" d="M1490.58,2879.1c-0.12-.46-3.07-10.9-17.2-19.47q-1.05-.64-2.19-1.26a46.8,46.8,0,0,0-31.46-5h0l-0.12,0-0.12,0-0.06,0-0.09.06-0.12.07-0.06,0-0.08.07-0.1.09-0.05.05-0.06.08-0.08.12,0,0.07,0,0.09-0.06.13,0,0.09v0s0,0.05,0,.07l0,0.13,0,0.1s0,0.08,0,.11,0,0.05,0,.08,0,0,0,0,0,0.07,0,.1,0,0.07,0,.11,0,0.09,0,.14,0,0,0,0v0l0,0.09c0,0.05,0,.11,0,0.16l0,0.07,0,0.07,0.08,0.15,0,0.06,0.05,0.07,0.1,0.13,0,0,0.08,0.07,0.12,0.1,0,0,0.09,0.05,0.13,0.07,0.06,0h0c0.13,0.05,13,5,21.91,20.11a47.48,47.48,0,0,1,6.47,18,1.57,1.57,0,0,0,1.8,1.41,1.75,1.75,0,0,0,1.38-2,50.93,50.93,0,0,0-6.92-19.37,54.57,54.57,0,0,0-14-15.92,45.78,45.78,0,0,1,16.83,10.41c12.29,12,12.61,23,12.61,23.09a1.59,1.59,0,0,0,1.63,1.63,1.72,1.72,0,0,0,1.57-1.78c0-.51-0.35-12.57-13.62-25.49a48.7,48.7,0,0,0-16.57-10.63,44.62,44.62,0,0,1,17.11,5.23c14.72,8.07,17.81,18.61,17.84,18.71a1.54,1.54,0,0,0,2,1.11A1.77,1.77,0,0,0,1490.58,2879.1Zm-87-23.07s0,0,0-.07,0-.08,0-0.12l0-.11,0-.12,0-.08v0l0-.09-0.06-.13,0-.09,0-.07-0.08-.11-0.06-.08-0.05-.05-0.1-.09-0.08-.07-0.06,0-0.12-.07-0.1-.06-0.06,0-0.12,0-0.12,0h0a46.8,46.8,0,0,0-31.46,5q-1.14.62-2.19,1.26c-14.13,8.57-17.08,19-17.2,19.47a1.78,1.78,0,0,0,1.1,2.14,1.54,1.54,0,0,0,2-1.12c0-.1,3.1-10.63,17.83-18.71a44.64,44.64,0,0,1,17.15-5.25,48.69,48.69,0,0,0-16.6,10.64c-13.26,12.92-13.61,25-13.62,25.49a1.72,1.72,0,0,0,1.57,1.78,1.59,1.59,0,0,0,1.63-1.63c0-.1.41-11.21,12.61-23.09a45.78,45.78,0,0,1,16.83-10.41,54.56,54.56,0,0,0-14,15.91,50.9,50.9,0,0,0-6.92,19.37,1.75,1.75,0,0,0,1.38,2,1.57,1.57,0,0,0,1.8-1.41,47.47,47.47,0,0,1,6.47-18c8.87-15.12,21.78-20.06,21.91-20.11h0l0.07,0,0.13-.07,0.09,0,0.05,0,0.11-.09,0.08-.07,0,0,0.09-.11,0.06-.08,0-.06,0.07-.13,0-.09,0-.07,0-.13,0-.11v0s0,0,0-.05,0-.08,0-0.12,0-.08,0-0.12,0-.07,0-0.11S1403.56,2856,1403.55,2856Z" transform="translate(-1341.32 -2747.17)"/></g><g id="shape-5" data-name="shape"><path class="cls-1" d="M1434,2783.5c-3,0-5.41,2.88-5.41,6.43s2.42,6.43,5.41,6.43,5.42-2.88,5.42-6.43S1437,2783.5,1434,2783.5Zm-29.59,0c-3,0-5.42,2.88-5.42,6.43s2.42,6.43,5.42,6.43,5.42-2.88,5.42-6.43S1407.36,2783.5,1404.37,2783.5Z" transform="translate(-1341.32 -2747.17)"/></g></svg>