<svg id="Layer_1" data-name="Layer 1" xmlns="http://www.w3.org/2000/svg" viewBox="0 0 178.95 181.88"><defs><style>.cls-1{fill:#fff;}.cls-1,.cls-2,.cls-3,.cls-4{fill-rule:evenodd;}.cls-2{fill:#ff986a;}.cls-3{fill:#b75326;}.cls-4{fill:#1d2e2f;}</style></defs><title>anim_50</title><g id="shape"><path class="cls-1" d="M1416.41,1517.6c-53.74,0-85.43,80.38-68,132.29,17,50.52,118.27,42.07,134.12-1.84C1500.46,1598.44,1470.15,1517.6,1416.41,1517.6Z" transform="translate(-1324.4 -1510.65)"/></g><g id="shape-2" data-name="shape"><path class="cls-2" d="M1473,1617c-4.28-34.74-46.07-36.9-58.06-36.9-6,0-20,.55-33,5.41a33.89,33.89,0,0,0-15.45,8.83,34.8,34.8,0,0,0-12,21.95,30,30,0,0,0-.5,5.24v1.67c0,0.08,0,.16,0,0.24v1.2a30.24,30.24,0,0,0,.38,4.48,35,35,0,0,0,12.15,23,33.47,33.47,0,0,0,16.21,9.08l0.82,0.12c11.57,3.81,23.37,4.26,28.88,4.26a105.52,105.52,0,0,0,28.41-3.83c1.27-.18,2.54-0.34,3.8-0.55,8.05-1.7,15.24-7,20.42-13.85a34.22,34.22,0,0,0,7.74-16.9v0c0-.18.05-0.36,0.08-0.54a30.64,30.64,0,0,0,.49-5.27v-1.22c0-.07,0-0.14,0-0.22v-1.67A29.71,29.71,0,0,0,1473,1617Z" transform="translate(-1324.4 -1510.65)"/></g><g id="shape-3" data-name="shape"><path class="cls-3" d="M1470.44,1510.71c-1.83-.61-2,3.3-6.1,10.63s-19,9.39-19,9.39,1.05,16,18.06,12.27S1475.2,1512.29,1470.44,1510.71Zm-109.7,10.82c-4.08-7.36-4.25-11.28-6.07-10.67-4.74,1.59-9.92,28.67,7,32.4s18-12.32,18-12.32S1364.81,1528.89,1360.74,1521.53Z" transform="translate(-1324.4 -1510.65)"/></g><g id="shape-4" data-name="shape"><path class="cls-4" d="M1493.6,1551c-11.3.94-18.1,0.83-24.74-6.18a23.18,23.18,0,0,0-1.67-1.61c-13.67-18.54-32-31.32-52.62-31.32s-39.1,12.86-52.74,31.63a20.18,20.18,0,0,0-2.3,2.06c-6.77,6.91-13.7,7-25.21,6.1s-13.07,10.34-4.37,15.89a24,24,0,0,0,16.79,3.59c-10.39,25.9-13.39,55.54-5.66,78.53,4.47,13.28,15.1,22.88,28.75,29-1.66,4.34-1.2,11,10.22,13.49a13.47,13.47,0,0,0,7-.17,11.79,11.79,0,0,0,8.26-6.24,121.81,121.81,0,0,0,32.91,0,11.8,11.8,0,0,0,8.28,6.28,13.47,13.47,0,0,0,7,.17c11.1-2.42,11.85-8.78,10.36-13.11,16.13-6.5,29-17,34.12-31.21,7.94-22,5-51.21-5.51-76.93a22.94,22.94,0,0,0,15.35-3.8C1506.44,1561.46,1504.9,1550,1493.6,1551Zm-79,118.89c-80.84,0-69.95-70.79-58.79-90s24.5-31.23,60.63-31.23c30.63,0,42.69,17.29,53.28,31.23S1495.41,1669.87,1414.57,1669.87Z" transform="translate(-1324.4 -1510.65)"/></g><g id="shape-5" data-name="shape"><path class="cls-4" d="M1428.35,1561.7c-3.55,0-6.43,3.29-6.43,7.35s2.88,7.35,6.43,7.35,6.43-3.29,6.43-7.35S1431.9,1561.7,1428.35,1561.7Zm-31.23,0c-3.55,0-6.43,3.29-6.43,7.35s2.88,7.35,6.43,7.35,6.43-3.29,6.43-7.35S1400.67,1561.7,1397.12,1561.7Z" transform="translate(-1324.4 -1510.65)"/></g><g id="shape-6" data-name="shape"><path class="cls-4" d="M1421.84,1602.12c-2.07,0-3.75,2.06-3.75,4.59s1.68,4.59,3.75,4.59,3.75-2.06,3.75-4.59S1423.92,1602.12,1421.84,1602.12Zm-18.22,0c-2.07,0-3.75,2.06-3.75,4.59s1.68,4.59,3.75,4.59,3.75-2.06,3.75-4.59S1405.7,1602.12,1403.62,1602.12Z" transform="translate(-1324.4 -1510.65)"/></g></svg>