<svg xmlns="http://www.w3.org/2000/svg" xmlns:xlink="http://www.w3.org/1999/xlink" viewBox="0 0 354.31 227.32"><defs><style>.cls-1{isolation:isolate;}.cls-2{fill:url(#radial-gradient);}.cls-3{fill:#412f14;}.cls-11,.cls-12,.cls-13,.cls-4{opacity:0.8;}.cls-11,.cls-12,.cls-13,.cls-14,.cls-32,.cls-4,.cls-71,.cls-84,.cls-93,.cls-94,.cls-95,.cls-97{mix-blend-mode:multiply;}.cls-5{fill:url(#radial-gradient-2);}.cls-6,.cls-74{opacity:0.4;}.cls-20,.cls-34,.cls-6,.cls-64,.cls-74{mix-blend-mode:screen;}.cls-7{fill:url(#radial-gradient-3);}.cls-8{fill:url(#radial-gradient-4);}.cls-9{fill:url(#radial-gradient-5);}.cls-10{fill:url(#radial-gradient-6);}.cls-11{fill:url(#radial-gradient-7);}.cls-12{fill:url(#radial-gradient-8);}.cls-13{fill:url(#radial-gradient-9);}.cls-15{fill:url(#radial-gradient-10);}.cls-16{fill:url(#radial-gradient-11);}.cls-17{fill:url(#radial-gradient-12);}.cls-18{fill:url(#radial-gradient-13);}.cls-19{fill:url(#radial-gradient-14);}.cls-20{opacity:0.3;}.cls-21{fill:url(#radial-gradient-15);}.cls-22{fill:url(#radial-gradient-16);}.cls-23{fill:url(#radial-gradient-17);}.cls-24{fill:url(#radial-gradient-20);}.cls-25{fill:url(#radial-gradient-21);}.cls-26{fill:url(#radial-gradient-22);}.cls-27{fill:url(#radial-gradient-24);}.cls-28{fill:url(#radial-gradient-25);}.cls-29{fill:url(#radial-gradient-27);}.cls-30{fill:url(#radial-gradient-28);}.cls-31{fill:url(#radial-gradient-29);}.cls-32,.cls-64,.cls-71,.cls-93,.cls-94,.cls-95,.cls-97{opacity:0.7;}.cls-33{fill:url(#radial-gradient-30);}.cls-34,.cls-84{opacity:0.6;}.cls-35{fill:url(#radial-gradient-31);}.cls-36{fill:url(#radial-gradient-32);}.cls-37{fill:url(#radial-gradient-33);}.cls-38{fill:url(#radial-gradient-34);}.cls-39{fill:url(#radial-gradient-35);}.cls-40{fill:url(#radial-gradient-36);}.cls-41{fill:url(#radial-gradient-37);}.cls-42{fill:#0c0201;}.cls-43{fill:url(#radial-gradient-38);}.cls-44{fill:url(#radial-gradient-39);}.cls-45{fill:#fff;}.cls-46{fill:url(#radial-gradient-40);}.cls-47{fill:url(#radial-gradient-41);}.cls-48{fill:url(#radial-gradient-42);}.cls-49{fill:url(#radial-gradient-43);}.cls-50{fill:url(#radial-gradient-44);}.cls-51{fill:url(#radial-gradient-45);}.cls-52{fill:url(#radial-gradient-46);}.cls-53{fill:url(#radial-gradient-47);}.cls-54{fill:url(#radial-gradient-48);}.cls-55{fill:url(#radial-gradient-49);}.cls-56{fill:url(#radial-gradient-50);}.cls-57{fill:url(#radial-gradient-51);}.cls-58{fill:url(#radial-gradient-52);}.cls-59{fill:url(#radial-gradient-53);}.cls-60{fill:url(#radial-gradient-54);}.cls-61{fill:url(#radial-gradient-55);}.cls-62{fill:url(#radial-gradient-56);}.cls-63{fill:url(#radial-gradient-57);}.cls-65{fill:url(#radial-gradient-58);}.cls-66{fill:url(#radial-gradient-59);}.cls-67{fill:url(#radial-gradient-60);}.cls-68{fill:url(#radial-gradient-61);}.cls-69{fill:none;}.cls-70{fill:url(#radial-gradient-62);}.cls-71{fill:url(#radial-gradient-63);}.cls-72{fill:url(#radial-gradient-64);}.cls-73{fill:url(#radial-gradient-65);}.cls-74{fill:url(#radial-gradient-66);}.cls-75{fill:url(#radial-gradient-67);}.cls-76{fill:url(#radial-gradient-68);}.cls-77{fill:url(#radial-gradient-69);}.cls-78{fill:url(#radial-gradient-70);}.cls-79{fill:url(#radial-gradient-71);}.cls-80{fill:url(#radial-gradient-72);}.cls-81{fill:url(#radial-gradient-73);}.cls-82{fill:url(#radial-gradient-74);}.cls-83{fill:url(#radial-gradient-75);}.cls-85{fill:url(#radial-gradient-76);}.cls-86{fill:url(#radial-gradient-77);}.cls-87{fill:url(#radial-gradient-78);}.cls-88{fill:url(#radial-gradient-79);}.cls-89{fill:url(#radial-gradient-80);}.cls-90{fill:url(#radial-gradient-81);}.cls-91{fill:url(#radial-gradient-82);}.cls-92{fill:url(#radial-gradient-83);}.cls-93{fill:url(#radial-gradient-84);}.cls-94{fill:url(#radial-gradient-85);}.cls-95{fill:url(#radial-gradient-86);}.cls-96{fill:url(#radial-gradient-87);}.cls-97{fill:url(#radial-gradient-88);}</style><radialGradient id="radial-gradient" cx="1973.76" cy="59.18" r="97" gradientTransform="matrix(1.02, -0.04, 0.04, 1.03, -135.09, 119.14)" gradientUnits="userSpaceOnUse"><stop offset="0.04" stop-color="#cbcbbf"/><stop offset="0.21" stop-color="#c7c7bc"/><stop offset="0.37" stop-color="#bcbcb1"/><stop offset="0.53" stop-color="#aaaaa0"/><stop offset="0.68" stop-color="#8f9088"/><stop offset="0.83" stop-color="#6d6f69"/><stop offset="0.97" stop-color="#454644"/><stop offset="1" stop-color="#3c3e3c"/></radialGradient><radialGradient id="radial-gradient-2" cx="2012.17" cy="34.28" r="97.05" gradientTransform="matrix(1.02, -0.04, 0.04, 1.03, -135.09, 119.14)" gradientUnits="userSpaceOnUse"><stop offset="0.19" stop-color="#cbcbbf"/><stop offset="0.32" stop-color="#b6b7ac"/><stop offset="0.6" stop-color="#80837c"/><stop offset="0.63" stop-color="#7a7e77"/><stop offset="0.67" stop-color="#71756e"/><stop offset="0.85" stop-color="#4b4d4a"/><stop offset="0.95" stop-color="#3c3e3c"/></radialGradient><radialGradient id="radial-gradient-3" cx="2031.35" cy="54.59" r="55.71" gradientTransform="matrix(1.02, -0.04, 0.04, 1.03, -135.09, 119.14)" gradientUnits="userSpaceOnUse"><stop offset="0.18" stop-color="#bebd9a"/><stop offset="0.34" stop-color="#a9a989"/><stop offset="0.63" stop-color="#7a7c62"/><stop offset="0.77" stop-color="#585a46"/><stop offset="0.88" stop-color="#434634"/><stop offset="0.95" stop-color="#3b3e2e"/></radialGradient><radialGradient id="radial-gradient-4" cx="2015.06" cy="93.47" r="18.61" gradientTransform="matrix(1.02, -0.04, 0.04, 1.03, -135.09, 119.14)" gradientUnits="userSpaceOnUse"><stop offset="0" stop-color="#cbcdca"/><stop offset="0.47" stop-color="#c9cbc8"/><stop offset="0.64" stop-color="#c3c5c1"/><stop offset="0.76" stop-color="#b7b9b6"/><stop offset="0.86" stop-color="#a7a9a5"/><stop offset="0.94" stop-color="#92948f"/><stop offset="1" stop-color="#7f817b"/></radialGradient><radialGradient id="radial-gradient-5" cx="2007.28" cy="92.15" r="13.82" xlink:href="#radial-gradient-4"/><radialGradient id="radial-gradient-6" cx="2024.09" cy="93.64" r="29.76" xlink:href="#radial-gradient-4"/><radialGradient id="radial-gradient-7" cx="2014.4" cy="96.72" r="8.94" xlink:href="#radial-gradient-2"/><radialGradient id="radial-gradient-8" cx="2028.24" cy="97.67" r="10.5" xlink:href="#radial-gradient-2"/><radialGradient id="radial-gradient-9" cx="2044.51" cy="100.99" r="19.41" xlink:href="#radial-gradient-2"/><radialGradient id="radial-gradient-10" cx="2041.9" cy="89.63" r="16.84" xlink:href="#radial-gradient-4"/><radialGradient id="radial-gradient-11" cx="2029.41" cy="89.6" r="18.52" xlink:href="#radial-gradient-4"/><radialGradient id="radial-gradient-12" cx="2007.24" cy="92.1" r="13.87" xlink:href="#radial-gradient-4"/><radialGradient id="radial-gradient-13" cx="1816.13" cy="52.27" r="125.58" gradientTransform="matrix(1.02, -0.04, 0.04, 1.03, -135.09, 119.14)" gradientUnits="userSpaceOnUse"><stop offset="0.04" stop-color="#cbcbbf"/><stop offset="0.26" stop-color="#c8c8bc"/><stop offset="0.42" stop-color="#bfbfb4"/><stop offset="0.56" stop-color="#afafa5"/><stop offset="0.69" stop-color="#989991"/><stop offset="0.81" stop-color="#7c7d76"/><stop offset="0.92" stop-color="#595a56"/><stop offset="1" stop-color="#3c3e3c"/></radialGradient><radialGradient id="radial-gradient-14" cx="1852.33" cy="53.15" r="119.83" gradientTransform="matrix(1.02, -0.04, 0.04, 1.03, -135.09, 119.14)" gradientUnits="userSpaceOnUse"><stop offset="0.19" stop-color="#cbcbbf"/><stop offset="0.32" stop-color="#b6b7ac"/><stop offset="0.6" stop-color="#80837c"/><stop offset="0.63" stop-color="#7a7e77"/><stop offset="0.63" stop-color="#797d76"/><stop offset="0.77" stop-color="#585b57"/><stop offset="0.88" stop-color="#434643"/><stop offset="0.95" stop-color="#3c3e3c"/></radialGradient><radialGradient id="radial-gradient-15" cx="1889.06" cy="56.53" r="72.41" xlink:href="#radial-gradient-3"/><radialGradient id="radial-gradient-16" cx="1889.16" cy="78.07" r="19.61" xlink:href="#radial-gradient-4"/><radialGradient id="radial-gradient-17" cx="1886.79" cy="87.17" r="23.27" xlink:href="#radial-gradient-4"/><radialGradient id="radial-gradient-20" cx="1896.27" cy="88.95" r="28.31" xlink:href="#radial-gradient-4"/><radialGradient id="radial-gradient-21" cx="1889.19" cy="78.15" r="19.52" xlink:href="#radial-gradient-4"/><radialGradient id="radial-gradient-22" cx="1886.98" cy="87.18" r="23.06" xlink:href="#radial-gradient-4"/><radialGradient id="radial-gradient-24" cx="1830.84" cy="-87.83" r="38.69" gradientTransform="matrix(1.02, -0.04, 0.04, 1.03, -135.09, 119.14)" gradientUnits="userSpaceOnUse"><stop offset="0" stop-color="#cbcbbf"/><stop offset="0.39" stop-color="#c9c9bd"/><stop offset="0.54" stop-color="#c2c2b7"/><stop offset="0.66" stop-color="#b6b6ac"/><stop offset="0.75" stop-color="#a5a59c"/><stop offset="0.83" stop-color="#8e8f87"/><stop offset="0.9" stop-color="#72736e"/><stop offset="0.96" stop-color="#525450"/><stop offset="1" stop-color="#3c3e3c"/></radialGradient><radialGradient id="radial-gradient-25" cx="1868.95" cy="-106.75" r="23.97" gradientTransform="matrix(1.02, -0.04, 0.04, 1.03, -135.09, 119.14)" gradientUnits="userSpaceOnUse"><stop offset="0" stop-color="#cbcbbf"/><stop offset="0.42" stop-color="#c9c9bd"/><stop offset="0.57" stop-color="#c2c2b7"/><stop offset="0.68" stop-color="#b7b7ac"/><stop offset="0.76" stop-color="#a6a69d"/><stop offset="0.84" stop-color="#909089"/><stop offset="0.9" stop-color="#747670"/><stop offset="0.96" stop-color="#555753"/><stop offset="1" stop-color="#3c3e3c"/></radialGradient><radialGradient id="radial-gradient-27" cx="1866.65" cy="-103.67" r="16.54" xlink:href="#radial-gradient-14"/><radialGradient id="radial-gradient-28" cx="1849.08" cy="-94.32" r="39.33" xlink:href="#radial-gradient-14"/><radialGradient id="radial-gradient-29" cx="2151.85" cy="-9.71" r="33.31" gradientTransform="matrix(1.02, -0.03, 0.03, 1.03, -136.35, 117.79)" gradientUnits="userSpaceOnUse"><stop offset="0" stop-color="#cbcbbf"/><stop offset="1" stop-color="#3c3e3c"/></radialGradient><radialGradient id="radial-gradient-30" cx="2148.77" cy="-5.86" r="33.16" xlink:href="#radial-gradient-14"/><radialGradient id="radial-gradient-31" cx="2137.8" cy="1.15" r="18.85" gradientTransform="matrix(1.02, -0.04, 0.04, 1.03, -135.09, 119.14)" gradientUnits="userSpaceOnUse"><stop offset="0.18" stop-color="#5c5f50"/><stop offset="0.51" stop-color="#71735d"/><stop offset="0.63" stop-color="#7a7c62"/><stop offset="0.76" stop-color="#595b4e"/><stop offset="0.88" stop-color="#444641"/><stop offset="0.95" stop-color="#3c3e3c"/></radialGradient><radialGradient id="radial-gradient-32" cx="2002.9" cy="-92.66" r="315.59" gradientTransform="matrix(1, -0.04, 0.04, 1.03, -138.63, 119.04)" xlink:href="#radial-gradient-14"/><radialGradient id="radial-gradient-33" cx="1847.6" cy="-48.11" r="27.15" xlink:href="#radial-gradient-4"/><radialGradient id="radial-gradient-34" cx="1842.5" cy="-41.24" r="50" xlink:href="#radial-gradient-4"/><radialGradient id="radial-gradient-35" cx="1872.16" cy="-35.34" r="15.43" xlink:href="#radial-gradient-14"/><radialGradient id="radial-gradient-36" cx="1870.1" cy="-29.92" r="8.51" gradientTransform="matrix(1.02, -0.04, 0.04, 1.03, -135.09, 119.14)" gradientUnits="userSpaceOnUse"><stop offset="0.19" stop-color="#fff"/><stop offset="0.33" stop-color="#fbfbfb"/><stop offset="0.47" stop-color="#f0f0ef"/><stop offset="0.61" stop-color="#dcdddc"/><stop offset="0.74" stop-color="#c1c3c0"/><stop offset="0.88" stop-color="#9fa29d"/><stop offset="1" stop-color="#7a7e77"/></radialGradient><radialGradient id="radial-gradient-37" cx="1872.16" cy="-23.47" r="3.18" gradientTransform="matrix(1.02, -0.04, 0.04, 1.08, -135.2, 115.54)" gradientUnits="userSpaceOnUse"><stop offset="0.04" stop-color="#575a58"/><stop offset="0.25" stop-color="#515452"/><stop offset="0.53" stop-color="#414240"/><stop offset="0.86" stop-color="#262523"/><stop offset="1" stop-color="#181715"/></radialGradient><radialGradient id="radial-gradient-38" cx="1871.59" cy="-23.01" r="2.88" gradientTransform="matrix(1.02, -0.04, 0.04, 1.08, -135.2, 115.54)" gradientUnits="userSpaceOnUse"><stop offset="0.04" stop-color="#575a58"/><stop offset="1" stop-color="#181715"/></radialGradient><radialGradient id="radial-gradient-39" cx="1937.7" cy="1161.19" r="2.88" gradientTransform="matrix(0.59, -0.53, 0.71, 0.81, -193.73, 107.78)" xlink:href="#radial-gradient-3"/><radialGradient id="radial-gradient-40" cx="1839.96" cy="15.03" r="7.56" gradientTransform="matrix(1.02, -0.04, 0.04, 1.03, -135.09, 119.14)" gradientUnits="userSpaceOnUse"><stop offset="0" stop-color="#cbcdca"/><stop offset="0.19" stop-color="#c4c6c3"/><stop offset="0.48" stop-color="#b2b4b0"/><stop offset="0.81" stop-color="#949690"/><stop offset="1" stop-color="#7f817b"/></radialGradient><radialGradient id="radial-gradient-41" cx="1820.46" cy="14.22" r="5.57" gradientTransform="matrix(1.02, -0.04, 0.04, 1.03, -135.09, 119.14)" gradientUnits="userSpaceOnUse"><stop offset="0" stop-color="#cbcdca"/><stop offset="0.3" stop-color="#c8cac7"/><stop offset="0.51" stop-color="#c0c2be"/><stop offset="0.68" stop-color="#b1b3af"/><stop offset="0.84" stop-color="#9c9e9a"/><stop offset="0.99" stop-color="#82847e"/><stop offset="1" stop-color="#7f817b"/></radialGradient><radialGradient id="radial-gradient-42" cx="1888.03" cy="-109.33" r="33.38" gradientTransform="matrix(1.02, -0.04, 0.04, 1.03, -135.09, 119.14)" gradientUnits="userSpaceOnUse"><stop offset="0" stop-color="#cbcbbf"/><stop offset="0.34" stop-color="#c9c9bd"/><stop offset="0.5" stop-color="#c1c2b6"/><stop offset="0.62" stop-color="#b5b5aa"/><stop offset="0.72" stop-color="#a2a39a"/><stop offset="0.82" stop-color="#8a8b84"/><stop offset="0.9" stop-color="#6d6e69"/><stop offset="0.97" stop-color="#4b4d4a"/><stop offset="1" stop-color="#3c3e3c"/></radialGradient><radialGradient id="radial-gradient-43" cx="1977.72" cy="-34.57" r="312.93" xlink:href="#radial-gradient-14"/><radialGradient id="radial-gradient-44" cx="1924.88" cy="89.37" r="7.09" xlink:href="#radial-gradient-4"/><radialGradient id="radial-gradient-45" cx="1950.09" cy="88.45" r="11.19" xlink:href="#radial-gradient-4"/><radialGradient id="radial-gradient-46" cx="1933.17" cy="87.97" r="11.83" xlink:href="#radial-gradient-4"/><radialGradient id="radial-gradient-47" cx="1924.88" cy="89.52" r="6.97" xlink:href="#radial-gradient-4"/><radialGradient id="radial-gradient-48" cx="1933.18" cy="88.01" r="11.82" xlink:href="#radial-gradient-4"/><radialGradient id="radial-gradient-49" cx="1950.09" cy="88.74" r="11.08" xlink:href="#radial-gradient-4"/><radialGradient id="radial-gradient-50" cx="2100.55" cy="92.15" r="9.35" gradientTransform="matrix(1.02, -0.04, 0.04, 1.03, -135.09, 119.14)" gradientUnits="userSpaceOnUse"><stop offset="0" stop-color="#cbcdca"/><stop offset="0.24" stop-color="#c8cac6"/><stop offset="0.46" stop-color="#bdbfbb"/><stop offset="0.67" stop-color="#abada9"/><stop offset="0.88" stop-color="#92948f"/><stop offset="1" stop-color="#7f817b"/></radialGradient><radialGradient id="radial-gradient-51" cx="2089.13" cy="90.96" r="8.35" gradientTransform="matrix(1.02, -0.04, 0.04, 1.03, -135.09, 119.14)" gradientUnits="userSpaceOnUse"><stop offset="0" stop-color="#cbcdca"/><stop offset="0.25" stop-color="#c8cac7"/><stop offset="0.47" stop-color="#bec0bc"/><stop offset="0.67" stop-color="#acaeaa"/><stop offset="0.86" stop-color="#949691"/><stop offset="1" stop-color="#7f817b"/></radialGradient><radialGradient id="radial-gradient-52" cx="2116.63" cy="91.55" r="9.07" gradientTransform="matrix(1.02, -0.04, 0.04, 1.03, -135.09, 119.14)" gradientUnits="userSpaceOnUse"><stop offset="0" stop-color="#cbcdca"/><stop offset="0.21" stop-color="#c7c9c5"/><stop offset="0.45" stop-color="#babcb8"/><stop offset="0.69" stop-color="#a5a7a2"/><stop offset="0.94" stop-color="#878983"/><stop offset="1" stop-color="#7f817b"/></radialGradient><radialGradient id="radial-gradient-53" cx="2089.05" cy="91.27" r="8.43" xlink:href="#radial-gradient-51"/><radialGradient id="radial-gradient-54" cx="2100.25" cy="92.47" r="12.38" xlink:href="#radial-gradient-51"/><radialGradient id="radial-gradient-55" cx="2116.62" cy="91.73" r="11.66" xlink:href="#radial-gradient-51"/><radialGradient id="radial-gradient-56" cx="1893.49" cy="-109.07" r="24.21" xlink:href="#radial-gradient-14"/><radialGradient id="radial-gradient-57" cx="1842.97" cy="-41.54" r="49.36" xlink:href="#radial-gradient-4"/><radialGradient id="radial-gradient-58" cx="1774.47" cy="-32.72" r="26.24" gradientTransform="matrix(1.05, -0.04, 0.04, 1.09, -132.35, 114.58)" xlink:href="#radial-gradient-4"/><radialGradient id="radial-gradient-59" cx="1848.03" cy="-48.53" r="25.75" xlink:href="#radial-gradient-4"/><radialGradient id="radial-gradient-60" cx="1843.08" cy="66.94" r="14.48" gradientTransform="matrix(1.01, -0.1, 0.09, 1.03, -137.78, 111.56)" xlink:href="#radial-gradient-4"/><radialGradient id="radial-gradient-61" cx="1928.64" cy="-43.38" r="109.68" xlink:href="#radial-gradient-14"/><radialGradient id="radial-gradient-62" cx="1862.96" cy="-40.82" r="99.55" xlink:href="#radial-gradient-14"/><radialGradient id="radial-gradient-63" cx="1924.49" cy="-1.94" r="26.07" xlink:href="#radial-gradient-14"/><radialGradient id="radial-gradient-64" cx="1966.64" cy="-79.72" r="184.94" xlink:href="#radial-gradient-14"/><radialGradient id="radial-gradient-65" cx="2009.18" cy="-95.73" r="133.97" xlink:href="#radial-gradient-3"/><radialGradient id="radial-gradient-66" cx="2040.48" cy="-86.72" r="159.14" xlink:href="#radial-gradient-31"/><radialGradient id="radial-gradient-67" cx="1834.84" cy="-11.67" r="42.09" xlink:href="#radial-gradient-14"/><radialGradient id="radial-gradient-68" cx="1944.1" cy="32.14" r="35.79" xlink:href="#radial-gradient-3"/><radialGradient id="radial-gradient-69" cx="1941.63" cy="65.68" r="34.53" xlink:href="#radial-gradient-3"/><radialGradient id="radial-gradient-70" cx="2125.01" cy="-6.14" r="49.27" gradientTransform="matrix(1.02, -0.04, 0.03, 0.95, -134.61, 133.67)" xlink:href="#radial-gradient-3"/><radialGradient id="radial-gradient-71" cx="1943.09" cy="-10.2" r="60.37" xlink:href="#radial-gradient-3"/><radialGradient id="radial-gradient-72" cx="1835.89" cy="-12.28" r="14.46" xlink:href="#radial-gradient-4"/><radialGradient id="radial-gradient-73" cx="1845.99" cy="-34.23" r="9.7" xlink:href="#radial-gradient-4"/><radialGradient id="radial-gradient-74" cx="1856.66" cy="-30.71" r="73.75" xlink:href="#radial-gradient-3"/><radialGradient id="radial-gradient-75" cx="1889.32" cy="-66.74" r="50.55" xlink:href="#radial-gradient-14"/><radialGradient id="radial-gradient-76" cx="1874.98" cy="-28.83" r="24.5" xlink:href="#radial-gradient-14"/><radialGradient id="radial-gradient-77" cx="1891.74" cy="-55.12" r="23.05" xlink:href="#radial-gradient-14"/><radialGradient id="radial-gradient-78" cx="2090.25" cy="62.6" r="47.99" xlink:href="#radial-gradient-3"/><radialGradient id="radial-gradient-79" cx="1840.13" cy="14.68" r="6.93" xlink:href="#radial-gradient-40"/><radialGradient id="radial-gradient-80" cx="1820.66" cy="14.72" r="5.05" xlink:href="#radial-gradient-41"/><radialGradient id="radial-gradient-81" cx="1821.39" cy="-48.65" r="66.61" xlink:href="#radial-gradient-14"/><radialGradient id="radial-gradient-82" cx="2080.06" cy="-3.9" r="79.99" xlink:href="#radial-gradient-14"/><radialGradient id="radial-gradient-83" cx="1858.37" cy="48.8" r="112.86" xlink:href="#radial-gradient-14"/><radialGradient id="radial-gradient-84" cx="1924.73" cy="87.4" r="5.23" xlink:href="#radial-gradient-14"/><radialGradient id="radial-gradient-85" cx="1940.75" cy="86.02" r="15.93" xlink:href="#radial-gradient-14"/><radialGradient id="radial-gradient-86" cx="1955.02" cy="86.67" r="10.46" xlink:href="#radial-gradient-14"/><radialGradient id="radial-gradient-87" cx="1897.18" cy="-72.05" r="8.71" xlink:href="#radial-gradient-14"/><radialGradient id="radial-gradient-88" cx="1892.96" cy="-74.94" r="15.42" xlink:href="#radial-gradient-14"/></defs><title>anim_94</title><g class="cls-1"><g id="Layer_1" data-name="Layer 1"><path class="cls-2" d="M1924.58,87.52a36.46,36.46,0,0,0,3.05,8.66c1.77,3.36,7.4,7.49,7.68,11.17,0.38,5-6.08,15.37-9.39,18.42-3.08,2.84-14,6.27-12.94,12.46,0.72,4.21,8.38,6.14,10.29,2.88,3.68,2.55,6.79,2,11,1.77,1.58-.09,2.74-1.58,4.2-1.6s3.31,1.77,4.91,1.8c5,0.09,12.89-1.76,15-7,2.21-5.61-1.14-5.49-2.61-9.94-2.69-8.1,2.55-15.18,3.82-23.28,0.21-1.32-4.08-33.45.78-31.56-3.68-1.43-15.34,6.3-18.57,7.84Q1933.12,83.24,1924.58,87.52Z" transform="translate(-1686.52 77.14)"/><path class="cls-3" d="M1923.44,87.83c1.06,4.27,2.41,8.28,5.25,11.68,3.13,3.74,6.47,6.51,4.91,11.74a38,38,0,0,1-6,11.29c-2.35,3.2-5.14,4.72-8.48,6.72-3.67,2.2-10.46,7-5.93,11.77,2.76,2.89,8.53,3.34,11.12.08l-2,.53c4.22,2.55,8.76,2.36,13.45,1.38q0.65-.31,1.29-0.66a6.6,6.6,0,0,1,4.11,1c0.58,0.1,1.13.31,1.71,0.37a19.78,19.78,0,0,0,6.25-.69c3.72-.87,7.82-2.61,9.81-6.07,3.28-5.7-2.24-8.73-2.8-14.29-0.73-7.21,4.26-13.24,4.51-20.21a65.27,65.27,0,0,0-.69-7.9c-0.39-4.41-.75-8.83-0.84-13.26a46.24,46.24,0,0,1,.14-6c0.15-1.34.9-3.23,0.3-3.38l1.42-1.16c-4.44-1.11-9.86,2.5-13.52,4.53-7.74,4.28-15.7,8-23.62,12-1.37.68,0.7,0.93,1.39,0.58,6.31-3.15,12.84-6,19-9.38,3.84-2.12,10.78-7.68,15.31-6.56,0.66,0.16,2.68-.84,1.42-1.16-7.76-2-2.76,27.36-2.7,31.15,0.09,5.19-2.82,10.07-3.94,15.07a17.26,17.26,0,0,0,.18,9.51c0.7,2,2.4,3.39,3.07,5.3,1.72,4.88-3.69,8.78-7.56,9.92a18,18,0,0,1-5.21.82c-2.93-.18-2.49-1.11-4.58-1.5a6.07,6.07,0,0,0-3.58.27c-4.4,1.35-8.24,1.92-12.51-.65a1.93,1.93,0,0,0-2,.53c-3.23,4.06-9.17-2-7.78-5.78,1.12-3,4.91-4.83,7.55-6.34a25.16,25.16,0,0,0,9.77-9.5c2.35-3.81,5.89-9.37,4.28-14-0.94-2.7-3.47-4.73-5.22-6.87-2.77-3.38-4.06-7.24-5.1-11.43C1925.55,86.5,1923.26,87.09,1923.44,87.83Z" transform="translate(-1686.52 77.14)"/><path class="cls-3" d="M1923.55,140.91c-0.09-3.58.57-8.1,3.79-10.35C1923.37,133.33,1923.5,137.46,1923.55,140.91Z" transform="translate(-1686.52 77.14)"/><path class="cls-3" d="M1937.76,140.48a12.66,12.66,0,0,0,.31-8.71C1938.4,132.56,1937.86,140.09,1937.76,140.48Z" transform="translate(-1686.52 77.14)"/><path class="cls-3" d="M1955.09,125.46a9.58,9.58,0,0,0-6.52-4.68C1950.39,121.11,1954.27,124.15,1955.09,125.46Z" transform="translate(-1686.52 77.14)"/><path class="cls-3" d="M1933.5,104.53a7.94,7.94,0,0,0,6.88,3.31C1939,107.89,1934.36,105.64,1933.5,104.53Z" transform="translate(-1686.52 77.14)"/><path class="cls-3" d="M1958.54,105.58c-0.67,2.54-3,5.47-5.73,5.8C1956.42,110.92,1958,107.6,1958.54,105.58Z" transform="translate(-1686.52 77.14)"/><path class="cls-3" d="M1953.29,85.44c0.28,2.88,4,4.4,4.81,6.22C1957.2,89.76,1953.44,87,1953.29,85.44Z" transform="translate(-1686.52 77.14)"/><path class="cls-3" d="M1928.9,99a12.69,12.69,0,0,0,9.75,3.84A15.77,15.77,0,0,1,1928.9,99Z" transform="translate(-1686.52 77.14)"/><g class="cls-4"><path class="cls-5" d="M1924.58,87.52s2,9.63,7.27,14.78,3.53,5.3,1.44,9.1c-4,7.39-1.81,12.27-7.36,14.38s-18.69,12.08-10.13,15.61,7.48-.27,7.48-0.27,7.9,6,14.23-.53c0,0,6.4,6.23,17-.62s0.23-14.67.23-14.67-0.35-9.9,2.43-16.1,3.8-8.81.67-17.57c-2.91-8.13.3-15.6,1.95-19l0.55-1.13C1961.59,69,1924.58,87.52,1924.58,87.52ZM1956.74,99c-0.52,8.76-4.4,13-8,12s2.43,2.61,5.69.81,0.72-.13.5,0.41c-1.77,4.39.17,10-2.71,8.8s-5-3.41-6.09-1.19,4.44,2.57,7.32,6.75,1,9.33-3.37,9.15-6.67.55-9.36-2.9-4.25-2-4-.32c0.66,3.68.46,7-.85,7.62s-4.12-3.35-10.84-3.1c-1.13,0,1-6,3.59-6.53s-3-2.44-5.3,3.66-3.81,4.13-5.73,2.17c-0.93-.95-2.2-0.24-2.59-1.2s5.53-6.48,10.84-8.51c3.93-1.51,4.3-1.76,5.33-6.24s3.1-12.09,7.58-11.7,3.65-2.38,1.18-2.43-4.26,0-6-3.06c0,0,6.23,2,6.34.46s-0.27-2.52-6.45-3.46c-3.74-.58-5.43-5.21-6.18-8.08-0.33-1.66-.68-3.52,1.14-4.14,2.26-.83,5.4-0.2,7.85-0.85a48.06,48.06,0,0,0,10.59-3.84c1.17-.6,2.86-2.06,3.81-1a4.87,4.87,0,0,1,.82,2.4C1952.73,91.82,1957.26,90.22,1956.74,99Z" transform="translate(-1686.52 77.14)"/></g><g class="cls-6"><path class="cls-7" d="M1930.58,92.63c4.79-13.27,33.51-3.19,21.53,12.65-1,1.27-5.25.82-6,2.27-0.9,1.83,1.13,3.89.84,4.54,0.16-.35-0.43,4-0.42,3.94,0,0.46-3.09,1-3.15,2.44-0.13,3.35,4.67,5.74,4.17,9.09-1,6.37-3.85,2.41-7.93,2-6-.55-1.28-1.35-5.11,2.66-1,1.09-3.29,8.07-5.9,2.71-0.87-1.79,1.94-5.18,2.29-6.28,0.16-.49-1.85-1.33-1.46-2.5,0.46-1.38,1.84-1.75,2.25-3.31a25.3,25.3,0,0,1,6.72-11.54c2.58-2.71,5.29-1.44,5.12-5.78-0.29-7.26-15.78-5.12-13-12.91C1932.42,87.53,1929.3,96.2,1930.58,92.63Z" transform="translate(-1686.52 77.14)"/></g><path class="cls-8" d="M1923.29,137.94c-1.17,5.27,6.38,6.5,10.23,5.22C1932.26,138.92,1927.1,137.8,1923.29,137.94Z" transform="translate(-1686.52 77.14)"/><path class="cls-3" d="M1922.13,138c-1.1,6.18,7.35,7.24,11.61,5.94,0.42-.13,1.12-0.56.93-1.11-1.61-4.68-6.85-5.87-11.28-5.77-1.32,0-1.75,1.74-.19,1.71,3.59-.08,7.88.88,9.19,4.67l0.93-1.11c-3.32,1-9.71.27-8.86-4.5C1924.66,136.69,1922.32,137,1922.13,138Z" transform="translate(-1686.52 77.14)"/><path class="cls-9" d="M1918.45,138.59a6,6,0,0,0-5.27-1.8c-1.29,4.12,4.53,5.7,7.45,6a6.25,6.25,0,0,0-2.19-4.25C1917.11,137.38,1919.87,139.79,1918.45,138.59Z" transform="translate(-1686.52 77.14)"/><path class="cls-3" d="M1919.53,138.2a7.06,7.06,0,0,0-5.85-1.86c-0.32,0-1.51.21-1.63,0.65-1.17,4.33,4.4,5.86,7.64,6.28,0.37,0,2.16-.13,2.09-0.74-0.27-2.08-1.25-3.23-2.63-4.67l-2.16.77a6.57,6.57,0,0,1,.8.69l2.16-.77c-0.14-.11-0.28-0.23-0.42-0.35-0.46-.39-2.48.5-2.16,0.77,0.14,0.12.27,0.24,0.42,0.35,0.42,0.32,2.51-.4,2.16-0.77a6.58,6.58,0,0,0-.8-0.69c-0.42-.32-2.51.4-2.16,0.77a7.44,7.44,0,0,1,2.5,4.51l2.09-.74c-3-.38-8.36-1.77-7.27-5.82l-1.63.65a5.76,5.76,0,0,1,4.69,1.74C1917.8,139.37,1919.86,138.51,1919.53,138.2Z" transform="translate(-1686.52 77.14)"/><path class="cls-10" d="M1938.22,137.67a27.31,27.31,0,0,1-.78,3c-0.07.08,3.37,1.84,3.3,1.79,3.67,2.34,10-.19,13.16-2.09C1949.25,137.26,1943.6,136.91,1938.22,137.67Z" transform="translate(-1686.52 77.14)"/><path class="cls-3" d="M1937.06,137.75a24.93,24.93,0,0,1-.71,2.75,0.7,0.7,0,0,0,.22.83c5.29,4.5,12.36,2.92,17.85-.27,0.43-.25,1-1,0.36-1.39-5-3.12-10.68-3.62-16.47-2.88-1.29.16-1.73,2-.18,1.75,5.23-.67,10.32-0.34,14.9,2.49l0.36-1.39c-3.53,2-7.92,3.86-11.88,2.06a10,10,0,0,1-2.34-1.22l-0.44-.25q-0.66-.22.12-0.42a9.6,9.6,0,0,1,.54-2.23C1939.64,136.43,1937.29,136.68,1937.06,137.75Z" transform="translate(-1686.52 77.14)"/><path class="cls-11" d="M1913,137.09c3.85-1,6.81,2.06,7.69,5.75C1920.58,140.87,1914.56,132.65,1913,137.09Z" transform="translate(-1686.52 77.14)"/><path class="cls-12" d="M1923.29,137.94c3.92-.2,8.82,1.05,10.23,5.22C1932.9,139.16,1927.25,135.73,1923.29,137.94Z" transform="translate(-1686.52 77.14)"/><path class="cls-13" d="M1938.22,137.67c5.18-.91,11.27-0.35,15.68,2.68C1951.33,137.3,1941.36,133.42,1938.22,137.67Z" transform="translate(-1686.52 77.14)"/><g class="cls-14"><path class="cls-15" d="M1938.22,137.67a27.31,27.31,0,0,1-.78,3l0.07-.07s6.15,6,16.39-.23C1949.29,137.29,1943.91,136.86,1938.22,137.67Zm0.32,2.19c-0.19-1.47,1.48-1.95,4.23-1.91s7.92,1.39,7.82,2.53C1950.39,142.71,1939.05,143.75,1938.54,139.86Z" transform="translate(-1686.52 77.14)"/></g><g class="cls-14"><path class="cls-16" d="M1923.43,137.91v3.16s5,3.79,10.23,2C1932.42,139,1927.3,137.77,1923.43,137.91Zm5.48,4.45c-2.63-.06-5.21-1.9-5.09-2.82,0.16-1.25,2.46-1.58,5.76,0S1931.53,142.42,1928.9,142.36Z" transform="translate(-1686.52 77.14)"/></g><g class="cls-14"><path class="cls-17" d="M1918.45,138.59c-1.34-1.2-3.46-2.36-5.27-1.8-0.58,1.86,0,3.53,2.62,4.6a19.67,19.67,0,0,0,4.84,1.45A6.25,6.25,0,0,0,1918.45,138.59Zm-4.8-.3c-0.39-1.39,1.45-1.45,4.23.75S1914.83,142.46,1913.66,138.28Z" transform="translate(-1686.52 77.14)"/></g><path class="cls-18" d="M1819.19,83.55c1.68,9.43-.46,19.1,1,28.53,1.23,7.78,3.94,12.57,6.63,19.55,4.79,12.44-3.42,9.32-12,10.42-6.32.82-10.48,2-16.73,1.81-6.76-.2-12.7.2-7.75-8.91,4.67-8.58,10.09-5.82,8-18-3.06-18-18-31.07-20.11-49.5,2.2,1.72,7.75,1.31,10.59,3,4.4,2.68,6.08,6.29,11.66,7.56,2.62,0.6,6-.63,8.37,0,3.56,1,5.23,5,10.22,5.39C1820.87,93,1812.3,83,1819.19,83.55Z" transform="translate(-1686.52 77.14)"/><path class="cls-3" d="M1818,83.86c1.52,10-.63,20.28,1.34,30.28,1.49,7.59,6.46,14.37,7.56,21.92,0.74,5.07-3.37,4.91-7.25,5a69.6,69.6,0,0,0-8.21.84c-3.93.61-20.43,4.26-21.67-1.65s6.6-9.81,9.11-14.15c2.77-4.79.42-11.94-1.23-16.68-5.09-14.63-16.11-26.5-18.21-42.25l-2.05.87c4.35,2.57,9.12,1.61,13.32,5.07,3.24,2.67,6.1,5.38,10.51,5.77,2.56,0.23,5.29-.6,7.81.2,1.69,0.53,3,2.26,4.47,3.23,2.08,1.36,3.6,1.36,4.66,3.59,1.4,3-1.93-1.74.54-1.71,0.88,0,2.42-1.31.88-1.32-2.53,0-6.51,2.19-3.12,4.78s4.14-2.15,3.82-4.42a0.55,0.55,0,0,0-.45-0.33c-4-.63-6-3.79-9.5-5.13-3.86-1.46-7.91.66-11.81-1.25-3.31-1.62-5.51-4.8-8.73-6.54s-7.37-1.14-10.59-3c-0.54-.32-2.16.07-2.05,0.87,1.93,14.47,11.33,25.69,16.86,38.79,2.25,5.31,6.07,14.77,2.3,20.09-2.81,4-6.63,6.16-8.36,11.1-3.62,10.37,16.81,6.44,21.51,5.7,5-.79,10.52-0.34,15.44-1.52,2.72-.66,4.42-2.07,4.44-5,0-3.69-2.17-7.6-3.55-10.91a68,68,0,0,1-4-11.72c-2.22-10.25,0-20.78-1.52-31.1C1820.21,82.45,1817.91,83,1818,83.86Z" transform="translate(-1686.52 77.14)"/><path class="cls-3" d="M1787.41,92.17c1.55,2.51,5.3,3.21,7.85,2.07C1793.25,95.14,1788.55,93.92,1787.41,92.17Z" transform="translate(-1686.52 77.14)"/><path class="cls-3" d="M1792.29,100.94a6.46,6.46,0,0,0,8.11,1.39C1797.68,103.64,1794.32,102.55,1792.29,100.94Z" transform="translate(-1686.52 77.14)"/><path class="cls-3" d="M1794.45,104.95a4.87,4.87,0,0,0,5.08.52C1798.29,106.16,1795.38,105.54,1794.45,104.95Z" transform="translate(-1686.52 77.14)"/><path class="cls-3" d="M1797.41,113.44a5,5,0,0,0,5.6.64C1801.72,114.68,1798.46,114.19,1797.41,113.44Z" transform="translate(-1686.52 77.14)"/><path class="cls-3" d="M1798.1,116.52l3.19,0.85C1802,117.35,1797.62,116.18,1798.1,116.52Z" transform="translate(-1686.52 77.14)"/><path class="cls-3" d="M1819.68,93.25a15.35,15.35,0,0,1-5,9.12C1817.86,99.8,1819.06,96.56,1819.68,93.25Z" transform="translate(-1686.52 77.14)"/><path class="cls-3" d="M1823.3,124.91a16.45,16.45,0,0,0-5.3-5.68A31.67,31.67,0,0,1,1823.3,124.91Z" transform="translate(-1686.52 77.14)"/><path class="cls-3" d="M1798.69,144c-1.18-3.68-1.32-9.79,2.13-12C1796.28,135.06,1797.54,140.53,1798.69,144Z" transform="translate(-1686.52 77.14)"/><path class="cls-3" d="M1812.68,142.68a7.5,7.5,0,0,0,2.23-3.87C1815.06,138.15,1812,143.32,1812.68,142.68Z" transform="translate(-1686.52 77.14)"/><g class="cls-4"><path class="cls-19" d="M1822.64,124.53a20.8,20.8,0,0,0-1.77-10.37c-2.43-5.06,0-21.17-1.67-30.61a13.48,13.48,0,0,1-10-5.44s-12.82,3-19.37-7.3a49,49,0,0,1-8.26-3.13,2.81,2.81,0,0,1-3.21-.18,53.21,53.21,0,0,0,7,20.91c6.11,9.93,16.42,27.29,12.92,39.43,0,0-12.77,7.74-9.3,15.21,1.37,3,7.4,2.44,9.17.81,0,0,5.89,3.58,14.85-1.4,2.21-1.22,9.66.65,13.51-.64S1827.93,131.06,1822.64,124.53Zm1.24,7a11.23,11.23,0,0,1-3,5.29c-1.74,1.18-3.28.53-5.33,0.75-2.32.37-2.52,2.61-4.7,3.11-1.91.35-2.93-1.29-4.2-2.22s-4-1.39-4.77-2.77,0.14-3.64.51-4.77c-2.8-1.3-4.7,3.11-6,4.7s-5.24,3.41-4.69-.25c0.58-3.24,4.78-4.93,7.06-6.42,3.88-2.52-.8-7.61,2.39-10.67,0.37-.36,1-0.24,1.19-0.74,0.31-.68-0.43-1.2.06-1.86s1.4-.27,1.77-1a2.38,2.38,0,0,0-.35-2c-1-1.1-3.18-.29-4.41-0.93-0.91-.49-2.43-2.9-1.78-4a12.75,12.75,0,0,1,1.75-.72,1.62,1.62,0,0,0,.9-1.61c0.1-.86-0.22-0.81.22-1.51s1.44-.87,1.84-1.61c1.39-2.59-1.65-2.15-3.19-2.16-3.22,0-5.7-.91-5.66-4.64,1.48-.77,3.29-1.28,2-3.32-1.53,0-3,.34-4.42-0.6-2.34-1.61-4.12-5.56-5.53-8.06-1-1.75-3.6-6-2-8,2-2.58,8.46,2.07,10.55,3a29.21,29.21,0,0,0,5.56,1.9c1.8,0.36,4.11-.44,5.79.35,2.23,0.9,2.87,3.39,5.24,4.43,3.21,1.28,3.27,3.09,3.67,6.72,0.59,4.88,1.89,7.85-2.29,9.92-2.8,1.39-1.94,2.69.68,3a10.23,10.23,0,0,0,4.1-.71c0.52,2.92.33,5.44,1.26,8.21,0.31,1,1.18,2.47,1.08,3.45-0.22,1.55-.93.87-1.58,1.87C1815.4,121.1,1824.38,126.36,1823.88,131.55Z" transform="translate(-1686.52 77.14)"/></g><g class="cls-20"><path class="cls-21" d="M1790.43,86.94c4.54,2.85,5.53,3.42,8.45,6.81-0.92-1.07,4.55,6.94,4.19,5.44,1,4.17-2.59,6.86-.34,11.27,2.6,5.09,4.27-2.59,4.88,3.31,0.22,2.16-5,5.8-5.31,8.77-0.41,3.54.71,3.24,1.95,6.56,1.91,5.11.63,6.85,6.76,7.59,0.17,0,8.3-2.86,8.3-2.86,3.82-4.66-3.25-14.55-4.75-18.59a5.78,5.78,0,0,0,.19-4.72,3.8,3.8,0,0,0-2.86-3.49c-1.76-5.34-1.16-3.17-.84-8.83,0.76-13.55-6.43-11.94-16-16.92-2.31-1.2-4.41-6.77-7.78-3.19-2,2.14,1.37,7.65,3.18,8.85C1793,88.52,1788.05,85.37,1790.43,86.94Z" transform="translate(-1686.52 77.14)"/></g><path class="cls-22" d="M1788.64,138.6c-1.43,5.51,3.23,7.48,7.59,6.24-0.62-3.21-4-6.83-7.59-6.24C1788.27,140.05,1792.22,138,1788.64,138.6Z" transform="translate(-1686.52 77.14)"/><path class="cls-3" d="M1787.48,138.69c-0.55,2.38-.17,4.9,2,6.3a8.84,8.84,0,0,0,6.92.62,1.08,1.08,0,0,0,.94-1.08c-0.87-3.88-4.5-7.26-8.63-6.76a1.34,1.34,0,0,0-1.26.92c-0.24,1.67,2.09,1.35,3,.82a1.12,1.12,0,0,0,.76-1.34c-0.38-.79-1.85-0.49-2.48-0.4-1.25.18-1.76,1.88-.21,1.65l0.62-.08q0.71,0,.18-1.08c-0.53.45,0.67-1.16,0.46,0.25l-1.26.92c3.27-.39,5.9,2.8,6.55,5.72l0.94-1.08a5.89,5.89,0,0,1-5-.56c-1.63-1.2-1.65-3.19-1.23-5C1790.06,137.41,1787.72,137.69,1787.48,138.69Z" transform="translate(-1686.52 77.14)"/><path class="cls-23" d="M1797.52,139.65c-0.62,5.75,4.94,6,9.33,5.15C1806.53,140.55,1801.17,138.2,1797.52,139.65Z" transform="translate(-1686.52 77.14)"/><path class="cls-3" d="M1796.37,140c-0.47,6,5.9,6.11,10.26,5.29,0.26,0,1.41-.29,1.35-0.75-0.6-5.15-6.66-6.61-10.87-5.12-1.53.54-.09,0.87,0.8,0.55,3.42-1.21,7.39,1.8,7.78,5.19l1.35-.75c-4.07.77-8.8,0.15-8.39-5C1798.69,139,1796.43,139.26,1796.37,140Z" transform="translate(-1686.52 77.14)"/><path class="cls-23" d="M1797.52,139.65c-0.62,5.75,4.94,6,9.33,5.15C1806.53,140.55,1801.17,138.2,1797.52,139.65Z" transform="translate(-1686.52 77.14)"/><path class="cls-3" d="M1796.36,139.74c-0.5,6.34,6,6.73,10.69,5.84a1.08,1.08,0,0,0,.94-1.08c-0.57-4.88-6.43-7.13-10.68-5.62-1.36.48-1,2,.42,1.55,3.44-1.22,7.54,1,8,4.69l0.94-1.08c-3.7.7-8.34,0.4-8-4.47C1798.77,138.39,1796.44,138.71,1796.36,139.74Z" transform="translate(-1686.52 77.14)"/><path class="cls-23" d="M1797.52,139.65c-0.62,5.75,4.94,6,9.33,5.15C1806.53,140.55,1801.17,138.2,1797.52,139.65Z" transform="translate(-1686.52 77.14)"/><path class="cls-3" d="M1796.38,139.82c-0.48,6.09,5.74,6.38,10.28,5.52,0.34-.06,1.39-0.3,1.33-0.85-0.6-5.13-6.67-6.72-10.9-5.22-1.52.54-.11,1.1,0.85,0.75,3.41-1.21,7.36,1.67,7.76,5.08l1.33-.85c-3.9.73-8.77,0.34-8.37-4.78C1798.71,138.7,1796.43,139.16,1796.38,139.82Z" transform="translate(-1686.52 77.14)"/><path class="cls-24" d="M1814.74,139.39q-1.11,1.74-2.33,3.41c3.24-1.76,7.81-.36,11.3-0.52C1821.81,139.26,1817.79,139.35,1814.74,139.39Z" transform="translate(-1686.52 77.14)"/><path class="cls-3" d="M1813.67,139.37q-1.12,1.74-2.33,3.41c-0.58.8,1.2,0.64,1.52,0.49,3.18-1.52,7-.27,10.4-0.34,0.43,0,2-.39,1.51-1.1-2.2-3.09-6.13-3.13-9.58-3.09-0.86,0-2.43,1.32-.89,1.3,3.08,0,6.38-.08,8.35,2.68l1.51-1.1c-4.12.09-8.29-1.16-12.2,0.7l1.52,0.49q1.21-1.67,2.33-3.41C1816.37,138.54,1814.08,138.74,1813.67,139.37Z" transform="translate(-1686.52 77.14)"/><g class="cls-14"><path class="cls-25" d="M1788.64,138.6a6.48,6.48,0,0,0,.35,4.47c1,2.23,4.73,2.48,7.24,1.77C1795.55,141.31,1792.22,138,1788.64,138.6Zm3.77,5.71a5.65,5.65,0,0,1-1.81-.46,2.51,2.51,0,0,1-.79-0.62,5.42,5.42,0,0,1-.72-1,3.71,3.71,0,0,1-.07-1.12,1.64,1.64,0,0,1,.84-1.78c1.61-.46,3.15,1.5,3.75,2.69S1794,144.53,1792.41,144.31Z" transform="translate(-1686.52 77.14)"/></g><g class="cls-14"><path class="cls-26" d="M1797.52,139.65a35.53,35.53,0,0,0,.83,4.33,13.25,13.25,0,0,0,8.5.83C1806.53,140.59,1801.14,138.21,1797.52,139.65Zm7.15,4.05c-0.46.61-1.73,0.48-2.38,0.54-1.2.11-2.64,0-3.32-1.15-0.43-.75-1.49-2.54-0.48-3.23,0.57-.37,1.92-0.07,2.58,0a4.62,4.62,0,0,1,2,.91C1803.72,141.32,1805.39,142.7,1804.67,143.7Z" transform="translate(-1686.52 77.14)"/></g><g class="cls-14"><path class="cls-24" d="M1814.74,139.39s-1.24,2-2.33,3.41l0.61-.33c1.74-1,6.76,0,10.69-.2C1821.78,139.22,1818.26,139.35,1814.74,139.39Zm4.05,2.14a10.63,10.63,0,0,1-2.28-.16,3.27,3.27,0,0,0-1.36,0c-0.35.12-.83,0.54-1.12,0.29s0.92-1.39,1.34-1.51a6.65,6.65,0,0,1,2.61,0,5.35,5.35,0,0,1,2.22.55C1821.26,141.41,1819.27,141.52,1818.79,141.54Z" transform="translate(-1686.52 77.14)"/></g><path class="cls-27" d="M1753.47-40.32c-1.57-6.5,1.62-11.88-2.23-18.21-3.73-6.13-13.86-8.29-16.29-15.31-1.24,6.52-2.43,14.06-1,20.61,1.77,8.08,13.76,12.5,13.54,20.07C1750.62-34.14,1753.6-36.77,1753.47-40.32Z" transform="translate(-1686.52 77.14)"/><path class="cls-3" d="M1754.62-40.63c-1.34-7.17,1.56-14.63-4.08-20.52-4.55-4.75-11.74-6.53-14.44-13-0.2-.49-2.19,0-2.27.51-1.47,7.86-3.82,18.24,1.18,25.27,3.6,5.06,11.06,8.7,11.35,15.52,0,0.41,1.44,0,1.54,0,3.63-1.39,6.42-3.6,6.72-7.73,0-.32-2.24-0.07-2.29.61-0.24,3.3-1.74,5.25-5.22,6.59l1.54,0c-0.26-6.08-6.28-9.63-9.93-13.78-6.45-7.32-4.27-18-2.63-26.8l-2.27.51c2.39,5.73,8.28,7.89,12.8,11.59,7.49,6.13,4.18,13.74,5.71,21.93C1752.42-39.54,1754.72-40.06,1754.62-40.63Z" transform="translate(-1686.52 77.14)"/><path class="cls-3" d="M1754.62-40.63c-1.34-7.17,1.56-14.64-4.09-20.54-4.55-4.75-11.74-6.53-14.43-13-0.23-.54-2.18,0-2.28.5-1.42,7.62-3.76,17.94.87,24.86,3.55,5.31,11.36,8.94,11.66,15.94,0,0.45,1.43,0,1.55,0,3.65-1.4,6.41-3.66,6.71-7.77,0-.39-2.24-0.11-2.29.61-0.24,3.28-2.06,5.33-5.24,6.55h1.55c-0.26-6.11-6.3-9.62-9.94-13.79-6.43-7.37-4.27-17.94-2.62-26.77l-2.28.5c2.39,5.73,8.28,7.9,12.81,11.6,7.49,6.13,4.18,13.73,5.71,21.92C1752.43-39.47,1754.74-40,1754.62-40.63Z" transform="translate(-1686.52 77.14)"/><path class="cls-28" d="M1749.78-40.21c-10.54-3-13.27-13.77-10.8-23.35,3.37,10.76,14.09,14.55,10.25,27.8C1749.41-37.24,1749.57-38.72,1749.78-40.21Z" transform="translate(-1686.52 77.14)"/><path class="cls-3" d="M1749.93-40.31c-9.92-3-13.35-14-10.76-23.27-0.82,3,4.05,7.34,5.49,9.45,4,5.88,6.4,10.83,4.37,18.41,3.45-13.39-6.52-16.51-9.86-27.9,1.3,4.46-2.33,10,.74,15.69C1742.17-43.74,1745.68-41.52,1749.93-40.31Z" transform="translate(-1686.52 77.14)"/><path class="cls-3" d="M1754.62-40.63c-1.35-7.22,1.58-14.63-4.1-20.58-4.52-4.73-11.74-6.52-14.42-12.94-0.31-.74-2.16-0.25-2.29.45-1.39,7.43-3.65,17.61.63,24.52,3.45,5.56,11.61,9.18,11.92,16.33,0,0.6,1.38.25,1.6,0.16,3.61-1.38,6.37-3.73,6.66-7.77,0.07-.92-2.23-0.48-2.29.29-0.24,3.34-2.19,5.36-5.28,6.54l1.6,0.16c-0.26-6.11-6.28-9.67-9.95-13.83-6.45-7.3-4.24-17.9-2.6-26.68l-2.29.45c2.4,5.77,8.26,7.93,12.82,11.65,7.39,6,4.19,13.79,5.7,21.87C1752.48-39.23,1754.78-39.79,1754.62-40.63Z" transform="translate(-1686.52 77.14)"/><path class="cls-28" d="M1749.78-40.21c-10.54-3-13.27-13.77-10.8-23.35,3.37,10.76,14.09,14.55,10.25,27.8C1749.41-37.24,1749.57-38.72,1749.78-40.21Z" transform="translate(-1686.52 77.14)"/><path class="cls-3" d="M1749.93-40.31c-9.92-3-13.35-14-10.76-23.27-0.82,3,4.05,7.34,5.49,9.45,4,5.88,6.4,10.83,4.37,18.41,3.45-13.39-6.52-16.51-9.86-27.9,1.3,4.46-2.33,10,.74,15.69C1742.17-43.74,1745.68-41.52,1749.93-40.31Z" transform="translate(-1686.52 77.14)"/><path class="cls-29" d="M1749.92-40.53c0.32-9.14-5-11.57-9-18.67-1.35,7.47,2.64,14.87,9,18.67C1750.09-45.28,1743.32-44.46,1749.92-40.53Z" transform="translate(-1686.52 77.14)"/><g class="cls-4"><path class="cls-30" d="M1746.86-63c-8.08-5.85-11.13-8.6-11.91-10.86,0,0-4.56,22,2.41,28.51s10.27,7.69,10.13,12.17c0,0,6.17-1.71,6-7.16,0,0-.95-0.42-0.19-5.45S1754.94-57.13,1746.86-63Zm-12.35,6.86a40.76,40.76,0,0,1,.71-5.71c0.22-1.69.94-4.6-.12-6.06h0.09c3.18,1.84,1.42,9.09,1.44,12.07,0,4.1.66,8.28,3.69,11.24C1736.63-45.38,1734.61-53.14,1734.51-56.13Zm17,6.84a10.64,10.64,0,0,0-3.47-7.34c-3.13-2.87-7.93-5.2-9.53-9.55-0.09-.09-0.11-0.17.06-0.06C1745.92-63.46,1752.82-58.09,1751.52-49.29Z" transform="translate(-1686.52 77.14)"/></g><path class="cls-31" d="M2032.05-.51c5,4.6,2.85,13.28,2.58,19.17A64.38,64.38,0,0,0,2037.74,42c2.36,7.48,5.66,20.94-.17,28.07,8.08-9.88-7.91-26.68-8.6-36.58S2028.63,8.7,2032.05-.51Z" transform="translate(-1686.52 77.14)"/><path class="cls-3" d="M2031.87-.43c7.29,7.43,1.45,26,3.59,35.69,2.59,11.77,8.36,22.59,2,34.69,6.3-12.39-5.77-22.08-7.92-33.15-1.74-9-1.18-28.67,2.58-37.13-3.87,8.87-5.06,28.48-2.79,38.2,1.3,5.55,5.28,9.53,7.34,14.7,2.16,5.44-1.42,13.53.57,17.65-0.21-.44,3.49-12.25,3.5-14.34,0-7.61-3.45-13.65-5-20.88C2033.47,24.42,2039.4,7.45,2031.87-.43Z" transform="translate(-1686.52 77.14)"/><g class="cls-32"><path class="cls-33" d="M2034.58,45.09c-8.28-12.54,8.95-35.1-2.53-45.6-3.14,9-3.46,22.82-3,32.42,0.35,7.08,2.7,11,6,17.1,1.09,2,3.83,21.95,2.45,21.17,0.37,0.21,2.57-8.49,2.59-9.45,0.16-5.76-2.32-10.79-5.49-15.63C2032.83,42.45,2037.43,49.46,2034.58,45.09Z" transform="translate(-1686.52 77.14)"/></g><g class="cls-34"><path class="cls-35" d="M2036.44,40.95c-0.7-2.32-.49-5.92-2.37-7.77-1-.95.16,7.31,0,6.6,0.91,3.47,3.85,5.79,5,9.15a29.67,29.67,0,0,0-2.56-8C2035.94,39.3,2037.32,43.73,2036.44,40.95Z" transform="translate(-1686.52 77.14)"/></g><path class="cls-36" d="M2030.17,90.16c-3-10.69-7.41-19.61-5.68-30.68,0.82-5.22.82-10.64,1.76-15.91,1.53-8.65,5.33-16.57,6.35-25.55,4.1-35.88-2.48-74.8-42.25-85.43-15.54-4.15-28.7-.42-44,1.72-7.88,1.1-16,1-23.83,2.72s-14.31,6.17-22.06,7.56c-17.93,3.21-32.53-12.36-50.26-9.46-3.57.58-7.53,3.69-11.23,3.4s-8.53-4.16-12.55-5.29c-10.73-3-18.84,3.57-16.89-9.77-16.35,2.4-25,24.92-39.49,30.61-8,3.14-14.2,1.37-20.55,8.77-8.62,10-5.54,20.65-7.54,32.42-1.23,7.23-6.74,10.57-8.38,15.95-0.78,2.57,2.57,4.73.56,8.48-2.92,5.45-7.6,2-10.83,3.52-6.36,2.92-1,7.39-1.84,14-0.77,6-10.34,19.94-15.74,10-1.74,4.81,2.16,7.91,1.8,12.84-0.43,5.9-5.06,8.43,1.76,13.76,3.5,2.73,7.73,1.32,11.26,2.85s3,5,8.43,5.69c3.86,0.5,8.07-1.14,11.89-1.64,7-.91,9-1.46,14.32-6.47,3.33-3.11,11.62-12.18,17.07-11.1,0.67,0.13,6.32,4.37,7.8,5.05,6.44,3,11.89,8.87,18.67,10.44,4.15,1,6.93.67,10.4,1.9,2.65,0.93,12.79,3.24,14.54,4.9,5.94,5.62,9,29.21,8,36.75-1.11,7.78-7.81,8.86-10.37,15.65-2.87,7.62,1.9,7,7.32,9,7.25,2.74,8.8,1.19,17.63-.05,6.06-.85,12.83,1.44,14.42-6.73,1.12-5.75-4.27-9.19-5.15-13.95-0.77-4.13.82-11.88,1.83-16,2.73-11.06,4.58-22,7.63-33.36,26.87,19.12,89.83,19.1,105-15.57-5,13.15,7.59,24.07,17.9,29.56,7.56,4,12.06,8.35,12.75,17.87,0.48,6.6-2.05,12.41-6.59,17.18-2.51,2.64-6.66,3.76-8.29,7.41-4.35,9.71,4.86,8.37,10.83,9.1,2.76,0.34,3.91,2.27,7.22,2,2.79-.22,4.52-2.69,6.87-3.24,1.94-.46,5,0.24,7.49-0.11,15.3-2.14,3.88-10.24,3.57-19.51-0.43-13,12.47-17.08,8.45-31.32C2026.81,78.27,2033.53,102.05,2030.17,90.16Z" transform="translate(-1686.52 77.14)"/><path class="cls-3" d="M2031.31,89.86c-2-7-4.83-13.8-5.76-21-1-7.52.46-16.15,1.55-23.65,1.05-7.26,3.84-14.07,5.52-21.18a96.41,96.41,0,0,0,2.06-18.38c0.75-19.36-2-40.55-14.84-55.94a54.18,54.18,0,0,0-25.12-16.59c-13-4.24-26-2.92-39.25-.76-13.74,2.24-28.25,1.67-41.31,6.92-7.87,3.16-15.16,6.19-23.83,4.66-6.33-1.12-12.23-3.78-18.22-6-5.72-2.11-11.65-3.9-17.81-3.72a21.88,21.88,0,0,0-6.59,1.09c-1.95.67-4,2.13-6.07,2.4-2.7.35-5-.5-7.27-1.67-5-2.55-9.24-4.22-14.93-4.31-2,0-4.81.51-6.7-.36-3-1.41-2.41-5.25-2.06-8,0.06-.48-0.66-0.49-1-0.43C1799-75.21,1792-66.8,1785-59.12c-4.44,4.92-9.16,10.22-15.44,12.78-5.74,2.35-12.23,2.07-17.45,5.76s-8.31,9.5-9.51,15.53c-1.44,7.21-.21,14.86-2.15,22-1.44,5.29-8.18,10-8.17,15.55,0,4.32,4.73,9.11-4.61,9.81-1.81.13-3.23-.16-5,0.58-5.76,2.46-2.76,7.24-2.38,11.94,0.27,3.39-1,6.44-2.78,9.26C1715.13,48,1710,52,1706.8,46.72c-0.35-.58-2.06,0-2.21.59-0.69,2.64-.23,4.58.6,7.13a15,15,0,0,1,.17,10.09c-1.39,4.45-.67,7.59,3.69,10.18,2.54,1.51,5.23,1.3,8,1.78,4,0.67,4.56,3.1,7.4,5.05,4.65,3.2,11.29.5,16.22-.29,4.45-.72,8.42-1.32,12.12-4.09,4.44-3.32,7.89-7.77,12.43-11,1.69-1.2,4.18-3,6.39-2.43a11.46,11.46,0,0,1,2.69,1.78c1.58,1.08,3.14,2.2,4.81,3.14,5.7,3.21,11.13,8.12,17.44,10.1,3.35,1.05,6.9,1.05,10.3,1.9,2.29,0.57,4.56,1.29,6.83,1.92,5.26,1.48,9.24,2.29,11.66,7.55a66.18,66.18,0,0,1,5.26,30.79c-0.52,6.16-4.79,8.65-8.25,13.09-2.1,2.71-4.95,8-1.62,10.79,1.3,1.07,3.22,1.34,4.79,1.83,2.47,0.77,4.86,1.83,7.44,2.16,5.39,0.71,10.84-1.45,16.21-1.67,3.74-.16,8.11,0,10.75-3.12,4.51-5.39.11-10.45-2.28-15.41-3.21-6.66.08-15.54,1.65-22.32,2.3-9.88,4.16-19.86,6.75-29.67l-2.21.59c16.62,11.57,39.22,14.5,59,12.42,19.14-2,39.82-10,48.28-28.58l-2.28.31c-2.5,7.42-.09,14.36,5,20,5.52,6.15,13.07,8.64,19.18,13.86,6.61,5.65,8.18,15.63,4.76,23.47-2.13,4.89-5.58,7.5-9.66,10.63a10.84,10.84,0,0,0-4.62,7.56c-0.38,4.76,4.29,5.37,8,5.68a26.11,26.11,0,0,1,5.41.66c1.59,0.47,3,1.4,4.65,1.64,2.6,0.38,4.26-.72,6.5-1.75,4.28-2,8.7-1,13.18-2.2,1.77-.49,4-1.19,5.11-2.74,2.77-3.7-1.67-9.42-2.77-13-2.58-8.39,2.53-14.42,6.14-21.39,3.09-6,2.33-11.16.59-17.38l-2.29.61q1,3.43,1.94,6.86l2.29-.61c-0.33-1.14-.65-2.29-1-3.43-0.21-.74-2.5-0.12-2.29.61,0.32,1.14.65,2.29,1,3.43,0.21,0.74,2.49.12,2.29-.61q-1-3.44-1.94-6.86c-0.21-.74-2.49-0.12-2.29.61,1.28,4.58,2.45,8.94.91,13.65-1.76,5.34-5.91,9.51-7.57,14.91-1.71,5.55-.19,10.2,2,15.32,0.77,1.82,2.07,4.24,1.42,6.27-1.6,5-10.13,2.49-14,3.31-4.22.9-4.78,3.59-10.46,2.27a40,40,0,0,0-6.52-1.31c-2.42-.17-6.47,0-7.76-2.62-2.09-4.17,2.83-8.44,5.74-10.45,9.85-6.79,13.8-21.87,5.72-31.63-4.6-5.55-12.08-7.85-17.54-12.41-7.07-5.9-12-14-8.89-23.32,0.26-.76-2-0.32-2.28.31-8.38,18.41-29.09,25.8-48,27.31-18.44,1.48-39.35-1.56-54.83-12.33-0.53-.37-2-0.13-2.21.59-2,7.69-3.63,15.46-5.31,23.23-1.4,6.49-3.34,13-4.09,19.56-0.61,5.42.63,8.74,3.28,13.35,1.64,2.85,2.89,6.43,1,9.54-2.38,3.86-6.94,3.1-10.84,3.42-6.23.52-11.38,2.51-17.58,0.52-5-1.61-10.39-2.33-7.83-8.92,1.9-4.87,6.89-7.25,9.18-11.82,1.65-3.3,1.5-7.18,1.32-10.78-0.46-8.91-1.63-19.71-6.27-27.54-1.88-3.18-4.4-4-7.84-5A97.48,97.48,0,0,0,1806.29,79c-3.49-.57-6.85-0.79-10.15-2.22-3.5-1.51-6.52-3.93-9.67-6-3.84-2.54-8-5.31-12-7.5-6-3.27-13.09,3.92-17.08,7.73a76.93,76.93,0,0,1-5.88,5.42c-3.45,2.67-7.15,3.05-11.3,3.76-4.73.8-10.74,3.25-14.72-.53-1.62-1.54-2.51-3-4.7-3.83-3.58-1.31-7.18-.4-10.48-2.7s-4-4.82-2.83-8.46c0.73-2.38,1.44-4.57,1.09-7.09-0.54-3.81-2.73-6.58-1.69-10.59l-2.21.59c5.33,8.7,13.89-.45,16.62-6.43a13.44,13.44,0,0,0,1.39-6.31,23.14,23.14,0,0,0-.72-4.23c-0.66-2.85-1.36-4.15,1.65-5.92,3.9-2.29,9.23,0,11.67-5.15,1.43-3-.53-4.71-0.54-7.62,0-3.53,3.5-6.74,5.33-9.58,4.1-6.37,3.62-13.85,4.07-21.13,0.58-9.32,3.82-19.84,13.55-23.31,5.75-2.05,11.73-2.24,17-5.57,12.4-7.78,19.26-25.54,34.63-28.27l-1-.43c-0.35,2.77-1,6.67,1.76,8.44,2.4,1.55,6.23.78,8.89,0.86a23,23,0,0,1,9.59,2.12c2.69,1.29,5.32,3.18,8.27,3.83,4.64,1,8.45-1.91,12.79-2.93,13-3,25.49,6.23,37.82,8.86a33.52,33.52,0,0,0,15.53-.24c6.74-1.75,12.82-5.39,19.61-7,8-1.9,16.34-1.65,24.43-2.79,7.29-1,14.52-2.54,21.86-3.16,14.52-1.23,29.48,2.41,41.07,11.47C2027-43.67,2032.25-21.56,2032.5-1a139.4,139.4,0,0,1-1,19.18c-1,8.19-4.34,15.79-6,23.83a122,122,0,0,0-1.56,13.24c-0.35,3.61-1,7.15-.89,10.78,0.29,8.45,3.7,16.42,6,24.44C2029.24,91.21,2031.52,90.58,2031.31,89.86Z" transform="translate(-1686.52 77.14)"/><path class="cls-37" d="M1732.26,22.36c10.82-8.33-2.87-10.74-7.67-14.52C1721,5,1718.15-4.33,1714.66-5.78c0.93,0.39,2.84,39.51,17.6,28.13h0Z" transform="translate(-1686.52 77.14)"/><path class="cls-3" d="M1733.18,22.55c2-1.61,4.9-4,4.18-6.92-0.64-2.56-4-4-6-5.12-3.7-1.92-6.46-3.39-8.73-7-2-3.26-3.52-7.82-7-9.8-0.49-.28-2.63.32-2,1,1.3,1.37,1.11,6.91,1.42,8.7,0.86,5,1.86,10.23,4,14.89,3.51,7.61,9,8.17,15.38,3.34l-1.84-.39-2.45,1.89L1732,23.5l1.22-.94c1-.79-1.24-0.85-1.84-0.39l-1.22.94c-1,.8,1.25.85,1.84,0.39l2.45-1.89c1-.8-1.25-0.84-1.84-0.39-3.55,2.7-6.54,3.43-9.42-.35-2.35-3.08-3.46-7.21-4.38-10.91s-1.52-7.33-2.07-11c-0.18-1.19-.08-4.22-1-5.16l-2,1c5.52,3.13,5.94,11.34,11.61,14.71,2.26,1.34,4.81,2.22,7,3.72,4.23,2.92,2.51,6.07-1,8.95C1730.33,23,1732.6,23,1733.18,22.55Z" transform="translate(-1686.52 77.14)"/><path class="cls-38" d="M1709.37,50.56c5.73,3.23,12-9.33,12.47-13.42,1.4-11-3.69-8.65-11.17-12.24-6.35-3-11.64-9.35-14.93-15.41-1.07-2-5.47-15-5.91-14.72-3.85,2.74-1.47,17.42-.71,21.38A58.84,58.84,0,0,0,1696,34.27c2.87,5,8,13.26,13.36,16.28h0Z" transform="translate(-1686.52 77.14)"/><path class="cls-3" d="M1708.29,50.94c9.92,4.36,20.59-18.12,12.06-23.23-3.26-2-7.27-2.28-10.59-4.28a35.69,35.69,0,0,1-12.5-13.59A70.63,70.63,0,0,1,1693.7,1c-0.49-1.33-1.41-5.91-2.78-6.57a2.52,2.52,0,0,0-2.11.48c-2.55,2.31-2.32,6.72-2.22,9.85a70.34,70.34,0,0,0,2,14.32,66.3,66.3,0,0,0,8.66,19.46c3,4.76,6.48,9.84,11.49,12.67l2.16-.76-0.83-.46-2.16.76,0.41,0.23c0.56,0.31,2.38-.63,2.16-0.76l-0.41-.23c-0.55-.31-2.39.63-2.16,0.76l0.83,0.46c0.55,0.31,2.39-.63,2.16-0.76-9.78-5.52-16.67-19.9-19.57-30.27a70.52,70.52,0,0,1-2.19-12.52c-0.34-3.68-1.31-10.18,1.77-13l-2.11.48c1.13,0.55,1.88,4.34,2.29,5.45,1,2.58,1.82,5.22,2.91,7.75a35.46,35.46,0,0,0,14.29,16.24c4.33,2.44,11.77,2.36,12.6,8.25a16.88,16.88,0,0,1-1.71,9.27c-1.21,2.66-4.7,9.84-8.69,8.08A3,3,0,0,0,1708.29,50.94Z" transform="translate(-1686.52 77.14)"/><path class="cls-3" d="M1755.84,22.57c1.48-11.41,16.23-12.9,17.66-.56C1772.19,9.17,1757.57,11.29,1755.84,22.57Z" transform="translate(-1686.52 77.14)"/><g class="cls-32"><path class="cls-39" d="M1757.15,22.63c5.78-6.12,11.89-9.65,16.47.14C1768.59,24.89,1762,25.5,1757.15,22.63Z" transform="translate(-1686.52 77.14)"/></g><path class="cls-40" d="M1758,22.52c4.92-5.2,10.13-8.22,14,.12A16.57,16.57,0,0,1,1758,22.52Z" transform="translate(-1686.52 77.14)"/><path class="cls-3" d="M1759.08,22.44c1.67-1.73,3.7-4,6.2-4.29,2.91-.29,4.49,2.47,5.65,4.79l0.74-.59a15.24,15.24,0,0,1-12.55-.23c-0.61-.29-2.44.66-2.15,0.79a19,19,0,0,0,15.5,0c0.12,0,.87-0.33.74-0.59-1.56-3.14-3.76-5.85-7.57-5.27-3.5.53-6.28,3.08-8.64,5.53C1756.52,23.1,1758.68,22.86,1759.08,22.44Z" transform="translate(-1686.52 77.14)"/><path class="cls-41" d="M1768.74,20.52a3.3,3.3,0,1,1-6.59.24,3.3,3.3,0,1,1,6.59-.24C1768.81,22.45,1768.67,18.57,1768.74,20.52Z" transform="translate(-1686.52 77.14)"/><path class="cls-42" d="M1767.58,20.61c0,1.26-.56,2.67-2,2.59s-2.4-1.79-2.2-3.23a2,2,0,0,1,2.49-1.81c1.37,0.4,1.73,1.74,1.78,3l2.31-.19q0-.56,0-1.12l-2.31.19,0,0.56c0,1.17,2.35.8,2.31-.19l0-.56c0-1.17-2.35-.8-2.31.19q0,0.56,0,1.12c0,1.17,2.35.8,2.31-.19-0.07-2.28-1.08-4.18-3.55-4.5a4.64,4.64,0,0,0-5.34,3.68c-0.82,6.05,8.88,6.07,8.87.27C1769.9,19.25,1767.58,19.62,1767.58,20.61Z" transform="translate(-1686.52 77.14)"/><g class="cls-14"><path class="cls-43" d="M1767.15,21.08c0.19,5.48-4.58.17-4.52,0.16s4.33-5.64,4.52-.16C1767.2,22.41,1767.1,19.74,1767.15,21.08Z" transform="translate(-1686.52 77.14)"/></g><g class="cls-6"><path class="cls-44" d="M1769,18.43c3.56,4.07-2.71,2.45-2.63,2.38-0.09.08-.91-6.45,2.63-2.38h0Z" transform="translate(-1686.52 77.14)"/></g><path class="cls-45" d="M1768.25,19.1l-0.41,1.8q-2.69-.37-1.26-2.66l1.66,0.86h0Z" transform="translate(-1686.52 77.14)"/><path class="cls-3" d="M1759.44,24.94c0,3.18,3.94,3.18,5.75,3.21C1763.3,28.1,1759.48,26.93,1759.44,24.94Z" transform="translate(-1686.52 77.14)"/><path class="cls-3" d="M1757,26.19c0.24,5.15,6.71,5.37,10,5C1763.61,31.49,1757.13,30.28,1757,26.19Z" transform="translate(-1686.52 77.14)"/><path class="cls-3" d="M1766.29,29.29c4.34,0.26,7.7-3.33,9.12-7.09C1774.4,25,1769.71,29.49,1766.29,29.29Z" transform="translate(-1686.52 77.14)"/><path class="cls-3" d="M1767.75,32.7a7.24,7.24,0,0,0,5.64-3.47C1772.61,30.43,1769.33,32.66,1767.75,32.7Z" transform="translate(-1686.52 77.14)"/><path class="cls-3" d="M1757.33,32.74c5.67,2.15,9.7,3.34,15.78,1.51C1768.09,35.76,1762,34.66,1757.33,32.74Z" transform="translate(-1686.52 77.14)"/><path class="cls-3" d="M1724.3,25.06c4.18,3.18,9.46,1.31,12.61-2.29C1734.25,25.86,1727.81,27.73,1724.3,25.06Z" transform="translate(-1686.52 77.14)"/><path class="cls-3" d="M1737.73,9.72c1.07-.88,2.77,4.72,2.77,4.76C1740.27,12.66,1739.13,8.52,1737.73,9.72Z" transform="translate(-1686.52 77.14)"/><path class="cls-3" d="M1726.26,28.77a10.28,10.28,0,0,0,12.06-3.08C1735.81,28.69,1729.89,30.54,1726.26,28.77Z" transform="translate(-1686.52 77.14)"/><path class="cls-3" d="M1740,23.56a7.75,7.75,0,0,0,1.77-6.32C1741.86,17.92,1740.56,23.06,1740,23.56Z" transform="translate(-1686.52 77.14)"/><path class="cls-3" d="M1706.85,54c0.09,1.34,2.73,1.8,3.4,2.08C1711.54,56.55,1706.85,53.91,1706.85,54Z" transform="translate(-1686.52 77.14)"/><path class="cls-3" d="M1714.45,55.62c5.43-.85,10.86-4.69,11.83-10.39C1725.54,50.41,1719.45,54.79,1714.45,55.62Z" transform="translate(-1686.52 77.14)"/><path class="cls-3" d="M1721.95,53.31c4.21-1.56,6.51-6,6.46-10.32C1728.49,46.46,1725.36,52.1,1721.95,53.31Z" transform="translate(-1686.52 77.14)"/><path class="cls-3" d="M1723,29.4c3.06,6.51,1.27,14.62-2.94,20.19C1724.84,43.37,1726.24,36.27,1723,29.4Z" transform="translate(-1686.52 77.14)"/><path class="cls-3" d="M1722,26.38c3.27-1.22,5.17,8.95,5.46,10.34C1727,35,1726,24.84,1722,26.38Z" transform="translate(-1686.52 77.14)"/><path class="cls-3" d="M1720.63,76.7c7.32-2.24,14.56,2.26,22-.62C1748,74,1751,68.89,1757,68.2c-6.9.83-10.43,6.58-16.73,8.46C1733.76,78.6,1726.86,74.94,1720.63,76.7Z" transform="translate(-1686.52 77.14)"/><path class="cls-3" d="M1740.13,55.89c4.93-.08,9.87,5.19,10.78,9.22C1749.63,59.7,1745.46,55.82,1740.13,55.89Z" transform="translate(-1686.52 77.14)"/><path class="cls-3" d="M1747.19,56.29c3.09,0.62,4.56,4.86,5.1,7.43C1751.66,60.86,1750.86,57,1747.19,56.29Z" transform="translate(-1686.52 77.14)"/><path class="cls-3" d="M1722.93,62a11.71,11.71,0,0,0,7-3.79A17.4,17.4,0,0,1,1722.93,62Z" transform="translate(-1686.52 77.14)"/><path class="cls-3" d="M1736.82,60.21c-3.26,5.14-11.08,6.4-6.71,13C1726.06,67.32,1734.85,63.29,1736.82,60.21Z" transform="translate(-1686.52 77.14)"/><path class="cls-3" d="M1732,72.23c-0.06-6.09,6.14-4.75,8.85-8.47-2.36,3.27.58,13.14-7.88,9.28,7.83,3.69,7.4-5.11,8.06-9.65C1740.31,68,1732,65.72,1732,72.23Z" transform="translate(-1686.52 77.14)"/><g class="cls-14"><path class="cls-46" d="M1731.82,72.3c-0.24-6.83,7.2-4.18,9-8.86C1740.11,68.7,1740,77.33,1731.82,72.3Z" transform="translate(-1686.52 77.14)"/></g><path class="cls-3" d="M1716.14,72c-0.27-.52-6.19-9.5-7-8a5.34,5.34,0,0,0,3.5,7.74c-2.41-.67-5.19-7.46-3.51-7.68C1710.16,66.79,1714.84,69.57,1716.14,72Z" transform="translate(-1686.52 77.14)"/><g class="cls-14"><path class="cls-47" d="M1715.94,72.11c-1.33-2.2-6-6.18-6.6-8C1706.68,68.8,1711.64,72.58,1715.94,72.11Z" transform="translate(-1686.52 77.14)"/></g><path class="cls-3" d="M1801.36,72.53c0.72,0.07,5.38,5.43,6.1,6C1805.56,77.06,1803.09,72.69,1801.36,72.53Z" transform="translate(-1686.52 77.14)"/><path class="cls-3" d="M1813.36,57.7c-3.35,9.92-16,13.42-25.29,13.57,6.92-.27,13.14-5.8,17.19-10.88-3.74,4.67-10.67,10.88-17.21,10.88C1798.08,71.15,1810.43,67.19,1813.36,57.7Z" transform="translate(-1686.52 77.14)"/><path class="cls-3" d="M1772.5,63c21.54-8.92,8.44-30.79,21.7-44.61C1781.41,32,1792.94,53.89,1772.5,63Z" transform="translate(-1686.52 77.14)"/><path class="cls-3" d="M1788.29,36.91c6.46-5.59,11.41-14.09,11.28-22.82C1799.88,22,1793.55,32,1788.29,36.91Z" transform="translate(-1686.52 77.14)"/><path class="cls-3" d="M1805.1,14.94c0.62,18.46-4.84,47.13-25.14,53.26C1801.36,61.69,1805.82,33.08,1805.1,14.94Z" transform="translate(-1686.52 77.14)"/><path class="cls-3" d="M1800.78,45.71c4.64-7.6,7.61-12.48,9.12-21.54C1808.51,31.91,1804.61,39.48,1800.78,45.71Z" transform="translate(-1686.52 77.14)"/><path class="cls-3" d="M1760.84,68.69c1-4.66,5.78-5.56,3.93-11.22C1766.1,61.3,1761.49,66,1760.84,68.69Z" transform="translate(-1686.52 77.14)"/><path class="cls-3" d="M1764.06,66.55c0.18-2.49,3-3.49,3.16-6C1767.23,60.35,1764,67.05,1764.06,66.55Z" transform="translate(-1686.52 77.14)"/><path class="cls-3" d="M1766.28,65.38c0.18-5,6-6.64,4.57-12.68C1772,57.52,1766.36,62,1766.28,65.38Z" transform="translate(-1686.52 77.14)"/><path class="cls-3" d="M1769.91,61.93c2.46-3.53,4.1-5.7,3.94-10.22C1774,54.89,1771.5,59.57,1769.91,61.93Z" transform="translate(-1686.52 77.14)"/><path class="cls-3" d="M1772.75,61.53c1.57-5.32,6.85-7,6.06-13.46C1779.28,53,1773.83,57.89,1772.75,61.53Z" transform="translate(-1686.52 77.14)"/><path class="cls-3" d="M1777.05,60.7c0.24-3.61,3.06-3.95,2.94-8.36C1780,54.5,1777.15,59.05,1777.05,60.7Z" transform="translate(-1686.52 77.14)"/><path class="cls-3" d="M1780.79,54.79c3.86-3.9.42-8.75,3.08-12.66C1781.54,45.56,1783.86,51.75,1780.79,54.79Z" transform="translate(-1686.52 77.14)"/><path class="cls-3" d="M1787.49,32.66l-1.25,3.54C1786.2,37.06,1788.05,31.33,1787.49,32.66Z" transform="translate(-1686.52 77.14)"/><path class="cls-3" d="M1784.89,37.08a26.45,26.45,0,0,0-.43,7.15C1784.48,45.12,1785.18,35.94,1784.89,37.08Z" transform="translate(-1686.52 77.14)"/><path class="cls-3" d="M1808.81-68.17c1.32,7.85,3.24,16.85-2.34,23.56s-14.19,7.22-18.81,15.24c4.31-7.67,14-8.87,19.3-15.46C1812.89-52.2,1810.06-60.58,1808.81-68.17Z" transform="translate(-1686.52 77.14)"/><path class="cls-3" d="M1792.15-64c-4.44,5.37-3.75,11.43-4.8,17.71-1.42,8.47-3.87,6.28-9.71,10.25,6.31-4.43,8.23-1.58,9.92-10.87C1788.6-52.66,1788.58-59.72,1792.15-64Z" transform="translate(-1686.52 77.14)"/><path class="cls-48" d="M1807.58-67.83c-18.11,4.35-13.06,22.29-21.15,34,5.86-6.42,17.67-9.17,21.39-16.6C1810.3-55.44,1808.92-62.7,1807.58-67.83Z" transform="translate(-1686.52 77.14)"/><path class="cls-3" d="M1807.44-68.34c-6.68,1.79-11.61,5.51-14.29,12-3.06,7.4-3.28,15.64-7.77,22.48-0.59.9,1.74,0.37,2.11,0,5.46-5.57,13.52-7.62,18.91-13.24s4.1-14,2.33-21c-0.18-.72-2.47-0.12-2.29.61,2.22,8.82,2.84,17.24-5.34,23-5.22,3.67-11.2,6-15.73,10.66h2.11c7.51-11.43,4.17-29.13,20.23-33.44C1809.07-67.68,1808.81-68.71,1807.44-68.34Z" transform="translate(-1686.52 77.14)"/><path class="cls-3" d="M1793.9-36.31c9.7,7.32,14.39,20.41,13.6,32.3C1808.25-16.34,1804.13-28.61,1793.9-36.31Z" transform="translate(-1686.52 77.14)"/><path class="cls-3" d="M1793.92-35.45c2,5.31-.61,11.13-4.26,15C1793.76-24.85,1796-30,1793.92-35.45Z" transform="translate(-1686.52 77.14)"/><path class="cls-3" d="M1794.62-29.44c1.3,4.13,1.56,9.21,0,13.32C1796.43-20.94,1795.93-25.12,1794.62-29.44Z" transform="translate(-1686.52 77.14)"/><path class="cls-3" d="M1777.12-32.3A15.83,15.83,0,0,0,1787-15.93C1780.77-18.41,1776.64-26.35,1777.12-32.3Z" transform="translate(-1686.52 77.14)"/><path class="cls-3" d="M1773.94-34.63c-2.23,5.65.73,10.68,5,13.34C1774.74-23.9,1772.25-30.57,1773.94-34.63Z" transform="translate(-1686.52 77.14)"/><path class="cls-3" d="M1773.75-39.31c-4.29,2.5-3.66,8.79-2.38,12.78C1770.37-29.56,1770.2-37.47,1773.75-39.31Z" transform="translate(-1686.52 77.14)"/><path class="cls-3" d="M1782.3-27c0.14,4.28,4.69,5.78,7.65,6.62C1787-21.16,1782.4-23.93,1782.3-27Z" transform="translate(-1686.52 77.14)"/><path class="cls-3" d="M1788.48-12.23c3.57,2.62,3.2,8.34,2.74,12.15C1791.73-4.22,1792.5-9.34,1788.48-12.23Z" transform="translate(-1686.52 77.14)"/><path class="cls-3" d="M1790.72-14.92c0.92,0.89,2.53,5.33,2.58,6.21A8.64,8.64,0,0,0,1790.72-14.92Z" transform="translate(-1686.52 77.14)"/><path class="cls-3" d="M1775.56-22.79c-0.24,3.21,1.33,4.74,3.15,6.21C1777.44-17.61,1775.47-21.6,1775.56-22.79Z" transform="translate(-1686.52 77.14)"/><path class="cls-3" d="M1770.3-42.36c4.5,0.22,10.42-1.29,14.49.3C1779.93-44,1774.9-42.1,1770.3-42.36Z" transform="translate(-1686.52 77.14)"/><path class="cls-3" d="M1990.65-33.12c-9.27,12.89.42,32.24,0.38,46.09-0.05,18.11-10.16,34.91-21.37,48.45C1980.2,48.26,1990,33.56,1991.19,16,1992.23,1.2,1981.63-20.4,1990.65-33.12Z" transform="translate(-1686.52 77.14)"/><path class="cls-3" d="M2026,43.73c-2,5.09-5.47,12.08-10.83,13.81C2021.46,55.52,2024.14,48.53,2026,43.73Z" transform="translate(-1686.52 77.14)"/><path class="cls-3" d="M2023.13,62.83a18.38,18.38,0,0,1-9,11.6A18.09,18.09,0,0,0,2023.13,62.83Z" transform="translate(-1686.52 77.14)"/><path class="cls-3" d="M1994.35,93.87c4.79,2.56,11.2,1.27,15.42-1.81C2006,94.76,1998.58,96.14,1994.35,93.87Z" transform="translate(-1686.52 77.14)"/><path class="cls-3" d="M1997.08,97.91c2.84,3.21,6.69,2.64,10.26,2.07C2004.14,100.52,1999.25,100.51,1997.08,97.91Z" transform="translate(-1686.52 77.14)"/><path class="cls-3" d="M1999.1,102.17c1.32,1.53,3.11.52,4.36,0.33C2002.85,102.6,1999.62,102.78,1999.1,102.17Z" transform="translate(-1686.52 77.14)"/><path class="cls-3" d="M2000.77,112.28a6,6,0,0,0,6,.9C2005.71,113.63,2001.5,112.84,2000.77,112.28Z" transform="translate(-1686.52 77.14)"/><path class="cls-3" d="M2000.61,114.2a8.66,8.66,0,0,0,5.11.78C2006.51,114.87,2000.12,114,2000.61,114.2Z" transform="translate(-1686.52 77.14)"/><path class="cls-3" d="M1999.87,116.49c1.1,2.85,6,3.44,8.11,1.71C2006.09,119.75,2000.63,118.61,1999.87,116.49Z" transform="translate(-1686.52 77.14)"/><path class="cls-3" d="M2000.57,131.32c-0.54,3.66-8.66,6.09-4.69,10.79C1992.78,138.49,2000.22,133.87,2000.57,131.32Z" transform="translate(-1686.52 77.14)"/><path class="cls-3" d="M2012,131.63c0.91,3.06-2.36,6.54-1,9.2C2010.43,139.69,2012.39,132.93,2012,131.63Z" transform="translate(-1686.52 77.14)"/><path class="cls-3" d="M1991.37,7.35c-0.18-7.15,3.49-13.78,3.29-21.19C1994.76-7.26,1991.07,1.39,1991.37,7.35Z" transform="translate(-1686.52 77.14)"/><path class="cls-3" d="M1827.34-28c12.16,21-6.92,42.53,1,64C1820.46,15.12,1839.35-7.4,1827.34-28Z" transform="translate(-1686.52 77.14)"/><path class="cls-3" d="M1865.87-23.06c-5.31,9.49-6.32,21.32-3.79,31.8C1859.84-.67,1861.39-14.8,1865.87-23.06Z" transform="translate(-1686.52 77.14)"/><path class="cls-3" d="M1864.67,10.28a64.11,64.11,0,0,0,2.57,35.05c3.87,11,4.44,21.24-2.34,31.56,7.35-10.81,6.33-21.06,2.21-32.91C1863.42,33.32,1862.53,20.55,1864.67,10.28Z" transform="translate(-1686.52 77.14)"/><path class="cls-3" d="M1817,60.05c2.9,3-12.61,17.44,3.67,13.77,5.27-1.19,8.94-5.25,14.76-5.75,5.45-.46,12.76,1.33,17.32,3.78a32.31,32.31,0,0,0-17-3.94c-6.26.44-10.26,5.07-15.86,5.94C1805.56,76.06,1819.81,63,1817,60.05Z" transform="translate(-1686.52 77.14)"/><path class="cls-3" d="M1821.35,73.28a65.89,65.89,0,0,0,2.22,12.32A111.88,111.88,0,0,1,1821.35,73.28Z" transform="translate(-1686.52 77.14)"/><path class="cls-3" d="M1824.28-25.54c5.86,5.66,7.81,15.43,6.85,23.25C1832.15-10.51,1830.48-19.62,1824.28-25.54Z" transform="translate(-1686.52 77.14)"/><path class="cls-3" d="M1862-16.36a33.92,33.92,0,0,0-1.68,24.63C1857.9,1.9,1859.1-10.74,1862-16.36Z" transform="translate(-1686.52 77.14)"/><path class="cls-3" d="M1823.75,85.59c0.66,5.07,6.41,6.52,10.25,6.11C1830.14,92.1,1824.23,89.33,1823.75,85.59Z" transform="translate(-1686.52 77.14)"/><path class="cls-3" d="M1827.21,96.79c1.31,4.76,6.15,6.52,10.25,6C1833.48,103.31,1828.19,100.3,1827.21,96.79Z" transform="translate(-1686.52 77.14)"/><path class="cls-3" d="M1829.09,103.67c1.25,4.66,7.09,5,10.6,4.31C1836.31,108.74,1830,107.15,1829.09,103.67Z" transform="translate(-1686.52 77.14)"/><path class="cls-3" d="M1860.75,92.5a15.16,15.16,0,0,0-3.29-6.32A41,41,0,0,1,1860.75,92.5Z" transform="translate(-1686.52 77.14)"/><path class="cls-3" d="M1857.42,107.84a12.69,12.69,0,0,1-4,3.87A17.85,17.85,0,0,0,1857.42,107.84Z" transform="translate(-1686.52 77.14)"/><path class="cls-3" d="M1860.8,91.89c0.46-6.55-.63-12.6-3.89-17.52C1860,79,1861.28,87.14,1860.8,91.89Z" transform="translate(-1686.52 77.14)"/><path class="cls-3" d="M1830.81,132.7a10.9,10.9,0,0,0-2.34,13.47C1826.16,141.85,1827.93,135.38,1830.81,132.7Z" transform="translate(-1686.52 77.14)"/><path class="cls-3" d="M1845,147.09c3-1.78,4.29-3.7,3.68-7.09C1849.16,142.78,1847,145.92,1845,147.09Z" transform="translate(-1686.52 77.14)"/><path class="cls-3" d="M1855.48,126.52c-1.49-2.17-3.5-2.31-5.49-2.62C1851.1,124.07,1854.88,125.66,1855.48,126.52Z" transform="translate(-1686.52 77.14)"/><path class="cls-3" d="M1837.46-61.36a23.88,23.88,0,0,1,9.24,7.23C1844.3-58,1841.11-59.54,1837.46-61.36Z" transform="translate(-1686.52 77.14)"/><g class="cls-4"><path class="cls-49" d="M2030.19,90.12c-3.36-11.88-9.3-24.06-5.68-30.68s1.21-7.3,1.36-13.59,9.77-14.66,7.22-60.71-47.38-62-79.47-52.11c-6.56,2-27.9,2.16-36.19,5.3s-19.76,11.3-37.81,3.52-25.62-8.33-30.92-6.28a72.13,72.13,0,0,1-10.64,3.11c-8.1-5.91-18.87-7.82-29.06-6.92,0,0-.46-1.44.54-8.34-9,1.33-17.4,12.67-17.4,12.67a29,29,0,0,0-11.2,8.39c-7,9.3-12.06,9.88-12.06,9.88-8.53.31-15.08,2.27-20.59,9.91-8.88,12.28-4.42,23-6.57,32.56s-5.66,11.36-5.66,11.36a2.92,2.92,0,0,0-2.34,3.81c2.65,2.09,2.18,7.07-2,10.37a6.15,6.15,0,0,1-7.8.29c-1.65.06-1,2-1,2-3.6-.44-3.5,2.42-3.5,2.42,2.46,1.91,3.41,10.75.19,16.29s-8.89,8-10.3,7.15a18.85,18.85,0,0,1-3.52-3.45c-2,5.55,1.07,6.79,1.07,6.79,3.38,9.88-4.13,7.87-1.11,15.48s14.86,7.18,14.86,7.18c3.29,7.31,9.32,6.24,17.25,4.51s10,1.92,17.39-6.93a36.09,36.09,0,0,1,17.52-11.22c4.13,7.58,7.35,5.17,7.35,5.17a47.57,47.57,0,0,0,8.11,3.14c6.43,10.34,19,7.31,19,7.31,4.33,5.56,16.78,6.82,16.78,6.82,0.1,2.86,1.23,3.68,5,17s4.2,25.3-1.21,28.08-9.5,12.07-6.95,14,7.5,1.73,7.5,1.73c0.64,2.55,4.6,5.55,13.84,1.78s11.64,1.86,16.94-4.05c5.45-6.08-3.64-17.31-3.64-17.31l2.11-18.38c5-6.47,3.54-15.13,3.23-16.24,1-3.25,4.18-15.2,4.18-15.2s16.75,13.12,48.67,11.66,49.22-11,56.36-27.23c0,0-8.8,18.87,24.3,32.58,0,0,14.66,16.91-.24,32,0,0-11.07,6.42-9.48,12.64S1996,142,1996,142s3.95,2.46,7.8,2.32,7.4-3.7,7.4-3.7c2.29,2.21,20.73-.95,15-7.79a18.06,18.06,0,0,1-1.15-22.27C2029.58,104.25,2033.54,102,2030.19,90.12ZM1735.64,19.93c1.2-2.37,2.34-6.34,1.15-8.9,2.3,0.37,1.92,5.15,1.61,6.74a9.17,9.17,0,0,1-3.38,5.54c-2,1.66-7,3.24-9.39,1.37A9,9,0,0,0,1735.64,19.93Zm-9.55,7.16-0.11-.37c3.66,2.48,9.64.3,11.32-3.86C1738.94,27.83,1728.33,31,1726.08,27.09ZM1724,45.23c2.81-2.34,2.15-8.61,1.65-12.33,1,2,2.6,12,1.1,12.3a2.22,2.22,0,0,0-.8-1.16c-0.32.5-.62,2-1.3,2.15-0.89.24-.85-0.81-0.25-1.32Zm-17.14,5.59,0.18-.19c2.84,2.7,7.52.1,10.21-1.59s5.29-6.06,6-9.35c1.45,2-2.86,10-4.92,11.28,1.56-.05,2.53-1.12,3.59-2-0.12,4.48-5.87,5.41-8.68,5.82a8.07,8.07,0,0,1-5-1.22C1707.57,53.13,1705.95,51.32,1706.85,50.82ZM1727,68.74a6.55,6.55,0,0,1-8,1.32,21.34,21.34,0,0,1-4.23-2.92c-1.66-1.76-4.11-2.09-3-2.59,2.9-1.36,4.63,1.32,7.39,1.68a12.39,12.39,0,0,0,8-2.43c1-.69,4.43-4.35,4.17-1.27C1731.16,64.48,1728.33,67.39,1727,68.74Zm12.25-6c-0.44,2-3.18,2.26-4.71,3-2.07,1.06-2.27,3.21-3.68,4.75-0.53.58-1.26,0.65-1.56-.18s0.36-1.87.81-2.6a7.73,7.73,0,0,1,1.73-2.08c0.84-.71,1.69-1.39,2.58-2a24.76,24.76,0,0,1,2.86-2.06C1738.41,60.91,1739.61,61,1739.25,62.7Zm41.42-24.4c-3.2,5.89-7.6,11.44-13.5,14.68-2.5,1.37-6,.13-7.84,4.13,0.15-.23-2.17,9-3.52,5.67-1.93-4.78-6.68-9.1-11.76-9.95-6.9-1.15-21.91,8.7-23.49,5.08-1.64-3.78,6.1-4.27,8-5.73a11.15,11.15,0,0,0,4.09-5.94c1.45-5.25-3.25-11-2.17-14.13s13-1.3,13.18-9.19c0.13-4.53-2.89-8.59-2.94-12.79,0-3.22,1.2-5.36,2.6-8.49,2.41-5.39-.81-13.86,1.76-19.27,2.82-5.9,6.63-2.81,11.33-4.47,5.79-2.08,6.38-4.08,6.55-9.68,0.18-5.23,4.47-9.12,6.21-1.35,0.86,3.7-.84,7.49.39,11.18,2,5.15,5,5.79,8.71,7.89,5.22,2.42,7.14,5,8.84,11.61C1790.48,10.77,1787.06,26.54,1780.68,38.29Zm5.43-91.83a18.48,18.48,0,0,0-.54,5.52c0.12,0.84,1.1,2.48.75,3.24-0.75,2-6.93.82-8.59,0.59a18.77,18.77,0,0,0-5.59,0c-0.77.15-1.87,0.69-2.66,0.4-2-.75,2.66-2,3.24-2.26a11.84,11.84,0,0,0,5.18-3.57c1.66-2.2,3.14-4.5,5.37-6.16,0.54-.39,2.5-1.86,3.16-1.42C1787.28-56.66,1786.27-54.2,1786.11-53.54Zm15.28-12.54c-4.2,2.47-6.94,4.82-9.3,9.14a7.57,7.57,0,0,1-1.41,2.19c0,0.17,0,.34,0,0.51a4.92,4.92,0,0,0-1,1.6v-0.28c0.76-5.76,2.54-9.88,6.79-14,1.33-1.3,10.58-8.08,10.57-4.3C1806.92-68.94,1803-67,1801.38-66.08Zm56.08,164.37a13.7,13.7,0,0,1-5.4,8c-1.8,1-5.82,1.14-5.75,3.19,0.1,3,4.11,2.28,5.25,3.35,1.51,1.25.89,4.26-.53,5.8-1.22,1.72-4.9,1.49-5,3.17-0.1,1.83,2.56,3,3.86,3.59a15.66,15.66,0,0,1,5.12,4.15,12.52,12.52,0,0,1,2.66,5.23c0.2,1.09.69,3.36-.52,4-1,.52-2.48.11-3.45-0.25-1.65-.61-3.51-2.68-5.34-1.4-2.22,1.56-.38,4.9-2.31,6.63a5.19,5.19,0,0,1-4.63,1.12c-1.66-.46-1.93-2-2.66-3.3a7,7,0,0,0-3.36-3.51c-1.27-.57-3.1.25-3.94-0.87s0.79-2.15,1-3.38c0.25-1.67-1.88-1.12-2.38-2.44s2.18-5.09,2.86-7.86a17.67,17.67,0,0,0,.54-4.76c0-1.52-.11-3-0.16-4.54,0-1.15-.76-3.91-0.7-5a13.59,13.59,0,0,0,5.23.45c1.38,0,4.44-.82,3.61-3-0.49-1.29-2.82-1.05-3.88-1-2.16.08-5.33,0.37-6.3-2.11,0.69-.59,1.81,0,2.57.12a8.62,8.62,0,0,0,3.12.24c0.68-.13,1.9-1.11,1-1.89a9.35,9.35,0,0,0-1.95-.22,5.65,5.65,0,0,1-1.46-.68,18.26,18.26,0,0,1-3.17-2.12c-0.93-.8-2.42-3.14-2.14-4.44,0.23-1.06,1.85-.64,2.76-0.73,0.75-.08,3.11-0.51,3.39-1.5,0.48-1.68-2.9-1.52-3.64-1.57-1.66-.12-3.13-0.3-3.8-2L1827,86.91c-1.75-2.74-3.79-8.63-1.88-11.87,2.41-4.38,13-5,17.62-4.56,3.86,0.42,8.35,2.87,11.2,5.57,1.34,1.62,5.48,9.87,1,6.3C1854.15,87.59,1858.54,92.65,1857.46,98.29Zm125.38-23.38c-4.89-8.87-4-19.52,1.08-28.11,4.46-7.6,8.93-15.06,11.75-23.5,1.49-4.44,2.21-9.19,3.49-13.7a52.2,52.2,0,0,0,2.24-13.74c0-4.44.59-14.42-5.64-14.68-0.87-5.4,2.88-12.5-.15-17.49-2.21-3.63-7.74-2.86-11.21-1.72a19.47,19.47,0,0,0-11.13,9.63,60.65,60.65,0,0,0-5,12.27c-1.44,5.33-.4,11.74-0.21,17.16,0.48,13.66.16,28.36-6.13,40.73-8.59,16.89-20.3,27.26-38.82,32.3-12.41,3.38-29.1,4.42-40.54-2.44-5.37-3.21-5.93-6.63-5.89-12.64,0-7.7-2.5-10.18-5.55-17.24-1.73-4-3.83-7.52-4.8-11.82-1.54-6.79-.3-12,1.72-18.32,0.51-1.61,1.74-5.41.14-6.74-1.18-1-2.67.34-3.42-1.25s-0.06-5.19.34-6.9c1.09-4.68,3.07-9.56,2.9-14.32-0.06-1.81.11-4.41-1.33-5.69-3.13-2.77-8,2.17-9,4.51a38,38,0,0,0-2.72,21.34c0.46,2.56,1,5.27,2.85,7.19a6.81,6.81,0,0,1,1.74,1.95c0.77,2-.5,4.6-0.54,6.69,0,2.28-.18,4.58-0.11,6.87a52.62,52.62,0,0,0,2.36,14.46,57,57,0,0,1,3.52,15.18c0.34,5.72,0,9.82-3.38,14.42-2.62,3.59-5.3,1.73-8.52.17-9-4.43-17.29-6.16-26.73-1.05-2,1.19-11.1,5-9.66-.91,0.49-1.83,2.65-2.76,3.13-4.73,0.82-3.39-.88-5-2.35-7.52-1.26-2.18-.91-5.23-1.3-7.65-0.66-4.1-2-8-2.63-12a44.41,44.41,0,0,1,0-15.25c0.73-3.55,2-6.9,2.62-10.55a53.43,53.43,0,0,0,.44-10.91,102.5,102.5,0,0,0-1-13.41c-1-5.74-3.29-10.73-6-15.73-1.11-2.08-3.17-5.34-1.1-7.29,1.45-1.36,3.15-1.12,4.42-3a20.94,20.94,0,0,0,2.8-6.08c1.07-3.86.64-7.72,1-11.68,0.29-2.9,1.5-4.36,4.4-4.4a27.35,27.35,0,0,1,11.72,2.7c2.19,1.1,4,2.72,6.28,3.77,3,1.39,5.79,3.15,8.81,4.44,2.57,1.1,8.77.86,8.2-3.15-0.33-2.26-4-5.44-2.34-7.65,2-2.64,8.67-.59,11.06,0,3.25,0.81,5.84,2.29,8.84,3.79a48.76,48.76,0,0,0,9.68,3.71,43.37,43.37,0,0,0,13.14,1.57c3.58-.13,7.3-0.08,10.8-0.9a40.76,40.76,0,0,0,6.63-2.59,67.91,67.91,0,0,1,10.54-3.45c4.75-1.09,10-.38,14.84-0.78,3.05-.26,5.78-1.53,8.66-2.56a38.94,38.94,0,0,1,4.41-1.52c14.27-3.14,32.82-5.12,46,1.78,12.32,6.27,21,15.31,27.49,27.1,11.19,20.85,5.84,44.76.86,67l-1,3.75A30.3,30.3,0,0,1,2010.35,54c-2.31,1.22-5.87,1.72-4.44,5.48,1.78,4.69,7.2.3,10,2.92,1.53,1.44,1,4.44-.15,5.94-2.36,3-10.52,6.93-3.52,10.77,2.57,1.41,4.71,2.15,2,5.41a17.2,17.2,0,0,1-6.9,4.28C1997,91.93,1987.66,83.66,1982.84,74.91Zm37.34,37.38a27,27,0,0,0-.3,15.35c1.16,4.25-1.94,5.31-4.67,4.16-1.69-.72-2.62-3.6-4.16-3.14-2.91.87-.59,3.94-4.43,4.26-4.2.34-2.08-2-4.14-3.21-2.43-1.41-4.12,2.76-6.29,3.59-1.81.63-7.95,1.41-8.05-1.57-0.08-2.23,3.59-3.32,5.14-4.32,6.12-3.93,5.62-8.18,7.94-7.43,2.16,0.71,6.46,1,8-1.48,1.73-2.86-2.91.71-3.17-1.42s3.75-2.94,1.48-4.91c-1.13-.89-3.46.69-4.6-0.39-1.12-.7-1.22-3.5-1.08-4.81,0.25-3.18.51-1.14,2.65-2.9,0.88-1-.11-2,0.77-2.64a3,3,0,0,1,2.06-.26c2.22-.95,1.78-2.74-0.82-2.4a16.78,16.78,0,0,1-4.21.15c-3.25-.46-3.08-1.61.67-1.7,2.09-.06,4.71-1.48,6.33-2.47,2.34-1.39,2.25-3.62,3.85-5.17,1.77-1.74,4.15-2,5.71-4.5a14.49,14.49,0,0,0,1.76-7.34,37.59,37.59,0,0,1,6.22,15.07c0.71,4.63.66,8.37-2,12C2023.12,107.34,2021,109.28,2020.18,112.29Z" transform="translate(-1686.52 77.14)"/></g><path class="cls-50" d="M1820,142.45c0,3.58,5.54,3.75,8,3.72-2.16-3.52-2.65-6.22-8-3.72C1820,143.34,1822.23,141.43,1820,142.45Z" transform="translate(-1686.52 77.14)"/><path class="cls-3" d="M1818.87,142.76c0.24,3.92,5.85,4,8.71,3.94,0.2,0,1.9-.37,1.62-0.83-0.93-1.54-1.75-3.79-3.5-4.58-2-.91-4.5.13-6.36,1a0.65,0.65,0,0,0-.47.52c0.25,1.14,3.47.06,3.26-.9a0.29,0.29,0,0,0-.21-0.17,3.9,3.9,0,0,0-2.31.44c-1.48.64-.1,1.06,0.83,0.66a0.92,0.92,0,0,0,.73-0.64l-0.47.52c1.53-.68,2.87-1,4.06.35a22.8,22.8,0,0,1,2.16,3.47l1.62-.83c-2.58,0-7.17-.08-7.38-3.51C1821.13,141.63,1818.83,142,1818.87,142.76Z" transform="translate(-1686.52 77.14)"/><path class="cls-51" d="M1848.43,143.66c-1.69,1.28-1,2-3.79,3.39,5.39-1.29,12.21,1.78,15.41-4.61C1856.93,141.29,1851.08,141.43,1848.43,143.66Z" transform="translate(-1686.52 77.14)"/><path class="cls-3" d="M1847.4,143.78c-1.32,1.12-2,2.41-3.62,3.28-0.76.42,0.33,0.43,0.64,0.36,6-1.23,13.11,1.32,16.77-5.19a0.1,0.1,0,0,0,0-.16c-4.33-1.41-10-1.07-13.74,1.7-0.41.3,1.63,0.09,2.06-.23,1.35-1,6.58-2.4,8.36-1.06,2.69,2-4.33,3.77-5.37,3.79a40.78,40.78,0,0,0-7.58.4l0.64,0.36c1.72-.95,2.51-2.27,3.95-3.5C1849.87,143.2,1847.81,143.43,1847.4,143.78Z" transform="translate(-1686.52 77.14)"/><path class="cls-52" d="M1827.12,140.61c-0.24,6.4,3.63,10.12,10.28,8.81C1836.9,144.8,1832.81,138.05,1827.12,140.61Z" transform="translate(-1686.52 77.14)"/><path class="cls-3" d="M1826,140.91c-0.05,2.9.65,6,3.12,7.79s5.38,1.68,8.1,1.2c0.28-.05,1.41-0.29,1.34-0.78-0.77-6-5.53-11.37-11.83-8.82-1.5.6-.1,1,0.82,0.63,4.91-2,8.23,5,8.72,8.81l1.34-.78c-6,1.06-9.44-2.92-9.33-8.64C1828.27,139.86,1826,140.19,1826,140.91Z" transform="translate(-1686.52 77.14)"/><g class="cls-14"><path class="cls-53" d="M1827.06,142.92c-0.89-1.93-4.84-1.5-7-.47a2.4,2.4,0,0,0,.77,2c2.22,1.67,6.27,1.74,7.27,1.73A10.91,10.91,0,0,1,1827.06,142.92Zm-2.63,2.37a4.44,4.44,0,0,1-3.11-1.55c-0.87-1.34,1.41-1.73,2.27-1.73a2.34,2.34,0,0,1,2.17,1.83C1826.06,144.95,1825.58,145.48,1824.43,145.29Z" transform="translate(-1686.52 77.14)"/></g><g class="cls-14"><path class="cls-54" d="M1835.69,144c-1.82-2.87-5.19-4.91-8.57-3.39a13,13,0,0,0,1.09,5.57h0.08a2.78,2.78,0,0,0,.11.35l0.09,0.16h0c0.81,1.91,3.53,3.8,8.93,2.73A12.64,12.64,0,0,0,1835.69,144Zm-1.68,4c-0.92.58-2,.07-2.84-0.42a13,13,0,0,1-1.27-.79,4.13,4.13,0,0,1-1.59-2.38,4.65,4.65,0,0,1-.29-2.73c0.3-.71,1.13-0.55,1.77-0.44a5.25,5.25,0,0,1,3.7,2.29C1834.12,144.51,1835.36,147.18,1834,148Z" transform="translate(-1686.52 77.14)"/></g><g class="cls-14"><path class="cls-55" d="M1858.37,142.09c-2.76-.28-7.62-0.37-9.93,1.57,0,0-.15,1.58-3.79,3.39l0,0c7.2-1.91,9.63,2.13,14.41-3.19a6.48,6.48,0,0,0,1-1.45A5.7,5.7,0,0,0,1858.37,142.09Zm-4.27,3.51a18,18,0,0,1-3.33.13c-0.48-.05-2.47-0.47-2-1.34a5.63,5.63,0,0,1,2-1,13.73,13.73,0,0,1,5.66-1.24c0.66,0,1.53.25,1.56,1.07C1858.09,144.75,1855.19,145.52,1854.09,145.6Z" transform="translate(-1686.52 77.14)"/></g><path class="cls-56" d="M1996.83,136.37c-4.68,5,2.18,8.31,7,8C2017.28,143.35,2005.26,131.85,1996.83,136.37Z" transform="translate(-1686.52 77.14)"/><path class="cls-3" d="M1995.9,136.15c-1,1.16-2,2.59-1.74,4.22a5,5,0,0,0,2.71,3.23,13.45,13.45,0,0,0,10.27.8c1.88-.57,4.27-1.92,3.81-4.25s-2.87-3.79-4.8-4.58a11.75,11.75,0,0,0-9.78.28c-1.4.72-.12,1.56,0.93,1a8.6,8.6,0,0,1,7.84.2c1.48,0.74,3.91,2.42,3.54,4.4-0.48,2.57-5.41,2.34-7.2,2-3.53-.72-6.76-3.45-3.72-6.87C1998.66,135.57,1996.45,135.53,1995.9,136.15Z" transform="translate(-1686.52 77.14)"/><path class="cls-57" d="M1995.35,138.42c0.15-.69-11.78-4.86-10.15,1.18,0.67,2.48,4.17,3,6.31,2.93,5.39-.29,2.57.32,3.84-4.11C1995.37,138.32,1995.09,139.32,1995.35,138.42Z" transform="translate(-1686.52 77.14)"/><path class="cls-3" d="M1996.49,138.12c-0.17-1.49-5.37-2.18-6.41-2.3-2.16-.26-6-0.07-6.18,2.81-0.37,4.68,6,4.64,9.11,4.49,0.91,0,2.45,0,3-.95a1.94,1.94,0,0,0,.13-1,12.14,12.14,0,0,1,.37-2.87c0.23-.87-2-0.48-2.29.28,0,0.12-.07.24-0.11,0.36-0.23.86,2.06,0.5,2.29-.28l0.11-.36c0.24-.83-2.06-0.52-2.29.28l-0.11.36,2.29-.28c0-.12.07-0.24,0.11-0.36l-2.29.28a7.8,7.8,0,0,0-.38,2.88,5.8,5.8,0,0,0,0,.73c-0.18-.17.95-0.13,0.4-0.42a3.31,3.31,0,0,0-1,.05c-2.38.12-7.51,0.08-7.08-3.61,0.22-1.85,2.91-1.11,4.15-.84,0.6,0.13,3.8.84,3.86,1.37C1994.29,139.51,1996.59,139,1996.49,138.12Z" transform="translate(-1686.52 77.14)"/><path class="cls-58" d="M2011.7,136.95a6.42,6.42,0,0,0-.61,3.78c1.64-1.64,11.43.41,15-2.92C2022.78,135.43,2015.09,133.87,2011.7,136.95Z" transform="translate(-1686.52 77.14)"/><path class="cls-3" d="M2010.57,137.16a8,8,0,0,0-.63,3.87c0,0.52,2-.26,2.18-0.41,0.82-.63,3.2-0.23,4.29-0.26a40.11,40.11,0,0,0,4.53-.32,12.09,12.09,0,0,0,6.16-2.35c0.08-.07.17-0.19,0-0.28-4.54-3-12-4-16.48-.37-0.44.35,1.64,0.13,2.06-.21,1.8-1.43,4.69-1.26,6.81-.84a16.08,16.08,0,0,1,3.79,1.22c3.6,1.72-4.38,2.22-5.77,2.26-2.38.07-5.48-.21-7.5,1.34l2.18-.41a8,8,0,0,1,.59-3.68C2013,136.41,2010.8,136.59,2010.57,137.16Z" transform="translate(-1686.52 77.14)"/><g class="cls-14"><path class="cls-59" d="M1995.35,138.42a1.22,1.22,0,0,1,0-.14c-2.14-2.11-8.47-2.27-10.89-.18,0,0.12,0,.24.07,0.35,1.49,5.79,10.06,3.89,11.28,3.6A5.05,5.05,0,0,1,1995.35,138.42Zm-1.66,2.56c-0.53,1.14-2.59.92-3.64,0.89a6.55,6.55,0,0,1-3.71-1.61,1.39,1.39,0,0,1,.55-2.47,9.33,9.33,0,0,1,5.36-.12A2.86,2.86,0,0,1,1993.68,141Z" transform="translate(-1686.52 77.14)"/></g><g class="cls-14"><path class="cls-60" d="M1996.83,136.37a3.78,3.78,0,0,0-1.48,2.05,6.83,6.83,0,0,0,.57,3.61l0.07,0s3.95,2.46,7.8,2.33c3.27-.12,6.32-2.7,7.16-3.48C2009,135.73,2001.39,133.92,1996.83,136.37Zm10.34,3.28c-0.61,2.31-3.12,3.28-5.27,3.22a6.08,6.08,0,0,1-4.68-2.26c-0.91-1.28-.86-2.69.46-3.56,2-1.34,5.33-1.2,7.5-.31C2006.36,137.23,2007.55,138.21,2007.17,139.65Z" transform="translate(-1686.52 77.14)"/></g><g class="cls-14"><path class="cls-61" d="M2021.28,135.75c-2.49-.56-7.54-0.66-9.58,1.19a6.41,6.41,0,0,0-.61,3.78l0.1-.09c1.62,1.56,11.42.42,14.88-2.83A12.59,12.59,0,0,0,2021.28,135.75Zm-2.35,4.17c-1.33.18-6.5,1.43-6.68-1-0.2-2.62,5.23-2.45,6.69-2.51,0.76,0,3.92-.07,3.9,1.33C2022.82,138.94,2019.82,139.75,2018.93,139.93Z" transform="translate(-1686.52 77.14)"/></g><g class="cls-4"><path class="cls-62" d="M1800-48.92c4.51-4.26,5.64-12,4.37-17.87-11.17,4.8-13,15.35-14.81,26.06,3-3.35,7.15-5.23,10.44-8.19C1804.32-53,1796.61-45.85,1800-48.92Z" transform="translate(-1686.52 77.14)"/></g><g class="cls-14"><path class="cls-63" d="M1719.69,27.11c0.47,0-1.91,12.06-5.59,13.82-6.94,3.31-13.69-4.55-17-9.63-3.93-6-5.71-13.57-6.8-20.6-0.25-1.63-.52-16-0.17-16-5.47.15,0.15,26.5,1.33,29.82a62.74,62.74,0,0,0,11.72,19.86c2.81,3.23,5.1,6.55,9.57,5.64,7.32-1.48,13.5-17.88,6.95-22.88C1719.53,27.11,1722.19,29,1719.69,27.11Z" transform="translate(-1686.52 77.14)"/></g><g class="cls-64"><path class="cls-65" d="M1691.77,5.16c-1.4,10,16.24,42.05,24.5,22.37-6.82-1.1-12.36-5.91-16.63-11a86,86,0,0,1-5-7.32c-0.68-1-2.34-7.5-2.89-4C1691.24,8.92,1691.87,4.52,1691.77,5.16Z" transform="translate(-1686.52 77.14)"/></g><g class="cls-14"><path class="cls-66" d="M1734.33,12l-2-.16c2.48,12.74-10,6.19-13.52-.47-1.09-2.07-4.86-17-4.34-17.15-4.39,1.46,5.07,23.83,7.89,26.43,6.71,6.21,19-3.23,12-8.66C1733.67,12,1737,14.08,1734.33,12Z" transform="translate(-1686.52 77.14)"/></g><g class="cls-64"><path class="cls-67" d="M1717.38,4c0.65,4.43,10.59,18.47,14.41,8.42-6-1.36-11.49-6.47-14.37-11.72-0.61.22,0,3.25,0,3.3C1717.87,7.32,1717.33,3.53,1717.38,4Z" transform="translate(-1686.52 77.14)"/></g><g class="cls-32"><path class="cls-68" d="M1822.1,10.52c-2.94,6.55-5.79,16.72-2.1,23.62,2.33,4.35,8.4,9.23,12.71,4.07,2.83-3.4.54-12.31,0.65-16.27,0.3-10.39,4.94-19.05,6.28-29.1,0.88-6.64-1.08-17.5-5.35-23-5-6.45-6.2-4.4-10.1-.51-5.63,5.6-2.44,4.91.43,13.25,3.2,9.28,1.41,19.16-2.52,27.93h0Z" transform="translate(-1686.52 77.14)"/></g><path class="cls-69" d="M1724.65,46.19a4.5,4.5,0,0,0,1.3-2.15c2.83,1.5,1-8.65-.3-11.14,0.41,3-.73,13.22-1,13.29C1725.33,46,1723.76,46.43,1724.65,46.19Z" transform="translate(-1686.52 77.14)"/><path class="cls-69" d="M1735,23.31c1.63-1.26,6.7-11.48,1.77-12.28,3,6.54-4.35,15.31-11.16,13.65,2.39,1.9,7.37.27,9.39-1.37C1736.8,21.94,1733,25,1735,23.31Z" transform="translate(-1686.52 77.14)"/><path class="cls-69" d="M1726,26.72c2.68,3.86,13.15,1.69,11.32-3.86C1735.65,26.92,1729.78,29.3,1726,26.72Z" transform="translate(-1686.52 77.14)"/><path class="cls-69" d="M1721.9,49a6.08,6.08,0,0,1-3.59,2c1.95-1.22,6.77-8.72,4.92-11.28-1.07,5-10.12,16.71-16.2,10.94-0.13,6.76,14.71,4.71,14.88-1.66C1720.83,49.85,1721.79,53.45,1721.9,49Z" transform="translate(-1686.52 77.14)"/><path class="cls-69" d="M2026.82,92.84a36,36,0,0,0-6.22-15.07c0.16,4.72-14.64,24.95-20.42,20.56,1.4,1.07,8-.48,8.53,1.19,0.62,2.06-8.8,4.79-6.81,10.11,1.09,2.9,4.33,2.49,6.18,4.24-0.68-.64-1.6,4-1.62,3.59,0.05,0.87,2.65-.25,3-0.07,3.32,1.71-9.59,3.1-9,2.75-2.09,1.17-7.75,6.4-9.3,8.35-7.83,9.86,8.65,2.14,11.77,2,0.91-.05.59,2.34,2.37,2.27s3.71-2.61,4.09-2.64c2-.18,7.6,2.69,9.38,1.44,3.19-2.24-.25-14.94,1.34-19.23,2.75-7.41,8-10.68,6.65-19.45C2026.09,87.65,2027.54,97.48,2026.82,92.84Z" transform="translate(-1686.52 77.14)"/><g class="cls-32"><path class="cls-70" d="M1814.9,81.29c-7-1.93-11-6.77-8.09-13.64,0.19-.44,11-10.69,6.65-11.66-4.18-.92-5.92,14.26-12.52,10.7,0.13-.83,6.46-6.67,5.06-7.53-3.35-2.07-9.78,9.53-14.21,8.36-6.58-1.75,1.78-6.53,4.37-9.86,3.79-4.89,20.48-32,13.39-36.46-1.24-.8-2,11-3.15,10.75-2.65-.59,2.55-20.19-0.77-20.4-2.42-.15-2,49.74-17.5,49.28-13.74-.41,21.24-43,11.89-48.51-0.73-.56-4.16,14.69-5.73,15.86-8.62,6.4.86-9.08,0.69-10.19-0.25-1.57-5.34,5.92-5.64,6.54-2.29,4.79-2.87,10.15-3.79,15.29-2,11.12-4.77,17.11-15.36,21.87-9.26,4.16-12.5,10.24-19.95,15.77-6,4.47-22.73,5.47-28.8.76,4.87,7.76,24.54,3.56,30.88-1,5.4-3.87,8.65-10.62,15.61-12.55s3.12-.44,9.15,3.34c2.4,1.5,6.72,1.06,9.61,2.76,5.43,3.2,7.77,6.86,14.67,8.12,3.57,0.65,4.86.64,7.83,1.58,5,1.57,9,4.17,14.39,4.84-1.36-7.79-2.31-2.27-8.69-4h0Z" transform="translate(-1686.52 77.14)"/></g><path class="cls-71" d="M1812.48,69c-2,6.67,6.14,6.84,9.71,5.84,11-3.09,17.56-8.72,30.05-2.89-7.52-3.88-16.66-5.35-24.65-2.18C1823.15,71.52,1813,79.66,1812.48,69Z" transform="translate(-1686.52 77.14)"/><path class="cls-69" d="M1721.9,49a6.08,6.08,0,0,1-3.59,2c1.95-1.22,6.77-8.72,4.92-11.28-1.07,5-10.12,16.71-16.2,10.94-0.13,6.76,14.71,4.71,14.88-1.66C1720.83,49.85,1721.79,53.45,1721.9,49Z" transform="translate(-1686.52 77.14)"/><path class="cls-69" d="M1724.65,46.19a4.5,4.5,0,0,0,1.3-2.15c2.83,1.5,1-8.65-.3-11.14,0.41,3-.73,13.22-1,13.29C1725.33,46,1723.76,46.43,1724.65,46.19Z" transform="translate(-1686.52 77.14)"/><path class="cls-69" d="M1726,26.72c2.68,3.86,13.15,1.69,11.32-3.86C1735.65,26.92,1729.78,29.3,1726,26.72Z" transform="translate(-1686.52 77.14)"/><path class="cls-69" d="M1735,23.31c1.63-1.26,6.7-11.48,1.77-12.28,3,6.54-4.35,15.31-11.16,13.65,2.39,1.9,7.37.27,9.39-1.37C1736.8,21.94,1733,25,1735,23.31Z" transform="translate(-1686.52 77.14)"/><path class="cls-69" d="M2026.82,92.84a36,36,0,0,0-6.22-15.07c0.16,4.72-14.64,24.95-20.42,20.56,1.4,1.07,8-.48,8.53,1.19,0.62,2.06-8.8,4.79-6.81,10.11,1.09,2.9,4.33,2.49,6.18,4.24-0.68-.64-1.6,4-1.62,3.59,0.05,0.87,2.65-.25,3-0.07,3.32,1.71-9.59,3.1-9,2.75-2.09,1.17-7.75,6.4-9.3,8.35-7.83,9.86,8.65,2.14,11.77,2,0.91-.05.59,2.34,2.37,2.27s3.71-2.61,4.09-2.64c2-.18,7.6,2.69,9.38,1.44,3.19-2.24-.25-14.94,1.34-19.23,2.75-7.41,8-10.68,6.65-19.45C2026.09,87.65,2027.54,97.48,2026.82,92.84Z" transform="translate(-1686.52 77.14)"/><g class="cls-32"><path class="cls-72" d="M1997.85,98.52c-2.59-4.32,15.41-1.88,13.33-7.67,1.36,3.78-19,.53-19.6.29-7.3-2.85-13.22-7.6-16-15.22-6-16.7,11.23-32,15.3-47.51,0.85-3.24,7.35-42.41,4-42.28-4.07.16-.48,9.58-5.13,5.29-2.79-2.58,1.8-16.92-1-18-2.57-.94-3.3,14.85-3.31,16.1,0,13.15,4.39,25.37.4,38.36-4.29,14-16.47,27.8-26.87,37.95-17,16.62-48,21.67-70.57,17.26-6.36-1.24-15.79-3.51-17.37-10.88,0.11,0.49,0-28.87-3.07-26.49-0.82.64,1.38,12,1.22,13.66a32.55,32.55,0,0,1-3.15,11c-1.28,2.61-9.88,9.78-9.77,3.22-0.08,5.11,2.88,11.43,3.27,16.35,0.3,3.89,1.79,7.25.62,11.3-0.66,2.3-7.76,9.64-6.94,10.6l2.8-.4c0.24,1.33-.5,9.47-1,10.41-1.74,3-1.34.06-4.48,1.6-0.31.15,6.57,4.72,5.87,4.19-3.72-5.29,1.6-17.44,3.21-23,2.65-9.1,2.87-18.64,5.41-28.07,26.87,19.12,89.82,19.09,105-15.57C1963.27,82.16,1989.9,85.69,1997.85,98.52Z" transform="translate(-1686.52 77.14)"/></g><g class="cls-6"><path class="cls-73" d="M1867.43-55.31c14.66,9.11,33.3,7.92,49.43,3.73,11.15-2.9,37.56-13.15,46.41-.84,4.82,6.71.62,17.32-1.7,24.07a152.82,152.82,0,0,0-6,24.9c-2.91,17-13.13,30.8-28.22,39.12-13.25,7.31-31.22,9.89-41.74-3.7-4.48-5.78-5-12.71-3.63-19.64,0.91-4.58,4.56-9.57.94-13.34-1.79-1.86-5.74-.61-7.76-2.84-4-4.47-.71-12.64-0.15-17.7,2-18.18-5-7.2-15.46-8.05-6.32-.51-9.82-8.23-15.05-11.59-4.16-2.67-15.64-7.77-4.88-7.85,7.88-.06,11,5.09,17.77-0.85,3.3-2.88,4.57-8.82,10-5.42h0Z" transform="translate(-1686.52 77.14)"/></g><path class="cls-74" d="M1987.19-63.13c24.73,3.5,38,24.11,41.55,47.8,2.25,14.92.62,31.82-6.65,45.25-3.36,6.2-16.33,21.28-21.37,9.59-4-9.17,7.83-29.78,9.25-39,2-13.23-5.05-21.43-3.82-33.3,1.34-12.92-9.37-10.36-18.31-16.89-6-4.39-15.21-15.46-.65-13.4h0Z" transform="translate(-1686.52 77.14)"/><path class="cls-69" d="M1724.65,46.19a4.5,4.5,0,0,0,1.3-2.15c2.83,1.5,1-8.65-.3-11.14,0.41,3-.73,13.22-1,13.29C1725.33,46,1723.76,46.43,1724.65,46.19Z" transform="translate(-1686.52 77.14)"/><path class="cls-69" d="M1721.9,49a6.08,6.08,0,0,1-3.59,2c1.95-1.22,6.77-8.72,4.92-11.28-1.07,5-10.12,16.71-16.2,10.94-0.13,6.76,14.71,4.71,14.88-1.66C1720.83,49.85,1721.79,53.45,1721.9,49Z" transform="translate(-1686.52 77.14)"/><path class="cls-69" d="M1735,23.31c1.63-1.26,6.7-11.48,1.77-12.28,3,6.54-4.35,15.31-11.16,13.65,2.39,1.9,7.37.27,9.39-1.37C1736.8,21.94,1733,25,1735,23.31Z" transform="translate(-1686.52 77.14)"/><path class="cls-69" d="M1726,26.72c2.68,3.86,13.15,1.69,11.32-3.86C1735.65,26.92,1729.78,29.3,1726,26.72Z" transform="translate(-1686.52 77.14)"/><path class="cls-69" d="M2026.82,92.84a36,36,0,0,0-6.22-15.07c0.16,4.72-14.64,24.95-20.42,20.56,1.4,1.07,8-.48,8.53,1.19,0.62,2.06-8.8,4.79-6.81,10.11,1.09,2.9,4.33,2.49,6.18,4.24-0.68-.64-1.6,4-1.62,3.59,0.05,0.87,2.65-.25,3-0.07,3.32,1.71-9.59,3.1-9,2.75-2.09,1.17-7.75,6.4-9.3,8.35-7.83,9.86,8.65,2.14,11.77,2,0.91-.05.59,2.34,2.37,2.27s3.71-2.61,4.09-2.64c2-.18,7.6,2.69,9.38,1.44,3.19-2.24-.25-14.94,1.34-19.23,2.75-7.41,8-10.68,6.65-19.45C2026.09,87.65,2027.54,97.48,2026.82,92.84Z" transform="translate(-1686.52 77.14)"/><g class="cls-32"><path class="cls-75" d="M1733.61,78.58c3.57,0.88,24.91-8.3,24-10.55-1.24-3.09-8.38,2.54-9.27,1.23-1.18-1.74-.81-6.21-1.83-8.51-0.25-.57-3.15-2.16-3.09-1.27,0.23,3.89,6.22,6.54,2.05,12.21-4.55,6.19-16.17,2.67-22.35,2.59-5.54-.08-14.23,1.21-16.08-6-1.18-4.64,5.84-10.27,0-13.58,2.51,8.31-6.87,14.69,4.67,20.32,6.62,3.23,14.74,1.85,21.87,3.59h0Z" transform="translate(-1686.52 77.14)"/></g><g class="cls-20"><path class="cls-76" d="M1839,89.64c5.43,4.38-13.89,5.73.4,10.93,15.17,5.53,10.94-8.67,10-17.42-0.36-3.27,2.6-4.9-.46-8.61-2.92-3.55-10.36-3.36-14.22-2.3-5.39,1.48-9.42,4.57-7.4,10.71,2.3,7,7.07,2.94,11.7,6.69h0Z" transform="translate(-1686.52 77.14)"/></g><g class="cls-20"><path class="cls-77" d="M1837.86,111.69c1.56,0.11,9.73,1.7,10.1,3.12,1.18,4.53-5.6,2.54-5.84,6-0.28,3.89,7.12,5.6,8.59,8.27,3.35,6.11-.79,3.2-4.45,6.38s-0.74,6.77-6.74,4.2c-3-1.29-4.09-5.39-4.88-7.68-1.06-3-2.33-20.65,3.23-20.24h0Z" transform="translate(-1686.52 77.14)"/></g><g class="cls-6"><path class="cls-78" d="M1993.31,47.16c6.57,0.15,4.31,5.88,5.12,10.07,0.86,4.49,3.55,7.71,4.6,12,0.47,1.91-1.91,3.4-1,5.48,0.56,1.36,2.88,2.63,3.16,3.82,0.88,3.81,3.85,4.61-2.16,4.88C1986.33,84.08,1972.58,49.05,1993.31,47.16Z" transform="translate(-1686.52 77.14)"/></g><g class="cls-6"><path class="cls-79" d="M1827.63,64.25c4.53-2,7-6.06,12.38-6,4.55,0.07,6.79,4.3,10.8,5.21,9.21,2.09,10.13-3.17,8-10.94-1.62-5.84-4.52-10.78-5.18-17-0.45-4.19.7-8.42,0.29-12.54-0.37-3.8-5.07-17.1-9.16-16.09-5.09,1.26-1.45,32.8-10,38-6,3.65-14.11-5.55-16.86,1.87-1,2.79,2.41,6.74,2.82,9.39,0.23,1.51-1.39,9.84-1.36,9.91,0.88,1.62,8.32-1.85,8.3-1.84h0Z" transform="translate(-1686.52 77.14)"/></g><g class="cls-14"><path class="cls-80" d="M1717.92,42.59c-3.11,3.31-8.44,4.66-12.83,3.86C1713.26,54.7,1722,45,1722,34.8a18,18,0,0,1-4,7.79C1715.07,45.62,1719.83,40.58,1717.92,42.59Z" transform="translate(-1686.52 77.14)"/></g><g class="cls-14"><path class="cls-81" d="M1735.11,12.79c0.19,6.45-5.34,10.44-11.54,9.19,5.37,5.34,16.05-3.07,11.54-9.19C1735.2,15.89,1736.87,15.17,1735.11,12.79Z" transform="translate(-1686.52 77.14)"/></g><g class="cls-6"><path class="cls-82" d="M1746.41-.42c0.65-4.43-2.09-9.45,1.18-13.33,2.78-3.31,9.69-3.22,13.58-2.91,10.24,0.82,15.84,7.53,15,18.08-1.14,14.1-16,4.58-22.78,13.18-6.23,7.84-.52,19,7.87,21.84,2.22,0.76,9,0,10.12,2,1.73,3.24-3.53,6.72-6.1,8-6.14,3-24.53,4-28.75-.87-8.83-10.08,5.29-13.21,8.27-19.68,2.69-5.85-2-8.34-2.13-13.4s3.06-8.21,3.77-12.94C1747.07-4.92,1745.92,2.82,1746.41-.42Z" transform="translate(-1686.52 77.14)"/></g><g class="cls-32"><path class="cls-83" d="M1785.08-38.48c-3.82,19,7.58.87,12.33,2.19,4.9,1.36,9,12.56,10.13,16.75,0.31,1.2,2.87,18.56-.81,17.07-3-1.19-1.94-21-7.5-20.53-3.2.28-1.84,8.57-4.39,9.24-2,.65-0.23-7.87-1.9-7.2a13.68,13.68,0,0,1-2.66,2.43,29,29,0,0,0-3.7-.89c-1,.61,1.84,4.56.85,4.66-1.25.12-7.88-4.93-8.52-3.72q0.22,1.54.57,3.06c-5.53-1.09-15.94-24.12-5.26-24.13q-0.76,2.19-1.65,4.32a6,6,0,0,0,2.23-.9c0,0.15-.43,7.17.75,7.17,0.37,0,1.93-6.6,2.46-7.14C1779.22-37.37,1783.4-37.59,1785.08-38.48Z" transform="translate(-1686.52 77.14)"/></g><path class="cls-69" d="M1713.22,54.79c3.29-.48,8.57-1.45,8.68-5.82a6.08,6.08,0,0,1-3.59,2c1.95-1.22,6.77-8.72,4.92-11.28-1.07,5-10.12,16.71-16.2,10.94,0.32,2.83,2.76,4.66,6.19,4.16h0Z" transform="translate(-1686.52 77.14)"/><path class="cls-69" d="M1737.28,61.51c-0.6.32-10.89,9.23-7.28,9.39,1.41,0.06,11.4-11.59,7.28-9.39h0Z" transform="translate(-1686.52 77.14)"/><path class="cls-69" d="M1727.1,63.79c-6.09,4.14-10.61-1.48-15.37.75,0.18-.08,7.73,6.34,10.06,6.33,6,0,8.14-9.41,8.73-9.54a14.84,14.84,0,0,0-3.42,2.46C1724.77,65.37,1728.09,63.11,1727.1,63.79Z" transform="translate(-1686.52 77.14)"/><path class="cls-69" d="M1726,26.72c2.68,3.86,13.15,1.69,11.32-3.86C1735.65,26.92,1729.78,29.3,1726,26.72Z" transform="translate(-1686.52 77.14)"/><path class="cls-69" d="M1724.65,46.19a4.5,4.5,0,0,0,1.3-2.15c2.83,1.5,1-8.65-.3-11.14,0.41,3-.73,13.22-1,13.29C1725.33,46,1723.76,46.43,1724.65,46.19Z" transform="translate(-1686.52 77.14)"/><path class="cls-69" d="M1735,23.31c1.63-1.26,6.7-11.48,1.77-12.28,3,6.54-4.35,15.31-11.16,13.65,2.39,1.9,7.37.27,9.39-1.37C1736.8,21.94,1733,25,1735,23.31Z" transform="translate(-1686.52 77.14)"/><path class="cls-69" d="M2026.82,92.84a36,36,0,0,0-6.22-15.07c0.16,4.72-14.64,24.95-20.42,20.56,1.4,1.07,8-.48,8.53,1.19,0.62,2.06-8.8,4.79-6.81,10.11,1.09,2.9,4.33,2.49,6.18,4.24-0.68-.64-1.6,4-1.62,3.59,0.05,0.87,2.65-.25,3-0.07,3.32,1.71-9.59,3.1-9,2.75-2.09,1.17-7.75,6.4-9.3,8.35-7.83,9.86,8.65,2.14,11.77,2,0.91-.05.59,2.34,2.37,2.27s3.71-2.61,4.09-2.64c2-.18,7.6,2.69,9.38,1.44,3.19-2.24-.25-14.94,1.34-19.23,2.75-7.41,8-10.68,6.65-19.45C2026.09,87.65,2027.54,97.48,2026.82,92.84Z" transform="translate(-1686.52 77.14)"/><g class="cls-84"><path class="cls-85" d="M1775,27.63c5-4.84,3.4-12.8-3.48-15.54s-13.33,1.17-16.33,7.2c-1.49,3-2.24,7.34-.66,10.59s4.84,5,7.94,6.22a12.88,12.88,0,0,0,10.8-.39c2.88-1.41,3.17-3.47-.31-3.54C1773.5,30.85,1779.66,28.58,1775,27.63Zm-8.92,5.64c-0.39.71-2.5,0.52-3.19,0.49a9.69,9.69,0,0,1-4.27-1.15,11.16,11.16,0,0,1-1.44-1.19c-0.27-.25-1-1-0.7-1.39s1.81,0.59,2.14.72a13.71,13.71,0,0,0,4.67,1.28,8.79,8.79,0,0,1,2.25,0A1,1,0,0,1,1766.12,33.27Zm-7.38-8.22c0.38,0,.56,1.11.64,1.35a2.83,2.83,0,0,0,1.24,1.57c0.74,0.44,4.69.43,4.54,1.37-0.23,1.32-4.07.15-4.82-.2a3.32,3.32,0,0,1-1.91-2.23C1758.36,26.61,1758.28,25.06,1758.74,25.05Zm6.53-10a19.12,19.12,0,0,0-4.38,2.36,11.25,11.25,0,0,0-1.89,1.81,2,2,0,0,1-1.71,1.07c-0.4-.06,2.07-3.82,2.33-4.1a8.28,8.28,0,0,1,4.51-2.5C1765.49,13.42,1767.31,14.2,1765.27,15Zm6.9,14.38a3.26,3.26,0,0,1-2.22,2,2.29,2.29,0,0,1-1.78,0,2,2,0,0,1-.85-1.39c0-.8,1.39-0.37,1.9-0.47a4.81,4.81,0,0,0,2.64-1.47C1773,26.91,1772.51,28.61,1772.17,29.41Z" transform="translate(-1686.52 77.14)"/></g><g class="cls-4"><path class="cls-86" d="M1789.71-3.4c0.48,13,2.51-2,3.46-2.93a7.79,7.79,0,0,0,1.31,1.49c2.55-2.8.23-13.12-4.39-11.75-4.93,1.46-.63,9.91-0.38,13.18C1789.75-2.28,1789.52-5.83,1789.71-3.4Z" transform="translate(-1686.52 77.14)"/></g><g class="cls-20"><path class="cls-87" d="M2010.56,103.23a4.62,4.62,0,0,0,0-5.08,4.82,4.82,0,0,1,3.84-4.48c1-1.25,6.76-6.76,8.28-6.39,6.19,1.52-.16,16.3-1.29,18.65-1.66,3.45-3.75,6.32-4.53,10.18-0.6,3,1.38,7.42-1.4,9.52-1.63,1.23-18.46-.12-18.45-0.3,0.38-8.31,15.86.59,14.57-9.95-1.19-9.78-9.22-2.14-1-12.14h0Z" transform="translate(-1686.52 77.14)"/></g><g class="cls-14"><path class="cls-88" d="M1736.76,68.71c4-.79,3.48-0.89,4.1-5.28-1.75,4.47-10.93,2.64-8.42,9.16a4.6,4.6,0,0,1,4.32-3.88C1738.2,68.43,1734.37,69.21,1736.76,68.71Z" transform="translate(-1686.52 77.14)"/></g><g class="cls-14"><path class="cls-89" d="M1713.85,67.35a17.14,17.14,0,0,1-4.16-2.54c-0.18,2.77,4.42,6.69,6.25,7.29a13.42,13.42,0,0,0-2.09-4.75C1712.62,66.38,1715.4,68.63,1713.85,67.35Z" transform="translate(-1686.52 77.14)"/></g><path class="cls-3" d="M1746.84,72.33c2.64-8.82-1.66-16.86-11.63-14.65-4.54,1-7.27,5.46-11.8,6.52-3.45.81-10-2.62-12.66-.38,2.51-2.21,6.76,1.6,9.43,1.26,6.15-.77,9.39-6,15-7.25C1745.19,55.61,1749.3,64.72,1746.84,72.33Z" transform="translate(-1686.52 77.14)"/><g class="cls-4"><path class="cls-90" d="M1744.06,59c-7.74-5.41-12.93,3.09-19.66,5-4.9,1.4-9-1.39-13.51-.08,3.69-3.43,11,.16,16.67-2.95C1732.94,58,1738.13,52.76,1744.06,59Z" transform="translate(-1686.52 77.14)"/></g><g class="cls-4"><path class="cls-91" d="M2032.49,22c-1.85,6.49-3.12,13.24-5.87,19.44-0.87,2-13.28,18.67-14.17,17.09,2.63,4.7,9.32-5.52,11.33-5.16,6.52,1.17-10,19.84-10,20-2,7.78,8.42-3.83,9.25-3.1,1.89,1.63,2.38,10.79,3.28,13.22,2.16,5.86,4.9,10.4,5.3,16.87,1.44-7.74-3.13-16.1-5.26-23.28-2.88-9.75-1.1-12.76.31-22.08,0.66-4.36-.51-8.37.47-12.79,1.53-6.86,4.35-13.07,5.38-20.19C2032.25,22.79,2030.3,37,2032.49,22Z" transform="translate(-1686.52 77.14)"/></g><g class="cls-4"><path class="cls-92" d="M1780.67,70.18c3.47-.82,10.22,6.09,13.17,7.55,4.75,2.35,10.24,2.48,14.59,3.7,5.82,1.62,8.11,2.58,9.89,7.76,0.77,2.26-1.73,15.13-4.25,13.89,1.36,0.67,4.68-2.88,4.88-2.68,0.59,0.6,1.42,13,1.3,14.43-0.42,4.75,2.56,3-2.07,3.76-1.6.26,4.86,6.93,5.54,7.35-3.31-4.67-3.83-15.82-4-21.71-0.13-5,1-10.59,0-15.47-1.08-5.33-3.25-6.91-9-8.91-3.67-1.28-8.68-.86-13-2.56-4.07-1.61-6.38-5.08-9.9-7.1-2.58-1.48-7.57-1.18-9.5-2.69a54.07,54.07,0,0,0,2.16,10.06c-0.05-.41-1.65-6.95.17-7.38h0Z" transform="translate(-1686.52 77.14)"/></g><path class="cls-93" d="M1820,142.45c2-1.11,5.34-1.54,7,.47C1825.2,140.57,1822.33,140.54,1820,142.45Z" transform="translate(-1686.52 77.14)"/><path class="cls-94" d="M1827.12,140.61c5.55-2,10.05,3.72,10.28,8.81,1.3-.35,7.21-1.1,8-2.33C1842.7,151.32,1832.91,135.19,1827.12,140.61Z" transform="translate(-1686.52 77.14)"/><path class="cls-95" d="M1848.43,143.66c2.07-2.36,13.43-6.41,11.63-1A13.55,13.55,0,0,0,1848.43,143.66Z" transform="translate(-1686.52 77.14)"/><g class="cls-32"><path class="cls-96" d="M1781.63-27.26c0.47-1.27,5.46,6.08,8.52,5.28,2.43-.63,5.36-13.14,4.09-13.92,2.38,1.46,4.79,19,.25,20-0.41-.76.89-8.75-0.8-8.26-4,1.16-1.19,5.35-6.77,4.07-2.43-.56-6.29-4.46-5.3-7.18C1782.3-29.06,1781.06-25.71,1781.63-27.26Z" transform="translate(-1686.52 77.14)"/></g><path class="cls-97" d="M1788.31-15c-1.53-.91-15.86-17.35-11-18.39-2.9.62,0,8.71,0.76,10.22-1.86-1.5-5.91-11.86-3.62-12.29-7.45,1.38,3.31,13.13,4.61,14.4,2.93,2.85,6.84,4.66,9.22,6.06C1781.72-18.93,1788.59-14.85,1788.31-15Z" transform="translate(-1686.52 77.14)"/></g></g></svg>