<svg xmlns="http://www.w3.org/2000/svg" viewBox="0 0 217.84 248.23"><defs><style>.cls-1{isolation:isolate;}.cls-2,.cls-23{fill:#2f2e1c;}.cls-3{fill:#cbbf92;}.cls-4{fill:#666;opacity:0.5;}.cls-11,.cls-23,.cls-25,.cls-26,.cls-4,.cls-7,.cls-8,.cls-9{mix-blend-mode:multiply;}.cls-5{fill:#464131;}.cls-27,.cls-28,.cls-6{fill:#dcc593;}.cls-7,.cls-8{fill:#bb9554;}.cls-23,.cls-7{opacity:0.3;}.cls-11,.cls-8{opacity:0.6;}.cls-9{fill:#33261d;}.cls-27,.cls-9{opacity:0.4;}.cls-10,.cls-11{fill:#cda55e;}.cls-12{fill:#18190c;}.cls-13{fill:#373630;}.cls-14{fill:#919080;}.cls-15,.cls-19{fill:#8c4312;}.cls-16{fill:#8b5611;}.cls-16,.cls-19,.cls-24,.cls-28{mix-blend-mode:screen;}.cls-17{fill:#161615;}.cls-18{fill:#fff;}.cls-20{fill:#e0dcc2;}.cls-21{fill:#83272e;}.cls-22{fill:#d8a2a5;}.cls-25{fill:#3b3923;}.cls-26{fill:#4d4024;opacity:0.7;}</style></defs><title>anim_76</title><g class="cls-1"><g id="Layer_1" data-name="Layer 1"><path class="cls-2" d="M526.56-71.19c-3.09,0-9.82,3.47-9.12,7.59,0.1,0.65,9.45-7.59,9.12-7.59h0Z" transform="translate(-517.38 304.26)"/><path class="cls-2" d="M530.43-69.48c-3.63-4.27-9.83,7.49-9.76,9.22,0-.63,10.64-8.2,9.76-9.22h0Z" transform="translate(-517.38 304.26)"/><path class="cls-2" d="M534-67.76c-5.64-1.34-6.88,8.46-8.46,8.68,1.13-.16,11.15-8.92,8.46-8.68C532.15-68.21,534.69-67.82,534-67.76Z" transform="translate(-517.38 304.26)"/><path class="cls-2" d="M565.6-76.13c-6.91-3.5-23.13.75-30.33,2.19-5.93,1.18-20.62,3.91-12.34,10.51,6.19,4.93,22.05-.05,29-1,1.63-.23,22.08-7.35,13.7-11.67C563.15-77.37,566.41-75.72,565.6-76.13Z" transform="translate(-517.38 304.26)"/><path class="cls-3" d="M564.85-71c-5.89,2.51-7.87,5.16-15.1,5.86-2.81.27-17.12,3.86-19.13,2.26-6.1-4.87,12-7.29,15.72-8.86-4.31,1.71-9.53.9-13.68,2.9-2.31,1.11-7.33,7.77-9.05,4.16-2.32-4.86,14.47-8.3,17.33-8.72-2.42.4-21.06,6.6-20.07,7.38-4.27-3.47,52-16.39,44-5C564.76-71,565.53-72,564.85-71Z" transform="translate(-517.38 304.26)"/><path class="cls-4" d="M565.94-74c-1.71-5.18-23.63.07-27.64,0.95-2.73.6-21.18,6.2-16.18,7.65,1-6.56,14.88-6.67,18.79-7.79-0.74.13,3.31-1,2.83,1.18-0.34,1.54-18.13,5.33-18.23,4.72a2.37,2.37,0,0,1,1.43-2c-5.06,1.66-4.27,6.2.65,4.78,1.26-.36,4.54-3.92,6.77-4.75,3.84-1.44,8.14-.94,12-2.47q0.14,0.38-.4.37c0.38,0,4.8.6,4.89,2.11,0.13,2.89-22.75,4.64-20.12,2.29-9.15,5.62,12.27,2.25,13.41,2.12,3.87-.42,24.7-0.46,21.82-9.19h0Z" transform="translate(-517.38 304.26)"/><path class="cls-2" d="M562.16-68.15c-0.78-2.85-10.37,6.59-10.54,8.49,0.22-2.51,11.42-5.17,10.54-8.49h0Z" transform="translate(-517.38 304.26)"/><path class="cls-2" d="M564.11-67c-5.15-.33-7.6,7.15-10,10.14-0.25.39,11.54-10.06,10-10.14C562.15-67.1,564.34-67,564.11-67Z" transform="translate(-517.38 304.26)"/><path class="cls-2" d="M568.42-66c0.59-3-14.26,8.83-10.59,9.93,0.93,0.28,12.16-7.8,10.59-9.93C568.46-66.14,568.8-65.46,568.42-66Z" transform="translate(-517.38 304.26)"/><path class="cls-5" d="M735.17-85.11c-0.45.24-14.75,4-2.42,0.64q1.67-1,.44-1.69c-3.71,1.31.49,0.36-3.85,1,0.06,0,1.83-1.24,1.76-1.88-15.9,5.48-29.64,7.14-46.79,7.89S644.46-77.74,629-87q1.18,0.93,1.49-.21a26.05,26.05,0,0,1-5.5-3.32q2.49,2.63,3.71.73c-3.88-3-9.27-5.32-11.5-10-0.26-.53,3,1.15,3.13,1.1-2.89-3.57-6.08-7.08-8.55-11,1.18,1,2.58,2.59,4.17,3-1.5-.35-7.06-12.06-8-14.22a103.31,103.31,0,0,0-2.82-12c3.35,3-.59-4.61-0.59-4.63-0.81-4.52-1.45-9.94-3.6-14.24,1.6,2.68-.31-5.82-0.36-5.95,1.12,1.79-.68-12.05-1-13.86,0.14,0.25.77,3.42,1.18,3.21,1.34-.66-2-16.27-2.36-17.28q0.75,1.38,1.6.38a12,12,0,0,0-2.55-5.53c3.38,3.38,1.39-4.59,1-6.69-0.92-4.63-2.33-10.91-5.19-14.89q0.56,1.37,1.38.35c0-3-2.18-5.22-3.77-7.5q1.23,2.16,2.59,1.1a5,5,0,0,0-1.5-4.29c3.34,1-.5-3.62-1.49-4.12q2.34,0.64,3.21-1a4.7,4.7,0,0,0-4.95-3,2.75,2.75,0,0,0,2.58-2.2,3.52,3.52,0,0,0-4.41,1c-1,4.9,2.82-4.54,1.72-4.25a6,6,0,0,0-3.53,3.47c0.56-19.64,37.1-29.12,16.38-48.11-4.54-4.16-10.54-4-15.27-6.88-3.71-2.29-6-5.81-10.83-6.72-5.06-1-12.86.8-18.08,1.17-11.21.8-13.92,9.35-22.6,14.42-6.88,4-16.91,12.24-12.43,22.39,2.84,6.42,8.25,3,11.93,5.57,0.77,0.55.75,2.05,1.44,2.55,2.15,1.56,11.45,8.21,12.17,10.27,0.55,1.59.57,5.83-2.78,4.63,6.69,2.39,1.41-.4.61,4.62q1.5,0.86,2.75-1.29c-3.4,3.48-3.37,8.2-3.78,11.45s-5.8,7.32,1.2,2.42c-5.88,12-16,23-18.57,36.26a33.61,33.61,0,0,0,.68,16.35c0.39,1.33,0,8.58,2.09,4.39-0.33,2.34,5.85,12.74,2,13.57,3.91-.86,1.13-1.51.29,3.46q0.84,0.61,1.37-.66c0-.1-2.08,10.57-0.07,6.79-0.58,4.79-5.11,7.69-6.45,13-0.23.92-.67,14.63-0.5,14.57a2.61,2.61,0,0,0,1.07-2.75c-1,11.66,4.46,31.51,15.4,38.79q2-.63.66-3.09c0.63,1.14,13.91,10.56,13.91,6.73,0.11,0.06-2.15,4.46-.18,7,1.7,2.17,1.49,1.54,3.67,2.19,8.27,2.48,21.5-2,30.36-2.59,7.43-.47,22.81.2,17.41-10.18,1.06,0.67,1.19,1.23,2.84,1.2-3.67-2.49-1.47-6.62-1.07-10,0.88,1.46,3.17,2.9,2.74.75,13.7,17.35,49.85,13.61,68.92,11.71,18.6-1.85,38.6-4.58,52.78-16.18h0Z" transform="translate(-517.38 304.26)"/><path class="cls-3" d="M602.87-64.17c-11.11,1.25-22.67,2.58-33.66,3.5-14,1.17-3.43-5.82,3.59-7.89-2.74.86-14,2-12.59,7.56-6.59-2.43,8.3-9.38,9-9.49-3.87.66-10.86,3-11.67,7.8-8.23-3.32,14.71-9,15.21-9,6.93-.34,12.67-2.21,16.5,3q1.3-.27.8-1.87c1.54,1.91,12.59,6.44,12.84,6.41h0Z" transform="translate(-517.38 304.26)"/><path class="cls-4" d="M568.68-70.4c1.07-.25-17.13,5.31-11.16,7.71,0.77-4.59,7.38-7,11.16-7.71h0Z" transform="translate(-517.38 304.26)"/><path class="cls-4" d="M560.19-61.47c0.56-5.67,9.13-6.54,13.2-7.12-2.45-.24-12.29,2.62-11.33,1.24-3.62,2.76-1.79,5.34-1.87,5.89C560.39-63.53,560.17-61.3,560.19-61.47Z" transform="translate(-517.38 304.26)"/><path class="cls-4" d="M602-65.28c-1,1.11-11-4.13-12-5.3q0.5,1.61-.8,1.87c-2.34-3.16-.25-3.27-4.54-3.09-3.91-2.15,5.57,3.58,3.18,1.36,1.23,1.09,4,3,4.85,4.59-2.35-4-27.8,3.4-28.27,1.3-0.34-1.44,2.35-2,3.1-2.27-11.6,3-3.34,6.66,3.6,5.55,10.78-1.73,21.64-1.34,32.47-3l-1.61-1C601.93-65.19,602.5-64.88,602-65.28Z" transform="translate(-517.38 304.26)"/><path class="cls-6" d="M733.48-84.16l-1.72,1.27c-3.87,1.22-11.78,6.2-17.87,7.85a186.47,186.47,0,0,1-37.16,5.88c-12.81.79-26.27,1.32-38.91-1.31-1.71-.36-25.15-9.35-22.61-11.22a1.22,1.22,0,0,0,.35,1.71q-0.71-2.51-2.69-2.66a1.88,1.88,0,0,0,0,2.41c-3.37-1.24-2.35-14.7-3.54-18.29A11,11,0,0,1,611-95.2c0.4-8.4-2.09-20.68-6.73-28,0,1.52,5.86,13.57,2.18,8.3a98.82,98.82,0,0,1,3.1,12.82c-2.9-8.79-.53.64,0,2.46-1.67-1.75,1.93,11.48,1.16,14a14.82,14.82,0,0,0-2.16-6.72c0.72,1,1.38,6.26,1.44,7.42-2-3.27.08,15.63-1.48,7.21-0.58,3.86.68,4.34,1,7.74-4-5.74-.64,1-1.3,3.73q0-2.91-1.88-3.08c-0.8-1.87,2.17,6,.47,4.73-2-1.46-4.32-5.18-2.77-.79a21.23,21.23,0,0,1-5.31-3.49q0,2,2.65,3.1c-3.69-1.06-6.33-3.7-9.66-5.19q0.88,0.93.08,1.34a18.22,18.22,0,0,1-2.41-2.71q1.5,2.34-.06,2.71a6.1,6.1,0,0,0-2.8-4.23c1.33,2.47-6-3.54-6.81-4.73q2.15,2.14.62,3.13c-4.51-3.06-7.87-13.17-9.17-19.34a1.1,1.1,0,0,0-.24,1,24.49,24.49,0,0,1,0-13.65c-0.61,1.91-1.54,3.68-1.82,6a30.5,30.5,0,0,1,.25-11.73,2.57,2.57,0,0,0-1.52,2.22c0.21-7.61,8-13.7,13-18.29-14.81,6,15.93-11.8,1.12-3.48,2.29-1.67,5.74-4.49,8.35-5.32,0.22-.07,9-2.64,7.66-0.57-5.1-5.35-15.26,4-18.65,7.63-3.67,4-8.81,9.33-10.95,14.41-0.58,1.38-2,9.13-1,8.68a4,4,0,0,0,1.25-3.47c-1.71,5.83-.08,14.31,1.82,20,0.34,1,9.85,18.14,10.85,17a1.51,1.51,0,0,0-.23-1.86,21.11,21.11,0,0,0,5.17,3.79c-6.32-.19-13.72-1.21-20,0.31-2.33.56-4.35,2.25-6.53,2.73-1.37.3-6.08-2.93-3.32,0.16-2.73-.46-4.65-2.43-7.14-3.22-1.93-.62-5.63-6.41-1.13.58,0.12,0.08-5.86-6.42-5.31-6.82q-1.51,1.95.36,4.66a11.75,11.75,0,0,1-3-6.12q-1.23.39,0,2.2a36.76,36.76,0,0,1-5.86-12.42q-2.26.78,0.56,4.24a45.31,45.31,0,0,1-5.77-13.1c-0.29-1.17-.32-8.73-1.21-5.5a50.78,50.78,0,0,1,.67-9.24q-1.4-.4-1.38,1.61c0.14-2.56,1.19-4.48,1.51-6.86a10.44,10.44,0,0,0-1.32,2.41c1-8.76,4.52-12.43,8.88-19.73q-1.5-.75-2.2,2.29c0-.2,1-5.56-0.71-2.53a15.3,15.3,0,0,1,1-6.28c0,2.2.62,3,1.92,0.38,2.67,17,15.14,4.18,9.45-6.7,1.52,0.86.83-1.14,0.23-2,2.75,1.84-2-5.12-2-5.15a0.92,0.92,0,0,0,1.4-.58c-7.39-5.36-5.53-20.29-3.42-27.4a26.47,26.47,0,0,0,1.26,7.95c1.05,1.44,2.29-5.37,1.7-3.1-0.11,1.58-.32,8.87,2.4,9.22-2.06-2.84-2.14-8.42-2-11.55a4.44,4.44,0,0,0-1.52,3.51c-1.14-3.38.93-7.07,1.56-10.29-0.33,1.38-2,4.12-2.44,5.55,0,0,4.46-24.06,6-22.48a2.07,2.07,0,0,0-2.14,1.41,51,51,0,0,1,3.92-6.09q-1.09-.71-2,0.8A20.16,20.16,0,0,0,552-215.2c-0.7,1.06-6.63,8.11-2.58,5.69-0.86,1-4.49,7.65-3.18,6.56-4.43,7-8,23.36-7.35,31.56,0.34,4.41,1.58,11.41,5,14.15a1.13,1.13,0,0,0-1.09,0c1,1.81,3,2.84,3.4,5.09-3.71-2.57,3.23,10.91-1.61,15.38,0.83-2.45.29-5.88-.16-8.23,0.37,2.41.21,8.28-1.76,10.4-0.15-.15-0.48-7.58-0.71-8.5,0.21,0.93,1.47,7.54-.35,8.45,0-2.39-1.7-5.62-3-7.73,0.48-1.41,2.59,9.16.86,7-0.27-.31-4.16-11.14-2.91-10.95-1,9-1.56,3-1.7,1.69-1.26,1.37-1.1.7-1.8,1.39a13.66,13.66,0,0,0,1.25-4,2.65,2.65,0,0,1-1.22.52c2.21-2.74-1.93-8.1-1.69-10.93a2,2,0,0,0-.52,1.75,9.48,9.48,0,0,1-.28-4.8q-1-.15-1,1.18c1-3.48-2-8.12-2.36-11.79-0.83-8.78,3.34-16.69,7.67-24s11.63-15.89,12.32-23.93a5,5,0,0,1-3.25,3.51c0.41-1,6.38-8.24,1.67-4.26,0.5-1.64,3.18-3.12,3.39-4.6q-1.71-1.67-3.56,2c0.46-2.87,4-6.51,6-7.71a23.09,23.09,0,0,0-4.12,3,41.69,41.69,0,0,1,2.65-3.74q-1.37-1.66-3.58,1.27c1.09-3.12,5.62-3.31.66-4,3.79-.84.88-5.08,3.9-0.15-1.17-9.6-14.07-11-16.07-20.59q-1.39.46,0,2.6c-2.84-2.24-4.44-5-3.94-8.61q-2.06-.44-2.15,2.81a69.1,69.1,0,0,1,1.44-6.76,14.73,14.73,0,0,0-2.92,3.54c0.17-2.36,6.16-9.89.22-5.3,1.14-3.66,3.47-3.51.16-3a9.5,9.5,0,0,0,4-4.35c-0.52,1-9.29,6.66-3,4.65a7.79,7.79,0,0,0-1.85,3.36q1.44,0.81,2.56-1.37a13.06,13.06,0,0,0-2.7,6.88q2.27,0.41,2.81-3.06a12.35,12.35,0,0,0-1.32,6.71q2-.13,2-2.81c-0.06,2.69,1,5.84,3.26,7.49-10.3-.49-12.34-8.15-8.8-16.59,3.06-7.29,5.48-7.21,11.87-10.89,4.77-2.75,7.47-8.49,12.34-11.24,4.16-2.35,8.37-1.45,12.88-1.79,1-.08,7.88.34,2.35-0.4,9-.66,12-0.26,19.46,4.42,4.17,2.62,7.1,2.36,11.41,4.39,10.22,4.82,18.12,19.32,4.89,25.38a10.11,10.11,0,0,0,.24-7.85c1.95,2.32.21-4.55-1-5.66q1.08,1.43,1.91.35a7.83,7.83,0,0,0-3.55-5.31q1.29,1.36,2.08,0a7.19,7.19,0,0,0-3.94-3.43,2.38,2.38,0,0,0,2.22-.81,68.43,68.43,0,0,1-8.17-1.42,12.21,12.21,0,0,0,5.59,1.67c-2.57,1,2,2.46,2.81,3.4q-2-1.68-2.55,0a9.89,9.89,0,0,1,4.81,5.46c-6.08-2.9.74,2.36,0.54,5.44-3.48-3.69-1.18,18-3.94,7.27,2,10.43-14.9,16.82-12.39,29.19a18.2,18.2,0,0,1,2.21-4.3c-3.51,7.32,1.32.91,3.4,1.7q-3.14.51-2.45,2.44a4.94,4.94,0,0,1,5.25,2.29,4.24,4.24,0,0,0-4.18.88,43.81,43.81,0,0,1,3.37,3.23q-1.37-1.57-2.79-.77c-0.06.07,3.52,5.16,3.55,5.57q-1.77-2.49-2.92-1a26.39,26.39,0,0,1,3.81,7.09c-4.19-3.42,2.42,9.07,2.76,12.23-4.54-5.48.6,2.84,0.95,4.21q-0.88-1.56-1.58-.4a11.47,11.47,0,0,1,2.86,6.52c-4.69-3.93.15,2.5,0.49,4.31-4.15-3.53-.48,5.73-0.31,7.31-3.82-10.4.47,4.58,0.77,6.06-1.81-2.44.25,7.42,0.25,7.48-4.19-8.44.58,4.72,0.76,6-4.44-5.71.36,4.86,0.48,6.45-3.66-6.09.74,6.36,0.74,6.39,1.15,4.24,1.52,8.15,3.27,12.27q-0.76-1.1-1.4-.14a18.81,18.81,0,0,1,2.11,5c-3.23-2.54,1.78,6.11,2,7.18q-0.41-1.85-1.36-.8a40.47,40.47,0,0,0,8,14.5,8.59,8.59,0,0,1-4.09-3.58c1.1,4.7,4.59,8.8,8.19,11.87q-1.23-1.92-2.22-.83c3,5.13,5.07,7,10.32,10.36q-1.77-1.64-2.48-.3c9.82,13.1,37.6,13.2,52.87,13,17.18-.26,35.56-0.36,51.5-7.39-1.31,1.72.89,0.46,2.15,0.11q0.23,1.25-1.68,1.43c1.37-.47,4.48-2.68,2.51-0.1q1.53-1.64,1.79-.44C732.95-83.67,733.61-84.27,733.48-84.16Z" transform="translate(-517.38 304.26)"/><path class="cls-3" d="M597.74-279.07q-0.53-2.06-2.05-1.15l2.05,1.15C597.42-279.58,597.11-279.54,597.74-279.07Z" transform="translate(-517.38 304.26)"/><path class="cls-2" d="M589.11-285.17a2.39,2.39,0,0,1-1.8-.27c1.43,1.32,1.13,1.48-1.48.52,0.64,0.51,11.26,5.68,12.07,3.89a2.38,2.38,0,0,1-2.22.81,7.19,7.19,0,0,1,3.94,3.43q-0.78,1.32-2.08,0a7.83,7.83,0,0,1,3.55,5.31q-0.83,1.07-1.91-.35c1.49,1.36,2.78,7.77,1,5.66a10.11,10.11,0,0,1-.24,7.85c8.73-4,8.79-8.38,4.17-16.25-4.81-8.2-7.39-7-15-10.56C589.06-285.15,589.69-284.89,589.11-285.17Z" transform="translate(-517.38 304.26)"/><path class="cls-7" d="M539.13-141c0.08,0.82-.26,2.34-1.39,1.38a11.63,11.63,0,0,0,1.81,4.27c1.2,1.46-.43-5.67-0.42-5.65C539.22-140.13,539.44-140.25,539.13-141Z" transform="translate(-517.38 304.26)"/><path class="cls-7" d="M535.37-144.58c0.46-.19.63-6,0.6-6.13q0.86,3.11-1,3.07c-0.23-2.87-1.62-4.64-3.07-7,0.68,2.11,3,5.78,1.25,7.89a2.65,2.65,0,0,0,1.22-.52,13.66,13.66,0,0,1-1.25,4c0.7-.69.54,0,1.8-1.39,0.58,5.26,3-1,.42,0h0Z" transform="translate(-517.38 304.26)"/><path class="cls-7" d="M541.42-138.73c-0.24.45,0.23,1.66,0.23,4.07,1.56-.78.15-7.63,0.28-6.85l-0.5,2.78C541.37-138.64,542-139.57,541.42-138.73Z" transform="translate(-517.38 304.26)"/><path class="cls-7" d="M600.67-279.45q-0.65,1-2-.19c-0.51-.33,6.46,6.91,3.54,5.61a5.82,5.82,0,0,1,1.13,4.46c-0.07.36-3.87-2.13-4.14-2.3,1.49,1.36,2.78,7.77,1,5.66a10.11,10.11,0,0,1-.24,7.85c7.7-3.53,8.93-7.71,5-14.9-1.76-3.23-6.25-12.1-11.13-10.53a17,17,0,0,1,6.82,4.35h0Z" transform="translate(-517.38 304.26)"/><path class="cls-8" d="M733.38-84.44l-1.69.71c2-2.58-1.14-.37-2.51.1q1.91-.19,1.68-1.43c-1.26.35-3.46,1.61-2.15-.11-15.94,7-34.32,7.13-51.5,7.39-15.27.23-43.06,0.11-52.87-13q0.71-1.34,2.48.3c-4.88-3.14-7.42-5.44-10.32-10.36q1-1.08,2.22.83c-3.6-3.07-7.08-7.17-8.19-11.87a9,9,0,0,0,4.09,3.58,40.47,40.47,0,0,1-8-14.5q0.94-1,1.36.8c-0.26-1.07-5.27-9.72-2-7.18a18.81,18.81,0,0,0-2.11-5q0.65-1,1.4.14c-1.74-4.12-2.12-8-3.27-12.27,0,0-4.4-12.48-.74-6.39-0.12-1.59-4.92-12.15-.48-6.45-0.17-1.28-4.95-14.44-.76-6,0-.06-2.06-9.93-0.25-7.48-0.3-1.48-4.59-16.46-.77-6.06-0.17-1.58-3.84-10.84.31-7.31-0.35-1.81-5.18-8.24-.49-4.31a11.47,11.47,0,0,0-2.86-6.52q0.7-1.15,1.58.4c-0.34-1.37-5.49-9.69-.95-4.21-0.4-3.7-6.68-15.43-2.76-12.23a26.39,26.39,0,0,0-3.81-7.09q1.15-1.51,2.92,1c0-.42-3.61-5.51-3.55-5.57q1.42-.8,2.79.77a43.81,43.81,0,0,0-3.37-3.23,4.24,4.24,0,0,1,4.18-.88,4.94,4.94,0,0,0-5.25-2.29q-0.69-1.92,2.45-2.44c-2.08-.79-6.91,5.62-3.4-1.7a18.2,18.2,0,0,0-2.21,4.3C582.12-242.33,599-248.77,597-259.2c2.76,10.74.38-11.06,3.94-7.27,0.2-3.08-6.62-8.35-.54-5.44a9.89,9.89,0,0,0-4.81-5.46q0.56-1.69,2.55,0c-0.82-.95-5.38-2.45-2.81-3.4a12.21,12.21,0,0,1-5.59-1.67q0.08-.32.31-0.1c-2.76-2-4.77-4.92-7.83-6.87-6.84-4.36-10-3.72-18-3.13,6.32,0.86-7.95.23-9,.43-6.82,1.28-9.6,4.84-14.25,9.72a20.25,20.25,0,0,1,5.14-3.36c-4-.45,4.59-3,4.68-3q-1.53.59-1.45-.43a16.5,16.5,0,0,1,5.65-1.24c-3.08-.92,5.26-1.67,6.35-0.77a1.23,1.23,0,0,1-1.61.62q4.78,2.95,2.94.49a0.7,0.7,0,0,1-.34-1.07q2.9,3,4.18-.8,1.08,0.5-.32,2a8.76,8.76,0,0,1,4.86-2.27q0.33,1-1.08,1.36,2.38-.43,4.71-1.08c0.39-.08-1.15,1.48-0.83,1a4.74,4.74,0,0,1,4.43-.06q-0.44,1-1.88.48a5.2,5.2,0,0,1,4.13,2.06c-0.59-.92-8.43,1.28-5.38-1.12-3,.58-4.86,3.35-3,0.39-0.11,0-3.37,3.78-2.76.91,0.94-1.17-4.55,10.49-2.23,1,0.22-.33-3.13,5.81-1.8,1-2.12,2.47-2,4.49-2.48.81-0.34,4.51-.62.23-1.16-0.62,0.4,3.33-1.37-.7-2.34-1.44,0.94,3.09-1.8-.07-3.17-0.3,4.25,2.5-5.42,1-6.47,1.45,4.38-.53-5.69,3.82-6.71,5.71a5.12,5.12,0,0,1,3.41-.78q-0.32,1.54-2.56,1.38c6.24-1.61-.07,1.42-0.07,1.42,6.58-.78-2.8,1.63-3.73,1.78,2.83,2.56-.84,1.57-3.25,4.64,3.41-1.7-4.16,3.73-1.58,1.91a9.14,9.14,0,0,0,3,.36q0.56,1.88-2.51,2.66c2.4-.66.71,0.11,0.49,2,4.24-4.28,1.49,2.32,2.18,5,2-7.77,1.71-1.55,2.58,1.13,0.14-2.13.27-2.54,1.34,0.19,0-2.43,4.42,2.66,5.15,3a4,4,0,0,1-.35-1.69c0,0.1,3.45,2.11,3.5,2.21s-0.36,6.81,1.76,8.92c0.21-1.56,4.92,1.77,5.85,2.93,0.32,1.55,13.07,3.67,16.91-1.48a6.1,6.1,0,0,1-.5,1.61c0.62-.46,3.3-5.59,3.15-2.53,1.42-.67,3-5.34,3.06-2.28,0.08-.09,2.12-3.54,1.54-0.73,0.34-.55,1.93-5.22,1.84-1.31-0.58,1,1.94-5.77,1.84-5.34-1.81,3.61-1.77-2-1.79-1.94,0.5-1,2.89-2.29,1.85.19,1.45-.87,4.8-6.56,2.65-0.74,1.47-.63,4.6-9.75,4.17-4,0.32-.43,1.51-6.43.49-6.6a5.31,5.31,0,0,1,3.53,5q-1.76,1-2.87-2.18c0.17,2.28-1.48,7.86-1.4,8.29a11.48,11.48,0,0,1-2.05,5.73q-2-.29-0.49-3.58c-0.51,3.61-1.56,7-2.38.75,0.06-.45-2.15,6.62-2.15,4.38a6.79,6.79,0,0,1-2.87,3.88q-0.89-.66.18-2c-0.32.68-5.23,7.08-2.77,2.53-4.21,5.27-12.66,7.95-18.93,4.69q1.58,0.88.79,1.75c-3.16-.34-5.41-3-7.68-4.92,0.54,2.22,1.5,4.21-2.35-.33q2.18,1.8.89,3a9.65,9.65,0,0,1-4.24-4.45q1.08,2.16-.35,2.66a8.28,8.28,0,0,1-1.78-6.39,1.15,1.15,0,0,1-.64,1.55,5.16,5.16,0,0,1-.48-4.49c-0.55.36-4.22,9.1-2.86,0q1.42,3.36-.66,4.82a15,15,0,0,1-3.48-5.92q0.91,1.85-.36,2.4c-1.55-3.5-2.8-6.65-1.88-10.67q-0.59,2.54-2.45,2.55a10.88,10.88,0,0,1,1-6.13c-2.33,1.26-2.35.76,0.48-2.11-2.46.27-3.51,1.87,0.36-1.89-1.63-.48-7.29,1.46-0.28-2.53-2.12.28-3.18,0.74,1.57-2.33-6.71,2.21-.29-2.55,1.74-4-3.29.83,13.6-8.63,3.31-3.14-7,1.39-8.25,9.47-14.12,12.72,3.31-.54,1-0.69-0.16,3,5.94-4.59,0,2.94-.22,5.3a14.73,14.73,0,0,1,2.92-3.54,69.1,69.1,0,0,0-1.44,6.76q0.09-3.24,2.15-2.81c-0.5,3.63,1.1,6.36,3.94,8.61q-1.36-2.14,0-2.6c2,9.59,14.9,11,16.07,20.59-3-4.93-.11-0.69-3.9.15,5,0.7.43,0.89-.66,4q2.21-2.93,3.58-1.27a41.69,41.69,0,0,0-2.65,3.74,23.09,23.09,0,0,1,4.12-3c-1.89,1.12-4.89,4.12-5.74,6.65,1.48-1.4,4-3.21,6.22-2.9-0.46-.07-4.2,4.62-4.25,4.71,6.39-3.69-.58,2.37-0.13,1.82,3.72-1.43-.11,2.9-0.6,4.36,4.57-3-1.14,3.33-1.66,4q1-1.14,1.51-.33-2.13,2.73-4.12,5.55,0.91-1.37,1.43-.53-2.12,2.77-4.28,5.5c-3.35.5,2.47-1.07,2.46-1.16-0.21-.1-6,8.71-6.29,9.18,5.43-6.38-2.71,6-2.94,6.3q1.6-1.86,2.41-.68a60,60,0,0,0-4.6,6.86c4.85-3,.07,2.78-0.54,4.91q0.55-1.65,1.24-.89a14.18,14.18,0,0,0-1.24,7.48q-0.18-2,1.16-2.13c-0.6,0,2.18,10.35,1.87,9.71,0-.24,1-5.39,1-5.52a23.09,23.09,0,0,0,1.12,7.56q-1-2.71.65-2.92a38.49,38.49,0,0,0,1.21,8.62q-1.62-3,.28-3.42a15.43,15.43,0,0,0,2.45,6.84q-1.89-2.42-.24-3.25c1.13,2,4.43,15.15,2.62,13.14-0.6-2.64.59,6.64,0.14,6.19,2-2.12,2.14-8,1.76-10.4,0.44,2.34,1,5.78.16,8.23,4.24-3.93.5-9.46,0.35-13.39,0-.09-2.09-4.31,1.25-2-0.44-2.25-2.38-3.28-3.4-5.09a1.13,1.13,0,0,1,1.09,0c-3.36-2.68-4.7-9.85-5-14.15-0.65-8.42,2.82-24.36,7.35-31.56-1.17,1,2.17-5.37,3.18-6.56-3.86,2.31,1.84-4.57,2.58-5.69a20.16,20.16,0,0,1-3.37,5.51q0.92-1.51,2-.8a51,51,0,0,0-3.92,6.09,2.07,2.07,0,0,1,2.14-1.41c-1.53-1.58-6,22.51-6,22.48,0.46-1.43,2.1-4.16,2.44-5.55-0.63,3.22-2.7,6.9-1.56,10.29a4.44,4.44,0,0,1,1.52-3.51c-0.13,3.13,0,8.71,2,11.55-2.73-.35-2.51-7.63-2.4-9.22,0.58-2.28-.65,4.54-1.7,3.1a26.47,26.47,0,0,1-1.26-7.95c-2.11,7.1-3.95,22.06,3.42,27.4a0.92,0.92,0,0,1-1.4.58s4.78,7,2,5.15c0.6,0.89,1.29,2.89-.23,2,5.6,10.69-6.75,23.81-9.45,6.7-1.3,2.59-2,1.82-1.92-.38a15.3,15.3,0,0,0-1,6.28c1.72-3,.72,2.33.71,2.53q0.69-3,2.2-2.29c-4.32,7.25-7.91,10.91-8.88,19.73a10.44,10.44,0,0,1,1.32-2.41c-0.32,2.38-1.37,4.3-1.51,6.86q0-2,1.38-1.61a50.78,50.78,0,0,0-.67,9.24c0.89-3.23.91,4.33,1.21,5.5a45.31,45.31,0,0,0,5.77,13.1q-2.82-3.46-.56-4.24A36.76,36.76,0,0,0,540.13-78q-1.21-1.81,0-2.2a11.75,11.75,0,0,0,3,6.12q-1.87-2.71-.36-4.66c-0.55.4,5.43,6.9,5.31,6.82-3-4.66-2-1.58,1.13-.58,2.64,0.84,4.16,2.73,7.14,3.22-2.34-2.63.52-.21,2.25-0.48,2.44-.38,4.89-1.73,7.6-2.41,6.23-1.56,13.74-.49,20-0.31A21.11,21.11,0,0,1,581-76.27a1.51,1.51,0,0,1,.23,1.86c-1,1.19-10.51-15.94-10.85-17-1.9-5.71-3.54-14.19-1.82-20a4,4,0,0,1-1.25,3.47c-1,.45.46-7.39,1-8.68,1.59-3.75,5-7.25,7.53-10.41,3.63-4.59,15.77-18.24,22.07-11.63,1-1.46-9.66,1.76-9.58,1.72a51.35,51.35,0,0,0-6.43,4.18c10.27-5.77,1.16-.1-0.56,1.09,5.43-2.38-.23,2-0.58,4a15.81,15.81,0,0,1,7-4.24q0.58,1.8-2.36,2.54a4.8,4.8,0,0,1,5.27.55q-0.58,1.65-3.11.74c2.88,0.48,5,3.56,5.65,6.16q-1.09,1-2.32-1.09c1.26,1.49,4,11.21,1.14,8.34,0.94,2.39,3.28,8.61-.8,4.48,2.5,4.67-.08,10.18,1.26,14.09A19.78,19.78,0,0,0,590-100.6c0.84,2.87,2.33,10.4-1.82,3.21,0-.2-0.6,10.33-0.65,10.25a65.7,65.7,0,0,1-2.88-6.57c0.59,3.66,1.34,9.19-2.12,1.78q1.31,3.63-1,4.53a11.19,11.19,0,0,1-3.41-7.25q2.55,4,0,5.27a17.41,17.41,0,0,1-2.48-8.89q0.14,2.24-1.39,2.65c-1.7-1.88-1.84-5.05-1.59-7.43q0,2.08-1.38,2.07a18.68,18.68,0,0,1-.16-7.3c-2.41,2.49-2.37,2.08-2.09-2.9a19.63,19.63,0,0,0,0,9.7c0.28-2.32,1.21-4.1,1.82-6a24.49,24.49,0,0,0,0,13.65,1.1,1.1,0,0,1,.24-1c1.3,6.16,4.71,16.31,9.17,19.34q1.53-1-.62-3.13c0.79,1.19,8.14,7.2,6.81,4.73a6.1,6.1,0,0,1,2.8,4.23q1.56-.37.06-2.71a18.22,18.22,0,0,0,2.41,2.71q0.8-.41-0.08-1.34c3.37,1.51,5.89,4.1,9.66,5.19q-2.66-1.06-2.65-3.1a21.23,21.23,0,0,0,5.31,3.49c-1.58-4.48.7-.71,2.77,0.79,1.7,1.24-1.27-6.59-.47-4.73q1.87,0.18,1.88,3.08c0.66-2.77-2.73-9.47,1.3-3.73-0.37-3.81-1.63-3.6-1-7.74,1.55,8.42-.49-10.47,1.48-7.21-0.06-1.16-.72-6.39-1.44-7.42a14.82,14.82,0,0,1,2.16,6.72c0.94-3.12-2.64-15.56-1.16-14-0.54-1.82-2.91-11.25,0-2.46a98.82,98.82,0,0,0-3.1-12.82c3.78,5.42-2.18-6.47-2.18-8.3,4.59,7.25,7.13,19.65,6.73,28a11,11,0,0,0-1.69-3.32c1.19,3.59.17,17,3.54,18.29a1.88,1.88,0,0,1,0-2.41q2,0.14,2.69,2.66a1.22,1.22,0,0,1-.35-1.71c-2.54,1.87,20.9,10.86,22.61,11.22,12.64,2.63,26.1,2.1,38.91,1.31A186.47,186.47,0,0,0,713.89-75c6.08-1.64,14-6.62,17.87-7.85q2.18-.35,1.62-1.54h0Zm-164.92-188q-1.61-4.25,0,3c1,2.72-15.79-23.35-1.57-3-0.44,4.57-.21,3.44-1.12,1-0.87,4.18-.92,4.42-1.32.52q0.25,3.07-1.54,2.83c0-1-.8-13,1.48-7.93-0.05-1.39-.59-4.17,1-0.12,0.73-4.47,1-3.74,1.4.16q-0.4-3,1.3-2.74c0.11,0.67.22,5.79,0.46,6.31h0Zm-21.58,93.06a18.77,18.77,0,0,1,1.24-5.17q-0.4,2.38-2,2.15a10.51,10.51,0,0,1,2.11-5q-0.53,4-3,3.7a12.13,12.13,0,0,1,3-7.9c-1.8.85-3,2.62-1.49-1q-0.74,2-1.93,1.4A13.32,13.32,0,0,1,548-197q-1.05,2.51-2.3,1.57a19,19,0,0,1,6-10.33c-5.76,2.11.33-1.89,1.74-2.78q-2.88,3.79-4.42,1.73a12.62,12.62,0,0,1,4.78-4.82c-2.16.67-5.29,2.71,0-1.81-5.62,2.46-.36-3,1.78-5.23-3.1.75-4.55,1.72-.08-1.28-0.84,0-6.73,1-1.15-1.27-8,.78.8-2.09,2.28-2-2.6-2.6-2.88-4.09,2.18-2.06q-3-1-2.3-2.82a5.69,5.69,0,0,1,4.79,2.36c0.52-3,.94-5.85,1.63-0.79a8.1,8.1,0,0,1,2.43-4.42c-0.41.34-.62,5.11-0.54,5.55,4-11.3,1.5.86,1.68-.5a14.49,14.49,0,0,1,3.88-4.3q1.36,1-1.18,2.74c7.09-6.72-.11,2.54-0.31,2.86a5.46,5.46,0,0,1,4.62-1q0,2.15-3.24,2.47a5.22,5.22,0,0,1,4.69,2.32q-0.63,1.15-2.32.22c6.05,3.89-2.09,2.58-2.87,2.75a7.62,7.62,0,0,1,4.07,3.45q-0.73.92-2-.29c2.45,3.77,2.27,3.87-.59,2.9,1.49,2.15,4.42,9.73-.61,4.12q1.75,2.49.07,3.06a6,6,0,0,0-1.9-3.46c1.72,5.63.66,4.28-.52,2.66q2.82,3.54.62,4.45-1.76.91-1.73-3.18c0.22,1.86,2.26,12.81-.94,4.68,0.07,0.57,0,8-1.45,4.05,0,0.11-1.66,10.64-2.08,5.77-0.49,2-2.16,7.58-2.82,2.27-0.65,3-3.67,14.15-3.67,4.44-0.65,1.45-3,11.87-3.75,3.84-0.75,2-3.51,12.08-3.42,2.63q0.65,2.73-1.12,3.16a15.92,15.92,0,0,1-1.14-6.16C546.91-181.23,546.83-177.35,546.88-179.41ZM565-148a53.64,53.64,0,0,1-1.51,7.15c-1.3-3.27,2.29-5.07,1.51-7.15C564.91-148.13,565-147.86,565-148Zm0.53,3.54a1.39,1.39,0,0,1,1-1.54c3.35,1.37-3,10.35-2.2,11.7-1.63-2.76,0-7.81,1.21-10.16C565.64-145,564.73-143,565.48-144.42Zm-24.2,34.22q-1.55.24-.41-2.49c-0.46,1.7-2.49,11.36-1.82,12.44a10.28,10.28,0,0,1-1.4-5.47q1,4-1.52,4.63a7.56,7.56,0,0,1-.3-5.09q0.28,3-1.67,3.24a14.86,14.86,0,0,1,1.32-8.29q0,3.36-2.16,3.42a11.42,11.42,0,0,1,1.64-7.39q-0.71,2.86-2.47,2.33c0.29-3.22,2.17-6.08,4.17-8.49q-1.22,3.1-3.34,2.53a7.58,7.58,0,0,1,2.11-5.55q-0.81,2.85-2.81,2.58a10.38,10.38,0,0,1,2.24-6.06q-0.67,1.33-1.39.73c0.61-2.31,2.42-5.61,5.17-5.87q0.82,0.57-.3,1.73,0.9-1.32,1.56-.58-1,3.33-2.1,6.64,0-2.67,1.69-2.68a21.35,21.35,0,0,1-.34,6.53q0-1.84,1.16-1.79A18.66,18.66,0,0,1,540-116q0.59-2.92,2.3-2.44a11.4,11.4,0,0,1-1,8.25C541.24-110.1,542.33-112.66,541.28-110.2Zm25.24,21.55q-2.45-2.59-5-5.13c0.16,0.38,3.7,8.21,4.31,8.49a14.35,14.35,0,0,1-6.4-5.87c0,0.16,1.64,5.76,1.76,5.85-2.65-1.83-4.11-5.19-5-8.16a12.53,12.53,0,0,0,1.46,5.54c-1.87-3.17-4.61-6.73-4.65-11.91q1,4.06-1.51,4.44c-1.06-4.11.31-8.5,1.66-12.34-0.89,1.52-5.91,11.41-3.29,2q0.37,3.23-1.72,3.54c-0.86-4.08.5-8.47,2.3-12.08-1.73,1.2-6.29,10.87-2.6-.64q0.13,4.13-2.21,3.8c-0.48-4.5,1.51-9.06,3.45-13-1.4.8-4.16,5.73-2,.29q0.61,4.06-2,4.77a13.77,13.77,0,0,1-.12-10.25s-2.33,4.71-2.26,4.82c0.57,0.94-2-10.65-.14-8.32a20.8,20.8,0,0,1,.62,2.92c1.88-5,1.26-6.25,2.59-1.75,1.6-5,2.92-14.21,3.72-4q-0.17-3.83,2-3.55,0.19,3.42.18,6.85c-0.1.44,3.09-7.71,3.17-7.27a67.35,67.35,0,0,1,.49,7.12q-1.17-3,.74-3.54c1.62,3,1.69,6.49,2.42,9.71q-2.09-3.66.23-4.55c2.58,4.54,1.55,9.88,2.63,14.78,0.27-1.46,2.33-6,2.4-7.31q-0.16,3.29-.13,6.59c1.8-5.41,4.27,15.33-1.51,4.74,0.15,4,5.53,19.5.46,14.9,0.8,1.42,3.33,8,3.83,8.52C564.86-90.34,566.66-88.53,566.53-88.66Zm0.65-45.76c-0.27.37,1-8.45,1.44-9.84-0.87,2.65,1.53,5.86-1.44,9.84h0Zm4.07-3.39c0.17-.31-1.42-4.48.42-5.42,2.22-1-.29,5.21-0.42,5.42S572-139,571.25-137.8Zm15.22-59.42q-1.57.49-1-2.48c0.39,3.55.64,9.61-2.29,3.18,0.18,3-.41,12.91-2,2.75a16.23,16.23,0,0,1-2.64,10q-2-.33-0.5-3.7c-0.21,1.58-4,13.79-3.14,4.33-1.15,2.35-2.74,14.46-3.4,5.49-0.75,2.34.55,15.42-2.2,7.83,0.33,6.94,5.12,12.95-1.69,6.69,0.66,2.24,6,13,1.37,7.58,0.25,1.16,2.16,13.78,0,5.07,0,3.67-.52,9.45-1.39-0.19q0.85,2.53-.74,2.71a12.41,12.41,0,0,1-.34-8.71c-2,2.88-.93,1.33-1.1-2.9q0.62,4-1.63,3.76c0-6.51-1.33-13,.63-19.36,1.78-5.75,5.83-10.72,8.53-16,3.49-6.88,10.43-19.44,8.73-26.87a20.76,20.76,0,0,1,1,6.39q-0.42-2.08.95-2.2a15.9,15.9,0,0,1-.55,7.35q-0.76-3.45,1.39-3.73a18.9,18.9,0,0,1,.29,6.91q-0.61-2.55,1.08-3.18a12.32,12.32,0,0,1,.58,9.31h0Z" transform="translate(-517.38 304.26)"/><path class="cls-8" d="M589.44-186.42c-4.06,9.46-1.82,2.24-1.84,1.29-0.52,1.28-3.65,8.89-3.36,3-1.78,3.84-7.47,7.34-6.88,12-1.35-9.11-.41,6.11-1.79-0.33-0.69,4.45-4.1,18.7,2.45,21-2.61-.84-0.22,3.8-0.2,3.85q-0.81.69-1.37-.86c1.6,4.85.33,3-1.2,1.54,0.7,6.44-.58,3.5-1.38,2a25,25,0,0,1-4.07,11.45c3.26-1.07,7.79-10.59,7.62-6.08,0.87-1.79,1-12.4,2.28-3.76,1.06-2.37-1.92-15.7,1.93-7.55,0,0.1-2.27-6.81-2.46-6.37-0.35-1.17,4.31,2.55,2.4,1-0.34-1.27-4.23-9.2.41-2.88-0.58-3.24-4-11.68.92-3.37-0.44-2.46-1.55-12,.9-3,0-.59,2.08-15.06,1.85-6.58,0.44-1.35,2.56-11.58,2.09-3.46,2.14-3.73,2.47-8.7,1.69-12.84C588.87-185.07,590.25-182.14,589.44-186.42Z" transform="translate(-517.38 304.26)"/><path class="cls-7" d="M545.24-179.85a41.32,41.32,0,0,0,.41,4.68q1.11-7.89-.41-4.68C545.28-178.83,545.34-180,545.24-179.85Z" transform="translate(-517.38 304.26)"/><path class="cls-7" d="M547.81-150.33q1.6-1.14,1.78,2.64c-0.13-1.73-5.69-11.84-.86-6.11-0.43-1.13-5.24-7.7-1.25-4.55-1.16-1.85-6.88-13.94-2.56-6.39-0.67-4.42-5.56-13.93,0-6.33-0.08-.55-1.88-8.12.25-3-1.9-7.54-1.53-1.86-2-2.56a26.47,26.47,0,0,1-1.26-7.95c-2.11,7.1-3.95,22.06,3.42,27.4a0.92,0.92,0,0,1-1.4.58s4.78,7,2,5.15c0.6,0.89,1.29,2.89-.23,2a8.27,8.27,0,0,1,1.93,5.5,16.21,16.21,0,0,0,.16-6.37C547.8-150.49,548-148.18,547.81-150.33Z" transform="translate(-517.38 304.26)"/><path class="cls-9" d="M576.68-287.58c2.25-.18-4.08.56-3.06-0.31-2.37.64-3.63,2.68-2.94,0.2-2.89,2-1.75,9.34-4.17,2.81-0.13.23-1.72,5.74-1.45,0.47-0.11.16-2,5-2.14,1.37a5.11,5.11,0,0,0-.34,1.3,10.13,10.13,0,0,1-2.51-3.51c-0.13,1.57-1.55-.7-2.11-0.85,0.94,2.26-4.14,0-5.81.31q1.86,0,1.15.91c-2.43,0-6.46,1.71-7.45,2.31q0.78,1.07-1.57,1.41c12.3-5.57,1.34,1,1.93.46,5.61-.66,6.17-2.18,11.7-0.29-2.26-3.57,3.64,1.57,4.12,2.84,0.54-1.56-.4-3.77,1.54-1.43,1.14-2.38.75-1.31,1.52,0.33,1.29-2.57.43-2.81,2-.32,0.27-.8.81-2.39,0.6-0.08a5.71,5.71,0,0,1,3.73-3.06c-1,0-1.66,3.8-1.68,4.92,2.21-4.56,6.25-5.5,10.92-5.8-2-.87-8.07-1.18.95-1.77-1.23-.73-2.19-1.23.77-0.68a6,6,0,0,0-5.71-1.54h0Z" transform="translate(-517.38 304.26)"/><path class="cls-9" d="M571-264.68q0.62-.85,1.3.65l-3.17-4.06c0.8,4.38-1.73-.33-1.94-0.82-0.25,1.26-.22,5.67-1.63.49-0.83,2.77-1.08,3.59-1.39.11-0.83,1.56-1.94,5-1.75,2-0.16.29-2.15,3.67-2.34,3.95,1-.72-6.64,6.68-7.27,7.72,2.33-1.88.58,0.2,0.56,1,0.82-.9,7.34,2.87,7.93,1.46,4.13-.87,3-0.44,2.9-0.41,3.55-.75,1.39-3.19,4.08-1-0.84-1.27,8.52.72,2.93,0.55-1.8-1.86,3-.06,4.19-0.46-2-2.2,5.14-.08,5.4-3.61-2.5-3.56-8.08-3.22-9.8-7.57C570.91-264.82,572.66-260.38,571-264.68Z" transform="translate(-517.38 304.26)"/><path class="cls-9" d="M577.32-259.77l0.58,2q-1.2.54-2-1.24c0.79,4.69-1.18.58-1.63,0.08,2.53,7.77-1.19.09-.84,1-2.17,8.33-1.18-1.15-1-.18-2.21,4,.08-4.15-6.51-3-2.92.51-5.92,9.64-5.37,4.14,0.71-1.08-3.43,7-1.87.56,2.22-2.21-9.08,7.72-.83-0.85-0.32.23-6.09,4.45-.36-1.16-2.7,1.23-3.52,1.83-4.74,3.84,2.33-1.88.58,0.2,0.56,1,0.82-.9,7.34,2.87,7.93,1.46,4.13-.87,3-0.44,2.9-0.41,3.55-.75,1.39-3.19,4.08-1-0.84-1.27,8.52.72,2.93,0.55-1.8-1.86,3-.06,4.19-0.46-2-2.2,5.14-.08,5.4-3.61l-3.45-2.66C577.87-259.26,578.65-259.11,577.32-259.77Z" transform="translate(-517.38 304.26)"/><path class="cls-9" d="M583.92-255.88q1.52,0.1-1.27-1.64c1.82,4.86-13.27,14.13-17.54,13.14-2.91-.68-12.15-5.39-12.83-8.71a3.34,3.34,0,0,0,.55,4.29c0.37-1.84.93,0.69,2,1.57-0.09-2,.2-0.44,2.26.74-0.36-2.67.2-.73,2.92,1.28-0.4-2.21,3.17,3,2.28,1.93-0.11-2,1.06-.05,2.81.76-0.44-1.15,4.35,0,5.19-.43,2.16-1.36,13.76-10.46,14.08-10.26Q582.94-254.77,583.92-255.88Z" transform="translate(-517.38 304.26)"/><path class="cls-2" d="M530.29-259.13q-0.06,2.68-2,2.81a12.35,12.35,0,0,1,1.32-6.71q-0.54,3.47-2.81,3.06a13.06,13.06,0,0,1,2.7-6.88q-1.11,2.19-2.56,1.37a7.79,7.79,0,0,1,1.85-3.36c-8.36,2.68,9-9.52,1-1.74,2.63-2.4,3.9-5.88,6.64-8.19-1.08.32-5,3.92-3.1,1-12,3.33-15.48,25.33.3,26.08-2.26-1.65-3.32-4.8-3.26-7.49C529.82-258.25,530.23-256.28,530.29-259.13Z" transform="translate(-517.38 304.26)"/><path class="cls-10" d="M533.67-277.84c-1.11,1.58,1.88-.52,0,0C533.53-277.64,533.91-277.91,533.67-277.84Z" transform="translate(-517.38 304.26)"/><path class="cls-7" d="M577.29-245.78q0.43-1.79-1.08,1.14a4.07,4.07,0,0,0,1.08-1.14h0Z" transform="translate(-517.38 304.26)"/><path class="cls-7" d="M530.29-259.13q-0.06,2.68-2,2.81a12.35,12.35,0,0,1,1.32-6.71q-0.54,3.47-2.81,3.06a13.06,13.06,0,0,1,2.7-6.88q-1.11,2.19-2.56,1.37a7.79,7.79,0,0,1,1.85-3.36c-5.76,1.85-1-.77-0.52-1.06a10.87,10.87,0,0,0-1.88.48,9.12,9.12,0,0,1,3.43-5.28c-1.88,1-5.59,4.47.12-1.81-10.26,5.92-9.88,24.21,3.65,24.86-2.26-1.65-3.32-4.8-3.26-7.49C529.82-258.25,530.23-256.28,530.29-259.13Z" transform="translate(-517.38 304.26)"/><path class="cls-7" d="M581.2-284.17a1.83,1.83,0,0,0,2.34.84l-2.34-.84C581.58-283.9,582-284,581.2-284.17Z" transform="translate(-517.38 304.26)"/><path class="cls-11" d="M527.4-260.85a14.73,14.73,0,0,1,2.92-3.54,69.1,69.1,0,0,0-1.44,6.76q0.09-3.24,2.15-2.81c-0.5,3.63,1.1,6.36,3.94,8.61q-1.36-2.14,0-2.6c2,9.59,14.9,11,16.07,20.59-3-4.93-.11-0.69-3.9.15,5,0.7.43,0.89-.66,4q2.21-2.93,3.58-1.27a41.69,41.69,0,0,0-2.65,3.74,23.09,23.09,0,0,1,4.12-3,15.86,15.86,0,0,0-5.62,6.33,15.29,15.29,0,0,1,7.25-5.2c-0.45-.14-7.79-0.62,2.34-1.43-2.61-2.75.5-2,3.6-1.41-3-3.82,0-2.21,4.71-1.37q-2.8-1.13-1.63-2.44c6.38,2.19,1.11,2.21,7.31-.08q1,1-.74,2.33a10.59,10.59,0,0,1,7.51-3q0.26,1.61-2.24,2a12.28,12.28,0,0,1,5.5-1.4q0.23,1.2-1.67,1.28a7,7,0,0,1,6.7,3.33c1.9-5.93.71-8.33,4.61-13.71,2.56-3.54,8.76-9.26,7.84-14.13,2.76,10.74.38-11.06,3.94-7.27,0.2-3.08-6.62-8.35-.54-5.44a9.89,9.89,0,0,0-4.81-5.46q0.56-1.69,2.55,0c-0.95-1.1-3.7-1.83-5-1a6.28,6.28,0,0,1,4.27,3.54q-1.51,1.59-4.07-.51c2.58,2.23,3,3.94,4,6.18a5.65,5.65,0,0,0-2.88-2.86c3.63,4.47,2.12,7.2,2.69,11.75a8.57,8.57,0,0,0-2.32-4.68c0.8,2.71-1,11.08-1.06,9.47-0.93,2.31-2.18,5.15-4.53,6.36q-1.1-.86.18-2.57c-2.7,5.76-2.09,3.06-2,.4-0.52,1.38-2.9,8.59-2.7,3.27-0.27.64-2.93,6.11-2.47,2.42a7,7,0,0,1-4.65,4.58c0.39-.1,1.88-3.3,1.84-3.69-3.74,3.14-11.93,6.92-16.82,4,1.9,4.09-5.7-.34-6.71-1.34,2.48,5.47-5.63-.11-6.9-2q1.3,1.05.46,1.8c-2.87-1.2-4.23-4.48-5-7.24-0.43,1.75,0,4.13-1.3.16q2.45,3,.47,4.36a14,14,0,0,1-3.88-6q1.94,2.37.35,3.41c-3.66-2.79-5.41-7.7-5-12.3q0.92,3.77-1.51,4.75c-1.1-2.68-1.88-6.43-.19-9.09q-0.87,3.06-2.8,2.51a7.31,7.31,0,0,1,2.52-5.22q-1.8,3.23-3.24,1.78a23.73,23.73,0,0,1,4.15-5.12c-3.67,1.13-6.79,4.33-1.12-1.54-7.26,3,2.61-1.66-5.17,2.66,3.31-.54,1-0.69-0.16,3,5.94-4.59,0,2.94-.22,5.3C528.33-262.08,527.58-263.33,527.4-260.85Z" transform="translate(-517.38 304.26)"/><path class="cls-11" d="M541.44-157c1,2.7,1.87,5.38,4.53,6.93-0.73-2-3.19-4.47.26-2.07-0.44-2.25-2.38-3.28-3.4-5.09a1.13,1.13,0,0,1,1.09,0c-3.36-2.68-4.7-9.85-5-14.15-0.65-8.42,2.82-24.36,7.35-31.56-1.17,1,2.17-5.37,3.18-6.56-3.63,2.17,2.33-6.32,2.9-8.07-3.3,1.61-3.25,2.25-5.07,4.71,5.91-5.28-2,4-2.59,5,3-2.09-3.22,4.87-3,4.63,6.86-2.34-.4,2.66-2,6.51,4.2-4.1-2,7-2.25,8.48q1-1.57,1.55-.67-2.35,3-4.72,6,1.59-1.57,2.35-.45a32.79,32.79,0,0,0-3.48,6.27c4-4.25.75,3.6,0.72,5.68q-0.1-2.25,1.25-2a31.7,31.7,0,0,0,.38,7.23q-0.73-2.76,1-2.95a31.19,31.19,0,0,0,1.62,8.13q-1.37-2.36.19-2.69a34.07,34.07,0,0,0,3.12,8.5,13,13,0,0,1-.06-1.82C541.62-156.55,541.37-157.24,541.44-157Z" transform="translate(-517.38 304.26)"/><path class="cls-11" d="M733.38-84.44l-1.69.71c2-2.58-1.14-.37-2.51.1q1.91-.19,1.68-1.43c-1.26.35-3.46,1.61-2.15-.11-15.94,7-34.32,7.13-51.5,7.39-15.27.23-43.06,0.11-52.87-13q0.71-1.34,2.48.3c-4.88-3.14-7.42-5.44-10.32-10.36q1-1.08,2.22.83c-3.6-3.07-7.08-7.17-8.19-11.87a9,9,0,0,0,4.09,3.58,40.47,40.47,0,0,1-8-14.5q0.94-1,1.36.8c-0.26-1.07-5.27-9.72-2-7.18a18.81,18.81,0,0,0-2.11-5q0.65-1,1.4.14c-1.74-4.12-2.12-8-3.27-12.27,0,0-4.4-12.48-.74-6.39-0.12-1.59-4.92-12.15-.48-6.45-0.17-1.28-4.95-14.44-.76-6,0-.06-2.06-9.93-0.25-7.48-0.3-1.48-4.59-16.46-.77-6.06-0.17-1.58-3.84-10.84.31-7.31-0.35-1.81-5.18-8.24-.49-4.31a11.47,11.47,0,0,0-2.86-6.52q0.7-1.15,1.58.4c-0.34-1.37-5.49-9.69-.95-4.21-0.4-3.7-6.68-15.43-2.76-12.23a26.39,26.39,0,0,0-3.81-7.09q1.15-1.51,2.92,1c0-.42-3.61-5.51-3.55-5.57q1.42-.8,2.79.77a43.81,43.81,0,0,0-3.37-3.23,4.24,4.24,0,0,1,4.18-.88,4.94,4.94,0,0,0-5.25-2.29q-0.69-1.92,2.45-2.44c-2.08-.79-6.91,5.62-3.4-1.7-4.68,5.51.89,4.7-7.31,7.69a7.85,7.85,0,0,1,5.68,3.91q-0.55,1.06-2-.11a6.07,6.07,0,0,1,2.14,4.18q-0.75.8-1.62-.61c3.26,4,2.15,7.7,3.59,11.21q-0.84-3.49,1.38-4a28.85,28.85,0,0,1,.43,8.74q-0.23-2.55,1.51-3c0.75,3.53-.92,7.2-2.08,10.41q0.3-2.62,1.8-2.15c0.13,2.19-6.11,16.57-6.65,11.64-1.86,6.13-1.63,4.05-1.7.8-0.46,1.63-5.33,13-2.82,3.27-0.71,1.18-5.13,15.42-3.77,4.69-2.25,5.16-3.66,12.55-3,18.08q-0.17-1.22.68-1.13a36,36,0,0,0,.08,6.63c0,1.31,2.27,9.12-1.25,3.52,0.75,2.54,1.69,4.53-.31,3.35a15,15,0,0,1,2.66,6c1.13-2.79-.52-5.57,2.29-2.88-0.24-1.24-2-4.07.68-2-1-4.49-2.24-6.2-2.85-12.23-0.26-2.56.61-15.29,2.27-10.9a31.47,31.47,0,0,1,4.17-8.07c-0.41.3,3.06-9,3.49-2.58,0.38-.51,4.38-9,3.07-3.66q-0.29-4.72,2.39-4.42c-0.28,1.36-3.22,10.33-2.55,3.55-0.64,1.61-3.49,8.72-3.22,2.51-2.87,5.24-2.29,2.18-2.44,8.82,3.75-7.2-.45,5-0.56,5.46,4.54-6.29,1.35.35,1.2,0.93q1.1-2.92,2.55-1.89a56.89,56.89,0,0,0-1.85,6.85c2.92-5.83,1.62.37,1.8,1.72q0.17-2.06,1.45-1.82c0.13,1.14,4.95,11.36.68,6.92a11.24,11.24,0,0,1,1.68,6.27q-1.5,1.09-3-1.52c1.26,2.2,6,7.61.64,4.87a7.06,7.06,0,0,1,2,4.14q-1.11,1-2.62-.71a10.49,10.49,0,0,1-.85,6c3.46-2.07,9.47-6.84,13.28-2.85,0.89-1.33-9,1-7.66.57-2.84.91-6,3.64-8.35,5.32,2.48-1.4,6.1-4.18,9.15-2.94-0.73-.28-5,4-5.09,4.28,0.89-.78,5.55-5.06,6.82-2q-0.36.66-1.15,0.12c2.63,1.32,11.89,11.44,2.46,5,1,1.72,8.67,10,2.14,5.62,2,3,9.5,13.49,1.63,7,0.77,1.5,4.73,10.78,0,5.14,1,2.17,4.41,11.24-.36,4.95,0.75,3.07,3.36,14.16-1.39,5.47,0.49,4.2.31,18.4-3.7,8.77-0.23,2.2.23,12.48-2.65,5.8,0.05,3,.26,9.39-2.68,3.59q2.14,3.17.1,4.23a33.84,33.84,0,0,1-5.61-7.87q1.8,2.7,0,3.6a18.9,18.9,0,0,1-3.19-5q1.1,1.83-.14,2.44a21.27,21.27,0,0,1-4.31-9.45q2.06,3.17,0,4.21c-2.53-3.86-3.63-8.78-3.87-13.33a24.62,24.62,0,0,0,.89,9.39,1.1,1.1,0,0,1,.24-1c1.4,6.62,4.52,16.16,9.17,19.34q1.53-1-.62-3.13c0.79,1.19,8.14,7.2,6.81,4.73a6.1,6.1,0,0,1,2.8,4.23q1.56-.37.06-2.71a18.22,18.22,0,0,0,2.41,2.71q0.8-.41-0.08-1.34c3.37,1.51,5.89,4.1,9.66,5.19q-2.66-1.06-2.65-3.1a21.23,21.23,0,0,0,5.31,3.49c-1.58-4.48.7-.71,2.77,0.79,1.7,1.24-1.27-6.59-.47-4.73q1.87,0.18,1.88,3.08c0.66-2.77-2.73-9.47,1.3-3.73-0.37-3.81-1.63-3.6-1-7.74,1.55,8.42-.49-10.47,1.48-7.21-0.06-1.16-.72-6.39-1.44-7.42a14.82,14.82,0,0,1,2.16,6.72c0.94-3.12-2.64-15.56-1.16-14-0.54-1.82-2.91-11.25,0-2.46a98.82,98.82,0,0,0-3.1-12.82c3.78,5.42-2.18-6.47-2.18-8.3,4.59,7.25,7.13,19.65,6.73,28a11,11,0,0,0-1.69-3.32c1.19,3.59.17,17,3.54,18.29a1.88,1.88,0,0,1,0-2.41q2,0.14,2.69,2.66a1.22,1.22,0,0,1-.35-1.71c-2.54,1.87,20.9,10.86,22.61,11.22,12.64,2.63,26.1,2.1,38.91,1.31A186.47,186.47,0,0,0,713.89-75c6.08-1.64,14-6.62,17.87-7.85q2.18-.35,1.62-1.54h0Z" transform="translate(-517.38 304.26)"/><path class="cls-11" d="M584.72-229.36a4.54,4.54,0,0,1,4.32-.38c-4.86-2.25.71,6.31-.13,4.51q-0.67,1.19-2.45.43c1.72,2.78,3.9,5.59,4.51,8.89q-1.15,1-2.47-1.06a26.85,26.85,0,0,1,3.95,7.75q-0.67.87-1.78-.34c0.61,0.85,5,7.34,1,5.65,0,0,5.79,9.88,1.78,8.14,1.12,1.82,1.67,3.71,0,2.81,1.54,2.77,5.2,9.14-.56,5.17,1.07,1.9,5.59,13.78.83,9.07,0.66,1.8,5.2,10.54,0,6.54,0.8,2,4.94,10.54-.49,5.85,1,2.4,6.75,13.42.83,9.13,0.89,2.19,7.05,10.66.59,6.85,1.46,3.06,4.32,5.5,5,9q-0.89,1-2.29-.55a22.61,22.61,0,0,1,4.9,8.54q-1,.91-2-0.93c1.75,3.88,4.76,7,7.2,10.46-0.67-1.59-4.21-7.52-1.37-5.28a18.81,18.81,0,0,0-2.11-5q0.65-1,1.4.14c-1.74-4.12-2.12-8-3.27-12.27,0,0-4.4-12.48-.74-6.39-0.12-1.59-4.92-12.15-.48-6.45-0.17-1.28-4.95-14.44-.76-6,0-.06-2.06-9.93-0.25-7.48-0.3-1.48-4.59-16.46-.77-6.06-0.17-1.58-3.84-10.84.31-7.31-0.35-1.81-5.18-8.24-.49-4.31a11.47,11.47,0,0,0-2.86-6.52q0.7-1.15,1.58.4c-0.34-1.37-5.49-9.69-.95-4.21-0.4-3.7-6.68-15.43-2.76-12.23a26.39,26.39,0,0,0-3.81-7.09q1.15-1.51,2.92,1c0-.42-3.61-5.51-3.55-5.57q1.42-.8,2.79.77a43.81,43.81,0,0,0-3.37-3.23,4.24,4.24,0,0,1,4.18-.88,4.94,4.94,0,0,0-5.25-2.29q-0.69-1.92,2.45-2.44c-2.08-.79-6.91,5.62-3.4-1.7a8.84,8.84,0,0,0-2.1,5C586-230.19,584.75-229.73,584.72-229.36Z" transform="translate(-517.38 304.26)"/><path class="cls-11" d="M647.28-69.53c-6.58-1.42-12.76-3.17-18.6-6.63-1.12-.67-10-7.13-4.27-4.22-0.88-.74-7.53-6.53-2-3.46-1.58-1.37-9.54-11.34-3.42-6-0.1-.12-7.77-10.77-3-6.28a36.18,36.18,0,0,1-4.51-11q0.61,1.72-.58,2.14a72.77,72.77,0,0,1-2.56-7.2c0,5.59,2.91,11.3,2.64,16.95a11,11,0,0,0-1.69-3.32c1.19,3.59.17,17,3.54,18.29a1.88,1.88,0,0,1,0-2.41q2,0.14,2.69,2.66a1.22,1.22,0,0,1-.35-1.71c-1.3,1,11.75,8.07,12.86,8.48a75.84,75.84,0,0,0,22,4.29l-2.83-.6h0Z" transform="translate(-517.38 304.26)"/><path class="cls-11" d="M609.38-96.18c-0.44-1.64-2.12-5.88.19-3.45-0.54-1.82-2.91-11.25,0-2.46a98.82,98.82,0,0,0-3.1-12.82c3.41,4.89.24-2-.25-3.23q0.59,0.76-.13.89c-1.11-4.68-2.87-9.39-6.09-13.06,1.06,2.23,2.85,8.61,3.87,9.94a41.74,41.74,0,0,0-3.82-6.1c1.23,2.77,2.28,8.81,3.44,10.75a20.75,20.75,0,0,0-3-4.24c2.43,4.31,3.09,10.48,5,14.09q-1.19-2.48-2.51-4.89c1.08,3.15,3.14,17.18,2.63,16.28,0.12,0.8-.55,13.3-1.91,7.3-0.16,4.93-.56,5.57-2,2.39,0.11,0.88-.92,6.18-1.06,5.86q-1.25-3-2.34-6.11c-0.26-1.2,1.78,12.8.5,11.53a26.65,26.65,0,0,1-3.11-5.65c0.33,1.62,3.77,11.11-.68,5.2,3.69,10.32-3.45,1-5.11-1.48,0.39,2.66-.34,2.69-2.56-0.09q1.57,1.45.54,2.41a18.52,18.52,0,0,1-7.13-7.18q1.57,2.32,0,2.86A20,20,0,0,1,578.22-82c-0.39,2.67-.32,4.81,2.16,6.51q1.53-1-.62-3.13c0.79,1.19,8.14,7.2,6.81,4.73a6.1,6.1,0,0,1,2.8,4.23q1.56-.37.06-2.71a18.22,18.22,0,0,0,2.41,2.71q0.8-.41-0.08-1.34c3.37,1.51,5.89,4.1,9.66,5.19q-2.66-1.06-2.65-3.1a21.23,21.23,0,0,0,5.31,3.49c-1.58-4.48.7-.71,2.77,0.79,1.7,1.24-1.27-6.59-.47-4.73q1.87,0.18,1.88,3.08c0.66-2.77-2.73-9.47,1.3-3.73-0.37-3.81-1.63-3.6-1-7.74,1.55,8.42-.49-10.47,1.48-7.21-0.06-1.16-.72-6.39-1.44-7.42a14.82,14.82,0,0,1,2.16,6.72c0.9-3-.29-7.86-1.36-10.56C609-97.56,609.9-94.87,609.38-96.18Z" transform="translate(-517.38 304.26)"/><path class="cls-11" d="M585.59-179.1l0.18,2.65c-0.3.8,2.1-8.53,1.78-1.92a26.48,26.48,0,0,0,2-8.52c-0.68,1.91-2.86,8.56-2.26,2.54-0.64,1.61-3.49,8.72-3.22,2.51-2.87,5.24-2.29,2.18-2.44,8.82,0.55-1,4.07-5.59,4-6.09C585.71-178.21,585.57-179.24,585.59-179.1Z" transform="translate(-517.38 304.26)"/><path class="cls-11" d="M576-82.93c-0.48-1.66,1.6,4.62,2.07,4.27L576-82.93C576.27-81.84,576.5-81.44,576-82.93Z" transform="translate(-517.38 304.26)"/><path class="cls-11" d="M581-76.27a1.51,1.51,0,0,1,.23,1.86c0.17-.2-14.56-7.62-15.77-8.46A47.51,47.51,0,0,0,569-77.75c0.43,0.67-5.71-1.83-5.26-1.59,2.73,4.46-7.16-4.84-6.79-4.4q1,1.14.08,1.64a19,19,0,0,1-5.55-6.54q0.9,1.79-.34,2.19a26.83,26.83,0,0,1-2.27-9.14c-0.37,1.15-.37,4.08-1.3,1.54q2.21,3,.24,4a27.35,27.35,0,0,1-5.08-8.27c-0.16,1.75,2.08,12.45-1.33,5.25q2.52,3.78.12,5.08a33.35,33.35,0,0,1-2.77-11.65c-0.16.75,0.06,10.57-2.41,0q0.69,2.53-.95,2.91a9.16,9.16,0,0,1-1.42-4.67q0.2,1.88-1.09,2.16a12.6,12.6,0,0,1-.8-9.3c-0.89,1-4.88,5.72,0-3.51a1.66,1.66,0,0,1-1.54,1.07,13,13,0,0,1,1.48-6.64q-0.65,1.53-1.62,1c0.26-3.27.4-7.15,2.45-9.92q-0.55,3.34-2.73,3.09a12.24,12.24,0,0,1,1.69-5c-0.4.36-3.43,6.24-3.17,3.72a47.68,47.68,0,0,0-1.28,7.84,10.44,10.44,0,0,1,1.32-2.41c-0.32,2.38-1.37,4.3-1.51,6.86q0-2,1.38-1.61a50.78,50.78,0,0,0-.67,9.24c0.89-3.23.91,4.33,1.21,5.5a45.31,45.31,0,0,0,5.77,13.1q-2.82-3.46-.56-4.24A36.76,36.76,0,0,0,540.13-78q-1.21-1.81,0-2.2a11.75,11.75,0,0,0,3,6.12q-1.87-2.71-.36-4.66c-0.55.4,5.43,6.9,5.31,6.82-3-4.66-2-1.58,1.13-.58,2.64,0.84,4.16,2.73,7.14,3.22-2.34-2.63.52-.21,2.25-0.48,2.44-.38,4.89-1.73,7.6-2.41,6.23-1.56,13.74-.49,20-0.31A21.11,21.11,0,0,1,581-76.27C581.21-75.87,581.71-75.55,581-76.27Z" transform="translate(-517.38 304.26)"/><path class="cls-11" d="M528.2-114.29l0.31-3.55a13,13,0,0,0-1.36,5.41,2.18,2.18,0,0,1,1-1.86C528.21-115.48,528.08-114.26,528.2-114.29Z" transform="translate(-517.38 304.26)"/><path class="cls-11" d="M571.65-76.36l2.56,2.76c0-.05-6-1.63-6.15-1.66q1.71,1.39.77,2.53c-3.94-.39-7.08-3.15-10.35-5,6.07,9-4.5-2-6.49-4.12q3.09,3.11,1,4.48a32.42,32.42,0,0,1-6.7-9.49c0.18,1.67,1.75,10.7,2.6,11.36-3.1-2.64-5-6.69-6.23-10.46,0-.06.46,6.16,0.48,6.18a18.35,18.35,0,0,1-3.63-7.33c0,0.4.73,6.76,1,7.12-3.27-4.2-4.44-9.46-5.64-14.52-0.43,1.68-.73,7-1.55-0.67q1,2.07-.43,2.55c-2.93-4.16-2.68-9.56-2.47-14.37q0.4,1.94-.89,2.07a30.13,30.13,0,0,1,.14-9c1.72-2.85-1.45,4.85-1.45,2.6a36.59,36.59,0,0,0-.34,6.57c0.89-3.23.91,4.33,1.21,5.5a45.31,45.31,0,0,0,5.77,13.1q-2.82-3.46-.56-4.24A36.76,36.76,0,0,0,540.13-78q-1.21-1.81,0-2.2a11.75,11.75,0,0,0,3,6.12q-1.87-2.71-.36-4.66c-0.55.4,5.43,6.9,5.31,6.82-3-4.66-2-1.58,1.13-.58,2.64,0.84,4.16,2.73,7.14,3.22-1.88-2.11-.52-0.56,1.18-0.79,2.48-.33,4.45-1.17,7.24-1.79a60,60,0,0,1,14.24-.9,57.54,57.54,0,0,1-7.33-3.59C572.45-75.39,574-75,571.65-76.36Z" transform="translate(-517.38 304.26)"/><path class="cls-5" d="M549.73-94.32q1.86-3.69-.51-4.59A3.63,3.63,0,0,0,548-95.39a13.37,13.37,0,0,1,.34-8.91q-2.73-.35-1.79,4.88a17.66,17.66,0,0,1-.1-8.71q0.09,2.09-1.26,2c-1.1-4.87,1.09-11,2.43-15.71q-2.57,0-2,4.43c-1.05-2.26-2.22-5.07-1.52-7.78q-1.35,0-.8,2.12c-0.52-.88-0.74-3.41-1.45-3.94,0.09,3.91,6.78,33.44,6,33.85a2.35,2.35,0,0,0,1-1.57c0.19,3.34.72,7.47,3.16,10a22.06,22.06,0,0,1-2.33-9.66C549.58-95.78,549.91-90.91,549.73-94.32Z" transform="translate(-517.38 304.26)"/><path class="cls-5" d="M589.51-187.83l-2,3.92c1.23-5-3,3.12-3.34,3.61q1.42-1.7.22-2.55c-1.44.21-5.3,6.58-6.24,8,1.53-5.87-1.39,2.49-1.75,4-0.49-2.69-2.61,11.52-2.41,13.05,0.59,4.55,2.1,7.92,3,11.26-3.23-2.73-.39,2.11-0.38,2.45-3-3.87-1.91.13-2.15,2.11-2-5.66-5.27,9.24-5.34,9,1.29-3.06,1.39-6.56,2.22-9.74-0.41.27-4.11,11.57-4.27,11.32-2-3.13,1.3-8.84.86-11.79,0.06,0.28-4,12.94-3.11,13.35-2.56-1.86.15-12.25,0.65-13.9-0.55,1.75-1.77,3.87-2.17,6-0.78-5.35,1.94-6.3,2.1-10.7q0,1.29.88,1.15a12.26,12.26,0,0,1-1-5.53,1.83,1.83,0,0,0-.55,1.84c-0.29-.59.33-7.25-0.76-5.74,0.94-3.82-.67-7.22-0.47-11.16,0.36-7,4.28-11.8,7.47-17.57,5-9,11.74-21.34,10.38-33.3,1.51,13.27-9.42,27.78-14.91,39-2.34,4.8-4.18,7.88-4.09,13.7,0,0.44,1,13-.1,11.84a1.93,1.93,0,0,0,1.75-1.64c-0.1,1,1.09,7,1.16,6.43-0.35,2.58-2.4,4-2.81,6.46-0.26,1.61.52,13.93,2,14a2.24,2.24,0,0,0,1.7-2.29c1,2.76,9.21-11.41,9-13.54,4.28,3.44,2.11-3.54,1.39-4.06a7.58,7.58,0,0,0,2.2-.86c-2.16,2.54-3.2-17.63-2.83-19.83,0.25,1.16,5.83-8.51,7.68-11.2-0.69,4.5,3.17-2.56,3.46-3.18-1,4.83,2.41-3.33,2.57-4C589.08-186.4,589.54-187.93,589.51-187.83Z" transform="translate(-517.38 304.26)"/><path class="cls-5" d="M576.59-218.66c1.15,0.1,3.06,3.9,3.18,4.72-3.76-2.45-.28,2.4-0.65,5q-0.12-2-1.08-1.22a13.17,13.17,0,0,1-.47,6c0.53-1.8,6.12-13.89-1-14.5h0Z" transform="translate(-517.38 304.26)"/><path class="cls-5" d="M571.73-130.93l3.16-2.69c-3.52,3.13-10.53,9.06-10,14.95-0.2-2.06,11.74-15.62,4.73-9l2.14-3.27h0Z" transform="translate(-517.38 304.26)"/><path class="cls-5" d="M564.65-116.92l-0.36,2c0,0.08.49-2.56,0.36-2C564.5-116.25,564.69-117.06,564.65-116.92Z" transform="translate(-517.38 304.26)"/><path class="cls-5" d="M588.78-250.72c0.08,0.06-1.13,2.77-.95,2.44-0.24-3.32-3.24,3.8-3.94,4.24,2.82-4.69-4.1,2.79-6.6,3.48,5.61-5.16-10.8,7.1-14.15.59q-0.92.46,0.55,1.44c-0.34,0-8.79-1.85-7.85-3.07a1.59,1.59,0,0,0,1.12,2.09c-1-.1-8.41-3.68-8-4.07-0.46.47,0.42,1.07,0.59,1.45a7.17,7.17,0,0,1-3.29-3.81c3.47,8.19,18.92,10,27.06,7.94,2.66-.67,19.16-10.23,15.5-12.73h0Z" transform="translate(-517.38 304.26)"/><path class="cls-5" d="M561.31-225.45c-0.84-1.38-9.54-5.46-3.7-.55-3.48.32-6.82,0.64-2.52,2-2.74,1-10,6.94-3.8,5.88-7.47,4.48,8-4-1.46-.19a21.54,21.54,0,0,1,4.14-3.13,14,14,0,0,0-4.2,2.56c1-1.42,9.68-6.52,4-5.67,1.47-.74,8.67-0.85,2.18-3.08,1.52-.29,4.6.94,5.37,2.18C560-227.54,561.35-225.37,561.31-225.45Z" transform="translate(-517.38 304.26)"/><path class="cls-5" d="M582.41-223.45q1.33,0.93,1.93-.17a6.54,6.54,0,0,0-5.19-2.68q1.84,0.37,2.2-1.06a11.94,11.94,0,0,0-5.83-.23,1.82,1.82,0,0,0,2.05-1.06,7.29,7.29,0,0,0-7.68.56q1.88-.79,1.42-2.15a7.52,7.52,0,0,0-4.72,3.84c0.77-1,2.69-3,4-3.27-4.86,4.82,3.71,0,6.18,1.18q-2.68-.13-2.4,1.49a14.24,14.24,0,0,1,5.47-.07q-2.16-.28-2.21,1.27a7.79,7.79,0,0,1,5.76,2q-2.32-1.33-2.65.25a4.91,4.91,0,0,1,3.57,3.58c-4.86-3.61-2.61-.51-1.82.81q1.06-.49-0.5-1.56,1.54,2.73,3,1.33a5.1,5.1,0,0,0-2.64-4.07C582.91-223.34,583.88-222.66,582.41-223.45Z" transform="translate(-517.38 304.26)"/><path class="cls-5" d="M562-281.09L561-283.5c-1.82-2.74-10.26-.92-13.18.77,1.34-.77,7.74-1.57,7.37-1.92-2.07-.19,4,2,3.19.45,1,0.48,2.46,3.17,2.59,1.25q0.14,2.71,1,1.85C561.44-281.83,562-281.06,562-281.09Z" transform="translate(-517.38 304.26)"/><path class="cls-5" d="M580.34-287.08l-4.81,0c2.14-1.72-5,1.31-5.19,1.54,0.24-3.78-2.28,2.28-2.17,3l0,0c0,0.65,38-47,1.76-3.45-0.53,2.71,1.18-.15,2.12-0.55-1.05,2,3.62-.86,3.11-0.73-1.62,1.52,4.37-.24,5.15.1C578.76-287.76,580.54-287,580.34-287.08Z" transform="translate(-517.38 304.26)"/><path class="cls-2" d="M569.43-275.37c0.26,0.94,1.07-2.53,1.07-3q-0.17.78-.55,0.36c4.26-8.12,14.24-.13,20-0.1q0.79,1.13-1.28.72a8.58,8.58,0,0,1,5.16,3.34q-1,1.24-2.7-.83c2,1.17,8.78,3,.79,3.19,9.36,5.36-2.37,1.08-.6,1.49,0.93,0.84,2.7,3.21,1.61,4.7q-0.84-.71-1.7-1.39,0.92,2.63-1.64,4.73a4.74,4.74,0,0,0-.47-1.19,6.16,6.16,0,0,1-3,4.18c-1.25-3.15,1.61.19-2.81,0.12-7.75-.13-12.67-5.17-13.79-12.91a3.09,3.09,0,0,1,1.79,2.63,20.45,20.45,0,0,1-1.81-6C569.29-275.9,569.79-274.12,569.43-275.37Z" transform="translate(-517.38 304.26)"/><path class="cls-2" d="M562.69-273.88c-0.37,1.24-1.45-3.38-1.07-3q0.18,0.77.56,0.36c-4.25-8.11-14.25-.14-20-0.1q-0.79,1.13,1.28.73a8.53,8.53,0,0,0-5.16,3.33q1,1.26,2.7-.82c-2,1.12-8.77,3-.8,3.19-9,5.27,2.07,1.17.61,1.49-0.94.83-2.7,3.22-1.61,4.7q0.84-.72,1.7-1.4-0.95,2.63,1.63,4.74a4,4,0,0,1,.48-1.19,6.1,6.1,0,0,0,3,4.17c-0.14.29,0.25-1.88,0.47-1.61,6.3,8.2,15.46-6.49,16.12-11.18a3.07,3.07,0,0,0-1.78,2.64,21.08,21.08,0,0,0,1.8-6C562.84-274.41,562.33-272.64,562.69-273.88Z" transform="translate(-517.38 304.26)"/><path class="cls-12" d="M558.34-276.25c0-7.1-14.09,6.07-14.16,6.15q1.71,1.09,2.71-2.64c-1.13,2.79-3.94,9.06,0,11.36-1.83-.74-2.58-4.48-2.68-5.92,0.2,1.87-.1,3.83,1.78,5.56a4.43,4.43,0,0,1-2.57-3.72q-1.21,0-1.13,1.58c-0.69-.79-0.43-3.58.07-3.84a16.42,16.42,0,0,0-2.2,2.12c0.08-2.64,5.41-5.46-.34-3.1,1.94-3.17,4.8-1.51.68-2.38a4.21,4.21,0,0,0,3.66-1.8c-0.47,1-4.62,2-5.13,1.64q5.15,0.1.22,2.84,1,1,2.46-.75a4.9,4.9,0,0,0-2,3.95q1.23,0.59,1.87-1.55c-0.62,1.32.32,5.25,1.44,2.24,2.58,11.54,24.79-4,15.28-11.75C558.34-276.29,560.68-274.33,558.34-276.25Z" transform="translate(-517.38 304.26)"/><path class="cls-13" d="M558.16-267.33c-2.94,8.87-15.22,7.6-11.61-2.66,3.07-8.71,15-7.52,11.61,2.66C557.2-264.43,558.7-269,558.16-267.33Z" transform="translate(-517.38 304.26)"/><path class="cls-14" d="M557.69-267.37c-2.31,7-13.16,7.21-9.86-2.25,2.45-7,12.91-6.92,9.86,2.25C556.88-264.9,558.15-268.74,557.69-267.37Z" transform="translate(-517.38 304.26)"/><path class="cls-15" d="M556.89-267c-2.86,7-11.27,3.56-8.41-3.43,2.78-6.8,11.43-4,8.41,3.43C555.59-263.79,558.17-270.13,556.89-267Z" transform="translate(-517.38 304.26)"/><path class="cls-16" d="M555.78-267.5c-2.14,5.27-8.33,2.73-6.19-2.53s8.36-2.73,6.19,2.53C554.84-265.17,556.74-269.83,555.78-267.5Z" transform="translate(-517.38 304.26)"/><path class="cls-17" d="M554.75-268c-2.49,6.12-4.12-1.68-4-1.63-0.15-.06,6.52-4.46,4,1.63C554.14-266.46,555.38-269.47,554.75-268Z" transform="translate(-517.38 304.26)"/><path class="cls-18" d="M553.2-270.36c-1.94,4.73-3.19-1.3-3.1-1.26-0.11,0,5-3.47,3.1,1.26h0Z" transform="translate(-517.38 304.26)"/><path class="cls-18" d="M550.51-267.16q-0.57,1.89-1.36.07Q549.75-269,550.51-267.16Z" transform="translate(-517.38 304.26)"/><path class="cls-19" d="M552.54-267.22a5.56,5.56,0,0,1-4.06-3.2c-4.13,2.18,6.37,14.67,8.85,2a6.39,6.39,0,0,1-4.79,1.23h0Z" transform="translate(-517.38 304.26)"/><path class="cls-12" d="M572.23-269.37c1.71,4.34,14.13,12.68,16.1,3.43,1.12,3,2.06-.92,1.45-2.24q0.63,2.14,1.86,1.55a4.86,4.86,0,0,0-2-3.94q1.45,1.77,2.47.75-4.95-2.73.2-2.84c-0.52.33-4.65-.64-5.13-1.64a4.19,4.19,0,0,0,3.66,1.79c-4.11.88-1.26-.79,0.68,2.38-5.75-2.41-.4.49-0.34,3.1a14.78,14.78,0,0,0-2.2-2.12c0.23,0.91,1.16,2.59.07,3.84q0.08-1.59-1.12-1.58a4.48,4.48,0,0,1-2.57,3.72c1.87-1.74,1.58-3.72,1.76-5.56-0.1,1.43-.85,5.19-2.68,5.92,4-2.31,1.25-8.35,0-11.36q1,3.68,2.73,2.64c-2.61-3-6.57-8.89-11.59-7.46-4.38,1.25-4.93,5.77-3.4,9.63h0Z" transform="translate(-517.38 304.26)"/><path class="cls-13" d="M572.67-273.88c0.8-8.8,15.58-.27,12.78,7.53-3.4,9.46-13.49-.5-12.78-7.53C572.81-275.33,572.51-272.21,572.67-273.88Z" transform="translate(-517.38 304.26)"/><path class="cls-14" d="M573.75-273.27c0.69-7.13,11.72-.93,10.76,5.35-1.41,9.2-11.39,1.46-10.76-5.35C573.87-274.5,573.62-271.84,573.75-273.27Z" transform="translate(-517.38 304.26)"/><path class="cls-15" d="M583.37-272.28c3.52,6.67-4.53,10.91-8,4.23C571.9-274.55,579.62-279.37,583.37-272.28Z" transform="translate(-517.38 304.26)"/><path class="cls-16" d="M582.24-271.79c2.65,5-3.28,8.16-5.92,3.12s3.29-8.16,5.92-3.12C583.42-269.56,581.08-274,582.24-271.79Z" transform="translate(-517.38 304.26)"/><path class="cls-17" d="M581.23-271.3c3.07,5.85-3.94,2.08-3.83,2-0.09,0,.71-7.83,3.83-2C582-269.86,580.46-272.73,581.23-271.3Z" transform="translate(-517.38 304.26)"/><path class="cls-18" d="M578.4-271.65c2.39,4.53-3.06,1.61-3,1.56-0.09,0,.58-6.08,3-1.56h0Z" transform="translate(-517.38 304.26)"/><path class="cls-18" d="M579.11-267.53q1.08,1.66-.82,1.08-1.06-1.65.82-1.08h0Z" transform="translate(-517.38 304.26)"/><path class="cls-19" d="M583.37-272.28c1.75,1.84-7,3.8-8.65,2.73,2.53,8.19,12.8,5.12,8.65-2.73h0Z" transform="translate(-517.38 304.26)"/><path class="cls-2" d="M582.77-256.55a3.34,3.34,0,0,0-3.63-2.15c7.72,1.34-2.1,9-6.4,8.33-2.57-.42-4.51-2.54-5.8-4.65-2.43,8.68-17.78,5.94-11.46-2-1.65,2.14-4.77,2.29-2.48,6.08,1.14,1.89,6,3.12,7.59,4,2.84,1.48,2.64,3.61,6.59,3.52,2.63-.06,16.24-10.31,15.59-13.05C582.34-258.24,582.84-256.24,582.77-256.55Z" transform="translate(-517.38 304.26)"/><path class="cls-20" d="M566.92-254.32a13.7,13.7,0,0,0,3.69,4.34c-1.69,1.06-5.66,2.88-7.37.62a7.88,7.88,0,0,0,3.69-5C567.39-253.45,566.2-252.32,566.92-254.32Z" transform="translate(-517.38 304.26)"/><path class="cls-21" d="M572.93-246.94c-4.11,5.94-9.47,1.58-13-1.68,5.27-.25,9.2.35,14.79-1.07l-1.81,2.76h0Z" transform="translate(-517.38 304.26)"/><path class="cls-22" d="M570-248.84c-3.91,2.26-4-.32-7.42,3,3.64,3.24,8.55,1.69,11-2l-3.54-1C568.9-248.23,571.25-248.81,570-248.84Z" transform="translate(-517.38 304.26)"/><path class="cls-2" d="M569.67-260.4c-4.77-2.44-10.86,4.24-4.87,6.51,4,1.51,10.08-3.86,4.87-6.51h0Z" transform="translate(-517.38 304.26)"/><path class="cls-23" d="M571.44-258.44c-0.09.9-9.26,2-8.46,2.59a2.86,2.86,0,0,1,.71-4c-7.12,6.29,10.14,9.45,7.75,1.43C571.41-258.19,571.57-258,571.44-258.44Z" transform="translate(-517.38 304.26)"/><path class="cls-12" d="M564.88-257.52c-1.86-1-.86,3.8.3,3.18,1-.53.5-2.73-0.3-3.18h0Z" transform="translate(-517.38 304.26)"/><path class="cls-12" d="M569.58-257.75c-1.2-.82-2,2.13-1.4,3,0.17,0.23,3-1.92,1.4-3h0Z" transform="translate(-517.38 304.26)"/><g class="cls-24"><path class="cls-18" d="M600.91-245.06c-6.84-7.08-17.51-8.75-26.73-8.75,8.1-.49,21.1,2.4,26.73,8.75C599.35-246.67,601-245,600.91-245.06Z" transform="translate(-517.38 304.26)"/><path class="cls-18" d="M612.08-262.6c-8.71,5-24.79,9.89-34.85,7.31,10.32,1.85,26.27-1.35,34.85-7.31C606.93-259.66,612.14-262.64,612.08-262.6Z" transform="translate(-517.38 304.26)"/><path class="cls-18" d="M611.75-265.13c-10.55.21-22.25,3.85-31.62,8.45,9.16-4.39,21.46-8.45,31.62-8.45C609-265.08,611.83-265.13,611.75-265.13Z" transform="translate(-517.38 304.26)"/><path class="cls-18" d="M600.62-237.23C596-245.18,585.85-251,577-252.5c8.17,1.37,19.38,8,23.58,15.27C598.28-241.26,600.64-237.18,600.62-237.23Z" transform="translate(-517.38 304.26)"/><path class="cls-18" d="M604.7-245.42c-7-6.45-14.86-7.85-23.74-9.23,8.87,1.9,16.68,3.07,23.74,9.23C601.64-248.25,604.75-245.38,604.7-245.42Z" transform="translate(-517.38 304.26)"/></g><path class="cls-17" d="M600.91-245c-6.83-7.09-17.53-8.75-26.73-8.75,8.57-.52,20.54,2.56,26.73,8.75C599.35-246.58,601-244.91,600.91-245Z" transform="translate(-517.38 304.26)"/><path class="cls-17" d="M612.08-262.51c-8.71,5-24.79,9.89-34.85,7.31,10.83,2,25.64-1.76,34.85-7.31C606.93-259.57,612.14-262.55,612.08-262.51Z" transform="translate(-517.38 304.26)"/><path class="cls-17" d="M611.75-265c-10.46.19-22.38,3.75-31.62,8.45A91.26,91.26,0,0,1,611.75-265C609-265,611.83-265,611.75-265Z" transform="translate(-517.38 304.26)"/><path class="cls-17" d="M600.62-237.13c-4.62-8-14.77-13.75-23.58-15.27,8.68,1.45,18.77,8,23.58,15.27C598.28-241.16,600.64-237.09,600.62-237.13Z" transform="translate(-517.38 304.26)"/><path class="cls-17" d="M604.7-245.33c-7-6.52-14.84-7.68-23.74-9.22,8.87,1.87,16.7,3.08,23.74,9.22C601.64-248.16,604.75-245.29,604.7-245.33Z" transform="translate(-517.38 304.26)"/><path class="cls-18" d="M534.17-244.57c6.84-7.08,17.51-8.75,26.74-8.75-8.15-.49-21.06,2.41-26.74,8.75C535.73-246.19,534.12-244.52,534.17-244.57Z" transform="translate(-517.38 304.26)"/><path class="cls-18" d="M523-262.12c9.32,5.33,24.1,9.13,34.84,7.31-11,2-25.5-1.89-34.84-7.31C528.14-259.17,522.93-262.16,523-262.12Z" transform="translate(-517.38 304.26)"/><path class="cls-18" d="M523.33-264.65c10.55,0.21,22.24,3.85,31.62,8.45-9.16-4.39-21.46-8.45-31.62-8.45C526-264.59,523.24-264.65,523.33-264.65Z" transform="translate(-517.38 304.26)"/><path class="cls-18" d="M534.45-236.74C539-244.58,549.27-250.65,558-252c-6.31,1-21.58,8.13-23.58,15.27C536.79-240.77,534.44-236.7,534.45-236.74Z" transform="translate(-517.38 304.26)"/><path class="cls-18" d="M530.37-244.93c7.54-7,14.91-6.38,23.74-9.22-8.87,1.88-16.69,3.07-23.74,9.22C533.43-247.76,530.32-244.89,530.37-244.93Z" transform="translate(-517.38 304.26)"/><path class="cls-17" d="M534.06-244.59c6.79-7.11,17.55-8.75,26.73-8.75-9.46-.57-19.51,3-26.73,8.75C535.61-246.21,534-244.54,534.06-244.59Z" transform="translate(-517.38 304.26)"/><path class="cls-17" d="M522.88-262.14c9.31,5.32,24.13,9.16,34.84,7.31-10.94,2-25.51-1.89-34.84-7.31C528-259.2,522.81-262.18,522.88-262.14Z" transform="translate(-517.38 304.26)"/><path class="cls-17" d="M523.21-264.67c10.5,0.19,22.33,3.8,31.62,8.44a93.88,93.88,0,0,0-31.62-8.44C525.91-264.62,523.13-264.67,523.21-264.67Z" transform="translate(-517.38 304.26)"/><path class="cls-17" d="M534.35-236.76c4.52-7.83,14.83-13.94,23.56-15.28-8.74,1.47-18.67,8-23.56,15.28C536.67-240.79,534.32-236.72,534.35-236.76Z" transform="translate(-517.38 304.26)"/><path class="cls-17" d="M530.25-245c7.36-6.81,14.82-6.93,23.76-9.22-8.87,1.86-16.71,3.07-23.76,9.22C533.31-247.79,530.2-244.91,530.25-245Z" transform="translate(-517.38 304.26)"/><path class="cls-25" d="M537.72-142.75c-0.39-.37.18,6.69,1.82,8,1.09,0.9-.84-7.12-1.82-8h0Z" transform="translate(-517.38 304.26)"/><path class="cls-25" d="M546-144.65c-2.11-.55-1,4.19-1.36,6.24,0.09-1.51.26-4-1-5.08-2.71-2.28-.08,2-1.14.34q-1.57.89,0.17,3.25c-0.27-1.31-2.64-2.26-2.59-1.79,0-.13.85,7.26,1.63,7.07a1.88,1.88,0,0,0,1-2.12c0.12,5.48,7.1-6.88,3.3-7.9h0Zm-2.36,7.41c-0.05-1.25.13-1.12,0,0C543.6-137.52,543.65-137.54,543.61-137.23Z" transform="translate(-517.38 304.26)"/><path class="cls-25" d="M566.54-142.07c-0.07-2.64-2.68,3.79-2.27,2.6,3.38-15.06-3.59,5.47-.38,1.24-0.24.89-1.33,10,.85,8.93,1.93-.94,1.8-10.92,1.8-12.77C566.53-142.5,566.54-140.95,566.54-142.07Z" transform="translate(-517.38 304.26)"/><path class="cls-25" d="M571.29-140.93q-1.72.5-1.31,3c0.69-5.87-5.88-.3-3.46,6.55,0.67,1.81,2.77-3.37,2.68-3a1.25,1.25,0,0,0,.39,1.84c2.23-.15,3.7-10.38,1.7-8.44C571.26-141.1,571.69-141.32,571.29-140.93Z" transform="translate(-517.38 304.26)"/><path class="cls-17" d="M541.66-131.54a28.53,28.53,0,0,1-2.56-6.3,43.11,43.11,0,0,0,2.56,6.3C540.66-133.61,541.75-131.34,541.66-131.54Z" transform="translate(-517.38 304.26)"/><path class="cls-17" d="M541.6-136.92c0.22,0.32.07,4.63,0.22,5.08-0.36-1.19,1.25-2.94-.22-5.08h0Z" transform="translate(-517.38 304.26)"/><path class="cls-17" d="M545.46-138.61q-1.94.28-1.64,3.3c0.19-5-.91,1.64-1,2.32,0.19-1.41,2.64-3.43,2.65-5.61C545.46-138.78,545.45-137,545.46-138.61Z" transform="translate(-517.38 304.26)"/><path class="cls-17" d="M563.21-137.19l0.17-3.14c-0.24,2-1.94,3.66-.43,6.31q1.74-.7.26-3.17C563.2-138.23,563.21-136.2,563.21-137.19Z" transform="translate(-517.38 304.26)"/><path class="cls-17" d="M565-130.28l-0.24-2.56c-0.14,1.82-1.83,3.42-.06,5.74,1.43,2-.36-9.46.3-3.19C564.93-131.13,565.13-129.37,565-130.28Z" transform="translate(-517.38 304.26)"/><path class="cls-17" d="M567.33-133.34c-0.36.65-2.42,3.28-.92,4.79,0.61,0.64.87-4.7,0.92-4.79S567.08-132.95,567.33-133.34Z" transform="translate(-517.38 304.26)"/><path class="cls-17" d="M570-134.31c0,0.26-1.41,2.53-1.25,3.28,0.06,0.35,1.4-2.5,1.25-3.28h0Z" transform="translate(-517.38 304.26)"/><path class="cls-26" d="M733.38-84.44l-1.69.71c2-2.58-1.14-.37-2.51.1q1.91-.19,1.68-1.43c-1.26.35-3.46,1.61-2.15-.11-13.26,5.85-27.24,6.21-41.51,7,4.8,0.25,8.11-.53,1.13,1.17,0.31,0.07,7.64,0,6.59.41a39.72,39.72,0,0,0,5.74-.94q0.3,1.9-3,1.51a16,16,0,0,1,4.55.48,31.53,31.53,0,0,1-8.27,2.44c3.55,0.21-8.92,2.39-9.45,2.41,16.14,4.14,34.56-8.17,47.31-12.2q2.18-.35,1.62-1.54h0Z" transform="translate(-517.38 304.26)"/><path class="cls-26" d="M733.38-84.44l-1.69.71c2-2.58-1.14-.37-2.51.1q1.91-.19,1.68-1.43c-1.26.35-3.46,1.61-2.15-.11-7.66,3.38-15.86,3.79-23.47,6.7a44.71,44.71,0,0,1,7.26-1.29q0,1.39-2.12,1.16,3.15-.64,6.27-1.43,0.53,1.9-2.94,2a20,20,0,0,0,6-2.09c-6,2.11-11.42,6.57-18.57,8,11-2.06,22.06-8,30.66-10.74q2.18-.35,1.62-1.54h0Z" transform="translate(-517.38 304.26)"/><path class="cls-27" d="M691.86-75.14c-2.69.27-5.42,0.08-8.12,0.21-3.85.83,5.7-1.4,3.46-1.94-6.12-1.46-14.57.85-21,.61-2.3-.09-20.11-3.76-11.1-0.42-2.25-.31-17.56-4.89-12.89-2.09-5.09-1.56-18.11-6.08-20.72-10.49a27.1,27.1,0,0,0,4,5c-10.15-5.63,2.39,3,4.31,4.09-0.55-.18-3.1-0.85-3.11-0.85,4.19,3.48,10.68,8.46,16.54,8.17q0.95-1-.78-1.21c9.48,3.63,19.57,5.33,29.69,4,6.48-.85,13.5-4.41,19.67-5.06h0Zm-6.72-1c-0.47.13-2.19,0.08,0,0C685.05-76.09,684.8-76.1,685.14-76.11Z" transform="translate(-517.38 304.26)"/><path class="cls-28" d="M578.92-126.35c-3.29,1.46-7.85,10.77-8.73,11,2.94-.77,5.07-9.45,8.73-11C574.79-124.52,579.07-126.42,578.92-126.35Z" transform="translate(-517.38 304.26)"/><path class="cls-28" d="M574.38-119.44a8.33,8.33,0,0,0-3.73,5.73c0-.13,3.27-5.31,3.73-5.73C573.53-118.63,574.5-119.55,574.38-119.44Z" transform="translate(-517.38 304.26)"/><path class="cls-28" d="M573.92-112.28a7.77,7.77,0,0,0-2.15,7.6c-0.17-.45,1.63-7,2.15-7.6C572.13-110.41,574-112.4,573.92-112.28Z" transform="translate(-517.38 304.26)"/><path class="cls-28" d="M575.11-108.72a8.77,8.77,0,0,0-1.42,7.87c0.12,0.27,1.35-7.77,1.42-7.87C573.73-106.48,575.18-108.83,575.11-108.72Z" transform="translate(-517.38 304.26)"/><path class="cls-28" d="M576.95-113.52a8.1,8.1,0,0,0-1.14,5.62c0.13,0.53,1.18-5.69,1.14-5.62C576-111.83,577-113.63,576.95-113.52Z" transform="translate(-517.38 304.26)"/><path class="cls-28" d="M577.14-97.91l0.11-4.3c0,3.11-2.08,5.11.17,8.6q2.45-1-.28-4.3C577-99.35,577.26-96.54,577.14-97.91Z" transform="translate(-517.38 304.26)"/><path class="cls-28" d="M579.31-95.31l0-1.88c-0.17,1.14-1.09,2.23,0,3.86q1.22-.53,0-2C579.19-95.94,579.42-94.74,579.31-95.31Z" transform="translate(-517.38 304.26)"/><path class="cls-28" d="M552.17-114c-1.89,1.61-4,4.94-3.19,7.59,0,0.06,2.8-7.27,3.19-7.59C550.23-112.39,552.29-114.14,552.17-114Z" transform="translate(-517.38 304.26)"/><path class="cls-28" d="M551.37-109.81a6.21,6.21,0,0,0-1.07,3.48c0.13,0.73,1.47-4.29,1.07-3.48C550.86-108.78,551.44-109.95,551.37-109.81Z" transform="translate(-517.38 304.26)"/><path class="cls-28" d="M554-107c0.46-.69-3.06,7.45-1.58,6.75,0.75-.35,1.25-6.26,1.58-6.75h0Z" transform="translate(-517.38 304.26)"/><path class="cls-28" d="M554.33-97.47l-0.38-3.73c0,2.84-1,4.58.83,7.75q2.29-.94-0.44-4C554.06-98.69,554.61-96.22,554.33-97.47Z" transform="translate(-517.38 304.26)"/><path class="cls-28" d="M551.46-124.57c-2.79,2.14-5.48,6.23-5.08,9.93-0.06-.52,3.4-8.63,5.08-9.93h0Z" transform="translate(-517.38 304.26)"/><path class="cls-28" d="M545.83-129.79a9.09,9.09,0,0,0-1.2,5.62c0.39,1.21,1.5-6.29,1.2-5.62C545.17-128.14,545.9-129.95,545.83-129.79Z" transform="translate(-517.38 304.26)"/><path class="cls-28" d="M537.56-131.75a5.21,5.21,0,0,0-3.24,3.53c0,0.52,3.33-3.58,3.24-3.53C536.84-131.38,537.73-131.84,537.56-131.75Z" transform="translate(-517.38 304.26)"/><path class="cls-28" d="M536.22-127.93a5.83,5.83,0,0,0-2.89,4.25c0,0.26,2.68-4.1,2.89-4.25C534.9-126.94,536.37-128,536.22-127.93Z" transform="translate(-517.38 304.26)"/><path class="cls-28" d="M535.53-123.26a3.2,3.2,0,0,0-1.34,2.09c0.25,0.46,1.6-2.35,1.34-2.09h0Z" transform="translate(-517.38 304.26)"/><path class="cls-28" d="M536.41-119.76c-0.93.65-3.68,3.37-3,5.14,0-.11,3.05-5.16,3-5.14C535.52-119.13,536.57-119.88,536.41-119.76Z" transform="translate(-517.38 304.26)"/><path class="cls-28" d="M535.92-114.95c-0.33.1-3.21,4.11-1.81,4.11,0.89,0,1.35-4,1.81-4.11h0Z" transform="translate(-517.38 304.26)"/><path class="cls-28" d="M537.11-111.65c-0.33.37-3.66,5-1.88,6.33,0.23,0.17,1.95-6.4,1.88-6.33h0Z" transform="translate(-517.38 304.26)"/><path class="cls-28" d="M538.52-107.19c0-.35,0,2.55,0,0C538.51-107.31,538.52-106.89,538.52-107.19Z" transform="translate(-517.38 304.26)"/><path class="cls-28" d="M536.84-151c-0.16.93-1.44,4.18-1.06,5.43s1.14-6.27,1.06-5.43C536.87-151.12,536.76-150.09,536.84-151Z" transform="translate(-517.38 304.26)"/><path class="cls-28" d="M538.19-147.13c-0.06.89-1.08,1.89-.47,3.29,0.21,0.49.48-3.52,0.47-3.29C538.2-147.31,538.16-146.58,538.19-147.13Z" transform="translate(-517.38 304.26)"/><path class="cls-28" d="M531.2-163c0.12,0.84-.25,3.74-0.12,4.81,0-.08.2-4.12,0.12-4.81C531.18-163.17,531.37-161.49,531.2-163Z" transform="translate(-517.38 304.26)"/><path class="cls-28" d="M530.72-185.41c-1.82,2.1-4.18,6.61-2.87,9.49-0.25-.55,2-8.48,2.87-9.49C529.54-184,530.8-185.51,530.72-185.41Z" transform="translate(-517.38 304.26)"/><path class="cls-28" d="M529.56-178.47a10.27,10.27,0,0,0-1.59,8c0.13,0.25,1.51-7.8,1.59-8C528.66-176.1,529.59-178.58,529.56-178.47Z" transform="translate(-517.38 304.26)"/><path class="cls-28" d="M529.1-169.81c0.05,0.26.58,2.51,0,0C529.05-170,529.18-169.44,529.1-169.81Z" transform="translate(-517.38 304.26)"/><path class="cls-28" d="M556.61-217.68a6.59,6.59,0,0,0-3.9,4.06c0,0.12,3.71-4,3.9-4.06C555.08-217,556.76-217.76,556.61-217.68Z" transform="translate(-517.38 304.26)"/><path class="cls-28" d="M554.63-213.58q-3,.56-2.11,2.13,3.08-.79,2.11-2.13C553.83-213.06,554.75-213.67,554.63-213.58Z" transform="translate(-517.38 304.26)"/><path class="cls-28" d="M557.85-214.68c-1.45,1.32-5.34,4.39-4.73,7.23,0,0.06,4.08-6.68,4.73-7.23C556.64-213.58,558-214.77,557.85-214.68Z" transform="translate(-517.38 304.26)"/><path class="cls-28" d="M552.36-207.39l-1.91,1.49c-0.18.42,2.18-1.54,1.91-1.49h0Z" transform="translate(-517.38 304.26)"/><path class="cls-28" d="M552.58-205.43c-1.27.93-4.88,4-4.45,6.28a57.31,57.31,0,0,1,4.45-6.28C551.51-204.65,552.72-205.54,552.58-205.43Z" transform="translate(-517.38 304.26)"/><path class="cls-28" d="M550.87-201.25a5.2,5.2,0,0,0-2.63,3.14c-0.06.37,2.54-3.12,2.63-3.14C550.26-201.07,551-201.29,550.87-201.25Z" transform="translate(-517.38 304.26)"/><path class="cls-28" d="M554.07-202.9c-1.71,1.3-6.26,8.94-7.13,9.17a7.65,7.65,0,0,0,3.08-4.15c-3,7.86,3.27-4.43,4.06-5C552.6-201.78,554.19-203,554.07-202.9Z" transform="translate(-517.38 304.26)"/><path class="cls-28" d="M548.82-195.45a6.17,6.17,0,0,0-1.66,2.63c-0.08.72,2.25-3.2,1.66-2.63C548.44-195.07,548.94-195.57,548.82-195.45Z" transform="translate(-517.38 304.26)"/><path class="cls-28" d="M551.92-196.44c-2,1.59-5.17,7.6-5.77,9.93-0.08.32,5.62-9.81,5.77-9.93h0Z" transform="translate(-517.38 304.26)"/><path class="cls-28" d="M549.58-188.67a6.33,6.33,0,0,0-2,2.83c-0.11,1,2.74-3.45,2-2.83h0Z" transform="translate(-517.38 304.26)"/><path class="cls-28" d="M551.45-189.73c-1.2,3.92-5.54,7.4-3.84,12.2-0.21-.57,1.7-7.34,2-7.83-0.21,6.11,1.82-4.24,1.86-4.36h0Z" transform="translate(-517.38 304.26)"/><path class="cls-28" d="M550.11-180.33a4.57,4.57,0,0,0-.61,4.44c0.25,0.29.81-4.75,0.61-4.44C549.52-179.27,550.17-180.43,550.11-180.33Z" transform="translate(-517.38 304.26)"/><path class="cls-28" d="M559.37-224.14c-0.62-2.28-3.52-.29-4.3-0.29,0.32,0,4.46.89,4.3,0.29S559.46-223.83,559.37-224.14Z" transform="translate(-517.38 304.26)"/><path class="cls-28" d="M560.47-225.46l-1.64-1.1c-0.73,0,2,2,1.64,1.1C560.2-226.13,560.55-225.26,560.47-225.46Z" transform="translate(-517.38 304.26)"/><path class="cls-28" d="M554.85-222.41c-1.68-.74-2.39,1.28-3.24,1.68,0.08,0,3.51-1.56,3.24-1.68h0Z" transform="translate(-517.38 304.26)"/><path class="cls-28" d="M524-263.73l1.91-4.59c-2.27,3.78-3.84,7.9-1.44,11.69q2.27-1.25,0-4.56-1,.08-0.55,1.66l0.08-4.19C524.39-265.35,523.71-262.29,524-263.73Z" transform="translate(-517.38 304.26)"/><path class="cls-28" d="M538.52-253.75a9.79,9.79,0,0,1-1.39-6.51c-0.78,3.54.68,4.88,1.39,6.51C537.61-255.78,538.63-253.51,538.52-253.75Z" transform="translate(-517.38 304.26)"/><path class="cls-28" d="M541-258.65a8.58,8.58,0,0,1-1-3.57,10.61,10.61,0,0,0,1,3.57C540.86-259.16,541-258.44,541-258.65Z" transform="translate(-517.38 304.26)"/><path class="cls-28" d="M542.12-258q-0.22-2-1.1-1.15,0.3,2.26,1.1,1.15C541.86-258.41,542.21-257.82,542.12-258Z" transform="translate(-517.38 304.26)"/><path class="cls-28" d="M543.16-278.57c-0.39.22-3.42,0.84-3.83,0.49,1.85,1.6,3.18-.12,3.83-0.49h0Z" transform="translate(-517.38 304.26)"/><path class="cls-28" d="M543.08-279.43h0Z" transform="translate(-517.38 304.26)"/><path class="cls-28" d="M560.61-288.85q-2-1.83-2.58-.46c0.54,0.18,4,2.39,4,2.2l-1.38-1.74h0Z" transform="translate(-517.38 304.26)"/><path class="cls-28" d="M559.64-287.8c-2.47-2.15.14,0.12,0,0C559.31-288.08,559.78-287.68,559.64-287.8Z" transform="translate(-517.38 304.26)"/><path class="cls-28" d="M555-288.16c-1.48-1.29-2.6-.25-3.8-0.41,0.15,0,4.17.72,3.8,0.41C554-289,555.21-288,555-288.16Z" transform="translate(-517.38 304.26)"/><path class="cls-28" d="M563.8-277.4c0,0.7-.49,2,0.06,3,0.34,0.68-.11-3.39-0.06-3C563.79-277.56,563.91-276.5,563.8-277.4Z" transform="translate(-517.38 304.26)"/><path class="cls-28" d="M562.48-289.42c0.13,0.08.8,3,1,3.31q2-.83-1-3.31h0Z" transform="translate(-517.38 304.26)"/><path class="cls-28" d="M566.48-290.34c0.09-.1-2.55,2.88-1.26,3.41,0.51,0.22,1.59-3.79,1.26-3.41S566.6-290.47,566.48-290.34Z" transform="translate(-517.38 304.26)"/><path class="cls-28" d="M568.65-289.78a5.68,5.68,0,0,0-2.86,2.82,37.75,37.75,0,0,0,2.86-2.82h0Z" transform="translate(-517.38 304.26)"/><path class="cls-28" d="M548.89-251.2c-1.48.68-3.15,6.25-.49,6.39,0.3,0-1.36-5.57.49-6.39C547.33-250.48,549-251.24,548.89-251.2Z" transform="translate(-517.38 304.26)"/><path class="cls-28" d="M550.48-245.83l-0.74-2.32a13.39,13.39,0,0,0,.74,2.32h0Z" transform="translate(-517.38 304.26)"/><path class="cls-28" d="M582.16-249.37c-0.07.18-1.49,3.18-1.37,3.09q3.37-3.34,1.37-3.09C582-248.88,582.19-249.47,582.16-249.37Z" transform="translate(-517.38 304.26)"/><path class="cls-28" d="M588.49-259.26c-0.3.41-2.35,1.79-2.35,2.46l0.11,0.1c0.63,0.42,2.36-2.72,2.24-2.56C588.12-258.74,588.55-259.35,588.49-259.26Z" transform="translate(-517.38 304.26)"/><path class="cls-28" d="M593.15-262.95c0.55,0.37-.62,4-0.72,4.27,0.3-.66,3.24-2.5.72-4.27h0Z" transform="translate(-517.38 304.26)"/><path class="cls-28" d="M594.56-268.07c-0.47-.67,1.52,3.46,1.34,2l-1.34-2C594.47-268.2,595-267.45,594.56-268.07Z" transform="translate(-517.38 304.26)"/><path class="cls-28" d="M552.48-184.23a4,4,0,0,0-.38,3.51c0.64,0.62.76-4.13,0.38-3.51S552.54-184.34,552.48-184.23Z" transform="translate(-517.38 304.26)"/><path class="cls-28" d="M558.9-190.37c0,0.08-1.45,6.86-1.41,6.85,2-.28,1.67-6.15,1.41-6.85h0Z" transform="translate(-517.38 304.26)"/><path class="cls-28" d="M567.56-215c1.37,0.51,2.65,4.67,3.16,5.8-0.88-1.82,1.4-4.23-3.16-5.8h0Z" transform="translate(-517.38 304.26)"/><path class="cls-28" d="M571.77-214.06l-1.18-1.33c-0.87-.71,1.89,2.87,1.18,1.33C571.51-214.57,571.88-213.83,571.77-214.06Z" transform="translate(-517.38 304.26)"/><path class="cls-28" d="M572.13-221.58c-1.58-1.72-2.88-.34-4.31-0.28-0.07,0,4.74.74,4.31,0.28C571-222.85,572.37-221.33,572.13-221.58Z" transform="translate(-517.38 304.26)"/><path class="cls-28" d="M569.28-180.26c-2.49,4.41-5.87,8.55-4.45,14-0.66-2.65,2.95-11.6,4.45-14C568-178,569.32-180.34,569.28-180.26Z" transform="translate(-517.38 304.26)"/><path class="cls-28" d="M566-160.88q-2.23,1.11-.44,4.73c-0.09-1.28,1.53-2.51.44-4.73C566-161,566.66-159.56,566-160.88Z" transform="translate(-517.38 304.26)"/><path class="cls-28" d="M566.91-155.49c0,0.64-1.11,2.21-.43,3.26,0.28,0.47.45-3.68,0.43-3.26C566.92-155.68,566.89-154.93,566.91-155.49Z" transform="translate(-517.38 304.26)"/><path class="cls-28" d="M581.32-208.27q-1.36,4-3,7.93c0.09-.36,2.76-7,3-7.93C580.81-205.51,581.34-208.39,581.32-208.27Z" transform="translate(-517.38 304.26)"/><path class="cls-28" d="M636.93-75.93c-1.23-.7-5.87-2.42-6.83-3.27,2,1.81,5.41,2.46,6.83,3.27h0Z" transform="translate(-517.38 304.26)"/><path class="cls-28" d="M631.2-81.14c-0.64-.91-3.42-2-3.76-2.38q2.06,4.35,3.76,2.38C630.36-82.34,631.31-81,631.2-81.14Z" transform="translate(-517.38 304.26)"/><path class="cls-28" d="M640.39-76.3c-1.21-.4-4.35-1.47-5.23-1.91a38.45,38.45,0,0,0,5.23,1.91h0Z" transform="translate(-517.38 304.26)"/><path class="cls-28" d="M643.15-74.32q-2.13-2-3-.54,2.31,2.24,3,.54h0Z" transform="translate(-517.38 304.26)"/><path class="cls-28" d="M657.44-72.76c-3.87-1.71-9.81-1-13.12-2.92,4,2.39,10,1.55,13.12,2.92h0Z" transform="translate(-517.38 304.26)"/><path class="cls-28" d="M659.6-71.55c-0.91-.22-5.23,0-5.94-0.37,2.12,1,4.44,0,5.94.37C657.71-72,659.82-71.5,659.6-71.55Z" transform="translate(-517.38 304.26)"/><path class="cls-28" d="M668.78-72.55q-4.06-2.2-5.05.38,4.11,2.25,5.05-.38C667.14-72.6,669-72.54,668.78-72.55Z" transform="translate(-517.38 304.26)"/><path class="cls-28" d="M695.94-74.73c-1,0-4.44.76-5.41,0.54,2.09,0.45,3.84-.54,5.41-0.54C694.13-74.7,696.13-74.73,695.94-74.73Z" transform="translate(-517.38 304.26)"/><path class="cls-28" d="M704.41-75.79Q700.7-77,699.84-74.7q4.59,1.62,4.57-1.09h0Z" transform="translate(-517.38 304.26)"/><path class="cls-28" d="M711.78-77.51q-1.34-.25-1.62.69,1.85,0.39,1.62-.69h0Z" transform="translate(-517.38 304.26)"/><path class="cls-28" d="M709.56-77.71q-2.24-.71-2.92.77,3,1.07,2.92-.77h0Z" transform="translate(-517.38 304.26)"/><path class="cls-28" d="M724-81.23c-1.48.47-5.08,2-6.55,2.18,2.64-.26,4.89-1.64,6.55-2.18C721.84-80.55,724.35-81.34,724-81.23Z" transform="translate(-517.38 304.26)"/><path class="cls-28" d="M574.77-67.68c-6.38.51-8.31,3-12.82,5.65,3.85-2.32,8.45-5.22,12.82-5.65C572.12-67.47,575-67.7,574.77-67.68Z" transform="translate(-517.38 304.26)"/><path class="cls-28" d="M572.77-70.28c-6.45.43-8.1,3.61-12.62,5.86,4.12-1.84,7.28-5.35,12.62-5.86C568.26-70,573-70.3,572.77-70.28Z" transform="translate(-517.38 304.26)"/><path class="cls-28" d="M562.09-69.47L559.89-68a13,13,0,0,0,2.2-1.51C561.32-69,562.35-69.61,562.09-69.47Z" transform="translate(-517.38 304.26)"/><path class="cls-28" d="M535.09-71.59c-4.93.52-7.21,2.64-10.67,5.29,2.54-2.08,7.66-5,10.67-5.29C531-71.15,535.35-71.62,535.09-71.59Z" transform="translate(-517.38 304.26)"/><path class="cls-28" d="M540.77-69.65c-4.1.34-8.33,1-10.94,4.5,1.3-1.72,9-4.34,10.94-4.5h0Z" transform="translate(-517.38 304.26)"/><path class="cls-28" d="M527-70.85c-2.21.48-2.82,1.57-4.39,2.42A36.27,36.27,0,0,1,527-70.85C526.24-70.68,527.25-70.91,527-70.85Z" transform="translate(-517.38 304.26)"/></g></g></svg>