<svg id="Layer_1" data-name="Layer 1" xmlns="http://www.w3.org/2000/svg" viewBox="0 0 279.01 268.68"><defs><style>.cls-1{fill:#3b93b3;}.cls-1,.cls-2,.cls-3,.cls-5{fill-rule:evenodd;}.cls-2{fill:#256c86;}.cls-3{fill:#65b3cf;}.cls-4{fill:#1d2e2f;}.cls-5{fill:#fff;}</style></defs><title>anim_24</title><g id="fin"><path class="cls-1" d="M673.47,1564.39c-13.22,13.75-26.77,14-49.27,12.09s-25.54,20.57-8.52,31.65,37.11,10.07,54.61-1.46c8.08-5.32,13.42-17.06,15-28.51C686.35,1569.9,690.1,1547.09,673.47,1564.39ZM495.1,1576.48c-22.51,1.87-36.05,1.66-49.27-12.09-16.63-17.3-12.88,5.51-11.77,13.77,1.54,11.45,6.88,23.19,15,28.51,17.5,11.54,37.59,12.54,54.61,1.46S517.61,1574.62,495.1,1576.48Z" transform="translate(-432.91 -1357.45)"/></g><g id="tail"><path class="cls-2" d="M711,1453.68c-6.72-10.75-14.18-.75-33.4-12.25-6.71-4-12.09-5.36-16.67-5-1.94-4.16-5.78-8.15-12.6-11.95-19.57-10.89-14.64-22.35-27.31-22.8-11.34-.4-12.55,27.24,6.46,51.62-8.22,17.48-38.48,32.16-58.29,45.1-24.5,16,53.5,82,57,46,2.93-30.18,11.73-60.35,29-72.27C689.7,1478.19,717.48,1464.11,711,1453.68Z" transform="translate(-432.91 -1357.45)"/></g><g id="body"><path class="cls-1" d="M559.65,1425.76c-58.5,0-99,93.5-80,150,9.7,28.84,82,30.37,82,30.37s68.45-5.93,78-32.37C659.15,1519.76,618.15,1425.76,559.65,1425.76Z" transform="translate(-432.91 -1357.45)"/></g><g id="body-2" data-name="body"><path class="cls-3" d="M560.15,1572.46c-54.26,0-78.79-19.82-85.22-26.11a97.43,97.43,0,0,0,4.71,29.41c9.7,28.84,25.34,50.37,82,50.37s68.45-25.93,78-52.37a90.54,90.54,0,0,0,4.91-30.53C640.8,1547.94,618.46,1572.46,560.15,1572.46Z" transform="translate(-432.91 -1357.45)"/></g><g id="eye"><ellipse class="cls-4" cx="81.24" cy="167" rx="6" ry="7"/></g><g id="eye-2" data-name="eye"><ellipse class="cls-4" cx="173.24" cy="167" rx="6" ry="7"/></g><g id="exhaust"><path class="cls-2" d="M559.65,1440.45c-4.55,0-7.5,1.89-7.5,4.42s3.36,4.58,7.5,4.58,7.5-2.05,7.5-4.58S564.2,1440.45,559.65,1440.45Z" transform="translate(-432.91 -1357.45)"/></g><g id="water"><path class="cls-5" d="M538.65,1357.45a20.5,20.5,0,1,0,0,41c11.32,0,20.5,50.49,20.5-20.5A20.5,20.5,0,0,0,538.65,1357.45Zm37,13a12.52,12.52,0,0,0-12.5,12.55c0,43.45,5.6,12.55,12.5,12.55A12.55,12.55,0,0,0,575.65,1370.45Z" transform="translate(-432.91 -1357.45)"/></g></svg>