<svg xmlns="http://www.w3.org/2000/svg" viewBox="0 0 338.67 232.63"><defs><style>.cls-1{isolation:isolate;}.cls-11,.cls-2{fill:#392312;}.cls-3,.cls-4,.cls-5,.cls-6,.cls-7,.cls-8{fill:#8d4b28;}.cls-4{opacity:0.3;}.cls-10,.cls-11,.cls-4,.cls-6,.cls-8{mix-blend-mode:multiply;}.cls-10,.cls-5,.cls-8{opacity:0.4;}.cls-15,.cls-20,.cls-21,.cls-23,.cls-5,.cls-7,.cls-9{mix-blend-mode:screen;}.cls-6{opacity:0.6;}.cls-9{fill:#c25c3d;}.cls-10{fill:#63371c;}.cls-11,.cls-20{opacity:0.7;}.cls-12{fill:#1b1000;}.cls-13{fill:#8b8b8b;}.cls-14,.cls-15{fill:#ab3a19;}.cls-16{fill:#3f1802;}.cls-17{fill:#fff;}.cls-18{fill:#231508;}.cls-19{fill:#a2552d;}.cls-20{fill:#b05b30;}.cls-22{fill:#df6632;}.cls-23{fill:#e88f36;opacity:0.5;}</style></defs><title>anim_81</title><g class="cls-1"><g id="Layer_1" data-name="Layer 1"><path class="cls-2" d="M604.57,294c-1.42-12.41-29.1-12-37.12-9-5.74,2.14-7.32,5.64-9.48,8-3,4.72-19.61,16.11-18.1,22a2.1,2.1,0,0,0,2.12-1.49c-0.62,1-1.2,3,.17,1.76-3.25,8.14,6.9,20,11.8,25.55,2.7,3.09,18.83,14.89,14.5,18.33A11.7,11.7,0,0,0,570,357.4c-3.77,21.46,36.21-5.74,12.81-5.37q1.42-.15,1.27-1.27a12.82,12.82,0,0,0-4,.73c-0.08,0,1.43-.71,1.11-0.71-7.24-.05-9.93-12.82-10.9-18.31-1.47-8.38,1.41-13.38,7.27-19.33,3.52-3.56,27.4-15.41,27-19.16C604.29,291.56,605.07,298.5,604.57,294Z" transform="translate(-399.74 -148.63)"/><path class="cls-3" d="M601,297.72L597.37,299q2.45-.07,2-1.37c-10.44,5-26.1,12.71-30.05,24.67-1.78,5.37,2.21,30.12,11,29-3,1.51,3.13,0,2.63.07q-1.6.27-1.09,1.35,5-.85,7.09,3.4c-1.36-1.3-4.41-.59-5.2-1.08,5.2,3.2,3.22,2.6,3.22,6.39,0.49-6.42-8-3.66-8.49-5,0.79,2.67,13,3,3.54,7.14-6.09,2.67-12.47-6.55-10.32-7a2.16,2.16,0,0,0-1.06,2.25c-0.16-.81.6-3.9-0.86-1.86,1.15-4.94-14.43-16.52-17.55-20.66a56.68,56.68,0,0,1-7.28-11.8c-0.16-.37-3.18-12.42-1.06-11.33a2,2,0,0,0-1.69,1.26c0.69-1.78,4.47-6.09-1.61-.39-0.15-5.11,10.6-11.78,13.57-15.36,4.84-5.84,6.37-10.41,14.12-12.73,6.65-2,15.56-1.66,22.24.08,3.39,0.88,18.46,7.72,10.57,11.66C599.89,298.29,602.11,297.19,601,297.72Z" transform="translate(-399.74 -148.63)"/><path class="cls-3" d="M601,297.72L597.37,299q2.45-.07,2-1.37c-10.44,5-26.1,12.71-30.05,24.67-1.78,5.37,2.21,30.12,11,29-3,1.51,3.13,0,2.63.07q-1.6.27-1.09,1.35,5-.85,7.09,3.4c-1.36-1.3-4.41-.59-5.2-1.08,5.2,3.2,3.22,2.6,3.22,6.39,0.49-6.42-8-3.66-8.49-5,0.79,2.67,13,3,3.54,7.14-6.09,2.67-12.47-6.55-10.32-7a2.16,2.16,0,0,0-1.06,2.25c-0.16-.81.6-3.9-0.86-1.86,1.15-4.94-14.43-16.52-17.55-20.66a56.68,56.68,0,0,1-7.28-11.8c-0.16-.37-3.18-12.42-1.06-11.33a2,2,0,0,0-1.69,1.26c0.69-1.78,4.47-6.09-1.61-.39-0.15-5.11,10.6-11.78,13.57-15.36,4.84-5.84,6.37-10.41,14.12-12.73,6.65-2,15.56-1.66,22.24.08,3.39,0.88,18.46,7.72,10.57,11.66C599.89,298.29,602.11,297.19,601,297.72Z" transform="translate(-399.74 -148.63)"/><path class="cls-4" d="M601,297.72L597.37,299q2.45-.07,2-1.37c-10.44,5-26.1,12.71-30.05,24.67-1.78,5.37,2.21,30.12,11,29-3,1.51,3.13,0,2.63.07q-1.6.27-1.09,1.35,5-.85,7.09,3.4c-1.36-1.3-4.41-.59-5.2-1.08,5.2,3.2,3.22,2.6,3.22,6.39,0.49-6.42-8-3.66-8.49-5,0.79,2.67,13,3,3.54,7.14-6.09,2.67-12.47-6.55-10.32-7a2.16,2.16,0,0,0-1.06,2.25c-0.16-.81.6-3.9-0.86-1.86,1.15-4.94-14.43-16.52-17.55-20.66a56.68,56.68,0,0,1-7.28-11.8c-0.16-.37-3.18-12.42-1.06-11.33a2,2,0,0,0-1.69,1.26c0.69-1.78,4.47-6.09-1.61-.39-0.15-5.11,10.6-11.78,13.57-15.36,4.84-5.84,6.37-10.41,14.12-12.73,6.65-2,15.56-1.66,22.24.08,3.39,0.88,18.46,7.72,10.57,11.66C599.89,298.29,602.11,297.19,601,297.72Z" transform="translate(-399.74 -148.63)"/><path class="cls-4" d="M603.34,294.93c-1.85-12.56-31.3-11.7-38.92-7.67-5.34,2.82-7.79,8.56-11.73,13-2.47,2.78-12.28,9.63-12.15,13.82,6.08-5.7,2.3-1.39,1.61.39a2,2,0,0,1,1.69-1.26c-2.15-1.11,1.07,11.31,1.47,12.14-0.27-3.64,1-6.06,1.4-8.83a17,17,0,0,0,.64,8.41c0.08-.53,1.63-7.46,1.57-7.92,0.47,3.41.12,7.15,1.66,10.34,0.33-4.94,2.61-9.7,3.31-13.73a26.39,26.39,0,0,0,3.39,18.25c-0.24-3.64,1-8.46.85-11.35a42.77,42.77,0,0,0,.83,6.67c0.48-3.71,3.84-9.74,4-12.51a47.35,47.35,0,0,0-.48,8.34c0.91-2.71,4.42-7.35,4.89-9.2a40.69,40.69,0,0,0-1.46,7.14,17.81,17.81,0,0,1,6.33-7.69c-0.48.31-2,6.45-2,6.94,5.86-10.84,18.53-17.46,29.17-22.57q0.46,1.31-2,1.37c1.06-.31,6.35-1.53,6-4.08h0Z" transform="translate(-399.74 -148.63)"/><path class="cls-5" d="M584,354.69a13.46,13.46,0,0,1,4.95,1.45q-2.1-4.25-7.09-3.4-0.5-1.08,1.09-1.35c0.5,0-5.64,1.44-2.63-.07-7,.88-13.5-21.34-14.19-26.83-0.49,3.43.21,14.17,2.6,16.57-3.71-3.8-5.27-9-7.3-13.74-0.05,1.79.72,9.88,1.37,10.75a29,29,0,0,1-2.88-4.45c0.12,0.57,2.43,8.06,2.92,8.42a28.68,28.68,0,0,1-9.23-12.86c0,0.08,1.84,7.67,1.86,7.69a24.78,24.78,0,0,1-5-7.48c1.1,5.08,3.26,8.38,6.28,12.19,2.59,3.26,14.09,10.79,13,15.42,1.46-2,.71,1,0.86,1.86a2.16,2.16,0,0,1,1.06-2.25c-2.15.41,4.23,9.63,10.32,7,9.47-4.15-2.75-4.47-3.54-7.14,0.48,1.36,9-1.4,8.49,5,0-3.54,2.93-4.58-3-6.76h0Z" transform="translate(-399.74 -148.63)"/><path class="cls-2" d="M717.49,356.64c-1.09-6.26-6.27-3.76-9.85-7.31-4.68-4.62-4.23-12.88-4.44-19-0.59-16.81,2.69-33.57,5.09-50.13Q708,282,709.36,282c1-.53.3-8,0.32-8.5,0.64,7.56,2.18-8,2.44-9.23,1.13-5.36,4.21-12.86,2.63-18.23-0.25-3.39-10.27,4.94-10.36,5-6.92,6.4-9.94,14.2-14.27,22.29-3.25,6.08-9,7.29-11.72,13.3-3,6.52-.75,19.09,1.89,25.67,0.42,1.07.91-1.9,0.83-1.2,1,9.63,4.34,18.22,8.46,26.88,1.82,3.82,4.76,8,5.38,12.16,0.41,2.81-1.08,6.53-.12,8.94,0.32,0.83,1.23-.38,1.37-0.57,0.12,11.11,22.73,5.6,21.29-1.93C717.46,356.5,718,359.35,717.49,356.64Z" transform="translate(-399.74 -148.63)"/><path class="cls-3" d="M709.67,353.86c2.35,0.47,11.05,4.5,3.58,7.35,2-7.58-6.65-4-9.51-4,4.65,0,11.52,1.6,6.35,5.61-1.73,1.34-7.82,1.53-9.83.1-0.72-.51-5.57-7.48-3.14-7.78a2.08,2.08,0,0,0-1.31,1.7,12.8,12.8,0,0,1,1.67-4.87q-1-.37-1.21,1.26c0.12-5.31-21-43.94-15.08-46.91q-1.73,1.58-.71,4.39c-3.87-10.53-4.25-21.41,3.58-28.53,6.61-6,8-13,13-20.8a51.19,51.19,0,0,1,8-9.79c2.69-2.52,7.75-3,9.48-4.59,0.29,10.54-5.44,20.34-5.75,30.63-0.26-.69-3,13-3.5,16-1.68,10.95-3.35,21.88-3.39,33,0,6.36-.77,17.52,4.08,22.68,2.54,2.7,9.16,2.37,10.42,5.58a17.33,17.33,0,0,0-6.71-1h0Z" transform="translate(-399.74 -148.63)"/><path class="cls-4" d="M709.67,353.86c2.35,0.47,11.05,4.5,3.58,7.35,2-7.58-6.65-4-9.51-4,4.65,0,11.52,1.6,6.35,5.61-1.73,1.34-7.82,1.53-9.83.1-0.72-.51-5.57-7.48-3.14-7.78a2.08,2.08,0,0,0-1.31,1.7,12.8,12.8,0,0,1,1.67-4.87q-1-.37-1.21,1.26c0.12-5.31-21-43.94-15.08-46.91q-1.73,1.58-.71,4.39c-3.87-10.53-4.25-21.41,3.58-28.53,6.61-6,8-13,13-20.8a51.19,51.19,0,0,1,8-9.79c2.69-2.52,7.75-3,9.48-4.59,0.29,10.54-5.44,20.34-5.75,30.63-0.26-.69-3,13-3.5,16-1.68,10.95-3.35,21.88-3.39,33,0,6.36-.77,17.52,4.08,22.68,2.54,2.7,9.16,2.37,10.42,5.58a17.33,17.33,0,0,0-6.71-1h0Z" transform="translate(-399.74 -148.63)"/><path class="cls-6" d="M711.72,358.76c-2.51-4.86-8.42,3.92-12.82-2-0.3-.4-0.3-7.31-0.41-7.71-1.14-4.1-4.13-6.5-4.9-11.24-0.23,3.09-2.18-4.88-2.15-4.63-0.56,5.42-2.06-8.46-2.05-7.89q0.41,1.85-.88,1.89c-1.34-4.36-.86-9.07-0.76-13.54q1.23,4-1.26,4.33a27,27,0,0,1,.35-12.06q0.24,3.56-2,3.54c-0.13-2.21,2-7.25,1.72-8.61,0.27,1.23.05,2.09,0.25,3.49a15.08,15.08,0,0,1,3.87-6q2.43,1.27-.55,5a27,27,0,0,1,3.26-6.06q1,0.21,0,1.49c0.14-.22,3.5-4.12,3.49-4.11a29.47,29.47,0,0,0-2.07,10.28c0.28-.57,2.9-5.61,3-6a54.72,54.72,0,0,0-.91,11.51c0.1-.35,2-5.31,2-5.49-0.07,5.87-2.55,11.41-2.41,17.31,0.13-.2,2-4.86,2-5,0.12,3.8-.84,7.6-0.23,11.39q-1.73-4.39,1-4.76c0.14,5.75-1.14,11.56.14,17.26,0.11-.64,1.19-5.59,1.15-6.07,0.47,5.46,1.52,9.63,4.59,13.87,5.4,7.46,4.87,1.46,11.25,5.94-1.32-3.36-7.58-2.63-10.08-5.17-5.26-5.35-4.44-16.41-4.42-23.09,0-10.2,1.43-20.28,3-30.34,0.48-3.15,4.1-18.17,3.91-18.67,0.31-10.33,6-20.08,5.75-30.63-1.73,1.57-6.79,2.06-9.48,4.59a50.43,50.43,0,0,0-8,9.79c-4.8,7.6-6.49,14.92-13,20.8-7.84,7.13-7.45,18-3.58,28.53q-1-2.81.71-4.39c-5.91,3,15.19,41.76,15.08,46.91q0.22-1.63,1.21-1.26a12.8,12.8,0,0,0-1.67,4.87,2.08,2.08,0,0,1,1.31-1.7c-1,.13,3,11.28,10.83,8.31,2.3-.88,5.54-1.12,3.78-4.66C711.17,357.69,712,359.36,711.72,358.76Z" transform="translate(-399.74 -148.63)"/><path class="cls-6" d="M715.25,356l-3.66-1.26a1.42,1.42,0,0,1-1.14,1c2.48,0.42,3.36,3.32,2.8,5.43,1.63-.62,4.33-3.37,2-5.19h0Z" transform="translate(-399.74 -148.63)"/><path class="cls-5" d="M715.25,356a25,25,0,0,0-5.75-1.85c1.57,0.73,4.72-.81,6.88.71-1.41-3.59-8.9-3.6-11.67-7.86-5-7.67-3.1-21.79-2.42-30.39-1.13,2.77-3.2,8.23-3,10.84a35,35,0,0,0-.77-5.7c-0.13.53-1,8.32-.68,8.95a41.43,41.43,0,0,1-2-8.17c-0.7,4.24-.68,12.86.78,16.52a49.92,49.92,0,0,0-3.1-8q2.59,3.67.16,4.54-1.63-2.47-3.34-4.89,3.18,3.24.91,4.68a43.68,43.68,0,0,1-5.16-7.36c3,7.61,10.34,16.8,10.16,25.15q0.22-1.63,1.21-1.26a12.8,12.8,0,0,0-1.67,4.87,2.08,2.08,0,0,1,1.31-1.7c-2.43.31,2.42,7.27,3.14,7.78,2,1.44,8.1,1.25,9.83-.1,5.17-4-1.7-5.63-6.35-5.61,2.82,0,11.57-3.74,9.51,4,1.63-.62,4.33-3.37,2-5.19h0Z" transform="translate(-399.74 -148.63)"/><path class="cls-2" d="M723.24,224.07a4.79,4.79,0,0,0-4.53-1.08,22.89,22.89,0,0,0,4.32-3.56c-1.37,1.52-11.1,1.1-5.39-3.53-9.7,7.46-34.46,5.85-48.69,4.38-6.9-.71-16.5-4.06-23.26-2.92-1.22.21-18.17,6.34-18,6.15q-0.21,1.71,2.18,1.58c-0.24,0-7.94-1.3-8.43-.82q-0.32,1,1,1.32c-11-1.92-21.64-2.31-33.19-5.86-14.11-4.34-27.92-11.11-43-10.64-14.73.46-27.27,7.91-38,17.56-4.52,4.08-8.42,9-13.27,12.69-1,.79-9.11,4.42-4.93,4.42-5.48,2.48-7.88,7.71-12.69,11.46-4.58,3.57-9.5,6.64-13.85,10.55-0.47.42-10.18,8.92-3.8,5.44a56.73,56.73,0,0,1-15.24,8.71c-1.33.53-14.75,4.58-6.85,4.24-5.38,2.6-13.58,6.9-16.71,12.35q1.27,1.77,3.13-1c-9.52,7.22-13.14,17.26-17.1,26.85-1.89,4.56-6.13,32.38-7.14,32.82a7.54,7.54,0,0,0,3.11-5.26c-0.29.81-2.77,11.08-1.24,11.16,2.19,0.11,6.43-7.66,7.69-8.74,2.61-2.23,7-4.58,10-6.29,9.87-5.63,20.9-10.68,29-19-1.05,1.3-6.52,7.9-7.59,8.09,11.47-2,25.91-15.52,34.83-21.72,11.87-8.25,26.67-18.39,31.16-33.43,0,0.11-2.73,8.46-2.52,8.69q2.11,0.19,3.09-2.24c-1.11,2.11-4.93,10-5.4,11.91-0.13.52-8.4,8,1.32,1.92-2,2.46-13.65,7.69-7.14,7.81a15,15,0,0,0-5.17,3.89q0.35,1.19,1.34.25c0.23-.15-5.92,4.89-4.78,5.53a5.27,5.27,0,0,0,3.55-2.26c-8.08,8.12-5.09,22.4-1.27,31.78,2.18,5.34,5.82,9.77,8.27,14.89,1.25,2.61,1.13,11.19,3.64,7.65a7,7,0,0,0,.23,5q1.54-.14,1.26-2c-0.34,15.21,31.36,8.2,17.27-6.56-2-2.13-5.38-1.36-7.65-5.48a27.74,27.74,0,0,1-2.61-9.79c-0.85-9.83,4-17.84,10.74-24.73,16.36-16.71,32-18.5,54.44-16.9,21.38,1.53,48.51,12.06,68.63-.08q-0.37,2.61,1.65,2.55a2.17,2.17,0,0,0,.91-1.92c0.6,7.3,6.83,16.88,11.26,23.72,5.5,8.51,25.19,25.76,19.82,36-0.29.55,3.17-3,2.36-2.07-6.14,20.21,39,9.42,20.33-2.6-10.75-6.92-12.42-10.3-14.29-24.12-1.75-12.92-2.93-25.91-4.69-38.84-0.65-1.62,10.38-7.35,13.46-9.61,3.85-2.83,14.38-10,14.38-15,0,0.15.6-1.91,0.64-2.14,0.48,5.41,5.47-7.68,6.2-9.66,1.93-5.23,3.24-13.31,1.91-18.9,3.54,4.23,1.24-8.41.43-9.82,4.41,1.58,2-5.43-.65-7.65q3,2.49,4.89.49a5,5,0,0,0-3.87-4q3.78,1,4.61-1.62C722,222.67,723.45,224.32,723.24,224.07Z" transform="translate(-399.74 -148.63)"/><path class="cls-3" d="M716.85,228.59l4.78,0.76c-0.15-.44-4.79-3.76-4.81-3.7q1.83-2.06,5.15-1.35a7.76,7.76,0,0,0-4.66-.47c-0.31,0,4.42-3.73,4.33-3.65-4.27,1.64-3.82-1.88-6.55-1.73-3.4.19-8.73,2.9-12.47,3.36a158.42,158.42,0,0,1-26.29.55,196.45,196.45,0,0,1-23.27-2.49c-9-1.5-12.1,2-20.75,4.57q1.6-.56,1.89.7c-1.09,2.19-9.57.42-10.62,0.18q1.84-.16,1.84,1.14c-0.65,1-7.89-.7-8.35-0.75,3.49,1.89-5.25.53-5.88,0.45a134.94,134.94,0,0,1-18.33-3.85c-13.09-3.66-25.59-9.92-39.21-11.52-12.13-1.42-23.47,1.8-33.76,8.19-10.63,6.6-18.29,19.11-29.52,24.12-0.14,0,4.27-.27,2.81.23a16.59,16.59,0,0,0-7.78,4.3q1.48-1.4,2.69-.49c0,0.19-7.62,6.11-7.62,6.1a61.7,61.7,0,0,1,9.43-4.47c-9.63,3.66-24.05,14.18-31.2,22.23,4.35-1.86,7.49-5.56,12.26-6.55-5,.92-10.86,8.3-15.17,11.11-5.57,3.63-13.22,7.38-19.93,7.84,4.1,1.46,9.3-2.67,13.65-2.48-9.87,3.59-18.7,7.3-26.6,14.48,2.88-1.32,6.13-4.09,9.18-4.61-7.3,1.3-14.38,12.44-17.81,18.31,2.14-2,6.34-5,7.77-7.05-6.14,8.79-11.87,14.74-15.64,25.06,1.24-2.35,3.48-6.51,6.12-7.55-8.21,3.11-10.95,25.59-11.9,32.8,3.25-6,5.9-12.29,9.28-18.2-3.28,6.68-7.59,15.84-7.73,23.57,1.66-4.85,5.05-8.54,7.35-12.56-2.69,4.23-5.79,8.46-6.87,13.46,6-8.71,13.29-15.94,21.19-22.85a127.19,127.19,0,0,0-12.81,14.54c8.66-7.2,17.06-15,25.93-21.85-4.63,5.19-9.2,10.42-14.57,14.88a266.35,266.35,0,0,0,32.27-23.61c-2.55,5.59-9.3,9.87-13.14,14.45,9.75-4,18.91-13.16,26.16-20.6a69.77,69.77,0,0,1-9.16,10.62c10.22-7.13,24.13-16.63,28.9-28.52-2.1,5.57-5.88,10.64-9.65,15.17,7.35-5.89,21.77-17.17,23.19-27-0.92,5.62-5.33,11.45-8.92,15.65,4.26-3.29,16.39-15.42,15.17-21.63a14.77,14.77,0,0,1-.73,7.06c3.78-5.76,8.8-14,10.22-20.48a60.08,60.08,0,0,1-4.53,13c4-6.21,11.25-17,10.74-24.6a24.65,24.65,0,0,1-.47,7.6c3.25-3.15,5.53-11.73,5.53-15.91-0.13,19.19-18.6,32.09-22.49,50,0.91-1.08,4.15-4.72,4.65-6.16a30.79,30.79,0,0,1-9.9,12.57c2.85-.47,8.33-4.8,10-6.76-5.16,6.22-7.89,11.08-14.24,12.94a1.76,1.76,0,0,1,2.31.23c-0.11,1-4.94,3.25-5.45,3.67,8.34-3.44-1.68,3-2.44,3.76q1.81-1.91,3-.57c-0.47,3.41-5.45,7.18-6.13,11.69-0.8,5.27.51,11.14,2.12,16.15,2.49,7.76,14.23,19.56,11,28.17-3.39,2.46,2.18-3.75,2.15-2.43a20,20,0,0,0-.43,5.62q-0.13-2.48,1.66-3.3c-0.22,0,.74,6.86,1.36,7.61,2.15,2.61,5.45,2.34,8.46,2.11,10.85-.8,5.42-5.77-2-8.41,2.88,1.05,9.54-.39,10.17,5,3.2-4-2-7.29-5.38-8.55,2.37,0.95,4.83.36,7.09,3.24,0.07-2.07-10.65-8.2-12.32-11.4-3.85-7.37-2.94-16.66-.46-23.65a22.32,22.32,0,0,0-1.3,6.23c3.59-12.36,14.74-21.54,24.88-28.57,4.7-3.25,9.82-6.23,14.58-9.52,2.76-1.9,14.37-14.18,17.08-14a1.39,1.39,0,0,1,.22,1.69c-3.37,3.31,4.71-5.86,3.69-2.37,1.49-1.47,5.26-8.84,5.05-3.47,1.84-1.46,3.68-8,5.15-8.52q1.69,0.74,0,3.16c2.09-2.71,5.91-6.5,5.59-10.18,0.23,3.42-7.14,13.69-6.51,10.73-0.24.54-5.66,9.45-5,4.27-0.56.69-8.94,10.48-9.24,6.94-6.19,6.71-13.79,11.84-21.4,16.78,20.29-5.57,42.4-.51,62.65,2.39,10.49,1.5,20.27,1.59,30.53-1.12,11.05-2.93,4.57-4.42,4.79-14.45,0.46-1.66-.86,3.28-1.28,1.71a18.86,18.86,0,0,1,0-7.47,1.83,1.83,0,0,1-.88,1.52c-1.47.59,1.28-9.94,1.3-9.52a47.4,47.4,0,0,1-.86,6.89q0.26-1.78,1.46-1.19a26.28,26.28,0,0,0-.41,7.81q0.05-1.61,1.28-1.43c0.3,4.35-.13,6,1.5,10.57,0,0.44.82-6.47,1.46-6,0.08,0.06,0,7.61.4,9.3a3,3,0,0,1,1.35-2.4c-0.11,0,1.92,9.58,1.87,9.45q-1.08-2.69.43-4.33,0.18-.39.59-0.13c3.65,10.94,7.33,19.27,14.23,29,4.8,6.74,19.29,19.5,15.17,28.24q0.29-1.82,1.64-1.73c-0.94,5.9,2.14,14.42,9.77,11.41,6.14-2.42,1.36-7.5-3.83-7.2,3.17-1,11.44.12,8.83,6,9.94,0.24,1.43-6-2.35-7.48a5.77,5.77,0,0,1,8.71,4.69c1.91,0,3.39-2.72,2-4.33-2.79-3.35-3.66-2.25-7.53-4.33-2.46-1.33-7.12-7-6.28-4.15-6-9.54-5.87-22.3-7-33.2-0.46-4.32-5.84-26.84-2.9-29.45q1.17-.38,1.43,1.1c0-1.15-.28-10.66.86-8.36,0.43-3.74,1.83-7,2.93-10.24a55.2,55.2,0,0,0-2.54,17.74c2.59-.8,2.74-4.34,4.48-4.93,1.09-.37-1.45,4.78-0.74,3.35,1.91-.81,6.63-5.59,6.69-7.33-0.21,9.69,3.59-5.1,6.66-5.47q0.18,0.66.51,0.5c-0.49,1-.78,2.1-1.21,3.1,2.23-.73,2.71-5.9,4.4-6q1.1,1.53-.83,3.26c4.1-3.84,4.17-8.17,4.24-13.42a18.52,18.52,0,0,1,.89,5.76c0.56-.92,2-4.71,1.68-5.85-0.05-.19,1,5.36,1,4.42,0.52-1,2.87-14.16,2.34-5.59,0.83-2.57,2.46-8.31.25-10.41a7.65,7.65,0,0,1,2.05,5.16c1.12-2,.06-10.4,1.37-5.83,0.28-2-3-9.43.43-5,0-1.36-3.69-10.83.23-3.79,0.29-3.63-2.07-7.41,1.86-3.44,1.33-3.5-.2-7.71-2.21-10.59q0.64-1.39,2-.17-1.88-1-1.46-2.55,1.79-.89,3,1.75c0.17-1-3.26-6.73-3.62-6.73C718.49,228.62,716.67,228.59,716.85,228.59Z" transform="translate(-399.74 -148.63)"/><path class="cls-6" d="M493.93,325.35l-0.68,1.85c1.28-3.7,1.25-3.2.68-1.85C493.68,326,494,325.24,493.93,325.35Z" transform="translate(-399.74 -148.63)"/><path class="cls-6" d="M697.24,369.62c-2.47-.62,1.55,3.76-4.42,1,1.44,1.1,3.61,3.72,2.69,5.8,4.49,0.11,7.31-4.66,1.73-6.82h0Z" transform="translate(-399.74 -148.63)"/><path class="cls-6" d="M668.43,287.25c0.31,0.4.64,0.8,0.95,1.22A14.82,14.82,0,0,0,668.43,287.25Z" transform="translate(-399.74 -148.63)"/><path class="cls-6" d="M691.33,371.49c-5.64,6.94-12.2-15.12-13.13-17.89q1.62,2.47-.11,3.27a18.43,18.43,0,0,1-2.6-6.42q0.53,1.27-.47,1.51a38.67,38.67,0,0,1-2.44-6.84,6.52,6.52,0,0,0,.26,2.47c0-1.39-6-10.26-6.84-12.58q0.68,1.74-.56,2a19.43,19.43,0,0,1-2.11-6.56q0.68,2-.71,2.26a19.08,19.08,0,0,1-1.28-6.51q-0.16,1.87-.16,3.75,0.14,0.48-.42.38c0-3.77-4.69-11.27-5.47-15.43q1.23,3.5-1,4.06c-2.25-5-2.41-10.61-2-16,0.06-.15-1.87,5.66-1.93,5.43a23.71,23.71,0,0,1-.18-10.07q0.51,4.16-2,4.17a21.72,21.72,0,0,1,2.16-13.76c-1.45,1.19-5.89,6.32-6,7.81a23,23,0,0,1,3.23-9.45c-0.14.16-4.53,5.94-4.53,6.32a22.63,22.63,0,0,1,2.84-9.36q-0.23,3.59-2.47,3.28a14.52,14.52,0,0,1,1.88-7.17q-0.32,4-2.81,3.67a29.27,29.27,0,0,1,4.66-12c-0.55.47-4.29,4.14-4.47,4.92a27.86,27.86,0,0,1,2-5.49c-3.21,5.52-4.47,11.55-4.93,17.86q0.26-1.78,1.46-1.19a26.28,26.28,0,0,0-.41,7.81q0.05-1.61,1.28-1.43c0.3,4.35-.13,6,1.5,10.57,0,0.44.82-6.47,1.46-6,0.08,0.06,0,7.61.4,9.3a3,3,0,0,1,1.35-2.4c-0.11,0,1.92,9.58,1.87,9.45q-1.08-2.69.43-4.33,0.18-.39.59-0.13c3.65,10.94,7.33,19.27,14.23,29,4.8,6.74,19.29,19.5,15.17,28.24q0.29-1.82,1.64-1.73c-0.89,5.58,1.73,14,9.46,11.68,4.16-1.26,4.51-3.39,1.14-6.44C691.31,371.52,691.71,371.84,691.33,371.49Z" transform="translate(-399.74 -148.63)"/><path class="cls-6" d="M517.55,368.26c1,0.91,1.82,3.19.08,4a5.27,5.27,0,0,1,4.15,4.13c2.83-3.51-1-6.73-4.24-8.09C518.55,369.13,519.41,369,517.55,368.26Z" transform="translate(-399.74 -148.63)"/><path class="cls-2" d="M661.31,266.7c0.07,0.29-1.08-9-.69-9a3.6,3.6,0,0,0-1.94,2.52c-1.15-3.66,2.67-6.57-2.74-2.32-0.18-4.74,6.1-6.94-2.38-3.88a41.68,41.68,0,0,1,3.59-3.62q-1.17-2.25-4.39-.42a6.62,6.62,0,0,0,3.9-2.92c-0.25.44-13.29,6.09-1,3.91a9.69,9.69,0,0,0-3.18,3.66q1.62,2.06,4.35-1.15a7.41,7.41,0,0,0-1.67,5.29q1.85,0.69,2.94-1.85c-2.49,7.26.67,4.37,1.79,2.7-0.2,1.59,1.7,8.25,1.44,7.09C660.53,263.65,661.38,267,661.31,266.7Z" transform="translate(-399.74 -148.63)"/><path class="cls-6" d="M716.85,228.59l4.78,0.76c-0.15-.44-4.79-3.76-4.81-3.7q1.83-2.06,5.15-1.35a7.76,7.76,0,0,0-4.66-.47c-0.31,0,4.42-3.73,4.33-3.65-4.27,1.64-3.82-1.88-6.55-1.73-3.4.19-8.73,2.9-12.47,3.36a158.42,158.42,0,0,1-26.29.55,196.45,196.45,0,0,1-23.27-2.49c-9-1.5-12.1,2-20.75,4.57q1.6-.56,1.89.7c-1.09,2.19-9.57.42-10.62,0.18q1.84-.16,1.84,1.14c-0.65,1-7.89-.7-8.35-0.75,3.49,1.89-5.25.53-5.88,0.45a134.94,134.94,0,0,1-18.33-3.85c-13.09-3.66-25.59-9.92-39.21-11.52-12.13-1.42-23.47,1.8-33.76,8.19-10.63,6.6-18.29,19.11-29.52,24.12-0.14,0,4.27-.27,2.81.23a16.59,16.59,0,0,0-7.78,4.3q1.48-1.4,2.69-.49c0,0.19-7.62,6.11-7.62,6.1a61.7,61.7,0,0,1,9.43-4.47c-9.63,3.66-24.05,14.18-31.2,22.23,4.35-1.86,7.49-5.56,12.26-6.55-5,.92-10.86,8.3-15.17,11.11-5.57,3.63-13.22,7.38-19.93,7.84,4.1,1.46,9.3-2.67,13.65-2.48-9.87,3.59-18.7,7.3-26.6,14.48,2.88-1.32,6.13-4.09,9.18-4.61-7.3,1.3-14.38,12.44-17.81,18.31,2.14-2,6.34-5,7.77-7.05-6.14,8.79-11.87,14.74-15.64,25.06,1.24-2.35,3.48-6.51,6.12-7.55-8.21,3.11-10.95,25.59-11.9,32.8,3.25-6,5.9-12.29,9.28-18.2-3.28,6.68-7.59,15.84-7.73,23.57,1.66-4.85,5.05-8.54,7.35-12.56-2.69,4.23-5.79,8.46-6.87,13.46,6-8.71,13.29-15.94,21.19-22.85a127.19,127.19,0,0,0-12.81,14.54c8.66-7.2,17.06-15,25.93-21.85-4.63,5.19-9.2,10.42-14.57,14.88a266.35,266.35,0,0,0,32.27-23.61c-2.55,5.59-9.3,9.87-13.14,14.45,9.75-4,18.91-13.16,26.16-20.6a69.77,69.77,0,0,1-9.16,10.62c10.22-7.13,24.13-16.63,28.9-28.52-2.1,5.57-5.88,10.64-9.65,15.17,7.35-5.89,21.77-17.17,23.19-27-0.92,5.62-5.33,11.45-8.92,15.65,4.26-3.29,16.39-15.42,15.17-21.63a14.77,14.77,0,0,1-.73,7.06c3.78-5.76,8.8-14,10.22-20.48a60.08,60.08,0,0,1-4.53,13c4-6.21,11.25-17,10.74-24.6a24.65,24.65,0,0,1-.47,7.6c3.25-3.15,5.53-11.73,5.53-15.91-0.13,19.19-18.6,32.09-22.49,50,0.91-1.08,4.15-4.72,4.65-6.16a30.79,30.79,0,0,1-9.9,12.57c2.85-.47,8.33-4.8,10-6.76-5.16,6.22-7.89,11.08-14.24,12.94a1.76,1.76,0,0,1,2.31.23c-0.11,1-4.94,3.25-5.45,3.67,8.34-3.44-1.68,3-2.44,3.76q1.81-1.91,3-.57c-0.47,3.41-5.45,7.18-6.13,11.69-0.8,5.27.51,11.14,2.12,16.15,2.49,7.76,14.23,19.56,11,28.17-3.39,2.46,2.18-3.75,2.15-2.43a20,20,0,0,0-.43,5.62q-0.13-2.48,1.66-3.3c-0.33,0,.77,6.9,1.36,7.61,1.73,2.09,3.62,1.91,6.25,2.29,4,0.58,9.06.44,8.49-4.23-0.8-6.64-7.09.52-9.3,0.23-5.21-.7-8.89-15.29-10.36-20.09q1.36,1.87,0,2.47c-3.69-6.63-6.12-14.48-4.43-22.08-0.14.31-2.07,4.77-2,5.08a25.8,25.8,0,0,1,.44-9q0.37,4.31-2.29,4.31c0-3.48-.23-7.6,1.36-10.84q-0.62,1.88-1.72,1.25c0.57-5.76,4.59-10.6,9.54-13.3a19.11,19.11,0,0,0-5.79,2c1.84-1,5.15-4.32,7.6-5.53a5.5,5.5,0,0,0-3.79.21,81.17,81.17,0,0,0,9.56-4.2,35.81,35.81,0,0,1-6.11.52c1.16,0,7.06-4.22,7.68-4.8-7.88,2.32,9.5-11.91,10.34-12.81a22.11,22.11,0,0,1-6,2.68q-1.23-2.73,3.3-4.54a22.07,22.07,0,0,1-6.43,2.7c1.54-.35,5.62-6.56,6.7-8.13q-1,2.87-2.47,1.81c1.84-8.23,7-14,12-20.4a19.76,19.76,0,0,1-5.1,3.67c1.77-.72,7.41-12.27,8.26-14.55-0.2.25-3.84,4.4-3.9,4.57,2.37-6.58,5.32-13.06,9.61-18.63,0,0-5.72,4.58-5.74,4.63,2-6.22,7.12-10.75,12.28-14.39a23.33,23.33,0,0,0-6.15,2.45c1.44-.72,4.09-4.36,6.22-5.38-0.09,0-6.74,2.05-6.81,2.16a12.06,12.06,0,0,1,4.47-4q-2.2,2.7-3.36,1.06a17.33,17.33,0,0,1,8.7-6.63,19.43,19.43,0,0,0-6.27,2.11c3.2-1.85,3.53-5.62,8.11-6.94,6.2-1.79,11.89,2.25,17.38,4.63q-2.48-1.64-1.1-2.89a101.76,101.76,0,0,1,9.45,4.69q-1.89-1.17-.78-2.11c3.62,1.7,6.29,5,10.17,6.25-4.88-6.65,7.82,2,9.92,3.2-5.35-6.63,4.94-.29,8.44.83-5.5-6.59,7.86,2.23,10.42,3.06-6.65-5.84,7.76.53,10.8,1-8.88-5,7.91,1,11.45.55-2.65-.66-3.83-1.94-6.16-2.88a0.93,0.93,0,0,0,.11-0.44c0.62,1,5.67.23,7-.31-7.27-3.12,6.29-.15,6.48-3.2a27.5,27.5,0,0,1-2.46,7c6.9-3.74.64,1.72-.84,4.15,1.45-.32,11.31-4.66,11-6.24a13.54,13.54,0,0,1-1.87,8.09s5.41-1.59,5.34-1.48a23.72,23.72,0,0,1-4.15,4q4.38-1.13,8.77-2.24c-1.21.3-4.94,5.08-7.15,5.94,8.32,0.65-3.86,2.44-6.67,1.85,5.84,5.72,7.27.05,3.59,7.49a8.48,8.48,0,0,1,5.32-2.21c-1.14,0-4.61,8.36-4.77,9.66,5.34-8.37,1.24,3.68,1.43,6.54q-0.27-4.66,2.18-3.93c-1.18,4,.09,8.59,1.7,12.28,0-.93.94-5.65,0.88-6.25,0.38,2.91.4,6.62,2.3,9.07q-2.4-4.21.28-4.9c0.67,3.93,1.76,9,4.84,11.88-0.22-1.08-.75-7.09-1-7.82,1.4,3.87,5,6.39,7.5,9.42q-2.26-1.8-.8-2.87c2.67,1.88,13.36,21.06,4.29,11,2.64,5.67,5,9.74,6.61,15.75,0.39,1.48,4.45,15.79.37,7.62,0.93,2.27,5.74,18,3,13,0.23,1.78,3.22,15.22.26,9.36-0.17-.62,3.12,10.9,1.74,9.25,2.28,6.26,4.63,8.7,9.34,12.63,1,0.86,11,9,10.09,9.37,4.44-1.79-1.11-6.37-2.84-7.59-1.55-1.1-4.87-1.5-6.74-2.45-1.51-.77-4.08-6.08-3-2.49-6-9.54-5.87-22.3-7-33.2-0.46-4.32-5.84-26.84-2.9-29.45q1.17-.38,1.43,1.1c0-1.15-.28-10.66.86-8.36,0.43-3.74,1.83-7,2.93-10.24a55.2,55.2,0,0,0-2.54,17.74c2.59-.8,2.74-4.34,4.48-4.93,1.09-.37-1.45,4.78-0.74,3.35,1.91-.81,6.63-5.59,6.69-7.33-0.21,9.69,3.59-5.1,6.66-5.47q0.18,0.66.51,0.5c-0.49,1-.78,2.1-1.21,3.1,2.23-.73,2.71-5.9,4.4-6q1.1,1.53-.83,3.26c4.1-3.84,4.17-8.17,4.24-13.42a18.52,18.52,0,0,1,.89,5.76c0.56-.92,2-4.71,1.68-5.85-0.05-.19,1,5.36,1,4.42,0.52-1,2.87-14.16,2.34-5.59,0.83-2.57,2.46-8.31.25-10.41a7.65,7.65,0,0,1,2.05,5.16c1.12-2,.06-10.4,1.37-5.83,0.28-2-3-9.43.43-5,0-1.36-3.69-10.83.23-3.79,0.29-3.63-2.07-7.41,1.86-3.44,1.33-3.5-.2-7.71-2.21-10.59q0.64-1.39,2-.17-1.88-1-1.46-2.55,1.79-.89,3,1.75c0.17-1-3.26-6.73-3.62-6.73C718.49,228.62,716.67,228.59,716.85,228.59Z" transform="translate(-399.74 -148.63)"/><path class="cls-7" d="M496.11,291.94c1-1.39,4.59-6.19,4.86-8.09-0.92,5.62-5.33,11.45-8.92,15.65,4.26-3.29,16.39-15.42,15.17-21.63a14.77,14.77,0,0,1-.73,7.06c3.78-5.76,8.8-14,10.22-20.48a60.08,60.08,0,0,1-4.53,13c4-6.21,11.25-17,10.74-24.6a24.65,24.65,0,0,1-.47,7.6c2.88-2.8,5.63-15.3,5.63-15.27,0.84-5.69,3.79-10.72,7.12-15.29-0.54.45-5.82,5.18-6.1,5.82,1.67-3.68,4.49-6.72,6.84-9.95-1,.85-6.91,5.3-7.57,6.51a55.37,55.37,0,0,1,8.92-11.13c-8.27,5.64,2.8-5.18,4.54-7-0.86.47-7,3.68-2-.07q-4.39,1.69-8.83,3.23c2-.62,6.75-5.11,9.36-6.37-9.5,1.49-18.21,6.13-25.86,11.78-8.23,6.08-14.76,16.23-24.14,20.42-0.14,0,4.27-.27,2.81.23a16.59,16.59,0,0,0-7.78,4.3q1.48-1.4,2.69-.49c0,0.19-7.62,6.11-7.62,6.1a61.7,61.7,0,0,1,9.43-4.47c-9.63,3.66-24.05,14.18-31.2,22.23,4.35-1.86,7.49-5.56,12.26-6.55-5,.92-10.86,8.3-15.17,11.11-5.57,3.63-13.22,7.38-19.93,7.84,4.1,1.46,9.3-2.67,13.65-2.48-9.87,3.59-18.7,7.3-26.6,14.48,2.88-1.32,6.13-4.09,9.18-4.61-7.3,1.3-14.38,12.44-17.81,18.31,2.14-2,6.34-5,7.77-7.05-6.14,8.79-11.87,14.74-15.64,25.06,1.24-2.35,3.48-6.51,6.12-7.55-8.21,3.11-10.95,25.59-11.9,32.8,3.25-6,5.9-12.29,9.28-18.2-3.28,6.68-7.59,15.84-7.73,23.57,1.66-4.85,5.05-8.54,7.35-12.56-2.69,4.23-5.79,8.46-6.87,13.46,6-8.71,13.29-15.94,21.19-22.85a127.19,127.19,0,0,0-12.81,14.54c8.66-7.2,17.06-15,25.93-21.85-4.63,5.19-9.2,10.42-14.57,14.88a266.35,266.35,0,0,0,32.27-23.61c-2.55,5.59-9.3,9.87-13.14,14.45,9.75-4,18.91-13.16,26.16-20.6a69.77,69.77,0,0,1-9.16,10.62c10.22-7.13,24.13-16.63,28.9-28.52-2.1,5.57-5.88,10.64-9.65,15.17a93.34,93.34,0,0,0,18.33-18.91h0Z" transform="translate(-399.74 -148.63)"/><path class="cls-7" d="M537.3,221.09l-3.24,2.28c2.08-1.42,5.54-7,7.78-9.25-0.86.47-7,3.68-2-.07q-4.39,1.69-8.83,3.23c2-.62,6.75-5.11,9.36-6.37-9.5,1.49-18.21,6.13-25.86,11.78-8.23,6.08-14.76,16.23-24.14,20.42-0.14,0,4.27-.27,2.81.23a16.59,16.59,0,0,0-7.78,4.3q1.48-1.4,2.69-.49c0,0.19-7.62,6.11-7.62,6.1a61.7,61.7,0,0,1,9.43-4.47c-9.63,3.66-24.05,14.18-31.2,22.23,4.35-1.86,7.49-5.56,12.26-6.55-5,.92-10.86,8.3-15.17,11.11-5.57,3.63-13.22,7.38-19.93,7.84,4.1,1.46,9.3-2.67,13.65-2.48-9.87,3.59-18.7,7.3-26.6,14.48,2.88-1.32,6.13-4.09,9.18-4.61-7.3,1.3-14.38,12.44-17.81,18.31,2.14-2,6.34-5,7.77-7.05-6.14,8.79-11.87,14.74-15.64,25.06,1.24-2.35,3.48-6.51,6.12-7.55-8.21,3.11-10.95,25.59-11.9,32.8,3.25-6,5.9-12.29,9.28-18.2-3.28,6.68-7.59,15.84-7.73,23.57,1.66-4.85,5.05-8.54,7.35-12.56-2.69,4.23-5.79,8.46-6.87,13.46,6-8.71,13.29-15.94,21.19-22.85a127.19,127.19,0,0,0-12.81,14.54c8.66-7.2,17.06-15,25.93-21.85-4.63,5.19-9.2,10.42-14.57,14.88a266.35,266.35,0,0,0,32.27-23.61c-2.55,5.59-9.3,9.87-13.14,14.45,9.75-4,18.91-13.16,26.16-20.6a69.77,69.77,0,0,1-9.16,10.62c10.22-7.13,24.13-16.63,28.9-28.52-2.1,5.57-5.88,10.64-9.65,15.17,7.35-5.89,21.77-17.17,23.19-27-0.92,5.62-5.33,11.45-8.92,15.65,4.26-3.29,16.39-15.42,15.17-21.63a14.77,14.77,0,0,1-.73,7.06c3.78-5.76,8.8-14,10.22-20.48a60.08,60.08,0,0,1-4.53,13c4-6.21,11.25-17,10.74-24.6a24.65,24.65,0,0,1-.47,7.6c2.88-2.8,5.63-15.3,5.63-15.27,0.84-5.69,3.79-10.72,7.12-15.29-0.54.45-5.82,5.18-6.1,5.82,1.67-3.68,4.49-6.72,6.84-9.95-1,.85-6.91,5.3-7.57,6.51a55.37,55.37,0,0,1,8.92-11.13C536.21,221.83,534,224.49,537.3,221.09Zm-17.15,9.8q-2.67,0,.14-4.51c-1.48,2.57-4.72,18-6,11.06-0.52,2.92-4.39,9.41-4.39,11.36q0.06-4.26.2-8.51A38.14,38.14,0,0,1,505,252.12c-2.52,3.78-2.26,6.84-1-1.25-1.59,4.46-7.72,11.08-8.35,14.87q1-4.21,2.32-8.32c-3.55,3.17-3.86,7.39-6.23,11.13-1.19,1.89-3,9.5-2.55,1.84-2.53,5.26-6.08,10.5-10.91,13.91,1.29-.88,2.81-7.93,3.18-9.87-3.79,7.27-9.54,14.41-16.75,18.5,0.71-.4,4.58-8.68,4.81-9.15-3.34,3.49-12.33,12.63-12.93,17.09a42,42,0,0,1,1.6-7.3c-1.07,2.51-10.37,17.69-7.31,8.62-5.32,9.8-15.27,15.19-21,23.14q1.9-2.74,3.55-5.64c-3.14,3-20,13.89-21,17.24,1.41-5,4.62-9.14,8-13-1.47.91-10.53,5.92-10.68,6.36A36.81,36.81,0,0,1,420,316.51c-8.94,4.84.46-3.14,2.26-4.6-0.28.14-8,4.1-8.15,4.57,2.31-5.35,6.68-9.34,11.43-12.53-9,4.16,4.32-5.37,6.28-6.51a55.85,55.85,0,0,0-8.15,2.85c5-2.38,11.39-7.86,17.26-10.64q-3,1-6,2c3.08-1,8.86-6.15,12.4-7.89,5.65-2.77,11.57-4.94,17-8.16-3.73,1.44-7.49,3.27-11.51,3.78,2.44-.29,10.24-6.57,13.06-8.12,5.94-3.28,12-6.32,17.95-9.57-2,.58-10.64,2.37-11.49,3.36,2.31-2.63,5.77-3.9,8.87-5.26a33.25,33.25,0,0,0-7,2.14c6.81-2.94,15.38-8.81,22.59-12.47a36,36,0,0,0-7.17,1.43c2.86-.78,7.62-5.2,11.26-6.43-3.82.5-7.51,1.66-11.26,2.5,4.35-.92,14.19-7.49,17.66-10.79-3.82,1.45-7.17,4.13-11.27,4.89,5.47-.91,14-9.62,18-13.55a56.48,56.48,0,0,0-5.35,2.94c4.63-2.92,9.13-8.76,14.62-11.91,2.54-1.46,7.17-6.28,3,0,8.48-3.09-4.86,10.1-6.28,12.28h0Z" transform="translate(-399.74 -148.63)"/><path class="cls-6" d="M530.6,235.51c-0.06.07-5.5,7.65-5.45,8.19a48.68,48.68,0,0,1-.28-6.28c0,0.12-2.62,8-2.54,8.25a24.35,24.35,0,0,1-.44-11.48c-1.58,4.1-1.65,8.36-2,12.69q-1.13.61-.88-1.43c-0.52,4-3.36,10.36-3.36,13.55q0-2.91-.2-5.81c-1.52,7.14-9.39,13.43-10.59,19.14q0.82-4.09,1.82-8.14c-1.1,2.21-6.33,11.93-5.89,13.91-0.8-3.61-.14-7.47.38-11.06-1.42,4.15-3.59,17.8-4.74,5.77-0.37,5.43-5.57,10.93-6,14.69a60.45,60.45,0,0,1,1-6.4c-0.93,2.67-6.44,9.75-6.54,11.56l0.62-5.75c-2.91,8.22-8.27,17.46-15.05,23.07,3.45-2.87,7.3-14.67,8.68-19.26-3.54,3.49-12.18,11.5-12.18,16.55a22.36,22.36,0,0,1,1.33-7.17c-3.6,4.83-8.9,11.95-10.53,17.44,1.14-4.12,2.8-8.09,4.29-12.09-2.08,3-4.68,6.93-7.55,9.08,0.1-.07,2.73-7.06,2.77-7.15-2.64,3.29-12.76,22.33-9.54,10.34-1.83,3.29-8.61,8.13-9.49,10.64,1.22-3.4,3.35-6.24,4.2-9.8-3.6,5.75-10.9,15.09-17.35,17.75q-1.7-1.76,1.86-4a74,74,0,0,1-8,5.49c2-1.17,7.35-9.36,8.86-11.81-3.91,3.89-7.24,8.42-11.4,12.07-3.38,3-8.73,9.32-5,.46-0.48.49-5.09,6.35-5.25,7.23,0.87-5.31,3.29-10.14,5.74-14.86-2,1.56-7.65,7.32-7.95,9.52a55.63,55.63,0,0,1,2.9-11.12c-3.92,6.76-5.3,15.45-6.3,23.11,3.25-6,5.9-12.29,9.28-18.2-3.28,6.68-7.59,15.84-7.73,23.57,1.66-4.85,5.05-8.54,7.35-12.56-2.69,4.23-5.79,8.46-6.87,13.46,6-8.71,13.29-15.94,21.19-22.85a127.19,127.19,0,0,0-12.81,14.54c8.66-7.2,17.06-15,25.93-21.85-4.63,5.19-9.2,10.42-14.57,14.88a266.35,266.35,0,0,0,32.27-23.61c-2.55,5.59-9.3,9.87-13.14,14.45,9.75-4,18.91-13.16,26.16-20.6a69.77,69.77,0,0,1-9.16,10.62c10.22-7.13,24.13-16.63,28.9-28.52-2.1,5.57-5.88,10.64-9.65,15.17,7.35-5.89,21.77-17.17,23.19-27-0.92,5.62-5.33,11.45-8.92,15.65,4.26-3.29,16.39-15.42,15.17-21.63a14.77,14.77,0,0,1-.73,7.06c3.78-5.76,8.8-14,10.22-20.48a60.08,60.08,0,0,1-4.53,13c4-6.21,11.25-17,10.74-24.6a24.65,24.65,0,0,1-.47,7.6c2.88-2.8,5.63-15.3,5.63-15.27a31.64,31.64,0,0,1,5-12.2l-2.48,2.57C528.49,238,531.38,234.59,530.6,235.51Z" transform="translate(-399.74 -148.63)"/><path class="cls-5" d="M520.55,367.25c-11-2.9-14.53-19-12.57-29.33-1.11,2.64-3.32,9.68-2.78,12.08a34,34,0,0,1-.5-10c-0.93,2.9-2.19,15.78-3.42,4.88,0-.1-1.38,7.1-1.4,7.05a25.47,25.47,0,0,1-1.18-17.59c-1.35,1.67-4.55,9.05-4,10.72a32.5,32.5,0,0,1-1-8.2c0.08-.18-1.81,5.67-1.88,5.49a21.58,21.58,0,0,1-.66-13.92c-0.06.09-2.7,4.9-2.68,5a19,19,0,0,1,.66-8.87c-11.24,15.93,16.75,31.26,11.37,45.61-3.39,2.46,2.18-3.75,2.15-2.43a20,20,0,0,0-.43,5.62q-0.13-2.48,1.66-3.3c-0.22,0,.74,6.86,1.36,7.61,2.15,2.61,5.45,2.34,8.46,2.11,10.85-.8,5.42-5.77-2-8.41,2.88,1.05,9.54-.39,10.17,5,3.2-4-2-7.29-5.38-8.55,2.37,0.95,4.83.36,7.09,3.24a3.66,3.66,0,0,0-3-3.8h0Z" transform="translate(-399.74 -148.63)"/><path class="cls-5" d="M702.91,367.45c-2.21-2.1-7.08-2.76-9.76-4.12-1.43-.72-4.16-6.35-3-2.49-6.13-9.69-6-22.82-7.09-33.9,0,0.9-1.39,9.87-1.13,10.71q-0.59-3.82-1.21-7.63c0.15,5.31.7,7.86-1.86,2.12,0.52,2.62.24,11,1.07,12.56-1.52-3-1.83-6.45-3.72-9.25,0.25,2,1.06,9.92,1.91,10.94a65.34,65.34,0,0,1-4.42-7.23c0.52,2.62,2.92,12.18,4,13.64-2.92-4-5.3-8.36-8.46-12.17-0.06-.13,3.57,7.4,3.34,7.24a39,39,0,0,1-7.66-8c-0.12-.23,6.29,8.83,4.75,7.68,4.06,5.54,12.88,13.14,9.46,20.41q0.29-1.82,1.64-1.73c-0.94,5.9,2.14,14.42,9.77,11.41,6.14-2.42,1.36-7.5-3.83-7.2,3.17-1,11.44.12,8.83,6,9.94,0.24,1.43-6-2.35-7.48a5.77,5.77,0,0,1,8.71,4.69c3.26,0,2.72-4.62,1-6.2h0Z" transform="translate(-399.74 -148.63)"/><path class="cls-5" d="M716.85,228.59l4.78,0.76c-0.15-.44-4.79-3.76-4.81-3.7q1.83-2.06,5.15-1.35a7.76,7.76,0,0,0-4.66-.47c-0.31,0,4.42-3.73,4.33-3.65-2.41.92-4.08-.81-5.79-0.88a15.53,15.53,0,0,0-7,1.61c-5.8,2.77-10.3,7.78-16.36,11.15a29.74,29.74,0,0,0,4.8-2.17c-2.95,1.64-9,9.18-10.49,12.67a23.78,23.78,0,0,1,7-5.55c-0.8.35-4.15,5.66-4.5,6.32q1.85-3.78,3.53-2.18c-1.48,3.74-5,6.49-8.25,8.62a27.57,27.57,0,0,0,6.28-2.69c-0.43.24-4.16,5.21-4.8,5.74,8-3.32,0,4.91-2.35,8.32q2.72-1.93,5.38-4c-0.34.23-4,8.89-4.07,9.11q1.54-3.63,3.39-2.29a19.69,19.69,0,0,1-8.88,11.92,27.3,27.3,0,0,0,7.9-3.54c0.15-.08-2.82,5.15-2.79,5.1q1.35-4.91,4-3.66c-2,8.84-6.08,15.49-5.82,24.61,2.59-.8,2.74-4.34,4.48-4.93,1.09-.37-1.45,4.78-0.74,3.35,1.91-.81,6.63-5.59,6.69-7.33-0.21,9.69,3.59-5.1,6.66-5.47q0.18,0.66.51,0.5c-0.49,1-.78,2.1-1.21,3.1,2.23-.73,2.71-5.9,4.4-6q1.1,1.53-.83,3.26c4.1-3.84,4.17-8.17,4.24-13.42a18.52,18.52,0,0,1,.89,5.76c0.56-.92,2-4.71,1.68-5.85-0.05-.19,1,5.36,1,4.42,0.52-1,2.87-14.16,2.34-5.59,0.83-2.57,2.46-8.31.25-10.41a7.65,7.65,0,0,1,2.05,5.16c1.12-2,.06-10.4,1.37-5.83,0.28-2-3-9.43.43-5,0-1.36-3.69-10.83.23-3.79,0.29-3.63-2.07-7.41,1.86-3.44,1.33-3.5-.2-7.71-2.21-10.59q0.64-1.39,2-.17-1.88-1-1.46-2.55,1.79-.89,3,1.75c0.17-1-3.26-6.73-3.62-6.73C718.49,228.62,716.67,228.59,716.85,228.59Z" transform="translate(-399.74 -148.63)"/><path class="cls-8" d="M643.48,306.89c-2.39-3.52-2.09-6.81-2-10.91,0.46-1.66-.86,3.28-1.28,1.71a17,17,0,0,1-.11-6.69c-1.79,3.52-1.25,10.42-4.43,2.55-1.74,5.06.56,8-3.65,0.85-1.22,3.41-3.71,8.46-2.88.61a13.66,13.66,0,0,1-6,5.71q-1.76-1.94,1.85-4.48a7.18,7.18,0,0,1-4.3,2.29q-0.64-1.35,1.43-2.22c-5,3.52-12.21,3.26-15.85,3.15,0.23,0,4.53-3.62,4.63-3.73a26.4,26.4,0,0,1-10.66,3.73q-0.56-1.8,2.09-2.73a46.9,46.9,0,0,0-6.46,2.71q-1.09-1.5,1.67-2.77c-2.45.84-8.58,6.81-4.49,0a21.1,21.1,0,0,1-7.42,2c0.24,0,4.66-4,4.77-4.07C585,297,579.67,297,575,298q-0.28-1.86,2.52-2.25c-3.58,1.79-7.92,3.08-12,2.62,0.75,0.08,9.47-6.18,10.67-7.14-5.4.74-4.55,2.62-.73-1.83,2.55-3,6.78-5.26,9.87-7.56-8.78,4.3,0-1.35,1.55-2.66a22.31,22.31,0,0,1-4.92,1.68c4.36-.85,7.82-11.16,7.49-14.94-0.1.38-2,5.21-2,5.37a30,30,0,0,0,.1-9.72q1.29,4.21-1.2,4.19c0-4.76,0-10-2.59-14.23q2.82,4.38,0,5.07c-1-4.24-2.32-8.75-5.07-12.22q2.42,2.25.66,3.06a17,17,0,0,0-4.5-7c5.39,8.67-3.72-1.86-5.89-2.76,3.54,4.83,4.35,7-1.68,4.06,2.92,3.85,1.13,8.8,2.5,11.36a15.78,15.78,0,0,0-3.17-3.83c1.44,2.8,4,17.25-.78,8.25,1.33,5.73.2,2.21-2.34-.41,1.19,5.6-1.1,10.54-1.1,15.29a14,14,0,0,0-1.2-5.47c0.06,0.85-1.11,7.31-1,7.74a33.72,33.72,0,0,0-1.55-5.43c0,4.09-2.51,19.88-4.24,7.14-0.24,4.46-2.87,18.92-4.81,6.81-0.89,5.09-5.07,9.59-6.1,13.48a58,58,0,0,0,1.2-6.55c-1.78,5.09-7.92,10.72-9.18,15.14a26.32,26.32,0,0,0,.94-5.34c-2.25,8.95-2.06,2.77-2.1.5-0.14.84-3.14,6.71-3.14,7.11q0.21-3.43.17-6.87c-0.87,4-3.58,15-4.23,4.53-0.91,3.26-10.24,18.24-7.35,6.94-1.51,2.48-6.59,11.09-4.79,2.44-1.83,3-11.57,18.5-7.61,7.5-2.09,2.75-2.87,6.42-3.57,9.72,2.06-3.47,1.46-2.34,1,.88q1-4.72,3.06-3.26c-2.71,4.58-3.29,9.92-4.06,15.07,1.93-4.13,1.38-1.76,1.38,1.71q-0.06-1.81,1.12-1.54a25.89,25.89,0,0,0,1.09,11.78q-1.63-3.83.74-4.09c0.46,5.55,1.81,10.07,6,13.81,2.77,2.46,6.72,1.74,9.22,4.92,0.07-2.07-10.65-8.2-12.32-11.4-3.85-7.37-2.94-16.66-.46-23.65a22.32,22.32,0,0,0-1.3,6.23c3.59-12.36,14.74-21.54,24.88-28.57,4.7-3.25,9.82-6.23,14.58-9.52,2.76-1.9,14.37-14.18,17.08-14a1.39,1.39,0,0,1,.22,1.69c-3.37,3.31,4.71-5.86,3.69-2.37,1.49-1.47,5.26-8.84,5.05-3.47,1.84-1.46,3.68-8,5.15-8.52q1.69,0.74,0,3.16c2.09-2.71,5.91-6.5,5.59-10.18,0.23,3.42-7.14,13.69-6.51,10.73-0.24.54-5.66,9.45-5,4.27-0.56.69-8.94,10.48-9.24,6.94-6.19,6.71-13.79,11.84-21.4,16.78,17.66-4.85,37.59-1.67,55.29,1.2,9.91,1.61,19.89,3.33,29.93,1.85,2.09-.31,16.08-2.95,14.74-5.32C642.33,305.19,643.51,306.93,643.48,306.89Z" transform="translate(-399.74 -148.63)"/><path class="cls-8" d="M510.48,336.7a23.34,23.34,0,0,0-1,5.53c0.55-1.9.56-3.54,1-5.53C509.89,338.53,510.25,337.65,510.48,336.7Z" transform="translate(-399.74 -148.63)"/><path class="cls-8" d="M565.29,290.39c1.2-1.41.91,1.53,0.9,1.43-3.37,3.31,4.71-5.86,3.69-2.37,1.49-1.47,5.26-8.84,5.05-3.47,1.84-1.46,3.68-8,5.15-8.52q1.69,0.74,0,3.16c5-6.51,7-14.2,1.94-22,0.52,3.64,1.11,17.19-2.34,7,0.58,11.28-2.86.07-4.24-2.27,0,3.35,1.07,7.24.51,10.58a33.89,33.89,0,0,1-2.89,6.33,43.14,43.14,0,0,0-.42-5.56q1.1,3.82-1.3,4.15a45.68,45.68,0,0,0-1.44-7.88c-0.38,2.38-4,20.6-4.31,10.43,0,0-2.57,5.55-2.6,5.06a65.83,65.83,0,0,0-.19-7.39c-0.33,2.91-6.8,12.11-6.69,12.8a36.51,36.51,0,0,1,.25-7.15c-6.9,23.8-43.53,29-45.9,54.7,10.77-23.92,38.36-30.47,54.83-49C565.57,290.07,556.62,300.14,565.29,290.39Z" transform="translate(-399.74 -148.63)"/><path class="cls-8" d="M641,297.79c0.3,1,.28,8.1.44-1.81-0.33,1.22-.57,1.27-0.44,1.81C641.14,298.15,641,297.69,641,297.79Z" transform="translate(-399.74 -148.63)"/><path class="cls-8" d="M568,301.06a4.38,4.38,0,0,0-2.79,1.45q1.42-.67,2.79-1.45C567.58,301.15,567.61,301.28,568,301.06Z" transform="translate(-399.74 -148.63)"/><path class="cls-8" d="M643.58,307c-2.34-.75-2.87-7.83-2.93-8.73-4.2,3-9.2,9.37-15.29,7.72q-0.25-1.83,2.07-2.82c-3.06,1.12-6.95,4.59-10.54,3.19q-0.45-1.27,1.44-2c-2.07,1-12.63,3-10.6,1.73-6.08,1.48-13.87.32-20-.5q0-1.74,2.68-1.28c-4.71-.66-9.5-0.07-14.21.06-0.13,0,4.22-2.36,4.19-2.34-3.77,0-7.2,1.79-10.9,2.21q-0.59-1.17,1.5-1.47-4.36.73-8.74,1.35-0.4-2.37,3.55-2.46c-5.79,1.56-4.76.91-1.21-1.48q-4.45,1.43-8.92,2.81-0.66-2.23,3.13-2.77c-5.41,3,6.11-5.88,7-6.76a0.76,0.76,0,0,1-.85-1.09c-6.19,6.71-13.79,11.84-21.4,16.78,16.72-4.59,36-2,52.84.78,5.63,0.92,48,6.54,47.22-3C643.54,307,643.62,307.42,643.58,307Z" transform="translate(-399.74 -148.63)"/><path class="cls-5" d="M684.32,255.44l-3.16,1c7.64-7.34-2.36-1.23-4.51.16a50.14,50.14,0,0,1,2.44-6.45,12.38,12.38,0,0,0-5,5.54,13.18,13.18,0,0,1,.38-6.93q-2.24-.78-2,3.36a19.91,19.91,0,0,1,1.82-6.55c-0.58,1.37-3.9,4.71-4.73,7,0-.86,1.74-8.54,2.57-8.92-3.19,1.42-3.8,3.79-6.24,5.26A18.68,18.68,0,0,1,668,243c0.14-.39-3.84,3.83-3.82,3.81,2.91-10.35-4.47,1.51-4.5,1.85-0.08,1,5-3.77,3.82-2.58-0.83,1.74-4.69,7-.36,3.22-4.66,7.44-.66,2.81,2.15.64,0,2.71-2,3.34-1.43,6.45q2.33,0.39,2.55-3.39c-1.24,4.23-3.06,8.3-1.25,12.62,1.86-1.86,1.88-5.66,3.82-7.71a7.05,7.05,0,0,0-.64,7.15c2.24-2.2,1.75-5,4.77-6.93-1.65,4.81-3.25,8-1.09,12.92a22.86,22.86,0,0,1,4.5-8.81c0,0.09-1.71,5.58-.94,6.09,0.88-2.68,5.73-12.8,8.73-12.87h0Z" transform="translate(-399.74 -148.63)"/><path class="cls-5" d="M685.27,261.38c-4,3.55-6.24,5.9-6.37,11.56,0-.32,8.34-13,6.37-11.56C683.64,262.81,685.56,261.17,685.27,261.38Z" transform="translate(-399.74 -148.63)"/><path class="cls-5" d="M692.47,251.42c-0.8.9-1.46,9.5-1.86,10.58,1.17-3.26,8.36-6.24,1.86-10.58C692.37,251.52,693.55,252.14,692.47,251.42Z" transform="translate(-399.74 -148.63)"/><path class="cls-5" d="M692.48,264.53c0,2.85-2.43,6.38-3.66,8.64,1.83-3.24,5.93-3.28,3.66-8.64C692.48,264.56,692.85,265.41,692.48,264.53Z" transform="translate(-399.74 -148.63)"/><path class="cls-5" d="M699.31,261.61a19.07,19.07,0,0,0-3.43-3.52c0,3.62,1.25,6.18.58,10.13,0.24-1.36,4.48-3.93,2.86-6.6C698.44,260.18,699.35,261.67,699.31,261.61Z" transform="translate(-399.74 -148.63)"/><path class="cls-5" d="M700.6,247.53c-1.93,0,5,5.89,5,8.16-1.9-4.37,1.25-5.52-5-8.16C700.3,247.53,702.13,248.18,700.6,247.53Z" transform="translate(-399.74 -148.63)"/><path class="cls-8" d="M516,275.05c-1.33,3.27-8.89,12.21-10.46,19.42,1.07-1.26,8.66-11.55,2.62-2.35,3.67-3.23,5.6-7.88,7.62-12.2-1,1.23-4.37,4.13-5,5.11a63.78,63.78,0,0,0,5.26-10h0Z" transform="translate(-399.74 -148.63)"/><path class="cls-8" d="M716.85,228.59l4.78,0.76c-0.15-.44-4.79-3.76-4.81-3.7q1.83-2.06,5.15-1.35a7.76,7.76,0,0,0-4.66-.47c-0.31,0,4.42-3.73,4.33-3.65-1.82.7-3.22,0.24-5,0-2.39-.35-2.2-0.14-5.42.1-6.75.51-13.31,2-20.22,2.22a195.26,195.26,0,0,1-39.65-2.88c3.12,4.66,7.58,4.41,8.76,8.88,3.58-3.58,2.27.25,2.29,3.9,4.62-5.73,2.47,1.18,1.94,3.46q0-2.13,1.39-1.85-0.48,2.95-1.06,5.88,0.55-3.64,2.89-3.29a38.23,38.23,0,0,1-1.75,6.79A33,33,0,0,1,671,239c-0.09,0-3,6.43-3,6.43,2.57-1.58,4.49-4.38,7.63-5-0.21,0-2.16,5.91-2.16,5.92a9.53,9.53,0,0,1,3.22-3.51c-0.15.09-1.4,6.71-1.4,6.71,3.21-5,3.69-10.91,4.72-2.78q0.24-3.7,2.28-3-0.52,3.76-.8,7.55c2.15-3.63,2.52-8.26,5.85-11.18-0.74.71,0,9.74,0.48,11.17-0.07.21,1.78-6.55,1.85-6.31q0.57,3.51,1,7c0.13-1,2.34-11.19,2.46-10.95a68.76,68.76,0,0,1,2.33,8.5q-2.33-3.65.07-4.81a30,30,0,0,1,2.83,5.62c0.67-.95-0.62-11.89-0.66-11.93a25.23,25.23,0,0,1,6.3,5.8c0.08-4.57-4.58-7.63,2.44-4.19a8,8,0,0,0-3.35-4c-0.61-.49,6-0.45,6.07-0.44-2-6.54,5.48,1,5.91,3.47q-1.28,1.52-3.25-1c4.86,4.23,3.68,5.63-2.32,3,1.77,2.05,6.15,12.59.84,8.13,3.55,5.78-2.19,1.22-4,.45,2.35,3.32,7.54,20.81.53,11.22a8.46,8.46,0,0,1,.24,6.18c-0.17.38-4.18-5.81-4-5.61,1.23,5-1.39,12-.59,15.39q-0.64-2.76-1.4-5.5a10.31,10.31,0,0,1-3,7.55c-1.28,1.33-2.79-23.73-.29-4.66-0.42,2.65-6.23,16-4.83,6.09,0.11-.29-3.28,6.14-3.34,5.74-0.59-3.71.06-7.61,0.85-11.24-1.07,2.64-4,16-3.59,4.22-3.19,5.88-4.2,13.1-4,19.38,2.59-.8,2.74-4.34,4.48-4.93,1.09-.37-1.45,4.78-0.74,3.35,1.91-.81,6.63-5.59,6.69-7.33-0.21,9.69,3.59-5.1,6.66-5.47q0.18,0.66.51,0.5c-0.49,1-.78,2.1-1.21,3.1,2.23-.73,2.71-5.9,4.4-6q1.1,1.53-.83,3.26c4.1-3.84,4.17-8.17,4.24-13.42a18.52,18.52,0,0,1,.89,5.76c0.56-.92,2-4.71,1.68-5.85-0.05-.19,1,5.36,1,4.42,0.52-1,2.87-14.16,2.34-5.59,0.83-2.57,2.46-8.31.25-10.41a7.65,7.65,0,0,1,2.05,5.16c1.12-2,.06-10.4,1.37-5.83,0.28-2-3-9.43.43-5,0-1.36-3.69-10.83.23-3.79,0.29-3.63-2.07-7.41,1.86-3.44,1.33-3.5-.2-7.71-2.21-10.59q0.64-1.39,2-.17-1.88-1-1.46-2.55,1.79-.89,3,1.75c0.17-1-3.26-6.73-3.62-6.73C718.49,228.62,716.67,228.59,716.85,228.59Z" transform="translate(-399.74 -148.63)"/><path class="cls-2" d="M736.67,198.2c4.11-8.42,1.49-43-13.48-28.77-7.67-9.14-16.12-18.06-27.14-18,0,0,1.86-.77.89-1.12a5.55,5.55,0,0,0-5.67.87q1.87-1.42.54-2.32a8.12,8.12,0,0,0-3.28,3.24,3.54,3.54,0,0,0-3-3.45q-1,.81.31,1.74c-0.83-.7-5.81-2-4.08-0.26a7.82,7.82,0,0,0-6,0q-0.88,1.2,1.3,1.19c-5.66-.84-11.54,1.57-16.88,3.37a13.63,13.63,0,0,0-5.15,3.39l-2-2.38c-4.62,1-3.32-1-7.57,3-8.17,7.58-12.56,26.43-3.56,34.72-4.61-.48-4.92,4.87-4.35,4.78-10.72,10.62,22.32,35.46,31,39.21,10.65,4.61,20,2.1,30.68-1.4,6.63-2.18,30.58-10.7,29.64-20.74,3,3.18,2.29-1.46.92-3.28a5.36,5.36,0,0,0,3.09,1c1.7-.39-2.94-3.89-2.71-3.77q2.41,1,3.28-.78a3.6,3.6,0,0,0-3-1.35,1.13,1.13,0,0,0,1-1.38q-1.81.86-2.53-.38c3.57-.42,6.39-4.21,7.8-7.14C738.77,193.9,735.12,201.41,736.67,198.2Z" transform="translate(-399.74 -148.63)"/><path class="cls-3" d="M728.28,204.73c-1-.82-2-4.09-3.53-6,1.32-.68,10.45-1.09,3.39-3.61q2.76,0.89,3.55-1.14a6.82,6.82,0,0,0-6.28-3.26c0.2-.12,6.07-1.48,6-1.57a6.86,6.86,0,0,0-3.79-2.68q2.67,0.68,3.42-1.34A7,7,0,0,0,726.3,184s6.17-3.26,5.74-3.81a3.59,3.59,0,0,0-4-.57c-1.07,1.34,7.58-9.21-1.13-1.63a28,28,0,0,1,1.44-3.27c0.74-1.6-10.21,11.27-3.57,3.2a35.09,35.09,0,0,1,2.25-6.41,17.9,17.9,0,0,0-4.68,6.43c0.07-.2,2.15-2.91,2.47-3.25-3.16,7.4.13,4,1.78,2.17q-1.86,1.75-.73,3.11a13.77,13.77,0,0,0,3-2.34q-3,1.19-1.85,3a5.58,5.58,0,0,1,3.85,0c0.66-.49-7,3.83-5.62,4.18a32.28,32.28,0,0,1,4.31.52,3.86,3.86,0,0,0-3.41,1.05q0.09,2.5,3.94,2.49c0.49,0-7.11,1.51-5.76,2.29a9.62,9.62,0,0,1,6.23,2.88c0.61-.1-5.2,1.09-3.77,1.59a4.38,4.38,0,0,1,2.84,1.78c-9.07.32-3.87,1-2.55,5.93a1.73,1.73,0,0,0-1.76.28c-1.27,1.43,5.16,1.75,1,4.3a7.53,7.53,0,0,1,3.17-1.46,2.1,2.1,0,0,0-1.51,1.26q0.92,2,4,.75-2.52-.63-2.63,1a6,6,0,0,1,3.06,2.92,18,18,0,0,0-3.41-1.26c-0.51.05,1.22,3.86,1.16,4.34-2.61-4.65-1.76,1.33-2.89,2.33-4.46,3.94-8,7.57-13.32,10.52-9.57,5.28-24,11.5-35.21,10.57-10.69-.89-21.54-8.8-28.93-16.12-2.51-2.48-14.67-23.07-12.79-23,0.72-1.21,3.75-3.08.67-2.56,1.51-1.89,3.6-1.87,1-2.52,1.52-1.06,3.89.31,5.26-.64,0.37-.26-1.59-0.65-1.66-0.65,0.9-.26,2-5.49,2.41-6.62,0.65-1.83,4.35-7.11-1.33-4.78,1.13-1.72,10-6.93,1.44-4.67,0.89-1.34,5.86-2.77,3-3.44-0.84-.84,8.26-1-1.9-1.5,1.76-1,8.28.35,3.48-3.69,3.49-.35,3.17,2.27,2.92-3.22q-0.16,2.19,1.39,2.57c1.52-.76.26-6,0-6.71q-2.63,1.15-.12,5.08a25.15,25.15,0,0,0-1.63-2.44c-0.64,1.21-.72,7.06-3.83,5a4.35,4.35,0,0,1,2.26,2.26c0.53,1.84-10.14-.42-2.76,2-1.11.38-1.57,1.05-.31,1.37a7.16,7.16,0,0,0-3.53,3.23q1,1.81,3.49-.08c-4.41,2.84-7.54,4.51-1.54,4.35-3.9,3.65-1.83,6.66-3.49,10.56-7.21-6.9-3.71-18.22.17-25.85,2.4-4.72,9.86-16.09,13.13-5-2.23-7.52,11.24-7.77,16.29-8.89q0.79-1.07-1.14-.91c1.52-.33,11.22.46,5.89-1.63,1.7-.38,8.46,2.08,6-0.58a6.19,6.19,0,0,1,3.84,2q1.58-.83-0.32-2.47c1,0.43,2.24,2.23,2,3.27q1.94,0.6,2.78-2.48c-2.39,4.37,2,.39,4.35.74-3.14,2.17,4.33,1.08,5.16,1.5a1.84,1.84,0,0,0-1.41,1c0.2-.69,7.43,1.53,7.45,1.55a1.78,1.78,0,0,0-1.83.67c1.16-2.26,12,7,12.89,8s3.09,3.09,3.5,4.58c1.18,4.25-.95,2-0.91,6.57,0-2.23,6.72-7.09,8.85-7,4,0.17,6.47,7.29,7.36,10.07,2.57,8.06,2.45,24.18-8,26.84C728,204.51,732.18,203.74,728.28,204.73Z" transform="translate(-399.74 -148.63)"/><path class="cls-7" d="M731.87,191.27q1.34-2,2.81,2.38c-0.15-1.07-5.19-10.49.3-4-1-4.7-6.39-5.44.6-4.72-0.58-1.84-5.64-6.56-.17-4a5.51,5.51,0,0,0-3.87-4q0.21-1.49,2.35-.93a4.08,4.08,0,0,0-4.23-.92q-0.86-1.85,2.68-2.21c-3.58-2.31-8.33,4.23-2.58-3.82-2.66.29-6.32,6.5-2.84-.68a14.63,14.63,0,0,0-5.41,4.62c7.47-6.38,1,1.88.14,4.44,2.28-1.31,3.36-4.25,5.39-5.86A35.09,35.09,0,0,0,724.8,178c-6.65,8.07,4.3-4.8,3.57-3.2a28,28,0,0,0-1.44,3.27c8.71-7.58.06,3,1.13,1.63a3.59,3.59,0,0,1,4,.57c0.43,0.55-5.73,3.81-5.74,3.81a7,7,0,0,1,4.75,1.09q-0.75,2-3.42,1.34a6.86,6.86,0,0,1,3.79,2.68c0.06,0.09-5.82,1.45-6,1.57a6.82,6.82,0,0,1,6.28,3.26q-0.8,2-3.55,1.14c7.29,2.61-2.28,3-3.39,3.61,0.26,0.33,5.46,4.85,2.74,5.4,6.73,4.38,8-9.1,4.38-12.86h0Z" transform="translate(-399.74 -148.63)"/><path class="cls-7" d="M642.38,189.93c-0.55-.23,3.11-7.55,3.36-7.78-6,.16-2.88-1.51,1.54-4.35q-2.52,1.88-3.49.08a7.16,7.16,0,0,1,3.53-3.23c-1.25-.31-0.79-1,0.31-1.37-6.81-2.2,3.13-.68,2.76-2a4.35,4.35,0,0,0-2.26-2.26c3.11,2.07,3.19-3.79,3.83-5a25.15,25.15,0,0,1,1.63,2.44c-2.94,21.81-1-7.09,0-5.24,0,0.05,2.82,7.69,1.54,3.42,0-14.55-9.67-3.66-12.65,2.19-3.91,7.69-7.4,18.93-.17,25.85a2.1,2.1,0,0,0,.13-2.78h0Z" transform="translate(-399.74 -148.63)"/><path class="cls-7" d="M654.62,159.88a5.67,5.67,0,0,0-3.65-3c3.87,2.4-2.41,1.1-2,1a6.43,6.43,0,0,1,3,3.16q-1.21,1.46-3-.94c5.77,6.77.28,2.88-3.16,3.95,7.6,1.62.6,2-1.3,3.75,6.21-1.45-2.78,3.42-3.53,4.2,8-3.61,1.08,1.29.08,2.62,6.34-2.05-.17,2.66-1.36,4.38,6.21-3.58.18,1,.26,2.91,0.19,4.75-2.12,6.41,2.39,10.75,1.67-3.91-.41-6.91,3.49-10.56-6,.16-2.88-1.51,1.54-4.35q-2.52,1.88-3.49.08a7.16,7.16,0,0,1,3.53-3.23c-1.25-.31-0.79-1,0.31-1.37-6.81-2.2,3.13-.68,2.76-2a4.35,4.35,0,0,0-2.26-2.26c3.11,2.07,3.19-3.79,3.83-5a25.15,25.15,0,0,1,1.63,2.44c-2.94,21.81-1-7.09,0-5.24,0,0.05,2.82,7.69,1.54,3.42l-0.44-4.8C653.75,158.43,654.84,161.47,654.62,159.88Z" transform="translate(-399.74 -148.63)"/><path class="cls-7" d="M737.69,184.95c-0.38-8.77-7.1-24.8-16.18-12,7.47-6.38,1,1.88.14,4.44,2.28-1.31,3.36-4.25,5.39-5.86A35.09,35.09,0,0,0,724.8,178c-6.65,8.07,4.3-4.8,3.57-3.2a28,28,0,0,0-1.44,3.27c8.71-7.58.06,3,1.13,1.63a3.59,3.59,0,0,1,4,.57c0.43,0.55-5.73,3.81-5.74,3.81a7,7,0,0,1,4.75,1.09q-0.75,2-3.42,1.34a6.86,6.86,0,0,1,3.79,2.68c0.06,0.09-5.82,1.45-6,1.57a6.82,6.82,0,0,1,6.28,3.26q-0.8,2-3.55,1.14c7.29,2.61-2.28,3-3.39,3.61,0.26,0.33,5.46,4.85,2.74,5.4,7.47,4.87,10.35-16,10.2-19.19C737.48,180.21,737.87,189,737.69,184.95Z" transform="translate(-399.74 -148.63)"/><path class="cls-9" d="M729,211.21a18,18,0,0,1,3.41,1.26,6,6,0,0,0-3.06-2.92q0.11-1.67,2.63-1-3,1.28-4-.75a2.1,2.1,0,0,1,1.51-1.26,7.53,7.53,0,0,0-3.17,1.46c1.66-1,1.79-2.23-.13-3.31,1.47,2.65-1.43.15-2.05-.1,7.64,6.54-2.12,1.39-.85,1.76,2,1.48,3.31,8.92,1.38,4.39a6.05,6.05,0,0,1-2.87,6.22q-1.09-.5-0.1-2c-3.76,10.82-2.59,1.24-2.59.95a8.09,8.09,0,0,1-2.05,3.15q-1-.4,0-1.69c-1.5,2-3.37,5-6.21,5.3q-1.09-1.13.73-2.75c-1.76,2.21-3.63,4.84-6.51,5.7q-0.81-1.22.92-2.48c-4.06,4-1.53,1.2-1.58-1.7a25.29,25.29,0,0,1-3.16,5.49,46.53,46.53,0,0,0,0-6.16c-0.39,2.63-.69,9.4-2.14,3.41q0.72,2.76-1.08,2.92c-0.95-3.84-4-6.25-6-9.49,0.29,3.21-.74,1.34-1.61-0.78q0.89,1.92-.48,2.34a21.13,21.13,0,0,1-1.36-13.85c-0.13.3-2.55,7.66-2.33,8.2-1.21-3-.94-6.74-0.2-9.77-1.44,3.07-2.1,8.48-1.69-1,0-.05-1.89,5.4-1.92,5.28q-0.52-3-.91-6,1.37,4.77-1.55,5.16a26.12,26.12,0,0,1-.64-5.81q1,4.79-1.94,5.19a31.52,31.52,0,0,1,.2-6.2c-1.67,3.63-1.93,6.48-1.15-.52-0.64,1.5-3.36,14-3.17,4.81-0.79,2.82-6.78,12.1-6.28,10.15a28.74,28.74,0,0,1-6.42,5.62q-0.76-.67.31-1.63c-1.59,1.13-3.94,7.34-3.34,2q0.21,3.18-2,4a11,11,0,0,1-1.54-6.92q0.27,3.09-1.78,3.36a11.64,11.64,0,0,1-.58-6.21c-1,2-1.83-4.18-1.81-3.18q0.39,1.83-.92,2.26a9,9,0,0,1-1-5.08q0.35,3.35-1.82,3.61a7,7,0,0,1-.29-4.83c-1.57,2-2.81,4.61-2.3-1.62q-0.14,2.38-1.78,2.35a11.55,11.55,0,0,1,1.06-7q-1,2.72-2.91,2.15a8,8,0,0,1,2.18-5q-1.29,2-2.55,1.09a7.33,7.33,0,0,1,3.28-3.66q-2.18,1.79-2.84.23a7.62,7.62,0,0,1,4.11-2c-1-.48-4.48-0.14-5.34.46,2.63,0.65.54,0.63-1,2.52,3.08-.53,0,1.35-0.67,2.56-1.47,0,9,19.16,11.41,21.65C656,229.42,667.54,238,678.76,239c10.58,0.88,23.79-4.73,32.95-9.42A61.52,61.52,0,0,0,726,219.36c1.78-1.65,1.78-8.14,4.21-3.81,0.06-.48-1.68-4.28-1.16-4.34C730.27,211.1,728.85,211.23,729,211.21Z" transform="translate(-399.74 -148.63)"/><path class="cls-3" d="M698.24,227.12a14.44,14.44,0,0,1-1.15-2.21c0.91,7.68-18.77,11.75-18.37,3.42-2.66,3.7-1.85-5.92-1.94-6.37a59.66,59.66,0,0,1-2.71,6.76q-0.68-.11-0.31-0.92c-1.12,2-1.57,1.71-1.37.17-4,6.27-13.09-1.77-10.8-7.63-5,4-2,9.63,2.78,12.27,2.63,1.44,10,.87,9.47,1.7,0.85-.75,2.24.16,3.46,0.77,2.74,2.71,23.22.44,21-8C698.15,227.16,698.33,227.43,698.24,227.12Z" transform="translate(-399.74 -148.63)"/><path class="cls-2" d="M698.71,226.23c-0.22-1.47-3.34-4.58-2-6-2.8,3.21,2,4.58,1.06,7.28-1.23,3.7-4.37,5-7.69,6.22-8.33,3-16,.37-14-9.72-0.85,3.67-.11,8.21-5,9.34-3,.69-9.27-2.58-10.47-5.56-2.28-5.63.79-5.63,3.53-9.67-2.72,4.23-7.51,3.35-4.82,9.93,2.25,5.51,13.85,9.77,16.21,2.28,2,10.6,24.52,4.33,23.26-4.1C698.4,224.11,698.93,227.67,698.71,226.23Z" transform="translate(-399.74 -148.63)"/><path class="cls-10" d="M737.69,184.95c-0.18-4.27-2.51-16.11-8.29-17.14-2.43-.43-9.28,4.71-9.28,7,0-2.55,2.25-3.36,1.64-5.62-0.38-1.41-3.55-4.78-4.24-5.53-1.46-1.6-12-9.84-12.89-8a1.78,1.78,0,0,1,1.83-.67s-7.25-2.24-7.45-1.55a1.84,1.84,0,0,1,1.41-1c-0.83-.42-8.3.67-5.16-1.5-2.3-.35-6.73,3.64-4.35-0.74q-0.84,3.08-2.78,2.48c0.25-1-1-2.84-2-3.27q1.9,1.64.32,2.47a6.19,6.19,0,0,0-3.84-2c2.42,2.66-4.34.2-6,.58,5.33,2.09-4.37,1.3-5.89,1.63q1.93-.16,1.14.91c-5.19,1.15-18.55,1.26-16.29,8.89-3.32-11.27-10.84.48-13.13,5-3.91,7.69-7.4,18.93-.17,25.85,1.67-3.91-.41-6.91,3.49-10.56-6,.16-2.88-1.51,1.54-4.35q-2.52,1.88-3.49.08a7.16,7.16,0,0,1,3.53-3.23c-1.25-.31-0.79-1,0.31-1.37-6.81-2.2,3.13-.68,2.76-2a4.35,4.35,0,0,0-2.26-2.26c3.11,2.07,3.19-3.79,3.83-5a25.15,25.15,0,0,1,1.63,2.44q-2.51-3.93.12-5.08c0.22,0.72,1.48,6,0,6.71q-1.55-.38-1.39-2.57c0.25,5.49.58,2.87-2.92,3.22,4.82,4.06-1.78,2.74-3.48,3.69,9.25,0.47,1.43.55,1.9,1.5,2.7,0.62-2.2,2.31-3,3.44,8.52-2.26-.31,3-1.44,4.67,6.23-2.56,1.92,3.14,1.33,4.78-0.34,1-1.76,6.43-2.41,6.62,0.07,0,2,.4,1.66.65-1.36,1-3.73-.42-5.26.64,2.63,0.65.54,0.63-1,2.52,3.08-.53,0,1.35-0.67,2.56-1.47,0,9,19.16,11.41,21.65C656,229.42,667.54,238,678.76,239c10.58,0.88,23.79-4.73,32.95-9.42A61.52,61.52,0,0,0,726,219.36c1.78-1.65,1.78-8.14,4.21-3.81,0.06-.48-1.68-4.28-1.16-4.34a18,18,0,0,1,3.41,1.26,6,6,0,0,0-3.06-2.92q0.11-1.67,2.63-1-3,1.28-4-.75a2.1,2.1,0,0,1,1.51-1.26,7.53,7.53,0,0,0-3.17,1.46c3.73-2.28-2.11-3.06-1-4.3a1.73,1.73,0,0,1,1.76-.28c-1.34-5-6.39-5.61,2.55-5.93a4.38,4.38,0,0,0-2.84-1.78c-1.43-.5,4.38-1.69,3.77-1.59a9.62,9.62,0,0,0-6.23-2.88c-1.35-.78,6.25-2.26,5.76-2.29q-3.85,0-3.94-2.49a3.86,3.86,0,0,1,3.41-1.05,32.28,32.28,0,0,0-4.31-.52c-1.36-.36,6.28-4.67,5.62-4.18a5.58,5.58,0,0,0-3.85,0q-1.12-1.78,1.85-3a13.77,13.77,0,0,1-3,2.34q-1.14-1.36.73-3.11c-1.65,1.85-4.93,5.24-1.78-2.17-0.32.35-2.4,3.05-2.47,3.25a17.9,17.9,0,0,1,4.68-6.43A35.09,35.09,0,0,0,724.8,178c-6.65,8.07,4.3-4.8,3.57-3.2a28,28,0,0,0-1.44,3.27c8.71-7.58.06,3,1.13,1.63a3.59,3.59,0,0,1,4,.57c0.43,0.55-5.73,3.81-5.74,3.81a7,7,0,0,1,4.75,1.09q-0.75,2-3.42,1.34a6.86,6.86,0,0,1,3.79,2.68c0.06,0.09-5.82,1.45-6,1.57a6.82,6.82,0,0,1,6.28,3.26q-0.8,2-3.55,1.14c7.29,2.61-2.28,3-3.39,3.61,0.26,0.33,5.46,4.85,2.74,5.4,7.47,4.87,10.35-16,10.2-19.19C737.48,180.21,737.87,189,737.69,184.95Zm-81.93,36.19q-1.1.57-1.12-1.37c0.93,4,2.88,10.21-2.38,2.6,1.53,3.71-3.92-5.4-3.89-5.32-0.15,4.59-2.33-4.89-2.34-5q0.85,2.35-.74,2.69a13.72,13.72,0,0,1-1.61-7q0.66,2.61-1.1,3a11.78,11.78,0,0,1-.53-5.86q0.56,3.18-1.55,3.7c-3.61-7.16,4.1-10,9.14-6.53,5.63,3.88,7.65,12.67,6.11,19h0ZM692,227.74c-4,4.47-15.59,2.83-15.77-4.3-2.26,4.83-14.21,6.89-12.5-.71-0.71,1.16-3.15,3.16-.59-2.23q-0.32,1.9-1.63,1.63c0.44-6.43,10.94-10.9,11.61-17.53a8.86,8.86,0,0,0,.31,4.12c2.1-2.56,2.76-8.78,1.82,0,2.5-5.34,1.92-3.86,1.68.68,2.94-6.07,1.26-6.39,2.35-.09,2.14-3.57,2.29-8.7,1.82.61,1.15-2.94,1.22-1.22,1.5.55,1.34-2.6,1.32-3.38,1.49-.24,0.46-1.16,4.14-8.65,4.12-9,0.65,7.73-3.82,13,1.26,20.68-0.18-2.26,0-4.29,2.23.95q-1.19-1.63.06-2.27a5.45,5.45,0,0,1,.23,7.14h0Zm1.36-42.81,1.66-2.41c-2.16.82-8.83,6.47-9.06,8.67q0.7-3.17,1.42-6.33c-0.49.55-4,5.49-4.12,6.33,0.42-3.41,1.94-6.59,2.08-10,0,0-4.49,8.25-4.4,8.62a24.4,24.4,0,0,1,0-6.06c-0.34,1.07-1.53,10.4-2.5,4.78q0.62,4.69-2,4.3c0.4-3.9-6.3-12.8.18-7.87-0.6-1.13-5.78-6-6.69-5.48a8.3,8.3,0,0,1,4.07-.47,9.5,9.5,0,0,0-4.71-2.09q0.11-1.73,2.77-1a7.76,7.76,0,0,0-4.89-.68q-0.09-2.38,3.94-1c-2.21-1.48-6.12-1.09-8.43-.12q-0.7-2.39,3.72-2.26c-3.33-.12-11,2.84-12.66,5.31a16,16,0,0,1,3.18-3.73c-0.07,0-5.73,3.38-5.79,3.55a12.45,12.45,0,0,1,5.09-6.31q-2.27,2.78-3.47,1.1c0.94-2,4.95-5.27,6.46-6.84-5.64,1.27.89-2.88,2.32-3.58-6.26.17-.19-1.59,1.92-2.18-6.16-2.4,3.41-1.7,5.32-1.69-4.79-3.08,4-1.32,5.35-1.06-7.33-4.43,5-1.16,7.56-.31-4.43-5.09,1.64-1.72,3.19-.23q-3.18-1.88-1.56-3.39c3.84,2.58,1.78,3.82,5.57,1.59q1.3,2.07-1,4.56c2.23-2.09,4.8-4.11,7.93-4.57q0.75,2.66-3.22,4.08a10.08,10.08,0,0,1,8.61-1.37q-0.34,1.67-2.62,1.76A8.11,8.11,0,0,1,706,160q-1.33,2.23-4.78.83c2-.11,5.52,1.91,7.33,1.6,2.16-.39-12.91,5.74-3.55,1.23a14.32,14.32,0,0,1,7.75,1.87q-1.17,2.52-5.07.47c2.85,0.63,5.78,1.92,7.55,4.36a34.43,34.43,0,0,0-5.19-.47,7.63,7.63,0,0,1,5.57,4.93c0-.15-6.52-1.35-6.69-1.34,3.79,1.61,11.36,13.06,5.34,8,1.13,1.56,1.09,6.25,1.56,6.9-3.18-4.36-7.41-6.51-12.84-5.08q-0.5-1.42,1.85-1.68c-2.56-.36-10.38,1.08-11.48,3.36C693.77,184,693.24,185.13,693.33,184.93Zm32.72,25.92c2.13,4.56-3.31,10.09-7.2,11.45q-0.85-.56.23-1.64c-0.94,1.07-8.24,8.12-6.6,4-1.3,1.44-9,6.08-7.61,4.39a20.9,20.9,0,0,1-9.4,4.36c1.81-.27,5.27-5.66,5.91-7.56-3,2.08,4-5.44,3.66-5.19-5.87,2.41-3-.24-0.24-2.64q-1.53,3-3.23,1.84c2.46-4.29,20.5-17.45,24.49-9h0Z" transform="translate(-399.74 -148.63)"/><path class="cls-11" d="M715.53,208.42l3.18-1.11c-5.2-1.2-.89-0.47-2.64-4.91-0.81-2.07-6.39-13.6-1.27-8.7-0.3-1.37-9.39-10.44-2.14-5.37-3.81-5.8-13.74-2.49-18.11.31,6.32-1.58-3.9,3.36-5.37,5.27,6.13-3.69-.33,1.76-1.13,3.11,7.35-6.37-.64,2.73-1.31,4.74,4.35-5.6-.78,6.2.08,10.19-1.8,4.57,2.07-5.73,2.34-5.52,5.92,4.65,4.15,7.38,14.1,7-0.11,0-2.24,5-2.23,5,3.93-4.81,11.16-9.22,17.56-9.06q-3.16,1-3.09-.89C716.53,207.82,715.4,208.5,715.53,208.42Z" transform="translate(-399.74 -148.63)"/><path class="cls-11" d="M671,187.68c-2.77-1.54,1.38.27,2,.67-1.34-4.31-5.61-7.6-10-7.43q-0.11-1.38,2-1.21a10,10,0,0,0-7.57,1.89q-1.05-1.57,2.12-2.38c-2.16,1-9.19,8.42-8.1,6.17-4.59,6.06-2.61,10.38-7.71,14,7.75-.75,11.62,9.87,13.48,15.52,0.07-1.94-1.42-8.33,1-3.39-0.64-3,.65-1.26,2.64-1.82,3.66-1,11.31-8.38,7-.37q0.28-3.7,2.76-3.73a14.42,14.42,0,0,1-2.09,7.87c4.31-4.26,5.53-8,5.29-14.23-0.09-2.48-2.61-9.56.12-6.44a9.53,9.53,0,0,0-2.93-5.19C670.71,187.5,672.6,188.79,671,187.68Z" transform="translate(-399.74 -148.63)"/><path class="cls-3" d="M720.16,174.2c0.47-2.92-1.8,1.76,0,0C720.22,173.83,719.92,174.44,720.16,174.2Z" transform="translate(-399.74 -148.63)"/><path class="cls-7" d="M686.8,212.16a7.09,7.09,0,0,0,.44-2.6C687.08,210.42,686.94,211.29,686.8,212.16Z" transform="translate(-399.74 -148.63)"/><path class="cls-7" d="M687.45,208.65c1-.28-0.36,2,1.12-3.42l-1.12,3.42C687.54,208.63,687.73,207.48,687.45,208.65Z" transform="translate(-399.74 -148.63)"/><path class="cls-3" d="M671.28,212.93a21.06,21.06,0,0,0-1.09,8.44c0.39-2.31.63-.57,1.18,0.78,0.66-3.51.75-.19,2.34,0.92q-0.57-1.56.56-1.58c1.26,5.56,8.09-3.25,6.82,1.55,2.12-1.54,2.86-8.21,2.6-1.73a17.48,17.48,0,0,0,1.36-5.35q-0.36,1.83-1.54,1.41c0.17-1.11,0-7.2.17-5-2.25,2.89,0,9.53-1.7-.68q0.92,3.89-1.4,3.88-0.17-2.8-.18-5.61c-2.47,4.46-2.11,7.27-2.23.89-3.3,6-1.74,3.44-1.42-.34,0.24-.39-3.26,5.27-3.29,4.81a13,13,0,0,1,1.08-5.35c-1.63,2.54-3.6,5.7-1.6-.65-20.45,25.12-1.06.52-1.66,3.58C670.71,215.78,671.32,212.75,671.28,212.93Z" transform="translate(-399.74 -148.63)"/><path class="cls-12" d="M720,208.62c-2.87-1.07-6.78,0-9.48,1,5.15-6.23,1.2-20.41-8.08-19.82,4.62-1.28,9.45.64,10.29,5.66-2.46-17.2-19.69-1.24-22.69,8q3,0.12,2.81-4.67c-4.53,10.21,2.66,15.62,12.42,13.67a8.19,8.19,0,0,0-3.17,4.59c1.36-5,14-9.94,17.9-8.48h0Z" transform="translate(-399.74 -148.63)"/><path class="cls-13" d="M692.27,205.28c-0.73-16,20.3-19.77,19.64-2.69-0.43,11-19.17,13.35-19.64,2.69C692,200,692.49,210.42,692.27,205.28Z" transform="translate(-399.74 -148.63)"/><path class="cls-14" d="M709.19,202.23c-1.45,10.59-15.39,8.65-13.92-1.93s15.4-8.64,13.92,1.93C708.56,206.86,709.84,197.6,709.19,202.23Z" transform="translate(-399.74 -148.63)"/><path class="cls-14" d="M709.19,202.23c-1.45,10.59-15.39,8.65-13.92-1.93s15.4-8.64,13.92,1.93C708.56,206.86,709.84,197.6,709.19,202.23Z" transform="translate(-399.74 -148.63)"/><path class="cls-15" d="M708.15,201.73c-1.21,8.75-13,7.13-11.74-1.63,1.19-8.58,13-7.56,11.74,1.63h0Z" transform="translate(-399.74 -148.63)"/><path class="cls-16" d="M706,202.21c-0.74,5.36-7.8,4.38-7-1s7.79-4.37,7,1h0Z" transform="translate(-399.74 -148.63)"/><path class="cls-17" d="M701.46,199.23c-0.79,5.65-4.26-.59-4.17-0.58-0.09,0,4.95-5.08,4.17.58C701.27,200.61,701.65,197.84,701.46,199.23Z" transform="translate(-399.74 -148.63)"/><path class="cls-17" d="M700,204.26q-1.21,2-1.81-.25,1.21-2.06,1.81.25h0Z" transform="translate(-399.74 -148.63)"/><path class="cls-12" d="M655.56,206.69c3.19,2.09,14.6,2.21,14.6-3.46,7.33-12.58-9.51-27.54-18.77-12.06,2-3.34,6.92-8.16,11.55-5.75-6.1.19-8.79,4.48-11.39,9.06-2.81,5,4.19,8.59-4.41,4.32,5,2.37,6.14,7.08,8.89,11.33q2.1-.88-0.47-3.44C657.46,207.93,656,207.69,655.56,206.69Z" transform="translate(-399.74 -148.63)"/><path class="cls-13" d="M653.05,202.45c-6.44-9.84,10.26-23.61,16.33-9.69,4.88,11.19-9.2,20.6-16.33,9.69h0Z" transform="translate(-399.74 -148.63)"/><path class="cls-2" d="M670.08,190.22c2.57,3.84,1.71,15.33.76,20.3,1.25-6.91,3.93-13.3-.76-20.3h0Z" transform="translate(-399.74 -148.63)"/><path class="cls-2" d="M702.6,187.74c-9.35,3.77-15.86,14.43-15.93,24.36,0-6.51,9.86-21.92,15.93-24.36h0Z" transform="translate(-399.74 -148.63)"/><path class="cls-14" d="M668.76,197.36c-1.37,10-14.55,8.17-13.16-1.82s14.53-8.16,13.16,1.82C668.16,201.73,669.36,193,668.76,197.36Z" transform="translate(-399.74 -148.63)"/><path class="cls-14" d="M668.76,197.36c-1.37,10-14.55,8.17-13.16-1.82s14.53-8.16,13.16,1.82C668.16,201.73,669.36,193,668.76,197.36Z" transform="translate(-399.74 -148.63)"/><path class="cls-15" d="M667.77,196.89c-1.13,8.27-12.22,6.72-11.08-1.54,1.12-8.1,12.3-7.15,11.08,1.54C667.26,200.58,668.28,193.2,667.77,196.89Z" transform="translate(-399.74 -148.63)"/><path class="cls-16" d="M665.7,197.34c-0.71,5.05-7.35,4.15-6.65-.92s7.34-4.13,6.65.92C665.39,199.55,666,195.13,665.7,197.34Z" transform="translate(-399.74 -148.63)"/><path class="cls-17" d="M661.45,194.52c-0.74,5.35-4-.55-3.93-0.54-0.09,0,4.66-4.79,3.93.54h0Z" transform="translate(-399.74 -148.63)"/><path class="cls-17" d="M660,199.28q-1.14,1.95-1.7-.24,1.14-1.95,1.7.24C660,199.85,660.12,198.71,660,199.28Z" transform="translate(-399.74 -148.63)"/><path class="cls-18" d="M682.27,222.37c-0.92-4.26-12-5-11.39.15,0.44,4,12.32,4.22,11.39-.15C682,221,682.56,223.72,682.27,222.37Z" transform="translate(-399.74 -148.63)"/><path class="cls-19" d="M668.49,309.39l1.94,2.35q2.68-1.5-1.46-5,1.16,1.23,1.85,0a15.24,15.24,0,0,0-3-4.47c10.19,6.68-1.7-9.73-5-11.23-0.61,1,2.45,5.68,2.66,6.05-4-3-5.75-7.92-7.79-12.26-0.3-.66-0.41,6-0.42,5.94-1.81-3-1.67-6.86-2.48-10.2-0.17-.7-1.37,2.16-1.26,2.08a13.18,13.18,0,0,1-.47-4.86c-0.33,3-5.39,6.78-5.34,11.51a63.11,63.11,0,0,1,4.72-5.1c0.57,3.84-2.45,8.64-2.21,13q2.68,0.07,2.77-3.93a12,12,0,0,0-.55,8.62q2.15-.41,2-3.35c-0.74,2.87-1,11.11.36,14q2.72-.61,2.55-4.46c-0.08,1.08,1.12,14,1.87,13.55a4.87,4.87,0,0,0,.61-4.89c0-.42,1,7.29,1.79,6.73a3.36,3.36,0,0,0,.9-2.88c-0.07-.65,1.86,9.87,2.81,9.12a2.38,2.38,0,0,0,.34-2.3c0.23,2.19,4.9,16.07,7.72,17-0.37-3.42-.45-6.83-0.9-10.25,0.12,0.24-.12-11.55-0.95-14.34a39.46,39.46,0,0,1,3.18,7.42c1.19-6-2.88-13.12-6.3-17.88C669.23,310.07,671.88,314.12,668.49,309.39Z" transform="translate(-399.74 -148.63)"/><path class="cls-19" d="M646.42,241.19A41.16,41.16,0,0,0,638.5,243c-0.31.23,7.15-5.46,6.72-5.49-4.57-.4-9.18,2.18-12.62,4.87a15.25,15.25,0,0,0,3-3.89c0.12-.8-5,2.3-4.62,2.08-0.23.23,7-6.68,6.33-7.3-0.24-.22-7.54,2.46-8.95,2.34-2.36-.21-11.69-5.7-4.6.09-3.62-1.16-14.56-7.82-6.87-.47a121.2,121.2,0,0,1-15.71-3.36,9,9,0,0,1,4.3,2.92c-5.59-2.28-11.27-2.2-16.2-3.29a5.94,5.94,0,0,1,3.59,2.08c-0.49-.15-7.5-3.13-8.41-1.85,0.14-.2,4.36,4.16,4.36,4.16-1.42-1.06-11.12-4.13-10.61-3.42a17,17,0,0,0,3.57,3.43s-8.64-2.29-7.95-1.63c0.89,0.84,14.69,13.26,11.89,14.73q1.38-1.56-.34-3.85c0.79,1,5.13,10.39,3.83,11.05,0.63-.32,3-7.68,1.87-3.73a48.27,48.27,0,0,1-.76,9.25q2.46,0.46,2.25-3.55c0.09,3.74.46,7.85-1.12,11.39q2.41,1.36,2.89-3.51c-0.88,3.46-6.71,8.64-7.11,11-0.13.76,8.54-4.39,9.13-4.86-0.37.38-3,3.64-2.45,3.48a18.22,18.22,0,0,0,5.51-2.74c-0.82,1.12-6,7.09-6.42,7.13a17.28,17.28,0,0,0,8.35-4c-2,2.91-1.26,3,3.56.05,0.2-.28-3.7,4.64-3.16,4.63,4.78-.09,8.83-3.31,12.28-6.25,0-.06-3.77,4.75-3.44,4.59a37.68,37.68,0,0,0,10.95-8.26c-0.35,4,4.4-3.53,4.85-4.6,0.07,0.52.22,6.8-.05,6.88,0.76-.24,2.24-5.14,2.4-5.53q-0.08,2.9-.13,5.79c0-.91,5.57-7.93,6-10.87,0-.1.47,6.39,0.76,6.26,1.08-.49,3.61-9.19,3.76-9.64a28.36,28.36,0,0,0,.84,6.81c-0.31-1,10.38-16.15,1.33-7,0.69-2.82,8.92-10,.29-6.69q2.71-1.39,1.68-3.17a17.72,17.72,0,0,0-5.75.85c-0.13.13,4.61-5,3.57-4.7-0.23.1,6.1-4.15,5.26-4.08C643.7,241.41,646.82,241.15,646.42,241.19Z" transform="translate(-399.74 -148.63)"/><path class="cls-19" d="M562.93,227.63c0.52-.55,5.14-4.35,5.13-4.35a7.82,7.82,0,0,0-7.15,2.58,22.64,22.64,0,0,1-.25-6q-2.16-.42-2,3.15c-1.16-1.91-3.33-5.07-6.05-4.63-0.13,0,3,4.9,3.14,5.34-3.8-3.45-6.26-.51-9.23-1a6.8,6.8,0,0,1,4.36,2.94,5.21,5.21,0,0,0-5.53,1q0.26,2.41,4,1.06c-0.93,0-7,1.69-7.29,3.53q1.5,1.37,3.81-.29c-3.18,1.52-6.66,6.29-8.58,7.29a35.56,35.56,0,0,1,5.79-2.71c-5,2.94-8.19,8-10.79,13-0.1.19,6.32-3.67,6.39-3.7-1.85,1.84-12.21,18.94-6.64,14.66-3.09,5.5-8.25,10.21-9.9,16.42,0.06-.22,6.81-5,7-5.07-2.28,2.13-5.82,5.3-6.71,8.37q2.38,1.26,4.29-2.5c-0.84.88-6,8.17-7.13,7.71a7.06,7.06,0,0,0,5.81-2q-4.21,1.21-3.34,3.82c2.55,0.06,5-1.8,7-3.1-2.18,3.34-11.6,13.65-15.05,14.52a31.25,31.25,0,0,0,6.12-2.23c-2.46,1.81-12.93,8.56-2.5,4.57-1.09.84-10.59,5.64-3.95,4.84-1.44,1.09-14.1,5.76-4.77,5.07-2.83,1.4-8.05,4.09-9,7.59q2.16,1.75,4.74-1.88c-3.82,2.39-7.63,4.27-9,9.07Q498,326,500,322.51a13.24,13.24,0,0,0-2.41,8.54c0-4.93,10.24-15.69,14.33-18.62-1.5,2-3.17,3.95-4.53,6,0.77-1.16,7.37-5.43,9.27-7q-1.83,1.31-.6,2.18a21.73,21.73,0,0,0,6.34-7.89q-0.82,1.39.4,1.37c2.65-2.59,3.91-6.73,4.2-10.33q-1.87,3.64.48,4.46c2.91-1.91,3.88-5.88,4.89-9-0.61,10.46,3.53-5.45,3.76-7.27,1,3.54-.86,7.11-0.79,10.64,0,1,4.58-6.67,4.3-6a33.73,33.73,0,0,0,2.56-10.22,30.25,30.25,0,0,1,.55,7.39c0.18-5.35,4.53-10.37,3.69-16.93,3.47,8.54,2.22-4,1-6.82,2.24,2.33,3.1,5.95,3.63,9-0.6-3.26,1.75-8.1,0-12.62,1.85,3.52-1-6.66-1-6.36,3.84,2.49,4.53,7.87,5,12,0,0.12,1.53-5.68,1.52-6.27a21.35,21.35,0,0,0-3.92-11.12,13.46,13.46,0,0,1,3.36,4.56c0.41,0.71,0-6.58.12-6.19,1.89,3.28,3.14,7.12,5.16,10.28,0.83,1.32,1.1-5.26,1.06-6.16-0.13-3-1.64-6.24-2.95-8.89a16,16,0,0,1,3,5.1c-1.13-2.88,1-7.48-2.17-11.7q2.92,2.21,5.94,4.27c2,0.6-3.31-8.29-4.26-9-0.22,0,6.46,2,6.22,1.28a5.08,5.08,0,0,0-5.19-3.64C563.44,227.09,565.18,227.19,562.93,227.63Z" transform="translate(-399.74 -148.63)"/><path class="cls-20" d="M680.38,157c-2.57-2.67-4.77-1.43-7.2-1.79,0.25,0,7.28,1.87,7.2,1.79C678.73,155.27,680.61,157.22,680.38,157Z" transform="translate(-399.74 -148.63)"/><path class="cls-20" d="M673.2,157.45c-1.32-.82-3.32-0.13-4.12-0.41q3,2.65,4.12.41C672.05,156.73,673.5,157.64,673.2,157.45Z" transform="translate(-399.74 -148.63)"/><path class="cls-20" d="M669.51,158.94c-2.54-.16-6.11-0.81-8.21,1.21-0.46.44,8-1.22,8.21-1.21h0Z" transform="translate(-399.74 -148.63)"/><path class="cls-20" d="M665.38,161.38c-2-.6-5.58.76-6.39,2.85,0.26-.62,5.49-3.1,6.39-2.85C663.3,160.76,665.57,161.43,665.38,161.38Z" transform="translate(-399.74 -148.63)"/><path class="cls-20" d="M659.4,166.9a8.75,8.75,0,0,0-5.73,3.6c0-.07,5.61-3.57,5.73-3.6C657.34,167.35,659.64,166.85,659.4,166.9Z" transform="translate(-399.74 -148.63)"/><path class="cls-20" d="M660.26,168.87c-2.45.47-3.36,2.25-4.49,3,0.68-.44,3.67-2.79,4.49-3C658.52,169.21,660.5,168.83,660.26,168.87Z" transform="translate(-399.74 -148.63)"/><path class="cls-20" d="M672.75,173.71c-3.22-2.9-4.81-.86-7.91-0.86,1.8,0,6.84-.09,7.91.86h0Z" transform="translate(-399.74 -148.63)"/><path class="cls-20" d="M674.56,176.76c-0.63-1.34-2.45-1.27-2.91-1.7,0,0,3.21,2.36,2.91,1.7h0Z" transform="translate(-399.74 -148.63)"/><path class="cls-20" d="M671.33,179.61c2.08-.12,4.91,4.55,5.87,5.74-1.45-1.76-.9-6-5.87-5.74h0Z" transform="translate(-399.74 -148.63)"/><path class="cls-20" d="M678.55,181.22c0.29,0.53,0,4.57.13,5.23-0.28-1.24,1-3.11-.13-5.23h0Z" transform="translate(-399.74 -148.63)"/><path class="cls-20" d="M682.62,177.32c0,1.81-1.49,5.1-1.32,7.2-0.05-.82,1.4-5.63,1.32-7.2C682.62,177.13,682.72,179.56,682.62,177.32Z" transform="translate(-399.74 -148.63)"/><path class="cls-20" d="M685,176.77l-0.91,3.37c-0.11.47,1.21-4.19,0.91-3.37h0Z" transform="translate(-399.74 -148.63)"/><path class="cls-20" d="M689.73,177.53c-0.47.53-5.6,8.66-4.63,8.3,0.78-.29,4.3-7.91,4.63-8.3C687.68,179.89,689.88,177.36,689.73,177.53Z" transform="translate(-399.74 -148.63)"/><path class="cls-20" d="M697.12,179.74c-3.74.2-7.7,3.3-9.25,6.61,0.95-2,7.66-6.52,9.25-6.61h0Z" transform="translate(-399.74 -148.63)"/><path class="cls-20" d="M698.47,180.84q-3.95-.4-3.72,1.84,3.51,0.45,3.72-1.84h0Z" transform="translate(-399.74 -148.63)"/><path class="cls-20" d="M672.86,167.67c3.43,1,5.22,6.65,6.52,9.9-1.34-3.56-.66-8.38-6.52-9.9h0Z" transform="translate(-399.74 -148.63)"/><path class="cls-20" d="M677,175.16a31.81,31.81,0,0,0,1,3.25,19,19,0,0,0-1-3.25h0Z" transform="translate(-399.74 -148.63)"/><path class="cls-20" d="M700,173.1c-3.36.63-3.86,1.7-6,3,1.73-1.09,4-2.64,6-3h0Z" transform="translate(-399.74 -148.63)"/><path class="cls-20" d="M694.28,173.24q-2.08.47-1.44,1.58,2.49-.72,1.44-1.58h0Z" transform="translate(-399.74 -148.63)"/><path class="cls-20" d="M679.15,220.54a5.8,5.8,0,0,0-7.24,1.11c0.81-.9,6.71-1.39,7.24-1.11C676.61,219.23,679.41,220.68,679.15,220.54Z" transform="translate(-399.74 -148.63)"/><path class="cls-20" d="M653.43,209.36c-1.34-5.78-5.31-8.18-10.37-8.18,3.89,0,10.06,6.75,10.37,8.18C652.31,204.49,653.51,209.69,653.43,209.36Z" transform="translate(-399.74 -148.63)"/><path class="cls-20" d="M720.66,210.53c-3.74-.72-15.88,1.41-15.88,7.06,0-4,15.27-7.17,15.88-7.06C717.13,209.85,721.33,210.66,720.66,210.53Z" transform="translate(-399.74 -148.63)"/><path class="cls-20" d="M651.79,279.62a11.39,11.39,0,0,0-3.22,7.61,73.57,73.57,0,0,1,3.22-7.61h0Z" transform="translate(-399.74 -148.63)"/><path class="cls-20" d="M653.47,286.53a8.6,8.6,0,0,0-1.87,6.88,58.89,58.89,0,0,1,1.87-6.88C652,288.41,653.6,286.37,653.47,286.53Z" transform="translate(-399.74 -148.63)"/><path class="cls-20" d="M655.72,290.54l-1.46,2c-1-10.87-.6,7.33.18,6.77,1.33-.95-0.37-7.35,1.29-8.74C655.14,291.06,655.86,290.42,655.72,290.54Z" transform="translate(-399.74 -148.63)"/><path class="cls-20" d="M657.08,296.54C654.75,300.8,654.16,304,655,308c-0.4-2,.91-9.37,2.08-11.49h0Z" transform="translate(-399.74 -148.63)"/><path class="cls-20" d="M659.34,303.4a15,15,0,0,0-.83,10.21c0-.08.6-9.78,0.83-10.21C657.74,306.45,659.4,303.28,659.34,303.4Z" transform="translate(-399.74 -148.63)"/><path class="cls-20" d="M660.6,311.65q-1.65.45-.32,2.71,1.57-.47.32-2.71C660.59,311.33,660.62,312.48,660.6,311.65Z" transform="translate(-399.74 -148.63)"/><path class="cls-20" d="M663.3,313.43a9.09,9.09,0,0,0-.72,7.9c0.19,0.38.52-7.57,0.72-7.9C662,315.61,663.39,313.29,663.3,313.43Z" transform="translate(-399.74 -148.63)"/><path class="cls-20" d="M664.77,320.62q-2.53.83,0,4.6,2.5-1.05,0-4.6C664.74,320.29,664.89,322.06,664.77,320.62Z" transform="translate(-399.74 -148.63)"/><path class="cls-20" d="M666.81,320.76q0.4-2.56.6-5.14c0.4,3.93-2.19,6.59-.47,11.21,0.08,0.24-.13-5.94-0.13-6.07C666.76,319,666.85,322.7,666.81,320.76Z" transform="translate(-399.74 -148.63)"/><path class="cls-20" d="M668.19,327.63q-1.79.52,0.18,2.95,1.71-.69-0.18-2.95C668.17,327.34,668.25,328.56,668.19,327.63Z" transform="translate(-399.74 -148.63)"/><path class="cls-20" d="M690.2,302.5c-1.48,2-3.84,5.31-2.63,8-0.17-.38,2.35-7.62,2.63-8C688.67,304.54,690.32,302.34,690.2,302.5Z" transform="translate(-399.74 -148.63)"/><path class="cls-20" d="M690.2,306.92a8.58,8.58,0,0,0-2.14,5.21c0,0.22,2.27-5.37,2.14-5.21C689,308.42,690.32,306.78,690.2,306.92Z" transform="translate(-399.74 -148.63)"/><path class="cls-20" d="M691.13,310.77c-2.9,2-4.09,8.89-2.18,11.71-0.65-.93.47-10.59,2.18-11.71C689.69,311.76,691.32,310.64,691.13,310.77Z" transform="translate(-399.74 -148.63)"/><path class="cls-20" d="M690.9,318.14a7.48,7.48,0,0,0-1.13,4.44c0.17,1.09,1.62-5.45,1.13-4.44C690.19,319.41,691,318,690.9,318.14Z" transform="translate(-399.74 -148.63)"/><path class="cls-20" d="M692.49,321.45c-0.87,2.61-2,6.52-.46,9.15-0.12-.19.59-9.58,0.46-9.15C691.61,324.11,692.54,321.3,692.49,321.45Z" transform="translate(-399.74 -148.63)"/><path class="cls-20" d="M693.77,332.72l-0.3-2.81c0,0.45.43,3.3,0.3,2.81C693.54,331.76,693.83,333,693.77,332.72Z" transform="translate(-399.74 -148.63)"/><path class="cls-20" d="M536.46,257.75c-0.89.75-8.71,10.15-8.14,10.1,1.11-.09,6.89-9,8.14-10.1C533.21,260.5,536.63,257.61,536.46,257.75Z" transform="translate(-399.74 -148.63)"/><path class="cls-20" d="M531.86,268.64c-0.33.61-5,6.2-5.4,6.42a14.69,14.69,0,0,0,5.4-6.42C530.48,271.16,531.93,268.5,531.86,268.64Z" transform="translate(-399.74 -148.63)"/><path class="cls-20" d="M529.16,276.23a8.31,8.31,0,0,0-4.85,4.68c-0.08.22,4.64-4.61,4.85-4.68C527.12,276.9,529.41,276.16,529.16,276.23Z" transform="translate(-399.74 -148.63)"/><path class="cls-20" d="M524.29,289.68c-1.67,1.74-6.26,5.77-8,6.38,3.63-1.27,5.73-4.12,8-6.38C521.89,292.18,524.47,289.5,524.29,289.68Z" transform="translate(-399.74 -148.63)"/><path class="cls-20" d="M522.74,295.69a13.48,13.48,0,0,0-6.84,4.05c-0.31.43,6.54-3.86,6.84-4.05h0Z" transform="translate(-399.74 -148.63)"/><path class="cls-20" d="M514,304.75c-0.89,2.32-5.37,1.79-5.85,3.82s5.8-3.7,5.85-3.82C513.63,305.78,514.08,304.61,514,304.75Z" transform="translate(-399.74 -148.63)"/><path class="cls-20" d="M503.78,316.46c-1.85,1.59-7.44,3.29-6.09,6.79-0.53-1.28,5.3-6.09,6.09-6.79C502,318,504,316.31,503.78,316.46Z" transform="translate(-399.74 -148.63)"/><path class="cls-20" d="M496.41,329.19a15.13,15.13,0,0,0-1.73,8.82c-0.09-.43,1.54-8.29,1.73-8.82C495.23,332,496.45,329.09,496.41,329.19Z" transform="translate(-399.74 -148.63)"/><path class="cls-20" d="M498.75,351.73c-1.14-3.75-2.51-7.9-1.6-11.87-1.22,4.68.8,9.21,1.6,11.87C497.58,347.86,498.84,352,498.75,351.73Z" transform="translate(-399.74 -148.63)"/><path class="cls-20" d="M501.24,355l-0.59-1.61q-1.88,1,.72,3.39,1.09-.49-0.13-1.78C501.06,354.44,501.42,355.49,501.24,355Z" transform="translate(-399.74 -148.63)"/><path class="cls-20" d="M542.92,243.07c-3,1.55-5.83,3.39-7.66,6.34-0.2.32-2.85,5.79-1.89,5.54,2.69-.71,6.14-10.17,9.55-11.88C540.37,244.38,543.11,243,542.92,243.07Z" transform="translate(-399.74 -148.63)"/><path class="cls-20" d="M539.6,239.11a8.94,8.94,0,0,0-3.94,4.34c-0.08.19,3.89-4.31,3.94-4.34h0Z" transform="translate(-399.74 -148.63)"/><path class="cls-20" d="M555.76,224.14c-2-4.12-5.79-1.93-8.2-1.71,1.72-.16,8.16,1.62,8.2,1.71C555.23,223.06,555.92,224.45,555.76,224.14Z" transform="translate(-399.74 -148.63)"/><path class="cls-20" d="M556.53,221.46c-0.24-.41-0.29,3.3.74,2.62q0.94-1.24-.74-2.62C556.4,221.23,556.95,222.14,556.53,221.46Z" transform="translate(-399.74 -148.63)"/><path class="cls-20" d="M589.61,237.7c-3.18-4.44-5.83-2.17-9.31-3.79,1.74,0.76,9.53,4.09,9.31,3.79h0Z" transform="translate(-399.74 -148.63)"/><path class="cls-20" d="M593.75,235.15l-2-.91c-1-.28,2.74,2,2,0.91C593.33,234.58,593.88,235.34,593.75,235.15Z" transform="translate(-399.74 -148.63)"/><path class="cls-20" d="M583.51,241.54a11.86,11.86,0,0,0-4.15-4.19c-0.91-.53,4.89,5.44,4.15,4.19C582.53,239.77,583.66,241.79,583.51,241.54Z" transform="translate(-399.74 -148.63)"/><path class="cls-20" d="M591.45,248.67c0.2,0.44.74,7.69,1.31,7.46,2.12-.84-1.12-7.05-1.31-7.46h0Z" transform="translate(-399.74 -148.63)"/><path class="cls-20" d="M595.06,254.69c-0.14-.64-0.79,4.15,0,3.1a3.73,3.73,0,0,0,0-3.1h0Z" transform="translate(-399.74 -148.63)"/><path class="cls-20" d="M598.36,256.75c1.35,4-3.37,10.64-5.05,14.21,2-4.34,7.34-7.49,5.05-14.21h0Z" transform="translate(-399.74 -148.63)"/><path class="cls-20" d="M597.68,268.09q-4,1.71-2.69,4.11c1.84-1.05,2-3.25,2.69-4.11C596.79,269.37,597.83,267.88,597.68,268.09Z" transform="translate(-399.74 -148.63)"/><path class="cls-20" d="M663.29,270.84c-1.94-3.26-1.57-7.32-1.27-10.89-0.08,1-3.42,12.75,1.49,12.94q1.31-.79-0.22-2h0Z" transform="translate(-399.74 -148.63)"/><path class="cls-20" d="M666.23,274.31a14.83,14.83,0,0,1-1.64-6.61c-0.33,2.62,1.61,6.51,1.64,6.61C665.5,272,666.31,274.58,666.23,274.31Z" transform="translate(-399.74 -148.63)"/><path class="cls-20" d="M674.37,284.3c-3.69-3.69-5.21-6.89-6.66-11.89,0.76,2.28-.06,6.32,1.84,8.89,0.83,1.13,5.69,3.89,4.83,3S674.72,284.66,674.37,284.3Z" transform="translate(-399.74 -148.63)"/><path class="cls-20" d="M676,283.92q0.47-3-1.39-3c-0.71.53,1.4,5.71,1.49,5.83q1.69-.79-0.1-2.86h0Z" transform="translate(-399.74 -148.63)"/><path class="cls-20" d="M678.28,286.17c0.11,0.3-.29,2.73.23,3.67q2.22-.65-0.23-3.67C678.17,285.89,678.65,287.18,678.28,286.17Z" transform="translate(-399.74 -148.63)"/><path class="cls-20" d="M547.9,320.91a17.61,17.61,0,0,1,.83-5.69c-0.59,2.22-2.18,3.93-2.09,7-1.23-3.29-1-8.5,1.22-11-4.57,5-3.48,10.65.13,14.82,2.12,2.41-.9-18.57-0.1-5.2C547.79,319,548,322.52,547.9,320.91Z" transform="translate(-399.74 -148.63)"/><path class="cls-20" d="M554.58,333.81c-2.81-4.68-3.58-8.19-4.06-13.65,0.48,8,1,8.73,4.06,13.65C554,332.89,554.76,334.1,554.58,333.81Z" transform="translate(-399.74 -148.63)"/><path class="cls-20" d="M555.65,332l-0.79-4.83c0.17,2.49-1.14,5.83,1.13,8.67q2.14-1.08-.34-3.84h0Z" transform="translate(-399.74 -148.63)"/><path class="cls-20" d="M563.85,345.57c-2-4.18-3.92-6.32-5-11.1,0.62,2.31-.57,5.83,1.39,8.53,0.54,0.75,4.39,4.21,3.6,2.57S564,345.87,563.85,345.57Z" transform="translate(-399.74 -148.63)"/><path class="cls-20" d="M566.35,347.84a30.48,30.48,0,0,1-3-5.29c0.23,0.66,3.25,5.67,3,5.29C565.3,346.08,566.49,348.09,566.35,347.84Z" transform="translate(-399.74 -148.63)"/><path class="cls-20" d="M571.87,353.54q-0.34-3.67-2.82-3.69c-2.2,1.64,3.39,5.3,2.82,3.69C571.36,352.16,572,353.81,571.87,353.54Z" transform="translate(-399.74 -148.63)"/><path class="cls-20" d="M574.7,360.39s-1.74-4.23-.68-4c-4.22-.75,2,5.08.68,4C574.17,360,575.09,360.69,574.7,360.39Z" transform="translate(-399.74 -148.63)"/><g class="cls-21"><path class="cls-22" d="M432,301.66c-1.44.83-19.29,12.06-17.1,13.37,0.43,0.25,15.94-12.7,17.1-13.37C425.7,305.3,432.28,301.51,432,301.66Z" transform="translate(-399.74 -148.63)"/><path class="cls-22" d="M421.88,316.57c-2.79,2.07-12.09,6.66-11.19,11.65-0.13-.7,9.83-10.67,11.19-11.65C420.65,317.49,422.12,316.4,421.88,316.57Z" transform="translate(-399.74 -148.63)"/><path class="cls-22" d="M426.25,319.75c-0.78.71-11.55,12.46-10.05,12.31,2.21-.22,8.34-10.72,10.05-12.31C424.19,321.63,426.42,319.59,426.25,319.75Z" transform="translate(-399.74 -148.63)"/><path class="cls-22" d="M439.72,300.79c-0.33.28-16.71,15.48-14.09,15.2,1.1-.12,13.44-14.61,14.09-15.2C436.9,303.18,439.91,300.61,439.72,300.79Z" transform="translate(-399.74 -148.63)"/><path class="cls-22" d="M442.42,290.06c-2.12.41-19.85,6.23-18,9.65-0.35-.67,16.89-9.42,18-9.65C435.85,291.32,442.62,290,442.42,290.06Z" transform="translate(-399.74 -148.63)"/><path class="cls-22" d="M464.36,277.85c-1.64.16-23.13,5.78-20.86,10.1-0.78-1.49,19.06-9.91,20.86-10.1C457,278.58,464.65,277.82,464.36,277.85Z" transform="translate(-399.74 -148.63)"/><path class="cls-22" d="M456.38,284.85c-0.8.4-14.52,8.65-13,9.57,0.63,0.37,11.73-8.95,13-9.57C451.7,287.22,456.66,284.71,456.38,284.85Z" transform="translate(-399.74 -148.63)"/><path class="cls-22" d="M450.13,293a9.8,9.8,0,0,0-3.67,3c-0.31.49,4-3.23,3.67-3C448.81,293.71,450.34,292.88,450.13,293Z" transform="translate(-399.74 -148.63)"/><path class="cls-22" d="M460.07,298c-0.62,2-10.59,12-9.91,13.34,0.8,1.52,9.69-12.7,9.91-13.34C459.31,300.45,460.13,297.81,460.07,298Z" transform="translate(-399.74 -148.63)"/><path class="cls-22" d="M450.68,307.88a53.52,53.52,0,0,1-4.49,6.54c0.35-.49,4.21-5.94,4.49-6.54C449.44,310.25,450.78,307.67,450.68,307.88Z" transform="translate(-399.74 -148.63)"/><path class="cls-22" d="M444.27,315.75c-0.08.11-3.19,5.41-2.86,5.15,1.59-1.24,2.16-4.24,2.86-5.15h0Z" transform="translate(-399.74 -148.63)"/><path class="cls-22" d="M456.78,313.22c0.15-.32-5.3,8.31-5.31,8.3,2.25,1.23,5.2-8,5.31-8.3C455.41,316.13,456.84,313.07,456.78,313.22Z" transform="translate(-399.74 -148.63)"/><path class="cls-22" d="M474.05,298.91c-0.54,2.11-11.5,15.94-11.27,16.33,2.25,3.8,11.7-17.78,11.27-16.33C473.27,301.93,474.11,298.71,474.05,298.91Z" transform="translate(-399.74 -148.63)"/><path class="cls-22" d="M485.66,293c-0.36,1-6.17,11.4-6.51,11.21,2.69,1.49,6.41-10.92,6.51-11.21C484.17,297.06,485.73,292.75,485.66,293Z" transform="translate(-399.74 -148.63)"/><path class="cls-22" d="M494.9,285.59a43.54,43.54,0,0,1-3.59,7.18c0.42-.81,3.36-6.47,3.59-7.18C494.06,288.16,495,285.4,494.9,285.59Z" transform="translate(-399.74 -148.63)"/><path class="cls-22" d="M481,268.33c-1.69,1.18-10.67,5.67-11,7.71-0.23,1.62,10.89-7.66,11-7.71h0Z" transform="translate(-399.74 -148.63)"/><path class="cls-22" d="M474,277.88c-0.49.33-17.85,12.24-15.72,12.79,1.92,0.5,13.76-11.49,15.72-12.79C468.7,281.47,474.3,277.69,474,277.88Z" transform="translate(-399.74 -148.63)"/><path class="cls-22" d="M473.74,281.38c-0.32.37-3.16,3.71-3.51,3.89,2-1,2.72-3,3.51-3.89h0Z" transform="translate(-399.74 -148.63)"/><path class="cls-22" d="M494.16,252.46c-1.57.83-13.33,5-13.49,6.76-0.09,1,12.86-6.43,13.49-6.76C491.91,253.64,494.37,252.35,494.16,252.46Z" transform="translate(-399.74 -148.63)"/><path class="cls-22" d="M494.35,257.33c0.35-.51-4.77,7.91-3.86,8,1.45,0.15,4-8.14,3.86-8C492.72,259.68,494.48,257.13,494.35,257.33Z" transform="translate(-399.74 -148.63)"/><path class="cls-22" d="M507.92,237c-1.71,1.22-12.44,6.47-12.65,8.38-0.16,1.45,12.16-8,12.65-8.38C506,238.36,508.12,236.87,507.92,237Z" transform="translate(-399.74 -148.63)"/><path class="cls-22" d="M500.6,246.73c-0.64.21-4.62,1.56-4.38,3.28a54.2,54.2,0,0,0,4.38-3.28h0Z" transform="translate(-399.74 -148.63)"/><path class="cls-22" d="M509.27,247.68c-0.45,2.23-3.45,14-5.61,14.6,4.94-1.32,5.07-11.8,5.61-14.6C508.26,252.7,509.31,247.5,509.27,247.68Z" transform="translate(-399.74 -148.63)"/><path class="cls-22" d="M503.89,257.64c-0.2.91-3.48,9.67-4.06,9.49,2.71,0.81,4-9.28,4.06-9.49C503.15,260.94,503.94,257.42,503.89,257.64Z" transform="translate(-399.74 -148.63)"/><path class="cls-22" d="M513.05,249c-1.88,2-2.47,8.39-3.34,10.95,0.17-.49,3.17-10.78,3.34-10.95C512.25,249.87,513.16,248.91,513.05,249Z" transform="translate(-399.74 -148.63)"/><path class="cls-22" d="M509.59,255.25c-0.65,4.47-2.31,8-4.09,12.09a56.59,56.59,0,0,0,4.09-12.09C509.27,257.48,509.63,255.05,509.59,255.25Z" transform="translate(-399.74 -148.63)"/><path class="cls-22" d="M512,264.64a80.42,80.42,0,0,1-3.12,8c3-2,2.75-6.4,3.12-8C511.66,266.06,512,264.39,512,264.64Z" transform="translate(-399.74 -148.63)"/><path class="cls-22" d="M522.37,246.45c-0.06,1.16-1.15,3.87-1.13,5.41,0,0.11,1.11-4.68,1.13-5.41C522.38,246.21,522.33,248.22,522.37,246.45Z" transform="translate(-399.74 -148.63)"/><path class="cls-22" d="M526.89,220c-0.63.39-14.5,6.71-12.69,8.5,0.46,0.46,11.75-7.93,12.69-8.5C525.8,220.71,527.13,219.89,526.89,220Z" transform="translate(-399.74 -148.63)"/><path class="cls-22" d="M517.67,226.81c-0.61.38-7.25,7.18-6,7.56,0.36,0.11,5.92-7.48,6-7.56C515,228.49,518,226.59,517.67,226.81Z" transform="translate(-399.74 -148.63)"/><path class="cls-22" d="M531.43,220.79a30.15,30.15,0,0,0-3.79,4.09c-0.73,1.21,4.67-5,3.79-4.09C530.2,222.18,531.63,220.57,531.43,220.79Z" transform="translate(-399.74 -148.63)"/></g><path class="cls-23" d="M493.05,255.58c-2.59,4.4-14.67,7.06-15.62,10.74-0.06.22,14.08-7.89,15.62-10.74C491.48,258.25,493.14,255.42,493.05,255.58Z" transform="translate(-399.74 -148.63)"/><path class="cls-23" d="M478.16,267.3c-1.33.94-11.42,5.14-11.34,6.94,0,0.66,10.89-6.6,11.34-6.94C476.26,268.64,478.36,267.15,478.16,267.3Z" transform="translate(-399.74 -148.63)"/><path class="cls-23" d="M472.2,268.79c-1.41,1.32-13.49,5.84-13.34,7.46,0.13,1.46,12.72-6.87,13.34-7.46h0Z" transform="translate(-399.74 -148.63)"/><path class="cls-23" d="M454,283.78c-0.76.7-19.56,12.6-15.46,13.89-0.08,0,14.4-12.92,15.46-13.89h0Z" transform="translate(-399.74 -148.63)"/><path class="cls-23" d="M438.52,293.57c-0.4.38-7.06,7.49-5.94,7.6,0.63,0.06,5.91-7.58,5.94-7.6C436.25,295.71,438.77,293.35,438.52,293.57Z" transform="translate(-399.74 -148.63)"/><path class="cls-23" d="M431.27,303.6c-5,2.74-12.66,12.93-11.66,19.25-0.11-.62,5.05-7.45,5.41-8q-1.52-1.21-2.59,2.25c0.53-4.58,4.82-11.43,8.83-13.53C428.56,305.09,431.52,303.47,431.27,303.6Z" transform="translate(-399.74 -148.63)"/><path class="cls-23" d="M415.4,323.36c-3,4.75-10.13,8.8-8.19,15.63-0.91-3.26,6.57-13,8.19-15.63h0Z" transform="translate(-399.74 -148.63)"/><path class="cls-23" d="M411.33,336c-3.53,6.32-5,8.45-5.67,14.3a76.81,76.81,0,0,1,4.15-6.88c-1.22,1.59-3.08,3-3.88,5.62,0.68-5.17,3-8.57,5.39-13h0Z" transform="translate(-399.74 -148.63)"/><path class="cls-23" d="M436.25,307.94c0,0.09-13.27,15.86-11.74,15.48,1.3-.32,11.38-14.82,11.74-15.48C435.43,309.57,436.36,307.74,436.25,307.94Z" transform="translate(-399.74 -148.63)"/><path class="cls-23" d="M434.49,314.57c0.24-.49-5.24,5.76-4.65,5.58,2.55-.86,4.14-4.51,4.65-5.58C433.9,315.77,434.61,314.32,434.49,314.57Z" transform="translate(-399.74 -148.63)"/><path class="cls-23" d="M449.08,301.59c-0.38,1.94-7.6,9.6-8.83,10.32,3.2-1.88,8.46-7.23,8.83-10.32C448.7,303.57,449.1,301.49,449.08,301.59Z" transform="translate(-399.74 -148.63)"/><path class="cls-23" d="M447.1,298s-5.68,5.1-5.38,5.61c1,1.69,6-6.31,5.38-5.61C445.52,299.84,447.31,297.75,447.1,298Z" transform="translate(-399.74 -148.63)"/><path class="cls-23" d="M440.2,319.68c-2.1,3.35-11.5,7.84-12.28,10.77-0.08.28,11.39-9.39,12.28-10.77C437.39,324.17,440.32,319.49,440.2,319.68Z" transform="translate(-399.74 -148.63)"/><path class="cls-23" d="M431.85,324.24c-0.75.78-9,8.06-8.76,8.54,1,1.58,8.61-8.39,8.76-8.54C429.1,327.07,432.16,323.91,431.85,324.24Z" transform="translate(-399.74 -148.63)"/><path class="cls-23" d="M443.2,324.78a47.08,47.08,0,0,1-4.73,4.71c2.08-1.3,3.54-3.38,4.73-4.71C441.75,326.45,443.41,324.56,443.2,324.78Z" transform="translate(-399.74 -148.63)"/><path class="cls-23" d="M469.68,289.27c-0.52,1.16-9.07,13-8.86,13.22,2.44,2.48,8.7-12.86,8.86-13.22C467.5,294.14,469.74,289.14,469.68,289.27Z" transform="translate(-399.74 -148.63)"/><path class="cls-23" d="M463.7,293.85c0,0.05-4.65,8.34-4.63,8.34,2,0.15,4.72-6.78,4.63-8.34C463.68,293.54,463.88,296.89,463.7,293.85Z" transform="translate(-399.74 -148.63)"/><path class="cls-23" d="M484.58,281.47c-0.69,4.45-9.84,9.45-9.74,12.72,0-.45,9.45-10.16,9.74-12.72C484.22,283.8,484.6,281.26,484.58,281.47Z" transform="translate(-399.74 -148.63)"/><path class="cls-23" d="M480.09,275.7c0.13,1.29-7.36,13.59-7.11,13.74,1.86,1.12,7.34-12.09,7.11-13.74C480.06,275.47,480.42,278.13,480.09,275.7Z" transform="translate(-399.74 -148.63)"/><path class="cls-23" d="M488.81,265.44c-0.78,1.65-3.89,11.49-5.76,11.65,3.67-.34,5-10,5.76-11.65C487.16,269,488.91,265.23,488.81,265.44Z" transform="translate(-399.74 -148.63)"/><path class="cls-23" d="M484.35,268.45c0-.17-2,6.39-2.15,6.38,2.47,0.1,2.22-6.69,2.15-6.38C483.93,270.6,484.4,268.22,484.35,268.45Z" transform="translate(-399.74 -148.63)"/><path class="cls-23" d="M494.41,266.91c-1,3.14-5.65,13.73-8.07,14.77,5.72-2.46,6.89-10.84,8.07-14.77C493.51,269.63,494.48,266.67,494.41,266.91Z" transform="translate(-399.74 -148.63)"/><path class="cls-23" d="M493.39,276.56c-0.7,3.5-3.65,5.77-5.31,8.76,1.39-2.51,4.81-5.67,5.31-8.76C492.67,280.16,493.42,276.34,493.39,276.56Z" transform="translate(-399.74 -148.63)"/><path class="cls-23" d="M496.14,282a23.46,23.46,0,0,1-5.08,10.83c-1,1.29-6.2,5.08-6.14,6,0.12,1.73,7.91-6.6,8.26-7.16,2.05-3.27,2.67-7.26,3-9.71C495.11,288.69,496.16,281.76,496.14,282Z" transform="translate(-399.74 -148.63)"/><path class="cls-23" d="M490.29,289.45c-1.2,2-5.32,9.48-7.25,10,4.24-1.24,5.79-7.63,7.25-10C489.31,291.08,490.42,289.23,490.29,289.45Z" transform="translate(-399.74 -148.63)"/><path class="cls-23" d="M505.16,267.34c0.22,2.3-3.17,14.83-5.32,15.72,4.64-2,5.73-11.73,5.32-15.72C505.14,267.09,505.48,270.33,505.16,267.34Z" transform="translate(-399.74 -148.63)"/><path class="cls-23" d="M500.77,273.66c0-.14-1.51,5.69-1.51,5.69,1.88-.51,1.79-4.93,1.51-5.69C500.69,273.42,501.18,274.76,500.77,273.66Z" transform="translate(-399.74 -148.63)"/><path class="cls-23" d="M514.09,248.81c1,1.92-.88,14.69-2.7,15.68,4.62-2.51,4.56-11.83,2.7-15.68C513.94,248.5,515.42,251.55,514.09,248.81Z" transform="translate(-399.74 -148.63)"/><path class="cls-23" d="M516.81,236c-1,2.6-9.81,12.55-9.2,14.89s9.21-14.93,9.2-14.89C515.68,239,516.87,235.78,516.81,236Z" transform="translate(-399.74 -148.63)"/><path class="cls-23" d="M509.16,241.12c-0.67,1.77-8.4,11.21-8.12,12.12,1.23,4,8.56-13.45,8.12-12.12C507.44,245.68,509.23,240.9,509.16,241.12Z" transform="translate(-399.74 -148.63)"/><path class="cls-23" d="M501.29,249c-0.53,2.11-3.48,9.1-4.54,9.84,3.57-2.52,3.9-7.37,4.54-9.84C500.41,252.55,501.35,248.81,501.29,249Z" transform="translate(-399.74 -148.63)"/><path class="cls-23" d="M498.27,247.85c-0.94.59-14.41,8.33-13,8.68,1.8,0.45,11.3-7.6,13-8.68C494,250.53,498.57,247.65,498.27,247.85Z" transform="translate(-399.74 -148.63)"/><path class="cls-23" d="M508.89,236.21a17.36,17.36,0,0,0-6.55,3.51c-1,.9,7.45-3.79,6.55-3.51C506.59,236.94,509.32,236.08,508.89,236.21Z" transform="translate(-399.74 -148.63)"/><path class="cls-23" d="M517.49,225.93c-4.39,2.08-9.43,3.71-12.52,7.72,1.51-1.95,9.88-6.49,12.52-7.72C513.12,228,517.83,225.78,517.49,225.93Z" transform="translate(-399.74 -148.63)"/><path class="cls-23" d="M529.71,226c-0.44.25-8.69,6.83-7,7,0.39,0,6.86-6.9,7-7C526.88,227.57,530.06,225.75,529.71,226Z" transform="translate(-399.74 -148.63)"/><path class="cls-23" d="M527.95,230.79c-2-.4-5.81,6.56-4.5,6.5s3.22-6.76,4.5-6.5h0Z" transform="translate(-399.74 -148.63)"/><path class="cls-23" d="M526.92,237.19c-0.49,1.16-6.64,17.77-5.39,17.65,2.29-.23,4.73-16.1,5.39-17.65C525.83,239.76,527,237,526.92,237.19Z" transform="translate(-399.74 -148.63)"/><path class="cls-23" d="M519.92,255.19c-0.43,2.88-2.13,10.39-3.7,11.93,3.6-3.58,3.31-8.76,3.7-11.93C519.28,259.48,520,254.9,519.92,255.19Z" transform="translate(-399.74 -148.63)"/><path class="cls-23" d="M532.41,220.57c-2.08,1.35-5.42,4.73-7,5.79,2-1.32,5.27-4.72,7-5.79C530,222.16,532.72,220.38,532.41,220.57Z" transform="translate(-399.74 -148.63)"/><path class="cls-23" d="M531,216.81c0.24-.1-8.67,3.72-7.93,5,0.25,0.42,8.09-5,7.93-5h0Z" transform="translate(-399.74 -148.63)"/></g></g></svg>