<svg id="Layer_1" data-name="Layer 1" xmlns="http://www.w3.org/2000/svg" viewBox="0 0 479.21 772.77"><defs><style>.cls-1{fill:#9c7248;}.cls-2{fill:#875224;}.cls-3{fill:#009c48;}.cls-4{fill:#004f33;}</style></defs><title>nature_08</title><path class="cls-1" d="M207.71,603.26h82.8a0,0,0,0,1,0,0V731.37a41.4,41.4,0,0,1-41.4,41.4h0a41.4,41.4,0,0,1-41.4-41.4V603.26A0,0,0,0,1,207.71,603.26Z"/><rect class="cls-2" x="207.71" y="603.26" width="82.8" height="81.17"/><polygon class="cls-3" points="246.93 5.13 22.11 631.11 471.75 631.11 246.93 5.13 22.11 631.11 471.75 631.11 246.93 5.13"/><polygon class="cls-4" points="243.98 14.14 22.11 631.11 243.98 631.11 243.98 14.14"/><polygon class="cls-4" points="364.45 235.48 391.01 281.47 417.56 327.46 364.45 327.46 311.34 327.46 337.9 281.47 364.45 235.48"/><polygon class="cls-4" points="311.34 349.39 337.9 395.38 364.45 441.38 311.34 441.38 258.24 441.38 284.79 395.38 311.34 349.39"/><polygon class="cls-4" points="306.38 551.86 332.93 597.85 359.49 643.84 306.38 643.84 253.27 643.84 279.82 597.85 306.38 551.86"/><polygon class="cls-4" points="426.11 468.24 452.66 514.23 479.21 560.23 426.11 560.23 373 560.23 399.55 514.23 426.11 468.24"/><polygon class="cls-4" points="283.22 126.61 309.77 172.6 336.33 218.59 283.22 218.59 230.11 218.59 256.67 172.6 283.22 126.61"/><polygon class="cls-3" points="246.93 0 220.38 45.99 193.82 91.99 246.93 91.99 300.04 91.99 273.49 45.99 246.93 0"/><polygon class="cls-3" points="177 400.55 150.45 446.54 123.89 492.54 177 492.54 230.11 492.54 203.56 446.54 177 400.55"/><polygon class="cls-3" points="53.11 494.43 26.55 540.42 0 586.42 53.11 586.42 106.22 586.42 79.66 540.42 53.11 494.43"/><polygon class="cls-3" points="140.72 246.19 114.16 292.19 87.61 338.18 140.72 338.18 193.82 338.18 167.27 292.19 140.72 246.19"/></svg>