<svg id="Layer_1" data-name="Layer 1" xmlns="http://www.w3.org/2000/svg" viewBox="0 0 417.28 667.48"><defs><style>.cls-1{fill:#8fb218;}.cls-2{fill:#478b18;}.cls-3{fill:#f7b213;}.cls-4{fill:#e29f17;}.cls-5{fill:#e36b07;}.cls-6{fill:#ce5d09;}</style></defs><title>nature_01</title><path class="cls-1" d="M206.12,0h0a70,70,0,0,1,70,70V602.18a16.61,16.61,0,0,1-16.61,16.61H152.71a16.61,16.61,0,0,1-16.61-16.61V70a70,70,0,0,1,70-70Z"/><path class="cls-2" d="M951.31-3065.16a70.18,70.18,0,0,0-65.94,69.81v532.16A16.61,16.61,0,0,0,902-2446.58h49.33v-618.58Z" transform="translate(-749.27 3065.37)"/><path class="cls-2" d="M894.46-2771.87c-80.06,0-145.19-65.13-145.19-145.19a41.1,41.1,0,0,1,41.1-41.1,41.1,41.1,0,0,1,41.1,41.1,63.06,63.06,0,0,0,63,63,41.1,41.1,0,0,1,41.1,41.1A41.1,41.1,0,0,1,894.46-2771.87Z" transform="translate(-749.27 3065.37)"/><path class="cls-1" d="M1021.53-2667.63c-1.46,0-2.92,0-4.39-.06A41.1,41.1,0,0,1,977.27-2710a41.1,41.1,0,0,1,41.06-39.89l1.23,0a62.84,62.84,0,0,0,45.08-17.11,62.57,62.57,0,0,0,19.73-44,41.16,41.16,0,0,1,42.29-39.87,41.1,41.1,0,0,1,39.87,42.29A144.24,144.24,0,0,1,1121-2707.16,144.19,144.19,0,0,1,1021.53-2667.63Z" transform="translate(-749.27 3065.37)"/><path class="cls-3" d="M806.88-2593.47l52.44,165.08a43.75,43.75,0,0,0,41.7,30.5h114.25a43.75,43.75,0,0,0,42.6-33.8l37.8-161.79H806.88Z" transform="translate(-749.27 3065.37)"/><polygon class="cls-4" points="324.06 567.57 346.41 471.9 57.61 471.9 88 567.57 324.06 567.57"/><polygon class="cls-5" points="351.64 530.23 366.14 459.94 37.88 459.94 57.59 530.23 351.64 530.23"/><rect class="cls-2" x="136.1" y="427.84" width="140.04" height="32.1"/><rect class="cls-5" x="872.4" y="-2516.31" width="35.73" height="35.73" transform="translate(1278.15 2963.1) rotate(-45)"/><rect class="cls-5" x="941.64" y="-2516.31" width="35.73" height="35.73" transform="translate(1298.43 3012.06) rotate(-45)"/><rect class="cls-5" x="1010.87" y="-2516.31" width="35.73" height="35.73" transform="translate(1318.71 3061.02) rotate(-45)"/><polyline class="cls-6" points="115.72 566.92 140.99 541.66 166.26 566.92"/><polyline class="cls-6" points="184.96 566.92 210.23 541.66 235.49 566.92"/><polyline class="cls-6" points="254.2 566.92 279.47 541.66 304.73 566.92"/><rect class="cls-5" x="905.64" y="-2464.24" width="35.73" height="35.73" transform="translate(1251.06 3001.86) rotate(-45)"/><rect class="cls-5" x="974.87" y="-2464.24" width="35.73" height="35.73" transform="translate(1271.34 3050.82) rotate(-45)"/></svg>