<svg id="Layer_1" data-name="Layer 1" xmlns="http://www.w3.org/2000/svg" viewBox="0 0 809.29 425.19"><defs><style>.cls-1,.cls-2,.cls-3,.cls-4,.cls-5,.cls-6,.cls-7{fill:none;stroke-linecap:round;stroke-miterlimit:10;stroke-width:41.1px;}.cls-1{stroke:#f91700;}.cls-2{stroke:#fa9500;}.cls-3{stroke:#fdf700;}.cls-4{stroke:#50ca00;}.cls-5{stroke:#3dc1fe;}.cls-6{stroke:#000efe;}.cls-7{stroke:#5428cb;}</style></defs><title>nature_07</title><path class="cls-1" d="M2633.6-1577.75c0-212.3,171.79-384.1,384.1-384.1s384.1,171.79,384.1,384.1" transform="translate(-2613.05 1982.4)"/><path class="cls-2" d="M2675.4-1577.75c0-189.2,153.1-342.3,342.3-342.3S3360-1767,3360-1577.75" transform="translate(-2613.05 1982.4)"/><path class="cls-3" d="M3317.26-1577.75c0-165.58-134-299.57-299.57-299.57s-299.57,134-299.57,299.57" transform="translate(-2613.05 1982.4)"/><path class="cls-4" d="M2756.87-1577.75c0-144.17,116.66-260.83,260.83-260.83s260.83,116.66,260.83,260.83" transform="translate(-2613.05 1982.4)"/><path class="cls-5" d="M3237.51-1577.75a219.69,219.69,0,0,0-219.81-219.81,219.69,219.69,0,0,0-219.81,219.81" transform="translate(-2613.05 1982.4)"/><path class="cls-6" d="M2836-1577.75a181.6,181.6,0,0,1,181.71-181.71,181.6,181.6,0,0,1,181.71,181.71" transform="translate(-2613.05 1982.4)"/><path class="cls-7" d="M3158.7-1577.75a140.92,140.92,0,0,0-141-141,140.92,140.92,0,0,0-141,141" transform="translate(-2613.05 1982.4)"/></svg>