<svg id="Layer_1" data-name="Layer 1" xmlns="http://www.w3.org/2000/svg" viewBox="0 0 634.65 781.97"><defs><style>.cls-1{fill:#9c7248;}.cls-2{fill:#875224;}.cls-3{fill:#8fb218;}.cls-4{fill:#478b18;}</style></defs><title>nature_05</title><path class="cls-1" d="M267.74,530.26h82.8a0,0,0,0,1,0,0V740.57a41.4,41.4,0,0,1-41.4,41.4h0a41.4,41.4,0,0,1-41.4-41.4V530.26a0,0,0,0,1,0,0Z"/><rect class="cls-2" x="267.74" y="530.26" width="82.8" height="81.17"/><circle class="cls-3" cx="309.14" cy="285.48" r="285.48"/><path class="cls-4" d="M1008.67-1564.06c-157.67,0-285.48-127.81-285.48-285.48S851-2135,1008.67-2135" transform="translate(-699.53 2135.02)"/><path class="cls-3" d="M762.43-1685.7A76.55,76.55,0,0,0,839-1609.15a76.55,76.55,0,0,0,76.55-76.55H762.43Z" transform="translate(-699.53 2135.02)"/><path class="cls-3" d="M839-1812.29a76.55,76.55,0,0,0,76.55,76.55,76.55,76.55,0,0,0,76.55-76.55H839Z" transform="translate(-699.53 2135.02)"/><path class="cls-4" d="M1095.58-1702.78a76.55,76.55,0,0,0,76.55,76.55,76.55,76.55,0,0,0,76.55-76.55h-153.1Z" transform="translate(-699.53 2135.02)"/><path class="cls-4" d="M1079.13-2073.32a76.55,76.55,0,0,0,76.55,76.55,76.55,76.55,0,0,0,76.55-76.55h-153.1Z" transform="translate(-699.53 2135.02)"/><path class="cls-4" d="M1181.08-1879.3a76.55,76.55,0,0,0,76.55,76.55,76.55,76.55,0,0,0,76.55-76.55h-153.1Z" transform="translate(-699.53 2135.02)"/><path class="cls-3" d="M699.53-1967.14a76.55,76.55,0,0,0,76.55,76.55,76.55,76.55,0,0,0,76.55-76.55H699.53Z" transform="translate(-699.53 2135.02)"/><path class="cls-4" d="M972.31-1957.18a76.55,76.55,0,0,0,76.55,76.55,76.55,76.55,0,0,0,76.55-76.55H972.31Z" transform="translate(-699.53 2135.02)"/><path class="cls-3" d="M839-2104a76.55,76.55,0,0,0,76.55,76.55A76.55,76.55,0,0,0,992.08-2104H839Z" transform="translate(-699.53 2135.02)"/></svg>