<svg id="Layer_1" data-name="Layer 1" xmlns="http://www.w3.org/2000/svg" viewBox="0 0 409.57 644.82"><defs><style>.cls-1{fill:#229a6e;}.cls-2{fill:#fcb9ca;}.cls-3{fill:#fb7e7b;}.cls-4{fill:#1570b4;}.cls-5{fill:#229b6f;}.cls-6{fill:#64c698;}</style></defs><title>nature_02</title><rect class="cls-1" x="189.92" y="328.25" width="29.73" height="316.57" rx="14.87" ry="14.87"/><path class="cls-2" d="M2051.81-2966.39l-35.06-60.73a17.5,17.5,0,0,0-30.32,0l-17.5,30.32-17.5,30.32a17.5,17.5,0,0,1-30.32,0l-17.5-30.32h0c-9-15.51-32.66-9.16-32.66,8.75v120.48c0,73.39,60.06,134.85,133.44,133.44A130.88,130.88,0,0,0,2132.71-2865v-123.47c0-17.88-23.65-24.25-32.63-8.8l-18,30.91A17.5,17.5,0,0,1,2051.81-2966.39Z" transform="translate(-1797.04 3035.87)"/><path class="cls-3" d="M1988.32-3030.4l-36.9,63.91a17.5,17.5,0,0,1-30.32,0l-17.5-30.32c-9-15.51-32.66-9.16-32.66,8.75V-2865a130.88,130.88,0,0,0,130.88,130.88l-0.22-292.73A7.12,7.12,0,0,0,1988.32-3030.4Z" transform="translate(-1797.04 3035.87)"/><path class="cls-4" d="M2066.94-2922.56" transform="translate(-1797.04 3035.87)"/><path class="cls-5" d="M1798.88-2735.24l-0.1.72,0,0c-14.2,104.78,59.09,177.91,164.06,163.44h0C1977.51-2676.24,1904.1-2749.74,1798.88-2735.24Z" transform="translate(-1797.04 3035.87)"/><path class="cls-6" d="M2204.79-2619l-0.72-.1,0,0c-104.78-14.21-177.91,59.09-163.44,164.06h0C2145.79-2440.34,2219.29-2513.76,2204.79-2619Z" transform="translate(-1797.04 3035.87)"/></svg>