<svg id="Layer_1" data-name="Layer 1" xmlns="http://www.w3.org/2000/svg" viewBox="0 0 957.78 748.92"><defs><style>.cls-1{fill:#e48a00;}.cls-2{fill:#80d2ee;}.cls-3{fill:#9fe5f7;}.cls-4{fill:#64c2d8;}.cls-5{fill:#e36b07;}.cls-6{fill:#24a3c0;}.cls-7{fill:#34b8ce;}</style></defs><title>nature_06</title><polygon class="cls-1" points="421.07 748.92 421.77 748.92 537.54 506.34 637.58 506.34 421.07 748.92"/><path class="cls-2" d="M2386-1725.09l-32.84-.09a83.61,83.61,0,0,0-56.5-35.15c0-.32.05-0.63,0.06-1A167.18,167.18,0,0,0,2130-1928.94a167.74,167.74,0,0,0-30.51,2.82A202.51,202.51,0,0,0,1942.66-2001c-93-.26-171.42,62.16-195.64,147.45-2.58-.16-5.13-0.41-7.74-0.41a129.2,129.2,0,0,0-121.79,85.06l-37.11-.11a86.71,86.71,0,0,0-86.7,86.21,86.71,86.71,0,0,0,86.21,86.7l158.48,0.45h0.17a128.59,128.59,0,0,0,88.68-35.08,202,202,0,0,0,114.28,35.66,201.89,201.89,0,0,0,98.83-25.44,166.14,166.14,0,0,0,88.74,26,166.35,166.35,0,0,0,92.83-27.85,83.3,83.3,0,0,0,62.33,28.29,83.75,83.75,0,0,0,13.76-1.19,65.85,65.85,0,0,0,12.52,1.26l75.14,0.21a65.62,65.62,0,0,0,65.8-65.43A65.62,65.62,0,0,0,2386-1725.09Z" transform="translate(-1493.68 2001.29)"/><circle class="cls-3" cx="790.97" cy="323.75" r="83.07"/><circle class="cls-4" cx="245.22" cy="275.37" r="128.49"/><circle class="cls-3" cx="447.46" cy="202.24" r="202.24"/><circle class="cls-4" cx="637.58" cy="236.81" r="167.04"/><polygon class="cls-1" points="531.2 575.17 386.82 575.17 525.56 373.9 669.94 373.9 531.2 575.17"/><polygon class="cls-5" points="572.88 514.7 669.94 373.9 525.56 373.9 428.5 514.7 572.88 514.7"/><path class="cls-6" d="M2224.82-1721.12a95.4,95.4,0,0,0-43.08,10.23c-0.64-.32-1.27-0.65-1.91-1a141.47,141.47,0,0,0-135.37-100.45,141.44,141.44,0,0,0-139,115.55,96.17,96.17,0,0,0-21.85,28.56,70.59,70.59,0,0,0-19.1-2.68,70.71,70.71,0,0,0-70.71,70.71,70.71,70.71,0,0,0,70.71,70.71h104.8a95.6,95.6,0,0,0,33.82-6.16,141.36,141.36,0,0,0,41.35,6.16,141,141,0,0,0,51.86-9.86,95.43,95.43,0,0,0,42.34,9.86h86.16a95.84,95.84,0,0,0,95.84-95.84A95.84,95.84,0,0,0,2224.82-1721.12Z" transform="translate(-1493.68 2001.29)"/><circle class="cls-7" cx="731.01" cy="374.87" r="95.97"/><circle class="cls-6" cx="551.84" cy="329.92" r="140.92"/><circle class="cls-7" cx="476.1" cy="375.06" r="96.16"/></svg>