<svg id="Layer_1" data-name="Layer 1" xmlns="http://www.w3.org/2000/svg" viewBox="0 0 1134.64 1177.76"><defs><style>.cls-1{fill:#e1e8f6;}.cls-2{fill:#60aec8;}.cls-3{fill:#e30613;}.cls-4{fill:#b3201f;}.cls-5{fill:#ef7d29;}.cls-6{fill:#ffe600;}.cls-7{fill:#ffd200;}.cls-8{fill:#1d1d1b;}.cls-9{fill:#fff;}.cls-10,.cls-11{fill:none;stroke-miterlimit:10;stroke-width:7.41px;}.cls-10{stroke:#ffe600;}.cls-11{stroke:#b3201f;}</style></defs><title>text_10</title><circle class="cls-1" cx="-4122.06" cy="-2238.31" r="136.79" transform="translate(5000.17 2270.98) rotate(-10.59)"/><circle class="cls-1" cx="-4403.02" cy="-2366.55" r="232.15" transform="translate(5018.96 2217.14) rotate(-10.59)"/><circle class="cls-1" cx="-4359.38" cy="-2641.08" r="73.66" transform="translate(5070.17 2220.48) rotate(-10.59)"/><circle class="cls-1" cx="-4195.15" cy="-2530.64" r="157.04" transform="translate(5052.66 2252.56) rotate(-10.59)"/><circle class="cls-1" cx="-3965.99" cy="-2658.32" r="97.32" transform="translate(5080.04 2292.51) rotate(-10.59)"/><circle class="cls-1" cx="-3729.49" cy="-2405.39" r="97.32" transform="translate(5037.57 2340.29) rotate(-10.59)"/><circle class="cls-1" cx="-3734.29" cy="-2591.42" r="163.72" transform="translate(5071.69 2336.24) rotate(-10.59)"/><path class="cls-2" d="M-3580.81-2629.07a110.48,110.48,0,0,1-88.29,128.91,109.86,109.86,0,0,1-62.13-6.42,110.06,110.06,0,0,0,85.58,19.6,110.48,110.48,0,0,0,88.29-128.91,110.31,110.31,0,0,0-66.78-81.87A110,110,0,0,1-3580.81-2629.07Z" transform="translate(4658.95 3066.88)"/><path class="cls-1" d="M-3764-2193.34a110.48,110.48,0,0,1-153.58,28.72,109.86,109.86,0,0,1-39.4-48.47,110.06,110.06,0,0,0,46.66,74.37,110.48,110.48,0,0,0,153.58-28.72,110.31,110.31,0,0,0,10.68-105.11A110,110,0,0,1-3764-2193.34Z" transform="translate(4658.95 3066.88)"/><path class="cls-2" d="M-3652-2240.89a56.16,56.16,0,0,1-44.88,65.53,55.84,55.84,0,0,1-31.58-3.26,55.94,55.94,0,0,0,43.5,10,56.16,56.16,0,0,0,44.88-65.53A56.07,56.07,0,0,0-3674-2275.8,55.9,55.9,0,0,1-3652-2240.89Z" transform="translate(4658.95 3066.88)"/><path class="cls-2" d="M-3966.42-2852.34a56.16,56.16,0,0,1,65.53,44.88,55.84,55.84,0,0,1-3.26,31.58,55.94,55.94,0,0,0,10-43.5,56.16,56.16,0,0,0-65.53-44.88,56.07,56.07,0,0,0-41.62,33.94A55.9,55.9,0,0,1-3966.42-2852.34Z" transform="translate(4658.95 3066.88)"/><path class="cls-2" d="M-4224.44-2087.75a56.16,56.16,0,0,1-65.53-44.88,55.84,55.84,0,0,1,3.26-31.58,55.94,55.94,0,0,0-10,43.5,56.16,56.16,0,0,0,65.53,44.88,56.07,56.07,0,0,0,41.62-33.94A55.9,55.9,0,0,1-4224.44-2087.75Z" transform="translate(4658.95 3066.88)"/><path class="cls-2" d="M-4338.81-2660.12A110.46,110.46,0,0,1-4250.53-2789a109.89,109.89,0,0,1,62.14,6.41,110.09,110.09,0,0,0-85.59-19.59,110.46,110.46,0,0,0-88.28,128.89,110.32,110.32,0,0,0,66.79,81.86A110,110,0,0,1-4338.81-2660.12Z" transform="translate(4658.95 3066.88)"/><path class="cls-2" d="M-4633.6-2266.95a110.48,110.48,0,0,1,88.29-128.91,109.86,109.86,0,0,1,62.13,6.42,110.06,110.06,0,0,0-85.58-19.6A110.48,110.48,0,0,0-4657-2280.13a110.31,110.31,0,0,0,66.78,81.87A110,110,0,0,1-4633.6-2266.95Z" transform="translate(4658.95 3066.88)"/><circle class="cls-1" cx="-3918.57" cy="-2457.96" r="205.67" transform="translate(5044.02 2304.64) rotate(-10.59)"/><path class="cls-3" d="M-4654.4-2677.07c299.14,105.39,513.22-78.06,454.92-389.82,58.3,311.76,324.21,405.44,565,199.06-240.84,206.37-189,483.49,110.13,588.88-299.14-105.39-513.22,78.06-454.92,389.82-58.3-311.76-324.21-405.44-565-199.06C-4303.43-2294.56-4355.26-2571.68-4654.4-2677.07Z" transform="translate(4658.95 3066.88)"/><path class="cls-4" d="M-4025.3-2135.48a1.46,1.46,0,0,1-1.59-.7c-82.87-97.79-198.12-138.63-324.51-115-1.82.34-2.23-.13-2.42-0.37a1.29,1.29,0,0,1-.17-1.55c21.24-59.52,26.42-119.51,15.43-178.3s-37.51-112.83-78.81-160.67a1.3,1.3,0,0,1-.4-1.53,1.52,1.52,0,0,1,1.43-1.08c126.83-23.72,219.77-103.5,261.7-224.63a1.46,1.46,0,0,1,1.23-1.22,1.46,1.46,0,0,1,1.59.69c82.87,97.8,198.12,138.64,324.52,115,1.81-.34,2.22.14,2.4,0.35a1.32,1.32,0,0,1,.19,1.58c-21.23,59.53-26.41,119.52-15.42,178.3s37.51,112.85,78.81,160.67a1.3,1.3,0,0,1,.41,1.5,1.53,1.53,0,0,1-1.44,1.1c-126.84,23.72-219.78,103.49-261.71,224.63A1.46,1.46,0,0,1-4025.3-2135.48Z" transform="translate(4658.95 3066.88)"/><path class="cls-5" d="M-4034.7-2185.76a1.24,1.24,0,0,1-1.36-.6c-70.7-83.43-169-118.28-276.87-98.11-1.55.29-1.91-.11-2.07-0.31a1.1,1.1,0,0,1-.15-1.33c18.12-50.78,22.54-102,13.16-152.12s-32-96.27-67.24-137.08a1.11,1.11,0,0,1-.34-1.31,1.3,1.3,0,0,1,1.22-.92c108.21-20.24,187.51-88.3,223.28-191.66a1.25,1.25,0,0,1,1-1,1.24,1.24,0,0,1,1.35.59c70.7,83.44,169,118.28,276.88,98.12,1.55-.29,1.89.12,2,0.3a1.13,1.13,0,0,1,.16,1.35c-18.11,50.79-22.54,102-13.16,152.12s32,96.28,67.24,137.08a1.11,1.11,0,0,1,.35,1.28,1.31,1.31,0,0,1-1.23.94c-108.22,20.24-187.52,88.3-223.29,191.65A1.25,1.25,0,0,1-4034.7-2185.76Z" transform="translate(4658.95 3066.88)"/><path class="cls-6" d="M-4045.07-2241.21a1,1,0,0,1-1.1-.49c-57.29-67.6-137-95.83-224.34-79.49-1.26.24-1.54-.09-1.68-0.25a0.89,0.89,0,0,1-.12-1.07c14.68-41.15,18.27-82.62,10.67-123.26s-25.93-78-54.48-111.07a0.9,0.9,0,0,1-.28-1.06,1,1,0,0,1,1-.75c87.68-16.4,151.93-71.55,180.92-155.29a1,1,0,0,1,.85-0.84,1,1,0,0,1,1.1.48c57.29,67.61,137,95.84,224.34,79.5,1.25-.23,1.54.1,1.66,0.24a0.91,0.91,0,0,1,.13,1.09c-14.68,41.15-18.26,82.62-10.66,123.26s25.93,78,54.48,111.07a0.9,0.9,0,0,1,.28,1,1.06,1.06,0,0,1-1,.76c-87.69,16.4-151.94,71.55-180.92,155.29A1,1,0,0,1-4045.07-2241.21Z" transform="translate(4658.95 3066.88)"/><path class="cls-7" d="M-4053.2-2284.68a0.82,0.82,0,0,1-.9-0.4c-46.77-55.19-111.82-78.24-183.15-64.9-1,.19-1.26-0.08-1.37-0.21a0.73,0.73,0,0,1-.1-0.88c12-33.59,14.91-67.45,8.71-100.63s-21.17-63.68-44.48-90.68a0.73,0.73,0,0,1-.23-0.86,0.86,0.86,0,0,1,.81-0.61c71.58-13.39,124-58.41,147.7-126.78a0.82,0.82,0,0,1,.69-0.69,0.82,0.82,0,0,1,.9.39c46.77,55.2,111.82,78.25,183.16,64.91,1-.19,1.25.08,1.35,0.2a0.75,0.75,0,0,1,.11.89c-12,33.6-14.91,67.45-8.7,100.63s21.17,63.69,44.48,90.68a0.73,0.73,0,0,1,.23.85,0.87,0.87,0,0,1-.81.62c-71.59,13.39-124,58.41-147.71,126.78A0.82,0.82,0,0,1-4053.2-2284.68Z" transform="translate(4658.95 3066.88)"/><path class="cls-8" d="M-4427.41-2256.07a83,83,0,0,1-13,1.36c-34.22.94-51.92,1.09-86.06,0.76a27.27,27.27,0,0,1-26.11-22L-4586-2454.55c-2.35-12.55,4.69-25.53,16.37-30.19,30.15-12,45.87-17.93,76.46-28.86a84,84,0,0,1,12.81-3.49c41.4-7.74,75.23,19.21,84.19,67.07,3.39,18.13,2.13,34.9-3.17,48.52,12.61,11.72,21.88,29.77,26.05,52.1C-4364.26-2301.32-4386-2263.81-4427.41-2256.07Z" transform="translate(4658.95 3066.88)"/><path class="cls-8" d="M-4256.75-2262.11c-2.81.53-5.67,0.94-8.61,1.23-67.67,6.78-126.18-48.59-142.28-134.65-16.43-87.84,17.28-159.24,83.87-177.66,2.84-.78,5.67-1.44,8.47-2,64.95-12.15,120.37,42.75,137.92,136.6C-4159.91-2345.15-4191.81-2274.25-4256.75-2262.11Zm-42.08-192.56c-7.14,1.61-12.2,17.48-7.93,40.29s14.73,35.79,22,34.72h0c2.37-.44,4.21-2.72,5.7-6.82,1.68-4.64,4-15.13.62-33.17-4.52-24.16-14.78-36.07-20.14-35.07Z" transform="translate(4658.95 3066.88)"/><path class="cls-8" d="M-4055.5-2292.11c-68.48,12.81-126.78-44.29-145.07-142.09-18.38-98.26,15.28-172.89,83.76-185.7l1.15-.21c69-12.11,127.6,45.26,145.84,142.75,18.15,97-15.83,171.39-84.54,185ZM-4093-2496.63c-5.07.95-11.56,16.3-6.47,43.51s16.69,39.19,21.76,38.24c5.89-1.13,11.65-17.29,6.73-43.57s-16.13-39.26-22-38.19l-4.12-21.85Z" transform="translate(4658.95 3066.88)"/><path class="cls-8" d="M-3936.34-2324.79a25.36,25.36,0,0,1-22.92-7.53,29.1,29.1,0,0,1-7.51-14.7L-4014-2599.63c-2.87-15.34,6-29.44,20.27-32.1l1.57-.24c22.4-2.72,34-4,56.26-6.14,12-1.16,24.71,5.7,31.61,17.08l0.65,1.07,0.52,1.14c10.36,22.43,18.56,40.14,26.46,57.06,1.45-17.07,3-34.37,5-55.9l0.14-1.5,0.34-1.47c2.82-12.23,12.72-21.95,24.64-24.17a28.55,28.55,0,0,1,3.59-.44c22.52-1.27,34.16-1.78,56.63-2.5,13-.4,24.71,9.38,27.21,22.77l39.14,209.28c2.47,13.2-4.92,26.42-17.18,30.74-18.75,6.61-28.52,9.93-47.5,16.16l-1.4.46-1.81.36a25.3,25.3,0,0,1-16.66-2.61,30.27,30.27,0,0,1-16.55,13.4c-11.39,3.53-17.09,5.25-28.54,8.64l-1.09.32-1.49.3a28.77,28.77,0,0,1-18.31-2.89,26.07,26.07,0,0,1-15.82,12.79c-19.19,5.33-29.15,8-48.42,12.88l-0.69.18Z" transform="translate(4658.95 3066.88)"/><path class="cls-8" d="M-3684.45-2401c-24.94,4.66-45.64-9.61-50.33-34.72a49.68,49.68,0,0,1,2.42-26.93,26.26,26.26,0,0,1-3.07-8.32l-31.4-146.27c-2.77-14.76,6.39-28.41,20.29-31l1.9-.36,2.47-.07c19.09-.25,28.64-0.27,47.76-0.12a27.59,27.59,0,0,1,26.48,22.25l21,135.58a23.7,23.7,0,0,1,.32,6.28,42.34,42.34,0,0,1,11.08,21.63c3.53,18.89-4,45.55-37,58.53A66.21,66.21,0,0,1-3684.45-2401Z" transform="translate(4658.95 3066.88)"/><path class="cls-6" d="M-4507.39-2495c35.05-12.53,63.78,7.71,71.58,49.43,4.8,25.67-1.31,46.57-15.2,55,18.45,2.23,33.84,21.75,39.4,51.47,7.84,41.9-11.61,71.31-48.54,72.32-36,1-54.06,1.15-90.15.79a5.23,5.23,0,0,1-4.73-4c-14.14-75.57-21.2-113.36-35.33-188.94-0.37-2,.78-4.92,2.9-5.76C-4555.63-2477.46-4539.61-2483.51-4507.39-2495Zm4.16,92.48c8.22-1.84,12.58-9,10.85-18.29s-8.29-13.8-16.44-11.59c-6.84,1.85-10.26,2.78-17.1,4.65l5.44,29.1Zm19.62,77.44c8.11-.86,12.53-7.82,10.72-17.49s-8.55-15.15-16.59-13.93l-22.47,3.4,5.68,30.37C-4497.21-2323.68-4492.67-2324.15-4483.61-2325.11Z" transform="translate(4658.95 3066.88)"/><path class="cls-9" d="M-4276.71-2273.26c-60.16,6-110.34-44.76-125-123.35-14.83-79.32,13.6-144.81,71.87-160.93s108.73,34.62,125.46,124.07C-4187.85-2344.84-4216.55-2279.29-4276.71-2273.26ZM-4315-2477.78c-22.64,5.12-33.16,33.32-26.32,69.88s26.85,59.07,49.8,55.67,33.53-31.61,26.37-69.89S-4292.32-2482.89-4315-2477.78Z" transform="translate(4658.95 3066.88)"/><path class="cls-10" d="M-4291.53-2273.26c-60.16,6-110.34-44.76-125-123.35-14.83-79.32,13.6-144.81,71.87-160.93s108.73,34.62,125.46,124.07C-4202.67-2344.84-4231.38-2279.29-4291.53-2273.26Zm-38.25-204.52c-22.64,5.12-33.16,33.32-26.32,69.88s26.85,59.07,49.8,55.67,33.53-31.61,26.37-69.89S-4307.14-2482.89-4329.78-2477.78Z" transform="translate(4658.95 3066.88)"/><path class="cls-6" d="M-4055.77-2306.2c-59.25,11.77-110.29-42.22-127-131.32-16.82-89.93,11.27-158.72,70.76-169.16s110.51,43.55,127.08,132.15C-3968.47-2386.74-3996.52-2318-4055.77-2306.2Zm-40.43-216.17c-22.88,4.16-33.2,33.82-25.78,73.5s27.76,63.6,50.6,59.21,33.15-34,25.77-73.5S-4073.31-2526.53-4096.19-2522.37Z" transform="translate(4658.95 3066.88)"/><path class="cls-6" d="M-3665.21-2474c23.19-6.88,32.07,4.24,34,14.53,2,10.86-1.8,26.72-24.6,35.71-22.52,8.88-32-3.35-34.22-15.44C-3692.17-2450.63-3688.11-2467.17-3665.21-2474Zm-20.64.78a4.09,4.09,0,0,1-4.88-3.27c-13.25-61.72-19.92-92.78-33.33-155.32-0.47-2.54,1.1-4.79,3.38-4.82,20-.26,30-0.28,50.05-0.12a5.62,5.62,0,0,1,5.07,4.34c8.76,56.58,13.19,85.12,22.14,142.69a5,5,0,0,1-3.29,5.23C-3662.32-2479.87-3670.15-2477.62-3685.85-2473.18Z" transform="translate(4658.95 3066.88)"/><path class="cls-11" d="M-3609.36-2463.53a43.16,43.16,0,0,0-11.83-22.74,23.76,23.76,0,0,0-.24-6.83c-9-57.56-13.38-86.1-22.26-143.35a27.9,27.9,0,0,0-26.76-22.5c-8.3-.07-14.9-0.1-21.19-0.1-9,0-17.42.07-29.32,0.22a25.6,25.6,0,0,0-19.48,9.41,25.55,25.55,0,0,0-3.29,5.3,27.83,27.83,0,0,0-23.94-13.66h0c-24,.77-35.75,1.28-59.85,2.64-13.67.79-25.51,11.31-28.91,26.21l-0.25,1.79c-2.35,25.58-4.1,45.17-5.67,63.91-9.18-19.63-18.44-39.6-30.44-65.56l-0.77-1.37c-6.47-10.67-18.17-17.57-29.81-17.57l-2.4.13c-24,2.32-35.68,3.6-59.5,6.49a24.91,24.91,0,0,0-17.19,10.15,29.14,29.14,0,0,0-4.78,22.54l6.48,34.65c-25-35.7-58.75-56.42-96.64-56.42a106.78,106.78,0,0,0-18.4,1.62c-27.67,4.85-51,20-67.48,43.74-13.43,19.39-21.8,43.77-25,71.56-23.81-44-59.17-69.46-100.36-69.46a101.89,101.89,0,0,0-27.16,3.77c-46,12.73-76.91,49.77-87.74,99.91-13.11-26.4-36-41.89-63.89-41.89a81.51,81.51,0,0,0-27.44,5c-32.65,11.67-48.51,17.66-80.79,30.5-13.46,5.34-18.58,19.71-16.56,30.51l35.35,188.94a27.53,27.53,0,0,0,26.37,22.18c11.49,0.11,21.14.17,30.14,0.17,18.81,0,34.73-.26,60.83-1,23.09-.63,42.22-9.54,55.3-25.75,8.31-10.29,13.45-23.07,15.49-37.38,25.76,35.87,62,57.21,102.42,57.21,3.88,0,7.86-.2,11.83-0.59,28.44-2.86,52.52-16.43,69.63-39.25,13.57-18.12,22.14-41.28,25.58-68,25.24,47.72,63.65,76,107.5,76a105,105,0,0,0,20.35-2c44.86-8.91,75.55-42.63,87.69-91.46l6.48,34.64c2.48,13.28,13.48,22.91,26.13,22.91h0.38l3.39-.17,2.37-.59c20.73-5.28,30.77-8,51.19-13.63a26.4,26.4,0,0,0,16.53-14,30,30,0,0,0,14.7,3.93,26.63,26.63,0,0,0,7.57-1.08c12.09-3.57,18.12-5.4,30.16-9.13,7.28-2.25,13.58-7.79,17.44-14.72a25.63,25.63,0,0,0,13.21,3.69,25.09,25.09,0,0,0,7.86-1.26c20.2-6.62,30.06-10,50.25-17.08,11.17-4,18.25-15.27,17.68-27.28a41,41,0,0,0,28.62,11.13,60.52,60.52,0,0,0,22.13-4.59C-3613.59-2416.47-3605.53-2443.09-3609.36-2463.53Zm-680.81,86.22c-1.7,2.38-3.26,2.9-4.59,3.09a8.88,8.88,0,0,1-1.27.1c-8,0-19-14.16-23.39-37.86-4.72-25.22,1.06-42.23,9.39-44.11a6.53,6.53,0,0,1,1.43-.17c7,0,17.23,14.61,21.63,38.23C-4283.66-2400.32-4284.88-2384.72-4290.17-2377.31Zm214.61-34.19a6,6,0,0,1-1.16.12c-5.44,0-17.9-12.2-23.39-41.58-3.57-19.05-2.29-36,3.32-44.14,1.78-2.58,3.31-3.16,4.52-3.38a6.8,6.8,0,0,1,1.19-.12c6.64,0,18.55,14.43,23.61,41.53C-4062.11-2430.47-4068.84-2412.79-4075.56-2411.5Z" transform="translate(4658.95 3066.88)"/><path class="cls-9" d="M-3767-2635.55c2.27-.07,4.42,2.22,4.92,4.9l41.4,221.37c0.44,2.35-.73,5.26-2.88,6-19.84,7-29.79,10.37-49.76,16.92-2.16.71-4.52-1.19-5-3.71-8-42.73-12.13-64.83-19.77-105.69-3.27,44.38-4.79,67.22-7.65,113.91-0.26,3.21-3.3,6.9-5.74,7.66-11.93,3.7-17.91,5.51-29.89,9-2.45.73-6.5-.92-7.88-3.76-19.42-41.79-29.24-63.22-49-106.87l21.51,115c0.51,2.74-.89,6-3.08,6.62-20.23,5.62-30.38,8.32-50.72,13.49-2.2.56-4.38-1.85-4.91-4.69l-50-267.2c-0.6-3.23.56-6.27,2.81-6.54,23.54-2.86,35.33-4.15,58.95-6.44,3.67-.36,8.57,2.74,11.05,6.85,26.67,57.78,39.88,86,65.92,140.46,4.49-60.74,6.89-90.26,12.11-146.93,0.95-4.12,4.59-7.63,8.28-7.84C-3802.56-2634.27-3790.7-2634.8-3767-2635.55Z" transform="translate(4658.95 3066.88)"/><path class="cls-10" d="M-3752.14-2635.55c2.27-.07,4.42,2.22,4.92,4.9l41.4,221.37c0.44,2.35-.73,5.26-2.88,6-19.84,7-29.79,10.37-49.76,16.92-2.16.71-4.52-1.19-5-3.71-8-42.73-12.13-64.83-19.77-105.69-3.27,44.38-4.79,67.22-7.65,113.91-0.26,3.21-3.3,6.9-5.74,7.66-11.93,3.7-17.91,5.51-29.89,9-2.45.73-6.5-.92-7.88-3.76-19.42-41.79-29.24-63.22-49-106.87l21.51,115c0.51,2.74-.89,6-3.08,6.62-20.23,5.62-30.38,8.32-50.72,13.49-2.2.56-4.38-1.85-4.91-4.69l-50-267.2c-0.6-3.23.56-6.27,2.81-6.54,23.54-2.86,35.33-4.15,58.95-6.44,3.67-.36,8.57,2.74,11.05,6.85,26.67,57.78,39.88,86,65.92,140.46,4.49-60.74,6.89-90.26,12.11-146.93,0.95-4.12,4.59-7.63,8.28-7.84C-3787.74-2634.27-3775.88-2634.8-3752.14-2635.55Z" transform="translate(4658.95 3066.88)"/></svg>