<svg id="Layer_1" data-name="Layer 1" xmlns="http://www.w3.org/2000/svg" viewBox="0 0 1160.25 660.62"><defs><style>.cls-1{fill:#6bd3c2;}.cls-2,.cls-5{fill:#24a3c0;}.cls-12,.cls-3,.cls-9{fill:none;}.cls-13,.cls-3{stroke:#8c1c88;}.cls-11,.cls-12,.cls-13,.cls-14,.cls-3,.cls-5,.cls-6,.cls-7,.cls-9{stroke-miterlimit:10;stroke-width:8.22px;}.cls-13,.cls-4{fill:#ffa9e6;}.cls-14,.cls-5{stroke:#fff;}.cls-11,.cls-14,.cls-6{fill:#0c165a;}.cls-6{stroke:#24a3c0;}.cls-7{fill:#95e2ef;stroke:#2280ba;}.cls-8{fill:#8c1c88;}.cls-9{stroke:#ffa9e6;}.cls-10{fill:#fff;}.cls-11{stroke:#95e2ef;}.cls-12{stroke:#0c165a;}</style></defs><title>text_11</title><path class="cls-1" d="M-3144.53-2533.33l68.25-29.44,30.11,44.44a31,31,0,0,0,26,14,32.61,32.61,0,0,0,24.49-11.24,31,31,0,0,0,7-25.37l-8.72-55.81,49.68-21.43,34.59,44.65a31.26,31.26,0,0,0,24.8,12.33h0a32.44,32.44,0,0,0,25.11-12,31.32,31.32,0,0,0,6-26.56l-11.65-52.39,68.25-29.44,36.46,264.48-58.11,25.06-54.09-69.69a31.29,31.29,0,0,0-24.81-12.3,32.09,32.09,0,0,0-24.42,11.22,31,31,0,0,0-7.07,25.36l13.57,87.17-58.11,25.06Z" transform="translate(3155.52 2949.65)"/><path class="cls-2" d="M-2777.29-2743.64c3.86-1.67,7.13.59,7.47,4.56l39.16,284a10.45,10.45,0,0,1-5.83,9.85l-67.2,29c-3.48,1.5-9.28.79-11.55-2.35l-57.65-74.25c-9.64-12.41-29.48-3.86-27.06,11.67l14.44,92.89c0.73,3.81-2.74,8.51-6.22,10l-67.2,29a10.45,10.45,0,0,1-11.16-2.52l-179.69-223.39c-2.66-3-2.06-6.9,1.81-8.56l86.49-37.31c3.86-1.67,9.44-.41,11.72,2.73l33.66,49.67c9.12,13.46,30.15,5.17,27.64-10.89l-9.55-61.1c-0.51-4.36,3-9.06,7.6-11.06l55.59-24c4.64-2,10.44-1.3,13.26,2.06l37.89,48.88c10,12.85,30.42,3.24,26.89-12.63l-13-58.57c-0.73-3.81,2.19-8.73,6.05-10.39Z" transform="translate(3155.52 2949.65)"/><path class="cls-3" d="M-2777.29-2768.3c3.86-1.67,7.13.59,7.47,4.56l39.16,284a10.45,10.45,0,0,1-5.83,9.85l-67.2,29c-3.48,1.5-9.28.79-11.55-2.35l-57.65-74.25c-9.64-12.41-29.48-3.86-27.06,11.67l14.44,92.89c0.73,3.81-2.74,8.51-6.22,10l-67.2,29a10.45,10.45,0,0,1-11.16-2.52l-179.69-223.39c-2.66-3-2.06-6.9,1.81-8.56l86.49-37.31c3.86-1.67,9.44-.41,11.72,2.73l33.66,49.67c9.12,13.46,30.15,5.17,27.64-10.89l-9.55-61.1c-0.51-4.36,3-9.06,7.6-11.06l55.59-24c4.64-2,10.44-1.3,13.26,2.06l37.89,48.88c10,12.85,30.42,3.24,26.89-12.63l-13-58.57c-0.73-3.81,2.19-8.73,6.05-10.39Z" transform="translate(3155.52 2949.65)"/><path class="cls-4" d="M-3136.31-2599.09l68.25-29.44,30.11,44.44a31,31,0,0,0,26,14,32.61,32.61,0,0,0,24.49-11.24,31,31,0,0,0,7-25.37l-8.72-55.81,49.68-21.43,34.59,44.65a31.26,31.26,0,0,0,24.8,12.33h0a32.44,32.44,0,0,0,25.11-12,31.32,31.32,0,0,0,6-26.56l-11.65-52.39,68.25-29.44,36.46,264.48-58.11,25.06-54.09-69.69a31.29,31.29,0,0,0-24.81-12.3,32.09,32.09,0,0,0-24.42,11.22,31,31,0,0,0-7.07,25.36l13.57,87.17-58.11,25.06Z" transform="translate(3155.52 2949.65)"/><path class="cls-3" d="M-2649.4-2418.92c-86.45,16.28-155.09-31.31-171.53-118.57-16.59-88.08,30-157.38,116.48-173.67s155.11,31.3,171.71,119.38C-2516.31-2504.51-2562.94-2435.21-2649.4-2418.92Zm-39.6-210.25c-33.27,6.27-50.71,36.45-43.45,75s34.49,60.33,67.76,54.06,50.71-36.45,43.45-75S-2655.71-2635.44-2689-2629.17Z" transform="translate(3155.52 2949.65)"/><path class="cls-4" d="M-2633-2428.62c-86.45,16.28-155.09-31.31-171.53-118.57-16.59-88.08,30-157.38,116.48-173.67s155.11,31.3,171.71,119.38C-2499.88-2514.22-2546.51-2444.91-2633-2428.62Zm-39.6-210.25c-33.27,6.27-50.71,36.45-43.45,75s34.49,60.33,67.76,54.06,50.71-36.45,43.45-75S-2639.28-2645.15-2672.58-2638.87Z" transform="translate(3155.52 2949.65)"/><path class="cls-5" d="M-2778.88-2473.77l4.6,24.78a8.22,8.22,0,0,0,7.07,6.66l24.91,3.1a8.22,8.22,0,0,1,3,15.32l-22.35,12.61a8.22,8.22,0,0,0-4,8.66l4.69,25.29a8.22,8.22,0,0,1-13.76,7.45l-18-17.16a8.22,8.22,0,0,0-9.71-1.21l-21.66,12.22a8.22,8.22,0,0,1-11.5-10.61l10.79-23.32a8.22,8.22,0,0,0-1.79-9.4l-18.54-17.69a8.22,8.22,0,0,1,6.69-14.1l24.95,3.11a8.22,8.22,0,0,0,8.48-4.71l10.6-22.92A8.22,8.22,0,0,1-2778.88-2473.77Z" transform="translate(3155.52 2949.65)"/><path class="cls-6" d="M-2665.88-2441.9c-63,0-109.89-41.52-122.47-108.34-14.92-79.2,25.65-139.83,103.37-154.47a161.87,161.87,0,0,1,29.84-2.88c63.93,0,109.78,40.8,122.66,109.15,14.83,78.7-25.81,139-103.54,153.66A162.05,162.05,0,0,1-2665.88-2441.9Zm4.47-214.48a76.82,76.82,0,0,0-14.22,1.35c-20.87,3.93-38,15.76-48.12,33.31-9.83,17-12.75,38-8.45,60.89,7.84,41.63,36.41,68.52,72.76,68.52h0a76.72,76.72,0,0,0,14.2-1.35c42.25-8,65.51-46.7,56.56-94.21C-2596.5-2629.48-2625.06-2656.38-2661.4-2656.38Z" transform="translate(3155.52 2949.65)"/><path class="cls-7" d="M-2637.92-2842.62l27.3,34.82a11.74,11.74,0,0,0,13.28,3.78l41.51-15.24c10.68-3.92,20.13,8.13,13.8,17.58l-24.66,36.79a11.76,11.76,0,0,0,.51,13.8l27.32,34.85c7,9-1.51,21.67-12.45,18.56l-42.54-12.11a11.74,11.74,0,0,0-13,4.76l-24.64,36.76c-6.34,9.46-21.06,5.27-21.49-6.11l-1.64-44.25a11.75,11.75,0,0,0-8.52-10.87l-42.55-12.11c-10.94-3.11-11.51-18.42-.83-22.34l41.54-15.25a11.75,11.75,0,0,0,7.69-11.47l-1.64-44.26C-2659.31-2846.31-2644.94-2851.58-2637.92-2842.62Z" transform="translate(3155.52 2949.65)"/><path class="cls-8" d="M-2093.66-2726.38c5.58,0.71,7.8,5.52,5.49,10.32l-147.94,353.46a14,14,0,0,1-13.4,7.37l-97-12.3c-5-.64-11.22-5.39-11.7-10.55l-19.58-153.39c-1.68-13.16-19.78-15.46-24.69-3.13L-2459.71-2391c-1.75,4.88-8.94,7.93-14,7.3l-97-12.3a14,14,0,0,1-11.14-10.48l-55-379.19c-1-5.23,2.32-9.33,7.9-8.63l124.89,15.84c5.58,0.71,11.15,5.94,11.63,11.1l7.08,113.45c0.85,13.7,19.71,16.7,24.77,3.94l42.87-107.92c2.38-5.37,9.57-8.41,16.26-7.57l80.29,10.18c6.69,0.85,12.89,5.59,13.86,11.39l14.57,115.2c1.72,13.62,20.73,15.41,25,2.36l35.17-108.09c1.75-4.88,8.45-8.56,14-7.85Z" transform="translate(3155.52 2949.65)"/><path class="cls-9" d="M-2077.22-2734.6c5.58,0.71,7.8,5.52,5.49,10.32l-147.94,353.46a14,14,0,0,1-13.4,7.37l-97-12.3c-5-.64-11.22-5.39-11.7-10.55l-19.58-153.39c-1.68-13.16-19.78-15.46-24.69-3.13l-57.22,143.65c-1.75,4.88-8.94,7.93-14,7.3l-97-12.3a14,14,0,0,1-11.14-10.48l-55-379.19c-1-5.23,2.32-9.33,7.9-8.63l124.89,15.84c5.58,0.71,11.15,5.94,11.63,11.1l7.08,113.45c0.85,13.7,19.71,16.7,24.77,3.94l42.87-107.92c2.38-5.37,9.57-8.41,16.26-7.57l80.29,10.18c6.69,0.85,12.89,5.59,13.86,11.39l14.57,115.2c1.72,13.62,20.73,15.41,25,2.36l35.17-108.09c1.75-4.88,8.45-8.56,14-7.85Z" transform="translate(3155.52 2949.65)"/><path class="cls-10" d="M-2053-2801.46l-7,57.88a10.29,10.29,0,0,0,5.88,10.56l52.89,24.54a10.29,10.29,0,0,1-2.35,19.42l-57.21,11.23A10.29,10.29,0,0,0-2069-2669l-7,57.88a10.29,10.29,0,0,1-19.2,3.77l-28.36-50.94a10.29,10.29,0,0,0-11-5.09l-57.21,11.23a10.29,10.29,0,0,1-9.52-17.09l39.68-42.71a10.29,10.29,0,0,0,1.45-12l-28.36-50.94a10.29,10.29,0,0,1,13.32-14.33l52.89,24.54a10.29,10.29,0,0,0,11.86-2.33l39.68-42.71A10.29,10.29,0,0,1-2053-2801.46Z" transform="translate(3155.52 2949.65)"/><path class="cls-11" d="M-2050.81-2789.39l-5.59,46.25a8.22,8.22,0,0,0,4.7,8.44l42.26,19.61a8.22,8.22,0,0,1-1.88,15.52l-45.72,9a8.22,8.22,0,0,0-6.58,7.08l-5.59,46.25a8.22,8.22,0,0,1-15.34,3l-22.66-40.71A8.22,8.22,0,0,0-2116-2679l-45.72,9a8.22,8.22,0,0,1-7.6-13.66l31.71-34.13a8.22,8.22,0,0,0,1.16-9.59l-22.66-40.71a8.22,8.22,0,0,1,10.64-11.45l42.26,19.61a8.22,8.22,0,0,0,9.48-1.86L-2065-2796A8.22,8.22,0,0,1-2050.81-2789.39Z" transform="translate(3155.52 2949.65)"/><path class="cls-9" d="M-2563.84-2356.94l-2.24,18.51a3.29,3.29,0,0,0,1.88,3.38l16.92,7.85a3.29,3.29,0,0,1-.75,6.21l-18.3,3.59a3.29,3.29,0,0,0-2.63,2.83l-2.24,18.51a3.29,3.29,0,0,1-6.14,1.21l-9.07-16.29a3.29,3.29,0,0,0-3.51-1.63l-18.3,3.59a3.29,3.29,0,0,1-3-5.47l12.69-13.66a3.29,3.29,0,0,0,.46-3.84l-9.07-16.29a3.29,3.29,0,0,1,4.26-4.58l16.92,7.85a3.29,3.29,0,0,0,3.8-.75l12.69-13.66A3.29,3.29,0,0,1-2563.84-2356.94Z" transform="translate(3155.52 2949.65)"/><path class="cls-12" d="M-2410.26-2940.24l-3.21,26.56a4.72,4.72,0,0,0,2.7,4.85l24.27,11.26a4.72,4.72,0,0,1-1.08,8.91l-26.25,5.15a4.72,4.72,0,0,0-3.78,4.06l-3.21,26.56a4.72,4.72,0,0,1-8.81,1.73l-13-23.37a4.72,4.72,0,0,0-5-2.34l-26.25,5.15a4.72,4.72,0,0,1-4.37-7.84l18.21-19.6a4.72,4.72,0,0,0,.67-5.51l-13-23.37a4.72,4.72,0,0,1,6.11-6.58l24.27,11.26a4.72,4.72,0,0,0,5.44-1.07l18.21-19.6A4.72,4.72,0,0,1-2410.26-2940.24Z" transform="translate(3155.52 2949.65)"/><path class="cls-13" d="M-2367.88-2431.44l20.72,23a8.22,8.22,0,0,0,9.46,2l28.26-12.62a8.22,8.22,0,0,1,10.47,11.61l-15.47,26.85a8.22,8.22,0,0,0,1,9.6l20.74,23a8.22,8.22,0,0,1-7.81,13.54l-30.28-6.42a8.22,8.22,0,0,0-8.83,3.94l-15.45,26.83a8.22,8.22,0,0,1-15.3-3.24l-3.26-30.8a8.22,8.22,0,0,0-6.47-7.18l-30.29-6.42a8.22,8.22,0,0,1-1.65-15.55l28.28-12.62a8.22,8.22,0,0,0,4.82-8.37l-3.26-30.81A8.22,8.22,0,0,1-2367.88-2431.44Z" transform="translate(3155.52 2949.65)"/><path class="cls-14" d="M-3005.76-2811.33l26.37,16.21a8.22,8.22,0,0,0,9.64-.75l23.55-20.08a8.22,8.22,0,0,1,13.32,8.18l-7.26,30.12a8.22,8.22,0,0,0,3.69,8.93l26.39,16.23a8.22,8.22,0,0,1-3.67,15.2l-30.86,2.39a8.22,8.22,0,0,0-7.36,6.27l-7.25,30.1a8.22,8.22,0,0,1-15.59,1.21L-2986.6-2726a8.22,8.22,0,0,0-8.23-5.06l-30.87,2.39a8.22,8.22,0,0,1-6-14.45l23.57-20.1a8.22,8.22,0,0,0,2.26-9.39l-11.82-28.64A8.22,8.22,0,0,1-3005.76-2811.33Z" transform="translate(3155.52 2949.65)"/></svg>