<?xml version="1.0" encoding="utf-8"?>
<!-- Generator: Adobe Illustrator 19.2.1, SVG Export Plug-In . SVG Version: 6.00 Build 0)  -->
<svg version="1.1" id="Layer_1" xmlns="http://www.w3.org/2000/svg" xmlns:xlink="http://www.w3.org/1999/xlink" x="0px" y="0px"
	 viewBox="0 0 1202.6 231.4" style="enable-background:new 0 0 1202.6 231.4;" xml:space="preserve">
<style type="text/css">
	.st0{fill:#FFA9E6;}
	.st1{fill:#9B7ADB;}
	.st2{fill:#F96ADA;}
</style>
<title>text_01</title>
<path class="st0" d="M181.4,25c3.7,0,6.2,0.8,7.8,2.4c1.5,1.6,2.3,4.4,2.3,8.2v43.6c0,12.8-2.7,22.3-8.2,28.5
	c-5.5,6.2-13.9,9.3-25.3,9.3h-37.5c-3.9,0-6.6-0.8-8.2-2.4c-1.6-1.6-2.4-4.4-2.4-8.2v-60c0-4.5-1.7-6.7-5.2-6.7
	c-2.1-0.1-4.2,0.8-5.5,2.4v84.1H157c2.4,0,3.7,1.1,3.7,3.4v7.9c0,2-1.2,3-3.7,3H99.1V217c0,3.9-0.8,6.6-2.3,8.2
	c-1.5,1.6-4.1,2.4-7.8,2.4H27.4c-3.7,0-6.3-0.8-7.8-2.4c-1.5-1.6-2.3-4.4-2.3-8.2V59.7c0-5.1-0.4-8.8-1.2-11.1
	c-0.9-2.4-2.4-4.6-4.3-6.4c-3.2-2.9-6.7-5.4-10.4-7.8c-1-0.6-1.6-1.6-1.5-2.7V28c0-2,1.2-3,3.7-3L181.4,25L181.4,25z"/>
<path class="st0" d="M225.3,72.9c17.5,0,29.4,5.2,35.7,15.5c5.5-6.2,12.2-11.1,19.8-14.5c7.3-3.2,15.8-4.7,25.3-4.7
	c14.8,0,27,4.1,36.6,12.2c9.3,7.6,14.6,19.1,14.3,31.1c0,10.6-3.9,19.2-11.6,25.8s-17.7,9.9-29.9,9.9c-12,0-21.8-3.1-29.4-9.1
	c-7.6-6.1-11.4-13.8-11.4-23.2c0-7.9,2.7-14.4,8.2-19.5c5.5-5.1,12.5-7.6,21-7.6c0.6-0.9,0.9-1.9,0.9-3c0-2.8-2.1-4.3-6.4-4.3
	c-8.9,0-16.7,3.4-23.2,10.2c-6.4,6.5-9.9,15.4-9.8,24.5c-0.1,7.7,2.3,15.3,6.9,21.5c4.6,6.2,11.1,11.1,19.7,14.8
	c2.8,1.2,4.7,2.6,5.6,4.1c0.9,1.5,1.4,4.1,1.4,7.8V218c0,6.5-3.5,9.8-10.4,9.8h-61.9c-6.3,0-9.5-3.3-9.5-9.8V110.4
	c0-7.1-1-12.6-3-16.3c-2-3.8-5.8-7.3-11.3-10.5c-1-0.5-1.9-1.2-2.6-2c-0.3-0.6-0.5-1.3-0.5-2v-3.7c0-2,1.2-3,3.7-3L225.3,72.9
	L225.3,72.9z"/>
<path class="st0" d="M435.6,72.9c3.9,0,6.6,0.8,8.1,2.3c1.5,1.5,2.3,4,2.3,7.5v99.1c0,3.5,0.3,5.8,0.9,7c0.5,1.2,1.8,1.9,3.1,1.8
	c1.6,0.1,3.1-0.7,3.8-2.1c0.7-1.4,1.5-4.7,2.3-9.8c0.4-3.5,0.8-5.5,1.2-6.2c0.5-0.8,1.5-1.2,2.4-1.1h5.2c1.3,0,2.3,0.9,2.6,2.1
	c0.6,2.4,0.9,4.9,0.8,7.3c0,16.3-4.4,28.8-13.1,37.5c-8.7,8.7-21.2,13.1-37.5,13.1c-15.7,0-27.7-4.4-36.1-13.3
	c-8.4-8.8-12.6-21.5-12.6-38v-69.8c0-7.1-1-12.6-3.1-16.3c-2-3.8-5.8-7.3-11.3-10.5c-1-0.5-1.9-1.2-2.6-2c-0.3-0.6-0.5-1.3-0.5-2
	v-3.7c0-2,1.2-3,3.7-3L435.6,72.9L435.6,72.9z M365.5,30.2c0-9.1,3.6-16.5,10.7-22c7.1-5.5,16.7-8.2,28.6-8.2
	c12,0,21.6,2.7,28.8,8.2c7,5.1,11.1,13.3,10.8,22c0.2,8.6-3.9,16.7-10.8,21.6c-7.2,5.5-16.8,8.2-28.8,8.2s-21.5-2.7-28.6-8.1
	C369.1,46.6,365.5,39.3,365.5,30.2L365.5,30.2z"/>
<path class="st0" d="M545.3,157.3c0,4.7,4,9,11.9,13c8.2,4,17.3,6.1,26.5,6c19.3,0,35.2-6.5,47.6-19.5c0.8-0.8,1.7-1.6,2.6-2.3
	c0.7-0.4,1.5-0.5,2.3-0.5h3.6c1.2-0.1,2.3,0.5,2.9,1.5c0.6,1.8,0.9,3.6,0.8,5.5c0.1,12.4-3.5,24.5-10.2,34.9
	c-6.8,10.7-16.5,19.3-29,25.8s-26.5,9.8-41.9,9.8c-16.5,0-31.3-3.4-44.5-10.1c-13-6.5-23.9-16.4-31.6-28.7
	c-7.8-12.4-11.7-26.5-11.7-42.4c0-15.6,3.7-29.6,11-41.8c7.3-12.2,17.7-21.8,31.2-28.8c13.5-7,29.3-10.5,47.4-10.5
	c13.6,0,25.9,2.1,36.7,6.4c10.9,4.3,19.5,10.4,25.8,18.3c6.3,7.8,9.6,17.5,9.5,27.4c0,13.2-4.8,24.1-14.3,32.8
	c-9.6,8.6-21.6,13-36.3,13c-14.6,0-26.5-4.9-35.7-14.6c-1.2,0-2.4,0.5-3.2,1.4C545.8,154.8,545.3,156,545.3,157.3z M554.5,136.3
	c1.1,1.6,2.9,2.5,4.9,2.4c3.7,0,5.5-2,5.5-6.1V89.4c0-4.1-1.8-6.1-5.5-6.1c-1.9,0-3.8,0.9-4.9,2.4V136.3L554.5,136.3z"/>
<path class="st0" d="M693.5,72.9c10,0,17.9,1.8,23.9,5.3s10.1,9.1,12.4,16.6c4.4-8,11-14.7,19-19c8.4-4.5,17.8-6.7,27.3-6.5
	c14.6,0,25.8,4.4,33.5,13.1c7.7,8.7,11.6,21.1,11.6,37.2V218c0,3.5-0.8,6-2.3,7.5c-1.5,1.5-4.2,2.3-8.1,2.3h-54.9
	c-3.9,0-6.6-0.8-8.1-2.3s-2.3-4-2.3-7.5V113.1c0.1-1.9-0.5-3.9-1.5-5.5c-1-1.4-2.6-2.2-4.3-2.1c-2.4,0-4.2,0.8-5.2,2.4v110
	c0,3.5-0.8,5.9-2.3,7.5c-1.5,1.5-4.2,2.3-8.1,2.3h-54.9c-3.9,0-6.6-0.8-8.1-2.3c-1.5-1.5-2.3-4-2.3-7.5V110.3c0-7.1-1-12.5-3.1-16.3
	c-2-3.8-5.8-7.3-11.3-10.5c-1-0.5-1.9-1.2-2.6-2c-0.3-0.6-0.5-1.3-0.5-2v-3.7c0-2,1.2-3,3.7-3L693.5,72.9L693.5,72.9z"/>
<path class="st0" d="M931.9,46c0-7.1-1-12.5-3.1-16.3c-2-3.8-5.8-7.3-11.3-10.5c-1-0.5-1.9-1.2-2.6-2c-0.3-0.6-0.5-1.3-0.5-2v-3.7
	c0-2,1.2-3,3.7-3h79c3.9,0,6.5,0.8,8.1,2.3s2.3,4,2.3,7.5v163.4c0,3.5,0.3,5.8,0.9,7c0.5,1.2,1.8,1.9,3.1,1.8c1.7,0.1,3.3-0.9,4-2.4
	c0.8-1.6,1.5-4.8,2.1-9.5c0.4-3.5,0.8-5.5,1.2-6.2c0.6-0.8,1.5-1.2,2.4-1.1h5.2c1.3,0,2.3,0.9,2.6,2.1c0.6,2.3,0.9,4.6,0.8,7
	c0,16.3-4.2,28.8-12.6,37.6c-8.4,8.8-20.5,13.3-36.1,13.3c-20.3,0-35-8.4-43.9-25.3c-8.9,16.9-22.8,25.3-41.5,25.3
	c-17.9,0-31.9-7.3-41.9-21.8s-15.1-34.7-15.1-60.5c0-25.2,5.1-44.8,15.2-58.8c10.2-14,24.4-21,42.7-21c15,0,26.8,4.3,35.4,12.8
	L931.9,46L931.9,46z M920.9,187.8c0,4.9,1.9,7.3,5.8,7.3c2,0.1,4-0.8,5.2-2.4V98.5c-1.2-1.6-3.2-2.5-5.2-2.4c-3.9,0-5.8,2.4-5.8,7.3
	V187.8L920.9,187.8z"/>
<path class="st0" d="M1112,192.7c0.1,5-1.9,9.8-5.5,13.3c-3.7,3.6-8.6,5.5-14.9,5.9c-0.7,1-1.2,2.1-1.2,3.4c0,2.7,1.8,4,5.5,4
	c6.5,0,12.3-2.8,17.5-8.4c5-5.2,7.8-12.1,7.8-19.4c0-8.3-2.8-14.9-8.5-19.7c-5.7-4.8-15.6-8.8-29.6-12c-26.6-6.1-39.9-19.1-39.9-39
	c0-15.9,7.7-28.4,23-37.6s36.1-13.9,62.3-13.9c21.5,0,38.3,3.3,50.3,9.9c12,6.6,18,15.8,18,27.6c0,8.1-3.1,14.6-9.4,19.4
	c-6.3,4.8-15,7.2-26.2,7.2c-11,0-19.9-2.3-26.8-7c-6.9-4.7-10.4-10.8-10.4-18.3c-0.1-5,1.9-9.8,5.5-13.3c3.7-3.6,8.6-5.5,14.9-6
	c0.7-1,1.2-2.1,1.2-3.4c0-2.7-1.8-4-5.5-4c-6.5,0-12.3,2.8-17.5,8.4c-5,5.2-7.8,12.1-7.8,19.4c0,8.3,3.1,14.9,9.3,19.8
	s16.5,8.8,30.9,11.9c17.1,3.5,29.3,8.3,36.6,14.5c7.3,6.2,11,15,11,26.4c0,16.1-7.2,28.3-21.5,36.9c-14.3,8.5-34.9,12.8-61.7,12.8
	c-24.4,0-43.8-3.5-58.4-10.4c-14.5-6.9-21.8-16.1-21.8-27.4c0-8.1,3.2-14.5,9.6-19.2c6.4-4.7,15.1-7,26.1-7c11,0,19.9,2.3,26.8,7
	C1108.6,179.1,1112,185.2,1112,192.7z"/>
<path class="st1" d="M189.1,27.4c-1.5-1.6-4.1-2.4-7.8-2.4H3.6C1.2,25,0,26,0,28v3.7c0,1.1,0.5,2.2,1.5,2.7
	c3.6,2.3,7.1,4.9,10.4,7.8c1.9,1.8,3.4,4,4.3,6.4c0.8,2.3,1.2,6,1.2,11.1l0,0c0,18.6,15.1,33.7,33.7,33.7c1.7,0,3.4-0.1,5.1-0.4
	c14.2-2.2,28.5-4.2,42.9-6V42c1.3-1.7,3.4-2.6,5.5-2.4c3.5,0,5.2,2.2,5.2,6.7v39.3c27.1-3.3,54.3-6,81.7-7.9V35.6
	C191.4,31.8,190.7,29.1,189.1,27.4z"/>
<path class="st1" d="M225.3,72.9h-21.6c-2.4,0-3.7,1-3.7,3v1.3c14.2-0.9,28.4-1.6,42.7-2.1C237,73.5,231.1,72.8,225.3,72.9z"/>
<path class="st1" d="M280.7,73.9c-0.2,0.1-0.4,0.2-0.5,0.3c17.3-0.1,34.6,0.1,51.9,0.6C324,71,315,69.1,306,69.2
	C296.5,69.2,288.1,70.8,280.7,73.9z"/>
<path class="st1" d="M376.2,52c7.1,5.4,16.7,8.1,28.6,8.1c12,0,21.6-2.7,28.8-8.2c7-5,11-13.1,10.8-21.6c0.2-8.7-3.8-16.9-10.8-22
	C426.4,2.8,416.8,0,404.8,0c-12,0-21.5,2.7-28.6,8.2c-7.1,5.5-10.7,12.8-10.7,22C365.5,39.3,369,46.6,376.2,52z"/>
<path class="st1" d="M443.7,75.2c-1.5-1.5-4.2-2.3-8.1-2.3h-80.5c-2.3,0-3.4,1-3.5,2.7c31.4,1.4,62.9,4,94.4,7.9v-0.9
	C446,79.2,445.2,76.7,443.7,75.2z"/>
<path class="st1" d="M626.7,93.9c-6.3-7.9-14.9-14-25.8-18.3c-10.9-4.3-23.1-6.4-36.7-6.4c-18.1,0-33.9,3.5-47.4,10.5
	c-6.2,3.2-11.9,7.1-17.1,11.8c18.2,3.1,36.5,6.8,54.7,10.8V85.7c1.1-1.6,2.9-2.5,4.9-2.4c3.7,0,5.5,2,5.5,6.1v15.3
	c23.7,5.6,47.4,12,71.1,19.3c0-0.9,0.2-1.7,0.2-2.5C636.3,111.4,633,101.7,626.7,93.9z"/>
<path class="st1" d="M809.6,82.3c-7.7-8.7-18.9-13.1-33.5-13.1c-9.5-0.2-18.9,2.1-27.3,6.5c-8,4.4-14.6,11-19,19
	c-2.2-7.5-6.4-13-12.4-16.6c-6-3.6-14-5.3-23.9-5.3h-48.2c-2.4,0-3.7,1-3.7,3v3.7c0,0.7,0.1,1.4,0.5,2c0.7,0.8,1.6,1.5,2.6,2
	c5.5,3.3,9.3,6.8,11.3,10.5c2,3.8,3,9.2,3.1,16.3V131c24.6,7.7,49.9,12.6,75.6,14.6v-37.7c1-1.6,2.7-2.4,5.2-2.4
	c1.7-0.1,3.3,0.7,4.3,2.1c1.1,1.6,1.6,3.5,1.5,5.5v33.4c25.2,1.3,50.5,0.9,75.6-1.1v-25.9C821.2,103.4,817.3,91.1,809.6,82.3z"/>
<path class="st1" d="M920.9,103.3c0-4.9,1.9-7.3,5.8-7.3c2-0.1,4,0.8,5.2,2.4v34.2c25.1-3.4,50.4-6.6,75.6-9V18.3
	c0-3.5-0.8-5.9-2.3-7.5c-1.5-1.5-4.2-2.3-8.1-2.3h-79c-2.4,0-3.7,1-3.7,3v3.7c0,0.7,0.1,1.4,0.5,2c0.7,0.8,1.6,1.5,2.6,2
	c5.5,3.3,9.2,6.8,11.3,10.5c2,3.8,3.1,9.2,3.1,16.3v36c-8.5-8.5-20.3-12.8-35.4-12.8c-18.3,0-32.5,7-42.7,21
	c-9.4,13-14.4,31-15.1,53.7c27.2-2.5,54.6-6.1,82.2-9.8L920.9,103.3L920.9,103.3z"/>
<path class="st1" d="M1134.3,126.2c6.9,4.7,15.8,7,26.8,7c5.7,0.1,11.5-0.8,16.9-2.5c-15.9-3.7-32-6.5-48.2-8.2
	C1131.2,123.9,1132.7,125.1,1134.3,126.2z"/>
<path class="st1" d="M1117.8,121.5c-2-3.8-3.1-8.1-3-12.4c0-7.2,2.8-14.2,7.8-19.4c5.2-5.6,11-8.4,17.5-8.4c3.7,0,5.5,1.3,5.5,4
	c-0.1,1.2-0.5,2.4-1.2,3.4c-6.3,0.4-11.3,2.4-14.9,6c-3.6,3.4-5.6,8.3-5.5,13.3c-0.1,5.5,2.1,10.7,5.9,14.6
	c16.2,1.7,32.3,4.4,48.2,8.2c3.3-1,6.5-2.6,9.3-4.6c6.3-4.8,9.4-11.2,9.4-19.4c0-11.8-6-21-18-27.6c-12-6.6-28.8-9.9-50.3-9.9
	c-26.2,0-47,4.6-62.3,13.9c-15.3,9.2-23,21.8-23,37.6c0,0.1,0,0.2,0,0.3C1068,119.6,1093,119.7,1117.8,121.5z"/>
<path class="st2" d="M157.9,117.1c9.5,0,16.9-2.3,22.3-6.7c-14,1.9-28.2,4.2-42.5,6.7H157.9L157.9,117.1z"/>
<path class="st2" d="M17.4,217.1c0,3.9,0.8,6.6,2.3,8.2c1.5,1.6,4.1,2.4,7.8,2.4H89c3.7,0,6.3-0.8,7.8-2.4s2.3-4.4,2.3-8.2v-76.6
	H157c2.4,0,3.7-1,3.7-3v-7.9c0-2.2-1.2-3.4-3.7-3.4H99.1v-2.3c-10.6,1.9-21.3,3.8-31.9,5.6c-28.7,4.9-49.8,29.8-49.8,59L17.4,217.1
	L17.4,217.1z"/>
<path class="st2" d="M217.2,106.2c0.1,1.3,0.2,2.7,0.2,4.2V218c0,6.5,3.1,9.8,9.5,9.8h61.8c6.9,0,10.4-3.3,10.4-9.8v-53.6
	c0-3.7-0.5-6.2-1.4-7.8c-0.9-1.5-2.8-2.9-5.6-4.1c-8.5-3.7-15.1-8.6-19.7-14.8c-4.6-6.2-7-13.8-6.9-21.5c0-4.4,0.8-8.8,2.3-12.9
	c-3.4,0.3-6.9,0.6-10.3,1C244.4,104.2,230.9,105,217.2,106.2z"/>
<path class="st2" d="M278.2,102.4c-2.4,4.1-3.6,8.7-3.5,13.5c0,9.3,3.8,17.1,11.4,23.2s17.4,9.2,29.4,9.1c12.2,0,22.2-3.3,29.9-9.9
	c7.7-6.6,11.6-15.2,11.6-25.8c0-4.3-0.7-8.6-2.1-12.7C329,99.3,303.3,100.4,278.2,102.4z"/>
<path class="st2" d="M368.8,110.4v69.8c0,16.5,4.2,29.1,12.6,38c8.4,8.9,20.5,13.3,36.1,13.3c16.3,0,28.7-4.4,37.5-13.1
	c8.7-8.7,13.1-21.2,13.1-37.5c0.1-2.5-0.1-4.9-0.8-7.3c-0.3-1.2-1.3-2.1-2.6-2.1h-5.2c-0.9-0.1-1.9,0.3-2.4,1.1
	c-0.4,0.7-0.8,2.8-1.2,6.2c-0.8,5.1-1.6,8.3-2.3,9.8c-0.7,1.4-2.2,2.3-3.8,2.1c-1.3,0.1-2.5-0.6-3.1-1.8c-0.6-1.2-0.9-3.6-0.9-7
	v-72.4c-25.7-5.1-51.9-8.2-78.1-9.1C368.6,103.6,368.9,107,368.8,110.4z"/>
<path class="st2" d="M583.8,176.2c-9.2,0.1-18.3-1.9-26.5-6c-7.9-4-11.9-8.3-11.9-13c0-1.3,0.5-2.6,1.4-3.5c0.8-0.9,2-1.4,3.2-1.4
	c9.1,9.8,21,14.6,35.7,14.6c6.2,0,12.3-0.9,18.2-2.8c-30.2-9.1-60.1-21.5-91.4-35.4c-10.4-4.2-20.9-7.8-31.5-10.9
	c-4.2,10.3-6.3,21.3-6.2,32.4c0,15.9,3.9,30,11.7,42.4c7.7,12.3,18.6,22.2,31.6,28.7c13.2,6.7,28.1,10.1,44.5,10.1
	c15.4,0,29.4-3.2,41.9-9.8s22.2-15.1,29-25.8c4.3-6.7,7.3-14.2,8.8-22.1c-8.5-1.6-16.9-3.6-25.2-5.8
	C607.2,173.4,596.2,176.2,583.8,176.2z"/>
<path class="st2" d="M659,176.7V218c0,3.5,0.8,6,2.3,7.5c1.5,1.5,4.2,2.3,8.1,2.3h54.9c3.9,0,6.6-0.8,8.1-2.3c1.5-1.5,2.3-4,2.3-7.5
	v-39.9l-0.4,0.1C709.2,180.7,684,180.2,659,176.7z"/>
<path class="st2" d="M745.6,218c0,3.5,0.8,6,2.3,7.5s4.2,2.3,8.1,2.3h54.9c3.9,0,6.6-0.8,8.1-2.3s2.3-4,2.3-7.5v-58
	c-26.2,5.7-51.5,11.2-75.6,16L745.6,218L745.6,218z"/>
<path class="st2" d="M931.9,192.7c-1.2,1.6-3.2,2.5-5.2,2.4c-3.9,0-5.8-2.4-5.8-7.3v-48c-27.7,4.9-55.3,10.5-82.1,16.3
	c0.9,22.4,5.8,40.2,14.9,53.4c10.1,14.5,24,21.8,41.9,21.8c18.7,0,32.5-8.4,41.5-25.3c8.9,16.9,23.6,25.3,43.9,25.3
	c15.6,0,27.7-4.4,36.1-13.3s12.7-21.4,12.6-37.6c0.1-2.4-0.1-4.7-0.8-7c-0.3-1.2-1.3-2.1-2.6-2.1h-5.2c-0.9-0.1-1.9,0.3-2.4,1.1
	c-0.4,0.7-0.8,2.8-1.2,6.2c-0.6,4.7-1.3,7.8-2.1,9.5c-0.7,1.6-2.3,2.5-4,2.4c-1.3,0.1-2.5-0.6-3.1-1.8c-0.6-1.2-0.9-3.6-0.9-7V128
	c-25,2.2-50.4,5.6-75.6,9.9L931.9,192.7L931.9,192.7z"/>
<path class="st2" d="M1043.6,125.9c2.2,17,15.3,28.3,39.5,33.8c14,3.3,23.9,7.3,29.6,12s8.6,11.3,8.5,19.7c0,7.2-2.8,14.2-7.8,19.4
	c-5.2,5.6-11,8.4-17.5,8.4c-3.7,0-5.5-1.3-5.5-4c0.1-1.2,0.5-2.4,1.2-3.4c6.3-0.4,11.3-2.4,14.9-5.9c3.6-3.5,5.6-8.3,5.5-13.3
	c0-7.5-3.5-13.6-10.4-18.3c-6.9-4.7-15.9-7-26.8-7c-11,0-19.7,2.3-26.1,7c-6.4,4.7-9.6,11.1-9.6,19.2c0,11.4,7.3,20.5,21.8,27.4
	c14.5,6.9,34,10.4,58.4,10.4c26.8,0,47.4-4.3,61.7-12.8s21.5-20.8,21.5-36.9c0-11.4-3.7-20.2-11-26.4c-7.3-6.2-19.5-11-36.6-14.5
	c-12.7-2.7-22.1-6.1-28.4-10.2C1100,126.3,1072.1,125,1043.6,125.9z"/>
</svg>
