<svg id="Layer_1" data-name="Layer 1" xmlns="http://www.w3.org/2000/svg" viewBox="0 0 463.4 401.23"><defs><style>.cls-1{fill:#fff;}.cls-2{fill:#ffed00;}.cls-3{fill:#1a171b;}.cls-4{fill:#ffa300;}</style></defs><title>text_18</title><path d="M-1814.42-228.62l7-113.51,6.5,124,33.38-148-18.29,128.85,43-99.86-29.34,110L-1696-338.3l-52.13,99.22,65.85-54.57-60.29,72.92L-1635.46-298l-109.69,94.63,117-61.87-109.78,71.72,143.37-48.59-135.14,55.85,146.67-24-150.89,37.55,156-4.34-151.19,14.44,149.67,19.21-148.4-6.88,140.32,40-142.75-27.28L-1602-78.65l-105.32-35.2,67.13,53.35-108.66-57.09,100.9,94.17L-1763-116.14l65.28,92-65.56-70.5L-1712.08,16l-68.45-114.74,25.88,106.39L-1794.9-99.15l7.76,134.21L-1807-81.9l-17.41,96.08,5.49-116.46-45.61,133.93,28.59-122.48L-1879.77.53l31.5-95.71-85.85,106.71,71.14-113.6-92.44,75.34L-1876.8-107-1994.6-35.44l114.23-83L-1990.48-68-1880.11-134l-146.64,36.55,147.22-49.08-142.4,15L-1884.85-156l-156.49-10.94,161.39-2-134.21-20.55,136.22,9.75-144.84-51.18,135.49,35.36-88.75-52.2,87.74,35.49-92-75.65L-1856-202.54l-88.16-100,92.44,87.09L-1920-331.76l81.83,114.31-29.49-114.6,37.84,98.79-17.08-123Z" transform="translate(2041.34 366.17)"/><path class="cls-1" d="M-1666.66-190.29a32.62,32.62,0,0,0-28.74-22.87c7.6-27.42-22.58-51.16-47.46-37.46a37.74,37.74,0,0,0-29.06-26.86,37.73,37.73,0,0,0-17.9.94c-3,.92-5.64,2.64-8.52,3.87-5.16,2.2-2.76,2.66-6.92.91-6.57-2.77-9.85-7.35-17.9-7.47a26.1,26.1,0,0,0-18.27,7c-1.9,1.79-3.65,6.59-5.46,7.57-2.57,1.4-4.27-.15-7.84-1.22a43.72,43.72,0,0,0-20.45-1A44.32,44.32,0,0,0-1907.07-242c-2.08,4.53-1.58,17.27-4,20.18-0.55.67-10,2.72-11.49,3.58a26.89,26.89,0,0,0-6.77,5.67,27.27,27.27,0,0,0-.81,34.56c8.5,10.7,10.23,4.44,16.26-3.86,1.22,9.27,1.62,19.06,3.7,28.16,0.58,2.52,2.81,6,2.87,8.28,0.13,5.17-10.27,13.58-12.57,20.56a39.51,39.51,0,0,0,15,44.55,39.34,39.34,0,0,0,25.75,6.8c1.51-.14,7.27-1.87,8-1.59,1.27,0.47,2.23,3.8,3.53,4.68,4.58,3.11,7.26,6.08,13.16,7.15a23.57,23.57,0,0,0,11.52-.74c1.84-.58,4.89-3.19,6.46-3.17,3.24,0.06.55,0.25,3.64,2.16,7.84,4.84,12.12,11.44,22.14,13.3a37.19,37.19,0,0,0,25.94-4.82,37,37,0,0,0,8.4-7.08c5.28-6,3.66-4.89,11.23-2a29.39,29.39,0,0,0,24.22-1.65c4-2.15,6.25-6,9.77-8.44,3.36-2.33.1-1.84,4.31-2.59,3.27-.58,8.17,1.34,11.77.89,18.46-2.3,30.8-20.84,26.21-38.72-1.18-4.59-7.73-10.44-8-14.07-0.37-4.34-1.23.75,1-4.24s9-10.25,12.56-14.36c10.42-11.92,22-23.62,16.6-41.53C-1670.64-203.53-1662.55-176.66-1666.66-190.29Zm-41.21-23.34,2.67,1.33C-1707.42-211.75-1706.41-212.47-1707.87-213.63Z" transform="translate(2041.34 366.17)"/><path d="M-1687.31-121.39c-7.49-16.84-28.58-24.83-44.81-15,20.34-8,43.44,7.72,42.3,29.57a29.8,29.8,0,0,1-25.41,27.78c-13.92,2-24.27-5.74-31.9-15.83a30.75,30.75,0,0,0,15.77,17c-6.19,8.09-15.3,12.85-25.63,12.21-3-.19-9.54-0.54-11.61-3.14s1.41-10,1.39-14.59c-5.11,15.53-15.38,29.11-33.51,30.62-20.06,1.67-37.14-13.52-40-33-0.52,4.75,3.34,11.89,2.42,15.65-0.67,2.73-.55,2.34-3.55,4-8.58,4.66-21.07-.54-26.31-7.74a36.82,36.82,0,0,0,18.93-17.95c-14.82,20.5-46.07,22.64-62.39,2.73-17.18-21-6.07-44.28,11.57-58.82-24.05,9.26-30.87,40.18-16.44,60.33A40.77,40.77,0,0,0-1894.19-72c5.33,1.46,10,.9,15.4,1.12a39.52,39.52,0,0,0,6.26-1.37,26.76,26.76,0,0,0,5.19,6.15c8.84,7.63,16.87,5.72,27.16,4.33,1-.14,1.55-1.36,2.68-1.34,4.32,0.07,4.57,2.73,9,6.5,17.51,15,45.95,10.06,57-10.22a29.34,29.34,0,0,0,30.68,3c4.72-2.29,7-6,10.88-9.06,4.88-3.87,1.64-2.89,9.17-2.13C-1695.81-72.53-1677.87-98.62-1687.31-121.39Z" transform="translate(2041.34 366.17)"/><path d="M-1668.84-201.16a33.64,33.64,0,0,0-25.1-13.53c9.38-28-22.69-51.83-47.62-38.64A38.6,38.6,0,0,0-1767-279.2a38.81,38.81,0,0,0-22.23-.44c-3.44,1-6.86,3.67-10.13,4.43-5.38,1.25-1.37,1.65-6.31-.17-6.53-2.4-10-6.67-17.76-6.82a28.7,28.7,0,0,0-19,6.88c-2.08,1.79-4,6.41-6.17,7.58-2.79,1.51-7.64-1.5-11.82-2.23A45.72,45.72,0,0,0-1899-258.45a44.51,44.51,0,0,0-10.21,14.24c-2.61,5.81-2.73,17.52-5.85,20.63-3.42,3.41-11.36,3.79-15.54,8.06a28.71,28.71,0,0,0-8,18.91c-0.31,10.89,6.24,22.13,16.91,25.63-18.91-13.29-15.29-44.15,9-48.95a38.72,38.72,0,0,0,7.17,17.48c-10.82-23.61.81-53,25.89-61.2s42.5,7.44,54,26.74a41,41,0,0,0-13-22.69c-3.18-2.83-6.1-2.92-5.42-6.36,1-4.81,10.26-9.44,14.29-10.57a24.78,24.78,0,0,1,24,6.57c-7.5,7.56-11.93,18.21-10.73,28.94,4.61-19.57,17.62-36.87,40.48-35a36,36,0,0,1,25.79,14c3.59,4.65,5.77,7.75,3.54,12-2.33,4.47-7.14,7.15-9.11,12.4,10.47-15.87,32.27-20.41,47.56-8.73a32.71,32.71,0,0,1,12.76,23.77c0.28,3.7.36,6-1.74,7.8-2.91,2.46-10.92,2.28-14.8,4.89,3.89-1.6,18.79-6,15.06,1.61,3.22-4.86,4.87-3.87,10-1.78a32.42,32.42,0,0,1,9.57,6.07,31.37,31.37,0,0,1,10,26c-1.58,18.12-18.5,30.52-36.25,28.66,30,10.13,52.06-28.15,34.83-51.85C-1672.16-205.6-1665.55-196.63-1668.84-201.16Z" transform="translate(2041.34 366.17)"/><path class="cls-2" d="M-1939.43-99.95c-9.65,1-19.35,1.28-29,1.53,0.75-23.9-1.92-50.56,2.32-74,0.72-4-.34-3.35,2.18-5.86,6.54-6.5,22.82-9.28,31.63-11.26,9.72-2.19,22.62-4.62,31.76.61,13.41,7.67,7,22.8-1.93,31.49,21,1.17,24.51,24.46,11.79,37.7-12.56,13.08-31.28,18-48.71,19.83h0Zm3.6-25c4.18-.43,12.23-1,15.2-4.64,5.14-6.3,0-7.49-6-7.32-3.92.11-7.92,0.55-9.37,3.58-0.23.48-.12,8.4,0.17,8.38C-1934.44-125.07-1935.91-124.92-1935.82-124.92Zm-1.26-33.56c3.21-1.21,14.9-5.46,13.46-10.79-2.75-.38-6.56-0.35-9.17.73C-1938.75-166.1-1937.35-164.88-1937.08-158.49Z" transform="translate(2041.34 366.17)"/><path class="cls-3" d="M-1920.62-188.9c9.28-1,24.39-.28,25.37,12,0.72,9-7.79,16.52-13.8,21.9,0.24,0.6,10,.64,11.7,1.23a18,18,0,0,1,11.7,12.2c3.2,12.37-8.17,22.4-17.56,28.11-18.61,11.32-41.36,11.71-62.49,12.31l1.72-54.75c0.12-3.9-1.66-16.26.62-19.67s16-6.92,19.31-8a114.13,114.13,0,0,1,23.45-5.34h0Zm-19,34.13c5-1.65,27.94-13.22,14.35-17.44-2.52-.78-8.81.71-10.81,1.84-4.66,2.64-3.21,1.29-3.91,6.89-0.33,2.65.26,6.11,0.37,8.71C-1935.05-156.28-1939.71-157.63-1939.59-154.77Zm4,32.5c5.88-.6,29.29-7.67,17.2-16.2-3.39-2.39-9.9-1.12-13.64-.35-9.33,1.92-6.7,8.44-6.79,16.82l3.23-.27h0Zm14.39-71.93a122,122,0,0,0-28,6.75c-4.2,1.49-16.75,4.43-19.4,8.41s-0.55,17.49-.68,21.72q-1,30.82-1.93,61.65c18.41-.49,37.61-0.36,55.25-6.21,13.18-4.37,29.17-13,34.41-26.79a23.11,23.11,0,0,0-15.5-30.7C-1879.37-180.92-1898.81-196.52-1921.16-194.21Zm-13.53,29a30,30,0,0,1,7.16-1.61c-1.71,2-4.8,3.41-7,4.42Q-1934.66-163.8-1934.69-165.2Zm1.36,32.16c3.8-1.14,8.71-2,12.55-.67-1.11,4.24-9.29,5.35-12.61,5.79C-1933.37-129.48-1933.72-131.53-1933.33-133Z" transform="translate(2041.34 366.17)"/><path class="cls-2" d="M-1870.06-118.54c-11.24-1.5-22.51-2.85-33.78-4.12,7.08-15.45,13.38-31.23,19.1-47.23q3.88-10.87,7.49-21.84c1.56-4.71,3.38-16.58,6.74-20.82,5.91-7.45,33.16-11.37,43-14.45L-1817-161.5c1,6.12,7.14,23.38,4.72,29.22s-26.06,8.91-33,10.77q-1.05-8.35-2.15-16.69c-2.81.52-13,.86-15.24,2.81C-1866.67-131.81-1863.41-118.11-1870.06-118.54Zm15.19-50.21-2.38,8.63c5.33-.68,5.2.22,6.5-3.77,1.18-3.59-1-10.73-1.41-14.57Q-1853.52-173.61-1854.87-168.75Z" transform="translate(2041.34 366.17)"/><path class="cls-3" d="M-1829.68-223.52l9.09,56.25c1.44,8.93,5.74,20.8,4.81,29.78-0.11,1,1.33,3.93.78,4.84-2.38,4-22.91,6.4-27.94,7.76q-1-8.23-2.14-16.46c-4.64.88-9.9,1.15-14.36,2.67-3.79,1.29-3.5.4-5.91,3.2-1.94,2.25-1.46,7.4-3,9.9-2.92,4.71-.16,2.77-5.14,3.89-1.76.4-4.83-.62-6.65-0.85q-9.88-1.24-19.76-2.36c9.24-20.29,16.9-41.26,24-62.4q2.37-7.08,4.65-14.2c2.59-8,2.79-10.09,10.8-12.54C-1850.2-217.17-1839.93-220.31-1829.68-223.52Zm-21.2,30.92c-3.45,11.84-6.71,23.74-10,35.63,1.85-.24,8.06-0.26,9.74-1.24,4.68-2.74,3.42-2.07,2.77-8.85q-1.22-12.77-2.51-25.53C-1852.24-187.94-1850.45-188.26-1850.88-192.6Zm25.48-37.85c-11.89,3.73-39.84,7.8-47.44,16.44-4.3,4.88-6,18.59-8.13,25-2.88,8.62-5.87,17.21-9,25.73-5.37,14.52-11.38,28.74-17.8,42.83,6,0.68,11.91,1.35,17.87,2.06,4,0.48,17.06,3.77,20.67,2.62,2.93-.94,1.89,1,3.65-0.67,2.36-2.21,2-8.64,3.53-11.42,2.61-4.77-.71-4.61,6.63-6.15,1.92-.4,3.92-0.73,5.83-1.08q1.11,8.46,2.17,16.93,12.82-3.46,25.6-7c2.6-.73,8.51-1.15,10.59-3,2.81-2.47,1.38-.51,1.53-5.34,0.26-8.55-3-18.44-4.34-26.85Q-1819.73-195.4-1825.4-230.45Z" transform="translate(2041.34 366.17)"/><path class="cls-2" d="M-1830.1-95.66c3.39-27.27,5.27-54.72,7.43-82.11,0.52-6.56-.75-18.18,3.42-22.05,3.85-3.57,15.31-5.25,20.16-6.93l14.2-4.93c0.76,16.87,4.13,34.45,8.48,50.77q1-11.13,1.95-22.26c0.61-7-.57-22.14,4.37-26.33,3.58-3,13.27-4.54,18-6.17l18-6.25A738,738,0,0,0-1746.85-131c-0.33,4.38,1.52,17.72-1.19,20.89-1.66,1.94-6.89,2.39-9.66,3.15q-12,3.28-24,6.48c-0.49-7.69-10.17-18.29-14.25-25-0.46,6.06-.9,12.11-1.2,18.18-0.38,7.7.77,4.77-3.92,7.71-7.6,4.78-20.73,5.55-29.57,7.85A20.09,20.09,0,0,1-1830.1-95.66Z" transform="translate(2041.34 366.17)"/><path class="cls-3" d="M-1737.65-217.87a700.9,700.9,0,0,0-12.22,91.81c-0.63,9.38,1.62,13.73-7.82,16.32-4.22,1.16-17.75,7.37-21.74,5.89-2.8-1-7.2-11.53-8.83-14.21-3.23-5.32-6.67-10.56-9.54-16.09-1.61.23-1.55,28-2.06,29.1-2.85,6-20.2,7.79-27.59,9.72,3-23.76,4.72-47.67,6.6-71.54,0.5-6.31-1.31-25.79,2.47-30.44,1.94-2.38,12.53-4.29,15.47-5.31l15.57-5.4c1,17.42,3.71,43.52,12.57,58.77,1.39-15.09,2.65-30.2,4-45.29,0.83-9.29-.29-11.82,8.79-14.93q12.18-4.18,24.34-8.41C-1738.56-213.4-1742-216.37-1737.65-217.87Zm7.08-8.11q-16.57,5.77-33.16,11.48c-6.1,2.09-9.08,2-11.24,7.16-3,7.14-1.92,21.15-2.56,28.57a271,271,0,0,1-4.9-36.61c-11.38,4-27.84,6.22-37.69,13-6.51,4.5-4.75,18.44-5.44,27.15-2.29,29.05-4.57,58.09-8.18,87,9.49-2.48,19-5,28.45-7.51,2-.54,9-1.1,10.49-2.85,2.2-2.63.74-15.78,0.92-18.46,3.43,5.72,10.25,12.85,10,19.86q12.25-3.28,24.48-6.6c2.41-.66,12.08-1.48,13.92-3.85,2.69-3.46.79-16.34,1.1-20.62A770,770,0,0,1-1730.57-226Z" transform="translate(2041.34 366.17)"/><path class="cls-2" d="M-1705.92-108.3c-31.83,3.26-51-19.17-47.15-50.23,3.54-28.64,20.81-57.17,45.55-72.36,11.54-7.09,26.15-11.86,39.83-10.15,6,0.75,25.85,8.07,24.65,16.87-0.47,3.47-9.75,10-12.43,12.73-4.47,4.51-9,9-13.51,13.43-16.1-24.31-43.72,13.15-48.68,28.79-2.79,8.81-4.74,22.66,5.26,27.5,11.89,5.75,27.58-3.78,33.17-14.09-9.89,2.44-19.72,4.84-29.49,7.74q1.5-7.35,3-14.7c0.57-2.86,1.09-14.23,3.21-16.3,3.32-3.24,15.38-3.8,20-4.94,15-3.73,30.12-7.24,45.19-10.79,5.35,40.28-28.5,82.41-68.58,86.52h0Z" transform="translate(2041.34 366.17)"/><path class="cls-3" d="M-1677.72-238.41c7.9-.81,28.72,1.39,30.32,12.45,0.85,5.84-16.39,19.05-21.3,23.93-20-26.08-51.42,23.4-53.45,41-1.64,14.21,4.93,24.48,20.25,23.16,13.12-1.13,22.24-10.45,27.59-21.74-1.84-2.26-27.62,6.73-30.89,7.7,1.22-6,1.17-17.87,4.54-22.84,3.1-4.56,13.72-5.45,19.75-6.95,13.72-3.42,27.51-6.59,41.27-9.85,2.78,23.38-11.22,48.53-28.18,63.66-18.12,16.15-55.46,27.44-74,6.13-16.1-18.54-8.91-48.5,1.12-68.19,12.34-24.23,35-45.61,63-48.48h0Zm-0.54-5.31c-31.53,3.21-57.26,28.4-69.57,56.47-10.51,24-15.74,62.42,12.08,77.26,25.36,13.52,59.51-.34,77.41-19.79,17.13-18.62,26.78-42.95,23.28-68.31-16.24,3.83-32.49,7.6-48.69,11.63-7.7,1.91-18.31,2.16-21.73,8.55-4.71,8.81-4.64,23.41-6.7,33.46C-1732.67-155.39-1692-227-1669.24-194c8.39-8.33,18.9-16.55,25.86-26,4-5.43,3.33-5.91-2-12.11C-1653.8-241.86-1665.71-245-1678.26-243.72Zm-33.68,99.38c8.77-2.6,17.51-5.23,26.43-7.28C-1691.57-145.28-1703.26-140.06-1711.94-144.34Z" transform="translate(2041.34 366.17)"/><path class="cls-2" d="M-1632.67-90.43c-14.18,1.46-28.92-7.33-26.49-23.11,2-12.82,15-21.93,27-24.19,13.72-2.58,29.27,7.45,28,22.72-1.19,14.26-15.49,23.24-28.51,24.58h0Zm21.79-56.78-36,1.27c1.77-30.61,3.13-61.25,4.93-91.86,0.27-4.61-1-14.54,1.22-18.51,1.7-3.06.13-.8,3.62-2.66s9.73-1.58,13.88-2.25l36.18-5.83c-3.82,19.68-7.19,39.44-10.63,59.19C-1599.43-197.77-1604.06-148.15-1610.89-147.21Z" transform="translate(2041.34 366.17)"/><path class="cls-3" d="M-1590.38-263.82c-5.36,27.84-9.85,55.84-14.9,83.74q-2.06,11.39-4.24,22.76c-1.53,8-2.17,7.47-9.86,7.74l-24.67.87c1-17.71,2.13-35.41,3-53.13,0.39-8.15.72-16.29,1.15-24.44,0.35-6.6-1.35-21.74,1.69-27.53,3.72-7.1,38.51-8.5,47.85-10C-1591.26-259.25-1595.27-263-1590.38-263.82Zm-38.26,128.23c13.25-1.36,25,11.78,20.8,24.6-3.83,11.72-16.8,18.25-28.57,18.07-12.06-.18-22.44-8.53-19.79-21.26,2.54-12.16,15.85-20.2,27.56-21.41h0Zm44.94-134.7-31.18,5-21.25,3.43c-9.44,1.53-7.26,5-7.91,14.83-2.28,34.58-3.66,69.24-5.66,103.84l32-1.13c2.09-.07,6,0.54,8-0.28,4.68-1.94.85,0.78,3.74-3.18,4.34-5.93,4.19-21.83,5.54-29.22C-1594.77-208.07-1589.68-239.26-1583.7-270.3Zm-45.48,129.4c-14.47,1.63-30.11,11.68-32.62,27-2.56,15.6,10.7,26.15,25.29,26.35,15.19,0.21,32-9.35,34.73-25.32C-1599.12-128.42-1613.94-142.46-1629.18-140.9Z" transform="translate(2041.34 366.17)"/><path class="cls-4" d="M-1811.28-158.83c4.1,2.53,8.45-3.62,3.92-6.55-4.07-2.62-8,4-3.92,6.55h0Z" transform="translate(2041.34 366.17)"/><path class="cls-4" d="M-1789.88-175.74c-6.17,0-4.84,10,1,8.33,4.3-1.21,3.74-8.31-1-8.33h0Z" transform="translate(2041.34 366.17)"/><path class="cls-4" d="M-1795.85-185.5c-7.25,1.74-.52,13.16,4.32,7.65,2.8-3.19.46-8.79-4.32-7.65h0Z" transform="translate(2041.34 366.17)"/><path class="cls-4" d="M-1781.07-149c3.74,0.28,5.18-5.31,1.57-6.62-4.43-1.61-6.19,6.3-1.57,6.62C-1775.61-148.55-1782.4-149.06-1781.07-149Z" transform="translate(2041.34 366.17)"/><path class="cls-4" d="M-1786.46-158.25c4.93,1.37,6.78-7,1.76-7.24-4.12-.16-6.53,5.87-1.76,7.24C-1785.05-157.86-1786.93-158.38-1786.46-158.25Z" transform="translate(2041.34 366.17)"/><path class="cls-4" d="M-1789.47-184.43a4.64,4.64,0,0,0,6,3c-0.53-2.84-1.64-6.14-1.64-9a4.69,4.69,0,0,0-4.39,6h0Z" transform="translate(2041.34 366.17)"/><path class="cls-4" d="M-1791.71-199.88c-5.62,2.49-1.68,11.7,4.18,9.09,4.24-1.89,1.77-11.74-4.18-9.09h0Z" transform="translate(2041.34 366.17)"/><path class="cls-4" d="M-1784.49-174.89a4.21,4.21,0,0,0,2.89,2.91c-0.49-2.27-1.49-5.18-1.49-7.57a4.54,4.54,0,0,0-1.4,4.66C-1784.08-173.48-1785-176.66-1784.49-174.89Z" transform="translate(2041.34 366.17)"/><path class="cls-4" d="M-1817.23-147.31c0.86,4.09,6.9,3,6.5-1C-1811.19-152.75-1818.15-151.65-1817.23-147.31Z" transform="translate(2041.34 366.17)"/><path class="cls-4" d="M-1809-190.75c-5.75.39-5.62,9.17,0.06,9.24,6.19,0.07,6.56-9.68-.06-9.24h0Z" transform="translate(2041.34 366.17)"/><path class="cls-4" d="M-1808.42-175.24c1.54,5.65,10.14,2.85,8.21-2.61-1.75-5-9.73-3-8.21,2.61h0Z" transform="translate(2041.34 366.17)"/><path class="cls-4" d="M-1819.64-161.23c-4.54,1-1.74,10.62,2.84,6.75,2.7-2.28,1.77-7.79-2.84-6.75h0Z" transform="translate(2041.34 366.17)"/><path class="cls-4" d="M-1817.9-170.7c1.54,6,10.89,2.23,7.8-3-2.28-3.85-9.11-2.1-7.8,3h0Z" transform="translate(2041.34 366.17)"/><path class="cls-4" d="M-1803.27-149.28c3.92-1.21,2.11-7.38-1.94-6.56-4.4.89-2.62,8,1.94,6.56h0Z" transform="translate(2041.34 366.17)"/><path class="cls-4" d="M-1795.5-167.27c-0.62-6-11.07-3.19-7.31,2.45,2.11,3.17,7.77,2,7.31-2.45h0Z" transform="translate(2041.34 366.17)"/><path class="cls-4" d="M-1798.07-195.44c-6.42-1.46-8,9-1.67,9.45,5.49,0.39,7.63-8.1,1.67-9.45h0Z" transform="translate(2041.34 366.17)"/><path class="cls-4" d="M-1891.62-144.29c-0.31.77-.63,1.54-0.95,2.31A4,4,0,0,0-1891.62-144.29Z" transform="translate(2041.34 366.17)"/><path class="cls-4" d="M-1906.89-125.45c0-4-6.37-3.07-5.21.86C-1911.18-121.45-1906.88-122.71-1906.89-125.45Z" transform="translate(2041.34 366.17)"/><path class="cls-4" d="M-1911-135.4c-0.47-3.55-6.83-3.83-4.34,1.74,0.88,2,4.88,2.41,4.34-1.74C-1911.44-138.39-1910.68-132.58-1911-135.4Z" transform="translate(2041.34 366.17)"/><path class="cls-4" d="M-1787-148.14c-0.56-4.26-7.15-3-6.27,1.08S-1786.53-144.24-1787-148.14Z" transform="translate(2041.34 366.17)"/><path class="cls-4" d="M-1887.52-135.77c-1.11-3.7-7.3-1.74-5.73,2.11,1.49,3.64,6.85,1.62,5.73-2.11h0Z" transform="translate(2041.34 366.17)"/><path class="cls-4" d="M-1912.58-111.35c-0.24-2.37-4.51-2.25-3.71.71C-1915.65-108.28-1912.37-109.31-1912.58-111.35Z" transform="translate(2041.34 366.17)"/><path class="cls-4" d="M-1947.21-133.74c-4.57-.42-4.23,7.58.24,6.13,2.72-.88,3.54-5.78-0.24-6.13h0Z" transform="translate(2041.34 366.17)"/><path class="cls-4" d="M-1943.58-118.44c6.22,1.11,1.06-4.93,1.08-5,0.08-.36-7.16,3.9-1.08,5h0Z" transform="translate(2041.34 366.17)"/><path class="cls-4" d="M-1930.82-115.21c0.85,2.36,3.91,1.39,4.31-.12C-1925.45-119.27-1932.24-119.17-1930.82-115.21Z" transform="translate(2041.34 366.17)"/><path class="cls-4" d="M-1884.66-162.36a4.1,4.1,0,0,0,7.68,1.28c2.93-5.4-4.83-9-7.68-1.28C-1884.63-162.17-1884.15-163.75-1884.66-162.36Z" transform="translate(2041.34 366.17)"/><path class="cls-4" d="M-1876.33-157.35c-5.32.55-3.45,9.82,2,7.16,3.4-1.67,2.36-7.6-2-7.16h0Z" transform="translate(2041.34 366.17)"/><path class="cls-4" d="M-1881.8-148.57c0.26-4.31-6.57-5.43-7.25-1.26-0.78,4.78,6.95,6.22,7.25,1.26h0Z" transform="translate(2041.34 366.17)"/><path class="cls-4" d="M-1850.42-187.94c3.59,4,9.67.09,8.2-4.73-1.73-5.67-10.85-3.92-9.38,2.52,1.53-5.29,1,.44,1.18,2.21C-1849.65-187.08-1850.47-188.51-1850.42-187.94Z" transform="translate(2041.34 366.17)"/><path class="cls-4" d="M-1877-127c2.85,0.69,5.13-3.41,2.39-4.72-4-1.89-6,3.83-2.39,4.72h0Z" transform="translate(2041.34 366.17)"/><path class="cls-4" d="M-1877.67-139.91c-0.76-4.13-7.36-2.75-6.23,1.5C-1882.87-134.56-1876.93-135.86-1877.67-139.91Z" transform="translate(2041.34 366.17)"/><path class="cls-4" d="M-1819.22-167.75l-1.36-2.56c-0.34,4.28,0-.12-0.53,6.65a4.48,4.48,0,0,0,1.88-4.08C-1819.34-168.71-1819-166.28-1819.22-167.75Z" transform="translate(2041.34 366.17)"/><path class="cls-4" d="M-1946-106.4c0.74-4.92-4.53-.41-3.65-0.28,0.11,0,3.17,3.62,3.65.28C-1945.6-109.2-1946.18-105.34-1946-106.4Z" transform="translate(2041.34 366.17)"/><path class="cls-4" d="M-1880.71-173.34c-0.51,1.45-1,2.88-1.52,4.34A4.58,4.58,0,0,0-1880.71-173.34Z" transform="translate(2041.34 366.17)"/><path class="cls-4" d="M-1860.58-145.12c3.92-1.1,2.39-6.48-1-6.86-4.84-.54-4.39,8.37,1,6.86h0Z" transform="translate(2041.34 366.17)"/><path class="cls-4" d="M-1847.75-171.74c-2.46.31-.41,6.88-0.25,8.52,6.25,0.85,6.56-9.33.25-8.52h0Z" transform="translate(2041.34 366.17)"/><path class="cls-4" d="M-1848.38-153.73c-0.62-5-9.22-3.41-7,2.07,1.45,3.54,7.48,2,7-2.07C-1848.58-155.31-1847.88-149.77-1848.38-153.73Z" transform="translate(2041.34 366.17)"/><path class="cls-4" d="M-1822-119.13c0.51-3.46-2.64-2.15-3,1.08a2.12,2.12,0,0,0,3-1.08C-1821.73-121.05-1822.15-118.27-1822-119.13Z" transform="translate(2041.34 366.17)"/><path class="cls-4" d="M-1840-145.51c3.62,2.72,7.09-2.55,4.3-5.53-3.16-3.38-7.84,2.88-4.3,5.53h0Z" transform="translate(2041.34 366.17)"/><path class="cls-4" d="M-1862.44-159c-1.1-5.68-10.87-2.09-7,2.94,2.28,3,7.88,1.53,7-2.94h0Z" transform="translate(2041.34 366.17)"/><path class="cls-4" d="M-1875-166.35c1.45,4.79,8.82,3.33,8.21-1.74-0.73-6-10.08-4.47-8.21,1.74h0Z" transform="translate(2041.34 366.17)"/><path class="cls-4" d="M-1867.87-143.4c0.43-4.26-6.36-5.5-6.46-.7-0.08,3.93,6,4.8,6.46.7h0Z" transform="translate(2041.34 366.17)"/><path class="cls-4" d="M-1870.49-180.54c1.61,5.57,10.13,3.38,9.13-2.18-1.14-6.37-11-4.28-9.13,2.18C-1870-178.76-1871.47-183.91-1870.49-180.54Z" transform="translate(2041.34 366.17)"/><path class="cls-4" d="M-1802.5-128.06c1.06-3.94-5.74-3.84-4.31.12C-1806-125.58-1802.9-126.55-1802.5-128.06Z" transform="translate(2041.34 366.17)"/><path class="cls-4" d="M-1806.55-138c0.36-4.48-6.86-3.79-5.45.56C-1811.14-134.77-1806.78-135.12-1806.55-138Z" transform="translate(2041.34 366.17)"/><path class="cls-4" d="M-1819.11-108.73q2.25-1.72-.48-2.55-2.1,1.82.48,2.55h0Z" transform="translate(2041.34 366.17)"/><path class="cls-4" d="M-1791.62-159c-1.88-3.7-7.8-1.59-6.76,2.64C-1797.09-151.18-1789.24-154.34-1791.62-159Z" transform="translate(2041.34 366.17)"/><path class="cls-4" d="M-1797.17-144.61c-1.47-2.69-6.48-1.26-5.48,2.4C-1801.46-137.84-1795.12-140.86-1797.17-144.61Z" transform="translate(2041.34 366.17)"/><path class="cls-4" d="M-1816.44-133.22c1-5.64-4.66-1.29-5.12-1.42-0.23-.06,4.05,7.42,5.12,1.42C-1815.77-136.92-1816.6-132.32-1816.44-133.22Z" transform="translate(2041.34 366.17)"/><path class="cls-4" d="M-1812.23-123.81c0.44-3.52-5.3-3.13-4,.4C-1815.33-121.15-1812.39-122.53-1812.23-123.81Z" transform="translate(2041.34 366.17)"/><path class="cls-4" d="M-1809.73-113.15c4.07-.2-0.42-3.25-0.41-3s-3,3.16.41,3h0Z" transform="translate(2041.34 366.17)"/><path class="cls-4" d="M-1861.79-176.9c-7.33.75-2.58,12.79,3.28,8,3.21-2.61.94-8.46-3.28-8h0Z" transform="translate(2041.34 366.17)"/><path class="cls-4" d="M-1822.48-146.41q-0.25,3.06-.5,6.13C-1819.79-140.84-1819.87-145.44-1822.48-146.41Z" transform="translate(2041.34 366.17)"/><path class="cls-4" d="M-1827.79-190.12a4.49,4.49,0,0,0,3.14,3.73,25.65,25.65,0,0,0-.48-9c-2,.66-3,3.5-2.66,5.26C-1827.43-188-1828.25-192.79-1827.79-190.12Z" transform="translate(2041.34 366.17)"/><path class="cls-4" d="M-1827.4-166.27l1,1.93a58.67,58.67,0,0,0,.49-6.22,4.13,4.13,0,0,0-1.49,4.3h0Z" transform="translate(2041.34 366.17)"/><path class="cls-4" d="M-1831.78-179.44c-2.89,4.15,3,9.7,6.1,5.94s-2.11-11.62-6.1-5.94h0Z" transform="translate(2041.34 366.17)"/><path class="cls-4" d="M-1836.1-138.34c0.69,4.42,7,2.5,5.35-2-1.2-3.25-5.78-.91-5.35,2C-1835.74-136-1836.27-139.44-1836.1-138.34Z" transform="translate(2041.34 366.17)"/><path class="cls-4" d="M-1837.26-185.47c1.58,7.64,12.92,2,8.64-3.7-2.91-3.86-9.67-1.29-8.64,3.7h0Z" transform="translate(2041.34 366.17)"/><path class="cls-4" d="M-1827.22-154l0.18-2.29c-5.79-1.77-6.15,7.77-.54,6.75A23.14,23.14,0,0,0-1827.22-154Z" transform="translate(2041.34 366.17)"/><path class="cls-4" d="M-1830.71-128.24c1.95-.55,1.46-1.3,1.63-3.21a2.31,2.31,0,0,0-1.63,3.21C-1830.26-128.37-1830.77-128.37-1830.71-128.24Z" transform="translate(2041.34 366.17)"/><path class="cls-4" d="M-1838.52-200.91c-7.92,1.85-1.33,14.27,4.42,8.91,3.67-3.42,1.09-10.2-4.42-8.91h0Z" transform="translate(2041.34 366.17)"/><path class="cls-4" d="M-1838.18-176.51c-6.95.89-2.53,12.36,3.26,7.82,3.32-2.6,1-8.36-3.26-7.82h0Z" transform="translate(2041.34 366.17)"/><path class="cls-4" d="M-1856.2-176.17c0.64,3.09,1.78-4.08,2-4.85a4.51,4.51,0,0,0-2,4.85h0Z" transform="translate(2041.34 366.17)"/><path class="cls-4" d="M-1860.64-161.45c1,3.33,2.27-4.63,2.45-5.29a4.09,4.09,0,0,0-2.45,5.29h0Z" transform="translate(2041.34 366.17)"/><path class="cls-4" d="M-1858.07-191.22c-6.77,2.25-.84,13.12,4.35,8.51,3.87-3.44,1-10.29-4.35-8.51h0Z" transform="translate(2041.34 366.17)"/><path class="cls-4" d="M-1846.73-180.82c1.33,6.4,11,3.55,8.95-2.37-1.83-5.25-10.14-3.42-8.95,2.37C-1846.24-178.45-1847.29-183.53-1846.73-180.82Z" transform="translate(2041.34 366.17)"/><path class="cls-4" d="M-1847.16-177.64a4.64,4.64,0,0,0-2.58-3.55c0.34,2.56.51,5.17,0.76,7.74a4.33,4.33,0,0,0,1.82-4.19C-1847.36-179.23-1846.94-175.77-1847.16-177.64Z" transform="translate(2041.34 366.17)"/><path class="cls-4" d="M-1863.49-200.83c-5.69,2.9-1.49,11.91,4.58,9,5.83-2.79,1.64-12.17-4.58-9h0Z" transform="translate(2041.34 366.17)"/><path class="cls-4" d="M-1834.18-158.65c4.56,1.29,6.93-4.74,3.35-7.25-4.75-3.32-9,5.65-3.35,7.25h0Z" transform="translate(2041.34 366.17)"/><path class="cls-4" d="M-1769.94-199.52c7-.72,4.29-11.34.28-7.32-0.45.45-.76,7.37-0.28,7.32C-1765.26-200-1770.08-199.5-1769.94-199.52Z" transform="translate(2041.34 366.17)"/><path class="cls-4" d="M-1751.51-208.54a5.43,5.43,0,0,0,5.33-6.37l-9.77,3.38a4.81,4.81,0,0,0,4.44,3C-1748.2-208.5-1753.72-208.58-1751.51-208.54Z" transform="translate(2041.34 366.17)"/><path class="cls-4" d="M-1718.34-212.93c3.74,0.15,6.13-3.07,5.59-6.63-0.62.54,5.73,2,6.65,1.59-6.82,4.86,1.78,13.72,6.44,7.94,3.4-4.22-1.28-9.9-6.13-8.08a5.36,5.36,0,0,0,2.78-5.58c-0.6,1.09,6,1.5,5.47,1.6,1,1.18-4,5.44.63,8.46a5.24,5.24,0,0,0,7.69-6.29c2.44,5.26,11.55,1.85,9.88-3.83-0.43.26,5.48,1.87,5.81,1.78,0.89,1.23-4.78,11.53,4.32,9.39,6.59-1.55,4.07-12.27-2.86-10a5.67,5.67,0,0,0,2.58-5.35c1-.28,3.74,1.73,5.33,1.4,1.18,1.59-4.33,5.46.75,8.58a5.26,5.26,0,0,0,7.72-6.09c1.19,2.18,5.12,3.11,7.18,1.62,3.18-2.3,1-1.71.12-5-0.94-3.58-13.2-10.6-13.06-8.45-3.81-3-35.08-4.08-33.28,4.39-3.52-1.91-10.68-.47-9.44,5-2.8-2.43-10.47,1.29-9.32,5.06-2.89-2.45-13.46,8.16-4.86,8.5h0Z" transform="translate(2041.34 366.17)"/><path class="cls-4" d="M-1738.31-214.41l0.66-3.46c-2.74,1-5.48,1.91-8.23,2.85,1.76,2.19,5.45,2.16,7.57.61C-1738.09-215.56-1740.55-212.77-1738.31-214.41Z" transform="translate(2041.34 366.17)"/><path class="cls-4" d="M-1761.32-204a5.26,5.26,0,0,0,5.15-7.49l-9.8,3.37a5.34,5.34,0,0,0,4.66,4.13h0Z" transform="translate(2041.34 366.17)"/><path class="cls-4" d="M-1817.56-176.79c4.82-.79,4.87-9.62-0.54-9-2.34.27-3.55,9.67,0.54,9h0Z" transform="translate(2041.34 366.17)"/><path class="cls-4" d="M-1808.68-198.78c1.56,5.58,10.9,4,9.8-1.78s-10.51-.81-9.8,1.78C-1808.12-196.76-1808.85-199.4-1808.68-198.78Z" transform="translate(2041.34 366.17)"/><path class="cls-4" d="M-1793.11-199.84c3.26-.67,4.69-4.5,3.42-7.36-3.09.42-6.67,2.32-9.62,3.34a5.21,5.21,0,0,0,6.2,4h0Z" transform="translate(2041.34 366.17)"/><path class="cls-4" d="M-1818.73-193.34q-0.24,2.75-.46,5.49a4.69,4.69,0,0,0,.46-5.49C-1818.87-191.66-1818.17-192.37-1818.73-193.34Z" transform="translate(2041.34 366.17)"/><path class="cls-4" d="M-1840.48-135.73c-3.76-5.51-3.62,3.7-3.39,3.48-0.52.49,6.36,0.87,3.39-3.48h0Z" transform="translate(2041.34 366.17)"/><path class="cls-4" d="M-1720.47-146q-0.42-1-.81-2-0.93,2.68,1.9,3.9a8.51,8.51,0,0,1-1.1-1.94C-1720.76-146.61-1720.44-145.92-1720.47-146Z" transform="translate(2041.34 366.17)"/><path class="cls-4" d="M-1801.64-118.63c1.52,4.39,3-1.48,2.64-1.33,0.69-.31-3.94-2.44-2.64,1.33h0Z" transform="translate(2041.34 366.17)"/><path class="cls-4" d="M-1696.5-122.4c1,3.24,4.18-2.16.92-1.61l-0.92,1.61h0Z" transform="translate(2041.34 366.17)"/><path class="cls-4" d="M-1750.89-145c0.11,1.54.29,3.1,0.53,4.65A3,3,0,0,0-1750.89-145Z" transform="translate(2041.34 366.17)"/><path class="cls-4" d="M-1639.06-126.35q1.44,1.56,2-.61c-0.29-1.33-2.68-1-2,.61h0Z" transform="translate(2041.34 366.17)"/><path class="cls-4" d="M-1692.29-136.13c0.86,2.26,3.8.88,4-.41C-1687.88-140.06-1693.63-139.67-1692.29-136.13Z" transform="translate(2041.34 366.17)"/><path class="cls-4" d="M-1687.11-126.82c1.45,3.77,3.27-1.82,2.53-1.49s-3.72-1.61-2.53,1.49h0Z" transform="translate(2041.34 366.17)"/><path class="cls-4" d="M-1612.09-163.72a3,3,0,0,0,3.35,2.26q0.54-2.83,1.07-5.66a3.09,3.09,0,0,0-4.42,3.41C-1611.64-162-1612.86-166.82-1612.09-163.72Z" transform="translate(2041.34 366.17)"/><path class="cls-4" d="M-1871-122.22l-2.13.59q1.71,0.14,3.41.44,0.32-.85-1.28-1h0Z" transform="translate(2041.34 366.17)"/><path class="cls-4" d="M-1964-132.77c6.11,4.58,7.17-10,.5-5.59-1.39.91-2.07,4.4-.5,5.59C-1960.44-130.13-1964.27-133-1964-132.77Z" transform="translate(2041.34 366.17)"/><path class="cls-4" d="M-1950.12-116.79c-0.4-2.93-5.63-2.56-4.77.92C-1954.14-112.84-1949.72-113.9-1950.12-116.79Z" transform="translate(2041.34 366.17)"/><path class="cls-4" d="M-1846.93-147c-11.88-1.22,3.2,8.91,1.86,5.64,1.47-1.72.7-5.38-1.86-5.64h0Z" transform="translate(2041.34 366.17)"/><path class="cls-4" d="M-1860-138.56l6-1.11c-0.77-3.61-6.7-2.73-6,1.11C-1858.2-138.9-1860.73-142.54-1860-138.56Z" transform="translate(2041.34 366.17)"/><path class="cls-4" d="M-1614.51-259.93l-10,1.62q2.9-.09.87,2.8-3.86,0-1.75-2.66c-5,1.05-10.72.36-12.81,4.36-1.39,2.65-2.56,14.76,2,14a6,6,0,0,0-1.3,4.25,9.26,9.26,0,0,0-1.81-1.07c-0.25,4.27-3.12,19.58,2.38,19.69,7.35,0.14,6.07-11.75-1.21-10.12,0.52,0.71,2-5.52,2.08-5.08-0.5.44,5.37,1.48,5,1.54,1.16,2.66-4.12,5.15.87,8.4a5.26,5.26,0,0,0,7.81-6c2.76,4.83,11.08,1.58,9.87-3.93-0.73,1.28,6.13,1.43,5.68,1.58-0.3-.17-3.34,14.6,6.07,8.83,4.93-3,1.42-11-4.31-9.55a5.53,5.53,0,0,0,2.27-5.32c-0.53.35,5.5,1.58,5.14,1.64,0.72,2.95-4.37,5,.57,8.4,0.79-4.58,7.07-34,4.46-34.21,1.31-3.52,1.75-.2,2.27-3l-24.13,3.89h0Z" transform="translate(2041.34 366.17)"/><path class="cls-4" d="M-1741.39-123.63a1.68,1.68,0,0,0-2.63-.9,13.49,13.49,0,0,1,1.87,2.46l0.76-1.56h0Z" transform="translate(2041.34 366.17)"/><path class="cls-4" d="M-1608.3-201.63c1.21,5.77,9.28,4.09,7.27-2.53-1.33-4.37-8.41-3-7.27,2.53C-1608-200.36-1608.83-204.2-1608.3-201.63Z" transform="translate(2041.34 366.17)"/><path class="cls-4" d="M-1868-187.17c5.3-3.08.45-12.4-5-8.86-4.77,3.1-.86,12.27,5,8.86h0Z" transform="translate(2041.34 366.17)"/><path class="cls-4" d="M-1876.61-172.78c5.32,1.1,8.13-7,2.68-8.69s-8.25,7.52-2.68,8.69C-1871.68-171.76-1878-173.06-1876.61-172.78Z" transform="translate(2041.34 366.17)"/><path class="cls-4" d="M-1900.62-182.32c-8,1.92.31,14.64,5.33,7,2.17-3.31-2.47-7.69-5.33-7h0Z" transform="translate(2041.34 366.17)"/><path class="cls-4" d="M-1962.08-163.79c-3.08.39-2.58,7.57-.41,8.44,5.67,2.26,7.69-9.37.41-8.44h0Z" transform="translate(2041.34 366.17)"/><path class="cls-4" d="M-1872.88-196.51a5.27,5.27,0,0,0,2.59-6.33c2.59,5,11,1.45,9.87-3.93-0.58,1.23,5.33,1.68,5.68,1.58,0.34,0.31-3.73,14.42,5.89,8.89,5.18-3,1.65-10.71-4.12-9.61a5.53,5.53,0,0,0,2.29-5.1c-0.6.52,5.56,1.35,5.12,1.42,1.05,2.06-4,4.66.51,8.14,3.88,3,9-.43,8.32-5.26,0.18-.1,4.86,2.29,6.65,1.59-6,4.26.8,13.31,4.87,9.19,1.61-1.63-.7-10.82-4.56-9.33,3.12-2.07,2.7-6.37,1.5-9.56,0,2-2.46-1-4.93-.58,3-3.14-.2-4.45,4.31-3.26a15.44,15.44,0,0,0-.79-4.86c-4,1.26-23,5.34-22.43,9.3-3.49-3.35-10.45-.24-9.43,5-2.08-2-5.46-.75-4-3.22-4.87,1.49-5.83,11.3-7.34,16C-1870.85-197.45-1872.34-198.17-1872.88-196.51Z" transform="translate(2041.34 366.17)"/><path class="cls-4" d="M-1932.69-186.05c1.69,6.08,10.93,3.55,9.81-2.57-0.54.08-10.31,0.78-9.81,2.57h0Z" transform="translate(2041.34 366.17)"/><path class="cls-4" d="M-1908.92-186.22c1,4.45,7.61,5.57,9.42,1-2.22,0-6.74-3.17-9.31-3.56l-0.1,2.54C-1908.37-183.72-1909.11-187.11-1908.92-186.22Z" transform="translate(2041.34 366.17)"/><path class="cls-4" d="M-1917.11-187.11l3.06-2.1a64.76,64.76,0,0,0-8.08.51,4.9,4.9,0,0,0,5,1.59h0Z" transform="translate(2041.34 366.17)"/><path class="cls-4" d="M-1883.22-125.5c-0.65-4.74-4.57-.12-4.8-0.11-1.64.06,5.7,6.67,4.8,0.11C-1883.64-128.6-1883.07-124.39-1883.22-125.5Z" transform="translate(2041.34 366.17)"/><path class="cls-4" d="M-1908.8-177.69c-5.89-.06-6.23,9.16-0.34,9.33s6.34-9.28.34-9.33h0Z" transform="translate(2041.34 366.17)"/><path class="cls-4" d="M-1898.48-143.5c0.61,2.66,2.31-3.71,2.52-4.24a3.44,3.44,0,0,0-2.52,4.24C-1898.38-143.08-1899-145.67-1898.48-143.5Z" transform="translate(2041.34 366.17)"/><path class="cls-4" d="M-1915.72-187.15c-7.2,3.21,1.34,14,6,7.66,2.93-4-1.39-9.72-6-7.66h0Z" transform="translate(2041.34 366.17)"/><path class="cls-4" d="M-1905.08-136.23c3.74,0.28,5.18-5.31,1.57-6.62-4.43-1.61-6.2,6.29-1.57,6.62C-1899.61-135.82-1906.4-136.33-1905.08-136.23Z" transform="translate(2041.34 366.17)"/><path class="cls-4" d="M-1912.81-154.68c4.57-1.07,3.52-8.07-1-8.34-5.81-.34-5.2,9.77,1,8.34h0Z" transform="translate(2041.34 366.17)"/><path class="cls-4" d="M-1915.63-146.28c-1.88-3.7-7.8-1.58-6.76,2.64C-1921.1-138.45-1913.24-141.61-1915.63-146.28Z" transform="translate(2041.34 366.17)"/><path class="cls-4" d="M-1910.47-145.52c4.92,1.38,6.79-7,1.76-7.23-4.12-.16-6.54,5.87-1.76,7.23h0Z" transform="translate(2041.34 366.17)"/><path class="cls-4" d="M-1933-178c-4.71.32-7.28,9.07,1,6.54,4.46-1.36,5.94-7-1-6.54h0Z" transform="translate(2041.34 366.17)"/><path class="cls-4" d="M-1960.1-125.61c0.68,4.42,7,2.5,5.35-2-1.2-3.25-5.79-.91-5.35,2h0Z" transform="translate(2041.34 366.17)"/><path class="cls-4" d="M-1933.9-186.47c-2.39.59-8.87,1-8.44,4.33a4.69,4.69,0,0,0,4.09,4.1c4.37,0.71,8-5,4.35-8.43C-1936.75-185.76-1933.74-186.32-1933.9-186.47Z" transform="translate(2041.34 366.17)"/><path class="cls-4" d="M-1952.82-168.41c-4.09.74-4.6,6.3-1.35,8.35,6.39,4,10-10,1.35-8.35h0Z" transform="translate(2041.34 366.17)"/><path class="cls-4" d="M-1928.42-139.47a28,28,0,0,1,3.33-.15c0.11-5.27-8-4.4-6.67.68a27.26,27.26,0,0,1,3.35-.53h0Z" transform="translate(2041.34 366.17)"/><path class="cls-4" d="M-1960.81-149.32a3.92,3.92,0,0,0,7.81-.45c0.2-5.42-8.63-5.23-7.81.45h0Z" transform="translate(2041.34 366.17)"/><path class="cls-4" d="M-1946.79-167.52c2.32,9.48,7.7-1.75,8.9-2.19-1.09-5.63-10.33-3.71-8.9,2.19C-1946.4-165.95-1948-172.46-1946.79-167.52Z" transform="translate(2041.34 366.17)"/><path class="cls-4" d="M-1951.28-153.43a4,4,0,0,0,7.91-.19c1.27-6.14-9.41-6.21-7.91.19h0Z" transform="translate(2041.34 366.17)"/><path class="cls-4" d="M-1955.82-139.67c0.79,4.57,7.61,3.61,7.15-.95S-1956.66-144.5-1955.82-139.67Z" transform="translate(2041.34 366.17)"/><path class="cls-4" d="M-1941.81-158l2.2,2.85c-0.11-2.5-.22-5-0.32-7.49a3.89,3.89,0,0,0-1.88,4.64h0Z" transform="translate(2041.34 366.17)"/><path class="cls-4" d="M-1922.5-173.15c5.94-.82,4.89-10-1.26-9.35-5.93.64-5.12,10.24,1.26,9.35h0Z" transform="translate(2041.34 366.17)"/><path class="cls-4" d="M-1897.58-168.07a27.55,27.55,0,0,0,1.74-4.37c-2.63.65-3.87,4-2.83,6.24a16.49,16.49,0,0,0,1.09-1.87h0Z" transform="translate(2041.34 366.17)"/><path class="cls-4" d="M-1940.18-110.57c0.86,2.26,3.79.88,4-.41C-1935.78-114.5-1941.52-114.11-1940.18-110.57Z" transform="translate(2041.34 366.17)"/><path class="cls-4" d="M-1921.51-170.89c1.66,2.05-2,11.26,5.33,6.49,9.4-6.11-7.6-9.29-5.33-6.49h0Z" transform="translate(2041.34 366.17)"/><path class="cls-4" d="M-1961.26-172.63c1.6,7.64,12.92,2,8.64-3.71-2.92-3.86-9.67-1.28-8.64,3.71C-1961-171.35-1962.61-179.18-1961.26-172.63Z" transform="translate(2041.34 366.17)"/><path class="cls-4" d="M-1921.45-119.85c0.89,2.58,4.73,1.72,4.79-.71C-1916.56-124.47-1922.8-123.69-1921.45-119.85Z" transform="translate(2041.34 366.17)"/><path class="cls-4" d="M-1897.12-130.34q-0.4-2.66-1.62,2.82a2.67,2.67,0,0,0,1.62-2.82C-1897.15-130.55-1897-128.94-1897.12-130.34Z" transform="translate(2041.34 366.17)"/><path class="cls-4" d="M-1906.91-115.06c1.64,4.8,4.15-1.42,4.07-1.4s-5.83-3.78-4.07,1.4h0Z" transform="translate(2041.34 366.17)"/><path class="cls-4" d="M-1943.64-148.49c-4.83,1.1-2.29,10,2.84,6.75,3.26-2.07,1.36-7.7-2.84-6.75h0Z" transform="translate(2041.34 366.17)"/><path class="cls-4" d="M-1937.58-154.74a4.36,4.36,0,0,0,3.55-2.1c-0.37.15-7.77,2.29-3.55,2.1h0Z" transform="translate(2041.34 366.17)"/><path class="cls-4" d="M-1839.19-160c-2-3.39-8.26-1.43-7,3.1C-1844.72-151.34-1836.17-155-1839.19-160Z" transform="translate(2041.34 366.17)"/><path class="cls-4" d="M-1936.8-148.22c1.39,4.45,8.75,2.46,7.18-2.23s-8.75-2.84-7.18,2.23h0Z" transform="translate(2041.34 366.17)"/><path class="cls-4" d="M-1928.85-159.3a4.44,4.44,0,0,0,4.95-3.6,22.74,22.74,0,0,1-4.95,3.6C-1928.29-159.22-1928.77-159.35-1928.85-159.3Z" transform="translate(2041.34 366.17)"/><path class="cls-4" d="M-1941.24-134.57a3,3,0,0,0,2.56,2.54c0-3.43-1-4.55,2.72-5.76-2.23-1.63-5.89.35-5.28,3.22C-1940.91-133-1941.94-137.9-1941.24-134.57Z" transform="translate(2041.34 366.17)"/><path class="cls-4" d="M-1900.33-154.61c-1.05-.14-2.11-0.2-3.17-0.24-1.34,5,6.63,6.81,7.55,1.54a16.44,16.44,0,0,0-4.39-1.3h0Z" transform="translate(2041.34 366.17)"/><path class="cls-4" d="M-1927.37-153.19c1,4.15,6.78,3.76,7.71-.08,1.45-6-9.2-6.31-7.71.08C-1926.25-148.42-1927.93-155.59-1927.37-153.19Z" transform="translate(2041.34 366.17)"/><path class="cls-4" d="M-1908.39-162.16c1.35,4.62,4.76,2.85,6.52.23,4.88-7.27-8.63-7.47-6.52-.23h0Z" transform="translate(2041.34 366.17)"/><path class="cls-4" d="M-1737.21-139.84c-6.63-1.61-.68,6.11-0.39,4.56,0-.24,4.63-3.53.39-4.56h0Z" transform="translate(2041.34 366.17)"/><path class="cls-4" d="M-1725.84-142.85c-0.68-2.89-6.05-2.16-4.93,1.48C-1729.82-138.25-1725.11-139.74-1725.84-142.85Z" transform="translate(2041.34 366.17)"/><path class="cls-4" d="M-1729.94-152.16c-0.52-3.95-7.13-3.18-6,1.16C-1735.06-147.35-1729.42-148.3-1729.94-152.16Z" transform="translate(2041.34 366.17)"/><path class="cls-4" d="M-1728.84-117.24c1.89,0.08,1.18-2.78-.44-2.12q-1.16,1.58.44,2.12C-1726.85-117.16-1729.05-117.25-1728.84-117.24Z" transform="translate(2041.34 366.17)"/><path class="cls-4" d="M-1752.42-117.31c3.34-.34-0.4-2.9-0.39-2.77s-3.06,3.13.39,2.77h0Z" transform="translate(2041.34 366.17)"/><path class="cls-4" d="M-1747-135.06l-1.92.41c3.17,9.07,4.15,0,1.92-.41h0Z" transform="translate(2041.34 366.17)"/><path class="cls-4" d="M-1673.17-157.34l-1.62-1.27c-0.88,1.81-1.8,3.6-2.81,5.34,2.45,1.82,5.79-1.57,4.42-4.07h0Z" transform="translate(2041.34 366.17)"/><path class="cls-4" d="M-1739.67-146.95c0.06-4.48-7-3.49-5.65.79C-1744.37-143.2-1739.72-143.78-1739.67-146.95Z" transform="translate(2041.34 366.17)"/><path class="cls-4" d="M-1731.87-126.77c2.24-3.07-4.62-4.31-3.18-.43A1.83,1.83,0,0,0-1731.87-126.77Z" transform="translate(2041.34 366.17)"/><path class="cls-4" d="M-1678.61-140.89c1.05-3.94-5.74-3.84-4.31.12C-1682.07-138.42-1679-139.38-1678.61-140.89Z" transform="translate(2041.34 366.17)"/><path class="cls-4" d="M-1709.73-126c4.95,0.19-.52-4.1-0.55-3.19,0,0.58-2.42,3.06.55,3.19h0Z" transform="translate(2041.34 366.17)"/><path class="cls-4" d="M-1698.12-131.86c0.73-4.93-4.52-.41-3.65-0.28,0.12,0,3.15,3.62,3.65.28h0Z" transform="translate(2041.34 366.17)"/><path class="cls-4" d="M-1721.78-132.78c-0.26-2.51-4.92-2.34-3.92.84C-1724.92-129.49-1721.57-130.71-1721.78-132.78Z" transform="translate(2041.34 366.17)"/><path class="cls-4" d="M-1676.22-130.21c3.75,0,.54-2.75.63-3.42s-5.4,3.45-.63,3.42h0Z" transform="translate(2041.34 366.17)"/><path class="cls-4" d="M-1722.37-153.22a63.16,63.16,0,0,1,0-6.34c-5.54-1.78-5.57,7.89,0,6.34C-1722.45-154-1722.86-153.08-1722.37-153.22Z" transform="translate(2041.34 366.17)"/><path class="cls-4" d="M-1719.12-121.59c4-.2-0.52-3.16-0.5-2.76s-2.48,2.92.5,2.76h0Z" transform="translate(2041.34 366.17)"/><path class="cls-4" d="M-1712.1-136.37c1-2.78-1.4-2.24-2.6-2.7-3.76-1.44.62,8.32,2.6,2.7C-1711.63-137.71-1712.59-135-1712.1-136.37Z" transform="translate(2041.34 366.17)"/><path class="cls-4" d="M-1743.86-156.14c0.43-4.25-6.36-5.5-6.46-.7-0.08,3.93,6,4.8,6.46.7C-1743.57-159-1744.16-153.16-1743.86-156.14Z" transform="translate(2041.34 366.17)"/><path class="cls-4" d="M-1742.19-208.32l2,3.57q0.84-4.62,1.75-9.23a5.31,5.31,0,0,0-3.79,5.66C-1742-206.85-1742.5-210.95-1742.19-208.32Z" transform="translate(2041.34 366.17)"/><path class="cls-4" d="M-1722-209c-8.36-1.28-6.42,12.48.83,9.75,4.43-1.66,4.1-9-.83-9.75h0Z" transform="translate(2041.34 366.17)"/><path class="cls-4" d="M-1732.3-188.89c1.13,5.48,9.75,4.1,9-1.47-0.73-5.79-10.3-4.62-9,1.47h0Z" transform="translate(2041.34 366.17)"/><path class="cls-4" d="M-1745.2-209.19c-6.72-1.84-8.8,9.09-1.87,10,5.74,0.73,7.46-8.45,1.87-10C-1749.31-210.32-1741.5-208.19-1745.2-209.19Z" transform="translate(2041.34 366.17)"/><path class="cls-4" d="M-1714.52-213.65c-7.91,1.85-1.33,14.27,4.42,8.91,3.68-3.42,1.09-10.2-4.42-8.91h0Z" transform="translate(2041.34 366.17)"/><path class="cls-4" d="M-1713.36-198.2c1.57,7.64,12.92,2,8.64-3.7-2.91-3.86-9.67-1.29-8.64,3.7h0Z" transform="translate(2041.34 366.17)"/><path class="cls-4" d="M-1755.42-192.9c-3,4,2.17,9.74,6.35,6.53,5.48-4.21-2.18-12.05-6.35-6.53h0Z" transform="translate(2041.34 366.17)"/><path class="cls-4" d="M-1722.84-193.54c1.33,6.4,11,3.55,8.95-2.37-1.83-5.25-10.14-3.42-8.95,2.37h0Z" transform="translate(2041.34 366.17)"/><path class="cls-4" d="M-1759.21-138.23c-0.43-3.1-5.83-2.67-5,.94C-1763.44-134.08-1758.8-135.23-1759.21-138.23Z" transform="translate(2041.34 366.17)"/><path class="cls-4" d="M-1681.44-217.91c-6.34,1.63-3.07,12.71,3.57,9.6,5.48-2.56,2.37-11.13-3.57-9.6h0Z" transform="translate(2041.34 366.17)"/><path class="cls-4" d="M-1755.22-127.83c0.57-3.14-4.45-3.09-3.91-.14A2,2,0,0,0-1755.22-127.83Z" transform="translate(2041.34 366.17)"/><path class="cls-4" d="M-1761.92-113q1.91-1.47-.43-2.12a1.08,1.08,0,0,0,.43,2.12C-1760.46-113.24-1762.49-112.88-1761.92-113Z" transform="translate(2041.34 366.17)"/><path class="cls-4" d="M-1764.11-199.69c-6.49-2.27-9,8.61-2.15,9.5,5.34,0.7,7.18-7.73,2.15-9.5h0Z" transform="translate(2041.34 366.17)"/><path class="cls-4" d="M-1765.54-184.08c1.35,4.57,7.74,3.83,8.73-.5,1.58-6.9-11-7.21-8.73.5h0Z" transform="translate(2041.34 366.17)"/><path class="cls-4" d="M-1770.05-170.1c1.49,5.23,9.61,2.55,7.58-2.67-1.78-4.57-9-2.23-7.58,2.67C-1769.48-168.09-1770.83-172.81-1770.05-170.1Z" transform="translate(2041.34 366.17)"/><path class="cls-4" d="M-1756.19-204.61c-8.42.12-4.11,13.36,2.4,9.39,4-2.45,2.68-9.46-2.4-9.39h0Z" transform="translate(2041.34 366.17)"/><path class="cls-4" d="M-1756.4-148.83q0-3.2.28-6.39c-5-.76-4.69,6.85-0.28,6.39C-1756.41-150.82-1756.77-148.79-1756.4-148.83Z" transform="translate(2041.34 366.17)"/><path class="cls-4" d="M-1964.24-111.12c0.68,2.36,3.75,1.6,4.24.21C-1958.7-114.63-1965.36-115-1964.24-111.12Z" transform="translate(2041.34 366.17)"/><path class="cls-4" d="M-1964.49-123c-0.92-1.37-.75,2.9-0.66,3.77a2.64,2.64,0,0,0,.66-3.77h0Z" transform="translate(2041.34 366.17)"/><path class="cls-4" d="M-1964.23-148.4a45.88,45.88,0,0,0-.2,6.4A3.87,3.87,0,0,0-1964.23-148.4Z" transform="translate(2041.34 366.17)"/><path class="cls-4" d="M-1922.64-105.46c3.05-4.34-8.71-.09,0,0h0Z" transform="translate(2041.34 366.17)"/><path class="cls-4" d="M-1958.18-103.75c-4.77,1.69,2.59,2.26,2.23,2.27q0.4-2.54-2.23-2.27h0Z" transform="translate(2041.34 366.17)"/><path class="cls-4" d="M-1886.18-158.2q-0.48,1.29-1,2.57l1-2.57C-1886.22-158.09-1886.21-157.25-1886.18-158.2Z" transform="translate(2041.34 366.17)"/><path class="cls-4" d="M-1875.58-188.32q-1,2.81-1.89,5.62a5,5,0,0,0,1.89-5.62C-1875.77-187.75-1875-186.27-1875.58-188.32Z" transform="translate(2041.34 366.17)"/><path class="cls-4" d="M-1963.47-172.88q-0.13,4-.25,8C-1961-166.5-1961-171.08-1963.47-172.88Z" transform="translate(2041.34 366.17)"/><path class="cls-4" d="M-1951.06-181.06c-3.71,5.27,4.21,10.28,7.94,5.88,6-7.08-4.25-7.3-7.94-5.88C-1951.71-180.14-1949.36-181.72-1951.06-181.06Z" transform="translate(2041.34 366.17)"/><path class="cls-4" d="M-1603.32-192.09c0.3,1.5,1.19-5.73.81-3.55l-0.81,3.55h0Z" transform="translate(2041.34 366.17)"/><path class="cls-4" d="M-1788.58-124.08q-1.48-3-3.68-.55l1.58,2.6a2,2,0,0,0,2.1-2C-1788.78-126-1788.45-122.85-1788.58-124.08Z" transform="translate(2041.34 366.17)"/><path class="cls-4" d="M-1895.58-119c-3-.36-1.11.93,0,0C-1896.12-119.09-1895.73-118.9-1895.58-119Z" transform="translate(2041.34 366.17)"/><path class="cls-4" d="M-1598-221.71c-6.53-1-7.64,8.57-1.66,9.93,0.19-1.05,1.76-9.91,1.66-9.93C-1602.21-222.35-1598-221.71-1598-221.71Z" transform="translate(2041.34 366.17)"/><path class="cls-4" d="M-1607.71-178a3.1,3.1,0,0,0,1.6,2.48q0.63-3.42,1.24-6.84a3.72,3.72,0,0,0-2.84,4.36C-1607.55-177.2-1608.09-179.89-1607.71-178Z" transform="translate(2041.34 366.17)"/><path class="cls-4" d="M-1792.65-133.29c0.16-6.34-5.52-.06-4.72,0,0.38,0,4.55,6,4.72,0C-1792.57-136.74-1792.7-131.51-1792.65-133.29Z" transform="translate(2041.34 366.17)"/><path class="cls-4" d="M-1869.33-133.42c1.69,5.25,3.85-1.5,4.36-3.3-2.19-1.29-5.2.71-4.36,3.3h0Z" transform="translate(2041.34 366.17)"/><path class="cls-4" d="M-1837.23-126.44a2.4,2.4,0,0,0-2.88.79l2.88-.79C-1838.27-126.81-1838.06-126.21-1837.23-126.44Z" transform="translate(2041.34 366.17)"/><path class="cls-4" d="M-1773.17-154.1c4.21,2.95,8.25-5.23,2.92-6.09-3.22-.52-5.93,4-2.92,6.09C-1769.37-151.44-1773.63-154.42-1773.17-154.1Z" transform="translate(2041.34 366.17)"/><path class="cls-4" d="M-1615.59-226.29c-5.7,2.9-1.49,11.91,4.58,9,5.83-2.79,1.64-12.17-4.58-9h0Z" transform="translate(2041.34 366.17)"/><path class="cls-4" d="M-1621.3-221.92c-6.72-1.84-8.81,9.09-1.87,10,5.74,0.73,7.46-8.45,1.87-10h0Z" transform="translate(2041.34 366.17)"/><path class="cls-4" d="M-1633.59-217.31c-7.61,1.81-1.46,13.91,4.24,8.72,3.67-3.34,1.2-10-4.24-8.72h0Z" transform="translate(2041.34 366.17)"/><path class="cls-4" d="M-1631.42-205.64c-3,4,2.17,9.74,6.35,6.53,5.48-4.21-2.17-12.05-6.35-6.53h0Z" transform="translate(2041.34 366.17)"/><path class="cls-4" d="M-1610.17-216.68c-7.65,2.55.31,14.2,5.48,7.57,3-3.81-1-9.05-5.48-7.57h0Z" transform="translate(2041.34 366.17)"/><path class="cls-4" d="M-1664.68-136.81c-0.24-2.37-4.51-2.25-3.71.71C-1667.75-133.74-1664.47-134.77-1664.68-136.81Z" transform="translate(2041.34 366.17)"/><path class="cls-4" d="M-1607.39-184.32c4-1.13,3.22-7.74-.83-8.13-6.31-.61-5.56,10,0.83,8.13h0Z" transform="translate(2041.34 366.17)"/><path class="cls-4" d="M-1628.41-130c3.34-.34-0.4-2.9-0.39-2.77s-3.07,3.13.39,2.77h0Z" transform="translate(2041.34 366.17)"/><path class="cls-4" d="M-1814.51-198.63c-8.06,2.76-.82,10.73,4.08,7.08s1.12-8.87-4.08-7.08h0Z" transform="translate(2041.34 366.17)"/><path class="cls-4" d="M-1641.13-200.58c-0.22,4.47,4.88,11.13,7.95,4.23,2.11-4.73-5-9.49-7.95-4.23C-1641.18-199.43-1640.1-202.4-1641.13-200.58Z" transform="translate(2041.34 366.17)"/><path class="cls-4" d="M-1787.11-204.81c-0.23-2.53.86-3.59-2.27-2.5l2.27,2.5S-1788.15-205.36-1787.11-204.81Z" transform="translate(2041.34 366.17)"/><path class="cls-4" d="M-1773-169.5q-0.27,3.07-.54,6.14,3-2.84.54-6.14C-1773-169.16-1771.2-167.83-1773-169.5Z" transform="translate(2041.34 366.17)"/><path class="cls-4" d="M-1668.76-146c0.1-3.92-6.14-3.14-4.79.71C-1672.65-142.73-1668.82-143.58-1668.76-146Z" transform="translate(2041.34 366.17)"/><path class="cls-4" d="M-1771.35-176.35c4.74,0.32,6.53-5.62,2.91-8.34-5.12-3.85-3.93,8.28-2.91,8.34C-1764.75-175.91-1771.69-176.37-1771.35-176.35Z" transform="translate(2041.34 366.17)"/><path class="cls-4" d="M-1640.22-212.41c-0.54-.21-0.79,9.39-0.79,9.4,4.44-.86,5.29-7.82.79-9.4h0Z" transform="translate(2041.34 366.17)"/><path class="cls-4" d="M-1728.46-208.4c3.64,0.66,7.14-3.34,5.93-6.86a74.64,74.64,0,0,0-5.93,6.86C-1724.72-207.73-1727.63-209.45-1728.46-208.4Z" transform="translate(2041.34 366.17)"/><path class="cls-4" d="M-1782.89-138.18c0-4-6.37-3.07-5.21.86C-1787.17-134.19-1782.87-135.44-1782.89-138.18Z" transform="translate(2041.34 366.17)"/><path class="cls-4" d="M-1736.86-180.64c4.25-.54,4.93-6.56,1.44-8.57-6-3.46-9.37,9.58-1.44,8.57h0Z" transform="translate(2041.34 366.17)"/><path class="cls-4" d="M-1738.43-171.73c-1.1-5.68-10.87-2.09-7,2.94,2.28,3,7.88,1.53,7-2.94h0Z" transform="translate(2041.34 366.17)"/><path class="cls-4" d="M-1755.64-165.53l0.69,1.65q0.5-2.91,1.16-5.78a3.7,3.7,0,0,0-1.86,4.13h0Z" transform="translate(2041.34 366.17)"/><path class="cls-4" d="M-1743.67-183.29q-1.53,3.53-2.73,7.19c3.47-.35,4.65-4.63,2.73-7.19C-1744-182.58-1741.87-180.88-1743.67-183.29Z" transform="translate(2041.34 366.17)"/><path class="cls-4" d="M-1737.49-195.59c-0.64,1.84-2.15,3.69-3.05,5.46a4.73,4.73,0,0,0,3.05-5.46S-1737.13-193.37-1737.49-195.59Z" transform="translate(2041.34 366.17)"/><path class="cls-4" d="M-1764.55-163.85c-2.45,3.41,2.59,7.74,5.69,4.79,3.63-3.47-2.79-8.87-5.69-4.79h0Z" transform="translate(2041.34 366.17)"/><path class="cls-4" d="M-1621.44-159c0.95,2.95,5.6,2.38,5.65-.8C-1615.72-164.26-1622.82-163.27-1621.44-159Z" transform="translate(2041.34 366.17)"/><path class="cls-4" d="M-1741.34-199.47c-4.23-.74-6.87,4.66-4.43,7.76a84.46,84.46,0,0,1,4.43-7.76C-1741.43-199.48-1742.52-197.61-1741.34-199.47Z" transform="translate(2041.34 366.17)"/><path class="cls-4" d="M-1755.4-180c-6.22-1.59-7,8.5-1.11,8.25,4.34-.18,6-7,1.11-8.25h0Z" transform="translate(2041.34 366.17)"/><path class="cls-4" d="M-1630.79-154.23c2,5.57,4.94-1.38,5-1.4,1.11-.36-7.44-5.42-5,1.4h0Z" transform="translate(2041.34 366.17)"/><path class="cls-4" d="M-1635.88-163.88c1.42,4.72,8,1.42,6-2.35-1.75-3.32-7.17-1.45-6,2.35h0Z" transform="translate(2041.34 366.17)"/><path class="cls-4" d="M-1736.58-157.86c3.92-1.1,2.39-6.48-1-6.86-4.84-.53-4.39,8.37,1,6.86h0Z" transform="translate(2041.34 366.17)"/><path class="cls-4" d="M-1713.19-184.47q1.22-1.93,2.58-3.75c-4.65-4.52-10.6,5.07-4.83,7.46,0.82-1.18,1.47-2.5,2.25-3.71h0Z" transform="translate(2041.34 366.17)"/><path class="cls-4" d="M-1626.56-168.83c1.14,5.66,9.07,1.43,6.36-2.28-2.07-2.83-7.19-1.86-6.36,2.28h0Z" transform="translate(2041.34 366.17)"/><path class="cls-4" d="M-1723.74-184.48c-6.82.87-2.38,12.08,3.21,7.63,3.19-2.55.93-8.15-3.21-7.63h0Z" transform="translate(2041.34 366.17)"/><path class="cls-4" d="M-1674.17-208.16l-2.71.13a15.46,15.46,0,0,1,6.29,3.85,4.59,4.59,0,0,0-3.58-4h0Z" transform="translate(2041.34 366.17)"/><path class="cls-4" d="M-1724.38-166.46c-0.63-5-9.22-3.41-7,2.07,1.45,3.54,7.48,2,7-2.07C-1724.58-168-1723.88-162.51-1724.38-166.46Z" transform="translate(2041.34 366.17)"/><path class="cls-4" d="M-1749-184.39a4.77,4.77,0,0,0-2,5.4q0.94-2.73,2-5.4C-1750.87-183.44-1749.18-184-1749-184.39Z" transform="translate(2041.34 366.17)"/><path class="cls-4" d="M-1772-130.87c4.66,1.05,1.65-3.42,1.94-4.13,0.67-1.7-8.07,2.65-1.94,4.13C-1768.35-130-1772.48-131-1772-130.87Z" transform="translate(2041.34 366.17)"/><path class="cls-4" d="M-1765.13-124.33c-0.66-2-4.11-.93-3.21,1.41C-1767.51-120.74-1764.44-122.23-1765.13-124.33Z" transform="translate(2041.34 366.17)"/><path class="cls-4" d="M-1771.36-188.09a4.5,4.5,0,0,0,.35-4l-0.35,4C-1770.78-189.09-1771.25-189.27-1771.36-188.09Z" transform="translate(2041.34 366.17)"/><path class="cls-4" d="M-1773.12-143.08c-0.38-3.73-6.55-3.1-5.64.9C-1778-138.7-1772.76-139.58-1773.12-143.08Z" transform="translate(2041.34 366.17)"/><path class="cls-4" d="M-1763.51-148.5c-1.11-3.7-7.29-1.74-5.73,2.1,1.48,3.64,6.85,1.62,5.73-2.1h0Z" transform="translate(2041.34 366.17)"/><path class="cls-4" d="M-1776.75-117.41c3.14,0.46.68-3.11,0.6-2.75,0.18-.78-3.51,2.31-0.6,2.75C-1773.66-116.95-1777.05-117.45-1776.75-117.41Z" transform="translate(2041.34 366.17)"/><path class="cls-4" d="M-1786.69-115.48l1.43,2.34C-1783.81-113.81-1785.23-116.64-1786.69-115.48Z" transform="translate(2041.34 366.17)"/><path class="cls-4" d="M-1778.83-129.19c-1.28-4.91-4.53,1.53-4.08,1.39s5.35,3.51,4.08-1.39C-1779.48-131.68-1778.52-128-1778.83-129.19Z" transform="translate(2041.34 366.17)"/><path class="cls-4" d="M-1698.85-201c0.06,0,4.8-3.79,4.65-3.32,1.43-4.36-6.15-4.83-8.15-2.93-3.05,2.9-.64,10.55,3.51,6.26C-1698.18-201.52-1698.88-200.95-1698.85-201Z" transform="translate(2041.34 366.17)"/><path class="cls-4" d="M-1659-140.52l1.53,1.41q1.24-1.55,2.41-3.16c-1.05-2.21-4.78-.73-3.94,1.75h0Z" transform="translate(2041.34 366.17)"/><path class="cls-4" d="M-1651.16-219.67l2.25-2.3-2.25,2.3C-1651.05-219.78-1650.7-220.66-1651.16-219.67Z" transform="translate(2041.34 366.17)"/><path class="cls-4" d="M-1722.21-169.6l1.32,2.07a54.37,54.37,0,0,1,2.32-6.87q-4.21.52-3.64,4.81h0Z" transform="translate(2041.34 366.17)"/><path class="cls-4" d="M-1748.62-168.13c-0.38,1.65-.73,3.3-1,5A4.35,4.35,0,0,0-1748.62-168.13Z" transform="translate(2041.34 366.17)"/><path class="cls-4" d="M-1733.21-194.54c5.5,0.65,7.83-8.37,2.56-9.3-2-.36-9.9,8.44-2.56,9.3h0Z" transform="translate(2041.34 366.17)"/><path class="cls-4" d="M-1655.47-215.25l1.87-1.91c-4.5-2.58-9,2.75-6.87,7q2.54-2.48,5-5h0Z" transform="translate(2041.34 366.17)"/><path class="cls-4" d="M-1684.52-208.32c0.29-9.06-15-3.71-8.71,3.42a27.84,27.84,0,0,1,8.71-3.42C-1684.48-209.39-1686.1-208-1684.52-208.32Z" transform="translate(2041.34 366.17)"/><path class="cls-4" d="M-1731.39-171.58c4-1.13,3.22-7.74-.84-8.13-6.31-.61-5.56,10,0.84,8.13h0Z" transform="translate(2041.34 366.17)"/><path class="cls-4" d="M-1613.33-152.68q-3.4-.4-3,3l4.58-.16a2.44,2.44,0,0,0-1.62-2.83h0Z" transform="translate(2041.34 366.17)"/><path class="cls-4" d="M-1614.79-177.5c-4.74,1.34-1.07,10,3.14,6.26,2.54-2.26,1-7.41-3.14-6.26h0Z" transform="translate(2041.34 366.17)"/><path class="cls-4" d="M-1659-150.9c0-4-6.36-3.07-5.21.86C-1663.27-146.91-1659-148.17-1659-150.9Z" transform="translate(2041.34 366.17)"/><path class="cls-4" d="M-1708.14-191.43l1.18-1.43a2.4,2.4,0,0,0-1.18,1.43C-1707.75-191.92-1708-191.73-1708.14-191.43Z" transform="translate(2041.34 366.17)"/><path class="cls-4" d="M-1618.43-187.62c-5.12.06-4.69,9.09,1,7.62,4.16-1.09,3.93-7.68-1-7.62h0Z" transform="translate(2041.34 366.17)"/><path class="cls-4" d="M-1663-160.87c-0.56-4.26-7.15-3-6.27,1.08S-1662.53-157-1663-160.87Z" transform="translate(2041.34 366.17)"/><path class="cls-4" d="M-1671.49-180c-0.51-5-9-3.8-8,1.36,0.93,4.62,8.47,3.54,8-1.36C-1671.63-181.41-1671-174.89-1671.49-180Z" transform="translate(2041.34 366.17)"/><path class="cls-4" d="M-1667.61-171.75c-1.88-3.71-7.8-1.59-6.76,2.64C-1673.09-163.92-1665.24-167.07-1667.61-171.75Z" transform="translate(2041.34 366.17)"/><path class="cls-4" d="M-1613.89-202.35c-7.33.75-2.58,12.79,3.28,8,3.21-2.61.93-8.46-3.28-8h0Z" transform="translate(2041.34 366.17)"/><path class="cls-4" d="M-1640.54-176.58c-2.46,3.41,2.59,7.75,5.69,4.79,3.63-3.47-2.79-8.87-5.69-4.79h0Z" transform="translate(2041.34 366.17)"/><path class="cls-4" d="M-1641.8-188.12l-0.46,8.26c4.89,0.06,5.57-8,.46-8.26C-1641.94-185.5-1637.62-187.87-1641.8-188.12Z" transform="translate(2041.34 366.17)"/><path class="cls-4" d="M-1667.81-212.6c-4.47,2-3.46,10.71,2.7,7,5-3,3.28-9.66-2.7-7h0Z" transform="translate(2041.34 366.17)"/><path class="cls-4" d="M-1631.39-192.77c-6.22-1.59-7,8.49-1.11,8.25,4.34-.18,6-7,1.11-8.25h0Z" transform="translate(2041.34 366.17)"/><path class="cls-4" d="M-1627.08-191.81c1.45,4.79,8.82,3.33,8.21-1.74-0.73-6-10.08-4.46-8.21,1.74h0Z" transform="translate(2041.34 366.17)"/><path class="cls-4" d="M-1617.6-212.25c-8-.47-5.22,12.45,1.51,9.23,4.05-1.94,3.33-8.93-1.51-9.23h0Z" transform="translate(2041.34 366.17)"/><path class="cls-4" d="M-1631.64-178.36c0.89,4.57,7.56,3.64,7.24-1.11-0.34-5-8.22-3.92-7.24,1.11h0Z" transform="translate(2041.34 366.17)"/><path class="cls-4" d="M-1702.69-164.46l-0.42,2.13c2.42-.74,3.38-4.39,1.21-6.06l-0.78,3.93C-1702.84-163.7-1702.51-165.37-1702.69-164.46Z" transform="translate(2041.34 366.17)"/><path class="cls-4" d="M-1679.27-162c3.92-1.21,2.11-7.38-1.94-6.56-4.4.89-2.61,8,1.94,6.56h0Z" transform="translate(2041.34 366.17)"/><path class="cls-4" d="M-1699.21-159.32c-9.2-.85.85,10.86,2.11,5.09,0.42-1.91,1-4.81-2.11-5.09h0Z" transform="translate(2041.34 366.17)"/><path class="cls-4" d="M-1640.3-150c0.91,3.88,4.89-.91,5-0.94,0.26-.08-6.36-4.94-5,0.94h0Z" transform="translate(2041.34 366.17)"/><path class="cls-4" d="M-1657.07-161.7c3.74,0.28,5.18-5.31,1.57-6.62-4.43-1.61-6.19,6.29-1.57,6.62C-1651.61-161.29-1658.39-161.79-1657.07-161.7Z" transform="translate(2041.34 366.17)"/><path class="cls-4" d="M-1686.77-161.35c-0.69-4.36-7.63-3-6.45,1.42C-1692.16-156-1686.11-157.2-1686.77-161.35Z" transform="translate(2041.34 366.17)"/><path class="cls-4" d="M-1643.22-163.15q-0.17,2.91-.34,5.81c4.62,1.66,5.68-6.68.34-5.81C-1643.34-161-1642.14-163.32-1643.22-163.15Z" transform="translate(2041.34 366.17)"/><path class="cls-4" d="M-1695.65-174.06c-4.82,1.08-2.29,10,2.85,6.74,3.26-2.07,1.36-7.69-2.85-6.74h0Z" transform="translate(2041.34 366.17)"/><path class="cls-4" d="M-1700.24-176.9c-0.53,2.69,4,0,4.52-1.12l-4.52,1.12C-1700.31-176.55-1699.42-177.1-1700.24-176.9Z" transform="translate(2041.34 366.17)"/><path class="cls-4" d="M-1687.28-171.57c4.1,2.53,8.46-3.62,3.92-6.55-4.07-2.62-8,4-3.92,6.55h0Z" transform="translate(2041.34 366.17)"/><path class="cls-4" d="M-1650.46-169a3.31,3.31,0,0,0,2.1,2.56l0.39-6.8a3.44,3.44,0,0,0-2.48,4.24h0Z" transform="translate(2041.34 366.17)"/><path class="cls-4" d="M-1664.91-180.14c2.64-.62,3.66-3.77,2.57-6l-7.78,1.81a4.37,4.37,0,0,0,5.21,4.24h0Z" transform="translate(2041.34 366.17)"/><path class="cls-4" d="M-1655.11-184.71a4.24,4.24,0,0,0,2.94-3.86c-2.64.66-5.3,1.2-7.93,1.87a4.23,4.23,0,0,0,5,2h0Z" transform="translate(2041.34 366.17)"/><path class="cls-4" d="M-1662.46-171c4.93,1.37,6.78-7,1.76-7.23-4.12-.16-6.53,5.88-1.76,7.23h0Z" transform="translate(2041.34 366.17)"/><path class="cls-4" d="M-1647.34-189.08c1.83,0.11-3.82-.26,0,0h0Z" transform="translate(2041.34 366.17)"/><path class="cls-4" d="M-1651.23-175.38c4.36-.54,4.45-8-0.53-7.65s-4.78,8.32.53,7.65C-1647.59-175.84-1653.39-175.11-1651.23-175.38Z" transform="translate(2041.34 366.17)"/><path class="cls-4" d="M-1654.86-154.9c0.79,3.47,6,2.59,5.64-.91C-1649.6-159.53-1655.77-158.9-1654.86-154.9Z" transform="translate(2041.34 366.17)"/></svg>