<svg id="Layer_1" data-name="Layer 1" xmlns="http://www.w3.org/2000/svg" viewBox="0 0 973.35 578.44"><defs><style>.cls-1,.cls-4{fill:none;}.cls-1{stroke:#ffc0c7;}.cls-1,.cls-2,.cls-7{stroke-miterlimit:10;}.cls-1,.cls-2,.cls-4,.cls-7{stroke-width:8.22px;}.cls-2{fill:#ffe900;stroke:#ffe600;}.cls-3{fill:#fff;stroke:#fff;stroke-width:24.66px;}.cls-3,.cls-4{stroke-linecap:round;stroke-linejoin:round;}.cls-4{stroke:#ffcd8b;}.cls-5{fill:#ca3f9a;}.cls-6{fill:#ff5ea0;}.cls-7,.cls-9{fill:#ff3fb4;}.cls-7{stroke:#fcf48b;}.cls-8{fill:#ffb5d8;}.cls-10{fill:#fda2e6;}.cls-11{fill:#ff8ddf;}</style></defs><title>text_02</title><path class="cls-1" d="M-2471.48-4887a233,233,0,0,1-80.89-14.36,111.93,111.93,0,0,1-46.22,10.09h-110.07c-61.44,0-111.43-49.85-111.43-111.12v-201.53a111.55,111.55,0,0,1,111.43-111.42h54a111.42,111.42,0,0,1,69.81,24.73c32.91-19.39,72-29.61,113.41-29.61a231.29,231.29,0,0,1,70.29,10.61,110.27,110.27,0,0,1,35.16-5.73h68a111.77,111.77,0,0,1,37.81,6.55,111.83,111.83,0,0,1,37.81-6.55h68c2.92,0,5.82.12,8.77,0.37,3.06-.25,6.12-0.37,9.17-0.37h138.73c61.61,0,111.73,49.85,111.73,111.12v46a111.2,111.2,0,0,1-12.82,51.8,111.78,111.78,0,0,1,16.17,57.35v46.65c0,61.27-50,111.12-111.43,111.12h-141.78A110.86,110.86,0,0,1-2181-4901a113.58,113.58,0,0,1-45.74,9.7h-67.08a112.52,112.52,0,0,1-68.38-23.18C-2394.34-4896.49-2432-4887-2471.48-4887Z" transform="translate(2842.99 5421.97)"/><path class="cls-2" d="M-2471.48-4903.45a213.21,213.21,0,0,1-81.67-15.9,95.1,95.1,0,0,1-45.44,11.63h-110.07c-52.37,0-95-42.47-95-94.68v-201.53a95.1,95.1,0,0,1,95-95h54a95.59,95.59,0,0,1,68.07,28.86c32.48-22.16,71.77-33.74,115.15-33.74a213,213,0,0,1,70.55,11.58,94.2,94.2,0,0,1,34.9-6.7h68a96.05,96.05,0,0,1,37.81,7.77,96.11,96.11,0,0,1,37.81-7.77h68c2.91,0,5.79.14,8.74,0.44,3.06-.29,6.14-0.44,9.21-0.44h138.73c52.54,0,95.29,42.47,95.29,94.68v46a94.8,94.8,0,0,1-15.82,52.38,94.49,94.49,0,0,1,19.18,56.77v46.65c0,52.21-42.61,94.68-95,94.68h-141.78a94.14,94.14,0,0,1-45-11.58,96.45,96.45,0,0,1-45.78,11.58h-67.08a96.19,96.19,0,0,1-66.67-26.92C-2392.33-4914.17-2430.23-4903.45-2471.48-4903.45Z" transform="translate(2842.99 5421.97)"/><path class="cls-3" d="M-1971.2-5088l3.3-32.91c0.1-.93.18-1.85,0.23-2.78a45.45,45.45,0,0,0,15.88-34.49v-46c0-25-20.63-45.36-46-45.36H-2136.5a47.26,47.26,0,0,0-9.3.92,45,45,0,0,0-8.65-.92h-68a47.38,47.38,0,0,0-37.81,19,47.36,47.36,0,0,0-37.81-19h-68a44.39,44.39,0,0,0-31.12,12.68c-21.4-11.32-46.52-17.56-74.33-17.56-65.19,0-115.73,34.22-137.55,88.17v-37.62c-2.49-30.79-21.24-47.35-45.67-45.67h-54a45.73,45.73,0,0,0-45.67,45.67v201.53a45.57,45.57,0,0,0,45.67,45.37h110.07a46.11,46.11,0,0,0,38.84-21.74c24.1,16.59,54.15,26,88.27,26,54.28,0,98.4-23.65,124.26-62.57l8.93,25.82a47.06,47.06,0,0,0,44.52,32.48h67.08a47.07,47.07,0,0,0,44.51-32.48l1.43-4.15c0.17,0.75.26,1.51,0.48,2.25,5.79,20.24,24,34.38,44.4,34.38h141.78a45.57,45.57,0,0,0,45.67-45.37v-46.65A45,45,0,0,0-1971.2-5088Z" transform="translate(2842.99 5421.97)"/><path class="cls-4" d="M-2754.34-5105.88v103.47a45.57,45.57,0,0,0,45.67,45.37h110.07a46.11,46.11,0,0,0,38.84-21.74c24.1,16.59,54.15,26,88.27,26,54.28,0,98.4-23.65,124.26-62.57l8.93,25.82a47.06,47.06,0,0,0,44.52,32.48h67.08a47.07,47.07,0,0,0,44.51-32.48l1.43-4.15c0.17,0.75.26,1.51,0.48,2.25,5.79,20.24,24,34.38,44.4,34.38h141.78a45.57,45.57,0,0,0,45.67-45.37v-46.65a45,45,0,0,0-22.76-39l1.79-17.86" transform="translate(2842.99 5421.97)"/><path class="cls-5" d="M-2593.42-5053a4.11,4.11,0,0,1,4,4.27l-4.27,46.34a5.21,5.21,0,0,1-4.87,4.27h-110.07a4.65,4.65,0,0,1-4.58-4.27v-201.53a4.69,4.69,0,0,1,4.58-4.57h54a4.69,4.69,0,0,1,4.58,4.57V-5053h56.71Z" transform="translate(2842.99 5421.97)"/><path class="cls-6" d="M-2471.48-4993.87c-64.94,0-108.23-43.91-108.23-109.46,0-66.16,43.29-110.07,108.23-110.07s108.23,43.91,108.23,110.07C-2363.25-5037.77-2406.54-4993.87-2471.48-4993.87Zm0-157.93c-25,0-41.77,19.51-41.77,48.48s16.77,48.48,41.77,48.48,41.77-19.51,41.77-48.48S-2446.48-5151.8-2471.48-5151.8Z" transform="translate(2842.99 5421.97)"/><path class="cls-5" d="M-2154.44-5208.51c2.44,0,4,2.13,4.3.65L-2220-5006c-1.86,5.75-4.29,7.89-6.73,7.89h-67.08a6.27,6.27,0,0,1-5.49-4.27l-69.82-201.84a3.05,3.05,0,0,1,3.05-4.27h68a6.33,6.33,0,0,1,5.8,4.27l32,125.31,32-125.31a6.33,6.33,0,0,1,5.79-4.27h68Z" transform="translate(2842.99 5421.97)"/><path class="cls-6" d="M-1994.11-5053c2.44,0,4.58,1.83,4.58,4v46.65a4.65,4.65,0,0,1-4.58,4.27h-141.78c-2.14,0-4.27-2.44-4.88-4.58v-201.53c0-2.75,1.53-4.27,4.27-4.27h138.73c2.75,0,4.88,2.13,4.88,4.27v46a4.57,4.57,0,0,1-4.88,4.58h-79.58v24.08h64.64c2.75,0,4.27,2.14,4,4l-4.27,42.69a5.35,5.35,0,0,1-5.19,4h-59.15V-5053h83.24Z" transform="translate(2842.99 5421.97)"/><path class="cls-6" d="M-2650.13-5100.51v-103.42a4.69,4.69,0,0,0-4.58-4.57h-54a4.69,4.69,0,0,0-4.58,4.57v103.42h63.11Z" transform="translate(2842.99 5421.97)"/><path class="cls-5" d="M-2513-5100.51c0-1-.21-1.83-0.21-2.81,0-29,16.77-48.48,41.77-48.48s41.77,19.51,41.77,48.48c0,1-.17,1.85-0.21,2.81h66.55c0-.95.12-1.85,0.12-2.81,0-66.16-43.29-110.07-108.23-110.07s-108.23,43.91-108.23,110.07c0,1,.1,1.86.12,2.81H-2513Z" transform="translate(2842.99 5421.97)"/><path class="cls-6" d="M-2187.28-5100.51l35.88-103.73a3.05,3.05,0,0,0-3.05-4.27h-68a6.33,6.33,0,0,0-5.79,4.27l-26.5,103.73h67.45Z" transform="translate(2842.99 5421.97)"/><path class="cls-7" d="M-2187.28-5117l35.88-103.73a3.05,3.05,0,0,0-3.05-4.27h-68a6.33,6.33,0,0,0-5.79,4.27l-26.5,103.73h67.45Z" transform="translate(2842.99 5421.97)"/><path class="cls-6" d="M-2333.21-5100.51h67.45l-26.5-103.73a6.33,6.33,0,0,0-5.8-4.27h-68a3.05,3.05,0,0,0-3.05,4.27Z" transform="translate(2842.99 5421.97)"/><path class="cls-5" d="M-2011.25-5100.51l2.51-25.07c0.31-1.83-1.22-4-4-4h-64.64v-24.08h79.58a4.57,4.57,0,0,0,4.88-4.58v-46c0-2.14-2.14-4.27-4.88-4.27H-2136.5c-2.75,0-4.27,1.52-4.27,4.27v103.73h129.52Z" transform="translate(2842.99 5421.97)"/><path class="cls-7" d="M-2650.13-5117v-103.42a4.69,4.69,0,0,0-4.58-4.57h-54a4.69,4.69,0,0,0-4.58,4.57V-5117h63.11Z" transform="translate(2842.99 5421.97)"/><path class="cls-7" d="M-2513-5117c0-1-.21-1.83-0.21-2.81,0-29,16.77-48.48,41.77-48.48s41.77,19.51,41.77,48.48c0,1-.17,1.85-0.21,2.81h66.55c0-.95.12-1.85,0.12-2.81,0-66.16-43.29-110.07-108.23-110.07s-108.23,43.91-108.23,110.07c0,1,.1,1.86.12,2.81H-2513Z" transform="translate(2842.99 5421.97)"/><path class="cls-7" d="M-2333.21-5117h67.45l-26.5-103.73a6.33,6.33,0,0,0-5.8-4.27h-68a3.05,3.05,0,0,0-3.05,4.27Z" transform="translate(2842.99 5421.97)"/><path class="cls-7" d="M-2011.25-5117l2.51-25.07c0.31-1.83-1.22-4-4-4h-64.64v-24.08h79.58a4.57,4.57,0,0,0,4.88-4.58v-46c0-2.14-2.14-4.27-4.88-4.27H-2136.5c-2.75,0-4.27,1.52-4.27,4.27V-5117h129.52Z" transform="translate(2842.99 5421.97)"/><path class="cls-8" d="M-1932-5090.35c74.11,74.05-92.61,74.09-18.52,0-74.09,74.09-74.12-92.57,0-18.52-74.11-74.05,92.61-74.09,18.52,0C-1857.89-5183-1857.86-5016.3-1932-5090.35Z" transform="translate(2842.99 5421.97)"/><path class="cls-6" d="M-2633.31-5371.34c50.64,50.64-63.29,50.63-12.66,0-50.64,50.63-50.64-63.29,0-12.66-50.64-50.64,63.29-50.63,12.66,0C-2582.68-5434.63-2582.68-5320.7-2633.31-5371.34Z" transform="translate(2842.99 5421.97)"/><path class="cls-9" d="M-2103.83-5253.14c50.64,50.64-63.29,50.63-12.66,0-50.64,50.63-50.64-63.29,0-12.66-50.64-50.64,63.29-50.63,12.66,0C-2053.19-5316.43-2053.19-5202.5-2103.83-5253.14Z" transform="translate(2842.99 5421.97)"/><path class="cls-10" d="M-2524.75-5185.62c50.64,50.64-63.29,50.63-12.66,0-50.64,50.63-50.64-63.29,0-12.66-50.64-50.64,63.29-50.63,12.66,0C-2474.12-5248.91-2474.12-5135-2524.75-5185.62Z" transform="translate(2842.99 5421.97)"/><path class="cls-11" d="M-2330.59-4890.45c-62.55,62.55-62.55-78.18,0-15.64-62.55-62.55,78.18-62.55,15.64,0,62.55-62.55,62.55,78.18,0,15.64C-2252.41-4827.9-2393.14-4827.9-2330.59-4890.45Z" transform="translate(2842.99 5421.97)"/><path class="cls-11" d="M-1975.12-5287.28c-105.48,105.48-105.48-131.85,0-26.37-105.48-105.48,131.85-105.48,26.37,0,105.48-105.48,105.48,131.85,0,26.37C-1843.27-5181.8-2080.59-5181.8-1975.12-5287.28Z" transform="translate(2842.99 5421.97)"/><path class="cls-11" d="M-2741.67-5287.8c101.32,101.32-126.65,101.32-25.33,0-101.32,101.32-101.32-126.65,0-25.33-101.32-101.32,126.65-101.32,25.33,0C-2640.35-5414.45-2640.35-5186.47-2741.67-5287.8Z" transform="translate(2842.99 5421.97)"/></svg>