<svg id="Layer_1" data-name="Layer 1" xmlns="http://www.w3.org/2000/svg" viewBox="0 0 1083.39 317.69"><defs><style>.cls-1{fill:#fb7fde;}.cls-2{fill:#ffabb6;}.cls-3{fill:#ff3fb4;}.cls-4{fill:#f96ada;}.cls-5{fill:#fda2e6;}</style></defs><title>text_09</title><path class="cls-1" d="M-1291.8-3586.65l-51.83,8.84-11,75.31-62.2,4.58,16.47-69.21-33.24,9.45-8.84,59.76-34.76-7.32,29-185.37-27.75-19.51,73.18-29.88-22.26,149.7,27.44-2.14,27.75-114.94-7-34.76H-1311l-13.41,70.74-18,76.22,49.08-7.32Z" transform="translate(1477.17 3742.14)"/><path class="cls-2" d="M-1158.59-3554.33l-47.25,46h-3.05c-20.12,0-30.19-9.15-30.19-27.13a51.47,51.47,0,0,1,.92-9.15l-37.5,36.89c-17.07,0-33.23-27.74-33.23-53.36,0-40.25,38.72-81.1,79-81.1h47.87l-12.2,69.82a256.42,256.42,0,0,0-5.19,35.06l31.71-27.44Zm-66.77-70.74a9.49,9.49,0,0,0-3.36-.31c-15.24,0-27.14,10.67-34.76,32-2.75,7.93-4.27,14.94-4.27,20.73,0,11.89,4.27,20.43,13.11,25.61l18.6-17.07Z" transform="translate(1477.17 3742.14)"/><path class="cls-3" d="M-1024.47-3554.33l-47.25,46c-15.85-4.88-26.53-10.06-29.27-12.81-6.4,3.36-17.38,5.8-32.32,7l-7.93.61-15.85,89H-1197l38.72-223.18h39.64l-6.1,36,37.51-36.89c16.16,0,33.23,27.44,33.23,53.36,0,17.68-7,35.06-20.73,51.83,2.14,4.58,4.58,6.71,7.32,6.71,0.31,0,.92-0.31,2.13-0.61l31.71-27.44Zm-70.73-29.27c0-11.89-4.27-20.43-13.11-25.61l-18.6,17.07-11,61a10.52,10.52,0,0,0,3.66.31q22.86,0,34.76-32C-1096.72-3570.8-1095.2-3577.81-1095.2-3583.6Z" transform="translate(1477.17 3742.14)"/><path class="cls-4" d="M-890.35-3554.33l-47.25,46c-15.85-4.88-26.53-10.06-29.27-12.81-6.4,3.36-17.38,5.8-32.32,7l-7.93.61-15.85,89h-39.94l38.72-223.18h39.64l-6.09,36,37.5-36.89c16.16,0,33.23,27.44,33.23,53.36,0,17.68-7,35.06-20.73,51.83,2.14,4.58,4.58,6.71,7.32,6.71,0.31,0,.92-0.31,2.13-0.61l31.71-27.44Zm-70.73-29.27c0-11.89-4.27-20.43-13.11-25.61l-18.6,17.07-11,61a10.52,10.52,0,0,0,3.66.31q22.86,0,34.76-32C-962.6-3570.8-961.08-3577.81-961.08-3583.6Z" transform="translate(1477.17 3742.14)"/><path class="cls-5" d="M-825.12-3553.72l-52.74,46c-14.95-3.36-25.31-16.77-25.31-41.16a83.5,83.5,0,0,1,1.53-16.77l13.72-76.53H-848l-12.8,70.43c-2.14,9.45-4,20.12-6.1,32.32l32.62-24.69Zm-12.19-147.87-6.41,35.67h-40.55l6.41-35.67h40.55Z" transform="translate(1477.17 3742.14)"/><path class="cls-3" d="M-690.07-3554.33l-46.95,43.6a17.14,17.14,0,0,1-6.1.92c-16.46,0-24.7-10.37-24.7-31.4A93.26,93.26,0,0,1-766-3558.3l11-59.76-35.68,32.32-13.72,76.53h-39.94L-820-3643.36h37.81l-6.1,33.84,38.11-34.76A34.9,34.9,0,0,1-737-3647c12.8,0,19.21,8.84,19.21,26.22a63.85,63.85,0,0,1-.31,7.32l-14,76.22,32.93-27.44Z" transform="translate(1477.17 3742.14)"/><path class="cls-4" d="M-560.21-3600.68l-92.69,94.21c-6.7,0-28.35-13.42-38.11-27.75a62.18,62.18,0,0,1-11.58-35.67c0-44.82,30.79-80.19,67.07-80.19,13.73,0,33.24,7.63,33.24,17.38,0,4.88-9.76,14.63-57,59.45q0.46,8.69,21,26.53l68.9-64.33ZM-639.48-3637c-13.42,0-26.83,12.2-26.83,36.89a35.33,35.33,0,0,0,1.53,10.37c14.94-10.37,39-33.23,41.47-41.16C-629.73-3634.82-635.22-3637-639.48-3637Z" transform="translate(1477.17 3742.14)"/><path class="cls-5" d="M-564.2-3509.51l-31.4-43.6,12.8-10.36,9.76,14c34.15-15.55,41.46-32,41.46-52.14,0-7.93-2.13-14-6.4-18l-92.08,88.42-7.62-14.63,118-113.12,10.67,9.15L-526.09-3633c17.38,11,25.92,25.91,25.92,45.12a55.9,55.9,0,0,1-2.14,16.16C-511.15-3537.26-531.58-3516.52-564.2-3509.51Z" transform="translate(1477.17 3742.14)"/><path class="cls-1" d="M-457.8-3509.51l-31.4-43.6,12.8-10.36,9.76,14c34.15-15.55,41.46-32,41.46-52.14,0-7.93-2.13-14-6.4-18l-92.08,88.42-7.62-14.63,118-113.12,10.67,9.15L-419.69-3633c17.38,11,25.92,25.91,25.92,45.12a55.9,55.9,0,0,1-2.14,16.16C-404.76-3537.26-425.18-3516.52-457.8-3509.51Z" transform="translate(1477.17 3742.14)"/></svg>