<svg id="Layer_1" data-name="Layer 1" xmlns="http://www.w3.org/2000/svg" viewBox="0 0 1017.56 482.6"><defs><style>.cls-1{fill:#788088;}.cls-2{fill:#a8adb2;}.cls-3{fill:#393528;}.cls-4{fill:#e06687;}.cls-5{fill:#dc1118;}</style></defs><title>text_14</title><path class="cls-1" d="M-2900.63-1397l-26.88,3.92-4.66-31.93L-3045-1525.17l23.81,163.29,48.5,43.06,123.17-18c3.1-.45,7.65-1.41,13.49-2.82Z" transform="translate(3044.97 1712.2)"/><polygon class="cls-2" points="20.47 414 60.95 403.67 8.2 365.94 20.47 414"/><path class="cls-3" d="M-2796.84-1357.74l29-148.42q-15-8.59-36.7-11.91,21.38-9.51,31.69-23.63,15.46-21.17,13.11-48.71-2.82-32.84-28.77-53t-70.86-16.33l-114.28,9.8c2.35,17.4,5,37.39,6.05,46.54l-54.2-42.41-17.19,1.47,8.29,96.69L-2924-1441l-2.64-30.77,48.72-4.18q25.2-2.16,36,5.34t12,21.27q1.27,14.83-8.14,24.49t-34.2,11.79l-21.86,1.87,61.12,61.13c7.47-1.34,17.08-3.29,29-5.91C-2801.49-1356.5-2799.2-1357.13-2796.84-1357.74Zm-62.59-187.09q-8.13,8.49-30.58,10.41l-41.73,3.58-5-58.88,42.36-3.63q21.83-1.87,31.27,5t10.61,20.43Q-2851.3-1553.31-2859.43-1544.83Z" transform="translate(3044.97 1712.2)"/><polygon class="cls-4" points="352.31 209.28 370.72 246.01 412.87 203.86 380.02 147.27 307.48 159.46 271.1 345.63 344.13 272.6 352.31 209.28"/><polygon class="cls-5" points="428.95 229.28 425.03 221.8 381.1 262.1 397.85 299.48 350.29 305.39 353.39 287.52 277.29 357.35 267.13 399.55 335.46 391.07 341.58 354.01 417.55 344.59 422.46 355.64 428.95 229.28"/><polygon class="cls-1" points="790.18 95.98 696.67 79.28 696.2 81.94 774.64 183 790.18 95.98"/><polygon class="cls-1" points="447.05 426.84 541.8 426.07 540.76 296.72 445.31 211.98 447.05 426.84"/><path class="cls-3" d="M-2291-1356.31q-22.37-33-27.89-78.56-5.82-48,9.66-85.86a129.12,129.12,0,0,1,11.72-22.11l-73.6-73.6-9.11,177.47-113.36-186.46-94-4.83-5.7,111.06L-2503-1429l2.55-49.61,112.76,185.06,94.86,4.87,3.37-65.58C-2289.93-1354.93-2290.47-1355.59-2291-1356.31Z" transform="translate(3044.97 1712.2)"/><path class="cls-5" d="M-2220.29-1451.36q-7.51-36.9,3.6-56.92t35.66-25q16.47-3.35,28.58,1.74t19.33,17.86l69.39-27.5q-11.34-22.06-27.55-34.63a79.4,79.4,0,0,0-37.53-15.79q-21.33-3.2-61.36,4.93-41.53,8.45-63.69,25.14-28.4,21.56-38.75,54.12t-2.32,72.11c4.86,23.87,13.82,44.12,26.66,61l52-61.06C-2217.76-1440.34-2219.12-1445.61-2220.29-1451.36Z" transform="translate(3044.97 1712.2)"/><path class="cls-4" d="M-2053.11-1479.25l-114.12,28.79,12.54,49.73,49.4-12.46,5.67,22.5q-12.33,12.3-22.68,18.72a79.76,79.76,0,0,1-22.74,9.55q-26.08,6.58-44.86-6.37c-9.77-6.73-17.69-18.78-23.8-36l-49.12,63.41c0.67,0.8,1.22,1.7,1.91,2.48q22,25,52.47,32.72t73-3q34.57-8.72,57.72-23.15t50.29-45Z" transform="translate(3044.97 1712.2)"/><path class="cls-5" d="M-2606.31-1616.95c-2,.59-57-65-57-65l46.59-30.3Z" transform="translate(3044.97 1712.2)"/><path class="cls-5" d="M-2237.32-1595.93c-1.15-1.7,19-74,19-74l42.79,35.42Z" transform="translate(3044.97 1712.2)"/><polygon class="cls-5" points="790.8 409.08 820.87 482.07 864.14 439.83 790.8 409.08"/><polygon class="cls-5" points="247.26 395.67 173.82 447.79 228.2 472.45 247.26 395.67"/><path class="cls-1" d="M-2977.18-1625.82c-2.05-17.91-10.27-77.5-10.27-77.5l-49.32,30.87Z" transform="translate(3044.97 1712.2)"/><path class="cls-1" d="M-2459.44-1289.12c-5.33,13.63-22.09,59.51-22.09,59.51l47.12-3.42Z" transform="translate(3044.97 1712.2)"/><path class="cls-4" d="M-2606.31-1599.59c-0.28,1.51-62.51,15.56-62.51,15.56l-4.17-41.2Z" transform="translate(3044.97 1712.2)"/></svg>