<svg id="Layer_1" data-name="Layer 1" xmlns="http://www.w3.org/2000/svg" viewBox="0 0 1144.66 371.17"><defs><style>.cls-1{fill:#fb7fde;}.cls-2{fill:#fda2e6;}.cls-3{fill:#00bea3;}.cls-4{fill:#6bd3c2;}.cls-5{fill:#ff5ea0;}.cls-6{fill:#b9eea3;}.cls-7{fill:#f96ada;}.cls-8{fill:#a8ed8a;}</style></defs><title>text_06</title><path class="cls-1" d="M-1458.34-4250.82c16.77,0,28.05,11.59,28.05,28.35s-11.29,28-28.05,28h-101.52c-24.7,0-35.07-11-35.07-40.86v-137.81c0-29.88,10.37-40.86,35.07-40.86h6.4c24.7,0,35.06,11,35.06,40.86v122.26h60.06Z" transform="translate(1608.39 4505.6)"/><path class="cls-2" d="M-1204.42-4239.54c3.05,8.84,5.48,17.07,5.48,24.39,0,15.55-9.75,20.73-23.78,20.73h-22c-13.42,0-22.56-2.14-27.75-16.46l-7.92-21.65h-52.75L-1341-4210c-4.88,13.72-13.73,15.55-27.14,15.55h-10.36c-15.56,0-23.17-8.23-23.17-20.73,0-6.1,1.83-12.5,5.19-22l53.35-149.39c4.58-13.11,13.72-27.44,34.76-27.44h17.68c21,0,29.58,13.42,34.76,28.36Zm-90.25-32-12.19-34.15-12.19,34.15h24.39Z" transform="translate(1608.39 4505.6)"/><path class="cls-3" d="M-1171.86-4373.09c0-29.88,10.37-40.86,35.06-40.86h6.41c24.7,0,35.06,11,35.06,40.86v81.41c0,10.67.61,20.12,4,26.83,4.58,9.15,13.72,14,23.48,14h4.88c9.75,0,18.9-4.88,23.48-14,3.35-6.71,4-16.16,4-26.83v-81.41c0-10.67.61-20.12,4-26.83,4.58-9.15,13.72-14,23.48-14h4.88c9.75,0,18.9,4.88,23.47,14,3.36,6.71,4,16.16,4,26.83v101.22c0,53.35-30.79,77.44-74.39,77.44h-39c-49.39,0-82.63-28-82.63-78.05v-100.61Z" transform="translate(1608.39 4505.6)"/><path class="cls-4" d="M-780.45-4305.71c22.26,0,35.37,7.93,35.37,33.54v48.48c0,21-7.63,29.27-24.39,29.27h-5.8c-12.8,0-22-6.1-26.22-14.63-11.58,11.28-28.35,14.63-44.51,14.63h-6.41c-23.17,0-44.82-9.45-63.42-31.4s-25.3-47.26-25.3-77.14v-2.44c0-29.88,8.23-55.79,27.74-76.83,21-22.56,48.79-31.71,78.36-31.71h7.93c56.1,0,81.71,33.23,81.71,59.76,0,19.21-14,30.79-31.1,30.79-17.68,0-23.78-7.32-29.57-18-6.71-12.2-15.56-16.16-28.36-16.16-10.36,0-19.82,3-25.92,11.59-5.79,8.23-7.92,21.34-7.92,36v9.45c0,16.16,1.83,30.49,6.1,39.64,4.57,9.76,12.19,13.11,21.34,13.11,10.37,0,18.3-4.88,20.12-18.29-14.33-.92-22.25-5.79-22.25-18.9,0-14.33,8.53-20.73,33.54-20.73h29Z" transform="translate(1608.39 4505.6)"/><path class="cls-5" d="M-539-4413.94c24.69,0,35.06,11,35.06,40.86v137.81c0,29.88-10.37,40.86-35.06,40.86h-6.41c-24.7,0-35.06-11-35.06-40.86v-44.21h-50.31v44.21c0,29.88-10.36,40.86-35.06,40.86h-6.41c-24.69,0-35.06-11-35.06-40.86v-137.81c0-29.88,10.37-40.86,35.06-40.86h6.41c24.7,0,35.06,11,35.06,40.86V-4328h50.31v-45.13c0-29.88,10.36-40.86,35.06-40.86H-539Z" transform="translate(1608.39 4505.6)"/><path class="cls-6" d="M-1466.91-4260.14a33.21,33.21,0,0,0-4.89-.43h-51.06a33,33,0,0,1-26.26,13.09,33.22,33.22,0,0,1-33.22-33.22,33.22,33.22,0,0,1,33.22-33.22,32.93,32.93,0,0,1,17.26,5v-73.87c0-29.88-10.36-40.86-35.06-40.86h-6.4c-16,0-25.91,4.73-31,16.1,0.37,0,.72-0.11,1.1-0.11a33.22,33.22,0,0,1,33.22,33.22,33.22,33.22,0,0,1-33.22,33.22,32.94,32.94,0,0,1-5.2-.52V-4245c0,10.63,1.38,18.76,4.19,25,0.35,0,.67-0.1,1-0.1a33.1,33.1,0,0,1,28.22,15.89c0.57,0,1.05.1,1.64,0.1h50a33.1,33.1,0,0,1,28.28-16,33.11,33.11,0,0,1,28.06,15.58c14.06-2,23.26-12.54,23.26-27.64a30.12,30.12,0,0,0-4.31-16.05A33.08,33.08,0,0,1-1466.91-4260.14Z" transform="translate(1608.39 4505.6)"/><path class="cls-5" d="M-1241.54-4280.7a33,33,0,0,1,5.91-18.87l-15.45-43.78a32.94,32.94,0,0,1-11.3,2.11,33.22,33.22,0,0,1-33.22-33.22,33.14,33.14,0,0,1,21.78-31.07c-5.56-10.33-14.31-18.14-30.35-18.14h-17.68c-17.43,0-26.63,9.85-31.89,20.68a33.08,33.08,0,0,1,16.47,28.54,33.22,33.22,0,0,1-33.22,33.22,33.15,33.15,0,0,1-5.55-.56l-17.58,49.22a33,33,0,0,1,2.29,11.89,33.08,33.08,0,0,1-16.78,28.71l-1.84,5.14c-3.36,9.45-5.19,15.86-5.19,22,0,10.6,5.54,18.08,16.7,20.12a33.13,33.13,0,0,1,27.95-15.38,32.88,32.88,0,0,1,14.67,3.55,32.74,32.74,0,0,0,1.36-3.11l7.92-22.56h52.75l7.92,21.65a30.6,30.6,0,0,0,3.68,7.17,32.93,32.93,0,0,1,19.82-6.7,33.1,33.1,0,0,1,28.22,15.89c12.9-.5,21.75-5.86,21.75-20.63,0-7.24-2.39-15.38-5.39-24.12A33.11,33.11,0,0,1-1241.54-4280.7Zm-74.9,33.22a33.22,33.22,0,0,1-33.22-33.22,33.12,33.12,0,0,1,28.62-32.76l0.71-2,0.66,1.85c1.08-.11,2.12-0.33,3.23-0.33a33.22,33.22,0,0,1,33.22,33.22A33.22,33.22,0,0,1-1316.44-4247.48Z" transform="translate(1608.39 4505.6)"/><path class="cls-2" d="M-1008.85-4280.7a33.18,33.18,0,0,1,19.57-30.22v-71.91c0-10.67-.61-20.12-4-26.83-4.57-9.15-13.72-14-23.47-14h-4.88c-9.76,0-18.9,4.88-23.48,14a31.38,31.38,0,0,0-2.35,7.18,33,33,0,0,1,17.73-5.22,33.22,33.22,0,0,1,33.22,33.22,33.22,33.22,0,0,1-33.22,33.22,33,33,0,0,1-19.35-6.31v46.14a93.53,93.53,0,0,1-1.61,19.59c0,0.38.11,0.74,0.11,1.13a33.22,33.22,0,0,1-33.22,33.22A33.22,33.22,0,0,1-1117-4280.7a32.94,32.94,0,0,1,8.18-21.61v-56.29a33.08,33.08,0,0,1-29,17.35,33.22,33.22,0,0,1-33.22-33.22,33.22,33.22,0,0,1,33.22-33.22,33.08,33.08,0,0,1,28.62,16.63c-1.89-23.58-12.43-32.62-34.67-32.62h-6.41c-24.69,0-35.06,11-35.06,40.86v69.57a33.22,33.22,0,0,1,26.67,32.56,33.18,33.18,0,0,1-21,30.84,66.28,66.28,0,0,0,27.48,33.11,32.9,32.9,0,0,1,14.39-3.4,33.1,33.1,0,0,1,28.14,15.74c2.3,0.13,4.6.25,7,.25h39c2,0,3.89-.11,5.81-0.21a33.1,33.1,0,0,1,28.17-15.79,33.11,33.11,0,0,1,13,2.65c11-7.93,19.19-19.53,23.62-35A33.11,33.11,0,0,1-1008.85-4280.7Z" transform="translate(1608.39 4505.6)"/><path class="cls-7" d="M-776.17-4280.7a33,33,0,0,1,11-24.54c-6-7.36-15.74-10.21-28.75-10.21h-29c-8.8,0-15.47.84-20.54,2.5a33.18,33.18,0,0,1,25.57,32.25,33.22,33.22,0,0,1-33.22,33.22,33.22,33.22,0,0,1-33.22-33.22,32.91,32.91,0,0,1,3.23-14.07c-0.44-4.88-.66-10.07-0.66-15.49v-9.45c0-14.64,2.14-27.74,7.92-36,6.1-8.54,15.56-11.59,25.92-11.59,8.43,0,15.12,1.78,20.64,6.44a33,33,0,0,1-3-13.63A33.22,33.22,0,0,1-797-4407.69a33.22,33.22,0,0,1,33.22,33.22A33.22,33.22,0,0,1-797-4341.25a32.94,32.94,0,0,1-21.48-8.07c5.52,9.66,11.89,16.19,28.53,16.19,17.07,0,31.1-11.59,31.1-30.79,0-26.52-25.61-59.76-81.71-59.76h-7.93c-21.56,0-42.11,4.94-59.84,16.32,1.07-.1,2.1-0.32,3.2-0.32a33.22,33.22,0,0,1,33.22,33.22,33.22,33.22,0,0,1-33.22,33.22,33.22,33.22,0,0,1-33.22-33.22c0-1,.2-1.88.28-2.83-11.44,18-16.52,38.87-16.52,62.15v1.68A33.12,33.12,0,0,1-926-4280.7a33.14,33.14,0,0,1-15.2,27.85,102.56,102.56,0,0,0,11.88,17.28A99.61,99.61,0,0,0-912-4219.43a33.21,33.21,0,0,1,6.88-.73,33.15,33.15,0,0,1,27.78,15.08,80.49,80.49,0,0,0,11.48.91h6.41c16.16,0,32.93-3.36,44.51-14.63a24.94,24.94,0,0,0,1.78,3,32.87,32.87,0,0,1,16.17-4.37,33.08,33.08,0,0,1,26.63,13.54c8-3.75,11.83-12.09,11.83-26.82v-18.11A33.08,33.08,0,0,1-776.17-4280.7Z" transform="translate(1608.39 4505.6)"/><path class="cls-8" d="M-543.48-4280.7a33.2,33.2,0,0,1,26-32.4v-69.73c0-29.88-10.37-40.86-35.06-40.86h-6.41c-22.62,0-33.1,9.39-34.73,33.89a33.09,33.09,0,0,1,29.31-17.9,33.22,33.22,0,0,1,33.22,33.22,33.22,33.22,0,0,1-33.22,33.22A33.11,33.11,0,0,1-594-4359.76v22.05h-50.31V-4357a33.11,33.11,0,0,1-28.17,15.79,33.22,33.22,0,0,1-33.22-33.22,33.22,33.22,0,0,1,33.22-33.22,33.16,33.16,0,0,1,27.69,14.91c-2.24-22.38-12.86-30.91-34.59-30.91h-6.41c-24.69,0-35.06,11-35.06,40.86v69.48a33.17,33.17,0,0,1,27.52,32.65,33.17,33.17,0,0,1-27.52,32.65v3c0,23.42,6.49,35.11,21.13,39.12a33.15,33.15,0,0,1,27.23-14.26,32.92,32.92,0,0,1,19.9,6.77c5.68-6.48,8.27-16.69,8.27-31.63v-15.1a32.91,32.91,0,0,1-7.33-20.58,33.22,33.22,0,0,1,33.22-33.22,33.22,33.22,0,0,1,33.22,33.22,33,33,0,0,1-8.81,22.37V-4245c0,15.5,2.86,25.82,9,32.25a32.91,32.91,0,0,1,20.66-7.39,33.12,33.12,0,0,1,27,14c13.8-4.32,19.89-16.06,19.89-38.84v-3.28A33.2,33.2,0,0,1-543.48-4280.7Z" transform="translate(1608.39 4505.6)"/><circle class="cls-7" cx="377.2" cy="103.33" r="17.33"/><circle class="cls-5" cx="619.11" cy="50.68" r="18.8"/><circle class="cls-8" cx="1131.25" cy="311.18" r="13.41"/><circle class="cls-2" cx="1125" cy="101.66" r="13.41"/><circle class="cls-3" cx="151.18" cy="63.59" r="13.41"/><circle class="cls-6" cx="632.58" cy="324.59" r="27.39"/><circle class="cls-7" cx="411.36" cy="351.99" r="19.19"/><circle class="cls-2" cx="806.7" cy="58.22" r="19.19"/><circle class="cls-4" cx="132" cy="216.97" r="19.19"/><circle class="cls-8" cx="210.99" cy="31.88" r="31.88"/></svg>