<svg id="Layer_1" data-name="Layer 1" xmlns="http://www.w3.org/2000/svg" viewBox="0 0 1356.08 511.28"><defs><style>.cls-1,.cls-2,.cls-3,.cls-6{fill:none;stroke-miterlimit:10;stroke-width:10.39px;}.cls-1{stroke:#ef95dd;}.cls-2{stroke:#a20096;}.cls-3{stroke:#00d9ff;}.cls-4{fill:#a20096;}.cls-5{fill:#00d9ff;}.cls-6{stroke:#be5dbc;}.cls-7{fill:#be5dbc;}</style></defs><title>text_13</title><path class="cls-1" d="M-4524.37-1253.2a26.72,26.72,0,0,1-26.69-26.69v-73.78h-17.54v73.78a26.93,26.93,0,0,1-27.11,26.69h-78.94a27,27,0,0,1-26.69-26.69v-279c0-14.7,12.22-27.11,26.69-27.11h78.94a27.14,27.14,0,0,1,27.11,27.11v89.39h17.54v-89.39a26.93,26.93,0,0,1,26.69-27.11h78.94a27.13,27.13,0,0,1,27.1,27.11v279a26.92,26.92,0,0,1-27.1,26.69h-78.94Z" transform="translate(4706.54 1651.46)"/><path class="cls-2" d="M-4242.53-1145.38c-87.54,0-136.3-47.77-137.27-134.52v-176.26a28.32,28.32,0,0,1,27.94-27.95h72.62a28,28,0,0,1,27.94,27.95v183.62c0,9.55,3.34,10,8.78,10,6,0,8.77-.95,8.77-9.62v-184a28.33,28.33,0,0,1,28-27.95h72.6a28,28,0,0,1,28,27.95v176C-4105.25-1194.5-4155.28-1145.38-4242.53-1145.38Z" transform="translate(4706.54 1651.46)"/><path class="cls-3" d="M-3879.36-1211.64a26.72,26.72,0,0,1-26.68-26.69v-73.78h-17.55v73.78a26.94,26.94,0,0,1-27.11,26.69h-78.93a27.05,27.05,0,0,1-26.69-26.69v-279c0-14.69,12.22-27.1,26.69-27.1h78.93a27.14,27.14,0,0,1,27.11,27.1v89.4H-3906v-89.4a26.93,26.93,0,0,1,26.68-27.1h78.94a27.13,27.13,0,0,1,27.1,27.1v279a26.93,26.93,0,0,1-27.1,26.69h-78.94Z" transform="translate(4706.54 1651.46)"/><path class="cls-2" d="M-3646.23-1280.44c-46.42,0-67.21-28.24-67.21-56.23a52.4,52.4,0,0,1,9.17-29.86,26.09,26.09,0,0,1-4.31-11.08,20.68,20.68,0,0,1-.21-3v-19c0-47.75,23.77-75.23,41.13-95.29,5.42-6.27,11-12.69,13.54-17.53-12,.65-26.58,5.31-33.88,7.65a21.37,21.37,0,0,1-2.27.59,30.74,30.74,0,0,1-4.92.48c-11.87,0-22.13-7.83-24.79-18.76-6.37-23.68-13.67-50.17-15.18-54.76-0.15-.38-0.29-0.76-0.43-1.15a24.94,24.94,0,0,1,1.43-19.69,25,25,0,0,1,15.51-12.33c23.56-7.87,47.86-15.16,77.07-15.16,73.28,0,117,38.54,117,103.09,0,43.61-21.85,68.4-39.41,88.31-12.84,14.57-20.11,23.35-20.11,34.52v19a25.49,25.49,0,0,1-4.13,14,52.41,52.41,0,0,1,9.2,29.9C-3579-1310.73-3596.61-1280.44-3646.23-1280.44Z" transform="translate(4706.54 1651.46)"/><path class="cls-1" d="M-3422.88-1216.12c-46.42,0-67.2-28.24-67.2-56.24a52.06,52.06,0,0,1,12.74-34.44,25.72,25.72,0,0,1-3.46-12.83l-6.32-207.47c0-15.58,12.15-27.74,27.1-27.74h74.29a27.14,27.14,0,0,1,27.11,27.11l-6.77,208.78a24.35,24.35,0,0,1-3.21,11.94,52.06,52.06,0,0,1,12.93,34.66C-3355.66-1246.42-3373.26-1216.12-3422.88-1216.12Z" transform="translate(4706.54 1651.46)"/><path class="cls-4" d="M-4445.44-1565.23a6.21,6.21,0,0,1,6.32,6.33v279a6.13,6.13,0,0,1-6.32,5.91h-78.93a6,6,0,0,1-5.91-5.91v-94.55h-59.1v94.55a6.14,6.14,0,0,1-6.33,5.91h-78.93a6.36,6.36,0,0,1-5.91-5.91v-279c0-3.38,3-6.33,5.91-6.33h78.93a6.21,6.21,0,0,1,6.33,6.33v110.17h59.1V-1558.9a6.13,6.13,0,0,1,5.91-6.33h78.93Z" transform="translate(4706.54 1651.46)"/><polygon class="cls-5" points="93.36 67.01 50.01 110.36 50.01 137.48 120.48 67.01 93.36 67.01"/><path class="cls-5" d="M-4565.35-1578.13a6.24,6.24,0,0,0-2.47-4.93l-88.72,88.72v27.13l91.18-91.18v-19.73Z" transform="translate(4706.54 1651.46)"/><polygon class="cls-5" points="141.19 183.51 141.19 159.47 50.01 250.65 50.01 277.77 144.27 183.51 141.19 183.51"/><polygon class="cls-5" points="141.19 112.7 50.01 203.89 50.01 231.01 141.19 139.83 141.19 112.7"/><path class="cls-5" d="M-4415.08-1408.45l-91.17,91.17v18.17a6.12,6.12,0,0,0,3.56,5.4l87.61-87.61v-27.12Z" transform="translate(4706.54 1651.46)"/><path class="cls-5" d="M-4571.68-1293.2a6.14,6.14,0,0,0,6.34-5.91v-5.83l-11.75,11.75h5.41Z" transform="translate(4706.54 1651.46)"/><path class="cls-5" d="M-4421.4-1293.2a6.13,6.13,0,0,0,6.32-5.91v-15.81l-21.72,21.72h15.4Z" transform="translate(4706.54 1651.46)"/><path class="cls-5" d="M-4500.34-1584.45a6.13,6.13,0,0,0-5.91,6.33v7.39l13.72-13.72h-7.81Z" transform="translate(4706.54 1651.46)"/><polygon class="cls-5" points="291.46 196.25 200.29 287.42 200.29 314.55 291.46 223.38 291.46 196.25"/><polygon class="cls-5" points="291.46 289.78 222.97 358.27 250.09 358.27 291.46 316.9 291.46 289.78"/><path class="cls-5" d="M-4650.62-1584.45c-3,0-5.91,2.95-5.91,6.33v17.38l23.71-23.71h-17.8Z" transform="translate(4706.54 1651.46)"/><polygon class="cls-5" points="200.29 257.8 200.29 267.78 291.46 176.61 291.46 149.49 183.15 257.8 200.29 257.8"/><path class="cls-5" d="M-4565.35-1393.66H-4543l127.95-127.95v-27.12l-241.45,241.45v8.18a6.36,6.36,0,0,0,5.91,5.91h7.12l78.15-78.15v-22.32Z" transform="translate(4706.54 1651.46)"/><polygon class="cls-5" points="163.91 183.51 50.01 297.41 50.01 324.54 191.03 183.51 163.91 183.51"/><polygon class="cls-5" points="200.29 127.49 260.77 67.01 233.65 67.01 200.29 100.37 200.29 127.49"/><polygon class="cls-5" points="141.19 299.76 82.68 358.27 109.81 358.27 141.19 326.88 141.19 299.76"/><path class="cls-5" d="M-4506.25-1477.21l91.17-91.17v-9.75a6.2,6.2,0,0,0-6.32-6.33h-4.72l-80.12,80.12v27.12Z" transform="translate(4706.54 1651.46)"/><path class="cls-4" d="M-4133.2-1463.33a7.11,7.11,0,0,1,7.18,7.17v176c0,74.71-40.11,114-116.51,114-75.56,0-115.65-39.26-116.5-114v-176a7.39,7.39,0,0,1,7.17-7.17h72.61a7.11,7.11,0,0,1,7.17,7.17v183.62c0,19.42,11,30.82,29.55,30.82s29.55-11.4,29.55-30.39v-184a7.4,7.4,0,0,1,7.18-7.17h72.6Z" transform="translate(4706.54 1651.46)"/><path class="cls-5" d="M-4133.2-1473.72a7.11,7.11,0,0,1,7.18,7.17v176c0,74.71-40.11,114-116.51,114-75.56,0-115.65-39.26-116.5-114v-176a7.39,7.39,0,0,1,7.17-7.17h72.61a7.11,7.11,0,0,1,7.17,7.17v183.62c0,19.42,11,30.82,29.55,30.82s29.55-11.4,29.55-30.39v-184a7.4,7.4,0,0,1,7.18-7.17h72.6Z" transform="translate(4706.54 1651.46)"/><path class="cls-6" d="M-4133.2-1504.88a7.11,7.11,0,0,1,7.18,7.17v176c0,74.71-40.11,114-116.51,114-75.56,0-115.65-39.26-116.5-114v-176a7.39,7.39,0,0,1,7.17-7.17h72.61a7.11,7.11,0,0,1,7.17,7.17v183.62c0,19.42,11,30.82,29.55,30.82s29.55-11.4,29.55-30.39v-184a7.4,7.4,0,0,1,7.18-7.17h72.6Z" transform="translate(4706.54 1651.46)"/><path class="cls-5" d="M-3800.43-1523.68a6.21,6.21,0,0,1,6.32,6.33v279a6.13,6.13,0,0,1-6.32,5.91h-78.93a6,6,0,0,1-5.91-5.91v-94.55h-59.1v94.55a6.14,6.14,0,0,1-6.33,5.91h-78.93a6.36,6.36,0,0,1-5.91-5.91v-279c0-3.38,3-6.33,5.91-6.33h78.93a6.21,6.21,0,0,1,6.33,6.33v110.17h59.1v-110.17a6.13,6.13,0,0,1,5.91-6.33h78.93Z" transform="translate(4706.54 1651.46)"/><path class="cls-7" d="M-3688-1410c0-67.12,56.14-86.54,56.14-117.35,0-10.56-11.4-16.46-18.57-16.46-15.62,0-33.35,5.48-43.91,8.86-2.11.42-5.07-.84-5.49-3,0,0-14.77-54.88-16-57.4-0.84-2.53,0-4.65,3-5.49,22.79-7.6,45.16-14.35,71.33-14.35,67.12,0,96.25,35,96.25,82.31,0,65-59.52,79.36-59.52,122.84v19c0,3-2.53,5.07-5.91,5.07h-70.49c-3.8,0-6.33-2.11-6.76-5.07v-19Zm-4.65,62.89c0,16,10.56,35.46,46.43,35.46,36.31,0,46.44-19.42,46.44-35.46,0-15.2-10.13-34.61-46.44-34.61C-3682.1-1381.67-3692.66-1362.26-3692.66-1347.06Z" transform="translate(4706.54 1651.46)"/><path class="cls-3" d="M-3688-1441.12c0-67.12,56.14-86.54,56.14-117.35,0-10.56-11.4-16.46-18.57-16.46-15.62,0-33.35,5.48-43.91,8.86-2.11.42-5.07-.84-5.49-3,0,0-14.77-54.88-16-57.4-0.84-2.53,0-4.65,3-5.49,22.79-7.6,45.16-14.35,71.33-14.35,67.12,0,96.25,35,96.25,82.31,0,65-59.52,79.36-59.52,122.84v19c0,3-2.53,5.07-5.91,5.07h-70.49c-3.8,0-6.33-2.11-6.76-5.07v-19Zm-4.65,62.89c0,16,10.56,35.46,46.43,35.46,36.31,0,46.44-19.42,46.44-35.46,0-15.2-10.13-34.61-46.44-34.61C-3682.1-1412.84-3692.66-1393.43-3692.66-1378.23Z" transform="translate(4706.54 1651.46)"/><path class="cls-4" d="M-3422.88-1307c36.31,0,46.44,19.41,46.44,34.61,0,16-10.13,35.46-46.44,35.46-35.87,0-46.43-19.42-46.43-35.46C-3469.3-1287.56-3458.75-1307-3422.88-1307Zm-30.82-6.76c-3.37,0-6.32-3-6.32-5.91l-6.33-208.1a6.49,6.49,0,0,1,6.33-6.33h74.29a6.49,6.49,0,0,1,6.33,6.33l-6.76,208.1c0,3-3,5.91-6.33,5.91h-61.21Z" transform="translate(4706.54 1651.46)"/><path class="cls-5" d="M-3450.53-1298.94a36.25,36.25,0,0,0,.36,4.87l39.21-39.21C-3441.32-1331-3450.53-1313.12-3450.53-1298.94Z" transform="translate(4706.54 1651.46)"/><path class="cls-5" d="M-3441.24-1560.65a6.49,6.49,0,0,0-6.33,6.33l0.7,23.13,29.46-29.46h-23.83Z" transform="translate(4706.54 1651.46)"/><polygon class="cls-5" points="1308.77 90.81 1260.25 139.33 1261.05 165.66 1335.89 90.81 1308.77 90.81"/><polygon class="cls-5" points="1341.1 245.53 1275.48 311.15 1302.6 311.15 1340.19 273.56 1341.1 245.53"/><path class="cls-5" d="M-3373.71-1340.31c3.38,0,6.33-3,6.33-5.91l0.37-11.39-17.29,17.29h10.59Z" transform="translate(4706.54 1651.46)"/><path class="cls-5" d="M-3391.89-1332.71l-52.83,52.83a34.4,34.4,0,0,0,15.21,11.91l57.6-57.6C-3376.91-1328.9-3383.42-1331.47-3391.89-1332.71Z" transform="translate(4706.54 1651.46)"/><polygon class="cls-5" points="1342.67 197.19 1264.39 275.48 1265.19 301.8 1341.76 225.23 1342.67 197.19"/><polygon class="cls-5" points="1344.24 148.86 1263.01 230.09 1263.81 256.42 1343.33 176.9 1344.24 148.86"/><polygon class="cls-5" points="1345.81 100.53 1261.63 184.71 1262.43 211.04 1344.9 128.56 1345.81 100.53"/><path class="cls-5" d="M-3357.66-1298.94a32.31,32.31,0,0,0-4.57-16.67l-51.55,51.55a84.11,84.11,0,0,0,9.68.58,73.76,73.76,0,0,0,19.17-2.3l26.7-26.7A36.82,36.82,0,0,0-3357.66-1298.94Z" transform="translate(4706.54 1651.46)"/><polygon class="cls-4" points="735.4 108.56 692.05 151.91 692.05 179.04 762.53 108.56 735.4 108.56"/><path class="cls-4" d="M-3923.3-1536.57a6.24,6.24,0,0,0-2.47-4.93l-88.72,88.72v27.13l91.18-91.18v-19.73Z" transform="translate(4706.54 1651.46)"/><polygon class="cls-4" points="783.24 225.07 783.24 201.02 692.05 292.2 692.05 319.33 786.32 225.07 783.24 225.07"/><polygon class="cls-4" points="783.24 154.26 692.05 245.44 692.05 272.56 783.24 181.38 783.24 154.26"/><path class="cls-4" d="M-3773-1366.9l-91.17,91.17v18.17a6.12,6.12,0,0,0,3.56,5.4l87.61-87.61v-27.12Z" transform="translate(4706.54 1651.46)"/><path class="cls-4" d="M-3929.64-1251.64a6.14,6.14,0,0,0,6.34-5.91v-5.83l-11.75,11.75h5.41Z" transform="translate(4706.54 1651.46)"/><path class="cls-4" d="M-3779.36-1251.64a6.13,6.13,0,0,0,6.32-5.91v-15.81l-21.72,21.72h15.4Z" transform="translate(4706.54 1651.46)"/><path class="cls-4" d="M-3858.29-1542.9a6.13,6.13,0,0,0-5.91,6.33v7.39l13.72-13.72h-7.81Z" transform="translate(4706.54 1651.46)"/><polygon class="cls-4" points="933.5 237.81 842.33 328.98 842.33 356.1 933.5 264.93 933.5 237.81"/><polygon class="cls-4" points="933.5 331.33 865.02 399.82 892.14 399.82 933.5 358.46 933.5 331.33"/><path class="cls-4" d="M-4008.57-1542.9c-3,0-5.91,2.95-5.91,6.33v17.38l23.71-23.71h-17.8Z" transform="translate(4706.54 1651.46)"/><polygon class="cls-4" points="842.33 299.36 842.33 309.34 933.5 218.17 933.5 191.04 825.19 299.36 842.33 299.36"/><path class="cls-4" d="M-3923.3-1352.11H-3901L-3773-1480.06v-27.12l-241.45,241.45v8.18a6.36,6.36,0,0,0,5.91,5.91h7.12l78.15-78.15v-22.32Z" transform="translate(4706.54 1651.46)"/><polygon class="cls-4" points="805.96 225.07 692.05 338.96 692.05 366.09 833.08 225.07 805.96 225.07"/><polygon class="cls-4" points="842.33 169.05 902.82 108.56 875.69 108.56 842.33 141.92 842.33 169.05"/><polygon class="cls-4" points="783.24 341.31 724.73 399.82 751.85 399.82 783.24 368.44 783.24 341.31"/><path class="cls-4" d="M-3864.2-1435.65l91.17-91.17v-9.75a6.2,6.2,0,0,0-6.32-6.33h-4.72l-80.12,80.12v27.12Z" transform="translate(4706.54 1651.46)"/></svg>