<svg id="Layer_1" data-name="Layer 1" xmlns="http://www.w3.org/2000/svg" viewBox="0 0 1066.61 490.97"><defs><style>.cls-1{fill:#6bd3c2;}.cls-2{fill:#00bea3;}.cls-3{fill:#00bae3;}.cls-4{fill:#00a8da;}.cls-5{fill:#95e2ef;}.cls-6{fill:#2280ba;}</style></defs><title>text_03</title><path class="cls-1" d="M-1220.76-5039.32c0,29.15-17.4,55.69-52.21,70-10,43.5-43.07,63.52-50.9,63.52-5.66,0-10-3.48-10-8.7a9.84,9.84,0,0,1,6.09-9.14c13.48-5.65,26.54-19.58,33.5-38.72-6.53,1.3-13.92,2.61-21.75,3.48a226.81,226.81,0,0,1-25.24,1.31c-55.69,0-102.24-27-102.24-68.31,0-32.63,31.76-58.3,72.66-58.3,56.56,0,98.76,39.59,100.06,93.54,19.58-10,30.89-28.72,30.89-48.73,0-41.33-32.63-57.43-80.06-73.52-39.15-13.49-77.88-27-77.88-69.18,0-32.63,29.59-65.26,87-65.26a110.94,110.94,0,0,1,28.28,3.92c12.18-10,28.28-16.1,46.55-16.1,5.65,0,10,3.91,10,9.57,0,4.78-4.78,7.83-10.44,7.83a49.9,49.9,0,0,0-27,7.83,68.79,68.79,0,0,1,8.27,6.53c13.92,13.49,16.09,27,16.09,37.42,0,15.66-11.74,30.89-29.15,30.89-19.14,0-35.68-16.1-35.68-39.59,0-10,3-21.32,8.27-29.15a95.77,95.77,0,0,0-15.67-1.74c-44.81,0-67,24.8-67,47.86,0,26.54,24.37,37.42,64.39,51.77C-1272.1-5115.46-1220.76-5097.19-1220.76-5039.32Zm-203.61,13.92c0,28.72,36.55,50.47,83.09,50.47,19.14,0,37-2.18,51.78-7,2.61-46.55-27.41-84-81.36-84C-1399.58-5065.86-1424.37-5048.89-1424.37-5025.4Zm146.62-197.52a42,42,0,0,0-7,23.93c0,12.18,7.83,21.76,16.54,21.76,6.53,0,10-6.09,10-13.06S-1259.48-5211.61-1277.76-5222.92Z" transform="translate(1514.4 5317.1)"/><path class="cls-2" d="M-1065-5050.2c0,58.3-26.1,88.76-55.69,88.76-26.1,0-37-21.75-37-27.84a9.38,9.38,0,0,1,9.57-9.57,10,10,0,0,1,8.7,4.79c3.05,6.09,7.4,14.36,18.71,14.36,20,0,36.11-24.8,36.11-70.48,0-13.92-5.23-45.25-26.11-45.25-34.8,0-67,65.26-68.74,151.84,44.81,0,72.22,37.42,72.22,74,0,29.58-14.79,43.5-36.55,43.5-34.37,0-54.38-42.2-54.82-95.71-10,3-17.84,12.62-19.14,19.58-0.44,2.61-4.36,4.79-8.27,4.79-5.23,0-7.83-3.92-7.83-8.7,0-10,11.31-28.28,35.24-34.37,0.87-102.24,38.73-173.6,87.88-173.6C-1080.7-5114.15-1065-5087.18-1065-5050.2Zm-61.78,181c0-27.41-19.58-57-52.65-56.12,0.44,53.95,19.14,81.79,35.25,81.79C-1131.61-4843.54-1126.82-4853.11-1126.82-4869.21Z" transform="translate(1514.4 5317.1)"/><path class="cls-3" d="M-921.93-5070.21c0,16.54-2.62,35.68-5.66,52.21-1.74,11.31-4.35,26.11-4.35,34.81a17.1,17.1,0,0,0,.87,5.65c0.87,1.74,1.74,3,1.74,5.22,0,4.78-4.78,9.13-10,9.13-9.57,0-12.18-12.18-12.18-20.88,0-9.14,2.61-21.32,4.78-37,2.61-16.1,5.66-33.06,5.66-48.29,0-20.88-11.32-28.72-22.63-28.72-33.06,0-57.86,50.47-57.86,90.06,0,16.1,7.4,27.41,18.71,27.41,11.74,0,20.44-10.44,24.79-22.19a8.93,8.93,0,0,1,8.27-5.65c5.66,0,9.13,4.35,9.13,9.57,0,7.4-13.92,36.55-45.25,36.55-17.4,0-35.24-13.05-35.24-45.68,0-45.25,31.33-108.34,79.18-108.34C-937.16-5116.33-921.93-5100.23-921.93-5070.21Z" transform="translate(1514.4 5317.1)"/><path class="cls-4" d="M-869.74-4970.58a9.41,9.41,0,0,1-9.58,8.26c-5.22,0-8.7-4.35-8.7-9.57,0-3,12.18-74.4,12.18-88.76,0-19.14-3.92-26.54-9.58-32.2-2.18-1.74-2.61-4.35-2.61-7,0-5.22,4.35-9.57,9.13-9.57,8.27,0,20.45,14.79,19.59,36.55,9.57-28.72,33.06-41.77,54.81-41.77,5.66,0,10.44,3.92,10.44,9.57,0,5.22-3.92,8.27-9.13,8.7-45.25,2.61-53.95,55.69-64,111.38Z" transform="translate(1514.4 5317.1)"/><path class="cls-3" d="M-744.47-4994.94c0,12.18,1.31,16.1,1.74,17.4a7.36,7.36,0,0,1,1.3,4.35,9.38,9.38,0,0,1-9.57,9.57c-12.18,0-13.05-19.14-13.05-31.32,0-9.14,1.3-21.32,3-33.5-21.75-7-30.89-20-30.89-33.07,0-19.58,15.66-35.24,43.07-35.24,1.74-10,4.35-21.32,6.09-29.15,8.7-39.59,13.92-61.78,13.92-79.62,0-8.7-.43-14.36-1.73-16.53a13.23,13.23,0,0,1-.87-3.48,9.61,9.61,0,0,1,6.09-9.13,10.4,10.4,0,0,1,3.92-.87c11.74,0,11.74,16.1,11.74,30,0,20.45-6.53,48.73-11.74,74-2.61,10.44-5.66,23.06-8.27,37.42,17,3.92,30.89,14.79,40.46,26.11,9.13-9.14,19.14-24.37,20.44-40.46,0.44-4.79,3.48-8.7,8.7-8.7a9.66,9.66,0,0,1,9.58,9.57c0,18.27-17,45.25-28.72,53.95,17.84,22.62,25.24,52.64,25.24,79.18,0,9.57-7.39,10.88-10,10.88-0.87,0-8.7,0-8.7-10.88,0-22.19-7.4-47.86-20.89-67a79.88,79.88,0,0,1-48.73,15.66A212.72,212.72,0,0,0-744.47-4994.94Zm-14.36-50.47c1.74-10.44,3.92-22.62,6.53-33.5-10.44.44-20.44,6.09-20.44,17.41a15.19,15.19,0,0,0,4.35,10.44A25.41,25.41,0,0,0-758.83-5045.41Zm20,2.61c14.35,0,27.84-5.22,36.1-13.05-6.53-9.14-18.7-18.27-30.45-21.32-2.61,10.88-4.78,23.06-6.53,34.37h0.87Z" transform="translate(1514.4 5317.1)"/><path class="cls-2" d="M-575.68-5236c11.75,0,11.75,16.1,11.75,30,0,20.45-7.4,48.73-13.49,74-9.57,39.15-23.06,101.81-23.06,136.61,0,12.18,1.31,16.1,1.74,17.41a7.31,7.31,0,0,1,1.31,4.35,9.38,9.38,0,0,1-9.58,9.57c-12.18,0-13.05-19.14-13.05-31.33,0-34.8,13.05-97.46,21.32-131,9.58-39.59,15.67-61.78,15.67-79.62,0-8.7-.44-14.36-1.74-16.54a13.53,13.53,0,0,1-.87-3.48,9.62,9.62,0,0,1,6.09-9.13A10.36,10.36,0,0,1-575.68-5236Z" transform="translate(1514.4 5317.1)"/><path class="cls-1" d="M-467.36-5080.22c0-8.7-6.09-14.79-17.4-14.79-21.75,0-52.65,27.84-52.65,74.4,0,14.79,4.78,41.33,36.11,41.33a39.89,39.89,0,0,0,30.45-14.36,8.46,8.46,0,0,1,7-3.48c5.22,0,8.7,4.35,8.7,10,0,8.27-20.89,25.67-47.42,25.67-33.07,0-54.39-22.19-54.39-59.17,0-54.82,38.29-93.11,72.66-93.11,26.1,0,36.55,16.1,36.55,33.5,0,34.37-36.11,51.34-61.78,51.34-5.22,0-9.57-3.48-9.57-9.13,0-4.79,3.92-9.14,9.57-9.57C-489.12-5048-467.36-5060.64-467.36-5080.22Z" transform="translate(1514.4 5317.1)"/><path class="cls-5" d="M-977.74-5144c-48.95,0-67.41,18.46-67.41,67.41,0-48.95-18.46-67.41-67.41-67.41,48.95,0,67.41-18.46,67.41-67.41C-1045.15-5162.43-1026.69-5144-977.74-5144Z" transform="translate(1514.4 5317.1)"/><path class="cls-1" d="M-810.38-4946.5c-26.08,0-35.91,9.84-35.91,35.91,0-26.08-9.84-35.91-35.91-35.91,26.08,0,35.91-9.84,35.91-35.91C-846.29-4956.33-836.45-4946.5-810.38-4946.5Z" transform="translate(1514.4 5317.1)"/><path class="cls-6" d="M-1338.4-5271c-33.46,0-46.08,12.62-46.08,46.08,0-33.46-12.62-46.08-46.08-46.08,33.46,0,46.08-12.62,46.08-46.08C-1384.48-5283.65-1371.86-5271-1338.4-5271Z" transform="translate(1514.4 5317.1)"/><path class="cls-3" d="M-512.38-4944.55c-39.53,0-54.44,14.91-54.44,54.44,0-39.53-14.91-54.44-54.44-54.44,39.53,0,54.44-14.91,54.44-54.44C-566.83-4959.46-551.92-4944.55-512.38-4944.55Z" transform="translate(1514.4 5317.1)"/><path class="cls-1" d="M-1405.51-5089.52c-39.53,0-54.44,14.91-54.44,54.44,0-39.53-14.91-54.44-54.44-54.44,39.53,0,54.44-14.91,54.44-54.44C-1460-5104.44-1445-5089.52-1405.51-5089.52Z" transform="translate(1514.4 5317.1)"/><path class="cls-3" d="M-500.67-5254.49c-33.39,0-46,12.59-46,46,0-33.38-12.59-46-46-46,33.39,0,46-12.59,46-46C-546.65-5267.08-534.05-5254.49-500.67-5254.49Z" transform="translate(1514.4 5317.1)"/></svg>