<svg id="Layer_1" data-name="Layer 1" xmlns="http://www.w3.org/2000/svg" viewBox="0 0 1003.57 323.97"><defs><style>.cls-1{fill:#ff7175;}.cls-2,.cls-3{fill:#ffab4c;}.cls-3{stroke:#ffad94;}.cls-3,.cls-7,.cls-8{stroke-miterlimit:10;stroke-width:8.22px;}.cls-4{fill:#f5dee9;}.cls-5{fill:#f4edcb;}.cls-6{fill:#fff;}.cls-7,.cls-8{fill:none;}.cls-7{stroke:#ffab4c;}.cls-8{stroke:#e36b07;}</style></defs><title>text_04</title><path class="cls-1" d="M-4338.42-4184.53c-44.6,5.67-92.47-11.21-92.47-64.66,0-28.32,16.95-50.82,26.13-52.18,7.71-1.15,9.29,6,10.68,12.35,3.43,15.64,9.81,44.48,52.71,39,16.25-2.08,33.74-10.37,33.74-24,0-14.21-18.24-19.71-37.93-23.29-68.27-12.42-77.38-42.63-77.38-71.47,0-26.09,17.63-78.82,84.82-87.36,44.93-5.71,81.5,14.68,81.5,30.32,0,10.58-16.95,45.17-31.87,46.83-5.83.65-10.07-3.12-15-7.46-7.36-6.52-17.45-15.46-34.65-13.27-9.84,1.25-25.44,7.77-25.44,19.69,0,13.92,21.82,18.41,36.27,21.52l3.65,0.8c54.72,11.59,80.32,37,80.32,77.73C-4243.32-4239.17-4273.17-4192.82-4338.42-4184.53Z" transform="translate(4430.9 4501.75)"/><path class="cls-2" d="M-4032.31-4212.88a20.71,20.71,0,0,1-8.35-1.17,11.5,11.5,0,0,1-7.4-11c0-1.74.45-3.66,1.79-9.34a535.22,535.22,0,0,0,15.12-125.9c0-.62,0-0.92,0-1.54,0.11-17-1-25.63-2.09-29.92-2.57,3.71-6.7,11.28-13,26.81l-0.85,2.1c-10.72,26.46-14.74,46.33-17.69,60.83-3.81,18.81-6.83,33.63-24.64,34.48-21.34,1-25.23-14.29-30.63-35.57-3.43-13.53-8-32.33-18.45-55.17-0.49-1.06-1.29-3-2.24-5.38-4.45-11.07-8.06-18.59-10.8-22.48-1.19,4.46-2.61,13.54-2.6,31.28a471.19,471.19,0,0,0,16.68,124.68c1.5,5.61,2,7.5,2,9.34,0,3-1.14,12.76-15.74,13.74l-3.17.16c-12.69.87-19,1.33-31.72,2.33l-2.07.21c-11.94.94-15.68-9.63-17.76-20.11-3.14-15.82-4.68-45.81-4.68-91.7,0-137.75,13-150.29,27.5-151.41,11.37-.87,17.05-1.28,28.43-2,14.73-1,21.32.48,36.89,20.89a236.18,236.18,0,0,1,28.49,47.72c4.83-10.69,13.44-28,31.78-50.94,17.21-21.52,24.11-23.69,38-24,10.12-.27,15.18-0.39,25.3-0.58,14.52-.26,27.57,11,27.57,148.79,0,102.9-6.85,113.69-22.5,113.95h-1.34c-16,.27-23.94.45-39.9,0.92Z" transform="translate(4430.9 4501.75)"/><path class="cls-1" d="M-3894.38-4214.12c-12-.13-15.71-11-17.8-21.7-3.15-16.1-4.69-46.23-4.69-92.12,0-137.75,13-149.12,27.57-148.93,13.79,0.17,20.68.3,34.46,0.62l2,0c15.11,0.36,16.28,10.39,16.28,13.44,0,1.57-.36,3-1.67,8.14-3.85,15.15-14.07,55.44-14.07,101A538.26,538.26,0,0,0-3839-4233.39c1.16,5.23,1.59,7.19,1.59,8.88,0,1.92-.61,11.44-12.69,11.14-16.87-.42-25.3-0.57-42.17-0.77Z" transform="translate(4430.9 4501.75)"/><path class="cls-3" d="M-3644.2-4202.13c-1.2-.1-2.37-0.26-3.4-0.4l-1.49-.18c-48.68-4.16-73.05-5.78-121.82-8.07-19.14-.9-19.16-15.49-19.17-44.67,0-9-.19-20.39-0.36-34.1-0.24-19.37,3.91-63.26,9.3-104,10.6-80,16.16-79.75,23.86-79.35,18.87,1,28.3,1.53,47.15,2.78,8.3,0.55,13.86,6.63,13.86,15.09,0,3-1.32,6.23-4.85,14.88-8.84,21.68-29.54,72.59-29.54,134.74,0,28.14,8.7,42.89,25.86,44.06,15,1,26.65-7.6,35.15-13.89,6.18-4.56,10.63-7.83,16.1-7.37,16.3,1.37,25.4,68.41,25.4,69.08C-3628.12-4211.37-3628.9-4200.8-3644.2-4202.13Z" transform="translate(4430.9 4501.75)"/><path class="cls-1" d="M-3446.39-4178.77c-54.52-8.22-81.86-11.73-136.62-17.57-19.07-2-19.09-16.62-19.1-45.8,0-9-.19-20.4-0.36-34.13-0.24-19.37,3.9-63,9.27-103.42,10.57-79.4,16.11-78.79,23.78-77.94,47,5.22,70.51,8.27,117.36,15.24l2.26,0.31c17.11,2.56,18.95,12.2,18.95,16.19,0,0.52-17.86,49.27-30.85,47.38-3.95-.58-7.05-3.1-10.35-5.77-5.76-4.66-14.46-11.72-32.4-14.09-15.54-2.05-33.71,4.2-33.71,28.07,0,5.89,1.22,8.6,1.65,9.09,1.69,0,7.22-1.48,12.1-2.73,10.91-2.82,25.86-6.61,42.68-4.27,10.68,1.49,21.45,7.53,21.45,17.5,0,0.57-15,54.58-28.23,52.77-2.37-.33-4.67-1.44-8.16-3.12-4.74-2.29-11.25-5.41-17.51-6.22-9.92-1.28-28.71,3.13-28.71,28.47,0,12.19,3.78,33,29,36.24,17.3,2.23,30.11-3.72,39.46-8,5.91-2.74,10.19-4.7,14.8-4,14.11,2.07,32.31,65.5,32.31,66.12,0,2.13-.73,12.62-15.21,10.42C-3443.42-4178.21-3446.39-4178.77-3446.39-4178.77Z" transform="translate(4430.9 4501.75)"/><path class="cls-4" d="M-4330.2-4233.61c-36.83,4.68-76.37-8.63-76.37-50.94a54.32,54.32,0,0,1,6.34-25.62c4.62,18.16,17.29,49.84,67.08,43.46,29.36-3.76,49.91-20.84,49.91-42.09,0-28.1-33.33-34.59-49.32-37.53-66.11-12.13-66-41.62-66-57.83,0-22,14.41-61.81,68.71-68.71,37.61-4.78,62.22,11.13,65.25,16.37-0.84,5.66-10.07,22.75-15.33,27.63-1.14-.88-2.63-2.21-3.83-3.28-8.29-7.38-22.19-19.75-46.09-16.72-20.68,2.63-41.58,16.74-41.58,38.11,0,25.54,29.55,31.51,47.24,35.29l3.55,0.77c61.46,12.92,69.4,41,69.4,63.37C-4251.29-4285.82-4268-4241.51-4330.2-4233.61Z" transform="translate(4430.9 4501.75)"/><path class="cls-5" d="M-4022.25-4264.07a553.73,553.73,0,0,0,15.57-129.57c0-.57,0-0.85,0-1.42,0.17-25.9-2.3-39.44-8.26-45.27a11.66,11.66,0,0,0-8.66-3.46c-11.09.33-19.48,15.69-29.44,40.37l-0.8,2c-11.33,28-15.71,49.66-18.6,63.95-4,19.81-5.12,20.68-8.73,20.85-7.84.38-9.23-1.88-14.87-24.15-3.57-14.09-8.37-33.6-19.33-57.74-0.51-1.13-1.19-2.8-2-4.84-7.76-19.37-15.19-35.34-27.26-34.52a13,13,0,0,0-8.68,4.32c-4.12,4.41-8.82,13.76-8.8,47a486.15,486.15,0,0,0,17.2,128.65c0.18,0.65.34,1.26,0.49,1.82l-1.69.08c-12.69.87-19,1.33-31.72,2.33l-1.48.15c-2.37-3.76-6.82-20.94-6.82-96.9,0-111.16,9.17-130.59,11.86-133.88l27.86-2c9.87-.68,11.67-0.8,23.78,15a221.73,221.73,0,0,1,27.08,45.4c4.22,9.14,7.27,15.75,15,15.38,6.77-.32,9.32-6.09,12.55-13.39,4.13-9.35,11.82-26.81,31.32-51.11,14-17.39,16.65-17.45,25.5-17.68,9.89-.26,14.83-0.37,24.72-0.55,2.7,3,11.89,21.57,11.89,132.75,0,76-4.46,93.56-6.84,97.55h-1.48c-15.2.26-22.8,0.43-38,.87l-1.81.08C-4022.59-4262.64-4022.42-4263.33-4022.25-4264.07Z" transform="translate(4430.9 4501.75)"/><path class="cls-4" d="M-3893.79-4263.21c-2.37-4-6.84-21.55-6.84-97.51,0-111.16,9.19-129.76,11.89-132.82l32.66,0.59,2.37,0-0.27,1c-4,15.63-14.56,57.45-14.56,105a552.53,552.53,0,0,0,13.65,123.75c0,0.2.09,0.4,0.12,0.59-15-.35-22.52-0.48-37.54-0.65h-1.49Z" transform="translate(4430.9 4501.75)"/><path class="cls-5" d="M-3657.3-4251.8c-48.68-4.16-73.06-5.78-121.83-8.07a6.66,6.66,0,0,1-2-.27c-0.95-2-1-13.78-1-27.47,0-9.13-.19-20.63-0.36-34.51-0.58-47.1,16.34-154.33,21.06-167.22,15.91,0.84,23.86,1.31,39.76,2.35-0.74,1.93-1.79,4.5-2.81,7-9.17,22.56-30.69,75.54-30.69,140.78,0,51,26.38,60.12,42.1,61.19,20.78,1.41,35.61-9.5,45.42-16.71,0.94-.69,2-1.49,3.06-2.22,3.81,10.9,9.22,34.92,11.28,45.65C-3653.86-4251.37-3656.67-4251.75-3657.3-4251.8Z" transform="translate(4430.9 4501.75)"/><path class="cls-4" d="M-3454.61-4227.85c-54.53-8.22-81.86-11.73-136.62-17.57a6.89,6.89,0,0,1-2-.39c-0.94-2-1-13.84-1-27.53,0-9.13-.19-20.63-0.36-34.54-0.47-39,13.78-146.62,21-166,45.51,5.11,68.23,8.08,113.58,14.83,0,0,2.81.4,3.19,0.47-3.44,7.61-10.82,22-15.18,28.72-6.6-5.35-18.6-14.68-40.74-17.61-24-3.17-49.88,9-49.88,42.35,0,23.06,13.33,26.43,17.41,26.92,5.08,0.62,10.9-.9,18.27-2.79,10.28-2.63,23.07-5.86,36.9-3.93a22.37,22.37,0,0,1,4.14,1.05c-3.23,8.87-10.29,27.23-14.24,35.09-5.5-2.66-13.61-6.48-22.35-7.61-21.74-2.8-44.88,11.45-44.88,42.78,0,29.67,17.75,50.8,45.17,54.33,21.78,2.81,38.06-4.7,47.78-9.17,1.28-.59,2.72-1.25,4-1.79,4.79,9.3,13.63,32,17.27,42.61Z" transform="translate(4430.9 4501.75)"/><path class="cls-6" d="M-4336.54-4386.52c-16.48-4.31-34.95-12.26-34.95-32.45,0-21.37,20.9-35.49,41.58-38.11,23.9-3,37.8,9.34,46.09,16.72,1.2,1.07,2.69,2.4,3.83,3.28,5.26-4.88,14.49-22,15.33-27.63-3-5.24-27.64-21.15-65.25-16.37-54.3,6.9-68.71,46.72-68.71,68.71,0,9,0,22.06,11.29,34Q-4362-4382.79-4336.54-4386.52Z" transform="translate(4430.9 4501.75)"/><path class="cls-6" d="M-4161.94-4405c0.86-25,5-32.9,8.63-36.81a13,13,0,0,1,8.68-4.32c12.07-.82,19.49,15.15,27.26,34.52,0.63,1.57,1.14,2.82,1.59,3.87q31.07-1.58,62.18-2.5l0.58-1.43c10-24.68,18.35-40,29.44-40.37a11.66,11.66,0,0,1,8.66,3.46c5.32,5.19,7.84,16.59,8.21,37.33q15.8-.23,31.59-0.32c-2-73.39-9-87.36-11.35-89.95-9.89.18-14.84,0.29-24.72,0.55-8.86.23-11.55,0.29-25.5,17.68-19.5,24.3-27.19,41.77-31.32,51.11-3.23,7.3-5.77,13.07-12.55,13.39-7.7.37-10.76-6.24-15-15.38a221.73,221.73,0,0,0-27.08-45.4c-12.11-15.82-13.91-15.7-23.78-15l-27.86,2c-2.28,2.79-9.22,17.22-11.28,89.28Q-4173.75-4404.18-4161.94-4405Z" transform="translate(4430.9 4501.75)"/><path class="cls-6" d="M-3868.14-4411.08c1.93-40.74,10.59-75.17,14.16-89l0.27-1-2.37,0-32.66-.59c-2.31,2.61-9.37,16.68-11.36,90.37Q-3884.14-4411.28-3868.14-4411.08Z" transform="translate(4430.9 4501.75)"/><path class="cls-6" d="M-3749.32-4407c7-37.11,18.75-66,24.91-81.19,1-2.52,2.07-5.09,2.81-7-15.9-1-23.85-1.51-39.76-2.35-2.77,7.57-9.75,47.7-14.92,89.08Q-3762.79-4407.85-3749.32-4407Z" transform="translate(4430.9 4501.75)"/><path class="cls-6" d="M-3543.33-4376q23,6.11,45.83,13.54c4-9,9.07-22.36,11.68-29.55a22.37,22.37,0,0,0-4.14-1.05c-13.84-1.93-26.62,1.29-36.9,3.93-7.37,1.89-13.2,3.4-18.27,2.79-4.08-.5-17.41-3.86-17.41-26.92,0-33.35,25.87-45.52,49.88-42.35,22.14,2.92,34.14,12.26,40.74,17.61,4.36-6.7,11.73-21.1,15.18-28.72-0.38-.07-3.19-0.47-3.19-0.47-45.35-6.75-68.07-9.72-113.58-14.83-4.29,11.52-11.07,54.32-15.76,95.3C-3573.89-4383.6-3558.56-4380.07-3543.33-4376Z" transform="translate(4430.9 4501.75)"/><path class="cls-7" d="M-4330.2-4201c-44.6,5.67-92.47-11.21-92.47-64.66,0-28.32,16.95-50.82,26.13-52.18,7.71-1.15,9.29,6,10.68,12.35,3.43,15.64,9.81,44.48,52.71,39,16.25-2.08,33.74-10.37,33.74-24,0-14.21-18.24-19.71-37.93-23.29-68.27-12.42-77.38-42.63-77.38-71.47,0-26.09,17.63-78.82,84.82-87.36,44.93-5.71,81.5,14.68,81.5,30.32,0,10.58-16.95,45.17-31.87,46.83-5.83.65-10.07-3.12-15-7.46-7.36-6.52-17.45-15.46-34.65-13.28-9.84,1.25-25.44,7.77-25.44,19.69,0,13.92,21.82,18.41,36.27,21.52l3.65,0.8c54.72,11.59,80.32,37,80.32,77.73C-4235.1-4255.61-4264.95-4209.26-4330.2-4201Z" transform="translate(4430.9 4501.75)"/><path class="cls-8" d="M-4024.09-4229.32a20.73,20.73,0,0,1-8.35-1.17,11.5,11.5,0,0,1-7.4-11c0-1.74.45-3.66,1.79-9.34a535.22,535.22,0,0,0,15.12-125.9c0-.62,0-0.92,0-1.54,0.11-17-1-25.63-2.09-29.92-2.57,3.71-6.7,11.28-13,26.81l-0.85,2.1c-10.72,26.46-14.74,46.33-17.69,60.83-3.81,18.81-6.83,33.63-24.64,34.48-21.34,1-25.23-14.29-30.63-35.57-3.43-13.53-8-32.33-18.45-55.17-0.49-1.06-1.29-3-2.24-5.38-4.45-11.07-8.06-18.59-10.8-22.48-1.19,4.46-2.61,13.54-2.6,31.28a471.16,471.16,0,0,0,16.68,124.68c1.49,5.61,2,7.5,2,9.34,0,3-1.14,12.76-15.74,13.74l-3.17.16c-12.69.87-19,1.33-31.72,2.33l-2.07.21c-11.94.94-15.67-9.63-17.76-20.11-3.14-15.82-4.68-45.81-4.68-91.7,0-137.75,13-150.29,27.5-151.41,11.37-.87,17.05-1.28,28.43-2,14.73-1,21.32.48,36.89,20.89A236.15,236.15,0,0,1-4081-4417.5c4.83-10.69,13.44-28,31.78-50.94,17.21-21.52,24.11-23.69,38-24,10.12-.27,15.18-0.39,25.3-0.58,14.52-.26,27.57,11,27.57,148.79,0,102.9-6.85,113.69-22.5,113.94h-1.34c-16,.27-23.94.45-39.9,0.92Z" transform="translate(4430.9 4501.75)"/><path class="cls-7" d="M-3894.38-4230.55c-12-.13-15.71-11-17.8-21.7-3.15-16.1-4.69-46.23-4.69-92.12,0-137.75,13-149.12,27.57-148.93,13.79,0.17,20.68.3,34.46,0.62l2,0c15.11,0.36,16.28,10.39,16.28,13.44,0,1.57-.36,3-1.67,8.14-3.85,15.15-14.07,55.44-14.07,101A538.26,538.26,0,0,0-3839-4249.83c1.16,5.23,1.59,7.19,1.59,8.88,0,1.92-.61,11.44-12.69,11.14-16.87-.42-25.3-0.57-42.17-0.77Z" transform="translate(4430.9 4501.75)"/><path class="cls-8" d="M-3652.41-4218.57c-1.2-.1-2.37-0.26-3.4-0.4l-1.49-.18c-48.68-4.16-73.05-5.78-121.82-8.07-19.14-.9-19.16-15.49-19.17-44.67,0-9-.19-20.39-0.36-34.1-0.24-19.37,3.91-63.26,9.3-104,10.6-80,16.16-79.75,23.86-79.35,18.87,1,28.3,1.53,47.15,2.78,8.3,0.55,13.86,6.63,13.86,15.09,0,3-1.32,6.23-4.85,14.88-8.84,21.68-29.54,72.59-29.54,134.74,0,28.14,8.7,42.89,25.86,44.06,15,1,26.65-7.6,35.15-13.89,6.18-4.56,10.63-7.83,16.1-7.37,16.3,1.37,25.4,68.41,25.4,69.08C-3636.34-4227.81-3637.12-4217.24-3652.41-4218.57Z" transform="translate(4430.9 4501.75)"/><path class="cls-7" d="M-3454.61-4195.21c-54.52-8.22-81.86-11.73-136.62-17.57-19.07-2-19.09-16.62-19.1-45.8,0-9-.19-20.4-0.36-34.13-0.24-19.37,3.9-63,9.27-103.42,10.57-79.4,16.11-78.79,23.78-77.94,47,5.22,70.51,8.27,117.36,15.24l2.26,0.31c17.11,2.56,18.95,12.2,18.95,16.2,0,0.52-17.86,49.27-30.85,47.38-3.95-.58-7.05-3.1-10.35-5.77-5.76-4.66-14.46-11.72-32.4-14.09-15.54-2.05-33.71,4.2-33.71,28.07,0,5.89,1.22,8.6,1.65,9.09,1.69,0,7.22-1.48,12.1-2.73,10.91-2.82,25.86-6.61,42.68-4.27,10.68,1.49,21.45,7.53,21.45,17.5,0,0.57-15,54.58-28.23,52.77-2.37-.33-4.67-1.44-8.16-3.12-4.74-2.29-11.25-5.41-17.51-6.22-9.92-1.28-28.71,3.13-28.71,28.47,0,12.19,3.78,33,29,36.24,17.3,2.23,30.11-3.72,39.46-8,5.91-2.74,10.19-4.7,14.8-4,14.11,2.07,32.31,65.5,32.31,66.12,0,2.13-.73,12.62-15.21,10.42C-3451.64-4194.65-3454.61-4195.21-3454.61-4195.21Z" transform="translate(4430.9 4501.75)"/></svg>