<svg id="Layer_1" data-name="Layer 1" xmlns="http://www.w3.org/2000/svg" viewBox="0 0 1120.28 339.69"><defs><style>.cls-1{fill:#00bae3;}.cls-2{fill:#9be7d8;}.cls-3{fill:#2280ba;}.cls-4{fill:#0098ce;}.cls-5{fill:#95e2ef;}.cls-6{fill:#d9f4eb;}.cls-7{fill:#8acdc7;}</style></defs><title>text_05</title><path class="cls-1" d="M-2297.84-4473.72h48.77l77.13,203.32h-64l-6.7-18.29h-61.58l-6.7,18.29h-64Zm-31.71,178.94,5.8-15.24h100.59l5.8,15.24h8.53l-58.83-154.55h-11.59l-58.83,154.55h8.53Zm56.09-147.24,47.56,124.68H-2321Zm13.72,108.52-13.72-35.67-13.72,35.67h27.44Z" transform="translate(2960.96 4550.6)"/><path class="cls-1" d="M-2709-4473.72h70.11a120.87,120.87,0,0,1,36.12,5.18,84.11,84.11,0,0,1,28.81,15.24,69.87,69.87,0,0,1,19.06,24.84q6.86,14.79,6.85,34,0,15.25-4.26,25.91a79.22,79.22,0,0,1-9.46,17.68,65.78,65.78,0,0,1-13.72,13.41l38.11,67.06h-76.21l-30.49-51.52v51.52H-2709v-203.32Zm63.41,132.6a109.09,109.09,0,0,0,23.17-2.44l29,48.77h9.45l-30.49-51.21q16.46-5.79,26.22-17.83t9.76-31.25q0-13.41-5.19-23.47a49.65,49.65,0,0,0-14.18-16.92,63.49,63.49,0,0,0-21.18-10.36,95.76,95.76,0,0,0-26.52-3.51h-32.93v154.55h7.92v-46.34h25Zm-25-7.32V-4442h25q27.73,0,43.43,12.19t15.7,34.75q0,22.56-15.7,34.6t-43.43,12h-25Zm26.52-25.3h3.36q11.58,0,19.67-5.18t8.07-17.38q0-12.18-8.07-17.37t-19.67-5.18h-3.36v45.11Z" transform="translate(2960.96 4550.6)"/><circle class="cls-2" cx="571.29" cy="320.91" r="18.78"/><circle class="cls-2" cx="722.48" cy="320.91" r="18.78"/><circle class="cls-2" cx="655.81" cy="315.04" r="24.65"/><circle class="cls-2" cx="685.96" cy="315.04" r="24.65"/><circle class="cls-2" cx="611.14" cy="285.78" r="53.91"/><path class="cls-3" d="M-2511.28-4459.35l119.73,4.18-1.86,53.31-54.84-1.91-0.79,22.55,53.93,1.88-1.77,50.57-53.93-1.88-0.82,23.46,57,2-1.86,53.31-121.86-4.26Zm93.07,182.3,0.26-7.31-60.93-2.13,2.33-66.72,57.89,2,0.26-7.31-57.89-2,2.3-65.81,60.93,2.13,0.26-7.31-68.85-2.4-5.39,154.46Z" transform="translate(2960.96 4550.6)"/><path class="cls-4" d="M-2154.43-4453.5l53.62-1.87,55.73,76.14,50-79.83,53.62-1.87,7.1,203.2-64.9,2.27-2.55-73.11-39.31,62.38-43.87-59.47,2.55,73.11-64.89,2.27ZM-2109.8-4276l-4.88-139.84,71.71,96.94,64.47-101.69,4.88,139.84,7.93-.28-5.39-154.46-7.93.28-64.44,102.61-71.74-97.85-7.92.28,5.39,154.46Z" transform="translate(2960.96 4550.6)"/><circle class="cls-5" cx="307.47" cy="308.79" r="15.58"/><circle class="cls-5" cx="388.47" cy="308.79" r="15.58"/><circle class="cls-5" cx="323.05" cy="303.92" r="20.45"/><circle class="cls-5" cx="357.66" cy="294.97" r="29.4"/><circle class="cls-5" cx="1023.69" cy="58.82" r="15.58"/><circle class="cls-5" cx="1104.7" cy="58.82" r="15.58"/><circle class="cls-5" cx="1039.27" cy="53.94" r="20.45"/><circle class="cls-5" cx="1073.89" cy="45" r="29.4"/><path class="cls-3" d="M-2915.43-4250.93l-7.1-203.2,56.36-2q28.64-1,51.25,4.62t38.45,17.87a82.84,82.84,0,0,1,24.57,31q8.73,18.77,9.61,43.74t-6.53,44.3a82.8,82.8,0,0,1-22.34,32.66q-14.94,13.33-37.11,20.66t-50.8,8.33Zm29.62-25.43,25.89-.9q44.47-1.55,66.47-22.6t20.7-57.92q-1.29-36.86-24.68-56.18t-67.88-17.76l-25.89.9Zm7.66-7.59-4.88-139.84,18-.63q38.69-1.35,60.78,15.42t23.3,51.5q1.21,34.73-19.64,53.15t-59.55,19.77Zm25.59-27.13q22.85-.8,35-12t11.34-33.49q-0.78-22.24-13.64-32.47t-35.72-9.43Z" transform="translate(2960.96 4550.6)"/><circle class="cls-5" cx="-2418.77" cy="-4459.07" r="13" transform="translate(5405.56 1534.24) rotate(-45)"/><circle class="cls-5" cx="-2440.9" cy="-4464.85" r="18.78" transform="translate(5403.17 1516.9) rotate(-45)"/><circle class="cls-6" cx="218.36" cy="112.73" r="55.34"/><circle class="cls-6" cx="139.32" cy="84.03" r="84.03"/><path class="cls-7" d="M-2755.23-4460.94a56.76,56.76,0,0,1-49.49,56.26,57.05,57.05,0,0,0,7.3.52,56.78,56.78,0,0,0,56.78-56.78,56.78,56.78,0,0,0-56.78-56.78,57.05,57.05,0,0,0-7.3.52A56.76,56.76,0,0,1-2755.23-4460.94Z" transform="translate(2960.96 4550.6)"/><circle class="cls-6" cx="282.18" cy="148.79" r="19.28"/><circle class="cls-6" cx="19.28" cy="148.79" r="19.28"/><circle class="cls-6" cx="262.9" cy="142.76" r="25.3"/><circle class="cls-6" cx="57.39" cy="131.7" r="36.37"/><path class="cls-7" d="M-2706.17-4410.39a22.09,22.09,0,0,1-19.27,21.91,22.23,22.23,0,0,0,2.84.2,22.1,22.1,0,0,0,22.11-22.11,22.14,22.14,0,0,0-22.13-22.12,22.22,22.22,0,0,0-2.84.2A22.13,22.13,0,0,1-2706.17-4410.39Z" transform="translate(2960.96 4550.6)"/><circle class="cls-6" cx="773.11" cy="127.34" r="44.73"/><circle class="cls-6" cx="721.53" cy="156.49" r="15.58"/><circle class="cls-6" cx="860.07" cy="156.49" r="15.58"/><circle class="cls-6" cx="737.11" cy="151.61" r="20.45"/><circle class="cls-6" cx="829.26" cy="142.67" r="29.4"/><path class="cls-7" d="M-2157-4407.93a22.09,22.09,0,0,1,19.27-21.91,22.23,22.23,0,0,0-2.84-.2,22.1,22.1,0,0,0-22.11,22.11,22.14,22.14,0,0,0,22.13,22.12,22.23,22.23,0,0,0,2.84-.2A22.13,22.13,0,0,1-2157-4407.93Z" transform="translate(2960.96 4550.6)"/><path class="cls-7" d="M-2213.89-4428.6a35.65,35.65,0,0,1,31.1-35.36,35.88,35.88,0,0,0-4.59-.33,35.67,35.67,0,0,0-35.69,35.69,35.73,35.73,0,0,0,35.72,35.71,35.87,35.87,0,0,0,4.59-.33A35.72,35.72,0,0,1-2213.89-4428.6Z" transform="translate(2960.96 4550.6)"/></svg>