<svg id="Layer_1" data-name="Layer 1" xmlns="http://www.w3.org/2000/svg" viewBox="0 0 1193.72 288.1"><defs><style>.cls-1{fill:#8ae872;}.cls-2{fill:#29c7b0;}.cls-3{fill:#b9eea3;}.cls-4{fill:#aeeadd;}.cls-5{fill:#00addc;}</style></defs><title>text_08</title><path class="cls-1" d="M-2141.1-3690.77a14.74,14.74,0,0,0-6.82-8.31c-13.75-7.54-27.66,2.22-27.66,15.23h0c0-13.17-14.21-23.76-28.14-15.31a14.82,14.82,0,0,0-5.7,6.32c-3.38,7.14-2.22,14.2,1.52,19.24l29,31.55a4.49,4.49,0,0,0,6.59,0l27-29.07C-2140.86-3676.81-2138.14-3681.85-2141.1-3690.77Z" transform="translate(2955.08 3703.69)"/><path class="cls-1" d="M-2564.91-3601.59a4.78,4.78,0,0,1,1.53-5.79c17.38-11,41.77-17.38,66.16-17.38,52.75,0,77.14,27.74,77.14,88.42v79a4.68,4.68,0,0,1-4.57,4.58h-38.42a5,5,0,0,1-4.88-4.58l-2.14-8.23c-10.06,10.67-30.18,17.38-52.44,17.38-35.06,0-58.23-22.56-57.93-56.1,0.31-29.88,23.47-49.7,57.93-49.7,17.68,0,33.54,6.41,39.64,16.16v-12.81c0-13.11-9.46-21.65-23.48-21.65a79.9,79.9,0,0,0-36.59,9.76c-1.53.92-3.36-.31-4.58-2.44Zm82,93.91c-5.19-5.19-10.37-7.63-16.77-7.63-7.63,0-12.81,4.27-12.81,11s5.19,11,12.81,11c6.4,0,11.58-2.44,16.77-7.62v-6.71Z" transform="translate(2955.08 3703.69)"/><path class="cls-2" d="M-2806.64-3631.76c9.76-10.67,27.44-17.07,47.87-17.07,21.95,0,38.72,8.84,45.42,24.08,11.9-15.24,31.41-24.08,52.75-24.08,40.85,0,64.94,25,64.94,67.08v73.48a31.4,31.4,0,0,1-31.4,31.4h0a31.4,31.4,0,0,1-31.4-31.4v-64.33c-0.61-12.2-5.79-19.21-14.94-19.21-17.38,0-20.12,17.07-19.82,17.07v93.6a4.27,4.27,0,0,1-4.27,4.27h-54.27a4.27,4.27,0,0,1-4.27-4.27v-91.46c0-13.11-5.79-19.21-14.94-19.21-17.38,0-20.12,17.07-20.12,17.07v66.47a31.4,31.4,0,0,1-31.4,31.4h0a31.4,31.4,0,0,1-31.4-31.4v-132a4.27,4.27,0,0,1,4.27-4.27h34.15a5,5,0,0,1,4.88,3.05Z" transform="translate(2955.08 3703.69)"/><path class="cls-3" d="M-2806.64-3662.6c9.76-10.67,27.44-17.07,47.87-17.07,21.95,0,38.72,8.84,45.42,24.08,11.9-15.24,31.41-24.08,52.75-24.08,40.85,0,64.94,25,64.94,67.08v73.48a31.4,31.4,0,0,1-31.4,31.4h0a31.4,31.4,0,0,1-31.4-31.4v-64.33c-0.61-12.2-5.79-19.21-14.94-19.21-17.38,0-20.12,17.07-19.82,17.07v93.6a4.27,4.27,0,0,1-4.27,4.27h-54.27A4.27,4.27,0,0,1-2756-3512v-91.46c0-13.11-5.79-19.21-14.94-19.21-17.38,0-20.12,17.07-20.12,17.07v66.47a31.4,31.4,0,0,1-31.4,31.4h0a31.4,31.4,0,0,1-31.4-31.4v-132a4.27,4.27,0,0,1,4.27-4.27h34.15a5,5,0,0,1,4.88,3.05Z" transform="translate(2955.08 3703.69)"/><path class="cls-2" d="M-2564.91-3625.66a4.78,4.78,0,0,1,1.53-5.79c17.38-11,41.77-17.38,66.16-17.38,52.75,0,77.14,27.74,77.14,88.42v79a4.68,4.68,0,0,1-4.57,4.58h-38.42a5,5,0,0,1-4.88-4.58l-2.14-8.23c-10.06,10.67-30.18,17.38-52.44,17.38-35.06,0-58.23-22.56-57.93-56.1,0.31-29.88,23.47-49.7,57.93-49.7,17.68,0,33.54,6.41,39.64,16.16v-12.81c0-13.11-9.46-21.65-23.48-21.65a79.9,79.9,0,0,0-36.59,9.76c-1.53.92-3.36-.31-4.58-2.44Zm82,93.91c-5.19-5.19-10.37-7.63-16.77-7.63-7.63,0-12.81,4.27-12.81,11s5.19,11,12.81,11c6.4,0,11.58-2.44,16.77-7.62v-6.71Z" transform="translate(2955.08 3703.69)"/><path class="cls-3" d="M-2292.38-3498.83c-4.88,9.76-19.51,16.16-36.59,16.16-44.52,0-74.09-32-74.09-80.19,0-54,27.44-86,74.09-86,23.48,0,42.08,6.4,50,17.38l5.49-8.54c1.83-2.75,4.58-4.58,7-4.58h32.32a4.32,4.32,0,0,1,4.58,4.58v147.57c0,46-41.77,76.83-93.6,76.83-30.19,0-57-7-72-19.21-1.83-1.53-2.44-3.66-1.83-5.19l15.56-37.81c0.92-2.14,2.74-3.05,4.57-1.83,13.12,10.67,33.24,17.08,53.67,17.08,19.21,0,30.79-10.06,30.79-27.44v-8.84Zm0-79.27s-4.58-13.72-21-13.72c-15.24,0-24.09,10.67-24.09,29s8.85,29.27,24.09,29.27c16.46,0,21-13.72,21-13.72v-30.79Z" transform="translate(2955.08 3703.69)"/><path class="cls-2" d="M-2148.81-3611.69a4.65,4.65,0,0,1,4.58,4.27v99.14a31.5,31.5,0,0,1-31.4,31.4h0a31.5,31.5,0,0,1-31.4-31.4v-99.14a4.65,4.65,0,0,1,4.58-4.27h53.66Z" transform="translate(2955.08 3703.69)"/><path class="cls-2" d="M-2075-3656.42c9.76-10.67,30.49-17.07,49.09-17.07,41.46,0,64,19.21,64,66.77V-3446a4.59,4.59,0,0,1-4.58,4.58h-53.66a4.24,4.24,0,0,1-4.27-4.58v-151.27c0-12.2-5.48-19.21-14.94-19.21-17.38,0-20.12,17.07-20.12,17.07v66.47a31.5,31.5,0,0,1-31.4,31.4h0a31.5,31.5,0,0,1-31.4-31.4v-132a4.27,4.27,0,0,1,4.27-4.27h34.15a5,5,0,0,1,4.88,3.05Z" transform="translate(2955.08 3703.69)"/><path class="cls-3" d="M-2075-3631.76c9.76-10.67,30.49-17.07,49.09-17.07,41.46,0,64,19.21,64,66.77v160.72a4.59,4.59,0,0,1-4.58,4.58h-53.66a4.24,4.24,0,0,1-4.27-4.58v-151.27c0-12.2-5.48-19.21-14.94-19.21-17.38,0-20.12,17.07-20.12,17.07v66.47a31.5,31.5,0,0,1-31.4,31.4h0a31.5,31.5,0,0,1-31.4-31.4v-132a4.27,4.27,0,0,1,4.27-4.27h34.15a5,5,0,0,1,4.88,3.05Z" transform="translate(2955.08 3703.69)"/><path class="cls-4" d="M-1775.09-3493.95c0.61,2.14,0,3.35-2.14,4.57-16.16,10.67-39.64,17.08-63.11,17.08-54,0-89.94-35.37-89.94-88.11,0-53.05,35.37-88.42,88.41-88.42,50.62,0,80.49,32.62,80.49,88.11a69.53,69.53,0,0,1-1.22,13.72q-0.46,3.66-4.58,3.66H-1865s0,19.21,25.61,19.21c15.55,0,32.93-3.66,46.65-10.06,2.14-.92,4,0.31,4.57,2.44Zm-47-81.41c0-13.42-8.23-22.26-20.43-22.26-13.72,0-22.87,8.84-22.87,22.26h43.3Z" transform="translate(2955.08 3703.69)"/><path class="cls-5" d="M-1791.52-3513.25c0.61,2.14,0,3.35-2.14,4.57-16.16,10.67-39.64,17.08-63.11,17.08-54,0-89.94-35.37-89.94-88.11,0-53.05,35.37-88.42,88.41-88.42,50.62,0,80.49,32.62,80.49,88.11a69.53,69.53,0,0,1-1.22,13.72q-0.46,3.66-4.58,3.66h-97.87s0,19.21,25.61,19.21c15.55,0,32.93-3.66,46.65-10.06,2.14-.92,4,0.31,4.57,2.44Zm-47-81.41c0-13.42-8.23-22.26-20.43-22.26-13.72,0-22.87,8.84-22.87,22.26h43.3Z" transform="translate(2955.08 3703.69)"/><path class="cls-2" d="M-2141.1-3675.83a14.74,14.74,0,0,0-6.82-8.31c-13.75-7.54-27.66,2.22-27.66,15.23h0c0-13.17-14.21-23.76-28.14-15.31a14.82,14.82,0,0,0-5.7,6.32c-3.38,7.14-2.22,14.2,1.52,19.24l29,31.55a4.49,4.49,0,0,0,6.59,0l27-29.07C-2140.86-3661.87-2138.14-3666.9-2141.1-3675.83Z" transform="translate(2955.08 3703.69)"/><path class="cls-4" d="M-2950.51-3568.88a4.65,4.65,0,0,1-4.58-4.27v-126a4.69,4.69,0,0,1,4.58-4.58h53.66a4.69,4.69,0,0,1,4.58,4.58v126a4.65,4.65,0,0,1-4.58,4.27h-53.66Z" transform="translate(2955.08 3703.69)"/><path class="cls-5" d="M-2934.07-3552.44a4.65,4.65,0,0,1-4.58-4.27v-126a4.69,4.69,0,0,1,4.58-4.58h53.66a4.69,4.69,0,0,1,4.58,4.58v126a4.65,4.65,0,0,1-4.58,4.27h-53.66Z" transform="translate(2955.08 3703.69)"/><path class="cls-5" d="M-2941.78-3488.29A14.74,14.74,0,0,0-2935-3480c13.75,7.54,27.66-2.22,27.66-15.23h0c0,13.17,14.21,23.76,28.14,15.31a14.82,14.82,0,0,0,5.7-6.32c3.38-7.14,2.22-14.2-1.52-19.24l-29-31.55a4.49,4.49,0,0,0-6.59,0l-27,29.07C-2942-3502.26-2944.74-3497.22-2941.78-3488.29Z" transform="translate(2955.08 3703.69)"/><path class="cls-5" d="M-2016.22-3409.84" transform="translate(2955.08 3703.69)"/></svg>