<svg id="Layer_1" data-name="Layer 1" xmlns="http://www.w3.org/2000/svg" viewBox="0 0 1202.74 458.44"><defs><style>.cls-1{fill:#5cd511;}.cls-2{fill:#d4ff66;}.cls-3{fill:#004f33;}.cls-4{fill:#009fa2;}.cls-5{fill:none;stroke:#fff;stroke-linecap:round;stroke-linejoin:round;stroke-width:10.25px;}</style></defs><title>text_15</title><path class="cls-1" d="M-1576.55-1214.47c-109.69,0-186.29-77.24-186.29-187.82,0-111,76.6-188.58,186.29-188.58s186.29,77.55,186.29,188.58C-1390.25-1291.7-1466.86-1214.47-1576.55-1214.47Zm0-195.35a29.34,29.34,0,0,0-.84,7.53,29.34,29.34,0,0,0,.84,7.53,29.34,29.34,0,0,0,.84-7.53A29.34,29.34,0,0,0-1576.55-1409.82Z" transform="translate(1762.84 1672.91)"/><path class="cls-2" d="M-1576.55-1235c-109.69,0-186.29-77.24-186.29-187.82,0-111,76.6-188.58,186.29-188.58s186.29,77.55,186.29,188.58C-1390.25-1312.21-1466.86-1235-1576.55-1235Zm0-195.35a29.34,29.34,0,0,0-.84,7.53,29.34,29.34,0,0,0,.84,7.53,29.34,29.34,0,0,0,.84-7.53A29.34,29.34,0,0,0-1576.55-1430.32Z" transform="translate(1762.84 1672.91)"/><path class="cls-2" d="M-1286.39-1296.5c-109.69,0-186.29-77.24-186.29-187.82,0-111,76.6-188.58,186.29-188.58s186.29,77.55,186.29,188.58C-1100.09-1373.74-1176.7-1296.5-1286.39-1296.5Zm0-195.35a29.34,29.34,0,0,0-.84,7.53,29.34,29.34,0,0,0,.84,7.53,29.34,29.34,0,0,0,.84-7.53A29.34,29.34,0,0,0-1286.39-1491.85Z" transform="translate(1762.84 1672.91)"/><path class="cls-1" d="M-1286.39-1276c-109.69,0-186.29-77.24-186.29-187.82,0-111,76.6-188.58,186.29-188.58s186.29,77.55,186.29,188.58C-1100.09-1353.23-1176.7-1276-1286.39-1276Zm0-195.35a29.34,29.34,0,0,0-.84,7.53,29.34,29.34,0,0,0,.84,7.53,29.34,29.34,0,0,0,.84-7.53A29.34,29.34,0,0,0-1286.39-1471.34Z" transform="translate(1762.84 1672.91)"/><path class="cls-1" d="M-1122.13-1219.8a56.66,56.66,0,0,1-56.6-56.6v-251.42c0-31.41,25.38-57,56.6-57h89.77c92.89,0,157.77,58.31,157.77,141.79,0,72.32-48.69,125.75-122.1,138.75v27.85c0,31.21-25.74,56.6-57.36,56.6h-68.08Z" transform="translate(1762.84 1672.91)"/><path class="cls-2" d="M-1122.13-1240.3a56.66,56.66,0,0,1-56.6-56.6v-251.42c0-31.41,25.38-57,56.6-57h89.77c92.89,0,157.77,58.31,157.77,141.79,0,72.32-48.69,125.75-122.1,138.75v27.85c0,31.21-25.74,56.6-57.36,56.6h-68.08Z" transform="translate(1762.84 1672.91)"/><path class="cls-2" d="M-825.48-1275.61c-43.57,0-88-13.77-116-36-22.32-17.28-29.37-45.74-17.7-69.5l22.9-51.31c-17.81-19.73-31-46.6-31-83.54,0-78.86,62-136.09,147.5-136.09,36.78,0,81.25,14.08,113.53,35.92,24.56,16.11,33.26,46.64,21,71.77l-22,49.32c17.76,19.78,30.87,46.69,30.87,83.67C-676.46-1332.69-739.13-1275.61-825.48-1275.61Z" transform="translate(1762.84 1672.91)"/><path class="cls-1" d="M-825.48-1255.1c-43.57,0-88-13.77-116-36-22.32-17.28-29.37-45.74-17.7-69.5l22.9-51.31c-17.81-19.73-31-46.6-31-83.54,0-78.86,62-136.09,147.5-136.09,36.78,0,81.25,14.08,113.53,35.92,24.56,16.11,33.26,46.64,21,71.77l-22,49.32c17.76,19.78,30.87,46.69,30.87,83.67C-676.46-1312.18-739.13-1255.1-825.48-1255.1Z" transform="translate(1762.84 1672.91)"/><path class="cls-1" d="M-653.22-1214.47c-64,0-93.11-43.14-93.11-83.22a79.68,79.68,0,0,1,8.73-36.22c-0.19-1.71-.31-3.44-0.35-5.19l-5.72-188.71a57,57,0,0,1,57-57h66.94a57,57,0,0,1,57,57l-6.1,188.79q0,2-.24,4a81.57,81.57,0,0,1,9,37.29C-560.11-1257.61-589.25-1214.47-653.22-1214.47Z" transform="translate(1762.84 1672.91)"/><path class="cls-2" d="M-653.22-1235c-64,0-93.11-43.14-93.11-83.22a79.68,79.68,0,0,1,8.73-36.22c-0.19-1.71-.31-3.44-0.35-5.19l-5.72-188.71a57,57,0,0,1,57-57h66.94a57,57,0,0,1,57,57l-6.1,188.79q0,2-.24,4a81.57,81.57,0,0,1,9,37.29C-560.11-1278.12-589.25-1235-653.22-1235Z" transform="translate(1762.84 1672.91)"/><path class="cls-3" d="M-1576.55-1276c-81,0-135-54.77-135-136.55,0-82.54,54-137.31,135-137.31s135,54.77,135,137.31C-1441.52-1330.77-1495.53-1276-1576.55-1276Zm0-197c-31.19,0-52.11,24.34-52.11,60.48s20.92,60.48,52.11,60.48,52.11-24.34,52.11-60.48S-1545.35-1473-1576.55-1473Z" transform="translate(1762.84 1672.91)"/><path class="cls-3" d="M-1286.39-1317c-81,0-135-54.77-135-136.55,0-82.54,54-137.31,135-137.31s135,54.77,135,137.31C-1151.37-1371.78-1205.37-1317-1286.39-1317Zm0-197c-31.19,0-52.11,24.34-52.11,60.48s20.92,60.48,52.11,60.48,52.11-24.34,52.11-60.48S-1255.2-1514-1286.39-1514Z" transform="translate(1762.84 1672.91)"/><path class="cls-3" d="M-1032.35-1543.77c66.56,0,106.5,36.13,106.5,90.52s-39.93,90.53-106.5,90.53H-1048v76.07c0,2.66-2.66,5.33-6.09,5.33h-68.08a5.73,5.73,0,0,1-5.33-5.33v-251.42a5.79,5.79,0,0,1,5.33-5.7h89.77Zm3.41,113c13.32,0,22.44-9.13,22.44-22.44s-9.12-22.44-22.44-22.44h-19.78v44.88h19.78Z" transform="translate(1762.84 1672.91)"/><path class="cls-3" d="M-889-1381.7c1.14-3.81,3.8-4.95,6.84-3,17.5,9.89,38.42,17.11,52.87,18.25,12.18,0,20.16-5.7,20.16-14.45,0-22.44-106.88-21.3-106.88-104.22,0-51,38.41-84.82,96.23-84.82,27,0,61.23,11,85.2,27.39,3,1.9,4.19,4.94,3,6.84l-24,53.63c-1.14,3.8-3.81,4.94-6.85,3-18.64-10.65-40.32-18.64-53.62-19.78-11.8,0-19.41,5.33-19.41,13.69,0,22.44,107.65,20.92,107.65,104.6,0,50.59-39.17,84.45-97.75,84.45-32,0-65.42-9.89-84.45-25.1-3-2.28-4.18-4.95-3-6.85Z" transform="translate(1762.84 1672.91)"/><path class="cls-3" d="M-653.22-1359.64c32.71,0,41.85,17.49,41.85,31.19,0,14.45-9.13,32-41.85,32-32.32,0-41.84-17.5-41.84-32C-695.06-1342.15-685.55-1359.64-653.22-1359.64Zm-27.77-6.09a5.8,5.8,0,0,1-5.7-5.32l-5.71-187.52a5.85,5.85,0,0,1,5.71-5.7h66.94a5.85,5.85,0,0,1,5.71,5.7l-6.09,187.52a5.8,5.8,0,0,1-5.71,5.32H-681Z" transform="translate(1762.84 1672.91)"/><path class="cls-4" d="M-1659.28-1438c16.26,0,30.19-10.28,36.7-25.17,8.24-18.85,24.67-30.34,46-30.34s37.79,11.49,46,30.34c6.51,14.9,20.44,25.17,36.7,25.17h4.82c27.39,0,47-27.5,37-53-19.34-49.21-64.47-79.35-124.53-79.35s-105.19,30.14-124.53,79.35c-10,25.49,9.59,53,37,53h4.82Z" transform="translate(1762.84 1672.91)"/><path class="cls-4" d="M-1369.12-1479c16.26,0,30.19-10.28,36.7-25.17,8.24-18.85,24.67-30.34,46-30.34s37.79,11.49,46,30.34c6.51,14.9,20.44,25.17,36.7,25.17h4.82c27.39,0,47-27.5,37-53-19.34-49.21-64.47-79.35-124.53-79.35s-105.19,30.14-124.53,79.35c-10,25.49,9.59,53,37,53h4.82Z" transform="translate(1762.84 1672.91)"/><path class="cls-4" d="M-1048.71-1493.72v-2.47h19.78c5.82,0,13.16,9.46,18.18,19.43,6.86,13.62,20.35,22.64,35.6,22.85l1.19,0c31.39,0.43,51.07-33.83,34.88-60.74-17.85-29.67-51.61-49.64-93.27-49.64h-89.77a5.79,5.79,0,0,0-5.33,5.7v64.85a39.37,39.37,0,0,0,39.37,39.37h0A39.37,39.37,0,0,0-1048.71-1493.72Z" transform="translate(1762.84 1672.91)"/><path class="cls-4" d="M-874.9-1458.53c24.79,0,41.18-22,39.55-46.69q0-.23,0-0.46c0-8.37,7.61-13.69,19.41-13.69,13.31,1.14,35,9.13,53.62,19.78,3,1.9,5.71.76,6.85-3l24-53.63c1.14-1.9,0-4.94-3-6.84-24-16.36-58.19-27.39-85.2-27.39-57.82,0-96.23,33.85-96.23,84.82a85.18,85.18,0,0,0,1.32,15.21c3.4,18.75,20.46,31.93,39.52,31.93h0.27Z" transform="translate(1762.84 1672.91)"/><path class="cls-4" d="M-653.3-1458.53a36.52,36.52,0,0,0,36.5-35.33l2.77-85.22a5.85,5.85,0,0,0-5.71-5.7h-66.94a5.85,5.85,0,0,0-5.71,5.7l2.59,85.15a36.52,36.52,0,0,0,36.5,35.41h0Z" transform="translate(1762.84 1672.91)"/><path class="cls-5" d="M-1283.13-1607.5c-85.29,0-143,57.2-145.08,142.77-2.11-85.57-59.79-142.77-145.08-142.77-86.9,0-145.28,59.3-145.28,147.57,0,87.81,58.38,146.81,145.28,146.81,85.29,0,143-56.91,145.08-142,2.11,85.13,59.79,142,145.08,142,86.9,0,145.28-59,145.28-146.81C-1137.85-1548.2-1196.23-1607.5-1283.13-1607.5Zm-290.16,197.79c-25.42,0-41.86-19.71-41.86-50.22s16.43-50.22,41.86-50.22,41.86,19.71,41.86,50.22S-1547.86-1409.71-1573.29-1409.71Zm290.16,0c-25.42,0-41.86-19.71-41.86-50.22s16.43-50.22,41.86-50.22,41.86,19.71,41.86,50.22S-1257.71-1409.71-1283.13-1409.71Z" transform="translate(1762.84 1672.91)"/><path class="cls-5" d="M-799.36-1502.67c-8.12-3.15-19-7.39-22.25-10.24,1-1.68,5-2.58,8-2.61,11.86,1,32.17,8.61,49.08,18.26a15.34,15.34,0,0,0,8.18,2.45c6.27,0,11.45-4,13.68-10.51l23.58-52.77c3.5-6.76.63-15.44-6.47-19.86-25.55-17.45-62.12-29.17-91-29.17-53,0-91.44,26.52-102.88,68.18-15.33-38.86-55-62.47-109.7-62.47h-89.77c-8.44,0-15.58,7.3-15.58,16V-1334a16,16,0,0,0,15.58,15.58h68.08c8.86,0,16.34-7.13,16.34-15.58v-65.82h5.35c60.63,0,102.8-29,113.8-75.59,15.77,34,52.45,48.57,76.69,58.09,8.19,3.22,19.19,7.54,22.3,10.41-1,2.41-6.07,3.31-8.91,3.34-12.95-1-32.49-7.84-48.25-16.73a15.34,15.34,0,0,0-8.19-2.46c-4.94,0-11,2.78-13.67,10.52l-23.58,52.77c-2.83,5.5-2.06,13.46,5.84,19.4,20.78,16.61,56.44,27.35,90.84,27.35,64.6,0,108-38.06,108-94.7C-714.21-1469.6-767.52-1490.3-799.36-1502.67Z" transform="translate(1762.84 1672.91)"/><path class="cls-5" d="M-612.54-1385.9a15.08,15.08,0,0,0,5.92-11.71l6.1-187.85a16.17,16.17,0,0,0-16-16h-66.94a16.24,16.24,0,0,0-16,16.27l5.71,187.21a15.51,15.51,0,0,0,6.14,12.18,38.48,38.48,0,0,0-14.51,30.42c0,19.47,13.64,42.21,52.09,42.21s52.1-21.8,52.1-42.21A38.51,38.51,0,0,0-612.54-1385.9Z" transform="translate(1762.84 1672.91)"/></svg>