<svg id="Layer_1" data-name="Layer 1" xmlns="http://www.w3.org/2000/svg" xmlns:xlink="http://www.w3.org/1999/xlink" viewBox="0 0 1575.09 683.55"><defs><style>.cls-1{fill:#12acd7;}.cls-2{fill:#38ccff;}.cls-3{opacity:0.5;}.cls-11,.cls-12,.cls-13,.cls-14,.cls-4,.cls-5,.cls-9{fill:none;}.cls-4,.cls-5{stroke:#fff;}.cls-10,.cls-11,.cls-12,.cls-13,.cls-14,.cls-4,.cls-5,.cls-9{stroke-miterlimit:10;}.cls-4{stroke-width:4.49px;}.cls-5{stroke-linecap:round;stroke-width:26.93px;}.cls-10,.cls-5{opacity:0.6;}.cls-6{fill:#5efffc;}.cls-10,.cls-7{fill:#fff;}.cls-8{fill:#00aaf7;}.cls-10,.cls-11,.cls-12,.cls-13,.cls-14,.cls-9{stroke-width:8.98px;}.cls-9{stroke:url(#linear-gradient);}.cls-10{stroke:#00aaf7;}.cls-11{stroke:url(#linear-gradient-2);}.cls-12{stroke:url(#linear-gradient-3);}.cls-13{stroke:url(#linear-gradient-4);}.cls-14{stroke:url(#linear-gradient-5);}</style><linearGradient id="linear-gradient" x1="-1813.47" y1="-2564.45" x2="-1605.99" y2="-2564.45" gradientUnits="userSpaceOnUse"><stop offset="0" stop-color="#fff"/><stop offset="1" stop-color="#fff"/></linearGradient><linearGradient id="linear-gradient-2" x1="-1470.19" y1="-2672.01" x2="-1350.07" y2="-2672.01" xlink:href="#linear-gradient"/><linearGradient id="linear-gradient-3" x1="-1192.26" y1="-2674.67" x2="-1035.44" y2="-2674.67" xlink:href="#linear-gradient"/><linearGradient id="linear-gradient-4" x1="-868.51" y1="-2636.72" x2="-725.28" y2="-2636.72" xlink:href="#linear-gradient"/><linearGradient id="linear-gradient-5" x1="-571.6" y1="-2550.55" x2="-466.16" y2="-2550.55" xlink:href="#linear-gradient"/></defs><title>text_12</title><path class="cls-1" d="M-887.07-2837.38a16.09,16.09,0,0,0,10.29-10.76,16.13,16.13,0,0,0-11-20,16.11,16.11,0,0,0-18.93,8.38A154.76,154.76,0,0,1-887.07-2837.38Z" transform="translate(1885.32 2946.31)"/><circle class="cls-1" cx="-358.28" cy="-2505.84" r="48.05" transform="matrix(0.76, -0.65, 0.65, 0.76, 3436.96, 2101.72)"/><path class="cls-1" d="M-416-2558.11a48.25,48.25,0,0,0,4.74-57.31A48,48,0,0,0-477-2630.83a20.26,20.26,0,0,0-1.87,1c-16.38,10.95-29.92,1.54-35.47-3.6-0.9-.91-1.74-1.88-2.68-2.76l-0.06-.07v0a125.33,125.33,0,0,0-57.7-31l0.1-.13c-25.36-3.34-30.18-22.09-30.18-22.09l-0.06.11a145.39,145.39,0,0,0-134.86-91.18,144.9,144.9,0,0,0-108.06,48.35l0.12-.37s-0.2.33-.57,0.87c-1.44,1.61-2.92,3.18-4.29,4.86-5.26,4.85-14.85,10.46-29.15,6.62a23.11,23.11,0,0,1-3.68-1.49,49.26,49.26,0,0,1-7.24.9c-29.66,12.46-73,5.71-103.84-1.61a212.19,212.19,0,0,1-24.91-1c-24.36-2.54-46.71-11.3-69.16-20.13-15.47,11-32.43,18-54.8,16.23-51.89-4-97.26-35.73-145.16-54.28-28.18-3.21-56.13-7.34-83.39-14.71-12.39-3.35-20.87-10.13-26-18.45a208.42,208.42,0,0,0-127.14,191.93c0,0.84.05,1.67,0.06,2.51a96,96,0,0,0-53.8-16.4,96.86,96.86,0,0,0-19,1.9,16.05,16.05,0,0,0-7.91-5.18,16.09,16.09,0,0,0-18.34,7.33c0-1,.15-1.92.15-2.89a129.69,129.69,0,0,0-135.81-129.54c-66,3-120.38,57.38-123.42,123.42a129.69,129.69,0,0,0,129.54,135.81c3.11,0,6.16-.25,9.22-0.47l0.29,0.47c2-.5,51.74-8.77,43.45,21.23a129.13,129.13,0,0,0-7.8,44,130.17,130.17,0,0,0,2.42,24.72,32.52,32.52,0,0,0-25.36,9.28,32.27,32.27,0,0,0-8.38,32,32.54,32.54,0,0,0,41.32,22l0,0,0.4-.19c0.25-.09.49-0.23,0.75-0.32,3.53-1.5,15.46-5.35,27.86,5.11,0.07,0.06.14,0.07,0.21,0.12a129.19,129.19,0,0,0,90.5,36.9A129.61,129.61,0,0,0-1453-2419.42v0.84s0-.54.09-1.4c0.42-2.61.89-5.2,1.15-7.86,2.17-10.14,8.14-24.09,24.57-17,0.21,0.09.39,0.13,0.6,0.21a207.07,207.07,0,0,0,107.9,30.24,207.32,207.32,0,0,0,103.33-27.46l-0.08.11c0.73-.42,16.1-8.54,21.88,6.54a3.88,3.88,0,0,0,.92,1.33,85.12,85.12,0,0,0,58.59,60,85.26,85.26,0,0,0,105.62-58.18,85.35,85.35,0,0,0,2.56-12.7l0.06,0.26s3.07-23.41,22.5-19.08a7,7,0,0,0,2.14.16,135.66,135.66,0,0,0,18.43,1.4,134.66,134.66,0,0,0,48-8.94l-0.11.2s21.7-10,30.42,12.24c0.08,0.2.16,0.32,0.23,0.5a81.5,81.5,0,0,0,75.45,50.73,81.53,81.53,0,0,0,77.91-57.55c0.14-.55,4.4-17,20-21.16,10.19-2.73,16.59,2.81,19.9,7.15q1.16,1.88,2.38,3.71c0.24,0.48.38,0.78,0.38,0.78l0.08-.06a125.61,125.61,0,0,0,95.21,55.26,125.51,125.51,0,0,0,41.61-4l-0.18.18c0.45-.12,14.11-4.66,26.21,11,0.12,0.15.21,0.18,0.33,0.32a66.39,66.39,0,0,0,59.3,25.2,66.63,66.63,0,0,0,57.71-50.61,66.48,66.48,0,0,0-27.07-70.38,9.2,9.2,0,0,0-3.52-2.32c-0.2-.08-0.33-0.16-0.52-0.24a66.1,66.1,0,0,0-8-4c-11.92-7.45-11.73-16-11.73-16l-0.19.45,0-.13a3.39,3.39,0,0,0,.17-0.32c4.26-15.41,22.93-11.93,22.93-11.93v0A48,48,0,0,0-416-2558.11Z" transform="translate(1885.32 2946.31)"/><path class="cls-1" d="M-1453-2461.7c-0.11-.69-0.17-1.4-0.29-2.09l0.29,0.23v1.86Z" transform="translate(1885.32 2946.31)"/><circle class="cls-1" cx="-1318.7" cy="-2310.97" r="48.19" transform="translate(3153.22 11.61) rotate(-73.85)"/><circle class="cls-1" cx="-711.81" cy="-2405.28" r="48.19" transform="translate(3681.86 526.51) rotate(-73.85)"/><circle class="cls-1" cx="-1784.72" cy="-2414.43" r="16.13" transform="translate(2916.23 -510.67) rotate(-73.85)"/><circle class="cls-1" cx="-935.91" cy="-2405.28" r="32.52" transform="translate(2929.66 2196.3) rotate(-28.85)"/><circle class="cls-1" cx="-489.14" cy="-2664.55" r="16.26" transform="translate(3110.24 2379.64) rotate(-28.85)"/><circle class="cls-1" cx="-1571.48" cy="-2765.21" r="48.19" transform="translate(3407.09 -559.01) rotate(-73.85)"/><path class="cls-1" d="M-1121.92-2934.73a45,45,0,0,1-22.11-2,39.9,39.9,0,0,0-32.06,39.11,39.89,39.89,0,0,0,39.9,39.89,39.9,39.9,0,0,0,39.9-39.9A39.82,39.82,0,0,0-1121.92-2934.73Z" transform="translate(1885.32 2946.31)"/><circle class="cls-2" cx="-892.28" cy="-2862.24" r="16.13" transform="translate(3990.52 23.29) rotate(-73.85)"/><circle class="cls-2" cx="-358.28" cy="-2515.46" r="48.05" transform="translate(3443.25 2099.38) rotate(-40.85)"/><path class="cls-2" d="M-411.3-2625A48,48,0,0,0-477-2640.45a20.26,20.26,0,0,0-1.87,1c-16.38,10.95-29.92,1.54-35.47-3.6-0.9-.91-1.74-1.88-2.68-2.76l-0.06-.07v0a125.33,125.33,0,0,0-57.7-31l0.1-.13c-25.36-3.34-30.18-22.09-30.18-22.09l-0.06.11a145.39,145.39,0,0,0-134.86-91.18,144.9,144.9,0,0,0-108.06,48.35l0.12-.37s-0.2.33-.57,0.87c-1.44,1.61-2.92,3.18-4.29,4.86-5.26,4.85-14.85,10.46-29.15,6.62-16.93-4.54-18.19-22.32-17.5-32.3,0.19-1.49.35-3,.47-4.49s0.42-2.42.42-2.42l-0.31.24c0.12-2,.31-4,0.31-6A100.66,100.66,0,0,0-999-2875.49c-38.81,0-72.91,21.75-89.23,54.18-8,16-40.9,69.28-92.49,32.8-2.57-2.27-14.28-12.08-16.07-12.85a207.36,207.36,0,0,0-121.88-39.41c-115.08,0-208.36,93.29-208.36,208.36,0,0.84.05,1.67,0.06,2.51a96,96,0,0,0-53.8-16.4,96.86,96.86,0,0,0-19,1.9,16.05,16.05,0,0,0-7.91-5.18,16.09,16.09,0,0,0-18.34,7.33c0-1,.15-1.92.15-2.89a129.69,129.69,0,0,0-135.81-129.54c-66,3-120.38,57.38-123.42,123.42a129.69,129.69,0,0,0,129.54,135.81c3.11,0,6.16-.25,9.22-0.47l0.29,0.47c2-.5,51.74-8.77,43.45,21.23a129.13,129.13,0,0,0-7.8,44,130.17,130.17,0,0,0,2.42,24.72,32.53,32.53,0,0,0-25.36,9.28,32.27,32.27,0,0,0-8.38,32,32.54,32.54,0,0,0,41.32,22l0,0,0.4-.19c0.25-.09.49-0.23,0.75-0.32,3.53-1.5,15.46-5.35,27.86,5.11,0.07,0.06.14,0.07,0.21,0.12a129.19,129.19,0,0,0,90.5,36.9A129.61,129.61,0,0,0-1453-2429v0.84s0-.54.09-1.4c0.42-2.61.89-5.2,1.15-7.86,2.17-10.14,8.14-24.09,24.57-17,0.21,0.09.39,0.13,0.6,0.21A207.07,207.07,0,0,0-1318.7-2424a207.32,207.32,0,0,0,103.33-27.46l-0.08.11c0.73-.42,16.1-8.54,21.88,6.54a3.88,3.88,0,0,0,.92,1.33,85.12,85.12,0,0,0,58.59,60,85.26,85.26,0,0,0,105.62-58.18,85.35,85.35,0,0,0,2.56-12.7l0.06,0.26s3.07-23.41,22.5-19.08a7,7,0,0,0,2.14.16,135.66,135.66,0,0,0,18.43,1.4,134.66,134.66,0,0,0,48-8.94l-0.11.2s21.7-10,30.42,12.24c0.08,0.2.16,0.32,0.23,0.5a81.5,81.5,0,0,0,75.45,50.73,81.53,81.53,0,0,0,77.91-57.55c0.14-.55,4.4-17,20-21.16,10.19-2.73,16.59,2.81,19.9,7.15q1.16,1.88,2.38,3.71c0.24,0.48.38,0.78,0.38,0.78l0.08-.06a125.61,125.61,0,0,0,95.21,55.26,125.51,125.51,0,0,0,41.61-4l-0.18.18c0.45-.12,14.11-4.66,26.21,11,0.12,0.15.21,0.18,0.33,0.32a66.39,66.39,0,0,0,59.3,25.2,66.63,66.63,0,0,0,57.71-50.61,66.48,66.48,0,0,0-27.07-70.38,9.2,9.2,0,0,0-3.52-2.32c-0.2-.08-0.33-0.16-0.52-0.24a66.1,66.1,0,0,0-8-4c-11.92-7.45-11.73-16-11.73-16l-0.19.45,0-.13a3.39,3.39,0,0,0,.17-0.32c4.26-15.41,22.93-11.93,22.93-11.93v0a48,48,0,0,0,39.7-16.07A48.25,48.25,0,0,0-411.3-2625ZM-1453-2471.32c-0.11-.69-0.17-1.4-0.29-2.09l0.29,0.23v1.86Z" transform="translate(1885.32 2946.31)"/><g class="cls-3"><path class="cls-4" d="M-1727.49-2442.68c-0.81-3.6.53-5.47,3.39-4.89,16,2.4,33.72,1.88,43.32-2.08,8.05-3.32,11.6-11.12,8.31-18.42-8.43-18.72-82.18,17.39-117.92-52.77-22-43.12-6.9-85,38.51-101.84,21.21-7.85,52.31-7.91,76.54-.58,3,0.79,4.93,3,4.68,4.86-0.22,20.12-.2,30.25.12,50.62,0.47,3.46-1.11,5.13-4,4.41-17.65-3.65-37.57-4.36-47.32-1-8.57,2.93-12.45,10.32-9.19,17.33,8.73,18.79,87.35-13.46,115.38,55.4,16.94,41.63,2.34,80.5-35.43,99.64-20.6,10.44-45.87,13.8-64.65,7.72-2.93-.85-4.82-2.69-4.9-4.71C-1723.7-2410.58-1725.06-2421.31-1727.49-2442.68Z" transform="translate(1885.32 2946.31)"/><path class="cls-4" d="M-1590.86-2603c6.53-15.59,22.69-28.75,42.56-33.69,46.87-11.65,88.25,17.08,102.7,68.62,14.37,51.24-3.79,93.15-44.45,107.25-12.09,4.19-25.05,4.15-35.41-.37l21.36,60.16c0.76,2.15-.18,5-2.13,5.8-17.12,7.11-25.62,10.83-42.49,18.59-1.92.88-4.46-.52-5.32-2.7l-87.25-220.44a4.58,4.58,0,0,1,2.53-6.09c13.19-4.24,19.81-6.28,33.07-10.19,2.05-.61,4.21.82,6.4,3.25C-1595.91-2608.84-1594.22-2606.88-1590.86-2603Zm44.81,83.81c6.85,9,17.76,12.87,27.15,9.82,14.76-4.79,20.27-21.68,13.47-42.85-7-21.78-22.26-33.55-37.9-29.11-10,2.83-16.68,12.29-16.44,23.46Z" transform="translate(1885.32 2946.31)"/><path class="cls-4" d="M-1406.45-2712.29c2.48-.29,5.12,1.47,5.59,3.49l46.16,200.35a4.36,4.36,0,0,1-3,5.22c-18.66,4.27-28,6.58-46.47,11.53a4.47,4.47,0,0,1-5.14-3.36l-55.27-205a4.12,4.12,0,0,1,3.54-4.84C-1439.23-2708.24-1428.31-2709.72-1406.45-2712.29Z" transform="translate(1885.32 2946.31)"/><path class="cls-4" d="M-1354.42-2648.9a4.24,4.24,0,0,1,.35-5.58c14.81-12.27,37.87-20.44,62-22.07,52.16-3.52,79.21,21.06,85.56,74l8.26,69a4.07,4.07,0,0,1-3.57,4.41c-13.61,1.43-20.41,2.23-34,4a4.55,4.55,0,0,1-4.92-3.52l-3-7.11c-7.51,10.7-24.18,19.36-43.66,22.77-30.68,5.37-55.46-11.25-62.08-42.74-5.89-28.06,11.78-50.3,44.27-54.15,16.67-2,32.63,2.41,39.73,10.62l-1.83-11.52c-1.88-11.8-12.14-18.77-25.54-17.45-11.36,1.12-24.68,6.31-33.15,12.88-1.28,1-3.23.13-4.78-1.69C-1340.07-2629.72-1344.8-2636.1-1354.42-2648.9Zm93.27,76.81c-5.49-4.12-10.64-5.78-16.52-5.06-7,.86-11.08,5.39-10,11.5s6.47,9.33,13.37,8.4c5.79-.78,10.12-3.59,14.11-8.81Z" transform="translate(1885.32 2946.31)"/><path class="cls-4" d="M-1181.57-2660a3.6,3.6,0,0,1,1-5c16.08-9.42,39.82-14.21,63.88-13,52,2.72,76.08,27.87,76.38,75.8,0.16,24.95.24,37.42,0.39,62.37a3.85,3.85,0,0,1-4.05,3.55c-13.71-.21-20.56-0.22-34.26-0.08-2.18,0-4.42-1.68-4.49-3.67-0.86-2.67-1.3-4-2.17-6.68-8.7,8.77-26.27,14.77-46,15.82-31.11,1.66-53.75-15.78-56.62-44.82-2.56-25.87,17.54-44.06,50.18-44,16.75,0,32.07,5.71,38.17,13.84l-0.5-10.51c-0.51-10.76-9.88-18.14-23.31-18.43-11.38-.25-25.17,3-34.33,8-1.39.79-3.22-.23-4.54-2C-1169.61-2641.18-1173.55-2647.41-1181.57-2660Zm83.54,79c-5-4.28-9.89-6.33-15.81-6.31-7.06,0-11.62,3.64-11.25,9.24s5.34,9,12.3,9c5.84-.08,10.46-2.13,15-6.37C-1097.88-2577.69-1097.93-2578.79-1098-2581Z" transform="translate(1885.32 2946.31)"/><path class="cls-4" d="M-1009.06-2650.31c-0.86-1.75-.25-3.34,1.55-4.3,17-6.45,41.09-7.8,64.82-3.67,51.34,8.94,72.5,34.32,67.62,76.49l-6.35,54.89c-0.2,1.7-2.26,2.92-4.43,2.62-13.66-1.85-20.5-2.69-34.18-4.19-2.17-.24-4.22-2-4.08-3.77-0.57-2.46-.85-3.69-1.43-6.16-9.63,6.71-27.83,10-47.63,8.64-31.19-2.07-51.76-20.07-51.33-46.24,0.38-23.31,22.38-37.19,54.82-33.22,16.64,2,31.24,8.94,36.42,16.86l0.66-9.35c0.68-9.57-7.83-17.26-21.13-19.15-11.29-1.61-25.34-.42-35,2.92-1.46.53-3.17-.59-4.28-2.34C-999.3-2632.2-1002.51-2638.21-1009.06-2650.31Zm74.23,80a24.69,24.69,0,0,0-15-7.48c-7-.83-12,1.84-12.22,6.84s4.31,8.64,11.26,9.38a22.91,22.91,0,0,0,15.66-3.85Z" transform="translate(1885.32 2946.31)"/><path class="cls-4" d="M-846.46-2555c0.73-1.13,2.42-1,3.72-.12,10.13,6.83,21.48,12.54,30.44,14.78,5.55,1.39,10,.12,10.49-2.84,1.79-10.06-59.56-19.51-54.53-58.8,2.87-22.36,31.55-31.29,71-19.8,18.85,5.49,40.47,17.07,54.13,28.33,1.26,1.21,1.9,2.42,1.11,3.16-7.81,6.86-11.68,10.38-19.35,17.57-0.81,1-2.53.66-3.82-.32-10-7.93-21.67-14.22-30.93-17.07-5.77-1.77-10.24-1.1-10.8,2.06-1.86,10.46,60.37,24,52.24,59.16-4.58,19.82-31.14,27.21-66.9,20.29-17.47-3.38-38.55-11.7-52.87-21.23-1.23-1.26-1.91-2.43-1.2-3.6C-856.92-2542.21-853.46-2546.53-846.46-2555Z" transform="translate(1885.32 2946.31)"/><path class="cls-4" d="M-647.24-2604.66c2.3,1,3.95,3,3.54,4.38L-654-2565.9c9.36-3,24-1,39.06,5.58,33.51,14.52,48.87,34.5,41.93,52l-21.86,55.12c-0.48,1.21-2.73,1.58-4.82.8-18.39-6.86-27.63-10.11-46.18-16.27-2.11-.7-3.58-2.45-2.88-3.67l17.1-51.29c2.18-6.53-1.5-12.29-10.05-15.61-15.71-6.1-21.09,2.59-21.09,2.59L-679.24-2482c-0.41,1.36-2.62,2-4.75,1.36-18.67-5.58-28-8.2-46.84-13.07-2.14-.55-3.69-2.31-3.34-3.77l31-126.52c0.36-1.46,2.71-2,5-1.08C-677.62-2617.31-667.45-2613.22-647.24-2604.66Z" transform="translate(1885.32 2946.31)"/><path class="cls-4" d="M-532.53-2450.5c22.47,10.28,25.55,19.54,23.14,24.28-2.55,5-11.72,8.08-33.88-1.31-21.9-9.28-25.57-18.34-23.21-23.86C-564.24-2456.62-554.73-2460.66-532.53-2450.5Zm-18.11-10.86c-2.1-.93-3.5-2.74-3.06-3.75,10.79-29.05,16.15-43.67,26.8-73.08,0.5-1.16,2.87-1.14,5.07,0,19.38,10.39,29,15.78,48,26.93,2.16,1.27,3.59,3.31,3.05,4.36-14.91,25-22.33,37.59-37.11,63-0.47.93-2.75,1-4.83,0C-527.8-2451.12-535.39-2454.62-550.64-2461.36Z" transform="translate(1885.32 2946.31)"/></g><path class="cls-5" d="M-954.13-2820.51a74.78,74.78,0,0,1,8.71,7.66" transform="translate(1885.32 2946.31)"/><path class="cls-5" d="M-1050.27-2814.11a74,74,0,0,1,55.52-21.06" transform="translate(1885.32 2946.31)"/><path class="cls-5" d="M-800.2-2467.88a43.66,43.66,0,0,1-61.38-.29" transform="translate(1885.32 2946.31)"/><path class="cls-5" d="M-1081.31-2445.23a46.29,46.29,0,0,1-65.07-.31" transform="translate(1885.32 2946.31)"/><path class="cls-5" d="M-1757.2-2737.32a104.88,104.88,0,0,1,17-1.18" transform="translate(1885.32 2946.31)"/><path class="cls-5" d="M-1845.78-2633.21a105.63,105.63,0,0,1,43.6-85.69" transform="translate(1885.32 2946.31)"/><path class="cls-5" d="M-376.35-2523.83a25.39,25.39,0,0,1,36.14,0" transform="translate(1885.32 2946.31)"/><circle class="cls-2" cx="-1318.7" cy="-2320.59" r="48.19" transform="translate(3162.46 4.67) rotate(-73.85)"/><circle class="cls-2" cx="-711.81" cy="-2414.9" r="48.19" transform="translate(3691.1 519.57) rotate(-73.85)"/><circle class="cls-2" cx="-1784.72" cy="-2424.05" r="16.13" transform="translate(2925.47 -517.61) rotate(-73.85)"/><circle class="cls-2" cx="-935.91" cy="-2414.9" r="32.52" transform="translate(2934.3 2195.1) rotate(-28.85)"/><circle class="cls-2" cx="-489.14" cy="-2674.17" r="16.26" transform="translate(3114.88 2378.44) rotate(-28.85)"/><circle class="cls-2" cx="-1571.48" cy="-2774.83" r="48.19" transform="translate(3416.32 -565.95) rotate(-73.85)"/><circle class="cls-2" cx="749.12" cy="39.89" r="39.89"/><g class="cls-3"><path class="cls-6" d="M-1727.49-2469.61c-0.81-3.6.53-5.47,3.39-4.89,16,2.4,33.72,1.88,43.32-2.08,8.05-3.32,11.6-11.12,8.31-18.42-8.43-18.72-82.18,17.39-117.92-52.77-22-43.12-6.9-85,38.51-101.84,21.21-7.85,52.31-7.91,76.54-.58,3,0.79,4.93,3,4.68,4.86-0.22,20.12-.2,30.25.12,50.62,0.47,3.46-1.11,5.13-4,4.41-17.65-3.65-37.57-4.36-47.32-1-8.57,2.93-12.45,10.32-9.19,17.33,8.73,18.79,87.35-13.46,115.38,55.4,16.94,41.63,2.34,80.5-35.43,99.64-20.6,10.44-45.87,13.8-64.65,7.72-2.93-.85-4.82-2.69-4.9-4.71C-1723.7-2437.51-1725.06-2448.24-1727.49-2469.61Z" transform="translate(1885.32 2946.31)"/><path class="cls-6" d="M-1590.86-2629.89c6.53-15.59,22.69-28.75,42.56-33.69,46.87-11.65,88.25,17.08,102.7,68.62,14.37,51.24-3.79,93.15-44.45,107.25-12.09,4.19-25.05,4.15-35.41-.37l21.36,60.16c0.76,2.15-.18,5-2.13,5.8-17.12,7.11-25.62,10.83-42.49,18.59-1.92.88-4.46-.52-5.32-2.7l-87.25-220.44a4.58,4.58,0,0,1,2.53-6.09c13.19-4.24,19.81-6.28,33.07-10.19,2.05-.61,4.21.82,6.4,3.25C-1595.91-2635.77-1594.22-2633.81-1590.86-2629.89Zm44.81,83.81c6.85,9,17.76,12.87,27.15,9.82,14.76-4.79,20.27-21.68,13.47-42.85-7-21.78-22.26-33.55-37.9-29.11-10,2.83-16.68,12.29-16.44,23.46Z" transform="translate(1885.32 2946.31)"/><path class="cls-6" d="M-1406.45-2739.22c2.48-.29,5.12,1.47,5.59,3.49l46.16,200.35a4.36,4.36,0,0,1-3,5.22c-18.66,4.27-28,6.58-46.47,11.53a4.47,4.47,0,0,1-5.14-3.36l-55.27-205a4.12,4.12,0,0,1,3.54-4.84C-1439.23-2735.17-1428.31-2736.65-1406.45-2739.22Z" transform="translate(1885.32 2946.31)"/><path class="cls-6" d="M-1354.42-2675.83a4.24,4.24,0,0,1,.35-5.58c14.81-12.27,37.87-20.44,62-22.07,52.16-3.52,79.21,21.06,85.56,74l8.26,69a4.07,4.07,0,0,1-3.57,4.41c-13.61,1.43-20.41,2.23-34,4a4.55,4.55,0,0,1-4.92-3.52l-3-7.11c-7.51,10.7-24.18,19.36-43.66,22.77-30.68,5.37-55.46-11.25-62.08-42.74-5.89-28.06,11.78-50.3,44.27-54.15,16.67-2,32.63,2.41,39.73,10.62l-1.83-11.52c-1.88-11.8-12.14-18.77-25.54-17.45-11.36,1.12-24.68,6.31-33.15,12.88-1.28,1-3.23.13-4.78-1.69C-1340.07-2656.65-1344.8-2663-1354.42-2675.83Zm93.27,76.81c-5.49-4.12-10.64-5.78-16.52-5.06-7,.86-11.08,5.39-10,11.5s6.47,9.33,13.37,8.4c5.79-.78,10.12-3.59,14.11-8.81Z" transform="translate(1885.32 2946.31)"/><path class="cls-6" d="M-1181.57-2686.89a3.6,3.6,0,0,1,1-5c16.08-9.42,39.82-14.21,63.88-13,52,2.72,76.08,27.87,76.38,75.8,0.16,24.95.24,37.42,0.39,62.37a3.85,3.85,0,0,1-4.05,3.55c-13.71-.21-20.56-0.22-34.26-0.08-2.18,0-4.42-1.68-4.49-3.67-0.86-2.67-1.3-4-2.17-6.68-8.7,8.77-26.27,14.77-46,15.82-31.11,1.66-53.75-15.78-56.62-44.82-2.56-25.87,17.54-44.06,50.18-44,16.75,0,32.07,5.71,38.17,13.84l-0.5-10.51c-0.51-10.76-9.88-18.14-23.31-18.43-11.38-.25-25.17,3-34.33,8-1.39.79-3.22-.23-4.54-2C-1169.61-2668.11-1173.55-2674.34-1181.57-2686.89Zm83.54,79c-5-4.28-9.89-6.33-15.81-6.31-7.06,0-11.62,3.64-11.25,9.24s5.34,9,12.3,9c5.84-.08,10.46-2.13,15-6.37C-1097.88-2604.62-1097.93-2605.72-1098-2607.92Z" transform="translate(1885.32 2946.31)"/><path class="cls-6" d="M-1009.06-2677.24c-0.86-1.75-.25-3.34,1.55-4.3,17-6.45,41.09-7.8,64.82-3.67,51.34,8.94,72.5,34.32,67.62,76.49l-6.35,54.89c-0.2,1.7-2.26,2.92-4.43,2.62-13.66-1.85-20.5-2.69-34.18-4.19-2.17-.24-4.22-2-4.08-3.77-0.57-2.46-.85-3.69-1.43-6.16-9.63,6.71-27.83,10-47.63,8.64-31.19-2.07-51.76-20.07-51.33-46.24,0.38-23.31,22.38-37.19,54.82-33.22,16.64,2,31.24,8.94,36.42,16.86l0.66-9.35c0.68-9.57-7.83-17.26-21.13-19.15-11.29-1.61-25.34-.42-35,2.92-1.46.53-3.17-.59-4.28-2.34C-999.3-2659.13-1002.51-2665.14-1009.06-2677.24Zm74.23,80a24.69,24.69,0,0,0-15-7.48c-7-.83-12,1.84-12.22,6.84s4.31,8.64,11.26,9.38a22.91,22.91,0,0,0,15.66-3.85Z" transform="translate(1885.32 2946.31)"/><path class="cls-6" d="M-846.46-2581.93c0.73-1.13,2.42-1,3.72-.12,10.13,6.83,21.48,12.54,30.44,14.78,5.55,1.39,10,.12,10.49-2.84,1.79-10.06-59.56-19.51-54.53-58.8,2.87-22.36,31.55-31.29,71-19.8,18.85,5.49,40.47,17.07,54.13,28.33,1.26,1.21,1.9,2.42,1.11,3.16-7.81,6.86-11.68,10.38-19.35,17.57-0.81,1-2.53.66-3.82-.32-10-7.93-21.67-14.22-30.93-17.07-5.77-1.77-10.24-1.1-10.8,2.06-1.86,10.46,60.37,24,52.24,59.16-4.58,19.82-31.14,27.21-66.9,20.29-17.47-3.38-38.55-11.7-52.87-21.23-1.23-1.26-1.91-2.43-1.2-3.6C-856.92-2569.14-853.46-2573.46-846.46-2581.93Z" transform="translate(1885.32 2946.31)"/><path class="cls-6" d="M-647.24-2631.58c2.3,1,3.95,3,3.54,4.38L-654-2592.83c9.36-3,24-1,39.06,5.58,33.51,14.52,48.87,34.5,41.93,52l-21.86,55.12c-0.48,1.21-2.73,1.58-4.82.8-18.39-6.86-27.63-10.11-46.18-16.27-2.11-.7-3.58-2.45-2.88-3.67l17.1-51.29c2.18-6.53-1.5-12.29-10.05-15.61-15.71-6.1-21.09,2.59-21.09,2.59L-679.24-2509c-0.41,1.36-2.62,2-4.75,1.36-18.67-5.58-28-8.2-46.84-13.07-2.14-.55-3.69-2.31-3.34-3.77l31-126.52c0.36-1.46,2.71-2,5-1.08C-677.62-2644.24-667.45-2640.15-647.24-2631.58Z" transform="translate(1885.32 2946.31)"/><path class="cls-6" d="M-532.53-2477.43c22.47,10.28,25.55,19.54,23.14,24.28-2.55,5-11.72,8.08-33.88-1.31-21.9-9.28-25.57-18.34-23.21-23.86C-564.24-2483.55-554.73-2487.59-532.53-2477.43Zm-18.11-10.86c-2.1-.93-3.5-2.74-3.06-3.75,10.79-29.05,16.15-43.67,26.8-73.08,0.5-1.16,2.87-1.14,5.07,0,19.38,10.39,29,15.78,48,26.93,2.16,1.27,3.59,3.31,3.05,4.36-14.91,25-22.33,37.59-37.11,63-0.47.93-2.75,1-4.83,0C-527.8-2478.05-535.39-2481.55-550.64-2488.29Z" transform="translate(1885.32 2946.31)"/><path class="cls-7" d="M-1731.18-2477c-1-3.25.35-5,3.3-4.64,16.44,1.4,34.41.06,44.14-4.1,8.12-3.48,11.49-10.87,7.9-17.44-9.2-16.83-83.8,21.37-122.13-42.46-23.56-39.24-8.57-80.93,37.62-99.64,21.57-8.74,53.34-10.44,78.24-4.75,3.1,0.58,5.07,2.65,4.83,4.5-0.12,19.87,0,29.65.75,49.06,0.55,3.26-1,5-4.07,4.47-18.19-2.29-38.6-1.74-48.56,2-8.74,3.31-12.53,10.53-9,16.94,9.39,17.19,89.33-18.29,119.72,44.78,18.37,38.13,4.28,75.75-33.54,95-20.64,10.51-46.11,14.38-65.33,9.38-3-.69-5-2.34-5.1-4.2C-1726.17-2447.91-1727.94-2457.62-1731.18-2477Z" transform="translate(1885.32 2946.31)"/><path class="cls-7" d="M-1595.1-2636c6.58-15.68,23.16-29.89,43.57-36.13,48.11-14.7,90.31,12,105.24,62.42,14.84,50.08-3.21,91.72-44,106.24-12.15,4.32-25.21,4.52-35.74.43,9,23,13.4,34.67,22,58.65,0.76,2.14-.18,5-2.12,5.8-17.12,7.11-25.62,10.83-42.5,18.6-1.92.88-4.46-.51-5.33-2.67-29.92-69.44-61.42-137.9-92.89-206.65a4.61,4.61,0,0,1,2.54-6.12c13.53-5.06,20.32-7.53,33.94-12.32,2.11-.74,4.33.51,6.6,2.74Zm47.18,78c7.14,8.33,18.3,11.55,27.79,8.25,14.93-5.2,20.33-21.8,13.15-42.05-7.39-20.84-23.09-31.51-39.08-26.23a24,24,0,0,0-16.53,23.68C-1556.73-2579.73-1553.79-2572.49-1547.92-2557.94Z" transform="translate(1885.32 2946.31)"/><path class="cls-7" d="M-1406.63-2755.22c2.51-.34,5.16,1.39,5.62,3.41,15.22,66.69,30.86,133.29,46.34,199.92a4.35,4.35,0,0,1-3,5.22c-18.66,4.26-28,6.6-46.52,11.66a4.46,4.46,0,0,1-5.16-3.29c-18.86-67.48-38.19-134.85-56.26-202.55-0.55-2.08,1.11-4.6,3.64-5.09C-1439.76-2750.31-1428.68-2752.19-1406.63-2755.22Z" transform="translate(1885.32 2946.31)"/><path class="cls-7" d="M-1354.42-2692.26a4.24,4.24,0,0,1,.35-5.58c14.81-12.27,37.87-20.44,62-22.07,52.17-3.52,79.21,21.06,85.56,74l8.26,69a4.07,4.07,0,0,1-3.57,4.41c-13.61,1.43-20.41,2.23-34,4a4.55,4.55,0,0,1-4.92-3.52l-3-7.11c-7.51,10.7-24.18,19.36-43.65,22.77-30.68,5.37-55.45-11.31-62.08-42.75-5.91-28,11.78-50.29,44.28-54.14,16.67-2,32.63,2.41,39.73,10.62l-1.83-11.52c-1.88-11.8-12.14-18.77-25.55-17.45-11.35,1.12-24.67,6.31-33.15,12.88-1.28,1-3.23.13-4.78-1.69C-1340.07-2673.08-1344.79-2679.49-1354.42-2692.26Zm93.27,76.81c-5.49-4.12-10.64-5.78-16.53-5.06-7,.86-11.08,5.39-10,11.5s6.47,9.33,13.37,8.4c5.8-.78,10.13-3.59,14.11-8.81Z" transform="translate(1885.32 2946.31)"/><path class="cls-7" d="M-1181.57-2703.32a3.6,3.6,0,0,1,1-5c16.07-9.42,39.82-14.21,63.88-13,52,2.72,76.08,27.87,76.38,75.8,0.16,24.95.24,37.42,0.39,62.37a3.86,3.86,0,0,1-4.06,3.55c-13.71-.21-20.56-0.22-34.26-0.08-2.18,0-4.42-1.68-4.49-3.67l-2.17-6.68c-8.69,8.77-26.27,14.77-46,15.82-31.11,1.66-53.76-15.78-56.63-44.82-2.56-25.87,17.54-44.06,50.19-44,16.74,0,32.07,5.71,38.17,13.84l-0.49-10.51c-0.51-10.76-9.88-18.14-23.32-18.43-11.37-.25-25.17,3-34.33,8-1.39.79-3.22-.23-4.54-2C-1169.61-2684.54-1173.55-2690.77-1181.57-2703.32Zm83.54,79c-5-4.28-9.89-6.33-15.82-6.31-7.06,0-11.62,3.64-11.25,9.24s5.34,9,12.3,9c5.85-.08,10.47-2.13,15-6.37Z" transform="translate(1885.32 2946.31)"/><path class="cls-7" d="M-1009.07-2693.67c-0.86-1.75-.25-3.34,1.55-4.3,17-6.45,41.09-7.8,64.82-3.67,51.34,8.93,72.5,34.32,67.62,76.49l-6.35,54.89c-0.2,1.7-2.25,2.92-4.42,2.62-13.66-1.85-20.5-2.69-34.18-4.19-2.17-.24-4.22-2-4.08-3.77-0.57-2.46-.85-3.69-1.43-6.16-9.64,6.71-27.83,10-47.64,8.64-31.19-2.07-51.75-20.07-51.33-46.24,0.38-23.31,22.38-37.19,54.81-33.22,16.65,2,31.24,8.94,36.42,16.86l0.66-9.35c0.68-9.57-7.83-17.26-21.13-19.15-11.29-1.61-25.34-.43-35,2.92-1.46.53-3.17-.59-4.28-2.34C-999.3-2675.56-1002.51-2681.57-1009.07-2693.67Zm74.23,80a24.68,24.68,0,0,0-15-7.48c-7-.83-12,1.84-12.22,6.84s4.31,8.64,11.26,9.38a22.9,22.9,0,0,0,15.65-3.85Z" transform="translate(1885.32 2946.31)"/><path class="cls-7" d="M-846.47-2598.36c0.73-1.13,2.42-1,3.72-.12,10.14,6.84,21.48,12.54,30.44,14.78,5.56,1.39,10,.12,10.49-2.84,1.79-10.06-59.56-19.51-54.53-58.8,2.86-22.36,31.55-31.29,71-19.8,18.85,5.49,40.47,17.07,54.12,28.33,1.26,1.21,1.9,2.42,1.11,3.16-7.81,6.86-11.68,10.38-19.34,17.58-0.81,1-2.53.66-3.82-.32-10-7.94-21.67-14.22-30.93-17.07-5.77-1.77-10.24-1.1-10.8,2.06-1.86,10.46,60.36,24,52.23,59.16-4.58,19.82-31.13,27.21-66.89,20.29-17.48-3.38-38.56-11.7-52.87-21.23-1.23-1.26-1.91-2.43-1.2-3.6C-856.92-2585.57-853.47-2589.89-846.47-2598.36Z" transform="translate(1885.32 2946.31)"/><path class="cls-7" d="M-647.25-2648c2.3,1,3.95,3,3.54,4.38L-654-2609.27c9.36-3,24-1,39.06,5.58,33.51,14.52,48.88,34.5,41.93,52l-21.86,55.12c-0.48,1.21-2.73,1.58-4.82.8-18.39-6.86-27.64-10.12-46.19-16.27-2.11-.7-3.58-2.45-2.88-3.67l17.1-51.3c2.18-6.53-1.5-12.28-10-15.6-15.72-6.1-21.1,2.59-21.1,2.59l-16.41,54.62c-0.41,1.36-2.62,2-4.75,1.36-18.67-5.58-28-8.19-46.83-13.07-2.14-.55-3.7-2.31-3.34-3.77l31-126.52c0.36-1.46,2.71-2,5-1.07C-677.62-2660.67-667.45-2656.58-647.25-2648Z" transform="translate(1885.32 2946.31)"/><path class="cls-7" d="M-532.54-2493.87c22.48,10.28,25.56,19.55,23.15,24.28-2.54,5-11.72,8.08-33.89-1.31-21.9-9.28-25.57-18.34-23.21-23.86C-564.25-2500-554.74-2504-532.54-2493.87Zm-18.11-10.85c-2.1-.93-3.51-2.74-3.07-3.75,10.79-29.05,16.15-43.67,26.8-73.08,0.5-1.16,2.87-1.14,5.07,0,19.38,10.39,29,15.78,48,26.93,2.16,1.27,3.59,3.31,3.05,4.36-14.91,25-22.33,37.59-37.12,63-0.46.93-2.75,1-4.83,0C-527.8-2494.48-535.39-2498-550.64-2504.72Z" transform="translate(1885.32 2946.31)"/></g><path class="cls-8" d="M-1727.49-2487.56c-0.81-3.6.53-5.47,3.39-4.89,16,2.4,33.72,1.88,43.32-2.08,8.05-3.32,11.6-11.12,8.31-18.42-8.43-18.72-82.18,17.39-117.92-52.77-22-43.12-6.9-85,38.51-101.84,21.21-7.85,52.31-7.91,76.54-.58,3,0.79,4.93,3,4.68,4.86-0.22,20.12-.2,30.25.12,50.62,0.47,3.46-1.11,5.13-4,4.41-17.65-3.65-37.57-4.36-47.32-1-8.57,2.93-12.45,10.32-9.19,17.33,8.73,18.79,87.35-13.46,115.38,55.4,16.94,41.63,2.34,80.5-35.43,99.64-20.6,10.44-45.87,13.8-64.65,7.72-2.93-.85-4.82-2.69-4.9-4.71C-1723.7-2455.46-1725.06-2466.19-1727.49-2487.56Z" transform="translate(1885.32 2946.31)"/><path class="cls-8" d="M-1590.86-2647.84c6.53-15.59,22.69-28.75,42.56-33.69,46.87-11.65,88.25,17.08,102.7,68.62,14.37,51.24-3.79,93.15-44.45,107.25-12.09,4.19-25.05,4.15-35.41-.37l21.36,60.16c0.76,2.15-.18,5-2.13,5.8-17.12,7.11-25.62,10.83-42.49,18.59-1.92.88-4.46-.52-5.32-2.7l-87.25-220.44a4.58,4.58,0,0,1,2.53-6.09c13.19-4.24,19.81-6.28,33.07-10.19,2.05-.61,4.21.82,6.4,3.25C-1595.91-2653.73-1594.22-2651.76-1590.86-2647.84ZM-1546-2564c6.85,9,17.76,12.87,27.15,9.82,14.76-4.79,20.27-21.68,13.47-42.85-7-21.78-22.26-33.55-37.9-29.11-10,2.83-16.68,12.29-16.44,23.46Z" transform="translate(1885.32 2946.31)"/><path class="cls-8" d="M-1406.45-2757.17c2.48-.29,5.12,1.47,5.59,3.49l46.16,200.35a4.36,4.36,0,0,1-3,5.22c-18.66,4.27-28,6.58-46.47,11.53a4.47,4.47,0,0,1-5.14-3.36l-55.27-205a4.12,4.12,0,0,1,3.54-4.84C-1439.23-2753.12-1428.31-2754.61-1406.45-2757.17Z" transform="translate(1885.32 2946.31)"/><path class="cls-8" d="M-1354.42-2693.78a4.24,4.24,0,0,1,.35-5.58c14.81-12.27,37.87-20.44,62-22.07,52.16-3.52,79.21,21.06,85.56,74l8.26,69a4.07,4.07,0,0,1-3.57,4.41c-13.61,1.43-20.41,2.23-34,4a4.55,4.55,0,0,1-4.92-3.52l-3-7.11c-7.51,10.7-24.18,19.36-43.66,22.77-30.68,5.37-55.46-11.25-62.08-42.74-5.89-28.06,11.78-50.3,44.27-54.15,16.67-2,32.63,2.41,39.73,10.62l-1.83-11.52c-1.88-11.8-12.14-18.77-25.54-17.45-11.36,1.12-24.68,6.31-33.15,12.88-1.28,1-3.23.13-4.78-1.69C-1340.07-2674.6-1344.8-2681-1354.42-2693.78Zm93.27,76.81c-5.49-4.12-10.64-5.78-16.52-5.06-7,.86-11.08,5.39-10,11.5s6.47,9.33,13.37,8.4c5.79-.78,10.12-3.59,14.11-8.81Z" transform="translate(1885.32 2946.31)"/><path class="cls-8" d="M-1181.57-2704.84a3.6,3.6,0,0,1,1-5c16.08-9.42,39.82-14.21,63.88-13,52,2.72,76.08,27.87,76.38,75.8,0.16,24.95.24,37.42,0.39,62.37a3.85,3.85,0,0,1-4.05,3.55c-13.71-.21-20.56-0.22-34.26-0.08-2.18,0-4.42-1.68-4.49-3.67-0.86-2.67-1.3-4-2.17-6.68-8.7,8.77-26.27,14.77-46,15.82-31.11,1.66-53.75-15.78-56.62-44.82-2.56-25.87,17.54-44.06,50.18-44,16.75,0,32.07,5.71,38.17,13.84l-0.5-10.51c-0.51-10.76-9.88-18.14-23.31-18.43-11.38-.25-25.17,3-34.33,8-1.39.79-3.22-.23-4.54-2C-1169.61-2686.06-1173.55-2692.3-1181.57-2704.84Zm83.54,79c-5-4.28-9.89-6.33-15.81-6.31-7.06,0-11.62,3.64-11.25,9.24s5.34,9,12.3,9c5.84-.08,10.46-2.13,15-6.37C-1097.88-2622.57-1097.93-2623.67-1098-2625.87Z" transform="translate(1885.32 2946.31)"/><path class="cls-8" d="M-1009.06-2695.19c-0.86-1.75-.25-3.34,1.55-4.3,17-6.45,41.09-7.8,64.82-3.67,51.34,8.94,72.5,34.32,67.62,76.49l-6.35,54.89c-0.2,1.7-2.26,2.92-4.43,2.62-13.66-1.85-20.5-2.69-34.18-4.19-2.17-.24-4.22-2-4.08-3.77-0.57-2.46-.85-3.69-1.43-6.16-9.63,6.71-27.83,10-47.63,8.64-31.19-2.07-51.76-20.07-51.33-46.24,0.38-23.31,22.38-37.19,54.82-33.22,16.64,2,31.24,8.94,36.42,16.86l0.66-9.35c0.68-9.57-7.83-17.26-21.13-19.15-11.29-1.61-25.34-.42-35,2.92-1.46.53-3.17-.59-4.28-2.34C-999.3-2677.08-1002.51-2683.09-1009.06-2695.19Zm74.23,80a24.69,24.69,0,0,0-15-7.48c-7-.83-12,1.84-12.22,6.84s4.31,8.64,11.26,9.38a22.91,22.91,0,0,0,15.66-3.85Z" transform="translate(1885.32 2946.31)"/><path class="cls-8" d="M-846.46-2599.88c0.73-1.13,2.42-1,3.72-.12,10.13,6.83,21.48,12.54,30.44,14.78,5.55,1.39,10,.12,10.49-2.84,1.79-10.06-59.56-19.51-54.53-58.8,2.87-22.36,31.55-31.29,71-19.8,18.85,5.49,40.47,17.07,54.13,28.33,1.26,1.21,1.9,2.42,1.11,3.16-7.81,6.86-11.68,10.38-19.35,17.57-0.81,1-2.53.66-3.82-.32-10-7.93-21.67-14.22-30.93-17.07-5.77-1.77-10.24-1.1-10.8,2.06-1.86,10.46,60.37,24,52.24,59.16-4.58,19.82-31.14,27.21-66.9,20.29-17.47-3.38-38.55-11.7-52.87-21.23-1.23-1.26-1.91-2.43-1.2-3.6C-856.92-2587.1-853.46-2591.41-846.46-2599.88Z" transform="translate(1885.32 2946.31)"/><path class="cls-8" d="M-647.24-2649.54c2.3,1,3.95,3,3.54,4.38L-654-2610.79c9.36-3,24-1,39.06,5.58,33.51,14.52,48.87,34.5,41.93,52l-21.86,55.12c-0.48,1.21-2.73,1.58-4.82.8-18.39-6.86-27.63-10.11-46.18-16.27-2.11-.7-3.58-2.45-2.88-3.67l17.1-51.29c2.18-6.53-1.5-12.29-10.05-15.61-15.71-6.1-21.09,2.59-21.09,2.59l-16.41,54.62c-0.41,1.36-2.62,2-4.75,1.36-18.67-5.58-28-8.2-46.84-13.07-2.14-.55-3.69-2.31-3.34-3.77l31-126.52c0.36-1.46,2.71-2,5-1.08C-677.62-2662.19-667.45-2658.1-647.24-2649.54Z" transform="translate(1885.32 2946.31)"/><path class="cls-8" d="M-532.53-2495.39c22.47,10.28,25.55,19.54,23.14,24.28-2.55,5-11.72,8.08-33.88-1.31-21.9-9.28-25.57-18.34-23.21-23.86C-564.24-2501.5-554.73-2505.54-532.53-2495.39Zm-18.11-10.86c-2.1-.93-3.5-2.74-3.06-3.75,10.79-29.05,16.15-43.67,26.8-73.08,0.5-1.16,2.87-1.14,5.07,0,19.38,10.39,29,15.78,48,26.93,2.16,1.27,3.59,3.31,3.05,4.36-14.91,25-22.33,37.59-37.11,63-0.47.93-2.75,1-4.83,0C-527.8-2496-535.39-2499.5-550.64-2506.24Z" transform="translate(1885.32 2946.31)"/><path class="cls-9" d="M-1731.18-2503.94c-1-3.25.35-5,3.3-4.64,16.44,1.4,34.41.06,44.14-4.1,8.12-3.48,11.49-10.87,7.9-17.44-9.2-16.83-83.8,21.37-122.13-42.46-23.56-39.24-8.57-80.93,37.62-99.64,21.57-8.74,53.34-10.44,78.24-4.75,3.1,0.58,5.07,2.65,4.83,4.5-0.12,19.87,0,29.65.75,49.06,0.55,3.26-1,5-4.07,4.47-18.19-2.29-38.6-1.74-48.56,2-8.74,3.31-12.53,10.53-9,16.94,9.39,17.19,89.33-18.29,119.72,44.78,18.37,38.13,4.28,75.75-33.54,95-20.64,10.51-46.11,14.38-65.33,9.38-3-.69-5-2.34-5.1-4.2C-1726.17-2474.84-1727.94-2484.55-1731.18-2503.94Z" transform="translate(1885.32 2946.31)"/><path class="cls-10" d="M-1595.1-2662.89c6.58-15.68,23.16-29.89,43.57-36.13,48.11-14.7,90.31,12,105.24,62.42,14.84,50.08-3.21,91.72-44,106.24-12.15,4.32-25.21,4.52-35.74.43,9,23,13.4,34.67,22,58.65,0.76,2.14-.18,5-2.12,5.8-17.12,7.11-25.62,10.83-42.5,18.6-1.92.88-4.46-.51-5.33-2.67-29.92-69.44-61.42-137.9-92.89-206.65a4.61,4.61,0,0,1,2.54-6.12c13.53-5.06,20.32-7.53,33.94-12.32,2.11-.74,4.33.51,6.6,2.74Zm47.18,78c7.14,8.33,18.3,11.55,27.79,8.25,14.93-5.2,20.33-21.8,13.15-42.05-7.39-20.84-23.09-31.51-39.08-26.23a24,24,0,0,0-16.53,23.68C-1556.73-2606.66-1553.79-2599.42-1547.92-2584.87Z" transform="translate(1885.32 2946.31)"/><path class="cls-11" d="M-1406.63-2782.15c2.51-.34,5.16,1.39,5.62,3.41,15.22,66.69,30.86,133.29,46.34,199.92a4.35,4.35,0,0,1-3,5.22c-18.66,4.26-28,6.6-46.52,11.66a4.46,4.46,0,0,1-5.16-3.29c-18.86-67.48-38.19-134.85-56.26-202.55-0.55-2.08,1.11-4.6,3.64-5.09C-1439.76-2777.24-1428.68-2779.12-1406.63-2782.15Z" transform="translate(1885.32 2946.31)"/><path class="cls-10" d="M-1354.42-2719.19a4.24,4.24,0,0,1,.35-5.58c14.81-12.27,37.87-20.44,62-22.07,52.17-3.52,79.21,21.06,85.56,74l8.26,69a4.07,4.07,0,0,1-3.57,4.41c-13.61,1.43-20.41,2.23-34,4a4.55,4.55,0,0,1-4.92-3.52l-3-7.11c-7.51,10.7-24.18,19.36-43.65,22.77-30.68,5.37-55.45-11.31-62.08-42.75-5.91-28,11.78-50.29,44.28-54.14,16.67-2,32.63,2.41,39.73,10.62l-1.83-11.52c-1.88-11.8-12.14-18.77-25.55-17.45-11.35,1.12-24.67,6.31-33.15,12.88-1.28,1-3.23.13-4.78-1.69C-1340.07-2700-1344.79-2706.42-1354.42-2719.19Zm93.27,76.81c-5.49-4.12-10.64-5.78-16.53-5.06-7,.86-11.08,5.39-10,11.5s6.47,9.33,13.37,8.4c5.8-.78,10.13-3.59,14.11-8.81Z" transform="translate(1885.32 2946.31)"/><path class="cls-12" d="M-1181.57-2730.25a3.6,3.6,0,0,1,1-5c16.07-9.42,39.82-14.21,63.88-13,52,2.72,76.08,27.87,76.38,75.8,0.16,24.95.24,37.42,0.39,62.37a3.86,3.86,0,0,1-4.06,3.55c-13.71-.21-20.56-0.22-34.26-0.08-2.18,0-4.42-1.68-4.49-3.67l-2.17-6.68c-8.69,8.77-26.27,14.77-46,15.82-31.11,1.66-53.76-15.78-56.63-44.82-2.56-25.87,17.54-44.06,50.19-44,16.74,0,32.07,5.71,38.17,13.84l-0.49-10.51c-0.51-10.76-9.88-18.14-23.32-18.43-11.37-.25-25.17,3-34.33,8-1.39.79-3.22-.23-4.54-2C-1169.61-2711.47-1173.55-2717.71-1181.57-2730.25Zm83.54,79c-5-4.28-9.89-6.33-15.82-6.31-7.06,0-11.62,3.64-11.25,9.24s5.34,9,12.3,9c5.85-.08,10.47-2.13,15-6.37Z" transform="translate(1885.32 2946.31)"/><path class="cls-10" d="M-1009.07-2720.6c-0.86-1.75-.25-3.34,1.55-4.3,17-6.45,41.09-7.8,64.82-3.67,51.34,8.93,72.5,34.32,67.62,76.49l-6.35,54.89c-0.2,1.7-2.25,2.92-4.42,2.62-13.66-1.85-20.5-2.69-34.18-4.19-2.17-.24-4.22-2-4.08-3.77-0.57-2.46-.85-3.69-1.43-6.16-9.64,6.71-27.83,10-47.64,8.64-31.19-2.07-51.75-20.07-51.33-46.24,0.38-23.31,22.38-37.19,54.81-33.22,16.65,2,31.24,8.94,36.42,16.86l0.66-9.35c0.68-9.57-7.83-17.26-21.13-19.15-11.29-1.61-25.34-.43-35,2.92-1.46.53-3.17-.59-4.28-2.34C-999.3-2702.49-1002.51-2708.5-1009.07-2720.6Zm74.23,80a24.68,24.68,0,0,0-15-7.48c-7-.83-12,1.84-12.22,6.84s4.31,8.64,11.26,9.38a22.9,22.9,0,0,0,15.65-3.85Z" transform="translate(1885.32 2946.31)"/><path class="cls-13" d="M-846.47-2625.29c0.73-1.13,2.42-1,3.72-.12,10.14,6.84,21.48,12.54,30.44,14.78,5.56,1.39,10,.12,10.49-2.84,1.79-10.06-59.56-19.51-54.53-58.8,2.86-22.36,31.55-31.29,71-19.8,18.85,5.49,40.47,17.07,54.12,28.33,1.26,1.21,1.9,2.42,1.11,3.16-7.81,6.86-11.68,10.38-19.34,17.58-0.81,1-2.53.66-3.82-.32-10-7.94-21.67-14.22-30.93-17.07-5.77-1.77-10.24-1.1-10.8,2.06-1.86,10.46,60.36,24,52.23,59.16-4.58,19.82-31.13,27.21-66.89,20.29-17.48-3.38-38.56-11.7-52.87-21.23-1.23-1.26-1.91-2.43-1.2-3.6C-856.92-2612.5-853.47-2616.82-846.47-2625.29Z" transform="translate(1885.32 2946.31)"/><path class="cls-10" d="M-647.25-2675c2.3,1,3.95,3,3.54,4.38L-654-2636.2c9.36-3,24-1,39.06,5.58,33.51,14.52,48.88,34.5,41.93,52l-21.86,55.12c-0.48,1.21-2.73,1.58-4.82.8-18.39-6.86-27.64-10.12-46.19-16.27-2.11-.7-3.58-2.45-2.88-3.67l17.1-51.3c2.18-6.53-1.5-12.28-10-15.6-15.72-6.1-21.1,2.59-21.1,2.59l-16.41,54.62c-0.41,1.36-2.62,2-4.75,1.36-18.67-5.58-28-8.19-46.83-13.07-2.14-.55-3.7-2.31-3.34-3.77l31-126.52c0.36-1.46,2.71-2,5-1.07C-677.62-2687.6-667.45-2683.51-647.25-2675Z" transform="translate(1885.32 2946.31)"/><path class="cls-14" d="M-532.54-2520.8c22.48,10.28,25.56,19.55,23.15,24.28-2.54,5-11.72,8.08-33.89-1.31-21.9-9.28-25.57-18.34-23.21-23.86C-564.25-2526.91-554.74-2531-532.54-2520.8Zm-18.11-10.85c-2.1-.93-3.51-2.74-3.07-3.75,10.79-29.05,16.15-43.67,26.8-73.08,0.5-1.16,2.87-1.14,5.07,0,19.38,10.39,29,15.78,48,26.93,2.16,1.27,3.59,3.31,3.05,4.36-14.91,25-22.33,37.59-37.12,63-0.46.93-2.75,1-4.83,0C-527.8-2521.41-535.39-2524.91-550.64-2531.65Z" transform="translate(1885.32 2946.31)"/></svg>