<svg id="Layer_1" data-name="Layer 1" xmlns="http://www.w3.org/2000/svg" viewBox="0 0 1456.8 292.37"><defs><style>.cls-1{fill:#ffa9e6;}.cls-2,.cls-9{fill:#fff;}.cls-3{fill:#f6c9e3;}.cls-4{fill:#8b69d3;}.cls-5{fill:#ad91e0;}.cls-6{fill:#f96ada;}.cls-7{fill:#ff49c3;}.cls-8{fill:#f128c1;}.cls-9{stroke:#f96ada;stroke-miterlimit:10;stroke-width:8.22px;}.cls-10{fill:#ff3fb4;}</style></defs><title>text_07</title><path class="cls-1" d="M-3260-3452.22a31,31,0,0,1-20.76-8,29.07,29.07,0,0,1-20.14,8h-46.44a28.52,28.52,0,0,1-28.62-28.35V-3655a28.66,28.66,0,0,1,28.62-28.62h69.66c54.29,0,92.21,34.66,92.21,84.3a81,81,0,0,1-23.92,57.19l30,48.56,0.29,0.52a27.17,27.17,0,0,1-.21,27.2,28.15,28.15,0,0,1-24.26,13.63H-3260Z" transform="translate(4632.33 3695.79)"/><path class="cls-2" d="M-3243.57-3489.21a2.88,2.88,0,0,1-2.31-1.79l-28.6-60h-9.87v61.73l-0.11,0h-46.3v-173.86h69.52c38.54,0,63.44,21.8,63.44,55.53,0,19.92-12.32,39.09-30,46.62l-4.4,1.88,43.2,69.83h-54.61Zm-40.78-98.39h19.67c11.28,0,19.15-7.44,19.15-18.1s-7.88-18.09-19.15-18.09h-19.67v36.19Z" transform="translate(4632.33 3695.79)"/><path class="cls-3" d="M-3261.25-3659c36,0,59.33,20.18,59.33,51.42,0,18.32-11.29,35.94-27.47,42.84l-8.8,3.75,5,8.13,36.81,59.5h-46.1l-27.22-57.07-2.23-4.68h-16.57v61.75h-38.19V-3659h65.41m-27.22,75.47h23.78c13.48,0,23.26-9.34,23.26-22.21s-9.78-22.2-23.26-22.2h-23.78v44.41m27.22-83.69h-69.66a4.07,4.07,0,0,0-4,4v174.42a4,4,0,0,0,4,3.69h46.44a4.09,4.09,0,0,0,4.22-3.69v-58.06h3.16l27.44,57.53a6.92,6.92,0,0,0,6.07,4.22h56.47c2.38,0,4.22-1.85,2.91-4.22l-42-67.82c19.79-8.44,32.46-29.55,32.46-50.4,0-35.89-26.92-59.64-67.55-59.64h0Zm-19,75.47v-28h15.56c9,0,15,5.54,15,14s-6.07,14-15,14h-15.56Z" transform="translate(4632.33 3695.79)"/><path class="cls-4" d="M-4601.15-3424.21a31.37,31.37,0,0,1-31.19-31.48v-191.58a31.37,31.37,0,0,1,31.19-31.48h67.34c76.3,0,129.59,52.34,129.59,127.27s-53.29,127.27-129.59,127.27h-67.34Z" transform="translate(4632.33 3695.79)"/><path class="cls-1" d="M-4240-3403.42c-30.85,0-62-9.62-81.39-25.1-12.18-9.17-16.31-25.08-9.8-38.22l17.51-39.2a32.81,32.81,0,0,1,3.84-7.22c-14.82-13.73-26.37-33.25-26.37-61.65,0-54.08,41.36-91.85,100.57-91.85,25.86,0,57.21,10,80,25.41,13.7,9,18.6,25.85,11.78,39.65l-17.52,39.22a33,33,0,0,1-2.93,5.85c14.67,13.75,26,33.26,26,61.55C-4138.28-3441.07-4180.11-3403.42-4240-3403.42Z" transform="translate(4632.33 3695.79)"/><path class="cls-4" d="M-3862.43-3411.9c-76.64,0-130.16-54-130.16-131.33,0-77.67,53.52-131.91,130.16-131.91s130.17,54.24,130.17,131.91C-3732.25-3465.91-3785.79-3411.9-3862.43-3411.9Zm0-150.36c-10.45,0-12.64,10.35-12.64,19s2.19,19,12.64,19,12.64-10.35,12.64-19S-3852-3562.26-3862.43-3562.26Z" transform="translate(4632.33 3695.79)"/><path class="cls-5" d="M-3525.25-3416c-14.09,0-26.74-9.91-30.74-24.1l-1-3.62v-195.62a30.85,30.85,0,0,1,31.19-31.19h132.07c17.52,0,31.77,14,31.77,31.19v43.83a31.12,31.12,0,0,1-15.27,27,29.94,29.94,0,0,1,0,7.11l-4,40.15a31,31,0,0,1,22.48,29.61v44.41a31.37,31.37,0,0,1-31.48,31.19h-135Z" transform="translate(4632.33 3695.79)"/><path class="cls-2" d="M-4608.91-3455v-191.24H-4542c29,0,53.62,9,71.15,26.15s26.79,41.13,26.79,69.48c0,28.14-9.27,52.09-26.8,69.27S-4513.08-3455-4542-3455h-66.88Zm50.75-43.21h19.61c25.1,0,42-21.06,42-52.42s-16.86-52.41-42-52.41h-19.61v104.83Z" transform="translate(4632.33 3695.79)"/><path class="cls-6" d="M-4542-3641.76c56.75,0,93.42,35.76,93.42,91.1,0,26.89-8.8,49.73-25.44,66s-40.24,25.06-68,25.06h-62.36v-182.2H-4542m-20.65,148h24.13a42.64,42.64,0,0,0,34.22-16.64c8-10.24,12.26-24.18,12.26-40.3s-4.24-30.06-12.26-40.3a42.64,42.64,0,0,0-34.22-16.63h-24.13v113.87M-4542-3650.8h-67.34a4.42,4.42,0,0,0-4.06,4.36v191.58a4.42,4.42,0,0,0,4.06,4.35H-4542c61.53,0,102.47-40.35,102.47-100.14,0-60.38-40.93-100.14-102.47-100.14h0Zm-11.61,148v-95.79h15.09c22.36,0,37.45,19.16,37.45,47.89s-15.09,47.9-37.45,47.9h-15.09Z" transform="translate(4632.33 3695.79)"/><path class="cls-2" d="M-4240-3434.24c-23.27,0-48-7.3-61.62-18.17l-0.1-.08a5.52,5.52,0,0,1-.58-0.5l17.82-39.88c13.75,7.6,29.82,13.05,41.23,14h0.36c11.9,0,19.9-6.25,19.9-15.55,0-8.94-10.48-13.06-25-18.76-23.88-9.38-56.58-22.23-56.58-60.78,0-17.75,6.45-32.81,18.64-43.56,12.36-10.89,29.75-16.65,50.28-16.65,19.74,0,44.85,8.08,62.47,20.11l0.15,0.1a2.59,2.59,0,0,1,.3.21l-17.84,39.94c-14.56-8.16-31.23-14.2-41.78-15.1l-0.19,0h-0.19c-11.56,0-19.33,6-19.33,15s10.51,13,25,18.67c24.1,9.36,57.1,22.18,57.1,61.16,0,17.59-6.56,32.55-19,43.27C-4201.5-3440-4219.17-3434.24-4240-3434.24Z" transform="translate(4632.33 3695.79)"/><path class="cls-6" d="M-4235.65-3629.67c17.92,0,40.5,7,57.23,17.56l-14.29,32c-14.08-7.33-29-12.44-39.26-13.31l-0.38,0h-0.39c-14,0-23.85,8-23.85,19.49,0,6.09,3.67,11.29,10.91,15.43,4.55,2.61,10.33,4.85,17,7.45,11.49,4.46,25.8,10,36.62,19,11.84,9.81,17.59,22.22,17.59,38,0,16.23-6,30-17.41,39.85-11.77,10.17-28.42,15.54-48.15,15.54-21.18,0-43.53-6.21-56.73-15.62l14.4-32.23c13.23,6.68,27.91,11.35,38.72,12.21l0.35,0h0.36c14.38,0,24.42-8.25,24.42-20.07,0-6.08-3.66-11.28-10.86-15.45-4.55-2.63-10.31-4.89-17-7.52-11.4-4.48-25.58-10.05-36.31-19-11.71-9.75-17.41-22-17.41-37.59,0-33.83,25.28-55.69,64.4-55.69m0-9c-44.12,0-73.44,25.83-73.44,64.73,0,63.28,81.57,62.41,81.57,79.54,0,6.67-6.09,11-15.38,11-11-.87-27-6.38-40.35-13.93a4,4,0,0,0-2.1-.69c-1.4,0-2.53,1-3.12,3l-18.29,40.93c-0.87,1.45,0,3.48,2.31,5.23,14.52,11.61,40.06,19.16,64.45,19.16,44.7,0,74.6-25.83,74.6-64.44,0-63.86-82.15-62.7-82.15-79.83,0-6.38,5.81-10.45,14.81-10.45,10.15,0.87,26.7,7,40.92,15.09a4,4,0,0,0,2.1.69c1.39,0,2.53-1,3.12-3l18.29-40.92c0.87-1.45,0-3.77-2.32-5.23-18.29-12.48-44.41-20.9-65-20.9h0Z" transform="translate(4632.33 3695.79)"/><path class="cls-2" d="M-3862.43-3442.72c-29.08,0-53.8-9.46-71.49-27.36s-27-42.91-27-72.33c0-29.68,9.35-54.87,27-72.84s42.37-27.42,71.48-27.42,53.83,9.48,71.49,27.42,27,43.16,27,72.84c0,29.42-9.35,54.43-27,72.33S-3833.34-3442.72-3862.43-3442.72Zm0-150.36c-12.84,0-24.29,5.08-32.23,14.31s-12.06,21.73-12.06,36.37,4.17,27.21,12.06,36.37,19.39,14.31,32.23,14.31c13,0,24.18-4.95,32.24-14.31,7.88-9.16,12.05-21.73,12.05-36.37s-4.17-27.21-12.05-36.37C-3838.25-3588.13-3849.4-3593.08-3862.43-3593.08Z" transform="translate(4632.33 3695.79)"/><path class="cls-6" d="M-3862.43-3638.15c27.87,0,51.48,9,68.27,26.07s25.74,41.2,25.74,69.67c0,28.2-8.9,52.12-25.73,69.15s-40.43,26-68.28,26-51.46-9-68.27-26-25.73-40.95-25.73-69.15c0-28.47,8.9-52.56,25.74-69.67s40.39-26.07,68.26-26.07m0,150.94c14.18,0,26.85-5.64,35.66-15.88,8.6-10,13.15-23.58,13.15-39.31s-4.55-29.33-13.15-39.32c-8.82-10.24-21.48-15.88-35.66-15.88s-26.84,5.64-35.66,15.88c-8.6,10-13.15,23.59-13.15,39.32s4.55,29.32,13.15,39.32c8.82,10.24,21.48,15.88,35.66,15.88m0-160c-61.82,0-103,41.8-103,104.79,0,62.41,41.22,104.2,103,104.2s103-41.8,103-104.2c0-63-41.22-104.79-103-104.79h0Zm0,150.94c-23.8,0-39.77-18.58-39.77-46.15s16-46.15,39.77-46.15,39.77,18.58,39.77,46.15-16,46.15-39.77,46.15h0Z" transform="translate(4632.33 3695.79)"/><path class="cls-2" d="M-3524.83-3446.81a2.93,2.93,0,0,1-.54-0.68v-190.56h131.61l0.12,0v43.19H-3474v32h65.21l-3.9,38.92a0.78,0.78,0,0,1-.49.23H-3474V-3490h83.6v43.21h-134.39Z" transform="translate(4632.33 3695.79)"/><path class="cls-6" d="M-3398.16-3633.54v34.17h-80.4v41h64.74l-3,30.1h-61.72v42.76h83.6v34.17h-125.89v-182.2h122.69m4.4-9h-132.07c-2.61,0-4.06,1.45-4.06,4.07v191.87c0.57,2,2.61,4.35,4.64,4.35h135a4.42,4.42,0,0,0,4.35-4.06v-44.41c0-2-2-3.77-4.35-3.77h-79.24v-24.67h56.3a5.1,5.1,0,0,0,4.94-3.77l4.07-40.64c0.28-1.74-1.17-3.77-3.78-3.77h-61.53v-22.93h75.76a4.35,4.35,0,0,0,4.64-4.36v-43.83c0-2-2-4.07-4.64-4.07h0Z" transform="translate(4632.33 3695.79)"/><path class="cls-7" d="M-3682.2-3460.44a30.2,30.2,0,0,1-28.17-20.61L-3770.54-3655a27.17,27.17,0,0,1,2.74-24.51,27.48,27.48,0,0,1,23.06-12.34h58.84a29.93,29.93,0,0,1,28.74,21.65l4,15.56,3.82-15a30.16,30.16,0,0,1,28.9-22.25h58.84a27.49,27.49,0,0,1,23,12.29,27.18,27.18,0,0,1,2.78,24.53L-3596-3481.08a30.16,30.16,0,0,1-28.17,20.64h-58.06Z" transform="translate(4632.33 3695.79)"/><path class="cls-2" d="M-3682.2-3497.42a1.74,1.74,0,0,1-.81-0.74l-0.06-.19-59.82-172.93h57a1.52,1.52,0,0,1,1.05.71l31.66,123.93,31.66-123.93a1.54,1.54,0,0,1,1.06-.71h57l-59.86,173,0,0.11a1.66,1.66,0,0,1-.82.7h-58Z" transform="translate(4632.33 3695.79)"/><path class="cls-6" d="M-3569.23-3667.17l-57.3,165.64h-53.29l-57.29-165.64h48.9l27.07,106,8,31.17,8-31.17,27.07-106h48.91m7.62-8.22h-58.84a5.49,5.49,0,0,0-5,3.7l-27.71,108.45-27.71-108.45a5.47,5.47,0,0,0-5-3.7h-58.84a2.64,2.64,0,0,0-2.64,3.7L-3687-3497a5.43,5.43,0,0,0,4.75,3.69h58.06a5.42,5.42,0,0,0,4.74-3.69L-3559-3671.7a2.65,2.65,0,0,0-2.64-3.7h0Z" transform="translate(4632.33 3695.79)"/><path class="cls-8" d="M-4394.39-3460.44a28.73,28.73,0,0,1-28.35-28.35v-174.42a28.52,28.52,0,0,1,28.35-28.62h46.71a28.65,28.65,0,0,1,28.62,28.62v174.42a28.51,28.51,0,0,1-28.62,28.35h-46.71Z" transform="translate(4632.33 3695.79)"/><path class="cls-9" d="M-4347.68-3675.39a3.89,3.89,0,0,1,4,4V-3497a3.84,3.84,0,0,1-4,3.69h-46.71a4,4,0,0,1-3.69-3.69v-174.42a4,4,0,0,1,3.69-4h46.71Z" transform="translate(4632.33 3695.79)"/><path class="cls-10" d="M-4044.23-3456.48c-68,0-115.42-49.2-115.42-119.65s47.46-119.65,115.42-119.65c23.74,0,48.39,6.77,67.75,18.6,13,7.28,18.48,22.44,12.7,35.86l-17.8,37.51a27.83,27.83,0,0,1-25.51,16.65,28.33,28.33,0,0,1-12.83-3.08l-1.1-.59c-5.31-3-10.47-4.18-18.45-4.18-9.9,0-14.92,6.35-14.92,18.88s5,18.88,14.92,18.88c8,0,13.15-1.17,18.45-4.18l1.14-.61a28.35,28.35,0,0,1,12.79-3.06c11.2,0,21.09,6.61,25.79,17.25l17.53,36.93c5.76,13.42.3,28.58-12.71,35.85C-3995.85-3463.25-4020.49-3456.48-4044.23-3456.48Z" transform="translate(4632.33 3695.79)"/><path class="cls-2" d="M-4044.23-3485.25c-25.53,0-47.25-8.59-62.8-24.85s-23.86-39.16-23.86-66,8.25-49.71,23.86-66,37.26-24.85,62.8-24.85c18.53,0,38.44,5.49,53.25,14.69l0.16,0.1,0.31,0.16-17,35.83c-9.45-5.21-19.34-7.53-32-7.53-26.13,0-43.69,19.15-43.69,47.65s17.56,47.65,43.69,47.65c12.61,0,22.5-2.33,32-7.54l17,35.83-0.31.16-0.16.1C-4005.79-3490.74-4025.7-3485.25-4044.23-3485.25Z" transform="translate(4632.33 3695.79)"/><path class="cls-6" d="M-4044.23-3662.91c16.69,0,34.53,4.63,48.39,12.47l-13.59,28.61c-8.93-4.17-18.41-6.07-30.05-6.07-13.83,0-26.18,5.21-34.78,14.66s-13,22.2-13,37.09,4.5,27.73,13,37.1,20.95,14.66,34.78,14.66c11.64,0,21.12-1.89,30.05-6.07l13.59,28.61c-13.85,7.84-31.69,12.47-48.39,12.47-24.38,0-45.07-8.16-59.83-23.58s-22.72-37.4-22.72-63.19,7.86-47.65,22.72-63.19,35.44-23.58,59.83-23.58m0-8.22c-54.36,0-90.77,38-90.77,95s36.41,95,90.77,95c19.53,0,40.12-5.8,55.42-15.3,2.11-1.06,3.17-2.9,2.38-4.75l-17.42-36.68c-0.74-1.68-1.89-2.57-3.24-2.57a4,4,0,0,0-1.77.46c-9.77,5.54-19.26,7.39-30.61,7.39-23.74,0-39.58-17.41-39.58-43.54s15.84-43.54,39.58-43.54c11.35,0,20.85,1.85,30.61,7.38a4,4,0,0,0,1.77.46c1.35,0,2.5-.89,3.24-2.57l17.42-36.68c0.79-1.85-.26-3.69-2.38-4.75-15.3-9.5-35.89-15.31-55.42-15.31h0Z" transform="translate(4632.33 3695.79)"/></svg>