<?xml version="1.0" encoding="utf-8"?>
<!-- Generator: Adobe Illustrator 19.1.0, SVG Export Plug-In . SVG Version: 6.00 Build 0)  -->
<svg version="1.1" id="Layer_1" xmlns="http://www.w3.org/2000/svg" xmlns:xlink="http://www.w3.org/1999/xlink" x="0px" y="0px"
	 viewBox="1182.3 329.3 89.6 367.8" style="enable-background:new 1182.3 329.3 89.6 367.8;" xml:space="preserve">
    <g>
        <path class="st3" d="M1265.2,401.6V360c0-17-13.7-30.7-30.7-30.7h-14.6c-17,0-30.7,13.7-30.7,30.7v41.6H1265.2z"/>
        <rect x="1189.2" y="487.3" class="st4" width="76" height="209.8"/>

            <linearGradient id="SVGID_1_" gradientUnits="userSpaceOnUse" x1="1227.15" y1="620.1126" x2="1227.15" y2="489.002" gradientTransform="matrix(1 0 0 -1 0 1028.6)">
            <stop  offset="0" style="stop-color:#BFC8CE"/>
            <stop  offset="1" style="stop-color:#A7B3B9"/>
        </linearGradient>
        <path class="st1" d="M1271.1,446.5h-87.9c-0.4,0-0.8,0.4-0.8,0.8v30c0,0.4,0.4,0.8,0.8,0.8h87.9c0.4,0,0.8-0.4,0.8-0.8v-30
            C1271.9,446.9,1271.6,446.5,1271.1,446.5z"/>

            <linearGradient id="SVGID_2_" gradientUnits="userSpaceOnUse" x1="1227.1001" y1="619.9573" x2="1227.1001" y2="497.6443" gradientTransform="matrix(1 0 0 -1 0 1028.6)">
            <stop  offset="0" style="stop-color:#BFC8CE"/>
            <stop  offset="1" style="stop-color:#A7B3B9"/>
        </linearGradient>
        <path class="st2" d="M1271.9,433.5v-19c0-2.1-1.7-3.8-3.8-3.8h-82c-2.1,0-3.8,1.7-3.8,3.8v19c0,2.1,1.7,3.8,3.8,3.8h82
            C1270.2,437.3,1271.9,435.6,1271.9,433.5z"/>
    </g>
</svg>