<svg id="Layer_2" data-name="Layer 2" xmlns="http://www.w3.org/2000/svg" viewBox="0 0 186.01 316.56">
<defs><style>.cls-1{fill:#366c87;}.cls-3{fill:#bbc3c8;}</style></defs>
<title>art_highlighter</title><polygon class="st0" points="131.12 56.58 131.12 24.29 54.89 0 54.89 56.58 131.12 56.58"/>
    <path class="cls-3" d="M4349.34,1837.22h-95.56a6.53,6.53,0,0,0-6.55,6.59c0.12,14.6-2.85,48.69-32.8,52.61a6.62,6.62,0,0,0-5.88,6.5v34.23h186v-34.23a6.62,6.62,0,0,0-5.88-6.5c-29.95-3.93-32.92-38-32.8-52.61A6.53,6.53,0,0,0,4349.34,1837.22Z" transform="translate(-4208.56 -1771.44)"/>
    <rect class="st0" y="174.99" width="186.01" height="141.56"/>
    </svg>