<svg id="Layer_1" data-name="Layer 1" xmlns="http://www.w3.org/2000/svg" viewBox="0 0 550.78 614.73"><defs><style>.cls-1{fill:#b3b3b3;}.cls-2{fill:gray;}</style></defs><title>shape_07</title><path class="cls-1" d="M-2263.4,1311.47l-206.71,119.34a68.68,68.68,0,0,1-68.68,0l-206.71-119.34a68.68,68.68,0,0,1-34.34-59.48V1013.3a68.68,68.68,0,0,1,34.34-59.48l206.71-119.34a68.68,68.68,0,0,1,68.68,0l206.71,119.34a68.68,68.68,0,0,1,34.34,59.48V1252A68.68,68.68,0,0,1-2263.4,1311.47Z" transform="translate(2779.84 -825.28)"/><path class="cls-2" d="M-2549.18,1424.81l-196.31-113.34a68.68,68.68,0,0,1-34.34-59.48V1013.3a68.68,68.68,0,0,1,34.34-59.48l196.31-113.34a29.82,29.82,0,0,1,44.74,25.83V1399A29.82,29.82,0,0,1-2549.18,1424.81Z" transform="translate(2779.84 -825.28)"/></svg>