<svg id="Layer_1" data-name="Layer 1" xmlns="http://www.w3.org/2000/svg" viewBox="0 0 596.23 568.55"><defs><style>.cls-1{fill:#e7ca00;}.cls-2{fill:#e1ab00;}</style></defs><title>shape_01</title><path class="cls-1" d="M-4242.54,103.31l80.22,162.54a15.36,15.36,0,0,0,11.57,8.4l179.38,26.06a15.36,15.36,0,0,1,8.51,26.21l-129.8,126.52a15.36,15.36,0,0,0-4.42,13.6l30.64,178.65a15.36,15.36,0,0,1-22.29,16.2l-160.44-84.35a15.36,15.36,0,0,0-14.3,0L-4423.9,661.5a15.36,15.36,0,0,1-22.29-16.2l30.64-178.65a15.36,15.36,0,0,0-4.42-13.6l-129.8-126.52a15.36,15.36,0,0,1,8.51-26.21l179.38-26.06a15.36,15.36,0,0,0,11.57-8.4l80.22-162.54A15.36,15.36,0,0,1-4242.54,103.31Z" transform="translate(4554.43 -94.75)"/><path class="cls-2" d="M-4264.53,577.71L-4423.9,661.5a15.36,15.36,0,0,1-22.29-16.2l30.64-178.65a15.36,15.36,0,0,0-4.42-13.6l-129.8-126.52a15.36,15.36,0,0,1,8.51-26.21l179.38-26.06a15.36,15.36,0,0,0,11.57-8.4l64.86-131.41c7.19-14.58,29.14-9.46,29.14,6.8V564.11A15.36,15.36,0,0,1-4264.53,577.71Z" transform="translate(4554.43 -94.75)"/></svg>