<svg id="Layer_1" data-name="Layer 1" xmlns="http://www.w3.org/2000/svg" viewBox="0 0 593.09 510.47"><defs><style>.cls-1{fill:#ff49c3;}.cls-2{fill:#c40a86;}</style></defs><title>shape_04</title><path class="cls-1" d="M-1374.07,231.55c-9.67-29.1-29.61-54.15-56.5-68.88-114-62.48-229.22,18.41-229.22,126.2h0c0-109.18-117.8-196.9-233.23-126.87a122.87,122.87,0,0,0-47.24,52.42c-28,59.2-18.36,117.73,12.62,159.47L-1687,635.38a37.19,37.19,0,0,0,54.59.15l224.17-240.92C-1372,347.29-1349.48,305.54-1374.07,231.55Z" transform="translate(1956.84 -136.92)"/><path class="cls-2" d="M-1724.35,594.8l-203.29-220.92c-31-41.73-40.62-100.26-12.62-159.47A122.87,122.87,0,0,1-1893,162c115.43-70,233.23,17.69,233.23,126.87h0V569.62C-1659.79,603.5-1701.4,619.74-1724.35,594.8Z" transform="translate(1956.84 -136.92)"/></svg>