<svg id="Layer_1" data-name="Layer 1" xmlns="http://www.w3.org/2000/svg" viewBox="0 0 597.98 522.88"><defs><style>.cls-1{fill:#5fbfe5;}.cls-2{fill:#00a1e0;}</style></defs><title>shape_03</title><path class="cls-1" d="M-2542,133.15l-280.06,485.08a18.9,18.9,0,0,0,16.37,28.36h560.12a18.9,18.9,0,0,0,16.37-28.36l-280.06-485.08a18.9,18.9,0,0,0-32.74,0l-280.06,485.08a18.9,18.9,0,0,0,16.37,28.36h560.12a18.9,18.9,0,0,0,16.37-28.36l-280.06-485.08A18.9,18.9,0,0,0-2542,133.15Z" transform="translate(2824.63 -123.7)"/><path class="cls-2" d="M-2561.62,167.12l-260.45,451.11a18.9,18.9,0,0,0,16.37,28.36h260.45a18.9,18.9,0,0,0,18.9-18.9V176.57C-2526.34,157.23-2551.95,150.37-2561.62,167.12Z" transform="translate(2824.63 -123.7)"/></svg>