<svg id="Layer_1" data-name="Layer 1" xmlns="http://www.w3.org/2000/svg" viewBox="0 0 838.26 636.53"><defs><style>.cls-1{fill:#5f6161;}.cls-2{fill:#393528;}.cls-3{fill:#5bdae8;}.cls-4{fill:#40cbe2;}.cls-5{fill:#788088;}.cls-6{fill:#6e767c;}.cls-7{fill:#cdd1cd;}.cls-8{fill:#e1ab00;}.cls-9{fill:#ecde4c;}.cls-10{fill:#b3e1f2;}</style></defs><title>space_08</title><path class="cls-1" d="M4244.26,6323.16a18.91,18.91,0,0,1-13.37-32.29l60.63-60.63a18.91,18.91,0,0,1,26.74,26.74l-60.63,60.63A18.85,18.85,0,0,1,4244.26,6323.16Z" transform="translate(-4085.75 -5758.19)"/><path class="cls-1" d="M4244.26,6394.72a18.92,18.92,0,0,1-13.37-32.29,31.68,31.68,0,0,0-44.8-44.81,18.91,18.91,0,1,1-26.74-26.74,69.51,69.51,0,1,1,98.29,98.3A18.86,18.86,0,0,1,4244.26,6394.72Z" transform="translate(-4085.75 -5758.19)"/><path class="cls-1" d="M4777.86,6323.16a18.86,18.86,0,0,1-13.37-5.54L4703.85,6257a18.91,18.91,0,0,1,26.74-26.75l60.64,60.63A18.92,18.92,0,0,1,4777.86,6323.16Z" transform="translate(-4085.75 -5758.19)"/><path class="cls-2" d="M4765.72,6265.13L4733.57,6233a18.91,18.91,0,0,0-26.75,26.75l32.15,32.14Z" transform="translate(-4085.75 -5758.19)"/><path class="cls-2" d="M4256.8,6265.13l32.15-32.15a18.91,18.91,0,0,1,26.75,26.75l-32.15,32.14Z" transform="translate(-4085.75 -5758.19)"/><path class="cls-1" d="M4777.86,6394.72a18.84,18.84,0,0,1-13.37-5.54,69.51,69.51,0,0,1,98.3-98.3,18.91,18.91,0,0,1-26.74,26.75,31.68,31.68,0,0,0-44.81,44.81A18.91,18.91,0,0,1,4777.86,6394.72Z" transform="translate(-4085.75 -5758.19)"/><path class="cls-3" d="M4318.15,6062.94c0-103.12,83.6-186.72,186.72-186.72s186.72,83.6,186.72,186.72" transform="translate(-4085.75 -5758.19)"/><path class="cls-4" d="M4499.39,5876.35c-100.58,2.91-181.24,85.3-181.24,186.59h181.24V5876.35Z" transform="translate(-4085.75 -5758.19)"/><path class="cls-5" d="M4798,6062.4c0,161.88-131.23,293.11-293.11,293.11s-293.11-131.23-293.11-293.11" transform="translate(-4085.75 -5758.19)"/><path class="cls-6" d="M4505.14,6062.4H4211.77c0,161.88,131.23,293.11,293.11,293.11h0.27V6062.4Z" transform="translate(-4085.75 -5758.19)"/><path class="cls-7" d="M4788.14,6140.9a296.6,296.6,0,0,0,13.43-88.51H4208.18a296.54,296.54,0,0,0,13.44,88.51h566.52Z" transform="translate(-4085.75 -5758.19)"/><circle class="cls-8" cx="278.82" cy="420.38" r="30.38"/><circle class="cls-9" cx="372.23" cy="420.38" r="30.38"/><circle class="cls-8" cx="465.64" cy="420.38" r="30.38"/><circle class="cls-9" cx="559.05" cy="420.38" r="30.38"/><circle class="cls-8" cx="303.26" cy="351.54" r="36.5"/><circle class="cls-9" cx="191.68" cy="350.97" r="36.5"/><circle class="cls-9" cx="648.33" cy="351.54" r="36.5"/><circle class="cls-9" cx="414.89" cy="351.54" r="36.5"/><circle class="cls-8" cx="528.25" cy="351.54" r="36.5"/><rect class="cls-1" x="4085.75" y="6109.73" width="838.26" height="67.99" rx="33.99" ry="33.99" transform="translate(4924 6529.27) rotate(-180)"/><path class="cls-10" d="M4611.38,6003.46a18.37,18.37,0,0,1-15.76-8.89,102.55,102.55,0,0,0-175.77,0,18.37,18.37,0,0,1-31.48-19,139.3,139.3,0,0,1,238.73,0A18.38,18.38,0,0,1,4611.38,6003.46Z" transform="translate(-4085.75 -5758.19)"/><path class="cls-7" d="M4783.79,6072.66a17.78,17.78,0,0,1-17.78-17.78c0-144-117.14-261.13-261.14-261.13s-261.13,117.14-261.13,261.13a17.78,17.78,0,0,1-35.56,0c0-163.6,133.1-296.69,296.69-296.69s296.7,133.1,296.7,296.69A17.78,17.78,0,0,1,4783.79,6072.66Z" transform="translate(-4085.75 -5758.19)"/></svg>