<svg id="Layer_1" data-name="Layer 1" xmlns="http://www.w3.org/2000/svg" xmlns:xlink="http://www.w3.org/1999/xlink" viewBox="0 0 861.24 851.61"><defs><style>.cls-1{fill:none;}.cls-2{fill:#40cbe2;}.cls-3{fill:#5ddfed;}.cls-4{clip-path:url(#clip-path);}.cls-5{fill:#2280ba;}.cls-6{fill:#1570b4;}.cls-7{fill:#b3e1f2;}.cls-8{fill:#24a3c0;}</style><clipPath id="clip-path" transform="translate(-4138.83 -4468.13)"><circle class="cls-1" cx="4546.3" cy="4941.15" r="228.4" transform="translate(-2162.34 4661.95) rotate(-45)"/></clipPath></defs><title>space_04</title><rect class="cls-2" x="4301.83" y="5132.17" width="109.37" height="31.86" rx="15.93" ry="15.93" transform="translate(-6503.09 120.22) rotate(-45)"/><rect class="cls-3" x="645.22" y="473.02" width="122.58" height="35.71" rx="17.85" ry="17.85"/><g class="cls-4"><rect class="cls-2" x="4249.5" y="4868.71" width="312.25" height="172.81" transform="translate(-6352.25 98.44) rotate(-45)"/><rect class="cls-5" x="4350.18" y="4969.39" width="312.25" height="172.81" transform="translate(-6393.95 199.11) rotate(-45)"/><path class="cls-6" d="M4291.41,4951.42a39,39,0,0,1-55.14,55.14l-89.22-89.22,55.14-55.14Z" transform="translate(-4138.83 -4468.13)"/><path class="cls-6" d="M4401.69,4841.14a39,39,0,0,1-55.14,55.14l-89.22-89.22,55.14-55.14Z" transform="translate(-4138.83 -4468.13)"/><rect class="cls-6" x="4141.82" y="4778.54" width="312.25" height="137.81" transform="translate(-6307.65 -9.24) rotate(-45)"/><path class="cls-2" d="M4291.41,4951.42a39,39,0,0,1,55.14-55.14l89.22,89.22-55.14,55.14Z" transform="translate(-4138.83 -4468.13)"/><path class="cls-2" d="M4401.66,4841.17a39,39,0,0,1,55.14-55.14l89.22,89.22-55.14,55.14Z" transform="translate(-4138.83 -4468.13)"/><path class="cls-7" d="M4449.54,5109.55a39,39,0,0,1-55.14,55.14l-89.22-89.22,55.14-55.14Z" transform="translate(-4138.83 -4468.13)"/><path class="cls-7" d="M4559.82,4999.27a39,39,0,0,1-55.14,55.14l-89.22-89.22L4470.6,4910Z" transform="translate(-4138.83 -4468.13)"/><path class="cls-7" d="M4472.07,4911.59a39,39,0,0,1,55.14-55.14l89.22,89.22-55.14,55.14Z" transform="translate(-4138.83 -4468.13)"/><path class="cls-7" d="M4361.79,5021.87a39,39,0,0,1,55.14-55.14l89.22,89.22L4451,5111.09Z" transform="translate(-4138.83 -4468.13)"/><rect class="cls-7" x="4293.58" y="4954.33" width="312.25" height="89.74" transform="translate(-6370.51 142.52) rotate(-45)"/><path class="cls-2" d="M4472.08,4911.59a39,39,0,0,1-55.14,55.14l-26.55-26.55,55.14-55.14Z" transform="translate(-4138.83 -4468.13)"/><path class="cls-2" d="M4361.83,5021.84a39,39,0,0,1-55.14,55.14l-26.55-26.55,55.14-55.14Z" transform="translate(-4138.83 -4468.13)"/><path class="cls-5" d="M4449.54,5109.54a39,39,0,0,1,55.14-55.14l89.22,89.22-55.14,55.14Z" transform="translate(-4138.83 -4468.13)"/><path class="cls-5" d="M4559.78,4999.3a39,39,0,0,1,55.14-55.14l89.22,89.22L4649,5088.52Z" transform="translate(-4138.83 -4468.13)"/><path class="cls-6" d="M4635.52,5075a39,39,0,0,1,55.14-55.14l89.22,89.22-55.14,55.14Z" transform="translate(-4138.83 -4468.13)"/><path class="cls-6" d="M4525.24,5185.32a39,39,0,0,1,55.14-55.14l89.22,89.22-55.14,55.14Z" transform="translate(-4138.83 -4468.13)"/><rect class="cls-6" x="4457.03" y="5117.78" width="312.25" height="89.74" transform="translate(-6438.21 305.97) rotate(-45)"/><path class="cls-5" d="M4635.53,5075a39,39,0,0,1-55.14,55.14l-26.55-26.55,55.14-55.14Z" transform="translate(-4138.83 -4468.13)"/><path class="cls-5" d="M4525.28,5185.29a39,39,0,0,1-55.14,55.14l-26.55-26.55,55.14-55.14Z" transform="translate(-4138.83 -4468.13)"/><rect class="cls-2" x="4469.69" y="4648.53" width="312.25" height="172.81" transform="translate(-6132.06 189.65) rotate(-45)"/><rect class="cls-5" x="4570.37" y="4749.2" width="312.25" height="172.81" transform="translate(-6173.76 290.32) rotate(-45)"/><path class="cls-7" d="M4669.63,4889.26a39.13,39.13,0,0,1-55.34,55.34l-89.54-89.54,55.34-55.34Z" transform="translate(-4138.83 -4468.13)"/><path class="cls-6" d="M4511.6,4731.23a39,39,0,0,1-55.14,55.14l-89.22-89.22,55.14-55.14Z" transform="translate(-4138.83 -4468.13)"/><path class="cls-6" d="M4621.88,4621a39,39,0,0,1-55.14,55.14l-89.22-89.22,55.14-55.14Z" transform="translate(-4138.83 -4468.13)"/><rect class="cls-6" x="4362.01" y="4558.35" width="312.25" height="137.81" transform="translate(-6087.46 81.97) rotate(-45)"/><path class="cls-2" d="M4511.6,4731.23a39,39,0,0,1,55.14-55.14l89.22,89.22-55.14,55.14Z" transform="translate(-4138.83 -4468.13)"/><path class="cls-2" d="M4621.85,4621a39,39,0,0,1,55.14-55.14l89.22,89.22-55.14,55.14Z" transform="translate(-4138.83 -4468.13)"/><path class="cls-7" d="M4780,4779.08a39,39,0,0,1-55.14,55.14L4635.65,4745l55.14-55.14Z" transform="translate(-4138.83 -4468.13)"/><path class="cls-7" d="M4692.26,4691.4a39,39,0,0,1,55.14-55.14l89.22,89.22-55.14,55.14Z" transform="translate(-4138.83 -4468.13)"/><path class="cls-7" d="M4582,4801.68a39,39,0,0,1,55.14-55.14l89.22,89.22-55.14,55.14Z" transform="translate(-4138.83 -4468.13)"/><rect class="cls-7" x="4513.77" y="4734.14" width="312.25" height="89.74" transform="translate(-6150.32 233.72) rotate(-45)"/><path class="cls-2" d="M4692.26,4691.4a39,39,0,0,1-55.14,55.14L4610.57,4720l55.14-55.14Z" transform="translate(-4138.83 -4468.13)"/><path class="cls-2" d="M4582,4801.65a39,39,0,0,1-55.14,55.14l-26.55-26.55,55.14-55.14Z" transform="translate(-4138.83 -4468.13)"/><path class="cls-5" d="M4669.73,4889.35a39,39,0,0,1,55.14-55.14l89.22,89.22-55.14,55.14Z" transform="translate(-4138.83 -4468.13)"/><path class="cls-5" d="M4780,4779.11a39,39,0,0,1,55.14-55.14l89.22,89.22-55.14,55.14Z" transform="translate(-4138.83 -4468.13)"/><path class="cls-6" d="M4855.71,4854.85a39,39,0,0,1,55.14-55.14l89.22,89.22-55.14,55.14Z" transform="translate(-4138.83 -4468.13)"/><path class="cls-6" d="M4745.43,4965.13a39,39,0,0,1,55.14-55.14l89.22,89.22-55.14,55.14Z" transform="translate(-4138.83 -4468.13)"/><rect class="cls-6" x="4677.22" y="4897.59" width="312.25" height="89.74" transform="translate(-6218.02 397.17) rotate(-45)"/><path class="cls-5" d="M4855.72,4854.86a39,39,0,0,1-55.14,55.14L4774,4883.44l55.14-55.14Z" transform="translate(-4138.83 -4468.13)"/><path class="cls-5" d="M4745.47,4965.1a39,39,0,0,1-55.14,55.14l-26.55-26.55,55.14-55.14Z" transform="translate(-4138.83 -4468.13)"/></g><rect class="cls-5" x="4169" y="4642.26" width="168.96" height="49.22" rx="20.59" ry="20.59" transform="translate(-177.64 6506.38) rotate(-135)"/><rect class="cls-2" x="4753.27" y="5226.53" width="168.96" height="49.22" rx="20.59" ry="20.59" transform="translate(406.64 7916.93) rotate(-135)"/><rect class="cls-3" x="4210.71" y="4670.8" width="70.37" height="38.54" rx="19.27" ry="19.27" transform="translate(-207 6540.62) rotate(-135)"/><rect class="cls-3" x="4338.28" y="4695.26" width="70.37" height="38.54" rx="19.27" ry="19.27" transform="translate(-6.52 6672.58) rotate(-135)"/><rect class="cls-8" x="4307.76" y="5210.25" width="70.37" height="38.54" rx="19.27" ry="19.27" transform="translate(-6564.64 134.48) rotate(-45)"/><rect class="cls-5" x="4726.65" y="4670.8" width="70.37" height="38.54" rx="19.27" ry="19.27" transform="translate(-6060.5 272.68) rotate(-45)"/><rect class="cls-5" x="4680.54" y="5093.92" width="70.37" height="38.54" rx="19.27" ry="19.27" transform="translate(295.85 7595.14) rotate(-135)"/><rect class="cls-3" x="45.78" y="473.01" width="122.58" height="35.71" rx="17.85" ry="17.85"/><rect class="cls-8" x="4680.04" y="4753.97" width="109.37" height="31.86" rx="15.93" ry="15.93" transform="translate(-6124.89 276.88) rotate(-45)"/></svg>