<svg id="Layer_1" data-name="Layer 1" xmlns="http://www.w3.org/2000/svg" viewBox="0 0 768.16 749.5"><defs><style>.cls-1{fill:#e36b07;}.cls-2{fill:#f7b213;}.cls-3{fill:#5f6161;}.cls-4{fill:#e48a00;}.cls-5{fill:#dc1118;}.cls-6{fill:#939fb0;}.cls-7{fill:#688d8d;}.cls-8{fill:#474f58;}.cls-9{fill:#fff;}</style></defs><title>space_05</title><path class="cls-1" d="M1252.15,5877.22a115.65,115.65,0,0,0-117.3,113.95l115.7,1.6Z" transform="translate(-969.39 -5676.63)"/><path class="cls-1" d="M1521.36,6166.57a115.64,115.64,0,0,1-117.3,114l1.68-115.63Z" transform="translate(-969.39 -5676.63)"/><path class="cls-2" d="M1333.49,5912.19a115.64,115.64,0,0,0-163.52-2.37l80.58,82.95Z" transform="translate(-969.39 -5676.63)"/><path class="cls-2" d="M1488.68,6084.32a115.64,115.64,0,0,1-2.37,163.52l-80.58-82.95Z" transform="translate(-969.39 -5676.63)"/><polygon class="cls-3" points="371.46 392.14 164.28 444.45 313.17 597.72 371.46 392.14 164.28 444.45 313.17 597.72 371.46 392.14"/><polygon class="cls-4" points="50.28 646.73 3.32 658.59 37.07 693.33 50.28 646.73 3.32 658.59 37.07 693.33 50.28 646.73"/><polygon class="cls-5" points="123.31 543.14 0 574.27 88.62 665.5 123.31 543.14 0 574.27 88.62 665.5 123.31 543.14"/><polygon class="cls-2" points="226.75 649.3 137.41 671.85 201.62 737.95 226.75 649.3 137.41 671.85 201.62 737.95 226.75 649.3"/><polygon class="cls-4" points="216.97 559.99 127.62 582.55 191.83 648.64 216.97 559.99 127.62 582.55 191.83 648.64 216.97 559.99"/><polygon class="cls-5" points="144.27 698.96 93.34 711.82 129.94 749.5 144.27 698.96 93.34 711.82 129.94 749.5 144.27 698.96"/><path class="cls-6" d="M1375.65,6221.34l-186.11-191.59,401.21-332.5a89.62,89.62,0,0,1,121.47,6.56h0A89.62,89.62,0,0,1,1716,5824.6Z" transform="translate(-969.39 -5676.63)"/><path class="cls-7" d="M1720.67,5819a89.9,89.9,0,0,0-125.48-125.47Z" transform="translate(-969.39 -5676.63)"/><path class="cls-7" d="M1388.19,5865.13l-198.64,164.63,186.11,191.58,180.65-210.61C1498,5964.56,1439.73,5918.63,1388.19,5865.13Z" transform="translate(-969.39 -5676.63)"/><path class="cls-3" d="M1426.33,6058.75c15.79,16.08,31.78,31.95,47.79,47.79l82.18-95.81c-58.32-46.17-116.58-92.1-168.12-145.6l-82.33,68.23C1347.18,5973.94,1385.65,6017.34,1426.33,6058.75Z" transform="translate(-969.39 -5676.63)"/><circle class="cls-8" cx="1556.3" cy="5852.71" r="63.39" transform="translate(-4607.45 -2937.59) rotate(-44.17)"/><circle class="cls-9" cx="1556.3" cy="5852.71" r="36.36" transform="translate(-4607.45 -2937.59) rotate(-44.17)"/><rect class="cls-2" x="1325.96" y="5919.86" width="271.9" height="58.91" rx="29.45" ry="29.45" transform="translate(3741.25 -4921.29) rotate(45.83)"/><rect class="cls-7" x="1093.4" y="6172.2" width="229.44" height="51.04" transform="translate(3842.47 -4663.92) rotate(45.83)"/></svg>