<svg id="Layer_1" data-name="Layer 1" xmlns="http://www.w3.org/2000/svg" viewBox="0 0 654.09 769.43"><defs><style>.cls-1{fill:#cdd1cd;}.cls-2{fill:#a8adb2;}.cls-3{fill:#24a3c0;}.cls-4{fill:#9f1220;}.cls-5{fill:#5f6161;}.cls-6{fill:#474f58;}.cls-7{fill:#939fb0;}</style></defs><title>space_06</title><path class="cls-1" d="M168.13,166.57H485.68a0,0,0,0,1,0,0V312.11A71.93,71.93,0,0,1,413.75,384H240.07a71.93,71.93,0,0,1-71.93-71.93V166.57A0,0,0,0,1,168.13,166.57Z"/><rect class="cls-1" x="218.03" y="298.56" width="218.03" height="271.88"/><path class="cls-2" d="M436.06,298.56H607.91a46.18,46.18,0,0,1,46.18,46.18v0a46.18,46.18,0,0,1-46.18,46.18H436.06a0,0,0,0,1,0,0V298.56a0,0,0,0,1,0,0Z"/><path class="cls-2" d="M46.18,298.56H218a0,0,0,0,1,0,0v92.36a0,0,0,0,1,0,0H46.18A46.18,46.18,0,0,1,0,344.74v0a46.18,46.18,0,0,1,46.18-46.18Z"/><rect class="cls-3" x="146.14" y="133.69" width="52.48" height="120.44" rx="11.5" ry="11.5"/><rect class="cls-3" x="455.99" y="133.69" width="52.48" height="120.44" rx="11.5" ry="11.5"/><rect class="cls-4" x="204.17" y="286.23" width="30.61" height="117.02" rx="13.41" ry="13.41"/><rect class="cls-4" x="420.76" y="286.23" width="30.61" height="117.02" rx="13.41" ry="13.41"/><path class="cls-2" d="M2510.14,6181.48v217a46.18,46.18,0,0,1-46.18,46.18h0a46.18,46.18,0,0,1-46.18-46.18V6244.16Z" transform="translate(-2074.07 -5675.25)"/><path class="cls-2" d="M2384.46,6245.7V6398.5a46.18,46.18,0,0,1-46.18,46.18h0a46.18,46.18,0,0,1-46.18-46.18V6177.89Z" transform="translate(-2074.07 -5675.25)"/><rect class="cls-1" x="181.38" width="291.06" height="354.91" rx="127.54" ry="127.54"/><circle class="cls-5" cx="327.05" cy="192.49" r="119.57"/><path class="cls-6" d="M2401.12,5987.32a119.57,119.57,0,0,1,0-239.14" transform="translate(-2074.07 -5675.25)"/><rect class="cls-4" x="2448.65" y="6128.07" width="30.61" height="162.03" rx="15.3" ry="15.3" transform="translate(3038.24 -5598.87) rotate(45)"/><rect class="cls-4" x="2321.53" y="6128.07" width="30.61" height="162.03" rx="15.3" ry="15.3" transform="translate(6305.71 3271.77) rotate(135)"/><path class="cls-7" d="M2472.47,5835.91a12.45,12.45,0,0,1-10.68-6,69.53,69.53,0,0,0-119.17,0,12.46,12.46,0,0,1-21.34-12.85,94.44,94.44,0,0,1,161.85,0A12.46,12.46,0,0,1,2472.47,5835.91Z" transform="translate(-2074.07 -5675.25)"/><circle class="cls-3" cx="273.67" cy="417.62" r="22.86"/></svg>