<svg id="Layer_1" data-name="Layer 1" xmlns="http://www.w3.org/2000/svg" viewBox="0 0 965.01 553.01"><defs><style>.cls-1{fill:#c7490c;}.cls-2{fill:#dc1118;}.cls-3{fill:#e57c5a;}.cls-4{fill:#9f1220;}</style></defs><title>space_03</title><path class="cls-1" d="M3792.86,5050.56A17.09,17.09,0,1,1,3817,5026.4" transform="translate(-3022.7 -4650.58)"/><path class="cls-2" d="M3958.55,4936.06a17.09,17.09,0,0,1,24.16,24.16" transform="translate(-3022.7 -4650.58)"/><circle class="cls-3" cx="3039.79" cy="4948.14" r="17.09" transform="translate(-5631.23 -1051.85) rotate(-45)"/><circle class="cls-3" cx="3481.56" cy="4956.01" r="247.58" transform="translate(-5507.41 -737.16) rotate(-45)"/><path class="cls-4" d="M3656.63,5131.08c-96.69,96.69-253.44,96.69-350.13,0s-96.69-253.44,0-350.13" transform="translate(-3022.7 -4650.58)"/><circle class="cls-4" cx="3728.23" cy="4925.46" r="88.75" transform="translate(-5386.18 -750.27) rotate(-43.32)"/><path class="cls-2" d="M3653.61,4994a102.28,102.28,0,1,1,148.82-140.36" transform="translate(-3022.7 -4650.58)"/><circle class="cls-4" cx="3528.67" cy="5041" r="87.88" transform="translate(-5519.83 -855.74) rotate(-43.32)"/><path class="cls-3" d="M3658.52,5110.4L3608,5079.14a37,37,0,0,0,11.93,50.81,36.5,36.5,0,0,0,36.75.85A47.16,47.16,0,0,1,3658.52,5110.4Z" transform="translate(-3022.7 -4650.58)"/><circle class="cls-2" cx="3527.83" cy="5039.25" r="58.99" transform="translate(-4635.14 3767.61) rotate(-88.32)"/><path class="cls-3" d="M3574.18,5089.82a69.14,69.14,0,0,1-94.91-100.57" transform="translate(-3022.7 -4650.58)"/><circle class="cls-3" cx="3440.26" cy="4876.43" r="98.78" transform="translate(-5431.02 -961.18) rotate(-43.32)"/><circle class="cls-4" cx="3440.26" cy="4876.43" r="71.71" transform="translate(-5431.02 -961.18) rotate(-43.32)"/><path class="cls-2" d="M3501.21,4815.78a85.66,85.66,0,0,1-124.64,117.55" transform="translate(-3022.7 -4650.58)"/><circle class="cls-2" cx="3239.7" cy="5002.05" r="58.45" transform="translate(-5571.84 -1064.7) rotate(-43.32)"/><path class="cls-3" d="M3190.06,5052.7a74.28,74.28,0,0,1,108.08-101.93" transform="translate(-3022.7 -4650.58)"/><circle class="cls-2" cx="3594.84" cy="4784.02" r="35.59" transform="translate(-5325.48 -880.36) rotate(-43.32)"/><path class="cls-4" d="M3630.12,4813.89a45.94,45.94,0,1,1-63-66.84" transform="translate(-3022.7 -4650.58)"/><circle class="cls-2" cx="3687.46" cy="5085.9" r="35.59" transform="translate(-5507.37 -734.55) rotate(-43.32)"/><path class="cls-4" d="M3729.31,5089.57a41.85,41.85,0,1,1-83.66-2.45" transform="translate(-3022.7 -4650.58)"/><circle class="cls-2" cx="3095.42" cy="5035.82" r="26.64" transform="translate(-5634.35 -1154.41) rotate(-43.32)"/><circle class="cls-1" cx="3887.79" cy="4865.88" r="35.59" transform="translate(-5301.81 -657.06) rotate(-43.32)"/><path class="cls-4" d="M3921.28,4895.09a44.23,44.23,0,1,1-60.7-64.35" transform="translate(-3022.7 -4650.58)"/><path class="cls-2" d="M3162.09,4952.1a35.59,35.59,0,1,1-48.83-51.78" transform="translate(-3022.7 -4650.58)"/><circle class="cls-4" cx="3617.66" cy="4864.53" r="12.51" transform="translate(-5374.5 -842.77) rotate(-43.32)"/><circle class="cls-3" cx="3750.05" cy="5042.88" r="19.61" transform="translate(-5460.8 -703.33) rotate(-43.32)"/><circle class="cls-3" cx="3197.49" cy="4876.43" r="19.48" transform="translate(-5497.17 -1127.81) rotate(-43.32)"/><path class="cls-1" d="M3518.81,4687a25,25,0,1,1-34.37-36.44" transform="translate(-3022.7 -4650.58)"/><path class="cls-3" d="M3404.28,5148.82a29.07,29.07,0,0,1,42.29-39.89" transform="translate(-3022.7 -4650.58)"/><circle class="cls-3" cx="3301.13" cy="5090.13" r="12.51" transform="translate(-5615.55 -998.47) rotate(-43.32)"/><circle class="cls-4" cx="306.02" cy="155.54" r="33.45"/></svg>