<svg id="Layer_1" data-name="Layer 1" xmlns="http://www.w3.org/2000/svg" viewBox="0 0 820.08 779.11"><defs><style>.cls-1{fill:#3d90c4;}.cls-2{fill:#fbab00;}.cls-3{fill:#c79c4b;}.cls-4{fill:#efe2a3;}.cls-5{fill:#f7b213;}.cls-6{fill:#c7490c;}.cls-7{fill:#e97a00;}.cls-8{fill:#fad669;}</style></defs><title>space_02</title><path class="cls-1" d="M2705.55,4846.57l-134.9,72.64a14,14,0,0,1-18.9-5.75h0a14,14,0,0,1,5.76-18.94l134.9-72.64a14,14,0,0,1,18.9,5.75h0A14,14,0,0,1,2705.55,4846.57Z" transform="translate(-1996.89 -4562.2)"/><path class="cls-2" d="M2809.56,4588.53l-134.9,72.64a14,14,0,0,1-18.9-5.75h0a14,14,0,0,1,5.76-18.94l134.9-72.64a14,14,0,0,1,18.9,5.75h0A14,14,0,0,1,2809.56,4588.53Z" transform="translate(-1996.89 -4562.2)"/><circle class="cls-3" cx="2412.04" cy="4987.9" r="294.87" transform="translate(-4057.51 -2844.23) rotate(-28.02)"/><path class="cls-4" d="M2273.21,4727.39c143.92-76.6,322.68-22,399.27,121.9s22,322.68-121.9,399.27" transform="translate(-1996.89 -4562.2)"/><path class="cls-3" d="M2438.13,5089.59L2704.73,4947a294.18,294.18,0,0,0-30.23-94.48l-282.23,150.93Z" transform="translate(-1996.89 -4562.2)"/><rect class="cls-5" x="1975.23" y="4939.1" width="873.62" height="97.61" rx="48.8" ry="48.8" transform="translate(-4057.53 -2844.21) rotate(-28.02)"/><path class="cls-6" d="M2417.75,5128.63l-395.86,210.68a17,17,0,0,1-23-7h0a17,17,0,0,1,7-23l395.86-210.68a17,17,0,0,1,23,7h0A17,17,0,0,1,2417.75,5128.63Z" transform="translate(-1996.89 -4562.2)"/><path class="cls-7" d="M2795.71,4674.92l-395.86,210.68a17,17,0,0,1-23-7h0a17,17,0,0,1,7-23l395.86-210.68a17,17,0,0,1,23,7h0A17,17,0,0,1,2795.71,4674.92Z" transform="translate(-1996.89 -4562.2)"/><path class="cls-7" d="M2530.24,5122.86L2414.78,5185a12,12,0,0,1-16.18-4.92h0a12,12,0,0,1,4.93-16.21L2519,5101.73a12,12,0,0,1,16.18,4.92h0A12,12,0,0,1,2530.24,5122.86Z" transform="translate(-1996.89 -4562.2)"/><path class="cls-5" d="M2169.34,5006.1l-115.47,62.18a12,12,0,0,1-16.18-4.92h0a12,12,0,0,1,4.93-16.21L2158.09,4985a12,12,0,0,1,16.18,4.92h0A12,12,0,0,1,2169.34,5006.1Z" transform="translate(-1996.89 -4562.2)"/><path class="cls-8" d="M2534.72,4986.89l-223.59,120.4a23.18,23.18,0,0,1-31.32-9.52h0a23.18,23.18,0,0,1,9.55-31.39L2512.94,4946a23.18,23.18,0,0,1,31.32,9.52h0A23.18,23.18,0,0,1,2534.72,4986.89Z" transform="translate(-1996.89 -4562.2)"/></svg>