<svg id="Layer_1" data-name="Layer 1" xmlns="http://www.w3.org/2000/svg" viewBox="0 0 577.71 675.19"><defs><style>.cls-1{fill:#9c7248;}.cls-2{fill:#e48a00;}.cls-3{fill:#c79c4b;}.cls-4{fill:#e7ca00;}.cls-5{fill:#3b2313;}.cls-6{fill:#875224;}.cls-7{fill:#e1ab00;}.cls-8{fill:#c7490c;}</style></defs><title>space_07</title><circle class="cls-1" cx="3485.33" cy="6115.03" r="44.23" transform="translate(-5659.66 -3328.17) rotate(-27.88)"/><path class="cls-2" d="M3447.25,5975.75h0a15.54,15.54,0,0,1,21.81,2.17l26.11,34a15.54,15.54,0,0,1-2.17,21.81h0a15.54,15.54,0,0,1-21.81-2.17l-26.11-34A15.54,15.54,0,0,1,3447.25,5975.75Z" transform="translate(-3204.43 -5668.16)"/><circle class="cls-3" cx="3685.74" cy="6214.82" r="79.34" transform="translate(-5683.06 -3222.86) rotate(-27.88)"/><path class="cls-4" d="M3214.94,5674.65h0a28.87,28.87,0,0,1,40.51,4l128.48,158a28.87,28.87,0,0,1-4,40.51h0a28.87,28.87,0,0,1-40.51-4l-128.48-158A28.87,28.87,0,0,1,3214.94,5674.65Z" transform="translate(-3204.43 -5668.16)"/><circle class="cls-5" cx="3583.38" cy="6248.37" r="78.41" transform="translate(-5710.63 -3266.83) rotate(-27.88)"/><circle class="cls-1" cx="3686.6" cy="6064.02" r="60.53" transform="translate(-5612.43 -3239.96) rotate(-27.88)"/><circle class="cls-3" cx="3496.93" cy="6210.78" r="43.99" transform="translate(-5703.09 -3311.63) rotate(-27.88)"/><circle class="cls-5" cx="3554.1" cy="6042.92" r="32.81" transform="translate(-5617.95 -3304.38) rotate(-27.88)"/><circle class="cls-6" cx="3609.2" cy="6161.55" r="144.58" transform="translate(-5667.03 -3264.84) rotate(-27.88)"/><circle class="cls-5" cx="3727.18" cy="6139.24" r="37.86" transform="translate(-5642.9 -3212.25) rotate(-27.88)"/><circle class="cls-3" cx="3611.68" cy="6031.97" r="30.1" transform="translate(-5606.14 -3278.73) rotate(-27.88)"/><circle class="cls-1" cx="3641.72" cy="6248.24" r="44.57" transform="translate(-5703.8 -3239.57) rotate(-27.88)"/><circle class="cls-1" cx="3665.27" cy="6325.43" r="17.92" transform="translate(-5737.16 -3219.59) rotate(-27.88)"/><circle class="cls-5" cx="3769.68" cy="6091.5" r="12.46" transform="translate(-5615.64 -3197.92) rotate(-27.88)"/><circle class="cls-3" cx="3438.19" cy="6169.91" r="12.46" transform="translate(-5690.8 -3343.85) rotate(-27.88)"/><circle class="cls-3" cx="3536.69" cy="6130.3" r="53.58" transform="translate(-5660.84 -3302.38) rotate(-27.88)"/><path class="cls-7" d="M3349.71,5708.65h0a15.54,15.54,0,0,1,21.81,2.17l69.16,85.06a15.54,15.54,0,0,1-2.17,21.81h0a15.54,15.54,0,0,1-21.81-2.17l-69.16-85.06A15.54,15.54,0,0,1,3349.71,5708.65Z" transform="translate(-3204.43 -5668.16)"/><path class="cls-8" d="M3361.15,5809.23h0a15.54,15.54,0,0,1,21.81,2.17l69.16,85.06a15.54,15.54,0,0,1-2.17,21.81h0a15.54,15.54,0,0,1-21.81-2.17L3359,5831A15.54,15.54,0,0,1,3361.15,5809.23Z" transform="translate(-3204.43 -5668.16)"/><path class="cls-7" d="M3277,5867.44h0a20,20,0,0,1,28.17,2.8l102.52,123.25a20,20,0,0,1-2.8,28.17h0a20,20,0,0,1-28.17-2.8l-102.52-123.25A20,20,0,0,1,3277,5867.44Z" transform="translate(-3204.43 -5668.16)"/></svg>