<svg id="Layer_1" data-name="Layer 1" xmlns="http://www.w3.org/2000/svg" xmlns:xlink="http://www.w3.org/1999/xlink" viewBox="0 0 870.82 832.67"><defs><style>.cls-1{fill:none;}.cls-2{fill:#e9e9e9;}.cls-3{fill:#80d2ee;}.cls-4{clip-path:url(#clip-path);}.cls-5{fill:#009c48;}.cls-6{fill:#70b568;}.cls-7{fill:#338c2f;}.cls-8{fill:#09ac6a;}</style><clipPath id="clip-path" transform="translate(-919.99 -4532.93)"><circle class="cls-1" cx="1367" cy="4963.25" r="303.91"/></clipPath></defs><title>space_01</title><path class="cls-2" d="M1521.44,5365.47a23.43,23.43,0,0,1-7.17-44.67,390.65,390.65,0,0,0,156-126.93,23.42,23.42,0,0,1,37.93,27.49,437.63,437.63,0,0,1-174.78,142.18A23.31,23.31,0,0,1,1521.44,5365.47ZM976.64,5157.24a23.41,23.41,0,0,1-19-13.74A435.28,435.28,0,0,1,922.34,4921a23.42,23.42,0,0,1,25.72-20.87h0a23.42,23.42,0,0,1,20.85,25.72,388.35,388.35,0,0,0,31.51,198.56A23.43,23.43,0,0,1,976.64,5157.24Zm786.12-125.55a23.42,23.42,0,0,1-20.85-25.7,388.31,388.31,0,0,0-31.74-198.52,23.42,23.42,0,0,1,42.74-19.17,435.26,435.26,0,0,1,35.59,222.49,23.42,23.42,0,0,1-25.7,20.89h0Zm-168.16-376a23.3,23.3,0,0,1-11.29-4.34,388.37,388.37,0,0,0-187.39-71.66l-0.47,0a23.42,23.42,0,1,1,4.89-46.59l-2.44,23.29,2.61-23.28a435.53,435.53,0,0,1,210.32,80.37A23.42,23.42,0,0,1,1594.6,4655.7Z" transform="translate(-919.99 -4532.93)"/><path class="cls-3" d="M1367.48,5365.6a399,399,0,0,1-236.28-76.67,15.57,15.57,0,0,1,18.31-25.18,367.91,367.91,0,0,0,217.82,70.71h0.83a15.57,15.57,0,0,1,0,31.14h-0.69ZM999.94,5098.89a15.57,15.57,0,0,1-14.8-10.76,403.93,403.93,0,0,1-.14-248.31,15.57,15.57,0,0,1,29.63,9.59,372.79,372.79,0,0,0,.12,229.08A15.58,15.58,0,0,1,999.94,5098.89Zm734.67-239.47a15.57,15.57,0,0,1-14.79-10.74c-24-73.63-72-139.37-135-185.1a15.57,15.57,0,1,1,18.28-25.2c68.28,49.56,120.23,120.81,146.29,200.64A15.58,15.58,0,0,1,1734.61,4859.42Z" transform="translate(-919.99 -4532.93)"/><path class="cls-2" d="M1065.41,4778.14a350.62,350.62,0,0,1,165.81-142,13.68,13.68,0,0,1,10.48,25.28,323.32,323.32,0,0,0-152.89,130.89l-0.38.62a13.68,13.68,0,0,1-23.34-14.28Zm211.2,507.33a13.68,13.68,0,0,1,14.84-6.16A328.7,328.7,0,0,0,1492.13,5263a13.68,13.68,0,1,1,10.51,25.26,356.23,356.23,0,0,1-217.51,17.69A13.69,13.69,0,0,1,1276.62,5285.47Z" transform="translate(-919.99 -4532.93)"/><circle class="cls-3" cx="447.01" cy="430.32" r="303.91"/><g class="cls-4"><rect class="cls-5" x="1307.65" y="5082.47" width="332.32" height="100.6" rx="50.3" ry="50.3" transform="translate(3141.1 -4071.72) rotate(45)"/><rect class="cls-6" x="1275.43" y="4956.14" width="423.66" height="100.6" rx="50.3" ry="50.3" transform="translate(3055.72 -4118.23) rotate(45)"/><path class="cls-6" d="M1379.73,4875.15h387a0,0,0,0,1,0,0v100.6a0,0,0,0,1,0,0h-387a50.3,50.3,0,0,1-50.3-50.3v0A50.3,50.3,0,0,1,1379.73,4875.15Z" transform="translate(3016.26 -4184.97) rotate(45)"/><rect class="cls-6" x="1421.29" y="4731.02" width="244.88" height="100.6" rx="50.3" ry="50.3" transform="translate(2913.07 -4224.09) rotate(45)"/><rect class="cls-3" x="1265.25" y="4716.89" width="244.88" height="98.88" rx="49.44" ry="49.44" transform="translate(2856.77 -4118.15) rotate(45)"/><rect class="cls-7" x="1532.4" y="4839.61" width="244.88" height="100.6" rx="50.3" ry="50.3" transform="translate(3022.4 -4270.85) rotate(45)"/><rect class="cls-5" x="1503" y="5095.27" width="244.88" height="100.6" rx="50.3" ry="50.3" transform="translate(3194.57 -4175.19) rotate(45)"/><rect class="cls-6" x="933.51" y="5008.38" width="342.23" height="100.6" rx="50.3" ry="50.3" transform="translate(2980.58 -3832.36) rotate(45)"/><rect class="cls-6" x="980.72" y="4883.58" width="282.64" height="100.6" rx="50.3" ry="50.3" transform="translate(2897.44 -3881.23) rotate(45)"/><rect class="cls-7" x="1025.45" y="4786.04" width="282.64" height="100.6" rx="50.3" ry="50.3" transform="translate(2841.57 -3941.43) rotate(45)"/></g><rect class="cls-8" x="1105.48" y="4989.46" width="244.88" height="100.6" rx="50.3" ry="50.3" transform="translate(3003.31 -3925.09) rotate(45)"/></svg>