<svg id="Layer_1" data-name="Layer 1" xmlns="http://www.w3.org/2000/svg" viewBox="0 0 1029.95 476.48"><defs><style>.cls-1{fill:#7eb000;}.cls-2{fill:#a9ce00;}.cls-3{fill:#699000;}.cls-4{fill:#b2da2a;}.cls-5{fill:#4d6515;}.cls-6{fill:#393528;}.cls-7{fill:#636270;}.cls-8{fill:#fff;}.cls-9{fill:#cdd1cd;}</style></defs><title>vehic_03</title><rect class="cls-1" x="18.23" y="174.81" width="361.94" height="205.69"/><path class="cls-1" d="M367.48,156.78h558a89.82,89.82,0,0,1,89.82,89.82V380.5a0,0,0,0,1,0,0H367.48a0,0,0,0,1,0,0V156.78A0,0,0,0,1,367.48,156.78Z"/><path class="cls-2" d="M731.07,139.2H952.91A72.07,72.07,0,0,1,1025,211.27V230a0,0,0,0,1,0,0H731.07a0,0,0,0,1,0,0V139.2A0,0,0,0,1,731.07,139.2Z"/><path class="cls-3" d="M3751.74,2922.33H3393.12v-132a27.26,27.26,0,0,1,27.26-27.26H3634.9a27.26,27.26,0,0,1,23,12.57Z" transform="translate(-3025.64 -2763.06)"/><path class="cls-4" d="M13.39,165.91H367.48a0,0,0,0,1,0,0v33.76a0,0,0,0,1,0,0H13.39A13.39,13.39,0,0,1,0,186.28v-7a13.39,13.39,0,0,1,13.39-13.39Z"/><path class="cls-5" d="M13.39,346.74H219.31a0,0,0,0,1,0,0V380.5a0,0,0,0,1,0,0H13.39A13.39,13.39,0,0,1,0,367.1v-7a13.39,13.39,0,0,1,13.39-13.39Z"/><rect class="cls-5" x="770.82" y="346.74" width="219.31" height="33.76"/><path class="cls-6" d="M3089.73,3143.56a118.58,118.58,0,1,1,237.17,0H3089.73Z" transform="translate(-3025.64 -2763.06)"/><path class="cls-6" d="M3714.52,3143.56a118.58,118.58,0,1,1,237.17,0H3714.52Z" transform="translate(-3025.64 -2763.06)"/><circle class="cls-7" cx="182.67" cy="396.23" r="80.25"/><circle class="cls-8" cx="182.67" cy="396.23" r="36.64"/><circle class="cls-7" cx="807.46" cy="396.23" r="80.25"/><circle class="cls-8" cx="807.46" cy="396.23" r="36.64"/><circle class="cls-9" cx="807.46" cy="396.23" r="22.92"/><circle class="cls-9" cx="183.74" cy="396.23" r="24.88"/><path class="cls-8" d="M3654.58,3088.45v0.49c0-.17,0-0.32,0-0.49h0Z" transform="translate(-3025.64 -2763.06)"/><rect class="cls-2" x="3989.34" y="3089.73" width="92.34" height="40.14" rx="15.93" ry="15.93" transform="translate(-2098.62 4383.27) rotate(-90.02)"/><polygon class="cls-8" points="430.03 36.03 430.03 156.78 670.8 156.78 591.11 36.03 430.03 36.03"/><rect class="cls-3" x="430.03" y="175.34" width="240.76" height="184.25"/><rect class="cls-4" x="443.03" y="192.89" width="60.19" height="26.17" rx="10.38" ry="10.38"/></svg>