<svg id="Layer_1" data-name="Layer 1" xmlns="http://www.w3.org/2000/svg" viewBox="0 0 909.7 598.24"><defs><style>.cls-1{fill:#c2e0de;}.cls-2{fill:#94b3b1;}.cls-3{fill:#a92310;}.cls-4{fill:#636270;}.cls-5{fill:#393528;}.cls-6{fill:#688d8d;}.cls-7{fill:#fff;}</style></defs><title>vehic_07</title><polygon class="cls-1" points="854.81 495.66 49.31 495.66 49.31 219.04 772.61 219.04 854.81 495.66"/><rect class="cls-2" x="49.31" y="219.04" width="365.76" height="276.62"/><polygon class="cls-3" points="854.81 495.66 48.6 495.66 48.6 352.02 772.61 352.02 854.81 495.66"/><path class="cls-4" d="M19.83,456.07H324.66a0,0,0,0,1,0,0v39.66a0,0,0,0,1,0,0H19.83A19.83,19.83,0,0,1,0,475.9v0a19.83,19.83,0,0,1,19.83-19.83Z"/><polygon class="cls-3" points="897.54 495.66 737.01 495.66 737.01 259.18 827.27 259.18 897.54 495.66"/><rect class="cls-4" x="543.94" y="456.07" width="365.76" height="39.66"/><path class="cls-5" d="M3146.23,4073.32a135.7,135.7,0,1,1,271.41,0H3146.23Z" transform="translate(-3028.38 -3578.63)"/><path class="cls-5" d="M3469.38,4073.32a135.7,135.7,0,1,1,271.41,0H3469.38Z" transform="translate(-3028.38 -3578.63)"/><circle class="cls-6" cx="253.55" cy="494.77" r="103.48"/><circle class="cls-5" cx="253.55" cy="494.77" r="36.41"/><circle class="cls-6" cx="576.71" cy="494.77" r="103.48"/><circle class="cls-5" cx="576.71" cy="494.77" r="36.41"/><rect class="cls-4" x="123.06" y="39.66" width="292.01" height="179.39"/><rect class="cls-7" x="209.48" y="39.66" width="167.09" height="179.39"/><path class="cls-4" d="M49.31,0H421.18A19.83,19.83,0,0,1,441,19.83v0a19.83,19.83,0,0,1-19.83,19.83H49.31a0,0,0,0,1,0,0V0A0,0,0,0,1,49.31,0Z"/><path class="cls-4" d="M512.78,114.25h0a31.16,31.16,0,0,1,31.16,31.16V219a0,0,0,0,1,0,0H481.63a0,0,0,0,1,0,0V145.4a31.16,31.16,0,0,1,31.16-31.16Z"/><rect class="cls-4" x="618.06" y="147.13" width="77.82" height="71.92"/><polygon class="cls-4" points="740.82 26.29 573.12 26.29 618.06 161.09 695.88 161.09 740.82 26.29"/><rect class="cls-1" x="231.62" y="480.26" width="368.23" height="29.01" rx="12.67" ry="12.67"/></svg>