<svg id="Layer_1" data-name="Layer 1" xmlns="http://www.w3.org/2000/svg" viewBox="0 0 705.77 586.15"><defs><style>.cls-1{fill:#94b3b1;}.cls-2{fill:#c2e0de;}.cls-3{fill:#636270;}.cls-4{fill:#fff;}.cls-5{fill:#cdd1cd;}</style></defs><title>vehic_02</title><path class="cls-1" d="M2600.17,2941.57h198.94a3.48,3.48,0,0,1,3.48,3.48v26.79a3.48,3.48,0,0,1-3.48,3.48H2600.17a16.88,16.88,0,0,1-16.88-16.88v0a16.88,16.88,0,0,1,16.88-16.88Z" transform="translate(3289.07 3365.59) rotate(-180)"/><rect class="cls-2" x="2296.32" y="2706.45" width="79.37" height="79.37" transform="translate(2575.2 2940.97) rotate(-180)"/><path class="cls-2" d="M2208.89,2776.54h583.79l-28.59,199.87-361.65-1H2118.21V2867.23A90.68,90.68,0,0,1,2208.89,2776.54Z" transform="translate(-2096.82 -2551.31)"/><path class="cls-1" d="M16.88,390.26H215.82a3.48,3.48,0,0,1,3.48,3.48v26.79a3.48,3.48,0,0,1-3.48,3.48H16.88A16.88,16.88,0,0,1,0,407.14v0a16.88,16.88,0,0,1,16.88-16.88Z"/><path class="cls-1" d="M238.39,390.26H355.14a3.48,3.48,0,0,1,3.48,3.48v26.79a3.48,3.48,0,0,1-3.48,3.48H238.39a16.88,16.88,0,0,1-16.88-16.88v0A16.88,16.88,0,0,1,238.39,390.26Z"/><path class="cls-2" d="M2200.41,2872.57v-5.35a90.68,90.68,0,0,1,90.68-90.68h501.59l-13.74,96H2200.41Z" transform="translate(-2096.82 -2551.31)"/><path class="cls-1" d="M2764.27,2975.33H2412.14c0-105.43,85.47-190.9,190.9-190.9,79.31,0,143.86,40.64,172.69,109.49C2771.51,2918,2764.27,2975.33,2764.27,2975.33Z" transform="translate(-2096.82 -2551.31)"/><circle class="cls-3" cx="506.22" cy="425.1" r="161.05"/><circle class="cls-4" cx="506.22" cy="425.1" r="83.92"/><circle class="cls-5" cx="506.22" cy="425.1" r="59.34"/><path class="cls-1" d="M2153.59,2975.33a130,130,0,0,1,232.68,0H2153.59Z" transform="translate(-2096.82 -2551.31)"/><circle class="cls-3" cx="173.1" cy="483.75" r="102.39"/><circle class="cls-3" cx="173.1" cy="483.75" r="102.39"/><circle class="cls-4" cx="173.1" cy="483.75" r="53.35"/><circle class="cls-5" cx="173.1" cy="483.75" r="34.93"/><path class="cls-3" d="M2412.14,2776.54h380.54l-75.84-225.23H2472.07Zm74.14-43.88,36.58-137.47h149.4l46.29,137.47H2486.28Z" transform="translate(-2096.82 -2551.31)"/><path class="cls-1" d="M2315.86,2624h32.64a0,0,0,0,1,0,0v49.84a32.64,32.64,0,0,1-32.64,32.64h0a0,0,0,0,1,0,0V2624A0,0,0,0,1,2315.86,2624Z" transform="translate(2567.54 2779.12) rotate(-180)"/><path class="cls-3" d="M2571.73,2690.59h146.81a0,0,0,0,1,0,0v0a42.07,42.07,0,0,1-42.07,42.07H2571.73a0,0,0,0,1,0,0v-42.07A0,0,0,0,1,2571.73,2690.59Z" transform="translate(3193.45 2871.94) rotate(-180)"/><circle class="cls-1" cx="191.82" cy="273.25" r="21.08"/><circle class="cls-1" cx="130.73" cy="273.25" r="21.08"/></svg>