<svg id="Layer_1" data-name="Layer 1" xmlns="http://www.w3.org/2000/svg" viewBox="0 0 1023.06 551.51"><defs><style>.cls-1{fill:#636270;}.cls-2{fill:#94b3b1;}.cls-3{fill:#a92310;}.cls-4{fill:#ff452e;}.cls-5{fill:#ff7778;}.cls-6{fill:#c2e0de;}.cls-7{fill:#5fbfe5;}</style></defs><title>vehic_05</title><path class="cls-1" d="M1148.82,3993.76h0a110.49,110.49,0,0,0,110.49,110.49H1394.5A110.49,110.49,0,0,0,1505,3993.76H1148.82Z" transform="translate(-580.28 -3600.5)"/><path class="cls-1" d="M651.57,0h70.05a0,0,0,0,1,0,0V260.75a21.68,21.68,0,0,1-21.68,21.68h-26.7a21.68,21.68,0,0,1-21.68-21.68V0A0,0,0,0,1,651.57,0Z"/><path class="cls-1" d="M1416.09,3834.73V3724.24H1093.73a33.8,33.8,0,0,0-33.8,33.8v76.69h356.17Z" transform="translate(-580.28 -3600.5)"/><rect class="cls-1" x="33.21" y="287.89" width="173.81" height="24.9"/><circle class="cls-2" cx="33.21" cy="269.51" r="33.21"/><circle class="cls-1" cx="33.21" cy="302.73" r="33.21"/><circle class="cls-2" cx="33.21" cy="335.94" r="33.21"/><polygon class="cls-3" points="229.81 260.61 624.53 260.61 327.3 551.51 54.88 551.51 229.81 260.61"/><polygon class="cls-4" points="229.81 344.84 605.51 344.84 308.28 53.94 54.88 53.94 229.81 344.84"/><polygon class="cls-5" points="605.51 344.84 308.28 53.94 242.42 53.94 539.66 344.84 605.51 344.84"/><rect class="cls-6" x="678.68" y="3757.45" width="924.66" height="291.55" rx="145.78" ry="145.78" transform="translate(1701.73 4205.96) rotate(-180)"/><rect class="cls-2" x="1310.02" y="3805.41" width="187.24" height="24.9" transform="translate(-2994.5 1621) rotate(-90)"/><path class="cls-7" d="M1603.34,3886.62c0-89.31-73.07-162.38-162.39-162.38h-24.86V4049H1441c89.31,0,162.38-73.07,162.38-162.38h0Z" transform="translate(-580.28 -3600.5)"/><path class="cls-2" d="M1603.34,3903.23h0c0,80.18-65.6,145.78-145.78,145.78H824.46c-80.18,0-145.78-65.6-145.78-145.78h0" transform="translate(-580.28 -3600.5)"/><circle class="cls-1" cx="397" cy="300.34" r="68.12"/><circle class="cls-1" cx="657.73" cy="300.34" r="68.12"/><circle class="cls-7" cx="397" cy="300.34" r="41.13"/><circle class="cls-7" cx="657.73" cy="300.34" r="41.13"/><rect class="cls-1" x="835.81" y="277.44" width="187.24" height="24.9"/></svg>