<svg id="Layer_1" data-name="Layer 1" xmlns="http://www.w3.org/2000/svg" viewBox="0 0 1572.92 618.53"><defs><style>.cls-1{fill:#f7b213;}.cls-2{fill:#f7f002;}.cls-3{fill:#773f05;}.cls-4{fill:#3f7400;}.cls-5{fill:#5fbfe5;}.cls-6{fill:#3b7000;}</style></defs><title>vehic_08</title><rect class="cls-1" x="56.95" y="323.48" width="136.59" height="124.76"/><path class="cls-1" d="M4099.66,3644.48h182.93a63.5,63.5,0,0,1,63.5,63.5v0a0,0,0,0,1,0,0H4099.66a0,0,0,0,1,0,0v-63.5A0,0,0,0,1,4099.66,3644.48Z" transform="translate(4346.09 3707.97) rotate(-180)"/><polygon class="cls-2" points="194.93 325.49 641.33 243.3 243.62 0 65.06 0 194.93 325.49"/><polygon class="cls-3" points="121.36 487.75 404.65 487.75 400.18 279.87 121.36 279.87 121.36 487.75"/><rect class="cls-3" x="5517.27" y="3894.8" width="28.37" height="282.25" rx="14.18" ry="14.18" transform="translate(-2604.13 5922.9) rotate(-90)"/><path class="cls-1" d="M325.37,557H510.13a0,0,0,0,1,0,0v59.73a0,0,0,0,1,0,0H265.64a0,0,0,0,1,0,0v0A59.73,59.73,0,0,1,325.37,557Z"/><polygon class="cls-3" points="404.65 487.75 906.64 405.63 906.64 197.74 400.13 279.94 404.65 487.75"/><polygon class="cls-3" points="1518.53 405.63 1037.42 405.63 1037.42 197.74 1518.53 405.63 1518.53 405.63"/><path class="cls-4" d="M4221.53,4028.29h281.63a0,0,0,0,1,0,0v103.94a0,0,0,0,1,0,0H4325.48a103.94,103.94,0,0,1-103.94-103.94v0A0,0,0,0,1,4221.53,4028.29Z" transform="translate(4625.04 4516.04) rotate(-180)"/><path class="cls-4" d="M4602.46,4013.46l403.84-67.72V3842.22l-506.46,82.12C4499.84,3978.88,4548.63,4022.19,4602.46,4013.46Z" transform="translate(-4099.66 -3644.48)"/><path class="cls-5" d="M5009.81,3945.73h286.32c16.49,0,21.41-22.43,6.44-29.34l-160.24-73.85a3.52,3.52,0,0,0-1.47-.32H5006.3v100A3.52,3.52,0,0,0,5009.81,3945.73Z" transform="translate(-4099.66 -3644.48)"/><polyline class="cls-3" points="906.64 405.63 931.18 405.63 931.18 197.74 906.64 197.74"/><polygon class="cls-2" points="502.8 368.98 906.64 301.25 509.74 618.53 331.18 618.53 502.8 368.98"/><rect class="cls-3" x="1017.42" y="197.74" width="24.55" height="207.89"/><path class="cls-6" d="M5030.84,4050.18V3945.73h255.47a104.46,104.46,0,0,1,104.46,104.46H5030.84Z" transform="translate(-4099.66 -3644.48)"/></svg>