<svg id="Layer_1" data-name="Layer 1" xmlns="http://www.w3.org/2000/svg" viewBox="0 0 1117.32 435.25"><defs><style>.cls-1{fill:#688d8d;}.cls-2{fill:#875224;}.cls-3{fill:#e1ab00;}.cls-4{fill:#fff;}.cls-5{fill:#e48a00;}.cls-6{fill:#efe2a3;}.cls-7{fill:#cdd1cd;}</style></defs><title>vehic_01</title><rect class="cls-1" x="895.18" y="2759.55" width="24.63" height="297.26" transform="translate(-2664.2 1099.18) rotate(-89.99)"/><polygon class="cls-2" points="467.94 13.34 397.63 13.34 427.39 92.81 502.59 92.81 467.94 13.34"/><path class="cls-3" d="M1508.48,2921.92h-234l50.67,102.65H1680l-24.54-31.23A187,187,0,0,0,1508.48,2921.92Z" transform="translate(-663.39 -2716.06)"/><polygon class="cls-2" points="587.44 100.64 367.87 100.64 367.87 239.64 677.18 239.64 587.44 100.64"/><polygon class="cls-4" points="556.66 120.57 424.06 120.57 424.06 204.51 610.85 204.51 556.66 120.57"/><path class="cls-3" d="M1276,2806.73h0a22.09,22.09,0,0,0-20-12.8H1032.84a22.09,22.09,0,0,0-22.09,22.09h0a22.09,22.09,0,0,0,22.09,22.09H1256A22.09,22.09,0,0,0,1276,2806.73Z" transform="translate(-663.39 -2716.06)"/><path class="cls-5" d="M1741.87,3037.66a172.29,172.29,0,0,1-162,113.64h-411c-140.81,0-358.62-19.21-483.76-83.77h0l47.7-111.83h1047.9Z" transform="translate(-663.39 -2716.06)"/><rect class="cls-1" x="377.38" width="101.57" height="26.67" rx="13.34" ry="13.34"/><path class="cls-6" d="M1727.69,3067.53H685.11a21.72,21.72,0,0,1-21.72-21.72h0a21.72,21.72,0,0,1,21.72-21.72H1748.3Z" transform="translate(-663.39 -2716.06)"/><rect class="cls-1" x="95.47" y="179.8" width="24.63" height="67.25"/><rect class="cls-1" x="250.4" y="188.32" width="24.63" height="58.74"/><polygon class="cls-7" points="1084.91 308.03 33.19 308.03 69.42 239.64 1117.32 239.64 1084.91 308.03"/><circle class="cls-1" cx="1049.43" cy="273.84" r="22.8"/></svg>