<svg id="Layer_1" data-name="Layer 1" xmlns="http://www.w3.org/2000/svg" viewBox="0 0 1337.95 655.3"><defs><style>.cls-1{fill:#c6c5b2;}.cls-2{fill:#7f7f89;}.cls-3{fill:#e73a11;}.cls-4{fill:#ffb300;}.cls-5{fill:#c13105;}.cls-6{fill:#5fbfe5;}.cls-7{fill:#fc7746;}.cls-8{fill:#d9d9cf;}.cls-9{fill:#c5c6b4;}</style></defs><title>vehic_04</title><rect class="cls-1" x="4349.54" y="2831.34" width="28.37" height="90.92" transform="translate(2936.88 -4163.34) rotate(90)"/><rect class="cls-2" x="4304.09" y="2723.36" width="28.37" height="306.91" rx="14.18" ry="14.18" transform="translate(4332.9 3077.23) rotate(-180)"/><polygon class="cls-3" points="53 230.95 853.56 239.5 853.56 90.71 53 174.57 53 230.95"/><rect class="cls-1" x="5108.99" y="2690.59" width="28.37" height="90.92" transform="translate(5942.71 2795.69) rotate(-180)"/><rect class="cls-2" x="5108.99" y="2172.18" width="28.37" height="1036.82" rx="14.18" ry="14.18" transform="translate(-1871.08 5137.35) rotate(-90)"/><path class="cls-4" d="M4737.94,2676.41h-119a14.18,14.18,0,1,0,0,28.36h119v-28.36Z" transform="translate(-4303.64 -2676.41)"/><path class="cls-4" d="M4332.46,2776.54v-38a14.18,14.18,0,1,0-28.36,0v38h28.36Z" transform="translate(-4303.64 -2676.41)"/><path class="cls-4" d="M4303.64,2978.54l0.67,38a14.18,14.18,0,1,0,28.36-.5l-0.67-38Z" transform="translate(-4303.64 -2676.41)"/><path class="cls-4" d="M5508.41,2704.77h119a14.18,14.18,0,1,0,0-28.36h-119v28.36Z" transform="translate(-4303.64 -2676.41)"/><polygon class="cls-5" points="1011.7 623.72 1049.17 623.72 992.97 467.25 955.5 467.25 1011.7 623.72"/><polygon class="cls-5" points="885.33 623.72 922.8 623.72 866.59 467.25 829.13 467.25 885.33 623.72"/><circle class="cls-6" cx="1069.74" cy="384.02" r="144.52"/><path class="cls-6" d="M5140.58,2760.77h77.67c165.49,0,299.65,134.16,299.65,299.65H5140.58V2760.77Z" transform="translate(-4303.64 -2676.41)"/><polygon class="cls-7" points="449.84 118.54 837.92 84.36 837.92 239.5 449.84 239.5 449.84 118.54"/><polygon class="cls-5" points="283.93 230.95 687.65 230.95 687.65 355.14 283.93 230.95"/><path class="cls-8" d="M4986.61,2907.31H5287a103.34,103.34,0,0,1,103.34,103.34v194.3a0,0,0,0,1,0,0H5284.24a297.63,297.63,0,0,1-297.63-297.63v0A0,0,0,0,1,4986.61,2907.31Z" transform="translate(6073.29 3435.84) rotate(180)"/><path class="cls-9" d="M4986.61,3053.07v48.54a103.34,103.34,0,0,0,103.34,103.34h300.38a296.18,296.18,0,0,0-41.68-151.88h-362Z" transform="translate(-4303.64 -2676.41)"/><path class="cls-2" d="M5503.31,3331.7h-495.1a18.49,18.49,0,1,1,0-37h495.1a40.29,40.29,0,0,0,40.25-40.25,18.49,18.49,0,1,1,37,0A77.32,77.32,0,0,1,5503.31,3331.7Z" transform="translate(-4303.64 -2676.41)"/><circle class="cls-3" cx="799.79" cy="376.66" r="44.17"/><path class="cls-5" d="M5147.59,3053.07a44.17,44.17,0,1,1-88.34,0" transform="translate(-4303.64 -2676.41)"/></svg>