<svg id="Layer_1" data-name="Layer 1" xmlns="http://www.w3.org/2000/svg" viewBox="0 0 761.33 580.81"><defs><style>.cls-1{fill:#24a3c0;}.cls-2{fill:#40cbe2;}.cls-3{fill:#1570b4;}.cls-4{fill:#636270;}.cls-5{fill:#fff;}.cls-6{fill:#cdd1cd;}.cls-7{fill:#2280ba;}</style></defs><title>vehic_06</title><path class="cls-1" d="M2581.22,3911.55l-73.57,73.57-66-23.59,20.59-136.09,23.66,6.63a72.5,72.5,0,0,0,64.36,71.83Z" transform="translate(-1899.9 -3573.53)"/><path class="cls-2" d="M2318.85,3954c-67.7,0-122.42-55.15-122.22-123.1v-25.19h-21.71v-46.37c-2.61-.08-5.21-0.2-7.84-0.2-147.56,0-267.19,119.63-267.19,267.2l451.58,0a96.87,96.87,0,0,0,90.19-64.82V3833.63C2440.08,3900.36,2385.68,3954,2318.85,3954Z" transform="translate(-1899.9 -3573.53)"/><rect class="cls-3" x="106.57" y="166.24" width="239.02" height="72.3" rx="21.51" ry="21.51"/><circle class="cls-4" cx="173.5" cy="473.79" r="107.02"/><circle class="cls-5" cx="173.5" cy="473.79" r="48.86"/><circle class="cls-6" cx="173.5" cy="473.79" r="26.98"/><circle class="cls-4" cx="638.74" cy="473.79" r="107.02"/><circle class="cls-5" cx="638.74" cy="473.79" r="48.86"/><circle class="cls-6" cx="638.74" cy="473.79" r="27.03"/><rect class="cls-1" x="541.78" y="44.42" width="44.2" height="359.43"/><path class="cls-7" d="M1915.26,4026.35a158.14,158.14,0,1,1,316.28,0H1915.26Z" transform="translate(-1899.9 -3573.53)"/><path class="cls-7" d="M2416,4026.23c0.21-68,55.26-123,123-123s122.42,55.15,122.22,123.1Z" transform="translate(-1899.9 -3573.53)"/><path class="cls-5" d="M2300.56,3952.87v0.65c0-.22,0-0.43,0-0.65h0Z" transform="translate(-1899.9 -3573.53)"/><rect class="cls-7" x="463.84" y="26.97" width="122.14" height="34.9" rx="10.38" ry="10.38"/><rect class="cls-1" x="1890.86" y="3860.49" width="80.27" height="34.9" rx="10.38" ry="10.38" transform="translate(-3846.22 2236.67) rotate(-90.02)"/><path class="cls-7" d="M2545.79,3692.87a59.67,59.67,0,1,1,0-119.34" transform="translate(-1899.9 -3573.53)"/></svg>