<svg id="Layer_1" data-name="Layer 1" xmlns="http://www.w3.org/2000/svg" viewBox="0 0 406 61.52"><defs><style>.cls-1{fill:#fff;}</style></defs><title>azoomee_logo_white</title><path class="cls-1" d="M56.35,46.87H50.68a8,8,0,0,1-1.86-.12A1.56,1.56,0,0,1,48,46.21a1.53,1.53,0,0,1-.3-0.86,17.14,17.14,0,0,1,.13-1.8c0.08-.86.22-1.59,0.35-2.39,0.56-3.48,1.18-7,1.77-10.42,1.32-7.81,2.57-15.19,3.9-23,0.05-.31,0-0.18-0.16-0.52S53,6.89,52.37,6.89H41.77A0.68,0.68,0,0,0,41,6.65L40.47,7c-0.24.42-.47,0.73-0.71,1.15C33.9,4.2,26,4.65,19.53,7a29.4,29.4,0,0,0-16,14.35c-5.92,11.63-5.3,31.2,8.57,37,7.55,3.18,15.63.56,21.78-4.45a9.32,9.32,0,0,0,4.19,4,17.53,17.53,0,0,0,5,1.27c1.67,0.16,4.68.58,6.2-.13a4.39,4.39,0,0,0,1.46-1.33l6.48-9.31A1,1,0,0,0,56.35,46.87Zm-20-12.34c-1.95,6.9-7.24,13.12-14.91,12.71-8.5-1-8.73-10.57-6.85-17.14s7.06-13,14.47-12.6C37.9,18,38.17,28,36.31,34.53h0Z" transform="translate(0.02 0.02)"/><path class="cls-1" d="M98.23,45.87H80.71c8.95-13,17.89-25.58,26.84-38.4,0.31-.44.2-0.39-0.09-0.68s-0.43.08-.81,0.08H66.15c-0.42,0-.92-0.13-1,0.31-0.67,3.67-1.33,7-2,10.69a0.83,0.83,0,0,0,1,1H81.9C72.95,30.87,64,45,55.06,57.82a1.48,1.48,0,0,0,.7,2L56,59.87H96.27a1.55,1.55,0,0,0,1-1.17c0.67-3.67,1.33-7.59,2-11.26a1.29,1.29,0,0,0-1-1.55Z" transform="translate(0.02 0.02)"/><path class="cls-1" d="M191.43,5.13a31.3,31.3,0,0,0-29.5,15.94c-5.17,9.11-6.55,22,.23,30.7,7.21,9.25,21.36,9.79,31.31,5.15,10.65-5,17.72-16,18.4-27.7C212.62,16.14,204.41,6.48,191.43,5.13Zm4.21,29.41c-1.95,6.9-7.24,13.12-14.91,12.71-8.5-1-8.73-10.57-6.85-17.14s7.06-13,14.47-12.6c8.84,0.48,9.14,10.45,7.29,17h0Z" transform="translate(0.02 0.02)"/><path class="cls-1" d="M135.28,5.13a31.3,31.3,0,0,0-29.5,15.94c-5.17,9.11-6.55,22,.23,30.7,7.21,9.25,21.36,9.79,31.31,5.15,10.65-5,17.72-16,18.4-27.7C156.48,16.14,148.26,6.48,135.28,5.13Zm4.21,29.41c-1.95,6.9-7.24,13.12-14.91,12.71-8.5-1-8.73-10.57-6.85-17.14s7.06-13,14.47-12.6c8.84,0.48,9.15,10.45,7.29,17h0Z" transform="translate(0.02 0.02)"/><path class="cls-1" d="M403.21,26.81c-2.18.4-3.82,3.24-4.91,4.92a59.66,59.66,0,0,1-7.7,9.7c-4.52,4.56-10,8.72-15.92,10.67h0c-5.22,1.85-15.09,3.08-17.82-3.32-0.55-1.28-1.12-2.91,0-3.92a8.67,8.67,0,0,1,2.37-.89c1.92-.7,3.85-1.37,5.76-2.08a83.59,83.59,0,0,0,14.19-6.65c9.23-5.61,23.34-20.19,13.17-31.2C388.69,0,382-.57,377,0.35c-6.5,1.19-12.55,5.15-17.2,9.7C352.19,17.48,346,28.12,344.74,39a44.74,44.74,0,0,1-3.93,4.26,37.73,37.73,0,0,1-13.12,8.6c-5.07,1.79-14.64,3-17.3-3.22-0.53-1.25-1.09-2.82,0-3.8a8.41,8.41,0,0,1,2.3-.86c2-.72,4-1.41,6-2.15,9.45-3.55,19.18-8.23,25.52-16.38,5.5-7.08,8.17-19.84-2.25-24.06-9.84-4-20.62,1.26-27.83,8-7.81,7.27-14,17.89-15.62,28.52a32.35,32.35,0,0,0-.37,5.7,22.85,22.85,0,0,1-2.85,1.51c-3.69,1.61-7.14.06-6.47-4.32s3.53-8.35,5.25-12.39c3-6.92,3-17.58-6.6-18.67-8.63-1-15.83,5.71-20.79,12.14C268.13,14.4,269.46,2,260.12.27c-5.43-1-10.46,2.31-14.45,5.7a95.47,95.47,0,0,0-14,15c1-3.86,2.1-8.92-1.43-11.31-3-2-7.86-.77-10.5,1.31a5,5,0,0,0-2,4.07c-0.24,3.5.16,7-.23,10.53a53.2,53.2,0,0,1-4.88,16.89c-1,2-2,4-3.08,5.94-0.89,1.61-2.34,3.43-2.09,5.38,0.48,3.79,6.25,5,9.29,5a2.53,2.53,0,0,0,2.65-1.31c2.11-3,3.53-6.79,5.37-10a150.1,150.1,0,0,1,11-16.73,73.56,73.56,0,0,1,7.39-8.33c2.26-2.18,9.93-8.83,10.13-2a29.5,29.5,0,0,1-.83,7.25c-0.92,3.67-2.09,7.28-3.3,10.86s-2.41,6.84-3.62,10.26c-0.75,2.13-1.78,4.55-.23,6.56s6.3,3.28,8.85,2.75c2.29-.47,2.87-3.6,3.8-5.43q2.52-5,5.35-9.74c3.59-6,6.79-12.52,11.61-17.68,1.32-1.42,5.69-5.66,7.46-1.41,0.55,1.31,0,3.3-.28,4.61a64,64,0,0,1-2,6.78c-1.5,4.55-3.47,9.68-2.7,14.56,1.3,8.27,12,9.86,17.95,5.7a22.53,22.53,0,0,0,4.44-4.17,15.39,15.39,0,0,0,6.7,7.3c11.5,6.5,25.55,1,35.2-6.39,1.21-.92,2.44-1.94,3.65-3a15.36,15.36,0,0,0,7.11,9.18,22.68,22.68,0,0,0,12.29,3c16,0.23,29.7-12.15,38.27-24.88C404,34.87,409.08,25.72,403.21,26.81Zm-44.27,3.77a64.74,64.74,0,0,1,8.16-12.3c2.12-2.49,15.67-15.07,15.7-4.21-0.46,6.69-6.67,11.43-11.93,14.68a68.51,68.51,0,0,1-7.79,4.1c-1.84.83-4,1.35-5.77,2.31,0,0-.25.07-0.52,0.17,0.6-1.39,1.85-4.17,2.11-4.75h0Zm-46.42,0a64.74,64.74,0,0,1,8.16-12.3c2.12-2.49,15.67-15.07,15.7-4.21-0.46,6.69-6.67,11.43-11.93,14.68a68.51,68.51,0,0,1-7.79,4.1c-1.84.83-4,1.35-5.77,2.31,0,0-.25.07-0.52,0.17C311,33.94,312.23,31.16,312.52,30.58Z" transform="translate(0.02 0.02)"/></svg>