<svg id="Layer_1" data-name="Layer 1" xmlns="http://www.w3.org/2000/svg" viewBox="0 0 523.96 477.66"><defs><style>.cls-1{fill:#dc1118;}.cls-2{fill:#9f1220;}.cls-3{fill:#b4c200;}.cls-4{fill:#e06687;}.cls-5{fill:#ffa9e6;}.cls-6{fill:#e184ad;}</style></defs><title>food_04</title><path class="cls-1" d="M4136.39,59.2a167.19,167.19,0,0,0-59.94,11.08,167.68,167.68,0,0,0-227.61,156.6c0,92.6,75.07,218.61,167.67,218.61,21.13,0,41.32-6.61,59.94-17.84,18.62,11.22,38.81,17.84,59.94,17.84,92.6,0,167.67-126,167.67-218.61A167.67,167.67,0,0,0,4136.39,59.2Z" transform="translate(-3848.84 32.19)"/><path class="cls-2" d="M4076.46,70.27a167.68,167.68,0,0,0-227.61,156.6c0,92.6,75.07,218.61,167.67,218.61,21.13,0,41.32-6.61,59.94-17.84" transform="translate(-3848.84 32.19)"/><path class="cls-3" d="M3936-30.66l0.61-.08h0c88.63-11.89,150.49,50.19,138.25,139h0C3985.94,120.5,3923.76,58.32,3936-30.66Z" transform="translate(-3848.84 32.19)"/><circle class="cls-2" cx="344.83" cy="226.66" r="51.36"/><path class="cls-4" d="M4193.68,215a20.55,20.55,0,1,1,0-41.1,98.75,98.75,0,0,0,98.63-98.63v-34a20.55,20.55,0,1,1,41.1,0v34C4333.41,152.34,4270.72,215,4193.68,215Z" transform="translate(-3848.84 32.19)"/><path class="cls-5" d="M4306.27,134.44A20.41,20.41,0,0,0,4325.6,121a137.73,137.73,0,0,0,7.81-45.68V42.46c0-10.75-7.74-20.54-18.43-21.61a20.55,20.55,0,0,0-22.67,20.44v34a97.36,97.36,0,0,1-5.38,32,20.45,20.45,0,0,0,19.35,27.16h0Z" transform="translate(-3848.84 32.19)"/><circle class="cls-6" cx="464.01" cy="77.98" r="59.95"/><circle class="cls-2" cx="439.44" cy="71.71" r="13.45"/><circle class="cls-2" cx="488.59" cy="71.71" r="13.45"/></svg>