<svg id="Layer_1" data-name="Layer 1" xmlns="http://www.w3.org/2000/svg" viewBox="0 0 554.56 535.72"><defs><style>.cls-1{fill:#875224;}.cls-2{fill:#c79c4b;}.cls-3{fill:#9c7248;}.cls-4{fill:#ff49c3;}.cls-5{fill:#e184ad;}.cls-6{fill:#24a3c0;}.cls-7{fill:#efe2a3;}.cls-8{fill:#1570b4;}.cls-9{fill:#5fbfe5;}.cls-10{fill:#e7ca00;}.cls-11{fill:#ecde4c;}.cls-12{fill:none;}</style></defs><title>food_03</title><path class="cls-1" d="M3207.94,18.81c-123.77,0-224.11,100.34-224.11,224.11S3084.17,467,3207.94,467s224.11-100.34,224.11-224.11S3331.71,18.81,3207.94,18.81Zm0,335.23a111.12,111.12,0,1,1,111.12-111.12A111.12,111.12,0,0,1,3207.94,354Z" transform="translate(-2923.57 68.7)"/><path class="cls-2" d="M3207.94-26.44c-123.77,0-224.11,100.34-224.11,224.11s100.34,224.11,224.11,224.11,224.11-100.34,224.11-224.11S3331.71-26.44,3207.94-26.44Zm0,335.23a111.12,111.12,0,1,1,111.12-111.12A111.12,111.12,0,0,1,3207.94,308.79Z" transform="translate(-2923.57 68.7)"/><path class="cls-3" d="M3206.17,308.74a111.09,111.09,0,0,1,0-222.15v-113c-123,1-222.34,100.89-222.34,224.06s99.38,223.11,222.34,224.06v-113Z" transform="translate(-2923.57 68.7)"/><path class="cls-2" d="M3207.94,380.4c-71.12,0-135.53-36.42-172.28-97.42a26.52,26.52,0,0,1,45.43-27.37,148,148,0,0,0,253.7,0A26.52,26.52,0,1,1,3380.23,283C3343.47,344,3279.07,380.4,3207.94,380.4Z" transform="translate(-2923.57 68.7)"/><path class="cls-1" d="M3207.94-26.44c-123.77,0-224.11,100.34-224.11,224.11A223.63,223.63,0,0,0,2997,273.47,29.72,29.72,0,0,0,3009.89,249V213.52a29.71,29.71,0,0,1,59.41,0v0.59h0v19A29.79,29.79,0,0,0,3099,262.85a28.93,28.93,0,0,0,15.8-4.68,111.1,111.1,0,1,1,179.37,9.53A29.67,29.67,0,0,0,3347,249V213.52a29.71,29.71,0,0,1,59.41,0v72.65a29.43,29.43,0,0,0,2.24,11.26,223.1,223.1,0,0,0,23.44-99.77C3432.05,73.89,3331.71-26.44,3207.94-26.44Z" transform="translate(-2923.57 68.7)"/><path class="cls-4" d="M3207.94-59.89c-141.08,0-255.61,113.45-257.47,254.09v35a29.71,29.71,0,1,0,59.41,0V193.64a29.71,29.71,0,1,1,59.41,0v0.58h0v19A29.79,29.79,0,0,0,3099,243a29.48,29.48,0,0,0,29.34-29.71v-19a79.67,79.67,0,0,1,159.2,0h0v34.94a29.71,29.71,0,0,0,59.41,0V194.23h0v-0.58a29.71,29.71,0,0,1,59.41,0v0.58h0V212.7h0v53.59A29.79,29.79,0,0,0,3436.08,296h0a29.48,29.48,0,0,0,29.34-29.71V194.23C3463.56,53.57,3349-59.89,3207.94-59.89Z" transform="translate(-2923.57 68.7)"/><path class="cls-5" d="M3357.54,102.45a26.51,26.51,0,0,1-22.74-12.84,148,148,0,0,0-253.7,0,26.52,26.52,0,0,1-45.43-27.37c36.75-61,101.15-97.42,172.28-97.42s135.53,36.42,172.28,97.42A26.52,26.52,0,0,1,3357.54,102.45Z" transform="translate(-2923.57 68.7)"/><path class="cls-6" d="M3021.77,178.34" transform="translate(-2923.57 68.7)"/><rect class="cls-7" x="3438.36" y="82.76" width="22.94" height="70.59" rx="11.47" ry="11.47" transform="translate(-1829.66 -2336.13) rotate(45)"/><rect class="cls-8" x="3247.77" y="-75.69" width="22.94" height="70.59" rx="11.47" ry="11.47" transform="translate(-1997.52 -2247.77) rotate(45)"/><rect class="cls-8" x="3276.08" y="-5.13" width="22.94" height="70.59" rx="11.47" ry="11.47" transform="translate(-1939.35 -2247.11) rotate(45)"/><rect class="cls-9" x="3136.55" y="8.96" width="22.94" height="70.59" rx="11.47" ry="11.47" transform="translate(-1970.25 -2144.34) rotate(45)"/><rect class="cls-9" x="3410.06" y="10.57" width="22.94" height="70.59" rx="11.47" ry="11.47" transform="translate(-1889.01 -2337.26) rotate(45)"/><rect class="cls-8" x="3196.48" y="82.76" width="22.94" height="70.59" rx="11.47" ry="11.47" transform="translate(-1900.51 -2165.09) rotate(45)"/><rect class="cls-9" x="2968.71" y="72.04" width="22.94" height="70.59" rx="11.47" ry="11.47" transform="translate(-1974.81 -2007.17) rotate(45)"/><rect class="cls-10" x="3301.63" y="96.51" width="22.94" height="70.59" rx="11.47" ry="11.47" transform="translate(-1859.99 -2235.42) rotate(45)"/><rect class="cls-10" x="2940.41" y="163.4" width="22.94" height="70.59" rx="11.47" ry="11.47" transform="translate(-1918.49 -1960.4) rotate(45)"/><rect class="cls-9" x="3438.36" y="171.35" width="22.94" height="70.59" rx="11.47" ry="11.47" transform="translate(-2059.25 2568.63) rotate(-45)"/><rect class="cls-7" x="3325.05" y="-45.47" width="22.94" height="70.59" rx="11.47" ry="11.47" transform="translate(-1939.12 2425.01) rotate(-45)"/><rect class="cls-8" x="3089.08" y="64.04" width="22.94" height="70.59" rx="11.47" ry="11.47" transform="translate(-2085.67 2290.23) rotate(-45)"/><rect class="cls-10" x="3010.3" y="15.43" width="22.94" height="70.59" rx="11.47" ry="11.47" transform="translate(-2074.37 2220.28) rotate(-45)"/><rect class="cls-8" x="3057.83" y="-61.74" width="22.94" height="70.59" rx="11.47" ry="11.47" transform="translate(-2005.89 2231.29) rotate(-45)"/><rect class="cls-11" x="3153.91" y="-66.88" width="22.94" height="70.59" rx="11.47" ry="11.47" transform="translate(-1974.11 2297.72) rotate(-45)"/><rect class="cls-8" x="3363.79" y="67.17" width="22.94" height="70.59" rx="11.47" ry="11.47" transform="translate(-2007.42 2485.39) rotate(-45)"/><rect class="cls-11" x="3111.57" y="143.05" width="22.94" height="70.59" rx="11.47" ry="11.47" transform="translate(-2134.95 2329.27) rotate(-45)"/><polygon class="cls-12" points="482.8 262.92 482.8 262.92 482.8 271.87 482.8 262.92"/></svg>