<svg id="Layer_1" data-name="Layer 1" xmlns="http://www.w3.org/2000/svg" viewBox="0 0 551.01 605.15"><defs><style>.cls-1{fill:#d8ca8d;}.cls-2{fill:#efe2a3;}.cls-3{fill:#e48a00;}.cls-4{fill:#ecde4c;}.cls-5{fill:#fcf1c5;}</style></defs><title>food_02</title><path class="cls-1" d="M2040.82,425.27a51.88,51.88,0,1,0,103.75,0V404.47H2040.82v20.81Z" transform="translate(-1892.05 71.96)"/><path class="cls-1" d="M1892,383.8a51.88,51.88,0,0,0,103.75,0V363H1892V383.8Z" transform="translate(-1892.05 71.96)"/><path class="cls-1" d="M2022.79,350.28l150.07,150.07c43.78,43.78,115.41,43.78,159.19,0s43.78-115.41,0-159.18L2182,191.1Z" transform="translate(-1892.05 71.96)"/><circle class="cls-1" cx="2200.82" cy="185.73" r="242.24" transform="translate(-1378.78 1682.57) rotate(-45)"/><circle class="cls-2" cx="200.65" cy="476.43" r="51.88"/><path class="cls-1" d="M2295.53,345.73a51.88,51.88,0,1,0,103.75,0V324.92H2295.53v20.81Z" transform="translate(-1892.05 71.96)"/><circle class="cls-2" cx="455.36" cy="396.89" r="51.88"/><circle class="cls-2" cx="2200.82" cy="170.27" r="242.24" transform="translate(-1367.85 1678.05) rotate(-45)"/><circle class="cls-2" cx="2200.82" cy="170.27" r="242.24" transform="translate(-1367.85 1678.05) rotate(-45)"/><path class="cls-2" d="M2019.49,330.8l150.07,150.07c43.78,43.78,115.41,43.78,159.19,0s43.78-115.41,0-159.18L2178.68,171.62Z" transform="translate(-1892.05 71.96)"/><circle class="cls-1" cx="2200.82" cy="182.84" r="120.68" transform="translate(-1376.73 1681.73) rotate(-45)"/><ellipse class="cls-3" cx="308.77" cy="242.22" rx="109.35" ry="109.34"/><path class="cls-4" d="M2265.21,146.23a11.41,11.41,0,0,1-9.79-5.53,63.71,63.71,0,0,0-109.21,0,11.41,11.41,0,0,1-19.56-11.78,86.55,86.55,0,0,1,148.32,0A11.42,11.42,0,0,1,2265.21,146.23Z" transform="translate(-1892.05 71.96)"/><path class="cls-5" d="M2279.49,14.08a29.45,29.45,0,0,1-28,7.78,164.42,164.42,0,0,0-199.29,199.29,29.46,29.46,0,1,1-57.19,14.19c-19.05-76.78,2.93-156,58.81-211.86s135.07-77.85,211.86-58.81A29.46,29.46,0,0,1,2287.23.36,29.31,29.31,0,0,1,2279.49,14.08Z" transform="translate(-1892.05 71.96)"/><circle class="cls-2" cx="51.88" cy="434.95" r="51.88"/></svg>