<svg id="Layer_1" data-name="Layer 1" xmlns="http://www.w3.org/2000/svg" viewBox="0 0 628.23 611.44"><defs><style>.cls-1{fill:#efe2a3;}.cls-2{fill:#009c48;}.cls-3{fill:#338c2f;}.cls-4{fill:#b4c200;}.cls-5{fill:#a0a00e;}.cls-6{fill:#ecde4c;}</style></defs><title>food_08</title><path class="cls-1" d="M3989.61,874.17a14.78,14.78,0,0,1-10.45-25.23,44,44,0,0,0,0-62.08,61.15,61.15,0,0,1-18-43.51,14.78,14.78,0,0,1,14.78-14.78h0a14.78,14.78,0,0,1,14.78,14.78A31.81,31.81,0,0,0,4000.1,766a73.54,73.54,0,0,1,0,103.87A14.74,14.74,0,0,1,3989.61,874.17Z" transform="translate(-3759.13 -612.53)"/><path class="cls-1" d="M4071.48,874.17A14.78,14.78,0,0,1,4061,848.94a44,44,0,0,0,0-62.08,61.54,61.54,0,0,1,0-87,44,44,0,0,0,0-62.08A14.78,14.78,0,0,1,4082,616.86a73.56,73.56,0,0,1,0,103.86,32,32,0,0,0,0,45.25,73.54,73.54,0,0,1,0,103.87A14.74,14.74,0,0,1,4071.48,874.17Z" transform="translate(-3759.13 -612.53)"/><path class="cls-1" d="M4153.37,874.17a14.78,14.78,0,0,1-10.45-25.23,44,44,0,0,0,0-62.07,61.54,61.54,0,0,1,0-87,14.78,14.78,0,0,1,20.9,20.9,32,32,0,0,0,0,45.25,73.54,73.54,0,0,1,0,103.87A14.74,14.74,0,0,1,4153.37,874.17Z" transform="translate(-3759.13 -612.53)"/><path class="cls-2" d="M4338.37,935.87a22.08,22.08,0,0,1,22,23.89C4348.21,1107.7,4224.3,1224,4073.24,1224s-275-116.27-287.11-264.2a22.08,22.08,0,0,1,22-23.89h530.26Z" transform="translate(-3759.13 -612.53)"/><path class="cls-3" d="M4322,1081a286,286,0,0,0,39.36-145.16H3785.16A286,286,0,0,0,3824.51,1081H4322Z" transform="translate(-3759.13 -612.53)"/><path class="cls-4" d="M4360,1012.68a297.35,297.35,0,0,0,10.42-78H3776.06a297.36,297.36,0,0,0,10.41,78H4360Z" transform="translate(-3759.13 -612.53)"/><rect class="cls-5" x="246.66" y="323.35" width="47.81" height="75.61"/><rect class="cls-5" x="159.57" y="323.35" width="47.81" height="75.61"/><rect class="cls-5" x="72.48" y="323.35" width="47.81" height="75.61"/><rect class="cls-5" x="333.76" y="323.35" width="47.81" height="75.61"/><rect class="cls-5" x="507.94" y="323.35" width="47.81" height="75.61"/><rect class="cls-5" x="420.85" y="323.35" width="47.81" height="75.61"/><rect class="cls-6" y="371.8" width="628.23" height="56.44" rx="28.22" ry="28.22"/></svg>