<svg id="Layer_1" data-name="Layer 1" xmlns="http://www.w3.org/2000/svg" viewBox="0 0 499.34 464.37"><defs><style>.cls-1{fill:#e184ad;}.cls-2{fill:#e06687;}.cls-3{fill:#ffa9e6;}.cls-4{fill:#7a3690;}.cls-5{fill:#8c1c88;}</style></defs><title>food_06</title><path class="cls-1" d="M2431.09,1165.47a31.81,31.81,0,1,1,0-63.61,79.89,79.89,0,0,0,0-159.78,31.81,31.81,0,1,1,0-63.61c79.13,0,143.5,64.37,143.5,143.5S2510.21,1165.47,2431.09,1165.47Z" transform="translate(-2075.25 -776.37)"/><path class="cls-1" d="M2431.09,1165.47a31.81,31.81,0,1,1,0-63.61,79.89,79.89,0,0,0,0-159.78,31.81,31.81,0,1,1,0-63.61c79.13,0,143.5,64.37,143.5,143.5S2510.21,1165.47,2431.09,1165.47Z" transform="translate(-2075.25 -776.37)"/><path class="cls-2" d="M2428.14,941.08a31.28,31.28,0,0,0,3.43.35l0.36,0,53.17-53.17a142.24,142.24,0,0,0-29.75-8.32Z" transform="translate(-2075.25 -776.37)"/><path class="cls-2" d="M2468.4,950.5a80.12,80.12,0,0,1,16.34,11.36l63.15-24.25a144.51,144.51,0,0,0-33.39-33.19Z" transform="translate(-2075.25 -776.37)"/><path class="cls-2" d="M2563.93,965.93l-59.47,22.84a79.11,79.11,0,0,1,5.37,16.45h64.28A142.35,142.35,0,0,0,2563.93,965.93Z" transform="translate(-2075.25 -776.37)"/><path class="cls-2" d="M2559.54,1085.91a142.2,142.2,0,0,0,14.57-48.49h-64.28a79.27,79.27,0,0,1-8.43,22.62Z" transform="translate(-2075.25 -776.37)"/><path class="cls-2" d="M2431.93,1101.2l-0.36,0a31.49,31.49,0,0,0-8.35,1.25l23.63,61.52a142.21,142.21,0,0,0,38.24-9.62Z" transform="translate(-2075.25 -776.37)"/><path class="cls-2" d="M2468.4,1092.14l46.09,46.09a144.61,144.61,0,0,0,27.19-25l-62.54-27.83A80,80,0,0,1,2468.4,1092.14Z" transform="translate(-2075.25 -776.37)"/><path class="cls-3" d="M25.32,8.1h350a0,0,0,0,1,0,0V422.71a41.66,41.66,0,0,1-41.66,41.66H67a41.66,41.66,0,0,1-41.66-41.66V8.1A0,0,0,0,1,25.32,8.1Z"/><path class="cls-4" d="M2100.56,1142v57a41.66,41.66,0,0,0,41.66,41.66h266.64a41.66,41.66,0,0,0,41.66-41.66v-57h-350Z" transform="translate(-2075.25 -776.37)"/><rect class="cls-4" x="25.32" y="8.1" width="349.96" height="115.1"/><rect class="cls-1" width="400.59" height="61.94" rx="30.97" ry="30.97"/><circle class="cls-5" cx="202.5" cy="245.6" r="87.83"/><circle class="cls-5" cx="202.5" cy="245.6" r="87.83"/><path class="cls-3" d="M2327.16,1001.19a21.34,21.34,0,0,0-10-12.19c-19.59-10.56-39.31,3.35-39.31,21.87h0c0-18.82-20.31-33.95-40.22-21.87a21,21,0,0,0-8,8.72c-5,10.32-3.37,20.54,2,27.81l46.18,50.19,43.37-46.61C2327.41,1021,2331.29,1013.82,2327.16,1001.19Z" transform="translate(-2075.25 -776.37)"/></svg>