<svg id="Layer_1" data-name="Layer 1" xmlns="http://www.w3.org/2000/svg" viewBox="0 0 663.38 579.3"><defs><style>.cls-1{fill:#76004a;}.cls-2{fill:#e184ad;}.cls-3{fill:#ff49c3;}.cls-4{fill:#9c7248;}.cls-5{fill:#875224;}.cls-6{fill:#c79c4b;}.cls-7{fill:#8c1c88;}.cls-8{fill:#efe2a3;}.cls-9{fill:#ecde4c;}</style></defs><title>food_05</title><path class="cls-1" d="M209.53,82.69H442.26a68.92,68.92,0,0,1,68.92,68.92V319.08a0,0,0,0,1,0,0H140.61a0,0,0,0,1,0,0V151.6A68.92,68.92,0,0,1,209.53,82.69Z"/><path class="cls-2" d="M1423.52,948.79V893.53A69.55,69.55,0,0,0,1354,824H1122.5A69.55,69.55,0,0,0,1053,893.53v55.25h370.56Z" transform="translate(-912.34 -741.3)"/><rect class="cls-3" x="113.15" y="162.73" width="421.61" height="48.78" rx="9.07" ry="9.07"/><path class="cls-4" d="M94,307H557.14a66.93,66.93,0,0,1,66.93,66.93V525a22.52,22.52,0,0,1-22.52,22.52h-552A22.52,22.52,0,0,1,27.05,525v-151A66.93,66.93,0,0,1,94,307Z"/><path class="cls-5" d="M939.39,1252.15v48.72a19.73,19.73,0,0,0,19.73,19.73h557.56a19.73,19.73,0,0,0,19.73-19.73v-48.72h-597Z" transform="translate(-912.34 -741.3)"/><rect class="cls-6" x="17.85" y="456.85" width="615.43" height="55.28" rx="10.28" ry="10.28"/><circle class="cls-3" cx="331.69" cy="310.85" r="38.6"/><circle class="cls-7" cx="425.44" cy="310.85" r="38.6"/><circle class="cls-3" cx="519.18" cy="310.85" r="38.6"/><circle class="cls-3" cx="144.2" cy="310.85" r="38.6"/><circle class="cls-7" cx="237.94" cy="310.85" r="38.6"/><path class="cls-8" d="M1575.68,1123.4a75.9,75.9,0,0,0-75.88-75.12H988.27a75.92,75.92,0,0,0-75.93,75.92v2.48h0a37,37,0,0,0,74,0h0.19a37,37,0,0,1,73.66,0l0.19,53a37,37,0,0,0,74,0l0.19-53a37.11,37.11,0,0,1,36.83-33.65h0a37.11,37.11,0,0,1,36.83,33.65h0.19a37,37,0,0,0,74,0h0.19a37.11,37.11,0,0,1,36.83-33.65h0a37.11,37.11,0,0,1,36.83,33.65h0.17V1130h0v99a37,37,0,0,0,74,0V1126.68h0.17a37,37,0,0,1,73.66,0h0.17v0.9a35.69,35.69,0,0,0,71.37,0v-4.18h0Z" transform="translate(-912.34 -741.3)"/><circle class="cls-3" cx="232.09" cy="38.6" r="38.6"/><circle class="cls-2" cx="325.89" cy="38.6" r="38.6"/><circle class="cls-3" cx="419.69" cy="38.6" r="38.6"/><path class="cls-9" d="M1455.47,867.29a90,90,0,0,0-89.94-87.38h-258.8A90.07,90.07,0,0,0,1016.66,870v74.5a43.89,43.89,0,1,0,87.79,0V872.91h0.2A44,44,0,0,1,1148.35,833h0A44,44,0,0,1,1192,872.91h0.23a43.87,43.87,0,0,0,87.74,0h0.23a43.87,43.87,0,0,1,87.38,0h0.23a43.87,43.87,0,0,0,87.74,0h0v-5.63h-0.14Z" transform="translate(-912.34 -741.3)"/></svg>