<svg id="Layer_1" data-name="Layer 1" xmlns="http://www.w3.org/2000/svg" viewBox="0 0 280.37 621.14"><defs><style>.cls-1{fill:#5fbfe5;}.cls-2{fill:#e1ab00;}.cls-3{fill:#ff49c3;}.cls-4{fill:#c79c4b;}.cls-5{fill:#9c7248;}.cls-6{fill:#e7ca00;}.cls-7{fill:#e06687;}</style></defs><title>food_07</title><path class="cls-1" d="M82.19,7.71h116a70.75,70.75,0,0,1,70.75,70.75V400.4a58.82,58.82,0,0,1-58.82,58.82H72.24a60.81,60.81,0,0,1-60.81-60.81v-320A70.75,70.75,0,0,1,82.19,7.71Z"/><path class="cls-2" d="M3079.2,912.71v150.56a40.9,40.9,0,0,0,40.9,40.9h175.7a40.9,40.9,0,0,0,40.9-40.9V912.71H3079.2Z" transform="translate(-3067.76 -644.94)"/><rect class="cls-3" x="11.44" y="190.24" width="257.49" height="166.14"/><path class="cls-4" d="M3169.52,1090.32v146.1a29.75,29.75,0,0,0,29.67,29.67h17.51a29.75,29.75,0,0,0,29.67-29.67v-146.1h-76.84Z" transform="translate(-3067.76 -644.94)"/><rect class="cls-5" x="101.76" y="431.12" width="76.84" height="53.43"/><path class="cls-6" d="M3079.2,1018a38,38,0,0,0,38,38h181.45a38,38,0,0,0,38-38v-55.3H3079.2V1018Z" transform="translate(-3067.76 -644.94)"/><rect class="cls-7" x="11.44" y="127.91" width="257.49" height="96.45"/><path class="cls-1" d="M70.81,0H209.56a70.81,70.81,0,0,1,70.81,70.81v42.91a0,0,0,0,1,0,0H0a0,0,0,0,1,0,0V70.81A70.81,70.81,0,0,1,70.81,0Z"/><path class="cls-1" d="M3292.06,767v88.26a28.12,28.12,0,0,0,28,28h0a28.12,28.12,0,0,0,28-28V758.66h-56.07" transform="translate(-3067.76 -644.94)"/><path class="cls-1" d="M3236,740.66V779.6a28.12,28.12,0,0,1-28,28h0a28.12,28.12,0,0,1-28-28V740.66" transform="translate(-3067.76 -644.94)"/><path class="cls-1" d="M3123.84,733.47v38.95a28.12,28.12,0,0,1-28,28h0a28.12,28.12,0,0,1-28-28V733.47" transform="translate(-3067.76 -644.94)"/><path class="cls-7" d="M3123.84,813.84V774.89a28.12,28.12,0,0,1,28-28h0a28.12,28.12,0,0,1,28,28v38.95" transform="translate(-3067.76 -644.94)"/><path class="cls-7" d="M3236,795.93V757a28.12,28.12,0,0,1,28-28h0a28.12,28.12,0,0,1,28,28v38.95" transform="translate(-3067.76 -644.94)"/></svg>