<svg xmlns="http://www.w3.org/2000/svg" viewBox="0 0 145.57 196.36"><defs><style>.cls-1{isolation:isolate;}.cls-2{fill:#49494b;}.cls-3{opacity:0.3;}.cls-10,.cls-15,.cls-17,.cls-18,.cls-3,.cls-5,.cls-7{mix-blend-mode:multiply;}.cls-4,.cls-5{fill:#ef8400;}.cls-15,.cls-5{opacity:0.33;}.cls-10,.cls-6,.cls-7{fill:#f9b407;}.cls-7{opacity:0.75;}.cls-8{fill:#2c2c2e;}.cls-14,.cls-22,.cls-9{fill:#fff;}.cls-9{opacity:0.1;}.cls-10{opacity:0.25;}.cls-11{fill:#cdcfd0;}.cls-12{fill:#8a8c8d;}.cls-13{fill:#a9aaac;}.cls-14{opacity:0.28;}.cls-15{fill:#d4760a;}.cls-16{fill:#272729;}.cls-17{opacity:0.24;}.cls-18{opacity:0.4;}.cls-19{fill:#fecf0a;}.cls-20{fill:#ffe100;}.cls-21{opacity:0.19;}.cls-21,.cls-24{mix-blend-mode:overlay;}.cls-23{opacity:0.27;}.cls-24{opacity:0.09;}.cls-25{fill:#f0bd00;}</style></defs><title>artefact_12</title><g class="cls-1"><g id="Layer_1" data-name="Layer 1"><path class="cls-2" d="M-2842.49,4306.61c8.36,5.32,13.91-8.32,5-9.08C-2841.83,4297.16-2841.27,4302.25-2842.49,4306.61Z" transform="translate(2978.25 -4117.39)"/><g class="cls-3"><path class="cls-2" d="M-2832.81,4302.5c1.1-3.57-5.34-6.25-7.16-4.92-4.4,3.19-2.58,9.81,2.31,10.43,0-2.24,1.82-12.79,4.85-5.51C-2832.71,4302.19-2833.59,4300.63-2832.81,4302.5Z" transform="translate(2978.25 -4117.39)"/></g><path class="cls-4" d="M-2874.48,4269.2c2.61-5.28,11.18-5.9,15.63-3.62,7.29,3.74,10.72,15.92,11.63,23.28,0.39,3.16-3.21,25.26,3.64,24.88,3.18-.17,3.22-4,3.9-6.72,3.09-12,4.9-33.15-3.16-43.79-8.34-11-26.21-5-31.64,6h0Z" transform="translate(2978.25 -4117.39)"/><path class="cls-4" d="M-2842.27,4282.29c-1.22-5.59-4.6-11.46-11.11-10.71,3.05,4.67,4.65,19.09,8.25,21.21,5.84,3.44,3.21-8.87,2.85-10.5C-2844.46,4272.31-2839.28,4296-2842.27,4282.29Z" transform="translate(2978.25 -4117.39)"/><path class="cls-5" d="M-2844.9,4260.55c-9.65-7.59-24.71-1.18-29.58,8.65,2-4.05,9.9-5.88,13.72-4.7s4.39,5.12,7.37,7.08c1.36,0.89,3.54-.46,5.14.91,4.64,4,10.62,27.06,1.24,19,0.22,4.77-1.81,10.73-.76,15.31-0.29-1.28,7.06,7.15,3.64,6.55,3.73,0.65,3.64-3.23,4.45-6.35,3-11.6,5.76-37.83-5.22-46.48h0Z" transform="translate(2978.25 -4117.39)"/><path class="cls-4" d="M-2847.76,4306.82a9,9,0,0,0,3.64,6.55c0.21-2.72-.54-6-3.64-6.55C-2847.64,4308.53-2846,4307.13-2847.76,4306.82Z" transform="translate(2978.25 -4117.39)"/><path class="cls-6" d="M-2837.85,4268.86c-2.37-18.46-21.21-30.44-38.06-20.25-8.91,5.39-17.95,15.77-22,25.35-3.31,7.72-.95,29.92,9.44,17.11,7-8.6,7.72-19.92,17.34-27.26,7.94-6.07,18.69-7.39,25.88.49,11.36,12.44,6,34.63,3.18,49.34,10.23-6.44,5.43-35.71,4.27-44.77h0Z" transform="translate(2978.25 -4117.39)"/><path class="cls-7" d="M-2891.75,4271.54c4.32-10,8.34,3.42,3.69,9.89-2.41,3.35-6.57,6.33-8.75,1.78C-2898.46,4279.8-2893.89,4274.06-2891.75,4271.54Z" transform="translate(2978.25 -4117.39)"/><path class="cls-8" d="M-2891.72,4271.93c5.38-10.22,8,5.78,2.63,10.47C-2898.65,4290.71-2896.26,4277-2891.72,4271.93Z" transform="translate(2978.25 -4117.39)"/><path class="cls-2" d="M-2892.06,4271.36c5.37-10.22,8,5.78,2.62,10.47C-2899,4290.14-2896.59,4276.46-2892.06,4271.36Z" transform="translate(2978.25 -4117.39)"/><path class="cls-9" d="M-2881.9,4290.15a36.5,36.5,0,0,0,6.46-.45C-2873.28,4289.18-2877,4291.4-2881.9,4290.15Z" transform="translate(2978.25 -4117.39)"/><path class="cls-10" d="M-2843.18,4263.17c-6.43-8.47-15.57-8.85-24.91-6.16-4.84,1.4-21.41,6.93-11.87-5.28-5.38,4.89-35.24,38.58-15.15,43.07,6.95,1.56,9-9.56,11.34-14.2,3.59-7.23,8.39-14.82,15.61-18.88,33.08-18.58,29.23,35.11,26,51.9,4.93-3.19,4.73-11.76,5.14-16.91a125.47,125.47,0,0,0,.1-17.81c-0.18-2.88.15-7.4-1-10-1.44-3.41-2.62-2.13-5.34-5.69C-2850,4254.14-2841.2,4265.77-2843.18,4263.17Z" transform="translate(2978.25 -4117.39)"/><path class="cls-6" d="M-2879.27,4251.1c-2.63,2.36-4.35,6.47-1.22,8.34s11.68-4.1,14.59-4.92a21.9,21.9,0,0,1,13.9.22c3.86,1.48,10.8,12.07,13.83,12-3.5-18.86-25.83-29.5-41.09-15.69h0Z" transform="translate(2978.25 -4117.39)"/><path class="cls-11" d="M-2963.33,4175.52v-46.43c-4.94,13.51-11.09,27.55-14,41.68C-2979.61,4182.25-2973,4177.29-2963.33,4175.52Z" transform="translate(2978.25 -4117.39)"/><path class="cls-12" d="M-2961.73,4124.75c-5.37,9.63-1.59,27.76-1.59,38.3,0,7.63-.08,13,2.25,20.15,12.38,38,37.94,72.38,71,94.8,4.26-6.34-2.2-8.69-6.4-12.46a161.77,161.77,0,0,1-21.67-23.94C-2943.27,4207.76-2956.15,4166.1-2961.73,4124.75Z" transform="translate(2978.25 -4117.39)"/><path class="cls-13" d="M-2963.33,4175.36c-5,.91-10,1.88-14.92,2.7,5.65,17.53,14.65,34.49,24.72,49.83,5.61,8.54,52.48,66.29,63.45,49.94C-2924.74,4254.33-2953,4216.35-2963.33,4175.36Z" transform="translate(2978.25 -4117.39)"/><path class="cls-14" d="M-2875.19,4248.6c-12.68,9,5.3.49,8.29-.24a22.43,22.43,0,0,1,14.24,1.46c3.41,1.52,7.37,7.78,10.59,8.27,0.89,0.13-6.79-8.2-7.37-8.57-7.43-4.78-18.18-6.17-25.76-.91h0Z" transform="translate(2978.25 -4117.39)"/><path class="cls-15" d="M-2844.44,4294.7c6.06,0,5.17,12.61-2.4,10.24Z" transform="translate(2978.25 -4117.39)"/><path class="cls-2" d="M-2885.1,4289.23c6.73,3.15,35.77,20.91,42.32,14.84,9.93-9.21-31.87-23.43-36.61-28C-2881.44,4280.36-2883.26,4284.81-2885.1,4289.23Z" transform="translate(2978.25 -4117.39)"/><path class="cls-16" d="M-2880,4289.88c1.54,0-4.07,0-3.76-.76-0.41,1.41,16-1.85,14.08-3.8C-2868,4287.08-2879,4289.88-2880,4289.88Z" transform="translate(2978.25 -4117.39)"/><path class="cls-16" d="M-2878.27,4291.45c-2.07,0-1.19-.51-1.21-0.51,1.68,0.2,12.39-3.49,11.14-4.37C-2866.05,4288-2877.34,4291.45-2878.27,4291.45Z" transform="translate(2978.25 -4117.39)"/><path class="cls-16" d="M-2874.51,4293.23c-0.87,0,10-4.62,8.53-5.52C-2863.79,4289-2873.16,4293.23-2874.51,4293.23Z" transform="translate(2978.25 -4117.39)"/><path class="cls-16" d="M-2871.14,4294.17c0.67,0,7.53-5.49,6.94-5.65C-2863.34,4288.81-2869,4294.17-2871.14,4294.17Z" transform="translate(2978.25 -4117.39)"/><path class="cls-16" d="M-2868.53,4295.5c0.67,0,7.19-5.54,6.64-5.75C-2861,4290.16-2866.56,4295.5-2868.53,4295.5Z" transform="translate(2978.25 -4117.39)"/><path class="cls-16" d="M-2866,4296.48c0.82,0,6.68-5.67,6.57-5.68C-2859.08,4290.83-2863.56,4296.48-2866,4296.48Z" transform="translate(2978.25 -4117.39)"/><path class="cls-16" d="M-2862.06,4298.15c1.83,0,4.79-5.27,5.75-5.81C-2856.68,4292.57-2858.64,4298.15-2862.06,4298.15Z" transform="translate(2978.25 -4117.39)"/><path class="cls-16" d="M-2858.33,4299.37c1.39,0,3.86-5.09,4.51-5.5C-2853.93,4294-2855.34,4299.37-2858.33,4299.37Z" transform="translate(2978.25 -4117.39)"/><path class="cls-16" d="M-2854.14,4300.12c-0.57,0,4.11-3.55,4.11-3.79C-2850,4297.79-2853.36,4300.12-2854.14,4300.12Z" transform="translate(2978.25 -4117.39)"/><g class="cls-17"><path class="cls-2" d="M-2846.84,4292.88c-10.36-4.74-24.24-8.76-32.55-16.85-2.05,4.33-3.87,8.78-5.71,13.2,0.2,0,10.23-8.47,11.15-3.89,0.48,2.39-6.91,4.88-8.76,4.39,3.67,1,9.28-.65,12.57-2.2-1.4.66-6.44,4.93-8.82,3.61,3.61,2,8.14-3,11.32-2,1.26,0.38-6.16,3.93-6.16,3.92,0.41,1.08,7.71-2,8.87-2.69-0.53.33-3,3-3.54,2.83,0,0,5.63-2.15,5.56-1.73-0.47,2.75-4.8,2.37-6.25,3.9,0.79-.83,5.85-0.45,6.9-2a23.79,23.79,0,0,1-3.77,2.84c-0.25.21,7.11-4,7-4.09,1.53,0.64-2.17,5.68-2.42,5.63,2.44,0.5,4.47-4,7-3.57s-3.3,4.74-3,4.41a53.63,53.63,0,0,1,6.46-2.24c0.45,0-3.49,3.83-3.49,3.68-0.32-7.63,20-1.46,7,4.75,9.59,1.39,6.29-9.27.64-11.86h0Z" transform="translate(2978.25 -4117.39)"/></g><g class="cls-18"><path class="cls-2" d="M-2846.84,4292.88c-10.36-4.74-24.24-8.76-32.55-16.85-1.61,3.42-3.07,6.92-4.53,10.4,6.71-9.38,13.54-2.07,21.36,1.59,5.65,2.64,18.13,4.14,21.15,9.75-0.56-2.47-3.39-4-5.43-4.89C-2852.32,4290.37-2843.18,4294.55-2846.84,4292.88Z" transform="translate(2978.25 -4117.39)"/></g><path class="cls-9" d="M-2877.9,4291.86c2.38,0,4.77-1.3,7-1.29C-2873.08,4290.56-2874.86,4293.18-2877.9,4291.86Z" transform="translate(2978.25 -4117.39)"/><path class="cls-9" d="M-2874.36,4293.44a28.56,28.56,0,0,0,4.91-1C-2867.34,4291.79-2871.51,4293.9-2874.36,4293.44Z" transform="translate(2978.25 -4117.39)"/><path class="cls-9" d="M-2872.24,4294.58c0.47,0.23,7.4-2.18,7.44-2.41-0.31,1.83-6.16,3.05-7.44,2.41h0Z" transform="translate(2978.25 -4117.39)"/><path class="cls-9" d="M-2866.25,4297c0.62-.32,6.11-2.13,6.08-2.63C-2860,4296.39-2864.94,4297.57-2866.25,4297Z" transform="translate(2978.25 -4117.39)"/><path class="cls-9" d="M-2862.31,4298.52c0.59-.32,5.93-2.2,5.94-2.63C-2856.39,4297.7-2861,4299.53-2862.31,4298.52Z" transform="translate(2978.25 -4117.39)"/><path class="cls-9" d="M-2859.12,4299.37c1.08-.28,5.49-0.45,6.16-1.24a3.33,3.33,0,0,0-1.76,2c-0.66-2.29,11.33,0,6,2.87C-2851.51,4304.53-2858.39,4299.07-2859.12,4299.37Z" transform="translate(2978.25 -4117.39)"/><path class="cls-19" d="M-2859.51,4258.73c-9.06,1-15.71,7.81-20.44,15.07-4,6.14-5.75,17.29-12.11,21.14,12.52-2.1,14.39-24.4,25-30.88,15.7-9.61,27.24,5.94,28.23,20.7,0-12-6.08-27.69-20.65-26h0Z" transform="translate(2978.25 -4117.39)"/><path class="cls-20" d="M-2885.62,4284.65c5.32-4,6.29-6.35,9.89-11.79C-2881.44,4274.94-2883.3,4279.28-2885.62,4284.65Z" transform="translate(2978.25 -4117.39)"/><path class="cls-20" d="M-2855.21,4261.12l2.59,0.7c-3.1-5.83-11.41-2.68-15.87.05,5,0.95,8.22-1.65,13.28-.75h0Z" transform="translate(2978.25 -4117.39)"/><g class="cls-21"><path class="cls-22" d="M-2952.82,4203.56c-6.56-3.68-13.12-7.35-19.73-10.93,3.07,7,6.9,19.65,13.3,23.45,4.26,2.53,10.87,3.25,15.66,4.69q-5-8.37-9.23-17.21C-2959.06,4200.07-2950.3,4208.88-2952.82,4203.56Z" transform="translate(2978.25 -4117.39)"/><path class="cls-22" d="M-2928.23,4242.71l-15-.45c3.78,4.76,6.83,9.29,12.47,10.83,3.61,1,8.45.48,12.23,0.69C-2921.88,4250.23-2925.13,4246.52-2928.23,4242.71Z" transform="translate(2978.25 -4117.39)"/><path class="cls-22" d="M-2903.64,4267.49l-20-4.93c8.14,7.82,14.14,8.4,24.9,9.48C-2900.35,4270.39-2902.2,4269.26-2903.64,4267.49Z" transform="translate(2978.25 -4117.39)"/></g><g class="cls-23"><path class="cls-22" d="M-2963.33,4151.63l-6.78-3.47c-0.49,1.42-4.29,9.93-3.79,11.34,0.76,2.12,8.83,5.51,10.57,6.63v-14.49Z" transform="translate(2978.25 -4117.39)"/></g><g class="cls-24"><path class="cls-22" d="M-2901,4261.27c-30.25-31.77-48.15-71.22-56.92-114.24,1.29,23.59,6.78,44.33,17.67,65.24,9.23,17.72,21.27,38.83,39.25,49h0Z" transform="translate(2978.25 -4117.39)"/></g><path class="cls-25" d="M-2959.07,4128.38c6.89,1.72,8.84-5.6,8.15-11-0.11,6.15.78,11.37,8,11.76-8.11-1.12-7.34,3.39-8.62,9.48C-2950.14,4131.92-2952.49,4128.63-2959.07,4128.38Z" transform="translate(2978.25 -4117.39)"/></g></g></svg>