<svg xmlns="http://www.w3.org/2000/svg" xmlns:xlink="http://www.w3.org/1999/xlink" viewBox="0 0 125.9 185.58"><defs><style>.cls-1{isolation:isolate;}.cls-2{fill:#f1fafe;}.cls-13,.cls-15,.cls-3{mix-blend-mode:multiply;}.cls-4{fill:#e7f6fd;}.cls-5{fill:#9adbf8;}.cls-6,.cls-9{fill:#272929;}.cls-7{fill:url(#linear-gradient);}.cls-17,.cls-8{fill:#f1cb0c;}.cls-17,.cls-9{mix-blend-mode:screen;}.cls-10{fill:url(#linear-gradient-2);}.cls-11{fill:#fff78f;}.cls-12{fill:url(#linear-gradient-3);}.cls-13,.cls-16{fill:#bbc7d4;}.cls-14{fill:#fff;}.cls-15{opacity:0.53;}</style><linearGradient id="linear-gradient" x1="-3122.48" y1="4000.43" x2="-3093.76" y2="4000.43" gradientUnits="userSpaceOnUse"><stop offset="0" stop-color="#f3f3f3"/><stop offset="0.53" stop-color="#bbc7d4"/><stop offset="1" stop-color="#6c6c6c"/></linearGradient><linearGradient id="linear-gradient-2" x1="-3122.38" y1="4000.05" x2="-3093.76" y2="4000.05" xlink:href="#linear-gradient"/><linearGradient id="linear-gradient-3" x1="-3130.6" y1="3938.68" x2="-3083.09" y2="3979.26" xlink:href="#linear-gradient"/></defs><title>artefact_07</title><g class="cls-1"><g id="Layer_1" data-name="Layer 1"><path class="cls-2" d="M-3123.83,4068.65c-1.85,5.6-16.91,11-7,18.38,4.53,3.4,8.6-2.22,13.22-1.17,5.24,1.18,5.25,6.32,11.71,6s8.71-6.25,14.13-7.76c5.77-1.6,10.64,2.27,16.83-1.1,5.86-3.19,6.58-9.33,11-13.66s10.83-3.82,15.8-7.45c5.31-3.88,7.9-10.47,2.47-15.49-1.58-1.46-11.94-4.82-13.49-4-1.72.86-4.15,7.54-5.42,9.25C-3078.64,4070.41-3102,4074.42-3123.83,4068.65Z" transform="translate(3168.6 -3906.5)"/><g class="cls-3"><path class="cls-4" d="M-3051.4,4044.3c-9.74,0-4.81-3.29-9.89,2.26-3.88,4.24-6.31,9.23-10.84,13.11a48,48,0,0,1-22.25,10.69,59.43,59.43,0,0,1-17.15.59c-5.86-.59-10.32-4-13.85.73,8.33,1.91-.61,5.88,1.82,9.22,1.64,2.26,7.61-6.74,11.32-5.29,4.68,1.84.57,12.73,7.21,7.95,3.67-2.65.81-9.85,8.71-9.72,3.88,0.06,7.74,8.1,10.14,7,4.21-2-2.75-12,6.93-12.2,0.64,0,7.56,3.6,7.1,3.88,2.84-1.76-.67-3.31,0-5.93,1.73-6.57,5.59-7.15,12.07-8.69,1.6-.38,7,0.47,7.14-2.1,0.16-2.79-4.2-1.12-4.43-2.49-0.62-3.66-2.13-8.1,5.71-7.16,6.86,0.82,8.14,7.07,4.28,11.91-3.71,4.65-11.62,4.37-16,8.17s-5.32,9.7-10.32,13.3c-7.25,5.23-11.78.83-19.21,2.43-4.38.94-5.71,5.88-10,7.3-7.48,2.49-7.36-3.66-12.4-5.27-5.8-1.86-12.35,4.25-18-.32,2.78,8.37,8.74,1.51,13.77,2.39,4.55,0.8,5.91,4.66,10.33,5.77,7.11,1.78,9.34-4.43,14.62-6.55,4.55-1.82,9,.48,14-0.39,11.52-2.05,13.15-14.4,22.75-19.19,5.74-2.87,13.34-3.13,14.88-10.95A8.53,8.53,0,0,0-3051.4,4044.3Z" transform="translate(3168.6 -3906.5)"/></g><path class="cls-5" d="M-3057.34,4056.26c0.24,0-8.11-1.63-6.18-3.27,0.09-.08,9.14,4,8.83,2.42Q-3055.36,4056.92-3057.34,4056.26Z" transform="translate(3168.6 -3906.5)"/><path class="cls-5" d="M-3072.21,4070.86c-0.56,0-5.85-6.42-4.49-7.09C-3075.69,4063.27-3071.57,4070.86-3072.21,4070.86Z" transform="translate(3168.6 -3906.5)"/><path class="cls-5" d="M-3087.88,4079.34c-0.94,0-3.52-9-2.82-9.24C-3089.56,4069.72-3086.9,4079.34-3087.88,4079.34Z" transform="translate(3168.6 -3906.5)"/><path class="cls-5" d="M-3107.54,4083.84c-1.09,0-1.18-12.69-.28-12.71a25.82,25.82,0,0,1,.28,12.71h0Z" transform="translate(3168.6 -3906.5)"/><path class="cls-5" d="M-3121.88,4080.13c-1.15,0,4.85-9.64,5.89-8.9C-3115.41,4071.63-3120.75,4080.13-3121.88,4080.13Z" transform="translate(3168.6 -3906.5)"/><path class="cls-6" d="M-3102.58,3991.7c-19.51,1.32-31.74,18.36-30.45,37.18,0.61,8.91,2.21,26.79,8,34.23,4.29,5.52,13.07,6,20.37,5.82,18.55-.58,47.46-16.48,42.91-38.3C-3065.86,4010.9-3080.2,3990.13-3102.58,3991.7Z" transform="translate(3168.6 -3906.5)"/><g class="cls-3"><path class="cls-6" d="M-3102.58,3991.7c-5.69.42-27.36,7.29-25.82,15.44,1.39,7.3,20.59,3.17,24.26,2.42,9.39-1.91,17.48-3.42,24.11,5.22,24.74,32.22-33.42,66.76-49.4,33.92,1.39,5.29,2.43,14,6.73,17.36,5,3.87,16.72,3.26,22.35,2.54,13.33-1.68,36.23-13.54,39.4-28.53C-3056.22,4017.72-3080.78,3990.17-3102.58,3991.7Z" transform="translate(3168.6 -3906.5)"/></g><path class="cls-7" d="M-3094.06,3996.61c2.62,9.57-25.08,17.23-28.19,7.66-3-9.31,25.52-17.41,28.19-7.66h0Z" transform="translate(3168.6 -3906.5)"/><path class="cls-8" d="M-3086.46,4064.42a44.69,44.69,0,0,1-24.11,4.28c-2.1-.19-11.55-3.78-13.23-3.06-7.3,3.12,10.47,8.11,12.64,8.29,12.56,1,25.55-2.83,36-9.66,5.74-3.74,12-8.87,14.88-15.28,0.73-1.61,4-9.66-.55-9.45-2.73,11.4-16.13,20.08-25.68,24.89h0Z" transform="translate(3168.6 -3906.5)"/><path class="cls-9" d="M-3122.05,4014.72c-2,8.54-2.55,18.8,1.34,26.89,4.08,8.49,10.12,7.61,16.71,12.17,1.89,1.31,4.82.42,2.59,2.77-4.84,5.13-19.21-4-22.26-7.29-4.68-5.13-6.73-12.18-7-19-0.15-4.37,0-9.9,3.06-13.41C-3127,4016.24-3122.3,4011-3122.05,4014.72Z" transform="translate(3168.6 -3906.5)"/><path class="cls-9" d="M-3124.54,4018c-0.35,2-.25,15.61-1.66,15.52C-3135.32,4032.91-3124.17,4013.77-3124.54,4018Z" transform="translate(3168.6 -3906.5)"/><g class="cls-3"><path class="cls-10" d="M-3094.06,3996.61c-2.69-9.83-24.23-1.8-27.62,4.34,3.12-1.89,7.8,2.21,11.42,2.15,1.29,0,10.29-3.59,10.26-3.64,4.07,6.16-18.1,7.95-19.84,7.52,5.85,3.18,28.47-.54,25.79-10.37h0Z" transform="translate(3168.6 -3906.5)"/></g><path class="cls-11" d="M-3154.08,3944.85l2.92,0.41-2-1.36,9.47-.8-9.47-.81,2-1.36-2.92.41,3.32-6.37-4.54,5.31-0.82-9.62-0.83,9.62-4.54-5.31,3.32,6.37-2.93-.41,2,1.36-9.47.81,9.47,0.8-2,1.36,2.93-.41-3.32,6.37,4.54-5.32,0.83,9.63,0.82-9.63,4.54,5.32Z" transform="translate(3168.6 -3906.5)"/><path class="cls-12" d="M-3099.39,3919.16c-9.51-15-32.22-16-45.86-6.35-3.62,2.57-21.16,30.27-10.77,31.5,3.53,0.42,3.18-5.5,4.09-7.51,2.78-6.15,5.18-11.49,11-15.48,13.3-9.1,30.53-5,35.7,10.82a27.93,27.93,0,0,1-2,22.18c-3.17,5.55-11.37,8.37-13.41,14.16-1.82,5.17,2.11,12.43,3.77,17.18,1,2.73,2.58,5.81,3,8.67,0.32,1.95-2.75,4-1.85,5.22,4.18,5.77,15.13-.17,13.29-5.87q-3.42,1-3.62-1.87-0.91-2.76-1.8-5.52c-1.25-3.88-4.22-9.54-3.51-13.71,1.42-8.41,14.12-12.91,17.17-21.73,3.67-10.59.58-22.49-5.23-31.67h0Z" transform="translate(3168.6 -3906.5)"/><path class="cls-13" d="M-3115.24,3980.58c-6.36-15.61,10.18-17.91,14-31.61,3.28-11.82-.14-26.6-11.69-32.59-13.57-7-29.44-1.54-37.1,11-2.16,3.53-5,8.72-5.6,12.84-0.66,4.47-.82,5.13,2.78.64,1.68-2.1,1.86-7.07,3.28-9.7a27.77,27.77,0,0,1,14.39-12.83c14-5.52,27.57,1.83,30.73,16.5a27.76,27.76,0,0,1-2.77,19.47c-3.24,5.62-11.35,8.33-13.41,14.16-2.58,7.33,4.76,20,7.12,26.7,4.29-2.56-.5-11.66-1.7-14.59h0Z" transform="translate(3168.6 -3906.5)"/><path class="cls-14" d="M-3111.79,3914.66a27.55,27.55,0,0,1,10.61,11.09c1.76,3.42,4.41,27.14,1.11,27.31,9.46-.48,3.07-26.75.77-30.41-1.95-3.11-5.53-7.74-9.34-8.67C-3109.17,3913.85-3114.44,3912-3111.79,3914.66Z" transform="translate(3168.6 -3906.5)"/><g class="cls-15"><path class="cls-16" d="M-3111.5,3909.06l-6.07,8.72a21.17,21.17,0,0,1,8.94,7.38C-3102.88,3916.89-3099.59,3914-3111.5,3909.06Z" transform="translate(3168.6 -3906.5)"/><path class="cls-16" d="M-3140.84,3910.17l-12.26,17.6c-1.5,2.15-9.62,20.21-1.36,15.85,3.85-2,5.52-14.54,9.08-18.38,3.39-3.65,7.88-5.26,11.19-8.65,2.71-2.77,4.71-6.75,6.93-9.94A37.86,37.86,0,0,0-3140.84,3910.17Z" transform="translate(3168.6 -3906.5)"/><path class="cls-16" d="M-3096.21,3925.06c-2.14,3.07-5.29,6.27-6.74,9.68-2.43,5.71-.68,12.44-3.9,18.63-6.12,11.77-18.46,12.42-11.59,27.88l16.6-23.83C-3093.76,3945.83-3089.46,3940-3096.21,3925.06Z" transform="translate(3168.6 -3906.5)"/><path class="cls-16" d="M-3105.53,3993.29q-1.45-4.35-2.85-8.72c-1.61,2.31-3.64,4.57-4.93,7.07-0.31.6-1.82,6.69-2,6.05,2.83,10.91,21.19-4.94,9.76-4.4C-3105.9,3992.2-3103.08,3993.18-3105.53,3993.29Z" transform="translate(3168.6 -3906.5)"/></g><g class="cls-3"><path class="cls-8" d="M-3060.79,4039.54c-2.87,12-17.77,21.62-28,25.9a45.59,45.59,0,0,1-25.27,2.82c-1.54-.25-9.76-3.53-10.78-2.07a46,46,0,0,0,21.7,3.8,48.12,48.12,0,0,0,15.2-3.58c4-1.67,9.83-7.89,13.84-8.16,1.11-.07-2.61,4.3-2.58,4.27-3.16,3.6-8.38,5.91-12.8,7.44-10.84,3.76-24.89,4.23-35.33-1.11,6.14,9.84,28.74,4.62,36.6,1.86,9.41-3.3,19-9,25-17.12,1-1.35,8.92-14.34,2.47-14C-3061.67,4043.24-3056.9,4039.36-3060.79,4039.54Z" transform="translate(3168.6 -3906.5)"/></g><path class="cls-17" d="M-3120.11,4069s10.81,2.65,19,1.41S-3108.25,4074.83-3120.11,4069Z" transform="translate(3168.6 -3906.5)"/></g></g></svg>