<svg xmlns="http://www.w3.org/2000/svg" viewBox="0 0 274.8 106.66"><defs><style>.cls-1{isolation:isolate;}.cls-2,.cls-3{fill:#f1cb0c;}.cls-3{mix-blend-mode:multiply;}.cls-4{fill:#272929;}.cls-5{fill:#e4e5e6;}.cls-6{fill:#3f4141;}.cls-7{fill:none;}.cls-8,.cls-9{fill:#fff;}.cls-9{opacity:0.36;mix-blend-mode:screen;}</style></defs><title>artefact_08</title><g class="cls-1"><g id="Layer_1" data-name="Layer 1"><path class="cls-2" d="M-2742.39,4033.42c8.25-.32,19.67-5.09,22.35-13.88,2.43-8-3-10.61-10.29-10.1-13,.9-27.25,8.95-38.94,14.4,6.75,7.24,17.26,10,26.88,9.58h0Z" transform="translate(2990.39 -3947.75)"/><path class="cls-3" d="M-2745.9,4032.89c11.83-.45,27.78-20.19,8.59-18.57-9.91.84-20.64,6.94-29.56,11.1,5.3,5.61,13.45,7.77,21,7.48h0Z" transform="translate(2990.39 -3947.75)"/><path class="cls-2" d="M-2969.7,4034.48c13.72,2,27.32-4.93,35.86-15.43-13.75-.9-32.22-14.11-45.54-8.39-16.25,7-.74,21.84,9.68,23.82C-2948,4037.68-2986.43,4031.29-2969.7,4034.48Z" transform="translate(2990.39 -3947.75)"/><path class="cls-3" d="M-2962.78,4034.56c11.09,1.63,22-4,28.95-12.46-11.12-.64-26.15-11.45-36.94-6.68-12.89,5.69-.23,17.57,8,19.14C-2945.26,4037.14-2976.29,4032-2962.78,4034.56Z" transform="translate(2990.39 -3947.75)"/><path class="cls-4" d="M-2761.35,4033.42c-41-18.52-56.85-111.14-117.49-76-21.29,12.33-30.44,36-44,55.15-14.54,20.55-42,33.89-65,17,11.53,17.85,38,23.52,57.55,24.65,28.69,1.66,55.89-9,84.32-9.87,26.28-.78,52.37,4.69,78.62,3.68,16.95-.65,50.94-6.16,51.34-29.32-5.57,17.81-30.3,21.5-45.35,14.7h0Z" transform="translate(2990.39 -3947.75)"/><path class="cls-5" d="M-2950.12,4035c26.15-8.13,34.81-38.68,50.41-58.12,19-23.71,50.36-36.66,76.37-14.27,21,18,31.21,45.63,52,63.89,9.71,8.51,22,12,34.75,9.06,7.67-1.78,32-17.43,15.23-24.86,5.08,4.11.34,11.72-3,15.17-6.75,7-17.25,8.56-26.47,7.07-8.82-1.42-15.25-5.76-21.38-11.8-24.77-24.41-37.24-67.81-76.09-72.89-45.53-6-61.22,40.72-84.7,69.64-6.47,8-15.05,14.39-25.35,16.34-8.6,1.62-21,.07-26-8.27-3.8-6.33-1.58-12.14,4.93-15.32-12.68,2.88-14.93,15-4,21.7,9.65,5.93,22.81,5.42,33.29,2.65C-2925.29,4027.3-2968.46,4039.85-2950.12,4035Z" transform="translate(2990.39 -3947.75)"/><path class="cls-6" d="M-2903.29,3987.12c8.23-13.15,20.94-25.25,35.9-30,25.29-8.1,44.86,7.13,57.84,27.29,3.34,5.19,15.49,18.88,14.85,25-0.74,7.15-9.52,7.12-15.3,7.6-12.72,1.06-25.56.19-38.31,1.08-4,.28-20-0.34-23,3.47,0.4-.5,12.7.77,14,0.81a282.65,282.65,0,0,1,31.3,2.32c9.18,1.32,20.88,2.89,28.6,8.6,5.36,4,5.52,4.31-.6,6.07-9.2,2.63-21.79.64-31.24,1a390.73,390.73,0,0,0-50.48,4.73c-18.62,3.1-36.2,8.77-55.32,6.49-2.8-.33-31.21-9.65-30-10.52,2.93-2.2,13.51-1.2,17.22-2.23,8.41-2.32,15.08-7.27,20.87-13.69C-2916.82,4013.78-2911.45,3999.69-2903.29,3987.12Z" transform="translate(2990.39 -3947.75)"/><path class="cls-7" d="M-2858.34,3980.53c-5.24,0-5.24,13.17,0,13.17S-2853.25,3980.53-2858.34,3980.53Z" transform="translate(2990.39 -3947.75)"/><path class="cls-7" d="M-2847.72,3981.2c-5.05,0-5,12.58,0,12.57S-2842.82,3981.2-2847.72,3981.2Z" transform="translate(2990.39 -3947.75)"/><path class="cls-8" d="M-2852.75,3973.37c-11.9.37-15.21,12-10.74,20.49,0.4,0.76,2.72,4.21,3.15,4.74,1.75,2.21,2.36,7.85,5.63,1.55,0.77,3.91,3.49,3.37,5.16.35,3.24,5,2.82.49,4.41-1.36-0.23.27,3.67-6.51,3.55-6.24,3.34-7.95-.49-19.88-11.16-19.54h0Zm-5.58,20.33c-5.24,0-5.24-13.17,0-13.17S-2853.25,3993.7-2858.34,3993.7Zm4.47,3.62a1.17,1.17,0,0,1,0-1.6A1.19,1.19,0,0,1-2853.86,3997.32Zm3.65,0.09a1.19,1.19,0,0,1,0-1.77A1.18,1.18,0,0,1-2850.22,3997.4Zm2.5-3.64c-5,0-5-12.58,0-12.57S-2842.82,3993.77-2847.72,3993.77Z" transform="translate(2990.39 -3947.75)"/><path class="cls-8" d="M-2858.8,4005.41c2.54,0.57,8.31-.82,10.41.46C-2841,4010.43-2859,4011-2858.8,4005.41Z" transform="translate(2990.39 -3947.75)"/><path class="cls-8" d="M-2841.9,3976.21c1.52-1.2,12-8.91,12-8.91-4-3.8-3.15-.54-4.52.3-3.27,2-6.18,5-9.17,7.36Z" transform="translate(2990.39 -3947.75)"/><path class="cls-8" d="M-2865.84,3979c-3-1.49-7.48-2.9-10-5.09-2.33-2,1-3.64-1.15-4.79-0.76-.4-4.8,4.32-4.33,4.88C-2879.91,3975.76-2867.19,3979.57-2865.84,3979Z" transform="translate(2990.39 -3947.75)"/><path class="cls-8" d="M-2865.57,3994.75l-8.77,13.19c-1.36,2-2.87,4-4.1,6.17-0.55,1-2.4-1.4-3.25.51-1,2.31,4.78,3.48,5.7,3-1.53.77,0.79-4.65,0.87-4.79,3-5.94,7.56-11.46,11.24-17Z" transform="translate(2990.39 -3947.75)"/><path class="cls-8" d="M-2840.3,3997.17c3.08,2.16,6.09,4.66,9.33,6.56a63.12,63.12,0,0,0,7.36,2.71c1.1,1-1.73,4.77-3.2,4.12C-2828.62,4009.53-2840.87,3999.06-2840.3,3997.17Z" transform="translate(2990.39 -3947.75)"/><path class="cls-9" d="M-2896.72,3985.34s19.94-29.8,42.72-27S-2864.32,3959.79-2896.72,3985.34Z" transform="translate(2990.39 -3947.75)"/><path class="cls-9" d="M-2909.18,4048.15s34.17-16,70.84-11S-2864,4017.63-2909.18,4048.15Z" transform="translate(2990.39 -3947.75)"/><path class="cls-8" d="M-2901.26,3976.07s17.89-26.48,44.32-26.08C-2850.53,3949.86-2882.43,3942.41-2901.26,3976.07Z" transform="translate(2990.39 -3947.75)"/></g></g></svg>