<svg xmlns="http://www.w3.org/2000/svg" xmlns:xlink="http://www.w3.org/1999/xlink" viewBox="0 0 306.92 237.95"><defs><style>.cls-1{isolation:isolate;}.cls-2,.cls-3{fill:#fed67b;}.cls-3{opacity:0.25;}.cls-14,.cls-3,.cls-56{mix-blend-mode:overlay;}.cls-4{opacity:0.64;}.cls-12,.cls-13,.cls-21,.cls-22,.cls-27,.cls-36,.cls-4,.cls-43,.cls-48,.cls-49,.cls-5,.cls-51,.cls-52,.cls-54,.cls-57,.cls-59,.cls-60,.cls-61,.cls-62,.cls-9{mix-blend-mode:multiply;}.cls-5{opacity:0.36;}.cls-6{fill:#9d2519;}.cls-58,.cls-7{fill:#ed7839;}.cls-7{opacity:0.42;}.cls-8{fill:#f9be74;}.cls-23,.cls-9{fill:#9d6e54;}.cls-14,.cls-9{opacity:0.2;}.cls-10{fill:#3ca84e;}.cls-11,.cls-12{fill:#e06212;}.cls-12{opacity:0.62;}.cls-13{opacity:0.34;}.cls-14,.cls-20,.cls-48,.cls-56{fill:#fff;}.cls-15,.cls-53{fill:#f9be72;}.cls-15,.cls-17,.cls-22{opacity:0.6;}.cls-15,.cls-30,.cls-39,.cls-40{mix-blend-mode:screen;}.cls-16{fill:#6ecaf1;}.cls-18{fill:#6cd1ff;}.cls-19,.cls-21{fill:#d81f26;}.cls-24{fill:#664219;}.cls-25,.cls-27{fill:#ffca06;}.cls-26{fill:none;}.cls-28{fill:#f9d562;}.cls-29{fill:#faa43d;}.cls-30,.cls-40{fill:#ffeab2;}.cls-31{fill:#d09544;}.cls-32{fill:#c0792a;}.cls-33{fill:#93652b;}.cls-34{fill:#ad7a3c;}.cls-35{fill:#231f20;}.cls-36{fill:#7f5f26;opacity:0.51;}.cls-37{fill:#fffbcb;}.cls-38,.cls-39{fill:#fffdea;}.cls-40{opacity:0.55;}.cls-41{fill:#005559;}.cls-42,.cls-43{fill:#f8b39d;}.cls-43,.cls-48{opacity:0.3;}.cls-44{fill:#eeefef;}.cls-45{fill:#d3d4d6;}.cls-46{fill:#aab3ae;}.cls-47{fill:#88a8ac;}.cls-49{fill:url(#linear-gradient);}.cls-50{fill:#f49f50;}.cls-51{opacity:0.32;}.cls-54{opacity:0.44;}.cls-55,.cls-59{fill:#f7b16f;}.cls-56{opacity:0.14;}.cls-57{opacity:0.61;}.cls-59{opacity:0.19;}.cls-60{opacity:0.13;}.cls-61{opacity:0.31;}.cls-62{opacity:0.53;}</style><linearGradient id="linear-gradient" x1="-3734.87" y1="-3034.51" x2="-3753.02" y2="-2751.19" gradientTransform="translate(-51.94 173.08) rotate(-87.15)" gradientUnits="userSpaceOnUse"><stop offset="0" stop-color="#ab7b36"/><stop offset="0.12" stop-color="#fedb8a"/><stop offset="0.17" stop-color="#fff"/><stop offset="0.72" stop-color="#fff"/><stop offset="0.85" stop-color="#fed67b"/><stop offset="0.99" stop-color="#ab7b36"/></linearGradient></defs><title>artefact_02</title><g class="cls-1"><g id="Layer_1" data-name="Layer 1"><path class="cls-2" d="M-3008.43,3654.66l-10.66-1.4-0.81,9.35c-3.51-5.71-1.92-4.78-7.31-4-3.72.53-14,4.68-15.91,8-3.84,6.64,4.34,17.44,1.15,23.82-3.07,6.14-22.32,6.79-29.12,7.58-11.08,1.28-9.45,2.74-12.95,12.33-0.86-3.24-1.52-9.95-3.85-11.35-3.36-2-17.68,1.86-21.6,2.17-5.85.46-18.82-1.53-23.59,1.6-3.61,2.37-4.62,8.3-6.25,12.49-0.88-2.71-.69-7.28-1.87-9.63-2-4.06-.47-2-4-3.42-2.6-1-9.52-.58-12.12-0.19-4.82.71-4.6,1-8.55,4.66,1.26-8.09-8.67-6.76-14.38-8.27-8.74-2.32-12.28-6.94-15.13,3.86-2.66-5.41-2.29-8-7.25-11-4.42-2.71-14.74-1.63-18.13-5.31-3.15-3.42,2.39-8.49.62-12-0.51-1-13.11-7.21-14.45-7.3-5.69-.4-28,14.85-29.91,19.89-2.89,7.46.2,22,.14,29.91-0.28,33.68-1.75,63.6-15.33,94.82-9.58,22-24.57,42.82.5,60.66,15.19,10.81,41.24,13,59.56,12.48,8.48-.24,7.43-2.29,11.79-10.52l0.68,7.3a145.6,145.6,0,0,1,17-1.74c7.79-.17,8,0.84,11.93-6.1-0.3,8.88,10.29,6.67,17,6,5.24-.55,3.89,1.67,6.91-3.66,0.59-1,6.54-14.82,6.38-15.15,2,4,.27,8.62,1,12.7,1.09,5.94-.33,4.58,7,5.41,6.18,0.7,16.26,4.79,22.26,4.11,5.14-.58,5.4-2.66,8.76-7.52,0.54,3.57.43,7.24,2.61,9.16,2.44,2.15,12.94,2.76,16.49,3.9,4.4,1.41,10.59,4.52,15.3,2.11,3.69-1.89,3.41-3.68,4.89-8.53l1.26,8c26.25-9,55.6-15.86,64.44-45,7.33-24.13,12.16-49.76,15.82-74.71,2.6-17.71-3.26-37.15-5.42-54.76-1.59-13-3.33-26.17-3.27-39.27,0.06-11,4.05-19.42-11.59-21.45h0Z" transform="translate(3294.25 -3653.26)"/><path class="cls-2" d="M-3008.43,3654.66l-10.66-1.4-0.81,9.35c-3.51-5.71-1.92-4.78-7.31-4-3.72.53-14,4.68-15.91,8-3.84,6.64,4.34,17.44,1.15,23.82-3.07,6.14-22.32,6.79-29.12,7.58-11.08,1.28-9.45,2.74-12.95,12.33-0.86-3.24-1.52-9.95-3.85-11.35-3.36-2-17.68,1.86-21.6,2.17-5.85.46-18.82-1.53-23.59,1.6-3.61,2.37-4.62,8.3-6.25,12.49-0.88-2.71-.69-7.28-1.87-9.63-2-4.06-.47-2-4-3.42-2.6-1-9.52-.58-12.12-0.19-4.82.71-4.6,1-8.55,4.66,1.26-8.09-8.67-6.76-14.38-8.27-8.74-2.32-12.28-6.94-15.13,3.86-2.66-5.41-2.29-8-7.25-11-4.42-2.71-14.74-1.63-18.13-5.31-3.15-3.42,2.39-8.49.62-12-0.51-1-13.11-7.21-14.45-7.3-5.69-.4-28,14.85-29.91,19.89-2.89,7.46.2,22,.14,29.91-0.28,33.68-1.75,63.6-15.33,94.82-9.58,22-24.57,42.82.5,60.66,15.19,10.81,41.24,13,59.56,12.48,8.48-.24,7.43-2.29,11.79-10.52l0.68,7.3a145.6,145.6,0,0,1,17-1.74c7.79-.17,8,0.84,11.93-6.1-0.3,8.88,10.29,6.67,17,6,5.24-.55,3.89,1.67,6.91-3.66,0.59-1,6.54-14.82,6.38-15.15,2,4,.27,8.62,1,12.7,1.09,5.94-.33,4.58,7,5.41,6.18,0.7,16.26,4.79,22.26,4.11,5.14-.58,5.4-2.66,8.76-7.52,0.54,3.57.43,7.24,2.61,9.16,2.44,2.15,12.94,2.76,16.49,3.9,4.4,1.41,10.59,4.52,15.3,2.11,3.69-1.89,3.41-3.68,4.89-8.53l1.26,8c26.25-9,55.6-15.86,64.44-45,7.33-24.13,12.16-49.76,15.82-74.71,2.6-17.71-3.26-37.15-5.42-54.76-1.59-13-3.33-26.17-3.27-39.27,0.06-11,4.05-19.42-11.59-21.45h0Z" transform="translate(3294.25 -3653.26)"/><path class="cls-3" d="M-3069.43,3709.15c-3.41,6.5-3.78,14.22-5.63,21.22a13,13,0,0,0-4-8.26c-3-2.61-6.42-1-8.67-2.63-5-3.55-5.72-11.26-15.12-9.8-2.79.43-5.32,3.28-8,3.51-2.31.2-4.12-2.31-6.29-1.86-7,1.46-8.34,13.55-11.08,19.29-3.08-6.51-4.84-9.46-10.65-13.62l-4.05,0a6.77,6.77,0,0,0-2.92-4.21c-7.1-2.91-13.39,2.09-17.71,7.48-1.65-8.81-6.82-11.86-14.8-11a7.77,7.77,0,0,0-2.86,1.89q-2,2.61-4.94-.09c-3.28,1.14-5.13,1.55-7.74,4.45-2.31-6.09-9.43-16.29-16.26-18.35-10-3-12.3,11.72-15.26,19.34-8.68,22.31-5,45.5-8.47,68.72s-12.14,45.47-16.26,68.6c-1.22,6.87.78,18.31,9.65,11.42,0.75-.58,3.4-6.83,3.88-7.65,1.93-3.35,4.12-6.32,5.75-9.89,0.43,12.79,9.32,13.5,16.2,5.37,0.91-1.08.49-3.77,1.72-4.38,1.63-.81,2.34,2,4,1.94,4.08-.19,7.15,1.12,11.24-1.83-0.81,3.82,5.92,13.44,9,15.6,7.19,5,8-1.09,12.61-6.85,5-6.29,6.46-8,13.48-5.79,8.58,2.71,7.29,2.65,15.75-.06,7.09-2.27,3.09-1.62,8.12,4.47,7.07,8.57,9.55,3.26,16-2.19,10.87-9.15,16.79,11.54,28,14.29,15.21,3.74,17.58-20.87,20.17-30.94,4.36-17,17-26.45,16.25-45.63-0.8-19.84,3-36,6.88-55.22,1.85-9.11,1.9-15.06-4.54-21.9-1.86-2-10.48-11-13.43-5.41C-3072.59,3715.17-3067.72,3705.91-3069.43,3709.15Z" transform="translate(3294.25 -3653.26)"/><g class="cls-4"><path class="cls-2" d="M-3276.18,3859.83c4.91-1.14,7.61-.47,12-3.51a56.15,56.15,0,0,0,9.39-8.49c5.49-6.43,5.11-15,6.41-23.17,2.29-14.38,4.73-28.11,5-42.59s5.67-28.71,8.54-42.84c1.59-7.86,3.49-15.54,5.6-23.3,2.49-9.15,3.59-22.06,9.22-29.79-5.6-1.66,1.32-8.82-.15-12.25-0.08-.19-11.41-6.63-12.47-6.8-5.92-1-11.6,4.84-16.45,8-4.09,2.66-13.05,5.46-15.08,10.14-1.69,3.91-.23,10.68-0.21,14.89,0.07,12.87,0,25.74-.45,38.6-1,29.31-6,52.81-18.1,79.71-3.8,8.45-11.41,19.41-11.21,29,0.25,12.2,10.95,23.16,21.16,28.05-0.93-1.48-10.77-13.88-3.19-15.63h0Z" transform="translate(3294.25 -3653.26)"/></g><g class="cls-5"><path class="cls-2" d="M-3008.43,3654.66l-10.66-1.4-0.81,9.35c-4.24-6.9-2.27-4.49-8.57-3.41-4.77.81-14.07,4.27-15.73,9.26-2.61,7.85,8.13,21.93-2,24.82,4.48,13.82,4.21,29.33,4.2,43.77,0,8.73.23,17.86-1.28,26.46-1.6,9.12-6.39,17.77-9.42,26.52-5.5,15.85-12.67,33-15.79,49.5-1.85,9.76,3.66,17.59,3.22,26.87s-7.93,18.17-14.24,24.27c8.23-.14,7.57-1.51,9.81-8.86l1.26,8c26.25-9,55.6-15.86,64.44-45,7.33-24.13,12.16-49.76,15.82-74.71,2.6-17.71-3.26-37.15-5.42-54.76-1.59-13-3.33-26.17-3.27-39.27,0.06-11,4.05-19.42-11.59-21.45h0Z" transform="translate(3294.25 -3653.26)"/></g><path class="cls-6" d="M-3210.09,3739.48c3.74,4.29,8.17-1.59,11.48-1.43,2.89,0.14,1.77,5.74,5.79,2.6,3.09-2.4-.19-4.85-3-6.51,1.82-1,3-3.18,4.83-4.22-3.7-4.56-4.52.16-8.28,0.45-4,.32-3.85-6.11-8-0.9,1.55,0.86,2.49,2.84,4.05,3.68Z" transform="translate(3294.25 -3653.26)"/><path class="cls-7" d="M-3026.35,3659.81c3.27,4.27,4.3,7.67,5.56,12.85,1-4.18,2.6-10.23-1.28-13.52C-3024.25,3657.29-3026.88,3656.46-3026.35,3659.81Z" transform="translate(3294.25 -3653.26)"/><path class="cls-8" d="M-3164.89,3707.91c4.56-7.5,16.09-6.08,23.76-3.36,1-3.61-15.68-3-17.43-2.64-6.24,1.26-8.7,6.3-9.35,13.2C-3167.73,3713.08-3165.65,3710-3164.89,3707.91Z" transform="translate(3294.25 -3653.26)"/><path class="cls-2" d="M-3087.31,3724.8a7.4,7.4,0,0,0,.37-1.42C-3087.3,3724.51-3087.47,3725.13-3087.31,3724.8Z" transform="translate(3294.25 -3653.26)"/><path class="cls-8" d="M-3262.67,3879.12c-7.15-2.31-15-6.85-20.27-10.27C-3278.34,3873.06-3271.82,3876.82-3262.67,3879.12Z" transform="translate(3294.25 -3653.26)"/><path class="cls-8" d="M-3008.43,3654.66l-10.66-1.4-0.81,9.35c-3.51-5.71-1.92-4.78-7.31-4-3.72.53-14,4.68-15.91,8-3.84,6.64,4.34,17.44,1.15,23.82-3.07,6.14-22.32,6.79-29.12,7.58-11.08,1.28-9.45,2.74-12.95,12.33-0.86-3.24-1.52-9.95-3.85-11.35-3.36-2-17.68,1.86-21.6,2.17-5.85.46-18.82-1.53-23.59,1.6-3.61,2.37-4.62,8.3-6.25,12.49a32,32,0,0,1-2-9.3c-1.46,5.76,2.58,9.83,2.06,15.22,0.58-6.08,1.59-13.55,7.22-16.28,4.51-2.19,14.47-2.57,19.32-3s17.6-2.83,21.72-.16c5.23,3.4,5.05,16.08,4,21.62,1.8-5.7,4.6-18.86,9.46-23,3.79-3.19,13.09-1.92,18.59-3,6.3-1.22,13-4.22,16.47,2.82,2.91,5.93.82,17.1,1.41,23.87s0.48,16.19,3.28,22.3c1.52,3.31,12.1,18.16,15.26,18.65,4.08,0.63,14.27-8.64,19-10.62,3.09-1.29,11.5-2.24,13.56-4.85,2.22-2.81-.71-12.66-1.28-16.82-2.34-17.13-4.89-34.4-5.52-51.7-0.45-12.29,5.39-24.21-11.74-26.44h0Z" transform="translate(3294.25 -3653.26)"/><path class="cls-8" d="M-3034.77,3876.21c-11.11,2.33-22,6.83-32.83,10.37,0-5.2-.16-10.2-0.62-15.38-1.37,4.2-2.22,12.33-5.91,15.3-3.38,2.71-13,1.29-17.61.24-15-3.47-15.4-9.45-14.27-22.9-1,4-2.69,8.2-2.8,12.25-0.24,8.64,2.11,7.93,9.38,9.49s13.54,5.38,20.93,5,6.72-1.9,8.83-8.82l1.26,8c18.92-6.5,41.89-11.73,55.65-27.22-7.15,3.92-13.82,11.92-22,13.62h0Z" transform="translate(3294.25 -3653.26)"/><path class="cls-8" d="M-3156.84,3873.56c1.43,6.94-13.8,4-19,4.32-0.34-4.46-.33-8.84-0.24-13.31-5,10.32-8.76,15.84-22.31,14.31-6.35-.72-5.91,2.1-7.22-5.64-0.65-3.82.25-8.32,0.56-12.15-0.61,6-6.08,18.38-10.63,20.88-3.22,1.77-12.15-.48-15.79-0.62-7.83-.29-15.66-0.58-23.5-0.73,9.34,1.28,29.74,7.38,39.43,3.78,4.42-1.64,5.22-6,7.65-10.56l0.68,7.3a145.6,145.6,0,0,1,17-1.74c7.79-.17,8,0.84,11.93-6.1-0.82,9,9.34,6.16,15.6,5.87,5.14-.24,4.62,2,7.77-2.32,0.91-1.25,6.72-14.58,6.78-16C-3153.07,3865.3-3154.9,3867.31-3156.84,3873.56Z" transform="translate(3294.25 -3653.26)"/><path class="cls-8" d="M-3120.61,3880.7c-4.12-1-20.51-2.18-23.53-4.91-3.21-2.9-1.18-16.28-2.06-20.89-2.29,4.27-1,7.2-.75,11.65,0.13,2.42-1,6.8,0,8.94,1.7,3.69-1.2.57,3.14,2.67,4.91,2.38,18.8,3.91,24.4,4.16,6.82,0.3,6.34-1.14,10.5-7.17C-3113.17,3880.19-3113.88,3882.39-3120.61,3880.7Z" transform="translate(3294.25 -3653.26)"/><path class="cls-9" d="M-3057.07,3712.1c-3.16,4-2.89,16.22-3.76,21.7-1.14,7.15-.5,6.88-7.44,7.69-7.11.83-14.67,0.33-21.84,0.75,1.09-8.15,2.37-16.7,4.69-24.63-5,4-1.66,16.66-5.09,22.07-3.68,5.79-24.1,4.23-32.18,4.84,2.44-10.8,2.12-22.63,7.2-32.72-4.57,2.89-5.2,15.42-6,20.66-0.37,2.51-.44,10.59-2,12.12s-9.2.68-11.18,0.83a266.58,266.58,0,0,1-27,.86c2-8.15,3-16.9,6.61-24.52-2.65,2.58-3.7,8.41-4.73,12.58q-0.91,4.15-1.82,8.3,0.44,6.23-6,3.4c-10.32,2.16-25.84-2.46-36.15-4.39,3.3-9.17,5.8-18.19,6.18-28-3.67,4.93-1.62,17-5.24,23.34-3.33,5.86-5.11,4-12.09,2.33-2.85-.66-6.34-1.07-9-2.39q-0.25.3-.51,0.57c5.38,3,13.89,3.54,19.7,4.63-2.42,7.11-2.1,31.39-8.22,35.36-4.66,3-16.42-3.68-21.46-1.44,7,0.8,14.1,1.49,21.17,2.13-1.67,4-4.48,27.58-7.66,29.39-4.32,2.47-15.4-5.3-19.87-3.85a152.91,152.91,0,0,0,19.72,4.53c-0.88,4-3.51,23.76-8.27,26.14-4.57,2.29-14.34-4.93-19-2.82,6.15,1.47,12.55,2.26,18.76,3.48a87,87,0,0,0-4.76,17.58c1.2-1.6,1.69-4.58,2.36-7.2,0.39-1.52,1.5-9.41,3.12-10.24,1-.49,3.63,1,4.83.93,10.7-.39,22.82,3,33.51,3.9-1,5.84-1.7,11.74-2.23,17.64,1.2-1.6,1.23-5.08,1.55-7.76l0.61-4.67q-1.41-7.67,5.48-4.75c11.1-1.86,25.24,1.66,36.52,1.91-1.55,4.59-3.81,9.25-5,14a21.91,21.91,0,0,0,2.78-5.5c3-7.16.58-6.9,8.11-8.36,9.54-1.84,21.06-.12,30.86-0.75-1.71,5.44-3.45,10.91-5.48,16.23,3-3,2.47-10.89,5.58-14.13,4.75-5,23.62-4.5,31.56-6.19-1.14,5.55-1.57,12.81-4,18,4.78-6.33,1.23-17.87,10.6-20.22q-2.79.74-5.62,1.36c1.3-6.42,2-13.21,3.73-19.51a17.3,17.3,0,0,1,3.1-6.73c-0.08.11,4.93-1,4.91-1q-3.38.25-6.76,0.43c1.53-9.2,2.35-18.5,3.94-27.68,2-11.24,6.27-5.06,13.56-8.09-4-.44-8.12,0-12.07.26,1.64-7.93,3.57-15.79,5.37-23.68,0.29-1.28.88-7.84,1.89-8.51,0.52-.34,8.66.39,9.66,0.21a79.27,79.27,0,0,0-9.52-.88C-3059.43,3731.9-3058.12,3721.95-3057.07,3712.1Zm-33.92,30.85c-0.87,6.6.83,29.31-5.1,33.58-2.9,2.09-13.36,1.11-16.8,1.39q-9.72.79-19.44,1.51c1.61-5.84,3.34-11.64,5-17.46,0.94-3.3,1.71-12.37,4-14.8,5-5.24,24-3.72,32.34-4.22C-3091.58,3747.47-3100.58,3743.51-3091,3742.95Zm-47.13,61.9c0.75-4.94,1.81-9.83,3-14.68,2-8.28,1.19-10,9.78-10.61,9.7-.74,19.39-1.54,29.08-2.35-1.79,6-3.81,12-5.51,18.05-0.85,3-1.36,12.27-3.21,14.5-4.2,5-26.59,2.71-34.53,2.91q0.81-3.89,1.42-7.81C-3136.91,3796.92-3138.51,3807.44-3138.11,3804.85Zm-2.2,7.83a401.21,401.21,0,0,1-40.9-1.52c2.76-7.73,4.61-27.61,11.14-30.1,4.18-1.59,12.47.29,17.06,0.18,6.58-.16,13.15-0.64,19.71-1.1-3,10.79-4.74,21.61-7,32.53C-3154,3813-3139.77,3810.09-3140.31,3812.68Zm-1.37-66.12q9-.64,18-1.32c-1.89,8.13-5.22,31-11.56,34.38-8.21,4.39-28.43,1.05-37.32.69,2.37-8.91,5.83-17.3,8.62-26.06,2.11-6.64.2-5.76,7-7.24,4.66-1,10.41-.12,15.18-0.45h0Zm-70.55,31c3.36-7.61,3.65-32.53,10.13-35,3.5-1.31,13.23,2.08,17.1,2.53,7.43,0.88,14.91,1.49,22.39,1.74-1.6,6.53-4.11,12.55-6.32,18.86q-1.64,4.66-3,9.42,0.59,7.66-6.43,4.87C-3187.66,3782.4-3202.63,3778.51-3212.23,3777.58Zm-7.05,26c1.33-6,2.55-12.17,4.33-18.11,1.73-5.77.88-6,6.84-6.83,10.7-1.5,23.84,1.86,34.66,2.31-1.4,5.41-2.73,10.83-4.23,16.21q-1.28,4.75-2.77,9.45,0.27,6.35-5.08,4.24c-9.32,2.29-25.25-1.49-34.66-3.13l0.91-4.13C-3217.21,3794.15-3219.59,3805-3219.28,3803.58Zm-6.39,31.55-3-.59c1.58-4.18,3.49-8.16,4.85-12.43q1.28-4.38,2.31-8.82-0.83-7.56,5.73-4.17c9.68-1.75,23.54,1.91,33.52,2.65-2.22,6.13-4.68,12-6.27,18.32-2.51,10-1.87,9.36-12.41,8.26-8.23-.86-16.65-1.55-24.77-3.21h0Zm36,4.29A119.65,119.65,0,0,1-3185,3821c3.38-9.76,4.46-9,14.56-8s20,0.66,30,.42c-1.42,6.69-3.2,13.3-5.19,19.84-2.1,6.91-.93,7.15-8.26,8.39-11,1.84-24.79-1.21-35.77-2.16C-3188.36,3831.91-3177.48,3840.47-3189.67,3839.42Zm42.06,2.33c2.42-7.2,5-26,10.28-28.48,7-3.26,24.38-.79,32.12-1.11-0.73,7.15-1.2,21-5.76,26.71-4.85,6.13-28.08,3.05-36.64,2.88C-3145,3833.9-3135.68,3842-3147.61,3841.74Zm67.56-4.8a217.44,217.44,0,0,1-30.79,4.06c1.82-5.85,3.58-11.77,4.83-17.77,0.36-1.75.52-9.86,1.58-11.09,2.6-3,24.48-1.18,29.31-1.45-1.47,8.78-3.15,17.53-4.93,26.25C-3089.46,3839-3078.41,3828.95-3080.05,3836.94Zm7.32-43.08c-0.32,3.15-.34,8.86-1.57,11.73-2.17,5.07-.14,3.26-5.85,4.71-7.27,1.85-16.81.83-24.25,1.15,0.35-8.47,3.36-22.66,7.65-30.12,3.27-5.68,3.47-4.38,10.69-5,5.44-.43,10.88-0.86,16.33-1.19a189.13,189.13,0,0,0-3,18.68C-3073.2,3798.38-3072.14,3788-3072.73,3793.87Zm7.41-38.34c-0.92,3.92-1.84,7.83-2.71,11.76-1.28,5.77-.33,5.43-5.23,7.47-5.8,2.42-15.75,1.2-22,1.71,2.71-9.26,1.65-20.36,4.58-29.11,2.13-6.39,3.45-4.68,10.89-5,5.83-.22,11.67-0.36,17.5-0.15-0.92,4.44-2,8.87-3,13.29C-3066.74,3761.6-3064.17,3750.62-3065.32,3755.52Z" transform="translate(3294.25 -3653.26)"/><path class="cls-10" d="M-3096,3839c-2.36,2.17-.33,5.6,1.85,6.78-2.45.16-5.5,3.08-3.11,5.53-0.4-.39-0.43-4.76,1.61-3.17-3-2.18,1.55-.5,1.91-0.61-1.27,1.14-.87,3.37.2,4.47,3.25,3.38-1.77.18,2.31-.05-2.64.18-3.38-1.18-.77-2-1.64.47-3-.3,0-1.51q-0.46-1.07-1.74.19c0.18-.49,2.62-1.7,2.67-1.69-5.14-1.1-.35,1.9-4.54-0.28,2.07-.95,3-0.16,4.73.31-1-.26-2.3-1.78-0.41-2.35-1,.32-5.1-0.9.59-1.25q-0.31-1.68-2.84-.44,0.28-2.41,2.63-1.12,0.56-1-1.46-.76a3.85,3.85,0,0,1,3.73-.58c-1.11,0,1-.92.52-1-4.37-1-7.79,3-4.73,6.37a6.59,6.59,0,0,1-2.82-2c1.33-.21-1.8,0,1.35-2.17q-0.79-1-2,.64-0.41-1.75,1.78-2.09-0.64-.87-1.58.38a4.41,4.41,0,0,1,3-2.77q-1.16-1.36-2.78,1.17h0Z" transform="translate(3294.25 -3653.26)"/><path class="cls-11" d="M-3079.32,3848.21l-0.15,3c-4.18.36-10.55-1.71-13.53-4.48l1-1.32C-3089.12,3848.07-3083.12,3848.84-3079.32,3848.21Z" transform="translate(3294.25 -3653.26)"/><path class="cls-12" d="M-3081.81,3849.76c-1.9-.17-10.29-4.36-10.21-4.38C-3091.15,3845.24-3078.24,3849.58-3081.81,3849.76Z" transform="translate(3294.25 -3653.26)"/><path class="cls-10" d="M-3075,3855.73c-8.34,2.72-6.3-11.88-2.91-15.75A15.75,15.75,0,0,1-3075,3855.73Z" transform="translate(3294.25 -3653.26)"/><g class="cls-13"><path class="cls-10" d="M-3080.66,3844.62c3.52-2.11,7.7,11.38,2.14,10.84,5.85,5,3.68-12.07.58-15.48a14.77,14.77,0,0,0-2.73,4.64C-3080.58,3844.58-3079.66,3841.83-3080.66,3844.62Z" transform="translate(3294.25 -3653.26)"/></g><path class="cls-14" d="M-3078.12,3854.43c-3.7-2.23-1-7.69-2.15-8.89C-3079.4,3846.45-3075.42,3854.39-3078.12,3854.43Z" transform="translate(3294.25 -3653.26)"/><path class="cls-15" d="M-3131.45,3736.94c-15-5.16-25.47-19.49-39.46-26.62-18.15-9.24-25.5,1.9-33.77,16.81-5.14,9.27-12.4,8.41-21.11,12.7-11.36,5.61-13.52,17.35-12.68,29.18,1.5,21.31,6.77,43.22,17.38,62.15,10.38,18.51,30.11,37.94,47.35,14.66,6.17-8.33,8.48-9.6,18.24-3.16,9.16,6,17,15.93,28.74,16.78,9.41,0.68,14.91-5.2,18.77-13.14,1.57-3.22,2.28-8.41,4.9-11.05,3.89-3.91,11-2.69,15.9-3.9,26.23-6.41,10.77-28.26,14.65-46.7,2.78-13.19,11.54-21.23,6.63-35.6-3.88-11.36-13.61-20.87-24.24-26.1-11.69-5.74-22-5-29.71,5.56-2.41,3.28-3.64,7.22-7.64,9-1.36.59-6.63-1.47-4-.51C-3151.8,3729.93-3130.86,3737.15-3131.45,3736.94Z" transform="translate(3294.25 -3653.26)"/><path class="cls-16" d="M-3065.78,3763.39a0,0,0,1,0,.05,0A0,0,0,1,0-3065.78,3763.39Z" transform="translate(3294.25 -3653.26)"/><g class="cls-17"><path class="cls-18" d="M-3062.6,3759c-0.94,3.21-4.08,4.34-5,6.77a47.51,47.51,0,0,1,1.19,5.66c0,0.92-1.88,2.64-2,4.05-0.08,1.12,1.57,3.63,1.67,5,0.16,2.23-2.42,2.28-2.4,4.06,0,2.22,4.14,6.13,2.35,8.74a6.81,6.81,0,0,0,.62-6q-3.4-2.44-.1-4.13c-0.28-2.33-1.52-6.79-1.64-8.9,0.29,4.72,3.25-12.87,1.58-8.62,0.71-1.81,3.37-5.47,3.72-6.69C-3063.26,3761.21-3062.49,3758.58-3062.6,3759Z" transform="translate(3294.25 -3653.26)"/><path class="cls-18" d="M-3072.78,3768.34c1.32,2.46,1,4.14,1.07,6.61,0-1.08-.79,4.82-0.76,4.63-0.13.9-2.11,4.5-2.19,4,0.11,0.68,3.71,5.81,3.49,6.45,0.73-2.17-1.16-6-1.26-6.93,0.07,0.65-.05-7.32-0.19-6.29,0.57-4.46,2.06-4.45-.16-8.44C-3071.67,3770.41-3072.92,3768.09-3072.78,3768.34Z" transform="translate(3294.25 -3653.26)"/><path class="cls-18" d="M-3070.79,3758.91c0,1.35-1.6,10.29-2.3,9.08,0-.19,2.47-0.61,2.56-1.6,0.17-1.84-.27-7-0.25-7.48C-3070.88,3761.82-3070.78,3758.56-3070.79,3758.91Z" transform="translate(3294.25 -3653.26)"/><path class="cls-18" d="M-3100.43,3712.56c0.56,2.84-2.49,4.1-2.83,6.32-0.2,1.26,1.81,3.7,1.78,5.37,0,1-3.62,9.41-.19,10.61-0.74-.26,1-9.7,1.13-10.41,0.59,0.89,2.72,5.67,2.15,6.78,0.35-.69.3-13.26-0.89-13.5,0.52,0.11-.14,5.2-1.16,6.15a5.33,5.33,0,0,0-1.07-3.82q-2-2.25,1.62-4.11a12.54,12.54,0,0,0-.54-3.38h0Z" transform="translate(3294.25 -3653.26)"/><path class="cls-18" d="M-3217.93,3839.91c2.32,5.77-1.75,3.44-1.7,7.39,0,2.35,5,5.4,4.11,8.34,0.91-3.14-.72-5.79-2.77-8,6.67-2.74.89-6.38,0.36-7.75C-3217.63,3840.68-3218.08,3839.54-3217.93,3839.91Z" transform="translate(3294.25 -3653.26)"/><path class="cls-18" d="M-3212.28,3832c3.06,4.07-1.46,4.37-1.84,7-0.21,1.5,1,2.66.75,4.32-0.19,1.36-1.84,2.8-1.73,4,0.15,1.68,3,5.67,2.52,6.77,1.84-4.08-1.69-10.32-.8-14.51,0.85-4,3.78-4.14,1.1-7.64C-3210.75,3834-3212.51,3831.7-3212.28,3832Z" transform="translate(3294.25 -3653.26)"/></g><path class="cls-19" d="M-3129.46,3722.89a1.57,1.57,0,0,0-.92-1.54,1.3,1.3,0,0,0,.58,1.81c-3.65.13-7.87,6.05-4.67,9.2,0.89,0.8,6.54-13,5-9.48C-3129.44,3722.1-3129,3721.82-3129.46,3722.89Z" transform="translate(3294.25 -3653.26)"/><path class="cls-20" d="M-3134.59,3732l0.08-.08A0.34,0.34,0,0,0-3134.59,3732Z" transform="translate(3294.25 -3653.26)"/><path class="cls-21" d="M-3129.46,3722.89a1.57,1.57,0,0,0-.92-1.54,1.3,1.3,0,0,0,.58,1.81c-4.46.16-6.53,5.16-4.71,8.78-0.87-2.13,1.88-8.51,2.77-6.51,0.5,1.11-2.05,6-2.65,7,1.17,0.57,6.41-12.93,4.93-9.52C-3129.44,3722.1-3129,3721.82-3129.46,3722.89Z" transform="translate(3294.25 -3653.26)"/><path class="cls-21" d="M-3129.33,3723c0,0.06-.78-2-1-1.69,0-.05.48,1.7,0.58,1.81a5.88,5.88,0,0,0-4.19,2.19c1.19-.77,1.8-2,3.69-1.61,0.36,0.09-2.68,6.43-2.82,6.68,0.45-1,5-6.92,4.77-8.28-0.12-.73-0.75,1.22-1,0.88h0Z" transform="translate(3294.25 -3653.26)"/><path d="M-3129,3723.5c-2.24,2.35-3.69,5.63-4.87,8.61,0.31-.43,6.19,1.15,7.73-1.59A4.66,4.66,0,0,0-3129,3723.5Zm2,3.76c-0.77,1.13-3.35.23-3.05-1.17,0.72-1.77,3.91-.14,3.05,1.17C-3127.29,3727.76-3126.9,3727.19-3126.94,3727.26Zm-4.53,2.88c0.55-1.38,2.79-.76,3,0.52C-3128.11,3732.3-3131.91,3732.11-3131.48,3730.14Z" transform="translate(3294.25 -3653.26)"/><path d="M-3124.35,3727.91a25.11,25.11,0,0,1-1.06,3.44c3,0.86,1.24-4.23,1.06-3.44C-3124.53,3729-3124.24,3727.43-3124.35,3727.91Z" transform="translate(3294.25 -3653.26)"/><path d="M-3121.86,3722.75c-0.93.58-1.92,2.3-3.23,3a1.09,1.09,0,0,1,.12.29c0.44-1.26,3.84-1.79,4-2,0.31-.46-0.91-1.21-0.84-1.26h0Z" transform="translate(3294.25 -3653.26)"/><path d="M-3127.24,3732.6c0.16,0.45,1.66,3.74,1.8,3.82q0.42-.19.41,0c0.25-.06.82-1.26,0.9-1.1A22,22,0,0,0-3127.24,3732.6Z" transform="translate(3294.25 -3653.26)"/><path d="M-3131.71,3722.87c-0.13-.28-1.08-3.6-1.1-3.63s-1.93-.23-1.68.51A37.14,37.14,0,0,0-3131.71,3722.87Z" transform="translate(3294.25 -3653.26)"/><path d="M-3139.41,3732.29a7.18,7.18,0,0,1,.62,1.63s3.21-2,3.4-2.2-4.08.66-4,.57h0Z" transform="translate(3294.25 -3653.26)"/><g class="cls-22"><path class="cls-23" d="M-3082.16,3846.84c-2.06-1.13.3,3.9-2.06-1.12l1.27-.59Z" transform="translate(3294.25 -3653.26)"/><path class="cls-23" d="M-3056.82,3763.73c-1.75-3.87-1.11,10.16-1.35-3.67h1.4Zm-0.35,3.94q-0.27,1.89-.64,3.77l-1.38-.29C-3057.63,3763.88-3058.53,3770.06-3057.16,3767.68Zm0.22-11.44c-1.78-4.14.68,13.76-1.82-3.58l1.39-.2Zm-1.79,18.91-1.2,3.62-1.32-.5C-3055.06,3762-3061.32,3778.84-3058.74,3775.15Zm0.68-26.45c-2.31-3.88,2.57,13.48-2.28-3.32l1.36-.38Zm-3.35,33.6-1.73,3.4-1.22-.69C-3056,3769.77-3064.51,3785.55-3061.41,3782.3Zm1.22-40.93c-2.85-3.48,4.66,12.77-2.75-2.94l1.28-.59Zm-4.92,47.59-2.2,3.12-1.12-.86C-3058,3777.41-3068.64,3791.73-3065.11,3789Zm1.66-54.51c-3.43-2.88,6.88,11.33-3.24-2.36l1.13-.84Zm-6.28,60.57-2.63,2.76-1-1C-3060.9,3784.56-3073.62,3797.25-3069.73,3795Zm1.69-66.72c-4-2,9.23,9-3.7-1.51l0.88-1.1Zm-7.1,72.07-2.8,2.47-1-1C-3073.63,3791.22-3077.21,3801.34-3075.13,3800.38Zm1.08-76.86c-4.26-.68,11,5.23-4-0.35l0.51-1.32Zm-6.72,81.83-2.73,2.55-1-1C-3071.65,3794.23-3084.71,3807.28-3080.77,3805.35Zm-3.76,36.38-1,.45q-2,1.11-1.86-3.31l1.29-.56Zm3.31-121c-2.84.6,3.78,1.42-3.91,0.87l0.09-1.4A23.32,23.32,0,0,1-3081.22,3720.75Zm-4.8,89.84-2.05,3-1.22-.68C-3080.67,3796.94-3089.13,3813-3086,3810.59Zm-1.45,24.26c-2.58-3.53,2.8,14.31-2.56-3.11l1.34-.41Zm-2.14-7.09c-1.79-3.78-.6,14.56-1.93-3.53l1.4-.12Zm0.15-10.84-0.67,3.55-1.4-.13C-3089.91,3802.17-3091.35,3820.43-3089.46,3816.91Zm0.7-95.21-3.59.63-0.35-1.37C-3075.09,3716.6-3092.9,3721.15-3088.76,3721.69Zm-7.07,1.76-3.36,1.51-0.64-1.25C-3083.73,3715.42-3100.08,3724-3095.83,3723.46Zm-6.59,3.33-3.14,2-0.78-1.16C-3091.39,3717.53-3106.66,3728-3102.43,3726.79Zm-6.23,4.11c-1,.74-2.05,1.45-3.08,2.17l-0.8-1.15C-3110.77,3729.79-3109.88,3730.77-3108.66,3730.9Zm-6.19,4.31-3.18,2.05-0.73-1.2C-3103.72,3726.89-3119.17,3736.46-3114.84,3735.22Zm-6.5,3.94a35.66,35.66,0,0,1-3.49,1.6l-0.5-1.31C-3122.42,3738.3-3122.75,3738.8-3121.34,3739.15Zm-7.2,2.69-3.85.43,0-1.41C-3116.51,3740.48-3132.8,3741.09-3128.54,3741.84Zm-7.53-1.16c-4.17.46,13.66,5.23-3.94,0.67l0.35-1.37Zm-7.11-1.81c-4.33-.37,12.52,7.26-4-0.11l0.58-1.28Zm-5.42,98.21c-1.09.05-1.48,0.74-4-.22l0.5-1.31Q-3150.31,3836.24-3148.6,3837.08Zm-1.37-101.21-0.47.95q-0.85,2.09-3.5-1.44l0.66-1.24Zm-5.84,98.58a8.62,8.62,0,0,1-3.8,1.17l-0.14-1.4A12.9,12.9,0,0,1-3155.81,3834.46Zm-0.76-102.14c-3.54-.57,5.51,4.63-4-0.58l0.68-1.24Zm-6.26,104.39-2.46,2.42-1.15-.8C-3161.64,3831.46-3164.64,3835.66-3162.83,3836.71Zm-4.12,5.61a24.41,24.41,0,0,0-1.09,3.52l-1.37-.36C-3168,3840.07-3168.18,3843.82-3166.95,3842.32Zm-2,7.18-1.24,3.66-1.29-.56C-3164.94,3837.42-3171.52,3853.08-3169,3849.51Zm5.8-120.77c-4.44-.69,12,6.89-4-0.36l0.57-1.28Zm-9.13,127.81-3.49,2.13-0.36-1.37C-3175.62,3857.17-3172.53,3856.61-3172.33,3856.55Zm2.18-130.87c-4.5-.08,12.68,4.83-4,0.2l0.37-1.36Zm-9.47,131.7c-4,.21,13.2,6.51-4,0.42l0.48-1.33Zm2.12-133.71c-4.43.69,13.09,2.38-3.91,0.88l0.12-1.4Zm-8.93,131.29c-4.08-1.11,10.9,9.85-3.91-.83l0.83-1.14Zm1.34-130.54-3.66.26-0.18-1.4C-3171,3721-3189.21,3723.44-3185.08,3724.41Zm-7.32,126.26c-3.86-1.94,9,11.53-3.68-1.58l1-1Zm-5.19-5.31c-3.66-2.44,7.65,12.29-3.47-2l1.12-.86Zm5.23-120-3.49,1.09-0.5-1.32C-3179.43,3718.71-3196.59,3725.34-3192.37,3725.35Zm-9.8,114.12c-3.44-2.77,6.68,12.91-3.27-2.32l1.18-.77Zm3-111.52-3.14,1.9-0.79-1.16C-3188.22,3718.36-3203.29,3729-3199.2,3728Zm-7,105.25c-3.23-3,5.68,13.29-3.11-2.55l1.22-.69Zm-3.66-6.54c-0.89-.53-1.75-0.32-2.94-2.74l1.27-.61Q-3210.77,3825-3209.9,3826.67Zm4.66-94.55-2.64,2.57-1-1C-3196.68,3720.35-3209,3734-3205.24,3732.12Zm-7.88,87.8c-2.81-3.41,3.86,13.92-2.73-2.94l1.31-.51Zm2.88-82.4-2.1,3-1.19-.75C-3203.81,3724.38-3213.64,3740.2-3210.25,3737.52Zm-5.61,75.43c-2.57-3.62,3,14.18-2.52-3.12l1.35-.42Zm1.67-69.16-1.57,3.36-1.29-.56C-3209.9,3729.84-3217.1,3747-3214.18,3743.79Zm-3.9,62c-2.3-3.76,1.82,14.31-2.3-3.29l1.37-.33Zm1-55.19-1.19,3.53-1.35-.42C-3214.37,3736.39-3219.68,3754.18-3217.13,3750.61Zm-2.69,47.91c-2-3.93.92,14.52-2.06-3.45l1.39-.23Zm0.5-40.78-0.83,3.64-1.38-.27C-3217.84,3743.3-3221.53,3761.58-3219.32,3757.74Zm-1.72,33.4c-1.73-4.08-.08,14.56-1.8-3.59l1.4-.13Zm-0.66-7.45c-1.43-4.18-1.31,14.47-1.53-3.72l1.41,0Zm0.89-18.64-0.49,3.71-1.4-.16C-3220.72,3750.56-3222.64,3769.07-3220.82,3765.05Zm-1,11.17c-1.09-4.28-2.46,14.15-1.23-3.83l1.39,0.1Z" transform="translate(3294.25 -3653.26)"/><path class="cls-23" d="M-3143.5,3839.73c-1,.12-0.49,2.09-2.31.36l0.66-1.24Z" transform="translate(3294.25 -3653.26)"/></g><path class="cls-24" d="M-3236.57,3838.12l3.29,6.88c2.08-8.88,2.85-11.43-.8-19.67Z" transform="translate(3294.25 -3653.26)"/><path class="cls-25" d="M-3232.37,3842.54c-2.28-2.82-3.42-12.92-.89-16.07C-3229.63,3833.52-3230.2,3834.83-3232.37,3842.54Z" transform="translate(3294.25 -3653.26)"/><path class="cls-26" d="M-3233.6,3829.14c-0.06,1.2.15,0.52,0,0C-3233.61,3829.38-3233.51,3829.42-3233.6,3829.14Z" transform="translate(3294.25 -3653.26)"/><path class="cls-27" d="M-3233.6,3829.14c0.29,1-.32,2.29,1,1.32,0.16,0.65.4,2.43,0.41,2.55,0-.29-2.27,6.91-1.84,7,1,0.8,1,1.42,1.61,2.54,2.09-7.44,2.77-9-.79-15.89l-0.43,2.49C-3233.51,3829.42-3233.56,3828.18-3233.6,3829.14Z" transform="translate(3294.25 -3653.26)"/><path class="cls-28" d="M-3234.69,3834.64a1.2,1.2,0,0,1,.87,1.79,1.2,1.2,0,0,1-.87-1.79h0Z" transform="translate(3294.25 -3653.26)"/><path class="cls-29" d="M-3234.69,3834.64c-0.16.12,0.22,0,0,0C-3234.7,3834.65-3234.66,3834.63-3234.69,3834.64Z" transform="translate(3294.25 -3653.26)"/><path class="cls-29" d="M-3234.39,3834.5c-0.06-.14,1.24,1.61.57,1.92q-0.05,0,0,0C-3233.68,3836.26-3233,3833.88-3234.39,3834.5Z" transform="translate(3294.25 -3653.26)"/><polygon class="cls-29" points="59.51 181.41 59.51 181.41 59.51 181.41 59.51 181.41"/><path class="cls-30" d="M-3233.79,3835.74c-1.41-1.31-.24-0.92,0,0h0Z" transform="translate(3294.25 -3653.26)"/><path class="cls-28" d="M-3234.36,3838a1.15,1.15,0,0,1,.26,1.85,1.14,1.14,0,0,1-.26-1.85h0Z" transform="translate(3294.25 -3653.26)"/><path class="cls-29" d="M-3234.36,3838h0Z" transform="translate(3294.25 -3653.26)"/><path class="cls-29" d="M-3234.07,3838c0-.12.65,1.76,0,1.87C-3233.64,3840.15-3233,3837.8-3234.07,3838Z" transform="translate(3294.25 -3653.26)"/><polygon class="cls-29" points="59.82 184.75 59.82 184.75 59.82 184.75 59.82 184.75"/><path class="cls-30" d="M-3233.88,3839.22c-0.89-1.56.05-.88,0,0h0Z" transform="translate(3294.25 -3653.26)"/><path class="cls-28" d="M-3234.19,3832.52a1.37,1.37,0,0,1,.78,2.07,1.38,1.38,0,0,1-.78-2.07C-3233.93,3832.35-3234.46,3832.67-3234.19,3832.52Z" transform="translate(3294.25 -3653.26)"/><path class="cls-29" d="M-3234.19,3832.52c-0.22.11,0.2-.15,0,0h0Z" transform="translate(3294.25 -3653.26)"/><path class="cls-29" d="M-3233.89,3832.34c0,0.05,1.21,1.79.48,2.24q-0.05,0,0,0C-3233.25,3834.4-3232.66,3831.62-3233.89,3832.34Z" transform="translate(3294.25 -3653.26)"/><polygon class="cls-29" points="60 179.3 60 179.3 60 179.3 60 179.3"/><path class="cls-30" d="M-3233.35,3833.78c-1.29-1.43-.19-1.08,0,0h0Z" transform="translate(3294.25 -3653.26)"/><path class="cls-28" d="M-3233.66,3828.74a1.38,1.38,0,0,1,0,2.22A1.38,1.38,0,0,1-3233.66,3828.74Z" transform="translate(3294.25 -3653.26)"/><path class="cls-29" d="M-3233.66,3828.74c-0.24,0,.23-0.09,0,0h0Z" transform="translate(3294.25 -3653.26)"/><path class="cls-29" d="M-3233.32,3828.69s0.51,2.1-.34,2.27t0,0C-3233.43,3830.83-3232,3828.41-3233.32,3828.69Z" transform="translate(3294.25 -3653.26)"/><path class="cls-29" d="M-3233.74,3828.76h0Z" transform="translate(3294.25 -3653.26)"/><path class="cls-30" d="M-3233.32,3830.21c-0.71-1.79.2-1,0,0h0Z" transform="translate(3294.25 -3653.26)"/><path class="cls-28" d="M-3232.86,3831.93a1.41,1.41,0,0,1,.23,2.29,1.4,1.4,0,0,1-.23-2.29h0Z" transform="translate(3294.25 -3653.26)"/><path class="cls-29" d="M-3232.86,3831.93c-0.23.09,0.24,0,0,0h0Z" transform="translate(3294.25 -3653.26)"/><path class="cls-29" d="M-3232.48,3831.91c0-.18.71,2.23-0.14,2.31t0,0C-3232.4,3834.1-3230.73,3831.76-3232.48,3831.91Z" transform="translate(3294.25 -3653.26)"/><path class="cls-29" d="M-3232.94,3832h0Z" transform="translate(3294.25 -3653.26)"/><path class="cls-30" d="M-3232.33,3833.48c-1-2,.11-1.1,0,0h0Z" transform="translate(3294.25 -3653.26)"/><path class="cls-31" d="M-3234.08,3825.33c3.6,8.13,3.26,8,12.23,7.43C-3226.3,3826.36-3226.19,3824.92-3234.08,3825.33Z" transform="translate(3294.25 -3653.26)"/><path class="cls-32" d="M-3232.78,3826.17c1.23,5.68,3.8,7.25,9.4,5.71C-3226.07,3828-3227.24,3824.17-3232.78,3826.17Z" transform="translate(3294.25 -3653.26)"/><path class="cls-31" d="M-3233.29,3845c9.13-1.85,8.37-3.41,11.43-12.24C-3232.41,3833.44-3230.9,3834.82-3233.29,3845Z" transform="translate(3294.25 -3653.26)"/><path class="cls-32" d="M-3232.25,3843.88c7.27-.83,7.14-3.55,9.4-10.06C-3231.43,3834.36-3230.31,3835.61-3232.25,3843.88Z" transform="translate(3294.25 -3653.26)"/><path class="cls-33" d="M-3236.57,3838.12l-3.79,5.56c1.13-7.72,2.35-11.67,6.28-18.35Z" transform="translate(3294.25 -3653.26)"/><path class="cls-31" d="M-3234.08,3825.33c-7-2.06-12.16,3-4.78,8.11Z" transform="translate(3294.25 -3653.26)"/><path class="cls-32" d="M-3235.62,3826.25c-4.74-1.51-8.52,2.07-3.35,5.67C-3237.93,3830.18-3236.2,3828.18-3235.62,3826.25Z" transform="translate(3294.25 -3653.26)"/><path class="cls-26" d="M-3242.76,3826.94s0.07-.25,0,0C-3242.74,3826.91-3242.74,3826.87-3242.76,3826.94Z" transform="translate(3294.25 -3653.26)"/><path class="cls-31" d="M-3242.76,3827a0.1,0.1,0,0,1,0,0A0.1,0.1,0,0,0-3242.76,3827Z" transform="translate(3294.25 -3653.26)"/><path class="cls-31" d="M-3242.73,3826.83h0Z" transform="translate(3294.25 -3653.26)"/><path class="cls-31" d="M-3242.76,3827c-1.2,5.07-3.77,13.76,2.4,16.7,0.37-2.5,1.65-6.15,1.25-8.53s-4.36-5.36-3.65-8.17C-3243,3828.07-3243.32,3829.21-3242.76,3827Z" transform="translate(3294.25 -3653.26)"/><path class="cls-32" d="M-3241.29,3842.53c0.31-2.11,1.2-4.72,1-6.83-0.29-3-2.23-3.72-2.88-6.9C-3244.14,3833.56-3246,3839.12-3241.29,3842.53Z" transform="translate(3294.25 -3653.26)"/><path class="cls-34" d="M-3240.36,3843.68l3.79-5.56a17.44,17.44,0,0,0-2.76-1.47Z" transform="translate(3294.25 -3653.26)"/><path class="cls-31" d="M-3240.77,3838.28a1.8,1.8,0,0,1-.46,2.83,1.77,1.77,0,0,1,.46-2.83h0Z" transform="translate(3294.25 -3653.26)"/><path class="cls-35" d="M-3241.1,3839.53c-1.19-.43,1.82.84,0,0C-3241.28,3839.47-3241,3839.6-3241.1,3839.53Z" transform="translate(3294.25 -3653.26)"/><path class="cls-36" d="M-3230.55,3833.32c-0.55,2.35-1.1,4.72-1.63,7,0.38,0.06,4.49.23,4.67-.45,0.12-.49-1.33-3.7-2.19-3.7,3.79-4.22,6.11,7.29-1.47,7.44,1.41-.26,2.83-0.45,4.23-0.7-1.25.52-.71,0.83-3.33,1.47,6.79,0.88,7-7.27,8.57-12.07Zm0.73,3.89c0.81,0.22.72,1.73,1.35,1.89-3.51.63-2.36-2.14-1.35-1.89h0Z" transform="translate(3294.25 -3653.26)"/><path class="cls-37" d="M-3232.93,3840.47c2,0.5-2.07-.48,0,0h0Z" transform="translate(3294.25 -3653.26)"/><path class="cls-38" d="M-3233.31,3840.83c0.73,0.16-.75-0.14,0,0h0Z" transform="translate(3294.25 -3653.26)"/><path class="cls-39" d="M-3233.37,3840.89c0.16,0-.17-0.05,0,0h0Z" transform="translate(3294.25 -3653.26)"/><path class="cls-38" d="M-3233,3841.29c0.48,0.14-.45-0.11,0,0h0Z" transform="translate(3294.25 -3653.26)"/><path class="cls-39" d="M-3233.08,3841.32c0.24,0.08-.24,0,0,0h0Z" transform="translate(3294.25 -3653.26)"/><path class="cls-37" d="M-3231.76,3835.43h0Z" transform="translate(3294.25 -3653.26)"/><path class="cls-38" d="M-3232.08,3835.74c0.63,0.16-.64-0.14,0,0h0Z" transform="translate(3294.25 -3653.26)"/><path class="cls-39" d="M-3232.13,3835.79c0.32,0.12-.32-0.07,0,0h0Z" transform="translate(3294.25 -3653.26)"/><path class="cls-38" d="M-3231.85,3836.13c0.14,0-.15,0,0,0S-3231.91,3836.11-3231.85,3836.13Z" transform="translate(3294.25 -3653.26)"/><path class="cls-39" d="M-3231.89,3836.16h0Z" transform="translate(3294.25 -3653.26)"/><path class="cls-37" d="M-3231.68,3836.34c1.92,0.52-2-.42,0,0C-3231.41,3836.41-3231.94,3836.28-3231.68,3836.34Z" transform="translate(3294.25 -3653.26)"/><path class="cls-38" d="M-3232,3836.64c0.66,0.18-.68-0.14,0,0h0Z" transform="translate(3294.25 -3653.26)"/><path class="cls-39" d="M-3232.06,3836.7h0Z" transform="translate(3294.25 -3653.26)"/><path class="cls-38" d="M-3231.77,3837h0Z" transform="translate(3294.25 -3653.26)"/><path class="cls-39" d="M-3231.8,3837.08c0.08,0-.06,0,0,0h0Z" transform="translate(3294.25 -3653.26)"/><path class="cls-37" d="M-3231,3837.1q1,0.88-.29,1.19-1.05-.88.29-1.19h0Z" transform="translate(3294.25 -3653.26)"/><path class="cls-38" d="M-3231.43,3837.47c0.79,0.2-.8-0.17,0,0h0Z" transform="translate(3294.25 -3653.26)"/><path class="cls-39" d="M-3231.49,3837.53h0Z" transform="translate(3294.25 -3653.26)"/><path class="cls-38" d="M-3231.14,3837.95h0Z" transform="translate(3294.25 -3653.26)"/><path class="cls-39" d="M-3231.17,3838c0.22,0-.25,0,0,0h0Z" transform="translate(3294.25 -3653.26)"/><path class="cls-37" d="M-3230.3,3838q1,0.88-.29,1.2-1-.9.29-1.2h0Z" transform="translate(3294.25 -3653.26)"/><path class="cls-38" d="M-3230.7,3838.39c0.79,0.17-.82-0.14,0,0h0Z" transform="translate(3294.25 -3653.26)"/><path class="cls-39" d="M-3230.76,3838.45c0.12,0-.12,0,0,0S-3230.8,3838.44-3230.76,3838.45Z" transform="translate(3294.25 -3653.26)"/><path class="cls-38" d="M-3230.41,3838.87c0.43,0.12-.39-0.12,0,0h0Z" transform="translate(3294.25 -3653.26)"/><path class="cls-39" d="M-3230.45,3838.91c0.08,0-.08,0,0,0h0Z" transform="translate(3294.25 -3653.26)"/><path class="cls-37" d="M-3229.69,3839q1.24,1.06-.35,1.42-1.24-1.06.35-1.42h0Z" transform="translate(3294.25 -3653.26)"/><path class="cls-38" d="M-3230.16,3839.48c0.93,0.28-.9-0.23,0,0h0Z" transform="translate(3294.25 -3653.26)"/><path class="cls-39" d="M-3230.23,3839.55c0.52,0.16-.56,0,0,0C-3230.17,3839.57-3230.29,3839.55-3230.23,3839.55Z" transform="translate(3294.25 -3653.26)"/><path class="cls-38" d="M-3229.82,3840.05c0.6,0.18-.6-0.14,0,0h0Z" transform="translate(3294.25 -3653.26)"/><path class="cls-39" d="M-3229.86,3840.1c0.32,0.2-.37,0,0,0C-3229.83,3840.12-3229.9,3840.1-3229.86,3840.1Z" transform="translate(3294.25 -3653.26)"/><path class="cls-37" d="M-3231.89,3840.8q1.08,0.91-.3,1.23-1.09-.91.3-1.23h0Z" transform="translate(3294.25 -3653.26)"/><path class="cls-38" d="M-3232.3,3841.19c0.66,0.14-.68-0.17,0,0h0Z" transform="translate(3294.25 -3653.26)"/><path class="cls-39" d="M-3232.36,3841.25c0.16,0-.19-0.05,0,0h0Z" transform="translate(3294.25 -3653.26)"/><path class="cls-38" d="M-3232,3841.68h0Z" transform="translate(3294.25 -3653.26)"/><path class="cls-39" d="M-3232,3841.72h0Z" transform="translate(3294.25 -3653.26)"/><path class="cls-37" d="M-3230.69,3840.93q1.07,0.92-.3,1.23-1.07-.92.3-1.23h0Z" transform="translate(3294.25 -3653.26)"/><path class="cls-38" d="M-3231.1,3841.32c0.86,0.25-.86-0.19,0,0h0Z" transform="translate(3294.25 -3653.26)"/><path class="cls-39" d="M-3231.16,3841.38c0.45,0.14-.48,0,0,0h0Z" transform="translate(3294.25 -3653.26)"/><path class="cls-38" d="M-3230.81,3841.81c0.59,0.16-.62-0.08,0,0h0Z" transform="translate(3294.25 -3653.26)"/><path class="cls-39" d="M-3230.85,3841.85c0.27,0.12-.27,0,0,0h0Z" transform="translate(3294.25 -3653.26)"/><path class="cls-37" d="M-3229.66,3840.45q1.28,1.08-.36,1.45-1.26-1.08.36-1.45h0Z" transform="translate(3294.25 -3653.26)"/><path class="cls-38" d="M-3230.14,3840.9c0.94,0.24-.94-0.21,0,0h0Z" transform="translate(3294.25 -3653.26)"/><path class="cls-39" d="M-3230.21,3841c0.39,0.1-.42-0.09,0,0h0Z" transform="translate(3294.25 -3653.26)"/><path class="cls-38" d="M-3229.79,3841.5c0.46,0.08-.49-0.11,0,0h0Z" transform="translate(3294.25 -3653.26)"/><path class="cls-39" d="M-3229.84,3841.54c0.34,0.15-.36,0,0,0C-3229.8,3841.55-3229.88,3841.53-3229.84,3841.54Z" transform="translate(3294.25 -3653.26)"/><path class="cls-40" d="M-3242.74,3841.39a37.54,37.54,0,0,0-.14-12.59C-3242.17,3833.47-3245.62,3836.69-3242.74,3841.39Z" transform="translate(3294.25 -3653.26)"/><path class="cls-40" d="M-3243.39,3839.91c-0.45-3.13.24-6.29,0.67-9.43C-3242.25,3833.54-3243,3836.71-3243.39,3839.91Z" transform="translate(3294.25 -3653.26)"/><path class="cls-36" d="M-3242.77,3827.16c4.91-4,7.43,2.39,3.88,6.16l4.81-8C-3236.21,3824.72-3242.1,3823.88-3242.77,3827.16Z" transform="translate(3294.25 -3653.26)"/><path class="cls-26" d="M-3242.76,3827a0.1,0.1,0,0,1,0,0A0.1,0.1,0,0,0-3242.76,3827Z" transform="translate(3294.25 -3653.26)"/><path class="cls-26" d="M-3242.73,3826.83h0Z" transform="translate(3294.25 -3653.26)"/><path class="cls-26" d="M-3242.76,3827c-1.2,5.07-3.77,13.76,2.4,16.7,0.37-2.5,1.65-6.15,1.25-8.53s-4.36-5.36-3.65-8.17C-3243,3828.07-3243.32,3829.21-3242.76,3827Z" transform="translate(3294.25 -3653.26)"/><path class="cls-26" d="M-3240.77,3838.28a1.8,1.8,0,0,1-.46,2.83,1.77,1.77,0,0,1,.46-2.83h0Z" transform="translate(3294.25 -3653.26)"/><path class="cls-26" d="M-3241.1,3839.53c-1.19-.43,1.82.84,0,0C-3241.28,3839.47-3241,3839.6-3241.1,3839.53Z" transform="translate(3294.25 -3653.26)"/><path class="cls-41" d="M-3204.91,3699.86c-13.1-2-8.31,18.82-2.47,11.43,0.26,1.08-1.35,5.66-.68,6.16,3.5,2.65,8.43-.74,9.53-4.41,0.17-.55-4.62-12.85-6.39-13.17h0Z" transform="translate(3294.25 -3653.26)"/><path class="cls-42" d="M-3207.85,3711.37c-6.15,3.74-3.61-4.4-1.16-6.48,7.14-6.08,7.28,3.07,1.16,6.48h0Z" transform="translate(3294.25 -3653.26)"/><path class="cls-43" d="M-3204.3,3701.86c-2-.87-7.71,4.1-7.43,5.51,2.16-8.39,12.38-.78,2.34,4.59,2.8-.37,9.66-8.8,5.09-10.1h0Z" transform="translate(3294.25 -3653.26)"/><path class="cls-44" d="M-3206.94,3711.88c-1.11-1.59.6-2.52,1.66-3.37,2.69-2.16,1.94,8.44-1.66,3.37h0Z" transform="translate(3294.25 -3653.26)"/><path class="cls-45" d="M-3205.28,3708.5c-2.54.48,1.85,1.24,1.75,3.29,0.76-1.17.08-3.66-1.75-3.29h0Z" transform="translate(3294.25 -3653.26)"/><path class="cls-46" d="M-3199.22,3714c-1.08,1.86-6.49,6.59-8.6,3.35q0.23-.38.42-0.79c2.45-.13,7.37-1.19,8.19-2.56C-3199.61,3714.71-3199.15,3713.91-3199.22,3714Z" transform="translate(3294.25 -3653.26)"/><path class="cls-47" d="M-3207.52,3717.39c1.92-1.44,6.79-.4,8.52-3.74-2.27,2.15-7.7,3.19-8.52,3.74C-3207.15,3717.11-3207.6,3717.44-3207.52,3717.39Z" transform="translate(3294.25 -3653.26)"/><path class="cls-42" d="M-3199.36,3707.14c6.41,7.15-8.68,9.4-8.54,10.1-1.38-3.27,1.65-3.88,3.05-4.19a2.26,2.26,0,0,0-.64,1.25c0.75-1.5,2-1.5,2.5-2.86a2.42,2.42,0,0,0,.64,1,4.89,4.89,0,0,1-.47-3.76c-1,2.67-1.06-6.57,3.46-1.58h0Z" transform="translate(3294.25 -3653.26)"/><path class="cls-43" d="M-3202.28,3706.15c-2.77,1.17-1.08,4-.54,2.56a4.89,4.89,0,0,0,.47,3.76,2.42,2.42,0,0,1-.64-1c-0.45,1.36-1.75,1.36-2.5,2.86a2.26,2.26,0,0,1,.64-1.25,2.07,2.07,0,0,1-1.71-.42l-0.41.95c0.85-.37,1.69,1.32,1.27,1.68,0.63-.55,3.24-2.18,3.34-2.31,0.48-.65-0.24-5.58.32-5.7,0,0-1.15,1.13-1.32.7,0,0.11,6.06-.34,2.28,5.59-0.72,1.13-4.38,4-5.7,3.25,7.3,3.31,9.73-12.71,4.49-10.63C-3202.72,3706.34-3201.23,3705.74-3202.28,3706.15Z" transform="translate(3294.25 -3653.26)"/><path class="cls-42" d="M-3207.12,3716.56c-1-.79-0.55-0.26,0,0C-3207.3,3716.42-3207.21,3716.51-3207.12,3716.56Z" transform="translate(3294.25 -3653.26)"/><path class="cls-46" d="M-3203.36,3701.44c0.63,1.19,0,2.86.57,4-1.38-1.33,0-5-3.41-4.4a6.2,6.2,0,0,1,1.53.54c-2.35.22-1.94,1.11-4.63,0.53a9.12,9.12,0,0,0,1.17.47c-2.23.14,0,3.89-2.6,1.26,1,2.06-.39,1.46-1.13,4.78a9.63,9.63,0,0,1-.75-2.55c-0.14,1.81-.54,2.72-0.66,4a11.16,11.16,0,0,1-.46-2.26c-0.32,1.29.74,3.84,2.26,4.06-7.76,1.09,3.77-18.73,8.1-10.46C-3202.92,3702.27-3203.8,3700.6-3203.36,3701.44Z" transform="translate(3294.25 -3653.26)"/><path class="cls-47" d="M-3206.22,3702.7c0.59-.41.76-1,1.55-1.12-4.05-2-9,5.75-9,5.64-0.86,1.78-.45,5.06,2.19,4.69-1.58-.23-2.59-2.76-2.26-4.06a11.16,11.16,0,0,0,.46,2.26c0.12-1.32.52-2.23,0.66-4a9.63,9.63,0,0,0,.75,2.55c0.67-3,2.07-2.91,1.13-4.78,3,3,.17-1.11,2.6-1.26a9.12,9.12,0,0,1-1.17-.47c0.91,0.19,2.15,1.21,3.08.59h0Z" transform="translate(3294.25 -3653.26)"/><path class="cls-47" d="M-3205.78,3700.26c0-.45,2.76,5,3,5.18-0.71-1.31.13-6-3-5.18C-3205.79,3700.31-3205.73,3700.24-3205.78,3700.26Z" transform="translate(3294.25 -3653.26)"/><path class="cls-20" d="M-3207,3710.49c0.26,0.52.48,2.23,1.72,1.69-0.27.11-1.63-1.39-1.72-1.69h0Z" transform="translate(3294.25 -3653.26)"/><path class="cls-20" d="M-3204.42,3711.77c-1.28.43,0.59-.22,0,0h0Z" transform="translate(3294.25 -3653.26)"/><path class="cls-48" d="M-3205.45,3716.36c0-.08,0,2.17,1,1.31-0.28.2-.93-1.14-1-1.31S-3205.36,3716.62-3205.45,3716.36Z" transform="translate(3294.25 -3653.26)"/><path class="cls-20" d="M-3209.69,3711.05c0.26,0-3.07-.4-3-1-0.24,1.51,3.11.95,3,1C-3210.33,3711.08-3209.55,3711-3209.69,3711.05Z" transform="translate(3294.25 -3653.26)"/><path class="cls-20" d="M-3208.94,3711c-0.75.22,0.32,0,0,0h0Z" transform="translate(3294.25 -3653.26)"/><path class="cls-20" d="M-3207.08,3714.26c0-.13-0.68,2.65.33,2-0.24.18-.36-2.07-0.33-2S-3207.1,3714.2-3207.08,3714.26Z" transform="translate(3294.25 -3653.26)"/><path class="cls-20" d="M-3206.23,3716.25c-0.47.15,0.39-.19,0,0h0Z" transform="translate(3294.25 -3653.26)"/><path class="cls-49" d="M-3008.43,3654.66l-10.66-1.4-0.81,9.35c-3.51-5.71-1.92-4.78-7.31-4-3.72.53-14,4.68-15.91,8-3.84,6.64,4.34,17.44,1.15,23.82-3.07,6.14-22.32,6.79-29.12,7.58-11.08,1.28-9.45,2.74-12.95,12.33-0.86-3.24-1.52-9.95-3.85-11.35-3.36-2-17.68,1.86-21.6,2.17-5.85.46-18.82-1.53-23.59,1.6-3.61,2.37-4.62,8.3-6.25,12.49-0.88-2.71-.69-7.28-1.87-9.63-2-4.06-.47-2-4-3.42-2.6-1-9.52-.58-12.12-0.19-4.82.71-4.6,1-8.55,4.66,1.26-8.09-8.67-6.76-14.38-8.27-8.74-2.32-12.28-6.94-15.13,3.86-2.66-5.41-2.29-8-7.25-11-4.42-2.71-14.74-1.63-18.13-5.31-3.15-3.42,2.39-8.49.62-12-0.51-1-13.11-7.21-14.45-7.3-5.69-.4-28,14.85-29.91,19.89-2.89,7.46.2,22,.14,29.91-0.28,33.68-1.75,63.6-15.33,94.82-9.58,22-24.57,42.82.5,60.66,15.19,10.81,41.24,13,59.56,12.48,8.48-.24,7.43-2.29,11.79-10.52l0.68,7.3a145.6,145.6,0,0,1,17-1.74c7.79-.17,8,0.84,11.93-6.1-0.3,8.88,10.29,6.67,17,6,5.24-.55,3.89,1.67,6.91-3.66,0.59-1,6.54-14.82,6.38-15.15,2,4,.27,8.62,1,12.7,1.09,5.94-.33,4.58,7,5.41,6.18,0.7,16.26,4.79,22.26,4.11,5.14-.58,5.4-2.66,8.76-7.52,0.54,3.57.43,7.24,2.61,9.16,2.44,2.15,12.94,2.76,16.49,3.9,4.4,1.41,10.59,4.52,15.3,2.11,3.69-1.89,3.41-3.68,4.89-8.53l1.26,8c26.25-9,55.6-15.86,64.44-45,7.33-24.13,12.16-49.76,15.82-74.71,2.6-17.71-3.26-37.15-5.42-54.76-1.59-13-3.33-26.17-3.27-39.27,0.06-11,4.05-19.42-11.59-21.45h0Z" transform="translate(3294.25 -3653.26)"/><path class="cls-50" d="M-3266.34,3835c-2.63,5.55-5.52,10.77-7.54,16.6,6.94,1.13,16.93,2.86,19.86-6.66C-3251,3835-3260.19,3835.39-3266.34,3835Z" transform="translate(3294.25 -3653.26)"/><g class="cls-51"><path class="cls-50" d="M-3266.34,3835q-1.29,2.71-2.68,5.38c5.83,2.87,11.21,7.07,3.64,13.23,5.83,2.06,11.83-8.74,10.83-13.15C-3256.1,3833.65-3259.8,3835.42-3266.34,3835Z" transform="translate(3294.25 -3653.26)"/></g><g class="cls-52"><path class="cls-2" d="M-3287,3844.49l2.65-6.51c0.47,0.88,4.39,4.43,4.42,4.79-0.22-2.8,2-6.65,3-9.26l3.12,8.42c4.18-3.53,8.88-5.92,8.85-10.54,0-2.93-6.87-16.1-10-17.06-8.71-2.68-24.19,30.85-17.28,37.93Z" transform="translate(3294.25 -3653.26)"/></g><path class="cls-53" d="M-3289.6,3845l5.26-9c1.13,1.77,2.89,3.2,3.92,5a116.82,116.82,0,0,0,6-15.71c0.82,5.55-.41,11.05.6,16.61,5.27-4.45,4-4.75,9.31-2.57,3.49,1.44,7.34,4.82,10.72,6.69,1-11.12,3.76-21.52,5.9-32.42,3.46-17.64,2.21-35.47,5.09-53.16,2.84-17.4,9.95-34.13,14.19-51.28,2.23-9,8.33-21.76,7.5-31.16-0.54-6.09-.63-4.31-7.21-7.73-7.08-3.67-7.29-4-14.66.6-6.84,4.32-19.51,9.15-21.55,17.14-2.2,8.6.18,21,.1,29.88-0.14,14.29-.43,28.61-1.57,42.86a139.35,139.35,0,0,1-10.58,43c-3.83,9.33-8.16,18.43-12.28,27.64-1.92,4.29-5.66,10.08-5.39,14.94C-3292.82,3845.93-3290.9,3845.73-3289.6,3845Z" transform="translate(3294.25 -3653.26)"/><g class="cls-54"><path class="cls-55" d="M-3255.32,3678.95c-8.18,4.46-8.56,4.83-9.13,12.35-0.79,10.28.14,21,0,31.27-0.38,27.17-.87,53.42-11.17,78.92,8.13-15.07,13.2-31.85,19.4-47.8,2.54-6.54,5.16-13.06,7.46-19.69,0.71-2,4.37-19.1,5.72-19.71-2.9,1.32-21.11,49.18-21.49,48.73-2.93-3.51-.33-17.34-0.19-21.54,0.37-11.48.93-22.95,1.44-34.42,0.25-5.67-.72-13.19,1.39-18.56,3.43-8.73,24.13-20.88,31.57-14.16,7.59,6.86-.85,29.56-2.71,37.43-3.94,16.69-10,32.71-14.24,49.3-3.88,15-5.7,30.42-6.53,45.88-0.41,7.52.22,15,0,22.48-0.14,4.38-4.55,15.14.08,16.63,1.56-16.73,7-32.65,8.47-49.39,1-11.32.48-22.61,2.15-33.91,1.81-12.27,6.38-23.48,9.79-35.31,4.42-15.33,8.66-31.32,11.75-46.73,1.59-7.92-1.38-10.35-10.15-12.81-8.23-2.31-16.11,7-23.58,11h0Z" transform="translate(3294.25 -3653.26)"/></g><path class="cls-56" d="M-3286.67,3830.33c8.45-17.68,16.59-35.18,23.46-53.53,3.55-9.48,7.32-18.86,10.92-28.31,1.86-4.87,5.26-24.11,10.45-26.28-1.35.57-6.91,31.83-7.56,35.91-2.77,17.38-8.23,31.5-6.79,49.25,0.56,6.95.95,16.14-1.73,22.75-2.93,7.24-2.92,4.82-8.82,3.65-4.54-.9-3.47,2.91-5.61-1-0.73-1.33,1.28-22,1.17-22-3.62.24-6.49,22.61-10.34,21.74-4-.91.61-1.88-3.86-0.26-0.39.14-3.09,4.21-3.09,4.17C-3288.57,3834.85-3287,3831.45-3286.67,3830.33Z" transform="translate(3294.25 -3653.26)"/><g class="cls-57"><path class="cls-55" d="M-3246.83,3778.2c2.22,22.7-9.64,45.68-6.93,67.85,1.2-13,4.76-25.13,6.91-37.95,3-18.1,1.33-36.49,5.36-54.5,1.64-7.35,26.12-77.85,20.28-80.11-3,17.16-8.56,34.08-13.32,50.79-4.67,16.37-14,36.93-12.3,53.9C-3246,3786.58-3247.65,3769.82-3246.83,3778.2Z" transform="translate(3294.25 -3653.26)"/></g><path class="cls-56" d="M-3262.44,3749.4c-0.52-19-7.15-56,11.89-66.85,4.9-2.8,17-10.44,19.2-2,1.67,6.32-7.86,18.65-10.54,23.85-2.47,4.81-7.74,25.48-12.39,27.25-4.29,1.64-4.87-7-3.49-8C-3261.78,3726.52-3262.5,3744.67-3262.44,3749.4Z" transform="translate(3294.25 -3653.26)"/><path class="cls-50" d="M-3046.82,3846.51c2-8.23,4.05-16.53,5.28-24.91-8.73-.26-27.89,7.72-26.65,19.73,0.63,6.09,14.63,15,20,17,6.58,2.47,15.86.14,18.87-7.55A35.57,35.57,0,0,0-3046.82,3846.51Z" transform="translate(3294.25 -3653.26)"/><path class="cls-58" d="M-3046.82,3846.51a34.78,34.78,0,0,1,17.47,4.26c3.34-8.51,4.86-23.79-5.29-28.2-7.92-3.44-7.3,1.85-8.59,8.16C-3044.3,3836-3045.54,3841.28-3046.82,3846.51Z" transform="translate(3294.25 -3653.26)"/><path class="cls-59" d="M-3065,3843.23c-0.62-6.88,19.63-13,19-.21,1.68-7.08,3.38-14.22,4.44-21.42-11.86-.35-35,13.3-22,26l-1.43-4.38C-3065.35,3839.18-3064.88,3844.5-3065,3843.23Z" transform="translate(3294.25 -3653.26)"/><path class="cls-59" d="M-3040.13,3854.93c-1.4,2.8-3.83,4-6.89,4.18,5.47,3.23,15.6-3.05,17.67-8.34a38.68,38.68,0,0,0-10.46-3.69c7.4,3.9,1.34,4.53-.32,7.84C-3041.51,3857.71-3038.23,3851.14-3040.13,3854.93Z" transform="translate(3294.25 -3653.26)"/><g class="cls-60"><path class="cls-58" d="M-3041.54,3821.6c-0.62,4.26-1.53,8.51-2.45,12.72,4.94-1.47,8.47.16,10.75,5,2.62,5.54-1.77,8.52,3.89,11.47,4.89-12.46,3.44-28.7-12.19-29.17C-3042,3825.08-3037.74,3821.72-3041.54,3821.6Z" transform="translate(3294.25 -3653.26)"/></g><path class="cls-55" d="M-3008.43,3654.66l-10.66-1.4-0.81,9.35c-2.8-4.56-2.18-4.43-6-4.62-2.61-.13-13.41,4.74-15.39,6.76-5.32,5.43-1.73,14.79-1,21.85q2.22,22.38,3.6,44.85c0.42,7,1.16,14,1.49,20.89,0.5,10.64-7.49,22.24-11.19,32.24-3.41,9.21-6.36,18.59-9.84,27.77-2.32,6.11-8.21,15.29-7.5,21.89-0.11-1.08,11-.19,11.63-0.75-0.53.46,4.83-11.06,4.76-10.43-1.89,15.73,12.63,4.63,21.35,9.56,8.46,4.78,10.85,20.31,17.77,27.08,10.63-13.33,12.34-38,15.6-54.15,2.85-14.1,7.58-29.62,7.24-44.09-0.48-20.32-5.81-41.06-7.83-61.31-1-9.56-2.21-19.56-1.42-29.18,0.77-9.31.83-14.68-11.72-16.32h0Z" transform="translate(3294.25 -3653.26)"/><g class="cls-61"><path class="cls-55" d="M-3020.37,3699.15c0.2-2-4.64,9.34-5.49,11.58-1.21,3.17-3.43,13.38-8.15,13.16-5.24-.24-3.34-24.7-3.69-28.4-0.91-9.54-5.53-19.07-5.75-28.5-4.14,6,1.91,28.07,2.6,36.5,1.38,16.93,5.2,36.75,3.69,53.66,7.48-16.66,15-39.72,16.79-58C-3019.71,3692.36-3021,3705.95-3020.37,3699.15Z" transform="translate(3294.25 -3653.26)"/><path class="cls-55" d="M-3001.5,3677.27c-2.46,29.17,5,58.48,1.83,87.62-1.84,17.08-5.21,34-7.1,51.06-1.15,10.46-1.61,21-3.05,31.43-0.54,3.86-3,9.39-.49,12.32,10.4-13,12.09-36.9,15.3-52.65,2.89-14.18,7.71-29.92,7.65-44.48-0.08-18.58-5.25-37.93-7.29-56.39-1.18-10.65-2.48-21.52-2.17-32.25,0.26-9,3.95-14.92-7.95-18.51,5.81,5.83,3.88,14.32,3.27,21.84C-3003.1,3696.3-3000.16,3660.81-3001.5,3677.27Z" transform="translate(3294.25 -3653.26)"/></g><path class="cls-56" d="M-3060.75,3823.48c7.78-19.06,14.14-38.67,21.8-57.8,4.63-11.55,9.25-22.92,12.7-34.91,1.07-3.72,10.19-38.54,4.63-36.34-5.06,2-2.1,17.15-7.6,19-4.56,1.56-3.67-7.8-4.32-11.72-0.73-4.41-11.27-31.35-8.78-34,4.61-4.9,13.64,24.89,20.84,19.82,2.76-1.95,2.37-33.45,4.43-32.39,16.69,8.58,8.81,54.07,9.12,69.28,0.37,18.64,3.21,34.12-.35,52.63-2,10.52-4.47,21-7.07,31.37-1.29,5.16-2.25,18.4-6,22.26-5.14,5.34-3.82-7.68-12.14-6.48-3.83.55-6.39,5.83-10.48,3.78-3.51-1.76-2.66-10.57-5.71-12.14C-3045,3818.28-3070.24,3842.64-3060.75,3823.48Z" transform="translate(3294.25 -3653.26)"/><g class="cls-62"><path class="cls-55" d="M-2996.85,3686.93c-0.82,26,7.51,52,6.45,77.9-1.29,31.43-9.83,63.65-18.89,93.56,9.43-14.07,11.25-36.35,14.53-52.53,2.77-13.65,7.38-28.81,7.43-42.82,0.06-17.16-4.8-35.23-6.8-52.25-1.21-10.34-2.4-20.76-2.65-31.17-0.11-4.68,2.78-15.21.15-18.74-0.39,8.75,0,17.32-.22,26.06C-2997.18,3697.38-2996.53,3676.5-2996.85,3686.93Z" transform="translate(3294.25 -3653.26)"/></g></g></g></svg>