<svg xmlns="http://www.w3.org/2000/svg" xmlns:xlink="http://www.w3.org/1999/xlink" viewBox="0 0 132.97 176.33"><defs><style>.cls-1{fill:none;}.cls-2{isolation:isolate;}.cls-3{fill:#272929;}.cls-4{fill:#383a39;}.cls-5{opacity:0.5;}.cls-16,.cls-5,.cls-6{mix-blend-mode:multiply;}.cls-7{fill:#575857;}.cls-8{fill:#fff;}.cls-9{fill:#3e4040;}.cls-10{fill:#4e5050;}.cls-11{fill:#666665;}.cls-12,.cls-14{fill:#faeeba;}.cls-13{fill:#e9d195;}.cls-14{mix-blend-mode:screen;}.cls-15{fill:#f96f14;}.cls-16{fill:#f1cb0c;}.cls-17{clip-path:url(#clip-path);}.cls-18{fill:#a77b62;}</style><clipPath id="clip-path" transform="translate(2649.57 -3898.79)"><path class="cls-1" d="M-2555,3942.72c-6.81-18,11.29-14.76,21.33-21,2.65-1.65,11.8-9.6,8.44-13.54-4-4.68-6.56,3.35-7.61,4.85-7.07,10.18-16.07,6.9-25.35,13.55-4.28,3.07-7.17,9.6-5.07,14.89C-2561.57,3945.82-2553.9,3945.76-2555,3942.72Z"/></clipPath></defs><title>artefact_09</title><g class="cls-2"><g id="Layer_1" data-name="Layer 1"><path class="cls-3" d="M-2518.49,4010.75c0,35.56-30.32,64.37-65.53,64.37s-65.54-28.81-65.54-64.37,30.32-64.37,65.54-64.37S-2518.49,3975.18-2518.49,4010.75Z" transform="translate(2649.57 -3898.79)"/><path class="cls-4" d="M-2538.56,4002c2.88,30.95-21.15,55.52-51.82,55.38-30.31-.14-59.79-27.59-52.84-59.28,4-18.19,27.1-54.3,50.23-44,6.23,2.76,11.17,8.65,17.19,12,5.42,3,11.21,5,16.87,7.46,13.15,5.77,19,13.84,20.37,28.47C-2535.7,4032.69-2541.75,3967.75-2538.56,4002Z" transform="translate(2649.57 -3898.79)"/><g class="cls-5"><path class="cls-3" d="M-2584,3946.38a66.59,66.59,0,0,0-31.55,7.94c9.57-3.09,18.52-8,27.92-2,7.76,5,13.44,10.73,22.66,13.71,6.4,2.07,14.17,1,20.05,4,22.61,11.4,18.21,53.74,6.86,70.38-14.61,21.42-42.7,27.51-66.81,21.18-27.63-7.26-44.39-30.74-44.11-59.09-7.68,58.83,65.08,94.61,108.71,56.18C-2496,4019.67-2526,3946.38-2584,3946.38Z" transform="translate(2649.57 -3898.79)"/></g><path class="cls-3" d="M-2575.31,3938.57c-3,9.52-7.18,13.86,2.76,19.64,5.17,3,15.47,7.92,21.8,6.8,5.4-1,4.23-1.38,6.17-6.49,3.63-9.59,1.26-8.27-7.71-11.55Z" transform="translate(2649.57 -3898.79)"/><g class="cls-6"><path class="cls-3" d="M-2575.31,3938.57c-6.12,10.31,21.39,10.77,23.58,16.34,5.18,13.16-26-2.18-27.66-3.56,0.78,7.77,20.74,13.79,27.18,13.59,4.74-.15,4.28-0.09,6.55-3.09,0.62-.82,3.9-9.44,3.37-10.59C-2544.79,3945.79-2568.74,3941-2575.31,3938.57Z" transform="translate(2649.57 -3898.79)"/></g><path class="cls-4" d="M-2575.34,3944.39c3.45,2.94,21,8.4,12.93,13.64-3.36,2.17-11.79-4.1-13.17-6.93C-2575.52,3951.21-2578.61,3942.58-2575.34,3944.39Z" transform="translate(2649.57 -3898.79)"/><path class="cls-7" d="M-2568.86,3952c-1.59,2.53-8.69-1.87-7.1-4.41s8.68,1.87,7.1,4.41C-2569.49,3953-2568.24,3951-2568.86,3952Z" transform="translate(2649.57 -3898.79)"/><path class="cls-8" d="M-2581.34,3986.19c-11.84-.45-22.25,4.69-23.82,17.16a111.31,111.31,0,0,1-3.48,16.77c-0.85,3.17-3.33,8.12,2.35,6.68-2.13,3.48-.46,7.4,3.47,8.19,2.49,0.5,3.09-3.91,6.52-2.8,0.67,0.22-1.5,13.25,7.69,2.48-0.5,3.92,1.09,6.17,4.92,4.51,2.87-1.24,3-6.75,4.71-9.07,4.25-5.86,11.83-7.41,15-14.65,5.45-12.61-3.77-28-17.33-29.27C-2602.18,3985.41-2563.81,3987.77-2581.34,3986.19Zm-4.12,17.14c-3.18,11.84-17.52,8-14.34-3.83s17.53-8,14.34,3.83h0Zm17.16,8.63c-5.41,10.85-18.71,4.27-13.29-6.6s18.71-4.27,13.29,6.6h0Z" transform="translate(2649.57 -3898.79)"/><path class="cls-8" d="M-2600.76,3987.77c-3.47,4.38-5-.25-7.49-1.89-2.17-1.42-5.58,3.15-5-3,0.32-3.33,2.15-4.44,4.74-3.15,0.7-5.69,5.13-4,7-.73C-2601.31,3979.41-2601.18,3986.31-2600.76,3987.77Z" transform="translate(2649.57 -3898.79)"/><path class="cls-8" d="M-2560.18,3998.78c2.31,6.51,5.36,1.54,9.63.75,3.87-.72,7.39,3.25,8.19-2.32-0.13.93-5.17-8.24-5.51-8.42-3.85-2-3.48,2.24-4.88,3.54-0.68.63,0.57,2.28-.35,3.21C-2554.59,3997.05-2558.21,3997.88-2560.18,3998.78Z" transform="translate(2649.57 -3898.79)"/><path class="cls-8" d="M-2609.44,4035.61c4.7,3.6,28.12,7.76,16.41,11.85-4.3,1.5-14-1.54-16.53-5.7C-2610.26,4040.63-2613.22,4035.12-2609.44,4035.61Z" transform="translate(2649.57 -3898.79)"/><path class="cls-8" d="M-2614.5,4025.39a39,39,0,0,0-6.67,5.26c-1.2,1.29-.05,4.86-3.51,4.86-3.77,0-2.74-5.21-2.87-6.45-0.25-2.28-2-2.12-.23-4.88-0.26.39,8.14-2.64,8-2.65C-2616.77,4021.75-2615.46,4019.18-2614.5,4025.39Z" transform="translate(2649.57 -3898.79)"/><path class="cls-8" d="M-2578.18,4039.24c1,1.54,2.52,3.27,3.17,5,0.91,2.41.11,3.19,0.56,4.6,0.74,2.31-2.41,4,2,4.6,2.25,0.28,3-2.72,2.92-4.44,1.18,0.41,5,1.33,5.06-1.26,0.21-6.78-2.24-.67-4.58-3.14C-2572.19,4041.24-2573,4034.48-2578.18,4039.24Z" transform="translate(2649.57 -3898.79)"/><path class="cls-9" d="M-2542.1,3950.7c-2.39,6.51-35.71-7.52-33.22-12.13,3.22-6,35.22,6.71,33.22,12.13h0Z" transform="translate(2649.57 -3898.79)"/><path class="cls-10" d="M-2546.45,3948.77c-1.8,4.88-29.69-5.32-27.91-10.19S-2544.65,3943.88-2546.45,3948.77Z" transform="translate(2649.57 -3898.79)"/><path class="cls-3" d="M-2550.47,3947.28c-1.38,3.75-18.93-2.66-17.56-6.41s18.82,3,17.56,6.41h0Z" transform="translate(2649.57 -3898.79)"/><path class="cls-7" d="M-2601.87,3961.8c-8.6,3.13-16,9.68-21.09,17.13-2.1,3-8.83,24.26-13.6,14.84-4.39-8.67,7.92-23.59,13.22-28.43,3.81-3.48,15-12.86,21.24-10.07C-2598.94,3956.68-2596.73,3960.3-2601.87,3961.8Z" transform="translate(2649.57 -3898.79)"/><path class="cls-11" d="M-2603.94,3960.89c-5.44,1.72-18.47,16.59-19.21,8.83-0.43-4.53,7.61-9.2,10.85-10.58,1.05-.45,7.9-3.37,9.2-1.4C-2602.32,3958.93-2601.23,3960.63-2603.94,3960.89Z" transform="translate(2649.57 -3898.79)"/><path class="cls-7" d="M-2632.19,4006a5.38,5.38,0,1,1-10.74,0C-2642.92,3998.51-2632.19,3998-2632.19,4006Z" transform="translate(2649.57 -3898.79)"/><path class="cls-12" d="M-2555,3942.72c-6.81-18,11.29-14.76,21.33-21,2.65-1.65,11.8-9.6,8.44-13.54-4-4.68-6.56,3.35-7.61,4.85-7.07,10.18-16.07,6.9-25.35,13.55-4.28,3.07-7.17,9.6-5.07,14.89C-2561.57,3945.82-2553.9,3945.76-2555,3942.72Z" transform="translate(2649.57 -3898.79)"/><path class="cls-13" d="M-2526.88,3907.38c-1.7,14.61-14.14,13.37-24.6,18.71-4.68,2.39-6,4.3-7.41,9.07-0.77,2.59,2.11,9.31-3.94,8.09,1.23,4.11,6.23,2.18,7.79-.53,1.2-2.09-2.34-8.34-.56-11.66,1.55-2.9,3.8-3.34,6.55-4.62,5.91-2.76,12.64-2,18-6.45,1.66-1.39,10.08-12.39,4.18-12.61C-2528.16,3918.36-2525.73,3907.43-2526.88,3907.38Z" transform="translate(2649.57 -3898.79)"/><path class="cls-14" d="M-2560.34,3938.67c-0.46-2.64,2.16-7.32,1.49-9.09-0.22-.58-7.94,7.69-2.85,10.68A1.31,1.31,0,0,0-2560.34,3938.67Z" transform="translate(2649.57 -3898.79)"/><path class="cls-14" d="M-2530.65,3910c-0.25,1.32-3.83,7.43-3.58,7.74,1.2,1.53,7.64-6.73,5.26-9A1.34,1.34,0,0,0-2530.65,3910Z" transform="translate(2649.57 -3898.79)"/><path class="cls-15" d="M-2536.2,3910.27c-1.54-.34-6.64,2.64-5.58,2.86C-2540.46,3913.39-2536.1,3910.29-2536.2,3910.27Z" transform="translate(2649.57 -3898.79)"/><path class="cls-16" d="M-2535.16,3907.07a4.51,4.51,0,0,0-4-2.29C-2540.68,3904.79-2534.78,3907.78-2535.16,3907.07Z" transform="translate(2649.57 -3898.79)"/><path class="cls-15" d="M-2530.05,3905.82c-1.85,0-1.31-3.62-2.49-3.43C-2537.45,3903.16-2529.2,3905.84-2530.05,3905.82Z" transform="translate(2649.57 -3898.79)"/><path class="cls-16" d="M-2528.11,3902.33c-0.13-.16,1.55-4.31-0.06-3.41C-2532,3901-2528,3902.46-2528.11,3902.33Z" transform="translate(2649.57 -3898.79)"/><path class="cls-15" d="M-2525,3904.83c0.62-2.22,2.94-.65,3.63-2.2,0.31-.68-4.68-0.6-5.39,2Q-2526.11,3906.12-2525,3904.83Z" transform="translate(2649.57 -3898.79)"/><path class="cls-16" d="M-2520.41,3906.16a11.62,11.62,0,0,1,3.34-.37c0.49-.42-3.2-1.94-4.53-0.39Q-2521.67,3906.7-2520.41,3906.16Z" transform="translate(2649.57 -3898.79)"/><path class="cls-15" d="M-2520.91,3908.9c-1.09,1.14,4.76.85,4.29,0.52-1.45-1-4.41-2.08-6-.41Q-2521.87,3909.83-2520.91,3908.9Z" transform="translate(2649.57 -3898.79)"/><g class="cls-17"><path class="cls-18" d="M-2561.2,3942.39a9.06,9.06,0,0,1-4.06-1c0.12-.08.8-1.53,0.24-0.41,2.71,0.73,7,.42,9.56-2.13l0.68,0.68A8.9,8.9,0,0,1-2561.2,3942.39Z" transform="translate(2649.57 -3898.79)"/><path class="cls-18" d="M-2559.68,3936.51a9.37,9.37,0,0,1-6.22-2.83c2.74,0.37,6.5,3.3,10.27.35l0.59,0.75A7.43,7.43,0,0,1-2559.68,3936.51Z" transform="translate(2649.57 -3898.79)"/><path class="cls-18" d="M-2554.38,3930c-2.87,0-5.93-1.6-6.27-4.77l1-.09c0.93,3.63,4.3,4.31,7.65,3.67l0.18,0.94Z" transform="translate(2649.57 -3898.79)"/><path class="cls-18" d="M-2545.47,3927.44c-3.62-.23-6-3-3.85-6.49l0.83,0.48C-2549.77,3924.65-2547.31,3926.57-2545.47,3927.44Z" transform="translate(2649.57 -3898.79)"/><path class="cls-18" d="M-2539.26,3925.87c-3-.18-4.5-3.44-5-6l0.94-.16C-2543,3922.33-2540.46,3924.62-2539.26,3925.87Z" transform="translate(2649.57 -3898.79)"/><path class="cls-18" d="M-2532.17,3922.35c-3,0-5.54-2.55-6.25-5.33,1.12,1.3,4.49,4.87,7.51,4.23C-2530.41,3922.34-2530.89,3922.35-2532.17,3922.35Z" transform="translate(2649.57 -3898.79)"/><path class="cls-18" d="M-2528.06,3915.43a8.58,8.58,0,0,1-6.93-3.63l0.79-.53c2.18,3.27,6.66,3.85,10,2.25l0.41,0.86Z" transform="translate(2649.57 -3898.79)"/></g></g></g></svg>