<svg xmlns="http://www.w3.org/2000/svg" xmlns:xlink="http://www.w3.org/1999/xlink" viewBox="0 0 230.07 213.44"><defs><style>.cls-1{isolation:isolate;}.cls-2{opacity:0.44;fill:url(#linear-gradient);}.cls-11,.cls-14,.cls-15,.cls-18,.cls-2,.cls-20,.cls-21,.cls-22,.cls-25,.cls-26,.cls-33,.cls-35,.cls-37,.cls-39,.cls-42,.cls-46,.cls-48,.cls-49,.cls-6,.cls-7,.cls-9{mix-blend-mode:multiply;}.cls-3{fill:#d39d31;}.cls-4{fill:url(#linear-gradient-2);}.cls-5{fill:#957b63;}.cls-6{fill:url(#linear-gradient-3);}.cls-8{fill:url(#linear-gradient-4);}.cls-9{fill:url(#linear-gradient-5);}.cls-10{fill:url(#linear-gradient-6);}.cls-11,.cls-14,.cls-15{opacity:0.5;}.cls-11{fill:url(#linear-gradient-7);}.cls-12{fill:#b3b3b3;}.cls-13{fill:#999a9c;}.cls-14{fill:url(#linear-gradient-8);}.cls-16{fill:url(#linear-gradient-9);}.cls-17,.cls-18,.cls-35{opacity:0.3;}.cls-17,.cls-28,.cls-30,.cls-32{mix-blend-mode:screen;}.cls-17{fill:url(#linear-gradient-10);}.cls-18{fill:url(#linear-gradient-11);}.cls-19,.cls-21,.cls-22{fill:#272929;}.cls-20,.cls-23,.cls-41,.cls-45{fill:#fff;}.cls-22{opacity:0.56;}.cls-24,.cls-25{fill:#d81f26;}.cls-26,.cls-27{fill:#e2e3e4;}.cls-29,.cls-30{fill:#ce5a29;}.cls-31,.cls-32{fill:#f1cb0c;}.cls-33{fill:#dedfe0;}.cls-34{fill:#49494b;}.cls-36,.cls-37{fill:#ef8400;}.cls-37,.cls-46{opacity:0.33;}.cls-38,.cls-39,.cls-42{fill:#f9b407;}.cls-39{opacity:0.75;}.cls-40{fill:#2c2c2e;}.cls-41{opacity:0.1;}.cls-42{opacity:0.25;}.cls-43{fill:#8a8c8d;}.cls-44{fill:#a9aaac;}.cls-45{opacity:0.28;}.cls-46{fill:#d4760a;}.cls-47{fill:#272729;}.cls-48{opacity:0.24;}.cls-49{opacity:0.4;}.cls-50{fill:#fecf0a;}.cls-51{fill:#ffe100;}.cls-52{opacity:0.19;}.cls-52,.cls-53{mix-blend-mode:overlay;}.cls-53{opacity:0.09;}</style><linearGradient id="linear-gradient" x1="2852.91" y1="3505.92" x2="2852.91" y2="3726.24" gradientTransform="matrix(-1, 0.06, 0.06, 1, -179.22, -0.61)" gradientUnits="userSpaceOnUse"><stop offset="0.09" stop-color="#efe471"/><stop offset="0.2" stop-color="#e6df61"/><stop offset="0.48" stop-color="#93bd43"/><stop offset="0.59" stop-color="#83b542"/><stop offset="0.77" stop-color="#62a540"/><stop offset="1" stop-color="#235221"/></linearGradient><linearGradient id="linear-gradient-2" x1="2876.29" y1="3666.71" x2="2940.17" y2="3666.71" gradientTransform="matrix(-1, 0.06, 0.06, 1, -179.22, -0.61)" gradientUnits="userSpaceOnUse"><stop offset="0.37" stop-color="#d3c2b3"/><stop offset="0.69" stop-color="#a99179"/><stop offset="0.95" stop-color="#8a6d4e"/></linearGradient><linearGradient id="linear-gradient-3" x1="2876.76" y1="3668.06" x2="2918.23" y2="3668.06" gradientTransform="matrix(-1, 0.06, 0.06, 1, -179.22, -0.61)" gradientUnits="userSpaceOnUse"><stop offset="0.29" stop-color="#d3c2b3"/><stop offset="0.39" stop-color="#c6b3a2"/><stop offset="0.66" stop-color="#a68d74"/><stop offset="0.88" stop-color="#927658"/><stop offset="1" stop-color="#8a6d4e"/></linearGradient><linearGradient id="linear-gradient-4" x1="2880.34" y1="3677.26" x2="2940.23" y2="3677.26" xlink:href="#linear-gradient-3"/><linearGradient id="linear-gradient-5" x1="2886.55" y1="3647.29" x2="2900.36" y2="3647.29" xlink:href="#linear-gradient-3"/><linearGradient id="linear-gradient-6" x1="2760.58" y1="3664.57" x2="2899.1" y2="3664.57" xlink:href="#linear-gradient-2"/><linearGradient id="linear-gradient-7" x1="2842.89" y1="3666.13" x2="2898.65" y2="3666.13" xlink:href="#linear-gradient-3"/><linearGradient id="linear-gradient-8" x1="2760.25" y1="3677" x2="2853.3" y2="3677" xlink:href="#linear-gradient-3"/><linearGradient id="linear-gradient-9" x1="2844.6" y1="3672.22" x2="2899.05" y2="3672.22" xlink:href="#linear-gradient-3"/><linearGradient id="linear-gradient-10" x1="2801.95" y1="3646.14" x2="2841.09" y2="3646.14" gradientTransform="matrix(-1, 0.06, 0.06, 1, -179.22, -0.61)" gradientUnits="userSpaceOnUse"><stop offset="0" stop-color="#eae2da"/><stop offset="0.39" stop-color="#dacbbe"/><stop offset="0.62" stop-color="#d3c2b3"/><stop offset="0.81" stop-color="#a99179"/><stop offset="0.95" stop-color="#8a6d4e"/></linearGradient><linearGradient id="linear-gradient-11" x1="2768.64" y1="3677.7" x2="2827.48" y2="3677.7" xlink:href="#linear-gradient-3"/></defs><title>artefact_03</title><g class="cls-1"><g id="Layer_1" data-name="Layer 1"><path class="cls-2" d="M-2757.3,3848.37a331.05,331.05,0,0,1,40.39,2.88c10.69,1.55,30.6,6.28,11.34,14.91-22.09,9.9-50.26,9.1-73.92,8.67-20.8-.37-43.78-0.51-63.95-6.34-14.09-4.08-28-5-42.66-6.27-7.44-.64-40.54-0.43-41.45-11.37-1.89-22.59,85.75-18,96.41-17.6,21.39,0.7,43.19,1.9,64.23,6C-2761.73,3840.25-2742.85,3844.7-2757.3,3848.37Z" transform="translate(2927.58 -3661.6)"/><path class="cls-3" d="M-2757.3,3848.37a331.05,331.05,0,0,1,40.39,2.88c10.69,1.55,30.6,6.28,11.34,14.91-22.09,9.9-50.26,9.1-73.92,8.67-20.8-.37-43.78-0.51-63.95-6.34-14.09-4.08-28-5-42.66-6.27-7.44-.64-40.54-0.43-41.45-11.37-1.89-22.59,85.75-18,96.41-17.6,21.39,0.7,43.19,1.9,64.23,6C-2761.73,3840.25-2742.85,3844.7-2757.3,3848.37Z" transform="translate(2927.58 -3661.6)"/><path class="cls-3" d="M-2762.62,3844.12a257.23,257.23,0,0,1,35.71,2.6c9.42,1.49,26.22,5.62,10.68,14.07-18.29,10-43.66,9.48-63.82,9.34-18.83-.13-39.78-0.27-58-5.68-11.88-3.53-23.09-4.77-35.59-5.85-7.3-.63-37-0.16-39-10.47-4.24-21.32,73.51-18.69,83-18.45,19.16,0.49,38.78,1.55,57.61,5.35C-2767.67,3835.93-2749.25,3840.27-2762.62,3844.12Z" transform="translate(2927.58 -3661.6)"/><path class="cls-4" d="M-2840.58,3829.11c9.09,12.81.16,24.48-13,26.63-13.8,2.26-44,6.84-47-12.73-2.31-14.73,15.08-42.35,31.24-43.05S-2843,3815.35-2840.58,3829.11Z" transform="translate(2927.58 -3661.6)"/><path class="cls-5" d="M-2874.89,3858c-20.16,0-32.68-10.46-23.2-31.38,7.82-17.26,23.83-33.8,42.73-22.61,8,4.74,11.18,10,14.05,18.7,1.65,5,5,11.42,5.12,16.58C-2835.74,3859-2861.51,3858-2874.89,3858Zm5.43-57.47c-15.57,0-32.65,28.89-30.48,42.44,3.08,19.24,33.85,14.2,47.36,12C-2823.12,3850.07-2845.71,3800.57-2869.46,3800.57Z" transform="translate(2927.58 -3661.6)"/><path class="cls-6" d="M-2871.08,3848.82c-5-7.83-1.06-25.82,1-34.44,2.28-9.6,4-15.72,13.76-10.13,7,4,11.09,8.62,13.64,16.2,3.17,9.44,9.37,21.1,1.68,29.67-7.84,8.74-26.28,7.55-36.81,7.16,0.94-.84,8.09-6.38,6.75-8.46C-2873.19,3845.51-2870.31,3850-2871.08,3848.82Z" transform="translate(2927.58 -3661.6)"/><g class="cls-7"><path class="cls-8" d="M-2899.1,3830.88c0.48,9.11,14.41,18.48,22.93,12.68,5.57-3.79,3.42-16.07,5.36-22.45-0.24,18.46,7.74,40.13,30.47,28.15-7.42,9.31-25.24,8.3-35.79,8-16.43-.39-29.56-7.73-23-26.44C-2899,3831.89-2901.85,3838.68-2899.1,3830.88Z" transform="translate(2927.58 -3661.6)"/></g><path class="cls-9" d="M-2849.63,3810.43c3.28,2.71-5.3,4.42-6.94,4-3-.72-5-3.56-5.86-6.53-3.18-10.9,8.82-.81,12.81,2.51C-2846,3813.42-2855.6,3805.46-2849.63,3810.43Z" transform="translate(2927.58 -3661.6)"/><path class="cls-10" d="M-2721.31,3844.22c8.77,19.76-54.74,20.63-63.32,21.17-29,1.82-76.07,2.69-75.72-39.11,0.16-18.67,18.47-27.79,32.51-36.06,15.07-8.88,28.32-16.17,44.83-7.59,12.3,6.39,24.6,13.52,36.71,20.16C-2732.72,3810.25-2720.16,3828.4-2721.31,3844.22Z" transform="translate(2927.58 -3661.6)"/><path class="cls-5" d="M-2816.17,3867c-27,.57-58.92-31.08-39.21-57.61,9.29-12.49,29.3-22.41,43.42-28.28,17.21-7.15,27.5-.45,42.57,8.82,11.08,6.82,24.21,10.89,33.44,20.27,8.62,8.76,20.52,27.52,15.16,40.46-4.46,10.77-25.61,11.49-34.73,12.63A485.76,485.76,0,0,1-2816.17,3867Zm19.36-88.51c-14.37,0-29.51,11.28-41,18.7-11.9,7.65-22.83,16-21.68,31.59,3,40,48,37.68,76.63,35.77,16.59-1.1,39.66-.32,54.53-8.84,8.21-4.7,7.41-12.06,5.55-20.57-3-13.65-13.73-26.47-26-32.9-7.12-3.74-14.37-6.88-21.33-11.14C-2777.65,3786.51-2787.54,3778.54-2796.82,3778.54Z" transform="translate(2927.58 -3661.6)"/><path class="cls-11" d="M-2846.35,3802c6.57-4.32,38.91-29.65,40-12.6,0.46,6.84-4,14.67-4.52,21.66-0.91,12.47,1.6,24.88.31,37.53-0.4,4-.05,12.08-2.36,15.49-2.51,3.71-7.47,2.44-12,1.72a41.75,41.75,0,0,1-23.6-12.37c-14.54-15.15-16.84-38.87,2.09-51.45C-2843.22,3799.94-2863.46,3813.37-2846.35,3802Z" transform="translate(2927.58 -3661.6)"/><path class="cls-12" d="M-2730.91,3817.21c-0.35-.47-0.71-0.92-1.09-1.4C-2731.62,3816.29-2731.26,3816.74-2730.91,3817.21Z" transform="translate(2927.58 -3661.6)"/><path class="cls-12" d="M-2737.9,3809.31c-0.43-.42-0.87-0.81-1.31-1.23C-2738.76,3808.49-2738.32,3808.88-2737.9,3809.31Z" transform="translate(2927.58 -3661.6)"/><path class="cls-12" d="M-2728.8,3820.25c-0.31-.52-0.63-1-1-1.49C-2729.43,3819.27-2729.13,3819.73-2728.8,3820.25Z" transform="translate(2927.58 -3661.6)"/><path class="cls-12" d="M-2733.17,3814.34c-0.38-.44-0.77-0.88-1.13-1.34C-2733.94,3813.46-2733.55,3813.89-2733.17,3814.34Z" transform="translate(2927.58 -3661.6)"/><path class="cls-12" d="M-2726.86,3823.4c-0.28-.47-0.6-1-0.87-1.47C-2727.45,3822.42-2727.14,3822.92-2726.86,3823.4Z" transform="translate(2927.58 -3661.6)"/><path class="cls-12" d="M-2721.28,3840.69c0-.41-0.11-0.8-0.12-1.19C-2721.39,3839.89-2721.32,3840.28-2721.28,3840.69Z" transform="translate(2927.58 -3661.6)"/><path class="cls-12" d="M-2721.72,3837.16c-0.07-.5-0.2-1-0.28-1.43C-2721.92,3836.2-2721.79,3836.66-2721.72,3837.16Z" transform="translate(2927.58 -3661.6)"/><path class="cls-12" d="M-2725.14,3826.72c-0.24-.49-0.48-1-0.75-1.49C-2725.62,3825.74-2725.38,3826.23-2725.14,3826.72Z" transform="translate(2927.58 -3661.6)"/><path class="cls-12" d="M-2722.54,3833.6c-0.12-.48-0.28-1-0.44-1.47C-2722.82,3832.64-2722.65,3833.11-2722.54,3833.6Z" transform="translate(2927.58 -3661.6)"/><path class="cls-12" d="M-2723.65,3830.12c-0.21-.48-0.42-1-0.63-1.49C-2724.07,3829.14-2723.86,3829.64-2723.65,3830.12Z" transform="translate(2927.58 -3661.6)"/><path class="cls-12" d="M-2735.51,3811.72l-1.23-1.29Z" transform="translate(2927.58 -3661.6)"/><path class="cls-12" d="M-2740.26,3807.16c-0.45-.41-0.93-0.8-1.39-1.13C-2741.19,3806.36-2740.72,3806.76-2740.26,3807.16Z" transform="translate(2927.58 -3661.6)"/><path class="cls-12" d="M-2742.58,3805.34c-0.49-.39-1-0.74-1.47-1.1C-2743.57,3804.59-2743.07,3804.94-2742.58,3805.34Z" transform="translate(2927.58 -3661.6)"/><path class="cls-12" d="M-2744.41,3804a28.46,28.46,0,0,0-3.76-2.17A28.46,28.46,0,0,1-2744.41,3804Z" transform="translate(2927.58 -3661.6)"/><path class="cls-13" d="M-2748.41,3801.72h0Z" transform="translate(2927.58 -3661.6)"/><path class="cls-13" d="M-2724.29,3828.63c-0.27-.63-0.54-1.27-0.85-1.92C-2724.82,3827.36-2724.56,3828-2724.29,3828.63Z" transform="translate(2927.58 -3661.6)"/><path class="cls-13" d="M-2723,3832.12c-0.22-.65-0.43-1.31-0.68-2C-2723.4,3830.82-2723.19,3831.47-2723,3832.12Z" transform="translate(2927.58 -3661.6)"/><path class="cls-13" d="M-2721.31,3844.22a25.44,25.44,0,0,0,0-3.54A25.44,25.44,0,0,1-2721.31,3844.22Z" transform="translate(2927.58 -3661.6)"/><path class="cls-13" d="M-2722,3835.73c-0.14-.73-0.32-1.42-0.53-2.13C-2722.33,3834.3-2722.15,3835-2722,3835.73Z" transform="translate(2927.58 -3661.6)"/><path class="cls-13" d="M-2721.4,3839.5c-0.1-.8-0.18-1.57-0.32-2.34C-2721.58,3837.92-2721.49,3838.7-2721.4,3839.5Z" transform="translate(2927.58 -3661.6)"/><path class="cls-13" d="M-2732,3815.81c-0.38-.51-0.76-1-1.16-1.47C-2732.77,3814.82-2732.38,3815.3-2732,3815.81Z" transform="translate(2927.58 -3661.6)"/><path class="cls-13" d="M-2736.75,3810.43c-0.38-.38-0.75-0.75-1.15-1.12C-2737.5,3809.68-2737.12,3810-2736.75,3810.43Z" transform="translate(2927.58 -3661.6)"/><path class="cls-13" d="M-2734.3,3813c-0.42-.43-0.83-0.86-1.21-1.28C-2735.13,3812.14-2734.72,3812.57-2734.3,3813Z" transform="translate(2927.58 -3661.6)"/><path class="cls-13" d="M-2739.2,3808.08c-0.35-.31-0.72-0.59-1.06-0.92C-2739.92,3807.48-2739.56,3807.77-2739.2,3808.08Z" transform="translate(2927.58 -3661.6)"/><path class="cls-13" d="M-2741.65,3806c-0.32-.25-0.61-0.43-0.93-0.69C-2742.26,3805.6-2742,3805.78-2741.65,3806Z" transform="translate(2927.58 -3661.6)"/><path class="cls-13" d="M-2744,3804.23c-0.12-.07-0.23-0.16-0.36-0.23C-2744.28,3804.08-2744.16,3804.17-2744,3804.23Z" transform="translate(2927.58 -3661.6)"/><path class="cls-13" d="M-2727.72,3821.92c-0.34-.56-0.71-1.13-1.08-1.68C-2728.43,3820.8-2728.07,3821.36-2727.72,3821.92Z" transform="translate(2927.58 -3661.6)"/><path class="cls-13" d="M-2725.89,3825.23c-0.3-.6-0.64-1.19-1-1.83C-2726.53,3824-2726.19,3824.62-2725.89,3825.23Z" transform="translate(2927.58 -3661.6)"/><path class="cls-13" d="M-2729.78,3818.76c-0.36-.52-0.74-1.05-1.13-1.55C-2730.53,3817.71-2730.14,3818.24-2729.78,3818.76Z" transform="translate(2927.58 -3661.6)"/><path class="cls-14" d="M-2809.92,3837.29c1.71-5.48,18.25-8.88,22.77-10.47,8-2.8,23.28-5.38,29.33-11.8,5.51-5.85-2.48-16.78,9.66-13.18,6.43,1.91,12.84,9.63,16.71,14.67,5.9,7.7,14.93,24.06,9.14,33.77-6.59,11-28.1,11.84-38.87,13.06a491.29,491.29,0,0,1-51.07,3c-0.25-9.18-.45-20.21,2.34-29.08C-2808.07,3831.36-2811,3840.78-2809.92,3837.29Z" transform="translate(2927.58 -3661.6)"/><g class="cls-15"><path class="cls-16" d="M-2851.5,3806.15c-2.82,13.5-4.07,52.33,16.93,51,31.27-2,16.93-42.73,26.91-61.51-4.09,16.37-1.16,31.56-2.42,48.17-0.39,5.11.27,14.66-2.47,19-3.22,5.06-7.59,4-14.08,2.69-24.71-5-46.54-38.51-24.88-59.31C-2852,3808.37-2863.35,3817.52-2851.5,3806.15Z" transform="translate(2927.58 -3661.6)"/></g><path class="cls-17" d="M-2801.37,3790.6c0.35-6.12,3.13-7.69,8.44-6.13,4.39,1.29,9.29,6.48,13.16,9,3.24,2.1,10.27,4.31,12.67,7,15.1,17.08-36.62,20.25-35.09,23.9-1.41-3.36,1.1-11.72,1-15.47C-2801.28,3802.75-2802.15,3796.79-2801.37,3790.6Z" transform="translate(2927.58 -3661.6)"/><path class="cls-18" d="M-2745.35,3808.76c9.46,5.82,22.62,32.56,13,41.65-6.12,5.81-21.17,5.95-29,6.79-8.4.9-17.84,1.71-25.71-2.13C-2767.18,3842.45-2754.94,3830.44-2745.35,3808.76Z" transform="translate(2927.58 -3661.6)"/><path class="cls-19" d="M-2905.53,3679.11a37.42,37.42,0,0,1,18.9-10.14c12.68-2.65,24.74,4.26,37.24,1.65,5.89-1.23,20.14-11.39,25.21-8.5,2.46,1.4,4.16,16.57,4.84,19.27,1.78,7.09,6.09,16.48,6,23.79,0,1.84.92,2.75,0.39,4-0.63,1.5-10.1,7.91-11.84,9-20.24,12.89-49.69-2.09-65.55,17.65Z" transform="translate(2927.58 -3661.6)"/><path class="cls-20" d="M-2837,3722.83c-1.72.42-3.52,0.78-5.35,1.11A36.33,36.33,0,0,0-2837,3722.83Z" transform="translate(2927.58 -3661.6)"/><path class="cls-21" d="M-2824.87,3714.21c-3.85,3.69-6.76,7.09-12.13,8.62,10.36-2.47,15-9.82,24.23-13.73-4.74-.7-8.85,2-12.11,5.11h0Z" transform="translate(2927.58 -3661.6)"/><path class="cls-22" d="M-2879.35,3724.09c-16.24,8.43-19-26.57-18.8-35.56,0.47-19.85,23.85-25.5,35.59-9.6,5.35,7.25,6,17.07,8.38,25.49,1.13,4,6.31,21.21,8.93,12.05,3.41-12-6.92-26.67-2.23-39.16,2.13-5.67,23.41-15.35,23.47-14.45l-0.23-.94c-8.09,1.35-14.94,5.8-22.72,8-9.18,2.57-16.77-.34-26-1.38-7.14-.81-29.92.88-32.57,10.76-1.62,6,6,22.28,7.54,28.21l7.59,28.38c12.3-15.31,31.07-8.92,48-11.93-12.32,1.73-25.6-5.76-37,.15h0Z" transform="translate(2927.58 -3661.6)"/><path class="cls-23" d="M-2872.47,3695c0.21,11.79,11.43,19.58,20.77,13.67,4.37-2.76,7-11,2.77-13.94C-2853.62,3691.42-2866.95,3694.32-2872.47,3695Zm9,10.89c-4.38,1-6.34-7.3-2-8.33s6.33,7.31,2,8.33h0Zm9-10.06c4.38-1,6.34,7.32,1.95,8.34s-6.33-7.31-1.95-8.34h0Z" transform="translate(2927.58 -3661.6)"/><path class="cls-24" d="M-2846.67,3693a4,4,0,0,0,2.24-4c-1.88-.38-2.95,2.41-3.28,3.59-3.4-5.56-11.49-8.22-17.63-6.13-0.83.28-9.45,6.11-8.72,7.48,1.12,2.1,30.6.1,30.43,0.55q0-2.48-3-1.51C-2844.92,3692.08-2843.72,3692.71-2846.67,3693Z" transform="translate(2927.58 -3661.6)"/><path class="cls-23" d="M-2873.47,3693.28l0.28,0.08A0.58,0.58,0,0,0-2873.47,3693.28Z" transform="translate(2927.58 -3661.6)"/><path class="cls-25" d="M-2846.67,3693a4,4,0,0,0,2.24-4c-1.88-.38-2.95,2.41-3.28,3.59-5.67-9.27-20.46-8.79-25.47.71,2.72-3.52,14.39-10.84,17.77-4.2,2.32,4.55-15.45,5.21-18.66,5.06,0,0.25,30.28.78,30.45,0.33q0-2.48-3-1.51C-2844.92,3692.08-2843.72,3692.71-2846.67,3693Z" transform="translate(2927.58 -3661.6)"/><g class="cls-7"><path class="cls-26" d="M-2847.39,3695c-7.89-1.93-17.37-1.2-25.3.13-0.39-.05,3,11.07,5.46,13,1.73,1.37,7,2,7.94,2.09C-2851.38,3710.67-2845.53,3704.7-2847.39,3695Zm-5.27,11.93c1.53,2.43-8,2.08-9.19,1.75-4.22-1.14-13-5.31-9-11.87,2.41-3.94,18.77-2.84,21-1,3.19,2.65,2.37,11.46-2.87,11.09C-2851.71,3708.4-2848.11,3707.21-2852.66,3706.89Z" transform="translate(2927.58 -3661.6)"/><path class="cls-27" d="M-2865.44,3697.28c-4.56,1.42-2.71,10,2,8.82s2.91-9.59-1.89-8.83c3.24-.48,6.25,8.45,1.07,8.46-3.87,0-4-7.5-1.17-8.44C-2870.1,3698.72-2865,3697.14-2865.44,3697.28Z" transform="translate(2927.58 -3661.6)"/><path class="cls-27" d="M-2854.49,3695.66c-5.91,1.84-.83,11.94,3.81,7.64,3.16-2.92-.57-7.94-3.85-7.38,4.87-.76,5.41,8.68.91,8.17-3.43-.4-3.69-7.51-0.87-8.42C-2859.13,3697.1-2854.09,3695.53-2854.49,3695.66Z" transform="translate(2927.58 -3661.6)"/></g><path class="cls-23" d="M-2860.25,3712.78c1-.16,9.45-2.61,9.85-1.52C-2849.16,3714.62-2859.25,3716.71-2860.25,3712.78Z" transform="translate(2927.58 -3661.6)"/><g class="cls-7"><path class="cls-27" d="M-2851.27,3710.75a42.93,42.93,0,0,1-9,2c1.9,7.46,11-2.65,9-2C-2854,3711.79-2850.07,3710.39-2851.27,3710.75Zm-3.17,3.49q-3.31,1.44-4.79-1.08c0.88-.12,7.76-1.92,7.93-1.27a3.38,3.38,0,0,1-3.15,2.36h0Z" transform="translate(2927.58 -3661.6)"/></g><path class="cls-25" d="M-2846.83,3693.51c-0.07.15,3.39-4.23,2.4-4.46,0.58,0.09-3.27,3.54-3.28,3.59a15.05,15.05,0,0,0-10.2-6.52c2,0.53,9.67,3.81,7.78,6.77s-14.75-.18-18,1.61c3-.25,24.66.29,24.53-0.58a2.93,2.93,0,0,1-3.27-.41h0Z" transform="translate(2927.58 -3661.6)"/><path class="cls-23" d="M-2847.31,3706.29c3.15,1.38,8.47,2.26,10.66,3.43,0.38,0.2-1.24,3.47-1.71,3.46C-2838.14,3713.18-2847.17,3706.74-2847.31,3706.29Z" transform="translate(2927.58 -3661.6)"/><g class="cls-7"><path class="cls-27" d="M-2838.13,3711.23c-2.22-.88-7.74-4.88-9.71-4.3,3-.7,9.12,6.24,9.48,6.25,2,0-1.07-.79.23-2C-2841.35,3710-2838.76,3711.8-2838.13,3711.23Z" transform="translate(2927.58 -3661.6)"/></g><path class="cls-23" d="M-2864,3711c-1.17,1.95-2.37,3.88-3.52,5.84s0.85,2.49,0,3.83c-0.46.71-4.08-.71-4.08-1.55C-2871.56,3717.8-2865.6,3710.67-2864,3711Z" transform="translate(2927.58 -3661.6)"/><g class="cls-7"><path class="cls-27" d="M-2868.52,3718.6c1.48-2.46,3.68-5.65,4.17-7.77-1.26,2-2.45,4.14-3.78,6.12-1.45,2.15,1,2.25.34,3.35-0.24.4-2.66-.12-3.29-0.19,0.44,0.28,3.39.94,3.62,0.59A1.57,1.57,0,0,0-2868.52,3718.6Z" transform="translate(2927.58 -3661.6)"/></g><path class="cls-23" d="M-2850.23,3687.39c3.41-2.44,2.77-8,4.07-9.48,0.86-1,3.54,2.42,3.28,3.07C-2843.22,3681.8-2849.66,3687.24-2850.23,3687.39Z" transform="translate(2927.58 -3661.6)"/><g class="cls-7"><path class="cls-27" d="M-2844.24,3679.47q-0.09-2.45-.55.31a0.84,0.84,0,0,1,1.31.68c-1.83,2-4.41,4.47-6.51,7.14a81.67,81.67,0,0,0,7.11-6.62q0.36-1.6-1.36-1.51C-2844.08,3679.11-2843.08,3679.38-2844.24,3679.47Z" transform="translate(2927.58 -3661.6)"/></g><path class="cls-23" d="M-2873.3,3690.25c-0.8-.59-7.65-7.32-6.92-7.32,0.31,0-2.77,3.59-2.83,3.46C-2882.68,3687.34-2873.91,3690.37-2873.3,3690.25Z" transform="translate(2927.58 -3661.6)"/><g class="cls-7"><path class="cls-27" d="M-2879.81,3685.87a3.5,3.5,0,0,1-2-.16,1,1,0,0,1,1.41-.71,2.2,2.2,0,0,1-.42-1.93c0.51-.3-1.88,4-2.17,3.32,0.19,0.5,9.31,4.13,9.55,4.16a77.65,77.65,0,0,1-6.32-4.68C-2880.66,3685.24-2878.16,3687.3-2879.81,3685.87Z" transform="translate(2927.58 -3661.6)"/></g><g class="cls-28"><path class="cls-19" d="M-2837.64,3666.13c-7.58,3.18-12,3.33-16.48,9.29s-7.49,13.65-11,20.14l-18.78,34.23c7.77-5.48,17.47-1.82,23.06-7.2,5-4.81,8.41-15.33,11.72-21.35l21.14-38.52a65.85,65.85,0,0,0-9.6,3.41C-2844.18,3668.87-2833.61,3664.37-2837.64,3666.13Z" transform="translate(2927.58 -3661.6)"/><path class="cls-19" d="M-2868.4,3669.4c-8.61-2.15-8-.34-11.67,6.43l-11.83,21.55c-6.36,11.59-5,13.83-1.53,27l29.67-54.07-4.64-.89C-2871,3668.75-2866.7,3669.74-2868.4,3669.4Z" transform="translate(2927.58 -3661.6)"/><path class="cls-19" d="M-2818.17,3686.06l-20.37,37.12c12.63-2.75,14.79-8,20.32-19C-2814.54,3696.88-2816.06,3694.42-2818.17,3686.06Z" transform="translate(2927.58 -3661.6)"/></g><path class="cls-29" d="M-2871.84,3805.28c-3.68,0-11.56-39-12.51-42.53l-19.1-70c-0.68-2.49-4.74-11.33-3.79-13.91,1.76-4.83,4.47,7.24,4.78,8.4l18.3,67.1C-2883.15,3758-2870.59,3805.28-2871.84,3805.28Z" transform="translate(2927.58 -3661.6)"/><g class="cls-7"><path class="cls-29" d="M-2873.11,3799.07c-9.11-37.35-23.6-74-30.54-111.84-0.79-4.28-2.68-14-2.89-5.84-0.17,6.4,4.11,15.07,5.79,21.21l18.78,68.82c2.51,9.2,4.44,18.85,7.6,27.85,2.37,6.75,3,6.76,1.27-.2C-2874.55,3793.18-2872.65,3801-2873.11,3799.07Z" transform="translate(2927.58 -3661.6)"/></g><path class="cls-30" d="M-2900.63,3694.12l17.14,62.45C-2890.28,3736-2895.79,3715.18-2900.63,3694.12Z" transform="translate(2927.58 -3661.6)"/><path class="cls-31" d="M-2904.43,3676.76c0.59,1.53-3.66,3.17-4.24,1.64s3.65-3.17,4.24-1.64h0Z" transform="translate(2927.58 -3661.6)"/><path class="cls-32" d="M-2905.21,3676.84a2.1,2.1,0,0,1-3.17,1.24,2.1,2.1,0,0,1,3.17-1.24C-2905,3677.29-2905.39,3676.39-2905.21,3676.84Z" transform="translate(2927.58 -3661.6)"/><path class="cls-33" d="M-2859.94,3806.71c0,9.12-21.18,9.13-21.19,0S-2859.94,3797.57-2859.94,3806.71Z" transform="translate(2927.58 -3661.6)"/><path class="cls-33" d="M-2865.11,3806.71c0,6.87-16,6.88-16,0S-2865.11,3800-2865.11,3806.71Z" transform="translate(2927.58 -3661.6)"/><path class="cls-34" d="M-2714,3679c1.68-7-8.45-9.39-8.4-2.35C-2722.35,3681.4-2718.15,3679.13-2714,3679Z" transform="translate(2927.58 -3661.6)"/><g class="cls-35"><path class="cls-34" d="M-2719.66,3672.42c-3.41.18-3.29,5.66-1.83,6.83,3.91,3.13,8.11-.53,7.39-4.41-1.75.54-10.56,1.76-5.55-2.42C-2719.93,3672.44-2721,3673.51-2719.66,3672.42Z" transform="translate(2927.58 -3661.6)"/></g><path class="cls-36" d="M-2735.46,3713.39c-15.83-2.79-1.15-20.53,4.74-24.17,3.72-2.3,32.75-10.1,17.67-12.75-9.22-1.62-28.76,5.71-34.35,13-7.17,9.32,1,22.33,11.93,24h0Z" transform="translate(2927.58 -3661.6)"/><path class="cls-36" d="M-2733.23,3684.9c-4,2.33-7.83,6.55-5.65,11.39,2.83-3.45,14.63-8.52,14.68-12,0.06-4.91-7.24-.41-9,0.62C-2740.54,3689.13-2723.21,3679.15-2733.23,3684.9Z" transform="translate(2927.58 -3661.6)"/><path class="cls-37" d="M-2749.7,3692.41c-3.55,9.47,5.35,19.65,14.24,21-2.85-.5-6.42-5-7-7.53-0.68-3.19,1.66-5.11,2.36-7.81,0.17-.65.32-5.19,0.56-5.68,2.06-4.2,18.72-15.46,14.73-6.06,3.58-1.49,25-7.8,11.72-9.84-9.46-1.45-33.06,6.41-36.65,15.94C-2751.29,3696.67-2748.1,3688.16-2749.7,3692.41Z" transform="translate(2927.58 -3661.6)"/><path class="cls-36" d="M-2712.52,3683.05a7.3,7.3,0,0,0,4.26-4.49c-2.21.37-4.57,2-4.26,4.49C-2711.2,3682.53-2712.7,3681.62-2712.52,3683.05Z" transform="translate(2927.58 -3661.6)"/><path class="cls-38" d="M-2744.91,3684.82c-14.38,6.68-18.54,24.76-5.87,35.34,6.93,5.8,19.29,11,28.52,10.63,6.57-.28,17.29-5.74,8.74-11.48-6.16-4.14-17.47-1.69-24.65-5.68-6.75-3.75-12.24-10.59-9.91-18.73,4.22-14.76,27.38-16.48,39.54-18-8-6.15-29.46,4.7-36.35,7.9C-2763.72,3693.56-2726.1,3676.07-2744.91,3684.82Z" transform="translate(2927.58 -3661.6)"/><path class="cls-39" d="M-2729.28,3726.34c-9.94-3.22,3.59-7.89,8.21-5.06C-2711.67,3727.05-2723.74,3728.86-2729.28,3726.34Z" transform="translate(2927.58 -3661.6)"/><path class="cls-40" d="M-2729,3726.22c-9.2-3,3.31-7.29,7.6-4.69C-2712.67,3726.83-2723.86,3728.53-2729,3726.22Z" transform="translate(2927.58 -3661.6)"/><path class="cls-34" d="M-2729.34,3726.63c-9.21-3,3.3-7.3,7.59-4.68C-2713,3727.23-2724.21,3729-2729.34,3726.63Z" transform="translate(2927.58 -3661.6)"/><path class="cls-41" d="M-2717.09,3714a29.45,29.45,0,0,0-2-4.95C-2720,3707.45-2717.32,3709.85-2717.09,3714Z" transform="translate(2927.58 -3661.6)"/><path class="cls-42" d="M-2748.06,3690.41c-5.51,7.79-2.45,15.24,2.35,22.18,2.66,3.84,8.75,13.46-2.13,9.49,4.71,2.71,39.86,17.62,37.76,1.06-0.85-6.7-23.71-6.69-29.54-10.39-11.7-7.42-11.26-20.6.28-27.87,8.93-5.62,20.53-6.69,30.78-8-4-3-10.53-.72-14.85.29a106.23,106.23,0,0,0-14.78,4.73c-7.27,2.87-6.14,3.18-9.87,8.47C-2753.46,3698.05-2746.5,3688.21-2748.06,3690.41Z" transform="translate(2927.58 -3661.6)"/><path class="cls-38" d="M-2748.51,3721.69c12.78,7.55,1.3-8.52,0-10.6-2.53-4.09-4.49-7.56-3.9-12.64,0.37-3.2,6.75-10.46,5.93-12.85-14,7.46-16.84,27.58-2,36.1h0Z" transform="translate(2927.58 -3661.6)"/><path class="cls-43" d="M-2778.91,3800.83c25.46-19.31,45.15-46.72,54.28-77.41-7.5-2.19-12.48,16.91-15.54,21.92-12.15,19.88-29.24,36.48-48.16,49.92a24.21,24.21,0,0,0,9.41,5.56C-2765,3790.3-2782.61,3799.6-2778.91,3800.83Z" transform="translate(2927.58 -3661.6)"/><path class="cls-44" d="M-2764.26,3803c11.08-10.63,21.2-22.52,29.06-35.75,3.32-5.59,21.58-40.57,10.47-43.8-9.13,30.66-28.79,58.06-54.22,77.37a48.83,48.83,0,0,0,14.7,2.18C-2747.26,3786.68-2769.49,3802.94-2764.26,3803Z" transform="translate(2927.58 -3661.6)"/><path class="cls-45" d="M-2751.52,3719.13c0.63,0.46,4.57,3.85,5.27,1.84,0.52-1.5-9.43-11.11-10-15.3-0.22-1.75,1.85-15.32,3.74-15-9.56-1.67-3.28,25.21,1,28.45h0Z" transform="translate(2927.58 -3661.6)"/><path class="cls-46" d="M-2722.9,3683.5c-1.45-4.76,8.09-7,8.68-.71Z" transform="translate(2927.58 -3661.6)"/><path class="cls-34" d="M-2717,3716.69c0.78-5.92,7.51-34.78.13-37.25-9.47-3.17-9.33,30.82-12,36.09C-2724.91,3716.05-2721,3716.36-2717,3716.69Z" transform="translate(2927.58 -3661.6)"/><path class="cls-47" d="M-2717.77,3712.53c-0.38-1.17,1,3.16.34,3.13,0.8,0-5.15-12.72-6.53-10.07C-2723.28,3703.91-2718,3711.75-2717.77,3712.53Z" transform="translate(2927.58 -3661.6)"/><path class="cls-47" d="M-2717,3710.8c1.3,4-5.36-9-6.33-6.56C-2722.78,3702.11-2717.22,3710-2717,3710.8Z" transform="translate(2927.58 -3661.6)"/><path class="cls-47" d="M-2716.52,3707.41c0.3,0.93-6-7.21-6.49-5.29C-2722.36,3700-2716.85,3706.37-2716.52,3707.41Z" transform="translate(2927.58 -3661.6)"/><path class="cls-47" d="M-2716.62,3704.53c-0.15-.65-6.22-4.35-6.19-4C-2722.81,3699.61-2717.25,3703.09-2716.62,3704.53Z" transform="translate(2927.58 -3661.6)"/><path class="cls-47" d="M-2716.22,3702.16c0-.19-6.2-4.68-6.2-3.76C-2722.22,3696.32-2716.76,3701.38-2716.22,3702.16Z" transform="translate(2927.58 -3661.6)"/><path class="cls-47" d="M-2716.09,3699.93c-0.06-.18-6.26-4.33-6.12-3.71C-2722.3,3695.34-2716.82,3698.65-2716.09,3699.93Z" transform="translate(2927.58 -3661.6)"/><path class="cls-47" d="M-2715.75,3696.42c-0.41-1.3-5.57-2.53-6-3C-2721.53,3693.6-2716.91,3694-2715.75,3696.42Z" transform="translate(2927.58 -3661.6)"/><path class="cls-47" d="M-2715.73,3693.2c-0.35-1.13-4.89-1.74-5.46-2.15C-2721.06,3691.15-2716.8,3691-2715.73,3693.2Z" transform="translate(2927.58 -3661.6)"/><path class="cls-47" d="M-2716.19,3689.73c0.15,0.43-3.85-2.31-4-2.26C-2719.12,3687.12-2716.27,3689.1-2716.19,3689.73Z" transform="translate(2927.58 -3661.6)"/><g class="cls-48"><path class="cls-34" d="M-2723.73,3685.83c-1.15,9.27-.86,21.22-5.12,29.71,3.93,0.51,7.89.83,11.84,1.15-1.23-2-7.09-2.93-6.05-7.17s5.11,4.78,5.52,5.22c-1.57-1.69-2.31-6.9-4.56-9.33,1.41,1.52,4.72,3,5.05,5.88-0.35-3-4.39-5.73-4.43-8.24,0-1.25,4.9,4.2,4.28,3.68,0.29,0.24-4-5.91-4-6.16,0.22,0.75,3.14,1.37,3.16,2.1q-1.51-1.81-2.87-3.74c-0.13-.82,4.75,3.74,4.76,3.74-0.83-.39-1.84-4.47-3.32-4.89a19.72,19.72,0,0,1,3.18,2.23c0.23,0.14-5-4.56-5-4.42,0.14-1.36,5,.28,5,0.48-0.22-2-4.25-2.49-4.56-4.58s4.56,1.39,4.22,1.23a45.35,45.35,0,0,1-3.38-4.49c-0.11-.35,3.88,1.77,3.77,1.81-6,2.15-6.24-15.35,2-6.69-1.34-7.85-8.9-2.61-9.51,2.47C-2724.33,3690.74-2723.13,3680.9-2723.73,3685.83Z" transform="translate(2927.58 -3661.6)"/></g><g class="cls-49"><path class="cls-34" d="M-2723.73,3685.83c-1.15,9.27-.86,21.22-5.12,29.71,3.1,0.4,6.22.68,9.33,0.93-8.69-2.75-5.12-9.76-4.16-16.79,0.66-4.88-1.1-15.7,2.44-19.33a6.41,6.41,0,0,0-2.49,5.47C-2724.33,3690.74-2723.34,3682.54-2723.73,3685.83Z" transform="translate(2927.58 -3661.6)"/></g><path class="cls-41" d="M-2716.75,3710.4a40.86,40.86,0,0,1-2.78-5.19C-2718.95,3707-2716.46,3707.68-2716.75,3710.4Z" transform="translate(2927.58 -3661.6)"/><path class="cls-41" d="M-2716.39,3707.23a23.44,23.44,0,0,0-2-3.6C-2719.44,3702.14-2716.73,3704.88-2716.39,3707.23Z" transform="translate(2927.58 -3661.6)"/><path class="cls-41" d="M-2716,3705.29c0.07-.41-3.59-5.26-3.77-5.23,1.51-.21,4,4.06,3.77,5.23C-2716,3705.48-2715.94,3704.88-2716,3705.29Z" transform="translate(2927.58 -3661.6)"/><path class="cls-41" d="M-2715.63,3700c-0.41-.41-3.19-4.25-3.6-4.09C-2717.67,3695.29-2715.48,3698.81-2715.63,3700Z" transform="translate(2927.58 -3661.6)"/><path class="cls-41" d="M-2715.41,3696.52c-0.39-.39-3.22-4.08-3.56-4C-2717.54,3692.11-2714.92,3695.23-2715.41,3696.52Z" transform="translate(2927.58 -3661.6)"/><path class="cls-41" d="M-2715.54,3693.8c-0.3-.36-2-4.29-2.52-4.5a2.73,2.73,0,0,0,2,.87c-1.66,1.12-2.09-8.19.22-5.55C-2714.08,3686.61-2716.14,3693.08-2715.54,3693.8Z" transform="translate(2927.58 -3661.6)"/><path class="cls-50" d="M-2747.46,3704.31c3.19,7.06,10.41,10.41,17.47,12.32,5.35,1.45,14.84.29,19.21,4.09-4.65-9-21.92-5.26-29.55-11-12.63-9.57-3.84-23.33,8.19-28.06-9.35,3-20.29,11.73-15.33,22.69C-2742.71,3714.82-2751.93,3694.45-2747.46,3704.31Z" transform="translate(2927.58 -3661.6)"/><path class="cls-51" d="M-2720.49,3718.26c-3.88-3.76-6.78-3.4-11.77-4.79C-2729.19,3717.46-2725.22,3717.8-2720.49,3718.26Z" transform="translate(2927.58 -3661.6)"/><path class="cls-51" d="M-2746.66,3700.35l-0.11-2.2c-3.73,3.81.83,9.66,4,12.4-0.51-4.15-3.35-6-3.92-10.2C-2746.76,3699.6-2746.28,3703.13-2746.66,3700.35Z" transform="translate(2927.58 -3661.6)"/><g class="cls-52"><path class="cls-23" d="M-2764.25,3803c8.81-8.44,8.16-11.62,8-23.35-7.75,8.8-11.28,11.36-13.59,23q2.81,0.29,5.63.32C-2761.62,3800.48-2766.16,3803-2764.25,3803Z" transform="translate(2927.58 -3661.6)"/><path class="cls-23" d="M-2742.85,3762.13l3.39,11.81c6.37-9.42,5.56-11.87,2.88-22.22C-2738.52,3755.27-2740.62,3758.75-2742.85,3762.13Z" transform="translate(2927.58 -3661.6)"/><path class="cls-23" d="M-2729.49,3736.66l1.14,16.93c4.11-8.39,3.09-13,1.22-21.88C-2728,3733.36-2728.46,3735.09-2729.49,3736.66Z" transform="translate(2927.58 -3661.6)"/></g><g class="cls-53"><path class="cls-23" d="M-2785.66,3797.51c20.36-12.51,45.16-37.38,50.61-61.34-12.07,24-31.59,43.66-53.29,59.08l2.68,2.26C-2783.12,3796-2786.63,3796.84-2785.66,3797.51Z" transform="translate(2927.58 -3661.6)"/></g></g></g></svg>