<svg xmlns="http://www.w3.org/2000/svg" viewBox="0 0 254.19 161.93"><defs><style>.cls-1{isolation:isolate;}.cls-2{fill:#c8cacb;}.cls-15,.cls-2{mix-blend-mode:multiply;}.cls-3{fill:#2c303b;}.cls-4{fill:#424654;}.cls-5{fill:#515565;}.cls-6,.cls-8,.cls-9{fill:#5d6173;}.cls-6{opacity:0.2;}.cls-13,.cls-14,.cls-6,.cls-7,.cls-8,.cls-9{mix-blend-mode:screen;}.cls-7,.cls-9{opacity:0.35;}.cls-14,.cls-15,.cls-8{opacity:0.3;}.cls-10{fill:#565a6b;}.cls-11{fill:#696e82;}.cls-12,.cls-13,.cls-14{fill:#73788e;}.cls-13{opacity:0.15;}.cls-15{fill:#343744;}</style></defs><title>artefact_11</title><g class="cls-1"><g id="Layer_1" data-name="Layer 1"><path class="cls-2" d="M-3155.58,4291.31c0-12.09-35.23-8.24-41.5-6.48,8.21-4,2.45-8.56-2.94-10.76-7.13-2.91-16.22-2.85-23.8-2.24,5.86-6.56-11.6-9.81-14.37-10.21-8.72-1.28-21.36-2-29.25,2.43-19.06,10.72,18.83,14.07,25.34,13.56-9.3,10.37,35.82,10.2,40.44,8.9-14.73,7.14,11.23,12.74,15.72,13.07C-3180.58,4300-3155.58,4300.57-3155.58,4291.31Z" transform="translate(3272.91 -4152.21)"/><path class="cls-2" d="M-3142.4,4297.25c-4.71,0-25.27.29-25.27,8.45s20.56,8.45,25.27,8.45,25.27-.29,25.27-8.45S-3137.69,4297.25-3142.4,4297.25Z" transform="translate(3272.91 -4152.21)"/><path class="cls-2" d="M-3105.83,4276.6c-4.71,0-25.27.29-25.27,8.45s20.56,8.45,25.27,8.45,25.27-.29,25.27-8.45S-3101.12,4276.6-3105.83,4276.6Z" transform="translate(3272.91 -4152.21)"/><path class="cls-2" d="M-3071.3,4254.7c-4.71,0-25.27.29-25.27,8.45s20.56,8.45,25.27,8.45,25.27-.29,25.27-8.45S-3066.59,4254.7-3071.3,4254.7Z" transform="translate(3272.91 -4152.21)"/><path class="cls-2" d="M-3044,4236.24c-4.71,0-25.28.29-25.27,8.45s20.56,8.44,25.27,8.44,25.26-.29,25.27-8.44S-3039.27,4236.24-3044,4236.24Z" transform="translate(3272.91 -4152.21)"/><path class="cls-3" d="M-3222.92,4247.66l69.55,31.58c8.2,3.72,11.77,7.66,19.17,4.12,5.91-2.83,11.63-8.19,17-12,3.72-2.62,11.53-6.17,14.19-10,2.14-3.08,2.77-8.94,3.83-12.52,1.59-5.4,6.75-15.13,6.08-20.67-0.84-7-18.68-14.59-25.08-18.72-8.2-5.29-16.38-10.46-24.78-15.42-3.87-2.29-11.83-9.35-16.37-9.68-3.78-.27-9.54,5.58-12.86,8-20.12,14.39-40.67,28.18-61.07,42.17Z" transform="translate(3272.91 -4152.21)"/><path class="cls-4" d="M-3067.84,4221.11c0,29.42,45.91,29.54,45.91,0S-3067.84,4191.68-3067.84,4221.11Z" transform="translate(3272.91 -4152.21)"/><path class="cls-5" d="M-3058.35,4217.11c0,22.88,34.66,22.88,34.66,0S-3058.35,4194.24-3058.35,4217.11Z" transform="translate(3272.91 -4152.21)"/><path class="cls-6" d="M-3053.74,4215.12c0,17.21,28.88,17.17,28.88,0S-3053.74,4197.84-3053.74,4215.12Z" transform="translate(3272.91 -4152.21)"/><g class="cls-7"><path class="cls-8" d="M-3037.24,4204.87c2.75,2.42,8.71,17.81,10.55,10.32,0.94-3.81-2.72-8.77-6-10.41C-3033.28,4204.51-3039.82,4202.16-3037.24,4204.87Z" transform="translate(3272.91 -4152.21)"/></g><path class="cls-4" d="M-3101.43,4206.71c0,29.42,45.91,29.54,45.91,0S-3101.43,4177.28-3101.43,4206.71Z" transform="translate(3272.91 -4152.21)"/><path class="cls-5" d="M-3095.72,4202.14c0,22.13,37.08,22.13,37.08,0S-3095.72,4180-3095.72,4202.14Z" transform="translate(3272.91 -4152.21)"/><path class="cls-6" d="M-3088.82,4200c0,17.61,29.56,17.58,29.56,0S-3088.82,4182.33-3088.82,4200Z" transform="translate(3272.91 -4152.21)"/><g class="cls-7"><path class="cls-9" d="M-3072.09,4190.48c2.75,2.42,8.72,17.81,10.56,10.33,0.94-3.81-2.73-8.77-6-10.41C-3068.12,4190.12-3074.67,4187.76-3072.09,4190.48Z" transform="translate(3272.91 -4152.21)"/></g><path class="cls-4" d="M-3135.33,4192.16c0,29.42,45.91,29.55,45.91,0S-3135.33,4162.73-3135.33,4192.16Z" transform="translate(3272.91 -4152.21)"/><path class="cls-5" d="M-3132.27,4188.88c0,24.74,41.43,24.63,41.43,0S-3132.27,4164.14-3132.27,4188.88Z" transform="translate(3272.91 -4152.21)"/><path class="cls-6" d="M-3123.83,4185.55c0,19,31.77,18.74,31.61,0S-3123.83,4166.5-3123.83,4185.55Z" transform="translate(3272.91 -4152.21)"/><path class="cls-6" d="M-3118.41,4183.94c0,14.91,25,14.88,25,0S-3118.41,4169-3118.41,4183.94Z" transform="translate(3272.91 -4152.21)"/><g class="cls-7"><path class="cls-8" d="M-3104.73,4175.31c2.75,2.42,8.71,17.81,10.55,10.33,0.94-3.82-2.72-8.77-6-10.41C-3100.77,4174.94-3107.32,4172.59-3104.73,4175.31Z" transform="translate(3272.91 -4152.21)"/></g><path class="cls-10" d="M-3125.68,4174.33c0,29.42-45.91,29.54-45.91,0S-3125.68,4144.9-3125.68,4174.33Z" transform="translate(3272.91 -4152.21)"/><path class="cls-11" d="M-3128.74,4171c0,24.74-41.44,24.63-41.44,0S-3128.74,4146.31-3128.74,4171Z" transform="translate(3272.91 -4152.21)"/><path class="cls-12" d="M-3132.82,4168.38c0,21.15-35.91,21.15-35.91,0S-3132.82,4147.24-3132.82,4168.38Z" transform="translate(3272.91 -4152.21)"/><path class="cls-13" d="M-3138.49,4165.26c0,16.16-27.49,16.13-27.5,0S-3138.49,4149-3138.49,4165.26Z" transform="translate(3272.91 -4152.21)"/><path class="cls-14" d="M-3153.78,4155.28c-2.75,2.42-8.71,17.81-10.55,10.33-0.94-3.82,2.72-8.77,6-10.41C-3157.74,4154.92-3151.19,4152.57-3153.78,4155.28Z" transform="translate(3272.91 -4152.21)"/><path class="cls-10" d="M-3162,4196.15c0,29.42-45.91,29.54-45.91,0S-3162,4166.73-3162,4196.15Z" transform="translate(3272.91 -4152.21)"/><path class="cls-11" d="M-3165.08,4192.87c0,24.73-41.43,24.63-41.43,0S-3165.08,4168.13-3165.08,4192.87Z" transform="translate(3272.91 -4152.21)"/><path class="cls-12" d="M-3169.16,4190.21c0,21.15-35.91,21.15-35.91,0S-3169.16,4169.06-3169.16,4190.21Z" transform="translate(3272.91 -4152.21)"/><path class="cls-13" d="M-3174.83,4187.08c0,16.17-27.49,16.13-27.49,0S-3174.83,4170.85-3174.83,4187.08Z" transform="translate(3272.91 -4152.21)"/><path class="cls-14" d="M-3190.11,4177.1c-2.75,2.42-8.71,17.81-10.55,10.33-0.94-3.82,2.72-8.77,6-10.41C-3194.07,4176.74-3187.52,4174.39-3190.11,4177.1Z" transform="translate(3272.91 -4152.21)"/><path class="cls-10" d="M-3196.16,4219.66c0,29.42-45.91,29.54-45.91,0S-3196.16,4190.23-3196.16,4219.66Z" transform="translate(3272.91 -4152.21)"/><path class="cls-11" d="M-3199.22,4216.37c0,24.74-41.44,24.63-41.44,0S-3199.22,4191.63-3199.22,4216.37Z" transform="translate(3272.91 -4152.21)"/><path class="cls-12" d="M-3203.3,4213.71c0,21.15-35.91,21.15-35.9,0S-3203.3,4192.57-3203.3,4213.71Z" transform="translate(3272.91 -4152.21)"/><path class="cls-13" d="M-3209,4210.58c0,16.17-27.5,16.13-27.5,0S-3209,4194.35-3209,4210.58Z" transform="translate(3272.91 -4152.21)"/><path class="cls-14" d="M-3224.25,4200.61c-2.75,2.42-8.71,17.81-10.55,10.32-0.94-3.81,2.72-8.78,6-10.41C-3228.21,4200.24-3221.66,4197.89-3224.25,4200.61Z" transform="translate(3272.91 -4152.21)"/><path class="cls-4" d="M-3094.21,4240.81c0,29.42,45.91,29.54,45.91,0S-3094.21,4211.39-3094.21,4240.81Z" transform="translate(3272.91 -4152.21)"/><path class="cls-5" d="M-3088.47,4236.28c0,22.28,37.33,22.28,37.34,0S-3088.47,4214-3088.47,4236.28Z" transform="translate(3272.91 -4152.21)"/><path class="cls-6" d="M-3083.31,4234.13c0,18.68,31.26,18.43,31.11,0S-3083.31,4215.38-3083.31,4234.13Z" transform="translate(3272.91 -4152.21)"/><g class="cls-7"><path class="cls-9" d="M-3065.49,4224c2.75,2.42,8.7,17.82,10.55,10.33,0.94-3.82-2.72-8.78-6-10.41C-3061.53,4223.59-3068.08,4221.24-3065.49,4224Z" transform="translate(3272.91 -4152.21)"/></g><path class="cls-4" d="M-3132.51,4229.55c0,29.42,45.91,29.54,45.91,0S-3132.51,4200.13-3132.51,4229.55Z" transform="translate(3272.91 -4152.21)"/><path class="cls-5" d="M-3129.45,4226.27c0,24.73,41.43,24.63,41.43,0S-3129.45,4201.53-3129.45,4226.27Z" transform="translate(3272.91 -4152.21)"/><path class="cls-6" d="M-3122.29,4223.22c0,20,33.23,19.7,33.23,0S-3122.29,4203.19-3122.29,4223.22Z" transform="translate(3272.91 -4152.21)"/><path class="cls-6" d="M-3114.85,4220.16c0,14.25,24,14.25,24,0S-3114.85,4205.81-3114.85,4220.16Z" transform="translate(3272.91 -4152.21)"/><g class="cls-7"><path class="cls-8" d="M-3103.16,4211.13c2.75,2.42,8.71,17.81,10.55,10.33,0.94-3.81-2.73-8.77-6-10.41C-3099.2,4210.77-3105.75,4208.42-3103.16,4211.13Z" transform="translate(3272.91 -4152.21)"/></g><path class="cls-4" d="M-3128.35,4264.75c0,29.42,45.91,29.54,45.91,0S-3128.35,4235.33-3128.35,4264.75Z" transform="translate(3272.91 -4152.21)"/><path class="cls-5" d="M-3125.29,4261.47c0,24.74,41.44,24.63,41.44,0S-3125.29,4236.73-3125.29,4261.47Z" transform="translate(3272.91 -4152.21)"/><path class="cls-6" d="M-3119.15,4258.68c0,20.63,34.35,20.36,34.35,0S-3119.15,4238-3119.15,4258.68Z" transform="translate(3272.91 -4152.21)"/><path class="cls-6" d="M-3113.28,4256.23c0,15.43,25.89,15.39,25.89,0S-3113.28,4240.73-3113.28,4256.23Z" transform="translate(3272.91 -4152.21)"/><g class="cls-7"><path class="cls-9" d="M-3099.94,4247.58c2.75,2.42,8.71,17.82,10.55,10.33,0.94-3.81-2.72-8.77-6-10.41C-3096,4247.22-3102.53,4244.86-3099.94,4247.58Z" transform="translate(3272.91 -4152.21)"/></g><path class="cls-10" d="M-3123.4,4210.23c0,29.42-45.92,29.55-45.91,0S-3123.4,4180.81-3123.4,4210.23Z" transform="translate(3272.91 -4152.21)"/><path class="cls-11" d="M-3126.46,4206.95c0,24.74-41.44,24.63-41.44,0S-3126.46,4182.21-3126.46,4206.95Z" transform="translate(3272.91 -4152.21)"/><path class="cls-12" d="M-3130.55,4204.28c0,21.14-35.9,21.14-35.9,0S-3130.55,4183.14-3130.55,4204.28Z" transform="translate(3272.91 -4152.21)"/><path class="cls-13" d="M-3136.22,4201.15c0,16.17-27.5,16.13-27.5,0S-3136.22,4184.93-3136.22,4201.15Z" transform="translate(3272.91 -4152.21)"/><path class="cls-14" d="M-3151.5,4191.19c-2.75,2.42-8.71,17.81-10.55,10.33-0.94-3.81,2.72-8.78,6-10.41C-3155.46,4190.82-3148.91,4188.46-3151.5,4191.19Z" transform="translate(3272.91 -4152.21)"/><path class="cls-10" d="M-3227,4246.57c0,29.42-45.91,29.55-45.91,0S-3227,4217.14-3227,4246.57Z" transform="translate(3272.91 -4152.21)"/><path class="cls-11" d="M-3230.05,4243.28c0,24.74-41.44,24.63-41.44,0S-3230.05,4218.55-3230.05,4243.28Z" transform="translate(3272.91 -4152.21)"/><path class="cls-12" d="M-3234.14,4240.62c0,21.15-35.91,21.15-35.9,0S-3234.14,4219.47-3234.14,4240.62Z" transform="translate(3272.91 -4152.21)"/><path class="cls-13" d="M-3239.81,4237.49c0,16.17-27.5,16.14-27.5,0S-3239.81,4221.26-3239.81,4237.49Z" transform="translate(3272.91 -4152.21)"/><path class="cls-14" d="M-3255.09,4227.52c-2.75,2.42-8.71,17.81-10.56,10.33-0.94-3.81,2.72-8.77,6-10.41C-3259.05,4227.15-3252.5,4224.81-3255.09,4227.52Z" transform="translate(3272.91 -4152.21)"/><path class="cls-10" d="M-3192.39,4259.7c0,29.43-45.91,29.54-45.91,0S-3192.39,4230.28-3192.39,4259.7Z" transform="translate(3272.91 -4152.21)"/><path class="cls-11" d="M-3195.45,4256.42c0,24.74-41.44,24.63-41.44,0S-3195.45,4231.68-3195.45,4256.42Z" transform="translate(3272.91 -4152.21)"/><path class="cls-12" d="M-3199.53,4253.76c0,21.14-35.9,21.15-35.9,0S-3199.53,4232.61-3199.53,4253.76Z" transform="translate(3272.91 -4152.21)"/><path class="cls-13" d="M-3205.2,4250.63c0,16.17-27.5,16.13-27.5,0S-3205.2,4234.4-3205.2,4250.63Z" transform="translate(3272.91 -4152.21)"/><path class="cls-14" d="M-3220.48,4240.66c-2.75,2.42-8.71,17.81-10.55,10.32-0.94-3.81,2.72-8.77,6-10.41C-3224.44,4240.29-3217.89,4237.94-3220.48,4240.66Z" transform="translate(3272.91 -4152.21)"/><path class="cls-10" d="M-3159.68,4230.06c0,29.42-45.91,29.54-45.91,0S-3159.68,4200.64-3159.68,4230.06Z" transform="translate(3272.91 -4152.21)"/><path class="cls-11" d="M-3162.74,4226.78c0,24.73-41.43,24.63-41.43,0S-3162.74,4202-3162.74,4226.78Z" transform="translate(3272.91 -4152.21)"/><path class="cls-12" d="M-3166.83,4224.12c0,21.15-35.9,21.14-35.9,0S-3166.83,4203-3166.83,4224.12Z" transform="translate(3272.91 -4152.21)"/><path class="cls-13" d="M-3172.5,4221c0,16.17-27.5,16.14-27.49,0S-3172.5,4204.76-3172.5,4221Z" transform="translate(3272.91 -4152.21)"/><path class="cls-14" d="M-3187.77,4211c-2.75,2.42-8.71,17.82-10.56,10.33-0.94-3.81,2.72-8.77,6-10.41C-3191.74,4210.66-3185.19,4208.3-3187.77,4211Z" transform="translate(3272.91 -4152.21)"/><path class="cls-10" d="M-3122.46,4247.15c0,29.42-45.91,29.54-45.91,0S-3122.46,4217.72-3122.46,4247.15Z" transform="translate(3272.91 -4152.21)"/><path class="cls-11" d="M-3125.53,4243.86c0,24.74-41.44,24.63-41.44,0S-3125.53,4219.13-3125.53,4243.86Z" transform="translate(3272.91 -4152.21)"/><path class="cls-12" d="M-3129.61,4241.21c0,21.14-35.9,21.15-35.9,0S-3129.61,4220.06-3129.61,4241.21Z" transform="translate(3272.91 -4152.21)"/><path class="cls-13" d="M-3135.28,4238.08c0,16.17-27.5,16.13-27.49,0S-3135.28,4221.85-3135.28,4238.08Z" transform="translate(3272.91 -4152.21)"/><path class="cls-14" d="M-3150.56,4228.1c-2.75,2.42-8.71,17.82-10.55,10.33-0.94-3.82,2.72-8.77,6-10.41C-3154.52,4227.74-3148,4225.39-3150.56,4228.1Z" transform="translate(3272.91 -4152.21)"/><path class="cls-10" d="M-3159.9,4272.38c0,29.42-45.91,29.55-45.91,0S-3159.9,4243-3159.9,4272.38Z" transform="translate(3272.91 -4152.21)"/><path class="cls-11" d="M-3163,4269.09c0,24.74-41.43,24.63-41.43,0S-3163,4244.35-3163,4269.09Z" transform="translate(3272.91 -4152.21)"/><path class="cls-12" d="M-3167,4266.43c0,21.14-35.9,21.15-35.9,0S-3167,4245.28-3167,4266.43Z" transform="translate(3272.91 -4152.21)"/><path class="cls-13" d="M-3172.72,4263.3c0,16.17-27.5,16.13-27.5,0S-3172.72,4247.07-3172.72,4263.3Z" transform="translate(3272.91 -4152.21)"/><path class="cls-14" d="M-3188,4253.33c-2.75,2.42-8.7,17.81-10.55,10.32-0.94-3.82,2.72-8.77,6-10.41C-3192,4253-3185.4,4250.62-3188,4253.33Z" transform="translate(3272.91 -4152.21)"/><path class="cls-10" d="M-3120.58,4287c0,29.42-45.91,29.54-45.91,0S-3120.58,4257.61-3120.58,4287Z" transform="translate(3272.91 -4152.21)"/><path class="cls-11" d="M-3123.64,4283.76c0,24.73-41.44,24.63-41.44,0S-3123.64,4259-3123.64,4283.76Z" transform="translate(3272.91 -4152.21)"/><path class="cls-12" d="M-3127.72,4281.1c0,21.15-35.9,21.14-35.9,0S-3127.72,4259.95-3127.72,4281.1Z" transform="translate(3272.91 -4152.21)"/><path class="cls-13" d="M-3133.4,4278c0,16.17-27.5,16.14-27.5,0S-3133.4,4261.74-3133.4,4278Z" transform="translate(3272.91 -4152.21)"/><path class="cls-14" d="M-3148.68,4268c-2.75,2.42-8.71,17.82-10.55,10.33-0.94-3.82,2.72-8.77,6-10.41C-3152.64,4267.63-3146.09,4265.28-3148.68,4268Z" transform="translate(3272.91 -4152.21)"/><path class="cls-15" d="M-3137.73,4303.44c-4.5,1.42-.88-2.79-0.85-2.68,0-.09,5.35,1.24.85,2.68h0Z" transform="translate(3272.91 -4152.21)"/><path class="cls-15" d="M-3156.1,4256.27c-4.5,1.44-.89-2.79-0.86-2.68,0-.11,5.36,1.28.86,2.68h0Z" transform="translate(3272.91 -4152.21)"/><path class="cls-15" d="M-3121.49,4192.45c-4.5,1.42-.88-2.78-0.85-2.68,0-.1,5.36,1.26.85,2.68h0Z" transform="translate(3272.91 -4152.21)"/><path class="cls-15" d="M-3082.64,4215.21c-4.51,1.42-.89-2.78-0.86-2.68,0-.11,5.36,1.28.86,2.68h0Z" transform="translate(3272.91 -4152.21)"/><path class="cls-15" d="M-3133,4259.33c-4.51,1.42-.88-2.78-0.85-2.68,0-.1,5.36,1.26.85,2.68h0Z" transform="translate(3272.91 -4152.21)"/><path class="cls-15" d="M-3172.82,4203.24c-4.5,1.42-.88-2.78-0.85-2.68C-3173.7,4200.46-3168.31,4201.82-3172.82,4203.24Z" transform="translate(3272.91 -4152.21)"/><path class="cls-15" d="M-3194.48,4204.66c-4.5,1.41-.88-2.78-0.85-2.69,0-.08,5.35,1.23.85,2.69C-3195.59,4205-3193.36,4204.29-3194.48,4204.66Z" transform="translate(3272.91 -4152.21)"/><path class="cls-15" d="M-3222,4230.7c-4.5,1.43-.88-2.78-0.85-2.69,0-.1,5.36,1.26.85,2.69h0Z" transform="translate(3272.91 -4152.21)"/><path class="cls-15" d="M-3184.12,4236.33c-4.49,1.45-.89-2.8-0.85-2.68,0-.11,5.36,1.26.85,2.68h0Z" transform="translate(3272.91 -4152.21)"/><path class="cls-15" d="M-3174.46,4246.89c-4.5,1.42-.89-2.78-0.86-2.69,0-.09,5.35,1.26.86,2.69h0Z" transform="translate(3272.91 -4152.21)"/><path class="cls-15" d="M-3098.11,4277l-1.62-.51q0.84-2.19,2.72-.78l-1.1,1.29h0Z" transform="translate(3272.91 -4152.21)"/><path class="cls-15" d="M-3157,4217.82l-1.62-.52q0.84-2.19,2.72-.77l-1.1,1.29h0Z" transform="translate(3272.91 -4152.21)"/><path class="cls-15" d="M-3137.2,4212l-1.61-.51q0.84-2.19,2.71-.78l-1.1,1.29h0Z" transform="translate(3272.91 -4152.21)"/><path class="cls-15" d="M-3180,4192l-1.62-.52q0.84-2.18,2.71-.77l-1.1,1.29h0Z" transform="translate(3272.91 -4152.21)"/><path class="cls-15" d="M-3117,4239.41l-1.61-.52q0.85-2.19,2.72-.77l-1.1,1.28h0Z" transform="translate(3272.91 -4152.21)"/><path class="cls-15" d="M-3130.6,4218.52l-1.62-.51q0.84-2.19,2.71-.77l-1.1,1.28h0Z" transform="translate(3272.91 -4152.21)"/><path class="cls-15" d="M-3107.53,4202.81l-1.61-.52q0.84-2.18,2.71-.77l-1.1,1.29h0Z" transform="translate(3272.91 -4152.21)"/><path class="cls-15" d="M-3102.82,4235.42l-1.62-.51q0.84-2.2,2.72-.77l-1.1,1.28h0Z" transform="translate(3272.91 -4152.21)"/><path class="cls-15" d="M-3098.05,4241.86c-2.12.6,2.12-.63,0,0h0Z" transform="translate(3272.91 -4152.21)"/><path class="cls-15" d="M-3148.3,4210.66c-2,.6,2-0.57,0,0h0Z" transform="translate(3272.91 -4152.21)"/><path class="cls-15" d="M-3070.6,4240.94c-2.23.59,2.18-.65,0,0C-3070.93,4241-3070.28,4240.84-3070.6,4240.94Z" transform="translate(3272.91 -4152.21)"/><path class="cls-15" d="M-3082.84,4230.37h0Z" transform="translate(3272.91 -4152.21)"/><path class="cls-15" d="M-3035.28,4221.45c-2.07.61,2.07-.59,0,0h0Z" transform="translate(3272.91 -4152.21)"/><path class="cls-15" d="M-3046.35,4207.84c-2,.6,2.05-0.58,0,0h0Z" transform="translate(3272.91 -4152.21)"/><path class="cls-15" d="M-3146.41,4282.7c-2.13.6,2.09-.6,0,0h0Z" transform="translate(3272.91 -4152.21)"/><path class="cls-15" d="M-3128.28,4291.38h0Z" transform="translate(3272.91 -4152.21)"/><path class="cls-15" d="M-3117.21,4264.16c-2,.6,2-0.55,0,0h0Z" transform="translate(3272.91 -4152.21)"/><path class="cls-15" d="M-3103.56,4258.3c-2.12.6,2.13-.63,0,0h0Z" transform="translate(3272.91 -4152.21)"/><path class="cls-15" d="M-3091.55,4273.08c-2,.6,2.06-0.58,0,0h0Z" transform="translate(3272.91 -4152.21)"/><path class="cls-15" d="M-3173.13,4263.77h0Z" transform="translate(3272.91 -4152.21)"/><path class="cls-15" d="M-3188.19,4265.88c-2.17.58,2.14-.6,0,0h0Z" transform="translate(3272.91 -4152.21)"/><path class="cls-15" d="M-3174.07,4283.25c-2.18.58,2.14-.61,0,0h0Z" transform="translate(3272.91 -4152.21)"/><path class="cls-15" d="M-3212.68,4256.73c-2.13.6,2.1-.6,0,0h0Z" transform="translate(3272.91 -4152.21)"/><path class="cls-15" d="M-3230.46,4258.21c-2.13.61,2.13-.64,0,0h0Z" transform="translate(3272.91 -4152.21)"/><path class="cls-15" d="M-3226.69,4273h0Z" transform="translate(3272.91 -4152.21)"/><path class="cls-15" d="M-3180.54,4224.18c-2.12.59,2.11-.6,0,0h0Z" transform="translate(3272.91 -4152.21)"/><path class="cls-15" d="M-3196.56,4230.75c-2.16.59,2.15-.63,0,0h0Z" transform="translate(3272.91 -4152.21)"/><path class="cls-15" d="M-3171.13,4238.5h0Z" transform="translate(3272.91 -4152.21)"/><path class="cls-15" d="M-3130.63,4207.76c-2.12.6,2.13-.64,0,0h0Z" transform="translate(3272.91 -4152.21)"/><path class="cls-15" d="M-3101,4196.5h0Z" transform="translate(3272.91 -4152.21)"/><path class="cls-15" d="M-3069.19,4207.61h0Z" transform="translate(3272.91 -4152.21)"/><path class="cls-15" d="M-3083.55,4199.4h0Z" transform="translate(3272.91 -4152.21)"/><path class="cls-15" d="M-3113.91,4181.72c-2,.6,2.05-0.58,0,0h0Z" transform="translate(3272.91 -4152.21)"/><path class="cls-15" d="M-3100.72,4187.12c-2.05.6,2-.58,0,0h0Z" transform="translate(3272.91 -4152.21)"/><path class="cls-15" d="M-3182.54,4182.58h0Z" transform="translate(3272.91 -4152.21)"/><path class="cls-15" d="M-3197.14,4194.54c-2,.59,2-0.54,0,0h0Z" transform="translate(3272.91 -4152.21)"/><path class="cls-15" d="M-3220.8,4208.94c-2.11.59,2.1-.6,0,0h0Z" transform="translate(3272.91 -4152.21)"/><path class="cls-15" d="M-3210.2,4206.12c-2.11.6,2.11-.61,0,0h0Z" transform="translate(3272.91 -4152.21)"/><path class="cls-15" d="M-3256.94,4240.31h0Z" transform="translate(3272.91 -4152.21)"/><path class="cls-15" d="M-3238.58,4234.2c-2,.59,2-0.54,0,0h0Z" transform="translate(3272.91 -4152.21)"/><path class="cls-15" d="M-3256.12,4258.22h0Z" transform="translate(3272.91 -4152.21)"/><path class="cls-15" d="M-3179.49,4201.35h0Z" transform="translate(3272.91 -4152.21)"/><path class="cls-15" d="M-3150.53,4160.06c-2.2.59,2.18-.65,0,0C-3150.85,4160.14-3150.2,4160-3150.53,4160.06Z" transform="translate(3272.91 -4152.21)"/><path class="cls-15" d="M-3135.33,4166.7h0Z" transform="translate(3272.91 -4152.21)"/><path class="cls-15" d="M-3161.71,4177h0Z" transform="translate(3272.91 -4152.21)"/><path class="cls-15" d="M-3149.46,4182.19h0Z" transform="translate(3272.91 -4152.21)"/><path class="cls-15" d="M-3144.76,4221.83c-2.11.59,2.09-.59,0,0h0Z" transform="translate(3272.91 -4152.21)"/><path class="cls-15" d="M-3169.69,4224.63l-1.61-.52q0.84-2.19,2.71-.77l-1.1,1.29h0Z" transform="translate(3272.91 -4152.21)"/><path class="cls-15" d="M-3209.42,4220.09l-1.62-.52q0.84-2.19,2.72-.78l-1.1,1.29h0Z" transform="translate(3272.91 -4152.21)"/><path class="cls-15" d="M-3205.71,4251.61l-1.62-.52q0.84-2.19,2.72-.77l-1.1,1.29h0Z" transform="translate(3272.91 -4152.21)"/><path class="cls-15" d="M-3221.72,4265.45l-1.62-.51q0.85-2.19,2.72-.77l-1.1,1.28h0Z" transform="translate(3272.91 -4152.21)"/><path class="cls-15" d="M-3210.18,4274.14l-1.62-.52q0.84-2.2,2.72-.78l-1.1,1.29h0Z" transform="translate(3272.91 -4152.21)"/><path class="cls-15" d="M-3144.26,4191.3l-1.62-.52q0.84-2.2,2.71-.77l-1.1,1.28h0Z" transform="translate(3272.91 -4152.21)"/><path class="cls-15" d="M-3136.49,4174.17l-1.62-.51q0.84-2.19,2.72-.77l-1.1,1.28h0Z" transform="translate(3272.91 -4152.21)"/><path class="cls-15" d="M-3152.26,4170.89l-1.62-.52q0.85-2.2,2.72-.77l-1.1,1.28h0Z" transform="translate(3272.91 -4152.21)"/><path class="cls-15" d="M-3108.66,4282.62l-1.48-.83q1.26-2,2.81-.21l-1.33,1h0Z" transform="translate(3272.91 -4152.21)"/><path class="cls-15" d="M-3074.12,4256.11l-1.48-.83q1.27-2,2.82-.21l-1.34,1h0Z" transform="translate(3272.91 -4152.21)"/><path class="cls-15" d="M-3084.48,4244.14l-1.48-.83q1.27-2,2.82-.22l-1.34,1h0Z" transform="translate(3272.91 -4152.21)"/><path class="cls-15" d="M-3061.34,4250.94l-1.48-.83q1.27-2,2.82-.21l-1.34,1C-3062.11,4251-3060.56,4250.88-3061.34,4250.94Z" transform="translate(3272.91 -4152.21)"/><path class="cls-15" d="M-3152,4298.34l-1.48-.83q1.26-2,2.81-.22l-1.33,1h0Z" transform="translate(3272.91 -4152.21)"/><path class="cls-15" d="M-3131.26,4284.73l-1.48-.83q1.27-2,2.82-.22l-1.34,1h0Z" transform="translate(3272.91 -4152.21)"/><path class="cls-15" d="M-3141.62,4250.36l-1.48-.83q1.26-2,2.81-.22l-1.33,1h0Z" transform="translate(3272.91 -4152.21)"/><path class="cls-15" d="M-3131.49,4239.91l-1.48-.83q1.26-2,2.82-.22l-1.34,1h0Z" transform="translate(3272.91 -4152.21)"/><path class="cls-15" d="M-3194.83,4280.51l-1.48-.83q1.26-2,2.82-.22l-1.34,1h0Z" transform="translate(3272.91 -4152.21)"/><path class="cls-15" d="M-3189.65,4289.42l-1.48-.83q1.26-2,2.81-.21l-1.34,1h0Z" transform="translate(3272.91 -4152.21)"/><path class="cls-15" d="M-3169.8,4276.51l-1.48-.83q1.26-2,2.82-.22l-1.34,1h0Z" transform="translate(3272.91 -4152.21)"/></g></g></svg>