<svg xmlns="http://www.w3.org/2000/svg" viewBox="0 0 227.84 173.21"><defs><style>.cls-1{isolation:isolate;}.cls-2{fill:#612f00;}.cls-2,.cls-4{opacity:0.3;}.cls-11,.cls-13,.cls-15,.cls-16,.cls-2,.cls-27,.cls-4,.cls-6,.cls-8{mix-blend-mode:multiply;}.cls-3{fill:#49494b;}.cls-5,.cls-6{fill:#ef8400;}.cls-13,.cls-6{opacity:0.33;}.cls-11,.cls-7,.cls-8{fill:#f9b407;}.cls-8{opacity:0.75;}.cls-9{fill:#2c2c2e;}.cls-10,.cls-12,.cls-23{fill:#fff;}.cls-10{opacity:0.1;}.cls-11{opacity:0.25;}.cls-12{opacity:0.28;}.cls-13{fill:#d4760a;}.cls-14{fill:#272729;}.cls-15{opacity:0.24;}.cls-16{opacity:0.4;}.cls-17{fill:#fecf0a;}.cls-18{fill:#ffe100;}.cls-19{fill:#cdcfd0;}.cls-20{fill:#8a8c8d;}.cls-21{fill:#a9aaac;}.cls-22{opacity:0.19;}.cls-22,.cls-25{mix-blend-mode:overlay;}.cls-24{opacity:0.27;}.cls-25{opacity:0.09;}.cls-26,.cls-27{fill:#d81f26;}</style></defs><title>artefact_01</title><g class="cls-1"><g id="Layer_1" data-name="Layer 1"><path class="cls-2" d="M-3410.06,3727.91c0.9-13.84,1.42-27.71,1.77-41.57-22.2,37.43-50.15,72.16-85.05,98.46a229.53,229.53,0,0,1-60.87,33.25c-7.24,2.58-6.94,2.27-10.35-4.28-2-3.85-4.26-7.94-7.34-11.05-6.36-6.41-16-9.57-24.59-5.66-11.95,5.44-19.46,24.45-23.73,36.23-1,2.74-1.47,4.56-1,7.26-0.28-1.62,3.56,5.79,2.76,5.25,4.75,3.22,10.62-4.65,17.48-5.49,5.83-.71,21.86-3.66,26.49-1.57,3,1.37,2.26,5.05,6.52,5.75,5.9,1,6.28-5.29,9.87-8,5.61-4.22,14.58-3.19,21.41-4.65a173.28,173.28,0,0,0,37.12-12.77c24.91-11.67,47.73-28,68-46.48,7.52-6.87,15.4-13.88,18.72-23.81,2-5.93,2.61-18.25,2.78-20.88C-3409.16,3714.07-3410.07,3728.05-3410.06,3727.91Zm-167.67,95.67c1.86,7.17-24.26,7.25-30.13,8,4.58-13.69,24.31-30,30.13-8C-3575.88,3830.76-3577.84,3823.18-3577.73,3823.59Z" transform="translate(3621.39 -3675.11)"/><path class="cls-3" d="M-3610,3836.25c-7.13,1.87-9.85-8.49-2.58-8.56C-3607.72,3827.65-3610,3832-3610,3836.25Z" transform="translate(3621.39 -3675.11)"/><g class="cls-4"><path class="cls-3" d="M-3616.91,3830.56c0-3.46,5.82-3.53,7-2,3.18,4.11-.35,8.31-4.4,7.65,0.53-1.82,1.64-10.84-2.6-5.65C-3616.91,3830.29-3615.81,3829.23-3616.91,3830.56Z" transform="translate(3621.39 -3675.11)"/></g><path class="cls-5" d="M-3575,3813.59c-0.79-4.48-7.44-7.33-11.12-6.84-6.9.92-13,10.15-15.62,15.84-1.21,2.67-4,22-9.18,19.71-2.62-1.14-1.57-4.46-1.44-7.06,0.49-10.25,4.17-28.73,13.74-34.74s22,3.3,23.63,13.1C-3574.91,3813.94-3577.45,3799-3575,3813.59Z" transform="translate(3621.39 -3675.11)"/><path class="cls-5" d="M-3604.31,3816.44c2.33-4.19,6.61-8.16,11.63-6-3.5,3-8.51,15.16-12.1,15.27-5.05.15-.56-7.38,0.48-9.25C-3600.1,3808.86-3610.05,3826.81-3604.31,3816.44Z" transform="translate(3621.39 -3675.11)"/><path class="cls-6" d="M-3596.88,3799.42c9.65-3.82,20.36,5,21.92,14.17-0.51-2.9-5.36-6.5-7.91-7-3.29-.63-5.24,1.8-8,2.57-0.68.19-5.32,0.42-5.84,0.69-4.29,2.2-15.57,19.48-6,15.2-0.87,2.48-3.41,16.88-7.54,16.59-3-.21-2-1.48-2.25-5.21-0.71-9.9,5.36-33,15.62-37h0Z" transform="translate(3621.39 -3675.11)"/><path class="cls-5" d="M-3605.82,3837.68a7.53,7.53,0,0,1-4.55,4.45c0.46-2.27,1.91-4.73,4.55-4.45C-3606.32,3839-3607.3,3837.52-3605.82,3837.68Z" transform="translate(3621.39 -3675.11)"/><path class="cls-7" d="M-3604.63,3804.47c6.63-14.89,25.19-19.46,36.34-6.71,6.1,7,11.72,19.53,11.5,29-0.16,6.76-5.6,17.83-11.66,9.18-4.35-6.2-2.15-17.87-6.34-25.14-4-6.89-11.21-12.32-19.5-9.79-15.1,4.62-16.45,28.29-17.76,40.84-6.51-8.08,4.28-30.32,7.43-37.39C-3596,3785-3613.27,3823.91-3604.63,3804.47Z" transform="translate(3621.39 -3675.11)"/><path class="cls-8" d="M-3561.5,3819.67c-1.32-9.72-8.74,2.79-5.06,8.51C-3560.46,3837.69-3558.79,3825.33-3561.5,3819.67Z" transform="translate(3621.39 -3675.11)"/><path class="cls-9" d="M-3561.63,3820c-3.26-9.34-7.44,3.51-4.68,7.87C-3560.71,3836.68-3559.12,3825.21-3561.63,3820Z" transform="translate(3621.39 -3675.11)"/><path class="cls-3" d="M-3561.21,3819.61c-3.25-9.36-7.45,3.5-4.68,7.87C-3560.3,3836.29-3558.7,3824.84-3561.21,3819.61Z" transform="translate(3621.39 -3675.11)"/><path class="cls-10" d="M-3574,3832.4a31.35,31.35,0,0,1-5.13-1.93C-3580.8,3829.53-3578.28,3832.24-3574,3832.4Z" transform="translate(3621.39 -3675.11)"/><path class="cls-11" d="M-3598.91,3801.13c7.92-5.79,15.66-2.8,22.9,2,4,2.65,14,8.72,9.75-2.37,2.88,4.79,18.91,40.49,1.81,38.64-6.92-.75-7.34-24.12-11.28-30-7.87-11.85-21.45-11.14-28.73.83-5.62,9.24-6.5,21.15-7.61,31.69-3.18-4-1-10.78,0-15.21a108.17,108.17,0,0,1,4.59-15.24c2.84-7.53,3.16-6.34,8.55-10.28h0Z" transform="translate(3621.39 -3675.11)"/><path class="cls-7" d="M-3566.67,3800.06c7.79,13-8.65,1.56-10.93.22-4.27-2.51-7.89-4.46-13.11-3.75-3.33.45-10.6,7.12-13.14,6.33,7.43-14.47,28.11-17.78,37.19-2.8h0Z" transform="translate(3621.39 -3675.11)"/><path class="cls-12" d="M-3569.38,3797c0.52,0.61,4,4.61,2,5.36-1.58.58-11.62-9.45-16-9.91-2.13-.23-15.47,4.06-15.35,4.19-1.43-1.59,9-5.34,9.74-5.51,6.74-1.46,15.08.23,19.57,5.87h0Z" transform="translate(3621.39 -3675.11)"/><path class="cls-13" d="M-3605.56,3827c-4.82-1.42-7.11,8.59-.55,8.9Z" transform="translate(3621.39 -3675.11)"/><path class="cls-3" d="M-3571.21,3832.43c-6.52,1-34,8.26-37.93,1.61-5.74-9.62,31.64-11.17,36.5-13.71C-3572,3824.34-3571.63,3828.39-3571.21,3832.43Z" transform="translate(3621.39 -3675.11)"/><path class="cls-14" d="M-3575.52,3831.72c-1.18-.35,3.27,1,3.23.29,0,0.87-13.17-5-10.51-6.5C-3584.58,3826.56-3576.35,3831.48-3575.52,3831.72Z" transform="translate(3621.39 -3675.11)"/><path class="cls-14" d="M-3577.3,3832.58c4.16,1.2-9.24-5.71-6.88-6.36C-3586.37,3826.85-3578.1,3832.35-3577.3,3832.58Z" transform="translate(3621.39 -3675.11)"/><path class="cls-14" d="M-3580.78,3833.11c1,0.29-7.47-6.11-5.59-6.54C-3588.45,3827.07-3581.88,3832.79-3580.78,3833.11Z" transform="translate(3621.39 -3675.11)"/><path class="cls-14" d="M-3583.75,3833.06c-0.47-.11-5-6.22-4.25-6.25C-3588.74,3826.81-3585.47,3832.5-3583.75,3833.06Z" transform="translate(3621.39 -3675.11)"/><path class="cls-14" d="M-3586.19,3833.51c-0.15,0-5.07-6.17-4-6.27C-3591,3827.34-3588,3833.51-3586.19,3833.51Z" transform="translate(3621.39 -3675.11)"/><path class="cls-14" d="M-3588.47,3833.7c-0.75-.19-3.89-6.19-4-6.21C-3592.8,3827.44-3590.47,3833.18-3588.47,3833.7Z" transform="translate(3621.39 -3675.11)"/><path class="cls-14" d="M-3592.09,3834.1c-1.48-.39-2.62-5.46-3.26-6.11C-3595.07,3828.29-3594.66,3832.94-3592.09,3834.1Z" transform="translate(3621.39 -3675.11)"/><path class="cls-14" d="M-3595.41,3834.19c-1.19-.46-1.83-4.9-2.33-5.55C-3597.92,3828.43-3597.75,3833.78-3595.41,3834.19Z" transform="translate(3621.39 -3675.11)"/><path class="cls-14" d="M-3599,3833.8c0.48,0.12-2.48-3.89-2.42-4.08C-3601.77,3830.9-3599.65,3833.61-3599,3833.8Z" transform="translate(3621.39 -3675.11)"/><g class="cls-15"><path class="cls-3" d="M-3603.17,3826.14c9.53-1.34,21.86-1.28,30.53-5.81,0.61,4,1,8.07,1.43,12.11-2.16-1.23-3.15-7.18-7.52-6.06s5,5.16,5.49,5.56c-1.82-1.6-7.13-2.22-9.71-4.5,1.6,1.42,3.19,4.77,6.17,5.07-3.08-.3-6-4.4-8.58-4.39-1.28,0,4.43,4.94,3.88,4.31,0.32,0.37-6.31-4-6.43-4,0.78,0.16,1.48,3.2,2.24,3.21q-1.91-1.51-3.92-2.87c-0.85-.12,3.95,4.79,4,4.8-0.44-.87-4.63-1.78-5.11-3.31a19.8,19.8,0,0,0,2.37,3.22c0.15,0.23-4.81-5-4.66-5-1.4.16,0.4,5.13,0.6,5.15-2.1-.18-2.67-4.3-4.81-4.59s1.52,4.65,1.35,4.3a45.4,45.4,0,0,0-4.7-3.38c-0.36-.11,1.9,4,1.94,3.83,2.14-6.23-16-6.1-6.85,2.16-8.13-1.19-2.84-9.05,2.36-9.78h0Z" transform="translate(3621.39 -3675.11)"/></g><g class="cls-16"><path class="cls-3" d="M-3603.17,3826.14c9.53-1.34,21.86-1.28,30.53-5.81,0.49,3.16.82,6.36,1.16,9.54-3.24-9.42-11.74-4.65-19.32-3.68-4.56.58-14.4-1-18,2.61a6.69,6.69,0,0,1,5.59-2.66h0Z" transform="translate(3621.39 -3675.11)"/></g><path class="cls-10" d="M-3577.7,3832.82a40.24,40.24,0,0,0-5.4-2.74C-3581.29,3830.62-3580.49,3833.17-3577.7,3832.82Z" transform="translate(3621.39 -3675.11)"/><path class="cls-10" d="M-3581,3833.25a23.82,23.82,0,0,1-3.76-2C-3586.26,3830.22-3583.39,3832.94-3581,3833.25Z" transform="translate(3621.39 -3675.11)"/><path class="cls-10" d="M-3583,3833.67c-0.43.07-5.49-3.57-5.46-3.76-0.19,1.57,4.26,4,5.46,3.76h0Z" transform="translate(3621.39 -3675.11)"/><path class="cls-10" d="M-3588.41,3834.16c-0.42-.41-4.44-3.2-4.29-3.61C-3593.31,3832.18-3589.62,3834.33-3588.41,3834.16Z" transform="translate(3621.39 -3675.11)"/><path class="cls-10" d="M-3592,3834.46c-0.41-.39-4.28-3.23-4.18-3.57C-3596.58,3832.35-3593.27,3835-3592,3834.46Z" transform="translate(3621.39 -3675.11)"/><path class="cls-10" d="M-3594.78,3834.38c-0.4-.32-4.44-1.93-4.69-2.5a2.77,2.77,0,0,1,.94,2.06c1.85-2.87-9.7-1-5.6.87C-3603.33,3835.18-3594.26,3834.8-3594.78,3834.38Z" transform="translate(3621.39 -3675.11)"/><path class="cls-17" d="M-3584.57,3801.47c7.32,3.13,10.93,10.44,13,17.67,1.59,5.44.6,15.23,4.59,19.61-9.58-4.69-5.72-23.26-12.77-31.11-10.33-11.52-23.55-1.79-28,10,2.93-9.69,11.74-21,23.1-16.15h0Z" transform="translate(3621.39 -3675.11)"/><path class="cls-18" d="M-3569.68,3828.84c-3.52-4.78-3.49-6.42-5.15-12C-3570.71,3819.94-3570.24,3823.92-3569.68,3828.84Z" transform="translate(3621.39 -3675.11)"/><path class="cls-18" d="M-3588.64,3802.38l-2.27-.06c3.87-3.9,10,.65,12.88,3.88-4.29-.42-6.27-3.33-10.6-3.82h0Z" transform="translate(3621.39 -3675.11)"/><path class="cls-19" d="M-3435.18,3740.14L-3414,3687c-0.51,17.53-.82,35.27-2.89,52.7-0.6,5.07.09,9.28-4.18,9.24C-3424.7,3748.93-3431.94,3742.17-3435.18,3740.14Z" transform="translate(3621.39 -3675.11)"/><path class="cls-20" d="M-3413.85,3681.33c1.21,14.25-11,32.95-16.14,45.79-3.37,8.44-5.68,14.11-11.43,21-31.58,37.73-76.27,65.42-124.31,76.09-2-9.23,6.46-8.94,13-11.35a199.2,199.2,0,0,0,36.08-17.8C-3472.67,3767.69-3439.05,3726-3413.85,3681.33Z" transform="translate(3621.39 -3675.11)"/><path class="cls-21" d="M-3435.11,3740c5.26,3.29,10.52,6.71,15.84,9.85-14.73,17.85-33.17,33.44-52.1,46.58-14.56,10.11-30.21,18.87-46.92,24.89-7.95,2.87-44.56,15.79-47.37,2.73C-3515.34,3812.84-3465.5,3782.22-3435.11,3740Z" transform="translate(3621.39 -3675.11)"/><g class="cls-22"><path class="cls-23" d="M-3460,3767.46c9.18-1.23,18.36-2.46,27.55-3.56-7.05,7-17,19.57-26.6,20.75-6,.73-13.3-1.14-19.36-1.67q9.58-7.3,18.41-15.52C-3451.26,3766.29-3465.3,3772.4-3460,3767.46Z" transform="translate(3621.39 -3675.11)"/><path class="cls-23" d="M-3506,3801.11l17.32,6.26c-6.28,3.61-12,7.75-19,6.81-4.77-.64-9.9-3.29-14.49-4.82Q-3513.92,3805.57-3506,3801.11Z" transform="translate(3621.39 -3675.11)"/><path class="cls-23" d="M-3545.43,3818.32l25.16,3.43c-13.13,5.34-19.71,3.27-32.8-.43C-3550.53,3820.15-3547.87,3819.68-3545.43,3818.32Z" transform="translate(3621.39 -3675.11)"/></g><g class="cls-24"><path class="cls-23" d="M-3424.28,3712.82l9.34-.9c-0.23,4.81.64,12.44-2.52,15-2.37,1.91-10.37,1.9-13.43,2.5Z" transform="translate(3621.39 -3675.11)"/></g><g class="cls-25"><path class="cls-23" d="M-3545.55,3810c5.83,0,16.13-7.56,21.18-10.42a229.92,229.92,0,0,0,29.07-19.6c26.45-20.83,48.57-46.81,67-74.9-12.28,26.51-28.14,47.84-50.23,66.87-18.58,16-41.89,34.57-67,38h0Z" transform="translate(3621.39 -3675.11)"/></g><path class="cls-2" d="M-3603.12,3725.39c0.91,21.35,6.82,32.15,22.53,46.8,17.7,16.51,37.35,31.23,58.73,42.65a189,189,0,0,0,31.56,13.52,132.64,132.64,0,0,0,19.12,4.79c3.29,0.53,8.5-.06,11.49,1.53,7.51,4,6.12,13.16,16.24,8.27,3.45-1.67,1.83-3.26,6.79-3.87,4-.49,9.61,1.41,13.69,1.74,3.92,0.31,8.19-.2,12,0.88,3.62,1,4.84,3.43,7.82,4.8,3.68,1.69,2.76,2.8,6.21.56-0.45.3,3.41-6.68,3.3-5.85,0.76-5.68-3.83-11-6-15.84-3.14-7-5-14.31-10-20.38-13.66-16.49-31.87-6.93-40.56,9.06-4.18,7.69-4.14,6.57-12.81,3.19-4.74-1.85-9.42-3.87-14-6.06a229.91,229.91,0,0,1-31.22-18.1c-40.38-27.74-71.81-67-95.86-109.29,0.1,13.87.37,27.74,1,41.59,0-.42-0.1-2.16,0,0C-3602.38,3742.93-3603.23,3723.12-3603.12,3725.39Zm165.89,98.71c6.82-24,26-4.18,30,8.58-3.92-.59-32.12-0.92-30-8.58C-3430.41,3800.12-3437.25,3824.16-3437.23,3824.11Z" transform="translate(3621.39 -3675.11)"/><path class="cls-3" d="M-3405.17,3837.36c8.17,2.14,9.59-10,0-8.59v8.59Z" transform="translate(3621.39 -3675.11)"/><g class="cls-4"><path class="cls-3" d="M-3398.2,3831.8c0-2.94-4.73-3.35-7-3,0,4.94-2,9.54,4.26,8.63-0.5-1.83-1.44-10.85,2.7-5.6C-3398.19,3831.53-3399.26,3830.45-3398.2,3831.8Z" transform="translate(3621.39 -3675.11)"/></g><path class="cls-5" d="M-3439.82,3814.07c0.82-4.46,7.63-7.19,11.25-6.64,6.89,1,12.86,10.38,15.33,16.12,1.16,2.69,3.61,22,8.82,19.87,2.64-1.09,1.65-4.42,1.57-7-0.3-10.27-3.63-28.79-13.1-35s-22,2.9-23.87,12.66h0Z" transform="translate(3621.39 -3675.11)"/><path class="cls-5" d="M-3410.54,3817.45c-2.25-4.23-6.46-8.27-11.52-6.22,3.45,3,8.23,15.31,11.82,15.48,5.05,0.24.7-7.37-.31-9.26h0Z" transform="translate(3621.39 -3675.11)"/><path class="cls-6" d="M-3417.65,3800.3c-9.58-4-20.45,4.65-22.17,13.77,0.53-2.88,5.52-6.4,8-6.84,3.31-.58,5.2,1.89,8,2.71,0.67,0.2,5.32.52,5.83,0.79,4.25,2.28,15.21,19.77,5.69,15.31,0.82,2.5,3.11,16.94,7.24,16.72,3-.16,2-1.45,2.35-5.17,0.89-9.89-4.74-33.05-14.94-37.3h0Z" transform="translate(3621.39 -3675.11)"/><path class="cls-5" d="M-3409.41,3838.72a7.51,7.51,0,0,0,4.46,4.53c-0.46-2.27-1.8-4.77-4.46-4.53C-3408.93,3840.09-3407.94,3838.58-3409.41,3838.72Z" transform="translate(3621.39 -3675.11)"/><path class="cls-7" d="M-3410,3805.49c-6.35-15-24.83-19.91-36.21-7.37-6.22,6.86-12.08,19.32-12,28.79,0,6.76,5.27,17.92,11.49,9.39,4.46-6.12,2.48-17.83,6.8-25,4.09-6.82,11.44-12.11,19.68-9.43,15,4.89,15.92,28.59,17,41.16,6.65-8-3.72-30.39-6.74-37.52h0Z" transform="translate(3621.39 -3675.11)"/><path class="cls-8" d="M-3453.4,3819.91c1.51-9.7,8.68,2.94,4.9,8.6C-3454.77,3837.9-3456.21,3825.52-3453.4,3819.91Z" transform="translate(3621.39 -3675.11)"/><path class="cls-9" d="M-3453.27,3820.22c3.43-9.3,7.38,3.64,4.53,8C-3454.49,3836.88-3455.88,3825.4-3453.27,3820.22Z" transform="translate(3621.39 -3675.11)"/><path class="cls-3" d="M-3453.68,3819.83c3.42-9.3,7.38,3.64,4.53,7.95C-3454.9,3836.49-3456.29,3825-3453.68,3819.83Z" transform="translate(3621.39 -3675.11)"/><path class="cls-10" d="M-3441.1,3832.85a31.18,31.18,0,0,0,5.17-1.84C-3434.28,3830.11-3436.85,3832.78-3441.1,3832.85Z" transform="translate(3621.39 -3675.11)"/><path class="cls-11" d="M-3415.65,3802c-7.82-5.94-15.61-3.07-22.94,1.57-4.07,2.58-14.16,8.45-9.7-2.55-3,4.73-19.64,40.15-2.52,38.6,6.93-.62,7.78-24,11.83-29.84,8.09-11.7,21.65-10.75,28.71,1.35,5.45,9.35,6.11,21.27,7,31.82,3.25-3.92,1.16-10.76.28-15.21a108.07,108.07,0,0,0-4.31-15.32c-2.71-7.58-3.05-6.39-8.36-10.44C-3423.3,3796.23-3413.44,3803.73-3415.65,3802Z" transform="translate(3621.39 -3675.11)"/><path class="cls-7" d="M-3447.87,3800.39c-8.11,12.87,8.66,1.69,10.92.42,4.31-2.43,8-4.31,13.18-3.51,3.34,0.52,10.43,7.31,13,6.57-7.17-14.6-27.77-18.3-37.13-3.48h0Z" transform="translate(3621.39 -3675.11)"/><path class="cls-12" d="M-3445.1,3797.42c-0.51.62-4.13,4.53-2.11,5.32,1.57,0.61,11.8-9.23,16.16-9.62,2.13-.19,15.4,4.33,15.27,4.47,1.46-1.57-8.89-5.51-9.64-5.69-6.71-1.59-15.08,0-19.68,5.51h0Z" transform="translate(3621.39 -3675.11)"/><path class="cls-13" d="M-3409.47,3828.07c4.84-1.33,7,8.72.38,8.91Z" transform="translate(3621.39 -3675.11)"/><path class="cls-3" d="M-3443.91,3832.83c6.5,1.1,33.8,8.89,37.89,2.3,5.92-9.51-31.43-11.74-36.24-14.38C-3443,3824.76-3443.43,3828.8-3443.91,3832.83Z" transform="translate(3621.39 -3675.11)"/><path class="cls-14" d="M-3439.6,3832.21c1.17-.33-3.27.93-3.24,0.24-0.05.75,13.35-4.7,10.63-6.31C-3430.45,3827.28-3438.75,3832-3439.6,3832.21Z" transform="translate(3621.39 -3675.11)"/><path class="cls-14" d="M-3437.84,3833.1c-4.15,1.13,9.34-5.57,7-6.24C-3428.59,3827.62-3437.06,3832.88-3437.84,3833.1Z" transform="translate(3621.39 -3675.11)"/><path class="cls-14" d="M-3434.36,3833.69c-1,.25,7.62-5.9,5.71-6.44C-3426.54,3827.87-3433.27,3833.39-3434.36,3833.69Z" transform="translate(3621.39 -3675.11)"/><path class="cls-14" d="M-3431.39,3833.69c0.49-.12,5-6.15,4.37-6.18C-3426.18,3827.56-3429.74,3833.16-3431.39,3833.69Z" transform="translate(3621.39 -3675.11)"/><path class="cls-14" d="M-3429,3834.19c0.14,0,5.21-6,4.11-6.2C-3424.09,3828.1-3427.12,3834.19-3429,3834.19Z" transform="translate(3621.39 -3675.11)"/><path class="cls-14" d="M-3426.68,3834.42c0.61-.19,4.23-6.15,4.06-6.13C-3422.23,3828.24-3424.73,3833.87-3426.68,3834.42Z" transform="translate(3621.39 -3675.11)"/><path class="cls-14" d="M-3423.08,3834.89c1.47-.39,2.73-5.45,3.37-6.05C-3420,3829.12-3420.46,3833.82-3423.08,3834.89Z" transform="translate(3621.39 -3675.11)"/><path class="cls-14" d="M-3419.75,3835c1.16-.26,2-5,2.43-5.52C-3417.34,3829.54-3417.4,3834.28-3419.75,3835Z" transform="translate(3621.39 -3675.11)"/><path class="cls-14" d="M-3416.16,3834.7c-0.47.12,2.55-3.83,2.49-4C-3413.34,3831.86-3415.51,3834.53-3416.16,3834.7Z" transform="translate(3621.39 -3675.11)"/><g class="cls-15"><path class="cls-3" d="M-3411.85,3827.13c-9.5-1.5-21.83-1.68-30.42-6.37-0.69,4-1.16,8-1.65,12.07,2.18-1.19,3.28-7.12,7.63-5.92s-5.15,5.07-5.6,5.46c1.84-1.57,7.18-2.08,9.79-4.32-1.63,1.4-3.27,4.71-6.26,5,3.09-.25,6.07-4.28,8.66-4.23,1.27,0-4.52,4.86-4,4.23-0.3.34,6.32-3.85,6.5-3.89-0.79.16-1.53,3.17-2.29,3.17q1.93-1.48,4-2.8c0.85-.1-4,4.71-4,4.73,0.45-.85,4.67-1.69,5.17-3.21a20.14,20.14,0,0,1-2.43,3.17c-0.15.22,4.89-4.9,4.75-4.92,1.4,0.19-.48,5.13-0.69,5.14,2.1-.15,2.75-4.26,4.89-4.5s-1.61,4.62-1.43,4.28a45.85,45.85,0,0,1,4.76-3.29c0.37-.1-2,3.92-2,3.8-2-6.27,16.05-5.82,6.81,2.28,8.14-1.06,3-9-2.19-9.83h0Z" transform="translate(3621.39 -3675.11)"/></g><g class="cls-16"><path class="cls-3" d="M-3411.85,3827.13c-9.5-1.5-21.83-1.68-30.42-6.37-0.54,3.15-.94,6.34-1.34,9.52,3.41-9.36,11.82-4.44,19.39-3.33,4.54,0.67,14.41-.69,17.91,2.94a6.69,6.69,0,0,0-5.55-2.76h0Z" transform="translate(3621.39 -3675.11)"/></g><path class="cls-10" d="M-3437.44,3833.34a39.58,39.58,0,0,1,5.45-2.65C-3433.81,3831.2-3434.65,3833.74-3437.44,3833.34Z" transform="translate(3621.39 -3675.11)"/><path class="cls-10" d="M-3434.19,3833.84a24.37,24.37,0,0,0,3.79-1.91C-3428.83,3830.9-3431.75,3833.56-3434.19,3833.84Z" transform="translate(3621.39 -3675.11)"/><path class="cls-10" d="M-3432.2,3834.29c0.41,0.09,5.55-3.48,5.53-3.66,0.16,1.57-4.34,3.88-5.53,3.66h0Z" transform="translate(3621.39 -3675.11)"/><path class="cls-10" d="M-3426.76,3834.88c0.43-.4,4.51-3.12,4.36-3.53C-3421.82,3833-3425.56,3835.07-3426.76,3834.88Z" transform="translate(3621.39 -3675.11)"/><path class="cls-10" d="M-3423.19,3835.24c0.41-.38,4.34-3.15,4.25-3.49C-3418.56,3833.21-3421.91,3835.81-3423.19,3835.24Z" transform="translate(3621.39 -3675.11)"/><path class="cls-10" d="M-3420.39,3835.21c0.4-.3,4.49-1.86,4.74-2.41a2.78,2.78,0,0,0-1,2c-1.8-2.9,9.72-.81,5.58,1C-3411.84,3836.16-3420.93,3835.64-3420.39,3835.21Z" transform="translate(3621.39 -3675.11)"/><path class="cls-17" d="M-3430,3802.13c-7.38,3-11.11,10.24-13.36,17.42-1.7,5.43-.88,15.2-5,19.52,9.66-4.52,6.15-23.14,13.34-30.87,10.54-11.32,23.58-1.37,27.77,10.49-2.75-9.75-11.36-21.19-22.8-16.56h0Z" transform="translate(3621.39 -3675.11)"/><path class="cls-18" d="M-3445.39,3829.21c3.61-4.71,3.61-6.36,5.37-11.87C-3444.19,3820.34-3444.73,3824.31-3445.39,3829.21Z" transform="translate(3621.39 -3675.11)"/><path class="cls-18" d="M-3425.94,3803.1h2.27c-3.79-4-10,.47-12.95,3.64,4.32-.32,6.32-3.2,10.67-3.63h0Z" transform="translate(3621.39 -3675.11)"/><path class="cls-19" d="M-3578.23,3738.08l-20.2-53.5c0.18,17.54.17,35.28,1.93,52.75,0.51,5.08-.26,9.27,4,9.31C-3588.88,3746.68-3581.51,3740-3578.23,3738.08Z" transform="translate(3621.39 -3675.11)"/><path class="cls-20" d="M-3598.48,3678.89c-1.48,14.22,10.41,33.15,15.29,46.08,3.21,8.51,5.42,14.22,11,21.18,30.88,38.3,75.06,66.8,122.89,78.34,2.15-9.19-6.29-9.05-12.77-11.58a199.25,199.25,0,0,1-35.75-18.46C-3541.26,3766.31-3574.1,3724-3598.48,3678.89Z" transform="translate(3621.39 -3675.11)"/><path class="cls-21" d="M-3578.3,3737.9c-5.32,3.2-10.64,6.53-16,9.56,14.41,18.11,32.55,34,51.24,47.52,14.37,10.37,29.86,19.42,46.45,25.75,7.89,3,44.26,16.61,47.31,3.59C-3499.42,3812.23-3548.69,3780.7-3578.3,3737.9Z" transform="translate(3621.39 -3675.11)"/><g class="cls-22"><path class="cls-23" d="M-3553.93,3765.85c-9.15-1.4-18.31-2.79-27.48-4.07,6.92,7.1,16.59,19.87,26.21,21.23,6,0.84,13.32-.9,19.39-1.32q-9.44-7.47-18.13-15.85C-3562.63,3764.52-3548.71,3770.89-3553.93,3765.85Z" transform="translate(3621.39 -3675.11)"/><path class="cls-23" d="M-3508.56,3800.33l-17.43,5.94c6.21,3.72,11.9,8,18.9,7.15,4.78-.56,10-3.11,14.58-4.55Q-3500.71,3804.93-3508.56,3800.33Z" transform="translate(3621.39 -3675.11)"/><path class="cls-23" d="M-3469.44,3818.26l-25.22,3c13,5.58,19.66,3.63,32.81.17C-3464.37,3820.19-3467,3819.66-3469.44,3818.26Z" transform="translate(3621.39 -3675.11)"/></g><g class="cls-24"><path class="cls-23" d="M-3588.62,3710.56l-9.32-1.08c0.14,4.82-.87,12.43,2.24,15,2.34,2,10.33,2.09,13.38,2.75Z" transform="translate(3621.39 -3675.11)"/></g><g class="cls-25"><path class="cls-23" d="M-3469.16,3810c-48.44-16.15-89.3-65.75-115.29-107,11.79,26.73,27.25,48.35,49,67.78,18.28,16.34,41.25,35.33,66.29,39.25h0Z" transform="translate(3621.39 -3675.11)"/></g><path class="cls-26" d="M-3473.41,3716.53c12.13-3.66,5.32-16-2.31-1.48-5.6-15.55-24-25.56-40-23.48-7.71,1-14,4.8-19.62,10-2.72,2.53-6.72,3.77-1.83,6.85,1.68,1.06,8.17.55,10.24,0.8,8.5,1,17,2.26,25.37,4,9.32,1.9,17.65,5.49,26.59,8.25s11.63-3.93,1.56-4.9C-3468.69,3715.11-3466.12,3717.24-3473.41,3716.53Z" transform="translate(3621.39 -3675.11)"/><path class="cls-23" d="M-3538.14,3703.71l0.63,0.31A1.4,1.4,0,0,0-3538.14,3703.71Z" transform="translate(3621.39 -3675.11)"/><path class="cls-27" d="M-3473.41,3716.53c12.13-3.66,5.32-16-2.31-1.48-9-24.92-45.15-31.92-61.79-11,8.9-7.6,38.21-18.46,44.59-1.77,4.88,12.77-39.38,5.39-47.18,3.42-0.45,3.86,33.63,6.56,36.79,7.18,9.48,1.86,18.12,4.87,27.21,7.94s13.47-3.21,2.69-4.25C-3468.69,3715.11-3466.12,3717.24-3473.41,3716.53Z" transform="translate(3621.39 -3675.11)"/><path class="cls-27" d="M-3474,3717.6q3.54-1.07.62-1.07c2-.61,11.44-8.5,5.85-8.86,0.41,6.43-7.07,5.36-8.16,7.38-3.46-9.59-12-17.16-21.32-20.82,4.85,2.69,22.4,15,15,20.25-3.46,2.43-15.9-1.72-19.66-2.33-4.13-.68-20.76-5.56-24.08-2.77a246.68,246.68,0,0,1,35.33,6.39c3.26,0.89,23.74,10.77,24.11,4.48,0.73,0-9.21-.6-7.68-2.64C-3473.64,3717.06-3475.19,3719.13-3474,3717.6Z" transform="translate(3621.39 -3675.11)"/><path d="M-3476.1,3720.79c-17.1-8.15-42.08-13.17-61.07-12.36-0.08,0-.59,19.48.06,22.13a23.72,23.72,0,0,0,6.24,11.7c4.16,4,14.15,8.91,17.78,10.2a7.48,7.48,0,0,0,3.31-2.32,10.69,10.69,0,0,0,5.34,3.9l2.09-.44q1.52-4.23,4.73-.49c4.85-1.62,9.23-3.22,13.59-7.23C-3477.65,3740-3476.25,3729-3476.1,3720.79Zm-18.53,19.36c-11.18-3.22-5-27.11,5.61-18.74,5.54,4.36,3.17,20.55-5.61,18.74C-3498.35,3739.08-3494.19,3740.24-3494.64,3740.15Zm-26.18-21.58c9.34,0.61,10,15.22,2.87,19.27C-3527.11,3743-3533.44,3719.9-3520.82,3718.57Z" transform="translate(3621.39 -3675.11)"/><path d="M-3493.42,3756.93c-7.42,1.18-15.2.72-22.67,0.41,0.33,7.38,11.11,8.17,16.42,7.27,2.58-.44,6.24-0.4,7.4-3.37,0.48-1.22,1.56-4.54-1.15-4.31C-3500.58,3758.06-3490.34,3756.67-3493.42,3756.93Z" transform="translate(3621.39 -3675.11)"/><path d="M-3457.65,3761.76c-2.07-1.71-3.63.31-5.36-.3-2.92-1-6.45-4.61-8.92-6.37-4.41-3.15-7.18-6-11.28-5.64,4.56,0,16.09,12.56,20,15.57-3.45,2.9.61,6.1,2.08,3.51-1,0,4-6.32,3.43-6.78h0Z" transform="translate(3621.39 -3675.11)"/><path d="M-3527.17,3748.84c-3.65,4.16-7.18,9.58-11.45,13.05-1.29,1.05-2.09,2.7-3.34,3.81,1.89-1.69-9.56,2.74-4,3.88,2.34,2.35,8.19,2.81,8.82,1.91,1.51-2.15-2-3.32-1.57-4.58,0.48-1.56,3.29-3.55,4.41-4.75l10.09-10.88A17.8,17.8,0,0,0-3527.17,3748.84Z" transform="translate(3621.39 -3675.11)"/><path d="M-3477.81,3703c5.23-4.65,10.25-9.87,15.83-14.09,1.58-1.19,3.37,3.16,4.08-2.3-0.55,4.27-2.73-4.8-2.59-4.42,0-7.42-5.3,2.07-4.64,1.3s-1.75,4.86-2.19,5.53C-3469.69,3692.59-3480.54,3699.37-3477.81,3703Z" transform="translate(3621.39 -3675.11)"/><path d="M-3549.21,3675.37c-3.13-.65-3,2.28-2.06,4.17-2.15-.39-6.47-0.09-6.49,2.75,0,2.29,4.55,1.41,6,2.42,5.07,3.41,9.43,9.31,13.8,13.62,3.61-3.5-4.86-8.53-7.11-11.72-1-1.47-2.71-2.87-3.32-4.25-0.82-1.83,4-6-.86-7h0Z" transform="translate(3621.39 -3675.11)"/></g></g></svg>