<svg xmlns="http://www.w3.org/2000/svg" viewBox="0 0 288.58 163.35"><defs><style>.cls-1{isolation:isolate;}.cls-2,.cls-3{fill:#cacbcc;}.cls-3{opacity:0.86;}.cls-11,.cls-13,.cls-15,.cls-16,.cls-17,.cls-18,.cls-19,.cls-20,.cls-23,.cls-24,.cls-25,.cls-28,.cls-29,.cls-3,.cls-30,.cls-31,.cls-32,.cls-33,.cls-38,.cls-40{mix-blend-mode:multiply;}.cls-4{fill:#4f4f50;}.cls-5{fill:#755340;}.cls-6{fill:#a7765a;}.cls-26,.cls-7{opacity:0.17;}.cls-26,.cls-27,.cls-35,.cls-7{mix-blend-mode:overlay;}.cls-26,.cls-27,.cls-8{fill:#fff;}.cls-9{fill:#ee8256;}.cls-10,.cls-24,.cls-25{fill:#f5ab80;}.cls-11,.cls-14{fill:#c78c6a;}.cls-11,.cls-28,.cls-39{opacity:0.62;}.cls-12{fill:none;}.cls-13{opacity:0.19;}.cls-15,.cls-25{opacity:0.45;}.cls-16{opacity:0.32;}.cls-17{opacity:0.36;}.cls-18{opacity:0.48;}.cls-19,.cls-38{opacity:0.39;}.cls-20{opacity:0.47;}.cls-21,.cls-33{fill:#b57f61;}.cls-22{fill:#b06943;}.cls-23,.cls-35{opacity:0.31;}.cls-24{opacity:0.51;}.cls-27{opacity:0.16;}.cls-29{opacity:0.53;}.cls-30{opacity:0.55;}.cls-31{opacity:0.29;}.cls-32{opacity:0.22;}.cls-33{opacity:0.46;}.cls-34{fill:#4e4e50;}.cls-36{fill:#b7b9ba;}.cls-37,.cls-38{fill:#3e3e40;}.cls-39{fill:#def1fb;}.cls-40{opacity:0.58;}</style></defs><title>artefact_10</title><g class="cls-1"><g id="Layer_1" data-name="Layer 1"><path class="cls-2" d="M-3354.2,4226.13c0.16,0-4.47.28-4.15-1,0.54-2.2,14.85-.22,17.37-6.37,1.65-4-1.86-9.27,1.41-13.15,1-1.22,11.29-5.66,11-2.46-0.11,1.66-5.85.52-7.31,1.8-3.09,2.68-2,5.52-2.55,9C-3339.92,4223.48-3343.34,4226.13-3354.2,4226.13Z" transform="translate(3617.1 -4155.49)"/><path class="cls-3" d="M-3329.76,4202.29c-4.37-.13-9,3.4-10,9.42-0.93,5.55,1.39,7.88-3.81,11.8-3.59,2.7-9.94,2.57-14.19,2.35,6.92,3,17.62-1.64,19.46-8.32,1.07-3.89-1.56-8.55,1.77-11.87,0.85-.84,10.08-3.29,6.82-3.38h0Z" transform="translate(3617.1 -4155.49)"/><path class="cls-4" d="M-3350.25,4237.38c0,12.59-8.39,27.11-22.38,27.11S-3395,4250-3395,4237.38s8.37-27.11,22.38-27.11S-3350.25,4224.8-3350.25,4237.38Z" transform="translate(3617.1 -4155.49)"/><path class="cls-5" d="M-3468.56,4306.44c-38.33,3.35-46.62-68.34-7.74-71.77,38.27-3.37,46.69,68.36,7.74,71.77h0Zm33.75-38.87c-0.94-20.95-16.85-42.19-39.48-40.81s-36.57,24.39-35.62,45.43c0.92,20.42,15.85,40.89,37.68,40.82,23.51-.08,38.4-23.79,37.43-45.44C-3435.89,4243.76-3433.75,4291.38-3434.82,4267.57Z" transform="translate(3617.1 -4155.49)"/><path class="cls-6" d="M-3469.5,4311.18c-43.08-5.16-38.21-78.75,3.63-82.7,1.23-5-26.48,1.09-30.14,3.12-13.88,7.68-21.29,23.67-21.23,39.12,0.06,14.73,6.8,29.74,19.59,37.66,8.56,5.3,26.11,8.71,35.09,3.08A57,57,0,0,1-3469.5,4311.18Z" transform="translate(3617.1 -4155.49)"/><g class="cls-7"><path class="cls-8" d="M-3498.86,4235.25c11.52,1.59,21.79-5.71,33-6.77,0.78-3.13-15.28-1.34-17.95-.86-6.45,1.17-12.26,3.33-17.48,7.57l2.44,0.06h0Z" transform="translate(3617.1 -4155.49)"/></g><path class="cls-9" d="M-3463.56,4280.76q1.42,13,2.86,26.09c10.9-1.53,2-19.44.31-27Z" transform="translate(3617.1 -4155.49)"/><path class="cls-10" d="M-3462.67,4280.62q1.41,13,2.86,26.09c10.9-1.53,2-19.45.32-27Z" transform="translate(3617.1 -4155.49)"/><path class="cls-9" d="M-3491.21,4295.54l24.22-17.06c-2.93-4.37-14.3,3.95-18,5.72C-3493.27,4288.16-3494.9,4286.94-3491.21,4295.54Z" transform="translate(3617.1 -4155.49)"/><path class="cls-10" d="M-3490.49,4296.25l23.87-17.24c-3-4.35-14.2,4-17.91,5.86C-3492.76,4288.92-3494.35,4287.71-3490.49,4296.25Z" transform="translate(3617.1 -4155.49)"/><path class="cls-10" d="M-3468.49,4275.81l-30.88,2.83c-1.67-9.2,6.22-6.22,12.91-6.19C-3482.28,4272.47-3467.3,4269.7-3468.49,4275.81Z" transform="translate(3617.1 -4155.49)"/><path class="cls-9" d="M-3457.22,4264.15c3.23-4.15,7.24-11.67,11.66-13.88l-8.88,16.13Z" transform="translate(3617.1 -4155.49)"/><path class="cls-10" d="M-3456.42,4264.2l10.86-13.93C-3440.66,4255.71-3452.87,4268.77-3456.42,4264.2Z" transform="translate(3617.1 -4155.49)"/><path class="cls-9" d="M-3452.47,4268.82c2.72-.55,9.43-3.45,11.7-1.27,3.32,3.18-11.21,4.73-12.36,4.77C-3453.38,4272.33-3452.56,4269.05-3452.47,4268.82Z" transform="translate(3617.1 -4155.49)"/><path class="cls-10" d="M-3452.12,4269.23c2.72-.55,9.43-3.45,11.7-1.28,3.34,3.18-11.22,4.74-12.36,4.78C-3453,4272.74-3452.21,4269.46-3452.12,4269.23Z" transform="translate(3617.1 -4155.49)"/><path class="cls-9" d="M-3453.9,4277.5c3.33,1.74,10.8,3.72,10.85,7.6,0.08,6.25-11.67-4.12-13.68-5.6Z" transform="translate(3617.1 -4155.49)"/><path class="cls-10" d="M-3453.76,4276.69c2.65,1.38,12.95,4.24,10.73,8.64-2,4.07-10.68-4.46-13.56-6.65Z" transform="translate(3617.1 -4155.49)"/><path class="cls-11" d="M-3514,4254.34c2.73,0,.28,11.66-3,12.27,3.23-.59,7.49-12.2,3-12.27h0Z" transform="translate(3617.1 -4155.49)"/><path class="cls-11" d="M-3509.49,4252.21a3.64,3.64,0,0,0-4.42.81c7.06-7.06.32,16.83-1.28,19.5,1.65-2.8,10.32-16.49,5.71-20.3C-3510.85,4251.07-3507.84,4253.57-3509.49,4252.21Z" transform="translate(3617.1 -4155.49)"/><path class="cls-11" d="M-3506.44,4250.18q-2.09-3.25-5.52-1.09c10.63-7.36.23,29,.06,30.42,1.14-8.67,9.93-19.77,5.46-29.32C-3507.25,4248.42-3505.28,4252.66-3506.44,4250.18Z" transform="translate(3617.1 -4155.49)"/><path class="cls-11" d="M-3505.32,4270.72c-2.94,7.06-3.36,15.18-2.6,23-0.56-5.77,0-17.14,2.6-23h0Z" transform="translate(3617.1 -4155.49)"/><path class="cls-11" d="M-3504.41,4290.65a13.08,13.08,0,0,1,.62-9.31c-2.78,4.49-1.55,13.2-.62,18.58-0.31-1.69.31-7.12,0-9.27C-3504.85,4287.57-3504,4293.65-3504.41,4290.65Z" transform="translate(3617.1 -4155.49)"/><path class="cls-11" d="M-3492.21,4310a37.1,37.1,0,0,1-3.14-8.6,50.78,50.78,0,0,0,3.14,8.6h0Z" transform="translate(3617.1 -4155.49)"/><path class="cls-11" d="M-3501.28,4289.67a33.35,33.35,0,0,0,3.7,16.2c-1.91-3.37-3.73-12-3.7-16.2C-3501.28,4289.61-3501.32,4295.28-3501.28,4289.67Z" transform="translate(3617.1 -4155.49)"/><path class="cls-9" d="M-3495.54,4253.18l26.88,17.41c4.9-4.77-9.52-14.54-12.94-18C-3487.82,4246.41-3493.65,4237.54-3495.54,4253.18Z" transform="translate(3617.1 -4155.49)"/><path class="cls-10" d="M-3495.13,4252.58l26.87,17.42c4.91-4.76-9.52-14.54-12.94-18C-3487.41,4245.82-3493.24,4237-3495.13,4252.58Z" transform="translate(3617.1 -4155.49)"/><path class="cls-9" d="M-3470.83,4233.7l6,32c6.16-1.42,2.64-12.53,2.34-17.05C-3462.93,4241.62-3460.05,4229.7-3470.83,4233.7Z" transform="translate(3617.1 -4155.49)"/><path class="cls-10" d="M-3470.1,4233.45l6,32c6.16-1.42,2.64-12.53,2.34-17.06C-3462.19,4241.35-3459.31,4229.47-3470.1,4233.45Z" transform="translate(3617.1 -4155.49)"/><path class="cls-12" d="M-3476.3,4234.67c-38.93,3.41-30.54,75.14,7.74,71.77,38.87-3.43,30.61-75.11-7.74-71.77h0Z" transform="translate(3617.1 -4155.49)"/><g class="cls-13"><path class="cls-14" d="M-3511,4280.94c2-5.52,13.19-31,3.92-33.63-12.32-3.54-10.09,30.51-8.38,36.56a6.43,6.43,0,0,0,4.47-2.93C-3509.88,4278-3511.54,4282.44-3511,4280.94Z" transform="translate(3617.1 -4155.49)"/></g><g class="cls-15"><path class="cls-10" d="M-3498.91,4272.55c-0.53,1.86-.23,4.31-0.33,6.25a16,16,0,0,0,5.27-.48C-3495.73,4274.62-3494.08,4272-3498.91,4272.55Z" transform="translate(3617.1 -4155.49)"/></g><g class="cls-16"><path class="cls-10" d="M-3490,4253.26c-2.2-3.06-1-6.44,2.61-7.41-2.81-4.63-4.69-2.35-6.35,1.79-2.56,6.4-.36,4.74,3.66,8.23,6.34,5.5,14.73,9.55,21.8,14.13l1.12-1.82c-7.26-3.81-17.91-8-22.85-14.92h0Z" transform="translate(3617.1 -4155.49)"/></g><g class="cls-17"><path class="cls-10" d="M-3490.61,4287.87c-4.81,1.52-1.51,4.77.13,8.38a18.66,18.66,0,0,0,5-3.63A20.76,20.76,0,0,1-3490.61,4287.87Z" transform="translate(3617.1 -4155.49)"/></g><g class="cls-18"><path class="cls-10" d="M-3459.81,4306.71c3.1-.41,6-1.28,5.23-4.39C-3457.63,4304-3460,4303.24-3459.81,4306.71Z" transform="translate(3617.1 -4155.49)"/></g><g class="cls-19"><path class="cls-10" d="M-3479.73,4304c1.58,1.24,3.9,2,5.7,2.87a11.84,11.84,0,0,0,1.42-3.65C-3476.44,4302.31-3477.91,4299.68-3479.73,4304Z" transform="translate(3617.1 -4155.49)"/></g><g class="cls-20"><path class="cls-21" d="M-3469.5,4311.18c-15.36-2.09-25.83-15.69-29.06-30.11-0.45,1.27-4.17,8.15-5.22,8.87-0.3.21-1.56-.9-1.51-1a32.23,32.23,0,0,0-2.16,3c-2.06,1.36,1.7,5.8-3.81,2,8,14.11,32.55,27.61,48.71,17.5A58.32,58.32,0,0,1-3469.5,4311.18Z" transform="translate(3617.1 -4155.49)"/></g><path class="cls-9" d="M-3466.36,4279.08l-14.85,24.16,1.48,0.75C-3476.35,4298.09-3465.4,4284.68-3466.36,4279.08Z" transform="translate(3617.1 -4155.49)"/><path class="cls-10" d="M-3463.69,4280.45c-4.32-2-13.37,18.9-16,23.53a19.16,19.16,0,0,0,5.7,2.87Z" transform="translate(3617.1 -4155.49)"/><path class="cls-22" d="M-3456.22,4266.84c-3.53-10.26-22.17,6-10.39,13.27C-3459.2,4284.65-3452.3,4273.23-3456.22,4266.84Z" transform="translate(3617.1 -4155.49)"/><g class="cls-23"><path class="cls-14" d="M-3469.5,4311.18c-4.55-.56-8.74-4.38-12.78-4.86-5.48-.65-10.48,2.57-16.23,1.53,8.53,5.67,26.68,9.41,36,3.61A58.32,58.32,0,0,1-3469.5,4311.18Z" transform="translate(3617.1 -4155.49)"/></g><path class="cls-10" d="M-3430,4267.54c-0.94-20.95-16.85-42.19-39.48-40.8s-36.57,24.39-35.62,45.43c0.92,20.42,15.84,40.89,37.67,40.82,23.52-.08,38.4-23.79,37.43-45.44h0Zm-33.75,38.87c-38.33,3.34-46.62-68.34-7.73-71.77,38.27-3.38,46.68,68.36,7.73,71.77h0Z" transform="translate(3617.1 -4155.49)"/><path class="cls-24" d="M-3467.65,4234l-4.44.68c41.1-4.85,46.61,74.73,4.48,71.71,43.95,7.09,42-76.35,0-72.38h0Z" transform="translate(3617.1 -4155.49)"/><path class="cls-25" d="M-3436,4283.69l-0.37-2.31c-2.37-1.91-6.48,10.48-7.58,12.21a27.61,27.61,0,0,1-14.73,11.75,24.67,24.67,0,0,1-17.91-1.33c-1.7-.78-14.85-11.67-14.69-11.76-1.14.69,0.22,5.15-1.07,5.24-2.27.15-6.58-4.72-7.74-5.87,17.75,35,63.6,22.06,69.46-13.85,0.42-1-3.9,9.25-5.15,8.23l-0.22-2.3C-3435.57,4279.67-3436.51,4289.16-3436,4283.69Z" transform="translate(3617.1 -4155.49)"/><path class="cls-25" d="M-3491.8,4302.9c12.18,11.78,30.82,13.41,44.53,3.26-14.27,8.89-31.58,6.85-44.53-3.26C-3484.76,4309.71-3486,4307.46-3491.8,4302.9Z" transform="translate(3617.1 -4155.49)"/><path class="cls-26" d="M-3498.64,4247.62c9.76-25.19,49.44-24.9,61.52-2.49,3.69-6.14-22.71-17.62-25.46-18C-3477.46,4224.76-3493.14,4233.57-3498.64,4247.62Z" transform="translate(3617.1 -4155.49)"/><path class="cls-27" d="M-3463.31,4258.84c-0.79-2.76-4.49-26.1.19-20.8,3,3.38-1.25,21.78,1,23.16A5.75,5.75,0,0,1-3463.31,4258.84Z" transform="translate(3617.1 -4155.49)"/><path class="cls-27" d="M-3460,4283.13s6.38,17.62,3.7,18.83S-3463.51,4276.07-3460,4283.13Z" transform="translate(3617.1 -4155.49)"/><g class="cls-28"><path class="cls-10" d="M-3452,4277.64c-2-.37-2.85-1.24-4.64,1l2.21,1.67A3.25,3.25,0,0,1-3452,4277.64Z" transform="translate(3617.1 -4155.49)"/></g><g class="cls-29"><path class="cls-10" d="M-3450.54,4268.91c-0.15.09-3.82,3.88-2.24,3.82Q-3448.48,4273.42-3450.54,4268.91Z" transform="translate(3617.1 -4155.49)"/></g><g class="cls-30"><path class="cls-10" d="M-3455.82,4263.43c0.09,0.1.5,2.3,2.18,3l0.92-1.08Z" transform="translate(3617.1 -4155.49)"/></g><path class="cls-10" d="M-3451.94,4272.43c-1.11,10.23-15.86,11.55-14.94.06,0.82-10.31,16.18-11.48,14.94-.06C-3452.45,4277.17-3451.42,4267.68-3451.94,4272.43Z" transform="translate(3617.1 -4155.49)"/><path class="cls-11" d="M-3458.26,4270.79c-3,3.26-2.28,6-2.5,10.06,0.2-2.7,5.3-17.54,8.06-6.49-0.5-1.87-3.28-6.07-5.56-3.57h0Z" transform="translate(3617.1 -4155.49)"/><path class="cls-11" d="M-3457,4273.27c-0.59-.24-1.49,7.66-1.47,7.38,0-1.36,1.29-5.29,1.47-6.9a7.47,7.47,0,0,1,2.8,3.42c-0.74-1.26.06-2.68-2.8-3.9h0Z" transform="translate(3617.1 -4155.49)"/><path class="cls-11" d="M-3461.33,4267.39c-2.31,1.81-.89,10.93-0.9,13.4,0,0.24,0-12.16,1.36-13,1.78-1.11,8.39,2.35,9,3.28-1.24-1.68-7.25-5.43-9.46-3.68h0Z" transform="translate(3617.1 -4155.49)"/><g class="cls-31"><path class="cls-10" d="M-3453.21,4269.76c-2.37-1.44-5.69-4.41-8.22-3.08-1.23.65-1.26,11.7-4.79,10.4,5.06,11.43,18.73-3.79,13-7.32h0Z" transform="translate(3617.1 -4155.49)"/></g><path class="cls-27" d="M-3487.71,4287.52c4-2.27,13.56-9.79,18.32-8.64C-3469.12,4278.95-3489.45,4295.45-3487.71,4287.52Z" transform="translate(3617.1 -4155.49)"/><path class="cls-27" d="M-3452.67,4263.64c0.68-.67,11.1-9.92,7.69-10.92C-3448,4251.83-3454.14,4264.35-3452.67,4263.64Z" transform="translate(3617.1 -4155.49)"/><path class="cls-27" d="M-3448.28,4269.46c14.7-6.31.58,7-1.38,1Z" transform="translate(3617.1 -4155.49)"/><path class="cls-27" d="M-3451.6,4278.86c0.81,0.28,8.22,2.65,8,4C-3444.54,4288.14-3455.12,4277.69-3451.6,4278.86Z" transform="translate(3617.1 -4155.49)"/><path class="cls-27" d="M-3493.07,4273.67c3.57-.2,20,1.67,20.82,1.2-2.6,1.45-9.15,1.32-12.1,1.57C-3485.31,4276.52-3497.38,4275.59-3493.07,4273.67Z" transform="translate(3617.1 -4155.49)"/><path class="cls-27" d="M-3487.13,4252.93c-5.2-11.51,15.09,9.92,16.79,11.33C-3475.38,4260.1-3481.86,4257.13-3487.13,4252.93Z" transform="translate(3617.1 -4155.49)"/><path class="cls-5" d="M-3468.56,4306.44c-38.33,3.35-46.62-68.34-7.74-71.77,38.27-3.37,46.69,68.36,7.74,71.77h0Zm33.75-38.87c-0.94-20.95-16.85-42.19-39.48-40.81s-36.57,24.39-35.62,45.43c0.92,20.42,15.85,40.89,37.68,40.82,23.51-.08,38.4-23.79,37.43-45.44C-3435.89,4243.76-3433.75,4291.38-3434.82,4267.57Z" transform="translate(3617.1 -4155.49)"/><path class="cls-6" d="M-3469.5,4311.18c-43.08-5.16-38.21-78.75,3.63-82.7,1.23-5-26.48,1.09-30.14,3.12-13.88,7.68-21.29,23.67-21.23,39.12,0.06,14.73,6.8,29.74,19.59,37.66,8.56,5.3,26.11,8.71,35.09,3.08A57,57,0,0,1-3469.5,4311.18Z" transform="translate(3617.1 -4155.49)"/><g class="cls-7"><path class="cls-8" d="M-3498.86,4235.25c11.52,1.59,21.79-5.71,33-6.77,0.78-3.13-15.28-1.34-17.95-.86-6.45,1.17-12.26,3.33-17.48,7.57l2.44,0.06h0Z" transform="translate(3617.1 -4155.49)"/></g><path class="cls-9" d="M-3463.56,4280.76q1.42,13,2.86,26.09c10.9-1.53,2-19.44.31-27Z" transform="translate(3617.1 -4155.49)"/><path class="cls-10" d="M-3462.67,4280.62q1.41,13,2.86,26.09c10.9-1.53,2-19.45.32-27Z" transform="translate(3617.1 -4155.49)"/><path class="cls-9" d="M-3491.21,4295.54l24.22-17.06c-2.93-4.37-14.3,3.95-18,5.72C-3493.27,4288.16-3494.9,4286.94-3491.21,4295.54Z" transform="translate(3617.1 -4155.49)"/><path class="cls-10" d="M-3490.49,4296.25l23.87-17.24c-3-4.35-14.2,4-17.91,5.86C-3492.76,4288.92-3494.35,4287.71-3490.49,4296.25Z" transform="translate(3617.1 -4155.49)"/><path class="cls-10" d="M-3468.49,4275.81l-30.88,2.83c-1.67-9.2,6.22-6.22,12.91-6.19C-3482.28,4272.47-3467.3,4269.7-3468.49,4275.81Z" transform="translate(3617.1 -4155.49)"/><path class="cls-9" d="M-3457.22,4264.15c3.23-4.15,7.24-11.67,11.66-13.88l-8.88,16.13Z" transform="translate(3617.1 -4155.49)"/><path class="cls-10" d="M-3456.42,4264.2l10.86-13.93C-3440.66,4255.71-3452.87,4268.77-3456.42,4264.2Z" transform="translate(3617.1 -4155.49)"/><path class="cls-9" d="M-3452.47,4268.82c2.72-.55,9.43-3.45,11.7-1.27,3.32,3.18-11.21,4.73-12.36,4.77C-3453.38,4272.33-3452.56,4269.05-3452.47,4268.82Z" transform="translate(3617.1 -4155.49)"/><path class="cls-10" d="M-3452.12,4269.23c2.72-.55,9.43-3.45,11.7-1.28,3.34,3.18-11.22,4.74-12.36,4.78C-3453,4272.74-3452.21,4269.46-3452.12,4269.23Z" transform="translate(3617.1 -4155.49)"/><path class="cls-9" d="M-3453.9,4277.5c3.33,1.74,10.8,3.72,10.85,7.6,0.08,6.25-11.67-4.12-13.68-5.6Z" transform="translate(3617.1 -4155.49)"/><path class="cls-10" d="M-3453.76,4276.69c2.65,1.38,12.95,4.24,10.73,8.64-2,4.07-10.68-4.46-13.56-6.65Z" transform="translate(3617.1 -4155.49)"/><path class="cls-11" d="M-3514,4254.34c2.73,0,.28,11.66-3,12.27,3.23-.59,7.49-12.2,3-12.27h0Z" transform="translate(3617.1 -4155.49)"/><path class="cls-11" d="M-3509.49,4252.21a3.64,3.64,0,0,0-4.42.81c7.06-7.06.32,16.83-1.28,19.5,1.65-2.8,10.32-16.49,5.71-20.3C-3510.85,4251.07-3507.84,4253.57-3509.49,4252.21Z" transform="translate(3617.1 -4155.49)"/><path class="cls-11" d="M-3506.44,4250.18q-2.09-3.25-5.52-1.09c10.63-7.36.23,29,.06,30.42,1.14-8.67,9.93-19.77,5.46-29.32C-3507.25,4248.42-3505.28,4252.66-3506.44,4250.18Z" transform="translate(3617.1 -4155.49)"/><path class="cls-11" d="M-3505.32,4270.72c-2.94,7.06-3.36,15.18-2.6,23-0.56-5.77,0-17.14,2.6-23h0Z" transform="translate(3617.1 -4155.49)"/><path class="cls-11" d="M-3504.41,4290.65a13.08,13.08,0,0,1,.62-9.31c-2.78,4.49-1.55,13.2-.62,18.58-0.31-1.69.31-7.12,0-9.27C-3504.85,4287.57-3504,4293.65-3504.41,4290.65Z" transform="translate(3617.1 -4155.49)"/><path class="cls-11" d="M-3492.21,4310a37.1,37.1,0,0,1-3.14-8.6,50.78,50.78,0,0,0,3.14,8.6h0Z" transform="translate(3617.1 -4155.49)"/><path class="cls-11" d="M-3501.28,4289.67a33.35,33.35,0,0,0,3.7,16.2c-1.91-3.37-3.73-12-3.7-16.2C-3501.28,4289.61-3501.32,4295.28-3501.28,4289.67Z" transform="translate(3617.1 -4155.49)"/><path class="cls-9" d="M-3495.54,4253.18l26.88,17.41c4.9-4.77-9.52-14.54-12.94-18C-3487.82,4246.41-3493.65,4237.54-3495.54,4253.18Z" transform="translate(3617.1 -4155.49)"/><path class="cls-10" d="M-3495.13,4252.58l26.87,17.42c4.91-4.76-9.52-14.54-12.94-18C-3487.41,4245.82-3493.24,4237-3495.13,4252.58Z" transform="translate(3617.1 -4155.49)"/><path class="cls-9" d="M-3470.83,4233.7l6,32c6.16-1.42,2.64-12.53,2.34-17.05C-3462.93,4241.62-3460.05,4229.7-3470.83,4233.7Z" transform="translate(3617.1 -4155.49)"/><path class="cls-10" d="M-3470.1,4233.45l6,32c6.16-1.42,2.64-12.53,2.34-17.06C-3462.19,4241.35-3459.31,4229.47-3470.1,4233.45Z" transform="translate(3617.1 -4155.49)"/><path class="cls-12" d="M-3476.3,4234.67c-38.93,3.41-30.54,75.14,7.74,71.77,38.87-3.43,30.61-75.11-7.74-71.77h0Z" transform="translate(3617.1 -4155.49)"/><g class="cls-13"><path class="cls-14" d="M-3511,4280.94c2-5.52,13.19-31,3.92-33.63-12.32-3.54-10.09,30.51-8.38,36.56a6.43,6.43,0,0,0,4.47-2.93C-3509.88,4278-3511.54,4282.44-3511,4280.94Z" transform="translate(3617.1 -4155.49)"/></g><g class="cls-15"><path class="cls-10" d="M-3498.91,4272.55c-0.53,1.86-.23,4.31-0.33,6.25a16,16,0,0,0,5.27-.48C-3495.73,4274.62-3494.08,4272-3498.91,4272.55Z" transform="translate(3617.1 -4155.49)"/></g><g class="cls-16"><path class="cls-10" d="M-3490,4253.26c-2.2-3.06-1-6.44,2.61-7.41-2.81-4.63-4.69-2.35-6.35,1.79-2.56,6.4-.36,4.74,3.66,8.23,6.34,5.5,14.73,9.55,21.8,14.13l1.12-1.82c-7.26-3.81-17.91-8-22.85-14.92h0Z" transform="translate(3617.1 -4155.49)"/></g><g class="cls-17"><path class="cls-10" d="M-3490.61,4287.87c-4.81,1.52-1.51,4.77.13,8.38a18.66,18.66,0,0,0,5-3.63A20.76,20.76,0,0,1-3490.61,4287.87Z" transform="translate(3617.1 -4155.49)"/></g><g class="cls-18"><path class="cls-10" d="M-3459.81,4306.71c3.1-.41,6-1.28,5.23-4.39C-3457.63,4304-3460,4303.24-3459.81,4306.71Z" transform="translate(3617.1 -4155.49)"/></g><g class="cls-19"><path class="cls-10" d="M-3479.73,4304c1.58,1.24,3.9,2,5.7,2.87a11.84,11.84,0,0,0,1.42-3.65C-3476.44,4302.31-3477.91,4299.68-3479.73,4304Z" transform="translate(3617.1 -4155.49)"/></g><g class="cls-20"><path class="cls-21" d="M-3469.5,4311.18c-15.36-2.09-25.83-15.69-29.06-30.11-0.45,1.27-4.17,8.15-5.22,8.87-0.3.21-1.56-.9-1.51-1a32.23,32.23,0,0,0-2.16,3c-2.06,1.36,1.7,5.8-3.81,2,8,14.11,32.55,27.61,48.71,17.5A58.32,58.32,0,0,1-3469.5,4311.18Z" transform="translate(3617.1 -4155.49)"/></g><path class="cls-9" d="M-3466.36,4279.08l-14.85,24.16,1.48,0.75C-3476.35,4298.09-3465.4,4284.68-3466.36,4279.08Z" transform="translate(3617.1 -4155.49)"/><path class="cls-10" d="M-3463.69,4280.45c-4.32-2-13.37,18.9-16,23.53a19.16,19.16,0,0,0,5.7,2.87Z" transform="translate(3617.1 -4155.49)"/><path class="cls-22" d="M-3456.22,4266.84c-3.53-10.26-22.17,6-10.39,13.27C-3459.2,4284.65-3452.3,4273.23-3456.22,4266.84Z" transform="translate(3617.1 -4155.49)"/><g class="cls-23"><path class="cls-14" d="M-3469.5,4311.18c-4.55-.56-8.74-4.38-12.78-4.86-5.48-.65-10.48,2.57-16.23,1.53,8.53,5.67,26.68,9.41,36,3.61A58.32,58.32,0,0,1-3469.5,4311.18Z" transform="translate(3617.1 -4155.49)"/></g><path class="cls-10" d="M-3430,4267.54c-0.94-20.95-16.85-42.19-39.48-40.8s-36.57,24.39-35.62,45.43c0.92,20.42,15.84,40.89,37.67,40.82,23.52-.08,38.4-23.79,37.43-45.44h0Zm-33.75,38.87c-38.33,3.34-46.62-68.34-7.73-71.77,38.27-3.38,46.68,68.36,7.73,71.77h0Z" transform="translate(3617.1 -4155.49)"/><path class="cls-24" d="M-3467.65,4234l-4.44.68c41.1-4.85,46.61,74.73,4.48,71.71,43.95,7.09,42-76.35,0-72.38h0Z" transform="translate(3617.1 -4155.49)"/><path class="cls-25" d="M-3436,4283.69l-0.37-2.31c-2.37-1.91-6.48,10.48-7.58,12.21a27.61,27.61,0,0,1-14.73,11.75,24.67,24.67,0,0,1-17.91-1.33c-1.7-.78-14.85-11.67-14.69-11.76-1.14.69,0.22,5.15-1.07,5.24-2.27.15-6.58-4.72-7.74-5.87,17.75,35,63.6,22.06,69.46-13.85,0.42-1-3.9,9.25-5.15,8.23l-0.22-2.3C-3435.57,4279.67-3436.51,4289.16-3436,4283.69Z" transform="translate(3617.1 -4155.49)"/><path class="cls-25" d="M-3491.8,4302.9c12.18,11.78,30.82,13.41,44.53,3.26-14.27,8.89-31.58,6.85-44.53-3.26C-3484.76,4309.71-3486,4307.46-3491.8,4302.9Z" transform="translate(3617.1 -4155.49)"/><path class="cls-26" d="M-3498.64,4247.62c9.76-25.19,49.44-24.9,61.52-2.49,3.69-6.14-22.71-17.62-25.46-18C-3477.46,4224.76-3493.14,4233.57-3498.64,4247.62Z" transform="translate(3617.1 -4155.49)"/><path class="cls-27" d="M-3463.31,4258.84c-0.79-2.76-4.49-26.1.19-20.8,3,3.38-1.25,21.78,1,23.16A5.75,5.75,0,0,1-3463.31,4258.84Z" transform="translate(3617.1 -4155.49)"/><path class="cls-27" d="M-3460,4283.13s6.38,17.62,3.7,18.83S-3463.51,4276.07-3460,4283.13Z" transform="translate(3617.1 -4155.49)"/><g class="cls-28"><path class="cls-10" d="M-3452,4277.64c-2-.37-2.85-1.24-4.64,1l2.21,1.67A3.25,3.25,0,0,1-3452,4277.64Z" transform="translate(3617.1 -4155.49)"/></g><g class="cls-29"><path class="cls-10" d="M-3450.54,4268.91c-0.15.09-3.82,3.88-2.24,3.82Q-3448.48,4273.42-3450.54,4268.91Z" transform="translate(3617.1 -4155.49)"/></g><g class="cls-30"><path class="cls-10" d="M-3455.82,4263.43c0.09,0.1.5,2.3,2.18,3l0.92-1.08Z" transform="translate(3617.1 -4155.49)"/></g><path class="cls-10" d="M-3451.94,4272.43c-1.11,10.23-15.86,11.55-14.94.06,0.82-10.31,16.18-11.48,14.94-.06C-3452.45,4277.17-3451.42,4267.68-3451.94,4272.43Z" transform="translate(3617.1 -4155.49)"/><path class="cls-11" d="M-3458.26,4270.79c-3,3.26-2.28,6-2.5,10.06,0.2-2.7,5.3-17.54,8.06-6.49-0.5-1.87-3.28-6.07-5.56-3.57h0Z" transform="translate(3617.1 -4155.49)"/><path class="cls-11" d="M-3457,4273.27c-0.59-.24-1.49,7.66-1.47,7.38,0-1.36,1.29-5.29,1.47-6.9a7.47,7.47,0,0,1,2.8,3.42c-0.74-1.26.06-2.68-2.8-3.9h0Z" transform="translate(3617.1 -4155.49)"/><path class="cls-11" d="M-3461.33,4267.39c-2.31,1.81-.89,10.93-0.9,13.4,0,0.24,0-12.16,1.36-13,1.78-1.11,8.39,2.35,9,3.28-1.24-1.68-7.25-5.43-9.46-3.68h0Z" transform="translate(3617.1 -4155.49)"/><g class="cls-31"><path class="cls-10" d="M-3453.21,4269.76c-2.37-1.44-5.69-4.41-8.22-3.08-1.23.65-1.26,11.7-4.79,10.4,5.06,11.43,18.73-3.79,13-7.32h0Z" transform="translate(3617.1 -4155.49)"/></g><path class="cls-27" d="M-3487.71,4287.52c4-2.27,13.56-9.79,18.32-8.64C-3469.12,4278.95-3489.45,4295.45-3487.71,4287.52Z" transform="translate(3617.1 -4155.49)"/><path class="cls-27" d="M-3452.67,4263.64c0.68-.67,11.1-9.92,7.69-10.92C-3448,4251.83-3454.14,4264.35-3452.67,4263.64Z" transform="translate(3617.1 -4155.49)"/><path class="cls-27" d="M-3448.28,4269.46c14.7-6.31.58,7-1.38,1Z" transform="translate(3617.1 -4155.49)"/><path class="cls-27" d="M-3451.6,4278.86c0.81,0.28,8.22,2.65,8,4C-3444.54,4288.14-3455.12,4277.69-3451.6,4278.86Z" transform="translate(3617.1 -4155.49)"/><path class="cls-27" d="M-3493.07,4273.67c3.57-.2,20,1.67,20.82,1.2-2.6,1.45-9.15,1.32-12.1,1.57C-3485.31,4276.52-3497.38,4275.59-3493.07,4273.67Z" transform="translate(3617.1 -4155.49)"/><path class="cls-27" d="M-3487.13,4252.93c-5.2-11.51,15.09,9.92,16.79,11.33C-3475.38,4260.1-3481.86,4257.13-3487.13,4252.93Z" transform="translate(3617.1 -4155.49)"/><g class="cls-32"><path class="cls-5" d="M-3468.56,4306.44c-38.33,3.35-46.62-68.34-7.74-71.77,38.27-3.37,46.69,68.36,7.74,71.77h0Zm33.75-38.87c-0.94-20.95-16.85-42.19-39.48-40.81s-36.57,24.39-35.62,45.43c0.92,20.42,15.85,40.89,37.68,40.82,23.51-.08,38.4-23.79,37.43-45.44C-3435.89,4243.76-3433.75,4291.38-3434.82,4267.57Z" transform="translate(3617.1 -4155.49)"/><path class="cls-6" d="M-3469.5,4311.18c-43.08-5.16-38.21-78.75,3.63-82.7,1.23-5-26.48,1.09-30.14,3.12-13.88,7.68-21.29,23.67-21.23,39.12,0.06,14.73,6.8,29.74,19.59,37.66,8.56,5.3,26.11,8.71,35.09,3.08A57,57,0,0,1-3469.5,4311.18Z" transform="translate(3617.1 -4155.49)"/><g class="cls-7"><path class="cls-8" d="M-3498.86,4235.25c11.52,1.59,21.79-5.71,33-6.77,0.78-3.13-15.28-1.34-17.95-.86-6.45,1.17-12.26,3.33-17.48,7.57l2.44,0.06h0Z" transform="translate(3617.1 -4155.49)"/></g><path class="cls-9" d="M-3463.56,4280.76q1.42,13,2.86,26.09c10.9-1.53,2-19.44.31-27Z" transform="translate(3617.1 -4155.49)"/><path class="cls-10" d="M-3462.67,4280.62q1.41,13,2.86,26.09c10.9-1.53,2-19.45.32-27Z" transform="translate(3617.1 -4155.49)"/><path class="cls-9" d="M-3491.21,4295.54l24.22-17.06c-2.93-4.37-14.3,3.95-18,5.72C-3493.27,4288.16-3494.9,4286.94-3491.21,4295.54Z" transform="translate(3617.1 -4155.49)"/><path class="cls-10" d="M-3490.49,4296.25l23.87-17.24c-3-4.35-14.2,4-17.91,5.86C-3492.76,4288.92-3494.35,4287.71-3490.49,4296.25Z" transform="translate(3617.1 -4155.49)"/><path class="cls-10" d="M-3468.49,4275.81l-30.88,2.83c-1.67-9.2,6.22-6.22,12.91-6.19C-3482.28,4272.47-3467.3,4269.7-3468.49,4275.81Z" transform="translate(3617.1 -4155.49)"/><path class="cls-9" d="M-3457.22,4264.15c3.23-4.15,7.24-11.67,11.66-13.88l-8.88,16.13Z" transform="translate(3617.1 -4155.49)"/><path class="cls-10" d="M-3456.42,4264.2l10.86-13.93C-3440.66,4255.71-3452.87,4268.77-3456.42,4264.2Z" transform="translate(3617.1 -4155.49)"/><path class="cls-9" d="M-3452.47,4268.82c2.72-.55,9.43-3.45,11.7-1.27,3.32,3.18-11.21,4.73-12.36,4.77C-3453.38,4272.33-3452.56,4269.05-3452.47,4268.82Z" transform="translate(3617.1 -4155.49)"/><path class="cls-10" d="M-3452.12,4269.23c2.72-.55,9.43-3.45,11.7-1.28,3.34,3.18-11.22,4.74-12.36,4.78C-3453,4272.74-3452.21,4269.46-3452.12,4269.23Z" transform="translate(3617.1 -4155.49)"/><path class="cls-9" d="M-3453.9,4277.5c3.33,1.74,10.8,3.72,10.85,7.6,0.08,6.25-11.67-4.12-13.68-5.6Z" transform="translate(3617.1 -4155.49)"/><path class="cls-10" d="M-3453.76,4276.69c2.65,1.38,12.95,4.24,10.73,8.64-2,4.07-10.68-4.46-13.56-6.65Z" transform="translate(3617.1 -4155.49)"/><path class="cls-11" d="M-3514,4254.34c2.73,0,.28,11.66-3,12.27,3.23-.59,7.49-12.2,3-12.27h0Z" transform="translate(3617.1 -4155.49)"/><path class="cls-11" d="M-3509.49,4252.21a3.64,3.64,0,0,0-4.42.81c7.06-7.06.32,16.83-1.28,19.5,1.65-2.8,10.32-16.49,5.71-20.3C-3510.85,4251.07-3507.84,4253.57-3509.49,4252.21Z" transform="translate(3617.1 -4155.49)"/><path class="cls-11" d="M-3506.44,4250.18q-2.09-3.25-5.52-1.09c10.63-7.36.23,29,.06,30.42,1.14-8.67,9.93-19.77,5.46-29.32C-3507.25,4248.42-3505.28,4252.66-3506.44,4250.18Z" transform="translate(3617.1 -4155.49)"/><path class="cls-11" d="M-3505.32,4270.72c-2.94,7.06-3.36,15.18-2.6,23-0.56-5.77,0-17.14,2.6-23h0Z" transform="translate(3617.1 -4155.49)"/><path class="cls-11" d="M-3504.41,4290.65a13.08,13.08,0,0,1,.62-9.31c-2.78,4.49-1.55,13.2-.62,18.58-0.31-1.69.31-7.12,0-9.27C-3504.85,4287.57-3504,4293.65-3504.41,4290.65Z" transform="translate(3617.1 -4155.49)"/><path class="cls-11" d="M-3492.21,4310a37.1,37.1,0,0,1-3.14-8.6,50.78,50.78,0,0,0,3.14,8.6h0Z" transform="translate(3617.1 -4155.49)"/><path class="cls-11" d="M-3501.28,4289.67a33.35,33.35,0,0,0,3.7,16.2c-1.91-3.37-3.73-12-3.7-16.2C-3501.28,4289.61-3501.32,4295.28-3501.28,4289.67Z" transform="translate(3617.1 -4155.49)"/><path class="cls-9" d="M-3495.54,4253.18l26.88,17.41c4.9-4.77-9.52-14.54-12.94-18C-3487.82,4246.41-3493.65,4237.54-3495.54,4253.18Z" transform="translate(3617.1 -4155.49)"/><path class="cls-10" d="M-3495.13,4252.58l26.87,17.42c4.91-4.76-9.52-14.54-12.94-18C-3487.41,4245.82-3493.24,4237-3495.13,4252.58Z" transform="translate(3617.1 -4155.49)"/><path class="cls-9" d="M-3470.83,4233.7l6,32c6.16-1.42,2.64-12.53,2.34-17.05C-3462.93,4241.62-3460.05,4229.7-3470.83,4233.7Z" transform="translate(3617.1 -4155.49)"/><path class="cls-10" d="M-3470.1,4233.45l6,32c6.16-1.42,2.64-12.53,2.34-17.06C-3462.19,4241.35-3459.31,4229.47-3470.1,4233.45Z" transform="translate(3617.1 -4155.49)"/><path class="cls-12" d="M-3476.3,4234.67c-38.93,3.41-30.54,75.14,7.74,71.77,38.87-3.43,30.61-75.11-7.74-71.77h0Z" transform="translate(3617.1 -4155.49)"/><g class="cls-13"><path class="cls-14" d="M-3511,4280.94c2-5.52,13.19-31,3.92-33.63-12.32-3.54-10.09,30.51-8.38,36.56a6.43,6.43,0,0,0,4.47-2.93C-3509.88,4278-3511.54,4282.44-3511,4280.94Z" transform="translate(3617.1 -4155.49)"/></g><g class="cls-15"><path class="cls-10" d="M-3498.91,4272.55c-0.53,1.86-.23,4.31-0.33,6.25a16,16,0,0,0,5.27-.48C-3495.73,4274.62-3494.08,4272-3498.91,4272.55Z" transform="translate(3617.1 -4155.49)"/></g><g class="cls-16"><path class="cls-10" d="M-3490,4253.26c-2.2-3.06-1-6.44,2.61-7.41-2.81-4.63-4.69-2.35-6.35,1.79-2.56,6.4-.36,4.74,3.66,8.23,6.34,5.5,14.73,9.55,21.8,14.13l1.12-1.82c-7.26-3.81-17.91-8-22.85-14.92h0Z" transform="translate(3617.1 -4155.49)"/></g><g class="cls-17"><path class="cls-10" d="M-3490.61,4287.87c-4.81,1.52-1.51,4.77.13,8.38a18.66,18.66,0,0,0,5-3.63A20.76,20.76,0,0,1-3490.61,4287.87Z" transform="translate(3617.1 -4155.49)"/></g><g class="cls-18"><path class="cls-10" d="M-3459.81,4306.71c3.1-.41,6-1.28,5.23-4.39C-3457.63,4304-3460,4303.24-3459.81,4306.71Z" transform="translate(3617.1 -4155.49)"/></g><g class="cls-19"><path class="cls-10" d="M-3479.73,4304c1.58,1.24,3.9,2,5.7,2.87a11.84,11.84,0,0,0,1.42-3.65C-3476.44,4302.31-3477.91,4299.68-3479.73,4304Z" transform="translate(3617.1 -4155.49)"/></g><g class="cls-20"><path class="cls-21" d="M-3469.5,4311.18c-15.36-2.09-25.83-15.69-29.06-30.11-0.45,1.27-4.17,8.15-5.22,8.87-0.3.21-1.56-.9-1.51-1a32.23,32.23,0,0,0-2.16,3c-2.06,1.36,1.7,5.8-3.81,2,8,14.11,32.55,27.61,48.71,17.5A58.32,58.32,0,0,1-3469.5,4311.18Z" transform="translate(3617.1 -4155.49)"/></g><path class="cls-9" d="M-3466.36,4279.08l-14.85,24.16,1.48,0.75C-3476.35,4298.09-3465.4,4284.68-3466.36,4279.08Z" transform="translate(3617.1 -4155.49)"/><path class="cls-10" d="M-3463.69,4280.45c-4.32-2-13.37,18.9-16,23.53a19.16,19.16,0,0,0,5.7,2.87Z" transform="translate(3617.1 -4155.49)"/><path class="cls-22" d="M-3456.22,4266.84c-3.53-10.26-22.17,6-10.39,13.27C-3459.2,4284.65-3452.3,4273.23-3456.22,4266.84Z" transform="translate(3617.1 -4155.49)"/><g class="cls-23"><path class="cls-14" d="M-3469.5,4311.18c-4.55-.56-8.74-4.38-12.78-4.86-5.48-.65-10.48,2.57-16.23,1.53,8.53,5.67,26.68,9.41,36,3.61A58.32,58.32,0,0,1-3469.5,4311.18Z" transform="translate(3617.1 -4155.49)"/></g><path class="cls-10" d="M-3430,4267.54c-0.94-20.95-16.85-42.19-39.48-40.8s-36.57,24.39-35.62,45.43c0.92,20.42,15.84,40.89,37.67,40.82,23.52-.08,38.4-23.79,37.43-45.44h0Zm-33.75,38.87c-38.33,3.34-46.62-68.34-7.73-71.77,38.27-3.38,46.68,68.36,7.73,71.77h0Z" transform="translate(3617.1 -4155.49)"/><path class="cls-24" d="M-3467.65,4234l-4.44.68c41.1-4.85,46.61,74.73,4.48,71.71,43.95,7.09,42-76.35,0-72.38h0Z" transform="translate(3617.1 -4155.49)"/><path class="cls-25" d="M-3436,4283.69l-0.37-2.31c-2.37-1.91-6.48,10.48-7.58,12.21a27.61,27.61,0,0,1-14.73,11.75,24.67,24.67,0,0,1-17.91-1.33c-1.7-.78-14.85-11.67-14.69-11.76-1.14.69,0.22,5.15-1.07,5.24-2.27.15-6.58-4.72-7.74-5.87,17.75,35,63.6,22.06,69.46-13.85,0.42-1-3.9,9.25-5.15,8.23l-0.22-2.3C-3435.57,4279.67-3436.51,4289.16-3436,4283.69Z" transform="translate(3617.1 -4155.49)"/><path class="cls-25" d="M-3491.8,4302.9c12.18,11.78,30.82,13.41,44.53,3.26-14.27,8.89-31.58,6.85-44.53-3.26C-3484.76,4309.71-3486,4307.46-3491.8,4302.9Z" transform="translate(3617.1 -4155.49)"/><path class="cls-26" d="M-3498.64,4247.62c9.76-25.19,49.44-24.9,61.52-2.49,3.69-6.14-22.71-17.62-25.46-18C-3477.46,4224.76-3493.14,4233.57-3498.64,4247.62Z" transform="translate(3617.1 -4155.49)"/><path class="cls-27" d="M-3463.31,4258.84c-0.79-2.76-4.49-26.1.19-20.8,3,3.38-1.25,21.78,1,23.16A5.75,5.75,0,0,1-3463.31,4258.84Z" transform="translate(3617.1 -4155.49)"/><path class="cls-27" d="M-3460,4283.13s6.38,17.62,3.7,18.83S-3463.51,4276.07-3460,4283.13Z" transform="translate(3617.1 -4155.49)"/><g class="cls-28"><path class="cls-10" d="M-3452,4277.64c-2-.37-2.85-1.24-4.64,1l2.21,1.67A3.25,3.25,0,0,1-3452,4277.64Z" transform="translate(3617.1 -4155.49)"/></g><g class="cls-29"><path class="cls-10" d="M-3450.54,4268.91c-0.15.09-3.82,3.88-2.24,3.82Q-3448.48,4273.42-3450.54,4268.91Z" transform="translate(3617.1 -4155.49)"/></g><g class="cls-30"><path class="cls-10" d="M-3455.82,4263.43c0.09,0.1.5,2.3,2.18,3l0.92-1.08Z" transform="translate(3617.1 -4155.49)"/></g><path class="cls-10" d="M-3451.94,4272.43c-1.11,10.23-15.86,11.55-14.94.06,0.82-10.31,16.18-11.48,14.94-.06C-3452.45,4277.17-3451.42,4267.68-3451.94,4272.43Z" transform="translate(3617.1 -4155.49)"/><path class="cls-11" d="M-3458.26,4270.79c-3,3.26-2.28,6-2.5,10.06,0.2-2.7,5.3-17.54,8.06-6.49-0.5-1.87-3.28-6.07-5.56-3.57h0Z" transform="translate(3617.1 -4155.49)"/><path class="cls-11" d="M-3457,4273.27c-0.59-.24-1.49,7.66-1.47,7.38,0-1.36,1.29-5.29,1.47-6.9a7.47,7.47,0,0,1,2.8,3.42c-0.74-1.26.06-2.68-2.8-3.9h0Z" transform="translate(3617.1 -4155.49)"/><path class="cls-11" d="M-3461.33,4267.39c-2.31,1.81-.89,10.93-0.9,13.4,0,0.24,0-12.16,1.36-13,1.78-1.11,8.39,2.35,9,3.28-1.24-1.68-7.25-5.43-9.46-3.68h0Z" transform="translate(3617.1 -4155.49)"/><g class="cls-31"><path class="cls-10" d="M-3453.21,4269.76c-2.37-1.44-5.69-4.41-8.22-3.08-1.23.65-1.26,11.7-4.79,10.4,5.06,11.43,18.73-3.79,13-7.32h0Z" transform="translate(3617.1 -4155.49)"/></g><path class="cls-27" d="M-3487.71,4287.52c4-2.27,13.56-9.79,18.32-8.64C-3469.12,4278.95-3489.45,4295.45-3487.71,4287.52Z" transform="translate(3617.1 -4155.49)"/><path class="cls-27" d="M-3452.67,4263.64c0.68-.67,11.1-9.92,7.69-10.92C-3448,4251.83-3454.14,4264.35-3452.67,4263.64Z" transform="translate(3617.1 -4155.49)"/><path class="cls-27" d="M-3448.28,4269.46c14.7-6.31.58,7-1.38,1Z" transform="translate(3617.1 -4155.49)"/><path class="cls-27" d="M-3451.6,4278.86c0.81,0.28,8.22,2.65,8,4C-3444.54,4288.14-3455.12,4277.69-3451.6,4278.86Z" transform="translate(3617.1 -4155.49)"/><path class="cls-27" d="M-3493.07,4273.67c3.57-.2,20,1.67,20.82,1.2-2.6,1.45-9.15,1.32-12.1,1.57C-3485.31,4276.52-3497.38,4275.59-3493.07,4273.67Z" transform="translate(3617.1 -4155.49)"/><path class="cls-27" d="M-3487.13,4252.93c-5.2-11.51,15.09,9.92,16.79,11.33C-3475.38,4260.1-3481.86,4257.13-3487.13,4252.93Z" transform="translate(3617.1 -4155.49)"/></g><path class="cls-33" d="M-3516.26,4258.71c6.86-3.43,7.33,1.25,12.43,3.23,3.63,1.41,10.77,0,9.27-5.62-0.44-1.65-11.66-7.78-13.35-8.15-2.21-.47-1.78-1.84-3.43-1.19C-3513.9,4248-3515.89,4256.52-3516.26,4258.71Z" transform="translate(3617.1 -4155.49)"/><path class="cls-34" d="M-3397.29,4200.3c-26.92-6.82-54-13.27-81-19.73-22-5.26-44-10.45-66-15.41-13.89-3.12-29.63-8.84-43.94-9.05-7.46-.11-6.71,1.41-7.62,9.84-1.38,12.72.68,25.22,0.54,37.88-0.05,5.06-3.76,13.06-2.61,17.24,0.95,3.42,2.91,3.1,7.48,4.64,43.1,14.57,86.26,29.46,130.1,41.66,28.31,7.88,60.72,10,86.85-5.94,11-6.7,20.9-18.09,17.32-31.79C-3360.73,4212.44-3381.82,4203.87-3397.29,4200.3Z" transform="translate(3617.1 -4155.49)"/><g class="cls-32"><path class="cls-34" d="M-3380,4206.13c-16.78,4.82-34.31-.26-50.67,8.33-13.08,6.87-22.52,18.08-37,22.55-41,12.61-91.22-6.71-128.77-22.73-1.93,8.91-3.19,8.32,4.57,10.95q15,5.07,30,10.06c27.68,9.2,55.41,18.33,83.34,26.77,27.61,8.34,54.17,15.51,83.19,8.18,14.46-3.65,32.94-11.5,38.48-26.77,6.23-17.16-9-30.78-23.09-37.33C-3386.24,4207.91-3365,4213.09-3380,4206.13Z" transform="translate(3617.1 -4155.49)"/></g><g class="cls-32"><path class="cls-34" d="M-3398.91,4210.06c-16.68-.69-29.36,7-39.72,19.58-5.05,6.11-11,13-12.86,20.8-0.82,3.38-1.93,18.93-.41,19.36a7.34,7.34,0,0,0-1.24-.43c12,0.7,22.82,4.51,35.35,4,15.7-.63,32.41-4.16,45.72-12.9,8.37-5.5,21.09-18.25,16.07-29.85-5.62-13-30.47-20-42.91-20.56h0Z" transform="translate(3617.1 -4155.49)"/></g><path class="cls-5" d="M-3389.52,4308.65c-46.63,2.11-49.28-87.25-3.07-89.33,46.56-2.09,49.33,87.23,3.07,89.33h0Zm43.45-46.33c0.64-25-15.69-53.18-43.47-52.68s-45.6,28.95-46.24,54.36c-0.62,24.42,14.78,51.94,41.73,52.63,28.66,0.73,47.32-28.27,48-54.31C-3345.31,4232.77-3346.82,4291.88-3346.07,4262.32Z" transform="translate(3617.1 -4155.49)"/><path class="cls-6" d="M-3391,4314.48c-51.64-8.87-38.33-99.88,11.38-102.25,2.44-7.54-36.18,1.93-40.56,4.86-15.43,10.29-23.84,29-24.3,47.22-0.44,17.37,6.43,35.83,21.18,45.9,9.82,6.7,29.87,11.06,40.54,5A65.23,65.23,0,0,1-3391,4314.48Z" transform="translate(3617.1 -4155.49)"/><g class="cls-7"><path class="cls-8" d="M-3419.47,4218.82c13.65,2.61,26.36-6,39.81-6.6,1.25-3.88-19.56-2.52-23.92-1.8a43,43,0,0,0-18.79,8.2l2.9,0.2h0Z" transform="translate(3617.1 -4155.49)"/></g><path class="cls-9" d="M-3381.38,4277.12q0.59,16.23,1.18,32.46c8.81-2.91,6.82-3.46,5.58-12.51l-2.89-21A19,19,0,0,0-3381.38,4277.12Z" transform="translate(3617.1 -4155.49)"/><path class="cls-10" d="M-3380.31,4277l1.18,32.47c8.81-2.9,6.83-3.46,5.58-12.51l-2.89-21A18.93,18.93,0,0,0-3380.31,4277Z" transform="translate(3617.1 -4155.49)"/><path class="cls-9" d="M-3415.52,4293.93l30.25-19.83c-2.56-5.76-17,4-21.25,5.84C-3417,4284.54-3419.32,4282.65-3415.52,4293.93Z" transform="translate(3617.1 -4155.49)"/><path class="cls-10" d="M-3414.73,4294.85l29.86-20.07c-2.64-5.75-16.93,4.11-21.14,6C-3416.48,4285.49-3418.75,4283.62-3414.73,4294.85Z" transform="translate(3617.1 -4155.49)"/><path class="cls-10" d="M-3386.83,4270.71l-37,1.84c1.2-9.95,2.41-7.65,12.42-7.15l24.76,1.25A17.62,17.62,0,0,1-3386.83,4270.71Z" transform="translate(3617.1 -4155.49)"/><path class="cls-9" d="M-3372.42,4256.88c4.43-5.23,9.42-13.57,15.06-16.57l-11.94,19.51A19.69,19.69,0,0,1-3372.42,4256.88Z" transform="translate(3617.1 -4155.49)"/><path class="cls-10" d="M-3371.47,4257l14.1-16.67c5.51,6.95-6.61,14.83-11,19.61C-3369.28,4259-3370.8,4258-3371.47,4257Z" transform="translate(3617.1 -4155.49)"/><path class="cls-9" d="M-3367.18,4262.92c2.2-.36,12.54-3.74,14-1,2.76,5.16-12.92,5.25-15.1,5.25C-3368.5,4267.22-3367.34,4263.21-3367.18,4262.92Z" transform="translate(3617.1 -4155.49)"/><path class="cls-10" d="M-3366.8,4263.44c2.2-.36,12.54-3.74,14-1,2.76,5.15-12.92,5.27-15.1,5.25C-3368.12,4267.73-3367,4263.73-3366.8,4263.44Z" transform="translate(3617.1 -4155.49)"/><path class="cls-9" d="M-3369.61,4273.59c3.85,2.36,12.67,5.28,12.25,10-0.68,7.68-13.39-5.62-15.8-7.68A20.24,20.24,0,0,1-3369.61,4273.59Z" transform="translate(3617.1 -4155.49)"/><path class="cls-10" d="M-3369.37,4272.6c3.58,2.19,14.75,5.84,12,11.29-2.42,4.82-12.42-6.2-15.56-9A20.06,20.06,0,0,1-3369.37,4272.6Z" transform="translate(3617.1 -4155.49)"/><path class="cls-11" d="M-3439.11,4241.65c3.38,0.19-.83,14.45-4.65,15,4.38-.62,9.69-14.72,4.65-15h0Z" transform="translate(3617.1 -4155.49)"/><path class="cls-11" d="M-3433.56,4239.26a4.26,4.26,0,0,0-5.33.76c4.86-4.53,4.92,2.37,5,4.39,0.29,6.63-4.73,14.5-8.2,19.69,2.42-3.63,13.79-19.77,8.53-24.84h0Z" transform="translate(3617.1 -4155.49)"/><path class="cls-11" d="M-3429.76,4236.91c-1-2.71-4.28-3.11-6.47-1.65,12.85-8.56-2.28,36.38-2.53,37.68,2-10.62,13.49-24,9-36h0Z" transform="translate(3617.1 -4155.49)"/><path class="cls-11" d="M-3430.19,4262.42c-4.31,8.3-5.29,18.85-5,28.3-0.22-7.37,1.49-21.2,5-28.3h0Z" transform="translate(3617.1 -4155.49)"/><path class="cls-11" d="M-3430.81,4287.16c-0.1-1.59-1-11.24,1.37-11.67-4.14.75-2.38,21-2.17,23.15-0.3-2.51,1-8.13.8-11.47C-3431.06,4283.31-3430.57,4290.89-3430.81,4287.16Z" transform="translate(3617.1 -4155.49)"/><path class="cls-11" d="M-3418,4311.84c-1.6-3.41-2.25-7.17-3-10.83,0.82,3.47,1.66,8,3,10.83h0Z" transform="translate(3617.1 -4155.49)"/><path class="cls-11" d="M-3427,4286.11c-0.4,7.05.13,13.37,3,20.27-2.07-4.33-3.41-15.08-3-20.27C-3427,4286-3427.53,4293.06-3427,4286.11Z" transform="translate(3617.1 -4155.49)"/><path class="cls-9" d="M-3417.06,4241.21l30.48,23c6.84-5.61-19.16-29.16-24-34.84A20.63,20.63,0,0,0-3417.06,4241.21Z" transform="translate(3617.1 -4155.49)"/><path class="cls-10" d="M-3416.52,4240.5l30.48,23c6.84-5.6-19.16-29.16-24-34.84A20.57,20.57,0,0,0-3416.52,4240.5Z" transform="translate(3617.1 -4155.49)"/><path class="cls-9" d="M-3386,4218.42l4.45,40c7.57-1.2,4.22-15.68,4.24-21C-3377.29,4229.11-3372.61,4214-3386,4218.42Z" transform="translate(3617.1 -4155.49)"/><path class="cls-10" d="M-3385.11,4218.15l4.45,40c7.57-1.21,4.22-15.68,4.24-21C-3376.38,4228.84-3371.71,4213.71-3385.11,4218.15Z" transform="translate(3617.1 -4155.49)"/><path class="cls-12" d="M-3392.59,4219.33c-46.26,2.11-43.5,91.41,3.07,89.33,46.2-2.07,43.55-91.44-3.07-89.33h0Z" transform="translate(3617.1 -4155.49)"/><g class="cls-13"><path class="cls-14" d="M-3437.8,4274.77c2.79-6.47,18-35.69,9-41.31-14.62-9.14-15.67,39-14.53,44.69a7.85,7.85,0,0,0,5.56-3.38h0Z" transform="translate(3617.1 -4155.49)"/></g><g class="cls-15"><path class="cls-10" d="M-3422.72,4265l-0.93,7.73a19,19,0,0,0,6.31-.31C-3418.79,4268.61-3417.13,4263.8-3422.72,4265Z" transform="translate(3617.1 -4155.49)"/></g><g class="cls-16"><path class="cls-10" d="M-3410.45,4241.62c-2.37-3.94-.76-8,3.73-9a15.58,15.58,0,0,0-3.33-3.9c-10,8.44-5.46,12.58,2.44,18.54l21.58,16.3,1.48-2.19c-8.27-5.08-20.74-11.13-25.9-19.71h0Z" transform="translate(3617.1 -4155.49)"/></g><g class="cls-17"><path class="cls-10" d="M-3414.16,4284.45c-6.25.93-2,6.47-.57,10.4l6.29-4.23A23.35,23.35,0,0,1-3414.16,4284.45Z" transform="translate(3617.1 -4155.49)"/></g><g class="cls-18"><path class="cls-10" d="M-3379.13,4309.45c3.39-1.12,7.84-.84,6.59-5.15C-3376.32,4306.26-3379.07,4305.21-3379.13,4309.45Z" transform="translate(3617.1 -4155.49)"/></g><g class="cls-19"><path class="cls-10" d="M-3402.59,4305l6.53,3.87a14.66,14.66,0,0,0,2-4.45C-3397.86,4303.31-3400.93,4299.63-3402.59,4305Z" transform="translate(3617.1 -4155.49)"/></g><g class="cls-20"><path class="cls-21" d="M-3391,4314.48c-18.52-3.21-29.48-21.54-32-38.87a36.41,36.41,0,0,1-6.19,8.92c0.1-.09-3.58,2-2.42.64-2.11,2.54-2.37,10-7.59,5.73,8.28,17.92,36.2,35.81,56.43,24.31A66.59,66.59,0,0,1-3391,4314.48Z" transform="translate(3617.1 -4155.49)"/></g><path class="cls-9" d="M-3384.56,4274.88l-19.73,29.12C-3401.51,4305.52-3383.28,4278.48-3384.56,4274.88Z" transform="translate(3617.1 -4155.49)"/><path class="cls-10" d="M-3381.51,4276.71c-4.21-3.05-18,23.42-21.08,28.29l6.53,3.87Z" transform="translate(3617.1 -4155.49)"/><path class="cls-22" d="M-3371.46,4260.26c-2.08-11.31-23.57,2-15.75,13.48C-3379.58,4284.92-3366.7,4269.69-3371.46,4260.26Z" transform="translate(3617.1 -4155.49)"/><g class="cls-23"><path class="cls-14" d="M-3391,4314.48c-5.82-1.1-10.87-5.77-16.11-6.61-6.09-1-11.65,2.45-18.11.92,9.79,7.59,31,12.9,42.45,6.41A66.59,66.59,0,0,1-3391,4314.48Z" transform="translate(3617.1 -4155.49)"/></g><path class="cls-10" d="M-3340.34,4262.54c0.64-25-15.69-53.18-43.48-52.69s-45.6,29-46.24,54.36c-0.62,24.42,14.77,52,41.73,52.64,28.65,0.73,47.32-28.27,48-54.32C-3339.58,4233-3341.1,4292.1-3340.34,4262.54Zm-43.46,46.33c-46.63,2.12-49.28-87.24-3.07-89.32,46.56-2.09,49.33,87.24,3.07,89.32h0Z" transform="translate(3617.1 -4155.49)"/><path class="cls-24" d="M-3382.25,4219a43.71,43.71,0,0,0-5.34.59c49.64-3.93,49.15,95.14-.8,89.08,51.94,11.21,56.68-92.35,6.14-89.67h0Z" transform="translate(3617.1 -4155.49)"/><path class="cls-25" d="M-3348.82,4282.22c1.5-9.12-10.1,11.63-11.18,13.06-5,6.6-12,11.79-20.32,13.21-8.46,1.45-16.86-1.25-23.48-6.53-1.8-1.44-8.73-11.75-9.88-11.89-4.81-.57-0.32,4.92-3,6.13-2.45,1.09-7.87-6.31-9-7.63,18.75,45.86,74.18,28.91,83.8-13.41,0,0.07-6.35,11.39-7,9.67l0.08-2.63C-3348,4277.27-3349.93,4289-3348.82,4282.22Z" transform="translate(3617.1 -4155.49)"/><path class="cls-25" d="M-3416.86,4303a39.56,39.56,0,0,0,52.69,6.44c-17.54,10.13-38,6.93-52.69-6.44C-3409.07,4311.83-3410.3,4309-3416.86,4303Z" transform="translate(3617.1 -4155.49)"/><path class="cls-26" d="M-3420.28,4234.15c13.23-29.79,60.68-28.77,73.4.24,4.77-7.11-23.95-22.66-28-23.59C-3393.14,4206.61-3412.67,4217.39-3420.28,4234.15Z" transform="translate(3617.1 -4155.49)"/><path class="cls-27" d="M-3379.2,4250c-0.71-3.46-6.16-28.56,1.18-27.15,2.4,0.46,1.23,30.16.16,30.18C-3378.53,4253-3379.23,4249.87-3379.2,4250Z" transform="translate(3617.1 -4155.49)"/><path class="cls-27" d="M-3377.38,4280.24s6.09,22.18,2.79,23.52S-3380.92,4271.31-3377.38,4280.24Z" transform="translate(3617.1 -4155.49)"/><g class="cls-28"><path class="cls-10" d="M-3367.31,4273.86c-2.19-1.1-3.63-1.21-5.61,1.05l2.49,2.18A4.13,4.13,0,0,1-3367.31,4273.86Z" transform="translate(3617.1 -4155.49)"/></g><g class="cls-29"><path class="cls-10" d="M-3364.88,4263.13c-0.93.32-4.21,4.6-3,4.6C-3364.66,4267.83-3363.93,4267.62-3364.88,4263.13Z" transform="translate(3617.1 -4155.49)"/></g><g class="cls-30"><path class="cls-10" d="M-3370.69,4256.05c-0.13,1.48.06,2.61,2.34,3.86l1.18-1.29Z" transform="translate(3617.1 -4155.49)"/></g><path class="cls-10" d="M-3366.84,4267.42c-2.15,12.36-19.83,13.4-17.78-.73,1.79-12.34,20.26-13.51,17.78.73C-3367.86,4273.27-3365.82,4261.57-3366.84,4267.42Z" transform="translate(3617.1 -4155.49)"/><path class="cls-11" d="M-3374.22,4265c-3.8,3.85-3.24,7.37-3.84,12.33,0.52-3.65,7.27-20.78,10.14-7.61-0.42-2.27-3.37-7.71-6.3-4.72h0Z" transform="translate(3617.1 -4155.49)"/><path class="cls-11" d="M-3372.9,4268.19c-0.67-.33-2.42,9.41-2.38,9.06,0.22-1.87,2-6.31,2.33-8.47a8.86,8.86,0,0,1,3,4.39c-0.83-1.56.38-3.28-3-5h0Z" transform="translate(3617.1 -4155.49)"/><path class="cls-11" d="M-3377.58,4260.67c-3,2.21-2,13.37-2.21,16.56,0.2-1.93.62-14,2.49-15.29,2.16-1.5,9.24,1.64,10.65,3.81-1.44-2.34-8.21-7.07-10.93-5.08h0Z" transform="translate(3617.1 -4155.49)"/><g class="cls-31"><path class="cls-10" d="M-3368.13,4264c-4-2.81-6.61-5.69-9.88-3-1.13.91-2.68,13-6.22,11.4,5,14.23,22.69-3.67,16.1-8.36h0Z" transform="translate(3617.1 -4155.49)"/></g><path class="cls-27" d="M-3410.68,4284.18c3.36-1.77,21.47-7.42,22.57-9.55C-3390.13,4278.56-3412.67,4291.23-3410.68,4284.18Z" transform="translate(3617.1 -4155.49)"/><path class="cls-27" d="M-3367,4256.49c1.4-1.29,14.44-12.7,9.38-13C-3361.47,4243.33-3368.11,4257-3367,4256.49Z" transform="translate(3617.1 -4155.49)"/><path class="cls-27" d="M-3362.24,4263.94c1.69-.49,8.78-2.93,8.56.39-0.25,3.79-10.1.27-10.26,0.6Z" transform="translate(3617.1 -4155.49)"/><path class="cls-27" d="M-3367,4275.41c1,0.41,12.55,5.51,7.7,6.85C-3363,4283.27-3369.87,4274.25-3367,4275.41Z" transform="translate(3617.1 -4155.49)"/><path class="cls-27" d="M-3415.87,4266.73c4.32-.05,8.66-0.07,13,0.09,1.4,0.05,13.05,1.81,11.67,2.52-3.8,2-11.92,1.27-16.15,1.39C-3408.24,4270.76-3421.47,4269-3415.87,4266.73Z" transform="translate(3617.1 -4155.49)"/><path class="cls-27" d="M-3407,4241.36c-5.6-8.74,5-2.69,7.63.22,4.08,4.51,7,10.55,11.37,14.72C-3393.62,4250.92-3401.16,4246.83-3407,4241.36Z" transform="translate(3617.1 -4155.49)"/><g class="cls-35"><path class="cls-8" d="M-3561.42,4168.19c17.74,3.21,35.78,4.31,53.51,7.51,13.27,2.39,25.69,7.34,38.66,10.84,27.53,7.42,55.79,12.57,83.88,17.35-33-12.46-70-17.88-104.19-26-23.74-5.64-47.51-11.24-71.37-16.38-7.84-1.69-15.7-3.42-23.62-4.77-11.31-1.93-11,.39-11.68,13.43l13.72-1.78c-0.79-5.5,17.9-.77,21.08-0.2h0Z" transform="translate(3617.1 -4155.49)"/></g><path class="cls-36" d="M-3573,4189.62c-0.39,12.67-7.1,33.86-23.1,33.62s-21.36-21.51-21-34.13,7.12-33.75,23.1-33.63,21.4,21.71,21,34.13C-3573.53,4208.33-3572.39,4170.91-3573,4189.62Z" transform="translate(3617.1 -4155.49)"/><path class="cls-37" d="M-3581.47,4189.11c-0.25,8.07-3.3,27.87-14.83,27.66s-13.37-19.92-13.12-28,2.94-26.24,13.69-27.5c12.38-1.45,14.5,19.85,14.26,27.82C-3581.95,4204.48-3581,4173.74-3581.47,4189.11Z" transform="translate(3617.1 -4155.49)"/><path class="cls-38" d="M-3582,4179.78c-0.64,7.23-3.43,22-12.28,24.08-9.87,2.34-13.88-11-14.95-18.3-0.79,8.63.53,32.25,14.06,31,13.76-1.22,14.51-27.75,13.17-36.83C-3583.23,4193.61-3581.56,4182.7-3582,4179.78Z" transform="translate(3617.1 -4155.49)"/><path class="cls-39" d="M-3611.69,4173.18c6.41-18.83,29.43-16.6,36,1.59-2.6-6.86-7.11-15.07-14.35-17.73C-3601.06,4153-3610.59,4162.7-3611.69,4173.18Z" transform="translate(3617.1 -4155.49)"/><g class="cls-40"><path class="cls-36" d="M-3580.22,4188.13c0.12-11.35-4.54-26.22-18.59-19.87-4.85,2.19-8,6.3-10.2,11-1.16,2.46-2.44,21.41-3.57,21.85-0.94.37-4.31-5.12-4.26-5,1.08,10.39,6.3,24.49,17.93,26.9,12.53,2.6,21.1-10.7,24-20.95-5.62,5.62-5.37-12.48-5.36-13.86C-3579.9,4157.62-3580.38,4203-3580.22,4188.13Z" transform="translate(3617.1 -4155.49)"/></g></g></g></svg>