<svg xmlns="http://www.w3.org/2000/svg" viewBox="0 0 258.7 148.23"><defs><style>.cls-1{isolation:isolate;}.cls-2,.cls-4,.cls-5{fill:#272929;}.cls-3,.cls-6{fill:#fff;}.cls-10,.cls-3,.cls-4,.cls-5,.cls-8,.cls-9{mix-blend-mode:multiply;}.cls-5{opacity:0.56;}.cls-7,.cls-8{fill:#d81f26;}.cls-10,.cls-11{fill:#e2e3e4;}.cls-12,.cls-14{mix-blend-mode:screen;}.cls-13,.cls-14{fill:#f1cb0c;}</style></defs><title>artefact_13</title><g class="cls-1"><g id="Layer_1" data-name="Layer 1"><path class="cls-2" d="M-2524.8,4180.62c-15.18-10.75-34.7-15.94-53-17.25-35.62-2.55-68.28,18-103.51,14.16-16-1.73-31.48-7.06-47.33-9.78-4.26-.73-18.47-4.54-21.87-1.5-2.76,2.47-3.57,15.75-4.37,19.25l-7.41,32.66-12.57,55.39c15.1,3.26,26.12,14.12,40.36,18.84,17.23,5.72,36.9,6.08,54.88,6.25,42,0.38,86.84-17.66,122.72,12.65Z" transform="translate(2774.87 -4163.07)"/><path class="cls-3" d="M-2705.23,4297.46c4.79,0.42,9.77.73,14.8,0.93A125.47,125.47,0,0,1-2705.23,4297.46Z" transform="translate(2774.87 -4163.07)"/><path class="cls-4" d="M-2739.88,4281.71c11.43,7.27,20.64,14,34.65,15.74-13.08-1.16-27-2.67-38.57-9.26-9.83-5.59-18.88-11.78-30.08-14.42,12.11-2.74,23.85,1.48,34,7.94h0Z" transform="translate(2774.87 -4163.07)"/><path class="cls-5" d="M-2589.06,4288.2c33.57,10.35,40.2-28.56,44-53.86,4.37-29,2.54-66.29-34.47-67.71-36.6-1.41-65.77,17.72-74.85,53-4,15.7-5.65,32-11.54,47.22-2.06,5.32-6,17-11.42,19.92-9.93,5.35-6.29-11.46-5.87-17.77,1.56-23.58,12.29-65.78-7.22-84.23-9.31-8.81-24.18-11.62-36.3-14-0.82-.16-23.76-4.39-24.13-3.17,1.58-7.73,68.63,10.69,80.11,10.37,20.4-.56,39.5-8.87,59.33-12.59a126.92,126.92,0,0,1,55.53,1.56c7.42,1.95,23.91,5.59,29,12.25,2.41,3.16,1.63,3.2.43,8.09l-16.38,66.69-14.08,57.3c-17.5-14.78-40.34-20.72-62.93-18-23.81,2.86-46.4,6.06-70.59,5.11,20.46,0.15,39.79-3.79,59.27-9.54,14.66-4.33,27.22-5.24,42.1-.65h0Z" transform="translate(2774.87 -4163.07)"/><path class="cls-6" d="M-2612.72,4225.29c0.6,16.45-4.66,27.48-21,34.25-1.72.71-6.33,3.74-7.05,3.91-2.91.67-4.66-1-6.85-.88-2.5.12-4.5,1.51-7.87,2.08-2.19.37-2.6-2.6-3.71-2.64-3.6-.13-4.32,1.59-7.8.64-1.28-.35-8.1-5.26-9.68-6.85-4-4-7.09-14.26-5.09-19.88,2.38-6.66,10.88-6.11,18.1-7.18A366.13,366.13,0,0,1-2612.72,4225.29Zm-22.95,26.82c11.13,0.94,16.39-17.61,4-19.11-11.18-1.35-16.36,18.06-4,19.11h0Zm-26.24-19.85c-11.13-.94-16.4,17.61-4,19.11,11.18,1.34,16.36-18.07,4-19.11h0Z" transform="translate(2774.87 -4163.07)"/><path class="cls-7" d="M-2683.69,4228.38c-12.81-4.2-3.23-14.88,2.78-1.18,9.58-15.09,32.37-21.83,49.11-18.33a37.78,37.78,0,0,1,19,10.58c3.18,3.13,5.7,3.72,0,5.85-3.07,1.15-8.59.15-11.83,0.26-9.44.33-18.89,0.88-28.29,1.85a261.42,261.42,0,0,0-28.57,5c-9.94,2.14-14.81-3.85-2.29-4C-2688.66,4226.75-2691.83,4228.51-2683.69,4228.38Z" transform="translate(2774.87 -4163.07)"/><path class="cls-6" d="M-2610.26,4221.3l-0.76.25A1.85,1.85,0,0,1-2610.26,4221.3Z" transform="translate(2774.87 -4163.07)"/><path class="cls-8" d="M-2683.69,4228.38c-12.81-4.2-3.23-14.88,2.78-1.18,13.74-21.64,53.83-27.27,69.89-5.65a45.29,45.29,0,0,0-20-10.06c-6.44-1.42-25.08-2.52-29.07,5.41-4.11,8.16,7.83,7.31,13.45,7.18,12.46-.29,25.81.86,38.18-0.85-0.14,3.92-37.62,3.54-40.76,3.82a208.55,208.55,0,0,0-30.8,5c-3.18.78-9,3.84-11.77,0.59-3.1-3.62,7.56-4.22,8.06-4.23C-2688.66,4226.75-2691.83,4228.51-2683.69,4228.38Z" transform="translate(2774.87 -4163.07)"/><g class="cls-9"><path class="cls-10" d="M-2681.4,4232.42c20.55-6.31,47.87-9.4,69.31-6.91,0,0-2.29,17-3.4,19.49a24.43,24.43,0,0,1-10,11.39c-3.08,1.82-6.58,2-9.68,3.41-0.91.41-2.19,0-3.07,0.41a6.64,6.64,0,0,1-5.32,4.24,5.94,5.94,0,0,1-4.13-1.89c-2.32.12-5.75,1.45-9,1.8a2.71,2.71,0,0,1-2.59-2.37,9.56,9.56,0,0,1-6.77,1.23c-1.67-.34-4.28-3.1-5.46-4-2.15-1.55-4.25-2.18-6.08-4.37C-2682.49,4249-2682.53,4239.64-2681.4,4232.42Zm16.43,25.08c-2.95,4.51,4.18,3.08,5.82,1.18,1.58,4.41,3.6,3.14,7,3.56q2.77-4.72,5.66-.35a4.21,4.21,0,0,0,5-.37c-5.27.77,6-3.66,4.52-3,2.58-1.15,5.5-1.38,8.1-2.71,10.14-5.21,22.07-26.66,4.18-28.5-12.07-1.25-39.72-1.16-49.72,6.12s-3.32,26.11,9.44,24C-2667.35,4261.14-2677.39,4259.51-2665,4257.51Z" transform="translate(2774.87 -4163.07)"/><path class="cls-11" d="M-2631.58,4232.47c15,2.19,6.34,24.47-6.59,19.84-17.77-6.36,6.22-22.51,7.34-19.28-1.19-3.46-10.94,6.78-11.1,9.86-0.27,5.15,3.48,9.63,8.85,8.56,4-.79,8.14-6.49,7.84-10.63s-5.65-8.25-6.34-8.35h0Z" transform="translate(2774.87 -4163.07)"/><path class="cls-11" d="M-2661.84,4232c14.05,2.05,7.53,22.13-5.24,19.48-16.62-3.44.11-24.55,6-19.18-4.47-4.1-18.52,13.64-6.17,18.41,11.74,4.53,14.92-17.3,5.43-18.71C-2648.9,4233.87-2663,4231.81-2661.84,4232Z" transform="translate(2774.87 -4163.07)"/></g><path class="cls-6" d="M-2643.22,4268.47c-4.33-.13-26-3.81-27.24-0.57C-2673.12,4274.9-2645.52,4278.29-2643.22,4268.47Z" transform="translate(2774.87 -4163.07)"/><g class="cls-9"><path class="cls-11" d="M-2668.16,4266.5c8.13,1.6,16.68,1.72,24.94,2-1.59,6.75-12.76,6.45-17.92,5.63-2-.32-7.41-0.5-8.53-2.9-0.69-1.5-1.76-5.14,1.51-4.69C-2660.44,4268-2671.5,4266-2668.16,4266.5Zm9.27,6.85c2.59,0.21,12,.71,13.19-3-0.12.36-21.61-3.64-22.19-1.32-0.8,3.16,7.78,4.24,9,4.33h0Z" transform="translate(2774.87 -4163.07)"/></g><path class="cls-8" d="M-2683.17,4229.39q-3.72-1.25-.52-1c-2.06-.68-11.25-8.6-5-8.47-1.59,6.17,7,5.39,7.79,7.28,5.8-9.14,16.67-14.9,26.89-17.41-5.53,2-26.22,11.23-19.62,17.4,3.09,2.89,19.17-.61,23-0.89,6.85-.48,19.4-3.44,25.85-0.74a352.57,352.57,0,0,0-38.45,3.09c-3.09.45-29.46,7.86-28.84,2.59,0.4,0,10.08-.15,8.9-1.85h0Z" transform="translate(2774.87 -4163.07)"/><path class="cls-6" d="M-2679.73,4257.7c-2.92,1.39-29,14-29.59,12,1.24,4.31,11.55,6.85,6.5,2,5.34-2.71,19-13.35,24.61-12.74A5.17,5.17,0,0,1-2679.73,4257.7Z" transform="translate(2774.87 -4163.07)"/><g class="cls-9"><path class="cls-11" d="M-2704.06,4271.3c7.13-3.1,18.86-12.91,25.86-12.33-5.58-.61-19.27,10-24.61,12.74,3.23,3.56-1.79,5.29-2.86,3.05,2.44,0.36,4.2-1.94,1.61-3.46C-2695.45,4267.55-2702.22,4272.38-2704.06,4271.3Z" transform="translate(2774.87 -4163.07)"/></g><path class="cls-6" d="M-2633.34,4263.51l13.72,15.54c-6.49,3.81-.89,5.81,3.53,3.45,2-1.07,4.67.51,4.88-3.07,0.25-4.16-4.07-.76-4.85-1.55C-2620,4273.92-2627.65,4257.88-2633.34,4263.51Z" transform="translate(2774.87 -4163.07)"/><g class="cls-9"><path class="cls-11" d="M-2619.61,4279l-13.72-15.54,1-.55c4.91,5.34,9.87,10.65,14.59,16.16-3.14,1-4.18,2.17-2.55,4.45-0.5-.7,6.65-1.59,8-1.88-0.68.45-8.73,2.64-8.58,2.75C-2623.69,4282.59-2622.43,4280.5-2619.61,4279Z" transform="translate(2774.87 -4163.07)"/></g><path class="cls-6" d="M-2674.89,4214.78c-3.42-1.56-11.67-10.72-13.06-14.12-0.59-1.45,1.09-4.43.71-4.78-1.83-1.69-1.93-1.07-4.2-.38,0.56-.17-4.6,7.57-4.53,4.59-0.06,2.43,5.55,3.88,8.75,6.61C-2684.59,4209-2677.91,4218.27-2674.89,4214.78Z" transform="translate(2774.87 -4163.07)"/><g class="cls-9"><path class="cls-11" d="M-2692.62,4198.85l0.23-2.59a4.46,4.46,0,0,0,1.35,3.14c-1,.09-3.2,0-3.93.86,2.64-3.12,17,12.94,19.48,15.07l-1.15,1.06c-3.84-3.52-7.85-8.62-12.29-11.24-2.34-1.38-12.39-5.88-3.69-6.29C-2693.11,4198.1-2695.8,4199-2692.62,4198.85Z" transform="translate(2774.87 -4163.07)"/></g><path class="cls-6" d="M-2611.21,4214.6c4.62-3.41,11.91-6.87,15.41-11.37,0.91-1.18-1.61-3.71-.15-5.18,3-3,5.87-1.8,4.07,2.22,3.84-.23,8.87.79,4.71,4.55,0.75-.68-6.91,1.43-7.06,1.49C-2598.22,4208-2608,4218.83-2611.21,4214.6Z" transform="translate(2774.87 -4163.07)"/><g class="cls-9"><path class="cls-11" d="M-2594.11,4203c1.27-1,4.92.86,5.55-.94,0.77-2.17-3.3-1.21-3.94-1.2,0.42-1.41,2.12-2.73.82-4.41,2,0.73.06,2.87-.2,3.81,2.06-.13,7.06,0,6.72,3-0.2,1.71-5.94,1.33-7.54,2.08-5.93,2.77-11.44,7.49-16.94,11.08l-1-1.18c5.61-3.9,11.34-7.8,16.57-12.21C-2591.91,4201.35-2598.4,4206.63-2594.11,4203Z" transform="translate(2774.87 -4163.07)"/></g><g class="cls-12"><path class="cls-2" d="M-2712.89,4171c8,1.85,16,3.93,24.12,5.37,4,0.71,12.1-.15,15.32,1.68,2.3,1.31,4.64,5.76,6.28,7.78l33.12,41.08,58.58,72.64a80.75,80.75,0,0,0-29.82-6.92c-8.63-.35-18.54,3.78-26.69,2.76-4.85-.61-4.61-1.34-8.19-5.77l-35.14-43.57-64.45-79.92a209.28,209.28,0,0,1,26.87,4.87C-2694.54,4175.28-2724.26,4168.26-2712.89,4171Z" transform="translate(2774.87 -4163.07)"/><path class="cls-2" d="M-2628.13,4169.56c7.49-2.33,16.22-6.68,22.36-2.25,4.35,3.14,8.12,10.06,11.46,14.22l34.25,42.47c4.59,5.69,17.14,16.12,18.85,23.38,1.07,4.52-3.52,14.33-4.6,18.72l-4.6,18.72-90.28-111.95c4.2-1.05,8.38-2.16,12.55-3.3C-2621.07,4167.37-2632.73,4170.82-2628.13,4169.56Z" transform="translate(2774.87 -4163.07)"/><path class="cls-2" d="M-2762.93,4220.94l62,76.86c-12.92-.94-28.12-0.62-37.39-9.94-7.53-7.57-13.78-17.09-20.48-25.41-3.27-4.05-9.62-9.38-10.28-14.32C-2770.13,4240.45-2764.68,4228.64-2762.93,4220.94Z" transform="translate(2774.87 -4163.07)"/></g><path class="cls-13" d="M-2528.21,4175.69c-1.46,3.74,9.94,5.44,11.89,2.47,1.6-2.45-10.27-6.66-11.89-2.47C-2528.76,4177.09-2527.67,4174.29-2528.21,4175.69Z" transform="translate(2774.87 -4163.07)"/><path class="cls-14" d="M-2526.05,4175.67c-1,2.7,8.32,4.54,8.85,1.84,0.58-3-7.88-4.38-8.85-1.84C-2526.46,4176.72-2525.66,4174.63-2526.05,4175.67Z" transform="translate(2774.87 -4163.07)"/></g></g></svg>