<svg xmlns="http://www.w3.org/2000/svg" xmlns:xlink="http://www.w3.org/1999/xlink" viewBox="0 0 169.85 216.78"><defs><style>.cls-1{isolation:isolate;}.cls-2{fill:url(#linear-gradient);}.cls-3{fill:#76695b;}.cls-4{fill:url(#linear-gradient-2);}.cls-5{fill:url(#linear-gradient-3);}.cls-6{fill:url(#linear-gradient-4);}.cls-7{fill:url(#linear-gradient-5);}.cls-8{fill:url(#linear-gradient-6);}.cls-9{fill:url(#linear-gradient-7);}.cls-10{fill:url(#linear-gradient-8);}.cls-11{fill:url(#linear-gradient-9);}.cls-12{fill:url(#linear-gradient-10);}.cls-13{fill:url(#linear-gradient-11);}.cls-14{fill:url(#linear-gradient-12);}.cls-15{fill:url(#linear-gradient-13);}.cls-16{fill:url(#linear-gradient-14);}.cls-17{fill:url(#linear-gradient-15);}.cls-18{fill:url(#linear-gradient-16);}.cls-19{fill:url(#linear-gradient-17);}.cls-20{fill:url(#linear-gradient-18);}.cls-21,.cls-22,.cls-23,.cls-24,.cls-43,.cls-44{opacity:0.8;}.cls-100,.cls-102,.cls-104,.cls-106,.cls-108,.cls-114,.cls-123,.cls-125,.cls-130,.cls-132,.cls-134,.cls-136,.cls-138,.cls-140,.cls-142,.cls-144,.cls-146,.cls-148,.cls-150,.cls-152,.cls-154,.cls-156,.cls-158,.cls-160,.cls-162,.cls-164,.cls-21,.cls-22,.cls-23,.cls-24,.cls-43,.cls-44,.cls-45,.cls-46,.cls-49,.cls-51,.cls-53,.cls-55,.cls-57,.cls-59,.cls-62,.cls-64,.cls-66,.cls-68,.cls-70,.cls-72,.cls-74,.cls-76,.cls-78,.cls-80,.cls-82,.cls-84,.cls-90,.cls-92,.cls-93,.cls-95,.cls-96,.cls-98{mix-blend-mode:multiply;}.cls-21{fill:url(#linear-gradient-19);}.cls-22{fill:url(#linear-gradient-20);}.cls-23{fill:url(#linear-gradient-21);}.cls-24{fill:url(#linear-gradient-22);}.cls-25{fill:url(#linear-gradient-23);}.cls-26{fill:url(#linear-gradient-24);}.cls-27{fill:url(#linear-gradient-25);}.cls-28{fill:url(#linear-gradient-26);}.cls-29{fill:url(#linear-gradient-27);}.cls-30{fill:url(#linear-gradient-28);}.cls-31{fill:url(#linear-gradient-29);}.cls-32{fill:url(#linear-gradient-30);}.cls-33{fill:url(#linear-gradient-31);}.cls-34{fill:url(#linear-gradient-32);}.cls-35{fill:url(#linear-gradient-33);}.cls-36{fill:url(#linear-gradient-34);}.cls-37{fill:url(#linear-gradient-35);}.cls-38{fill:url(#linear-gradient-36);}.cls-39{fill:url(#linear-gradient-37);}.cls-40{fill:url(#linear-gradient-38);}.cls-41{fill:url(#linear-gradient-39);}.cls-42{fill:url(#linear-gradient-40);}.cls-43{fill:url(#linear-gradient-41);}.cls-44{fill:url(#linear-gradient-42);}.cls-119,.cls-130,.cls-132,.cls-140,.cls-142,.cls-144,.cls-148,.cls-150,.cls-45,.cls-46,.cls-60,.cls-84,.cls-90{opacity:0.5;}.cls-45{fill:url(#linear-gradient-43);}.cls-46{fill:url(#linear-gradient-44);}.cls-47{fill:url(#linear-gradient-45);}.cls-48{mask:url(#mask);}.cls-49{fill:url(#linear-gradient-46);}.cls-50{mask:url(#mask-2);}.cls-51{fill:url(#linear-gradient-47);}.cls-52{mask:url(#mask-3);}.cls-53{fill:url(#linear-gradient-48);}.cls-54{mask:url(#mask-4);}.cls-55{fill:url(#linear-gradient-49);}.cls-56{mask:url(#mask-5);}.cls-57{fill:url(#linear-gradient-50);}.cls-58{mask:url(#mask-6);}.cls-59{fill:url(#linear-gradient-51);}.cls-61{mask:url(#mask-7);}.cls-62{fill:url(#linear-gradient-52);}.cls-63{mask:url(#mask-8);}.cls-64{fill:url(#linear-gradient-53);}.cls-65{mask:url(#mask-9);}.cls-66{fill:url(#linear-gradient-54);}.cls-67{mask:url(#mask-10);}.cls-68{fill:url(#linear-gradient-55);}.cls-69{mask:url(#mask-11);}.cls-70{fill:url(#linear-gradient-56);}.cls-71{mask:url(#mask-12);}.cls-72{fill:url(#linear-gradient-57);}.cls-73{mask:url(#mask-13);}.cls-74{fill:url(#linear-gradient-58);}.cls-75{mask:url(#mask-14);}.cls-76{fill:url(#linear-gradient-59);}.cls-77{mask:url(#mask-15);}.cls-78{fill:url(#linear-gradient-60);}.cls-79{mask:url(#mask-16);}.cls-80{fill:url(#linear-gradient-61);}.cls-81{mask:url(#mask-17);}.cls-82{fill:url(#linear-gradient-62);}.cls-83{fill:#0489d6;}.cls-84{fill:url(#radial-gradient);}.cls-128,.cls-85{opacity:0.4;}.cls-119,.cls-86{fill:#47c5f3;}.cls-87{fill:#f3931f;}.cls-88{fill:url(#linear-gradient-63);}.cls-89,.cls-93{fill:#fabd14;}.cls-90{fill:#fbc411;}.cls-91{fill:url(#New_Gradient_Swatch_2);}.cls-129,.cls-92{opacity:0.3;}.cls-92{fill:url(#radial-gradient-2);}.cls-94,.cls-95{fill:#e0aa0f;}.cls-96{fill:#f59f1e;}.cls-120,.cls-123,.cls-125,.cls-96{opacity:0.2;}.cls-97{mask:url(#mask-18);}.cls-98{fill:url(#linear-gradient-64);}.cls-99{mask:url(#mask-19);}.cls-100{fill:url(#linear-gradient-65);}.cls-101{mask:url(#mask-20);}.cls-102{fill:url(#linear-gradient-66);}.cls-103{mask:url(#mask-21);}.cls-104{fill:url(#linear-gradient-67);}.cls-105{mask:url(#mask-22);}.cls-106{fill:url(#linear-gradient-68);}.cls-107{mask:url(#mask-23);}.cls-108{fill:url(#linear-gradient-69);}.cls-109{mask:url(#mask-24);}.cls-110{fill:url(#linear-gradient-70);}.cls-111{fill:#231f20;}.cls-112{fill:url(#radial-gradient-3);}.cls-113{fill:#381e14;}.cls-115{fill:#ddd;}.cls-116{fill:url(#radial-gradient-4);}.cls-117{fill:url(#radial-gradient-5);}.cls-118,.cls-120,.cls-128,.cls-169{fill:#fff;}.cls-121{fill:url(#radial-gradient-6);}.cls-122{fill:#700;}.cls-123{fill:#7b0f11;}.cls-124{fill:#68090a;}.cls-125{fill:#8d210a;}.cls-126{fill:#f3f2e6;opacity:0.1;}.cls-126,.cls-169{mix-blend-mode:screen;}.cls-127{fill:url(#radial-gradient-7);}.cls-130{fill:url(#radial-gradient-8);}.cls-131{mask:url(#mask-25);}.cls-132{fill:url(#linear-gradient-71);}.cls-133{mask:url(#mask-26);}.cls-134{fill:url(#linear-gradient-72);}.cls-135{mask:url(#mask-27);}.cls-136{fill:url(#linear-gradient-73);}.cls-137{mask:url(#mask-28);}.cls-138{fill:url(#linear-gradient-74);}.cls-139{mask:url(#mask-29);}.cls-140{fill:url(#linear-gradient-75);}.cls-141{mask:url(#mask-30);}.cls-142{fill:url(#linear-gradient-76);}.cls-143{mask:url(#mask-31);}.cls-144{fill:url(#linear-gradient-77);}.cls-145{mask:url(#mask-32);}.cls-146{fill:url(#linear-gradient-78);}.cls-147{mask:url(#mask-33);}.cls-148{fill:url(#linear-gradient-79);}.cls-149{mask:url(#mask-34);}.cls-150{fill:url(#linear-gradient-80);}.cls-151{mask:url(#mask-35);}.cls-152{fill:url(#linear-gradient-81);}.cls-153{mask:url(#mask-36);}.cls-154{fill:url(#linear-gradient-82);}.cls-155{mask:url(#mask-37);}.cls-156{fill:url(#linear-gradient-83);}.cls-157{mask:url(#mask-38);}.cls-158{fill:url(#linear-gradient-84);}.cls-159{mask:url(#mask-39);}.cls-160{fill:url(#linear-gradient-85);}.cls-161{mask:url(#mask-40);}.cls-162{fill:url(#linear-gradient-86);}.cls-163,.cls-164{fill:#f1cb0c;}.cls-165{fill:#272929;}.cls-166{fill:#e4e5e6;}.cls-167{fill:#3f4141;}.cls-168{fill:none;}.cls-169{opacity:0.36;}.cls-170{filter:url(#luminosity-noclip-40);}.cls-171{filter:url(#luminosity-noclip-39);}.cls-172{filter:url(#luminosity-noclip-38);}.cls-173{filter:url(#luminosity-noclip-37);}.cls-174{filter:url(#luminosity-noclip-36);}.cls-175{filter:url(#luminosity-noclip-35);}.cls-176{filter:url(#luminosity-noclip-34);}.cls-177{filter:url(#luminosity-noclip-33);}.cls-178{filter:url(#luminosity-noclip-32);}.cls-179{filter:url(#luminosity-noclip-31);}.cls-180{filter:url(#luminosity-noclip-30);}.cls-181{filter:url(#luminosity-noclip-29);}.cls-182{filter:url(#luminosity-noclip-28);}.cls-183{filter:url(#luminosity-noclip-27);}.cls-184{filter:url(#luminosity-noclip-26);}.cls-185{filter:url(#luminosity-noclip-25);}.cls-186{filter:url(#luminosity-noclip-24);}.cls-187{filter:url(#luminosity-noclip-23);}.cls-188{filter:url(#luminosity-noclip-22);}.cls-189{filter:url(#luminosity-noclip-21);}.cls-190{filter:url(#luminosity-noclip-20);}.cls-191{filter:url(#luminosity-noclip-19);}.cls-192{filter:url(#luminosity-noclip-18);}.cls-193{filter:url(#luminosity-noclip-17);}.cls-194{filter:url(#luminosity-noclip-16);}.cls-195{filter:url(#luminosity-noclip-15);}.cls-196{filter:url(#luminosity-noclip-14);}.cls-197{filter:url(#luminosity-noclip-13);}.cls-198{filter:url(#luminosity-noclip-12);}.cls-199{filter:url(#luminosity-noclip-11);}.cls-200{filter:url(#luminosity-noclip-10);}.cls-201{filter:url(#luminosity-noclip-9);}.cls-202{filter:url(#luminosity-noclip-8);}.cls-203{filter:url(#luminosity-noclip-7);}.cls-204{filter:url(#luminosity-noclip-6);}.cls-205{filter:url(#luminosity-noclip-5);}.cls-206{filter:url(#luminosity-noclip-4);}.cls-207{filter:url(#luminosity-noclip-3);}.cls-208{filter:url(#luminosity-noclip-2);}.cls-209{filter:url(#luminosity-noclip);}</style><linearGradient id="linear-gradient" x1="-2576.18" y1="3845.07" x2="-2569.92" y2="3845.07" gradientUnits="userSpaceOnUse"><stop offset="0.2" stop-color="#e3cda8"/><stop offset="0.64" stop-color="#b6a38a"/><stop offset="1" stop-color="#968574"/></linearGradient><linearGradient id="linear-gradient-2" x1="-2575.99" y1="3840.17" x2="-2569.46" y2="3840.17" xlink:href="#linear-gradient"/><linearGradient id="linear-gradient-3" x1="-2575.6" y1="3850.34" x2="-2569.16" y2="3850.34" xlink:href="#linear-gradient"/><linearGradient id="linear-gradient-4" x1="-2568.01" y1="3857.55" x2="-2562.54" y2="3857.55" xlink:href="#linear-gradient"/><linearGradient id="linear-gradient-5" x1="-2557.85" y1="3859.98" x2="-2551.96" y2="3859.98" xlink:href="#linear-gradient"/><linearGradient id="linear-gradient-6" x1="-2576.56" y1="3856.27" x2="-2567.08" y2="3856.27" xlink:href="#linear-gradient"/><linearGradient id="linear-gradient-7" x1="-2563.47" y1="3858.37" x2="-2556.99" y2="3858.37" xlink:href="#linear-gradient"/><linearGradient id="linear-gradient-8" x1="-2585.08" y1="3857.52" x2="-2574.91" y2="3857.52" xlink:href="#linear-gradient"/><linearGradient id="linear-gradient-9" x1="-2602.27" y1="3862.34" x2="-2595.97" y2="3862.34" xlink:href="#linear-gradient"/><linearGradient id="linear-gradient-10" x1="-2598.53" y1="3860.51" x2="-2590.52" y2="3860.51" xlink:href="#linear-gradient"/><linearGradient id="linear-gradient-11" x1="-2593.58" y1="3858.27" x2="-2582.38" y2="3858.27" xlink:href="#linear-gradient"/><linearGradient id="linear-gradient-12" x1="-2605.27" y1="3859.74" x2="-2598.24" y2="3859.74" xlink:href="#linear-gradient"/><linearGradient id="linear-gradient-13" x1="-2600.16" y1="3855.76" x2="-2591.81" y2="3855.76" xlink:href="#linear-gradient"/><linearGradient id="linear-gradient-14" x1="-2603.87" y1="3854.4" x2="-2596.81" y2="3854.4" xlink:href="#linear-gradient"/><linearGradient id="linear-gradient-15" x1="-2605.38" y1="3859.3" x2="-2601.24" y2="3859.3" xlink:href="#linear-gradient"/><linearGradient id="linear-gradient-16" x1="-2598.98" y1="3852.53" x2="-2592.92" y2="3852.53" xlink:href="#linear-gradient"/><linearGradient id="linear-gradient-17" x1="-2595.11" y1="3853.08" x2="-2586.07" y2="3853.08" xlink:href="#linear-gradient"/><linearGradient id="linear-gradient-18" x1="-2587.46" y1="3853.41" x2="-2579.16" y2="3853.41" xlink:href="#linear-gradient"/><linearGradient id="linear-gradient-19" x1="-2605.31" y1="3858.37" x2="-2579.16" y2="3858.37" xlink:href="#linear-gradient"/><linearGradient id="linear-gradient-20" x1="-2604.82" y1="3856.89" x2="-2592.98" y2="3856.89" xlink:href="#linear-gradient"/><linearGradient id="linear-gradient-21" x1="-2602.85" y1="3851.16" x2="-2552" y2="3851.16" xlink:href="#linear-gradient"/><linearGradient id="linear-gradient-22" x1="-2605.56" y1="3851.39" x2="-2551.97" y2="3851.39" gradientUnits="userSpaceOnUse"><stop offset="0" stop-color="#868c4a"/><stop offset="0.15" stop-color="#70733f"/><stop offset="0.39" stop-color="#535231"/><stop offset="0.61" stop-color="#3f3b27"/><stop offset="0.82" stop-color="#322d21"/><stop offset="1" stop-color="#2e281f"/></linearGradient><linearGradient id="linear-gradient-23" x1="-2567.03" y1="3847.09" x2="-2560.76" y2="3847.09" xlink:href="#linear-gradient"/><linearGradient id="linear-gradient-24" x1="-2567.1" y1="3842.18" x2="-2560.94" y2="3842.18" xlink:href="#linear-gradient"/><linearGradient id="linear-gradient-25" x1="-2565.81" y1="3852.44" x2="-2559.38" y2="3852.44" xlink:href="#linear-gradient"/><linearGradient id="linear-gradient-26" x1="-2558.03" y1="3859.26" x2="-2553.13" y2="3859.26" xlink:href="#linear-gradient"/><linearGradient id="linear-gradient-27" x1="-2548.64" y1="3862" x2="-2543.44" y2="3862" xlink:href="#linear-gradient"/><linearGradient id="linear-gradient-28" x1="-2566.47" y1="3858.23" x2="-2557.33" y2="3858.23" xlink:href="#linear-gradient"/><linearGradient id="linear-gradient-29" x1="-2553.81" y1="3860.39" x2="-2548.01" y2="3860.39" xlink:href="#linear-gradient"/><linearGradient id="linear-gradient-30" x1="-2573.8" y1="3859.56" x2="-2563.94" y2="3859.56" xlink:href="#linear-gradient"/><linearGradient id="linear-gradient-31" x1="-2587.53" y1="3864.39" x2="-2582.06" y2="3864.39" xlink:href="#linear-gradient"/><linearGradient id="linear-gradient-32" x1="-2585.14" y1="3862.54" x2="-2577.85" y2="3862.54" xlink:href="#linear-gradient"/><linearGradient id="linear-gradient-33" x1="-2581.31" y1="3860.3" x2="-2570.54" y2="3860.3" xlink:href="#linear-gradient"/><linearGradient id="linear-gradient-34" x1="-2590.5" y1="3861.81" x2="-2584.87" y2="3861.81" xlink:href="#linear-gradient"/><linearGradient id="linear-gradient-35" x1="-2587.34" y1="3857.79" x2="-2579.86" y2="3857.79" xlink:href="#linear-gradient"/><linearGradient id="linear-gradient-36" x1="-2590.61" y1="3856.43" x2="-2584.8" y2="3856.43" xlink:href="#linear-gradient"/><linearGradient id="linear-gradient-37" x1="-2591.2" y1="3861.33" x2="-2588.07" y2="3861.33" xlink:href="#linear-gradient"/><linearGradient id="linear-gradient-38" x1="-2587" y1="3854.55" x2="-2581.52" y2="3854.55" xlink:href="#linear-gradient"/><linearGradient id="linear-gradient-39" x1="-2583.39" y1="3855.1" x2="-2574.72" y2="3855.1" xlink:href="#linear-gradient"/><linearGradient id="linear-gradient-40" x1="-2576.39" y1="3855.43" x2="-2568.35" y2="3855.43" xlink:href="#linear-gradient"/><linearGradient id="linear-gradient-41" x1="-2590.38" y1="3860.68" x2="-2568.35" y2="3860.68" xlink:href="#linear-gradient"/><linearGradient id="linear-gradient-42" x1="-2590.44" y1="3858.92" x2="-2581.59" y2="3858.92" xlink:href="#linear-gradient"/><linearGradient id="linear-gradient-43" x1="-2588.22" y1="3853.22" x2="-2543.49" y2="3853.22" xlink:href="#linear-gradient"/><linearGradient id="linear-gradient-44" x1="-2591.82" y1="3853.2" x2="-2543.28" y2="3853.2" gradientUnits="userSpaceOnUse"><stop offset="0.2" stop-color="#868c4a"/><stop offset="0.72" stop-color="#4a482d"/><stop offset="1" stop-color="#2e281f"/></linearGradient><linearGradient id="linear-gradient-45" x1="-2567.05" y1="3821.84" x2="-2506.76" y2="3845.9" gradientUnits="userSpaceOnUse"><stop offset="0" stop-color="#2c2c87"/><stop offset="0.36" stop-color="#1a5fb0"/><stop offset="0.79" stop-color="#0796dc"/><stop offset="1" stop-color="#00abed"/></linearGradient><filter id="luminosity-noclip" x="-2555.62" y="3830.29" width="12.1" height="12.62" filterUnits="userSpaceOnUse" color-interpolation-filters="sRGB"><feFlood flood-color="#fff" result="bg"/><feBlend in="SourceGraphic" in2="bg"/></filter><mask id="mask" x="102.73" y="179.03" width="12.1" height="12.62" maskUnits="userSpaceOnUse"><g class="cls-209"/></mask><linearGradient id="linear-gradient-46" x1="-2585.18" y1="4331.65" x2="-2572.23" y2="4331.65" gradientTransform="matrix(0.95, 0.02, -0.02, 0.92, -21.56, -89.12)" gradientUnits="userSpaceOnUse"><stop offset="0" stop-color="#f9f9fc"/><stop offset="0.25" stop-color="#a9d4f0"/><stop offset="0.54" stop-color="#51ace2"/><stop offset="0.75" stop-color="#1993d9"/><stop offset="0.85" stop-color="#0489d6"/></linearGradient><filter id="luminosity-noclip-2" x="-2541.25" y="3831.34" width="12.39" height="7.99" filterUnits="userSpaceOnUse" color-interpolation-filters="sRGB"><feFlood flood-color="#fff" result="bg"/><feBlend in="SourceGraphic" in2="bg"/></filter><mask id="mask-2" x="117.11" y="180.07" width="12.39" height="7.99" maskUnits="userSpaceOnUse"><g class="cls-208"/></mask><linearGradient id="linear-gradient-47" x1="-3073.31" y1="3460.1" x2="-3062.28" y2="3460.1" gradientTransform="translate(-126.09 -111.95) rotate(-10.17)" xlink:href="#linear-gradient-46"/><filter id="luminosity-noclip-3" x="-2539.54" y="3828.28" width="13.66" height="7.45" filterUnits="userSpaceOnUse" color-interpolation-filters="sRGB"><feFlood flood-color="#fff" result="bg"/><feBlend in="SourceGraphic" in2="bg"/></filter><mask id="mask-3" x="118.82" y="177.01" width="13.66" height="7.45" maskUnits="userSpaceOnUse"><g class="cls-207"/></mask><linearGradient id="linear-gradient-48" x1="-2835.79" y1="3456.86" x2="-2824.26" y2="3456.86" gradientTransform="matrix(1.06, -0.19, 0.18, 0.98, -139.86, -108.92)" xlink:href="#linear-gradient-46"/><filter id="luminosity-noclip-4" x="-2546.96" y="3824.75" width="13.09" height="6.93" filterUnits="userSpaceOnUse" color-interpolation-filters="sRGB"><feFlood flood-color="#fff" result="bg"/><feBlend in="SourceGraphic" in2="bg"/></filter><mask id="mask-4" x="111.39" y="173.49" width="13.09" height="6.93" maskUnits="userSpaceOnUse"><g class="cls-206"/></mask><linearGradient id="linear-gradient-49" x1="-3077.74" y1="3452.14" x2="-3065.84" y2="3452.14" gradientTransform="translate(-126.09 -111.95) rotate(-10.17)" xlink:href="#linear-gradient-46"/><filter id="luminosity-noclip-5" x="-2549.2" y="3829.8" width="12.06" height="8.53" filterUnits="userSpaceOnUse" color-interpolation-filters="sRGB"><feFlood flood-color="#fff" result="bg"/><feBlend in="SourceGraphic" in2="bg"/></filter><mask id="mask-5" x="109.16" y="178.53" width="12.06" height="8.53" maskUnits="userSpaceOnUse"><g class="cls-205"/></mask><linearGradient id="linear-gradient-50" x1="-3080.89" y1="3457.42" x2="-3070.25" y2="3457.42" gradientTransform="translate(-126.09 -111.95) rotate(-10.17)" xlink:href="#linear-gradient-46"/><filter id="luminosity-noclip-6" x="-2547.84" y="3834.54" width="11.73" height="8.95" filterUnits="userSpaceOnUse" color-interpolation-filters="sRGB"><feFlood flood-color="#fff" result="bg"/><feBlend in="SourceGraphic" in2="bg"/></filter><mask id="mask-6" x="110.52" y="183.27" width="11.73" height="8.95" maskUnits="userSpaceOnUse"><g class="cls-204"/></mask><linearGradient id="linear-gradient-51" x1="-3080.38" y1="3462.5" x2="-3070.16" y2="3462.5" gradientTransform="translate(-126.09 -111.95) rotate(-10.17)" xlink:href="#linear-gradient-46"/><filter id="luminosity-noclip-7" x="-2547.41" y="3838.09" width="18.1" height="12.42" filterUnits="userSpaceOnUse" color-interpolation-filters="sRGB"><feFlood flood-color="#fff" result="bg"/><feBlend in="SourceGraphic" in2="bg"/></filter><mask id="mask-7" x="110.95" y="186.82" width="18.1" height="12.42" maskUnits="userSpaceOnUse"><g class="cls-203"/></mask><linearGradient id="linear-gradient-52" x1="-3309.53" y1="3557.3" x2="-3293.52" y2="3557.3" gradientTransform="matrix(0.93, -0.21, 0.2, 0.9, -183.65, -22.28)" xlink:href="#linear-gradient-46"/><filter id="luminosity-noclip-8" x="-2540.13" y="3833.24" width="17.11" height="7.03" filterUnits="userSpaceOnUse" color-interpolation-filters="sRGB"><feFlood flood-color="#fff" result="bg"/><feBlend in="SourceGraphic" in2="bg"/></filter><mask id="mask-8" x="118.23" y="181.97" width="17.11" height="7.03" maskUnits="userSpaceOnUse"><g class="cls-202"/></mask><linearGradient id="linear-gradient-53" x1="-3613.52" y1="2623.58" x2="-3599.7" y2="2623.58" gradientTransform="translate(-290.89 -19.73) rotate(-23.81)" xlink:href="#linear-gradient-46"/><filter id="luminosity-noclip-9" x="-2535.73" y="3831.01" width="17.38" height="6.55" filterUnits="userSpaceOnUse" color-interpolation-filters="sRGB"><feFlood flood-color="#fff" result="bg"/><feBlend in="SourceGraphic" in2="bg"/></filter><mask id="mask-9" x="122.63" y="179.74" width="17.38" height="6.55" maskUnits="userSpaceOnUse"><g class="cls-201"/></mask><linearGradient id="linear-gradient-54" x1="-3608.66" y1="2623.1" x2="-3594.26" y2="2623.1" gradientTransform="translate(-290.89 -19.73) rotate(-23.81)" xlink:href="#linear-gradient-46"/><filter id="luminosity-noclip-10" x="-2538.53" y="3828.61" width="17.61" height="5.79" filterUnits="userSpaceOnUse" color-interpolation-filters="sRGB"><feFlood flood-color="#fff" result="bg"/><feBlend in="SourceGraphic" in2="bg"/></filter><mask id="mask-10" x="119.82" y="177.34" width="17.61" height="5.79" maskUnits="userSpaceOnUse"><g class="cls-200"/></mask><linearGradient id="linear-gradient-55" x1="-3610.26" y1="2619.44" x2="-3595.34" y2="2619.44" gradientTransform="translate(-290.89 -19.73) rotate(-23.81)" xlink:href="#linear-gradient-46"/><filter id="luminosity-noclip-11" x="-2539.77" y="3835.55" width="16.88" height="7.71" filterUnits="userSpaceOnUse" color-interpolation-filters="sRGB"><feFlood flood-color="#fff" result="bg"/><feBlend in="SourceGraphic" in2="bg"/></filter><mask id="mask-11" x="118.59" y="184.28" width="16.88" height="7.71" maskUnits="userSpaceOnUse"><g class="cls-199"/></mask><linearGradient id="linear-gradient-56" x1="-3614.12" y1="2626.14" x2="-3600.79" y2="2626.14" gradientTransform="translate(-290.89 -19.73) rotate(-23.81)" xlink:href="#linear-gradient-46"/><filter id="luminosity-noclip-12" x="-2543.15" y="3837.08" width="16.66" height="8.2" filterUnits="userSpaceOnUse" color-interpolation-filters="sRGB"><feFlood flood-color="#fff" result="bg"/><feBlend in="SourceGraphic" in2="bg"/></filter><mask id="mask-12" x="115.21" y="185.82" width="16.66" height="8.2" maskUnits="userSpaceOnUse"><g class="cls-198"/></mask><linearGradient id="linear-gradient-57" x1="-3617.79" y1="2626.39" x2="-3604.95" y2="2626.39" gradientTransform="translate(-290.89 -19.73) rotate(-23.81)" xlink:href="#linear-gradient-46"/><filter id="luminosity-noclip-13" x="-2532.94" y="3847.66" width="22.78" height="10.69" filterUnits="userSpaceOnUse" color-interpolation-filters="sRGB"><feFlood flood-color="#fff" result="bg"/><feBlend in="SourceGraphic" in2="bg"/></filter><mask id="mask-13" x="125.42" y="196.39" width="22.78" height="10.69" maskUnits="userSpaceOnUse"><g class="cls-197"/></mask><linearGradient id="linear-gradient-58" x1="-3718.66" y1="2875.17" x2="-3700.75" y2="2875.17" gradientTransform="matrix(0.88, -0.37, 0.36, 0.85, -294.19, 56.31)" xlink:href="#linear-gradient-46"/><filter id="luminosity-noclip-14" x="-2516.95" y="3839.42" width="19.61" height="8.45" filterUnits="userSpaceOnUse" color-interpolation-filters="sRGB"><feFlood flood-color="#fff" result="bg"/><feBlend in="SourceGraphic" in2="bg"/></filter><mask id="mask-14" x="141.4" y="188.15" width="19.61" height="8.45" maskUnits="userSpaceOnUse"><g class="cls-196"/></mask><linearGradient id="linear-gradient-59" x1="-3553.34" y1="2726.52" x2="-3537.43" y2="2726.52" gradientTransform="translate(-275.8 -32.87) rotate(-22.51)" xlink:href="#linear-gradient-46"/><filter id="luminosity-noclip-15" x="-2515.37" y="3832.04" width="20.44" height="5.48" filterUnits="userSpaceOnUse" color-interpolation-filters="sRGB"><feFlood flood-color="#fff" result="bg"/><feBlend in="SourceGraphic" in2="bg"/></filter><mask id="mask-15" x="142.99" y="180.78" width="20.44" height="5.48" maskUnits="userSpaceOnUse"><g class="cls-195"/></mask><linearGradient id="linear-gradient-60" x1="-3976.87" y1="1351.46" x2="-3959.74" y2="1351.46" gradientTransform="translate(-466.69 171.05) rotate(-42.1)" xlink:href="#linear-gradient-46"/><filter id="luminosity-noclip-16" x="-2510.72" y="3844.78" width="20.3" height="6.41" filterUnits="userSpaceOnUse" color-interpolation-filters="sRGB"><feFlood flood-color="#fff" result="bg"/><feBlend in="SourceGraphic" in2="bg"/></filter><mask id="mask-16" x="147.64" y="193.51" width="20.3" height="6.41" maskUnits="userSpaceOnUse"><g class="cls-194"/></mask><linearGradient id="linear-gradient-61" x1="-3860.12" y1="1944.48" x2="-3844.78" y2="1944.48" gradientTransform="matrix(0.83, -0.56, 0.56, 0.83, -398.9, 78.42)" xlink:href="#linear-gradient-46"/><filter id="luminosity-noclip-17" x="-2515.62" y="3851.33" width="20.2" height="6.84" filterUnits="userSpaceOnUse" color-interpolation-filters="sRGB"><feFlood flood-color="#fff" result="bg"/><feBlend in="SourceGraphic" in2="bg"/></filter><mask id="mask-17" x="142.74" y="200.06" width="20.2" height="6.84" maskUnits="userSpaceOnUse"><g class="cls-193"/></mask><linearGradient id="linear-gradient-62" x1="-3867.74" y1="1947.35" x2="-3852.98" y2="1947.35" gradientTransform="matrix(0.83, -0.56, 0.56, 0.83, -398.9, 78.42)" xlink:href="#linear-gradient-46"/><radialGradient id="radial-gradient" cx="-2515.22" cy="3842.98" r="23.87" gradientTransform="translate(-1.28)" gradientUnits="userSpaceOnUse"><stop offset="0" stop-color="#a7ddf9"/><stop offset="0.16" stop-color="#92d7f7"/><stop offset="0.5" stop-color="#5ac6f3"/><stop offset="0.99" stop-color="#02aced"/><stop offset="1" stop-color="#00abed"/></radialGradient><linearGradient id="linear-gradient-63" x1="-2613.53" y1="3814.14" x2="-2567.66" y2="3792.14" gradientUnits="userSpaceOnUse"><stop offset="0" stop-color="#fff200"/><stop offset="0.19" stop-color="#fedd02"/><stop offset="0.38" stop-color="#fcc304"/><stop offset="0.39" stop-color="#fbc204"/><stop offset="0.65" stop-color="#d79b0c"/><stop offset="0.87" stop-color="#c08410"/><stop offset="1" stop-color="#b87b12"/></linearGradient><radialGradient id="New_Gradient_Swatch_2" cx="-2601.83" cy="3706.08" r="58.64" gradientTransform="translate(-1.28)" gradientUnits="userSpaceOnUse"><stop offset="0" stop-color="#fff200"/><stop offset="0.28" stop-color="#fac70c"/><stop offset="0.6" stop-color="#f49c18"/><stop offset="0.85" stop-color="#f1821f"/><stop offset="1" stop-color="#f07822"/></radialGradient><radialGradient id="radial-gradient-2" cx="-2601.83" cy="3706.21" r="58.64" gradientTransform="translate(-1.28)" gradientUnits="userSpaceOnUse"><stop offset="0" stop-color="#fff200"/><stop offset="0.5" stop-color="#fedd02"/><stop offset="1" stop-color="#fcc304"/></radialGradient><filter id="luminosity-noclip-18" x="-2592.91" y="3747.08" width="9.4" height="28.23" filterUnits="userSpaceOnUse" color-interpolation-filters="sRGB"><feFlood flood-color="#fff" result="bg"/><feBlend in="SourceGraphic" in2="bg"/></filter><mask id="mask-18" x="65.45" y="95.81" width="9.4" height="28.23" maskUnits="userSpaceOnUse"><g class="cls-192"/></mask><linearGradient id="linear-gradient-64" x1="4344.6" y1="708.25" x2="4365.76" y2="708.25" gradientTransform="matrix(-0.63, 0.71, 0.68, 0.61, -309.86, 248.49)" gradientUnits="userSpaceOnUse"><stop offset="0" stop-color="#f9f9fc"/><stop offset="0.21" stop-color="#fae3be"/><stop offset="0.52" stop-color="#fac566"/><stop offset="0.74" stop-color="#fbb12e"/><stop offset="0.85" stop-color="#fbaa19"/></linearGradient><filter id="luminosity-noclip-19" x="-2610.66" y="3751.08" width="8.23" height="23.68" filterUnits="userSpaceOnUse" color-interpolation-filters="sRGB"><feFlood flood-color="#fff" result="bg"/><feBlend in="SourceGraphic" in2="bg"/></filter><mask id="mask-19" x="47.7" y="99.82" width="8.23" height="23.68" maskUnits="userSpaceOnUse"><g class="cls-191"/></mask><linearGradient id="linear-gradient-65" x1="4032.86" y1="1480.13" x2="4049.55" y2="1480.13" gradientTransform="matrix(-0.8, 0.6, 0.6, 0.8, -256.05, 157.57)" xlink:href="#linear-gradient-64"/><filter id="luminosity-noclip-20" x="-2617.41" y="3754.48" width="8.22" height="23.67" filterUnits="userSpaceOnUse" color-interpolation-filters="sRGB"><feFlood flood-color="#fff" result="bg"/><feBlend in="SourceGraphic" in2="bg"/></filter><mask id="mask-20" x="40.95" y="103.22" width="8.22" height="23.67" maskUnits="userSpaceOnUse"><g class="cls-190"/></mask><linearGradient id="linear-gradient-66" x1="4040.3" y1="1478.81" x2="4056.99" y2="1478.81" gradientTransform="matrix(-0.8, 0.6, 0.6, 0.8, -256.05, 157.57)" xlink:href="#linear-gradient-64"/><filter id="luminosity-noclip-21" x="-2620.62" y="3749.16" width="8.23" height="23.67" filterUnits="userSpaceOnUse" color-interpolation-filters="sRGB"><feFlood flood-color="#fff" result="bg"/><feBlend in="SourceGraphic" in2="bg"/></filter><mask id="mask-21" x="37.73" y="97.89" width="8.23" height="23.67" maskUnits="userSpaceOnUse"><g class="cls-189"/></mask><linearGradient id="linear-gradient-67" x1="4039.69" y1="1472.62" x2="4056.38" y2="1472.62" gradientTransform="matrix(-0.8, 0.6, 0.6, 0.8, -256.05, 157.57)" xlink:href="#linear-gradient-64"/><filter id="luminosity-noclip-22" x="-2606.46" y="3753.39" width="8.23" height="23.67" filterUnits="userSpaceOnUse" color-interpolation-filters="sRGB"><feFlood flood-color="#fff" result="bg"/><feBlend in="SourceGraphic" in2="bg"/></filter><mask id="mask-22" x="51.9" y="102.13" width="8.23" height="23.67" maskUnits="userSpaceOnUse"><g class="cls-188"/></mask><linearGradient id="linear-gradient-68" x1="4030.88" y1="1484.5" x2="4047.57" y2="1484.5" gradientTransform="matrix(-0.8, 0.6, 0.6, 0.8, -256.05, 157.57)" xlink:href="#linear-gradient-64"/><filter id="luminosity-noclip-23" x="-2600.81" y="3750.82" width="8.23" height="23.67" filterUnits="userSpaceOnUse" color-interpolation-filters="sRGB"><feFlood flood-color="#fff" result="bg"/><feBlend in="SourceGraphic" in2="bg"/></filter><mask id="mask-23" x="57.55" y="99.55" width="8.23" height="23.67" maskUnits="userSpaceOnUse"><g class="cls-187"/></mask><linearGradient id="linear-gradient-69" x1="4024.81" y1="1485.82" x2="4041.5" y2="1485.82" gradientTransform="matrix(-0.8, 0.6, 0.6, 0.8, -256.05, 157.57)" xlink:href="#linear-gradient-64"/><filter id="luminosity-noclip-24" x="-2622.6" y="3680.21" width="67.67" height="88.52" filterUnits="userSpaceOnUse" color-interpolation-filters="sRGB"><feFlood flood-color="#fff" result="bg"/><feBlend in="SourceGraphic" in2="bg"/></filter><mask id="mask-24" x="35.76" y="28.94" width="67.67" height="88.52" maskUnits="userSpaceOnUse"><g class="cls-186"/></mask><linearGradient id="linear-gradient-70" x1="-2619.95" y1="3695.68" x2="-2563.16" y2="3754.49" gradientUnits="userSpaceOnUse"><stop offset="0.09" stop-color="#00abed"/><stop offset="0.11" stop-color="#00abed"/><stop offset="0.34" stop-color="#00abed"/><stop offset="0.36" stop-color="#00a8ea"/><stop offset="0.52" stop-color="#008ecd"/><stop offset="0.68" stop-color="#007ab9"/><stop offset="0.84" stop-color="#006fac"/><stop offset="1" stop-color="#006ba8"/></linearGradient><radialGradient id="radial-gradient-3" cx="-1708.36" cy="3962.96" r="11.14" gradientTransform="matrix(1.02, 0.31, -0.25, 1.04, 137.43, 116.19)" gradientUnits="userSpaceOnUse"><stop offset="0" stop-color="#fff"/><stop offset="0.51" stop-color="#fdfdfd"/><stop offset="0.71" stop-color="#f6f6f6"/><stop offset="0.85" stop-color="#eaebea"/><stop offset="0.97" stop-color="#d9dad9"/><stop offset="0.99" stop-color="#d4d5d4"/></radialGradient><radialGradient id="radial-gradient-4" cx="-1978.02" cy="4079.9" r="7.02" gradientTransform="matrix(0.98, 0.2, -0.2, 0.98, 146.01, 98.76)" gradientUnits="userSpaceOnUse"><stop offset="0.01" stop-color="#b0b6ba"/><stop offset="0.08" stop-color="#9dafad"/><stop offset="0.21" stop-color="#79a394"/><stop offset="0.34" stop-color="#5f9a82"/><stop offset="0.46" stop-color="#4f9578"/><stop offset="0.56" stop-color="#4a9374"/><stop offset="0.63" stop-color="#438a6d"/><stop offset="0.75" stop-color="#327358"/><stop offset="0.9" stop-color="#154d38"/><stop offset="1" stop-color="#003120"/></radialGradient><radialGradient id="radial-gradient-5" cx="-2909.24" cy="3441.37" r="6.25" gradientTransform="matrix(1, -0.05, 0.05, 1, 152.9, 140.51)" gradientUnits="userSpaceOnUse"><stop offset="0" stop-color="#fff"/><stop offset="0.1" stop-color="#dbdada"/><stop offset="0.28" stop-color="#a3a2a2"/><stop offset="0.45" stop-color="#757373"/><stop offset="0.61" stop-color="#524e4f"/><stop offset="0.76" stop-color="#383435"/><stop offset="0.89" stop-color="#282525"/><stop offset="1" stop-color="#231f20"/></radialGradient><radialGradient id="radial-gradient-6" cx="-2632.74" cy="3710.72" r="38.74" gradientTransform="translate(-1.28)" gradientUnits="userSpaceOnUse"><stop offset="0" stop-color="#ffd183"/><stop offset="0.05" stop-color="#f7b377"/><stop offset="0.15" stop-color="#e87e63"/><stop offset="0.24" stop-color="#dc5552"/><stop offset="0.33" stop-color="#d43747"/><stop offset="0.4" stop-color="#cf2440"/><stop offset="0.45" stop-color="#cd1e3d"/><stop offset="0.48" stop-color="#c61d39"/><stop offset="0.75" stop-color="#90131c"/><stop offset="0.88" stop-color="#7b0f11"/></radialGradient><radialGradient id="radial-gradient-7" cx="-2554.7" cy="3751.69" r="66.65" xlink:href="#radial-gradient"/><radialGradient id="radial-gradient-8" cx="-2553.98" cy="3751.3" r="66.63" xlink:href="#radial-gradient"/><filter id="luminosity-noclip-25" x="-2586.29" y="3786.69" width="31.85" height="33.94" filterUnits="userSpaceOnUse" color-interpolation-filters="sRGB"><feFlood flood-color="#fff" result="bg"/><feBlend in="SourceGraphic" in2="bg"/></filter><mask id="mask-25" x="72.07" y="135.43" width="31.85" height="33.94" maskUnits="userSpaceOnUse"><g class="cls-185"/></mask><linearGradient id="linear-gradient-71" x1="-2586.29" y1="3803.65" x2="-2555.2" y2="3803.65" gradientUnits="userSpaceOnUse"><stop offset="0" stop-color="#fff"/><stop offset="0.26" stop-color="#a9d6f1"/><stop offset="0.55" stop-color="#51ade3"/><stop offset="0.75" stop-color="#1993d9"/><stop offset="0.85" stop-color="#0489d6"/></linearGradient><filter id="luminosity-noclip-26" x="-2549.02" y="3803.69" width="22.55" height="23.78" filterUnits="userSpaceOnUse" color-interpolation-filters="sRGB"><feFlood flood-color="#fff" result="bg"/><feBlend in="SourceGraphic" in2="bg"/></filter><mask id="mask-26" x="109.34" y="152.42" width="22.55" height="23.78" maskUnits="userSpaceOnUse"><g class="cls-184"/></mask><linearGradient id="linear-gradient-72" x1="-2549.02" y1="3816.2" x2="-2527.43" y2="3816.2" gradientUnits="userSpaceOnUse"><stop offset="0" stop-color="#00abea"/><stop offset="0.29" stop-color="#019ee3"/><stop offset="0.85" stop-color="#0489d6"/></linearGradient><filter id="luminosity-noclip-27" x="-2539.38" y="3802" width="22.55" height="23.78" filterUnits="userSpaceOnUse" color-interpolation-filters="sRGB"><feFlood flood-color="#fff" result="bg"/><feBlend in="SourceGraphic" in2="bg"/></filter><mask id="mask-27" x="118.98" y="150.73" width="22.55" height="23.78" maskUnits="userSpaceOnUse"><g class="cls-183"/></mask><linearGradient id="linear-gradient-73" x1="-2539.38" y1="3814.51" x2="-2517.79" y2="3814.51" xlink:href="#linear-gradient-72"/><filter id="luminosity-noclip-28" x="-2540.19" y="3793.99" width="22.55" height="23.79" filterUnits="userSpaceOnUse" color-interpolation-filters="sRGB"><feFlood flood-color="#fff" result="bg"/><feBlend in="SourceGraphic" in2="bg"/></filter><mask id="mask-28" x="118.17" y="142.72" width="22.55" height="23.79" maskUnits="userSpaceOnUse"><g class="cls-182"/></mask><linearGradient id="linear-gradient-74" x1="-2540.19" y1="3806.51" x2="-2518.6" y2="3806.51" xlink:href="#linear-gradient-72"/><filter id="luminosity-noclip-29" x="-2557.71" y="3789.04" width="25.18" height="26.62" filterUnits="userSpaceOnUse" color-interpolation-filters="sRGB"><feFlood flood-color="#fff" result="bg"/><feBlend in="SourceGraphic" in2="bg"/></filter><mask id="mask-29" x="100.64" y="137.77" width="25.18" height="26.62" maskUnits="userSpaceOnUse"><g class="cls-181"/></mask><linearGradient id="linear-gradient-75" x1="-2557.71" y1="3803.17" x2="-2533.31" y2="3803.17" xlink:href="#linear-gradient-71"/><filter id="luminosity-noclip-30" x="-2546.97" y="3787.16" width="25.18" height="26.62" filterUnits="userSpaceOnUse" color-interpolation-filters="sRGB"><feFlood flood-color="#fff" result="bg"/><feBlend in="SourceGraphic" in2="bg"/></filter><mask id="mask-30" x="111.39" y="135.89" width="25.18" height="26.62" maskUnits="userSpaceOnUse"><g class="cls-180"/></mask><linearGradient id="linear-gradient-76" x1="-2546.97" y1="3801.28" x2="-2522.57" y2="3801.28" xlink:href="#linear-gradient-71"/><filter id="luminosity-noclip-31" x="-2547.86" y="3778.23" width="25.18" height="26.62" filterUnits="userSpaceOnUse" color-interpolation-filters="sRGB"><feFlood flood-color="#fff" result="bg"/><feBlend in="SourceGraphic" in2="bg"/></filter><mask id="mask-31" x="110.49" y="126.96" width="25.18" height="26.62" maskUnits="userSpaceOnUse"><g class="cls-179"/></mask><linearGradient id="linear-gradient-77" x1="-2547.86" y1="3792.35" x2="-2523.46" y2="3792.35" xlink:href="#linear-gradient-71"/><filter id="luminosity-noclip-32" x="-2559.67" y="3804.25" width="25.18" height="26.61" filterUnits="userSpaceOnUse" color-interpolation-filters="sRGB"><feFlood flood-color="#fff" result="bg"/><feBlend in="SourceGraphic" in2="bg"/></filter><mask id="mask-32" x="98.69" y="152.98" width="25.18" height="26.61" maskUnits="userSpaceOnUse"><g class="cls-178"/></mask><linearGradient id="linear-gradient-78" x1="-2559.67" y1="3818.37" x2="-2535.27" y2="3818.37" xlink:href="#linear-gradient-72"/><filter id="luminosity-noclip-33" x="-2560.57" y="3795.32" width="25.18" height="26.62" filterUnits="userSpaceOnUse" color-interpolation-filters="sRGB"><feFlood flood-color="#fff" result="bg"/><feBlend in="SourceGraphic" in2="bg"/></filter><mask id="mask-33" x="97.79" y="144.05" width="25.18" height="26.62" maskUnits="userSpaceOnUse"><g class="cls-177"/></mask><linearGradient id="linear-gradient-79" x1="-2560.57" y1="3809.45" x2="-2536.16" y2="3809.45" xlink:href="#linear-gradient-71"/><filter id="luminosity-noclip-34" x="-2569.34" y="3797.22" width="25.18" height="26.62" filterUnits="userSpaceOnUse" color-interpolation-filters="sRGB"><feFlood flood-color="#fff" result="bg"/><feBlend in="SourceGraphic" in2="bg"/></filter><mask id="mask-34" x="89.02" y="145.95" width="25.18" height="26.62" maskUnits="userSpaceOnUse"><g class="cls-176"/></mask><linearGradient id="linear-gradient-80" x1="-2569.34" y1="3811.35" x2="-2544.93" y2="3811.35" xlink:href="#linear-gradient-71"/><filter id="luminosity-noclip-35" x="-2595.44" y="3777.83" width="25.03" height="35.41" filterUnits="userSpaceOnUse" color-interpolation-filters="sRGB"><feFlood flood-color="#fff" result="bg"/><feBlend in="SourceGraphic" in2="bg"/></filter><mask id="mask-35" x="62.92" y="126.56" width="25.03" height="35.41" maskUnits="userSpaceOnUse"><g class="cls-175"/></mask><linearGradient id="linear-gradient-81" x1="-2008.52" y1="4584.07" x2="-1977.26" y2="4584.07" gradientTransform="matrix(0.93, 0.19, -0.18, 0.9, 98.28, 41.1)" xlink:href="#linear-gradient-46"/><filter id="luminosity-noclip-36" x="-2573.09" y="3768.78" width="25.18" height="26.61" filterUnits="userSpaceOnUse" color-interpolation-filters="sRGB"><feFlood flood-color="#fff" result="bg"/><feBlend in="SourceGraphic" in2="bg"/></filter><mask id="mask-36" x="85.27" y="117.52" width="25.18" height="26.61" maskUnits="userSpaceOnUse"><g class="cls-174"/></mask><linearGradient id="linear-gradient-82" x1="-2573.09" y1="3782.91" x2="-2548.69" y2="3782.91" gradientTransform="matrix(1, 0, 0, 1, 0, 0)" xlink:href="#linear-gradient-46"/><filter id="luminosity-noclip-37" x="-2562.34" y="3766.9" width="25.18" height="26.62" filterUnits="userSpaceOnUse" color-interpolation-filters="sRGB"><feFlood flood-color="#fff" result="bg"/><feBlend in="SourceGraphic" in2="bg"/></filter><mask id="mask-37" x="96.02" y="115.63" width="25.18" height="26.62" maskUnits="userSpaceOnUse"><g class="cls-173"/></mask><linearGradient id="linear-gradient-83" x1="-2562.34" y1="3781.02" x2="-2537.94" y2="3781.02" gradientTransform="matrix(1, 0, 0, 1, 0, 0)" xlink:href="#linear-gradient-46"/><filter id="luminosity-noclip-38" x="-2563.24" y="3757.97" width="25.18" height="26.62" filterUnits="userSpaceOnUse" color-interpolation-filters="sRGB"><feFlood flood-color="#fff" result="bg"/><feBlend in="SourceGraphic" in2="bg"/></filter><mask id="mask-38" x="95.12" y="106.7" width="25.18" height="26.62" maskUnits="userSpaceOnUse"><g class="cls-172"/></mask><linearGradient id="linear-gradient-84" x1="-2563.24" y1="3772.09" x2="-2538.83" y2="3772.09" gradientTransform="matrix(1, 0, 0, 1, 0, 0)" xlink:href="#linear-gradient-46"/><filter id="luminosity-noclip-39" x="-2575.94" y="3775.06" width="25.18" height="26.62" filterUnits="userSpaceOnUse" color-interpolation-filters="sRGB"><feFlood flood-color="#fff" result="bg"/><feBlend in="SourceGraphic" in2="bg"/></filter><mask id="mask-39" x="82.42" y="123.8" width="25.18" height="26.62" maskUnits="userSpaceOnUse"><g class="cls-171"/></mask><linearGradient id="linear-gradient-85" x1="-2575.94" y1="3789.19" x2="-2551.54" y2="3789.19" gradientTransform="matrix(1, 0, 0, 1, 0, 0)" xlink:href="#linear-gradient-46"/><filter id="luminosity-noclip-40" x="-2584.7" y="3776.96" width="25.18" height="26.62" filterUnits="userSpaceOnUse" color-interpolation-filters="sRGB"><feFlood flood-color="#fff" result="bg"/><feBlend in="SourceGraphic" in2="bg"/></filter><mask id="mask-40" x="73.65" y="125.69" width="25.18" height="26.62" maskUnits="userSpaceOnUse"><g class="cls-170"/></mask><linearGradient id="linear-gradient-86" x1="-2584.7" y1="3791.09" x2="-2560.3" y2="3791.09" gradientTransform="matrix(1, 0, 0, 1, 0, 0)" xlink:href="#linear-gradient-46"/></defs><title>artefact_04</title><g class="cls-1"><g id="Layer_1" data-name="Layer 1"><path class="cls-2" d="M-2570.2,3847.55a53.55,53.55,0,0,1,.27-5.65,11.17,11.17,0,0,1-6.26.67c0.64,4.82.31,6.88,6,5C-2570.24,3845.87-2571.69,3848-2570.2,3847.55Z" transform="translate(2658.36 -3651.27)"/><path class="cls-3" d="M-2570.2,3847.55c0.29-1.78,0-3.83.13-5.65a10.15,10.15,0,0,1-6.17.86c0-2.16,1.07,6.81.69,5.2A13,13,0,0,0-2570.2,3847.55Zm0,0c-4.24,1.51-9.79-.65-5.17-5.05s5.36,2.37,5.17,5.05C-2570.63,3847.7-2570.13,3846.6-2570.2,3847.55Z" transform="translate(2658.36 -3651.27)"/><path class="cls-4" d="M-2569.92,3841.9q0.19-2.13.46-4.25c-8.23-.59-9,7.63-0.46,4.25C-2569.71,3839.56-2571.55,3842.54-2569.92,3841.9Z" transform="translate(2658.36 -3651.27)"/><path class="cls-3" d="M-2569.92,3841.9q-1.16-5.85.46-4.13-3.18.34-6.37,0.61a20,20,0,0,0-.19,4.14,15.73,15.73,0,0,0,6.09-.63C-2569.83,3840.48-2570.19,3842-2569.92,3841.9Zm0,0c-1.46.58-5,1.81-6.42,0.71-2.27-1.76,8.07-11.49,6.42-.71C-2570.18,3842-2569.71,3840.48-2569.92,3841.9Z" transform="translate(2658.36 -3651.27)"/><path class="cls-5" d="M-2569.16,3852.27a11.6,11.6,0,0,1-1-4.72,11.72,11.72,0,0,1-5.39.54,21.05,21.05,0,0,1,0,4.89,12.39,12.39,0,0,0,6.45-.72C-2569.54,3851.52-2570.82,3852.9-2569.16,3852.27Z" transform="translate(2658.36 -3651.27)"/><path class="cls-3" d="M-2569.16,3852.27c-0.21-1.6-1.14-3-1.19-4.7a26.79,26.79,0,0,1-5,.49c-0.33,1.44.12,3.43,0,4.94A21.27,21.27,0,0,0-2569.16,3852.27Zm0,0c-3.63,1.44-10.82-.14-6.05-4.32C-2571.64,3844.81-2569,3849.15-2569.16,3852.27Z" transform="translate(2658.36 -3651.27)"/><path class="cls-6" d="M-2562.54,3854.89c-6.17-1-8,4.34-1,5.45a10.4,10.4,0,0,1,1-5.45C-2563.58,3854.72-2563.21,3856.39-2562.54,3854.89Z" transform="translate(2658.36 -3651.27)"/><path class="cls-3" d="M-2562.54,3854.89a27,27,0,0,1-4.6-.63,16,16,0,0,0-.57,5.58,32.58,32.58,0,0,1,4,.52,10.71,10.71,0,0,1,1.13-5.47C-2563.31,3854.82-2562.64,3855.1-2562.54,3854.89Zm0,0c-0.45,1.21-2.3,11.14-5.62,4.66-2.83-5.54,2.82-5.16,5.62-4.66C-2562.7,3855.33-2563.3,3854.75-2562.54,3854.89Z" transform="translate(2658.36 -3651.27)"/><path class="cls-7" d="M-2557,3856.46c-2.6,3.71,1.21,9.42,4.65,6,1.91-1.9-3.94-5.67-4.65-6C-2557.74,3857.54-2555.24,3857.26-2557,3856.46Z" transform="translate(2658.36 -3651.27)"/><path class="cls-3" d="M-2557,3856.46a7,7,0,0,0-.85,5.23c7,4.11,5.44-2.72.85-5.23C-2557.11,3856.67-2556.48,3856.74-2557,3856.46Zm0,0c12.85,6-6.23,9.1,0,0C-2556.73,3856.58-2557.13,3856.66-2557,3856.46Z" transform="translate(2658.36 -3651.27)"/><path class="cls-8" d="M-2567.08,3854.13c-3.37-1.28-9.28-3-9.48,1.64-0.16,3.63,2.58,4,5.16,4,5.08,0.11,2.63-1.49,4.32-5.68C-2568.07,3853.76-2567.66,3855.59-2567.08,3854.13Z" transform="translate(2658.36 -3651.27)"/><path class="cls-3" d="M-2567.08,3854.13c-0.64-.74-1.6-0.81-2.15-1.83a11.62,11.62,0,0,1-6.2.7c-0.37.29-1.44,1.44-1.82,1.84a35.31,35.31,0,0,1,2.53,5.14,31.48,31.48,0,0,1,6.66-.08A12.32,12.32,0,0,1-2567.08,3854.13Zm0,0a18,18,0,0,0-.86,5.87C-2586,3859.46-2572.45,3847.95-2567.08,3854.13Z" transform="translate(2658.36 -3651.27)"/><path class="cls-9" d="M-2557,3856.46c-2.77-1.27-5.79-2.91-6.37,1-0.64,4.23,1.64,3.12,5.35,4.32a6.4,6.4,0,0,1,1-5.27C-2558.78,3855.63-2557.74,3857.54-2557,3856.46Z" transform="translate(2658.36 -3651.27)"/><path class="cls-3" d="M-2557,3856.46a22.55,22.55,0,0,0-5.4-1.53,16,16,0,0,0-1.05,5.21c1.43,0.59,4.46,1.38,5.26,1.62A6.7,6.7,0,0,1-2557,3856.46Zm0,0c-0.16.29-1.67,5.55-1,5.41C-2566.2,3863.27-2564.94,3850.95-2557,3856.46Z" transform="translate(2658.36 -3651.27)"/><path class="cls-10" d="M-2574.91,3860c-0.77-6.31-5-5.43-10.18-5.47,4.7,3.94,2.25,7.3,10.18,5.47C-2575.2,3857.59-2574.93,3860-2574.91,3860Z" transform="translate(2658.36 -3651.27)"/><path class="cls-3" d="M-2574.91,3860c-0.49-3.42-1.6-4.83-4.29-5.07-1.89-.2-4-0.15-5.91-0.21a5.94,5.94,0,0,1,2.73,5.65Q-2578.64,3860.23-2574.91,3860Zm0,0c-5.53.62-5.42,1.18-7.84-1.36-0.35-.37-2.05-4.58-2.47-4.24,0.54-.49,5.84.2,6.08,0.21C-2576.23,3854.51-2575,3857-2574.91,3860Z" transform="translate(2658.36 -3651.27)"/><path class="cls-11" d="M-2598.53,3859.44c-12,9.13,9.66,6.24,0,0C-2600.78,3861.14-2597.29,3860.24-2598.53,3859.44Z" transform="translate(2658.36 -3651.27)"/><path class="cls-3" d="M-2598.53,3859.44c-5.31,4.39-3.44,9.1,2.13,5.49a6.35,6.35,0,0,0-2.13-5.49C-2599.47,3860.21-2598.34,3859.6-2598.53,3859.44Zm0,0c10,7-13.57,9.32,0,0C-2598.32,3859.58-2599,3859.78-2598.53,3859.44Z" transform="translate(2658.36 -3651.27)"/><path class="cls-12" d="M-2593.58,3856.13a50.4,50.4,0,0,0-5,3.31,5.72,5.72,0,0,1,2.33,5.46c4.64-2,8.67-4.54,2.62-8.77C-2595,3857-2591.92,3857.29-2593.58,3856.13Z" transform="translate(2658.36 -3651.27)"/><path class="cls-3" d="M-2593.58,3856.13c-1.57.84-3.88,2.57-4.85,3.19,2.21,1.71,1.48,3.43,2.45,5.55a55.24,55.24,0,0,1,5.43-2.84A7.36,7.36,0,0,0-2593.58,3856.13Zm0,0c8.47,5.43-3.28,8-2.83,8.87C-2597.66,3860.1-2599.86,3858.48-2593.58,3856.13Z" transform="translate(2658.36 -3651.27)"/><path class="cls-13" d="M-2585.08,3854.54c-2.69,0-6.08.09-8.5,1.58a6.94,6.94,0,0,1,3.22,5.88c2.41-1.22,5.35-1.33,8-1.48a7.22,7.22,0,0,0-2.7-6C-2588,3854.51-2583.74,3855.67-2585.08,3854.54Z" transform="translate(2658.36 -3651.27)"/><path class="cls-3" d="M-2585.08,3854.54c-3,.06-5.82.19-8.42,1.7,1.94,1,3.44,3.63,3.06,5.6a17.27,17.27,0,0,1,7.9-1.3,7.74,7.74,0,0,0-2.54-6C-2585.79,3854.56-2584.88,3854.74-2585.08,3854.54Zm0,0c8.6,7.27-5.5,7.52-5.48,7.55-1.65-6.43-5.32-8,5.48-7.55C-2584.87,3854.73-2585.78,3854.51-2585.08,3854.54Z" transform="translate(2658.36 -3651.27)"/><path class="cls-14" d="M-2600.16,3855.86c-14.93,14.93,8.5,4.54,0,0C-2601.57,3857.26-2599.24,3856.35-2600.16,3855.86Z" transform="translate(2658.36 -3651.27)"/><path class="cls-3" d="M-2600.16,3855.86a37.63,37.63,0,0,0-4.39,6.35c0.12,1.27-.28,3.3,1.9,2.46,0.26-1.93,2.33-4.5,4.61-5.67A5,5,0,0,0-2600.16,3855.86Zm0,0c8.39,4.89-15.26,15.4,0,0h0Z" transform="translate(2658.36 -3651.27)"/><path class="cls-15" d="M-2595.11,3852.57a13.78,13.78,0,0,0-5.05,3.28,4.47,4.47,0,0,1,2.26,3.1c1.65-1.22,4-3,6.08-3.73a5.1,5.1,0,0,0-3.3-2.65C-2596.77,3853.23-2594.12,3852.81-2595.11,3852.57Z" transform="translate(2658.36 -3651.27)"/><path class="cls-3" d="M-2595.11,3852.57a27.79,27.79,0,0,0-4.95,3.15c1.47,0.82,1.37,2.22,2.37,3.15a26.22,26.22,0,0,1,5.85-3.78,8.86,8.86,0,0,0-3.27-2.53C-2595.57,3852.78-2594.94,3852.64-2595.11,3852.57Zm0,0c6.45,1.7.16,7.13-2.67,6.52-5.36-1.16.37-5.66,2.67-6.52C-2594.93,3852.62-2595.58,3852.75-2595.11,3852.57Z" transform="translate(2658.36 -3651.27)"/><path class="cls-16" d="M-2599,3852.4a9.45,9.45,0,0,0-4.89,4c4.37,0,3.08-1,7.06-3l-2.17-.94C-2600.73,3853-2598,3852.47-2599,3852.4Z" transform="translate(2658.36 -3651.27)"/><path class="cls-3" d="M-2599,3852.4a9.77,9.77,0,0,0-4.73,4c-1.6-.68,3.64.72,2.31,0.51,1.52-1.25,3-2.5,4.54-3.7A6.27,6.27,0,0,0-2599,3852.4Zm0,0c7.23,0.15-5.76,6.14-5.08,4C-2604.05,3854.65-2600.22,3852.77-2599,3852.4Z" transform="translate(2658.36 -3651.27)"/><path class="cls-17" d="M-2603.87,3856.39c-1.31,2.16-2.16,3.81-.87,5.82a34,34,0,0,1,3.5-5.16l-2.63-.66C-2606.92,3861.44-2602.83,3856.39-2603.87,3856.39Z" transform="translate(2658.36 -3651.27)"/><path class="cls-3" d="M-2603.87,3856.39c-0.44,1-2.7,4.92-.75,5.65a23.6,23.6,0,0,1,3.27-4.9A4.17,4.17,0,0,0-2603.87,3856.39Zm0,0c9.5-.65-9.71,10.74,0,0h0Z" transform="translate(2658.36 -3651.27)"/><path class="cls-18" d="M-2599,3852.4q3,2.23,6.06-.66a15.92,15.92,0,0,0-6.06.66C-2598,3852.47-2596.23,3851.44-2599,3852.4Z" transform="translate(2658.36 -3651.27)"/><path class="cls-3" d="M-2599,3852.4c3.28,0.07,2,.67,6-0.83a56.75,56.75,0,0,0-6,.83C-2598.76,3852.41-2598.72,3852.35-2599,3852.4Zm0,0c0.69-.25,6.4-1.43,6.26-0.65-0.73,2.76-5.06.84-6.26,0.65C-2598.73,3852.31-2598.55,3852.47-2599,3852.4Z" transform="translate(2658.36 -3651.27)"/><path class="cls-19" d="M-2587.46,3852a11.21,11.21,0,0,0-7.65.54c4.15,1,4,2,9,2l-1.39-2.51C-2591.25,3851.19-2586.81,3852.76-2587.46,3852Z" transform="translate(2658.36 -3651.27)"/><path class="cls-3" d="M-2587.46,3852a15.1,15.1,0,0,0-7.57.38c1.78,0.57,2.08,1.79,3.4,2.72,0.85-.1,4-0.4,5.57-0.69A16.65,16.65,0,0,0-2587.46,3852Zm0,0c0.17,0.18,2,2.36,1.43,2.61-1.14.57-10.42,0-9.25-2.12C-2594.27,3850.64-2588.87,3851.55-2587.46,3852Z" transform="translate(2658.36 -3651.27)"/><path class="cls-20" d="M-2579.16,3854.78c-2.76-.32-5.56-2.14-8.3-2.75,2.8,3.11,3.75,2.66,8.3,2.75C-2579.58,3854.73-2580.15,3854.76-2579.16,3854.78Z" transform="translate(2658.36 -3651.27)"/><path class="cls-3" d="M-2579.16,3854.78c-2.8-.75-5.54-1.82-8.37-2.56a7.05,7.05,0,0,1,1.66,2.27C-2584.63,3854.44-2581.12,3854.58-2579.16,3854.78Zm0,0c1,0-11.27-.88-8.41-2.88C-2586.56,3851.06-2580.08,3854.42-2579.16,3854.78Z" transform="translate(2658.36 -3651.27)"/><path class="cls-21" d="M-2583.6,3853.13c-3.67-.88-8.12-0.82-11.58.87-1.37.67-7.38,7.88-8.42,7.55a5.27,5.27,0,0,1,.17-1.52c-6.47,10,5.78-1.23,6.91-2,5.68-4.05,10.5-3.35,17.36-3.25a12,12,0,0,1-4.44-1.61C-2583.7,3853.1-2582.47,3853.52-2583.6,3853.13Z" transform="translate(2658.36 -3651.27)"/><path class="cls-22" d="M-2595.4,3851.65c-4.52,1.47-9.88,6.69-9.39,10.49,3-5.24,6.2-8.33,11.81-10.47l-2.42,0C-2599,3852.82-2594.19,3851.58-2595.4,3851.65Z" transform="translate(2658.36 -3651.27)"/><path class="cls-23" d="M-2552.83,3860c-3.5-6.23-11.36-2.66-15.34-6.82-3.53-3.68-1.95-11-1.34-15.55-4.78-.87-7.19.52-6.69,5.18,0.57-7.29,4.71,9.45,5.25,10.18,0.74,1,10.76,6.66,10.07,6.83-2.89.7-8.9-1.21-12.06-1.25a64.74,64.74,0,0,0-14.72,1c-0.14,0-15.81,3.82-12.92,1.52-6.66,5.35,3.09,3.91,5.9,3,5.48-1.71,7.9-3.2,14-3.72a86.6,86.6,0,0,1,12.68-.54c2.27,0.14,14,4.18,15.57,2.58l-0.43-2.44C-2553.75,3858.34-2550.56,3863.88-2552.83,3860Z" transform="translate(2658.36 -3651.27)"/><path class="cls-24" d="M-2552,3861.07c-3-9.9-16.12-2.34-18-13.59-0.22-1.3,1.31-9.24.6-10-2.37-2.6-6.15,1.34-6.78,2.47-0.79,1.43.4,8.63,0.45,8.13-0.28,3.24,1,5.1-2,6.5-2.75,1.28-11.11-3.17-15-3.06-4.06.11-8.22,0.58-10.84,4.12-1.59,2.15-3,6.66-1.1,9,3.47,4.24,10.62-1.29,14.33-2.49,6.31-2,14.06-2.43,20.63-2.2,3,0.1,18.42,3.46,17.69,1.14C-2552.07,3860.79-2551.91,3861.34-2552,3861.07Z" transform="translate(2658.36 -3651.27)"/><path class="cls-25" d="M-2560.76,3849.57a55.69,55.69,0,0,1-.24-5.65,10.33,10.33,0,0,1-6,.67c1.11,4.47.86,7,6.27,5C-2560.94,3847.91-2562.12,3850.07-2560.76,3849.57Z" transform="translate(2658.36 -3651.27)"/><path class="cls-3" d="M-2560.76,3849.57c0.13-1.8-.36-3.82-0.4-5.65-1.66,1-3.62.54-5.92,0.86-0.29-2.1,1.84,6.82,1.27,5.2A11.25,11.25,0,0,0-2560.76,3849.57Zm0,0c-3.56,1.43-9.67-.33-5.86-5.1-0.2.25,4.47-.33,4.48-0.32,1.78,1.07,1.29,1.24,1.38,5.42C-2561.15,3849.73-2560.78,3848.63-2560.76,3849.57Z" transform="translate(2658.36 -3651.27)"/><path class="cls-26" d="M-2561,3843.93q0-2.13.06-4.25c-8.44-.59-8,7.56-0.06,4.25C-2561,3841.58-2562.53,3844.57-2561,3843.93Z" transform="translate(2658.36 -3651.27)"/><path class="cls-3" d="M-2561,3843.93q-1.6-5.83.07-4.13-3.14.33-6.28,0.61c0.33-1.06.26,3.7,0.15,3.38,1.33,1.13,3.59.9,6.06,0.14C-2561,3842.51-2561.25,3844-2561,3843.93Zm0,0c-1.52.62-4.66,1.74-6.19,0.71-2.71-1.82,6.8-11.21,6.19-.71C-2561.24,3844-2560.92,3842.51-2561,3843.93Z" transform="translate(2658.36 -3651.27)"/><path class="cls-27" d="M-2559.38,3854.3a13.17,13.17,0,0,1-1.38-4.72,10.24,10.24,0,0,1-5.06.55c0.87,4.61.83,6.55,6.43,4.18C-2559.81,3853.54-2560.87,3854.93-2559.38,3854.3Z" transform="translate(2658.36 -3651.27)"/><path class="cls-3" d="M-2559.38,3854.3c-0.32-1.6-1.31-3-1.52-4.71-0.46,0-3.87.46-4.94,0.72,0,0.19.7,3.66,0.71,4.72A17.39,17.39,0,0,0-2559.38,3854.3Zm0,0c-4.06,1.69-9.76-1-5.78-4.29C-2561.69,3847.14-2559.51,3851.4-2559.38,3854.3Z" transform="translate(2658.36 -3651.27)"/><path class="cls-28" d="M-2553.13,3856.91a23.85,23.85,0,0,1-4.21-.75c-1.39,4.75-1,5.39,3.6,6.19a11.14,11.14,0,0,1,.6-5.44C-2554.09,3856.74-2553.66,3858.41-2553.13,3856.91Z" transform="translate(2658.36 -3651.27)"/><path class="cls-3" d="M-2553.13,3856.91a23.22,23.22,0,0,1-4.25-.63,16.32,16.32,0,0,0-.14,5.59,20.35,20.35,0,0,1,3.63.52,11.39,11.39,0,0,1,.76-5.47C-2553.84,3856.85-2553.21,3857.13-2553.13,3856.91Zm0,0c-0.39,1.39-1.21,10.59-4.81,4.66-3.14-5.18,2-5.21,4.81-4.66C-2553.25,3857.36-2553.83,3856.78-2553.13,3856.91Z" transform="translate(2658.36 -3651.27)"/><path class="cls-29" d="M-2548,3858.49c-2,3.24,1.14,9.5,4.23,6,1.68-1.9-3.32-5.54-4.23-6C-2548.67,3859.56-2546.41,3859.29-2548,3858.49Z" transform="translate(2658.36 -3651.27)"/><path class="cls-3" d="M-2548,3858.49a7.4,7.4,0,0,0-.63,5.23c6.75,3.73,4.51-2.91.63-5.23C-2548.11,3858.69-2547.54,3858.77-2548,3858.49Zm0,0c11.79,5.56-5.56,9.24,0,0C-2547.77,3858.6-2548.13,3858.68-2548,3858.49Z" transform="translate(2658.36 -3651.27)"/><path class="cls-30" d="M-2557.33,3856.17c-2-.81-7.2-3.19-8.71,0-2.29,4.91,5.24,5.5,8.34,5.69a12.46,12.46,0,0,1,.37-5.74C-2558.27,3855.78-2557.76,3857.61-2557.33,3856.17Z" transform="translate(2658.36 -3651.27)"/><path class="cls-3" d="M-2557.33,3856.17c-0.62-.73-1.56-0.87-2.11-1.84a17.6,17.6,0,0,1-5.67.7c-0.35.37-1.12,1.4-1.47,1.84,0.51,1,2.21,3.18,2.84,5.14,0.84,0,5,0,5.94-.07A12.93,12.93,0,0,1-2557.33,3856.17Zm0,0c-0.9,4.47,1.34,5.52-3.48,5.83-1.72.11-7.15-2.6-5.89-5.47C-2565.38,3853.51-2559.15,3854.15-2557.33,3856.17Z" transform="translate(2658.36 -3651.27)"/><path class="cls-31" d="M-2548,3858.49c-2.69-1.35-5.35-2.84-5.74.95-0.41,4,1.44,3,4.94,4.32a6.82,6.82,0,0,1,.79-5.27C-2549.66,3857.66-2548.67,3859.56-2548,3858.49Z" transform="translate(2658.36 -3651.27)"/><path class="cls-3" d="M-2548,3858.49a20,20,0,0,0-5-1.53,17.65,17.65,0,0,0-.7,5.21,47.48,47.48,0,0,0,4.75,1.62A7.09,7.09,0,0,1-2548,3858.49Zm0,0c-0.15.3-1.41,5.52-.77,5.41C-2556,3865.36-2555.72,3852.86-2548,3858.49Z" transform="translate(2658.36 -3651.27)"/><path class="cls-32" d="M-2563.94,3862c-1.25-6-4.7-5.42-9.87-5.47,2.58,2.11,2,5,4.85,5.88,1.38,0.4,3.59-.41,5-0.41C-2564.44,3859.61-2564,3862-2563.94,3862Z" transform="translate(2658.36 -3651.27)"/><path class="cls-3" d="M-2563.94,3862c-1.2-6.4-4.48-4.92-9.87-5.28a7.61,7.61,0,0,1,3.41,5.78C-2568.93,3862.35-2566,3862.14-2563.94,3862Zm0,0c-5.65.73-4.62,1-7.24-1.56-0.4-.4-2.5-4.31-2.77-4C-2570.14,3852.2-2564.27,3858.94-2563.94,3862Z" transform="translate(2658.36 -3651.27)"/><path class="cls-33" d="M-2585.14,3861.46c-8.76,9.07,10.16,6.43,0,0C-2586.79,3863.17-2583.87,3862.27-2585.14,3861.46Z" transform="translate(2658.36 -3651.27)"/><path class="cls-3" d="M-2585.14,3861.46c-3.65,4.17-1.94,8.73,2.93,5.49a8,8,0,0,0-2.93-5.49C-2585.82,3862.23-2584.93,3861.63-2585.14,3861.46Zm0,0c10.42,6.8-10,9.37,0,0C-2584.92,3861.6-2585.52,3861.81-2585.14,3861.46Z" transform="translate(2658.36 -3651.27)"/><path class="cls-34" d="M-2581.31,3858.16a32.18,32.18,0,0,0-3.83,3.3,7.32,7.32,0,0,1,3.1,5.47c4.69-2.51,6.13-5.14.73-8.77C-2582.44,3859-2579.59,3859.31-2581.31,3858.16Z" transform="translate(2658.36 -3651.27)"/><path class="cls-3" d="M-2581.31,3858.16a30.86,30.86,0,0,0-3.77,3.19,8,8,0,0,1,3.22,5.55c-0.09,0,3.47-2.19,4.37-3A10.54,10.54,0,0,0-2581.31,3858.16Zm0,0c3,1.86,6.63,10.47-.92,8.81C-2586,3866.14-2584.3,3859.37-2581.31,3858.16Z" transform="translate(2658.36 -3651.27)"/><path class="cls-35" d="M-2573.8,3856.57c-2.35,0-5.49.06-7.5,1.59a8.61,8.61,0,0,1,3.9,5.88c2-1.25,4.64-1.34,6.87-1.49a8.7,8.7,0,0,0-3.26-6C-2576.51,3856.54-2572.42,3857.7-2573.8,3856.57Z" transform="translate(2658.36 -3651.27)"/><path class="cls-3" d="M-2573.8,3856.57a19.62,19.62,0,0,0-7.42,1.46c2.2,1.45,3.77,4,3.71,5.84a11.77,11.77,0,0,1,6.82-1.3,9.42,9.42,0,0,0-3.12-6C-2574.46,3856.58-2573.6,3856.77-2573.8,3856.57Zm0,0c4.9,4.24,2.07,10.06-3.78,7.52,0.37,0.16-3-6.11-3.1-5.27,0.35-2.18,2.88-2.4,6.87-2.26C-2573.59,3856.76-2574.46,3856.54-2573.8,3856.57Z" transform="translate(2658.36 -3651.27)"/><path class="cls-36" d="M-2587.34,3857.89c-10.41,15,9.05,4.73,0,0C-2588.32,3859.29-2586.4,3858.38-2587.34,3857.89Z" transform="translate(2658.36 -3651.27)"/><path class="cls-3" d="M-2587.34,3857.89a25.65,25.65,0,0,0-2.56,6.35c0.28,1,.39,3.37,2.2,2.46a6.66,6.66,0,0,1,2.93-5.67A6.51,6.51,0,0,0-2587.34,3857.89Zm0,0c8.83,5-10.45,15.38,0,0h0Z" transform="translate(2658.36 -3651.27)"/><path class="cls-37" d="M-2583.39,3854.6a9.2,9.2,0,0,0-4,3.28,5.81,5.81,0,0,1,2.68,3.1c1.17-1.14,3.14-3.1,4.81-3.73a6.06,6.06,0,0,0-3.53-2.65C-2584.79,3855.26-2582.42,3854.84-2583.39,3854.6Z" transform="translate(2658.36 -3651.27)"/><path class="cls-3" d="M-2583.39,3854.6a10.58,10.58,0,0,0-3.83,3.37c-0.06-.08,2.25,2.55,2.73,2.94a33,33,0,0,1,4.59-3.78,10.2,10.2,0,0,0-3.49-2.53C-2583.77,3854.81-2583.21,3854.66-2583.39,3854.6Zm0,0c5.86,1.55,2.28,4.42-1.15,6.52,0.72-.59-5.73-3.61,1.15-6.52C-2583.21,3854.65-2583.79,3854.77-2583.39,3854.6Z" transform="translate(2658.36 -3651.27)"/><path class="cls-38" d="M-2587,3854.43a6.65,6.65,0,0,0-3.61,4c4.48,0,2.09-.63,5.81-3l-2.2-.94C-2588.49,3855-2586.11,3854.5-2587,3854.43Z" transform="translate(2658.36 -3651.27)"/><path class="cls-3" d="M-2587,3854.43a6.74,6.74,0,0,0-3.44,4c-1.6-.71,3.42.65,2.21,0.51,0.88-.75,2.93-3,3.36-3.54A3.33,3.33,0,0,0-2587,3854.43Zm0,0c-0.47,0,2.9.46,2.28,1C-2588,3861.22-2593.8,3857.72-2587,3854.43Z" transform="translate(2658.36 -3651.27)"/><path class="cls-39" d="M-2590.61,3858.42c-0.75,2.4-1,4.12.54,5.82a25.59,25.59,0,0,1,2-5.17l-2.54-.65C-2592.18,3863.47-2589.66,3858.41-2590.61,3858.42Z" transform="translate(2658.36 -3651.27)"/><path class="cls-3" d="M-2590.61,3858.42c-0.31,2.15-.47,4.28.36,5.77,0.49-1.61,1.75-3.93,2.1-5A4.26,4.26,0,0,0-2590.61,3858.42Zm0,0c8.14-.7-5.67,11.63,0,0h0Z" transform="translate(2658.36 -3651.27)"/><path class="cls-40" d="M-2587,3854.43q2.81,2.19,5.49-.66a13,13,0,0,0-5.49.66C-2586.11,3854.5-2584.65,3853.47-2587,3854.43Z" transform="translate(2658.36 -3651.27)"/><path class="cls-3" d="M-2587,3854.43a3.06,3.06,0,0,1,2.3.86s3.46-1.52,3.18-1.34a18.44,18.44,0,0,0-5.49.47C-2586.79,3854.43-2586.77,3854.38-2587,3854.43Zm0,0c0.66-.3,5.71-1.57,5.67-0.66,0,2.84-4.79.8-5.67,0.66C-2586.79,3854.34-2586.6,3854.5-2587,3854.43Z" transform="translate(2658.36 -3651.27)"/><path class="cls-41" d="M-2576.39,3854.06c-2.83-.65-4.49-0.65-7,0.54,4.1,1,3.89,2,8.67,2l-1.67-2.51C-2580.06,3853.21-2575.67,3854.78-2576.39,3854.06Z" transform="translate(2658.36 -3651.27)"/><path class="cls-3" d="M-2576.39,3854.06a12.77,12.77,0,0,0-7,.37c1.63,0.51,2.79,2.19,3.42,2.65a49.5,49.5,0,0,0,5.11-.48A7.64,7.64,0,0,0-2576.39,3854.06Zm0,0c0.17,0.16,2.18,2.35,1.73,2.6-1.08.37-9.76,0.47-8.89-2.11C-2583,3852.64-2577.34,3853.7-2576.39,3854.06Z" transform="translate(2658.36 -3651.27)"/><path class="cls-42" d="M-2568.35,3856.8c-2.65-.3-5.41-2.14-8-2.74,2.94,2.94,3.61,2.67,8,2.74C-2568.74,3856.76-2569.27,3856.79-2568.35,3856.8Z" transform="translate(2658.36 -3651.27)"/><path class="cls-3" d="M-2568.35,3856.8c-2.65-.88-5.37-1.81-8.08-2.56a9.8,9.8,0,0,1,1.88,2.27C-2573.52,3856.47-2570.12,3856.63-2568.35,3856.8Zm0,0c1.13,0-10.75-.48-8.17-2.88C-2575.65,3853.13-2569.11,3856.47-2568.35,3856.8Z" transform="translate(2658.36 -3651.27)"/><path class="cls-43" d="M-2572.66,3855.15c-11.18-1.66-8.82,3.1-16.35,8.37a2.42,2.42,0,0,1-.38-1.46c-3.86,10.78,4.83-1.17,5.78-2,4.65-4.28,9.14-3.37,15.26-3.24a11.65,11.65,0,0,1-4.3-1.62C-2572.75,3855.14-2571.56,3855.55-2572.66,3855.15Z" transform="translate(2658.36 -3651.27)"/><path class="cls-44" d="M-2583.84,3853.68c-4.19,1.58-7.65,7.17-6.3,10.49,1.48-5.22,3.59-8.25,8.55-10.47l-2.25,0C-2587,3854.85-2582.73,3853.61-2583.84,3853.68Z" transform="translate(2658.36 -3651.27)"/><path class="cls-45" d="M-2544.22,3862c-3.1-6.07-10.25-3-14.19-6.81-3.61-3.51-2.75-11-2.58-15.56-4.8-.85-7.2.49-6,5.17-0.32-6.85,5.37,9.38,6,10.19s10.28,6.64,9.58,6.83c-2.09.57-6.64-1.11-9.09-1.27-5.44-.35-11.33-0.12-16.52,1.57,1.42-.46-12.81,4.48-9.59,1-5.09,5.64,3.43,3.85,5.79,3,4.84-1.67,6.18-3.12,11.83-3.73,4-.43,24.28,3,25.17,2l-0.38-2.44h0Z" transform="translate(2658.36 -3651.27)"/><path class="cls-46" d="M-2544.07,3862c-3.38-6.56-12.19-3.32-15.74-9.14-2.29-3.76.77-11.42-2.07-13.18-8.78-5.45-.78,17.09-6.38,17.09q-0.63-.08,0,0c-4.55-.56-8.7-3.28-13.31-3-2.84.15-13,3.32-9.55,8.48a2.37,2.37,0,0,0,1.14,2h0c2.24,7.84,11.1,0,16.09-1.37,3.83-1.07,9.1-1.06,13.17-1,2.18,0,15.93,3.89,17,2.64l-0.38-2.44h0Z" transform="translate(2658.36 -3651.27)"/><path class="cls-47" d="M-2534.64,3827.3a66.68,66.68,0,0,0,12.15,4.29c7.86,2,15.62,0,23.16,1.35,3.79,0.68,6.64-1,2.89,2.49-2.47,2.32-9.42,3.94-12.78,3.53,4.54,1.47,32.12,11.65,15.38,12.79,6,8.84-6.82,7.9-11.65,7.83-12.63-.18-21.7-2.6-31.93-11.51-2.32,6.42-13.91-8-15-11.79C-2555.68,3825.31-2542.65,3821.7-2534.64,3827.3Z" transform="translate(2658.36 -3651.27)"/><g class="cls-48"><path class="cls-49" d="M-2554,3834c1.11,1.75,7.64,10.67,10.28,8.59,1.84-1.44-9.69-12.12-11.13-12.3Q-2556.74,3832-2554,3834Z" transform="translate(2658.36 -3651.27)"/></g><g class="cls-50"><path class="cls-51" d="M-2539.23,3834.52c0.75,0.67,9.41,7,10.34,4.06,0.66-2.05-10.47-7.52-11.9-7.21Q-2541.86,3833.38-2539.23,3834.52Z" transform="translate(2658.36 -3651.27)"/></g><g class="cls-52"><path class="cls-53" d="M-2537.36,3831.46c1.1,0.83,10.29,6.45,11.45,3.33,0.78-2.1-11.72-6.82-13.09-6.45Q-2540.27,3830.4-2537.36,3831.46Z" transform="translate(2658.36 -3651.27)"/></g><g class="cls-54"><path class="cls-55" d="M-2544.8,3827.71c1,0.71,10,6,10.9,3.11,0.64-2-11.29-6.37-12.6-6Q-2547.56,3826.8-2544.8,3827.71Z" transform="translate(2658.36 -3651.27)"/></g><g class="cls-56"><path class="cls-57" d="M-2547.26,3833.12c0.68,0.67,9.13,7.41,10.09,4.48,0.68-2.09-10.06-8.07-11.57-7.78Q-2549.83,3831.85-2547.26,3833.12Z" transform="translate(2658.36 -3651.27)"/></g><g class="cls-58"><path class="cls-59" d="M-2545.95,3837.87c0.56,0.59,8.91,7.76,9.8,5,0.66-2.05-9.72-8.51-11.26-8.3Q-2548.43,3836.56-2545.95,3837.87Z" transform="translate(2658.36 -3651.27)"/></g><g class="cls-60"><g class="cls-61"><path class="cls-62" d="M-2544.53,3842.38c2.29,2.2,11.58,10.34,15,7.55,2-1.66-16.76-14.21-17.85-11.4A5.16,5.16,0,0,0-2544.53,3842.38Z" transform="translate(2658.36 -3651.27)"/></g><g class="cls-63"><path class="cls-64" d="M-2536.86,3836.81c2.06,1.15,12.37,5.74,13.8,2.06,1-2.53-17-6.82-17.07-4.87A4.89,4.89,0,0,0-2536.86,3836.81Z" transform="translate(2658.36 -3651.27)"/></g><g class="cls-65"><path class="cls-66" d="M-2532.44,3834.66c2.3,1.16,12.57,5.11,14,1.23,0.9-2.35-17.25-6.42-17.34-4A4.51,4.51,0,0,0-2532.44,3834.66Z" transform="translate(2658.36 -3651.27)"/></g><g class="cls-67"><path class="cls-68" d="M-2535.16,3832c2.39,1,12.76,4.47,14.2.72,0.78-2-17.54-5.64-17.58-3.17A4.42,4.42,0,0,0-2535.16,3832Z" transform="translate(2658.36 -3651.27)"/></g><g class="cls-69"><path class="cls-70" d="M-2536.57,3839.31c1.92,1.2,12.22,6.34,13.63,2.64,1.06-2.79-16.78-7.43-16.84-5.66A5.14,5.14,0,0,0-2536.57,3839.31Z" transform="translate(2658.36 -3651.27)"/></g><g class="cls-71"><path class="cls-72" d="M-2540,3840.8c1.74,1.17,12.06,6.86,13.42,3.34,1.13-2.92-16.58-7.77-16.6-6.43A5.5,5.5,0,0,0-2540,3840.8Z" transform="translate(2658.36 -3651.27)"/></g></g><g class="cls-60"><g class="cls-73"><path class="cls-74" d="M-2528.92,3852.19c3.09,2,22.9,10.09,16.57,2.89-2.36-2.69-9.48-4.88-12.83-5.85C-2529.39,3848-2537.64,3847.69-2528.92,3852.19Z" transform="translate(2658.36 -3651.27)"/></g><g class="cls-75"><path class="cls-76" d="M-2513.26,3843.59c2.79,1.63,13.2,6.73,15.8,2.85,1.7-2.53-19.39-8.62-19.5-6.18A5.66,5.66,0,0,0-2513.26,3843.59Z" transform="translate(2658.36 -3651.27)"/></g><g class="cls-77"><path class="cls-78" d="M-2510.75,3837.39c3.52,0.32,14.67.44,15.8-4.19,0.6-2.44-21.28-.1-20.39,2.74A5.09,5.09,0,0,0-2510.75,3837.39Z" transform="translate(2658.36 -3651.27)"/></g><g class="cls-79"><path class="cls-80" d="M-2506.46,3848.75c2.89,1.14,14.22,4.68,16,.34,1.26-3.1-20.57-5.33-20.24-3.11A5.92,5.92,0,0,0-2506.46,3848.75Z" transform="translate(2658.36 -3651.27)"/></g><g class="cls-81"><path class="cls-82" d="M-2511.36,3855.2c2.67,1.16,14.12,5.31,15.89,1.17,1.35-3.16-20.43-5.83-20.13-4A6.37,6.37,0,0,0-2511.36,3855.2Z" transform="translate(2658.36 -3651.27)"/></g></g><path class="cls-83" d="M-2508.85,3839.08a9.6,9.6,0,0,1-8.38-2.28A21,21,0,0,1-2508.85,3839.08Z" transform="translate(2658.36 -3651.27)"/><path class="cls-83" d="M-2493.85,3851.75c-8.22.84-17.68-1-24-6.59C-2510.32,3848.8-2502.07,3850.39-2493.85,3851.75Z" transform="translate(2658.36 -3651.27)"/><path class="cls-83" d="M-2527.21,3849.59a101.22,101.22,0,0,0,19.31,9.44A27.25,27.25,0,0,1-2527.21,3849.59Z" transform="translate(2658.36 -3651.27)"/><path class="cls-83" d="M-2537.44,3848.07a6.87,6.87,0,0,1-5.27-6A36.14,36.14,0,0,1-2537.44,3848.07Z" transform="translate(2658.36 -3651.27)"/><path class="cls-84" d="M-2521.85,3844.91a46.79,46.79,0,0,0,23.38,6.58c-11.67-1.45-22.22-9.1-29.31-18.23,5.29,1.58,11.73,2.35,16.87.29-8.68-.53-32.52-13.42-40-6.52-9.8,9.05,11.44,26,13.33,21.13,10.09,8.78,27.68,15.4,41.42,11.8C-2506.43,3859.48-2515.33,3852.4-2521.85,3844.91Z" transform="translate(2658.36 -3651.27)"/><g class="cls-85"><path class="cls-86" d="M-2530.44,3836.8a148.49,148.49,0,0,0,28.2,8.62C-2512,3845.68-2522.66,3842.69-2530.44,3836.8Z" transform="translate(2658.36 -3651.27)"/><path class="cls-86" d="M-2541.12,3834.52a87.71,87.71,0,0,0,35.44,19.88C-2519.24,3852.91-2532.88,3845.45-2541.12,3834.52Z" transform="translate(2658.36 -3651.27)"/><path class="cls-86" d="M-2539.73,3841.11a96.16,96.16,0,0,0,20.72,15.2A34,34,0,0,1-2539.73,3841.11Z" transform="translate(2658.36 -3651.27)"/><path class="cls-86" d="M-2504.65,3835.54c-7.21,2-15.48.94-22.23-2.15A211.91,211.91,0,0,0-2504.65,3835.54Z" transform="translate(2658.36 -3651.27)"/></g><path class="cls-87" d="M-2580.51,3836c-0.55,2.48,1,3.75-2.16,5.7a25.92,25.92,0,0,0,4.45-1.52l-1.14,1.9c1-.92,8.53-2,8.64-2.4C-2573.49,3837.91-2577,3835.68-2580.51,3836Z" transform="translate(2658.36 -3651.27)"/><path class="cls-88" d="M-2616.33,3761c-7.37,8.86-6.4,11.19-5.06,21.91s-1.3,20,4,30.12c6.1,11.7,18.73,20.25,31.19,23.91,3.9,1.15,18.39,1.22,13.62,8.65,2.19-1.27,3.78-.26,4.4-4a6,6,0,0,1-.68,4.05c2-1,4.07-1.06,4.66-3.88a9,9,0,0,0,5.76,3.29,17.55,17.55,0,0,1-1.35-4.73,4.9,4.9,0,0,0,3.48,2,16,16,0,0,1-2.13-2.62c27.69,1,14.06-40.26,6.94-52.57-10.28-17.79-44.31-50.75-64.79-26.15h0Z" transform="translate(2658.36 -3651.27)"/><path class="cls-89" d="M-2618.39,3791.12c0.19,7.31,2.26,14,4.19,21C-2617.55,3805.71-2619.75,3798.39-2618.39,3791.12Z" transform="translate(2658.36 -3651.27)"/><path class="cls-89" d="M-2613.43,3802.26c2.4,7.06,6.11,13.73,12.19,18.24C-2608.2,3817.29-2612.51,3809.67-2613.43,3802.26Z" transform="translate(2658.36 -3651.27)"/><path class="cls-89" d="M-2604.41,3790.36c-0.56,12.35,11.18,25.11,22.1,29.51C-2593.74,3816.75-2606.61,3802.88-2604.41,3790.36Z" transform="translate(2658.36 -3651.27)"/><path class="cls-89" d="M-2598.32,3814.29c7.36,6.57,16.87,10.11,26.18,12.91C-2581.63,3826-2592.13,3821.9-2598.32,3814.29Z" transform="translate(2658.36 -3651.27)"/><path class="cls-89" d="M-2610.89,3818.85c11.61,6.22,22.84,10.56,36.08,11.27C-2588.08,3831-2600.14,3826.43-2610.89,3818.85Z" transform="translate(2658.36 -3651.27)"/><path class="cls-89" d="M-2577.35,3822.15c6.87,2,13.66,4.26,20.58,6.08A48.34,48.34,0,0,1-2577.35,3822.15Z" transform="translate(2658.36 -3651.27)"/><path class="cls-89" d="M-2592.47,3831.9a142.85,142.85,0,0,0,35.58-.38A70.53,70.53,0,0,1-2592.47,3831.9Z" transform="translate(2658.36 -3651.27)"/><path class="cls-89" d="M-2611.77,3787.21c2.25,8.94,4.83,18.09,10.7,25.4C-2608.07,3806.32-2611,3796.31-2611.77,3787.21Z" transform="translate(2658.36 -3651.27)"/><path class="cls-90" d="M-2569.09,3765.37c-12.85-11.67-31.79-17.09-46.33-5.4-5.8,4.67-8.25,9.23-7.67,16.59,0.64,8,.8,17.06,2,25.1,0.76-4.48-.71-8.93.57-13.49a25.7,25.7,0,0,0,3.81,10.64c-2.72-4.7-2.62-11.19-2.16-16.47a50.88,50.88,0,0,0,13.85,25.58c-5.18-5-6.78-14-8-20.89a20.89,20.89,0,0,0,5,8.86,27.12,27.12,0,0,1-1.27-11.14,32.67,32.67,0,0,0,6.86,14.57,20.51,20.51,0,0,1-2-10.64c1.48,18.05,25.78,30.59,40.27,37.23-9.14-1.28-18.21-5.94-26.42-10,7.81,6.75,18.63,10.47,28.46,13.17a205.24,205.24,0,0,1-27.45-.38,64.79,64.79,0,0,0,25.16,3c-7,1.77-14.56,1.73-21.73,1.39a126.64,126.64,0,0,0,17.15,3.17c-13,.17-27.23-3.28-38-10.82a60.51,60.51,0,0,0,26.32,12.72c3.57,0.79,12.46,1.35,8.14,7.34,2.19-1.27,3.78-.25,4.4-4a6.06,6.06,0,0,1-.67,4.06c2-1,4.06-1.06,4.65-3.88a9.07,9.07,0,0,0,5.77,3.29,17.44,17.44,0,0,1-1.36-4.73,4.88,4.88,0,0,0,3.47,2,16.36,16.36,0,0,1-2.12-2.62c13.78,0.59,17.68-13.66,16.6-24.78-1.83-18.94-13.42-37-27.19-49.5h0Z" transform="translate(2658.36 -3651.27)"/><path class="cls-91" d="M-2562.71,3748.42c-8.84.86-11-31.29-14.37-38-4.72-9.46-11.58-13.39-21.19-16.75-7.39-2.58-14.58-3.71-12.63-13.54-3.19,3.74-5.49,9.83-1.86,14.1-4-1.22-7.2,1.52-9.32,4.81,2.6-1.13,6-1.32,8.47.34-10.62,7.48-15.06,21.72-11.36,34.13,1.54,5.17,6.52,9.27,7,14.58,0.56,6.33-5.28,14.07-11.29,15.43,2.12,0.17,2.48,1.91,5.17.93-3.36,6.39-3.27,14.53,4.32,17.73a11,11,0,0,1-1.1-10.89c0.07,6.46,4.27,11.84,10.08,14.44a14.27,14.27,0,0,1,1.1-9.88,10,10,0,0,0,4.07,9.37,20.85,20.85,0,0,1-.85-8.87c-1.09,19,23.91-.54,29.22-3.63s15.28-6.47,19.24-11.18c0.67-.8,2.91-1.1,3-2.06,0.27-3.52-9.12-8.66-11-9.38A2.6,2.6,0,0,0-2562.71,3748.42Z" transform="translate(2658.36 -3651.27)"/><path class="cls-92" d="M-2566,3750.23c1.45-.31,2.68.6,3.31-1.69-2,1.4-5.6.24-7.46-.85a27.46,27.46,0,0,1,7.29,7.26,63.91,63.91,0,0,0-18-9.2c7.21,2.76,10.73,12.36,12.45,19.25a105.63,105.63,0,0,0-16.69-13.59,25.89,25.89,0,0,1,5.59,16,30.39,30.39,0,0,0-10.17-8.52,72.36,72.36,0,0,1,.85,17.47c-4.53-5.73-6.76-13.46-8.22-20.52,0.06,8.53-2.58,17.19-6.26,24.82-3.61-5.53-4.33-13-3.31-19.42-5.14,3.47-7.18,11.15-8.3,16.89-3.79-5.61-3-13.57-.59-19.59a16.79,16.79,0,0,0-4,6.33c-1.08-2.53-1.08-6-.78-8.71-1.87,3.33-5.2,6.65-9.05,7.53,2.12,0.17,2.48,1.91,5.17.93-3.36,6.39-3.27,14.53,4.32,17.73a11,11,0,0,1-1.1-10.89c0.07,6.46,4.27,11.85,10.08,14.44a14.28,14.28,0,0,1,1.1-9.88,10,10,0,0,0,4.07,9.36,26.22,26.22,0,0,1-.85-8.86c-2.54,19.22,24.93-1.13,29.22-3.63,5.3-3.08,15.28-6.47,19.24-11.19,0.67-.8,2.91-1.1,3-2.06C-2554.79,3756.08-2564.18,3751-2566,3750.23Z" transform="translate(2658.36 -3651.27)"/><path class="cls-89" d="M-2564.5,3758.21c-5.15-.32-7.82-6.22-8.47-10.73C-2571,3751.55-2569,3756.48-2564.5,3758.21Z" transform="translate(2658.36 -3651.27)"/><path class="cls-93" d="M-2592.24,3754.22a33.8,33.8,0,0,1-.9-18.66C-2593.17,3741.8-2592.82,3748-2592.24,3754.22Z" transform="translate(2658.36 -3651.27)"/><path class="cls-93" d="M-2600.78,3772.87c0.84-10.1-3.63-20.37-.6-30.29C-2602.81,3752.7-2598.34,3762.87-2600.78,3772.87Z" transform="translate(2658.36 -3651.27)"/><path class="cls-93" d="M-2607.07,3755c-3.78,7.38-5.66,15.43-6.89,23.58C-2614.28,3770.34-2612.15,3761.52-2607.07,3755Z" transform="translate(2658.36 -3651.27)"/><path class="cls-93" d="M-2618.75,3770.64c-0.42-6.26,5.82-10.47,9.29-14.92C-2611.8,3761.18-2617.66,3764.59-2618.75,3770.64Z" transform="translate(2658.36 -3651.27)"/><path class="cls-94" d="M-2588.68,3759a33.63,33.63,0,0,1-.9-18.66C-2589.61,3746.61-2589.26,3752.82-2588.68,3759Z" transform="translate(2658.36 -3651.27)"/><path class="cls-95" d="M-2597.23,3777.69c0.87-10.11-3.61-20.36-.6-30.3C-2599.21,3757.51-2594.78,3767.69-2597.23,3777.69Z" transform="translate(2658.36 -3651.27)"/><path class="cls-96" d="M-2566.19,3749.93c1.39-.25,2.55.55,3.25-1.53-4.89,2.65-9.37-3.88-13-5.89-5.25-2.92-12.26-4.59-17.86-1.79-6.13,3.07-9,10.36-9.93,16.81-8.07-8.58-1.07-17.57-1.73-27.45-0.54-8.16-15.57-18.56-20.54-10.53-7.66,12.38,22.71,37.87-3.47,43.81,2.12,0.17,2.48,1.91,5.16.93-3.36,6.39-3.26,14.52,4.32,17.72a11,11,0,0,1-1.09-10.89c0.07,6.46,4.26,11.84,10.07,14.44a14.28,14.28,0,0,1,1.1-9.88,10,10,0,0,0,4.07,9.37,26.38,26.38,0,0,1-.85-8.86c-1.27,6.2,5.31,8.77,9.33,7.92,6.42-1.35,14.21-8.26,19.88-11.56,5.3-3.08,15.28-6.47,19.24-11.18,0.67-.8,2.91-1.1,3-2.06C-2555,3755.79-2564.35,3750.65-2566.19,3749.93Z" transform="translate(2658.36 -3651.27)"/><g class="cls-97"><path class="cls-98" d="M-2585.06,3753.41c1.47,5.13.95,29.36-5.78,18.23-2.13-3.53-2.22-13.54-2-17.54C-2592.29,3746.4-2587.37,3744.53-2585.06,3753.41Z" transform="translate(2658.36 -3651.27)"/></g><g class="cls-99"><path class="cls-100" d="M-2602.6,3757.27c0.44,4.62-2.76,23.62-7.5,14.26-1.38-2.73.18-10.88,0.88-13.74C-2607.89,3752.28-2603.31,3747.46-2602.6,3757.27Z" transform="translate(2658.36 -3651.27)"/></g><g class="cls-101"><path class="cls-102" d="M-2609.35,3760.68c0.44,4.62-2.76,23.62-7.5,14.25-1.38-2.73.18-10.87,0.88-13.74C-2614.63,3755.68-2610.06,3750.86-2609.35,3760.68Z" transform="translate(2658.36 -3651.27)"/></g><g class="cls-103"><path class="cls-104" d="M-2612.57,3755.36c0.44,4.62-2.76,23.62-7.5,14.25-1.38-2.73.19-10.87,0.88-13.74C-2617.85,3750.35-2613.28,3745.54-2612.57,3755.36Z" transform="translate(2658.36 -3651.27)"/></g><g class="cls-105"><path class="cls-106" d="M-2598.4,3759.59c0.44,4.62-2.77,23.62-7.51,14.25-1.38-2.73.19-10.87,0.89-13.74C-2603.68,3754.59-2599.11,3749.77-2598.4,3759.59Z" transform="translate(2658.36 -3651.27)"/></g><g class="cls-107"><path class="cls-108" d="M-2592.75,3757c0.44,4.62-2.77,23.63-7.51,14.25-1.38-2.73.19-10.87,0.88-13.74C-2598,3752-2593.47,3747.2-2592.75,3757Z" transform="translate(2658.36 -3651.27)"/></g><g class="cls-109"><path class="cls-110" d="M-2566,3750.19c1.45-.26,2.69.55,3.31-1.69-8.84.85-11-31.29-14.37-38-4.72-9.46-11.58-13.39-21.19-16.75-7.39-2.58-14.58-3.71-12.63-13.54-3.18,3.74-5.5,9.82-1.87,14.1-4-1.21-7.2,1.53-9.32,4.81,2.6-1.13,6-1.32,8.47.34a30.09,30.09,0,0,0-9,10.09c4.26-5,11.66-13.85,19-13.16,9.39,0.87,13.47,13.69,12.16,21.47,0.45-.82,3.27-7.21,2.69-7.47,4.59,2.05-2.43,21.52-4.85,23.55a19.62,19.62,0,0,0,7.11-7.22c-2.86,5.72-9.85,14.34-9.83,20.87,0,7.11,9.14,13.32,14.49,16.36,9.73,5.52,12.72,4.68,21.49-1,1.43-.92,5-2.17,5.13-3.63C-2554.88,3755.92-2563.77,3751.07-2566,3750.19Z" transform="translate(2658.36 -3651.27)"/></g><path class="cls-111" d="M-2614.89,3702.57c2.74-5.07,8.83-10.84,14.37-6.15,2.17,1.84,2.52,12.41.87,11.22-3.73-2.73,2.25-10.6-6.55-10.77C-2609.14,3696.82-2615.13,3703.15-2614.89,3702.57Z" transform="translate(2658.36 -3651.27)"/><path class="cls-112" d="M-2602.24,3713.17c-4.83,13.07-18.08,6.61-13.42-5.76,4.92-13,18-6.65,13.42,5.76C-2604.35,3718.89-2600.13,3707.44-2602.24,3713.17Z" transform="translate(2658.36 -3651.27)"/><path class="cls-113" d="M-2602.41,3713.14c-4.89,12.76-17.63,6.42-13.07-5.7,4.82-12.81,17.41-6.55,13.07,5.7,5.2-11.75-8.47-19.08-13.42-5.76-4.8,12.94,9.48,18.22,13.42,5.76C-2603.89,3717-2602.37,3713-2602.41,3713.14Z" transform="translate(2658.36 -3651.27)"/><g class="cls-114"><path class="cls-115" d="M-2602.3,3713.14c4.58-12.4-8.49-18.81-13.41-5.76-4.67,12.37,8.58,18.83,13.41,5.76h0Zm-9.21,6.31c-7.87-3.38-1.56-21.45,6.74-18.26,8,3.08,1.4,21.75-6.74,18.26h0Z" transform="translate(2658.36 -3651.27)"/></g><path class="cls-116" d="M-2602.22,3712.24c-2.78,8.53-12.08,5.54-9.31-3,2.68-8.26,12.3-6.18,9.31,3h0Z" transform="translate(2658.36 -3651.27)"/><g class="cls-114"><path class="cls-117" d="M-2603.83,3712.92c-1.77,6.32-8.51,4.46-6.74-1.88s8.52-4.45,6.74,1.88h0Z" transform="translate(2658.36 -3651.27)"/></g><path class="cls-118" d="M-2602,3709c-0.1,7.23-4.1-.06-3.94-0.06-0.17,0,4.05-7.18,3.94.06C-2602.05,3710.78-2602,3707.19-2602,3709Z" transform="translate(2658.36 -3651.27)"/><path class="cls-119" d="M-2594.73,3700c3.72,3.64,7.42,11,3.81,15.83C-2589.57,3710.52-2592.59,3704.85-2594.73,3700Z" transform="translate(2658.36 -3651.27)"/><path class="cls-119" d="M-2586.85,3711.82c0.93,5.9.69,13.34-4.07,17.6C-2588.05,3724-2588.08,3717.71-2586.85,3711.82Z" transform="translate(2658.36 -3651.27)"/><path class="cls-119" d="M-2584.06,3715c4.74,7.42,3.29,19.14-1.14,26.34C-2582.75,3733.26-2581.31,3723.21-2584.06,3715Z" transform="translate(2658.36 -3651.27)"/><path class="cls-119" d="M-2577.84,3725.75c1.63,7.85,2.39,16.67-.12,24.44C-2577.75,3742.05-2578.44,3733.87-2577.84,3725.75Z" transform="translate(2658.36 -3651.27)"/><path class="cls-119" d="M-2585.46,3704.85c10.45,9.64,17.08,26.13,14.23,40.27C-2570.89,3730.63-2576.66,3716.22-2585.46,3704.85Z" transform="translate(2658.36 -3651.27)"/><path class="cls-120" d="M-2583,3738.12c2.93-9.16,1.69-19.65-2.55-28.19,1,1.56,2.47,2.86,3.56,4.39-1.85-7.48-7.74-13.68-14.4-17.22l2.88,0.34c-9.71-4.7-24.17-2-17.67-17.37-3.19,3.74-5.49,9.83-1.86,14.1-4-1.22-7.2,1.52-9.32,4.81,2.6-1.13,6-1.31,8.47.34a30,30,0,0,0-9,10.1c4.24-5,11.66-13.85,19-13.16,9.39,0.87,13.47,13.68,12.16,21.47,0.45-.81,3.27-7.22,2.69-7.47,4.6,2-2.45,21.53-4.85,23.55a19.7,19.7,0,0,0,7.12-7.22c-5.05,10.28-14.45,20-4.8,30,3.39-6.6,6.42-13.9,7.18-21.36Z" transform="translate(2658.36 -3651.27)"/><path class="cls-121" d="M-2615.4,3720.9c-1.83-9.69-11.88-13-20.73-11.38a28.23,28.23,0,0,0-19.13,13.64c-0.55,1-4.48,16.89-1.49,15.56s4.59-7.41,9.49-5c0.32,0.16.25,3.28,0.72,3.71,6.29,5.8,9.88,10.77,20.23,9,6.79-1.17,14-6.36,16.65-12.88C-2607.75,3728.87-2607.31,3718.06-2615.4,3720.9Z" transform="translate(2658.36 -3651.27)"/><path class="cls-122" d="M-2629.82,3746.9c-4.48,0-9.94-1.22-13.33-4.41-1.56-1.47-2.76-5.83-4.06-6.75-4.52-3.21-4.72,1.08-9.46,3.16-3.39,1.5-.32-12.54-0.22-12.81,2-5.36,6.33-9.89,11.08-12.88,9.71-6.12,20.81-5.86,28.53,2.49,1.57,1.7,2.86,3.86,3.78,4.81,3.19,3.3,6.45,3.63,4.86,10.53C-2610.72,3740.06-2620.91,3746.9-2629.82,3746.9Zm-18.95-13.52c3.15,0,1.14,2.63,2.77,4.76,5,6.5,11.67,9.75,20.28,8,6.45-1.33,13.3-6.45,15.88-12.65,2-4.78,2.32-15.06-5.73-12.3-1.57-9-10.13-12.44-18.47-11.68a27.34,27.34,0,0,0-20.19,12.44c-0.33.52-6.9,16.67-2.8,16.67C-2654.94,3738.59-2652.55,3733.38-2648.77,3733.38Z" transform="translate(2658.36 -3651.27)"/><path class="cls-123" d="M-2612.26,3727.77c-1.27,8-5.47,13.51-13.49,15.08-4.68.92-24.08-.7-21.5-9.14,7.79,1.19,14.42,7.16,22.67,5.36a13.27,13.27,0,0,0,8.54-5.55C-2615.06,3732.08-2614.59,3724.75-2612.26,3727.77Z" transform="translate(2658.36 -3651.27)"/><path class="cls-124" d="M-2612,3728.28c2.29,0-5-.8-3.77-0.2C-2617.95,3726.83-2610.3,3728.28-2612,3728.28Z" transform="translate(2658.36 -3651.27)"/><path class="cls-124" d="M-2627.81,3739.51c-1.4,0-19.69-4.65-19.64-5.8,0-.49,15.13,4.91,16.36,5.05,4.66,0.54,9.21.29,12.9-3,0.71-.63,5.65-8.91,4.51-9.12,1.43,0.19-2.61,7.47-3.23,8.18A13.84,13.84,0,0,1-2627.81,3739.51Z" transform="translate(2658.36 -3651.27)"/><path class="cls-125" d="M-2615.31,3720.81c-1.78-9.41-11.4-12.9-20.1-11.48,16.29-.89,24.44,21.45,5.83,24.5-5,.82-9.06-2.22-13.84-2.47-3.12-.17-5.53,1.39-8.41,1.7-2.24.24-3.2,2.83-5.16,1.11s2.58-11.94,3.4-13.56c-0.64.9-6.55,19.57-3.08,18,2.95-1.32,4.58-7.42,9.49-5,0.32,0.16.25,3.27,0.72,3.71,6.29,5.8,9.88,10.77,20.22,9,6.79-1.17,14-6.35,16.65-12.87C-2607.67,3728.79-2607.22,3718-2615.31,3720.81Z" transform="translate(2658.36 -3651.27)"/><path class="cls-123" d="M-2647.2,3735.12c7.86,5.22,18.37,7.2,26.93,2.41C-2626.12,3740.56-2646.58,3733.55-2647.2,3735.12Z" transform="translate(2658.36 -3651.27)"/><path class="cls-126" d="M-2645.44,3713.41c5.79-4,23.86-3.73,15.86,5.75-2.39,2.83-10.27,2.75-13.61,3.86-1.86.62-12.12,7.44-13.05,7.07-3.78-1.48,9.5-15.77,10.81-16.69h0Z" transform="translate(2658.36 -3651.27)"/><path class="cls-126" d="M-2640.28,3710.93c1.2-.43,7.66-1,7.87,1.65,0.16,1.91-3,1.71-3.91,2.5s-15.21,7.67-15.8,7.38c-3.42-1.62,11.43-11.39,11.84-11.53h0Z" transform="translate(2658.36 -3651.27)"/><path class="cls-127" d="M-2568.39,3750.78c-8.57-8-24.74-15.68-29.83.06-1.44,4.46-.36,9.61-1.32,14.24-1.23,6-3.73,11.08-3.58,17.42,0.24,10.3,6.64,17.92,14,24.5,4.54,4.06,9.15,5.45,14.12,8.34,5.17,3,8.18,7.39,14.49,9.32a17.57,17.57,0,0,1-3.39-4A29.06,29.06,0,0,0-2551,3827a6.43,6.43,0,0,1-2.92-3.73c6.32,5.82,15,9.75,23.69,9.31-1.22-1.1-2-2.7-3.3-3.74,4.94,1.8,10.46,3.28,15.76,3l-4.13-5.38a37.56,37.56,0,0,1,5.46,4.37c0.66-5.58-2.4-11.08-5.21-15.7,2,1.94,4.53,4.59,5.4,7.28-0.4-8.78-5.77-17-11.62-23.18a28,28,0,0,1,7.75,6.84c-2-7.38-7.85-13.67-13.46-18.56a10.2,10.2,0,0,1,4.51,3C-2536.72,3773.8-2551.68,3758.42-2568.39,3750.78Z" transform="translate(2658.36 -3651.27)"/><path class="cls-83" d="M-2528.35,3809.64c0.91-1,6.24,4.75,6.73,5.51A54.16,54.16,0,0,0-2528.35,3809.64Z" transform="translate(2658.36 -3651.27)"/><path class="cls-83" d="M-2537.37,3784.76a13.85,13.85,0,0,1,3.82,2.79A18.65,18.65,0,0,1-2537.37,3784.76Z" transform="translate(2658.36 -3651.27)"/><path class="cls-83" d="M-2538.07,3778a49.91,49.91,0,0,0-9.34-6.77A20.16,20.16,0,0,1-2538.07,3778Z" transform="translate(2658.36 -3651.27)"/><path class="cls-83" d="M-2522.06,3826.23a62.92,62.92,0,0,0-7-6.14A16.43,16.43,0,0,1-2522.06,3826.23Z" transform="translate(2658.36 -3651.27)"/><path class="cls-83" d="M-2529.11,3821.1a26.72,26.72,0,0,1,7.24,5.38A81.48,81.48,0,0,1-2529.11,3821.1Z" transform="translate(2658.36 -3651.27)"/><path class="cls-83" d="M-2542.64,3823.25c2.95,2,6,3.84,9.15,5.57A22.62,22.62,0,0,1-2542.64,3823.25Z" transform="translate(2658.36 -3651.27)"/><path class="cls-83" d="M-2555.54,3820.66c0.5,0.89,1.19,1.66,1.65,2.59C-2555.13,3822.57-2554.94,3821.73-2555.54,3820.66Z" transform="translate(2658.36 -3651.27)"/><path class="cls-83" d="M-2575.74,3808.44c3.83,4.19,7.71,8.33,11.84,12.23A53.29,53.29,0,0,1-2575.74,3808.44Z" transform="translate(2658.36 -3651.27)"/><path class="cls-83" d="M-2555.35,3819.58c-5-1.84-9.92-5-12.76-9.62C-2564.74,3814.14-2560.06,3817.1-2555.35,3819.58Z" transform="translate(2658.36 -3651.27)"/><path class="cls-83" d="M-2575.34,3814.94a19.13,19.13,0,0,1-7.13-11.06A33.55,33.55,0,0,0-2575.34,3814.94Z" transform="translate(2658.36 -3651.27)"/><path class="cls-83" d="M-2591.69,3804A25.84,25.84,0,0,1-2596,3787,38.66,38.66,0,0,0-2591.69,3804Z" transform="translate(2658.36 -3651.27)"/><path class="cls-83" d="M-2596.89,3774.57c-0.39,5.29.47,12.12,2.86,15.81,1.87-2.58,1.79-6.76,2-9.74,0.1,3.53,0,7.11-1.81,10.23-3.9-4.15-4-11-3.08-16.3C-2597,3776-2597,3775.25-2596.89,3774.57Z" transform="translate(2658.36 -3651.27)"/><path class="cls-83" d="M-2578.22,3788.37a22.92,22.92,0,0,0,2.71,8.15c-3.86-1.44-6-4.81-7.28-8.59,1.2,2.93,3.6,6.73,6.75,7.87-1.24-1.12-2-4.61-2.18-7.42C-2578.09,3789-2578.18,3789-2578.22,3788.37Z" transform="translate(2658.36 -3651.27)"/><path class="cls-83" d="M-2592.19,3784.06a21.61,21.61,0,0,0,10.77,15,41.37,41.37,0,0,0-.22-8.48,19.33,19.33,0,0,1,.28,9,19.83,19.83,0,0,1-10.83-15.54C-2592,3784.85-2592.12,3784.86-2592.19,3784.06Z" transform="translate(2658.36 -3651.27)"/><path class="cls-83" d="M-2599,3762.6c0.26,2.82,2,6.39,2.93,8a21.44,21.44,0,0,1,1.52-6.69,41.33,41.33,0,0,0-1.07,7.29,10.57,10.57,0,0,1-3.38-8.62C-2599,3763-2599,3763.34-2599,3762.6Z" transform="translate(2658.36 -3651.27)"/><path class="cls-83" d="M-2574.91,3748.29a15.22,15.22,0,0,1,6.52,2.49A58.17,58.17,0,0,1-2574.91,3748.29Z" transform="translate(2658.36 -3651.27)"/><path class="cls-83" d="M-2573.14,3811.39a56.71,56.71,0,0,0,6.72,5,21.61,21.61,0,0,1-1.39-5.92c0.66,2.07,1.33,4.11,2,6.17C-2568.82,3815.89-2571.19,3813.8-2573.14,3811.39Z" transform="translate(2658.36 -3651.27)"/><path class="cls-83" d="M-2538.2,3797a57.72,57.72,0,0,1,17.79,19.63C-2526.52,3810.37-2532.5,3803.72-2538.2,3797Z" transform="translate(2658.36 -3651.27)"/><path class="cls-83" d="M-2540.87,3806.54c8.1,4.58,17.47,10.36,21,19.5C-2525.51,3818.08-2533.9,3813.15-2540.87,3806.54Z" transform="translate(2658.36 -3651.27)"/><path class="cls-83" d="M-2545.82,3805.14c7.7,8,14.58,16.64,23.25,23.68C-2532.55,3823.77-2540.08,3814.5-2545.82,3805.14Z" transform="translate(2658.36 -3651.27)"/><path class="cls-83" d="M-2527.06,3829a52.77,52.77,0,0,1-26.93-20.35A137,137,0,0,0-2527.06,3829Z" transform="translate(2658.36 -3651.27)"/><path class="cls-83" d="M-2566.53,3804.3c7.34,8,15.5,20.3,25.58,24.9C-2551.53,3826.66-2561.32,3812.87-2566.53,3804.3Z" transform="translate(2658.36 -3651.27)"/><path class="cls-83" d="M-2528.67,3800.21c-5.62-11.48-14.67-16.24-24-23.43,3.19,2.45,8.33,3.15,11.86,6C-2535.41,3787.19-2530.35,3793.31-2528.67,3800.21Z" transform="translate(2658.36 -3651.27)"/><path class="cls-83" d="M-2599,3771.21c-0.39,7.86-1.2,15.66.76,23.38C-2602.37,3787.67-2601.56,3778.55-2599,3771.21Z" transform="translate(2658.36 -3651.27)"/><path class="cls-83" d="M-2594.06,3768.68c0.12,5.67-1.8,11.82-.08,17.39C-2597.91,3781.33-2595.9,3773.86-2594.06,3768.68Z" transform="translate(2658.36 -3651.27)"/><path class="cls-83" d="M-2583.47,3794.85c-4.07-7.39-14.21-16.72-10.25-25.92C-2595.09,3778.65-2585.79,3786-2583.47,3794.85Z" transform="translate(2658.36 -3651.27)"/><path class="cls-83" d="M-2537.39,3782.18a83.08,83.08,0,0,0-24.48-20.43C-2552,3764.54-2541.77,3772.94-2537.39,3782.18Z" transform="translate(2658.36 -3651.27)"/><path class="cls-83" d="M-2580.93,3800.84c2.7,5.51,5.47,10.94,8.47,16.29A24.67,24.67,0,0,1-2580.93,3800.84Z" transform="translate(2658.36 -3651.27)"/><path class="cls-83" d="M-2579.74,3811.73c-5.79-2.88-10.8-10.39-10.42-17A41.46,41.46,0,0,0-2579.74,3811.73Z" transform="translate(2658.36 -3651.27)"/><path class="cls-128" d="M-2544.38,3787a57.78,57.78,0,0,1,17.79,19.62C-2532.71,3800.33-2538.68,3793.67-2544.38,3787Z" transform="translate(2658.36 -3651.27)"/><path class="cls-128" d="M-2547,3796.49c8.11,4.59,17.44,10.37,21,19.5C-2531.7,3808-2540.08,3803.1-2547,3796.49Z" transform="translate(2658.36 -3651.27)"/><path class="cls-128" d="M-2552,3795.1c7.68,8,14.59,16.63,23.25,23.68C-2538.74,3813.73-2546.25,3804.45-2552,3795.1Z" transform="translate(2658.36 -3651.27)"/><path class="cls-128" d="M-2533.24,3819a52.75,52.75,0,0,1-26.93-20.35A136.56,136.56,0,0,0-2533.24,3819Z" transform="translate(2658.36 -3651.27)"/><path class="cls-128" d="M-2572.71,3794.26c7.35,8,15.49,20.31,25.58,24.9C-2557.71,3816.64-2567.51,3802.8-2572.71,3794.26Z" transform="translate(2658.36 -3651.27)"/><g class="cls-129"><path class="cls-118" d="M-2559,3805.49c-7.43-5.53-15.7-14.52-15.25-24.49C-2572.4,3790.65-2565,3798.21-2559,3805.49Z" transform="translate(2658.36 -3651.27)"/><path class="cls-118" d="M-2551.53,3800.08c-13.38-1.37-27.05-30.58-34.22-41.2a206.55,206.55,0,0,1,18.09,23.55C-2563.68,3788.44-2559,3797.92-2551.53,3800.08Z" transform="translate(2658.36 -3651.27)"/><path class="cls-118" d="M-2542.89,3795c-10.79-12.13-21.23-29.11-35.06-37.65C-2563.83,3763.39-2551.15,3782.56-2542.89,3795Z" transform="translate(2658.36 -3651.27)"/><path class="cls-118" d="M-2548.66,3774.59c-5.53-4.25-11.12-8.48-16.43-13A36.67,36.67,0,0,1-2548.66,3774.59Z" transform="translate(2658.36 -3651.27)"/><path class="cls-118" d="M-2593,3747.74c-1.44,13.14,4.4,26.35,9,38.33C-2590.59,3775.38-2596.72,3760.45-2593,3747.74Z" transform="translate(2658.36 -3651.27)"/><path class="cls-118" d="M-2590.49,3754c2.8,8.46,6.48,16.48,10,24.65C-2585.95,3771.67-2590,3762.89-2590.49,3754Z" transform="translate(2658.36 -3651.27)"/><path class="cls-118" d="M-2576.43,3753c10.15,1.56,22.39,5.62,28.46,14.52C-2555.89,3760.13-2566.59,3756.83-2576.43,3753Z" transform="translate(2658.36 -3651.27)"/><path class="cls-118" d="M-2573.22,3751.79c-4.79-2.31-9.63-4.8-14.91-5.74C-2582.72,3744.8-2576.75,3747.75-2573.22,3751.79Z" transform="translate(2658.36 -3651.27)"/><path class="cls-118" d="M-2580.84,3756.52c-1.64-3.67-4.1-7.12-8-8.61C-2584,3747.3-2580.58,3752-2580.84,3756.52Z" transform="translate(2658.36 -3651.27)"/></g><path class="cls-130" d="M-2532.48,3792.48a58.22,58.22,0,0,1,8,18.74c-0.89-1.79-2.92-2.64-4.19-4.05a20.53,20.53,0,0,1,6.35,15.19,24.29,24.29,0,0,0-6.23-6.21c0.28,0.21,7,7.43,4,7.78a26.88,26.88,0,0,1-3.51-1.59c-0.52.14,2.61,4.33,3,4.7-5.48-1.66-10.83-3.81-16.14-5.95a20.21,20.21,0,0,1,6.35,7.09c-10-.23-25.14-10-32.4-16.59,0.59,1.47.54,3.2,1.11,4.68-7.17-3.87-9.81-10.7-15.05-16.2-4.4-4.62-8.56-7.36-11.2-13.68a12.14,12.14,0,0,1-1.4,4.11c-3.9-6.45-1.78-11.71-2.35-18.39-0.24-2.83-1.85-5.55-3-8.75-2.81,18.08-6.7,26.62,7.6,40.78,4.74,4.69,8.86,6.91,14.43,10.3s10,8.18,16.6,10.18a17.57,17.57,0,0,1-3.39-4A29.06,29.06,0,0,0-2551,3827a6.43,6.43,0,0,1-2.92-3.73c6.32,5.82,15,9.75,23.69,9.31-1.22-1.1-2-2.7-3.3-3.74,4.94,1.8,10.46,3.28,15.76,3l-4.13-5.38a37.56,37.56,0,0,1,5.46,4.37c0.66-5.58-2.4-11.08-5.21-15.7,2,1.94,4.53,4.59,5.4,7.28-0.4-8.78-5.77-17-11.62-23.18a28,28,0,0,1,7.75,6.84A32.47,32.47,0,0,0-2532.48,3792.48Z" transform="translate(2658.36 -3651.27)"/><path class="cls-120" d="M-2593.88,3755.34c0.64,8.55,2.59,17.95,7.45,25.16a65.29,65.29,0,0,0-1.36-15c6.58,12.25,13.8,27.71,24.73,36.64a51.16,51.16,0,0,0-8.64-23.8c8.21,7.28,17,14.73,23.72,23.47-2.24-10.62-7.82-20.74-14.9-28.87,9.54,5.66,19.12,12.57,26.08,21.27a53.56,53.56,0,0,0-18.29-25.66,28.72,28.72,0,0,1,12.2,7.26c-4-4.54-9-10-14.73-12.16a18.87,18.87,0,0,1,11.51,5.4c-5.22-6.34-19.88-16.37-28-15.74,3.73-.28,8.29,1.68,11.92,2.58-7.26-4.21-15.74-8.87-24.22-9.63a32.27,32.27,0,0,1,9.49.84c-17-8.38-21.71,1.44-19.65,17.56C-2596.44,3761.71-2596.08,3757.53-2593.88,3755.34Z" transform="translate(2658.36 -3651.27)"/><g class="cls-131"><path class="cls-132" d="M-2583.17,3800.59c3.63,6,8.36,12.06,14.25,16,5.46,3.62,15.46,7.65,13.45-1.66-1.49-6.91-12.05-15.4-16.76-20.21-2.39-2.44-7.59-9.63-11.74-7.66C-2588.74,3789.3-2585,3797.76-2583.17,3800.59Z" transform="translate(2658.36 -3651.27)"/></g><g class="cls-133"><path class="cls-134" d="M-2546.66,3813.39c3,5,20.59,22,19.14,9.53-0.48-4.11-9.21-11.76-12.26-14.51C-2546.13,3802.71-2552.64,3804.07-2546.66,3813.39Z" transform="translate(2658.36 -3651.27)"/></g><g class="cls-135"><path class="cls-136" d="M-2537,3811.7c3,5,20.59,22,19.14,9.52-0.48-4.11-9.21-11.77-12.26-14.51C-2536.49,3801-2543,3802.39-2537,3811.7Z" transform="translate(2658.36 -3651.27)"/></g><g class="cls-137"><path class="cls-138" d="M-2537.82,3803.69c3,5,20.59,22,19.14,9.53-0.48-4.11-9.21-11.77-12.26-14.51C-2537.29,3793-2543.81,3794.39-2537.82,3803.69Z" transform="translate(2658.36 -3651.27)"/></g><g class="cls-139"><path class="cls-140" d="M-2555,3799.86c2.8,4.64,22.27,24.55,21.72,11.34-0.2-4.83-10-12.84-13.19-16C-2553.38,3788.43-2562.23,3788.69-2555,3799.86Z" transform="translate(2658.36 -3651.27)"/></g><g class="cls-141"><path class="cls-142" d="M-2544.3,3798c2.8,4.64,22.27,24.55,21.73,11.34-0.2-4.83-10-12.84-13.19-16C-2542.62,3786.54-2551.49,3786.8-2544.3,3798Z" transform="translate(2658.36 -3651.27)"/></g><g class="cls-143"><path class="cls-144" d="M-2545.2,3789.05c2.8,4.64,22.27,24.54,21.73,11.34-0.2-4.83-10-12.83-13.19-16C-2543.52,3777.62-2552.38,3777.87-2545.2,3789.05Z" transform="translate(2658.36 -3651.27)"/></g><g class="cls-145"><path class="cls-146" d="M-2557,3815.07c2.8,4.64,22.27,24.54,21.73,11.34-0.2-4.83-10-12.84-13.19-16C-2555.33,3803.64-2564.19,3803.9-2557,3815.07Z" transform="translate(2658.36 -3651.27)"/></g><g class="cls-147"><path class="cls-148" d="M-2557.9,3806.14c2.8,4.64,22.27,24.55,21.73,11.34-0.2-4.83-10-12.84-13.19-16C-2556.23,3794.71-2565.08,3795-2557.9,3806.14Z" transform="translate(2658.36 -3651.27)"/></g><g class="cls-149"><path class="cls-150" d="M-2566.66,3808c2.8,4.64,22.27,24.56,21.72,11.34-0.2-4.83-10-12.84-13.19-16C-2565,3796.61-2573.85,3796.87-2566.66,3808Z" transform="translate(2658.36 -3651.27)"/></g><g class="cls-151"><path class="cls-152" d="M-2594.05,3790.24c2.09,5.52,20.65,32.49,23.51,19.5,1.28-5.81-9-17.9-11.85-22.16-1.73-2.55-5-9.63-8.57-9.65C-2597.07,3777.9-2595.5,3786.7-2594.05,3790.24Z" transform="translate(2658.36 -3651.27)"/></g><g class="cls-153"><path class="cls-154" d="M-2570.42,3779.6c2.8,4.64,22.26,24.55,21.72,11.34-0.2-4.83-10-12.84-13.19-16C-2568.75,3768.17-2577.61,3768.43-2570.42,3779.6Z" transform="translate(2658.36 -3651.27)"/></g><g class="cls-155"><path class="cls-156" d="M-2559.67,3777.72c2.8,4.64,22.27,24.55,21.72,11.34-0.2-4.83-10-12.84-13.19-16C-2558,3766.28-2566.85,3766.54-2559.67,3777.72Z" transform="translate(2658.36 -3651.27)"/></g><g class="cls-157"><path class="cls-158" d="M-2560.57,3768.79c2.8,4.64,22.27,24.54,21.73,11.34-0.2-4.83-10-12.84-13.19-16C-2558.9,3757.36-2567.75,3757.61-2560.57,3768.79Z" transform="translate(2658.36 -3651.27)"/></g><g class="cls-159"><path class="cls-160" d="M-2573.27,3785.88c2.8,4.64,22.27,24.56,21.72,11.34-0.2-4.83-10-12.83-13.19-16C-2571.59,3774.46-2580.46,3774.71-2573.27,3785.88Z" transform="translate(2658.36 -3651.27)"/></g><g class="cls-161"><path class="cls-162" d="M-2582,3787.79c2.8,4.64,22.27,24.54,21.73,11.34-0.2-4.83-10-12.83-13.19-16C-2580.36,3776.35-2589.22,3776.6-2582,3787.79Z" transform="translate(2658.36 -3651.27)"/></g><path class="cls-163" d="M-2548.23,3739.13c6.08,5.11,20.94,2.87,11.38-5.32-4.41-3.78-12.49-5.35-18-7.05,0.18,4.89,2.9,9.27,6.6,12.37h0Z" transform="translate(2658.36 -3651.27)"/><path class="cls-164" d="M-2549.33,3737.78c4.94,4.16,14.91,3.06,9.3-3.92-2.57-3.2-10.76-4.58-14.46-5.73a13.67,13.67,0,0,0,5.15,9.65C-2543.95,3742.3-2554.77,3733.21-2549.33,3737.78Z" transform="translate(2658.36 -3651.27)"/><path class="cls-163" d="M-2631.36,3664.37c4.37,5.32,11.59,7.18,18.2,6.23-4.37-4.59-6.52-14.31-12.41-17.06-7.95-3.71-10.44,4.65-5.79,10.83C-2624.51,3672.71-2636.39,3657.68-2631.36,3664.37Z" transform="translate(2658.36 -3651.27)"/><path class="cls-164" d="M-2628.85,3666.69c3.52,4.3,9.36,5.77,14.68,5-3.19-3.41-6.09-13.61-11.13-14.61-6.53-1.29-6.51,5.65-3.55,9.58C-2623.34,3673.42-2632.92,3661.29-2628.85,3666.69Z" transform="translate(2658.36 -3651.27)"/><path class="cls-165" d="M-2555.13,3732.86c-8.82-20.39,15.37-54.54-14.21-65.6-18.89-7.06-60.47,21.72-67-10.66-4.13,24.49,27.82,37.93,43.2,49.43,10.32,7.72,42.91,53.78,59.4,36.47-7.94,4.63-18.21-2.24-21.4-9.64C-2558.79,3724.4-2551.88,3740.39-2555.13,3732.86Z" transform="translate(2658.36 -3651.27)"/><path class="cls-166" d="M-2624.4,3671c13.81,6.42,29.16-4.52,43.17-5.17,16-.74,27,9.67,27.26,25.55,0.23,11.9-4.35,24-2.47,35.93,0.92,5.78,3.5,10.69,8.63,13.9,3.37,2.11,18.57,5.2,14.78-3.43,1.6,10.48-17.77-.06-20-4.5-1.55-3.06-1.79-6-2-9.36-1.11-17.74,9.61-37.87-5-52.52-15.44-15.48-34.92-2.66-52.82-.88-5.49.54-11.22,0.08-15.75-3.52-4.88-3.87-8.82-16.87,1.66-14.54-6-3.36-9.59.64-8.77,6.36,0.75,5.26,7.08,10,11.32,12.19C-2612.79,3676.44-2632.68,3666.73-2624.4,3671Z" transform="translate(2658.36 -3651.27)"/><path class="cls-167" d="M-2591.41,3669.08c7-1.89,15.11-2.25,22,.52,14.26,5.76,14.72,19.41,12.52,32.47-1.82,10.8-2.59,14.83-12.25,7.24-5.06-4-9.5-8.68-14.72-12.48-0.92-.67-7-3.69-7.34-4.55,2.76,7.24,14.48,13.72,18.91,20.51,4.06,6.22,8.14,13.51-.84,7.91-12.29-7.68-22.42-18.81-35-26.47-6.58-4-12.66-7.66-17.49-13.79-0.57-.73-6.27-12.22-6.08-12.16,6.56,2.17,8.59,6.92,16.58,7C-2606.86,3675.3-2599.27,3671.14-2591.41,3669.08Z" transform="translate(2658.36 -3651.27)"/><path class="cls-168" d="M-2572.85,3681.54c-1.91-1.75-6.31,3.05-4.38,4.8s6.31-3.06,4.38-4.8h0Z" transform="translate(2658.36 -3651.27)"/><path class="cls-168" d="M-2569.21,3685.29c-1.85-1.69-6,2.9-4.19,4.57s6-2.9,4.19-4.57C-2569.94,3684.62-2568.47,3686-2569.21,3685.29Z" transform="translate(2658.36 -3651.27)"/><path class="cls-118" d="M-2568.43,3680.78c-7-5.94-14.31,6.91-11.86,9.15a2.9,2.9,0,0,0,2.23,0c0.43,2.28-.56,1.24,1.76,1.84a1.72,1.72,0,0,0,.18,1.88c1.26,1.35,15.12-6.49,7.68-12.82h0Zm-8.8,5.56c-1.93-1.74,2.47-6.54,4.38-4.8s-2.46,6.54-4.38,4.8h0Zm0.42,2.8c-0.48-.44.53,0.45,0,0h0Zm1.3,1.24c-0.58-.55.6,0.53,0,0h0Zm2.12-.5c-1.85-1.67,2.34-6.27,4.19-4.57s-2.35,6.26-4.19,4.57h0Z" transform="translate(2658.36 -3651.27)"/><path class="cls-118" d="M-2581.3,3690.45c0.69,0.57,4.25,3.48,4.34,4.39C-2576.81,3696.32-2583.69,3692.92-2581.3,3690.45Z" transform="translate(2658.36 -3651.27)"/><path class="cls-118" d="M-2565.42,3685.41c1.81-.13,5.63,1.55,6.85,1.19,0.35-.1.25-2.46,0-2.69C-2559.2,3683.41-2565.23,3685-2565.42,3685.41Z" transform="translate(2658.36 -3651.27)"/><path class="cls-118" d="M-2575.09,3678.52c-0.77-1.43-1.75-8.21-1-7.57a3.21,3.21,0,0,1-2.87.33C-2579.43,3671.79-2575.32,3678.26-2575.09,3678.52Z" transform="translate(2658.36 -3651.27)"/><path class="cls-118" d="M-2580.22,3684.32c-3.28.83-10.65,1.11-12.47,1.91-0.81.36,0.09,3.07,1.07,3C-2590,3688.93-2580.76,3685.71-2580.22,3684.32Z" transform="translate(2658.36 -3651.27)"/><path class="cls-118" d="M-2571.81,3693.57c0.53,2.38,2.86,7.48,3,8.9,0.06,0.71-2.21,1.18-2.53.44C-2571.86,3701.37-2572.23,3694.82-2571.81,3693.57Z" transform="translate(2658.36 -3651.27)"/><path class="cls-169" d="M-2588.43,3670.61s17.18-4.27,24.53,4.3S-2568.13,3672-2588.43,3670.61Z" transform="translate(2658.36 -3651.27)"/><path class="cls-169" d="M-2613.87,3689.36s17.76,5.48,29.46,19.41S-2587.24,3693.19-2613.87,3689.36Z" transform="translate(2658.36 -3651.27)"/><path class="cls-118" d="M-2587,3665.73s15.32-3.73,24.81,5.15C-2559.8,3673-2568.93,3659.69-2587,3665.73Z" transform="translate(2658.36 -3651.27)"/></g></g></svg>