<svg xmlns="http://www.w3.org/2000/svg" xmlns:xlink="http://www.w3.org/1999/xlink" viewBox="0 0 387.89 543.08"><defs><style>.cls-1{isolation:isolate;}.cls-2{mask:url(#mask);}.cls-3{fill:url(#radial-gradient);}.cls-4{fill:#99ddea;}.cls-37,.cls-5{opacity:0.5;}.cls-23,.cls-25,.cls-33,.cls-35,.cls-37,.cls-40,.cls-43,.cls-46,.cls-5,.cls-51,.cls-55,.cls-59,.cls-63,.cls-71,.cls-74,.cls-83,.cls-92{mix-blend-mode:multiply;}.cls-6{mask:url(#mask-2);}.cls-7{fill:url(#radial-gradient-2);}.cls-8{fill:#4bc2da;}.cls-9{mask:url(#mask-3);}.cls-10{fill:url(#radial-gradient-3);}.cls-11{mask:url(#mask-4);}.cls-12{fill:url(#radial-gradient-4);}.cls-13{mask:url(#mask-5);}.cls-14{fill:url(#radial-gradient-5);}.cls-15{mask:url(#mask-6);}.cls-16{fill:url(#radial-gradient-6);}.cls-17{mask:url(#mask-7);}.cls-18{fill:url(#radial-gradient-7);}.cls-19{mask:url(#mask-8);}.cls-20{fill:url(#radial-gradient-8);}.cls-21,.cls-24,.cls-25,.cls-35{fill:#f7c7a2;}.cls-21,.cls-22{stroke:#ac6000;stroke-miterlimit:10;stroke-width:1px;}.cls-22,.cls-27{fill:#f4d0b8;}.cls-23,.cls-25{opacity:0.7;}.cls-26{fill:#ac6000;}.cls-28{fill:#a0d864;}.cls-29{fill:#b0df7d;}.cls-30{fill:#b6e187;}.cls-31,.cls-37{fill:#83cc35;}.cls-100,.cls-32,.cls-48,.cls-49,.cls-54,.cls-56,.cls-70,.cls-76,.cls-77,.cls-78,.cls-84,.cls-85,.cls-86,.cls-87,.cls-88,.cls-89,.cls-90,.cls-94,.cls-95,.cls-97,.cls-99{mix-blend-mode:screen;}.cls-33{opacity:0.3;}.cls-34{fill:#90d249;}.cls-36{fill:#5b8f24;}.cls-38{fill:url(#Earthtone_11);}.cls-39{fill:#231f20;}.cls-40,.cls-83{opacity:0.36;}.cls-40{fill:url(#radial-gradient-9);}.cls-41{fill:#cb804a;}.cls-42{fill:#673000;}.cls-43,.cls-65{opacity:0.37;}.cls-43{fill:url(#radial-gradient-10);}.cls-44{fill:url(#radial-gradient-11);}.cls-45{fill:#4c0800;}.cls-46{opacity:0.34;}.cls-47{fill:url(#radial-gradient-12);}.cls-48,.cls-49,.cls-54,.cls-70,.cls-76{opacity:0.26;}.cls-48{fill:url(#radial-gradient-13);}.cls-49{fill:url(#radial-gradient-14);}.cls-50,.cls-52,.cls-53,.cls-68,.cls-69,.cls-75{fill:#fdfcee;}.cls-50{opacity:0.16;}.cls-51{fill:#fece96;opacity:0.23;}.cls-52{opacity:0.21;}.cls-53{opacity:0.4;}.cls-54{fill:url(#radial-gradient-15);}.cls-55{opacity:0.44;fill:url(#radial-gradient-16);}.cls-56,.cls-66{opacity:0.56;}.cls-56{fill:url(#radial-gradient-17);}.cls-57{fill:url(#Earthtone_11-2);}.cls-58{fill:url(#Earthtone_11-3);}.cls-59,.cls-71{opacity:0.55;}.cls-59{fill:url(#radial-gradient-18);}.cls-60{fill:url(#radial-gradient-19);}.cls-61{fill:#a0795e;}.cls-62{fill:url(#radial-gradient-20);}.cls-63,.cls-74{opacity:0.8;}.cls-63{fill:url(#radial-gradient-21);}.cls-64,.cls-65,.cls-81{fill:#fff;}.cls-64{opacity:0.85;}.cls-66,.cls-81{mix-blend-mode:overlay;}.cls-67{fill:#eee385;}.cls-68{opacity:0.79;}.cls-70{fill:url(#radial-gradient-22);}.cls-71{fill:url(#radial-gradient-23);}.cls-72{fill:url(#radial-gradient-24);}.cls-73{fill:url(#radial-gradient-26);}.cls-74{fill:url(#radial-gradient-27);}.cls-75{opacity:0.46;}.cls-76{fill:url(#radial-gradient-28);}.cls-77,.cls-78,.cls-81{opacity:0.2;}.cls-77{fill:url(#radial-gradient-29);}.cls-78{fill:url(#radial-gradient-30);}.cls-79{fill:url(#Earthtone_29);}.cls-80{fill:url(#Earthtone_29-2);}.cls-82{fill:url(#radial-gradient-31);}.cls-83{fill:url(#radial-gradient-33);}.cls-100,.cls-84,.cls-85,.cls-86,.cls-87,.cls-88,.cls-89,.cls-90,.cls-94,.cls-95,.cls-97,.cls-99{opacity:0.11;}.cls-84{fill:url(#radial-gradient-34);}.cls-85{fill:url(#radial-gradient-35);}.cls-86{fill:url(#radial-gradient-36);}.cls-87{fill:url(#radial-gradient-37);}.cls-88{fill:url(#radial-gradient-38);}.cls-89{fill:url(#radial-gradient-39);}.cls-90{fill:url(#radial-gradient-40);}.cls-91{fill:url(#radial-gradient-41);}.cls-92{opacity:0.35;}.cls-93{fill:url(#radial-gradient-43);}.cls-94,.cls-96{fill:url(#radial-gradient-45);}.cls-97,.cls-98{fill:url(#radial-gradient-47);}.cls-99{fill:url(#radial-gradient-49);}.cls-100{fill:url(#radial-gradient-50);}.cls-101{filter:url(#luminosity-noclip-8);}.cls-102{filter:url(#luminosity-noclip-7);}.cls-103{filter:url(#luminosity-noclip-6);}.cls-104{filter:url(#luminosity-noclip-5);}.cls-105{filter:url(#luminosity-noclip-4);}.cls-106{filter:url(#luminosity-noclip-3);}.cls-107{filter:url(#luminosity-noclip-2);}.cls-108{filter:url(#luminosity-noclip);}</style><filter id="luminosity-noclip" x="-3610.44" y="2119.88" width="156.38" height="110.21" filterUnits="userSpaceOnUse" color-interpolation-filters="sRGB"><feFlood flood-color="#fff" result="bg"/><feBlend in="SourceGraphic" in2="bg"/></filter><mask id="mask" x="205.59" y="186.08" width="156.38" height="110.21" maskUnits="userSpaceOnUse"><g class="cls-108"/></mask><radialGradient id="radial-gradient" cx="124.74" cy="4252.44" r="126.33" gradientTransform="matrix(0.53, 0.87, -0.88, 0.53, 178.74, -189.8)" gradientUnits="userSpaceOnUse"><stop offset="0.16" stop-color="#99ddea"/><stop offset="0.54" stop-color="#6bcde1"/><stop offset="0.69" stop-color="#5fc9de"/><stop offset="0.76" stop-color="#58c7dd"/><stop offset="1" stop-color="#65cbdf"/></radialGradient><filter id="luminosity-noclip-2" x="-3610.44" y="2119.63" width="118.07" height="110.09" filterUnits="userSpaceOnUse" color-interpolation-filters="sRGB"><feFlood flood-color="#fff" result="bg"/><feBlend in="SourceGraphic" in2="bg"/></filter><mask id="mask-2" x="205.59" y="185.83" width="118.07" height="110.09" maskUnits="userSpaceOnUse"><g class="cls-107"/></mask><radialGradient id="radial-gradient-2" cx="124.76" cy="4253.62" r="126.13" xlink:href="#radial-gradient"/><filter id="luminosity-noclip-3" x="-3777.45" y="2127.93" width="138.86" height="97.93" filterUnits="userSpaceOnUse" color-interpolation-filters="sRGB"><feFlood flood-color="#fff" result="bg"/><feBlend in="SourceGraphic" in2="bg"/></filter><mask id="mask-3" x="38.58" y="194.13" width="138.86" height="97.93" maskUnits="userSpaceOnUse"><g class="cls-106"/></mask><radialGradient id="radial-gradient-3" cx="3917.83" cy="-2002.91" r="112.22" gradientTransform="matrix(-0.53, 0.87, 0.88, 0.53, 71.77, -189.8)" xlink:href="#radial-gradient"/><filter id="luminosity-noclip-4" x="-3743.26" y="2127.67" width="104.66" height="97.67" filterUnits="userSpaceOnUse" color-interpolation-filters="sRGB"><feFlood flood-color="#fff" result="bg"/><feBlend in="SourceGraphic" in2="bg"/></filter><mask id="mask-4" x="72.77" y="193.86" width="104.66" height="97.67" maskUnits="userSpaceOnUse"><g class="cls-105"/></mask><radialGradient id="radial-gradient-4" cx="3917.66" cy="-2001.69" r="111.63" gradientTransform="matrix(-0.53, 0.87, 0.88, 0.53, 71.77, -189.8)" xlink:href="#radial-gradient"/><filter id="luminosity-noclip-5" x="-3613.17" y="2018.67" width="185.38" height="111.74" filterUnits="userSpaceOnUse" color-interpolation-filters="sRGB"><feFlood flood-color="#fff" result="bg"/><feBlend in="SourceGraphic" in2="bg"/></filter><mask id="mask-5" x="202.86" y="84.87" width="185.38" height="111.74" maskUnits="userSpaceOnUse"><g class="cls-104"/></mask><radialGradient id="radial-gradient-5" cx="-3414.31" cy="1978.67" r="145.69" gradientTransform="translate(1.02 -8.11) scale(1.02 1.02)" xlink:href="#radial-gradient"/><filter id="luminosity-noclip-6" x="-3613.17" y="2035.16" width="168.14" height="96.17" filterUnits="userSpaceOnUse" color-interpolation-filters="sRGB"><feFlood flood-color="#fff" result="bg"/><feBlend in="SourceGraphic" in2="bg"/></filter><mask id="mask-6" x="202.86" y="101.36" width="168.14" height="96.17" maskUnits="userSpaceOnUse"><g class="cls-103"/></mask><radialGradient id="radial-gradient-6" cx="-3413.61" cy="1979.68" r="145.66" gradientTransform="translate(1.02 -8.11) scale(1.02 1.02)" xlink:href="#radial-gradient"/><filter id="luminosity-noclip-7" x="-3816.4" y="2026.44" width="188.44" height="105.16" filterUnits="userSpaceOnUse" color-interpolation-filters="sRGB"><feFlood flood-color="#fff" result="bg"/><feBlend in="SourceGraphic" in2="bg"/></filter><mask id="mask-7" x="-0.37" y="92.64" width="188.44" height="105.16" maskUnits="userSpaceOnUse"><g class="cls-102"/></mask><radialGradient id="radial-gradient-7" cx="3918.42" cy="1810.12" r="145.68" gradientTransform="matrix(-1.02, 0.05, 0.05, 1.02, 165.94, -14.45)" xlink:href="#radial-gradient"/><filter id="luminosity-noclip-8" x="-3797.61" y="2039.37" width="169.65" height="93.14" filterUnits="userSpaceOnUse" color-interpolation-filters="sRGB"><feFlood flood-color="#fff" result="bg"/><feBlend in="SourceGraphic" in2="bg"/></filter><mask id="mask-8" x="18.42" y="105.57" width="169.65" height="93.14" maskUnits="userSpaceOnUse"><g class="cls-101"/></mask><radialGradient id="radial-gradient-8" cx="3919.28" cy="1811.12" r="145.69" gradientTransform="matrix(-1.02, 0.05, 0.05, 1.02, 165.94, -14.45)" xlink:href="#radial-gradient"/><linearGradient id="Earthtone_11" x1="4518.47" y1="1369.8" x2="4531.04" y2="1450.7" gradientTransform="matrix(-0.87, 0.49, 0.49, 0.87, -338.72, -1401.26)" gradientUnits="userSpaceOnUse"><stop offset="0" stop-color="#6d583f"/><stop offset="0.5" stop-color="#483318"/><stop offset="1" stop-color="#282913"/></linearGradient><radialGradient id="radial-gradient-9" cx="-3372.2" cy="3550.74" r="29.74" gradientTransform="translate(-156.44 -1448.85) rotate(0.85)" xlink:href="#Earthtone_11"/><radialGradient id="radial-gradient-10" cx="-3384.91" cy="3529.07" r="36.46" gradientTransform="translate(-156.44 -1448.85) rotate(0.85)" gradientUnits="userSpaceOnUse"><stop offset="0.1" stop-color="#f0dab3"/><stop offset="0.11" stop-color="#f0d9b2"/><stop offset="0.15" stop-color="#f0d7ad"/><stop offset="0.2" stop-color="#eccfa5"/><stop offset="0.49" stop-color="#d6a47a"/><stop offset="0.63" stop-color="#ce936a"/><stop offset="0.74" stop-color="#d49f76"/><stop offset="0.93" stop-color="#e3bf96"/><stop offset="1" stop-color="#e9cba3"/></radialGradient><radialGradient id="radial-gradient-11" cx="-3389.7" cy="3564.32" r="11.89" gradientTransform="translate(-156.44 -1448.85) rotate(0.85)" gradientUnits="userSpaceOnUse"><stop offset="0.07" stop-color="#75171f"/><stop offset="0.28" stop-color="#71171f"/><stop offset="0.46" stop-color="#67181e"/><stop offset="0.64" stop-color="#54191c"/><stop offset="0.72" stop-color="#491a1b"/><stop offset="1" stop-color="#2b1013"/></radialGradient><radialGradient id="radial-gradient-12" cx="-3390.24" cy="3564.34" r="11.52" xlink:href="#radial-gradient-11"/><radialGradient id="radial-gradient-13" cx="-3389.19" cy="3545.01" r="17.75" gradientTransform="translate(-156.44 -1448.85) rotate(0.85)" gradientUnits="userSpaceOnUse"><stop offset="0.01" stop-color="#fff"/><stop offset="0.15" stop-color="#f0d7ad"/><stop offset="0.2" stop-color="#eccfa5"/><stop offset="0.49" stop-color="#d6a47a"/><stop offset="0.63" stop-color="#ce936a"/><stop offset="0.74" stop-color="#d49f76"/><stop offset="0.93" stop-color="#e3bf96"/><stop offset="1" stop-color="#e9cba3"/></radialGradient><radialGradient id="radial-gradient-14" cx="-3386.48" cy="3554.57" r="13.9" xlink:href="#radial-gradient-13"/><radialGradient id="radial-gradient-15" cx="-2995.27" cy="3486.19" r="2.89" gradientTransform="translate(-609.03 -1451.27) rotate(-0.26)" xlink:href="#radial-gradient-13"/><radialGradient id="radial-gradient-16" cx="-2995.53" cy="3480.17" r="5.83" gradientTransform="translate(-609.03 -1451.27) rotate(-0.26)" xlink:href="#radial-gradient-10"/><radialGradient id="radial-gradient-17" cx="-2993.52" cy="3485.94" r="1.12" gradientTransform="translate(-609.03 -1451.27) rotate(-0.26)" xlink:href="#radial-gradient-13"/><linearGradient id="Earthtone_11-2" x1="3325.07" y1="3489.06" x2="3325.19" y2="3522.03" gradientTransform="matrix(-1, -0.01, -0.01, 1, -197.92, -1448.87)" xlink:href="#Earthtone_11"/><linearGradient id="Earthtone_11-3" x1="3676.34" y1="3149.2" x2="3676.47" y2="3185.08" gradientTransform="matrix(-1, 0.08, 0.08, 1, -208.98, -1452.03)" xlink:href="#Earthtone_11"/><radialGradient id="radial-gradient-18" cx="-3056.37" cy="3431.45" r="16.72" gradientTransform="translate(-612.65 -1444.84) rotate(-0.79)" xlink:href="#radial-gradient-10"/><radialGradient id="radial-gradient-19" cx="-3052.75" cy="3431.05" r="13.43" gradientTransform="translate(-612.65 -1444.84) rotate(-0.79)" gradientUnits="userSpaceOnUse"><stop offset="0.07" stop-color="#f4ede7"/><stop offset="0.7" stop-color="#efe8de"/><stop offset="0.72" stop-color="#ebe3d8"/><stop offset="0.91" stop-color="#d1c4ae"/><stop offset="1" stop-color="#c7b89e"/></radialGradient><radialGradient id="radial-gradient-20" cx="1970.08" cy="4466.08" r="11.43" gradientTransform="matrix(-0.88, -0.37, -0.39, 0.92, -114.79, -1338.91)" gradientUnits="userSpaceOnUse"><stop offset="0.23" stop-color="#502100"/><stop offset="0.42" stop-color="#4c2000"/><stop offset="0.58" stop-color="#421b00"/><stop offset="0.75" stop-color="#2f1400"/><stop offset="0.87" stop-color="#1b0c00"/></radialGradient><radialGradient id="radial-gradient-21" cx="-3048.61" cy="3436.37" r="4.31" gradientTransform="translate(-612.65 -1444.84) rotate(-0.79)" xlink:href="#radial-gradient-20"/><radialGradient id="radial-gradient-22" cx="-3044.75" cy="3419.73" r="2.39" gradientTransform="translate(-612.65 -1444.84) rotate(-0.79)" xlink:href="#radial-gradient-13"/><radialGradient id="radial-gradient-23" cx="-3009.7" cy="3432.29" r="10.49" gradientTransform="translate(-612.65 -1444.84) rotate(-0.79)" xlink:href="#radial-gradient-10"/><radialGradient id="radial-gradient-24" cx="3424" cy="-15555.02" r="8.57" gradientTransform="matrix(0, 1, -0.69, 0, -14353.62, -1366.27)" xlink:href="#radial-gradient-19"/><radialGradient id="radial-gradient-26" cx="2714.92" cy="4078.88" r="9.47" gradientTransform="matrix(-0.93, -0.21, -0.22, 0.97, -132.03, -1382.71)" xlink:href="#radial-gradient-20"/><radialGradient id="radial-gradient-27" cx="-3542.09" cy="2798.08" r="3.58" gradientTransform="matrix(0.98, -0.19, 0.19, 0.98, -641.13, -1398.3)" xlink:href="#radial-gradient-20"/><radialGradient id="radial-gradient-28" cx="-3008.69" cy="3422.05" r="2.5" gradientTransform="translate(-612.65 -1444.84) rotate(-0.79)" xlink:href="#radial-gradient-13"/><radialGradient id="radial-gradient-29" cx="-3402.05" cy="3544.21" r="23.74" gradientTransform="translate(-156.44 -1448.85) rotate(0.85)" gradientUnits="userSpaceOnUse"><stop offset="0.01" stop-color="#fff"/><stop offset="0.67" stop-color="#e9cba3"/></radialGradient><radialGradient id="radial-gradient-30" cx="-3425.47" cy="3529.26" r="9.71" xlink:href="#radial-gradient-29"/><linearGradient id="Earthtone_29" x1="-3429.56" y1="3423.77" x2="-3402.1" y2="3503.22" gradientTransform="translate(-156.44 -1448.85) rotate(0.85)" gradientUnits="userSpaceOnUse"><stop offset="0" stop-color="#698a91"/><stop offset="0.54" stop-color="#335c64"/><stop offset="1" stop-color="#02383b"/></linearGradient><linearGradient id="Earthtone_29-2" x1="-3428.76" y1="3423.93" x2="-3401.43" y2="3503.01" xlink:href="#Earthtone_29"/><radialGradient id="radial-gradient-31" cx="1267.68" cy="-2338.99" r="58.02" gradientTransform="matrix(0.89, 0.46, -0.67, 1.27, -6344.46, 4370.15)" xlink:href="#Earthtone_11"/><radialGradient id="radial-gradient-33" cx="-2392.44" cy="-4042.96" r="65.93" gradientTransform="matrix(-0.05, -1, 1, -0.05, 261.36, -603.95)" xlink:href="#Earthtone_11"/><radialGradient id="radial-gradient-34" cx="-3478.96" cy="3508.87" r="26.07" xlink:href="#radial-gradient-13"/><radialGradient id="radial-gradient-35" cx="-3460.99" cy="3500.88" r="17.19" xlink:href="#radial-gradient-13"/><radialGradient id="radial-gradient-36" cx="-3463.19" cy="3542.63" r="9.93" xlink:href="#radial-gradient-13"/><radialGradient id="radial-gradient-37" cx="-3457.33" cy="3502.11" r="11.9" xlink:href="#radial-gradient-13"/><radialGradient id="radial-gradient-38" cx="-3453.86" cy="3466.72" r="8.93" xlink:href="#radial-gradient-13"/><radialGradient id="radial-gradient-39" cx="-3440" cy="3457.98" r="8.05" xlink:href="#radial-gradient-13"/><radialGradient id="radial-gradient-40" cx="-3414.92" cy="3438.73" r="14.77" xlink:href="#radial-gradient-13"/><radialGradient id="radial-gradient-41" cx="-4273.6" cy="10531.74" r="50.19" gradientTransform="matrix(1, -0.06, 0.04, 0.64, 263.77, -4988.41)" xlink:href="#Earthtone_11"/><radialGradient id="radial-gradient-43" cx="-4273.53" cy="10531.73" r="50.21" gradientTransform="matrix(1, -0.06, 0.04, 0.64, 263.77, -4988.41)" xlink:href="#Earthtone_11"/><radialGradient id="radial-gradient-45" cx="-4290.96" cy="10526.31" r="14.29" gradientTransform="matrix(1, -0.06, 0.04, 0.64, 263.77, -4988.41)" xlink:href="#radial-gradient-13"/><radialGradient id="radial-gradient-47" cx="-4277.23" cy="10521.57" r="12.82" gradientTransform="matrix(1, -0.06, 0.04, 0.64, 263.77, -4988.41)" xlink:href="#radial-gradient-13"/><radialGradient id="radial-gradient-49" cx="-3376.39" cy="3478.39" r="16.88" xlink:href="#radial-gradient-13"/><radialGradient id="radial-gradient-50" cx="-3360.92" cy="3470.15" r="13.07" xlink:href="#radial-gradient-13"/></defs><title>fairy_08</title><g class="cls-1"><g id="Layer_1" data-name="Layer 1"><g class="cls-2"><path class="cls-3" d="M-3591,2119.88c44.91,2.19,87.3,33,115.21,66,5.52,6.52,22.27,24.06,21.68,34.31-0.54,9.37-16.06,8.82-22.88,9.4-29.09,2.51-57.1-10.93-80.27-27.49a188.33,188.33,0,0,1-41.82-40.81c-2.78-3.75-6.2-7.82-8.15-12.07-3-6.44-2.54-7.07,1.83-13.2A99.68,99.68,0,0,1-3591,2119.88Z" transform="translate(3816.03 -1933.8)"/></g><path class="cls-4" d="M-3566.33,2132.23c47.73,10.62,85,53.25,111.89,91C-3482.06,2186.42-3519.14,2143.57-3566.33,2132.23Z" transform="translate(3816.03 -1933.8)"/><path class="cls-4" d="M-3565.87,2142.58c37.57,24.87,76.87,49.87,110.07,80.52C-3489.88,2193.31-3528.86,2168.51-3565.87,2142.58Z" transform="translate(3816.03 -1933.8)"/><path class="cls-4" d="M-3457.92,2223.36c-44.27-11.67-83.33-39.11-114.78-71.59C-3540.67,2183.39-3501.65,2210.77-3457.92,2223.36Z" transform="translate(3816.03 -1933.8)"/><path class="cls-4" d="M-3457,2225.32c-49.4,2.46-97.27-33.59-132.22-64.05C-3553.25,2191.13-3506.43,2226.17-3457,2225.32Z" transform="translate(3816.03 -1933.8)"/><g class="cls-5"><g class="cls-6"><path class="cls-7" d="M-3573.1,2161.12c9.33-6,13-12.25,17.27-21.73,2.69-6,2.53-6.63,10.07-4.49,14,4,26.06,13.23,38.39,20.37-20.85-16.33-45.55-29-71.75-33.88-3-.55-8.8-2.42-11.89-1.5-5.11,1.51-19.19,19-19.42,23.89-0.22,4.58,8.87,14.16,11.53,17.73a179.69,179.69,0,0,0,13.47,16,192.51,192.51,0,0,0,29.13,25.21c18.7,13.18,40.85,24.6,63.93,27,0,0.09-32.53-12.3-35.43-13.85a147.49,147.49,0,0,1-30.29-21.27c-4.72-4.35-27.69-26.63-15-33.48C-3549.38,2146-3588.73,2169.57-3573.1,2161.12Z" transform="translate(3816.03 -1933.8)"/></g></g><path class="cls-8" d="M-3463.92,2227.67c-34.75,10.26-72.37-10.5-99.3-30.23C-3535.67,2216.27-3498.73,2236.66-3463.92,2227.67Z" transform="translate(3816.03 -1933.8)"/><g class="cls-9"><path class="cls-10" d="M-3655.81,2127.93c-18,.9-35.92,7.86-51.52,16.4a178.21,178.21,0,0,0-46.43,37.28c-4.63,5.14-27,27.84-23.28,37.39,3.34,8.6,27.27,7,34.1,6.28,16.13-1.64,31.78-8.65,45.56-16.86a168.76,168.76,0,0,0,44.8-38.73c2.6-3.22,5.08-6.54,7.41-10,4.16-6.1,6.67-8,4.16-14.56C-3643.4,2138.86-3650.83,2132.4-3655.81,2127.93Z" transform="translate(3816.03 -1933.8)"/></g><path class="cls-4" d="M-3677.71,2138.88c-41.91,10.57-74.43,47.64-99.18,80.69C-3752.79,2185.84-3720.11,2148.67-3677.71,2138.88Z" transform="translate(3816.03 -1933.8)"/><path class="cls-4" d="M-3678.11,2148c-32.72,23-67.63,44.81-97.57,71.38C-3746.48,2192.18-3711.37,2169.95-3678.11,2148Z" transform="translate(3816.03 -1933.8)"/><path class="cls-4" d="M-3773.8,2219.67c38.87-11.45,73.17-35.36,101.74-63.47C-3699.92,2185.09-3734.58,2209.16-3773.8,2219.67Z" transform="translate(3816.03 -1933.8)"/><path class="cls-4" d="M-3774.63,2221.4c43.67,0.76,85.53-30.31,117.21-56.79C-3688.52,2191.79-3730.76,2223.23-3774.63,2221.4Z" transform="translate(3816.03 -1933.8)"/><g class="cls-5"><g class="cls-11"><path class="cls-12" d="M-3671.7,2164.48c-8.9-5.67-10.31-11.55-15.35-19.47-3.22-5.07-1.9-5.76-9.46-3.58-12.18,3.51-22.73,11.6-33.44,17.87,18.2-14.26,39.65-25.32,62.45-29.81,2.6-.51,8.86-2.54,11.63-1.56,4.69,1.67,15,15,16.08,19.2,2.1,8.24-13.06,23.25-18.81,29.58a170.65,170.65,0,0,1-27.77,24.54c-16.61,11.75-36.36,21.93-56.88,24.05,0.05,0.69,28.78-10.89,31.13-12.14a130.68,130.68,0,0,0,27-18.89c4.27-3.93,24.68-23.71,13.42-29.8C-3692.73,2151.08-3657.85,2172-3671.7,2164.48Z" transform="translate(3816.03 -1933.8)"/></g></g><path class="cls-8" d="M-3768.49,2223.48c30.87,8,63.57-10.11,88-26.8C-3704.43,2214.17-3737.64,2232.63-3768.49,2223.48Z" transform="translate(3816.03 -1933.8)"/><g class="cls-13"><path class="cls-14" d="M-3613.17,2096.73c24.41-36.28,69.31-58.94,110.37-69.46,11-2.83,79.45-20.43,74.21,4.83-7.08,34.13-39.86,59.08-68.81,74a220.38,220.38,0,0,1-74.83,23c-6.38.75-12.8,1.2-19.22,1.31-9,.16-10.48-0.74-14-8.86A115.54,115.54,0,0,1-3613.17,2096.73Z" transform="translate(3816.03 -1933.8)"/></g><path class="cls-4" d="M-3586.09,2079.7c39.09-41,103.91-52.08,157.45-56.12C-3481.87,2028.76-3546.46,2039.73-3586.09,2079.7Z" transform="translate(3816.03 -1933.8)"/><path class="cls-4" d="M-3575.57,2085.46c47.32-22.28,95.64-45.78,145.92-60.62C-3479.62,2040.93-3527.56,2064.4-3575.57,2085.46Z" transform="translate(3816.03 -1933.8)"/><path class="cls-4" d="M-3430.65,2027.09c-38.21,36.79-88.8,59.06-139.91,70.65C-3519.86,2084.88-3469.63,2062.83-3430.65,2027.09Z" transform="translate(3816.03 -1933.8)"/><path class="cls-4" d="M-3428.14,2027.34c-27.42,50.34-91.57,76.17-142.91,92.44C-3520.33,2102.43-3456.28,2076.83-3428.14,2027.34Z" transform="translate(3816.03 -1933.8)"/><g class="cls-5"><g class="cls-15"><path class="cls-16" d="M-3561.53,2103.75c-0.26-11.18-3.07-20.68-10.24-29.2-4.26-5.06-6.32-5.24-2-11.06,10.16-13.83,31.59-20.28,45.94-28.33-26.36,9.95-51.26,24.88-71.2,44.92-11,11.1-15.6,14.18-10.93,29.21,2.1,6.75,5.13,18.8,11.32,21.06,6.85,2.5,19.74-.48,26.9-1.34a217.88,217.88,0,0,0,51-12.56c28.15-10.62,57.33-27,75.79-51.43-0.22-.13-32.3,25.2-36.33,27.53a170.53,170.53,0,0,1-38.22,16.52c-7.26,2.08-42.75,11.29-41.95-5.32C-3562.28,2071.18-3562.53,2124.3-3561.53,2103.75Z" transform="translate(3816.03 -1933.8)"/></g></g><path class="cls-8" d="M-3430,2035.61c-10.44,40.49-54.15,65.5-89.59,80.17C-3484.95,2099.84-3441.36,2075.52-3430,2035.61Z" transform="translate(3816.03 -1933.8)"/><g class="cls-17"><path class="cls-18" d="M-3628,2096.9c-26.08-35.11-72-55.65-113.5-64.25-11.15-2.31-80.32-16.7-73.9,8.29,8.67,33.76,42.58,57.15,72.19,70.69a220.41,220.41,0,0,0,75.82,19.48c6.41,0.45,12.84.6,19.26,0.41,9-.26,10.43-1.23,13.6-9.5A115.67,115.67,0,0,0-3628,2096.9Z" transform="translate(3816.03 -1933.8)"/></g><path class="cls-4" d="M-3655.81,2081.15c-41.63-37.94-106.37-46.1-159.91-48.71C-3762,2033.88-3696.84,2042.06-3655.81,2081.15Z" transform="translate(3816.03 -1933.8)"/><path class="cls-4" d="M-3666.06,2087.39c-48.95-18.81-97.93-40-148.59-53.76C-3763.74,2046.1-3714.34,2067.31-3666.06,2087.39Z" transform="translate(3816.03 -1933.8)"/><path class="cls-4" d="M-3813.54,2035.85c40.57,33.84,91.82,53.65,143,64C-3722.09,2090.69-3773.66,2070.81-3813.54,2035.85Z" transform="translate(3816.03 -1933.8)"/><path class="cls-4" d="M-3816,2036.21c30.94,48.13,95.23,70.51,147.07,85.68C-3720.92,2108-3786.43,2085.27-3816,2036.21Z" transform="translate(3816.03 -1933.8)"/><g class="cls-5"><g class="cls-19"><path class="cls-20" d="M-3697.42,2105.76c2.37-12.26,9.64-21.48,20-28.14,4-2.59,11.56-4.54,10.79-9.81-1.06-7.31-23.78-16.58-29.47-19.4-6.5-3.22-13.5-5.89-19.9-9,26.79,8.71,52.37,22.46,73.22,41.56,11.54,10.57,16.25,13.43,12.28,28.67-1.78,6.84-4.25,19-10.33,21.56-6.72,2.81-19.74.43-26.93-.08a217.91,217.91,0,0,1-51.49-10.17c-28.61-9.29-58.52-24.33-78.11-47.85-5.62,3.72,103.6,70.41,100,32.7C-3691.4,2074.69-3695.46,2126.23-3697.42,2105.76Z" transform="translate(3816.03 -1933.8)"/></g></g><path class="cls-8" d="M-3813.81,2044.38c13.95,39.32,57.35,61.5,93.24,75.9C-3756.11,2107.47-3802.2,2084.28-3813.81,2044.38Z" transform="translate(3816.03 -1933.8)"/><path class="cls-21" d="M-3692.51,2264.24c2,2.5,2.74,12.42-.08,8.74C-3694.07,2271.05-3692.87,2267.14-3692.51,2264.24Z" transform="translate(3816.03 -1933.8)"/><path class="cls-22" d="M-3579.1,2279.86a225.08,225.08,0,0,1-21.47-38.72c8-1.69,20.41-7.21,28.72-6.47,6.2,0.56,1.49-2.09,5.45,3.25,3.37,4.55,4.63,12.59,6.33,18,2.86,9,6.44,19.2,7,28.73,1,16-13,20.86-25.33,27.31q-19.82,10.4-39.11,21.79c-0.14-3.23-1.67-8.37-1-11.45,1.09-4.93,7.28-10.26,10.86-14.24,8.9-9.89,18-19.9,28.5-28.18C-3591.21,2262-3592.37,2290.38-3579.1,2279.86Z" transform="translate(3816.03 -1933.8)"/><g class="cls-23"><path class="cls-24" d="M-3618.69,2320.67c5.54-6.41,11.12-12.79,16.9-19,5.3-5.69,16-12.74,19.8-19.44,2.94-5.21,1.18-4.77-2.72-11q-3.56-5.71-6.81-11.62a196.25,196.25,0,0,1-9-18.46c7.65-1.61,21-7.67,28.72-6.47,5.62,0.87,2.6-1.84,5.87,4.34,6.73,12.71,14.76,37,13.06,51.25-1.07-7.84-4.89-43.71-15.34-43.3-18.26.72-7.42,61.16,13,49.83-4.27,6.37-12.78,9.84-19.28,13.2,3.31-1.46,10.32-4.21,10.32-8.79,0-6.18-10.13-6.65-14-6-9.19,1.65-18.58,9.15-25.12,15.52-3.71,3.62-7.47,7.77-9.67,12.53-1.74,3.76-1.29,8.19-4.47,10.45a93.86,93.86,0,0,0-1.23-13.05C-3609.16,2309.65-3617.79,2325.5-3618.69,2320.67Z" transform="translate(3816.03 -1933.8)"/></g><path class="cls-22" d="M-3647,2311.68c-0.25-11.63-3.41-22.83-6-34.08-1.22-5.26-5.48-15.12-4.48-20.61,2.29-12.5,23.72-9.76,33.12-11.3,0.71,14.23.86,28.5,1.73,42.71,0.94,15.25,4.57,30.11,5.22,45.32,1.38,31.85-.86,63.4,2.26,95.19,1.08,11,5.46,44.86-11.61,47.43-2.13.32-8.2-1.88-10.42-2.66-4.9-1.71-7.54-2.45-7-9.32,0.53-7.38,5.49-16,7.32-23.2,2-7.87,3.73-15.78,3.59-23.89-0.16-8.91,1.73-17.58.27-27.4-3.84-25.89-13.38-51.93-13.94-78.21C-3647.29,2299.9-3646.79,2323.45-3647,2311.68Z" transform="translate(3816.03 -1933.8)"/><path class="cls-25" d="M-3640.27,2247.54a118,118,0,0,0,15.86-1.85c0.54,10.85,1,21.7,1.31,32.56-1.52-13.54-10.18-7.69-18.85-12-4.09-2.05-4.79-7.14-9.68-4.7-5.27,2.63-1.37,15-.18,18.59,2.19,6.58,11.72,27.87,20.66,25.69,5.77-1.41,7.56-10.71,8.42-15.66,3.38,25.11,5.61,48.87,5.47,74.24-2-10.25-2.28-21.27-4.84-31.66-1.84-7.49-12.74-31.58-17.84-12.31-5.57,21.09,5.66,48.94,8.74,69.85,0.8,5.4,2.1,11.47,1.25,17-0.15,1-1.35,2.22-1.37,3,0,1.13,3.39,11,4.19,8.93-0.5,1.32-3.35-.91-3.91,1.17-0.64,2.35-1.08,4.78-1.63,7.15-1.57,6.78-3.18,13.55-5,20.26-1.18,4.38-5.05,12.18-1.86,16.22,1.61,2,15.89,1.89,18.39.46,11.11-6.32,4.28-33.77,3.3-43.39a240.66,240.66,0,0,1,.52-51.15c-0.18,15.29-.74,30.55.68,45.8,1.45,15.45,5.13,32.51.55,47.75-3.95,13.14-11.52,13.52-21.4,10-13.22-4.7-2.93-19.66,0-30.34,1.92-7.1,4.4-15.24,4.31-22.68,0-2.06-1.19-4.53-1-6.47,0.21-2.2,1.63-3.73,1.89-5.66,1.29-9.45-.83-19-2.53-28.37-3.48-19-9-37.86-11.36-57-2.56-20.61-6.67-40.13-10.25-60.59-1.94-11.06,4.37-14.46,16.17-14.79h0Z" transform="translate(3816.03 -1933.8)"/><path class="cls-26" d="M-3579.1,2279.86a21.7,21.7,0,0,0,5.1,7.77A21.78,21.78,0,0,0-3579.1,2279.86Z" transform="translate(3816.03 -1933.8)"/><path class="cls-26" d="M-3641,2300.91a85,85,0,0,1,5.27,8.27A11.19,11.19,0,0,0-3641,2300.91Z" transform="translate(3816.03 -1933.8)"/><path class="cls-22" d="M-3659,2342.87c0.6-9.9,7.37-8.07,14.42-10.28q2.88,13.18,5.59,26.41c2,10,8.11,25.33,6.47,35.49-0.58,3.6-4.09,7.36-7.67,8.59-9.1,3.12-10.77-2-13-9.44a81,81,0,0,1-3.63-22.93c-0.1-9.21-2.77-18.81-2.22-27.84h0Z" transform="translate(3816.03 -1933.8)"/><path class="cls-26" d="M-3644.16,2393c1.85,3,3.64,6.32,3.14,9.9C-3639.2,2399.26-3641.07,2395.35-3644.16,2393Z" transform="translate(3816.03 -1933.8)"/><path class="cls-26" d="M-3638.51,2401.61a9.27,9.27,0,0,0-1.26-9.6A31.63,31.63,0,0,1-3638.51,2401.61Z" transform="translate(3816.03 -1933.8)"/><path class="cls-26" d="M-3635.38,2399.1a7.24,7.24,0,0,0-1.46-8.34A23,23,0,0,1-3635.38,2399.1Z" transform="translate(3816.03 -1933.8)"/><path class="cls-26" d="M-3652.89,2395c0.61,2.13.55,3.58,3,4.18C-3650.93,2397.84-3651.79,2396.31-3652.89,2395Z" transform="translate(3816.03 -1933.8)"/><path class="cls-26" d="M-3656.73,2357.77a26,26,0,0,0,2,8.85A18,18,0,0,0-3656.73,2357.77Z" transform="translate(3816.03 -1933.8)"/><path class="cls-27" d="M-3622.6,2466.87c-3.79-1.07-10.84,2.84-6.54,6.86C-3625.1,2477.53-3618.72,2468.35-3622.6,2466.87Z" transform="translate(3816.03 -1933.8)"/><path class="cls-27" d="M-3630.24,2467.09c-0.45,1.23-.75,6.62-1.43,6.79C-3641.86,2476.37-3628.89,2462.13-3630.24,2467.09Z" transform="translate(3816.03 -1933.8)"/><path class="cls-27" d="M-3634.87,2467c0,0.53-.6,5.79-1,5.91C-3642.05,2474.67-3634,2463-3634.87,2467Z" transform="translate(3816.03 -1933.8)"/><path class="cls-27" d="M-3638.66,2466.06c0.12,0.55.54,5.75,0.12,6C-3643.74,2474.87-3638.57,2462.27-3638.66,2466.06Z" transform="translate(3816.03 -1933.8)"/><path class="cls-27" d="M-3642.13,2465.87c0.07,0.47.3,5.38-.29,5.2C-3646.95,2469.7-3642.09,2464.38-3642.13,2465.87Z" transform="translate(3816.03 -1933.8)"/><path class="cls-26" d="M-3630.16,2474.69c-1.76-5.37,1.93-8.86,7.27-8.7C-3628.65,2464.28-3633.66,2469.32-3630.16,2474.69Z" transform="translate(3816.03 -1933.8)"/><path class="cls-26" d="M-3634.51,2473.84a12.18,12.18,0,0,1,.84-7.17C-3636,2468.35-3636,2471.35-3634.51,2473.84Z" transform="translate(3816.03 -1933.8)"/><path class="cls-26" d="M-3638.1,2465.25a7.06,7.06,0,0,0,.41,7.94A33.47,33.47,0,0,1-3638.1,2465.25Z" transform="translate(3816.03 -1933.8)"/><path class="cls-26" d="M-3641,2465a6.9,6.9,0,0,0,1.17,7.85A28.91,28.91,0,0,1-3641,2465Z" transform="translate(3816.03 -1933.8)"/><g class="cls-23"><path class="cls-24" d="M-3656.57,2361.15c-0.34,9.23-1.81,37,8.37,42,9.29,4.52,15.68-5.48,15.09-13.25-1.44-19.07-7.35-38.62-11.43-57.3-5.58,1.69-10.69.37-13.64,6.25-3.15,6.25,1.27,15.82,1.6,22.31C-3657.07,2374.81-3656.95,2353.76-3656.57,2361.15Zm1.68,10c0-2.4,1.46-1.19,1.91-2.87,0.75-2.73-1.59-6.77-2.23-9.12-1.48-5.49-4-14.43-.27-19.66,6.13-8.55,9.56-2.33,11,3.48,2.48,9.71,4,19.78,6,29.6,0.57,2.79,2.4,7.22,2.1,10.09-0.41,3.86-.05,4.94-3.4,7.44-1.82,1.36-6.17.34-7.3,1.77-1.4,1.78,5.25,5.89,4.18,8.15-1.8,3.81-6.26-.58-7.48-2.42-4-6-4.41-19.92-4.55-26.47C-3654.89,2367.46-3654.56,2386.34-3654.89,2371.14Z" transform="translate(3816.03 -1933.8)"/></g><path class="cls-28" d="M-3543.74,2220.73c3.69,1.67,2.27,5.59-.68,5.75-2.73.14-5.61-3.08-7.18-5,1.08-2.87,6.39-1.42,7.86-.76C-3540.26,2222.3-3548.76,2218.48-3543.74,2220.73Z" transform="translate(3816.03 -1933.8)"/><path class="cls-28" d="M-3528.58,2211.67c-3.64,2-8.18-.17-10.9-2.71,3.43-3.49,8.31.22,10.9,2.71C-3528.78,2211.78-3531.07,2209.27-3528.58,2211.67Z" transform="translate(3816.03 -1933.8)"/><path class="cls-28" d="M-3557.66,2240.37c-3.52.93-6.72,0.41-9.65-3.85C-3563.26,2234.21-3559.42,2238.12-3557.66,2240.37Z" transform="translate(3816.03 -1933.8)"/><path class="cls-29" d="M-3722.93,2197.77c4.87-3,1.21-8.62,3-12.82,0.74-1.69,4.27-1.19,4.89-3.26,0.8-2.66-2.83-5-3.15-7.62-1-7.83,6.74-9.48,13.27-10.23,8.56-1,7-1.78,11.39-9,0.6-1,3.12-3.06,3.87-4,1.79-2.19-.18-3.32,3.49-5.09,3.13-1.51,7.27.61,10.41,0.8,5.2,0.32,8.07-1.13,12.87-2.49,8.65-2.46,18.07-2.41,27-2.77,11-.44,22-0.4,33-0.7,5.7-.16,12.61-3.08,17.34-0.15,3.08,1.91,3.33,3.58,6.66,5.14a57.87,57.87,0,0,0,6.76,1.75c7.41,0.77,16.71-1.71,22,5.49,1.17,1.59.94,4.85,2,6,1.65,1.77,3.93,1.59,5.91,2.94,8.54,5.85,1.73,6.53,2.75,14,0.69,5,8.75,7.17,9.71,13.78,0.18,1.26-1.79,3.19-1.71,3.86,0.31,2.43,1.62,2.42,3.07,5.49,1.31,2.76,4,6,2.54,9.42-3.39,7.77-9.16-5.68-14.45,1.15-2.72,3.51,6.61,16.5-2.63,17.34,4.5-6.12-6.63-10-8.9-4.48-2,4.81,9.2,18.89-5.89,18-4.81-.27-6.79-7.63-12.78-1.47-3.06,3.15-1.41,6.45-3.35,9.67-1.27,2.11-2.44.86-3.39,2-4.46,5.22-5,5.85-11.41,3-3.07-1.36-2.22-4.94-6.84-4.27-6.75,1-1.75,4.22-3.53,6.73-5.69,8-8.09,6-17.5,4.2-7.59-1.47-12.9,8.34-21.56,4-5.22-2.61-3.52-14.66-11-13-5.64,1.23-3,8.06-9.27,10.57-5.33,2.14-14.81.05-18.81-4-5.37-5.48-2.68-13.71-9.48-18.44-4.62-3.21-9.58-2.21-14.71-2.21-10.49,0-8.73-3.09-12.09-11.37-3.76-9.28-29.61-14.72-9.52-28C-3717.74,2194.6-3738.13,2207.79-3722.93,2197.77Z" transform="translate(3816.03 -1933.8)"/><path class="cls-30" d="M-3725.81,2200c-11.31,9.68,1.14,14.53,7.39,19.44,4.59,3.61,3.78,4.42,5.6,10.1,1.45,4.55,3.65,9.7,9.59,8.09,8.25-3.14,18.39,0,21.8,8.26,1.57,3.8,1,7.89,3.93,11.24,3.89,4.46,16.19,7.54,21.29,3.74,4.44-3.31,1.24-10.06,8.29-9.82s3.64,6.91,6.5,10.43c7.38,9.06,17.5-3.09,24.9-1.57,3,0.62,5.16,3.15,8.6,3,1.64-.07,6.21-1.46,7.32-3,2-2.75-.26-4.05.54-5.71,6.12-12.81,10.48,3.6,19.38.29,5-1.88,14.83-32.21,22.92-14.48,6.56-2.37,8.08-3.83,7.47-10.75-0.18-2-2.6-3.84-2-6.14,2-7.2,14.74-2.81,9.77,4,5.57-3.72-.56-10.12.71-14.81,1.95-7.16,8.46-5.73,13.51-.95,4.93-4.41.44-12.65-4.89-16.66,9.55-7-4.86-12-6.58-16.81-1.4-3.89,3.64-7,2.62-10.93-1.36-5.28-7.12-3.56-10.18-6.55-2.35-2.3-1.68-5.93-4.05-8.53-2.69-2.94-7.23-3.84-11-4.36-5.2-.73-14.25.69-19.18-1.89-3-1.58-3.06-5.36-6.89-6.53-3.1-.95-5.12,1.34-7.9,1.75-11.88,1.76-25.11.16-37.15,0.59a160.21,160.21,0,0,0-31.31,3.74c-8.3,1.94-18.32-1.81-24.75,3.41,0.71-.57-1.11,4.32-1.41,4.76-0.92,1.34-3.67,3.67-4.89,5-2.82,3.09-.7,3.41-4.88,5.63-4,2.13-11.36-1.11-15.2,3.26-5.08,5.78,1.45,10.37-.51,15.94a11.09,11.09,0,0,0-4.39,2.81,6,6,0,0,0,.42,5.06c-1.58,5.16-.78,4.74-5.4,8.92C-3726.73,2200.76-3724.92,2199.16-3725.81,2200Zm4.9-3.9c2.56-3.19-1.39-5.8-.12-8.82,1.13-2.7,5.64-3.32,6.27-6,1.15-4.8-6-7.14-2.24-13.28,4-6.57,15.49-2.08,20.37-6.47,0.93-.83-0.06-2.93.82-3.89,1.29-1.41,4.06-3.29,5-4.68,2.82-4-.27-5.14,5.15-7.45,4.19-1.78,11.24,1.62,15.73,1,2.21-.32,4.09-1.72,6.2-2.17,21.81-4.69,45-3.89,67.31-4,5.91-4.11,8.21-.92,12.94,2,1.6,1,1.08,2,3.08,2.9,2.93,1.31,6.58-.28,8.25,1.81,7.57-1.06,18-.53,22.89,6.25,2,2.78,1,4.65,3.4,6.9,3,2.78,8.09,1.37,9.41,6.41,0.94,3.6-3.22,6.63-2.62,9.83,1.05,5.64,16.59,10.29,6.85,18.61,2.39,0.29,7.3,6.54,7.13,10.72-0.43,10.74-5.26,2.41-10.22,2.39-12.41-.05,4.73,18.79-8.67,19.35,5.35-5.5-4.37-10.13-7.24-5.8-3.68,5.56,7.18,9.64-.51,16.5-8.12,7.25-12.57-8.78-19.82,2.49-2.26,3.51-.63,10.38-5.33,10-3.71,8.42-7.86,4.24-12.92,1.88-2.56-1.19-3.05-4-6.67-2.73-5.32,1.91-.83,2.72-2.29,5.56-2.09,4.06.83,3.27-4,6.32a13.11,13.11,0,0,1-6.6,1.81c-5.51-.28-7.81-4.81-13.52-3.34s-2.64,5.95-12,4.71c-6.59-.88-5.09-2.09-7.77-7.3-1.53-3-.19-4.54-4.18-5.81-6.25-2-3.82,2.47-6.15,5.43-6.79,8.63-22.93,6.61-27.51-4.64-2.48-6.09-.75-9.69-7.18-13.63-5.28-3.23-10.46-.6-15.66-1.15-9.13-1-7.49-4.34-10.27-11.83-2.89-7.8-9.51-5.47-14.23-11.72-6.91-9.13,2.07-12,6.76-18.16C-3720.36,2195.38-3721.45,2196.78-3720.92,2196.07Z" transform="translate(3816.03 -1933.8)"/><path class="cls-28" d="M-3701.44,2186.46c4.81-2.93-.12-5,1.52-8.32,0.79-1.6,4.5-2.61,4.74-4.12,1.06-6.5-6.83-8.19,2.12-12.69,9.42-4.72,8.93,1.67,14.33-8,2.92-5.22,4.61-6.9,11.06-6.93,10,0,19.69-2.84,30.11-3.36,10.58-.53,21.34.12,31.88-0.71,1.88-.15,4.25-1.8,5.92-1.5,5.87,1,8,6.08,14.67,6.72,8.4,0.81,11.89-.08,18.1,6.13,0.79,0.79,2.06,3.31,3.09,4.4,2,2.13,4.9.78,6.09,4.55,0.81,2.57-2.73,5.09-2.26,7.3s3.33,2.17,4.41,4.09a31.65,31.65,0,0,1,3,7.44q-4.32,3.23,1.19,5.64a9.71,9.71,0,0,1,2.28,6c-2.14,8.19-6.49-2.48-11.38,2.34-2.8,2.76,5.82,12.46-2,13.38,3-4.07-3.45-7.22-6.31-4.58-3.93,3.62,6,10-2,13.85-4.85,2.31-6.76-4-12.16-.69-3,1.84-4,7.49-6,9.71-3,3.32-3.33,4.13-8,3.3-3-.54-2-6-6.85-4.12-3.6,1.39-.66,3.83-2,5.33-5.4,6.14-5.92,3.1-13.47,3-5.16-.09-9.23,4.72-14.77,3.28-7-1.83-2.41-7.29-7.63-9.8-6.75-3.25-4,4.25-6.53,6.14-3.77,2.8-11.26,2.66-15.27.25-6.06-3.63-3.67-9.91-8-14.39-3.68-3.84-8-3.22-12.69-3.45-9.84-.49-5.66-2.16-10-9.14-4-6.41-22.07-11.33-7.28-21.09C-3697.45,2184-3713.18,2194.2-3701.44,2186.46Z" transform="translate(3816.03 -1933.8)"/><path class="cls-31" d="M-3682.35,2177.14c0.68-.41,3.15-7.88,3.16-8.07,0.15-1.68-1.2-6.57.18-8.83,2.19-3.57,6.77-.81,9.27-2.42,1.75-1.13,1.56-1.72,3.08-3.32,3-3.19,3.14-5.64,7.31-7,2.93-1,9.28-.77,12.81-1.42a84.58,84.58,0,0,1,10.54-1c8.26-.46,16.52-0.38,24.79-0.57,6.54-.15,8.42,2.37,14.93,3.86,6.17,1.42,8.23.3,13.29,4.27,0.87,0.68,6.46,5.86,6.88,6.88,0.89,2.18-1.89,4.08-1.14,6.42,0.31,1,3,1.42,3.34,2.62,0.44,1.46.17,6.62,0.24,6.82,0.84,2.49,4.91,3.29,3.79,6.88-1.88,6-4.56-2.61-8.18,1.61-1.68,2,3.81,9.33-1.54,9.85,2.25-3.08-2.94-5.23-5-3s3.24,6.12-.09,9.1c-4,3.61-4.2-1.92-7.76-.68-4.33,1.51-2.73,4.68-5,7.4-5.36,6.33-8.61-1.6-13.58.7-3,1.4.71,5.73-5.46,6.95-2.68.53-4-1.78-6.61-1.64s-3,2.45-5.38,2.66c-6.4.54-4.55-2.12-7.87-4.48-1.69-1.2-.86-3-3.82-3.05-2.64-.09-1.32,3-2.19,3.43-3,1.63-4.88,3.78-9.31,2.49-5.8-1.69-4.27-4.75-7.17-8.85-3.23-4.57-5-4.05-10.1-5.31-5.62-1.39-4.07.17-7.75-4.72-0.82-1.1-.18-3.15-1.27-4.4s-4.08-.84-5.43-2.29c-3.56-3.81-4.2-7.37,1.07-10.85C-3679.39,2175.33-3691,2182.86-3682.35,2177.14Z" transform="translate(3816.03 -1933.8)"/><g class="cls-32"><path class="cls-30" d="M-3582.86,2165.36a125.54,125.54,0,0,1,33.6-2.5C-3560.26,2160.55-3572.28,2161.76-3582.86,2165.36Z" transform="translate(3816.03 -1933.8)"/><path class="cls-30" d="M-3583.36,2160.1a48.2,48.2,0,0,1,15.3-4.26A19.35,19.35,0,0,0-3583.36,2160.1Z" transform="translate(3816.03 -1933.8)"/><path class="cls-30" d="M-3591.63,2151.09c2.45-1.55,4.81-3.23,7.27-4.77A10.06,10.06,0,0,0-3591.63,2151.09Z" transform="translate(3816.03 -1933.8)"/><path class="cls-30" d="M-3532.46,2194.68c-7.48-5.53-15.88-10.67-24.82-13.45C-3548.86,2185.43-3540.79,2190.3-3532.46,2194.68Z" transform="translate(3816.03 -1933.8)"/><path class="cls-30" d="M-3541.57,2222.65c-9.15-13.38-21.49-25.82-35.61-33.91C-3563.77,2198.26-3552.1,2210.08-3541.57,2222.65Z" transform="translate(3816.03 -1933.8)"/><path class="cls-30" d="M-3558.62,2239.34a250,250,0,0,0-34.27-47.43C-3580.81,2207.31-3569.6,2223.16-3558.62,2239.34Z" transform="translate(3816.03 -1933.8)"/><path class="cls-30" d="M-3577.18,2250.54c-0.14-19.67-12.42-38.57-24.4-53.27C-3590.7,2213-3578.82,2230.86-3577.18,2250.54Z" transform="translate(3816.03 -1933.8)"/><path class="cls-30" d="M-3603.75,2207.29c4.57,11.64,9.45,23.19,12.87,35.23C-3592.73,2230.24-3597.9,2218.17-3603.75,2207.29Z" transform="translate(3816.03 -1933.8)"/><path class="cls-30" d="M-3606.17,2225.75a171.69,171.69,0,0,0,6.1,27A172.27,172.27,0,0,0-3606.17,2225.75Z" transform="translate(3816.03 -1933.8)"/><path class="cls-30" d="M-3625.14,2217.15c1.28,12.22,3.12,24.49,5.35,36.58A213.28,213.28,0,0,0-3625.14,2217.15Z" transform="translate(3816.03 -1933.8)"/><path class="cls-30" d="M-3633.67,2200.78c0.24,15.9-.12,31.72-0.67,47.6A190.52,190.52,0,0,0-3633.67,2200.78Z" transform="translate(3816.03 -1933.8)"/><path class="cls-30" d="M-3644.2,2209c-4.43,15.41-8.15,31.15-11,46.93A469.67,469.67,0,0,0-3644.2,2209Z" transform="translate(3816.03 -1933.8)"/><path class="cls-30" d="M-3687.91,2194.93a377.31,377.31,0,0,0-20.56,36.33A373.87,373.87,0,0,0-3687.91,2194.93Z" transform="translate(3816.03 -1933.8)"/><path class="cls-30" d="M-3692.17,2216.48a84.78,84.78,0,0,0-10.53,19.78A162.55,162.55,0,0,0-3692.17,2216.48Z" transform="translate(3816.03 -1933.8)"/><path class="cls-30" d="M-3690.67,2179.89c-10.82,5.24-22.47,11.51-31.09,20C-3712,2192.49-3701,2186.62-3690.67,2179.89Z" transform="translate(3816.03 -1933.8)"/><path class="cls-30" d="M-3701.2,2176.14a34.16,34.16,0,0,0-13.54,5.77A111.4,111.4,0,0,0-3701.2,2176.14Z" transform="translate(3816.03 -1933.8)"/></g><g class="cls-5"><path class="cls-31" d="M-3693.93,2229.5c10.66-10.34,7.31-26,8.18-39.75,0.59-9.41,6.66-32-5.42-36.41,2.79-1.6.26-3.63,2-5.58,2.77-3.06,6.22-2.14,10-1.94,7.09,0.39,10-.21,17.1-2.08,9.75-2.57,20.62-2.27,30.61-2.61,10.34-.35,21.54.82,31.78-0.56,1.37-.19,3.56-0.77,4.8-0.86,2-.15,3.79-1.51,6-1,4.31,0.94,4.53,6.41,8.34,6.82-2.59.9-13.48,4.05-11.38,8.09,1.78,3.43,6.9.72,8.53,4.75,0.69,1.73-1.55,3.95,0,6.67,1,1.78,4.5.4,5.72,1.55-1.71-1.61-5.4,2.27-5,4.14,0.44,2.09,8.09,2.85,7.85,4.82-0.08.69-6.42,0.52-7.21,1.54-2.12,2.71,1.13,7.41,2.43,9.85-7.61-4.91-13.25-1.09-11,7.77-9.13-7.71-3.15,3.34-6.19,5.53-5.76,4.15-9.62-12-14.12,4-3.52-2.78-7.49-5.77-10.9-2.05-1.21,1.32,0,5.88-1.28,6.57,1.91-1.06-5.48-3.77-5.87-3.82-1-.13-2,4.09-3.31,3.73-2.05-.54-1.45-4.94-2.67-6.4-4.63-5.54-8-1.19-14.2-3.21-5.05-1.65-10.91-13-14.75-13.38-3-.28-8.91,32.56-9.28,35.73-1.41,12.15-2.43,26.2-1.37,38.37-7.21-4.28-4.57-12.43-9.41-18.08-3.88-4.53-10.86-5.74-16.5-4.72a49.25,49.25,0,0,1,6.55-7.43C-3685.15,2221-3696.91,2232.32-3693.93,2229.5Z" transform="translate(3816.03 -1933.8)"/></g><g class="cls-33"><path class="cls-31" d="M-3579.59,2186.91c-2.34-2,2.45.22,2.69,0.3,5.13,1.71,10.16,5.94,14.53,9,6.07,4.29,18.28,11.31,21.89,17.88,1.87,3.39,3.73,12.14-2.39,12.69,7-9.52-30.22-34.35-36.72-39.9h0Z" transform="translate(3816.03 -1933.8)"/><path class="cls-31" d="M-3652.9,2255.15a5.8,5.8,0,0,1,.34-2C-3652.69,2253.83-3652.8,2254.49-3652.9,2255.15Z" transform="translate(3816.03 -1933.8)"/><path class="cls-31" d="M-3537.54,2171.39c-4.22,9.57,4.65,7.12,7.49,15.93a97.13,97.13,0,0,0-23-10.9c-3.09-1-24.59-3.82-25.1-5.5-1.93-6.4,38.86,0,40.6.48C-3538.86,2174.38-3570.8,2162.84-3537.54,2171.39Z" transform="translate(3816.03 -1933.8)"/><path class="cls-31" d="M-3697.19,2175.64c-6,1-11.9,3.33-17.54,5.57,0.14-2.06-2.79-5.26-3.41-7.12,5.43,0.47,18.22-1.9,22.84,1a2.23,2.23,0,0,1-1.89.56h0Z" transform="translate(3816.03 -1933.8)"/><path class="cls-31" d="M-3579.1,2175.39a184.51,184.51,0,0,1,37.37,16.1c4.57,2.55,25.39,13.6,13.28,20.12-9-11.66-22.34-19.88-35-27.07-4.29-2.45-9.11-4.37-13.19-7.11-0.35-.23-5.66-2.85-2.49-2C-3557.31,2181.81-3588.13,2173.08-3579.1,2175.39Z" transform="translate(3816.03 -1933.8)"/><path class="cls-31" d="M-3652.9,2257.23l-0.67,2Q-3652.75,2252-3652.9,2257.23Z" transform="translate(3816.03 -1933.8)"/><path class="cls-31" d="M-3696.19,2182.41c-10.08,5.22-19.76,11.26-29.35,17.32,3.38-2.88,3.66-4.71,5.39-7.73q-2.9-4.33,3.22-4.51,3.07-1.27,6.18-2.4c3.34-1.24,13.85-6.62,17.82-5.13,0.95,0.36-4.71,3.21-3.27,2.46h0Z" transform="translate(3816.03 -1933.8)"/><path class="cls-31" d="M-3589.37,2192.92c11.93,6.47,22,16,30.66,26.4,2.35,2.82,9.57,9.37,9.76,13.13,0.13,2.55-1.41,4.1-3.28,5.52-4.44,3.37-3.92,1.71-6.88-1.14-3.84-3.7-6.26-10.94-9.38-15.44-3.27-4.73-6.8-9.28-10.41-13.75-1.15-1.43-11.27-15.49-12-15.43a4,4,0,0,1,1.56.71C-3571.6,2202.57-3598.48,2187.42-3589.37,2192.92Z" transform="translate(3816.03 -1933.8)"/><path class="cls-31" d="M-3689.16,2206.21c-3.68,6.38-6.74,13.14-9.82,19.81-0.93,2-2.4,8.13-4.32,9.55-3.47,2.56-5.55,3.41-5.18-1.75,0.3-4.25,21.73-28.51,20.65-30.48,0.24,0.44-1.35,2.92-1.32,2.86C-3693.68,2214.05-3683.77,2196.82-3689.16,2206.21Z" transform="translate(3816.03 -1933.8)"/><path class="cls-31" d="M-3691.67,2193.43q-11.13,14.82-22.28,29.63c-1.71-5.29-11-4.71-14.48-9.65,9.47-2.29,18.05-7.92,25.86-13.53,0.9-.65,12.83-8.87,12.72-9.32,0.14,0.57-1.79,2.82-1.83,2.88h0Z" transform="translate(3816.03 -1933.8)"/><path class="cls-31" d="M-3617.71,2203.44c7,1.36,9.53,21.49,10.66,26.58,1.47,6.65,2.69,13.36,3.81,20.07s3.62,14.94-7.27,12.75-9.72-24.53-10.55-33.72c-0.24-2.62-3.17-27,3.36-25.69h0Z" transform="translate(3816.03 -1933.8)"/><path class="cls-31" d="M-3630.24,2206c5,8.24,4.83,21.39,5.84,30.65,1.18,10.72,6.92,29.23-9.76,28.08,3.25-13.53,2.77-27.88,2.4-41.68-0.05-1.91-.24-20,1.51-17C-3626.3,2212.51-3635,2197.95-3630.24,2206Z" transform="translate(3816.03 -1933.8)"/><path class="cls-31" d="M-3605.93,2200.44c9.56,8.41,15.52,21.45,20.25,33,1.54,3.77,6.92,13.65,6,17.94-1.28,6-6.27,5.57-8.79.3-3-6.34-2.71-16.23-5.08-23.23a119.51,119.51,0,0,0-7.31-17c-0.71-1.36-8.23-13.37-5.08-11.06C-3593.2,2211.64-3613.08,2195.2-3605.93,2200.44Z" transform="translate(3816.03 -1933.8)"/><path class="cls-31" d="M-3576.34,2162.12c-0.56.17-4.57,1.71-5.68,1.19,0.07,0,11.58-5.43,12.7-5.77a92.38,92.38,0,0,1,12.83-3,62.9,62.9,0,0,1,7.13-.85,12.41,12.41,0,0,0,2.21,6.31c-9.64-.9-19.87-0.84-29.19,2.08C-3592.52,2167.18-3566.54,2159-3576.34,2162.12Z" transform="translate(3816.03 -1933.8)"/><path class="cls-31" d="M-3645.54,2214.72c-2,10.32-4.48,20.54-6.89,30.76-2.71,11.45-2.21,19-16.48,16.3,3.93-11.25,7.94-22.49,12.36-33.56,2.23-5.6,4.29-13.74,8.21-18.47,5.17-6.23,4-1,2.81,5C-3647.61,2225.51-3642,2196.58-3645.54,2214.72Z" transform="translate(3816.03 -1933.8)"/></g><path class="cls-34" d="M-3549.64,2188.16c-0.58,2.21.59-2.14,0,0C-3549.72,2188.5-3549.54,2187.82-3549.64,2188.16Z" transform="translate(3816.03 -1933.8)"/><path class="cls-34" d="M-3545.24,2192.7c-0.57,2.17.55-2.11,0,0h0Z" transform="translate(3816.03 -1933.8)"/><path class="cls-34" d="M-3537.59,2195.46c-0.56,2.25.61-2.21,0,0C-3537.67,2195.8-3537.5,2195.12-3537.59,2195.46Z" transform="translate(3816.03 -1933.8)"/><path class="cls-34" d="M-3539.85,2200.46c-0.58,2.22.59-2.18,0,0C-3539.93,2200.8-3539.76,2200.13-3539.85,2200.46Z" transform="translate(3816.03 -1933.8)"/><path class="cls-34" d="M-3544.61,2200.34c-0.59,2.17.6-2.16,0,0h0Z" transform="translate(3816.03 -1933.8)"/><path class="cls-34" d="M-3553.42,2216c-0.57,2.19.6-2.19,0,0C-3553.51,2216.32-3553.33,2215.64-3553.42,2216Z" transform="translate(3816.03 -1933.8)"/><path class="cls-34" d="M-3556.78,2218.73c-0.58,2.21.6-2.19,0,0C-3556.87,2219.06-3556.69,2218.39-3556.78,2218.73Z" transform="translate(3816.03 -1933.8)"/><path class="cls-34" d="M-3562,2226.12c-0.59,2.17.63-2.2,0,0C-3562.14,2226.45-3562,2225.79-3562,2226.12Z" transform="translate(3816.03 -1933.8)"/><path class="cls-34" d="M-3569.79,2229.68c-0.57,2.14.57-2.16,0,0h0Z" transform="translate(3816.03 -1933.8)"/><path class="cls-34" d="M-3575.66,2231.18c-0.57,2.15.58-2.15,0,0h0Z" transform="translate(3816.03 -1933.8)"/><path class="cls-34" d="M-3583.48,2236.89c-0.61,2.13.58-2.12,0,0C-3583.58,2237.22-3583.39,2236.57-3583.48,2236.89Z" transform="translate(3816.03 -1933.8)"/><path class="cls-34" d="M-3583.22,2244.07c-0.58,2.13.59-2.17,0,0h0Z" transform="translate(3816.03 -1933.8)"/><path class="cls-34" d="M-3582.59,2249.32c-0.59,2.05.54-2.08,0,0C-3582.69,2249.66-3582.5,2249-3582.59,2249.32Z" transform="translate(3816.03 -1933.8)"/><path class="cls-34" d="M-3591.12,2244.56c-0.59,2.26.65-2.23,0,0C-3591.21,2244.89-3591,2244.24-3591.12,2244.56Z" transform="translate(3816.03 -1933.8)"/><path class="cls-34" d="M-3596,2242.17c-0.58,2.22.59-2.16,0,0C-3596.09,2242.51-3595.92,2241.85-3596,2242.17Z" transform="translate(3816.03 -1933.8)"/><path class="cls-34" d="M-3610.59,2244.54c-0.58,2.16.61-2.19,0,0C-3610.68,2244.87-3610.5,2244.21-3610.59,2244.54Z" transform="translate(3816.03 -1933.8)"/><path class="cls-34" d="M-3604.42,2249.42c-0.58,2.18.62-2.18,0,0C-3604.5,2249.75-3604.32,2249.09-3604.42,2249.42Z" transform="translate(3816.03 -1933.8)"/><path class="cls-34" d="M-3612.05,2251.08c-0.58,2.11.56-2.12,0,0C-3612.14,2251.42-3612,2250.74-3612.05,2251.08Z" transform="translate(3816.03 -1933.8)"/><path class="cls-34" d="M-3607.91,2252.57c-0.57,2.19.56-2.14,0,0h0Z" transform="translate(3816.03 -1933.8)"/><path class="cls-34" d="M-3603.9,2255.46c-0.59,2.09.56-2.12,0,0C-3604,2255.79-3603.81,2255.13-3603.9,2255.46Z" transform="translate(3816.03 -1933.8)"/><path class="cls-34" d="M-3613.18,2256.09c-0.59,2.07.54-2.09,0,0C-3613.27,2256.41-3613.09,2255.75-3613.18,2256.09Z" transform="translate(3816.03 -1933.8)"/><path class="cls-34" d="M-3617.32,2250.07c-0.57,2.06.52-2.09,0,0C-3617.41,2250.4-3617.23,2249.74-3617.32,2250.07Z" transform="translate(3816.03 -1933.8)"/><path class="cls-34" d="M-3622.46,2248.44c-0.57,2.12.56-2.13,0,0h0Z" transform="translate(3816.03 -1933.8)"/><path class="cls-34" d="M-3628.85,2249.2c-0.58,2.08.55-2.1,0,0C-3628.94,2249.53-3628.76,2248.86-3628.85,2249.2Z" transform="translate(3816.03 -1933.8)"/><path class="cls-34" d="M-3633,2252.21c-0.57,2,.51-2.07,0,0C-3633.08,2252.54-3632.9,2251.87-3633,2252.21Z" transform="translate(3816.03 -1933.8)"/><path class="cls-34" d="M-3624.84,2256.09c-0.57,2.19.59-2.19,0,0h0Z" transform="translate(3816.03 -1933.8)"/><path class="cls-34" d="M-3629.48,2259c-0.6,2.13.58-2.14,0,0h0Z" transform="translate(3816.03 -1933.8)"/><path class="cls-34" d="M-3635,2261.35c-0.56,2.13.55-2.14,0,0C-3635.08,2261.69-3634.9,2261-3635,2261.35Z" transform="translate(3816.03 -1933.8)"/><path class="cls-34" d="M-3644.66,2246.66c-0.59,2.15.6-2.16,0,0h0Z" transform="translate(3816.03 -1933.8)"/><path class="cls-34" d="M-3650.79,2246.19c-0.59,2.13.56-2.11,0,0C-3650.88,2246.53-3650.7,2245.86-3650.79,2246.19Z" transform="translate(3816.03 -1933.8)"/><path class="cls-34" d="M-3661.32,2255.46c-0.58,2.16.6-2.19,0,0h0Z" transform="translate(3816.03 -1933.8)"/><path class="cls-34" d="M-3663.7,2258.22c-0.6,2.06.56-2.11,0,0C-3663.79,2258.54-3663.61,2257.87-3663.7,2258.22Z" transform="translate(3816.03 -1933.8)"/><path class="cls-34" d="M-3669.72,2256c-0.57,2.11.55-2.11,0,0C-3669.81,2256.3-3669.63,2255.62-3669.72,2256Z" transform="translate(3816.03 -1933.8)"/><path class="cls-34" d="M-3672.23,2252.07c-0.55,2.34.66-2.28,0,0C-3672.31,2252.41-3672.13,2251.74-3672.23,2252.07Z" transform="translate(3816.03 -1933.8)"/><path class="cls-34" d="M-3663.07,2246.44c-0.58,2.14.56-2.12,0,0C-3663.16,2246.77-3663,2246.1-3663.07,2246.44Z" transform="translate(3816.03 -1933.8)"/><path class="cls-34" d="M-3672,2245.19c-0.59,2.2.64-2.21,0,0C-3672.07,2245.52-3671.88,2244.86-3672,2245.19Z" transform="translate(3816.03 -1933.8)"/><path class="cls-34" d="M-3700.81,2223.64c-0.59,2.1.57-2.12,0,0C-3700.9,2224-3700.72,2223.31-3700.81,2223.64Z" transform="translate(3816.03 -1933.8)"/><path class="cls-34" d="M-3704.69,2228c-0.6,2,.53-2.05,0,0C-3704.79,2228.36-3704.6,2227.69-3704.69,2228Z" transform="translate(3816.03 -1933.8)"/><path class="cls-34" d="M-3702.94,2232c-0.58,2.12.58-2.14,0,0h0Z" transform="translate(3816.03 -1933.8)"/><path class="cls-34" d="M-3708.08,2233.67c-0.59,2.07.55-2.12,0,0C-3708.17,2234-3708,2233.33-3708.08,2233.67Z" transform="translate(3816.03 -1933.8)"/><path class="cls-34" d="M-3704.45,2235.55c-0.6,2.14.62-2.18,0,0h0Z" transform="translate(3816.03 -1933.8)"/><path class="cls-34" d="M-3712.09,2216.38c-0.6,2.08.58-2.13,0,0C-3712.19,2216.7-3712,2216-3712.09,2216.38Z" transform="translate(3816.03 -1933.8)"/><path class="cls-34" d="M-3715.86,2212.37c-0.59,2.17.64-2.21,0,0C-3715.94,2212.7-3715.76,2212-3715.86,2212.37Z" transform="translate(3816.03 -1933.8)"/><path class="cls-34" d="M-3721.87,2212.49c-0.59,2.08.54-2.08,0,0C-3722,2212.83-3721.78,2212.16-3721.87,2212.49Z" transform="translate(3816.03 -1933.8)"/><path class="cls-34" d="M-3726.51,2210.37c-0.57,2.15.58-2.17,0,0h0Z" transform="translate(3816.03 -1933.8)"/><path class="cls-34" d="M-3725.75,2206.86c-0.59,2.07.55-2.09,0,0C-3725.85,2207.19-3725.67,2206.52-3725.75,2206.86Z" transform="translate(3816.03 -1933.8)"/><path class="cls-34" d="M-3721.62,2203.6c-0.59,2.24.65-2.23,0,0C-3721.71,2203.93-3721.53,2203.27-3721.62,2203.6Z" transform="translate(3816.03 -1933.8)"/><path class="cls-34" d="M-3725.26,2201.36c-0.6,2,.54-2.08,0,0C-3725.35,2201.67-3725.17,2201-3725.26,2201.36Z" transform="translate(3816.03 -1933.8)"/><path class="cls-34" d="M-3714,2187.35c-0.58,2.16.59-2.17,0,0h0Z" transform="translate(3816.03 -1933.8)"/><path class="cls-34" d="M-3715.46,2184c-0.57,2.1.55-2.11,0,0C-3715.55,2184.3-3715.37,2183.62-3715.46,2184Z" transform="translate(3816.03 -1933.8)"/><path class="cls-34" d="M-3709.45,2169.81c-0.57,2.2.62-2.2,0,0C-3709.53,2170.14-3709.36,2169.48-3709.45,2169.81Z" transform="translate(3816.03 -1933.8)"/><path class="cls-34" d="M-3714.84,2169.56c-0.57,2.17.59-2.17,0,0C-3714.93,2169.9-3714.75,2169.22-3714.84,2169.56Z" transform="translate(3816.03 -1933.8)"/><path class="cls-34" d="M-3713,2175.82c-0.58,2.11.56-2.14,0,0C-3713,2176.16-3712.87,2175.49-3713,2175.82Z" transform="translate(3816.03 -1933.8)"/><path class="cls-34" d="M-3657.34,2252.06c-0.58,2.09.55-2.12,0,0C-3657.44,2252.39-3657.26,2251.72-3657.34,2252.06Z" transform="translate(3816.03 -1933.8)"/><path class="cls-34" d="M-3571.9,2232.93c-0.59,2.17.58-2.15,0,0h0Z" transform="translate(3816.03 -1933.8)"/><path class="cls-34" d="M-3574.53,2237.06c-0.58,2.17.58-2.14,0,0h0Z" transform="translate(3816.03 -1933.8)"/><path class="cls-34" d="M-3554.53,2227.62c-0.58,2.21.65-2.22,0,0C-3554.62,2228-3554.43,2227.29-3554.53,2227.62Z" transform="translate(3816.03 -1933.8)"/><path class="cls-34" d="M-3558.39,2229.4c-0.59,2.13.57-2.13,0,0C-3558.49,2229.74-3558.31,2229.07-3558.39,2229.4Z" transform="translate(3816.03 -1933.8)"/><path class="cls-34" d="M-3556.52,2234.79c-0.57,2.17.56-2.14,0,0h0Z" transform="translate(3816.03 -1933.8)"/><path class="cls-34" d="M-3542.73,2206.1c-0.62,2.16.61-2.15,0,0h0Z" transform="translate(3816.03 -1933.8)"/><path class="cls-34" d="M-3536.08,2201.85c-0.58,2.11.56-2.12,0,0C-3536.18,2202.19-3536,2201.52-3536.08,2201.85Z" transform="translate(3816.03 -1933.8)"/><path class="cls-34" d="M-3532.2,2203.73h0Z" transform="translate(3816.03 -1933.8)"/><path class="cls-22" d="M-3703.7,2254.56c0-5.54.56-11,3.61-15.84,3.68-5.78,11.67-8.94,14.53-15.29s0.92-17,1.11-23.81c0.77-27.43,4.74-54.33,4-81.83-0.64-24.09.9-46.52,31.36-40.76,3.23,0.61,9.07,3.52,12.46,2.43,3.12-1,3.93-4.62,6.07-5.49,4.12-1.68,13.72,1.17,18.29,1.55-3.68,8.64,6.78,8.19,12.37,8.13,8.46-.09,12.1,0,18.24,5.49,11.06,9.93,20.11,23.19,32.4,31.64,6.64-12.54,17.26-28.88,16.35-43.69-0.27-4.4-2.83-8-2.33-12.6,0.33-3,2.84-6.09,3.67-9,0.77-2.72-.15-10.67,3.31-10.41,5.57,0.43,1.2,13.3,1.69,15.8,1.22,6.18,4.47,5.55,10.1,7.08a203.14,203.14,0,0,1,21.39,6.77c1.29,0.51,22.14,11.51,11.83,11.15,4.75,3,7.42,7.27,3.34,9.85s-20.16-1.23-26.17-2.86c-9.94-2.7-15.79-11.45-19.13,1.36-1.66,6.35-2.2,13.08-3.82,19.49-2.43,9.62-7.41,35.5-21.31,29-15.59-7.34-26-27.51-40.23-37.75,0.05,2.38,0,4.76-.08,7.14-5.69-14.34-27.5-11.7-36.36-2.14-9.24-13-34.62-15.69-37.61,3.07-1.79,11.26-.61,23.72-1,35.21-0.85,23-4.23,43.84-9.41,66.21-2.79,12.07-1.59,24.33-2.34,36.64-0.13,2.19,1.6,8.26-2.27,7.85-5.36-.56-1.51-11.28-4.43-13.07-6.21-3.8-9.5,33.2-10.61,33.27,0.42,0-5.21-19.94-5.35-21.88-0.36,1.73-2.08,6.35-4.35,6.35C-3706.08,2263.58-3703.7,2254.43-3703.7,2254.56Z" transform="translate(3816.03 -1933.8)"/><path class="cls-26" d="M-3526,2064.82a17.93,17.93,0,0,1,4.18,7.35A6.79,6.79,0,0,0-3526,2064.82Z" transform="translate(3816.03 -1933.8)"/><path class="cls-26" d="M-3510.82,2080.53c-5.07-3.47-7.9-7.85-14.87-5.68C-3524.4,2074.77-3510,2078.17-3510.82,2080.53Z" transform="translate(3816.03 -1933.8)"/><path class="cls-26" d="M-3513.15,2071.67c3.32,1.41,4.93,5.12,7.52,7.69C-3505.67,2079.27-3513.15,2069.78-3513.15,2071.67Z" transform="translate(3816.03 -1933.8)"/><path class="cls-26" d="M-3508.47,2075.18a180.71,180.71,0,0,1,25.24,10.69A57.6,57.6,0,0,0-3508.47,2075.18Z" transform="translate(3816.03 -1933.8)"/><path class="cls-26" d="M-3503.29,2081.69c7.69,3.18,15.51,6,23.07,9.52C-3487,2086.41-3495.24,2083.38-3503.29,2081.69Z" transform="translate(3816.03 -1933.8)"/><path class="cls-26" d="M-3502.46,2083.7c5.18,9.05,16.93,4,22.57,12-2.72-5.77-14.64-7.28-18.94-7.56q-1.76-2.27-3.63-4.47C-3502,2084.53-3501.82,2084.41-3502.46,2083.7Z" transform="translate(3816.03 -1933.8)"/><path class="cls-26" d="M-3663.92,2092.71a464,464,0,0,0-1.34,47.43A468,468,0,0,0-3663.92,2092.71Z" transform="translate(3816.03 -1933.8)"/><path class="cls-26" d="M-3548.92,2120.19a7.86,7.86,0,0,0-1.76,7.35Q-3549.76,2123.88-3548.92,2120.19Z" transform="translate(3816.03 -1933.8)"/><path class="cls-26" d="M-3590.52,2105.41c0-1.54.66-2.59-.22-4.16C-3591.44,2102.9-3590.67,2103.88-3590.52,2105.41Z" transform="translate(3816.03 -1933.8)"/><path class="cls-26" d="M-3612.89,2078.32a9.34,9.34,0,0,0-.58,6.7A15.6,15.6,0,0,0-3612.89,2078.32Z" transform="translate(3816.03 -1933.8)"/><path class="cls-26" d="M-3631.32,2075a14.39,14.39,0,0,0-.65,7.57A14.69,14.69,0,0,0-3631.32,2075Z" transform="translate(3816.03 -1933.8)"/><g class="cls-23"><path class="cls-24" d="M-3479.89,2095.72a1.18,1.18,0,0,1,1.21,1q-1.44.34-1.21-1C-3479.73,2095.76-3479.72,2096.11-3479.89,2095.72Z" transform="translate(3816.03 -1933.8)"/><path class="cls-24" d="M-3483.24,2083.7l3.24,0.62c-0.37,2.68-5.16.12-1.86,2.47a195.2,195.2,0,0,0-21.1-10.26,78.19,78.19,0,0,1,19.73,7.18h0Z" transform="translate(3816.03 -1933.8)"/><path class="cls-24" d="M-3483.4,2088.53a22,22,0,0,0,5.35,2.44c0.1-.77-20.35-7.76-24.06-8.79,6.4,1.13,13.12,3,18.72,6.35h0Z" transform="translate(3816.03 -1933.8)"/><path class="cls-24" d="M-3534.21,2095.72c-2.76,7.43-6.52,14.38-9.92,21.52-0.94,2-4.45,14.38-5.83,14.75,4.77-1.27-16.77-27.83-17.06-28.21,5.59,5.72,11.13,12.44,17.76,17,8.85-16.72,18.52-32.49,14.32-51.42,1,3.93,4.55,7.35,5.06,11.13,0.63,4.61-2.87,11.27-4.34,15.24C-3539.23,2109.25-3529.2,2082.19-3534.21,2095.72Z" transform="translate(3816.03 -1933.8)"/><path class="cls-24" d="M-3613.11,2087.37c-0.76,4.13-1.44-7-1.51-6.35-4.58.6-10.91,0-15-2.18,0.09-.34-1.28,6.12-2.57,6.16-1.11,0-.53-3.58-2.08-4.1-5-1.64-9.47-1.27-14.67-3.86,3.36,0.7,8.94,3.47,12.46,2.32,3.31-1.08,4.11-4.62,6.56-5.36,4.55-1.37,12.84,1.09,17.69,1.5-3.71,8.6,6.68,8.21,12.11,8.43-2.83.34-12.28-.26-13,3.42C-3613.45,2089.21-3612.78,2085.53-3613.11,2087.37Z" transform="translate(3816.03 -1933.8)"/><path class="cls-24" d="M-3499.11,2088.38c-0.92-1.14-1.68-2.47-2.51-3.68,3.15,3.47,7.79,3.31,12,4.6,4.43,1.35,7.83,4.44,12,5.88C-3477.46,2095-3495.74,2088.62-3499.11,2088.38Z" transform="translate(3816.03 -1933.8)"/><path class="cls-24" d="M-3524.52,2089.71c1-8.73,15,.62,19.18,1.72a239.1,239.1,0,0,0,25.59,5.19c-2.35,6.64-43.52-14.91-44.76-6.92C-3524,2085.19-3524.54,2089.86-3524.52,2089.71Z" transform="translate(3816.03 -1933.8)"/></g><g class="cls-23"><path class="cls-24" d="M-3702.83,2245.66q-0.93,1.61.25,1.63c1.09-1.08,4.84-6.45,4.94-7.4,0,0.12-5,14.35-3,13.9,0.34-.08,2.22-7.94,3.48-9.5-0.46,1.66-4.09,16.26-1.38,16.66,2.2,0.32,2.49-14.15,4.84-15.51-0.23.13-2.62,15.86-1.33,15.76,4.33-.35,5.62-18.94,11.35-17.85,2.23,0.42,1.34,19.57,5.59,11.43,1.83-3.5,1-23.08-1.68-25.74-6.23-6.28-11.79,2.71-17,6,7.95-7.29,12-10.15,12.09-20.91,1.41,2.33-.66,8.19,2.27,10.11,3.64,2.39,12.46-38.21,12.82-41.17,0.88-7.17,2.22-16.35.15-23.45-0.3-1-5.93-11.54-8.35-5.9,1-2.23,4.77-3.15,6.31-5.48,1-1.45,1.31-4.06,1.73-5.67,1.71-6.45,2.19-13.45,2.83-20.07,0.24-2.51,3.83-30.29,2.88-30.85,1.74,1,1.28,9.14,1.31,10.42,9.19-6.8,20.57-4.41,30.26-.17-0.48-.59-7.53-5.86-8-5.31,2.69-3.15,10.45,6.34,12.34,6.66,2.87,0.48,7.41-3.67,9.75-2.68-0.23-.1-4.61,2.75-4.39,3.2-1-2,20.5-2.67,22-2.27a22.66,22.66,0,0,1,8.9,4.42c0,0.49.05-8.22,0.67-7.86,2.06,1.26,4.1,5.5,5.93,7.37,3.32,3.38,7.12,6.36,10.49,9.7,8.26,8.19,14.44,19.43,23.32,26.72-14.5-10.62-24.41-26.36-39.08-36.95,0.05,2.38,0,4.76-.08,7.14-5.69-14.34-27.5-11.7-36.36-2.14-9.24-13-34.62-15.69-37.61,3.07-1.79,11.26-.61,23.72-1,35.21-0.85,23-4.23,43.84-9.41,66.21-2.79,12.07-1.59,24.33-2.34,36.64-0.13,2.19,1.6,8.26-2.27,7.85-5.36-.56-1.51-11.28-4.43-13.07-6.21-3.8-9.5,33.2-10.61,33.27,0.42,0-5.21-19.94-5.35-21.88-0.36,1.73-2.08,6.35-4.35,6.35-0.92,0,1.47-17.53,1.54-17.92C-3703.33,2248.66-3702.8,2245.49-3702.83,2245.66Z" transform="translate(3816.03 -1933.8)"/></g><g class="cls-23"><path class="cls-24" d="M-3521.18,2070.17a3.22,3.22,0,0,1-.88,3.81c1.43-.24-6-9.54-6.33-10.74-1.6-6.09,3.69-11.78.59-17.89,6.2,4.57-1.26,13.13,1.4,18.21s14.43,5.5,19.42,7c-1.17-.29-15.12-4.08-14.2-0.42h0Z" transform="translate(3816.03 -1933.8)"/></g><path class="cls-22" d="M-3594.89,2143.58c-1.95,9.72,4.51,10.47,7.21,16.9,3.33,7.93-3.71,19.34-8.81,24.54-9.34,9.54-23,13.75-36.15,12.94-9.11-.57-25-4.34-27.71-15-1.53-5.91,3.48-9.3,3.86-15.29,0.34-5.54-2.9-12.25-4.68-17.32-2.25-6.41-5.4-8.76-1.52-12.42s16.65-3.13,21.47-3.15c15.78-.08,31.5,3.6,46.33,8.76C-3597.4,2156.09-3642.69,2126.95-3594.89,2143.58Z" transform="translate(3816.03 -1933.8)"/><path class="cls-26" d="M-3622.14,2183.07c-0.71,1.92-1.66,2.85-.17,4.84A46.09,46.09,0,0,0-3622.14,2183.07Z" transform="translate(3816.03 -1933.8)"/><g class="cls-23"><path class="cls-24" d="M-3661.34,2179.4c3.3,24.4,43.48,20.84,57.92,11.28,7.68-5.08,18.86-17.14,16-27.77-1.44-5.41-5.73-7.81-7.78-13.87s1.21-3.93-4.75-7.13c-3.63-2-9.91-2.9-13.93-3.81a128.09,128.09,0,0,0-21.09-3.09c-7.51-.43-18.41-1.14-25.46,2.24-5.75,2.76-4.62.35-2.94,7.15,3.45,14,9.7,21.26,2,35C-3658.83,2197.93-3656.57,2170.88-3661.34,2179.4Zm5-3c1.65-2.06,14.77-7.83,17.52-5.54-4.12-3.44-10.38-1.6-14.59-6.92-4.86-6.14-6.72-16.78-8.86-24.29,15.54-4.43,33-2.85,48.68.41,6.12,1.27,12.93,2.31,15.9,7,1.93,3,4.1,9.44,5.86,12.89,2,3.86,2.92,4.57,1.84,9.69-3,14.4-17.28,23.12-30.82,25.45-6.65,1.15-48.69-2.25-35.53-18.67h0Z" transform="translate(3816.03 -1933.8)"/></g><path class="cls-35" d="M-3621.55,2181.65c-0.21.91-1.32,6.67-1.19,6.73C-3627.29,2186.38-3621.55,2182.48-3621.55,2181.65Z" transform="translate(3816.03 -1933.8)"/><path class="cls-26" d="M-3693.55,2245a37.36,37.36,0,0,0-3.63,18C-3696.22,2257-3694.76,2251.05-3693.55,2245Z" transform="translate(3816.03 -1933.8)"/><path class="cls-26" d="M-3697.81,2244.78a18.6,18.6,0,0,0-2.22,12.45C-3699.41,2253.06-3698.68,2248.91-3697.81,2244.78Z" transform="translate(3816.03 -1933.8)"/><path class="cls-26" d="M-3697.69,2239.77c-4.66,6.12-5.64,10.87-3.13,18.54C-3701.47,2250.13-3701,2247-3697.69,2239.77Z" transform="translate(3816.03 -1933.8)"/><path class="cls-31" d="M-3664.59,2113.93c-1-20.57,29.23-15.76,37.61-4,7.37-7.94,22.45-11.12,31.42-4.22,10.09,7.76,3,27.89.67,37.88-20.72-7.21-49.16-14.28-70.46-4.51,0.35-8.32,1.15-16.81.75-25.13C-3664.72,2111.25-3664.42,2117.44-3664.59,2113.93Z" transform="translate(3816.03 -1933.8)"/><path class="cls-36" d="M-3664.84,2126.51c-0.06,4.18-.29,8.37-0.44,12.55,20.85-10.36,49.51-2.65,70.54,4.07-2.15-5.15,3.26-23.27,3.66-31.11-6-13.45-26.87-11.69-35.93-1.77-5.63-8.08-17.82-12.87-27.43-10C-3666.38,2103.92-3664.64,2116.43-3664.84,2126.51Zm0.5-15.65c2.69-17.82,31.08-12.3,37.2-1.08,8-9.3,32.79-13.21,37,2.28,2.37,8.76-2.63,23.52-4.37,32.12-21.48-7.11-49-14.72-70.88-5,0.36-9-.7-19.45,1.07-28.31C-3664.27,2110.36-3664.55,2111.87-3664.34,2110.86Z" transform="translate(3816.03 -1933.8)"/><path class="cls-37" d="M-3665.34,2139.06c21.26-9.79,49.8-2.67,70.46,4.51,2.33-10.13,9.35-30.07-.67-37.88-8.89-6.93-24.09-3.66-31.42,4.22-10.35-14.5-37.42-14.77-37.6,6.17,0.3-21.42,35.87-15.22,36.53,3.18,0.72,19.79-36.27,18.7-36.54-2.73C-3664.69,2124-3665,2131.56-3665.34,2139.06Zm38.35-19.62c5.64-16.27,37.24-21.66,35.05,1.33-2.21,23.26-41.16,16.32-35.05-1.33h0Z" transform="translate(3816.03 -1933.8)"/><path class="cls-34" d="M-3664.58,2116.08c0,0.15,0,.3,0,0.45C-3664.59,2116.38-3664.58,2116.24-3664.58,2116.08Z" transform="translate(3816.03 -1933.8)"/><path class="cls-34" d="M-3595.17,2117.58c-0.58,2.17.58-2.14,0,0h0Z" transform="translate(3816.03 -1933.8)"/><path class="cls-34" d="M-3594.58,2112.83c-0.58,2.11.56-2.12,0,0C-3594.67,2113.17-3594.49,2112.49-3594.58,2112.83Z" transform="translate(3816.03 -1933.8)"/><path class="cls-34" d="M-3598.26,2113.25c-0.59,2.07.56-2.09,0,0C-3598.35,2113.57-3598.17,2112.92-3598.26,2113.25Z" transform="translate(3816.03 -1933.8)"/><path class="cls-34" d="M-3596.84,2110.07c-0.59,2.16.59-2.14,0,0h0Z" transform="translate(3816.03 -1933.8)"/><path class="cls-34" d="M-3602.53,2107.48c-0.56,2.16.57-2.15,0,0h0Z" transform="translate(3816.03 -1933.8)"/><path class="cls-34" d="M-3607.46,2106.39c-0.59,2.25.63-2.2,0,0C-3607.54,2106.73-3607.36,2106.07-3607.46,2106.39Z" transform="translate(3816.03 -1933.8)"/><path class="cls-34" d="M-3611.63,2108.24c-0.58,2.08.55-2.1,0,0C-3611.73,2108.57-3611.54,2107.9-3611.63,2108.24Z" transform="translate(3816.03 -1933.8)"/><path class="cls-34" d="M-3614.06,2111.82c-0.58,2.19.59-2.17,0,0C-3614.15,2112.16-3614,2111.5-3614.06,2111.82Z" transform="translate(3816.03 -1933.8)"/><path class="cls-34" d="M-3616.56,2114.24c-0.58,2.13.55-2.12,0,0C-3616.66,2114.58-3616.48,2113.91-3616.56,2114.24Z" transform="translate(3816.03 -1933.8)"/><path class="cls-34" d="M-3617.74,2107.23c-0.58,2.15.59-2.16,0,0h0Z" transform="translate(3816.03 -1933.8)"/><path class="cls-34" d="M-3622.58,2109.16c-0.6,2,.54-2.08,0,0C-3622.68,2109.49-3622.49,2108.82-3622.58,2109.16Z" transform="translate(3816.03 -1933.8)"/><path class="cls-34" d="M-3613.31,2104.9h0Z" transform="translate(3816.03 -1933.8)"/><path class="cls-34" d="M-3620.83,2113c-0.57,2.24.62-2.2,0,0C-3620.92,2113.34-3620.74,2112.66-3620.83,2113Z" transform="translate(3816.03 -1933.8)"/><path class="cls-34" d="M-3624.67,2114.58c-0.59,2,.52-2.06,0,0C-3624.76,2114.91-3624.58,2114.24-3624.67,2114.58Z" transform="translate(3816.03 -1933.8)"/><path class="cls-34" d="M-3627.93,2117.25c-0.57,2.18.57-2.14,0,0h0Z" transform="translate(3816.03 -1933.8)"/><path class="cls-34" d="M-3631.7,2112.83c-0.57,2.17.59-2.18,0,0C-3631.78,2113.17-3631.6,2112.49-3631.7,2112.83Z" transform="translate(3816.03 -1933.8)"/><path class="cls-34" d="M-3633.36,2110.49c-0.58,2.13.56-2.12,0,0C-3633.45,2110.82-3633.27,2110.15-3633.36,2110.49Z" transform="translate(3816.03 -1933.8)"/><path class="cls-34" d="M-3636.12,2109.07c-0.58,2.16.61-2.17,0,0C-3636.21,2109.4-3636,2108.74-3636.12,2109.07Z" transform="translate(3816.03 -1933.8)"/><path class="cls-34" d="M-3636.79,2106.39c-0.6,2.18.59-2.14,0,0h0Z" transform="translate(3816.03 -1933.8)"/><path class="cls-34" d="M-3638.29,2104.14c-0.59,2.05.51-2,0,0C-3638.39,2104.48-3638.21,2103.8-3638.29,2104.14Z" transform="translate(3816.03 -1933.8)"/><path class="cls-34" d="M-3645.9,2103.47c-0.58,2.22.61-2.2,0,0C-3646,2103.8-3645.81,2103.14-3645.9,2103.47Z" transform="translate(3816.03 -1933.8)"/><path class="cls-34" d="M-3648.24,2107.31c-0.61,2.09.55-2.08,0,0C-3648.33,2107.64-3648.15,2107-3648.24,2107.31Z" transform="translate(3816.03 -1933.8)"/><path class="cls-34" d="M-3649.33,2110.9h0Z" transform="translate(3816.03 -1933.8)"/><path class="cls-34" d="M-3654.43,2109c-0.57,2.12.56-2.14,0,0C-3654.51,2109.32-3654.34,2108.65-3654.43,2109Z" transform="translate(3816.03 -1933.8)"/><path class="cls-34" d="M-3658.52,2107.82c-0.58,2.09.56-2.13,0,0C-3658.61,2108.15-3658.43,2107.48-3658.52,2107.82Z" transform="translate(3816.03 -1933.8)"/><path class="cls-34" d="M-3660.94,2105.64h0Z" transform="translate(3816.03 -1933.8)"/><path class="cls-34" d="M-3654.43,2102.55c-0.58,2.15.57-2.12,0,0h0Z" transform="translate(3816.03 -1933.8)"/><path class="cls-30" d="M-3603.59,2104.91c-9.44-.78-18.58,4.89-23.07,13C-3621,2110.72-3612.85,2105.63-3603.59,2104.91Z" transform="translate(3816.03 -1933.8)"/><path class="cls-30" d="M-3628.66,2117.1c-2.53-10.23-12.59-15.54-22.57-14.53C-3641.44,2103-3632.56,2107.76-3628.66,2117.1Z" transform="translate(3816.03 -1933.8)"/><path class="cls-38" d="M-3597.31,2051.78c8.11-1.17-.05-16.3,1.8-19.36,2.48-4.09,12.83-7.64,17.12-10.2,2.82,6,5.53,12.66,11.85,15.59,3.54,1.64,11.13-.54,13.39.95,2,1.31,3.58,9.26,1.1,11.65-4.19,4-13.24-2.69-15.48-5.21a24.85,24.85,0,0,0,13.57,10.17c-4.7,9.65-9.43,16.15-16.11,4.42a20.93,20.93,0,0,0,5.29,9.79,39.63,39.63,0,0,1-15.08,8.88c0.77-3.27.21-6.64-2.8-8.34,5.34,9.87-4.36,10.55-11.75,10,5.62-3.71,8.54-10.39,8.71-17,2.76,16.7-18.74,19.39-26.16,6.79C-3604.39,2066.89-3597.11,2060.48-3597.31,2051.78Z" transform="translate(3816.03 -1933.8)"/><path class="cls-39" d="M-3592.91,2080.43a1.49,1.49,0,0,1-1.76-.28,81.83,81.83,0,0,0,6.31-7.36c-6,6.9-11.81,8.09-18.74,2.66-8.27-6.48-4-5.2,1.5-9.36,4.8-3.64,7.71-10.55,9.06-14.24,1.28-3.49,2.92-5.89,2.47-10.55-0.33-3.35-3-6.62-1.59-9.12,1.1-1.94,14.06-9.85,16.29-9.7,3.51,0.25,6.74,11,10.41,13.57,5.41,3.85,13.86.54,17.37,3.76,1.69,1.55.45,10.06-.46,10.88-3,2.74-10.59-.5-12.92-2.54,5.4,5.87,11.27,3.25,9.61,10.35-0.27,1.15-6,9.07-7.11,9.17-2.3.2-5.52-4.22-6.84-6.13,2.71,9,8.51,7.18-2.49,13.62-12.86,7.53-3.3.23-10.24-4.4C-3577.37,2080.47-3586,2080.51-3592.91,2080.43Zm-0.68-.57c2.79,0.1,9.6.67,11.25-1.47,1.84-2.39-1.26-7.53-.52-8.43,2.06-2.4,3.37,8.2,3.39,8.1a39.19,39.19,0,0,0,14.32-8.5c-1.06-1-7-9.15-5-10-0.16,0,7.38,7.84,7.34,7.81a51.43,51.43,0,0,0,8.47-11.81c-0.86-.29-15.71-8.8-13.34-10.55,0,0,9.71,7.71,14,5.32,1.65-.92,4.06-7.81,1.65-10.17-1.59-1.56-.75.24-2.74-0.82-3.72-2-9.79.47-14.27-2.57s-7.13-9.25-9.46-14.14c-3.94,2.35-8.64,4.45-12.24,7.28-6.9,5.42-2.7,3.65-2.74,13.32,0,10.08-7.88,22.67-18,26.83,3.17,5.11,8.86,9.08,14.46,8.08,3.32-.59,8.09-4.67,9.6-7.55,0.05-.1,1.6-7.73,1.68-7.73C-3582,2062.61-3592.32,2078.94-3593.59,2079.86Z" transform="translate(3816.03 -1933.8)"/><path class="cls-40" d="M-3552,2050.42c3-10.81.83-10.81-7.06-11.09-10.84-.39-15.1-8.25-19.28-17.1-4,2.4-15.07,6.31-17.12,10.2-1,1.93,5.75,19.9-1.8,19.36,0.2,8.69-7.08,15.11-14.54,18.13,6.31,10.73,18,11.86,24.71.75a19.46,19.46,0,0,1-7.26,9.43c7.4,0.59,17.09-.09,11.75-10,3,1.94,3.65,4.78,2.8,8.34a39.63,39.63,0,0,0,15.08-8.88,20.93,20.93,0,0,1-5.29-9.79c6.8,11.64,11.34,5.39,16.11-4.42-1.53-.49-15.59-9.55-15.13-10.31-2,3.32,9,10.36,11.41,11.31-3.53.44-7.37,0.56-9.94-2.06,0.42,3.2,3,6.21,5.2,8.43-3.85-.78-6.56-4.34-7.67-7.91-1,3.12-.48,6.83.13,10-1.85-1.38-3.19-4.29-4.14-6.35,0.49,1.63,3,12.76-.52,13.45-0.1,0-2.33-6.09-2.72-6.81,0.23,0.61,1.8,11.7-.16,11.38,1.83,0.3-7.42-14.42-7.64-15.46-0.61-2.82,1.4-7,2.54-9.77,1.81-4.44,4-10.4,9.1-11.72,4.51-1.17,12.32,3.11,18,2.24-2.07,1.64-5.82,2-8.37,1.93,2.31,2.06,6.28,2.89,9.24,3.69-4.42.8-8.77-.73-12.86-2.2,5.57,6.25,8.34,5.17,15.48,5.21C-3549.93,2042.94-3556.82,2050.39-3552,2050.42Z" transform="translate(3816.03 -1933.8)"/><path class="cls-22" d="M-3567.67,2031c-0.56-2.38-1.8-25.82,1.76-25.66a55.49,55.49,0,0,0-10.34-.31c2.19-9.16.71-19.53-4.61-27.4,2.84,6,5.61,18.39,1.52,24.7-3.58,5.52-12.37,4.2-19.21,5.37a31,31,0,0,0-1-23.42c0.86,5.74,2,16.94-2.2,22.14s-16.67,5.19-23.4,6.78c2.6-8.17,4.67-19.51-1-26.94,1.72,7.83,1.49,20.66-5,26.83-3.71,3.52-8.72,3.75-13.78,5.14,2.73-7,4-15.36.88-22.4,0,12.81-4.84,25.83-10.53,37.16,1-9.64-8.67-25.7-13.48-10-1.36,4.42,2.38,26.09,9.48,21.85,4,7.71,13.47,9.85,21.46,8.93-0.17,5.28-3.08,10.37-6.51,14.25,10.45,8.48,18.76,7.51,30.85,7,4.21-.18,9.06.53,14.07-0.56,12.08-2.63,20.22-8.7,27.65-18.87,6.56-9,5.87-14.3,3.44-24.54h0Z" transform="translate(3816.03 -1933.8)"/><path class="cls-41" d="M-3622.25,2076.7c-4-.06-21-3.44-21.66-8.84-0.34-2.8,6.22-9.82,6.45-13.85-11.94,1.32-26.08-7.18-30-18-1.77-4.91-3.33-19.15,4.91-20.08,7.8-.87,8.58,10.49,8.29,15.67,1.81-3.74,10.37-36.13,10.08-36,4.24-1.09-.14,21.68-0.36,22.26,6.22-1.72,10.26-1.63,14.17-6.43,3.46-4.26,3.81-25.26,4-25.38,5-2.56,1.77,26.19,1.57,26.81,7.29-1.7,18.86-1.6,23.21-7.43,2-2.75,2.29-21.46,1.9-21.36,3.85-1.38,1.91,22.17,1.5,23.33,8.68-1.47,15.28.59,19.1-6.93,2-4-1.47-23.33-2-23,4.06-2.43,5.32,26.36,5.1,27.34,0.66,0,10.37-.31,10.26.63-0.73,8-3.37,16.48-1.77,25.56,2.22,12.63,2.74,17.36-6.14,28.11C-3586.32,2074.46-3604.33,2076.95-3622.25,2076.7Zm-21-8.79c6.58,5.29,14.66,8.64,23.18,8.1,2.55-.16,5.12-1.4,7.56-1.49,0.48,0,6.38,1.24,4.2,1.39,7.89-.53,17.6-2.94,24.17-7.43,8.86-6.06,19.39-17.4,18.34-28.87-1.1-12.14-3.94-21.73-1-34.15-10.61-1.21-8,3.06-8.88-5.69-0.65-6.61-.43-12.44-3.47-18.65,1.77,5.21,3.41,14.64.51,19.87-3,5.49-.46,3.9-8.08,5.21-1.77.3-11,2.31-11.78,1.74-1.07-.77,1.28-0.45.33-2.64-1.8-4.17,1.25-13.47-.84-19.07,0.6,5.11,1.35,15.46-2.38,20.07-3.29,4.08-13.38,5.83-19,6-1.21,0-4.18,1.72-5,.73-0.69-.83,2.41-11.31,2.44-12.85,0.1-4.34-.34-9.07-2.7-12.84,1.47,7.77.79,20.32-5.68,26.27-1.72,1.58-12.57,6.31-13.83,4.72-0.47-.47,2.82-17.37,1.34-21.31-0.1,3.28-6.88,37.2-10.87,36.14-2-.78-0.28-25.54-11.39-14.31-7.4,7.48.78,21.49,6.45,26.4,3.4,2.94,10.26,6.38,16.34,8.22,1.16,0.35,5.71-.79,6.42.19C-3634.76,2056.65-3641.39,2065.8-3643.27,2067.91Z" transform="translate(3816.03 -1933.8)"/><path class="cls-42" d="M-3658.77,2045.32c0.05,0,3-6.69,2.88-6.71C-3655.2,2038.72-3657.23,2045.32-3658.77,2045.32Z" transform="translate(3816.03 -1933.8)"/><path class="cls-42" d="M-3659.78,2039.73c-0.15,0,.47-11.53.37-11.9-0.83-3.11-2.11-3-3.43-5.46a16.51,16.51,0,0,0-1.89,2.24c2.28,0.52,3.23-5.52,5.85,3.25C-3658.53,2029-3658.71,2039.73-3659.78,2039.73Z" transform="translate(3816.03 -1933.8)"/><path class="cls-42" d="M-3662.74,2036.32c-2.82-.16,3.33-9.38,3.83-7.12C-3659,2028.78-3662.77,2034.73-3662.74,2036.32Z" transform="translate(3816.03 -1933.8)"/><path class="cls-41" d="M-3611.65,2074.72c-2.14-.16.45-8.32,1-8.08C-3610.49,2066.69-3612.24,2074.72-3611.65,2074.72Z" transform="translate(3816.03 -1933.8)"/><path class="cls-43" d="M-3601.19,2056.14c7.79-2.17,5.45,2.51,3.74,6.39-0.61,1.39-3.52,7.14-5.41,7.69-11.26,3.26,3.65-9.62,3.82-10.1C-3598.51,2058.64-3601.83,2055.31-3601.19,2056.14Z" transform="translate(3816.03 -1933.8)"/><path class="cls-41" d="M-3601.81,2074.59c-0.75-.07,3.11-3.91,3.42-3.61C-3597.61,2071.67-3602.22,2074.59-3601.81,2074.59Z" transform="translate(3816.03 -1933.8)"/><path class="cls-44" d="M-3601.15,2067.31c0.07-.17,1.25-4.26.7-4-1,.49-5.75,4.11-4.55,5.59Q-3602.43,2070.4-3601.15,2067.31Z" transform="translate(3816.03 -1933.8)"/><path class="cls-45" d="M-3603.84,2069.77c-4-3.31,3.94-6.54,3.91-6.59C-3598.75,2065-3601.75,2069.79-3603.84,2069.77Zm3.45-6.29c-0.85.51-5.36,4.06-4.4,5.24C-3602.84,2071.1-3599.68,2064.94-3600.39,2063.48Z" transform="translate(3816.03 -1933.8)"/><g class="cls-46"><path class="cls-47" d="M-3603.12,2065.45a3.88,3.88,0,0,0-1.88,3.45c1.11,1.36,5.37-.34,1.88-3.45C-3604.42,2066.74-3602.53,2066-3603.12,2065.45Z" transform="translate(3816.03 -1933.8)"/><path class="cls-45" d="M-3603.85,2069.76c-3.87,0,.68-4.32.73-4.51C-3603.29,2065.87-3597.11,2069.82-3603.85,2069.76Zm0.74-3.93a3.58,3.58,0,0,0-1.68,2.88C-3603.85,2069.87-3600.36,2068.42-3603.11,2065.84Z" transform="translate(3816.03 -1933.8)"/></g><path class="cls-41" d="M-3603.81,2070c-6-.07,6.07-8.86,6.16-9,3-6.38-4.55-2.54-4.14-4.46,0.17-1.15,5.48,1.86,5.17.31,0.7,3.52.48-.61-0.2,4.09C-3597,2061.77-3602.31,2070.18-3603.81,2070Zm3.63-6.52c-0.84.61-5.47,3.58-4.57,5.29C-3602.92,2072.35-3600.22,2064-3600.19,2063.47Z" transform="translate(3816.03 -1933.8)"/><path class="cls-48" d="M-3602.2,2058c0.29,0,3.19.17,2.47,1.17-0.38.54-8.18,6-8,6.16-1.85-2.46,3.75-7,5.57-7.33h0Z" transform="translate(3816.03 -1933.8)"/><path class="cls-49" d="M-3597.15,2064.92c0.61,0.81-4.38,4.92-5.22,5.7,1.84-.32,7.43-2.7,5.22-5.7h0Z" transform="translate(3816.03 -1933.8)"/><path class="cls-50" d="M-3663.57,2032.87c-0.36,0-.58-11.81,2.53-8,1.2,1.46-.42,8.07-2.53,8h0Z" transform="translate(3816.03 -1933.8)"/><path class="cls-50" d="M-3659.77,2043.65c-0.67.07,4.3-18.4-.19-21.61-7.82-5.59-4.78,11.13-5.3,14.09-6.28-3.38-1.47-25.5,7.46-16.55,3.33,3.34,3.9,23.46-2,24.07h0Z" transform="translate(3816.03 -1933.8)"/><path class="cls-51" d="M-3575.55,2042c4.94-.86,14.92,1.84,6.88,7.73-5.7,4.18-17.26-5.75-6.88-7.73h0Z" transform="translate(3816.03 -1933.8)"/><path class="cls-52" d="M-3576.22,2043.44s2.13-1,3.53,0S-3578,2044.67-3576.22,2043.44Z" transform="translate(3816.03 -1933.8)"/><path class="cls-52" d="M-3577.62,2043.91s1.1,0.12.31,0.49S-3578.52,2044.24-3577.62,2043.91Z" transform="translate(3816.03 -1933.8)"/><path class="cls-51" d="M-3625.55,2039.79c-7.63-5.16-25.75-.31-12.52,7.53,7.08,4.19,25.61,1.12,12.52-7.53h0Z" transform="translate(3816.03 -1933.8)"/><path class="cls-53" d="M-3625.1,2041.64s-2.38-2.6-4.88-2.16S-3623.29,2044.3-3625.1,2041.64Z" transform="translate(3816.03 -1933.8)"/><path class="cls-53" d="M-3623.76,2043.49s-1.58-.48-0.71.47S-3622.7,2044.47-3623.76,2043.49Z" transform="translate(3816.03 -1933.8)"/><path class="cls-41" d="M-3586.69,2043.86c-2,0-2.59-10.39-1.73-10.39C-3588,2033.52-3588.05,2043.86-3586.69,2043.86Z" transform="translate(3816.03 -1933.8)"/><path class="cls-41" d="M-3588.77,2050.71c-0.22,0,3.24-2.81,3.36-3.73,0.61-4.63-3.28-1.11-3.75-3C-3589.83,2041.14-3577.89,2050.71-3588.77,2050.71Z" transform="translate(3816.03 -1933.8)"/><path class="cls-54" d="M-3585,2046.45c-2.24-2.74-7.12,2.86-6.67,3.25C-3589.16,2051.82-3585.73,2048.62-3585,2046.45Z" transform="translate(3816.03 -1933.8)"/><path class="cls-55" d="M-3584.52,2045.08c-1.16-.25-8.55,1.67-8.09,4.13,0.09,0.46,4.09-14.29,4.12-14.36C-3589.37,2040.28-3585.18,2041.66-3584.52,2045.08Z" transform="translate(3816.03 -1933.8)"/><path class="cls-56" d="M-3585.6,2047.2c2-.7-3.69,1-2.07,1.34A2.68,2.68,0,0,0-3585.6,2047.2Z" transform="translate(3816.03 -1933.8)"/><path class="cls-57" d="M-3568.82,2017.26c-2.78-10.71-9.91-.55-13-3.39C-3585.59,2010.41-3563.13,2002.26-3568.82,2017.26Z" transform="translate(3816.03 -1933.8)"/><path class="cls-39" d="M-3568.82,2017.54c-1.9-6.12-13.55-5.87-13.49-4.23-0.16-4.61,6.3-6.87,9.77-5.32C-3571.11,2008.63-3565.86,2017.54-3568.82,2017.54Zm-5.71-6.62c2.86,0,4.81,3,5.67,5.37,1.45-9.31-13.19-11-12.92-3C-3581.72,2014.39-3574.29,2010.93-3574.52,2010.92Z" transform="translate(3816.03 -1933.8)"/><path class="cls-58" d="M-3602.87,2014c-2.75-4.44-7.14-4.82-11.81-3.51-2.66.75-11.63,8.14-9.07,0.69,2-5.76,12-6.42,16.43-4.36C-3605.11,2007.84-3600.18,2015.45-3602.87,2014Z" transform="translate(3816.03 -1933.8)"/><path class="cls-39" d="M-3623.4,2014.95c-5.58-.1,6.11-8.88,7.95-9.22,4.29-.79,12.74.84,14,6.24s-2.62.08-3.39,0c-4.34-.21-3.85-2.76-9.28-1.45C-3617.38,2011.36-3619.9,2015-3623.4,2014.95Zm10.63-9c-3.9,0-16.32,6.58-8.94,8.07,4.22,0.85,8.8-5.66,14.83-3.95,1.74,0.49,3.35,3.9,4.82,3.9C-3601.34,2014-3608.6,2006-3612.78,2005.94Z" transform="translate(3816.03 -1933.8)"/><path class="cls-41" d="M-3621.65,2043.35c-0.31,0-7.15-6.54-9.73-7-0.81-.16-6.29.93-6.42,0.65C-3639.83,2030.9-3616.3,2043.35-3621.65,2043.35Z" transform="translate(3816.03 -1933.8)"/><path class="cls-59" d="M-3604.86,2019.2c-1.89-15-20.59-1.29-20.69,8.22,1.82-3.78,5.37-11.58,10.25-12-2.79.24-8.57,11.64-9.45,13.7-1.47,3.44-.82,5.3-3.42,6.69-1.58.84-10.33-1.58-10.72,2,0.39-3.55,19.9,1.7,17.95,6.36a5,5,0,0,0,0-2.75c6.1,1.82,13.36.9,17.38-4.52C-3605.81,2036.63-3603.86,2023.27-3604.86,2019.2Z" transform="translate(3816.03 -1933.8)"/><path class="cls-60" d="M-3605.38,2025.51c-1.22-19.64-23.89-.34-20.22,10.77,1.72,5.2,8.88,5.37,13.53,3.67C-3605.37,2037.49-3604.93,2032.35-3605.38,2025.51Z" transform="translate(3816.03 -1933.8)"/><path class="cls-61" d="M-3618,2041c-17.42,1.09-.87-31.91,9.84-22.94C-3598.82,2025.88-3606.92,2041.19-3618,2041Zm5.83-24.28c-16-.24-16.83,36.46,2.59,21.93C-3605.29,2035.46-3602.24,2016.73-3612.16,2016.73Z" transform="translate(3816.03 -1933.8)"/><path class="cls-62" d="M-3619.07,2030.49c-3.36,8.7,6.73,12.46,10.06,3.82,3.27-8.47-6.46-13-10.06-3.82C-3620.59,2034.44-3617.52,2026.55-3619.07,2030.49Z" transform="translate(3816.03 -1933.8)"/><path class="cls-39" d="M-3615.48,2040.07c-7.71-1.94-4.57-15.91,2.81-15.07C-3604.49,2025.93-3608.27,2040.2-3615.48,2040.07Zm2.9-14.81c-6.52-.11-10.3,13.13-2.74,14C-3608.74,2040-3605.49,2025.38-3612.58,2025.26Z" transform="translate(3816.03 -1933.8)"/><path class="cls-63" d="M-3616.94,2032c-2.34,6,4.52,8.56,6.81,2.59s-4.49-8.55-6.81-2.59C-3618,2034.64-3615.9,2029.29-3616.94,2032Z" transform="translate(3816.03 -1933.8)"/><path class="cls-64" d="M-3616.71,2029c-2,5,3.27,1.23,3.14,1.18,0.11,0-1.21-6.2-3.14-1.18C-3617.19,2030.23-3616.23,2027.77-3616.71,2029Z" transform="translate(3816.03 -1933.8)"/><path class="cls-65" d="M-3618.15,2033q-0.07,2.15,1.32.5,0.06-2.1-1.32-.5C-3618.35,2033.54-3618,2032.51-3618.15,2033Z" transform="translate(3816.03 -1933.8)"/><g class="cls-66"><path class="cls-67" d="M-3611.25,2025.24c4.07,1.54,3.23,7.37,1.68,10.28-1.35-4.25-6.26-4.32-9.89-3.73,0.78-3.23,4.15-8.09,8.2-6.55h0Z" transform="translate(3816.03 -1933.8)"/></g><path class="cls-68" d="M-3620,2036.67c-1-4.05,0-9,3.72-11.45,2.45-1.59,9.19.59,8.52,1.14,2.82-2.33-.71-7.64-3.27-8.36-2.72-.76-6.36,2.86-7.9,4.43s-4.45,6.16-4.7,8.46C-3624.22,2036.06-3620.17,2035.85-3620,2036.67Z" transform="translate(3816.03 -1933.8)"/><path class="cls-69" d="M-3607.32,2032.1c-0.32,1-1.81,6.09-2.52,6.23C-3606.52,2037.7-3607.58,2033.71-3607.32,2032.1Z" transform="translate(3816.03 -1933.8)"/><path class="cls-61" d="M-3626.58,2030.41c-1.82-.48,7.14-14.53,9-15.61,3.14-1.8,6.32-2.26,9.4-.06,0.64,0.46,5.42,10.85,3.16,10.62s-0.8-15.25-11.25-10.61C-3619.66,2016.26-3625.56,2030.41-3626.58,2030.41Z" transform="translate(3816.03 -1933.8)"/><path class="cls-70" d="M-3612.79,2015.53c1.33-.14,6,0.71,5.85,2.63C-3606.55,2013.12-3613.7,2015.49-3612.79,2015.53Z" transform="translate(3816.03 -1933.8)"/><path class="cls-71" d="M-3570,2016.63c-9.58-6.58-15.21,17.95-8.07,23.53-0.18,0-3.58-.07-3.31-1.16-0.94,3.78,8.63,2.66,9.31,2.4,5.43-2.07,3.66-2.31,4.41-6.47C-3567.43,2033.47-3568.66,2017.62-3570,2016.63Z" transform="translate(3816.03 -1933.8)"/><path class="cls-72" d="M-3569.47,2022.91c-1.63-10.3-15.29,5.49-10.24,14,3.1,5.26,9.56,4.43,11.67-1.06C-3566.85,2032.82-3568.94,2026-3569.47,2022.91Z" transform="translate(3816.03 -1933.8)"/><path class="cls-72" d="M-3569.47,2022.91c-1.63-10.3-15.29,5.49-10.24,14,3.1,5.26,9.56,4.43,11.67-1.06C-3566.85,2032.82-3568.94,2026-3569.47,2022.91Z" transform="translate(3816.03 -1933.8)"/><path class="cls-61" d="M-3573.91,2040.85c-13.61-.25-4.61-28.77,4-20C-3565.76,2025.05-3566,2041-3573.91,2040.85Zm0.91-21.58c-11.92,0-7.5,29.19,2.93,19.58C-3567.33,2036.32-3567.47,2019.34-3573,2019.27Z" transform="translate(3816.03 -1933.8)"/><path class="cls-73" d="M-3577.84,2032.59c-1.44,7.6,7.35,9.14,8.77,1.61s-7.22-9.67-8.77-1.61C-3578.49,2036-3577.18,2029.14-3577.84,2032.59Z" transform="translate(3816.03 -1933.8)"/><path class="cls-39" d="M-3574.12,2040c-5.24-1.9-6-12.39.65-12.85C-3566.28,2026.61-3567.65,2040.07-3574.12,2040Zm1.34-12.6c-6.1-.07-7,13.89.44,11.57C-3568.16,2037.63-3567.81,2027.88-3572.79,2027.36Z" transform="translate(3816.03 -1933.8)"/><path class="cls-74" d="M-3575.78,2033.59c-1,5.28,5,6.32,5.94,1.08s-4.94-6.29-5.94-1.08C-3576.22,2035.93-3575.33,2031.25-3575.78,2033.59Z" transform="translate(3816.03 -1933.8)"/><path class="cls-64" d="M-3576.15,2031c-0.83,4.36,2.84.52,2.74,0.5,0.08,0-1.89-4.87-2.74-.5C-3576.35,2032.1-3575.94,2030-3576.15,2031Z" transform="translate(3816.03 -1933.8)"/><path class="cls-65" d="M-3576.72,2034.51q0.26,1.75,1.15.22-0.26-1.74-1.15-.22C-3576.8,2035-3576.63,2034.06-3576.72,2034.51Z" transform="translate(3816.03 -1933.8)"/><g class="cls-66"><path class="cls-67" d="M-3572.26,2027.15c3.58,0.64,3.7,5.51,2.92,8.12-1.72-3.22-5.78-2.6-8.62-1.56,0.12-2.75,2.19-7.22,5.71-6.56C-3569.83,2027.58-3574.67,2026.7-3572.26,2027.15Z" transform="translate(3816.03 -1933.8)"/></g><path class="cls-75" d="M-3578.47,2029.52c1.34-2.89,6.3-6.11,8.64-2.22-1.42-2.36,1.2-6.83-4-6.59-2.75.13-7.79,9.07-5.44,11.15A3,3,0,0,0-3578.47,2029.52Z" transform="translate(3816.03 -1933.8)"/><path class="cls-61" d="M-3580.56,2030.62c-0.95,0,1.21-8.27,1.55-8.92,1.4-2.67,2-5.16,5.43-5.56,2.11-.25,4.91,3.24,4,3.4s-0.46-4.59-2.34-3.22c-3.87,2.81-3.33.12-6.14,4.46C-3578.8,2021.88-3580.08,2030.62-3580.56,2030.62Z" transform="translate(3816.03 -1933.8)"/><path class="cls-76" d="M-3576.78,2019.94c0.54-.28,6.24-2.1,6-1.41C-3569.23,2014.27-3578.53,2019.39-3576.78,2019.94Z" transform="translate(3816.03 -1933.8)"/><path class="cls-77" d="M-3590.47,2029.65c-1.31,8.18,1,18.93-5.95,24.42-2.51,2-6.89,2.07-9.78,4.16-4,2.89-5.23,9.63-8.18,11.66-2.47,1.7-10.83,1.1-13.29-.08-5.35-2.58-3.9-2.28-3.08-7.63,0.53-3.47,1.73-8.12,3.58-10,2.43-2.52,9.6-1.52,8.31-7.46,13.41,2.7,20.31-6.43,18.08-19.69-0.61-3.61-3.44-6.35.17-7.15C-3594.82,2016.57-3590.91,2025.74-3590.47,2029.65Z" transform="translate(3816.03 -1933.8)"/><path class="cls-78" d="M-3623.81,2020c-3.17,4-4,11.85-7.33,14.64-0.54.46-11.35,3.77-11.78,3.43C-3650.8,2031.88-3625.94,2020.3-3623.81,2020Z" transform="translate(3816.03 -1933.8)"/><path class="cls-79" d="M-3662.51,2016.16c4-.35,6.36,3.11,7.28,6.55,4.77-37.58,45-80.1,86-65.54-11.22-30.7-60.27-4.39-73.67,11.11a84.27,84.27,0,0,0-19.59,47.88C-3662.14,2016.13-3662.18,2011.43-3662.51,2016.16Z" transform="translate(3816.03 -1933.8)"/><path class="cls-39" d="M-3655.24,2023c2,0-7.61-7.72-7.5-7.42-0.69-1.81.94-6.63,1.3-8.38a89.28,89.28,0,0,1,13.48-32.52,70.18,70.18,0,0,1,38-27.64c8.25-2.46,19-5.14,27.34-2.42,1,0.32,16.57,10.23,13.51,12.79-1,.92-18.43-2.08-21.64-1.67-11.93,1.53-23.29,6.72-33.05,13.62a73.63,73.63,0,0,0-22,24.58C-3648.81,1999.36-3657.66,2016.92-3655.24,2023Zm-6.52-7.11c3.27,0,5.43,2.76,6.42,5.57,5.19-36.93,45.12-78.65,85.63-64.71-12.21-30.73-61.68-2.32-74.59,13.84a84.65,84.65,0,0,0-14.82,29.44C-3659.61,2001.72-3663,2015.86-3661.76,2015.86Z" transform="translate(3816.03 -1933.8)"/><g class="cls-46"><path class="cls-80" d="M-3584.55,1944.05c-5.5-.78-11.51.22-17,1.23,3.69-.4,20-0.86,22.42,4.26,2.26,4.79-5.91,2.74-10,3.14a80.17,80.17,0,0,0-35.26,12.22c-11.4,7.45-20.26,18-26.67,29.93-1.52,2.84-5.36,17.25-8.41,18.35-2,.7-1.83-5.68-1.83-6-2.66,13.23,3.12,4.75,6,15.48,4.77-37.58,45-80.1,86-65.54C-3571.69,1950.59-3578.14,1946.23-3584.55,1944.05Z" transform="translate(3816.03 -1933.8)"/></g><path class="cls-81" d="M-3588.83,1950a108.06,108.06,0,0,0-23.32,6.18,78.62,78.62,0,0,0-17,8.78c-3,2.13-9.58,10.67-13.43,10.52-1.15,0,4.87-7.77,5.2-8.14a60.58,60.58,0,0,1,15.46-12.72c7.54-4.21,16.89-7.09,25.61-7C-3595.4,1947.55-3585.86,1948.69-3588.83,1950Z" transform="translate(3816.03 -1933.8)"/><path class="cls-81" d="M-3647,1982.77c-3.07-3.12-12.24,15.76-9.84,18.64C-3656.36,2002-3647.19,1983.2-3647,1982.77Z" transform="translate(3816.03 -1933.8)"/><path class="cls-82" d="M-3658.63,2044.76c-4.2,2.79-8.36-7.75-9.18-11-0.9-3.6-1.4-8.57.1-12.1,1.17-2.77,4.33-4,5.22-5.8,2.86-5.68,2.52-15,4.71-21.25,10.94-31.31,37.8-49.76,70.84-50.87-23.69-13.32-53.77-13-76,3.14,0.21-.65,1.72-3.24.6-3.81-0.93,1.62-2.25,5.46-3.68,6.42-1.59,1.07-6.51.1-9.1,1.44a8.53,8.53,0,0,1,7.23.79c-29,9.22-31.13,47.9-29.73,73,0.25,4.55,1,9.09,1.24,13.63,0.19,4.09.71,8.93-2,12.46-0.71.94-4.19,2.83-4.49,3.53-0.65,1.55-1.61,10.19,3.86,11,6.28,0.87,13-14.86,14-18.9-1.59,7.75-4.38,16.46-9.92,22.33,5.15,3.67,10.8,7.94,14.73,3.85,2.49-2.6,2-10.93,2.13-14.6,1.51,5.74.81,12.3-.55,18a39.68,39.68,0,0,0,17.5.55,13,13,0,0,1-2.84-11.45c0,11.49,9.81,10.22,16.38,5.9-7-.58-11.63-6.92-13.18-13.32,5.45,15.57,23.09,12.14,23.62-4C-3645.16,2054.62-3654.63,2052.49-3658.63,2044.76Z" transform="translate(3816.03 -1933.8)"/><path class="cls-82" d="M-3658.63,2044.76c-4.2,2.79-8.36-7.75-9.18-11-0.9-3.6-1.4-8.57.1-12.1,1.17-2.77,4.33-4,5.22-5.8,2.86-5.68,2.52-15,4.71-21.25,10.94-31.31,37.8-49.76,70.84-50.87-23.69-13.32-53.77-13-76,3.14,0.21-.65,1.72-3.24.6-3.81-0.93,1.62-2.25,5.46-3.68,6.42-1.59,1.07-6.51.1-9.1,1.44a8.53,8.53,0,0,1,7.23.79c-29,9.22-31.13,47.9-29.73,73,0.25,4.55,1,9.09,1.24,13.63,0.19,4.09.71,8.93-2,12.46-0.71.94-4.19,2.83-4.49,3.53-0.65,1.55-1.61,10.19,3.86,11,6.28,0.87,13-14.86,14-18.9-1.59,7.75-4.38,16.46-9.92,22.33,5.15,3.67,10.8,7.94,14.73,3.85,2.49-2.6,2-10.93,2.13-14.6,1.51,5.74.81,12.3-.55,18a39.68,39.68,0,0,0,17.5.55,13,13,0,0,1-2.84-11.45c0,11.49,9.81,10.22,16.38,5.9-7-.58-11.63-6.92-13.18-13.32,5.45,15.57,23.09,12.14,23.62-4C-3645.16,2054.62-3654.63,2052.49-3658.63,2044.76Z" transform="translate(3816.03 -1933.8)"/><path class="cls-39" d="M-3669.14,2077.55c-15-.23-7-6.14-8.79-17.5-0.77,10.65.19,18-11.06,12.46-11-5.42-1.06-9.89,2-19.64-3,6.35-9.19,15.36-14.87,9.38a7.25,7.25,0,0,1-1.69-8c1.08-2.73,5.7-4.09,6.83-8.43,0.8-3.09,0-6.45-.18-9.55-0.4-5.5-1.05-10.95-1.23-16.47-0.78-24.21,2.45-59.15,29.62-68.23,0.46,0.27-7.12-1.23-6.86-.6,1.36,3.28,15.44-6.91,13.16-8.22a2.79,2.79,0,0,1,0,3.24,66.75,66.75,0,0,1,46.37-11.77c2.3,0.26,30.1,5.94,29.22,9.51,0.17-.65-31.67,6.78-35.06,8.49a68.43,68.43,0,0,0-23.58,19.67c-9.66,12.66-11.06,25.85-16.41,39.95-1.71,4.5-4.69,6.55-6.12,11.21-3.38,11,4.82,19.92,11.43,24.47,5.28,3.63,8.22,4.19,14.25,6,5.56,1.69,5-2.68,4.72,3.86-0.5,13.69-15.55,12.93-21.79,3.89a17.32,17.32,0,0,0,5.18,6.91c0.88,0.63,6.81,3,6.73,2.69,1.08,4.09-14.8,5.73-16.7-3.63C-3664.58,2076.16-3655.37,2077.71-3669.14,2077.55Zm-9.18-1.77a39.34,39.34,0,0,0,16.65.59c-0.48-.57-5-11.84-2.28-11.54-0.76-.09,2.85,7,4,7.81,4.51,3.25,7,1.41,11.59-1.47-2.74-.38-15.81-12.76-12.45-13.77,0.57-.13,9.27,11.25,15,10.21,5.21-.95,8.08-8.3,8.37-13.61-15.37,1.7-38.23-14.91-30.44-32.63,2.16-4.92,4-5.31,5.7-10.07,1.46-4.12,1.75-8.88,3.06-13.11,10.06-32.68,36.89-53.27,71.2-54.73a76.8,76.8,0,0,0-37.23-9.14,64.64,64.64,0,0,0-20.64,3.72c-1.05.38-17.58,8.77-17.32,9-0.35-.31,1-3,0.84-3.56-4.5,7.84-2.47,4.29-10.12,6.66-1.72.06,5.14,0.32,4.78,1.58,0,0-13.86,8.36-15,9.5a46.51,46.51,0,0,0-9.09,14.78c-5.19,12.78-6.21,27.21-6,40.87,0.2,13,3.75,24.64-2.58,36-2.46,4.42-3.84-.18-3,5.69,0.56,3.75,3.33,5.74,6.17,5.16,3.88-.79,13.31-17.22,12.06-17.63,2.37,0.4-8.37,21.25-9.57,22.55a51.19,51.19,0,0,0,13.14,6.26c0.8-1.7,2.88-17.16,3.28-17.24C-3675.74,2057.57-3677.89,2073.9-3678.32,2075.78Z" transform="translate(3816.03 -1933.8)"/><path class="cls-83" d="M-3658.63,2044.76c-4.2,2.79-8.36-7.75-9.18-11-0.9-3.6-1.4-8.57.1-12.1,1.17-2.77,4.33-4,5.22-5.8,2.86-5.68,2.52-15,4.71-21.25,10.94-31.31,37.8-49.76,70.84-50.87-23.69-13.32-53.77-13-76,3.14,0.21-.65,1.72-3.24.6-3.81-0.93,1.62-2.25,5.46-3.68,6.42-1.59,1.07-6.51.1-9.1,1.44a8.53,8.53,0,0,1,7.23.79c-29,9.22-31.13,47.9-29.73,73,0.25,4.55,1,9.09,1.24,13.63,0.19,4.09.71,8.93-2,12.46-0.71.94-4.19,2.83-4.49,3.53-0.65,1.55-1.61,10.19,3.86,11,6.28,0.87,13-14.86,14-18.9-1.59,7.75-4.38,16.46-9.92,22.33,5.15,3.67,10.8,7.94,14.73,3.85,2.49-2.6,2-10.93,2.13-14.6,1.51,5.74.81,12.3-.55,18a39.68,39.68,0,0,0,17.5.55,13,13,0,0,1-2.84-11.45c0,11.49,9.81,10.22,16.38,5.9-7-.58-11.63-6.92-13.18-13.32,5.45,15.57,23.09,12.14,23.62-4C-3645.16,2054.62-3654.63,2052.49-3658.63,2044.76Zm-4.33,6.09c-1.1,6.27,1.16,13.41,3.13,19.32-5.21-3.49-5.56-13.68-6-19.36-2.9,6.7-1.89,15.32-1,22.39-3.75-4.24-3.85-11.79-3.84-17.14a89.92,89.92,0,0,0-4,17.72c-0.94-13.17,3.74-26.05-.1-39.23,0.47,8.65-1.48,17.88-6.53,25,2-4.19,1.3-10.73,1.19-15.28-1.09,7.77-3.64,17.72-11,22,8.46-11.71,9.71-27.05,4.52-40.34,0.83,10.73-.42,25.73-10.69,32.09,5.21-6.14,8.77-14.82,6.36-22.86,0.24,6.9-1.69,14.85-8.11,18.47,6.23-4.06,4.72-13.73,4.43-20-0.64-13.8-1.52-27.65.9-41.35,2.54-14.43,10-30.1,23.79-36.85a19.15,19.15,0,0,0-.1,15.44c-0.65-6.42,4.22-26.32,10.43-11.87a13.82,13.82,0,0,0-.59-5.89c4.85-2.38,11.13-1.85,16.28-.85-3.46-3.19-8.7-3.93-13.2-3.34,4.38-3.63,12.26-4.17,17.7-4.92-6.3-1.57-13.74,1-19.34,3.94,14.65-14.52,47.13-18.09,64.06-6-2.38-3.75-23.07,7.11-26.11,7-7.44-.19-2.89-7.25,3-9.42-5.71.25-9.6,4.65-10.26,10.1-1-1.24-.44-4.28-0.32-5.75-2.13,1.87-3.3,3.8-2.69,6.52-3.22-2.35-7.71-2.78-11.58-2.36,2.4,0,11.21,1.82,11.75,4.79,0.23,1.29-10.76,9.9-12,11.38-8.05,9.49-11.4,12-18.29-.46,0.65,5.52,3.21,10.77,7.86,13.92a31.06,31.06,0,0,0-15.61,20.26,30.24,30.24,0,0,1,15.29-17c-8.06,6.65-7.28,18.33-10.65,27.16-2.62,6.86-10.35,11.64-9.6,19.68-0.11-4.8,3.24-9,7-11.64-11.91,7.55,3,31.55,9,38.67a11.81,11.81,0,0,1-.71-7c1.21,6.35,7.23,11.42,12.35,14.81C-3653.87,2062.68-3660.81,2058.38-3663,2050.85Z" transform="translate(3816.03 -1933.8)"/><path class="cls-84" d="M-3683.37,1971.55c-7,10.1-9.84,23.16-10.09,35.25,0.54-5.26.79-13,4.22-17.3a60.49,60.49,0,0,0-2.11,22.38c0.52,6.73,4.88,17.71,2.65,24.1a58.35,58.35,0,0,0-.11-20.1c3.2,8.69,7.24,19,6.69,28.39,3.1-16.84-11.2-42.61-.37-57.68-3.23,4.52-4.78,10-5.43,15.5C-3688.19,1992.12-3687.81,1980.65-3683.37,1971.55Z" transform="translate(3816.03 -1933.8)"/><path class="cls-85" d="M-3657.37,1978.9c-8,5.27-13.19,14.36-14.71,23.7,0-5.29.71-11.24,3.25-15.94a61.56,61.56,0,0,0-8.72,34.73c-5-13.45-4.74-29.87,3.63-41.91a29.49,29.49,0,0,0-2.78,12.12,21.1,21.1,0,0,1,11.67-12.67c-2.64,1.82-6.16,4.46-7.08,7.69A22.54,22.54,0,0,1-3657.37,1978.9Z" transform="translate(3816.03 -1933.8)"/><path class="cls-86" d="M-3675.05,2028.11c3.82,8.59,4.28,18.21,2.6,27.38C-3666.71,2046.8-3668.2,2035.65-3675.05,2028.11Z" transform="translate(3816.03 -1933.8)"/><path class="cls-87" d="M-3658.84,1986c-5,6.28-6.26,15.45-6.91,23.14-0.65-4-1.71-10.61.76-14.2-3.7,6.65-6.79,14.23-7.3,21.89A37.87,37.87,0,0,1-3658.84,1986Z" transform="translate(3816.03 -1933.8)"/><path class="cls-88" d="M-3664.8,1954.46c-0.93,7.92,2.76,15.81,8.15,21.44a18.31,18.31,0,0,1-7.13-7.48c-0.14,3.09.62,6.82,2.73,9.19C-3667.58,1971.74-3667.86,1962.23-3664.8,1954.46Z" transform="translate(3816.03 -1933.8)"/><path class="cls-89" d="M-3657.85,1953.2a33.58,33.58,0,0,1,20.55,2.76c-3.44-1-7.33-1.83-10.91-1.34a16.25,16.25,0,0,1,5.35,1.63,36.46,36.46,0,0,1-9.63-1.51c3.28,1.59,6.64,4.23,8.08,7.69C-3648,1958.45-3652.67,1954.65-3657.85,1953.2Z" transform="translate(3816.03 -1933.8)"/><path class="cls-90" d="M-3643,1940.31c12.84-5.88,28.26-5.56,41.43-1a25.06,25.06,0,0,0-9.84-.7,19,19,0,0,1,8.16,3.12c-5.84-1.84-13.15-3.83-19.24-2.47a22.29,22.29,0,0,1,7.81-1C-3623.6,1936.69-3634.75,1935.85-3643,1940.31Z" transform="translate(3816.03 -1933.8)"/><path class="cls-91" d="M-3569.25,1957.17c-19.11-6.79-41.26,1.85-56.56,13.36a73.53,73.53,0,0,0-24.69,32.8c-4,10.53-3,18.93-4.13,29.61,5.68-11.29,10.55-24.39,10.53-37.16,3.18,7,1.83,15.48-.88,22.4,5.07-1.39,10.09-1.62,13.78-5.14,6.51-6.18,6.75-18.94,5-26.83,5.69,7.44,3.64,18.78,1,26.94,6.7-1.58,19.12-1.54,23.4-6.78s3.07-16.28,2.2-22.14a31,31,0,0,1,1,23.42c6.48-1.11,15.81-.14,19.21-5.37,4.11-6.34,1.25-18.8-1.52-24.7a35.36,35.36,0,0,1,4.61,27.4c3.49-.16,12.09,1.67,14.47-0.41,4.54-4,2.78-16.83,1.6-21.21a28.25,28.25,0,0,1,3.52,7.78,32.48,32.48,0,0,1,1.16,6.95c0.44,7.38-2.22,6.3,3.51,10.72C-3542.87,1988.75-3547.3,1966.06-3569.25,1957.17Z" transform="translate(3816.03 -1933.8)"/><path class="cls-91" d="M-3569.25,1957.17c-19.11-6.79-41.26,1.85-56.56,13.36a73.53,73.53,0,0,0-24.69,32.8c-4,10.53-3,18.93-4.13,29.61,5.68-11.29,10.55-24.39,10.53-37.16,3.18,7,1.83,15.48-.88,22.4,5.07-1.39,10.09-1.62,13.78-5.14,6.51-6.18,6.75-18.94,5-26.83,5.69,7.44,3.64,18.78,1,26.94,6.7-1.58,19.12-1.54,23.4-6.78s3.07-16.28,2.2-22.14a31,31,0,0,1,1,23.42c6.48-1.11,15.81-.14,19.21-5.37,4.11-6.34,1.25-18.8-1.52-24.7a35.36,35.36,0,0,1,4.61,27.4c3.49-.16,12.09,1.67,14.47-0.41,4.54-4,2.78-16.83,1.6-21.21a28.25,28.25,0,0,1,3.52,7.78,32.48,32.48,0,0,1,1.16,6.95c0.44,7.38-2.22,6.3,3.51,10.72C-3542.87,1988.75-3547.3,1966.06-3569.25,1957.17Z" transform="translate(3816.03 -1933.8)"/><path class="cls-39" d="M-3654.63,2033.2c-2.86,0,1.44-22.36,2.17-24.78a74.73,74.73,0,0,1,16.42-29.08c14.56-15.8,37.93-27.49,59.83-24.1,21.34,3.3,32.32,22.21,28,42.78-0.85,4-1.21,11.71-5.67,10s-2.24-17.1-5.62-23.05c1,4.48,2,13.35-1,17.47-3.29,4.49,0,2.31-6.91,3-6.12.62-7.22,0.91-8.66-3.08-2.37-6.58.5-14-3-21.23,1.77,5.21,3.41,14.64.51,19.87-3,5.49-.46,3.9-8.08,5.21-1.77.3-11,2.31-11.78,1.74-1.07-.77,1.28-0.45.33-2.64-1.8-4.17,1.25-13.47-.84-19.07,0.6,5.11,1.35,15.46-2.38,20.07-3.29,4.08-13.38,5.83-19,6-1.21,0-4.18,1.72-5,.73-0.69-.83,2.41-11.31,2.44-12.85,0.1-4.34-.34-9.07-2.7-12.84,1.47,7.77.79,20.32-5.68,26.27-1.72,1.58-12.57,6.31-13.83,4.72-0.47-.47,2.82-17.37,1.34-21.31C-3644,2001.11-3649.19,2033.2-3654.63,2033.2Zm71.91-78c-19.2-.28-38.38,9.52-51.56,23.08-15.09,15.53-18.8,32.75-20,53.25,1.81-3.74,10.37-36.13,10.08-36,4.24-1.09-.14,21.68-0.36,22.26,6.22-1.72,10.26-1.63,14.17-6.43,3.46-4.26,3.81-25.26,4-25.38,5-2.56,1.77,26.19,1.57,26.81,7.29-1.7,18.86-1.6,23.21-7.43,2-2.75,2.29-21.46,1.9-21.36,3.85-1.38,1.91,22.17,1.5,23.33,8.68-1.47,15.28.59,19.1-6.93,2-4-1.47-23.33-2-23,4.06-2.43,5.32,26.36,5.1,27.34,6-.25,11.13,2.08,14.76-2.2,1.95-2.3,1.16-19.5.86-19.38,0.86-.5,3.37,6.43,3.43,6.6a32.18,32.18,0,0,1,1.62,8.28c0.37,5.79-1.91,6.79,3.14,10.4C-3540.63,1983.24-3553.81,1955.68-3582.72,1955.23Z" transform="translate(3816.03 -1933.8)"/><g class="cls-92"><path class="cls-93" d="M-3561.21,1961.4c11.17,9.86,13.71,28.66,8.16,42.17,1.41-8.3,2.9-19.38-1.24-27.09,0.69,4.09,1.71,9.2.63,13.27-1.45-7-5.19-14.76-11.76-18.21,3.52,8.36,6.17,19.63,1.5,28a29.43,29.43,0,0,0-1-13.15c-0.38,4.44-.72,13.06-4.88,15.79,0.33-11.11-2.55-26.16-14.31-30.55,2.91,5.82,4.6,13,3.4,19.44,0-9-3.68-18.38-11.41-23.4,5.81,9.54,9.33,21.87,6.2,32.89-0.53-5.93-.6-16-4.88-20.56,1.57,7.82,1.28,17-3,24,1.72-9.76.45-22.39-8.87-28,1.64,7.42,4.22,20.79-2.18,26.62,1-5.61,1.39-12.29-.82-17.65-0.91,7.84-3.36,17.63-10,22.54,2.07-10.43.93-22.94-6.23-31.26,2.7,6.62,5.71,15.43,3.63,22.6-1.07-6.19-3.55-13.58-9-17.21,0.65,8.37-.44,18.33-6.11,24.92,2.2-4.59,4.21-10.26,3.65-15.4-4,6.37-7.19,13.75-8.25,21.2a53,53,0,0,1,1.9-23.22c3.13-9.45,16.2-26.89,28.12-19.25a10.18,10.18,0,0,0-7.06-3.24c8.22-.92,16.86,2.22,21.18,9.61-2.36-5.92-7.94-9.79-14.05-11.14a25.53,25.53,0,0,1,29,.84c-3-3.69-7.31-5.69-11.93-6.6,5.71-3.88,13.76-3.6,20.27-2.69-21-6.47-45,4.29-60.49,18.17a73.19,73.19,0,0,0-19.89,30c-3.56,10-2.51,18-3.59,28.07,5.68-11.29,10.55-24.39,10.53-37.16,3.18,7,1.83,15.48-.88,22.4,5.07-1.39,10.09-1.62,13.78-5.14,6.51-6.18,6.75-18.94,5-26.83,5.69,7.44,3.64,18.78,1,26.94,6.7-1.58,19.12-1.54,23.4-6.78s3.07-16.28,2.2-22.14a31,31,0,0,1,1,23.42c6.48-1.11,15.81-.14,19.21-5.37,4.11-6.34,1.25-18.8-1.52-24.7a35.36,35.36,0,0,1,4.61,27.4c3.49-.16,12.09,1.67,14.47-0.41,4.54-4,2.78-16.83,1.6-21.21a28.25,28.25,0,0,1,3.52,7.78,32.48,32.48,0,0,1,1.16,6.95c0.44,7.38-2.22,6.3,3.51,10.72,7.32-16.17,6.8-36.68-9.22-47.42C-3558.51,1963.78-3536.8,1977.75-3561.21,1961.4Z" transform="translate(3816.03 -1933.8)"/><path class="cls-93" d="M-3561.21,1961.4c11.17,9.86,13.71,28.66,8.16,42.17,1.41-8.3,2.9-19.38-1.24-27.09,0.69,4.09,1.71,9.2.63,13.27-1.45-7-5.19-14.76-11.76-18.21,3.52,8.36,6.17,19.63,1.5,28a29.43,29.43,0,0,0-1-13.15c-0.38,4.44-.72,13.06-4.88,15.79,0.33-11.11-2.55-26.16-14.31-30.55,2.91,5.82,4.6,13,3.4,19.44,0-9-3.68-18.38-11.41-23.4,5.81,9.54,9.33,21.87,6.2,32.89-0.53-5.93-.6-16-4.88-20.56,1.57,7.82,1.28,17-3,24,1.72-9.76.45-22.39-8.87-28,1.64,7.42,4.22,20.79-2.18,26.62,1-5.61,1.39-12.29-.82-17.65-0.91,7.84-3.36,17.63-10,22.54,2.07-10.43.93-22.94-6.23-31.26,2.7,6.62,5.71,15.43,3.63,22.6-1.07-6.19-3.55-13.58-9-17.21,0.65,8.37-.44,18.33-6.11,24.92,2.2-4.59,4.21-10.26,3.65-15.4-4,6.37-7.19,13.75-8.25,21.2a53,53,0,0,1,1.9-23.22c3.13-9.45,16.2-26.89,28.12-19.25a10.18,10.18,0,0,0-7.06-3.24c8.22-.92,16.86,2.22,21.18,9.61-2.36-5.92-7.94-9.79-14.05-11.14a25.53,25.53,0,0,1,29,.84c-3-3.69-7.31-5.69-11.93-6.6,5.71-3.88,13.76-3.6,20.27-2.69-21-6.47-45,4.29-60.49,18.17a73.19,73.19,0,0,0-19.89,30c-3.56,10-2.51,18-3.59,28.07,5.68-11.29,10.55-24.39,10.53-37.16,3.18,7,1.83,15.48-.88,22.4,5.07-1.39,10.09-1.62,13.78-5.14,6.51-6.18,6.75-18.94,5-26.83,5.69,7.44,3.64,18.78,1,26.94,6.7-1.58,19.12-1.54,23.4-6.78s3.07-16.28,2.2-22.14a31,31,0,0,1,1,23.42c6.48-1.11,15.81-.14,19.21-5.37,4.11-6.34,1.25-18.8-1.52-24.7a35.36,35.36,0,0,1,4.61,27.4c3.49-.16,12.09,1.67,14.47-0.41,4.54-4,2.78-16.83,1.6-21.21a28.25,28.25,0,0,1,3.52,7.78,32.48,32.48,0,0,1,1.16,6.95c0.44,7.38-2.22,6.3,3.51,10.72,7.32-16.17,6.8-36.68-9.22-47.42C-3558.51,1963.78-3536.8,1977.75-3561.21,1961.4Z" transform="translate(3816.03 -1933.8)"/></g><path class="cls-94" d="M-3617.75,1970.61c11.91,5.74,11.51,20.86,4.87,30.7,1.86-7.14,1.88-15.66-2.27-22,1.52,1.65,2.84,1.77,4,4.15C-3611.85,1979-3613.48,1972.83-3617.75,1970.61Z" transform="translate(3816.03 -1933.8)"/><g class="cls-95"><path class="cls-96" d="M-3617.75,1970.61c11.91,5.74,11.51,20.86,4.87,30.7,1.86-7.14,1.88-15.66-2.27-22,1.52,1.65,2.84,1.77,4,4.15C-3611.85,1979-3613.48,1972.83-3617.75,1970.61Z" transform="translate(3816.03 -1933.8)"/></g><path class="cls-97" d="M-3607.6,1968.62s15.68,5.61,15.46,25.93C-3592.14,1994.56-3587.8,1973-3607.6,1968.62Z" transform="translate(3816.03 -1933.8)"/><g class="cls-95"><path class="cls-98" d="M-3607.6,1968.62s15.68,5.61,15.46,25.93C-3592.14,1994.56-3587.8,1973-3607.6,1968.62Z" transform="translate(3816.03 -1933.8)"/></g><path class="cls-99" d="M-3601.61,1964.25c11.74-5.09,23.42,1.74,30.07,11.65-0.57-5.53-4.36-9.92-8.92-12.89,7.45,2.17,11.8,9.81,13.59,16.89a17.7,17.7,0,0,0-2.47-5.06,29,29,0,0,1,1,20.52c-0.84-10.36-5.32-22-15.18-26.83a13,13,0,0,1,3.9,1.14C-3585.79,1965-3594.07,1963.59-3601.61,1964.25Z" transform="translate(3816.03 -1933.8)"/><path class="cls-100" d="M-3582.77,1959.43c12.69,2.26,24.44,10.74,28.07,23.48-1.15-7.49-4.35-17.49-12.08-20.51,4.81,2,9.81,5.6,12.15,10.39C-3558.87,1961.18-3571.45,1957.52-3582.77,1959.43Z" transform="translate(3816.03 -1933.8)"/></g></g></svg>