<svg xmlns="http://www.w3.org/2000/svg" xmlns:xlink="http://www.w3.org/1999/xlink" viewBox="0 0 369.34 539.99"><defs><style>.cls-1{isolation:isolate;}.cls-2{mask:url(#mask);}.cls-3{fill:url(#radial-gradient);}.cls-37,.cls-4,.cls-85{fill:#fff;}.cls-37,.cls-5,.cls-82,.cls-88,.cls-90,.cls-94,.cls-95{opacity:0.5;}.cls-27,.cls-35,.cls-36,.cls-40,.cls-41,.cls-5,.cls-88,.cls-90,.cls-94,.cls-95{mix-blend-mode:multiply;}.cls-6{mask:url(#mask-2);}.cls-7{fill:url(#radial-gradient-2);}.cls-8{fill:#aad8d7;}.cls-9{mask:url(#mask-3);}.cls-10{fill:url(#radial-gradient-3);}.cls-11{mask:url(#mask-4);}.cls-12{fill:url(#radial-gradient-4);}.cls-13{mask:url(#mask-5);}.cls-14{fill:url(#radial-gradient-5);}.cls-15{mask:url(#mask-6);}.cls-16{fill:url(#radial-gradient-6);}.cls-17{mask:url(#mask-7);}.cls-18{fill:url(#radial-gradient-7);}.cls-19{mask:url(#mask-8);}.cls-20{fill:url(#radial-gradient-8);}.cls-21{fill:#0a5c82;}.cls-22{fill:#002438;}.cls-23{fill:#eda472;}.cls-24{fill:#ac6000;}.cls-25{fill:#fffdea;}.cls-26{fill:#b1b0a6;}.cls-28,.cls-40{fill:#f7c7a2;}.cls-29{fill:#fdcc21;}.cls-30{fill:#cc8721;}.cls-31,.cls-36{fill:#0077b7;}.cls-32{fill:#034166;}.cls-33{fill:#661303;}.cls-34{fill:#e3ff75;}.cls-35,.cls-36,.cls-80{opacity:0.7;}.cls-38{fill:#b71800;}.cls-38,.cls-39,.cls-47,.cls-80,.cls-85,.cls-89,.cls-91,.cls-96{mix-blend-mode:screen;}.cls-41{opacity:0.3;}.cls-42{fill:#b4ac6f;}.cls-43{mask:url(#mask-9);}.cls-44{fill:url(#radial-gradient-9);}.cls-45{fill:url(#radial-gradient-10);}.cls-46{fill:#895100;}.cls-47{fill:url(#radial-gradient-11);}.cls-48{mask:url(#mask-11);}.cls-49{fill:url(#radial-gradient-12);}.cls-50{mask:url(#mask-12);}.cls-51{fill:url(#radial-gradient-13);}.cls-52{mask:url(#mask-13);}.cls-53{fill:url(#radial-gradient-14);}.cls-54{mask:url(#mask-14);}.cls-55{fill:url(#radial-gradient-15);}.cls-56{mask:url(#mask-15);}.cls-57{fill:url(#radial-gradient-16);}.cls-58{mask:url(#mask-16);}.cls-59{fill:url(#radial-gradient-17);}.cls-60{mask:url(#mask-17);}.cls-61{fill:url(#radial-gradient-18);}.cls-62{mask:url(#mask-18);}.cls-63{fill:url(#radial-gradient-19);}.cls-64{mask:url(#mask-19);}.cls-65{fill:url(#radial-gradient-20);}.cls-66{mask:url(#mask-20);}.cls-67{fill:url(#radial-gradient-21);}.cls-68{mask:url(#mask-21);}.cls-69{fill:url(#radial-gradient-22);}.cls-70{mask:url(#mask-22);}.cls-71{fill:url(#radial-gradient-23);}.cls-72{mask:url(#mask-23);}.cls-73{fill:url(#radial-gradient-24);}.cls-74{mask:url(#mask-24);}.cls-75{fill:url(#radial-gradient-25);}.cls-76{mask:url(#mask-25);}.cls-77{fill:url(#radial-gradient-26);}.cls-78,.cls-80{fill:#282829;}.cls-79{fill:#231f20;}.cls-81{fill:#000301;}.cls-83{fill:url(#radial-gradient-27);}.cls-84{fill:#d37e48;}.cls-85{opacity:0.24;}.cls-86{fill:#007fc5;}.cls-87{fill:#2b2d2d;}.cls-88{fill:url(#radial-gradient-28);}.cls-89,.cls-91,.cls-96{opacity:0.4;}.cls-89{fill:url(#radial-gradient-29);}.cls-90{fill:url(#radial-gradient-30);}.cls-91{fill:url(#radial-gradient-31);}.cls-92{fill:#fc9b86;opacity:0.25;}.cls-93{fill:url(#radial-gradient-32);}.cls-94{fill:url(#radial-gradient-33);}.cls-95{fill:url(#radial-gradient-34);}.cls-96{fill:url(#radial-gradient-35);}.cls-97{filter:url(#luminosity-noclip-25);}.cls-98{filter:url(#luminosity-noclip-24);}.cls-99{filter:url(#luminosity-noclip-23);}.cls-100{filter:url(#luminosity-noclip-22);}.cls-101{filter:url(#luminosity-noclip-21);}.cls-102{filter:url(#luminosity-noclip-20);}.cls-103{filter:url(#luminosity-noclip-19);}.cls-104{filter:url(#luminosity-noclip-18);}.cls-105{filter:url(#luminosity-noclip-17);}.cls-106{filter:url(#luminosity-noclip-16);}.cls-107{filter:url(#luminosity-noclip-15);}.cls-108{filter:url(#luminosity-noclip-14);}.cls-109{filter:url(#luminosity-noclip-13);}.cls-110{filter:url(#luminosity-noclip-12);}.cls-111{filter:url(#luminosity-noclip-11);}.cls-112{filter:url(#luminosity-noclip-9);}.cls-113{filter:url(#luminosity-noclip-8);}.cls-114{filter:url(#luminosity-noclip-7);}.cls-115{filter:url(#luminosity-noclip-6);}.cls-116{filter:url(#luminosity-noclip-5);}.cls-117{filter:url(#luminosity-noclip-4);}.cls-118{filter:url(#luminosity-noclip-3);}.cls-119{filter:url(#luminosity-noclip-2);}.cls-120{filter:url(#luminosity-noclip);}</style><filter id="luminosity-noclip" x="-3016.21" y="2023.42" width="177.68" height="145.56" filterUnits="userSpaceOnUse" color-interpolation-filters="sRGB"><feFlood flood-color="#fff" result="bg"/><feBlend in="SourceGraphic" in2="bg"/></filter><mask id="mask" x="-0.22" y="126.92" width="177.68" height="145.56" maskUnits="userSpaceOnUse"><g class="cls-120"/></mask><radialGradient id="radial-gradient" cx="2331.12" cy="2337.34" r="155.42" gradientTransform="matrix(-0.98, -0.19, -0.19, 0.98, -222.73, 165.5)" gradientUnits="userSpaceOnUse"><stop offset="0.16" stop-color="#fff"/><stop offset="0.54" stop-color="#caeadb"/><stop offset="0.62" stop-color="#d1eacf"/><stop offset="0.76" stop-color="#e5e9af"/><stop offset="0.76" stop-color="#e5e9ae"/><stop offset="1" stop-color="#ffacb3"/></radialGradient><filter id="luminosity-noclip-2" x="-3005.57" y="2056.66" width="167.03" height="112.33" filterUnits="userSpaceOnUse" color-interpolation-filters="sRGB"><feFlood flood-color="#fff" result="bg"/><feBlend in="SourceGraphic" in2="bg"/></filter><mask id="mask-2" x="10.42" y="160.15" width="167.03" height="112.33" maskUnits="userSpaceOnUse"><g class="cls-119"/></mask><radialGradient id="radial-gradient-2" cx="2331.77" cy="2337.7" r="155.15" xlink:href="#radial-gradient"/><filter id="luminosity-noclip-3" x="-2936.55" y="2136.93" width="88.06" height="97.89" filterUnits="userSpaceOnUse" color-interpolation-filters="sRGB"><feFlood flood-color="#fff" result="bg"/><feBlend in="SourceGraphic" in2="bg"/></filter><mask id="mask-3" x="79.44" y="240.43" width="88.06" height="97.89" maskUnits="userSpaceOnUse"><g class="cls-118"/></mask><radialGradient id="radial-gradient-3" cx="3073.95" cy="-1742.9" r="89.97" gradientTransform="matrix(-0.24, 0.97, 0.97, 0.24, -502.99, -371.51)" xlink:href="#radial-gradient"/><filter id="luminosity-noclip-4" x="-2914.1" y="2136.93" width="65.61" height="93.03" filterUnits="userSpaceOnUse" color-interpolation-filters="sRGB"><feFlood flood-color="#fff" result="bg"/><feBlend in="SourceGraphic" in2="bg"/></filter><mask id="mask-4" x="101.88" y="240.43" width="65.61" height="93.03" maskUnits="userSpaceOnUse"><g class="cls-117"/></mask><radialGradient id="radial-gradient-4" cx="3074.42" cy="-1741.44" r="88.71" gradientTransform="matrix(-0.24, 0.97, 0.97, 0.24, -502.99, -371.51)" xlink:href="#radial-gradient"/><filter id="luminosity-noclip-5" x="-2819.1" y="2133.62" width="84.31" height="74.68" filterUnits="userSpaceOnUse" color-interpolation-filters="sRGB"><feFlood flood-color="#fff" result="bg"/><feBlend in="SourceGraphic" in2="bg"/></filter><mask id="mask-5" x="196.88" y="237.11" width="84.31" height="74.68" maskUnits="userSpaceOnUse"><g class="cls-116"/></mask><radialGradient id="radial-gradient-5" cx="1120.67" cy="3163.67" r="76.43" gradientTransform="translate(-247.82 -70.34) rotate(67.54)" xlink:href="#radial-gradient"/><filter id="luminosity-noclip-6" x="-2819.1" y="2133.62" width="60.93" height="73.1" filterUnits="userSpaceOnUse" color-interpolation-filters="sRGB"><feFlood flood-color="#fff" result="bg"/><feBlend in="SourceGraphic" in2="bg"/></filter><mask id="mask-6" x="196.88" y="237.11" width="60.93" height="73.1" maskUnits="userSpaceOnUse"><g class="cls-115"/></mask><radialGradient id="radial-gradient-6" cx="1120.97" cy="3164.76" r="76.08" gradientTransform="translate(-247.82 -70.34) rotate(67.54)" xlink:href="#radial-gradient"/><filter id="luminosity-noclip-7" x="-2835.41" y="2026.05" width="81.99" height="108.77" filterUnits="userSpaceOnUse" color-interpolation-filters="sRGB"><feFlood flood-color="#fff" result="bg"/><feBlend in="SourceGraphic" in2="bg"/></filter><mask id="mask-7" x="180.57" y="129.54" width="81.99" height="108.77" maskUnits="userSpaceOnUse"><g class="cls-114"/></mask><radialGradient id="radial-gradient-7" cx="-3160.14" cy="958.01" r="92.39" gradientTransform="translate(-481.97 -316.76) rotate(-28.67)" xlink:href="#radial-gradient"/><filter id="luminosity-noclip-8" x="-2835.41" y="2053.72" width="81.61" height="81.1" filterUnits="userSpaceOnUse" color-interpolation-filters="sRGB"><feFlood flood-color="#fff" result="bg"/><feBlend in="SourceGraphic" in2="bg"/></filter><mask id="mask-8" x="180.57" y="157.21" width="81.61" height="81.1" maskUnits="userSpaceOnUse"><g class="cls-113"/></mask><radialGradient id="radial-gradient-8" cx="-3159.96" cy="959.12" r="92.27" gradientTransform="translate(-481.97 -316.76) rotate(-28.67)" xlink:href="#radial-gradient"/><filter id="luminosity-noclip-9" x="-2743.54" y="1919.34" width="60.65" height="60.65" filterUnits="userSpaceOnUse" color-interpolation-filters="sRGB"><feFlood flood-color="#fff" result="bg"/><feBlend in="SourceGraphic" in2="bg"/></filter><mask id="mask-9" x="272.44" y="22.84" width="60.65" height="60.65" maskUnits="userSpaceOnUse"><g class="cls-112"/></mask><radialGradient id="radial-gradient-9" cx="2501.02" cy="1950.32" r="38.32" gradientTransform="matrix(-1, 0, 0, 1, -212.61, 0)" gradientUnits="userSpaceOnUse"><stop offset="0.25" stop-color="#ffe358"/><stop offset="0.36" stop-color="#ffe878"/><stop offset="0.58" stop-color="#fff2b2"/><stop offset="0.76" stop-color="#fff9dc"/><stop offset="0.91" stop-color="#fffdf5"/><stop offset="0.99" stop-color="#fff"/></radialGradient><radialGradient id="radial-gradient-10" cx="2496.89" cy="1946.84" r="21.9" gradientTransform="matrix(-1, 0, 0, 1, -212.61, 0)" gradientUnits="userSpaceOnUse"><stop offset="0.03" stop-color="#fff"/><stop offset="0.4" stop-color="#fdcc21"/><stop offset="1" stop-color="#e87c0c"/></radialGradient><radialGradient id="radial-gradient-11" cx="2497.15" cy="1947.09" r="17.29" xlink:href="#radial-gradient-10"/><filter id="luminosity-noclip-11" x="-2732.09" y="1920.42" width="2.43" height="3.23" filterUnits="userSpaceOnUse" color-interpolation-filters="sRGB"><feFlood flood-color="#fff" result="bg"/><feBlend in="SourceGraphic" in2="bg"/></filter><mask id="mask-11" x="283.9" y="23.92" width="2.43" height="3.23" maskUnits="userSpaceOnUse"><g class="cls-111"/></mask><radialGradient id="radial-gradient-12" cx="2517.96" cy="1921.64" r="2.25" xlink:href="#radial-gradient-9"/><filter id="luminosity-noclip-12" x="-2734.65" y="1967.32" width="2.43" height="3.24" filterUnits="userSpaceOnUse" color-interpolation-filters="sRGB"><feFlood flood-color="#fff" result="bg"/><feBlend in="SourceGraphic" in2="bg"/></filter><mask id="mask-12" x="281.34" y="70.81" width="2.43" height="3.24" maskUnits="userSpaceOnUse"><g class="cls-110"/></mask><radialGradient id="radial-gradient-13" cx="2520.53" cy="1968.54" r="2.26" xlink:href="#radial-gradient-9"/><filter id="luminosity-noclip-13" x="-2708.77" y="1975.01" width="2.43" height="3.24" filterUnits="userSpaceOnUse" color-interpolation-filters="sRGB"><feFlood flood-color="#fff" result="bg"/><feBlend in="SourceGraphic" in2="bg"/></filter><mask id="mask-13" x="307.21" y="78.5" width="2.43" height="3.24" maskUnits="userSpaceOnUse"><g class="cls-109"/></mask><radialGradient id="radial-gradient-14" cx="2494.65" cy="1976.22" r="2.26" xlink:href="#radial-gradient-9"/><filter id="luminosity-noclip-14" x="-2691.27" y="1978.77" width="1.92" height="2.56" filterUnits="userSpaceOnUse" color-interpolation-filters="sRGB"><feFlood flood-color="#fff" result="bg"/><feBlend in="SourceGraphic" in2="bg"/></filter><mask id="mask-14" x="324.72" y="82.27" width="1.92" height="2.56" maskUnits="userSpaceOnUse"><g class="cls-108"/></mask><radialGradient id="radial-gradient-15" cx="2477.46" cy="1979.74" r="1.78" xlink:href="#radial-gradient-9"/><filter id="luminosity-noclip-15" x="-2672.89" y="1997.4" width="1.92" height="2.56" filterUnits="userSpaceOnUse" color-interpolation-filters="sRGB"><feFlood flood-color="#fff" result="bg"/><feBlend in="SourceGraphic" in2="bg"/></filter><mask id="mask-15" x="343.09" y="100.89" width="1.92" height="2.56" maskUnits="userSpaceOnUse"><g class="cls-107"/></mask><radialGradient id="radial-gradient-16" cx="2459.09" cy="1998.36" r="1.78" xlink:href="#radial-gradient-9"/><filter id="luminosity-noclip-16" x="-2689.11" y="1943.13" width="1.92" height="2.56" filterUnits="userSpaceOnUse" color-interpolation-filters="sRGB"><feFlood flood-color="#fff" result="bg"/><feBlend in="SourceGraphic" in2="bg"/></filter><mask id="mask-16" x="326.87" y="46.62" width="1.92" height="2.56" maskUnits="userSpaceOnUse"><g class="cls-106"/></mask><radialGradient id="radial-gradient-17" cx="2475.31" cy="1944.09" r="1.79" xlink:href="#radial-gradient-9"/><filter id="luminosity-noclip-17" x="-2672.82" y="1940.19" width="1.92" height="2.57" filterUnits="userSpaceOnUse" color-interpolation-filters="sRGB"><feFlood flood-color="#fff" result="bg"/><feBlend in="SourceGraphic" in2="bg"/></filter><mask id="mask-17" x="343.16" y="43.68" width="1.92" height="2.57" maskUnits="userSpaceOnUse"><g class="cls-105"/></mask><radialGradient id="radial-gradient-18" cx="2459.02" cy="1941.16" r="1.79" xlink:href="#radial-gradient-9"/><filter id="luminosity-noclip-18" x="-2705.15" y="1918.2" width="1.92" height="2.56" filterUnits="userSpaceOnUse" color-interpolation-filters="sRGB"><feFlood flood-color="#fff" result="bg"/><feBlend in="SourceGraphic" in2="bg"/></filter><mask id="mask-18" x="310.84" y="21.69" width="1.92" height="2.56" maskUnits="userSpaceOnUse"><g class="cls-104"/></mask><radialGradient id="radial-gradient-19" cx="2491.34" cy="1919.16" r="1.78" xlink:href="#radial-gradient-9"/><filter id="luminosity-noclip-19" x="-2686.28" y="1911.04" width="1.92" height="2.57" filterUnits="userSpaceOnUse" color-interpolation-filters="sRGB"><feFlood flood-color="#fff" result="bg"/><feBlend in="SourceGraphic" in2="bg"/></filter><mask id="mask-19" x="329.71" y="14.54" width="1.92" height="2.57" maskUnits="userSpaceOnUse"><g class="cls-103"/></mask><radialGradient id="radial-gradient-20" cx="2472.48" cy="1912.01" r="1.79" xlink:href="#radial-gradient-9"/><filter id="luminosity-noclip-20" x="-2676.85" y="1922.91" width="1.92" height="2.56" filterUnits="userSpaceOnUse" color-interpolation-filters="sRGB"><feFlood flood-color="#fff" result="bg"/><feBlend in="SourceGraphic" in2="bg"/></filter><mask id="mask-20" x="339.14" y="26.41" width="1.92" height="2.56" maskUnits="userSpaceOnUse"><g class="cls-102"/></mask><radialGradient id="radial-gradient-21" cx="2463.04" cy="1923.88" r="1.79" xlink:href="#radial-gradient-9"/><filter id="luminosity-noclip-21" x="-2648.57" y="1961.41" width="1.92" height="2.55" filterUnits="userSpaceOnUse" color-interpolation-filters="sRGB"><feFlood flood-color="#fff" result="bg"/><feBlend in="SourceGraphic" in2="bg"/></filter><mask id="mask-21" x="367.42" y="64.9" width="1.92" height="2.55" maskUnits="userSpaceOnUse"><g class="cls-101"/></mask><radialGradient id="radial-gradient-22" cx="2434.76" cy="1962.37" r="1.78" xlink:href="#radial-gradient-9"/><filter id="luminosity-noclip-22" x="-2654.21" y="1903.95" width="1.92" height="2.56" filterUnits="userSpaceOnUse" color-interpolation-filters="sRGB"><feFlood flood-color="#fff" result="bg"/><feBlend in="SourceGraphic" in2="bg"/></filter><mask id="mask-22" x="361.78" y="7.45" width="1.92" height="2.56" maskUnits="userSpaceOnUse"><g class="cls-100"/></mask><radialGradient id="radial-gradient-23" cx="2440.4" cy="1904.91" r="1.79" xlink:href="#radial-gradient-9"/><filter id="luminosity-noclip-23" x="-2665.24" y="1972.12" width="1.57" height="2.08" filterUnits="userSpaceOnUse" color-interpolation-filters="sRGB"><feFlood flood-color="#fff" result="bg"/><feBlend in="SourceGraphic" in2="bg"/></filter><mask id="mask-23" x="350.75" y="75.61" width="1.57" height="2.08" maskUnits="userSpaceOnUse"><g class="cls-99"/></mask><radialGradient id="radial-gradient-24" cx="2451.65" cy="1972.9" r="1.45" xlink:href="#radial-gradient-9"/><filter id="luminosity-noclip-24" x="-2670.07" y="1896.51" width="1.57" height="2.09" filterUnits="userSpaceOnUse" color-interpolation-filters="sRGB"><feFlood flood-color="#fff" result="bg"/><feBlend in="SourceGraphic" in2="bg"/></filter><mask id="mask-24" x="345.91" y="0" width="1.57" height="2.09" maskUnits="userSpaceOnUse"><g class="cls-98"/></mask><radialGradient id="radial-gradient-25" cx="2456.48" cy="1897.29" r="1.46" xlink:href="#radial-gradient-9"/><filter id="luminosity-noclip-25" x="-2729.55" y="1900.2" width="3.29" height="4.38" filterUnits="userSpaceOnUse" color-interpolation-filters="sRGB"><feFlood flood-color="#fff" result="bg"/><feBlend in="SourceGraphic" in2="bg"/></filter><mask id="mask-25" x="286.43" y="3.7" width="3.29" height="4.38" maskUnits="userSpaceOnUse"><g class="cls-97"/></mask><radialGradient id="radial-gradient-26" cx="2514.89" cy="1901.85" r="3.05" xlink:href="#radial-gradient-9"/><radialGradient id="radial-gradient-27" cx="-2810.01" cy="2023.12" r="26.44" gradientUnits="userSpaceOnUse"><stop offset="0" stop-color="#ffeddc"/><stop offset="0.69" stop-color="#fcceb7"/><stop offset="1" stop-color="#fbbd90"/></radialGradient><radialGradient id="radial-gradient-28" cx="-2825.42" cy="2198.3" r="3.42" gradientTransform="translate(0 -2.28) scale(1 0.93)" xlink:href="#radial-gradient-27"/><radialGradient id="radial-gradient-29" cx="-2827.79" cy="2031.48" r="7.12" xlink:href="#radial-gradient-27"/><radialGradient id="radial-gradient-30" cx="-2835.87" cy="2050.94" r="11.22" xlink:href="#radial-gradient-27"/><radialGradient id="radial-gradient-31" cx="-2829.82" cy="2050.07" r="5.85" xlink:href="#radial-gradient-27"/><radialGradient id="radial-gradient-32" cx="-2845.34" cy="2019.48" r="71.24" xlink:href="#radial-gradient-27"/><radialGradient id="radial-gradient-33" cx="-2856.16" cy="2011.23" r="7.24" xlink:href="#radial-gradient-27"/><radialGradient id="radial-gradient-34" cx="-2816.63" cy="2010.24" r="5.13" xlink:href="#radial-gradient-27"/><radialGradient id="radial-gradient-35" cx="-3413.32" cy="2119.86" r="8.53" gradientTransform="matrix(0.81, 0.03, -0.04, 1, 17.14, -4.51)" xlink:href="#radial-gradient-27"/></defs><title>fairy_10</title><g class="cls-1"><g id="Layer_1" data-name="Layer 1"><g class="cls-2"><path class="cls-3" d="M-2838.53,2136.72c-19.12-44.76-64.74-78-107.91-96.56-17.81-7.66-37.34-14.76-56.83-16.44-11.69-1-13.9,4-12.21,15.08,5.8,37.88,30.93,66.76,60.94,88.87a230,230,0,0,0,68.81,34.81c6.4,2,12.88,3.63,19.44,4.94,9.42,1.89,10.46.21,15.78-7.83A121.32,121.32,0,0,0-2838.53,2136.72Z" transform="translate(3015.99 -1896.51)"/></g><path class="cls-4" d="M-2863.11,2113.89c-32.12-50-96.94-73.94-151.28-88.48C-2960.38,2041.14-2896.36,2065-2863.11,2113.89Z" transform="translate(3015.99 -1896.51)"/><path class="cls-4" d="M-2875.08,2117.79c-44.33-32.29-89.59-65.87-138.52-90.9C-2965.27,2053.3-2920.44,2086.69-2875.08,2117.79Z" transform="translate(3015.99 -1896.51)"/><path class="cls-4" d="M-3013,2029.41c32,45.42,80,78.18,130.37,100.05C-2932.24,2106.45-2980,2073.84-3013,2029.41Z" transform="translate(3015.99 -1896.51)"/><path class="cls-4" d="M-3015.62,2029.18c18.43,57.4,79.47,96.13,129.21,123.12C-2935.25,2124.31-2996.31,2085.79-3015.62,2029.18Z" transform="translate(3015.99 -1896.51)"/><g class="cls-5"><g class="cls-6"><path class="cls-7" d="M-2893.09,2133.91c2.43-11.42,7.16-20.79,16.23-28.1,5.83-4.69,8-4.71,3.52-12-9.54-15.69-27.46-25.62-41.08-37.1,25.85,15.78,49.19,36.68,65.89,62.08,10.85,16.5,11.3,19.33.38,37.15-2,3.3-4.54,9.09-7.82,11.23-3.86,2.53-7.84.84-12.75-.22a208.25,208.25,0,0,1-26.25-7.49,231.7,231.7,0,0,1-47.55-23.47c-25-16.08-49.62-37.59-63-64.62,0,0,27.84,31.76,31.43,34.88a179.11,179.11,0,0,0,36.9,25.09c7.14,3.59,41.75,19.83,44.15,2.61C-2886,2100.48-2896.07,2155.29-2893.09,2133.91Z" transform="translate(3015.99 -1896.51)"/></g></g><path class="cls-8" d="M-3015.35,2038.06c2.85,43.85,43,77.94,76.68,100.08C-2971.3,2114.74-3011.29,2081.55-3015.35,2038.06Z" transform="translate(3015.99 -1896.51)"/><g class="cls-9"><path class="cls-10" d="M-2866.22,2136.93c-12.12,4.54-23,12.82-32.17,21.81a135.07,135.07,0,0,0-25.12,34.54c-3.85,7.48-15.93,28.24-12.41,37.39,2.94,7.65,16.47,2.74,22.43.88,12.32-3.85,22.93-12.37,31.79-21.51a131.16,131.16,0,0,0,25.92-38.81c2.78-6.4,8.59-18.2,5.53-24C-2852.52,2142.87-2861.71,2139-2866.22,2136.93Z" transform="translate(3015.99 -1896.51)"/></g><path class="cls-4" d="M-2880,2150.18c-29.42,16.56-45.52,52.42-55,83.15C-2923.81,2202.8-2908.56,2168.35-2880,2150.18Z" transform="translate(3015.99 -1896.51)"/><path class="cls-4" d="M-2878.13,2157.1c-20.14,23.92-40,48.89-56,75.83C-2916.6,2206.84-2897.06,2182.17-2878.13,2157.1Z" transform="translate(3015.99 -1896.51)"/><path class="cls-4" d="M-2932.68,2232.67c27-16.27,47.4-42.94,60.95-70.91C-2887,2189.24-2906.56,2214.63-2932.68,2232.67Z" transform="translate(3015.99 -1896.51)"/><path class="cls-4" d="M-2932.89,2234.16c33.18-8.59,57.55-41.79,74-69.54C-2876.87,2191.74-2900.15,2224-2932.89,2234.16Z" transform="translate(3015.99 -1896.51)"/><g class="cls-5"><g class="cls-11"><path class="cls-12" d="M-2869.54,2167.85c-8-2.17-9.83-6.29-15.63-10.4-4.57-3.24-.66-3.87-6.92-1.87-8.49,2.71-16.37,15.44-22,22,9.85-14.29,22.62-27.07,37.76-35.72,9.6-5.48,11.2-5.45,20.84,1.28,5.66,4,6.06,4.14,6,10-0.06,5.23-3.74,12.22-5.75,17a131.77,131.77,0,0,1-15.07,26.44c-9.86,13.46-22.74,26.56-38.31,33.24,1,4.09,62.48-57.35,39.1-61.92C-2888.31,2162.75-2857.49,2170.2-2869.54,2167.85Z" transform="translate(3015.99 -1896.51)"/></g></g><path class="cls-8" d="M-2927.83,2234.28c25,0.23,46-21.77,59.27-40.41C-2883.27,2211.8-2903,2232.65-2927.83,2234.28Z" transform="translate(3015.99 -1896.51)"/><g class="cls-13"><path class="cls-14" d="M-2805.68,2133.62c10.88,2.34,21.16,7.94,30.08,14.44a115.29,115.29,0,0,1,25.65,26.2c3.51,4.91,17.58,23,14.78,30.21-2.35,6-15.47,3.38-20.35,2.45-10.52-2-20.18-7.85-28.54-14.31a111.15,111.15,0,0,1-26.65-29.76c-3.14-5.12-8.93-13.56-6.9-18.78C-2816.11,2140.22-2809.18,2135.92-2805.68,2133.62Z" transform="translate(3015.99 -1896.51)"/></g><path class="cls-4" d="M-2792.43,2143c26.39,11.82,43.35,38.77,56.88,63C-2747.48,2181.21-2765.47,2153.26-2792.43,2143Z" transform="translate(3015.99 -1896.51)"/><path class="cls-4" d="M-2793.1,2149.07c19.05,18.75,38.61,37,56.76,56.67C-2753.14,2185-2773.07,2166.63-2793.1,2149.07Z" transform="translate(3015.99 -1896.51)"/><path class="cls-4" d="M-2737.59,2205.72c-24.22-12-43.86-30.82-60.29-51.92C-2783,2175.78-2762.35,2195.4-2737.59,2205.72Z" transform="translate(3015.99 -1896.51)"/><path class="cls-4" d="M-2737.22,2206.94c-29-4.44-52.22-28.65-71.11-49.08C-2790.82,2179.29-2766.41,2204-2737.22,2206.94Z" transform="translate(3015.99 -1896.51)"/><g class="cls-5"><g class="cls-15"><path class="cls-16" d="M-2799,2159.2c8.26-3.64,10.22-14.26,17.81-13,7.21,1.19,15.57,10.86,20.91,15.48-10.62-11.32-23.89-21-38.67-26.12-7.09-2.44-15.65-.43-18.7,8.49-3.8,11.14,16,32.43,24.06,40.27,9.81,9.6,21.89,18.48,35.35,22-1.75,5.08-58.73-40.69-40.76-47.12C-2783.81,2152.52-2808.79,2162.72-2799,2159.2Z" transform="translate(3015.99 -1896.51)"/></g></g><path class="cls-8" d="M-2741.46,2207.68c-21.13,1.68-40.28-13.38-55-26.46C-2782.91,2195.3-2762.54,2211-2741.46,2207.68Z" transform="translate(3015.99 -1896.51)"/><g class="cls-17"><path class="cls-18" d="M-2835.41,2120.29c1.4-13.85,7.15-27.45,14.16-39.32a141.26,141.26,0,0,1,29.76-35c5.25-4.51,24.26-22.43,32.81-19.58,7,2.34,5.21,20.26,4.61,25.78-1.38,12.69-7.26,24.88-14,35.55a134.94,134.94,0,0,1-31.73,34.92c-5.07,3.91-15.36,12.85-21.24,10.87C-2826.17,2131.73-2831.92,2124.55-2835.41,2120.29Z" transform="translate(3015.99 -1896.51)"/></g><path class="cls-4" d="M-2825.86,2103.14c10.34-33.28,40.93-57.36,68.2-76.56C-2785.56,2044-2817.39,2069.61-2825.86,2103.14Z" transform="translate(3015.99 -1896.51)"/><path class="cls-4" d="M-2818.5,2103.14c19.92-25.41,39.23-51.41,60.66-75.58C-2780.5,2050.44-2799.92,2076.91-2818.5,2103.14Z" transform="translate(3015.99 -1896.51)"/><path class="cls-4" d="M-2757.7,2029.06c-11.06,30.74-31.17,56.82-54.47,79.23C-2787.92,2087.45-2766.86,2060.13-2757.7,2029.06Z" transform="translate(3015.99 -1896.51)"/><path class="cls-4" d="M-2756.28,2028.47c-1.38,35.14-27.49,67-49.68,91.83C-2782.72,2096.75-2756.06,2063.62-2756.28,2028.47Z" transform="translate(3015.99 -1896.51)"/><g class="cls-5"><g class="cls-19"><path class="cls-20" d="M-2796.2,2102.77c-6-6.55-12.5-7.71-20.74-8.36-6.9-.55-6.38,1.42-6.73-4.72-0.48-8.35,11.48-21,16-27.65-11.56,13.48-46.35,60.22-13.36,71.45,12.39,4.22,38-25.6,45.18-34.74,10.11-12.94,19.11-28.51,21.56-45,5.07,1-32.09,69.32-41.93,49C-2809.28,2088.41-2790.69,2114.12-2796.2,2102.77Z" transform="translate(3015.99 -1896.51)"/></g></g><path class="cls-8" d="M-2754.84,2033.46c5,25.23-10.69,50.12-24.6,69.54C-2764.42,2084.82-2748.08,2058.29-2754.84,2033.46Z" transform="translate(3015.99 -1896.51)"/><path class="cls-21" d="M-2808,2278.64c-2.33,9.92,8.84,13.38,10.1,22.35,1.06,7.56-5.31,16.22-12.16,19.24,6.64-5.38,7.44-13.4,3.57-20.58-1.45-2.69-4.3-4.46-5.5-7.23-1.3-3,.22-5.33-0.6-8.21-1-3.64-4.28-4.68-5.56-7.82-2.14-5.26,2.7-7.79,2-12.43-1-6.84-8.94-7.34-11.12-13.68l15.88,11.83c7.1,5.29,5.61,7.19,3.4,16.54C-2809,2283.23-2806.88,2274.07-2808,2278.64Z" transform="translate(3015.99 -1896.51)"/><path class="cls-22" d="M-2810.37,2319.82c8.92-7.24,5.44-15.22.95-23.28-1.9-3.41-3.13-4.27-4-8-0.51-2.28.72-4.43-.33-6.83-1.45-3.32-5.4-4.27-5.83-8.48-0.47-4.6,4.12-7.54,2.28-12.31-2-5.08-9.42-5.77-11-12.1l15.78,11.76c6.14,4.58,6.65,3.53,6.56,10.37-0.06,4.59-2.84,9.12-1.43,13.74,1.93,6.34,9.19,9.3,10.12,16.45,1.23,9.52-7.94,18-16.21,21.23C-2812.46,2321.51-2811.45,2320.6-2810.37,2319.82Zm-15.45-67.81c3.26,5.13,9.46,5.43,10.23,12,0.37,3.15-3.08,5.88-2.87,9.13,0.29,4.54,4.06,4.45,5.71,8,2.58,5.59.46,8.68,4.1,14.58,4.17,6.77,8.07,13.68,2.36,21.39,4.33-3.77,8.65-10.1,8-15.89s-5.51-8.12-8.14-12.63c-2.89-5-2.19-8.06-1.3-13.48,1.43-8.75,1.8-8.4-5-13.46Z" transform="translate(3015.99 -1896.51)"/><path class="cls-21" d="M-2699.81,2280c0.62,5.66,0,21.85,5.59,25.61-4.92-.1-3.91-3.2-6.77-5.17-0.83-.58-1-2.15-2-2.81-1.93-1.22-5,.45-6.8-1-5.81-4.67,7.23-11.77,10-16.65C-2699.57,2282.21-2703.51,2286.57-2699.81,2280Z" transform="translate(3015.99 -1896.51)"/><path class="cls-22" d="M-2694.23,2306.14c-6.63-.14-4.51-5-8.36-7.53-3.48-2.31-9.66.73-9.83-5.08-0.13-4.25,10.56-10.75,13-15.26,0.8,6.65-.7,24.56,7.08,27.93Zm-2.68-5.17c0.26-3.09-1.66-3.34-2.3-5.84-1.17-4.52-.66-8.79-1-13.45-2.53,3.81-12.32,9.29-10.81,13.81,0.57,1.71,7.58,1.43,9.2,2.36,2.87,1.64,1.3,6.06,5.82,7-1.17-1.18-1.08-2.4-.9-3.9C-2696.7,2298.57-2696.93,2301.2-2696.9,2301Z" transform="translate(3015.99 -1896.51)"/><path class="cls-21" d="M-2770,2245.77c13.23,8.57,26.83,17.11,41.3,23.44-1.92,1.5-5.06,6.28-7,6.69-3.7.78-.68,0.62-3.83-1.68-1.68-1.22-.62-4.64-2.94-5.66-1.17-.52-3.06,1.17-4.22.81-3.44-1.08-2.6.79-6.13-1.46-3.17-2-5.68-7.13-8.13-10.16-1.58-2-9.37-11.94-9-12C-2761.09,2251.56-2770.25,2245.79-2770,2245.77Z" transform="translate(3015.99 -1896.51)"/><path class="cls-22" d="M-2737.24,2277.77c-3.79-1.88-2.44-7.07-5.58-8.7-1.78-.92-6.56,2.11-8.6,1.51-5.85-1.71-16-19.9-20.34-25.19,4.59-.66,10.24,5.17,13.88,7.39,9.75,6,19.71,11.75,30.21,16.29C-2731,2271.67-2734.28,2275.56-2737.24,2277.77ZM-2769,2247.1c5.31,6.48,12.81,19.83,19.91,22.09,1.73,0.55,4.63-1.88,6.24-1.19,3.89,1.68,2.17,6.49,5.69,8.61a61.27,61.27,0,0,1,7.37-7.26c-13.7-6.11-26.63-14.13-39.21-22.25C-2764.86,2252.11-2759.37,2253.29-2769,2247.1Z" transform="translate(3015.99 -1896.51)"/><path class="cls-23" d="M-2789.45,2421.86c-14.82-4.07-17.48-37-20-48.74-1.21-5.57-3-11.18.19-16.31,3.76-6.06,12.29-10,16.44-16.71,11.16-7.17,28.81-13.91,41.62-21.36,8.2-4.77,16.76-11.35,16.09-21.82-0.32-5-6.21-10.29-6.16-14.2s9.86-11.38,12.58-13.51c-14.47-6.33-28.07-14.87-41.3-23.44,8.14-.92,16.12-1.62,24.12.9,6.09,1.92,7.78,6.61,12.5,9.36,4.92,2.88,11.09.49,16.39,2.72,4.24,1.78,11.18,6.13,13.81,10,7.62,11.24-2,18.59-10.48,25.09-7.72,5.95-15.56,11.73-23.24,17.73-11,8.63-22,17.4-32.51,26.7-7.74,6.86-18.55,14.58-20.35,25.38-2.24,13.46,1.69,31.74,4.07,45,1.19,6.65,9,16.68-3.75,13.15C-2796.64,2419.88-2782.27,2423.85-2789.45,2421.86Z" transform="translate(3015.99 -1896.51)"/><path class="cls-24" d="M-2789.6,2422.38c-15-4.12-17.25-35.38-20.05-47.56-1.88-8.16-3.57-13.48,1.79-19.7,3.75-4.35,10.08-11.56,14.36-15.3,11.52-10,29.61-14.21,42.58-21.9,8.44-5,16.83-12.06,15-22.92-0.63-3.77-6.17-9.25-6.07-12.29,0.12-3.54,9.9-11.48,12.22-13.37-14.65-6.54-28.43-15.2-41.84-24,6.73-.8,13-1.54,19.77-0.49,8.08,1.25,11.06,4.85,17.29,8.85,5.76,3.7,10.8,1.51,17.19,4,4,1.54,10.73,5.93,13.59,9.23,14.68,16.95-17.08,32.85-28.2,41.46-11.39,8.82-22.69,17.79-33.59,27.21-8.28,7.16-21.5,16.28-23.6,27.65-2.48,13.49,1.57,33.25,4.19,46.65,1.27,6.48,9.24,16.21-4.65,12.44C-2796.66,2420.44-2788,2422.82-2789.6,2422.38Zm1.32-32.36c-1-10.59-5.06-23.67.34-33.56,4.31-7.9,13.76-14.73,20.42-20.54,15.5-13.51,31.8-26.13,48.21-38.51,3.13-2.36,6.46-4.58,9.45-7.14,5.1-4.36,9.6-7.76,8.78-14.64-0.63-5.24-4.1-8.86-8.14-11.57-4.34-2.91-9.38-5.94-14.41-6.59-7.25-.93-6.94.29-12.42-4-9.76-7.57-20-9.07-32.43-7.38,13.06,8.42,26.5,16.85,40.82,23-3.4,2.65-8.63,6.56-10.56,10.52-3,6.08,2.32,8.46,3.42,15.41,1.79,11.25-6.76,18.61-15.51,23.81-13.64,8.11-32.26,12.43-43.51,23.7-4.57,4.57-14.76,12.18-16.62,17.89-2.32,7.13,2.95,18.63,4.61,25.53,2.24,9.29,3.68,21.15,9.29,29.18,2.21,3.17,10.57,11.17,14.62,5.66-6.4-7.59-5.48-21.65-6.36-30.75C-2788.66,2386.14-2786.19,2411.77-2788.28,2390Z" transform="translate(3015.99 -1896.51)"/><path class="cls-23" d="M-2854.15,2420.43c-11.59-4.1-3.27-32-1.61-39,2.75-11.64,3.5-26.12,14.64-32.17,14.56-7.9,27.17-14,40-24.63,11.67-9.69,23.3-21.32,36.82-28.46-13.71-11.34-28.73-20.78-43.15-31.14-5.27-3.78-13.59-8-17.57-13.09-5.59-7.12.64-17.24-5.59-25.31,6.28-1.79,12.65,7.35,16.45,10.51,5.74,4.79,10.94,7,18.39,5.69,2.62-.45,5.78-2.71,8.39-2.58,4.32,0.22,5.92,3.23,9.69,4.57,3.57,1.27,5.71,1.1,8.64,3,2.57,1.7,4.87,6,6.75,8.28,8.95,11,29.68,28.9,27.08,44.76-2.57,15.7-24.83,22.11-36.77,28.08-17,8.49-37.15,17-52.65,27.64-8.67,6-11.81,17.69-15,27.34-2.69,8.17-5.19,16.52-7.17,24.9-1,4-.59,14-7.34,11.59C-2859.83,2418.42-2852.09,2421.15-2854.15,2420.43Z" transform="translate(3015.99 -1896.51)"/><path class="cls-24" d="M-2854.32,2420.92c-11.33-4-4.25-29.8-2.55-37.11,2.55-11,3.58-28,13.94-34.59,10-6.41,21.89-9.53,31.68-17,15.3-11.74,29-26.69,46-36.11-14.23-11.67-29.84-21.38-44.67-32.21-4.36-3.19-14.88-8.3-17.51-13-4.21-7.58,2.41-16.37-4.09-24.48,5.67-1.69,10.44,3.54,14.22,6.92,7.94,7.1,12.48,11,23.75,8.5a28.52,28.52,0,0,1,28.44,10.07c9.67,11.87,30.18,29.62,30.54,45.77,0.42,18.73-25.54,26-38.89,32.72-6.74,3.4-13.3,7.1-19.93,10.68-10.28,5.54-24,9.65-32.91,17.12-9.31,7.78-12.41,24.27-15.66,35.26-1.41,4.76-3.42,30.84-12.37,27.57C-2861.23,2418.49-2853.77,2421.13-2854.32,2420.92Zm11.34-27.87c3-10.28,6.08-25.24,13.64-33.42,5.83-6.32,16.14-9.62,23.7-13.54,16.09-8.34,32.11-16.7,48.31-24.82,12.13-6.08,25.93-14.84,20.19-30.37-4.94-13.35-20.11-30.14-30.23-40.18-4.36-4.32-5.61-3.63-11.39-5.81-3-1.11-4.16-4-7.5-4.26-2.76-.22-6.07,2-8.75,2.51-8,1.47-13.36-.38-19.53-5.67-3.85-3.3-9.13-11.09-15.11-10.51,5.23,7.55-.47,17.17,3.91,23.72,3.53,5.28,13.44,10.17,18.62,13.87,14.66,10.49,29.89,20.14,43.8,31.67-19.89,10.54-34.63,28.85-53.29,41.21-11.36,7.52-28,9.22-33,22.65-4.7,12.64-15,41.55-8.25,54.79,2.48,4.85,5.26,7.34,9,2,3.43-4.86,4.24-18.09,5.9-23.86h0Z" transform="translate(3015.99 -1896.51)"/><path class="cls-25" d="M-2867.53,2395.89c2.82-11.73,5.1-24.15,8.55-35.68,3.14-10.5,6.94-8.37,16.27-10.5-10.49,4.86-12.29,27.58-14.27,36.84-0.64,3-6.14,45,8.55,32.26-0.15,9.54,1,22.72-11.87,11.86-10.48-8.84-10.19-22.46-7.23-34.78h0Z" transform="translate(3015.99 -1896.51)"/><path class="cls-26" d="M-2862.25,2429.7c-15.29-14.82-4.18-38.84-.1-56.08,1.53-6.45,1.45-18.07,7.41-22.42,4.28-3.13,11.76-1.74,16.88-3-15.33,6.27-16.6,28.44-19.3,42.9-0.66,3.51-3.37,40.11,9.48,26.56-0.2,10.66.19,26.18-14.37,12.09h0Zm7.92-8.78c-10.79-3.8-4.71-27.37-3.15-34.6,2-9.42,3.49-29.39,12.14-35.72-10.15,0-11.68,3.77-13.84,13.32-2.76,12.16-6.66,24.31-8.77,36.59-1.66,9.61-1.41,19.69,5.41,27.29,2.29,2.55,8.89,9,13,5.67,2.84-2.32.7-10.36,0.61-13.55a5.71,5.71,0,0,1-5.35,1h0Z" transform="translate(3015.99 -1896.51)"/><path class="cls-23" d="M-2838.15,2084.21c8,16.56,23.25,23.61,21.74,44.38-13.94-22.36-42.67-40.44-40.61-69.55,3.52,1.2,13,2.54,15.27,5.21,2.76,3.27.93,14.43,3.6,19.95C-2830.25,2100.57-2842.22,2075.79-2838.15,2084.21Z" transform="translate(3015.99 -1896.51)"/><path class="cls-24" d="M-2816.87,2128.89c-14.3-22.95-42.78-40.8-40.64-70.57,3.5,1.19,15.14,2.89,17.11,5.83,2.27,3.37-.4,11.34,1.05,15.85,3.55,11,13.43,17.36,19,27a34.48,34.48,0,0,1,4.61,17C-2815.69,2126.5-2814.78,2131.18-2816.87,2128.89Zm-24.31-63.87-15.35-5.23c-2,27.81,26,46,39.68,67.1,0.58-13.81-6.22-21.67-14.43-31.64C-2840.07,2084.58-2839.93,2077.26-2841.18,2065Z" transform="translate(3015.99 -1896.51)"/><g class="cls-27"><path class="cls-28" d="M-2857.56,2066.61c3.9,25.4,28.34,41.44,41.15,62,1.57-21.56-15.36-28.67-22.58-46.37-2.08-5.1-.2-14.92-2.76-18-2.3-2.73-11.73-4-15.27-5.21l-0.53,7.56C-2856.48,2073.62-2857,2059.05-2857.56,2066.61Zm3.23,0.53c4.88,1.79,8.73,1.06,10.89,4.08,1,1.4.59,6.5,1.19,8.56a45.6,45.6,0,0,0,6,12c3.6,5.47,8.67,10,12.06,15.59,2.51,4.12,2.48,8.77,4.68,12.73-3.59-9.38-11.52-13.66-18.31-20.33-8.08-7.94-16.22-21.09-16.56-32.68C-2848.93,2069.11-2854,2079.9-2854.33,2067.14Z" transform="translate(3015.99 -1896.51)"/></g><path class="cls-23" d="M-2815.69,2101.29a88,88,0,0,1-18.33-21c15.27-1.29,34.42,23.74,45.66,32.26,6.75,5.12,7.37,7.46,13.21,3.35,6.59-4.63,12.4-13.35,17.8-19.31,6.29-6.94,13.94-13,14.92-22,1.12-10.33,1.66-18.78,5.24-28.76,2.69-7.51,23.67-27,21.81-10.13,7.8-1.56,3.86,2.45,5.92,5.37,1.52,2.16,4.51,4.88,4.15,8.45-0.21,2.06-3.09,3-3.6,4.64-0.58,1.85.37,5.39,0.06,7.28s-3.72,13.35-6.52,13.35c-1.82,0,.54-11.84.26-13.61a36.4,36.4,0,0,1-3.93,11c-3.62,6.22-9,6.91-13.36,10.93-4.72,4.31-8.09,12.37-11.8,17.67-5.1,7.3-10.33,14.52-15.86,21.5-10.24,13-20.82,22.65-35.82,6.69-7.62-8.11-10-19.18-19.81-27.6C-2828.45,2090.32-2802.93,2112.24-2815.69,2101.29Z" transform="translate(3015.99 -1896.51)"/><path class="cls-24" d="M-2791.57,2132.59c-2.28-1.6-6.86-3.73-8.43-6-3-4.45-3-10.65-6.7-15.49-8.65-11.22-21.09-18.62-28.2-31.26,17-1.59,35.21,23.66,47.84,33,7.13,5.29,7.8,6.66,13.61.42q9.32-10,18.5-20.15c2.85-3.17,6.29-6.3,8.7-9.82,3.48-5.08,3.09-7,3.23-13.48,0.16-7.55,2.54-14.2,4.57-21.38,2.24-7.91,4.92-11,11.78-15.59,6.34-4.24,12.59-8.94,11.87,2.24,1.66,0,5.19-.65,6.32.93a8.11,8.11,0,0,1-.32,4.41q-1.45,2.44,1.72,3c1.09,5,2.37,2.77.92,8.46-0.6,2.38-1.37,4.25-2,7-0.47,2-3.94,18.14-7.22,16.44s-0.67-8.12,0-10.71c-3.34,11.57-10.82,13-17.39,20.09-6.31,6.81-11,16.55-16.49,24.1s-10.85,15.34-17.19,22.07C-2774.6,2139.45-2781.67,2139.55-2791.57,2132.59Zm77.27-67.64c-0.21.75-2.47,9.25-1.09,9.25,3.29-.52,5.57-12.16,6.08-14.54,0.39-1.81-.7-4.11-0.18-5.77s2.85-1.08,3-3.31c0.47-6.31-1.29-3.19-3.9-8.36-1.79-3.55,4.18-9-5.6-6,1.43-9.85-2.22-7.55-8.49-3.58-7.49,4.75-10.59,7.67-13,16.16-2,7.15-4.37,13.76-4.51,21.28-0.21,11.2-2.16,12.53-9.8,21.08-5.31,5.94-20.44,28.36-27.9,28s-20.3-15.32-25.52-19.89c-7.53-6.59-17-18.85-27.94-18.5,5.19,8.49,12.44,15.1,19.64,21.83,4.22,3.94,8.61,8.07,11.3,13.28,1.46,2.83,1.54,7.85,3.19,10.19,2.59,3.69,12.86,9.35,16.78,10.36,9.46,2.45,14.31-5.36,19.64-11.94,6.26-7.72,12.11-15.79,17.8-23.93,3.78-5.4,8-15.72,13.08-19.74s9.79-3.9,13.25-11.18a45.26,45.26,0,0,0,3.54-12.82Z" transform="translate(3015.99 -1896.51)"/><g class="cls-27"><path class="cls-28" d="M-2816.77,2088.17l1.82,1.61c-4.45-4.12-10.42-7.69-7.59.61,3.09,9.05,15.86,14.53,20.83,23.25,3.55,6.23,8.07,18.4,15.77,11.34,6.49-5.94-1.49-10-6.27-14.55q-4.22-4-8.56-7.9c5.16,3.91,10.14,8.53,15.54,12.31,6.39,4.46,6.28,5.14,11.7-.68-2.51,3.28-13.74,20.23-3,20.35,6.33,0.07,14.35-13.7,17.5-17.82,6.67-8.74,13.77-17.45,19.51-26.84a61.51,61.51,0,0,0,3.67-7.2c0.68-1.52-3.43-2.76-2.73-3.39,1.41-1.26,5.3,1.61,7.62-.46,1.62-1.44,1.65-6.07,1.47-7.92-0.06-.61-5.44,3.82-5.29,2.66,0.56-4.31,4.59-7,4.38-12-0.1-2.4-2.93-5.62-2.58-7.84,1-6.26,9.48-8.12,12-14.36-9.19.67-15.36,11.64-19.59,18.4,2.62-5.43,2.14-12.71,5.83-17.68,3.51-4.73,10.4-8.44,15.53-11.09,0.07,1.83-1.61,23,3.06,20.75,3-1.42.66-19.25,0.24-21.13,1,1.72.82,5.16,0.59,7.12a34.38,34.38,0,0,1,4.71.11c-0.37.34-10.67,24-10.81,23.8,2.84,3.81,11.41-16,11.76-17.1a16.14,16.14,0,0,1,4,2.83c-4.16-.71-10.6,15.55-12.07,15.22,2.51,0.56,7.64-5.23,8.86-6.41-2.89,1.82-1.83,3-2.83,5.62a136.75,136.75,0,0,0-4.54,13.86c-0.62-4.22,1.93-8.14,1.18-12.46-3,14.71-13.86,16.75-20.84,27.42-9.61,14.71-20.05,32.73-33.3,44.51-8.37,7.44-15.17,3.73-23.74-2.13-6.38-4.35-5.44-4.31-8-11-6.07-16.2-24.24-24.85-33.08-39.62,6.84-.58,12.4,3.63,17.24,7.9h0Z" transform="translate(3015.99 -1896.51)"/></g><path class="cls-23" d="M-2861.61,2224.47c0.19,0.42.37,0.83,0.55,1.24C-2861.26,2225.29-2861.44,2224.87-2861.61,2224.47Z" transform="translate(3015.99 -1896.51)"/><path class="cls-24" d="M-2861.55,2225.93c0.13-.72,1.6-0.23.45-1.68C-2862.36,2224.45-2862.06,2224.85-2861.55,2225.93Z" transform="translate(3015.99 -1896.51)"/><path class="cls-23" d="M-2894,2269.48c1.9-4.9,3.59-10.32,6.6-14.66s7.43-6.3,10.9-10c5-5.31,4.79-10.35,4.6-17.3-0.47-17.54-1.83-35.13-3.22-52.62-1.59-19.92-5.25-39-8.87-58.61-1.63-8.84-4.39-20.73,2.53-28.06,5.42-5.74,14.89-5.78,19.45-12.62-2.74,44.72,4.84,89.3,1.78,133.78-0.85,12.43-3.65,25-1,37.24,0.87,4,6.15,29.56,4.25,30.51-10.52,5.22.23-21.45-11.78-12.47-5.64,4.22-6.83,24.29-13.75,25,0.91,0-3.19-7.58-3.39-8.06-2.18-5.33-3.72-8.9-2.17-14.95-0.53,1.26-8.84,15.18-9.72,12.16-0.55-1.88,3.3-8,3.79-9.27h0Z" transform="translate(3015.99 -1896.51)"/><path class="cls-24" d="M-2883.71,2289.59c-0.91-1.15-1.64-5.6-2.3-7.27-1.81-4.54-3.92-6.17-3.37-11.63-0.77,1.55-5.5,11.38-8.84,8.5-1.38-1.19,4.09-11.14,4.94-13.12,2.23-5.24,4.18-10.82,8-15.12s9.93-5.95,12.18-11.44,0.51-14.1.23-19.75q-0.78-15.67-1.87-31.33a495.84,495.84,0,0,0-8.46-65.15c-2.26-11.12-7.47-27.55,2.43-36.39,5.92-5.29,17.08-5.63,19.4-14.43-2.61,38.41,1.9,76.06,2.35,114.31,0.23,19.17-5.85,40.12-2,58.88,0.91,4.46,2.26,8.38,2.58,13,0.24,3.41,3.2,12.71,2.48,15.59s-1.26,5-5.36,1.81c-4.32-3.38-.15-10.89-2.92-13.71-4-4.43-16,31.54-19.46,27.24C-2884.6,2288.46-2883.42,2290-2883.71,2289.59Zm20.22-28c-1.08-1.1,3,21.57,7.12,14.59,0.47-.76-3-19.11-3.52-22.2-0.93-6-3.12-10.88-3.19-17.08-0.21-18.69,3.62-37.23,2.87-56-1.38-34.66-3.68-68.68-2.47-103.47-6.16,6.84-17.42,6.56-21.41,15.72-4.47,10.27,1.24,26.13,3.31,36.34,4,19.53,5.79,39,7.16,58.9,1,14.55,3,29.68,2.4,44.28-0.48,12.47-9.35,13.24-15.77,22.5-1.12,1.61-11.56,20.93-10.33,23.47,4.53-1.59,7-8,8.72-12.2l1,0.35c-1.82,7.51.28,11.85,4.55,17.64,2.1,2.84-2.24,6,2.5,2.83,0.68-.46,11-31.78,17-25.62h0Z" transform="translate(3015.99 -1896.51)"/><path class="cls-24" d="M-2865.38,2104.51a56.07,56.07,0,0,0,1.89,19.69A197.61,197.61,0,0,0-2865.38,2104.51Z" transform="translate(3015.99 -1896.51)"/><path class="cls-24" d="M-2872.74,2261.42c-5.78,6.67-8.43,15.21-10.56,23.65C-2879.66,2277.15-2877.2,2268.94-2872.74,2261.42Z" transform="translate(3015.99 -1896.51)"/><path class="cls-24" d="M-2880.22,2262.11c-4.41,6.56-5.15,13.18-4.39,21C-2883.66,2275.58-2883,2269.21-2880.22,2262.11Z" transform="translate(3015.99 -1896.51)"/><path class="cls-24" d="M-2885.61,2261.1a10.74,10.74,0,0,0-2.62,6.16A10.68,10.68,0,0,0-2885.61,2261.1Z" transform="translate(3015.99 -1896.51)"/><path class="cls-24" d="M-2739.9,2056.4c2.62-3.68,16.12-21.57,18.46-14.85,1,2.87-4.57,5.81-5.63,7.52-2.18,3.54-3.05,2.68-3.21,7.59-0.22,6.73,2.37,10.75-3.29,16.18a14.7,14.7,0,0,0,5.27-12.59c-0.26-3.83-2.17-4.92-.65-8.7,0.92-2.29,5.59-3.49,6.94-6.1,3.54-6.82,1.16-7.27-4.33-4.59C-2732.9,2044.06-2736.41,2050.42-2739.9,2056.4Z" transform="translate(3015.99 -1896.51)"/><path class="cls-24" d="M-2715.37,2035.65c-0.48,3.63-1.53,24-6.2,8,0.12,2,2.81,9,5.9,6.64C-2713,2048.28-2715.18,2038.26-2715.37,2035.65Z" transform="translate(3015.99 -1896.51)"/><path class="cls-24" d="M-2709.85,2042.38c-2.44,6.19-6.13,15.23-12.51,18.09h0c-1-3.9,1-8.94,2.37-12.83C-2732,2071.36-2713.1,2056.06-2709.85,2042.38Z" transform="translate(3015.99 -1896.51)"/><path class="cls-24" d="M-2708.91,2054.1c-1.6,1.37-9,9.38-11.55,8-0.53-.24.46-2,0.5-2.29C-2723.46,2067.58-2710.35,2056.21-2708.91,2054.1Z" transform="translate(3015.99 -1896.51)"/><path class="cls-24" d="M-2777.24,2118.17a15.16,15.16,0,0,0-5.21,6.12A15.28,15.28,0,0,0-2777.24,2118.17Z" transform="translate(3015.99 -1896.51)"/><path class="cls-29" d="M-2724.86,2048.15a6.82,6.82,0,0,0,1.77-1.54c-0.58,5.45-6.62,58.13-7,58-2.41-.59,4.69-51.3,5.25-56.49C-2724.65,2048.05-2726.86,2066.78-2724.86,2048.15Z" transform="translate(3015.99 -1896.51)"/><path class="cls-30" d="M-2731.14,2104.68c-3.62-3.86,2.93-30.33,3.49-35.53,0.66-6.2-1.09-20.28,5.27-24l-3.47,32.39-2.15,20.12c-0.08.75-.27,10.28-3.13,7.05C-2731.33,2104.48-2730.8,2105.06-2731.14,2104.68Zm7.28-56.57c-4,4.17-4.72,56.14-5.94,56C-2727.8,2085.58-2725.05,2066.46-2723.86,2048.1Z" transform="translate(3015.99 -1896.51)"/><path class="cls-24" d="M-2860.06,2190.13c0.06-15.42-1.85-30.87-2.73-46.25,3,7.22,8.79,14.43,10.35,22.13,1.84,9.11-3.44,18.59-7.63,26.28v-2.15Zm-1.28-36.28c0,11.36,2.29,22.69,2.35,34.1,8.62-16.69,4.68-22.83-2.45-38.2Z" transform="translate(3015.99 -1896.51)"/><path class="cls-25" d="M-2809.31,2356.81c-7.28,8.73,4.3,36.07,6.81,44.56,1.74,5.9,10.46,29.93,21.22,19.33,5,5.73,13.09,14.15,1.08,15.19-9.12.79-17.48-5.45-21.35-13.25-5.76-11.62-6-26.08-10.07-38.35-3.68-11.15-10.77-19,2.31-27.47C-2813.35,2361.66-2820.09,2363.82-2809.31,2356.81Z" transform="translate(3015.99 -1896.51)"/><path class="cls-26" d="M-2803.36,2419.22c-3.9-13.57-5.74-28-11.2-41-4.87-11.66-3.13-16.89,7.94-23.78-10.15,9.63,1.24,35.29,4.52,46.38,1.12,3.78,12.63,32.58,20.59,18.81,5.45,6.14,14.76,15.84.89,16.84-10.54.76-20-7.57-22.75-17.23h0Zm18.07,3.82c-12.28,0-15.71-14.31-18.35-23.74-2.77-9.92-11.53-30.34-7.43-40.6-10.29,7.82-3.43,15.6-.2,25,4.41,12.81,4.3,28.83,11.24,40.59,3.45,5.84,15.2,15.08,22.78,10.79,4.2-2.38,3.62-2.61,1.63-7C-2778.56,2421.52-2780.54,2423-2785.29,2423Z" transform="translate(3015.99 -1896.51)"/><path class="cls-24" d="M-2841.57,2070.91a16.22,16.22,0,0,0,.9,11.15C-2840.9,2078.34-2841.11,2074.61-2841.57,2070.91Z" transform="translate(3015.99 -1896.51)"/><path class="cls-31" d="M-2696.38,2301c0.27-3-1.4-3-2-5.36-1.18-4.49-.85-8.44-1.22-13.09-0.77-9.8-3-14.36-10.78-19.56-1.56-1-5.57-4.22-7.29-4.87-4.15-1.55-7.45.23-11.51-.68-5.93-1.32-8-7.21-13.63-9.77-7.22-3.28-15.67-3-23.36-2.47-9.57.65-15.37-5-23.89-4.1-8.12.87-12.68,4.1-20.74-1.09-5.18-3.33-12.16-15.59-19.79-13.41,6.62,8.58-.8,19.55,5.85,27.57,2.82,3.4,7.69,3.85,8.56,8.71s-4.12,8.07-1.92,13.48c0.85,2.09,4.06,3.16,5,5.2s-0.19,4.05.35,6c1.19,4.23,1.89,5.45,4.41,9.37,4,6.28,8.1,19.95-2.26,23.61,10.21-10.2-.44-25.5-9.13-32.31-3.45-2.7-8.29-4.56-11-8.09-4.15-5.36-1.83-9.92-2.75-16-1.56-10.26-12.06-18.69-18.49-26.14-3-3.52-8.12-8.24-9.28-12.92-1.66-6.65,1.23-16.83,1.54-23.88,0.35-7.86,1.35-12,4.26-19.32,1.89-4.73,3.57-9.84,2.72-15-1.69-10.25-9.1-17.09-9.74-28.09-0.83-14.28.15-28.28,0.27-42.56,0-4.14-2.77-28.34,4.73-29.65,3.9,25.4,28.34,41.44,41.15,62,1-13.57-4.52-22-12.83-31.84-6.46-7.65-15.53-19.21-11.12-29.93,4.89,25.82,40.6,35.55,40.75,62.1,0.09,16.33-4.54,31.64,1.34,47.74,4.4,12,16.7,17.77,26.63,24.9a388.06,388.06,0,0,1,42.09,35.07c5.27,5,11.27,12.46,18.76,14.31,5.6,1.38,9.07-.58,14.06,3.93,2.44,2.21,5.05,5.13,5.3,8.57,0.27,3.66-3.86,6.16-3.76,9.12,0.18,5.4,7.72,7.4,8.29,13.47,0.67,7.09-9.38,12.35-9.47,15C-2695.83,2294.81-2696.39,2301.26-2696.38,2301Z" transform="translate(3015.99 -1896.51)"/><path class="cls-32" d="M-2810.67,2321.06c4.48-.49,2.82-15.76,1.71-18.54-3.13-7.85-9.34-12.26-15.85-17.07-12.76-9.44-6.86-22-16.27-34-5.68-7.27-14.58-14-18.73-22.38-2.76-5.58-1.88-8.66-1.35-15.23,0.69-8.46-.31-18.22,2.3-26.18,2.23-6.81,6.67-12.7,5.6-20.27-0.63-4.44-3.3-8-5.33-11.9-4.43-8.48-4.48-14.09-4.93-23.76-0.8-17.14-.87-36.27.8-53.36,0.24-2.49,1-13,5.25-12.21,0.13,0,5,13.74,5.51,14.75,9.06,17.47,24.54,29.66,35.09,46,0.58-13.81-6.22-21.67-14.43-31.64-1.2-1.46-16.66-29.47-9-29-0.85-.09,14.26,23.93,16.16,26,9.5,10.44,23.76,18.65,25.22,34.07,1.09,11.49-2.83,23.32-1.84,35,1.41,16.68,7.34,24,20.43,33.34,14.11,10,28.11,20.07,40.86,31.81,7.81,7.19,17.34,20.52,28,23.62,5.9,1.72,9.49-.46,14.7,4,7.9,6.72,4.37,8.91,3.29,16.62-1,7,6.68,8.17,7.2,15.69,0.19,2.79-6.2,16.57-10.16,15.78-0.39-.06-3.32-9.47-3.62-10.81-1.93-8.69,1.42-18.13-5.83-25.26-4.79-4.71-12.92-8-19.2-8.55-9.88-.88-8-3.82-15.84-8.5-7.09-4.25-17.3-4-25.14-3.36-3.22.25-6.55,1.33-9.79,0.39-3.84-1.11-6.36-5.16-10.38-5.48-9.52-.75-15,6.25-25.09-0.34-5.4-3.54-10.81-14.05-18.31-13.33,5.88,8.48-1,19,5.23,26.76,3.41,4.23,8.33,4.26,8.84,10.3,0.22,2.65-2.53,4.91-2.5,7.53,0.05,4.18,1.39,3.31,2.89,7.16,0.75,1.91,2.48,2.86,3.17,5.12,0.58,1.91-.87,4.24-0.28,6.18,1.49,4.88,6.18,7.85,7.8,12.84C-2802.33,2309.58-2804.11,2317.57-2810.67,2321.06Zm-3.11-84.3c6.83,7.06,13.09,5.82,21.86,4.42,9.41-1.5,9.08,2.4,17.71,4.07,7.05,1.36,15-1.49,22.39-.34,8.4,1.3,11.06,4.8,17.29,8.85,5.36,3.49,9.51.77,15.24,2.92a53.9,53.9,0,0,1,13.48,8.14c5.06,4.49,6.29,11.57,6.75,18,0.28,3.9-.73,8.09.81,11.82,0.83,2,2.44,2.89,2.46,5.33,4.4-4.72,10.22-9,7.71-16.33-1-3-4.76-4.39-5.94-7-1.69-3.77-.71-2.7-0.43-6.41,0.37-4.9,3.34-3.43,2-8.88-0.64-2.54-4.29-6.13-6.4-7.48-4.56-2.9-8.06-1.32-12.93-2.61-10.15-2.67-19.24-15.36-26.62-22.21-13.32-12.36-27.84-22.93-42.63-33.44-12.73-9-18.76-15.72-20.58-32-1.38-12.41,2.65-24.62,1.6-36.79-2.1-24.29-34.14-34.24-40.42-57.89-2.8,12.09,7.72,22.59,14.66,31,2.16,2.61,16.88,27.74,9.51,29.3-1,.26-23.26-27.89-25.41-30.58-7.08-8.88-14.36-19.77-16.29-31.21-7.28,4.49-3.7,26.83-3.82,33.68-0.23,12.24-1,24.18-.3,36.43,0.62,11,6.88,17.43,9.44,27.49,2.9,11.42-6.11,21.07-6.44,32.05-0.34,11.35-4.38,23.2,1.4,33.13,6.46,11.11,21.55,19.18,24.43,32.27,2.42,11-.83,14.81,9.06,22.14,9.73,7.2,23.12,18.79,16.55,32.62,8.48-10.34-3.13-20.53-5.65-30-0.5-1.87.46-3.6-.4-5.5-1.27-2.8-4.56-3.44-5.33-6.72-1.56-6.66,4.47-9.8,0-16-3.85-5.31-8.25-5-9.3-12.44-0.58-4.16,1.3-8.39.37-12.68-1-4.65-5.62-7.09-.3-7.85,4.74-.68,12.06,8.19,14.52,10.74h0Z" transform="translate(3015.99 -1896.51)"/><path class="cls-33" d="M-2853.52,2176.48c-5.68,17.84-3.19,49.94,22.91,50.13C-2855.65,2223.88-2857.81,2195.17-2853.52,2176.48Z" transform="translate(3015.99 -1896.51)"/><path class="cls-34" d="M-2828.94,2119.75a0.9,0.9,0,0,0,1.25-.81,0.88,0.88,0,0,0-1.25.81C-2828.81,2119.93-2829.05,2119.55-2828.94,2119.75Z" transform="translate(3015.99 -1896.51)"/><path class="cls-34" d="M-2830.55,2113.95a0.88,0.88,0,0,0,1.25-.8,0.88,0.88,0,0,0-1.25.8h0Z" transform="translate(3015.99 -1896.51)"/><path class="cls-34" d="M-2841,2117a0.88,0.88,0,0,0,1.25-.8,0.88,0.88,0,0,0-1.25.8C-2840.86,2117.17-2841.1,2116.8-2841,2117Z" transform="translate(3015.99 -1896.51)"/><path class="cls-34" d="M-2843.81,2125.61a0.89,0.89,0,0,0,1.25-.8,0.88,0.88,0,0,0-1.25.8h0Z" transform="translate(3015.99 -1896.51)"/><path class="cls-34" d="M-2847.94,2109c0.69,1.1-.71-1.09,0,0h0Z" transform="translate(3015.99 -1896.51)"/><path class="cls-34" d="M-2848.07,2098.86a0.88,0.88,0,0,0,1.25-.8,0.88,0.88,0,0,0-1.25.8h0Z" transform="translate(3015.99 -1896.51)"/><path class="cls-34" d="M-2855.49,2103.71a0.88,0.88,0,0,0,1.24-.8,0.87,0.87,0,0,0-1.24.8h0Z" transform="translate(3015.99 -1896.51)"/><path class="cls-34" d="M-2850.5,2095.49a0.89,0.89,0,0,0,1.24-.81,0.88,0.88,0,0,0-1.24.81h0Z" transform="translate(3015.99 -1896.51)"/><path class="cls-34" d="M-2859.53,2085.65a0.88,0.88,0,0,0,1.24-.81,0.88,0.88,0,0,0-1.24.81h0Z" transform="translate(3015.99 -1896.51)"/><path class="cls-34" d="M-2853.73,2085.65a0.88,0.88,0,0,0,1.24-.81,0.88,0.88,0,0,0-1.24.81h0Z" transform="translate(3015.99 -1896.51)"/><path class="cls-34" d="M-2854.81,2090c0.89,1.3-.85-1.31,0,0h0Z" transform="translate(3015.99 -1896.51)"/><path class="cls-34" d="M-2860.25,2091.25a0.89,0.89,0,0,0,1.24-.81,0.88,0.88,0,0,0-1.24.81h0Z" transform="translate(3015.99 -1896.51)"/><path class="cls-34" d="M-2856.83,2093.73a0.89,0.89,0,0,0,1.25-.8,0.9,0.9,0,0,0-1.25.8h0Z" transform="translate(3015.99 -1896.51)"/><path class="cls-34" d="M-2853.46,2097.24c0.69,1.08-.72-1.08,0,0h0Z" transform="translate(3015.99 -1896.51)"/><path class="cls-34" d="M-2858,2099.12c0.58,1-.62-0.92,0,0C-2857.93,2099.32-2858.17,2098.94-2858,2099.12Z" transform="translate(3015.99 -1896.51)"/><path class="cls-34" d="M-2860.34,2106.53a0.88,0.88,0,0,0,1.24-.8,0.88,0.88,0,0,0-1.24.8C-2860.22,2106.73-2860.46,2106.35-2860.34,2106.53Z" transform="translate(3015.99 -1896.51)"/><path class="cls-34" d="M-2833.52,2111.25c0.7,1.14-.72-1.12,0,0h0Z" transform="translate(3015.99 -1896.51)"/><path class="cls-34" d="M-2843.9,2103.85a0.88,0.88,0,0,0,1.25-.81,0.88,0.88,0,0,0-1.25.81C-2843.78,2104-2844,2103.65-2843.9,2103.85Z" transform="translate(3015.99 -1896.51)"/><path class="cls-34" d="M-2837.11,2116.77c0.65,1-.68-1,0,0C-2837,2117-2837.23,2116.59-2837.11,2116.77Z" transform="translate(3015.99 -1896.51)"/><path class="cls-34" d="M-2844,2113.42a0.9,0.9,0,0,0,1.25-.81,0.89,0.89,0,0,0-1.25.81C-2843.91,2113.6-2844.15,2113.22-2844,2113.42Z" transform="translate(3015.99 -1896.51)"/><path class="cls-34" d="M-2841.2,2110.44c0.66,1.05-.69-1,0,0C-2841.08,2110.63-2841.32,2110.26-2841.2,2110.44Z" transform="translate(3015.99 -1896.51)"/><path class="cls-34" d="M-2837.83,2107.75a0.89,0.89,0,0,0,1.25-.8,0.88,0.88,0,0,0-1.25.8h0Z" transform="translate(3015.99 -1896.51)"/><path class="cls-34" d="M-2822.2,2098.45a0.88,0.88,0,0,0,1.25-.8,0.89,0.89,0,0,0-1.25.8h0Z" transform="translate(3015.99 -1896.51)"/><path class="cls-34" d="M-2827.24,2095.56a0.88,0.88,0,0,0,1.25-.81,0.88,0.88,0,0,0-1.25.81C-2827.11,2095.74-2827.35,2095.36-2827.24,2095.56Z" transform="translate(3015.99 -1896.51)"/><path class="cls-34" d="M-2831,2091.42h0Z" transform="translate(3015.99 -1896.51)"/><path class="cls-34" d="M-2834,2086.28a0.88,0.88,0,0,0,1.24-.8,0.87,0.87,0,0,0-1.24.8C-2833.88,2086.46-2834.13,2086.09-2834,2086.28Z" transform="translate(3015.99 -1896.51)"/><path class="cls-34" d="M-2821.11,2102.23c0.63,1-.69-1.07,0,0C-2821,2102.41-2821.24,2102-2821.11,2102.23Z" transform="translate(3015.99 -1896.51)"/><path class="cls-34" d="M-2816.8,2104.12c0.57,0.95-.65-1,0,0C-2816.69,2104.3-2816.93,2103.93-2816.8,2104.12Z" transform="translate(3015.99 -1896.51)"/><path class="cls-34" d="M-2818.55,2108.16c0.59,1-.65-1,0,0C-2818.44,2108.34-2818.68,2108-2818.55,2108.16Z" transform="translate(3015.99 -1896.51)"/><path class="cls-34" d="M-2814.38,2106.81a0.89,0.89,0,0,0,1.25-.8,0.89,0.89,0,0,0-1.25.8h0Z" transform="translate(3015.99 -1896.51)"/><path class="cls-34" d="M-2811.82,2109.91a0.89,0.89,0,0,0,1.25-.81,0.89,0.89,0,0,0-1.25.81C-2811.7,2110.1-2811.94,2109.71-2811.82,2109.91Z" transform="translate(3015.99 -1896.51)"/><path class="cls-34" d="M-2815.46,2113.68a0.88,0.88,0,0,0,1.24-.81,0.89,0.89,0,0,0-1.24.81C-2815.34,2113.87-2815.58,2113.49-2815.46,2113.68Z" transform="translate(3015.99 -1896.51)"/><path class="cls-34" d="M-2809.13,2115.16a0.87,0.87,0,0,0,1.24-.8,0.87,0.87,0,0,0-1.24.8h0Z" transform="translate(3015.99 -1896.51)"/><path class="cls-34" d="M-2804.68,2118.54a0.9,0.9,0,0,0,1.25-.81,0.89,0.89,0,0,0-1.25.81C-2804.56,2118.73-2804.8,2118.34-2804.68,2118.54Z" transform="translate(3015.99 -1896.51)"/><path class="cls-34" d="M-2809.79,2119.35c0.82,1.24-.82-1.27,0,0h0Z" transform="translate(3015.99 -1896.51)"/><path class="cls-34" d="M-2805.62,2122.17a0.88,0.88,0,0,0,1.24-.8,0.88,0.88,0,0,0-1.24.8h0Z" transform="translate(3015.99 -1896.51)"/><path class="cls-34" d="M-2805.48,2127.56a0.88,0.88,0,0,0,1.24-.8,0.87,0.87,0,0,0-1.24.8C-2805.37,2127.74-2805.61,2127.38-2805.48,2127.56Z" transform="translate(3015.99 -1896.51)"/><path class="cls-34" d="M-2812.89,2123.79a0.87,0.87,0,0,0,1.24-.8,0.87,0.87,0,0,0-1.24.8C-2812.78,2124-2813,2123.6-2812.89,2123.79Z" transform="translate(3015.99 -1896.51)"/><path class="cls-34" d="M-2814.25,2116.78a0.88,0.88,0,0,0,1.24-.8,0.87,0.87,0,0,0-1.24.8h0Z" transform="translate(3015.99 -1896.51)"/><path class="cls-34" d="M-2808.58,2111.92c0.65,1-.67-1,0,0C-2808.46,2112.12-2808.71,2111.74-2808.58,2111.92Z" transform="translate(3015.99 -1896.51)"/><path class="cls-34" d="M-2852.57,2108.42c0.65,1-.67-1,0,0C-2852.45,2108.61-2852.7,2108.24-2852.57,2108.42Z" transform="translate(3015.99 -1896.51)"/><path class="cls-34" d="M-2856.83,2110.72a0.9,0.9,0,0,0,1.25-.8,0.88,0.88,0,0,0-1.25.8h0Z" transform="translate(3015.99 -1896.51)"/><path class="cls-34" d="M-2851.44,2114.48c0.65,1-.65-0.92,0,0C-2851.32,2114.68-2851.57,2114.31-2851.44,2114.48Z" transform="translate(3015.99 -1896.51)"/><path class="cls-34" d="M-2857.51,2115.57a0.88,0.88,0,0,0,1.24-.81,0.89,0.89,0,0,0-1.24.81h0Z" transform="translate(3015.99 -1896.51)"/><path class="cls-34" d="M-2847.8,2119.48a0.88,0.88,0,0,0,1.24-.81,0.88,0.88,0,0,0-1.24.81h0Z" transform="translate(3015.99 -1896.51)"/><path class="cls-34" d="M-2861.37,2119.67a0.88,0.88,0,0,0,1.25-.8,0.89,0.89,0,0,0-1.25.8h0Z" transform="translate(3015.99 -1896.51)"/><path class="cls-34" d="M-2856.78,2120.89c0.64,1-.68-1,0,0C-2856.66,2121.08-2856.9,2120.7-2856.78,2120.89Z" transform="translate(3015.99 -1896.51)"/><path class="cls-34" d="M-2852.74,2124.12a0.89,0.89,0,0,0,1.25-.81,0.89,0.89,0,0,0-1.25.81h0Z" transform="translate(3015.99 -1896.51)"/><path class="cls-34" d="M-2850.1,2137.13a0.89,0.89,0,0,0,1.25-.81,0.89,0.89,0,0,0-1.25.81h0Z" transform="translate(3015.99 -1896.51)"/><path class="cls-34" d="M-2859.61,2126.95a0.88,0.88,0,0,0,1.24-.8,0.88,0.88,0,0,0-1.24.8C-2859.49,2127.14-2859.73,2126.77-2859.61,2126.95Z" transform="translate(3015.99 -1896.51)"/><path class="cls-34" d="M-2854.49,2129.51a0.89,0.89,0,0,0,1.25-.79,0.88,0.88,0,0,0-1.25.79C-2854.37,2129.7-2854.62,2129.33-2854.49,2129.51Z" transform="translate(3015.99 -1896.51)"/><path class="cls-34" d="M-2695.48,2294.27a0.88,0.88,0,0,0,1.24-.8,0.87,0.87,0,0,0-1.24.8h0Z" transform="translate(3015.99 -1896.51)"/><path class="cls-34" d="M-2703.27,2262.41c0.52,0.87-.56-0.8,0,0C-2703.15,2262.61-2703.39,2262.23-2703.27,2262.41Z" transform="translate(3015.99 -1896.51)"/><path class="cls-34" d="M-2700.85,2265.74c0.59,1-.64-1,0,0C-2700.74,2265.92-2701,2265.55-2700.85,2265.74Z" transform="translate(3015.99 -1896.51)"/><path class="cls-34" d="M-2707.81,2257.71c0.72,1.15-.73-1.12,0,0h0Z" transform="translate(3015.99 -1896.51)"/><path class="cls-34" d="M-2715.37,2252.46c0.88,1.26-.81-1.18,0,0h0Z" transform="translate(3015.99 -1896.51)"/><path class="cls-34" d="M-2695.25,2261.85a0.89,0.89,0,0,0,1.25-.81,0.89,0.89,0,0,0-1.25.81C-2695.13,2262-2695.37,2261.65-2695.25,2261.85Z" transform="translate(3015.99 -1896.51)"/><path class="cls-34" d="M-2703.77,2252.6a0.88,0.88,0,0,0,1.25-.8,0.89,0.89,0,0,0-1.25.8h0Z" transform="translate(3015.99 -1896.51)"/><path class="cls-34" d="M-2697,2265.54h0Z" transform="translate(3015.99 -1896.51)"/><path class="cls-34" d="M-2695,2283.16c0.76,1.15-.76-1.13,0,0h0Z" transform="translate(3015.99 -1896.51)"/><path class="cls-34" d="M-2701.08,2259.21a0.89,0.89,0,0,0,1.24-.81,0.88,0.88,0,0,0-1.24.81C-2701,2259.38-2701.2,2259-2701.08,2259.21Z" transform="translate(3015.99 -1896.51)"/><path class="cls-34" d="M-2697.71,2256.51a0.89,0.89,0,0,0,1.25-.81,0.89,0.89,0,0,0-1.25.81C-2697.58,2256.68-2697.83,2256.32-2697.71,2256.51Z" transform="translate(3015.99 -1896.51)"/><path class="cls-34" d="M-2712.45,2257.18c0.92,1.37-.87-1.39,0,0C-2712.33,2257.37-2712.57,2257-2712.45,2257.18Z" transform="translate(3015.99 -1896.51)"/><path class="cls-34" d="M-2700.17,2269.64a0.9,0.9,0,0,0,1.25-.81,0.88,0.88,0,0,0-1.25.81h0Z" transform="translate(3015.99 -1896.51)"/><path class="cls-34" d="M-2691.82,2289a0.87,0.87,0,0,0,1.24-.8,0.88,0.88,0,0,0-1.24.8C-2691.7,2289.19-2691.94,2288.81-2691.82,2289Z" transform="translate(3015.99 -1896.51)"/><path class="cls-34" d="M-2695.95,2288.66a0.89,0.89,0,0,0,1.25-.81,0.9,0.9,0,0,0-1.25.81C-2695.82,2288.85-2696.06,2288.47-2695.95,2288.66Z" transform="translate(3015.99 -1896.51)"/><path class="cls-34" d="M-2831.14,2273.25c0.91,1.35-.87-1.39,0,0C-2831,2273.43-2831.26,2273.05-2831.14,2273.25Z" transform="translate(3015.99 -1896.51)"/><path class="cls-34" d="M-2823.76,2283.72a0.88,0.88,0,0,0,1.24-.8,0.87,0.87,0,0,0-1.24.8C-2823.65,2283.91-2823.89,2283.53-2823.76,2283.72Z" transform="translate(3015.99 -1896.51)"/><path class="cls-34" d="M-2825,2279.81a0.89,0.89,0,0,0,1.25-.81,0.88,0.88,0,0,0-1.25.81C-2824.91,2280-2825.15,2279.62-2825,2279.81Z" transform="translate(3015.99 -1896.51)"/><path class="cls-34" d="M-2819.27,2282c0.84,1.25-.8-1.22,0,0h0Z" transform="translate(3015.99 -1896.51)"/><path class="cls-34" d="M-2832.18,2269.27a0.88,0.88,0,0,0,1.24-.81,0.88,0.88,0,0,0-1.24.81C-2832.06,2269.45-2832.3,2269.07-2832.18,2269.27Z" transform="translate(3015.99 -1896.51)"/><path class="cls-34" d="M-2820,2264.58a0.88,0.88,0,0,0,1.24-.81,0.89,0.89,0,0,0-1.24.81C-2819.87,2264.77-2820.11,2264.4-2820,2264.58Z" transform="translate(3015.99 -1896.51)"/><path class="cls-34" d="M-2816.72,2286.84c0.51,0.88-.59-0.87,0,0C-2816.6,2287-2816.84,2286.65-2816.72,2286.84Z" transform="translate(3015.99 -1896.51)"/><path class="cls-34" d="M-2828.14,2264.15a0.88,0.88,0,0,0,1.24-.81,0.89,0.89,0,0,0-1.24.81h0Z" transform="translate(3015.99 -1896.51)"/><path class="cls-34" d="M-2822.56,2276.06a0.89,0.89,0,0,0,1.24-.8,0.87,0.87,0,0,0-1.24.8h0Z" transform="translate(3015.99 -1896.51)"/><path class="cls-34" d="M-2825.57,2272.93a0.87,0.87,0,0,0,1.24-.8,0.88,0.88,0,0,0-1.24.8C-2825.45,2273.13-2825.69,2272.75-2825.57,2272.93Z" transform="translate(3015.99 -1896.51)"/><path class="cls-34" d="M-2822.07,2268.05a0.88,0.88,0,0,0,1.25-.8,0.89,0.89,0,0,0-1.25.8h0Z" transform="translate(3015.99 -1896.51)"/><path class="cls-34" d="M-2829.7,2278.14c0.54,0.93-.61-0.93,0,0C-2829.58,2278.34-2829.82,2278-2829.7,2278.14Z" transform="translate(3015.99 -1896.51)"/><path class="cls-34" d="M-2820.71,2285.52a0.89,0.89,0,0,0,1.25-.81,0.88,0.88,0,0,0-1.25.81C-2820.6,2285.7-2820.84,2285.33-2820.71,2285.52Z" transform="translate(3015.99 -1896.51)"/><g class="cls-35"><path class="cls-31" d="M-2799.16,2189.15c1.91-15.35-9-29.6-3.69-45.81-3.79,1.3-7.61-.29-11,0.53-5.27,1.26-9.37,5.84-15.35,6.72a33,33,0,0,1-17.07-2c7.46,2.37,18.76,1.59,25.73-1.86,1.51-.75,3.12-2.39,4.63-2.92,2.34-.81,4.26-0.29,6.75-1.17,4.71-1.66,7.53-3.82,9.19-8.87-1.52,16.31-5.25,39,7,52.21,13.51,14.61,34.12,23.94,49.09,37.29q-25.64-17.84-52.72-33.36c0.77-2.08-2.4,6.41-2.82,5.23a20.81,20.81,0,0,1,.3-5.94C-2798.08,2180.53-2800.23,2197.78-2799.16,2189.15Z" transform="translate(3015.99 -1896.51)"/></g><path class="cls-36" d="M-2858.1,2155.19c3.16,5.79,6.07,10.55,5.32,17.41-0.72,6.56-5.24,11.42-6.73,17.53-1.26,5.15-.3,12.15-0.63,17.42-0.34,5.42-2.49,13.09-.91,18.16,1.3,4.17,5.67,8.38,8.37,11.56,6.29,7.39,16.3,15.4,18.87,25.17-0.09-16.67-28.14-26.22-24.25-42.58,1.64-6.9,3.12-.88,6.27,2.11,6.23,5.91,15.87,4.88,19.59,13.45,4.05,9.31-2.6,16.39,5.1,24.64,1.92,2.05,4.95,2.44,5.69,5.51,0.83,3.44-3.08,6.42-2.18,10.19,1,4,5.49,5.23,7,9.05,2.33,5.78,1.52,6.59,5.27,12.07,4.63,6.79,7.21,17.08.65,23.64,9.68-3.42,6.79-16.73,2.9-22.86-2.29-3.6-4.16-4.91-5.1-9.16-0.41-1.85.7-3.72,0-5.61-1-2.75-4.18-3.84-5.26-6.51-2.06-5.08,2.49-7.84,2-12.43-0.54-5.07-3.94-5.26-7.11-8.59-8.2-8.62-.2-19.45-7.37-28.75,7.63-2.18,14.61,10.08,19.79,13.41,8,5.14,12.67,1.67,20.74,1.09,8.63-.62,14.26,4.75,23.89,4.1,8-.54,17.38-0.88,24.67,3.08,2.92,1.59,4.32,4.52,6.83,6.19,4.24,2.8,4.1,1.88,9.46,2.59a33.25,33.25,0,0,1,16.15,6.46c8.51,6,8.86,13.5,9.45,23.45,0.34,5.64,3,9.5,3.23,14.71,3.42-7.75,13-9.74,7.7-20.09-1.33-2.58-6.44-4.75-6.76-7.6-0.4-3.48,4.17-6,4.17-9.71-1.12,1.78-6.19,6.38-6.07,8.79,0.18,3.57,3.85,4.84,5.36,8,2.3,4.76,2.35,8.94-2.27,12.4-5.69-6.26-2.42-16-5.14-23.31-2.62-7-8.67-8.93-14.77-12-2.91-1.46-4.26-3.08-7.74-4.06-4.42-1.25-6.15,0-10.2-2.58-8.52-5.53-10.78-9-22.06-9.52-7.33-.31-15.36,1.26-22.54-0.76-4.11-1.16-6.57-4.51-11.18-4.34-3.36.13-6.24,2.61-9.52,3-12.81,1.63-23.5-14.65-34.88-18.9-14.43-5.39-20.2-17.19-19.26-32.25s9.23-23.37,1-37.37c-6-10.26-13.15-36.39,4.86-40.49,11.55-2.63,24.37,13.23,30.45,21.08,1.48-10.13,1.1-21.46-5.43-29.84-0.9-1.15-15.49-14.46-12.75-16.23,0.08-.05,13.75,12.11,15.17,13.07-8.64-7.93-19.84-20.15-22.12-32.19-4.4,10.71,4.66,22.29,11.12,29.93,8.35,9.88,13.82,18.2,12.83,31.84-12.82-20.56-37.24-36.57-41.15-62-8.45,1.47-4.7,32.75-4.84,37.72-0.46,16.46-3.81,36,4.3,50.86C-2853.27,2164-2859.69,2152.27-2858.1,2155.19Zm-0.9-61.81c0-1.08-.24-18.4,1.16-17.87,2.56,1,4.77,10.24,5.94,12.55,2,4,6.68,8.72,7.8,12.94,1.91,7.2-.65,2.16-7.45,6.69-5.39,3.6-4.82,8.5-7.07.25C-2859.81,2103.54-2859.13,2097.93-2859,2093.38Z" transform="translate(3015.99 -1896.51)"/><g class="cls-27"><path class="cls-28" d="M-2865.38,2245.58c-5.56-1.91-13.18-.09-17.47,4,11.05-9.1,11.34-13.79,10.65-28.09,1.38,3.38-.91,22.2,5.88,16.94,5-3.89,3.69-21.91,4-27.32,0.75-13.54,1.66-27.65-.46-41.13-0.36-2.27-.54-7.72-2.47-9.48-1.57-1.43-7.3-.91-7.79-2-0.11-.26,7.27-1,8-1.8,1.25-1.32.83-5.18,0.93-6.71,0.72-10.29-.93-20.77-2.6-30.86-1.3-7.85,1.95-35.94-9.89-34.25,5.13-2.67,11.15-4.26,14.57-9.24-1.81,29.61-1.87,60,1.15,89.56a254.39,254.39,0,0,1,.77,42c-0.64,10.3-2.93,20.93-2.4,31.25,0.38,7.53,3.57,14.23,3.55,21.88-1-5.21,0-12.46-6.41-14.67h0Z" transform="translate(3015.99 -1896.51)"/><path class="cls-28" d="M-2877.05,2277.29c1.55-3.69,5.31-18.72,12.28-17.77,6.82,0.93-2.09,17.86,9,16.54,0,1.55-3.84,1.37-4.3.47a35.66,35.66,0,0,1-3.39-8.93c-1.46-5.07.81-7.51-5.28-3-2.55,1.91-12.34,26.66-14.36,24.73,3.72-1.49,4.78-9,6.1-12.1h0Z" transform="translate(3015.99 -1896.51)"/></g><g class="cls-27"><path class="cls-28" d="M-2872.57,2260.82c-5.45,7.49-8.37,16.73-11.1,25.49C-2882.91,2277.84-2880.5,2266.56-2872.57,2260.82Z" transform="translate(3015.99 -1896.51)"/><path class="cls-28" d="M-2885.64,2272.56c0.2-4.58,2.94-7.89,5.79-11.16-3.73,8.24-3.16,13.16-4.85,21.83-2-2.57-1.07-7.58-.94-10.67C-2885.41,2267.28-2885.79,2276.28-2885.64,2272.56Z" transform="translate(3015.99 -1896.51)"/><path class="cls-28" d="M-2894.36,2275.71c3-4.55,4.65-10.13,7.82-14.48-0.48.67-2.1,7.56-1.93,7,0.75-3.88-1.71,3-2.44,4.18-0.88,1.42-4,7.94-6.64,6.67-0.7-.34,3-3.12,3.2-3.36C-2891.65,2271.54-2895.62,2277.66-2894.36,2275.71Z" transform="translate(3015.99 -1896.51)"/></g><path class="cls-37" d="M-2807.08,2004.06a15.81,15.81,0,0,0-5.13,3.51C-2814.4,2009.9-2812.67,2003.32-2807.08,2004.06Z" transform="translate(3015.99 -1896.51)"/><path class="cls-38" d="M-2819.64,2098.94c9.18,8,20.3,20,18.69,33.24C-2797.77,2118.81-2809.44,2105.9-2819.64,2098.94Z" transform="translate(3015.99 -1896.51)"/><path class="cls-38" d="M-2816.95,2133.26c-5-9.3-14.94-21.26-26.68-20.59C-2832.14,2113.76-2823.35,2124.65-2816.95,2133.26Z" transform="translate(3015.99 -1896.51)"/><g class="cls-39"><path class="cls-31" d="M-2806.07,2147.1c-1.19,16.64,5.74,32.25,4.3,48.53C-2798.68,2180.24-2805.56,2162.84-2806.07,2147.1Z" transform="translate(3015.99 -1896.51)"/></g><g class="cls-39"><path class="cls-31" d="M-2795,2194.81c22,11.57,41.94,25.48,61.72,40.43C-2751.77,2218.92-2772.34,2204.65-2795,2194.81Z" transform="translate(3015.99 -1896.51)"/></g><path class="cls-38" d="M-2856.33,2080.29c2.21,6.29,5.5,11.56,8.41,17.45,2.48,5,6.06,5.63-2.41,7.64,8.9-1.1,6-2.68,3.28-8.22C-2849.88,2091.45-2853.32,2085.91-2856.33,2080.29Z" transform="translate(3015.99 -1896.51)"/><g class="cls-39"><path class="cls-31" d="M-2737.07,2242c-16.1-6.81-31.87,1-46.9-7.27C-2770.31,2244.19-2752.77,2237.17-2737.07,2242Z" transform="translate(3015.99 -1896.51)"/></g><g class="cls-39"><path class="cls-31" d="M-2721.89,2247.37c6.39,6.84,30.09,6.72,26.6,20.14C-2689.7,2253.63-2715.25,2252.8-2721.89,2247.37Z" transform="translate(3015.99 -1896.51)"/></g><path class="cls-24" d="M-2720.28,2264.8a26.93,26.93,0,0,0-11.14,6.3A64.32,64.32,0,0,0-2720.28,2264.8Z" transform="translate(3015.99 -1896.51)"/><path class="cls-24" d="M-2753,2292.39a24.32,24.32,0,0,0-13.75,5.12C-2762.17,2295.74-2757.52,2294.18-2753,2292.39Z" transform="translate(3015.99 -1896.51)"/><g class="cls-27"><path class="cls-28" d="M-2809.31,2356.81a54.62,54.62,0,0,0,16.44-16.71c11.16-7.17,28.81-13.91,41.62-21.36,8.2-4.77,16.76-11.35,16.09-21.82-0.32-5-6.21-10.29-6.16-14.2s9.86-11.38,12.58-13.51c-14.47-6.33-28.07-14.87-41.3-23.44,8.91-1,18.72-1.93,27.2,1.92,6.91,3.14,8.1,8.37,15.62,9.58s10.28,1.29,16.81,5.74c8.83,6,14.27,14.61,5.33,23.65,8.45-10.64-6.69-17.89-16.17-12.89-15.5,8.17-6.88,20.65-13.6,33.09-7.52,13.92-22.13,17.79-35.45,23.79-6.55,2.95-16.31,7-19.55,14-2.37,5.09-.65,10.85,6.39,7.09-6.16,6.16-7,12.79-6.19,21.16-1.37-5.63-5.3-11-10.3-6.12-4.2,4.06-.81,17,0,21.45,1.49,7.91,3.71,20.38,9.6,26.68,2.41,2.58,5.89,6.51,5.89.14,0.72,2.36,3.9,4.71,2.32,6.68-1.73,2.15-7.22.45-9.1-.47-5.91-2.88-8.19-10.3-10.14-16-3.53-10.35-5.85-21.39-8.18-32.07-1.07-4.89-3.48-11.9.19-16.31C-2798.53,2349.8-2813.35,2361.66-2809.31,2356.81Z" transform="translate(3015.99 -1896.51)"/></g><path class="cls-40" d="M-2855.77,2381.42c2.06-8.12,3-23.15,9.56-29.37,7.26-6.84,20.72-9.4,29.34-15.09,18.42-12.16,32.95-30.44,52.58-40.81-13.71-11.34-28.73-20.78-43.15-31.14-5.27-3.78-13.59-8-17.57-13.09-5.59-7.12.64-17.24-5.59-25.31,5-1.42,10.12,4.49,13.27,7.33,5.91,5.32,10.46,9.82,18.94,9.3,7.37-.45,9.74-3.66,16.85-1,5.58,2.09,11.37,4.21,15,8.63-5.34-2.12-19.27-7.69-23.93-1.18-6.41,8.95,12.87,24,18,28.46,8.62,7.43,14.8,10.77,25.74,11.61,17,1.31,12.85,16.77,1.56,25.11,6.17-5.49,14.28-18.82,1.64-21.41-11.68-2.39-27.54,11.27-35.8,17.5-12.62,9.52-24.77,19.76-38.07,28.34-3.92,2.52-11.43,5-13.13,9.74-2.77,7.81,4.4,4.68,5.89,7.57-6.58,3.41-9.31,11.89-11.82,18.38,2.45-6.67.15-7.06-2.86-12.44-1.6-2.86-.35-5.92-3.19-5.88-1.87,0-4.84,8.46-5.19,9.31-3.58,8.57-16.84,48.73-.54,50-1.14,9.69-9.17,2.46-10.67-2.78-2.78-9.67.79-22.42,3.15-31.73C-2849.66,2357.34-2862,2406.23-2855.77,2381.42Z" transform="translate(3015.99 -1896.51)"/><path class="cls-25" d="M-2785.5,2355.55c-5.88,1-10.55-3.35-13.48-8.08C-2809.58,2352.28-2787.05,2369.81-2785.5,2355.55Z" transform="translate(3015.99 -1896.51)"/><path class="cls-26" d="M-2788.25,2362c-6.76-.59-21.24-9.61-10.62-15.39,2.6,4.78,8.27,10.16,14.15,8.1A21.65,21.65,0,0,1-2788.25,2362Zm1-5.71c-5.05,0-9.24-4.08-11.8-8-4.42,2.43-1.84,5.1.95,8,1.76,1.8,7.16,5.79,9.64,4.68C-2787.57,2360.5-2785.45,2356.31-2787.29,2356.31Z" transform="translate(3015.99 -1896.51)"/><path class="cls-25" d="M-2828.45,2360.23c-5.27,14.55-16.81-12-5-14.92C-2835.59,2350.91-2834.74,2357.85-2828.45,2360.23Z" transform="translate(3015.99 -1896.51)"/><path class="cls-26" d="M-2831.68,2366.31c-3.94-1.37-5.83-5.68-6.84-9.34-2.28-8.28-.33-9.48,6.09-12.8-2.6,5.91-2.07,13.3,4.76,15.78C-2828.87,2362.11-2830.26,2365-2831.68,2366.31Zm-2.5-10.56c-1.25-2.84-1-6.43-.22-9.36-7.63,2.11-3,15.94,2.67,18.71,5.08-5.1-.5-4.94-2.45-9.36h0Z" transform="translate(3015.99 -1896.51)"/><g class="cls-41"><path class="cls-42" d="M-2808.36,2385.25c-2.68-11.83-15.11-19.22-.94-28.44-7.28,8.73,4.3,36.07,6.81,44.56,1.74,5.9,10.46,29.93,21.22,19.33q2.48,2.7,4.87,5.47c-2.64-2-16.95-3.82-18.17-2.42-6.71,7.64,13.7,11.84,16.71,12-26.87,3.93-26.5-32.77-30.49-50.46C-2810.26,2376.89-2806.48,2393.6-2808.36,2385.25Z" transform="translate(3015.99 -1896.51)"/></g><g class="cls-41"><path class="cls-42" d="M-2859.18,2382.51c2-8.2.23-14.66,0.83-22.44,0.81-10.49,7.6-8.53,15.63-10.36-10.49,4.86-12.29,27.58-14.27,36.84-0.64,3-6.14,45,8.55,32.26-0.06,3.47.78,6.89,0.67,10.35-0.53-1.81-1.72-4.77-2.8-5.83,0.47,0.46-13.66-7.37-11.26-7-8.48-1.34,2.3,15.56,6.84,17.93-24.14-10.44-8.44-34.7-4.18-51.76C-2856.48,2371.73-2861.87,2393.3-2859.18,2382.51Z" transform="translate(3015.99 -1896.51)"/></g><g class="cls-41"><path class="cls-42" d="M-2799,2347.47c2.93,4.73,7.59,9.09,13.48,8.08-3,5.16-10.48-5-12.26-2.77-3.18,4,8.6,7.75,10,7.93C-2789.33,2363.62-2810.26,2352.57-2799,2347.47Z" transform="translate(3015.99 -1896.51)"/></g><g class="cls-41"><path class="cls-42" d="M-2838.33,2347.83l4.85-2.52c-2.9,7.8,1.62,10.93,4.59,15.73-2.2-.85-8.47-9.72-7.66-10-5,1.89,3.33,13.47,4.38,14.46-6.11-3.29-6.9-11.54-6.16-17.65C-2833.48,2345.31-2839.82,2360.17-2838.33,2347.83Z" transform="translate(3015.99 -1896.51)"/></g><g class="cls-43"><g class="cls-43"><path class="cls-44" d="M-2743.54,1949.66c0,39.12,60.65,39.09,60.65,0S-2743.54,1910.53-2743.54,1949.66Z" transform="translate(3015.99 -1896.51)"/></g></g><path class="cls-29" d="M-2723.89,2039.05c0.86-8,9.87-83.69,9.77-83.72,0.54,0.13-4.15,81.06-9.77,83.72C-2720.93,2011.42-2723.37,2038.8-2723.89,2039.05Z" transform="translate(3015.99 -1896.51)"/><path class="cls-30" d="M-2715.48,1955.47c0.48-4.51,2.51,2.62,2.44,2.38,0.68,2.11-.68,6.36-0.92,8.63l-3.47,32.41c-0.64,5.93-.23,40.12-7.09,41.06Zm1.55,0.52c1.1,0.62-4.38,36-4.76,39.66l-4.56,42.57c3.36-1,4.36-35.85,4.78-39.82Z" transform="translate(3015.99 -1896.51)"/><path class="cls-45" d="M-2723.62,1962c9.15-3.46,9.27-3.43,17.27,2.13-0.46-9.76-.39-9.87,7.36-15.76-9.43-2.58-9.51-2.68-12.71-11.87-5.37,8.18-5.48,8.22-15.22,8.43C-2720.82,1952.51-2720.81,1952.64-2723.62,1962Z" transform="translate(3015.99 -1896.51)"/><path class="cls-46" d="M-2714.46,1958.78l-9.57,3.62c2.94-9.76,2.89-9.88-3.45-17.79,10.19-.22,10.28-0.3,15.85-8.78,3.36,9.62,3.47,9.69,13.24,12.37-8.1,6.17-8.14,6.29-7.66,16.42Zm5.78-12.83-3.1-8.9c-5.15,7.85-5.26,7.88-14.59,8.08,5.87,7.32,5.87,7.43,3.18,16.38,8.78-3.32,8.89-3.29,16.56,2-0.44-9.37-.37-9.47,7.06-15.12Z" transform="translate(3015.99 -1896.51)"/><path class="cls-47" d="M-2720.91,1959c7.1-2.68,7.33-2.69,13.63,1.68-0.36-7.59-.3-7.81,5.81-12.44-7.32-2-7.52-2.14-10-9.37-4.17,6.35-4.35,6.48-12,6.65C-2718.79,1951.47-2718.71,1951.69-2720.91,1959Z" transform="translate(3015.99 -1896.51)"/><g class="cls-39"><path class="cls-30" d="M-2711.56,1936.77c-2.72,11.79-1.36,17.33,5.2,27.32-1.87-4.6-4.21-9.08-6.53-13.46a105.14,105.14,0,0,0,1.32-13.85C-2711.82,1937.93-2711.59,1938-2711.56,1936.77Z" transform="translate(3015.99 -1896.51)"/><path class="cls-30" d="M-2699,1948.33c-12.59,1-16.85,3.5-24.34,13.43,3.66-3.26,7-6.91,10.37-10.51a114.38,114.38,0,0,0,14-2.92C-2701.42,1948.53-2701.35,1949-2699,1948.33Z" transform="translate(3015.99 -1896.51)"/><path class="cls-30" d="M-2713.35,1950.87a45.08,45.08,0,0,0-12.94-5.84A43.11,43.11,0,0,0-2713.35,1950.87Z" transform="translate(3015.99 -1896.51)"/></g><g class="cls-48"><path class="cls-49" d="M-2732.09,1922l1.21,1.61q2.43-1.61,0-3.23Z" transform="translate(3015.99 -1896.51)"/></g><g class="cls-50"><path class="cls-51" d="M-2734.65,1968.94l1.22,1.61q2.43-1.62,0-3.24Z" transform="translate(3015.99 -1896.51)"/></g><g class="cls-52"><path class="cls-53" d="M-2708.77,1976.62l1.22,1.62q2.42-1.62,0-3.24Z" transform="translate(3015.99 -1896.51)"/></g><g class="cls-54"><path class="cls-55" d="M-2691.27,1980.05q1,2.57,1.92,0Q-2690.3,1977.5-2691.27,1980.05Z" transform="translate(3015.99 -1896.51)"/></g><g class="cls-56"><path class="cls-57" d="M-2672.89,1998.68q1,2.57,1.92,0Q-2671.93,1996.12-2672.89,1998.68Z" transform="translate(3015.99 -1896.51)"/></g><g class="cls-58"><path class="cls-59" d="M-2689.11,1944.41q1,2.55,1.92,0Q-2688.15,1941.84-2689.11,1944.41Z" transform="translate(3015.99 -1896.51)"/></g><g class="cls-60"><path class="cls-61" d="M-2672.82,1941.48q1,2.57,1.92,0Q-2671.87,1938.9-2672.82,1941.48Z" transform="translate(3015.99 -1896.51)"/></g><g class="cls-62"><path class="cls-63" d="M-2705.15,1919.48q1,2.57,1.92,0Q-2704.19,1916.92-2705.15,1919.48Z" transform="translate(3015.99 -1896.51)"/></g><g class="cls-64"><path class="cls-65" d="M-2686.28,1912.33q1,2.57,1.92,0Q-2685.32,1909.75-2686.28,1912.33Z" transform="translate(3015.99 -1896.51)"/></g><g class="cls-66"><path class="cls-67" d="M-2676.85,1924.19q1,2.57,1.92,0Q-2675.88,1921.64-2676.85,1924.19Z" transform="translate(3015.99 -1896.51)"/></g><g class="cls-68"><path class="cls-69" d="M-2648.57,1962.69q1,2.54,1.92,0Q-2647.61,1960.13-2648.57,1962.69Z" transform="translate(3015.99 -1896.51)"/></g><g class="cls-70"><path class="cls-71" d="M-2654.21,1905.24q1,2.55,1.92,0Q-2653.24,1902.66-2654.21,1905.24Z" transform="translate(3015.99 -1896.51)"/></g><g class="cls-72"><path class="cls-73" d="M-2665.24,1973.16q0.79,2.07,1.57,0Q-2664.45,1971.07-2665.24,1973.16Z" transform="translate(3015.99 -1896.51)"/></g><g class="cls-74"><path class="cls-75" d="M-2670.07,1897.55q0.79,2.09,1.57,0Q-2669.28,1895.46-2670.07,1897.55Z" transform="translate(3015.99 -1896.51)"/></g><g class="cls-76"><path class="cls-77" d="M-2729.55,1902.39c0,4.91,3.39,0,3.29,0C-2726.17,1902.39-2729.55,1897.49-2729.55,1902.39Z" transform="translate(3015.99 -1896.51)"/></g><path class="cls-78" d="M-2904.45,1978.42c-33.43-17.37-44.69,46.85-11.75,46.09C-2917,2009.25-2909.83,1992.47-2904.45,1978.42Z" transform="translate(3015.99 -1896.51)"/><path class="cls-79" d="M-2904,1978.19c-19.22-10.47-34.76,9.46-32.18,28,1,7.49,6.19,17.26,14.86,18,9.39,0.74,5.48-5.52,7.06-13.83,2.09-11,6.34-21.56,10.36-32-4.34,11.23-8.89,23.95-11.64,36.77-1,4.55.15,7.54-5,8.41s-10.62-5.51-12.57-9.52c-9.27-19.13,7.37-47.39,29.14-35.82C-2936.79,1960.35-2903.65,1978.4-2904,1978.19Z" transform="translate(3015.99 -1896.51)"/><g class="cls-27"><path class="cls-78" d="M-2904.45,1978.42c-33.43-17.37-44.69,46.85-11.75,46.09C-2917,2009.25-2909.83,1992.47-2904.45,1978.42Zm-29.18,24c0.11-10.55,7.8-25.95,20.82-22.42-4.3,5.86-6.14,13.79-7.47,20.83a60.77,60.77,0,0,1,10.32-21.36c-7.58,12-10.44,27.39-10.68,41.46-8.91-1.53-13.08-10.06-13-18.5h0Z" transform="translate(3015.99 -1896.51)"/></g><path class="cls-80" d="M-2916.79,1980.73c-4.89,6.86-6.41,16-6.41,24.21a19.53,19.53,0,0,1-.47-13.77c0,3-2.33,6.73-2.69,9.84-0.2,1.71,1.22,9.05.48,10s-4.1-10.53-4.14-11.25C-2930.43,1990.8-2924.89,1984.08-2916.79,1980.73Z" transform="translate(3015.99 -1896.51)"/><path class="cls-23" d="M-2828.29,1988.39a31.31,31.31,0,0,0-5.69-12.27,30,30,0,0,1,3.55,12.09c-8-.68-18.55-1.45-25.8,2.68,0-5.79-2.76-11.82-5.34-16.92,0.86,3.77,2,8.17,1.9,12-0.18,7.7-1.31,6-8.26,9.36-8.08,3.89-16.14,9.11-17.32,17.9a72.26,72.26,0,0,0,3,30.74c1.24,3.66,4.21,6.9,2.92,10.75-3.43-4.7-12.81-26.86-17.51-27.21-15.38-1.15,1.48,29.76,6.83,19.61,8.63,26.8,55.78,30.16,73.33,12.73,12.09-12,7.6-28.09,7.15-43.07-0.17-5.81,1.17-11.57.56-17.34C-2810,1989.21-2819.31,1989.3-2828.29,1988.39Z" transform="translate(3015.99 -1896.51)"/><path class="cls-81" d="M-2801.62,2000.42c-0.35-4.4-5.43-6.8-9-8.15,0.61,1.41,3.65,20.94,9,8.15C-2801.92,1996.72-2803.17,2004.15-2801.62,2000.42Z" transform="translate(3015.99 -1896.51)"/><g class="cls-82"><g class="cls-27"><path class="cls-83" d="M-2808.53,2026.83c-0.62-3.56.25-8.14-2-11-4.94-6.33-6.14,1.07-9.35-.14-1-.36,3.22-8.61,5.89-8.11-6.82-7.18-11.45,15.11-11.91,18.4s-1.15,7.38-.06,10.73,5.53,0.93,3.9,5.07c2-1.87,4.75-4.78,7.32-5.69,3.06-1.08,5.7.92,6.85,0.68a60.44,60.44,0,0,0-.64-9.94C-2809.11,2023.53-2808.07,2030.06-2808.53,2026.83Z" transform="translate(3015.99 -1896.51)"/></g></g><path class="cls-23" d="M-2811.36,2052.36c-9.42,14.63-31.85,18.73-46.62,10.79-6.88-3.7-14.95-11.35-14.72-19.85,0.35-12.72,9.12-6.52,16.58-5.63,14.46,1.74,15.1-16.8,4.16-21.88-3.57-1.66-11.73,3-8.72-3.39,4.88-10.36,12.17,4,15.53,3.39,1.58-.29-4.85-12.84-4.51-15,1.06-6.48,7.29-6.92,13.1-7.46,10.39-1,26.46,1.07,27.34,14.37a42.7,42.7,0,0,0,.28-8.25c-0.77-7.94-3.95-8.39-11.53-9.93-11.07-2.25-6.49-4.29-13.5-13.45a30,30,0,0,1,3.55,12.09c-8-.68-18.55-1.45-25.8,2.68,0-5.79-2.76-11.82-5.34-16.92,0.86,3.77,2,8.17,1.9,12-0.18,7.7-1.31,6-8.26,9.36-8.08,3.89-16.14,9.11-17.32,17.9a72.26,72.26,0,0,0,3,30.74c1.24,3.66,4.21,6.9,2.92,10.75-3.43-4.7-12.81-26.86-17.51-27.21-15.38-1.15,1.48,29.76,6.83,19.61,9.55,29.64,65.65,31.11,78.61,5.19C-2813.39,2055.51-2811.39,2052.41-2811.36,2052.36Z" transform="translate(3015.99 -1896.51)"/><path class="cls-84" d="M-2826.77,2032.18c-1.61,5.75,9,8,2.28,11.22C-2816.77,2039.68-2828.36,2037.79-2826.77,2032.18Z" transform="translate(3015.99 -1896.51)"/><path class="cls-84" d="M-2862.56,2025.08c3.28-8.25,10.17-10.64,14.93-3C-2853.42,2012.38-2859.82,2018.25-2862.56,2025.08Z" transform="translate(3015.99 -1896.51)"/><path class="cls-84" d="M-2820.67,2020.43c2.45-6.89,7.84-8.21,11.15-1.69C-2813.71,2010.59-2818.7,2015.12-2820.67,2020.43Z" transform="translate(3015.99 -1896.51)"/><path class="cls-85" d="M-2857.14,2029.64c0.95,2.84,5.95,2.76,6.11,3.27,1.07,3.44-5.23,2.52-6.53,1.16C-2858.47,2033.13-2858.82,2027.83-2857.14,2029.64Z" transform="translate(3015.99 -1896.51)"/><path class="cls-85" d="M-2817.49,2027c0.88,2.47,5.66,3,5.73,3.27,1,3.33-4.82,2.7-6.13,1.16C-2818.65,2030.57-2819,2025.24-2817.49,2027Z" transform="translate(3015.99 -1896.51)"/><path class="cls-84" d="M-2898.56,2035.76c3-2.56,7.05,3.55,7.71,5.24C-2892.27,2037.29-2895.67,2033.37-2898.56,2035.76Z" transform="translate(3015.99 -1896.51)"/><path class="cls-84" d="M-2897.8,2039.82c0.66-1.15,3.69-3.09,5.12-2.09C-2895.65,2035.66-2897.47,2039.19-2897.8,2039.82Z" transform="translate(3015.99 -1896.51)"/><path class="cls-84" d="M-2889.73,2047.2l0.49-4.37C-2889.56,2041.62-2890.4,2048.59-2889.73,2047.2Z" transform="translate(3015.99 -1896.51)"/><path class="cls-81" d="M-2859.42,2023.72a4.24,4.24,0,0,1-4.77,0C-2861.52,2026.15-2860.62,2024-2859.42,2023.72Z" transform="translate(3015.99 -1896.51)"/><path class="cls-81" d="M-2859.23,2024.64c-1.91,1.08-3.88,2.23-6,.44C-2863.57,2027.94-2860.51,2027.83-2859.23,2024.64Z" transform="translate(3015.99 -1896.51)"/><path class="cls-4" d="M-2847.33,2028.92c1,7.87-10,9.47-13,3.29C-2865.8,2021.08-2850.32,2014.88-2847.33,2028.92Z" transform="translate(3015.99 -1896.51)"/><path class="cls-86" d="M-2859.8,2030.19c1.28,8.59,12.69,7.11,11.42-1.57-1.23-8.4-12.78-7.56-11.42,1.57h0Z" transform="translate(3015.99 -1896.51)"/><path class="cls-87" d="M-2857.13,2030.72c1,6.56,9.36,5.47,8.41-1.16-0.92-6.41-9.47-5.84-8.41,1.16C-2856.69,2033.69-2857.58,2027.76-2857.13,2030.72Z" transform="translate(3015.99 -1896.51)"/><path class="cls-4" d="M-2849.49,2026.37c2.33,5.51-4,1.21-3.82,1.16-0.09,0,1.45-6.71,3.82-1.16h0Z" transform="translate(3015.99 -1896.51)"/><path class="cls-81" d="M-2847.47,2033.23c-2.86,2.77-8.62,3.95-12,1.37C-2855.44,2037.61-2851,2037.53-2847.47,2033.23Z" transform="translate(3015.99 -1896.51)"/><path class="cls-81" d="M-2847.49,2027.9c-2.24-7.6-12.22-10.23-13.32-.23C-2861.77,2016.47-2848.53,2017.32-2847.49,2027.9Z" transform="translate(3015.99 -1896.51)"/><path class="cls-81" d="M-2810.86,2021.37a2.76,2.76,0,0,0,3.58-.47C-2808.9,2023.05-2810.39,2021.41-2810.86,2021.37Z" transform="translate(3015.99 -1896.51)"/><path class="cls-81" d="M-2810.93,2022.23c1.94-.14,2.38,2.55,4.59-0.23C-2807.78,2024.62-2809.48,2024.8-2810.93,2022.23Z" transform="translate(3015.99 -1896.51)"/><path class="cls-4" d="M-2809.87,2027.43c0.58,7.78-9,7.25-10.25.23C-2822.18,2016.48-2810.72,2016.25-2809.87,2027.43Z" transform="translate(3015.99 -1896.51)"/><path class="cls-86" d="M-2819.77,2027.26c0.19,7.87,9.32,7.7,9.13-.2-0.18-7.65-9.35-8.24-9.13.2C-2819.68,2030.86-2819.86,2023.67-2819.77,2027.26Z" transform="translate(3015.99 -1896.51)"/><path class="cls-87" d="M-2817.63,2027.9c0.16,6.12,6.57,6,6.43-.14s-6.59-6-6.43.14C-2817.56,2030.67-2817.7,2025.16-2817.63,2027.9Z" transform="translate(3015.99 -1896.51)"/><path class="cls-4" d="M-2811.37,2025a2.11,2.11,0,0,1-.92,2.7c-2,.44-3.2-4.31-1.14-4.75a2.21,2.21,0,0,1,2.06,2h0Z" transform="translate(3015.99 -1896.51)"/><path class="cls-81" d="M-2810.37,2031.37c-2.45,2.19-6.82,2.72-9.16,0C-2816.83,2034.43-2813.41,2034.9-2810.37,2031.37Z" transform="translate(3015.99 -1896.51)"/><path class="cls-81" d="M-2809.89,2026.49c-0.84-7-8.31-10.55-10-1.65C-2819.63,2014.78-2809.74,2016.93-2809.89,2026.49Z" transform="translate(3015.99 -1896.51)"/><path class="cls-88" d="M-2821.7,2039.63c-0.65,1.21-7.52,4.8-7.63,3.27C-2828.91,2049-2820.12,2038.15-2821.7,2039.63Z" transform="translate(3015.99 -1896.51)"/><path class="cls-89" d="M-2827.1,2024.63c-2.22,8.26.41,9.6,3.88,15.22,0.7,1.13-7,.51-8.35-1.18-2.28-2.81.39-16.67,4.23-16.13A1.53,1.53,0,0,1-2827.1,2024.63Z" transform="translate(3015.99 -1896.51)"/><path class="cls-84" d="M-2821,2048.27c-2,11-20.14,5-24.77.78C-2839.48,2055.42-2823.1,2058.05-2821,2048.27Z" transform="translate(3015.99 -1896.51)"/><path class="cls-84" d="M-2844.19,2047.49q-2.94.14-3,2.13A3,3,0,0,0-2844.19,2047.49Z" transform="translate(3015.99 -1896.51)"/><path class="cls-84" d="M-2839.38,2057.19a4.52,4.52,0,0,0,4.55.55C-2835.09,2057.81-2839.12,2057.59-2839.38,2057.19Z" transform="translate(3015.99 -1896.51)"/><path class="cls-90" d="M-2821.17,2047.05c-0.83,5.1-5.86,6.61-10.51,6.65a14.36,14.36,0,0,1-8.86-2.66c-0.71-.49-2.88-5.09-2.23-5-0.53,0-8.18,3.21-8.18,2.83,0,1.26,14.94,6.71,16.56,6.89,3.69,0.4,7.7.16,10.77-2.17S-2820.49,2045.61-2821.17,2047.05Z" transform="translate(3015.99 -1896.51)"/><path class="cls-91" d="M-2837.54,2051.44s11.15,3.2,15.19-4.15C-2821.4,2045.4-2822.47,2057.25-2837.54,2051.44Z" transform="translate(3015.99 -1896.51)"/><path class="cls-92" d="M-2816.67,2039.85c0.92-3.26,7.87-5.69,7-1.2-0.54,2.76-8.19,5.39-7,1.2h0Z" transform="translate(3015.99 -1896.51)"/><path class="cls-92" d="M-2855.34,2040.17s-10.5-6.59-13.7-1.06S-2848.93,2045.52-2855.34,2040.17Z" transform="translate(3015.99 -1896.51)"/><g class="cls-5"><path class="cls-93" d="M-2872.06,2032.52c-7.09-25.38,11.09-40.24,34.08-44.66-5.83,0-13,0-18.24,3,0-5.79-2.76-11.82-5.34-16.92,0.86,3.77,2,8.17,1.9,12-0.18,7.7-1.31,6-8.26,9.36-8.08,3.89-16.14,9.11-17.32,17.9a72.26,72.26,0,0,0,3,30.74c1.24,3.66,4.21,6.9,2.92,10.75a133.85,133.85,0,0,1-11.44-18.44c-1.52-3-2.44-8.54-6.52-8.8-4.79-.31-5.94,6-5.15,9.59,0.64-7.53,8.75-2.58,10.58,1.37,2.18,4.73-.11,12.51-6.52,7.33,1.76,2.23,6.29,5.34,8.38,1.36,5.2,16.14,22,21.57,37.27,22.35-10.83-2.77-23.15-9.32-25.69-21.26-1-4.93-.36-14.85,6.33-15.74C-2880.77,2001.35-2881.25,2033.75-2872.06,2032.52Z" transform="translate(3015.99 -1896.51)"/></g><path class="cls-94" d="M-2846.91,2015.09s-5.16-16.2-18.5.53C-2861.15,2007.07-2851,2001.38-2846.91,2015.09Z" transform="translate(3015.99 -1896.51)"/><path class="cls-79" d="M-2847.15,2014.38s-5.16-16.2-18.51.53C-2861.38,2006.36-2851.24,2000.67-2847.15,2014.38Z" transform="translate(3015.99 -1896.51)"/><path class="cls-95" d="M-2822.42,2013.54s7.12-15.49,11.57,1.06C-2812.62,2005.54-2817.43,2001.08-2822.42,2013.54Z" transform="translate(3015.99 -1896.51)"/><path class="cls-79" d="M-2822.42,2012.95s7.12-15.48,11.57,1.06C-2812.62,2004.94-2817.43,2000.49-2822.42,2012.95Z" transform="translate(3015.99 -1896.51)"/><path class="cls-96" d="M-2821.34,1995.93s-14.5-4.47-15,4.06S-2809.33,2001.41-2821.34,1995.93Z" transform="translate(3015.99 -1896.51)"/><path class="cls-78" d="M-2801.24,1997.82c-2.3-42.9-55-56.69-87.11-36.77-20.71,12.84-34.93,39.51-29.28,63.87,4.3,18.55,19.27,41.1,40.94,38.56-5.91-3.81-11.11-9.54-13.29-16.31-5.6,10.63-22-21.58-6.83-19.61,5.26,0.68,13.84,22.17,17.51,27.21,1.25-3.71-1.32-6.32-2.59-9.82a71.18,71.18,0,0,1-3.35-31.67c1.14-8.44,8.09-12.93,15.72-17.08,7-3.83,9.65-1.72,9.86-10.18,0.1-3.93-1-8.23-1.9-12,2.58,5.09,5.34,11.13,5.34,16.92,7.26-4.13,17.76-3.37,25.8-2.68a30,30,0,0,0-3.55-12.09c6.31,8.25,2.59,11.41,12.43,13.22,5.81,1.07,19.3,3.3,19.93,11.08l0.39-2.59C-2801.59,1991.24-2801.18,1998.86-2801.24,1997.82Z" transform="translate(3015.99 -1896.51)"/><path class="cls-79" d="M-2800.72,1997.68c-4.74-43.64-58.84-59.29-91.32-34.47-18.69,14.28-30.14,37.38-26.16,61.05a53.93,53.93,0,0,0,14.48,28.7c3.75,3.82,21.36,16.92,27.46,10.66-1.64,1.69-11.35-13.71-12.24-14.63-1.89-1.95-13.17-6.1-13.07-9.33s7.68-4.81,10.17-3.44c0.71,0.39,12.36,19.84,12.61,18.5,1.4-7.26-5.38-16.53-6.28-24.21-0.87-7.41-.12-15.24,3.61-21.84,4.48-7.95,11-9.57,17.93-14.56,5.26-3.81,2.84,2.07,4.31-6.35,0.15-.85-1.37-11.37-1.09-11.43,1.31-.29,2.44,13.86,3.56,14.69,1.41,1,13.3-2.62,15.87-2.75,9.21-.46,10.08,3.05,10.44-5.71-0.33,8.35,6.47,6.35,12.35,7.68,3.49,0.79,7.45,1.61,10.41,3.76a68.76,68.76,0,0,1,6.1,6.81c5.32-1-10.76-9.63-12.76-10.22-4.42-1.3-10.13-.94-13.52-4.1-0.88-.82-5.34-11-6.29-10.72s3.14,8.36,1.79,10.49c-1.74,2.76-7.81,1.49-10.38,1.55-5,.11-9.48,1.16-13.26-2.58-1.09-1.08-4.71-12-5.69-11.63-0.48.18,0.37,9.6,0,11.15-1,4.24-3.49,7.15-6.64,10-5.77,5.21-15,8.37-18.14,15.92-2.83,6.83-.3,16.87,1.22,23.71,0.65,2.93,3.08,17.4,5.89,19.07-7.93-4.71-6.07-22-15.29-25.54-10-3.83-8.31,8.21-6.12,13.64,1,2.54,2.22,6,4.57,7.65s3.82-.49,5.88.8c3.36,2.1,8.14,13.8,13,13.19-21.95,2.74-38.29-24.1-40.61-42.84-2.54-20.56,7.92-40.53,23.71-53.2,32.79-26.31,88.87-14.15,93.51,30.53C-2805.21,1956.28-2800.67,1998.19-2800.72,1997.68Z" transform="translate(3015.99 -1896.51)"/><g class="cls-27"><path class="cls-78" d="M-2801.24,1997.82c-2.3-42.9-55-56.69-87.11-36.77-20.71,12.84-34.93,39.51-29.28,63.87,4.3,18.55,19.27,41.1,40.94,38.56-5.91-3.81-11.11-9.54-13.29-16.31-5.6,10.63-22-21.58-6.83-19.61,5.26,0.68,13.84,22.17,17.51,27.21,1.25-3.71-1.32-6.32-2.59-9.82a71.18,71.18,0,0,1-3.35-31.67c1.14-8.44,8.09-12.93,15.72-17.08,7-3.83,9.65-1.72,9.86-10.18,0.1-3.93-1-8.23-1.9-12,2.58,5.09,5.34,11.13,5.34,16.92,7.26-4.13,17.76-3.37,25.8-2.68a30,30,0,0,0-3.55-12.09c6.31,8.25,2.59,11.41,12.43,13.22,5.81,1.07,19.3,3.3,19.93,11.08l0.39-2.59C-2801.59,1991.24-2801.18,1998.86-2801.24,1997.82Zm-11.25-9.32c-3.36-.85-10.35,0-12.84-1.77-4.76-3.41-4.38-12.44-11-15.44,1.11,4.34,2.32,9,2.32,13.53-6.07-.59-13.66-0.81-19,2.49-0.82-3.47-5.45-19-11.22-19,0.89,7.11,3.52,18.08-.81,23-5,5.6-15.5,8.4-21.43,14.05-0.57-4.58,2.79-23.62.88-25.54-0.52-.52-3.63,10.12-3.78,11a89.15,89.15,0,0,0,.18,31c0.66,3.89,7.39,22.31,2.58,19.56-6.36-3.64-9.75-21.21-10.36-27.49,0,2.46,1.28,9.13.22,11.06-0.44.8-3.78,0.9-4.59,1.9-2.67,3.31-3.88,4.71-3.41,9.37,0.32,3.23,5,8.42,4.16,11.49-1.23,4.3-9.31-10-10.1-11.72-5-10.93-6.71-22.11-3.93-33.88,5.33-22.61,23-41.86,45.95-46.78,24.76-5.3,60.68,6,63.46,35.55q-3.64-1.13-7.26-2.32h0Z" transform="translate(3015.99 -1896.51)"/></g><path class="cls-80" d="M-2836.35,1963.89a98.44,98.44,0,0,1,8.66,12.55c1.19,2.12,2.28,7,3.83,8.49,1.88,1.81,5.76.14,9.34,1.5-1.13-4.33-2.76-11.33-6.65-14,5.81,3.34,7.94,14.57,13.76,15.19C-2810.82,1974.09-2821.45,1962.52-2836.35,1963.89Z" transform="translate(3015.99 -1896.51)"/><path class="cls-80" d="M-2844.42,1963.89c5.82,3.62,8,11.44,8.78,17.8-4,.1-9.42-0.16-13.06,1.65a51.63,51.63,0,0,0-3.32-10.92,48.39,48.39,0,0,1,1,10.92c-0.61-7-3.82-14.49-10-18.26,5.77,0.65,13.66,1.33,18.27,5.22A54.74,54.74,0,0,0-2844.42,1963.89Z" transform="translate(3015.99 -1896.51)"/><path class="cls-80" d="M-2867,1969.35c0.49,4.37,2.26,10.1,1.62,14.39-1.11,7.47-1.61,3.18-8.5,8.86-0.55-4.2.82-11.69-.69-15.32,0.42,1-1.51,11.94-1.79,12.9-1.68,5.87-3.89,4.18-8,9.29-0.71-8.26-.44-17.92,3.56-25.39-0.22,1.26-.55,11.09-0.29,11,0.44-.09,2.69-6.22,2.92-6.6A20.14,20.14,0,0,1-2867,1969.35Z" transform="translate(3015.99 -1896.51)"/><path class="cls-80" d="M-2891.4,1990.93a113.25,113.25,0,0,0,2.61,39.15S-2901.13,2019.17-2891.4,1990.93Z" transform="translate(3015.99 -1896.51)"/><path class="cls-80" d="M-2888.79,1967.22a135.74,135.74,0,0,0-7.62,19.13,110.49,110.49,0,0,0-4.12,17.34c-0.7,4.82,1.32,13.92-.64,17.85,1-2.09-8-20.15-1.54-23.54-8.36,4.42-5.14,32.59-3.39,39-7.31-4.79-5.31-23.26-4.42-30.16C-2908.58,1991.62-2902.12,1975.79-2888.79,1967.22Z" transform="translate(3015.99 -1896.51)"/></g></g></svg>