<svg xmlns="http://www.w3.org/2000/svg" xmlns:xlink="http://www.w3.org/1999/xlink" viewBox="0 0 355.78 523.08"><defs><style>.cls-1{isolation:isolate;}.cls-2{mask:url(#mask);}.cls-3{fill:url(#radial-gradient);}.cls-4{fill:#b8e7f0;}.cls-27,.cls-32,.cls-39,.cls-5{opacity:0.5;}.cls-23,.cls-24,.cls-27,.cls-32,.cls-45,.cls-46,.cls-48,.cls-5,.cls-52{mix-blend-mode:multiply;}.cls-6{mask:url(#mask-2);}.cls-7{fill:url(#radial-gradient-2);}.cls-8{fill:#81d4e5;}.cls-9{mask:url(#mask-3);}.cls-10{fill:url(#radial-gradient-3);}.cls-11{mask:url(#mask-4);}.cls-12{fill:url(#radial-gradient-4);}.cls-13{mask:url(#mask-5);}.cls-14{fill:url(#radial-gradient-5);}.cls-15{mask:url(#mask-6);}.cls-16{fill:url(#radial-gradient-6);}.cls-17{mask:url(#mask-7);}.cls-18{fill:url(#radial-gradient-7);}.cls-19{mask:url(#mask-8);}.cls-20{fill:url(#radial-gradient-8);}.cls-21,.cls-24{fill:#f7c7a2;}.cls-22{fill:#ac6000;}.cls-25,.cls-27{fill:#fdcc21;}.cls-26{fill:#cc8721;}.cls-28{fill:#e3ff75;}.cls-29{fill:#aa2900;}.cls-30{fill:#59120c;}.cls-31,.cls-32{fill:#7b2500;}.cls-33{fill:#ff5d45;}.cls-34{mask:url(#mask-9);}.cls-35{opacity:0.9;fill:url(#radial-gradient-9);}.cls-36{mask:url(#mask-10);}.cls-37{fill:url(#radial-gradient-10);}.cls-38{mask:url(#mask-11);}.cls-39{fill:url(#radial-gradient-11);}.cls-40{fill:#6a2b00;}.cls-41{fill:#830e00;}.cls-42{fill:url(#radial-gradient-12);}.cls-43{fill:url(#radial-gradient-13);}.cls-44{fill:url(#linear-gradient);}.cls-45,.cls-46{opacity:0.6;}.cls-45{fill:url(#radial-gradient-14);}.cls-46{fill:url(#radial-gradient-15);}.cls-47{fill:url(#linear-gradient-2);}.cls-48,.cls-52{opacity:0.7;}.cls-48{fill:url(#linear-gradient-3);}.cls-49{fill:#6bc3cd;}.cls-50{fill:#fff;}.cls-51{fill:url(#linear-gradient-4);}.cls-52{fill:url(#linear-gradient-5);}.cls-53{mask:url(#mask-12);}.cls-54,.cls-56,.cls-58,.cls-60{opacity:0.8;mix-blend-mode:screen;}.cls-54{fill:url(#radial-gradient-16);}.cls-55{mask:url(#mask-13);}.cls-56{fill:url(#radial-gradient-17);}.cls-57{mask:url(#mask-14);}.cls-58{fill:url(#radial-gradient-18);}.cls-59{mask:url(#mask-15);}.cls-60{fill:url(#radial-gradient-19);}.cls-61{fill:#743f05;}.cls-62{fill:#5b0801;}.cls-63{fill:#ffee10;}.cls-64{fill:#f8d62a;}.cls-65{fill:none;}.cls-66{fill:#7abd72;}.cls-67{fill:#1f7c53;}.cls-68{filter:url(#luminosity-noclip-15);}.cls-69{filter:url(#luminosity-noclip-14);}.cls-70{filter:url(#luminosity-noclip-13);}.cls-71{filter:url(#luminosity-noclip-12);}.cls-72{filter:url(#luminosity-noclip-11);}.cls-73{filter:url(#luminosity-noclip-10);}.cls-74{filter:url(#luminosity-noclip-9);}.cls-75{filter:url(#luminosity-noclip-8);}.cls-76{filter:url(#luminosity-noclip-7);}.cls-77{filter:url(#luminosity-noclip-6);}.cls-78{filter:url(#luminosity-noclip-5);}.cls-79{filter:url(#luminosity-noclip-4);}.cls-80{filter:url(#luminosity-noclip-3);}.cls-81{filter:url(#luminosity-noclip-2);}.cls-82{filter:url(#luminosity-noclip);}</style><filter id="luminosity-noclip" x="-2840.6" y="1537.37" width="143.51" height="101.32" filterUnits="userSpaceOnUse" color-interpolation-filters="sRGB"><feFlood flood-color="#fff" result="bg"/><feBlend in="SourceGraphic" in2="bg"/></filter><mask id="mask" x="197.84" y="185.18" width="143.51" height="101.32" maskUnits="userSpaceOnUse"><g class="cls-82"/></mask><radialGradient id="radial-gradient" cx="18.28" cy="3321.82" r="114.86" gradientTransform="matrix(0.53, 0.87, -0.88, 0.53, 178.74, -189.8)" gradientUnits="userSpaceOnUse"><stop offset="0.16" stop-color="#b8e7f0"/><stop offset="0.54" stop-color="#97dcea"/><stop offset="0.75" stop-color="#8bd8e7"/><stop offset="0.76" stop-color="#8ad8e7"/><stop offset="1" stop-color="#93dbe9"/></radialGradient><filter id="luminosity-noclip-2" x="-2840.6" y="1537.1" width="108.28" height="101.01" filterUnits="userSpaceOnUse" color-interpolation-filters="sRGB"><feFlood flood-color="#fff" result="bg"/><feBlend in="SourceGraphic" in2="bg"/></filter><mask id="mask-2" x="197.84" y="184.91" width="108.28" height="101.01" maskUnits="userSpaceOnUse"><g class="cls-81"/></mask><radialGradient id="radial-gradient-2" cx="18.14" cy="3321.84" r="115.5" xlink:href="#radial-gradient"/><filter id="luminosity-noclip-3" x="-3003.07" y="1541.66" width="127.38" height="89.78" filterUnits="userSpaceOnUse" color-interpolation-filters="sRGB"><feFlood flood-color="#fff" result="bg"/><feBlend in="SourceGraphic" in2="bg"/></filter><mask id="mask-3" x="35.37" y="189.47" width="127.38" height="89.78" maskUnits="userSpaceOnUse"><g class="cls-80"/></mask><radialGradient id="radial-gradient-3" cx="3032.67" cy="-1656.13" r="103" gradientTransform="matrix(-0.53, 0.87, 0.88, 0.53, 71.77, -189.8)" xlink:href="#radial-gradient"/><filter id="luminosity-noclip-4" x="-2971.69" y="1541.43" width="96" height="90.27" filterUnits="userSpaceOnUse" color-interpolation-filters="sRGB"><feFlood flood-color="#fff" result="bg"/><feBlend in="SourceGraphic" in2="bg"/></filter><mask id="mask-4" x="66.75" y="189.24" width="96" height="90.27" maskUnits="userSpaceOnUse"><g class="cls-79"/></mask><radialGradient id="radial-gradient-4" cx="3032.71" cy="-1654.93" r="102.31" gradientTransform="matrix(-0.53, 0.87, 0.88, 0.53, 71.77, -189.8)" xlink:href="#radial-gradient"/><filter id="luminosity-noclip-5" x="-2852.38" y="1441.37" width="170.03" height="102.57" filterUnits="userSpaceOnUse" color-interpolation-filters="sRGB"><feFlood flood-color="#fff" result="bg"/><feBlend in="SourceGraphic" in2="bg"/></filter><mask id="mask-5" x="186.06" y="89.18" width="170.03" height="102.57" maskUnits="userSpaceOnUse"><g class="cls-78"/></mask><radialGradient id="radial-gradient-5" cx="-2680.61" cy="1414.28" r="133.69" gradientTransform="translate(1.02 -8.11) scale(1.02 1.02)" xlink:href="#radial-gradient"/><filter id="luminosity-noclip-6" x="-2852.38" y="1456.58" width="154.22" height="88.2" filterUnits="userSpaceOnUse" color-interpolation-filters="sRGB"><feFlood flood-color="#fff" result="bg"/><feBlend in="SourceGraphic" in2="bg"/></filter><mask id="mask-6" x="186.06" y="104.39" width="154.22" height="88.2" maskUnits="userSpaceOnUse"><g class="cls-77"/></mask><radialGradient id="radial-gradient-6" cx="-2679.89" cy="1415.29" r="133.59" gradientTransform="translate(1.02 -8.11) scale(1.02 1.02)" xlink:href="#radial-gradient"/><filter id="luminosity-noclip-7" x="-3038.77" y="1448.54" width="172.83" height="96.5" filterUnits="userSpaceOnUse" color-interpolation-filters="sRGB"><feFlood flood-color="#fff" result="bg"/><feBlend in="SourceGraphic" in2="bg"/></filter><mask id="mask-7" x="-0.33" y="96.35" width="172.83" height="96.5" maskUnits="userSpaceOnUse"><g class="cls-76"/></mask><radialGradient id="radial-gradient-7" cx="3138.03" cy="1281.06" r="133.66" gradientTransform="matrix(-1.02, 0.05, 0.05, 1.02, 165.94, -14.45)" xlink:href="#radial-gradient"/><filter id="luminosity-noclip-8" x="-3021.56" y="1460.44" width="155.62" height="85.42" filterUnits="userSpaceOnUse" color-interpolation-filters="sRGB"><feFlood flood-color="#fff" result="bg"/><feBlend in="SourceGraphic" in2="bg"/></filter><mask id="mask-8" x="16.88" y="108.25" width="155.62" height="85.42" maskUnits="userSpaceOnUse"><g class="cls-75"/></mask><radialGradient id="radial-gradient-8" cx="3138.83" cy="1282.03" r="133.61" gradientTransform="matrix(-1.02, 0.05, 0.05, 1.02, 165.94, -14.45)" xlink:href="#radial-gradient"/><filter id="luminosity-noclip-9" x="-2896.35" y="1464.4" width="23.77" height="14.8" filterUnits="userSpaceOnUse" color-interpolation-filters="sRGB"><feFlood flood-color="#fff" result="bg"/><feBlend in="SourceGraphic" in2="bg"/></filter><mask id="mask-9" x="142.09" y="112.21" width="23.77" height="14.8" maskUnits="userSpaceOnUse"><g class="cls-74"/></mask><radialGradient id="radial-gradient-9" cx="-2634.1" cy="1949.01" r="14.23" gradientTransform="matrix(1.01, 0.16, -0.16, 1.01, 92.99, -71.44)" gradientUnits="userSpaceOnUse"><stop offset="0.56" stop-color="#f1984a"/><stop offset="0.99" stop-color="#fff"/></radialGradient><filter id="luminosity-noclip-10" x="-2909.15" y="1436.17" width="10.92" height="15.62" filterUnits="userSpaceOnUse" color-interpolation-filters="sRGB"><feFlood flood-color="#fff" result="bg"/><feBlend in="SourceGraphic" in2="bg"/></filter><mask id="mask-10" x="129.29" y="83.98" width="10.92" height="15.62" maskUnits="userSpaceOnUse"><g class="cls-73"/></mask><radialGradient id="radial-gradient-10" cx="-2661.94" cy="1925.55" r="9.48" gradientTransform="matrix(1.01, 0.16, -0.16, 1.01, 92.99, -71.44)" gradientUnits="userSpaceOnUse"><stop offset="0.4" stop-color="#fdcc21"/><stop offset="0.47" stop-color="#fdd033"/><stop offset="0.61" stop-color="#fedb62"/><stop offset="0.81" stop-color="#feecad"/><stop offset="1" stop-color="#fff"/></radialGradient><filter id="luminosity-noclip-11" x="-2882.45" y="1431.05" width="19.05" height="12.42" filterUnits="userSpaceOnUse" color-interpolation-filters="sRGB"><feFlood flood-color="#fff" result="bg"/><feBlend in="SourceGraphic" in2="bg"/></filter><mask id="mask-11" x="155.99" y="78.86" width="19.05" height="12.42" maskUnits="userSpaceOnUse"><g class="cls-72"/></mask><radialGradient id="radial-gradient-11" cx="-2629.54" cy="1915.97" r="13.84" xlink:href="#radial-gradient-10"/><radialGradient id="radial-gradient-12" cx="-2629.78" cy="1918.51" r="13.34" gradientTransform="matrix(1.01, 0.16, -0.16, 1.01, 92.99, -71.44)" gradientUnits="userSpaceOnUse"><stop offset="0.33" stop-color="#fff"/><stop offset="1" stop-color="#e5c3a7"/></radialGradient><radialGradient id="radial-gradient-13" cx="-2659.49" cy="1926.37" r="10.02" xlink:href="#radial-gradient-12"/><linearGradient id="linear-gradient" x1="-2698.62" y1="1979.89" x2="-2686.11" y2="1979.89" gradientTransform="matrix(0.99, 0.16, -0.16, 0.99, 90.39, -63.21)" gradientUnits="userSpaceOnUse"><stop offset="0.07" stop-color="#f1ded0"/><stop offset="0.46" stop-color="#fff"/><stop offset="1" stop-color="#e5c3a7"/></linearGradient><radialGradient id="radial-gradient-14" cx="-2612.31" cy="1928.24" r="9.73" gradientTransform="matrix(1.01, 0.16, -0.16, 1.01, 92.99, -71.44)" gradientUnits="userSpaceOnUse"><stop offset="0.44" stop-color="#f8a2a2"/><stop offset="0.99" stop-color="#fff"/></radialGradient><radialGradient id="radial-gradient-15" cx="-2660.15" cy="1939" r="4.84" xlink:href="#radial-gradient-14"/><linearGradient id="linear-gradient-2" x1="-3126.87" y1="1055.32" x2="-3126.87" y2="1040.89" gradientTransform="matrix(0.99, -0.12, 0.12, 0.99, 102.44, 17.08)" gradientUnits="userSpaceOnUse"><stop offset="0.12" stop-color="#6bc3cd"/><stop offset="0.31" stop-color="#488ba5"/><stop offset="0.48" stop-color="#2d6187"/><stop offset="0.61" stop-color="#1d4875"/><stop offset="0.69" stop-color="#173e6e"/></linearGradient><linearGradient id="linear-gradient-3" x1="-2687.76" y1="1960.61" x2="-2687.76" y2="1946.39" gradientTransform="matrix(0.99, 0.16, -0.16, 0.99, 90.39, -63.21)" xlink:href="#linear-gradient-2"/><linearGradient id="linear-gradient-4" x1="-3224.47" y1="837.57" x2="-3224.47" y2="826.43" gradientTransform="translate(109.14 30.71) rotate(-10.69)" xlink:href="#linear-gradient-2"/><linearGradient id="linear-gradient-5" x1="-2720.09" y1="1968.1" x2="-2720.09" y2="1957.08" gradientTransform="matrix(0.99, 0.16, -0.16, 0.99, 90.39, -63.21)" xlink:href="#linear-gradient-2"/><filter id="luminosity-noclip-12" x="-2878.5" y="1431.11" width="7.8" height="2.85" filterUnits="userSpaceOnUse" color-interpolation-filters="sRGB"><feFlood flood-color="#fff" result="bg"/><feBlend in="SourceGraphic" in2="bg"/></filter><mask id="mask-12" x="159.94" y="78.92" width="7.8" height="2.85" maskUnits="userSpaceOnUse"><g class="cls-71"/></mask><radialGradient id="radial-gradient-16" cx="-2632.02" cy="1910.06" r="4.88" xlink:href="#radial-gradient-10"/><filter id="luminosity-noclip-13" x="-2906.97" y="1436.84" width="5.21" height="3.59" filterUnits="userSpaceOnUse" color-interpolation-filters="sRGB"><feFlood flood-color="#fff" result="bg"/><feBlend in="SourceGraphic" in2="bg"/></filter><mask id="mask-13" x="131.47" y="84.65" width="5.21" height="3.59" maskUnits="userSpaceOnUse"><g class="cls-70"/></mask><radialGradient id="radial-gradient-17" cx="-2660.06" cy="1920.56" r="3.53" xlink:href="#radial-gradient-10"/><filter id="luminosity-noclip-14" x="-2879.49" y="1477.42" width="3.48" height="1.35" filterUnits="userSpaceOnUse" color-interpolation-filters="sRGB"><feFlood flood-color="#fff" result="bg"/><feBlend in="SourceGraphic" in2="bg"/></filter><mask id="mask-14" x="158.95" y="125.23" width="3.48" height="1.35" maskUnits="userSpaceOnUse"><g class="cls-69"/></mask><radialGradient id="radial-gradient-18" cx="-2628.14" cy="1954.33" r="1.72" xlink:href="#radial-gradient-9"/><filter id="luminosity-noclip-15" x="-2875.66" y="1476.75" width="0.64" height="0.68" filterUnits="userSpaceOnUse" color-interpolation-filters="sRGB"><feFlood flood-color="#fff" result="bg"/><feBlend in="SourceGraphic" in2="bg"/></filter><mask id="mask-15" x="162.78" y="124.56" width="0.64" height="0.68" maskUnits="userSpaceOnUse"><g class="cls-68"/></mask><radialGradient id="radial-gradient-19" cx="-2626.17" cy="1952.91" r="0.47" xlink:href="#radial-gradient-9"/></defs><title>fairy_03</title><g class="cls-1"><g id="Layer_1" data-name="Layer 1"><g class="cls-2"><path class="cls-3" d="M-2822.79,1537.37c18.32,0.95,36.72,8,52.66,16.61a182.62,182.62,0,0,1,46.06,36.06,163.22,163.22,0,0,1,21.08,27.43c1.95,3.24,6.9,9.32,5.73,13.53-2.63,9.44-27.78,7.84-35.1,7.12-16.21-1.59-32-8.48-45.88-16.57a175,175,0,0,1-45.63-38.26A158.8,158.8,0,0,1-2834,1570c-4.25-6.27-6.71-8.06-4.13-14.81C-2835.62,1548.67-2828,1542-2822.79,1537.37Z" transform="translate(3038.44 -1352.19)"/></g><path class="cls-4" d="M-2800.14,1548.7c43.8,10.13,77.83,48.63,102.63,83.5C-2722.74,1598.54-2757,1559-2800.14,1548.7Z" transform="translate(3038.44 -1352.19)"/><path class="cls-4" d="M-2799.73,1558.19c34.37,22.66,70.74,45.7,101,73.85C-2729.82,1604.58-2765.84,1581.93-2799.73,1558.19Z" transform="translate(3038.44 -1352.19)"/><path class="cls-4" d="M-2700.72,1632.28c-40.71-10.89-76.25-35.85-105.27-65.67C-2776.52,1595.49-2740.89,1620.78-2700.72,1632.28Z" transform="translate(3038.44 -1352.19)"/><path class="cls-4" d="M-2699.86,1634.07c-45.43,1.91-89-30.67-121.27-58.75C-2788.36,1602.6-2745,1635-2699.86,1634.07Z" transform="translate(3038.44 -1352.19)"/><g class="cls-5"><g class="cls-6"><path class="cls-7" d="M-2806.36,1575.19c9-5.72,11.33-11.55,15.89-20.16,2.92-5.52,2.42-5.83,9.79-3.7,12.61,3.64,23.48,12.05,34.6,18.49-18.74-14.67-40.83-26.09-64.3-30.78-2.94-.59-9.27-2.68-12.29-1.67-4.75,1.59-15.68,15.53-16.7,19.86-2.08,8.84,14,24.66,20.24,31.45a176.53,176.53,0,0,0,28,24.57c17.17,12.14,37.57,22.68,58.79,24.86,0-.18-28.46-10.58-31.4-12.12a136.17,136.17,0,0,1-28.76-20c-4.43-4.06-25.52-24.5-13.87-30.79C-2784.6,1561.32-2820.69,1582.93-2806.36,1575.19Z" transform="translate(3038.44 -1352.19)"/></g></g><path class="cls-8" d="M-2706.22,1636.22c-31.93,9.54-66.3-9.79-91.08-27.72C-2772.05,1625.64-2738.11,1644.62-2706.22,1636.22Z" transform="translate(3038.44 -1352.19)"/><g class="cls-9"><path class="cls-10" d="M-2891.48,1541.66c-17,.88-33.93,7.56-48.55,15.76a163.35,163.35,0,0,0-40.25,32.33c-4.54,5-25.94,26.43-22.38,35.43,3,7.7,24.39,6.38,30.76,5.8,14.29-1.32,28.18-7.34,40.49-14.44a154.83,154.83,0,0,0,41.75-35.17c2.61-3.15,5.1-6.42,7.43-9.79,4.25-6.15,6.68-7.89,4.05-14.56C-2880.44,1551.32-2887,1545.71-2891.48,1541.66Z" transform="translate(3038.44 -1352.19)"/></g><path class="cls-4" d="M-2911.56,1551.71c-38.44,9.74-68.28,43.66-91,74C-2980.33,1594.7-2950.52,1560.78-2911.56,1551.71Z" transform="translate(3038.44 -1352.19)"/><path class="cls-4" d="M-2911.93,1560.12c-30.06,21.07-62,41.05-89.49,65.46C-2974.58,1600.56-2942.46,1580.29-2911.93,1560.12Z" transform="translate(3038.44 -1352.19)"/><path class="cls-4" d="M-2999.69,1625.8c35.68-10.31,67.11-32.49,93.32-58.21C-2932,1594.06-2963.68,1616.27-2999.69,1625.8Z" transform="translate(3038.44 -1352.19)"/><path class="cls-4" d="M-3000.46,1627.39c40.12,0.76,78.36-27.89,107.51-52.09C-2921.57,1600.24-2960.17,1629-3000.46,1627.39Z" transform="translate(3038.44 -1352.19)"/><g class="cls-5"><g class="cls-11"><path class="cls-12" d="M-2906,1575.19c-7.56-4.82-9.91-9.86-13.9-17.11-2.91-5.29-1-5.51-8.12-4.24-11.18,2-21.91,10.89-31.41,16.59,16.56-13,36.08-23.09,56.82-27.25,2.76-.55,8.18-2.4,11-1.51,4.36,1.36,13.75,13.77,14.7,17.39,2,7.85-12.07,21.84-17.64,27.92a156.32,156.32,0,0,1-24.79,21.82c-15.27,10.83-33.41,20.22-52.3,22.17,1.51,7.4,88.8-43.25,65.62-55.78C-2925.34,1562.9-2893.35,1582.06-2906,1575.19Z" transform="translate(3038.44 -1352.19)"/></g></g><path class="cls-8" d="M-2994.82,1629.29c28.29,7.46,58.31-9.34,80.74-24.57C-2936.08,1620.72-2966.52,1637.72-2994.82,1629.29Z" transform="translate(3038.44 -1352.19)"/><g class="cls-13"><path class="cls-14" d="M-2852.38,1513.05c22.92-34.05,65.33-55,103.94-64.39,10.48-2.56,71-18.13,65.08,6.07-7.78,31.66-37.08,54-64.61,67.81a203,203,0,0,1-65,20,178.76,178.76,0,0,1-18.87,1.42c-9,.19-10.17-0.33-13.84-8.91A106.6,106.6,0,0,1-2852.38,1513.05Z" transform="translate(3038.44 -1352.19)"/></g><path class="cls-4" d="M-2827.54,1497.42c36.19-37.44,95.08-47.82,144.42-51.46C-2732,1450.65-2791,1460.9-2827.54,1497.42Z" transform="translate(3038.44 -1352.19)"/><path class="cls-4" d="M-2817.88,1502.71c43.23-20.51,87.72-42.33,133.83-55.61C-2729.91,1461.61-2773.91,1483.39-2817.88,1502.71Z" transform="translate(3038.44 -1352.19)"/><path class="cls-4" d="M-2685,1449.18c-34.95,33.75-81.51,54.21-128.32,64.79C-2766.83,1502.29-2720.65,1481.91-2685,1449.18Z" transform="translate(3038.44 -1352.19)"/><path class="cls-4" d="M-2682.66,1449.4c-25.29,46.28-83.89,69.69-131.08,84.79C-2767.13,1518.13-2708.63,1494.85-2682.66,1449.4Z" transform="translate(3038.44 -1352.19)"/><g class="cls-5"><g class="cls-15"><path class="cls-16" d="M-2805,1519.49c-0.24-10.48-3-18.76-9.45-26.84-4.1-5.13-5.39-4.51-1.64-10.27,8.2-12.56,29.44-18.82,42-25.81-24.34,9.19-47.38,23-65.72,41.61-10.1,10.24-13.86,12.76-9.53,26.6,2,6.38,4.6,17,10.48,19.1,6.23,2.26,17.72-.45,24.24-1.22a201.25,201.25,0,0,0,48.16-12c25.39-9.7,51.66-24.69,68.33-46.72-0.09,0-29.61,23.1-33.17,25.16a156.41,156.41,0,0,1-35.07,15.19c-6.65,1.91-39.35,10.43-38.61-4.83C-2805.69,1489.62-2805.92,1538.33-2805,1519.49Z" transform="translate(3038.44 -1352.19)"/></g></g><path class="cls-8" d="M-2684.35,1457c-9.48,37.19-49.72,60-82.17,73.53C-2734.33,1515.6-2695.37,1493.74-2684.35,1457Z" transform="translate(3038.44 -1352.19)"/><g class="cls-17"><path class="cls-18" d="M-2865.94,1513.21c-24.07-32.4-66.5-51.24-104.81-59.07-10.27-2.1-72.53-15.11-67.12,7.64,7.33,30.85,39.36,52.61,66.08,64.85a202.62,202.62,0,0,0,67.15,17.75,180.72,180.72,0,0,0,19.37.6c8.8-.21,10.45-1,13.64-9.55A107.11,107.11,0,0,0-2865.94,1513.21Z" transform="translate(3038.44 -1352.19)"/></g><path class="cls-4" d="M-2891.48,1498.75c-38.47-34.74-97.37-42.14-146.66-44.69C-2989.07,1455.48-2928.91,1462.79-2891.48,1498.75Z" transform="translate(3038.44 -1352.19)"/><path class="cls-4" d="M-2900.88,1504.48c-44.84-17.24-89.8-36.9-136.29-49.31C-2990.46,1466.39-2945.11,1486.08-2900.88,1504.48Z" transform="translate(3038.44 -1352.19)"/><path class="cls-4" d="M-3036.15,1457.2c37.28,31.09,84.2,49.05,131.2,58.74C-2952.26,1507.45-2999.56,1489.29-3036.15,1457.2Z" transform="translate(3038.44 -1352.19)"/><path class="cls-4" d="M-3038.44,1457.54c28.28,44.17,87.37,64.71,134.9,78.58C-2951.34,1523.38-3011.08,1502.51-3038.44,1457.54Z" transform="translate(3038.44 -1352.19)"/><g class="cls-5"><g class="cls-19"><path class="cls-20" d="M-2929.64,1521.33c2.19-11.28,8.86-19.64,18.3-25.81,3.61-2.36,10.67-4.16,9.92-9-1.07-6.84-21.64-15.15-27-17.82-6-2.94-12.39-5.39-18.25-8.29,24.75,8,48.4,20.78,67.59,38.5,10.56,9.76,14.44,12.1,10.76,26.13-1.7,6.47-3.8,17.16-9.58,19.57-6.12,2.55-17.72.38-24.27-.09a201.22,201.22,0,0,1-48.67-9.73c-25.81-8.51-52.75-22.26-70.44-43.49-5.4,4,95,64.22,91.71,30C-2924.12,1492.83-2927.84,1540.1-2929.64,1521.33Z" transform="translate(3038.44 -1352.19)"/></g></g><path class="cls-8" d="M-3036.39,1465c12.61,36.18,52.75,56.28,85.51,69.62C-2984.05,1522.67-3025,1501.72-3036.39,1465Z" transform="translate(3038.44 -1352.19)"/><path class="cls-21" d="M-2843.62,1672.48c-1.62,10.06-1.39,22.69,4.91,31.2,8,10.83,24.23,18.45,35.1,26.06,12.78,9,25.9,17.78,37.68,28.05,12.06,10.52,19.84,23.79,30.82,35.15,6.11,6.32,12,11.11,16.12,19,3.4,6.44,3.48,10.39,10.34,7,3.19-1.6,10.91-7,11.53-10.33,1.25-6.72-9.5-17.31-13.71-21.48a122.3,122.3,0,0,1-13.14-14.65c-7.36-9.93-12.32-6.59-22.11-10.92-6.77-3-12.11-11.13-17.1-16.46-7.2-7.7-14.37-15.44-21.73-23-6.61-6.79-13.4-13.28-20.64-19.4-6.37-5.37-13.67-9.91-14.75-18.66-0.58-4.72,3.62-15.89.61-18.65C-2825.16,1660.35-2840.25,1669.05-2843.62,1672.48Z" transform="translate(3038.44 -1352.19)"/><path class="cls-22" d="M-2712.77,1821.8c-5.09-.81-7.69-12.39-10.6-16.29-5.93-7.93-14.28-13.86-20.33-21.83-9.59-12.63-19.37-23.48-32-33.25-16.32-12.57-33.53-24-50.36-35.84-13-9.17-19.09-18.16-18.63-34.58,0.31-11.07,8.46-15.85,19.93-15.63,13.83,0.27,1.49,17,7.34,26.68,3.78,6.25,11.88,10.8,17.27,15.55,7.3,6.42,14.05,13.47,20.76,20.5,11.59,12.14,23.6,31.66,40.3,35.27,9.38,2,12,5.65,17.82,13.3,5.27,6.92,12.51,11.79,17.69,18.82,4.83,6.55,9.64,12.55,3.62,18.9-1.42,1.5-10.23,8.9-12.75,8.4S-2712.67,1821.82-2712.77,1821.8Zm-130.44-149.1c-4,23.48,7.11,33.88,24.84,46.23,19.67,13.7,40.63,26.75,58,43.38a138.36,138.36,0,0,1,15.65,18.46c6.55,8.87,15.48,15.5,22,24.21,2.71,3.6,3.87,9.77,6.91,12.77,3.8,3.75,2.44,2,6,1.19,2.55-.58,6.08-4.64,6.89-6.37,15.8-3.72-10.35-26.06-15.51-31.66-7.41-8-9.31-15.18-20.7-17.64-12.14-2.63-18.29-11.34-26.77-20.41-8.8-9.42-17.55-18.91-26.77-27.92-7.67-7.5-18.31-13.74-24.7-22.31-3.17-4.25-3.31-7-3.25-12.11,0-2.2,2.68-12.07,1.27-13.81-4.61-5.69-19.89,1.94-23.91,6C-2843.37,1673.65-2834.95,1664.39-2843.21,1672.7Z" transform="translate(3038.44 -1352.19)"/><g class="cls-23"><path class="cls-21" d="M-2698.92,1802.69c-6.15-9.57-14.33-15.94-21.29-24.62-3.44-4.3-5.55-9.84-10.41-12.88-4.64-2.9-9.48-1.14-14.24-3-10.35-4.11-19.36-18.24-26.83-26.19-8.65-9.21-17.26-18.56-26.62-27.06-7.07-6.41-19.16-12.75-21.83-22.54-1.86-6.82,4.65-17.92-1-21.25-6.32-3.72-20.43,3.31-22.69,8.91-3.34,8.25.46,23.52,5.51,30.15-1.32-3.79-10.28-31,3.25-25.9,4.7,1.78-3.46,16.06,6.92,21.59-1.42-8.94,1.53-10.29,8.1-5.66,11.34,8,21.42,18.79,31.56,28.19,11.72,10.86,21.7,23.19,33,34.47,2.4,2.41,4.62,4.76,7.71,6.23,2.72,1.3,7.06.9,9.46,3,1.8,1.61,2,4.86,3.42,6,2,1.64-1.68-8.4-1.64-7.45,0-.78,7.1,3.69,7.76,4.4,4.19,4.54,4.95,9.84,9.88,14.14,5.46,4.77,23,21.11,9,28.23-7.78,4-16-11.92-21.07-17-8.7-8.6-15-20.76-25.27-27.59,7.28,7.6,12.47,16.79,19.65,24.46,6.43,6.88,13.17,12.1,17.65,20.54,3.65,6.88,3.77,10.91,11,6.67,5.49-3.2,13.78-8.5,9-15.91C-2701.93,1798-2695.92,1807.37-2698.92,1802.69Z" transform="translate(3038.44 -1352.19)"/></g><path class="cls-22" d="M-2742.47,1765.06c3.42-.51,6.5.87,7,4.26C-2736.8,1766.68-2739.55,1765.54-2742.47,1765.06Z" transform="translate(3038.44 -1352.19)"/><path class="cls-22" d="M-2713.47,1813.35a15.76,15.76,0,0,0,3.71,5.66C-2712.25,1818.3-2713.55,1816.12-2713.47,1813.35Z" transform="translate(3038.44 -1352.19)"/><path class="cls-22" d="M-2709.62,1811.82a30.53,30.53,0,0,1,3.55,4.58C-2708.26,1815.46-2708.83,1813.92-2709.62,1811.82Z" transform="translate(3038.44 -1352.19)"/><path class="cls-22" d="M-2706.09,1808.79a45,45,0,0,1,3.69,4.45C-2704.7,1812.41-2705.26,1810.89-2706.09,1808.79Z" transform="translate(3038.44 -1352.19)"/><path class="cls-22" d="M-2702.47,1806.56a23.67,23.67,0,0,1,3.32,3.9C-2701.31,1809.73-2701.55,1808.38-2702.47,1806.56Z" transform="translate(3038.44 -1352.19)"/><path class="cls-21" d="M-2874.82,1666.61c-7.6,31.89,4.27,60.73,12.36,91.26,5.39,20.38,9.3,39.46,9.56,60.59,0.1,8.36.08,16.74,1.64,25,0.81,4.29,3.1,9,1.49,13.2-1.34,3.54-4.73,3.88-5.09,7.61-1.17,12.17,17.13,12.76,21.1,1.71,2.54-7.07-.33-14.35.17-21.58,0.56-8.13,7.75-17.93,5.61-26-2.47-9.29-12.92-11-14.54-21.78-3-20-.35-40.72-3.17-60.89-1.66-11.86-6.5-24-6.62-35.94-0.1-9.48,3.66-18.48,5.56-27.64C-2841.69,1647.81-2862.13,1656.7-2874.82,1666.61Z" transform="translate(3038.44 -1352.19)"/><path class="cls-22" d="M-2846.21,1875c-4-1.36-8.25-4.77-9-8.83-0.88-4.58.59-2.6,2.33-6.63,2.1-4.87,3.32-4.37,2.48-10.56-2.71-19.81-1.12-40.51-4.95-60.11-4.24-21.7-10.82-43-16.71-64.29-4.68-16.91-9.19-34.8-4.36-52.35,2.53-9.18,16.71-21.23,26.93-16.61,12,5.44-2.9,35.9-2.28,46.22,1.15,19.38,7.76,38.41,8.76,58.13,0.65,12.89-3.95,34.62,4.14,45.84,2.63,3.66,7.78,5.22,10,9.2,4.3,7.7-1.92,16.63-3.45,24.26C-2834.38,1849.5-2827,1878.11-2846.21,1875Zm-2.1-2.78c2.61,4.25,9.28,1.18,12-2,4.5-5.26,2.85-12.69,2.48-18.9-0.83-14,11.31-29.16-.11-39.94-9.24-8.74-9.53-15.63-9.58-28.69-0.08-20.8-.93-41.56-5.29-62-2.1-9.82-4.81-18.48-3.27-28.62,1.37-9,7.68-20.06,6.06-29.16-1.56-8.8-8-7.55-14.92-4.6-7.92,3.37-12.6,6.74-14.74,14.61-5.14,18.92.73,38.13,5.78,56.26,6,21.71,13.91,44.16,16.57,66.59,1.27,10.65.57,21.45,1,32.14a119.77,119.77,0,0,0,2.14,18.43c1.41,7.32,1,7.83-2.26,13.94C-2854.75,1864.61-2855,1871-2848.31,1872.26Z" transform="translate(3038.44 -1352.19)"/><path class="cls-24" d="M-2852,1798c-0.23-7.1-2.67-13.65-5.39-20.16,3.39,14.26,4.43,27.91,4.52,42.52A212.37,212.37,0,0,0-2852,1798C-2852.26,1791-2851.8,1805-2852,1798Z" transform="translate(3038.44 -1352.19)"/><path class="cls-24" d="M-2832.82,1855.92c-1.48-12.46,4-20.89,4.71-32.78,0.55-9.62-5.83-10.15-10.82-16.66-5.41-7-4.1-17.6-4.11-25.91a326.4,326.4,0,0,0-2.67-44.82c-1.79-12.82-7.36-26.2-6.51-39.2,0.7-10.64,9.36-24.37,6.62-34.76-2.55-9.66-12.15-5.8-18.85-2.18-13.07,7.07-13.05,15.75-13.42,30.23,1.71-6.66.11-15.88,8-16.63,13.58-1.3-1.59,22.18-5.7,27,11.12,6.24,15.29-14.33,18.78,2.17,2.58,12.21,6.48,24,8.6,36.41a234,234,0,0,1,3.38,46.69c-0.28,9.47-1.21,17.35,5.59,24.37,3.26,3.36,7.4,4.88,8.24,10.16,1.06,6.62-4.86,12.27-5.72,18.59-1.25,9.2,5.8,22.27-.78,30.56-1.61,2-7.57,6.21-9.37,2.19-1.19-2.66,5.85-4.6,5.91-7.48,0-2.28-4.36-6.64-5.49-8.61a49.33,49.33,0,0,1-5.64-17.25c0.51,4.32,2.66,9.11,2.75,13.38,0.13,6.66-1.58,3.66-3.33,8.62s-3.46,6.37,1.37,11.17c10.21,10.15,19.85-3.89,18.5-15.21C-2833.9,1846.75-2831.72,1865.09-2832.82,1855.92Z" transform="translate(3038.44 -1352.19)"/><path class="cls-22" d="M-2849.17,1852a12.44,12.44,0,0,1,1.35,7.75A32.34,32.34,0,0,1-2849.17,1852Z" transform="translate(3038.44 -1352.19)"/><path class="cls-22" d="M-2852,1862.05a34.31,34.31,0,0,1-2.87,2.2C-2854.46,1862.34-2853.29,1862.86-2852,1862.05Z" transform="translate(3038.44 -1352.19)"/><path class="cls-22" d="M-2850.39,1863.89c-1.21,1.59-2.57,2.34-3.32,4.31C-2855.82,1868.2-2850.23,1863.81-2850.39,1863.89Z" transform="translate(3038.44 -1352.19)"/><path class="cls-22" d="M-2848,1865.39a11.15,11.15,0,0,0-3.28,5.74C-2851.9,1868.5-2850.63,1866.39-2848,1865.39Z" transform="translate(3038.44 -1352.19)"/><path class="cls-22" d="M-2843.22,1866.27c-3.18.88-5.57,3.27-5.53,6.63C-2850,1869.15-2847.14,1866.23-2843.22,1866.27Z" transform="translate(3038.44 -1352.19)"/><path class="cls-25" d="M-2870.5,1582.15c-7.77,14.22-24.81,18.23-39.76,14.82-11.52-2.63-23.29-8.59-35.41-7.61s-11.79,8.93-19.87,15.22c6.46,0.47,7.35-8.62,13.65-8.61,1.45,0,14.41,4.89,14.77,5.49-16.3.94-21.23,8.83-31.14,20.09,5.47-6,9.8-6.72,17.39-5.68,7.42,1,11.14-.73,18.42-2.27-9,7.52-14,19.28-14.09,30.91,4.24-4.6,6.2-2,10.7-3.75,5.3-2.1,4-5.45,8-8.28,3.13-2.21,6-.38,9.56-2.18,2.56-1.29,4.93-4.7,7.3-6.52-10.34,11.06-15.69,27.27-12.14,42.18,0.61-3.13,2.58-3.73,4.73-5.25,1.42-1,3.46,0,4.88-1.25s0.78-3.31,1.92-4.57c6.19-6.84,14.91-4.27,20.72-14.1-1.73,5.4,1,11.12-.72,16.35-1.11,3.46-4.33,5.76-5.72,9.14-3,7.41,1.48,13.34.87,20.74a11.13,11.13,0,0,1,6.08-6.11c2.54-1.12,5.83.2,8.2-1.39,1.43-1,1.46-2.7,2.48-3.48s1.5-3.31,2.76-4.41c2.37-2.05,5.91-1.58,8.55-3,4.54-2.38,6.52-6,10.62-8.64-3.1,5-1.14,7.66-1.86,12.74s-3.08,7.35-5.35,11.57c-2.88,5.38-5.09,10.83-9.22,15.54a16.06,16.06,0,0,0,9.5-3.58c2-1.67,2.58-4.71,4.51-6.27,2.73-2.21,6.17-1.47,8.76-3.39,3.62-2.68,4.29-6.83,7.42-9.72,5-4.61,10.37-4.4,14.55-10.87-2.06,5.12,1.85,8.6.89,13.28-1.25,6.12-9.3,11.36-1.48,17.68-0.48-5.86,2.19-6,3.73-10.21,1.27-3.45.42-5.56,1.27-9,1.94-7.77,12.22-9.4,14.25-18.55,0.84,6.56,5.92,3,9.14,3.13,3,0.15,9.33-.37,12.43,2s1.07,2.83,2.39,5.39a42.41,42.41,0,0,0,3.5,5.78c2.5,3.59,7.65,7.24,1.73,12.43,5.51-2,6.73-3.25,6.81-8.3,0-1.85-2.05-3.39-2-5.51,0.07-2,1.92-3,2.2-4.79,1.48-9.52-1.12-14.22-8.7-20.8-7-6.12-14.71-10.88-16.78-20.59-1.9-8.9.59-18.34-1-27.39-1.63-9.45-6-17.66-14-23.34-8.07-5.79-5.77-3.58-10.92,1.29C-2839.67,1591.7-2854.05,1594.37-2870.5,1582.15Z" transform="translate(3038.44 -1352.19)"/><path class="cls-26" d="M-2875.12,1700.35c3.68-4.13,5.13-8.32,7.72-13s6.27-7.71,7.14-13.06c0.79-4.88-1.13-8.53,1.49-13.3-3.18.81-6.65,6.58-10.36,8.48-4.15,2.13-6,2-9.68,5.62-0.71.7-.3,2.47-1,3.13-3,2.79-3.45.86-7.39,2.61a42.15,42.15,0,0,0-9.61,6.09c1-7.75-4.15-13.15-.71-21.11,1.3-3,4.59-5.44,5.51-8.57,1.31-4.47-.48-9.42.2-14-3.59,5.25-6.83,5.31-12,7.35s-3.92,1.26-7.47,5.26c-1.08,1.21-.8,3.1-2.29,4.42s-4.84.08-6.29,1.36a9.39,9.39,0,0,0-3.17,6.48c-3.52-14.56-.22-29,8.7-40.93-3.26,3.06-6,3.22-9.17,4.8-3.49,1.75-2.43,1.69-6.33,5.55-5.22,5.16-12.1,1.91-17.16,8.15-0.08-11.65,4.37-23.21,12.93-31.24-4.46,1.27-7.61,3.13-12.38,2.95-3-.11-5.83-2-8.81-2-5.51.06-9.56,4.59-13.33,5.88q0.15,0.13,0,0c9.81-11.19,14.44-19,30.73-20.2-1.14-2-14.66-4.47-16.91-3.68-4.87,1.7-5.44,9.23-11.82,7.29,6.64-4,7.19-12.25,15.47-15,13.13-4.29,28.42,4,41,6.83,14.8,3.34,32-.72,39.46-15.07,8.84,7,20.62,11.08,31.52,6.76,7.08-2.8,10.34-11.56,16.07-14.14,4.55-2.05,12.56,5.64,15.86,10,5.55,7.32,7.29,16.38,7.51,25.37,0.2,8.06-1.72,16.39,2,23.93,4.91,10,16.89,13.55,22.29,23,4.08,7.11,1,9.21,0,15.54-1.51,9.53,5.45,13.14-8.26,17.41,3.74-2.61,5.46-7.78,2.77-11.77-1.47-2.18-4.48-1.24-5.9-3.54-1.75-2.84,1.27-5.23-.23-7.58-2.16-3.37-5.83-2.1-8.29-2.43a30,30,0,0,1-5-2.23c-3.3.5-7.58,6.43-10.44-.61-2.74,8.34-11,10.71-13.7,18.21-0.41,1.15.87,3,.49,4.37-0.65,2.38-3.15,3.06-3.89,4.89-1.32,3.26-2.08,5.65-1.57,9.41-5.38-3.64-4-8.94-2.58-14,0.89-3.19,2.91-4.08,3.25-7.67,0.24-2.51-2.37-4.63-1.69-8-3.7,4.93-8.54,5-12.59,8.45-4.35,3.75-6.17,7.79-11,11.07-2.79,1.9-4.72,2.73-7.43,5.11-2.31,2-3.08,4.29-6.21,5.82A17.23,17.23,0,0,1-2875.12,1700.35Zm18.84-41.77c-4.74,6.29-1.7,12.51-4,19.32-2.18,6.41-8.34,16.12-12.79,21.45,7.2-.88,7.42-5.28,12.13-9,4.27-3.37,9-3.6,12.92-7.54,3.1-3.12,4.42-5.79,8.1-8.44,5.2-3.73,8.52-5.72,12.12-11.53-2.16,5.37.24,8.8-.07,13.28-0.46,6.69-8.91,13-2.58,19.8-0.28-5.94,3.51-6.3,4.81-10.38,1-3.25-.58-7.05,1-10.29,1.84-3.9,7.49-5.51,10.18-9,2.5-3.27,3.6-7.32,4.33-11.31-0.69,3.52,0,7.86,4.13,8.61,3.29,0.6,2.68-1.8,4.45-1.76a39.35,39.35,0,0,1,7.15.73c5.2,1.16-1.19-2.74,4.11.54,3.73,2.31,2.75,3.63,4.27,6.26a5.43,5.43,0,0,0,.12,4.22,39,39,0,0,0,4.1,2.31c2.28,3.55,5.09,6.19,1.86,11.13,8.81-3.74,2.66-5.12,2.7-11.35,0-2.78,1.83-3.93,2.41-6.3,1.71-7.05.31-11.58-4.89-17.13-6.39-6.82-15.56-10.63-19.38-19.73-3.06-7.27-1.23-15.23-1.41-22.84-0.25-10.55-8.85-39.83-22.55-33.82-5.59,2.45-9.06,10.65-15.82,13.31-11,4.33-22.27.36-31.39-6.31-8,14.08-25.15,18-40,14.59-11.21-2.54-22.48-8.18-34.26-7.64-12.38.57-11.92,7.83-19.77,14.53,4.12-.15,4.89-5,7.84-6.84,5.13-3.16,5-.78,9.67.27,3.53,0.79,8.66.42,10.55,4.17-12.78.52-21.7,5.54-28.67,16.11,8.17-6.23,13.37-.71,22-1.38,4.18-.33,7.84-3.26,12.13-3.6-9.38,6.89-14.81,18.95-15.16,30.39,4.34-4.3,8.67-1.37,13.06-3.94,3.94-2.31,4.93-6.48,8.85-8.58,0,0,3.21.18,3.52,0.08,3-1.05,4.7-3.74,7.11-5.69a53.69,53.69,0,0,1,6-4.22c-11.59,10.79-18.52,27.39-15.41,43.22,2.07-4.94,6.51-2.77,9.57-5.5,3.72-3.32,1.07-6.24,6.84-8.93,3.49-1.63,6.63-.07,10.34-2.81,3.12-2.31,5.16-6.54,7.06-9.87-2.75,7.22-.26,14.89-2.84,21.83-1.47,4-5,6.21-5.9,10.73-1,5.48,1.86,9.9,2.08,15.24,3.74-5.91,10.6-3.51,15.29-7.27,2.22-1.78,2.08-5.28,5.5-7.37s7.65-1.85,11.06-4.46C-2861,1663.57-2860.21,1660.16-2856.28,1658.58Z" transform="translate(3038.44 -1352.19)"/><path class="cls-27" d="M-2779,1672.42c-6.18,0-2.33-3-3.08-6.4a31.43,31.43,0,0,0-2.4-7.36c-2.28-5.52-1.57-4-5.34-7-3.59-2.82-6.71-1.07-9.25-6.74-6.94-15.49,2.32-35.4-3.77-51.75-1.91-5.12-12.07-21.74-19.26-19.9-1.25.32-4.58,6.37-5.62,7.45-12.4,12.88-28.94,11.71-42.8,1.41-11.36,20.8-34.66,16-53.49,10.77,0.14,0.3,19.59,6.94,20.09,6.63-9,5.62-26.56-2.28-35.11-4.25-2.17-.5-4.94.24-7.11-0.16s-2.47-2.65-5.27-2.49c-5.89.35-9.25,9.29-14.14,11.93,6.46,0.47,7.35-8.62,13.65-8.61,1.45,0,14.41,4.89,14.77,5.49a42.3,42.3,0,0,0-5.53.67c2.52,0,21.46,1.94,21.27,2.16-2.9,3.31-15.67,8.58-20.1,9.33-10.86,1.83-16.22-3.4-25,6.22,6.84-6.16,11.36-3.54,19.39-3,5.42,0.34,9.53-2.08,14.68-3.19a37.23,37.23,0,0,0-5.32,5.55c10.05-9,20.72-11.41,33.58-14,3.18-.64,27.59-5.64,27.32-9.59,0.32,4.6-12.89,12.28-15.94,14.12-8.65,5.22-16.93,11-25.39,16.21a33,33,0,0,1-5.19,2.68c-1.35.56-2.72-.92-4.28-0.06-1.73,1-1.55,2.94-2.85,4.14-4.42,4.09-4.38,3.2-9.49,5.27-2.81,1.14-6.52,2.66-6.52,6.58,4.24-4.6,6.2-2,10.7-3.75,5.3-2.1,4-5.45,8-8.28,3.13-2.21,6-.38,9.56-2.18,2.56-1.29,4.93-4.7,7.3-6.52a51.39,51.39,0,0,0-8.06,11.69c5.06-6.44,10.17-11.85,17.25-16.33,7.46-4.72,15.75-7.52,22.84-12.89,2-1.5,7.62-8.67,10.36-8.94,2.32-.23-4.41,16.5-5,17.53-4.79,8.78-11.87,14.73-18.51,21.87-2.48,2.67-4.1,5.68-7.3,7.66-3.87,2.39-9.31,1.69-12.62,4.63-2.37,2.1-4.21,6.71-6.37,9.23s-6,2.87-4.75,7.72c0.61-3.13,2.58-3.73,4.73-5.25,1.42-1,3.46,0,4.88-1.25s0.78-3.31,1.92-4.57c6.19-6.84,14.91-4.27,20.72-14.1-1.1,3.43-.77,7.12-0.52,10.64-1.72-14.56,18-21.78,24.59-33.1,2.52-4.34,4-20.09,10-19.61,7,0.57,9.59,15.82,10,20.64,0.87,10.55-1.8,22.43-7.83,31.24-2.62,3.82-6.06,5.23-9,8.26-0.81.83-3.68,5.61-4.07,5.92-2.71,2.21-5.75,1.46-9,3.23s-2.73,3.47-5,5.52c-3.18,2.86-2.27,2.41-6.59,4.57s-8.32,2.73-8.11,8.91a11.13,11.13,0,0,1,6.08-6.11c2.54-1.12,5.83.2,8.2-1.39,1.43-1,1.46-2.7,2.48-3.48s1.5-3.31,2.76-4.41c2.37-2.05,5.91-1.58,8.55-3,4.54-2.38,6.52-6,10.62-8.64-1.89,3-2.92,6.39-2.08,9.94-1.41-6.69,6.65-11.5,10.13-16.22,5.58-7.56,8.71-17.06,9.89-26.3,0.58-4.5-3.14-24.34,0-26.6,4.52-3.27,10,8,11,10.4,7.44,16.85,5.84,42.45-7.24,56.42-3.22,3.43-8,5-10.89,8.5-2,2.43-1.84,5.75-4.63,7.84-4.13,3.1-7.5,1.9-11.3,6.18-3.6,4.06-5.07,7.22-10.88,9.66,5.69-.46,7.94-3.41,11.77-7,4-3.79,8.46-4.24,12.57-7.65,2.78-2.31,3.3-6.41,6.13-8.72,5.19-4.25,9.66-4,13.8-10.41a20.77,20.77,0,0,0-.94,4.91c11.11-15.24,14.34-34.92,10.42-53.19-1.07-5-11.09-22.31-4-23.75,7.55-1.53,14.69,11.59,16.23,17.09,4.19,14.92,1.65,37.85-7,50.86-4.07,6.11-10.63,8.57-12.4,15.29-0.26,1,1.42,2.89,1.15,4.09-0.45,2-1.76,2.59-2.44,4.23-1.46,3.58-6.68,7.35-1.59,11.42-0.48-5.86,2.19-6,3.73-10.21,1.27-3.45.42-5.56,1.27-9,1.94-7.77,12.22-9.4,14.25-18.55,0.84,6.56,5.92,3,9.14,3.13,3,0.15,9.33-.37,12.43,2s1.07,2.83,2.39,5.39a42.41,42.41,0,0,0,3.5,5.78c2.5,3.59,7.65,7.24,1.73,12.43,6.84-2.53,6.62-3.75,5.79-8.8,0-.08-3.22-6.83-3.25-6.83h0Z" transform="translate(3038.44 -1352.19)"/><path class="cls-26" d="M-2937.11,1601.46c22.43-.59,49,4.6,64.22-15.65C-2887.12,1607.12-2914.79,1602.21-2937.11,1601.46Z" transform="translate(3038.44 -1352.19)"/><path class="cls-26" d="M-2932.44,1613.62c12.87-11.65,30.92-9.7,46.33-15.5C-2901.11,1605.29-2918.76,1603.18-2932.44,1613.62Z" transform="translate(3038.44 -1352.19)"/><path class="cls-26" d="M-2910.93,1623.8c13.37-12.3,36.09-17.78,41.09-37.27C-2873.4,1606.41-2897,1612.84-2910.93,1623.8Z" transform="translate(3038.44 -1352.19)"/><path class="cls-26" d="M-2864.26,1591a44.88,44.88,0,0,1-6.18,27c-5.36,8.95-15.08,13.95-20.39,22.82,4.63-9.64,15.06-15,20.35-24.43A49.14,49.14,0,0,0-2864.26,1591Z" transform="translate(3038.44 -1352.19)"/><path class="cls-26" d="M-2845.29,1594.95c7.32,21.82,3.43,47.94-12.42,65.09C-2843.16,1642-2839,1617.17-2845.29,1594.95Z" transform="translate(3038.44 -1352.19)"/><path class="cls-26" d="M-2834,1592c15.8,20.63,16.2,49.53,5.55,72.46C-2819.26,1641-2819.17,1613.37-2834,1592Z" transform="translate(3038.44 -1352.19)"/><path class="cls-26" d="M-2821.77,1578.89c23.66,19.29,21.58,54.85,11,80.39C-2801.48,1633.22-2799.22,1599.18-2821.77,1578.89Z" transform="translate(3038.44 -1352.19)"/><path class="cls-26" d="M-2804.37,1636.35c-0.77,6.54-.1,26.22,11.43,21.71,3-1.15,4.79-2.71,3.52-6.38,2.35,3.91.77,8.29-3,10.55a10.07,10.07,0,0,0,3.81-8.61c0.53,3.71-4.17,6.07-7.53,5.75-10.12-.95-9.84-15.88-8.26-23C-2804.55,1637.9-2804.71,1637.87-2804.37,1636.35Z" transform="translate(3038.44 -1352.19)"/><path class="cls-28" d="M-2948.53,1593.52h0Z" transform="translate(3038.44 -1352.19)"/><path class="cls-28" d="M-2942.91,1592.17c-0.49.59,0.54-.56,0,0C-2943,1592.31-2942.79,1592-2942.91,1592.17Z" transform="translate(3038.44 -1352.19)"/><path class="cls-28" d="M-2943.52,1595.07c-0.89.95,0.85-.93,0,0h0Z" transform="translate(3038.44 -1352.19)"/><path class="cls-28" d="M-2940.09,1597.12c-0.87.95,0.85-1,0,0h0Z" transform="translate(3038.44 -1352.19)"/><path class="cls-28" d="M-2936.55,1599.34c-0.93,1,.89-1,0,0h0Z" transform="translate(3038.44 -1352.19)"/><path class="cls-28" d="M-2932.22,1597.63c-0.65.76,0.7-.77,0,0h0Z" transform="translate(3038.44 -1352.19)"/><path class="cls-28" d="M-2939.3,1609.84c-0.86.94,0.84-1,0,0h0Z" transform="translate(3038.44 -1352.19)"/><path class="cls-28" d="M-2934.94,1623.88h0Z" transform="translate(3038.44 -1352.19)"/><path class="cls-28" d="M-2937.78,1625.68c-0.65.76,0.69-.76,0,0h0Z" transform="translate(3038.44 -1352.19)"/><path class="cls-28" d="M-2940.29,1629.18c-0.71.81,0.72-.79,0,0h0Z" transform="translate(3038.44 -1352.19)"/><path class="cls-28" d="M-2937.93,1632.26c-0.6.7,0.63-.67,0,0C-2938.05,1632.4-2937.81,1632.13-2937.93,1632.26Z" transform="translate(3038.44 -1352.19)"/><path class="cls-28" d="M-2934.28,1631c-0.76.83,0.74-.79,0,0h0Z" transform="translate(3038.44 -1352.19)"/><path class="cls-28" d="M-2941,1634.48c-0.69.81,0.74-.84,0,0h0Z" transform="translate(3038.44 -1352.19)"/><path class="cls-28" d="M-2936.5,1637.45c-0.91,1,.9-1.05,0,0h0Z" transform="translate(3038.44 -1352.19)"/><path class="cls-28" d="M-2942.47,1638.14c-0.86.94,0.84-1,0,0h0Z" transform="translate(3038.44 -1352.19)"/><path class="cls-28" d="M-2927.79,1626.07c-0.52.64,0.6-.65,0,0C-2927.9,1626.22-2927.66,1625.94-2927.79,1626.07Z" transform="translate(3038.44 -1352.19)"/><path class="cls-28" d="M-2923.77,1629.12h0Z" transform="translate(3038.44 -1352.19)"/><path class="cls-28" d="M-2919.68,1628c-0.72.83,0.76-.86,0,0h0Z" transform="translate(3038.44 -1352.19)"/><path class="cls-28" d="M-2914,1638.48c-0.72.83,0.76-.86,0,0h0Z" transform="translate(3038.44 -1352.19)"/><path class="cls-28" d="M-2917.29,1639.3c-0.59.69,0.62-.64,0,0C-2917.41,1639.44-2917.16,1639.17-2917.29,1639.3Z" transform="translate(3038.44 -1352.19)"/><path class="cls-28" d="M-2911.13,1641.19h0Z" transform="translate(3038.44 -1352.19)"/><path class="cls-28" d="M-2919.15,1644.41c-0.68.8,0.72-.81,0,0h0Z" transform="translate(3038.44 -1352.19)"/><path class="cls-28" d="M-2919.8,1649.41h0Z" transform="translate(3038.44 -1352.19)"/><path class="cls-28" d="M-2915.63,1648.72h0Z" transform="translate(3038.44 -1352.19)"/><path class="cls-28" d="M-2919.68,1652.43c-0.66.77,0.7-.77,0,0h0Z" transform="translate(3038.44 -1352.19)"/><path class="cls-28" d="M-2916.09,1656.3c-0.72.79,0.69-.72,0,0h0Z" transform="translate(3038.44 -1352.19)"/><path class="cls-28" d="M-2915.56,1644.53c-0.83.94,0.84-1,0,0h0Z" transform="translate(3038.44 -1352.19)"/><path class="cls-28" d="M-2909.22,1645.24h0Z" transform="translate(3038.44 -1352.19)"/><path class="cls-28" d="M-2911.53,1648.47h0Z" transform="translate(3038.44 -1352.19)"/><path class="cls-28" d="M-2902.47,1644.37c-0.89,1,.89-1.08,0,0C-2902.59,1644.51-2902.35,1644.23-2902.47,1644.37Z" transform="translate(3038.44 -1352.19)"/><path class="cls-28" d="M-2888.43,1650.51c-1,1,.92-1.09,0,0C-2888.56,1650.64-2888.31,1650.37-2888.43,1650.51Z" transform="translate(3038.44 -1352.19)"/><path class="cls-28" d="M-2887.51,1657c-0.63.73,0.66-.7,0,0C-2887.64,1657.1-2887.38,1656.82-2887.51,1657Z" transform="translate(3038.44 -1352.19)"/><path class="cls-28" d="M-2891.79,1662.13c-0.82.92,0.82-1,0,0h0Z" transform="translate(3038.44 -1352.19)"/><path class="cls-28" d="M-2887.5,1662.51c-0.72.81,0.71-.76,0,0h0Z" transform="translate(3038.44 -1352.19)"/><path class="cls-28" d="M-2893.38,1665.48h0Z" transform="translate(3038.44 -1352.19)"/><path class="cls-28" d="M-2888,1671.29c-0.88,1,.87-1,0,0h0Z" transform="translate(3038.44 -1352.19)"/><path class="cls-28" d="M-2892.64,1677.74c-0.7.79,0.7-.75,0,0h0Z" transform="translate(3038.44 -1352.19)"/><path class="cls-28" d="M-2885.17,1677.14c-1.12,1.17,1-1.28,0,0C-2885.3,1677.27-2885.06,1677-2885.17,1677.14Z" transform="translate(3038.44 -1352.19)"/><path class="cls-28" d="M-2883.79,1665.65h0Z" transform="translate(3038.44 -1352.19)"/><path class="cls-28" d="M-2877.23,1666.85c-0.87.93,0.84-.92,0,0h0Z" transform="translate(3038.44 -1352.19)"/><path class="cls-28" d="M-2872.5,1662.65c-1.07,1.11,1-1.19,0,0C-2872.63,1662.78-2872.38,1662.51-2872.5,1662.65Z" transform="translate(3038.44 -1352.19)"/><path class="cls-28" d="M-2865.42,1664.38c-1,1,.92-1,0,0C-2865.55,1664.51-2865.3,1664.24-2865.42,1664.38Z" transform="translate(3038.44 -1352.19)"/><path class="cls-28" d="M-2868.87,1659.63c-0.75.82,0.75-.79,0,0h0Z" transform="translate(3038.44 -1352.19)"/><path class="cls-28" d="M-2862.71,1654.91c-0.56.68,0.64-.69,0,0C-2862.83,1655-2862.59,1654.77-2862.71,1654.91Z" transform="translate(3038.44 -1352.19)"/><path class="cls-28" d="M-2880.49,1657.17c-0.62.72,0.65-.69,0,0C-2880.62,1657.32-2880.36,1657-2880.49,1657.17Z" transform="translate(3038.44 -1352.19)"/><path class="cls-28" d="M-2858.72,1653.44c-0.76.84,0.74-.79,0,0h0Z" transform="translate(3038.44 -1352.19)"/><path class="cls-28" d="M-2857.51,1658.13c-0.87,1,.84-1,0,0h0Z" transform="translate(3038.44 -1352.19)"/><path class="cls-28" d="M-2854,1652.24c-0.9,1,.88-1,0,0h0Z" transform="translate(3038.44 -1352.19)"/><path class="cls-28" d="M-2852.78,1665.36c-0.74.83,0.75-.83,0,0h0Z" transform="translate(3038.44 -1352.19)"/><path class="cls-28" d="M-2855,1673h0Z" transform="translate(3038.44 -1352.19)"/><path class="cls-28" d="M-2843.94,1668.27c-0.73.83,0.75-.82,0,0h0Z" transform="translate(3038.44 -1352.19)"/><path class="cls-28" d="M-2847.64,1675.48c-0.68.77,0.7-.75,0,0h0Z" transform="translate(3038.44 -1352.19)"/><path class="cls-28" d="M-2856.2,1677.42c-0.91,1,.88-1,0,0h0Z" transform="translate(3038.44 -1352.19)"/><path class="cls-28" d="M-2852.53,1678.9c-1,1,.92-1.08,0,0C-2852.66,1679-2852.42,1678.77-2852.53,1678.9Z" transform="translate(3038.44 -1352.19)"/><path class="cls-28" d="M-2856.24,1683.27c-0.94,1,.9-1,0,0h0Z" transform="translate(3038.44 -1352.19)"/><path class="cls-28" d="M-2861,1685.8c-0.88,1,.87-1,0,0h0Z" transform="translate(3038.44 -1352.19)"/><path class="cls-28" d="M-2863.71,1689.58h0Z" transform="translate(3038.44 -1352.19)"/><path class="cls-28" d="M-2866.31,1693.66c-0.72.83,0.74-.84,0,0h0Z" transform="translate(3038.44 -1352.19)"/><path class="cls-28" d="M-2841.18,1672.62c-0.64.78,0.73-.85,0,0h0Z" transform="translate(3038.44 -1352.19)"/><path class="cls-28" d="M-2839.14,1665.24c-0.63.72,0.64-.66,0,0C-2839.26,1665.38-2839,1665.11-2839.14,1665.24Z" transform="translate(3038.44 -1352.19)"/><path class="cls-28" d="M-2837.22,1670.17c-0.86.94,0.84-1,0,0h0Z" transform="translate(3038.44 -1352.19)"/><path class="cls-28" d="M-2832.87,1666.47h0Z" transform="translate(3038.44 -1352.19)"/><path class="cls-28" d="M-2834.7,1662.36c-0.73.82,0.75-.82,0,0h0Z" transform="translate(3038.44 -1352.19)"/><path class="cls-28" d="M-2827.92,1658c-0.84.92,0.83-.94,0,0h0Z" transform="translate(3038.44 -1352.19)"/><path class="cls-28" d="M-2831.09,1663c-0.77.85,0.76-.81,0,0h0Z" transform="translate(3038.44 -1352.19)"/><path class="cls-28" d="M-2820.31,1660.48c-0.75.82,0.73-.77,0,0h0Z" transform="translate(3038.44 -1352.19)"/><path class="cls-28" d="M-2821.46,1664.8c-0.61.72,0.65-.7,0,0C-2821.58,1664.94-2821.33,1664.66-2821.46,1664.8Z" transform="translate(3038.44 -1352.19)"/><path class="cls-28" d="M-2826.3,1667c-0.74.84,0.75-.83,0,0h0Z" transform="translate(3038.44 -1352.19)"/><path class="cls-28" d="M-2819.84,1670.23c-0.76.84,0.73-.77,0,0h0Z" transform="translate(3038.44 -1352.19)"/><path class="cls-28" d="M-2825.49,1671.7c-0.53.64,0.59-.63,0,0C-2825.6,1671.84-2825.36,1671.56-2825.49,1671.7Z" transform="translate(3038.44 -1352.19)"/><path class="cls-28" d="M-2826.48,1676.49h0Z" transform="translate(3038.44 -1352.19)"/><path class="cls-28" d="M-2827.29,1682.33c-0.82.93,0.84-1,0,0h0Z" transform="translate(3038.44 -1352.19)"/><path class="cls-28" d="M-2828.14,1686.24h0Z" transform="translate(3038.44 -1352.19)"/><path class="cls-28" d="M-2830.43,1688.57c-0.7.79,0.7-.75,0,0h0Z" transform="translate(3038.44 -1352.19)"/><path class="cls-28" d="M-2816.81,1665.32c-0.94,1,.89-1,0,0h0Z" transform="translate(3038.44 -1352.19)"/><path class="cls-28" d="M-2818,1658.14h0Z" transform="translate(3038.44 -1352.19)"/><path class="cls-28" d="M-2815.21,1661c-0.65.76,0.7-.76,0,0h0Z" transform="translate(3038.44 -1352.19)"/><path class="cls-28" d="M-2812.62,1656.76c-0.77.85,0.75-.8,0,0h0Z" transform="translate(3038.44 -1352.19)"/><path class="cls-28" d="M-2806.17,1658.69c-1,1,.93-1.09,0,0C-2806.3,1658.82-2806,1658.54-2806.17,1658.69Z" transform="translate(3038.44 -1352.19)"/><path class="cls-28" d="M-2804.11,1654.17c-0.58.69,0.63-.67,0,0C-2804.22,1654.31-2804,1654-2804.11,1654.17Z" transform="translate(3038.44 -1352.19)"/><path class="cls-28" d="M-2801.23,1659.47c-0.85.93,0.82-.93,0,0h0Z" transform="translate(3038.44 -1352.19)"/><path class="cls-28" d="M-2807.34,1661.77c-0.89,1,.88-1,0,0h0Z" transform="translate(3038.44 -1352.19)"/><path class="cls-28" d="M-2797.25,1660.66c-0.87.95,0.83-.94,0,0h0Z" transform="translate(3038.44 -1352.19)"/><path class="cls-28" d="M-2791.59,1660.45h0Z" transform="translate(3038.44 -1352.19)"/><path class="cls-28" d="M-2792.29,1650.32h0Z" transform="translate(3038.44 -1352.19)"/><path class="cls-28" d="M-2785.44,1652.54c-0.92,1,.87-1,0,0h0Z" transform="translate(3038.44 -1352.19)"/><path class="cls-28" d="M-2778.47,1659h0Z" transform="translate(3038.44 -1352.19)"/><path class="cls-28" d="M-2783.36,1661.37c-0.85.93,0.84-.94,0,0h0Z" transform="translate(3038.44 -1352.19)"/><path class="cls-28" d="M-2778.56,1663c-0.74.83,0.76-.83,0,0h0Z" transform="translate(3038.44 -1352.19)"/><path class="cls-28" d="M-2784.7,1665.26c-0.72.84,0.76-.86,0,0h0Z" transform="translate(3038.44 -1352.19)"/><path class="cls-28" d="M-2775.95,1666.89c-0.81.92,0.84-1,0,0h0Z" transform="translate(3038.44 -1352.19)"/><path class="cls-28" d="M-2779.84,1667.27c-0.65.73,0.65-.67,0,0C-2780,1667.41-2779.71,1667.14-2779.84,1667.27Z" transform="translate(3038.44 -1352.19)"/><path class="cls-28" d="M-2783.55,1669.38c-0.76.86,0.76-.84,0,0h0Z" transform="translate(3038.44 -1352.19)"/><path class="cls-28" d="M-2778.32,1672.58c-0.71.81,0.73-.8,0,0h0Z" transform="translate(3038.44 -1352.19)"/><path class="cls-28" d="M-2782.83,1674h0Z" transform="translate(3038.44 -1352.19)"/><path class="cls-28" d="M-2776,1680.93c-0.72.84,0.75-.86,0,0h0Z" transform="translate(3038.44 -1352.19)"/><path class="cls-28" d="M-2895.45,1672.8h0Z" transform="translate(3038.44 -1352.19)"/><path class="cls-28" d="M-2897,1645.84c-0.86.92,0.83-.92,0,0h0Z" transform="translate(3038.44 -1352.19)"/><path class="cls-28" d="M-2898,1640.12c-0.85.91,0.82-.89,0,0h0Z" transform="translate(3038.44 -1352.19)"/><path class="cls-28" d="M-2906,1641.86c-1,1,.94-1.06,0,0C-2906.1,1642-2905.85,1641.72-2906,1641.86Z" transform="translate(3038.44 -1352.19)"/><path class="cls-28" d="M-2944,1608.64c-0.53.62,0.54-.54,0,0C-2944.16,1608.78-2943.91,1608.52-2944,1608.64Z" transform="translate(3038.44 -1352.19)"/><path class="cls-28" d="M-2941.82,1612.6h0Z" transform="translate(3038.44 -1352.19)"/><path class="cls-28" d="M-2946.82,1611.06c-1,1.08,1-1.12,0,0C-2946.95,1611.19-2946.7,1610.92-2946.82,1611.06Z" transform="translate(3038.44 -1352.19)"/><path class="cls-28" d="M-2947.41,1614.72c-0.84.93,0.84-.95,0,0h0Z" transform="translate(3038.44 -1352.19)"/><path class="cls-28" d="M-2952.11,1609.31c-0.72.81,0.74-.81,0,0h0Z" transform="translate(3038.44 -1352.19)"/><path class="cls-28" d="M-2958.47,1612.5c-0.92,1,.89-1,0,0h0Z" transform="translate(3038.44 -1352.19)"/><path class="cls-28" d="M-2951.56,1613.45h0Z" transform="translate(3038.44 -1352.19)"/><path class="cls-21" d="M-2744.65,1629.14c-2.26-16-15.4-22.72-20.37-36.93-6-17.26-11.24-35.08-20.75-50.84-9-14.9-22-33.92-35.87-44.41-12.14-9.19-32.23,0-35.23-18-4.41,1.8-12.85,3.75-14.44,7.18-0.91,2,2,4.14.72,6.54-1.07,2.06-5.18,3.33-7.29,4.08-4,1.43-8.18,1.28-12.08,3.2-11.78,5.81-20.9,17.78-31.74,25.28-3.28,2.27-11.41,9.29-15.85,9.13-3.91-.14-5.23-3.53-7.92-7.27-7.22-10-14.28-20.19-18.78-31.82-1-2.47-2.4-5.48-2.69-8.12-0.68-6.11.64-6.15,2.51-12s1.82-11.61.82-17.57c-0.55-3.28-7.06-31.81-10.54-32.46-8.24-1.53.56,19.57,1.26,21-5.22-2.7-3.73,2.23-6.23,3.74-2,1.18-4.4.5-6.41,2.07-0.4.31-.32,2.84-0.67,3.36-3.31,4.91-3.7,4.94-3.46,11.55,0,0.36,1.53,17.15,5.14,8.41-0.4,10.64,6.3,12.27,10,20.17,3.85,8.31,5.52,18,8.85,26.55,4.52,11.67,12.47,33.62,28.1,30.19,14.1-3.09,28.85-14.71,40.94-22.21,2.09-1.3,7.57-6.23,10-6.09,6.7,0.37,15.61,14.27,17.44,19.28,3-7.84,11-23.53,20.11-24,9.45-.47,25.91,11.6,28.25,20.3-0.12-4.41-.74-8.84-1.06-13.24,10.79,9.59,20.56,18.07,27.84,30.65,4.78,8.27,9.09,16.81,13.63,25.21,3.62,6.69,10.86,15.09,11.33,23,0.43,7.22-6.11,14.17-6.21,20.73,0,2.16-3.67,3.38.68,4.18,5.1,0.94,4.41-6.56,7-8.18,11-7,5.73,29,9,29.76,0.25,0.06,6.37-10.52,8-11.33q-0.76,3,1.6,3.77c3-1.62,4.94-11.79,4.51-14.8h0Z" transform="translate(3038.44 -1352.19)"/><path class="cls-22" d="M-2758.74,1652c-4.29-3.23-1.08-10.2-1.12-14.67,0-2.9-1.62-16.27-6.22-16.76-2.5-.27-3.49,12.14-9.08,10-4.27-1.66,2.62-12.75,3.56-16.19,4.78-17.39-10.4-34.53-18.58-49.52-8.53-15.63-18-25.75-31.21-37.55,0.37,5.26,1.07,10.49,1,15.77-2-10.75-16.74-23-28-23.18-9.74-.15-17.83,16.08-20.88,24.54-2.19-6.33-7.85-15.08-14.23-17.91-4.95-2.2-4.7-1.34-9.73,1.81-13.06,8.21-26.62,17.34-41,23-16.14,6.32-24.24-11-29.81-24-3.79-8.87-6.64-18.09-9.55-27.27-0.83-2.62-1.25-6.27-2.74-8.51-1.2-1.81-2.7-1.3-4-2.93-3.17-3.91-4.65-6.38-4.65-11.9-6.34,5.82-4.57-17.57-3.56-20.14,1.34-3.4,4.54-5.07,6.92-7.15,1.67-1.46,4.57-5.12,7.87-4.08-1.41-2.93-8.15-25.73,1-19,2.53,1.87,4.23,12.87,5.41,16.3,2.35,6.82,4.83,14,5,21.28,0.16,6.64-3.06,11.06-4.1,17.07-1.19,6.9,2.81,15.1,6,21.56a132.8,132.8,0,0,0,9.6,16.17c1.72,2.52,8.64,15.17,11.3,15.86,6.74,1.75,24.17-14.37,28.68-18.06,8.14-6.65,15.21-15.45,25.46-18.7,3.8-1.2,12.21-1.11,14.42-5.4,1.35-2.61-2.13-5.24-1.16-7.73s13-5.33,15.67-6.41c2.83,18.46,22.4,8.74,34.67,17.89,15.83,11.8,30.76,33.66,39.87,51.07s11.36,41.4,23.63,56.4c6,7.31,11.69,12,13.48,21.89,0.49,2.68.21,19.75-4.76,18.94a3.29,3.29,0,0,1-1.53-3.41C-2753.16,1642.32-2757.49,1652.16-2758.74,1652Zm-7.2-32.31c10.72,1.72,4.77,27.08,7.27,31.87,3.22-4.53,3-9.84,8.31-12.34,0,1.12-.23,4.21.88,4.4,2.91,0.51,4.32-14.06,4.18-15.72-0.62-7.51-4.63-14.24-9.59-19.6-13.41-14.51-16-34.53-24-52.47-8.38-18.84-22.14-36.92-36.19-52-6.93-7.42-13.18-11.72-23.29-12.52-10.39-.82-16.55.29-18.87-11.78-2.11.86-13.08,3.7-13.9,5.68-0.73,1.78,2.67,5,2.06,6.75-1.11,3.22-8.58,5-11.25,5.77-20.88,6.07-33.45,25.51-53,35.13-9.76,4.8-10.47-2.53-16.18-10.6-6.77-9.57-16.26-22.63-17.75-34.58-1.12-9,4.48-16.06,3.78-25.75-0.33-4.57-6.94-35.9-11.26-36.6-6.74-1,2.22,20.61,2.77,21.64-5.23-3.38-4.19,1.56-6.73,2.95-0.68.37-3.24-.1-4.06,0.69-2.25,2.16-.56,2.12-2.43,4.59-3.55,4.69-7,9.68-3.8,16.78,1.18,2.6,3.54,8,5,.78-0.26,3.4-.6,7.9,1,11,1.86,3.57,5.11,3.24,6.81,5.55,5.12,7,6.43,20.43,9.43,28.65,4.7,12.89,13.35,39.28,31.11,33,14.7-5.21,28.59-15,41.73-23.28,1.85-1.16,5.33-4.34,7.44-4.21,6.42,0.4,15.24,13.68,17.22,18.45,2.36-5.83,10.74-22.49,18.27-23.75,8.87-1.48,25.8,11.1,29.41,18.29q-0.51-5.64-.9-11.29c7,6.25,15,12.18,21,19.47,10.16,12.42,16.51,28.45,24.23,42.4,3,5.5,8.19,11.52,8.56,18,0.35,6.2-3.41,12.9-5.1,18.71-0.56,1.92-5.08,8.69,1.3,5.08,2.31-1.31,4-9.58,6.55-9.16h0Z" transform="translate(3038.44 -1352.19)"/><g class="cls-23"><path class="cls-21" d="M-2744.65,1629.14c-2.07-14.66-13.09-20.33-18.86-32.52-5.64-11.93-8.37-25.5-13.54-37.71-4.77-11.26-43.92-76.8-56.24-64.08,4.86,3.6,4,2.18,5.63,6.94,1.59,4.51,3,8.27,5,12.81,7.18,15.66-9.54.81-10,2.93-0.19.93,7.48,7.38,5.94,8.38-2.16,1.4-18.88-11.27-24.33-10.11-2.51.53-17.72,15.62-16.81,18.14-0.82-2.26,5.6-11.81,5-12.34-0.87-.81-6.67,9.73-7.47,10-1.15.32-6.7-5.73-6.79-5.63-0.34.43,3.55,5.7,3.74,6.51-0.4-1.68-14.17-16.55-16.31-15.21-0.24.15-.42,5.1-1.16,6.27-1.43,2.24-5.57,4.29-7.67,5.85-4,3-8.13,5.9-12.11,8.94,5.2-3,18.05-14.75,24-14.34,6.77,0.46,15.33,13.92,17.26,19.18,3-7.84,11-23.53,20.11-24,9.45-.47,25.91,11.6,28.25,20.3-0.12-4.41-.74-8.84-1.06-13.24,6.65,5.91,14.48,11.56,20,18.55-1.24-2.54-2.76-5-4.2-7.47a40.8,40.8,0,0,0,9.46-7,136.29,136.29,0,0,1,17,28.1c6.18,13.29,8.94,29.4,16.32,41.89,4.28,7.26,18.5,13.29,12.51,22.33-1.14,1.72-4.55.78-5.6,2.62s0.19,4.8.2,6.75c0,1.27.64,18.51-2.72,18.36,1.66,0.08-1.45-23.1-2.14-24.6-1.87-4.08-2.91-8.35-7.2-5.55-0.44.29-5.64,12.31-8.05,8-0.63-1.14,7.14-15.48,7.71-17.9,1.44-6.05.34-8.46-2.52-13.5-3.8-6.7-8-13.73-12.17-20,4.67,8.75,14.21,19.92,14,29.92-0.07,3.62-8.48,22.19-6.44,23.3,8.35,4.56,6.7-19.85,14.13-3.31,1.64,3.66.22,24.28,2.91,24.93,0.25,0.06,6.37-10.52,8-11.33q-0.76,3,1.6,3.77c3-1.62,4.94-11.79,4.51-14.8h0Z" transform="translate(3038.44 -1352.19)"/></g><g class="cls-23"><path class="cls-21" d="M-2979.12,1449.82h0Z" transform="translate(3038.44 -1352.19)"/><path class="cls-21" d="M-2979,1449.44c0.24-1.31-.48,1.38,0,0C-2979,1449.34-2979.07,1449.55-2979,1449.44Z" transform="translate(3038.44 -1352.19)"/><path class="cls-21" d="M-2938.69,1541.56c-1.37-5.36,29.36-24.38,35-30.66-8.85,8.1-18.89,16.16-29.69,21.5-5.69,2.81-5,2.63-9.05-1.22-4.45-4.22-8.23-11.21-11.52-16.3,5.26,8.53,11.94,17.15,15.3,26.68C-2938,1544.26-2941.25,1534.29-2938.69,1541.56Z" transform="translate(3038.44 -1352.19)"/><path class="cls-21" d="M-2978.87,1449h0Z" transform="translate(3038.44 -1352.19)"/><path class="cls-21" d="M-2972.7,1496.42c-0.21-1.43,1-5.22.47-6.31-1.11-2.39-1-.19-2.55-1.86-3.09-3.38-7.5-1.22-7.8-8.26-0.71-16.63,10.83,1.53,10.91,1.49-3.39,1.68-.23-15.63-0.06-16.48,0.7-3.42,1.37-1.64,1.11-5.61-0.25-3.71-2.78-6.77-2.51-11.09-2.39,2.93-2.65,18.32-4.53,19.19-4.17,1.94-2.06-15.83-1.49-17.68-4.2,0-2.47,20.31-2.07,20.53-3.18-1.74-3.78-9.87-4.39-13,0.27,4.09,2.67,18.18-3.66,18.32,1,2.12,4,1.38,4.75-.44-0.38,9.93,3.77,9.78,8.53,15.88s6.24,19.83,8.77,26.83c-1.7-6.95-4.41-14.23-5.49-21.5h0Z" transform="translate(3038.44 -1352.19)"/></g><g class="cls-23"><path class="cls-21" d="M-2874.73,1498.57c1.26-.47,10.09.79,7.89,2.83,1.79-1.66-.24-9.55-1.12-11.36,2-.06,8.16-2.79,10-2.49,1.11,0.17,1.15,1.56,2.31,1.74,5.83,0.92,9.88,2.49,16.48,1.58-10.41.06-15.78-1.06-17.74-12-4.15,1.7-12.36,3.6-14.61,6.61-0.58.79,1.87,3.77,1.59,4.65-0.76,2.39-1.87,3.48-4.66,5.18-5.37,3.28-12.11,2.26-17.52,5.84,5.2-3.19,11.76-.53,17.34-2.62h0Z" transform="translate(3038.44 -1352.19)"/></g><path class="cls-22" d="M-2869.33,1491.63a13.21,13.21,0,0,1,2.06,8.27A56.29,56.29,0,0,1-2869.33,1491.63Z" transform="translate(3038.44 -1352.19)"/><path class="cls-22" d="M-2888.72,1518.54c2.33,1.53,3.62,2.93,1.87,5.18a9.08,9.08,0,0,1,.23-2,9.94,9.94,0,0,1-2.1-3.13C-2888.12,1518.94-2888.5,1519.23-2888.72,1518.54Z" transform="translate(3038.44 -1352.19)"/><path class="cls-22" d="M-2828.25,1519.78a26.8,26.8,0,0,1,6.85,6.95A27.28,27.28,0,0,1-2828.25,1519.78Z" transform="translate(3038.44 -1352.19)"/><path class="cls-22" d="M-2939.8,1535.09c1.12,1.67,2.12,2.63,1.85,4.87A17.55,17.55,0,0,1-2939.8,1535.09Z" transform="translate(3038.44 -1352.19)"/><path class="cls-22" d="M-2976.15,1490.25c-0.66-.09,1.11-1.21,2.59-0.22l-2.59.22C-2976.47,1490.2-2975.68,1490.33-2976.15,1490.25Z" transform="translate(3038.44 -1352.19)"/><path class="cls-22" d="M-2963.55,1468.56c-0.06-8.13-6-13.24-7.81-20.88-0.23-.91-1.56,1-1.81,1.36-2.77,4.1,2.66,8.7,2.09,12.33-0.53,3.4-3.82,4.81-4,9-0.16-3.58,2.38-4.92,2.66-7.69,0.36-3.53-3.13-7.45-2.16-11.47,3.14-13,11.34,13.48,11,17.39C-2963.56,1466.95-2963.41,1466.95-2963.55,1468.56Z" transform="translate(3038.44 -1352.19)"/><path class="cls-22" d="M-2985.64,1454.93c0.41,2.33,6,23.67,7.74,12.91-0.12,4.44-1.47,4.85-4.47,2.2S-2985.61,1458.63-2985.64,1454.93Z" transform="translate(3038.44 -1352.19)"/><path class="cls-22" d="M-2979.19,1449.44c-0.26,2.25-2.83,16.88.3,17.95,2.56,0.87,3-12.31,4.87-14.83-2.09,3.71-.8,19-5.95,14.55C-2983.14,1464.33-2979.94,1452.63-2979.19,1449.44Z" transform="translate(3038.44 -1352.19)"/><path class="cls-22" d="M-2984.43,1467.15a15.34,15.34,0,0,1-.1,8.06A24.86,24.86,0,0,1-2984.43,1467.15Z" transform="translate(3038.44 -1352.19)"/><path class="cls-22" d="M-2755.91,1625.4c2.06,6.74,1.6,12.75.31,19.7C-2755.71,1638.34-2755.26,1632.11-2755.91,1625.4Z" transform="translate(3038.44 -1352.19)"/><path class="cls-22" d="M-2751.53,1624.29a30.47,30.47,0,0,1-1,16.65C-2752.08,1635.28-2751.72,1630-2751.53,1624.29Z" transform="translate(3038.44 -1352.19)"/><path class="cls-22" d="M-2748.49,1623.13c2.76,7,2.07,10.91-2.27,17C-2747.78,1633.17-2747.25,1630.59-2748.49,1623.13Z" transform="translate(3038.44 -1352.19)"/><path class="cls-24" d="M-2975.3,1425.22c-5.35,12.26,9.23,25.11,11.1,36.31C-2966.3,1457.61-2984.79,1426.75-2975.3,1425.22Z" transform="translate(3038.44 -1352.19)"/><path class="cls-21" d="M-2754.5,1627c0,0.35,1.15,6.44,1.74,5.61s1.64-8.19-.68-7.81Z" transform="translate(3038.44 -1352.19)"/><path class="cls-21" d="M-2750.88,1624.4c0.06,1.39.64,4.92,1.61,5.93C-2747,1632.72-2750.66,1619.57-2750.88,1624.4Z" transform="translate(3038.44 -1352.19)"/><path class="cls-21" d="M-2747.9,1623.15c0.27,1.16.81,5,1.79,5.8C-2744.43,1630.3-2748.33,1619.54-2747.9,1623.15Z" transform="translate(3038.44 -1352.19)"/><path class="cls-29" d="M-2825.57,1365.66c11.23-9,29.1-4.19,39,4.56,15.37,13.54,17.13,35.68,12.4,54.44-2.52,10-9.56,20.49-8.64,31.09,0.44,5.11,3.27,8.4,5.21,12.93,3.25,7.57,3.57,14.74-2,21.23-2.86,3.31-9.23,5.44-9.63,10.53-0.28,3.59.91,7.28,5.59,5.14-0.07,4.45-3.53,5.19-6.8,3.12,2.15,17.84-17.32,30.25-33,27.76,6.33-.74,11.65-6.67,9.31-13.22-2.46,4.74-7.06,6.71-10.8,1.88,13.3,0-3.41-24.09.56-31.72a5.67,5.67,0,0,1-8,1.42c5.92-1.16,5-5.36,4.57-9.78-0.91-9.65-3.08-12.16,4.14-19.57,4.65-4.78,9.12-8.83,12.62-14.7C-2794.19,1422.47-2807.3,1389.73-2825.57,1365.66Z" transform="translate(3038.44 -1352.19)"/><path class="cls-30" d="M-2823.48,1536.9l-3.18-.51c6.75-.13,14-3.91,12.43-12-2.94,4.79-8.46,5.45-11.57.27,13.38,1-1.51-22.67.32-29.49-2.51,1.93-5.7,1.31-7.93-.63,5.93-.72,5.53-4.62,5.2-9.34-0.68-9.66-3.41-12.1,4.16-20,8.8-9.19,16.08-17.69,19.09-30.62,4.35-18.69-1.64-37.68-11-53.83-1.76-3-10.89-13.48-9.47-15.78,3.16-5.12,15.55-4.7,19.93-4,16.18,2.4,28.14,15.19,32.39,30.55,5.41,19.59-2.66,35.51-7.68,54-3.94,14.48,6.47,19.63,6.34,33-0.08,8.55-4.72,10.33-9.75,15.64-2.47,2.62-8.4,16.49,1,10.75,0.43,4.39-2.86,6.62-6.77,4.61C-2789.59,1527.41-2806.87,1539.55-2823.48,1536.9Zm9.47-14.77c2.17,5.77-.5,12.35-6.67,14.22,15.64,1.4,31.5-12,29.69-28.52,2.58,2,6.49,2.84,6.88-1.57-4.13,1.51-5.61-1.5-5.84-4.92-0.34-5.18,6-7.58,8.8-10.47,5.75-5.91,6.81-12.22,4.11-19.91-1.73-4.94-5.32-8.69-6.1-14-1.4-9.45,4.47-18.79,7.18-27.44,5.1-16.29,6.05-35-3.33-49.94-8.55-13.63-30.85-25.6-45.67-13.86,17.7,23.43,30.71,55,15.53,83.07-3.75,6.94-8.8,11.64-14.14,17.15-4.24,4.37-5.77,6.92-5.41,13.2,0.33,5.63,6,13-2.28,15.83,2.41,1.16,6.11-.54,7.31-1.37-4.15,8,12.63,30.75,0,31.92C-2820,1530-2815.83,1526.22-2814,1522.13Z" transform="translate(3038.44 -1352.19)"/><g class="cls-5"><path class="cls-31" d="M-2803.37,1511.59c-0.79,4.31-6.6,10.52-8.58,6.27,0.36,0.77,2.17-6.91,2.18-7.37,0.05-4.94-2.4-10.39-3.14-15.28,4,6.15,12.45,8,17.3,1.63-9.25.61-13-9-13.32-16.75-0.68,5.22-4.38,9.87-10.14,8.51,5.64-5.61-.75-8.81,1.81-13.83,2-3.89,12.88-4.52,16.61-7.14,6.45-4.53,7.3-9.47,7.43-16.78,0.15-8.21.89-12,4.39-19.31,2.65-5.56,3.19-5,1.09-9.16s-4.82-5.59-5.36-11.8c-1.62-18.38-7.88-34.26-23.36-45.59a13.85,13.85,0,0,1,11.46-3.53c-4.22-.74-17.7-1.39-20.31,4-0.8,1.63,14.76,24.51,16.45,28.69,6.14,15.2,8,32.13,2.14,47.71-3.44,9.09-9.07,15.81-15.71,22.63-5.23,5.37-8.07,8.39-6.72,16.54,0.86,5.19,4.79,12.24-3.23,13.81a5.67,5.67,0,0,0,8-1.42c-4,7.67,12.7,31.72-.56,31.72,3.74,4.83,8.34,2.86,10.8-1.88,2.34,6.56-3,12.49-9.31,13.22,13.33,2.2,23.06-13.14,20-24.87C-2805.1,1521-2800.88,1521.23-2803.37,1511.59Z" transform="translate(3038.44 -1352.19)"/></g><path class="cls-32" d="M-2786.26,1465.55s6.82,19.4-7.62,25.2C-2784.45,1493.75-2774.45,1480-2786.26,1465.55Z" transform="translate(3038.44 -1352.19)"/><path class="cls-32" d="M-2791,1378.38s13.45,13.54,10.16,37.93C-2775.18,1403.7-2776.55,1387.87-2791,1378.38Z" transform="translate(3038.44 -1352.19)"/><path class="cls-33" d="M-2788.17,1372.22c14.25,10.36,16.58,29.86,11.92,45.72C-2773,1401.6-2774.89,1383.73-2788.17,1372.22Z" transform="translate(3038.44 -1352.19)"/><path class="cls-33" d="M-2782.95,1465.49c7.19,9.53,5.34,22.12-4.82,28.34C-2778.7,1486.56-2777.12,1475.64-2782.95,1465.49Z" transform="translate(3038.44 -1352.19)"/><path class="cls-33" d="M-2792.75,1506.23c1.12,11.08-4.64,22.05-15,26.42C-2798.16,1527.06-2793,1517.3-2792.75,1506.23Z" transform="translate(3038.44 -1352.19)"/><path class="cls-33" d="M-2797.17,1375.89c10,6.38,13.93,19.32,13.43,30.65C-2784.62,1395.21-2788,1383.35-2797.17,1375.89Z" transform="translate(3038.44 -1352.19)"/><path class="cls-30" d="M-2909.85,1432.65a49.81,49.81,0,0,1-1.34-10.42c-12.72,8.43-15.44,24.19.06,31.67,1.43-7.23,2.78-13.9,1.28-21.25h0Z" transform="translate(3038.44 -1352.19)"/><path class="cls-21" d="M-2841.79,1462.55a12.44,12.44,0,0,1-10.66,3.71c7.9-3.44,8.76-16.62,6.44-23.64-3.89-11.78-12.06-18-10.95-31.85-3.45,7.43-15.37,15.85-23.67,10.94,6.67-3.29,10.5-10.7,11.56-17.82-2.43,12.57-17.93,20.44-29.73,16,8.7-5.51,12.21-14.4,15.93-23.57-4.26,11.46-15.9,15.2-24.1,22.83-6.75,6.28-2.7,8.68-2.19,18.34,0.5,9.39-3.48,17.1-.29,26.25,10.21,29.32,61.23,31.61,67.66-1.16C-2847.29,1467.83-2843.41,1470.84-2841.79,1462.55Z" transform="translate(3038.44 -1352.19)"/><path class="cls-22" d="M-2878.27,1486.86c-11.9-1.87-23.78-7.51-29.66-18.54-6-11.28-.89-19.72-1.72-31.4-0.71-10.06-4.52-11.92,2.49-18.22,5.56-5,12.62-8,17.76-13.61,2.39-2.62,4.9-7.26,6.93-8.65-3.25,8.87-7.23,17.9-15.34,23.3,5.6,1.77,11.84.79,17-1.85,7-3.57,8-9.65,12.18-13.95-0.66,6.86-5,14.4-11,17.77,9.32,4.21,20.19-5.32,23.35-13.37-1.06,9.93.9,17.64,6,26.05,5.28,8.71,10.52,24.41-.75,31.63,3.81,0.24,7.43-2.08,10-4.75C-2844.08,1478.13-2861.21,1489.56-2878.27,1486.86Zm-32.5-64.39c-0.67,6,2.24,12.13,2.15,18.21-0.07,4.73-2,9.28-2.08,13.93-0.09,6.48,2.92,13.33,6.94,18.25,15.63,19.13,55.55,18.39,61.28-9.08-3.14,2.6-7.33,3.87-11.23,2.56,21.53-9.19-4.36-39.14-3.79-53.55-4.53,7.48-15.69,13.72-24,8.88a20.53,20.53,0,0,0,9.81-10.31c-6,8.71-18.23,12.33-28,8.6,6.91-4.09,10.7-10.1,13.82-17.34-6.61,8.62-16.6,13.1-24.8,19.85C-2910.83,1423-2909.27,1421.23-2910.77,1422.47Z" transform="translate(3038.44 -1352.19)"/><g class="cls-23"><path class="cls-21" d="M-2852.45,1466.26c7.9-3.44,8.76-16.62,6.44-23.64-3.89-11.78-12.06-18-10.95-31.85-3.45,7.43-15.37,15.85-23.67,10.94,6.67-3.29,10.5-10.7,11.56-17.82-2.43,12.57-17.93,20.44-29.73,16,8.7-5.51,12.21-14.4,15.93-23.57-3.72,10-14.15,15.81-22.38,21.64-6.95,4.92-6.47,5.34-4.73,14.08,7.75-6.06,11.26,16.61,11.75,19.79a16,16,0,0,1-11.53-1c3.09,3.16,17.07,2,9.8,9.21,13.39-5.49-.67-22.42-4.32-29.57-1.74-3.41-4.57-5.43.22-7.58-0.74.33,20.39,0.75,20.1,0.56,0.34,0.22-5.28,11.22-5.47,12,9.2-9.94,22.12-8.31,26,5.35-3.37-8.76-16.17-8.77-19.55-.11-0.74,1.88-1.42,9,.31,10.55,0.52,0.48,4.29-.35,5.13-0.16,4.7,1.06,13.51-.19,15.78-4.63,1.5-2.93-3.42-14.87-.23-16.44s9.25,7,10.49,9.21c4.27,7.41,6.08,23.13-4.39,26.64a7.29,7.29,0,0,0,8.06,2.19c-8.54,9.45-12,17.32-26.81,17.12-15.46-.2-28.56-9.55-35.33-23-1.68,1,6.63,12,7.48,12.92,5.23,5.41,12.28,8.58,19.49,10.36,17.29,4.28,37.52-4.45,41.15-22.93A12.44,12.44,0,0,1-2852.45,1466.26Z" transform="translate(3038.44 -1352.19)"/></g><g class="cls-34"><path class="cls-35" d="M-2896.35,1470.36a90,90,0,0,0,22.87-6c1.71,4.9,1.47,14.43-5.08,14.65C-2883.71,1479.23-2890.85,1471.59-2896.35,1470.36Z" transform="translate(3038.44 -1352.19)"/></g><g class="cls-36"><path class="cls-37" d="M-2898.23,1451.8c-0.31-4.45-1.65-14.19-7.11-15.43C-2914.5,1434.28-2899.82,1449.85-2898.23,1451.8Z" transform="translate(3038.44 -1352.19)"/></g><g class="cls-38"><path class="cls-39" d="M-2882.44,1443.46l19-2.66C-2866.39,1426.81-2882.81,1429.71-2882.44,1443.46Z" transform="translate(3038.44 -1352.19)"/></g><path class="cls-40" d="M-2888.79,1433.14c6.3-10.16,17.68-11.23,24.3-1.25C-2872.51,1424.19-2881.22,1423.11-2888.79,1433.14Z" transform="translate(3038.44 -1352.19)"/><path class="cls-40" d="M-2902.05,1434.37c-1.58-3.56-4.75-5-7.79-2.95C-2907.19,1427.33-2903,1430.82-2902.05,1434.37Z" transform="translate(3038.44 -1352.19)"/><path class="cls-22" d="M-2894.61,1451c1.85,7.05-6.95,7.52-4.32,13C-2902.53,1459.23-2894.41,1456.77-2894.61,1451Z" transform="translate(3038.44 -1352.19)"/><path class="cls-41" d="M-2892.86,1471.07c6.56-1.08,13.47-2.69,19.39-5.75C-2874.08,1484.69-2882.08,1471.72-2892.86,1471.07Z" transform="translate(3038.44 -1352.19)"/><path class="cls-22" d="M-2892.86,1471.07c-2,.27-3.2.84-5-0.64A29.62,29.62,0,0,1-2892.86,1471.07Z" transform="translate(3038.44 -1352.19)"/><path class="cls-22" d="M-2873.48,1463.5a14.51,14.51,0,0,0,1.62,2.28C-2871.86,1467.58-2873.73,1462.93-2873.48,1463.5Z" transform="translate(3038.44 -1352.19)"/><path class="cls-22" d="M-2883,1479.21c3.84,2.3,7.43,4,10.71.69C-2874.85,1484.19-2879.71,1482.95-2883,1479.21Z" transform="translate(3038.44 -1352.19)"/><path class="cls-42" d="M-2882,1450.89c6.72-2.43,19.9,2.27,18.85-8C-2864.63,1428.1-2887.16,1435.57-2882,1450.89Z" transform="translate(3038.44 -1352.19)"/><path class="cls-43" d="M-2898.26,1452.2c-12.7,3.4-10.24-4.41-10.89-13.59C-2902.41,1437.16-2898.75,1447.36-2898.26,1452.2Z" transform="translate(3038.44 -1352.19)"/><path class="cls-22" d="M-2898.26,1452.2c-5.37-.25-10.1,2.87-12.1-3.86-0.24-.81.35-9.31,0.78-9.7C-2904,1433.61-2898.5,1448.43-2898.26,1452.2Zm0,0c-0.92-5.38-4.12-13.76-10.8-13.17,0.49,1.32-1.22,6.62-.47,9,1.95,6.3,6,3.37,11.27,4.14C-2898.39,1451.41-2898.75,1452.13-2898.26,1452.2Z" transform="translate(3038.44 -1352.19)"/><path class="cls-24" d="M-2900,1460c0.28,0,5,1,5,1.28C-2894.54,1465.19-2899.78,1464.11-2900,1460Z" transform="translate(3038.44 -1352.19)"/><path class="cls-44" d="M-2880,1471.32c3.8-.29,6.41-2.54,6.52-6a57.46,57.46,0,0,1-13.34,4.54,15.15,15.15,0,0,0,6.82,1.47h0Z" transform="translate(3038.44 -1352.19)"/><path class="cls-45" d="M-2846.35,1452.95c-1.26-11.66-23.06-7-22.17,3,0.94,10.57,23.48,9,22.17-3C-2846.58,1450.8-2845.84,1457.54-2846.35,1452.95Zm-13-1.21c-2.88,4.76-4.74-1-4.91-1.07-1.18-.28,8.16-4.29,4.91,1.07h0Zm2.61-3.51c0.07,0.06-3.36.49-1.51-1.14C-2857.91,1447-2855.08,1446.82-2856.69,1448.22Z" transform="translate(3038.44 -1352.19)"/><path class="cls-46" d="M-2907.8,1462c6-.17,8.56-6.71,1.82-8.66-7.77-2.25-9.51,8.87-1.82,8.66h0Zm1.2-7.36q1.84-1.13,2.74.77c-0.17,2.14-3.91.69-2.74-.77h0Zm-1-1.08c-1.07,1.67-.25-0.16,0,0h0Z" transform="translate(3038.44 -1352.19)"/><path class="cls-22" d="M-2879.34,1477.59c-6.35-1-10.41-6.42-17.64-6.32,8.21-1.2,16.54-2.91,24-6.7,0,3.46-.23,13.85-6.35,13C-2880.7,1477.37-2879.22,1477.6-2879.34,1477.59Zm-10.79-6.57c9.73,2.3,15.44,11.19,16.19-5a67,67,0,0,1-16.19,5C-2886.95,1471.77-2886.33,1470.27-2890.13,1471Z" transform="translate(3038.44 -1352.19)"/><path class="cls-47" d="M-2865.52,1441.6c1.85,9.17-10.14,11.58-12,2.42-1.82-9,10-12.08,12-2.42h0Z" transform="translate(3038.44 -1352.19)"/><path class="cls-48" d="M-2865.52,1441.6c-1.85-9.17-13.85-6.76-12,2.42,1.81,9,13.94,7.25,12-2.42h0Zm-1,5.25c-3,7.23-13.86-.75-10-6.77-0.26.4,1.65,6.1,2.33,6.72,6.21,5.69,7.6-6.47,6.91-6.58,2.12,0.34.86,6.32,0.75,6.63C-2867.95,1450.24-2864.66,1441.55-2866.55,1446.85Z" transform="translate(3038.44 -1352.19)"/><path d="M-2868,1442.4c1.14,5.65-5.86,7.06-7,1.41s5.86-7.06,7-1.41h0Z" transform="translate(3038.44 -1352.19)"/><path class="cls-49" d="M-2868.38,1439c1.73,6.65-4.6,1.2-4.48,1.17-0.12,0,2.73-7.8,4.48-1.17C-2868,1440.67-2868.81,1437.41-2868.38,1439Z" transform="translate(3038.44 -1352.19)"/><path class="cls-50" d="M-2868.64,1439.1c1.52,5.85-4.05,1.06-3.95,1-0.12,0,2.41-6.87,3.95-1C-2868.27,1440.54-2869,1437.67-2868.64,1439.1Z" transform="translate(3038.44 -1352.19)"/><path class="cls-51" d="M-2900.7,1445.36c1.56,6.71-6.37,9.76-8.3,2.59-1.74-6.49,6.53-10.27,8.3-2.59C-2900,1448.53-2901.42,1442.2-2900.7,1445.36Z" transform="translate(3038.44 -1352.19)"/><path class="cls-52" d="M-2900.7,1445.36c-1.67-7.25-10.08-4.07-8.3,2.59,1.88,7,10,4.56,8.3-2.59C-2901.42,1442.2-2900,1448.53-2900.7,1445.36Zm-0.52,4.17c-1.85,5.9-9.48-.26-7.22-4.72-4.33,8.56,13,4.8,6.63-.34a5.42,5.42,0,0,1,.6,5.06C-2902.07,1452.26-2900.08,1445.28-2901.22,1449.54Z" transform="translate(3038.44 -1352.19)"/><path d="M-2902.37,1446.14c1,4.11-3.69,6-4.84,1.51-1-4.09,3.81-6,4.84-1.51C-2901.92,1448.05-2902.8,1444.21-2902.37,1446.14Z" transform="translate(3038.44 -1352.19)"/><path class="cls-49" d="M-2902.78,1443.53c1.45,5.08-3.17,1.21-3.09,1.18-0.13.05,1.63-6.23,3.09-1.18C-2902.42,1444.78-2903.14,1442.27-2902.78,1443.53Z" transform="translate(3038.44 -1352.19)"/><path class="cls-50" d="M-2903,1443.59c1.28,4.48-2.79,1.07-2.72,1-0.11,0,1.44-5.49,2.72-1h0Z" transform="translate(3038.44 -1352.19)"/><path class="cls-22" d="M-2882,1450.89c5.58-3.61,14.45,1.9,19-4.63C-2863.94,1429-2886.52,1433.63-2882,1450.89Zm0,0c-2.9-8.3,3.2-20.08,13-16.08,5.27,2.16,8.9,9.47,4.71,13.72C-2868.78,1453.08-2876.92,1448.15-2882,1450.89Z" transform="translate(3038.44 -1352.19)"/><path class="cls-22" d="M-2863.36,1442.76c-0.88-5.09-3.61-9.85-8.73-11.45C-2866.35,1431.78-2863,1437.28-2863.36,1442.76Z" transform="translate(3038.44 -1352.19)"/><path class="cls-40" d="M-2874.93,1433.9c4.34-.75,12.68,7.45,13.66,5.14-0.34.94-1.84,1.7-1.54,2.6a6.09,6.09,0,0,0,4.31-1.94c-1.93,1.53-3.62,3.07-3.92,5.36,1.4-12.22-17.86-13-20.15.64,0.08-5.14,1.88-10.8,7.64-11.8h0Z" transform="translate(3038.44 -1352.19)"/><path class="cls-40" d="M-2909.73,1443.38c-0.68,0-2.17-.26-2.55-0.78,0.5,0.82,2.15,1.31,2,2.24a6.09,6.09,0,0,1-4.62-1c2.19,1.13,4.17,2.25,4.92,4.45-0.18-.43,1.51-9.36,1.48-9.35,4.42-2.62,9,8.23,9.62,10.34-1.29-4.86-4.45-11.83-10.64-10.93A39.75,39.75,0,0,1-2909.73,1443.38Z" transform="translate(3038.44 -1352.19)"/><path class="cls-22" d="M-2909.15,1438.61c0.62-3.5,3.49-3.74,6-1.14C-2905.62,1436-2907.79,1436.25-2909.15,1438.61Z" transform="translate(3038.44 -1352.19)"/><g class="cls-53"><path class="cls-54" d="M-2877.61,1433.88c0.56-.12,6.91-1,6.91-1C-2871.13,1428.07-2879.79,1434.62-2877.61,1433.88Z" transform="translate(3038.44 -1352.19)"/></g><g class="cls-55"><path class="cls-56" d="M-2906.35,1437.56c0.33,0.24,4.33,2.81,4.34,2.8C-2900.24,1437.64-2908.37,1437.13-2906.35,1437.56Z" transform="translate(3038.44 -1352.19)"/></g><g class="cls-57"><path class="cls-58" d="M-2879.39,1478.09c0.35,0,3.33-.33,3.3-0.27C-2877.25,1479.91-2878.47,1477.88-2879.39,1478.09Z" transform="translate(3038.44 -1352.19)"/></g><g class="cls-59"><path class="cls-60" d="M-2875.39,1476.85s-0.53.35-.09,0.55S-2874.75,1476.39-2875.39,1476.85Z" transform="translate(3038.44 -1352.19)"/></g><path class="cls-61" d="M-2862.6,1446.45q1.86,1.24-2.83,2.8a3.35,3.35,0,0,1,1.67,1.2c-0.83-1.77-5.14.15-5.75,0.25a3.08,3.08,0,0,1,1,2.45c0.34-1.82-5-5.22-5.24-.5,0.18-2.37-4.91-2.47-5.81-2.39,5.56-1.09,12.9,1.4,17-3.81h0Z" transform="translate(3038.44 -1352.19)"/><path class="cls-61" d="M-2902.37,1453.62c-0.5.78-2.9,1.55-.84,0-0.72,0-4-.78-4.12.83a2,2,0,0,1,1-1.36c-0.57-.19-3-1.7-3.65-0.73,1.5-2,2.06,2.16-.28-2.43,1.92,3.84,8.35,3.23,11.67,2.32a11.06,11.06,0,0,0-3.76,1.41S-2901.25,1452.71-2902.37,1453.62Z" transform="translate(3038.44 -1352.19)"/><path class="cls-29" d="M-2797.63,1405.14c-6.15-36.65-50.52-65.94-85.82-46.43-3.13,1.73-5.43,4.74-8.37,6.46-4.18,2.45-9.41,3.43-13.79,6.23a57,57,0,0,0-22.87,29.29c-3.75,11.33-6.18,41.67,8.92,46.61-14.56-20.61,31.35-36.67,36.68-51-3.71,9.17-7.23,18.06-15.93,23.57,11.79,4.47,27.3-3.41,29.73-16-1,7.1-4.9,14.53-11.56,17.82,8.29,4.91,20.21-3.47,23.67-10.94-1.12,14,7,20,10.95,31.85,2.33,7.07,1.48,20.18-6.44,23.64a12.46,12.46,0,0,0,10.66-3.71c-1.81,9.23-7.9,9.58-10.82,17a7.75,7.75,0,0,0,.59,2.78c7.54-10,25.83-10.35,36.09-17.83,18.92-13.78,21.93-37.71,18.29-59.41C-2806.75,1350.8-2788.52,1459.5-2797.63,1405.14Z" transform="translate(3038.44 -1352.19)"/><path class="cls-30" d="M-2797.63,1405.14c-7.79-36.7-50.9-68-87.38-45.27-23.8,14.8-47.66,28.63-45.8,61.78,0.25,4.47.4,10.91,1.49,15.13,1.46,5.65,6.42,8,9.51,10.71-2.73-4.36-3.67-8.64-2-13.58,1.31-3.86,8.65-12.92,11-11.62,4.87-9.32,22.14-13.8,27.56-26.16,1.16,7.57-8.31,19.57-15.3,24.08,4.54-1.17,11.82.85,18-2.32a21,21,0,0,0,11.19-14.07c2.19,5.71-5.42,15.32-11,18.19,9.06,1.32,19.25-2.52,23.87-12.51-0.47,6.78.08,13.45,3,19.65,4.62,9.72,18,30,1.21,37.29a15.87,15.87,0,0,0,10.88-4.4c-1.57,8.75-6.59,11.35-11.22,17.43l0.55-.46c-0.21,1-.81,2.42.23,3.24,5.38-8.41,20.83-9.18,29.62-13.88a48.1,48.1,0,0,0,18.21-16.55C-2795.34,1438-2795.08,1420.83-2797.63,1405.14Zm0,0c2.56,15.73,2.4,32.86-6.35,46.76a48.07,48.07,0,0,1-18.24,16.66c-9.34,5-22.89,5.27-29.76,14-0.68-1.3-1.11-1.41-.63-3.18,0.71,0.12-.56.83-0.56,0.87,1.67-3.62,5-4.72,7.28-7.66s3.11-7.11,4.22-9.93c-3.23,2.85-7.05,4.67-11.4,3.62,24.18-10.87-10.6-40.12-3.63-55.42-4,8.2-15.66,15.83-24.66,10.83,8.11-4,8.73-11.77,12.64-17.77-2.82,13.44-18.58,20.6-31,16.05,9.46-6.09,10.36-17.82,17.28-23.58-5.7,12.67-18.87,18.46-29.24,26.67a5.79,5.79,0,0,0,.14-0.93c-4.25,8.48-16.19,13.54-7.18,25.81-8.85-2.91-13.73-11.57-10.91-20-4.47-5.7-.88-22.11,1-27.75,5.07-15,19.77-31.9,36-34.41,17.5-20.23,52.94-13.88,71.74.21C-2807.94,1375.76-2800.93,1389.49-2797.63,1405.14Z" transform="translate(3038.44 -1352.19)"/><g class="cls-5"><path class="cls-31" d="M-2797.63,1405.14c-6.15-36.65-50.52-65.94-85.82-46.43-3.13,1.73-5.43,4.74-8.37,6.46-4.18,2.45-9.41,3.43-13.79,6.23a57,57,0,0,0-22.87,29.29c-3.75,11.33-6.18,41.67,8.92,46.61-14.56-20.61,31.35-36.67,36.68-51-3.71,9.17-7.23,18.06-15.93,23.57,11.79,4.47,27.3-3.41,29.73-16-1,7.1-4.9,14.53-11.56,17.82,8.29,4.91,20.21-3.47,23.67-10.94-1.12,14,7,20,10.95,31.85,2.33,7.07,1.48,20.18-6.44,23.64a12.46,12.46,0,0,0,10.66-3.71c-1.81,9.23-7.9,9.58-10.82,17a7.75,7.75,0,0,0,.59,2.78c7.54-10,25.83-10.35,36.09-17.83,18.92-13.78,21.93-37.71,18.29-59.41C-2806.75,1350.8-2788.52,1459.5-2797.63,1405.14Zm-85.64-15.22c-4.42,8.93-11.84,15.6-20.08,21-9.4,6.14-24.93,15.54-21.52,29.34-2.95-2.87-3-6.94-2.64-10.81,0.62-5.92,3.76-11.75,6.64-16.79,2.53-4.43,14.38-15.77,14.12-19.87,0-.12-10,8.86-10.73,9.82-1.45,1.81-11,18-11.29,17.86-6-3,15.52-30.81,15.63-30.71-2.12-1.87-14.24,12.56-13.68,14.37-2.89-9.15,14.33-25.89,20.33-30,5.6-3.84,16.06-9.27,23.1-6C-2874.34,1372.23-2879.81,1383.5-2883.28,1389.92Zm-8.88,27.39c8.27-7.16,12.51-18.21,15-28.56,0.58-2.38,1.3-17.14,4.21-18.41,8.92-3.88,4.48,22.49,3.49,25.69-3.51,11.3-11,18.84-22.73,21.28C-2877,1404.2-2875.62,1413.87-2892.16,1417.31Zm17,2.48c8.46-6.87,11-18.94,11.88-29.22,0.11-1.2-.88-17.56,0-18,6.29-3.41,8.1,21.32,7.81,23.95-1.06,9.58-7,26.21-19.71,23.31C-2859.67,1407.18-2862.17,1422.77-2875.21,1419.79Zm68.3,28.37a42.06,42.06,0,0,0-.43-19.87c0.82,10-7.12,44-24.54,31.5,13.5,1.26,11.94-18.81,12-27.18,0-3.76,3-15,.24-17.41-6.52-5.65-15,11.22-16.19,14.71-0.61-1.52-1.76-16.53-1.55-16.48-3.26-.88,1.65,22.82,1.83,24.16,1.43,10.49-3.31,18.1-11.32,24.77,11.36-13-4.85-31.58-6.47-45-1.46-12.1,2.56-22.53,4-34.17,0.73-5.78.21-9-4.42-12.93s-18.52-3.57-21.56-7.16c-2.81-3.33-2.05-2.92,3-5,18-7.58,43.39,3.92,55.63,16.79a65.11,65.11,0,0,1,17.56,39.78c0.46,5.51,2.19,33.09-7.79,33.55C-2804.5,1436.84-2798.13,1447.76-2806.91,1448.16Z" transform="translate(3038.44 -1352.19)"/></g><path class="cls-62" d="M-2892.52,1365.94c7.63-2,16.29-2.11,23.63,1.07C-2876.6,1365.09-2884.65,1365.13-2892.52,1365.94Z" transform="translate(3038.44 -1352.19)"/><path class="cls-62" d="M-2930.45,1417.28c2-9.36,7.3-17.95,13.87-24.8C-2922.19,1400.13-2927.26,1408.31-2930.45,1417.28Z" transform="translate(3038.44 -1352.19)"/><path class="cls-62" d="M-2910.45,1395.94c-8.25,9.24-15.3,19.94-19,31.86C-2927.08,1415.61-2919.57,1404.14-2910.45,1395.94Z" transform="translate(3038.44 -1352.19)"/><path class="cls-62" d="M-2835.31,1433.28c5.14,10.21,1.71,21.89-6.47,29.27C-2834.59,1454.16-2831.66,1444-2835.31,1433.28Z" transform="translate(3038.44 -1352.19)"/><path class="cls-33" d="M-2869.24,1373.93c2.44,14.52-2.08,31.72-15.34,39.65C-2872.24,1404.55-2868.17,1388.61-2869.24,1373.93Z" transform="translate(3038.44 -1352.19)"/><path class="cls-33" d="M-2859.63,1377.26c5.09,13.66,3.66,31.42-8.75,40.7C-2857.09,1407.65-2855.88,1391.35-2859.63,1377.26Z" transform="translate(3038.44 -1352.19)"/><path class="cls-33" d="M-2922.39,1393.59c6-13.45,19.38-25.57,34.86-25.05C-2902.84,1369.46-2915.11,1380.73-2922.39,1393.59Z" transform="translate(3038.44 -1352.19)"/><path class="cls-33" d="M-2900.5,1380.65c-11.5,8.34-20.36,19.85-26.79,32.42C-2922.16,1400.05-2912.66,1387.79-2900.5,1380.65Z" transform="translate(3038.44 -1352.19)"/><path class="cls-33" d="M-2903.34,1392.8c-9.85,9.36-18.37,20.71-22.5,33.78C-2923.06,1413.21-2914,1401-2903.34,1392.8Z" transform="translate(3038.44 -1352.19)"/><path class="cls-33" d="M-2849.23,1395.34c-3.62,13.06-1.6,26.91,3.89,39.11C-2852.06,1422.87-2854,1408-2849.23,1395.34Z" transform="translate(3038.44 -1352.19)"/><path class="cls-30" d="M-2822.52,1381.82a56.36,56.36,0,0,1,13.69,32.79A85.08,85.08,0,0,0-2822.52,1381.82Z" transform="translate(3038.44 -1352.19)"/><path class="cls-32" d="M-2837.91,1372.39s21.67,18.08,26.3,42.68C-2810.19,1424.53-2807.63,1388.69-2837.91,1372.39Z" transform="translate(3038.44 -1352.19)"/><path class="cls-33" d="M-2840.09,1373.39c14.74,10.72,27.3,28.43,27.61,47.17C-2814.17,1401.91-2826.16,1385.21-2840.09,1373.39Z" transform="translate(3038.44 -1352.19)"/><path class="cls-33" d="M-2840.91,1361.55c19.53,6,33.84,24.15,38.08,43.66C-2808.46,1386-2821.78,1368.84-2840.91,1361.55Z" transform="translate(3038.44 -1352.19)"/><path class="cls-21" d="M-2834.27,1436.14c0.39-5.1,1.93-11.08,5.82-14.65,11.21-10.28,6.77,10.6,6.59,16.43-0.09,3.08-5.15,28.91-13.51,18.36C-2838.2,1452.71-2832.11,1441.87-2834.27,1436.14Z" transform="translate(3038.44 -1352.19)"/><path class="cls-22" d="M-2833.22,1457.68c-6.94-1.11-.67-10.45-0.59-14.44,0.15-7.53-1.95-13.22,3.41-20.11,10.9-14,9,2.77,8.93,10.41-0.08,7.26.61,26.16-11.74,24.14C-2836.28,1457.19-2832.48,1457.8-2833.22,1457.68Zm-2.52-2.75c2.88,10.15,12.73-8,13.15-10.84s2.15-24.61.31-25.44c-11.8-5.29-12.29,33.55-13.46,36.28C-2835.64,1455.3-2835.16,1453.58-2835.74,1454.93Z" transform="translate(3038.44 -1352.19)"/><path class="cls-22" d="M-2825.7,1429.55c-7.3,5.64-.7,20.5-7.35,23.44C-2826.06,1448.78-2835.29,1434.88-2825.7,1429.55Z" transform="translate(3038.44 -1352.19)"/><path class="cls-22" d="M-2830.64,1442.57c0.45-2.86,2.54-4.65,5.31-4.1A8.12,8.12,0,0,0-2830.64,1442.57Z" transform="translate(3038.44 -1352.19)"/><g class="cls-23"><path class="cls-21" d="M-2822.8,1447c-1.3,3.38-3.21,6-6.55,7.43-0.36.15-3.95,0.76-3.67-.2,0.43-1.49,3.32-5.53,4.14-8,1.14-3.4.8-6.17,4.71-7.57-2.3-1-.3-2.62-4.8-1,0.3-1.3,5.71-8.59,5.3-9.28-2-3.4-8.27,4.24-8.81,3-0.61-1.41.56-4.52,1-5.88-2.79,5.43-2,8.65-2,14.08,0,3-3.36,12.25-2.5,14.62,3.53,9.76,15.81-5,13.15-7.21C-2827,1458.08-2822.75,1447.08-2822.8,1447Z" transform="translate(3038.44 -1352.19)"/></g><path class="cls-63" d="M-2847.45,1588.75c12.73-1.14,20-10.18,22.94-21.81,1.91-7.63,5.36-19.82,3.65-27.5-2-8.89-19.05-20.76-28.25-20.3s-17.1,16.05-20.11,24c-3-8.28-10.11-15.05-17.63-19.39a44.85,44.85,0,0,0-5.9,16.73c-1.44,13,6.14,14.83,13.46,22.61,11.87,12.61,8,27.82,31.85,25.69C-2826.2,1586.84-2868.27,1590.61-2847.45,1588.75Z" transform="translate(3038.44 -1352.19)"/><path class="cls-26" d="M-2856.39,1589c-8.29-1.49-12.56-5.78-16.29-12.88-1.88-3.57-3.29-7.59-5.76-10.83-3.89-5.09-10.21-6.9-13.23-13-2.24-4.54-2.14-27.23,4.85-29,5.33-1.36,16.19,15.28,17.6,18.66,3-7.46,10.8-22.55,19.49-23.42,9.59-1,27.32,12.13,29.31,20.9,1.83,8-1.7,20.83-4,29C-2828.46,1583.16-2840.82,1591.43-2856.39,1589Zm-15.23-12.71c4.92,14,25.63,15.43,36.41,7.67,9-6.49,10.43-17.36,12-27.46,1.26-7.94,3.84-16.23-1.45-23-4.71-6-12.68-9.61-19.67-12.22-6.25-2.33-6.38-2.4-11.23,1.72-6.26,5.32-10.9,13.86-13.68,21.43-2.8-8.51-9.86-15.57-17.46-20.05-5.23,9.38-9.69,23.75-.74,32.3,4,3.87,6.6,3.88,9.88,8.4A57.56,57.56,0,0,1-2871.62,1576.26Z" transform="translate(3038.44 -1352.19)"/><path class="cls-50" d="M-2886.7,1532.74c-0.66.76,0.68-.72,0,0h0Z" transform="translate(3038.44 -1352.19)"/><path class="cls-50" d="M-2884.36,1530.13c-0.67.77,0.69-.74,0,0h0Z" transform="translate(3038.44 -1352.19)"/><path class="cls-50" d="M-2882.54,1536c-0.83.92,0.82-.93,0,0h0Z" transform="translate(3038.44 -1352.19)"/><path class="cls-50" d="M-2879.22,1532.81h0Z" transform="translate(3038.44 -1352.19)"/><path class="cls-50" d="M-2879.49,1538.73c-0.6.71,0.64-.68,0,0C-2879.61,1538.87-2879.36,1538.6-2879.49,1538.73Z" transform="translate(3038.44 -1352.19)"/><path class="cls-50" d="M-2877.74,1536c-0.93,1,.88-1,0,0h0Z" transform="translate(3038.44 -1352.19)"/><path class="cls-50" d="M-2876.82,1541.75h0Z" transform="translate(3038.44 -1352.19)"/><path class="cls-50" d="M-2874.45,1540.33c-0.82.93,0.84-1,0,0h0Z" transform="translate(3038.44 -1352.19)"/><path class="cls-50" d="M-2873.81,1546.17c-0.66.75,0.67-.71,0,0h0Z" transform="translate(3038.44 -1352.19)"/><path class="cls-50" d="M-2863.33,1544c-0.67.76,0.69-.72,0,0h0Z" transform="translate(3038.44 -1352.19)"/><path class="cls-50" d="M-2864.31,1541c-0.93,1,.9-1.09,0,0C-2864.44,1541.18-2864.2,1540.9-2864.31,1541Z" transform="translate(3038.44 -1352.19)"/><path class="cls-50" d="M-2862.43,1537c-0.85.93,0.84-.95,0,0h0Z" transform="translate(3038.44 -1352.19)"/><path class="cls-50" d="M-2859.37,1539.69c-0.83.94,0.84-1,0,0h0Z" transform="translate(3038.44 -1352.19)"/><path class="cls-50" d="M-2859.06,1532.09c-0.94,1,.89-1,0,0h0Z" transform="translate(3038.44 -1352.19)"/><path class="cls-50" d="M-2856.58,1535.63c-0.68.79,0.7-.77,0,0h0Z" transform="translate(3038.44 -1352.19)"/><path class="cls-50" d="M-2855,1532.05c-0.56.66,0.59-.6,0,0C-2855.12,1532.19-2854.87,1531.92-2855,1532.05Z" transform="translate(3038.44 -1352.19)"/><path class="cls-50" d="M-2856.91,1528.5c-0.87.93,0.85-.93,0,0h0Z" transform="translate(3038.44 -1352.19)"/><path class="cls-50" d="M-2851.86,1528.62c-0.43.54,0.5-.51,0,0C-2852,1528.76-2851.74,1528.48-2851.86,1528.62Z" transform="translate(3038.44 -1352.19)"/><path class="cls-50" d="M-2849.56,1533.27h0Z" transform="translate(3038.44 -1352.19)"/><path class="cls-50" d="M-2847.86,1528.93c-0.72.81,0.75-.81,0,0h0Z" transform="translate(3038.44 -1352.19)"/><path class="cls-50" d="M-2844.84,1531.21c-0.86.94,0.84-1,0,0h0Z" transform="translate(3038.44 -1352.19)"/><path class="cls-50" d="M-2849.57,1524.15c-0.91,1,.9-1,0,0h0Z" transform="translate(3038.44 -1352.19)"/><path class="cls-50" d="M-2844.89,1525.9h0Z" transform="translate(3038.44 -1352.19)"/><path class="cls-50" d="M-2840.42,1528.19c-0.58.68,0.61-.63,0,0C-2840.54,1528.33-2840.29,1528.06-2840.42,1528.19Z" transform="translate(3038.44 -1352.19)"/><path class="cls-50" d="M-2836.11,1530.91c-0.88.94,0.84-.92,0,0h0Z" transform="translate(3038.44 -1352.19)"/><path class="cls-50" d="M-2832.84,1533.68c-0.87.95,0.85-1,0,0h0Z" transform="translate(3038.44 -1352.19)"/><path class="cls-50" d="M-2829.44,1531.41c-0.58.68,0.61-.63,0,0C-2829.56,1531.55-2829.31,1531.28-2829.44,1531.41Z" transform="translate(3038.44 -1352.19)"/><path class="cls-50" d="M-2826.29,1534.27h0Z" transform="translate(3038.44 -1352.19)"/><path class="cls-50" d="M-2836.75,1527.38c-0.66.77,0.71-.78,0,0h0Z" transform="translate(3038.44 -1352.19)"/><g class="cls-23"><path class="cls-64" d="M-2845.37,1585.63c-19.69,2.84-23.94-8.53-31.2-23.73,7-.92,10.81-1.84,18-1.13,5.84,0.57,12.29.68,17.82-1.6,4.18-1.72,8-4.54,9.55-8.93-4.11,5.32-9.82,7.62-16.31,8.51a156.39,156.39,0,0,1-28.4.83c-9.66-.61-15.8-8.24-17.05-17.48-0.63,8.74,3,12,8.84,17.44a53.69,53.69,0,0,1,11.32,15.25c2.87,5.45,5,9.77,11.36,12.4,12.56,5.2,27.86,0,34.06-12,1.54-3,7.07-21.42,5-22.84-1.41,14.06-7.06,30.93-23,33.24h0Z" transform="translate(3038.44 -1352.19)"/></g><g class="cls-5"><path class="cls-25" d="M-2851.33,1518.51a58.64,58.64,0,0,0-17.9,24.6c-2.44-6.68-7.55-12.24-13.17-16.44,5.27,5.59,11.56,12.74,13.12,20.51,2.72-7.64,11.68-24.65,20.35-25.55,12.19-1.27,21.81,12.21,28,19.71C-2820.37,1528.4-2841.36,1521.15-2851.33,1518.51Z" transform="translate(3038.44 -1352.19)"/></g><path class="cls-50" d="M-2886.74,1525.91c-4.11,8.22-5.48,17.83-1.5,26.32C-2893.46,1544.2-2892.08,1533.59-2886.74,1525.91Z" transform="translate(3038.44 -1352.19)"/><path class="cls-50" d="M-2850.82,1521.89c-7.19,7.84-14.73,16.84-17.29,27.4C-2866.88,1538.52-2858.81,1528.67-2850.82,1521.89Z" transform="translate(3038.44 -1352.19)"/><path class="cls-50" d="M-2873.73,1564.3c5.93,13,10.29,20.46,25.34,20.47C-2863.31,1586.53-2869.38,1577.34-2873.73,1564.3Z" transform="translate(3038.44 -1352.19)"/><path class="cls-65" d="M-2859.75,1670.07a0.51,0.51,0,0,1,0-.09A0.77,0.77,0,0,0-2859.75,1670.07Z" transform="translate(3038.44 -1352.19)"/><path class="cls-50" d="M-2883.15,1611c-16.22,6.34-33.38,17.77-38.63,35.33C-2917.88,1628.4-2899.77,1615.95-2883.15,1611Z" transform="translate(3038.44 -1352.19)"/><path class="cls-50" d="M-2905.94,1606.16c-16.59,1.74-31.29,11.11-37.92,26.58C-2938.6,1616.66-2922.64,1606.35-2905.94,1606.16Z" transform="translate(3038.44 -1352.19)"/><path class="cls-50" d="M-2961.26,1612.62c6.83-7.65,17.87-10.7,27.83-9.67C-2943.45,1603.24-2953.53,1606-2961.26,1612.62Z" transform="translate(3038.44 -1352.19)"/><path class="cls-50" d="M-2838,1611.62c3.23,17.31-2,37.07-15.46,48.86C-2841,1647.72-2836.19,1629.14-2838,1611.62Z" transform="translate(3038.44 -1352.19)"/><path class="cls-50" d="M-2862.11,1610c-3.35,19.68-29.56,25.78-26.74,46.16C-2893,1636.34-2866.65,1628.41-2862.11,1610Z" transform="translate(3038.44 -1352.19)"/><path class="cls-50" d="M-2820.65,1608.55c8,12.4,5.73,30,1.21,43.18C-2816.17,1638.06-2813.75,1621.59-2820.65,1608.55Z" transform="translate(3038.44 -1352.19)"/><path class="cls-50" d="M-2947.22,1591.45c8.82-1.41,18.2.69,26.41,3.91C-2929.44,1593.29-2938.3,1591.33-2947.22,1591.45Z" transform="translate(3038.44 -1352.19)"/><g class="cls-23"><path class="cls-27" d="M-2875.2,1589c3.87-4.3,3.42,2.86,2.85,4.73,3.6-4.19,7.66-2.46,7.85,3,5.05-3.9,18.67-2,20.87,4.67,2.81-5.91,8.8-7.41,13.73-2.76-3.37-13.48,15.31-8.68,20.27-2.85-1.26-2.93-6.46-12.45-.51-11.76,5.23,0.6,9,15.4,9.3,18.79,4.6-3.35-8.79-21.18-11-23.16s-8-6.79-10.47-6.09c-0.79.22-2.35,3.7-3,4.26-14.23,13.14-28,17-45.24,4.21a29.75,29.75,0,0,1-7.21,8.62l2.51-1.72C-2872.2,1585.71-2876,1589.9-2875.2,1589Z" transform="translate(3038.44 -1352.19)"/></g><path class="cls-66" d="M-2847.45,1588.75c-9.57.85-21-2-24.44-12-7.19,24.82,66.89,25.29,47.66-11.61-1.59,12.37-10.45,22.46-23.22,23.61C-2868.27,1590.61-2826.2,1586.84-2847.45,1588.75Z" transform="translate(3038.44 -1352.19)"/><path class="cls-67" d="M-2853.33,1595.09c-10.39-1.7-19.72-7.75-19.22-18.69l0.92-.14c8.63,25.19,45.6,9.6,47.09-12.67,11.72,20-10.33,34.43-28.8,31.5h0Zm-18.38-16.71c-5,21.79,63.82,23.23,47.71-11.77-3.76,20.36-37,34.75-47.71,11.77C-2871.95,1579.38-2870.38,1581.27-2871.72,1578.38Z" transform="translate(3038.44 -1352.19)"/><g class="cls-5"><path class="cls-66" d="M-2824.23,1565.14c-2.75,21.23-39.07,36.73-47.66,11.61a10.76,10.76,0,0,0,.57,7.18c2.48-1.16,4.68,2.24,7.63,3.72a28,28,0,0,0,11,2.93c3.12,0.17,14.55-4.12,15.9-3.46,2.72,1.32.12,3.22-1.75,4.77-6.88,5.71-16.47-1.94-23.12,0C-2844.11,1600.16-2812,1588.65-2824.23,1565.14Z" transform="translate(3038.44 -1352.19)"/></g></g></g></svg>