<svg xmlns="http://www.w3.org/2000/svg" xmlns:xlink="http://www.w3.org/1999/xlink" viewBox="0 0 248.39 539.73"><defs><style>.cls-1{isolation:isolate;}.cls-16,.cls-2,.cls-6{fill:#f5bc92;}.cls-3{fill:#9b4d05;}.cls-4{fill:#ac6000;}.cls-12,.cls-14,.cls-16,.cls-20,.cls-21,.cls-33,.cls-35,.cls-37,.cls-38,.cls-44,.cls-5,.cls-50,.cls-65,.cls-66{mix-blend-mode:multiply;}.cls-33,.cls-37,.cls-49,.cls-6,.cls-63,.cls-64{opacity:0.5;}.cls-10,.cls-17,.cls-28,.cls-30,.cls-36,.cls-40,.cls-49,.cls-55,.cls-6,.cls-62,.cls-64{mix-blend-mode:screen;}.cls-12,.cls-7{fill:#b71800;}.cls-8{fill:#661303;}.cls-30,.cls-9{fill:#da1800;}.cls-10,.cls-13{fill:#e41800;}.cls-11{fill:none;}.cls-14,.cls-15{fill:#f7c7a2;}.cls-17{fill:#eda472;opacity:0.3;}.cls-18,.cls-21{fill:#a33212;}.cls-19{fill:#a31227;}.cls-20,.cls-21,.cls-65,.cls-66{opacity:0.6;}.cls-22,.cls-28{fill:#a34c12;}.cls-23{fill:#a32912;}.cls-24{fill:#a36412;}.cls-25{fill:#a33b12;}.cls-26{fill:#a25806;}.cls-27{fill:#a32312;}.cls-29{fill:#a8a8a8;}.cls-31{fill:#cf5030;}.cls-32{fill:#841a06;}.cls-33,.cls-35,.cls-38,.cls-39{fill:#a7422c;}.cls-34{fill:#f27a45;}.cls-35,.cls-44{opacity:0.8;}.cls-36,.cls-41{fill:#ffa45e;}.cls-42{fill:#ffd5b8;}.cls-43{fill:#b26118;}.cls-45,.cls-64{fill:#561f00;}.cls-46{fill:#6f0003;}.cls-47{fill:url(#linear-gradient);}.cls-48,.cls-49{fill:#ff755c;}.cls-50{opacity:0.4;}.cls-51{fill:#b5a091;}.cls-52{fill:url(#radial-gradient);}.cls-53{fill:url(#radial-gradient-2);}.cls-54{fill:url(#linear-gradient-2);}.cls-55{fill:url(#linear-gradient-3);}.cls-56{fill:#63a587;}.cls-57,.cls-63{fill:#fff;}.cls-58{fill:#603008;}.cls-59{fill:url(#radial-gradient-3);}.cls-60{fill:url(#radial-gradient-4);}.cls-61{fill:url(#linear-gradient-4);}.cls-62{fill:url(#linear-gradient-5);}.cls-65{fill:url(#radial-gradient-5);}.cls-66{fill:url(#radial-gradient-6);}</style><linearGradient id="linear-gradient" x1="-2182.4" y1="2065.74" x2="-2165.65" y2="2065.74" gradientUnits="userSpaceOnUse"><stop offset="0.07" stop-color="#eed8c7"/><stop offset="0.46" stop-color="#fff"/><stop offset="1" stop-color="#dfb798"/></linearGradient><radialGradient id="radial-gradient" cx="-2491.07" cy="685.11" r="17.44" gradientTransform="matrix(1, -0.45, 0.41, 0.91, 31.15, 276.64)" gradientUnits="userSpaceOnUse"><stop offset="0.33" stop-color="#fff"/><stop offset="1" stop-color="#dfb798"/></radialGradient><radialGradient id="radial-gradient-2" cx="-2570.46" cy="583.44" r="18.22" gradientTransform="matrix(0.96, -0.48, 0.45, 0.9, 40.96, 278.71)" xlink:href="#radial-gradient"/><linearGradient id="linear-gradient-2" x1="-2895.32" y1="14.38" x2="-2895.32" y2="31.61" gradientTransform="translate(166.37 316.63) rotate(-35.87)" gradientUnits="userSpaceOnUse"><stop offset="0.01" stop-color="#232533"/><stop offset="0.78" stop-color="#0d7480"/><stop offset="1" stop-color="#63a587"/></linearGradient><linearGradient id="linear-gradient-3" x1="-2900.64" y1="23.73" x2="-2888.14" y2="23.73" gradientTransform="translate(166.37 316.63) rotate(-35.87)" gradientUnits="userSpaceOnUse"><stop offset="0.01" stop-color="#232533"/><stop offset="0.78" stop-color="#0d7480"/><stop offset="1" stop-color="#63a587"/></linearGradient><radialGradient id="radial-gradient-3" cx="3576.52" cy="609.74" r="14.5" gradientTransform="matrix(-0.97, 0.47, 0.42, 0.9, 989.71, -173.75)" xlink:href="#radial-gradient"/><radialGradient id="radial-gradient-4" cx="3613.87" cy="738.55" r="14.64" gradientTransform="matrix(-0.96, 0.42, 0.38, 0.92, 985.96, -164.52)" xlink:href="#radial-gradient"/><linearGradient id="linear-gradient-4" x1="-2948.03" y1="-58.37" x2="-2948.03" y2="-44.51" gradientTransform="matrix(0.8, -0.59, 0.59, 0.8, 195.64, 338.21)" xlink:href="#linear-gradient-2"/><linearGradient id="linear-gradient-5" x1="-2951.85" y1="-50.8" x2="-2942.22" y2="-50.8" gradientTransform="matrix(0.8, -0.59, 0.59, 0.8, 195.64, 338.21)" xlink:href="#linear-gradient-3"/><radialGradient id="radial-gradient-5" cx="-2752.87" cy="800.43" r="15.5" gradientTransform="translate(83.94 254.96) rotate(-22.35)" gradientUnits="userSpaceOnUse"><stop offset="0.44" stop-color="#f58f92"/><stop offset="0.99" stop-color="#fff"/></radialGradient><radialGradient id="radial-gradient-6" cx="3923.87" cy="-266.31" r="11.57" gradientTransform="matrix(-0.75, 0.66, 0.66, 0.75, 905.38, -340.66)" xlink:href="#radial-gradient-5"/></defs><title>fairy_12</title><g class="cls-1"><g id="Layer_1" data-name="Layer 1"><path class="cls-2" d="M-2141.78,2289.19c-1.18-8.46-2.85-16.85-4.66-25.19-0.82-3.76-1-12.55-3.61-15.5-3.56-4-13.15-4.32-17.76-3.37-3.52.73-17.33,6-18.56,9.92-1.77,5.7,11.47,25.27,14.25,30.71,2.11,4.13,3.64,5.17,1.79,8.52-1.6,2.89-7.65,5.89-10.26,8.13a100.46,100.46,0,0,0-16.5,17.76c-4.29,6-7.27,12.81-11.4,18.91-4.35,6.44-8.07,6.78-13.49,10.58-10.68,7.49-.33,33.18,5.69,42.55,3.35,5.21,9.91,13,16.38,7.8,7.39-5.93.46-18.54-1.63-25.17-4.15-13.2-5.14-20.48,6.38-29,11.68-8.64,23.59-17,35.39-25.45,12.69-9.11,20.38-14.09,18-31.2C-2144.28,2271.28-2139.29,2307.1-2141.78,2289.19Z" transform="translate(2287.41 -1920.97)"/><path class="cls-3" d="M-2204.35,2402.31c-14.31-2.11-20.58-26.8-22.31-38.76-2.39-16.51,7.19-11.6,15.27-21.12,9.82-11.59,14.72-25.62,26.09-36.37,3.42-3.23,7.07-6.21,10.77-9.1,5.06-4,5-2.91,3.44-8.29-2-7-7-14-10.1-20.63-4.56-9.68-8.9-11.59.62-17.37,8.17-5,24.24-11.06,31.18-1.24,2.61,3.7,2.89,12.28,3.81,16.62,1.91,9,4.11,18.2,4.7,27.36,0.9,14-6.22,18.38-16.57,25.83-13.77,9.9-31.31,19-43.13,31.18-7.12,7.35-3.22,15.9-.48,24.58C-2199.18,2381-2190.54,2402.31-2204.35,2402.31Zm-19.33-51.91c-7.52,9.93,4.45,51.92,19.32,51.09,17.39-1-5.43-39.06.39-48.75,4-6.64,14.79-11.79,20.82-16.13,8.39-6,16.81-12,25.19-18.05,5-3.6,12-7.15,14.85-12.91,3.9-8,.59-19.17-0.9-27.35-1.39-7.6-1.77-20.29-5.8-27-4.28-7.12-14.08-7.28-21.89-4.42-6.1,2.23-13.46,5.4-13.4,10.88,0.07,6.39,8.09,17.3,10.9,23,5.52,11.16,8.51,10.13-1.38,18a113.25,113.25,0,0,0-18.3,17.72c-9.48,11.91-13.49,30.41-29.82,33.9C-2225.65,2353-2223.1,2350.28-2223.67,2350.4Z" transform="translate(2287.41 -1920.97)"/><path class="cls-2" d="M-2101.9,2229.28l-23.77-9.63c-4.24,14.26-9.9,28.28-10.72,43.16-1,18.95-3.3,37.82-4.13,56.77-0.91,20.56,1.15,41.28-.06,61.79a95.21,95.21,0,0,1-6.93,29.16c-2.85,7.25-10.18,18.46-5.45,26.51,3.53,6,11,6,16.27,2.7,7.1-4.51,7.29-11.8,8.1-19.29,0.76-7,3.91-14.33,4.54-21,0.54-5.62-2.67-10.7-2.06-16.7,1.57-15.44,7.89-31,10.39-46.47,3.49-21.5,2.7-43.2,7.07-64.56C-2105.76,2257.67-2103.64,2243.55-2101.9,2229.28Z" transform="translate(2287.41 -1920.97)"/><path class="cls-3" d="M-2143.95,2442.51c-11.54,0-11.65-12.2-9.12-20.2,4.14-13.14,10.63-24.39,11.87-38.51,2.5-28.49-.7-57.39,1.82-86,1.28-14.56.57-30.27,3.32-44.59,2.2-11.45,6.81-22.87,10.14-34.06l18.13,7.34c7.06,2.86,6.45,2,5.45,9.65-1.64,12.66-3.78,25.11-6.29,37.62-3.18,15.81-2.86,31.51-4.59,47.45a317.87,317.87,0,0,1-7.14,40.36c-2.15,8.91-6.81,18.73-5.36,28,0.8,5.1,1.86,7.38,1.1,12.34-0.43,2.8-1.42,6-1.9,8.91C-2128.33,2421.86-2127.75,2442.51-2143.95,2442.51Zm8.39-188.17c-0.75,18.75-2.77,37.39-4,56.1-1.61,23.69.85,47.45-.58,71.08-0.78,12.93-5.09,24.47-9.94,36.33-3,7.27-7.67,19.39,2.75,23.28,18.79,7,21-29.09,22-39.56,0.55-5.91-1.56-11.07-1.37-17.3,0.25-8.64,4.41-17.75,6.35-26.19,4.93-21.41,6.24-42.45,7.84-64.24,0.91-12.48,4.34-24.55,6.41-36.85,1-6.14,5-18.35,3.39-24.19-1.41-5.07-2.4-4.39-8.67-6.93l-14-5.66Z" transform="translate(2287.41 -1920.97)"/><path class="cls-4" d="M-2168.41,2292.84a15.45,15.45,0,0,1,3.35,5.55A15.15,15.15,0,0,1-2168.41,2292.84Z" transform="translate(2287.41 -1920.97)"/><path class="cls-4" d="M-2118.71,2291.38a7.35,7.35,0,0,1-4.57,6.53A20.54,20.54,0,0,0-2118.71,2291.38Z" transform="translate(2287.41 -1920.97)"/><path class="cls-4" d="M-2220.71,2354a12.35,12.35,0,0,0-2,10A7.8,7.8,0,0,1-2220.71,2354Z" transform="translate(2287.41 -1920.97)"/><g class="cls-5"><path class="cls-2" d="M-2101.9,2229.28l-23.77-9.63c-2.89,9.72-6,19.41-8.69,29.2-3.08,11.34-2.53,23.3-3.44,35,2-5.59,3.4-37,16.55-25.65,6.6,5.68,3.61,26.6-.24,32.72-5,7.88-15.34,7.79-16.31-2.86-3.08,7.58-2.14,20.22-2.56,28.17,2.1-9.75,10.57-17.74,15.54-5.65,4.58,11.13,2.1,27.22.69,38.69-1.43,11.67-6,24.05-5.56,35.87,0.16,4.43,2.43,8.83,1.93,13.15-0.69,6-2.83,13.54-3.94,19.86-1.06,6.06-4.19,19.05-13.45,16.16-11.24-3.51-1.05-23.1,1-29.55,3.23-10.17,6.41-22,3.6-32.71,0.36,17.83-5,31.53-11,47.91-3.78,10.27-1.59,28.22,13.67,20.54,11.49-5.79,8.91-21.53,11.11-32,1.16-5.57,2.6-8.59,2.15-14.08-0.39-4.83-2-7.84-1.25-13,4.08-27.16,12.55-52.23,13.47-80.16C-2111.62,2277.17-2104.83,2253.27-2101.9,2229.28Z" transform="translate(2287.41 -1920.97)"/></g><g class="cls-5"><path class="cls-2" d="M-2159.94,2297.16c-3.45-7.25-9.36-18.71-4.91-26.76,7.31-13.23,18-1.68,21.22,7.57-2.25-12.2-1-30.55-15.71-33-8.25-1.37-26.62,4.42-26.09,13,0.31,5,6.31,13.53,8.45,18,1.78,3.67,4.36,7.49,5.63,11.35,2,6,3.7,2.6-.93,8.4s-12.4,9.87-17.57,15.48a102.16,102.16,0,0,0-12.74,17.56c-3.73,6.32-7.08,15.3-13.87,19.09-5.07,2.83-8,.74-10,7.39-3.33,10.72,7.06,39,16.87,44.48,20.66,11.45,7.57-25.39,5.9-32.1-4.31-17.26,9.24-21.93,21.42-31.22-6.66,4.89-20.71,10.2-24.68,17-5.79,10,7.87,24.83,7.28,35.77-0.77,14.18-12.45,4-15.77-3.58-3.54-8.07-11.63-24.3-4.57-31.67,4.27-4.45,8.94-5.39,13-10.67,8.59-11.18,17.2-23.37,29.51-30.75,3.95-2.37,18-9.6,21.2-2.11,2.94,6.94-9,12.93-12.68,16.56,7.71-5.51,20-11.55,25.36-19.52-6.32,5.61-14.27-6-16.31-10.3h0Z" transform="translate(2287.41 -1920.97)"/></g><path class="cls-6" d="M-2138.45,2323.29c-0.31,6.27-.46,12.55-0.52,18.83-0.09,8.22-2.88,23.4.86,30.83-1.5-3,1.57-53.32.57-52.83A6.88,6.88,0,0,0-2138.45,2323.29Z" transform="translate(2287.41 -1920.97)"/><path class="cls-6" d="M-2165.09,2321.57s-24.84,19.38-34.94,24.3C-2203.58,2347.78-2162.36,2316.93-2165.09,2321.57Z" transform="translate(2287.41 -1920.97)"/><path class="cls-7" d="M-2195.32,2419.5c-13-.64-21.7-9-25.67-20.81s-12.42-29.44-11.62-42c-4.24,8.21.94,16.78,4.08,24.31,3.38,8.08,3.81,17.45,8.06,25.12,3.69,6.66,36.26,26.74,34.77,8.94-1.24,4.08-6,4.63-9.62,4.44C-2203.51,2419.1-2189.84,2419.78-2195.32,2419.5Z" transform="translate(2287.41 -1920.97)"/><path class="cls-8" d="M-2194.19,2422.49c-15.6,0-26.45-12.5-30.13-26.22a187.54,187.54,0,0,0-7.27-21c-0.44-1.1-5.6-20.28-.91-19-0.59-.17,6.43,23.43,7,25.25,2.77,8.91,3.84,19.71,9.64,27.21a27.46,27.46,0,0,0,16.1,9.72c2.27,0.48,5.64,1.17,8,.5,0.7-.2,6.75-4.26,6.14-4.33C-2182.16,2415.13-2191.61,2422.49-2194.19,2422.49Zm-38.88-63.63c-2.58,7.94,2.31,15.6,5.22,22.64,2.83,6.85,3.33,14.41,6.23,21.16,3.19,7.43,31.35,30.77,35.38,14.37-7.22,9.73-26.82-2.37-31.33-9.14-4.93-7.39-6.09-17.73-8.71-26.09-2.33-7.43-6.66-15-6.79-22.95C-2233.91,2361.43-2233,2362.35-2233.07,2358.86Z" transform="translate(2287.41 -1920.97)"/><path class="cls-9" d="M-2230.54,2368.73c7.59,17.45,6.86,43.12,28.4,49.53,5.79,1.72,15.8,3.05,16.11-4.89,0.27-7-8.65-19-11.1-25.65,1.19,5.24-.32,12.8-6.37,14-6.73,1.3-12.22-8.09-14.76-13-4.76-9.24-12.85-29.32-5.63-38.64-9.76,2.22-10.08,10.77-6.64,18.69C-2226.44,2378.15-2232.5,2364.21-2230.54,2368.73Z" transform="translate(2287.41 -1920.97)"/><path class="cls-8" d="M-2194.13,2419.94c-18-.22-25-13.28-29.39-28.61-2.58-9-9.55-21.3-9.44-30.45,0-2.86,6.55-15.67,9.4-11.07a56.49,56.49,0,0,1-2.57,5.68c-0.63,3.91.14,6.8,1,10.56,1.55,6.78,3.29,13.86,6.21,20.18,2.35,5.07,7.58,15.65,14.57,15.26,8.76-.49,4.8-13.45,7.09-14.17C-2200.81,2388.26-2171.61,2419.94-2194.13,2419.94Zm-38.08-63.14c-0.67,11.17,6.41,23.69,9.47,34.31,2.95,10.21,5.23,19.24,15.22,24.58,4.15,2.21,16.73,6.63,20.28,1.24s-7.07-20.65-9.11-25.94c0.31,22.25-19.09,4.69-23.3-4.36s-11.34-26.67-5.25-35.94a12.59,12.59,0,0,0-7.32,6.11C-2232.46,2360.92-2230.63,2353.8-2232.21,2356.81Z" transform="translate(2287.41 -1920.97)"/><g class="cls-5"><path class="cls-7" d="M-2208.17,2412.86c-2.15-1.58-9.29-7.81-8.06-11.4,1.66-4.84,2.33-1.29,6.39.88,5.35,2.86,6.61,3.39,12.48,1.58,1.09-.33,2.21-3.51,3.41-3.45,2.4,0.1,4.12,4.95,5.15,6.55a202.65,202.65,0,0,1-8.35-19.3c1.19,5.24-.32,12.8-6.37,14-6.73,1.3-12.22-8.09-14.76-13-4.76-9.24-12.85-29.32-5.63-38.64-12.41,2.82-8.23,13.7-5.18,22.25,3.36,9.43,5.16,19.51,8.79,28.79,3.16,8.1,8.45,13.8,16.71,16.74,5.27,1.88,21,3.93,17-6.16,2.91,10-18.78,3.21-21.53,1.2h0Z" transform="translate(2287.41 -1920.97)"/></g><path class="cls-10" d="M-2190.56,2408.46c-4,6.31-8.8.59-13.31,3.28-0.67.4,8.68,5.32,11.9,3.49S-2188.86,2407.05-2190.56,2408.46Z" transform="translate(2287.41 -1920.97)"/><path class="cls-10" d="M-2205.64,2411a1.3,1.3,0,0,1-2.16-.86,1.3,1.3,0,0,1,2.16.86h0Z" transform="translate(2287.41 -1920.97)"/><path class="cls-7" d="M-2152.53,2456.15c-5.42-1.72-10.21-5.76-9.69-11.9-3.47,12.7,7.81,17,18.6,15.83,16.33-1.83,17.28-14.93,17.11-28.94-0.83,14.63-8.9,30.46-26,25h0Z" transform="translate(2287.41 -1920.97)"/><path class="cls-8" d="M-2146.88,2460.69c-4.85,0-11.76-1-14.87-5.32-1.17-1.64-2.78-11.91-.39-11.52-0.93-.17,3.89,8.77,4.81,9.5,4.35,3.45,11.9,4.54,17.12,2.59,4.67-1.74,7.8-5.5,9.95-9.86,0.86-1.74,3.9-15.34,3.76-15.35,1.78,0-.73,18.14-1.44,19.73C-2131.26,2458-2139,2460.69-2146.88,2460.69Zm-15.58-13.37c-2,13.06,16,14.45,24.69,11.12,9.24-3.52,10.46-10.9,10.79-20-1.7,8.65-6.36,17.17-15.64,19-7.19,1.43-18.24-2-19.83-10.11C-2163.39,2453.43-2161.84,2450.52-2162.46,2447.32Z" transform="translate(2287.41 -1920.97)"/><path class="cls-9" d="M-2126.92,2410.72c-2.81,10.13.34,24.07-11,29.8-13.21,6.69-18.08-7.59-14.79-18.1-3.52,7.5-12.83,19.47-8.15,28,3.46,6.31,14.07,8.1,20.35,6,18-6.1,13.3-31.42,13.56-45.69C-2127.86,2414.11-2127,2416.21-2126.92,2410.72Z" transform="translate(2287.41 -1920.97)"/><path class="cls-8" d="M-2145.72,2457.69c-32-.32-5.07-35-6.81-35.64-0.5-.19-1.23,11.54-0.6,13.13,2.31,5.85,8,7.59,13.67,5.51,5.15-1.88,8.35-6.82,9.77-11.91,0.67-2.42.73-18.67,2.83-18.46,2.16,0.38.45,25.88-.4,29.39C-2129.48,2448.86-2135.32,2457.69-2145.72,2457.69Zm-8.4-31.27c-2.92,6.06-9.53,14.94-7.25,21.95,2.37,7.31,13.27,9.72,19.84,7.92,17.42-4.76,14.37-28.61,14.2-42-1.9,9.7,0,22.23-11.21,26.95-10.92,4.58-17.57-4.6-15.58-14.8C-2155,2428.25-2155.12,2431.5-2154.12,2426.42Z" transform="translate(2287.41 -1920.97)"/><path class="cls-11" d="M-2162.23,2444.49c0-.08,0-0.17,0-0.24S-2162.23,2444.34-2162.23,2444.49Z" transform="translate(2287.41 -1920.97)"/><path class="cls-12" d="M-2126.92,2410.72c-2.81,10.13.34,24.07-11,29.8-13.21,6.69-18.08-7.59-14.79-18.1-2.6,5.54-5.52,10.95-7.77,16.64,3.94-4.26,10,6,17.29,5.61,5.5-.28,11.27-6,9.36,1.9-2.89,12-28.76,10.63-28.43-2.09-0.89,13.43,19.3,15.53,27.3,8.79,11.79-9.92,7.76-29.35,8-42.56C-2127.86,2414.11-2127,2416.21-2126.92,2410.72Z" transform="translate(2287.41 -1920.97)"/><path class="cls-10" d="M-2158.72,2443.58c2.56,5.38,12,3.35,13.52,6.16,1.81,3.43-10.67,1.44-11.75.56C-2158.66,2448.91-2160.81,2441.4-2158.72,2443.58Z" transform="translate(2287.41 -1920.97)"/><path class="cls-10" d="M-2140.93,2450.15q-1.43,1.83-2.87,0Q-2142.37,2448.33-2140.93,2450.15Z" transform="translate(2287.41 -1920.97)"/><path class="cls-13" d="M-2227.37,2366.16c0.82,3,8.78,23.33,7.45,24.26-2.35,1.63-6.64-13.76-7-15.15S-2229.92,2363.14-2227.37,2366.16Z" transform="translate(2287.41 -1920.97)"/><path class="cls-6" d="M-2208.06,2369.65c1.4,2.83,7.12,19,5,20.38C-2196.75,2385.81-2207.81,2372.58-2208.06,2369.65Z" transform="translate(2287.41 -1920.97)"/><path class="cls-6" d="M-2145,2415.41c-0.64,2.52-1.48,5.77-1.2,8.36,0.37,3.56,2.94,5,3.61,7.31s-4.89-2.11-5.09-2.42c-1.61-2.47-.16-13.75,2.57-15.51A1.65,1.65,0,0,1-2145,2415.41Z" transform="translate(2287.41 -1920.97)"/><g class="cls-5"><path class="cls-2" d="M-2118.52,2262.21c6.14-2.53,11.3-7.56,11.78.46,1.21-6.2,7.93-28.15,4.67-33.45-2.69-4.38-18.52-7.5-23.6-9.56-4.25,14.27-9.9,28.35-10.73,43.24,1.92-3,8.23-17.28,12.11-16.15,4.48,1.3,5.69,12,5.76,15.46C-2107.86,2257.83-2118.67,2254.76-2118.52,2262.21Z" transform="translate(2287.41 -1920.97)"/></g><g class="cls-5"><path class="cls-2" d="M-2167.82,2245.13c-4.26,1.13-15.18,5-17.45,9.12-1.88,3.44,1.69,7.76,3.68,12,3.82-1.83,8.79-3.87,11.54-7.26,0.47,3.79,1.2,7.88,3.79,10.8,5.16-5.41,16.56-16,20.18-4.08-2.73-12.75-4.09-25.28-21.74-20.58h0Z" transform="translate(2287.41 -1920.97)"/></g><path class="cls-2" d="M-2173.72,2086.29c0.42,6.9-11.46,7.77-16.6,8.49-7.3,1-11,.87-14.16,8.59-4.51,11.09-5.56,21-12.6,31.36-6.59,9.66-14.84,18.09-21.86,27.44-7.43,9.89-12.9,20.56-19.12,31.19-5.51,9.41-13,11.92-20.29,19.31-2.62,2.66-5.39,6.39-6.35,10.11-1.44,5.56,1.23,7.7,1.74,13.11,0.27,2.88-5.24,18.23-4.29,18.67,2.2,1,5.21-4.09,6-5.46,4.25,5.67,5.57-13.39,6.69-15.43,3.62-6.55,10.31-10.52,13.68-4.61,2,3.5-1.49,8.61,2.88,12,5.86,4.58,2.89-1.52,3.36-3.65,1.79-8.2.62-18,1.08-26.2,0.89-15.67,16.81-25.27,27.31-36.2,7-7.26,12.74-15.06,18.79-23.08,5.27-7,13.75-14.34,17-22.56-2.75,10.76,5.21,16.2,10.23,23.94,3.21,5,2.61-2,2.57,7.23a48.31,48.31,0,0,1-1,6.72c-0.39,2.57-1.83,6.07-.77,8.62,5,12,28.1,11.54,37.76,9.32,12.25-2.81,27.3-13.43,26.93-27.48-0.14-5.23-3.53-10.41-3.47-15.86,0.1-8,3.05-15.8.79-24.05-1.12-4.09-7.45-10.63-4.56-14.88,2-3,9.76-3.1,12.86-3.68,16.11-3,32.62-4.72,48.53-8.65,18.41-4.54,17.35-13.49,6.95-27.24-5.38-7.11-11.49-13.69-17.55-20.23-4.23-4.56-15.69-12.92-16.35-19.45-0.28-2.74,2.41-4.82,2.68-7.56,0.45-4.52-2.37-9-4-13-3.84-9.76-4.71-23.31-10.19-32-4.48-7.11-5.18-4.17-3.91,2.31,0.5,2.55,7.51,18.81,4.61,20.37-4.22,2.27-11.83-29-18.26-28.45-2,.18,11.49,31,10,31.49-6.41,2.41-18.22-28.22-23.35-25.7-6.57,3.24,19.6,25.61,15.9,30.72-2.07,2.84-23.06-25.29-25.57-22.17-3.93,4.88,17.64,24.31,20.7,28.26-2.75-1.41-19.89-8.78-20.09-1.16,0-1.72,20,9.87,21.46,11.2,4.91,4.45,9.26,9.82,16.11,11.17,3.45,0.68,4.24-1.36,7,.41,7.33,4.65,11.95,22.09,15.39,29.59,2.38,5.18,4.48,10.67,8.16,15.1-7.47.26-14.77,2.21-22.27,2.45-9.56.31-19.22-2-28.73-.89-7.09.84-31,13.91-32.87,4.62A42.43,42.43,0,0,1-2173.72,2086.29Z" transform="translate(2287.41 -1920.97)"/><path class="cls-3" d="M-2286.8,2255.05c-2.63-4.71,4.17-15.6,3-22.74-1-6.19-3-6.78.5-13.4,2.48-4.74,5.46-7.23,9.8-10.33,11-7.81,15.26-16.61,22-28.17a221.64,221.64,0,0,1,21.68-30.25c9-10.77,18.24-21.69,22.33-35.39,2.72-9.1,2.14-17.53,12.42-20.11,2.78-.7,6-0.4,8.84-1,2.26-.44,6.69-0.94,8.61-2.37,0.15-.11,3.5-4.42,3.54-4.44,4.44-2.57,13.83-3.52,19.78-7.16,0.73,9.57,24.24-3,29.69-4,9.44-1.71,19.12.57,28.59,0.55,8.28,0,16.24-2,24.45-2.46-7-8.69-10.2-20.67-15.15-30.5-1.62-3.21-4.19-10.66-7.36-12.86-3.51-2.43-6.51-.42-11-2.06-6.64-2.42-10.81-9.32-16.17-13.49-4.51-3.5-10.94-4.08-15-7.11-8-5.93,11.54-3.22,16.1-1.08-5.37-6.78-12.63-12.45-17.18-19.85-2.31-3.75-5.51-8.18.62-6.83,1.83,0.4,22.4,21.85,22.52,21.51,2-2.73-22.22-30.89-14.79-30.76,8.59,0.15,13.06,24,22.33,25.6,0.3-4.11-13.42-30.91-9.5-31.48,6.48-.94,13.74,30.22,17.78,28.47,3.62-2-11.9-30.46-2.63-26.26,5.28,2.39,6.61,17.72,8.07,22.57,2.2,7.31,7.93,16.06,8.42,23.61,0.3,4.7-3,7.77-1.81,12.14,1.55,5.61,11.11,12.62,15,16.8,7.26,7.82,28.72,26,26.76,38.32-2.15,13.44-34,13.88-44,15.57-8.28,1.4-21.64,1.3-29.26,5.25-6.19,3.21-3.67,5.19-1.19,11.48,4.17,10.54,1.09,20.24,1.39,31.1,0.27,9.76,5.67,15.1.27,24.7-4,7.07-11.1,12.32-18.56,15.18-10.55,4-36.32,6.15-43-6.6-3.15-6,2.4-12.82,1.25-19.16-1.67-9.17-14.66-13.76-13.45-26.46a308.19,308.19,0,0,1-38.73,47.72c-6.33,6.35-14.2,12.22-19.58,19.46-5.87,7.9-2.67,16.29-3.9,25.58-0.67,5,2.09,21.62-4.84,17-5.2-3.49-.27-14.1-4.82-15.92-6.24-2.49-12.25,11.53-12.83,15.08-0.86,5.22,0,6.45-3.44,10.12C-2278.54,2249.78-2286.36,2255.05-2286.8,2255.05Zm113.53-168.38c0.43,7.58-13.32,7.74-18.71,8.63-8.78,1.46-10.67,3.41-13.11,12.57-6.28,23.6-22.05,38.48-35.92,57.78-7.16,10-11.92,21.3-18.74,31.38-5.31,7.85-13.83,10.43-19.74,17.32-1.86,2.17-4.15,5.7-4.81,8.51-1.15,4.92.72,5,1.28,9.23,0.42,3.21-2.95,22.6-4.05,22.08,1.77,0.82,5.16-4.57,5.79-5.83,4.43,3,3.89-2.15,4.54-5.85,1.19-6.68,1.93-11.76,8.71-15.53,6.25-3.48,5.87-2.17,7.5,3.36,0.13,0.43,2.6,16.44,6.42,11.56,1-1.3-1-11.64-.71-14,0.54-4.73,1.73-9.12,1.6-13.87-0.37-13.67,4.91-17.91,14.83-27.52,8.91-8.63,17.67-17.3,25.13-27.24,6.92-9.22,18.21-19.36,22.48-30,1.49,5.68,1.15,12.07,5.46,18,5.73,7.91,9.21,5.3,7.82,15.38-1.93,14.08-.47,19.47,15.39,22.56,16.37,3.19,37.92-2.51,45-19.14,3.72-8.72-1.35-18.35-.69-27.63,0.75-10.65.14-18.16-3.31-27.17-5.77-15.05,16.53-13.21,27.09-15,10.19-1.72,43.06-2.1,48-13.58,4.69-10.84-17-30.07-23.25-36.83-4.93-5.37-14-12-17-18.73-2.48-5.64,1.3-8.8.48-14.87-1.16-8.67-6.89-18-9.26-26.52-0.27-1-6.47-21.44-8.51-18.73s10.19,28.64,3.83,26.86c-1.66-.46-16.28-29.28-16.89-28.05-2.4,4.11,15.23,31.69,8.6,30.91-7.48-.88-12.81-18.52-18.65-22.52-9.14-6.26,1,7.49,3.16,10.4,1.81,2.46,13.27,16,8.79,17.88-3.21,1.31-14.56-14.24-15.74-15.48-3.65-3.84-11.26-12.1-7.36-2.14,3.57,9.12,14.52,16.41,20.41,24.3-2.3-1.26-21.12-9.68-21.12-2.36,0.39,0.83,16.26,6.36,18,7.79,4.79,3.88,8.51,9.66,14.24,12.3,3.71,1.71,7.65-.25,10.47.85,6.5,2.53,11.2,18.16,13.85,23.88,3.52,7.59,6.36,16.6,12,23-8.77.43-17.29,2.53-26.13,2.53-11,0-21.84-2.55-32.67.53-6.47,1.84-15,7.53-21.79,6.68-4.13-.51-3.26-2.15-6.95-2-5,.2-10.43,4-15.82,4.31C-2173.21,2087.85-2164.32,2086.13-2173.27,2086.68Z" transform="translate(2287.41 -1920.97)"/><path class="cls-11" d="M-2124.89,1983.57q2.83,4,6,7.79a89.43,89.43,0,0,0-6-7.79C-2122.88,1986.39-2124.8,1983.69-2124.89,1983.57Z" transform="translate(2287.41 -1920.97)"/><path class="cls-11" d="M-2125.91,2148.63c-14.27,8.88-27.77,7.64-43.13,10.88-2.73.58-3.69-1-5.44,0.8-3.71,3.82-.43,13.6,2.8,16.31,10.48,8.8,32.36,4.12,42.24-3,4.12-3,9.53-7.62,10.3-13,0.48-3.39-1.86-15.08-6.76-11.93C-2147.62,2162.14-2120.18,2144.95-2125.91,2148.63Z" transform="translate(2287.41 -1920.97)"/><path class="cls-14" d="M-2283,2238.31a16.1,16.1,0,0,0-1.23,5.73c1.4-9,6.11-18,14.12-22.75-1,.35-9.74,6.45-10.38,5.72-1.16-1.32,5.53-8.69,6.39-9.7-2,1.87-5.24,6-7.95,6.81,0.16,0,4.05-8.46,4.09-8.54-0.79.8-6.74,9.18-6.7,7C-2287.35,2228.35-2282.23,2232.33-2283,2238.31Z" transform="translate(2287.41 -1920.97)"/><path class="cls-15" d="M-2124.89,1983.57c-1.18-1.65-2.34-3.31-3.42-4.89A29.37,29.37,0,0,0-2124.89,1983.57Z" transform="translate(2287.41 -1920.97)"/><path class="cls-16" d="M-2255.92,2189.17c-5.23,10.81-11.78,15.25-20.94,22.18,8.64-4.3,20.49-11.57,22.43,3.45,0.38,2.94-.57,23.56-2.05,25-3.1,3-3.1-11.18-3.2-11.57-1.42-5.67-1.69-6-7.67-3.47-12.5,5.29-9.91,25.17-20,29.69,1.78,1.55,5.57-4.33,6.16-5.34,4.25,5.67,5.57-13.39,6.69-15.43,3.62-6.55,10.31-10.52,13.68-4.61,2,3.5-1.49,8.61,2.88,12,5.86,4.58,2.89-1.52,3.36-3.65,1.79-8.2.62-18,1.08-26.2,0.89-15.67,16.81-25.27,27.31-36.2,7-7.26,12.74-15.06,18.79-23.08,5.27-7,13.75-14.34,17-22.56-2.37,9.27,3.81,15.8,8.79,22.58,3.64,4.95,4.65,3.86,3.66,10.93-0.43,3.1-2.7,8.86-1.81,11.94,2.81,9.72,19.62,11.59,27.47,11.51,14.14-.15,29.7-6.54,35.74-20.27,3.93-8.93-1.63-17.29-1.07-26.45,0.46-7.52,2.4-15.72,0-23.16-1.26-3.88-7.27-9.17-4.31-13.52,3.94-5.8,26.91-6.1,33.05-7.14,10.53-1.78,33.83-1.9,41.28-10.34,8.18-9.27-7.26-23.94-13.09-30.71-6-7-12.45-13.59-18.7-20.37-2.19-2.38-6.5-5.57-7.36-8.73-1-3.61,1.08-4,1.46-7.32,0.91-7.92-3.51-14.74-6.07-22.12-3-8.77-3.58-20.59-9.37-28.13,0.64,1.94,6.25,22.09,5,22-2.31-.15-5-9.92-5.51-11.38,0.46,1.5,5.29,13.82,3,15.07s-9.73-16.43-10.17-17.3c0.41,1,6.69,16.6,4.38,16.75-2.67.18-5.77-7.84-6.53-9.4,0.29,0.72,5.34,12.53,4.1,13-2.78,1-10.84-11.06-11.59-12.06,0.26,0.41,6.95,10.53,4.73,11.14-1.67.45-5.06-4-5.56-4.55,0.92,1.36,6.45,8.45,5,10.5-1.34,1.84-20.35-20-23.46-21.69,1.58,1.64,20.55,21.7,18.06,23.07-3.67,2-16.5-15.36-18.58-17.84,4.57,7.28,13.17,18.7,20.57,23.4,6.82,4.33,19.06-.28,22.09,9.88,3.59,12-10.24,6.21-15.2,2.29-2.27-1.79-27.65-21.75-28.43-14.24,0.21-2,20,10,21.45,11.26,4.91,4.45,9.26,9.82,16.11,11.17,3.45,0.68,4.24-1.36,7,.41,7.33,4.65,11.95,22.09,15.39,29.59,2.38,5.18,4.48,10.67,8.16,15.1-7.47.26-14.77,2.21-22.27,2.45-9.56.31-19.22-2-28.73-.89-7.09.84-31,13.91-32.87,4.62a43.51,43.51,0,0,1-8.88,3.91c-2.69.84-7.91,0.54-10.19,2-0.38.24,0.24,2.52-.71,3.07-7.91,4.6-16.64,3-24.53,6.62,3.67-.59,32.93,3.57,33.88,9.29-0.91-5.51-13.2-8.73-13.31-10.28-0.13-1.92,7.9-1.85,7.76-.82,0.89-6.88-1.33-4.14,6-6.61,1.19-.4,9.18-3.75,9.25-3.74,0.63,0.14,3.15,7.24,4.73,5.54,1.89-2-.72-2.44,3.22-3.51,1-.28,9.87-2.47,10-1.79,0.61,4.6-17,8.37-16,14,0,0.17,22.38-16,25-17.33,8.78-4.64,18.48-2.11,28.1-2.14,13.58,0,23.32-2.54,36.5,1.42-3.51-1.05-8.11-11.26-9.74-14.19-4.87-8.77-10.18-18.18-13.71-27.59-6.93-18.47,13.68,5.14,17.9,9.56,6.32,6.62,21.65,19.08,21.55,29.42-0.08,8.77-13.08,10.46-19.65,12a394.43,394.43,0,0,1-43.95,7.52c-1.22.14-13.6-.49-14.37,0.19-3.36,3,3.44,7.11,2,10.77-1.47,3.86-14.17,3-18.29,4.24-5.93,1.75-10.51,3.79-16.56,4.67a128.21,128.21,0,0,0-24.32,6c-3.52,1.21-4,2.58-6.26,1.25-0.35-.21.22-7-0.9-6.53-1.36.56-6,17.66-8,20.43-5.9,8.09-14.59,13.9-20.22,22-3,4.35-32.88,43.39-38.17,39.06-7.49-6.12,25-42.46,29.91-48.06,10.74-12.22,21.76-28.91,21.86-45.72a88.53,88.53,0,0,1-15.82,35.21c-11.74,15.32-28.6,30.34-35.29,49C-2261.86,2201.46-2251.93,2178-2255.92,2189.17ZM-2102.58,2010c-8-2.15-16.52-5.71-3.46-11,10.93-4.39,8.41,12.28,3.46,11h0Zm10.37,5.32c-1.41-1.83-7.31-17-2.87-18.51,6.5-2.21,10.85,28.85,2.87,18.51C-2097.25,2008.73-2087.15,2021.83-2092.21,2015.28Zm-27.16,142.77c4.85,10.39-18.74,21-25.31,22.16-10.1,1.74-36.27.95-30.48-16.21,2.7-8,10.53-4.11,19.13-5.2a77.71,77.71,0,0,0,23.92-6.82c12.13-5.82,7.93-4.23,12.74,6.08h0Z" transform="translate(2287.41 -1920.97)"/><g class="cls-5"><path class="cls-4" d="M-2070.77,2074.24c2.44,2,4.84,4,7.18,6A14.88,14.88,0,0,1-2070.77,2074.24Z" transform="translate(2287.41 -1920.97)"/><path class="cls-4" d="M-2118.82,2007.95c6.55,4.22,17.85.75,20.89,9.38C-2102,2009.39-2112.56,2013.39-2118.82,2007.95Z" transform="translate(2287.41 -1920.97)"/><path class="cls-4" d="M-2098.48,1999.86a48.08,48.08,0,0,0,.68,10.1A12.31,12.31,0,0,1-2098.48,1999.86Z" transform="translate(2287.41 -1920.97)"/><path class="cls-4" d="M-2117.18,2006.55c4.3-6.77,11.64-12.19,19.93-12C-2105.26,1995.49-2112.09,2000.51-2117.18,2006.55Z" transform="translate(2287.41 -1920.97)"/><path class="cls-4" d="M-2173.59,2086.71c0.9,2,1.49,3.56,1,5.79A21.08,21.08,0,0,1-2173.59,2086.71Z" transform="translate(2287.41 -1920.97)"/><path class="cls-4" d="M-2154.07,2081.89c0.88,1.88,1.54,3.88,2.36,5.79C-2153.74,2086.05-2153.82,2084.39-2154.07,2081.89Z" transform="translate(2287.41 -1920.97)"/><path class="cls-4" d="M-2187,2096.14c6.13,0.87,16.08.88,19.51,7C-2171.75,2097.91-2180.88,2098.06-2187,2096.14Z" transform="translate(2287.41 -1920.97)"/><path class="cls-4" d="M-2150.86,2096.26a57,57,0,0,1,11.26-8.15A58.18,58.18,0,0,1-2150.86,2096.26Z" transform="translate(2287.41 -1920.97)"/><path class="cls-4" d="M-2160.61,2102.47c1.3-.23,2.52-0.06,3.86-0.86C-2158.25,2103.82-2159.21,2102.58-2160.61,2102.47Z" transform="translate(2287.41 -1920.97)"/><path class="cls-4" d="M-2190.21,2118.57a18.71,18.71,0,0,1-.49,11.21C-2190.66,2126-2190.16,2122.31-2190.21,2118.57Z" transform="translate(2287.41 -1920.97)"/><path class="cls-4" d="M-2148.55,2173.15c0.06,1.43,0,2.89,0,4.32C-2150,2175.61-2149,2174.9-2148.55,2173.15Z" transform="translate(2287.41 -1920.97)"/><path class="cls-4" d="M-2283.15,2238.82c1.79-9.27,6.46-13.85,14.44-18.32C-2276,2226.1-2280.08,2229.91-2283.15,2238.82Z" transform="translate(2287.41 -1920.97)"/><path class="cls-4" d="M-2283.25,2233.09c-0.33-7.41,5.05-12,10.13-16.79C-2277.27,2221.86-2282.47,2225.9-2283.25,2233.09Z" transform="translate(2287.41 -1920.97)"/><path class="cls-4" d="M-2283.25,2231.14c-1.81-7,1.92-11.45,6.24-16.79C-2280.23,2220.45-2283.77,2224.05-2283.25,2231.14Z" transform="translate(2287.41 -1920.97)"/><path class="cls-4" d="M-2275.38,2234.52c-2.58,4.76-4.07,9.77-6.14,14.74C-2280.56,2243.86-2279,2238.75-2275.38,2234.52Z" transform="translate(2287.41 -1920.97)"/></g><path class="cls-6" d="M-2269.49,2207.82a30.4,30.4,0,0,0-8.24,5.28c-1.74,1.71-4,7.86-5.17,8.63,1.65-1,4.54-8.32,6.53-8-0.61-.1-3.17,7.66-3.46,7.79,3-1.38,4.57-5,7.55-6.35a90.26,90.26,0,0,0-5.79,9.19c3.25,0.59,7-4.3,10.36-4.67-0.65.07-12.15,10.14-10.25,11.34,3.34,2.12,11.07-10.7,15.73-9.91,7.73,1.3-1.3,13.56,4.19,15.91C-2262.75,2235.05-2245.14,2195.85-2269.49,2207.82Z" transform="translate(2287.41 -1920.97)"/><path class="cls-17" d="M-2200.15,2098.15s-3.23,3.46-1.15,5.3S-2195.54,2095.39-2200.15,2098.15Z" transform="translate(2287.41 -1920.97)"/><path class="cls-17" d="M-2201.91,2104.59q-0.79,1.54-1-.18,0.8-1.55,1,.18C-2202,2105-2201.82,2104.14-2201.91,2104.59Z" transform="translate(2287.41 -1920.97)"/><path class="cls-9" d="M-2187.34,2127.75c-10.21,4.37,2,21.87,7.26,25.67,5,3.61,10.11,3.59,16.19,3.35,14.27-.55,41.94-4.77,46.69-19.62,1.32-4.13,2.47-20.63-1.83-23.75-4.62-3.35-19,.73-24.18,1.67-14.86,2.71-30.19,6.75-44.14,12.67h0Z" transform="translate(2287.41 -1920.97)"/><path class="cls-8" d="M-2167.27,2157.26c-13.26.17-33.76-19.8-19.2-30.31,12-8.66,36-11.53,50.14-13.42,7.37-1,14.92-3.5,19.07,2.78,2.83,4.27,2.27,20.45-.35,25C-2124.75,2153.67-2154.25,2157.26-2167.27,2157.26Zm-23-26.68c-3.66,21.09,18.15,27.16,33.85,25.1a92.67,92.67,0,0,0,29.51-8.9c9.91-5,10-8.25,9.85-19.42,0-3.86.56-11.23-2.89-14-3.76-3-20.66,1.62-25.25,2.51-10.84,2.12-37.43,5.27-45.06,14.7C-2191.47,2137.67-2189.3,2129.42-2190.24,2130.59Z" transform="translate(2287.41 -1920.97)"/><g class="cls-5"><path class="cls-7" d="M-2116.63,2127.36c-0.21-10,.46-14.57-10-14.37-8.74.17-17.59,2.1-26.06,4.08-10.38,2.43-37.93,5.78-38,18.72-0.05,19.92,21,22.17,35.19,20.15a93.13,93.13,0,0,0,29.39-9.12c9.45-4.86,9.65-8.8,9.42-19.46C-2116.85,2117.29-2116.41,2137.42-2116.63,2127.36Zm-29.62,20c-10.54,7.5-45.38,9.75-39-12.17,2-6.78,9.36-9.78,15.8-10.9,3.55-.62,6.65,0,10.16.06,6.07,0.1,5.16.69,11-1.83,9.05-3.91,29.08-14,28.53,3.72-0.43,14-13.38,22.45-26.52,21.12C-2156.63,2154.78-2119.23,2150.14-2146.25,2147.4Z" transform="translate(2287.41 -1920.97)"/></g><path class="cls-18" d="M-2181.6,2173.81c-14.95-8.17-25.58,6.33-39.93,4.92C-2221,2192.83-2177,2186.54-2181.6,2173.81Z" transform="translate(2287.41 -1920.97)"/><path class="cls-19" d="M-2207.39,2187c-5.68,0-13.91-1.9-14.56-8.68,9.83,1,32.51-16.35,40.65-4.76C-2174.24,2183.58-2202.93,2187-2207.39,2187Zm-13.68-7.78c1.9,13,39.4,5.47,39.26-2.51-0.24-14-33.78,2.91-39.26,2.51C-2220.5,2183.12-2220.8,2179.2-2221.08,2179.18Z" transform="translate(2287.41 -1920.97)"/><g class="cls-20"><path class="cls-18" d="M-2181.6,2173.81a24.32,24.32,0,0,0-20.9-.87c3.13-.9,14.55-3.28,15,1.59a2.65,2.65,0,0,1-2.93,1.34c4.89,0.35-8.56,4.71-10.21,5.13-6.59,1.7-14.94,3.42-20.77-1.33C-2218.38,2192.26-2177.53,2186.45-2181.6,2173.81Z" transform="translate(2287.41 -1920.97)"/></g><path class="cls-18" d="M-2209.45,2200.64c-7,6.24-15.76,15.18-16.79,25,8.09-3.79,17.46-5.24,22.83-12.34C-2197.49,2205.47-2197.11,2196.76-2209.45,2200.64Z" transform="translate(2287.41 -1920.97)"/><path class="cls-19" d="M-2226.72,2226.29c0.69-6.57,24.48-39.94,28.15-23.3C-2195.41,2217.28-2219.29,2222.81-2226.72,2226.29Zm17.47-25.29c-6.86,6-15,14.57-16.49,23.93,7.21-3.35,16.18-5.05,21.36-10.93,6.35-7.2,7.06-16.73-4.87-13C-2210.29,2201.92-2203.9,2199.33-2209.24,2201Z" transform="translate(2287.41 -1920.97)"/><g class="cls-20"><path class="cls-18" d="M-2209.45,2200.64a67.52,67.52,0,0,0-12.76,14.66c2.08-1.76,11-10.35,13.79-7.13,2.2,2.54-8.89,12.83-10.23,14,7.93-3.45,12.68-3.72,16.74-11.34C-2197.54,2202.64-2198.76,2197.28-2209.45,2200.64Z" transform="translate(2287.41 -1920.97)"/></g><path class="cls-18" d="M-2160.92,2238.11c-3.91,8-9.23,20-5.74,28.87,11.08-9.36,28.43-17,21.23-34.89C-2150.75,2218.88-2157.78,2230.39-2160.92,2238.11Z" transform="translate(2287.41 -1920.97)"/><path class="cls-19" d="M-2166.83,2267.65c-3.13-8.2,3-36.47,12.29-41.08,9.45-4.69,12.11,11.74,10.47,18.53C-2146.67,2255.86-2158.94,2261.13-2166.83,2267.65Zm15.15-41.87c-9.88,0-16.79,34.5-14.79,40.5,7.6-6.27,18.95-11,21.59-21.3C-2143.77,2240.68-2144.54,2225.79-2151.69,2225.79Z" transform="translate(2287.41 -1920.97)"/><g class="cls-20"><path class="cls-18" d="M-2151.3,2225.41c-7.24-1.38-15,26.74-15.66,30.08,1.25-2.11,13.18-17,15.77-15.85,7.68,3.52-1.76,16.79-5,19.59,7.28-5.27,12.53-10.78,12-20.23-0.25-4.46-1.62-12.53-7.12-13.58h0Z" transform="translate(2287.41 -1920.97)"/></g><path class="cls-18" d="M-2127.15,2227.87c6.22,9.34,10.15,21.07,9.22,32.35,13.76-10.68,20-31.93,5.78-44.4C-2124.77,2204.71-2126.33,2215.72-2127.15,2227.87Z" transform="translate(2287.41 -1920.97)"/><path class="cls-19" d="M-2118.42,2261.11a49,49,0,0,0-3.26-21.66c-1.37-3.59-4.92-7.53-5.67-11.15-0.8-3.84.46-17,4.82-18.44,8.41-2.84,18.51,14.61,19,20.57C-2102.45,2242-2109.53,2254.34-2118.42,2261.11Zm-8.31-33.36c6.14,9,9.9,20.7,9.27,31.57,10.56-8.65,18.19-27,9.1-39-2.16-2.86-9.6-10.87-13.63-9.7-4.65,1.34-4.52,13.56-4.74,17.13C-2125.74,2229.19-2126.33,2221.37-2126.73,2227.75Z" transform="translate(2287.41 -1920.97)"/><g class="cls-20"><path class="cls-18" d="M-2104,2228.28c-0.6-6.1-7.47-13.67-13-16.07-6.67-2.91-7.3-1-8.95,5.89-3.16,13.11,6.57,21.34,7.91,34.57,0.11-4.75-6-24.58,1.11-25.84,8.74-1.55,9.91,16.28,9.14,20.8a37.2,37.2,0,0,0,3.77-19.35C-2104.83,2219.88-2103.52,2233.37-2104,2228.28Z" transform="translate(2287.41 -1920.97)"/></g><path class="cls-18" d="M-2116.36,2157.78c5.56-7.29,14.69-11.49,23.89-10.1C-2095.33,2149.39-2110.79,2174.75-2116.36,2157.78Z" transform="translate(2287.41 -1920.97)"/><path class="cls-19" d="M-2110.2,2162.46c-8.5,0-6.33-4.89-3.13-8.53,5.16-5.89,14.7-7.79,22-6.48C-2100.79,2152.65-2097.31,2162.46-2110.2,2162.46Zm-5.71-4.61c1.89,5.29,10.37,4.38,13.95,1.48s4-8.33,8.33-11.39a25.17,25.17,0,0,0-22.28,9.91C-2115,2160.36-2114.92,2156.53-2115.9,2157.85Z" transform="translate(2287.41 -1920.97)"/><path class="cls-21" d="M-2110,2154.76a3.38,3.38,0,0,1,.74-3.48c-2.65,1.69-7.43,4.54-6.44,7.67,1.3,4.13,7.59,3.26,10.53,2.14,6.84-2.61,6.26-9.55,12.71-13.41-2.31-.36-16.16,9.68-17.54,7.08h0Z" transform="translate(2287.41 -1920.97)"/><path class="cls-18" d="M-2082.92,2175.87a33.78,33.78,0,0,0,21.09.21C-2065.45,2173.41-2097.25,2162-2082.92,2175.87Z" transform="translate(2287.41 -1920.97)"/><path class="cls-19" d="M-2072.06,2178.06c-3,0-23-4.73-12.37-10.79,5.07-2.9,19.92,6.15,23.49,8.94A36.61,36.61,0,0,1-2072.06,2178.06Zm-10.63-2.55a32.72,32.72,0,0,0,20,.41c-4.13-2.91-32.81-12.93-20-.41C-2082.1,2175.74-2085.85,2172.43-2082.69,2175.51Z" transform="translate(2287.41 -1920.97)"/><path class="cls-18" d="M-2089.47,2209.24c9,4.17,18.1,8.34,26.82,13.1-3.53-8.07-7-17.27-13.05-23.86-3.81-4.14-16-13.44-22.15-10.11C-2102.45,2190.86-2092.06,2204.86-2089.47,2209.24Z" transform="translate(2287.41 -1920.97)"/><path class="cls-19" d="M-2061.8,2223.27c-8.14-4.46-18.82-7.34-26.16-12.89-3.68-2.78-13-15.19-11.91-19.5,1.72-6.8,15.1-.51,19.9,3C-2070.71,2200.81-2066.21,2213.08-2061.8,2223.27Zm-27.38-14.35c8.63,4,17.28,8,25.67,12.5-3.9-8.89-7.88-19.17-15.51-25.61-4.08-3.44-14.74-9.68-20.59-6.76-0.15,5.58,7.85,15.54,10.42,19.86C-2087.69,2209.61-2094.33,2200.25-2089.18,2208.92Z" transform="translate(2287.41 -1920.97)"/><g class="cls-20"><path class="cls-18" d="M-2085.17,2197.57a35.64,35.64,0,0,1,10.34,2c-3-3.73-18.76-16-24-11.12-2.59,2.41,3.3,10.22,4.94,13.16,6.71,12,19.31,14.25,31.24,20.76C-2062.74,2222.13-2093.5,2197.57-2085.17,2197.57Z" transform="translate(2287.41 -1920.97)"/></g><g class="cls-20"><path class="cls-18" d="M-2076.87,2171.45a9,9,0,0,1,6.21-.38c-2.76-1.17-15.66-7.15-15.72-.34-0.09,9.37,18.7,7,23.13,5.75-0.85,0-16.19-1.75-13.61-5h0Z" transform="translate(2287.41 -1920.97)"/></g><path class="cls-22" d="M-2113.49,2164.06c6.88-14.48,31.29-2.2,42.72-7.92-3.34,11.72-13.86,15.79-25,15.23C-2101.15,2171.11-2114.46,2172.3-2113.49,2164.06Z" transform="translate(2287.41 -1920.97)"/><path class="cls-23" d="M-2091.53,2171.94c-5.8,0-27.35,1.19-21.31-9.92,6.46-11.87,32.5-2,42.72-6.66A21.88,21.88,0,0,1-2091.53,2171.94Zm-20.53-3.18c14.77,2.88,34.43,6.21,40.65-11.94C-2077.63,2158.58-2120.05,2153-2112.06,2168.75Z" transform="translate(2287.41 -1920.97)"/><g class="cls-5"><path class="cls-22" d="M-2093.64,2166.46c-0.51-.14-11.57-2-10.79-2.8,1.14-1.22,4.29-1.61,5.91-1.45-0.81,0-6.71-1.1-6-2.6,1.11-2.37,9.48-2.24,11.45-2.4-5,0-29.49,3.84-17.43,12.26,3.79,2.64,16.67,2.57,21.29,2,8.67-1.08,16-6.67,18.44-15.32-3.9,2.77-4.57,6.72-9.62,9a21.18,21.18,0,0,1-13.25,1.37h0Z" transform="translate(2287.41 -1920.97)"/></g><path class="cls-24" d="M-2112.68,2168.17a44.4,44.4,0,0,1,29.54,4.06c7.47,4.05,18.83,20.16,27.8,20.16-6.8,3.84-15.5,3.66-23,2.87C-2090.65,2194-2119.86,2185.08-2112.68,2168.17Z" transform="translate(2287.41 -1920.97)"/><path class="cls-25" d="M-2071.08,2196.1c-12.68,0-26-2.29-35.22-11.26-3.41-3.33-13.1-11.69-6.47-17.07,8.08-6.55,29,3.1,35.34,7.68,6.53,4.73,14.65,16.3,23.38,16.53C-2058.79,2195.48-2065.41,2196.1-2071.08,2196.1Zm-28.51-6.17c12.59,4.19,30.33,9,43.06,2.66-6.81-2.2-12.6-9.34-18.1-13.73-7.91-6.33-15.54-10.37-25.82-11.05-23.15-1.54-8.9,13.47.85,22.12C-2088.92,2193.48-2110.15,2180.56-2099.59,2189.93Z" transform="translate(2287.41 -1920.97)"/><g class="cls-5"><path class="cls-26" d="M-2070.6,2181.7c3.2,3.42,6.85,6.92,10.3,10.24-12,.46-25.79-0.61-36.48-6.68-2.57-1.46-12.13-7.27-4-7.63a6.36,6.36,0,0,1-2.63-4c0.66-2.37,9.42,3.56,9.72,3.77-1.25-2.17-8.45-5.28-8.65-7.44-0.37-4,20.72,3.26,22.14,4-5.54-3.71-25.53-11.57-32.08-5.88-7.22,6.26,6,17.3,10.44,20.38,10.76,7.47,34.08,10.93,46.48,3.93C-2060.31,2192.4-2067.41,2184.37-2070.6,2181.7Z" transform="translate(2287.41 -1920.97)"/></g><path class="cls-18" d="M-2194.71,2226.43c-4.61,8.57-8.36,18.45-8.8,28.26,6.06-6.63,15.6-10.41,21.22-17,4.71-5.56,8.28-16.18,10.5-23,2.74-8.36,1.42-9.74-5.84-4.27C-2183.82,2215.06-2189.32,2220.89-2194.71,2226.43Z" transform="translate(2287.41 -1920.97)"/><path class="cls-19" d="M-2204,2255.8c0.33-10.28,3.86-22.57,10.17-30.87,2.33-3.06,20.31-21.8,23.92-18.26,3.38,3.31-9.41,27.82-11.86,30.82C-2187.54,2244.58-2197.62,2248.73-2204,2255.8Zm9.59-29.12c-4.46,8.12-8,17.62-8.66,26.91,5.75-5.92,14-9.54,19.5-15.43,4.69-5,11.29-18.7,12.14-25.9,0.66-5.59,2.18-5.74-3.45-3.45-7.1,2.88-14.29,12.44-19.54,17.88C-2194.86,2227.56-2189,2221.11-2194.38,2226.68Z" transform="translate(2287.41 -1920.97)"/><g class="cls-20"><path class="cls-18" d="M-2170.34,2206.58c-3-2.56-17.14,12.66-19,14.43-6.94,6.78-10.17,14-12.65,23.74,1.07-2,13.71-22.29,16.15-19.6,3.42,3.77-7.46,19-9.52,22.14,8.41-6.7,12.73-8.72,17.19-18.1,1.39-2.92,11-19.83,7.77-22.61h0Z" transform="translate(2287.41 -1920.97)"/></g><path class="cls-22" d="M-2157.65,2191.43c-10.62,9.41-17.45,23.08-22.8,35.94-4.89,11.75-9.8,27.15-20.6,35.11,13.37-2.09,27.07-7.56,37.29-16.53,11-9.61,13.59-17.83,11.44-31.86C-2152.58,2212.36-2155.52,2189.86-2157.65,2191.43Z" transform="translate(2287.41 -1920.97)"/><path class="cls-23" d="M-2203.06,2263.15c14.18-7.16,19.12-29.73,25.08-42.59,4-8.73,9.19-19,16.35-25.73,4.43-4.14,4.16-5.28,7,.73s5.63,24.38,4.78,30.79c-1.27,9.68-11.87,19.18-19.41,24.27A77.48,77.48,0,0,1-2203.06,2263.15Zm46-71.55c-6.69,0-17.13,23-19.23,27.34-6.8,14-10.83,32.22-23.19,42.84,13.21-2.46,26.71-8.06,36.62-17.29,7.76-7.23,12.65-14.89,10.9-25.45C-2152.39,2216.38-2154.55,2191.6-2157,2191.6Z" transform="translate(2287.41 -1920.97)"/><g class="cls-5"><path class="cls-22" d="M-2157.65,2191.43c-12,10.6-18.91,26.21-24.71,40.71,1.32-2.44,10.85-23.09,13.42-22.54,1.06,0.23,0,8.94.16,10,0.23-1.14,5-13.08,5.16-12.92,1.35,1.95-.9,10.18-1.09,13,8.57-22.09,7.37,8.39,2.23,16.75-7,11.32-20.07,18.26-32.36,22.46a77.12,77.12,0,0,0,9-18.8c-3.65,7.87-8.09,17-15.26,22.35,13.37-2.09,27.07-7.56,37.29-16.53,11-9.61,13.59-17.83,11.44-31.86C-2152.58,2212.36-2155.52,2189.86-2157.65,2191.43Z" transform="translate(2287.41 -1920.97)"/></g><path class="cls-22" d="M-2114.86,2174.84c10.32,6.61,18.76,16.74,24.3,27.57,3.51,6.85,8.64,33,17.26,36.11-15.24,3.7-32.48-6.54-42.13-17.39a45.83,45.83,0,0,1-11.9-30.05c0-2.53-1-4.38.07-6.27C-2125.26,2181.21-2117.84,2178.13-2114.86,2174.84Z" transform="translate(2287.41 -1920.97)"/><path class="cls-23" d="M-2078.57,2239.44c-16.65,0-31.62-10-41.17-23.1-9.23-12.65-14.51-32.15,2.29-39.54,4.63-2,2.65-2.7,7.9,1.46a73.36,73.36,0,0,1,17.4,20.43c5.14,8.81,9.3,36.13,20.26,39.91A25.2,25.2,0,0,1-2078.57,2239.44Zm-49-53.95c1.55,17.51,6.07,32.1,20.7,43.09,8.8,6.61,21.18,11.6,32.41,9.74-11.22-9.25-12.92-31.32-21-43.25-3.6-5.35-10.09-15-16.44-17.59-5-2,.54-2.13-5.58.38-3.42,1.4-7,5.5-10.13,7.64C-2127.36,2187.47-2126.16,2184.56-2127.53,2185.49Z" transform="translate(2287.41 -1920.97)"/><g class="cls-5"><path class="cls-22" d="M-2087,2210.46c1.35,3.61,5.13,18.39,7.64,25.8-15.84-3.09-28.54-13.74-36.09-27.76-2.24-4.16-5.13-9.54-5.54-14.35-0.44-5.26.56-9.07,5.32-2.11,0,0.23-2.14-7-2.73-6.83,3.5-.86,8.12,10.57,8.6,11.88-0.41-4-7.45-14.7-2.46-16.38,4.17-1.41,12,7.59,14.38,10.15-3.1-4-9.42-12.92-14.65-14.43-4.54-1.31-6,1.74-10.33,5.25-4.54,3.7-4,2-4.77,6.8-0.78,5.05,1.66,13.63,3.31,18.4,6.27,18.15,30.82,36.55,51,31.65-6.92-2.53-11.67-22.74-13.72-28.05h0Z" transform="translate(2287.41 -1920.97)"/></g><path class="cls-27" d="M-2157.87,2193.19c-4.87,7.05-8.94,15-10.05,23.64C-2168.06,2208.1-2163.59,2199.52-2157.87,2193.19Z" transform="translate(2287.41 -1920.97)"/><path class="cls-27" d="M-2156.93,2193.46c-2.64,8-5.63,15.88-8,24C-2163.72,2209.1-2160.62,2201-2156.93,2193.46Z" transform="translate(2287.41 -1920.97)"/><path class="cls-22" d="M-2181.19,2179.55c-17.18-.79-30.69,12.86-47.71,13.51,4.78,9.28,18.1,12.56,27.48,9.1C-2195.75,2200.07-2173,2186.1-2181.19,2179.55Z" transform="translate(2287.41 -1920.97)"/><path class="cls-23" d="M-2209.9,2203.64c-7.92-.15-16.1-3.46-19.63-11,10-.16,18-4.51,26.93-8.43,4.21-1.85,16.54-7.68,21.63-5.05,7.16,3.69,1,7.21-2.22,9.84C-2191.91,2196-2198,2203.64-2209.9,2203.64Zm-18.34-10.19c4.88,8.78,18,11.52,27,8.26,2.66-1,22.87-14.65,22.76-17.53-0.25-7.08-11.39-3.49-14.82-2.54-12.05,3.33-22.07,11.2-34.94,11.81C-2227.75,2194.32-2225.87,2193.34-2228.23,2193.45Z" transform="translate(2287.41 -1920.97)"/><g class="cls-5"><path class="cls-26" d="M-2181.19,2179.55c-13.34-.57-23.78,7.87-36,11.51,7.22-.46,16-9,22.35-8,8,1.31-.6-0.48,1.44,3.45,0.09,0.17,4.26-1.26,4-.65-6.1,15.81-28.84,13.08-39.55,7.19,4.78,9.28,18.1,12.56,27.48,9.1C-2195.75,2200.07-2173,2186.1-2181.19,2179.55Z" transform="translate(2287.41 -1920.97)"/></g><path class="cls-24" d="M-2178.74,2182.41c-26.87,14.79-39.09,45.86-32.55,75.35,8.91-29,36.64-42.45,53.85-65.52C-2164.15,2190.71-2174.67,2188.52-2178.74,2182.41Z" transform="translate(2287.41 -1920.97)"/><path class="cls-25" d="M-2211.36,2259.36c-5.62-24.32.13-48.79,18.1-66.44,4.1-4,10.79-10.92,15.63-9.87,3.58,0.77,8.52,5.28,12.55,6.64a77.23,77.23,0,0,0,8.34,2.29C-2174.28,2215.77-2202.62,2229.38-2211.36,2259.36Zm32.5-76.41c-26.09,14.44-38.19,44.55-32.35,73.21,9.27-28,36.25-41.12,53.06-63.66-6.69-1.53-16.39-3.73-20.71-9.55C-2180.73,2184-2174.83,2188.39-2178.86,2182.95Z" transform="translate(2287.41 -1920.97)"/><path class="cls-24" d="M-2156,2191.52c-3.13,8.46-.39,18.78,1.89,27,4.53,16.43,11.49,31.61,11.91,48.93,18.54-22.52,25.56-54.89,14.23-82.21C-2136.67,2189.09-2146.45,2191.58-2156,2191.52Z" transform="translate(2287.41 -1920.97)"/><path class="cls-25" d="M-2142.6,2268.6c-0.08-23.26-13.74-43.37-14.95-66.21-0.13-2.4-1-9.36,1.32-11.29s14.38-1.63,17.75-2.56a75.12,75.12,0,0,0,10.73-3.81C-2116.1,2212.42-2123.18,2246.05-2142.6,2268.6Zm-13.12-76.67c-3.32,8,0,19.31,2.15,26.95,4.43,15.94,11.08,30.7,11.77,47.51,17.62-22.36,24.57-53.76,13.63-80.56A72,72,0,0,1-2155.73,2191.93Z" transform="translate(2287.41 -1920.97)"/><g class="cls-5"><path class="cls-26" d="M-2128,2185.28a78.64,78.64,0,0,1-10.43,3.67c-3.42.94-15.66,0.88-17.62,2.61-2.24,2-1.2,9.45-1,11.84,1.49,22.1,14.26,41.59,14.86,64.09C-2123.65,2245-2116.63,2212.61-2128,2185.28Zm-12.87,72.73c-0.29-10.06-2.8-20-5.93-29.55-0.31-.93-8-30-5.72-29.16,0.8,0.3-.26,2.42.61,2.61,1.84,0.4.77-.89,2.29,2.2-2.09-4.25,8.28-9.35,11.2-8.47,3.43,1,9.78,12.8,6.95,16.24,1.51-1.83-.48-14.27,1.58-14.55,4.42-.61,2.61,22.44,2.35,25.24C-2128.69,2235.42-2132.64,2247.85-2140.83,2258Z" transform="translate(2287.41 -1920.97)"/></g><g class="cls-5"><path class="cls-27" d="M-2175.7,2187.52c-4,1.33-7.86,3.36-10.49,6.71C-2184.3,2190.13-2180.14,2187.84-2175.7,2187.52Z" transform="translate(2287.41 -1920.97)"/><path class="cls-27" d="M-2170.91,2189.79a40.19,40.19,0,0,0-10.9,10.82A19.42,19.42,0,0,1-2170.91,2189.79Z" transform="translate(2287.41 -1920.97)"/><path class="cls-27" d="M-2165.88,2191.8A67.47,67.47,0,0,0-2184.5,2211C-2180.83,2202.76-2173.76,2196-2165.88,2191.8Z" transform="translate(2287.41 -1920.97)"/><path class="cls-27" d="M-2119.8,2182.46c5.59,4.21,10.19,10.79,10.7,17.94C-2110.81,2193.51-2115,2187.57-2119.8,2182.46Z" transform="translate(2287.41 -1920.97)"/><path class="cls-27" d="M-2121.93,2183.78a9.9,9.9,0,0,1,4.79,6.12Q-2119.55,2186.85-2121.93,2183.78Z" transform="translate(2287.41 -1920.97)"/><path class="cls-27" d="M-2134.79,2190.54a31,31,0,0,1,3.28,20.61A56.07,56.07,0,0,0-2134.79,2190.54Z" transform="translate(2287.41 -1920.97)"/><path class="cls-27" d="M-2149.12,2193.27a61.51,61.51,0,0,0,1,17.2A26,26,0,0,1-2149.12,2193.27Z" transform="translate(2287.41 -1920.97)"/><path class="cls-27" d="M-2151.72,2193.54c0.17,3.5.25,7,.14,10.51A19.83,19.83,0,0,1-2151.72,2193.54Z" transform="translate(2287.41 -1920.97)"/><path class="cls-27" d="M-2131.65,2189.17c1,1.73,2,2.85,1.78,5.05A19.08,19.08,0,0,1-2131.65,2189.17Z" transform="translate(2287.41 -1920.97)"/><path class="cls-27" d="M-2181.5,2182.21c-3.89,1.43-8.13,2.8-11.16,5.73C-2190.31,2184.2-2185.76,2182.7-2181.5,2182.21Z" transform="translate(2287.41 -1920.97)"/><path class="cls-27" d="M-2181.47,2177.43a41.21,41.21,0,0,0-11.74-.55A14.43,14.43,0,0,1-2181.47,2177.43Z" transform="translate(2287.41 -1920.97)"/><path class="cls-27" d="M-2181.88,2175.52a78.2,78.2,0,0,0-8.87-2A11.49,11.49,0,0,1-2181.88,2175.52Z" transform="translate(2287.41 -1920.97)"/><path class="cls-27" d="M-2111.74,2170.4c5.69-.44,12.19,1.3,15.91,5.85C-2100.32,2172.59-2106.11,2171.17-2111.74,2170.4Z" transform="translate(2287.41 -1920.97)"/><path class="cls-27" d="M-2112.56,2173.09c4.11,0.23,8.32,1.71,11,4.92C-2104.89,2175.71-2108.75,2174.38-2112.56,2173.09Z" transform="translate(2287.41 -1920.97)"/><path class="cls-27" d="M-2111.72,2165.56c2.6-2.87,6.73-4.73,10.51-3.28C-2105,2162-2108.52,2163.62-2111.72,2165.56Z" transform="translate(2287.41 -1920.97)"/><path class="cls-27" d="M-2113.63,2160.24a11.19,11.19,0,0,1,6.83-4.91C-2109.1,2156.93-2111.35,2158.61-2113.63,2160.24Z" transform="translate(2287.41 -1920.97)"/></g><path class="cls-22" d="M-2178.19,2165c-5.82,3.7-6.25,12.67-2.66,18,6.18,9.08,21.86,11.07,31.73,10.3,10.79-.84,23.18-4.78,31-12.58,3.65-3.63,6.12-7.85,6.41-13,0-.74-1.3-11.18-3-9.88-3.86,10.83-12.55,20.08-23.46,23.88C-2150.49,2185.94-2183.27,2185.68-2178.19,2165Z" transform="translate(2287.41 -1920.97)"/><path class="cls-23" d="M-2153.11,2193.85c-9.44,0-25.69-3-29.75-13.26-2-5.07-.38-14,5.25-16.23-5.66,17.87,19.36,20.19,31.05,18.82,13.16-1.54,21.75-9.21,28.79-19.75,0.25-.37,2.37-5.94,2.8-6,4.93-.25,3.67,12.62,2.94,15C-2116.78,2187.64-2139.32,2193.85-2153.11,2193.85Zm-25.69-28c-8.66,6.77-2.53,18,4.87,22.2,9.46,5.41,21.29,5.87,31.72,3.73,9.44-1.94,20.34-6.13,26.31-14.18,2.66-3.59,7.34-16.2,1.5-19.52-4.13,11.28-13.3,20.74-24.83,24.37-12.08,3.8-43.57,3.33-39.57-16.6C-2180.08,2166.87-2179.67,2170.2-2178.8,2165.87Z" transform="translate(2287.41 -1920.97)"/><g class="cls-5"><path class="cls-22" d="M-2114.73,2157.78c-3.86,10.83-12.55,20.08-23.46,23.88-12.3,4.29-45.08,4-40-16.64-5.82,3.7-6.25,12.67-2.66,18,6.18,9.08,21.86,11.07,31.73,10.3,10.79-.84,23.18-4.78,31-12.58,3.65-3.63,6.12-7.85,6.41-13,0-.74-1.3-11.18-3-9.88C-2115.41,2159.69-2113.09,2156.55-2114.73,2157.78Zm-28.24,33.11c-5.62,1-39.93,2.09-37.81-12.32,0.67-4.53,9.29,4.12,12.19,5.29,8.43,3.42,18.65,3.31,27.33,1.06,2.84-.74,23.87-14.61,24.35-14.06,6.92,8-23.51,19.56-26.05,20h0Z" transform="translate(2287.41 -1920.97)"/></g><path class="cls-28" d="M-2173.82,2183.65a42.73,42.73,0,0,0,12.54,3.88c2.48,0.39,17.89,1.61,18.45.9-3.82,4.83-18.94,2.13-23.49.71C-2167.7,2188.71-2177.84,2182.39-2173.82,2183.65Z" transform="translate(2287.41 -1920.97)"/><path class="cls-28" d="M-2137.92,2187.76q-1.29,2-3.09.44,1.29-2,3.09-.44C-2137.85,2188.24-2138,2187.27-2137.92,2187.76Z" transform="translate(2287.41 -1920.97)"/><g class="cls-5"><path class="cls-26" d="M-2178.74,2182.41a69.5,69.5,0,0,0-25.67,25.29c5.5-6.48,13.42-17.13,22.25-19.27,0.74,0.05-5.35,6.36-5.59,7.15-0.1.33,8.55-5.36,8.85-4.37,0.94,3.15-6.36,8.35-5,11.11,0.23,0.46,7.46-5.81,8.87-5.29-0.12,0-40.67,47.83-36.69,51.42-4-3.63.18-23.17,1.75-27.69-6.12,9-3.49,27.15-1.31,37,8.91-29,36.64-42.45,53.85-65.52C-2164.15,2190.71-2174.67,2188.52-2178.74,2182.41Z" transform="translate(2287.41 -1920.97)"/></g><path class="cls-29" d="M-2190.72,2197.11s-19.37,23.29-20.24,45.06C-2211.83,2226.71-2203.77,2205.38-2190.72,2197.11Z" transform="translate(2287.41 -1920.97)"/><path class="cls-29" d="M-2129.55,2207.77s1.74,25-8.93,41.36C-2132.38,2247-2125.41,2222.57-2129.55,2207.77Z" transform="translate(2287.41 -1920.97)"/><path class="cls-29" d="M-2093.57,2172s16.11,4.91,25.67,15.29S-2074.18,2173.34-2093.57,2172Z" transform="translate(2287.41 -1920.97)"/><path class="cls-29" d="M-2105.81,2187.18s12.68,12.34,19,34.61C-2084.73,2229.5-2088.5,2197.63-2105.81,2187.18Z" transform="translate(2287.41 -1920.97)"/><path class="cls-29" d="M-2222.69,2193.4s12.56-2.18,23.21-8.19C-2195.11,2182.48-2204.13,2192.86-2222.69,2193.4Z" transform="translate(2287.41 -1920.97)"/><path class="cls-30" d="M-2180.91,2133.15s-4.35,8,7,15.71S-2192.51,2146-2180.91,2133.15Z" transform="translate(2287.41 -1920.97)"/><path class="cls-30" d="M-2179.28,2130.63a1.27,1.27,0,0,1-1.54,1.43,1.27,1.27,0,0,1,1.54-1.43h0Z" transform="translate(2287.41 -1920.97)"/><path class="cls-31" d="M-2132.77,1943.21a25.63,25.63,0,0,1,15.62-14.35c8.26-2.71,14.67,1.2,22.66.4,2.63-.26,12.63-4.43,5.09-7.36,6.17-2.85,16.49,4.16,11.17,11,8.35,0.51,15.88,3.54,19.06,11.64,1.84,4.7,1,11.36,7.16,13.09,4.53,1.28,11.56-3.85,6-8,4.31,2.47,7.23,6.52,5.65,11.5-0.47,1.49-3,3.32-3.22,4.45-0.44,2.5,1,2.61,1.77,5.75,1.15,4.59,2.45,9.71-.53,14.07-1.1,1.61-2.74,2.28-3.89,3.66-1.43,1.72-2.49,3.41-4.22,5.76-4.77,6.49-21.55,32.54-30.53,17,8.76,2.5,10.37-7.94,7.41-13.11-3.26-5.71-11.08-7-11.08-14.82-3.3,4.07-10.69-1.16-12.2-4.26,6.69,4.6,10.8-3.45,10.43-9.08-0.6-9.2-9-16.24-18-16.37-7.78-.11-8.11,4.26-14.88.28C-2124.22,1951.64-2128.56,1947-2132.77,1943.21Z" transform="translate(2287.41 -1920.97)"/><path class="cls-32" d="M-2072.57,2016.32a10.63,10.63,0,0,1-9.32-5.13c4.68,1.7,10.15-2.28,10.23-7.24,0.12-8.25-12.79-10.42-13.42-19.14-4.89,3.13-11.12-2.06-12.87-6.35,6,5.08,10.48-.25,11.11-6,1-8.84-7.27-16.52-15.44-17.64-5.27-.72-9.11,3.23-13.16,2.86-3.59-.32-12-8.45-13.93-10.91-2.06-2.61-3.48-2-3.36-4.61,0.16-3.49,6.32-8.67,8.84-10.41,8.31-5.74,16.06-3.85,25.33-3.32,3.12,0.18,18-3.21,8.11-6.47,6.37-3.44,17.85,2.76,13,10.63,11,0.92,15.83,5.52,19.39,15.33,1.5,4.14,2.5,10.32,8.55,9.5,5-.67,5.71-4.48,3.7-8.07,3.23,1.85,6.29,4.75,6.48,8.7,0.22,4.32-4.41,5.77-4.76,8.64-0.48,3.89,5,8.75,3.82,14.32-1.08,5-4.21,5.48-6.67,8.69C-2052.46,1996.78-2061,2016.32-2072.57,2016.32Zm-7.53-3.87c6.92,7.91,16.07-.31,20.23-5.57,2.38-3,6.3-7.36,8.28-10.73,1.68-2.86,2.62-5.24,4.14-7.18,3.05-3.91,6.67-5.21,6.6-11.44,0-3.64-4.44-9-4.12-11.28,0.8-5.7,9.47-8.24.71-14.9,2.19,5.2-4,7.84-8.07,6.53-5.66-1.8-5.23-7.16-6.92-11.83-3.24-8.92-10.1-12.4-19.81-12.74,5.35-6.13-3-13.55-9.36-11.37,7.43,4.69-5.56,7.54-8.08,7.5-8.06-.13-14.75-2.83-22.65.58-3.71,1.6-9.23,5.09-10.87,9.06-2.23,5.4-1.87,4.5,3.52,9.08,2.91,2.47,7.95,8.34,11.95,9,0.37,0.06,8-3.4,9.34-3.43A19.85,19.85,0,0,1-2096,1956c9.06,4.66,14.79,30.65.13,24.71,2.53,3.62,8.23,5.52,11.52,2.07-0.49,8,6.9,10,10.84,15.48s2.32,15.2-6.65,14.19C-2078.54,2014.24-2079.88,2012.47-2080.1,2012.45Z" transform="translate(2287.41 -1920.97)"/><path class="cls-32" d="M-2118.51,1952.48c4.38-9.16,14.84-12.49,24-8.53C-2103.87,1941.2-2113.15,1944.27-2118.51,1952.48Z" transform="translate(2287.41 -1920.97)"/><path class="cls-32" d="M-2087.65,1942c10.73,3.85,12.65,15.56,8.23,24.84C-2076.31,1957.23-2077.76,1947.07-2087.65,1942Z" transform="translate(2287.41 -1920.97)"/><path class="cls-32" d="M-2087.94,1936c2.41-3,6.46-3.82,10.14-2.94C-2081.35,1933.31-2085,1933.93-2087.94,1936Z" transform="translate(2287.41 -1920.97)"/><path class="cls-32" d="M-2088.38,1953.65c3.13,3.49,4.73,7.66,7.16,11.6,5.22,8.48,8.61,8.16,18.15,10,7.59,1.46,15.27,5.81,14.22,14.58,0.69-12.41-12.44-12-21.13-14.48C-2081.25,1972.17-2081.92,1961.82-2088.38,1953.65Z" transform="translate(2287.41 -1920.97)"/><path class="cls-32" d="M-2067.36,1946.89c3.54,3.22,4.84,12.07-.09,11.7,5.7,3.25,8.85-3.49,7.73-8.32,2.1,5.81-2.56,12.84-8.78,8.71,5.54-2.4,4.58-7.88,1.13-12.09C-2066.47,1947.7-2066.6,1947.82-2067.36,1946.89Z" transform="translate(2287.41 -1920.97)"/><path class="cls-32" d="M-2055.17,1963.65c3.8-.49,7.9.4,10.58,3.23A30.83,30.83,0,0,0-2055.17,1963.65Z" transform="translate(2287.41 -1920.97)"/><path class="cls-32" d="M-2062.22,1994.62c3.58,1.69,4.81,5.78,3.64,9.43A11.85,11.85,0,0,0-2062.22,1994.62Z" transform="translate(2287.41 -1920.97)"/><path class="cls-32" d="M-2082.16,1974.69c1.82,3.4.39,7.31-2.69,9.43A11.61,11.61,0,0,0-2082.16,1974.69Z" transform="translate(2287.41 -1920.97)"/><path class="cls-32" d="M-2064.78,2005.8a5.39,5.39,0,0,1-1.49,7.41A9.83,9.83,0,0,0-2064.78,2005.8Z" transform="translate(2287.41 -1920.97)"/><path class="cls-33" d="M-2041.82,1953.09c6.45,14.12-16.16,8.71-15.87,11,0.14,1.05,8.59,3.15,10.09,5a10.94,10.94,0,0,1,2.18,7.8c-0.07,1.05-.71,6.06-2.33,6.54-2.55.76-1.21-2.39-3.24-3.8-3.48-2.41-5.27-4.23-9.69-5.35-4.25-1.07-11,.54-14.1-3.32s3.26-22.78-3.81-23.23c-1.2-.08,2.31,11.7-0.62,12.78-3.65,1.35-5.32-9-7.27-11.52-7.41-9.45-21.29-7.64-31.25-3.87,3-6.87,9.91-8.83,17-9a25.21,25.21,0,0,0-16.44,2.32c-1.07.54-4.84,4.43-5.9,4-7.41-2.89,10.32-14.3,11.67-14.79-5.65.55-21.79,7.08-21.21,15.27,0.19,2.62,14,13.47,16.66,13.92,3.12,0.53,6.21-2.43,10.14-2.7a19.06,19.06,0,0,1,14.43,5.68c5.58,5.79,6.27,27.91-5.49,19.82,1.58,3.24,8.92,8.31,12.2,4.26,0,7.6,7.87,9.2,11.08,14.82,2.9,5.08,1.7,15.71-7.41,13.11,8.24,14.27,23-6.85,27.93-12.9a19.46,19.46,0,0,0,3.36-5.6q-0.54-4.35,3.47-4.24c2.63-3.49,5.11-4.37,5.75-9.4s-4.42-9.48-4.2-13.13c0.31-5.13,8.89-6.34,2.91-13.5C-2038.37,1960.65-2037.82,1957.88-2041.82,1953.09Z" transform="translate(2287.41 -1920.97)"/><path class="cls-31" d="M-2070.22,1978.12s14.94,3.54,13.92,15.95S-2037.06,1975.34-2070.22,1978.12Z" transform="translate(2287.41 -1920.97)"/><path class="cls-34" d="M-2118.46,1936.16c7.21-2.57,16.6-3.57,23.2,1.09-4.52-1.42-10.35-.21-14.19,2.45,6.87-.9,14.28.28,20,4.31,1.58,1.11,8.4,10.74,8.35,10.75,5.56-1-7.48-13.17-8.71-13.7,7.28-.88,23.38,5.17,20.2,15,7.85-1.2-1.76-14.83-2.78-14.13,4.42-3,11.07,10.69,9.05,14.41,5.36-.36,1.69-12,0.37-14.09-5.48-8.52-17.91-9.2-26-4.48-3.26-6.13,5.07-3.63,7.08-6.13,2.42-3,2.19-8.27-3-8.88,6.12,9.19-12.31,7.73-15.29,7.37C-2107.35,1929.27-2114.28,1929.09-2118.46,1936.16Z" transform="translate(2287.41 -1920.97)"/><path class="cls-34" d="M-2065.25,1970.63c3.75,0,8.12.54,11.3,2.64,2.63,1.74,4.68,7.79,6.8,4,5.68-10-22.09-16-24-8.31C-2071.65,1970.87-2064.76,1970.62-2065.25,1970.63Z" transform="translate(2287.41 -1920.97)"/><path class="cls-34" d="M-2053.65,1959c4.41,1.8,9.47.44,10.07-4.94,6.16,10.4-13.2,8.91-12.6,5.28A1.77,1.77,0,0,1-2053.65,1959Z" transform="translate(2287.41 -1920.97)"/><path class="cls-35" d="M-2063.44,1993.84c3.53,3.63,3.65,9.12,1.69,13.53-1-1.9-1.6-4.3-4.23-4.74,1.84,4.1.93,8.42-4.06,9.13,6.62-4.92-.35-14.58-3.93-18.83-2.7-3.19-5.13-4.36-6.43-8.51-1.1-3.54,1.43-7.4-1.48-10.55a7.22,7.22,0,0,1-10,8.28c13.68,0.58,6.24-23.18.41-27.77-4-3.18-8.61-4.13-13.59-4.42-4.47-.26-12.09,1.9-6.28-5.18-7,2-19.89,3.19-16.63-9.05-7.16,7.79-3.56,8.84,3.36,14.56,2.12,1.75,5.87,6,8.58,6.56s4.27-1.62,7.56-2.41c8.15-2,17.23,3.17,20.46,10.61,2.41,5.57.78,21.28-8.93,14.61,1.58,3.24,8.92,8.31,12.2,4.26,0,7.6,7.87,9.2,11.08,14.82,2.9,5.08,1.7,15.71-7.41,13.11,8.37,14.5,26-8.93,30.07-15.94-5,7.18-7.26-2.08-12.48-2.08C-2057.86,1999.58-2059.06,1993.84-2063.44,1993.84Z" transform="translate(2287.41 -1920.97)"/><path class="cls-36" d="M-2082.59,1936.69c9.61-3.21,20,2.21,21,12.6C-2065.09,1940.13-2072.71,1936.13-2082.59,1936.69Z" transform="translate(2287.41 -1920.97)"/><path class="cls-36" d="M-2064.92,1967.19c6.51-2.13,16.71,0,16.58,8.4C-2049.58,1972-2064.92,1964.32-2064.92,1967.19Z" transform="translate(2287.41 -1920.97)"/><path class="cls-36" d="M-2111.54,1931.53c3.4-3.35,8.89-3,12.61-.29C-2103.14,1930.76-2107.4,1930.37-2111.54,1931.53Z" transform="translate(2287.41 -1920.97)"/><path class="cls-36" d="M-2083.88,1923.71c3.43,4-.93,8.09-5.28,7.62C-2085.83,1930-2083.24,1927.52-2083.88,1923.71Z" transform="translate(2287.41 -1920.97)"/><path class="cls-31" d="M-2113.29,1957.4c-15.32-16-38.43-23.13-60.17-19.27a61.86,61.86,0,0,0-26.28,11.44c-9.17,6.75-19.29,12.23-26.8,21.18-6.28,7.48-11.44,16.73-12.91,26.49-1.32,8.79-4.62,18.92-2.18,27.78,2.68,9.71,11.32,16.19,20.87,18.41-3.91-9.13-7-21.26-2.74-30.74,1.73,11.5,18.27,19.45,28.74,16.51-10-3.27-13.07-17-10.29-26,3.82,7.36,13.27,10,21,10.29-3.63-1.76-7.46-4.87-8.93-8.74,12.92,8,37-3.84,43.7,15.92a6,6,0,0,0,1.74-3.88c4.36,4.07,6.58,10.41,7.77,16.12a17,17,0,0,0,1.17-6c2.94,4.7,4.08-5.43,4.08-5.44,5.61,13.23,5.71,29.73-.56,42.74,53.73-3.39,50.4-76.91,21.82-106.78h0Z" transform="translate(2287.41 -1920.97)"/><path class="cls-32" d="M-2135.79,2064.64c6.1-12.64,6.46-27.84,1.67-41-0.51,4.9-4.81,5.09-5.83,10.66-1-5.88-3.12-12.3-7.32-16.67-0.56,2.86-1.5,2-2.28,3.77-5.17-19.52-29.74-9.53-42.59-15.73,2,3.82,6.06,6.66,10,8.23-8,.16-18.3-2.34-22.78-9.67-2.38,9.43,1.34,22.13,11.58,25-10.84,3.63-27.16-3.67-30.27-15.16-3.5,9.45-.42,21,3.57,29.91-10.27-2-19.77-9.27-22.23-19.77-1.75-7.45.74-14.55,2-21.73,1.41-8,2.35-14.54,6.38-21.82,8.56-15.45,24.29-25.78,38.8-34.9,14.08-8.85,32.17-11,48.24-7.5,31.62,6.88,51.52,35.24,54.3,66.49C-2090,2033.53-2104,2063-2135.79,2064.64Zm0.42-46.19c6.37,14.09,7.51,31,.93,45.27,33.12-2.52,45-35.78,40.36-64.74-5-30.93-27-57.08-59.09-61-15.37-1.87-32.29,1.31-44.84,10.73-12,9-25.05,16.42-33.48,29.47-6.65,10.31-9.12,23.95-10.37,36-1.45,14,7,25.1,20.4,28.61-4-9.48-6.76-21.93-1.86-31.58,1.39,11.63,16.25,19.91,27.16,17.84-9.6-4.25-12.15-17.94-9-27,3.57,7.18,11.69,10.11,19.23,10.84a18.05,18.05,0,0,1-7.9-9.19c13,8.46,37.49-3.29,44.68,16.1a7.54,7.54,0,0,0,1.23-4c4.36,4.08,6.82,9.74,8.2,15.47a19.19,19.19,0,0,0,.67-5.92C-2134.73,2029.92-2134.33,2022.18-2135.37,2018.45Z" transform="translate(2287.41 -1920.97)"/><path class="cls-32" d="M-2224.45,2033.61c-11-5.52-9.81-20.76-6.76-30.51C-2233.16,2013.13-2234.45,2027.18-2224.45,2033.61Z" transform="translate(2287.41 -1920.97)"/><path class="cls-32" d="M-2204.14,1953.65a43.31,43.31,0,0,0-10.27,26.52C-2215.47,1970.49-2211.22,1960.23-2204.14,1953.65Z" transform="translate(2287.41 -1920.97)"/><path class="cls-32" d="M-2239.86,2004.37a21.61,21.61,0,0,1,13.17-14.57A32.62,32.62,0,0,0-2239.86,2004.37Z" transform="translate(2287.41 -1920.97)"/><path class="cls-32" d="M-2223.83,2012.52c-1.1-5.46,0-11.69,3.69-16C-2222.83,2001.44-2223.76,2007-2223.83,2012.52Z" transform="translate(2287.41 -1920.97)"/><path class="cls-32" d="M-2183.29,1978.53c14-6.41,39.7,3.15,40.53,20.47C-2144.63,1982.22-2169.22,1973.4-2183.29,1978.53Z" transform="translate(2287.41 -1920.97)"/><path class="cls-32" d="M-2154.63,1987.14c7.81,3.12,13.85,10.84,13.51,19.45C-2142,1998.16-2147.45,1991.35-2154.63,1987.14Z" transform="translate(2287.41 -1920.97)"/><path class="cls-32" d="M-2157.7,1996.14c5.87,5.09,10.5,12.71,10.44,20.68C-2148.41,2009-2152.68,2002.1-2157.7,1996.14Z" transform="translate(2287.41 -1920.97)"/><path class="cls-32" d="M-2148.7,2000c7.4,6.73,10.82,17.4,9.83,27.23C-2139.15,2017.39-2142.22,2007.63-2148.7,2000Z" transform="translate(2287.41 -1920.97)"/><path class="cls-32" d="M-2138.86,2008a21.79,21.79,0,0,1,4.1,14.34A60.25,60.25,0,0,0-2138.86,2008Z" transform="translate(2287.41 -1920.97)"/><path class="cls-32" d="M-2173.67,1974.23c8-15.18,23.63-31.13,42.18-30.3C-2149.91,1944.44-2164.59,1959.57-2173.67,1974.23Z" transform="translate(2287.41 -1920.97)"/><path class="cls-32" d="M-2129.85,1948.24c-6,10.35-15.21,18.71-25.18,25.18C-2145.79,1965.89-2136.89,1957.95-2129.85,1948.24Z" transform="translate(2287.41 -1920.97)"/><path class="cls-32" d="M-2109.18,1962.15c5.75,18-9.39,33.15-24.16,40.13C-2119.15,1994.15-2104.87,1980.32-2109.18,1962.15Z" transform="translate(2287.41 -1920.97)"/><path class="cls-32" d="M-2103.24,1978.74c-1.72,14.31-10.42,29-24.16,34.6C-2114.26,2006.52-2106.31,1992.9-2103.24,1978.74Z" transform="translate(2287.41 -1920.97)"/><path class="cls-32" d="M-2100.78,1985.09c4.09,16.94-2.39,35.62-18.22,43.82C-2104,2019.55-2098.12,2002.24-2100.78,1985.09Z" transform="translate(2287.41 -1920.97)"/><g class="cls-37"><path class="cls-38" d="M-2114.09,2053c-6.37,3.32-13.22,5.34-12.5-3.47,0.73-9,8.17-12.3,14.32-16.66A35.54,35.54,0,0,0-2099,2015.5c0.21-.6,3-11.3,1.55-11.1-1.82.25-7.95,26.44-16.55,21.49,2.44,1.4,10.65-11.88,11.53-14,0.33-.77,4.13-13.9,2.09-13.85-0.78,0-8.12,29.56-17.41,17.82-1.45-1.83,14.27-31.19,13-31.28,6.54,0.46-28.42,30.53-26,16.18,0.24-1.45,9.2-5.64,10.78-7a35.46,35.46,0,0,0,8.48-10.51c0.57-1.1,2.78-12.53,2.57-12.36-1.73,1.43-2.2,7.22-3.4,9.56a33.18,33.18,0,0,1-9.14,11.26c-6.31,4.84-12.47,6.52-18.4,1.12-2.55-2.32-7.8-8.92-9-12.23-2.11-5.8,0-5.53,4.07-9.34,3-2.85,16.19-15.35,13.84-20.79,1.49,3.46-27.84,28.92-33.52,19.68-5.37-8.73,20.27-23.42,26.06-26.05-14.55.62-24.2,11.46-32.95,21.76-2.55,3-4.95,6.63-8.48,8.57-0.79.43-16.23,5.43-15.38,5.79,3.49,1.5,10.82-2.78,14.76-3.11a38.47,38.47,0,0,1,15.29,1.83c2.88,0.94,14.24,5,14.72,8.83-0.08-.62-9-3.69-9.49-2.11,0.14-.4,22.48,12.44,17.17,18.85-0.26.31-6.12-4.82-7.6-5.52,1.58,2,7.83,19.49,7.28,19.22,1,0.52-16.49-29-18.47-23.94,1.19-3,14.93,20.33,12.23,20-1.15-.14-6.18-6.1-8-7-6.07-2.91-12.64-2.64-19.11-3.35-8.06-.88-15.6-3.1-20.65-9.88,0,6.09,2.1,12.43,6.71,16.59-5.89-1.29-14.29-6.85-13.76-13.94-7.46,9.21-5.34,24,3.88,31.24a25.52,25.52,0,0,1-20.65-30.18c-6.41,8.4-7.89,21.07-5.12,31.06-7.11-5.15-7-15.94-5.47-23.65-5.72,12.22-.66,25.14,8.29,34.24-27.28-5.29-17.2-39.86-.88-51.53a30.85,30.85,0,0,0-11.65,5.47c-0.62-4.19.63-8.63,2.47-12.35-5.45,8.1-6.07,17.89-7.7,27.18-1.37,7.79-2.46,15.11,1.68,22.34,3.86,6.75,11.19,11.17,18.63,12.89-3.91-9.13-7-21.26-2.74-30.74,1.73,11.5,18.27,19.45,28.74,16.51-10-3.27-13.07-17-10.29-26,3.82,7.36,13.27,10,21,10.29-3.63-1.76-7.46-4.87-8.93-8.74,12.92,8,37-3.84,43.7,15.92a6,6,0,0,0,1.74-3.88c4.36,4.07,6.58,10.41,7.77,16.12a17,17,0,0,0,1.17-6c2.94,4.7,4.08-5.43,4.08-5.44,5.61,13.23,5.71,29.73-.56,42.74,35.81-2.26,47.14-39.27,40.6-69.72,2.82,19,0,48.34-19.59,58.53h0Z" transform="translate(2287.41 -1920.97)"/><path class="cls-39" d="M-2213.39,1969.73c16.14-22.7,38.25-33.28,65.86-31.17-14.3-3-29.83-1.44-42.94,5.13-5.81,2.91-10.32,7.31-15.55,10.88-6.43,4.39-12.41,7.44-17.9,13.24,4.66-4.14,12.86-8.72,10.53,1.91C-2201.3,1952.74-2210.49,1956.5-2213.39,1969.73Z" transform="translate(2287.41 -1920.97)"/></g><path class="cls-34" d="M-2217.79,1989.63s-13.53,14.4-10.94,32C-2228.73,2021.59-2239.82,2004.32-2217.79,1989.63Z" transform="translate(2287.41 -1920.97)"/><path class="cls-34" d="M-2219.94,1987.75s-24.62,21.19-11,45.64C-2243.89,2025-2243.87,2003.3-2219.94,1987.75Z" transform="translate(2287.41 -1920.97)"/><path class="cls-34" d="M-2202.81,1986.11s-16.93,19.66-3.55,37.67C-2226,2014-2220.83,1991.3-2202.81,1986.11Z" transform="translate(2287.41 -1920.97)"/><path class="cls-34" d="M-2197.35,1986.38s-6,11.47,2.46,21C-2203.63,2003-2206.36,1992.67-2197.35,1986.38Z" transform="translate(2287.41 -1920.97)"/><path class="cls-34" d="M-2193.43,1984.7c-10.94,17.69,32.73,14.77,38.12,21.61-3.06-7.78-8-11.75-15.83-14.19,3.51-1.09,26.68,4.5,24.54,7.56,4-5.81-20.67-13.37-23.18-13.3,1.8-3.08,7.51-3,10.64-3-9.82-.36-26.55-11.24-34.3,1.32h0Z" transform="translate(2287.41 -1920.97)"/><path class="cls-34" d="M-2144,1976.13c2.41-2.18,19-20.92,16.09-23.14,2.7,2.08-7.74,16.1-4.51,16.89,2.89,0.71,9.19-8.92,8.8-10.64,1,4.54-7,13.73-1.58,15.57,5,1.7,9.6-8.85,12.44-8.48,9.15,1.18-21.8,31.18-21.42,22.17,0.08-2,5-4.47,4.24-6.31-0.43-1-8.45,5.33-9.29,3.71-1.3-2.49,3.5-4.18.72-7.09-1.26-1.32-5.94.71-6.76-.89A2.15,2.15,0,0,1-2144,1976.13Z" transform="translate(2287.41 -1920.97)"/><path class="cls-34" d="M-2160.22,1965.09c2.75-4.7,14.77-19.54,21-17.28,1.21,0.44-10.57,11.14-10.52,12.64s14.22-11.52,14.13-11.52C-2133,1948.88-2163.75,1979.17-2160.22,1965.09Z" transform="translate(2287.41 -1920.97)"/><path class="cls-34" d="M-2107,1976a33.57,33.57,0,0,1-6.26,12.83c-1.71,2.16-11.74,9.45-10.48,10.17,4.11,2.36,11.32-4.87,13.19-7.44,2.06-2.82,4.2-7.59,4.49-11.23C-2106.07,1980.57-2105.1,1972.69-2107,1976Z" transform="translate(2287.41 -1920.97)"/><path class="cls-34" d="M-2114.82,2011c4.64-5,13.26-17.67,12.05-24.57,0.32,1.82-2.21,18-3.33,18.11,4.75-.48,4.24-18.62,5.43-18.65,2-.05-0.81,15.43-1.13,16.42-1.15,3.53-2.83,7.85-5.95,10.12C-2110,2014.05-2119.32,2016.09-2114.82,2011Z" transform="translate(2287.41 -1920.97)"/><path class="cls-34" d="M-2098.31,2018.38a29.18,29.18,0,0,1-4.53,8.37c-4.63,6.07-12,7.14-16.75,12.12-0.21.22,10.36-.78,10.73-2.78-1,5.55-13.2,8.8-13.36,13.56-0.2,6.07,9.46.27,11.67-1.49,2.57-2.05,19.39-30.18,14-31.2A2.57,2.57,0,0,0-2098.31,2018.38Z" transform="translate(2287.41 -1920.97)"/><path class="cls-34" d="M-2206.71,1966.51a38.66,38.66,0,0,1,8-10.71c3-2.93,16.32-14.25,20.73-12.44-1.29-.53-13,9.13-12.36,9.74,1.49,1.52,26.86-16.81,24.18-8.25-0.53,1.69-15.17,12.12-15.78,11.81,2.13,1.07,22.13-13,23-11.25,1.43,3-17.62,19.72-19.62,21.46-12.11,10.5-3-1.07-5.35-2.12-3.35-1.47-8.58,7.37-12.06,6.85-5.64-.85,1.74-8.05-0.45-8.7-2.5-.74-9.48,10.41-11.43,8.64C-2208.85,1970.7-2207,1967.1-2206.71,1966.51Z" transform="translate(2287.41 -1920.97)"/><path class="cls-34" d="M-2216.23,1967.24c-0.88,2.79-4.31,15.48-2.36,17.08-1-.81-3.3-9.25-2.11-10.09-2.26,1.6-6.37,17.24-11.36,10.24-2.92-4.09,14.28-21.44,15.78-19.23Z" transform="translate(2287.41 -1920.97)"/><g class="cls-40"><path class="cls-41" d="M-2206.23,1988c-11.09,8.44-13.31,19.89-5.15,31.06C-2222.13,2009.5-2219.38,1994.35-2206.23,1988Z" transform="translate(2287.41 -1920.97)"/><path class="cls-41" d="M-2226,1993c-10.2,9.8-16.21,22.77-9.1,36C-2244.9,2016.88-2238.06,2000.7-2226,1993Z" transform="translate(2287.41 -1920.97)"/><path class="cls-41" d="M-2191.6,1984.68c-7.27,14.1,26.84,13.22,33.24,18.4C-2164.18,1999.86-2202.67,1998.91-2191.6,1984.68Z" transform="translate(2287.41 -1920.97)"/><path class="cls-41" d="M-2204.58,1966.19c2.33-8.87,11.27-15.46,19.37-18.73C-2192.28,1952.86-2200.06,1958.33-2204.58,1966.19Z" transform="translate(2287.41 -1920.97)"/><path class="cls-41" d="M-2159.24,1966.62c2.8-7.81,9.78-14.13,17.46-17C-2148.27,1954.64-2154.28,1960-2159.24,1966.62Z" transform="translate(2287.41 -1920.97)"/><path class="cls-41" d="M-2230.09,1984.34a25.23,25.23,0,0,1,11.5-17.74A97.25,97.25,0,0,0-2230.09,1984.34Z" transform="translate(2287.41 -1920.97)"/></g><path class="cls-42" d="M-2134.55,2021.44s-1.14,10.14-4.08,5.44a17,17,0,0,1-1.17,6c-1.19-5.72-3.41-12.05-7.77-16.12a6,6,0,0,1-1.74,3.88c-6.72-19.76-30.78-7.9-43.7-15.92,1.5,3.94,5.25,6.91,8.93,8.74-7.69-.32-17.16-2.94-21-10.29-2.77,9,.27,22.75,10.29,26-10.47,2.94-27-5-28.74-16.51-4.14,9.13-.72,18.12,1.32,27.15,1.5,6.64,1.47,13.78,4.1,20.27,6,14.79,21.14,23.25,36.28,25.76,37.33,6.19,61.52-30.75,47.24-64.44C-2134,2025.71-2129.7,2032.9-2134.55,2021.44Z" transform="translate(2287.41 -1920.97)"/><path class="cls-43" d="M-2172.42,2087.1c-18.18,0-38.29-8.68-45.76-26.22-3.28-7.71-3.08-16.14-5.44-24.11-2.44-8.25-3.62-17.56.32-25.56,1.35,11.65,16.18,19.9,27.1,17.89-9.59-4.3-12.11-18-9-27,3.56,7.18,11.63,10.1,19.16,10.86a18.16,18.16,0,0,1-7.86-9.21c13,8.48,37.53-3.27,44.72,16.11a7.62,7.62,0,0,0,1.21-4c4.36,4.06,6.84,9.72,8.22,15.44a19.39,19.39,0,0,0,.65-5.92c4.33,4.61,4.7-3.34,3.65-7.06C-2122,2047.56-2136,2087.1-2172.42,2087.1Zm-51.21-73c-3.3,9,0,17.42,2.07,26.11,1.16,4.93,1.08,10,2.33,15,4.57,18.17,22.54,28.6,40.19,30.63,35.44,4.09,56.41-30.46,44.92-62.11-0.55,4.81-4.8,5.14-5.85,10.64-1-5.89-3.11-12.31-7.3-16.69-0.58,2.83-1.51,2-2.3,3.77-5.1-19.5-29.71-9.59-42.54-15.72,2,3.82,6.09,6.64,10,8.21-8.07.15-18.31-2.31-22.85-9.64-2.37,9.45,1.38,22.1,11.62,25-10.86,3.64-27.16-3.62-30.34-15.1C-2228.06,2026.2-2221.33,2022.46-2223.63,2014.14Z" transform="translate(2287.41 -1920.97)"/><path class="cls-14" d="M-2197.94,2067.38c4.14,3.19,37.69-6.19,36.5-10.94,3.47,8.28-2.64,22.89-13.14,20.7-4.49-.93-7-6.06-11.65-7C-2191.26,2069.14-2194.67,2073-2197.94,2067.38Z" transform="translate(2287.41 -1920.97)"/><g class="cls-44"><path class="cls-15" d="M-2134.55,2021.44s-1.14,10.14-4.08,5.44a17,17,0,0,1-1.17,6c-1.19-5.72-3.41-12.05-7.77-16.12a6,6,0,0,1-1.74,3.88c-6.72-19.76-30.78-7.9-43.7-15.92,1.5,3.94,5.25,6.91,8.93,8.74-7.69-.32-17.16-2.94-21-10.29-2.77,9,.27,22.75,10.29,26-10.47,2.94-27-5-28.74-16.51-4.14,9.13-.72,18.12,1.32,27.15,1.5,6.64,1.47,13.78,4.1,20.27,6,14.79,21.14,23.25,36.28,25.76,37.33,6.19,61.52-30.75,47.24-64.44C-2134,2025.71-2129.7,2032.9-2134.55,2021.44Zm-55.43,7.26a30.94,30.94,0,0,1-10.1-7.92c9.17,5.93,14.06-7.19,22.57-9.75,5.92-1.78,13-1.28,16.87,4,1.26,1.71,3.86,6,1.4,7.39-0.43.23-7.61-2.66-9.4-2.47a13.71,13.71,0,0,0-10.5,7c-4.11,7.89,4,24.12,14.27,20a30,30,0,0,0,.55,3.55c1.16-2.15,11.47-14.39,14.14-11.15-3.2-3.88-3.63-.12-4.71-6.35-0.44-2.53-1.16-7.47,2.3-8.16s7.45,6.58,8.73,9c7.58,14.19,5,33.36-7.73,43.66-13.88,11.22-34.17,8.57-48.45-.44-3.11-2-23.75-19.66-18.14-25.68,0,0,5.14,5.48,5.47,5.84,1.58,1.72-.92,1-0.2,4.22,2.79-3.37,9.15-2.84,12.82-2.19a2.47,2.47,0,0,0-1.91-1.36c3.31-1.17,4.3,2.12,8.26.89-2.21-.66-1.92-15.44-5.33-19.49-2.2-2.61-5.65-5.13-9.13-5.61-2.53-.35-8.57,2.85-9.9,1.94-6.8-4.65,8.12-6,9.73-5.8C-2202.47,2030.56-2195,2033.56-2190,2028.7Z" transform="translate(2287.41 -1920.97)"/></g><path class="cls-45" d="M-2190.1,2018c6-7.86,16-12.22,25.73-9.5a21.5,21.5,0,0,0-17.5-.55c-2.72,1.09-13.09,7.37-10.54,11.28Q-2190.72,2020-2190.1,2018Z" transform="translate(2287.41 -1920.97)"/><path class="cls-45" d="M-2219.85,2031.71c-0.29-5.23,4-6.69,8.61-5.19-3.52-2.13-7.36-3.22-10,.45C-2223.37,2029.84-2219.74,2033.4-2219.85,2031.71Z" transform="translate(2287.41 -1920.97)"/><path class="cls-46" d="M-2189.31,2068.8c8.19-4.44,18.22-4.65,27.1-7.2-0.62,4.9-2.84,10.76-7.71,12.8C-2178.17,2077.86-2181.47,2067.52-2189.31,2068.8Z" transform="translate(2287.41 -1920.97)"/><path class="cls-47" d="M-2173.89,2068.6c3.2-.9,6.91-2.76,8.24-6.06-5.53,1.4-11.24,2.06-16.75,3.55a8.11,8.11,0,0,0,8.51,2.51h0Z" transform="translate(2287.41 -1920.97)"/><path class="cls-48" d="M-2175.26,2075.15c4.88,1.18,9-2.54,11-6.55-4.6-1.17-8.71,3.1-11,6.55C-2174.07,2075.44-2173.67,2072.74-2175.26,2075.15Z" transform="translate(2287.41 -1920.97)"/><path class="cls-49" d="M-2168.76,2070a2.47,2.47,0,0,1-2.44,2,2.47,2.47,0,0,1,2.44-2h0Z" transform="translate(2287.41 -1920.97)"/><path class="cls-49" d="M-2167.5,2069.14c0.33,0.53-.34-0.58,0,0h0Z" transform="translate(2287.41 -1920.97)"/><g class="cls-37"><path class="cls-48" d="M-2166.54,2068.46c3-.1-8.88,8.78-6.37,3.71-5.36,5.73,6.38,1,8.64-3.56l-2.27-.15C-2164.26,2068.38-2165.81,2068.38-2166.54,2068.46Z" transform="translate(2287.41 -1920.97)"/></g><g class="cls-50"><path class="cls-51" d="M-2177.31,2065q-2.57.42-5.09,1.09c1.58,1.94,11.42-3.16,12.3-1.22,1.46,3.23-7.63,3.71-8.81,3.7,4.5,1.54,11.47-1.59,13.26-6-3.85,1-7.74,1.81-11.66,2.46h0Z" transform="translate(2287.41 -1920.97)"/></g><path class="cls-43" d="M-2196.8,2041.53c3.84,7.4-2.6,19.2,9.63,17.8C-2200.06,2062.69-2194.21,2048.5-2196.8,2041.53Z" transform="translate(2287.41 -1920.97)"/><path class="cls-43" d="M-2196.93,2068.67c2.53,1.34,5.41,1,8.08.07C-2191.38,2070.72-2194.76,2071.15-2196.93,2068.67Z" transform="translate(2287.41 -1920.97)"/><path class="cls-43" d="M-2161.51,2057.14c0.2,2,1.8,3.09-.7,4.46C-2161.08,2060-2161.79,2059.05-2161.51,2057.14Z" transform="translate(2287.41 -1920.97)"/><path class="cls-43" d="M-2189.31,2068.8c7.62-5.12,19-5.24,27.56-7.74-0.54,5.62-3.5,12.88-9.67,14.35C-2178.52,2077.1-2182.22,2068.14-2189.31,2068.8Zm0,0c6.93-1,10.71,7.4,17.47,6s7.35-9.2,9.75-12.8C-2170.71,2064.46-2181.46,2064.18-2189.31,2068.8Z" transform="translate(2287.41 -1920.97)"/><path class="cls-43" d="M-2173.6,2079.2a9.53,9.53,0,0,0,7.1-1.22A5.09,5.09,0,0,1-2173.6,2079.2Z" transform="translate(2287.41 -1920.97)"/><path class="cls-43" d="M-2163.53,2048a10.92,10.92,0,0,1,9.88-8.72A17.57,17.57,0,0,0-2163.53,2048Z" transform="translate(2287.41 -1920.97)"/><path class="cls-52" d="M-2159.12,2028.51c6.78,15.15-12.21,23.61-18.91,8.61s12.16-23.68,18.91-8.61h0Z" transform="translate(2287.41 -1920.97)"/><path class="cls-3" d="M-2159.12,2028.51c6.42,14.33-10,24.39-18.38,10.3C-2186.57,2023.54-2166.47,2012.06-2159.12,2028.51Zm0,0c-6.84-14.76-25.17-6.31-18.54,8.44C-2170.83,2052.16-2152.53,2043.64-2159.12,2028.51Z" transform="translate(2287.41 -1920.97)"/><g class="cls-44"><path class="cls-53" d="M-2174,2020.76c-12.51,5.69-1.68,29.91,10.81,24.12s1.74-29.84-10.81-24.12h0Zm13.53,8.36c5.78,12.88-10.44,20.35-16.26,7.4-5.73-12.74,10.35-20.58,16.26-7.4C-2157.87,2034.84-2163,2023.39-2160.45,2029.11Z" transform="translate(2287.41 -1920.97)"/></g><path class="cls-54" d="M-2160.84,2027.44c5.57,9.28-3.62,20.28-10.64,9.3-5.88-9.19,4-20.4,10.64-9.3C-2158.09,2032-2163.6,2022.87-2160.84,2027.44Z" transform="translate(2287.41 -1920.97)"/><path d="M-2164.08,2026.72c-6.68-6.39-10.42,7.41-4,11,7.29,4.08,8.36-6.88,4-11h0Z" transform="translate(2287.41 -1920.97)"/><path class="cls-55" d="M-2161.83,2026.07c-1.9-2.26-6.77-3.47-7.75.46-1.6,6.39,7.5,3.78,8.26,5.41,6.52,14-13.66,1-10.78-.09,1.56-.61,6.06,16.15,12.14,4.74,1.13-2.12-.12-9.11-1.87-10.51C-2162.46,2025.33-2160.55,2027.09-2161.83,2026.07Z" transform="translate(2287.41 -1920.97)"/><path class="cls-56" d="M-2166.48,2024.44c-5.18.42,0,7.33,3.7,6.59,4.82-1-.21-6.87-3.7-6.59h0Z" transform="translate(2287.41 -1920.97)"/><path class="cls-57" d="M-2162.06,2027.14c-3.3-3.24-8.6-1.74-3.5,2.23,2.16,1.68,6.42.66,3.5-2.23h0Z" transform="translate(2287.41 -1920.97)"/><path class="cls-45" d="M-2160.9,2024.7c-0.83-1,1.22-4.37,1.95-5.45a6.37,6.37,0,0,1-3.17,3c-0.54-.56.54-1.65,0.55-2.47,0,2.9-8.93-2.4-12.14-1.49-9.91,2.81-5,9.06-5.94,15.33,1.62-8.74,10-19,18.76-8.93h0Z" transform="translate(2287.41 -1920.97)"/><path class="cls-58" d="M-2158.92,2040.48c-0.89,3-5.37,5.49-8.27,5.49,0.5-.06,3.87-1.15,4.29,0-0.8-1.84,2.21-2.14,2.66-.93a1.65,1.65,0,0,0-1-1c0.39-.26,2-2.09,2.73-1.42a1.91,1.91,0,0,0-1.09-.2q1.89-1.83.72-2C-2160,2044-2158.9,2040.42-2158.92,2040.48Z" transform="translate(2287.41 -1920.97)"/><path class="cls-43" d="M-2202.39,2059a13.79,13.79,0,0,0-10.57,1.57A8.73,8.73,0,0,1-2202.39,2059Z" transform="translate(2287.41 -1920.97)"/><path class="cls-59" d="M-2216.73,2051.31c5.75,12.38,21.13,5,15.25-7.37-5.78-12.19-21-5.05-15.25,7.37h0Z" transform="translate(2287.41 -1920.97)"/><path class="cls-3" d="M-2216.73,2051.31c4.69,10.78,18.41,7.29,15.88-4.59C-2203.89,2032.46-2223.44,2036.84-2216.73,2051.31Zm0,0c-5.78-12.56,9.65-20.13,15.55-7.51C-2195.36,2056.24-2211.26,2064.26-2216.73,2051.31Z" transform="translate(2287.41 -1920.97)"/><g class="cls-44"><path class="cls-60" d="M-2216.73,2051.31c5.75,12.38,21.13,5,15.25-7.37-5.78-12.19-21-5.05-15.25,7.37h0Zm3.66-12.24c8.79-4.26,16.67,13,7.93,17.1s-16.62-12.91-7.93-17.1h0Z" transform="translate(2287.41 -1920.97)"/></g><path class="cls-45" d="M-2218.15,2048.11c-0.84-4.94-8.26,2.63-.87-2.1-0.08-.65-1.28-0.52-1.81-1,1.41,1.6,3.44-7.15,5.46-8.52,7.44-5,7.92,2.36,12.59,4.5-6.33-3.74-17-3.78-15.37,7.1C-2218.13,2048.23-2218.68,2044.57-2218.15,2048.11Z" transform="translate(2287.41 -1920.97)"/><path class="cls-58" d="M-2209.44,2057.89c2.23,1,6.13-.67,7.73-2.29-0.32.3-2.74,1.84-2.25,2.73-0.77-1.57-2.48.33-2,1.19a1.39,1.39,0,0,1,0-1.18c-0.42.12-2.31,0.14-2.31,1a1.56,1.56,0,0,1,.46-0.8q-2.12.21-1.6-.61C-2206.74,2059.11-2209.49,2057.86-2209.44,2057.89Z" transform="translate(2287.41 -1920.97)"/><path class="cls-61" d="M-2203.1,2042.87c4.49,7.32-2.73,16.19-8.56,7.62-4.76-7,2.87-16.88,8.56-7.62h0Z" transform="translate(2287.41 -1920.97)"/><path d="M-2205.73,2042.31c-5.66-5.32-8.37,7.08-3.13,9,5.93,2.17,7.08-5.31,3.13-9C-2206.77,2041.33-2204,2043.91-2205.73,2042.31Z" transform="translate(2287.41 -1920.97)"/><path class="cls-62" d="M-2203.9,2041.76c-2.33-2.7-8.29-1.47-5.84,2.68,1.35,2.3,6.21,1.39,6.68,2.86,3.15,9.87-8.2,0-9.1-.77,3.45,2.88,6.91,11.84,9.94,2.28,0.54-1.7-.12-5.82-1.68-7C-2204.42,2041.17-2202.86,2042.59-2203.9,2041.76Z" transform="translate(2287.41 -1920.97)"/><path class="cls-56" d="M-2207.68,2040.48c-4.36.4-.17,5.6,2.06,5.29,5-.69,1.62-5.62-2.06-5.29h0Z" transform="translate(2287.41 -1920.97)"/><path class="cls-57" d="M-2204.08,2042.63c-5.1-4.92-4,1.13-3.83,1.12-0.29,0,7.85,2.78,3.83-1.12h0Z" transform="translate(2287.41 -1920.97)"/><path class="cls-14" d="M-2195.64,2056.11c2,1.57,9.71,0,9.33,1.3C-2188.3,2064.09-2195.16,2056.17-2195.64,2056.11Z" transform="translate(2287.41 -1920.97)"/><path class="cls-63" d="M-2173.2,2076.23a49.42,49.42,0,0,1,5-.93C-2167.48,2077.61-2173.81,2076.36-2173.2,2076.23Z" transform="translate(2287.41 -1920.97)"/><path class="cls-63" d="M-2166.24,2074.49h0Z" transform="translate(2287.41 -1920.97)"/><path class="cls-42" d="M-2134.33,2021.27c0.15-12.47,15.15-2.64,13.56,7.39-0.49,3.09-3.62,10.07-7.46,10.12C-2131.62,2038.81-2133.41,2024.71-2134.33,2021.27Z" transform="translate(2287.41 -1920.97)"/><path class="cls-43" d="M-2134.33,2021.27c0.27-12.66,16.21-2.36,13.93,8.27-0.69,3.23-5.65,12.45-10.16,9.57-1.27-.81-3.46-16.66-3.77-17.84C-2134.31,2020.38-2133.56,2024.17-2134.33,2021.27Zm0,0c1.61,5.78,3.69,11.5,4.35,17.49,5.44-.77,9.74-8.6,8.77-14.52-1.11-6.79-12.74-14.81-13.12-3C-2133.92,2022.71-2134.3,2020.38-2134.33,2021.27Z" transform="translate(2287.41 -1920.97)"/><path class="cls-3" d="M-2125.79,2024c-2.77-9.3-4.21,4.67-3.18,8.42C-2131.54,2027-2127.17,2014-2125.79,2024Z" transform="translate(2287.41 -1920.97)"/><path class="cls-3" d="M-2129.39,2030.45c1.05-1.07.14-3.11,2.64-1.63C-2128.26,2028.7-2128.35,2029.54-2129.39,2030.45Z" transform="translate(2287.41 -1920.97)"/><g class="cls-5"><path class="cls-15" d="M-2134.33,2021.27c0-3.22,2.42-7.31,6.22-6.21-0.34,0-5.6,2.31-3.84,3.84-0.46-.4,12.78,2.81,6.77,5.86-0.63.32-2.83-1.38-3.07,0,0.41-2.45,2,11.51.49,8,1.62,3.75,2.7,4.79,6.19-1.43-0.82,2.17-4.78,9.06-8.11,7.58C-2131.33,2038.17-2133.69,2023.65-2134.33,2021.27Z" transform="translate(2287.41 -1920.97)"/></g><path class="cls-64" d="M-2179.67,2028.24a8.74,8.74,0,0,1,7-7.27C-2166.16,2019.41-2180.71,2016.68-2179.67,2028.24Z" transform="translate(2287.41 -1920.97)"/><path class="cls-64" d="M-2218.5,2044.21a8.75,8.75,0,0,1,7-7.27C-2205,2035.38-2219.54,2032.65-2218.5,2044.21Z" transform="translate(2287.41 -1920.97)"/><path class="cls-6" d="M-2197.18,2037.24c2.47,3.65,3.68,20,5.56,18.6C-2184.12,2050.29-2196.54,2039.37-2197.18,2037.24Z" transform="translate(2287.41 -1920.97)"/><path class="cls-65" d="M-2143.07,2045.07c-3.18-11.71-23.54-3.55-21.24,6.66,2.4,10.69,24.56,5.41,21.24-6.66C-2143.67,2042.89-2141.8,2049.71-2143.07,2045.07Zm-12.91.84c-2,5.39-4.84-.29-5-0.31-1.2-.09,7.31-5.78,5,0.31h0Zm2-4s-3.26,1.1-1.68-.93C-2155.39,2040.78-2152.65,2040.15-2154,2041.87Z" transform="translate(2287.41 -1920.97)"/><path class="cls-66" d="M-2204.59,2071.18c9.63-4.4,5.39-15.29-4.47-12.27s-4.49,16.36,4.47,12.27h0Zm-2.87-10.76c1.16-4.65,4.57,1,4,.88-0.44-.06-4.89,2.9-4-0.88C-2207.07,2058.86-2207.65,2061.22-2207.46,2060.42Zm-2-.93c-0.12.7,1.71,0.95-.35,1.38Q-2210.93,2059.88-2209.41,2059.49Z" transform="translate(2287.41 -1920.97)"/></g></g></svg>