<svg xmlns="http://www.w3.org/2000/svg" xmlns:xlink="http://www.w3.org/1999/xlink" viewBox="0 0 284.19 533.45"><defs><style>.cls-1{isolation:isolate;}.cls-2,.cls-7{fill:#f5bc92;}.cls-3{fill:#9b4d05;}.cls-4{fill:#f484cb;}.cls-5{fill:#b16a88;}.cls-14,.cls-15,.cls-18,.cls-22,.cls-24,.cls-26,.cls-29,.cls-35,.cls-50,.cls-51,.cls-54,.cls-6{mix-blend-mode:multiply;}.cls-15,.cls-22,.cls-34,.cls-48,.cls-49,.cls-57,.cls-7{opacity:0.5;}.cls-16,.cls-25,.cls-34,.cls-40,.cls-47,.cls-49,.cls-55,.cls-56,.cls-58,.cls-7,.cls-8{mix-blend-mode:screen;}.cls-9{fill:#ffd5b8;}.cls-10{fill:#b26118;}.cls-11,.cls-16{fill:#f385cd;}.cls-12{fill:#b16b8a;}.cls-13{fill:none;}.cls-14,.cls-19,.cls-29{fill:#f7c7a2;}.cls-14,.cls-18,.cls-24{opacity:0.8;}.cls-17{fill:#dd7c3a;}.cls-20{fill:#cf5030;}.cls-21{fill:#841a06;}.cls-22,.cls-24,.cls-26,.cls-27{fill:#a7422c;}.cls-23{fill:#f27a45;}.cls-25,.cls-28{fill:#ffa45e;}.cls-30,.cls-49{fill:#561f00;}.cls-31{fill:#6f0003;}.cls-32{fill:url(#linear-gradient);}.cls-33,.cls-34{fill:#ff755c;}.cls-35{opacity:0.4;}.cls-36{fill:#b5a091;}.cls-37{fill:url(#radial-gradient);}.cls-38{fill:url(#radial-gradient-2);}.cls-39{fill:url(#linear-gradient-2);}.cls-40{fill:url(#linear-gradient-3);}.cls-41{fill:#63a587;}.cls-42,.cls-48{fill:#fff;}.cls-43{fill:#603008;}.cls-44{fill:url(#radial-gradient-3);}.cls-45{fill:url(#radial-gradient-4);}.cls-46{fill:url(#linear-gradient-4);}.cls-47{fill:url(#linear-gradient-5);}.cls-50,.cls-51{opacity:0.6;}.cls-50{fill:url(#radial-gradient-5);}.cls-51{fill:url(#radial-gradient-6);}.cls-52,.cls-54,.cls-55,.cls-57{fill:#b1e023;}.cls-53{fill:#698613;}.cls-55,.cls-56{opacity:0.7;}.cls-58{fill:#bde445;}</style><linearGradient id="linear-gradient" x1="-29.86" y1="2851.95" x2="-12.87" y2="2851.95" gradientTransform="matrix(0.84, 0.55, -0.55, 0.84, -81.1, -895.42)" gradientUnits="userSpaceOnUse"><stop offset="0.07" stop-color="#eed8c7"/><stop offset="0.46" stop-color="#fff"/><stop offset="1" stop-color="#dfb798"/></linearGradient><radialGradient id="radial-gradient" cx="-992.28" cy="2291.14" r="17.67" gradientTransform="matrix(1.08, 0.17, -0.16, 0.99, -206.32, -646.63)" gradientUnits="userSpaceOnUse"><stop offset="0.33" stop-color="#fff"/><stop offset="1" stop-color="#dfb798"/></radialGradient><radialGradient id="radial-gradient-2" cx="-19.93" cy="2815.87" r="19.32" gradientTransform="matrix(0.84, 0.55, -0.55, 0.84, -81.1, -895.42)" xlink:href="#radial-gradient"/><linearGradient id="linear-gradient-2" x1="-1611.2" y1="1912.46" x2="-1611.2" y2="1929.93" gradientTransform="translate(-115.66 -539.31) rotate(-2.64)" gradientUnits="userSpaceOnUse"><stop offset="0.01" stop-color="#232533"/><stop offset="0.78" stop-color="#0d7480"/><stop offset="1" stop-color="#63a587"/></linearGradient><linearGradient id="linear-gradient-3" x1="-1616.42" y1="1921.93" x2="-1603.93" y2="1921.93" gradientTransform="translate(-115.66 -539.31) rotate(-2.64)" gradientUnits="userSpaceOnUse"><stop offset="0.01" stop-color="#232533"/><stop offset="0.78" stop-color="#0d7480"/><stop offset="1" stop-color="#63a587"/></linearGradient><radialGradient id="radial-gradient-3" cx="2064.34" cy="2261.49" r="14.71" gradientTransform="matrix(-1.06, -0.14, -0.14, 0.98, 842.13, -498.29)" xlink:href="#radial-gradient"/><radialGradient id="radial-gradient-4" cx="-60.28" cy="2831.49" r="15.37" gradientTransform="matrix(0.84, 0.55, -0.55, 0.84, -81.1, -895.42)" xlink:href="#radial-gradient"/><linearGradient id="linear-gradient-4" x1="-1682.27" y1="1851.63" x2="-1682.27" y2="1865.68" gradientTransform="matrix(1, -0.06, 0.06, 1, -102.99, -505.4)" xlink:href="#linear-gradient-2"/><linearGradient id="linear-gradient-5" x1="-1686.36" y1="1859.23" x2="-1676.38" y2="1859.23" gradientTransform="matrix(1, -0.06, 0.06, 1, -102.99, -505.4)" xlink:href="#linear-gradient-3"/><radialGradient id="radial-gradient-5" cx="-1086.09" cy="2538.29" r="15.71" gradientTransform="matrix(0.98, 0.19, -0.19, 0.98, -89.51, -820.23)" gradientUnits="userSpaceOnUse"><stop offset="0.44" stop-color="#f58f92"/><stop offset="0.99" stop-color="#fff"/></radialGradient><radialGradient id="radial-gradient-6" cx="-55.51" cy="2845.16" r="11.93" gradientTransform="matrix(0.84, 0.55, -0.55, 0.84, -81.1, -895.42)" xlink:href="#radial-gradient-5"/></defs><title>fairy_07</title><g class="cls-1"><g id="Layer_1" data-name="Layer 1"><path class="cls-2" d="M-1587.5,1866.28c7-10.76,5.23-28.76,3.33-40.78s-10.14-14.06-14.37-25.66c-7.73-21.22-16.43-42.27-28.67-61.36-5.63-8.78-13.73-15.75-18.24-25.14-4.84-10.05-7.34-21.42-9.55-32.29-0.92-4.53-.75-11.33-3.69-14.33-4-4.12-15.92-6.1-21.41-8.2-0.27,15.63-.83,32,1.88,47.42,3.28,18.72,20,32.75,31.05,47.24,15,19.64,33.9,41.53,42,65.27,4,11.66,5.36,24.41,5.86,36.66,0.35,8.68,1.74,26.6,11.86,11.16C-1581.35,1856.9-1593.62,1875.63-1587.5,1866.28Z" transform="translate(1771.11 -1364.75)"/><path class="cls-3" d="M-1596.67,1872.59c-5.75-5.81-3.08-20.72-3.89-28.38-1.15-11-3.06-22.29-7.74-32.38-10.07-21.7-26.35-41.68-40.82-60.52-12.51-16.28-27.84-29.64-30.25-50.92-1.59-14-1.41-28.38-1.14-42.49,5.86,2.24,17.8,4.17,22.15,8.48,3.23,3.21,3,11,4,15.83,2.45,11.73,5,25.28,11.63,35.51,6.72,10.44,15.4,19.09,21.59,30.16a327.62,327.62,0,0,1,17.5,36.93c3.57,8.81,5.41,20.31,12.12,27.12,2.69,2.73,2.88.09,5.53,3.91,3.19,4.58,2.88,14.75,3.18,20.05C-1582.53,1840.07-1584.11,1880.86-1596.67,1872.59Zm-83-213.48c-0.24,14.54-.58,29.56,1.48,44,2.78,19.45,18.25,32.74,29.77,47.72,13.78,17.93,27.95,36.46,38.7,56.43,9.13,17,9.67,35.69,11,54.48,0.82,11.82,7.27,12.49,12.37,1.69,3.87-8.19,3.35-18.75,2.82-27.53-0.42-7-.49-16.88-5-22.22-0.83-1-3.68-1.15-4.9-2.45-3.41-3.61-4.69-9.46-6.27-13.92a336.94,336.94,0,0,0-15.24-36c-7.52-15.29-17.16-27.29-26.91-40.88-10.15-14.15-10-31.89-15.05-47.79-1.8-5.68-.41-4.11-5.75-7C-1667.94,1662.79-1674.2,1661.22-1679.71,1659.11Z" transform="translate(1771.11 -1364.75)"/><path class="cls-4" d="M-1574.87,1857.13c-0.59-9.62-1.52-19.22-2.08-28.83-0.49-8.48-.84-13.08-10.84-14.91,6.8,9.38,5.85,29.75,4.22,40.66-1.19,8-14.59,29.68-15.66,10.25-0.11,7.31-8.91,35,5.27,32.94s19.59-29.48,19.08-40.11C-1576.39,1832.55-1573.69,1881.48-1574.87,1857.13Z" transform="translate(1771.11 -1364.75)"/><path class="cls-5" d="M-1599.27,1897.11c-7.38-5.62-.48-24.78-0.36-32.82,1.91,3.22,1.21,9,7.11,7.07,6.39-2.05,8.24-14.81,8.8-19.87,1.22-11,1.82-29.36-5-38.7,10.41,1.33,11.5,5.86,12.17,14.87,0.61,8.21,1.37,16.42,1.8,24.65,0.57,10.7-.24,20.83-5.18,30.51C-1582.65,1888.13-1591.51,1902.21-1599.27,1897.11Zm0.31-28.26c-0.35,6.18-6.46,23.49.14,27.56,8.94,5.52,18.46-13.89,20.52-19.63,4.35-12.09,2.74-24.66,1.78-37.19-0.79-10.28,2.2-23-10.39-25.61,5.78,9.6,5.15,27.08,4,37.72-0.53,4.89-11.87,32.14-16,17.15C-1599,1869.11-1598.45,1870.67-1599,1868.85Z" transform="translate(1771.11 -1364.75)"/><g class="cls-6"><path class="cls-2" d="M-1584.39,1823.77c-1.45-10.65-9.61-11.81-13.45-21.81-2.78-7.24-5.08-14.58-8.11-21.75-8.52-20.13-18.36-39.61-32.4-56.43-11.45-13.71-15-32.62-18-49.89-1.15-6.59-.38-5.4-5.58-8.42-5.37-3.13-12.34-4.72-18.17-7-0.23,12.74-.17,25.55.83,38.25-0.26-5.23-1.79-24.67,6.44-24.67,14.34,0-5.62,40-3.4,41.95,4.12,11.51,14.91,21,22.3,30.38-2.44-5-8.18-16.87.21-18.63,6.32-1.33,14.82,10.25,17.86,14.11,11.73,14.9,18.65,32.59,26.33,49.73,3.7,8.26,7.53,19.34,14.76,25.33,4.15,3.43,5.26.66,7.46,8,1.76,5.9,6.36,44.65-6,44.36-7.4-.18-6.08-31.07-7.08-36.46-2.93-15.78-11.25-33.88-23.2-45.07,7.24,10.77,15.14,21.93,19,34.44,4.08,13.17,4.74,26.88,5.42,40.54s8.24,14.6,13.64,1.46c4.74-11.52,2.8-26.5,1.17-38.49C-1585.13,1818.34-1582.58,1837.09-1584.39,1823.77Z" transform="translate(1771.11 -1364.75)"/></g><path class="cls-7" d="M-1648.44,1746.75c4,5.44,39.33,56.83,38.81,57.13,5.19-3-40.83-60.83-40.71-61C-1650.71,1743.36-1648.28,1747-1648.44,1746.75Z" transform="translate(1771.11 -1364.75)"/><g class="cls-6"><path class="cls-4" d="M-1574.87,1857.13c-0.59-9.62-1.52-19.22-2.08-28.83-0.49-8.48-.84-13.08-10.84-14.91,6.8,9.38,5.85,29.75,4.22,40.66-1.19,8-14.59,29.68-15.66,10.25a145.26,145.26,0,0,1-2.09,19.68c0.3-2.58.69-7.3,3.35-8.75q2,1.06,4.08,2.14a6.75,6.75,0,0,0,5.28-3.57c3.4-2.6,1.44-5.83,4.5-4.54,5.27,2.22-8.31,39.84-17.78,19.74-0.66,13,10.56,8,15.72,2.34,8.12-9,11.87-22.3,11.3-34.21C-1576.39,1832.55-1573.69,1881.48-1574.87,1857.13Z" transform="translate(1771.11 -1364.75)"/></g><g class="cls-8"><path class="cls-4" d="M-1599.48,1884.54c3.79,9.3,8.8-2.42,11.5-.88,3.09,1.76-5.4,11.45-10.07,9C-1601.42,1890.89-1600.57,1883.38-1599.48,1884.54Z" transform="translate(1771.11 -1364.75)"/></g><g class="cls-8"><path class="cls-4" d="M-1586,1881.68q-1.71,2.43-1.58-.54,1.71-2.43,1.58.54C-1586.22,1882.43-1585.71,1880.94-1586,1881.68Z" transform="translate(1771.11 -1364.75)"/></g><path class="cls-4" d="M-1581.93,1827.75c0.6,4.53-.66,30.58,2.43,30.69,6.36,0.22.31-34-1.69-33.65A4,4,0,0,0-1581.93,1827.75Z" transform="translate(1771.11 -1364.75)"/><path class="cls-9" d="M-1522.4,1741.83c6.55-13.17-8.88-27.08-15.46-36.5-5-7.22-9.43-26-19.45-20.45-5.91,3.28-8.14,8.88-15.39,10.73-5.05,1.29-10.39.86-15.54,0.67-15.57-.58-31.16-2.24-46.76-1.58a158.63,158.63,0,0,0,11.07-16.79c3.59-6,3.45-3.92-.52-8.36-8.63-9.64-26.76-13.2-33.81-1.1-6,10.22-22.8,42.21-6.89,51.11,8.17,4.57,20.93,2.82,29.73,2.2,18.21-1.28,35.55-5.39,53.18-9.87,12.51-3.18,23-3.52,32.49,6,3,3,23,32.66,27.34,23.89h0Z" transform="translate(1771.11 -1364.75)"/><path class="cls-10" d="M-1666.26,1719.38c-14.78-9.69,1.84-42.53,8.46-52.55,7.36-11.13,28.38-6.46,35.53,3.61,3.88,5.46-7.43,18-11.82,23.8,17-.58,33.85,1.81,50.8,1.78,5.86,0,11.48-.26,16.69-3.26,3.35-1.93,8.58-10.43,12-10.79,7.66-.81,14.37,19.39,18.36,24.86,5.87,8,19,20.3,15.28,31.9-4.24,13.31-16.21-4.72-20.61-10.23-9.61-12-17.14-20.37-33.52-17.81s-32.11,8.35-48.77,10.39c-11.95,1.47-31.48,5.43-42.4-1.7C-1676.26,1712.83-1665.77,1719.71-1666.26,1719.38Zm45.18-47.15c-8-5.23-22-15.89-32-9.55-7.85,5-11.37,21.32-14.35,29.77-2.75,7.79-7.29,18.14-.29,24.82,8.9,8.5,28.66,4.57,39.25,3.47a249.3,249.3,0,0,0,33.69-5.89c10.67-2.63,23-8.18,34.12-4.7,10.14,3.17,15.69,13.09,22,20.88,3.16,3.91,11.53,16.8,16.24,9.76,8.2-12.26-14.12-31.5-19.41-40.81-3.84-6.75-6.26-19.42-15.12-14.84-8.1,4.19-10.59,10.73-20.87,11.68-19.14,1.78-38.82-2.52-58.09-1.66,5.63-7.13,10.31-15.07,14.83-22.94C-1631.44,1665.45-1622.41,1674.55-1621.08,1672.23Z" transform="translate(1771.11 -1364.75)"/><path class="cls-11" d="M-1506.29,1749.64c3.09-17.11-10.78-30.88-19.35-43.81-6.2-9.35-13.5-35.18-28.86-23.4,7.64,1.38,9.47,10.93,12.7,16.71,4.61,8.24,11.82,14.66,16.39,22.88,2.29,4.13,7.32,15,3,19.81-5.64,6.28-13-7.07-16.61-10.55,5.45,7.66,9.78,21.7,17.36,27.09s13.89-.54,15.37-8.73C-1504.15,1737.81-1508.43,1761.47-1506.29,1749.64Z" transform="translate(1771.11 -1364.75)"/><path class="cls-12" d="M-1520.51,1759.76c-6.08-4.47-17.74-22.22-18.22-28.78,4.43,4.22,11.75,17.89,16.71,8.62,3-5.65-2.23-14.95-5-19.41-4.89-7.79-11.49-14.17-15.89-22.34-3.11-5.78-4.8-14.21-12.55-15.18,7-6.15,13.59-4.25,18.69,2.64,6.94,9.38,11.9,20.48,18.77,30.08,5.87,8.2,12.14,17.9,12.5,28.36C-1505.28,1751.16-1510.08,1766.59-1520.51,1759.76Zm-14.18-22.84c4,6.17,10.94,26.72,21.4,23,9.42-3.37,7.28-18.78,4.84-25.81-4.14-11.95-13.27-20.91-19.72-31.52-5.28-8.67-11.69-30-25.35-20.35,7.38,2.07,9.08,11.45,12.43,17.34,4.73,8.31,12.16,14.76,16.56,23.24,6,11.52,3.72,30-10.15,14.13C-1531.86,1741.34-1532.16,1739.83-1534.69,1736.93Z" transform="translate(1771.11 -1364.75)"/><path class="cls-13" d="M-1668.5,1694.26c0.87-2.53,1.91-5.34,3.14-8.48C-1666.85,1689.33-1667.93,1692.48-1668.5,1694.26Z" transform="translate(1771.11 -1364.75)"/><path class="cls-9" d="M-1668.5,1694.26c-0.63,1.83-.7,2.16,0,0C-1668.67,1694.77-1668.8,1695.2-1668.5,1694.26Z" transform="translate(1771.11 -1364.75)"/><path class="cls-10" d="M-1669.58,1696.25a15.7,15.7,0,0,1,.68-2.14C-1667.23,1695.83-1668.92,1695.46-1669.58,1696.25Z" transform="translate(1771.11 -1364.75)"/><path class="cls-14" d="M-1522.4,1741.83c7.64-15.35-13.61-32.1-20-43.81-2.27-4.18-5-15.27-11.14-15.3-3.56,0-6.4,5.51-9.12,7.74a24.66,24.66,0,0,1-12.77,5.69c9.6,1.93,5.29,4.31-1.72,6.68-11.16,3.77-24.26,5-36,4.45-3.6-.15-19.49-0.31-20.47-5.89-1.35-7.69,14.36-6.62,18.32-6.5-6.58-.27-13.18-0.47-19.75-0.2,3.95-5,9.5-11.93,11.77-18,0.44-1.18,2.89-3.43,2.72-4.65-0.27-1.89-10.17-6.29-11.58-7-21-10.73-26.08,2.33-33.27,20.71,3.11-7.38,8.89-20.5,19-18,8.68,2.18,8.26,11.92,6.27,18.76-2.14,7.34-27.36,47.47-31.72,23.16,1.1,26.1,70.13,7.41,82.09,4.27,14-3.69,27.36-8,39.05,2.89,2.71,2.53,24,33.69,28.32,24.94h0Z" transform="translate(1771.11 -1364.75)"/><path class="cls-10" d="M-1634.43,1694.24a32.71,32.71,0,0,1-8.68,10.2A124.27,124.27,0,0,1-1634.43,1694.24Z" transform="translate(1771.11 -1364.75)"/><path class="cls-10" d="M-1559.87,1693c1.87-1,2.39-2.55,4.77-.84C-1557,1691.81-1558.12,1692.7-1559.87,1693Z" transform="translate(1771.11 -1364.75)"/><path class="cls-9" d="M-1538.24,1709.84s12.71,13.53,13.53,22.91S-1549.24,1703.77-1538.24,1709.84Z" transform="translate(1771.11 -1364.75)"/><g class="cls-15"><path class="cls-14" d="M-1642.24,1700.21a10.46,10.46,0,0,0-2.61,4.28c0-.28,13.58-9.57,14.17-9.9-7.68.08-1.42-3.74,1.4-8,1.89-2.89,5-6.5,6.06-9.8,0.42-1.29,2.86-3.33,2.72-4.65-0.27-2.63-14.48-8.55-17-9.57,11.13,11.34,3.47,27.13-4.73,37.69C-1648.09,1707.63-1627.19,1680.84-1642.24,1700.21Z" transform="translate(1771.11 -1364.75)"/></g><path class="cls-7" d="M-1659.31,1679.32s-10.85,22.61-9.87,30.18S-1655.9,1674.13-1659.31,1679.32Z" transform="translate(1771.11 -1364.75)"/><path class="cls-7" d="M-1621.72,1696.4s29.71-.42,35.81,1.19S-1626.75,1699.21-1621.72,1696.4Z" transform="translate(1771.11 -1364.75)"/><path class="cls-14" d="M-1522.4,1741.83c6.55-13.16-9-27.12-15.46-36.5-3.73-5.39-11.37-28.23-19.27-20.61,7.39-3.42,14.8,16.95,19.19,22.64,3.11,4,24.9,33.13,11.8,33.89-5,.29-13.94-13.81-16.36-16.93-4.19-5.4-8.78-12.89-15.17-16-12.55-6.1-29.19,3.25-40.77,7.83,14.88-3.42,32-11.86,45.71-1.15,3.26,2.55,26.08,35.34,30.32,26.82h0Z" transform="translate(1771.11 -1364.75)"/><g class="cls-6"><path class="cls-11" d="M-1506.29,1749.64c3.09-17.11-10.78-30.88-19.35-43.81-6.2-9.35-13.5-35.18-28.86-23.4,7.64,1.38,9.47,10.93,12.7,16.71,4.61,8.24,11.82,14.66,16.39,22.88,2.29,4.13,7.32,15,3,19.81-5.64,6.28-13-7.07-16.61-10.55,4.38,6.15,8.17,12.75,11.88,19.24-0.24-4.13,5-1.61,7.46-6.18,2.13-3.9-2.05-16,6.47-12.81,6.36,2.41,6.18,17.29,3.79,21.78-1.28,2.41-2.58,4.72-5.42,5.58-1.66.5-9.38-2.41-8.93-2.77,7.1,8.9,15.75,3,17.46-6.49h0Z" transform="translate(1771.11 -1364.75)"/></g><path class="cls-16" d="M-1521.5,1751.5c6.14,5.83,10.12-5.61,10.38-5.43,4.25,3-1.72,13-6.21,12.15C-1520.7,1757.61-1522.9,1750.92-1521.5,1751.5Z" transform="translate(1771.11 -1364.75)"/><path class="cls-16" d="M-1510.35,1743.35q-0.56,2.92-1.66.16,0.56-2.92,1.66-.16C-1510.28,1744.13-1510.43,1742.56-1510.35,1743.35Z" transform="translate(1771.11 -1364.75)"/><path class="cls-11" d="M-1543.9,1688.53c2.2,7.72,7.22,13.92,11.91,20.27,1.52,2.06,11.56,17.15,12.35,10.88,0.57-4.58-11-18.15-13.75-22.19C-1534.18,1696.32-1544.85,1682.39-1543.9,1688.53Z" transform="translate(1771.11 -1364.75)"/><path class="cls-17" d="M-1750.22,1649.66c-2.07,2.39-9.37,11.36-13,9.63C-1767.64,1657.2-1753.28,1649.86-1750.22,1649.66Z" transform="translate(1771.11 -1364.75)"/><path class="cls-3" d="M-1764.25,1659.47c-4.06-2.66,11.64-10.29,14.89-10.17C-1752.89,1653.48-1758.31,1660.44-1764.25,1659.47Zm13.06-9.33c-4.77.62-11.65,4.53-12.83,9,5.09-.32,9.49-5.24,12.83-9C-1752.54,1650.31-1754.33,1653.65-1751.19,1650.14Z" transform="translate(1771.11 -1364.75)"/><path class="cls-9" d="M-1651.72,1570.22c4.8-20.73,14.73-40.87,26.83-58.33-5.5-.44-4.61-10.86-4.2-14.62-5.21,1.3-15.09,1.41-19.43,4.13-1.69,1.06-.72,2.72-2.1,3.8-1.17.92-5.21,3.1-5.67,3.64-1.68,2-.58.23-2.06,3.57-6.58,14.84-1,44.58,6.62,57.81C-1644.67,1539.76-1664.88,1547.37-1651.72,1570.22Z" transform="translate(1771.11 -1364.75)"/><path class="cls-10" d="M-1651.54,1571.39c-5.86-10-7.87-21.65-8.42-33.07-0.32-6.73-2.17-21.75,1.47-27.9,1.42-2.4.4,0,2.26-2,0.66-.7,4.07-2.58,5.3-3.59,0.67-.55.25-3.15,1-3.75,3.49-3,16.42-3.1,21.39-4.35-0.56,4.59-1.57,13.87,4.49,14.83C-1636.68,1529.29-1646.69,1550.16-1651.54,1571.39Zm-5.91-62c-3.17,18.9-3.8,42.33,5.57,59.66,4.88-20.16,14.55-39.76,26.26-56.84-5-1.31-4.3-10.7-4-14.36-4.86,1.21-11.15,1.39-15.62,3.49l-2.5.41q-3.42-.57-2.5,3.58c-2.86,1.91-2.56,4.34-7.26,4.07C-1657.77,1511.28-1655.06,1509.51-1657.45,1509.37Z" transform="translate(1771.11 -1364.75)"/><path class="cls-2" d="M-1664,1508.09c-20.09-13.15-23.36,58.19-24.46,63.73-1.77,8.94-9.22,15.22-14.17,22.84-4.19,6.45-8,13.13-11.64,19.92-2.36,4.42-4.91,13.78-9.68,16.58s-10.75.15-15.87,1.25c-4.18.9-6.22,2.78-9.33,5.26-5.76,4.6-11.6,10.69-16.81,15.65-3,2.84-8.14,4.71-.42,4.43,5.59-.2,10.45-6.76,16-8.07,4.71-1.12,13.7-1.35,13.42,3.71,0.05-1-14.63,17.38-10.53,16.12,2.39-.73,4.35-5.19,6.27-6.77,3.61-3,8.46-4.32,12.36-6.88,8.38-5.49,8.87-13.51,13.87-21.52,10.2-16.32,25.51-29.47,36.35-45.5,2.74-4.05,4-5.4,3.8-9.6-0.25-5.61-3.38-11.68-3.86-17.54a73.71,73.71,0,0,1,.57-16.41A91.17,91.17,0,0,1-1664,1508.09Z" transform="translate(1771.11 -1364.75)"/><path class="cls-3" d="M-1770.6,1658.29c-2.9-1.88,7.35-7,9-8.44,5.78-5.05,9.71-12.92,16.82-16.26,7.55-3.55,16.56,1.08,22.74-4.92,7.62-7.39,12-23,17.79-32.15,4.3-6.79,12-13.61,14.87-21,2.8-7.12,1.87-18.51,2.73-26.3,0.93-8.43,5.52-51,23.3-41.26a91.26,91.26,0,0,0-13.75,34.27c-2.26,12.32-.12,22.46,1.86,34.49,1.43,8.67,2,1.91-.18,8-6.15,17.44-26.15,31.76-36.74,46.52-5.16,7.19-6.55,16.81-13.18,22.71-1.67,1.49-23.53,15.24-22.68,15.8-3.58-9,15.66-14.22,9-19.41-10.43-8.09-23.58,13.1-31.53,7.89h0Zm106.05-150.06c-17.75-8.75-21.36,41.52-22.09,48.72-0.82,8.09-.39,16.11-4.57,23.12-5.86,9.81-13.64,18.52-19.33,28.64-4.32,7.68-7.58,21.33-16.73,23.93-8.33,2.37-13-.34-20.55,5-1,.74-22.15,20.56-22.6,19.64,1.72,3.68,26-15.24,32.7-7.28,4.86,5.73-10.68,11.13-9.88,19.11,1.45,0.09,7.18-7.34,8.55-8.31,3.39-2.41,7.75-3.5,11.14-6,6.89-5.12,7.54-11.83,11.54-19,9.3-16.64,25.59-30.08,36.47-45.83,3-4.34,4.76-6.28,4.59-10.9-0.39-10.92-4.76-20.34-3.39-31.92a91.53,91.53,0,0,1,14.13-38.91C-1666.85,1507.09-1667.17,1512.19-1664.55,1508.23Z" transform="translate(1771.11 -1364.75)"/><path class="cls-9" d="M-1489.58,1662.36c-3.12-2.52-7.46-2.55-9.9-5.38-3.56-4.12-2.95-11.66-7.33-15.54-7.46-6.59-21.59-.34-28-8.14-3.77-4.58-3.09-14.09-4.31-19.54a150,150,0,0,0-10-28.68c-5.56-12.29-12.33-23.78-21.43-33.75-6.09-6.68-38.79-46.58-46.6-36.84-6.19,7.71-.14,31.88,2.68,40.08,4.29,12.5,8,24.24,9,37.53,0.73-2.42,2.23-5.55,4.43-6.94-6.57-5.63-4-12.3-3.79-21.3q0.27-9.61.42-19.22c15.8,11.84,28,23.37,36.73,41.44,5.1,10.53,10.27,21,15.36,31.57,5.43,11.27,7.35,19.57,8,31.83,0.35,6.11,2.65,10,4.85,15.62,0.83,2.1,1.9,11.3,3.3,12.23,6.64,4.37.41-19.47,2.29-21.58,4.15-4.66,16.73-.17,21.23,1.38s8.23,4.25,12.57,5.86c1,0.36,13.24,1.63,10.45-.62h0Z" transform="translate(1771.11 -1364.75)"/><path class="cls-10" d="M-1535.81,1678.72c-2.51-5.14-3.62-11.54-5.76-17-3.13-7.93-1.84-13.44-2.66-21.53-1.21-11.89-9.4-24.25-14.6-34.68-6.49-13-11.61-27.55-20.92-38.91-6.77-8.25-15.77-14.77-24.24-21.16-0.18,10.53-5.79,34.13,3.69,39.72-2.93,2.2-4.47,5.62-5.45,9.08-0.91-15.34-6-28.53-10.25-43.06-2.19-7.58-8.19-37.34,2.34-39.23,9.94-1.79,27.77,22.67,33.84,29,9.92,10.36,18.8,20.26,25.74,33a165.66,165.66,0,0,1,14.16,34.83c2,7.21,1,20.85,7.23,26s18.19,0.09,24.92,5c5.74,4.17,4.59,13.71,9.11,18.05,2.48,2.38,17.58,8.51,2.69,6.92-8.91-1-17.31-8.09-26.63-9.57-5.57-.89-10.42-2.56-11.79,3.94C-1534.32,1658.81-1529.46,1682.84-1535.81,1678.72Zm-69-134.95c7.2,5.35,14.56,10.82,20.95,17.13,10.64,10.49,16,24.26,22.46,37.46,5.84,12,15.08,25.46,17.56,38.84,1.45,7.83-.65,14.8,2.27,22.51,0.85,2.24,4.39,17.05,6.27,18.28,8.82-6.91-7.66-21.84,6-24.43,6.62-1.25,36.45,14.48,39.54,9.58,0.64-1-9-4.08-9.4-4.49-1.33-1.27-2.17-5.37-2.89-7-2.08-4.87-3.64-9.57-8.5-11.95-6.48-3.18-16.82.48-22.63-4.06-4.93-3.86-4.36-11.93-5.4-17.39a139.29,139.29,0,0,0-7.54-25c-5.69-14.42-13.06-28.56-23.39-40.2-5.53-6.23-11.53-12.1-17.31-18.1-5.26-5.46-17.58-22.72-26.19-22-15.93,1.31,6.81,66.81,7.82,77.29a14.35,14.35,0,0,1,3.46-5.11c-6.7-5.51-3.78-12.09-3.53-21.16Q-1605,1553.87-1604.83,1543.77Z" transform="translate(1771.11 -1364.75)"/><path class="cls-7" d="M-1596.08,1527.24s27.47,26.27,28.88,30.17S-1607.34,1521.19-1596.08,1527.24Z" transform="translate(1771.11 -1364.75)"/><path class="cls-7" d="M-1555.54,1576s14.61,31.75,13.36,38.21S-1559.25,1573.55-1555.54,1576Z" transform="translate(1771.11 -1364.75)"/><g class="cls-18"><path class="cls-19" d="M-1489.58,1662.36c-3.48-2.81-7.51-2.7-10.11-5.93-3.57-4.44-3.43-11.49-7.81-15.75,1.21,3.61-5.37.22-6.4,0.11,1.13,0.12,7.63,4.7,8.3,6,0.16,0.31-10-2.61-11-2.73,0.75,0.09,9,5.1,8.88,6.79-0.11,1.28-10,.06-10.74-0.49,3.11,2.31,27.71,9.37,27.84,12.34,0.08,1.73-29.43-9.08-31.9-9.8-5.21-1.51-12.42-1.95-12.17-9.15,0.27-7.71,7.33-6.1,13-6.24-16.47-1.88-14.23-9.1-17.49-23.68-3.59-16-10.52-31.89-19-45.93,5,15.21,14,27.91,17,44,0.67,3.5,4.73,20.38-.36,20.11-4.83-.26-32.95-64.16-32.6-64.36-0.34.2,4.9,2.26,4.8,1.68-0.78-4.47-18.09-13.4-21.74-16.32-7.38-5.9-17.87-13-22.1-21.79-3.07-6.36-2.89-16.52,5.65-15.2,8.23,1.27,18.07,17.09,24.51,22.35-5.81-6-20-26.46-29.68-25.82-7.78.51-6,11.59-5.79,18.33,0.56,21.22,11.27,40,12.95,61.19,0.73-2.42,2.23-5.55,4.43-6.94-6.57-5.63-4-12.3-3.79-21.3q0.27-9.61.42-19.22c19.31,14.46,30.44,28.47,40.89,50.4,5.13,10.77,11,21.22,15.61,32.25,4.73,11.43.6,26,7.76,35.58-2.12-3.59-3.86-11.57,1.81-7.75,3.89,2.62,5.33,19.33,3.9,22.9,9.18-7.95-9.55-24.41,8.6-23.71,6.79,0.26,13.73,2.8,19.8,5.62,3.11,1.45,6.59,4.14,10.12,4.48-0.39,0,9.09.18,6.34-2h0ZM-1606.29,1563c-0.59,4.27-11.08-22-2.17-19.27,4.67,1.42,2.62,16.1,2.17,19.27C-1606.87,1567.16-1605.7,1558.81-1606.29,1563Z" transform="translate(1771.11 -1364.75)"/></g><path class="cls-14" d="M-1651.72,1570.22c4.8-20.73,14.73-40.87,26.83-58.33-5.5-.44-4.61-10.86-4.2-14.62-5.14,1.28-11.18,1.68-16.06,3.6q-1.68.33-3.37,0.53-3.23-.53-2.1,3.8c-0.85.61-7.43,5.13-7.36,4.7,4.17,0.1,4.26,4.12,5.83,4.3a10.36,10.36,0,0,0,1.51-4.12q-0.32-6.21,5.45-3.92c4.09-1.34,8.89.14,12.73-2.59-0.38,3.77,2.6,8.33,2.3,10.43-0.38,2.69-4.93,7.25-6.37,9.58-6.82,11-13.79,23.65-15.15,36.79-2.79-11.47-5.22-23-7.89-34.52-0.67,14.77.29,31.27,7.83,44.38C-1644.67,1539.76-1659.24,1557.16-1651.72,1570.22Z" transform="translate(1771.11 -1364.75)"/><g class="cls-6"><path class="cls-2" d="M-1716,1636c6.87-12.21,18.5-22.35,27.15-33.34,3.49-4.44,14.24-14.81,14.89-21.2,0.26-2.58-3.36-10.44-3.88-13.28a68.09,68.09,0,0,1-1-12.83,82.11,82.11,0,0,1,3.66-22.85,91.8,91.8,0,0,1,11.28-24.4c-10.37-6.79-17.92,15.08-19.4,21.56,1-2.39,7.89-18.73,11.55-16.56-1.71-1-10.22,37.59-10.22,39.74,0,9.33,3.71,19.16,2,28.43s-9.13,17.2-14.71,24.34c-5.08,6.5-13.73,21.75-21.75,24.94-7.45,3,1.1-9.32,3-12.92,4.83-9.27,9.94-18.76,16-27.31,1.31-1.85,13.21-13.9,14.35-11.4-0.9-2-2.83-2-3.61-4.83-1.13-4.18-.37-9.48-0.6-13.77-0.6,6-.08,12.73-3,18.11-3.34,6.27-9.47,11.87-13.35,18-5.89,9.27-9.87,20.77-16.29,29.54-5.68,7.75-9.43,5.54-18.63,6.35,8-.2,20.17,6.44,9.37,14.5-5.76,4.3-14.54-.07-21.16,1.39-3.88.86-15.4,10.29-18.44,8.31a6.34,6.34,0,0,1,4.6-4c-4.25,1.94-9.86,5.68-2.08,5.24,5.68-.32,10.35-6.74,16-8.07,3.66-.86,13.39-1,13.81,2.68,0.55,4.88-11.52,8.88-11.82,15a26.84,26.84,0,0,1,9.74-9.62c1.51-.89,10.87-3.11,7.2-0.35,9.83-5.5,10.26-12.21,15.4-21.37C-1713,1630.67-1719,1641.31-1716,1636Z" transform="translate(1771.11 -1364.75)"/></g><g class="cls-18"><path class="cls-19" d="M-1762.15,1651.29l-2.09,1.2a2.35,2.35,0,0,0,2.09-1.2C-1762.87,1651.69-1762.26,1651.45-1762.15,1651.29Z" transform="translate(1771.11 -1364.75)"/><path class="cls-2" d="M-1737,1643.79c-1.72-.71-14.92-0.42-14.36-2.85,0.46-2,12.6-1.76,14.57-2-1,.06-10.57,0-9.64-1.58a82.83,82.83,0,0,0,10.52-2c-7.41,1-7-1.73-13.17,2.34-5.14,3.41-9.5,8.52-13.06,13.63,8.21-4.68,15.35-7.77,25.14-7.5C-1741.48,1641.95-1745.64,1643.55-1737,1643.79Z" transform="translate(1771.11 -1364.75)"/></g><path class="cls-10" d="M-1517.71,1650.44c7.13-.12,12.75,5,18.87,7.94C-1505.59,1656.68-1510.81,1651.65-1517.71,1650.44Z" transform="translate(1771.11 -1364.75)"/><path class="cls-10" d="M-1517.61,1644.27c8.76,2.27,11.13,5.82,16,12.87C-1508.19,1651.33-1509.08,1648.13-1517.61,1644.27Z" transform="translate(1771.11 -1364.75)"/><path class="cls-10" d="M-1515.66,1641c4.75,1.08,10,3.23,12.73,7.47C-1506.57,1645.16-1511.34,1643.26-1515.66,1641Z" transform="translate(1771.11 -1364.75)"/><path class="cls-10" d="M-1612.64,1538.24a31.12,31.12,0,0,1,8.52,6.33A38.16,38.16,0,0,1-1612.64,1538.24Z" transform="translate(1771.11 -1364.75)"/><g class="cls-6"><path class="cls-10" d="M-1762.45,1651.72c7.06-6.91,14.56-9.24,24.49-8.19C-1747.87,1644.05-1754.43,1646.06-1762.45,1651.72Z" transform="translate(1771.11 -1364.75)"/><path class="cls-10" d="M-1754.28,1642c3.6-4.24,11-3.2,16.08-3C-1743.13,1640-1750.12,1638.89-1754.28,1642Z" transform="translate(1771.11 -1364.75)"/><path class="cls-10" d="M-1747.53,1637.16a46.24,46.24,0,0,1,13.06-1.7A46.2,46.2,0,0,1-1747.53,1637.16Z" transform="translate(1771.11 -1364.75)"/></g><path class="cls-20" d="M-1559,1397.25a26.14,26.14,0,0,1,22.38-3.19c7.73,2.45,11.39,9.92,18.27,12.91,2.45,1.06,12.53,2.67,8-3.7,7,1,11.58,12.72,3.35,15.56,6.93,5.13,11.09,11.69,9.72,20.34-0.82,5.15-5.89,10.81-.82,15.51,3.14,2.9,11.59,3,9.09-3.74,2,3.87,2.63,8.68-.5,12.1-1.57,1.72-5.14,1.55-6.3,2.78-1.77,1.87-.62,2.76-1.7,5.86-3.89,11.15-10.08,11.19-18.9,14.25-7.85,2.72-37.9,17.23-36.82-1.7,4.62,5.35,12.23,1.19,13.69-4.35,1.89-7.18-6.09-14-1.29-21.38-5,1.6-8.42-6.9-8-10.4,3.15,7.71,11,3.07,13.89-1.91,4.69-8.19,1.31-19.2-6.46-24.16-7.23-4.6-9.63-.33-12.89-8.94C-1556.29,1408-1557.62,1402.54-1559,1397.25Z" transform="translate(1771.11 -1364.75)"/><path class="cls-21" d="M-1548.6,1492.71a10.77,10.77,0,0,1-5.06-9.54c3.32,4.06,10.17,3.84,12.84-.85,4.1-7.2-5.21-15.5-.89-23.31-5.89-.06-8.29-7.94-7.38-12.54,1.88,6.4,7.92,6.28,11.89,2.43,6.83-6.63,4.11-18.77-2-24.55-4.36-4.1-9.69-2.53-13.12-5.24-3.12-2.46-4.43-12.08-5.4-15.73-0.59-2.22-2.09-4.94-1.15-6.73,2.08-4,13.76-4.46,17.18-4.1,11.17,1.18,14.35,9.65,23.35,13.91,3.1,1.47,12.06,2.54,7.07-3.76,7.32,0.62,13.6,12.26,5.09,16.23,10.24,8,9.43,14.37,7.14,25.61-2,10,9.64,16.82,10.39,6.19,1.74,3.41,2.65,7.48.67,11-2.38,4.21-6.56,2-8.85,4.68-2,2.33-.83,9.44-3.67,12.94-3,3.7-5.69,4.09-10,5.4-4.79,1.47-13.4,3.15-18.84,5.5-6.36,2.75-11.72,7.4-19.24,2.47h0Zm-4.24-7.47c2.23,15.89,26.45,4.32,34.69,1.17,1.73-.66,2.61-2.8,4.2-3.4,1-.37,1.24,1.6,3.31.88,5.27-1.84,8.53-2.31,11.28-8.07,1.28-2.68.76-8.83,2-10.24,0.94-1.07,5-.79,6.55-2.05,3.1-2.58,3.67-6.44,2.34-10.19-0.9,4.94-6.57,4.7-9.61,2.08-4.28-3.69-2.16-8.43-1-13,2.61-10.26.42-17.3-8.88-23.76,7.94-2.21,5-13.18-1.63-14.84,3,6.51-6.45,4.81-9.24,3.31-7.08-3.81-11-11-19.36-13.11-4.69-1.2-11.68-1.47-16.07,1.14-5.69,3.38-3.73,4.72-1.62,11.66,1.52,5,2.58,9.74,6.08,12.23,5.16,3.68,10.52,2.16,14.67,9.27,5.25,9-4.14,34.46-13.4,21.23,0.14,4.48,3.92,9.25,8.63,8.15-4.84,6.48.28,12.33,0.6,19.15s-6.46,14.13-13.53,8.35C-1552.51,1487.63-1552.67,1485.39-1552.84,1485.24Z" transform="translate(1771.11 -1364.75)"/><path class="cls-21" d="M-1552.09,1413c8.8-5.33,19.54-2.36,25.05,6.09C-1533.41,1411.61-1543,1409.05-1552.09,1413Z" transform="translate(1771.11 -1364.75)"/><path class="cls-21" d="M-1520.11,1421.33c7,9.34,2.06,20.23-6.83,25.64C-1518.94,1440.51-1514.52,1431.11-1520.11,1421.33Z" transform="translate(1771.11 -1364.75)"/><path class="cls-21" d="M-1517,1416.06c3.69-1.28,7.64.39,10.24,3.14C-1509.91,1417.42-1513.35,1415.93-1517,1416.06Z" transform="translate(1771.11 -1364.75)"/><path class="cls-21" d="M-1527.19,1430.77c0.84,5.54-.65,10.75-0.49,16.27,0.23,7.85,3.64,10.25,8.91,15.21,6,5.62,11.26,13.73,5,21.16,6.48-8.79-1.47-16.23-7.73-22.17C-1531.43,1451.79-1526.1,1442.74-1527.19,1430.77Z" transform="translate(1771.11 -1364.75)"/><path class="cls-21" d="M-1505.6,1436.72c1.22,4.7-2.61,12.93-6.58,9.87,3,5.93,9.46,2,11.19-2.76-1.45,6.1-9.3,9.47-12.29,2.51,6,1,8.28-4.1,7.68-9.63C-1505.3,1437.91-1505.47,1437.94-1505.6,1436.72Z" transform="translate(1771.11 -1364.75)"/><path class="cls-21" d="M-1504.57,1457.71c3.5,1.69,6.47,4.73,7.18,8.62A31.29,31.29,0,0,0-1504.57,1457.71Z" transform="translate(1771.11 -1364.75)"/><path class="cls-21" d="M-1527.77,1480.06c2.11,3.42.87,7.58-2.16,10A12,12,0,0,0-1527.77,1480.06Z" transform="translate(1771.11 -1364.75)"/><path class="cls-21" d="M-1533.6,1452.08c-0.36,3.9-3.73,6.42-7.52,6.5A11.78,11.78,0,0,0-1533.6,1452.08Z" transform="translate(1771.11 -1364.75)"/><path class="cls-21" d="M-1536.16,1488.12a5.46,5.46,0,0,1-5.37,5.46A9.92,9.92,0,0,0-1536.16,1488.12Z" transform="translate(1771.11 -1364.75)"/><path class="cls-22" d="M-1487.39,1456.17c-0.82,5.38-5,7.59-9.89,6.16-0.62-.18-9.79-7.81-9.72-5.45,0.1,3,5.53,5.6,5.87,9.58a11.46,11.46,0,0,1-3.26,8.81c-6.71,6.84-4.65,1.5-5.76-3.73-2-9.27-17.75-12.24-14.5-22.34,0-.05,14.61-17.52,8.85-18.08-2.6-.25-3.18,11.37-7.45,10.57-3.79-.71.42-10.09,0.35-12.81-0.36-12.68-13.68-19.27-24.47-21.65,6.4-4.13,13.32-2,19.39,1.8a25,25,0,0,0-15-7.14c-1.41-.13-6.32,1.07-7.41.16-2.18-1.82,5.66-6.2,6.47-6.5,3.62-1.33,8-.46,11.59.38-4.74-2.49-23.57-6.16-26.66,1.54-1.12,2.78,4.84,19.49,6.93,21.42,1.78,1.64,7.66,1.26,10.59,3.16a19.63,19.63,0,0,1,8.47,13.25c1,7.47-10.48,26.05-15.9,12.81-0.44,3.48,3,12,8,10.4-4.8,7.33,3.18,14.2,1.29,21.38-1.46,5.54-9.07,9.7-13.69,4.35-0.52,9,12.2,11.53,18.54,9.29,2.2-.78,3.84-2.85,5.79-3.69,2.86-1.24,6.47-.64,9.51-2.16a17.05,17.05,0,0,0,5.71-4.25,7.94,7.94,0,0,0,5.24.77c4.12-1.73,7-3.34,9.27-7.49a17.51,17.51,0,0,0,2-6.82q-2.07-5.25,3.17-4.34c3.14-3.48,7.44-2.86,6.69-9.36C-1488.66,1464.51-1486.65,1462.46-1487.39,1456.17Z" transform="translate(1771.11 -1364.75)"/><path class="cls-20" d="M-1525.38,1461.62s10.7,11.31,2.94,21.26S-1495.71,1477.69-1525.38,1461.62Z" transform="translate(1771.11 -1364.75)"/><path class="cls-23" d="M-1543,1399.22c7.57,1.84,16.05,6.18,19.07,13.82-3-3.71-8.67-5.93-13.4-5.81,6.32,3.06,12,8.17,14.58,14.78,0.64,1.61,2.12,13.84,1.22,13.79,6.29,0.38.9-15.31,0.11-16.49,6.67,3.3,17,17.38,8.79,24,7.72,3.52,6.4-13.55,5.51-13.53,5.43-.12,3.45,15.22-0.33,17.25,5.88,3.31,8.3-12.1,7.86-14.48-1.66-9-10.51-15.15-19.31-15.53,0.65-7,6.32-.26,9.42-1.26,3.72-1.2,6.45-5.8,2.4-9.2,0.09,11.17-14.64-.27-17.07-2.24C-1529.86,1399.64-1535.44,1395.49-1543,1399.22Z" transform="translate(1771.11 -1364.75)"/><path class="cls-23" d="M-1517,1458a21.77,21.77,0,0,1,8.35,9.31c1.32,3-.56,8.88,3.58,6.16,9.72-6.38-10.58-25.16-16-20.15C-1522.56,1454.67-1516.58,1458.29-1517,1458Z" transform="translate(1771.11 -1364.75)"/><path class="cls-23" d="M-1500.72,1454.64c2.8,3.89,7.72,5.72,11.29,1.4-0.69,15-14.7-3-13-2.7Z" transform="translate(1771.11 -1364.75)"/><path class="cls-24" d="M-1528.37,1478.71c1,5-2,9.76-6.08,12.41,0.19-2.17,1-4.53-1-6.36-0.72,4.5-3.89,7.66-8.52,5.49,9.51-.56,7.17-14.13,6.69-19.95-0.36-4.38-1.1-6.27.52-10.49,1.16-3,4.44-4.49,3.8-8.27A7.35,7.35,0,0,1-1546,1453c11,7.89,18-15.65,16-22.69a22.16,22.16,0,0,0-8.82-11.67c-3.59-2.55-11.78-5.36-2.87-8.15-7-2.17-18.64-8.37-9.07-16.91-9.15,2.3-8.37,3.66-6,11.56,0.94,3.19,1.67,8.65,3.68,11.27,3.14,4.07,1.45,1.22,6.55,3.24,8.66,3.42,15,11.09,13.4,20.85-1,6.1-11.15,18.69-15.7,7.57-0.44,3.48,3,12,8,10.4-4.8,7.33,3.18,14.2,1.29,21.38-1.46,5.54-9.07,9.7-13.69,4.35-1,17.15,27.23,6.8,34.36,3.19-8.41,3.39-5-5.79-9.43-8.7C-1526.83,1486.69-1524.65,1481.15-1528.37,1478.71Z" transform="translate(1771.11 -1364.75)"/><path class="cls-25" d="M-1512.85,1419.6c9.94,2.61,15.77,13,10.8,22.35C-1499.92,1432.25-1504.16,1424.62-1512.85,1419.6Z" transform="translate(1771.11 -1364.75)"/><path class="cls-25" d="M-1514.81,1455.3c6.71,1.81,14.2,9.24,9.39,16.34C-1503.58,1464.25-1509.28,1459.09-1514.81,1455.3Z" transform="translate(1771.11 -1364.75)"/><path class="cls-25" d="M-1534.53,1399.15c4.75-1,9.19,2.42,10.85,6.76C-1527,1403.15-1530.38,1400.45-1534.53,1399.15Z" transform="translate(1771.11 -1364.75)"/><path class="cls-25" d="M-1506.74,1407.88c0.69,5.29-5.29,6.34-8.71,3.53C-1512,1412.1-1508.19,1411.5-1506.74,1407.88Z" transform="translate(1771.11 -1364.75)"/><path class="cls-20" d="M-1550.39,1420.11c-3.66-19.77-16.5-36.84-34-46.62-17-9.5-36.43-9-55.17-7.65-27.66,1.95-78.41,37.56-49.85,67.52,1.72-9.91,5.84-21.94,14.75-27.6-4.91,10.71,4.7,26.66,15.21,30-6.67-8.33-1.64-21.66,5.73-27.8-0.84,8.34,5.71,15.87,12.07,20.39-2.1-3.51-3.62-8.28-2.72-12.38,6.66,14.35,33.36,16.66,28.21,37.8a6.16,6.16,0,0,0,3.64-2.32c1.43,5.87-.21,12.5-2.37,18,1.34-1.69,3-2.5,4.33-4.46-0.11,5.1,5.91-1.14,6.48-2.35-2.6,14.34-11.69,28.39-24.23,35.94,47.47,27,85.5-37.24,77.86-78.44C-1557.6,1381.24-1542.14,1464.62-1550.39,1420.11Z" transform="translate(1771.11 -1364.75)"/><path class="cls-21" d="M-1629.08,1498.56c12.21-7.31,21-20,24.19-33.83-3.18,3.87-6.9,1.64-10.87,5.79,2.42-5.54,4.19-12.16,3.06-18.21-2.06,2.09-2.38.86-4,1.94,6.36-19.82-19.84-24.45-27.38-37-0.45,4.34,1.44,9,3.9,12.53-6.91-4.34-14.2-12.15-13.95-20.85-7.26,6.67-11.13,19.51-4.07,27.63-11.19-3.14-21-18.06-17.26-29.68-8.23,6.08-12.06,17.6-13.59,27.36-21.45-21.08,1.2-48.62,21.43-60.24,16-9.2,32.67-8,50.2-9.12,16.09-1,32.38,5.76,44.54,16,24.18,20.41,29.27,53.17,18,81.82C-1566.44,1492-1597.53,1517.63-1629.08,1498.56Zm26-38.94c-2.41,15.5-10.86,30.49-24.37,38.92,32.63,18,62.86-9.87,73.13-39.9,10.43-30.52,1.66-64.15-26-82.24-15-9.79-28-10-45-9.55-14.28.36-26.63-.13-39.93,6.64-9.89,5-17.69,14.16-24.94,22.37-9.78,11.07-9.39,25.66.5,36.62,2-10.43,6.49-22.08,16-27.81-5.5,10.56,2.82,26,13.12,30.23-5.78-8.92-.35-22,7.37-27.91-1,8.08,4.3,15.07,10.28,19.88a18.36,18.36,0,0,1-1.59-12.19c6.37,14.48,33.73,17.72,28.95,38.49a7.6,7.6,0,0,0,3.25-2.67c1.42,5.89.37,12.05-1.65,17.68a20.49,20.49,0,0,0,3.86-4.65C-1608.89,1469.7-1604.25,1463.36-1603.06,1459.62Z" transform="translate(1771.11 -1364.75)"/><path class="cls-21" d="M-1687,1423c-6.23-10.8,3.21-23,11.22-29.63C-1683.05,1400.76-1691.94,1412-1687,1423Z" transform="translate(1771.11 -1364.75)"/><path class="cls-21" d="M-1625.37,1366.43a44,44,0,0,0-23.45,16.79C-1644.33,1374.4-1635,1368.12-1625.37,1366.43Z" transform="translate(1771.11 -1364.75)"/><path class="cls-21" d="M-1683.86,1389.6c5.17-4.51,12.53-6.71,19.27-5A33.11,33.11,0,0,0-1683.86,1389.6Z" transform="translate(1771.11 -1364.75)"/><path class="cls-21" d="M-1674.79,1405.42c2.09-5.24,6.47-9.94,12-11.49C-1667.79,1396.57-1671.65,1400.77-1674.79,1405.42Z" transform="translate(1771.11 -1364.75)"/><path class="cls-21" d="M-1621.51,1399.13c15.44,2.37,31.9,24.71,23,39.9C-1590.83,1423.7-1606.69,1402.62-1621.51,1399.13Z" transform="translate(1771.11 -1364.75)"/><path class="cls-21" d="M-1602,1422.35c4.88,7,5.72,16.87.65,24C-1597.41,1438.69-1598.24,1429.94-1602,1422.35Z" transform="translate(1771.11 -1364.75)"/><path class="cls-21" d="M-1609.6,1428.29c2.18,7.58,1.82,16.61-2.63,23.34C-1608.88,1444.36-1608.61,1436.11-1609.6,1428.29Z" transform="translate(1771.11 -1364.75)"/><path class="cls-21" d="M-1604.12,1436.59c2.53,9.82-.5,20.77-6.8,28.56C-1605.66,1456.62-1602.86,1446.64-1604.12,1436.59Z" transform="translate(1771.11 -1364.75)"/><path class="cls-21" d="M-1600.22,1448.83a22.07,22.07,0,0,1-4.49,14.43A60.69,60.69,0,0,0-1600.22,1448.83Z" transform="translate(1771.11 -1364.75)"/><path class="cls-21" d="M-1611,1400.83c15.21-8.45,37.35-13.26,52.61-2.26C-1574.23,1388.74-1595.14,1393.45-1611,1400.83Z" transform="translate(1771.11 -1364.75)"/><path class="cls-21" d="M-1559.35,1403.13c-10.86,5.45-23.31,7.42-35.36,7.36C-1582.67,1409.22-1570.72,1407.47-1559.35,1403.13Z" transform="translate(1771.11 -1364.75)"/><path class="cls-21" d="M-1549.55,1426.43c-5.11,18.45-26.39,22.9-42.79,20.61C-1575.78,1448-1556,1444.2-1549.55,1426.43Z" transform="translate(1771.11 -1364.75)"/><path class="cls-21" d="M-1553.73,1443.79c-9.43,11.14-25,18.86-39.72,15.92C-1578.52,1461.24-1564.21,1454.09-1553.73,1443.79Z" transform="translate(1771.11 -1364.75)"/><path class="cls-21" d="M-1555.18,1450.54c-5.94,16.61-21.82,28.93-39.81,27C-1577.05,1478-1562.43,1466.55-1555.18,1450.54Z" transform="translate(1771.11 -1364.75)"/><g class="cls-15"><path class="cls-26" d="M-1604.2,1500.74c-7.69-.77-14.1-2.86-8.44-10.09,4.84-6.18,12.61-5.81,19.3-6,8-.18,15.1-1.92,21.73-6.55,0.54-.38,10-8.67,8.55-9.36-1.25-.59-11.85,8.29-14.48,9.05-0.55.16-12.18,0.52-11.48-.21,1-1.08,7.39-.7,9.06-1.18a30.48,30.48,0,0,0,9.61-4.93c0.65-.48,9.91-8.75,8.31-9.73,0.74,0.46-26.23,20.23-24.62,4.84,0.23-2.16,29.29-18,28.38-18.7,5.6,4.25-41.32,9.72-31.06-.73,1.09-1.11,10.41.37,12.49,0.12a36.5,36.5,0,0,0,12.71-3.8c1.69-.89,11-6.29,10.07-9.42,1.69,5.56-34.15,19.1-38.59,1.32-1.88-7.53-2.79-18.11,4.48-20.91,6.59-2.54,22.81-1.43,26.58-10-2,4.55-40,8.27-39.19-2.22,0.77-10.24,30-8.39,36.42-7.41-13.86-8.26-28.59-2.79-42.79,1-5.88,1.57-7.74,1.34-13.32.12-1.55-.34-11.9-1.81-12-1.91,3.61,3.11,10.12,3.17,14.4,5.52a39,39,0,0,1,12.19,10.66c0.7,0.92,9.07,14.06,7,15,1.51-.7-6.85-7.74-6.9-7-0.28,3.93,6,10.74,6.11,16.15,0,0.94-1.32,10.25-2.32,9.15-1.7-1.88-1.49-6.31-3-8.79,0,0.32-1.56,22.1-4.39,20.47,0.21,0.12,4.73-32.29-2.43-30.73,0.83-.18,4.59,23.09-0.75,23.8,1.8-.24-2.53-9.54-3-10.26-3.91-6.56-10.39-10.06-16-14.88s-9.92-11-10.39-18.6c-3.41,5.15-5.13,11.71-3.53,17.8-4.33-4.42-8.3-13.77-3.93-19.48-11.48,3.67-17.87,17.33-14.07,28.65a25.91,25.91,0,0,1-.74-37.07c-10.07,3.55-18.4,13.51-21.6,23.5-3.15-8.28,3-17.46,8.5-23.1-11.69,7.22-14.54,20.89-12,33.65-20.52-20,7.71-43.33,27.89-44.2a31.18,31.18,0,0,0-12.92-1.84c1.8-3.88,5.34-6.95,9-9.1-8.54,3.59-12.57,9.71-18.49,16.18s-12.48,10.85-13.89,20.43c-1.26,8.58,2.51,17.17,8.38,23.33,1.72-9.91,5.84-21.94,14.75-27.6-4.91,10.71,4.7,26.66,15.21,30-6.67-8.33-1.64-21.66,5.73-27.8-0.84,8.34,5.71,15.87,12.07,20.39-2.1-3.51-3.62-8.28-2.72-12.38,6.66,14.35,33.36,16.66,28.21,37.8a6.16,6.16,0,0,0,3.64-2.32c1.43,5.87-.21,12.5-2.37,18,1.34-1.69,3-2.5,4.33-4.46-0.11,5.1,5.91-1.14,6.48-2.35-2.6,14.34-11.69,28.39-24.23,35.94,31.61,18,61.82-7.1,73.19-36.57-8.2,17.75-26.89,41-49.14,38.76h0Z" transform="translate(1771.11 -1364.75)"/><path class="cls-27" d="M-1642.15,1374.93c26.31-10.29,50.93-7,73.19,10.17-10-10-23.28-17.18-37.31-19.28-5.94-.89-11.41.1-17.27,0.26-9.05.24-17.4-.77-26.49,1.39,6.25-.92,15.76-0.25,7.88,7.47C-1622.46,1367.23-1632.34,1365.32-1642.15,1374.93Z" transform="translate(1771.11 -1364.75)"/></g><path class="cls-23" d="M-1656.93,1389.36s-19.49,4.69-27.06,21C-1684,1410.4-1683.79,1389.58-1656.93,1389.36Z" transform="translate(1771.11 -1364.75)"/><path class="cls-23" d="M-1657.72,1386.57s-32.66,4.29-34.69,32.6C-1698.75,1404.87-1686.66,1386.46-1657.72,1386.57Z" transform="translate(1771.11 -1364.75)"/><path class="cls-23" d="M-1642.28,1394.7s-25.28,7.27-23.95,30C-1677.44,1405.43-1660.45,1389.09-1642.28,1394.7Z" transform="translate(1771.11 -1364.75)"/><path class="cls-23" d="M-1637.8,1398s-11.46,6.39-9.6,19.19C-1652.39,1408.61-1648.93,1398.29-1637.8,1398Z" transform="translate(1771.11 -1364.75)"/><path class="cls-23" d="M-1633.55,1398.72c-18.91,8.85,19.59,31.1,20.33,39.52,1.7-8.18-.27-14.46-5.54-20.84,3.58,1,20.12,18.64,16.61,20.05,6.67-2.68-10.1-22.83-12.27-24.16,1.32-.66,10.7,1.21,10.7,3.37-8.23-5.75-16.17-24.25-29.83-17.95C-1639.45,1401.48-1632.87,1398.4-1633.55,1398.72Z" transform="translate(1771.11 -1364.75)"/><path class="cls-23" d="M-1586.81,1418.95c3.13-.48,27.74-7.14,26.51-10.68,1.33,3.81-14.56,8.09-13.44,11.74,0.92,3,13.17-2.89,13.6-4.06-1.64,4.44-13.55,7.76-10,12.32,2.63,3.38,14.8-1.25,15.34-.19,1.34,2.65-9.23,7.87-10.46,8.37-2.75,1.13-22.48,1.76-20.1-1.56,1.32-1.85,6.24-.79,7.09-3,0.25-.65-10.41-0.72-9.91-2.15,1.06-3,5.26-1.42,4.53-5.51-0.33-1.83-5.43-2.69-5.24-4.51A2.18,2.18,0,0,1-1586.81,1418.95Z" transform="translate(1771.11 -1364.75)"/><path class="cls-23" d="M-1594.48,1400.55c5-2.46,23.38-8.38,27.46-3,0.78,1-15.15,3.58-16,4.87s18.46-1.87,18.39-1.91C-1562.35,1401.94-1605.27,1410.55-1594.48,1400.55Z" transform="translate(1771.11 -1364.75)"/><path class="cls-23" d="M-1555.4,1439.39a33.82,33.82,0,0,1-9.34,6.18c-1.79.8-18,3.08-18.06,3.29-1.44,6.76,18.14.52,19.29-.16C-1561.49,1447.51-1552.92,1438.13-1555.4,1439.39Z" transform="translate(1771.11 -1364.75)"/><path class="cls-23" d="M-1581.46,1464.69c6.72-1.67,21.07-7.62,23.88-14.14-0.74,1.72-11.88,14-12.89,13.51,2.87,1.5,15.64-11.66,15-12.78,1.77,3-9.88,13.22-11.66,14.48-3.06,2.16-7.87,5.07-11.8,4.25C-1581.48,1469.47-1586.85,1466.19-1581.46,1464.69Z" transform="translate(1771.11 -1364.75)"/><path class="cls-23" d="M-1571.58,1480.16a29.59,29.59,0,0,1-8.5,4.58c-7.31,2.58-14.13-.6-20.94,1-1.64.38,10.48,3.17,10.57,3.22s-19,4.8-18.79,4.47c-2.76,5.15,7.12,5.56,10.73,5.22,3.32-.31,33.21-14.82,29.18-18.7A2.61,2.61,0,0,0-1571.58,1480.16Z" transform="translate(1771.11 -1364.75)"/><path class="cls-23" d="M-1634.69,1375.91a39.51,39.51,0,0,1,13.13-4.71c4.09-.76,21.39-2.91,24.07,1-0.65-1-15.82,0-15.91,1.35-0.12,1.86,30.43.05,25.57,6.36-0.88,1.15-20,2-20.43,1.36,3,5.09,21.6-1.63,25.67,3.08-2.66-3.07-32.4,14.37-37.31,7.6-1.19-1.64,6.06-3.45,5.47-4.89-1.11-2.67-11.65.71-13.82-.92-5.18-3.89,5.89-5.67,4.2-7.66s-13.83,3.56-14.49,1C-1638.85,1378.28-1635.24,1376.27-1634.69,1375.91Z" transform="translate(1771.11 -1364.75)"/><path class="cls-23" d="M-1643.17,1371.25c-3.46,2.8-8,11.89-11.12,13.4,0.25-.12,1.28-8.89,3.37-9.94-2,1-18,9.92-14.84,1.67,1.58-4.16,23.61-10,23.66-6.86Z" transform="translate(1771.11 -1364.75)"/><g class="cls-8"><path class="cls-28" d="M-1646.26,1394.45c-14.08,1-22.37,9.48-21.63,23.48C-1671.69,1403.82-1660.89,1392.46-1646.26,1394.45Z" transform="translate(1771.11 -1364.75)"/><path class="cls-28" d="M-1665.79,1387.64c-14.08,2.66-26.42,10.3-27.73,25.48C-1695,1397.4-1680.33,1387.51-1665.79,1387.64Z" transform="translate(1771.11 -1364.75)"/><path class="cls-28" d="M-1632,1399.73c-14,7.87,15.43,26.16,18,34.08C-1617.14,1427.85-1649.3,1405.59-1632,1399.73Z" transform="translate(1771.11 -1364.75)"/><path class="cls-28" d="M-1632.71,1376.83c6.91-6.23,18.15-6.84,26.84-5.12C-1614.88,1372.36-1624.5,1372.68-1632.71,1376.83Z" transform="translate(1771.11 -1364.75)"/><path class="cls-28" d="M-1594.5,1402.39c6.72-5.06,16.14-6.54,24.27-4.74C-1578.54,1398.34-1586.6,1399.54-1594.5,1402.39Z" transform="translate(1771.11 -1364.75)"/><path class="cls-28" d="M-1664.44,1378a25.62,25.62,0,0,1,19.61-8.66A99.21,99.21,0,0,0-1664.44,1378Z" transform="translate(1771.11 -1364.75)"/></g><path class="cls-9" d="M-1604,1462.61c-0.58,1.21-6.6,7.44-6.48,2.35-1.29,2-3,2.77-4.33,4.46,2.19-5.45,3.79-12.18,2.37-18a6.16,6.16,0,0,1-3.64,2.32c5.15-21.14-21.56-23.45-28.21-37.8-0.92,4.18.61,8.78,2.72,12.38-6.34-4.56-12.91-12-12.07-20.39-7.36,6.13-12.41,19.45-5.73,27.8-10.51-3.32-20.12-19.26-15.21-30-10.78,6.84-14.54,24.46-19.32,35.58-7.44,17.31-.08,35.91,12.74,48.44,28.06,27.42,70.43,10.05,77.17-27.17C-1605.9,1466.56-1606.27,1475-1604,1462.61Z" transform="translate(1771.11 -1364.75)"/><path class="cls-10" d="M-1672.64,1497.25c-16-10.5-28.38-29.93-23.83-49.55,1.95-8.39,6.57-17.34,9.7-25.52,2.66-7,6.56-13.7,13.17-17.57-5.38,10.6,2.6,25.87,13,30.23-5.75-9-.3-22,7.44-27.91-1,8.07,4.24,15,10.22,19.86a18.34,18.34,0,0,1-1.55-12.18c6.36,14.53,33.71,17.72,29,38.52a7.69,7.69,0,0,0,3.23-2.68c1.43,5.88.39,12-1.62,17.66a20.56,20.56,0,0,0,3.84-4.65c1.11,6.32,5.84-.22,7-4C-1608,1491.59-1641.61,1517.59-1672.64,1497.25Zm-2.88-90.35c-9.68,7.19-11.28,20.52-16.05,30.67-9,19.07-3.79,38.22,11.33,52.53,27.4,25.94,67.06,9.65,75.31-25.31-2.55,3.07-5,1.94-7.12,2.63-1.06.35-2.6,2.41-3.75,3.13,2.45-5.53,4.21-12.17,3.09-18.21-2.06,2.08-2.38.85-4,1.92,6.4-19.76-19.77-24.49-27.35-37-0.43,4.35,1.47,9,4,12.54-6.93-4.33-14.27-12.15-14-20.88-7.25,6.69-11.1,19.53-4,27.63-11.24-3.32-21.13-17.88-17.34-29.67C-1686,1414.68-1678.19,1415.24-1675.52,1406.9Z" transform="translate(1771.11 -1364.75)"/><path class="cls-29" d="M-1683.31,1466.35c1.74,4.95,35.5,15.42,37,11-1.39,9.9-16.48,18.2-23.42,8.87-2.89-3.89-2.43-8.46-6.29-12C-1679.45,1471.14-1683.68,1472.5-1683.31,1466.35Z" transform="translate(1771.11 -1364.75)"/><g class="cls-18"><path class="cls-19" d="M-1604,1462.61c-0.58,1.21-6.6,7.44-6.48,2.35-1.29,2-3,2.77-4.33,4.46,2.19-5.45,3.79-12.18,2.37-18a6.16,6.16,0,0,1-3.64,2.32c5.15-21.14-21.56-23.45-28.21-37.8-0.92,4.18.61,8.78,2.72,12.38-6.34-4.56-12.91-12-12.07-20.39-7.36,6.13-12.41,19.45-5.73,27.8-10.51-3.32-20.12-19.26-15.21-30-10.78,6.84-14.54,24.46-19.32,35.58-7.44,17.31-.08,35.91,12.74,48.44,28.06,27.42,70.43,10.05,77.17-27.17C-1605.9,1466.56-1606.27,1475-1604,1462.61Zm-51-24.65a31.37,31.37,0,0,1-4.17-12.33c4.71,10.5,18.33,1.05,27.57,5.42,6.76,3.2,13.47,19.61,5.09,17-2-.64-4.46-5.42-7.71-6.44a13.15,13.15,0,0,0-13.68,3.31c-3.8,4.12-4.65,11.31-2.3,16.32,1.86,4,8.13,5.47,4.83,9.54,2-1.14,17.71-6,18.19-1.59-0.53-4.86-4.51-3.82.38-9.54,1.73-2,2.32-5.13,5.65-4.11,3.76,1.14,2.52,11.95,2.21,14.11-2.14,15.11-13.79,28.67-29.18,30.88-15.55,2.23-29.63-7.09-38-19.59-5.5-8.19-8.93-18-8.44-28,0.05-1.12,2.71-12.4,3.39-11.23,0,3.09.67,5.38,1.22,8.29,0.24,1.28-1.91,1-2.67,3,4.24-1.29,9.34,2.68,12.1,5.28a2.52,2.52,0,0,0-.86-2.22c4-.3,2.25,4.13,6.51,5.34-2.07-2.46,6.62-12.29,6.43-17.83a16.55,16.55,0,0,0-3.08-9.48c-2.17-2.84-7-3.07-8.55-5-0.79-1-4.59-.41-2-3.25,3-3.22,6.27-.65,9,1C-1667.08,1430.36-1663.73,1439.69-1655.07,1438Z" transform="translate(1771.11 -1364.75)"/></g><path class="cls-30" d="M-1649.24,1428.83c9.46-3.31,20.31-1.52,27.11,6.24a21.8,21.8,0,0,0-14.54-10.18c-2.91-.59-15.2-1-15.21,3.71Q-1650.87,1430.17-1649.24,1428.83Z" transform="translate(1771.11 -1364.75)"/><path class="cls-30" d="M-1682.08,1423.91c2.63-4.59,7.11-3.45,10.18.39-1.81-3.76-4.45-6.82-8.77-5.2C-1684,1420.36-1682.92,1425.41-1682.08,1423.91Z" transform="translate(1771.11 -1364.75)"/><path class="cls-31" d="M-1676.79,1472.35c9.42,0.79,18,6.18,27,9-3.43,4-9.52,8.31-15.12,6.35C-1672.22,1485.11-1670,1475.37-1676.79,1472.35Z" transform="translate(1771.11 -1364.75)"/><path class="cls-32" d="M-1663.59,1480.74c3,1,7.49,1.42,10.35-.56-5.48-1.88-10.69-4.49-16.18-6.3a8,8,0,0,0,5.83,6.86h0Z" transform="translate(1771.11 -1364.75)"/><path class="cls-33" d="M-1668.41,1485.54c3.48,3.71,9.05,2.87,13,.56-3.25-3.55-9.11-2.21-13-.56C-1667.56,1486.44-1665.72,1484.38-1668.41,1485.54Z" transform="translate(1771.11 -1364.75)"/><path class="cls-34" d="M-1660,1484.77a2.5,2.5,0,0,1-3.18.34,2.49,2.49,0,0,1,3.18-.34h0Z" transform="translate(1771.11 -1364.75)"/><path class="cls-34" d="M-1658.48,1484.76c0,0.87,0-.94,0,0C-1658.49,1484.88-1658.48,1484.64-1658.48,1484.76Z" transform="translate(1771.11 -1364.75)"/><g class="cls-15"><path class="cls-33" d="M-1657.29,1484.71c3.44,2.1-12.53,2.53-7.46-.39-7.74,1.86,4.81,4.44,9.3,1.78l-1.84-1.39C-1655.31,1485.92-1656.63,1485-1657.29,1484.71Z" transform="translate(1771.11 -1364.75)"/></g><g class="cls-35"><path class="cls-36" d="M-1664.5,1475.79q-2.42-1.07-4.92-1.9c0.35,3.51,10.15,2.45,11.18,6s-10.08-2.23-9.59-1.91c2.88,3.73,10.67,5,14.6,2.26-3.81-1.31-7.58-2.78-11.26-4.4h0Z" transform="translate(1771.11 -1364.75)"/></g><path class="cls-10" d="M-1668,1445c-0.85,8.42-12.88,14.85-1.73,20.45C-1682.52,1461.2-1669.65,1452.39-1668,1445Z" transform="translate(1771.11 -1364.75)"/><path class="cls-10" d="M-1683.17,1468c1.4,2.54,4,3.88,6.82,4.55C-1679.61,1472.83-1682.72,1471.31-1683.17,1468Z" transform="translate(1771.11 -1364.75)"/><path class="cls-10" d="M-1646.72,1477.91c-0.95,1.81-.2,3.62-3.08,3.4C-1647.93,1480.53-1648,1479.37-1646.72,1477.91Z" transform="translate(1771.11 -1364.75)"/><path class="cls-10" d="M-1676.79,1472.35c9.31-.11,19.06,6.15,27.68,8.75-3.58,4.47-10.13,9-16.18,6.79C-1672.25,1485.38-1670.4,1475.72-1676.79,1472.35Zm0,0c6.47,3,5,12.23,11.5,14.78s11.35-3.72,15.38-5.44C-1658.59,1479-1667.57,1472.78-1676.79,1472.35Z" transform="translate(1771.11 -1364.75)"/><path class="cls-10" d="M-1669.24,1489.9a9.62,9.62,0,0,0,6.7,2.9A5.15,5.15,0,0,1-1669.24,1489.9Z" transform="translate(1771.11 -1364.75)"/><path class="cls-10" d="M-1643.34,1469a11.07,11.07,0,0,1,13.22-1.9A17.78,17.78,0,0,0-1643.34,1469Z" transform="translate(1771.11 -1364.75)"/><path class="cls-37" d="M-1628.79,1455c-2.63,16.45-23.46,13.32-20.83-3.22,2.59-16.28,23.52-13.6,20.83,3.22h0Z" transform="translate(1771.11 -1364.75)"/><path class="cls-3" d="M-1628.79,1455c-2,12.63-18.14,17-21.09,2.09C-1653.73,1437.61-1625.4,1433.92-1628.79,1455Zm0,0c2.63-17.59-19.74-18.4-20.52-1.43C-1650.07,1469.91-1631.33,1469.67-1628.79,1455Z" transform="translate(1771.11 -1364.75)"/><g class="cls-18"><path class="cls-38" d="M-1637.09,1440.11c-13.73-2.12-18,24.33-4.23,26.47s18.08-24.33,4.23-26.47h0Zm6.83,14.61c-2.25,14.14-20.17,11.45-17.9-2.76,2.23-14,20.21-11.7,17.9,2.76C-1631.25,1461-1629.25,1448.44-1630.25,1454.73Z" transform="translate(1771.11 -1364.75)"/></g><path class="cls-39" d="M-1629.66,1453.09c-0.43,11-14.33,15.19-14.2,2,0.11-11.07,14.7-15.1,14.2-2C-1629.87,1458.51-1629.45,1447.67-1629.66,1453.09Z" transform="translate(1771.11 -1364.75)"/><path d="M-1632,1450.67c-2-8.73-12.12-.52-9.63,6,3.21,8.48,11.23.76,9.63-6C-1632.41,1448.92-1631.33,1453.54-1632,1450.67Z" transform="translate(1771.11 -1364.75)"/><path class="cls-40" d="M-1629.73,1451.38c-0.38-2.93-3.81-6.74-6.83-3.92-4.71,4.39,4.55,8.09,4,9.84-4.12,13.67-11.26-7.17-9.12-6.73,1.65,0.34-3.82,17.06,7.67,10.77,2.13-1.17,5-7.8,4.26-10C-1629.86,1450.39-1629.22,1453-1629.73,1451.38Z" transform="translate(1771.11 -1364.75)"/><path class="cls-41" d="M-1632.77,1447.41c-4.6-2.54-4.06,6.23-.53,7.64,4.63,1.84,3.65-5.94.53-7.64h0Z" transform="translate(1771.11 -1364.75)"/><path class="cls-42" d="M-1630.52,1452.15c-1-4.58-6.31-6.27-4.2-.06,0.9,2.64,5.09,4.12,4.2.06C-1630.79,1450.9-1630.31,1453.12-1630.52,1452.15Z" transform="translate(1771.11 -1364.75)"/><path class="cls-30" d="M-1628.18,1450.73c-0.13-1.32,3.44-3,4.67-3.53a6.44,6.44,0,0,1-4.35.77c-0.16-.76,1.4-1.12,1.84-1.79-1.19,2.09-5.93-6.66-8.19-7.73-9.43-4.49-10.66,5.09-14.84,9.43,6.31-6.59,19.09-10.21,20.88,2.85C-1628.17,1450.87-1628.78,1446.41-1628.18,1450.73Z" transform="translate(1771.11 -1364.75)"/><path class="cls-43" d="M-1635.28,1465.21c-2.64,2.23-7.33,1.43-10.07.05,0.45,0.22,3.93,1.19,3.64,2.39,0.33-1.81,3-.79,2.77.69a1.65,1.65,0,0,0-.35-1.4c0.69,0,2.66-.67,3.1.32a1.89,1.89,0,0,0-.82-0.78q2.6-.47,1.71-1.28C-1638.09,1467.59-1635.23,1465.17-1635.28,1465.21Z" transform="translate(1771.11 -1364.75)"/><path class="cls-10" d="M-1682.44,1456.76a14,14,0,0,0-9.85-4.55A8.87,8.87,0,0,1-1682.44,1456.76Z" transform="translate(1771.11 -1364.75)"/><path class="cls-44" d="M-1690.33,1442.26c-2,13.78,15.07,15.81,17,2.23s-15-16-17-2.23h0Z" transform="translate(1771.11 -1364.75)"/><path class="cls-3" d="M-1690.33,1442.26c-1.41,10.44,9.86,17,15.41,6.2C-1667.51,1434.06-1688.31,1426.12-1690.33,1442.26Zm0,0c2.08-13.86,19.38-11.7,17.37,2.28C-1674.94,1458.33-1692.88,1456.29-1690.33,1442.26Z" transform="translate(1771.11 -1364.75)"/><g class="cls-18"><path class="cls-45" d="M-1690.33,1442.26c-2,13.78,15.07,15.81,17,2.23s-15-16-17-2.23h0Zm9.9-8.34c9.81,1.28,6.92,20.28-2.77,18.92s-6.93-20.18,2.77-18.92h0Z" transform="translate(1771.11 -1364.75)"/></g><path class="cls-30" d="M-1689.76,1438.77c2.06-4.67-8.49-2.35.43-2.27,0.29-.6-0.8-1.15-1-1.84,0.56,2.33,5.71-3.69,7.67-4.15,9.44-2.2,7.56,6.42,9.88,10.79-3.3-6.7-12.3-12.64-17-2.53h0Z" transform="translate(1771.11 -1364.75)"/><path class="cls-43" d="M-1687.79,1451.9c1.48,2.32,5.44,2.89,7.84,2.35-0.49.09-3.31,0-3.43,1.06,0.2-1.54-2.13-1.31-2.33-.1a1.45,1.45,0,0,1,.61-1c-0.45-.14-2-1.16-2.5-0.46a1.48,1.48,0,0,1,.83-0.43q-1.93-1-1-1.4C-1686.19,1454.44-1687.83,1451.85-1687.79,1451.9Z" transform="translate(1771.11 -1364.75)"/><path class="cls-46" d="M-1674.07,1442.69c-0.27,8.7-11.32,12.22-11.5,1.71-0.14-8.59,11.81-12.73,11.5-1.71C-1674.2,1447.08-1673.94,1438.3-1674.07,1442.69Z" transform="translate(1771.11 -1364.75)"/><path d="M-1676,1440.75c-1.79-7.49-10.66.87-7.68,5.8,3.6,5.95,8.84-1,7.68-5.8C-1676.32,1439.33-1675.42,1443.07-1676,1440.75Z" transform="translate(1771.11 -1364.75)"/><path class="cls-47" d="M-1674.14,1441.3c-0.3-2.27-3.14-5.5-5.56-3.13-3.5,3.42,3.61,6.42,3.26,7.85-0.74,3-4.3,3.39-6.27,1.68s-0.45-4.87-1.08-7c1.31,4.38-.7,13.87,7.16,7.46,1.4-1.14,3.13-5,2.49-6.91C-1674.25,1440.51-1673.71,1442.58-1674.14,1441.3Z" transform="translate(1771.11 -1364.75)"/><path class="cls-41" d="M-1676.64,1438.11c-4.78-2.54-1.47,5-.37,6.2,2.41,2.54,3.61-4.47.37-6.2h0Z" transform="translate(1771.11 -1364.75)"/><path class="cls-42" d="M-1674.77,1441.94c-1.41-6.18-5.58-1.71-3.4,0,0.57,0.45,4.43,4.61,3.4,0C-1675,1440.92-1674.6,1442.72-1674.77,1441.94Z" transform="translate(1771.11 -1364.75)"/><path class="cls-29" d="M-1675.11,1458.07c1,2.47,7.34,4.35,7.46,5.57,0.35,3.64-6.8-1.07-6.4-.64C-1674.57,1462.45-1675.89,1457.4-1675.11,1458.07Z" transform="translate(1771.11 -1364.75)"/><path class="cls-48" d="M-1667.26,1487.6c0.43,0.15,4.82,1.87,4.78,2C-1663.18,1491.94-1667.84,1487.38-1667.26,1487.6Z" transform="translate(1771.11 -1364.75)"/><path class="cls-48" d="M-1660.38,1490c-0.07.68,0.1-.67,0,0C-1660.4,1490.13-1660.36,1489.85-1660.38,1490Z" transform="translate(1771.11 -1364.75)"/><path class="cls-9" d="M-1603.73,1462.59c6.65-9.92,13.18,4,9.45,11.09-1.78,3.39-9.34,9.62-13.43,7.24C-1611.45,1478.75-1605.19,1467-1603.73,1462.59Z" transform="translate(1771.11 -1364.75)"/><path class="cls-10" d="M-1603.73,1462.59c7.26-10.59,15.06,7,7.22,14.75-2.38,2.35-11.72,7.42-13.94,2.47-0.62-1.39,6.33-16.06,6.73-17.23C-1603.23,1461.85-1604.7,1465.47-1603.73,1462.59Zm0,0c-1.85,5.8-3.27,11.8-6,17.25,5,2.37,13-1.88,15.52-7.44,2.83-6.37-2.63-19.67-9.48-9.81C-1604.2,1464-1603.22,1461.86-1603.73,1462.59Z" transform="translate(1771.11 -1364.75)"/><path class="cls-3" d="M-1598,1469.64c2.82-9.43-6.17,1.62-7.37,5.37C-1604.58,1469-1593.63,1460.4-1598,1469.64Z" transform="translate(1771.11 -1364.75)"/><path class="cls-3" d="M-1604.65,1473.12c1.49-.32,1.85-2.57,3.16.08C-1602.72,1472.26-1603.27,1472.93-1604.65,1473.12Z" transform="translate(1771.11 -1364.75)"/><g class="cls-6"><path class="cls-19" d="M-1603.73,1462.59c1.83-2.72,6.11-4.85,8.72-1.81-0.7-.38-5.39-1.17-5.4,1,0-1,9.29,9.58,2.5,8.83-0.71-.08-1.63-2.75-2.61-1.69-0.67.72,0.68,3.45,0.44,3.65-0.8.66-4.25,3.06-4.37,3.43-1.37,3.93-.37,5.48,6,2.18-2.2,1.6-9.34,5.2-11.6,1.44C-1610.6,1478.82-1604.32,1464.35-1603.73,1462.59Z" transform="translate(1771.11 -1364.75)"/></g><path class="cls-49" d="M-1646.07,1443.3a8.87,8.87,0,0,1,10-2.27C-1629.7,1443.31-1640.53,1432.92-1646.07,1443.3Z" transform="translate(1771.11 -1364.75)"/><path class="cls-49" d="M-1687.89,1435.26a8.87,8.87,0,0,1,10-2.27C-1671.52,1435.28-1682.34,1424.88-1687.89,1435.26Z" transform="translate(1771.11 -1364.75)"/><path class="cls-7" d="M-1665.92,1441.2c0,5-7.63,17.9-6.37,18.72C-1664,1465.29-1665.68,1440.38-1665.92,1441.2Z" transform="translate(1771.11 -1364.75)"/><path class="cls-50" d="M-1624.38,1477.91c3.87-11.93-18.52-16.08-21.87-5.75s18.1,17.4,21.87,5.75h0Zm-11.42-6.46c-4.7,3.46-4-3-4.07-3-1-.76,9.43-0.81,4.07,3C-1636.56,1472-1635,1470.91-1635.8,1471.46Zm3.92-2.33c0,0.05-3.37-.88-0.91-1.72C-1632.45,1467.43-1629.77,1468.42-1631.88,1469.13Z" transform="translate(1771.11 -1364.75)"/><path class="cls-51" d="M-1691.08,1465.87c9,1.37,14-8.18,4.75-12.52-11-5.13-15.48,10.87-4.75,12.52h0Zm3.55-10.72c2.73-2.53,3.3,2.41,3.3,2.41,0.58,0.46-6.71.78-3.3-2.41C-1686.33,1454-1688.14,1455.72-1687.52,1455.15Zm-1.14-1.88c-0.49.52,0.92,1.75-1.06,1Q-1690.17,1452.76-1688.66,1453.27Z" transform="translate(1771.11 -1364.75)"/><path class="cls-52" d="M-1628,1609.36c9.36-2.08,20-7.63,22.64-17.69,2.54-6.78-5.16-26.48-7.9-34a82.32,82.32,0,0,1-5.13-25c-0.24-5.1,2.85-15,1.47-19.15-3.41-10.26-10.24,1.57-13.15,6.34-9.5,15.55-17.54,32.52-21.66,50.33-5.56-9.66-7.36-21.2-7.86-32.18-0.37-8,2.52-17.94,1.24-25.64-2.4-14.42-12,6.85-14.13,12.25-12.75,32-3.83,95.47,44.51,84.71h0Z" transform="translate(1771.11 -1364.75)"/><path class="cls-53" d="M-1628,1609.36c9.5-2.18,19.78-7.61,22.58-17.7a1,1,0,0,1-.13.72c-1.48-17.63-9.21-32.46-12-49.47a87.7,87.7,0,0,1-1-19c0.11-1.89,2.46-9.72,1.72-11.33-0.94-2-1.46-2.9-4.13-3-7.46-.22-17.86,26.7-20.4,32.3a176.83,176.83,0,0,0-10.2,29.42c-7.85-13.79-9-30.21-8.28-45.75,0.21-4.43,5.18-17.28-1.15-18.05-7-.85-12.24,19.43-13.84,24.57-7.5,24.12-2.93,47.84,11.46,68.15A42.13,42.13,0,0,0-1628,1609.36Zm0,0c-30.88,6.2-49.2-21.08-51-48.9-0.61-9.64,11-63.9,21.45-51.73,1.25,1.45-1.5,13-1.6,14.67a122.05,122.05,0,0,0,.73,23.93c0.93,6.69,6.59,18,6.26,22.8,2.46-9.88,20.29-64.81,32.54-61,2.34,0.73,2.43,1.57,3.16,3.55,0.89,2.4-1.68,9.64-1.8,12.46a90.56,90.56,0,0,0,1,17.7c2.65,16.88,11.2,31.84,11.65,49.2C-1606.3,1600.66-1619.25,1607.41-1628,1609.36Z" transform="translate(1771.11 -1364.75)"/><path class="cls-52" d="M-1578.09,1653.71c-3.43-8.78-3.63-18.86-4.95-28.06-1.42-10-3.65-19.75-8.68-28.63-3.19-5.63-6.87-13.92-12.05-8.55-2.36,2.45-2.87,7.12-5,10-4.49,6-12,9.38-19.18,10.92a41.27,41.27,0,0,1-35.48-9.1,70.86,70.86,0,0,0-11.81,22c-2.5,7.45-6.28,11.92-10.41,18.55-3.58,5.75-2.65,9.08,1,15.14a30,30,0,0,0,8.62,9.3c4,2.79,11.35,6.51,16.42,4.62,3.18-1.19,4.32-5.32,8.16-6.48,4.52-1.37,9.33.61,13.39,2.4,9.16,4,18.49,13.75,28.81,14.38C-1595.59,1681-1584.21,1664.08-1578.09,1653.71Z" transform="translate(1771.11 -1364.75)"/><path class="cls-53" d="M-1578.09,1653.71c-5.3-11.36-4-25.93-6.8-38-2.7-11.57-8.2-22.45-16-30.38-4.5,3.87-5,10.28-8.95,14.73a29.89,29.89,0,0,1-11.56,7.62c-10.33,4.13-36.24,4.33-41.76-7.21-11.1,13.94-13.87,30.58-25.4,44.42,2.38,9.29,14.47,30,28.59,24.8,4.47-1.64,5-6.11,10.85-6.77,8-.89,15.86,5.16,22.4,9,5.36,3.13,11.4,7.89,17.92,8.13,13.33,0.49,24.81-16.4,30.72-26.36C-1578.75,1652.31-1579.6,1656.25-1578.09,1653.71Zm0,0c-6.79,11.66-19.51,30-35.13,25.9-11.62-3-21.2-16.14-33.71-16.28-6.7-.08-7.37,4.87-12.33,6.65s-11.38-1-15.53-3.47c-6-3.63-16.46-14.89-14-22.44,1.29-4,6.81-8,9-11.72,6.53-10.86,7.86-22.15,16.28-32.64,18.46,15.81,45.87,13,57.91-8.12,0.6-1,2.41-6.56,4.48-6.73,4.47-.36,11.22,14.82,13,19.2,6.33,15.76,3,34.45,10,49.64C-1579.58,1656.27-1578.74,1652.31-1578.09,1653.71Z" transform="translate(1771.11 -1364.75)"/><path class="cls-53" d="M-1661.5,1585.65a43.53,43.53,0,0,0,4.52,18.85C-1661.06,1599.37-1662.52,1592-1661.5,1585.65Z" transform="translate(1771.11 -1364.75)"/><path class="cls-53" d="M-1628.82,1582.25a40,40,0,0,1,2.51,26.47A64.28,64.28,0,0,0-1628.82,1582.25Z" transform="translate(1771.11 -1364.75)"/><path class="cls-53" d="M-1623,1596.64c1.38,3.64,1.55,7.88-.45,11.29C-1622.57,1604.23-1622.77,1600.41-1623,1596.64Z" transform="translate(1771.11 -1364.75)"/><path class="cls-53" d="M-1616,1595.17a11.68,11.68,0,0,1,.18,9.35A70.4,70.4,0,0,0-1616,1595.17Z" transform="translate(1771.11 -1364.75)"/><path class="cls-53" d="M-1672.28,1576.6c1.66,8.21,5.19,15.92,9.05,23.3C-1668.09,1593.17-1671.81,1585-1672.28,1576.6Z" transform="translate(1771.11 -1364.75)"/><path class="cls-53" d="M-1660.12,1603c-2.09,4.81-4.48,9.7-5.14,15C-1665.8,1612.61-1663.15,1607.17-1660.12,1603Z" transform="translate(1771.11 -1364.75)"/><path class="cls-53" d="M-1656.36,1605.29c-3.51,7.91-7.11,16.64-7,25.45C-1664.72,1622-1660.82,1612.58-1656.36,1605.29Z" transform="translate(1771.11 -1364.75)"/><path class="cls-53" d="M-1618.6,1606.31a10.19,10.19,0,0,1,3.13,8.35A46.84,46.84,0,0,0-1618.6,1606.31Z" transform="translate(1771.11 -1364.75)"/><path class="cls-53" d="M-1608,1597.4a14.56,14.56,0,0,1,5.38,10A52.33,52.33,0,0,0-1608,1597.4Z" transform="translate(1771.11 -1364.75)"/><path class="cls-53" d="M-1606.34,1594.66c2,0.86,3.5,1.47,4.37,3.69A46.66,46.66,0,0,1-1606.34,1594.66Z" transform="translate(1771.11 -1364.75)"/><path class="cls-53" d="M-1630.65,1621.27c-9.37,15.08-18.29,30.34-26.8,45.92A256.65,256.65,0,0,1-1630.65,1621.27Z" transform="translate(1771.11 -1364.75)"/><path class="cls-53" d="M-1675.63,1624.24c-1.88,12.19-5.53,25.66-4,38C-1682.15,1650.22-1678.65,1636-1675.63,1624.24Z" transform="translate(1771.11 -1364.75)"/><path class="cls-53" d="M-1588.15,1623.49a123,123,0,0,1-26,54.69A163.86,163.86,0,0,0-1588.15,1623.49Z" transform="translate(1771.11 -1364.75)"/><g class="cls-6"><path class="cls-52" d="M-1605.33,1591.68c2.54-6.78-5.16-26.48-7.9-34a82.32,82.32,0,0,1-5.13-25c-0.24-5.1,2.85-15,1.47-19.15-3.41-10.26-10.24,1.57-13.15,6.34-9.5,15.55-17.54,32.52-21.66,50.33-6.72-11.67-8.1-26-8-39.22,0-3.82,3.69-18.81,1.85-21.85-7-11.49-19.72,32.56-20.23,36.12-2.71,18.85,2.24,46.22,18.91,58.2,15.07,10.83,48.24,9.64,53.84-11.79C-1605.42,1591.93-1606.14,1594.78-1605.33,1591.68Zm-8.69,4.79c-0.09-.66-2.52-8.62-2.72-8.37-1.38,1.68,1.59,14.95-2.09,14.47-3.15-.42-2.84-10.5-4.05-12.71-0.47-.84-0.53,5-0.58,4.93-3.51-3.86-3.68-11.52-6.89-15.93,0.6,1.95,4.72,26.49,2.27,25.78-1.3-.37-4.4-10.42-4.32-10.59-2.1,4.6.41,9.81-4.67,13.2-4.66,3.11-10.56.15-14.37-3-2.31-1.89-13.12-26-9.79-26.29-1.6.12-2.76,18.81-1,19.8-3.8-2.14-12.68-30.58-9.07-35-1.31,1.58-.87,9-2.82,9.92-3,1.34-1.3-32-.54-35.14s7.95-27.41,11.68-26.44c-0.34-.09-1.44,7.32-1.73,7.68,0.82-1,4.11-7.6,4.07-8.18,0.52,8-2,16.94-1.9,25.12,0.16,14.64,2.09,31.06,11.18,43.11,2.22-7.74,22.18-67.54,29.39-65.21,0.67,0.22-4.1,14.75-3,17.15-1.24-2.59,3.76-16,5.9-18.19-2.57,2.61-1.61,16.16-1.43,19.84,0.65,13.15,5.56,24.4,8.87,36.91,1.67,6.29,4.49,17.05,1.27,23.42-0.11.22-3.26,6.93-3.74,3.61C-1614.62,1592.29-1613.41,1600.65-1614,1596.47Z" transform="translate(1771.11 -1364.75)"/></g><path class="cls-54" d="M-1664.14,1528s-5.05,25.17,8.56,47.16C-1649.43,1585.75-1673.93,1556.86-1664.14,1528Z" transform="translate(1771.11 -1364.75)"/><path class="cls-54" d="M-1669.05,1533.79s-4.14,15.41-3.36,25.59S-1677.1,1550.61-1669.05,1533.79Z" transform="translate(1771.11 -1364.75)"/><path class="cls-54" d="M-1628.61,1539.68s-11.69,18.56-12.45,35.14C-1643.1,1563.62-1635.21,1546.43-1628.61,1539.68Z" transform="translate(1771.11 -1364.75)"/><path class="cls-54" d="M-1635.8,1560.43s-4,13.45-2.62,23.14C-1637.84,1587.34-1642.91,1576.75-1635.8,1560.43Z" transform="translate(1771.11 -1364.75)"/><path class="cls-55" d="M-1666.45,1522.51a86.19,86.19,0,0,0-7.84,37.22C-1674.38,1567.94-1681.18,1544-1666.45,1522.51Z" transform="translate(1771.11 -1364.75)"/><path class="cls-55" d="M-1629.85,1532.07s-16.35,27-14.71,58.67C-1644.25,1600.5-1656.43,1568.46-1629.85,1532.07Z" transform="translate(1771.11 -1364.75)"/><path class="cls-55" d="M-1624.52,1537.86a74.25,74.25,0,0,0-.28,22.09c0.35,3,8.31,35,7,35.2-2.39.31-8.3-19-8.7-20.32C-1630.16,1562.62-1630.8,1549.38-1624.52,1537.86Z" transform="translate(1771.11 -1364.75)"/><path class="cls-55" d="M-1620.15,1557.5s6.19,17.56,6.81,28.69S-1606.08,1575.11-1620.15,1557.5Z" transform="translate(1771.11 -1364.75)"/><path class="cls-55" d="M-1636.13,1570.17a62.35,62.35,0,0,0,6.28,26.29C-1628.14,1599.9-1635.36,1561.42-1636.13,1570.17Z" transform="translate(1771.11 -1364.75)"/><path class="cls-55" d="M-1667.87,1537.3c-1.06,5.14,3.46,44.27,2.52,44.11-2.44-.42-4.41-16.58-4.65-18.19C-1671.3,1554.63-1671.8,1545.35-1667.87,1537.3Z" transform="translate(1771.11 -1364.75)"/><path class="cls-52" d="M-1663.93,1615.75h0Z" transform="translate(1771.11 -1364.75)"/><path class="cls-53" d="M-1663.93,1615.75c-0.08.56,0.08,0,0,0h0Zm0,0c0.12-.17.29-0.95,0,0h0Z" transform="translate(1771.11 -1364.75)"/><path class="cls-54" d="M-1578.09,1653.71c-3.43-8.78-3.63-18.86-4.95-28.06-1.42-10-3.65-19.75-8.68-28.63-3.19-5.63-6.87-13.92-12.05-8.55-2.36,2.45-2.87,7.12-5,10-4.49,6-12,9.38-19.18,10.92a41.27,41.27,0,0,1-35.48-9.1c-7.24,9.13-9.29,18.81-14,28.93-2.41,5.14-10.44,10.48-11.36,15.5-1.28,7,7.76,17.13,12.74,20.58a151.66,151.66,0,0,1,.58-29.59c0.51-4,3.71-27,9.06-27.14,2,0-.94,12.33,0,13.6,0,0,2.41-5.87,2.55-6.37-1.06,4-3,16.82.74,19.69-0.21-.16,6.14-21.27,8.7-22.63,1.52-.81,19.49,2.62,19.62,2.86,2.6,4.64-8.11,18.63-10.14,22.13-6,10.38-12.79,20.91-16.43,32.42,11.34-.58,20.88-28.41,26.26-36.39,3-4.42,8.73-16.64,13.15-18.41,7.76-3.1-.3,5.67,5.81,5.19,4.36-.35-0.07-14.63,4.13-16.2,3.05-1.14,12.09,7.12,11.71,7.59,2.5-3.09-3.3-10.14,1.48-9,2.94,0.72,4.41,9.57,4.79,11.82,3.81,22.54-10.44,45.67-23.8,62.38C-1600.24,1686.26-1586.23,1667.52-1578.09,1653.71Z" transform="translate(1771.11 -1364.75)"/><g class="cls-56"><path class="cls-57" d="M-1654.66,1628.16c-2.09,3.44-6.53,20.46-10.42,22.37-2.64,1.29-2-23.48-3.43-25.71-0.95-1.43-4.91,19.78-5,21.18-0.35,4.84-1.35,10.37-.74,15.2,0.41,3.25-.55,3.67,1.62,6.06,0.87,1,7.18,3.3,8.17,2.8,3.06-1.54,5.87-13.6,7.24-16.84,2.81-6.63,5.83-13.24,8.19-20.05,3.79-10.94,2.78-18.81-5.61-5h0Z" transform="translate(1771.11 -1364.75)"/><path class="cls-52" d="M-1599.92,1621.53c-0.28.43-7.63,11.45-8.51,10-1.81-2.93,6.12-16.59,1.17-15.55s-8.72,18-13.33,17.26c-4-.67,5.2-19.42-5.11-7-8.83,10.65-15,24.67-21.62,36.75,5.88,0.39,11.21,3.73,16.18,6.54,6.88,3.89,6.06,6,11.87,1.41,6.8-5.42,12.2-18,15.44-25.85,2.26-5.49,5.59-13.15,5.36-19.22,0-.74.37-7.17-1.46-4.38h0Z" transform="translate(1771.11 -1364.75)"/></g><path class="cls-58" d="M-1622,1626.56s-16.39,26.64-18.24,33.26S-1643.57,1649.11-1622,1626.56Z" transform="translate(1771.11 -1364.75)"/></g></g></svg>