<svg xmlns="http://www.w3.org/2000/svg" xmlns:xlink="http://www.w3.org/1999/xlink" viewBox="0 0 356.9 547.18"><defs><style>.cls-1{isolation:isolate;}.cls-2{mask:url(#mask);}.cls-3{fill:url(#radial-gradient);}.cls-4{fill:#b8e7f0;}.cls-39,.cls-5,.cls-60,.cls-63{opacity:0.5;}.cls-23,.cls-25,.cls-33,.cls-39,.cls-41,.cls-42,.cls-43,.cls-5,.cls-50,.cls-54,.cls-57,.cls-58,.cls-59,.cls-63{mix-blend-mode:multiply;}.cls-6{mask:url(#mask-2);}.cls-7{fill:url(#radial-gradient-2);}.cls-8{fill:#81d4e5;}.cls-9{mask:url(#mask-3);}.cls-10{fill:url(#radial-gradient-3);}.cls-11{mask:url(#mask-4);}.cls-12{fill:url(#radial-gradient-4);}.cls-13{mask:url(#mask-5);}.cls-14{fill:url(#radial-gradient-5);}.cls-15{mask:url(#mask-6);}.cls-16{fill:url(#radial-gradient-6);}.cls-17{mask:url(#mask-7);}.cls-18{fill:url(#radial-gradient-7);}.cls-19{mask:url(#mask-8);}.cls-20{fill:url(#radial-gradient-8);}.cls-21,.cls-24,.cls-25,.cls-57{fill:#f7c7a2;}.cls-21,.cls-22,.cls-56{stroke:#ac6000;}.cls-21,.cls-22,.cls-35,.cls-37,.cls-56{stroke-miterlimit:10;}.cls-21,.cls-22,.cls-35,.cls-37{stroke-width:0.92px;}.cls-22,.cls-27{fill:#f4d0b8;}.cls-23,.cls-25,.cls-50,.cls-54{opacity:0.7;}.cls-26{fill:#ac6000;}.cls-28{fill:#f6aac8;}.cls-29{fill:#fcced9;}.cls-30{fill:#f4e6ea;}.cls-31,.cls-63{fill:#d77bae;}.cls-32{mix-blend-mode:screen;}.cls-33,.cls-61{opacity:0.3;}.cls-34{fill:#e3ff75;}.cls-35,.cls-36,.cls-56{fill:none;}.cls-35{stroke:#3c2600;}.cls-37{fill:#eeb03c;stroke:#994f00;}.cls-38{fill:#994f00;}.cls-39{fill:#d68c00;}.cls-40{fill:#ffdd9f;}.cls-41,.cls-42,.cls-43,.cls-58,.cls-59{opacity:0.6;}.cls-41{fill:url(#radial-gradient-9);}.cls-42{fill:url(#radial-gradient-10);}.cls-43{fill:url(#radial-gradient-11);}.cls-44{fill:url(#radial-gradient-12);}.cls-45{fill:#6a2b00;}.cls-46{fill:#830e00;}.cls-47{fill:url(#linear-gradient);}.cls-48{fill:url(#radial-gradient-13);}.cls-49{fill:url(#linear-gradient-2);}.cls-50{fill:url(#linear-gradient-3);}.cls-51{fill:#6bc3cd;}.cls-52,.cls-60,.cls-61{fill:#fff;}.cls-53{fill:url(#linear-gradient-4);}.cls-54{fill:url(#linear-gradient-5);}.cls-55{fill:#743f05;}.cls-56{stroke-width:0.46px;}.cls-58{fill:url(#radial-gradient-14);}.cls-59{fill:url(#radial-gradient-15);}.cls-62{fill:#a14a78;}.cls-64{filter:url(#luminosity-noclip-8);}.cls-65{filter:url(#luminosity-noclip-7);}.cls-66{filter:url(#luminosity-noclip-6);}.cls-67{filter:url(#luminosity-noclip-5);}.cls-68{filter:url(#luminosity-noclip-4);}.cls-69{filter:url(#luminosity-noclip-3);}.cls-70{filter:url(#luminosity-noclip-2);}.cls-71{filter:url(#luminosity-noclip);}</style><filter id="luminosity-noclip" x="-3218.92" y="1554.91" width="149.88" height="91.2" filterUnits="userSpaceOnUse" color-interpolation-filters="sRGB"><feFlood flood-color="#fff" result="bg"/><feBlend in="SourceGraphic" in2="bg"/></filter><mask id="mask" x="207.15" y="217.21" width="149.88" height="91.2" maskUnits="userSpaceOnUse"><g class="cls-71"/></mask><radialGradient id="radial-gradient" cx="-511.12" cy="3584.82" r="115.84" gradientTransform="matrix(0.62, 0.82, -0.82, 0.62, 150.02, -196.76)" gradientUnits="userSpaceOnUse"><stop offset="0.16" stop-color="#b8e7f0"/><stop offset="0.54" stop-color="#97dcea"/><stop offset="0.75" stop-color="#8bd8e7"/><stop offset="0.76" stop-color="#8ad8e7"/><stop offset="1" stop-color="#93dbe9"/></radialGradient><filter id="luminosity-noclip-2" x="-3218.93" y="1554.48" width="115.69" height="91.62" filterUnits="userSpaceOnUse" color-interpolation-filters="sRGB"><feFlood flood-color="#fff" result="bg"/><feBlend in="SourceGraphic" in2="bg"/></filter><mask id="mask-2" x="207.15" y="216.78" width="115.69" height="91.62" maskUnits="userSpaceOnUse"><g class="cls-70"/></mask><radialGradient id="radial-gradient-2" cx="-511.43" cy="3585.63" r="116.47" xlink:href="#radial-gradient"/><filter id="luminosity-noclip-3" x="-3374.04" y="1566.23" width="120.39" height="98.78" filterUnits="userSpaceOnUse" color-interpolation-filters="sRGB"><feFlood flood-color="#fff" result="bg"/><feBlend in="SourceGraphic" in2="bg"/></filter><mask id="mask-3" x="52.03" y="228.53" width="120.39" height="98.78" maskUnits="userSpaceOnUse"><g class="cls-69"/></mask><radialGradient id="radial-gradient-3" cx="3021.35" cy="-2247.3" r="103.2" gradientTransform="matrix(-0.44, 0.92, 0.92, 0.44, 43.01, -186.27)" xlink:href="#radial-gradient"/><filter id="luminosity-noclip-4" x="-3342.12" y="1566.16" width="88.46" height="97.63" filterUnits="userSpaceOnUse" color-interpolation-filters="sRGB"><feFlood flood-color="#fff" result="bg"/><feBlend in="SourceGraphic" in2="bg"/></filter><mask id="mask-4" x="83.96" y="228.45" width="88.46" height="97.63" maskUnits="userSpaceOnUse"><g class="cls-68"/></mask><radialGradient id="radial-gradient-4" cx="3021.61" cy="-2245.83" r="102.31" gradientTransform="matrix(-0.44, 0.92, 0.92, 0.44, 43.01, -186.27)" xlink:href="#radial-gradient"/><filter id="luminosity-noclip-5" x="-3235.31" y="1447.08" width="162.78" height="116.25" filterUnits="userSpaceOnUse" color-interpolation-filters="sRGB"><feFlood flood-color="#fff" result="bg"/><feBlend in="SourceGraphic" in2="bg"/></filter><mask id="mask-5" x="190.77" y="109.38" width="162.78" height="116.25" maskUnits="userSpaceOnUse"><g class="cls-67"/></mask><radialGradient id="radial-gradient-5" cx="-3181.2" cy="1098.54" r="133.69" gradientTransform="matrix(1.02, -0.1, 0.1, 1.02, -7.9, 1.44)" xlink:href="#radial-gradient"/><filter id="luminosity-noclip-6" x="-3235.31" y="1469.72" width="150.5" height="93.61" filterUnits="userSpaceOnUse" color-interpolation-filters="sRGB"><feFlood flood-color="#fff" result="bg"/><feBlend in="SourceGraphic" in2="bg"/></filter><mask id="mask-6" x="190.77" y="132.02" width="150.5" height="93.61" maskUnits="userSpaceOnUse"><g class="cls-66"/></mask><radialGradient id="radial-gradient-6" cx="-3180.48" cy="1099.69" r="132.49" gradientTransform="matrix(1.02, -0.1, 0.1, 1.02, -7.9, 1.44)" xlink:href="#radial-gradient"/><filter id="luminosity-noclip-7" x="-3426.45" y="1485.88" width="177.66" height="84.41" filterUnits="userSpaceOnUse" color-interpolation-filters="sRGB"><feFlood flood-color="#fff" result="bg"/><feBlend in="SourceGraphic" in2="bg"/></filter><mask id="mask-7" x="-0.37" y="148.18" width="177.66" height="84.41" maskUnits="userSpaceOnUse"><g class="cls-65"/></mask><radialGradient id="radial-gradient-7" cx="3622.42" cy="943.15" r="132.67" gradientTransform="matrix(-1.01, 0.15, 0.15, 1.01, 154.6, -21.05)" xlink:href="#radial-gradient"/><filter id="luminosity-noclip-8" x="-3405.79" y="1491" width="157.01" height="79.29" filterUnits="userSpaceOnUse" color-interpolation-filters="sRGB"><feFlood flood-color="#fff" result="bg"/><feBlend in="SourceGraphic" in2="bg"/></filter><mask id="mask-8" x="20.28" y="153.3" width="157.01" height="79.29" maskUnits="userSpaceOnUse"><g class="cls-64"/></mask><radialGradient id="radial-gradient-8" cx="3623.19" cy="943.09" r="133.61" gradientTransform="matrix(-1.01, 0.15, 0.15, 1.01, 154.6, -21.05)" xlink:href="#radial-gradient"/><radialGradient id="radial-gradient-9" cx="-3175.59" cy="1478.36" r="13.52" gradientTransform="translate(1.02 -8.11) scale(1.02 1.02)" gradientUnits="userSpaceOnUse"><stop offset="0.44" stop-color="#f8a2a2"/><stop offset="0.99" stop-color="#fff"/></radialGradient><radialGradient id="radial-gradient-10" cx="-3202.63" cy="1455.18" r="19.94" xlink:href="#radial-gradient-9"/><radialGradient id="radial-gradient-11" cx="-3154.75" cy="1447.39" r="15.63" xlink:href="#radial-gradient-9"/><radialGradient id="radial-gradient-12" cx="-3199.83" cy="1450.52" r="14.87" gradientTransform="translate(1.02 -8.11) scale(1.02 1.02)" gradientUnits="userSpaceOnUse"><stop offset="0.33" stop-color="#fff"/><stop offset="1" stop-color="#e5c3a7"/></radialGradient><linearGradient id="linear-gradient" x1="-3255.14" y1="1501.25" x2="-3240.18" y2="1501.25" gradientUnits="userSpaceOnUse"><stop offset="0.07" stop-color="#f1ded0"/><stop offset="0.46" stop-color="#fff"/><stop offset="1" stop-color="#e5c3a7"/></linearGradient><radialGradient id="radial-gradient-13" cx="-3156.5" cy="1449.03" r="16.35" xlink:href="#radial-gradient-12"/><linearGradient id="linear-gradient-2" x1="-3228.03" y1="1481.53" x2="-3228.03" y2="1464.55" gradientUnits="userSpaceOnUse"><stop offset="0.12" stop-color="#6bc3cd"/><stop offset="0.31" stop-color="#488ba5"/><stop offset="0.48" stop-color="#2d6187"/><stop offset="0.61" stop-color="#1d4875"/><stop offset="0.69" stop-color="#173e6e"/></linearGradient><linearGradient id="linear-gradient-3" x1="-3228.03" y1="1481.7" x2="-3228.03" y2="1464.55" xlink:href="#linear-gradient-2"/><linearGradient id="linear-gradient-4" x1="-3272.3" y1="1483.82" x2="-3272.3" y2="1466.85" xlink:href="#linear-gradient-2"/><linearGradient id="linear-gradient-5" x1="-3272.3" y1="1484" x2="-3272.3" y2="1466.84" xlink:href="#linear-gradient-2"/><radialGradient id="radial-gradient-14" cx="-2196.68" cy="1281.1" r="6.58" gradientTransform="translate(-346.87 -0.83) scale(1.31 1.16)" xlink:href="#radial-gradient-9"/><radialGradient id="radial-gradient-15" cx="2948.28" cy="1283.92" r="6.35" gradientTransform="matrix(-1.31, 0, 0, 1.16, 573.42, -0.83)" xlink:href="#radial-gradient-9"/></defs><title>fairy_02</title><g class="cls-1"><g id="Layer_1" data-name="Layer 1"><g class="cls-2"><path class="cls-3" d="M-3203.42,1555c19.28-1,39.28,4.7,56.73,12.35,19.68,8.62,37.52,21.07,53.1,35.81,5.19,4.91,28.63,25,23.76,34.48-4.39,8.55-29.06,8.74-37.27,8.33-16.3-.81-32.36-6.33-47-13.34a174.52,174.52,0,0,1-47.75-33.75c-3.36-3.36-6.59-6.86-9.64-10.51-4.81-5.77-7.29-7.16-5.41-14.09C-3215,1567.56-3208.09,1560.15-3203.42,1555Z" transform="translate(3426.07 -1337.7)"/></g><path class="cls-4" d="M-3179.74,1564c44.66,5.69,82.25,40.53,110.54,72.7C-3097.85,1605.71-3135.64,1570-3179.74,1564Z" transform="translate(3426.07 -1337.7)"/><path class="cls-4" d="M-3178.37,1573.4c36.52,19.06,74.92,38.38,107.89,63.26C-3104.14,1612.49-3142.26,1593.59-3178.37,1573.4Z" transform="translate(3426.07 -1337.7)"/><path class="cls-4" d="M-3072.38,1637.11c-41.57-6.7-79.52-27.95-111.37-54.69C-3151.52,1608.18-3113.5,1629.73-3072.38,1637.11Z" transform="translate(3426.07 -1337.7)"/><path class="cls-4" d="M-3071.34,1638.81c-45,6.45-91.7-21.48-126.59-46.21C-3162.63,1616.41-3116.15,1644.36-3071.34,1638.81Z" transform="translate(3426.07 -1337.7)"/><g class="cls-5"><g class="cls-6"><path class="cls-7" d="M-3183.25,1591c8.34-6.59,10.1-12.63,13.77-21.66,2.35-5.78,1.82-6,9.37-4.67,12.93,2.35,24.57,9.65,36.29,14.89-20.44-12.9-44-22.14-68.21-24.22-2.64-.23-8.72-1.57-11.33-0.31-4.51,2.18-15.84,18.92-15.57,23.61,0.46,8,19.42,22.78,25.16,27.81a176.89,176.89,0,0,0,29.56,20.92c18.31,10.33,39.65,18.72,61,18.75,0,0-30.59-8.12-33.32-9.23a135.14,135.14,0,0,1-29.77-16.62c-4.81-3.6-27.88-21.82-16.93-29.26C-3163,1575-3196.73,1600.14-3183.25,1591Z" transform="translate(3426.07 -1337.7)"/></g></g><path class="cls-8" d="M-3077.45,1641.59c-30.84,12.63-66.92-3-93.42-18.38C-3144,1637.71-3108.34,1653.17-3077.45,1641.59Z" transform="translate(3426.07 -1337.7)"/><g class="cls-9"><path class="cls-10" d="M-3271.32,1566.23c-15.51,2.38-30.54,9.79-43.48,18.37a160.84,160.84,0,0,0-37.81,35.54c-5.07,6.53-23.85,28.53-21.17,38.62,2.34,8.83,20.9,6,27.74,5.08,14.81-1.95,28.81-9.48,40.89-17.92a154.62,154.62,0,0,0,39.25-39.81c2.36-3.48,4.58-7.08,6.62-10.76,3.66-6.61,6-8.77,2.73-15.19C-3259.35,1574.72-3266.44,1569.8-3271.32,1566.23Z" transform="translate(3426.07 -1337.7)"/></g><path class="cls-4" d="M-3290.29,1578.25c-37.29,13.62-63.46,50.33-83,82.83C-3354.39,1628-3328.11,1591.21-3290.29,1578.25Z" transform="translate(3426.07 -1337.7)"/><path class="cls-4" d="M-3289.8,1586.65c-27.78,24-57.54,47.1-82.42,74.17C-3348,1633.23-3318.13,1609.82-3289.8,1586.65Z" transform="translate(3426.07 -1337.7)"/><path class="cls-4" d="M-3370.48,1660.87c34.51-14,63.36-39.09,87-67.34C-3306.39,1622.46-3335.57,1647.67-3370.48,1660.87Z" transform="translate(3426.07 -1337.7)"/><path class="cls-4" d="M-3371.08,1662.52c40.06-3.39,75-35.63,101.69-62.67C-3295.32,1627.58-3330.85,1660-3371.08,1662.52Z" transform="translate(3426.07 -1337.7)"/><g class="cls-5"><g class="cls-11"><path class="cls-12" d="M-3282.43,1601.05c-8-4-10.85-8.81-15.55-15.62-3.43-5-1.52-5.38-8.51-3.4-10.91,3.1-20.71,13-29.57,19.68,15.16-14.58,33.57-26.61,53.77-32.84,2.69-.83,7.9-3.21,10.82-2.62,4.48,0.91,15.07,12.31,16.38,15.82,2.82,7.6-9.8,22.94-14.73,29.55a156.39,156.39,0,0,1-22.46,24.21c-14.1,12.32-31.19,23.5-49.79,27.34,2,7.24,84-52,59.65-62.12C-3302.86,1590.77-3269.1,1606.6-3282.43,1601.05Z" transform="translate(3426.07 -1337.7)"/></g></g><path class="cls-8" d="M-3365.28,1663.85c28.89,4.55,57.08-15.16,77.84-32.6C-3307.65,1649.38-3336.32,1669.4-3365.28,1663.85Z" transform="translate(3426.07 -1337.7)"/><g class="cls-13"><path class="cls-14" d="M-3235.31,1533.81c19.18-35.74,58.51-60.67,95.47-74,10.42-3.77,70.27-25.92,66.78-1.06-4.53,32.29-31.45,57.45-57.44,74a201.85,201.85,0,0,1-63.26,26.57,181.7,181.7,0,0,1-18.21,3.2c-7.52.92-9.28,1.35-13.23-5.4A106,106,0,0,1-3235.31,1533.81Z" transform="translate(3426.07 -1337.7)"/></g><path class="cls-4" d="M-3212.18,1515.75c32.26-40.88,89.75-57.19,138.48-65.79C-3121.91,1459.64-3179.46,1475.72-3212.18,1515.75Z" transform="translate(3426.07 -1337.7)"/><path class="cls-4" d="M-3202,1520c40.93-24.77,83-51,127.53-68.84C-3118.67,1470.24-3160.25,1496.37-3202,1520Z" transform="translate(3426.07 -1337.7)"/><path class="cls-4" d="M-3075.21,1453.35c-31.31,37.15-75.65,62.13-121.11,77.42C-3151.28,1514.42-3107.41,1489.54-3075.21,1453.35Z" transform="translate(3426.07 -1337.7)"/><path class="cls-4" d="M-3072.89,1453.35c-20.55,48.57-76.37,77.84-121.84,97.6C-3149.88,1530.22-3094.4,1501.14-3072.89,1453.35Z" transform="translate(3426.07 -1337.7)"/><g class="cls-5"><g class="cls-15"><path class="cls-16" d="M-3187.53,1535.43c-1.3-10.4-4.88-18.36-12.11-25.74-4.6-4.69-5.82-3.95-2.67-10,6.9-13.34,27.4-21.68,39.14-29.92-23.7,11.81-45.62,28.27-62.07,49.17-10,12.71-11.36,14.82-4.21,30,3.94,8.37,5.54,14.83,15.34,13.76a180,180,0,0,0,23.23-4.13,202.69,202.69,0,0,0,45.06-17c23.43-12.15,47.07-29.33,61-52.23,0.64,0.39-26.67,25.61-29.71,27.83a156.3,156.3,0,0,1-34.15,19.23c-6.5,2.6-38.06,14.31-38.85-.94C-3191.23,1505.78-3186.54,1554.27-3187.53,1535.43Z" transform="translate(3426.07 -1337.7)"/></g></g><path class="cls-8" d="M-3073.81,1461.06c-5.61,38-43.45,64.74-74.32,81.46C-3117.61,1524.41-3081.07,1498.75-3073.81,1461.06Z" transform="translate(3426.07 -1337.7)"/><g class="cls-17"><path class="cls-18" d="M-3248.78,1535.33c-27.57-30.17-72.35-44.63-111.76-48.33-17.92-1.69-36.37-1.76-54.08,1.78-9.35,1.87-13.94,4.58-9.7,14.25,13.08,29.88,44.16,47.35,73.68,57a202,202,0,0,0,69.57,10.09c5.52-.19,11-0.6,16.51-1.29,8.88-1.12,10.15-2.34,12.38-10.85A106.42,106.42,0,0,0-3248.78,1535.33Z" transform="translate(3426.07 -1337.7)"/></g><path class="cls-4" d="M-3275.65,1523.54c-41.76-30.68-101.14-32.11-150.43-29.64C-3377.18,1490.26-3316.45,1491.56-3275.65,1523.54Z" transform="translate(3426.07 -1337.7)"/><path class="cls-4" d="M-3284.43,1530.18c-46.34-12.62-93.06-27.71-140.57-35.28C-3377.38,1501.32-3330.31,1516.38-3284.43,1530.18Z" transform="translate(3426.07 -1337.7)"/><path class="cls-4" d="M-3423.78,1496.81c40.11,27.18,88.81,40.38,136.46,45.19C-3335.16,1538.44-3384.26,1525-3423.78,1496.81Z" transform="translate(3426.07 -1337.7)"/><path class="cls-4" d="M-3426,1497.37c32.55,41.12,93.49,55.52,142.15,64.56C-3332.7,1554.1-3394.29,1539.36-3426,1497.37Z" transform="translate(3426.07 -1337.7)"/><g class="cls-5"><g class="cls-19"><path class="cls-20" d="M-3311.35,1549.85c1-11.45,6.84-20.44,15.6-27.52,3.35-2.71,10.2-5.22,9-9.92-1.76-6.7-23.07-12.89-28.71-15-6.22-2.32-12.89-4.1-19-6.41,25.43,5.51,50.25,15.79,71.13,31.48,11.49,8.64,15.58,10.57,13.34,24.91-1,6.61-2,17.46-7.56,20.44-5.83,3.15-17.59,2.17-24.16,2.37a201.25,201.25,0,0,1-49.4-4.76c-26.54-5.86-54.73-16.81-74.47-36.15-5.24,5.24,100.91,53.89,94.26,20.57C-3308.72,1520.95-3307.65,1568.35-3311.35,1549.85Z" transform="translate(3426.07 -1337.7)"/></g></g><path class="cls-8" d="M-3423.23,1504.63c16.2,34.71,58.15,50.69,92.11,60.62C-3365.34,1556.71-3408.24,1540-3423.23,1504.63Z" transform="translate(3426.07 -1337.7)"/><path class="cls-21" d="M-3180.44,1689.89c-5.47,7,1.55,12.37,0,0h0Z" transform="translate(3426.07 -1337.7)"/><path class="cls-22" d="M-3284.46,1704.2a205.5,205.5,0,0,0,19.69-35.51c-7.79-1.64-17.61-5.64-25.57-5.74-6.18-.08-2-1.74-5.37,1.78s-5,13.62-6.42,18.19c-2.63,8.39-6.31,18.36-6.35,27.2-0.07,14.28,14.31,18.75,25.14,24.46q17.25,9.1,34.06,19c0.14-3.16,1.56-7.5.92-10.49-1-4.45-6.23-8.91-9.46-12.51-8.32-9.27-16.85-18.65-26.64-26.41C-3273.34,1687.81-3272.28,1713.85-3284.46,1704.2Z" transform="translate(3426.07 -1337.7)"/><g class="cls-23"><path class="cls-24" d="M-3248.14,1741.65c-5-5.84-10.13-11.66-15.39-17.31s-14.51-11.39-18.07-17.77l-2.86-2.36q2.88-4.25,5.58-8.61,3.47-5.62,6.62-11.43c2.72-5,5.28-10.19,7.49-15.47-6.67-1.4-19.76-7.05-26.71-6-5.18.77-1.67-1.28-5,4.09-6.66,10.7-13.41,34.55-12,47,1-7.26,4.78-41.55,15.1-39.48,16.05,3.22,4.74,55.28-12.94,45.47,3.92,5.84,11.72,9,17.69,12.1-10.62-4.33-11.5-15.18,2.15-13.75,9.26,1,19,9.12,25.18,15.4,5.39,5.51,7.33,16.35,12,20.13a86.28,86.28,0,0,1,1.14-12C-3256.88,1731.53-3249,1746.07-3248.14,1741.65Z" transform="translate(3426.07 -1337.7)"/></g><path class="cls-22" d="M-3222.14,1733.39c0.23-10.66,3.13-20.93,5.52-31.25,1-4.13,5.33-14.51,4.14-19.08-3-11.33-21.4-8.72-30.4-10.2-0.7,14-.76,28.1-1.79,42.08-1,13-4,25.78-4.61,38.83-1.28,29.15.78,58-2.06,87.14-1,10.19-5,39.28,9.5,43.22,5.37,1.46,16.46-3,17.21-8.7,0.78-6-4.38-14.65-6-20.34-2-7.29-4.35-15.38-4.29-23,0.07-8.48-1.53-16.43-.26-25.51,3.39-24.3,12.47-48.55,13-73.17C-3221.91,1722.59-3222.37,1744.19-3222.14,1733.39Z" transform="translate(3426.07 -1337.7)"/><path class="cls-25" d="M-3228.35,1674.57a109.44,109.44,0,0,1-14.54-1.7c-0.5,10-.93,19.9-1.21,29.86,1.36-12.13,9-7.15,17-10.89,3.46-1.63,4.83-6.72,9.05-4.72,5.43,2.58.92,15.41-.24,18.67-2.09,5.86-10.18,23.27-17.92,22.17-5.69-.81-7.39-9.57-8.23-14.33a442.38,442.38,0,0,0-5,68.1c1.82-9.58,2.1-19.84,4.55-29.53,1.69-6.68,11.12-28,16.14-11.15,5.64,19-5.22,45.7-7.95,64.57a76.44,76.44,0,0,0-1,15.88c0.07,1.14,1.67,2,1.62,3.06s-3.7,9-4.28,7.42c0.46,1.23,3.24-1,3.5.64a27.15,27.15,0,0,0,1.2,5.32c2.49,6,3.16,13.48,4.82,19.74,1,3.59,5,11.44,2.26,14.87-1.82,2.3-14.51,2.42-16.9,1-10-6.16-4.66-28.07-3.67-37.42a229.3,229.3,0,0,0-.22-49.29,500.26,500.26,0,0,1-1.92,54.15c-1.25,12.8-4.68,43.83,13.72,42,12.91-1.3,14.53-5.61,9.82-19.19-4.83-14-6.18-28.48-7.9-41.84-2.87-22.25,7-47.5,11.26-69.29,3.9-19.77,5.52-39.59,9.85-59.44,2.66-12.19,1.86-18.13-13.76-18.57h0Z" transform="translate(3426.07 -1337.7)"/><path class="cls-26" d="M-3284.46,1704.2a20,20,0,0,1-4.68,7.13A20,20,0,0,1-3284.46,1704.2Z" transform="translate(3426.07 -1337.7)"/><path class="cls-26" d="M-3227.66,1723.51a79.07,79.07,0,0,0-4.83,7.59A10.36,10.36,0,0,1-3227.66,1723.51Z" transform="translate(3426.07 -1337.7)"/><path class="cls-22" d="M-3211.22,1762c-0.54-9.08-6.76-7.4-13.22-9.43q-2.64,12.1-5.13,24.23c-1.71,8.33-8.19,24.78-6,33.26,2.41,9.36,14.61,9.83,18.57,1.63,2.42-5,3.23-13.21,3.59-18.71,0.63-9.6,2.77-21.49,2.19-31C-3211.56,1756.26-3210.87,1767.74-3211.22,1762Z" transform="translate(3426.07 -1337.7)"/><path class="cls-26" d="M-3224.78,1807.95c-1.73,2.74-3.27,5.79-2.88,9.08C-3229.34,1813.72-3227.62,1810.15-3224.78,1807.95Z" transform="translate(3426.07 -1337.7)"/><path class="cls-26" d="M-3230,1815.88a8.52,8.52,0,0,1,1.15-8.81A28.84,28.84,0,0,0-3230,1815.88Z" transform="translate(3426.07 -1337.7)"/><path class="cls-26" d="M-3232.83,1813.58a6.67,6.67,0,0,1,1.34-7.66A21.49,21.49,0,0,0-3232.83,1813.58Z" transform="translate(3426.07 -1337.7)"/><path class="cls-26" d="M-3216.77,1809.82c-0.66,1.92-.45,3.27-2.76,3.83C-3218.57,1812.41-3217.77,1811-3216.77,1809.82Z" transform="translate(3426.07 -1337.7)"/><path class="cls-26" d="M-3213.25,1775.67a23.71,23.71,0,0,1-1.84,8.12A16.67,16.67,0,0,1-3213.25,1775.67Z" transform="translate(3426.07 -1337.7)"/><path class="cls-27" d="M-3244.56,1875.74c3.07-.87,9.08,1.29,6.47,5.41C-3241.47,1886.47-3248.1,1877.08-3244.56,1875.74Z" transform="translate(3426.07 -1337.7)"/><path class="cls-27" d="M-3237.55,1875.93c0,0.5.85,6.11,1.31,6.22C-3228.36,1884.07-3238.69,1871.73-3237.55,1875.93Z" transform="translate(3426.07 -1337.7)"/><path class="cls-27" d="M-3233.31,1875.82c0,0.53.66,5.71,1.45,5.37C-3226.55,1878.94-3233.68,1874.16-3233.31,1875.82Z" transform="translate(3426.07 -1337.7)"/><path class="cls-27" d="M-3229.83,1875c-0.08.56-.52,5.25-0.11,5.48C-3225.18,1883.08-3229.91,1871.5-3229.83,1875Z" transform="translate(3426.07 -1337.7)"/><path class="cls-27" d="M-3226.64,1874.81c-0.06.43-.26,4.93,0.27,4.77C-3222.23,1878.33-3226.68,1873.43-3226.64,1874.81Z" transform="translate(3426.07 -1337.7)"/><path class="cls-26" d="M-3237.62,1882.9c1.63-4.82-1.78-8.25-6.67-8C-3238.93,1873.34-3234.52,1878-3237.62,1882.9Z" transform="translate(3426.07 -1337.7)"/><path class="cls-26" d="M-3233.64,1882.13a11.08,11.08,0,0,0-.77-6.58C-3232.35,1877.22-3232.16,1879.72-3233.64,1882.13Z" transform="translate(3426.07 -1337.7)"/><path class="cls-26" d="M-3230.35,1874.24a6.51,6.51,0,0,1-.38,7.29A30.28,30.28,0,0,0-3230.35,1874.24Z" transform="translate(3426.07 -1337.7)"/><path class="cls-26" d="M-3227.66,1874a6.36,6.36,0,0,1-1.07,7.2A26.47,26.47,0,0,0-3227.66,1874Z" transform="translate(3426.07 -1337.7)"/><g class="cls-23"><path class="cls-24" d="M-3211.22,1762c-0.54-9.08-6.76-7.4-13.22-9.43q-2.64,12.1-5.13,24.23c-1.71,8.33-8.19,24.78-6,33.26,2.41,9.36,14.61,9.83,18.57,1.63,2.42-5,3.23-13.21,3.59-18.71,0.63-9.6,2.77-21.49,2.19-31C-3211.56,1756.26-3210.87,1767.74-3211.22,1762Zm-7.09,47.52c-0.28,2.27-4.49,8.82-7.21,5.46-2.17-2.68,4.29-5.42,3.47-7.89-0.38-1.15-6.34-1-7.87-2.54-2.56-2.51-1.73-4.18-1.78-7.22-0.07-4.27,1.93-9.31,2.78-13.5,1-5,1.63-23.9,5.5-27.21,2.71-2.32,6.63-.71,8.8,1.92,6.11,7.43-1.71,17.82-2.22,25.33-0.21,3.08,1.94,6.2,1.53,10.58-0.48,5.18-2.36,10-3,15.06h0Z" transform="translate(3426.07 -1337.7)"/></g><path class="cls-28" d="M-3316.88,1650c-3.39,1.52-2.08,5.13.62,5.27,2.5,0.13,5.15-2.83,6.59-4.58-1-2.63-5.86-1.29-7.2-.69h0Z" transform="translate(3426.07 -1337.7)"/><path class="cls-28" d="M-3330.79,1641.67c3.28,1.77,7.57-.09,10-2.49-3.15-3.2-7.62.21-10,2.49C-3330.61,1641.77-3328.51,1639.48-3330.79,1641.67Z" transform="translate(3426.07 -1337.7)"/><path class="cls-28" d="M-3304.12,1668c3.24,0.86,6.17.37,8.86-3.53C-3299,1662.35-3302.51,1665.93-3304.12,1668Z" transform="translate(3426.07 -1337.7)"/><path class="cls-29" d="M-3152.54,1628.92c-5.48-3.35.24-5.46-1.53-8.73-0.69-1.27-5-4.54-5.16-5.15-2-7.09,7.66-10.9-3.26-16-3.29-1.54-9.81.46-12.41-1.36-2.19-1.53-3.39-5.76-4.64-8.16a47.57,47.57,0,0,0-3.55-3.65c-2.81-2.7-.11-4.24-6.29-5-4.82-.6-9,1.67-14,0.59-2.44-.52-5-2.09-7.51-2.68-5.81-1.34-12.22-1.25-18.14-1.53-12.1-.58-24.89.73-36.86-0.81-2.64-.34-6.24-2.19-8.69-1.83-4.55.67-4.13,4.33-7.53,5.92a45.42,45.42,0,0,1-8.75,2.11c-10.17.93-15.16-.51-21.68,7.84-2,2.51-.81,2.42-3.63,4.72-2.67,2.17-5.93,1.06-7.11,5.36-0.94,3.43,3.29,6,2.71,9.11-0.33,1.77-3.7,2.49-4.56,3.79-2.86,4.32-3,5.24-4.14,10q4.66,3.21-1.1,5.64a13.18,13.18,0,0,0-3.08,6.12c-0.91,13.3,9-2.4,13.4,4.47,2.22,3.45-6,15.07,2.41,15.91-4-5.41,5.35-8.75,8.09-4.51,3.49,5.41-8.19,11.21,1.76,15.55,5.69,2.48,8.6-5.21,14.6-.79,3.72,2.74,3.89,8.42,6.42,11.5,3.77,4.57,5.55,5,11,2.73,2.64-1.09,4.89-6.55,8.88-3,2.94,2.61-1.05,4.72.32,7.09,5.64,9.74,13.49.07,20,.91,5.7,0.74,10,10.24,17.59,4.15,3.11-2.5,3-16.28,11.42-10.33,1.86,1.31-.27,5.08,1.39,6.4,2.63,2.09,4.84,2.61,8.34,2.8,4.58,0.25,10-.69,13.34-4.12,4.78-5,2.52-12.3,8.43-16.66,5.56-4.1,9.7-1.27,15.48-1.74,9.14-.75,6-5.55,9.44-11.55,4.39-7.74,26.63-13.22,8.65-25.06C-3157.29,1626-3138.59,1638.11-3152.54,1628.92Z" transform="translate(3426.07 -1337.7)"/><path class="cls-30" d="M-3152.54,1628.92c-4.7-3.19-.37-5-1.6-8.47-1.11-3.18-5.22-3.91-5.94-6.65-0.65-2.48,3.85-6,3.49-8.9-0.46-3.67-3.56-4.85-6.72-6-5.12-1.93-9.51.46-13.5-3.12-0.83-.75.06-2.69-0.76-3.54-1.36-1.44-3.63-2.92-4.81-4.36-1.57-1.91.18-4.13-2.16-5.82-4.65-3.36-15.37-.15-21.33-1.34a179.16,179.16,0,0,0-29.41-3.45c-10.92-.38-22.67.87-33.45-0.56-2.58-.34-4.27-2.44-7.18-1.56-3.62,1.09-3.49,4.56-6.32,6-3.75,1.89-9.22.91-13.15,1.53-4.31.68-9-.11-12.8,2.87s-2.65,6.41-5.45,9.15-8,.9-9.34,6c-0.83,3.15,3.3,5.92,2.71,8.71-1.09,5.2-15.74,9.65-6.34,16.74-4.29,3.18-10,11-4,15.2,1.82-3.66,10.44-6,11.85.24,1.11,4.93-4.72,10.62.7,14.29-4.6-6.33,7.2-10.22,9-3.68,2,7.26-7.24,11.27,5.06,15.48,7.44-16,16.05,11.45,21,13.29,8.79,3.27,10.56-11.34,18-.92,1.81,2.56-2.55,6,4.7,8,4.53,1.27,5.84-1.44,10.22-2.14,5.95-1,13.62,8.05,20.33,3.66,4.08-2.68,1.47-7.64,4.93-10.45,5.35-4.35,6.14.69,8.31,3.09,4.41,4.9,6.7,7.9,16.09,4.74,7.4-2.49,6.9-6.23,9.57-12.67,3.27-7.9,11.21-12.4,20.31-8.79,3.87,0.82,5.85-1.26,7.81-4.26,3.42-5.22.7-8.16,6.12-12.42,3.59-2.83,8.37-2.07,10.09-7.61,1.66-5.34-1.66-9.3-6-12.25h0Zm0,0c16.66,11.42-4.11,17.53-8.69,25.84-3.33,6.05-.74,9.73-9.43,10.86-6,.78-10.83-2.56-16.39,2.44-4.38,3.94-2.63,8.58-5.52,13.42-3.47,5.78-13.9,9.21-20.14,6.11-4.24-2.1-2.87-7.73-5.69-9-8.55-3.77-6.45,6.64-9.29,9.88-6.52,7.42-14.32-2.52-20-3-3.38-.26-6.55,3.81-10.42,3.64-1.87-.08-5.88-1.44-7-2.83-1.43-1.82-.45-5-1-5.65-3.42-4.49-2.61-4.36-8.66-1.53-4.56,2.13-8.37,6.21-11.84-1.72-4.36.47-2.63-6.46-5.12-9.53-7.5-9.24-11.87,6-18.93-2.63-4.62-5.63,3.41-10.11.53-14.45-2.55-3.83-11.77.25-6.63,5.33-11.94-1.1,3.42-18.39-8.28-17.67-4.59.28-8.85,7.44-9-2.57-0.07-3.94,4.46-9,6.51-9.53-8.75-7.44,5.72-12.36,6.24-18,0.25-2.71-3.24-5-2.35-8.13,1.26-4.42,4.6-3.09,7.62-5.49,4.14-3.29-.31-2.2,4.13-6.71,5.75-5.85,13.11-6.79,21-5.73,1.16-1.46,8-3,10.39-4.33,4.43-2.56,6.33-5.69,11.88-1.85,20.89,0.11,42.56-.63,62.84,4.19,5.78,1.37,14.15-1.47,19,.61s2.27,3.1,4.72,6.82l5.37,7.86c4.68,4.18,14.5-.17,18.68,5.94,3.3,4.82-2.06,9.31-.49,13.87,0.47,1.37,3.57,2.66,4.36,5,1.21,3.51-3.13,5.28,1.57,8.47h0Z" transform="translate(3426.07 -1337.7)"/><path class="cls-28" d="M-3172.25,1618.55c-4.43-2.71.1-4.3-1.18-6.73a44.75,44.75,0,0,0-3.53-3.68c-0.52-4.48,3.29-7.79-1.44-11.82-2.8-2.38-6.73-.39-9.38-1.77s-1.79-1.81-3.91-4.09c-4.34-4.66-3.51-7.35-9.83-8.81-3.23-.75-7.56.35-11.12-0.27-1.87-.32-3.84-1.3-5.77-1.68-4.66-.93-9.74-0.86-14.46-1.07-9.25-.41-18.78.32-28-0.56-8.29-.79-13.59,3.16-22.47,4.51-3,.46-6.88.31-9.42,2.44-1.62,1.36-2.07,4.61-3.07,5.46-3.94,3.32-6.33,3.26-7.92,8.57-0.53,1.77,2,3.36,1.17,5.61-0.57,1.53-4.25,2.6-5.15,4.52-1.54,3.31,1.22,5.54.71,7.17-0.8,2.54-5.87,4.6-4.92,8.33,2,8.08,6.51-3.31,10.79,2.72,1.61,2.27-5.4,11.07,1.5,11.69-3-4.09,4.19-6.8,6.25-3.12,2.72,4.84-6.57,8.87,2.78,12.17,3.48,1.23,5.75-4.55,10.48-.57,2.38,2,2.88,6.22,4.76,8.3,4.8,5.3,4,2,8.78,1.17,3-.51,3.56-3.88,7-0.53,1.25,1.2-1.47,3.87,0,5.42,5.56,5.69,7.65.34,13.3,0.34,4.27,0,8.72,6.35,13.87,3.29,3.48-2.07,1.81-7.35,5.29-8.81,6.61-2.78,3.28,3.72,6,5.63,3.52,2.49,10.29,2.49,14,.23,5.19-3.16,3.45-7.84,6.57-12.08,3.42-4.65,7.38-3.79,12.36-4.29,6.78-.68,5.46.11,8.88-6,3.05-5.43,0-2.34,4.61-6.61,0.81-.76,2.74-0.75,3.73-1.56,5.26-4.33,4.43-9.75-1.36-13.57C-3175.91,1616.31-3161.48,1625.64-3172.25,1618.55Z" transform="translate(3426.07 -1337.7)"/><path class="cls-31" d="M-3189.76,1610a74.72,74.72,0,0,1-2.9-7.4c-0.1-1.25.94-5.55,0.22-7.2-1.78-4.06-8.14-2.36-10.88-4.19-1.53-1-2.76-6.14-3.85-6.9-4.29-3-16.72-3.1-22.91-3.59-8-.63-16-0.28-24-0.64-11.11-.49-27.64,4.66-32.9,14.93-0.66,1.28,1.5,3,.84,4.73-0.47,1.23-3.27,1.81-3.81,3.34-1,2.93-.16,4.24-0.71,6.6-0.42,1.79-3.47,3.65-2.14,6.13,1.77,3.3,4.92-3,7.77.67,1.35,1.73-3.91,8.28,1.06,8.72-2.24-3.06,3.37-5.28,4.57-2.79,1.81,3.77-4.28,5.7,1,9.09,3.29,2.09,4.1-2.73,8-.68,2.81,1.46,1.6,5,3.75,6.76,5.7,4.65,6.78-2.2,12.26.51q-0.09,2-.12,4a8.19,8.19,0,0,0,5.87,2,11.77,11.77,0,0,1,5.91-2A7.37,7.37,0,0,0-3238,1645c7.46-.92,2.79-4.63,7.05-6.36,6.29-2.56,2.21,3.19,5.77,4.27,12.45,3.8,9.29-5.85,16-11,3.26-2.48,6.13-.13,9.06-1.11,5.73-1.91,2.42-3.26,5.48-7.13,3.17-4,14.66-7.29,4.84-13.77C-3192.47,1608.35-3181.8,1615.25-3189.76,1610Z" transform="translate(3426.07 -1337.7)"/><g class="cls-32"><path class="cls-30" d="M-3281,1599.2a114.77,114.77,0,0,0-30.81-2.3C-3301.76,1594.76-3290.66,1595.89-3281,1599.2Z" transform="translate(3426.07 -1337.7)"/><path class="cls-30" d="M-3280.55,1594.37a43.84,43.84,0,0,0-14-3.9A17.78,17.78,0,0,1-3280.55,1594.37Z" transform="translate(3426.07 -1337.7)"/><path class="cls-30" d="M-3273,1586.1l-6.67-4.37A9.21,9.21,0,0,1-3273,1586.1Z" transform="translate(3426.07 -1337.7)"/><path class="cls-30" d="M-3327.23,1626.08c6.85-5.06,14.57-9.82,22.77-12.33C-3312.2,1617.58-3319.58,1622.09-3327.23,1626.08Z" transform="translate(3426.07 -1337.7)"/><path class="cls-30" d="M-3318.88,1651.74c8.39-12.28,19.71-23.66,32.65-31.1C-3298.51,1629.36-3309.24,1640.2-3318.88,1651.74Z" transform="translate(3426.07 -1337.7)"/><path class="cls-30" d="M-3303.24,1667.06a224.8,224.8,0,0,1,31.43-43.5C-3282.95,1637.62-3293.18,1652.21-3303.24,1667.06Z" transform="translate(3426.07 -1337.7)"/><path class="cls-30" d="M-3286.22,1677.32c0.12-18,11.17-35.55,22.38-48.86C-3274,1642.88-3284.69,1659.3-3286.22,1677.32Z" transform="translate(3426.07 -1337.7)"/><path class="cls-30" d="M-3261.85,1637.65c-4.18,10.67-8.75,21.25-11.8,32.32C-3272,1658.71-3267.21,1647.62-3261.85,1637.65Z" transform="translate(3426.07 -1337.7)"/><path class="cls-30" d="M-3259.62,1654.58a160.56,160.56,0,0,1-5.6,24.74A157.62,157.62,0,0,1-3259.62,1654.58Z" transform="translate(3426.07 -1337.7)"/><path class="cls-30" d="M-3242.23,1646.69c-1.18,11.21-2.89,22.45-4.91,33.55A201.18,201.18,0,0,1-3242.23,1646.69Z" transform="translate(3426.07 -1337.7)"/><path class="cls-30" d="M-3234.41,1631.68c-0.21,14.58.09,29.08,0.62,43.65A173.36,173.36,0,0,1-3234.41,1631.68Z" transform="translate(3426.07 -1337.7)"/><path class="cls-30" d="M-3224.75,1639.18a439.1,439.1,0,0,1,10.12,43C-3218.7,1668.09-3222.08,1653.65-3224.75,1639.18Z" transform="translate(3426.07 -1337.7)"/><path class="cls-30" d="M-3184.66,1626.31a343.4,343.4,0,0,1,18.86,33.31A348.93,348.93,0,0,1-3184.66,1626.31Z" transform="translate(3426.07 -1337.7)"/><path class="cls-30" d="M-3180.75,1646.08a85.39,85.39,0,0,1,9.66,18.15A146.23,146.23,0,0,1-3180.75,1646.08Z" transform="translate(3426.07 -1337.7)"/><path class="cls-30" d="M-3182.12,1612.52c10,4.89,20.49,10.59,28.51,18.39C-3162.61,1624.07-3172.68,1618.7-3182.12,1612.52Z" transform="translate(3426.07 -1337.7)"/><path class="cls-30" d="M-3172.47,1609.08a31.8,31.8,0,0,1,12.42,5.29A103,103,0,0,1-3172.47,1609.08Z" transform="translate(3426.07 -1337.7)"/></g><g class="cls-5"><path class="cls-31" d="M-3179.14,1658c-9.69-9.41-6.71-23.93-7.51-36.46-0.56-8.79-6-29.42,5-33.39-4-2.28-.48-6.4-7.72-7.29-3.48-.43-7,1.61-10.54,1.32-3.22-.27-5.51-2.12-8.53-2.84-9-2.14-18.6-2.06-27.74-2.37-9.49-.32-19.62.65-29-0.53-1.43-.18-3.21-0.52-4.52-0.64-2.18-.2-3.65-1.56-6.07-0.92-3.68,1-3.92,5.72-7.35,6.08,2.44,0.85,11.73,3.56,10.75,6.75-0.79,2.6-6.79,2.21-8.13,5-0.24.5,0.8,4.43,0.21,6-0.51,1.38-4.22.93-5.39,1.46,1.64-.75,5,2.08,4.63,3.68-0.54,2.46-6.81,2.24-7.29,4.52-0.08.39,5.77,0.45,6.53,1.27,2.29,2.45-1,7.07-2.15,9.23,7-4.5,12.16-1,10.12,7.12,8.3-7,3,2.91,5.63,4.88,4.83,3.64,9.14-9.85,13,3.85,5.18-4.1,5.78-3.57,10.13-1.5,0.31,0.15,1.07,5.72,1.22,5.61,0.41-.3,1.91-3.87,2.33-3.77-0.93-.23,4.3.32,3.27,0.75,0.4-.17,1.78,3.22,2.51,2.94,2.26-.85,1.24-4.84,2.92-6.44,4.24-4,8-.71,13.38-2.72,3.75-1.41,9.94-11.63,12.85-11.9,7.56-.72,10.37,60.84,9.77,68,6.36-3.78,4.06-11.14,8.16-16.14,3.63-4.44,10.16-5.76,15.6-4.77a44.86,44.86,0,0,0-6-6.81C-3187.19,1650.21-3176.4,1660.6-3179.14,1658Z" transform="translate(3426.07 -1337.7)"/></g><g class="cls-33"><path class="cls-31" d="M-3284,1619c2-1.7-1.87.07-2.26,0.19-4.35,1.32-8.85,5.12-12.52,7.66-5.92,4.11-12.1,8.55-17.24,13.62-2.34,2.31-10.82,14.22-1.66,15.13-6.37-8.7,28.11-31.85,33.68-36.6C-3279.66,1615.27-3288.68,1622.94-3284,1619Z" transform="translate(3426.07 -1337.7)"/><path class="cls-31" d="M-3216.77,1681.55a5.32,5.32,0,0,0-.31-1.84C-3217,1680.34-3216.86,1680.94-3216.77,1681.55Z" transform="translate(3426.07 -1337.7)"/><path class="cls-31" d="M-3322.57,1604.72c3.87,8.79-4.28,6.53-6.87,14.62a88.13,88.13,0,0,1,19.58-9.5c3-1,23.92-4,24.43-5.49,1.92-5.73-35.92.06-37.15,0.38C-3321.36,1607.46-3292.07,1596.88-3322.57,1604.72Z" transform="translate(3426.07 -1337.7)"/><path class="cls-31" d="M-3176.15,1608.62c5.52,0.92,10.91,3.05,16.09,5.1-0.14-1.86,2.56-4.85,3.12-6.53-6.22.54-14.85-1-20.85,0.89q0.29,0.92,1.64.55h0Z" transform="translate(3426.07 -1337.7)"/><path class="cls-31" d="M-3284.46,1608.39a167.88,167.88,0,0,0-33,14.09c-4,2.17-25.19,12.82-13.4,19.13,8.25-10.7,20.49-18.23,32.06-24.83,4.09-2.33,8.95-4.14,12.77-6.88,0.57-.41,4.28-2.2,1.61-1.51C-3304.44,1614.27-3276.17,1606.27-3284.46,1608.39Z" transform="translate(3426.07 -1337.7)"/><path class="cls-31" d="M-3216.77,1683.45l0.61,1.88Q-3216.91,1678.7-3216.77,1683.45Z" transform="translate(3426.07 -1337.7)"/><path class="cls-31" d="M-3177.07,1614.83c9.25,4.79,18.12,10.33,26.92,15.88-2.92-2.5-3.3-4.81-4.94-7.09q2.72-4.15-3.3-4.29-3.06-1.26-6.17-2.37c-1.1-.4-15.33-3.65-15.6-4.12a10.07,10.07,0,0,0,3.09,2h0Z" transform="translate(3426.07 -1337.7)"/><path class="cls-31" d="M-3275,1624.47c-10.56,5.73-19.57,14.13-27.3,23.24-2.44,2.87-8,7.93-8.86,11.66-0.66,2.91,1.43,10.16,6.89,8.56,1.72-.5,6.51-12,7.81-14,2.9-4.44,6.09-8.7,9.36-12.87,3.85-4.91,11.51-10.93,13.63-17,0.31-.89-1.93.59-1.53,0.34C-3291.33,1633.32-3266.67,1619.42-3275,1624.47Z" transform="translate(3426.07 -1337.7)"/><path class="cls-31" d="M-3183.51,1636.65c3.37,5.85,6.18,12.05,9,18.18,1,2.17,6.2,17,9.93,9.24,0.51-1.06-18.2-31-20.13-30.07-0.32.15,1.45,3.1,1.19,2.65h0Z" transform="translate(3426.07 -1337.7)"/><path class="cls-31" d="M-3181.21,1624.94q10.21,13.59,20.44,27.17c1.57-4.85,10.13-4.31,13.28-8.85-8.55-2.07-16.24-7.08-23.31-12.13-1.29-.92-10.55-9.56-12-8.88-0.35.16,2.05,3.24,1.64,2.69h0Z" transform="translate(3426.07 -1337.7)"/><path class="cls-31" d="M-3249,1634.12c-6.41,1.24-8.8,19.93-9.85,24.69-1.46,6.64-2.65,13.34-3.74,20-1,5.95-2.1,11.71,7,9.75,13.33-2.87,10.51-55.25,6.6-54.49h0Z" transform="translate(3426.07 -1337.7)"/><path class="cls-31" d="M-3237.55,1636.42c-4.68,7.78-4.51,20.2-5.45,28.95-1.05,9.74-6,26,9,24.91-3-12.41-2.53-25.56-2.2-38.22,0-1.86.23-18.34-1.39-15.64h0Z" transform="translate(3426.07 -1337.7)"/><path class="cls-31" d="M-3259.85,1631.37c-9.4,8.27-15.13,21.36-19.56,32.78-1.17,3-5.67,11.51-4.71,14.84a4.34,4.34,0,0,0,4.64,3.39c4.42-.52,2.56-2.8,3.85-6.34,4.23-11.61,5.23-23.25,11.12-34.55,0.71-1.36,7.44-12.16,4.65-10.12C-3271.52,1641.63-3253.29,1626.56-3259.85,1631.37Z" transform="translate(3426.07 -1337.7)"/><path class="cls-31" d="M-3287,1596.21c-0.28-.09,4.74,1.7,5.28,1,0.71-.86-11.52-5.2-12.35-5.45-3.74-1.11-9.14-3.3-12.94-2.79l-4.74-.49a11.47,11.47,0,0,1-2,5.79c8.85-.83,18.22-0.78,26.77,1.9h0Z" transform="translate(3426.07 -1337.7)"/><path class="cls-31" d="M-3223.52,1644.47c1.84,9.62,4.18,19.15,6.43,28.68,2.41,10.2,2.48,16.86,15,14.48-3.77-10.82-7.63-21.62-11.92-32.25-1.82-4.5-3.57-11.81-6.94-15.47-4.81-5.24-3.72-1.37-2.58,4.56C-3221.62,1654.36-3226.72,1627.82-3223.52,1644.47Z" transform="translate(3426.07 -1337.7)"/></g><path class="cls-34" d="M-3311.48,1620.11c0.54,2-.54-2,0,0h0Z" transform="translate(3426.07 -1337.7)"/><path class="cls-34" d="M-3315.51,1624.27c0.54,1.94-.54-2,0,0h0Z" transform="translate(3426.07 -1337.7)"/><path class="cls-34" d="M-3322.53,1626.79c0.51,2.11-.57-2,0,0C-3322.45,1627.11-3322.61,1626.49-3322.53,1626.79Z" transform="translate(3426.07 -1337.7)"/><path class="cls-34" d="M-3320.46,1631.39c0.53,2-.56-2,0,0C-3320.38,1631.7-3320.54,1631.09-3320.46,1631.39Z" transform="translate(3426.07 -1337.7)"/><path class="cls-34" d="M-3316.09,1631.28c0.53,1.92-.51-1.94,0,0C-3316,1631.58-3316.17,1631-3316.09,1631.28Z" transform="translate(3426.07 -1337.7)"/><path class="cls-34" d="M-3308,1645.62h0Z" transform="translate(3426.07 -1337.7)"/><path class="cls-34" d="M-3304.92,1648.14c0.54,2-.56-2,0,0C-3304.84,1648.45-3305,1647.84-3304.92,1648.14Z" transform="translate(3426.07 -1337.7)"/><path class="cls-34" d="M-3300.09,1654.93c0.54,2-.55-2,0,0h0Z" transform="translate(3426.07 -1337.7)"/><path class="cls-34" d="M-3293,1658.19c0.53,2-.55-2,0,0h0Z" transform="translate(3426.07 -1337.7)"/><path class="cls-34" d="M-3287.61,1659.56c0.53,1.95-.51-1.94,0,0h0Z" transform="translate(3426.07 -1337.7)"/><path class="cls-34" d="M-3280.43,1664.8c0.53,2-.56-2,0,0C-3280.35,1665.11-3280.52,1664.5-3280.43,1664.8Z" transform="translate(3426.07 -1337.7)"/><path class="cls-34" d="M-3280.68,1671.38c0.53,2-.55-2,0,0C-3280.6,1671.68-3280.76,1671.07-3280.68,1671.38Z" transform="translate(3426.07 -1337.7)"/><path class="cls-34" d="M-3281.25,1676.2c0.53,1.94-.52-2,0,0C-3281.17,1676.51-3281.33,1675.9-3281.25,1676.2Z" transform="translate(3426.07 -1337.7)"/><path class="cls-34" d="M-3273.43,1671.84c0.53,2-.52-2,0,0h0Z" transform="translate(3426.07 -1337.7)"/><path class="cls-34" d="M-3268.95,1669.65c0.53,2-.55-2,0,0C-3268.87,1670-3269,1669.34-3268.95,1669.65Z" transform="translate(3426.07 -1337.7)"/><path class="cls-34" d="M-3255.57,1671.82c0.54,2-.55-2,0,0h0Z" transform="translate(3426.07 -1337.7)"/><path class="cls-34" d="M-3261.24,1676.29c0.54,1.91-.5-1.93,0,0C-3261.15,1676.6-3261.32,1676-3261.24,1676.29Z" transform="translate(3426.07 -1337.7)"/><path class="cls-34" d="M-3254.23,1677.81c0.53,2-.51-1.95,0,0h0Z" transform="translate(3426.07 -1337.7)"/><path class="cls-34" d="M-3258,1679.19c0.53,1.93-.49-1.92,0,0C-3257.94,1679.5-3258.11,1678.88-3258,1679.19Z" transform="translate(3426.07 -1337.7)"/><path class="cls-34" d="M-3261.71,1681.84c0.54,1.94-.53-2,0,0h0Z" transform="translate(3426.07 -1337.7)"/><path class="cls-34" d="M-3253.2,1682.41c0.54,1.91-.5-1.92,0,0C-3253.12,1682.71-3253.28,1682.1-3253.2,1682.41Z" transform="translate(3426.07 -1337.7)"/><path class="cls-34" d="M-3249.4,1676.89c0.54,2-.55-2,0,0h0Z" transform="translate(3426.07 -1337.7)"/><path class="cls-34" d="M-3244.68,1675.4c0.51,2-.55-2,0,0C-3244.61,1675.7-3244.77,1675.09-3244.68,1675.4Z" transform="translate(3426.07 -1337.7)"/><path class="cls-34" d="M-3238.82,1676.09h0Z" transform="translate(3426.07 -1337.7)"/><path class="cls-34" d="M-3235,1678.85c0.52,1.95-.5-2,0,0C-3234.95,1679.15-3235.11,1678.54-3235,1678.85Z" transform="translate(3426.07 -1337.7)"/><path class="cls-34" d="M-3242.5,1682.41c0.55,1.94-.54-2,0,0h0Z" transform="translate(3426.07 -1337.7)"/><path class="cls-34" d="M-3238.25,1685c0.55,2-.55-2,0,0h0Z" transform="translate(3426.07 -1337.7)"/><path class="cls-34" d="M-3233.19,1687.23c0.5,2-.53-2,0,0C-3233.11,1687.54-3233.27,1686.92-3233.19,1687.23Z" transform="translate(3426.07 -1337.7)"/><path class="cls-34" d="M-3224.33,1673.76c0.53,2-.52-2,0,0h0Z" transform="translate(3426.07 -1337.7)"/><path class="cls-34" d="M-3218.7,1673.33c0.54,2-.53-2,0,0h0Z" transform="translate(3426.07 -1337.7)"/><path class="cls-34" d="M-3209,1681.84c0.53,2-.54-2,0,0h0Z" transform="translate(3426.07 -1337.7)"/><path class="cls-34" d="M-3206.86,1684.36c0.53,2-.54-2,0,0h0Z" transform="translate(3426.07 -1337.7)"/><path class="cls-34" d="M-3201.34,1682.29c0.52,2-.54-2,0,0C-3201.26,1682.6-3201.42,1682-3201.34,1682.29Z" transform="translate(3426.07 -1337.7)"/><path class="cls-34" d="M-3199,1678.73c0.53,2-.57-2,0,0C-3199,1679-3199.12,1678.43-3199,1678.73Z" transform="translate(3426.07 -1337.7)"/><path class="cls-34" d="M-3207.44,1673.56c0.54,2-.56-2,0,0h0Z" transform="translate(3426.07 -1337.7)"/><path class="cls-34" d="M-3199.27,1672.41c0.52,2.06-.57-2,0,0C-3199.19,1672.71-3199.35,1672.11-3199.27,1672.41Z" transform="translate(3426.07 -1337.7)"/><path class="cls-34" d="M-3172.82,1652.65c0.54,2-.58-2,0,0C-3172.74,1653-3172.91,1652.34-3172.82,1652.65Z" transform="translate(3426.07 -1337.7)"/><path class="cls-34" d="M-3169.26,1656.67c0.53,1.91-.5-1.93,0,0C-3169.18,1657-3169.34,1656.36-3169.26,1656.67Z" transform="translate(3426.07 -1337.7)"/><path class="cls-34" d="M-3170.87,1660.35c0.54,2-.53-2,0,0h0Z" transform="translate(3426.07 -1337.7)"/><path class="cls-34" d="M-3166.15,1661.84c0.51,2-.55-2,0,0C-3166.08,1662.15-3166.24,1661.53-3166.15,1661.84Z" transform="translate(3426.07 -1337.7)"/><path class="cls-34" d="M-3169.49,1663.56c0.52,2-.55-2,0,0C-3169.41,1663.87-3169.58,1663.25-3169.49,1663.56Z" transform="translate(3426.07 -1337.7)"/><path class="cls-34" d="M-3162.48,1646c0.53,2-.56-2,0,0C-3162.39,1646.29-3162.56,1645.68-3162.48,1646Z" transform="translate(3426.07 -1337.7)"/><path class="cls-34" d="M-3159,1642.32h0Z" transform="translate(3426.07 -1337.7)"/><path class="cls-34" d="M-3153.51,1642.42c0.54,2-.54-2,0,0h0Z" transform="translate(3426.07 -1337.7)"/><path class="cls-34" d="M-3149.26,1640.47c0.52,2-.54-2,0,0h0Z" transform="translate(3426.07 -1337.7)"/><path class="cls-34" d="M-3149.95,1637.25c0.53,1.94-.51-1.94,0,0C-3149.86,1637.56-3150,1637-3149.95,1637.25Z" transform="translate(3426.07 -1337.7)"/><path class="cls-34" d="M-3153.74,1634.26c0.55,2-.55-2,0,0h0Z" transform="translate(3426.07 -1337.7)"/><path class="cls-34" d="M-3150.4,1632.2c0.53,2-.55-2,0,0h0Z" transform="translate(3426.07 -1337.7)"/><path class="cls-34" d="M-3160.76,1619.35c0.54,1.95-.52-1.95,0,0C-3160.68,1619.66-3160.85,1619.05-3160.76,1619.35Z" transform="translate(3426.07 -1337.7)"/><path class="cls-34" d="M-3159.39,1616.25c0.52,1.93-.5-1.93,0,0C-3159.3,1616.56-3159.47,1615.94-3159.39,1616.25Z" transform="translate(3426.07 -1337.7)"/><path class="cls-34" d="M-3164.9,1603.27c0.53,1.9-.5-1.93,0,0C-3164.82,1603.58-3165,1603-3164.9,1603.27Z" transform="translate(3426.07 -1337.7)"/><path class="cls-34" d="M-3160,1603c0.53,2-.55-2,0,0h0Z" transform="translate(3426.07 -1337.7)"/><path class="cls-34" d="M-3161.69,1608.79c0.53,1.91-.51-1.94,0,0C-3161.6,1609.09-3161.77,1608.48-3161.69,1608.79Z" transform="translate(3426.07 -1337.7)"/><path class="cls-34" d="M-3212.69,1678.71c0.51,2-.55-2,0,0C-3212.61,1679-3212.77,1678.4-3212.69,1678.71Z" transform="translate(3426.07 -1337.7)"/><path class="cls-34" d="M-3291.06,1661.17c0.54,2-.54-2,0,0h0Z" transform="translate(3426.07 -1337.7)"/><path class="cls-34" d="M-3288.64,1665c0.54,2-.55-2,0,0h0Z" transform="translate(3426.07 -1337.7)"/><path class="cls-34" d="M-3307,1656.3c0.53,1.93-.51-1.94,0,0C-3306.91,1656.61-3307.08,1656-3307,1656.3Z" transform="translate(3426.07 -1337.7)"/><path class="cls-34" d="M-3303.44,1657.93c0.55,2-.57-2,0,0C-3303.36,1658.24-3303.53,1657.63-3303.44,1657.93Z" transform="translate(3426.07 -1337.7)"/><path class="cls-34" d="M-3305.17,1662.87c0.53,2-.57-2,0,0C-3305.08,1663.18-3305.25,1662.57-3305.17,1662.87Z" transform="translate(3426.07 -1337.7)"/><path class="cls-34" d="M-3317.82,1636.57c0.54,2-.53-2,0,0h0Z" transform="translate(3426.07 -1337.7)"/><path class="cls-34" d="M-3323.91,1632.66c0.54,2-.54-2,0,0h0Z" transform="translate(3426.07 -1337.7)"/><path class="cls-34" d="M-3327.47,1634.39c0.53,1.93-.51-1.94,0,0C-3327.39,1634.69-3327.55,1634.08-3327.47,1634.39Z" transform="translate(3426.07 -1337.7)"/><path class="cls-22" d="M-3170.17,1681c0-13.92-8.18-15.71-14.93-26.2-3.84-6-2.48-13.56-2.64-20.52-0.57-25.44-4.45-50.48-3.84-76,0.52-21.95,1.2-45.2-27.78-40.3-3.1.52-8.45,3.14-11.73,2.41-3.55-.79-3.71-4.18-6-5.09-3.73-1.48-12.85,1.09-16.93,1.44,4,9.86-10.1,7.11-15.23,7.29-6.72.23-8.78,1.51-13.66,6-9.78,8.94-18,20.73-28.91,28.26-6-11.41-15.8-26.5-15-40,0.5-8.51,1.88-9.62-.49-17.64-0.61-2.08-1.12-12.4-3.78-11.8-4.67,1-1.52,10.82-1.8,13.09-0.75,6.24-1.22,5.44-7.08,7.43-6.79,2.31-13.84,3.69-20.57,6.29-2.22.86-20.66,10.93-11.83,10.61,1.22-.77-7.71,5.63-3.84,5.21-7.23,5,7.93,3.94,10,3.52,4.27-.88,8.85-0.92,13-2,4-1,8.89-5.08,12.83-5.2,7.15-.22,5.87,3.33,7,10.19a169.34,169.34,0,0,0,4.46,19.53c3,10.24,7.65,28.22,20.46,19s21.49-23.41,34.42-32.8c-0.12,2.15,0,4.42.07,6.55,5.26-13.21,25.19-10.71,33.35-2,8.52-11.73,31.61-14.42,34.48,2.72,1.74,10.39.56,22,1,32.68,0.79,21,4,40,8.6,60.42,2.64,11.65.26,23.18,2.05,34.85,2.56,16.67,5.29-6.41,6.65-6,9.5,2.56,4.87,30.23,9.33,30.56-0.39,0,4.78-18.29,4.9-20.07,0.33,1.59,1.91,5.82,4,5.82C-3168,1689.27-3170.17,1680.89-3170.17,1681Z" transform="translate(3426.07 -1337.7)"/><path class="cls-26" d="M-3333.14,1507a16.36,16.36,0,0,0-3.83,6.73A6.24,6.24,0,0,1-3333.14,1507Z" transform="translate(3426.07 -1337.7)"/><path class="cls-26" d="M-3347.08,1521.38c4.55-3.24,7.35-7.17,13.64-5.21C-3334.51,1516.12-3348,1519.56-3347.08,1521.38Z" transform="translate(3426.07 -1337.7)"/><path class="cls-26" d="M-3344.94,1513.26c-3,1.55-4.42,4.61-6.9,7C-3351.8,1520.23-3344.94,1511.54-3344.94,1513.26Z" transform="translate(3426.07 -1337.7)"/><path class="cls-26" d="M-3349.23,1516.48a163.21,163.21,0,0,0-23.15,9.81A52.47,52.47,0,0,1-3349.23,1516.48Z" transform="translate(3426.07 -1337.7)"/><path class="cls-26" d="M-3354,1522.46c-7.06,2.9-14.24,5.5-21.16,8.73C-3369,1526.77-3361.36,1524-3354,1522.46Z" transform="translate(3426.07 -1337.7)"/><path class="cls-26" d="M-3354.75,1524.29c-4.74,8.31-15.56,3.66-20.69,11,2.52-5.28,12.88-6.56,17.59-7.06,0.19-.31,2.47-3.24,3.1-4C-3355.19,1525.06-3355.33,1525-3354.75,1524.29Z" transform="translate(3426.07 -1337.7)"/><path class="cls-26" d="M-3206.66,1532.56a428.66,428.66,0,0,1,1.23,43.5C-3206.57,1561.63-3207,1547-3206.66,1532.56Z" transform="translate(3426.07 -1337.7)"/><path class="cls-26" d="M-3312.13,1557.76a7.24,7.24,0,0,1,1.61,6.74Q-3311.37,1561.15-3312.13,1557.76Z" transform="translate(3426.07 -1337.7)"/><path class="cls-26" d="M-3274,1544.2c0-1.41-.6-2.37.2-3.81C-3273.14,1541.91-3273.84,1542.8-3274,1544.2Z" transform="translate(3426.07 -1337.7)"/><path class="cls-26" d="M-3253.46,1519.36a9,9,0,0,1,.54,6.14A15.69,15.69,0,0,1-3253.46,1519.36Z" transform="translate(3426.07 -1337.7)"/><path class="cls-26" d="M-3236.55,1516.35a13.39,13.39,0,0,1,.6,6.95A13.32,13.32,0,0,1-3236.55,1516.35Z" transform="translate(3426.07 -1337.7)"/><path class="cls-35" d="M-3156.68,1356.41a7.89,7.89,0,0,0,1.17-1.21A13.35,13.35,0,0,0-3156.68,1356.41Z" transform="translate(3426.07 -1337.7)"/><path class="cls-36" d="M-3156.68,1356.41a7.89,7.89,0,0,0,1.17-1.21A13.35,13.35,0,0,0-3156.68,1356.41Z" transform="translate(3426.07 -1337.7)"/><g class="cls-23"><path class="cls-24" d="M-3375.45,1535.32c-1.58.35-.85,1.84,0,0C-3375.59,1535.36-3375.61,1535.68-3375.45,1535.32Z" transform="translate(3426.07 -1337.7)"/><path class="cls-24" d="M-3372.38,1524.29l-3,.58c0.33,2.4,4.77.17,1.71,2.25a179.27,179.27,0,0,1,19.36-9.42,72,72,0,0,0-18.09,6.59h0Z" transform="translate(3426.07 -1337.7)"/><path class="cls-24" d="M-3372.23,1528.73a19.8,19.8,0,0,1-4.9,2.24c-0.09-.71,18.66-7.11,22.07-8.05-5.87,1-12,2.75-17.17,5.81C-3374.27,1530-3365.33,1524.6-3372.23,1528.73Z" transform="translate(3426.07 -1337.7)"/><path class="cls-24" d="M-3325.62,1535.32c2.55,6.88,6.06,13.3,9.17,19.92,0.65,1.39,4.23,13.06,5.27,13.34-4.43-1.18,15.71-26,15.65-25.87-5.12,5.24-10.21,11.4-16.28,15.59-8.09-15.28-17-29.83-13.14-47.16-1,3.69-4,6.67-4.64,10.21-0.73,4.05,2.71,10.56,4,14C-3321,1547.73-3330.22,1522.91-3325.62,1535.32Z" transform="translate(3426.07 -1337.7)"/><path class="cls-24" d="M-3253.26,1527.66c0.68,3.77,1.32-6.42,1.38-5.82,4.19,0.56,10,0,13.79-2-0.58-2.27,1.51,6.81,2.64,5.5,1.47-1.69-.3-3,1.94-3.6,4.55-1.3,8.56-1.27,13.15-3.55-3,.63-8.46,3.24-11.59,2.17s-3.68-4.21-6-4.95c-4.09-1.29-11.68,1-16,1.36,3.32,7.86-6.11,7.58-11.11,7.73C-3262.53,1524.89-3253.88,1524.24-3253.26,1527.66Z" transform="translate(3426.07 -1337.7)"/><path class="cls-24" d="M-3357.82,1528.59c0.85-1,1.54-2.27,2.3-3.38-2.81,3.23-6.9,3-10.72,4.11-4.22,1.24-7.36,4.13-11.3,5.5C-3377.45,1534.95-3361.33,1528.85-3357.82,1528.59Z" transform="translate(3426.07 -1337.7)"/><path class="cls-24" d="M-3334.51,1529.81c-0.89-8-13.79.57-17.59,1.57a221,221,0,0,1-23.47,4.77c2.1,5.93,40.4-13.59,41.06-6.35C-3335,1525.67-3334.5,1529.94-3334.51,1529.81Z" transform="translate(3426.07 -1337.7)"/></g><path class="cls-37" d="M-3155.51,1355.2c8.05-7.4,22.29-7.72,31-1.25,3.59,2.66,11.42,16.77,1.37,16.55,3-.11,2.85-4.25,2.53-6.2-0.82-5-7.14-7.11-11.29-8.05-7.72-1.76-21.38-1.11-25.88,6.9,7.31-2.83,18.36-2.71,24.9,2,5.46,3.93,8.49,12.74-.06,15.47,5.68-5.85-4.12-10.94-8.89-11.33,4.39,1.26,3.05,6.74-.61,7.81,4-2.75-3.29-5.64-6.13-3.68-3.25,2.25-2.13,5.28-1.24,8.5,2.76,10,12.39,16.59,11.79,27.85-0.9,16.82-31.36,22.87-28.75,36.93,1.65,8.91,13.27,10.72,10.59,21.82-2.89,11.94-13.81,7.87-21.23,13.2-6.49,4.67-5.48,13.57-15,16.69-2.6.85-4.61,0.1-7,.63-4.7,1.06-8.42,3.77-13.58,2.91,2.16-3.82,4-11,6.67-14.13,0.94-1.1,4.89-1.67,6.55-3.6,5.61-6.51,2.72-16.8,4.1-24.49,0.87-4.85,7.57-15.43-1.25-13.12-6,1.57-9.4,12.89-9.65,17.92-1.27-12,1.11-25.11-3.38-36.56-0.19.91-.31,4.14-1.84,4.14s-1.38-6.07-1.22-7c-2.15,4-6.32,9.21-11.51,8.27,2.73-2,1.7-3.17,3.07-5.37-2.84,2.76-12.86,10.49-14,4.45-0.9,1.32-3.29,3.55-4.9,3.67-0.86.07,0.91-7.16,0.92-6.74-1.21,1.9-4.85,8.48-8,8-0.8-.13-0.17-9.23-0.31-10.11-2.87,13.18-5.86,20-13.34,5.67,0.47,2.09-.31,4.2.31,6.43-7.34-1.18-16.11-6.28-20.39-12.56,0,3.52,2.36,6.82,2.35,10,0,1.27-6.13-3.68-6.65-4.3,0.35,0.54,2.62,6,2.3,6-3,0-7.59-6.86-8.59-9-1.54,6.17-3.43,12.26-3.78,18.64-0.33,6.06,3.55,13.4,2.86,18.83-0.82-1.62-13.49-18.07-17-12.27-0.4.67,8.45,19,8.83,21.28-8.82-8.5-19-17.54-24-29-2.37-5.38-4.63-13.29-2.11-19,2.76-6.3,8.72-6.93,13.9-10.58,15.13-10.65-.09-23.09,5.86-37,6.6-15.42,24.38-10.94,36.8-7.3,6.06,1.78,13.24,5,19.7,3.47,11.16-2.67,3.7-6.06,6.1-12.85,3.18-9,9.66-1.17,14,1,7.89,3.89,9.49,1.26,14.05-4.12,2-2.41,2.45-4.36,5.9-5.6,4.49-1.61,6.34,1.46,10.22,1.53,8,0.15,6.74-6,13.8-7.87,7.66-2,12.86,7.68,21,3.77,12.11-5.83-2.24-9.85-.63-12.5C-3162.29,1333.44-3150.33,1347.49-3155.51,1355.2Z" transform="translate(3426.07 -1337.7)"/><path class="cls-38" d="M-3207.88,1424.27c5.48,10.79,5.48,24.29.92,35.39C-3203.74,1448.07-3203.7,1435.63-3207.88,1424.27Z" transform="translate(3426.07 -1337.7)"/><path class="cls-38" d="M-3297.34,1459.5c-0.66-9.51-10.29-16.06-10.46-24.86-0.13-6.9,6.57-9.08,10-14.05,4.53-6.61,3.51-10.64,2.44-17.87-1.86-12.61,1-26.36,16.39-27.5,14.86-1.1,26.5,8.94,39.17-1.73,5.45-4.59,5.31-6.59,14.49-3.1,7.33,2.79,14.84,5.86,21-.75,3.41-3.69,1.67-6.37,8.33-8.29,2.08-.6,4.63.31,6.71-0.44,2.33-.84,3.48-3.23,5.7-4.21a17.83,17.83,0,0,1,13-.27c-8.67-2.9-16.22,2.48-23.63,5.28-6.41,2.42-5.79,4.34-9.64,8.25-8.85,9-16.42.65-26.15-.47-6.34-.73-5.82,1.67-9.4,5-10.42,9.62-21.48,3.24-34.39,1.94-14-1.41-23.64,8.32-21.61,22.6,1.28,9,3.82,13.81-1.89,22-3.41,4.87-9.94,6.91-10,13.65C-3307.46,1443.31-3297.65,1450-3297.34,1459.5Z" transform="translate(3426.07 -1337.7)"/><path class="cls-38" d="M-3284.23,1429.62c-8-12.09-5.64-26.68,4.79-36.41,12.82-12,30.52-11.7,46.8-9,11.93,2,26.81,5.22,37.45-2.73,8.52-6.36,3.27-22.6,13.06-25.48-9.51,3.24-4.1,17.24-10.42,24-10.62,11.42-29.45,6.62-42.68,4.67-15.08-2.23-31-2-43.12,8.51C-3289.08,1402.55-3292,1417.32-3284.23,1429.62Z" transform="translate(3426.07 -1337.7)"/><path class="cls-38" d="M-3261.7,1437.43c-9.42-14.44-5.89-31.2,10.26-38.52,18-8.16,39.2,3.15,56.85-6.52,15.57-8.54.94-27.13,14-34.83,5.43-3.21,28.92-.82,19-14.34,6.09,7.7-3.27,12-10,13.55-7.11,1.66-11.73.26-13.69,9.31-1.88,8.71,3.22,15.89-3.9,23.54-14.38,15.45-40.95,3-58.49,8.68C-3265.57,1404.06-3271.67,1421.67-3261.7,1437.43Z" transform="translate(3426.07 -1337.7)"/><path class="cls-38" d="M-3235.33,1432.39c4.44-7.05,2-16.6,8.81-22.16,11.34-9.2,27.53.47,40.24-3.81,21.12-7.11,4.34-24.17,7-38,2-10.65,17.59-4.35,23.81-13.26-6.81,9.77-23.58,2.4-22.79,15.92,0.8,13.71,11.47,29.76-7.72,36.15-12.59,4.19-28.92-5.47-40.17,3.4C-3233,1416-3230.83,1425.55-3235.33,1432.39Z" transform="translate(3426.07 -1337.7)"/><path class="cls-38" d="M-3204.2,1446.32c18.92-7.49-12.93-31.85,12.61-37.7,8.87-2,24.47-.62,27.62-12.08,3.35-12.2-9.35-24.76,6.21-33.41-13.7,8.1-4.43,19.38-5.35,31-1.15,14.42-17.92,12.89-28.36,15.33C-3215.86,1415.19-3185,1439.16-3204.2,1446.32Z" transform="translate(3426.07 -1337.7)"/><path class="cls-38" d="M-3195.92,1467.08c27.66-10.4-11.67-46.73,23.68-55.95,10.33-2.69,18.62-6,16.78-18.13-1-6.51-6.5-13.44-1.9-20,3.39-4.78,10.4-5.07,15.56-3.78-6.92-1.5-15.15.16-16.65,8.23-1.1,5.89,3.3,11.18,4,16.78,2.29,17.68-16.36,14.43-26.62,20.6C-3201,1426.87-3170.62,1458.53-3195.92,1467.08Z" transform="translate(3426.07 -1337.7)"/><path class="cls-38" d="M-3197.76,1498.25c4.33-1.68,9-4.9,11.16-9.17,2.65-5.3-.38-11.11,2.57-16,5.18-8.6,17.11-6.95,14.37-20.14-2.86-5.84-1.19-13.83-2.13-20.34-0.71-4.87-2.85-7.55,2.43-10.66,6.26-3.68,13.16-.42,19.48-6.35,7-6.57,7.73-16,5-24.8,4.53,13.59-.77,27.42-15.52,30.94-5.39,1.29-10.11-.87-11.92,5.26-0.82,2.78,1.73,13.52,1.87,16.09,0.6,11.06,5.6,17.4-5.79,25.15-8.36,5.69-6.82,6.41-8.49,15.67-1.28,7.11-6.23,11.9-13,14.35C-3195.46,1497.36-3195.44,1497.42-3197.76,1498.25Z" transform="translate(3426.07 -1337.7)"/><path class="cls-36" d="M-3264,1382.29a59.34,59.34,0,0,0-6.9-3.24c-5.75-1.36-12.23-1.21-16.81,2.93-6,5.37-6.26,15.91-3.43,23.06,4.88-11,14.55-21.5,27.14-22.75C-3261.46,1382.06-3282.62,1384.14-3264,1382.29Z" transform="translate(3426.07 -1337.7)"/><path class="cls-36" d="M-3301.48,1428.71c-4.07,3.39-2.34,18.72,3.5,15.66,0,0,5.87-22,6-21.86-1.84-1.09-8.71,5.51-9.54,6.2h0Z" transform="translate(3426.07 -1337.7)"/><path class="cls-36" d="M-3208.81,1393.78c7.47-1.24,15.1-4.89,19-11.64-18,15.78-45.74,1.79-66.7,4.94-23.69,3.56-41.54,32.84-11.49,42.85-4.34-11.28-2.21-24.73,8.67-31.44,15-9.23,34.23-2,50.5-4.71h0Z" transform="translate(3426.07 -1337.7)"/><path class="cls-36" d="M-3209.72,1384c5.7-.47,15.06-3.7,14.45-11.09-0.51-6.24-2.11-4.07-5.26-2.39-3.78,2-4.38,6.44-9.68,7.68-4.41,1-9.09-.27-13.07-2.12-4.92-2.29-12-7.09-13.12,1.78,3.13-2.78,4.48.75,7.13,1.92,6.73,3,11.71,4.87,19.55,4.21h0Z" transform="translate(3426.07 -1337.7)"/><path class="cls-36" d="M-3174.08,1402.74c15.74-4.49.45-27.82,8.28-37.91-15.23-2.27-7.8,12.22-6.49,21.13,0.45,3-.46,16.4-1.79,16.78h0Z" transform="translate(3426.07 -1337.7)"/><path class="cls-36" d="M-3211.87,1404.81c8.07,0.22,17.91,2,25.43-1.71,3.33-1.67,13.5-18.2,6.5-19.09-1.07-.13-8.71,11.19-10.42,12.38-8.49,5.92-18.62,3.8-28.25,3.31-16.31-.83-46.38-0.27-42.69,23.88,0.4,2.63,2.6,11.38,6.21,11.61,4.34,0.29,3.1-14.45,6.9-14.15s1,7.54,3.77,8.45c3,1,5.67-12.51,7.44-11.37,2.65,1.7-.85,8.24.31,10.54,0.37,0.74,4.43-16.41,5.19-17.6,4-6.24,13-6.43,19.61-6.25h0Z" transform="translate(3426.07 -1337.7)"/><path class="cls-36" d="M-3298,1401.13c-4.05-12.12,2.17-25.83,15.64-27.26-12.12-2.42-24.13,3.77-23.23,17.12,1,15.47,5.82,19.21-8.76,29.36-5.15,3.58-8.51,6.25-9.14,13-0.44,4.78,2.54,17.67,7.05,20.05,6.27,3.31,2.1-10.6,9.86-5.69-5.7-6.2-6.91-13.63-1.45-20.29,7.55-9.22,14.35-13.35,10-26.28C-3300.79,1392.86-3295.27,1409.41-3298,1401.13Z" transform="translate(3426.07 -1337.7)"/><path class="cls-36" d="M-3229.5,1421.35c0,1.82-2.42,7.86-1.7,8.87,2.94,4.14,12.88-11.84,12.54-12,2.12,1-1.68,9.69-1.11,9.93,3.46,1.39,5.51-10.73,6.41-11.86,0.33-.41,3.1,6.35,2.45,7.2,0.86-1.13.68-3.85,2.18-4.47s2,7.11,3.18,6.43c3.15-1.8-1.44-11.83,4.8-15.14C-3211.05,1408.08-3227.06,1408.28-3229.5,1421.35Z" transform="translate(3426.07 -1337.7)"/><path class="cls-36" d="M-3211.87,1404.81c8.07,0.22,17.91,2,25.43-1.71,3.33-1.67,13.5-18.2,6.5-19.09-1.07-.13-8.71,11.19-10.42,12.38-8.49,5.92-18.62,3.8-28.25,3.31-16.31-.83-46.38-0.27-42.69,23.88,0.4,2.63,2.6,11.38,6.21,11.61,4.34,0.29,3.1-14.45,6.9-14.15s1,7.54,3.77,8.45c3,1,5.67-12.51,7.44-11.37,2.65,1.7-.85,8.24.31,10.54,0.37,0.74,4.43-16.41,5.19-17.6,4-6.24,13-6.43,19.61-6.25h0Z" transform="translate(3426.07 -1337.7)"/><path class="cls-36" d="M-3264,1382.29a59.34,59.34,0,0,0-6.9-3.24c-5.75-1.36-12.23-1.21-16.81,2.93-6,5.37-6.26,15.91-3.43,23.06,4.88-11,14.55-21.5,27.14-22.75C-3261.46,1382.06-3282.62,1384.14-3264,1382.29Z" transform="translate(3426.07 -1337.7)"/><path class="cls-36" d="M-3208.81,1393.78c7.47-1.24,15.1-4.89,19-11.64-18,15.78-45.74,1.79-66.7,4.94-23.69,3.56-41.54,32.84-11.49,42.85-4.34-11.28-2.21-24.73,8.67-31.44,15-9.23,34.23-2,50.5-4.71h0Z" transform="translate(3426.07 -1337.7)"/><path class="cls-36" d="M-3298,1401.13c-4.05-12.12,2.17-25.83,15.64-27.26-12.12-2.42-24.13,3.77-23.23,17.12,1,15.47,5.82,19.21-8.76,29.36-5.15,3.58-8.51,6.25-9.14,13-0.44,4.78,2.54,17.67,7.05,20.05,6.27,3.31,2.1-10.6,9.86-5.69-5.7-6.2-6.91-13.63-1.45-20.29,7.55-9.22,14.35-13.35,10-26.28C-3300.79,1392.86-3295.27,1409.41-3298,1401.13Z" transform="translate(3426.07 -1337.7)"/><path class="cls-36" d="M-3301.48,1428.71c-4.07,3.39-2.34,18.72,3.5,15.66,0,0,5.87-22,6-21.86-1.84-1.09-8.71,5.51-9.54,6.2h0Z" transform="translate(3426.07 -1337.7)"/><path class="cls-36" d="M-3209.72,1384c5.7-.47,15.06-3.7,14.45-11.09-0.51-6.24-2.11-4.07-5.26-2.39-3.78,2-4.38,6.44-9.68,7.68-4.41,1-9.09-.27-13.07-2.12-4.92-2.29-12-7.09-13.12,1.78,3.13-2.78,4.48.75,7.13,1.92,6.73,3,11.71,4.87,19.55,4.21h0Z" transform="translate(3426.07 -1337.7)"/><path class="cls-36" d="M-3162.12,1388c6,16.55-11.27,19.53-11.27,19.53C-3141.88,1407.11-3164.88,1378.61-3162.12,1388Z" transform="translate(3426.07 -1337.7)"/><path class="cls-36" d="M-3174.08,1402.74c15.74-4.49.45-27.82,8.28-37.91-15.23-2.27-7.8,12.22-6.49,21.13,0.45,3-.46,16.4-1.79,16.78h0Z" transform="translate(3426.07 -1337.7)"/><path class="cls-36" d="M-3154.07,1387.58c5.39,16.15-.88,22.56-15.87,26.65-16,4.36-15.06,14.3-13.58,28.94,0.64,6.31,2.15,13.7-1.43,19.42-2.23,3.56-6.26,4.94-8.22,8.68-2.74,5.24-1,11-5.54,16-1.4,1.52-5.52,2.32-5.07,4.69,1.31,6.93,12.57-1.79,13.94-4.39,2.69-5.1-.2-10.65,2.36-15.74,3.16-6.3,13.59-7.08,15-14.19,0.74-3.86-2.68-6.6-3.32-10.21s0.95-6.76,1.09-10.18c0.25-5.82-4.22-12.83,1.67-17,5.39-3.78,13.26-.49,19.21-5.51a20.24,20.24,0,0,0,6.42-19.34c-0.07-.33-5.26-13.35-7-10.63a4,4,0,0,0,.35,2.81C-3148.09,1405.5-3157.52,1377.7-3154.07,1387.58Z" transform="translate(3426.07 -1337.7)"/><path class="cls-36" d="M-3162.81,1431.46c10.67,1.26,19.5-11.77,20.24-20.83a18.15,18.15,0,0,1-9.54,11.29c-3.23,1.6-10.17.94-12.46,3.56-2,2.28-2.57,5.46,1.76,6h0Z" transform="translate(3426.07 -1337.7)"/><path class="cls-36" d="M-3161,1375.86c3.27-9.66,28-9.65,27.75-7.95,0.82-6.28-21.78-3.89-24.4-2.24C-3161.77,1368.29-3162.73,1377.61-3161,1375.86Z" transform="translate(3426.07 -1337.7)"/><path class="cls-36" d="M-3190.87,1436.75c-2.91-7.06-2.82-14.42,2.16-20.42,0.52-.63,6.87-6.4,7.22-6.18-3.22-1.94-12.86.92-15.62,3.58-6.19,6-1.28,11.72.62,18.39,1,3.54,1.35,7.63,2.4,9.69,1.15,2.27,4.51,1.13,5.17,5.78,0.53,3.76-3.64,8.54-4,12.6,9.56-1.53,4.32-18.94,2.07-23.44C-3200.53,1413.31-3185.12,1448.24-3190.87,1436.75Z" transform="translate(3426.07 -1337.7)"/><path class="cls-36" d="M-3229.5,1421.35c0,1.82-2.42,7.86-1.7,8.87,2.94,4.14,12.88-11.84,12.54-12,2.12,1-1.68,9.69-1.11,9.93,3.46,1.39,5.51-10.73,6.41-11.86,0.33-.41,3.1,6.35,2.45,7.2,0.86-1.13.68-3.85,2.18-4.47s2,7.11,3.18,6.43c3.15-1.8-1.44-11.83,4.8-15.14C-3211.05,1408.08-3227.06,1408.28-3229.5,1421.35Z" transform="translate(3426.07 -1337.7)"/><path class="cls-36" d="M-3176,1470.07c-10.95,4.65,4.83,8.18,10.8,4.51,8.09-5,8.61-14.61.24-19.22,0.32,6.91-5.06,12.17-11,14.71h0Z" transform="translate(3426.07 -1337.7)"/><path class="cls-36" d="M-3208.81,1393.78c7.47-1.24,15.1-4.89,19-11.64-18,15.78-45.74,1.79-66.7,4.94-23.69,3.56-41.54,32.84-11.49,42.85-4.34-11.28-2.21-24.73,8.67-31.44,15-9.23,34.23-2,50.5-4.71h0Z" transform="translate(3426.07 -1337.7)"/><path class="cls-36" d="M-3301.48,1428.71c-4.07,3.39-2.34,18.72,3.5,15.66,0,0,5.87-22,6-21.86-1.84-1.09-8.71,5.51-9.54,6.2h0Z" transform="translate(3426.07 -1337.7)"/><path class="cls-36" d="M-3264,1382.29a59.34,59.34,0,0,0-6.9-3.24c-5.75-1.36-12.23-1.21-16.81,2.93-6,5.37-6.26,15.91-3.43,23.06,4.88-11,14.55-21.5,27.14-22.75C-3261.46,1382.06-3282.62,1384.14-3264,1382.29Z" transform="translate(3426.07 -1337.7)"/><path class="cls-36" d="M-3298,1401.13c-4.05-12.12,2.17-25.83,15.64-27.26-12.12-2.42-24.13,3.77-23.23,17.12,1,15.47,5.82,19.21-8.76,29.36-5.15,3.58-8.51,6.25-9.14,13-0.44,4.78,2.54,17.67,7.05,20.05,6.27,3.31,2.1-10.6,9.86-5.69-5.7-6.2-6.91-13.63-1.45-20.29,7.55-9.22,14.35-13.35,10-26.28C-3300.79,1392.86-3295.27,1409.41-3298,1401.13Z" transform="translate(3426.07 -1337.7)"/><path class="cls-36" d="M-3173.39,1407.57c31.51-.46,8.51-29,11.27-19.53C-3156.14,1404.58-3173.39,1407.57-3173.39,1407.57Z" transform="translate(3426.07 -1337.7)"/><path class="cls-36" d="M-3174.08,1402.74c15.74-4.49.45-27.82,8.28-37.91-15.23-2.27-7.8,12.22-6.49,21.13,0.45,3-.46,16.4-1.79,16.78h0Z" transform="translate(3426.07 -1337.7)"/><path class="cls-36" d="M-3206.35,1365.44a10.5,10.5,0,0,1,8.12-5.36c-14.16-10.38-12.11,9-21.77,9.34,5.08,3.34,10.56,1,13.64-4C-3202.83,1359.77-3212.33,1375.09-3206.35,1365.44Z" transform="translate(3426.07 -1337.7)"/><path class="cls-36" d="M-3178.29,1353.8c-4.91-4.28-11.65-3.52-11,3.83C-3189.33,1357.63-3184.43,1352.88-3178.29,1353.8Z" transform="translate(3426.07 -1337.7)"/><path class="cls-36" d="M-3209.72,1384c5.7-.47,15.06-3.7,14.45-11.09-0.51-6.24-2.11-4.07-5.26-2.39-3.78,2-4.38,6.44-9.68,7.68-4.41,1-9.09-.27-13.07-2.12-4.92-2.29-12-7.09-13.12,1.78,3.13-2.78,4.48.75,7.13,1.92,6.73,3,11.71,4.87,19.55,4.21h0Z" transform="translate(3426.07 -1337.7)"/><path class="cls-36" d="M-3211.87,1404.81c8.07,0.22,17.91,2,25.43-1.71,3.33-1.67,13.5-18.2,6.5-19.09-1.07-.13-8.71,11.19-10.42,12.38-8.49,5.92-18.62,3.8-28.25,3.31-16.31-.83-46.38-0.27-42.69,23.88,0.4,2.63,2.6,11.38,6.21,11.61,4.34,0.29,3.1-14.45,6.9-14.15s1,7.54,3.77,8.45c3,1,5.67-12.51,7.44-11.37,2.65,1.7-.85,8.24.31,10.54,0.37,0.74,4.43-16.41,5.19-17.6,4-6.24,13-6.43,19.61-6.25h0Z" transform="translate(3426.07 -1337.7)"/><path class="cls-36" d="M-3154.07,1387.58c5.39,16.15-.88,22.56-15.87,26.65-16,4.36-15.06,14.3-13.58,28.94,0.64,6.31,2.15,13.7-1.43,19.42-2.23,3.56-6.26,4.94-8.22,8.68-2.74,5.24-1,11-5.54,16-1.4,1.52-5.52,2.32-5.07,4.69,1.31,6.93,12.57-1.79,13.94-4.39,2.69-5.1-.2-10.65,2.36-15.74,3.16-6.3,13.59-7.08,15-14.19,0.74-3.86-2.68-6.6-3.32-10.21s0.95-6.76,1.09-10.18c0.25-5.82-4.22-12.83,1.67-17,5.39-3.78,13.26-.49,19.21-5.51a20.24,20.24,0,0,0,6.42-19.34c-0.07-.33-5.26-13.35-7-10.63a4,4,0,0,0,.35,2.81C-3148.09,1405.5-3157.52,1377.7-3154.07,1387.58Z" transform="translate(3426.07 -1337.7)"/><path class="cls-36" d="M-3161,1375.86c3.27-9.66,28-9.65,27.75-7.95,0.82-6.28-21.78-3.89-24.4-2.24C-3161.77,1368.29-3162.73,1377.61-3161,1375.86Z" transform="translate(3426.07 -1337.7)"/><path class="cls-36" d="M-3162.81,1431.46c10.67,1.26,19.5-11.77,20.24-20.83a18.15,18.15,0,0,1-9.54,11.29c-3.23,1.6-10.17.94-12.46,3.56-2,2.28-2.57,5.46,1.76,6h0Z" transform="translate(3426.07 -1337.7)"/><path class="cls-36" d="M-3229.5,1421.35c0,1.82-2.42,7.86-1.7,8.87,2.94,4.14,12.88-11.84,12.54-12,2.12,1-1.68,9.69-1.11,9.93,3.46,1.39,5.51-10.73,6.41-11.86,0.33-.41,3.1,6.35,2.45,7.2,0.86-1.13.68-3.85,2.18-4.47s2,7.11,3.18,6.43c3.15-1.8-1.44-11.83,4.8-15.14C-3211.05,1408.08-3227.06,1408.28-3229.5,1421.35Z" transform="translate(3426.07 -1337.7)"/><path class="cls-36" d="M-3176,1470.07c-10.95,4.65,4.83,8.18,10.8,4.51,8.09-5,8.61-14.61.24-19.22,0.32,6.91-5.06,12.17-11,14.71h0Z" transform="translate(3426.07 -1337.7)"/><path class="cls-36" d="M-3190.87,1436.75c-2.91-7.06-2.82-14.42,2.16-20.42,0.52-.63,6.87-6.4,7.22-6.18-3.22-1.94-12.86.92-15.62,3.58-6.19,6-1.28,11.72.62,18.39,1,3.54,1.35,7.63,2.4,9.69,1.15,2.27,4.51,1.13,5.17,5.78,0.53,3.76-3.64,8.54-4,12.6,9.56-1.53,4.32-18.94,2.07-23.44C-3200.53,1413.31-3185.12,1448.24-3190.87,1436.75Z" transform="translate(3426.07 -1337.7)"/><path class="cls-36" d="M-3301.48,1428.71c-4.07,3.39-2.34,18.72,3.5,15.66,0,0,5.87-22,6-21.86-1.84-1.09-8.71,5.51-9.54,6.2h0Z" transform="translate(3426.07 -1337.7)"/><path class="cls-36" d="M-3264,1382.29a59.34,59.34,0,0,0-6.9-3.24c-5.75-1.36-12.23-1.21-16.81,2.93-6,5.37-6.26,15.91-3.43,23.06,4.88-11,14.55-21.5,27.14-22.75C-3261.46,1382.06-3282.62,1384.14-3264,1382.29Z" transform="translate(3426.07 -1337.7)"/><path class="cls-36" d="M-3298,1401.13c-4.05-12.12,2.17-25.83,15.64-27.26-12.12-2.42-24.13,3.77-23.23,17.12,1,15.47,5.82,19.21-8.76,29.36-5.15,3.58-8.51,6.25-9.14,13-0.44,4.78,2.54,17.67,7.05,20.05,6.27,3.31,2.1-10.6,9.86-5.69-5.7-6.2-6.91-13.63-1.45-20.29,7.55-9.22,14.35-13.35,10-26.28C-3300.79,1392.86-3295.27,1409.41-3298,1401.13Z" transform="translate(3426.07 -1337.7)"/><path class="cls-36" d="M-3208.81,1393.78c7.47-1.24,15.1-4.89,19-11.64-18,15.78-45.74,1.79-66.7,4.94-23.69,3.56-41.54,32.84-11.49,42.85-4.34-11.28-2.21-24.73,8.67-31.44,15-9.23,34.23-2,50.5-4.71h0Z" transform="translate(3426.07 -1337.7)"/><path class="cls-36" d="M-3209.72,1384c5.7-.47,15.06-3.7,14.45-11.09-0.51-6.24-2.11-4.07-5.26-2.39-3.78,2-4.38,6.44-9.68,7.68-4.41,1-9.09-.27-13.07-2.12-4.92-2.29-12-7.09-13.12,1.78,3.13-2.78,4.48.75,7.13,1.92,6.73,3,11.71,4.87,19.55,4.21h0Z" transform="translate(3426.07 -1337.7)"/><path class="cls-36" d="M-3173.39,1407.57c31.51-.46,8.51-29,11.27-19.53C-3156.14,1404.58-3173.39,1407.57-3173.39,1407.57Z" transform="translate(3426.07 -1337.7)"/><path class="cls-36" d="M-3211.87,1404.81c8.07,0.22,17.91,2,25.43-1.71,3.33-1.67,13.5-18.2,6.5-19.09-1.07-.13-8.71,11.19-10.42,12.38-8.49,5.92-18.62,3.8-28.25,3.31-16.31-.83-46.38-0.27-42.69,23.88,0.4,2.63,2.6,11.38,6.21,11.61,4.34,0.29,3.1-14.45,6.9-14.15s1,7.54,3.77,8.45c3,1,5.67-12.51,7.44-11.37,2.65,1.7-.85,8.24.31,10.54,0.37,0.74,4.43-16.41,5.19-17.6,4-6.24,13-6.43,19.61-6.25h0Z" transform="translate(3426.07 -1337.7)"/><path class="cls-36" d="M-3174.08,1402.74c15.74-4.49.45-27.82,8.28-37.91-15.23-2.27-7.8,12.22-6.49,21.13,0.45,3-.46,16.4-1.79,16.78h0Z" transform="translate(3426.07 -1337.7)"/><path class="cls-36" d="M-3206.35,1365.44a10.5,10.5,0,0,1,8.12-5.36c-14.16-10.38-12.11,9-21.77,9.34,5.08,3.34,10.56,1,13.64-4C-3202.83,1359.77-3212.33,1375.09-3206.35,1365.44Z" transform="translate(3426.07 -1337.7)"/><path class="cls-36" d="M-3178.29,1353.8c-4.91-4.28-11.65-3.52-11,3.83C-3189.33,1357.63-3184.43,1352.88-3178.29,1353.8Z" transform="translate(3426.07 -1337.7)"/><path class="cls-36" d="M-3162,1340.93c2,2.23,4,5.73,3.48,8.82-0.58,3.61-10.9,11.62-13.43,9.22C-3164.26,1366.29-3145.68,1348.21-3162,1340.93Z" transform="translate(3426.07 -1337.7)"/><path class="cls-36" d="M-3161,1375.86c3.27-9.66,28-9.65,27.75-7.95,0.82-6.28-21.78-3.89-24.4-2.24C-3161.77,1368.29-3162.73,1377.61-3161,1375.86Z" transform="translate(3426.07 -1337.7)"/><path class="cls-36" d="M-3154.07,1387.58c5.39,16.15-.88,22.56-15.87,26.65-16,4.36-15.06,14.3-13.58,28.94,0.64,6.31,2.15,13.7-1.43,19.42-2.23,3.56-6.26,4.94-8.22,8.68-2.74,5.24-1,11-5.54,16-1.4,1.52-5.52,2.32-5.07,4.69,1.31,6.93,12.57-1.79,13.94-4.39,2.69-5.1-.2-10.65,2.36-15.74,3.16-6.3,13.59-7.08,15-14.19,0.74-3.86-2.68-6.6-3.32-10.21s0.95-6.76,1.09-10.18c0.25-5.82-4.22-12.83,1.67-17,5.39-3.78,13.26-.49,19.21-5.51a20.24,20.24,0,0,0,6.42-19.34c-0.07-.33-5.26-13.35-7-10.63a4,4,0,0,0,.35,2.81C-3148.09,1405.5-3157.52,1377.7-3154.07,1387.58Z" transform="translate(3426.07 -1337.7)"/><path class="cls-36" d="M-3162.81,1431.46c10.67,1.26,19.5-11.77,20.24-20.83a18.15,18.15,0,0,1-9.54,11.29c-3.23,1.6-10.17.94-12.46,3.56-2,2.28-2.57,5.46,1.76,6h0Z" transform="translate(3426.07 -1337.7)"/><path class="cls-36" d="M-3229.5,1421.35c0,1.82-2.42,7.86-1.7,8.87,2.94,4.14,12.88-11.84,12.54-12,2.12,1-1.68,9.69-1.11,9.93,3.46,1.39,5.51-10.73,6.41-11.86,0.33-.41,3.1,6.35,2.45,7.2,0.86-1.13.68-3.85,2.18-4.47s2,7.11,3.18,6.43c3.15-1.8-1.44-11.83,4.8-15.14C-3211.05,1408.08-3227.06,1408.28-3229.5,1421.35Z" transform="translate(3426.07 -1337.7)"/><path class="cls-36" d="M-3190.87,1436.75c-2.91-7.06-2.82-14.42,2.16-20.42,0.52-.63,6.87-6.4,7.22-6.18-3.22-1.94-12.86.92-15.62,3.58-6.19,6-1.28,11.72.62,18.39,1,3.54,1.35,7.63,2.4,9.69,1.15,2.27,4.51,1.13,5.17,5.78,0.53,3.76-3.64,8.54-4,12.6,9.56-1.53,4.32-18.94,2.07-23.44C-3200.53,1413.31-3185.12,1448.24-3190.87,1436.75Z" transform="translate(3426.07 -1337.7)"/><path class="cls-36" d="M-3176,1470.07c-10.95,4.65,4.83,8.18,10.8,4.51,8.09-5,8.61-14.61.24-19.22,0.32,6.91-5.06,12.17-11,14.71h0Z" transform="translate(3426.07 -1337.7)"/><path class="cls-39" d="M-3131.38,1350.74c-8.25-2.47-17.61-1.53-24.13,4.46,6.37-7.84-7-21.41-10.61-15.46-0.59,1,9.69,5.94,2.63,11.76-7.72,6.37-14.19-4.31-21.5-3.35-6.77.88-7.16,8.81-13.75,8.87-8.27.08-10-6.07-17.26,2.31-4.19,4.84-4.64,9.48-13.22,6.07-4.25-1.69-10.29-10.91-14.77-3.17-3.46,6,4.51,9.77-4.57,13.81-6.48,2.88-15.59-1.33-21.66-3.11-12-3.53-28.8-8.12-36.13,6-6.85,13.18,8.44,26.94-5.28,37.44-4.85,3.71-11.47,4.55-14.56,10.23s-1.26,13,.86,18.56c4.68,12.23,15.47,21.76,24.7,30.64-0.37-2.28-9.23-20.61-8.83-21.28,3.46-5.8,16.13,10.65,17,12.27,0.69-5.4-3.15-12.79-2.86-18.83,0.31-6.37,2.25-12.49,3.78-18.64,1,2.26,5.37,9,8.59,9,0.31,0-1.94-5.43-2.3-6,0.26,0.3,6.65,5.57,6.65,4.3,0-3.15-2.35-6.45-2.35-10,4.28,6.27,13.05,11.38,20.39,12.56-0.62-2.23.15-4.34-.31-6.43,7.49,14.25,10.39,7.89,13.34-5.67,0.13,0.88-.5,10,0.31,10.11,2.9,0.48,7-6.48,8-8,0-.42-1.78,6.81-0.92,6.74,1.61-.13,4-2.35,4.9-3.67,1.09,6,11.11-1.69,14-4.45-1.37,2.2-.33,3.35-3.07,5.37,5.19,0.94,9.36-4.25,11.51-8.27-0.16,1-.4,7,1.22,7s1.65-3.23,1.84-4.14c4.37,11.53,2.1,24.52,3.38,36.56,0.25-5,3.64-16.35,9.65-17.92,8.76-2.29,2.13,8.19,1.25,13.12-1.37,7.63,1.5,18-4.1,24.49-1.66,1.93-5.61,2.5-6.55,3.6-2.72,3.18-4.52,10.32-6.67,14.13,5.08,0.85,14.81-1.89,19.41-3.24,9.91-2.93,9.19-10.38,15.24-16.18,6.35-6.08,17.49-1.57,21.72-12.2,4.75-11.93-8.44-14.27-10.18-23.63-2.52-13.55,26.7-20.09,28.69-35.42,1.46-11.21-7.56-18.44-11.18-28-1.2-3.17-2.81-6.52,0-9.22,3.07-3,10.93.28,6.87,3,3.65-1.07,4.94-6.58.61-7.81,4.84,0.4,14.62,5.42,8.89,11.33,8.55-2.72,5.52-11.54.06-15.47-6.54-4.7-17.59-4.83-24.9-2,4.5-8,18.07-8.68,25.88-6.9,4.13,0.94,10.47,3,11.29,8.05,0.32,1.95.45,6.09-2.53,6.2,4.26,0.09,5.21-4.64,4.78-7.95-0.8-6.18-7.76-10.23-13-11.81h0Zm-34.42,14.09c-5.13,6.8-1.57,15.29-1.06,22.84,0.26,3.85.35,8.6-2.27,11.79-0.54.65-5.81,3.83-5.77,3.28,0.63-7.81,3.53-12.16,1.67-21.12C-3175,1372.95-3178.89,1362.88-3165.8,1364.83Zm3.68,23.21c-2.76-9.43,20.24,19.07-11.27,19.53C-3173.39,1407.57-3156.14,1404.58-3162.12,1388Zm-16.17-34.23c-6.13-.92-11,3.83-11,3.83C-3189.94,1350.28-3183.2,1349.51-3178.29,1353.8Zm-33.88,6.12c3.46-5,10-2.75,13.95.16-8.65.49-11.67,16.19-21.77,9.34,4.5-.15,5.71-6.44,7.82-9.5h0Zm-14.11,14.25c4.34,3.25,10.67,5.28,16.08,4,5.26-1.23,7.21-8.14,10.48-9.1,4.71-1.39,5.57,3.42,3.46,7.86-4,8.43-18.68,8.4-26.1,6.14-3.58-1.09-10.54-8.33-14-5.24,0.69-5.83,5.71-7,10.12-3.67C-3217.7,1380.6-3234.87,1367.74-3226.28,1374.18Zm-80.33,51.77c-7.55,6-5.93,15.33,0,21.75-7.71-4.87-3.59,9-9.86,5.69-4.11-2.17-6.9-14-7-18.48-0.13-7.42,3.25-10.71,9.06-14.57,14.7-9.78,9.67-14.16,8.76-29.36-0.79-13.3,11-19.56,23.23-17.12-11.63,1.24-17.55,11.08-16.64,22.1,1.1,13.28,5,20-7.58,30h0Zm13.87-.92c-2.3,5.15-2.39,22.57-8.7,18-8.34-6,4-23.83,9.5-20.57A2.44,2.44,0,0,1-3292.74,1425Zm1.61-20c-2.61-6.58-2.58-16.47,2.26-22,4.21-4.8,20.89-8,25.11-1-2.27-3.75-18.17,9.34-19.86,11.25A45.7,45.7,0,0,0-3291.13,1405Zm23.15,24.89c-30-10-12.22-39.29,11.49-42.85,21.13-3.18,48.45,10.75,66.7-4.94-10,17.76-35.7,10.72-52,11.82C-3261.68,1395.29-3275.62,1409.81-3268,1429.93Zm31.27-2.76c0.21-1.57,1.47-7.94-.27-9.05-1.91-1.23-4.22,12.92-7.77,10.69-4.14-2.6,1-11.43-5.08-5.53-4.16,4-1.27,16.17-8.36,8.89-3.57-3.66-4-12.56-2.79-17.11,6.39-23.84,42.25-12.77,59.17-14.62a23.77,23.77,0,0,0,14.84-7c1.29-1.29,4.24-7.63,5.75-8.1,5.86-1.83,1.45,13-2.37,16.06-7.59,6-19.42,3.42-28.27,3.38-5.71,0-13.73-.28-18,4.26-5,5.35-1,14.7-6.2,19.57q-1.32.36-.64-1.46C-3236.09,1422.57-3237.32,1431.76-3236.71,1427.17Zm31.36-8.58c0,0.3.89,6.25-.2,6.87s-1.55-7.11-3.18-6.43-1.32,3.35-2.18,4.47c0.61-.8-2.15-7.58-2.45-7.2-0.67.85-3.15,13.17-6.41,11.86-0.59-.24,3.2-9,1.11-9.93,0.34,0.16-9.6,16.14-12.54,12-0.7-1,1.69-9.85,2.49-11.68,2-4.5,5.45-6.88,10-8.31,5.64-1.77,12.23-1.16,17.93.08a8.47,8.47,0,0,0-4.6,8.27C-3204.67,1424.34-3206,1412.85-3205.35,1418.59Zm15.41,32.4c4.72-7.87-3.22-6.38-5.5-9.53-0.59-.81.71-2.75,0.19-3.67-1.46-2.56-2.78-8.35-3.59-11.27-1.59-5.75-2.32-9.57,2.87-13.5,2.28-1.73,11.47-4.7,14.49-2.87-2.13-1.29-10.23,10.67-10.77,12.46-2.36,7.85,12.67,35.45-.68,37.59a22.69,22.69,0,0,1,3-9.2h0Zm25,4.37c13.68,7.39.1,27.14-11.65,21.22C-3185.49,1472.1-3164.58,1465.16-3165,1455.36Zm22.38-44.73a23.35,23.35,0,0,1-12.16,18.63c-2.37,1.24-12.2,4.91-11.6-1.47,0.45-4.81,14.48-5.31,17.88-8.13A18.25,18.25,0,0,0-3142.57,1410.63Zm-6.67-1.92c-6.32,12.9-25.29,5.87-27.05,18.91-0.36,2.69,1.66,6.56,1.55,9.57-0.13,3.47-1.74,6.57-1.09,10.18,1.24,7,5.53,8,.59,14.5-4.6,6-11,5.4-13.37,13.55-1.51,5.24,1.42,9.69-2.95,14.6-1.64,1.85-12.44,7.82-12.35,1.2,0-1.65,4.18-2.87,5.21-4,4.88-5.32,2.81-10.23,5.54-16,1.46-3.07,4.2-3.85,6.26-6.37,8.12-9.93,1.75-22.83,2.32-34.37,0.79-16.16,12.26-13.18,23.83-18.92,4.81-2.38,7.84-5.23,8.77-10.67,0.67-3.89-4-13.63-2.44-16.17,1.25-2,5.52,6.24,5.62,6.48a20.1,20.1,0,0,1-.44,17.47C-3154.3,1419.06-3141.2,1393.78-3149.24,1408.72Zm-2.08-45c1.29-.17,18.67-0.21,18.09,4.23,0-.27-16.52-1.22-18.92-0.39-4.07,1.41-5.33,5.55-8.35,7.12-1.36.7-1.89,3.35-2.59-.55-1.08-6,7.42-9.84,11.78-10.4h0Zm-5.36-9.12c-1.89,3.36-11.83,7.71-15.31,4.41,2.53,2.4,12.85-5.61,13.43-9.22,0.5-3.09-1.5-6.6-3.48-8.82,5.25,2.33,8.39,8.25,5.36,13.63C-3160.82,1361.92-3152.54,1347.21-3156.68,1354.56Zm33.42,3.68c-6.21-4.78-12-3.61-19.11-4.55-1.66-.22-7.19,2-4.69-1.5,3.13-4.34,15.24-1,18.6.85,1.87,1,7.54,7.19,5.2,5.2C-3132.61,1351-3119.12,1361.77-3123.26,1358.24Z" transform="translate(3426.07 -1337.7)"/><g class="cls-32"><path class="cls-40" d="M-3281.47,1414.69c-2.61-22.21,22.53-27.64,39.32-26C-3259.26,1388.45-3282,1392.93-3281.47,1414.69Z" transform="translate(3426.07 -1337.7)"/><path class="cls-40" d="M-3258.47,1422.57c-3-19.09,20.27-22.81,34-21.44C-3238.21,1401.09-3259.69,1403.92-3258.47,1422.57Z" transform="translate(3426.07 -1337.7)"/><path class="cls-40" d="M-3318.57,1445.56c-6.27-9.55-3.94-21.5,7.36-25.12C-3321.49,1425.35-3323.48,1435.3-3318.57,1445.56Z" transform="translate(3426.07 -1337.7)"/><path class="cls-40" d="M-3303.24,1395.31c-4.68-8.37-.7-17.5,8.28-19.91C-3303.17,1379.06-3306.41,1386.65-3303.24,1395.31Z" transform="translate(3426.07 -1337.7)"/><path class="cls-40" d="M-3227.66,1425.49c-1.31-10.64,8.63-15.92,17.94-15.17C-3218.85,1411.07-3227.39,1415.15-3227.66,1425.49Z" transform="translate(3426.07 -1337.7)"/><path class="cls-40" d="M-3227.2,1375.4c8.36,6.1,18.15,6.27,25.76-.69C-3208.19,1382.89-3219.69,1382.79-3227.2,1375.4Z" transform="translate(3426.07 -1337.7)"/><path class="cls-40" d="M-3187.64,1411c-8.34,2.4-11.52,8.9-9.2,16.77C-3200.65,1420.22-3196.82,1411.75-3187.64,1411Z" transform="translate(3426.07 -1337.7)"/><path class="cls-40" d="M-3152,1389.87c6.15,13.6-2.38,24.85-16.33,25C-3154.87,1413.13-3147.56,1403.73-3152,1389.87Z" transform="translate(3426.07 -1337.7)"/><path class="cls-40" d="M-3160.05,1461.79c1,8.08-6.06,13.39-13.57,13.1C-3166.4,1473.86-3160.59,1469.48-3160.05,1461.79Z" transform="translate(3426.07 -1337.7)"/><path class="cls-40" d="M-3170.86,1365.52c-4.45,2.91-1.65,10.62-.92,15.16C-3173.46,1376.69-3176.63,1367.35-3170.86,1365.52Z" transform="translate(3426.07 -1337.7)"/><path class="cls-40" d="M-3202.83,1358.86c-4-1.46-7.72.68-9.89,4.13C-3211.43,1358.54-3206.82,1356.11-3202.83,1358.86Z" transform="translate(3426.07 -1337.7)"/><path class="cls-40" d="M-3270.66,1380.46c-10.56-2.36-17.9,3.25-20.24,13.09C-3290,1383.19-3281.19,1376.45-3270.66,1380.46Z" transform="translate(3426.07 -1337.7)"/><path class="cls-40" d="M-3143.27,1351.73c5.63-1.61,12.36-.85,16.79,3.22C-3131.58,1352-3137.49,1351.44-3143.27,1351.73Z" transform="translate(3426.07 -1337.7)"/><path class="cls-40" d="M-3161,1370.34c5-6.62,14.4-7.5,21.85-5.06C-3146.73,1364.16-3155.12,1364.81-3161,1370.34Z" transform="translate(3426.07 -1337.7)"/><path class="cls-40" d="M-3180.29,1386.42c-3.28,10.72-14.16,16.1-24.83,15.17C-3194.49,1401.08-3184.9,1396.38-3180.29,1386.42Z" transform="translate(3426.07 -1337.7)"/><path class="cls-40" d="M-3174.77,1417.07c-7.47,2.88-8,12.17-8,19C-3184,1429.32-3183.14,1418.66-3174.77,1417.07Z" transform="translate(3426.07 -1337.7)"/><path class="cls-40" d="M-3256.94,1427.17c-1.2-9.7,4-19.79,14.1-21.75C-3252.28,1408.74-3256.7,1417.53-3256.94,1427.17Z" transform="translate(3426.07 -1337.7)"/><path class="cls-40" d="M-3278.09,1421c-3.66-11.72,1.87-23.88,13.8-27.27C-3275.45,1398.52-3280.25,1409.15-3278.09,1421Z" transform="translate(3426.07 -1337.7)"/></g><path class="cls-22" d="M-3205.43,1475.27c-1.18-14.85.9-33.4-4.45-47.34-0.19.91-.31,4.14-1.84,4.14s-1.38-6.07-1.22-7c-2.15,4-6.32,9.21-11.51,8.27,2.73-2,1.7-3.17,3.07-5.37-2.84,2.76-12.86,10.49-14,4.45-0.9,1.32-3.29,3.55-4.9,3.67-0.86.07,0.91-7.16,0.92-6.74-1.21,1.9-4.85,8.48-8,8-0.8-.13-0.17-9.23-0.31-10.11-2.87,13.18-5.86,20-13.34,5.67,0.47,2.09-.31,4.2.31,6.43-7.34-1.18-16.11-6.28-20.39-12.56,0,3.52,2.36,6.82,2.35,10,0,1.27-6.13-3.68-6.65-4.3,0.35,0.54,2.62,6,2.3,6-3,0-7.59-6.86-8.59-9-3.74,15-4.22,25.73.37,40.5,3.62,11.66,1.7,25.89,10.52,35.38,25.11,27,78.33,8.21,75.27-29.93C-3206.35,1463.78-3204.51,1486.76-3205.43,1475.27Z" transform="translate(3426.07 -1337.7)"/><g class="cls-23"><path class="cls-24" d="M-3205.43,1475.27c-1.18-14.85.9-33.4-4.45-47.34-0.19.91-.31,4.14-1.84,4.14s-1.38-6.07-1.22-7c-2.15,4-6.32,9.21-11.51,8.27,2.73-2,1.7-3.17,3.07-5.37-2.84,2.76-12.86,10.49-14,4.45-0.9,1.32-3.29,3.55-4.9,3.67-0.86.07,0.91-7.16,0.92-6.74-1.21,1.9-4.85,8.48-8,8-0.8-.13-0.17-9.23-0.31-10.11-2.87,13.18-5.86,20-13.34,5.67,0.47,2.09-.31,4.2.31,6.43-7.34-1.18-16.11-6.28-20.39-12.56,0,3.52,2.36,6.82,2.35,10,0,1.27-6.13-3.68-6.65-4.3,0.35,0.54,2.62,6,2.3,6-3,0-7.59-6.86-8.59-9-3.74,15-4.22,25.73.37,40.5,3.62,11.66,1.7,25.89,10.52,35.38,25.11,27,78.33,8.21,75.27-29.93C-3206.35,1463.78-3204.51,1486.76-3205.43,1475.27Zm-2.14,5.51c-3.21,37.14-65.94,51.78-77.53,12.27-2.93-10-8.06-30.91,4.64-35.68,12.23-4.59,20.7,17.09,18.75,17.6-1.28.33-8.85-10.91-15.39-9.62-8.25,1.62-10.45,12-4.69,17.76,4.68,4.67,10.67,2.7,16.29,3,7.73,0.37,1.18-1.2,5.42,1.91,2.3,1.69,2.49,4.8,6.32,5.52-1-.66-1.84-2-2.76-2.87,9.54-4.3-3.69-25.14-7.74-30.09-2.41-2.95-8.06-6.67-7.48-10.92,1.08-7.94,8.78-2.89,13.34-2.14,10.33,1.7,15.79-15.33,28.45-7.28,7.09,4.51,2.19,5.82-3.06,10.18-5.85,4.86-8.93,10.18-9.82,17.85,2.72-6.79,10.48-17.7,19.29-14.9,4.36,1.38,11.24,11.21,7.57,16.14-2.18,2.93-6.49-7.82-11.16-8.23-8.15-.71-12.57,9.42-12.67,16.2-0.09,5.79-.64,4.61,3.39,6.85,5.12,2.85,19.37-.25,22.24-5.66,1.06-2-1.38-17.74,2.45-17.93,5.3-.26,4.34,17.74,4.14,20.07h0Z" transform="translate(3426.07 -1337.7)"/></g><path class="cls-41" d="M-3265.83,1499.37c5.92,1.66,30.83,3,32.77-4.72a9,9,0,0,0,2.41,3.22c-5.52-.78-8.09,11.46-13.63,13.38-6.06,2.1-8.81-2.45-13.07-5.66C-3259.44,1504-3264.56,1501.38-3265.83,1499.37Z" transform="translate(3426.07 -1337.7)"/><path class="cls-42" d="M-3260.47,1482.78c0-6-1.18-13.51-5.55-18-5.5-5.69-16.75-5.46-17.9,4.11-0.65,5.45.73,4.35,6.53,6.79Z" transform="translate(3426.07 -1337.7)"/><path class="cls-43" d="M-3238.36,1470.21c2.22-16.13,18.74-14.8,21.25.47Z" transform="translate(3426.07 -1337.7)"/><path class="cls-44" d="M-3285.26,1475.35c1.17-17.28,23.48-9.66,24,4.48C-3260.82,1492.1-3281.74,1484-3285.26,1475.35Z" transform="translate(3426.07 -1337.7)"/><path class="cls-26" d="M-3285.26,1475.35c0.77-25.76,35.91,1.63,21.56,10.08C-3272.38,1490.55-3282,1482.87-3285.26,1475.35Zm0,0c5.66,11.18,14.83,11,24.4,8.22-1.21-6.93-4.7-17-12.89-18.27C-3280.27,1464.33-3284.66,1469.14-3285.26,1475.35Z" transform="translate(3426.07 -1337.7)"/><path class="cls-22" d="M-3304.77,1454.75a3.94,3.94,0,0,0-4.69-.23c-1.23,2.07,5.2,9.34,6.17,11.64,2.38,5.62,2.58,11.87,5.55,17.3,2.31,4.23,5.57,8.46,10.64,9.13-0.46-13.67-3.45-31.75-17.67-37.84h0Z" transform="translate(3426.07 -1337.7)"/><path class="cls-22" d="M-3196.23,1473a93.82,93.82,0,0,1,2.45-19.91c1.54-6.84.24-10.16-6.44-3.72-10.95,10.54-2.59,25.8-6,38.46,6.85,1.75,10-10.63,10-14.82C-3196.08,1463.17-3196.38,1482-3196.23,1473Z" transform="translate(3426.07 -1337.7)"/><path class="cls-26" d="M-3198.22,1453.37c-4.13,7-4.77,15.63-4.75,23.59C-3204.29,1469-3203.42,1459.82-3198.22,1453.37Z" transform="translate(3426.07 -1337.7)"/><path class="cls-26" d="M-3302,1462.41c6.88,5.77,10.68,14.89,12.73,23.43C-3292.52,1477.64-3296.1,1469.09-3302,1462.41Z" transform="translate(3426.07 -1337.7)"/><path class="cls-45" d="M-3242,1462.45c3.81-9.93,22-24.18,27.3-6.44C-3224.42,1444.22-3235.33,1451.39-3242,1462.45Z" transform="translate(3426.07 -1337.7)"/><path class="cls-45" d="M-3262.23,1465.29c-6.66-9.32-15.06-11.36-24.14-5.4C-3279.92,1448.78-3266.4,1456.35-3262.23,1465.29Z" transform="translate(3426.07 -1337.7)"/><path class="cls-46" d="M-3260.55,1501.43c3.75,2.54,6.13,6.87,10.75,7.79,8.54,1.71,11.3-6.8,15.81-11.69C-3242.35,1500.71-3251.67,1501.61-3260.55,1501.43Z" transform="translate(3426.07 -1337.7)"/><path class="cls-47" d="M-3248.7,1503c2.68-.2,7-0.86,8.52-3.62a77.92,77.92,0,0,1-15,2,11.25,11.25,0,0,0,6.44,1.66h0Z" transform="translate(3426.07 -1337.7)"/><path class="cls-48" d="M-3238.7,1482.63c-1.18-11.73,9.57-31.84,19.76-15.18C-3210,1482.07-3225.78,1487-3238.7,1482.63Z" transform="translate(3426.07 -1337.7)"/><path class="cls-26" d="M-3238.7,1482.63c-1.06-7.49.33-21,10.21-21.82,6.1-.52,16,10.89,13.47,17.24-3.29,8.39-17.41,6.56-23.68,4.58C-3239,1480.58-3237.69,1482.94-3238.7,1482.63Zm0,0c7.69,2.3,17.71,2.14,23-5-1.38-5.22-4.3-16.55-12.62-16C-3237.84,1462.21-3239.23,1475.57-3238.7,1482.63Z" transform="translate(3426.07 -1337.7)"/><path class="cls-49" d="M-3221,1472.85c0.85,11.07-13.38,12.15-14.22,1.08s13.37-12.15,14.22-1.08C-3220.59,1477.71-3221.33,1468-3221,1472.85Z" transform="translate(3426.07 -1337.7)"/><path class="cls-50" d="M-3221,1472.85c-0.84-11.07-15.06-10-14.22,1.08s15.07,10,14.22-1.08C-3221.33,1468-3220.59,1477.71-3221,1472.85Zm-1.94,5.93c-5.53,9.8-16.4-6.38-10.28-9.51-1.49.76,1.56,8.61,2.7,9.36,6.82,4.48,8.22-7.46,7.68-7.62,2.41,0.7.07,7.44-.1,7.77C-3225,1482.49-3219.95,1472.92-3222.91,1478.78Z" transform="translate(3426.07 -1337.7)"/><path d="M-3223.9,1473.43c0.6,7.8-9.61,6.29-8.11-.74,1.15-5.39,7.65-5.47,8.11.74C-3223.67,1476.38-3224.12,1470.48-3223.9,1473.43Z" transform="translate(3426.07 -1337.7)"/><path class="cls-51" d="M-3223.89,1469.48c0.6,4.41-4.75,5.12-5.35.71s4.76-5.13,5.35-.71C-3223.63,1471.43-3224.15,1467.53-3223.89,1469.48Z" transform="translate(3426.07 -1337.7)"/><path class="cls-52" d="M-3224.21,1469.52c0.93,7-4.84.65-4.71,0.63-0.14,0,3.78-7.61,4.71-.63h0Z" transform="translate(3426.07 -1337.7)"/><path class="cls-53" d="M-3265.23,1475.15c0.84,11.08-13.37,12.15-14.22,1.08s13.38-12.15,14.22-1.08C-3264.86,1480-3265.6,1470.28-3265.23,1475.15Z" transform="translate(3426.07 -1337.7)"/><path class="cls-54" d="M-3265.23,1475.15c-0.84-11.08-15.06-10-14.22,1.08s15.06,10,14.22-1.08C-3265.6,1470.28-3264.86,1480-3265.23,1475.15Zm-1.94,5.93c-5.53,9.78-16.4-6.35-10.28-9.51-1.49.77,1.56,8.61,2.7,9.36,6.81,4.46,8.25-7.46,7.68-7.62,2.4,0.7.07,7.44-.09,7.77C-3269.27,1484.79-3264.22,1475.22-3267.17,1481.08Z" transform="translate(3426.07 -1337.7)"/><path d="M-3268.16,1475.72c0.5,6.56-7.8,7.19-8.3.63-0.49-6.41,7.77-7.57,8.3-.63h0Z" transform="translate(3426.07 -1337.7)"/><path class="cls-51" d="M-3268.16,1471.78c0.58,4.41-4.76,5.13-5.35.71s4.75-5.12,5.35-.71C-3267.9,1473.73-3268.42,1469.83-3268.16,1471.78Z" transform="translate(3426.07 -1337.7)"/><path class="cls-52" d="M-3268.47,1471.82c0.93,7-4.84.65-4.71,0.63-0.13,0,3.76-7.61,4.71-.63C-3268.24,1473.53-3268.71,1470.1-3268.47,1471.82Z" transform="translate(3426.07 -1337.7)"/><path class="cls-55" d="M-3216.75,1479.39c-5.26,5.91-14.29,4.67-21.16,3.27,1.12,0.19,8.39,1.27,8.3,4,0.26-4.61,6.44-1.82,6,.54a3.58,3.58,0,0,0-1.12-2.83c1-.17,5.77-2.32,6.63-0.33a3.76,3.76,0,0,0-1.93-1.37q5.42-1.86,3.24-3.24C-3222,1485.31-3216.65,1479.27-3216.75,1479.39Z" transform="translate(3426.07 -1337.7)"/><path class="cls-26" d="M-3264.79,1500.05c1.42,0.44,2.76,1.06,4.25,1.37C-3262.58,1501.75-3263.25,1500.8-3264.79,1500.05Z" transform="translate(3426.07 -1337.7)"/><path class="cls-26" d="M-3233,1495.11a5.47,5.47,0,0,0,1.61,2.53C-3233.12,1497.24-3232.5,1496.33-3233,1495.11Z" transform="translate(3426.07 -1337.7)"/><path class="cls-26" d="M-3249.54,1513.84a25.67,25.67,0,0,0,6.13-.92C-3245.51,1514.34-3247.22,1514.09-3249.54,1513.84Z" transform="translate(3426.07 -1337.7)"/><path class="cls-56" d="M-3260.55,1501.43c3.75,2.54,6.13,6.87,10.75,7.79,8.54,1.71,11.3-6.8,15.81-11.69C-3242.35,1500.71-3251.67,1501.61-3260.55,1501.43Z" transform="translate(3426.07 -1337.7)"/><path class="cls-57" d="M-3256.52,1490.63c1.42,0.92,6.19.24,6.32,0.53C-3247.81,1496.87-3257.88,1490.43-3256.52,1490.63Z" transform="translate(3426.07 -1337.7)"/><path class="cls-26" d="M-3254.33,1481.1c1.66,3.46,1.26,7.63-2,9.88,0,0,0,0,0,0-0.08.52,3,2.75,3.33,3.12-7-4.36-.11-5.56-1.38-13C-3254,1481.89-3254.18,1482-3254.33,1481.1Z" transform="translate(3426.07 -1337.7)"/><path class="cls-55" d="M-3285.11,1474.25c1.5,7.76,8.95,10.79,15.75,12.56-1.38-.23-7.51-2.36-8.58.3,1.68-4.12-4.19-5-5.17-2.11a4.06,4.06,0,0,1,2.21-2.34c-0.62-.51-3.76-4.82-5.25-3.24a3.21,3.21,0,0,1,2.21-.51,14.36,14.36,0,0,1-1.16-4.66C-3283.52,1482.49-3285.14,1474.1-3285.11,1474.25Z" transform="translate(3426.07 -1337.7)"/><path class="cls-45" d="M-3290,1468.46a7.32,7.32,0,0,0,4.59,2.41c0.49-.78-1.16-1.84-1.4-2.71,1.42,3.87,9.71-4.57,13.77-4,8.22,1.09,8.44,8.44,11.41,14.05-3-6.4-6.43-14-14.69-12.54-2.78.47-10,5.56-10,8.48,0-2.25-1.87-4.11-3.71-5.66C-3288.54,1469.73-3290.1,1468.37-3290,1468.46Z" transform="translate(3426.07 -1337.7)"/><path class="cls-26" d="M-3216.88,1472c-1.5-5.71-4.1-12.78-10.47-14.22C-3220.32,1457.71-3217.23,1466.17-3216.88,1472Z" transform="translate(3426.07 -1337.7)"/><path class="cls-45" d="M-3213.14,1466.28a6.3,6.3,0,0,1-4.35,2.24c-0.23-.58,1.1-2.57,1.37-2.86-2.87,3.78-7.83-6.47-13.92-5.06-6.54,1.51-7.4,9.33-9.63,14,2.89-6,6.26-14.29,14.2-12.27,2.82,0.72,8.86,6.84,8.59,9.7,0.17-2.4,1.86-4,3.74-5.75C-3214.54,1467.54-3213,1466.19-3213.14,1466.28Z" transform="translate(3426.07 -1337.7)"/><path class="cls-26" d="M-3284.38,1470.68c0.67-6.24,5.74-12.34,12.42-9.65C-3278.56,1459.84-3282.41,1465-3284.38,1470.68Z" transform="translate(3426.07 -1337.7)"/><path class="cls-58" d="M-3207.57,1487.75c-1.14-9.25-17.57-6.28-18.23,1.73-0.78,9.46,19.51,8.87,18.23-1.73C-3207.79,1485.95-3207.11,1491.58-3207.57,1487.75Zm-10.84-.9c-2.37,4-4-.82-4.12-0.85-1-.22,6.81-3.65,4.12.85h0Zm2.15-3c0.07,0.05-2.81.44-1.28-.94C-3217.3,1482.85-3214.92,1482.7-3216.26,1483.88Z" transform="translate(3426.07 -1337.7)"/><path class="cls-59" d="M-3279.91,1499.26c11.78,1.61,14.29-10.56,3.22-13.58s-14.28,12.06-3.22,13.58h0Zm3.83-11.3c3-2.68,3.65,2.49,3.66,2.5,0.68,0.5-7.4.81-3.66-2.5C-3274.78,1486.78-3276.77,1488.56-3276.09,1488Zm-1.28-2c-0.53.54,1,1.87-1.16,1Q-3279,1485.44-3277.37,1486Z" transform="translate(3426.07 -1337.7)"/><path class="cls-60" d="M-3250.19,1510.05c0.4,0,4.6,0,4.61.11C-3245.4,1512.31-3250.74,1510.05-3250.19,1510.05Z" transform="translate(3426.07 -1337.7)"/><path class="cls-60" d="M-3243.72,1509.79c0.13,0.43-.08-0.41,0,0C-3243.68,1509.92-3243.74,1509.68-3243.72,1509.79Z" transform="translate(3426.07 -1337.7)"/><path class="cls-52" d="M-3249.42,1510.38a2.66,2.66,0,0,1,2.17.12A2.24,2.24,0,0,1-3249.42,1510.38Z" transform="translate(3426.07 -1337.7)"/><g class="cls-23"><path class="cls-24" d="M-3204.05,1483.55a15,15,0,0,0,.31-6.28,1,1,0,0,0,.86,1.34c0.44-.35,5.85-27.93,6.8-27-1.91-1.93-6.39,7.16-7.45,7.88-0.35.24,1.2-7.21,1.55-8-7.85,11.63-.86,23.76-4.28,36.3,6.85,1.75,10-10.63,10-14.82-0.35,2.85-1.62,9.23-4.77,10.69-0.43.2-3.8,2.39-3-.11h0Z" transform="translate(3426.07 -1337.7)"/></g><g class="cls-23"><path class="cls-24" d="M-3291.89,1468.07a28.37,28.37,0,0,0-7.28-9.85c-0.05-.09,3.6,5.54,2.57,6.14-1.23.72-4.61-3-6.15-2.9,4.09-.36,9.36,24.12,12.8,26.85q1.06,0,1-1.25c0.31,8.14-9.68-6.29-10-6.89-2.19,4.06,7.95,11.9,11.84,12.4-0.28-8.15-1.4-17-4.79-24.51h0Z" transform="translate(3426.07 -1337.7)"/></g><path class="cls-61" d="M-3234,1461.79a13.7,13.7,0,0,1,4.71-2.41C-3226.63,1458.69-3232.26,1457.31-3234,1461.79Z" transform="translate(3426.07 -1337.7)"/><path class="cls-61" d="M-3266.51,1465.7a13.8,13.8,0,0,0-4.72-2.41C-3273.88,1462.6-3268.24,1461.22-3266.51,1465.7Z" transform="translate(3426.07 -1337.7)"/><g class="cls-23"><path class="cls-24" d="M-3171,1672.84q0.86,1.48-.23,1.5c-1-1-4.44-5.92-4.53-6.79,0,0.11,4.54,13.17,2.77,12.74-0.49-.12-2-7.33-3.19-8.7,0.36,1.29,3.67,14.93,1.26,15.28-0.69.1-4.64-14.53-4.75-14s3.24,14.38,1.53,14.23c-4.58-.37-4.41-16.42-10.36-16.5-3.35,0,1,13.29-4.28,12.66-1.51-.18-0.9-15.06-0.89-16.13,0.14-17.08,7.67-10,17.15-4-7.29-6.69-11-9.31-11.1-19.17-1.1,2.14.52,7.57-2.08,9.27-3.22,2.11-11.39-34.86-11.73-37.53-0.82-6.58-2.29-15.38-.1-21.82,0.09-.25,5.14-11,7.58-5.32-1.4-3.27-5.46-4.7-7.07-9-2.08-5.47-2.17-12.51-2.75-18.23-0.64-6.38,1.51-24.31-2.54-29.64-0.42-.56-1.46,9.74-1.45,9.47-8.43-6.24-18.86-4-27.75-.16,0.45-.54,6.89-5.37,7.33-4.87-2.46-2.85-9.57,5.73-11.32,6.09-2.83.59-6.6-3.45-8.94-2.45,0.21-.09,4.23,2.52,4,2.94,0.49-1-17.25-2.9-20.11-2.14a21,21,0,0,0-8.24,4.1c0,0.45,0-7.54-.61-7.2-4.58,2.78-10.87,11.49-14.94,15.52-7.64,7.56-13.32,17.92-21.52,24.65,13.31-9.72,22.42-24.15,35.85-33.89-0.12,2.15,0,4.42.07,6.55,5.26-13.21,25.19-10.71,33.35-2,8.52-11.73,31.61-14.42,34.48,2.72,1.74,10.39.56,22,1,32.68,0.79,21,4,40,8.6,60.42,2.64,11.65.26,23.18,2.05,34.85,2.56,16.67,5.29-6.41,6.65-6,9.5,2.56,4.87,30.23,9.33,30.56-0.39,0,4.78-18.29,4.9-20.07,0.33,1.59,1.91,5.82,4,5.82,1,0-1.41-16.41-1.42-16.44C-3170.51,1675.6-3171,1672.69-3171,1672.84Z" transform="translate(3426.07 -1337.7)"/></g><g class="cls-23"><path class="cls-24" d="M-3337.58,1511.89a3,3,0,0,0,.81,3.49c-2.17-.38,5.34-8.53,5.36-8.59,2.22-5.83-3-11.85-.09-17.67-5.52,4.07,1.37,12.33-1.28,16.7s-13.24,5-17.82,6.45c1.07-.26,13.87-3.75,13-0.38h0Z" transform="translate(3426.07 -1337.7)"/></g><path class="cls-22" d="M-3270,1579.21c1.82,9.07-4.44,9.59-6.64,15.63-2.66,7.28,3.09,17.13,7.73,22,11.57,12.2,49.68,21.24,58.31,0,2.51-6.2-2.3-8.54-2.85-14.56-0.5-5.45,2.34-11.42,4.1-16.45s5-8.42,1.91-11.61c-3.32-3.44-15.27-3-19.38-3-14.69-.2-29.38,3.22-43.18,8C-3267.67,1590.69-3226.13,1564-3270,1579.21Z" transform="translate(3426.07 -1337.7)"/><path class="cls-26" d="M-3245,1615.44c0.55,1.8,1.57,2.56.15,4.44C-3244.92,1618.41-3245,1616.91-3245,1615.44Z" transform="translate(3426.07 -1337.7)"/><g class="cls-23"><path class="cls-24" d="M-3212.48,1595.52c1.2-4.25,8.32-17.37,6.73-20.64-1.21-2.49-12.2-3.13-14.21-3.34-11.77-1.21-23.78.46-35.21,3.25-3.59.88-9.4,1.33-12.22,3.56-3.91,3.09-1.08,2.76-2.61,8-1.11,3.79-4.68,4.71-6,7.41-7.91,15.78,15.49,31.8,28.13,34.41,10,2.07,22.5,1.37,31.11-4.75,3.08-2.19,7.25-5.94,7.49-10.11,0.41-7.07-5.52-9.42-3.17-17.78C-3210.41,1588.17-3214.55,1602.88-3212.48,1595.52Zm-24.83,31.72c-14.07-.18-44.73-12.24-36.78-32,0.7-1.73,3.81-3.78,4.87-5.82,2-3.84,1.07-7.22,3.93-9.85,4.25-3.9,16.67-4.44,22.23-5.16,11.63-1.5,23.47-2,34.88,1.17-1.89,6.61-3.82,17.16-8.29,22.5-3.79,4.52-8.31,4-13.17,6.1,5.81-2.55,17.88,3.35,17.22,10.37-1,10.4-17.23,12.75-24.89,12.66h0Z" transform="translate(3426.07 -1337.7)"/></g><path class="cls-57" d="M-3245.52,1614.14c0,0.8,1.32,6.07,1.09,6.17C-3240.61,1618.63-3245.52,1614.9-3245.52,1614.14Z" transform="translate(3426.07 -1337.7)"/><path class="cls-26" d="M-3179.48,1672.27a34.29,34.29,0,0,1,3.33,16.54C-3177,1683.25-3178.38,1677.79-3179.48,1672.27Z" transform="translate(3426.07 -1337.7)"/><path class="cls-26" d="M-3175.58,1672a17.07,17.07,0,0,1,2,11.41C-3174.12,1679.63-3174.78,1675.82-3175.58,1672Z" transform="translate(3426.07 -1337.7)"/><path class="cls-26" d="M-3175.69,1667.44c4.28,5.59,5.18,10,2.88,17C-3172.23,1677-3172.65,1674.07-3175.69,1667.44Z" transform="translate(3426.07 -1337.7)"/><path class="cls-31" d="M-3206,1552c0.9-18.9-26.74-14.35-34.49-3.69-6.61-7.28-20.55-10.08-28.64-3.94-9.56,7.26-3,25.22-.79,34.81,19.05-6.62,45.07-13.11,64.62-4.13-0.32-7.62-1.06-15.43-.69-23.05C-3205.93,1549.57-3206.2,1555.23-3206,1552Z" transform="translate(3426.07 -1337.7)"/><path class="cls-62" d="M-3206,1552c0.34-19.23-26.79-14.4-34.48-3.37-8.08-8.54-27.59-11.4-33,1.79,0.42,6.49,5.25,23.68,3.39,28.36,19.31-6.15,45.56-13.24,64.7-3.73Q-3205.82,1563.55-3206,1552Zm0,0q0.29,11.58.76,23.15c-20.42-8.72-45-1.88-65,4.59-1.58-7.79-6.31-21.67-4-29.58,4.11-14,26.54-10.49,33.9-2C-3234.17,1536.87-3205.47,1533.25-3206,1552Z" transform="translate(3426.07 -1337.7)"/><path class="cls-63" d="M-3206.05,1554.41c-0.25,20.84-35.88,19.88-33.26,1.07,2.22-16,32.87-20.53,33.26-1.49-0.27-19.17-24.89-18.93-34.48-5.66-6.61-7.28-20.55-10.08-28.64-3.94-9.56,7.26-3,25.22-.79,34.81,19.05-6.62,45.07-13.11,64.62-4.13-0.29-6.88-.61-13.77-0.7-20.66C-3206.1,1558.43-3206,1560.66-3206.05,1554.41Zm-48.28,17.67c-23.53,3.21-24-35,0-27.13,15.85,5.18,19.45,24.46,0,27.13h0Z" transform="translate(3426.07 -1337.7)"/><path class="cls-34" d="M-3206.05,1554c0,0.14,0,.28,0,0.42C-3206,1554.27-3206.05,1554.14-3206.05,1554Z" transform="translate(3426.07 -1337.7)"/><path class="cls-34" d="M-3269.71,1555.38c0.52,2-.53-2,0,0h0Z" transform="translate(3426.07 -1337.7)"/><path class="cls-34" d="M-3270.26,1551c0.55,1.91-.5-1.9,0,0C-3270.17,1551.32-3270.34,1550.7-3270.26,1551Z" transform="translate(3426.07 -1337.7)"/><path class="cls-34" d="M-3266.88,1551.39c0.53,2-.56-2,0,0C-3266.8,1551.7-3267,1551.09-3266.88,1551.39Z" transform="translate(3426.07 -1337.7)"/><path class="cls-34" d="M-3268.18,1548.48c0.54,2-.55-2,0,0C-3268.1,1548.79-3268.26,1548.17-3268.18,1548.48Z" transform="translate(3426.07 -1337.7)"/><path class="cls-34" d="M-3263,1546.11c0.51,2-.49-1.94,0,0C-3262.89,1546.41-3263,1545.8-3263,1546.11Z" transform="translate(3426.07 -1337.7)"/><path class="cls-34" d="M-3258.45,1545.11c0.51,2-.49-1.94,0,0h0Z" transform="translate(3426.07 -1337.7)"/><path class="cls-34" d="M-3254.61,1546.8c0.54,2-.56-2,0,0C-3254.53,1547.11-3254.7,1546.5-3254.61,1546.8Z" transform="translate(3426.07 -1337.7)"/><path class="cls-34" d="M-3252.39,1550.09c0.54,2-.53-2,0,0h0Z" transform="translate(3426.07 -1337.7)"/><path class="cls-34" d="M-3250.09,1552.31c0.54,2-.55-2,0,0h0Z" transform="translate(3426.07 -1337.7)"/><path class="cls-34" d="M-3249,1545.88c0.54,2-.55-2,0,0h0Z" transform="translate(3426.07 -1337.7)"/><path class="cls-34" d="M-3244.57,1547.64c0.54,1.92-.51-1.94,0,0C-3244.49,1547.94-3244.66,1547.34-3244.57,1547.64Z" transform="translate(3426.07 -1337.7)"/><path class="cls-34" d="M-3253.08,1543.74c0.55,2-.55-2,0,0h0Z" transform="translate(3426.07 -1337.7)"/><path class="cls-34" d="M-3246.18,1551.16c0.54,1.88-.5-1.91,0,0C-3246.1,1551.47-3246.27,1550.86-3246.18,1551.16Z" transform="translate(3426.07 -1337.7)"/><path class="cls-34" d="M-3242.66,1552.62c0.53,1.93-.5-1.93,0,0C-3242.58,1552.92-3242.74,1552.31-3242.66,1552.62Z" transform="translate(3426.07 -1337.7)"/><path class="cls-34" d="M-3239.67,1555.06c0.54,2-.56-2,0,0C-3239.58,1555.38-3239.75,1554.76-3239.67,1555.06Z" transform="translate(3426.07 -1337.7)"/><path class="cls-34" d="M-3236.22,1551c0.53,2-.52-2,0,0h0Z" transform="translate(3426.07 -1337.7)"/><path class="cls-34" d="M-3234.68,1548.86c0.53,2-.54-2,0,0h0Z" transform="translate(3426.07 -1337.7)"/><path class="cls-34" d="M-3232.15,1547.57c0.53,2-.55-2,0,0h0Z" transform="translate(3426.07 -1337.7)"/><path class="cls-34" d="M-3231.54,1545.11c0.53,2-.51-1.95,0,0h0Z" transform="translate(3426.07 -1337.7)"/><path class="cls-34" d="M-3230.17,1543c0.53,1.89-.47-1.9,0,0C-3230.08,1543.35-3230.24,1542.74-3230.17,1543Z" transform="translate(3426.07 -1337.7)"/><path class="cls-34" d="M-3223.19,1542.43c0.54,2-.55-2,0,0h0Z" transform="translate(3426.07 -1337.7)"/><path class="cls-34" d="M-3221,1546h0Z" transform="translate(3426.07 -1337.7)"/><path class="cls-34" d="M-3220,1549.25c0.54,1.94-.54-2,0,0h0Z" transform="translate(3426.07 -1337.7)"/><path class="cls-34" d="M-3215.37,1547.49c0.55,2-.54-2,0,0h0Z" transform="translate(3426.07 -1337.7)"/><path class="cls-34" d="M-3211.61,1546.41c0.54,2-.55-2,0,0h0Z" transform="translate(3426.07 -1337.7)"/><path class="cls-34" d="M-3209.39,1544.42c0.54,1.95-.54-2,0,0h0Z" transform="translate(3426.07 -1337.7)"/><path class="cls-34" d="M-3215.37,1541.59c0.54,1.93-.53-2,0,0C-3215.28,1541.89-3215.45,1541.28-3215.37,1541.59Z" transform="translate(3426.07 -1337.7)"/><path class="cls-30" d="M-3262,1543.75c8.66-.69,17,4.47,21.16,11.95C-3246,1549.06-3253.49,1544.45-3262,1543.75Z" transform="translate(3426.07 -1337.7)"/><path class="cls-30" d="M-3239,1554.93c2.38-9.33,11.5-14.3,20.69-13.33C-3227.27,1542-3235.44,1546.34-3239,1554.93Z" transform="translate(3426.07 -1337.7)"/></g></g></svg>