<svg xmlns="http://www.w3.org/2000/svg" xmlns:xlink="http://www.w3.org/1999/xlink" viewBox="0 0 309.8 549.79"><defs><style>.cls-1{isolation:isolate;}.cls-2,.cls-5{fill:#f5bc92;}.cls-3{fill:#9b4d05;}.cls-10,.cls-16,.cls-19,.cls-20,.cls-35,.cls-36,.cls-4,.cls-48,.cls-52,.cls-54,.cls-56{mix-blend-mode:multiply;}.cls-33,.cls-5,.cls-54,.cls-55,.cls-64{opacity:0.5;}.cls-11,.cls-26,.cls-33,.cls-41,.cls-5,.cls-57,.cls-64,.cls-65,.cls-66,.cls-67,.cls-68{mix-blend-mode:screen;}.cls-6{fill:#4c48b7;}.cls-7{fill:#202077;}.cls-11,.cls-8{fill:#30309e;}.cls-9{fill:#171775;}.cls-10,.cls-26,.cls-27{opacity:0.7;}.cls-12{fill:#dc1d1b;}.cls-13{fill:#ffd5b8;}.cls-14{fill:#b26118;}.cls-15{fill:none;}.cls-16,.cls-21,.cls-56{fill:#f7c7a2;}.cls-16,.cls-20,.cls-66{opacity:0.8;}.cls-17,.cls-19{fill:#cfcdf9;}.cls-18{fill:#6e6ec4;}.cls-22,.cls-27{fill:#a89ef7;}.cls-23{fill:#5858bf;}.cls-24{fill:#101070;}.cls-25{fill:#09096b;}.cls-28,.cls-55{fill:#fff;}.cls-29,.cls-33,.cls-57{fill:#eee0d3;}.cls-30{fill:#a59283;}.cls-31{fill:#d6c9bd;}.cls-32{fill:#b7a89c;}.cls-34{fill:#6a2b00;}.cls-35,.cls-36,.cls-48{opacity:0.6;}.cls-35{fill:url(#radial-gradient);}.cls-36{fill:url(#radial-gradient-2);}.cls-37{fill:url(#radial-gradient-3);}.cls-38{fill:url(#radial-gradient-4);}.cls-39{fill:#603008;}.cls-40{fill:url(#linear-gradient);}.cls-42{fill:url(#linear-gradient-2);}.cls-43{fill:#484abc;}.cls-44{fill:url(#radial-gradient-5);}.cls-45{fill:url(#radial-gradient-6);}.cls-46{fill:url(#linear-gradient-3);}.cls-47{fill:url(#linear-gradient-4);}.cls-48{fill:url(#radial-gradient-7);}.cls-49{fill:#ff755c;}.cls-50{fill:url(#linear-gradient-5);}.cls-51{fill:#6f0003;}.cls-52{opacity:0.4;}.cls-53{fill:#b5a091;}.cls-58{fill:#564eef;}.cls-59{fill:#8c8cf2;}.cls-60,.cls-65{fill:#00217d;}.cls-61{fill:#2d51a0;}.cls-62,.cls-64,.cls-66{fill:#36a2ea;}.cls-63{fill:#8eccef;}.cls-67{fill:#123d9e;}.cls-68{fill:#0d3793;}</style><radialGradient id="radial-gradient" cx="-1629.12" cy="2339.92" r="13.99" gradientTransform="matrix(0.98, 0.18, -0.18, 0.98, 149.35, 4.75)" gradientUnits="userSpaceOnUse"><stop offset="0.44" stop-color="#f58f92"/><stop offset="0.99" stop-color="#fff"/></radialGradient><radialGradient id="radial-gradient-2" cx="-1290.12" cy="2736.77" r="10.69" gradientTransform="matrix(0.96, 0.26, -0.26, 0.96, 51.61, -295.34)" xlink:href="#radial-gradient"/><radialGradient id="radial-gradient-3" cx="-1695.81" cy="2364.38" r="15.34" gradientTransform="matrix(1.02, 0.04, -0.04, 1, -59.95, -295.8)" gradientUnits="userSpaceOnUse"><stop offset="0.33" stop-color="#fff"/><stop offset="1" stop-color="#dfb798"/></radialGradient><radialGradient id="radial-gradient-4" cx="-1946.76" cy="2263.67" r="16.17" gradientTransform="translate(70.94 -261.05) rotate(0.14)" xlink:href="#radial-gradient-3"/><linearGradient id="linear-gradient" x1="-1804.22" y1="2322.03" x2="-1804.22" y2="2337.66" gradientTransform="translate(11.83 -260.14) rotate(2.11)" gradientUnits="userSpaceOnUse"><stop offset="0.01" stop-color="#2b2c5e"/><stop offset="0.78" stop-color="#34357b"/><stop offset="1" stop-color="#484abc"/></linearGradient><linearGradient id="linear-gradient-2" x1="-1808.82" y1="2330.52" x2="-1797.61" y2="2330.52" gradientTransform="translate(11.83 -260.14) rotate(2.11)" gradientUnits="userSpaceOnUse"><stop offset="0.01" stop-color="#2b2c5e"/><stop offset="0.78" stop-color="#34357b"/><stop offset="1" stop-color="#484abc"/></linearGradient><radialGradient id="radial-gradient-5" cx="-1669.18" cy="2681.64" r="11.44" gradientTransform="matrix(0.77, 0.19, -0.25, 0.97, 34.06, -289.31)" xlink:href="#radial-gradient-3"/><radialGradient id="radial-gradient-6" cx="-1844.78" cy="2605.26" r="12.34" gradientTransform="matrix(0.76, 0.15, -0.22, 0.98, 65.39, -272.31)" xlink:href="#radial-gradient-3"/><linearGradient id="linear-gradient-3" x1="-1395.45" y1="2649.76" x2="-1395.45" y2="2661.13" gradientTransform="matrix(0.97, 0.24, -0.24, 0.97, 84.01, -243.97)" xlink:href="#linear-gradient"/><linearGradient id="linear-gradient-4" x1="-1398.12" y1="2655.64" x2="-1391.46" y2="2655.64" gradientTransform="matrix(0.97, 0.24, -0.24, 0.97, 84.01, -243.97)" xlink:href="#linear-gradient-2"/><radialGradient id="radial-gradient-7" cx="-1271.2" cy="2756.25" r="17.03" gradientTransform="matrix(0.96, 0.26, -0.26, 0.96, 51.61, -295.34)" gradientUnits="userSpaceOnUse"><stop offset="0.44" stop-color="#f8a2a2"/><stop offset="0.99" stop-color="#fff"/></radialGradient><linearGradient id="linear-gradient-5" x1="-1279.37" y1="2752.27" x2="-1256.19" y2="2752.27" gradientTransform="matrix(0.96, 0.26, -0.26, 0.96, 51.61, -295.34)" gradientUnits="userSpaceOnUse"><stop offset="0.07" stop-color="#eed8c7"/><stop offset="0.46" stop-color="#fff"/><stop offset="1" stop-color="#dfb798"/></linearGradient></defs><title>fairy_13</title><g class="cls-1"><g id="Layer_1" data-name="Layer 1"><path class="cls-2" d="M-1816.38,2357.37c-10-2.36-17.19-21.49-21.21-29.33-7.91-15.44-14.35-32-25.11-45.75-4-5.09-7.44-7-8.28-12.46-0.87-5.67,3.68-7.25-3.92-10.32-6.19-2.5-14.11,1.44-17,6.85-10.91,20.66,18,43.72,29.51,56.63,7.46,8.35,16,16.7,22.2,26,8.34,12.48,5.51,27.57.57,41,3.85-8.59,12.17-31.3,23.21-32.61C-1824.2,2355.53-1824.74,2358.37-1816.38,2357.37Z" transform="translate(2038.64 -1913.25)"/><path class="cls-3" d="M-1839.2,2390.15c-0.86-2.75,2.15-9.42,2.86-13.12,1.22-6.4,2-13.49,0-19.83-3.54-11.44-15.42-21.62-23.14-30.33-9.17-10.33-20.27-20.22-28.15-31.57-7-10-11.44-31.74,4.14-36.07,5.42-1.51,12.21-.74,13.88,5,0.74,2.55-2.06,6.18-1.26,8.66,1.69,5.25,11.36,12.88,14.52,17.87,9.37,14.83,15.64,31.42,24.22,46.7,3.81,6.78,9.16,18.91,18.09,20C-1826.73,2357.7-1834.88,2380.5-1839.2,2390.15Zm-35.8-130.25c-16.61-4.51-20,13.44-16.43,25.34,3.67,12.34,15.34,21.83,23.68,31.1,9,10,18.69,19.93,26.68,30.82,8.2,11.18,7.69,23.52,4,36.47,4-8.23,9.86-22.85,19.27-26.33-8.22-3.92-13.4-16.29-17.37-23.71-7.51-14-13.4-29-21.93-42.5-3.56-5.62-11.2-11.39-13.8-17.15-2.12-4.69,4-11.82-4.1-14h0Z" transform="translate(2038.64 -1913.25)"/><g class="cls-4"><path class="cls-2" d="M-1829.9,2342.14c0.85,1.75,8.64,11.69,4.51,13.22-3.19,1.19-10.72-11-12.15-12.93-10.83-14.44-25.27-27.09-34.85-42.21-3.12-4.93-14.08-26.42-.05-23.84,9,1.66,17.46,18,21.76,25.07-5-9.53-11.64-16.89-17.55-25.58-3.72-5.47-.51-4-1.9-10.82-1.91-9.32-16.57-6.93-21.15,0-5.2,7.89-1.37,21.58,3.26,28.8,9.55,14.9,24.53,27.56,36.11,40.92,5.32,6.14,12.32,12.77,15.32,20.45,4.24,10.88.89,24.23-3,34.73,3.85-8.59,12.17-31.3,23.21-32.61-6.09-1.43-10.75-10.56-13.53-15.23C-1829.51,2343-1824.76,2350.78-1829.9,2342.14Z" transform="translate(2038.64 -1913.25)"/></g><path class="cls-3" d="M-1871.5,2272.92a10.73,10.73,0,0,0-7.2-1C-1876.33,2270.23-1873.54,2270.81-1871.5,2272.92Z" transform="translate(2038.64 -1913.25)"/><path class="cls-5" d="M-1865.94,2285.8s9.51,11,22.09,34.4C-1840.64,2325.81-1853.11,2293.35-1865.94,2285.8Z" transform="translate(2038.64 -1913.25)"/><path class="cls-6" d="M-1816.38,2357.37c-10.67,1.27-18.56,22.47-22.32,30.66-2.82,6.14-4.79,13.37-9.56,18.38-2.74,2.88-12.1,6.49-9.74,10.61,3.31,5.8,13.34,1,16.69-1.57,7.23-5.65,10.77-16.39,14.86-24.26,1.29-2.49,20.63-37.93,24.48-20.39,0.42-8.56-7.49-11.8-14.41-13.42C-1824.74,2358.37-1808.55,2359.21-1816.38,2357.37Z" transform="translate(2038.64 -1913.25)"/><path class="cls-7" d="M-1853.59,2419.89c-12.84-2.62,1.38-9.95,5-13.67,7.07-7.35,9.76-19.51,14.55-28.44,3.33-6.2,9.44-19.84,17.67-20.83,9.25-1.12,15.82,9,14.72,17-0.76-21.65-21.13,11.27-22.76,14.34C-1830.52,2399.76-1836.93,2421.32-1853.59,2419.89Zm37.2-62.09c-10,1.35-17.51,20.9-21.09,28.64-3,6.43-5,13.91-9.74,19.33-1.82,2.09-11.41,7.08-11.25,10,0.32,5.8,12,2.44,14.41,1.11,8.07-4.4,11.76-15.19,15.7-22.86,2-4,16.76-38.11,25.79-25.67-1.36-6.82-7.79-9.14-13.83-10.56C-1824.59,2358.9-1809.12,2359.51-1816.4,2357.79Z" transform="translate(2038.64 -1913.25)"/><path class="cls-8" d="M-1807.56,2366.37c-8.93-.72-17.13,21.42-20,27.08-5.35,10.42-11.36,27.25-25.92,26,16.84,5.39,27.66-5.3,36.58-18.47,3.3-4.88,24-33.47,9.38-34.64h0Z" transform="translate(2038.64 -1913.25)"/><path class="cls-9" d="M-1851.89,2420.39c-1.75-.46-3.49-1.06-5.21-1.63,15.41,2.35,21.5-10.54,27.54-22.38,2.72-5.33,14.26-35.72,24.92-29.71,10.24,5.77-8.91,30.19-12.54,35.49C-1825.58,2414.41-1836.11,2424.69-1851.89,2420.39ZM-1806,2367c-17.23-4.61-23.78,50.86-44.55,52.83,14.63,3.56,24.58-6.44,32.38-17.73,3-4.39,23.17-32.11,12.17-35.1h0Z" transform="translate(2038.64 -1913.25)"/><g class="cls-10"><path class="cls-8" d="M-1802,2370.79c-3.61-16.47-20.81,13.42-22.25,16.12-6.12,11.45-12.56,34-29.3,32.57,5.66,1.81,11.37,2.67,17,.36-5.65-1.2,1.22-7.74,3.59-9.33,1.67-1.12,2.07-2.24,4-3,3.86-1.45,3.63,4.71,7,.46-13-5.22-.6-19.36,4.63-27.35,7.29-11.12,17.21-11.82,10.5,3.45,2.12-4,4.51-8.64,4.74-13.3C-1802.52,2368.23-1802.14,2374.34-1802,2370.79Z" transform="translate(2038.64 -1913.25)"/></g><path class="cls-11" d="M-1824.14,2366.38c-7.48,10.37-11.45,21.88-17.22,33.11-2.45,4.76-16.37,14.31-7.51,14.42,11.44,0.13,18.78-21.84,23-29.87C-1824.58,2381.67-1813.32,2356.37-1824.14,2366.38Z" transform="translate(2038.64 -1913.25)"/><path class="cls-12" d="M-1899.89,2446.06c1.22-2.36,2.55-4.68,4-6.92A11.41,11.41,0,0,1-1899.89,2446.06Z" transform="translate(2038.64 -1913.25)"/><path class="cls-13" d="M-1878.12,2390.8c-14.69-10.5-5.75-38.41-4.57-53.31,1.94-24.31-6.63-46.63-6-70.68-6.22.48-21.16-1-24,3.55-1.88,3.07.57,13.26,0.89,16.36,1.36,13.21,3.87,26.23,6.15,39.3,3.55,20.4,7.61,41.85,8.23,62.61,0.49,16.43-3.81,36,.39,53,3-11.56-.92-52.23,18.87-50.87C-1878.32,2390.66-1885.65,2390.28-1878.12,2390.8Z" transform="translate(2038.64 -1913.25)"/><path class="cls-14" d="M-1897,2443.43c-4.15-15.63-1.51-35.1-.26-50,0.83-9.87-2.31-22-3.52-31.93-1.65-13.63-3.79-27.18-6.2-40.69-2.17-12.15-4.36-24.31-5.48-36.61-0.26-2.83-2.39-11.77-.61-14.38,3-4.37,18.68-3,24.81-3.46-0.64,23.57,7.88,45.59,6.14,69.35-1.12,15.33-11.15,45.62,5.51,55.65C-1897.5,2388.49-1893.87,2431.55-1897,2443.43Zm-15.14-174.38c-2.5,29.71,8.37,61.25,12,90.56,0.94,7.53,1.7,15.08,2.5,22.63,0.83,7.89-.34,12.54-0.54,19.83-0.07,2.62,1.1,6.27,1.09,9.44,0,9.46-1.73,18.51.06,28,1.71-11.39-.31-48.19,17.52-49.15-14.43-10.71-4.27-42.37-3.33-57,1.46-22.63-6.78-43.64-6.31-66.12Z" transform="translate(2038.64 -1913.25)"/><path class="cls-15" d="M-1885.75,2369l0.1-2q0,1-.1,2C-1885.72,2368.39-1885.73,2368.46-1885.75,2369Z" transform="translate(2038.64 -1913.25)"/><path class="cls-13" d="M-1885.65,2367.09c0.41-6.23,1.22-12.42,1.89-18.62-1.28,6.08-1.55,12.44-1.89,18.62C-1885.32,2362-1885.33,2361.14-1885.65,2367.09Z" transform="translate(2038.64 -1913.25)"/><path class="cls-14" d="M-1886.08,2367.07a137.82,137.82,0,0,1,1.9-18.7C-1883.21,2351.4-1883.72,2364.46-1886.08,2367.07Z" transform="translate(2038.64 -1913.25)"/><path class="cls-16" d="M-1885.75,2369c-0.11,2.08.27,17.37-3.86,16.5-2.86-.6-3.52-7.87-3.9-9.8-2.93-14.9-2.89-30.49-4.46-45.57-1.51-14.47-7.06-31.64-2.87-46,0.77-2.63,1.93-7.38,5.21-8.17,7.84-1.89,7.87,11,9.16,15.67a123.67,123.67,0,0,1-2.23-24.85c-6.22.48-21.16-1-24,3.55-1.88,3.07.57,13.26,0.89,16.36,1.36,13.21,3.87,26.23,6.15,39.3,3.55,20.4,7.61,41.85,8.23,62.61,0.49,16.43-3.81,36,.39,53,3-11.56-.92-52.23,18.87-50.87-7.12-5.09-8-13.52-7.63-21.76C-1886.32,2379.76-1886.33,2382.88-1885.75,2369Z" transform="translate(2038.64 -1913.25)"/><path class="cls-5" d="M-1890.07,2293.7c2,6.26,7.76,50,4,50.32,4.32-.43,2.5-26.5,2.22-28.82-0.38-3.19-7.07-22.26-6.35-23.76A5.31,5.31,0,0,0-1890.07,2293.7Z" transform="translate(2038.64 -1913.25)"/><path class="cls-6" d="M-1885.92,2424.94c0.64-2.9,8.45-33.61,16.86-22.86-1.09-15.51-17.15-11.62-21.63-.64-5.1,12.5-2.45,26.53-6.1,39.19-0.74,2.58-11.15,24.29-.65,22,7.16-1.55,10.33-32.31,11.53-37.71h0Z" transform="translate(2038.64 -1913.25)"/><path class="cls-7" d="M-1899.11,2462.81c-7.45-4.14-1.27-13.83.68-19.46,3.42-9.84,2.82-21.11,4.72-31.46,1.28-7,4.33-22.31,14.41-21.46,5.1,0.43,11.07,7.74,10.75,13-8.37-12.44-16.08,17.92-17,21.62C-1886.69,2430.08-1891.29,2465-1899.11,2462.81Zm-0.38-1c8,3.31,15.72-72.88,29.88-60.9-1.31-8.47-10.7-11.6-16.6-6.37s-6.77,17.21-7.71,24.3c-1.12,8.39-1.13,17-3.8,25-1.64,4.88-7.71,13.63-1.76,18C-1899.3,2461.89-1904.61,2458-1899.49,2461.81Z" transform="translate(2038.64 -1913.25)"/><path class="cls-8" d="M-1872.07,2429.21c0.59-4.26,6.32-23.45,3-27.12-5.21-5.78-10,2.83-11.87,6.61-7.57,15.36-4,41.57-16.51,54,17,0.95,23.59-20.7,25.37-33.45C-1870.66,2419-1873.89,2442.21-1872.07,2429.21Z" transform="translate(2038.64 -1913.25)"/><path class="cls-9" d="M-1898.4,2463c8.55-8.42,9.2-25.26,11.68-36.3,0.56-2.48,8.92-37,18-24.89,3.91,5.23-3.07,30.44-4.63,36.47C-1876.35,2449.82-1884.53,2463.77-1898.4,2463Zm26.8-62.26c-13.66-3.62-18.45,53.7-24.91,61.49,12.51-.5,19.64-13.71,22.35-24.21,1.38-5.33,8.38-35.67,2.56-37.28h0Z" transform="translate(2038.64 -1913.25)"/><g class="cls-10"><path class="cls-8" d="M-1888.59,2450.45c2.76-9,11.88-2.07,14.12-9.66-2.57.23-8.47,2.67-10.75,0.69-3.4-2.95,1.36-14.74,2.27-17.93,2-7.17,14.2-30.39,13-9.18,0.72-5.38,3.37-16.2-5.38-13.35-4.66,1.52-7,10.76-8.21,14.69-4.24,13.27-3.43,36.57-13.92,46.94,4.84,0.27,9.74-2.67,13.28-5.66-6.39,4-6-1.47-4.43-6.54h0Z" transform="translate(2038.64 -1913.25)"/></g><path class="cls-11" d="M-1887.36,2399.79c-3.77,4.94-11.22,39.9-5.56,41.25,1.08,0.26,6-22,6.51-24C-1885.79,2414.73-1879.41,2394.84-1887.36,2399.79Z" transform="translate(2038.64 -1913.25)"/><path class="cls-11" d="M-1896.55,2445.58s-5,8.83-3.19,11.72S-1890.77,2442-1896.55,2445.58Z" transform="translate(2038.64 -1913.25)"/><path class="cls-17" d="M-1905.21,2104.37c-11.91,15.94,13.81,35-2.86,52.77q15,9.21,29.87,18.59c4.4,2.78,12.13,9.84,16.16,8.38,3.83-1.39,10.17-9.56,13.42-12.3,2.52-2.12,8.07-4.83,9.56-7.72,1.72-3.34-1.36-7.22-2.45-11.42-2.63-10.16.6-19.81,2.44-29.88-22.7,17.06-48.46-4.28-66.15-18.42C-1906.18,2105.67-1888.87,2117.43-1905.21,2104.37Z" transform="translate(2038.64 -1913.25)"/><path class="cls-18" d="M-1863.12,2185.86c-15.05-9.78-30.3-19.24-45.6-28.63,16.85-17.83-9.61-38.4,3.44-53.45,18,14.46,44,35.93,66.82,18-1.18,6.58-3.35,13.38-3.73,20.07-0.36,6.51,5.9,16,4.81,21.06-0.39,1.79-5.84,5-7.18,6.05A168.51,168.51,0,0,0-1863.12,2185.86Zm-44.3-28.81q12.93,7.93,25.77,16c3.85,2.42,12.43,10.29,16.63,10.58s8.31-5.37,12.29-8.85c3.23-2.82,7.48-5.35,10.3-8.56,4.2-4.77,4.07-2.68,1.69-9.95-3.78-11.51-1.06-20.89,1.1-32.54-22.59,16-48.05-4.71-65.47-18.78-11.31,15.77,14,34.22-2.29,52.08C-1900.63,2161.22-1897.69,2146.35-1907.42,2157.05Z" transform="translate(2038.64 -1913.25)"/><path class="cls-19" d="M-1839.06,2122.79c-22.7,17.06-48.46-4.28-66.15-18.42-11.91,15.94,13.81,35-2.86,52.77q15,9.21,29.87,18.59c4.4,2.78,12.13,9.84,16.16,8.38,3.83-1.39,10.17-9.56,13.42-12.3,2.52-2.12,8.07-4.83,9.56-7.72,1.72-3.34-1.36-7.22-2.45-11.42-2.63-10.16.6-19.81,2.44-29.88C-1862.38,2140.32-1843.19,2145.42-1839.06,2122.79Zm-20.77,9c0.78,0,10-1.39,10.08-1,1.12,3.23-6.65,7.48-8.65,7C-1860.73,2137.23-1864.52,2132.84-1859.83,2131.79Zm-9,18.84c2.33-.79,14.24-7.5,11.71-1.18C-1860.18,2157.08-1869.93,2151.21-1868.82,2150.63Zm8.9,12.09c6.31,2-3.5,6.85-6.28,3.42-2.56-3.17,2.76-4.54,6.28-3.42h0Zm-16.42-2.92c1.53-2.55,4.37-6.07,7.16-1.83,1.22,1.86-7.54,2.45-7.16,1.83C-1875.65,2158.64-1877.05,2161-1876.35,2159.81Zm-2.25,12.55c-12.14-7.51,11.37-5.12,9.17-.92-1.44,2.75-7.12,2.19-9.17.92h0Zm16.68,8.4c-2.81,2.65-7.76-.34-4.09-3.68,3.84-3.49,10.2-2.08,4.09,3.68h0Zm13.19-15.76c5-5-1-3.13-3.29-5.73-4.09-4.58-3.82-.67-0.09-6.8,2.64-4.32,2.57-3,3.17-6.69,0.33-2-3.8-1.7-2.85-4.63,3-9.09,8.58,12.71,9,14.11,1.25,4.51,2.64,4.72.12,8.74-0.62,1-9.71,7.18-10,6.54-0.57-1.17,3.76-5.33,4-5.55h0Z" transform="translate(2038.64 -1913.25)"/><path class="cls-13" d="M-1821.27,2110.31c-3.77-14.44-7-32.71-19.75-42.26-3.37-2.53-9.75-3.55-12.07-7.25s1.58-8.89-.14-11.7c-1.51-2.45-4.57-2.48-7.12-2.72a23.38,23.38,0,0,0-10.25,1.77c-13.14,6.17-1.28-1-4.65,4.06-4.4,6.65-2.18,9.56-12.58,11.86-7.21,1.59-14,.25-19.89,5.52-11.14,9.94-16.49,30.72-23.4,43.59-7.83,14.58-14.46,23.7-28.11,32.89-7.44,5-14.24,11.29-21.8,16.05-6.84,4.31-13.11,4.68-21.24,5a80.08,80.08,0,0,0-23.9,4.76c-3.58,1.24-12.54,5-2.17,5.87-2,3.32-10.57,9.49-10.28,12.8,0.44,4.93,8-1.74,10-3.26-8.6,9.94-7.48,14,2.93,2.95-3.24,5.89-8.32,12.43-1.3,11.13,4.7-.87,6.3-5.37,10.31-8.59,5.51-4.43,8.37-3.47,15.35-5.19,7.81-1.93,11.92-6.26,17.84-11.18,15.36-12.76,36.1-17.42,50-32.41,11-11.92,20.74-29.42,28.36-39.62,17.7,14.15,43.43,35.5,66.15,18.42,5.72,10.93,2.94,23,2.38,34.56-0.38,7.92,1.46,7.68,8.07,12.68,10.21-17.62,12.45-40.16,7.34-59.72C-1826.75,2089.29-1815.78,2131.32-1821.27,2110.31Z" transform="translate(2038.64 -1913.25)"/><path class="cls-14" d="M-2029.69,2203.59c-4-1.06,1.42-9.56,2-10.66-7.11,7.41-10.46,5.12-3.72-3.07-14.77,10.26-.37-7.35,2.33-11.76-10-1.5-.93-5.4,2.78-6.65,9.92-3.33,18.67-4.27,29-4.93,16.72-1.08,34.06-16.57,46.84-26.85,13.22-10.64,20.26-28.72,27.54-43.53,3.88-7.9,7.19-18.31,13.25-24.89,7.22-7.85,14.94-5,24.08-8.16,5.27-1.81,7-3.19,9.58-8,0.14-.26-0.1-5.27.28-5.69,3.09-3.36,19-5.64,22.32-1.14,2.55,3.48-2,7.94.56,11.91,2.72,4.21,9.79,5.57,13.62,8.86,11.74,10.11,15.8,28.89,18.9,43.37,4.18,19.53,2.1,40.86-8.13,58.3-6.42-4.86-8.37-4.74-8.92-11.55-1-12.25,4.18-23.55-1.81-35.68-22.67,16.54-48.29-4.32-65.92-18.45-7.71,10.72-14.32,22.47-22.74,32.91-10.49,13-23.28,20.37-37.9,28.24-13.75,7.39-24.3,19.32-39.66,22.66-6.35,1.38-9.1,1.59-14.14,6.75-1.61,1.64-6.53,9-10.12,8h0Zm6-16.12c-1.37,2.49-10.47,19.69-3.44,13.09,3.72,1.42,11.13-10.3,15.57-12,6.49-2.49,13.15-1.14,19.51-5.12,7.77-4.86,13.27-11.26,21.6-15.79,16.74-9.1,31.56-17,43.44-32.21,7.93-10.13,14.37-21.32,21.72-31.7,17.33,13.89,44.23,36.35,66.38,18.39,4.7,9.27,4.49,20.41,3.33,30.48-1.23,10.73-1.57,10.41,6.84,16.77,10.16-17.86,11.6-39.26,7.05-59-3.27-14.21-7.14-32.4-19.34-41.81-3.95-3-10.66-4.15-13-8.78-3.47-6.81,4.48-11.54-6.36-13a22.26,22.26,0,0,0-9.84,1.67c-8.73,3.93-1.24,1.6-5.21,7.38-5.71,8.33-11.39,7.82-20.87,9.62-17.71,3.37-22.59,24.83-29.94,39.28-7.68,15.11-14.56,29.19-28.66,39-8.6,6-16.87,12.7-25.57,18.48-7.32,4.86-13.68,5-22.56,5.32-7.65.32-20.22,1.16-26.52,5.69-3.35,2.4-4.4,3.83,1.93,4.11-1.86,3.23-11.5,11.64-10.83,14.43,0.27,1.06,10.93-4.17,10.14-4.22-1.38,1.6-7.3,7-6.66,9.51C-2034.61,2198.52-2025.09,2188.94-2023.71,2187.48Z" transform="translate(2038.64 -1913.25)"/><g class="cls-20"><path class="cls-21" d="M-2005.38,2186.43c-4.95.52-6.92,0.61-11.1,3.62-1.13.82-8.53,8.2-8.5,8.26-1.48-3.68,9-15.3,11.43-16.31-9.8,4.23-11.47.55-2-4.78-10.86,3.54-10.86,2.2-1-4.52-1.76,1-8.77,6.29-10.92,5-2.39-1.38,19.89-10.25,23.37-10.62-7.26,0-17.63,1.75-23.94,5.26-3.21,1.79-9.64,4.56-.34,5.37-2,3.32-10.57,9.49-10.28,12.8,0.44,4.93,8-1.74,10-3.26-8.6,9.94-7.48,14,2.93,2.95-7.07,12.85-4.36,14.9,4.69,6.74,3.79-3.42,6.4-6.6,11-8.08,7.23-2.32,13.79-1.48,20.28-6.64-4.48,3.33-10.34,3.62-15.66,4.18h0Z" transform="translate(2038.64 -1913.25)"/><path class="cls-21" d="M-1821.27,2110.31c-2.91-11.15-5.44-23-11.54-33,4.24,7-8,10.89-12.57,11.75-10.09,1.92-17.73-2.1-26-7.56-1.85-1.22-8.85-4.76-9.1-7.25-0.44-4.42-.76-1,3.17-3.92s8.11-3.36,11.22-7.54c0.94-1.27,2.07-10.31,4.7-9.63,0,0,.38,6.39,1.16,7.12s2.76-4,3.11-4.26c-4.93,3.78,4.37,7.57,5.71,8.22a74.94,74.94,0,0,0,10,3.49c-6.42-4.68-11.66-3.93-12.56-12.6-0.62-6,2.84-6.59-4.15-8.64-3.25-1-9.56.27-12.47,1.64-7,3.3-2.19.93-4.83,6-5.61,10.7-12.57,8.58-23.51,11.24-9.4,2.28-12.83,9.43-17,17.54-6.29,12.21-12,24.69-18.69,36.68-11.51,20.47-29.89,29.78-48.15,43.9,5-3.3,10-6.82,15-10,4.28-2.72,18-13.71,23.55-11.84,8.16,2.75-7.24,13.87-10.71,16.12-9.58,6.24-21.44,8.81-28.42,18.53,14.67-13.38,36-17.3,49.78-32.25,11-11.87,20.76-29.45,28.36-39.62,17.7,14.15,43.43,35.5,66.15,18.42,5.72,10.93,2.94,23,2.38,34.56-0.38,7.92,1.46,7.68,8.07,12.68,10.21-17.62,12.45-40.16,7.34-59.72h0Z" transform="translate(2038.64 -1913.25)"/></g><path class="cls-14" d="M-1907.59,2107.75a107.19,107.19,0,0,1,10.9-16.66A107.77,107.77,0,0,1-1907.59,2107.75Z" transform="translate(2038.64 -1913.25)"/><path class="cls-14" d="M-1835.16,2099.64c-0.12,7.76-1.13,15.86-3.9,23.15C-1837.56,2115.11-1836.55,2107.35-1835.16,2099.64Z" transform="translate(2038.64 -1913.25)"/><path class="cls-14" d="M-2028.26,2177.43c2.66-4.65,8.72-6.56,13.47-8.33C-2019.16,2172-2024.69,2173.53-2028.26,2177.43Z" transform="translate(2038.64 -1913.25)"/><path class="cls-14" d="M-2029.38,2187.94c5.6-8.41,5.28-11.87,16-17.11-4.06,2.87-9.08,5.29-12.1,9.29C-2027.24,2182.48-2027.14,2185.58-2029.38,2187.94Z" transform="translate(2038.64 -1913.25)"/><path class="cls-14" d="M-2026.71,2191.51c4.28-8.18,3.8-10.06,12.28-15-2.4,2.08-5.94,3.43-7.82,6S-2024.57,2188.8-2026.71,2191.51Z" transform="translate(2038.64 -1913.25)"/><path class="cls-14" d="M-2013.66,2183c-5.84,6.45-9.32,10.69-13.52,18.66C-2024.11,2192.44-2020.79,2188.77-2013.66,2183Z" transform="translate(2038.64 -1913.25)"/><g class="cls-20"><path class="cls-21" d="M-1868.17,2056.3c2.3-5,15.36-5.76,15-7-1.36-5.13-12.89-2.24-15.42-1.65-10.79,2.53-3.42,7.89-11.67,13.89-8.8,6.41-21.67.17-29,9.84,15.71-5.88,30.57.92,41-15.06C-1865.13,2049.74-1873.71,2064.75-1868.17,2056.3Z" transform="translate(2038.64 -1913.25)"/></g><path class="cls-12" d="M-1921.26,2263.3c0-.19,2-0.1,0,0h0Z" transform="translate(2038.64 -1913.25)"/><path class="cls-6" d="M-1906.82,2208.74c-10.36,15.29-16.35,34.53-22.72,51.76l8.75,2.63c3.38-18.34,7.55-36.85,14-54.39C-1914.93,2220.7-1915.1,2231.33-1906.82,2208.74Z" transform="translate(2038.64 -1913.25)"/><path class="cls-6" d="M-1970.66,2235.34l3.85,6.56a408.2,408.2,0,0,1,32.4-43.78C-1949,2206.62-1960.55,2222.11-1970.66,2235.34Z" transform="translate(2038.64 -1913.25)"/><path class="cls-6" d="M-1882.45,2263.09c8,1.35,5.17-7.67,5.25-12.78,0.18-11.88.48-23.88,2.15-35.66C-1882.2,2228.74-1882.21,2247.58-1882.45,2263.09Z" transform="translate(2038.64 -1913.25)"/><path class="cls-22" d="M-1828.61,2170c-2.89-2.19-6.9-6.66-10-6.31-5.38.62-15.92,13-19.75,16.68-6.18,5.93-7.23,3.37-14.13-1q-7.53-4.8-15.11-9.53c-4.08-2.55-16.15-12.79-20.87-12.32-2.92.29-8.48,5.94-10.61,7.49q-11.87,8.63-23.25,17.92a340.66,340.66,0,0,0-26.65,24c-10.75,10.89-15.68,18.3-4.86,31.61,13.18-13.23,22.83-30.72,39.39-40.38-10.24,12.27-25.14,27.17-31.44,42.26-5.32,12.74,12.84,20,23.32,23.79,8.18,2.93,9.61,3.47,13.07-3.9,1.71-3.64,2.87-7.63,4.33-11.38,5.24-13.43,10.18-28.17,18.31-40.16-5.7,15.57-12.59,35.16-13.51,51.93-0.61,11.15,8.76,11.27,18.59,10.69,3.53-.21,15.35-0.17,18.21-3.2,1.74-1.84,1-6.54,1.19-9.14,0.8-14.37.64-31.25,7.3-44.37-1.82,12.78-2.07,25.84-2.19,38.73-0.06,6.93-1.82,12.72,6.2,13.83,10.82,1.49,28-6.25,38-9.08-6.6-13.44-12.73-28.78-13.39-43.85a277.61,277.61,0,0,0,11.93,28.37c1,2.13,3.27,9,6.28,10,4,1.32,8.64-3.26,12.33-5.14,8.12-4.13,16.87-7.87,26-9a226.2,226.2,0,0,0-17-26.18,182.37,182.37,0,0,1,12.48,14.47c1.55,2,5.2,9.15,7.24,10.47,3.77,2.44,9.79,1,13.91,3.33-2.67-9.2-10.24-18-15.83-25.47A403.41,403.41,0,0,0-1828.61,2170Z" transform="translate(2038.64 -1913.25)"/><path class="cls-23" d="M-1938,2266.13c-11.07-3-35.13-12.38-27.92-26.46s19.42-27.6,29.46-39.77c-15.34,10.5-23.85,27.22-37.42,39.22-13.34-16.07-3.35-25,9.34-37.17a414.52,414.52,0,0,1,38.65-32.42c3-2.29,13.5-12.85,17.71-12.92,3.14-.05,9.38,5.78,12,7.39q11.85,7.35,23.62,14.82c3.58,2.28,7.08,5.7,10.42,4.76,2.35-.66,5.85-5.66,7.78-7.4,3.22-2.88,10.58-11.34,15-12.4,5.84-1.4,14.42,9.29,18.6,13.64,16.4,17.09,41.35,40.32,48.18,64.06-4.24-2.38-11.15-1.14-14.87-3.84-5.58-4.05-10.14-14.32-14.92-19.73a227,227,0,0,1,13.15,21c-9.25,1.09-18.08,4.79-26.33,9-2.11,1.07-8.41,6.1-10.58,6-9.74-.59-17.29-30.15-19.62-36.46,1.64,14.26,7,28.23,13.32,41-11.55,3.27-24.14,8.22-36.31,8.81-9.39.46-9-3.62-8.93-11.43,0.06-12.77.33-25.65,1.84-38.34-5,12.86-5.28,27.43-6.08,41-0.19,3.22.63,7.83-1.69,10.16-3,3.05-14.32,2.88-18,3.11-10.21.62-19.37,0.42-19.17-10.83,0.26-15.47,7.35-34.11,12.27-48.57-6.76,12-11.72,25.18-16.71,38-2.66,6.85-3.74,18.23-12.72,15.79h0Zm5.38-69.55c-10.91,13.06-22.41,26.63-31.14,41.31-8.3,13.94,8.73,21.36,21.32,25.88,8.48,3,9.37,3.23,12.81-4.33,2.2-4.82,3.8-10,5.75-14.93,5.24-13.17,10.31-27.18,18.57-38.82-6.11,16.49-10.36,33.62-13.83,50.84-2.75,13.63,4.85,15.42,18.64,14.32,3.55-.28,14.56-0.09,17.12-3.34,1.64-2.07.66-10.87,0.78-13.21,0.74-13.93,1.44-29.61,8.27-42.08-1.74,11.41-2.18,23-2.43,34.53-0.1,4.66-2.53,17.1,2.62,20,6.86,3.9,33.66-7,40.49-8.93-7-14.21-13-30.39-13.34-46.34,2.9,8.23,6.12,16.33,9.73,24.28,1.57,3.45,4,12.69,7.52,14.89,5,3.16,5.73.67,11.2-2.24,8.7-4.63,18.12-8.9,28-10.25-3.27-5.89-16.38-20.27-16.05-26.13a157.05,157.05,0,0,1,13.79,16.2c3,4,4.44,7.25,8.67,9.28,3,1.43,7,.85,10.14,2.24-8.83-22.42-29.52-43-45.73-60.07-4-4.24-9-11-14.69-13.55-5.29-2.4-2.24-2.1-7.59.77-5.7,3-11.34,9.25-16,13.72-6.34,6.07-4.95,5.3-12.71.33q-11-7-22.11-13.92c-3.16-2-10.68-8.69-14.36-8.88-4.28-.23-11.42,7-15,9.65a448.93,448.93,0,0,0-36.75,30c-13.12,12.05-28.88,22.6-14.85,40C-1959.45,2224.6-1950.29,2206.39-1932.58,2196.58Z" transform="translate(2038.64 -1913.25)"/><path class="cls-6" d="M-1836.11,2251.82c1.72,0,3.8-1.1,5.46-1.58a267.87,267.87,0,0,1-15.75-36C-1845.84,2227.08-1841,2240.08-1836.11,2251.82Z" transform="translate(2038.64 -1913.25)"/><path class="cls-8" d="M-1823.47,2251.7c0.75,3.26,1.15,11.27,4.64,13.06,4.62,2.37,21.85-4.83,25.17-7.78,3.77-3.35,5.24-10.87,1-15.54C-1797.65,2235.9-1816.67,2247.68-1823.47,2251.7Z" transform="translate(2038.64 -1913.25)"/><path class="cls-24" d="M-1819.26,2265.22c-3.7-4.45-5.37-11.27-2.45-15,3.73-4.8,25.87-13.14,29.14-10,4.81,4.57,3.18,13.62-.82,17.12C-1799.58,2262.72-1811.32,2264.31-1819.26,2265.22Zm-1.61-4.08c2.48,6.12,12,1.59,16.76,0,8.32-2.72,14.15-4.83,12.75-13.63-0.17-1.08-1.29-7.43-2.23-7.95-3-1.67-16.5,5.63-19,6.83C-1822.39,2251-1823.18,2251.08-1820.88,2261.14Z" transform="translate(2038.64 -1913.25)"/><path class="cls-25" d="M-1826.18,2253.35c0.6,4.24-.59,9.22,4.91,8l-2.2-9.61Z" transform="translate(2038.64 -1913.25)"/><path class="cls-8" d="M-1826.27,2253.41c-5,.47-3.55-5.35-9.85-1.58l3.1,6.3-22.72,6.44c7.47,3.1,18.65,4.61,26.2,1.12C-1823.3,2262.8-1825,2260-1826.27,2253.41Z" transform="translate(2038.64 -1913.25)"/><path class="cls-24" d="M-1851.63,2266.41a30.42,30.42,0,0,1-5.3-1.94l23.32-6.61-3.1-6.3c5.62-2,6.34-.88,10.84,1.09,0.33,2.32,2.6,9.32,1.36,11.44-3.54,6.09-21.63,3.81-27.13,2.32h0Zm-2.83-1.78c7.34,2.74,26.44,5.1,29-3.16,1.85-5.93-4.35-13.14-10.07-9.39l3.1,6.31Z" transform="translate(2038.64 -1913.25)"/><path class="cls-25" d="M-1793.3,2239.1l3.3,11.76C-1785.06,2249.64-1790.24,2238.48-1793.3,2239.1Z" transform="translate(2038.64 -1913.25)"/><path class="cls-8" d="M-1773.08,2241.39c-0.4-2.94-8.33-2.48-10.32-3.29-5.19-2.11-6.24-4.87-9.7-9.55a171.61,171.61,0,0,0-13.78-16.19,225.34,225.34,0,0,1,17,26.18c-1.95.24,0.9,11.22,3.32,12.83,3.23,2.14,14.22-4.43,13.48-10h0Z" transform="translate(2038.64 -1913.25)"/><path class="cls-24" d="M-1785.86,2253.42c-1.75-2.78-7.54-14.82-4.68-15.22-3.27-5.89-16.38-20.27-16.05-26.13a164,164,0,0,1,12.5,14.49c1.58,2,5.13,9,7.2,10.38,2.52,1.67,6.72.59,9.48,1.82C-1766.91,2243.47-1778.91,2250.43-1785.86,2253.42Zm-4.95-14.34c1,2.78,1.75,8.53,3.76,10.61,3,3.12.51,2,4.92,0.93,2.09-.5,6.86-4,7.57-6.09,2.77-8.17-8.18-3.49-12.81-6.85-5.52-4-10.24-14.36-15-19.76C-1799.94,2221.39-1787.69,2238.65-1790.8,2239.08Z" transform="translate(2038.64 -1913.25)"/><path class="cls-23" d="M-1877,2176.84a211.89,211.89,0,0,1-13.28,24.6A211.79,211.79,0,0,1-1877,2176.84Z" transform="translate(2038.64 -1913.25)"/><path class="cls-23" d="M-1875.28,2178.35a90.29,90.29,0,0,1-7.55,16.14A88.38,88.38,0,0,1-1875.28,2178.35Z" transform="translate(2038.64 -1913.25)"/><path class="cls-23" d="M-1869.12,2181.87a22.89,22.89,0,0,1-3,8.15A22.79,22.79,0,0,1-1869.12,2181.87Z" transform="translate(2038.64 -1913.25)"/><path class="cls-23" d="M-1863.2,2185.33c1.94,10.33,3.6,22.11,1.18,32.49C-1860.81,2207.12-1862.41,2196-1863.2,2185.33Z" transform="translate(2038.64 -1913.25)"/><path class="cls-23" d="M-1859.23,2181.4c4.06,4.45,7.8,10,9.12,15.92C-1852.59,2191.72-1856.07,2186.62-1859.23,2181.4Z" transform="translate(2038.64 -1913.25)"/><path class="cls-23" d="M-1857.78,2179.94a40.23,40.23,0,0,1,7.29,12A97.33,97.33,0,0,1-1857.78,2179.94Z" transform="translate(2038.64 -1913.25)"/><path class="cls-23" d="M-1852.19,2174.87c7.9,7,14.55,16.45,17.54,26.65A99.16,99.16,0,0,0-1852.19,2174.87Z" transform="translate(2038.64 -1913.25)"/><path class="cls-23" d="M-1847.62,2171.63a9.57,9.57,0,0,1,4.64,5.22A39,39,0,0,1-1847.62,2171.63Z" transform="translate(2038.64 -1913.25)"/><path class="cls-23" d="M-1843.33,2167.52a9,9,0,0,1,6.25,5.13A69.34,69.34,0,0,0-1843.33,2167.52Z" transform="translate(2038.64 -1913.25)"/><g class="cls-26"><path class="cls-22" d="M-1892.6,2213.21c-13.64,12-16.42,41.23-19.62,58.06a64,64,0,0,0,14.9-.32c6.83-.75,5.61.42,6.89-4.9,1.89-7.85-.22-19.51.55-27.84,0.29-3.14,4.79-31.62-2.72-25h0Z" transform="translate(2038.64 -1913.25)"/><path class="cls-27" d="M-1925.44,2212.8c-10.74,6.27-19,16.74-26,26.77-2.11,3-7.88,9.12-8.17,12.67-0.44,5.37,9.59,9,15.44,11.33,4.32-15,12.36-28.24,20-41.63,2.91-5.07,9.61-15.5-1.31-9.13h0Z" transform="translate(2038.64 -1913.25)"/><path class="cls-27" d="M-1829.33,2198.88c-2,3.73,10.88,18.5,7.54,20.92s-10.52-12.21-14-9.87c-1.92,1.31,8.55,19.37,9.35,20.89,2.12,4,4.45,11.61,7.8,14.5,3.51,3,.5,1.79,5.46.86,4.3-.81,9.53-4.21,13.79-5.52-2.4-4-30.4-41-30-41.77C-1830.51,2201.11-1828.37,2197-1829.33,2198.88Z" transform="translate(2038.64 -1913.25)"/><path class="cls-22" d="M-1856.78,2214.14c-0.72,3.16.77,20.86-4.15,18.14-2.61-1.45-2-16.94-6.19-14-3.19,2.2-.86,17.29-0.7,20.37,0.48,9.21,1.31,18.41,2.23,27.58,7.47-1.36,14.37-2.92,21.7-5-4.45-10.66-6.84-22.13-9.13-33.41-0.5-2.46-3.65-14.2-3.77-13.65h0Z" transform="translate(2038.64 -1913.25)"/></g><g class="cls-10"><path class="cls-22" d="M-1828.61,2170c-2.2-1.66-7.07-6.85-9.5-6.68-4.88.34-15.36,12.5-18.86,15.78-5.62,5.26-4.91,6.21-11.73,2.65-5.25-2.74-10.18-6.48-15.19-9.63s-18.32-15.14-24.19-15c-1.63,0-5.74,4.1-7,5q-10,7.1-19.62,14.68c-9.16,7.19-18.1,14.68-26.6,22.64-6,5.59-20.14,15.68-19.73,24.79,3.72-3.34,15.86-15.2,17.34-6.8,1.22,6.92-14.77,15.38-10.13,21,13.18-13.23,22.83-30.72,39.39-40.38-9.63,11.54-18.81,23.51-27.26,36-3.43,5.06-9.13,10.63-3.78,16.56,9.63-17.24,20.46-30.52,37.44-40.73,2.87-1.73,40.29-27.24,39-28.88,3.25,4.05-22.58,28.49-25.41,32.6-10.72,15.63-17.67,34.11-22.34,52.37,7.41,1.82,10.42-14,12.68-19.73,5-12.55,9.66-26.29,17.27-37.53-5,13.74-8.52,28.08-11.57,42.37-1.07,5-5.28,15.08.83,18.56a264.14,264.14,0,0,1,9.37-38.8c1.37-4.2,14.83-41.48,19.54-39.63,0.36,0.14-3.62,14.85-3.89,15,1.64-.66,5.57-8.38,7.33-7.51,1.17,0.58-1.18,4.45.14,4.69,3.5,0.63,6.85-12.34,10.76-11.22,0.44,0.12-6,19.15-6.34,20.37a159.4,159.4,0,0,0-4.58,56.27c4.62-1.38,3.15-16,3.43-19.93,0.83-11.19,1.59-24,6.76-34.21-0.89,6.22-8.07,53.33,2.77,52.71-0.36-12.49-.34-25,0.51-37.51,0.25-3.71,1.17-30.89,6.23-31.62,2.15-.31,2,22.3,3.76,24.36-1.48-1.7,6.8-27.89,3.1-30.2,7.46,4.68,11.84,74.2,25.66,65.73-6.6-13.44-12.73-28.78-13.39-43.85,3.5,9.88,8,28.33,15.75,36,3.07,3,7.28,4.54,8-.73,0.52-3.68-7.73-15.91-9.27-19.34-2.34-5.2-17.58-34-13-39.36,3.54-4.11,12.81,18.68,14.39,16.79,3.77-4.51-21.27-43.36.47-16.66,5.8,7.12,11.38,14.51,17,21.78,3.64,4.71,7.21,9.48,10.54,14.41,4.23,6.26,4.76,12.36,12.61,11.39a226.2,226.2,0,0,0-17-26.18,182.37,182.37,0,0,1,12.48,14.47c1.55,2,5.2,9.15,7.24,10.47,3.77,2.44,9.79,1,13.91,3.33-2.67-9.2-10.24-18-15.83-25.47A403.41,403.41,0,0,0-1828.61,2170Z" transform="translate(2038.64 -1913.25)"/></g><path class="cls-17" d="M-1852.13,2147.11c-1.09-.29-24-13.88-22.08-15.83,1.26-1.29,23.42,16.19,22.08,15.83h0Z" transform="translate(2038.64 -1913.25)"/><path class="cls-18" d="M-1852.24,2147.51c-5.13-1.32-13.92-7.47-18-11.2-0.74-.69-8-5.67-2.56-5.33,1.84,0.11,5.71,4.56,7.37,5.72,3.15,2.19,6.71,3.88,9.79,6.14-5.05-3.71,10.4,6.59,3.36,4.68h0Zm-21.27-16c0.87,0.24,20.23,18.28,22,15-0.62,1.25-18.62-14.08-22-15h0Z" transform="translate(2038.64 -1913.25)"/><path class="cls-17" d="M-1875,2150.83c-2.09-.56,8.57-5.32,9.27-5.67,1.94-.94,18.46-11.68,18.46-11.68,1.24,1.06-22.54,18.72-27.73,17.35h0Z" transform="translate(2038.64 -1913.25)"/><path class="cls-18" d="M-1875.11,2151.23c-3.54-1,7.11-5.43,7.8-5.76,5.15-2.43,14.67-11.72,19.43-12.24,3.19-.35-11.4,11-13.72,12.2-2.65,1.4-10.27,6.66-13.52,5.8h0Zm27.41-17.52c-0.08,0-26.88,18.22-27.48,16.46,1.41,3.57,29-16.1,27.48-16.46h0Z" transform="translate(2038.64 -1913.25)"/><path class="cls-17" d="M-1850.8,2164.16c-2.23,0-26-11.17-24.66-13.19,0.88-1.38,10,4.94,11,5.47,3.36,1.77,7.53,2.88,10.62,4.94-0.17-.11,6.21,3.66,3,2.78h0Z" transform="translate(2038.64 -1913.25)"/><path class="cls-18" d="M-1850.91,2164.56c-3.34-1-27.23-12.25-24-14,1.92-1.05,10.89,5.63,12.4,6.39,2.65,1.34,8.73,2.59,10.59,4.62C-1852.88,2160.57-1845.73,2166-1850.91,2164.56Zm-23.74-13.54c4.21,1.15,18.66,10.26,23.86,13.14a0.64,0.64,0,0,1,.62-0.69c-0.33,1.12-22.06-11.83-24.47-12.45h0Z" transform="translate(2038.64 -1913.25)"/><path class="cls-17" d="M-1875,2164.13c0.84,0.23,23.77-17.45,24.12-17.12,2.05,1.89-20,18.24-24.12,17.12h0Z" transform="translate(2038.64 -1913.25)"/><path class="cls-18" d="M-1875.14,2164.53c-2.82-.77,11.34-7.89,12.63-8.82,1.53-1.1,10.39-10.39,11.88-9,2.82,2.59-20.32,19-24.51,17.83h0Zm23.78-17.31c-0.43-.12-23.06,19.13-23.86,16.2,1,4.59,24.85-16,23.86-16.2h0Z" transform="translate(2038.64 -1913.25)"/><path class="cls-17" d="M-1853.16,2175c-2.25-.61-25.54-9.09-23.9-11.6,0.81-1.25,9.21,4.18,9.74,4.43,3.22,1.54,6.81,2.53,10,4.13,0.22,0.11,7.22,3.85,4.2,3C-1866.09,2171.53-1852.72,2175.16-1853.16,2175Z" transform="translate(2038.64 -1913.25)"/><path class="cls-18" d="M-1853.27,2175.44c-6.34-1.72-14-4.23-19.44-8-1.18-.81-7.83-3.88-3-4.62,1.71-.26,6.79,3.81,8.54,4.65,3.12,1.49,7,2.34,9.91,4.11-0.11-.07,8.64,5.1,4,3.83C-1866.09,2172-1852.61,2175.62-1853.27,2175.44Zm-23-11.94c0.71,0.2,22.74,14.4,23.71,10.85-0.33,1.23-21.1-10.18-23.71-10.85h0Z" transform="translate(2038.64 -1913.25)"/><path class="cls-17" d="M-1874.42,2177.21c0.9,0.24,23.87-15.38,24.64-14.48,1.52,1.74-20.75,15.56-24.64,14.48h0Z" transform="translate(2038.64 -1913.25)"/><path class="cls-18" d="M-1874.53,2177.61c-3.33-.9,9.21-5.89,10.7-6.7,3.46-1.89,9.62-8.54,13.49-8.51s-5.07,6.13-5.56,6.46C-1859.89,2171.59-1869.27,2179-1874.53,2177.61Zm24.24-14.74c-0.94-.26-24,15.79-24.32,13.58,0.51,4.29,24.82-13.44,24.32-13.58h0Z" transform="translate(2038.64 -1913.25)"/><path class="cls-28" d="M-1848.92,2134.54c-3.39,3.06-9.29,8.64-13.67,9.64C-1857.59,2143-1852.31,2135.11-1848.92,2134.54Z" transform="translate(2038.64 -1913.25)"/><path class="cls-28" d="M-1852.24,2147.69c-3.12,3.34-8.53,9.39-12.81,10.76C-1860.17,2156.89-1855.58,2148.55-1852.24,2147.69Z" transform="translate(2038.64 -1913.25)"/><path class="cls-28" d="M-1851.93,2163.57c-3.5,2.94-9.59,8.3-14,9.14C-1860.91,2171.75-1855.33,2164-1851.93,2163.57Z" transform="translate(2038.64 -1913.25)"/><path class="cls-29" d="M-1800.67,1934.83c-3.56-17.72,20-22.72,32.58-19.87,7.76,1.75,13.84,3.95,20.29,8.72,2.3,1.7,8.48,8.2,11.91,4.37,2.26-2.52,1.08-8.28-3.22-5.3,1.06-5.54,8.24,1.56,9,3.52,1.82,4.77-1.4,13.44-7.79,11.7,14.54,9.81-9.66,28.29-2.63,34,5.31,4.3,4.83-6.17,8.92-.55,3.57,4.91-3.15,10.47-7.81,9.69,13.57,9.62-11.38,33.7-23.44,21.31-2.57,15.31-26.1-4.6-14.4-7.8-2.86,3.57,4.66,7,7.63,2.88,3.54-5-3-7.87-3.82-12-1.52-7.68,17.28-24.84-1.14-28.4-7.06-1.36-10.1,5.14-17.41,2.9C-1805.09,1956-1811.26,1945.09-1800.67,1934.83Z" transform="translate(2038.64 -1913.25)"/><path class="cls-30" d="M-1772.41,2007.65c-5.61-1.52-13.72-12-3.73-13.78-4,5.54,7.86,8.15,6.82-.69-0.53-4.49-5.49-5.71-4.62-11.16,0.77-4.83,6.17-7.63,7-12.53,3-17.43-13.86-8.36-21.09-8.13-8.61.27-21.31-9.94-18.65-18.93,1.05-3.56,4.19-6.38,5.36-9.46,1.34-3.54.68-6.85,3.28-10.37,6-8.19,18.33-10.65,27.76-8.74,9.79,2,16.59,6.34,24.84,11.49,2.24,1.4,8.88,5.66,10.59,1,1.48-4.07-2.89-3.85-4.86-2.65,2.74-12,21,15.19,3.16,14.91,4.55,4.72,4,13.86,1.37,19.37-1.7,3.59-11.18,11.83-3.56,14.38,3.8,1.27,1.4-4.33,5.2-2.91,6.88,2.56,1.1,12.39-4.6,12.22,11.81,11.69-12.4,31.51-24.49,21.55-1.21,4.19-5.92,5.51-9.78,4.46h0Zm-5.67-12.21c-8.77,5.91,13.45,19.57,14.93,6.09,13,13.12,37.54-12.37,22-21.14,4.36,1.32,13.3-3.11,9.2-8.74-2.74-3.75-9.32,7.22-10.76-3.33-0.4-2.92,6.35-9.77,7.12-11.59,2.78-6.57,2.32-16.15-4.62-19.82,15.19,6,10.15-19.92,2.19-15.16,4.46-1.29,4.84,5.05,1.42,6.91-4.66,2.52-8.81-2.82-12-5.13-6.22-4.55-14.29-7.5-21.9-8.86-9.76-1.74-22.79.71-28,10.18-1.79,3.24-.81,6.28-1.89,9.31-0.68,1.89-2.77,3.45-3.91,5.58-4.94,9.29,2.81,16.94,12.21,19.77,7.88,2.37,15.8-7.2,23.11-.06,9.86,9.64-6.41,17.26-4,26.59,1.07,4.09,7.28,6.43,3.69,11.6-2.41,3.47-9.75,3.06-8.82-2.21C-1779,1996-1778.17,1995.93-1778.08,1995.44Z" transform="translate(2038.64 -1913.25)"/><g class="cls-4"><path class="cls-31" d="M-1739.44,1981.1c4.77,0.8,10.68-4.26,8-9.37-4.91,13.89-13.47-5.69-11.8-5.7-5,0-4.85,10.73-3.65,13.36,0.44,1,10.61,8.16,7.05,9.73-1.4.62-1.83,2.9-2.24,3-0.85.3-2.16-2.14-2.79-2.4,0.71,0.3.4,5.29-.23,5.73,3.42-2.4-10.19-11.41-10.78-12-6.87-6.42-3.58-11.2-1.79-19.24,1.48-6.63.91-13-3.18-18.59-1-1.3-9.34-7.3-9.24-8.24,0.16-1.41,12.16,2.77,12.46,3.61a11.33,11.33,0,0,1-1.85-2.48c1.41-.4,3.67,2.73,5.07,1.9,1-.61-4.61-4.56-5-5,1.1,1.26,8.52,2.56,10.66,4.09a23.22,23.22,0,0,1,6.52,6.92c2.94,4.89,3.66,10.91,3,16.49a16.92,16.92,0,0,0,3.83-5.72c-2.87,2.57-1.73-3.64-2.31-5.17-2.3-6.11-5.34-11.3-11-15-2.81-1.86-17.05-7.82-20.32-4.32,2-2.11,6-.76,8.2-2.24l-1.75-.6c0.1-.22,4-0.93,3.22-1.5-0.3-.23-5.44-1.41-5-2.26,2.51-5.32,19.21,4.14,21.28,5.8,4.62,3.71,10.41,11.1,13.15,0-4.58,6.92-23.76-8.8-30-9.62-1.75-.23-20,0.18-20.07,3.23,0-1,.2-2.15.2-2.37q1-.85,2.05-1.65a29,29,0,0,1-3.73.59c1.2-4.51,14.12-5.7,17.62-5.66-5.8-.63-9.22-1.11-15,1.63-1.07.5-6.39,4.71-7.2,4.4-0.6-.23-1.88.12-2.79-0.2q0.41-1.15.91-2.26c-0.31-.56-3.26,2.18-3.61,1.41-0.89-2,6.76-6.6,7-6.74-13.66,3.84-14.37,13.76-19.26,23.55-3.49,7-4.4,10,1.76,15.84,4,3.82,10.95,7.51,16.53,6.75,4.64-.63,6.31-5.23,12.3-3.29,8.37,2.71,7.41,11.05,4.18,17.16-2,3.83-5.41,6.07-4.46,10.85,0.65,3.24,4.32,4.51,4.57,7.82,0.8,10.93-11.09,4.67-8.38,1.28-11.74,3.2,11.83,23.08,14.4,7.8,12,12.36,37-11.69,23.44-21.31C-1732,1982.34-1733.88,1985-1739.44,1981.1Z" transform="translate(2038.64 -1913.25)"/></g><g class="cls-4"><path class="cls-32" d="M-1739.44,1981.1a7.21,7.21,0,0,0,8.37-8.27c-0.81,11.06-15.95,5-12.5-5.05-7.07,10.2,2.65,9.92,4.94,18.62,1.09,4.14-2.82,14.13-8.45,12-1.75-.65.35-3.42-0.63-4.69-2.16-2.81-3.7-3.88-6.79-5.84-6.15-3.9-10.16-4.08-11.09-12.06-4.63,8.18,2.32,10.42,7.19,14.92,2,1.83,8,9,1.36,10.22-3.17.61,0.32-5.8-4.84-4.33-3.75,1.07-4.52,13.83-11.34,5.55,5.41,1,10.13-3.5,8.81-9-1.83-7.57-8.2-5.09-4.57-14.87,2.59-7,8-10.92,3.26-18.5-3.63-5.77-7.72-4.08-12.58-6.69-0.26-.14,4.13-3,3.9-3.6-1.18-3.37-3.15-2.78-5.76-4.57,0.07,0,5.85-.66,7.23-0.4a16.32,16.32,0,0,1,8,4.27,20.65,20.65,0,0,1,5.18,7.81c-0.49-6.24-3.12-11.19-8.31-14.61-2.79-1.85-9.12-2.05-11.32-4.27-6.08-6.14,11.51-12.44,16.94-13.78-3.44-.46-25.36,3.6-25.9,7.4,0.61-4.28,5.86-8.46,8.78-11-2.9,1-11.67,9.68-14,9.15-5.34-1.24-.63-9.15,2.69-12.24-5.6,3-8,6.95-9.93,12.74-0.45,1.36.47,3.26,0.05,4.47-0.84,2.44-4,4.15-5.07,6.83-4.06,10.72,11.15,21.34,20.93,19.24,4.85-1,7.15-5.59,13.12-2.65,8.75,4.31,4.63,12.48,1.58,18.41-2.07,4-4.32,5.8-2.93,10.79,0.69,2.47,4,3.24,4.23,6.24,0.81,10.93-11.1,4.67-8.38,1.28-11.74,3.2,11.83,23.08,14.4,7.8,12,12.36,37-11.69,23.44-21.31C-1732.79,1982.21-1733.88,1985-1739.44,1981.1Z" transform="translate(2038.64 -1913.25)"/></g><g class="cls-4"><path class="cls-30" d="M-1791.46,1941.51c8.64-23.47,43.55-22.85,54.75-2.27-5.93-9.35-15-13.94-25.73-14.84-12,.35-23.89,5.5-29,17.11C-1790.95,1940.1-1790.86,1940.14-1791.46,1941.51Z" transform="translate(2038.64 -1913.25)"/><path class="cls-30" d="M-1791.77,1940.56c-1.8-15.35,13.33-23.38,26.42-24.3C-1778.44,1918.47-1791.77,1925.2-1791.77,1940.56Z" transform="translate(2038.64 -1913.25)"/><path class="cls-30" d="M-1768.16,1933.92c15.85-1.79,36.44,12.36,27.81,30.24C-1733.23,1946.25-1752.56,1933.43-1768.16,1933.92Z" transform="translate(2038.64 -1913.25)"/><path class="cls-30" d="M-1786.19,1948c6-6.59,17.35-4.7,22.86,1.5,7,7.91,3.08,15.64-.71,23.67-1.52,3.22-4.14,7.11-2.41,10.84s6.83,3.59,9.65,6.15,6.8,8.78.81,11c-1.62.61-7.18-1-4.29-3.16-1.94,0-5.82,2-2.47,4.72-3.28-2.5-.09-5.19,2.82-4.64-1.22,5,11,1.32,4-6.5-5.55-6.13-14.31-2.85-10.77-14.81,2.65-8.94,10.74-14.78,4.44-25-4.74-7.66-17.16-10.6-23.88-3.82C-1784.84,1946.5-1784.79,1946.55-1786.19,1948Z" transform="translate(2038.64 -1913.25)"/><path class="cls-30" d="M-1743.91,1970c-1.39,4.52.82,8.76,4.71,11.18C-1743.88,1979.6-1746.54,1974.56-1743.91,1970Z" transform="translate(2038.64 -1913.25)"/></g><path class="cls-33" d="M-1777.22,1925.28c5-2.59,26.2-5.87,28.71,1.12-1.18-3.28-7.25-3.82-9.83-5.13,1.11,0.57,4.92-.11,5.8.67-2.63-2.31-6.62-1.52-9.56-2.89,0,0,3.39-.86,3.45-0.77-2.64-4.44-19.16.79-21.29,3,0.65-.68,7.92-1.7,9-1.48-0.27-.05-3,2.52-3.63,2.31q1.24-.17,2.46-0.38C-1772.94,1923.32-1776.18,1923.34-1777.22,1925.28Z" transform="translate(2038.64 -1913.25)"/><path class="cls-33" d="M-1762.4,1932.54c11.7,0.25,15.28,7.68,22.95,14.52,0.3,0.27-2.48-6.46-2.54-7.06,0,0,2.37,1.17,2.44,1.16a9,9,0,0,0-.12-2.34c1.86,0.18,2.2,4.4,3.56,5.26-3.32-2.08-5.39-10.91-10.29-13.94-3.86-2.39-11.67-1.9-14.11-3.44,3.11,2,7.63,1.29,10.44,4-0.28-.27-6.74-0.36-7.37-0.94,0.47,0.43,4,2.14,4.66,2.07C-1755.21,1932.12-1760.41,1930.31-1762.4,1932.54Z" transform="translate(2038.64 -1913.25)"/><path class="cls-33" d="M-1768.53,1939a20.3,20.3,0,0,1,9.47,8.4c2.18,3.79,5,22.58-.56,24.34,4.19-1.34,2.86-11.66,5.53-12.47,0.42-.13.9,6.07,2,5.33,2-1.39,8-3.6,7.48-6.89,0.33,1.89-2.71,13.89-2.93,13.85,4,0.72,6.69-12.83,6.71-15,0-4.6-5.15-19.68-11.81-18.69-0.39.06,3.93,5.5,4.1,6.5,0.14,0.76-3.26-2.17-3.47-2.23,0,0,1.55,5.47,1.44,5.46-0.39,0-5.36-5.6-5.78-4.59-0.11.26,0.37,4,.1,3.92-3-.92-4.56-6.33-7.77-7.8C-1763.87,1939.22-1771.47,1936.36-1768.53,1939Z" transform="translate(2038.64 -1913.25)"/><path class="cls-33" d="M-1759.75,1976.39c-1.39,4.88,2.17,5.62,5.48,8.26,0.83,0.66,10.32,11.07,8.62,10.81,3.82,0.59-2.13-8.57-2.2-8.82-0.15-.5,5.59,4.85,5,5,1.37-.48-1.93-7.43-1.16-7.6,2-.44,2,5.29,3.54,5.18,4-.29-10.8-14.76-7.87-15.74-2.95,1,1,6.7.63,7.09-0.22.21-2.87-1.61-3.35-1.51-1,.19.41,3.82-2.35,3.17C-1756.66,1981.51-1758.56,1979.73-1759.75,1976.39Z" transform="translate(2038.64 -1913.25)"/><path class="cls-28" d="M-1738.55,1939.34c-0.94-1.5-15.08-15-15.94-11.83,0.4-1.5,16,11.89,15.94,11.83C-1742.31,1933.33-1738.26,1939.8-1738.55,1939.34Z" transform="translate(2038.64 -1913.25)"/><path class="cls-28" d="M-1744.35,1939.22c-0.61-.64-10.32-8.55-10.92-6.33-0.1.37,11.19,6.6,10.92,6.33C-1747.28,1936.16-1744,1939.61-1744.35,1939.22Z" transform="translate(2038.64 -1913.25)"/><path class="cls-28" d="M-1756.22,1921.73c-1-.24-16.52-2.45-15.8.27-0.09-.33,15.87-0.25,15.8-0.27h0Z" transform="translate(2038.64 -1913.25)"/><path class="cls-28" d="M-1762,1917.64c-0.73,0-13.3,0-12.22,1.93,0.33,0.58,12.71-1.9,12.22-1.93h0Z" transform="translate(2038.64 -1913.25)"/><path class="cls-28" d="M-1746.88,1942.55c1.48,1,4.74,19,3.1,18.59,3.34,0.91-.39-16.75-3.1-18.59h0Z" transform="translate(2038.64 -1913.25)"/><path class="cls-28" d="M-1749,1945c-0.5-.94,1.55,15.18.26,14.83,2.6,0.71.28-13.82-.26-14.83h0Z" transform="translate(2038.64 -1913.25)"/><path class="cls-33" d="M-1784.56,1922.21c3.2-2.61,12-3.93,13.91-6.19,0,0-10,1.49-10.15,1.36-0.71-.57,3.38-2.84,3.29-2.92-2.17-2.16-10.61,3.46-11.39,5.36,0.2-.48,4.76-1.41,4.91-1.76q-0.74.86-1.43,1.76a7.17,7.17,0,0,0,2.27-.18A21.06,21.06,0,0,1-1784.56,1922.21Z" transform="translate(2038.64 -1913.25)"/><path class="cls-29" d="M-1819.06,1940.42c-19.61-12.77-43.26-18.93-66.12-12-11.75,3.56-19.19,10.7-29.11,16.85-12.28,7.61-27.26,14.68-20.64,32.49,1.25,3.37,4.19,5.53,5.5,8.7,3,7.11-.9,5.95-3.67,11.34s-2.06,7.2,2.77,10.49c1.64,1.11,4.86,1.66,6.82,2.6,2.52,1.22-2,3.43,2,4.27,4.21-12.49,8.32-22.28,10.55-35.23,1.6-9.3,7.48-19.48,16.22-23.73-10.07,21,38,21.48,35,44.57-0.71,5.58-6.58,11.83-4.65,17.34,2.11,6,9.09,5.16,8,13.61-0.88,7-19.37,13.4-12,20.58-0.16-4.16,6-4.89,9.25-6.31-1.82,1.79-6.83,6.21-6.13,9.1a11.87,11.87,0,0,1,10.4-5.78c-2.06,1.26-6.08,4.29-5,7.25,2.69-7.5,17.85-8.16,24.17-9.73,13.13-3.27,25.9-8.12,35-18.61,25.12-28.89,9.51-67.95-18.41-87.78C-1875.23,1903.85-1801,1953.28-1819.06,1940.42Z" transform="translate(2038.64 -1913.25)"/><path class="cls-30" d="M-1859.83,2057.76c-1.17-3.42,1-6,3.66-8.05-4,.31-7.32,3-9.24,6.45-0.43-3.61,2.17-6.43,4.55-9-3.24,1.36-8.83,2-6.43,6.38-10.61-6.08,5.41-12.63,8.38-16.38,5.07-6.42,1.12-10.46-2.38-15.42-4.84-6.86-3.43-6.79-.61-15,10.63-31.08-41.48-24.42-33.66-49.66-9.23,5.12-14,15.67-15.27,25.67-1.49,12.2-6.46,21.39-10.44,32.9-0.09-.09-3.3-4.52-2.15-4-1.7-.83-5.52-2-7-3-10.06-6.7-2.07-8,1.07-15.07,2.93-6.63-6.43-13.76-7.25-21a23,23,0,0,1,7.66-19.78c4.58-4.22,10.61-5.9,15.64-9.08,3.79-2.4,7-5.68,11-8A72.17,72.17,0,0,1-1857,1925.5c36.5,4.07,76.82,38.3,68.66,78.32-3.9,19.13-17.07,33.19-35.08,39.85C-1832.74,2047.09-1856.12,2047.33-1859.83,2057.76Zm6.22-8.76c-2.2,1.19-5.34,3.52-5.9,6,4.35-6.43,16.57-6.8,23.54-8.55,7.34-1.84,14.63-4,21.31-7.64,16.12-8.85,26.13-26.16,26.5-44.54,0.76-37.93-40.06-67.57-75.08-68.42-23.48-.57-40.33,12.77-59.3,23.5-5.1,2.88-9.61,6.95-11.83,12.48-4.44,11.07,1.77,15.53,5.27,24.35,3.27,8.23-9.63,13.78-4.11,20.21,1.42,1.65,7,2.7,9.07,3.46,3.08,1.16-.09,4.08,2.32,4.79,2.18-6.33,5.68-12.12,7.9-18.42s1.48-12.24,2.94-18.48c2.18-9.31,8.29-18.33,17.08-22.46-10.66,19.75,31.29,23,34.65,39,1.63,7.73-4.8,13-4.95,19.88-0.13,6.27,4.93,6.08,7.27,11.28,2.85,6.34,0,10.82-4.72,14.8-2.52,2.14-11.67,5.55-7.33,10.88,0.19-3.73,8.88-5.14,11.8-6.45-2.62,2.45-5.5,5.23-7.17,8.44A12.09,12.09,0,0,1-1853.61,2049Z" transform="translate(2038.64 -1913.25)"/><g class="cls-4"><path class="cls-31" d="M-1819.06,1940.42c-20.9-13.61-46.23-19.48-70.14-10.65a74.91,74.91,0,0,0-19.08,10.39c-1.73,1.3-4.45,4.84-6.52,5.49a48,48,0,0,1,22.35.41c-8.21-2.46-11.27-6.6-2.94-11.31,8.06-4.55,28-10.71,36.86-6.26-4.16-2.08-22.76,8.2-25.82,10.73,11.09-3.83,40.54-13.51,51.15-2-0.58-.63-11.51,1.61-12.38,1.8-8.46,1.83-16.58,5.82-21.45,13.27,7.06-4.5,31.52-14,39.38-6.42,4.81,4.66-18,13.46-22.06,17.16,7-2.86,27.85-11,34.72-2.92,8.12,9.52-15,16.25-21.49,16.85,5.17,0.44,27.5-3.49,30.15,1.49,4.86,9.15-18.65,23.66-23.11,26.47,7-1.32,33.6-21.52,33-7.39-0.74,16.77-26,32.19-39,37.4,9.88,0.17,19.34-4.14,26.85-10.34,1.57-1.29,6.16-7.65,7.7-6.13,8.25,8.15-25.52,25.61-28.56,26.67,24-7,42.13-26.31,41.69-52.47-0.36-21.27-14.5-40.35-31.29-52.28C-1875.23,1903.85-1801,1953.28-1819.06,1940.42Z" transform="translate(2038.64 -1913.25)"/></g><g class="cls-4"><path class="cls-30" d="M-1895.88,1956.54c-7.31,4.18-23.22,11.74-24.42,21.32-1.36,10.84,12.22,18.18-3.89,25.24,14.91-7.81,1.93-14.64,3.24-25.32C-1919.72,1967.89-1903.58,1960.36-1895.88,1956.54Z" transform="translate(2038.64 -1913.25)"/><path class="cls-30" d="M-1905.47,1962.26c-5.15,4.61-8.09,11.1-6.62,18C-1914.82,1973.46-1911.54,1966-1905.47,1962.26Z" transform="translate(2038.64 -1913.25)"/><path class="cls-30" d="M-1914.52,1945.66c7.54-2.81,17-3.23,23.91,1.55C-1898,1943.58-1906.71,1943.93-1914.52,1945.66Z" transform="translate(2038.64 -1913.25)"/><path class="cls-30" d="M-1882.67,1950.44c-6.11,21.6,25.74,22.91,31.52,38.2,4.46,11.79-13.91,23-7.89,31.73-3.68-4.91,1.21-11.41,4.46-15,18.37-28.8-36.94-28-28.09-54.91C-1883.07,1951.86-1883.13,1951.85-1882.67,1950.44Z" transform="translate(2038.64 -1913.25)"/><path class="cls-30" d="M-1855.29,1962.19c4.32,9.92,15.5,13.38,20.36,22.86,2.85,5.55,3.93,12.7,1.84,18.67-1.72,4.91-7.73,7.61-9.06,12.22-2.42,8.35,6.91,11.37-.29,21.3-5.6,7.73-24.73,4.69-26.13,12.64,1.21-8.27,20.2-5.06,25.6-13,6.48-9.55-3.06-14.41,1-22.47,2.1-4.22,6.46-6.21,8.19-10.91,2.11-5.73,1-12.76-1.69-18.12C-1840.23,1975.86-1851.4,1972.3-1855.29,1962.19Z" transform="translate(2038.64 -1913.25)"/><path class="cls-30" d="M-1887.5,1942.89c17.5-22.19,51-12.22,71.37-.41C-1837,1931.79-1869.26,1921.73-1887.5,1942.89Z" transform="translate(2038.64 -1913.25)"/><path class="cls-30" d="M-1867.87,1953.82c14.43-18.88,41-14.5,59.22-4.79C-1827.4,1940.41-1852.5,1936.08-1867.87,1953.82Z" transform="translate(2038.64 -1913.25)"/><path class="cls-30" d="M-1850.8,1964.7c13.12-10.83,32-16,48.11-9.1C-1819.11,1950-1836.94,1954.93-1850.8,1964.7Z" transform="translate(2038.64 -1913.25)"/><path class="cls-30" d="M-1838.56,1977.5c14.35-.45,30.64-4.62,39.8-16.52C-1806.9,1973.7-1824.3,1978.34-1838.56,1977.5Z" transform="translate(2038.64 -1913.25)"/><path class="cls-30" d="M-1833.67,2007c14.42-7.7,35.5-18.33,41.13-34.89C-1797,1989.11-1818.92,2000.47-1833.67,2007Z" transform="translate(2038.64 -1913.25)"/><path class="cls-30" d="M-1838.8,2036.21c28.67-6.09,46.68-29.78,48.57-58.28C-1790.72,2006.54-1809.76,2031.56-1838.8,2036.21Z" transform="translate(2038.64 -1913.25)"/><path class="cls-30" d="M-1789.67,1986.92c1.47,11.49-1,25.14-9,33.94C-1791.72,2011.17-1789.52,1998.64-1789.67,1986.92Z" transform="translate(2038.64 -1913.25)"/></g><path class="cls-13" d="M-1858.59,2037.44c8.21-11.6-6.4-14-6-23.44,0.42-9.58,9.29-16.16,2-26-6.91-9.34-40.69-14.14-32.21-31.78-13.24,6.44-14.91,19.56-16.62,32.21-2.3,17-16.29,27.63-6,44.88,6,10,17.12,20.23,29.22,21.16a29.7,29.7,0,0,0,11.09-1.29c6.59-2,4.15-2.49,7.19-6.19s8.44-5.73,11.34-9.53C-1854.16,2031.18-1861.49,2041.24-1858.59,2037.44Z" transform="translate(2038.64 -1913.25)"/><path class="cls-14" d="M-1893.17,2054.15c-20.75-6-33.65-28.35-25.17-47.9,7.31-16.86,4.84-42,24.48-51-6.41,12.3,9.1,19.26,17.5,23.21,5.63,2.65,12.37,5.55,15.51,11.3,4.16,7.62-.22,13.76-2,21-2.6,10.78,4.21,7.11,6.82,16.5s-4.87,10.45-9.65,15.2c-2.8,2.78-2.72,6.06-4.93,8.3C-1875.33,2055.62-1887.57,2055.67-1893.17,2054.15Zm-2.43-97c-8.72,4.86-13.74,14.94-15.21,24.46-1.08,7-1.2,12.28-4,19.09-2.28,5.51-5.89,10.93-6.5,16.92-1.94,18.85,30.7,49.69,49.2,33.09,3-2.72,3.28-6.39,7.36-9.64,3.92-3.12,8-4.1,8.2-10.26,0.28-6.89-6.43-7.31-8.22-12.4-1.86-5.3,3.09-10.47,4.23-15.6,5.92-26.63-42.35-21.7-35-45.66C-1905.58,1962.66-1896.21,1959.09-1895.6,1957.1Z" transform="translate(2038.64 -1913.25)"/><g class="cls-20"><path class="cls-21" d="M-1861.11,2021.39c-8.76-4.37,1.51-16,1.72-22.72,0.21-7-3-11.37-8.54-15.27-7.89-5.55-34.23-11.85-26.85-27.21-16.6,8.07-13.68,24.53-18.31,38.83-6,18.51-13.87,28.85,1.07,45.47,8.58,9.56,25.89,20.75,38.74,11.22,4-2.93,1.66-4.19,4.5-7.06,2-2,4.49-2.73,6.46-4.47,5.12-4.51,10.53-14.14,1.22-18.79h0Zm-42.34-52.27c4-5.14,14.13,7.82,18.16,9.24a13,13,0,0,0-6.13,9.1c3.54-3.49,8.89-6.69,14.06-5.63,4.11,0.84,10.18,5.76,9.12,10.66-1.21,5.63-1.35,1.61-4.5,1.27-5.57-.6-8.9-5-13.48,1.94-5.22,7.93,5.63,14.73,1.26,20.21a15.6,15.6,0,0,1,15.31-1.65,6.82,6.82,0,0,0-2.86-2.93c2.41-2.28,4.94-12.38,7.55-7.35,1.7,3.27-2.22,7.67-2.35,10.7-0.23,5.17.55,3.13,2.09,7.69,2,6,4.06,7.18.05,14.11a36.23,36.23,0,0,1-13.92,13.08c-14.23,7.06-29.59-4.4-36.74-16.58-3.29-5.61-7.47-16.41-2.33-22.28,5.82-6.64,8.73-1.43,12.41,2.58-1.62-1.77,6.14-12.33,5.56-16.94-0.54-4.25-1-5.78-4.75-7.42-1.43-.61-5.07,2.32-5.7,1.74-1.46-1.33.2-8.5,1.75-9.47,2.62-1.64,8.58,3.1,7.27,5C-1898.47,1981.62-1908.53,1975.28-1903.46,1969.12Z" transform="translate(2038.64 -1913.25)"/></g><path class="cls-34" d="M-1890.25,1986.28c8.05-11.77,20.49-6.74,25.11,4.24C-1871.95,1981.38-1880.55,1977.52-1890.25,1986.28Z" transform="translate(2038.64 -1913.25)"/><path class="cls-34" d="M-1912.13,1982.55c2.77-8,9.91-1.72,9.93,4.13C-1904.24,1982.47-1907.7,1977.5-1912.13,1982.55Z" transform="translate(2038.64 -1913.25)"/><path class="cls-35" d="M-1865.24,2022.37c3.14-10-14.36-14.07-18.72-6.19-5.17,9.33,15.13,17.66,18.72,6.19h0Zm-10.25-5.67c-4.18,3.11-3.55-2.6-3.65-2.69-0.86-.66,8.39-0.82,3.65,2.69h0Zm3.48-2.11c0,0.05-3-.76-0.82-1.52C-1872.52,2013.07-1870.12,2013.94-1872,2014.58Z" transform="translate(2038.64 -1913.25)"/><path class="cls-36" d="M-1904.89,2013.94c-3-2.16.7-3.79-2.31-6s-10-1.26-11.51,2.4c-5.26,12.79,17.34,6.06,13.82,3.62C-1906.08,2013.06-1904.68,2014.08-1904.89,2013.94Zm-7.27-3.72q-2.48,1.31-3.28-1.55c0.47-2.53,5.69-.25,3.28,1.55h0Zm2.66-1.61s-2.31-.57-0.63-1.16C-1909.9,2007.45-1908.07,2008.11-1909.5,2008.61Z" transform="translate(2038.64 -1913.25)"/><path class="cls-14" d="M-1883,2014.36a9.74,9.74,0,0,1,12.19-1A15.21,15.21,0,0,0-1883,2014.36Z" transform="translate(2038.64 -1913.25)"/><path class="cls-37" d="M-1869.58,2000.72c-0.57,14.44-17.65,13.76-17.08-.68,0.57-14.26,17.67-14,17.08.68C-1869.83,2007.17-1869.31,1994.27-1869.58,2000.72Z" transform="translate(2038.64 -1913.25)"/><path class="cls-3" d="M-1869.58,2000.72c-0.56,14.74-18,13.91-17.43-.69S-1868.46,1986-1869.58,2000.72Zm0,0c0.76-17.53-20.7-12.16-16.24,3.66C-1882.35,2016.66-1870,2011.75-1869.58,2000.72Z" transform="translate(2038.64 -1913.25)"/><g class="cls-20"><path class="cls-38" d="M-1877.65,1988.7c-11.38-.46-12.31,22.67-0.93,23.36s12.38-22.91.93-23.36h0Zm6.88,12c-0.48,12.49-15.18,11.9-14.68-.58s15.19-11.9,14.68.58C-1871,2006.22-1870.55,1995.12-1870.77,2000.67Z" transform="translate(2038.64 -1913.25)"/></g><path class="cls-39" d="M-1873.84,2010.26c-1.69,1.93-6,2.27-8.11,1.06,0.37,0.14,3.34.69,3.16,1.7,0.06-1.63,2.3-1,2.3.31a1.51,1.51,0,0,0-.41-1.17c0.45-.07,2.19-0.85,2.53,0a1.58,1.58,0,0,0-.73-0.59q2-.67,1.25-1.28C-1875.89,2012.61-1873.8,2010.22-1873.84,2010.26Z" transform="translate(2038.64 -1913.25)"/><path class="cls-14" d="M-1870,1995.13c-0.58-4.87-3.79-8.71-8.85-8.87C-1873.49,1985.57-1869.73,1989.95-1870,1995.13Z" transform="translate(2038.64 -1913.25)"/><path class="cls-34" d="M-1866.14,1994l-3.52.86c-0.24-.55,1-1,1.3-1.48-1.32,2.54-5.8-4.24-7.08-4.66-6.39-2.13-8.7,3.87-11.42,7.55,4.34-5.37,15.58-10.1,17.27.74-0.18-1,2.46-2.55,3.44-3C-1867.32,1994.62-1866.06,1994-1866.14,1994Z" transform="translate(2038.64 -1913.25)"/><path class="cls-40" d="M-1870.36,2002c-0.54,10.76-13.51,10.65-13.05-.35,0.45-10.78,13.59-10.65,13.05.35C-1870.6,2006.84-1870.12,1997.19-1870.36,2002Z" transform="translate(2038.64 -1913.25)"/><path d="M-1872.49,1999.5c-1.62-7.51-9.87-3.28-9,3,1.12,7.94,10.78,5.1,9-3C-1872.84,1997.87-1871.9,2002.17-1872.49,1999.5Z" transform="translate(2038.64 -1913.25)"/><g class="cls-41"><path class="cls-42" d="M-1870.41,2000.47c-0.28-2.44-2.71-6.16-5.6-4.79-5.6,2.67,3.28,7.82,3,9.08-0.75,2.89-4.18,3.73-6.61,2-3-2.09-.93-6.12-1.67-8.8,1.28,4.66-1.13,15.64,8,9.64,1.68-1.11,3.63-5,3-7.14C-1870.51,1999.57-1870,2002-1870.41,2000.47Z" transform="translate(2038.64 -1913.25)"/></g><path class="cls-43" d="M-1873.17,1996.46c-4.17-2.94-3.82,5.38-.55,6.77,4.48,1.9,3.2-4.92.55-6.77h0Z" transform="translate(2038.64 -1913.25)"/><path class="cls-28" d="M-1871.14,2001.05c0-.18-2-6-4.17-4.34-3.49,2.61,5.35,10.06,4.17,4.34h0Z" transform="translate(2038.64 -1913.25)"/><path class="cls-14" d="M-1916.34,2007.53c3.13-1.66,7-1.82,9.59.74C-1909.62,2006.46-1913.14,2006.63-1916.34,2007.53Z" transform="translate(2038.64 -1913.25)"/><path class="cls-44" d="M-1904,1999.11c-2.55,10-12.5,8.51-9.7-2.37,2.43-9.44,12.54-8.72,9.7,2.37C-1905.16,2003.83-1902.75,1994.4-1904,1999.11Z" transform="translate(2038.64 -1913.25)"/><path class="cls-3" d="M-1904,1999.11c-1.67,6.78-8.86,11.18-10.36,1.72C-1916.23,1988.77-1900.38,1985.43-1904,1999.11Zm0,0c3.37-13.37-11.95-10-10,1.71C-1912.43,2009.48-1905.73,2006.1-1904,1999.11Z" transform="translate(2038.64 -1913.25)"/><g class="cls-20"><path class="cls-45" d="M-1906.63,1989.39c-6.8-1.67-10.84,15.69-4.36,17.08,6.85,1.47,11-15.45,4.36-17.08h0Zm2,9.55c-2.2,8.64-10.55,6.71-8.34-2,2.1-8.31,10.77-7.48,8.34,2h0Z" transform="translate(2038.64 -1913.25)"/></g><path class="cls-39" d="M-1908,2005.66a3.8,3.8,0,0,1-4.82-.13c0.93,0.66,1.36.59,1.47,1.62-0.21-1.58,1.61-.28,1.33.48,0.15-.44,1.16-1.88,1.41-0.66-0.06-1.12-1.07.28,0.61-1.32C-1909.53,2007.16-1907.94,2005.63-1908,2005.66Z" transform="translate(2038.64 -1913.25)"/><path class="cls-14" d="M-1911.77,1991.46c1.14-3.46,4.07-5.21,7.23-3.56C-1907.61,1986.64-1910.37,1988.56-1911.77,1991.46Z" transform="translate(2038.64 -1913.25)"/><path class="cls-34" d="M-1900.89,1994.57l-2.16.24a2.35,2.35,0,0,1,1-1c-2.67,1.66-2.79-8.14-11.08.15,3.24-3.34,12.31-3.77,9.91,2.46,0.49-1.24,1.16-1.38,2.37-1.85h0Z" transform="translate(2038.64 -1913.25)"/><path class="cls-46" d="M-1904.45,1999.66c-2,7.43-9.37,6-7.44-1.69,1.79-7.17,9.63-6.66,7.44,1.69C-1905.39,2003.18-1903.53,1996.14-1904.45,1999.66Z" transform="translate(2038.64 -1913.25)"/><path d="M-1905.27,1997.58c0.33-6.26-6.72-2-5.86,2.64,1,5.64,5.68,1,5.86-2.64C-1905.2,1996.34-1905.37,1999.6-1905.27,1997.58Z" transform="translate(2038.64 -1913.25)"/><g class="cls-41"><path class="cls-47" d="M-1904.23,1998.52c0.24-1.78-.51-4.56-2.83-4-3.1.73,1,6.43,0.62,6.88-4.28,5.63-4.41-2.95-3.67-5.76-2.83,10.73,6,9.68,5.89,2.89C-1904.14,1997.84-1904.21,1999.66-1904.23,1998.52Z" transform="translate(2038.64 -1913.25)"/></g><path class="cls-43" d="M-1905.16,1995.27c-2-2.74-3.12,3.94-1,5.59s1.25-5.3,1-5.59h0Z" transform="translate(2038.64 -1913.25)"/><path class="cls-28" d="M-1904.75,1998.87c0,0.8,0-4.72-1.68-3.65-0.91.58-.71,5.16,0.75,5.24a1.39,1.39,0,0,0,.93-1.59C-1904.69,1998-1904.79,1999.55-1904.75,1998.87Z" transform="translate(2038.64 -1913.25)"/><path class="cls-48" d="M-1912.39,2021.88c4.66,1.38,9.42-.74,14.19-0.07,5.49,0.77,12.6,6.87,18.19,5.43-4.54,6.43-8,13.9-17.32,12.82C-1909.71,2038.62-1903.69,2026.05-1912.39,2021.88Z" transform="translate(2038.64 -1913.25)"/><path class="cls-49" d="M-1899.46,2036.94c2.81,0.76,7.48,0,11.46-2.17C-1893.45,2032.22-1897.53,2035.05-1899.46,2036.94Z" transform="translate(2038.64 -1913.25)"/><path class="cls-50" d="M-1898.59,2030c5.16,0.87,12.16.66,16.89-2a109.73,109.73,0,0,0-22.81-4.48,6.85,6.85,0,0,0,5.91,6.47h0Z" transform="translate(2038.64 -1913.25)"/><path class="cls-51" d="M-1881.53,2028c-4-1.43-11.71,3.94-17.05,1.94-5-1.87-5.17-8.57-11.17-6.67,4.79,3.35,3.1,12.32,10.27,13.61-0.1,0,7.14-3,7.67-3.16,4.73-1.22,7.59.78,10.28-5.72C-1881.58,2028-1882.75,2031-1881.53,2028Z" transform="translate(2038.64 -1913.25)"/><path class="cls-14" d="M-1909.76,2023.32c9.72-.47,19.5,1.91,28.79,4.48-2,4.79-6.72,8.11-11.73,9.22-12.7,2.82-10.21-8.06-17.06-13.7C-1908.56,2023.26-1909.13,2023.84-1909.76,2023.32Zm0,0c6.52,4.79,3.33,13.85,14.22,13.46,5.41-.19,11.35-4,13.64-8.88-6.53.85-19.49-4.48-27.87-4.58C-1909.1,2023.8-1908.56,2023.33-1909.76,2023.32Z" transform="translate(2038.64 -1913.25)"/><path class="cls-14" d="M-1913.48,2020.14c1.39,1.11,1.93,2.44,3.72,3.18C-1912.73,2023.56-1912.25,2021.91-1913.48,2020.14Z" transform="translate(2038.64 -1913.25)"/><path class="cls-14" d="M-1879.8,2025.83c-0.46,1.22,1.09,2.54-1.73,2.21C-1880.32,2027.58-1880.22,2026.93-1879.8,2025.83Z" transform="translate(2038.64 -1913.25)"/><path class="cls-14" d="M-1900,2039.6c1.72,0.06,3.23.74,5,.51C-1897.18,2041.75-1898,2040.54-1900,2039.6Z" transform="translate(2038.64 -1913.25)"/><g class="cls-52"><path class="cls-53" d="M-1904.5,2023.52c0.16,2,16.68,1.81,15.55,4.83-1.28,3.42-11.51.77-13.37-.06,4.45,4,15.89,2.35,20.62-.3a109.73,109.73,0,0,0-22.81-4.48C-1904.48,2023.83-1899.65,2023.9-1904.5,2023.52Z" transform="translate(2038.64 -1913.25)"/></g><g class="cls-54"><path class="cls-49" d="M-1899.46,2036.94c3.7,1,15.34-3.11,8.19-3.11,2.19,0.53-4.19,3.63-5.51,2-0.49-.59.64-0.88,0.63-1.21l-3.31,2.31C-1896.65,2037.7-1898.69,2036.18-1899.46,2036.94Z" transform="translate(2038.64 -1913.25)"/></g><path class="cls-55" d="M-1903.23,2036.45a61.55,61.55,0,0,1,5.81,2.32C-1898.2,2041.61-1903.93,2036.19-1903.23,2036.45Z" transform="translate(2038.64 -1913.25)"/><path class="cls-55" d="M-1894.86,2039.18c-0.14,1.16.13-1.13,0,0C-1894.89,2039.36-1894.85,2039-1894.86,2039.18Z" transform="translate(2038.64 -1913.25)"/><path class="cls-28" d="M-1902.4,2037.24a17.16,17.16,0,0,0,2.71,1.17A3.08,3.08,0,0,1-1902.4,2037.24Z" transform="translate(2038.64 -1913.25)"/><path class="cls-56" d="M-1906.44,2011c1.54,2.07,9.5,2.63,8.8,3.76C-1901.37,2020.78-1906,2011.2-1906.44,2011Z" transform="translate(2038.64 -1913.25)"/><path class="cls-14" d="M-1899.78,1997.83c-0.48,8.87-10.2,12.11-2.27,18.9C-1911,2011.38-1901.43,2005.51-1899.78,1997.83Z" transform="translate(2038.64 -1913.25)"/><path class="cls-5" d="M-1898.69,1997.67c-0.17,4.08-6.79,11.61-6.51,13.53,0.58,3.92,5.77-2.75,5.87-2.89C-1897.31,2005.34-1899.15,1999-1898.69,1997.67Z" transform="translate(2038.64 -1913.25)"/><g class="cls-4"><path class="cls-31" d="M-1841.06,2023.12c2.36,3.69,1.16,9.07-.59,12.75-1.35,2.84-12,9.73-12.16,10.73-0.41,3.51,24.65-1.79,25.67-2.1-0.18,4.09-28.73,3.79-31.7,12.05-1.1-3,2.92-6,5-7.25a11.81,11.81,0,0,0-10.4,5.78c-0.71-3,4.28-7.28,6.13-9.1-3.79,1.66-8.74,2-9.25,6.31-7.27-7.59,9.71-12.45,11.7-18.68,2.75-8.6-4.23-8.82-7.24-14.28-3.17-5.75,3.36-12.74,4.14-18.56,3.09-23.13-45.12-23.56-35-44.57-8.74,4.25-14.62,14.45-16.22,23.73-2.22,12.94-6.33,22.74-10.55,35.23,0.3,0.06-5.78-5.67-6.62-6.32-5.37-4.16-9-3-4.93-11,2.83-5.51,6.43-4.13,3.67-11.34-2.83-7.37-8-10.77-6.63-20,0,7.54,6.07,11.5,9,17.82,1.26,2.69,2.44,5.21,1.77,8.25-0.27,1.23-3.79,5-3.69,5.57,0.79,4.1,8.25.41,9.8-2.78,4-8.23-7.86-14.75-2-24.06,6.79-10.72,21.61-12.79,30.79-20.42-8.68,14.29,11.72,23.44,20.57,28.48,5.6,3.19,12.06,7,13.39,13.92,0.67,3.47-5.13,17.09-4.24,18,1.14,1.15,6.36-6.88,7-8.29a17.88,17.88,0,0,0-.84-16.41c-8.1-13.75-36.44-15-28.34-37,0.71,18.35,15.61,20.65,27.59,30.38,17.19,14-3,25.09,2,40.24,1.51,4.59,5.07,6.11,3.84,11.68-0.61,2.75-5.64,6.15-5.76,7.73-0.31,4.4,5.69.94,8.86-2.16,10.09-9.87-1.8-12.42.18-21.33,1.88-8.43,13.36-9.7,13.66-20.44,1.37,11.26-14.38,18.31-8.59,27.38h0Z" transform="translate(2038.64 -1913.25)"/></g><path class="cls-57" d="M-1888.74,1956.93c0.25,8.93,7.5,14.23,14.59,18.2,5.41,3,11.56,5.36,15.65,10.3,0.47,0.56,4.63,9,3.9,8.85,0.7,0.12-.46-4.82-0.6-5.13-2.22-4.69-5.5-7.82-9.77-10.72-5.06-3.44-10.54-5.67-14.79-10.31-0.61-.67-9.27-16.25-7.62-16.23C-1888.85,1951.87-1888.78,1956.58-1888.74,1956.93Z" transform="translate(2038.64 -1913.25)"/><path class="cls-57" d="M-1870.77,1963.38c9.19,13,30.44,15.28,24.8,35.72,1.54-2,2.65-15.22,1.82-14.82,0.56-.27,2.87,6.62,3.55,6.29,1.17-.57-1.81-5.78.12-6.87,2.17-1.23,5.59,12.08,5.28,12.44,8.51-10-25.24-31.18-22.41-33.63-1.15,1,3.71,9.67,5.13,10.05-0.87-.23-8.48-6.15-8.48-6.21-0.07,1,2.74,3.32,1.79,4.46C-1860.61,1972.52-1870.6,1963.52-1870.77,1963.38Z" transform="translate(2038.64 -1913.25)"/><path class="cls-57" d="M-1900.08,1954.32a70.65,70.65,0,0,0-11.44,5.84c-2.7,1.72-12.08,13.39-13.81,13.75-2.85.59,8.81-14.77,9.36-13.34a38.59,38.59,0,0,1-6.17,3.33c-5.3-.76,2-3.86-1.42-5.4-0.6-.27-3.64,1.75-3.6,1.83-0.3-.67,2.86-4,3-5,0-.23-11.37,12.75-8.88,13.9-8.22-3.79,16.25-28.52,25.43-22.67,0,0-5,3.21-5.44,3.84-0.06.1,3.3,1.48,3.27,1.76-0.3,2.26-1.27,1.95-2.7,4.26,0.09-.14,14-3.5,14-3.07Z" transform="translate(2038.64 -1913.25)"/><path class="cls-57" d="M-1870.17,1955c3.47-9,10.83-10.41,17.12-16.06-0.17.15-14.56,7-14.53,7-0.22-.05,3.18-4.17,2.38-4.83s-5.7.93-5.76,1.25c0.46-2.55,8.91-3.81,7.49-7.09-2.11-4.88-19.62,6.95-22.8,6.51-0.14,0,8.39-11.05,10.08-10.42-4.51-1.69-20.65,4.16-20.91,9.51,0.05-1.09,5.83,2.08,5.69,2,1.59,0.61-.54,2.39,2.48,2.91,2.45,0.43,5.06-2.48,7.38-2.38,5.41,0.22,2.37-1.61,3.64,3.44,0.41,1.64-2.33,5.89,0,7.25,2.67,1.57,4.27-4.6,5.86-5.33,0.24-.11,2,6.39,1.89,6.21C-1865.16,1942.05-1872.11,1951.74-1870.17,1955Z" transform="translate(2038.64 -1913.25)"/><path class="cls-57" d="M-1862,1951.86c1-.41,12.83-5,13-4.26,0.33,1.79-5.62,3.26-5.86,5,0.39-2.85,16.25-3.52,17.25-5.09-0.94,1.48-12.9,7.3-12,8.63,0.36,0.51,7.38-2.55,7.53-2.75-1.89,2.44-8,7.68-10.94,6.82s1.53-3.76-.13-4.85-12.41,1.66-12.6-.6C-1865.79,1953.68-1862.15,1952-1862,1951.86Z" transform="translate(2038.64 -1913.25)"/><path class="cls-57" d="M-1846.42,1965.51c2.88-1.42,9.51-6,12.85-5.24,0.74,0.17-2.92,3.22-2.08,3.2,2-.05,11.68-4.7,12.67-2.81,0.54,1-10,4.23-9.54,5.56,0.21,0.65,13.1-1.48,12.25.06-1.6,2.89-18,10.11-21.51,8.12-5.34-3.05,4.32-3.47,4.41-6.14,0-.86-11.55.48-11.06-1.1A4.47,4.47,0,0,1-1846.42,1965.51Z" transform="translate(2038.64 -1913.25)"/><path class="cls-57" d="M-1830.95,1979.58c3.28,0.68,13.71,2.06,15.94.19-1.82,1.53-7.59,1.46-8.67,3.49-0.44.82,13.44-.44,13.76-1.62-0.56,2.05-10,10.43-11.05,10.56,1.74-.2,5.31-3.57,6.76-3s-16.41,13.93-16.4,9.6c0-3.73,6.69-5.79,6.15-9.06-0.2-1.19-5.13.14-5.84-.48,2.1,1.84,2.68-3.27,2.25-4.41-0.28-.73-6.64-3.58-5.69-4.68A4.63,4.63,0,0,1-1830.95,1979.58Z" transform="translate(2038.64 -1913.25)"/><path class="cls-57" d="M-1806.54,1997.24c-3.06,1.93-23.37,12.84-24,12.22,1.93,1.8,7.92-2,10.27-1.66,1.63,0.23-.59,3,0,3.77,1.27,1.9,5.27-2.31,6.87-1,0.69,0.58-3.43,6.4-3.59,6.4a15.5,15.5,0,0,1,2.23-.76c1.68,1.13-13.3,11.91-13.27,12.18,0.1,0.83,13.19-7.51,13.57-7.81,2.71-2.16,15.32-13.32,13.21-16.52-0.92-1.39-6.65,6.23-7.41,4.13-0.83-2.34,2.91-6.11,3.44-8.14-0.19.71-5.37,2.1-5.88,3C-1809.85,2000.74-1807.5,2000.14-1806.54,1997.24Z" transform="translate(2038.64 -1913.25)"/><path class="cls-57" d="M-1808.93,2027c-2.23,1.6-22.09,9.84-22.09,9.69,0,1.12,12.2-1.25,12.22-1.35,0,0.15-1.68,2.14-1.4,2.32a22.56,22.56,0,0,0,3-.55c0.08,0-9.13,5.18-9.55,4.27,1.65,3.53,22.56-10.43,21.39-16.27C-1805.62,2023.87-1808.77,2026.84-1808.93,2027Z" transform="translate(2038.64 -1913.25)"/><g class="cls-4"><path class="cls-32" d="M-1861,2041c17-8.8.69-18.88,3.63-31.27-2.18,2.87-1.66,6.4-3.34,8.93-1.36,2-2-4.63-2-4.62-0.06-4.51,3.89-8.88,4.73-13.3,1.59-8.43-2-13.42-8.92-18-9.44-6.27-32.06-11.93-26.19-27.93-8.84,5.38-29.06,14-27.21,26.56,1.28,8.71,8.95,12.88-.47,20-5.21,4-16.79,3.45-10.81-5.18-5,3.74-4.1,8-.09,11.47,1.7,1.46,6.08,2.17,8.16,3.17s-1.55,3.54,2,4.27c4.21-12.49,8.32-22.28,10.55-35.23,1.6-9.3,7.48-19.48,16.22-23.73-9.17,19.1,30.64,22.38,34.82,37,1.89,6.63-1.59,11.34-3.24,17.41-2.09,7.68-1.06,5.72,3.41,11.78,3.45,4.67,5.42,9.43,1.21,15-3,4-9.86,4-11.31,9.43A22,22,0,0,1-1861,2041C-1851,2035.84-1864.52,2042.35-1861,2041Z" transform="translate(2038.64 -1913.25)"/></g><g class="cls-4"><path class="cls-32" d="M-1819.06,1940.42a104.84,104.84,0,0,0-15.06-8.2c8.49,4.7-7.69-1.11-11.75-1.49,2.47,0.69,21.38,9.08,20.87,9.34-4.58,2.36-13.89-.46-19.17,1,5.19,0.23,20.18-.11,24.1,4.56,4.32,5.14-5,6.24-9.75,8.38,4.66-.26,7.56.75,11,1.92,1.61,0.56,3.21,4,7.57,1.18-3.07,9,8.49,11.47-4.87,16.33,9.37-.67,8.57-2.11,12.52,4.21,2.78,4.45,5.56-1.88,3.25,5.09-1.24,3.73-7.55,7.92-10.38,10.46,3.27-1.51,6.58-4.44,10.07-5.4-2.11.58,9.56,3,5.16,0.07,5.49,3.68-3.42,14.38-1.06,16.79,0.37,0.37,5.18-8.27,5.2-8.26,2.84,2-1.75,14.64-2.53,16.45,1.72-3.74,2.7-1.82,4.43-6.28,1.38-3.56,1.68-8.79,1.72-12.57a53.94,53.94,0,0,0-4.93-22.55c-5.59-12.45-15.28-23.21-26.35-31.07C-1824.24,1937.06-1802.17,1952.42-1819.06,1940.42Z" transform="translate(2038.64 -1913.25)"/></g><path class="cls-58" d="M-1781.47,1966.54c3.22,1.17,9,2.62,11.14,5.47a18.66,18.66,0,0,1-6,4.55c2.46,1.79,5.47,4.83,5.25,8.17-3.31.67-6.94-1-9.31-3.24,1,1.87,2,4.23,1.41,6.41a12.9,12.9,0,0,1-6.4-3.89c0.46,2.8.07,6.69-2.09,8.76a13.67,13.67,0,0,1-4-11c-1.36,2.16-4.62,6.54-7.68,6.09-0.32-3.65.66-7.43,3.53-9.81a20.08,20.08,0,0,1-9.33-2.11c1.09-4,4.4-3.19,6.21-5.47q2.51,1,2-1a12.59,12.59,0,0,1,.62-3.94c3.33-4.24.21-4.62,5.14-2.73,1.5,0.58,2.46,4.06,2.85,5.49C-1787.7,1962.59-1783.48,1960.33-1781.47,1966.54Z" transform="translate(2038.64 -1913.25)"/><path class="cls-59" d="M-1787.46,1993.35a14.37,14.37,0,0,1-4.59-10.07c-7.13,9.45-10.9,1.39-4.73-4.82-1.74-.07-8-0.65-8.69-2.31-1.46-3.34,6.58-5.24,7.21-6.09,2.88-3.84,4.79-17.19,10.06-3.27,2.26-8.21,6.87-1.78,11.25,1.07,5.11,3.33,11.36,4,1.47,8.8,7.52,6.07,5,12.26-3.67,6.3,0.94,2.27.18,3.34,0.49,5.45a15.53,15.53,0,0,1-6.18-3.18A10.75,10.75,0,0,1-1787.46,1993.35Zm-3-13.89c-1.52,4.51-.16,9.14,3.06,12.69,2.26-2.59,2-7,1.39-10.22,1.4,2.89,3.67,4.41,6.8,5.42,0.47-2.82-1.53-6.34-3.27-8.5,2.58,3,7,6.15,11.07,5.52,0-3.31-3.2-6.22-5.76-8a15.55,15.55,0,0,0,6.33-4.4c-2-1.91-9.07-5.47-11.41-6.27-3.36-1.14-.08-2.82-3.73-1.59-1.54.52-1.88,4.53-2,6.08-0.67-3.23-2.31-8-5.74-9a15.54,15.54,0,0,0-2.5,9.8,7.56,7.56,0,0,0-8.2,4.75,19.53,19.53,0,0,0,10.4,1.81c-3.63,2-5,5.87-4.71,9.92C-1795.21,1987.46-1792.15,1982.3-1790.51,1979.47Z" transform="translate(2038.64 -1913.25)"/><path class="cls-60" d="M-1794.18,1948.88c0.79-3.69,3.05-7.88,6.62-9.54,2,3.14,1.51,7.4.38,10.73,2.18-2.24,5.53-3.71,8.7-2.94,1.14,2.39-3.34,6.63-4.93,8.13,3.74,1,7.7,3.81,8.81,7.71a7.61,7.61,0,0,1-6.88-.58c1.43,1.32,3.92,4.28,3.73,6.33a11.37,11.37,0,0,1-7.82-3.42,10.93,10.93,0,0,1,.5,6.6,12.24,12.24,0,0,1-6.53-6.08c-0.83,2.44-2.61,7.6-5.35,8.6a11.34,11.34,0,0,1-.74-10c-1.39,1.94-4.37,4.47-7,4-1.39-4.92,3.7-9.13,7.68-10.83C-1807.08,1955.9-1803.64,1946.86-1794.18,1948.88Z" transform="translate(2038.64 -1913.25)"/><path class="cls-61" d="M-1797.13,1974.9a11.5,11.5,0,0,1-1.49-8.86c-9.28,8.94-6.64-4.65.36-8.3-3.05-.52-6.46-3.92-5.27-7,1.46-3.82,7.07-1,9-2.32,2.84-1.93,3-7.39,7.09-9.58,1.85,3.1,1.87,6.58,1,10,8.45-6.58,9.63.26,3.74,6.26a13,13,0,0,1,8.53,8.15c-2.28-.24-3.16,1.23-5.69.44,1.73,2.12,1.25,3.64,2.42,5.51a12.89,12.89,0,0,1-7.27-2.34c0.51,2.17-.26,3.61-0.16,5.65a13.18,13.18,0,0,1-6.78-5.54C-1792.78,1970-1794.14,1973.19-1797.13,1974.9Zm1.07-13.15c-2,3.63-2.9,8.3-.73,12.11,2.93-1.69,4.24-6.4,5.25-9.5,0.81,3.28,3.07,5.42,6.18,6.93a10.35,10.35,0,0,0-.6-5.83c1.76,0.78,5.18,2.51,7.78,2.79a13.59,13.59,0,0,0-3.6-5.58c1.45-.11,4.81.69,6.66,0-1.29-3.83-5.3-6.35-9.07-7.23,1.53-1.46,6-5.41,5.39-8-3.65-.77-7.27,1.61-9.46,4.35,1.52-3.59,2.49-8.38.53-11.94-3.69,1.93-3.44,6.8-6,8.71-1.63,1.24-5-.61-7.27,1.1-4.66,3.58,1,7.41,5.45,7.73-4.08,1.57-10.06,5.38-8.82,10.63C-1801,1968.36-1797.8,1964.22-1796.06,1961.74Z" transform="translate(2038.64 -1913.25)"/><path class="cls-62" d="M-1813.43,1940.49c-5.53-5.92-3.7-13.9,1.54-19.39,4.4,3.93,6.36,11.2,4.19,16.78,3.85-6.82,9.61-6.28,16.33-4.61-0.79,4.22-4.28,12.17-9.56,12.47,3.33,0.15,6.76.88,8.76,3.67a7.68,7.68,0,0,1-6.95,1.27,13.29,13.29,0,0,1,7.23,6.13,12.87,12.87,0,0,1-11-2.14c0.84,4.16-2,8.68-4.74,11.63a13.3,13.3,0,0,1-.53-13.35c-2.07,3-6,5.39-9.8,4.37,0.8-4.11,2.22-8.36,6.12-10.39-4.23,1-9.83-1.22-11.24-5.64C-1821.18,1940.28-1815.67,1938.33-1813.43,1940.49Z" transform="translate(2038.64 -1913.25)"/><path class="cls-63" d="M-1807.72,1967a14.17,14.17,0,0,1-1.94-11.68,9.81,9.81,0,0,1-8.83,2.34c0.59-3.43,1.82-7.75,4.75-10-9,.4-14.5-11.36-1.2-8.29-4.43-6.21-2.15-13.76,3-18.8a16.6,16.6,0,0,1,5.22,15.06c2.14-2.81,12.57-7.14,15.57-2.67,2.14,3.18-5.32,11.28-7.81,12.59,4.27,0.56,11.8,5.67,2.43,6a12.18,12.18,0,0,1,5.16,5.61,13.61,13.61,0,0,1-11.06-1.51C-1802.12,1959.76-1804.91,1964.08-1807.72,1967Zm-0.83-14.24c0.48,4-1.69,8.27.94,12.89,2.84-3.32,5-7.49,4.05-11.93a13.43,13.43,0,0,0,11.07,2.87c-1.43-2.59-5.29-4.89-6.51-6.25,2.07,0.36,4.56.35,6.3-1-1.48-2.43-7-3.35-8.26-4,4.92-.28,8.33-8,9.1-11.75-8-2.67-10.77.55-16.22,4.15,2.06-5.32.29-12.21-3.79-16.05-4.68,5.06-6.85,13.19-1.27,18.5-2.41-.09-6.64-0.09-9.46,1.32,2.24,5.5,9,5.69,13.83,4.29-5.2,2.1-7.59,5.61-8.74,11.21A9.3,9.3,0,0,0-1808.55,1952.72Z" transform="translate(2038.64 -1913.25)"/><path class="cls-64" d="M-1811.07,1925.46c-1.11,3.07-5.23,6.84-.1,12.49,0.82,0.92,1.06-10.66.1-12.49C-1811,1925.21-1809.13,1929.17-1811.07,1925.46Z" transform="translate(2038.64 -1913.25)"/><path class="cls-64" d="M-1793.77,1934.88c1.07-1.54-18.57,1.57-10.44,7.83,3.49,2.68,12.81-5.41,10.44-7.83C-1793.62,1934.67-1793.68,1935-1793.77,1934.88Z" transform="translate(2038.64 -1913.25)"/><path class="cls-64" d="M-1794.7,1948.38c-1.48-.41-6.65-2.69-7.55-0.24-1.72,4.66,8.9.61,7.55,0.24h0Z" transform="translate(2038.64 -1913.25)"/><path class="cls-64" d="M-1794.54,1955c-1.67-2.86-8.42-2.75-8.23-2.55,0.86,0.94,9.3,4.44,8.23,2.55C-1796,1952.5-1794.43,1955.15-1794.54,1955Z" transform="translate(2038.64 -1913.25)"/><path class="cls-64" d="M-1804.43,1952.86c-0.06-.3-5.21,5.28-3,9.75,1,2,3.31-8.4,3-9.75C-1804.45,1952.79-1803.55,1956.59-1804.43,1952.86Z" transform="translate(2038.64 -1913.25)"/><path class="cls-64" d="M-1806.72,1947.54c1.17-4.45-12.77,8.79-8.63,8.25,1.72-.22,10.61-5.58,8.63-8.25C-1806.66,1947.3-1806.64,1947.66-1806.72,1947.54Z" transform="translate(2038.64 -1913.25)"/><path class="cls-64" d="M-1808.9,1943.73c-1-3.19-9.27-3.18-11.19-1.38-2.94,2.86,13.06,3.12,11.19,1.38C-1808.93,1943.65-1808.7,1943.92-1808.9,1943.73Z" transform="translate(2038.64 -1913.25)"/><path class="cls-65" d="M-1780.37,1949.15c0.11-.52-8.83,2.38-7.65,5.21,0.95,2.27,7.38-3.91,7.65-5.21h0Z" transform="translate(2038.64 -1913.25)"/><path class="cls-65" d="M-1777.31,1960.61c-1.32-1.62-5.48-5.49-8-3.57-3.18,2.43,9.58,5.48,8,3.57C-1779.06,1958.46-1777.14,1960.81-1777.31,1960.61Z" transform="translate(2038.64 -1913.25)"/><path class="cls-65" d="M-1780,1966c-0.34-.83-6.92-6.25-6.23-4.27,0.83,2.2,6.26,4.33,6.23,4.27C-1780.91,1963.65-1779.82,1966.3-1780,1966Z" transform="translate(2038.64 -1913.25)"/><path class="cls-65" d="M-1788.91,1961.18c-0.6-.47-1.82,6.38,2.63,7.81,2.31,0.74-1.88-7.23-2.62-7.81h0Z" transform="translate(2038.64 -1913.25)"/><path class="cls-65" d="M-1792.08,1960.74c-0.6,1.13-5.58,3.63-4.91,9.9,0,0.25,4.89-7.47,4.91-9.9C-1792.08,1960.73-1792.11,1964.7-1792.08,1960.74Z" transform="translate(2038.64 -1913.25)"/><path class="cls-65" d="M-1795.42,1959c-0.24-2.22-7.83,4.69-8,6.93-0.13,1.67,9.93-5.62,8-6.93C-1795.45,1958.8-1795.26,1959.14-1795.42,1959Z" transform="translate(2038.64 -1913.25)"/><path class="cls-65" d="M-1788,1941.75c-0.05-.68-6.31,9.28-3.29,11.05,2.31,1.35,3.36-10.19,3.29-11.05C-1788,1941.47-1787.62,1945.56-1788,1941.75Z" transform="translate(2038.64 -1913.25)"/><path class="cls-65" d="M-1786.35,1983.08c0,0.35-.39-8.16-2.13-7.25-4.23,2.19,1,12.82.24,13.64a10.3,10.3,0,0,0,1.89-6.39C-1786.19,1980.49-1786.48,1985.29-1786.35,1983.08Z" transform="translate(2038.64 -1913.25)"/><path class="cls-65" d="M-1781.42,1981.76s-2.9-6.61-3.66-6.41c-2.63.7,2.63,12.45,4,10.63a4.43,4.43,0,0,0-.31-4.22C-1782.32,1979.65-1780.89,1983-1781.42,1981.76Z" transform="translate(2038.64 -1913.25)"/><path class="cls-65" d="M-1773,1982.64c-0.45-.91-9.39-10.1-10.16-7.3-1.32,4.79,10.06,7.1,10.16,7.3C-1774.79,1979-1772.78,1983-1773,1982.64Z" transform="translate(2038.64 -1913.25)"/><path class="cls-65" d="M-1772.57,1971.2c-1.9-.55-9.55-2.65-10.94.27-3.75,2.72,14.21.67,10.94-.27h0Z" transform="translate(2038.64 -1913.25)"/><path class="cls-65" d="M-1789.86,1973.89c-1.92,5.46-9.09-1.68-9.78-1.69-1.14,0-4.39,2.34-4,3.74,0.86,3.26,14.47-.29,13.8-2C-1789.75,1973.57-1789.79,1974.06-1789.86,1973.89Z" transform="translate(2038.64 -1913.25)"/><path class="cls-65" d="M-1791.18,1975.86c-1.18,4.23-7.38,3.85-7.45,10.21,0,2.24,6.16-4.39,6.56-5.18,0.71-1.39,1.17-6.18.89-5h0Z" transform="translate(2038.64 -1913.25)"/><path class="cls-66" d="M-1795.12,1934.24c-2-.08-11.64,3.93-8.86,7.41,1.37,2.68,9.93-7.38,8.86-7.41C-1798.84,1934.09-1794.82,1934.25-1795.12,1934.24Z" transform="translate(2038.64 -1913.25)"/><path class="cls-66" d="M-1811,1936.31c0.46,0.64,0-11.48-1.12-10.17-3.64,4.21.46,9.21,1.12,10.17h0Z" transform="translate(2038.64 -1913.25)"/><path class="cls-66" d="M-1810.74,1942.91c-2.56-1.32-6.89-2.74-9.49-.55-2.44,2,12,1.83,9.49.55h0Z" transform="translate(2038.64 -1913.25)"/><path class="cls-66" d="M-1808.1,1948.13c1.1-4.78-8.79,8.86-5.88,7,0.71-.46,7.92-5.42,5.88-7C-1808,1947.89-1808,1948.22-1808.1,1948.13Z" transform="translate(2038.64 -1913.25)"/><path class="cls-66" d="M-1805.15,1952.89c-0.62-1.45-3.71,10.39-1.1,8.11,2.05-1.82,2.1-5.8,1.1-8.11h0Z" transform="translate(2038.64 -1913.25)"/><path class="cls-66" d="M-1795.82,1954.06c-0.48-.34-7.64-2.4-6.6-1.35,1.89,1.94,6.49,1.27,6.6,1.35h0Z" transform="translate(2038.64 -1913.25)"/><path class="cls-66" d="M-1796.58,1948.46q-2.63-1.65-4.71-.44a0.68,0.68,0,0,0-.4.77c2.5,2.19,4.72-.45,5.11-0.33h0Z" transform="translate(2038.64 -1913.25)"/><path class="cls-67" d="M-1788.36,1943.24c-1.48,0-1.9,3.84-2,6.78C-1790.36,1949.67-1788.29,1945.1-1788.36,1943.24Z" transform="translate(2038.64 -1913.25)"/><path class="cls-67" d="M-1781.72,1949.41c-1.47,0-4.38,4-3.52,3.78,1.51-.37,4.12-4,3.52-3.78C-1781.84,1949.41-1781.24,1949.23-1781.72,1949.41Z" transform="translate(2038.64 -1913.25)"/><path class="cls-67" d="M-1778.44,1960.14c0.67-1.49-4.72-3.34-5.94-2.35-1.49,1.24,6.83,3.78,5.94,2.35C-1778.36,1960-1778.28,1960.4-1778.44,1960.14Z" transform="translate(2038.64 -1913.25)"/><path class="cls-67" d="M-1781.47,1964.3c-1.23-1.07-1.43-2.55-3.48-2.67-2.27-.11,5.07,3.38,3.48,2.67h0Z" transform="translate(2038.64 -1913.25)"/><path class="cls-67" d="M-1786.2,1967c0,0.3-2.19-6-3.16-4.52-1.53,2.3,3.36,5.94,3.16,4.52C-1786.43,1965.23-1786.17,1967.18-1786.2,1967Z" transform="translate(2038.64 -1913.25)"/><path class="cls-67" d="M-1793.15,1962.07c0.06-1.07-6.15,5.11-3.42,6.69,1.38,0.8,3.43-6.81,3.42-6.69C-1793.14,1961.77-1793.31,1964.52-1793.15,1962.07Z" transform="translate(2038.64 -1913.25)"/><path class="cls-67" d="M-1796.92,1959.34c-1.84-.23-7.19,4.71-5.86,6.05,1.57,1.58,6.92-5.92,5.86-6.05h0Z" transform="translate(2038.64 -1913.25)"/><path class="cls-68" d="M-1773.72,1970.86c0.49,0-10.3,0-8.19,1.23,3.54,2,7.06-1.33,8.19-1.23h0Z" transform="translate(2038.64 -1913.25)"/><path class="cls-68" d="M-1774.3,1981.58c-0.25-1.39-6-7.13-7.32-5.47-2.68.83,7.66,7.46,7.32,5.47C-1774.79,1978.82-1774.24,1981.91-1774.3,1981.58Z" transform="translate(2038.64 -1913.25)"/><path class="cls-68" d="M-1783.8,1977.74c-1.07-2.11,1.61,9.32,2.39,6.29a9.49,9.49,0,0,0-2.39-6.29h0Z" transform="translate(2038.64 -1913.25)"/><path class="cls-68" d="M-1787.39,1978.7c-1.19-3.84-3.64,9.55-.86,7.56,2.18-1.59,1.51-5.49.86-7.56h0Z" transform="translate(2038.64 -1913.25)"/><path class="cls-68" d="M-1791.54,1977.51c-0.86.33-8.82,7.6-5.84,7.35,4.2-.3,5.2-7.1,5.84-7.35h0Z" transform="translate(2038.64 -1913.25)"/><path class="cls-68" d="M-1799.53,1973.39c-0.4-1.53-2.76,1.69-2.82,1.8-1,1.63,4.48,1,4.24.87a7.16,7.16,0,0,1-1.42-2.67C-1799.58,1973.22-1799,1973.92-1799.53,1973.39Z" transform="translate(2038.64 -1913.25)"/><path class="cls-5" d="M-1996.93,2167.79c-4.1,0-8.52-.38-12.56.33-2.12.37-15.62,7.29-14.9,7.7,1.3,0.74,9.83-3.89,10.84-4.89-0.68.67-8.8,7.82-7.9,7.92,1.35,0.14,8.61-2.5,9.26-3.45-1.7,2.49-6.92,3.76-7.62,7-0.2.9,8.79-2.05,8.65-.83-0.19,1.8-9.95,7.54-8.33,9.1-0.58-.55,20.08-7.58,21.38-8.22C-1991.37,2179.11-1984.12,2168.28-1996.93,2167.79Z" transform="translate(2038.64 -1913.25)"/><path class="cls-5" d="M-1977.88,2161.63c3.09-2.44,19.17-16.72,23.22-13.62,3,2.25-26.29,20.76-26.25,17.75A8.72,8.72,0,0,1-1977.88,2161.63Z" transform="translate(2038.64 -1913.25)"/><path class="cls-5" d="M-1838.32,2073a1.12,1.12,0,0,1-1.52-.8,1.11,1.11,0,0,1,1.52.8h0Z" transform="translate(2038.64 -1913.25)"/><path class="cls-5" d="M-1840.28,2071.44c-1,2-7-1.15-5.93-3.12s7,1.14,5.93,3.12h0Z" transform="translate(2038.64 -1913.25)"/></g></g></svg>