<svg xmlns="http://www.w3.org/2000/svg" viewBox="0 0 419.97 549.69"><defs><style>.cls-1{isolation:isolate;}.cls-2{fill:#292929;}.cls-2,.cls-3,.cls-31,.cls-33,.cls-38,.cls-48,.cls-8{stroke:#1a171b;}.cls-2,.cls-20,.cls-3,.cls-30,.cls-31,.cls-32,.cls-33,.cls-38,.cls-44,.cls-48,.cls-8{stroke-linecap:round;stroke-linejoin:round;stroke-width:0.52px;}.cls-13,.cls-18,.cls-19,.cls-3{fill:#555658;}.cls-15,.cls-17,.cls-4,.cls-40,.cls-42,.cls-43,.cls-49,.cls-50,.cls-52,.cls-6{fill:#303030;}.cls-4,.cls-5{opacity:0.36;}.cls-10,.cls-11,.cls-15,.cls-16,.cls-17,.cls-18,.cls-19,.cls-22,.cls-34,.cls-36,.cls-37,.cls-39,.cls-4,.cls-40,.cls-41,.cls-42,.cls-43,.cls-45,.cls-47,.cls-49,.cls-5,.cls-50,.cls-52,.cls-55,.cls-58,.cls-60{mix-blend-mode:multiply;}.cls-61,.cls-7{fill:#bfbfbf;}.cls-27,.cls-35,.cls-7{opacity:0.27;}.cls-8{fill:#e7e7e8;}.cls-9{fill:#1a171b;}.cls-10,.cls-12{fill:#dedede;}.cls-14,.cls-30{fill:none;}.cls-15,.cls-39{opacity:0.22;}.cls-16,.cls-17{opacity:0.32;}.cls-18{opacity:0.5;}.cls-19,.cls-29{opacity:0.51;}.cls-20,.cls-22{fill:#f5aa80;}.cls-20,.cls-32{stroke:#836655;}.cls-21{fill:#836655;}.cls-22,.cls-42{opacity:0.38;}.cls-23{fill:#c4c5c6;}.cls-24{fill:#d1d2d4;}.cls-25,.cls-28,.cls-29{fill:#fff;}.cls-25{opacity:0.71;}.cls-26{fill:#9c9e9f;}.cls-30{stroke:#404043;}.cls-31{fill:#3c3c3d;}.cls-32,.cls-34,.cls-44,.cls-46,.cls-47{fill:#f8c09c;}.cls-33{fill:#474747;}.cls-34{opacity:0.59;}.cls-35,.cls-54,.cls-59{fill:#595959;}.cls-36,.cls-50{opacity:0.34;}.cls-37{opacity:0.39;}.cls-38{fill:#4e4e50;}.cls-40{opacity:0.53;}.cls-41{opacity:0.42;}.cls-43{opacity:0.23;}.cls-44{stroke:#9c7a65;}.cls-45,.cls-47{opacity:0.4;}.cls-48{fill:#4b4b4d;}.cls-49{opacity:0.25;}.cls-51{opacity:0.61;}.cls-52{opacity:0.47;}.cls-53{fill:#d6d6d6;opacity:0.31;mix-blend-mode:overlay;}.cls-55,.cls-57{opacity:0.46;}.cls-56,.cls-58{fill:#262626;}.cls-59{opacity:0.56;}.cls-60{opacity:0.43;}.cls-61{opacity:0.41;}</style></defs><title>fighter_02</title><g class="cls-1"><g id="Layer_1" data-name="Layer 1"><path class="cls-2" d="M-4419.12,2957.53c5.5-4.94,15.45-1.22,21.91-.17,0.1-3.11,2.2-13.16.5-15.49s-9.72-2.62-12.68-3.24c-2.36-.5-8.63-2.93-10.32-1.54C-4423.09,2939.87-4419.67,2954.47-4419.12,2957.53Z" transform="translate(4463.32 -2660.03)"/><path class="cls-3" d="M-4347.88,3203.8c18.15,1.51,32.64.79,50-5.15,4.86-1.67,15.11-3.68,18.25-8.28s-0.28-8.19-3-12.91c-2.33-4.06-13.08-24.32-18.39-24.77-6.73-.57-13.29,11.91-22.13,9.7-0.08,0,3.45,5.56,3.75,5.43-3.18,1.37-5.84,6.6-8.93,9.32-6.06,5.34-11.13,6.71-19,8.94-3.91,1.1-13.94,2.83-14.62,8.56s9.39,8.91,14.09,9.16C-4332.35,3205.09-4356.27,3203.36-4347.88,3203.8Z" transform="translate(4463.32 -2660.03)"/><path class="cls-3" d="M-4306.6,3201.6c-13,4.68-47.25,8.71-55.94-5.77-4.73,13.13,33.77,11.89,38.73,11.68,9-.38,47.74-7,46.15-19.31-5.67,8.25-20.23,10.26-28.94,13.41h0Z" transform="translate(4463.32 -2660.03)"/><path class="cls-4" d="M-4278.14,3186.33c-3-8.24-12.72-27.8-21.3-31.61-6.61-2.94-14.49,10-23.72,7.68-0.08,0,3.45,5.56,3.75,5.43-2.75,1.19-5,5.8-7.5,8.17-4.29,4-8.27,6.87-14,8.66-6.62,2.07-28.78,5.16-17.73,15.47s85.7,0.18,80.5-13.8C-4280.72,3179.34-4277.89,3187-4278.14,3186.33Zm-22.12,8.93c-10,7.73-26.54,9.08-38.54,7.94-6.76-.64-28.14-3.83-17.77-13,6.32-5.61,15.57-2.62,22.55-6.1,2.49-1.24,15.76-13.37,19.64-8.26-1.3-1.71-5.21-1.23-4.37-4.43,0.37-1.44,6.65-1.62,6.56-2.5a12.45,12.45,0,0,0-4.37-1.81c2.28-.48,10.61-4.33,12.47-2.67,2.07,1.85-3.89,9.54-4.44,11.28-1.92,6.06-1.94,6.37,3,10.38,2.92,2.38,11.33,4.53,5.28,9.21h0Z" transform="translate(4463.32 -2660.03)"/><g class="cls-5"><path class="cls-6" d="M-4277.66,3188.19c-1.21-9.28-12.89-27.19-20.83-32.32-5-3.21-1.41-2.92-7.5.16-4.89,2.47-11.26,7.84-17.18,6.36,0.27,0.07,1.44,3.21,2.73,3.68,2.55,0.94,9.33-2,11.71-2.74,0.35-.12,7.23-3.38,7.94-2.93,2.79,1.81-.65,0,0.84,3.32,2.63,5.86-3,10.47,2.89,16.6,3.45,3.58,13.64,7.09,10.5,14.12,3.1-1.38,6.89-3.35,8.89-6.26C-4277.73,3187.6-4279.37,3190.68-4277.66,3188.19Z" transform="translate(4463.32 -2660.03)"/></g><path class="cls-7" d="M-4333.9,3186.46c-6,0-16.09-.09-21.23,3.55-10.65,7.55,7.23,10.83,14.07,9.73,7.16-1.15,14.9-6.41,18.38-12.89C-4316.89,3176.07-4328.9,3183-4333.9,3186.46Z" transform="translate(4463.32 -2660.03)"/><path class="cls-8" d="M-4365.82,3123.15a234.18,234.18,0,0,0,33.18,33.9c7.6,6.25,11.36,9.81,21,6.66,3.09-1,9.37-3.21,10.93-6.42,2.47-5.1,1.36-1.39-.1-5.91-2.44-7.57-9.8-15.54-13.76-22.55-3-5.25-7.12-17.1-13.94-18.27-4.84-.83-14,5-18.41,6.66C-4352.54,3119.39-4359.62,3123.3-4365.82,3123.15Z" transform="translate(4463.32 -2660.03)"/><path class="cls-9" d="M-4341.28,3135.46c-0.94,0-15.81-.24-15.65-1.4-0.51,4,45.43-3.42,43.11-6C-4311,3131.21-4339,3135.46-4341.28,3135.46Z" transform="translate(4463.32 -2660.03)"/><path class="cls-9" d="M-4337.15,3148.74c2.2,0-6.26.37-6-.68-0.44,1.77,39.13-4.39,36.47-7.76C-4304.14,3143.5-4334.4,3148.74-4337.15,3148.74Z" transform="translate(4463.32 -2660.03)"/><path class="cls-9" d="M-4331,3159.28c3.48,0,21.73-23.45,20.81-23.85C-4308,3136.38-4325.79,3159.28-4331,3159.28Z" transform="translate(4463.32 -2660.03)"/><path class="cls-10" d="M-4314.58,3128.84c-5.9-10.88-8.5-20.41-21.28-15.93-9,3.15-20.18,10.49-30,10.24,0.93,1.15,2.08,2.27,2.89,3.5,3.59,5.44,4.06,3.26,9.05,3.64,4.55,0.34,13.38.9,17.61-1.25,2.92-1.49,5.7-8.35,8.22-4.74,3.57,5.1-7.09,10.42-7.14,14.07-0.13,10.33,22.56,3.16,26.6,10.89,5.06,9.69-6.94,15.29-14.4,15.14,5,3.47,21.73-2.69,23.27-8.38,1.64-6-11.53-21-14.86-27.16h0Z" transform="translate(4463.32 -2660.03)"/><path class="cls-9" d="M-4348.73,3142.6c3.9,0,26-28.36,25.88-28.42C-4321.39,3115.13-4343.59,3142.6-4348.73,3142.6Z" transform="translate(4463.32 -2660.03)"/><path class="cls-10" d="M-4314.58,3128.84c-5.9-10.88-8.5-20.41-21.28-15.93-9,3.15-20.18,10.49-30,10.24,2.08,5.44,15.6,5.12,20.61,4.52,5.39-.64,15.8-8.91,20-4.8,3.76,3.7,1,11.75,6.6,16.5,6.51,5.57,15.85,7.84,18,17.83,4.35-4.65-11.19-23.25-14-28.35h0Z" transform="translate(4463.32 -2660.03)"/><path class="cls-3" d="M-4108.08,3149.37c-0.45,8.68,9.31,16.63,14.08,23,3.14,4.15,8.16,9.2,9.38,14.4,1.16,4.95-1.62,8.24-1.55,13,0.23,15.18,31.43,10.14,38.59,1.94,14.13-16.16-13.66-51.14-26.66-60.74-4.56-3.36-12.75-5.46-18.12-2.12C-4098.89,3142.82-4097.64,3150.64-4108.08,3149.37Z" transform="translate(4463.32 -2660.03)"/><path class="cls-4" d="M-4066,3150.23c-5.47-6.71-9.19-12.34-18.08-12.62-9.9-.3-7.74,3.05-13.47,8.22-2,1.77-10.15,3.07-10.6,3.73-1.75,2.57,3.22,8.71,4.37,10.44,5.78,8.81,18.2,18,19.71,29,1.21,8.77-7.28,14.86,4.5,18.9,6.46,2.21,15.87,1.59,22.23-.47,29.76-9.67,2.54-43.45-8.66-57.18h0Zm-14.84,51.5c-4.68-3.24-3.48-10.18-1.28-14.54,1.19-2.35,5.74-5.24,6.18-7.29-1.09,5-11.67-1.49-13.34-3.46-2.85-3.36-11.62-15.18-10.87-20.17,1.09-7.25,16.08-16.53,22.42-13.78,11.21,4.87,22.13,30.35,21,41.47-0.89,8.45-14.22,24.57-24.06,17.76h0Z" transform="translate(4463.32 -2660.03)"/><path class="cls-8" d="M-4171.39,3124.53c16.49,12.17,36,17.91,54.75,25.57,4.18,1.71,7.69,4.17,12,3.84,5-.38,11.13-6.46,13.76-10.34,3.44-5.09,3.19-3.74.73-7.45s-9.7-6.77-13.14-9.42c-6.06-4.65-11.73-9.73-17.61-14.59s-18.11-17.63-26.31-17.48C-4156.51,3094.83-4167,3117.31-4171.39,3124.53Z" transform="translate(4463.32 -2660.03)"/><path class="cls-9" d="M-4161.56,3131.64c6.67,0,18.11-6.06,24.65-10.75,1.2-.86,14-12.26,14.17-12.07,1.11,1-12.92,12.11-13.78,12.73C-4143.9,3126.84-4152.3,3131.35-4161.56,3131.64Z" transform="translate(4463.32 -2660.03)"/><path class="cls-9" d="M-4124.61,3147c4.09,0,7-32.47,7.57-32.4C-4116.62,3114.67-4119.12,3147-4124.61,3147Z" transform="translate(4463.32 -2660.03)"/><path class="cls-9" d="M-4138.8,3142.34c3.8,0,30.69-21.3,29-22.47C-4106.46,3122.22-4133.87,3142.34-4138.8,3142.34Z" transform="translate(4463.32 -2660.03)"/><path class="cls-9" d="M-4106.87,3154.76c9.92,0,5-26.69,6.11-27C-4101,3127.84-4094.93,3154.76-4106.87,3154.76Z" transform="translate(4463.32 -2660.03)"/><g class="cls-11"><path class="cls-12" d="M-4088.24,3137.29c-12.06-6-22.33-16.66-32.61-25.16-5.38-4.44-19.62-19-27.54-17.51-6.2,1.18-12.47,13.68-15.62,18.37-5.8,8.63-10.24,10.13-.57,16.1,0.12-6.76,12.09-7.6,16.28-9.74,1-.51,8.41-8,7.62-7.89,4.62-.76,3.64,7.6,3.49,11.33-0.28,6.64-3,5.54,5.14,6.43,3,0.32,11-2.42,13,.35,2.1,2.95-3.88,7.46.71,10.21,2.61,1.57,10.91-3.4,14.65-2.29,12.43,3.71,4.62,13.14-2.76,16.84,3.85-.48,22.47-14.91,18.22-17h0Z" transform="translate(4463.32 -2660.03)"/></g><path class="cls-13" d="M-4076.34,3181.63s-6.21,2.93-7.76,9Z" transform="translate(4463.32 -2660.03)"/><path class="cls-9" d="M-4084.1,3190.86c-2.19,0,7.09-11.35,8-9.34C-4076.44,3180.78-4085.85,3190.86-4084.1,3190.86Z" transform="translate(4463.32 -2660.03)"/><path class="cls-9" d="M-4148.13,3138.89c6.3,0,13.17-37.14,14.36-37C-4133.29,3102-4140.85,3138.89-4148.13,3138.89Z" transform="translate(4463.32 -2660.03)"/><path class="cls-7" d="M-4095.83,3155.67c1,9.64,11.89,29.87,23.75,18.4,6.75-6.53.1-21.81-6.49-26C-4083.45,3144.93-4096.31,3149-4095.83,3155.67Z" transform="translate(4463.32 -2660.03)"/><path class="cls-7" d="M-4073.57,3182.84c-9.52,4.67-10.89,20,2.76,15.74C-4053.68,3193.23-4060.09,3171.36-4073.57,3182.84Z" transform="translate(4463.32 -2660.03)"/><path class="cls-14" d="M-4058.31,3173.78c-6.2-16.21-21.5-48.37-38.69-21.2-3.71,5.87-2.82,6.61,1.68,14,1.81,3,5.39,11.61,8.75,13.45,1.7,0.93,10.48.68,10.64-.08-0.77,3.55-6.49,6.23-7.5,10.92-1.41,6.54.46,11.67,7.49,11.89,14.35,0.43,22-17.42,17.62-28.93h0Z" transform="translate(4463.32 -2660.03)"/><path class="cls-4" d="M-4066,3150.23c-4-4.86-8.56-12.39-15.6-12.62,12.37,1.45,24.13,23.55,28.15,33.56,6,15-.81,32.07-16.77,37.81,11.38,0.27,26.07-3.84,26.83-17.51,0.82-14.67-14.08-30.79-22.6-41.23h0Z" transform="translate(4463.32 -2660.03)"/><path class="cls-4" d="M-4084.18,3185.94c-1.18-5.09,5.74-5.32,9.06-6.47,0-1.08-8.34,10.6-8,10.4a9.23,9.23,0,0,1-1.05-3.93C-4085.3,3181.09-4083.41,3189.31-4084.18,3185.94Z" transform="translate(4463.32 -2660.03)"/><g class="cls-11"><path class="cls-12" d="M-4088.24,3137.29c-10.84-5.43-20.33-14.83-29.51-22.56-6.22-5.23-19.83-19.8-28.66-19.93-6.08-.09-10.27,7.76-13.53,12.29-1.91,2.66-12,13.93-11.38,17.31,1.34,7.49,7.22-.14,9.56-1.15,4.42-1.9,9.83-3.49,13.79-6.24,8.8-6.12,7.73-19.38,14.88-4.57,4.45,9.22,5.14,10.63,15.27,13.46s24,6.55,25.45,19.48c0.45-.48,6.68-6.82,4.13-8.1h0Z" transform="translate(4463.32 -2660.03)"/></g><path class="cls-3" d="M-4322.69,3006.87c-22.95,12.93-46.39,26-66.72,42.89-9.75,8.12-16.59,17.35-14.39,30.72,2.17,13.17,11.66,23.22,16.65,35.17,2.77,6.62,2.5,10,10.58,11.48,6.61,1.19,12.08-1.76,18.35-2.27,5.77-.47,11.23,2.28,17,1.37,7.74-1.22,8.91-5.81,14-10.34,3.14-2.8,11-4.16,13.16-8.55,3.39-7-9.11-23.3-15.73-24.91,11.86,0,24-1.48,35.75-3.2,6.89-1,13.46-3.25,20.22-4.47,7-1.26,7.12.85,12.68,6.32,10.74,10.55,22.71,19.82,33.71,30.07,14.93,13.92,25.05,19.65,46.08,16.68a74,74,0,0,0,29.66-11.5c17.14-11.41,12.37-29.13-3.28-38.22-6-3.5-11.75-6.58-16.79-11.2-0.71-.65-0.11-2.35-1-3.11s-3.65-1.65-4-2a19.74,19.74,0,0,1-4-6.75c-5.92-15.76-10.1-39.63-23.6-50.68-10.68-8.75-16.15-5.14-26.69,1.09-9.41,5.56-17.84,8.43-28.87,8.3C-4276.68,3013.52-4309.58,3020.17-4322.69,3006.87Z" transform="translate(4463.32 -2660.03)"/><path class="cls-9" d="M-4269.73,3073c-4.51,0-13.68-12.11-16.4-15.48a72,72,0,0,1-10.39-17.16c-0.29-.69-5.37-16.33-3.92-16.36-0.44,0,4.74,16.93,5,17.5a72.53,72.53,0,0,0,11,17.25C-4282.45,3061.08-4272.36,3073-4269.73,3073Z" transform="translate(4463.32 -2660.03)"/><path class="cls-9" d="M-4381.34,3065.44c-3.74,0,5.57-12.78,6.17-13.35,6.44-6,15.61-9.49,23.19-13.73,2.11-1.18,34.57-22.88,34-23.56,1.17,1.3-29.57,21.68-31.81,23-8,4.62-18,8.24-24.9,14.64C-4375.81,3053.42-4383.45,3065.44-4381.34,3065.44Z" transform="translate(4463.32 -2660.03)"/><path class="cls-9" d="M-4317.86,3044.57c-12.17,0,7.67-26.24,8.06-26C-4309.68,3018.61-4328.69,3044.57-4317.86,3044.57Z" transform="translate(4463.32 -2660.03)"/><path class="cls-9" d="M-4243.33,3061c-9.29,0-14.17-42.27-14.34-42.26C-4258.9,3019-4249.9,3061-4243.33,3061Z" transform="translate(4463.32 -2660.03)"/><path class="cls-9" d="M-4268.86,3073.2c-5.94,0-14-30.39-13.33-30.53S-4274.26,3073.2-4268.86,3073.2Z" transform="translate(4463.32 -2660.03)"/><path class="cls-9" d="M-4207.45,3050.6c2.7,0-30.71-39.21-31.46-37.45C-4237.42,3009.88-4204.38,3050.6-4207.45,3050.6Z" transform="translate(4463.32 -2660.03)"/><path class="cls-13" d="M-4194.16,3118.66c1.21,0.52,19.32,12.08,30.36,3.28Z" transform="translate(4463.32 -2660.03)"/><path class="cls-9" d="M-4174,3125.5c-2.48,0-21.45-4.5-20.39-6.94-0.39,1,16.63,6.22,18.59,6.3,0.3,0,13.21-1.83,12.21-3.08C-4162.2,3123.52-4173.7,3125.5-4174,3125.5Z" transform="translate(4463.32 -2660.03)"/><path class="cls-13" d="M-4156.38,3098.13s8.11,16.91-3.11,22.08Z" transform="translate(4463.32 -2660.03)"/><path class="cls-9" d="M-4159.49,3120.47c10.84,0,2-22.08,3-22.58C-4156.48,3097.89-4147.79,3120.47-4159.49,3120.47Z" transform="translate(4463.32 -2660.03)"/><path class="cls-9" d="M-4344.25,3083.93c-1,0-23.83-4.46-21.91-6.1-0.08.07,7.54,3.72,7.89,3.84,3.33,1.07,30,2.34,29.79.73C-4328.33,3083.28-4342.81,3083.93-4344.25,3083.93Z" transform="translate(4463.32 -2660.03)"/><path class="cls-9" d="M-4346.06,3098.56c-0.78,0,18.42-16.9,19.64-14.08C-4327.17,3082.81-4345.85,3098.56-4346.06,3098.56Z" transform="translate(4463.32 -2660.03)"/><path class="cls-9" d="M-4326.14,3114.26c3.75,0,.46-19.8.67-19.9C-4324.54,3093.94-4321.65,3114.26-4326.14,3114.26Z" transform="translate(4463.32 -2660.03)"/><path class="cls-9" d="M-4352.53,3124.87c-6.29,0-15.63-8-18.53-13.36-0.21-.4-3.41-7.79-1.89-7.86-0.36,0,2.86,8.4,3,8.61C-4367.1,3116.82-4357,3124.87-4352.53,3124.87Z" transform="translate(4463.32 -2660.03)"/><path class="cls-15" d="M-4147.84,3082.18c-7.07-4.84-16.55-7.7-22.52-14-1.08-1.14-.43-3.16-1.57-4.17-0.75-.66-5.93-2.46-5.58-2.06-1.69-1.91-2.7-7.43-3.58-9.67-5.6-14.25-13.53-56.11-35.93-54.33-9,.72-19,12.32-28.39,14.79-11.22,3-24.06.6-35.59,1-11.09.35-24.4,2.17-34.82-2.65-4.54-2.1-4.48-3.26-8.8-2.43-1.88.36-8.18,6.36-8.06,6.39,8.62,2.11,7.55,3.63.33,9.94-6,5.28-13.46,9.29-20.32,13.38-8.81,5.25-23.55,9.91-27.93,20.05-1.29,3,.82,11.17.24,12.19,1.94-3.4.74-8.24,3.39-12.12,3.07-4.49,7.6-7.11,12.27-9.61,12-6.43,23.75-13.46,35.75-19.93,2.18-1.18,8.75-5.64,11.43-3.32s-2.52,8.12-2.93,10c-0.65,3.05,1.74,15.77,8.06,13.07-5.17,2.21-7.92-14.56,1.49-16.83,10.77-2.59,11,17.18,7.68,23.59-5.94,11.37-25,13.85-36,16.88-3.87,1.07-25.29,9.56-28.74,3.83,4.28,9.64,9.17,11.1,17.79,14-4.74-1.57-11,16-2.89,14.73,5.76-.9,6.76-11,14.74-9.73,5.36,0.82,6.67,5.1,6.91,10,1.17,24.12-44.28,18.83-41.19-4.09-2,9.35,1.9,13.46,7.26,19.8-2.05-2.43-15.19,4.26-16.91,4.59,6.93,5.38,17.37.26,24.79-.34,9-.73,16.75,4.12,25.12-1.87,4-2.87,6.08-7.27,9.76-10.05,4.05-3.08,8.48-3.78,8.72-9.65,0.26-6.47-9-19.35-15.14-20.85a224.48,224.48,0,0,0,55-7.31c6.26-1.6,5-2.43,10.39,2.64,2.54,2.41,5,4.83,7.65,7.2,8.69,7.89,17.63,15.51,26.36,23.34,8.37,7.52,15.62,16.78,27,19.87,10.23,2.79,25.19.82,35.06-3.19,15.36-6.24,43-27.19,19.75-43.08h0Zm-5.17,22c-6.75-17.56-19.31-28.5-36.49-34.93,10.14,5.41,25.46,16.81,25.2,30-0.1,5-4.92,10.81-8.88,13.12-7.45,4.36-21.54-1-28.57-5.92-10.23-7.18-16.84-20-24.34-29.7-7.87-10.17-29.46-32.58-18.32-47.37,14.21-18.85,35.27,18.33,41.2,28.45-0.5-10.65-6.78-18.88-11.87-27.76-3.75-6.54-8.33-16.86,1.34-20.31,15.58-5.56,21.47,24.58,23.62,34.25,1.17,5.27.84,13.69,3.22,18.48,3,6.11,11.24,8.83,17.08,11.7,10.15,5,23.29,9.32,24.19,22.58,0.26,3.81-3.22,15.68-7.37,7.39C-4163.37,3077.26-4147.32,3115.56-4153,3104.17Z" transform="translate(4463.32 -2660.03)"/><g class="cls-16"><path class="cls-6" d="M-4153.28,3111.42c0.2-7.65-5.08-12.71-6.42-19.26,1.13,5.49,5,12.09,2.73,18-2,5.17-11.71,10.07-16.65,12.69-9.94,5.26-22.25-4-30.63-9.57,4.63,7.24,11.69,8.63,19.15,11.13-22.89,6.31-48.35-22.81-63.23-35.9-9-7.94-21.1-15.52-27.23-26.14-2.6-4.5-4.52-22.92-8.9-25-0.43-.2,3.21,22.14,2,22.76-5.57,2.77-16.81-26.38-17.49-30.47-1.3,8,5.06,17.52,6.29,25.42,1.79,11.53-2.49,16.39-12.91,21-13.82,6.06-42.23,12-56.78,4.34,8.91,9.44,21.8,2.32,32.14,4.82-4.27-1-8.69,6.9-10.66,9.15,6.2-3.26,11.1-5.38,15.54.63,3.91,5.29,2.6,13.36.5,19,9-3,13.8-5.76,10.55-15-1.92-5.46-8.4-15.09-14.43-16.56,17,0,36.58-1.39,52.75-6.6,5.54-1.79,5.83-3.41,10.69-.29,2.53,1.63,5.4,5.58,7.78,7.8,8.21,7.67,16.61,15.12,25.08,22.49,7.66,6.66,14.59,15.37,23.82,19.92,11,5.42,25.71,4,37.21.55,14.94-4.43,42-19.72,29.35-38.95,1.85,6.64,0,14.64-3.67,20.35-0.51.79-6.67,9.19-6.53,3.71C-4153,3101.33-4153.48,3119.25-4153.28,3111.42Z" transform="translate(4463.32 -2660.03)"/></g><path class="cls-17" d="M-4325.88,3014.37c2.71,1.28,2,4,1.27,6.08,1.75-5,12.4-1.69,9.85,5.57,3-3.78,14.4-1.11,18.42-1.1,6,0,11.56-1.23,17.53-2,4.74-.6,14-2.33,18.48.61,5.37,3.51,4.67,12.2,7.2,18-2.25-9.52.14-25.89,13.33-24.87,9.17,0.71,12.83,11.34,20.27,14.31-7.13-10.46-3.26-31.11,13-28.25-12.62-8.58-18.81.34-30.32,6.11s-22.37,4.52-34.83,4.45c-11.74-.06-23.7,1.65-35.39,0-4.88-.7-8.93-3.59-13.42-4.51-2.38-.49-1.12-1.74-3.63-1-2.92.81-6.17,4.6-1.74,6.69h0Z" transform="translate(4463.32 -2660.03)"/><path class="cls-3" d="M-4267.83,3015.67c10.41-1.33,66.7-15.69,49.68-36.23-8.78,7.32-19.29,9.48-29.17,14.24-8.89,4.28-15.16,4.78-25.5,4.56-17.54-.38-40.27,6.92-55.73-3.11,1.63,11.47,4.1,14.2,14.79,17.28,14.72,4.24,30.79,4.17,45.93,3.25C-4242.94,3012.5-4305.3,3017.95-4267.83,3015.67Z" transform="translate(4463.32 -2660.03)"/><path class="cls-3" d="M-4267.83,3015.67c-18,1.09-42.1,2.24-58-8.38,5.48,16.36,37.06,13.92,50.49,13.48,19.69-.66,57.4-5.71,59.33-30.45-9.57,16.66-34.42,23.13-51.84,25.35C-4305.3,3017.95-4242.94,3012.5-4267.83,3015.67Z" transform="translate(4463.32 -2660.03)"/><path class="cls-18" d="M-4218.14,2979.44c-8.78,7.32-19.29,9.48-29.17,14.24-8.89,4.28-15.16,4.78-25.5,4.56-17.54-.38-40.27,6.92-55.73-3.11,1.38,9.93,2.68,13.19,11.7,16.33,10.2,3.56,21.4,4.38,32.11,4.59,16.48,0.32,32.76-1.91,47.82-9,8.62-4,28.86-15.48,18.78-27.64C-4223.32,2983.75-4215.89,2982.16-4218.14,2979.44Zm-19.84,23.81c-16,16-72.53,17.4-86.95-1.72,14.33,6.9,33,4.26,48.35,5.19,11.59,0.7,21.26-1.79,31.68-6.76,7.27-3.47,16.52-6.31,6.92,3.29h0Z" transform="translate(4463.32 -2660.03)"/><path class="cls-19" d="M-4267.83,3015.67c-18,1.09-42.1,2.24-58-8.38,5.48,16.36,37.06,13.92,50.49,13.48,19.69-.66,57.4-5.71,59.33-30.45-9.57,16.66-34.42,23.13-51.84,25.35C-4305.3,3017.95-4242.94,3012.5-4267.83,3015.67Zm37.78-7.76c-15.05,11.28-42.46,12.19-60.2,11.46-9.78-.4-23.23-1.24-30.55-8.88,18.15,7.34,39,8.85,58.14,5.18,12.93-2.48,29.71-6.32,39.33-16.22-1.15,3.53-3.79,6.25-6.73,8.46h0Z" transform="translate(4463.32 -2660.03)"/><path class="cls-20" d="M-4445.17,2938.81c-2.51,2.62-2.65,4.92-3,8.22-0.21,1.94,1.08,4.72,1.11,5.34,0,1.08-1.45,2.23-1.24,3.58,0.72,4.47,4.91,14.21,10,14.95,10.71,1.53,6.27-15.84,4.48-20.82C-4436.13,2943.59-4439.17,2942.49-4445.17,2938.81Z" transform="translate(4463.32 -2660.03)"/><path class="cls-21" d="M-4438.42,2957.84c-1.78,0-8.86-5.68-7.66-6.31-2.49,1.3,11.75,7.81,10.44,5.29Q-4436,2958.43-4438.42,2957.84Z" transform="translate(4463.32 -2660.03)"/><path class="cls-21" d="M-4438.89,2966.6c1.67,0-4.92-.25-4.44-1.25-0.65,1.39,12.93-.13,10.62-2C-4431.31,2964.47-4439.1,2966.6-4438.89,2966.6Z" transform="translate(4463.32 -2660.03)"/><path class="cls-22" d="M-4435.86,2944.51c-5-3-13.61-10-12.51,2.16,2.3-1.15,9.74,1.73,8.55,5-1.25,3.46-5.68-2.27-6.73.7-1.48,4.16,7.19,5.67,7.8,8.27,0.84,3.58-4.8,4-4.76,4.17,0.64,2,6.26,1.31,7.63,1.55-1.79-.32-5.29,3.07-2.07,4.06s5.94-3,6.65-5c1.13-3.16-1.67-19.16-4.56-20.9h0Z" transform="translate(4463.32 -2660.03)"/><path class="cls-23" d="M-4451.28,2705.3c-2.87-6.7-4.66-13.93-6.3-21-9,25.56-5,58.11-3.94,84.51,0.89,21.59,2.57,43.15,5.26,64.59,1.4,11.16,3.06,22.28,5.08,33.34,1.67,9.18,1.31,30,12.94,29.2-9.2-62.5-20.23-127.4-13-190.63C-4453.92,2699.15-4453.87,2728-4451.28,2705.3Z" transform="translate(4463.32 -2660.03)"/><path class="cls-24" d="M-4439.55,2660.36c0.43-1.4-7,3.88-7.21,4.08-3.62,3.38-6,8.56-8,13-4.24,9.2-.42,18.78,3.49,27.89,1.71-15,4.21-31.54,11.73-44.94C-4439.53,2660.28-4442.74,2666-4439.55,2660.36Z" transform="translate(4463.32 -2660.03)"/><path class="cls-24" d="M-4449.83,2806.58c-3-29.18-4.62-58.71-2.63-88a218.19,218.19,0,0,1,5.26-37c1.82-7.45,5.82-14.25,7.72-21.46-15.79,0-21.41,34-22.14,45.76-1,15.73-.77,31.61-0.41,47.36,0.55,23.63,2,47.26,4.65,70.75,1.42,12.71,3.17,25.38,5.34,38q1.85,10.74,4.16,21.39c1.57,7.25.78,13.19,9.62,12.58-4.38-29.71-8.06-59.52-11.58-89.35C-4454.49,2760.6-4444.93,2848.13-4449.83,2806.58Z" transform="translate(4463.32 -2660.03)"/><path class="cls-25" d="M-4442.76,2895.08c-11.78-48-16.14-98-17-147.35-0.24-14.2-.38-28.52.56-42.69a78.17,78.17,0,0,1,4.87-23c2.1-5.48,4.69-11.24,8.49-15.76,1.34-1.6,5.84-4.34,6.31-6.13-15.79,0-21.41,34-22.14,45.76-1,15.73-.77,31.61-0.41,47.36,0.55,23.63,2,47.26,4.65,70.75,1.42,12.71,3.17,25.38,5.34,38q1.85,10.74,4.16,21.39c1.42,6.56.64,13,8.7,12.63l-3.59-.9C-4462.94,2812.79-4442,2895.63-4442.76,2895.08Z" transform="translate(4463.32 -2660.03)"/><path class="cls-26" d="M-4439.55,2660.36c-16.18,28.81-14.54,69.67-13.41,101.61,0.93,26.5,4,52.76,7.32,79q1.75,13.92,3.6,27.83c0.73,5.46.17,21.54,3.61,25.8,1.21,1.5,10.35,1.36,11.63-1.12,0.52-1-.9-5.12-1.09-6.17q-2.45-14.17-4.57-28.4c-4.75-31.43-8.66-63-11-94.72-2.47-33.61-5.68-71,3.9-103.88C-4442.74,2666-4458,2723.69-4439.55,2660.36Z" transform="translate(4463.32 -2660.03)"/><g class="cls-27"><path class="cls-28" d="M-4449.83,2806.58c-1.13-11.16-5.75-18.06-11.22-27.79,0.78,14.63,5.91,23.93,12.31,37q-0.55-4.6-1.09-9.19C-4450.16,2803.37-4449.46,2809.72-4449.83,2806.58Z" transform="translate(4463.32 -2660.03)"/><path class="cls-28" d="M-4453.27,2741.5q-4.46-4.87-9-9.7c0,10.12,2.81,13.95,9.05,21.87q-0.12-6.08-.08-12.17C-4456.33,2738.16-4453.3,2745.39-4453.27,2741.5Z" transform="translate(4463.32 -2660.03)"/><path class="cls-28" d="M-4444,2854l-11.89-17.62c2.11,16.27,6,24.07,14.54,37.63Q-4442.71,2864-4444,2854Z" transform="translate(4463.32 -2660.03)"/></g><path class="cls-29" d="M-4461.48,2770.61l10.35,19.15c0.16-7.49-7.14-16-10.61-22.25Z" transform="translate(4463.32 -2660.03)"/><path class="cls-29" d="M-4462.25,2720.67c3.18,3.27,8.37,6.82,9.32,11.13C-4456.05,2728.77-4462.22,2725.17-4462.25,2720.67Z" transform="translate(4463.32 -2660.03)"/><path class="cls-30" d="M-4439.55,2660.36c0.18-.6-6.2,3.11-7.21,4.08-4.09,3.9-6.85,10.08-9,15.19a75.14,75.14,0,0,0-5.7,23.9c-1,13.49-.87,27.15-0.7,40.66,0.6,48.17,4.63,96.83,15.36,143.87,1.44,6.33,1.74,7.88,8.58,7.87,1.12,0,10.76-.64,11.54-1.88,0.46-.73-0.84-3.23-0.72-4.07,1.05-7.52-3.16-18.86-4.31-26.34-4.91-31.86-9-63.88-11.45-96-2.68-34.64-6.23-73.39,3.65-107.26h0Z" transform="translate(4463.32 -2660.03)"/><path class="cls-3" d="M-4425.84,2969.52c-12,.42-11.32-17.89-12.56-25.93s-7.09-26.41,7.51-25.64c11.27,0.59,10.47,17.61,11.73,25.75C-4417.93,2951.67-4412.12,2969.06-4425.84,2969.52Z" transform="translate(4463.32 -2660.03)"/><path class="cls-18" d="M-4416.73,2959.43c-1.46-9.43-2.66-18.93-4.39-28.31-0.79-4.28-.61-8.76-4.62-11.63-7.2-5.17-14.72,1-15.09,8.5-0.43,8.84,2.78,19.47,4.37,28.18,0.75,4.1.6,8.46,4.23,11.35C-4426.21,2972.3-4415.43,2967.77-4416.73,2959.43Zm-12.9,7.78c-4.38-.16-6.62-7.32-6.54-10.8,0.15-6.25-.92-4.05,3.64-4.74,13.08-2,12.13,15.87,2.9,15.55h0Z" transform="translate(4463.32 -2660.03)"/><path class="cls-31" d="M-4395.32,2971.16c-13.19-1.18-9.34-5.66-8.47-18,0.85-12.12,0-23.19-.68-35.13,8,2.81,16.87,2.39,24.62,5.54,9,3.64,8.26,5.53,16.66-.15,9.57-6.46,29.1-16.14,41.09-12.06,14.69,5-10.16,28-16.19,33.27C-4353.54,2957.94-4374.25,2971.68-4395.32,2971.16Z" transform="translate(4463.32 -2660.03)"/><path class="cls-32" d="M-4414.62,2911.62c-1.49-2.6-2.12-13.28-3.89-13.9-3.88-1.37-6.32,3.33-6.49,6.67,0.45-10.92-28.39-1.4-29.56,8.61-0.18,1.51,1.3,2.65,1.27,3.8-0.05,2.17-.79,5.51-0.59,8,0.33,4.07,3.06,10.69,5,14.1,4,7,12.55,11.64,20.64,11.56-0.09-12.93,1.89-30.67,13.57-38.86C-4415.47,2910.13-4418.64,2914.44-4414.62,2911.62Z" transform="translate(4463.32 -2660.03)"/><path class="cls-33" d="M-4406,2927.86c-9.32-1.76-5-9.92-8.6-16.24-11.68,8.19-13.66,25.92-13.57,38.86,4.22,0,7.48-1.46,11.45-2.18,4.53-.82,5.21-1,10.42.48,3.66,1.06,10.34,4.29,13,2.52,1.64-1.09,6.91-14,6.59-16-0.85-5.32-14.42-6.51-19.29-7.44h0Z" transform="translate(4463.32 -2660.03)"/><path class="cls-34" d="M-4444.48,2904.57c-8,7.74,10.64,12.41,15.84,11s6.84-3.75,7.43-8.87c0.13-1.16-4.43-6.62-.86-7.21-2,.33-2,5-3.59,6-2.74,1.83-.75.45-4.37,0.84C-4434.35,2906.83-4440.8,2899.8-4444.48,2904.57Z" transform="translate(4463.32 -2660.03)"/><path class="cls-3" d="M-4424.1,2912c-0.55-3.21-.78-14.67-3-16.16s-14.16,2.4-17.11,2.9c0.44,2.58.46,11.5,2.28,13.44C-4438.54,2915.73-4428,2915.3-4424.1,2912Z" transform="translate(4463.32 -2660.03)"/><path class="cls-21" d="M-4443.45,2923.46c-0.28,0-11.07-5.15-9.45-6.17C-4453.34,2917.57-4443.33,2923.46-4443.45,2923.46Z" transform="translate(4463.32 -2660.03)"/><path class="cls-21" d="M-4442.93,2933.29c0.16,0-10.12-2.56-8.9-3.09A72.26,72.26,0,0,1-4442.93,2933.29Z" transform="translate(4463.32 -2660.03)"/><path class="cls-21" d="M-4432.52,2914.6c-4.88,0-7.92-1.58-12.1-3.41-0.35-.15-1.93-2.87-1-2.84,0.65,0,.4,2.48,1.46,2.55,3.2,0.23,6.75,3,10.65,3.09,2.26,0,12.21-5.07,11.48-5.27C-4420,2909.27-4431.2,2914.6-4432.52,2914.6Z" transform="translate(4463.32 -2660.03)"/><path class="cls-35" d="M-4459,2898c6,0,41.39-11,44.12-7C-4414.31,2891.81-4454.29,2898.29-4459,2898Z" transform="translate(4463.32 -2660.03)"/><g class="cls-36"><path class="cls-6" d="M-4392.64,2931c-0.37,9.91-10,13.39-17.55,9-2.21-1.29-2.95-3.79-5.4-4.94-3-1.4-9.51,1.79-10.88-2.46a79.82,79.82,0,0,0-1.71,17.9c6.69,0,11.76-3.39,17.6-2.94,3,0.23,13.49,6.14,16.31,4.68,1.87-1,3-5.69,4-8.07,2.79-6.72,6.5-10.35-2.33-13.14C-4393,2939.59-4389.55,2932-4392.64,2931Z" transform="translate(4463.32 -2660.03)"/></g><g class="cls-37"><path class="cls-6" d="M-4413.26,2942.7c-3.77,5.35-10.65,1.82-14.56-1.3q-0.41,4.53-.37,9.08c4.13,0,7.54-1.41,11.45-2.18,4.91-1,6.15-.75,11.93.91,11.08,3.19,10.44,4.71,15.13-6.63-7.28.36-16.87,9-23.59,0.11C-4417.45,2948.65-4410,2947-4413.26,2942.7Z" transform="translate(4463.32 -2660.03)"/></g><path class="cls-3" d="M-4352.53,2936.14c4.37-2.9,6.86-3.67,8.81-7.75,0.95-2-.2-4.08,1.08-6,3-4.59,14.13-7.47,18.81-9.26,18.18-7,43.74-15.61,63.15-8.19,10.27,3.93,10,11.79,14.09,21.18,5.57,12.81,19.39,20.31,26,33.16,8.94,17.33,3.35,28-13.43,33.48-6.67,2.19-9.29,5.3-15.44,8.53-8.59,4.52-19.59,4.68-28.92,3.2-3.64-.58-7.31-2.1-10.81-2.13-5.46-.05-10.84,1.75-16.5,1.32-7.72-.58-23.71-3.35-28.55-10.24-3.3-4.7-3.52-14.9-4.14-20.53-3.52,4.52-22.89,3.42-27.88,3.57-7.27.22-29.43,1.71-32.82-5.8-3.67-8.12,3.67-27.38,7.26-34.38,1.47-2.85,3.4-7.19,6-9,4.41-3.1,5.41-1.93,10.69,1.1,2.89,1.66,5.35,4.75,8.1,6.24,2.28,1.23,5.43-3.18,6.55,1.9C-4358.8,2933.57-4354.27,2929.77-4352.53,2936.14Z" transform="translate(4463.32 -2660.03)"/><path class="cls-9" d="M-4343.73,2931.39s5.17-3,6.38-3.6c8.07-3.85,16.12-8,24.4-11.34,7.44-3,15.4-5.82,23.54-5.94,0.32,0,19.75,3.34,16.75,6,1.45-1.28-13.69-5.5-15-5.54-7.92-.2-15.92,2.3-23.21,5.17-7.86,3.1-15.48,7-23.12,10.63C-4336.44,2927.92-4341,2931.39-4343.73,2931.39Z" transform="translate(4463.32 -2660.03)"/><path class="cls-9" d="M-4303,2958.82c0.4,0,20.57-5.09,20.6-5,0.4,1.25-19,5-20.6,5h0Z" transform="translate(4463.32 -2660.03)"/><path class="cls-38" d="M-4334.25,2993.42c2.43-6.36,4.78-13.16,8.2-19.06,4.56-7.87,11.83-8.34,19.4-13.37-2.28,1.53-4.78,12.74-5.69,15.29-2.71,7.59-6.41,16.52-5.69,24.73C-4322.1,3000.5-4332.24,2997.43-4334.25,2993.42Z" transform="translate(4463.32 -2660.03)"/><path class="cls-38" d="M-4334.25,2993.42c2.43-6.36,4.78-13.16,8.2-19.06,4.56-7.87,11.83-8.34,19.4-13.37-2.28,1.53-4.78,12.74-5.69,15.29-2.71,7.59-6.41,16.52-5.69,24.73C-4322.1,3000.5-4332.24,2997.43-4334.25,2993.42Z" transform="translate(4463.32 -2660.03)"/><path class="cls-9" d="M-4240.22,2956.15c-0.05,0-4.81-25.46-4.9-25.44C-4244.15,2930.44-4239.37,2956.15-4240.22,2956.15Z" transform="translate(4463.32 -2660.03)"/><path class="cls-7" d="M-4372.2,2930.53c2.05,1.09,4,3.24,5.63,4.11,2.56,1.36,4.27-2,5.89,2,3.3-7.74,5-.25,7.82-0.8a33.44,33.44,0,0,0,5.72-2.47c10.59-5,20.88-10.46,31.71-15,13.74-5.75,36.48-15.89,45.71,2.2-10.67-16.25-35.21-3.43-48.41,2-8.93,3.66-18.56,8-25.88,14.46-6.11,5.39-3.28,7.65-6.43,14,0.2-.4-2-10.42-3.23-11.35-3.3-2.46-2.93-1.55-6.07,1.17-3.53,3-4.59,14.73-8.84,16.25,0.13,0,4.64-17.7,2-19.16-3-1.72-14.26,5.53-10.83,8.47-4.44-3.8,5.75-9.32,4.41-13.49-1-3.18-9.37-6.86-12.17-6.24,0-4.95,12,3.14,12.94,3.88C-4367.8,2932.86-4374.79,2928.46-4372.2,2930.53Z" transform="translate(4463.32 -2660.03)"/><g class="cls-39"><path class="cls-6" d="M-4218.49,2963.74c-5.35-14.76-20.44-22.08-27.22-35-4.13-7.88-3.61-17.82-11.83-22.56-18.33-10.57-48.74.21-66.29,6.93-2.6,1-30.91,13.7-16.46,16.65,4.61,0.94,18.44-8.34,22.64-10.2,8.65-3.84,18.43-8.26,28-8.9,13.87-.92,22,11.4,28.78,22,4.71,7.36,9.6,24.46,17,29.15,9.6,6.07,1.15-13.25,5.85-14.81,7.53-2.5,15.52,41.84,1.3,40.05-0.81-.1,2.65-16.17-0.2-17.13-2,30.52-49.73,32.92-65,11.47-0.19,4.63,2.61,17.45,7.76,19.32-12.88-5.15-15.64-17.23-9.87-29.43A24.11,24.11,0,0,1-4292,2959c0.93-.45,16.91-5.76,15.47-7.68-3.9-5.19-18.07,7.38-10.87-4.91,1.6-2.73,14.94-15.75,10.78-19.64-0.37-.35-10.31,11.22-11.69,12.25-6.08,4.48-13.54,6.39-20.65,8.56-15.29,4.65-28.34,13.66-43.38,18.65-23,7.64-47-4-39.71-29.53-3.79,7.64-9.45,23.12-7,32.08,1.79,6.64,10.92,6.77,17.87,7.38a144.61,144.61,0,0,0,27.43-.54c3-.31,13.32-0.08,15.38-2.72,0.59,5.27.73,14,3.53,18.68,4.31,7.15,17.35,10.55,25.57,11.7,9.82,1.38,18.16-1.47,27.57.58s20,2.27,29-1.19c6.07-2.35,10-6.56,15.63-8.93,15.05-6.36,25.77-10.21,18.6-30h0Z" transform="translate(4463.32 -2660.03)"/></g><path class="cls-9" d="M-4288.18,3002.3c-0.62,0-10.27-6.81-8.83-7.56C-4297.23,2994.85-4288.41,3002.3-4288.18,3002.3Z" transform="translate(4463.32 -2660.03)"/><path class="cls-9" d="M-4241.78,2995.05c2.28,0,2.5-11.4,3.07-11.47S-4238.94,2995.05-4241.78,2995.05Z" transform="translate(4463.32 -2660.03)"/><path class="cls-9" d="M-4368.58,2956.41s6.7-21.15,8.25-20.14C-4361.18,2935.71-4367.54,2956.41-4368.58,2956.41Z" transform="translate(4463.32 -2660.03)"/><path class="cls-9" d="M-4376.17,2942.61c0.19,0,6.94-10.64,9.34-8.21C-4368.18,2933-4375.26,2942.61-4376.17,2942.61Z" transform="translate(4463.32 -2660.03)"/><path class="cls-40" d="M-4362.63,2934.16c-1.09,8-5.47,15.33-6.47,23.29C-4369.1,2952-4358,2937.67-4362.63,2934.16Z" transform="translate(4463.32 -2660.03)"/><path class="cls-40" d="M-4371.16,2931.44c0.22,2-4.84,11.78-6.91,12.66,1.57-.66,6-5.59,7-7.09C-4367,2931.35-4369.27,2936.5-4371.16,2931.44Z" transform="translate(4463.32 -2660.03)"/><path class="cls-40" d="M-4352.53,2936.14c1.09,3.95,2.24,8.3,2.24,12.42a61.92,61.92,0,0,1,3.62-15.61A20.06,20.06,0,0,0-4352.53,2936.14Z" transform="translate(4463.32 -2660.03)"/><path class="cls-9" d="M-4350.79,2950.26c1.32,0-2-14.32-1.83-14.37C-4352,2935.67-4348.36,2950.26-4350.79,2950.26Z" transform="translate(4463.32 -2660.03)"/><path class="cls-9" d="M-4338.39,2973.15c12.69,0,31.22-11.16,41.47-19.39,0.73-.59,16.5-16,16.12-16.28,1.18,0.78-13.7,15-14.64,15.75C-4306.38,2962.27-4323.68,2973.15-4338.39,2973.15Z" transform="translate(4463.32 -2660.03)"/><path class="cls-3" d="M-4359.43,2896.8c-9.44,9.48-5,12.83,3.35,20.09,7.47,6.53,6.76,9.64,17.72,7.31,24.39-5.2,46.21-25.4,72.69-18.45,8.19,2.15,15.68,6.17,24.2,7.65,5,0.87,10.41,1.49,15.38,0,4-1.24,6-5.19,9.26-6.34,9.92-3.54,4.17,3.39,7.76,9.21,5.52,9,14.15-.43,20.78,1.63-0.18-6-1.09-16.47,3.28-21.22-7.61-.81-12.3,6.95-19,1.42s-6-14.39-17.28-7.45c-10.15,6.22-12.72,10.71-25,8.14a90.05,90.05,0,0,0-30.34-1.44C-4301.44,2900.56-4338.27,2919.28-4359.43,2896.8Z" transform="translate(4463.32 -2660.03)"/><path class="cls-9" d="M-4344.58,2918.94c-0.88,0-9.94-.29-9.76-1.14-0.3,1.33,34.47-.89,32.83-4.2C-4320.32,2916.11-4343,2918.94-4344.58,2918.94Z" transform="translate(4463.32 -2660.03)"/><g class="cls-41"><path class="cls-6" d="M-4194.42,2904.65c-4.64,10.16-9.69,9.13-13.59-.22-2.51-6-2.64-18.89-9.94-10.14-5.36,6.44-2.88,13.23-13,16.06-6.89,1.93-12.89-.26-19.24-2.59-16.74-6.15-34.67-5.86-51.69-.37-8.8,2.84-16.57,7.33-24.81,11.35-1.25.61-21.11,7.21-20.4,2.29,0.11-.78,14.28-1.37,15.65-1.76,3.54-1,7.58-5.47,10.26-6-0.63.13-29.12,7.88-26.94,1,0.47-1.5,22.8-3.91,25.5-4.7,2-.58,15.58-7,16.15-6.79-2.73-1.26-8.6,1.51-11.56,1.74-6.68.52-13.74-.46-20.3-1.66-4-.73-15.38-6.55-18.86-5.92-4,.73-8.94,6.89-8.23,11.12,0.92,5.47,9.24,7.47,12.54,10.87,4.5,4.64,2.08,5.49,8.32,6.3,14.59,1.9,33.39-12.47,46.78-17,11.39-3.84,23.64-4.77,35.06-1.21s26.27,11,38.49,5.84c7.9-3.37,10.28-12.29,14.36-1.7,2.21,5.74.65,8.27,8.64,8.88,4.26,0.32,9-3.38,12.93-2.16-0.18-6-1.09-16.47,3.28-21.22-4.81-.71-7.61,4.1-9.4,8C-4201.15,2919.41-4192.91,2901.35-4194.42,2904.65Z" transform="translate(4463.32 -2660.03)"/></g><path class="cls-42" d="M-4238.67,2986.86c-1.42,11.87-16.48,14.9-26.15,15.4a45.23,45.23,0,0,1-14.35-1.17c-2.91-.82-15.23-8.35-18-6.67,0.71-.43,0,3.06-1.6,4-3.52,2.09-8.58,2-12.48,1.64-8.82-.76-24.18-5.63-19.72-17,3.4-8.67,17.52-16.71,24.79-21.41a47.89,47.89,0,0,1,21.59-6.91c-4.62.35-8.92-.69-13.09-0.69,2.64,0,7.64-7.1,9.28-8.78-14.11,12.26-33.1,18.67-50.61,24.16-19.45,6.1-40.6,9.19-60.09,1.39,0,7,55.22,9.1,60.71,2,0.59,5.31.92,12.67,3.21,17.42,3.31,6.85,12.72,10,20.09,11.8,9.89,2.47,18-.24,27.34.1,14,0.51,27.8,7.11,41-2.49,5-3.62,6.59-5,12.69-7s13.65-4.12,16.29-10.55c-2.4,1.72-21.37,5.37-21,4.68C-4240.74,3004.11-4239.35,2988-4238.67,2986.86Z" transform="translate(4463.32 -2660.03)"/><path class="cls-14" d="M-4289.36,2910.63a38.24,38.24,0,0,1,7.61.52,14.09,14.09,0,0,0-7.61-.52C-4286.84,2910.55-4288.14,2910.48-4289.36,2910.63Z" transform="translate(4463.32 -2660.03)"/><path class="cls-43" d="M-4245.06,2931c-5.31-20-10.69-29.07-33.71-28.33-16,.51-32.27,5.38-47,11.25-7.25,2.88-17.76,5-17.91,13.93,24.3-2.48,44.71-25.15,70.14-14.17,10.71,4.62,19.36,14.83,25.89,24.27,1,1.4,7.36,12.09,5.78,13,2.44-1.46-3.95-15.05,4.52-12.42-2.47-2.45-5.42-4.85-7.67-7.54C-4246.61,2925.1-4244.13,2932.07-4245.06,2931Z" transform="translate(4463.32 -2660.03)"/><path class="cls-44" d="M-4382.29,2831.68a35.3,35.3,0,0,1,5.32,14.09c0.46,3.2-2.78,14.65-2,16.19,0.54,1,2.61,1.19,3.37,1.86,7.47,6.59,27.92,7.4,37.2,8.88,13.53,2.16,27.52,4.05,41.26,3.69,8.88-.23,36.71-1.65,41.15-10.73,5.3-10.85-43.56-39.05-52.07-42.77C-4332.2,2812.32-4367.07,2802.4-4382.29,2831.68Z" transform="translate(4463.32 -2660.03)"/><g class="cls-45"><path class="cls-46" d="M-4308,2822.88c-13.45-5.34-27.58-11.15-42.32-10.85-7.52.16-14.84,2-21,6.43-3.16,2.29-7.59,6.14-9,9.88-2.21,5.69-.2,5,1.93,11.31,4-10.86,10.94,3.43,14.88,4.19,9.38,1.8-.52-6.8-1-11-0.72-6.92,9.25-12.13,14.58-7.41,2.83,2.51,1,11.33,3.5,12.84,2.76,1.67,6.37-6.77,9.32-7.76,9.61-3.25,4.16,5.09,4.13,9.89,0,7.48,4.83,11.07-5,11.14-1.62,0-24.45-6-23.22-.53a3.14,3.14,0,0,1,1.61.81c1.71,6-27.29,2.9-16,12,5.1,4.11,16.48,5,22.66,6.23,19.45,4,40.72,7.83,60.66,6.12,9.87-.85,23.67-2.69,32.32-8,6-3.67,5.15-4.4,1.24-9.33-11.43-14.38-32.38-29.23-49.35-36h0Z" transform="translate(4463.32 -2660.03)"/></g><path class="cls-14" d="M-4333.83,2851.9a65,65,0,0,0-8.36-1.42c2.61,0.65,5.64,1.72,8.36,1.42C-4336.77,2851.23-4335.54,2852.09-4333.83,2851.9Z" transform="translate(4463.32 -2660.03)"/><path class="cls-47" d="M-4308,2822.88c-13-5.16-26.62-10.79-40.82-10.87-7,0-13.88,1.21-19.94,4.77a34,34,0,0,0-9.53,8.59c-4.33,5.58-3.68,5.69-1.16,11.6,3-8.49,12-15,20.93-16.43,5.23-.83,27.46,5.59,29.82,3.39-2.29,2.14-12.18.44-12.64,4.92,0.57-5.58,30.34,11.13,31.6,11.28,1.63,0.19,3.5-1.36,5.72-1.11,2.69,0.31,6,3.18,8,4.68,2.79,2.09,11.75,8.77,9.21,13.15-6.15,10.59-39.54-3.41-47-4.94-15.91-3.29-25.31,2.07-36.15,13.91,32.32,10.06,73.94,16.69,106.41,3.91,13.66-5.38,5.88-10.39-2.37-17.77-12.33-11-26.54-22.9-42.07-29.07h0Z" transform="translate(4463.32 -2660.03)"/><path class="cls-47" d="M-4363.64,2847.73c1.55,9.09-7.46,10.63-9,1.54-1.49-8.76,7.33-11.41,9-1.54h0Z" transform="translate(4463.32 -2660.03)"/><path class="cls-9" d="M-4322.32,2844.68c2.27,7.61-4.84,9.73-7.11,2.12-2.18-7.3,4.63-10.43,7.11-2.12h0Z" transform="translate(4463.32 -2660.03)"/><path class="cls-28" d="M-4324.39,2845.3a2.5,2.5,0,0,1-.68,3.14c-2.07.62-3.68-4.77-1.61-5.39a2.49,2.49,0,0,1,2.29,2.25h0Z" transform="translate(4463.32 -2660.03)"/><path class="cls-9" d="M-4327.69,2853.76c-0.43,0,10.87-6.1,11-3.2C-4316.79,2848.76-4326.43,2853.76-4327.69,2853.76Z" transform="translate(4463.32 -2660.03)"/><path class="cls-9" d="M-4365.09,2847.33c1.49,6.81-3.13,10.05-5.21,2.12-1.68-6.4,3.28-10.94,5.21-2.12h0Z" transform="translate(4463.32 -2660.03)"/><path class="cls-28" d="M-4366.61,2847.95a3.08,3.08,0,0,1-.5,3.14c-1.49.6-2.74-4.76-1.18-5.39a2.17,2.17,0,0,1,1.68,2.25h0Z" transform="translate(4463.32 -2660.03)"/><path class="cls-9" d="M-4369,2856.42c-0.54,0,8-6.36,8.1-3.2C-4361,2852.31-4368.41,2856.42-4369,2856.42Z" transform="translate(4463.32 -2660.03)"/><path class="cls-48" d="M-4344.25,2835.73c2.83-15.42,31.4-3.61,30.58.62C-4311.75,2826.53-4348.39,2815.29-4344.25,2835.73Z" transform="translate(4463.32 -2660.03)"/><path class="cls-48" d="M-4362.18,2843.12c-1.89-1.18-17.8-17.78-15.72-5.15-3.59-5.62,2.54-8.11,7.27-6.44s8.5,11.62,8.45,11.59h0Z" transform="translate(4463.32 -2660.03)"/><path class="cls-3" d="M-4360,2853.94c-11.59,4.18-24.8,5.65-23.81,20.7,0.88,13.3,15.6,19.07,25.3,24.89,10.68,6.4,18.73,10.08,31.77,10.34,10.3,0.2,19.93-1.94,29.86-4.39,7.95-2,17.25-6.69,25.17-7.76,3.47-.47,5.66,1.6,8.73-0.64a10.6,10.6,0,0,0,.11-6l4.17-2.61c2.5-2.73,6.87-3.14,7.46-7.09,1.77-11.89-10.29-16.2-18.87-16.56-13.37-.56-25.88-1.15-39-4.07C-4323.31,2857.56-4345.88,2847.1-4360,2853.94Z" transform="translate(4463.32 -2660.03)"/><path class="cls-9" d="M-4383.84,2874.9c0.58,0,17.14-13.5,18.1-11C-4366.24,2862.6-4381.75,2874.9-4383.84,2874.9Z" transform="translate(4463.32 -2660.03)"/><path class="cls-9" d="M-4320.19,2871.27c-1.28,0-35.59-4.65-35.19-2C-4356,2865-4320,2871.27-4320.19,2871.27Z" transform="translate(4463.32 -2660.03)"/><path class="cls-9" d="M-4297.67,2882.92c8.05,0,20.79-3,29.2-6.84,0.75-.35,10.59-6.52,10.56-6.55,0.89,0.8-8.81,6.27-9.16,6.44a71.68,71.68,0,0,1-30.6,6.95h0Z" transform="translate(4463.32 -2660.03)"/><path class="cls-9" d="M-4322.22,2906.69c-2.78,0-28.18-2.27-28.16-2.82-0.06,1.18,42.09,2.62,41.74,1.16C-4308.39,2906.12-4321.17,2906.69-4322.22,2906.69Z" transform="translate(4463.32 -2660.03)"/><path class="cls-49" d="M-4260.15,2865.58c-9.71-3.24-22.49-.71-32.64-1.78-16.9-1.78-33-8-49.64-11-9.46-1.71-30.38,1.57-37.48,9-8.74,9.19-2.24,21.15,5.52,28.23,24.1,22,53.75,22,83.88,13.72,4.25-1.17,8.51-2.37,12.64-3.94l4-1.58q3.48-3.56,6.55-.09c4.43-2.07.43-1.47,3.5-5.38,3.48-4.44,11.95-6.45,12.34-12.54,0.24-3.79-5-13.21-8.64-14.65C-4264,2864.28-4256.27,2867.13-4260.15,2865.58Zm-52.53,5.43c-17.3-3.26-31.06-5-48.5-2.09-12,2-9.7-2.22-1.42-6.88-2.35,1.32-16.2,7.33-18,6.33-3.32-1.82,18.73-13.21,19.61-13.54,10.7-4,20.64-.67,31.31,2.18,8.25,2.21,22.32,3.16,29.95,7,12,6.07-7.79,8-12.94,7h0Z" transform="translate(4463.32 -2660.03)"/><path class="cls-14" d="M-4375.31,2866.87c3.94-1.84,9.12-2.82,12.7-4.83-2.94,1.66-10.67,4.33-6.2,7.69,2.64,2,11.88-1.92,14.64-2.39a67.32,67.32,0,0,1,17.84-.53c10.55,1,24.66,7.7,35.08,4.51,7.36-2.25,6.54-5.17.38-7.4-5.24-1.9-12-2.29-17.47-3.79-9.7-2.66-20-6.56-30.06-7.28-7.39-.53-13.21,2.07-19.73,5.36-0.23.11-15.82,8.35-12.48,10.18a8.68,8.68,0,0,0,5.31-1.5h0Z" transform="translate(4463.32 -2660.03)"/><path class="cls-50" d="M-4260.15,2865.58c-5.18-1.73-12.54-.87-17.89-1,22.15,10.37-30.42,17.47-30.88,19.4-0.11.47,38.61-4.82,38.73-.47,0.24,8.86-39.16,17.57-44.86,18.66-12,2.3-29.74,2.74-40.79-3.05-6.22-3.26-28.29-20.67-21.18-28.49-0.85,2.56-5.85,1.4-6.81,4.05-0.85,2.33,1.39,5.44,2.41,7.27,4.68,8.38,13.17,12.2,21.08,16.59,14.58,8.1,25.38,12.69,43.2,11,11.43-1.1,23.15-4.31,34-8,3-1,8.26-4.24,11.34-4.63,2.14-.27,4,3.15,7,1.22a3.81,3.81,0,0,0,2-3.33q-1.86-4,2.66-5c2.13-2.43,7.56-3.74,8.79-6.73,1.76-4.25-4.83-15.75-8.8-17.34C-4262.09,2864.93-4256.27,2867.13-4260.15,2865.58Z" transform="translate(4463.32 -2660.03)"/><path class="cls-3" d="M-4388.5,2813.31c-2,12-9.11,19.3,7.25,24.84,0.39-.2,1.94-5.71,2.46-6.55,1.58-2.55,4.16-4.68,6.46-6.54,7.69-6.23,14.42-7.38,23.92-6.57,12.94,1.09,27.16,5.46,39.45,9.66,12.74,4.36,26.25,13.09,35.9,22.39,6,5.73,12.28,12.71,16.08,20.07a25.25,25.25,0,0,1,3,8.8c0.17,1.35-2.14,5.22-1.62,6,2.08,3.1,16.14-17.79,16.72-18.89a83.22,83.22,0,0,0,9-33.41c1.5-24.39-8.05-47.47-28.28-61.75-23-16.25-59.1-23.88-86.33-14.79C-4366.61,2763.94-4387.11,2789.93-4388.5,2813.31Z" transform="translate(4463.32 -2660.03)"/><path class="cls-9" d="M-4253.94,2875.15c2.84,0-3.86-26.2-4.78-28.55-0.57-1.45-9.5-17.83-9.37-18C-4266.25,2826.8-4245.35,2875.15-4253.94,2875.15Z" transform="translate(4463.32 -2660.03)"/><path class="cls-9" d="M-4392.13,2825.47c0.15,0,21.23-18.21,22.74-15.39C-4370.36,2808.29-4390.58,2825.47-4392.13,2825.47Z" transform="translate(4463.32 -2660.03)"/><path class="cls-9" d="M-4389.54,2818.22c0.38,0,10-13.47,10-13.34C-4378.84,2805.84-4388.8,2818.22-4389.54,2818.22Z" transform="translate(4463.32 -2660.03)"/><g class="cls-51"><path class="cls-52" d="M-4258.12,2835.47c-2.79-4.54-9.21-13.49-15.11-14.06-4.53-.44-2.8-1.26-2.11,3,0.94,5.86,19.2,26.58,14.41,31.84-0.32.35-31.36-23.92-34-25.34-15.22-8.21-37.29-16.12-54.9-16.24a40.25,40.25,0,0,0-23.67,7.57c-1.64,1.19-8.47,10.18-11.12,7.52-6-6.05,22.37-24,22-24.13-6.06-2-14.34,10-19.25,8.14-1.77-.67,8.91-15.74,8.61-16.6-0.24-.7-13.79,15.38-9.8-2.52-4,8.37-6.37,18.7-8.5,27.74-2,8.64,1.42,12.72,10.26,15.71,0.39-.2,1.94-5.71,2.46-6.55,1.58-2.55,4.16-4.68,6.46-6.54,7.69-6.23,14.42-7.38,23.92-6.57,12.94,1.09,27.16,5.46,39.45,9.66,12.74,4.36,26.25,13.09,35.9,22.39,6,5.73,12.28,12.71,16.08,20.07a25.25,25.25,0,0,1,3,8.8c0.17,1.35-2.14,5.22-1.62,6,1.12,1.67,8.92-7.15,9.39-7.72,6.5-7.79,10.87-17.36,13.48-27.11a83.34,83.34,0,0,0,.9-40.92c-9.68-39.7-53.38-57.44-91-56.6,18.22,1.14,35.57,5.59,50.13,17,7.44,5.83,21.4,18.32,13.25,28.68-4,5.14-21.75,5.09-20.74,11.5,0.41,2.61,7.79,7,9.45,8.59A55.78,55.78,0,0,1-4258.12,2835.47Z" transform="translate(4463.32 -2660.03)"/></g><path class="cls-53" d="M-4331.25,2757.07c-20.15,1.79-33.32,12.67-44.62,28.52-2.88,4-9.08,10.92-1.59,10.87,4.66,0,15-7.24,18.16-10.14-3.18,2.93-17.43,11.31-15.91,17.36,0.94,3.74,8.08-.72,11-1.91,8.93-3.63,17.16-7.21,27-5.14,11.09,2.33,30.64,17.53,41.79,7.23,12.11-11.2-17.22-16.08-18.14-22.47,0.27,1.86,34.64,12.22,38.16,10.44,9.79-5-5.29-20.24-9.58-23.47-13.09-9.87-30.27-12.67-46.25-11.29h0Z" transform="translate(4463.32 -2660.03)"/><path class="cls-52" d="M-4377.38,2815.21q2.53-.45,2.42-2.19c-4,1.33-9,6.86-13.1,7-0.69,0,6-11.75,6.72-13.08-0.47.69-7.22,9.24-7.16,6.38-1,6.59-7.71,14.26-1.38,20.2-2.46-8.48,5.93-15,12.5-18.3C-4373.41,2812.27-4391.18,2822.17-4377.38,2815.21Z" transform="translate(4463.32 -2660.03)"/><path class="cls-14" d="M-4235,2799.59c2.28,4.37,4.72,15.84,5.17,22.85a46.4,46.4,0,0,0-5.17-22.85h0Z" transform="translate(4463.32 -2660.03)"/><path class="cls-52" d="M-4237.29,2794.89q0.79,1.85,1.95,4.13C-4235.94,2797.63-4236.58,2796.25-4237.29,2794.89Z" transform="translate(4463.32 -2660.03)"/><path class="cls-50" d="M-4253.16,2862.47c-0.14-4.55-9.35-21.55-8.8-23,0.68,2.12,9.3,26.55,1.51,25.85,2.68,3.68,6.4,8.75,6.46,13.57,0,1.1-2,6-1.59,6.53,1.75,2.61,14.27-14.58,14.91-15.64,8.34-14,11.84-31.13,10.8-47.3a57.54,57.54,0,0,1-11.91,32.2c-0.72.94-11.23,12.27-11.37,7.83C-4253.42,2854.19-4253,2868.94-4253.16,2862.47Z" transform="translate(4463.32 -2660.03)"/><path class="cls-9" d="M-4427.58,2950.72c-2.82,0,4.67-26.56,6.51-29.61,0.49-.81,7.59-8.3,7.59-7.65,0,0.8-6.14,6.33-6.85,7.47C-4422.26,2924-4429.54,2950.72-4427.58,2950.72Z" transform="translate(4463.32 -2660.03)"/><path class="cls-9" d="M-4426.54,2950.63c-7.87.47,11.67-39.23,13.55-36-0.08-.13-6.38,7.33-6.65,7.75C-4421.36,2925.13-4428.85,2950.63-4426.54,2950.63Z" transform="translate(4463.32 -2660.03)"/><path class="cls-9" d="M-4425.25,2950.46c-2.58,0,4-24.21,5.68-27.06,0.27-.46,6.55-8.64,7.15-7.29-0.07-.16-5.88,6.38-6.11,6.74C-4420.34,2925.66-4427.21,2950.46-4425.25,2950.46Z" transform="translate(4463.32 -2660.03)"/><path class="cls-9" d="M-4424,2950c-2,0,3.79-22.65,5.33-25.27,0.26-.44,5.79-7.65,6.29-6.3-0.05-.15-5.15,5.48-5.33,5.75C-4419.86,2927.45-4425.13,2950-4424,2950Z" transform="translate(4463.32 -2660.03)"/><path class="cls-9" d="M-4422.66,2950.2c-7.32,0,9.28-32.1,10.2-30,0-.09-4.76,5.56-4.84,5.68C-4418.95,2928.59-4423.89,2950.2-4422.66,2950.2Z" transform="translate(4463.32 -2660.03)"/><path class="cls-9" d="M-4421.37,2949.94c-6,0,7.9-29.86,9-28.22C-4412.51,2921.49-4427.07,2949.94-4421.37,2949.94Z" transform="translate(4463.32 -2660.03)"/><g class="cls-27"><path class="cls-54" d="M-4416.19,2922.17c1.88,8.22,15.66,10.57,22.93,8.65-4.51-1.37-14.63-1.31-17.92-5.32-3-3.71-1-9.55-3.44-13.88-7.28,5.1-3,4.49-1.58,10.54S-4416.81,2919.45-4416.19,2922.17Z" transform="translate(4463.32 -2660.03)"/></g><path class="cls-34" d="M-4427.75,2924.93c-4.6,6.13-1,23.15-14.26,17.37-2.13-.93-6.77-4.37-5.78-7.35s6.5-1.9,9.13-2.11c-2.82-.09-19.09-2.69-12.63-9.14,1.45-1.45,16.11.58,15.94,0.26-3.22-6.17-16.7-1.94-19.3-10.94,0,1.67,1.88,3.22,1.89,4.51,0,3.22-1.17,5.57-.76,8.88a38.72,38.72,0,0,0,5.52,13.95,24.93,24.93,0,0,0,19.82,10.14c-0.07-10.18,1.09-21.43,6.32-30.43,1.18-2,3.57-4,4.49-6.06,2.1-4.69,2.18-.84.49-7.35,1.57,6-7.83,14.24-10.87,18.29h0Z" transform="translate(4463.32 -2660.03)"/><g class="cls-55"><path class="cls-56" d="M-4340.11,2827.15c-4.24,1.21-5.12,3.93-4.14,8.58,1-5.91,6.15-8.1,11.59-8,5,0.08,16.65,9.61,18.62,9s-10-8.24-10.41-8.42c-5.85-3-9.4-3-15.66-1.17h0Z" transform="translate(4463.32 -2660.03)"/></g><g class="cls-57"><path class="cls-58" d="M-4365.21,2838c-3.29-4.06-19.23-9.25-12.68,0-2.16-11.39,15.94,2.68,16.91,4.83-1.08-2.39-2.56-2.73-4.23-4.78h0Z" transform="translate(4463.32 -2660.03)"/></g><path class="cls-59" d="M-4255.24,2896.63c5.68,2.83,16.66,11.11,23.12,9.78,8.2-1.69,10.13-17.8,18.55-17.8-7.32,1.47-11.48,7.89-18.11,10.35C-4239.35,2901.81-4247.84,2899.2-4255.24,2896.63Z" transform="translate(4463.32 -2660.03)"/><path class="cls-59" d="M-4208.66,2891.2c1.83,3.28,2.34,12.73,5,13.84,3.85,1.57,7.65-6.27,11-7.11-2.63,1.13-4.82,4.68-8.16,3.85C-4205.73,2900.54-4204.42,2892.89-4208.66,2891.2Z" transform="translate(4463.32 -2660.03)"/><path class="cls-18" d="M-4426.85,2895.75l-17.35,2.94c1.65,9.73.7,18.65,14.37,15.41C-4420.56,2911.91-4425.52,2903.63-4426.85,2895.75Zm-9.89,17.28c-3-.57-5.58-4.77-5-7.84,0.7-3.93.32-3.33,5.52-4.11,10-1.52,9.25,13.79-.49,12h0Z" transform="translate(4463.32 -2660.03)"/><path class="cls-3" d="M-4458.41,2903.58c-3.55-10.33,12.13-8.17,19.61-9.33l31.19-4.84c3.55,10.33-12.13,8.17-19.61,9.33Z" transform="translate(4463.32 -2660.03)"/><g class="cls-60"><path class="cls-6" d="M-4408.72,2889.6c-12.66,8.6-35.1,11.82-50.05,11.67,0.44,4.78,26.87-1.79,31.55-2.52,4.27-.66,15.08-0.2,18.45-2.86C-4406.94,2894.44-4405.28,2891.13-4408.72,2889.6Z" transform="translate(4463.32 -2660.03)"/></g><path class="cls-54" d="M-4457.73,2897.41c14.09,0,26.78-1.31,40.24-6.21Z" transform="translate(4463.32 -2660.03)"/><path class="cls-35" d="M-4435.34,2953.31c-0.42,4.53,1.11,15.92,8,10.89C-4417.74,2957.24-4435.29,2952-4435.34,2953.31Z" transform="translate(4463.32 -2660.03)"/><path class="cls-35" d="M-4441.94,2903.1c0.58,3.93,5.61,13.46,8.86,6.67C-4430.61,2904.63-4438.47,2897-4441.94,2903.1Z" transform="translate(4463.32 -2660.03)"/><path class="cls-9" d="M-4426.67,2908.54c-1.61,0-15.77-6.32-14.83-7.53C-4441.61,2901.16-4427.55,2908.54-4426.67,2908.54Z" transform="translate(4463.32 -2660.03)"/><path class="cls-9" d="M-4440,2910c0.76,0,10.94-11.11,10.73-11.23C-4428.21,2899.28-4437.87,2910-4440,2910Z" transform="translate(4463.32 -2660.03)"/><path class="cls-9" d="M-4420.07,2964c-3.76,0-16.64-12.26-14.18-13.06C-4435.49,2951.34-4422.94,2964-4420.07,2964Z" transform="translate(4463.32 -2660.03)"/><path class="cls-9" d="M-4433.92,2964c2.43,0,12.44-14.17,12-14.34C-4420.41,2950.31-4430.53,2964-4433.92,2964Z" transform="translate(4463.32 -2660.03)"/><path class="cls-7" d="M-4315.44,3005.84c7.77,1.52,15.65.78,23.46,1.73,3.46,0.42,24.23.68,25.25,2.53,0.91,1.65-19.3,3-19.78,3C-4296.12,3012.75-4307.31,3011.45-4315.44,3005.84Z" transform="translate(4463.32 -2660.03)"/><path class="cls-61" d="M-4340.8,3019.29c6.31,8.49-20.72,21.09-26.07,24.16-7.93,4.56-16.22,8.85-23.33,14.66-2.58,2.11-8,10.68-10.71,11.75,1.2-.47,4.61-10,5.91-11.79,4.55-6.12,11-10.81,16.94-15.49C-4367.09,3034-4354.43,3023.32-4340.8,3019.29Z" transform="translate(4463.32 -2660.03)"/></g></g></svg>