<svg xmlns="http://www.w3.org/2000/svg" xmlns:xlink="http://www.w3.org/1999/xlink" viewBox="0 0 141.91 407.44"><defs><style>.cls-1{isolation:isolate;}.cls-2,.cls-6,.cls-7{fill:#481f0d;}.cls-3{fill:#1e0700;}.cls-4,.cls-6{opacity:0.4;}.cls-10,.cls-16,.cls-18,.cls-20,.cls-26,.cls-35,.cls-4,.cls-40,.cls-41,.cls-48,.cls-5,.cls-52,.cls-55{mix-blend-mode:multiply;}.cls-27,.cls-5,.cls-51,.cls-54,.cls-57{opacity:0.5;}.cls-15,.cls-27,.cls-42,.cls-50,.cls-53,.cls-54,.cls-57,.cls-58,.cls-6,.cls-62,.cls-63,.cls-7{mix-blend-mode:screen;}.cls-35,.cls-7{opacity:0.7;}.cls-10,.cls-57,.cls-8{fill:#a6958e;}.cls-9{fill:#47342e;}.cls-11,.cls-58{fill:#803e1b;}.cls-12{fill:#4c1b05;}.cls-13{fill:url(#Silver);}.cls-14{fill:#4c4c50;}.cls-15{fill:#c3ada2;}.cls-15,.cls-40,.cls-41,.cls-48,.cls-50{opacity:0.6;}.cls-16,.cls-19,.cls-20{fill:#96867e;}.cls-16,.cls-58,.cls-62{opacity:0.3;}.cls-17{fill:#fff;}.cls-21{fill:#604d46;}.cls-22{fill:#ffd5b8;}.cls-23{fill:#b26118;}.cls-24{fill:#9b4d05;}.cls-25,.cls-26{fill:#f7c7a2;}.cls-27{fill:#f5bc92;}.cls-28{fill:#6f0003;}.cls-29{fill:url(#linear-gradient);}.cls-30,.cls-42{fill:#f3c941;}.cls-31{fill:#bc8e0c;}.cls-32{fill:url(#radial-gradient);}.cls-33{fill:url(#radial-gradient-2);}.cls-34{fill:url(#radial-gradient-3);}.cls-36{fill:url(#linear-gradient-2);}.cls-37{fill:#59dea1;}.cls-38{fill:url(#radial-gradient-4);}.cls-39{fill:url(#linear-gradient-3);}.cls-40{fill:url(#radial-gradient-5);}.cls-41{fill:url(#radial-gradient-6);}.cls-43{fill:#b5a091;}.cls-44{fill:url(#Silver-2);}.cls-45{fill:url(#Silver-3);}.cls-46{fill:#271d1d;}.cls-47{fill:#1e1616;}.cls-49,.cls-52,.cls-54{fill:#392a2a;}.cls-55,.cls-63{opacity:0.8;}.cls-56{fill:#803f1e;}.cls-59{fill:#c76f44;}.cls-60,.cls-62,.cls-63{fill:#c97f1f;}.cls-61{fill:#723e05;}</style><linearGradient id="Silver" x1="-2913.55" y1="3427.46" x2="-2875.47" y2="3450.16" gradientUnits="userSpaceOnUse"><stop offset="0" stop-color="#eceae8"/><stop offset="0" stop-color="#e6e3df"/><stop offset="0.06" stop-color="#d7d4d2"/><stop offset="0.19" stop-color="#b1adaf"/><stop offset="0.26" stop-color="#969297"/><stop offset="0.52" stop-color="#f7f7f7"/><stop offset="0.59" stop-color="#e9e8e9"/><stop offset="0.71" stop-color="#c4c1c3"/><stop offset="0.88" stop-color="#8b8689"/><stop offset="1" stop-color="#d9d9d9"/><stop offset="1" stop-color="#b1b1b1"/></linearGradient><linearGradient id="linear-gradient" x1="-2914.15" y1="3318.9" x2="-2896.53" y2="3318.9" gradientUnits="userSpaceOnUse"><stop offset="0.07" stop-color="#eed8c7"/><stop offset="0.46" stop-color="#fff"/><stop offset="1" stop-color="#dfb798"/></linearGradient><radialGradient id="radial-gradient" cx="-2901.38" cy="3284.82" r="21.48" gradientUnits="userSpaceOnUse"><stop offset="0.33" stop-color="#fff"/><stop offset="1" stop-color="#dfb798"/></radialGradient><radialGradient id="radial-gradient-2" cx="-2932.93" cy="3290.96" r="13.56" xlink:href="#radial-gradient"/><radialGradient id="radial-gradient-3" cx="-2613.39" cy="3292.6" r="12.67" gradientTransform="translate(-15.11) scale(1.1 1)" gradientUnits="userSpaceOnUse"><stop offset="0" stop-color="#59dea1"/><stop offset="0.22" stop-color="#00bdd3"/><stop offset="0.99" stop-color="#434763"/></radialGradient><linearGradient id="linear-gradient-2" x1="-2900.8" y1="3292.42" x2="-2887.08" y2="3292.42" gradientUnits="userSpaceOnUse"><stop offset="0.01" stop-color="#434763"/><stop offset="0.78" stop-color="#00bdd3"/><stop offset="1" stop-color="#59dea1"/></linearGradient><radialGradient id="radial-gradient-4" cx="-2931.35" cy="3295.05" r="10.71" gradientTransform="matrix(1, 0, 0, 1, 0, 0)" xlink:href="#radial-gradient-3"/><linearGradient id="linear-gradient-3" x1="-2931.98" y1="3293.86" x2="-2923.06" y2="3293.86" xlink:href="#linear-gradient-2"/><radialGradient id="radial-gradient-5" cx="-3274.85" cy="3013.37" r="12.75" gradientTransform="translate(1.11 -78.96) rotate(-6.86)" gradientUnits="userSpaceOnUse"><stop offset="0.44" stop-color="#f58f92"/><stop offset="0.99" stop-color="#fff"/></radialGradient><radialGradient id="radial-gradient-6" cx="-2065.61" cy="3725.07" r="11.36" gradientTransform="translate(-37.15 179.67) rotate(13.86)" xlink:href="#radial-gradient-5"/><linearGradient id="Silver-2" x1="-2862.31" y1="3363.44" x2="-2866.86" y2="3384.93" xlink:href="#Silver"/><linearGradient id="Silver-3" x1="-2928.22" y1="3360.6" x2="-2930.35" y2="3381.38" xlink:href="#Silver"/></defs><title>pirate_08</title><g class="cls-1"><g id="Layer_1" data-name="Layer 1"><path class="cls-2" d="M-2942.73,3469.77c-2.54,15.06-4.87,30.26-6,45.5-0.9,11.66,4.06,30.85,18.6,31.28,5.09,0.15,11.55-4.35,14.84-7.78a25.3,25.3,0,0,0,6.51-11.79c1.57-7.37-3.2-7-4.24-12.53-1.09-5.91,10.48-20.46,13.85-26.54a180,180,0,0,1,5.72,25.09c0.82,4.82.41,15.6,3.16,19.83,4.46,6.87,20.44,7.26,27.89,4.84,10.51-3.41,7.4-7.69,7.49-16.21a4.73,4.73,0,0,0,1.91-4.55,29.38,29.38,0,0,1-2.19-7.17c-0.41-3.81.83-7.64,1.41-11.38,1.81-11.58,3-23.29,4.31-34.93C-2874.48,3488.17-2913.59,3483.78-2942.73,3469.77Z" transform="translate(2966.4 -3218.17)"/><path class="cls-3" d="M-2932.52,3547.4c-27.42-16.06-15-52.65-10.62-78.44,28.9,14.33,70.27,19.28,94.37-7.11-1.28,10.91-2.44,21.85-4,32.74-0.3,2.1-.67,4.21-0.94,6.31-0.78,6.12,1.21,10.39,1.19,15.91,0,2.5-1.25,8-1.76,10.35-0.82,3.8,2.71,2.63.43,6.48-4.94,8.31-31.77,8.24-36.86.66-1.73-2.58-1.45-9.73-1.92-12.66-1.76-10.88-3.46-21.8-6.73-32.36l-9.33,16.79c-0.84,1.51-4.27,5.64-4.16,7.5s5.12,5,5.66,7.83C-2904.65,3534.69-2921.27,3546.27-2932.52,3547.4Zm-9.79-76.83c-2.56,15.29-5,30.74-6,46.21-0.8,11.67,5.56,30.44,20,28.79,9-1,18.38-11.14,19.39-20,0.76-6.68-4.9-7.33-5.34-11.58-0.34-3.31,6.61-11.9,8.21-14.78l7-12.62c4.35,12.94,6.3,26.59,8.37,40,0.26,1.69,0,6.08,1.08,7.37,3.71,4.51,18.43,4.93,23.36,4.08,2.57-.44,10.21-2.38,11.6-5.15,1.24-2.48-1-7.79-1.11-10.34s1.05-5.53,1.05-8.48c0-5.13-.79-8,0-13.4q2.47-17.88,4.53-35.81c-25.54,23.39-63,19.52-92.09,5.71C-2943.2,3475.9-2938.43,3472.41-2942.31,3470.57Z" transform="translate(2966.4 -3218.17)"/><g class="cls-4"><path class="cls-2" d="M-2924,3514.56c-0.39,7.33-1.61,21.24-10.75,23.1-11.71,2.38-13.77-15.29-13.92-23.11-1.72,20.65,15.85,44.34,34.27,23.2,4.87-5.59,7.7-12.92,4.94-19.67-2.54-6.23-3.66-1-2.59-7,1.34-7.42,9.18-16.52,12.89-23.21,4.14,12.88,6.08,26.4,8.11,39.74,1.07,7,.55,7.17,7.91,9.36,6.07,1.81,12.8,2.72,19,1.19,2.23-.55,8.79-2.63,9.93-5,1.4-2.86-1.24-4.9-1-7.45,0.17-2.24,2-4.91,2-6.67,0.15-3.41-1.64-6-2-9.39-0.83-7.65,2.35-18.22,3.29-25.82-2.49,7.65-3.93,15.15-7,22.42-2,4.69-5.4,14.86-12.46,18.46-8.82,4.49-13-.29-16.53-7.79-1.14-2.43-5.42-9.89-2.46-12.63,2.79-2.59,6.72,1.83,9.35.47-1.54.8-12.14-7.75-13.36-10.44-1.82-4,.23-9.42-5.78-8.56-5.45.78-7.12,9.32-9.05,13.31-1.29,2.66-1.32,5.18-3.84,7.26-1.58,1.3-6.57.43-7.19,2.3-0.33,1,5.3.26,5.61,1.93,0.16,0.85-2.24,7.81-2.67,8.6-0.71,1.29-5.82-10.35-6.71-4.66C-2924.77,3528.35-2922.93,3507.48-2924,3514.56Z" transform="translate(2966.4 -3218.17)"/></g><g class="cls-5"><path class="cls-2" d="M-2941.46,3477.93c2.08-1,2.7,1.09,2.54,2.54,10.26-2.8,26.17,4.5,37,4.9a85.3,85.3,0,0,0,30.55-4.06c1.38-.47,17.16-8,17.17-5.07,0-4.49,2.38.12,2.85,2.42q0.91-7.61,1.8-15.23c-25,24.75-64.09,20.36-93.22,6.35q-1,5.72-1.83,11.47a12.61,12.61,0,0,1,3.1-3.3h0Z" transform="translate(2966.4 -3218.17)"/></g><path class="cls-3" d="M-2942.91,3537.6a13.67,13.67,0,0,0,13.06.91A9.09,9.09,0,0,1-2942.91,3537.6Z" transform="translate(2966.4 -3218.17)"/><path class="cls-3" d="M-2913.71,3514a42.74,42.74,0,0,1-3.26,12.33A32.76,32.76,0,0,1-2913.71,3514Z" transform="translate(2966.4 -3218.17)"/><path class="cls-3" d="M-2892.31,3516.74c2,4.72,4.35,9.54,8.53,12.69C-2888.93,3527.55-2891.73,3521.92-2892.31,3516.74Z" transform="translate(2966.4 -3218.17)"/><path class="cls-3" d="M-2855.49,3508.58c-0.52,6.94-3.27,19-11.61,20.49C-2859.63,3526.23-2857.34,3515.27-2855.49,3508.58Z" transform="translate(2966.4 -3218.17)"/><path class="cls-6" d="M-2938.92,3485.19c-1.14,5.71-2.1,11.47-2.81,17.26-0.66,5.41,1.72,19.53-.74,23.83,0.66-1.16-3.87-17.94-3.77-21.16s1.27-21.33,6.53-21.95A1.56,1.56,0,0,1-2938.92,3485.19Z" transform="translate(2966.4 -3218.17)"/><path class="cls-7" d="M-2944.36,3529.43a9.11,9.11,0,0,0,7.36,2.39c4.66-.82,6.12-9.13,9.15-9.39,2.45-.22-3.13,11.66-4.75,12.54-3.19,1.75-7.24.8-10.12-1.31C-2943.59,3533-2948.81,3527.65-2944.36,3529.43Z" transform="translate(2966.4 -3218.17)"/><path class="cls-7" d="M-2929.13,3519.64c1.89-3.6,1.5-7.49,3.51-10.21-0.1.13,3.2-.41,4.3-1.7,1.25-1.48,3.68-10.52,4.48-12.67,1.11-2.94,2.81-2.73,3.34-4.94,0-.06-3.55-1-3.54-1,1.35-1.58,5.91-2.16,10-2.09-1.47.08-9.53-.17-10.16,1.44,0.15,0.47,3.84.92,3.78,1.09-1.29,3.88-5.24,9.8-7,14.67-0.56,1.53.63,4.15-.71,5.42-0.84.79-3.67,0.66-3.66,0.65-2.6,3.19-.09-1.83-2.69,4.8C-2928.09,3516.69-2928.22,3518.1-2929.13,3519.64Z" transform="translate(2966.4 -3218.17)"/><path class="cls-6" d="M-2861,3482.43c0.78,4.63-5.26,29.21-4.65,29.57,3.28,1.89,9.42-18.16,9.65-20,0.24-2,1-10.78-2-11.95C-2860.21,3479.21-2861.23,3479.06-2861,3482.43Z" transform="translate(2966.4 -3218.17)"/><path class="cls-7" d="M-2885,3518.39c4.34,3.55,19.55-.8,18.51-2.23,2.78,3.82-10,8.41-11.83,8.21C-2883.47,3523.81-2884.45,3518.69-2885,3518.39Z" transform="translate(2966.4 -3218.17)"/><path class="cls-7" d="M-2894.14,3486.59c1.72,2.2,1.83,5.34,3.38,7.4,2.85,3.81,7.1,4,10.49,7.17,4.16,3.83,5.16,3-.44,5-12.77,4.52-4.36-1.23-2,3.87a23.71,23.71,0,0,1-.85,5.42c0.14-.59,1.24-4.58,1.24-4.9-1.74-1.41-5.76.23-6.31-2.86-0.66-3.74,10.77-.92,11.74-2.84,0.88-1.19-11.39-7.17-11.75-7.52C-2891.74,3494.31-2891.8,3490.1-2894.14,3486.59Z" transform="translate(2966.4 -3218.17)"/><path class="cls-8" d="M-2942.61,3368.07c3.35,2.82,5.17,7.25,6.37,11.34a42.37,42.37,0,0,1,5.45-19.6,84.26,84.26,0,0,0-11.82,8.26C-2939.87,3370.38-2937.5,3363.83-2942.61,3368.07Z" transform="translate(2966.4 -3218.17)"/><path class="cls-9" d="M-2935.79,3382.87c-1.46-5.36-3.21-11.13-7.66-14.81a90.38,90.38,0,0,1,14.13-9.71A48.29,48.29,0,0,0-2935.79,3382.87Zm-6-14.79a22.49,22.49,0,0,1,5.16,8.48,42.94,42.94,0,0,1,4.42-15.29,87,87,0,0,0-9.59,6.81C-2939.74,3370-2938,3365-2941.77,3368.08Z" transform="translate(2966.4 -3218.17)"/><path class="cls-10" d="M-2942.61,3368.07c3.35,2.82,5.17,7.25,6.37,11.34a42.37,42.37,0,0,1,5.45-19.6,84.26,84.26,0,0,0-11.82,8.26C-2939.87,3370.38-2937.5,3363.83-2942.61,3368.07Z" transform="translate(2966.4 -3218.17)"/><path class="cls-11" d="M-2849.32,3408.52c1.71-6.31,1-12.1,1.21-18.53,0.18-7.05,2.39-13.41,3.26-20.33-3.35,16.3-11.12,35.38-21.14,48.78-7.43,9.93-14.37,10.14-25.75,5.73-8.44-3.27-16.15-8-23.78-12.83-2.33-1.46-4.88-4-7.68-4.25-2.54-.26-6.54,2.4-8.67,3.38-6,2.76-9.32,3.46-10.92,9.09-3.43,12.08,1.31,19.66,12.73,20.62,8.1,0.68,15.88,3.38,24.14,3.58s15.74-4.31,23.36-4.68c11-.53,22.8,4.58,31.79-5.07,7.73-8.3-1.26-15.48,1.45-25.5h0Z" transform="translate(2966.4 -3218.17)"/><path class="cls-12" d="M-2904.92,3444.14c-6.8,0-12.25-2.84-18.68-3.75-4-.56-8.74,1.14-12.65-0.38-7-2.72-9.87-14.31-6.87-21.66,2.83-6.95,15.59-12.27,23.27-10.24,14.68,3.88,32.95,28.4,49.18,15.22,15.44-12.53,17.57-38.4,26.17-53.63-1.33,10.71-2.17,21-3.13,31.74-0.45,5-3.54,10.75-2.66,15.81,0.61,3.51,3.9,4.73,3.93,8.65,0.07,9.45-11.66,13.86-19.14,14.67-6.08.66-12.46-2-18.19-1.38C-2890.82,3439.94-2897.18,3444.14-2904.92,3444.14Zm-18.57-4.49a49,49,0,0,0,18.57,3.76c7.64,0,14-4.37,21-4.92,10.47-.82,21.72,4.81,31.27-3.1,8.46-7,2.9-11.38,1.58-19.15-0.85-5,2.41-11.09,2.74-16.19,0.42-6.41-.65-12.59.6-19-4.48,12.78-11.68,36-23.86,44-12,7.9-29.77-4.53-40.17-10.9-4-2.48-8.13-6.64-12.86-6.37-3.1.18-16.19,5.83-17.74,8.34s-0.65,18.07,1.08,20.22C-2937.54,3441-2928.61,3440.2-2923.5,3439.65Z" transform="translate(2966.4 -3218.17)"/><path class="cls-11" d="M-2839.44,3447a100.46,100.46,0,0,0-9.64-11.59c-21.47,21-61.9,29.77-87.3,10.09-2.35,3.84-4.67,7.7-6.92,11.6-3.78,6.57-4.34,7,2,10.73a79.12,79.12,0,0,0,35.37,11.27c25.91,1.58,53.33-8.62,66.47-32.11C-2843.57,3441-2852.53,3470.36-2839.44,3447Z" transform="translate(2966.4 -3218.17)"/><path class="cls-12" d="M-2901.51,3479.58c-11.88.06-33.76-3.27-42.28-12.9-4.38-4.95-4.53-1.63.14-9.74,2.33-4,4.74-8.05,7.18-12,25.19,20.08,66.08,11.1,87.39-10.05,2,2,10,9.16,10.06,12.07,0.06,4.85-9.55,13-12.82,15.81C-2865.46,3474.63-2883.69,3479.58-2901.51,3479.58Zm-45.19-15.72a80.62,80.62,0,0,0,63.93,13.06,67.81,67.81,0,0,0,30.32-14.61c3.52-3,9.18-7.74,10.68-12.2,2-5.94-2.75-9.42-7.32-14.23-21.22,20.66-62.12,29.87-87.2,10.13-3.6,5.87-7.15,11.79-10.42,17.85C-2940.33,3468.37-2943.17,3457.31-2946.7,3463.86Z" transform="translate(2966.4 -3218.17)"/><path class="cls-8" d="M-2839.44,3447c-21.16,37.84-75.08,40.39-107.73,17-6.83,12.74,40,19.92,48.81,20a73.42,73.42,0,0,0,33.41-7.39c8.18-4.1,32.07-20.08,25.5-29.59C-2852.53,3470.36-2838.54,3448.26-2839.44,3447Z" transform="translate(2966.4 -3218.17)"/><path class="cls-9" d="M-2897.73,3484.5c-6.88.06-61.66-9.54-49.63-21.34,33,23.78,86.56,21,107.87-17.23,10.32,8.07-15.37,25.5-21.37,29A72.85,72.85,0,0,1-2897.73,3484.5Zm-50.85-16.53c16.73,12.86,41.62,17.64,62.24,14.64a69.13,69.13,0,0,0,25.1-8.68c6-3.55,26.83-18.5,21.85-25.95-21.55,37.24-74.89,39.76-107.59,16.79l-1.6,3.2C-2938.84,3475.45-2948.2,3467.11-2948.58,3468Z" transform="translate(2966.4 -3218.17)"/><path class="cls-13" d="M-2897.85,3455.83a70.51,70.51,0,0,0,34-9c3.88-2.24,16.14-8.89,14-13.86-8.6,12.08-24.87,4.77-36.06,6.8-9.78,1.78-16.43,5-26.81,3.35-8-1.31-15.45-2.25-23.52-3.44-1.77,15.06,28.47,16.35,38.35,16.17h0Z" transform="translate(2966.4 -3218.17)"/><path class="cls-14" d="M-2899.54,3456.2c-9.22,0-41-1.75-37-17,4.35,0.67,8.88-.15,13.11.44,12.23,1.73,20.9,5.33,33.49,1.24,12.16-3.95,31.36,4.52,40.24-8.8C-2841.36,3445.58-2893,3456.2-2899.54,3456.2Zm-36.49-10.92c24.64,19.94,65.69,10.31,86.53-10l-0.46-1.52c-4,5-10.76,6.48-16.77,7-4.38.36-8.4-.54-12.74-0.62s-6,.57-10.32,1.56c-15.68,3.62-30.5.61-46.1-1.57a36.14,36.14,0,0,0-.14,5.21C-2934.74,3446.33-2936.06,3444.7-2936,3445.28Z" transform="translate(2966.4 -3218.17)"/><path class="cls-15" d="M-2914.61,3442.78l-6.28,10.16c4.63,1.37,6.73-6,9-9.68Z" transform="translate(2966.4 -3218.17)"/><path class="cls-16" d="M-2911.88,3443.26l-6.42,10.38c9.87,2.46,9.82-2,14.68-9.88A48.16,48.16,0,0,1-2911.88,3443.26Z" transform="translate(2966.4 -3218.17)"/><path class="cls-16" d="M-2920.78,3441.09l-6,9.77c7.91,3.28,8.21-1.61,12.21-8.07A47.57,47.57,0,0,1-2920.78,3441.09Z" transform="translate(2966.4 -3218.17)"/><path class="cls-16" d="M-2936.2,3439.66c-0.36,3.1.12,10.63,5.71,9.07,1.54-.43,4.35-7,5.29-8.56A51.52,51.52,0,0,1-2936.2,3439.66Z" transform="translate(2966.4 -3218.17)"/><path class="cls-15" d="M-2903.62,3443.76l-7,11.34c5.46,0.77,7.77-7.24,10.45-11.57Z" transform="translate(2966.4 -3218.17)"/><path class="cls-16" d="M-2854.36,3437c-5.34,3.11-6.1,4.42-9.4,9.76C-2859,3444-2857.21,3441.61-2854.36,3437Z" transform="translate(2966.4 -3218.17)"/><path class="cls-16" d="M-2883.74,3438.82c-6.92,3.46-9.6,10.4-13.69,17,9.53-.25,11.53-8.76,16.26-16.42l-2.57-.58C-2885.16,3439.53-2883,3439-2883.74,3438.82Z" transform="translate(2966.4 -3218.17)"/><path class="cls-15" d="M-2870.56,3440.46l-7.74,12.51c5-1.45,7.22-8.26,9.86-12.53Z" transform="translate(2966.4 -3218.17)"/><path class="cls-17" d="M-2903.75,3444c-2.26,3.62-4.59,8.35-7.41,11Z" transform="translate(2966.4 -3218.17)"/><path class="cls-17" d="M-2888.38,3441.17c-2.81,4.57-5.66,11.08-9.43,14.39Z" transform="translate(2966.4 -3218.17)"/><path class="cls-17" d="M-2870.56,3440.46c-2.56,4.14-5,9.45-8.36,12.62Z" transform="translate(2966.4 -3218.17)"/><g class="cls-18"><path class="cls-19" d="M-2849.81,3433c-8.6,12.08-24.87,4.77-36.06,6.8-9.78,1.78-16.43,5-26.81,3.35-8-1.31-15.45-2.25-23.52-3.44-0.68,5.77,0,6.45,5,9.12,0.51-10,10.67-3.92,16.64-2.82,13,2.4,23.36-3.42,35.86-3.82,5.46-.17,14.12-1.35,10.19,4.84-4.3,6.78-20.57,8.36-27.3,8.79C-2888.34,3455.44-2844.94,3445.65-2849.81,3433Z" transform="translate(2966.4 -3218.17)"/></g><path class="cls-17" d="M-2918.73,3451.56a65,65,0,0,0,41.12-1C-2881.56,3454.34-2904.68,3457.71-2918.73,3451.56Z" transform="translate(2966.4 -3218.17)"/><path class="cls-20" d="M-2929.51,3446c0,4.24-3.74,0-3.71,0S-2929.51,3441.75-2929.51,3446Z" transform="translate(2966.4 -3218.17)"/><path class="cls-8" d="M-2930.14,3445.67c0,3.53-3.11,0-3.08,0S-2930.14,3442.14-2930.14,3445.67Z" transform="translate(2966.4 -3218.17)"/><path class="cls-21" d="M-2931.68,3447.48c-4.13,0,0-3.65,0-3.63S-2927.53,3447.48-2931.68,3447.48Zm0-3.09c-3.6,0,1.27,4.87,1.27,1.27Z" transform="translate(2966.4 -3218.17)"/><path class="cls-17" d="M-2932,3445.14c-1.21,1.43,1.19-1.44,0,0h0Z" transform="translate(2966.4 -3218.17)"/><path class="cls-17" d="M-2932.6,3445.65h0Z" transform="translate(2966.4 -3218.17)"/><path class="cls-20" d="M-2920.06,3449.3c0,4.24-3.74,0-3.71,0S-2920.06,3445.06-2920.06,3449.3Z" transform="translate(2966.4 -3218.17)"/><path class="cls-8" d="M-2920.68,3449c0,3.52-3.11,0-3.09,0S-2920.68,3445.46-2920.68,3449Z" transform="translate(2966.4 -3218.17)"/><path class="cls-21" d="M-2922.23,3450.8c-4.14,0,0-3.65,0-3.63S-2918.09,3450.8-2922.23,3450.8Zm0-3.08-1.27,1.27q1.27,2.52,2.54,0Z" transform="translate(2966.4 -3218.17)"/><path class="cls-17" d="M-2922.56,3448.46h0Z" transform="translate(2966.4 -3218.17)"/><path class="cls-17" d="M-2923.15,3449h0Z" transform="translate(2966.4 -3218.17)"/><path class="cls-20" d="M-2907.22,3452.3c0,4.23-3.74,0-3.71,0S-2907.22,3448.07-2907.22,3452.3Z" transform="translate(2966.4 -3218.17)"/><path class="cls-8" d="M-2907.85,3452c0,3.51-3.11,0-3.09,0S-2907.85,3448.46-2907.85,3452Z" transform="translate(2966.4 -3218.17)"/><path class="cls-21" d="M-2909.4,3453.8c-4.13,0,0-3.66,0-3.63S-2905.25,3453.8-2909.4,3453.8Zm0-3.09c-3.6,0,1.27,4.89,1.27,1.27Z" transform="translate(2966.4 -3218.17)"/><path class="cls-17" d="M-2909.73,3451.47c-1.11,1.38,1.14-1.35,0,0C-2909.91,3451.69-2909.55,3451.25-2909.73,3451.47Z" transform="translate(2966.4 -3218.17)"/><path class="cls-17" d="M-2910.31,3452h0Z" transform="translate(2966.4 -3218.17)"/><path class="cls-20" d="M-2891.68,3452.64c0,4.24-3.74,0-3.71,0S-2891.68,3448.41-2891.68,3452.64Z" transform="translate(2966.4 -3218.17)"/><path class="cls-8" d="M-2892.31,3452.34c0,3.51-3.11,0-3.09,0S-2892.31,3448.79-2892.31,3452.34Z" transform="translate(2966.4 -3218.17)"/><path class="cls-21" d="M-2893.85,3454.15c-4.13,0,0-3.66,0-3.63S-2889.71,3454.15-2893.85,3454.15Zm0-3.09c-3.6,0,1.28,4.89,1.28,1.27Z" transform="translate(2966.4 -3218.17)"/><path class="cls-17" d="M-2894.18,3451.81c-1.13,1.4,1.16-1.4,0,0h0Z" transform="translate(2966.4 -3218.17)"/><path class="cls-17" d="M-2894.77,3452.31h0Z" transform="translate(2966.4 -3218.17)"/><path class="cls-20" d="M-2876.8,3449.12c0,4.24-3.74,0-3.7,0S-2876.8,3444.88-2876.8,3449.12Z" transform="translate(2966.4 -3218.17)"/><path class="cls-8" d="M-2877.42,3448.81c0,3.52-3.11,0-3.08,0S-2877.42,3445.28-2877.42,3448.81Z" transform="translate(2966.4 -3218.17)"/><path class="cls-21" d="M-2879,3450.63c-4.15,0,0-3.66,0-3.63S-2874.83,3450.63-2879,3450.63Zm0-3.09-1.27,1.27C-2880.24,3452.42-2875.36,3447.54-2879,3447.54Z" transform="translate(2966.4 -3218.17)"/><path class="cls-17" d="M-2879.3,3448.29h0Z" transform="translate(2966.4 -3218.17)"/><path class="cls-17" d="M-2879.88,3448.8h0Z" transform="translate(2966.4 -3218.17)"/><path class="cls-20" d="M-2864.93,3445.3c0,4.24-3.74,0-3.71,0S-2864.93,3441.07-2864.93,3445.3Z" transform="translate(2966.4 -3218.17)"/><path class="cls-8" d="M-2865.56,3445c0,3.53-3.11,0-3.08,0S-2865.56,3441.48-2865.56,3445Z" transform="translate(2966.4 -3218.17)"/><path class="cls-21" d="M-2867.1,3446.8c-4.15,0,0-3.66,0-3.63S-2863,3446.8-2867.1,3446.8Zm0-3.08-1.27,1.27q1.27,2.54,2.54,0Z" transform="translate(2966.4 -3218.17)"/><path class="cls-17" d="M-2867.43,3444.46h0Z" transform="translate(2966.4 -3218.17)"/><path class="cls-17" d="M-2868,3445h0Z" transform="translate(2966.4 -3218.17)"/><path class="cls-8" d="M-2845.45,3362.34c-6.77-19.8-29.76,17.47-32.73,22.88-3.92,7.13-5.27,8.26-13,11.37-4,1.59-12.62,8.85-16.34,1.41-3.64,4.42-9.93,7.14-15.15,9.07,6.8,0,18.38,11.28,24.57,14.25,7.44,3.57,17.59,8.74,25.48,4.14,7.16-4.18,11.45-14.53,14.81-21.53,5-10.48,16.59-29.4,12.39-41.59C-2846,3360.64-2844.61,3364.79-2845.45,3362.34Z" transform="translate(2966.4 -3218.17)"/><path class="cls-9" d="M-2878.49,3427.94c-10-.42-19.57-5.61-28-10.44-5.48-3.13-12.28-10-18.77-10,6.32-2.3,13.39-5.14,17.83-10.44,4.91,7.78,22.8-1.54,26.43-6.65,1.47-2.07,1.59-6.14,2.68-8.28,3.43-6.73,10.14-16.14,16.07-20.79,5-3.9,11.44-6.51,16.13-1.58,7.32,7.7-3.34,26.84-6.57,34.26C-2857.09,3404.05-2864.71,3427.94-2878.49,3427.94Zm-42.74-20.85c12.44,6.76,34.46,26.87,49.13,17.26,6.6-4.32,10.52-13.94,13.76-20.65,4.84-10,12.18-22.84,12.95-34.14,0.8-11.78-7.62-14.23-16.35-7.29-7.27,5.78-11.83,15.59-15.93,23.11-4.48,8.23-6.68,10-15.49,13.59a11.06,11.06,0,0,1-7.35,2.41,10,10,0,0,1-7.11-2.49c-3.51.57-9.76,6.66-13.61,8.2C-2920.3,3407.6-2916.22,3405.08-2921.23,3407.09Z" transform="translate(2966.4 -3218.17)"/><path class="cls-8" d="M-2907.56,3398c-3-5.48-.41-8.64-1.33-13.59-0.21-1.14,2.42-2.78,1.92-3.66-1.92-3.42-18.54,5.65-21.49,6.59a109.43,109.43,0,0,1-14.68,3.88c-1.34.23-3.27,1.26-4.69,1.16-3.18-.23-6.61-4.66-8.27-4.73-8.27-.33-11.45,20.32-7.88,27.44,4.15,8.26,11.92,4.81,18.92,1.88,9.56-4,30.86-10.91,37.49-19C-2913.24,3387.58-2910.2,3401.2-2907.56,3398Z" transform="translate(2966.4 -3218.17)"/><path class="cls-9" d="M-2957.6,3421c-11.34-.66-8.22-19.38-5.92-25.7,4.92-13.49,3.82-6.59,11.82-4.37,12.41,3.44,26.77-7.5,38.38-10.3,9.2-2.22,5.22-.47,4.84,4.17-0.93,11.51,4.81,13.21-7.05,19.66-4.57,2.48-9.5,3.63-14.25,5.67C-2938.4,3413.82-2947.79,3421-2957.6,3421Zm-1.13-33.41c-3.77,6.59-11.52,25.69-1.81,31.43,6.44,3.81,17.95-3.83,23.7-6.69,5.39-2.68,10.88-4.51,16.34-6.77,2.66-1.1,5.94-2.36,8.13-4.28,4.61-4.06,2.28-2.5,2.61-7.2,0.35-4.9-1.35-8.69,2.28-13.11-3.32-2.82-21.28,7.06-26.64,8.55-3.73,1-8.61,3.06-12.49,3.13-5.94.1-6.83-4-12.12-5.06C-2961.82,3393-2958.07,3387.71-2958.74,3387.58Z" transform="translate(2966.4 -3218.17)"/><path class="cls-22" d="M-2860.93,3292.21c-1.14,3.86-2.76,7.21-6.71,8.89,1.3-7.77.67-16-.36-23.76l-3.63,7.25c-1-3.63-1.83-8-1.09-11.79a74.27,74.27,0,0,0-6,6.89c0.57-5.78,1.63-12.23,4.72-17.23a47,47,0,0,0-11.79,3.44,15,15,0,0,1,6.53-6.71c-12.67,1.49-29.92,3.52-39.9,12.7a17,17,0,0,1,3.09-6.71c-8.33-.14-20.23.4-25.93,7.62,1.35-2.15.22-3.47,3.08-5.26a34,34,0,0,0-6.6,2c-0.1,0,5.27,15,5.51,16.73,1.11,8-4.41,14.08-4.35,21.91,0.12,15.94,21.62,26.88,35.24,28.46,15.3,1.77,32.52-4.29,43.56-15a32,32,0,0,0,9.2-16c0.85-3.34,2.61-9.45,1.44-13-1.41-4.28-4-7.08-6-.31h0Z" transform="translate(2966.4 -3218.17)"/><path class="cls-23" d="M-2860.93,3292.21c-1.12,3.88-2.87,7.34-6.73,8.92a86.61,86.61,0,0,0-.4-23.78c-1,2.22-2.4,5.06-3.58,7.45a31.16,31.16,0,0,1-1.17-12c-1.61,2.13-4.19,5-6.07,7.39,0.57-6.07,1.66-12.44,4.71-17.83-2.9,1.14-8.49,2.41-12.09,4.09,1.24-3.3,4.55-6.71,7.06-6.93-12.75,1.6-31.05,3.62-40.52,13.68a15.31,15.31,0,0,1,3.27-8.3c-5.61,5.19-20.41-1.29-26.24,10.05a9,9,0,0,1,3.49-7.87l0.4,1a42.7,42.7,0,0,0-6.5,1.91l-0.31-1,1.44-.26c0.35,6.66,4.36,12.27,5.06,18.56,0.92,8.35-5.86,15-4.55,23.51,1.37,8.88,9.84,15.07,17,19.29,29.76,17.54,77-3.78,71.31-41.57-2.89-1.24-4.61.42-5.58,3.69C-2861.46,3294.06-2860.74,3291.56-2860.93,3292.21Zm0,0c0.45-1.53,2.09-4.87,4.28-4.44,4.52,0.88,1.2,13.78.53,16.78-4.55,20.37-27.48,32.27-47.18,32.55-14.19.21-34.46-8-40.16-22.2-1.79-4.46-1.37-8.9-.1-13.46,1.51-5.42,4-9.48,3-15.12s-4.74-10.9-4.69-17a1.66,1.66,0,1,0-.47-0.32,69.62,69.62,0,0,1,9.28-2.64c-2.47,1.33-4.71,3.59-5,6.47l-1-.3c4.91-7.82,19.29-8,27.32-7.84-1.55,2-3.3,4.64-3.53,7.23,2-9.35,32.46-12.13,40.83-13.23-3.24,1.73-6.26,4.94-8.05,7a49.12,49.12,0,0,1,12.34-3.5c-3.22,5.38-4,11.94-5.26,17.44a93.42,93.42,0,0,1,6.24-7.1,30.36,30.36,0,0,0,1,12.07c0.92-2.17,2.4-5.07,3.59-7.44,1,7.84,1.55,16.18.32,23.94,3.84-1.56,5.6-5,6.72-8.87C-2860.74,3291.56-2861.47,3294.05-2860.93,3292.21Z" transform="translate(2966.4 -3218.17)"/><path class="cls-22" d="M-2860.79,3291.93c4.93-10.62,13,2.83,9.52,10.24-1.5,3.19-7.57,9.46-11.79,7.49C-2865.33,3308.6-2861.32,3295-2860.79,3291.93Z" transform="translate(2966.4 -3218.17)"/><path class="cls-23" d="M-2860.79,3291.93c5.68-11.73,17.27,9,4.9,16.32-13.93,8.19-6-9.94-4.9-16.32C-2860.42,3291.18-2861.29,3294.77-2860.79,3291.93Zm0,0c-0.91,5.7-1.4,11.53-3.21,17,3.7,1,9-1.68,11.43-5.47,5.05-7.78-3-22.18-8.22-11.58C-2861,3293.36-2860.41,3291.18-2860.79,3291.93Z" transform="translate(2966.4 -3218.17)"/><path class="cls-24" d="M-2860.62,3303.83c0-5,8.37-16.43,6.06-6.09C-2853,3288-2860,3300.65-2860.62,3303.83Z" transform="translate(2966.4 -3218.17)"/><path class="cls-24" d="M-2860.2,3302c1.33-.51,1.34-2.66,2.92-0.37C-2858.55,3300.86-2859,3301.57-2860.2,3302Z" transform="translate(2966.4 -3218.17)"/><g class="cls-18"><path class="cls-25" d="M-2855.34,3288.51c-2.94-2.89-9.3,11.32-12.3,12.59,1.3-7.77.67-16-.36-23.76l-3.63,7.25c-1-3.63-1.83-8-1.09-11.79a74.27,74.27,0,0,0-6,6.89c0.57-5.78,1.63-12.23,4.72-17.23a47,47,0,0,0-11.79,3.44,15,15,0,0,1,6.53-6.71c-12.67,1.49-29.92,3.52-39.9,12.7a17,17,0,0,1,3.09-6.71c-8.33-.14-20.23.4-25.93,7.62,1.35-2.15.22-3.47,3.08-5.26a34,34,0,0,0-6.6,2c0.47-.09,4.09,12.52,4.58,14.47,2.09,8.32-1.59,12-3,20.27-2.71,16.11,15.43,27.78,29,31.26,29.14,7.46,64.56-14.68,59.54-47C-2857.7,3286.18-2854.31,3295.16-2855.34,3288.51Zm-51.84,47.23c-11.1-1.59-24.9-7.4-31.56-17.05-2-2.9-6.23-24.15,1.19-24.1,2.28,0,.92,5.79.44,6.81,7.32-1,9.4,5.78,13.73,9.9-2.13-2.75-2.45-5.69,1.68-4.16-2.46-2.13,1-6.46,1.6-10,0.79-4.48-4.68-22.52-2.93-23.65,1.08-.7,3.06,3,5.29,2.13,1.94-.78,4.65-6.49,6.82-6-1.47-.33-1.15,6.38-1.08,6.63,0.28,1.12,3.88,0,4.56,1.48,0.82,1.84-1.05,3.86-1.06,5.65,0,9.42-.71,20.5,11.05,23.39a3.12,3.12,0,0,0-1.45,3c4.31-4.65,11.45-9,17.76-5.52a12.91,12.91,0,0,0-4.41-3.08c2.21-4.28.29-13.66,4.44-15.71,6.51-3.2,10.59,9.72,11.15,13.41,3.31,21.86-16.41,38.32-37.22,36.89C-2922.41,3333.56-2886.14,3337.19-2907.18,3335.74Z" transform="translate(2966.4 -3218.17)"/></g><path class="cls-26" d="M-2928.88,3317.24c6.22,1.94,32.19,3.95,30.59-5.2a10.15,10.15,0,0,0,6,3.87,4,4,0,0,1-3.14.24c0.07,6-1.93,13.59-8.77,14.66C-2913.6,3332.28-2920.53,3319.81-2928.88,3317.24Z" transform="translate(2966.4 -3218.17)"/><path class="cls-26" d="M-2857.67,3308.77a4.61,4.61,0,0,0,.71-2.87c-8.2,5.47.59-6.24,0-4.55,0.52-1.58-.51-3.93.16-6.72,0,0.16-3.15,2.8-3.36,2.47-1.67-2.72,0-7.25,2.42-9-5.23,3-3.57,10.42-9.94,13a75.07,75.07,0,0,0-.36-23.76,36.31,36.31,0,0,0-3.63,7.25c-0.72-3.45-2-8.28-1.09-11.79a23.61,23.61,0,0,0-6,6.89c0.62-5.84,2-12,4.72-17.23a42.55,42.55,0,0,0-11.79,3.44,14.27,14.27,0,0,1,5.68-6.45c-13.4,1.88-28.88,3.45-39.23,13.16,9.61-6.34,22.6-9.65,33.92-11.06-1.47,1.47-2.1,4.31-2.18,6.35a86.94,86.94,0,0,1,10.52-3.26c-2.91,5.31-2.82,12.6-2.72,18.5a24.35,24.35,0,0,1,5.26-5.8c0,3.25,1.2,6.62,2.36,9.61,0.77-1.68,2.39-3,3.09-4.72,0.73,6.79,1.63,14.3.18,21,1.86-.68,5.94-2.32,6.89-4.53-0.13,3.1-2.06,6.45-2.06,9.31,0,3.12,3.15.72,3,2.44-0.73,7.38-8.42,13.66-14,17.63C-2868.55,3324.23-2858.59,3317.14-2857.67,3308.77Z" transform="translate(2966.4 -3218.17)"/><path class="cls-27" d="M-2906.38,3329.1c0.42,0,3.81.48,3.57,0.7C-2905,3331.89-2906,3329.2-2906.38,3329.1Z" transform="translate(2966.4 -3218.17)"/><path class="cls-27" d="M-2900.54,3328.59c0.6,1.32-.58-1.33,0,0C-2900.44,3328.81-2900.64,3328.37-2900.54,3328.59Z" transform="translate(2966.4 -3218.17)"/><path class="cls-28" d="M-2921,3319.9c8.22,1,17.45-.23,24.49-4.79C-2895.69,3335.31-2912.27,3324.82-2921,3319.9Z" transform="translate(2966.4 -3218.17)"/><path class="cls-29" d="M-2896.9,3319.31l0.37-4.2c-5.18,3.35-11.51,4.83-17.62,5.06,4.8,4.59,12.34,2,17.26-.86C-2896.6,3318-2907,3325.21-2896.9,3319.31Z" transform="translate(2966.4 -3218.17)"/><path class="cls-30" d="M-2909.4,3272.55c8.48-7.36,19-4.79,25.37,4.08-4.08-4-8.45-6.6-14.29-5.89-1.41.17-11.81,5.45-12.33,4A3,3,0,0,1-2909.4,3272.55Z" transform="translate(2966.4 -3218.17)"/><path class="cls-31" d="M-2884.28,3276.88c-3.9-3.83-8-6.35-13.59-5.83-1.71.16-12.3,5.88-13.11,3.87C-2913.55,3268.74-2886.63,3263.73-2884.28,3276.88Zm-13.81-8.54c-0.83,0-13.64,3-12.22,6.31,0.47,1.07,8.06-3.08,8.37-3.17,5.56-1.67,9.76-1.81,14.68,1.87C-2890.08,3270.51-2894,3268.34-2898.09,3268.34Z" transform="translate(2966.4 -3218.17)"/><path class="cls-30" d="M-2939.31,3276c3.12-4.21,15.32-2.77,14.56,1.53C-2923.14,3268.43-2936.34,3269.25-2939.31,3276Z" transform="translate(2966.4 -3218.17)"/><path class="cls-31" d="M-2941,3278.94c1.37-3.45,3.31-8.67,7.54-9.18,4.92-.59,9.52,8.52,8.32,8.52C-2931.43,3274-2936.14,3270.85-2941,3278.94Zm7.66-6.7c3.43,0,5.81,3.37,8.22,5.31,2.3-3.58-8.65-10.23-12.78-3.49A7.35,7.35,0,0,1-2933.31,3272.24Z" transform="translate(2966.4 -3218.17)"/><path class="cls-32" d="M-2885.48,3291.43c0.27,16.81-20.81,17.07-21.09.34S-2885.76,3274.45-2885.48,3291.43Z" transform="translate(2966.4 -3218.17)"/><path class="cls-24" d="M-2885.48,3291.43c0,13.38-16,19.79-20.78,4.8C-2912,3278.23-2886.11,3271.2-2885.48,3291.43Zm0,0c-0.55-19-24.44-13.67-20.28,3.76C-2902.09,3310.56-2885.44,3305-2885.48,3291.43Z" transform="translate(2966.4 -3218.17)"/><path class="cls-33" d="M-2922.48,3293c0.19,12.13-11.89,12.34-12.09.2s11.89-12.33,12.09-.2C-2922.39,3298.49-2922.57,3287.51-2922.48,3293Z" transform="translate(2966.4 -3218.17)"/><path class="cls-24" d="M-2922.48,3293c0.2,8.25-7.24,14.53-11.52,4.95C-2939.87,3284.81-2922.66,3277-2922.48,3293Zm0,0c-0.38-15.62-16.27-7.9-11.07,4.8C-2929.5,3307.67-2922.37,3300.55-2922.48,3293Z" transform="translate(2966.4 -3218.17)"/><path class="cls-34" d="M-2887.13,3292.43c0,11.7-13.61,11.7-13.61,0S-2887.13,3280.72-2887.13,3292.43Z" transform="translate(2966.4 -3218.17)"/><g class="cls-35"><path class="cls-36" d="M-2893.94,3283c-9.14,0-9.15,18.85,0,18.85S-2884.79,3283-2893.94,3283Zm1.12,18.06c-5.22.86-9.95-9-5.3-12.08-0.81.55,1.48,7.33,2,7.7,2.28,1.73,8.47-1.52,6.72-3.48,2,2.3-.9,7.44-3.39,7.86C-2898.33,3302-2887.41,3300.16-2892.82,3301.06Z" transform="translate(2966.4 -3218.17)"/></g><path d="M-2890.49,3292.43c0,5.94-6.91,5.94-6.91,0S-2890.49,3286.49-2890.49,3292.43Z" transform="translate(2966.4 -3218.17)"/><path class="cls-37" d="M-2888.08,3288.28c1,4.7-4.43,5.46-5.35,1-1-4.72,4.37-5.45,5.35-1h0Z" transform="translate(2966.4 -3218.17)"/><path class="cls-17" d="M-2888.19,3288.17c1.5,6.86-4.6.82-4.42,0.79-0.14,0,3-7.66,4.42-.79C-2887.81,3289.87-2888.55,3286.48-2888.19,3288.17Z" transform="translate(2966.4 -3218.17)"/><path class="cls-38" d="M-2923.12,3293.86c0,8.37-8.77,8.37-8.77,0C-2931.89,3285.77-2923.12,3284.82-2923.12,3293.86Z" transform="translate(2966.4 -3218.17)"/><g class="cls-35"><path class="cls-39" d="M-2927.5,3286.86c-6,0-6,14,0,14S-2921.66,3286.86-2927.5,3286.86Zm0.72,13.41c-3.68.7-6.13-6.85-3.41-9-5.16,4,8.39,9.53,5.64,3.21,0.78,1.79,0,5.33-2.23,5.76h0Z" transform="translate(2966.4 -3218.17)"/></g><path d="M-2925.28,3293.86c0,7.9-4.62,0-4.44,0C-2929.9,3293.86-2925.28,3286-2925.28,3293.86Z" transform="translate(2966.4 -3218.17)"/><path class="cls-37" d="M-2923.73,3290.78a2.53,2.53,0,0,1-1.2,3.11c-2.38.48-3.39-5-1-5.5a2.42,2.42,0,0,1,2.24,2.39h0Z" transform="translate(2966.4 -3218.17)"/><path class="cls-17" d="M-2923.8,3290.71a2.08,2.08,0,0,1-1,2.56c-2,.41-2.8-4.15-0.85-4.55a2,2,0,0,1,1.85,2C-2923.56,3292-2924,3289.45-2923.8,3290.71Z" transform="translate(2966.4 -3218.17)"/><path class="cls-23" d="M-2897.82,3308.38c2.81-4.07,7.68-6.64,12.62-5.71C-2890,3302.75-2894.37,3305.09-2897.82,3308.38Z" transform="translate(2966.4 -3218.17)"/><path class="cls-23" d="M-2906.88,3283.62c1.94-10.56,13.42-8.53,18.26-1.57C-2894.08,3276-2903.82,3274-2906.88,3283.62Z" transform="translate(2966.4 -3218.17)"/><path class="cls-23" d="M-2937.11,3301.4c3.07-1.68,6.4-.53,8.35,2.3A9.6,9.6,0,0,0-2937.11,3301.4Z" transform="translate(2966.4 -3218.17)"/><path class="cls-23" d="M-2937.35,3287.49c0.45-10.9,11.17-8.67,13.67-.12C-2927.07,3280-2935.64,3277.36-2937.35,3287.49Z" transform="translate(2966.4 -3218.17)"/><path class="cls-23" d="M-2921.32,3301.21c-2.36,3.66-9,5.29-2.81,9.82-3.43-4.53-1.36-5.6,2.41-3.89C-2924,3305.25-2923.1,3303.27-2921.32,3301.21Z" transform="translate(2966.4 -3218.17)"/><path class="cls-23" d="M-2928.64,3315.67c-0.11,0-1.74-.92-1.82-0.24-0.38,2.13,9.56,4.3,10.76,4.64C-2922.68,3319.87-2934.94,3314.84-2928.64,3315.67Z" transform="translate(2966.4 -3218.17)"/><path class="cls-23" d="M-2898.05,3313c1.59,1,2.64,2.15,4.59,2.66C-2896.06,3316.08-2896.81,3314.85-2898.05,3313Z" transform="translate(2966.4 -3218.17)"/><path class="cls-23" d="M-2908.93,3330.54c2.35,2.54,5.75,3.44,8.58,1.33C-2902.9,3335-2907,3333.93-2908.93,3330.54Z" transform="translate(2966.4 -3218.17)"/><path class="cls-23" d="M-2906,3328.61c-6.61,0-11.64-6.41-17-9.37,9.1,1.58,18.92.25,26.77-4.77C-2895.92,3320.3-2898.86,3328.61-2906,3328.61Zm-13.58-8.18c8.45,6,22.69,12,22.66-4.67-6.62,4.06-15,5.33-22.66,4.67C-2918.81,3321-2918.66,3320.51-2919.54,3320.43Z" transform="translate(2966.4 -3218.17)"/><path class="cls-40" d="M-2879.46,3309.32c0.05-9.54-16.37-8.38-18-.33-1.89,9.57,17.93,11.24,18,.33C-2879.45,3307.46-2879.47,3313.3-2879.46,3309.32Zm-10.44-2.17c-2.83,3.82-3.77-1.3-3.91-1.35-0.91-.33,7-3,3.91,1.35C-2890.35,3307.77-2889.45,3306.53-2889.9,3307.15Zm2.46-2.78s-2.83.14-1.13-1.11C-2888.31,3303.2-2886,3303.3-2887.44,3304.38Z" transform="translate(2966.4 -3218.17)"/><path class="cls-41" d="M-2927.55,3309.77c2.89-7.5-9.58-11.8-14-6.85-6.62,7.34,10.34,16.55,14,6.85C-2927,3308.22-2928.8,3313.06-2927.55,3309.77Zm-8-5.08c-3,1.95-2.31-1.13-3.36-1.84-0.78-.53,7.88-1.14,3.36,1.84h0Zm2.91-1.53s-2.39-.76-0.59-1.27C-2933,3301.91-2931.06,3302.73-2932.61,3303.16Z" transform="translate(2966.4 -3218.17)"/><path class="cls-27" d="M-2918.8,3294.61c0,2.42-3.66,11.44-2.77,11.56,7,1,2.62-14.42,3.05-15.11A7.55,7.55,0,0,0-2918.8,3294.61Z" transform="translate(2966.4 -3218.17)"/><path class="cls-42" d="M-2909.53,3273.64c4.74-4.78,12.44-7.12,18.36-3.14C-2897.39,3267.6-2904.24,3269.73-2909.53,3273.64Z" transform="translate(2966.4 -3218.17)"/><path class="cls-42" d="M-2936.64,3272.76c3.61-4.76,8.84-1,10.62,3.35C-2928.4,3272.46-2932.67,3269.19-2936.64,3272.76Z" transform="translate(2966.4 -3218.17)"/><path class="cls-26" d="M-2908.2,3331.3s3.33,3.83,7.16,1.21C-2902.24,3335-2905.65,3335.84-2908.2,3331.3Z" transform="translate(2966.4 -3218.17)"/><path class="cls-30" d="M-2942,3272.81c5.69-7.2,17.69-7.76,25.93-7.62a17,17,0,0,0-3.09,6.71c10-9.19,27.21-11.2,39.9-12.7a15,15,0,0,0-6.53,6.71,47,47,0,0,1,11.79-3.44c-3.09,5-4.15,11.45-4.72,17.23a74.27,74.27,0,0,1,6-6.89c-0.76,3.81.11,8.07,1.09,11.79l3.63-7.25c1,7.77,1.66,16,.36,23.76,3-1.27,9.36-15.48,12.3-12.59-3.35-21.64-18.44-42.72-37.65-53.19-8.82-4.81-18.38-4.39-27.79-1.12-10.15,3.53-19.93,12.24-31,6.73,2.34,4.35,6.76,6.56,11.61,7.21-8.16,1.4-15.25,7-19.77,13.78,4-2.62,9.27-3,14-3.26a34.1,34.1,0,0,0-12.33,19c4.79-6,12.1-8.7,19.41-10.16C-2941.78,3269.33-2940.66,3270.65-2942,3272.81Z" transform="translate(2966.4 -3218.17)"/><path class="cls-31" d="M-2942,3272.81c4.56-7.46,18.51-7.76,26.11-7.71a24.7,24.7,0,0,0-3.35,6.73c9.33-9.83,28.55-11.4,40.91-13a26.08,26.08,0,0,0-7.54,6.84,48,48,0,0,1,12.33-3.56c-3.23,5.46-3.36,12.49-5.37,17.39a98.46,98.46,0,0,1,6.54-7.5,30.63,30.63,0,0,0,1,12.48c0.25-1.74,2.26-5.63,3.52-8.14,1.14,8.15,1.66,16.59.51,24.77,2-1.64,8.42-16.07,12.23-12.88-2.06-2.78-3.62-11.07-5.41-15.48a69.52,69.52,0,0,0-11.61-19.28c-7.21-8.5-17.72-18.82-29.12-21.15-15.14-3.09-26.07,8.92-39.79,10.33a14.63,14.63,0,0,1-10.88-1.55,19,19,0,0,0,12.87,7,31.27,31.27,0,0,0-20.75,13.9c2.46-3,10.07-3.37,14.34-3.58-6.59,4.91-10.42,11.87-13,19.2,4.83-6.13,12.24-8.61,19.58-10.14a7.13,7.13,0,0,0-3.18,5.31C-2941.7,3272.31-2941.9,3271.76-2942,3272.81Zm0,0a7.28,7.28,0,0,1,3.09-5.24c-7.51,1.63-14.71,4.24-19.6,10.53,1.6-7,6.43-16.23,12.53-19.27-4.91.28-10.94,0.67-14.82,4.06,3.89-6.35,13.12-15.24,20.58-14.52-5-.86-10-2.91-12-7.95,14.18,7.93,28.76-8.12,43-9,28.14-1.73,50.7,33.43,54.4,57.88-4.67-3.65-8.39,10.48-13.15,12.33a89.9,89.9,0,0,0-.27-24.25c-0.21,1.73-2.18,5.51-3.42,8a32,32,0,0,1-1.27-12.62c-0.91,2-4.18,5.36-6.07,7.79,0.58-6.18,1.7-12.74,4.86-18.2-2.81,1.12-8.42,2.37-12,4,1.26-3.17,4.37-6.29,6.95-6.92-12.83,1.56-30.1,3.44-40.08,12.82a16,16,0,0,1,3.16-7.09c-7.25.48-21.17,0-25.86,7.67C-2941.9,3271.76-2941.7,3272.31-2942,3272.81Z" transform="translate(2966.4 -3218.17)"/><path class="cls-31" d="M-2946,3258.66a20.41,20.41,0,0,1,9.79-5.26C-2939.47,3255.15-2942.78,3256.81-2946,3258.66Z" transform="translate(2966.4 -3218.17)"/><path class="cls-31" d="M-2938.92,3267.55c4.15-6.77,11.59-11.37,18.86-14.15C-2926.93,3257.11-2933.94,3261.41-2938.92,3267.55Z" transform="translate(2966.4 -3218.17)"/><path class="cls-31" d="M-2916.07,3265.19a25.57,25.57,0,0,1,13.24-9.07A60.39,60.39,0,0,0-2916.07,3265.19Z" transform="translate(2966.4 -3218.17)"/><path class="cls-31" d="M-2939.64,3248a34.55,34.55,0,0,1,17.23-1.63A112.3,112.3,0,0,0-2939.64,3248Z" transform="translate(2966.4 -3218.17)"/><path class="cls-31" d="M-2861.48,3283.5a12.4,12.4,0,0,1-.18,10.52A31.26,31.26,0,0,0-2861.48,3283.5Z" transform="translate(2966.4 -3218.17)"/><g class="cls-18"><path class="cls-30" d="M-2957.64,3260.66c7.1-2.77,13.07-3.28,20.13-6.77-7,.91-14.12,3-20.13,6.77C-2955.65,3259.89-2953.76,3258.2-2957.64,3260.66Z" transform="translate(2966.4 -3218.17)"/><path class="cls-30" d="M-2951.58,3241.39c5,9.75,17.11,5.18,25.46,4.74-8.3,0-18.11-.28-25.46-4.74C-2950.86,3242.79-2947.64,3243.79-2951.58,3241.39Z" transform="translate(2966.4 -3218.17)"/><path class="cls-30" d="M-2861.84,3268.63c-10.94-26-38.3-44.67-65.32-31.72,8.87-2.84,17.22-5.67,26.58-3,7,2,22.11,9.9,24.35,17.82,2.48,8.72-8.33,5.42-15.26,6.69a102.07,102.07,0,0,0-21.17,6.39,46.81,46.81,0,0,1,11.15-9.21,136.6,136.6,0,0,1-30.3,9c3-5.05,7.88-8.74,12.72-11.88-8.29,1.86-15.26,8.08-22.66,12-6.11,3.24-13.86,6.13-16.57,13,4.79-6,12.1-8.7,19.41-10.16-2.86,1.79-1.74,3.11-3.08,5.26,5.69-7.2,17.69-7.76,25.93-7.62a17,17,0,0,0-3.09,6.71c10-9.19,27.21-11.2,39.9-12.7a15,15,0,0,0-6.53,6.71,47,47,0,0,1,11.79-3.44c-3.09,5-4.15,11.45-4.72,17.23a74.27,74.27,0,0,1,6-6.89c-0.76,3.81.11,8.07,1.09,11.79l3.63-7.25c1,7.77,1.66,16,.36,23.76,3-1.27,9.36-15.48,12.3-12.59-1.07-6.89-3.81-13.48-6.5-19.87C-2868.55,3252.67-2858.62,3276.28-2861.84,3268.63Z" transform="translate(2966.4 -3218.17)"/></g><path class="cls-30" d="M-2873.78,3258.28c-2.58.66-7.9,5.5-9.31,5.61,3.74-.3,7.12-2.5,11-2.63-0.5.74-6.34,14.18-4.57,14.19,0.57,0,6.39-6.79,6.32-7.22,0.43,2.65-3.2,9.27-.88,11.34,1.43,1.28,3.49-8.72,3.81-9-0.35.29,2.92,27.46,1.54,27.11,5.31,1.34,2.37-21.36,2.93-22.41,0,0,3.38,9.44,4,9.37C-2858.12,3284.56-2863.53,3257-2873.78,3258.28Z" transform="translate(2966.4 -3218.17)"/><path class="cls-42" d="M-2924.23,3247.23s-20.33,1.85-31.85,11.27C-2960.12,3261.45-2946.36,3244-2924.23,3247.23Z" transform="translate(2966.4 -3218.17)"/><path class="cls-42" d="M-2956,3272.93s10.47-15.82,27.41-20C-2922.42,3251.36-2946.65,3250.13-2956,3272.93Z" transform="translate(2966.4 -3218.17)"/><path class="cls-42" d="M-2929.5,3262.91a42.71,42.71,0,0,1,18.42-10.21C-2903.26,3251.29-2921.27,3249.21-2929.5,3262.91Z" transform="translate(2966.4 -3218.17)"/><path class="cls-42" d="M-2943.83,3243.25a25.21,25.21,0,0,0,14.89-4.26C-2921.28,3234-2930.26,3247.33-2943.83,3243.25Z" transform="translate(2966.4 -3218.17)"/><path class="cls-42" d="M-2908.09,3262.1s6.53-5.25,19-7.07C-2881.06,3253.95-2901,3250.68-2908.09,3262.1Z" transform="translate(2966.4 -3218.17)"/><path class="cls-42" d="M-2907.18,3235.35c0,2.2-9.25,2.2-9.25,0S-2907.18,3233.15-2907.18,3235.35Z" transform="translate(2966.4 -3218.17)"/><path class="cls-42" d="M-2901.66,3235.83c-0.09,1.07-4,.74-3.91-0.32s4-.73,3.91.32h0Z" transform="translate(2966.4 -3218.17)"/><g class="cls-4"><path class="cls-43" d="M-2896.53,3315.12c-5.18,3.35-11.51,4.83-17.62,5.06,3.07,3,14-3.48,15.11-1.83a4.4,4.4,0,0,1-3.73,3.61c4.23-1.28,6.45-1.92,6.24-6.84C-2902.41,3318.92-2896.47,3316.58-2896.53,3315.12Z" transform="translate(2966.4 -3218.17)"/></g><path class="cls-27" d="M-2928.47,3316.25s9.1,3.49,21.44.75C-2899.93,3315.38-2915.88,3322.73-2928.47,3316.25Z" transform="translate(2966.4 -3218.17)"/><path class="cls-9" d="M-2946.9,3392.17c-6.8,3.06-10.23,9.56-12,16.48C-2958.77,3401.43-2954.48,3393.62-2946.9,3392.17Z" transform="translate(2966.4 -3218.17)"/><path class="cls-9" d="M-2948.35,3392.45c-4.74,1-9.13,3.31-11.73,7.5C-2958.74,3394.82-2953.52,3392-2948.35,3392.45Z" transform="translate(2966.4 -3218.17)"/><path class="cls-8" d="M-2947.31,3392.26l16.13-4c-5.68-4.09-3.47-13.89-9.31-17.89-3.83-2.62-4-.86-7.81,2.92A67.77,67.77,0,0,0-2959,3387C-2954.41,3387.86-2952.54,3393-2947.31,3392.26Z" transform="translate(2966.4 -3218.17)"/><path class="cls-9" d="M-2948.63,3393c-4.91-.25-6.48-5.28-11.25-5.6,2.2-3.8,12.58-20.37,17.62-19.72,3.7,0.48,5.61,10,6.8,12.51a61.46,61.46,0,0,0,5,8.44C-2936.1,3390-2942.81,3393-2948.63,3393Zm-9.53-6.37c4.61,0.93,6.12,4.7,11.21,5,4.46,0.28,10.63-2.67,15-3.77-1.08-2.14-2.75-2.5-4-4.71-2.69-4.8-2.21-10.23-6.7-14.35a71.31,71.31,0,0,0-15.54,17.81C-2957.49,3386.73-2954.36,3380.23-2958.16,3386.59Z" transform="translate(2966.4 -3218.17)"/><path class="cls-9" d="M-2884.78,3405.11c-0.44-6.25-2.36-9.52-9-10.48,5.87-.12,12.23.91,14.08,7.22-1.72-3.66-5.33-5.56-9.27-5.9l0.14-1.07c4.27,1.23,4.63,6.69,4,10.23C-2884.82,3404.64-2884.7,3404.64-2884.78,3405.11Z" transform="translate(2966.4 -3218.17)"/><path class="cls-44" d="M-2872.66,3375.4c4.91-8,13.07-20.73,24.34-17.28-15.53-13.41-31.87,11-29.67,24.38a34.52,34.52,0,0,0,5.33-7.1C-2866.44,3365.27-2875,3379.14-2872.66,3375.4Z" transform="translate(2966.4 -3218.17)"/><path class="cls-14" d="M-2878.23,3383.23c-0.62-13.89,13.9-41.08,31.46-24.27C-2862.7,3352.66-2869.67,3374.85-2878.23,3383.23Zm0.36-1.67c-0.23-.57,10-14,11.32-15.52,4.2-4.8,9.56-9.89,16.55-8.7-8.4-5.05-17.41-1.07-22.25,6.28-2.55,3.87-3.16,16.18-5.62,17.94C-2877.84,3381.64-2877.84,3381.54-2877.87,3381.56Z" transform="translate(2966.4 -3218.17)"/><path class="cls-45" d="M-2922.43,3363c-8.29-4-8.91-4.68-12,5.34-1.8,5.83-1.58,10.63-.56,16.48,1.37-8.4,5.35-16.93,12.57-21.82C-2924.7,3361.88-2931.5,3369.1-2922.43,3363Z" transform="translate(2966.4 -3218.17)"/><path class="cls-14" d="M-2935,3387c-1.23-7.93-2-12.45.91-20.67,3.58-10.12,4-7.41,12.38-3.38C-2929.76,3368.36-2933.73,3377.6-2935,3387Zm-0.88-7.61,0.87,3.5c1.63-7.61,5.39-15.21,11.86-19.83-6.91-3.41-5.18-5-9.52,1.43-2.54,3.77-3.08,10.45-3.21,14.9C-2935.55,3380.47-2935.74,3374.62-2935.88,3379.36Z" transform="translate(2966.4 -3218.17)"/><path class="cls-11" d="M-2871.09,3358.22c-16.8,7.73-28.25,10-46.55,6.77-6.37-1.12-6-2.31-10.47,3.31a33,33,0,0,0-5,9.12c-1.7,4.61-3.32,8.21,1.72,10.4,3.56,1.55,13.13-4.9,16.62-6,3-1,6.25-.55,8.42-1,11-2.38,19-11.56,28.7-1.52a30.85,30.85,0,0,1,11.62-23,39.46,39.46,0,0,0-5.09,1.92C-2882.08,3363.29-2869.36,3357.43-2871.09,3358.22Z" transform="translate(2966.4 -3218.17)"/><path class="cls-12" d="M-2931.41,3388.66c-9.64-4.33,2.11-24.28,9.14-26,3.79-.94,14.79,4.7,19.85,4.71a52,52,0,0,0,17.65-3.43c7-2.51,13.32-6.58,20.52-8.53a31.17,31.17,0,0,0-13,24.71c-9.3-10.43-17.71-2-28.71.95-2.38.64-5.11,0-8.56,1.07C-2920.26,3383.9-2925.65,3386.88-2931.41,3388.66Zm-3.21-3.82c3.64,0.28,2.22,2.31,5.4,2.36,2.63,0,6.14-2.17,8.51-3.13,5.79-2.34,10.28-2.81,15.48-4.13,10.13-2.58,18.34-10.59,27.31-1.51a31.21,31.21,0,0,1,10.22-21.2c-15.31,5.44-27.64,13.54-44.76,9.67-9.39-2.13-11.75-4.67-17.5,4.75A37,37,0,0,0-2934.63,3384.84Z" transform="translate(2966.4 -3218.17)"/><g class="cls-35"><path class="cls-11" d="M-2871.09,3358.22c-8.12,3.74-16.07,7.82-25.05,9.05a44.85,44.85,0,0,1-16.86-.87c-8.11-2-10-5.14-15.72,2.74,1.51-1,11.83.51,13.6,1.36,3.86,1.84,6,2.76,1.38,8.32-5.42,6.56-17.31,8.06-19.36-1.31-6.73,18.64,17.48,5,25.82,3,10.17-2.44,20.39-10.79,29.67-1.24a30.85,30.85,0,0,1,11.62-23,39.46,39.46,0,0,0-5.09,1.92C-2882.08,3363.29-2869.36,3357.43-2871.09,3358.22Zm-27.33,17.9c-8.6,3-14.41-1.23-3.89-4.39,2.94-.88,18-3.66,20-1.71,0.46,0.46-15.32,5.84-16.08,6.1h0Z" transform="translate(2966.4 -3218.17)"/></g><path class="cls-46" d="M-2940,3286.23c-2.18-4.85-5-11.47-4.71-16.87-6.49,10-3.07,21.07,2.17,30.65,1.57-4,4.5-9.41,2.54-13.78h0Z" transform="translate(2966.4 -3218.17)"/><path class="cls-47" d="M-2942.49,3300.86c-5.87-10.07-9.31-22.59-1.8-32.83C-2945,3281.22-2936.65,3287.25-2942.49,3300.86Zm-2.55-30.29c-5.5,9.41-2.33,19.68,2.45,28.58,4.87-11.48-1.42-17.13-2.45-28.58C-2950.88,3280.56-2944.65,3275-2945,3270.57Z" transform="translate(2966.4 -3218.17)"/><g class="cls-48"><path class="cls-46" d="M-2940,3286.23c-2.18-4.85-5-11.47-4.71-16.87a22.8,22.8,0,0,0-3.32,16.43c0-1.3.35-5.61,2-6.13,4.78-1.54,3.84,18.21.48,14.19q1.37,3.15,3,6.15c1.57-4,4.5-9.41,2.54-13.78h0Z" transform="translate(2966.4 -3218.17)"/></g><path class="cls-49" d="M-2849.56,3332.84c26.22-25.83,37.8-78.39,3.51-103.17-13.93-10.07-34.66-14.11-51.33-9.32-7.87,2.27-16.38,2.23-23.75,5.87s-12.56,13.63-20,16.24c11.1-.84,20-9.95,31.64-10.74,7.92-.54,14.15,1.83,20.68,6.21,15.84,10.62,27.83,27,32.36,45.6,9.56,39.2-39.11,68-71.42,46.24-1.65,4,2.66,7.3,5.8,8.7-6.37,1.12.12,2-1.27,4.36s-4.53,4.8-6.34,7.06c-0.82,1-8.29,9.55-8.13,9.82-0.78-1.35,13.91,4.67,14.88,5.22,10.69,6.05,22.83,6.25,34.63,3.59,10.48-2.36,20.56-9.16,31.21-10.26,4.68-.49,6.87.33,10.56,3.11,0.88,0.66,2.69,5.75,3.85,5.28,3.59-2.35-1.48-13.08-2.44-15.42-1.21-3-3.81-6.34-4.45-9.43-0.92-4.36,7-3.86,0-8.95C-2816.92,3300.68-2845.21,3336-2849.56,3332.84Z" transform="translate(2966.4 -3218.17)"/><path class="cls-47" d="M-2902.1,3370.59c-12,0-20.53-5.9-30.75-10.2-6.28-2.64-5.75,1.23-1.07-5.28,1.89-2.63,4.25-5.17,5.88-7.94a25.3,25.3,0,0,1,4.16-4.38q-3.39-3.21.73-4.46c-3.43-1.88-6.51-4.89-4.88-9.12,16.1,11.06,37.1,8.29,53.23-1.19,18.61-10.93,22.95-30.4,16.23-50.11-5.94-17.44-18.93-35-36-43.07-18.48-8.67-31.69,7.51-49.23,8.19,10.26-2.6,15.69-15.32,26.36-18.84,6.65-2.19,13.12-2.13,19.91-4.12,7.61-2.23,16.06-2.26,23.88-1.27,32.65,4.15,51.67,31.31,48.93,63.37a79.84,79.84,0,0,1-15.64,40.69c-1.34,1.81-8.14,8-8.63,9.94-0.09.36,2.3,4,2.24,5.43a5.05,5.05,0,0,1-2.34,3.65l2,4c0.8,3.89,3.71,7.68,4.69,11.62,4.32,17.33-5,.86-13.35.83-6,0-12.7,4-18.14,6C-2883,3367.69-2892.29,3370.59-2902.1,3370.59Zm-29.78-11c5.72,0,12.89,7.58,18.89,9.1,11.17,2.83,22.7.46,33.4-3,7.62-2.49,16.43-8.17,24.61-8,5.82,0.11,9.76,8.71,12.13,8.71,5.17-3.37-5.27-18.59-5.87-22-0.69-3.94,3.52-8.52-1.41-11.42,28.07-27.39,38.6-84.48-1.93-106.5-15.77-8.56-31.85-8.21-48.74-4.5-6.36,1.4-13.91,1.55-20,4.52-7.61,3.69-11.6,10.82-18.24,15.4,17.38-3.44,29.29-16.6,47.4-6.14,16,9.23,27.93,24.77,33.81,42.05,6.19,18.2,3.32,37-12.94,48.67s-39.57,15.3-56.87,3.93c-1.24,4,3.65,7.16,6.87,8.29-3.22.29-5.19,1.66-2,4.23-1.59,1.29-15,15.21-14.76,16.54C-2937.25,3360.9-2932.73,3359.54-2931.88,3359.54Z" transform="translate(2966.4 -3218.17)"/><g class="cls-50"><path class="cls-49" d="M-2885.11,3226.44c15.92-1.84,32.72,4.11,45.22,13.78C-2853.21,3231.32-2869,3225.84-2885.11,3226.44Z" transform="translate(2966.4 -3218.17)"/><path class="cls-49" d="M-2877.51,3232.21c13.57,1,28.25,5.79,38.08,15.62C-2850.11,3238.85-2863.89,3234.28-2877.51,3232.21Z" transform="translate(2966.4 -3218.17)"/><path class="cls-49" d="M-2865.65,3242.33c12.36,1.17,23.92,8.36,31.74,17.77C-2842.55,3251.39-2853.46,3244.6-2865.65,3242.33Z" transform="translate(2966.4 -3218.17)"/><path class="cls-49" d="M-2891.94,3222.93c13-3.11,27.69-1.34,39,6C-2864.83,3222.57-2878.7,3220.87-2891.94,3222.93Z" transform="translate(2966.4 -3218.17)"/><path class="cls-49" d="M-2858.21,3249c10,3.77,19.81,10.24,26.3,18.86C-2839.26,3260-2848.57,3253.85-2858.21,3249Z" transform="translate(2966.4 -3218.17)"/><path class="cls-49" d="M-2854.16,3255.69c9.11,4.81,18.39,11.87,23.46,21C-2836.71,3268.11-2845.53,3261.49-2854.16,3255.69Z" transform="translate(2966.4 -3218.17)"/><path class="cls-49" d="M-2885.36,3228.37c2.46-5.56,8.7-8.16,14.51-8.22C-2876.43,3221.26-2882.07,3223.47-2885.36,3228.37Z" transform="translate(2966.4 -3218.17)"/><path class="cls-49" d="M-2880.76,3231.27a17.21,17.21,0,0,1,14.75-9.43A23.8,23.8,0,0,0-2880.76,3231.27Z" transform="translate(2966.4 -3218.17)"/><path class="cls-49" d="M-2875.68,3234.17c3.59-5.39,9.59-10.8,16.44-10.89C-2865.88,3224.49-2871.26,3229.36-2875.68,3234.17Z" transform="translate(2966.4 -3218.17)"/><path class="cls-49" d="M-2871.09,3237.31c3.53-5.16,9-10.41,15.48-11.37C-2861.76,3227.95-2866.71,3232.75-2871.09,3237.31Z" transform="translate(2966.4 -3218.17)"/><path class="cls-49" d="M-2866.74,3240.7c3.62-6.18,10.36-10.62,17.66-10.16C-2856.21,3231.15-2862.32,3235.19-2866.74,3240.7Z" transform="translate(2966.4 -3218.17)"/><path class="cls-49" d="M-2862.87,3246.5c3.57-6.53,10-12,17.42-13.3C-2852.56,3235.54-2858.43,3240.57-2862.87,3246.5Z" transform="translate(2966.4 -3218.17)"/><path class="cls-49" d="M-2859,3251.1c4.12-6,9.87-12.24,16.93-14.75C-2848.71,3239.82-2854,3245.66-2859,3251.1Z" transform="translate(2966.4 -3218.17)"/><path class="cls-49" d="M-2855.61,3256.9c3.83-6.26,9.44-12.51,16.44-15.23C-2845.71,3245.34-2850.9,3251.18-2855.61,3256.9Z" transform="translate(2966.4 -3218.17)"/><path class="cls-49" d="M-2854.16,3260.05c4.44-6,10.41-12,17.41-15C-2843.32,3249-2848.84,3254.59-2854.16,3260.05Z" transform="translate(2966.4 -3218.17)"/><path class="cls-49" d="M-2851.26,3264.88c3.94-6,9-12,15.24-15.72C-2841.67,3253.8-2846.45,3259.41-2851.26,3264.88Z" transform="translate(2966.4 -3218.17)"/><path class="cls-49" d="M-2834.82,3253a57,57,0,0,1-14.27,14.75C-2844.26,3262.94-2839.3,3258.2-2834.82,3253Z" transform="translate(2966.4 -3218.17)"/><path class="cls-49" d="M-2849.32,3273.83c6.56-4.61,13.3-10.32,16.44-17.89C-2835,3263.87-2842.25,3270.16-2849.32,3273.83Z" transform="translate(2966.4 -3218.17)"/><path class="cls-49" d="M-2846.9,3279.64c7.08-4.71,14-11.25,16-19.83C-2831.76,3268.69-2839.38,3275.83-2846.9,3279.64Z" transform="translate(2966.4 -3218.17)"/><path class="cls-49" d="M-2849.56,3300.68a60.2,60.2,0,0,0,20.31-14.27A38.26,38.26,0,0,1-2849.56,3300.68Z" transform="translate(2966.4 -3218.17)"/><path class="cls-49" d="M-2855.61,3308.65c9.51-3.67,18.75-8.83,26.11-16C-2836,3300.54-2845.87,3306.05-2855.61,3308.65Z" transform="translate(2966.4 -3218.17)"/><path class="cls-49" d="M-2857.07,3313.73c9.1-3.12,18.38-7.28,25.39-14C-2837.85,3307.13-2847.81,3311.77-2857.07,3313.73Z" transform="translate(2966.4 -3218.17)"/><path class="cls-49" d="M-2860,3320c8.31-2.84,16.81-6.12,23.94-11.37C-2842.5,3314.7-2851.42,3318.2-2860,3320Z" transform="translate(2966.4 -3218.17)"/><path class="cls-49" d="M-2866.49,3326.55a161.42,161.42,0,0,0,25.39-10.16A70.61,70.61,0,0,1-2866.49,3326.55Z" transform="translate(2966.4 -3218.17)"/><path class="cls-49" d="M-2870.12,3330.42c8.6-.32,16.95-3.73,24.67-7.26C-2852.67,3327.59-2861.52,3331.13-2870.12,3330.42Z" transform="translate(2966.4 -3218.17)"/><path class="cls-49" d="M-2836.51,3286.88c3.29,4.2,5.9,9.34,6,14.76C-2831.56,3296.42-2834.06,3291.58-2836.51,3286.88Z" transform="translate(2966.4 -3218.17)"/><path class="cls-49" d="M-2839.17,3289.79c3.4,4.91,6.2,11.31,5.8,17.41C-2834.07,3301.09-2836.59,3295.31-2839.17,3289.79Z" transform="translate(2966.4 -3218.17)"/><path class="cls-49" d="M-2842.8,3292.94c4,5.73,7,13,6.78,20.07C-2836.88,3306-2839.69,3299.25-2842.8,3292.94Z" transform="translate(2966.4 -3218.17)"/><path class="cls-49" d="M-2846.42,3296.32a34.59,34.59,0,0,1,6.52,19.59A65.53,65.53,0,0,0-2846.42,3296.32Z" transform="translate(2966.4 -3218.17)"/><path class="cls-49" d="M-2849.32,3299.46c3.32,6,6,12.87,6.29,19.83C-2844.35,3312.49-2846.88,3305.93-2849.32,3299.46Z" transform="translate(2966.4 -3218.17)"/><path class="cls-49" d="M-2851.5,3304.79c2.95,6.56,5,13.8,4.84,21A140.43,140.43,0,0,0-2851.5,3304.79Z" transform="translate(2966.4 -3218.17)"/><path class="cls-49" d="M-2854.4,3308.65c2.93,6.08,4.79,13.05,4.11,19.83C-2850.6,3321.71-2852.44,3315.11-2854.4,3308.65Z" transform="translate(2966.4 -3218.17)"/><path class="cls-49" d="M-2856.58,3312c2.56,6.22,5.14,14.35,2.9,21C-2852.45,3326.14-2854.91,3318.69-2856.58,3312Z" transform="translate(2966.4 -3218.17)"/><path class="cls-49" d="M-2858.76,3317.6c1.4,5.26,2.1,11.38.48,16.69C-2857.64,3328.76-2858.37,3323.12-2858.76,3317.6Z" transform="translate(2966.4 -3218.17)"/><path class="cls-49" d="M-2862.14,3322.93a13.79,13.79,0,0,1-.48,10.15A51.61,51.61,0,0,0-2862.14,3322.93Z" transform="translate(2966.4 -3218.17)"/><path class="cls-49" d="M-2914.27,3347.82a29.25,29.25,0,0,1-10,9.68C-2920.85,3354.37-2917.57,3351.1-2914.27,3347.82Z" transform="translate(2966.4 -3218.17)"/><path class="cls-49" d="M-2907.28,3349.12a37,37,0,0,1-12.18,12.25A153.21,153.21,0,0,0-2907.28,3349.12Z" transform="translate(2966.4 -3218.17)"/><path class="cls-49" d="M-2902.27,3349.13a50.27,50.27,0,0,1-12.83,14.9C-2910.57,3359.27-2906.4,3354.23-2902.27,3349.13Z" transform="translate(2966.4 -3218.17)"/><path class="cls-49" d="M-2897,3349.18a63.06,63.06,0,0,1-12.8,16.79C-2905.33,3360.5-2901.19,3354.82-2897,3349.18Z" transform="translate(2966.4 -3218.17)"/><path class="cls-49" d="M-2892.35,3349.1a52.45,52.45,0,0,1-12.71,16.38A202.34,202.34,0,0,0-2892.35,3349.1Z" transform="translate(2966.4 -3218.17)"/><path class="cls-49" d="M-2885.79,3348.33c-3.85,7-8.54,13.93-15.16,18.6C-2895.07,3361.4-2890.5,3354.84-2885.79,3348.33Z" transform="translate(2966.4 -3218.17)"/><path class="cls-49" d="M-2880,3346.66a70.84,70.84,0,0,1-15.17,19.07C-2889.71,3359.66-2884.83,3353.19-2880,3346.66Z" transform="translate(2966.4 -3218.17)"/><path class="cls-49" d="M-2874.13,3344.37c-3.34,8.15-8.73,15.69-16,20.75A80.07,80.07,0,0,0-2874.13,3344.37Z" transform="translate(2966.4 -3218.17)"/><path class="cls-49" d="M-2864.56,3340.09a191.15,191.15,0,0,1-20.13,23.94C-2878.18,3355.92-2871.42,3347.91-2864.56,3340.09Z" transform="translate(2966.4 -3218.17)"/><path class="cls-49" d="M-2856.94,3338.46c-7.11,7-15.85,14.33-20.5,23.4C-2873.8,3352.44-2864.51,3344.52-2856.94,3338.46Z" transform="translate(2966.4 -3218.17)"/><path class="cls-49" d="M-2924,3352.61a38,38,0,0,1,5.8,12.33C-2920.32,3360.9-2922.29,3356.79-2924,3352.61Z" transform="translate(2966.4 -3218.17)"/><path class="cls-49" d="M-2922.23,3349c3.54,5.15,6.72,11,8,17.23C-2916.52,3360.3-2919.53,3354.69-2922.23,3349Z" transform="translate(2966.4 -3218.17)"/><path class="cls-49" d="M-2919.51,3345.35a125.9,125.9,0,0,1,12.7,22.49C-2911.2,3360.44-2915.44,3352.92-2919.51,3345.35Z" transform="translate(2966.4 -3218.17)"/><path class="cls-49" d="M-2912.75,3348.58c4.55,5.71,8.36,12.25,9.92,19.44C-2905.37,3361.17-2909,3354.87-2912.75,3348.58Z" transform="translate(2966.4 -3218.17)"/><path class="cls-49" d="M-2907.41,3349.29c4.28,5.47,8,11.78,9.11,18.73C-2900.46,3361.36-2903.92,3355.33-2907.41,3349.29Z" transform="translate(2966.4 -3218.17)"/><path class="cls-49" d="M-2902.31,3349.35c3.91,5.14,7.21,11,8.55,17.4A157.92,157.92,0,0,0-2902.31,3349.35Z" transform="translate(2966.4 -3218.17)"/><path class="cls-49" d="M-2898.67,3349c3.89,5.29,7.38,11.16,9.08,17.56C-2892.28,3360.54-2895.63,3354.86-2898.67,3349Z" transform="translate(2966.4 -3218.17)"/><path class="cls-49" d="M-2893.26,3349.13a52.17,52.17,0,0,1,7.9,16C-2887.94,3359.77-2890.69,3354.49-2893.26,3349.13Z" transform="translate(2966.4 -3218.17)"/><path class="cls-49" d="M-2888.29,3349.06a56.49,56.49,0,0,1,7.89,14.86C-2883.16,3359-2885.85,3354.1-2888.29,3349.06Z" transform="translate(2966.4 -3218.17)"/><path class="cls-49" d="M-2883.93,3347.85a43.27,43.27,0,0,1,7.4,13.88Q-2880.3,3354.84-2883.93,3347.85Z" transform="translate(2966.4 -3218.17)"/><path class="cls-49" d="M-2879.9,3346.87c3.31,4,6.22,8.74,6.76,14C-2874.69,3355.89-2877.44,3351.45-2879.9,3346.87Z" transform="translate(2966.4 -3218.17)"/><path class="cls-49" d="M-2875.5,3345.17a49.87,49.87,0,0,1,7.65,13.48C-2870.53,3354.24-2873.21,3349.79-2875.5,3345.17Z" transform="translate(2966.4 -3218.17)"/><path class="cls-49" d="M-2869.69,3342.53a53.56,53.56,0,0,1,8.27,14.35C-2864.25,3352.15-2867.19,3347.44-2869.69,3342.53Z" transform="translate(2966.4 -3218.17)"/><path class="cls-49" d="M-2866.63,3341c3.71,4.33,7.11,9.08,9.07,14.47C-2860.48,3350.62-2863.77,3346-2866.63,3341Z" transform="translate(2966.4 -3218.17)"/><path class="cls-49" d="M-2911.48,3223.74a10.9,10.9,0,0,1,3.81,7.29C-2908.86,3228.56-2910.06,3226.09-2911.48,3223.74Z" transform="translate(2966.4 -3218.17)"/><path class="cls-49" d="M-2902.2,3223.91a9.81,9.81,0,0,1,.49,7.12Q-2902,3227.48-2902.2,3223.91Z" transform="translate(2966.4 -3218.17)"/><path class="cls-49" d="M-2894.08,3226.56c-1,2-2,4-3,6A7.52,7.52,0,0,1-2894.08,3226.56Z" transform="translate(2966.4 -3218.17)"/><path class="cls-49" d="M-2914.79,3231.2a11.6,11.6,0,0,1,9.11-7.29A19.61,19.61,0,0,0-2914.79,3231.2Z" transform="translate(2966.4 -3218.17)"/><path class="cls-49" d="M-2918.6,3225.4a12.08,12.08,0,0,1,6.13,5.8C-2914.47,3229.22-2916.52,3227.29-2918.6,3225.4Z" transform="translate(2966.4 -3218.17)"/><path class="cls-49" d="M-2909.16,3231a9.75,9.75,0,0,1,9.78-6A15.08,15.08,0,0,0-2909.16,3231Z" transform="translate(2966.4 -3218.17)"/><path class="cls-49" d="M-2902.86,3230.87a6.6,6.6,0,0,1,6.13-5.14A12.57,12.57,0,0,0-2902.86,3230.87Z" transform="translate(2966.4 -3218.17)"/><path class="cls-49" d="M-2896.24,3232.52a8,8,0,0,1,6.79-4A23.79,23.79,0,0,0-2896.24,3232.52Z" transform="translate(2966.4 -3218.17)"/><path class="cls-49" d="M-2892.09,3235.34a6.94,6.94,0,0,1,3.65-6.47A18.57,18.57,0,0,0-2892.09,3235.34Z" transform="translate(2966.4 -3218.17)"/><path class="cls-49" d="M-2891.1,3235.67a6.62,6.62,0,0,1,7.45-4.3A11,11,0,0,0-2891.1,3235.67Z" transform="translate(2966.4 -3218.17)"/><path class="cls-49" d="M-2881.83,3232.69c-1.85,1.78-3.45,5.38-4.52,6.35a14.66,14.66,0,0,1,10-3.2,21.31,21.31,0,0,0-10.72,4.62c1.2-2.65,2.71-6.11,5.25-7.78C-2882.06,3232.91-2882.11,3232.87-2881.83,3232.69Z" transform="translate(2966.4 -3218.17)"/><path class="cls-49" d="M-2890.1,3236.33a12.67,12.67,0,0,1,9.93-3A35.84,35.84,0,0,0-2890.1,3236.33Z" transform="translate(2966.4 -3218.17)"/><path class="cls-49" d="M-2878.51,3234.68a18,18,0,0,0-4.14,7.79A8.35,8.35,0,0,1-2878.51,3234.68Z" transform="translate(2966.4 -3218.17)"/><path class="cls-49" d="M-2879.67,3245.28c0.19-3.33,2-6.31,5.3-7.12A13.05,13.05,0,0,0-2879.67,3245.28Z" transform="translate(2966.4 -3218.17)"/></g><g class="cls-51"><path class="cls-52" d="M-2849.56,3332.84c34.22-33.71,35.75-103.27-21.12-113.2,22.72,7.43,40.64,23.33,43,48.2a71.72,71.72,0,0,1-7.3,38.47c-2.08,4.14-9.72,18.65-16.47,15.86-6-2.47-2.11-14.18-1.41-18.61,2.09-13.15,3.63-26.37,1.17-39.61-2-11-7-21.53-15.18-29.32-0.61-.58-11.42-8.22-11.48-7.14-0.17,3.29,19.51,14.61,15.45,20.6,2.5-3.69-21.43-20-25.26-21.68a58.18,58.18,0,0,0-7.9-2.68c-0.9-.25-3.78-2.54-4-2.56-2.52-.24-4.3,2.44-7.19,2.14,14.54,2.55,29.48,8.89,38.26,21.31,1.06,1.5,9,14.78,5.78,16.44,1.55-.8-22.6-23.87-24.6-25.19-7-4.59-14.5-7.17-22.9-6.3-1.81.19-15.21,4.32-15.53,3-0.47-1.84,2.93-5,3.91-5.82-6.51,3.65-12,13.27-18.82,15.66,11.1-.84,20-9.95,31.64-10.74,7.92-.54,14.15,1.83,20.68,6.21,15.84,10.62,27.83,27,32.36,45.6,9.56,39.2-39.11,68-71.42,46.24-1.65,4,2.66,7.3,5.8,8.7-6.37,1.12.12,2-1.27,4.36s-4.53,4.8-6.34,7.06c-0.82,1-8.29,9.55-8.13,9.82-0.78-1.35,13.91,4.67,14.88,5.22,10.69,6.05,22.83,6.25,34.63,3.59,10.48-2.36,20.56-9.16,31.21-10.26,4.68-.49,6.87.33,10.56,3.11,0.88,0.66,2.69,5.75,3.85,5.28,3.59-2.35-1.48-13.08-2.44-15.42-1.21-3-3.81-6.34-4.45-9.43-0.92-4.36,7-3.86,0-8.95C-2816.92,3300.68-2845.21,3336-2849.56,3332.84Zm-33.58,13.62c-5.88,1.27-33.15,5.75-36.91-3.56-1.67-4.15,8.07.36,10.26,0.74a58.66,58.66,0,0,0,21.06-.38c8-1.55,17.07-8.93,24.55-9.63,3.71-.35,4.42-1.74,2.34,2.34-3,5.94-15.84,9.32-21.3,10.5h0Zm-38.51-11.28c7.19,3.17,15.42,4,23.18,3.16,8.34-.87,16.06-7.17,23.69-7.91,2.47-.24,4.1-2,3.53,1.28-1.66,9.46-26.85,10.54-32.9,10.2-4.54-.25-11.84-0.68-15.69-3.66C-2920.16,3338-2925.27,3334.67-2921.65,3335.17Zm71.42,19.79c-7.36-2.95-18.38,3.43-25.21,5.79-9.47,3.27-19.95,7-30.09,6.58-6.06-.26-20.88-3.35-23.8-9.46-1.68-3.51,2-9.41,6.12-10.25s11.92,3.71,16.34,4.32a60.47,60.47,0,0,0,25.13-2.19c5.8-1.69,17.29-10.22,23.69-9.28,2.64,0.38,1.4,1.62-.53,3.07,5.27,0.19,11.92,12.85,8.35,11.43h0Z" transform="translate(2966.4 -3218.17)"/></g><g class="cls-50"><g class="cls-53"><path class="cls-49" d="M-2915.79,3337a30.67,30.67,0,0,1,6.62,9A68.72,68.72,0,0,1-2915.79,3337Z" transform="translate(2966.4 -3218.17)"/></g><g class="cls-53"><path class="cls-49" d="M-2909.36,3338.73a18.79,18.79,0,0,1,5.44,7.71A88.74,88.74,0,0,1-2909.36,3338.73Z" transform="translate(2966.4 -3218.17)"/></g><g class="cls-53"><path class="cls-49" d="M-2904.91,3339.46a19.72,19.72,0,0,1,5.08,7.35A48.18,48.18,0,0,1-2904.91,3339.46Z" transform="translate(2966.4 -3218.17)"/></g><g class="cls-53"><path class="cls-49" d="M-2900.29,3339a31.27,31.27,0,0,1,6.08,7.35A31.24,31.24,0,0,1-2900.29,3339Z" transform="translate(2966.4 -3218.17)"/></g><g class="cls-53"><path class="cls-49" d="M-2895.12,3339a18.34,18.34,0,0,1,5.62,7.26A89.84,89.84,0,0,1-2895.12,3339Z" transform="translate(2966.4 -3218.17)"/></g><g class="cls-53"><path class="cls-49" d="M-2917.43,3344.53a20.83,20.83,0,0,1,10.79-5.53A118,118,0,0,0-2917.43,3344.53Z" transform="translate(2966.4 -3218.17)"/></g><g class="cls-53"><path class="cls-49" d="M-2912.8,3346.26a23.61,23.61,0,0,1,9.52-6.8C-2906.48,3341.69-2909.6,3344-2912.8,3346.26Z" transform="translate(2966.4 -3218.17)"/></g><g class="cls-53"><path class="cls-49" d="M-2907.81,3348.34a26.77,26.77,0,0,1,9.43-8C-2901.51,3343-2904.66,3345.69-2907.81,3348.34Z" transform="translate(2966.4 -3218.17)"/></g><g class="cls-53"><path class="cls-49" d="M-2902.28,3348.25a22.19,22.19,0,0,1,11.06-9.88A53.32,53.32,0,0,0-2902.28,3348.25Z" transform="translate(2966.4 -3218.17)"/></g><g class="cls-53"><path class="cls-49" d="M-2895.58,3347.25a23.81,23.81,0,0,1,9.71-9.61A92.71,92.71,0,0,0-2895.58,3347.25Z" transform="translate(2966.4 -3218.17)"/></g></g><g class="cls-18"><path class="cls-47" d="M-2905.09,3223.63c28.87,3.37,57.82,33.6,50.87,64C-2848.11,3257.22-2876.74,3228.2-2905.09,3223.63Z" transform="translate(2966.4 -3218.17)"/><path class="cls-47" d="M-2875.84,3228.77c10.14,6.73,17.22,18.22,18.1,30.4A49.59,49.59,0,0,0-2875.84,3228.77Z" transform="translate(2966.4 -3218.17)"/><path class="cls-47" d="M-2922.05,3338.46c17.79,7.61,38,3.26,54.72-4.9C-2883.47,3342.72-2904.67,3347.09-2922.05,3338.46Z" transform="translate(2966.4 -3218.17)"/><path class="cls-47" d="M-2923.32,3342.81c21.49,16.4,53.6,1.22,73.76-10C-2868.82,3344.74-2902.85,3360.66-2923.32,3342.81Z" transform="translate(2966.4 -3218.17)"/></g><path class="cls-54" d="M-2875.46,3225.84c10.31,5,18.33,14.45,23.17,24.67a66.6,66.6,0,0,1,5.17,16.29c0.88,4.72-.71,14.19,1.4,18.27,2.27,4.39,4.63,4.92,8.94,1.78,15.79-11.49,1-43.09-9.51-52.53-6.13-5.5-14.48-9.88-22.76-10.88C-2870.23,3223.29-2880.92,3222.93-2875.46,3225.84Z" transform="translate(2966.4 -3218.17)"/><path class="cls-54" d="M-2845.46,3294.39c-0.53,4.8-10.23,23.78,1.34,20.2C-2830.1,3310.26-2841.6,3284.91-2845.46,3294.39Z" transform="translate(2966.4 -3218.17)"/><path class="cls-54" d="M-2913.22,3227.89a29.18,29.18,0,0,1,10.2-.11c4.94,0.72,12.94,7,17.2,6.2,2.06-.36-9.62-7.47-10.58-7.8-1.43-.48-18.79-4.48-19.19.67A2,2,0,0,0-2913.22,3227.89Z" transform="translate(2966.4 -3218.17)"/><path class="cls-54" d="M-2910.66,3339.2a42.16,42.16,0,0,0,10.49.4c3.59-.28,14.23-5,16.53-3.41,2.51,1.74-17.23,5.55-17.39,5.55C-2902.86,3341.74-2912.91,3339.11-2910.66,3339.2Z" transform="translate(2966.4 -3218.17)"/><path class="cls-54" d="M-2920,3349.8c6.76,4.23,15.36,4.8,23.11,4.48,6.39-.26,20.83-1.67,9.73,6.35-7.72,5.58-23.76,5.92-31.4.17C-2920.66,3359.2-2927.41,3347-2920,3349.8Z" transform="translate(2966.4 -3218.17)"/><path class="cls-54" d="M-2877.66,3352.68s11.33-5.47,13-2.84S-2882.53,3358.75-2877.66,3352.68Z" transform="translate(2966.4 -3218.17)"/><path class="cls-22" d="M-2907.36,3398.37c11.09,11.46,42.12-16.73,24.59-23.54-5.57-2.16-15.45,1.84-20.27,4.61-7.13,4.1-9,10.62-4.32,18.93C-2903.85,3402-2913.41,3387.73-2907.36,3398.37Z" transform="translate(2966.4 -3218.17)"/><path class="cls-23" d="M-2900.51,3401.19c-10,0-13.14-14.22-6.54-20.45,3.62-3.42,15.47-7.09,20.39-6.83,7,0.37,9,3.89,8.86,9.33-0.06,3.19-2.79,9.5-5.52,11.44S-2897.47,3401.19-2900.51,3401.19Zm-6.56-3c5.9,6,21.16-2.46,25-6.66,1.81-2,4.53-8.92,4.13-10.79-2.72-12.84-40.81-3.31-29.09,17.45C-2905.62,3399.62-2910.09,3392.8-2907.07,3398.15Z" transform="translate(2966.4 -3218.17)"/><path class="cls-23" d="M-2889.77,3385a11.56,11.56,0,0,1,.64,7.08A38.86,38.86,0,0,1-2889.77,3385Z" transform="translate(2966.4 -3218.17)"/><path class="cls-23" d="M-2889.13,3388.34c3-.35,5.86.75,7.1,3.5A12.81,12.81,0,0,0-2889.13,3388.34Z" transform="translate(2966.4 -3218.17)"/><path class="cls-23" d="M-2887.34,3383.93c3.2-.33,6.21.67,7.43,3.62C-2881.74,3385.33-2884.51,3384.46-2887.34,3383.93Z" transform="translate(2966.4 -3218.17)"/><path class="cls-23" d="M-2889.64,3376.7c1.59,1.73,2.48,2.82.4,5C-2888.08,3379.44-2889.19,3378.66-2889.64,3376.7Z" transform="translate(2966.4 -3218.17)"/><path class="cls-23" d="M-2888.3,3378.48c3.62-.54,7.51.13,10,3C-2881.26,3379.46-2884.84,3378.9-2888.3,3378.48Z" transform="translate(2966.4 -3218.17)"/><g class="cls-55"><path class="cls-56" d="M-2914.62,3442.87a80.29,80.29,0,0,1,1-30.47A175,175,0,0,0-2914.62,3442.87Z" transform="translate(2966.4 -3218.17)"/><path class="cls-56" d="M-2910.81,3380.17a29.47,29.47,0,0,1,2-10.33A53.84,53.84,0,0,1-2910.81,3380.17Z" transform="translate(2966.4 -3218.17)"/><path class="cls-56" d="M-2850.3,3412.23a42.19,42.19,0,0,1-7.61,17.42A137.07,137.07,0,0,0-2850.3,3412.23Z" transform="translate(2966.4 -3218.17)"/><path class="cls-56" d="M-2852,3438.39a20.88,20.88,0,0,1,2.66,12.58A76,76,0,0,0-2852,3438.39Z" transform="translate(2966.4 -3218.17)"/></g><g class="cls-55"><path class="cls-8" d="M-2845.45,3362.34c-6.77-19.8-29.76,17.47-32.73,22.88-3.92,7.13-5.27,8.26-13,11.37-4,1.59-12.62,8.85-16.34,1.41-3.64,4.42-9.93,7.14-15.15,9.07,6.8,0,18.38,11.28,24.57,14.25,7.44,3.57,17.59,8.74,25.48,4.14,7.16-4.18,11.45-14.53,14.81-21.53,5-10.48,16.59-29.4,12.39-41.59C-2846,3360.64-2844.61,3364.79-2845.45,3362.34Zm-6.59,22.19c-4.93,10.83-9.92,26.62-18.82,34.67-9.46,8.56-24.56,1.61-33.48-4.82-2.35-1.7-8.61-6.29-6.64-10.07,2.45-4.68,8.75-1.26,12.5-1.83,11.15-1.69,8.26-8.48,13.33,4.27,0.25,0.62,1.66-7.15,1.18-8.63a15.33,15.33,0,0,1,5.26,7.26c0.53-3.16-2.43-6-2.08-8.54s2.68-4.21,4-6.45c5.28-8.79,7.95-20.57,16.78-26.81C-2842.56,3351.3-2847.82,3376.26-2852,3384.53Z" transform="translate(2966.4 -3218.17)"/></g><g class="cls-55"><path class="cls-8" d="M-2906.8,3381c-5.58-3.34-25.74,7.57-33.79,9.58-5.78,1.45-7.52,2.26-13-.09-6.54-2.82-6-4.46-9.34,4.63-1.93,5.25-3.44,11.18-2,16.77,4.69,18.15,27.28.8,37.4-3.38,5.35-2.21,13.91-3.06,17.29-8.05C-2906.47,3395-2912.36,3387.7-2906.8,3381Zm-53,30.68-0.44,1.92c-2,1.93-4.65-17.25,3.47-15.7-1.31-.25-3,13.84-3,13.78C-2959.72,3416.87-2960,3403.21-2959.84,3411.67Zm42.86-12.82c-1.1,3.57-10.68,5.54-13.74,6.92-5.69,2.57-11.93,7.32-18.08,8.59-9.81,2-9.51-5-5.5-12.09,6.56-11.6,20.44-8.94,31.39-13.84,1.51-.68,7.85-5.56,9.7-4.89,2.55,0.93.26,2.2,1.09,4,1.12,2.49,1.69,17.35-4.86,11.26C-2917.7,3401.21-2914.25,3401.39-2917,3398.85Z" transform="translate(2966.4 -3218.17)"/></g><path class="cls-57" d="M-2951.18,3401.42c2.71-6.79,7.86-6.31,14.08-7.37a55.46,55.46,0,0,0,12.1-3.12c3.27-1.38,6.81-5.45,10.42-5.67,0.38,0,.61,9.15,1,8.72-1.56,1.93-2.29,0-3.81.63a23.19,23.19,0,0,0-4.84-1.37c-1.3,0-5.45,1.77-7.07,2.38C-2931.25,3396.34-2951.87,3405.12-2951.18,3401.42Z" transform="translate(2966.4 -3218.17)"/><g class="cls-35"><path class="cls-11" d="M-2849.32,3408.52c1.71-6.31,1-12.1,1.21-18.53,0.18-7.05,2.39-13.41,3.26-20.33-3.32,16.17-11.17,35.45-21.14,48.78-8.06,10.78-15.74,9.88-27.84,4.84-8.63-3.6-20.64-15.51-29.7-16.12-2.46-.17-6.26,2.36-8.34,3.32-9.43,4.35-11,4.51-11,15.14,1.12-7.21,11.45-14.84,18.67-14.42,7.65,0.44,8.46,9,8.72,15.36,5.32-16.68,28.42,7.69,40.93,3.46,6.93-2.34,11.4-18.24,18.11-18.61,7-.39-3.4,17.34-3.68,21.13,0.12-1.67,8.1-11.86,8-5-0.09,10.38-15.15,10.64-21.64,9.74-7.42-1-9.9-.89-17,1.25-5.84,1.77-22.56,6.36-24.6-2.91-3.87,5.44-25.15,3.77-27.37-2.88,0.72,10.15,16.7,7.4,23.31,8.88,15.42,3.47,27.58-1.92,42.1-1.57,9.54,0.23,21.27,1.44,27.66-7.46,5.77-8-2.35-14.55.21-24h0Z" transform="translate(2966.4 -3218.17)"/></g><path class="cls-58" d="M-2941,3427.66c-0.39-5.23,12.44-17.5,15-12.12,0.81,1.67-4.06,6-4.7,8.1-1.16,3.87,2.23,8.57,1.31,11.65C-2930.89,3440.59-2940.79,3430.48-2941,3427.66Z" transform="translate(2966.4 -3218.17)"/><path class="cls-58" d="M-2913,3426.49c-1.17,5.56-1.09,10.26,4.44,12.36,3.68,1.4,16.78.13,18.79-4.31-0.32.7-11.69-1.22-12.76-2S-2912.11,3417-2913,3426.49Z" transform="translate(2966.4 -3218.17)"/><g class="cls-35"><path class="cls-11" d="M-2849.08,3435.37c-21.47,21-61.9,29.77-87.3,10.09-2.67,4.35-5.79,8.76-7.93,13.38-3.25,7-1,6.8,5.65,10.45a78.83,78.83,0,0,0,43.2,9.74c14.35-.92,28.8-5.17,40.34-14,4.4-3.36,11.62-9.11,13.52-14.52,2-5.67,1.24-5.18-3-10.21C-2846.05,3438.63-2847.55,3437-2849.08,3435.37Zm-21,35.94c-0.06-.43-1-8.52-2.51-9.26-0.28-.13.29,8.58-0.93,9.13-2.19,1-2.63-5.31-3.77-5.68-0.92-.3-1.07,7-1.61,7.61-1.3,1.55-4.68,1.8-6.51,2.24-8.78,2.13-18.87,1.72-27.72.51-7.92-1.08-21.73-3.51-26.88-10.6-3.12-4.3-2.45-2.24-.18-7,0.25-.53,5.23-8,6.49-7a8.49,8.49,0,0,1,.45,3.15c-0.3-.62,5.18-1.5,6.65.47s-1.24,6,0,7.85c-0.15-.22,3-5.5,3.69-5.91,1.79-1.05,3.34.22,5.23,0.12,8.86-.47,17.71,1.38,26.68.58,11.57-1,20.24-5.2,30.46-10.37,2.95-1.49,4.69-4.16,8.19-2.09,3.23,1.91.36,8.55,2.52,10.13,0.1,0.07,1.3-13.13,1.45-13.16,3.16-.55,4.95,4.21,4.94,6.7,0,10-19.79,19.43-26.6,22.6C-2871.45,3462.33-2848.24,3461.11-2870.1,3471.31Z" transform="translate(2966.4 -3218.17)"/></g><g class="cls-5"><path class="cls-11" d="M-2923.87,3452l-5.46,14.09c-3.5,9,.33,8.43,9.93,10.91l6.29-22.25A66.21,66.21,0,0,1-2923.87,3452Z" transform="translate(2966.4 -3218.17)"/><path class="cls-11" d="M-2889.18,3455.2c1.74,7.21,1.9,27.94,13,20.4,5.06-3.42,2.47-5.14.32-11.81C-2879.34,3452.83-2877.37,3453.7-2889.18,3455.2Z" transform="translate(2966.4 -3218.17)"/></g><g class="cls-35"><path class="cls-8" d="M-2839.44,3447c-21.16,37.84-75.08,40.39-107.73,17-3.5,6.53,2.39,4.34,7.87,6.92a109.25,109.25,0,0,0,19.9,7.63,81.56,81.56,0,0,0,30.72,2c2.67-.36,21.23-3.63,21.59-5.86-0.5,3.06-11.48,5.65-13.55,6.21a72.24,72.24,0,0,1-13.58,2.23c-5.45.39-13.31-1.87-18.37-.35,13.78,2.27,28.2,1.56,41.34-3.41,9.21-3.48,39.42-21.32,31.82-32.35C-2852.53,3470.36-2838.54,3448.26-2839.44,3447Z" transform="translate(2966.4 -3218.17)"/></g><path class="cls-57" d="M-2870.82,3390.4c1.72-5.43,14.4-37.3,22.19-25.37,4.65,7.1-8,25.06-12.16,30C-2868.16,3403.79-2874.66,3402.44-2870.82,3390.4Z" transform="translate(2966.4 -3218.17)"/><path class="cls-57" d="M-2878.16,3416.8c0-1.24-.71-15-3.88-13.4-1.81.89-.23,5.25-2.32,6.23-4.46,2.09-2.85-3.84-4.7-4.74-4.89-2.38,1.14-1.74-6.75-.06-1,.21-10.67.74-10.79,1C-2909.34,3411.43-2878.28,3426.8-2878.16,3416.8Z" transform="translate(2966.4 -3218.17)"/><path class="cls-57" d="M-2876.8,3401.25c0.91,3.41-.14,12.56,1.79,15-0.46-.58,7.09-13.94-1.05-16.82Q-2877.47,3399.62-2876.8,3401.25Z" transform="translate(2966.4 -3218.17)"/><path class="cls-58" d="M-2938.61,3458.51c0.45-.88,2.55-4,3.77-3.7,0.6,0.16,1.25,1.46,2.29,1.74,4.74,1.31-.7-1.74,4,1.41,3.89,2.6-1.2,4.1,3.42,4.91,0.5,0.09,3.2-3.25,4.2-3.51,6.88-1.76,24.14-1.51,26.5,6.58C-2888.31,3486.91-2946.78,3468.83-2938.61,3458.51Z" transform="translate(2966.4 -3218.17)"/><path class="cls-22" d="M-2934.93,3385.19c-0.86-5.48-2.66-13.3-7.47-16.69-3.53-2.48-7.2-2.32-10.76-1-1.29.49-8.49,5.94-9.34,7-1.84,2.28-3.69,9.88-2.43,12.83,3,7.1,2.05-.87,4.74-0.12s6.76,4.48,9.79,4.89C-2945,3392.83-2941.67,3385.34-2934.93,3385.19Z" transform="translate(2966.4 -3218.17)"/><path class="cls-23" d="M-2948.62,3392.69c-4-.44-6.16-5.19-9.65-5.11-1.73,0-3.65,3.82-5.1,3.29-7.76-2.85,1.49-16.85,4.27-19.31,12.76-11.26,22.42-.77,24.58,14C-2941.4,3385.54-2943.49,3392.69-2948.62,3392.69Zm-11.65-6.32c4.35,0.13,4.35,3.31,8,4.36,7.66,2.2,8.47-5.47,16.94-5.9-1-6.16-3-14.2-9.21-17.06s-8.62.88-12.76,4c-3.74,2.82-5.26,3.72-6.65,8.68C-2965.11,3384.51-2964,3395.38-2960.27,3386.37Z" transform="translate(2966.4 -3218.17)"/><path class="cls-23" d="M-2964.67,3381.81c1.79-4.79,6.56-2.2,10.61-.73C-2958.65,3380.59-2962,3378-2964.67,3381.81Z" transform="translate(2966.4 -3218.17)"/><path class="cls-23" d="M-2960.41,3373.82a15,15,0,0,1,8.25,2.18C-2954.94,3375.38-2957.69,3374.67-2960.41,3373.82Z" transform="translate(2966.4 -3218.17)"/><path class="cls-23" d="M-2955.94,3371.05a17,17,0,0,1,8.23,2A54,54,0,0,1-2955.94,3371.05Z" transform="translate(2966.4 -3218.17)"/><g class="cls-18"><path class="cls-25" d="M-2962.2,3373.84c-2.18,2.38,3,.11,0,0C-2962.51,3374.18-2961.79,3373.86-2962.2,3373.84Z" transform="translate(2966.4 -3218.17)"/><path class="cls-25" d="M-2957,3373.35c-5.13-1.22-.66,0-4,0.57a36.67,36.67,0,0,1,9.68,2.3,12.26,12.26,0,0,0-5.72-2.87h0Z" transform="translate(2966.4 -3218.17)"/><path class="cls-25" d="M-2952.93,3368.17l2.58-1.93c-2.65.13-4.36,2.76-5.56,4.75q4.54,1.06,9.06,2.18c-0.31-.22-7-3.24-6.09-5C-2952.39,3367.18-2953.85,3369.94-2952.93,3368.17Z" transform="translate(2966.4 -3218.17)"/><path class="cls-25" d="M-2938.68,3373.14c1.71,4.19,3,7.88-.06,11.2,0.33-.36-8.64,5-8.56,5-3.39.22-9.57-3.06-13.57-4.68,0.07,1.29-1.53,5.77-3.78,4.35,1.33,4.73,3.49-1.33,4.29-1.33,1.59,0,3.35.79,5.6,1.53,4.22,1.38,4.14,3.24,8.66,1.84,4.11-1.27,5.44-5.68,11.17-5.81a38.65,38.65,0,0,0-3.75-12C-2936.78,3377.81-2935.89,3378.39-2938.68,3373.14Z" transform="translate(2966.4 -3218.17)"/><path class="cls-25" d="M-2954.46,3380.9c-1.33-1.61-9.37-4.42-8.55-6a6.29,6.29,0,0,0-1.36,5.22c2.76-2,7.18,0,9.91.75C-2955.92,3379.13-2958.31,3379.87-2954.46,3380.9Z" transform="translate(2966.4 -3218.17)"/></g><path class="cls-27" d="M-2949.89,3366.78s4.49,0.68,6.37,2S-2953.65,3367.26-2949.89,3366.78Z" transform="translate(2966.4 -3218.17)"/><path class="cls-27" d="M-2955.69,3371.68s6.16,0.89,7.06,1.74S-2959.43,3371.73-2955.69,3371.68Z" transform="translate(2966.4 -3218.17)"/><path class="cls-27" d="M-2960,3374.48s4.83,0.91,6.83,2S-2963.35,3374.6-2960,3374.48Z" transform="translate(2966.4 -3218.17)"/><path class="cls-27" d="M-2962.62,3380.16c1.82,0.27,6.68,2.17,7.94,1.9C-2957.11,3382.59-2961.68,3380.07-2962.62,3380.16Z" transform="translate(2966.4 -3218.17)"/><g class="cls-18"><path class="cls-25" d="M-2887.41,3377.85a4.24,4.24,0,0,0-2.55-1.55q2.61,2.77.54,5.79c1.79-3,7-4.35,9.58-.71,4,5.64-6.46,1.52-8.17,2.32,1.13-.91,10.16,4.49,6.77,6.15-4,1.94-7.14-4.34-8.58-5.55,0,0.46.83,7.5,0.72,7.81,1.19-3.23,6.82-3.53,5.88.35,0,0.08-10.86,3.66-12.44,4.05-13,3.26-18.2-11.17-6.42-17.45-11.73,4.69-9.48,25.41,5,21.24,9.28-2.68,19.86-9.6,19.68-19.88C-2880.9,3380.12-2883.57,3377.59-2887.41,3377.85Z" transform="translate(2966.4 -3218.17)"/></g><path class="cls-27" d="M-2888.25,3375.73c3.68-.77,5.65,1.24,8.66,2.71C-2884.14,3376.21-2885.91,3375.38-2888.25,3375.73Z" transform="translate(2966.4 -3218.17)"/><path class="cls-27" d="M-2886.78,3380.35c1.34,0,7.44,2.61,7.57,2.49C-2876.78,3380.72-2888.95,3379.33-2886.78,3380.35Z" transform="translate(2966.4 -3218.17)"/><path class="cls-27" d="M-2888.06,3385.44c0.77,0.07,6.65,2.29,6.73,2.21C-2879.17,3385.77-2890,3384.53-2888.06,3385.44Z" transform="translate(2966.4 -3218.17)"/><path class="cls-59" d="M-2936.86,3419.17c-4.11,4-3.09,10.39-1.93,15.48C-2941.07,3429.86-2942.07,3422.41-2936.86,3419.17Z" transform="translate(2966.4 -3218.17)"/><path class="cls-59" d="M-2912.68,3425.45c-2.09,12.19,5.09,14.54,15.72,12.58C-2907.12,3441.12-2916.53,3437.56-2912.68,3425.45Z" transform="translate(2966.4 -3218.17)"/><path class="cls-59" d="M-2928.16,3370.8c-3.88,6.46-2.8,15,6.77,10.16C-2930.77,3387-2933.91,3377.45-2928.16,3370.8Z" transform="translate(2966.4 -3218.17)"/><path class="cls-59" d="M-2934.69,3454.48c-5.21,8-6,7.93,3.14,13.54C-2941.45,3464-2941.11,3461.53-2934.69,3454.48Z" transform="translate(2966.4 -3218.17)"/><path class="cls-27" d="M-2895,3377.4s-5.9,1.4-8.68,3.28S-2890.6,3376.75-2895,3377.4Z" transform="translate(2966.4 -3218.17)"/><g class="cls-35"><path class="cls-19" d="M-2866,3356.3a29.6,29.6,0,0,0-9.17,11.93c1.24-1.84,6-6.85,8.16-4.8,1,1-7.58,13.15-9,13.63q-1.73-1.24-.48-3.63c-0.76,0-1.67,8.14-1.51,9.07,8.34-7.8,14.35-29.07,29.67-24.38-4.7-4.05-12.17-3.45-17.68-1.81C-2869.36,3358.91-2858.6,3354.1-2866,3356.3Z" transform="translate(2966.4 -3218.17)"/></g><g class="cls-35"><path class="cls-19" d="M-2929.39,3359c-2.73,2.51-4,5.79-5.13,9.55,0.62-1.93,3.31-6.56,5.62-4.81,1.54,1.16-4.25,11.93-6,13.54-0.82.75-.82-3.26-0.85-3.3-0.63,4,.06,6.83.74,10.77,1.37-8.4,5.35-16.93,12.57-21.82A61.68,61.68,0,0,1-2929.39,3359Z" transform="translate(2966.4 -3218.17)"/></g><path class="cls-60" d="M-2952.22,3599.57l-0.91-3.38c-7.18,17.63,57.26,14.44,65.75-3.86-8.86,7.66-21.92,11.05-33.35,11.76-6.47.4-27.35,2.58-31.49-4.52h0Z" transform="translate(2966.4 -3218.17)"/><path class="cls-61" d="M-2928.85,3609c-10.29,0-31.13.1-23.83-15.41-1.3,12.57,20.61,10.18,28.17,10,13.75-.33,28.28-3.79,38.69-13.35C-2891.89,3606.07-2914.32,3609-2928.85,3609Zm-24.39-10.39c-3.19,18.67,56.52,6.1,63.94-4.11-10.26,7.31-23.34,10-35.69,10.18-6.29.09-25.47,2.1-28.25-6.06C-2953.35,3599.26-2953.09,3599.06-2953.24,3598.63Z" transform="translate(2966.4 -3218.17)"/><path class="cls-60" d="M-2888.14,3571.33c-4.26-14.34-9.13-28.56-14.69-42.44-5.78-14.42-4.32-7.53-10.2,1.84-3.29,5.25-8.37,12-14.56,14-5,1.56-9.45-2-8.43,3.79,0.73,4.11,8.05,9,9.89,13,2.57,5.55.58,9.38,5.26,14.24-5.28.13-4.83,4.08-9.45,7.12-5.21,3.43-11.26,4.4-16.47,7.49-13.4,7.95-.4,12.76,8.8,13.52,12.87,1.06,25.9.53,38-4.31,14.42-5.76,16.19-13.54,11.84-28.17h0Z" transform="translate(2966.4 -3218.17)"/><path class="cls-61" d="M-2922.48,3604.71c-6.12,0-32,2.73-31.16-8.72,0.47-6.32,14.39-8.72,18.44-10.84,4.95-2.59,9.16-9.64,13.14-9.95-2.77-3.2-1.57-5.18-2.57-8.06a40.8,40.8,0,0,0-6.71-11.8c-1.49-2-7.71-7.68-5.5-10.32,1.48-1.77,2.72.87,4.5,0.08,9.22-4.06,15.76-7.93,20.64-17.7,1.9-3.81,1.18-9.25,5.37-7.5s8,19.37,9.55,23.54c4,11.08,8.79,22.71,10.75,34.36C-2882.5,3598.76-2904.63,3604.71-2922.48,3604.71Zm-30.11-8.42c0.82,16.15,63,7.71,66.11-9.68,1.33-7.45-20.72-67-21.52-66.5-0.22,6.58-6.29,14.38-10.61,18.7-2.64,2.64-5.35,5.29-9,6.4-1.92.58-8.76,0.11-8.83,1.47-0.28,4.26,11.31,14.82,12.8,19.44s-0.6,5.67,4,10.09c-1.34-.14-4.84-0.34-5.25.92a3.91,3.91,0,0,0,1.27,1.28,68.3,68.3,0,0,1-13.72,8.93c-5.13,2.4-12.77,3-15.26,9C-2952.52,3597.43-2951.28,3593.17-2952.58,3596.29Z" transform="translate(2966.4 -3218.17)"/><path class="cls-61" d="M-2920.87,3575.69c4.44-1.14,10.08-.81,13.27,2.84C-2911.56,3576.18-2916.4,3576-2920.87,3575.69Z" transform="translate(2966.4 -3218.17)"/><path class="cls-61" d="M-2924.5,3578.41c2.24-.86,3.92-0.92,5.53,1.21C-2920.78,3579.05-2922.7,3578.93-2924.5,3578.41Z" transform="translate(2966.4 -3218.17)"/><g class="cls-5"><path class="cls-60" d="M-2888.14,3571.33c-4.26-14.34-9.14-28.55-14.69-42.44-6.26-15.65-4.74-6.14-11.3,3.44-4.37,6.38-9.28,11-16.75,13.21-5.36,1.57-6.32-2.66-4.34,3.79,1.72,5.62,8.95,9.68,10.92,15.51,1.22,3.6-1.86,11,5.33,10.66-2.48-4.68-2.15-4.39-1.68-8.48,0.23-2,2.67-2.33,2.28-4.88-0.35-2.34-3.59-3.72-5.15-5.14-12.27-11.17-.25-5.69,7.55-13.21,6.94-6.69,6.62-14.19,12.85-.47,2.38,5.24,5.7,11.92,6.07,17.75,0.57,9.18-1.38,3.87-5.73,8.53-0.55.59,5.41,5.21,5.88,7.14,0.6,2.43-2.43,7.29-3.42,9.07-3.83,6.91-8.36,11-16,13.18-7.87,2.2-20.15,3.14-27.58-.38-4-1.92-8.32-5.16-2.71-8.41-9.06,4.07-9.5,13-.29,16.34,8.63,3.12,20.21,2.34,29.12,1.17,21.86-2.87,36.56-13.13,29.65-36.39h0Z" transform="translate(2966.4 -3218.17)"/></g><path class="cls-62" d="M-2924,3552.65c1.91,2.4,6.75,4.91,8,7.26,2.09,4-.91,4.53-0.92,8.68,0,5,4.07,10.75,8.25,6.24s-1.09-20.76-5.14-24.1c-2.73-2.26-1.15-2.12-4.22-2.26-0.11,0-7.36,3.59-7.37,3.12Z" transform="translate(2966.4 -3218.17)"/><path class="cls-62" d="M-2919.33,3578c3.94,0.1,8.09,3.9,11.5,3.73,1.83-.09-4.8-4.54-6.43-4.81C-2915.41,3576.71-2921.51,3577.54-2919.33,3578Z" transform="translate(2966.4 -3218.17)"/><path class="cls-62" d="M-2923.2,3580.56c-3.88,6.06-30.85,9.23-17.87,15.44C-2929.05,3601.76-2897.22,3580.86-2923.2,3580.56Z" transform="translate(2966.4 -3218.17)"/><path class="cls-63" d="M-2922.11,3552.89c2.91,3,8.2,5.34,8.94,9.47,0.67,3.75-2.77,8.35-1.93,12.78-1.49-4.77,2-8.75,1.22-12.91C-2914.54,3558.6-2919.81,3555.88-2922.11,3552.89Z" transform="translate(2966.4 -3218.17)"/><path class="cls-63" d="M-2930.33,3584.58c-4.1,2.72-21.2,6-17.64,11.78,4.3,7,21.92,4.06,28.52,2.72-6.71,1.78-23,4.81-27.95-1.45C-2953.76,3589.66-2935.91,3587.75-2930.33,3584.58Z" transform="translate(2966.4 -3218.17)"/><path class="cls-60" d="M-2862.14,3611.18c-4.09,7.18-15.83,7-22.83,7.36-8.54.4-26.14,3.14-32.87-3.9-3.73,13.94,32.11,10,38,9,6.61-1.11,12.08-3.15,16.94-7.77,2.25-2.14,3.79-4.77,6.28-6.56,4-2.89,6.85-.65,7.39-7.49-4,3.65-10,4.33-12.86,9.37h0Z" transform="translate(2966.4 -3218.17)"/><path class="cls-61" d="M-2892.85,3625c-6.51,0-29.82,1.27-25.27-11.46,8.14,8.57,31.88,5.34,42.13,3.67,5.31-.87,8.62-2.05,12.7-5.29,4.5-3.57,10.42-7.41,14.66-11.45,0.16,7.23-9.15,11.1-14,15.86C-2870.66,3624.12-2882.19,3625-2892.85,3625Zm-24.65-9.34c-2.29,12.93,37,8,42.85,6.26,5.37-1.63,8.61-4,12.49-7.81,3.37-3.34,11.59-6.43,12.21-11.07-8.47,6-15.31,13.65-25.92,15.33s-32.51,4.45-41.63-2.71C-2917.51,3615.72-2914.62,3617.93-2917.5,3615.67Z" transform="translate(2966.4 -3218.17)"/><path class="cls-60" d="M-2851.14,3578.41c-0.27-1.35,2.14-3.44,2-5.26-0.17-3-3.55-4-4.15-6.58-1-4.35.94-11.43,1.3-15.8,0.38-4.58,4.92-26.1-3.36-25,8.6,11.86-36.79,16.54-35.73,2-7.57,1.39-1.89,10.14-1.22,14.75,1.29,8.91-.93,17.86-1.16,26.13-0.1,3.52,1.16,6.21,1.12,10.44,0,1.3-2,3.14-2.18,4.78-0.15,1.32,1.71,2.82,1.46,4.27-1.75,10.48-13.43,14.63-20.23,20.83-9.12,8.32,2.44,9.06,10.3,9.55,10,0.63,22.66,1.41,32.33-1.79,6.49-2.15,11-7.7,16.18-11.83,4.88-3.85,5.4-3.92,5.44-10.38,0-5.23.27-11.35-2.13-16.16C-2851.32,3577.5-2848.42,3583.85-2851.14,3578.41Z" transform="translate(2966.4 -3218.17)"/><path class="cls-61" d="M-2894.33,3619.25c-6,0-25.51,1.67-22.86-7.26,1.36-4.58,11.69-8.49,15-11.46,5.85-5.28,6.35-8.87,7.77-15.11,0-.08,1.63-7.06,1.64-6.55,0-2.75-2.33-5.49-2.18-7.49,0.35-4.59,2.47-8.41,2.4-13.94-0.08-7.56-1.37-14.48-2-21.73-0.36-3.94-1.88-8,4-8.52-1.17,13.85,43.23,10.87,34.53-1.71,9.87-3,4.93,22,4.52,26.84-0.33,3.88-2,10-1.15,13.84,0.58,2.63,3.39,4,4.11,6.91,0.5,2-2.14,3.72-2,5.24,0.49,6.33,4.2,13.58,2,20.16-2,5.88-2.38,3.85-8.25,8.39-4.27,3.29-6.58,7.66-11.69,9.84C-2876.19,3620-2886.28,3619.25-2894.33,3619.25Zm-22.9-4.78c8.34,7.78,37.24,5.48,47.47,1.49,5.68-2.22,7.62-6.43,12.36-10,6.78-5.15,8-4.5,7.87-13.8-0.08-4.66-1.85-9.08-2.1-13.48-0.06-1.07,1.7-2.54,1.6-3.37-0.74-6-3.69-8.77-3.28-15.47,0.3-4.92,5.21-34.47-1.25-33.59,5.53,14.16-35,15-36.94,2.26-5.63,1.6-.08,19.05,0,24,0.17,7.13-1.44,14.74-1.48,20.27a6.91,6.91,0,0,1,1.92,3.91,15,15,0,0,1-2.8,6.19c-0.91,4.89,1.69,5.77-1.06,11-4.71,8.89-19.44,11.7-22.35,20.68C-2915.46,3616.13-2916.24,3611.4-2917.23,3614.48Z" transform="translate(2966.4 -3218.17)"/><path class="cls-61" d="M-2894.12,3585.11c7.07-3.84,16.05-2.56,22.67,1.63C-2878.75,3584-2886.53,3582.83-2894.12,3585.11Z" transform="translate(2966.4 -3218.17)"/><path class="cls-61" d="M-2891.59,3575.69c1.3,1.58,2.64,2.54,3.09,4.72C-2890.31,3579.12-2890.66,3577.51-2891.59,3575.69Z" transform="translate(2966.4 -3218.17)"/><path class="cls-61" d="M-2854.77,3574.05c5.11,2.53,5.09,9.63,3.63,14.39C-2851.08,3583.61-2850.95,3577.61-2854.77,3574.05Z" transform="translate(2966.4 -3218.17)"/><g class="cls-5"><path class="cls-60" d="M-2851.14,3578.41c-0.27-1.35,2.14-3.44,2-5.26-0.17-3-3.55-4-4.15-6.58-1-4.35.94-11.43,1.3-15.8,0.38-4.58,4.92-26.1-3.36-25,8.6,11.86-36.79,16.54-35.73,2-7.66,1.36-1.31,13.26-1,18.27s1.15,12.57.23,17.5c-0.57,3.05-2.31,5.58-2.48,8.3q3.2,2.16,2.21,5.38a3.64,3.64,0,0,1-1,3.09c0,1-.13,5.13-0.3,6.23-0.78,5.13-2.32,8.12-6.21,12.2-4.41,4.61-20.24,10.69-18.43,18.74,3,13.38,41.78,7.23,50,2.38a30,30,0,0,0,6.16-5.26c2.87-2.92,5.63-3.77,8.21-5.94,6.76-5.69,6.57-22.22,2.54-30.28C-2851.32,3577.5-2848.42,3583.85-2851.14,3578.41Zm-2.54,10.88c-0.65,6.18-11.25,19.82-17,22.95-7,3.8-29.71,7.35-36.35,2.28-7.3-5.58,9.81-12.88,13.43-17.92,2.26-3.15,2.83-7.43,6.13-9.38,2.59-1.53,18.79-.28,18.77,1,0.06-4.26-14.06-5.4-15.78-6.68-3.1-2.31-4.15-8.46-4.39-10.87a4.88,4.88,0,0,0,2.73-2.82,10.52,10.52,0,0,0-1.54-4.31c-0.36-3-1.75-6-2.05-9.2-0.54-5.57-1.09-11.68,4.44-13.75,2.48-.93,10.17,1.62,12.95,1.47,5.9-.3,14.31-5,15.59,1.92,0.3,1.63-2.74,5.51-2.93,7.68-0.24,2.77,1.78,6.89,2.41,9.6,0.33,1.41,2.69,6.52,1.66,8.1-0.79,1.21-5.91,2.28-6.2,1.48,0.73,2,4.41,3.69,5.71,5.7,2.34,3.6,2.89,8.58,2.45,12.76h0Z" transform="translate(2966.4 -3218.17)"/></g><path class="cls-62" d="M-2880.88,3547.58c-9.67.71-1.32,10.56-1.22,15.14,0.14,7-4.31,10.18,1.69,17,2.68,3,14.18,9.87,16.78,4.77,2.34-4.58-11.07-16.94-12-16.59,2.39-.91,5.48,3.45,7.61,2.65,3.29-1.23-.25-9.39-0.73-11.36C-2870.7,3551-2871,3545-2880.88,3547.58Z" transform="translate(2966.4 -3218.17)"/><path class="cls-62" d="M-2879.07,3588.2c-7.41-1.8-5,4.94-8.48,9-4.53,5.26-25.77,13.2-7,15.92,8.9,1.29,18.9-1.93,23.73-9.91S-2869.73,3589-2879.07,3588.2Z" transform="translate(2966.4 -3218.17)"/><path class="cls-63" d="M-2886.1,3551.86c1.65,2.57,3.56,5.94,4,9,0.57,4.46-2.1,6.82-1.83,10.87,0.51,7.46,8.45,11.19,14.27,13.84-5.8-2.13-13.76-5.62-14.64-12.75-0.41-3.34,1.65-5.16,1.93-8.38C-2882,3560.18-2884.14,3555.51-2886.1,3551.86Z" transform="translate(2966.4 -3218.17)"/><path class="cls-63" d="M-2879.07,3588.2c-7.83-1.82-4.76,3.7-7.23,7.85-2.77,4.66-19.85,8.81-19.66,14.49,0.22,6.73,25,4.53,30.57,1.73-5.87,3.28-31.56,5.89-31.21-1.95,0.27-6.06,15.52-9.43,18.89-13.72C-2884.46,3592.48-2886.92,3586.17-2879.07,3588.2Z" transform="translate(2966.4 -3218.17)"/></g></g></svg>