<svg xmlns="http://www.w3.org/2000/svg" xmlns:xlink="http://www.w3.org/1999/xlink" viewBox="0 0 177.61 393.78"><defs><style>.cls-1{isolation:isolate;}.cls-2,.cls-57,.cls-9{fill:#f5bc92;}.cls-3{fill:#9b4d05;}.cls-4,.cls-8{fill:#f7c7a2;}.cls-11,.cls-4,.cls-7{opacity:0.8;}.cls-11,.cls-13,.cls-16,.cls-18,.cls-26,.cls-4,.cls-42,.cls-51,.cls-53,.cls-54,.cls-62,.cls-63,.cls-69,.cls-7{mix-blend-mode:multiply;}.cls-5{fill:#f4d3c1;}.cls-32,.cls-6{fill:#fff;}.cls-16,.cls-19,.cls-26,.cls-32,.cls-58,.cls-61,.cls-9{opacity:0.5;}.cls-19,.cls-30,.cls-45,.cls-46,.cls-49,.cls-50,.cls-55,.cls-57,.cls-58,.cls-61,.cls-9{mix-blend-mode:screen;}.cls-10{fill:none;}.cls-11,.cls-12,.cls-13{fill:#e09f73;}.cls-14{fill:#7098a0;}.cls-15,.cls-19{fill:#306970;}.cls-17{fill:#5a7892;}.cls-20{fill:#f9fbee;}.cls-21{fill:#9c9e88;}.cls-22{fill:#d32323;}.cls-23{fill:#c1b9aa;}.cls-24,.cls-26,.cls-58{fill:#3d180e;}.cls-25{fill:#1e0904;}.cls-27,.cls-30{fill:#932323;}.cls-28{fill:#431303;}.cls-29{fill:#661303;}.cls-31{fill:#bc2323;}.cls-33{fill:url(#radial-gradient);}.cls-34{fill:url(#radial-gradient-2);}.cls-35{fill:#b26118;}.cls-36{fill:url(#radial-gradient-3);}.cls-37{fill:url(#radial-gradient-4);}.cls-38,.cls-55{fill:#4c332c;}.cls-39{fill:url(#linear-gradient);}.cls-40{fill:#eed8c7;}.cls-41{fill:url(#radial-gradient-5);}.cls-42{opacity:0.7;}.cls-43{fill:url(#linear-gradient-2);}.cls-44{fill:#59dea1;}.cls-45{fill:url(#radial-gradient-6);}.cls-46{fill:url(#radial-gradient-7);}.cls-47{fill:url(#radial-gradient-8);}.cls-48{fill:url(#linear-gradient-3);}.cls-49{fill:url(#radial-gradient-9);}.cls-50{fill:url(#radial-gradient-10);}.cls-51,.cls-62{opacity:0.4;}.cls-52{fill:#a11412;}.cls-53,.cls-54,.cls-63{opacity:0.6;}.cls-53{fill:url(#radial-gradient-11);}.cls-54{fill:url(#radial-gradient-12);}.cls-56{fill:#a50c0c;}.cls-57{opacity:0.3;}.cls-59,.cls-61,.cls-62{fill:#714023;}.cls-60{fill:#4f2510;}.cls-64{fill:#714125;}.cls-65{fill:#f0c740;}.cls-66{fill:#9c5313;}.cls-67,.cls-69{fill:#dc9d2d;}.cls-68{fill:#f7e3a1;}</style><radialGradient id="radial-gradient" cx="-3008.19" cy="2070.85" r="19.26" gradientTransform="matrix(1.09, -0.22, 0.2, 0.98, -39.28, 179.97)" gradientUnits="userSpaceOnUse"><stop offset="0.33" stop-color="#fff"/><stop offset="1" stop-color="#dfb798"/></radialGradient><radialGradient id="radial-gradient-2" cx="-3091.59" cy="2029.73" r="20.07" gradientTransform="matrix(1.07, -0.22, 0.21, 0.98, -32.23, 189.69)" xlink:href="#radial-gradient"/><radialGradient id="radial-gradient-3" cx="4600.12" cy="2805.64" r="17.73" gradientTransform="matrix(-0.99, 0.01, 0.02, 1, 1553.8, 4.46)" xlink:href="#radial-gradient"/><radialGradient id="radial-gradient-4" cx="4658.44" cy="2840.54" r="17.89" gradientTransform="matrix(-0.97, 0, 0.01, 1, 1550.27, 15.42)" xlink:href="#radial-gradient"/><linearGradient id="linear-gradient" x1="-2924.02" y1="2902.77" x2="-2906.97" y2="2902.77" gradientUnits="userSpaceOnUse"><stop offset="0.07" stop-color="#eed8c7"/><stop offset="0.46" stop-color="#fff"/><stop offset="1" stop-color="#dfb798"/></linearGradient><radialGradient id="radial-gradient-5" cx="-3110.32" cy="2038.75" r="13.49" gradientTransform="matrix(1.08, -0.23, 0.2, 0.98, 30.4, 175.04)" gradientUnits="userSpaceOnUse"><stop offset="0" stop-color="#59dea1"/><stop offset="0.22" stop-color="#00bdd3"/><stop offset="0.99" stop-color="#434763"/></radialGradient><linearGradient id="linear-gradient-2" x1="-3448.65" y1="2038.89" x2="-3434.04" y2="2038.89" gradientTransform="matrix(0.98, -0.2, 0.2, 0.98, 44.65, 171.5)" gradientUnits="userSpaceOnUse"><stop offset="0.01" stop-color="#434763"/><stop offset="0.78" stop-color="#00bdd3"/><stop offset="1" stop-color="#59dea1"/></linearGradient><radialGradient id="radial-gradient-6" cx="-3407.67" cy="2086.07" r="43.22" gradientTransform="matrix(0.98, -0.19, 0.19, 0.98, 43.52, 170.8)" xlink:href="#radial-gradient-5"/><radialGradient id="radial-gradient-7" cx="-3982.01" cy="310.15" r="40.33" gradientTransform="translate(73.45 211.01) rotate(-37.28)" xlink:href="#radial-gradient-5"/><radialGradient id="radial-gradient-8" cx="-2744.82" cy="2739.28" r="12.46" gradientTransform="matrix(1.1, -0.03, 0.03, 1, -10.88, 39.87)" xlink:href="#radial-gradient-5"/><linearGradient id="linear-gradient-3" x1="-3045.33" y1="2738.76" x2="-3031.83" y2="2738.76" gradientTransform="translate(3.82 39.96) rotate(-1.81)" xlink:href="#linear-gradient-2"/><radialGradient id="radial-gradient-9" cx="-2995.89" cy="2781.16" r="39.95" gradientTransform="translate(3.09 38.13) rotate(-1)" xlink:href="#radial-gradient-5"/><radialGradient id="radial-gradient-10" cx="-3920.48" cy="1115.58" r="37.31" gradientTransform="matrix(0.89, -0.46, 0.46, 0.89, 25.85, 82.9)" xlink:href="#radial-gradient-5"/><radialGradient id="radial-gradient-11" cx="-5150.38" cy="2366.29" r="12.77" gradientTransform="translate(1932.92 -78.96) rotate(-6.86)" gradientUnits="userSpaceOnUse"><stop offset="0.44" stop-color="#f58f92"/><stop offset="0.99" stop-color="#fff"/></radialGradient><radialGradient id="radial-gradient-12" cx="4243.03" cy="3215.44" r="12.42" gradientTransform="matrix(-1, -0.09, -0.09, 1, 1565.19, 71.13)" xlink:href="#radial-gradient-11"/></defs><title>pirate_03</title><g class="cls-1"><g id="Layer_1" data-name="Layer 1"><path class="cls-2" d="M-2902.77,3088.13c9.33,23.06,24.34,47.23,21.37,72.24-0.31,2.63.19,5.8-.18,8.33-0.26,1.75-2.59,1.78-2.44,4.36,0.53,9.31,10.85,6.88,16.82,6.13,3.3-.42,11.63-1.32,14-2.71,4.9-2.88,3.71-3.33,1.34-8-5.68-11.08-16.89-15.89-20.14-27.44-3.13-11.12-3.14-24.34-4.63-35.78-0.8-6.15-.12-16.7-3-22.46C-2884.82,3072.69-2902.49,3076.44-2902.77,3088.13Z" transform="translate(3002.52 -2788.49)"/><path class="cls-3" d="M-2876.83,3180.45c-10.45.67-6.48-10.2-5.37-15.83,1.67-8.45,2.85-16.44.09-24.75-4-12-9.66-23.6-14.39-35.28-2.46-6.07-8.39-14.07-5.67-20.82,4.86-12.06,21-7.89,23.46,2.73,4.41,18.74.25,44.28,9.84,60.72,0.84,1.43,3.43,4.54,3.86,5.14,0.59,0.82,1.15,2.78,2,3.85,2.69,3.48,13.85,10.64,13.87,15.53,0,6.28-4.87,4.32-8.86,5.22C-2864.13,3178.34-2870.17,3180.45-2876.83,3180.45Zm-25.58-92.39q5.45,13.49,10.93,27c4.16,10.24,11.66,22.67,12.07,33.87,0.22,5.89-1.26,12.73-2,18.57-0.24,1.87-2.45,3.77-2.27,5.69,1,10.66,15.33,4.45,21.13,4.11,2.5-.14,11.6-0.32,12.72-3.26,2-5.24-12.6-15.26-15.21-19.27-1.42-2.17-1.58-3.81-2.9-6.11-1.85-3.22-3.73-4.54-4.58-8.71-2.08-10.31-2.73-21.14-4.08-31.57-1-7.37-.67-16.56-3-23.64-3.7-11.11-22.78-9-22.78,3.33C-2901.67,3089.88-2902.41,3087.25-2902.41,3088.05Z" transform="translate(3002.52 -2788.49)"/><path class="cls-4" d="M-2849.24,3173.52c-0.5,1-7.77,2.81-7.94,0-0.1,1-4.64,1.59-4.89,1-1.72-3.71,4.74-4.29,4.9-1.29,0.33-2.56,4.78-.15,5.65-2.1,2.16-4.87-10.52-12.55-13.15-16.5-1.4-2.11-1.3-3.85-2.61-6.1-1.65-2.83-3.23-2.77-4.6-6.58-1.52-4.22-1.29-10-1.86-14.43-1.27-9.83-.25-64.07-23.72-48.6-9.4,6.2-3,14.75.15,22.6,5.12,12.63,11.27,25.21,15.55,38.14,2.77,8.37,2.1,18.66-.07,27.18-1.12,4.43-4.42,9.46,1.52,12.64,3.78,2,6.81-.88,10.14-1.43,2.77-.46,6.74.49,9.69-0.1,3.54-.71,9.56-1.15,11.25-4.5h0Zm-21.09-23.31c2.51,2.32,11.36,11,12,14.21,1.14,6-6.36,4.67-11.53,3.95-8.53-1.2-10-4.47-8.49-13.16,1-6.08,2.12-10.46,8-5h0Zm-17.11-31.12c-1.62-5-10.55-20.08-2.4-23.26,8.81-3.44,11.8,9.14,12.55,14.67,0.4,2.95,5.12,26.82,1.78,29.43-5,3.94-10.83-17.47-11.92-20.84C-2888.64,3115.38-2885,3126.49-2887.44,3119.09Zm15.94,55.1c-3.37,1.86-15.21,1-10.15-4.46,3.89-4.19,13,2.91,10.15,4.46C-2874.61,3175.91-2870.49,3173.64-2871.5,3174.19Zm8.12,0.51c-2.28,1.16-9.57-1-6-2.61,2.21-1,9.85.64,6,2.61h0Z" transform="translate(3002.52 -2788.49)"/><path class="cls-5" d="M-2873.46,3169.8c-8,8.61-12.1-7.7,0,0h0Z" transform="translate(3002.52 -2788.49)"/><path class="cls-5" d="M-2869.34,3171.38c1,1.73,3.88,3.38,6,1.52C-2861.61,3171.43-2868.47,3170.78-2869.34,3171.38Z" transform="translate(3002.52 -2788.49)"/><path class="cls-5" d="M-2861.25,3172c1.05,0,3.6-1.22,4.08.81S-2862.87,3173.15-2861.25,3172Z" transform="translate(3002.52 -2788.49)"/><path class="cls-5" d="M-2855.53,3172.41c-0.12,0,4.54.39,2.92,1.4C-2853.79,3174.54-2857.7,3173.35-2855.53,3172.41Z" transform="translate(3002.52 -2788.49)"/><path class="cls-5" d="M-2851.75,3172.26a1.36,1.36,0,0,1,1.79-.45C-2849,3172.45-2852.49,3174.1-2851.75,3172.26Z" transform="translate(3002.52 -2788.49)"/><path class="cls-6" d="M-2881.58,3169.78a7.37,7.37,0,0,1,5.07-.24C-2875.19,3169.9-2879.17,3167-2881.58,3169.78Z" transform="translate(3002.52 -2788.49)"/><path class="cls-6" d="M-2868.6,3171.76a6.21,6.21,0,0,1,4.26.33C-2863.27,3172.53-2866.29,3169.69-2868.6,3171.76Z" transform="translate(3002.52 -2788.49)"/><path class="cls-6" d="M-2861.3,3172.6a4.06,4.06,0,0,1,3.4.22C-2857.05,3173.24-2859.4,3170.49-2861.3,3172.6Z" transform="translate(3002.52 -2788.49)"/><path class="cls-6" d="M-2856.1,3173.26a4,4,0,0,1,3.4.22C-2851.86,3173.9-2854.21,3171.15-2856.1,3173.26Z" transform="translate(3002.52 -2788.49)"/><path class="cls-6" d="M-2851.84,3172.94a2.06,2.06,0,0,1,1.82-1.13C-2849.42,3171.77-2851.8,3170.81-2851.84,3172.94Z" transform="translate(3002.52 -2788.49)"/><path class="cls-3" d="M-2881.58,3168.7c5.72-2.86,14.47,2.9,11.4,9.42C-2868.42,3171.77-2875.93,3167-2881.58,3168.7Z" transform="translate(3002.52 -2788.49)"/><path class="cls-3" d="M-2870.48,3172.5c3.83-4.73,10.59-.73,7.72,5.07C-2861.21,3172.25-2866.33,3169-2870.48,3172.5Z" transform="translate(3002.52 -2788.49)"/><path class="cls-3" d="M-2862.71,3173c3.27-3.58,8.18-.31,4.66,3.5C-2856.11,3172.67-2859.41,3170.67-2862.71,3173Z" transform="translate(3002.52 -2788.49)"/><path class="cls-3" d="M-2857,3173.18c2.92-2,5.64-1.13,4.54,2.58C-2852.38,3172.7-2854.1,3172-2857,3173.18Z" transform="translate(3002.52 -2788.49)"/><path class="cls-3" d="M-2850.63,3171.23a19.81,19.81,0,0,0-1.6,2.14C-2853.65,3172.62-2850.65,3171.25-2850.63,3171.23Z" transform="translate(3002.52 -2788.49)"/><g class="cls-7"><path class="cls-8" d="M-2870.8,3172.22c0.4,0.48-.3-0.6,0,0C-2870.74,3172.3-2870.83,3172.16-2870.8,3172.22Z" transform="translate(3002.52 -2788.49)"/></g><path class="cls-9" d="M-2887.09,3111c0.54,2.79,6.55,25.77,9.1,24,3-2.06-.88-19.38-2-21.73C-2881,3111.24-2888.59,3102.29-2887.09,3111Z" transform="translate(3002.52 -2788.49)"/><path class="cls-9" d="M-2876.4,3153.59c-1.22,3.84-2.49,8.84.65,11.69,1.33,1.21,11.58,2.65,12.18.39,0.28-1.06-12.76-13.46-11.61-14.39Z" transform="translate(3002.52 -2788.49)"/><path class="cls-3" d="M-2873.46,3169.8c-2.28,3.83-8.58,4.07-8.49-.73C-2882,3173.62-2875.63,3172.88-2873.46,3169.8Z" transform="translate(3002.52 -2788.49)"/><path class="cls-3" d="M-2869.08,3171.28c1.17,2.41,3.63,2.76,5.93,1.13C-2865.31,3174.48-2868.33,3174.18-2869.08,3171.28Z" transform="translate(3002.52 -2788.49)"/><path class="cls-3" d="M-2861,3172c1.09,0.61,1.27,2.6,3.72.54C-2859.42,3174.57-2860.48,3174.17-2861,3172Z" transform="translate(3002.52 -2788.49)"/><path class="cls-3" d="M-2855.27,3172.41s-1.5,2.15,3,1.13C-2854.22,3171.56-2857.21,3175.82-2855.27,3172.41Z" transform="translate(3002.52 -2788.49)"/><path class="cls-3" d="M-2849.66,3171.74c-0.86.78-.4,2.29-2.42,1C-2850.47,3173.41-2850.49,3172.48-2849.66,3171.74Z" transform="translate(3002.52 -2788.49)"/><path class="cls-10" d="M-2875.52,3139.93c1.83-6.43-1.06-54.55-15.69-43.15-5.31,4.14,2,17.12,3.77,22.31,0.59,1.71,10.4,26.16,11.92,20.84C-2874.08,3134.86-2875.92,3141.31-2875.52,3139.93Z" transform="translate(3002.52 -2788.49)"/><path class="cls-10" d="M-2876.05,3147.43c-4.13,2.57-4.09,16.28-.9,19.2,2.38,2.18,13.4,3.2,16.13,1.94,7.2-3.31-1.37-7.71-5-11.92-1.46-1.69-6.54-11.49-10.21-9.22h0Z" transform="translate(3002.52 -2788.49)"/><path class="cls-10" d="M-2871.44,3171.52c-3.61-3.77-15.26-3.3-10.09,2.38,2.19,2.4,13.42,1.12,10.09-2.38h0Z" transform="translate(3002.52 -2788.49)"/><path class="cls-10" d="M-2865.81,3170.68c-1.66,0-3.73.85-4.36,2.42-2.8,7.09,15.9-2.3,4.36-2.42h0Z" transform="translate(3002.52 -2788.49)"/><path class="cls-10" d="M-2875.52,3139.93c1.83-6.43-1.06-54.55-15.69-43.15-5.31,4.14,2,17.12,3.77,22.31,0.59,1.71,10.4,26.16,11.92,20.84C-2874.08,3134.86-2875.92,3141.31-2875.52,3139.93Z" transform="translate(3002.52 -2788.49)"/><path class="cls-10" d="M-2871.44,3171.52c-3.61-3.77-15.26-3.3-10.09,2.38,2.19,2.4,13.42,1.12,10.09-2.38h0Z" transform="translate(3002.52 -2788.49)"/><path class="cls-10" d="M-2876.05,3147.43c-4.13,2.57-4.09,16.28-.9,19.2,2.38,2.18,13.4,3.2,16.13,1.94,7.2-3.31-1.37-7.71-5-11.92-1.46-1.69-6.54-11.49-10.21-9.22h0Z" transform="translate(3002.52 -2788.49)"/><path class="cls-10" d="M-2865.81,3170.68c-1.66,0-3.73.85-4.36,2.42-2.8,7.09,15.9-2.3,4.36-2.42h0Z" transform="translate(3002.52 -2788.49)"/><path class="cls-11" d="M-2892.4,3094.23s11.23-.67,7-4.47c0.31,0.28,1.2,3.86,2.11,3.29a12.57,12.57,0,0,0,1.81-2.89c1.28-2.09,4,8.25,3.91,8-1.23-9.5-.13-22.43-13.63-21.09-16.63,1.66-10,15-6.12,24.55-1.19-4,.59-7.07,4.91-7.4C-2884.26,3093.72-2898.61,3094.7-2892.4,3094.23Z" transform="translate(3002.52 -2788.49)"/><path class="cls-2" d="M-2928.75,3176.66c-6.53-.41-13.12,2.5-19.67,2.93-12.44.82-22,2.52-32.19-2.69-2.21-1.13-9.89-4.24-8-8.18,1.27-2.68,3.67-.42,5.56-0.76,9.41-1.68,18.64-3.28,27.64-6.66s22.15-6.43,21.81-17.81c-0.3-10.19-5.45-22-7.94-31.85-1.22-4.84-8.6-21.73-6.59-26.37,2.14-4.95,17.69-7.29,22.75-8.56q1,25.33,2.13,50.65c0.41,8.82.18,18,1.41,26.8,1.26,9,10.07,23.54-6.9,22.49h0Z" transform="translate(3002.52 -2788.49)"/><path class="cls-3" d="M-2967.88,3182.28c-3.85,0-9.24-3.39-12.33-4.94-2.93-1.46-7.12-2-8.05-5.94-1.42-6,8.12-4.62,13.64-5.56,11.67-2,39.23-6.3,40.85-20.4,0.68-6-3.28-14.7-4.77-20.49-2.58-10-5.09-20.06-7.59-30.09-1.26-5.06-3.35-7.85-.53-11.29,3.62-4.42,16.14-5.95,21.62-7.31,0.87,21.67,1.71,43.34,2.82,65,0.4,7.69,6.58,30,1.88,33.88-4,3.27-14.51,2.85-19.83,3.83a78.37,78.37,0,0,1-13.76,1.13C-2959,3180.12-2963.11,3182.28-2967.88,3182.28Zm-7.66-4.73c5,6.3,11.85,2.49,18.19,1.78,7.05-.79,13.79-0.86,20.81-2,7.82-1.29,19.63.55,18-10.93-0.73-5.27-3.44-10-3.94-15.62-2.16-24.4-2.33-49.1-3.31-73.57-5.07,1.29-20.39,3.81-21.86,8.77-1.66,5.62,5.07,20.35,6.48,26,2.19,8.69,4.81,17.34,6.73,26.09,2.18,9.93.42,13.88-8.79,18.59-13.38,6.84-28.35,6.73-41.22,12.1-1.94.81-5.3-3-2.46,3.48,1,2.35,2.26,1.52,3.37,2.37C-2980.75,3176.63-2978.72,3177.81-2975.55,3177.54Z" transform="translate(3002.52 -2788.49)"/><g class="cls-7"><path class="cls-8" d="M-2918.16,3166.25c-9.43-27.27-6.11-60.73-7.24-89.53-5.6,1.42-20.13,3.58-22.7,8.76-1,2.11,2.74,11,3.29,13.21,1.79,7.15,3.15,15.19,5.75,21.75-1-5.11-4-14.56-2-19.57,3.07-7.55,5.92-1.4,8.09,4.07,4.17,10.52,6.59,25.16,5.53,36.38-0.87,9.17-3.89,8.23-6.53.13,2.43,11.81-9.27,14.94-18.29,18.59,7.72-1.67,18.4-9.92,24-3.53,1.62,1.85,5.39,11,4.37,13.5-2.52,6.26-7.49,1.93-13,2.53-5.12.56-9.9,3.14-15.41,3.34-1.69.06-5.47-.57-7.06-0.21-2.28.52-3.88,2.61-5.85,3-2.22.49-10.22,0.71-8.48-4.2,0.22-.63,10.19-1.7,10.24-1.83,1.11-2.88-9-6.17-9.57-5.77,2-1.47,5.3-1.36,7.55-2.28-4.23,1.06-23.65,1.92-23.21,6.14,0.63,6,19.35,10.88,23.49,10.74,3.45-.11,7.13-1.8,11.14-1.83a82.08,82.08,0,0,0,8.64-.35c3.69-.41,7.11-1.6,10.73-2.18,6.43-1,20.3-.1,16.53-10.94C-2919.7,3161.81-2916.62,3170.69-2918.16,3166.25Z" transform="translate(3002.52 -2788.49)"/></g><path class="cls-5" d="M-2970,3169.19c-0.92.07-5.89,1.29-5.16,3,1.37,3.17,9.17-.26,7.79-2.12Z" transform="translate(3002.52 -2788.49)"/><path class="cls-5" d="M-2973.13,3169.84c-7.54,10-3.86-6.78,0,0h0Z" transform="translate(3002.52 -2788.49)"/><path class="cls-5" d="M-2979.48,3171.11s-5.24,1.93-3.84-.55S-2978.45,3170.32-2979.48,3171.11Z" transform="translate(3002.52 -2788.49)"/><path class="cls-5" d="M-2984.1,3168.49a1.23,1.23,0,0,0-1.41,1.5c1,1.28,3.68-.68,3.08-1.2Z" transform="translate(3002.52 -2788.49)"/><path class="cls-5" d="M-2984.35,3168.11c-0.23,0-3.4-2.58-2.59.45C-2986.4,3170.61-2984.85,3168.12-2984.35,3168.11Z" transform="translate(3002.52 -2788.49)"/><path class="cls-6" d="M-2968.91,3170c-1.29-1.14-4.74,1.16-5.51,1.76,0,0,7.2-.21,5.51-1.76h0Z" transform="translate(3002.52 -2788.49)"/><path class="cls-6" d="M-2975.58,3169.48l-3.13,1.93c-0.27.54,5.3-2,3.13-1.93h0Z" transform="translate(3002.52 -2788.49)"/><path class="cls-6" d="M-2980,3169.93q-1.62-.67-3.09,1c-0.32.36,3.63-.59,3.09-1h0Z" transform="translate(3002.52 -2788.49)"/><path class="cls-6" d="M-2983.3,3168.61l-2.12.85c-0.14.19,3.66-.85,2.12-0.85h0Z" transform="translate(3002.52 -2788.49)"/><path class="cls-6" d="M-2985.58,3167.21q-2.51.71-.73,0.9c0.13-.25,1.51-0.8.73-0.9h0Z" transform="translate(3002.52 -2788.49)"/><path class="cls-3" d="M-2965.48,3171.66c-4.52-5-13-.09-10.15,6.34-4.25-6.46,6.16-13,10.15-6.34C-2965.76,3171.35-2965.91,3170.94-2965.48,3171.66Z" transform="translate(3002.52 -2788.49)"/><path class="cls-3" d="M-2972.66,3169.6c-4.78-1.19-8.81,2.41-7.3,7.36C-2982.6,3171.79-2977.64,3167.29-2972.66,3169.6Z" transform="translate(3002.52 -2788.49)"/><path class="cls-3" d="M-2983.61,3175.05c-2.25-4.05,1.34-7.68,4.85-4.84C-2982.2,3168.59-2984.79,3171.34-2983.61,3175.05Z" transform="translate(3002.52 -2788.49)"/><path class="cls-3" d="M-2986.9,3172.8c0.05-2.43,0-4,2.77-4.34C-2986.27,3169.51-2985.77,3170.89-2986.9,3172.8Z" transform="translate(3002.52 -2788.49)"/><path class="cls-3" d="M-2975.47,3171.83c2.54,2.12,5.77,1.71,8.08-.65C-2969.6,3174-2973,3174.42-2975.47,3171.83Z" transform="translate(3002.52 -2788.49)"/><path class="cls-3" d="M-2979.48,3171.11c1.94,0.36,2.27,2.07,4.28.26C-2977.13,3173.8-2977.52,3171.86-2979.48,3171.11Z" transform="translate(3002.52 -2788.49)"/><path class="cls-3" d="M-2983.7,3170.91c1.67,0.33,2.13,1.49,3.94.41C-2981.75,3173.18-2981.89,3171.47-2983.7,3170.91Z" transform="translate(3002.52 -2788.49)"/><path class="cls-3" d="M-2985.86,3169.51c1,0.56,1.31,1.1,2.54.7C-2985,3171.38-2984.72,3170.13-2985.86,3169.51Z" transform="translate(3002.52 -2788.49)"/><path class="cls-3" d="M-2987.36,3167.56c0.75,1,.83,1.83,2.1,1.27C-2986.91,3170.07-2986.54,3168.68-2987.36,3167.56Z" transform="translate(3002.52 -2788.49)"/><g class="cls-7"><path class="cls-12" d="M-2925.4,3076.72c-5.68,1.43-12,2.75-17.22,5.39-8.15,4.08-4.48,7.44-2.31,16.1a33.7,33.7,0,0,1,.49-4.77,5.77,5.77,0,0,1,2.06-2.39c1.27-.43,3.79,3.6,4.85,3.81,1.92,0.38,6-1.79,6-1.77,3.19,1.64,3.65,8.37,4.06,11.1,2.63,17.79-4.38,47.25,8.93,61-5.79-15-4.48-32.36-5.18-48.29Q-2924.62,3096.8-2925.4,3076.72Z" transform="translate(3002.52 -2788.49)"/></g><path class="cls-13" d="M-2985.72,3168.72c-0.21.36-1.54,3.61-1.91,3.15C-2990,3168.89-2982.93,3167.58-2985.72,3168.72Z" transform="translate(3002.52 -2788.49)"/><path class="cls-13" d="M-2982.7,3169.77c-0.15.89-1.92,5-1.82,5.08C-2987.91,3172.54-2982.79,3170-2982.7,3169.77Z" transform="translate(3002.52 -2788.49)"/><path class="cls-13" d="M-2979.17,3170.6c-0.32,1.34-1.24,9.74-4,4.81C-2980.5,3176.12-2981.81,3171.76-2979.17,3170.6Z" transform="translate(3002.52 -2788.49)"/><path class="cls-13" d="M-2974.29,3170.57c-1.33,1.4-1.76,11.48-5.45,6.79C-2976.56,3178.41-2977.59,3171.92-2974.29,3170.57Z" transform="translate(3002.52 -2788.49)"/><path class="cls-9" d="M-2939.34,3114.74c1.47,6.17,2.12,26.67,7,30.06,0,0-1.22-17.4-1.64-19.2-0.37-1.6-5.89-14.71-5.69-15.29A13.49,13.49,0,0,0-2939.34,3114.74Z" transform="translate(3002.52 -2788.49)"/><path class="cls-9" d="M-2954.91,3162.19c4.64-1.07,13.63-6.61,18-6,3.34,0.47,7.14,2.83,2.74,7.2-1.56,1.56-30.47,6.32-31.58,4.38C-2966.61,3166.34-2954.69,3162.11-2954.91,3162.19Z" transform="translate(3002.52 -2788.49)"/><path class="cls-14" d="M-2964.69,3018.66c1.85,11.89,3.62,23.86,6.26,35.6,0.5,2.23,1.45,4.63,1.71,6.89a16.27,16.27,0,0,0-2.83,3.39,4.12,4.12,0,0,0,3,3.12,177.37,177.37,0,0,0,.36,20.28c4-11.47,12.64,9.42,11.59-3.44l9.41,9.23c0.7-6.26,2.28-3.58,5.37-2.14,0.27,0.13,4.76-12,5.31-13.43l5.07,9.6c-0.58-4.17-6.95-39.39-4.53-40.2,0.88-.29,8.32,26.33,8.83,28.12,3.22,11.4,2,12.68,13.62,16.05,0-.47.26-5.42,1.09-5.25,2.06,0.42,2.3,5,4.12,6,2.26,1.16,7.2.33,9.64,0-0.13-1-2.73-13.75-1.63-14.13,0.62-.2,3.72,9.86,4,10.68,0-1,.71-5.58,2-5.79s3.58,4.59,4,5.61c0.22-3.94.43-7.87,0.6-11.81,0.05-1.16,2.25-13.67,2.89-12.55-1.58-2.74-3.15-2.45-4.28-6.37s-1.07-8.54-1.77-12.55c-2.19-12.57-4.89-25.72-10.42-37.3C-2905.91,3027.4-2945.34,3021.54-2964.69,3018.66Z" transform="translate(3002.52 -2788.49)"/><path class="cls-15" d="M-2935,3094.41l-9.26-9.08c-0.88,11.51-5.38-1.38-8.44-2.09-1.66.29-3.08,4.49-3.69,6-0.59-5.64.11-11.74-.85-17.25-0.61-3.49-1.7-5.54-1.94-8.28-0.1-1.2,1.82-2.16,1.85-3.44s-1-3.58-1.21-4.92c-2-12.4-4.64-24.71-6.55-37.14,19.18,2.91,60.27,9.21,73.86-10.71,7.8,16.35,7.28,34,12.51,50.67,0.59,1.9,3.39,5.15,3.5,5.82,0.3,1.79-1.38,5.53-1.93,8.63-1,5.63-.53,11.85-0.86,17.58-0.67-1.64-2.44-6.53-4.22-6.63-1.49.39-1.8,5.39-1.93,7a106.54,106.54,0,0,0-3.87-11.21c0.29,4.48,1.23,9,1.81,13.41-2.61.27-7.76,1.2-10,.06s-2-4.59-4.19-6c-0.79,1-.79,4.11-0.72,5.35-10.31-3-10.32-2.19-13.38-13.1-2.83-10.09-5.1-20.87-9.21-30.55,0,13.63,3.05,27.73,5,41.19l-5.66-10.71c-0.41,1.1-3.78,12.93-5.27,12.93-1.3,0-2-2.63-3.39-2.63C-2933.87,3089.35-2934.95,3093.38-2935,3094.41Zm-9.91-10.74,9.58,9.4c1.49-4.53,2.38-4.88,5.58-1.88,2.11-4.42,3.5-9.3,5.21-13.9l4.49,8.49c-1.07-7.65-2.1-15.31-3-23-0.28-2.33-2.79-11.33-1.34-13.46,1.65-2.44-.92-1.7,1.17-1.35,2.8,0.47,7.72,24.93,8.32,27.05,3.25,11.49,2.22,13.07,13.09,16.24,0.44-10.13,1.86-1.54,4.61-.3a19.81,19.81,0,0,0,10.18,1.18c-0.56-4.3-2.51-10.22-1.21-14.17,1.58,0,3.8,9.33,3.87,9.55,1.22-6.07,3.08-5.08,5.79,0,0.28-5.14-.33-11.12.75-16.11-0.11.5,2.18-8.88,2.73-6.7-0.41-1.39-3.67-.37-4.05-2.64-0.17-1,.08-2.37-0.24-3.33-1.22-3.64-1-8.58-1.69-12.38-2.14-12.6-4.83-25.69-10.25-37.35-14.48,18.77-53.51,12.94-72.89,10.09,1.86,12,8,27.53,7.16,39.38a16.22,16.22,0,0,0,.65,2.91,16.52,16.52,0,0,0-2.77,3.48,6,6,0,0,0,2.87,2.5c0.08,6.19-.16,12.87.42,19.29,5.47-10.47,3.62,3.12,9.42,3.12C-2945.09,3089.46-2944.86,3084.77-2944.93,3083.67Z" transform="translate(3002.52 -2788.49)"/><g class="cls-16"><path class="cls-17" d="M-2876.16,3063.86c-4.54-1.13-4.34-16.14-5-19.89-2.18-12-4.82-24.59-10.13-35.7-14.6,19.12-54,13.27-73.39,10.38,1.25,8,2.28,16.55,4.26,24.11-0.72-3.15-3.07-11.35-.54-14s5.61,0.53,8.74.48c6.53-.11,3.89-1.57,6.61-4.88,0.78-.95,12.43,2.56,14.95,2.55,6.59,0,14-3.79,20.42-2.46,17.54,3.63-7.51,10.85-8.73,15.13-0.42,1.46,11.44-3.21,11.54-3.16,1.11,0.49,3.9,4.31,2,5.42,0.33-.2,3.63-4.91,4.09-4.52,1.85,1.59-.13,6.47,2.42,8.51,5.15,4.13,5.91-2.33,9.06-1.92,10.48,1.38,5.53,21.68,6.6,22.1,2,0.8,3.54-1.57,4.31,1.43,0.28,1.07-.52,9.14-1,9.78-5.29,7-5.86-5.59-10.35-5.69-2.29,0,.92,15.5,1.39,18-8.81,2.8-7.12-10.52-13.38-8.33-2.93,1,.75,6.62-4,5.7-3-.59-4.72-7.73-5.5-9.93-4-11.23-4.41-27.14-13.93-35.6-4.58-4.08-11.31-5.46-17.15-6.59-1.36-.27-10.21-0.64-10.19-0.62,2.29,2.66,17.4,3.73,16.58,8-1.1,5.65-14.36,3.73-17.43,8.34,1.8-2.71,18.53-1.56,21.56.46,4.06,2.7,5.08,7.87,6.15,12.28,0.23,0.93,1.46,11.05,1.3,10.95-0.35-.23-1.48-3.05-2-2.76-3.59,2,0,12-3.17,13.91-2.18,1.33-8.19-2.18-8.19-4,0,0.69,2.15,5.36,1.34,5.79-2,1.09-8.1-8.72-9.36-7.16-0.08.1,0.18,5.22-.42,4.81-2.83-1.91-2.2-8.66-4.95-9.89-1-.43-2.7,5.33-2.76,5.23-1.34-2.23.93-15.85,4.64-11.88-1.89-2-4.41-.07-5.29-3.16-0.22-.79,4.32-1.49,3.83-3.14-1.06-3.58-6-7.65-7.94-11.06q0.75,3.85,1.68,7.65,2,2.95-1.15,4.65c0.3,2.16,1.6,3.42,1.91,5.8,0.79,6.08-.1,12.74.51,19,4-11.47,12.64,9.42,11.59-3.44l9.41,9.23c0.7-6.26,2.28-3.58,5.37-2.14,0.27,0.13,4.76-12,5.31-13.43l5.07,9.6c-0.58-4.17-6.95-39.39-4.53-40.2,0.88-.29,8.32,26.33,8.83,28.12,3.22,11.4,2,12.68,13.62,16.05,0-.47.26-5.42,1.09-5.25,2.06,0.42,2.3,5,4.12,6,2.26,1.16,7.2.33,9.64,0-0.13-1-2.73-13.75-1.63-14.13,0.62-.2,3.72,9.86,4,10.68,0-1,.71-5.58,2-5.79s3.58,4.59,4,5.61c0.25-4.46.5-8.92,0.67-13.39,0.11-2.81,2.3-11.4,1.5-11.6h0Z" transform="translate(3002.52 -2788.49)"/></g><g class="cls-18"><path class="cls-15" d="M-2953.35,3034.59c9.42,0.55,25.07,3,29.39,13C-2929.12,3038.25-2943.95,3036.08-2953.35,3034.59Z" transform="translate(3002.52 -2788.49)"/><path class="cls-15" d="M-2950.93,3050c6-1.82,12.11-3.25,18.11-5.07A58.34,58.34,0,0,1-2950.93,3050Z" transform="translate(3002.52 -2788.49)"/><path class="cls-15" d="M-2915.2,3038.46c4.57-2.57,23-15.72,10.86-2.66,1.15-1.59,3.57-3.94,4-6-0.08.08,0.21,0.3,0.25,0.27C-2905.18,3032.93-2909.64,3036.2-2915.2,3038.46Z" transform="translate(3002.52 -2788.49)"/></g><path class="cls-19" d="M-2949.82,3031.46c4.22,1.32,5.91-1.82,9.31-2.44,5.59-1,12.28.66,18.08,0,2.47-.29,11.43-3.42,11,1.28-0.36,3.72-10.19,6.39-9.4,10,0.53,2.44,9.1-.79,10-0.43,1.63,0.62,5.35,6.89,5,7.12,5.65-3.48-.7-0.44,5.46,1.09,1.87,0.47,3.37,1.62,5.49,1.93,2.41,0.36,4.56-2.14,7.08-.79,5.08,2.73,1.38,6.85.92,10.88-0.26,2.25-.25,13.56,3.38,14.22-2.8-.51-8.19-9.67-10.27-7.85s1.9,11.94,1.18,14.83c0.09-.38-4.15-10.2-5.42-10.6-4.53-1.44-2.22,1.9-4.93,5.54-4.31,5.79-4.16,1.74-7.08-5.73-3.93-10.05-6.71-22.54-14.83-30.23C-2927.66,3037.6-2949.32,3030.26-2949.82,3031.46Z" transform="translate(3002.52 -2788.49)"/><path class="cls-19" d="M-2954.84,3036.7c3.08,0.63,12.57,1.51,13.73,4.84,1.06,3-16.42,5.07-16.11,4.14,1.27-3.77,5.48-1.29,5.12-5.44-0.1-1.22-5.46-3-5.15-3.83A4.57,4.57,0,0,1-2954.84,3036.7Z" transform="translate(3002.52 -2788.49)"/><path class="cls-19" d="M-2951.32,3055.52a18.2,18.2,0,0,0,3.36,5q1.4,2.34-1.24,3.17c-0.54-1.4.49,6,1.54,3,2.18-6-.34,13.06-1.31,2.68,0.07,0.78-2.83,7.6,1.45,9,0.52,0.17.5-5.46,1.28-5,1.37,0.77,3.88,6.62,5.59,6.41,2.27-.28-1.08-8-0.28-8.83,0.28-.3,5.91,10,7.39,8.66,3.11-2.89-.69-23-4-26.05C-2940.27,3051.21-2954.93,3050.87-2951.32,3055.52Z" transform="translate(3002.52 -2788.49)"/><path class="cls-20" d="M-2903.86,2928.07c11.84-2.44,20.58,10.54,26.91,18.69-8.28.93-18.8,4.17-27,3-4-.56-2.77,1.39-4.7-1.45C-2911.83,2943.59-2907.1,2931.27-2903.86,2928.07Z" transform="translate(3002.52 -2788.49)"/><path class="cls-21" d="M-2908.58,2950.69c-1.3-6.63-1.85-20,5.53-23.16,10.09-4.31,21.8,13,26.78,19.52Zm4.91-22.3c-3.33,3.34-7.05,13.46-4.74,18.15,2.41,4.9-.54,2.28,5.71,2.75,7.93,0.6,17.14-1.93,25.08-2.83-5.89-7.53-14.81-20.88-26.05-18.08C-2910.29,2935-2903.37,2928.32-2903.67,2928.4Z" transform="translate(3002.52 -2788.49)"/><path class="cls-22" d="M-2876.94,2946.76c-3.75-4.8-4.05-5.6-10.53-4.08-4.47,1-9,3.88-12.6,6.7Z" transform="translate(3002.52 -2788.49)"/><path class="cls-22" d="M-2890.48,2931.74c-9.82.24-19,3.19-18.37,13.94,7-4.63,15.21-8.16,23.65-8.74a67.12,67.12,0,0,0-5.27-5.2C-2900,2932-2888.78,2933.21-2890.48,2931.74Z" transform="translate(3002.52 -2788.49)"/><g class="cls-18"><path class="cls-23" d="M-2890.58,2941.62c-3.65-1.88-13-.88-11.6-8.42s10.17-2.26,13.88.54c-6.41-6.23-15.2-9.61-19.15.13-1.22,3-3.26,14-.53,16.39,3.42,2.93,25.92-2.93,31-3.5q-2.58-3.32-5.32-6.51c2.23,3.57-7.4,1.84-8.31,1.37h0Z" transform="translate(3002.52 -2788.49)"/></g><path class="cls-20" d="M-2961.56,2933.69c-4.8-8.3-15.15,22-1,22.21,11.17,0.2,17.14-19.6,22.1-27.25-7.21-.86-14.31,3.53-21.13,5C-2964.21,2929.1-2959.38,2933.2-2961.56,2933.69Z" transform="translate(3002.52 -2788.49)"/><path class="cls-21" d="M-2964,2957.41c-9.4-4.13-7.47-22.87.14-26.18,0.59-.26,2.67,1.71,3.89,1.58,2.7-.29,5.5-1.84,8.15-2.57,3.93-1.09,7.88-2.17,12-1.88C-2945.26,2936.82-2951.49,2957.41-2964,2957.41Zm-0.74-25.76c-5.84,0-8.49,26.19,3.75,23.43,9.74-2.2,14.76-18.08,19.91-26.12-4.7-.17-9.69,1.73-14.11,3.07-1.35.41-5,2.37-6.3,2C-2962.24,2933.83-2966.08,2931.65-2964.71,2931.65Z" transform="translate(3002.52 -2788.49)"/><path class="cls-22" d="M-2945.57,2936.91c1.69-2.77,3.39-5.54,5.15-8.27-6.22-.73-5.48,3-5.15,8.27C-2943.55,2933.61-2945.78,2933.61-2945.57,2936.91Z" transform="translate(3002.52 -2788.49)"/><path class="cls-22" d="M-2961.6,2933.61c-4.83-8.14-7.84,6.32-7.92,9.25-0.23,8.66,1.42,14.56,9.27,12.38a26.31,26.31,0,0,1-1.35-21.63C-2964.26,2929.12-2963,2937.45-2961.6,2933.61Z" transform="translate(3002.52 -2788.49)"/><path class="cls-22" d="M-2950.74,2930.31c-8.72,2.46-7.19,13.41-3.51,21,4.07-6.79,2.09-13.23,3.51-21C-2952.64,2930.85-2951.36,2933.69-2950.74,2930.31Z" transform="translate(3002.52 -2788.49)"/><path class="cls-2" d="M-2931.05,2937.45c7.25,0.83,10.79-5.62,10.72-11.69a63.63,63.63,0,0,1-13.43.2c-1.27,3.55-4.29,10.12,2.71,11.48C-2925.75,2938.05-2935.42,2936.6-2931.05,2937.45Z" transform="translate(3002.52 -2788.49)"/><path class="cls-3" d="M-2930.13,2937.86c-8.23-.53-5.42-8.24-4-12.31a63.63,63.63,0,0,0,14.15-.2C-2919.36,2931.58-2923.15,2937.86-2930.13,2937.86Zm-5.29-7.8c-0.86,11.9,14.78,6.13,14.72-3.9a63.38,63.38,0,0,1-12.71.2c0,2.31-1,1.9-2,3.69C-2935.62,2932.85-2935.14,2929.58-2935.42,2930.06Z" transform="translate(3002.52 -2788.49)"/><path class="cls-20" d="M-2924,2956.13c0.95-9.75,1.61-22.27,7.19-30.81-6.15.75-2.55,9.51-10.39,11.67-5.23,1.44-9-1.65-8.61-7-13.48,23.82-17.93,50-15.11,77.07,0.6,5.8.21,11,4.26,14,6.75,5.06,25.94,3.16,33,.25-6.08-1.57-7.95-14.65-8.89-19.31-3-15-2.91-30.72-1.43-45.87C-2922.14,2937.49-2927.58,2993.25-2924,2956.13Z" transform="translate(3002.52 -2788.49)"/><path class="cls-21" d="M-2927.37,3024c-4.78-.05-18.38.41-21.86-3.42s-2.52-19-2.73-23.58a123.86,123.86,0,0,1,16.68-68.61c-1.6,7.82,5.92,11.49,11.69,6.1,4.09-3.82.14-11,7.55-9.59-8.36,12.6-8.29,33.41-8.47,47.66-0.12,9.91-1.2,45.21,12,48.7A37.48,37.48,0,0,1-2927.37,3024Zm-21.2-3.79c10.44,3,23.5,5,34,1.12-11.78-6.73-10.72-36.87-10.63-48,0.12-14.6.06-34.46,7.75-47.55-3.46,0-3.19,7.81-7.36,10.34-4.64,2.82-11.08,2-11.33-4.71-14.89,27.19-18.71,58.48-12.4,88.78C-2947,3020.62-2949,3017.93-2948.57,3020.18Z" transform="translate(3002.52 -2788.49)"/><path class="cls-3" d="M-2933.76,2928c0,1,.59,1.62,0,2.69C-2934.35,2929.65-2933.76,2929-2933.76,2928Z" transform="translate(3002.52 -2788.49)"/><path class="cls-22" d="M-2924.39,2961.36q0.28-4,.72-8c-5.78.65-11.27-.32-17-0.11-6.46.23-5.37-1.3-7.64,7.09,7.76,1.59,16,2.29,23.87,1C-2924.27,2959.64-2933.72,2962.85-2924.39,2961.36Z" transform="translate(3002.52 -2788.49)"/><path class="cls-22" d="M-2922.91,2947.31q0.54-3.88,1.3-7.72c-5,1.16-9.75-.81-14.43-0.16-5.27.73-4.21-1.15-6.9,5.37,6.33,2,13.38,3.26,20,2.51C-2922.5,2944.42-2930.83,2948.21-2922.91,2947.31Z" transform="translate(3002.52 -2788.49)"/><path class="cls-22" d="M-2924.85,2978.62c-0.14-6.71,1.54-6.25-3.83-8.49-2.72-1.14-7.47-.29-10.32-0.3-9,0-11.53-1.71-12.35,8.36,8.81-.1,17.7-0.26,26.49.43C-2924.9,2976-2932,2978.06-2924.85,2978.62Z" transform="translate(3002.52 -2788.49)"/><path class="cls-22" d="M-2920.28,3010.9c-2-6.22-.49-6.89-5.46-8.83-2.44-1-6.38-.43-9-0.79a130.25,130.25,0,0,1-16.85-3.63c0.46,9.73,1,10.55,10.17,12.46,6.86,1.42,14.22,2.36,21.14.8C-2921.12,3008.32-2931.33,3013.4-2920.28,3010.9Z" transform="translate(3002.52 -2788.49)"/><path class="cls-22" d="M-2917.59,3017.28c-10.48,1.79-21.72.31-32.13-1.42,1.8,11.18,28.12,8.74,36.09,5.45a7.71,7.71,0,0,1-4-4C-2928.26,3019.11-2916.29,3019.59-2917.59,3017.28Z" transform="translate(3002.52 -2788.49)"/><path class="cls-22" d="M-2924.53,2986c-4.71-.73-31.89-4.91-27.24,4.18,2.26,4.43,21.88,3.25,28,4.24q-0.53-4.2-.8-8.43C-2932.53,2984.73-2924.34,2988.93-2924.53,2986Z" transform="translate(3002.52 -2788.49)"/><path class="cls-24" d="M-2894.08,2989.81c-10.24-11.83-17.13-36.92-14.16-52.15,0.35-1.81,4.58-8.84,4.38-9.6-0.62-2.39-9-2-9.69-1.92-3.94.71-2.58-1.34-5.3,3.41-2.11,3.68-2.68,9.4-3.41,13.5-3.64,20.56-7.44,53.93,4,73.07,9.35,15.58,41.92-9.9,24.13-26.31C-2901.14,2981.66-2887,2996.33-2894.08,2989.81Z" transform="translate(3002.52 -2788.49)"/><path class="cls-25" d="M-2911.61,3022.06c-18.66-1.51-13.67-57-12.43-68.45,0.58-5.32,1.17-25.33,7.07-28.62,2.65-1.48,3.27,1.47,5.1,1.43,5.94-.14,7.18-1.41,7.61,2.7,0.18,1.7-3.39,7.47-3.74,9.79-0.65,4.37-.15,8.93.45,13.27a100.25,100.25,0,0,0,8.49,28.37c3.35,7.15,11.65,13.74,11.26,22C-2888.27,3011.95-2902.69,3022.06-2911.61,3022.06Zm-4.94-96.39c-10.25,16.12-8.91,44.54-7.47,62.35,0.63,7.81,1.26,26.23,8.45,31.45,6.38,4.63,16.08-2.35,21.1-6.82,13.43-12-3.62-26.74-8.43-39.76-3.05-8.25-5.57-17.11-6.08-25.94-0.23-4-.28-8.35,1-12.2,0.27-.81,4.05-7.34,4.05-7.33-0.78-1.71-8.17-.34-9.92,0,0.12-1.89-.91-2-2.69-1.75C-2918.77,2929.15-2915.69,2925.56-2916.55,2925.67Z" transform="translate(3002.52 -2788.49)"/><path class="cls-26" d="M-2894.08,2989.81c-7.89-9.11-11.73-24.19-13.64-35.76-1-6.29-2-14,.35-20.13,2.91-7.6,5-8.46-6.09-6.94,0.11,0-1.66-2.86-3.31-1.66-1.44,1.05-2.23,4.67-2.79,6.21-2.78,7.77-3.62,16.45-4.4,24.59-1.71,17.91-2,37.44,3.68,54.77-0.3-1-1-3.34-.43-4.27,3.94-5.85,13.35,17.21,3.92,11.95,7.67,11.17,40.68-12.18,22.71-28.77C-2901.14,2981.66-2887,2996.33-2894.08,2989.81Zm-6.88,19.31c-5.84-4.76-13.51-8.14-18-14.47-5.45-7.77-4.2-19.59-3.71-28.65,0.3-5.5.4-35.35,6.78-38.13q2.32,0.76,1.78,3.53c3-4.62,5.48-2.58,6,.36,0.26,1.36-1.86,10.1-2.46,11.62-3.15,8-6.34,11-6.28,21.37,0,6-2.72,20.38,2,24.39s24.57,1,17,13.58c2.46-1.4,4.26-3,5.07-5.67,7.2,5-.64,18.24-8.21,12.07h0Z" transform="translate(3002.52 -2788.49)"/><path class="cls-24" d="M-2951.11,2975.51a108.81,108.81,0,0,1,8.13-30.59c0.8-2,8.42-13.67,7.68-15.77-2.46-7-17.46,19.65-19.83,23.62-5.8,9.69-11.4,19.65-13.37,30.95-2.21,12.67,2.51,25.86-2.94,38.09,1.24-.92,3.05-1.08,4.35-1.93-0.06.5-.05,5.5,0.65,5.5,0.89,0,2.53-3.08,2.87-3.79,2.33,2.87,7.25,4.87,10.93,3.93,6.93-1.76,3.26-1.63,3.53-6.27,0.84-14.38-3.44-28.9-2-43.74h0Z" transform="translate(3002.52 -2788.49)"/><path class="cls-25" d="M-2954.2,3025.94c-3.35.08-7.12-1.09-9.35-3.71-2.91,5-3.94,3.42-3.93-1.8-1.44.93-3.43,1.12-4.81,2.13,2.85-5.37,3.42-11.88,3.45-17.85,0.09-13.64-.53-24.06,5.11-36.93a134,134,0,0,1,8.31-15.29c3.51-5.82,8.9-20.78,14.68-24.05,8.51-4.82,4.66,2.64,2.82,6.31-5.68,11.35-10.27,23.49-12.24,36.07-2.26,14.46-1.52,29.59.64,44C-2948.53,3021.35-2945.06,3025.94-2954.2,3025.94Zm-9.42-5.05a10.64,10.64,0,0,0,6,3.93c5.83,1.69,7.39.45,8.53-3.28,1.46-4.77-2.29-15.45-2.63-20.39-1-15-.21-30,4.15-44.47a135.47,135.47,0,0,1,7.35-18.84c0.55-1.17,5.12-7.69,4.67-9-2.05-5.89-13.6,14.66-14.7,16.48-2.7,4.48-5.55,8.91-8.12,13.47-5.58,9.88-10.35,21-10.51,32.52-0.14,10,2.21,20.11-1.83,29.76,1.14-.84,2.79-1,4-1.77-0.16,1.48-.24,4.3.36,5.66A12,12,0,0,0-2963.61,3020.89Z" transform="translate(3002.52 -2788.49)"/><g class="cls-16"><path class="cls-24" d="M-2951.11,2975.51c1.31-13.4,5.86-26.49,11.7-38.55,0.51-1.06,4.44-6.89,4.11-7.82-1.27-3.58-4.68-1.18-6.27,1.31a4.76,4.76,0,0,1,4-2.32c4.74,1.75-12.36,19.88-7.36,7.69q-5.57,9.09-11,18.26c6.55-9.53,5.6.46,4.58,5.92a141.67,141.67,0,0,0-2.86,23.82c-0.19,9.9,1.4,19.6,1.62,29.42,0.09,4,2,7.72-3,9-2.19.56-7.76-4.74-8.37-4.25a6.7,6.7,0,0,0-1.11,3c0.23-1.05-.62-3.31-0.6-4.59q-1.38.92-2.78,1.81c-0.53.34,4-9.73,4-9.78,1.63-5.44-.59-9.91.29-14.69,0.7-3.81,3.87-4.34,4.41-8.28,1.26-9.32-4.63-14-.43-24.23-6.8,12.69-9.14,24.34-8.48,38.57,0.34,7.31.25,15.24-2.85,22,1.24-.92,3.05-1.08,4.35-1.93-0.06.5-.05,5.5,0.65,5.5,0.89,0,2.53-3.08,2.87-3.79,2.33,2.87,7.25,4.87,10.93,3.93,6.93-1.76,3.26-1.63,3.53-6.27,0.84-14.38-3.44-28.9-2-43.74h0Z" transform="translate(3002.52 -2788.49)"/></g><path class="cls-27" d="M-2870.72,2888.24c-13.56,19.13,3.62,39.77,24.44,40.38-3.79-7-6.3-15.56-4.66-23.54,2.75-13.42,7.69-23.18-1.68-35.81S-2868.08,2880.24-2870.72,2888.24Z" transform="translate(3002.52 -2788.49)"/><path class="cls-28" d="M-2845.65,2929c-12.92-.13-26.06-6.6-29.57-20-2.74-10.48,3.91-21.39,7.86-30.78,1.91-4.54,5.28-15.94,11.75-13.36,7.49,3,9.95,19.93,9.26,26.22-1,9.14-5.89,15.42-4.15,24.92A42.69,42.69,0,0,0-2845.65,2929Zm-11.83-64.36c-6.44,0-13.89,23.63-16.26,30-6.78,18.24,9.56,32.86,26.85,33.58-5.2-9.91-5.31-18.53-2.33-29,1.78-6.26,3.19-11.68,1.63-18.29C-2848.49,2877.17-2853,2864.61-2857.48,2864.61Z" transform="translate(3002.52 -2788.49)"/><path class="cls-29" d="M-2858.77,2872.3c13.65,16.08-18.73,31,2.9,48.16C-2879.47,2904-2846.11,2889.16-2858.77,2872.3Z" transform="translate(3002.52 -2788.49)"/><g class="cls-18"><path class="cls-27" d="M-2868.24,2912.5c-1.91-4.09-3.66-16.36,3-18.17,1.11-.3-1.17,14.6,2.12,18.79-3.32-6.23-.37-12,2.57-17.49,0.55-1,6.15-13.83,7.28-14.22,7.75-2.66,5.62,14.65,4.21,18.45,2.76-6.68,2.89-38.57-10-35-6,1.65-9.11,17.36-11.3,22.3-3.14,7.09-6.64,13-4.67,21.27,3.17,13.3,16.08,19.83,28.75,20.21-9.11-3.28-17.4-6.37-22-16.12h0Z" transform="translate(3002.52 -2788.49)"/></g><path class="cls-30" d="M-2849.14,2892.09c-0.3,5.36-3.48,9.63-4.47,14.76-0.51,2.63,2.82,16.41,2.92,16.32-3.66,3.14-8.18-14.54-8.08-16.15C-2858.61,2904.49-2850.37,2887.92-2849.14,2892.09Z" transform="translate(3002.52 -2788.49)"/><path class="cls-30" d="M-2849.11,2925.15q0.78,1.86-.91.76-0.78-1.86.91-.76h0Z" transform="translate(3002.52 -2788.49)"/><path class="cls-22" d="M-2856.91,2864.76c2.23,9.36,14,11.88,14.18,21.32,0.18,8.88-7.16,21.35,7.17,24.53-4.86-9.5,7.22-22.15,9.19-31.59,2-9.67.84-17.78-5.61-25.54-6-7.16-13.21-10.75-20.58-5.82C-2862.16,2854.09-2861.13,2855.67-2856.91,2864.76Z" transform="translate(3002.52 -2788.49)"/><path class="cls-29" d="M-2834.88,2911.14c-9-1.53-11.25-10-10.19-17.79,1.52-11.2,1.46-10.43-6.36-18.69-3.31-3.5-7.82-10.65-8.66-15.62-1-5.92-1.4-2.77,4-8.17,5.12-5.12,5.26-8.18,13.68-5.6,7.42,2.27,13.47,10,16,17,2.83,7.82,1.18,16.74-1.78,24.35C-2831.19,2894.48-2839.77,2902.25-2834.88,2911.14Zm-26-55.3c1.68,3.3,3,6.94,4.7,10.16,3,5.82,8.72,8.34,11.92,13.45,5.75,9.19-8,26,8.07,30.62-3.92-9.06,5.34-17.32,8-25.48,2.54-7.69,3.79-15.84.53-23.41-2.66-6.17-9.32-14.88-16.5-15.74-8.11-1-10.57,5.86-16.76,10.39C-2860.31,2857-2859.49,2854.81-2860.89,2855.84Z" transform="translate(3002.52 -2788.49)"/><g class="cls-18"><path class="cls-31" d="M-2839.58,2906.45c-8.24-9.22,3.41-17.11,1.44-26.77-1-5.05-8.9-14.55-6.61-19.88,1.45-3.37,9.32,20.51,8.42,20.17,4.56,1.76-5-32.29-6.28-31.4,4.7-3.28,14.91,12.38,16.61,15.83-2.65-8.65-14-24-25-19.15-1.35.6-8.36,8.11-8.95,9.42-1.38,3.07.41,4.47,2.35,8.62,1.3,2.8,2,5.66,3.85,8.24,3.54,4.89,10.33,6.64,11.2,13.19,1.2,9-8.48,22.47,7,25.9-4.06-7.94,2.89-14.47,5.92-21.17-3.51,4.09-6,7.09-8.08,12-0.33.79,0.38,7.11-1.86,5C-2843.81,2901.71-2836.53,2909.34-2839.58,2906.45Z" transform="translate(3002.52 -2788.49)"/></g><path class="cls-29" d="M-2849.83,2848.39a32.9,32.9,0,0,1,13.75,29A39.5,39.5,0,0,0-2849.83,2848.39Z" transform="translate(3002.52 -2788.49)"/><path class="cls-29" d="M-2850.1,2849.17c2.77,5.26,4.92,11.28,4.85,17.29C-2846.2,2860.55-2848.23,2854.85-2850.1,2849.17Z" transform="translate(3002.52 -2788.49)"/><g class="cls-18"><path class="cls-31" d="M-2848.47,2869.42c-5.28-5.79.32-15.41,2.17-10.05a5.21,5.21,0,0,1,.24-4.1c1.53-1.23,6.28,5.43,6,5.12-2-6.28-13.48-20.65,2.59-12.13-8.21-6-14.31-3.46-19.6,4-4.16,5.86-4.5,2.64-.59,11,2.82,6.06,4.83,8.77,9.75,13.67,7.58,7.55,3.66,9.34,2.63,19C-2840.56,2884.68-2839.42,2879.34-2848.47,2869.42Z" transform="translate(3002.52 -2788.49)"/></g><path class="cls-32" d="M-2833.69,2857.71a20.72,20.72,0,0,1,3.67,8.83c1,5.15-3.92,14.41-2.11,18.32,0.65,1.41,6.08-11.89,6-13.75-0.13-3.93-3-13.37-7.51-15Q-2834.73,2856.45-2833.69,2857.71Z" transform="translate(3002.52 -2788.49)"/><path class="cls-32" d="M-2832.25,2888.87l-1.56,1.24q-1.55-2.28,1.05-3.17l0.51,1.93h0Z" transform="translate(3002.52 -2788.49)"/><path class="cls-22" d="M-2859,2839.71c5.75,0.75,14,7.18,6.36,12.61C-2862.05,2859.06-2859,2844.23-2859,2839.71Z" transform="translate(3002.52 -2788.49)"/><path class="cls-29" d="M-2856.26,2854.24c-6.9,0-3-10.81-3.06-14.93C-2850.07,2840.2-2845,2854.24-2856.26,2854.24Zm-2.34-14.11c-0.05,4-3.79,16.72,4.9,12.64,8-3.74,1.08-11.7-4.9-12.64C-2858.62,2841.63-2857,2840.38-2858.6,2840.13Z" transform="translate(3002.52 -2788.49)"/><g class="cls-18"><path class="cls-31" d="M-2852.23,2842.13c1.31,2.56,1.65,8.43-2.57,3.66-2-2.31-1.45-5.68-4.15-6.07,0,4.14-3.42,12.81,2,13.91,6.08,1.24,9.55-8,4.71-11.5C-2852.22,2842.15-2851,2843-2852.23,2842.13Z" transform="translate(3002.52 -2788.49)"/></g><path class="cls-29" d="M-2857,2846.53c1.75,1.06,3,1.07,3.5,3.32C-2854.63,2848.68-2855.9,2847.69-2857,2846.53Z" transform="translate(3002.52 -2788.49)"/><path class="cls-2" d="M-2875.37,2875.84a25.4,25.4,0,0,1-5.45,8.9q2.15-8.24,4.18-16.52a19.33,19.33,0,0,1-5.09,7.08,73.33,73.33,0,0,0,.18-25.61,24.1,24.1,0,0,1-.72,5.63,42.68,42.68,0,0,1-9.44-11.26l-0.18,8.53a11,11,0,0,1-4.72-6.36c-4.7,4-12.06,4.61-18,4.54l4.17-5.63a52.47,52.47,0,0,1-10.89,6c1.16-1.56,2.2-3.3,3.27-4.9-4.83,5.17-13.61,6.73-20.33,7.81a52.43,52.43,0,0,1,6.53-7.26c-6,1.84-13.32,3.66-18.33,7.63,0-2.33,1.75-5.37,3.09-7.26-0.79.83-9.58,7.44-9.8,3.45-1,3.23-11.94,21.1-13.43,13.26a7,7,0,0,1-3.81,2.72c11,13.6-2.65,27,5.16,39.78,8,13.1,24.61,19.34,39.25,19.79,15.35,0.47,32.68-4.41,44.17-15C-2874.68,2901.16-2875.37,2889.42-2875.37,2875.84Z" transform="translate(3002.52 -2788.49)"/><path class="cls-3" d="M-2928.05,2926.57c-15.52,0-34.35-6.79-42.06-21.42-4.34-8.23.41-12.57,1.11-20.57,0.52-6-2.2-13.59-5.78-18.26a9.09,9.09,0,0,0,5.53-4.6c-2.69,6.07,1.75,3.17,4.56.81,3.72-3.13,6.71-9.25,8.09-13.9,1.37,5.94,6.69-.16,9.85-1.27a16.93,16.93,0,0,0-2.95,6.29c5.62-3.81,12.74-5.73,19.21-7.63a56.94,56.94,0,0,0-7.15,7.55c7.22-1.23,14-5.39,19.93-7.12-1,1.18-1.65,2.64-2.58,3.87a56.84,56.84,0,0,0,11.68-6.95l-5.24,7.06c5.87,0,12.8-.91,17.45-4.82a11,11,0,0,0,4.17,6.35l0.2-9.19a43.39,43.39,0,0,0,9.56,11.92,30.91,30.91,0,0,0,.58-8.43,71.74,71.74,0,0,1,.72,28c1.63-1.63,3.67-4.93,4.9-6-1.33,5-2.5,10-3.79,15A23.42,23.42,0,0,0-2875,2873c0,11.37,1.65,23.12-5.36,32.92C-2890.67,2920.34-2911.17,2926.53-2928.05,2926.57Zm-45.43-59.77c9.94,13.54-2.55,26.68,4.7,39.16,8,13.77,26.06,19.91,41,19.88,15.26,0,32.62-5.21,43.43-16.43,9-9.36,8.56-19.51,8.56-31.56a29.08,29.08,0,0,1-5.8,8.21q1.93-7.38,3.77-14.78a23.44,23.44,0,0,1-4.5,5,77.82,77.82,0,0,0,.85-23.35,19.29,19.29,0,0,1-.65,3,44.73,44.73,0,0,1-9.3-10.65l-0.17,7.9a11,11,0,0,1-5.26-6.33c-5,3.83-12.39,4.44-18.48,4.26,1.19-1.36,2-3.16,3.27-4.42a63.15,63.15,0,0,1-10.25,5.24c0.94-1.16,1.55-2.59,2.49-3.74-5.41,3.79-12.58,5.34-19,6.28,1.32-2.71,3.43-4.71,5.65-6.9-5.88,1.87-12.38,3.83-17.37,7.58,0.82-2.12.65-3.88,1.87-6.1-1.79,1.4-7.54,2-8.22,2.61-2.22,1.81-3.75,6.92-5.68,9.36-4.85,6.11-6,4.22-10.93,5.78C-2969.83,2871.77-2972.37,2866.44-2973.48,2866.8Z" transform="translate(3002.52 -2788.49)"/><path class="cls-4" d="M-2947,2905.24c2.89,1.76,19.63-.75,24.15-2.12,5.13-1.56,21.08-15.92,17.5.94-2.32,10.94-15.79,2.46-23.41,2.27C-2930.65,2906.29-2951.77,2910.65-2947,2905.24Z" transform="translate(3002.52 -2788.49)"/><g class="cls-7"><path class="cls-8" d="M-2875.37,2875.84a25.4,25.4,0,0,1-5.45,8.9q2.15-8.24,4.18-16.52a19.33,19.33,0,0,1-5.09,7.08,73.33,73.33,0,0,0,.18-25.61,24.1,24.1,0,0,1-.72,5.63,42.68,42.68,0,0,1-9.44-11.26l-0.18,8.53a11,11,0,0,1-4.72-6.36c-4.7,4-12.06,4.61-18,4.54l4.17-5.63a52.47,52.47,0,0,1-10.89,6c1.16-1.56,2.2-3.3,3.27-4.9-4.83,5.17-13.61,6.73-20.33,7.81a52.43,52.43,0,0,1,6.53-7.26c-6,1.84-13.32,3.66-18.33,7.63,0-2.33,1.75-5.37,3.09-7.26-0.79.83-9.58,7.44-9.8,3.45-1,3.23-11.94,21.1-13.43,13.26a7,7,0,0,1-3.81,2.72c11,13.6-2.65,27,5.16,39.78,8,13.1,24.61,19.34,39.25,19.79,15.35,0.47,32.68-4.41,44.17-15C-2874.68,2901.16-2875.37,2889.42-2875.37,2875.84Zm-17.27,36.3c-13.79,9.07-30.72,14.27-47.12,10.19-13.22-3.29-31.72-13.72-27.43-29.72,0.91-3.4,3.05-5.89,3.4-9.44,0.39-3.95-3.11-13.69,2.76-16.07,5.4-2.19,1.62,5.09,2.06,9.09a25.45,25.45,0,0,0,1.9,7.11c1.21,2.83-1.11.44-1.11,2.95,5-1.42,10.2,2,13.4,5.61-0.28-5.38,6.82-8.88,9.78-4,5.66-2.77,2.86-11.34,1.34-15.72-0.37-1.08-5.12-12-3.53-11.52a14.62,14.62,0,0,0,3.42,2.88c4.08-5.15-3.11-8.45,4.46-6.84,0,0,2,3.13,3.2,3.55,2.36,0.82,6.58-2.54,8.82-2.42-4.48-.23-2.95,18.21-2.2,20.09,2.28,5.7,5.39,6.12,9.5,9.65,0.7,0.6,2.19,0,3,.37s0.57,3.65,1.17,4.51c3-6.5,11.33-9.62,17.74-6.34-0.94-2.28-3.87-3.72-6.16-4.16,2.27-5.63-3.51-32.76,7.23-16.1,4.19,6.49,3.7,15.48,4.36,22.86,0.92,10.26-.56,17.29-10,23.47h0Z" transform="translate(3002.52 -2788.49)"/><path class="cls-4" d="M-2956.7,2860.6a12.68,12.68,0,0,1,5.58-1.46c-9.39,5.38-8.27,17-3.4,25.13a12.2,12.2,0,0,0-2.07,1,12.13,12.13,0,0,1,10,4.37,3.3,3.3,0,0,0-.61-1.94c6.76-.51,9.82-6.52,10.22-12.7,0.34-5.36-1.14-11.38-5.61-14.81C-2945.88,2857.66-2954.77,2855.32-2956.7,2860.6Z" transform="translate(3002.52 -2788.49)"/><path class="cls-4" d="M-2904.49,2854.89c-19.52-5.26-20.11,33.62.24,31.93a5.81,5.81,0,0,0-1.09,3.4c3.1-4.45,7.81-6.8,13.23-5.83-5.86-5-1.19-4.8-2.05-13.51-0.71-7.12-6.94-16.88-15.67-14.29C-2910,2855.44-2905.14,2855-2904.49,2854.89Z" transform="translate(3002.52 -2788.49)"/></g><path class="cls-33" d="M-2895.34,2869.5c3.56,17.91-19.2,22.43-22.77,4.58s19.16-22.71,22.77-4.58h0Z" transform="translate(3002.52 -2788.49)"/><path class="cls-3" d="M-2895.34,2869.5c3.59,19.79-21.81,22.49-23.47,2.72C-2920.24,2855.15-2898.74,2852.68-2895.34,2869.5Zm0,0c-3.9-17-24.72-13.12-22.46,3.55C-2915.28,2891.68-2892.15,2888.06-2895.34,2869.5Z" transform="translate(3002.52 -2788.49)"/><g class="cls-7"><path class="cls-34" d="M-2909.57,2857.51c-15.07,3-9.36,31.6,5.69,28.58s9.41-31.62-5.69-28.58h0Zm12.63,12.32c3.06,15.31-16.51,19.27-19.57,3.94-3-15.17,16.47-19.54,19.57-3.94C-2895.58,2876.61-2898.28,2863-2896.94,2869.82Z" transform="translate(3002.52 -2788.49)"/></g><path class="cls-35" d="M-2904.82,2889.63a7.94,7.94,0,0,1,11-5.43A10.6,10.6,0,0,0-2904.82,2889.63Z" transform="translate(3002.52 -2788.49)"/><path class="cls-35" d="M-2945.89,2891.07a13.26,13.26,0,0,0-9.77-5.59A8.66,8.66,0,0,1-2945.89,2891.07Z" transform="translate(3002.52 -2788.49)"/><path class="cls-36" d="M-2957.44,2873.22c0.4,16.58,19.63,16.49,19.26-.26-0.37-16.38-19.66-16.84-19.26.26C-2957.26,2880.68-2957.61,2865.74-2957.44,2873.22Z" transform="translate(3002.52 -2788.49)"/><path class="cls-3" d="M-2957.44,2873.22c0.43,12.34,14,19.2,18.24,4.7C-2934.07,2860.38-2957.69,2852.67-2957.44,2873.22Zm0,0c-0.54-21,24.56-13.58,18.93,4.89C-2943,2892.92-2957.12,2886-2957.44,2873.22Z" transform="translate(3002.52 -2788.49)"/><g class="cls-7"><path class="cls-37" d="M-2957.44,2873.22c0.4,16.58,19.63,16.49,19.26-.26-0.37-16.38-19.66-16.84-19.26.26C-2957.26,2880.68-2957.61,2865.74-2957.44,2873.22Zm9.36-11.76c11-.15,11.66,22.81.54,23.26S-2959.24,2861.61-2948.08,2861.46Z" transform="translate(3002.52 -2788.49)"/></g><path class="cls-38" d="M-2861.13,2856.43a14.18,14.18,0,0,0,9.9-2.17c-7.06,0-16.8-6.3-23.69-8.12-19.36-5.12-40-6-59.9-4.81-15.27.89-31.3,3-45.09,10.11-7,3.6-13.51,13.81-20.75,14.4,3.17,1,6.13,1,8.93-.72-2.15,2.79-7.06,10-4.94,14-1.34-2.54,4.28-7.09,6.63-7.5-1.63,3.09-2.36,7.11-.72,10.38a11.54,11.54,0,0,1,4.59-7.24c-0.87,4.35-1.71,11,1.21,14.72,0-4.19,1.22-2.5,2.41-4.83-0.2,4.19-.16,10.1-2.41,13.76a13,13,0,0,0,6.52-5.55c0.72,3.43,3.05,7.6,6.76,8.45-2.12-6.2,2.76-12.13,3-18.22a27.91,27.91,0,0,0-5.4-16.61,7,7,0,0,0,3.8-2.71c1.36,7.83,12.4-10.12,13.4-13.22,0.23,4.13,9.06-2.67,9.78-3.44-1.33,1.89-3.08,4.92-3.08,7.24,5-4,12.28-5.77,18.29-7.61a45.94,45.94,0,0,0-6.52,7.24c6.58-1.05,15.51-2.69,20.27-7.79-1.06,1.59-2.09,3.36-3.26,4.89a52.34,52.34,0,0,0,10.86-6l-4.16,5.61c5.89,0.07,13.23-.57,17.92-4.53a11,11,0,0,0,4.71,6.34l0.18-8.51a42.4,42.4,0,0,0,9.42,11.22,24,24,0,0,0,.72-5.61,73,73,0,0,1-.18,25.53,19.2,19.2,0,0,0,5.07-7.06q-2,8.25-4.16,16.48a25.28,25.28,0,0,0,5.43-8.87c0,5-2.8,16.2,4,15.47,5.6-.6,8.79-8.87,9.51-13.54,0.91,2,2.94-9.72,1.45-12.8a27.67,27.67,0,0,1,6,4.83c0.33-5.17-1.67-10.77-6.52-13.28C-2855.81,2857.4-2853.64,2860.29-2861.13,2856.43Z" transform="translate(3002.52 -2788.49)"/><path d="M-2971.14,2901.83c-4-.91-6.37-4.25-7.44-8a14.55,14.55,0,0,1-7.27,5.35c2.27-4.25,2.61-9.12,2.9-13.88-1.76,1.24-1.42,3.41-1.65,5.26-3.28-4.17-2.93-9.92-2.11-14.88a12,12,0,0,0-3.87,7.51,12.54,12.54,0,0,1-.07-11.16c-3,.5-5,7.56-5.94,7.56-3.52,0,3.76-13.59,3.56-13.31-3,1.19-6.61.59-9.49-.65,8.39,0,11.61-8.21,18.25-12.15,11.16-6.63,23.85-9.71,36.64-11.35a205.08,205.08,0,0,1,63.64,1.62,108.1,108.1,0,0,1,21.28,6c4.22,1.75,8,4.48,12.76,4a15.79,15.79,0,0,1-9.6,3.14c4.38,3.1,5.85,8.93,5.17,14-1.26-2.35-3.13-3.6-5.44-5.13,2.51,6.14-2.74,23.93-10.82,25.43-8.48,1.58-5.34-7.54-5.34-13.54a29.47,29.47,0,0,1-5.79,8.19q1.91-7.36,3.75-14.73a23.69,23.69,0,0,1-4.48,5,77.57,77.57,0,0,0,.85-23.28,19.47,19.47,0,0,1-.65,3,44.81,44.81,0,0,1-9.28-10.62l-0.17,7.87a11,11,0,0,1-5.24-6.31c-5,3.82-12.36,4.43-18.44,4.25,1.19-1.35,2-3.15,3.27-4.41a62.91,62.91,0,0,1-10.23,5.22c0.94-1.16,1.54-2.58,2.49-3.73-5.4,3.78-12.55,5.32-19,6.27,1.32-2.71,3.42-4.7,5.63-6.88-5.86,1.86-12.36,3.81-17.32,7.56,0.82-2.12.63-3.87,1.86-6.09-1.66,1.29-7.66,2.13-8.2,2.59-1.89,1.61-3.07,5.83-4.67,8-1.48,2-3.36,5.06-5.67,6.35-2.56,1.44-3.64-2-4.91-.16-1.56,2.31,4,12.83,3.82,17.41C-2968.55,2889.69-2973.38,2895.19-2971.14,2901.83Zm-7.17-10.1c0.55,3.55,2.44,7.83,6.08,9.07-1.73-6.51,3.24-12.62,3.11-19.17a28.21,28.21,0,0,0-5.66-15.38,9.06,9.06,0,0,0,5.51-4.59c-2.67,6.06,1.75,3.15,4.55.8,3.71-3.12,6.71-9.22,8.06-13.86,1.36,5.93,6.67-.16,9.82-1.27a16.82,16.82,0,0,0-2.94,6.27c5.6-3.8,12.71-5.72,19.16-7.61a56,56,0,0,0-7.13,7.53c7.2-1.22,13.93-5.39,19.88-7.1-1,1.18-1.64,2.64-2.57,3.86a56.76,56.76,0,0,0,11.65-6.93l-5.23,7c5.86,0,12.77-.91,17.41-4.81a10.83,10.83,0,0,0,4.16,6.33c0-1.74,1.1-7.6.18-8.77-2.22-2.85-18.26-1.65-22.08-1.75-15.49-.43-31.37.28-46.52,3.79a80.22,80.22,0,0,0-22.12,8.36c-5.82,3.35-9.34,11.09-15.84,12.4,2.37,0.47,5.68-.31,7.36-0.61-2.62,3.4-5.51,8.07-5.14,12.6,1.24-3.77,3.29-6.28,7.12-6.6-1.6,2.73-2.43,6.38-1.41,9.47a12.24,12.24,0,0,1,5.23-6.85c-0.94,4.41-1.79,10.26.37,14.4,0.39-3.22,1.88-2.45,3.1-4.18-0.2,4.4-.37,9.41-2,13.52A12.4,12.4,0,0,0-2978.31,2891.73Zm103.07-1.21c6.87,4.54,12.53-9.41,13-14.17,0.18,0.21.46,1.54,0.9,1.54,4.66,0,.6-12.73-0.13-14a33.45,33.45,0,0,1,6.59,4.85c0-5.86-3-10.92-8.51-13.1a15.46,15.46,0,0,0,10.93-1.06c-4.31-.37-8.62-3.42-12.69-5a122.92,122.92,0,0,0-26.79-6.42,43.36,43.36,0,0,0,9.3,11.46,30.74,30.74,0,0,0,.57-8.41,71.43,71.43,0,0,1,.71,28c1.63-1.62,3.67-4.91,4.89-6-1.25,5-2.49,10-3.78,15a23.2,23.2,0,0,0,5.06-10.3v17.6Z" transform="translate(3002.52 -2788.49)"/><g class="cls-16"><path class="cls-38" d="M-2861.13,2856.43a14.18,14.18,0,0,0,9.9-2.17c-6.82-.2-14.73-5.59-21.31-7.47a121.46,121.46,0,0,1,16.48,7.83,42.55,42.55,0,0,1-11-.6c0.93,0.38,12.46,9.87,9.32,10.72-1.87.51-6-5.27-8.26-3.43-0.17.13,6.32,5.83,3.89,7.69,1.1-.84-6.69-2.25-6.9-2.31-2.16-.58-0.37-1-1.43-3.11,0.5,1-5.07,8.1-4.93,8.59-0.61-2.08,2.82-13.32.17-14.37,1.43,0.57-3.84,11.13-4.14,10.84-3.89-3.62,3.36-17.65-3.53-23.08,0.13,8.48-7-.14-9.41-2.41-1.19,1.49-1.27,4.55-1.09,6.4-0.52-2.2-2.18-3.49-2.05-6-4,2.48-8.5.83-13.46,2.29a28,28,0,0,0,1.39-3.9c0.17,1.41-9,3.86-9.66,4.87a8.09,8.09,0,0,0,1.26-3.77c0.8,3-16.18,6.72-16.71,7.63,1.48-2.54,3.75-4.79,5.67-7-6.67,0-13.3,2.68-19.2,5.55,0.05-.16,2.44-4.67,1.9-5.09-1.48-1.16-7.31,5.36-9.36,5.41-3.34.09-.89-0.41-2.88-3.21,2,2.76-8.11,13.34-10.3,15.21,1.38-2.8,2.87-7.17,1.09-10.14-2,6.53-5,10.39-11.11,13.64a37,37,0,0,0,1.57-6.64c-1.44,4.08-4.81,7.46-8.33,9.87,2.56,0.84,11.21-.34,9.37,4.83,0.4-1.11-10.77,7.93-11.45,8.29a3.68,3.68,0,0,1,3.08-.28c-2,1.58-4.28,6-2.44,8.42,0-3.42.88-3,2.41-4.83-0.2,4.19-.16,10.1-2.41,13.76a13,13,0,0,0,6.52-5.55c0.72,3.43,3.05,7.6,6.76,8.45-2.12-6.2,2.76-12.13,3-18.22a27.91,27.91,0,0,0-5.4-16.61,7,7,0,0,0,3.8-2.71c1.36,7.83,12.4-10.12,13.4-13.22,0.23,4.13,9.06-2.67,9.78-3.44-1.33,1.89-3.08,4.92-3.08,7.24,5-4,12.28-5.77,18.29-7.61a45.94,45.94,0,0,0-6.52,7.24c6.58-1.05,15.51-2.69,20.27-7.79-1.06,1.59-2.09,3.36-3.26,4.89a52.34,52.34,0,0,0,10.86-6l-4.16,5.61c5.89,0.07,13.23-.57,17.92-4.53a11,11,0,0,0,4.71,6.34l0.18-8.51a42.4,42.4,0,0,0,9.42,11.22,24,24,0,0,0,.72-5.61,73,73,0,0,1-.18,25.53,19.2,19.2,0,0,0,5.07-7.06q-2,8.25-4.16,16.48a25.28,25.28,0,0,0,5.43-8.87c0,5-2.8,16.2,4,15.47,5.6-.6,8.79-8.87,9.51-13.54,0.91,2,2.94-9.72,1.45-12.8a27.67,27.67,0,0,1,6,4.83c0.33-5.17-1.67-10.77-6.52-13.28C-2855.81,2857.4-2853.64,2860.29-2861.13,2856.43Z" transform="translate(3002.52 -2788.49)"/></g><path class="cls-35" d="M-2931,2890.71c-7.52-6.68-10,6.08-1.69,8.21C-2943,2898-2938.4,2882.15-2931,2890.71Z" transform="translate(3002.52 -2788.49)"/><path class="cls-35" d="M-2933.19,2876.23c2.79,4,3.1,10.4-2.41,11.95C-2931,2885.77-2931.5,2880.38-2933.19,2876.23Z" transform="translate(3002.52 -2788.49)"/><path class="cls-39" d="M-2924,2905c5-1,13-10.46,16.06-4.35C-2902.59,2911.43-2920.74,2905.22-2924,2905Z" transform="translate(3002.52 -2788.49)"/><g class="cls-18"><path class="cls-40" d="M-2911.82,2898.19a12.43,12.43,0,0,1,1.45,9.18A60,60,0,0,0-2911.82,2898.19Z" transform="translate(3002.52 -2788.49)"/><path class="cls-40" d="M-2916.17,2901.94c0.62,1.82,1.33,2.95.6,5A32.84,32.84,0,0,1-2916.17,2901.94Z" transform="translate(3002.52 -2788.49)"/></g><path class="cls-41" d="M-2899.28,2870.12c2.54,12.2-11.64,15.16-14.19,3s11.63-15.16,14.19-3C-2898.15,2875.55-2900.42,2864.7-2899.28,2870.12Z" transform="translate(3002.52 -2788.49)"/><g class="cls-42"><path class="cls-43" d="M-2908.44,2861.78c-9.53,2-5.42,21.64,4.11,19.65s5.43-21.63-4.11-19.65h0Zm5.1,18.57c-9.86,3.83-8-11.63-7.8-11.6s1.57,6.8,2.56,7.46c3.52,2.37,9.11-3.26,7.07-4.78,2.63,2,.69,7.95-1.83,8.92h0Z" transform="translate(3002.52 -2788.49)"/></g><path d="M-2902.79,2870.86c1.29,6.19-5.9,7.7-7.19,1.5s5.9-7.7,7.19-1.5h0Z" transform="translate(3002.52 -2788.49)"/><path class="cls-44" d="M-2901.18,2866c2.09,4.68-3.43,6.65-5.37,2.16-2-4.71,3.37-6.63,5.37-2.16h0Z" transform="translate(3002.52 -2788.49)"/><path class="cls-6" d="M-2901.31,2865.92c3,6.81-4.6,1.86-4.44,1.79-0.14.06,1.4-8.64,4.44-1.79C-2900.55,2867.61-2902.06,2864.24-2901.31,2865.92Z" transform="translate(3002.52 -2788.49)"/><path class="cls-45" d="M-2910.64,2874.65c0.45,1,6.17,5.22,6.49,3.93C-2905.68,2884.69-2910.77,2874.48-2910.64,2874.65Z" transform="translate(3002.52 -2788.49)"/><path class="cls-46" d="M-2902.32,2877.5q0.11,1.37-1.18.9-0.11-1.37,1.18-.9h0Z" transform="translate(3002.52 -2788.49)"/><path class="cls-47" d="M-2940.27,2872.85c0.36,11.51-13,11.93-13.39.43s13-11.93,13.39-.43C-2940.11,2878-2940.44,2867.73-2940.27,2872.85Z" transform="translate(3002.52 -2788.49)"/><g class="cls-42"><path class="cls-48" d="M-2947.26,2863.8c-9,.28-8.41,18.82.58,18.54s8.41-18.82-.58-18.54h0Zm1.66,17.72c-5.11,1-10-8.48-5.58-11.71-0.77.56,1.68,7.16,2.18,7.51,2.29,1.62,8.28-1.75,6.5-3.63,2.08,2.2-.65,7.34-3.09,7.83h0Z" transform="translate(3002.52 -2788.49)"/></g><path d="M-2943.57,2873c0.18,5.84-6.6,6.06-6.79.21s6.6-6.05,6.79-.21h0Z" transform="translate(3002.52 -2788.49)"/><path class="cls-44" d="M-2941.33,2868.81c1.14,4.6-4.2,5.51-5.24,1.1-1.09-4.61,4.13-5.49,5.24-1.1C-2940.83,2870.81-2941.83,2866.81-2941.33,2868.81Z" transform="translate(3002.52 -2788.49)"/><path class="cls-6" d="M-2941.44,2868.7c1.66,6.69-4.48.95-4.33,0.92-0.12,0,2.65-7.62,4.33-.92C-2941,2870.36-2941.85,2867.05-2941.44,2868.7Z" transform="translate(3002.52 -2788.49)"/><path class="cls-49" d="M-2951.33,2875.15c0.41,1.27,4.86,5.57,5.28,4.62C-2948.43,2885.08-2951.42,2875-2951.33,2875.15Z" transform="translate(3002.52 -2788.49)"/><path class="cls-50" d="M-2944.22,2879.07q-0.12,1.27-1.22.63,0.11-1.27,1.22-.63h0Z" transform="translate(3002.52 -2788.49)"/><g class="cls-51"><path class="cls-52" d="M-2895.85,2889c1.35-2-.73,1.22,0,0h0Z" transform="translate(3002.52 -2788.49)"/><path class="cls-52" d="M-2896.46,2890.27c2.21,0.27-.87-0.1,0,0h0Z" transform="translate(3002.52 -2788.49)"/><path class="cls-52" d="M-2891.24,2888.82c1-.39-0.64.22,0,0h0Z" transform="translate(3002.52 -2788.49)"/><path class="cls-52" d="M-2893.15,2891.49a0.32,0.32,0,0,1,.32.55A0.32,0.32,0,0,1-2893.15,2891.49Z" transform="translate(3002.52 -2788.49)"/><path class="cls-52" d="M-2897,2893.38c0.44-.44-0.29.24,0,0h0Z" transform="translate(3002.52 -2788.49)"/><path class="cls-52" d="M-2899.67,2890c0-.05.28,0.65,0,0C-2899.83,2889.84-2899.6,2890.19-2899.67,2890Z" transform="translate(3002.52 -2788.49)"/><path class="cls-52" d="M-2899.59,2891.9a0.37,0.37,0,0,1,.36.64A0.37,0.37,0,0,1-2899.59,2891.9Z" transform="translate(3002.52 -2788.49)"/><path class="cls-52" d="M-2902.6,2891.5c0.76,0.1-.53-0.08,0,0h0Z" transform="translate(3002.52 -2788.49)"/><path class="cls-52" d="M-2901.41,2895.34a0.18,0.18,0,0,1-.11-0.33A0.18,0.18,0,0,1-2901.41,2895.34Z" transform="translate(3002.52 -2788.49)"/></g><path class="cls-53" d="M-2887.11,2890.74c0-8.81-14.63-8.29-17.52-1.63-4.29,9.88,17.49,13.61,17.52,1.63C-2887.07,2881.26-2887.12,2894.7-2887.11,2890.74Zm-10.43-2.17c-2.79,3.83-3.79-1.31-3.9-1.35-0.92-.34,7.05-3,3.9,1.35h0Zm2.45-2.77s-2.83.15-1.13-1.1C-2896,2884.62-2893.62,2884.72-2895.09,2885.8Z" transform="translate(3002.52 -2788.49)"/><g class="cls-51"><path class="cls-52" d="M-2954.26,2890.57c-1-1.95.56,1.16,0,0h0Z" transform="translate(3002.52 -2788.49)"/><path class="cls-52" d="M-2953.77,2891.92c-2.22.08,0.84,0,0,0h0Z" transform="translate(3002.52 -2788.49)"/><path class="cls-52" d="M-2958.83,2890h0Z" transform="translate(3002.52 -2788.49)"/><path class="cls-52" d="M-2957.17,2892.83a0.32,0.32,0,0,0-.37.52A0.32,0.32,0,0,0-2957.17,2892.83Z" transform="translate(3002.52 -2788.49)"/><path class="cls-52" d="M-2953.55,2895.06h0Z" transform="translate(3002.52 -2788.49)"/><path class="cls-52" d="M-2950.55,2892c0.1-.1-0.39.68,0,0C-2950.37,2891.8-2950.63,2892.12-2950.55,2892Z" transform="translate(3002.52 -2788.49)"/><path class="cls-52" d="M-2950.8,2893.83a0.37,0.37,0,0,0-.42.6A0.37,0.37,0,0,0-2950.8,2893.83Z" transform="translate(3002.52 -2788.49)"/><path class="cls-52" d="M-2947.76,2893.7c-0.93.06,0.68,0,0,0h0Z" transform="translate(3002.52 -2788.49)"/><path class="cls-52" d="M-2949.3,2897.42a0.18,0.18,0,0,0,.14-0.32A0.18,0.18,0,0,0-2949.3,2897.42Z" transform="translate(3002.52 -2788.49)"/></g><path class="cls-54" d="M-2955.75,2899.95c11.14,1.31,14.09-10.61,3.17-13.69-11.64-3.29-14.19,12.41-3.17,13.69h0Zm3.43-11.71c2.86-2.84,3.66,2.48,3.66,2.48,0.66,0.48-7.23,1.07-3.66-2.48h0Zm-1.3-2c-0.51.58,1.07,1.85-1.11,1.1Q-2955.26,2885.76-2953.62,2886.25Z" transform="translate(3002.52 -2788.49)"/><path class="cls-2" d="M-2969.18,2878.36c-6.61-5.5-13.75-.63-10.9,7.4,0.82,2.31,5.53,8.61,8.83,6.92S-2968.61,2881-2969.18,2878.36Z" transform="translate(3002.52 -2788.49)"/><path class="cls-3" d="M-2971,2893.06c-11.86-1.14-13-21.53-1.38-17C-2965.25,2878.83-2968.44,2887.64-2971,2893.06Zm-4.55-17c-10.5,0-2.44,18.88,4.09,16.19C-2965.91,2890-2968.26,2876.11-2975.57,2876.11Z" transform="translate(3002.52 -2788.49)"/><path class="cls-10" d="M-2875.62,2878.62q0,2.11,0,4.22Q-2875.62,2876.49-2875.62,2878.62Z" transform="translate(3002.52 -2788.49)"/><path class="cls-2" d="M-2862.34,2878.42c1.63-13-10.85-9.95-13.27.19-4.3,18,11.69,13,13.27-.19C-2861.84,2874.36-2862.38,2878.7-2862.34,2878.42Z" transform="translate(3002.52 -2788.49)"/><path class="cls-3" d="M-2873.22,2891.78c-6.84-.1-2.7-23.18,5.49-23.24C-2856.41,2868.44-2863.07,2891.78-2873.22,2891.78Zm-1.82-1.14c7.86,4.34,17.06-15.06,10.82-20.06-10.87-8.72-11,16.28-10.82,20.06C-2874.54,2890.92-2875.18,2888.08-2875,2890.64Z" transform="translate(3002.52 -2788.49)"/><path class="cls-3" d="M-2876,2885.7c0.91-4.11,3.12-8.33,7.06-6.7C-2872.7,2878.48-2874.22,2882.17-2876,2885.7Z" transform="translate(3002.52 -2788.49)"/><path class="cls-3" d="M-2874.71,2883.35c1.57-.77,2.07-2.73,3.62-0.9C-2872.54,2882-2873.24,2882.89-2874.71,2883.35Z" transform="translate(3002.52 -2788.49)"/><path class="cls-3" d="M-2975.45,2884.65c-2-7.58,5.31.49,5.86,3.93C-2970.53,2886.22-2975.71,2877.77-2975.45,2884.65Z" transform="translate(3002.52 -2788.49)"/><path class="cls-3" d="M-2973.52,2887.69c1.4-.8,1.69-2.73,3.31-1C-2971.65,2886.2-2972.09,2887.09-2973.52,2887.69Z" transform="translate(3002.52 -2788.49)"/><path d="M-2961.52,2857.95c3.44-1.15,21.59-1.17,21.69,4.3,0-.59-1.83-6.61-2.72-6.6a3.86,3.86,0,0,0-.07,2c-0.19-2.52-9.39-6.45-11.15-6.48C-2959.12,2851.08-2960.71,2857.7-2961.52,2857.95Z" transform="translate(3002.52 -2788.49)"/><path d="M-2921.79,2856.51a88.93,88.93,0,0,1,13.88-3.35c5-.73,13.67,1.76,8.57-4.62-4.38-5.48-8.57-2.29-13.59.4C-2914.8,2849.94-2923.6,2856.89-2921.79,2856.51Z" transform="translate(3002.52 -2788.49)"/><path class="cls-35" d="M-2927.76,2856.51c0.71-1.6.85-2.63,2.47-3.8C-2925.71,2854.39-2926.75,2855.25-2927.76,2856.51Z" transform="translate(3002.52 -2788.49)"/><path class="cls-35" d="M-2936.42,2855.09c0.92,1.56,2.1,2,1.42,4.18C-2935.5,2857.89-2936,2856.5-2936.42,2855.09Z" transform="translate(3002.52 -2788.49)"/><path class="cls-35" d="M-2947.55,2906.28c2.35,3.69,18.88-2.13,24.62-1.33C-2928,2905-2945.78,2910.11-2947.55,2906.28Z" transform="translate(3002.52 -2788.49)"/><path class="cls-35" d="M-2913.39,2896.15c2.31-2.56,5.32-2.35,6.76.72A5,5,0,0,0-2913.39,2896.15Z" transform="translate(3002.52 -2788.49)"/><path class="cls-35" d="M-2933.43,2911.84a4.94,4.94,0,0,1,6.4-1A14.7,14.7,0,0,0-2933.43,2911.84Z" transform="translate(3002.52 -2788.49)"/><path class="cls-35" d="M-2924,2905c3.62-.81,11.47-8.22,14.06-7.22,6,2.31,2.39,9.05-1.56,10.38C-2914.81,2909.21-2920.94,2905.49-2924,2905Zm0,0c3.25,0.29,9.15,3.66,12.27,2.44,2.8-1.09,7.1-6.81,1.59-9C-2912.09,2897.6-2920.69,2904.52-2924,2905Z" transform="translate(3002.52 -2788.49)"/><path d="M-2975.74,2859.63a16.21,16.21,0,0,1-6.53,8.62c4.76-1.6,12.54-1.74,14.86-9-1.4,7-9.57,10-16,8.93a18.32,18.32,0,0,0,7.68-8.57C-2976,2860.5-2976.12,2860.46-2975.74,2859.63Z" transform="translate(3002.52 -2788.49)"/><path class="cls-4" d="M-2938.56,2893.22c2.31,2.45,10.91,1.46,11.11,2.28C-2926.23,2900.72-2939.7,2899.86-2938.56,2893.22Z" transform="translate(3002.52 -2788.49)"/><path class="cls-9" d="M-2932.09,2872.76c1.74,4-.58,17.63,3,15,3.36-2.47,2.89-7.17,1.63-10.64C-2928.17,2875.14-2933.19,2870.28-2932.09,2872.76Z" transform="translate(3002.52 -2788.49)"/><path class="cls-9" d="M-2931.73,2893.08c-1.65,4.68-5.64-2-5.77-2,0.13,0,7.42-2.66,5.77,2h0Z" transform="translate(3002.52 -2788.49)"/><path class="cls-35" d="M-2918.09,2867.14c0-6.07,3.73-12.6,10.45-12.21C-2913.94,2855.62-2917.13,2861.32-2918.09,2867.14Z" transform="translate(3002.52 -2788.49)"/><path class="cls-35" d="M-2953.83,2858.12c6.72-1.73,13.25,2,14.48,8.93C-2941.54,2860.77-2947.15,2857.48-2953.83,2858.12Z" transform="translate(3002.52 -2788.49)"/><path class="cls-9" d="M-2944.78,2905.32s4.71-2.05,12.8-2.17C-2927.76,2903.26-2939.95,2901.21-2944.78,2905.32Z" transform="translate(3002.52 -2788.49)"/><g class="cls-7"><path class="cls-8" d="M-2969.18,2878.36c-3.1-2.46-9.4-4.31-11.16.8,4.79-4.67,5.42,4.36,5.09,6.1a1.82,1.82,0,0,1,.75-2c2.51-.14,1,4.2.65,5.2a2.22,2.22,0,0,1,1.95-.57c1.48,0.74-1.57,3.23-3,2.52-2.77-1.39-4.48-2.81-5.56-5.94,0.66,2.82,5.21,10,9.21,8.23C-2967.84,2891.2-2968.66,2880.78-2969.18,2878.36Z" transform="translate(3002.52 -2788.49)"/></g><g class="cls-7"><path class="cls-8" d="M-2873.44,2886.73c0-.21,2.94-6.93,4-2.78a3.1,3.1,0,0,0-1.81-3.86,2.41,2.41,0,0,1,3.62.48c0.47-1.77-4.72-14.9,4.79-8.32-3.42-9.34-11.68,1.84-12.75,6.36-1,4.19-1.38,12.21,3.25,12.75,3.19,0.37,6.58-4.19,7.86-6.53-0.77,1-9.25,6.78-8.93,1.9C-2873.2,2883-2873.64,2889.92-2873.44,2886.73Z" transform="translate(3002.52 -2788.49)"/></g><g class="cls-16"><path class="cls-38" d="M-2989.64,2875.31a19.06,19.06,0,0,1,3.34-9.18,18.35,18.35,0,0,0-6.4,3.71c1.14-2.9,3.66-5.45,5.84-7.61-2.11.92-2.77,1.64-5.56,1.3,6.67-2.72,12.49-11,18.81-14.9-5.49,2.14-12.43,5.33-16.72,9.45-3.72,3.58-3.41,7.2-10.33,7.76,3.17,1,6.13,1,8.93-.72-2.15,2.79-7.06,10-4.94,14-1.34-2.54,4.28-7.09,6.63-7.5-1.63,3.09-2.36,7.11-.72,10.38a11.54,11.54,0,0,1,4.59-7.24q-0.34,1.73-.51,3.49a20.24,20.24,0,0,1,3.81-7.78,10,10,0,0,0-6.77,4.82C-2989.27,2870.21-2987.32,2871.13-2989.64,2875.31Z" transform="translate(3002.52 -2788.49)"/></g><path class="cls-38" d="M-2956.05,2853c2.24,0.28,12.38,3.23,12.54,5.5C-2943.9,2853-2955.34,2853.89-2956.05,2853Z" transform="translate(3002.52 -2788.49)"/><path class="cls-38" d="M-2919.77,2854.78s10.19-6.52,15.77-6.16C-2900.44,2849-2905.66,2843.28-2919.77,2854.78Z" transform="translate(3002.52 -2788.49)"/><path class="cls-55" d="M-2960.81,2846.36s-1.56,6.93-4.2,10.35S-2958.06,2855.88-2960.81,2846.36Z" transform="translate(3002.52 -2788.49)"/><path class="cls-55" d="M-2969.45,2850.38s-2.46,7.56-5.24,11.1C-2968.83,2859.32-2968.36,2853.62-2969.45,2850.38Z" transform="translate(3002.52 -2788.49)"/><path class="cls-55" d="M-2977,2857.82s-6,5.07-7.61,9.78S-2987.5,2859.45-2977,2857.82Z" transform="translate(3002.52 -2788.49)"/><path class="cls-55" d="M-2878.87,2848.95a24.46,24.46,0,0,1,.9,13.4C-2879.05,2866.33-2872.17,2855.47-2878.87,2848.95Z" transform="translate(3002.52 -2788.49)"/><path class="cls-55" d="M-2873.44,2852.93s1.09,2.71-.37,11.59C-2874.89,2869.77-2869.1,2862.53-2873.44,2852.93Z" transform="translate(3002.52 -2788.49)"/><path class="cls-55" d="M-2869.41,2855.39s6.27,2.83,8.32,6.27S-2860.31,2855.08-2869.41,2855.39Z" transform="translate(3002.52 -2788.49)"/><path class="cls-55" d="M-2922.45,2843c-0.81.84-7.75,6.4-8.07,6,2.42,3.08,11.84-6.41,10.47-6.92Z" transform="translate(3002.52 -2788.49)"/><path class="cls-22" d="M-2859.19,2851.85c6,0.4,1.05-7.31.43-9.79-1.08-4.35-1-8.88-2.4-13.26a53.67,53.67,0,0,0-17.79-26.3c-23-18.23-60.7-18.07-84.44-1.43a64.72,64.72,0,0,0-22.4,27.65c-2.08,5-3,9.79-4,15-0.34,1.81.55,4.56-.06,6.19-0.82,2.2-7,3.58-3.89,6.95s14.11-5.67,17.35-7.11c12.27-5.42,26-7.34,39.23-8.26C-2912.29,2839.76-2882,2839.95-2859.19,2851.85Z" transform="translate(3002.52 -2788.49)"/><path class="cls-29" d="M-2990.69,2858.25c-6.21,0-3.13-3.59-2.32-6.48q4.28-1.33,2.74-5.53a41.9,41.9,0,0,1,.85-7.28A60.45,60.45,0,0,1-2977,2813.3a66.31,66.31,0,0,1,40.2-23.55c19.84-3.5,43.46.1,59.21,13.37,13.68,11.52,16.8,25.72,19.21,42.22,0.45,3,5.65,5.79-1.15,6.75-1.31.18-5-2.23-6.39-2.75-15.31-5.78-32.42-7.54-48.64-8-18.67-.48-38.36.36-56.15,6.58C-2975.48,2849.65-2986.06,2858.25-2990.69,2858.25Zm67.43-68.91c-17.23,0-34,5.73-46.71,17.5a63.49,63.49,0,0,0-16,23.24c-2.53,6.48-1.27,14.09-3.44,20-1.3,3.55-9.72,8.07.86,6.17,2.64-.47,6.24-4,8.67-5.24,11.85-6,25.34-8.35,38.44-9.57a207.44,207.44,0,0,1,57.45,2.27c7.15,1.36,13.75,4.2,20.75,5.83,1.35,0.31,3.64,2.5,5.11,1.67,4.54-2.55-.48-2.8-0.74-5.35C-2862.46,2810.27-2887,2789.34-2923.26,2789.34Z" transform="translate(3002.52 -2788.49)"/><path class="cls-29" d="M-2967.41,2840.25c23.3-10.16,50.67-9.22,75-3.8C-2917.16,2832.17-2943.55,2831.12-2967.41,2840.25Z" transform="translate(3002.52 -2788.49)"/><path class="cls-29" d="M-2989.8,2849.91a13.3,13.3,0,0,1,6.64-3.32A34.06,34.06,0,0,1-2989.8,2849.91Z" transform="translate(3002.52 -2788.49)"/><path class="cls-29" d="M-2869.82,2841.34a40.55,40.55,0,0,1,11.11,4.23A56.31,56.31,0,0,1-2869.82,2841.34Z" transform="translate(3002.52 -2788.49)"/><g class="cls-18"><path class="cls-31" d="M-2858.71,2845.57a54.57,54.57,0,0,0-9.08-30.93A52.46,52.46,0,0,0-2881,2801c-2.21-1.58-19.52-11.68-21-9.24,12.36,3,37.32,21.79,27.61,37.71-4.79,7.86-15,2.14-21.94.77-17.44-3.43-34.87-2.69-52.25.63-5.5,1.05-21,6.62-25.87,1.33-5.56-6.09,4.09-19.24,8.06-23.56,10.93-11.88,28.08-17.88,43.87-19.29-25.13-3.43-52,14.86-62.44,37.34a52.82,52.82,0,0,0-4.54,14.55c-0.29,2,.19,4.9-0.48,6.65s-3.57,3.72-3.73,5.4c-0.9,9.33,8.66.88,12.93-1.39,24.4-12.94,56.8-12.61,83.41-9.72a157.16,157.16,0,0,1,32.24,7.1c1.25,0.41,4,2.46,5.27,2.29,3.33-.45,6.52-3.52,1.07-6C-2858.29,2829.58-2853.88,2847.74-2858.71,2845.57Z" transform="translate(3002.52 -2788.49)"/></g><g class="cls-18"><path class="cls-56" d="M-2858.71,2845.57a54.33,54.33,0,0,0-18.16-41.33c6,7.29,15.92,19.79,13.76,30.29-1.84,9-9.94,4.06-17.76,3.92,3.42,0.74,28.09,8.81,13.88,7.79-10.46-.76-21.37-5.32-32.05-6.47-19.18-2.07-38.81-2.46-57.78,1.4-3.12.63-25,4.41-26.22,7.56,2.69-7.09,23.56-11.15,30.11-13a98.33,98.33,0,0,0-22.77,5.09c-5.07,1.72-6.07,3.64-8.47.49-5-6.58,7.48-26.32,11.08-31.88-9.43,9.9-13.6,20.79-16.6,33.78-0.46,2,.59,4.92-0.11,6.71s-5.1,2.47-4.59,5.38c0.63,3.58,3.56,2,5.79,1.47,3.88-.95,8.47-5.33,12.26-7a98,98,0,0,1,24.78-6.73c23.68-3.64,49.28-3.24,72.68,2.15,5.52,1.27,11.43,4.52,16.92,5.33,3.44,0.51,10.93-1.48,3.25-4.94C-2858.42,2834.42-2853.88,2847.74-2858.71,2845.57Z" transform="translate(3002.52 -2788.49)"/></g><path class="cls-6" d="M-2928.72,2793.66a55.88,55.88,0,0,1,19.79,1.08c2,0.5,16.49,6.77,16.63,5.54,0.93-8-35.9-13.65-39.76-7.41C-2932.66,2793.85-2927.84,2793.64-2928.72,2793.66Z" transform="translate(3002.52 -2788.49)"/><path class="cls-6" d="M-2886.5,2804.15c-0.78,1.5-4.84-.65-4.06-2.14s4.85,0.66,4.06,2.14C-2886.81,2804.74-2886.19,2803.56-2886.5,2804.15Z" transform="translate(3002.52 -2788.49)"/><path class="cls-32" d="M-2956.08,2805.32c16.26-19.3,63.82-24.72,74.8,3.62,6.51,16.8-23.57,5.18-31,4.25a135,135,0,0,0-30.67.14C-2948.23,2813.88-2966.24,2815.48-2956.08,2805.32Z" transform="translate(3002.52 -2788.49)"/><path class="cls-2" d="M-2915,2959.57c-0.22-2.73-.1-6.77,1.78-9,3.62-4.25,5.88-1.34,9.79-3.63,8.38-4.92,4.41-3.52,13.82-2.63,5.83,0.55,7.51.22,13.49,2.21,4.6,1.53,10.36.65,12.94,5.56,2,3.75-.76,12.2-1.75,15.76-3.16,11.42-11.48,19.95-24.45,17.5,3.18,5.94-20.64,3.44-23.19.61C-2916.88,2981.26-2914.53,2965.91-2915,2959.57Z" transform="translate(3002.52 -2788.49)"/><path class="cls-3" d="M-2893.21,2989.92c-6.91,0-18.69.42-21.33-7.05-2-5.57-1.05-17.39-.86-23.27,0.21-6.32,1.06-9.24,6.55-12.45,1.08-.63,3.06,1,4.53.14,3.34-1.85,3.61-5.47,8.25-5.84,4.89-.39,14.06,3,18.52,4,6.62,1.5,13.61,1.7,15.05,9.28s-3.15,21.06-8.75,26.23c-4.13,3.82-9.16,3.3-13.9,5.14q-4.63-2.23-4,2A4.6,4.6,0,0,1-2893.21,2989.92Zm-8.57-2.11c3.11,0,14,4.23,11.69-3,16.56,3.58,26.35-11.59,26.61-26.53,0.14-8.2-1.72-7.86-8.61-10.36s-12.79-4.2-19.89-4.39c-4.73-.12-3.42-1.91-8.81.73-1.38.68-4.48,3.23-5.73,4-1.73,1.07-3.25-.63-5.73,1.4s-2.25,6-2.48,8.69a101.76,101.76,0,0,0,.74,19.25C-2912.78,2986.73-2911.21,2987.82-2901.79,2987.82Z" transform="translate(3002.52 -2788.49)"/><path class="cls-35" d="M-2914.7,2961.09c2,6,3.63,13.79,7.58,18.67,1,1.27,1.84,2.81,3.42,3.5,4.48,2,4.07-1.74,7.61-2.11s5.62,3.81,9.16-1c2.57,3,9.09.93,13,1.65a17.07,17.07,0,0,1-4.3-1.43c-2.74,2.7-7.31,2.45-8.43.36-1.67,3.49-7.07,3.19-9.57,1.16-0.85,5.27-8.19,2.14-11-1.12C-2911.45,2975.93-2913.16,2967.12-2914.7,2961.09Z" transform="translate(3002.52 -2788.49)"/><path class="cls-35" d="M-2885.88,2962.1c0.79,6.08,1,12.67-1,18.55C-2885.85,2974.55-2886.12,2968.25-2885.88,2962.1Z" transform="translate(3002.52 -2788.49)"/><path class="cls-35" d="M-2874.58,2967.66a24.47,24.47,0,0,1-3.71,12.64C-2876.72,2976.19-2875.77,2971.9-2874.58,2967.66Z" transform="translate(3002.52 -2788.49)"/><path class="cls-35" d="M-2902.56,2963.28c5,4.6,4.07,12.4,6.57,18.37C-2899.18,2976-2898.25,2968.23-2902.56,2963.28Z" transform="translate(3002.52 -2788.49)"/><path class="cls-35" d="M-2899.7,2962.94c-0.09,1.3-.14,2.59-0.33,3.88C-2901,2965.09-2900.08,2964.47-2899.7,2962.94Z" transform="translate(3002.52 -2788.49)"/><path class="cls-35" d="M-2897.83,2983.68a6.56,6.56,0,0,1,8.21,1.55A11.27,11.27,0,0,0-2897.83,2983.68Z" transform="translate(3002.52 -2788.49)"/><path class="cls-10" d="M-2869.73,2949.7c-2.15-.11-4.76.3-6.9-0.28-1.9-.51-2.66-3.16-4.37-3.61-4.31-1.13-5.16,2.48-8.75,2-1.37-.18-2.55-3-3.62-3-7.48-.32-5.05,6-9.11,7.38-3,1-5.11-3.27-8.4-1.43-6.36,3.56,2.3,26.81,6.54,29.64,12.15,8.09,1.72-19,.57-19,0.47,0,5.22,2.59,4.95-.84,0.35,4.43.24,21.68,8.24,19.81,6.43-1.5,1.43-19.75,5.17-19.75,3.39,0-2.27,18.53,3.17,19.26,7.23,1,3.77-13.55,8-13.55,1.62,0-3.68,24,5.5,8.13,2.6-4.5,8.44-24.29-1-24.79h0Z" transform="translate(3002.52 -2788.49)"/><path class="cls-4" d="M-2866.66,2948.61c-8.06-3.17-14.86-3.69-23-4.28-4-.29-4.55-3.62-9-2-2.59,1-6,4.26-8.13,5.52-2.65,1.57-4.86-.22-7.27,3.85-1.18,2-1,4.89-1.08,7.09-0.26,7,.81,14.13.56,21.22,0-.86.78-4.76,1.91-5,1.47-.33,6.61,10.11,10.83,10.71,0.66,0.09,17.5-4.2,11.31,3.19a2.54,2.54,0,0,0,1.05-3.57c10,1.9,18.81-3.26,22.77-12.2,2.37-5.35,7.8-21.48,0-24.55h0Zm1.55,12.14c-0.31,3.19-2.82,19.75-8,18.89-5-.82,2-13.27-1.11-13.27-4.2,0-.74,14.52-8,13.55-5.44-.72.22-19.26-3.17-19.26-3.7,0,1.18,18.27-5.17,19.75-8,1.87-7.9-15.43-8.24-19.81,0.32,4.13-4.3.8-4.95,0.84,2.17-.14,10.58,31-2,17-3.93-4.35-6.8-14.78-6.76-20.65,0.06-8.2,1.73-4.84,6.26-6.35,0.79-.26,1.89,1.52,3.81.73,1.48-.61,1.53-5.69,3.74-6.88s3.2-.59,5.37-0.5a11.62,11.62,0,0,0,3.62,3l2.54-1.12a4,4,0,0,1,4.71-1.22,4.1,4.1,0,0,1,3.62,2.4c0.14,0,5.65,1.74,5.74,1.77,7.21,2.7,9,1.43,8,11.09h0Z" transform="translate(3002.52 -2788.49)"/><path class="cls-9" d="M-2905.77,2959.63c1.77,3.78,6.32,12.56,4.64,16.7-2.69,6.61-6.21-2.4-7.73-6.22-1.62-4.09-4.91-13.54-.85-17.05,2.35-2,3.93,2.63,5.86,1.87,3.45-1.36,2.56-5.68,5-6.73,4.76-2.06,6.3,1.45,11.09,1.55,2.32,0,2.39-2.25,5.84-1.88,0.77,0.08,5.07,3.62,6.23,4,6,2.14,8.21-.78,9,8,0.22,2.48-1.64,17.32-5.74,17.13-2.12-.1,3-25.27-4.61-6.83-7.36,17.79-3.83-5.75-7.11-9.39-5.4-6-2.29,16.57-8,17.09-8.21.75-2.64-18.74-6.26-19.8C-2899.82,2957.69-2904.08,2962.64-2905.77,2959.63Z" transform="translate(3002.52 -2788.49)"/><path class="cls-57" d="M-2909.64,2983.39a5.74,5.74,0,0,0-3-2.41c-2.43.55,1.53,6.51,3.7,6Q-2907.78,2985.1-2909.64,2983.39Z" transform="translate(3002.52 -2788.49)"/><path class="cls-57" d="M-2896.37,2986.65c1-.52,6.56-2,5.43.57C-2892.39,2990.47-2897.56,2987.21-2896.37,2986.65Z" transform="translate(3002.52 -2788.49)"/><path class="cls-25" d="M-2893.47,2990.65c0.58,3.82.51,8.84-3.14,10.87C-2893.93,2998.59-2893.74,2994.61-2893.47,2990.65Z" transform="translate(3002.52 -2788.49)"/><path class="cls-25" d="M-2913.45,2927c-0.06,1.16.63,1.72-.27,2.91C-2914,2928.76-2913.51,2928.05-2913.45,2927Z" transform="translate(3002.52 -2788.49)"/><path class="cls-2" d="M-2967.95,2952.87l-10.14,2.9c1.21,2.38,3,8.62,5.07,10s7.06-3.72,9.87,1.57c0.13,0.24-1.36,8.19-1.11,9.79,0.66,4.36,2,6,1.51,10.44,0,0.16-3,2.79-3.39,4.52-0.58,2.79,2.05,7,1.49,9.13-2.5,9.54-4.92,3.64-8.61-2-3-4.66-3.39-4.81-5-10.86-0.46-1.79-2.11-8.27-2.87-10-2.57-6-12.43-15-12.24-23,0.25-10.51,16-14.59,24.41-18C-2969.81,2942.28-2970,2948.16-2967.95,2952.87Z" transform="translate(3002.52 -2788.49)"/><path class="cls-3" d="M-2967.61,3007.31c-3.43,0-7.59-7.32-8.66-9.53-1.86-3.82-2.34-7-3.25-11.05-1.12-5.07-1.9-9-4.05-13-2.67-5-6.84-8.57-8.81-14.15-4.91-13.95,13.51-18.68,23.95-22.86-1,5.35-1.2,11.3,1,16.39l-10.11,2.89c2.16,4.26,3.32,7.23,6.51,8.62,2.09,0.91,5.76-1.75,7.72,1.51,1.24,2.06-1.31,2.92-.92,4.73,0.43,2,.56,5,1,7.24,1.28,6,1.85,4.44.37,10-0.15.57-2.34,2.19-2.77,4.08C-2966.34,2995.41-2961.24,3007.31-2967.61,3007.31Zm-1.78-69.42c-8.11,3.34-23.35,7.44-23.57,17.47-0.15,6.93,7.11,12.65,10.14,18.12,2.49,4.49,2.78,7.09,4,12.91,0.61,3,7.05,22,12,20.08,2.87-1.08,0-14.78.79-18.22,3.27-.18,3.64-1.88,3.92-4.61,0.25-2.46-1.94-4.14-2.42-6.26-0.57-2.53,0-4.49-.38-6.81-0.3-1.93,2.32-2.64.67-4.58-2-2.31-6.92-1.32-8.86.43-1.82-3.63-3.66-7.25-5.5-10.88,1.9-.54,8.12-1.26,9.42-2.69s-0.8-11.23-.19-15C-2972.91,2939.34-2969.74,2940.07-2969.39,2937.89Z" transform="translate(3002.52 -2788.49)"/><path class="cls-3" d="M-2986.54,2952.15c3.37-.68,7,0.42,8.45,3.62A12.2,12.2,0,0,0-2986.54,2952.15Z" transform="translate(3002.52 -2788.49)"/><path class="cls-3" d="M-2973,2965.79c-2.54,9.62-1.61,17.66,7.48,22.81C-2975.43,2984.42-2976.66,2975.33-2973,2965.79Z" transform="translate(3002.52 -2788.49)"/><path class="cls-3" d="M-2980.63,2976.29a5.43,5.43,0,0,1,6-2.65A15.21,15.21,0,0,0-2980.63,2976.29Z" transform="translate(3002.52 -2788.49)"/><path class="cls-3" d="M-2967.23,2971.59a20.75,20.75,0,0,1,2.17,4.34C-2966.71,2974.62-2966.63,2973.43-2967.23,2971.59Z" transform="translate(3002.52 -2788.49)"/><path class="cls-3" d="M-2978.21,2988.36c3.1,3.21,7.83,3.69,12.07,3.74C-2970.41,2993-2975.79,2992.42-2978.21,2988.36Z" transform="translate(3002.52 -2788.49)"/><path class="cls-3" d="M-2973.26,2999.23a13.78,13.78,0,0,0,6.88-1.33A6,6,0,0,1-2973.26,2999.23Z" transform="translate(3002.52 -2788.49)"/><g class="cls-7"><path class="cls-8" d="M-2965.05,2975.93c-3.64-4.29,6.62-9.39-1.85-11.25,0.82,1.4-2.23,7.75-2,10,0.36,3.12,6.47,9.94,5.12,12-3.9,5.89-15.09-13.64-8.62-21.41-1.16.8-4.73-7.54-5.72-9.48l10.14-2.9c-2.07-4.76-1.83-10.56-1-15.57q-5.38,2.19-10.63,4.71c3.95-2.27,6.7-2.34,7.87,2.18,2.93,11.32-11.84,5.09-16.43,8.2,4.06-3.62,14.28,12.21,12.55,16.33-3.6,8.61-11-1-14.91-5.75,2.08,4,6.92,7.92,8.46,11.87,1.17,3,.53,6.27,1.84,9.83-0.22-1-1.26-9.74,1.92-8.57,1.5,0.55.68,3.45,1.66,4.32a74.59,74.59,0,0,1,6.75,7.4c1.07,1.87,4.1,1.83,1.29,3.77-2.3,1.58-8.08-1.35-9.73-2.86a11.44,11.44,0,0,0,.14,5c1.45-2.25,5.73-1.05,8.28.29,6.55,3.44-.12,5.76-5.93,3.82,4.65,4.38,5.15,1,11,2.95-1-4.06-1.55-8.49-.31-12.28,0.49-1.49,3,0,3.51-3.19s-1.65-7.23-3.5-9.42C-2966.38,2974.36-2963.73,2977.5-2965.05,2975.93Z" transform="translate(3002.52 -2788.49)"/></g><path class="cls-9" d="M-2973.84,2968.42c-0.54,3.41,1.63,24.8,8.23,17.38,0.9-1-4.54-9.11-4.88-11.12C-2970.62,2973.92-2971.91,2959.81-2973.84,2968.42Z" transform="translate(3002.52 -2788.49)"/><path class="cls-9" d="M-2979,2980.31c0.59,3,10.36,11.85,10.74,10.51-1.45,5.11-10.47-3.39-11.12-4.91C-2980.31,2983.7-2979.49,2978.08-2979,2980.31Z" transform="translate(3002.52 -2788.49)"/><path class="cls-9" d="M-2977.9,2994.53c1.6,1,11.12,1.82,11,2.07C-2968.91,3001.32-2976.32,2997-2977.9,2994.53Z" transform="translate(3002.52 -2788.49)"/><path class="cls-9" d="M-2972.18,3003.09c13.15-.49,2.77,5.44,0,0h0Z" transform="translate(3002.52 -2788.49)"/><path class="cls-9" d="M-2991.61,2957.58c0.64,1.76,7.8,14.65,10.39,12,3.66-3.75-10.84-14.3-10.9-14.06Z" transform="translate(3002.52 -2788.49)"/><path class="cls-9" d="M-2977.07,2942.18s-9,3.41-9.92,5.23S-2971.41,2942.18-2977.07,2942.18Z" transform="translate(3002.52 -2788.49)"/><path class="cls-10" d="M-2892.75,2997.05c-0.81,2.67-2.61,4.27-5.07,5.67,7.29-12.1-10.89-9.9-15.71-13-6.24-4-3.22-18.21-3.25-25,0-5-.64-10.16,1.76-14.74,1.12-2.15,3.63-3.21,4.53-5.35,0.83-2,2-9.65,1.91-11.79-0.18-3.85,1.53-1.57.29-4-0.88-1.75-5.71,2.46-5.78,2.56q0.55-2.78-1.78-3.53c-3.29,1.43-4.13,15.55-4.5,17.79-2.05,12.48-3.73,26-2.11,38.68,1.41,11,9.55,16.85,18.45,22.58,4.24,2.73,8,5.83,12.19,1.2A7.52,7.52,0,0,0-2892.75,2997.05Z" transform="translate(3002.52 -2788.49)"/><path class="cls-58" d="M-2953.94,2953.42c-2,2.45-12.26,22.81-5.37,23.18,3.32,0.17,5.68-24.35,7-24.41Z" transform="translate(3002.52 -2788.49)"/><path class="cls-58" d="M-2955.48,3012.92c0.39,4,1.09,5.88-2.59,5.92,0.71,0-7.81-5.41-7.06-3.93-1.17-2.29,3.69-7.55,4.25-10,0.72-3.21-1.17-7-.56-9.81,0.13-.59,3.34-9.4,4.74-8.88,2,0.73,1,24.09,1.21,26.74C-2954.81,3019.88-2956.24,3005-2955.48,3012.92Z" transform="translate(3002.52 -2788.49)"/><path class="cls-58" d="M-2917.82,2938.79c-0.06-1.12.17-6.07,1.8-6.22a2.05,2.05,0,0,1,1.25,2.49c0.85-1.46,2.81-3.56,4.56-3.73,3-.29-5.76,16.93-6.29,18.1-3.57,7.74-1.66,17.77-2.09,26.1-0.37,7.06-2.43,12.24,4.66,15.79,4.43,2.22,11.48-.63,14.79,4.29,0.79,1.17.44,9.07-.7,8.4,3.06,1.81,5.25-3.52,7.44-2.81,4.14,1.34-1.53,6.44-3.22,7-2.73.83-6.33-2.23-8.33-3.38-5.91-3.42-12.57-8.2-15.49-14.48C-2926.47,2975.15-2919.23,2954.46-2917.82,2938.79Z" transform="translate(3002.52 -2788.49)"/><g class="cls-18"><path class="cls-23" d="M-2957.15,2932.28c6.14-1.32,4.09,13.18,1,15.45-10.17,7.55-4.92-9.2-6.85-9.64-2.46-.57-0.44,13.75-1.49,14.5-4.31,3.09-3.21-18.1-1.88-20.67-7.77,6.41-3.8,32,9.72,22.39,6.66-4.72,11.65-18.66,16.2-25.67-5.36-.64-11.72,2-16.73,3.64C-2956,2932-2952.1,2930.63-2957.15,2932.28Z" transform="translate(3002.52 -2788.49)"/></g><path class="cls-32" d="M-2963.85,2934.77c-0.59,2.09-.62,6.45-2,8-0.44.46-2.68-8.47,1.25-9.57Q-2963.27,2933.32-2963.85,2934.77Z" transform="translate(3002.52 -2788.49)"/><path class="cls-32" d="M-2965.55,2945.34q-0.66,2.66-1.33,0Q-2966.21,2942.7-2965.55,2945.34Z" transform="translate(3002.52 -2788.49)"/><g class="cls-18"><path class="cls-23" d="M-2924,2956.13c0.95-9.75,1.61-22.27,7.19-30.81-6.15.75-2.55,9.51-10.39,11.67-5.23,1.44-9-1.65-8.61-7-9.21,16.27-15,34.43-15.85,53.15-0.35,7.91-3.34,36.12,6.84,38.41a198.85,198.85,0,0,1-3.24-31.56c0-2.62-1.36-15.86,1.12-17.41s2.43,1.1,4.28,2.57c5.69,4.5,11.63,18,14.57,24.63a103.19,103.19,0,0,1,5.34,15.9c1.82,7,1.35,8.87,9.08,5.69-6.08-1.57-7.95-14.65-8.89-19.31-3-15-2.91-30.72-1.43-45.87C-2922.14,2937.49-2927.58,2993.25-2924,2956.13Zm-3,21.61a3.11,3.11,0,0,1-.45,2.37c-1.41,1-19.76-32-10.42-39.83,1.49-1.25,11.2-1.62,12.61,0,2.43,2.75-.9,12-1.25,15.48a161.73,161.73,0,0,0-.49,22h0Z" transform="translate(3002.52 -2788.49)"/></g><path class="cls-59" d="M-2947.31,2928.43a134.91,134.91,0,0,0,9.12,37.59,109.84,109.84,0,0,0,17.67,30.42c2,2.34,17.86,16.84,11.11,15.82-4.1-.62-9.68-8.27-12-11a132.26,132.26,0,0,1-20.52-34.54c-3.88-9.38-9.29-20.8-10.24-31.09-0.11-1.16-1.1-4.19-.32-5.37S-2947.31,2925.74-2947.31,2928.43Z" transform="translate(3002.52 -2788.49)"/><path class="cls-60" d="M-2908.3,3013.23c-13-6.34-21.9-22.48-28.32-34.56-3.05-5.73-23-42.8-15.4-50,5.72-5.44,5.63,4.8,6.06,7.44a144.49,144.49,0,0,0,6.63,25.66,114.66,114.66,0,0,0,16.91,31.71C-2919,2997.93-2902.66,3008.25-2908.3,3013.23Zm-40.34-85.14c-10.17,0,6.51,37.56,8,40.95,6.3,14.33,17.24,35.85,32.16,43.32,2.93-3.54-5.72-8.54-8.56-11.52a93.94,93.94,0,0,1-10.32-13A122.46,122.46,0,0,1-2941,2959C-2941.94,2956.3-2947.38,2928.09-2948.64,2928.09Z" transform="translate(3002.52 -2788.49)"/><g class="cls-16"><path class="cls-59" d="M-2947.31,2928.43c0-2.58-4.6,1-5.23,2.1-1.42,2.5,1.45,9.72,2.1,11.92-0.52-2.45-2.82-10.3-.29-12.14-0.37.27,7.9,25.91,8.42,27.48a136,136,0,0,0,9.93,23.37c1.56,2.8,10.85,19.31,13.13,19.44-2.34-.13-5.66-4.24-7.06-5.74,0.3,0.42,20.56,24.49,19.75,14.87-0.2-2.43-12.79-11.86-15.12-14.74a102.83,102.83,0,0,1-11.67-18.21A133.62,133.62,0,0,1-2947.31,2928.43Z" transform="translate(3002.52 -2788.49)"/></g><path class="cls-61" d="M-2948.52,2942.25q2.52,9.05,5.78,17.88c1.37,3.71,7.2,23.2,10.93,24.12-5.48-1.35-10.67-19.2-12.18-23.38S-2948.22,2943-2948.52,2942.25Z" transform="translate(3002.52 -2788.49)"/><path class="cls-59" d="M-2882.85,3017.94c7.53,6.41,33.5,21.93,30.12,33.22-4.24,14.15-31.53-7.18-38.93-11.25A50.37,50.37,0,0,0-2882.85,3017.94Z" transform="translate(3002.52 -2788.49)"/><path class="cls-60" d="M-2859,3057c-10.09,0-24.39-12.15-33.24-17a51.27,51.27,0,0,0,9.06-22.8q9.66,8.19,19.26,16.44c3.67,3.15,9.87,7,11.32,11.78C-2851.17,3050-2853.14,3057-2859,3057Zm-32.17-17.26c6.85,3.78,34.55,24.79,38.18,10.86,2.78-10.65-22.74-26.14-29.63-32a51.17,51.17,0,0,1-8.55,21.13C-2888.64,3041.16-2889.89,3038-2891.14,3039.78Z" transform="translate(3002.52 -2788.49)"/><path class="cls-62" d="M-2857.87,3039.3c-8.29-7.17-16.64-14.26-25-21.37a50.37,50.37,0,0,1-8.81,22c8.74,4.81,17.85,11.77,27.2,15.14C-2852.06,3059.51-2849.08,3046.9-2857.87,3039.3Zm-27-3.38a41.89,41.89,0,0,0,4.59-12.19c-0.47,1.78,5.16,6.62,2.49,10.59-1.22,1.82-9,4.4-7.08,1.6C-2882,3031.21-2887.68,3040-2884.91,3035.92Zm7.73,9.9a42.27,42.27,0,0,1-4.67-2.18c-1.64-1.49,5.92-3.82,5.88-3.49,0.22,0.69.71,6.73-1.21,5.67h0Zm4.47-14.37q-0.15-1.63-.37-3.26c0-.27,3.43.52,2.78,1.68,0.26-.46-2.22,3.87-2.41,1.57C-2872.83,3030-2872.6,3032.9-2872.71,3031.45Zm2,10.26c-0.87-7.15,6.71-10.09,6.86-1.5,0.09,5.19-6,8.2-6.86,1.5C-2870.9,3039.78-2870.42,3043.65-2870.66,3041.72Zm2.66,9.9c0.51-.27,6.1-2.05,6-2.26C-2859.27,3054.82-2865.2,3054.31-2868,3051.61Zm8.33-12.55c0,0.28,3.55,1.45,2.05,2.61C-2859.69,3043.26-2859.27,3039.92-2859.68,3039.06Zm5.31,12c-2.34,9.63-6.05-4.19-2.72-4.84,2.35-.46,3,3.59,2.72,4.84h0Z" transform="translate(3002.52 -2788.49)"/><g class="cls-63"><path class="cls-64" d="M-2877.51,3022.4c1.24,5.39,1.66,26.58,5.43,28.43C-2872.2,3043.57-2871.11,3026.79-2877.51,3022.4Z" transform="translate(3002.52 -2788.49)"/><path class="cls-64" d="M-2888.83,3041.23c5.32-1.45,19.44-10.94,22.45-9.23C-2871,3035.4-2883.85,3045.92-2888.83,3041.23Z" transform="translate(3002.52 -2788.49)"/><path class="cls-64" d="M-2864.12,3034.08c1.76,4.6,2.45,21.6,4.44,22.72C-2859.06,3050.41-2857.83,3038-2864.12,3034.08Z" transform="translate(3002.52 -2788.49)"/><path class="cls-64" d="M-2872.08,3048.66c4.46-1.47,14.7-8,17.65-5.8-5.17,3.6-11.17,7.06-17.38,8.33Q-2871.9,3049.92-2872.08,3048.66Z" transform="translate(3002.52 -2788.49)"/></g><g class="cls-51"><path class="cls-59" d="M-2855.37,3041.75c8.86,13.47-17.42.36-20.1-1.51-3.3-2.3-7.2-4.33-7.73-8.72-0.58-4.8,6.89-10.42.35-13.59a50.37,50.37,0,0,1-8.81,22c8,4.43,15.89,9.5,24.13,13.53,4.09,2,8.51,5,12.61,1.55s2.6-9.79-.44-13.24C-2851.58,3047.52-2851.09,3046.61-2855.37,3041.75Z" transform="translate(3002.52 -2788.49)"/></g><path class="cls-61" d="M-2878.31,3026.11c4.7,3.38,12.68,12.81,18,13.71-1.3-.22-7.26-7.08-8.76-8.21-3-2.25-6.31-5.1-9.79-6.55Q-2880,3025.07-2878.31,3026.11Z" transform="translate(3002.52 -2788.49)"/><path class="cls-61" d="M-2858.58,3040.66q0.88,1.66-.77.75-0.88-1.66.77-.75h0Z" transform="translate(3002.52 -2788.49)"/><path class="cls-65" d="M-2884.27,3029.58c-1,2.76-5.84,15.78-11,14.42-4.94-1.3.11-15.51,1.08-18.11,1-2.8,6.09-16.25,11-14.42s-0.21,15.78-1.07,18.11h0Z" transform="translate(3002.52 -2788.49)"/><path class="cls-66" d="M-2894.69,3044.47c-6.87,0,1.54-34.95,10.88-33.47C-2875.81,3012.27-2886.16,3044.47-2894.69,3044.47Zm10.88-32.74c-8.62,0-17.22,31.23-10.06,31.83C-2886.12,3044.2-2878.38,3011.72-2883.81,3011.72Z" transform="translate(3002.52 -2788.49)"/><path class="cls-67" d="M-2885.65,3028.93c-1,2.76-5.84,15.77-11,14.42-4.94-1.3.11-15.51,1.08-18.11,1-2.8,6.09-16.24,11-14.42s-0.21,15.78-1.07,18.11C-2889,3037.91-2882.31,3019.95-2885.65,3028.93Z" transform="translate(3002.52 -2788.49)"/><path class="cls-66" d="M-2896.06,3043.82c-6.87,0,1.53-34.94,10.88-33.46C-2877.19,3011.61-2887.53,3043.82-2896.06,3043.82Zm10.88-32.74c-8.63,0-17.22,31.23-10.06,31.83C-2887.49,3043.55-2879.75,3011.08-2885.18,3011.08Z" transform="translate(3002.52 -2788.49)"/><path class="cls-68" d="M-2897,3029.6l3.78,12.37c3.41-3.19-1.44-11.67-2.69-15.8Z" transform="translate(3002.52 -2788.49)"/><path class="cls-66" d="M-2896.66,3043.35c6.31,2.38.18-12-.35-13.75-0.66,2.35-3.58,12.29.35,13.75h0Z" transform="translate(3002.52 -2788.49)"/><path class="cls-65" d="M-2884,3023.74l-3.63-11.87c-5.59,4.7-.46,12.62,1.37,18.63A56.28,56.28,0,0,0-2884,3023.74Z" transform="translate(3002.52 -2788.49)"/><path class="cls-68" d="M-2883.33,3020.76l-3-9.76c-2.9,1.38,1.5,10.09,2.31,12.75Z" transform="translate(3002.52 -2788.49)"/><path class="cls-69" d="M-2886.89,3025.57c-2.78,8.54-9.7,6.29-6.93-2.26,2.65-8.13,10-7.19,6.93,2.26h0Z" transform="translate(3002.52 -2788.49)"/><g class="cls-63"><path class="cls-66" d="M-2883.09,3012.93c-0.64,6.47-3,.92-5.37,2.3-4.08,2.33-6.52,6.33-7.7,11.71-0.5,2.25-1.73,3.81-.81,6,0.59,1.37,3.78,1.23,3.93,1.83,0.8,3.09.62,5.95-4.75,7.52,3.25,6.33,16.25-23.26,14.69-29.32C-2883.38,3015.86-2882.27,3016.1-2883.09,3012.93Z" transform="translate(3002.52 -2788.49)"/></g><path class="cls-59" d="M-2889.08,3019l-15.9-10.43c-3.28,8.36-6.52,9.67.39,14.32,1.83,1.24,8,5.23,10.22,5.14S-2883.56,3021.15-2889.08,3019Z" transform="translate(3002.52 -2788.49)"/><path class="cls-60" d="M-2892.54,3029.16c-3.52-1.42-14.28-4.78-16-7.9-1.85-3.29,1.68-8.81,3.43-13.27,4,2.66,8.57,5,12.32,8.09C-2889.77,3018.57-2883.38,3029.16-2892.54,3029.16Zm-16.61-9c5.16,2.6,16.65,12.66,19.9,4.38,2.94-7.5-10.57-12.19-15.55-15.45Z" transform="translate(3002.52 -2788.49)"/><g class="cls-16"><path class="cls-59" d="M-2889.08,3019l-1.52-1c4.74,7.05-4.89,6.34-8.32,4.58-5.63-2.88-6.55-12.39.52-9.71l-6.58-4.31c-3.28,8.36-6.52,9.67.39,14.32,1.83,1.24,8,5.23,10.22,5.14S-2883.56,3021.15-2889.08,3019Z" transform="translate(3002.52 -2788.49)"/></g><path class="cls-59" d="M-2904.78,3015.42c-2.43,6.21-8.08,5.92-5-2,2.27-5.9,8.16-6,5,2h0Z" transform="translate(3002.52 -2788.49)"/><path class="cls-60" d="M-2909.16,3020.78c-4.37,0-.38-13.63,4-12.63S-2905.66,3020.78-2909.16,3020.78Zm3.73-12c-3,0-7.22,9.95-4,11.19C-2905.67,3021.48-2902.7,3008.81-2905.43,3008.81Z" transform="translate(3002.52 -2788.49)"/><path class="cls-61" d="M-2906.55,3013.51a2.62,2.62,0,0,1-2.14,2.18c-1.6-.62.46-5.86,2.06-5.24a2.63,2.63,0,0,1,.09,3.06h0Z" transform="translate(3002.52 -2788.49)"/><g class="cls-16"><path class="cls-59" d="M-2905,3008.54c-3.57-1.4-7.91,10.41-4.63,11.8,3.66,1.54,7.91-10.51,4.63-11.8h0Zm-0.85,6.23c-1.94,5-5.51,3.56-3.56-1.4s5.52-3.56,3.56,1.4h0Z" transform="translate(3002.52 -2788.49)"/></g><path class="cls-61" d="M-2899.06,3014.89c2.06,1.26,7,2.73,8.05,3.91-1.51-1.63-8.76-3.67-9.35-5.06Z" transform="translate(3002.52 -2788.49)"/></g></g></svg>